<?xml version="1.0" encoding="UTF-8" standalone="no"?>
<!DOCTYPE svg PUBLIC "-//W3C//DTD SVG 1.1//EN"
 "http://www.w3.org/Graphics/SVG/1.1/DTD/svg11.dtd">
<!-- Generated by graphviz version 2.43.0 (0)
 -->
<!-- Title: coord.hpp Pages: 1 -->
<svg width="104pt" height="78pt"
 viewBox="0.00 0.00 103.50 78.00" xmlns="http://www.w3.org/2000/svg" xmlns:xlink="http://www.w3.org/1999/xlink">
<g id="graph0" class="graph" transform="scale(1 1) rotate(0) translate(4 74)">
<title>coord.hpp</title>
<!-- Node1 -->
<g id="Node000001" class="node">
<title>Node1</title>
<g id="a_Node000001"><a xlink:title=" ">
<polygon fill="#999999" stroke="#666666" points="72,-70 19,-70 19,-53 72,-53 72,-70"/>
<text text-anchor="middle" x="45.5" y="-59.6" font-family="Helvetica,sans-Serif" font-size="8.00">coord.hpp</text>
</a>
</g>
</g>
<!-- Node2 -->
<g id="Node000002" class="node">
<title>Node2</title>
<g id="a_Node000002"><a xlink:title=" ">
<polygon fill="#e0e0e0" stroke="#999999" points="35,-17 0,-17 0,0 35,0 35,-17"/>
<text text-anchor="middle" x="17.5" y="-6.6" font-family="Helvetica,sans-Serif" font-size="8.00">array</text>
</a>
</g>
</g>
<!-- Node1&#45;&gt;Node2 -->
<g id="edge1_Node000001_Node000002" class="edge">
<title>Node1&#45;&gt;Node2</title>
<g id="a_edge1_Node000001_Node000002"><a xlink:title=" ">
<path fill="none" stroke="#63b8ff" d="M41.37,-52.97C37.48,-45.89 31.53,-35.05 26.54,-25.96"/>
<polygon fill="#63b8ff" stroke="#63b8ff" points="29.53,-24.14 21.65,-17.06 23.39,-27.51 29.53,-24.14"/>
</a>
</g>
</g>
<!-- Node3 -->
<g id="Node000003" class="node">
<title>Node3</title>
<g id="a_Node000003"><a xlink:title=" ">
<polygon fill="#e0e0e0" stroke="#999999" points="95.5,-17 53.5,-17 53.5,0 95.5,0 95.5,-17"/>
<text text-anchor="middle" x="74.5" y="-6.6" font-family="Helvetica,sans-Serif" font-size="8.00">cstddef</text>
</a>
</g>
</g>
<!-- Node1&#45;&gt;Node3 -->
<g id="edge2_Node000001_Node000003" class="edge">
<title>Node1&#45;&gt;Node3</title>
<g id="a_edge2_Node000001_Node000003"><a xlink:title=" ">
<path fill="none" stroke="#63b8ff" d="M49.78,-52.97C53.81,-45.89 59.97,-35.05 65.14,-25.96"/>
<polygon fill="#63b8ff" stroke="#63b8ff" points="68.3,-27.48 70.2,-17.06 62.22,-24.02 68.3,-27.48"/>
</a>
</g>
</g>
</g>
</svg>
