<?xml version="1.0" encoding="UTF-8" standalone="no"?>
<!DOCTYPE svg PUBLIC "-//W3C//DTD SVG 1.1//EN"
 "http://www.w3.org/Graphics/SVG/1.1/DTD/svg11.dtd">
<!-- Generated by graphviz version 2.43.0 (0)
 -->
<!-- Title: heterogeneous_pool.hpp Pages: 1 -->
<svg width="484pt" height="184pt"
 viewBox="0.00 0.00 483.50 184.00" xmlns="http://www.w3.org/2000/svg" xmlns:xlink="http://www.w3.org/1999/xlink">
<g id="graph0" class="graph" transform="scale(1 1) rotate(0) translate(4 180)">
<title>heterogeneous_pool.hpp</title>
<!-- Node1 -->
<g id="Node000001" class="node">
<title>Node1</title>
<g id="a_Node000001"><a xlink:title=" ">
<polygon fill="#999999" stroke="#666666" points="119,-176 0,-176 0,-159 119,-159 119,-176"/>
<text text-anchor="middle" x="59.5" y="-165.6" font-family="Helvetica,sans-Serif" font-size="8.00">heterogeneous_pool.hpp</text>
</a>
</g>
</g>
<!-- Node2 -->
<g id="Node000002" class="node">
<title>Node2</title>
<g id="a_Node000002"><a xlink:href="../../d9/d96/chdr_8hpp.html" target="_top" xlink:title=" ">
<polygon fill="white" stroke="#666666" points="214.5,-17 162.5,-17 162.5,0 214.5,0 214.5,-17"/>
<text text-anchor="middle" x="188.5" y="-6.6" font-family="Helvetica,sans-Serif" font-size="8.00">chdr.hpp</text>
</a>
</g>
</g>
<!-- Node1&#45;&gt;Node2 -->
<g id="edge1_Node000001_Node000002" class="edge">
<title>Node1&#45;&gt;Node2</title>
<g id="a_edge1_Node000001_Node000002"><a xlink:title=" ">
<path fill="none" stroke="#63b8ff" d="M44.26,-151.74C22.4,-128.76 -12.71,-83.88 11.5,-53 29.95,-29.47 117.63,-16.97 162.27,-12.04"/>
<polygon fill="#63b8ff" stroke="#63b8ff" points="41.81,-154.23 51.32,-158.89 46.79,-149.31 41.81,-154.23"/>
</a>
</g>
</g>
<!-- Node3 -->
<g id="Node000003" class="node">
<title>Node3</title>
<g id="a_Node000003"><a xlink:href="../../da/deb/managed__node_8hpp.html" target="_top" xlink:title=" ">
<polygon fill="white" stroke="#666666" points="237.5,-123 139.5,-123 139.5,-106 237.5,-106 237.5,-123"/>
<text text-anchor="middle" x="188.5" y="-112.6" font-family="Helvetica,sans-Serif" font-size="8.00">managed_node.hpp</text>
</a>
</g>
</g>
<!-- Node1&#45;&gt;Node3 -->
<g id="edge2_Node000001_Node000003" class="edge">
<title>Node1&#45;&gt;Node3</title>
<g id="a_edge2_Node000001_Node000003"><a xlink:title=" ">
<path fill="none" stroke="#63b8ff" d="M88.11,-155.19C112.85,-145.41 147.92,-131.54 169.39,-123.06"/>
<polygon fill="#63b8ff" stroke="#63b8ff" points="86.55,-152.04 78.53,-158.97 89.12,-158.55 86.55,-152.04"/>
</a>
</g>
</g>
<!-- Node3&#45;&gt;Node2 -->
<g id="edge3_Node000003_Node000002" class="edge">
<title>Node3&#45;&gt;Node2</title>
<g id="a_edge3_Node000003_Node000002"><a xlink:title=" ">
<path fill="none" stroke="#63b8ff" d="M129.28,-105.69C87.12,-98.77 35.69,-87.09 22.5,-70 -14.89,-21.55 106.81,-11.87 162.35,-9.96"/>
<polygon fill="#63b8ff" stroke="#63b8ff" points="128.79,-109.15 139.22,-107.26 129.89,-102.24 128.79,-109.15"/>
</a>
</g>
</g>
<!-- Node4 -->
<g id="Node000004" class="node">
<title>Node4</title>
<g id="a_Node000004"><a xlink:href="../../d3/d3e/gbest__first_8hpp.html" target="_top" xlink:title=" ">
<polygon fill="white" stroke="#666666" points="109,-70 32,-70 32,-53 109,-53 109,-70"/>
<text text-anchor="middle" x="70.5" y="-59.6" font-family="Helvetica,sans-Serif" font-size="8.00">gbest_first.hpp</text>
</a>
</g>
</g>
<!-- Node3&#45;&gt;Node4 -->
<g id="edge4_Node000003_Node000004" class="edge">
<title>Node3&#45;&gt;Node4</title>
<g id="a_edge4_Node000003_Node000004"><a xlink:title=" ">
<path fill="none" stroke="#63b8ff" d="M161.73,-101.93C139.13,-92.16 107.45,-78.47 87.98,-70.06"/>
<polygon fill="#63b8ff" stroke="#63b8ff" points="160.52,-105.22 171.09,-105.97 163.3,-98.79 160.52,-105.22"/>
</a>
</g>
</g>
<!-- Node5 -->
<g id="Node000005" class="node">
<title>Node5</title>
<g id="a_Node000005"><a xlink:href="../../de/d94/gbfs_8hpp.html" target="_top" xlink:title=" ">
<polygon fill="white" stroke="#666666" points="180,-70 127,-70 127,-53 180,-53 180,-70"/>
<text text-anchor="middle" x="153.5" y="-59.6" font-family="Helvetica,sans-Serif" font-size="8.00">gbfs.hpp</text>
</a>
</g>
</g>
<!-- Node3&#45;&gt;Node5 -->
<g id="edge6_Node000003_Node000005" class="edge">
<title>Node3&#45;&gt;Node5</title>
<g id="a_edge6_Node000003_Node000005"><a xlink:title=" ">
<path fill="none" stroke="#63b8ff" d="M177.62,-97.65C171.31,-88.46 163.66,-77.3 158.69,-70.06"/>
<polygon fill="#63b8ff" stroke="#63b8ff" points="174.79,-99.71 183.34,-105.97 180.56,-95.75 174.79,-99.71"/>
</a>
</g>
</g>
<!-- Node6 -->
<g id="Node000006" class="node">
<title>Node6</title>
<g id="a_Node000006"><a xlink:href="../../d4/df2/gdfs_8hpp.html" target="_top" xlink:title=" ">
<polygon fill="white" stroke="#666666" points="251,-70 198,-70 198,-53 251,-53 251,-70"/>
<text text-anchor="middle" x="224.5" y="-59.6" font-family="Helvetica,sans-Serif" font-size="8.00">gdfs.hpp</text>
</a>
</g>
</g>
<!-- Node3&#45;&gt;Node6 -->
<g id="edge8_Node000003_Node000006" class="edge">
<title>Node3&#45;&gt;Node6</title>
<g id="a_edge8_Node000003_Node000006"><a xlink:title=" ">
<path fill="none" stroke="#63b8ff" d="M199.69,-97.65C206.18,-88.46 214.05,-77.3 219.17,-70.06"/>
<polygon fill="#63b8ff" stroke="#63b8ff" points="196.72,-95.79 193.81,-105.97 202.44,-99.82 196.72,-95.79"/>
</a>
</g>
</g>
<!-- Node7 -->
<g id="Node000007" class="node">
<title>Node7</title>
<g id="a_Node000007"><a xlink:href="../../d3/d3e/gjps_8hpp.html" target="_top" xlink:title=" ">
<polygon fill="white" stroke="#666666" points="321.5,-70 269.5,-70 269.5,-53 321.5,-53 321.5,-70"/>
<text text-anchor="middle" x="295.5" y="-59.6" font-family="Helvetica,sans-Serif" font-size="8.00">gjps.hpp</text>
</a>
</g>
</g>
<!-- Node3&#45;&gt;Node7 -->
<g id="edge10_Node000003_Node000007" class="edge">
<title>Node3&#45;&gt;Node7</title>
<g id="a_edge10_Node000003_Node000007"><a xlink:title=" ">
<path fill="none" stroke="#63b8ff" d="M213.33,-101.66C233.78,-91.92 262.16,-78.39 279.65,-70.06"/>
<polygon fill="#63b8ff" stroke="#63b8ff" points="211.81,-98.51 204.29,-105.97 214.82,-104.83 211.81,-98.51"/>
</a>
</g>
</g>
<!-- Node8 -->
<g id="Node000008" class="node">
<title>Node8</title>
<g id="a_Node000008"><a xlink:href="../../d1/def/gstar_8hpp.html" target="_top" xlink:title=" ">
<polygon fill="white" stroke="#666666" points="395,-70 340,-70 340,-53 395,-53 395,-70"/>
<text text-anchor="middle" x="367.5" y="-59.6" font-family="Helvetica,sans-Serif" font-size="8.00">gstar.hpp</text>
</a>
</g>
</g>
<!-- Node3&#45;&gt;Node8 -->
<g id="edge12_Node000003_Node000008" class="edge">
<title>Node3&#45;&gt;Node8</title>
<g id="a_edge12_Node000003_Node000008"><a xlink:title=" ">
<path fill="none" stroke="#63b8ff" d="M224.59,-103.22C259.04,-93.4 310.13,-78.85 340.98,-70.06"/>
<polygon fill="#63b8ff" stroke="#63b8ff" points="223.57,-99.87 214.91,-105.97 225.49,-106.6 223.57,-99.87"/>
</a>
</g>
</g>
<!-- Node9 -->
<g id="Node000009" class="node">
<title>Node9</title>
<g id="a_Node000009"><a xlink:href="../../d8/ddf/mgstar_8hpp.html" target="_top" xlink:title=" ">
<polygon fill="white" stroke="#666666" points="475.5,-70 413.5,-70 413.5,-53 475.5,-53 475.5,-70"/>
<text text-anchor="middle" x="444.5" y="-59.6" font-family="Helvetica,sans-Serif" font-size="8.00">mgstar.hpp</text>
</a>
</g>
</g>
<!-- Node3&#45;&gt;Node9 -->
<g id="edge14_Node000003_Node000009" class="edge">
<title>Node3&#45;&gt;Node9</title>
<g id="a_edge14_Node000003_Node000009"><a xlink:title=" ">
<path fill="none" stroke="#63b8ff" d="M236.22,-103.99C288.04,-93.67 369.27,-77.49 413.42,-68.69"/>
<polygon fill="#63b8ff" stroke="#63b8ff" points="235.4,-100.59 226.27,-105.97 236.76,-107.45 235.4,-100.59"/>
</a>
</g>
</g>
<!-- Node4&#45;&gt;Node2 -->
<g id="edge5_Node000004_Node000002" class="edge">
<title>Node4&#45;&gt;Node2</title>
<g id="a_edge5_Node000004_Node000002"><a xlink:title=" ">
<path fill="none" stroke="#63b8ff" d="M97.27,-48.93C119.87,-39.16 151.55,-25.47 171.02,-17.06"/>
<polygon fill="#63b8ff" stroke="#63b8ff" points="95.7,-45.79 87.91,-52.97 98.48,-52.22 95.7,-45.79"/>
</a>
</g>
</g>
<!-- Node5&#45;&gt;Node2 -->
<g id="edge7_Node000005_Node000002" class="edge">
<title>Node5&#45;&gt;Node2</title>
<g id="a_edge7_Node000005_Node000002"><a xlink:title=" ">
<path fill="none" stroke="#63b8ff" d="M164.38,-44.65C170.69,-35.46 178.34,-24.3 183.31,-17.06"/>
<polygon fill="#63b8ff" stroke="#63b8ff" points="161.44,-42.75 158.66,-52.97 167.21,-46.71 161.44,-42.75"/>
</a>
</g>
</g>
<!-- Node6&#45;&gt;Node2 -->
<g id="edge9_Node000006_Node000002" class="edge">
<title>Node6&#45;&gt;Node2</title>
<g id="a_edge9_Node000006_Node000002"><a xlink:title=" ">
<path fill="none" stroke="#63b8ff" d="M213.31,-44.65C206.82,-35.46 198.95,-24.3 193.83,-17.06"/>
<polygon fill="#63b8ff" stroke="#63b8ff" points="210.56,-46.82 219.19,-52.97 216.28,-42.79 210.56,-46.82"/>
</a>
</g>
</g>
<!-- Node7&#45;&gt;Node2 -->
<g id="edge11_Node000007_Node000002" class="edge">
<title>Node7&#45;&gt;Node2</title>
<g id="a_edge11_Node000007_Node000002"><a xlink:title=" ">
<path fill="none" stroke="#63b8ff" d="M270.67,-48.66C250.22,-38.92 221.84,-25.39 204.35,-17.06"/>
<polygon fill="#63b8ff" stroke="#63b8ff" points="269.18,-51.83 279.71,-52.97 272.19,-45.51 269.18,-51.83"/>
</a>
</g>
</g>
<!-- Node8&#45;&gt;Node2 -->
<g id="edge13_Node000008_Node000002" class="edge">
<title>Node8&#45;&gt;Node2</title>
<g id="a_edge13_Node000008_Node000002"><a xlink:title=" ">
<path fill="none" stroke="#63b8ff" d="M331.38,-50.21C296.82,-40.36 245.54,-25.75 214.73,-16.97"/>
<polygon fill="#63b8ff" stroke="#63b8ff" points="330.51,-53.6 341.09,-52.97 332.43,-46.87 330.51,-53.6"/>
</a>
</g>
</g>
<!-- Node9&#45;&gt;Node2 -->
<g id="edge15_Node000009_Node000002" class="edge">
<title>Node9&#45;&gt;Node2</title>
<g id="a_edge15_Node000009_Node000002"><a xlink:title=" ">
<path fill="none" stroke="#63b8ff" d="M403.27,-52.29C350.15,-41.7 259.37,-23.62 214.78,-14.74"/>
<polygon fill="#63b8ff" stroke="#63b8ff" points="402.87,-55.78 413.37,-54.3 404.24,-48.91 402.87,-55.78"/>
</a>
</g>
</g>
</g>
</svg>
