<?xml version="1.0" encoding="UTF-8" standalone="no"?>
<!DOCTYPE svg PUBLIC "-//W3C//DTD SVG 1.1//EN"
 "http://www.w3.org/Graphics/SVG/1.1/DTD/svg11.dtd">
<!-- Generated by graphviz version 2.43.0 (0)
 -->
<!-- Title: heterogeneous_pool.hpp Pages: 1 -->
<svg width="331pt" height="184pt"
 viewBox="0.00 0.00 331.00 184.00" xmlns="http://www.w3.org/2000/svg" xmlns:xlink="http://www.w3.org/1999/xlink">
<g id="graph0" class="graph" transform="scale(1 1) rotate(0) translate(4 180)">
<title>heterogeneous_pool.hpp</title>
<!-- Node1 -->
<g id="Node000001" class="node">
<title>Node1</title>
<g id="a_Node000001"><a xlink:title=" ">
<polygon fill="#999999" stroke="#666666" points="106,-176 0,-176 0,-159 106,-159 106,-176"/>
<text text-anchor="middle" x="53" y="-165.6" font-family="Helvetica,sans-Serif" font-size="8.00">heterogeneous_pool.hpp</text>
</a>
</g>
</g>
<!-- Node2 -->
<g id="Node000002" class="node">
<title>Node2</title>
<g id="a_Node000002"><a xlink:href="../../d9/d96/chdr_8hpp.html" target="_top" xlink:title=" ">
<polygon fill="white" stroke="#666666" points="155.5,-17 108.5,-17 108.5,0 155.5,0 155.5,-17"/>
<text text-anchor="middle" x="132" y="-6.6" font-family="Helvetica,sans-Serif" font-size="8.00">chdr.hpp</text>
</a>
</g>
</g>
<!-- Node1&#45;&gt;Node2 -->
<g id="edge1_Node000001_Node000002" class="edge">
<title>Node1&#45;&gt;Node2</title>
<g id="a_edge1_Node000001_Node000002"><a xlink:title=" ">
<path fill="none" stroke="#63b8ff" d="M49.15,-148.96C44.95,-125.31 41.03,-82.76 59,-53 69.9,-34.94 91.4,-23.48 108.26,-16.89"/>
<polygon fill="#63b8ff" stroke="#63b8ff" points="45.74,-149.78 51.13,-158.9 52.61,-148.41 45.74,-149.78"/>
</a>
</g>
</g>
<!-- Node3 -->
<g id="Node000003" class="node">
<title>Node3</title>
<g id="a_Node000003"><a xlink:href="../../da/deb/managed__node_8hpp.html" target="_top" xlink:title=" ">
<polygon fill="white" stroke="#666666" points="176.5,-123 87.5,-123 87.5,-106 176.5,-106 176.5,-123"/>
<text text-anchor="middle" x="132" y="-112.6" font-family="Helvetica,sans-Serif" font-size="8.00">managed_node.hpp</text>
</a>
</g>
</g>
<!-- Node1&#45;&gt;Node3 -->
<g id="edge2_Node000001_Node000003" class="edge">
<title>Node1&#45;&gt;Node3</title>
<g id="a_edge2_Node000001_Node000003"><a xlink:title=" ">
<path fill="none" stroke="#63b8ff" d="M73.21,-153.46C88.12,-143.83 107.91,-131.05 120.3,-123.06"/>
<polygon fill="#63b8ff" stroke="#63b8ff" points="71.16,-150.61 64.66,-158.97 74.96,-156.49 71.16,-150.61"/>
</a>
</g>
</g>
<!-- Node3&#45;&gt;Node2 -->
<g id="edge5_Node000003_Node000002" class="edge">
<title>Node3&#45;&gt;Node2</title>
<g id="a_edge5_Node000003_Node000002"><a xlink:title=" ">
<path fill="none" stroke="#63b8ff" d="M101.51,-101.7C78.88,-90.99 53.74,-73.73 65,-53 74.53,-35.45 94.54,-23.88 110.22,-17.12"/>
<polygon fill="#63b8ff" stroke="#63b8ff" points="100.38,-105.03 110.94,-105.88 103.21,-98.63 100.38,-105.03"/>
</a>
</g>
</g>
<!-- Node4 -->
<g id="Node000004" class="node">
<title>Node4</title>
<g id="a_Node000004"><a xlink:href="../../dc/da9/astar_8hpp.html" target="_top" xlink:title=" ">
<polygon fill="white" stroke="#666666" points="124,-70 74,-70 74,-53 124,-53 124,-70"/>
<text text-anchor="middle" x="99" y="-59.6" font-family="Helvetica,sans-Serif" font-size="8.00">astar.hpp</text>
</a>
</g>
</g>
<!-- Node3&#45;&gt;Node4 -->
<g id="edge3_Node000003_Node000004" class="edge">
<title>Node3&#45;&gt;Node4</title>
<g id="a_edge3_Node000003_Node000004"><a xlink:title=" ">
<path fill="none" stroke="#63b8ff" d="M121.56,-97.36C115.65,-88.23 108.53,-77.22 103.89,-70.06"/>
<polygon fill="#63b8ff" stroke="#63b8ff" points="118.76,-99.48 127.13,-105.97 124.64,-95.68 118.76,-99.48"/>
</a>
</g>
</g>
<!-- Node5 -->
<g id="Node000005" class="node">
<title>Node5</title>
<g id="a_Node000005"><a xlink:href="../../de/d94/gbfs_8hpp.html" target="_top" xlink:title=" ">
<polygon fill="white" stroke="#666666" points="189.5,-70 142.5,-70 142.5,-53 189.5,-53 189.5,-70"/>
<text text-anchor="middle" x="166" y="-59.6" font-family="Helvetica,sans-Serif" font-size="8.00">gbfs.hpp</text>
</a>
</g>
</g>
<!-- Node3&#45;&gt;Node5 -->
<g id="edge6_Node000003_Node000005" class="edge">
<title>Node3&#45;&gt;Node5</title>
<g id="a_edge6_Node000003_Node000005"><a xlink:title=" ">
<path fill="none" stroke="#63b8ff" d="M142.56,-97.65C148.69,-88.46 156.13,-77.3 160.96,-70.06"/>
<polygon fill="#63b8ff" stroke="#63b8ff" points="139.65,-95.71 137.02,-105.97 145.48,-99.6 139.65,-95.71"/>
</a>
</g>
</g>
<!-- Node6 -->
<g id="Node000006" class="node">
<title>Node6</title>
<g id="a_Node000006"><a xlink:href="../../d4/df2/gdfs_8hpp.html" target="_top" xlink:title=" ">
<polygon fill="white" stroke="#666666" points="254.5,-70 207.5,-70 207.5,-53 254.5,-53 254.5,-70"/>
<text text-anchor="middle" x="231" y="-59.6" font-family="Helvetica,sans-Serif" font-size="8.00">gdfs.hpp</text>
</a>
</g>
</g>
<!-- Node3&#45;&gt;Node6 -->
<g id="edge8_Node000003_Node000006" class="edge">
<title>Node3&#45;&gt;Node6</title>
<g id="a_edge8_Node000003_Node000006"><a xlink:title=" ">
<path fill="none" stroke="#63b8ff" d="M155.75,-101.27C174.6,-91.55 200.37,-78.28 216.33,-70.06"/>
<polygon fill="#63b8ff" stroke="#63b8ff" points="153.89,-98.28 146.61,-105.97 157.1,-104.51 153.89,-98.28"/>
</a>
</g>
</g>
<!-- Node7 -->
<g id="Node000007" class="node">
<title>Node7</title>
<g id="a_Node000007"><a xlink:href="../../d1/def/gstar_8hpp.html" target="_top" xlink:title=" ">
<polygon fill="white" stroke="#666666" points="323,-70 273,-70 273,-53 323,-53 323,-70"/>
<text text-anchor="middle" x="298" y="-59.6" font-family="Helvetica,sans-Serif" font-size="8.00">gstar.hpp</text>
</a>
</g>
</g>
<!-- Node3&#45;&gt;Node7 -->
<g id="edge10_Node000003_Node000007" class="edge">
<title>Node3&#45;&gt;Node7</title>
<g id="a_edge10_Node000003_Node000007"><a xlink:title=" ">
<path fill="none" stroke="#63b8ff" d="M166.3,-102.96C198.23,-93.15 245.04,-78.77 273.41,-70.06"/>
<polygon fill="#63b8ff" stroke="#63b8ff" points="165.03,-99.69 156.49,-105.97 167.08,-106.38 165.03,-99.69"/>
</a>
</g>
</g>
<!-- Node4&#45;&gt;Node2 -->
<g id="edge4_Node000004_Node000002" class="edge">
<title>Node4&#45;&gt;Node2</title>
<g id="a_edge4_Node000004_Node000002"><a xlink:title=" ">
<path fill="none" stroke="#63b8ff" d="M109.44,-44.36C115.35,-35.23 122.47,-24.22 127.11,-17.06"/>
<polygon fill="#63b8ff" stroke="#63b8ff" points="106.36,-42.68 103.87,-52.97 112.24,-46.48 106.36,-42.68"/>
</a>
</g>
</g>
<!-- Node5&#45;&gt;Node2 -->
<g id="edge7_Node000005_Node000002" class="edge">
<title>Node5&#45;&gt;Node2</title>
<g id="a_edge7_Node000005_Node000002"><a xlink:title=" ">
<path fill="none" stroke="#63b8ff" d="M155.44,-44.65C149.31,-35.46 141.87,-24.3 137.04,-17.06"/>
<polygon fill="#63b8ff" stroke="#63b8ff" points="152.52,-46.6 160.98,-52.97 158.35,-42.71 152.52,-46.6"/>
</a>
</g>
</g>
<!-- Node6&#45;&gt;Node2 -->
<g id="edge9_Node000006_Node000002" class="edge">
<title>Node6&#45;&gt;Node2</title>
<g id="a_edge9_Node000006_Node000002"><a xlink:title=" ">
<path fill="none" stroke="#63b8ff" d="M207.25,-48.27C188.4,-38.55 162.63,-25.28 146.67,-17.06"/>
<polygon fill="#63b8ff" stroke="#63b8ff" points="205.9,-51.51 216.39,-52.97 209.11,-45.28 205.9,-51.51"/>
</a>
</g>
</g>
<!-- Node7&#45;&gt;Node2 -->
<g id="edge11_Node000007_Node000002" class="edge">
<title>Node7&#45;&gt;Node2</title>
<g id="a_edge11_Node000007_Node000002"><a xlink:title=" ">
<path fill="none" stroke="#63b8ff" d="M263.58,-49.93C231.25,-39.99 183.73,-25.39 155.52,-16.73"/>
<polygon fill="#63b8ff" stroke="#63b8ff" points="262.92,-53.38 273.51,-52.97 264.97,-46.69 262.92,-53.38"/>
</a>
</g>
</g>
</g>
</svg>
