<?xml version="1.0" encoding="UTF-8" standalone="no"?>
<!DOCTYPE svg PUBLIC "-//W3C//DTD SVG 1.1//EN"
 "http://www.w3.org/Graphics/SVG/1.1/DTD/svg11.dtd">
<!-- Generated by graphviz version 2.43.0 (0)
 -->
<!-- Title: heterogeneous_pool.hpp Pages: 1 -->
<svg width="403pt" height="184pt"
 viewBox="0.00 0.00 403.00 184.00" xmlns="http://www.w3.org/2000/svg" xmlns:xlink="http://www.w3.org/1999/xlink">
<g id="graph0" class="graph" transform="scale(1 1) rotate(0) translate(4 180)">
<title>heterogeneous_pool.hpp</title>
<!-- Node1 -->
<g id="Node000001" class="node">
<title>Node1</title>
<g id="a_Node000001"><a xlink:title=" ">
<polygon fill="#999999" stroke="#666666" points="119,-176 0,-176 0,-159 119,-159 119,-176"/>
<text text-anchor="middle" x="59.5" y="-165.6" font-family="Helvetica,sans-Serif" font-size="8.00">heterogeneous_pool.hpp</text>
</a>
</g>
</g>
<!-- Node2 -->
<g id="Node000002" class="node">
<title>Node2</title>
<g id="a_Node000002"><a xlink:href="../../d9/d96/chdr_8hpp.html" target="_top" xlink:title=" ">
<polygon fill="white" stroke="#666666" points="179.5,-17 127.5,-17 127.5,0 179.5,0 179.5,-17"/>
<text text-anchor="middle" x="153.5" y="-6.6" font-family="Helvetica,sans-Serif" font-size="8.00">chdr.hpp</text>
</a>
</g>
</g>
<!-- Node1&#45;&gt;Node2 -->
<g id="edge1_Node000001_Node000002" class="edge">
<title>Node1&#45;&gt;Node2</title>
<g id="a_edge1_Node000001_Node000002"><a xlink:title=" ">
<path fill="none" stroke="#63b8ff" d="M44.64,-151.56C23.69,-128.66 -9.52,-84.26 13.5,-53 39.69,-17.44 94.68,-10.1 127.41,-9.06"/>
<polygon fill="#63b8ff" stroke="#63b8ff" points="42.25,-154.12 51.67,-158.96 47.32,-149.3 42.25,-154.12"/>
</a>
</g>
</g>
<!-- Node3 -->
<g id="Node000003" class="node">
<title>Node3</title>
<g id="a_Node000003"><a xlink:href="../../da/deb/managed__node_8hpp.html" target="_top" xlink:title=" ">
<polygon fill="white" stroke="#666666" points="202.5,-123 104.5,-123 104.5,-106 202.5,-106 202.5,-123"/>
<text text-anchor="middle" x="153.5" y="-112.6" font-family="Helvetica,sans-Serif" font-size="8.00">managed_node.hpp</text>
</a>
</g>
</g>
<!-- Node1&#45;&gt;Node3 -->
<g id="edge2_Node000001_Node000003" class="edge">
<title>Node1&#45;&gt;Node3</title>
<g id="a_edge2_Node000001_Node000003"><a xlink:title=" ">
<path fill="none" stroke="#63b8ff" d="M82.54,-154C100.4,-144.31 124.55,-131.2 139.57,-123.06"/>
<polygon fill="#63b8ff" stroke="#63b8ff" points="80.49,-151.13 73.37,-158.97 83.83,-157.28 80.49,-151.13"/>
</a>
</g>
</g>
<!-- Node3&#45;&gt;Node2 -->
<g id="edge3_Node000003_Node000002" class="edge">
<title>Node3&#45;&gt;Node2</title>
<g id="a_edge3_Node000003_Node000002"><a xlink:title=" ">
<path fill="none" stroke="#63b8ff" d="M94.36,-106.81C49.97,-99.23 0.35,-83.69 22.5,-53 46.41,-19.87 96.58,-11.57 127.42,-9.73"/>
<polygon fill="#63b8ff" stroke="#63b8ff" points="93.88,-110.28 104.31,-108.39 94.98,-103.36 93.88,-110.28"/>
</a>
</g>
</g>
<!-- Node4 -->
<g id="Node000004" class="node">
<title>Node4</title>
<g id="a_Node000004"><a xlink:href="../../d3/d3e/gbest__first_8hpp.html" target="_top" xlink:title=" ">
<polygon fill="white" stroke="#666666" points="109,-70 32,-70 32,-53 109,-53 109,-70"/>
<text text-anchor="middle" x="70.5" y="-59.6" font-family="Helvetica,sans-Serif" font-size="8.00">gbest_first.hpp</text>
</a>
</g>
</g>
<!-- Node3&#45;&gt;Node4 -->
<g id="edge4_Node000003_Node000004" class="edge">
<title>Node3&#45;&gt;Node4</title>
<g id="a_edge4_Node000003_Node000004"><a xlink:title=" ">
<path fill="none" stroke="#63b8ff" d="M132.71,-100.73C116.99,-91.07 95.94,-78.13 82.8,-70.06"/>
<polygon fill="#63b8ff" stroke="#63b8ff" points="130.9,-103.72 141.25,-105.97 134.57,-97.76 130.9,-103.72"/>
</a>
</g>
</g>
<!-- Node5 -->
<g id="Node000005" class="node">
<title>Node5</title>
<g id="a_Node000005"><a xlink:href="../../de/d94/gbfs_8hpp.html" target="_top" xlink:title=" ">
<polygon fill="white" stroke="#666666" points="180,-70 127,-70 127,-53 180,-53 180,-70"/>
<text text-anchor="middle" x="153.5" y="-59.6" font-family="Helvetica,sans-Serif" font-size="8.00">gbfs.hpp</text>
</a>
</g>
</g>
<!-- Node3&#45;&gt;Node5 -->
<g id="edge6_Node000003_Node000005" class="edge">
<title>Node3&#45;&gt;Node5</title>
<g id="a_edge6_Node000003_Node000005"><a xlink:title=" ">
<path fill="none" stroke="#63b8ff" d="M153.5,-95.91C153.5,-87.08 153.5,-76.85 153.5,-70.06"/>
<polygon fill="#63b8ff" stroke="#63b8ff" points="150,-95.97 153.5,-105.97 157,-95.97 150,-95.97"/>
</a>
</g>
</g>
<!-- Node6 -->
<g id="Node000006" class="node">
<title>Node6</title>
<g id="a_Node000006"><a xlink:href="../../d4/df2/gdfs_8hpp.html" target="_top" xlink:title=" ">
<polygon fill="white" stroke="#666666" points="251,-70 198,-70 198,-53 251,-53 251,-70"/>
<text text-anchor="middle" x="224.5" y="-59.6" font-family="Helvetica,sans-Serif" font-size="8.00">gdfs.hpp</text>
</a>
</g>
</g>
<!-- Node3&#45;&gt;Node6 -->
<g id="edge8_Node000003_Node000006" class="edge">
<title>Node3&#45;&gt;Node6</title>
<g id="a_edge8_Node000003_Node000006"><a xlink:title=" ">
<path fill="none" stroke="#63b8ff" d="M172.42,-99.91C185.74,-90.34 203.06,-77.9 213.98,-70.06"/>
<polygon fill="#63b8ff" stroke="#63b8ff" points="170.06,-97.3 163.98,-105.97 174.14,-102.98 170.06,-97.3"/>
</a>
</g>
</g>
<!-- Node7 -->
<g id="Node000007" class="node">
<title>Node7</title>
<g id="a_Node000007"><a xlink:href="../../d3/d3e/gjps_8hpp.html" target="_top" xlink:title=" ">
<polygon fill="white" stroke="#666666" points="321.5,-70 269.5,-70 269.5,-53 321.5,-53 321.5,-70"/>
<text text-anchor="middle" x="295.5" y="-59.6" font-family="Helvetica,sans-Serif" font-size="8.00">gjps.hpp</text>
</a>
</g>
</g>
<!-- Node3&#45;&gt;Node7 -->
<g id="edge10_Node000003_Node000007" class="edge">
<title>Node3&#45;&gt;Node7</title>
<g id="a_edge10_Node000003_Node000007"><a xlink:title=" ">
<path fill="none" stroke="#63b8ff" d="M183.91,-102.58C211.19,-92.78 250.51,-78.66 274.46,-70.06"/>
<polygon fill="#63b8ff" stroke="#63b8ff" points="182.68,-99.3 174.45,-105.97 185.05,-105.89 182.68,-99.3"/>
</a>
</g>
</g>
<!-- Node8 -->
<g id="Node000008" class="node">
<title>Node8</title>
<g id="a_Node000008"><a xlink:href="../../d1/def/gstar_8hpp.html" target="_top" xlink:title=" ">
<polygon fill="white" stroke="#666666" points="395,-70 340,-70 340,-53 395,-53 395,-70"/>
<text text-anchor="middle" x="367.5" y="-59.6" font-family="Helvetica,sans-Serif" font-size="8.00">gstar.hpp</text>
</a>
</g>
</g>
<!-- Node3&#45;&gt;Node8 -->
<g id="edge12_Node000003_Node000008" class="edge">
<title>Node3&#45;&gt;Node8</title>
<g id="a_edge12_Node000003_Node000008"><a xlink:title=" ">
<path fill="none" stroke="#63b8ff" d="M194.89,-103.64C237.61,-93.45 303.07,-77.86 339.88,-69.08"/>
<polygon fill="#63b8ff" stroke="#63b8ff" points="193.99,-100.25 185.08,-105.97 195.62,-107.06 193.99,-100.25"/>
</a>
</g>
</g>
<!-- Node4&#45;&gt;Node2 -->
<g id="edge5_Node000004_Node000002" class="edge">
<title>Node4&#45;&gt;Node2</title>
<g id="a_edge5_Node000004_Node000002"><a xlink:title=" ">
<path fill="none" stroke="#63b8ff" d="M91.29,-47.73C107.01,-38.07 128.06,-25.13 141.2,-17.06"/>
<polygon fill="#63b8ff" stroke="#63b8ff" points="89.43,-44.76 82.75,-52.97 93.1,-50.72 89.43,-44.76"/>
</a>
</g>
</g>
<!-- Node5&#45;&gt;Node2 -->
<g id="edge7_Node000005_Node000002" class="edge">
<title>Node5&#45;&gt;Node2</title>
<g id="a_edge7_Node000005_Node000002"><a xlink:title=" ">
<path fill="none" stroke="#63b8ff" d="M153.5,-42.91C153.5,-34.08 153.5,-23.85 153.5,-17.06"/>
<polygon fill="#63b8ff" stroke="#63b8ff" points="150,-42.97 153.5,-52.97 157,-42.97 150,-42.97"/>
</a>
</g>
</g>
<!-- Node6&#45;&gt;Node2 -->
<g id="edge9_Node000006_Node000002" class="edge">
<title>Node6&#45;&gt;Node2</title>
<g id="a_edge9_Node000006_Node000002"><a xlink:title=" ">
<path fill="none" stroke="#63b8ff" d="M205.58,-46.91C192.26,-37.34 174.94,-24.9 164.02,-17.06"/>
<polygon fill="#63b8ff" stroke="#63b8ff" points="203.86,-49.98 214.02,-52.97 207.94,-44.3 203.86,-49.98"/>
</a>
</g>
</g>
<!-- Node7&#45;&gt;Node2 -->
<g id="edge11_Node000007_Node000002" class="edge">
<title>Node7&#45;&gt;Node2</title>
<g id="a_edge11_Node000007_Node000002"><a xlink:title=" ">
<path fill="none" stroke="#63b8ff" d="M265.09,-49.58C237.81,-39.78 198.49,-25.66 174.54,-17.06"/>
<polygon fill="#63b8ff" stroke="#63b8ff" points="263.95,-52.89 274.55,-52.97 266.32,-46.3 263.95,-52.89"/>
</a>
</g>
</g>
<!-- Node8&#45;&gt;Node2 -->
<g id="edge13_Node000008_Node000002" class="edge">
<title>Node8&#45;&gt;Node2</title>
<g id="a_edge13_Node000008_Node000002"><a xlink:title=" ">
<path fill="none" stroke="#63b8ff" d="M330.14,-51.6C287.02,-41.32 217.25,-24.69 179.59,-15.72"/>
<polygon fill="#63b8ff" stroke="#63b8ff" points="329.42,-55.02 339.96,-53.94 331.05,-48.21 329.42,-55.02"/>
</a>
</g>
</g>
</g>
</svg>
