<?xml version="1.0" encoding="UTF-8" standalone="no"?>
<!DOCTYPE svg PUBLIC "-//W3C//DTD SVG 1.1//EN"
 "http://www.w3.org/Graphics/SVG/1.1/DTD/svg11.dtd">
<!-- Generated by graphviz version 2.43.0 (0)
 -->
<!-- Title: heterogeneous_pool.hpp Pages: 1 -->
<svg width="328pt" height="184pt"
 viewBox="0.00 0.00 328.00 184.00" xmlns="http://www.w3.org/2000/svg" xmlns:xlink="http://www.w3.org/1999/xlink">
<g id="graph0" class="graph" transform="scale(1 1) rotate(0) translate(4 180)">
<title>heterogeneous_pool.hpp</title>
<!-- Node1 -->
<g id="Node000001" class="node">
<title>Node1</title>
<g id="a_Node000001"><a xlink:title=" ">
<polygon fill="#999999" stroke="#666666" points="106,-176 0,-176 0,-159 106,-159 106,-176"/>
<text text-anchor="middle" x="53" y="-165.6" font-family="Helvetica,sans-Serif" font-size="8.00">heterogeneous_pool.hpp</text>
</a>
</g>
</g>
<!-- Node2 -->
<g id="Node000002" class="node">
<title>Node2</title>
<g id="a_Node000002"><a xlink:href="../../d9/d96/chdr_8hpp.html" target="_top" xlink:title=" ">
<polygon fill="white" stroke="#666666" points="153.5,-17 106.5,-17 106.5,0 153.5,0 153.5,-17"/>
<text text-anchor="middle" x="130" y="-6.6" font-family="Helvetica,sans-Serif" font-size="8.00">chdr.hpp</text>
</a>
</g>
</g>
<!-- Node1&#45;&gt;Node2 -->
<g id="edge1_Node000001_Node000002" class="edge">
<title>Node1&#45;&gt;Node2</title>
<g id="a_edge1_Node000001_Node000002"><a xlink:title=" ">
<path fill="none" stroke="#63b8ff" d="M49.2,-148.99C45.07,-125.38 41.22,-82.87 59,-53 69.57,-35.24 90.49,-23.75 106.89,-17.06"/>
<polygon fill="#63b8ff" stroke="#63b8ff" points="45.79,-149.78 51.16,-158.92 52.66,-148.43 45.79,-149.78"/>
</a>
</g>
</g>
<!-- Node3 -->
<g id="Node000003" class="node">
<title>Node3</title>
<g id="a_Node000003"><a xlink:href="../../da/deb/managed__node_8hpp.html" target="_top" xlink:title=" ">
<polygon fill="white" stroke="#666666" points="174.5,-123 85.5,-123 85.5,-106 174.5,-106 174.5,-123"/>
<text text-anchor="middle" x="130" y="-112.6" font-family="Helvetica,sans-Serif" font-size="8.00">managed_node.hpp</text>
</a>
</g>
</g>
<!-- Node1&#45;&gt;Node3 -->
<g id="edge2_Node000001_Node000003" class="edge">
<title>Node1&#45;&gt;Node3</title>
<g id="a_edge2_Node000001_Node000003"><a xlink:title=" ">
<path fill="none" stroke="#63b8ff" d="M73.11,-153.18C87.6,-143.58 106.63,-130.98 118.59,-123.06"/>
<polygon fill="#63b8ff" stroke="#63b8ff" points="70.77,-150.53 64.36,-158.97 74.63,-156.37 70.77,-150.53"/>
</a>
</g>
</g>
<!-- Node3&#45;&gt;Node2 -->
<g id="edge3_Node000003_Node000002" class="edge">
<title>Node3&#45;&gt;Node2</title>
<g id="a_edge3_Node000003_Node000002"><a xlink:title=" ">
<path fill="none" stroke="#63b8ff" d="M100.1,-101.43C86.82,-94.39 72.51,-84.07 65,-70 52.44,-46.47 86.54,-27.12 109.97,-17.04"/>
<polygon fill="#63b8ff" stroke="#63b8ff" points="98.96,-104.77 109.48,-105.99 102.02,-98.47 98.96,-104.77"/>
</a>
</g>
</g>
<!-- Node4 -->
<g id="Node000004" class="node">
<title>Node4</title>
<g id="a_Node000004"><a xlink:href="../../de/d94/gbfs_8hpp.html" target="_top" xlink:title=" ">
<polygon fill="white" stroke="#666666" points="121.5,-70 74.5,-70 74.5,-53 121.5,-53 121.5,-70"/>
<text text-anchor="middle" x="98" y="-59.6" font-family="Helvetica,sans-Serif" font-size="8.00">gbfs.hpp</text>
</a>
</g>
</g>
<!-- Node3&#45;&gt;Node4 -->
<g id="edge4_Node000003_Node000004" class="edge">
<title>Node3&#45;&gt;Node4</title>
<g id="a_edge4_Node000003_Node000004"><a xlink:title=" ">
<path fill="none" stroke="#63b8ff" d="M119.88,-97.36C114.14,-88.23 107.24,-77.22 102.74,-70.06"/>
<polygon fill="#63b8ff" stroke="#63b8ff" points="117,-99.36 125.28,-105.97 122.93,-95.64 117,-99.36"/>
</a>
</g>
</g>
<!-- Node5 -->
<g id="Node000005" class="node">
<title>Node5</title>
<g id="a_Node000005"><a xlink:href="../../d4/df2/gdfs_8hpp.html" target="_top" xlink:title=" ">
<polygon fill="white" stroke="#666666" points="186.5,-70 139.5,-70 139.5,-53 186.5,-53 186.5,-70"/>
<text text-anchor="middle" x="163" y="-59.6" font-family="Helvetica,sans-Serif" font-size="8.00">gdfs.hpp</text>
</a>
</g>
</g>
<!-- Node3&#45;&gt;Node5 -->
<g id="edge6_Node000003_Node000005" class="edge">
<title>Node3&#45;&gt;Node5</title>
<g id="a_edge6_Node000003_Node000005"><a xlink:title=" ">
<path fill="none" stroke="#63b8ff" d="M140.44,-97.36C146.35,-88.23 153.47,-77.22 158.11,-70.06"/>
<polygon fill="#63b8ff" stroke="#63b8ff" points="137.36,-95.68 134.87,-105.97 143.24,-99.48 137.36,-95.68"/>
</a>
</g>
</g>
<!-- Node6 -->
<g id="Node000006" class="node">
<title>Node6</title>
<g id="a_Node000006"><a xlink:href="../../d3/d3e/gjps_8hpp.html" target="_top" xlink:title=" ">
<polygon fill="white" stroke="#666666" points="251.5,-70 204.5,-70 204.5,-53 251.5,-53 251.5,-70"/>
<text text-anchor="middle" x="228" y="-59.6" font-family="Helvetica,sans-Serif" font-size="8.00">gjps.hpp</text>
</a>
</g>
</g>
<!-- Node3&#45;&gt;Node6 -->
<g id="edge8_Node000003_Node000006" class="edge">
<title>Node3&#45;&gt;Node6</title>
<g id="a_edge8_Node000003_Node000006"><a xlink:title=" ">
<path fill="none" stroke="#63b8ff" d="M153.51,-101.27C172.17,-91.55 197.68,-78.28 213.48,-70.06"/>
<polygon fill="#63b8ff" stroke="#63b8ff" points="151.72,-98.25 144.46,-105.97 154.95,-104.46 151.72,-98.25"/>
</a>
</g>
</g>
<!-- Node7 -->
<g id="Node000007" class="node">
<title>Node7</title>
<g id="a_Node000007"><a xlink:href="../../d1/def/gstar_8hpp.html" target="_top" xlink:title=" ">
<polygon fill="white" stroke="#666666" points="320,-70 270,-70 270,-53 320,-53 320,-70"/>
<text text-anchor="middle" x="295" y="-59.6" font-family="Helvetica,sans-Serif" font-size="8.00">gstar.hpp</text>
</a>
</g>
</g>
<!-- Node3&#45;&gt;Node7 -->
<g id="edge10_Node000003_Node000007" class="edge">
<title>Node3&#45;&gt;Node7</title>
<g id="a_edge10_Node000003_Node000007"><a xlink:title=" ">
<path fill="none" stroke="#63b8ff" d="M164.09,-102.96C195.83,-93.15 242.36,-78.77 270.55,-70.06"/>
<polygon fill="#63b8ff" stroke="#63b8ff" points="162.87,-99.68 154.35,-105.97 164.93,-106.37 162.87,-99.68"/>
</a>
</g>
</g>
<!-- Node4&#45;&gt;Node2 -->
<g id="edge5_Node000004_Node000002" class="edge">
<title>Node4&#45;&gt;Node2</title>
<g id="a_edge5_Node000004_Node000002"><a xlink:title=" ">
<path fill="none" stroke="#63b8ff" d="M108.12,-44.36C113.86,-35.23 120.76,-24.22 125.26,-17.06"/>
<polygon fill="#63b8ff" stroke="#63b8ff" points="105.07,-42.64 102.72,-52.97 111,-46.36 105.07,-42.64"/>
</a>
</g>
</g>
<!-- Node5&#45;&gt;Node2 -->
<g id="edge7_Node000005_Node000002" class="edge">
<title>Node5&#45;&gt;Node2</title>
<g id="a_edge7_Node000005_Node000002"><a xlink:title=" ">
<path fill="none" stroke="#63b8ff" d="M152.56,-44.36C146.65,-35.23 139.53,-24.22 134.89,-17.06"/>
<polygon fill="#63b8ff" stroke="#63b8ff" points="149.76,-46.48 158.13,-52.97 155.64,-42.68 149.76,-46.48"/>
</a>
</g>
</g>
<!-- Node6&#45;&gt;Node2 -->
<g id="edge9_Node000006_Node000002" class="edge">
<title>Node6&#45;&gt;Node2</title>
<g id="a_edge9_Node000006_Node000002"><a xlink:title=" ">
<path fill="none" stroke="#63b8ff" d="M204.49,-48.27C185.83,-38.55 160.32,-25.28 144.52,-17.06"/>
<polygon fill="#63b8ff" stroke="#63b8ff" points="203.05,-51.46 213.54,-52.97 206.28,-45.25 203.05,-51.46"/>
</a>
</g>
</g>
<!-- Node7&#45;&gt;Node2 -->
<g id="edge11_Node000007_Node000002" class="edge">
<title>Node7&#45;&gt;Node2</title>
<g id="a_edge11_Node000007_Node000002"><a xlink:title=" ">
<path fill="none" stroke="#63b8ff" d="M260.82,-49.94C228.78,-40.03 181.72,-25.49 153.64,-16.81"/>
<polygon fill="#63b8ff" stroke="#63b8ff" points="260.07,-53.37 270.65,-52.97 262.13,-46.68 260.07,-53.37"/>
</a>
</g>
</g>
</g>
</svg>
