<?xml version="1.0" encoding="UTF-8" standalone="no"?>
<!DOCTYPE svg PUBLIC "-//W3C//DTD SVG 1.1//EN"
 "http://www.w3.org/Graphics/SVG/1.1/DTD/svg11.dtd">
<!-- Generated by graphviz version 2.43.0 (0)
 -->
<!-- Title: heterogeneous_pool.hpp Pages: 1 -->
<svg width="372pt" height="184pt"
 viewBox="0.00 0.00 372.00 184.00" xmlns="http://www.w3.org/2000/svg" xmlns:xlink="http://www.w3.org/1999/xlink">
<g id="graph0" class="graph" transform="scale(1 1) rotate(0) translate(4 180)">
<title>heterogeneous_pool.hpp</title>
<!-- Node1 -->
<g id="Node000001" class="node">
<title>Node1</title>
<g id="a_Node000001"><a xlink:title=" ">
<polygon fill="#999999" stroke="#666666" points="106,-176 0,-176 0,-159 106,-159 106,-176"/>
<text text-anchor="middle" x="53" y="-165.6" font-family="Helvetica,sans-Serif" font-size="8.00">heterogeneous_pool.hpp</text>
</a>
</g>
</g>
<!-- Node2 -->
<g id="Node000002" class="node">
<title>Node2</title>
<g id="a_Node000002"><a xlink:href="../../d9/d96/chdr_8hpp.html" target="_top" xlink:title=" ">
<polygon fill="white" stroke="#666666" points="165.5,-17 118.5,-17 118.5,0 165.5,0 165.5,-17"/>
<text text-anchor="middle" x="142" y="-6.6" font-family="Helvetica,sans-Serif" font-size="8.00">chdr.hpp</text>
</a>
</g>
</g>
<!-- Node1&#45;&gt;Node2 -->
<g id="edge1_Node000001_Node000002" class="edge">
<title>Node1&#45;&gt;Node2</title>
<g id="a_edge1_Node000001_Node000002"><a xlink:title=" ">
<path fill="none" stroke="#63b8ff" d="M39.5,-151.17C20.87,-128.08 -8.06,-83.79 14,-53 37.78,-19.8 88.37,-11.64 118.33,-9.81"/>
<polygon fill="#63b8ff" stroke="#63b8ff" points="36.9,-153.51 46.01,-158.92 42.26,-149.01 36.9,-153.51"/>
</a>
</g>
</g>
<!-- Node3 -->
<g id="Node000003" class="node">
<title>Node3</title>
<g id="a_Node000003"><a xlink:href="../../da/deb/managed__node_8hpp.html" target="_top" xlink:title=" ">
<polygon fill="white" stroke="#666666" points="186.5,-123 97.5,-123 97.5,-106 186.5,-106 186.5,-123"/>
<text text-anchor="middle" x="142" y="-112.6" font-family="Helvetica,sans-Serif" font-size="8.00">managed_node.hpp</text>
</a>
</g>
</g>
<!-- Node1&#45;&gt;Node3 -->
<g id="edge2_Node000001_Node000003" class="edge">
<title>Node1&#45;&gt;Node3</title>
<g id="a_edge2_Node000001_Node000003"><a xlink:title=" ">
<path fill="none" stroke="#63b8ff" d="M74.82,-154C91.73,-144.31 114.59,-131.2 128.81,-123.06"/>
<polygon fill="#63b8ff" stroke="#63b8ff" points="73.07,-150.97 66.13,-158.97 76.55,-157.04 73.07,-150.97"/>
</a>
</g>
</g>
<!-- Node3&#45;&gt;Node2 -->
<g id="edge3_Node000003_Node000002" class="edge">
<title>Node3&#45;&gt;Node2</title>
<g id="a_edge3_Node000003_Node000002"><a xlink:title=" ">
<path fill="none" stroke="#63b8ff" d="M87.38,-107.71C63.18,-102.12 36.87,-91.21 22,-70 -3.72,-33.32 76.64,-17.63 118.43,-12.08"/>
<polygon fill="#63b8ff" stroke="#63b8ff" points="86.73,-111.15 97.23,-109.74 88.14,-104.3 86.73,-111.15"/>
</a>
</g>
</g>
<!-- Node4 -->
<g id="Node000004" class="node">
<title>Node4</title>
<g id="a_Node000004"><a xlink:href="../../d3/d3e/gbest__first_8hpp.html" target="_top" xlink:title=" ">
<polygon fill="white" stroke="#666666" points="100.5,-70 31.5,-70 31.5,-53 100.5,-53 100.5,-70"/>
<text text-anchor="middle" x="66" y="-59.6" font-family="Helvetica,sans-Serif" font-size="8.00">gbest_first.hpp</text>
</a>
</g>
</g>
<!-- Node3&#45;&gt;Node4 -->
<g id="edge4_Node000003_Node000004" class="edge">
<title>Node3&#45;&gt;Node4</title>
<g id="a_edge4_Node000003_Node000004"><a xlink:title=" ">
<path fill="none" stroke="#63b8ff" d="M122.15,-100.18C107.85,-90.58 89.07,-77.98 77.26,-70.06"/>
<polygon fill="#63b8ff" stroke="#63b8ff" points="120.53,-103.31 130.79,-105.97 124.43,-97.5 120.53,-103.31"/>
</a>
</g>
</g>
<!-- Node5 -->
<g id="Node000005" class="node">
<title>Node5</title>
<g id="a_Node000005"><a xlink:href="../../de/d94/gbfs_8hpp.html" target="_top" xlink:title=" ">
<polygon fill="white" stroke="#666666" points="165.5,-70 118.5,-70 118.5,-53 165.5,-53 165.5,-70"/>
<text text-anchor="middle" x="142" y="-59.6" font-family="Helvetica,sans-Serif" font-size="8.00">gbfs.hpp</text>
</a>
</g>
</g>
<!-- Node3&#45;&gt;Node5 -->
<g id="edge6_Node000003_Node000005" class="edge">
<title>Node3&#45;&gt;Node5</title>
<g id="a_edge6_Node000003_Node000005"><a xlink:title=" ">
<path fill="none" stroke="#63b8ff" d="M142,-95.91C142,-87.08 142,-76.85 142,-70.06"/>
<polygon fill="#63b8ff" stroke="#63b8ff" points="138.5,-95.97 142,-105.97 145.5,-95.97 138.5,-95.97"/>
</a>
</g>
</g>
<!-- Node6 -->
<g id="Node000006" class="node">
<title>Node6</title>
<g id="a_Node000006"><a xlink:href="../../d4/df2/gdfs_8hpp.html" target="_top" xlink:title=" ">
<polygon fill="white" stroke="#666666" points="230.5,-70 183.5,-70 183.5,-53 230.5,-53 230.5,-70"/>
<text text-anchor="middle" x="207" y="-59.6" font-family="Helvetica,sans-Serif" font-size="8.00">gdfs.hpp</text>
</a>
</g>
</g>
<!-- Node3&#45;&gt;Node6 -->
<g id="edge8_Node000003_Node000006" class="edge">
<title>Node3&#45;&gt;Node6</title>
<g id="a_edge8_Node000003_Node000006"><a xlink:title=" ">
<path fill="none" stroke="#63b8ff" d="M159.68,-99.63C171.82,-90.11 187.47,-77.83 197.37,-70.06"/>
<polygon fill="#63b8ff" stroke="#63b8ff" points="157.3,-97.05 151.59,-105.97 161.62,-102.56 157.3,-97.05"/>
</a>
</g>
</g>
<!-- Node7 -->
<g id="Node000007" class="node">
<title>Node7</title>
<g id="a_Node000007"><a xlink:href="../../d3/d3e/gjps_8hpp.html" target="_top" xlink:title=" ">
<polygon fill="white" stroke="#666666" points="295.5,-70 248.5,-70 248.5,-53 295.5,-53 295.5,-70"/>
<text text-anchor="middle" x="272" y="-59.6" font-family="Helvetica,sans-Serif" font-size="8.00">gjps.hpp</text>
</a>
</g>
</g>
<!-- Node3&#45;&gt;Node7 -->
<g id="edge10_Node000003_Node000007" class="edge">
<title>Node3&#45;&gt;Node7</title>
<g id="a_edge10_Node000003_Node000007"><a xlink:title=" ">
<path fill="none" stroke="#63b8ff" d="M170.5,-102.32C195.45,-92.53 231.01,-78.58 252.74,-70.06"/>
<polygon fill="#63b8ff" stroke="#63b8ff" points="169.21,-99.06 161.18,-105.97 171.77,-105.58 169.21,-99.06"/>
</a>
</g>
</g>
<!-- Node8 -->
<g id="Node000008" class="node">
<title>Node8</title>
<g id="a_Node000008"><a xlink:href="../../d1/def/gstar_8hpp.html" target="_top" xlink:title=" ">
<polygon fill="white" stroke="#666666" points="364,-70 314,-70 314,-53 364,-53 364,-70"/>
<text text-anchor="middle" x="339" y="-59.6" font-family="Helvetica,sans-Serif" font-size="8.00">gstar.hpp</text>
</a>
</g>
</g>
<!-- Node3&#45;&gt;Node8 -->
<g id="edge12_Node000003_Node000008" class="edge">
<title>Node3&#45;&gt;Node8</title>
<g id="a_edge12_Node000003_Node000008"><a xlink:title=" ">
<path fill="none" stroke="#63b8ff" d="M180.88,-103.44C220.34,-93.22 280.27,-77.7 313.88,-69"/>
<polygon fill="#63b8ff" stroke="#63b8ff" points="179.87,-100.08 171.07,-105.97 181.63,-106.86 179.87,-100.08"/>
</a>
</g>
</g>
<!-- Node4&#45;&gt;Node2 -->
<g id="edge5_Node000004_Node000002" class="edge">
<title>Node4&#45;&gt;Node2</title>
<g id="a_edge5_Node000004_Node000002"><a xlink:title=" ">
<path fill="none" stroke="#63b8ff" d="M85.85,-47.18C100.15,-37.58 118.93,-24.98 130.74,-17.06"/>
<polygon fill="#63b8ff" stroke="#63b8ff" points="83.57,-44.5 77.21,-52.97 87.47,-50.31 83.57,-44.5"/>
</a>
</g>
</g>
<!-- Node5&#45;&gt;Node2 -->
<g id="edge7_Node000005_Node000002" class="edge">
<title>Node5&#45;&gt;Node2</title>
<g id="a_edge7_Node000005_Node000002"><a xlink:title=" ">
<path fill="none" stroke="#63b8ff" d="M142,-42.91C142,-34.08 142,-23.85 142,-17.06"/>
<polygon fill="#63b8ff" stroke="#63b8ff" points="138.5,-42.97 142,-52.97 145.5,-42.97 138.5,-42.97"/>
</a>
</g>
</g>
<!-- Node6&#45;&gt;Node2 -->
<g id="edge9_Node000006_Node000002" class="edge">
<title>Node6&#45;&gt;Node2</title>
<g id="a_edge9_Node000006_Node000002"><a xlink:title=" ">
<path fill="none" stroke="#63b8ff" d="M189.32,-46.63C177.18,-37.11 161.53,-24.83 151.63,-17.06"/>
<polygon fill="#63b8ff" stroke="#63b8ff" points="187.38,-49.56 197.41,-52.97 191.7,-44.05 187.38,-49.56"/>
</a>
</g>
</g>
<!-- Node7&#45;&gt;Node2 -->
<g id="edge11_Node000007_Node000002" class="edge">
<title>Node7&#45;&gt;Node2</title>
<g id="a_edge11_Node000007_Node000002"><a xlink:title=" ">
<path fill="none" stroke="#63b8ff" d="M243.5,-49.32C218.55,-39.53 182.99,-25.58 161.26,-17.06"/>
<polygon fill="#63b8ff" stroke="#63b8ff" points="242.23,-52.58 252.82,-52.97 244.79,-46.06 242.23,-52.58"/>
</a>
</g>
</g>
<!-- Node8&#45;&gt;Node2 -->
<g id="edge13_Node000008_Node000002" class="edge">
<title>Node8&#45;&gt;Node2</title>
<g id="a_edge13_Node000008_Node000002"><a xlink:title=" ">
<path fill="none" stroke="#63b8ff" d="M303.82,-51.39C263.96,-41.07 200.08,-24.54 165.72,-15.64"/>
<polygon fill="#63b8ff" stroke="#63b8ff" points="303.09,-54.82 313.65,-53.94 304.85,-48.04 303.09,-54.82"/>
</a>
</g>
</g>
</g>
</svg>
