<?xml version="1.0" encoding="UTF-8" standalone="no"?>
<!DOCTYPE svg PUBLIC "-//W3C//DTD SVG 1.1//EN"
 "http://www.w3.org/Graphics/SVG/1.1/DTD/svg11.dtd">
<!-- Generated by graphviz version 2.43.0 (0)
 -->
<!-- Title: heterogeneous_pool.hpp Pages: 1 -->
<svg width="263pt" height="184pt"
 viewBox="0.00 0.00 263.00 184.00" xmlns="http://www.w3.org/2000/svg" xmlns:xlink="http://www.w3.org/1999/xlink">
<g id="graph0" class="graph" transform="scale(1 1) rotate(0) translate(4 180)">
<title>heterogeneous_pool.hpp</title>
<!-- Node1 -->
<g id="Node000001" class="node">
<title>Node1</title>
<g id="a_Node000001"><a xlink:title=" ">
<polygon fill="#999999" stroke="#666666" points="106,-176 0,-176 0,-159 106,-159 106,-176"/>
<text text-anchor="middle" x="53" y="-165.6" font-family="Helvetica,sans-Serif" font-size="8.00">heterogeneous_pool.hpp</text>
</a>
</g>
</g>
<!-- Node2 -->
<g id="Node000002" class="node">
<title>Node2</title>
<g id="a_Node000002"><a xlink:href="../../d9/d96/chdr_8hpp.html" target="_top" xlink:title=" ">
<polygon fill="white" stroke="#666666" points="121.5,-17 74.5,-17 74.5,0 121.5,0 121.5,-17"/>
<text text-anchor="middle" x="98" y="-6.6" font-family="Helvetica,sans-Serif" font-size="8.00">chdr.hpp</text>
</a>
</g>
</g>
<!-- Node1&#45;&gt;Node2 -->
<g id="edge1_Node000001_Node000002" class="edge">
<title>Node1&#45;&gt;Node2</title>
<g id="a_edge1_Node000001_Node000002"><a xlink:title=" ">
<path fill="none" stroke="#63b8ff" d="M47.65,-148.98C44.63,-136.9 41.86,-120.48 44,-106 47.59,-81.66 48.08,-74.53 60,-53 67.87,-38.79 81,-25.14 89.57,-17.04"/>
<polygon fill="#63b8ff" stroke="#63b8ff" points="44.29,-149.98 50.35,-158.67 51.04,-148.1 44.29,-149.98"/>
</a>
</g>
</g>
<!-- Node3 -->
<g id="Node000003" class="node">
<title>Node3</title>
<g id="a_Node000003"><a xlink:href="../../da/deb/managed__node_8hpp.html" target="_top" xlink:title=" ">
<polygon fill="white" stroke="#666666" points="142.5,-123 53.5,-123 53.5,-106 142.5,-106 142.5,-123"/>
<text text-anchor="middle" x="98" y="-112.6" font-family="Helvetica,sans-Serif" font-size="8.00">managed_node.hpp</text>
</a>
</g>
</g>
<!-- Node1&#45;&gt;Node3 -->
<g id="edge2_Node000001_Node000003" class="edge">
<title>Node1&#45;&gt;Node3</title>
<g id="a_edge2_Node000001_Node000003"><a xlink:title=" ">
<path fill="none" stroke="#63b8ff" d="M66.48,-151.22C74.68,-141.92 84.81,-130.45 91.33,-123.06"/>
<polygon fill="#63b8ff" stroke="#63b8ff" points="63.63,-149.16 59.64,-158.97 68.88,-153.79 63.63,-149.16"/>
</a>
</g>
</g>
<!-- Node3&#45;&gt;Node2 -->
<g id="edge3_Node000003_Node000002" class="edge">
<title>Node3&#45;&gt;Node2</title>
<g id="a_edge3_Node000003_Node000002"><a xlink:title=" ">
<path fill="none" stroke="#63b8ff" d="M82.59,-98.35C75.79,-90.59 68.55,-80.56 65,-70 58.21,-49.81 76.82,-28.45 88.79,-17.31"/>
<polygon fill="#63b8ff" stroke="#63b8ff" points="80.2,-100.91 89.6,-105.8 85.3,-96.12 80.2,-100.91"/>
</a>
</g>
</g>
<!-- Node4 -->
<g id="Node000004" class="node">
<title>Node4</title>
<g id="a_Node000004"><a xlink:href="../../de/d94/gbfs_8hpp.html" target="_top" xlink:title=" ">
<polygon fill="white" stroke="#666666" points="121.5,-70 74.5,-70 74.5,-53 121.5,-53 121.5,-70"/>
<text text-anchor="middle" x="98" y="-59.6" font-family="Helvetica,sans-Serif" font-size="8.00">gbfs.hpp</text>
</a>
</g>
</g>
<!-- Node3&#45;&gt;Node4 -->
<g id="edge4_Node000003_Node000004" class="edge">
<title>Node3&#45;&gt;Node4</title>
<g id="a_edge4_Node000003_Node000004"><a xlink:title=" ">
<path fill="none" stroke="#63b8ff" d="M98,-95.91C98,-87.08 98,-76.85 98,-70.06"/>
<polygon fill="#63b8ff" stroke="#63b8ff" points="94.5,-95.97 98,-105.97 101.5,-95.97 94.5,-95.97"/>
</a>
</g>
</g>
<!-- Node5 -->
<g id="Node000005" class="node">
<title>Node5</title>
<g id="a_Node000005"><a xlink:href="../../d4/df2/gdfs_8hpp.html" target="_top" xlink:title=" ">
<polygon fill="white" stroke="#666666" points="186.5,-70 139.5,-70 139.5,-53 186.5,-53 186.5,-70"/>
<text text-anchor="middle" x="163" y="-59.6" font-family="Helvetica,sans-Serif" font-size="8.00">gdfs.hpp</text>
</a>
</g>
</g>
<!-- Node3&#45;&gt;Node5 -->
<g id="edge6_Node000003_Node000005" class="edge">
<title>Node3&#45;&gt;Node5</title>
<g id="a_edge6_Node000003_Node000005"><a xlink:title=" ">
<path fill="none" stroke="#63b8ff" d="M115.68,-99.63C127.82,-90.11 143.47,-77.83 153.37,-70.06"/>
<polygon fill="#63b8ff" stroke="#63b8ff" points="113.3,-97.05 107.59,-105.97 117.62,-102.56 113.3,-97.05"/>
</a>
</g>
</g>
<!-- Node6 -->
<g id="Node000006" class="node">
<title>Node6</title>
<g id="a_Node000006"><a xlink:href="../../d1/def/gstar_8hpp.html" target="_top" xlink:title=" ">
<polygon fill="white" stroke="#666666" points="255,-70 205,-70 205,-53 255,-53 255,-70"/>
<text text-anchor="middle" x="230" y="-59.6" font-family="Helvetica,sans-Serif" font-size="8.00">gstar.hpp</text>
</a>
</g>
</g>
<!-- Node3&#45;&gt;Node6 -->
<g id="edge8_Node000003_Node000006" class="edge">
<title>Node3&#45;&gt;Node6</title>
<g id="a_edge8_Node000003_Node000006"><a xlink:title=" ">
<path fill="none" stroke="#63b8ff" d="M126.94,-102.32C152.27,-92.53 188.38,-78.58 210.44,-70.06"/>
<polygon fill="#63b8ff" stroke="#63b8ff" points="125.54,-99.11 117.48,-105.97 128.07,-105.64 125.54,-99.11"/>
</a>
</g>
</g>
<!-- Node4&#45;&gt;Node2 -->
<g id="edge5_Node000004_Node000002" class="edge">
<title>Node4&#45;&gt;Node2</title>
<g id="a_edge5_Node000004_Node000002"><a xlink:title=" ">
<path fill="none" stroke="#63b8ff" d="M98,-42.91C98,-34.08 98,-23.85 98,-17.06"/>
<polygon fill="#63b8ff" stroke="#63b8ff" points="94.5,-42.97 98,-52.97 101.5,-42.97 94.5,-42.97"/>
</a>
</g>
</g>
<!-- Node5&#45;&gt;Node2 -->
<g id="edge7_Node000005_Node000002" class="edge">
<title>Node5&#45;&gt;Node2</title>
<g id="a_edge7_Node000005_Node000002"><a xlink:title=" ">
<path fill="none" stroke="#63b8ff" d="M145.32,-46.63C133.18,-37.11 117.53,-24.83 107.63,-17.06"/>
<polygon fill="#63b8ff" stroke="#63b8ff" points="143.38,-49.56 153.41,-52.97 147.7,-44.05 143.38,-49.56"/>
</a>
</g>
</g>
<!-- Node6&#45;&gt;Node2 -->
<g id="edge9_Node000006_Node000002" class="edge">
<title>Node6&#45;&gt;Node2</title>
<g id="a_edge9_Node000006_Node000002"><a xlink:title=" ">
<path fill="none" stroke="#63b8ff" d="M201.06,-49.32C175.73,-39.53 139.62,-25.58 117.56,-17.06"/>
<polygon fill="#63b8ff" stroke="#63b8ff" points="199.93,-52.64 210.52,-52.97 202.46,-46.11 199.93,-52.64"/>
</a>
</g>
</g>
</g>
</svg>
