<?xml version="1.0" encoding="UTF-8" standalone="no"?>
<!DOCTYPE svg PUBLIC "-//W3C//DTD SVG 1.1//EN"
 "http://www.w3.org/Graphics/SVG/1.1/DTD/svg11.dtd">
<!-- Generated by graphviz version 2.43.0 (0)
 -->
<!-- Title: intrinsics.hpp Pages: 1 -->
<svg width="1680pt" height="237pt"
 viewBox="0.00 0.00 1680.39 237.00" xmlns="http://www.w3.org/2000/svg" xmlns:xlink="http://www.w3.org/1999/xlink">
<g id="graph0" class="graph" transform="scale(1 1) rotate(0) translate(4 233)">
<title>intrinsics.hpp</title>
<!-- Node1 -->
<g id="Node000001" class="node">
<title>Node1</title>
<g id="a_Node000001"><a xlink:title=" ">
<polygon fill="#999999" stroke="#666666" points="565.55,-229 503.55,-229 503.55,-212 565.55,-212 565.55,-229"/>
<text text-anchor="middle" x="534.55" y="-218.6" font-family="Helvetica,sans-Serif" font-size="8.00">intrinsics.hpp</text>
</a>
</g>
</g>
<!-- Node2 -->
<g id="Node000002" class="node">
<title>Node2</title>
<g id="a_Node000002"><a xlink:href="../../d9/df8/heterogeneous__pool_8hpp.html" target="_top" xlink:title=" ">
<polygon fill="white" stroke="#666666" points="128.55,-123 22.55,-123 22.55,-106 128.55,-106 128.55,-123"/>
<text text-anchor="middle" x="75.55" y="-112.6" font-family="Helvetica,sans-Serif" font-size="8.00">heterogeneous_pool.hpp</text>
</a>
</g>
</g>
<!-- Node1&#45;&gt;Node2 -->
<g id="edge1_Node000001_Node000002" class="edge">
<title>Node1&#45;&gt;Node2</title>
<g id="a_edge1_Node000001_Node000002"><a xlink:title=" ">
<path fill="none" stroke="#63b8ff" d="M493.14,-219.7C425.83,-218.86 289.25,-212.33 180.55,-176 142.84,-163.4 103.58,-136.43 85.61,-123.17"/>
<polygon fill="#63b8ff" stroke="#63b8ff" points="493.31,-223.2 503.34,-219.79 493.37,-216.2 493.31,-223.2"/>
</a>
</g>
</g>
<!-- Node3 -->
<g id="Node000003" class="node">
<title>Node3</title>
<g id="a_Node000003"><a xlink:href="../../da/deb/managed__node_8hpp.html" target="_top" xlink:title=" ">
<polygon fill="white" stroke="#666666" points="128.05,-70 39.05,-70 39.05,-53 128.05,-53 128.05,-70"/>
<text text-anchor="middle" x="83.55" y="-59.6" font-family="Helvetica,sans-Serif" font-size="8.00">managed_node.hpp</text>
</a>
</g>
</g>
<!-- Node1&#45;&gt;Node3 -->
<g id="edge9_Node000001_Node000003" class="edge">
<title>Node1&#45;&gt;Node3</title>
<g id="a_edge9_Node000001_Node000003"><a xlink:title=" ">
<path fill="none" stroke="#63b8ff" d="M493.26,-219.02C379.54,-216.69 66.67,-202.97 13.55,-123 -1.83,-99.85 35.55,-80.36 61.4,-70.16"/>
<polygon fill="#63b8ff" stroke="#63b8ff" points="493.25,-222.52 503.31,-219.21 493.38,-215.53 493.25,-222.52"/>
</a>
</g>
</g>
<!-- Node8 -->
<g id="Node000008" class="node">
<title>Node8</title>
<g id="a_Node000008"><a xlink:href="../../df/d24/heuristics_8hpp.html" target="_top" xlink:title=" ">
<polygon fill="white" stroke="#666666" points="1538.05,-123 1473.05,-123 1473.05,-106 1538.05,-106 1538.05,-123"/>
<text text-anchor="middle" x="1505.55" y="-112.6" font-family="Helvetica,sans-Serif" font-size="8.00">heuristics.hpp</text>
</a>
</g>
</g>
<!-- Node1&#45;&gt;Node8 -->
<g id="edge7_Node000001_Node000008" class="edge">
<title>Node1&#45;&gt;Node8</title>
<g id="a_edge7_Node000001_Node000008"><a xlink:title=" ">
<path fill="none" stroke="#63b8ff" d="M576.04,-215.97C706.31,-204.73 1118.71,-167.83 1458.55,-123 1463.22,-122.38 1468.14,-121.67 1472.97,-120.93"/>
<polygon fill="#63b8ff" stroke="#63b8ff" points="575.39,-212.52 565.73,-216.86 575.99,-219.49 575.39,-212.52"/>
</a>
</g>
</g>
<!-- Node9 -->
<g id="Node000009" class="node">
<title>Node9</title>
<g id="a_Node000009"><a xlink:href="../../d5/d3c/homogeneous__pool_8hpp.html" target="_top" xlink:title=" ">
<polygon fill="white" stroke="#666666" points="1659.05,-123 1556.05,-123 1556.05,-106 1659.05,-106 1659.05,-123"/>
<text text-anchor="middle" x="1607.55" y="-112.6" font-family="Helvetica,sans-Serif" font-size="8.00">homogeneous_pool.hpp</text>
</a>
</g>
</g>
<!-- Node1&#45;&gt;Node9 -->
<g id="edge8_Node000001_Node000009" class="edge">
<title>Node1&#45;&gt;Node9</title>
<g id="a_edge8_Node000001_Node000009"><a xlink:title=" ">
<path fill="none" stroke="#63b8ff" d="M575.82,-216.82C668.37,-210.7 899.55,-194.76 1092.55,-176 1295.18,-156.31 1345.43,-147.4 1547.55,-123 1550.26,-122.67 1553.04,-122.33 1555.84,-121.99"/>
<polygon fill="#63b8ff" stroke="#63b8ff" points="575.49,-213.34 565.74,-217.49 575.95,-220.32 575.49,-213.34"/>
</a>
</g>
</g>
<!-- Node10 -->
<g id="Node000010" class="node">
<title>Node10</title>
<g id="a_Node000010"><a xlink:href="../../d2/d1c/solver_8hpp.html" target="_top" xlink:title=" ">
<polygon fill="white" stroke="#666666" points="648.05,-70 595.05,-70 595.05,-53 648.05,-53 648.05,-70"/>
<text text-anchor="middle" x="621.55" y="-59.6" font-family="Helvetica,sans-Serif" font-size="8.00">solver.hpp</text>
</a>
</g>
</g>
<!-- Node1&#45;&gt;Node10 -->
<g id="edge10_Node000001_Node000010" class="edge">
<title>Node1&#45;&gt;Node10</title>
<g id="a_edge10_Node000001_Node000010"><a xlink:title=" ">
<path fill="none" stroke="#63b8ff" d="M543.72,-202.96C562.27,-169.47 603.68,-94.76 617.19,-70.37"/>
<polygon fill="#63b8ff" stroke="#63b8ff" points="540.53,-201.48 538.75,-211.93 546.65,-204.88 540.53,-201.48"/>
</a>
</g>
</g>
<!-- Node25 -->
<g id="Node000025" class="node">
<title>Node25</title>
<g id="a_Node000025"><a xlink:href="../../df/d47/stack_8hpp_source.html" target="_top" xlink:title=" ">
<polygon fill="white" stroke="#666666" points="462.55,-70 412.55,-70 412.55,-53 462.55,-53 462.55,-70"/>
<text text-anchor="middle" x="437.55" y="-59.6" font-family="Helvetica,sans-Serif" font-size="8.00">stack.hpp</text>
</a>
</g>
</g>
<!-- Node1&#45;&gt;Node25 -->
<g id="edge29_Node000001_Node000025" class="edge">
<title>Node1&#45;&gt;Node25</title>
<g id="a_edge29_Node000001_Node000025"><a xlink:title=" ">
<path fill="none" stroke="#63b8ff" d="M524.6,-203.39C504.04,-170.11 457.54,-94.86 442.41,-70.37"/>
<polygon fill="#63b8ff" stroke="#63b8ff" points="521.64,-205.26 529.87,-211.93 527.59,-201.58 521.64,-205.26"/>
</a>
</g>
</g>
<!-- Node27 -->
<g id="Node000027" class="node">
<title>Node27</title>
<g id="a_Node000027"><a xlink:href="../../d0/def/unmanaged__node_8hpp.html" target="_top" xlink:title=" ">
<polygon fill="white" stroke="#666666" points="1068.55,-70 970.55,-70 970.55,-53 1068.55,-53 1068.55,-70"/>
<text text-anchor="middle" x="1019.55" y="-59.6" font-family="Helvetica,sans-Serif" font-size="8.00">unmanaged_node.hpp</text>
</a>
</g>
</g>
<!-- Node1&#45;&gt;Node27 -->
<g id="edge39_Node000001_Node000027" class="edge">
<title>Node1&#45;&gt;Node27</title>
<g id="a_edge39_Node000001_Node000027"><a xlink:title=" ">
<path fill="none" stroke="#63b8ff" d="M575.9,-219.25C771.12,-217.64 1594.2,-205.93 1668.55,-123 1673.59,-117.37 1673.71,-111.52 1668.55,-106 1648.11,-84.14 1216.44,-68.65 1068.66,-63.98"/>
<polygon fill="#63b8ff" stroke="#63b8ff" points="575.74,-215.75 565.77,-219.33 575.8,-222.75 575.74,-215.75"/>
</a>
</g>
</g>
<!-- Node28 -->
<g id="Node000028" class="node">
<title>Node28</title>
<g id="a_Node000028"><a xlink:href="../../df/d93/utils_8hpp.html" target="_top" xlink:title=" ">
<polygon fill="white" stroke="#666666" points="722.55,-176 676.55,-176 676.55,-159 722.55,-159 722.55,-176"/>
<text text-anchor="middle" x="699.55" y="-165.6" font-family="Helvetica,sans-Serif" font-size="8.00">utils.hpp</text>
</a>
</g>
</g>
<!-- Node1&#45;&gt;Node28 -->
<g id="edge45_Node000001_Node000028" class="edge">
<title>Node1&#45;&gt;Node28</title>
<g id="a_edge45_Node000001_Node000028"><a xlink:title=" ">
<path fill="none" stroke="#63b8ff" d="M568.79,-208.92C601.03,-198.95 648.44,-184.3 676.44,-175.64"/>
<polygon fill="#63b8ff" stroke="#63b8ff" points="567.42,-205.68 558.9,-211.97 569.48,-212.37 567.42,-205.68"/>
</a>
</g>
</g>
<!-- Node2&#45;&gt;Node3 -->
<g id="edge2_Node000002_Node000003" class="edge">
<title>Node2&#45;&gt;Node3</title>
<g id="a_edge2_Node000002_Node000003"><a xlink:title=" ">
<path fill="none" stroke="#63b8ff" d="M78.31,-95.91C79.69,-87.08 81.3,-76.85 82.36,-70.06"/>
<polygon fill="#63b8ff" stroke="#63b8ff" points="74.82,-95.55 76.73,-105.97 81.74,-96.64 74.82,-95.55"/>
</a>
</g>
</g>
<!-- Node4 -->
<g id="Node000004" class="node">
<title>Node4</title>
<g id="a_Node000004"><a xlink:href="../../dc/da9/astar_8hpp.html" target="_top" xlink:title=" ">
<polygon fill="white" stroke="#666666" points="770.55,-17 720.55,-17 720.55,0 770.55,0 770.55,-17"/>
<text text-anchor="middle" x="745.55" y="-6.6" font-family="Helvetica,sans-Serif" font-size="8.00">astar.hpp</text>
</a>
</g>
</g>
<!-- Node3&#45;&gt;Node4 -->
<g id="edge3_Node000003_Node000004" class="edge">
<title>Node3&#45;&gt;Node4</title>
<g id="a_edge3_Node000003_Node000004"><a xlink:title=" ">
<path fill="none" stroke="#63b8ff" d="M138.48,-59.42C248.01,-56.68 501.18,-47.32 711.55,-17 714.42,-16.59 717.41,-16.06 720.37,-15.49"/>
<polygon fill="#63b8ff" stroke="#63b8ff" points="138.25,-55.93 128.33,-59.67 138.42,-62.93 138.25,-55.93"/>
</a>
</g>
</g>
<!-- Node5 -->
<g id="Node000005" class="node">
<title>Node5</title>
<g id="a_Node000005"><a xlink:href="../../de/d94/gbfs_8hpp_source.html" target="_top" xlink:title=" ">
<polygon fill="white" stroke="#666666" points="183.05,-17 136.05,-17 136.05,0 183.05,0 183.05,-17"/>
<text text-anchor="middle" x="159.55" y="-6.6" font-family="Helvetica,sans-Serif" font-size="8.00">gbfs.hpp</text>
</a>
</g>
</g>
<!-- Node3&#45;&gt;Node5 -->
<g id="edge4_Node000003_Node000005" class="edge">
<title>Node3&#45;&gt;Node5</title>
<g id="a_edge4_Node000003_Node000005"><a xlink:title=" ">
<path fill="none" stroke="#63b8ff" d="M103.4,-47.18C117.7,-37.58 136.48,-24.98 148.29,-17.06"/>
<polygon fill="#63b8ff" stroke="#63b8ff" points="101.12,-44.5 94.76,-52.97 105.02,-50.31 101.12,-44.5"/>
</a>
</g>
</g>
<!-- Node6 -->
<g id="Node000006" class="node">
<title>Node6</title>
<g id="a_Node000006"><a xlink:href="../../d4/df2/gdfs_8hpp_source.html" target="_top" xlink:title=" ">
<polygon fill="white" stroke="#666666" points="49.05,-17 2.05,-17 2.05,0 49.05,0 49.05,-17"/>
<text text-anchor="middle" x="25.55" y="-6.6" font-family="Helvetica,sans-Serif" font-size="8.00">gdfs.hpp</text>
</a>
</g>
</g>
<!-- Node3&#45;&gt;Node6 -->
<g id="edge5_Node000003_Node000006" class="edge">
<title>Node3&#45;&gt;Node6</title>
<g id="a_edge5_Node000003_Node000006"><a xlink:title=" ">
<path fill="none" stroke="#63b8ff" d="M67.46,-46.35C56.67,-36.87 42.89,-24.75 34.14,-17.06"/>
<polygon fill="#63b8ff" stroke="#63b8ff" points="65.17,-49 74.99,-52.97 69.79,-43.74 65.17,-49"/>
</a>
</g>
</g>
<!-- Node7 -->
<g id="Node000007" class="node">
<title>Node7</title>
<g id="a_Node000007"><a xlink:href="../../d1/def/gstar_8hpp_source.html" target="_top" xlink:title=" ">
<polygon fill="white" stroke="#666666" points="117.55,-17 67.55,-17 67.55,0 117.55,0 117.55,-17"/>
<text text-anchor="middle" x="92.55" y="-6.6" font-family="Helvetica,sans-Serif" font-size="8.00">gstar.hpp</text>
</a>
</g>
</g>
<!-- Node3&#45;&gt;Node7 -->
<g id="edge6_Node000003_Node000007" class="edge">
<title>Node3&#45;&gt;Node7</title>
<g id="a_edge6_Node000003_Node000007"><a xlink:title=" ">
<path fill="none" stroke="#63b8ff" d="M86.65,-42.91C88.21,-34.08 90.02,-23.85 91.22,-17.06"/>
<polygon fill="#63b8ff" stroke="#63b8ff" points="83.17,-42.52 84.88,-52.97 90.06,-43.74 83.17,-42.52"/>
</a>
</g>
</g>
<!-- Node10&#45;&gt;Node4 -->
<g id="edge11_Node000010_Node000004" class="edge">
<title>Node10&#45;&gt;Node4</title>
<g id="a_edge11_Node000010_Node000004"><a xlink:title=" ">
<path fill="none" stroke="#63b8ff" d="M649.37,-49.06C673.13,-39.29 706.63,-25.51 727.18,-17.06"/>
<polygon fill="#63b8ff" stroke="#63b8ff" points="647.76,-45.93 639.85,-52.97 650.43,-52.41 647.76,-45.93"/>
</a>
</g>
</g>
<!-- Node10&#45;&gt;Node5 -->
<g id="edge21_Node000010_Node000005" class="edge">
<title>Node10&#45;&gt;Node5</title>
<g id="a_edge21_Node000010_Node000005"><a xlink:title=" ">
<path fill="none" stroke="#63b8ff" d="M584.52,-58.28C509.96,-53.47 336.55,-40.57 192.55,-17 189.53,-16.51 186.38,-15.9 183.27,-15.26"/>
<polygon fill="#63b8ff" stroke="#63b8ff" points="584.59,-61.79 594.79,-58.93 585.03,-54.8 584.59,-61.79"/>
</a>
</g>
</g>
<!-- Node10&#45;&gt;Node6 -->
<g id="edge22_Node000010_Node000006" class="edge">
<title>Node10&#45;&gt;Node6</title>
<g id="a_edge22_Node000010_Node000006"><a xlink:title=" ">
<path fill="none" stroke="#63b8ff" d="M584.92,-58.37C476.89,-51.99 160.8,-32.48 58.55,-17 55.53,-16.54 52.37,-15.96 49.26,-15.33"/>
<polygon fill="#63b8ff" stroke="#63b8ff" points="584.81,-61.87 595,-58.97 585.22,-54.89 584.81,-61.87"/>
</a>
</g>
</g>
<!-- Node10&#45;&gt;Node7 -->
<g id="edge24_Node000010_Node000007" class="edge">
<title>Node10&#45;&gt;Node7</title>
<g id="a_edge24_Node000010_Node000007"><a xlink:title=" ">
<path fill="none" stroke="#63b8ff" d="M584.81,-58.82C502.54,-54.71 297.4,-42.58 127.55,-17 124.35,-16.52 121.01,-15.92 117.72,-15.28"/>
<polygon fill="#63b8ff" stroke="#63b8ff" points="584.75,-62.32 594.91,-59.31 585.09,-55.33 584.75,-62.32"/>
</a>
</g>
</g>
<!-- Node11 -->
<g id="Node000011" class="node">
<title>Node11</title>
<g id="a_Node000011"><a xlink:href="../../d3/d77/best__first_8hpp.html" target="_top" xlink:title=" ">
<polygon fill="white" stroke="#666666" points="1185.05,-17 1120.05,-17 1120.05,0 1185.05,0 1185.05,-17"/>
<text text-anchor="middle" x="1152.55" y="-6.6" font-family="Helvetica,sans-Serif" font-size="8.00">best_first.hpp</text>
</a>
</g>
</g>
<!-- Node10&#45;&gt;Node11 -->
<g id="edge12_Node000010_Node000011" class="edge">
<title>Node10&#45;&gt;Node11</title>
<g id="a_edge12_Node000010_Node000011"><a xlink:title=" ">
<path fill="none" stroke="#63b8ff" d="M658.72,-57.41C738.09,-50.73 929.99,-34.15 1090.55,-17 1100.04,-15.99 1110.33,-14.78 1119.75,-13.64"/>
<polygon fill="#63b8ff" stroke="#63b8ff" points="657.95,-53.96 648.28,-58.28 658.54,-60.93 657.95,-53.96"/>
</a>
</g>
</g>
<!-- Node12 -->
<g id="Node000012" class="node">
<title>Node12</title>
<g id="a_Node000012"><a xlink:href="../../da/d36/bfs_8hpp.html" target="_top" xlink:title=" ">
<polygon fill="white" stroke="#666666" points="963.05,-17 920.05,-17 920.05,0 963.05,0 963.05,-17"/>
<text text-anchor="middle" x="941.55" y="-6.6" font-family="Helvetica,sans-Serif" font-size="8.00">bfs.hpp</text>
</a>
</g>
</g>
<!-- Node10&#45;&gt;Node12 -->
<g id="edge13_Node000010_Node000012" class="edge">
<title>Node10&#45;&gt;Node12</title>
<g id="a_edge13_Node000010_Node000012"><a xlink:title=" ">
<path fill="none" stroke="#63b8ff" d="M658.22,-55.92C713.1,-48.85 819.75,-34.28 909.55,-17 912.91,-16.35 916.46,-15.6 919.91,-14.82"/>
<polygon fill="#63b8ff" stroke="#63b8ff" points="657.75,-52.45 648.27,-57.19 658.64,-59.4 657.75,-52.45"/>
</a>
</g>
</g>
<!-- Node13 -->
<g id="Node000013" class="node">
<title>Node13</title>
<g id="a_Node000013"><a xlink:href="../../d3/dec/dfs_8hpp.html" target="_top" xlink:title=" ">
<polygon fill="white" stroke="#666666" points="832.05,-17 789.05,-17 789.05,0 832.05,0 832.05,-17"/>
<text text-anchor="middle" x="810.55" y="-6.6" font-family="Helvetica,sans-Serif" font-size="8.00">dfs.hpp</text>
</a>
</g>
</g>
<!-- Node10&#45;&gt;Node13 -->
<g id="edge14_Node000010_Node000013" class="edge">
<title>Node10&#45;&gt;Node13</title>
<g id="a_edge14_Node000010_Node000013"><a xlink:title=" ">
<path fill="none" stroke="#63b8ff" d="M658.1,-50.64C696.95,-40.15 757.1,-23.92 788.99,-15.32"/>
<polygon fill="#63b8ff" stroke="#63b8ff" points="656.97,-47.32 648.23,-53.3 658.79,-54.07 656.97,-47.32"/>
</a>
</g>
</g>
<!-- Node14 -->
<g id="Node000014" class="node">
<title>Node14</title>
<g id="a_Node000014"><a xlink:href="../../d3/d11/dijkstra_8hpp_source.html" target="_top" xlink:title=" ">
<polygon fill="white" stroke="#666666" points="702.05,-17 645.05,-17 645.05,0 702.05,0 702.05,-17"/>
<text text-anchor="middle" x="673.55" y="-6.6" font-family="Helvetica,sans-Serif" font-size="8.00">dijkstra.hpp</text>
</a>
</g>
</g>
<!-- Node10&#45;&gt;Node14 -->
<g id="edge15_Node000010_Node000014" class="edge">
<title>Node10&#45;&gt;Node14</title>
<g id="a_edge15_Node000010_Node000014"><a xlink:title=" ">
<path fill="none" stroke="#63b8ff" d="M636.55,-45.79C646.13,-36.39 658.15,-24.6 665.85,-17.06"/>
<polygon fill="#63b8ff" stroke="#63b8ff" points="633.91,-43.47 629.22,-52.97 638.81,-48.47 633.91,-43.47"/>
</a>
</g>
</g>
<!-- Node15 -->
<g id="Node000015" class="node">
<title>Node15</title>
<g id="a_Node000015"><a xlink:href="../../d6/ded/eidastar_8hpp_source.html" target="_top" xlink:title=" ">
<polygon fill="white" stroke="#666666" points="261.55,-17 201.55,-17 201.55,0 261.55,0 261.55,-17"/>
<text text-anchor="middle" x="231.55" y="-6.6" font-family="Helvetica,sans-Serif" font-size="8.00">eidastar.hpp</text>
</a>
</g>
</g>
<!-- Node10&#45;&gt;Node15 -->
<g id="edge16_Node000010_Node000015" class="edge">
<title>Node10&#45;&gt;Node15</title>
<g id="a_edge16_Node000010_Node000015"><a xlink:title=" ">
<path fill="none" stroke="#63b8ff" d="M585.06,-56.79C521.15,-50.11 384.88,-35.06 270.55,-17 267.69,-16.55 264.72,-16.04 261.75,-15.51"/>
<polygon fill="#63b8ff" stroke="#63b8ff" points="584.74,-60.27 595.05,-57.83 585.46,-53.31 584.74,-60.27"/>
</a>
</g>
</g>
<!-- Node16 -->
<g id="Node000016" class="node">
<title>Node16</title>
<g id="a_Node000016"><a xlink:href="../../dd/d67/eidbstar_8hpp_source.html" target="_top" xlink:title=" ">
<polygon fill="white" stroke="#666666" points="339.55,-17 279.55,-17 279.55,0 339.55,0 339.55,-17"/>
<text text-anchor="middle" x="309.55" y="-6.6" font-family="Helvetica,sans-Serif" font-size="8.00">eidbstar.hpp</text>
</a>
</g>
</g>
<!-- Node10&#45;&gt;Node16 -->
<g id="edge17_Node000010_Node000016" class="edge">
<title>Node10&#45;&gt;Node16</title>
<g id="a_edge17_Node000010_Node000016"><a xlink:title=" ">
<path fill="none" stroke="#63b8ff" d="M584.74,-54.93C532.4,-46.95 433.52,-31.58 349.55,-17 346.35,-16.44 343,-15.85 339.67,-15.24"/>
<polygon fill="#63b8ff" stroke="#63b8ff" points="584.46,-58.43 594.87,-56.48 585.51,-51.51 584.46,-58.43"/>
</a>
</g>
</g>
<!-- Node17 -->
<g id="Node000017" class="node">
<title>Node17</title>
<g id="a_Node000017"><a xlink:href="../../dd/d95/eiddfs_8hpp_source.html" target="_top" xlink:title=" ">
<polygon fill="white" stroke="#666666" points="411.05,-17 358.05,-17 358.05,0 411.05,0 411.05,-17"/>
<text text-anchor="middle" x="384.55" y="-6.6" font-family="Helvetica,sans-Serif" font-size="8.00">eiddfs.hpp</text>
</a>
</g>
</g>
<!-- Node10&#45;&gt;Node17 -->
<g id="edge18_Node000010_Node000017" class="edge">
<title>Node10&#45;&gt;Node17</title>
<g id="a_edge18_Node000010_Node000017"><a xlink:title=" ">
<path fill="none" stroke="#63b8ff" d="M584.84,-52.6C536.77,-42.26 453.63,-24.37 411.18,-15.23"/>
<polygon fill="#63b8ff" stroke="#63b8ff" points="584.31,-56.07 594.82,-54.75 585.78,-49.22 584.31,-56.07"/>
</a>
</g>
</g>
<!-- Node18 -->
<g id="Node000018" class="node">
<title>Node18</title>
<g id="a_Node000018"><a xlink:href="../../d8/d12/flood_8hpp.html" target="_top" xlink:title=" ">
<polygon fill="white" stroke="#666666" points="900.55,-17 850.55,-17 850.55,0 900.55,0 900.55,-17"/>
<text text-anchor="middle" x="875.55" y="-6.6" font-family="Helvetica,sans-Serif" font-size="8.00">flood.hpp</text>
</a>
</g>
</g>
<!-- Node10&#45;&gt;Node18 -->
<g id="edge19_Node000010_Node000018" class="edge">
<title>Node10&#45;&gt;Node18</title>
<g id="a_edge19_Node000010_Node000018"><a xlink:title=" ">
<path fill="none" stroke="#63b8ff" d="M658.23,-53.5C701.94,-45.1 777.16,-30.47 841.55,-17 844.39,-16.41 847.36,-15.77 850.31,-15.13"/>
<polygon fill="#63b8ff" stroke="#63b8ff" points="657.5,-50.08 648.34,-55.4 658.82,-56.95 657.5,-50.08"/>
</a>
</g>
</g>
<!-- Node19 -->
<g id="Node000019" class="node">
<title>Node19</title>
<g id="a_Node000019"><a xlink:href="../../d1/d5a/fstar_8hpp.html" target="_top" xlink:title=" ">
<polygon fill="white" stroke="#666666" points="1081.05,-17 1034.05,-17 1034.05,0 1081.05,0 1081.05,-17"/>
<text text-anchor="middle" x="1057.55" y="-6.6" font-family="Helvetica,sans-Serif" font-size="8.00">fstar.hpp</text>
</a>
</g>
</g>
<!-- Node10&#45;&gt;Node19 -->
<g id="edge20_Node000010_Node000019" class="edge">
<title>Node10&#45;&gt;Node19</title>
<g id="a_edge20_Node000010_Node000019"><a xlink:title=" ">
<path fill="none" stroke="#63b8ff" d="M658.1,-56.22C745,-46.06 962.04,-20.67 1033.97,-12.26"/>
<polygon fill="#63b8ff" stroke="#63b8ff" points="657.69,-52.75 648.17,-57.39 658.51,-59.7 657.69,-52.75"/>
</a>
</g>
</g>
<!-- Node20 -->
<g id="Node000020" class="node">
<title>Node20</title>
<g id="a_Node000020"><a xlink:href="../../d3/d3e/gjps_8hpp_source.html" target="_top" xlink:title=" ">
<polygon fill="white" stroke="#666666" points="1278.05,-17 1231.05,-17 1231.05,0 1278.05,0 1278.05,-17"/>
<text text-anchor="middle" x="1254.55" y="-6.6" font-family="Helvetica,sans-Serif" font-size="8.00">gjps.hpp</text>
</a>
</g>
</g>
<!-- Node10&#45;&gt;Node20 -->
<g id="edge23_Node000010_Node000020" class="edge">
<title>Node10&#45;&gt;Node20</title>
<g id="a_edge23_Node000010_Node000020"><a xlink:title=" ">
<path fill="none" stroke="#63b8ff" d="M658.23,-58.34C749.17,-52.83 992.36,-37.3 1194.55,-17 1206.56,-15.79 1219.89,-14.16 1230.93,-12.72"/>
<polygon fill="#63b8ff" stroke="#63b8ff" points="657.92,-54.85 648.15,-58.94 658.34,-61.84 657.92,-54.85"/>
</a>
</g>
</g>
<!-- Node21 -->
<g id="Node000021" class="node">
<title>Node21</title>
<g id="a_Node000021"><a xlink:href="../../db/df9/idastar_8hpp_source.html" target="_top" xlink:title=" ">
<polygon fill="white" stroke="#666666" points="485.55,-17 429.55,-17 429.55,0 485.55,0 485.55,-17"/>
<text text-anchor="middle" x="457.55" y="-6.6" font-family="Helvetica,sans-Serif" font-size="8.00">idastar.hpp</text>
</a>
</g>
</g>
<!-- Node10&#45;&gt;Node21 -->
<g id="edge25_Node000010_Node000021" class="edge">
<title>Node10&#45;&gt;Node21</title>
<g id="a_edge25_Node000010_Node000021"><a xlink:title=" ">
<path fill="none" stroke="#63b8ff" d="M587.67,-49.96C556.12,-40.15 509.87,-25.77 481.85,-17.06"/>
<polygon fill="#63b8ff" stroke="#63b8ff" points="586.76,-53.35 597.35,-52.97 588.84,-46.66 586.76,-53.35"/>
</a>
</g>
</g>
<!-- Node22 -->
<g id="Node000022" class="node">
<title>Node22</title>
<g id="a_Node000022"><a xlink:href="../../d1/d24/idbstar_8hpp_source.html" target="_top" xlink:title=" ">
<polygon fill="white" stroke="#666666" points="559.55,-17 503.55,-17 503.55,0 559.55,0 559.55,-17"/>
<text text-anchor="middle" x="531.55" y="-6.6" font-family="Helvetica,sans-Serif" font-size="8.00">idbstar.hpp</text>
</a>
</g>
</g>
<!-- Node10&#45;&gt;Node22 -->
<g id="edge26_Node000010_Node000022" class="edge">
<title>Node10&#45;&gt;Node22</title>
<g id="a_edge26_Node000010_Node000022"><a xlink:title=" ">
<path fill="none" stroke="#63b8ff" d="M599.49,-48C582.39,-38.31 559.26,-25.2 544.88,-17.06"/>
<polygon fill="#63b8ff" stroke="#63b8ff" points="597.84,-51.09 608.27,-52.97 601.3,-45 597.84,-51.09"/>
</a>
</g>
</g>
<!-- Node23 -->
<g id="Node000023" class="node">
<title>Node23</title>
<g id="a_Node000023"><a xlink:href="../../df/d71/iddfs_8hpp_source.html" target="_top" xlink:title=" ">
<polygon fill="white" stroke="#666666" points="627.05,-17 578.05,-17 578.05,0 627.05,0 627.05,-17"/>
<text text-anchor="middle" x="602.55" y="-6.6" font-family="Helvetica,sans-Serif" font-size="8.00">iddfs.hpp</text>
</a>
</g>
</g>
<!-- Node10&#45;&gt;Node23 -->
<g id="edge27_Node000010_Node000023" class="edge">
<title>Node10&#45;&gt;Node23</title>
<g id="a_edge27_Node000010_Node000023"><a xlink:title=" ">
<path fill="none" stroke="#63b8ff" d="M615.21,-43.49C611.88,-34.53 607.95,-24 605.36,-17.06"/>
<polygon fill="#63b8ff" stroke="#63b8ff" points="611.98,-44.83 618.75,-52.97 618.53,-42.38 611.98,-44.83"/>
</a>
</g>
</g>
<!-- Node24 -->
<g id="Node000024" class="node">
<title>Node24</title>
<g id="a_Node000024"><a xlink:href="../../d9/de6/jps_8hpp_source.html" target="_top" xlink:title=" ">
<polygon fill="white" stroke="#666666" points="1345.55,-17 1303.55,-17 1303.55,0 1345.55,0 1345.55,-17"/>
<text text-anchor="middle" x="1324.55" y="-6.6" font-family="Helvetica,sans-Serif" font-size="8.00">jps.hpp</text>
</a>
</g>
</g>
<!-- Node10&#45;&gt;Node24 -->
<g id="edge28_Node000010_Node000024" class="edge">
<title>Node10&#45;&gt;Node24</title>
<g id="a_edge28_Node000010_Node000024"><a xlink:title=" ">
<path fill="none" stroke="#63b8ff" d="M658.63,-59.83C759.86,-57.62 1049.29,-48.78 1287.55,-17 1292.75,-16.31 1298.31,-15.31 1303.5,-14.28"/>
<polygon fill="#63b8ff" stroke="#63b8ff" points="658.25,-56.34 648.32,-60.04 658.4,-63.33 658.25,-56.34"/>
</a>
</g>
</g>
<!-- Node25&#45;&gt;Node6 -->
<g id="edge34_Node000025_Node000006" class="edge">
<title>Node25&#45;&gt;Node6</title>
<g id="a_edge34_Node000025_Node000006"><a xlink:title=" ">
<path fill="none" stroke="#63b8ff" d="M402.06,-57.73C334.75,-52.19 184.04,-38.4 58.55,-17 55.54,-16.49 52.39,-15.87 49.28,-15.22"/>
<polygon fill="#63b8ff" stroke="#63b8ff" points="401.88,-61.23 412.13,-58.55 402.45,-54.25 401.88,-61.23"/>
</a>
</g>
</g>
<!-- Node25&#45;&gt;Node13 -->
<g id="edge30_Node000025_Node000013" class="edge">
<title>Node25&#45;&gt;Node13</title>
<g id="a_edge30_Node000025_Node000013"><a xlink:title=" ">
<path fill="none" stroke="#63b8ff" d="M472.64,-57.33C534.82,-51.43 668.26,-37.48 779.55,-17 782.6,-16.44 785.8,-15.76 788.93,-15.05"/>
<polygon fill="#63b8ff" stroke="#63b8ff" points="472.21,-53.86 462.58,-58.28 472.87,-60.83 472.21,-53.86"/>
</a>
</g>
</g>
<!-- Node25&#45;&gt;Node15 -->
<g id="edge31_Node000025_Node000015" class="edge">
<title>Node25&#45;&gt;Node15</title>
<g id="a_edge31_Node000025_Node000015"><a xlink:title=" ">
<path fill="none" stroke="#63b8ff" d="M402.54,-51.83C362.95,-42.03 299.15,-26.24 261.7,-16.96"/>
<polygon fill="#63b8ff" stroke="#63b8ff" points="401.74,-55.24 412.29,-54.25 403.42,-48.45 401.74,-55.24"/>
</a>
</g>
</g>
<!-- Node25&#45;&gt;Node16 -->
<g id="edge32_Node000025_Node000016" class="edge">
<title>Node25&#45;&gt;Node16</title>
<g id="a_edge32_Node000025_Node000016"><a xlink:title=" ">
<path fill="none" stroke="#63b8ff" d="M409.16,-49.19C384.62,-39.41 349.82,-25.54 328.51,-17.06"/>
<polygon fill="#63b8ff" stroke="#63b8ff" points="408.08,-52.52 418.66,-52.97 410.67,-46.02 408.08,-52.52"/>
</a>
</g>
</g>
<!-- Node25&#45;&gt;Node17 -->
<g id="edge33_Node000025_Node000017" class="edge">
<title>Node25&#45;&gt;Node17</title>
<g id="a_edge33_Node000025_Node000017"><a xlink:title=" ">
<path fill="none" stroke="#63b8ff" d="M422.26,-45.79C412.5,-36.39 400.24,-24.6 392.4,-17.06"/>
<polygon fill="#63b8ff" stroke="#63b8ff" points="420.1,-48.56 429.73,-52.97 424.95,-43.52 420.1,-48.56"/>
</a>
</g>
</g>
<!-- Node25&#45;&gt;Node21 -->
<g id="edge36_Node000025_Node000021" class="edge">
<title>Node25&#45;&gt;Node21</title>
<g id="a_edge36_Node000025_Node000021"><a xlink:title=" ">
<path fill="none" stroke="#63b8ff" d="M444.22,-43.49C447.73,-34.53 451.86,-24 454.59,-17.06"/>
<polygon fill="#63b8ff" stroke="#63b8ff" points="440.89,-42.39 440.5,-52.97 447.41,-44.94 440.89,-42.39"/>
</a>
</g>
</g>
<!-- Node25&#45;&gt;Node22 -->
<g id="edge37_Node000025_Node000022" class="edge">
<title>Node25&#45;&gt;Node22</title>
<g id="a_edge37_Node000025_Node000022"><a xlink:title=" ">
<path fill="none" stroke="#63b8ff" d="M460.59,-48C478.45,-38.31 502.6,-25.2 517.62,-17.06"/>
<polygon fill="#63b8ff" stroke="#63b8ff" points="458.54,-45.13 451.42,-52.97 461.88,-51.28 458.54,-45.13"/>
</a>
</g>
</g>
<!-- Node25&#45;&gt;Node23 -->
<g id="edge38_Node000025_Node000023" class="edge">
<title>Node25&#45;&gt;Node23</title>
<g id="a_edge38_Node000025_Node000023"><a xlink:title=" ">
<path fill="none" stroke="#63b8ff" d="M471.64,-49.96C503.38,-40.15 549.91,-25.77 578.1,-17.06"/>
<polygon fill="#63b8ff" stroke="#63b8ff" points="470.42,-46.68 461.9,-52.97 472.48,-53.37 470.42,-46.68"/>
</a>
</g>
</g>
<!-- Node26 -->
<g id="Node000026" class="node">
<title>Node26</title>
<g id="a_Node000026"><a xlink:href="../../d9/de9/graph_8hpp_source.html" target="_top" xlink:title=" ">
<polygon fill="white" stroke="#666666" points="1417.05,-17 1364.05,-17 1364.05,0 1417.05,0 1417.05,-17"/>
<text text-anchor="middle" x="1390.55" y="-6.6" font-family="Helvetica,sans-Serif" font-size="8.00">graph.hpp</text>
</a>
</g>
</g>
<!-- Node25&#45;&gt;Node26 -->
<g id="edge35_Node000025_Node000026" class="edge">
<title>Node25&#45;&gt;Node26</title>
<g id="a_edge35_Node000025_Node000026"><a xlink:title=" ">
<path fill="none" stroke="#63b8ff" d="M472.63,-58.7C502.83,-57.16 547.56,-54.9 586.55,-53 927.85,-36.41 1015.56,-59.98 1354.55,-17 1357.59,-16.61 1360.76,-16.11 1363.89,-15.54"/>
<polygon fill="#63b8ff" stroke="#63b8ff" points="472.4,-55.21 462.59,-59.21 472.76,-62.2 472.4,-55.21"/>
</a>
</g>
</g>
<!-- Node27&#45;&gt;Node4 -->
<g id="edge40_Node000027_Node000004" class="edge">
<title>Node27&#45;&gt;Node4</title>
<g id="a_edge40_Node000027_Node000004"><a xlink:title=" ">
<path fill="none" stroke="#63b8ff" d="M965.9,-51.23C917.4,-42.73 844.09,-29.59 780.55,-17 777.38,-16.37 774.05,-15.69 770.77,-15"/>
<polygon fill="#63b8ff" stroke="#63b8ff" points="965.41,-54.69 975.86,-52.97 966.61,-47.8 965.41,-54.69"/>
</a>
</g>
</g>
<!-- Node27&#45;&gt;Node11 -->
<g id="edge41_Node000027_Node000011" class="edge">
<title>Node27&#45;&gt;Node11</title>
<g id="a_edge41_Node000027_Node000011"><a xlink:title=" ">
<path fill="none" stroke="#63b8ff" d="M1048.71,-49.32C1074.23,-39.53 1110.61,-25.58 1132.84,-17.06"/>
<polygon fill="#63b8ff" stroke="#63b8ff" points="1047.26,-46.13 1039.17,-52.97 1049.76,-52.66 1047.26,-46.13"/>
</a>
</g>
</g>
<!-- Node27&#45;&gt;Node12 -->
<g id="edge42_Node000027_Node000012" class="edge">
<title>Node27&#45;&gt;Node12</title>
<g id="a_edge42_Node000027_Node000012"><a xlink:title=" ">
<path fill="none" stroke="#63b8ff" d="M999.6,-47.46C984.87,-37.83 965.34,-25.05 953.11,-17.06"/>
<polygon fill="#63b8ff" stroke="#63b8ff" points="997.76,-50.43 1008.04,-52.97 1001.59,-44.57 997.76,-50.43"/>
</a>
</g>
</g>
<!-- Node27&#45;&gt;Node13 -->
<g id="edge43_Node000027_Node000013" class="edge">
<title>Node27&#45;&gt;Node13</title>
<g id="a_edge43_Node000027_Node000013"><a xlink:title=" ">
<path fill="none" stroke="#63b8ff" d="M978.93,-50.59C935.07,-39.89 866.85,-23.24 832.25,-14.79"/>
<polygon fill="#63b8ff" stroke="#63b8ff" points="978.17,-54 988.71,-52.97 979.83,-47.2 978.17,-54"/>
</a>
</g>
</g>
<!-- Node27&#45;&gt;Node19 -->
<g id="edge44_Node000027_Node000019" class="edge">
<title>Node27&#45;&gt;Node19</title>
<g id="a_edge44_Node000027_Node000019"><a xlink:title=" ">
<path fill="none" stroke="#63b8ff" d="M1031.14,-44.94C1038.03,-35.69 1046.47,-24.37 1051.92,-17.06"/>
<polygon fill="#63b8ff" stroke="#63b8ff" points="1028.32,-42.86 1025.16,-52.97 1033.94,-47.05 1028.32,-42.86"/>
</a>
</g>
</g>
<!-- Node28&#45;&gt;Node2 -->
<g id="edge77_Node000028_Node000002" class="edge">
<title>Node28&#45;&gt;Node2</title>
<g id="a_edge77_Node000028_Node000002"><a xlink:title=" ">
<path fill="none" stroke="#63b8ff" d="M666.46,-164.3C580.16,-158.5 341.15,-141.87 142.55,-123 138.01,-122.57 133.29,-122.09 128.56,-121.6"/>
<polygon fill="#63b8ff" stroke="#63b8ff" points="666.23,-167.8 676.45,-164.97 666.7,-160.81 666.23,-167.8"/>
</a>
</g>
</g>
<!-- Node28&#45;&gt;Node4 -->
<g id="edge46_Node000028_Node000004" class="edge">
<title>Node28&#45;&gt;Node4</title>
<g id="a_edge46_Node000028_Node000004"><a xlink:title=" ">
<path fill="none" stroke="#63b8ff" d="M701.15,-148.8C702.5,-136.63 704.83,-120.17 708.55,-106 717.49,-71.99 734.43,-33.49 741.88,-17.31"/>
<polygon fill="#63b8ff" stroke="#63b8ff" points="697.65,-148.64 700.14,-158.94 704.62,-149.34 697.65,-148.64"/>
</a>
</g>
</g>
<!-- Node28&#45;&gt;Node5 -->
<g id="edge68_Node000028_Node000005" class="edge">
<title>Node28&#45;&gt;Node5</title>
<g id="a_edge68_Node000028_Node000005"><a xlink:title=" ">
<path fill="none" stroke="#63b8ff" d="M666.31,-166.11C605.66,-164.55 473.59,-157.12 368.55,-123 286.87,-96.47 199.95,-38.12 170.22,-17.18"/>
<polygon fill="#63b8ff" stroke="#63b8ff" points="666.37,-169.62 676.44,-166.34 666.52,-162.62 666.37,-169.62"/>
</a>
</g>
</g>
<!-- Node28&#45;&gt;Node6 -->
<g id="edge69_Node000028_Node000006" class="edge">
<title>Node28&#45;&gt;Node6</title>
<g id="a_edge69_Node000028_Node000006"><a xlink:title=" ">
<path fill="none" stroke="#63b8ff" d="M666.32,-165.64C532.12,-162.03 36.14,-147.07 13.55,-123 -14.52,-93.09 10.65,-37.34 21.31,-17.1"/>
<polygon fill="#63b8ff" stroke="#63b8ff" points="666.32,-169.14 676.41,-165.91 666.51,-162.15 666.32,-169.14"/>
</a>
</g>
</g>
<!-- Node28&#45;&gt;Node7 -->
<g id="edge76_Node000028_Node000007" class="edge">
<title>Node28&#45;&gt;Node7</title>
<g id="a_edge76_Node000028_Node000007"><a xlink:title=" ">
<path fill="none" stroke="#63b8ff" d="M665.99,-166.51C598.93,-165.71 444.16,-159.63 320.55,-123 232.37,-96.87 136.97,-38.27 104.29,-17.22"/>
<polygon fill="#63b8ff" stroke="#63b8ff" points="666.33,-170.02 676.36,-166.6 666.39,-163.02 666.33,-170.02"/>
</a>
</g>
</g>
<!-- Node28&#45;&gt;Node8 -->
<g id="edge78_Node000028_Node000008" class="edge">
<title>Node28&#45;&gt;Node8</title>
<g id="a_edge78_Node000028_Node000008"><a xlink:title=" ">
<path fill="none" stroke="#63b8ff" d="M732.67,-165.8C838.65,-163.29 1178.81,-153.26 1458.55,-123 1463.23,-122.49 1468.16,-121.84 1472.99,-121.13"/>
<polygon fill="#63b8ff" stroke="#63b8ff" points="732.51,-162.3 722.6,-166.03 732.67,-169.3 732.51,-162.3"/>
</a>
</g>
</g>
<!-- Node28&#45;&gt;Node9 -->
<g id="edge79_Node000028_Node000009" class="edge">
<title>Node28&#45;&gt;Node9</title>
<g id="a_edge79_Node000028_Node000009"><a xlink:title=" ">
<path fill="none" stroke="#63b8ff" d="M733.05,-165.66C847.21,-162.62 1231.38,-150.83 1547.55,-123 1550.27,-122.76 1553.05,-122.49 1555.86,-122.2"/>
<polygon fill="#63b8ff" stroke="#63b8ff" points="732.77,-162.17 722.86,-165.93 732.95,-169.17 732.77,-162.17"/>
</a>
</g>
</g>
<!-- Node28&#45;&gt;Node10 -->
<g id="edge85_Node000028_Node000010" class="edge">
<title>Node28&#45;&gt;Node10</title>
<g id="a_edge85_Node000028_Node000010"><a xlink:title=" ">
<path fill="none" stroke="#63b8ff" d="M685.72,-151.08C678.58,-142.91 669.85,-132.61 662.55,-123 648.57,-104.62 633.75,-81.8 626.34,-70.14"/>
<polygon fill="#63b8ff" stroke="#63b8ff" points="683.21,-153.53 692.46,-158.7 688.46,-148.89 683.21,-153.53"/>
</a>
</g>
</g>
<!-- Node28&#45;&gt;Node11 -->
<g id="edge47_Node000028_Node000011" class="edge">
<title>Node28&#45;&gt;Node11</title>
<g id="a_edge47_Node000028_Node000011"><a xlink:title=" ">
<path fill="none" stroke="#63b8ff" d="M732.96,-167.39C795.64,-167.96 934.25,-163.96 1041.55,-123 1080.36,-108.18 1090.54,-100.68 1118.55,-70 1133.5,-53.63 1144.52,-29.54 1149.54,-17.28"/>
<polygon fill="#63b8ff" stroke="#63b8ff" points="732.91,-163.89 722.86,-167.25 732.81,-170.89 732.91,-163.89"/>
</a>
</g>
</g>
<!-- Node28&#45;&gt;Node12 -->
<g id="edge48_Node000028_Node000012" class="edge">
<title>Node28&#45;&gt;Node12</title>
<g id="a_edge48_Node000028_Node000012"><a xlink:title=" ">
<path fill="none" stroke="#63b8ff" d="M733.02,-166.61C801.38,-166.05 953.31,-160.51 985.55,-123 1001.02,-105 964.73,-76.53 961.55,-70 952.73,-51.9 946.34,-28.96 943.39,-17.21"/>
<polygon fill="#63b8ff" stroke="#63b8ff" points="732.78,-163.11 722.8,-166.66 732.82,-170.11 732.78,-163.11"/>
</a>
</g>
</g>
<!-- Node28&#45;&gt;Node13 -->
<g id="edge49_Node000028_Node000013" class="edge">
<title>Node28&#45;&gt;Node13</title>
<g id="a_edge49_Node000028_Node000013"><a xlink:title=" ">
<path fill="none" stroke="#63b8ff" d="M710.64,-150.39C719.07,-138.18 730.99,-120.99 741.55,-106 764.8,-73 792.89,-33.97 804.79,-17.48"/>
<polygon fill="#63b8ff" stroke="#63b8ff" points="707.75,-148.42 704.95,-158.64 713.51,-152.4 707.75,-148.42"/>
</a>
</g>
</g>
<!-- Node28&#45;&gt;Node15 -->
<g id="edge50_Node000028_Node000015" class="edge">
<title>Node28&#45;&gt;Node15</title>
<g id="a_edge50_Node000028_Node000015"><a xlink:title=" ">
<path fill="none" stroke="#63b8ff" d="M666.04,-165.91C611.01,-163.98 498.79,-155.94 410.55,-123 338.84,-96.23 265.49,-38.04 240.51,-17.15"/>
<polygon fill="#63b8ff" stroke="#63b8ff" points="666.16,-169.42 676.26,-166.22 666.37,-162.42 666.16,-169.42"/>
</a>
</g>
</g>
<!-- Node28&#45;&gt;Node16 -->
<g id="edge51_Node000028_Node000016" class="edge">
<title>Node28&#45;&gt;Node16</title>
<g id="a_edge51_Node000028_Node000016"><a xlink:title=" ">
<path fill="none" stroke="#63b8ff" d="M666.02,-166.23C615.82,-164.65 519.15,-156.98 445.55,-123 387.47,-96.19 333.99,-38.02 315.98,-17.15"/>
<polygon fill="#63b8ff" stroke="#63b8ff" points="666.21,-169.74 676.29,-166.49 666.39,-162.74 666.21,-169.74"/>
</a>
</g>
</g>
<!-- Node28&#45;&gt;Node17 -->
<g id="edge52_Node000028_Node000017" class="edge">
<title>Node28&#45;&gt;Node17</title>
<g id="a_edge52_Node000028_Node000017"><a xlink:title=" ">
<path fill="none" stroke="#63b8ff" d="M665.95,-165.31C604.92,-161.29 475.56,-144 403.55,-70 389.27,-55.33 385.71,-30.04 384.83,-17.3"/>
<polygon fill="#63b8ff" stroke="#63b8ff" points="665.99,-168.81 676.17,-165.9 666.39,-161.83 665.99,-168.81"/>
</a>
</g>
</g>
<!-- Node28&#45;&gt;Node18 -->
<g id="edge66_Node000028_Node000018" class="edge">
<title>Node28&#45;&gt;Node18</title>
<g id="a_edge66_Node000028_Node000018"><a xlink:title=" ">
<path fill="none" stroke="#63b8ff" d="M732.78,-164.73C764.31,-161.29 811.01,-151.37 839.55,-123 869.9,-92.83 874.7,-37.24 875.43,-17.07"/>
<polygon fill="#63b8ff" stroke="#63b8ff" points="732.35,-161.25 722.71,-165.66 732.99,-168.22 732.35,-161.25"/>
</a>
</g>
</g>
<!-- Node28&#45;&gt;Node19 -->
<g id="edge67_Node000028_Node000019" class="edge">
<title>Node28&#45;&gt;Node19</title>
<g id="a_edge67_Node000028_Node000019"><a xlink:title=" ">
<path fill="none" stroke="#63b8ff" d="M733.05,-165.71C789.66,-163.49 907.19,-155.06 1000.55,-123 1045.55,-107.55 1069.65,-111.13 1093.55,-70 1104.6,-50.98 1082.31,-28.8 1068.11,-17.3"/>
<polygon fill="#63b8ff" stroke="#63b8ff" points="732.76,-162.22 722.89,-166.07 733.01,-169.21 732.76,-162.22"/>
</a>
</g>
</g>
<!-- Node28&#45;&gt;Node20 -->
<g id="edge70_Node000028_Node000020" class="edge">
<title>Node28&#45;&gt;Node20</title>
<g id="a_edge70_Node000028_Node000020"><a xlink:title=" ">
<path fill="none" stroke="#63b8ff" d="M733.01,-164.5C812.55,-159.45 1010.97,-144.99 1073.55,-123 1146.33,-97.42 1220.33,-38.48 1245.52,-17.28"/>
<polygon fill="#63b8ff" stroke="#63b8ff" points="732.36,-161.04 722.6,-165.15 732.8,-168.02 732.36,-161.04"/>
</a>
</g>
</g>
<!-- Node28&#45;&gt;Node21 -->
<g id="edge80_Node000028_Node000021" class="edge">
<title>Node28&#45;&gt;Node21</title>
<g id="a_edge80_Node000028_Node000021"><a xlink:title=" ">
<path fill="none" stroke="#63b8ff" d="M666.6,-157.23C643.27,-149.87 611.77,-138.27 586.55,-123 533.99,-91.17 482.49,-37.07 464.37,-17.15"/>
<polygon fill="#63b8ff" stroke="#63b8ff" points="665.79,-160.64 676.38,-160.22 667.84,-153.95 665.79,-160.64"/>
</a>
</g>
</g>
<!-- Node28&#45;&gt;Node22 -->
<g id="edge81_Node000028_Node000022" class="edge">
<title>Node28&#45;&gt;Node22</title>
<g id="a_edge81_Node000028_Node000022"><a xlink:title=" ">
<path fill="none" stroke="#63b8ff" d="M666.79,-155.71C648.29,-148.49 625.54,-137.61 608.55,-123 571.36,-91.02 544.16,-37.01 534.96,-17.14"/>
<polygon fill="#63b8ff" stroke="#63b8ff" points="665.71,-159.04 676.3,-159.25 668.15,-152.48 665.71,-159.04"/>
</a>
</g>
</g>
<!-- Node28&#45;&gt;Node23 -->
<g id="edge82_Node000028_Node000023" class="edge">
<title>Node28&#45;&gt;Node23</title>
<g id="a_edge82_Node000028_Node000023"><a xlink:title=" ">
<path fill="none" stroke="#63b8ff" d="M674.63,-153.94C647.09,-138.47 604.29,-109.34 586.55,-70 578.42,-51.97 589.94,-29 597.27,-17.22"/>
<polygon fill="#63b8ff" stroke="#63b8ff" points="673.21,-157.15 683.67,-158.83 676.54,-150.99 673.21,-157.15"/>
</a>
</g>
</g>
<!-- Node28&#45;&gt;Node24 -->
<g id="edge83_Node000028_Node000024" class="edge">
<title>Node28&#45;&gt;Node24</title>
<g id="a_edge83_Node000028_Node000024"><a xlink:title=" ">
<path fill="none" stroke="#63b8ff" d="M733,-165.2C855.04,-160.31 1272.07,-142.35 1328.55,-123 1372.93,-107.8 1431.83,-93.14 1407.55,-53 1394.25,-31.01 1365.75,-19.59 1345.88,-14.07"/>
<polygon fill="#63b8ff" stroke="#63b8ff" points="732.63,-161.71 722.78,-165.6 732.91,-168.7 732.63,-161.71"/>
</a>
</g>
</g>
<!-- Node28&#45;&gt;Node26 -->
<g id="edge71_Node000028_Node000026" class="edge">
<title>Node28&#45;&gt;Node26</title>
<g id="a_edge71_Node000028_Node000026"><a xlink:title=" ">
<path fill="none" stroke="#63b8ff" d="M732.99,-165.61C859.83,-162.07 1307.09,-147.91 1365.55,-123 1397.67,-109.31 1409.46,-101.95 1423.55,-70 1432.24,-50.29 1412.39,-28.39 1399.84,-17.12"/>
<polygon fill="#63b8ff" stroke="#63b8ff" points="732.63,-162.12 722.73,-165.9 732.82,-169.12 732.63,-162.12"/>
</a>
</g>
</g>
<!-- Node29 -->
<g id="Node000029" class="node">
<title>Node29</title>
<g id="a_Node000029"><a xlink:href="../../d8/d62/existence__set_8hpp.html" target="_top" xlink:title=" ">
<polygon fill="white" stroke="#666666" points="830.55,-123 750.55,-123 750.55,-106 830.55,-106 830.55,-123"/>
<text text-anchor="middle" x="790.55" y="-112.6" font-family="Helvetica,sans-Serif" font-size="8.00">existence_set.hpp</text>
</a>
</g>
</g>
<!-- Node28&#45;&gt;Node29 -->
<g id="edge53_Node000028_Node000029" class="edge">
<title>Node28&#45;&gt;Node29</title>
<g id="a_edge53_Node000028_Node000029"><a xlink:title=" ">
<path fill="none" stroke="#63b8ff" d="M721.86,-154C739.15,-144.31 762.53,-131.2 777.07,-123.06"/>
<polygon fill="#63b8ff" stroke="#63b8ff" points="719.99,-151.03 712.98,-158.97 723.41,-157.14 719.99,-151.03"/>
</a>
</g>
</g>
<!-- Node30 -->
<g id="Node000030" class="node">
<title>Node30</title>
<g id="a_Node000030"><a xlink:href="../../dc/d8a/grid_8hpp.html" target="_top" xlink:title=" ">
<polygon fill="white" stroke="#666666" points="1398.55,-70 1352.55,-70 1352.55,-53 1398.55,-53 1398.55,-70"/>
<text text-anchor="middle" x="1375.55" y="-59.6" font-family="Helvetica,sans-Serif" font-size="8.00">grid.hpp</text>
</a>
</g>
</g>
<!-- Node28&#45;&gt;Node30 -->
<g id="edge72_Node000028_Node000030" class="edge">
<title>Node28&#45;&gt;Node30</title>
<g id="a_edge72_Node000028_Node000030"><a xlink:title=" ">
<path fill="none" stroke="#63b8ff" d="M733.05,-166.68C843.64,-166.89 1196,-164.22 1300.55,-123 1330.12,-111.34 1357.11,-83.66 1369.06,-70.17"/>
<polygon fill="#63b8ff" stroke="#63b8ff" points="732.83,-163.18 722.82,-166.66 732.81,-170.18 732.83,-163.18"/>
</a>
</g>
</g>
<!-- Node31 -->
<g id="Node000031" class="node">
<title>Node31</title>
<g id="a_Node000031"><a xlink:href="../../d4/d99/monotonic__pool_8hpp.html" target="_top" xlink:title=" ">
<polygon fill="white" stroke="#666666" points="976.05,-123 887.05,-123 887.05,-106 976.05,-106 976.05,-123"/>
<text text-anchor="middle" x="931.55" y="-112.6" font-family="Helvetica,sans-Serif" font-size="8.00">monotonic_pool.hpp</text>
</a>
</g>
</g>
<!-- Node28&#45;&gt;Node31 -->
<g id="edge84_Node000028_Node000031" class="edge">
<title>Node28&#45;&gt;Node31</title>
<g id="a_edge84_Node000028_Node000031"><a xlink:title=" ">
<path fill="none" stroke="#63b8ff" d="M732.48,-159.26C776.2,-149.65 853.02,-132.76 897.36,-123.02"/>
<polygon fill="#63b8ff" stroke="#63b8ff" points="731.66,-155.86 722.64,-161.42 733.16,-162.69 731.66,-155.86"/>
</a>
</g>
</g>
<!-- Node29&#45;&gt;Node4 -->
<g id="edge54_Node000029_Node000004" class="edge">
<title>Node29&#45;&gt;Node4</title>
<g id="a_edge54_Node000029_Node000004"><a xlink:title=" ">
<path fill="none" stroke="#63b8ff" d="M783.19,-96.49C773.27,-73.57 756.04,-33.74 748.85,-17.12"/>
<polygon fill="#63b8ff" stroke="#63b8ff" points="779.98,-97.9 787.17,-105.68 786.41,-95.12 779.98,-97.9"/>
</a>
</g>
</g>
<!-- Node29&#45;&gt;Node5 -->
<g id="edge60_Node000029_Node000005" class="edge">
<title>Node29&#45;&gt;Node5</title>
<g id="a_edge60_Node000029_Node000005"><a xlink:title=" ">
<path fill="none" stroke="#63b8ff" d="M740.48,-109.98C666.43,-104.3 523.52,-91.52 403.55,-70 321.71,-55.32 226.56,-28.99 183.22,-16.47"/>
<polygon fill="#63b8ff" stroke="#63b8ff" points="740.23,-113.47 750.47,-110.74 740.76,-106.49 740.23,-113.47"/>
</a>
</g>
</g>
<!-- Node29&#45;&gt;Node6 -->
<g id="edge61_Node000029_Node000006" class="edge">
<title>Node29&#45;&gt;Node6</title>
<g id="a_edge61_Node000029_Node000006"><a xlink:title=" ">
<path fill="none" stroke="#63b8ff" d="M740.05,-112.41C574.3,-108.61 55.97,-94.78 30.55,-70 16.36,-56.17 20.32,-30.02 23.42,-17.11"/>
<polygon fill="#63b8ff" stroke="#63b8ff" points="740.37,-115.92 750.45,-112.65 740.53,-108.92 740.37,-115.92"/>
</a>
</g>
</g>
<!-- Node29&#45;&gt;Node7 -->
<g id="edge63_Node000029_Node000007" class="edge">
<title>Node29&#45;&gt;Node7</title>
<g id="a_edge63_Node000029_Node000007"><a xlink:title=" ">
<path fill="none" stroke="#63b8ff" d="M740.27,-111.7C653.45,-107.96 470.04,-97.31 317.55,-70 242.5,-56.56 155.98,-30.11 115.57,-17.1"/>
<polygon fill="#63b8ff" stroke="#63b8ff" points="740.24,-115.2 750.37,-112.12 740.53,-108.21 740.24,-115.2"/>
</a>
</g>
</g>
<!-- Node29&#45;&gt;Node10 -->
<g id="edge65_Node000029_Node000010" class="edge">
<title>Node29&#45;&gt;Node10</title>
<g id="a_edge65_Node000029_Node000010"><a xlink:title=" ">
<path fill="none" stroke="#63b8ff" d="M755.63,-102.96C723.12,-93.15 675.46,-78.77 646.59,-70.06"/>
<polygon fill="#63b8ff" stroke="#63b8ff" points="755.03,-106.44 765.61,-105.97 757.05,-99.73 755.03,-106.44"/>
</a>
</g>
</g>
<!-- Node29&#45;&gt;Node11 -->
<g id="edge55_Node000029_Node000011" class="edge">
<title>Node29&#45;&gt;Node11</title>
<g id="a_edge55_Node000029_Node000011"><a xlink:title=" ">
<path fill="none" stroke="#63b8ff" d="M841,-108.05C921.32,-99.11 1071.5,-81.21 1093.55,-70 1118.14,-57.5 1138.43,-30.73 1147.48,-17.39"/>
<polygon fill="#63b8ff" stroke="#63b8ff" points="840.17,-104.62 830.62,-109.2 840.94,-111.58 840.17,-104.62"/>
</a>
</g>
</g>
<!-- Node29&#45;&gt;Node12 -->
<g id="edge56_Node000029_Node000012" class="edge">
<title>Node29&#45;&gt;Node12</title>
<g id="a_edge56_Node000029_Node000012"><a xlink:title=" ">
<path fill="none" stroke="#63b8ff" d="M810.49,-99.77C842.71,-77.58 905.15,-34.57 930.48,-17.12"/>
<polygon fill="#63b8ff" stroke="#63b8ff" points="808.15,-97.13 801.9,-105.68 812.12,-102.89 808.15,-97.13"/>
</a>
</g>
</g>
<!-- Node29&#45;&gt;Node13 -->
<g id="edge57_Node000029_Node000013" class="edge">
<title>Node29&#45;&gt;Node13</title>
<g id="a_edge57_Node000029_Node000013"><a xlink:title=" ">
<path fill="none" stroke="#63b8ff" d="M794,-95.55C798.43,-72.5 805.93,-33.52 809.08,-17.12"/>
<polygon fill="#63b8ff" stroke="#63b8ff" points="790.5,-95.2 792.05,-105.68 797.38,-96.52 790.5,-95.2"/>
</a>
</g>
</g>
<!-- Node29&#45;&gt;Node18 -->
<g id="edge58_Node000029_Node000018" class="edge">
<title>Node29&#45;&gt;Node18</title>
<g id="a_edge58_Node000029_Node000018"><a xlink:title=" ">
<path fill="none" stroke="#63b8ff" d="M803.45,-97.71C822,-75.01 855.49,-34.04 869.32,-17.12"/>
<polygon fill="#63b8ff" stroke="#63b8ff" points="800.56,-95.73 796.94,-105.68 805.98,-100.16 800.56,-95.73"/>
</a>
</g>
</g>
<!-- Node29&#45;&gt;Node19 -->
<g id="edge59_Node000029_Node000019" class="edge">
<title>Node29&#45;&gt;Node19</title>
<g id="a_edge59_Node000029_Node000019"><a xlink:title=" ">
<path fill="none" stroke="#63b8ff" d="M840.79,-109.42C918.95,-102.55 1062.34,-87.69 1077.55,-70 1090.96,-54.4 1074.33,-29.53 1064.23,-17.1"/>
<polygon fill="#63b8ff" stroke="#63b8ff" points="840.33,-105.94 830.67,-110.29 840.94,-112.92 840.33,-105.94"/>
</a>
</g>
</g>
<!-- Node29&#45;&gt;Node20 -->
<g id="edge62_Node000029_Node000020" class="edge">
<title>Node29&#45;&gt;Node20</title>
<g id="a_edge62_Node000029_Node000020"><a xlink:title=" ">
<path fill="none" stroke="#63b8ff" d="M840.82,-108.61C919.36,-100.67 1067.5,-84.42 1118.55,-70 1165.55,-56.73 1217.28,-30.08 1241.14,-17.04"/>
<polygon fill="#63b8ff" stroke="#63b8ff" points="840.27,-105.15 830.67,-109.63 840.97,-112.11 840.27,-105.15"/>
</a>
</g>
</g>
<!-- Node29&#45;&gt;Node24 -->
<g id="edge64_Node000029_Node000024" class="edge">
<title>Node29&#45;&gt;Node24</title>
<g id="a_edge64_Node000029_Node000024"><a xlink:title=" ">
<path fill="none" stroke="#63b8ff" d="M840.64,-108.94C926.19,-100.91 1096.9,-83.81 1155.55,-70 1212.58,-56.58 1276.99,-30.24 1307.18,-17.2"/>
<polygon fill="#63b8ff" stroke="#63b8ff" points="840.28,-105.46 830.65,-109.87 840.93,-112.43 840.28,-105.46"/>
</a>
</g>
</g>
<!-- Node30&#45;&gt;Node20 -->
<g id="edge73_Node000030_Node000020" class="edge">
<title>Node30&#45;&gt;Node20</title>
<g id="a_edge73_Node000030_Node000020"><a xlink:title=" ">
<path fill="none" stroke="#63b8ff" d="M1348.41,-49.06C1325.22,-39.29 1292.53,-25.51 1272.48,-17.06"/>
<polygon fill="#63b8ff" stroke="#63b8ff" points="1347.12,-52.32 1357.7,-52.97 1349.84,-45.87 1347.12,-52.32"/>
</a>
</g>
</g>
<!-- Node30&#45;&gt;Node24 -->
<g id="edge75_Node000030_Node000024" class="edge">
<title>Node30&#45;&gt;Node24</title>
<g id="a_edge75_Node000030_Node000024"><a xlink:title=" ">
<path fill="none" stroke="#63b8ff" d="M1360.84,-45.79C1351.44,-36.39 1339.65,-24.6 1332.11,-17.06"/>
<polygon fill="#63b8ff" stroke="#63b8ff" points="1358.48,-48.38 1368.02,-52.97 1363.43,-43.43 1358.48,-48.38"/>
</a>
</g>
</g>
<!-- Node30&#45;&gt;Node26 -->
<g id="edge74_Node000030_Node000026" class="edge">
<title>Node30&#45;&gt;Node26</title>
<g id="a_edge74_Node000030_Node000026"><a xlink:title=" ">
<path fill="none" stroke="#63b8ff" d="M1380.64,-43.2C1383.25,-34.31 1386.31,-23.92 1388.33,-17.06"/>
<polygon fill="#63b8ff" stroke="#63b8ff" points="1377.23,-42.39 1377.76,-52.97 1383.94,-44.37 1377.23,-42.39"/>
</a>
</g>
</g>
</g>
</svg>
