<?xml version="1.0" encoding="UTF-8" standalone="no"?>
<!DOCTYPE svg PUBLIC "-//W3C//DTD SVG 1.1//EN"
 "http://www.w3.org/Graphics/SVG/1.1/DTD/svg11.dtd">
<!-- Generated by graphviz version 2.43.0 (0)
 -->
<!-- Title: stack.hpp Pages: 1 -->
<svg width="738pt" height="131pt"
 viewBox="0.00 0.00 738.21 131.00" xmlns="http://www.w3.org/2000/svg" xmlns:xlink="http://www.w3.org/1999/xlink">
<g id="graph0" class="graph" transform="scale(1 1) rotate(0) translate(4 127)">
<title>stack.hpp</title>
<!-- Node1 -->
<g id="Node000001" class="node">
<title>Node1</title>
<g id="a_Node000001"><a xlink:title=" ">
<polygon fill="#999999" stroke="#666666" points="364.71,-123 308.71,-123 308.71,-106 364.71,-106 364.71,-123"/>
<text text-anchor="middle" x="336.71" y="-112.6" font-family="Helvetica,sans-Serif" font-size="8.00">stack.hpp</text>
</a>
</g>
</g>
<!-- Node2 -->
<g id="Node000002" class="node">
<title>Node2</title>
<g id="a_Node000002"><a xlink:href="../../d9/d96/chdr_8hpp.html" target="_top" xlink:title=" ">
<polygon fill="white" stroke="#666666" points="362.71,-17 310.71,-17 310.71,0 362.71,0 362.71,-17"/>
<text text-anchor="middle" x="336.71" y="-6.6" font-family="Helvetica,sans-Serif" font-size="8.00">chdr.hpp</text>
</a>
</g>
</g>
<!-- Node1&#45;&gt;Node2 -->
<g id="edge1_Node000001_Node000002" class="edge">
<title>Node1&#45;&gt;Node2</title>
<g id="a_edge1_Node000001_Node000002"><a xlink:title=" ">
<path fill="none" stroke="#63b8ff" d="M298.47,-112.65C203.08,-109.84 -35.01,-98.26 4.71,-53 24.86,-30.03 235.85,-15.45 310.62,-10.97"/>
<polygon fill="#63b8ff" stroke="#63b8ff" points="298.49,-116.15 308.58,-112.93 298.68,-109.15 298.49,-116.15"/>
</a>
</g>
</g>
<!-- Node3 -->
<g id="Node000003" class="node">
<title>Node3</title>
<g id="a_Node000003"><a xlink:href="../../d3/dec/dfs_8hpp.html" target="_top" xlink:title=" ">
<polygon fill="white" stroke="#666666" points="61.21,-70 14.21,-70 14.21,-53 61.21,-53 61.21,-70"/>
<text text-anchor="middle" x="37.71" y="-59.6" font-family="Helvetica,sans-Serif" font-size="8.00">dfs.hpp</text>
</a>
</g>
</g>
<!-- Node1&#45;&gt;Node3 -->
<g id="edge2_Node000001_Node000003" class="edge">
<title>Node1&#45;&gt;Node3</title>
<g id="a_edge2_Node000001_Node000003"><a xlink:title=" ">
<path fill="none" stroke="#63b8ff" d="M298.59,-108.02C246.83,-100.4 151.49,-85.77 70.71,-70 67.71,-69.41 64.57,-68.76 61.46,-68.08"/>
<polygon fill="#63b8ff" stroke="#63b8ff" points="298.25,-111.51 308.65,-109.49 299.26,-104.58 298.25,-111.51"/>
</a>
</g>
</g>
<!-- Node4 -->
<g id="Node000004" class="node">
<title>Node4</title>
<g id="a_Node000004"><a xlink:href="../../d6/ded/eidastar_8hpp.html" target="_top" xlink:title=" ">
<polygon fill="white" stroke="#666666" points="147.71,-70 79.71,-70 79.71,-53 147.71,-53 147.71,-70"/>
<text text-anchor="middle" x="113.71" y="-59.6" font-family="Helvetica,sans-Serif" font-size="8.00">eidastar.hpp</text>
</a>
</g>
</g>
<!-- Node1&#45;&gt;Node4 -->
<g id="edge4_Node000001_Node000004" class="edge">
<title>Node1&#45;&gt;Node4</title>
<g id="a_edge4_Node000001_Node000004"><a xlink:title=" ">
<path fill="none" stroke="#63b8ff" d="M298.45,-104.75C255.73,-94.98 187.29,-79.33 146.79,-70.07"/>
<polygon fill="#63b8ff" stroke="#63b8ff" points="297.94,-108.22 308.47,-107.04 299.5,-101.4 297.94,-108.22"/>
</a>
</g>
</g>
<!-- Node5 -->
<g id="Node000005" class="node">
<title>Node5</title>
<g id="a_Node000005"><a xlink:href="../../d8/d85/eidbest__first_8hpp.html" target="_top" xlink:title=" ">
<polygon fill="white" stroke="#666666" points="251.21,-70 166.21,-70 166.21,-53 251.21,-53 251.21,-70"/>
<text text-anchor="middle" x="208.71" y="-59.6" font-family="Helvetica,sans-Serif" font-size="8.00">eidbest_first.hpp</text>
</a>
</g>
</g>
<!-- Node1&#45;&gt;Node5 -->
<g id="edge6_Node000001_Node000005" class="edge">
<title>Node1&#45;&gt;Node5</title>
<g id="a_edge6_Node000001_Node000005"><a xlink:title=" ">
<path fill="none" stroke="#63b8ff" d="M308.32,-102.19C283.78,-92.41 248.98,-78.54 227.67,-70.06"/>
<polygon fill="#63b8ff" stroke="#63b8ff" points="307.24,-105.52 317.82,-105.97 309.83,-99.02 307.24,-105.52"/>
</a>
</g>
</g>
<!-- Node6 -->
<g id="Node000006" class="node">
<title>Node6</title>
<g id="a_Node000006"><a xlink:href="../../dd/d95/eiddfs_8hpp.html" target="_top" xlink:title=" ">
<polygon fill="white" stroke="#666666" points="329.71,-70 269.71,-70 269.71,-53 329.71,-53 329.71,-70"/>
<text text-anchor="middle" x="299.71" y="-59.6" font-family="Helvetica,sans-Serif" font-size="8.00">eiddfs.hpp</text>
</a>
</g>
</g>
<!-- Node1&#45;&gt;Node6 -->
<g id="edge8_Node000001_Node000006" class="edge">
<title>Node1&#45;&gt;Node6</title>
<g id="a_edge8_Node000001_Node000006"><a xlink:title=" ">
<path fill="none" stroke="#63b8ff" d="M325.21,-97.65C318.54,-88.46 310.44,-77.3 305.19,-70.06"/>
<polygon fill="#63b8ff" stroke="#63b8ff" points="322.54,-99.94 331.25,-105.97 328.21,-95.83 322.54,-99.94"/>
</a>
</g>
</g>
<!-- Node7 -->
<g id="Node000007" class="node">
<title>Node7</title>
<g id="a_Node000007"><a xlink:href="../../d4/df2/gdfs_8hpp.html" target="_top" xlink:title=" ">
<polygon fill="white" stroke="#666666" points="401.21,-70 348.21,-70 348.21,-53 401.21,-53 401.21,-70"/>
<text text-anchor="middle" x="374.71" y="-59.6" font-family="Helvetica,sans-Serif" font-size="8.00">gdfs.hpp</text>
</a>
</g>
</g>
<!-- Node1&#45;&gt;Node7 -->
<g id="edge10_Node000001_Node000007" class="edge">
<title>Node1&#45;&gt;Node7</title>
<g id="a_edge10_Node000001_Node000007"><a xlink:title=" ">
<path fill="none" stroke="#63b8ff" d="M348.3,-97.94C355.19,-88.69 363.63,-77.37 369.08,-70.06"/>
<polygon fill="#63b8ff" stroke="#63b8ff" points="345.48,-95.86 342.32,-105.97 351.1,-100.05 345.48,-95.86"/>
</a>
</g>
</g>
<!-- Node8 -->
<g id="Node000008" class="node">
<title>Node8</title>
<g id="a_Node000008"><a xlink:href="../../d9/de9/graph_8hpp.html" target="_top" xlink:title=" ">
<polygon fill="white" stroke="#666666" points="478.21,-70 419.21,-70 419.21,-53 478.21,-53 478.21,-70"/>
<text text-anchor="middle" x="448.71" y="-59.6" font-family="Helvetica,sans-Serif" font-size="8.00">graph.hpp</text>
</a>
</g>
</g>
<!-- Node1&#45;&gt;Node8 -->
<g id="edge12_Node000001_Node000008" class="edge">
<title>Node1&#45;&gt;Node8</title>
<g id="a_edge12_Node000001_Node000008"><a xlink:title=" ">
<path fill="none" stroke="#63b8ff" d="M362.41,-101.8C383.83,-92.04 413.72,-78.43 432.11,-70.06"/>
<polygon fill="#63b8ff" stroke="#63b8ff" points="360.88,-98.65 353.23,-105.97 363.79,-105.02 360.88,-98.65"/>
</a>
</g>
</g>
<!-- Node9 -->
<g id="Node000009" class="node">
<title>Node9</title>
<g id="a_Node000009"><a xlink:href="../../db/df9/idastar_8hpp.html" target="_top" xlink:title=" ">
<polygon fill="white" stroke="#666666" points="558.71,-70 496.71,-70 496.71,-53 558.71,-53 558.71,-70"/>
<text text-anchor="middle" x="527.71" y="-59.6" font-family="Helvetica,sans-Serif" font-size="8.00">idastar.hpp</text>
</a>
</g>
</g>
<!-- Node1&#45;&gt;Node9 -->
<g id="edge14_Node000001_Node000009" class="edge">
<title>Node1&#45;&gt;Node9</title>
<g id="a_edge14_Node000001_Node000009"><a xlink:title=" ">
<path fill="none" stroke="#63b8ff" d="M374.75,-103.34C411.51,-93.53 466.35,-78.88 499.41,-70.06"/>
<polygon fill="#63b8ff" stroke="#63b8ff" points="373.65,-100.01 364.89,-105.97 375.46,-106.78 373.65,-100.01"/>
</a>
</g>
</g>
<!-- Node10 -->
<g id="Node000010" class="node">
<title>Node10</title>
<g id="a_Node000010"><a xlink:href="../../d1/d3a/idbest__first_8hpp.html" target="_top" xlink:title=" ">
<polygon fill="white" stroke="#666666" points="656.71,-70 576.71,-70 576.71,-53 656.71,-53 656.71,-70"/>
<text text-anchor="middle" x="616.71" y="-59.6" font-family="Helvetica,sans-Serif" font-size="8.00">idbest_first.hpp</text>
</a>
</g>
</g>
<!-- Node1&#45;&gt;Node10 -->
<g id="edge16_Node000001_Node000010" class="edge">
<title>Node1&#45;&gt;Node10</title>
<g id="a_edge16_Node000001_Node000010"><a xlink:title=" ">
<path fill="none" stroke="#63b8ff" d="M374.81,-106.56C427.61,-96.94 522.59,-79.64 576.49,-69.82"/>
<polygon fill="#63b8ff" stroke="#63b8ff" points="374.05,-103.14 364.84,-108.38 375.3,-110.03 374.05,-103.14"/>
</a>
</g>
</g>
<!-- Node11 -->
<g id="Node000011" class="node">
<title>Node11</title>
<g id="a_Node000011"><a xlink:href="../../df/d71/iddfs_8hpp.html" target="_top" xlink:title=" ">
<polygon fill="white" stroke="#666666" points="730.21,-70 675.21,-70 675.21,-53 730.21,-53 730.21,-70"/>
<text text-anchor="middle" x="702.71" y="-59.6" font-family="Helvetica,sans-Serif" font-size="8.00">iddfs.hpp</text>
</a>
</g>
</g>
<!-- Node1&#45;&gt;Node11 -->
<g id="edge18_Node000001_Node000011" class="edge">
<title>Node1&#45;&gt;Node11</title>
<g id="a_edge18_Node000001_Node000011"><a xlink:title=" ">
<path fill="none" stroke="#63b8ff" d="M374.99,-109.3C436.48,-102.36 560.96,-87.52 665.71,-70 668.68,-69.5 671.78,-68.94 674.87,-68.36"/>
<polygon fill="#63b8ff" stroke="#63b8ff" points="374.52,-105.83 364.97,-110.42 375.3,-112.79 374.52,-105.83"/>
</a>
</g>
</g>
<!-- Node3&#45;&gt;Node2 -->
<g id="edge3_Node000003_Node000002" class="edge">
<title>Node3&#45;&gt;Node2</title>
<g id="a_edge3_Node000003_Node000002"><a xlink:title=" ">
<path fill="none" stroke="#63b8ff" d="M71.41,-52.98C165.28,-34.85 264.41,-19.94 310.56,-13.23"/>
<polygon fill="#63b8ff" stroke="#63b8ff" points="70.61,-49.57 61.46,-54.92 71.95,-56.44 70.61,-49.57"/>
</a>
</g>
</g>
<!-- Node4&#45;&gt;Node2 -->
<g id="edge5_Node000004_Node000002" class="edge">
<title>Node4&#45;&gt;Node2</title>
<g id="a_edge5_Node000004_Node000002"><a xlink:title=" ">
<path fill="none" stroke="#63b8ff" d="M156.5,-50.71C202.08,-40.29 272.76,-24.12 310.64,-15.46"/>
<polygon fill="#63b8ff" stroke="#63b8ff" points="155.58,-47.33 146.61,-52.97 157.14,-54.16 155.58,-47.33"/>
</a>
</g>
</g>
<!-- Node5&#45;&gt;Node2 -->
<g id="edge7_Node000005_Node000002" class="edge">
<title>Node5&#45;&gt;Node2</title>
<g id="a_edge7_Node000005_Node000002"><a xlink:title=" ">
<path fill="none" stroke="#63b8ff" d="M237.09,-49.19C261.64,-39.41 296.44,-25.54 317.74,-17.06"/>
<polygon fill="#63b8ff" stroke="#63b8ff" points="235.59,-46.02 227.6,-52.97 238.18,-52.52 235.59,-46.02"/>
</a>
</g>
</g>
<!-- Node6&#45;&gt;Node2 -->
<g id="edge9_Node000006_Node000002" class="edge">
<title>Node6&#45;&gt;Node2</title>
<g id="a_edge9_Node000006_Node000002"><a xlink:title=" ">
<path fill="none" stroke="#63b8ff" d="M311.21,-44.65C317.88,-35.46 325.97,-24.3 331.23,-17.06"/>
<polygon fill="#63b8ff" stroke="#63b8ff" points="308.21,-42.83 305.17,-52.97 313.87,-46.94 308.21,-42.83"/>
</a>
</g>
</g>
<!-- Node7&#45;&gt;Node2 -->
<g id="edge11_Node000007_Node000002" class="edge">
<title>Node7&#45;&gt;Node2</title>
<g id="a_edge11_Node000007_Node000002"><a xlink:title=" ">
<path fill="none" stroke="#63b8ff" d="M363.11,-44.94C356.22,-35.69 347.79,-24.37 342.34,-17.06"/>
<polygon fill="#63b8ff" stroke="#63b8ff" points="360.32,-47.05 369.1,-52.97 365.93,-42.86 360.32,-47.05"/>
</a>
</g>
</g>
<!-- Node8&#45;&gt;Node2 -->
<g id="edge13_Node000008_Node000002" class="edge">
<title>Node8&#45;&gt;Node2</title>
<g id="a_edge13_Node000008_Node000002"><a xlink:title=" ">
<path fill="none" stroke="#63b8ff" d="M423.01,-48.8C401.58,-39.04 371.69,-25.43 353.3,-17.06"/>
<polygon fill="#63b8ff" stroke="#63b8ff" points="421.63,-52.02 432.18,-52.97 424.53,-45.65 421.63,-52.02"/>
</a>
</g>
</g>
<!-- Node9&#45;&gt;Node2 -->
<g id="edge15_Node000009_Node000002" class="edge">
<title>Node9&#45;&gt;Node2</title>
<g id="a_edge15_Node000009_Node000002"><a xlink:title=" ">
<path fill="none" stroke="#63b8ff" d="M489.46,-50.29C451.89,-40.26 395.58,-25.22 362.86,-16.48"/>
<polygon fill="#63b8ff" stroke="#63b8ff" points="488.96,-53.78 499.53,-52.97 490.77,-47.01 488.96,-53.78"/>
</a>
</g>
</g>
<!-- Node10&#45;&gt;Node2 -->
<g id="edge17_Node000010_Node000002" class="edge">
<title>Node10&#45;&gt;Node2</title>
<g id="a_edge17_Node000010_Node000002"><a xlink:title=" ">
<path fill="none" stroke="#63b8ff" d="M566.63,-51.38C506.92,-40.5 409.38,-22.74 362.92,-14.27"/>
<polygon fill="#63b8ff" stroke="#63b8ff" points="566.13,-54.84 576.59,-53.19 567.38,-47.96 566.13,-54.84"/>
</a>
</g>
</g>
<!-- Node11&#45;&gt;Node2 -->
<g id="edge19_Node000011_Node000002" class="edge">
<title>Node11&#45;&gt;Node2</title>
<g id="a_edge19_Node000011_Node000002"><a xlink:title=" ">
<path fill="none" stroke="#63b8ff" d="M664.88,-52.98C546.16,-33.38 417.07,-18.36 362.81,-12.34"/>
<polygon fill="#63b8ff" stroke="#63b8ff" points="664.43,-56.45 674.87,-54.64 665.58,-49.55 664.43,-56.45"/>
</a>
</g>
</g>
</g>
</svg>
