<?xml version="1.0" encoding="UTF-8" standalone="no"?>
<!DOCTYPE svg PUBLIC "-//W3C//DTD SVG 1.1//EN"
 "http://www.w3.org/Graphics/SVG/1.1/DTD/svg11.dtd">
<!-- Generated by graphviz version 2.43.0 (0)
 -->
<!-- Title: stack.hpp Pages: 1 -->
<svg width="675pt" height="131pt"
 viewBox="0.00 0.00 674.74 131.00" xmlns="http://www.w3.org/2000/svg" xmlns:xlink="http://www.w3.org/1999/xlink">
<g id="graph0" class="graph" transform="scale(1 1) rotate(0) translate(4 127)">
<title>stack.hpp</title>
<!-- Node1 -->
<g id="Node000001" class="node">
<title>Node1</title>
<g id="a_Node000001"><a xlink:title=" ">
<polygon fill="#999999" stroke="#666666" points="332.24,-123 282.24,-123 282.24,-106 332.24,-106 332.24,-123"/>
<text text-anchor="middle" x="307.24" y="-112.6" font-family="Helvetica,sans-Serif" font-size="8.00">stack.hpp</text>
</a>
</g>
</g>
<!-- Node2 -->
<g id="Node000002" class="node">
<title>Node2</title>
<g id="a_Node000002"><a xlink:href="../../d9/d96/chdr_8hpp.html" target="_top" xlink:title=" ">
<polygon fill="white" stroke="#666666" points="330.74,-17 283.74,-17 283.74,0 330.74,0 330.74,-17"/>
<text text-anchor="middle" x="307.24" y="-6.6" font-family="Helvetica,sans-Serif" font-size="8.00">chdr.hpp</text>
</a>
</g>
</g>
<!-- Node1&#45;&gt;Node2 -->
<g id="edge1_Node000001_Node000002" class="edge">
<title>Node1&#45;&gt;Node2</title>
<g id="a_edge1_Node000001_Node000002"><a xlink:title=" ">
<path fill="none" stroke="#63b8ff" d="M271.72,-113.94C199.3,-113.99 38.51,-109.54 4.24,-70 -33.52,-26.42 205.86,-13.37 283.51,-10.31"/>
<polygon fill="#63b8ff" stroke="#63b8ff" points="272.16,-117.44 282.15,-113.9 272.14,-110.44 272.16,-117.44"/>
</a>
</g>
</g>
<!-- Node3 -->
<g id="Node000003" class="node">
<title>Node3</title>
<g id="a_Node000003"><a xlink:href="../../d3/dec/dfs_8hpp.html" target="_top" xlink:title=" ">
<polygon fill="white" stroke="#666666" points="56.74,-70 13.74,-70 13.74,-53 56.74,-53 56.74,-70"/>
<text text-anchor="middle" x="35.24" y="-59.6" font-family="Helvetica,sans-Serif" font-size="8.00">dfs.hpp</text>
</a>
</g>
</g>
<!-- Node1&#45;&gt;Node3 -->
<g id="edge2_Node000001_Node000003" class="edge">
<title>Node1&#45;&gt;Node3</title>
<g id="a_edge2_Node000001_Node000003"><a xlink:title=" ">
<path fill="none" stroke="#63b8ff" d="M272.19,-107.84C225.17,-100.09 139.15,-85.38 66.24,-70 63.21,-69.36 60.02,-68.64 56.89,-67.91"/>
<polygon fill="#63b8ff" stroke="#63b8ff" points="271.73,-111.31 282.17,-109.47 272.87,-104.4 271.73,-111.31"/>
</a>
</g>
</g>
<!-- Node4 -->
<g id="Node000004" class="node">
<title>Node4</title>
<g id="a_Node000004"><a xlink:href="../../d6/ded/eidastar_8hpp.html" target="_top" xlink:title=" ">
<polygon fill="white" stroke="#666666" points="135.24,-70 75.24,-70 75.24,-53 135.24,-53 135.24,-70"/>
<text text-anchor="middle" x="105.24" y="-59.6" font-family="Helvetica,sans-Serif" font-size="8.00">eidastar.hpp</text>
</a>
</g>
</g>
<!-- Node1&#45;&gt;Node4 -->
<g id="edge4_Node000001_Node000004" class="edge">
<title>Node1&#45;&gt;Node4</title>
<g id="a_edge4_Node000001_Node000004"><a xlink:title=" ">
<path fill="none" stroke="#63b8ff" d="M272.26,-104.67C233.47,-94.87 171.56,-79.24 135.01,-70.02"/>
<polygon fill="#63b8ff" stroke="#63b8ff" points="271.52,-108.09 282.07,-107.14 273.23,-101.3 271.52,-108.09"/>
</a>
</g>
</g>
<!-- Node5 -->
<g id="Node000005" class="node">
<title>Node5</title>
<g id="a_Node000005"><a xlink:href="../../d8/d85/eidbest__first_8hpp.html" target="_top" xlink:title=" ">
<polygon fill="white" stroke="#666666" points="228.74,-70 153.74,-70 153.74,-53 228.74,-53 228.74,-70"/>
<text text-anchor="middle" x="191.24" y="-59.6" font-family="Helvetica,sans-Serif" font-size="8.00">eidbest_first.hpp</text>
</a>
</g>
</g>
<!-- Node1&#45;&gt;Node5 -->
<g id="edge6_Node000001_Node000005" class="edge">
<title>Node1&#45;&gt;Node5</title>
<g id="a_edge6_Node000001_Node000005"><a xlink:title=" ">
<path fill="none" stroke="#63b8ff" d="M280.92,-101.93C258.71,-92.16 227.56,-78.47 208.43,-70.06"/>
<polygon fill="#63b8ff" stroke="#63b8ff" points="279.56,-105.15 290.13,-105.97 282.38,-98.75 279.56,-105.15"/>
</a>
</g>
</g>
<!-- Node6 -->
<g id="Node000006" class="node">
<title>Node6</title>
<g id="a_Node000006"><a xlink:href="../../dd/d95/eiddfs_8hpp.html" target="_top" xlink:title=" ">
<polygon fill="white" stroke="#666666" points="299.74,-70 246.74,-70 246.74,-53 299.74,-53 299.74,-70"/>
<text text-anchor="middle" x="273.24" y="-59.6" font-family="Helvetica,sans-Serif" font-size="8.00">eiddfs.hpp</text>
</a>
</g>
</g>
<!-- Node1&#45;&gt;Node6 -->
<g id="edge8_Node000001_Node000006" class="edge">
<title>Node1&#45;&gt;Node6</title>
<g id="a_edge8_Node000001_Node000006"><a xlink:title=" ">
<path fill="none" stroke="#63b8ff" d="M296.68,-97.65C290.55,-88.46 283.11,-77.3 278.28,-70.06"/>
<polygon fill="#63b8ff" stroke="#63b8ff" points="293.77,-99.6 302.23,-105.97 299.59,-95.71 293.77,-99.6"/>
</a>
</g>
</g>
<!-- Node7 -->
<g id="Node000007" class="node">
<title>Node7</title>
<g id="a_Node000007"><a xlink:href="../../d4/df2/gdfs_8hpp.html" target="_top" xlink:title=" ">
<polygon fill="white" stroke="#666666" points="364.74,-70 317.74,-70 317.74,-53 364.74,-53 364.74,-70"/>
<text text-anchor="middle" x="341.24" y="-59.6" font-family="Helvetica,sans-Serif" font-size="8.00">gdfs.hpp</text>
</a>
</g>
</g>
<!-- Node1&#45;&gt;Node7 -->
<g id="edge10_Node000001_Node000007" class="edge">
<title>Node1&#45;&gt;Node7</title>
<g id="a_edge10_Node000001_Node000007"><a xlink:title=" ">
<path fill="none" stroke="#63b8ff" d="M317.81,-97.65C323.94,-88.46 331.38,-77.3 336.21,-70.06"/>
<polygon fill="#63b8ff" stroke="#63b8ff" points="314.89,-95.71 312.26,-105.97 320.72,-99.6 314.89,-95.71"/>
</a>
</g>
</g>
<!-- Node8 -->
<g id="Node000008" class="node">
<title>Node8</title>
<g id="a_Node000008"><a xlink:href="../../d9/de9/graph_8hpp.html" target="_top" xlink:title=" ">
<polygon fill="white" stroke="#666666" points="435.74,-70 382.74,-70 382.74,-53 435.74,-53 435.74,-70"/>
<text text-anchor="middle" x="409.24" y="-59.6" font-family="Helvetica,sans-Serif" font-size="8.00">graph.hpp</text>
</a>
</g>
</g>
<!-- Node1&#45;&gt;Node8 -->
<g id="edge12_Node000001_Node000008" class="edge">
<title>Node1&#45;&gt;Node8</title>
<g id="a_edge12_Node000001_Node000008"><a xlink:title=" ">
<path fill="none" stroke="#63b8ff" d="M331.45,-101.4C350.9,-91.67 377.61,-78.32 394.13,-70.06"/>
<polygon fill="#63b8ff" stroke="#63b8ff" points="329.67,-98.37 322.29,-105.97 332.8,-104.63 329.67,-98.37"/>
</a>
</g>
</g>
<!-- Node9 -->
<g id="Node000009" class="node">
<title>Node9</title>
<g id="a_Node000009"><a xlink:href="../../db/df9/idastar_8hpp.html" target="_top" xlink:title=" ">
<polygon fill="white" stroke="#666666" points="510.24,-70 454.24,-70 454.24,-53 510.24,-53 510.24,-70"/>
<text text-anchor="middle" x="482.24" y="-59.6" font-family="Helvetica,sans-Serif" font-size="8.00">idastar.hpp</text>
</a>
</g>
</g>
<!-- Node1&#45;&gt;Node9 -->
<g id="edge14_Node000001_Node000009" class="edge">
<title>Node1&#45;&gt;Node9</title>
<g id="a_edge14_Node000001_Node000009"><a xlink:title=" ">
<path fill="none" stroke="#63b8ff" d="M342.2,-103.31C375.9,-93.49 426.11,-78.86 456.36,-70.04"/>
<polygon fill="#63b8ff" stroke="#63b8ff" points="340.94,-100.03 332.32,-106.19 342.9,-106.76 340.94,-100.03"/>
</a>
</g>
</g>
<!-- Node10 -->
<g id="Node000010" class="node">
<title>Node10</title>
<g id="a_Node000010"><a xlink:href="../../d1/d3a/idbest__first_8hpp.html" target="_top" xlink:title=" ">
<polygon fill="white" stroke="#666666" points="599.74,-70 528.74,-70 528.74,-53 599.74,-53 599.74,-70"/>
<text text-anchor="middle" x="564.24" y="-59.6" font-family="Helvetica,sans-Serif" font-size="8.00">idbest_first.hpp</text>
</a>
</g>
</g>
<!-- Node1&#45;&gt;Node10 -->
<g id="edge16_Node000001_Node000010" class="edge">
<title>Node1&#45;&gt;Node10</title>
<g id="a_edge16_Node000001_Node000010"><a xlink:title=" ">
<path fill="none" stroke="#63b8ff" d="M342.45,-106.51C391.31,-96.82 479.21,-79.37 528.41,-69.61"/>
<polygon fill="#63b8ff" stroke="#63b8ff" points="341.48,-103.14 332.35,-108.52 342.84,-110 341.48,-103.14"/>
</a>
</g>
</g>
<!-- Node11 -->
<g id="Node000011" class="node">
<title>Node11</title>
<g id="a_Node000011"><a xlink:href="../../df/d71/iddfs_8hpp.html" target="_top" xlink:title=" ">
<polygon fill="white" stroke="#666666" points="666.74,-70 617.74,-70 617.74,-53 666.74,-53 666.74,-70"/>
<text text-anchor="middle" x="642.24" y="-59.6" font-family="Helvetica,sans-Serif" font-size="8.00">iddfs.hpp</text>
</a>
</g>
</g>
<!-- Node1&#45;&gt;Node11 -->
<g id="edge18_Node000001_Node000011" class="edge">
<title>Node1&#45;&gt;Node11</title>
<g id="a_edge18_Node000001_Node000011"><a xlink:title=" ">
<path fill="none" stroke="#63b8ff" d="M342.61,-109.34C399.16,-102.48 513.34,-87.78 609.24,-70 611.9,-69.51 614.67,-68.95 617.42,-68.37"/>
<polygon fill="#63b8ff" stroke="#63b8ff" points="341.92,-105.9 332.41,-110.57 342.76,-112.85 341.92,-105.9"/>
</a>
</g>
</g>
<!-- Node3&#45;&gt;Node2 -->
<g id="edge3_Node000003_Node000002" class="edge">
<title>Node3&#45;&gt;Node2</title>
<g id="a_edge3_Node000003_Node000002"><a xlink:title=" ">
<path fill="none" stroke="#63b8ff" d="M66.77,-53.01C152.45,-35.11 241.86,-20.09 283.55,-13.3"/>
<polygon fill="#63b8ff" stroke="#63b8ff" points="65.95,-49.61 56.89,-55.09 67.39,-56.46 65.95,-49.61"/>
</a>
</g>
</g>
<!-- Node4&#45;&gt;Node2 -->
<g id="edge5_Node000004_Node000002" class="edge">
<title>Node4&#45;&gt;Node2</title>
<g id="a_edge5_Node000004_Node000002"><a xlink:title=" ">
<path fill="none" stroke="#63b8ff" d="M144.79,-50.52C186.1,-40.09 249.53,-24.07 283.63,-15.46"/>
<polygon fill="#63b8ff" stroke="#63b8ff" points="143.89,-47.13 135.05,-52.97 145.6,-53.92 143.89,-47.13"/>
</a>
</g>
</g>
<!-- Node5&#45;&gt;Node2 -->
<g id="edge7_Node000005_Node000002" class="edge">
<title>Node5&#45;&gt;Node2</title>
<g id="a_edge7_Node000005_Node000002"><a xlink:title=" ">
<path fill="none" stroke="#63b8ff" d="M217.56,-48.93C239.77,-39.16 270.92,-25.47 290.06,-17.06"/>
<polygon fill="#63b8ff" stroke="#63b8ff" points="216.1,-45.75 208.36,-52.97 218.92,-52.15 216.1,-45.75"/>
</a>
</g>
</g>
<!-- Node6&#45;&gt;Node2 -->
<g id="edge9_Node000006_Node000002" class="edge">
<title>Node6&#45;&gt;Node2</title>
<g id="a_edge9_Node000006_Node000002"><a xlink:title=" ">
<path fill="none" stroke="#63b8ff" d="M283.81,-44.65C289.94,-35.46 297.38,-24.3 302.21,-17.06"/>
<polygon fill="#63b8ff" stroke="#63b8ff" points="280.89,-42.71 278.26,-52.97 286.72,-46.6 280.89,-42.71"/>
</a>
</g>
</g>
<!-- Node7&#45;&gt;Node2 -->
<g id="edge11_Node000007_Node000002" class="edge">
<title>Node7&#45;&gt;Node2</title>
<g id="a_edge11_Node000007_Node000002"><a xlink:title=" ">
<path fill="none" stroke="#63b8ff" d="M330.68,-44.65C324.55,-35.46 317.11,-24.3 312.28,-17.06"/>
<polygon fill="#63b8ff" stroke="#63b8ff" points="327.77,-46.6 336.23,-52.97 333.59,-42.71 327.77,-46.6"/>
</a>
</g>
</g>
<!-- Node8&#45;&gt;Node2 -->
<g id="edge13_Node000008_Node000002" class="edge">
<title>Node8&#45;&gt;Node2</title>
<g id="a_edge13_Node000008_Node000002"><a xlink:title=" ">
<path fill="none" stroke="#63b8ff" d="M385.04,-48.4C365.59,-38.67 338.88,-25.32 322.36,-17.06"/>
<polygon fill="#63b8ff" stroke="#63b8ff" points="383.68,-51.63 394.19,-52.97 386.81,-45.37 383.68,-51.63"/>
</a>
</g>
</g>
<!-- Node9&#45;&gt;Node2 -->
<g id="edge15_Node000009_Node000002" class="edge">
<title>Node9&#45;&gt;Node2</title>
<g id="a_edge15_Node000009_Node000002"><a xlink:title=" ">
<path fill="none" stroke="#63b8ff" d="M446.73,-50.15C412.2,-40.09 360.73,-25.09 330.92,-16.4"/>
<polygon fill="#63b8ff" stroke="#63b8ff" points="445.84,-53.54 456.42,-52.97 447.8,-46.82 445.84,-53.54"/>
</a>
</g>
</g>
<!-- Node10&#45;&gt;Node2 -->
<g id="edge17_Node000010_Node000002" class="edge">
<title>Node10&#45;&gt;Node2</title>
<g id="a_edge17_Node000010_Node000002"><a xlink:title=" ">
<path fill="none" stroke="#63b8ff" d="M518.67,-51.46C463.7,-40.55 373.38,-22.63 330.82,-14.18"/>
<polygon fill="#63b8ff" stroke="#63b8ff" points="518.02,-54.9 528.51,-53.41 519.38,-48.03 518.02,-54.9"/>
</a>
</g>
</g>
<!-- Node11&#45;&gt;Node2 -->
<g id="edge19_Node000011_Node000002" class="edge">
<title>Node11&#45;&gt;Node2</title>
<g id="a_edge19_Node000011_Node000002"><a xlink:title=" ">
<path fill="none" stroke="#63b8ff" d="M607.28,-52.76C498.66,-32.95 380.31,-18.13 330.84,-12.24"/>
<polygon fill="#63b8ff" stroke="#63b8ff" points="606.95,-56.26 617.42,-54.63 608.22,-49.38 606.95,-56.26"/>
</a>
</g>
</g>
</g>
</svg>
