<?xml version="1.0" encoding="UTF-8" standalone="no"?>
<!DOCTYPE svg PUBLIC "-//W3C//DTD SVG 1.1//EN"
 "http://www.w3.org/Graphics/SVG/1.1/DTD/svg11.dtd">
<!-- Generated by graphviz version 2.43.0 (0)
 -->
<!-- Title: stack.hpp Pages: 1 -->
<svg width="644pt" height="131pt"
 viewBox="0.00 0.00 644.20 131.00" xmlns="http://www.w3.org/2000/svg" xmlns:xlink="http://www.w3.org/1999/xlink">
<g id="graph0" class="graph" transform="scale(1 1) rotate(0) translate(4 127)">
<title>stack.hpp</title>
<!-- Node1 -->
<g id="Node000001" class="node">
<title>Node1</title>
<g id="a_Node000001"><a xlink:title=" ">
<polygon fill="#999999" stroke="#666666" points="316.7,-123 266.7,-123 266.7,-106 316.7,-106 316.7,-123"/>
<text text-anchor="middle" x="291.7" y="-112.6" font-family="Helvetica,sans-Serif" font-size="8.00">stack.hpp</text>
</a>
</g>
</g>
<!-- Node2 -->
<g id="Node000002" class="node">
<title>Node2</title>
<g id="a_Node000002"><a xlink:href="../../d9/d96/chdr_8hpp.html" target="_top" xlink:title=" ">
<polygon fill="white" stroke="#666666" points="315.2,-17 268.2,-17 268.2,0 315.2,0 315.2,-17"/>
<text text-anchor="middle" x="291.7" y="-6.6" font-family="Helvetica,sans-Serif" font-size="8.00">chdr.hpp</text>
</a>
</g>
</g>
<!-- Node1&#45;&gt;Node2 -->
<g id="edge1_Node000001_Node000002" class="edge">
<title>Node1&#45;&gt;Node2</title>
<g id="a_edge1_Node000001_Node000002"><a xlink:title=" ">
<path fill="none" stroke="#63b8ff" d="M256.41,-113.64C186.84,-113.08 35.93,-107.46 3.7,-70 -1.23,-64.27 -1.23,-58.73 3.7,-53 37.83,-13.32 205.06,-9.37 267.83,-9.31"/>
<polygon fill="#63b8ff" stroke="#63b8ff" points="256.43,-117.14 266.45,-113.69 256.47,-110.14 256.43,-117.14"/>
</a>
</g>
</g>
<!-- Node3 -->
<g id="Node000003" class="node">
<title>Node3</title>
<g id="a_Node000003"><a xlink:href="../../d3/dec/dfs_8hpp.html" target="_top" xlink:title=" ">
<polygon fill="white" stroke="#666666" points="56.2,-70 13.2,-70 13.2,-53 56.2,-53 56.2,-70"/>
<text text-anchor="middle" x="34.7" y="-59.6" font-family="Helvetica,sans-Serif" font-size="8.00">dfs.hpp</text>
</a>
</g>
</g>
<!-- Node1&#45;&gt;Node3 -->
<g id="edge2_Node000001_Node000003" class="edge">
<title>Node1&#45;&gt;Node3</title>
<g id="a_edge2_Node000001_Node000003"><a xlink:title=" ">
<path fill="none" stroke="#63b8ff" d="M256.51,-107.26C211.97,-99.24 132.93,-84.6 65.7,-70 62.67,-69.34 59.48,-68.61 56.35,-67.88"/>
<polygon fill="#63b8ff" stroke="#63b8ff" points="256.07,-110.74 266.53,-109.06 257.31,-103.85 256.07,-110.74"/>
</a>
</g>
</g>
<!-- Node4 -->
<g id="Node000004" class="node">
<title>Node4</title>
<g id="a_Node000004"><a xlink:href="../../d6/ded/eidastar_8hpp_source.html" target="_top" xlink:title=" ">
<polygon fill="white" stroke="#666666" points="134.7,-70 74.7,-70 74.7,-53 134.7,-53 134.7,-70"/>
<text text-anchor="middle" x="104.7" y="-59.6" font-family="Helvetica,sans-Serif" font-size="8.00">eidastar.hpp</text>
</a>
</g>
</g>
<!-- Node1&#45;&gt;Node4 -->
<g id="edge4_Node000001_Node000004" class="edge">
<title>Node1&#45;&gt;Node4</title>
<g id="a_edge4_Node000001_Node000004"><a xlink:title=" ">
<path fill="none" stroke="#63b8ff" d="M256.4,-103.88C220.37,-94.05 165.18,-79 132.25,-70.01"/>
<polygon fill="#63b8ff" stroke="#63b8ff" points="255.91,-107.37 266.48,-106.62 257.75,-100.61 255.91,-107.37"/>
</a>
</g>
</g>
<!-- Node5 -->
<g id="Node000005" class="node">
<title>Node5</title>
<g id="a_Node000005"><a xlink:href="../../dd/d67/eidbstar_8hpp_source.html" target="_top" xlink:title=" ">
<polygon fill="white" stroke="#666666" points="212.7,-70 152.7,-70 152.7,-53 212.7,-53 212.7,-70"/>
<text text-anchor="middle" x="182.7" y="-59.6" font-family="Helvetica,sans-Serif" font-size="8.00">eidbstar.hpp</text>
</a>
</g>
</g>
<!-- Node1&#45;&gt;Node5 -->
<g id="edge6_Node000001_Node000005" class="edge">
<title>Node1&#45;&gt;Node5</title>
<g id="a_edge6_Node000001_Node000005"><a xlink:title=" ">
<path fill="none" stroke="#63b8ff" d="M266.4,-101.66C245.57,-91.92 216.66,-78.39 198.84,-70.06"/>
<polygon fill="#63b8ff" stroke="#63b8ff" points="265.07,-104.91 275.61,-105.97 268.04,-98.57 265.07,-104.91"/>
</a>
</g>
</g>
<!-- Node6 -->
<g id="Node000006" class="node">
<title>Node6</title>
<g id="a_Node000006"><a xlink:href="../../dd/d95/eiddfs_8hpp_source.html" target="_top" xlink:title=" ">
<polygon fill="white" stroke="#666666" points="284.2,-70 231.2,-70 231.2,-53 284.2,-53 284.2,-70"/>
<text text-anchor="middle" x="257.7" y="-59.6" font-family="Helvetica,sans-Serif" font-size="8.00">eiddfs.hpp</text>
</a>
</g>
</g>
<!-- Node1&#45;&gt;Node6 -->
<g id="edge8_Node000001_Node000006" class="edge">
<title>Node1&#45;&gt;Node6</title>
<g id="a_edge8_Node000001_Node000006"><a xlink:title=" ">
<path fill="none" stroke="#63b8ff" d="M281.13,-97.65C275,-88.46 267.56,-77.3 262.73,-70.06"/>
<polygon fill="#63b8ff" stroke="#63b8ff" points="278.22,-99.6 286.68,-105.97 284.04,-95.71 278.22,-99.6"/>
</a>
</g>
</g>
<!-- Node7 -->
<g id="Node000007" class="node">
<title>Node7</title>
<g id="a_Node000007"><a xlink:href="../../d4/df2/gdfs_8hpp.html" target="_top" xlink:title=" ">
<polygon fill="white" stroke="#666666" points="349.2,-70 302.2,-70 302.2,-53 349.2,-53 349.2,-70"/>
<text text-anchor="middle" x="325.7" y="-59.6" font-family="Helvetica,sans-Serif" font-size="8.00">gdfs.hpp</text>
</a>
</g>
</g>
<!-- Node1&#45;&gt;Node7 -->
<g id="edge10_Node000001_Node000007" class="edge">
<title>Node1&#45;&gt;Node7</title>
<g id="a_edge10_Node000001_Node000007"><a xlink:title=" ">
<path fill="none" stroke="#63b8ff" d="M302.26,-97.65C308.39,-88.46 315.83,-77.3 320.66,-70.06"/>
<polygon fill="#63b8ff" stroke="#63b8ff" points="299.35,-95.71 296.71,-105.97 305.17,-99.6 299.35,-95.71"/>
</a>
</g>
</g>
<!-- Node8 -->
<g id="Node000008" class="node">
<title>Node8</title>
<g id="a_Node000008"><a xlink:href="../../d9/de9/graph_8hpp.html" target="_top" xlink:title=" ">
<polygon fill="white" stroke="#666666" points="420.2,-70 367.2,-70 367.2,-53 420.2,-53 420.2,-70"/>
<text text-anchor="middle" x="393.7" y="-59.6" font-family="Helvetica,sans-Serif" font-size="8.00">graph.hpp</text>
</a>
</g>
</g>
<!-- Node1&#45;&gt;Node8 -->
<g id="edge12_Node000001_Node000008" class="edge">
<title>Node1&#45;&gt;Node8</title>
<g id="a_edge12_Node000001_Node000008"><a xlink:title=" ">
<path fill="none" stroke="#63b8ff" d="M315.9,-101.4C335.35,-91.67 362.06,-78.32 378.58,-70.06"/>
<polygon fill="#63b8ff" stroke="#63b8ff" points="314.13,-98.37 306.75,-105.97 317.26,-104.63 314.13,-98.37"/>
</a>
</g>
</g>
<!-- Node9 -->
<g id="Node000009" class="node">
<title>Node9</title>
<g id="a_Node000009"><a xlink:href="../../db/df9/idastar_8hpp_source.html" target="_top" xlink:title=" ">
<polygon fill="white" stroke="#666666" points="494.7,-70 438.7,-70 438.7,-53 494.7,-53 494.7,-70"/>
<text text-anchor="middle" x="466.7" y="-59.6" font-family="Helvetica,sans-Serif" font-size="8.00">idastar.hpp</text>
</a>
</g>
</g>
<!-- Node1&#45;&gt;Node9 -->
<g id="edge14_Node000001_Node000009" class="edge">
<title>Node1&#45;&gt;Node9</title>
<g id="a_edge14_Node000001_Node000009"><a xlink:title=" ">
<path fill="none" stroke="#63b8ff" d="M326.66,-103.31C360.35,-93.49 410.56,-78.86 440.81,-70.04"/>
<polygon fill="#63b8ff" stroke="#63b8ff" points="325.39,-100.03 316.77,-106.19 327.35,-106.76 325.39,-100.03"/>
</a>
</g>
</g>
<!-- Node10 -->
<g id="Node000010" class="node">
<title>Node10</title>
<g id="a_Node000010"><a xlink:href="../../d1/d24/idbstar_8hpp_source.html" target="_top" xlink:title=" ">
<polygon fill="white" stroke="#666666" points="568.7,-70 512.7,-70 512.7,-53 568.7,-53 568.7,-70"/>
<text text-anchor="middle" x="540.7" y="-59.6" font-family="Helvetica,sans-Serif" font-size="8.00">idbstar.hpp</text>
</a>
</g>
</g>
<!-- Node1&#45;&gt;Node10 -->
<g id="edge16_Node000001_Node000010" class="edge">
<title>Node1&#45;&gt;Node10</title>
<g id="a_edge16_Node000001_Node000010"><a xlink:title=" ">
<path fill="none" stroke="#63b8ff" d="M326.92,-106.28C376.69,-96.09 466.62,-77.67 512.34,-68.31"/>
<polygon fill="#63b8ff" stroke="#63b8ff" points="326.04,-102.89 316.94,-108.33 327.44,-109.75 326.04,-102.89"/>
</a>
</g>
</g>
<!-- Node11 -->
<g id="Node000011" class="node">
<title>Node11</title>
<g id="a_Node000011"><a xlink:href="../../df/d71/iddfs_8hpp_source.html" target="_top" xlink:title=" ">
<polygon fill="white" stroke="#666666" points="636.2,-70 587.2,-70 587.2,-53 636.2,-53 636.2,-70"/>
<text text-anchor="middle" x="611.7" y="-59.6" font-family="Helvetica,sans-Serif" font-size="8.00">iddfs.hpp</text>
</a>
</g>
</g>
<!-- Node1&#45;&gt;Node11 -->
<g id="edge18_Node000001_Node000011" class="edge">
<title>Node1&#45;&gt;Node11</title>
<g id="a_edge18_Node000001_Node000011"><a xlink:title=" ">
<path fill="none" stroke="#63b8ff" d="M327.16,-108.88C381.34,-101.64 487.89,-86.72 577.7,-70 580.67,-69.45 583.77,-68.82 586.85,-68.18"/>
<polygon fill="#63b8ff" stroke="#63b8ff" points="326.49,-105.43 317.04,-110.22 327.41,-112.37 326.49,-105.43"/>
</a>
</g>
</g>
<!-- Node3&#45;&gt;Node2 -->
<g id="edge3_Node000003_Node000002" class="edge">
<title>Node3&#45;&gt;Node2</title>
<g id="a_edge3_Node000003_Node000002"><a xlink:title=" ">
<path fill="none" stroke="#63b8ff" d="M66.55,-52.91C146.2,-35.77 228.27,-20.77 267.87,-13.7"/>
<polygon fill="#63b8ff" stroke="#63b8ff" points="65.38,-49.59 56.35,-55.12 66.86,-56.43 65.38,-49.59"/>
</a>
</g>
</g>
<!-- Node4&#45;&gt;Node2 -->
<g id="edge5_Node000004_Node000002" class="edge">
<title>Node4&#45;&gt;Node2</title>
<g id="a_edge5_Node000004_Node000002"><a xlink:title=" ">
<path fill="none" stroke="#63b8ff" d="M142.35,-50.23C179.92,-39.98 236.5,-24.55 268.14,-15.93"/>
<polygon fill="#63b8ff" stroke="#63b8ff" points="141.01,-46.97 132.29,-52.97 142.86,-53.72 141.01,-46.97"/>
</a>
</g>
</g>
<!-- Node5&#45;&gt;Node2 -->
<g id="edge7_Node000005_Node000002" class="edge">
<title>Node5&#45;&gt;Node2</title>
<g id="a_edge7_Node000005_Node000002"><a xlink:title=" ">
<path fill="none" stroke="#63b8ff" d="M207.99,-48.66C228.82,-38.92 257.73,-25.39 275.55,-17.06"/>
<polygon fill="#63b8ff" stroke="#63b8ff" points="206.35,-45.57 198.78,-52.97 209.32,-51.91 206.35,-45.57"/>
</a>
</g>
</g>
<!-- Node6&#45;&gt;Node2 -->
<g id="edge9_Node000006_Node000002" class="edge">
<title>Node6&#45;&gt;Node2</title>
<g id="a_edge9_Node000006_Node000002"><a xlink:title=" ">
<path fill="none" stroke="#63b8ff" d="M268.26,-44.65C274.39,-35.46 281.83,-24.3 286.66,-17.06"/>
<polygon fill="#63b8ff" stroke="#63b8ff" points="265.35,-42.71 262.71,-52.97 271.17,-46.6 265.35,-42.71"/>
</a>
</g>
</g>
<!-- Node7&#45;&gt;Node2 -->
<g id="edge11_Node000007_Node000002" class="edge">
<title>Node7&#45;&gt;Node2</title>
<g id="a_edge11_Node000007_Node000002"><a xlink:title=" ">
<path fill="none" stroke="#63b8ff" d="M315.13,-44.65C309,-35.46 301.56,-24.3 296.73,-17.06"/>
<polygon fill="#63b8ff" stroke="#63b8ff" points="312.22,-46.6 320.68,-52.97 318.04,-42.71 312.22,-46.6"/>
</a>
</g>
</g>
<!-- Node8&#45;&gt;Node2 -->
<g id="edge13_Node000008_Node000002" class="edge">
<title>Node8&#45;&gt;Node2</title>
<g id="a_edge13_Node000008_Node000002"><a xlink:title=" ">
<path fill="none" stroke="#63b8ff" d="M369.49,-48.4C350.04,-38.67 323.33,-25.32 306.81,-17.06"/>
<polygon fill="#63b8ff" stroke="#63b8ff" points="368.14,-51.63 378.65,-52.97 371.27,-45.37 368.14,-51.63"/>
</a>
</g>
</g>
<!-- Node9&#45;&gt;Node2 -->
<g id="edge15_Node000009_Node000002" class="edge">
<title>Node9&#45;&gt;Node2</title>
<g id="a_edge15_Node000009_Node000002"><a xlink:title=" ">
<path fill="none" stroke="#63b8ff" d="M431.18,-50.15C396.65,-40.09 345.18,-25.09 315.38,-16.4"/>
<polygon fill="#63b8ff" stroke="#63b8ff" points="430.29,-53.54 440.87,-52.97 432.25,-46.82 430.29,-53.54"/>
</a>
</g>
</g>
<!-- Node10&#45;&gt;Node2 -->
<g id="edge17_Node000010_Node000002" class="edge">
<title>Node10&#45;&gt;Node2</title>
<g id="a_edge17_Node000010_Node000002"><a xlink:title=" ">
<path fill="none" stroke="#63b8ff" d="M502.75,-52.73C450.63,-42.05 358.44,-23.17 315.25,-14.33"/>
<polygon fill="#63b8ff" stroke="#63b8ff" points="502.12,-56.17 512.62,-54.75 503.52,-49.31 502.12,-56.17"/>
</a>
</g>
</g>
<!-- Node11&#45;&gt;Node2 -->
<g id="edge19_Node000011_Node000002" class="edge">
<title>Node11&#45;&gt;Node2</title>
<g id="a_edge19_Node000011_Node000002"><a xlink:title=" ">
<path fill="none" stroke="#63b8ff" d="M576.89,-52.97C473.72,-34 363.15,-18.85 315.51,-12.58"/>
<polygon fill="#63b8ff" stroke="#63b8ff" points="576.38,-56.44 586.85,-54.82 577.66,-49.56 576.38,-56.44"/>
</a>
</g>
</g>
</g>
</svg>
