<?xml version="1.0" encoding="UTF-8" standalone="no"?>
<!DOCTYPE svg PUBLIC "-//W3C//DTD SVG 1.1//EN"
 "http://www.w3.org/Graphics/SVG/1.1/DTD/svg11.dtd">
<!-- Generated by graphviz version 2.42.4 (0)
 -->
<!-- Title: contains Pages: 1 -->
<svg width="162pt" height="43pt"
 viewBox="0.00 0.00 162.00 43.00" xmlns="http://www.w3.org/2000/svg" xmlns:xlink="http://www.w3.org/1999/xlink">
<g id="graph0" class="graph" transform="scale(1 1) rotate(0) translate(4 39)">
<title>contains</title>
<!-- Node1 -->
<g id="Node000001" class="node">
<title>Node1</title>
<g id="a_Node000001"><a xlink:title="Determines whether the provided coordinate is within the bounds of the grid.">
<polygon fill="#999999" stroke="#666666" points="46,-17 0,-17 0,0 46,0 46,-17"/>
<text text-anchor="middle" x="23" y="-6.6" font-family="Helvetica,sans-Serif" font-size="8.00">contains</text>
</a>
</g>
</g>
<!-- Node2 -->
<g id="Node000002" class="node">
<title>Node2</title>
<g id="a_Node000002"><a xlink:href="../../dd/de3/classchdr_1_1mazes_1_1grid_a0abdfb4af71cccf812fb2b7150f0cc72.html#a0abdfb4af71cccf812fb2b7150f0cc72" target="_top" xlink:title="Retrieves the neighbours of a node within the grid.">
<polygon fill="white" stroke="#666666" points="154,-17 82,-17 82,0 154,0 154,-17"/>
<text text-anchor="middle" x="118" y="-6.6" font-family="Helvetica,sans-Serif" font-size="8.00">get_neighbours</text>
</a>
</g>
</g>
<!-- Node1&#45;&gt;Node2 -->
<g id="edge1_Node000001_Node000002" class="edge">
<title>Node1&#45;&gt;Node2</title>
<g id="a_edge1_Node000001_Node000002"><a xlink:title=" ">
<path fill="none" stroke="#63b8ff" d="M46.04,-8.5C53.68,-8.5 62.56,-8.5 71.39,-8.5"/>
<polygon fill="#63b8ff" stroke="#63b8ff" points="71.67,-12 81.67,-8.5 71.67,-5 71.67,-12"/>
</a>
</g>
</g>
<!-- Node2&#45;&gt;Node2 -->
<g id="edge2_Node000002_Node000002" class="edge">
<title>Node2&#45;&gt;Node2</title>
<g id="a_edge2_Node000002_Node000002"><a xlink:title=" ">
<path fill="none" stroke="#63b8ff" d="M103.99,-17.19C96.26,-25.67 100.93,-35 118,-35 128.4,-35 134.2,-31.54 135.39,-26.91"/>
<polygon fill="#63b8ff" stroke="#63b8ff" points="138.6,-25.48 132.01,-17.19 131.99,-27.78 138.6,-25.48"/>
</a>
</g>
</g>
</g>
</svg>
