<?xml version="1.0" encoding="UTF-8" standalone="no"?>
<!DOCTYPE svg PUBLIC "-//W3C//DTD SVG 1.1//EN"
 "http://www.w3.org/Graphics/SVG/1.1/DTD/svg11.dtd">
<!-- Generated by graphviz version 2.42.4 (0)
 -->
<!-- Title: contains Pages: 1 -->
<svg width="162pt" height="78pt"
 viewBox="0.00 0.00 162.00 78.00" xmlns="http://www.w3.org/2000/svg" xmlns:xlink="http://www.w3.org/1999/xlink">
<g id="graph0" class="graph" transform="scale(1 1) rotate(0) translate(4 74)">
<title>contains</title>
<!-- Node1 -->
<g id="Node000001" class="node">
<title>Node1</title>
<g id="a_Node000001"><a xlink:title="Determines whether the given identifier is within the bounds of the grid.">
<polygon fill="#999999" stroke="#666666" points="46,-43 0,-43 0,-26 46,-26 46,-43"/>
<text text-anchor="middle" x="23" y="-32.6" font-family="Helvetica,sans-Serif" font-size="8.00">contains</text>
</a>
</g>
</g>
<!-- Node2 -->
<g id="Node000002" class="node">
<title>Node2</title>
<g id="a_Node000002"><a xlink:href="../../dd/de3/classchdr_1_1mazes_1_1grid_ad6077e456dd6abb62d82087b55dc2331.html#ad6077e456dd6abb62d82087b55dc2331" target="_top" xlink:title="Retrieves the total count of elements in the grid.">
<polygon fill="white" stroke="#666666" points="136,-70 100,-70 100,-53 136,-53 136,-70"/>
<text text-anchor="middle" x="118" y="-59.6" font-family="Helvetica,sans-Serif" font-size="8.00">count</text>
</a>
</g>
</g>
<!-- Node1&#45;&gt;Node2 -->
<g id="edge1_Node000001_Node000002" class="edge">
<title>Node1&#45;&gt;Node2</title>
<g id="a_edge1_Node000001_Node000002"><a xlink:title=" ">
<path fill="none" stroke="#63b8ff" d="M46.04,-40.9C59.14,-44.7 75.85,-49.55 89.77,-53.6"/>
<polygon fill="#63b8ff" stroke="#63b8ff" points="89.19,-57.07 99.76,-56.5 91.14,-50.35 89.19,-57.07"/>
</a>
</g>
</g>
<!-- Node3 -->
<g id="Node000003" class="node">
<title>Node3</title>
<g id="a_Node000003"><a xlink:href="../../dd/de3/classchdr_1_1mazes_1_1grid_a0abdfb4af71cccf812fb2b7150f0cc72.html#a0abdfb4af71cccf812fb2b7150f0cc72" target="_top" xlink:title="Retrieves the neighbours of a node within the grid.">
<polygon fill="white" stroke="#666666" points="154,-17 82,-17 82,0 154,0 154,-17"/>
<text text-anchor="middle" x="118" y="-6.6" font-family="Helvetica,sans-Serif" font-size="8.00">get_neighbours</text>
</a>
</g>
</g>
<!-- Node1&#45;&gt;Node3 -->
<g id="edge2_Node000001_Node000003" class="edge">
<title>Node1&#45;&gt;Node3</title>
<g id="a_edge2_Node000001_Node000003"><a xlink:title=" ">
<path fill="none" stroke="#63b8ff" d="M46.04,-28.34C55.16,-25.79 66.03,-22.75 76.49,-19.83"/>
<polygon fill="#63b8ff" stroke="#63b8ff" points="77.63,-23.14 86.32,-17.08 75.75,-16.4 77.63,-23.14"/>
</a>
</g>
</g>
<!-- Node3&#45;&gt;Node3 -->
<g id="edge3_Node000003_Node000003" class="edge">
<title>Node3&#45;&gt;Node3</title>
<g id="a_edge3_Node000003_Node000003"><a xlink:title=" ">
<path fill="none" stroke="#63b8ff" d="M103.99,-17.19C96.26,-25.67 100.93,-35 118,-35 128.4,-35 134.2,-31.54 135.39,-26.91"/>
<polygon fill="#63b8ff" stroke="#63b8ff" points="138.6,-25.48 132.01,-17.19 131.99,-27.78 138.6,-25.48"/>
</a>
</g>
</g>
</g>
</svg>
