<?xml version="1.0" encoding="UTF-8" standalone="no"?>
<!DOCTYPE svg PUBLIC "-//W3C//DTD SVG 1.1//EN"
 "http://www.w3.org/Graphics/SVG/1.1/DTD/svg11.dtd">
<!-- Generated by graphviz version 2.42.4 (0)
 -->
<!-- Title: get_neighbours Pages: 1 -->
<svg width="210pt" height="60pt"
 viewBox="0.00 0.00 210.00 60.00" xmlns="http://www.w3.org/2000/svg" xmlns:xlink="http://www.w3.org/1999/xlink">
<g id="graph0" class="graph" transform="scale(1 1) rotate(0) translate(4 56)">
<title>get_neighbours</title>
<!-- Node1 -->
<g id="Node000001" class="node">
<title>Node1</title>
<g id="a_Node000001"><a xlink:title="Retrieves the neighbours of a node within the grid.">
<polygon fill="#999999" stroke="#666666" points="80,-34 0,-34 0,-17 80,-17 80,-34"/>
<text text-anchor="middle" x="40" y="-23.6" font-family="Helvetica,sans-Serif" font-size="8.00">get_neighbours</text>
</a>
</g>
</g>
<!-- Node2 -->
<g id="Node000002" class="node">
<title>Node2</title>
<g id="a_Node000002"><a xlink:href="../../dd/de3/classchdr_1_1mazes_1_1grid_a32d34adb7833cb15aa705c6c7ada57a8.html#a32d34adb7833cb15aa705c6c7ada57a8" target="_top" xlink:title="Retrieves the size of the grid.">
<polygon fill="white" stroke="#666666" points="175.5,-52 142.5,-52 142.5,-35 175.5,-35 175.5,-52"/>
<text text-anchor="middle" x="159" y="-41.6" font-family="Helvetica,sans-Serif" font-size="8.00">size</text>
</a>
</g>
</g>
<!-- Node1&#45;&gt;Node2 -->
<g id="edge1_Node000001_Node000002" class="edge">
<title>Node1&#45;&gt;Node2</title>
<g id="a_edge1_Node000001_Node000002"><a xlink:title=" ">
<path fill="none" stroke="#63b8ff" d="M80.28,-31.54C97.38,-34.17 116.94,-37.18 132.15,-39.52"/>
<polygon fill="#63b8ff" stroke="#63b8ff" points="131.96,-43.03 142.37,-41.1 133.02,-36.12 131.96,-43.03"/>
</a>
</g>
</g>
<!-- Node3 -->
<g id="Node000003" class="node">
<title>Node3</title>
<g id="a_Node000003"><a xlink:href="../../d2/dcb/structchdr_1_1utils_aa56b3789fceb847816a4fef606f80dfb.html#aa56b3789fceb847816a4fef606f80dfb" target="_top" xlink:title="Maps a one&#45;dimensional index to a multidimensional coordinate representation.">
<polygon fill="white" stroke="#666666" points="202,-17 116,-17 116,0 202,0 202,-17"/>
<text text-anchor="middle" x="159" y="-6.6" font-family="Helvetica,sans-Serif" font-size="8.00">chdr::utils::to_nd</text>
</a>
</g>
</g>
<!-- Node1&#45;&gt;Node3 -->
<g id="edge2_Node000001_Node000003" class="edge">
<title>Node1&#45;&gt;Node3</title>
<g id="a_edge2_Node000001_Node000003"><a xlink:title=" ">
<path fill="none" stroke="#63b8ff" d="M80.28,-19.79C88.49,-18.6 97.27,-17.32 105.86,-16.08"/>
<polygon fill="#63b8ff" stroke="#63b8ff" points="106.42,-19.53 115.81,-14.63 105.41,-12.6 106.42,-19.53"/>
</a>
</g>
</g>
</g>
</svg>
