<?xml version="1.0" encoding="UTF-8" standalone="no"?>
<!DOCTYPE svg PUBLIC "-//W3C//DTD SVG 1.1//EN"
 "http://www.w3.org/Graphics/SVG/1.1/DTD/svg11.dtd">
<!-- Generated by graphviz version 2.43.0 (0)
 -->
<!-- Title: operator[] Pages: 1 -->
<svg width="236pt" height="43pt"
 viewBox="0.00 0.00 236.00 43.00" xmlns="http://www.w3.org/2000/svg" xmlns:xlink="http://www.w3.org/1999/xlink">
<g id="graph0" class="graph" transform="scale(1 1) rotate(0) translate(4 39)">
<title>operator[]</title>
<!-- Node1 -->
<g id="Node000001" class="node">
<title>Node1</title>
<g id="a_Node000001"><a xlink:title="Provides a reference access to the element at the specified index.">
<polygon fill="#999999" stroke="#666666" points="52,-17 0,-17 0,0 52,0 52,-17"/>
<text text-anchor="middle" x="26" y="-6.6" font-family="Helvetica,sans-Serif" font-size="8.00">operator[]</text>
</a>
</g>
</g>
<!-- Node2 -->
<g id="Node000002" class="node">
<title>Node2</title>
<g id="a_Node000002"><a xlink:href="../../dd/de3/classchdr_1_1mazes_1_1grid_a2c953e28d925a8042220b3abe9023479.html#a2c953e28d925a8042220b3abe9023479" target="_top" xlink:title="Retrieves the node at a specified coordinate.">
<polygon fill="white" stroke="#666666" points="117,-17 88,-17 88,0 117,0 117,-17"/>
<text text-anchor="middle" x="102.5" y="-6.6" font-family="Helvetica,sans-Serif" font-size="8.00">at</text>
</a>
</g>
</g>
<!-- Node1&#45;&gt;Node2 -->
<g id="edge1_Node000001_Node000002" class="edge">
<title>Node1&#45;&gt;Node2</title>
<g id="a_edge1_Node000001_Node000002"><a xlink:title=" ">
<path fill="none" stroke="#63b8ff" d="M52.22,-8.5C60.35,-8.5 69.33,-8.5 77.37,-8.5"/>
<polygon fill="#63b8ff" stroke="#63b8ff" points="77.6,-12 87.6,-8.5 77.6,-5 77.6,-12"/>
</a>
</g>
</g>
<!-- Node2&#45;&gt;Node2 -->
<g id="edge2_Node000002_Node000002" class="edge">
<title>Node2&#45;&gt;Node2</title>
<g id="a_edge2_Node000002_Node000002"><a xlink:title=" ">
<path fill="none" stroke="#63b8ff" d="M91.18,-17.19C84.92,-25.67 88.7,-35 102.5,-35 110.91,-35 115.6,-31.54 116.56,-26.91"/>
<polygon fill="#63b8ff" stroke="#63b8ff" points="119.9,-25.86 113.82,-17.19 113.17,-27.76 119.9,-25.86"/>
</a>
</g>
</g>
<!-- Node3 -->
<g id="Node000003" class="node">
<title>Node3</title>
<g id="a_Node000003"><a xlink:href="../../d2/dcb/structchdr_1_1utils_a5741e93a4c4f5630e7c86bda862cf611.html#a5741e93a4c4f5630e7c86bda862cf611" target="_top" xlink:title="Maps a multi&#45;dimensional index to a one&#45;dimensional array index.">
<polygon fill="white" stroke="#666666" points="228,-17 153,-17 153,0 228,0 228,-17"/>
<text text-anchor="middle" x="190.5" y="-6.6" font-family="Helvetica,sans-Serif" font-size="8.00">chdr::utils::to_1d</text>
</a>
</g>
</g>
<!-- Node2&#45;&gt;Node3 -->
<g id="edge3_Node000002_Node000003" class="edge">
<title>Node2&#45;&gt;Node3</title>
<g id="a_edge3_Node000002_Node000003"><a xlink:title=" ">
<path fill="none" stroke="#63b8ff" d="M117.32,-8.5C124.36,-8.5 133.38,-8.5 142.64,-8.5"/>
<polygon fill="#63b8ff" stroke="#63b8ff" points="142.71,-12 152.71,-8.5 142.71,-5 142.71,-12"/>
</a>
</g>
</g>
</g>
</svg>
