<?xml version="1.0" encoding="UTF-8" standalone="no"?>
<!DOCTYPE svg PUBLIC "-//W3C//DTD SVG 1.1//EN"
 "http://www.w3.org/Graphics/SVG/1.1/DTD/svg11.dtd">
<!-- Generated by graphviz version 2.42.4 (0)
 -->
<!-- Title: size Pages: 1 -->
<svg width="272pt" height="60pt"
 viewBox="0.00 0.00 272.00 60.00" xmlns="http://www.w3.org/2000/svg" xmlns:xlink="http://www.w3.org/1999/xlink">
<g id="graph0" class="graph" transform="scale(1 1) rotate(0) translate(4 56)">
<title>size</title>
<!-- Node1 -->
<g id="Node000001" class="node">
<title>Node1</title>
<g id="a_Node000001"><a xlink:title="Retrieves the size of the grid.">
<polygon fill="#999999" stroke="#666666" points="264,-34 234,-34 234,-17 264,-17 264,-34"/>
<text text-anchor="middle" x="249" y="-23.6" font-family="Helvetica,sans-Serif" font-size="8.00">size</text>
</a>
</g>
</g>
<!-- Node2 -->
<g id="Node000002" class="node">
<title>Node2</title>
<g id="a_Node000002"><a xlink:href="../../dd/de3/classchdr_1_1mazes_1_1grid_a687d32619ba5c3eea0a9ab1ac599ffb8.html#a687d32619ba5c3eea0a9ab1ac599ffb8" target="_top" xlink:title="Retrieves the neighbours of a node within the grid.">
<polygon fill="white" stroke="#666666" points="135,-52 63,-52 63,-35 135,-35 135,-52"/>
<text text-anchor="middle" x="99" y="-41.6" font-family="Helvetica,sans-Serif" font-size="8.00">get_neighbours</text>
</a>
</g>
</g>
<!-- Node1&#45;&gt;Node2 -->
<g id="edge1_Node000001_Node000002" class="edge">
<title>Node1&#45;&gt;Node2</title>
<g id="a_edge1_Node000001_Node000002"><a xlink:title=" ">
<path fill="none" stroke="#63b8ff" d="M223.76,-28.45C199.71,-31.37 162.59,-35.89 135.27,-39.21"/>
<polygon fill="#63b8ff" stroke="#63b8ff" points="224.3,-31.91 233.81,-27.23 223.46,-24.96 224.3,-31.91"/>
</a>
</g>
</g>
<!-- Node3 -->
<g id="Node000003" class="node">
<title>Node3</title>
<g id="a_Node000003"><a xlink:href="../../de/de1/classchdr_1_1mazes_1_1grid_3_01coord__t_00_01bool_01_4_a687d32619ba5c3eea0a9ab1ac599ffb8.html#a687d32619ba5c3eea0a9ab1ac599ffb8" target="_top" xlink:title="Retrieves the neighbours of a node within the grid.">
<polygon fill="white" stroke="#666666" points="198,-17 0,-17 0,0 198,0 198,-17"/>
<text text-anchor="middle" x="99" y="-6.6" font-family="Helvetica,sans-Serif" font-size="8.00">chdr::mazes::grid&lt; coord_t, bool &gt;::get_neighbours</text>
</a>
</g>
</g>
<!-- Node1&#45;&gt;Node3 -->
<g id="edge2_Node000001_Node000003" class="edge">
<title>Node1&#45;&gt;Node3</title>
<g id="a_edge2_Node000001_Node000003"><a xlink:title=" ">
<path fill="none" stroke="#63b8ff" d="M223.81,-22.72C210.09,-21.15 192.12,-19.08 174.14,-17.02"/>
<polygon fill="#63b8ff" stroke="#63b8ff" points="223.48,-26.21 233.81,-23.87 224.27,-19.25 223.48,-26.21"/>
</a>
</g>
</g>
</g>
</svg>
