<?xml version="1.0" encoding="UTF-8" standalone="no"?>
<!DOCTYPE svg PUBLIC "-//W3C//DTD SVG 1.1//EN"
 "http://www.w3.org/Graphics/SVG/1.1/DTD/svg11.dtd">
<!-- Generated by graphviz version 2.43.0 (0)
 -->
<!-- Title: at Pages: 1 -->
<svg width="125pt" height="43pt"
 viewBox="0.00 0.00 125.00 43.00" xmlns="http://www.w3.org/2000/svg" xmlns:xlink="http://www.w3.org/1999/xlink">
<g id="graph0" class="graph" transform="scale(1 1) rotate(0) translate(4 39)">
<title>at</title>
<!-- Node1 -->
<g id="Node000001" class="node">
<title>Node1</title>
<g id="a_Node000001"><a xlink:title="Retrieves the node at a specified coordinate.">
<polygon fill="#999999" stroke="#666666" points="117,-17 88,-17 88,0 117,0 117,-17"/>
<text text-anchor="middle" x="102.5" y="-6.6" font-family="Helvetica,sans-Serif" font-size="8.00">at</text>
</a>
</g>
</g>
<!-- Node1&#45;&gt;Node1 -->
<g id="edge1_Node000001_Node000001" class="edge">
<title>Node1&#45;&gt;Node1</title>
<g id="a_edge1_Node000001_Node000001"><a xlink:title=" ">
<path fill="none" stroke="#63b8ff" d="M116.56,-26.91C115.6,-31.54 110.91,-35 102.5,-35 88.7,-35 84.92,-25.67 91.18,-17.19"/>
<polygon fill="#63b8ff" stroke="#63b8ff" points="119.9,-25.86 113.82,-17.19 113.17,-27.76 119.9,-25.86"/>
</a>
</g>
</g>
<!-- Node2 -->
<g id="Node000002" class="node">
<title>Node2</title>
<g id="a_Node000002"><a xlink:href="../../dd/de3/classchdr_1_1mazes_1_1grid_a943b441c52cc08ef04269321f14cc1f9.html#a943b441c52cc08ef04269321f14cc1f9" target="_top" xlink:title="Provides a reference access to the element at the specified index.">
<polygon fill="white" stroke="#666666" points="52,-17 0,-17 0,0 52,0 52,-17"/>
<text text-anchor="middle" x="26" y="-6.6" font-family="Helvetica,sans-Serif" font-size="8.00">operator[]</text>
</a>
</g>
</g>
<!-- Node1&#45;&gt;Node2 -->
<g id="edge2_Node000001_Node000002" class="edge">
<title>Node1&#45;&gt;Node2</title>
<g id="a_edge2_Node000001_Node000002"><a xlink:title=" ">
<path fill="none" stroke="#63b8ff" d="M77.79,-8.5C69.57,-8.5 60.35,-8.5 52.03,-8.5"/>
<polygon fill="#63b8ff" stroke="#63b8ff" points="77.84,-12 87.84,-8.5 77.84,-5 77.84,-12"/>
</a>
</g>
</g>
</g>
</svg>
