<?xml version="1.0" encoding="UTF-8" standalone="no"?>
<!DOCTYPE svg PUBLIC "-//W3C//DTD SVG 1.1//EN"
 "http://www.w3.org/Graphics/SVG/1.1/DTD/svg11.dtd">
<!-- Generated by graphviz version 2.42.4 (0)
 -->
<!-- Title: operator[] Pages: 1 -->
<svg width="259pt" height="88pt"
 viewBox="0.00 0.00 259.00 88.00" xmlns="http://www.w3.org/2000/svg" xmlns:xlink="http://www.w3.org/1999/xlink">
<g id="graph0" class="graph" transform="scale(1 1) rotate(0) translate(4 84)">
<title>operator[]</title>
<!-- Node1 -->
<g id="Node000001" class="node">
<title>Node1</title>
<g id="a_Node000001"><a xlink:title="Retrieves the node at a specified index.">
<polygon fill="#999999" stroke="#666666" points="52,-44 0,-44 0,-27 52,-27 52,-44"/>
<text text-anchor="middle" x="26" y="-33.6" font-family="Helvetica,sans-Serif" font-size="8.00">operator[]</text>
</a>
</g>
</g>
<!-- Node2 -->
<g id="Node000002" class="node">
<title>Node2</title>
<g id="a_Node000002"><a xlink:href="../../dd/de3/classchdr_1_1mazes_1_1grid_a0abdfb4af71cccf812fb2b7150f0cc72.html#a0abdfb4af71cccf812fb2b7150f0cc72" target="_top" xlink:title="Retrieves the neighbours of a node within the grid.">
<polygon fill="white" stroke="#666666" points="249.5,-62 177.5,-62 177.5,-45 249.5,-45 249.5,-62"/>
<text text-anchor="middle" x="213.5" y="-51.6" font-family="Helvetica,sans-Serif" font-size="8.00">get_neighbours</text>
</a>
</g>
</g>
<!-- Node1&#45;&gt;Node2 -->
<g id="edge1_Node000001_Node000002" class="edge">
<title>Node1&#45;&gt;Node2</title>
<g id="a_edge1_Node000001_Node000002"><a xlink:title=" ">
<path fill="none" stroke="#63b8ff" d="M52.17,-39.64C63.15,-41.34 76.19,-43.2 88,-44.5 114.18,-47.37 143.55,-49.55 167.2,-51.04"/>
<polygon fill="#63b8ff" stroke="#63b8ff" points="167.09,-54.54 177.29,-51.65 167.52,-47.55 167.09,-54.54"/>
</a>
</g>
</g>
<!-- Node3 -->
<g id="Node000003" class="node">
<title>Node3</title>
<g id="a_Node000003"><a xlink:href="../../dd/de3/classchdr_1_1mazes_1_1grid_ad8b85d86fc073f5557471a856975a9a2.html#ad8b85d86fc073f5557471a856975a9a2" target="_top" xlink:title="Retrieves the node at a specified coordinate.">
<polygon fill="white" stroke="#666666" points="140,-17 88,-17 88,0 140,0 140,-17"/>
<text text-anchor="middle" x="114" y="-6.6" font-family="Helvetica,sans-Serif" font-size="8.00">operator[]</text>
</a>
</g>
</g>
<!-- Node1&#45;&gt;Node3 -->
<g id="edge3_Node000001_Node000003" class="edge">
<title>Node1&#45;&gt;Node3</title>
<g id="a_edge3_Node000001_Node000003"><a xlink:title=" ">
<path fill="none" stroke="#63b8ff" d="M52.34,-27.55C60.39,-25.02 69.43,-22.18 78.04,-19.48"/>
<polygon fill="#63b8ff" stroke="#63b8ff" points="79.35,-22.73 87.84,-16.4 77.25,-16.05 79.35,-22.73"/>
</a>
</g>
</g>
<!-- Node2&#45;&gt;Node2 -->
<g id="edge2_Node000002_Node000002" class="edge">
<title>Node2&#45;&gt;Node2</title>
<g id="a_edge2_Node000002_Node000002"><a xlink:title=" ">
<path fill="none" stroke="#63b8ff" d="M198.9,-62.19C190.83,-70.67 195.7,-80 213.5,-80 224.63,-80 230.7,-76.36 231.72,-71.55"/>
<polygon fill="#63b8ff" stroke="#63b8ff" points="234.97,-70.25 228.1,-62.19 228.44,-72.78 234.97,-70.25"/>
</a>
</g>
</g>
<!-- Node3&#45;&gt;Node2 -->
<g id="edge4_Node000003_Node000002" class="edge">
<title>Node3&#45;&gt;Node2</title>
<g id="a_edge4_Node000003_Node000002"><a xlink:title=" ">
<path fill="none" stroke="#63b8ff" d="M133.8,-17.18C148.1,-23.78 168.01,-32.96 184.22,-40.45"/>
<polygon fill="#63b8ff" stroke="#63b8ff" points="183.21,-43.84 193.76,-44.85 186.15,-37.48 183.21,-43.84"/>
</a>
</g>
</g>
<!-- Node3&#45;&gt;Node3 -->
<g id="edge5_Node000003_Node000003" class="edge">
<title>Node3&#45;&gt;Node3</title>
<g id="a_edge5_Node000003_Node000003"><a xlink:title=" ">
<path fill="none" stroke="#63b8ff" d="M100.89,-17.19C93.64,-25.67 98.02,-35 114,-35 123.74,-35 129.17,-31.54 130.28,-26.91"/>
<polygon fill="#63b8ff" stroke="#63b8ff" points="133.54,-25.61 127.11,-17.19 126.89,-27.78 133.54,-25.61"/>
</a>
</g>
</g>
<!-- Node4 -->
<g id="Node000004" class="node">
<title>Node4</title>
<g id="a_Node000004"><a xlink:href="../../d2/dcb/structchdr_1_1utils_a5741e93a4c4f5630e7c86bda862cf611.html#a5741e93a4c4f5630e7c86bda862cf611" target="_top" xlink:title="Maps a multidimensional index to a one&#45;dimensional array index.">
<polygon fill="white" stroke="#666666" points="251,-17 176,-17 176,0 251,0 251,-17"/>
<text text-anchor="middle" x="213.5" y="-6.6" font-family="Helvetica,sans-Serif" font-size="8.00">chdr::utils::to_1d</text>
</a>
</g>
</g>
<!-- Node3&#45;&gt;Node4 -->
<g id="edge6_Node000003_Node000004" class="edge">
<title>Node3&#45;&gt;Node4</title>
<g id="a_edge6_Node000003_Node000004"><a xlink:title=" ">
<path fill="none" stroke="#63b8ff" d="M140.11,-8.5C147.9,-8.5 156.74,-8.5 165.51,-8.5"/>
<polygon fill="#63b8ff" stroke="#63b8ff" points="165.71,-12 175.71,-8.5 165.71,-5 165.71,-12"/>
</a>
</g>
</g>
</g>
</svg>
