<?xml version="1.0" encoding="UTF-8" standalone="no"?>
<!DOCTYPE svg PUBLIC "-//W3C//DTD SVG 1.1//EN"
 "http://www.w3.org/Graphics/SVG/1.1/DTD/svg11.dtd">
<!-- Generated by graphviz version 2.42.4 (0)
 -->
<!-- Title: operator[] Pages: 1 -->
<svg width="171pt" height="78pt"
 viewBox="0.00 0.00 171.00 78.00" xmlns="http://www.w3.org/2000/svg" xmlns:xlink="http://www.w3.org/1999/xlink">
<g id="graph0" class="graph" transform="scale(1 1) rotate(0) translate(4 74)">
<title>operator[]</title>
<!-- Node1 -->
<g id="Node000001" class="node">
<title>Node1</title>
<g id="a_Node000001"><a xlink:title="Retrieves the node at a specified coordinate.">
<polygon fill="#999999" stroke="#666666" points="52,-34 0,-34 0,-17 52,-17 52,-34"/>
<text text-anchor="middle" x="26" y="-23.6" font-family="Helvetica,sans-Serif" font-size="8.00">operator[]</text>
</a>
</g>
</g>
<!-- Node1&#45;&gt;Node1 -->
<g id="edge3_Node000001_Node000001" class="edge">
<title>Node1&#45;&gt;Node1</title>
<g id="a_edge3_Node000001_Node000001"><a xlink:title=" ">
<path fill="none" stroke="#63b8ff" d="M11.4,-34.19C3.33,-42.67 8.2,-52 26,-52 37.13,-52 43.2,-48.36 44.22,-43.55"/>
<polygon fill="#63b8ff" stroke="#63b8ff" points="47.47,-42.25 40.6,-34.19 40.94,-44.78 47.47,-42.25"/>
</a>
</g>
</g>
<!-- Node2 -->
<g id="Node000002" class="node">
<title>Node2</title>
<g id="a_Node000002"><a xlink:href="../../dd/de3/classchdr_1_1mazes_1_1grid_a0abdfb4af71cccf812fb2b7150f0cc72.html#a0abdfb4af71cccf812fb2b7150f0cc72" target="_top" xlink:title="Retrieves the neighbours of a node within the grid.">
<polygon fill="white" stroke="#666666" points="161.5,-52 89.5,-52 89.5,-35 161.5,-35 161.5,-52"/>
<text text-anchor="middle" x="125.5" y="-41.6" font-family="Helvetica,sans-Serif" font-size="8.00">get_neighbours</text>
</a>
</g>
</g>
<!-- Node1&#45;&gt;Node2 -->
<g id="edge1_Node000001_Node000002" class="edge">
<title>Node1&#45;&gt;Node2</title>
<g id="a_edge1_Node000001_Node000002"><a xlink:title=" ">
<path fill="none" stroke="#63b8ff" d="M52.11,-30.14C60.4,-31.67 69.89,-33.42 79.21,-35.14"/>
<polygon fill="#63b8ff" stroke="#63b8ff" points="78.72,-38.61 89.19,-36.98 79.99,-31.72 78.72,-38.61"/>
</a>
</g>
</g>
<!-- Node3 -->
<g id="Node000003" class="node">
<title>Node3</title>
<g id="a_Node000003"><a xlink:href="../../d2/dcb/structchdr_1_1utils_a5741e93a4c4f5630e7c86bda862cf611.html#a5741e93a4c4f5630e7c86bda862cf611" target="_top" xlink:title="Maps a multidimensional index to a one&#45;dimensional array index.">
<polygon fill="white" stroke="#666666" points="163,-17 88,-17 88,0 163,0 163,-17"/>
<text text-anchor="middle" x="125.5" y="-6.6" font-family="Helvetica,sans-Serif" font-size="8.00">chdr::utils::to_1d</text>
</a>
</g>
</g>
<!-- Node1&#45;&gt;Node3 -->
<g id="edge4_Node000001_Node000003" class="edge">
<title>Node1&#45;&gt;Node3</title>
<g id="a_edge4_Node000001_Node000003"><a xlink:title=" ">
<path fill="none" stroke="#63b8ff" d="M52.11,-21.12C59.98,-19.75 68.94,-18.19 77.8,-16.64"/>
<polygon fill="#63b8ff" stroke="#63b8ff" points="78.46,-20.08 87.71,-14.91 77.26,-13.18 78.46,-20.08"/>
</a>
</g>
</g>
<!-- Node2&#45;&gt;Node2 -->
<g id="edge2_Node000002_Node000002" class="edge">
<title>Node2&#45;&gt;Node2</title>
<g id="a_edge2_Node000002_Node000002"><a xlink:title=" ">
<path fill="none" stroke="#63b8ff" d="M110.9,-52.19C102.83,-60.67 107.7,-70 125.5,-70 136.63,-70 142.7,-66.36 143.72,-61.55"/>
<polygon fill="#63b8ff" stroke="#63b8ff" points="146.97,-60.25 140.1,-52.19 140.44,-62.78 146.97,-60.25"/>
</a>
</g>
</g>
</g>
</svg>
