<?xml version="1.0" encoding="UTF-8" standalone="no"?>
<!DOCTYPE svg PUBLIC "-//W3C//DTD SVG 1.1//EN"
 "http://www.w3.org/Graphics/SVG/1.1/DTD/svg11.dtd">
<!-- Generated by graphviz version 2.42.4 (0)
 -->
<!-- Title: nodes Pages: 1 -->
<svg width="154pt" height="43pt"
 viewBox="0.00 0.00 154.00 43.00" xmlns="http://www.w3.org/2000/svg" xmlns:xlink="http://www.w3.org/1999/xlink">
<g id="graph0" class="graph" transform="scale(1 1) rotate(0) translate(4 39)">
<title>nodes</title>
<!-- Node1 -->
<g id="Node000001" class="node">
<title>Node1</title>
<g id="a_Node000001"><a xlink:title="Sets the nodes for the grid.">
<polygon fill="#999999" stroke="#666666" points="38,-17 0,-17 0,0 38,0 38,-17"/>
<text text-anchor="middle" x="19" y="-6.6" font-family="Helvetica,sans-Serif" font-size="8.00">nodes</text>
</a>
</g>
</g>
<!-- Node2 -->
<g id="Node000002" class="node">
<title>Node2</title>
<g id="a_Node000002"><a xlink:href="../../dd/de3/classchdr_1_1mazes_1_1grid_a0abdfb4af71cccf812fb2b7150f0cc72.html#a0abdfb4af71cccf812fb2b7150f0cc72" target="_top" xlink:title="Retrieves the neighbours of a node within the grid.">
<polygon fill="white" stroke="#666666" points="146,-17 74,-17 74,0 146,0 146,-17"/>
<text text-anchor="middle" x="110" y="-6.6" font-family="Helvetica,sans-Serif" font-size="8.00">get_neighbours</text>
</a>
</g>
</g>
<!-- Node1&#45;&gt;Node2 -->
<g id="edge1_Node000001_Node000002" class="edge">
<title>Node1&#45;&gt;Node2</title>
<g id="a_edge1_Node000001_Node000002"><a xlink:title=" ">
<path fill="none" stroke="#63b8ff" d="M38.01,-8.5C45.47,-8.5 54.48,-8.5 63.55,-8.5"/>
<polygon fill="#63b8ff" stroke="#63b8ff" points="63.73,-12 73.72,-8.5 63.72,-5 63.73,-12"/>
</a>
</g>
</g>
<!-- Node2&#45;&gt;Node2 -->
<g id="edge2_Node000002_Node000002" class="edge">
<title>Node2&#45;&gt;Node2</title>
<g id="a_edge2_Node000002_Node000002"><a xlink:title=" ">
<path fill="none" stroke="#63b8ff" d="M96.59,-17.19C89.18,-25.67 93.65,-35 110,-35 119.96,-35 125.51,-31.54 126.65,-26.91"/>
<polygon fill="#63b8ff" stroke="#63b8ff" points="129.89,-25.56 123.41,-17.19 123.25,-27.78 129.89,-25.56"/>
</a>
</g>
</g>
</g>
</svg>
