<?xml version="1.0" encoding="UTF-8" standalone="no"?>
<!DOCTYPE svg PUBLIC "-//W3C//DTD SVG 1.1//EN"
 "http://www.w3.org/Graphics/SVG/1.1/DTD/svg11.dtd">
<!-- Generated by graphviz version 2.43.0 (0)
 -->
<!-- Title: get_neighbours Pages: 1 -->
<svg width="301pt" height="60pt"
 viewBox="0.00 0.00 301.00 60.00" xmlns="http://www.w3.org/2000/svg" xmlns:xlink="http://www.w3.org/1999/xlink">
<g id="graph0" class="graph" transform="scale(1 1) rotate(0) translate(4 56)">
<title>get_neighbours</title>
<!-- Node1 -->
<g id="Node000001" class="node">
<title>Node1</title>
<g id="a_Node000001"><a xlink:title="Retrieves the neighbours of a node within the grid.">
<polygon fill="#999999" stroke="#666666" points="293,-34 221,-34 221,-17 293,-17 293,-34"/>
<text text-anchor="middle" x="257" y="-23.6" font-family="Helvetica,sans-Serif" font-size="8.00">get_neighbours</text>
</a>
</g>
</g>
<!-- Node2 -->
<g id="Node000002" class="node">
<title>Node2</title>
<g id="a_Node000002"><a xlink:href="../../dd/de3/classchdr_1_1mazes_1_1grid_a264c48c1d975bf357e96edcb92331ad2.html#a264c48c1d975bf357e96edcb92331ad2" target="_top" xlink:title="Determines whether a cell at the given index is transitory.">
<polygon fill="white" stroke="#666666" points="122,-52 63,-52 63,-35 122,-35 122,-52"/>
<text text-anchor="middle" x="92.5" y="-41.6" font-family="Helvetica,sans-Serif" font-size="8.00">is_transitory</text>
</a>
</g>
</g>
<!-- Node1&#45;&gt;Node2 -->
<g id="edge1_Node000001_Node000002" class="edge">
<title>Node1&#45;&gt;Node2</title>
<g id="a_edge1_Node000001_Node000002"><a xlink:title=" ">
<path fill="none" stroke="#63b8ff" d="M210.66,-30.52C182.32,-33.66 146.68,-37.61 122.2,-40.32"/>
<polygon fill="#63b8ff" stroke="#63b8ff" points="211.19,-33.99 220.74,-29.41 210.42,-27.03 211.19,-33.99"/>
</a>
</g>
</g>
<!-- Node3 -->
<g id="Node000003" class="node">
<title>Node3</title>
<g id="a_Node000003"><a xlink:href="../../de/de1/classchdr_1_1mazes_1_1grid_3_01coord__t_00_01bool_01_4_a264c48c1d975bf357e96edcb92331ad2.html#a264c48c1d975bf357e96edcb92331ad2" target="_top" xlink:title="Determines whether a cell at the given index is transitory.">
<polygon fill="white" stroke="#666666" points="185,-17 0,-17 0,0 185,0 185,-17"/>
<text text-anchor="middle" x="92.5" y="-6.6" font-family="Helvetica,sans-Serif" font-size="8.00">chdr::mazes::grid&lt; coord_t, bool &gt;::is_transitory</text>
</a>
</g>
</g>
<!-- Node1&#45;&gt;Node3 -->
<g id="edge2_Node000001_Node000003" class="edge">
<title>Node1&#45;&gt;Node3</title>
<g id="a_edge2_Node000001_Node000003"><a xlink:title=" ">
<path fill="none" stroke="#63b8ff" d="M210.49,-20.74C199.42,-19.58 187.23,-18.31 175.04,-17.03"/>
<polygon fill="#63b8ff" stroke="#63b8ff" points="210.43,-24.25 220.74,-21.81 211.16,-17.29 210.43,-24.25"/>
</a>
</g>
</g>
</g>
</svg>
