<?xml version="1.0" encoding="UTF-8" standalone="no"?>
<!DOCTYPE svg PUBLIC "-//W3C//DTD SVG 1.1//EN"
 "http://www.w3.org/Graphics/SVG/1.1/DTD/svg11.dtd">
<!-- Generated by graphviz version 2.42.4 (0)
 -->
<!-- Title: get_neighbours Pages: 1 -->
<svg width="528pt" height="845pt"
 viewBox="0.00 0.00 528.00 844.95" xmlns="http://www.w3.org/2000/svg" xmlns:xlink="http://www.w3.org/1999/xlink">
<g id="graph0" class="graph" transform="scale(1 1) rotate(0) translate(4 840.95)">
<title>get_neighbours</title>
<!-- Node1 -->
<g id="Node000001" class="node">
<title>Node1</title>
<g id="a_Node000001"><a xlink:title="Retrieves the neighbours of a node within the grid.">
<polygon fill="#999999" stroke="#666666" points="520,-443.95 448,-443.95 448,-426.95 520,-426.95 520,-443.95"/>
<text text-anchor="middle" x="484" y="-433.55" font-family="Helvetica,sans-Serif" font-size="8.00">get_neighbours</text>
</a>
</g>
</g>
<!-- Node1&#45;&gt;Node1 -->
<g id="edge11_Node000001_Node000001" class="edge">
<title>Node1&#45;&gt;Node1</title>
<g id="a_edge11_Node000001_Node000001"><a xlink:title=" ">
<path fill="none" stroke="#63b8ff" d="M515.87,-452.02C515.85,-457.54 505.23,-461.95 484,-461.95 453.12,-461.95 444.68,-452.62 458.67,-444.13"/>
<polygon fill="#63b8ff" stroke="#63b8ff" points="518.41,-449.59 509.33,-444.13 513.02,-454.06 518.41,-449.59"/>
</a>
</g>
</g>
<!-- Node2 -->
<g id="Node000002" class="node">
<title>Node2</title>
<g id="a_Node000002"><a xlink:href="../../dd/de3/classchdr_1_1mazes_1_1grid_a8a34c898fef3cb49cfdb795941dd066d.html#a8a34c898fef3cb49cfdb795941dd066d" target="_top" xlink:title="Constructs a grid instance with the specified size and initial node values.">
<polygon fill="white" stroke="#666666" points="328,-836.95 298,-836.95 298,-819.95 328,-819.95 328,-836.95"/>
<text text-anchor="middle" x="313" y="-826.55" font-family="Helvetica,sans-Serif" font-size="8.00">grid</text>
</a>
</g>
</g>
<!-- Node1&#45;&gt;Node2 -->
<g id="edge1_Node000001_Node000002" class="edge">
<title>Node1&#45;&gt;Node2</title>
<g id="a_edge1_Node000001_Node000002"><a xlink:title=" ">
<path fill="none" stroke="#63b8ff" d="M482.2,-454.13C478.85,-522.9 463.67,-760.54 412,-811.45 389.61,-833.5 349.52,-832.79 328.22,-830.53"/>
<polygon fill="#63b8ff" stroke="#63b8ff" points="485.7,-454.11 482.66,-443.96 478.71,-453.79 485.7,-454.11"/>
</a>
</g>
</g>
<!-- Node3 -->
<g id="Node000003" class="node">
<title>Node3</title>
<g id="a_Node000003"><a xlink:href="../../dd/de3/classchdr_1_1mazes_1_1grid_ad5358bec5685488db6c93476910b391b.html#ad5358bec5685488db6c93476910b391b" target="_top" xlink:title="Constructs a grid instance with specified size and initial node values using move semantics.">
<polygon fill="white" stroke="#666666" points="328,-801.95 298,-801.95 298,-784.95 328,-784.95 328,-801.95"/>
<text text-anchor="middle" x="313" y="-791.55" font-family="Helvetica,sans-Serif" font-size="8.00">grid</text>
</a>
</g>
</g>
<!-- Node1&#45;&gt;Node3 -->
<g id="edge2_Node000001_Node000003" class="edge">
<title>Node1&#45;&gt;Node3</title>
<g id="a_edge2_Node000001_Node000003"><a xlink:title=" ">
<path fill="none" stroke="#63b8ff" d="M481.6,-454.43C476.5,-518.41 456.82,-724.64 412,-770.45 389.75,-793.18 349.61,-795.21 328.26,-794.49"/>
<polygon fill="#63b8ff" stroke="#63b8ff" points="485.11,-454.45 482.39,-444.21 478.13,-453.92 485.11,-454.45"/>
</a>
</g>
</g>
<!-- Node4 -->
<g id="Node000004" class="node">
<title>Node4</title>
<g id="a_Node000004"><a xlink:href="../../dd/de3/classchdr_1_1mazes_1_1grid_a46e18201c09becda23eeaa0290ff1a21.html#a46e18201c09becda23eeaa0290ff1a21" target="_top" xlink:title="Determines whether the provided coordinate is within the bounds of the grid.">
<polygon fill="white" stroke="#666666" points="336,-727.95 290,-727.95 290,-710.95 336,-710.95 336,-727.95"/>
<text text-anchor="middle" x="313" y="-717.55" font-family="Helvetica,sans-Serif" font-size="8.00">contains</text>
</a>
</g>
</g>
<!-- Node1&#45;&gt;Node4 -->
<g id="edge3_Node000001_Node000004" class="edge">
<title>Node1&#45;&gt;Node4</title>
<g id="a_edge3_Node000001_Node000004"><a xlink:title=" ">
<path fill="none" stroke="#63b8ff" d="M480.39,-454.31C472.54,-508.38 447.49,-662.18 412,-696.45 391.76,-715.99 358.22,-720.05 336.11,-720.37"/>
<polygon fill="#63b8ff" stroke="#63b8ff" points="483.9,-454.5 481.84,-444.11 476.97,-453.52 483.9,-454.5"/>
</a>
</g>
</g>
<!-- Node5 -->
<g id="Node000005" class="node">
<title>Node5</title>
<g id="a_Node000005"><a xlink:href="../../de/de1/classchdr_1_1mazes_1_1grid_3_01coord__t_00_01bool_01_4_a5863ccd22a8132d40f1de39c92105115.html#a5863ccd22a8132d40f1de39c92105115" target="_top" xlink:title="Retrieves the node at a specified index.">
<polygon fill="white" stroke="#666666" points="178,-745.95 0,-745.95 0,-728.95 178,-728.95 178,-745.95"/>
<text text-anchor="middle" x="89" y="-735.55" font-family="Helvetica,sans-Serif" font-size="8.00">chdr::mazes::grid&lt; coord_t, bool &gt;::operator[]</text>
</a>
</g>
</g>
<!-- Node1&#45;&gt;Node5 -->
<g id="edge27_Node000001_Node000005" class="edge">
<title>Node1&#45;&gt;Node5</title>
<g id="a_edge27_Node000001_Node000005"><a xlink:title=" ">
<path fill="none" stroke="#63b8ff" d="M481.56,-454.11C476.47,-514.33 457.22,-701.63 412,-737.45 372.89,-768.43 231.77,-756.2 149.91,-745.96"/>
<polygon fill="#63b8ff" stroke="#63b8ff" points="485.05,-454.37 482.36,-444.12 478.07,-453.81 485.05,-454.37"/>
</a>
</g>
</g>
<!-- Node6 -->
<g id="Node000006" class="node">
<title>Node6</title>
<g id="a_Node000006"><a xlink:href="../../dd/de3/classchdr_1_1mazes_1_1grid_a943b441c52cc08ef04269321f14cc1f9.html#a943b441c52cc08ef04269321f14cc1f9" target="_top" xlink:title="Retrieves the node at a specified index.">
<polygon fill="white" stroke="#666666" points="115,-700.95 63,-700.95 63,-683.95 115,-683.95 115,-700.95"/>
<text text-anchor="middle" x="89" y="-690.55" font-family="Helvetica,sans-Serif" font-size="8.00">operator[]</text>
</a>
</g>
</g>
<!-- Node1&#45;&gt;Node6 -->
<g id="edge28_Node000001_Node000006" class="edge">
<title>Node1&#45;&gt;Node6</title>
<g id="a_edge28_Node000001_Node000006"><a xlink:title=" ">
<path fill="none" stroke="#63b8ff" d="M483.55,-454.32C483.72,-498.87 477.28,-610.73 412,-663.45 366.7,-700.03 183.28,-696.36 115.41,-693.66"/>
<polygon fill="#63b8ff" stroke="#63b8ff" points="487.05,-454.25 483.39,-444.3 480.05,-454.36 487.05,-454.25"/>
</a>
</g>
</g>
<!-- Node7 -->
<g id="Node000007" class="node">
<title>Node7</title>
<g id="a_Node000007"><a xlink:href="../../de/de1/classchdr_1_1mazes_1_1grid_3_01coord__t_00_01bool_01_4_a46e18201c09becda23eeaa0290ff1a21.html#a46e18201c09becda23eeaa0290ff1a21" target="_top" xlink:title="Determines whether the provided coordinate is within the bounds of the grid.">
<polygon fill="white" stroke="#666666" points="399,-653.95 227,-653.95 227,-636.95 399,-636.95 399,-653.95"/>
<text text-anchor="middle" x="313" y="-643.55" font-family="Helvetica,sans-Serif" font-size="8.00">chdr::mazes::grid&lt; coord_t, bool &gt;::contains</text>
</a>
</g>
</g>
<!-- Node1&#45;&gt;Node7 -->
<g id="edge6_Node000001_Node000007" class="edge">
<title>Node1&#45;&gt;Node7</title>
<g id="a_edge6_Node000001_Node000007"><a xlink:title=" ">
<path fill="none" stroke="#63b8ff" d="M482.02,-454.5C478.9,-493.71 465.92,-583.48 412,-628.45 408.02,-631.76 403.63,-634.54 398.98,-636.85"/>
<polygon fill="#63b8ff" stroke="#63b8ff" points="485.54,-454.27 482.7,-444.06 478.55,-453.81 485.54,-454.27"/>
</a>
</g>
</g>
<!-- Node8 -->
<g id="Node000008" class="node">
<title>Node8</title>
<g id="a_Node000008"><a xlink:href="../../dd/de3/classchdr_1_1mazes_1_1grid_ab00c46b30252de392da24ac2192e6d0c.html#ab00c46b30252de392da24ac2192e6d0c" target="_top" xlink:title="Determines whether the given identifier is within the bounds of the grid.">
<polygon fill="white" stroke="#666666" points="336,-618.95 290,-618.95 290,-601.95 336,-601.95 336,-618.95"/>
<text text-anchor="middle" x="313" y="-608.55" font-family="Helvetica,sans-Serif" font-size="8.00">contains</text>
</a>
</g>
</g>
<!-- Node1&#45;&gt;Node8 -->
<g id="edge7_Node000001_Node000008" class="edge">
<title>Node1&#45;&gt;Node8</title>
<g id="a_edge7_Node000001_Node000008"><a xlink:title=" ">
<path fill="none" stroke="#63b8ff" d="M480.33,-454.26C474.48,-487.95 457.26,-558.31 412,-593.45 390.31,-610.28 357.76,-612.76 336.21,-612.22"/>
<polygon fill="#63b8ff" stroke="#63b8ff" points="483.84,-454.42 481.95,-444 476.93,-453.33 483.84,-454.42"/>
</a>
</g>
</g>
<!-- Node9 -->
<g id="Node000009" class="node">
<title>Node9</title>
<g id="a_Node000009"><a xlink:href="../../de/de1/classchdr_1_1mazes_1_1grid_3_01coord__t_00_01bool_01_4_ab00c46b30252de392da24ac2192e6d0c.html#ab00c46b30252de392da24ac2192e6d0c" target="_top" xlink:title="Retrieves the node at a specified index.">
<polygon fill="white" stroke="#666666" points="399,-583.95 227,-583.95 227,-566.95 399,-566.95 399,-583.95"/>
<text text-anchor="middle" x="313" y="-573.55" font-family="Helvetica,sans-Serif" font-size="8.00">chdr::mazes::grid&lt; coord_t, bool &gt;::contains</text>
</a>
</g>
</g>
<!-- Node1&#45;&gt;Node9 -->
<g id="edge8_Node000001_Node000009" class="edge">
<title>Node1&#45;&gt;Node9</title>
<g id="a_edge8_Node000001_Node000009"><a xlink:title=" ">
<path fill="none" stroke="#63b8ff" d="M477.85,-453.93C469.14,-481.46 448.78,-532.76 412,-558.45 407.19,-561.81 401.92,-564.57 396.41,-566.85"/>
<polygon fill="#63b8ff" stroke="#63b8ff" points="481.29,-454.61 480.79,-444.03 474.58,-452.61 481.29,-454.61"/>
</a>
</g>
</g>
<!-- Node10 -->
<g id="Node000010" class="node">
<title>Node10</title>
<g id="a_Node000010"><a xlink:href="../../dd/de3/classchdr_1_1mazes_1_1grid_aa4c65b07bb99339e36866bae671d47f6.html#aa4c65b07bb99339e36866bae671d47f6" target="_top" xlink:title="Determines whether the given identifier is within the bounds of the grid.">
<polygon fill="white" stroke="#666666" points="336,-548.95 290,-548.95 290,-531.95 336,-531.95 336,-548.95"/>
<text text-anchor="middle" x="313" y="-538.55" font-family="Helvetica,sans-Serif" font-size="8.00">contains</text>
</a>
</g>
</g>
<!-- Node1&#45;&gt;Node10 -->
<g id="edge9_Node000001_Node000010" class="edge">
<title>Node1&#45;&gt;Node10</title>
<g id="a_edge9_Node000001_Node000010"><a xlink:title=" ">
<path fill="none" stroke="#63b8ff" d="M473.94,-453.09C462.45,-473.54 440.64,-506.59 412,-523.45 388.63,-537.19 357.07,-540.47 336.15,-540.95"/>
<polygon fill="#63b8ff" stroke="#63b8ff" points="477.08,-454.65 478.74,-444.19 470.91,-451.33 477.08,-454.65"/>
</a>
</g>
</g>
<!-- Node11 -->
<g id="Node000011" class="node">
<title>Node11</title>
<g id="a_Node000011"><a xlink:href="../../de/de1/classchdr_1_1mazes_1_1grid_3_01coord__t_00_01bool_01_4_aa4c65b07bb99339e36866bae671d47f6.html#aa4c65b07bb99339e36866bae671d47f6" target="_top" xlink:title="Determines whether the given identifier is within the bounds of the grid.">
<polygon fill="white" stroke="#666666" points="399,-513.95 227,-513.95 227,-496.95 399,-496.95 399,-513.95"/>
<text text-anchor="middle" x="313" y="-503.55" font-family="Helvetica,sans-Serif" font-size="8.00">chdr::mazes::grid&lt; coord_t, bool &gt;::contains</text>
</a>
</g>
</g>
<!-- Node1&#45;&gt;Node11 -->
<g id="edge10_Node000001_Node000011" class="edge">
<title>Node1&#45;&gt;Node11</title>
<g id="a_edge10_Node000001_Node000011"><a xlink:title=" ">
<path fill="none" stroke="#63b8ff" d="M466.75,-451.13C453.21,-463.27 432.83,-479.48 412,-488.45 403.91,-491.93 395.16,-494.7 386.32,-496.9"/>
<polygon fill="#63b8ff" stroke="#63b8ff" points="469.28,-453.55 474.25,-444.19 464.53,-448.41 469.28,-453.55"/>
</a>
</g>
</g>
<!-- Node12 -->
<g id="Node000012" class="node">
<title>Node12</title>
<g id="a_Node000012"><a xlink:href="../../de/de1/classchdr_1_1mazes_1_1grid_3_01coord__t_00_01bool_01_4_a0abdfb4af71cccf812fb2b7150f0cc72.html#a0abdfb4af71cccf812fb2b7150f0cc72" target="_top" xlink:title="Retrieves the neighbours of a node within the grid.">
<polygon fill="white" stroke="#666666" points="412,-478.95 214,-478.95 214,-461.95 412,-461.95 412,-478.95"/>
<text text-anchor="middle" x="313" y="-468.55" font-family="Helvetica,sans-Serif" font-size="8.00">chdr::mazes::grid&lt; coord_t, bool &gt;::get_neighbours</text>
</a>
</g>
</g>
<!-- Node1&#45;&gt;Node12 -->
<g id="edge12_Node000001_Node000012" class="edge">
<title>Node1&#45;&gt;Node12</title>
<g id="a_edge12_Node000001_Node000012"><a xlink:title=" ">
<path fill="none" stroke="#63b8ff" d="M441.52,-446.53C431.87,-448.95 421.6,-451.4 412,-453.45 397.64,-456.51 382.02,-459.41 367.55,-461.92"/>
<polygon fill="#63b8ff" stroke="#63b8ff" points="442.49,-449.89 451.31,-444.03 440.76,-443.11 442.49,-449.89"/>
</a>
</g>
</g>
<!-- Node13 -->
<g id="Node000013" class="node">
<title>Node13</title>
<g id="a_Node000013"><a xlink:href="../../dd/de3/classchdr_1_1mazes_1_1grid_a687d32619ba5c3eea0a9ab1ac599ffb8.html#a687d32619ba5c3eea0a9ab1ac599ffb8" target="_top" xlink:title="Retrieves the neighbours of a node within the grid.">
<polygon fill="white" stroke="#666666" points="349,-443.95 277,-443.95 277,-426.95 349,-426.95 349,-443.95"/>
<text text-anchor="middle" x="313" y="-433.55" font-family="Helvetica,sans-Serif" font-size="8.00">get_neighbours</text>
</a>
</g>
</g>
<!-- Node1&#45;&gt;Node13 -->
<g id="edge13_Node000001_Node000013" class="edge">
<title>Node1&#45;&gt;Node13</title>
<g id="a_edge13_Node000001_Node000013"><a xlink:title=" ">
<path fill="none" stroke="#63b8ff" d="M437.73,-435.45C409.98,-435.45 374.96,-435.45 349.26,-435.45"/>
<polygon fill="#63b8ff" stroke="#63b8ff" points="437.98,-438.95 447.98,-435.45 437.98,-431.95 437.98,-438.95"/>
</a>
</g>
</g>
<!-- Node14 -->
<g id="Node000014" class="node">
<title>Node14</title>
<g id="a_Node000014"><a xlink:href="../../de/de1/classchdr_1_1mazes_1_1grid_3_01coord__t_00_01bool_01_4_a687d32619ba5c3eea0a9ab1ac599ffb8.html#a687d32619ba5c3eea0a9ab1ac599ffb8" target="_top" xlink:title="Retrieves the neighbours of a node within the grid.">
<polygon fill="white" stroke="#666666" points="412,-408.95 214,-408.95 214,-391.95 412,-391.95 412,-408.95"/>
<text text-anchor="middle" x="313" y="-398.55" font-family="Helvetica,sans-Serif" font-size="8.00">chdr::mazes::grid&lt; coord_t, bool &gt;::get_neighbours</text>
</a>
</g>
</g>
<!-- Node1&#45;&gt;Node14 -->
<g id="edge14_Node000001_Node000014" class="edge">
<title>Node1&#45;&gt;Node14</title>
<g id="a_edge14_Node000001_Node000014"><a xlink:title=" ">
<path fill="none" stroke="#63b8ff" d="M438.95,-424.51C430.05,-422.41 420.74,-420.29 412,-418.45 396.18,-415.1 378.84,-411.8 363.2,-408.95"/>
<polygon fill="#63b8ff" stroke="#63b8ff" points="438.24,-427.94 448.78,-426.86 439.86,-421.13 438.24,-427.94"/>
</a>
</g>
</g>
<!-- Node15 -->
<g id="Node000015" class="node">
<title>Node15</title>
<g id="a_Node000015"><a xlink:href="../../dd/de3/classchdr_1_1mazes_1_1grid_a26abb5332fbee454974e5ce9ba4de82f.html#a26abb5332fbee454974e5ce9ba4de82f" target="_top" xlink:title="Determines whether a cell is transitory based on its neighbours.">
<polygon fill="white" stroke="#666666" points="342.5,-373.95 283.5,-373.95 283.5,-356.95 342.5,-356.95 342.5,-373.95"/>
<text text-anchor="middle" x="313" y="-363.55" font-family="Helvetica,sans-Serif" font-size="8.00">is_transitory</text>
</a>
</g>
</g>
<!-- Node1&#45;&gt;Node15 -->
<g id="edge15_Node000001_Node000015" class="edge">
<title>Node1&#45;&gt;Node15</title>
<g id="a_edge15_Node000001_Node000015"><a xlink:title=" ">
<path fill="none" stroke="#63b8ff" d="M466.68,-420.12C453.09,-408.25 432.68,-392.36 412,-383.45 389.92,-373.93 362.92,-369.44 342.86,-367.32"/>
<polygon fill="#63b8ff" stroke="#63b8ff" points="464.43,-422.81 474.2,-426.9 469.11,-417.61 464.43,-422.81"/>
</a>
</g>
</g>
<!-- Node16 -->
<g id="Node000016" class="node">
<title>Node16</title>
<g id="a_Node000016"><a xlink:href="../../de/de1/classchdr_1_1mazes_1_1grid_3_01coord__t_00_01bool_01_4_a26abb5332fbee454974e5ce9ba4de82f.html#a26abb5332fbee454974e5ce9ba4de82f" target="_top" xlink:title="Determines whether a cell is transitory based on its neighbours.">
<polygon fill="white" stroke="#666666" points="405.5,-338.95 220.5,-338.95 220.5,-321.95 405.5,-321.95 405.5,-338.95"/>
<text text-anchor="middle" x="313" y="-328.55" font-family="Helvetica,sans-Serif" font-size="8.00">chdr::mazes::grid&lt; coord_t, bool &gt;::is_transitory</text>
</a>
</g>
</g>
<!-- Node1&#45;&gt;Node16 -->
<g id="edge16_Node000001_Node000016" class="edge">
<title>Node1&#45;&gt;Node16</title>
<g id="a_edge16_Node000001_Node000016"><a xlink:title=" ">
<path fill="none" stroke="#63b8ff" d="M473.86,-418.05C462.3,-397.87 440.41,-365.24 412,-348.45 405.37,-344.53 398.09,-341.43 390.58,-338.98"/>
<polygon fill="#63b8ff" stroke="#63b8ff" points="470.8,-419.75 478.69,-426.83 476.94,-416.38 470.8,-419.75"/>
</a>
</g>
</g>
<!-- Node17 -->
<g id="Node000017" class="node">
<title>Node17</title>
<g id="a_Node000017"><a xlink:href="../../dd/de3/classchdr_1_1mazes_1_1grid_a264c48c1d975bf357e96edcb92331ad2.html#a264c48c1d975bf357e96edcb92331ad2" target="_top" xlink:title="Determines whether a cell at the given index is transitory.">
<polygon fill="white" stroke="#666666" points="342.5,-303.95 283.5,-303.95 283.5,-286.95 342.5,-286.95 342.5,-303.95"/>
<text text-anchor="middle" x="313" y="-293.55" font-family="Helvetica,sans-Serif" font-size="8.00">is_transitory</text>
</a>
</g>
</g>
<!-- Node1&#45;&gt;Node17 -->
<g id="edge17_Node000001_Node000017" class="edge">
<title>Node1&#45;&gt;Node17</title>
<g id="a_edge17_Node000001_Node000017"><a xlink:title=" ">
<path fill="none" stroke="#63b8ff" d="M477.64,-416.76C468.77,-389.41 448.3,-338.96 412,-313.45 391.76,-299.22 363.56,-295.27 342.6,-294.56"/>
<polygon fill="#63b8ff" stroke="#63b8ff" points="474.39,-418.09 480.66,-426.62 481.08,-416.04 474.39,-418.09"/>
</a>
</g>
</g>
<!-- Node18 -->
<g id="Node000018" class="node">
<title>Node18</title>
<g id="a_Node000018"><a xlink:href="../../de/de1/classchdr_1_1mazes_1_1grid_3_01coord__t_00_01bool_01_4_a264c48c1d975bf357e96edcb92331ad2.html#a264c48c1d975bf357e96edcb92331ad2" target="_top" xlink:title="Determines whether a cell at the given index is transitory.">
<polygon fill="white" stroke="#666666" points="405.5,-268.95 220.5,-268.95 220.5,-251.95 405.5,-251.95 405.5,-268.95"/>
<text text-anchor="middle" x="313" y="-258.55" font-family="Helvetica,sans-Serif" font-size="8.00">chdr::mazes::grid&lt; coord_t, bool &gt;::is_transitory</text>
</a>
</g>
</g>
<!-- Node1&#45;&gt;Node18 -->
<g id="edge18_Node000001_Node000018" class="edge">
<title>Node1&#45;&gt;Node18</title>
<g id="a_edge18_Node000001_Node000018"><a xlink:title=" ">
<path fill="none" stroke="#63b8ff" d="M480.17,-416.31C474.13,-382.72 456.68,-313.4 412,-278.45 407.1,-274.61 401.63,-271.49 395.86,-268.98"/>
<polygon fill="#63b8ff" stroke="#63b8ff" points="476.78,-417.29 481.86,-426.59 483.69,-416.15 476.78,-417.29"/>
</a>
</g>
</g>
<!-- Node19 -->
<g id="Node000019" class="node">
<title>Node19</title>
<g id="a_Node000019"><a xlink:href="../../de/de1/classchdr_1_1mazes_1_1grid_3_01coord__t_00_01bool_01_4_ad3e7854f02faee6b530a4623907c67c2.html#ad3e7854f02faee6b530a4623907c67c2" target="_top" xlink:title="Sets the nodes for the grid.">
<polygon fill="white" stroke="#666666" points="395,-233.95 231,-233.95 231,-216.95 395,-216.95 395,-233.95"/>
<text text-anchor="middle" x="313" y="-223.55" font-family="Helvetica,sans-Serif" font-size="8.00">chdr::mazes::grid&lt; coord_t, bool &gt;::nodes</text>
</a>
</g>
</g>
<!-- Node1&#45;&gt;Node19 -->
<g id="edge19_Node000001_Node000019" class="edge">
<title>Node1&#45;&gt;Node19</title>
<g id="a_edge19_Node000001_Node000019"><a xlink:title=" ">
<path fill="none" stroke="#63b8ff" d="M481.95,-416.53C478.7,-377.6 465.49,-288.42 412,-243.45 406.97,-239.21 401.27,-235.84 395.22,-233.17"/>
<polygon fill="#63b8ff" stroke="#63b8ff" points="478.48,-417.16 482.67,-426.89 485.47,-416.67 478.48,-417.16"/>
</a>
</g>
</g>
<!-- Node20 -->
<g id="Node000020" class="node">
<title>Node20</title>
<g id="a_Node000020"><a xlink:href="../../dd/de3/classchdr_1_1mazes_1_1grid_a03f52122eda68167d9451df9e263e0c4.html#a03f52122eda68167d9451df9e263e0c4" target="_top" xlink:title="Sets the nodes for the grid.">
<polygon fill="white" stroke="#666666" points="332,-198.95 294,-198.95 294,-181.95 332,-181.95 332,-198.95"/>
<text text-anchor="middle" x="313" y="-188.55" font-family="Helvetica,sans-Serif" font-size="8.00">nodes</text>
</a>
</g>
</g>
<!-- Node1&#45;&gt;Node20 -->
<g id="edge20_Node000001_Node000020" class="edge">
<title>Node1&#45;&gt;Node20</title>
<g id="a_edge20_Node000001_Node000020"><a xlink:title=" ">
<path fill="none" stroke="#63b8ff" d="M483.19,-416.76C482.55,-373.05 474.44,-263.72 412,-208.45 389.98,-188.95 353.99,-187.41 332.29,-188.57"/>
<polygon fill="#63b8ff" stroke="#63b8ff" points="479.69,-416.82 483.22,-426.81 486.69,-416.8 479.69,-416.82"/>
</a>
</g>
</g>
<!-- Node21 -->
<g id="Node000021" class="node">
<title>Node21</title>
<g id="a_Node000021"><a xlink:href="../../de/de1/classchdr_1_1mazes_1_1grid_3_01coord__t_00_01bool_01_4_a7d575542c2bf3cf37dfbebf1d56a7bc9.html#a7d575542c2bf3cf37dfbebf1d56a7bc9" target="_top" xlink:title="Retrieves the node at a specified coordinate.">
<polygon fill="white" stroke="#666666" points="178,-132.95 0,-132.95 0,-115.95 178,-115.95 178,-132.95"/>
<text text-anchor="middle" x="89" y="-122.55" font-family="Helvetica,sans-Serif" font-size="8.00">chdr::mazes::grid&lt; coord_t, bool &gt;::operator[]</text>
</a>
</g>
</g>
<!-- Node1&#45;&gt;Node21 -->
<g id="edge21_Node000001_Node000021" class="edge">
<title>Node1&#45;&gt;Node21</title>
<g id="a_edge21_Node000001_Node000021"><a xlink:title=" ">
<path fill="none" stroke="#63b8ff" d="M480.58,-416.71C473.17,-362.37 449.01,-206.47 412,-173.45 378.3,-143.37 261.27,-131.75 178.03,-127.26"/>
<polygon fill="#63b8ff" stroke="#63b8ff" points="477.12,-417.23 481.9,-426.68 484.06,-416.31 477.12,-417.23"/>
</a>
</g>
</g>
<!-- Node22 -->
<g id="Node000022" class="node">
<title>Node22</title>
<g id="a_Node000022"><a xlink:href="../../dd/de3/classchdr_1_1mazes_1_1grid_ad8b85d86fc073f5557471a856975a9a2.html#ad8b85d86fc073f5557471a856975a9a2" target="_top" xlink:title="Retrieves the node at a specified coordinate.">
<polygon fill="white" stroke="#666666" points="339,-68.95 287,-68.95 287,-51.95 339,-51.95 339,-68.95"/>
<text text-anchor="middle" x="313" y="-58.55" font-family="Helvetica,sans-Serif" font-size="8.00">operator[]</text>
</a>
</g>
</g>
<!-- Node1&#45;&gt;Node22 -->
<g id="edge22_Node000001_Node000022" class="edge">
<title>Node1&#45;&gt;Node22</title>
<g id="a_edge22_Node000001_Node000022"><a xlink:title=" ">
<path fill="none" stroke="#63b8ff" d="M481.3,-416.78C475.23,-353.84 452.77,-150.65 412,-101.45 393.76,-79.43 361.68,-69.05 339.21,-64.28"/>
<polygon fill="#63b8ff" stroke="#63b8ff" points="477.82,-417.2 482.24,-426.83 484.79,-416.54 477.82,-417.2"/>
</a>
</g>
</g>
<!-- Node23 -->
<g id="Node000023" class="node">
<title>Node23</title>
<g id="a_Node000023"><a xlink:href="../../dd/de3/classchdr_1_1mazes_1_1grid_a0804aafbf4991cf2d51f4aba926792a3.html#a0804aafbf4991cf2d51f4aba926792a3" target="_top" xlink:title="Retrieves the node at a specified index.">
<polygon fill="white" stroke="#666666" points="115,-82.95 63,-82.95 63,-65.95 115,-65.95 115,-82.95"/>
<text text-anchor="middle" x="89" y="-72.55" font-family="Helvetica,sans-Serif" font-size="8.00">operator[]</text>
</a>
</g>
</g>
<!-- Node1&#45;&gt;Node23 -->
<g id="edge29_Node000001_Node000023" class="edge">
<title>Node1&#45;&gt;Node23</title>
<g id="a_edge29_Node000001_Node000023"><a xlink:title=" ">
<path fill="none" stroke="#63b8ff" d="M481.34,-416.83C475.61,-356.72 454.58,-169.43 412,-129.45 379.48,-98.91 257.96,-104.01 214,-96.45 179.74,-90.55 140.2,-83.49 115.16,-78.99"/>
<polygon fill="#63b8ff" stroke="#63b8ff" points="477.86,-417.16 482.26,-426.79 484.83,-416.51 477.86,-417.16"/>
</a>
</g>
</g>
<!-- Node24 -->
<g id="Node000024" class="node">
<title>Node24</title>
<g id="a_Node000024"><a xlink:href="../../de/de1/classchdr_1_1mazes_1_1grid_3_01coord__t_00_01bool_01_4_afd69e166d5e3ad92fcc4f685b73cee3c.html#afd69e166d5e3ad92fcc4f685b73cee3c" target="_top" xlink:title="Retrieves the node at a specified index.">
<polygon fill="white" stroke="#666666" points="178,-46.95 0,-46.95 0,-29.95 178,-29.95 178,-46.95"/>
<text text-anchor="middle" x="89" y="-36.55" font-family="Helvetica,sans-Serif" font-size="8.00">chdr::mazes::grid&lt; coord_t, bool &gt;::operator[]</text>
</a>
</g>
</g>
<!-- Node1&#45;&gt;Node24 -->
<g id="edge30_Node000001_Node000024" class="edge">
<title>Node1&#45;&gt;Node24</title>
<g id="a_edge30_Node000001_Node000024"><a xlink:title=" ">
<path fill="none" stroke="#63b8ff" d="M482.62,-416.55C480.74,-344.9 470.03,-91.55 412,-42.45 324.72,31.4 171.41,-10.18 113.25,-29.9"/>
<polygon fill="#63b8ff" stroke="#63b8ff" points="479.12,-416.84 482.86,-426.76 486.12,-416.68 479.12,-416.84"/>
</a>
</g>
</g>
<!-- Node4&#45;&gt;Node5 -->
<g id="edge4_Node000004_Node000005" class="edge">
<title>Node4&#45;&gt;Node5</title>
<g id="a_edge4_Node000004_Node000005"><a xlink:title=" ">
<path fill="none" stroke="#63b8ff" d="M279.63,-722.07C252.96,-724.23 213.84,-727.4 178.05,-730.31"/>
<polygon fill="#63b8ff" stroke="#63b8ff" points="280.22,-725.53 289.9,-721.24 279.65,-718.56 280.22,-725.53"/>
</a>
</g>
</g>
<!-- Node4&#45;&gt;Node6 -->
<g id="edge5_Node000004_Node000006" class="edge">
<title>Node4&#45;&gt;Node6</title>
<g id="a_edge5_Node000004_Node000006"><a xlink:title=" ">
<path fill="none" stroke="#63b8ff" d="M279.89,-715.54C235.29,-710.12 155.53,-700.41 115.04,-695.49"/>
<polygon fill="#63b8ff" stroke="#63b8ff" points="279.55,-719.02 289.9,-716.76 280.4,-712.08 279.55,-719.02"/>
</a>
</g>
</g>
<!-- Node22&#45;&gt;Node21 -->
<g id="edge23_Node000022_Node000021" class="edge">
<title>Node22&#45;&gt;Node21</title>
<g id="a_edge23_Node000022_Node000021"><a xlink:title=" ">
<path fill="none" stroke="#63b8ff" d="M277.13,-70.5C233.71,-83.02 160.28,-104.18 119.51,-115.94"/>
<polygon fill="#63b8ff" stroke="#63b8ff" points="278.33,-73.8 286.97,-67.66 276.39,-67.07 278.33,-73.8"/>
</a>
</g>
</g>
<!-- Node22&#45;&gt;Node22 -->
<g id="edge24_Node000022_Node000022" class="edge">
<title>Node22&#45;&gt;Node22</title>
<g id="a_edge24_Node000022_Node000022"><a xlink:title=" ">
<path fill="none" stroke="#63b8ff" d="M344.87,-77.02C344.85,-82.54 334.23,-86.95 313,-86.95 282.12,-86.95 273.68,-77.62 287.67,-69.13"/>
<polygon fill="#63b8ff" stroke="#63b8ff" points="347.41,-74.59 338.33,-69.13 342.02,-79.06 347.41,-74.59"/>
</a>
</g>
</g>
<!-- Node22&#45;&gt;Node23 -->
<g id="edge25_Node000022_Node000023" class="edge">
<title>Node22&#45;&gt;Node23</title>
<g id="a_edge25_Node000022_Node000023"><a xlink:title=" ">
<path fill="none" stroke="#63b8ff" d="M276.79,-62.67C231.77,-65.5 154.91,-70.35 115.28,-72.85"/>
<polygon fill="#63b8ff" stroke="#63b8ff" points="277.21,-66.15 286.97,-62.02 276.76,-59.16 277.21,-66.15"/>
</a>
</g>
</g>
<!-- Node22&#45;&gt;Node24 -->
<g id="edge26_Node000022_Node000024" class="edge">
<title>Node22&#45;&gt;Node24</title>
<g id="a_edge26_Node000022_Node000024"><a xlink:title=" ">
<path fill="none" stroke="#63b8ff" d="M276.82,-56.96C249.71,-54.27 211.04,-50.44 175.92,-46.96"/>
<polygon fill="#63b8ff" stroke="#63b8ff" points="276.67,-60.46 286.97,-57.96 277.36,-53.49 276.67,-60.46"/>
</a>
</g>
</g>
</g>
</svg>
