<?xml version="1.0" encoding="UTF-8" standalone="no"?>
<!DOCTYPE svg PUBLIC "-//W3C//DTD SVG 1.1//EN"
 "http://www.w3.org/Graphics/SVG/1.1/DTD/svg11.dtd">
<!-- Generated by graphviz version 2.42.4 (0)
 -->
<!-- Title: operator[] Pages: 1 -->
<svg width="250pt" height="44pt"
 viewBox="0.00 0.00 250.00 44.00" xmlns="http://www.w3.org/2000/svg" xmlns:xlink="http://www.w3.org/1999/xlink">
<g id="graph0" class="graph" transform="scale(1 1) rotate(0) translate(4 40)">
<title>operator[]</title>
<!-- Node1 -->
<g id="Node000001" class="node">
<title>Node1</title>
<g id="a_Node000001"><a xlink:title="Retrieves the node at a specified index.">
<polygon fill="#999999" stroke="#666666" points="52,-17 0,-17 0,0 52,0 52,-17"/>
<text text-anchor="middle" x="26" y="-6.6" font-family="Helvetica,sans-Serif" font-size="8.00">operator[]</text>
</a>
</g>
</g>
<!-- Node2 -->
<g id="Node000002" class="node">
<title>Node2</title>
<g id="a_Node000002"><a xlink:href="../../dd/de3/classchdr_1_1mazes_1_1grid_a46e18201c09becda23eeaa0290ff1a21.html#a46e18201c09becda23eeaa0290ff1a21" target="_top" xlink:title="Determines whether the provided coordinate is within the bounds of the grid.">
<polygon fill="white" stroke="#666666" points="134,-36 88,-36 88,-19 134,-19 134,-36"/>
<text text-anchor="middle" x="111" y="-25.6" font-family="Helvetica,sans-Serif" font-size="8.00">contains</text>
</a>
</g>
</g>
<!-- Node1&#45;&gt;Node2 -->
<g id="edge1_Node000001_Node000002" class="edge">
<title>Node1&#45;&gt;Node2</title>
<g id="a_edge1_Node000001_Node000002"><a xlink:title=" ">
<path fill="none" stroke="#63b8ff" d="M52.35,-14.3C60.42,-16.15 69.45,-18.22 77.93,-20.16"/>
<polygon fill="#63b8ff" stroke="#63b8ff" points="77.36,-23.62 87.89,-22.44 78.92,-16.8 77.36,-23.62"/>
</a>
</g>
</g>
<!-- Node3 -->
<g id="Node000003" class="node">
<title>Node3</title>
<g id="a_Node000003"><a xlink:href="../../dd/de3/classchdr_1_1mazes_1_1grid_a0abdfb4af71cccf812fb2b7150f0cc72.html#a0abdfb4af71cccf812fb2b7150f0cc72" target="_top" xlink:title="Retrieves the neighbours of a node within the grid.">
<polygon fill="white" stroke="#666666" points="242,-17 170,-17 170,0 242,0 242,-17"/>
<text text-anchor="middle" x="206" y="-6.6" font-family="Helvetica,sans-Serif" font-size="8.00">get_neighbours</text>
</a>
</g>
</g>
<!-- Node1&#45;&gt;Node3 -->
<g id="edge4_Node000001_Node000003" class="edge">
<title>Node1&#45;&gt;Node3</title>
<g id="a_edge4_Node000001_Node000003"><a xlink:title=" ">
<path fill="none" stroke="#63b8ff" d="M52.13,-8.5C80,-8.5 125.55,-8.5 159.69,-8.5"/>
<polygon fill="#63b8ff" stroke="#63b8ff" points="159.89,-12 169.89,-8.5 159.89,-5 159.89,-12"/>
</a>
</g>
</g>
<!-- Node2&#45;&gt;Node3 -->
<g id="edge2_Node000002_Node000003" class="edge">
<title>Node2&#45;&gt;Node3</title>
<g id="a_edge2_Node000002_Node000003"><a xlink:title=" ">
<path fill="none" stroke="#63b8ff" d="M134.04,-23C141.77,-21.42 150.75,-19.58 159.68,-17.76"/>
<polygon fill="#63b8ff" stroke="#63b8ff" points="160.57,-21.15 169.67,-15.72 159.17,-14.29 160.57,-21.15"/>
</a>
</g>
</g>
<!-- Node3&#45;&gt;Node3 -->
<g id="edge3_Node000003_Node000003" class="edge">
<title>Node3&#45;&gt;Node3</title>
<g id="a_edge3_Node000003_Node000003"><a xlink:title=" ">
<path fill="none" stroke="#63b8ff" d="M191.99,-17.19C184.26,-25.67 188.93,-35 206,-35 216.4,-35 222.2,-31.54 223.39,-26.91"/>
<polygon fill="#63b8ff" stroke="#63b8ff" points="226.6,-25.48 220.01,-17.19 219.99,-27.78 226.6,-25.48"/>
</a>
</g>
</g>
</g>
</svg>
