<?xml version="1.0" encoding="UTF-8" standalone="no"?>
<!DOCTYPE svg PUBLIC "-//W3C//DTD SVG 1.1//EN"
 "http://www.w3.org/Graphics/SVG/1.1/DTD/svg11.dtd">
<!-- Generated by graphviz version 2.43.0 (0)
 -->
<!-- Title: operator[] Pages: 1 -->
<svg width="171pt" height="43pt"
 viewBox="0.00 0.00 171.00 43.00" xmlns="http://www.w3.org/2000/svg" xmlns:xlink="http://www.w3.org/1999/xlink">
<g id="graph0" class="graph" transform="scale(1 1) rotate(0) translate(4 39)">
<title>operator[]</title>
<!-- Node1 -->
<g id="Node000001" class="node">
<title>Node1</title>
<g id="a_Node000001"><a xlink:title="Retrieves the node at a specified coordinate.">
<polygon fill="#999999" stroke="#666666" points="52,-17 0,-17 0,0 52,0 52,-17"/>
<text text-anchor="middle" x="26" y="-6.6" font-family="Helvetica,sans-Serif" font-size="8.00">operator[]</text>
</a>
</g>
</g>
<!-- Node1&#45;&gt;Node1 -->
<g id="edge1_Node000001_Node000001" class="edge">
<title>Node1&#45;&gt;Node1</title>
<g id="a_edge1_Node000001_Node000001"><a xlink:title=" ">
<path fill="none" stroke="#63b8ff" d="M11.4,-17.19C3.33,-25.67 8.2,-35 26,-35 37.13,-35 43.2,-31.36 44.22,-26.55"/>
<polygon fill="#63b8ff" stroke="#63b8ff" points="47.47,-25.25 40.6,-17.19 40.94,-27.78 47.47,-25.25"/>
</a>
</g>
</g>
<!-- Node2 -->
<g id="Node000002" class="node">
<title>Node2</title>
<g id="a_Node000002"><a xlink:href="../../d2/dcb/structchdr_1_1utils_a5741e93a4c4f5630e7c86bda862cf611.html#a5741e93a4c4f5630e7c86bda862cf611" target="_top" xlink:title="Maps a multidimensional index to a one&#45;dimensional array index.">
<polygon fill="white" stroke="#666666" points="163,-17 88,-17 88,0 163,0 163,-17"/>
<text text-anchor="middle" x="125.5" y="-6.6" font-family="Helvetica,sans-Serif" font-size="8.00">chdr::utils::to_1d</text>
</a>
</g>
</g>
<!-- Node1&#45;&gt;Node2 -->
<g id="edge2_Node000001_Node000002" class="edge">
<title>Node1&#45;&gt;Node2</title>
<g id="a_edge2_Node000001_Node000002"><a xlink:title=" ">
<path fill="none" stroke="#63b8ff" d="M52.11,-8.5C59.9,-8.5 68.74,-8.5 77.51,-8.5"/>
<polygon fill="#63b8ff" stroke="#63b8ff" points="77.71,-12 87.71,-8.5 77.71,-5 77.71,-12"/>
</a>
</g>
</g>
</g>
</svg>
