<?xml version="1.0" encoding="UTF-8" standalone="no"?>
<!DOCTYPE svg PUBLIC "-//W3C//DTD SVG 1.1//EN"
 "http://www.w3.org/Graphics/SVG/1.1/DTD/svg11.dtd">
<!-- Generated by graphviz version 2.43.0 (0)
 -->
<!-- Title: count Pages: 1 -->
<svg width="412pt" height="235pt"
 viewBox="0.00 0.00 412.00 235.07" xmlns="http://www.w3.org/2000/svg" xmlns:xlink="http://www.w3.org/1999/xlink">
<g id="graph0" class="graph" transform="scale(1 1) rotate(0) translate(4 231.07)">
<title>count</title>
<!-- Node1 -->
<g id="Node000001" class="node">
<title>Node1</title>
<g id="a_Node000001"><a xlink:title="Retrieves the total count of elements in the grid.">
<polygon fill="#999999" stroke="#666666" points="404,-122 368,-122 368,-105 404,-105 404,-122"/>
<text text-anchor="middle" x="386" y="-111.6" font-family="Helvetica,sans-Serif" font-size="8.00">count</text>
</a>
</g>
</g>
<!-- Node2 -->
<g id="Node000002" class="node">
<title>Node2</title>
<g id="a_Node000002"><a xlink:href="../../d9/dcb/classchdr_1_1mazes_1_1graph_a5ca1351a03df5ff49f85cc4b5669cefc.html#a5ca1351a03df5ff49f85cc4b5669cefc" target="_top" xlink:title="Constructs a graph instance from a grid structure.">
<polygon fill="white" stroke="#666666" points="111,-140 0,-140 0,-123 111,-123 111,-140"/>
<text text-anchor="middle" x="55.5" y="-129.6" font-family="Helvetica,sans-Serif" font-size="8.00">chdr::mazes::graph::graph</text>
</a>
</g>
</g>
<!-- Node1&#45;&gt;Node2 -->
<g id="edge1_Node000001_Node000002" class="edge">
<title>Node1&#45;&gt;Node2</title>
<g id="a_edge1_Node000001_Node000002"><a xlink:title=" ">
<path fill="none" stroke="#63b8ff" d="M379.95,-131.77C373.01,-152.89 358.31,-186.63 332,-201.5 260.42,-241.95 224.81,-228.08 147,-201.5 110.91,-189.17 78.05,-155.96 63.87,-140.13"/>
<polygon fill="#63b8ff" stroke="#63b8ff" points="383.34,-132.63 382.88,-122.05 376.64,-130.61 383.34,-132.63"/>
</a>
</g>
</g>
<!-- Node3 -->
<g id="Node000003" class="node">
<title>Node3</title>
<g id="a_Node000003"><a xlink:href="../../dd/de3/classchdr_1_1mazes_1_1grid_ab00c46b30252de392da24ac2192e6d0c.html#ab00c46b30252de392da24ac2192e6d0c" target="_top" xlink:title="Determines whether the given identifier is within the bounds of the grid.">
<polygon fill="white" stroke="#666666" points="262.5,-192 216.5,-192 216.5,-175 262.5,-175 262.5,-192"/>
<text text-anchor="middle" x="239.5" y="-181.6" font-family="Helvetica,sans-Serif" font-size="8.00">contains</text>
</a>
</g>
</g>
<!-- Node1&#45;&gt;Node3 -->
<g id="edge2_Node000001_Node000003" class="edge">
<title>Node1&#45;&gt;Node3</title>
<g id="a_edge2_Node000001_Node000003"><a xlink:title=" ">
<path fill="none" stroke="#63b8ff" d="M372.81,-130.24C363.12,-142.26 348.49,-157.82 332,-166.5 310.27,-177.94 282.09,-181.79 262.77,-183.03"/>
<polygon fill="#63b8ff" stroke="#63b8ff" points="375.62,-132.32 378.95,-122.26 370.08,-128.05 375.62,-132.32"/>
</a>
</g>
</g>
<!-- Node4 -->
<g id="Node000004" class="node">
<title>Node4</title>
<g id="a_Node000004"><a xlink:href="../../de/de1/classchdr_1_1mazes_1_1grid_3_01coord__t_00_01bool_01_4_ab00c46b30252de392da24ac2192e6d0c.html#ab00c46b30252de392da24ac2192e6d0c" target="_top" xlink:title="Determines whether the given identifier is within the bounds of the grid.">
<polygon fill="white" stroke="#666666" points="325.5,-157 153.5,-157 153.5,-140 325.5,-140 325.5,-157"/>
<text text-anchor="middle" x="239.5" y="-146.6" font-family="Helvetica,sans-Serif" font-size="8.00">chdr::mazes::grid&lt; coord_t, bool &gt;::contains</text>
</a>
</g>
</g>
<!-- Node1&#45;&gt;Node4 -->
<g id="edge3_Node000001_Node000004" class="edge">
<title>Node1&#45;&gt;Node4</title>
<g id="a_edge3_Node000001_Node000004"><a xlink:title=" ">
<path fill="none" stroke="#63b8ff" d="M357.99,-123.51C349.73,-126.34 340.56,-129.26 332,-131.5 319.65,-134.73 306.21,-137.58 293.53,-139.98"/>
<polygon fill="#63b8ff" stroke="#63b8ff" points="359.26,-126.77 367.53,-120.14 356.93,-120.17 359.26,-126.77"/>
</a>
</g>
</g>
<!-- Node5 -->
<g id="Node000005" class="node">
<title>Node5</title>
<g id="a_Node000005"><a xlink:href="../../dd/de3/classchdr_1_1mazes_1_1grid_a26abb5332fbee454974e5ce9ba4de82f.html#a26abb5332fbee454974e5ce9ba4de82f" target="_top" xlink:title="Determines whether a cell is transitory based on its neighbours.">
<polygon fill="white" stroke="#666666" points="269,-122 210,-122 210,-105 269,-105 269,-122"/>
<text text-anchor="middle" x="239.5" y="-111.6" font-family="Helvetica,sans-Serif" font-size="8.00">is_transitory</text>
</a>
</g>
</g>
<!-- Node1&#45;&gt;Node5 -->
<g id="edge4_Node000001_Node000005" class="edge">
<title>Node1&#45;&gt;Node5</title>
<g id="a_edge4_Node000001_Node000005"><a xlink:title=" ">
<path fill="none" stroke="#63b8ff" d="M357.82,-113.5C332.49,-113.5 294.84,-113.5 269.06,-113.5"/>
<polygon fill="#63b8ff" stroke="#63b8ff" points="357.86,-117 367.86,-113.5 357.86,-110 357.86,-117"/>
</a>
</g>
</g>
<!-- Node6 -->
<g id="Node000006" class="node">
<title>Node6</title>
<g id="a_Node000006"><a xlink:href="../../de/de1/classchdr_1_1mazes_1_1grid_3_01coord__t_00_01bool_01_4_a26abb5332fbee454974e5ce9ba4de82f.html#a26abb5332fbee454974e5ce9ba4de82f" target="_top" xlink:title="Determines whether a cell is transitory based on its neighbours.">
<polygon fill="white" stroke="#666666" points="332,-87 147,-87 147,-70 332,-70 332,-87"/>
<text text-anchor="middle" x="239.5" y="-76.6" font-family="Helvetica,sans-Serif" font-size="8.00">chdr::mazes::grid&lt; coord_t, bool &gt;::is_transitory</text>
</a>
</g>
</g>
<!-- Node1&#45;&gt;Node6 -->
<g id="edge5_Node000001_Node000006" class="edge">
<title>Node1&#45;&gt;Node6</title>
<g id="a_edge5_Node000001_Node000006"><a xlink:title=" ">
<path fill="none" stroke="#63b8ff" d="M358.33,-104.28C349.96,-101.56 340.65,-98.73 332,-96.5 318.36,-92.98 303.42,-89.78 289.65,-87.08"/>
<polygon fill="#63b8ff" stroke="#63b8ff" points="357.37,-107.65 367.96,-107.48 359.57,-101 357.37,-107.65"/>
</a>
</g>
</g>
<!-- Node7 -->
<g id="Node000007" class="node">
<title>Node7</title>
<g id="a_Node000007"><a xlink:href="../../dd/de3/classchdr_1_1mazes_1_1grid_a264c48c1d975bf357e96edcb92331ad2.html#a264c48c1d975bf357e96edcb92331ad2" target="_top" xlink:title="Determines whether a cell at the given index is transitory.">
<polygon fill="white" stroke="#666666" points="269,-52 210,-52 210,-35 269,-35 269,-52"/>
<text text-anchor="middle" x="239.5" y="-41.6" font-family="Helvetica,sans-Serif" font-size="8.00">is_transitory</text>
</a>
</g>
</g>
<!-- Node1&#45;&gt;Node7 -->
<g id="edge6_Node000001_Node000007" class="edge">
<title>Node1&#45;&gt;Node7</title>
<g id="a_edge6_Node000001_Node000007"><a xlink:title=" ">
<path fill="none" stroke="#63b8ff" d="M372.43,-96.79C362.7,-85.07 348.18,-70.03 332,-61.5 312.52,-51.23 287.92,-46.8 269.13,-44.89"/>
<polygon fill="#63b8ff" stroke="#63b8ff" points="369.94,-99.27 378.89,-104.94 375.42,-94.93 369.94,-99.27"/>
</a>
</g>
</g>
<!-- Node8 -->
<g id="Node000008" class="node">
<title>Node8</title>
<g id="a_Node000008"><a xlink:href="../../de/de1/classchdr_1_1mazes_1_1grid_3_01coord__t_00_01bool_01_4_a264c48c1d975bf357e96edcb92331ad2.html#a264c48c1d975bf357e96edcb92331ad2" target="_top" xlink:title="Determines whether a cell at the given index is transitory.">
<polygon fill="white" stroke="#666666" points="332,-17 147,-17 147,0 332,0 332,-17"/>
<text text-anchor="middle" x="239.5" y="-6.6" font-family="Helvetica,sans-Serif" font-size="8.00">chdr::mazes::grid&lt; coord_t, bool &gt;::is_transitory</text>
</a>
</g>
</g>
<!-- Node1&#45;&gt;Node8 -->
<g id="edge8_Node000001_Node000008" class="edge">
<title>Node1&#45;&gt;Node8</title>
<g id="a_edge8_Node000001_Node000008"><a xlink:title=" ">
<path fill="none" stroke="#63b8ff" d="M379.02,-95.39C371.4,-75.27 356.23,-43.39 332,-26.5 326.42,-22.61 320.21,-19.51 313.73,-17.05"/>
<polygon fill="#63b8ff" stroke="#63b8ff" points="375.77,-96.69 382.41,-104.94 382.36,-94.35 375.77,-96.69"/>
</a>
</g>
</g>
<!-- Node7&#45;&gt;Node2 -->
<g id="edge7_Node000007_Node000002" class="edge">
<title>Node7&#45;&gt;Node2</title>
<g id="a_edge7_Node000007_Node000002"><a xlink:title=" ">
<path fill="none" stroke="#63b8ff" d="M199.8,-47.08C183.02,-49.64 163.48,-54.02 147,-61.5 113,-76.94 80.13,-107.45 65.07,-122.58"/>
<polygon fill="#63b8ff" stroke="#63b8ff" points="200.4,-50.53 209.84,-45.71 199.46,-43.59 200.4,-50.53"/>
</a>
</g>
</g>
</g>
</svg>
