<?xml version="1.0" encoding="UTF-8" standalone="no"?>
<!DOCTYPE svg PUBLIC "-//W3C//DTD SVG 1.1//EN"
 "http://www.w3.org/Graphics/SVG/1.1/DTD/svg11.dtd">
<!-- Generated by graphviz version 2.42.4 (0)
 -->
<!-- Title: count Pages: 1 -->
<svg width="265pt" height="270pt"
 viewBox="0.00 0.00 265.00 270.00" xmlns="http://www.w3.org/2000/svg" xmlns:xlink="http://www.w3.org/1999/xlink">
<g id="graph0" class="graph" transform="scale(1 1) rotate(0) translate(4 266)">
<title>count</title>
<!-- Node1 -->
<g id="Node000001" class="node">
<title>Node1</title>
<g id="a_Node000001"><a xlink:title="Retrieves the total count of elements in the grid.">
<polygon fill="#999999" stroke="#666666" points="257,-139 221,-139 221,-122 257,-122 257,-139"/>
<text text-anchor="middle" x="239" y="-128.6" font-family="Helvetica,sans-Serif" font-size="8.00">count</text>
</a>
</g>
</g>
<!-- Node2 -->
<g id="Node000002" class="node">
<title>Node2</title>
<g id="a_Node000002"><a xlink:href="../../dd/de3/classchdr_1_1mazes_1_1grid_ab00c46b30252de392da24ac2192e6d0c.html#ab00c46b30252de392da24ac2192e6d0c" target="_top" xlink:title="Determines whether the given identifier is within the bounds of the grid.">
<polygon fill="white" stroke="#666666" points="115.5,-262 69.5,-262 69.5,-245 115.5,-245 115.5,-262"/>
<text text-anchor="middle" x="92.5" y="-251.6" font-family="Helvetica,sans-Serif" font-size="8.00">contains</text>
</a>
</g>
</g>
<!-- Node1&#45;&gt;Node2 -->
<g id="edge1_Node000001_Node000002" class="edge">
<title>Node1&#45;&gt;Node2</title>
<g id="a_edge1_Node000001_Node000002"><a xlink:title=" ">
<path fill="none" stroke="#63b8ff" d="M234.1,-149.01C228.01,-173.14 213.8,-214.81 185,-236.5 164.99,-251.56 135.67,-254.62 115.65,-254.68"/>
<polygon fill="#63b8ff" stroke="#63b8ff" points="237.57,-149.55 236.42,-139.02 230.75,-147.97 237.57,-149.55"/>
</a>
</g>
</g>
<!-- Node3 -->
<g id="Node000003" class="node">
<title>Node3</title>
<g id="a_Node000003"><a xlink:href="../../de/de1/classchdr_1_1mazes_1_1grid_3_01coord__t_00_01bool_01_4_ab00c46b30252de392da24ac2192e6d0c.html#ab00c46b30252de392da24ac2192e6d0c" target="_top" xlink:title="Retrieves the node at a specified index.">
<polygon fill="white" stroke="#666666" points="178.5,-227 6.5,-227 6.5,-210 178.5,-210 178.5,-227"/>
<text text-anchor="middle" x="92.5" y="-216.6" font-family="Helvetica,sans-Serif" font-size="8.00">chdr::mazes::grid&lt; coord_t, bool &gt;::contains</text>
</a>
</g>
</g>
<!-- Node1&#45;&gt;Node3 -->
<g id="edge2_Node000001_Node000003" class="edge">
<title>Node1&#45;&gt;Node3</title>
<g id="a_edge2_Node000001_Node000003"><a xlink:title=" ">
<path fill="none" stroke="#63b8ff" d="M229.61,-148.31C220.86,-164.82 205.55,-188.71 185,-201.5 179.51,-204.91 173.51,-207.68 167.28,-209.91"/>
<polygon fill="#63b8ff" stroke="#63b8ff" points="232.85,-149.65 234.2,-139.15 226.59,-146.52 232.85,-149.65"/>
</a>
</g>
</g>
<!-- Node4 -->
<g id="Node000004" class="node">
<title>Node4</title>
<g id="a_Node000004"><a xlink:href="../../dd/de3/classchdr_1_1mazes_1_1grid_aa4c65b07bb99339e36866bae671d47f6.html#aa4c65b07bb99339e36866bae671d47f6" target="_top" xlink:title="Determines whether the given identifier is within the bounds of the grid.">
<polygon fill="white" stroke="#666666" points="115.5,-192 69.5,-192 69.5,-175 115.5,-175 115.5,-192"/>
<text text-anchor="middle" x="92.5" y="-181.6" font-family="Helvetica,sans-Serif" font-size="8.00">contains</text>
</a>
</g>
</g>
<!-- Node1&#45;&gt;Node4 -->
<g id="edge3_Node000001_Node000004" class="edge">
<title>Node1&#45;&gt;Node4</title>
<g id="a_edge3_Node000001_Node000004"><a xlink:title=" ">
<path fill="none" stroke="#63b8ff" d="M220.07,-145.43C210.28,-152.85 197.6,-161.32 185,-166.5 162.44,-175.78 134.66,-180.03 115.66,-181.95"/>
<polygon fill="#63b8ff" stroke="#63b8ff" points="222.5,-147.98 228.17,-139.03 218.16,-142.49 222.5,-147.98"/>
</a>
</g>
</g>
<!-- Node5 -->
<g id="Node000005" class="node">
<title>Node5</title>
<g id="a_Node000005"><a xlink:href="../../de/de1/classchdr_1_1mazes_1_1grid_3_01coord__t_00_01bool_01_4_aa4c65b07bb99339e36866bae671d47f6.html#aa4c65b07bb99339e36866bae671d47f6" target="_top" xlink:title="Determines whether the given identifier is within the bounds of the grid.">
<polygon fill="white" stroke="#666666" points="178.5,-157 6.5,-157 6.5,-140 178.5,-140 178.5,-157"/>
<text text-anchor="middle" x="92.5" y="-146.6" font-family="Helvetica,sans-Serif" font-size="8.00">chdr::mazes::grid&lt; coord_t, bool &gt;::contains</text>
</a>
</g>
</g>
<!-- Node1&#45;&gt;Node5 -->
<g id="edge4_Node000001_Node000005" class="edge">
<title>Node1&#45;&gt;Node5</title>
<g id="a_edge4_Node000001_Node000005"><a xlink:title=" ">
<path fill="none" stroke="#63b8ff" d="M210.55,-133.92C196.63,-135.65 179.03,-137.85 161.75,-140"/>
<polygon fill="#63b8ff" stroke="#63b8ff" points="211.37,-137.34 220.86,-132.64 210.5,-130.4 211.37,-137.34"/>
</a>
</g>
</g>
<!-- Node6 -->
<g id="Node000006" class="node">
<title>Node6</title>
<g id="a_Node000006"><a xlink:href="../../dd/de3/classchdr_1_1mazes_1_1grid_a26abb5332fbee454974e5ce9ba4de82f.html#a26abb5332fbee454974e5ce9ba4de82f" target="_top" xlink:title="Determines whether a cell is transitory based on its neighbours.">
<polygon fill="white" stroke="#666666" points="122,-122 63,-122 63,-105 122,-105 122,-122"/>
<text text-anchor="middle" x="92.5" y="-111.6" font-family="Helvetica,sans-Serif" font-size="8.00">is_transitory</text>
</a>
</g>
</g>
<!-- Node1&#45;&gt;Node6 -->
<g id="edge5_Node000001_Node000006" class="edge">
<title>Node1&#45;&gt;Node6</title>
<g id="a_edge5_Node000001_Node000006"><a xlink:title=" ">
<path fill="none" stroke="#63b8ff" d="M210.82,-127.3C185.49,-124.32 147.84,-119.89 122.06,-116.86"/>
<polygon fill="#63b8ff" stroke="#63b8ff" points="210.52,-130.79 220.86,-128.48 211.33,-123.84 210.52,-130.79"/>
</a>
</g>
</g>
<!-- Node7 -->
<g id="Node000007" class="node">
<title>Node7</title>
<g id="a_Node000007"><a xlink:href="../../de/de1/classchdr_1_1mazes_1_1grid_3_01coord__t_00_01bool_01_4_a26abb5332fbee454974e5ce9ba4de82f.html#a26abb5332fbee454974e5ce9ba4de82f" target="_top" xlink:title="Determines whether a cell is transitory based on its neighbours.">
<polygon fill="white" stroke="#666666" points="185,-87 0,-87 0,-70 185,-70 185,-87"/>
<text text-anchor="middle" x="92.5" y="-76.6" font-family="Helvetica,sans-Serif" font-size="8.00">chdr::mazes::grid&lt; coord_t, bool &gt;::is_transitory</text>
</a>
</g>
</g>
<!-- Node1&#45;&gt;Node7 -->
<g id="edge6_Node000001_Node000007" class="edge">
<title>Node1&#45;&gt;Node7</title>
<g id="a_edge6_Node000001_Node000007"><a xlink:title=" ">
<path fill="none" stroke="#63b8ff" d="M219.19,-115.96C209.46,-109.1 197.11,-101.37 185,-96.5 175.24,-92.57 164.53,-89.48 153.99,-87.05"/>
<polygon fill="#63b8ff" stroke="#63b8ff" points="217.17,-118.81 227.3,-121.9 221.3,-113.17 217.17,-118.81"/>
</a>
</g>
</g>
<!-- Node8 -->
<g id="Node000008" class="node">
<title>Node8</title>
<g id="a_Node000008"><a xlink:href="../../dd/de3/classchdr_1_1mazes_1_1grid_a264c48c1d975bf357e96edcb92331ad2.html#a264c48c1d975bf357e96edcb92331ad2" target="_top" xlink:title="Determines whether a cell at the given index is transitory.">
<polygon fill="white" stroke="#666666" points="122,-52 63,-52 63,-35 122,-35 122,-52"/>
<text text-anchor="middle" x="92.5" y="-41.6" font-family="Helvetica,sans-Serif" font-size="8.00">is_transitory</text>
</a>
</g>
</g>
<!-- Node1&#45;&gt;Node8 -->
<g id="edge7_Node000001_Node000008" class="edge">
<title>Node1&#45;&gt;Node8</title>
<g id="a_edge7_Node000001_Node000008"><a xlink:title=" ">
<path fill="none" stroke="#63b8ff" d="M229.17,-112.73C220.27,-96.73 204.99,-73.89 185,-61.5 166.15,-49.81 141.27,-45.48 122.21,-43.98"/>
<polygon fill="#63b8ff" stroke="#63b8ff" points="226.12,-114.44 233.88,-121.65 232.31,-111.17 226.12,-114.44"/>
</a>
</g>
</g>
<!-- Node9 -->
<g id="Node000009" class="node">
<title>Node9</title>
<g id="a_Node000009"><a xlink:href="../../de/de1/classchdr_1_1mazes_1_1grid_3_01coord__t_00_01bool_01_4_a264c48c1d975bf357e96edcb92331ad2.html#a264c48c1d975bf357e96edcb92331ad2" target="_top" xlink:title="Determines whether a cell at the given index is transitory.">
<polygon fill="white" stroke="#666666" points="185,-17 0,-17 0,0 185,0 185,-17"/>
<text text-anchor="middle" x="92.5" y="-6.6" font-family="Helvetica,sans-Serif" font-size="8.00">chdr::mazes::grid&lt; coord_t, bool &gt;::is_transitory</text>
</a>
</g>
</g>
<!-- Node1&#45;&gt;Node9 -->
<g id="edge8_Node000001_Node000009" class="edge">
<title>Node1&#45;&gt;Node9</title>
<g id="a_edge8_Node000001_Node000009"><a xlink:title=" ">
<path fill="none" stroke="#63b8ff" d="M233.87,-112.02C227.57,-88.34 213.2,-47.8 185,-26.5 179.96,-22.69 174.33,-19.63 168.42,-17.17"/>
<polygon fill="#63b8ff" stroke="#63b8ff" points="230.5,-112.98 236.28,-121.86 237.3,-111.32 230.5,-112.98"/>
</a>
</g>
</g>
</g>
</svg>
