<?xml version="1.0" encoding="UTF-8" standalone="no"?>
<!DOCTYPE svg PUBLIC "-//W3C//DTD SVG 1.1//EN"
 "http://www.w3.org/Graphics/SVG/1.1/DTD/svg11.dtd">
<!-- Generated by graphviz version 2.42.4 (0)
 -->
<!-- Title: operator[] Pages: 1 -->
<svg width="311pt" height="95pt"
 viewBox="0.00 0.00 311.50 95.00" xmlns="http://www.w3.org/2000/svg" xmlns:xlink="http://www.w3.org/1999/xlink">
<g id="graph0" class="graph" transform="scale(1 1) rotate(0) translate(4 91)">
<title>operator[]</title>
<!-- Node1 -->
<g id="Node000001" class="node">
<title>Node1</title>
<g id="a_Node000001"><a xlink:title="Retrieves the node at a specified coordinate.">
<polygon fill="#999999" stroke="#666666" points="301,-52 243,-52 243,-35 301,-35 301,-52"/>
<text text-anchor="middle" x="272" y="-41.6" font-family="Helvetica,sans-Serif" font-size="8.00">operator[]</text>
</a>
</g>
</g>
<!-- Node1&#45;&gt;Node1 -->
<g id="edge2_Node000001_Node000001" class="edge">
<title>Node1&#45;&gt;Node1</title>
<g id="a_edge2_Node000001_Node000001"><a xlink:title=" ">
<path fill="none" stroke="#63b8ff" d="M303.5,-60.08C303.48,-65.59 292.98,-70 272,-70 241.48,-70 233.14,-60.67 246.97,-52.19"/>
<polygon fill="#63b8ff" stroke="#63b8ff" points="306.08,-57.7 297.03,-52.19 300.66,-62.14 306.08,-57.7"/>
</a>
</g>
</g>
<!-- Node2 -->
<g id="Node000002" class="node">
<title>Node2</title>
<g id="a_Node000002"><a xlink:href="../../de/de1/classchdr_1_1mazes_1_1grid_3_01coord__t_00_01bool_01_4_a7d575542c2bf3cf37dfbebf1d56a7bc9.html#a7d575542c2bf3cf37dfbebf1d56a7bc9" target="_top" xlink:title="Retrieves the node at a specified coordinate.">
<polygon fill="white" stroke="#666666" points="207,-87 0,-87 0,-70 207,-70 207,-87"/>
<text text-anchor="middle" x="103.5" y="-76.6" font-family="Helvetica,sans-Serif" font-size="8.00">chdr::mazes::grid&lt; coord_t, bool &gt;::operator[]</text>
</a>
</g>
</g>
<!-- Node1&#45;&gt;Node2 -->
<g id="edge1_Node000001_Node000002" class="edge">
<title>Node1&#45;&gt;Node2</title>
<g id="a_edge1_Node000001_Node000002"><a xlink:title=" ">
<path fill="none" stroke="#63b8ff" d="M233.34,-54.84C224.73,-57.22 215.58,-59.59 207,-61.5 192.74,-64.68 177.24,-67.55 162.72,-69.98"/>
<polygon fill="#63b8ff" stroke="#63b8ff" points="234.47,-58.15 243.13,-52.06 232.56,-51.42 234.47,-58.15"/>
</a>
</g>
</g>
<!-- Node3 -->
<g id="Node000003" class="node">
<title>Node3</title>
<g id="a_Node000003"><a xlink:href="../../dd/de3/classchdr_1_1mazes_1_1grid_a0804aafbf4991cf2d51f4aba926792a3.html#a0804aafbf4991cf2d51f4aba926792a3" target="_top" xlink:title="Retrieves the node at a specified index.">
<polygon fill="white" stroke="#666666" points="132.5,-52 74.5,-52 74.5,-35 132.5,-35 132.5,-52"/>
<text text-anchor="middle" x="103.5" y="-41.6" font-family="Helvetica,sans-Serif" font-size="8.00">operator[]</text>
</a>
</g>
</g>
<!-- Node1&#45;&gt;Node3 -->
<g id="edge3_Node000001_Node000003" class="edge">
<title>Node1&#45;&gt;Node3</title>
<g id="a_edge3_Node000001_Node000003"><a xlink:title=" ">
<path fill="none" stroke="#63b8ff" d="M232.48,-43.5C201.96,-43.5 160.03,-43.5 132.6,-43.5"/>
<polygon fill="#63b8ff" stroke="#63b8ff" points="232.76,-47 242.76,-43.5 232.76,-40 232.76,-47"/>
</a>
</g>
</g>
<!-- Node4 -->
<g id="Node000004" class="node">
<title>Node4</title>
<g id="a_Node000004"><a xlink:href="../../de/de1/classchdr_1_1mazes_1_1grid_3_01coord__t_00_01bool_01_4_afd69e166d5e3ad92fcc4f685b73cee3c.html#afd69e166d5e3ad92fcc4f685b73cee3c" target="_top" xlink:title="Retrieves the node at a specified index.">
<polygon fill="white" stroke="#666666" points="207,-17 0,-17 0,0 207,0 207,-17"/>
<text text-anchor="middle" x="103.5" y="-6.6" font-family="Helvetica,sans-Serif" font-size="8.00">chdr::mazes::grid&lt; coord_t, bool &gt;::operator[]</text>
</a>
</g>
</g>
<!-- Node1&#45;&gt;Node4 -->
<g id="edge4_Node000001_Node000004" class="edge">
<title>Node1&#45;&gt;Node4</title>
<g id="a_edge4_Node000001_Node000004"><a xlink:title=" ">
<path fill="none" stroke="#63b8ff" d="M233.05,-32.84C224.51,-30.61 215.47,-28.37 207,-26.5 191.21,-23.02 173.93,-19.78 158.13,-17.03"/>
<polygon fill="#63b8ff" stroke="#63b8ff" points="232.21,-36.24 242.77,-35.44 234.01,-29.48 232.21,-36.24"/>
</a>
</g>
</g>
</g>
</svg>
