<?xml version="1.0" encoding="UTF-8" standalone="no"?>
<!DOCTYPE svg PUBLIC "-//W3C//DTD SVG 1.1//EN"
 "http://www.w3.org/Graphics/SVG/1.1/DTD/svg11.dtd">
<!-- Generated by graphviz version 2.43.0 (0)
 -->
<!-- Title: get_neighbours Pages: 1 -->
<svg width="448pt" height="78pt"
 viewBox="0.00 0.00 448.00 78.00" xmlns="http://www.w3.org/2000/svg" xmlns:xlink="http://www.w3.org/1999/xlink">
<g id="graph0" class="graph" transform="scale(1 1) rotate(0) translate(4 74)">
<title>get_neighbours</title>
<!-- Node1 -->
<g id="Node000001" class="node">
<title>Node1</title>
<g id="a_Node000001"><a xlink:title="Retrieves the neighbours of a node within the grid.">
<polygon fill="#999999" stroke="#666666" points="440,-52 368,-52 368,-35 440,-35 440,-52"/>
<text text-anchor="middle" x="404" y="-41.6" font-family="Helvetica,sans-Serif" font-size="8.00">get_neighbours</text>
</a>
</g>
</g>
<!-- Node2 -->
<g id="Node000002" class="node">
<title>Node2</title>
<g id="a_Node000002"><a xlink:href="../../d9/dcb/classchdr_1_1mazes_1_1graph_a60033e7e4a2cecc9670870abd2e43555.html#a60033e7e4a2cecc9670870abd2e43555" target="_top" xlink:title="Constructs a graph instance from a grid structure.">
<polygon fill="white" stroke="#666666" points="111,-70 0,-70 0,-53 111,-53 111,-70"/>
<text text-anchor="middle" x="55.5" y="-59.6" font-family="Helvetica,sans-Serif" font-size="8.00">chdr::mazes::graph::graph</text>
</a>
</g>
</g>
<!-- Node1&#45;&gt;Node2 -->
<g id="edge1_Node000001_Node000002" class="edge">
<title>Node1&#45;&gt;Node2</title>
<g id="a_edge1_Node000001_Node000002"><a xlink:title=" ">
<path fill="none" stroke="#63b8ff" d="M366.33,-54.64C355.39,-57.46 343.3,-60.09 332,-61.5 255.82,-71.01 166.87,-68.59 111.11,-65.47"/>
<polygon fill="#63b8ff" stroke="#63b8ff" points="367.25,-58.02 375.99,-52.03 365.43,-51.26 367.25,-58.02"/>
</a>
</g>
</g>
<!-- Node3 -->
<g id="Node000003" class="node">
<title>Node3</title>
<g id="a_Node000003"><a xlink:href="../../dd/de3/classchdr_1_1mazes_1_1grid_a264c48c1d975bf357e96edcb92331ad2.html#a264c48c1d975bf357e96edcb92331ad2" target="_top" xlink:title="Determines whether a cell at the given index is transitory.">
<polygon fill="white" stroke="#666666" points="269,-52 210,-52 210,-35 269,-35 269,-52"/>
<text text-anchor="middle" x="239.5" y="-41.6" font-family="Helvetica,sans-Serif" font-size="8.00">is_transitory</text>
</a>
</g>
</g>
<!-- Node1&#45;&gt;Node3 -->
<g id="edge2_Node000001_Node000003" class="edge">
<title>Node1&#45;&gt;Node3</title>
<g id="a_edge2_Node000001_Node000003"><a xlink:title=" ">
<path fill="none" stroke="#63b8ff" d="M357.66,-43.5C329.32,-43.5 293.68,-43.5 269.2,-43.5"/>
<polygon fill="#63b8ff" stroke="#63b8ff" points="357.74,-47 367.74,-43.5 357.74,-40 357.74,-47"/>
</a>
</g>
</g>
<!-- Node4 -->
<g id="Node000004" class="node">
<title>Node4</title>
<g id="a_Node000004"><a xlink:href="../../de/de1/classchdr_1_1mazes_1_1grid_3_01coord__t_00_01bool_01_4_a264c48c1d975bf357e96edcb92331ad2.html#a264c48c1d975bf357e96edcb92331ad2" target="_top" xlink:title="Determines whether a cell at the given index is transitory.">
<polygon fill="white" stroke="#666666" points="332,-17 147,-17 147,0 332,0 332,-17"/>
<text text-anchor="middle" x="239.5" y="-6.6" font-family="Helvetica,sans-Serif" font-size="8.00">chdr::mazes::grid&lt; coord_t, bool &gt;::is_transitory</text>
</a>
</g>
</g>
<!-- Node1&#45;&gt;Node4 -->
<g id="edge4_Node000001_Node000004" class="edge">
<title>Node1&#45;&gt;Node4</title>
<g id="a_edge4_Node000001_Node000004"><a xlink:title=" ">
<path fill="none" stroke="#63b8ff" d="M358.66,-32.59C349.84,-30.5 340.64,-28.38 332,-26.5 316.97,-23.22 300.5,-19.9 285.72,-17.02"/>
<polygon fill="#63b8ff" stroke="#63b8ff" points="357.86,-36 368.4,-34.92 359.48,-29.19 357.86,-36"/>
</a>
</g>
</g>
<!-- Node3&#45;&gt;Node2 -->
<g id="edge3_Node000003_Node000002" class="edge">
<title>Node3&#45;&gt;Node2</title>
<g id="a_edge3_Node000003_Node000002"><a xlink:title=" ">
<path fill="none" stroke="#63b8ff" d="M199.54,-47.35C173.79,-49.9 139.69,-53.27 111.24,-56.09"/>
<polygon fill="#63b8ff" stroke="#63b8ff" points="200.05,-50.82 209.66,-46.35 199.37,-43.85 200.05,-50.82"/>
</a>
</g>
</g>
</g>
</svg>
