<?xml version="1.0" encoding="UTF-8" standalone="no"?>
<!DOCTYPE svg PUBLIC "-//W3C//DTD SVG 1.1//EN"
 "http://www.w3.org/Graphics/SVG/1.1/DTD/svg11.dtd">
<!-- Generated by graphviz version 2.42.4 (0)
 -->
<!-- Title: count Pages: 1 -->
<svg width="463pt" height="314pt"
 viewBox="0.00 0.00 463.00 313.63" xmlns="http://www.w3.org/2000/svg" xmlns:xlink="http://www.w3.org/1999/xlink">
<g id="graph0" class="graph" transform="scale(1 1) rotate(0) translate(4 309.63)">
<title>count</title>
<!-- Node1 -->
<g id="Node000001" class="node">
<title>Node1</title>
<g id="a_Node000001"><a xlink:title="Retrieves the total count of elements in the grid.">
<polygon fill="#999999" stroke="#666666" points="455,-157 415,-157 415,-140 455,-140 455,-157"/>
<text text-anchor="middle" x="435" y="-146.6" font-family="Helvetica,sans-Serif" font-size="8.00">count</text>
</a>
</g>
</g>
<!-- Node2 -->
<g id="Node000002" class="node">
<title>Node2</title>
<g id="a_Node000002"><a xlink:href="../../d9/dcb/classchdr_1_1mazes_1_1graph_a5ca1351a03df5ff49f85cc4b5669cefc.html#a5ca1351a03df5ff49f85cc4b5669cefc" target="_top" xlink:title="Constructs a graph instance from a grid structure.">
<polygon fill="white" stroke="#666666" points="128,-175 0,-175 0,-158 128,-158 128,-175"/>
<text text-anchor="middle" x="64" y="-164.6" font-family="Helvetica,sans-Serif" font-size="8.00">chdr::mazes::graph::graph</text>
</a>
</g>
</g>
<!-- Node1&#45;&gt;Node2 -->
<g id="edge1_Node000001_Node000002" class="edge">
<title>Node1&#45;&gt;Node2</title>
<g id="a_edge1_Node000001_Node000002"><a xlink:title=" ">
<path fill="none" stroke="#63b8ff" d="M431.88,-167.21C427.56,-195.48 414.88,-248.24 379,-271.5 298.82,-323.48 251.73,-309.36 164,-271.5 117.07,-251.25 82.07,-196.6 69.79,-175.23"/>
<polygon fill="#63b8ff" stroke="#63b8ff" points="435.38,-167.43 433.23,-157.06 428.44,-166.51 435.38,-167.43"/>
</a>
</g>
</g>
<!-- Node3 -->
<g id="Node000003" class="node">
<title>Node3</title>
<g id="a_Node000003"><a xlink:href="../../dd/de3/classchdr_1_1mazes_1_1grid_ab00c46b30252de392da24ac2192e6d0c.html#ab00c46b30252de392da24ac2192e6d0c" target="_top" xlink:title="Determines whether the given identifier is within the bounds of the grid.">
<polygon fill="white" stroke="#666666" points="297.5,-262 245.5,-262 245.5,-245 297.5,-245 297.5,-262"/>
<text text-anchor="middle" x="271.5" y="-251.6" font-family="Helvetica,sans-Serif" font-size="8.00">contains</text>
</a>
</g>
</g>
<!-- Node1&#45;&gt;Node3 -->
<g id="edge2_Node000001_Node000003" class="edge">
<title>Node1&#45;&gt;Node3</title>
<g id="a_edge2_Node000001_Node000003"><a xlink:title=" ">
<path fill="none" stroke="#63b8ff" d="M427.88,-166.71C419.99,-187.2 404.19,-219.8 379,-236.5 354.81,-252.53 320.87,-255.38 297.85,-255.14"/>
<polygon fill="#63b8ff" stroke="#63b8ff" points="431.19,-167.84 431.3,-157.24 424.61,-165.46 431.19,-167.84"/>
</a>
</g>
</g>
<!-- Node4 -->
<g id="Node000004" class="node">
<title>Node4</title>
<g id="a_Node000004"><a xlink:href="../../de/de1/classchdr_1_1mazes_1_1grid_3_01coord__t_00_01bool_01_4_ab00c46b30252de392da24ac2192e6d0c.html#ab00c46b30252de392da24ac2192e6d0c" target="_top" xlink:title="Retrieves the node at a specified index.">
<polygon fill="white" stroke="#666666" points="372,-227 171,-227 171,-210 372,-210 372,-227"/>
<text text-anchor="middle" x="271.5" y="-216.6" font-family="Helvetica,sans-Serif" font-size="8.00">chdr::mazes::grid&lt; coord_t, bool &gt;::contains</text>
</a>
</g>
</g>
<!-- Node1&#45;&gt;Node4 -->
<g id="edge3_Node000001_Node000004" class="edge">
<title>Node1&#45;&gt;Node4</title>
<g id="a_edge3_Node000001_Node000004"><a xlink:title=" ">
<path fill="none" stroke="#63b8ff" d="M421.28,-165.36C411.19,-177.44 396,-193.02 379,-201.5 372.05,-204.97 364.55,-207.76 356.87,-210"/>
<polygon fill="#63b8ff" stroke="#63b8ff" points="424.18,-167.33 427.68,-157.33 418.71,-162.97 424.18,-167.33"/>
</a>
</g>
</g>
<!-- Node5 -->
<g id="Node000005" class="node">
<title>Node5</title>
<g id="a_Node000005"><a xlink:href="../../dd/de3/classchdr_1_1mazes_1_1grid_aa4c65b07bb99339e36866bae671d47f6.html#aa4c65b07bb99339e36866bae671d47f6" target="_top" xlink:title="Determines whether the given identifier is within the bounds of the grid.">
<polygon fill="white" stroke="#666666" points="297.5,-192 245.5,-192 245.5,-175 297.5,-175 297.5,-192"/>
<text text-anchor="middle" x="271.5" y="-181.6" font-family="Helvetica,sans-Serif" font-size="8.00">contains</text>
</a>
</g>
</g>
<!-- Node1&#45;&gt;Node5 -->
<g id="edge4_Node000001_Node000005" class="edge">
<title>Node1&#45;&gt;Node5</title>
<g id="a_edge4_Node000001_Node000005"><a xlink:title=" ">
<path fill="none" stroke="#63b8ff" d="M405.18,-158.88C396.81,-161.64 387.61,-164.42 379,-166.5 351.52,-173.15 319.4,-177.87 297.68,-180.62"/>
<polygon fill="#63b8ff" stroke="#63b8ff" points="406.53,-162.12 414.87,-155.59 404.28,-155.49 406.53,-162.12"/>
</a>
</g>
</g>
<!-- Node6 -->
<g id="Node000006" class="node">
<title>Node6</title>
<g id="a_Node000006"><a xlink:href="../../de/de1/classchdr_1_1mazes_1_1grid_3_01coord__t_00_01bool_01_4_aa4c65b07bb99339e36866bae671d47f6.html#aa4c65b07bb99339e36866bae671d47f6" target="_top" xlink:title="Determines whether the given identifier is within the bounds of the grid.">
<polygon fill="white" stroke="#666666" points="372,-157 171,-157 171,-140 372,-140 372,-157"/>
<text text-anchor="middle" x="271.5" y="-146.6" font-family="Helvetica,sans-Serif" font-size="8.00">chdr::mazes::grid&lt; coord_t, bool &gt;::contains</text>
</a>
</g>
</g>
<!-- Node1&#45;&gt;Node6 -->
<g id="edge5_Node000001_Node000006" class="edge">
<title>Node1&#45;&gt;Node6</title>
<g id="a_edge5_Node000001_Node000006"><a xlink:title=" ">
<path fill="none" stroke="#63b8ff" d="M404.76,-148.5C395.15,-148.5 383.87,-148.5 372.02,-148.5"/>
<polygon fill="#63b8ff" stroke="#63b8ff" points="404.84,-152 414.84,-148.5 404.84,-145 404.84,-152"/>
</a>
</g>
</g>
<!-- Node7 -->
<g id="Node000007" class="node">
<title>Node7</title>
<g id="a_Node000007"><a xlink:href="../../dd/de3/classchdr_1_1mazes_1_1grid_a26abb5332fbee454974e5ce9ba4de82f.html#a26abb5332fbee454974e5ce9ba4de82f" target="_top" xlink:title="Determines whether a cell is transitory based on its neighbours.">
<polygon fill="white" stroke="#666666" points="304.5,-122 238.5,-122 238.5,-105 304.5,-105 304.5,-122"/>
<text text-anchor="middle" x="271.5" y="-111.6" font-family="Helvetica,sans-Serif" font-size="8.00">is_transitory</text>
</a>
</g>
</g>
<!-- Node1&#45;&gt;Node7 -->
<g id="edge6_Node000001_Node000007" class="edge">
<title>Node1&#45;&gt;Node7</title>
<g id="a_edge6_Node000001_Node000007"><a xlink:title=" ">
<path fill="none" stroke="#63b8ff" d="M405.13,-138.79C396.76,-136.19 387.57,-133.54 379,-131.5 354.37,-125.64 326.1,-120.95 304.88,-117.83"/>
<polygon fill="#63b8ff" stroke="#63b8ff" points="404.24,-142.18 414.83,-141.89 406.37,-135.51 404.24,-142.18"/>
</a>
</g>
</g>
<!-- Node8 -->
<g id="Node000008" class="node">
<title>Node8</title>
<g id="a_Node000008"><a xlink:href="../../de/de1/classchdr_1_1mazes_1_1grid_3_01coord__t_00_01bool_01_4_a26abb5332fbee454974e5ce9ba4de82f.html#a26abb5332fbee454974e5ce9ba4de82f" target="_top" xlink:title="Determines whether a cell is transitory based on its neighbours.">
<polygon fill="white" stroke="#666666" points="379,-87 164,-87 164,-70 379,-70 379,-87"/>
<text text-anchor="middle" x="271.5" y="-76.6" font-family="Helvetica,sans-Serif" font-size="8.00">chdr::mazes::grid&lt; coord_t, bool &gt;::is_transitory</text>
</a>
</g>
</g>
<!-- Node1&#45;&gt;Node8 -->
<g id="edge7_Node000001_Node000008" class="edge">
<title>Node1&#45;&gt;Node8</title>
<g id="a_edge7_Node000001_Node000008"><a xlink:title=" ">
<path fill="none" stroke="#63b8ff" d="M421.19,-132.01C411.06,-120.18 395.85,-104.9 379,-96.5 371.11,-92.57 362.53,-89.47 353.78,-87.04"/>
<polygon fill="#63b8ff" stroke="#63b8ff" points="418.58,-134.34 427.62,-139.87 424,-129.91 418.58,-134.34"/>
</a>
</g>
</g>
<!-- Node9 -->
<g id="Node000009" class="node">
<title>Node9</title>
<g id="a_Node000009"><a xlink:href="../../dd/de3/classchdr_1_1mazes_1_1grid_a264c48c1d975bf357e96edcb92331ad2.html#a264c48c1d975bf357e96edcb92331ad2" target="_top" xlink:title="Determines whether a cell at the given index is transitory.">
<polygon fill="white" stroke="#666666" points="304.5,-52 238.5,-52 238.5,-35 304.5,-35 304.5,-52"/>
<text text-anchor="middle" x="271.5" y="-41.6" font-family="Helvetica,sans-Serif" font-size="8.00">is_transitory</text>
</a>
</g>
</g>
<!-- Node1&#45;&gt;Node9 -->
<g id="edge8_Node000001_Node000009" class="edge">
<title>Node1&#45;&gt;Node9</title>
<g id="a_edge8_Node000001_Node000009"><a xlink:title=" ">
<path fill="none" stroke="#63b8ff" d="M427.69,-130.26C419.68,-110.02 403.84,-78.03 379,-61.5 357.15,-46.95 327.34,-42.93 304.82,-42.28"/>
<polygon fill="#63b8ff" stroke="#63b8ff" points="424.49,-131.72 431.25,-139.87 431.06,-129.28 424.49,-131.72"/>
</a>
</g>
</g>
<!-- Node10 -->
<g id="Node000010" class="node">
<title>Node10</title>
<g id="a_Node000010"><a xlink:href="../../de/de1/classchdr_1_1mazes_1_1grid_3_01coord__t_00_01bool_01_4_a264c48c1d975bf357e96edcb92331ad2.html#a264c48c1d975bf357e96edcb92331ad2" target="_top" xlink:title="Determines whether a cell at the given index is transitory.">
<polygon fill="white" stroke="#666666" points="379,-17 164,-17 164,0 379,0 379,-17"/>
<text text-anchor="middle" x="271.5" y="-6.6" font-family="Helvetica,sans-Serif" font-size="8.00">chdr::mazes::grid&lt; coord_t, bool &gt;::is_transitory</text>
</a>
</g>
</g>
<!-- Node1&#45;&gt;Node10 -->
<g id="edge10_Node000001_Node000010" class="edge">
<title>Node1&#45;&gt;Node10</title>
<g id="a_edge10_Node000001_Node000010"><a xlink:title=" ">
<path fill="none" stroke="#63b8ff" d="M431.11,-129.5C425.89,-102.13 412.15,-52.09 379,-26.5 374.1,-22.72 368.7,-19.61 363,-17.07"/>
<polygon fill="#63b8ff" stroke="#63b8ff" points="427.72,-130.44 432.86,-139.7 434.62,-129.26 427.72,-130.44"/>
</a>
</g>
</g>
<!-- Node9&#45;&gt;Node2 -->
<g id="edge9_Node000009_Node000002" class="edge">
<title>Node9&#45;&gt;Node2</title>
<g id="a_edge9_Node000009_Node000002"><a xlink:title=" ">
<path fill="none" stroke="#63b8ff" d="M227.78,-44.48C207.47,-46.46 183.43,-51.11 164,-61.5 119.15,-85.49 83.18,-137.46 70.21,-157.95"/>
<polygon fill="#63b8ff" stroke="#63b8ff" points="228.33,-47.95 238.02,-43.67 227.78,-40.97 228.33,-47.95"/>
</a>
</g>
</g>
</g>
</svg>
