<?xml version="1.0" encoding="UTF-8" standalone="no"?>
<!DOCTYPE svg PUBLIC "-//W3C//DTD SVG 1.1//EN"
 "http://www.w3.org/Graphics/SVG/1.1/DTD/svg11.dtd">
<!-- Generated by graphviz version 2.42.4 (0)
 -->
<!-- Title: get_neighbours Pages: 1 -->
<svg width="191pt" height="113pt"
 viewBox="0.00 0.00 191.00 113.00" xmlns="http://www.w3.org/2000/svg" xmlns:xlink="http://www.w3.org/1999/xlink">
<g id="graph0" class="graph" transform="scale(1 1) rotate(0) translate(4 109)">
<title>get_neighbours</title>
<!-- Node1 -->
<g id="Node000001" class="node">
<title>Node1</title>
<g id="a_Node000001"><a xlink:title="Retrieves the neighbours of a node within the grid.">
<polygon fill="#999999" stroke="#666666" points="72,-52 0,-52 0,-35 72,-35 72,-52"/>
<text text-anchor="middle" x="36" y="-41.6" font-family="Helvetica,sans-Serif" font-size="8.00">get_neighbours</text>
</a>
</g>
</g>
<!-- Node2 -->
<g id="Node000002" class="node">
<title>Node2</title>
<g id="a_Node000002"><a xlink:href="../../dd/de3/classchdr_1_1mazes_1_1grid_a0abdfb4af71cccf812fb2b7150f0cc72.html#a0abdfb4af71cccf812fb2b7150f0cc72" target="_top" xlink:title="Retrieves the neighbours of a node within the grid.">
<polygon fill="white" stroke="#666666" points="181.5,-87 109.5,-87 109.5,-70 181.5,-70 181.5,-87"/>
<text text-anchor="middle" x="145.5" y="-76.6" font-family="Helvetica,sans-Serif" font-size="8.00">get_neighbours</text>
</a>
</g>
</g>
<!-- Node1&#45;&gt;Node2 -->
<g id="edge1_Node000001_Node000002" class="edge">
<title>Node1&#45;&gt;Node2</title>
<g id="a_edge1_Node000001_Node000002"><a xlink:title=" ">
<path fill="none" stroke="#63b8ff" d="M63.3,-52.06C76.83,-56.47 93.54,-61.91 108.28,-66.71"/>
<polygon fill="#63b8ff" stroke="#63b8ff" points="107.51,-70.14 118.1,-69.91 109.68,-63.48 107.51,-70.14"/>
</a>
</g>
</g>
<!-- Node3 -->
<g id="Node000003" class="node">
<title>Node3</title>
<g id="a_Node000003"><a xlink:href="../../dd/de3/classchdr_1_1mazes_1_1grid_a32d34adb7833cb15aa705c6c7ada57a8.html#a32d34adb7833cb15aa705c6c7ada57a8" target="_top" xlink:title="Retrieves the size of the grid.">
<polygon fill="white" stroke="#666666" points="160.5,-52 130.5,-52 130.5,-35 160.5,-35 160.5,-52"/>
<text text-anchor="middle" x="145.5" y="-41.6" font-family="Helvetica,sans-Serif" font-size="8.00">size</text>
</a>
</g>
</g>
<!-- Node1&#45;&gt;Node3 -->
<g id="edge3_Node000001_Node000003" class="edge">
<title>Node1&#45;&gt;Node3</title>
<g id="a_edge3_Node000001_Node000003"><a xlink:title=" ">
<path fill="none" stroke="#63b8ff" d="M72.2,-43.5C87.85,-43.5 105.9,-43.5 120.05,-43.5"/>
<polygon fill="#63b8ff" stroke="#63b8ff" points="120.44,-47 130.44,-43.5 120.44,-40 120.44,-47"/>
</a>
</g>
</g>
<!-- Node4 -->
<g id="Node000004" class="node">
<title>Node4</title>
<g id="a_Node000004"><a xlink:href="../../d2/dcb/structchdr_1_1utils_aa56b3789fceb847816a4fef606f80dfb.html#aa56b3789fceb847816a4fef606f80dfb" target="_top" xlink:title="Maps a one&#45;dimensional index to a multidimensional coordinate representation.">
<polygon fill="white" stroke="#666666" points="183,-17 108,-17 108,0 183,0 183,-17"/>
<text text-anchor="middle" x="145.5" y="-6.6" font-family="Helvetica,sans-Serif" font-size="8.00">chdr::utils::to_nd</text>
</a>
</g>
</g>
<!-- Node1&#45;&gt;Node4 -->
<g id="edge4_Node000001_Node000004" class="edge">
<title>Node1&#45;&gt;Node4</title>
<g id="a_edge4_Node000001_Node000004"><a xlink:title=" ">
<path fill="none" stroke="#63b8ff" d="M63.3,-34.94C76.83,-30.53 93.54,-25.09 108.28,-20.29"/>
<polygon fill="#63b8ff" stroke="#63b8ff" points="109.68,-23.52 118.1,-17.09 107.51,-16.86 109.68,-23.52"/>
</a>
</g>
</g>
<!-- Node2&#45;&gt;Node2 -->
<g id="edge2_Node000002_Node000002" class="edge">
<title>Node2&#45;&gt;Node2</title>
<g id="a_edge2_Node000002_Node000002"><a xlink:title=" ">
<path fill="none" stroke="#63b8ff" d="M129.41,-87.19C120.52,-95.67 125.88,-105 145.5,-105 157.76,-105 164.45,-101.36 165.58,-96.55"/>
<polygon fill="#63b8ff" stroke="#63b8ff" points="168.73,-95.02 161.59,-87.19 162.29,-97.76 168.73,-95.02"/>
</a>
</g>
</g>
</g>
</svg>
