<?xml version="1.0" encoding="UTF-8" standalone="no"?>
<!DOCTYPE svg PUBLIC "-//W3C//DTD SVG 1.1//EN"
 "http://www.w3.org/Graphics/SVG/1.1/DTD/svg11.dtd">
<!-- Generated by graphviz version 2.42.4 (0)
 -->
<!-- Title: is_transitory Pages: 1 -->
<svg width="175pt" height="78pt"
 viewBox="0.00 0.00 175.00 78.00" xmlns="http://www.w3.org/2000/svg" xmlns:xlink="http://www.w3.org/1999/xlink">
<g id="graph0" class="graph" transform="scale(1 1) rotate(0) translate(4 74)">
<title>is_transitory</title>
<!-- Node1 -->
<g id="Node000001" class="node">
<title>Node1</title>
<g id="a_Node000001"><a xlink:title="Determines whether a cell at the given index is transitory.">
<polygon fill="#999999" stroke="#666666" points="59,-43 0,-43 0,-26 59,-26 59,-43"/>
<text text-anchor="middle" x="29.5" y="-32.6" font-family="Helvetica,sans-Serif" font-size="8.00">is_transitory</text>
</a>
</g>
</g>
<!-- Node2 -->
<g id="Node000002" class="node">
<title>Node2</title>
<g id="a_Node000002"><a xlink:href="../../dd/de3/classchdr_1_1mazes_1_1grid_ad6077e456dd6abb62d82087b55dc2331.html#ad6077e456dd6abb62d82087b55dc2331" target="_top" xlink:title="Retrieves the total count of elements in the grid.">
<polygon fill="white" stroke="#666666" points="149,-70 113,-70 113,-53 149,-53 149,-70"/>
<text text-anchor="middle" x="131" y="-59.6" font-family="Helvetica,sans-Serif" font-size="8.00">count</text>
</a>
</g>
</g>
<!-- Node1&#45;&gt;Node2 -->
<g id="edge1_Node000001_Node000002" class="edge">
<title>Node1&#45;&gt;Node2</title>
<g id="a_edge1_Node000001_Node000002"><a xlink:title=" ">
<path fill="none" stroke="#63b8ff" d="M59.01,-42.24C72.83,-45.99 89.34,-50.47 102.96,-54.16"/>
<polygon fill="#63b8ff" stroke="#63b8ff" points="102.15,-57.57 112.72,-56.81 103.99,-50.81 102.15,-57.57"/>
</a>
</g>
</g>
<!-- Node3 -->
<g id="Node000003" class="node">
<title>Node3</title>
<g id="a_Node000003"><a xlink:href="../../dd/de3/classchdr_1_1mazes_1_1grid_a0abdfb4af71cccf812fb2b7150f0cc72.html#a0abdfb4af71cccf812fb2b7150f0cc72" target="_top" xlink:title="Retrieves the neighbours of a node within the grid.">
<polygon fill="white" stroke="#666666" points="167,-17 95,-17 95,0 167,0 167,-17"/>
<text text-anchor="middle" x="131" y="-6.6" font-family="Helvetica,sans-Serif" font-size="8.00">get_neighbours</text>
</a>
</g>
</g>
<!-- Node1&#45;&gt;Node3 -->
<g id="edge2_Node000001_Node000003" class="edge">
<title>Node1&#45;&gt;Node3</title>
<g id="a_edge2_Node000001_Node000003"><a xlink:title=" ">
<path fill="none" stroke="#63b8ff" d="M59.01,-27.05C67.88,-24.73 77.85,-22.13 87.46,-19.62"/>
<polygon fill="#63b8ff" stroke="#63b8ff" points="88.48,-22.97 97.27,-17.05 86.71,-16.19 88.48,-22.97"/>
</a>
</g>
</g>
<!-- Node3&#45;&gt;Node3 -->
<g id="edge3_Node000003_Node000003" class="edge">
<title>Node3&#45;&gt;Node3</title>
<g id="a_edge3_Node000003_Node000003"><a xlink:title=" ">
<path fill="none" stroke="#63b8ff" d="M116.1,-17.19C107.87,-25.67 112.84,-35 131,-35 142.35,-35 148.55,-31.36 149.59,-26.55"/>
<polygon fill="#63b8ff" stroke="#63b8ff" points="152.82,-25.21 145.9,-17.19 146.31,-27.77 152.82,-25.21"/>
</a>
</g>
</g>
</g>
</svg>
