<?xml version="1.0" encoding="UTF-8" standalone="no"?>
<!DOCTYPE svg PUBLIC "-//W3C//DTD SVG 1.1//EN"
 "http://www.w3.org/Graphics/SVG/1.1/DTD/svg11.dtd">
<!-- Generated by graphviz version 2.43.0 (0)
 -->
<!-- Title: size Pages: 1 -->
<svg width="272pt" height="95pt"
 viewBox="0.00 0.00 272.00 95.00" xmlns="http://www.w3.org/2000/svg" xmlns:xlink="http://www.w3.org/1999/xlink">
<g id="graph0" class="graph" transform="scale(1 1) rotate(0) translate(4 91)">
<title>size</title>
<!-- Node1 -->
<g id="Node000001" class="node">
<title>Node1</title>
<g id="a_Node000001"><a xlink:title="Retrieves the size of the grid.">
<polygon fill="#999999" stroke="#666666" points="264,-52 234,-52 234,-35 264,-35 264,-52"/>
<text text-anchor="middle" x="249" y="-41.6" font-family="Helvetica,sans-Serif" font-size="8.00">size</text>
</a>
</g>
</g>
<!-- Node2 -->
<g id="Node000002" class="node">
<title>Node2</title>
<g id="a_Node000002"><a xlink:href="../../d9/dcb/classchdr_1_1mazes_1_1graph_a60033e7e4a2cecc9670870abd2e43555.html#a60033e7e4a2cecc9670870abd2e43555" target="_top" xlink:title="Constructs a graph instance from a grid structure.">
<polygon fill="white" stroke="#666666" points="154.5,-87 43.5,-87 43.5,-70 154.5,-70 154.5,-87"/>
<text text-anchor="middle" x="99" y="-76.6" font-family="Helvetica,sans-Serif" font-size="8.00">chdr::mazes::graph::graph</text>
</a>
</g>
</g>
<!-- Node1&#45;&gt;Node2 -->
<g id="edge1_Node000001_Node000002" class="edge">
<title>Node1&#45;&gt;Node2</title>
<g id="a_edge1_Node000001_Node000002"><a xlink:title=" ">
<path fill="none" stroke="#63b8ff" d="M224.39,-52.95C216.14,-56 206.75,-59.18 198,-61.5 184.06,-65.19 168.79,-68.28 154.54,-70.77"/>
<polygon fill="#63b8ff" stroke="#63b8ff" points="225.67,-56.21 233.77,-49.37 223.18,-49.67 225.67,-56.21"/>
</a>
</g>
</g>
<!-- Node3 -->
<g id="Node000003" class="node">
<title>Node3</title>
<g id="a_Node000003"><a xlink:href="../../dd/de3/classchdr_1_1mazes_1_1grid_ad242ff0ed9416b32cc9de01ef6ea09cf.html#ad242ff0ed9416b32cc9de01ef6ea09cf" target="_top" xlink:title="Retrieves the neighbours of a node within the grid.">
<polygon fill="white" stroke="#666666" points="135,-52 63,-52 63,-35 135,-35 135,-52"/>
<text text-anchor="middle" x="99" y="-41.6" font-family="Helvetica,sans-Serif" font-size="8.00">get_neighbours</text>
</a>
</g>
</g>
<!-- Node1&#45;&gt;Node3 -->
<g id="edge2_Node000001_Node000003" class="edge">
<title>Node1&#45;&gt;Node3</title>
<g id="a_edge2_Node000001_Node000003"><a xlink:title=" ">
<path fill="none" stroke="#63b8ff" d="M223.76,-43.5C199.71,-43.5 162.59,-43.5 135.27,-43.5"/>
<polygon fill="#63b8ff" stroke="#63b8ff" points="223.81,-47 233.81,-43.5 223.81,-40 223.81,-47"/>
</a>
</g>
</g>
<!-- Node4 -->
<g id="Node000004" class="node">
<title>Node4</title>
<g id="a_Node000004"><a xlink:href="../../de/de1/classchdr_1_1mazes_1_1grid_3_01coord__t_00_01bool_01_4_ad242ff0ed9416b32cc9de01ef6ea09cf.html#ad242ff0ed9416b32cc9de01ef6ea09cf" target="_top" xlink:title="Retrieves the neighbours of a node within the grid.">
<polygon fill="white" stroke="#666666" points="198,-17 0,-17 0,0 198,0 198,-17"/>
<text text-anchor="middle" x="99" y="-6.6" font-family="Helvetica,sans-Serif" font-size="8.00">chdr::mazes::grid&lt; coord_t, bool &gt;::get_neighbours</text>
</a>
</g>
</g>
<!-- Node1&#45;&gt;Node4 -->
<g id="edge3_Node000001_Node000004" class="edge">
<title>Node1&#45;&gt;Node4</title>
<g id="a_edge3_Node000001_Node000004"><a xlink:title=" ">
<path fill="none" stroke="#63b8ff" d="M224.06,-34.57C215.88,-31.73 206.61,-28.74 198,-26.5 184.02,-22.86 168.74,-19.68 154.48,-17.05"/>
<polygon fill="#63b8ff" stroke="#63b8ff" points="223.13,-37.95 233.73,-38.03 225.49,-31.36 223.13,-37.95"/>
</a>
</g>
</g>
</g>
</svg>
