<?xml version="1.0" encoding="UTF-8" standalone="no"?>
<!DOCTYPE svg PUBLIC "-//W3C//DTD SVG 1.1//EN"
 "http://www.w3.org/Graphics/SVG/1.1/DTD/svg11.dtd">
<!-- Generated by graphviz version 2.43.0 (0)
 -->
<!-- Title: contains Pages: 1 -->
<svg width="268pt" height="60pt"
 viewBox="0.00 0.00 268.00 60.00" xmlns="http://www.w3.org/2000/svg" xmlns:xlink="http://www.w3.org/1999/xlink">
<g id="graph0" class="graph" transform="scale(1 1) rotate(0) translate(4 56)">
<title>contains</title>
<!-- Node1 -->
<g id="Node000001" class="node">
<title>Node1</title>
<g id="a_Node000001"><a xlink:title="Determines whether the provided coordinate is within the bounds of the grid.">
<polygon fill="#999999" stroke="#666666" points="260,-34 214,-34 214,-17 260,-17 260,-34"/>
<text text-anchor="middle" x="237" y="-23.6" font-family="Helvetica,sans-Serif" font-size="8.00">contains</text>
</a>
</g>
</g>
<!-- Node2 -->
<g id="Node000002" class="node">
<title>Node2</title>
<g id="a_Node000002"><a xlink:href="../../de/de1/classchdr_1_1mazes_1_1grid_3_01coord__t_00_01bool_01_4_a5863ccd22a8132d40f1de39c92105115.html#a5863ccd22a8132d40f1de39c92105115" target="_top" xlink:title="Retrieves the node at a specified index.">
<polygon fill="white" stroke="#666666" points="178,-52 0,-52 0,-35 178,-35 178,-52"/>
<text text-anchor="middle" x="89" y="-41.6" font-family="Helvetica,sans-Serif" font-size="8.00">chdr::mazes::grid&lt; coord_t, bool &gt;::operator[]</text>
</a>
</g>
</g>
<!-- Node1&#45;&gt;Node2 -->
<g id="edge1_Node000001_Node000002" class="edge">
<title>Node1&#45;&gt;Node2</title>
<g id="a_edge1_Node000001_Node000002"><a xlink:title=" ">
<path fill="none" stroke="#63b8ff" d="M203.81,-29.47C190.54,-31.1 174.62,-33.07 158.95,-35"/>
<polygon fill="#63b8ff" stroke="#63b8ff" points="204.33,-32.93 213.83,-28.23 203.47,-25.98 204.33,-32.93"/>
</a>
</g>
</g>
<!-- Node3 -->
<g id="Node000003" class="node">
<title>Node3</title>
<g id="a_Node000003"><a xlink:href="../../dd/de3/classchdr_1_1mazes_1_1grid_a943b441c52cc08ef04269321f14cc1f9.html#a943b441c52cc08ef04269321f14cc1f9" target="_top" xlink:title="Retrieves the node at a specified index.">
<polygon fill="white" stroke="#666666" points="115,-17 63,-17 63,0 115,0 115,-17"/>
<text text-anchor="middle" x="89" y="-6.6" font-family="Helvetica,sans-Serif" font-size="8.00">operator[]</text>
</a>
</g>
</g>
<!-- Node1&#45;&gt;Node3 -->
<g id="edge2_Node000001_Node000003" class="edge">
<title>Node1&#45;&gt;Node3</title>
<g id="a_edge2_Node000001_Node000003"><a xlink:title=" ">
<path fill="none" stroke="#63b8ff" d="M203.81,-21.75C177.09,-18.64 139.62,-14.28 115.08,-11.42"/>
<polygon fill="#63b8ff" stroke="#63b8ff" points="203.49,-25.24 213.83,-22.92 204.3,-18.28 203.49,-25.24"/>
</a>
</g>
</g>
</g>
</svg>
