<?xml version="1.0" encoding="UTF-8" standalone="no"?>
<!DOCTYPE svg PUBLIC "-//W3C//DTD SVG 1.1//EN"
 "http://www.w3.org/Graphics/SVG/1.1/DTD/svg11.dtd">
<!-- Generated by graphviz version 2.42.4 (0)
 -->
<!-- Title: grid Pages: 1 -->
<svg width="146pt" height="43pt"
 viewBox="0.00 0.00 146.00 43.00" xmlns="http://www.w3.org/2000/svg" xmlns:xlink="http://www.w3.org/1999/xlink">
<g id="graph0" class="graph" transform="scale(1 1) rotate(0) translate(4 39)">
<title>grid</title>
<!-- Node1 -->
<g id="Node000001" class="node">
<title>Node1</title>
<g id="a_Node000001"><a xlink:title="Constructs a grid instance with the specified size and initial node values.">
<polygon fill="#999999" stroke="#666666" points="30,-17 0,-17 0,0 30,0 30,-17"/>
<text text-anchor="middle" x="15" y="-6.6" font-family="Helvetica,sans-Serif" font-size="8.00">grid</text>
</a>
</g>
</g>
<!-- Node2 -->
<g id="Node000002" class="node">
<title>Node2</title>
<g id="a_Node000002"><a xlink:href="../../dd/de3/classchdr_1_1mazes_1_1grid_a0abdfb4af71cccf812fb2b7150f0cc72.html#a0abdfb4af71cccf812fb2b7150f0cc72" target="_top" xlink:title="Retrieves the neighbours of a node within the grid.">
<polygon fill="white" stroke="#666666" points="138,-17 66,-17 66,0 138,0 138,-17"/>
<text text-anchor="middle" x="102" y="-6.6" font-family="Helvetica,sans-Serif" font-size="8.00">get_neighbours</text>
</a>
</g>
</g>
<!-- Node1&#45;&gt;Node2 -->
<g id="edge1_Node000001_Node000002" class="edge">
<title>Node1&#45;&gt;Node2</title>
<g id="a_edge1_Node000001_Node000002"><a xlink:title=" ">
<path fill="none" stroke="#63b8ff" d="M30.04,-8.5C37.17,-8.5 46.28,-8.5 55.58,-8.5"/>
<polygon fill="#63b8ff" stroke="#63b8ff" points="55.66,-12 65.66,-8.5 55.66,-5 55.66,-12"/>
</a>
</g>
</g>
<!-- Node2&#45;&gt;Node2 -->
<g id="edge2_Node000002_Node000002" class="edge">
<title>Node2&#45;&gt;Node2</title>
<g id="a_edge2_Node000002_Node000002"><a xlink:title=" ">
<path fill="none" stroke="#63b8ff" d="M89.19,-17.19C82.11,-25.67 86.38,-35 102,-35 111.52,-35 116.82,-31.54 117.91,-26.91"/>
<polygon fill="#63b8ff" stroke="#63b8ff" points="121.19,-25.65 114.81,-17.19 114.52,-27.78 121.19,-25.65"/>
</a>
</g>
</g>
</g>
</svg>
