<?xml version="1.0" encoding="UTF-8" standalone="no"?>
<!DOCTYPE svg PUBLIC "-//W3C//DTD SVG 1.1//EN"
 "http://www.w3.org/Graphics/SVG/1.1/DTD/svg11.dtd">
<!-- Generated by graphviz version 2.43.0 (0)
 -->
<!-- Title: contains Pages: 1 -->
<svg width="239pt" height="60pt"
 viewBox="0.00 0.00 239.00 60.00" xmlns="http://www.w3.org/2000/svg" xmlns:xlink="http://www.w3.org/1999/xlink">
<g id="graph0" class="graph" transform="scale(1 1) rotate(0) translate(4 56)">
<title>contains</title>
<!-- Node1 -->
<g id="Node000001" class="node">
<title>Node1</title>
<g id="a_Node000001"><a xlink:title="Determines whether the provided coordinate is within the bounds of the grid.">
<polygon fill="#999999" stroke="#666666" points="231,-34 185,-34 185,-17 231,-17 231,-34"/>
<text text-anchor="middle" x="208" y="-23.6" font-family="Helvetica,sans-Serif" font-size="8.00">contains</text>
</a>
</g>
</g>
<!-- Node2 -->
<g id="Node000002" class="node">
<title>Node2</title>
<g id="a_Node000002"><a xlink:href="../../de/de1/classchdr_1_1mazes_1_1grid_3_01coord__t_00_01bool_01_4_ab58cfd52d8229de59597dfca35e037c6.html#ab58cfd52d8229de59597dfca35e037c6" target="_top" xlink:title="Retrieves the node at a specified index.">
<polygon fill="white" stroke="#666666" points="149,-52 0,-52 0,-35 149,-35 149,-52"/>
<text text-anchor="middle" x="74.5" y="-41.6" font-family="Helvetica,sans-Serif" font-size="8.00">chdr::mazes::grid&lt; coord_t, bool &gt;::at</text>
</a>
</g>
</g>
<!-- Node1&#45;&gt;Node2 -->
<g id="edge1_Node000001_Node000002" class="edge">
<title>Node1&#45;&gt;Node2</title>
<g id="a_edge1_Node000001_Node000002"><a xlink:title=" ">
<path fill="none" stroke="#63b8ff" d="M174.86,-29.9C163.66,-31.43 150.68,-33.21 137.88,-34.96"/>
<polygon fill="#63b8ff" stroke="#63b8ff" points="175.56,-33.34 184.99,-28.51 174.61,-26.4 175.56,-33.34"/>
</a>
</g>
</g>
<!-- Node3 -->
<g id="Node000003" class="node">
<title>Node3</title>
<g id="a_Node000003"><a xlink:href="../../dd/de3/classchdr_1_1mazes_1_1grid_ae9339187e855ce031aaac1203aaa8a09.html#ae9339187e855ce031aaac1203aaa8a09" target="_top" xlink:title="Retrieves the node at a specified index.">
<polygon fill="white" stroke="#666666" points="89,-17 60,-17 60,0 89,0 89,-17"/>
<text text-anchor="middle" x="74.5" y="-6.6" font-family="Helvetica,sans-Serif" font-size="8.00">at</text>
</a>
</g>
</g>
<!-- Node1&#45;&gt;Node3 -->
<g id="edge2_Node000001_Node000003" class="edge">
<title>Node1&#45;&gt;Node3</title>
<g id="a_edge2_Node000001_Node000003"><a xlink:title=" ">
<path fill="none" stroke="#63b8ff" d="M175.05,-21.37C147.56,-17.82 109.25,-12.86 89.11,-10.26"/>
<polygon fill="#63b8ff" stroke="#63b8ff" points="174.62,-24.84 184.99,-22.65 175.52,-17.9 174.62,-24.84"/>
</a>
</g>
</g>
</g>
</svg>
