<?xml version="1.0" encoding="UTF-8" standalone="no"?>
<!DOCTYPE svg PUBLIC "-//W3C//DTD SVG 1.1//EN"
 "http://www.w3.org/Graphics/SVG/1.1/DTD/svg11.dtd">
<!-- Generated by graphviz version 2.42.4 (0)
 -->
<!-- Title: size Pages: 1 -->
<svg width="307pt" height="95pt"
 viewBox="0.00 0.00 307.00 95.00" xmlns="http://www.w3.org/2000/svg" xmlns:xlink="http://www.w3.org/1999/xlink">
<g id="graph0" class="graph" transform="scale(1 1) rotate(0) translate(4 91)">
<title>size</title>
<!-- Node1 -->
<g id="Node000001" class="node">
<title>Node1</title>
<g id="a_Node000001"><a xlink:title="Retrieves the size of the grid.">
<polygon fill="#999999" stroke="#666666" points="299,-52 266,-52 266,-35 299,-35 299,-52"/>
<text text-anchor="middle" x="282.5" y="-41.6" font-family="Helvetica,sans-Serif" font-size="8.00">size</text>
</a>
</g>
</g>
<!-- Node2 -->
<g id="Node000002" class="node">
<title>Node2</title>
<g id="a_Node000002"><a xlink:href="../../d9/dcb/classchdr_1_1mazes_1_1graph_a5ca1351a03df5ff49f85cc4b5669cefc.html#a5ca1351a03df5ff49f85cc4b5669cefc" target="_top" xlink:title="Constructs a graph instance from a grid structure.">
<polygon fill="white" stroke="#666666" points="179,-87 51,-87 51,-70 179,-70 179,-87"/>
<text text-anchor="middle" x="115" y="-76.6" font-family="Helvetica,sans-Serif" font-size="8.00">chdr::mazes::graph::graph</text>
</a>
</g>
</g>
<!-- Node1&#45;&gt;Node2 -->
<g id="edge1_Node000001_Node000002" class="edge">
<title>Node1&#45;&gt;Node2</title>
<g id="a_edge1_Node000001_Node000002"><a xlink:title=" ">
<path fill="none" stroke="#63b8ff" d="M256.45,-53.32C248.13,-56.29 238.76,-59.34 230,-61.5 213.68,-65.53 195.8,-68.75 179.13,-71.25"/>
<polygon fill="#63b8ff" stroke="#63b8ff" points="257.79,-56.55 265.95,-49.79 255.36,-49.99 257.79,-56.55"/>
</a>
</g>
</g>
<!-- Node3 -->
<g id="Node000003" class="node">
<title>Node3</title>
<g id="a_Node000003"><a xlink:href="../../dd/de3/classchdr_1_1mazes_1_1grid_a687d32619ba5c3eea0a9ab1ac599ffb8.html#a687d32619ba5c3eea0a9ab1ac599ffb8" target="_top" xlink:title="Retrieves the neighbours of a node within the grid.">
<polygon fill="white" stroke="#666666" points="155,-52 75,-52 75,-35 155,-35 155,-52"/>
<text text-anchor="middle" x="115" y="-41.6" font-family="Helvetica,sans-Serif" font-size="8.00">get_neighbours</text>
</a>
</g>
</g>
<!-- Node1&#45;&gt;Node3 -->
<g id="edge2_Node000001_Node000003" class="edge">
<title>Node1&#45;&gt;Node3</title>
<g id="a_edge2_Node000001_Node000003"><a xlink:title=" ">
<path fill="none" stroke="#63b8ff" d="M255.78,-43.5C228.89,-43.5 186.36,-43.5 155.27,-43.5"/>
<polygon fill="#63b8ff" stroke="#63b8ff" points="255.93,-47 265.93,-43.5 255.93,-40 255.93,-47"/>
</a>
</g>
</g>
<!-- Node4 -->
<g id="Node000004" class="node">
<title>Node4</title>
<g id="a_Node000004"><a xlink:href="../../de/de1/classchdr_1_1mazes_1_1grid_3_01coord__t_00_01bool_01_4_a687d32619ba5c3eea0a9ab1ac599ffb8.html#a687d32619ba5c3eea0a9ab1ac599ffb8" target="_top" xlink:title="Retrieves the neighbours of a node within the grid.">
<polygon fill="white" stroke="#666666" points="230,-17 0,-17 0,0 230,0 230,-17"/>
<text text-anchor="middle" x="115" y="-6.6" font-family="Helvetica,sans-Serif" font-size="8.00">chdr::mazes::grid&lt; coord_t, bool &gt;::get_neighbours</text>
</a>
</g>
</g>
<!-- Node1&#45;&gt;Node4 -->
<g id="edge3_Node000001_Node000004" class="edge">
<title>Node1&#45;&gt;Node4</title>
<g id="a_edge3_Node000001_Node000004"><a xlink:title=" ">
<path fill="none" stroke="#63b8ff" d="M256.4,-34.31C248.08,-31.51 238.72,-28.61 230,-26.5 214.52,-22.75 197.66,-19.59 181.77,-17.02"/>
<polygon fill="#63b8ff" stroke="#63b8ff" points="255.32,-37.64 265.91,-37.62 257.62,-31.03 255.32,-37.64"/>
</a>
</g>
</g>
</g>
</svg>
