<?xml version="1.0" encoding="UTF-8" standalone="no"?>
<!DOCTYPE svg PUBLIC "-//W3C//DTD SVG 1.1//EN"
 "http://www.w3.org/Graphics/SVG/1.1/DTD/svg11.dtd">
<!-- Generated by graphviz version 2.43.0 (0)
 -->
<!-- Title: count Pages: 1 -->
<svg width="265pt" height="200pt"
 viewBox="0.00 0.00 265.00 200.00" xmlns="http://www.w3.org/2000/svg" xmlns:xlink="http://www.w3.org/1999/xlink">
<g id="graph0" class="graph" transform="scale(1 1) rotate(0) translate(4 196)">
<title>count</title>
<!-- Node1 -->
<g id="Node000001" class="node">
<title>Node1</title>
<g id="a_Node000001"><a xlink:title="Retrieves the total count of elements in the grid.">
<polygon fill="#999999" stroke="#666666" points="257,-104 221,-104 221,-87 257,-87 257,-104"/>
<text text-anchor="middle" x="239" y="-93.6" font-family="Helvetica,sans-Serif" font-size="8.00">count</text>
</a>
</g>
</g>
<!-- Node2 -->
<g id="Node000002" class="node">
<title>Node2</title>
<g id="a_Node000002"><a xlink:href="../../dd/de3/classchdr_1_1mazes_1_1grid_ab00c46b30252de392da24ac2192e6d0c.html#ab00c46b30252de392da24ac2192e6d0c" target="_top" xlink:title="Determines whether the given identifier is within the bounds of the grid.">
<polygon fill="white" stroke="#666666" points="115.5,-192 69.5,-192 69.5,-175 115.5,-175 115.5,-192"/>
<text text-anchor="middle" x="92.5" y="-181.6" font-family="Helvetica,sans-Serif" font-size="8.00">contains</text>
</a>
</g>
</g>
<!-- Node1&#45;&gt;Node2 -->
<g id="edge1_Node000001_Node000002" class="edge">
<title>Node1&#45;&gt;Node2</title>
<g id="a_edge1_Node000001_Node000002"><a xlink:title=" ">
<path fill="none" stroke="#63b8ff" d="M229.61,-113.31C220.86,-129.82 205.55,-153.71 185,-166.5 164.01,-179.56 135.43,-183.08 115.82,-183.8"/>
<polygon fill="#63b8ff" stroke="#63b8ff" points="232.85,-114.65 234.2,-104.15 226.59,-111.52 232.85,-114.65"/>
</a>
</g>
</g>
<!-- Node3 -->
<g id="Node000003" class="node">
<title>Node3</title>
<g id="a_Node000003"><a xlink:href="../../de/de1/classchdr_1_1mazes_1_1grid_3_01coord__t_00_01bool_01_4_ab00c46b30252de392da24ac2192e6d0c.html#ab00c46b30252de392da24ac2192e6d0c" target="_top" xlink:title="Determines whether the given identifier is within the bounds of the grid.">
<polygon fill="white" stroke="#666666" points="178.5,-157 6.5,-157 6.5,-140 178.5,-140 178.5,-157"/>
<text text-anchor="middle" x="92.5" y="-146.6" font-family="Helvetica,sans-Serif" font-size="8.00">chdr::mazes::grid&lt; coord_t, bool &gt;::contains</text>
</a>
</g>
</g>
<!-- Node1&#45;&gt;Node3 -->
<g id="edge2_Node000001_Node000003" class="edge">
<title>Node1&#45;&gt;Node3</title>
<g id="a_edge2_Node000001_Node000003"><a xlink:title=" ">
<path fill="none" stroke="#63b8ff" d="M220.07,-110.43C210.28,-117.85 197.6,-126.32 185,-131.5 176.63,-134.94 167.55,-137.69 158.46,-139.89"/>
<polygon fill="#63b8ff" stroke="#63b8ff" points="222.5,-112.98 228.17,-104.03 218.16,-107.49 222.5,-112.98"/>
</a>
</g>
</g>
<!-- Node4 -->
<g id="Node000004" class="node">
<title>Node4</title>
<g id="a_Node000004"><a xlink:href="../../dd/de3/classchdr_1_1mazes_1_1grid_a26abb5332fbee454974e5ce9ba4de82f.html#a26abb5332fbee454974e5ce9ba4de82f" target="_top" xlink:title="Determines whether a cell is transitory based on its neighbours.">
<polygon fill="white" stroke="#666666" points="122,-122 63,-122 63,-105 122,-105 122,-122"/>
<text text-anchor="middle" x="92.5" y="-111.6" font-family="Helvetica,sans-Serif" font-size="8.00">is_transitory</text>
</a>
</g>
</g>
<!-- Node1&#45;&gt;Node4 -->
<g id="edge3_Node000001_Node000004" class="edge">
<title>Node1&#45;&gt;Node4</title>
<g id="a_edge3_Node000001_Node000004"><a xlink:title=" ">
<path fill="none" stroke="#63b8ff" d="M210.82,-98.89C185.49,-102.04 147.84,-106.73 122.06,-109.94"/>
<polygon fill="#63b8ff" stroke="#63b8ff" points="211.37,-102.34 220.86,-97.64 210.5,-95.4 211.37,-102.34"/>
</a>
</g>
</g>
<!-- Node5 -->
<g id="Node000005" class="node">
<title>Node5</title>
<g id="a_Node000005"><a xlink:href="../../de/de1/classchdr_1_1mazes_1_1grid_3_01coord__t_00_01bool_01_4_a26abb5332fbee454974e5ce9ba4de82f.html#a26abb5332fbee454974e5ce9ba4de82f" target="_top" xlink:title="Determines whether a cell is transitory based on its neighbours.">
<polygon fill="white" stroke="#666666" points="185,-87 0,-87 0,-70 185,-70 185,-87"/>
<text text-anchor="middle" x="92.5" y="-76.6" font-family="Helvetica,sans-Serif" font-size="8.00">chdr::mazes::grid&lt; coord_t, bool &gt;::is_transitory</text>
</a>
</g>
</g>
<!-- Node1&#45;&gt;Node5 -->
<g id="edge4_Node000001_Node000005" class="edge">
<title>Node1&#45;&gt;Node5</title>
<g id="a_edge4_Node000001_Node000005"><a xlink:title=" ">
<path fill="none" stroke="#63b8ff" d="M210.9,-92.31C198.07,-90.8 182.08,-88.92 166.07,-87.04"/>
<polygon fill="#63b8ff" stroke="#63b8ff" points="210.52,-95.79 220.86,-93.48 211.33,-88.84 210.52,-95.79"/>
</a>
</g>
</g>
<!-- Node6 -->
<g id="Node000006" class="node">
<title>Node6</title>
<g id="a_Node000006"><a xlink:href="../../dd/de3/classchdr_1_1mazes_1_1grid_a264c48c1d975bf357e96edcb92331ad2.html#a264c48c1d975bf357e96edcb92331ad2" target="_top" xlink:title="Determines whether a cell at the given index is transitory.">
<polygon fill="white" stroke="#666666" points="122,-52 63,-52 63,-35 122,-35 122,-52"/>
<text text-anchor="middle" x="92.5" y="-41.6" font-family="Helvetica,sans-Serif" font-size="8.00">is_transitory</text>
</a>
</g>
</g>
<!-- Node1&#45;&gt;Node6 -->
<g id="edge5_Node000001_Node000006" class="edge">
<title>Node1&#45;&gt;Node6</title>
<g id="a_edge5_Node000001_Node000006"><a xlink:title=" ">
<path fill="none" stroke="#63b8ff" d="M219.19,-80.96C209.46,-74.1 197.11,-66.37 185,-61.5 164.87,-53.41 140.75,-48.85 122.32,-46.35"/>
<polygon fill="#63b8ff" stroke="#63b8ff" points="217.17,-83.81 227.3,-86.9 221.3,-78.17 217.17,-83.81"/>
</a>
</g>
</g>
<!-- Node7 -->
<g id="Node000007" class="node">
<title>Node7</title>
<g id="a_Node000007"><a xlink:href="../../de/de1/classchdr_1_1mazes_1_1grid_3_01coord__t_00_01bool_01_4_a264c48c1d975bf357e96edcb92331ad2.html#a264c48c1d975bf357e96edcb92331ad2" target="_top" xlink:title="Determines whether a cell at the given index is transitory.">
<polygon fill="white" stroke="#666666" points="185,-17 0,-17 0,0 185,0 185,-17"/>
<text text-anchor="middle" x="92.5" y="-6.6" font-family="Helvetica,sans-Serif" font-size="8.00">chdr::mazes::grid&lt; coord_t, bool &gt;::is_transitory</text>
</a>
</g>
</g>
<!-- Node1&#45;&gt;Node7 -->
<g id="edge6_Node000001_Node000007" class="edge">
<title>Node1&#45;&gt;Node7</title>
<g id="a_edge6_Node000001_Node000007"><a xlink:title=" ">
<path fill="none" stroke="#63b8ff" d="M229.17,-77.73C220.27,-61.73 204.99,-38.89 185,-26.5 178.67,-22.58 171.66,-19.48 164.42,-17.04"/>
<polygon fill="#63b8ff" stroke="#63b8ff" points="226.12,-79.44 233.88,-86.65 232.31,-76.17 226.12,-79.44"/>
</a>
</g>
</g>
</g>
</svg>
