<?xml version="1.0" encoding="UTF-8" standalone="no"?>
<!DOCTYPE svg PUBLIC "-//W3C//DTD SVG 1.1//EN"
 "http://www.w3.org/Graphics/SVG/1.1/DTD/svg11.dtd">
<!-- Generated by graphviz version 2.43.0 (0)
 -->
<!-- Title: dfs.hpp Pages: 1 -->
<svg width="814pt" height="237pt"
 viewBox="0.00 0.00 814.12 237.00" xmlns="http://www.w3.org/2000/svg" xmlns:xlink="http://www.w3.org/1999/xlink">
<g id="graph0" class="graph" transform="scale(1 1) rotate(0) translate(4 233)">
<title>dfs.hpp</title>
<!-- Node1 -->
<g id="Node000001" class="node">
<title>Node1</title>
<g id="a_Node000001"><a xlink:title=" ">
<polygon fill="#999999" stroke="#666666" points="352.26,-229 309.26,-229 309.26,-212 352.26,-212 352.26,-229"/>
<text text-anchor="middle" x="330.76" y="-218.6" font-family="Helvetica,sans-Serif" font-size="8.00">dfs.hpp</text>
</a>
</g>
</g>
<!-- Node2 -->
<g id="Node000002" class="node">
<title>Node2</title>
<g id="a_Node000002"><a xlink:title=" ">
<polygon fill="#e0e0e0" stroke="#999999" points="350.76,-17 308.76,-17 308.76,0 350.76,0 350.76,-17"/>
<text text-anchor="middle" x="329.76" y="-6.6" font-family="Helvetica,sans-Serif" font-size="8.00">cstddef</text>
</a>
</g>
</g>
<!-- Node1&#45;&gt;Node2 -->
<g id="edge1_Node000001_Node000002" class="edge">
<title>Node1&#45;&gt;Node2</title>
<g id="a_edge1_Node000001_Node000002"><a xlink:title=" ">
<path fill="none" stroke="#63b8ff" d="M309.06,-219.99C244.37,-220.95 54.98,-219.89 16.76,-176 -69.17,-77.35 203.38,-27.73 298.36,-13.73"/>
<polygon fill="#63b8ff" stroke="#63b8ff" points="299.11,-17.16 308.51,-12.27 298.12,-10.23 299.11,-17.16"/>
</a>
</g>
</g>
<!-- Node3 -->
<g id="Node000003" class="node">
<title>Node3</title>
<g id="a_Node000003"><a xlink:title=" ">
<polygon fill="#e0e0e0" stroke="#999999" points="545.76,-123 507.76,-123 507.76,-106 545.76,-106 545.76,-123"/>
<text text-anchor="middle" x="526.76" y="-112.6" font-family="Helvetica,sans-Serif" font-size="8.00">vector</text>
</a>
</g>
</g>
<!-- Node1&#45;&gt;Node3 -->
<g id="edge2_Node000001_Node000003" class="edge">
<title>Node1&#45;&gt;Node3</title>
<g id="a_edge2_Node000001_Node000003"><a xlink:title=" ">
<path fill="none" stroke="#63b8ff" d="M352.32,-218.44C384.88,-215.85 447.21,-206.9 488.76,-176 503.67,-164.91 514.14,-146.08 520.27,-132.37"/>
<polygon fill="#63b8ff" stroke="#63b8ff" points="523.52,-133.67 524.1,-123.09 517.05,-131 523.52,-133.67"/>
</a>
</g>
</g>
<!-- Node4 -->
<g id="Node000004" class="node">
<title>Node4</title>
<g id="a_Node000004"><a xlink:href="../../d8/d62/existence__set_8hpp.html" target="_top" xlink:title=" ">
<polygon fill="white" stroke="#666666" points="479.26,-176 332.26,-176 332.26,-159 479.26,-159 479.26,-176"/>
<text text-anchor="middle" x="405.76" y="-165.6" font-family="Helvetica,sans-Serif" font-size="8.00">../types/containers/existence_set.hpp</text>
</a>
</g>
</g>
<!-- Node1&#45;&gt;Node4 -->
<g id="edge3_Node000001_Node000004" class="edge">
<title>Node1&#45;&gt;Node4</title>
<g id="a_edge3_Node000001_Node000004"><a xlink:title=" ">
<path fill="none" stroke="#63b8ff" d="M341.83,-211.97C353.46,-204.07 371.99,-191.46 386.12,-181.86"/>
<polygon fill="#63b8ff" stroke="#63b8ff" points="388.35,-184.57 394.65,-176.06 384.41,-178.78 388.35,-184.57"/>
</a>
</g>
</g>
<!-- Node9 -->
<g id="Node000009" class="node">
<title>Node9</title>
<g id="a_Node000009"><a xlink:href="../../df/d93/utils_8hpp.html" target="_top" xlink:title=" ">
<polygon fill="white" stroke="#666666" points="753.26,-123 678.26,-123 678.26,-106 753.26,-106 753.26,-123"/>
<text text-anchor="middle" x="715.76" y="-112.6" font-family="Helvetica,sans-Serif" font-size="8.00">../../utils/utils.hpp</text>
</a>
</g>
</g>
<!-- Node1&#45;&gt;Node9 -->
<g id="edge26_Node000001_Node000009" class="edge">
<title>Node1&#45;&gt;Node9</title>
<g id="a_edge26_Node000001_Node000009"><a xlink:title=" ">
<path fill="none" stroke="#63b8ff" d="M352.45,-218.45C416.37,-215.05 602.92,-203.03 656.76,-176 676.98,-165.85 694.25,-145.97 704.79,-131.77"/>
<polygon fill="#63b8ff" stroke="#63b8ff" points="707.78,-133.6 710.7,-123.42 702.06,-129.56 707.78,-133.6"/>
</a>
</g>
</g>
<!-- Node13 -->
<g id="Node000013" class="node">
<title>Node13</title>
<g id="a_Node000013"><a xlink:href="../../d7/d65/intrinsics_8hpp.html" target="_top" xlink:title=" ">
<polygon fill="#fff0f0" stroke="red" points="337.26,-70 252.26,-70 252.26,-53 337.26,-53 337.26,-70"/>
<text text-anchor="middle" x="294.76" y="-59.6" font-family="Helvetica,sans-Serif" font-size="8.00">../utils/intrinsics.hpp</text>
</a>
</g>
</g>
<!-- Node1&#45;&gt;Node13 -->
<g id="edge37_Node000001_Node000013" class="edge">
<title>Node1&#45;&gt;Node13</title>
<g id="a_edge37_Node000001_Node000013"><a xlink:title=" ">
<path fill="none" stroke="#63b8ff" d="M308.92,-219.87C245.65,-220.44 64.39,-218.27 27.76,-176 10.61,-156.21 26.15,-125.45 50.76,-106 79.7,-83.13 179.32,-71.38 241.97,-66.11"/>
<polygon fill="#63b8ff" stroke="#63b8ff" points="242.38,-69.59 252.07,-65.3 241.82,-62.62 242.38,-69.59"/>
</a>
</g>
</g>
<!-- Node16 -->
<g id="Node000016" class="node">
<title>Node16</title>
<g id="a_Node000016"><a xlink:href="../../df/d47/stack_8hpp.html" target="_top" xlink:title=" ">
<polygon fill="white" stroke="#666666" points="314.26,-176 197.26,-176 197.26,-159 314.26,-159 314.26,-176"/>
<text text-anchor="middle" x="255.76" y="-165.6" font-family="Helvetica,sans-Serif" font-size="8.00">../types/containers/stack.hpp</text>
</a>
</g>
</g>
<!-- Node1&#45;&gt;Node16 -->
<g id="edge21_Node000001_Node000016" class="edge">
<title>Node1&#45;&gt;Node16</title>
<g id="a_edge21_Node000001_Node000016"><a xlink:title=" ">
<path fill="none" stroke="#63b8ff" d="M319.69,-211.97C308.06,-204.07 289.53,-191.46 275.4,-181.86"/>
<polygon fill="#63b8ff" stroke="#63b8ff" points="277.11,-178.78 266.87,-176.06 273.17,-184.57 277.11,-178.78"/>
</a>
</g>
</g>
<!-- Node17 -->
<g id="Node000017" class="node">
<title>Node17</title>
<g id="a_Node000017"><a xlink:href="../../d2/d1c/solver_8hpp.html" target="_top" xlink:title=" ">
<polygon fill="white" stroke="#666666" points="647.76,-176 575.76,-176 575.76,-159 647.76,-159 647.76,-176"/>
<text text-anchor="middle" x="611.76" y="-165.6" font-family="Helvetica,sans-Serif" font-size="8.00">base/solver.hpp</text>
</a>
</g>
</g>
<!-- Node1&#45;&gt;Node17 -->
<g id="edge27_Node000001_Node000017" class="edge">
<title>Node1&#45;&gt;Node17</title>
<g id="a_edge27_Node000001_Node000017"><a xlink:title=" ">
<path fill="none" stroke="#63b8ff" d="M352.34,-215.58C397.66,-207.36 503.59,-188.13 565.16,-176.96"/>
<polygon fill="#63b8ff" stroke="#63b8ff" points="566.17,-180.33 575.38,-175.1 564.92,-173.44 566.17,-180.33"/>
</a>
</g>
</g>
<!-- Node18 -->
<g id="Node000018" class="node">
<title>Node18</title>
<g id="a_Node000018"><a xlink:href="../../d0/def/unmanaged__node_8hpp.html" target="_top" xlink:title=" ">
<polygon fill="white" stroke="#666666" points="154.26,-176 37.26,-176 37.26,-159 154.26,-159 154.26,-176"/>
<text text-anchor="middle" x="95.76" y="-165.6" font-family="Helvetica,sans-Serif" font-size="8.00">base/unmanaged_node.hpp</text>
</a>
</g>
</g>
<!-- Node1&#45;&gt;Node18 -->
<g id="edge34_Node000001_Node000018" class="edge">
<title>Node1&#45;&gt;Node18</title>
<g id="a_edge34_Node000001_Node000018"><a xlink:title=" ">
<path fill="none" stroke="#63b8ff" d="M309.07,-214.79C270.91,-206.51 191.02,-189.17 140.58,-178.23"/>
<polygon fill="#63b8ff" stroke="#63b8ff" points="141.11,-174.76 130.59,-176.06 139.62,-181.6 141.11,-174.76"/>
</a>
</g>
</g>
<!-- Node4&#45;&gt;Node2 -->
<g id="edge4_Node000004_Node000002" class="edge">
<title>Node4&#45;&gt;Node2</title>
<g id="a_edge4_Node000004_Node000002"><a xlink:title=" ">
<path fill="none" stroke="#63b8ff" d="M402.09,-158.93C390.49,-134.95 354.34,-60.27 337.96,-26.45"/>
<polygon fill="#63b8ff" stroke="#63b8ff" points="341.07,-24.84 333.57,-17.37 334.77,-27.89 341.07,-24.84"/>
</a>
</g>
</g>
<!-- Node4&#45;&gt;Node3 -->
<g id="edge9_Node000004_Node000003" class="edge">
<title>Node4&#45;&gt;Node3</title>
<g id="a_edge9_Node000004_Node000003"><a xlink:title=" ">
<path fill="none" stroke="#63b8ff" d="M423.61,-158.97C443.63,-150.54 476.32,-136.76 499.53,-126.98"/>
<polygon fill="#63b8ff" stroke="#63b8ff" points="500.98,-130.17 508.83,-123.06 498.26,-123.71 500.98,-130.17"/>
</a>
</g>
</g>
<!-- Node5 -->
<g id="Node000005" class="node">
<title>Node5</title>
<g id="a_Node000005"><a xlink:title=" ">
<polygon fill="#e0e0e0" stroke="#999999" points="453.76,-70 403.76,-70 403.76,-53 453.76,-53 453.76,-70"/>
<text text-anchor="middle" x="428.76" y="-59.6" font-family="Helvetica,sans-Serif" font-size="8.00">functional</text>
</a>
</g>
</g>
<!-- Node4&#45;&gt;Node5 -->
<g id="edge5_Node000004_Node000005" class="edge">
<title>Node4&#45;&gt;Node5</title>
<g id="a_edge5_Node000004_Node000005"><a xlink:title=" ">
<path fill="none" stroke="#63b8ff" d="M407.49,-158.68C411.15,-142.11 419.78,-103.11 424.85,-80.18"/>
<polygon fill="#63b8ff" stroke="#63b8ff" points="428.33,-80.64 427.07,-70.12 421.5,-79.13 428.33,-80.64"/>
</a>
</g>
</g>
<!-- Node6 -->
<g id="Node000006" class="node">
<title>Node6</title>
<g id="a_Node000006"><a xlink:title=" ">
<polygon fill="#e0e0e0" stroke="#999999" points="586.76,-70 552.76,-70 552.76,-53 586.76,-53 586.76,-70"/>
<text text-anchor="middle" x="569.76" y="-59.6" font-family="Helvetica,sans-Serif" font-size="8.00">limits</text>
</a>
</g>
</g>
<!-- Node4&#45;&gt;Node6 -->
<g id="edge6_Node000004_Node000006" class="edge">
<title>Node4&#45;&gt;Node6</title>
<g id="a_edge6_Node000004_Node000006"><a xlink:title=" ">
<path fill="none" stroke="#63b8ff" d="M417.15,-158.95C434.62,-147.4 469.12,-124.72 498.76,-106 515.25,-95.59 534.07,-84.07 548.19,-75.51"/>
<polygon fill="#63b8ff" stroke="#63b8ff" points="550.38,-78.27 557.13,-70.1 546.76,-72.28 550.38,-78.27"/>
</a>
</g>
</g>
<!-- Node7 -->
<g id="Node000007" class="node">
<title>Node7</title>
<g id="a_Node000007"><a xlink:title=" ">
<polygon fill="#e0e0e0" stroke="#999999" points="299.76,-123 217.76,-123 217.76,-106 299.76,-106 299.76,-123"/>
<text text-anchor="middle" x="258.76" y="-112.6" font-family="Helvetica,sans-Serif" font-size="8.00">memory_resource</text>
</a>
</g>
</g>
<!-- Node4&#45;&gt;Node7 -->
<g id="edge7_Node000004_Node000007" class="edge">
<title>Node4&#45;&gt;Node7</title>
<g id="a_edge7_Node000004_Node000007"><a xlink:title=" ">
<path fill="none" stroke="#63b8ff" d="M384.07,-158.97C359.32,-150.39 318.61,-136.27 290.34,-126.46"/>
<polygon fill="#63b8ff" stroke="#63b8ff" points="291.13,-123.03 280.54,-123.06 288.84,-129.64 291.13,-123.03"/>
</a>
</g>
</g>
<!-- Node8 -->
<g id="Node000008" class="node">
<title>Node8</title>
<g id="a_Node000008"><a xlink:title=" ">
<polygon fill="#e0e0e0" stroke="#999999" points="534.26,-70 481.26,-70 481.26,-53 534.26,-53 534.26,-70"/>
<text text-anchor="middle" x="507.76" y="-59.6" font-family="Helvetica,sans-Serif" font-size="8.00">type_traits</text>
</a>
</g>
</g>
<!-- Node4&#45;&gt;Node8 -->
<g id="edge8_Node000004_Node000008" class="edge">
<title>Node4&#45;&gt;Node8</title>
<g id="a_edge8_Node000004_Node000008"><a xlink:title=" ">
<path fill="none" stroke="#63b8ff" d="M413.43,-158.68C430.34,-141.43 471.11,-99.87 493.11,-77.44"/>
<polygon fill="#63b8ff" stroke="#63b8ff" points="495.78,-79.72 500.28,-70.12 490.78,-74.81 495.78,-79.72"/>
</a>
</g>
</g>
<!-- Node4&#45;&gt;Node9 -->
<g id="edge10_Node000004_Node000009" class="edge">
<title>Node4&#45;&gt;Node9</title>
<g id="a_edge10_Node000004_Node000009"><a xlink:title=" ">
<path fill="none" stroke="#63b8ff" d="M451.5,-158.97C509.49,-149.43 609,-133.06 667.96,-123.36"/>
<polygon fill="#63b8ff" stroke="#63b8ff" points="668.82,-126.77 678.12,-121.69 667.68,-119.86 668.82,-126.77"/>
</a>
</g>
</g>
<!-- Node4&#45;&gt;Node13 -->
<g id="edge20_Node000004_Node000013" class="edge">
<title>Node4&#45;&gt;Node13</title>
<g id="a_edge20_Node000004_Node000013"><a xlink:title=" ">
<path fill="none" stroke="#63b8ff" d="M395.46,-158.88C384.34,-150.49 366.25,-136.41 351.76,-123 336.1,-108.51 319.51,-90.57 308.29,-78"/>
<polygon fill="#63b8ff" stroke="#63b8ff" points="310.71,-75.45 301.46,-70.27 305.46,-80.08 310.71,-75.45"/>
</a>
</g>
</g>
<!-- Node9&#45;&gt;Node2 -->
<g id="edge13_Node000009_Node000002" class="edge">
<title>Node9&#45;&gt;Node2</title>
<g id="a_edge13_Node000009_Node000002"><a xlink:title=" ">
<path fill="none" stroke="#63b8ff" d="M701.84,-105.81C675.1,-91.14 617.28,-60 595.76,-53 513.68,-26.3 411.77,-15.49 361.23,-11.54"/>
<polygon fill="#63b8ff" stroke="#63b8ff" points="361.2,-8.02 350.97,-10.77 360.68,-15 361.2,-8.02"/>
</a>
</g>
</g>
<!-- Node9&#45;&gt;Node5 -->
<g id="edge14_Node000009_Node000005" class="edge">
<title>Node9&#45;&gt;Node5</title>
<g id="a_edge14_Node000009_Node000005"><a xlink:title=" ">
<path fill="none" stroke="#63b8ff" d="M678.24,-106.83C622.43,-96.91 518.29,-78.41 463.89,-68.74"/>
<polygon fill="#63b8ff" stroke="#63b8ff" points="464.48,-65.29 454.02,-66.99 463.25,-72.18 464.48,-65.29"/>
</a>
</g>
</g>
<!-- Node9&#45;&gt;Node6 -->
<g id="edge15_Node000009_Node000006" class="edge">
<title>Node9&#45;&gt;Node6</title>
<g id="a_edge15_Node000009_Node000006"><a xlink:title=" ">
<path fill="none" stroke="#63b8ff" d="M694.22,-105.97C668.22,-96.89 624.51,-81.62 596.41,-71.81"/>
<polygon fill="#63b8ff" stroke="#63b8ff" points="597.42,-68.46 586.83,-68.46 595.12,-75.06 597.42,-68.46"/>
</a>
</g>
</g>
<!-- Node9&#45;&gt;Node8 -->
<g id="edge17_Node000009_Node000008" class="edge">
<title>Node9&#45;&gt;Node8</title>
<g id="a_edge17_Node000009_Node000008"><a xlink:title=" ">
<path fill="none" stroke="#63b8ff" d="M685.07,-105.97C647.54,-96.77 584.1,-81.22 544.15,-71.42"/>
<polygon fill="#63b8ff" stroke="#63b8ff" points="544.83,-67.99 534.28,-69 543.16,-74.78 544.83,-67.99"/>
</a>
</g>
</g>
<!-- Node10 -->
<g id="Node000010" class="node">
<title>Node10</title>
<g id="a_Node000010"><a xlink:title=" ">
<polygon fill="#e0e0e0" stroke="#999999" points="678.26,-70 643.26,-70 643.26,-53 678.26,-53 678.26,-70"/>
<text text-anchor="middle" x="660.76" y="-59.6" font-family="Helvetica,sans-Serif" font-size="8.00">array</text>
</a>
</g>
</g>
<!-- Node9&#45;&gt;Node10 -->
<g id="edge11_Node000009_Node000010" class="edge">
<title>Node9&#45;&gt;Node10</title>
<g id="a_edge11_Node000009_Node000010"><a xlink:title=" ">
<path fill="none" stroke="#63b8ff" d="M707.64,-105.97C699.44,-98.37 686.55,-86.41 676.36,-76.97"/>
<polygon fill="#63b8ff" stroke="#63b8ff" points="678.62,-74.29 668.91,-70.06 673.86,-79.42 678.62,-74.29"/>
</a>
</g>
</g>
<!-- Node11 -->
<g id="Node000011" class="node">
<title>Node11</title>
<g id="a_Node000011"><a xlink:title=" ">
<polygon fill="#e0e0e0" stroke="#999999" points="734.76,-70 696.76,-70 696.76,-53 734.76,-53 734.76,-70"/>
<text text-anchor="middle" x="715.76" y="-59.6" font-family="Helvetica,sans-Serif" font-size="8.00">cmath</text>
</a>
</g>
</g>
<!-- Node9&#45;&gt;Node11 -->
<g id="edge12_Node000009_Node000011" class="edge">
<title>Node9&#45;&gt;Node11</title>
<g id="a_edge12_Node000009_Node000011"><a xlink:title=" ">
<path fill="none" stroke="#63b8ff" d="M715.76,-105.97C715.76,-99.19 715.76,-88.97 715.76,-80.13"/>
<polygon fill="#63b8ff" stroke="#63b8ff" points="719.26,-80.06 715.76,-70.06 712.26,-80.06 719.26,-80.06"/>
</a>
</g>
</g>
<!-- Node12 -->
<g id="Node000012" class="node">
<title>Node12</title>
<g id="a_Node000012"><a xlink:title=" ">
<polygon fill="#e0e0e0" stroke="#999999" points="788.76,-70 752.76,-70 752.76,-53 788.76,-53 788.76,-70"/>
<text text-anchor="middle" x="770.76" y="-59.6" font-family="Helvetica,sans-Serif" font-size="8.00">string</text>
</a>
</g>
</g>
<!-- Node9&#45;&gt;Node12 -->
<g id="edge16_Node000009_Node000012" class="edge">
<title>Node9&#45;&gt;Node12</title>
<g id="a_edge16_Node000009_Node000012"><a xlink:title=" ">
<path fill="none" stroke="#63b8ff" d="M723.88,-105.97C732.08,-98.37 744.97,-86.41 755.16,-76.97"/>
<polygon fill="#63b8ff" stroke="#63b8ff" points="757.66,-79.42 762.61,-70.06 752.9,-74.29 757.66,-79.42"/>
</a>
</g>
</g>
<!-- Node9&#45;&gt;Node13 -->
<g id="edge18_Node000009_Node000013" class="edge">
<title>Node9&#45;&gt;Node13</title>
<g id="a_edge18_Node000009_Node000013"><a xlink:title=" ">
<path fill="none" stroke="#63b8ff" d="M678.03,-108.93C602.78,-99.81 433.88,-79.35 347.63,-68.9"/>
<polygon fill="#63b8ff" stroke="#63b8ff" points="347.88,-65.41 337.53,-67.68 347.04,-72.36 347.88,-65.41"/>
</a>
</g>
</g>
<!-- Node13&#45;&gt;Node2 -->
<g id="edge19_Node000013_Node000002" class="edge">
<title>Node13&#45;&gt;Node2</title>
<g id="a_edge19_Node000013_Node000002"><a xlink:title=" ">
<path fill="none" stroke="#63b8ff" d="M299.92,-52.97C304.89,-45.74 312.54,-34.59 318.86,-25.39"/>
<polygon fill="#63b8ff" stroke="#63b8ff" points="321.8,-27.28 324.57,-17.06 316.03,-23.32 321.8,-27.28"/>
</a>
</g>
</g>
<!-- Node16&#45;&gt;Node2 -->
<g id="edge22_Node000016_Node000002" class="edge">
<title>Node16&#45;&gt;Node2</title>
<g id="a_edge22_Node000016_Node000002"><a xlink:title=" ">
<path fill="none" stroke="#63b8ff" d="M239.63,-158.9C226.47,-151.71 208.77,-139.55 200.76,-123 197.47,-116.2 198.23,-113.12 200.76,-106 216.31,-62.16 266.09,-34.56 299.07,-20.6"/>
<polygon fill="#63b8ff" stroke="#63b8ff" points="300.75,-23.69 308.71,-16.7 298.13,-17.2 300.75,-23.69"/>
</a>
</g>
</g>
<!-- Node16&#45;&gt;Node3 -->
<g id="edge24_Node000016_Node000003" class="edge">
<title>Node16&#45;&gt;Node3</title>
<g id="a_edge24_Node000016_Node000003"><a xlink:title=" ">
<path fill="none" stroke="#63b8ff" d="M295.75,-158.97C350.89,-148.6 448.97,-130.14 497.66,-120.98"/>
<polygon fill="#63b8ff" stroke="#63b8ff" points="498.37,-124.4 507.55,-119.12 497.07,-117.53 498.37,-124.4"/>
</a>
</g>
</g>
<!-- Node16&#45;&gt;Node7 -->
<g id="edge23_Node000016_Node000007" class="edge">
<title>Node16&#45;&gt;Node7</title>
<g id="a_edge23_Node000016_Node000007"><a xlink:title=" ">
<path fill="none" stroke="#63b8ff" d="M256.2,-158.97C256.6,-152.19 257.2,-141.97 257.72,-133.13"/>
<polygon fill="#63b8ff" stroke="#63b8ff" points="261.22,-133.24 258.32,-123.06 254.23,-132.83 261.22,-133.24"/>
</a>
</g>
</g>
<!-- Node16&#45;&gt;Node13 -->
<g id="edge25_Node000016_Node000013" class="edge">
<title>Node16&#45;&gt;Node13</title>
<g id="a_edge25_Node000016_Node000013"><a xlink:title=" ">
<path fill="none" stroke="#63b8ff" d="M242.18,-158.88C224.24,-147.78 196.29,-126.28 208.76,-106 218.36,-90.39 235.48,-80.18 251.93,-73.6"/>
<polygon fill="#63b8ff" stroke="#63b8ff" points="253.28,-76.83 261.48,-70.13 250.89,-70.25 253.28,-76.83"/>
</a>
</g>
</g>
<!-- Node17&#45;&gt;Node2 -->
<g id="edge28_Node000017_Node000002" class="edge">
<title>Node17&#45;&gt;Node2</title>
<g id="a_edge28_Node000017_Node000002"><a xlink:title=" ">
<path fill="none" stroke="#63b8ff" d="M647.81,-163.22C680.52,-158.71 728.69,-148.04 762.76,-123 790.79,-102.4 821.19,-78.71 797.76,-53 768.36,-20.74 461.21,-12.02 361.11,-10.02"/>
<polygon fill="#63b8ff" stroke="#63b8ff" points="361.08,-6.52 351.01,-9.83 360.94,-13.52 361.08,-6.52"/>
</a>
</g>
</g>
<!-- Node17&#45;&gt;Node3 -->
<g id="edge31_Node000017_Node000003" class="edge">
<title>Node17&#45;&gt;Node3</title>
<g id="a_edge31_Node000017_Node000003"><a xlink:title=" ">
<path fill="none" stroke="#63b8ff" d="M599.22,-158.97C585.78,-150.91 564.22,-137.98 548.11,-128.31"/>
<polygon fill="#63b8ff" stroke="#63b8ff" points="549.73,-125.2 539.35,-123.06 546.13,-131.2 549.73,-125.2"/>
</a>
</g>
</g>
<!-- Node17&#45;&gt;Node6 -->
<g id="edge29_Node000017_Node000006" class="edge">
<title>Node17&#45;&gt;Node6</title>
<g id="a_edge29_Node000017_Node000006"><a xlink:title=" ">
<path fill="none" stroke="#63b8ff" d="M616.76,-158.67C623.67,-146.77 634.39,-123.62 625.76,-106 619.31,-92.83 606.73,-82.49 595.13,-75.21"/>
<polygon fill="#63b8ff" stroke="#63b8ff" points="596.58,-72 586.17,-70.02 593.07,-78.06 596.58,-72"/>
</a>
</g>
</g>
<!-- Node17&#45;&gt;Node8 -->
<g id="edge30_Node000017_Node000008" class="edge">
<title>Node17&#45;&gt;Node8</title>
<g id="a_edge30_Node000017_Node000008"><a xlink:title=" ">
<path fill="none" stroke="#63b8ff" d="M610.48,-158.93C608.05,-146.54 601.7,-121.73 587.76,-106 575.08,-91.7 556.53,-81.2 540.49,-74.11"/>
<polygon fill="#63b8ff" stroke="#63b8ff" points="541.48,-70.73 530.9,-70.12 538.79,-77.19 541.48,-70.73"/>
</a>
</g>
</g>
<!-- Node17&#45;&gt;Node9 -->
<g id="edge32_Node000017_Node000009" class="edge">
<title>Node17&#45;&gt;Node9</title>
<g id="a_edge32_Node000017_Node000009"><a xlink:title=" ">
<path fill="none" stroke="#63b8ff" d="M627.11,-158.97C644,-150.69 671.41,-137.25 691.28,-127.5"/>
<polygon fill="#63b8ff" stroke="#63b8ff" points="692.91,-130.6 700.35,-123.06 689.83,-124.32 692.91,-130.6"/>
</a>
</g>
</g>
<!-- Node17&#45;&gt;Node13 -->
<g id="edge33_Node000017_Node000013" class="edge">
<title>Node17&#45;&gt;Node13</title>
<g id="a_edge33_Node000017_Node000013"><a xlink:title=" ">
<path fill="none" stroke="#63b8ff" d="M606.9,-158.67C598.21,-145.42 578.69,-118.78 554.76,-106 519.74,-87.3 412.8,-73.97 347.49,-67.32"/>
<polygon fill="#63b8ff" stroke="#63b8ff" points="347.68,-63.82 337.38,-66.31 346.98,-70.79 347.68,-63.82"/>
</a>
</g>
</g>
<!-- Node18&#45;&gt;Node13 -->
<g id="edge36_Node000018_Node000013" class="edge">
<title>Node18&#45;&gt;Node13</title>
<g id="a_edge36_Node000018_Node000013"><a xlink:title=" ">
<path fill="none" stroke="#63b8ff" d="M85.41,-158.94C70.27,-146.98 45.38,-123.29 59.76,-106 82.51,-78.66 180.2,-68.43 242.24,-64.65"/>
<polygon fill="#63b8ff" stroke="#63b8ff" points="242.47,-68.15 252.25,-64.08 242.07,-61.16 242.47,-68.15"/>
</a>
</g>
</g>
<!-- Node19 -->
<g id="Node000019" class="node">
<title>Node19</title>
<g id="a_Node000019"><a xlink:href="../../dc/d3c/bnode_8hpp.html" target="_top" xlink:title=" ">
<polygon fill="white" stroke="#666666" points="123.26,-123 68.26,-123 68.26,-106 123.26,-106 123.26,-123"/>
<text text-anchor="middle" x="95.76" y="-112.6" font-family="Helvetica,sans-Serif" font-size="8.00">bnode.hpp</text>
</a>
</g>
</g>
<!-- Node18&#45;&gt;Node19 -->
<g id="edge35_Node000018_Node000019" class="edge">
<title>Node18&#45;&gt;Node19</title>
<g id="a_edge35_Node000018_Node000019"><a xlink:title=" ">
<path fill="none" stroke="#63b8ff" d="M95.76,-158.97C95.76,-152.19 95.76,-141.97 95.76,-133.13"/>
<polygon fill="#63b8ff" stroke="#63b8ff" points="99.26,-133.06 95.76,-123.06 92.26,-133.06 99.26,-133.06"/>
</a>
</g>
</g>
</g>
</svg>
