<?xml version="1.0" encoding="UTF-8" standalone="no"?>
<!DOCTYPE svg PUBLIC "-//W3C//DTD SVG 1.1//EN"
 "http://www.w3.org/Graphics/SVG/1.1/DTD/svg11.dtd">
<!-- Generated by graphviz version 2.43.0 (0)
 -->
<!-- Title: dfs.hpp Pages: 1 -->
<svg width="1001pt" height="237pt"
 viewBox="0.00 0.00 1001.41 237.00" xmlns="http://www.w3.org/2000/svg" xmlns:xlink="http://www.w3.org/1999/xlink">
<g id="graph0" class="graph" transform="scale(1 1) rotate(0) translate(4 233)">
<title>dfs.hpp</title>
<!-- Node1 -->
<g id="Node000001" class="node">
<title>Node1</title>
<g id="a_Node000001"><a xlink:title=" ">
<polygon fill="#999999" stroke="#666666" points="606.91,-229 559.91,-229 559.91,-212 606.91,-212 606.91,-229"/>
<text text-anchor="middle" x="583.41" y="-218.6" font-family="Helvetica,sans-Serif" font-size="8.00">dfs.hpp</text>
</a>
</g>
</g>
<!-- Node2 -->
<g id="Node000002" class="node">
<title>Node2</title>
<g id="a_Node000002"><a xlink:title=" ">
<polygon fill="#e0e0e0" stroke="#999999" points="387.91,-17 340.91,-17 340.91,0 387.91,0 387.91,-17"/>
<text text-anchor="middle" x="364.41" y="-6.6" font-family="Helvetica,sans-Serif" font-size="8.00">cstddef</text>
</a>
</g>
</g>
<!-- Node1&#45;&gt;Node2 -->
<g id="edge1_Node000001_Node000002" class="edge">
<title>Node1&#45;&gt;Node2</title>
<g id="a_edge1_Node000001_Node000002"><a xlink:title=" ">
<path fill="none" stroke="#63b8ff" d="M559.91,-219.33C462.12,-218.08 89.27,-207.74 18.41,-123 -1.59,-99.07 -7.24,-76.37 13.41,-53 34.25,-29.42 246.76,-15.71 330.63,-11.18"/>
<polygon fill="#63b8ff" stroke="#63b8ff" points="330.86,-14.68 340.66,-10.65 330.49,-7.69 330.86,-14.68"/>
</a>
</g>
</g>
<!-- Node3 -->
<g id="Node000003" class="node">
<title>Node3</title>
<g id="a_Node000003"><a xlink:title=" ">
<polygon fill="#e0e0e0" stroke="#999999" points="729.41,-123 687.41,-123 687.41,-106 729.41,-106 729.41,-123"/>
<text text-anchor="middle" x="708.41" y="-112.6" font-family="Helvetica,sans-Serif" font-size="8.00">vector</text>
</a>
</g>
</g>
<!-- Node1&#45;&gt;Node3 -->
<g id="edge2_Node000001_Node000003" class="edge">
<title>Node1&#45;&gt;Node3</title>
<g id="a_edge2_Node000001_Node000003"><a xlink:title=" ">
<path fill="none" stroke="#63b8ff" d="M589.11,-211.78C598.33,-199.6 617.53,-175.61 637.41,-159 651.84,-146.95 669.92,-135.92 684.23,-127.98"/>
<polygon fill="#63b8ff" stroke="#63b8ff" points="686.3,-130.84 693.44,-123.01 682.98,-124.68 686.3,-130.84"/>
</a>
</g>
</g>
<!-- Node4 -->
<g id="Node000004" class="node">
<title>Node4</title>
<g id="a_Node000004"><a xlink:href="../../d8/d62/existence__set_8hpp.html" target="_top" xlink:title=" ">
<polygon fill="white" stroke="#666666" points="412.41,-176 242.41,-176 242.41,-159 412.41,-159 412.41,-176"/>
<text text-anchor="middle" x="327.41" y="-165.6" font-family="Helvetica,sans-Serif" font-size="8.00">../types/containers/existence_set.hpp</text>
</a>
</g>
</g>
<!-- Node1&#45;&gt;Node4 -->
<g id="edge3_Node000001_Node000004" class="edge">
<title>Node1&#45;&gt;Node4</title>
<g id="a_edge3_Node000001_Node000004"><a xlink:title=" ">
<path fill="none" stroke="#63b8ff" d="M559.79,-214.79C517.96,-206.46 430.1,-188.96 375.21,-178.02"/>
<polygon fill="#63b8ff" stroke="#63b8ff" points="375.85,-174.58 365.36,-176.06 374.48,-181.45 375.85,-174.58"/>
</a>
</g>
</g>
<!-- Node9 -->
<g id="Node000009" class="node">
<title>Node9</title>
<g id="a_Node000009"><a xlink:href="../../df/d93/utils_8hpp.html" target="_top" xlink:title=" ">
<polygon fill="white" stroke="#666666" points="222.91,-123 135.91,-123 135.91,-106 222.91,-106 222.91,-123"/>
<text text-anchor="middle" x="179.41" y="-112.6" font-family="Helvetica,sans-Serif" font-size="8.00">../../utils/utils.hpp</text>
</a>
</g>
</g>
<!-- Node1&#45;&gt;Node9 -->
<g id="edge26_Node000001_Node000009" class="edge">
<title>Node1&#45;&gt;Node9</title>
<g id="a_edge26_Node000001_Node000009"><a xlink:title=" ">
<path fill="none" stroke="#63b8ff" d="M559.58,-218.7C490.35,-216.05 290.49,-205.92 233.41,-176 214.16,-165.91 198.49,-145.99 189.09,-131.76"/>
<polygon fill="#63b8ff" stroke="#63b8ff" points="191.88,-129.63 183.61,-123.01 185.95,-133.35 191.88,-129.63"/>
</a>
</g>
</g>
<!-- Node13 -->
<g id="Node000013" class="node">
<title>Node13</title>
<g id="a_Node000013"><a xlink:href="../../d7/d65/intrinsics_8hpp.html" target="_top" xlink:title=" ">
<polygon fill="#fff0f0" stroke="red" points="708.91,-70 609.91,-70 609.91,-53 708.91,-53 708.91,-70"/>
<text text-anchor="middle" x="659.41" y="-59.6" font-family="Helvetica,sans-Serif" font-size="8.00">../utils/intrinsics.hpp</text>
</a>
</g>
</g>
<!-- Node1&#45;&gt;Node13 -->
<g id="edge38_Node000001_Node000013" class="edge">
<title>Node1&#45;&gt;Node13</title>
<g id="a_edge38_Node000001_Node000013"><a xlink:title=" ">
<path fill="none" stroke="#63b8ff" d="M607.06,-218.18C656.55,-214.87 768.38,-204.35 791.41,-176 826.81,-132.44 741.39,-92.35 691.81,-73.62"/>
<polygon fill="#63b8ff" stroke="#63b8ff" points="692.72,-70.23 682.13,-70.06 690.3,-76.79 692.72,-70.23"/>
</a>
</g>
</g>
<!-- Node16 -->
<g id="Node000016" class="node">
<title>Node16</title>
<g id="a_Node000016"><a xlink:href="../../df/d47/stack_8hpp.html" target="_top" xlink:title=" ">
<polygon fill="white" stroke="#666666" points="782.41,-176 646.41,-176 646.41,-159 782.41,-159 782.41,-176"/>
<text text-anchor="middle" x="714.41" y="-165.6" font-family="Helvetica,sans-Serif" font-size="8.00">../types/containers/stack.hpp</text>
</a>
</g>
</g>
<!-- Node1&#45;&gt;Node16 -->
<g id="edge21_Node000001_Node000016" class="edge">
<title>Node1&#45;&gt;Node16</title>
<g id="a_edge21_Node000001_Node000016"><a xlink:title=" ">
<path fill="none" stroke="#63b8ff" d="M602.74,-211.97C624.61,-203.46 660.44,-189.51 685.6,-179.72"/>
<polygon fill="#63b8ff" stroke="#63b8ff" points="686.96,-182.95 695,-176.06 684.42,-176.42 686.96,-182.95"/>
</a>
</g>
</g>
<!-- Node17 -->
<g id="Node000017" class="node">
<title>Node17</title>
<g id="a_Node000017"><a xlink:href="../../d2/d1c/solver_8hpp.html" target="_top" xlink:title=" ">
<polygon fill="white" stroke="#666666" points="590.41,-176 508.41,-176 508.41,-159 590.41,-159 590.41,-176"/>
<text text-anchor="middle" x="549.41" y="-165.6" font-family="Helvetica,sans-Serif" font-size="8.00">base/solver.hpp</text>
</a>
</g>
</g>
<!-- Node1&#45;&gt;Node17 -->
<g id="edge27_Node000001_Node000017" class="edge">
<title>Node1&#45;&gt;Node17</title>
<g id="a_edge27_Node000001_Node000017"><a xlink:title=" ">
<path fill="none" stroke="#63b8ff" d="M578.4,-211.97C573.58,-204.74 566.14,-193.59 560,-184.39"/>
<polygon fill="#63b8ff" stroke="#63b8ff" points="562.91,-182.44 554.45,-176.06 557.09,-186.32 562.91,-182.44"/>
</a>
</g>
</g>
<!-- Node19 -->
<g id="Node000019" class="node">
<title>Node19</title>
<g id="a_Node000019"><a xlink:href="../../d0/def/unmanaged__node_8hpp.html" target="_top" xlink:title=" ">
<polygon fill="white" stroke="#666666" points="993.41,-176 861.41,-176 861.41,-159 993.41,-159 993.41,-176"/>
<text text-anchor="middle" x="927.41" y="-165.6" font-family="Helvetica,sans-Serif" font-size="8.00">base/unmanaged_node.hpp</text>
</a>
</g>
</g>
<!-- Node1&#45;&gt;Node19 -->
<g id="edge35_Node000001_Node000019" class="edge">
<title>Node1&#45;&gt;Node19</title>
<g id="a_edge35_Node000001_Node000019"><a xlink:title=" ">
<path fill="none" stroke="#63b8ff" d="M607.06,-215.99C660.01,-208.14 789.52,-188.94 866.68,-177.5"/>
<polygon fill="#63b8ff" stroke="#63b8ff" points="867.37,-180.94 876.75,-176.01 866.34,-174.02 867.37,-180.94"/>
</a>
</g>
</g>
<!-- Node4&#45;&gt;Node2 -->
<g id="edge4_Node000004_Node000002" class="edge">
<title>Node4&#45;&gt;Node2</title>
<g id="a_edge4_Node000004_Node000002"><a xlink:title=" ">
<path fill="none" stroke="#63b8ff" d="M242.33,-162.1C131.93,-153.36 -39.24,-127.65 26.41,-53 46.33,-30.36 248.84,-16.19 330.53,-11.36"/>
<polygon fill="#63b8ff" stroke="#63b8ff" points="330.99,-14.84 340.77,-10.77 330.58,-7.85 330.99,-14.84"/>
</a>
</g>
</g>
<!-- Node4&#45;&gt;Node3 -->
<g id="edge9_Node000004_Node000003" class="edge">
<title>Node4&#45;&gt;Node3</title>
<g id="a_edge9_Node000004_Node000003"><a xlink:title=" ">
<path fill="none" stroke="#63b8ff" d="M383.63,-158.97C465,-148.08 612.89,-128.29 677.17,-119.68"/>
<polygon fill="#63b8ff" stroke="#63b8ff" points="677.66,-123.15 687.11,-118.35 676.73,-116.21 677.66,-123.15"/>
</a>
</g>
</g>
<!-- Node5 -->
<g id="Node000005" class="node">
<title>Node5</title>
<g id="a_Node000005"><a xlink:title=" ">
<polygon fill="#e0e0e0" stroke="#999999" points="93.41,-70 35.41,-70 35.41,-53 93.41,-53 93.41,-70"/>
<text text-anchor="middle" x="64.41" y="-59.6" font-family="Helvetica,sans-Serif" font-size="8.00">functional</text>
</a>
</g>
</g>
<!-- Node4&#45;&gt;Node5 -->
<g id="edge5_Node000004_Node000005" class="edge">
<title>Node4&#45;&gt;Node5</title>
<g id="a_edge5_Node000004_Node000005"><a xlink:title=" ">
<path fill="none" stroke="#63b8ff" d="M243.58,-158.98C206.05,-153 162.27,-142.27 126.41,-123 105.98,-112.02 87.67,-92.31 76.33,-78.38"/>
<polygon fill="#63b8ff" stroke="#63b8ff" points="78.86,-75.93 69.94,-70.21 73.34,-80.24 78.86,-75.93"/>
</a>
</g>
</g>
<!-- Node6 -->
<g id="Node000006" class="node">
<title>Node6</title>
<g id="a_Node000006"><a xlink:title=" ">
<polygon fill="#e0e0e0" stroke="#999999" points="361.41,-70 323.41,-70 323.41,-53 361.41,-53 361.41,-70"/>
<text text-anchor="middle" x="342.41" y="-59.6" font-family="Helvetica,sans-Serif" font-size="8.00">limits</text>
</a>
</g>
</g>
<!-- Node4&#45;&gt;Node6 -->
<g id="edge6_Node000004_Node000006" class="edge">
<title>Node4&#45;&gt;Node6</title>
<g id="a_edge6_Node000004_Node000006"><a xlink:title=" ">
<path fill="none" stroke="#63b8ff" d="M312.27,-158.93C293.05,-148.22 263.72,-127.54 275.41,-106 283.59,-90.95 299.47,-80.3 313.72,-73.3"/>
<polygon fill="#63b8ff" stroke="#63b8ff" points="315.52,-76.33 323.21,-69.03 312.65,-69.94 315.52,-76.33"/>
</a>
</g>
</g>
<!-- Node7 -->
<g id="Node000007" class="node">
<title>Node7</title>
<g id="a_Node000007"><a xlink:title=" ">
<polygon fill="#e0e0e0" stroke="#999999" points="520.91,-123 431.91,-123 431.91,-106 520.91,-106 520.91,-123"/>
<text text-anchor="middle" x="476.41" y="-112.6" font-family="Helvetica,sans-Serif" font-size="8.00">memory_resource</text>
</a>
</g>
</g>
<!-- Node4&#45;&gt;Node7 -->
<g id="edge7_Node000004_Node000007" class="edge">
<title>Node4&#45;&gt;Node7</title>
<g id="a_edge7_Node000004_Node000007"><a xlink:title=" ">
<path fill="none" stroke="#63b8ff" d="M349.4,-158.97C374.6,-150.35 416.11,-136.14 444.78,-126.33"/>
<polygon fill="#63b8ff" stroke="#63b8ff" points="446.01,-129.61 454.34,-123.06 443.74,-122.98 446.01,-129.61"/>
</a>
</g>
</g>
<!-- Node8 -->
<g id="Node000008" class="node">
<title>Node8</title>
<g id="a_Node000008"><a xlink:title=" ">
<polygon fill="#e0e0e0" stroke="#999999" points="438.91,-70 379.91,-70 379.91,-53 438.91,-53 438.91,-70"/>
<text text-anchor="middle" x="409.41" y="-59.6" font-family="Helvetica,sans-Serif" font-size="8.00">type_traits</text>
</a>
</g>
</g>
<!-- Node4&#45;&gt;Node8 -->
<g id="edge8_Node000004_Node000008" class="edge">
<title>Node4&#45;&gt;Node8</title>
<g id="a_edge8_Node000004_Node000008"><a xlink:title=" ">
<path fill="none" stroke="#63b8ff" d="M329.05,-158.76C331.91,-146.55 338.79,-122.52 351.41,-106 360.91,-93.57 374.86,-82.95 386.7,-75.32"/>
<polygon fill="#63b8ff" stroke="#63b8ff" points="388.54,-78.3 395.23,-70.09 384.88,-72.33 388.54,-78.3"/>
</a>
</g>
</g>
<!-- Node4&#45;&gt;Node9 -->
<g id="edge10_Node000004_Node000009" class="edge">
<title>Node4&#45;&gt;Node9</title>
<g id="a_edge10_Node000004_Node000009"><a xlink:title=" ">
<path fill="none" stroke="#63b8ff" d="M305.58,-158.97C280.55,-150.35 239.31,-136.14 210.84,-126.33"/>
<polygon fill="#63b8ff" stroke="#63b8ff" points="211.94,-123.01 201.34,-123.06 209.66,-129.62 211.94,-123.01"/>
</a>
</g>
</g>
<!-- Node4&#45;&gt;Node13 -->
<g id="edge20_Node000004_Node000013" class="edge">
<title>Node4&#45;&gt;Node13</title>
<g id="a_edge20_Node000004_Node000013"><a xlink:title=" ">
<path fill="none" stroke="#63b8ff" d="M336.72,-158.81C353,-145.77 388.2,-119.44 422.41,-106 480.21,-83.3 550.67,-72.3 599.67,-67.06"/>
<polygon fill="#63b8ff" stroke="#63b8ff" points="600.19,-70.53 609.79,-66.03 599.48,-63.56 600.19,-70.53"/>
</a>
</g>
</g>
<!-- Node9&#45;&gt;Node2 -->
<g id="edge13_Node000009_Node000002" class="edge">
<title>Node9&#45;&gt;Node2</title>
<g id="a_edge13_Node000009_Node000002"><a xlink:title=" ">
<path fill="none" stroke="#63b8ff" d="M179.55,-105.98C180.21,-93.21 183.43,-67.28 198.41,-53 234.14,-18.95 293.13,-10.75 330.33,-9.21"/>
<polygon fill="#63b8ff" stroke="#63b8ff" points="330.76,-12.7 340.66,-8.93 330.57,-5.7 330.76,-12.7"/>
</a>
</g>
</g>
<!-- Node9&#45;&gt;Node5 -->
<g id="edge14_Node000009_Node000005" class="edge">
<title>Node9&#45;&gt;Node5</title>
<g id="a_edge14_Node000009_Node000005"><a xlink:title=" ">
<path fill="none" stroke="#63b8ff" d="M162.44,-105.97C143.59,-97.61 112.9,-84 90.89,-74.24"/>
<polygon fill="#63b8ff" stroke="#63b8ff" points="92.01,-70.91 81.45,-70.06 89.17,-77.31 92.01,-70.91"/>
</a>
</g>
</g>
<!-- Node9&#45;&gt;Node6 -->
<g id="edge15_Node000009_Node000006" class="edge">
<title>Node9&#45;&gt;Node6</title>
<g id="a_edge15_Node000009_Node000006"><a xlink:title=" ">
<path fill="none" stroke="#63b8ff" d="M203.46,-105.97C232.74,-96.81 282.15,-81.36 313.48,-71.55"/>
<polygon fill="#63b8ff" stroke="#63b8ff" points="314.86,-74.79 323.36,-68.46 312.77,-68.11 314.86,-74.79"/>
</a>
</g>
</g>
<!-- Node9&#45;&gt;Node8 -->
<g id="edge17_Node000009_Node000008" class="edge">
<title>Node9&#45;&gt;Node8</title>
<g id="a_edge17_Node000009_Node000008"><a xlink:title=" ">
<path fill="none" stroke="#63b8ff" d="M213.35,-105.97C255.08,-96.72 325.8,-81.04 369.93,-71.26"/>
<polygon fill="#63b8ff" stroke="#63b8ff" points="370.72,-74.66 379.73,-69.08 369.21,-67.83 370.72,-74.66"/>
</a>
</g>
</g>
<!-- Node10 -->
<g id="Node000010" class="node">
<title>Node10</title>
<g id="a_Node000010"><a xlink:title=" ">
<polygon fill="#e0e0e0" stroke="#999999" points="245.41,-70 207.41,-70 207.41,-53 245.41,-53 245.41,-70"/>
<text text-anchor="middle" x="226.41" y="-59.6" font-family="Helvetica,sans-Serif" font-size="8.00">array</text>
</a>
</g>
</g>
<!-- Node9&#45;&gt;Node10 -->
<g id="edge11_Node000009_Node000010" class="edge">
<title>Node9&#45;&gt;Node10</title>
<g id="a_edge11_Node000009_Node000010"><a xlink:title=" ">
<path fill="none" stroke="#63b8ff" d="M186.35,-105.97C193.22,-98.52 203.94,-86.89 212.56,-77.53"/>
<polygon fill="#63b8ff" stroke="#63b8ff" points="215.25,-79.78 219.45,-70.06 210.1,-75.04 215.25,-79.78"/>
</a>
</g>
</g>
<!-- Node11 -->
<g id="Node000011" class="node">
<title>Node11</title>
<g id="a_Node000011"><a xlink:title=" ">
<polygon fill="#e0e0e0" stroke="#999999" points="305.41,-70 263.41,-70 263.41,-53 305.41,-53 305.41,-70"/>
<text text-anchor="middle" x="284.41" y="-59.6" font-family="Helvetica,sans-Serif" font-size="8.00">cmath</text>
</a>
</g>
</g>
<!-- Node9&#45;&gt;Node11 -->
<g id="edge12_Node000009_Node000011" class="edge">
<title>Node9&#45;&gt;Node11</title>
<g id="a_edge12_Node000009_Node000011"><a xlink:title=" ">
<path fill="none" stroke="#63b8ff" d="M194.91,-105.97C211.97,-97.69 239.64,-84.25 259.7,-74.5"/>
<polygon fill="#63b8ff" stroke="#63b8ff" points="261.39,-77.57 268.86,-70.06 258.33,-71.28 261.39,-77.57"/>
</a>
</g>
</g>
<!-- Node12 -->
<g id="Node000012" class="node">
<title>Node12</title>
<g id="a_Node000012"><a xlink:title=" ">
<polygon fill="#e0e0e0" stroke="#999999" points="151.41,-70 111.41,-70 111.41,-53 151.41,-53 151.41,-70"/>
<text text-anchor="middle" x="131.41" y="-59.6" font-family="Helvetica,sans-Serif" font-size="8.00">string</text>
</a>
</g>
</g>
<!-- Node9&#45;&gt;Node12 -->
<g id="edge16_Node000009_Node000012" class="edge">
<title>Node9&#45;&gt;Node12</title>
<g id="a_edge16_Node000009_Node000012"><a xlink:title=" ">
<path fill="none" stroke="#63b8ff" d="M172.33,-105.97C165.31,-98.52 154.36,-86.89 145.56,-77.53"/>
<polygon fill="#63b8ff" stroke="#63b8ff" points="147.93,-74.94 138.53,-70.06 142.83,-79.74 147.93,-74.94"/>
</a>
</g>
</g>
<!-- Node9&#45;&gt;Node13 -->
<g id="edge18_Node000009_Node000013" class="edge">
<title>Node9&#45;&gt;Node13</title>
<g id="a_edge18_Node000009_Node000013"><a xlink:title=" ">
<path fill="none" stroke="#63b8ff" d="M223.28,-108.84C309.67,-99.66 501.92,-79.23 599.75,-68.84"/>
<polygon fill="#63b8ff" stroke="#63b8ff" points="600.2,-72.31 609.77,-67.77 599.46,-65.35 600.2,-72.31"/>
</a>
</g>
</g>
<!-- Node13&#45;&gt;Node2 -->
<g id="edge19_Node000013_Node000002" class="edge">
<title>Node13&#45;&gt;Node2</title>
<g id="a_edge19_Node000013_Node000002"><a xlink:title=" ">
<path fill="none" stroke="#63b8ff" d="M615.89,-52.97C556.68,-42.74 452.02,-24.65 398.3,-15.36"/>
<polygon fill="#63b8ff" stroke="#63b8ff" points="398.72,-11.88 388.27,-13.62 397.52,-18.78 398.72,-11.88"/>
</a>
</g>
</g>
<!-- Node16&#45;&gt;Node2 -->
<g id="edge22_Node000016_Node000002" class="edge">
<title>Node16&#45;&gt;Node2</title>
<g id="a_edge22_Node000016_Node000002"><a xlink:title=" ">
<path fill="none" stroke="#63b8ff" d="M724.92,-158.9C734.67,-151.13 748.53,-138.1 754.41,-123 767.2,-90.21 747.56,-71.15 717.41,-53 664.11,-20.91 475.98,-12.38 398.33,-10.21"/>
<polygon fill="#63b8ff" stroke="#63b8ff" points="398.22,-6.71 388.13,-9.94 398.03,-13.7 398.22,-6.71"/>
</a>
</g>
</g>
<!-- Node16&#45;&gt;Node3 -->
<g id="edge24_Node000016_Node000003" class="edge">
<title>Node16&#45;&gt;Node3</title>
<g id="a_edge24_Node000016_Node000003"><a xlink:title=" ">
<path fill="none" stroke="#63b8ff" d="M713.53,-158.97C712.73,-152.19 711.53,-141.97 710.49,-133.13"/>
<polygon fill="#63b8ff" stroke="#63b8ff" points="713.95,-132.58 709.3,-123.06 707,-133.4 713.95,-132.58"/>
</a>
</g>
</g>
<!-- Node16&#45;&gt;Node7 -->
<g id="edge23_Node000016_Node000007" class="edge">
<title>Node16&#45;&gt;Node7</title>
<g id="a_edge23_Node000016_Node000007"><a xlink:title=" ">
<path fill="none" stroke="#63b8ff" d="M679.3,-158.97C637.46,-150.01 567.49,-135.02 521.64,-125.19"/>
<polygon fill="#63b8ff" stroke="#63b8ff" points="522.19,-121.73 511.68,-123.06 520.72,-128.57 522.19,-121.73"/>
</a>
</g>
</g>
<!-- Node16&#45;&gt;Node13 -->
<g id="edge25_Node000016_Node000013" class="edge">
<title>Node16&#45;&gt;Node13</title>
<g id="a_edge25_Node000016_Node000013"><a xlink:title=" ">
<path fill="none" stroke="#63b8ff" d="M721.89,-158.7C732.33,-146.81 748.88,-123.71 738.41,-106 729.44,-90.82 713.07,-80.58 697.55,-73.86"/>
<polygon fill="#63b8ff" stroke="#63b8ff" points="698.66,-70.54 688.07,-70.13 696.1,-77.05 698.66,-70.54"/>
</a>
</g>
</g>
<!-- Node17&#45;&gt;Node2 -->
<g id="edge28_Node000017_Node000002" class="edge">
<title>Node17&#45;&gt;Node2</title>
<g id="a_edge28_Node000017_Node000002"><a xlink:title=" ">
<path fill="none" stroke="#63b8ff" d="M548.51,-158.66C546.75,-146.31 541.86,-122.1 529.41,-106 495.32,-61.9 434.92,-34.12 397.42,-20.24"/>
<polygon fill="#63b8ff" stroke="#63b8ff" points="398.55,-16.92 387.95,-16.85 396.19,-23.51 398.55,-16.92"/>
</a>
</g>
</g>
<!-- Node17&#45;&gt;Node3 -->
<g id="edge31_Node000017_Node000003" class="edge">
<title>Node17&#45;&gt;Node3</title>
<g id="a_edge31_Node000017_Node000003"><a xlink:title=" ">
<path fill="none" stroke="#63b8ff" d="M572.87,-158.97C600.66,-150.06 647.02,-135.19 677.66,-125.36"/>
<polygon fill="#63b8ff" stroke="#63b8ff" points="678.94,-128.63 687.4,-122.24 676.81,-121.96 678.94,-128.63"/>
</a>
</g>
</g>
<!-- Node17&#45;&gt;Node6 -->
<g id="edge29_Node000017_Node000006" class="edge">
<title>Node17&#45;&gt;Node6</title>
<g id="a_edge29_Node000017_Node000006"><a xlink:title=" ">
<path fill="none" stroke="#63b8ff" d="M510.47,-158.97C481.56,-152.3 441.88,-140.82 410.41,-123 389.23,-111.01 368.92,-91.54 356.1,-77.94"/>
<polygon fill="#63b8ff" stroke="#63b8ff" points="358.48,-75.36 349.15,-70.35 353.32,-80.09 358.48,-75.36"/>
</a>
</g>
</g>
<!-- Node17&#45;&gt;Node8 -->
<g id="edge30_Node000017_Node000008" class="edge">
<title>Node17&#45;&gt;Node8</title>
<g id="a_edge30_Node000017_Node000008"><a xlink:title=" ">
<path fill="none" stroke="#63b8ff" d="M508.16,-162.83C480.03,-158.12 444.08,-147.4 422.41,-123 412.15,-111.44 409.32,-93.77 408.8,-80.5"/>
<polygon fill="#63b8ff" stroke="#63b8ff" points="412.3,-80.25 408.82,-70.25 405.3,-80.24 412.3,-80.25"/>
</a>
</g>
</g>
<!-- Node17&#45;&gt;Node9 -->
<g id="edge32_Node000017_Node000009" class="edge">
<title>Node17&#45;&gt;Node9</title>
<g id="a_edge32_Node000017_Node000009"><a xlink:title=" ">
<path fill="none" stroke="#63b8ff" d="M508.4,-160.85C441.29,-151.6 307.99,-133.22 233.32,-122.93"/>
<polygon fill="#63b8ff" stroke="#63b8ff" points="233.57,-119.43 223.18,-121.53 232.61,-126.37 233.57,-119.43"/>
</a>
</g>
</g>
<!-- Node17&#45;&gt;Node13 -->
<g id="edge34_Node000017_Node000013" class="edge">
<title>Node17&#45;&gt;Node13</title>
<g id="a_edge34_Node000017_Node000013"><a xlink:title=" ">
<path fill="none" stroke="#63b8ff" d="M578.66,-158.91C598.34,-152.4 623.51,-141.14 639.41,-123 649.91,-111.03 654.92,-93.41 657.3,-80.27"/>
<polygon fill="#63b8ff" stroke="#63b8ff" points="660.8,-80.53 658.79,-70.13 653.88,-79.51 660.8,-80.53"/>
</a>
</g>
</g>
<!-- Node18 -->
<g id="Node000018" class="node">
<title>Node18</title>
<g id="a_Node000018"><a xlink:title=" ">
<polygon fill="#e0e0e0" stroke="#999999" points="630.91,-123 577.91,-123 577.91,-106 630.91,-106 630.91,-123"/>
<text text-anchor="middle" x="604.41" y="-112.6" font-family="Helvetica,sans-Serif" font-size="8.00">iostream</text>
</a>
</g>
</g>
<!-- Node17&#45;&gt;Node18 -->
<g id="edge33_Node000017_Node000018" class="edge">
<title>Node17&#45;&gt;Node18</title>
<g id="a_edge33_Node000017_Node000018"><a xlink:title=" ">
<path fill="none" stroke="#63b8ff" d="M557.53,-158.97C565.73,-151.37 578.62,-139.41 588.81,-129.97"/>
<polygon fill="#63b8ff" stroke="#63b8ff" points="591.31,-132.42 596.26,-123.06 586.55,-127.29 591.31,-132.42"/>
</a>
</g>
</g>
<!-- Node19&#45;&gt;Node13 -->
<g id="edge37_Node000019_Node000013" class="edge">
<title>Node19&#45;&gt;Node13</title>
<g id="a_edge37_Node000019_Node000013"><a xlink:title=" ">
<path fill="none" stroke="#63b8ff" d="M919.76,-158.9C906.31,-146 877.07,-119.87 847.41,-106 806.74,-86.98 757.13,-75.95 719.08,-69.76"/>
<polygon fill="#63b8ff" stroke="#63b8ff" points="719.6,-66.3 709.18,-68.22 718.52,-73.22 719.6,-66.3"/>
</a>
</g>
</g>
<!-- Node20 -->
<g id="Node000020" class="node">
<title>Node20</title>
<g id="a_Node000020"><a xlink:href="../../dc/d3c/bnode_8hpp.html" target="_top" xlink:title=" ">
<polygon fill="white" stroke="#666666" points="960.91,-123 899.91,-123 899.91,-106 960.91,-106 960.91,-123"/>
<text text-anchor="middle" x="930.41" y="-112.6" font-family="Helvetica,sans-Serif" font-size="8.00">bnode.hpp</text>
</a>
</g>
</g>
<!-- Node19&#45;&gt;Node20 -->
<g id="edge36_Node000019_Node000020" class="edge">
<title>Node19&#45;&gt;Node20</title>
<g id="a_edge36_Node000019_Node000020"><a xlink:title=" ">
<path fill="none" stroke="#63b8ff" d="M927.86,-158.97C928.26,-152.19 928.86,-141.97 929.38,-133.13"/>
<polygon fill="#63b8ff" stroke="#63b8ff" points="932.88,-133.24 929.97,-123.06 925.89,-132.83 932.88,-133.24"/>
</a>
</g>
</g>
</g>
</svg>
