<?xml version="1.0" encoding="UTF-8" standalone="no"?>
<!DOCTYPE svg PUBLIC "-//W3C//DTD SVG 1.1//EN"
 "http://www.w3.org/Graphics/SVG/1.1/DTD/svg11.dtd">
<!-- Generated by graphviz version 2.43.0 (0)
 -->
<!-- Title: dfs.hpp Pages: 1 -->
<svg width="728pt" height="290pt"
 viewBox="0.00 0.00 728.28 290.00" xmlns="http://www.w3.org/2000/svg" xmlns:xlink="http://www.w3.org/1999/xlink">
<g id="graph0" class="graph" transform="scale(1 1) rotate(0) translate(4 286)">
<title>dfs.hpp</title>
<!-- Node1 -->
<g id="Node000001" class="node">
<title>Node1</title>
<g id="a_Node000001"><a xlink:title=" ">
<polygon fill="#999999" stroke="#666666" points="313.5,-282 270.5,-282 270.5,-265 313.5,-265 313.5,-282"/>
<text text-anchor="middle" x="292" y="-271.6" font-family="Helvetica,sans-Serif" font-size="8.00">dfs.hpp</text>
</a>
</g>
</g>
<!-- Node2 -->
<g id="Node000002" class="node">
<title>Node2</title>
<g id="a_Node000002"><a xlink:title=" ">
<polygon fill="#e0e0e0" stroke="#999999" points="347,-17 305,-17 305,0 347,0 347,-17"/>
<text text-anchor="middle" x="326" y="-6.6" font-family="Helvetica,sans-Serif" font-size="8.00">cstddef</text>
</a>
</g>
</g>
<!-- Node1&#45;&gt;Node2 -->
<g id="edge1_Node000001_Node000002" class="edge">
<title>Node1&#45;&gt;Node2</title>
<g id="a_edge1_Node000001_Node000002"><a xlink:title=" ">
<path fill="none" stroke="#63b8ff" d="M270.05,-269.53C202.14,-259.75 0,-225.81 0,-168.5 0,-168.5 0,-168.5 0,-113.5 0,-52.1 212.57,-22.05 294.41,-12.75"/>
<polygon fill="#63b8ff" stroke="#63b8ff" points="295.06,-16.2 304.61,-11.62 294.29,-9.24 295.06,-16.2"/>
</a>
</g>
</g>
<!-- Node3 -->
<g id="Node000003" class="node">
<title>Node3</title>
<g id="a_Node000003"><a xlink:title=" ">
<polygon fill="#e0e0e0" stroke="#999999" points="295,-123 257,-123 257,-106 295,-106 295,-123"/>
<text text-anchor="middle" x="276" y="-112.6" font-family="Helvetica,sans-Serif" font-size="8.00">vector</text>
</a>
</g>
</g>
<!-- Node1&#45;&gt;Node3 -->
<g id="edge2_Node000001_Node000003" class="edge">
<title>Node1&#45;&gt;Node3</title>
<g id="a_edge2_Node000001_Node000003"><a xlink:title=" ">
<path fill="none" stroke="#63b8ff" d="M276.15,-264.94C261.55,-257.38 239.94,-244.65 225,-229 206.16,-209.26 201.14,-202.34 194,-176 192.02,-168.71 190.11,-165.47 194,-159 200.12,-148.82 226.39,-135.94 247.56,-126.84"/>
<polygon fill="#63b8ff" stroke="#63b8ff" points="248.98,-130.05 256.85,-122.96 246.27,-123.59 248.98,-130.05"/>
</a>
</g>
</g>
<!-- Node4 -->
<g id="Node000004" class="node">
<title>Node4</title>
<g id="a_Node000004"><a xlink:href="../../d8/d62/existence__set_8hpp.html" target="_top" xlink:title=" ">
<polygon fill="white" stroke="#666666" points="499.5,-176 352.5,-176 352.5,-159 499.5,-159 499.5,-176"/>
<text text-anchor="middle" x="426" y="-165.6" font-family="Helvetica,sans-Serif" font-size="8.00">../types/containers/existence_set.hpp</text>
</a>
</g>
</g>
<!-- Node1&#45;&gt;Node4 -->
<g id="edge3_Node000001_Node000004" class="edge">
<title>Node1&#45;&gt;Node4</title>
<g id="a_edge3_Node000001_Node000004"><a xlink:title=" ">
<path fill="none" stroke="#63b8ff" d="M305.23,-264.96C319.27,-256.75 341.89,-242.92 360,-229 378.78,-214.56 398.58,-195.88 411.54,-183.12"/>
<polygon fill="#63b8ff" stroke="#63b8ff" points="414.04,-185.57 418.65,-176.03 409.1,-180.61 414.04,-185.57"/>
</a>
</g>
</g>
<!-- Node8 -->
<g id="Node000008" class="node">
<title>Node8</title>
<g id="a_Node000008"><a xlink:href="../../df/d93/utils_8hpp.html" target="_top" xlink:title=" ">
<polygon fill="white" stroke="#666666" points="604.5,-123 529.5,-123 529.5,-106 604.5,-106 604.5,-123"/>
<text text-anchor="middle" x="567" y="-112.6" font-family="Helvetica,sans-Serif" font-size="8.00">../../utils/utils.hpp</text>
</a>
</g>
</g>
<!-- Node1&#45;&gt;Node8 -->
<g id="edge23_Node000001_Node000008" class="edge">
<title>Node1&#45;&gt;Node8</title>
<g id="a_edge23_Node000001_Node000008"><a xlink:title=" ">
<path fill="none" stroke="#63b8ff" d="M313.54,-272.6C373.38,-272.38 539.43,-268.17 573,-229 596.04,-202.12 583.83,-157.15 574.47,-132.67"/>
<polygon fill="#63b8ff" stroke="#63b8ff" points="577.65,-131.2 570.62,-123.27 571.17,-133.85 577.65,-131.2"/>
</a>
</g>
</g>
<!-- Node15 -->
<g id="Node000015" class="node">
<title>Node15</title>
<g id="a_Node000015"><a xlink:href="../../df/d47/stack_8hpp_source.html" target="_top" xlink:title=" ">
<polygon fill="white" stroke="#666666" points="145.5,-176 28.5,-176 28.5,-159 145.5,-159 145.5,-176"/>
<text text-anchor="middle" x="87" y="-165.6" font-family="Helvetica,sans-Serif" font-size="8.00">../types/containers/stack.hpp</text>
</a>
</g>
</g>
<!-- Node1&#45;&gt;Node15 -->
<g id="edge18_Node000001_Node000015" class="edge">
<title>Node1&#45;&gt;Node15</title>
<g id="a_edge18_Node000001_Node000015"><a xlink:title=" ">
<path fill="none" stroke="#63b8ff" d="M270.42,-268.01C243.42,-261.82 196.32,-249.09 160,-229 137.6,-216.61 115.48,-196.96 101.57,-183.43"/>
<polygon fill="#63b8ff" stroke="#63b8ff" points="103.94,-180.85 94.38,-176.27 99,-185.81 103.94,-180.85"/>
</a>
</g>
</g>
<!-- Node16 -->
<g id="Node000016" class="node">
<title>Node16</title>
<g id="a_Node000016"><a xlink:href="../../d2/d1c/solver_8hpp.html" target="_top" xlink:title=" ">
<polygon fill="white" stroke="#666666" points="564,-229 492,-229 492,-212 564,-212 564,-229"/>
<text text-anchor="middle" x="528" y="-218.6" font-family="Helvetica,sans-Serif" font-size="8.00">base/solver.hpp</text>
</a>
</g>
</g>
<!-- Node1&#45;&gt;Node16 -->
<g id="edge24_Node000001_Node000016" class="edge">
<title>Node1&#45;&gt;Node16</title>
<g id="a_edge24_Node000001_Node000016"><a xlink:title=" ">
<path fill="none" stroke="#63b8ff" d="M313.78,-267.79C352.1,-259.51 432.33,-242.17 482.99,-231.23"/>
<polygon fill="#63b8ff" stroke="#63b8ff" points="483.98,-234.59 493.02,-229.06 482.5,-227.75 483.98,-234.59"/>
</a>
</g>
</g>
<!-- Node17 -->
<g id="Node000017" class="node">
<title>Node17</title>
<g id="a_Node000017"><a xlink:href="../../d0/def/unmanaged__node_8hpp.html" target="_top" xlink:title=" ">
<polygon fill="white" stroke="#666666" points="350.5,-229 233.5,-229 233.5,-212 350.5,-212 350.5,-229"/>
<text text-anchor="middle" x="292" y="-218.6" font-family="Helvetica,sans-Serif" font-size="8.00">base/unmanaged_node.hpp</text>
</a>
</g>
</g>
<!-- Node1&#45;&gt;Node17 -->
<g id="edge31_Node000001_Node000017" class="edge">
<title>Node1&#45;&gt;Node17</title>
<g id="a_edge31_Node000001_Node000017"><a xlink:title=" ">
<path fill="none" stroke="#63b8ff" d="M292,-264.97C292,-258.19 292,-247.97 292,-239.13"/>
<polygon fill="#63b8ff" stroke="#63b8ff" points="295.5,-239.06 292,-229.06 288.5,-239.06 295.5,-239.06"/>
</a>
</g>
</g>
<!-- Node4&#45;&gt;Node2 -->
<g id="edge4_Node000004_Node000002" class="edge">
<title>Node4&#45;&gt;Node2</title>
<g id="a_edge4_Node000004_Node000002"><a xlink:title=" ">
<path fill="none" stroke="#63b8ff" d="M418.21,-158.96C409.87,-150.64 396.56,-136.61 387,-123 364.37,-90.75 344,-49.16 333.5,-26.34"/>
<polygon fill="#63b8ff" stroke="#63b8ff" points="336.6,-24.69 329.28,-17.02 330.22,-27.58 336.6,-24.69"/>
</a>
</g>
</g>
<!-- Node4&#45;&gt;Node3 -->
<g id="edge8_Node000004_Node000003" class="edge">
<title>Node4&#45;&gt;Node3</title>
<g id="a_edge8_Node000004_Node000003"><a xlink:title=" ">
<path fill="none" stroke="#63b8ff" d="M403.87,-158.97C377.62,-150.05 333.81,-135.15 304.91,-125.33"/>
<polygon fill="#63b8ff" stroke="#63b8ff" points="305.95,-121.99 295.36,-122.08 303.7,-128.62 305.95,-121.99"/>
</a>
</g>
</g>
<!-- Node5 -->
<g id="Node000005" class="node">
<title>Node5</title>
<g id="a_Node000005"><a xlink:title=" ">
<polygon fill="#e0e0e0" stroke="#999999" points="456,-123 396,-123 396,-106 456,-106 456,-123"/>
<text text-anchor="middle" x="426" y="-112.6" font-family="Helvetica,sans-Serif" font-size="8.00">initializer_list</text>
</a>
</g>
</g>
<!-- Node4&#45;&gt;Node5 -->
<g id="edge5_Node000004_Node000005" class="edge">
<title>Node4&#45;&gt;Node5</title>
<g id="a_edge5_Node000004_Node000005"><a xlink:title=" ">
<path fill="none" stroke="#63b8ff" d="M426,-158.97C426,-152.19 426,-141.97 426,-133.13"/>
<polygon fill="#63b8ff" stroke="#63b8ff" points="429.5,-133.06 426,-123.06 422.5,-133.06 429.5,-133.06"/>
</a>
</g>
</g>
<!-- Node6 -->
<g id="Node000006" class="node">
<title>Node6</title>
<g id="a_Node000006"><a xlink:title=" ">
<polygon fill="#e0e0e0" stroke="#999999" points="238,-123 156,-123 156,-106 238,-106 238,-123"/>
<text text-anchor="middle" x="197" y="-112.6" font-family="Helvetica,sans-Serif" font-size="8.00">memory_resource</text>
</a>
</g>
</g>
<!-- Node4&#45;&gt;Node6 -->
<g id="edge6_Node000004_Node000006" class="edge">
<title>Node4&#45;&gt;Node6</title>
<g id="a_edge6_Node000004_Node000006"><a xlink:title=" ">
<path fill="none" stroke="#63b8ff" d="M392.21,-158.97C352.04,-150.03 284.91,-135.08 240.8,-125.25"/>
<polygon fill="#63b8ff" stroke="#63b8ff" points="241.45,-121.81 230.93,-123.06 239.93,-128.65 241.45,-121.81"/>
</a>
</g>
</g>
<!-- Node7 -->
<g id="Node000007" class="node">
<title>Node7</title>
<g id="a_Node000007"><a xlink:title=" ">
<polygon fill="#e0e0e0" stroke="#999999" points="697.5,-70 644.5,-70 644.5,-53 697.5,-53 697.5,-70"/>
<text text-anchor="middle" x="671" y="-59.6" font-family="Helvetica,sans-Serif" font-size="8.00">type_traits</text>
</a>
</g>
</g>
<!-- Node4&#45;&gt;Node7 -->
<g id="edge7_Node000004_Node000007" class="edge">
<title>Node4&#45;&gt;Node7</title>
<g id="a_edge7_Node000004_Node000007"><a xlink:title=" ">
<path fill="none" stroke="#63b8ff" d="M499.74,-159.59C536.01,-153.74 579.28,-142.94 614,-123 633.12,-112.02 649.71,-92.61 659.99,-78.73"/>
<polygon fill="#63b8ff" stroke="#63b8ff" points="663.12,-80.36 666.05,-70.18 657.41,-76.31 663.12,-80.36"/>
</a>
</g>
</g>
<!-- Node4&#45;&gt;Node8 -->
<g id="edge9_Node000004_Node000008" class="edge">
<title>Node4&#45;&gt;Node8</title>
<g id="a_edge9_Node000004_Node000008"><a xlink:title=" ">
<path fill="none" stroke="#63b8ff" d="M446.81,-158.97C470.44,-150.42 509.25,-136.39 536.35,-126.59"/>
<polygon fill="#63b8ff" stroke="#63b8ff" points="537.9,-129.75 546.11,-123.06 535.52,-123.17 537.9,-129.75"/>
</a>
</g>
</g>
<!-- Node8&#45;&gt;Node2 -->
<g id="edge12_Node000008_Node000002" class="edge">
<title>Node8&#45;&gt;Node2</title>
<g id="a_edge12_Node000008_Node000002"><a xlink:title=" ">
<path fill="none" stroke="#63b8ff" d="M576.1,-105.73C589.37,-93.49 610.99,-69.42 597,-53 566.48,-17.19 421.75,-10.74 357.2,-9.67"/>
<polygon fill="#63b8ff" stroke="#63b8ff" points="357.25,-6.17 347.2,-9.53 357.15,-13.17 357.25,-6.17"/>
</a>
</g>
</g>
<!-- Node8&#45;&gt;Node7 -->
<g id="edge15_Node000008_Node000007" class="edge">
<title>Node8&#45;&gt;Node7</title>
<g id="a_edge15_Node000008_Node000007"><a xlink:title=" ">
<path fill="none" stroke="#63b8ff" d="M582.35,-105.97C599.24,-97.69 626.65,-84.25 646.52,-74.5"/>
<polygon fill="#63b8ff" stroke="#63b8ff" points="648.15,-77.6 655.59,-70.06 645.07,-71.32 648.15,-77.6"/>
</a>
</g>
</g>
<!-- Node9 -->
<g id="Node000009" class="node">
<title>Node9</title>
<g id="a_Node000009"><a xlink:title=" ">
<polygon fill="#e0e0e0" stroke="#999999" points="479.5,-70 444.5,-70 444.5,-53 479.5,-53 479.5,-70"/>
<text text-anchor="middle" x="462" y="-59.6" font-family="Helvetica,sans-Serif" font-size="8.00">array</text>
</a>
</g>
</g>
<!-- Node8&#45;&gt;Node9 -->
<g id="edge10_Node000008_Node000009" class="edge">
<title>Node8&#45;&gt;Node9</title>
<g id="a_edge10_Node000008_Node000009"><a xlink:title=" ">
<path fill="none" stroke="#63b8ff" d="M551.51,-105.97C534.45,-97.69 506.78,-84.25 486.72,-74.5"/>
<polygon fill="#63b8ff" stroke="#63b8ff" points="488.08,-71.28 477.56,-70.06 485.02,-77.57 488.08,-71.28"/>
</a>
</g>
</g>
<!-- Node10 -->
<g id="Node000010" class="node">
<title>Node10</title>
<g id="a_Node000010"><a xlink:title=" ">
<polygon fill="#e0e0e0" stroke="#999999" points="536,-70 498,-70 498,-53 536,-53 536,-70"/>
<text text-anchor="middle" x="517" y="-59.6" font-family="Helvetica,sans-Serif" font-size="8.00">cmath</text>
</a>
</g>
</g>
<!-- Node8&#45;&gt;Node10 -->
<g id="edge11_Node000008_Node000010" class="edge">
<title>Node8&#45;&gt;Node10</title>
<g id="a_edge11_Node000008_Node000010"><a xlink:title=" ">
<path fill="none" stroke="#63b8ff" d="M559.62,-105.97C552.24,-98.44 540.68,-86.65 531.46,-77.25"/>
<polygon fill="#63b8ff" stroke="#63b8ff" points="533.91,-74.75 524.41,-70.06 528.91,-79.65 533.91,-74.75"/>
</a>
</g>
</g>
<!-- Node11 -->
<g id="Node000011" class="node">
<title>Node11</title>
<g id="a_Node000011"><a xlink:title=" ">
<polygon fill="#e0e0e0" stroke="#999999" points="588,-70 554,-70 554,-53 588,-53 588,-70"/>
<text text-anchor="middle" x="571" y="-59.6" font-family="Helvetica,sans-Serif" font-size="8.00">limits</text>
</a>
</g>
</g>
<!-- Node8&#45;&gt;Node11 -->
<g id="edge13_Node000008_Node000011" class="edge">
<title>Node8&#45;&gt;Node11</title>
<g id="a_edge13_Node000008_Node000011"><a xlink:title=" ">
<path fill="none" stroke="#63b8ff" d="M567.59,-105.97C568.12,-99.19 568.92,-88.97 569.62,-80.13"/>
<polygon fill="#63b8ff" stroke="#63b8ff" points="573.11,-80.3 570.41,-70.06 566.14,-79.75 573.11,-80.3"/>
</a>
</g>
</g>
<!-- Node12 -->
<g id="Node000012" class="node">
<title>Node12</title>
<g id="a_Node000012"><a xlink:title=" ">
<polygon fill="#e0e0e0" stroke="#999999" points="426,-70 390,-70 390,-53 426,-53 426,-70"/>
<text text-anchor="middle" x="408" y="-59.6" font-family="Helvetica,sans-Serif" font-size="8.00">string</text>
</a>
</g>
</g>
<!-- Node8&#45;&gt;Node12 -->
<g id="edge14_Node000008_Node000012" class="edge">
<title>Node8&#45;&gt;Node12</title>
<g id="a_edge14_Node000008_Node000012"><a xlink:title=" ">
<path fill="none" stroke="#63b8ff" d="M543.54,-105.97C514.82,-96.76 466.26,-81.19 435.73,-71.39"/>
<polygon fill="#63b8ff" stroke="#63b8ff" points="436.71,-68.03 426.12,-68.31 434.57,-74.7 436.71,-68.03"/>
</a>
</g>
</g>
<!-- Node13 -->
<g id="Node000013" class="node">
<title>Node13</title>
<g id="a_Node000013"><a xlink:href="../../d7/d65/intrinsics_8hpp.html" target="_top" xlink:title=" ">
<polygon fill="#fff0f0" stroke="red" points="333.5,-70 248.5,-70 248.5,-53 333.5,-53 333.5,-70"/>
<text text-anchor="middle" x="291" y="-59.6" font-family="Helvetica,sans-Serif" font-size="8.00">../utils/intrinsics.hpp</text>
</a>
</g>
</g>
<!-- Node8&#45;&gt;Node13 -->
<g id="edge16_Node000008_Node000013" class="edge">
<title>Node8&#45;&gt;Node13</title>
<g id="a_edge16_Node000008_Node000013"><a xlink:title=" ">
<path fill="none" stroke="#63b8ff" d="M529.49,-106.57C481.03,-97.61 396.45,-81.99 342.13,-71.95"/>
<polygon fill="#63b8ff" stroke="#63b8ff" points="342.49,-68.46 332.03,-70.08 341.22,-75.34 342.49,-68.46"/>
</a>
</g>
</g>
<!-- Node13&#45;&gt;Node2 -->
<g id="edge17_Node000013_Node000002" class="edge">
<title>Node13&#45;&gt;Node2</title>
<g id="a_edge17_Node000013_Node000002"><a xlink:title=" ">
<path fill="none" stroke="#63b8ff" d="M296.16,-52.97C301.13,-45.74 308.78,-34.59 315.1,-25.39"/>
<polygon fill="#63b8ff" stroke="#63b8ff" points="318.04,-27.28 320.81,-17.06 312.27,-23.32 318.04,-27.28"/>
</a>
</g>
</g>
<!-- Node15&#45;&gt;Node2 -->
<g id="edge19_Node000015_Node000002" class="edge">
<title>Node15&#45;&gt;Node2</title>
<g id="a_edge19_Node000015_Node000002"><a xlink:title=" ">
<path fill="none" stroke="#63b8ff" d="M89.56,-158.83C94.08,-146.29 104.59,-121.27 121,-106 172.46,-58.12 251.95,-30.07 295.27,-17.49"/>
<polygon fill="#63b8ff" stroke="#63b8ff" points="296.29,-20.84 304.96,-14.76 294.39,-14.1 296.29,-20.84"/>
</a>
</g>
</g>
<!-- Node15&#45;&gt;Node3 -->
<g id="edge21_Node000015_Node000003" class="edge">
<title>Node15&#45;&gt;Node3</title>
<g id="a_edge21_Node000015_Node000003"><a xlink:title=" ">
<path fill="none" stroke="#63b8ff" d="M114.89,-158.97C150.31,-149.42 211.13,-133 247.05,-123.31"/>
<polygon fill="#63b8ff" stroke="#63b8ff" points="248.17,-126.64 256.91,-120.65 246.34,-119.88 248.17,-126.64"/>
</a>
</g>
</g>
<!-- Node15&#45;&gt;Node6 -->
<g id="edge20_Node000015_Node000006" class="edge">
<title>Node15&#45;&gt;Node6</title>
<g id="a_edge20_Node000015_Node000006"><a xlink:title=" ">
<path fill="none" stroke="#63b8ff" d="M103.23,-158.97C121.18,-150.65 150.35,-137.13 171.39,-127.37"/>
<polygon fill="#63b8ff" stroke="#63b8ff" points="173.1,-130.44 180.7,-123.06 170.16,-124.09 173.1,-130.44"/>
</a>
</g>
</g>
<!-- Node15&#45;&gt;Node13 -->
<g id="edge22_Node000015_Node000013" class="edge">
<title>Node15&#45;&gt;Node13</title>
<g id="a_edge22_Node000015_Node000013"><a xlink:title=" ">
<path fill="none" stroke="#63b8ff" d="M92.41,-159C101.98,-146.24 123.17,-120.33 147,-106 175.03,-89.14 210.09,-78.37 238.61,-71.76"/>
<polygon fill="#63b8ff" stroke="#63b8ff" points="239.39,-75.17 248.39,-69.59 237.87,-68.34 239.39,-75.17"/>
</a>
</g>
</g>
<!-- Node16&#45;&gt;Node2 -->
<g id="edge25_Node000016_Node000002" class="edge">
<title>Node16&#45;&gt;Node2</title>
<g id="a_edge25_Node000016_Node000002"><a xlink:title=" ">
<path fill="none" stroke="#63b8ff" d="M548.59,-211.91C607.12,-189.27 766.48,-119.66 707,-53 683.81,-27.01 443.93,-14.44 357.13,-10.72"/>
<polygon fill="#63b8ff" stroke="#63b8ff" points="357.23,-7.22 347.1,-10.3 356.94,-14.22 357.23,-7.22"/>
</a>
</g>
</g>
<!-- Node16&#45;&gt;Node3 -->
<g id="edge27_Node000016_Node000003" class="edge">
<title>Node16&#45;&gt;Node3</title>
<g id="a_edge27_Node000016_Node000003"><a xlink:title=" ">
<path fill="none" stroke="#63b8ff" d="M491.94,-216.27C453.46,-211.64 391.61,-200.77 344,-176 322.17,-164.65 301.75,-144.73 289.09,-130.86"/>
<polygon fill="#63b8ff" stroke="#63b8ff" points="291.51,-128.31 282.27,-123.14 286.26,-132.95 291.51,-128.31"/>
</a>
</g>
</g>
<!-- Node16&#45;&gt;Node4 -->
<g id="edge28_Node000016_Node000004" class="edge">
<title>Node16&#45;&gt;Node4</title>
<g id="a_edge28_Node000016_Node000004"><a xlink:title=" ">
<path fill="none" stroke="#63b8ff" d="M512.95,-211.97C496.45,-203.73 469.74,-190.37 450.28,-180.64"/>
<polygon fill="#63b8ff" stroke="#63b8ff" points="451.62,-177.4 441.11,-176.06 448.49,-183.66 451.62,-177.4"/>
</a>
</g>
</g>
<!-- Node16&#45;&gt;Node7 -->
<g id="edge26_Node000016_Node000007" class="edge">
<title>Node16&#45;&gt;Node7</title>
<g id="a_edge26_Node000016_Node000007"><a xlink:title=" ">
<path fill="none" stroke="#63b8ff" d="M539.14,-211.8C560.4,-196.69 607.36,-161.28 638,-123 648.75,-109.57 657.83,-92.15 663.73,-79.45"/>
<polygon fill="#63b8ff" stroke="#63b8ff" points="667.03,-80.65 667.9,-70.09 660.63,-77.8 667.03,-80.65"/>
</a>
</g>
</g>
<!-- Node16&#45;&gt;Node8 -->
<g id="edge29_Node000016_Node000008" class="edge">
<title>Node16&#45;&gt;Node8</title>
<g id="a_edge29_Node000016_Node000008"><a xlink:title=" ">
<path fill="none" stroke="#63b8ff" d="M530.93,-211.68C537.2,-194.96 552.04,-155.39 560.6,-132.56"/>
<polygon fill="#63b8ff" stroke="#63b8ff" points="563.91,-133.72 564.14,-123.12 557.35,-131.26 563.91,-133.72"/>
</a>
</g>
</g>
<!-- Node16&#45;&gt;Node13 -->
<g id="edge30_Node000016_Node000013" class="edge">
<title>Node16&#45;&gt;Node13</title>
<g id="a_edge30_Node000016_Node000013"><a xlink:title=" ">
<path fill="none" stroke="#63b8ff" d="M526.56,-211.67C524.14,-199.75 518.58,-176.6 509,-159 494.36,-132.11 490.92,-122.3 465,-106 428.26,-82.89 379.94,-72.05 343.55,-66.97"/>
<polygon fill="#63b8ff" stroke="#63b8ff" points="343.98,-63.5 333.62,-65.68 343.08,-70.44 343.98,-63.5"/>
</a>
</g>
</g>
<!-- Node17&#45;&gt;Node13 -->
<g id="edge33_Node000017_Node000013" class="edge">
<title>Node17&#45;&gt;Node13</title>
<g id="a_edge33_Node000017_Node000013"><a xlink:title=" ">
<path fill="none" stroke="#63b8ff" d="M294.15,-211.77C298.97,-193.38 309.79,-145.6 304,-106 302.7,-97.1 299.97,-87.49 297.35,-79.57"/>
<polygon fill="#63b8ff" stroke="#63b8ff" points="300.62,-78.31 293.99,-70.05 294.02,-80.64 300.62,-78.31"/>
</a>
</g>
</g>
<!-- Node18 -->
<g id="Node000018" class="node">
<title>Node18</title>
<g id="a_Node000018"><a xlink:href="../../dc/d3c/bnode_8hpp.html" target="_top" xlink:title=" ">
<polygon fill="white" stroke="#666666" points="257.5,-176 202.5,-176 202.5,-159 257.5,-159 257.5,-176"/>
<text text-anchor="middle" x="230" y="-165.6" font-family="Helvetica,sans-Serif" font-size="8.00">bnode.hpp</text>
</a>
</g>
</g>
<!-- Node17&#45;&gt;Node18 -->
<g id="edge32_Node000017_Node000018" class="edge">
<title>Node17&#45;&gt;Node18</title>
<g id="a_edge32_Node000017_Node000018"><a xlink:title=" ">
<path fill="none" stroke="#63b8ff" d="M282.85,-211.97C273.51,-204.29 258.78,-192.18 247.25,-182.69"/>
<polygon fill="#63b8ff" stroke="#63b8ff" points="249.13,-179.71 239.19,-176.06 244.69,-185.11 249.13,-179.71"/>
</a>
</g>
</g>
</g>
</svg>
