<?xml version="1.0" encoding="UTF-8" standalone="no"?>
<!DOCTYPE svg PUBLIC "-//W3C//DTD SVG 1.1//EN"
 "http://www.w3.org/Graphics/SVG/1.1/DTD/svg11.dtd">
<!-- Generated by graphviz version 2.43.0 (0)
 -->
<!-- Title: dfs.hpp Pages: 1 -->
<svg width="930pt" height="237pt"
 viewBox="0.00 0.00 930.46 237.00" xmlns="http://www.w3.org/2000/svg" xmlns:xlink="http://www.w3.org/1999/xlink">
<g id="graph0" class="graph" transform="scale(1 1) rotate(0) translate(4 233)">
<title>dfs.hpp</title>
<!-- Node1 -->
<g id="Node000001" class="node">
<title>Node1</title>
<g id="a_Node000001"><a xlink:title=" ">
<polygon fill="#999999" stroke="#666666" points="507.46,-229 464.46,-229 464.46,-212 507.46,-212 507.46,-229"/>
<text text-anchor="middle" x="485.96" y="-218.6" font-family="Helvetica,sans-Serif" font-size="8.00">dfs.hpp</text>
</a>
</g>
</g>
<!-- Node2 -->
<g id="Node000002" class="node">
<title>Node2</title>
<g id="a_Node000002"><a xlink:title=" ">
<polygon fill="#e0e0e0" stroke="#999999" points="367.96,-17 325.96,-17 325.96,0 367.96,0 367.96,-17"/>
<text text-anchor="middle" x="346.96" y="-6.6" font-family="Helvetica,sans-Serif" font-size="8.00">cstddef</text>
</a>
</g>
</g>
<!-- Node1&#45;&gt;Node2 -->
<g id="edge1_Node000001_Node000002" class="edge">
<title>Node1&#45;&gt;Node2</title>
<g id="a_edge1_Node000001_Node000002"><a xlink:title=" ">
<path fill="none" stroke="#63b8ff" d="M464.36,-218.92C378.41,-216.1 62.79,-200.51 11.96,-123 -59.71,-13.73 219.25,-7.7 315.44,-8.77"/>
<polygon fill="#63b8ff" stroke="#63b8ff" points="315.66,-12.27 325.71,-8.92 315.76,-5.27 315.66,-12.27"/>
</a>
</g>
</g>
<!-- Node3 -->
<g id="Node000003" class="node">
<title>Node3</title>
<g id="a_Node000003"><a xlink:title=" ">
<polygon fill="#e0e0e0" stroke="#999999" points="426.96,-123 388.96,-123 388.96,-106 426.96,-106 426.96,-123"/>
<text text-anchor="middle" x="407.96" y="-112.6" font-family="Helvetica,sans-Serif" font-size="8.00">vector</text>
</a>
</g>
</g>
<!-- Node1&#45;&gt;Node3 -->
<g id="edge2_Node000001_Node000003" class="edge">
<title>Node1&#45;&gt;Node3</title>
<g id="a_edge2_Node000001_Node000003"><a xlink:title=" ">
<path fill="none" stroke="#63b8ff" d="M480.1,-211.68C467.33,-194.66 436.8,-153.95 419.84,-131.34"/>
<polygon fill="#63b8ff" stroke="#63b8ff" points="422.48,-129.02 413.68,-123.12 416.88,-133.23 422.48,-129.02"/>
</a>
</g>
</g>
<!-- Node4 -->
<g id="Node000004" class="node">
<title>Node4</title>
<g id="a_Node000004"><a xlink:href="../../d8/d62/existence__set_8hpp.html" target="_top" xlink:title=" ">
<polygon fill="white" stroke="#666666" points="290.46,-176 143.46,-176 143.46,-159 290.46,-159 290.46,-176"/>
<text text-anchor="middle" x="216.96" y="-165.6" font-family="Helvetica,sans-Serif" font-size="8.00">../types/containers/existence_set.hpp</text>
</a>
</g>
</g>
<!-- Node1&#45;&gt;Node4 -->
<g id="edge3_Node000001_Node000004" class="edge">
<title>Node1&#45;&gt;Node4</title>
<g id="a_edge3_Node000001_Node000004"><a xlink:title=" ">
<path fill="none" stroke="#63b8ff" d="M464.4,-215.41C421.74,-207.32 325.57,-189.09 266.47,-177.89"/>
<polygon fill="#63b8ff" stroke="#63b8ff" points="267.09,-174.44 256.61,-176.02 265.78,-181.32 267.09,-174.44"/>
</a>
</g>
</g>
<!-- Node10 -->
<g id="Node000010" class="node">
<title>Node10</title>
<g id="a_Node000010"><a xlink:href="../../df/d93/utils_8hpp.html" target="_top" xlink:title=" ">
<polygon fill="white" stroke="#666666" points="596.46,-123 521.46,-123 521.46,-106 596.46,-106 596.46,-123"/>
<text text-anchor="middle" x="558.96" y="-112.6" font-family="Helvetica,sans-Serif" font-size="8.00">../../utils/utils.hpp</text>
</a>
</g>
</g>
<!-- Node1&#45;&gt;Node10 -->
<g id="edge27_Node000001_Node000010" class="edge">
<title>Node1&#45;&gt;Node10</title>
<g id="a_edge27_Node000001_Node000010"><a xlink:title=" ">
<path fill="none" stroke="#63b8ff" d="M507.57,-213.89C525.93,-207.86 551.12,-196.29 562.96,-176 570.51,-163.06 568.43,-145.81 565.09,-133.04"/>
<polygon fill="#63b8ff" stroke="#63b8ff" points="568.35,-131.71 562.05,-123.2 561.66,-133.78 568.35,-131.71"/>
</a>
</g>
</g>
<!-- Node14 -->
<g id="Node000014" class="node">
<title>Node14</title>
<g id="a_Node000014"><a xlink:href="../../d7/d65/intrinsics_8hpp.html" target="_top" xlink:title=" ">
<polygon fill="#fff0f0" stroke="red" points="739.46,-70 654.46,-70 654.46,-53 739.46,-53 739.46,-70"/>
<text text-anchor="middle" x="696.96" y="-59.6" font-family="Helvetica,sans-Serif" font-size="8.00">../utils/intrinsics.hpp</text>
</a>
</g>
</g>
<!-- Node1&#45;&gt;Node14 -->
<g id="edge38_Node000001_Node000014" class="edge">
<title>Node1&#45;&gt;Node14</title>
<g id="a_edge38_Node000001_Node000014"><a xlink:title=" ">
<path fill="none" stroke="#63b8ff" d="M507.58,-217.12C552.24,-210.92 654.08,-189.77 696.96,-123 705.04,-110.42 704.13,-93.13 701.74,-80.26"/>
<polygon fill="#63b8ff" stroke="#63b8ff" points="705.1,-79.26 699.44,-70.31 698.28,-80.84 705.1,-79.26"/>
</a>
</g>
</g>
<!-- Node17 -->
<g id="Node000017" class="node">
<title>Node17</title>
<g id="a_Node000017"><a xlink:href="../../df/d47/stack_8hpp.html" target="_top" xlink:title=" ">
<polygon fill="white" stroke="#666666" points="425.46,-176 308.46,-176 308.46,-159 425.46,-159 425.46,-176"/>
<text text-anchor="middle" x="366.96" y="-165.6" font-family="Helvetica,sans-Serif" font-size="8.00">../types/containers/stack.hpp</text>
</a>
</g>
</g>
<!-- Node1&#45;&gt;Node17 -->
<g id="edge22_Node000001_Node000017" class="edge">
<title>Node1&#45;&gt;Node17</title>
<g id="a_edge22_Node000001_Node000017"><a xlink:title=" ">
<path fill="none" stroke="#63b8ff" d="M468.4,-211.97C448.8,-203.58 416.85,-189.88 394.04,-180.11"/>
<polygon fill="#63b8ff" stroke="#63b8ff" points="395.16,-176.78 384.59,-176.06 392.4,-183.21 395.16,-176.78"/>
</a>
</g>
</g>
<!-- Node18 -->
<g id="Node000018" class="node">
<title>Node18</title>
<g id="a_Node000018"><a xlink:href="../../d2/d1c/solver_8hpp.html" target="_top" xlink:title=" ">
<polygon fill="white" stroke="#666666" points="553.96,-176 481.96,-176 481.96,-159 553.96,-159 553.96,-176"/>
<text text-anchor="middle" x="517.96" y="-165.6" font-family="Helvetica,sans-Serif" font-size="8.00">base/solver.hpp</text>
</a>
</g>
</g>
<!-- Node1&#45;&gt;Node18 -->
<g id="edge28_Node000001_Node000018" class="edge">
<title>Node1&#45;&gt;Node18</title>
<g id="a_edge28_Node000001_Node000018"><a xlink:title=" ">
<path fill="none" stroke="#63b8ff" d="M490.68,-211.97C495.17,-204.82 502.07,-193.82 507.81,-184.67"/>
<polygon fill="#63b8ff" stroke="#63b8ff" points="510.87,-186.39 513.22,-176.06 504.94,-182.67 510.87,-186.39"/>
</a>
</g>
</g>
<!-- Node19 -->
<g id="Node000019" class="node">
<title>Node19</title>
<g id="a_Node000019"><a xlink:href="../../d0/def/unmanaged__node_8hpp.html" target="_top" xlink:title=" ">
<polygon fill="white" stroke="#666666" points="922.46,-176 805.46,-176 805.46,-159 922.46,-159 922.46,-176"/>
<text text-anchor="middle" x="863.96" y="-165.6" font-family="Helvetica,sans-Serif" font-size="8.00">base/unmanaged_node.hpp</text>
</a>
</g>
</g>
<!-- Node1&#45;&gt;Node19 -->
<g id="edge35_Node000001_Node000019" class="edge">
<title>Node1&#45;&gt;Node19</title>
<g id="a_edge35_Node000001_Node000019"><a xlink:title=" ">
<path fill="none" stroke="#63b8ff" d="M507.64,-216.57C563.02,-209.1 711.43,-189.08 798.25,-177.37"/>
<polygon fill="#63b8ff" stroke="#63b8ff" points="798.82,-180.82 808.26,-176.01 797.89,-173.88 798.82,-180.82"/>
</a>
</g>
</g>
<!-- Node4&#45;&gt;Node2 -->
<g id="edge4_Node000004_Node000002" class="edge">
<title>Node4&#45;&gt;Node2</title>
<g id="a_edge4_Node000004_Node000002"><a xlink:title=" ">
<path fill="none" stroke="#63b8ff" d="M201.28,-158.82C181.78,-148.15 152.39,-127.69 163.96,-106 194.32,-49.08 272.15,-24.53 315.9,-14.95"/>
<polygon fill="#63b8ff" stroke="#63b8ff" points="316.64,-18.37 325.73,-12.92 315.23,-11.51 316.64,-18.37"/>
</a>
</g>
</g>
<!-- Node4&#45;&gt;Node3 -->
<g id="edge10_Node000004_Node000003" class="edge">
<title>Node4&#45;&gt;Node3</title>
<g id="a_edge10_Node000004_Node000003"><a xlink:title=" ">
<path fill="none" stroke="#63b8ff" d="M245.14,-158.97C281.03,-149.39 342.73,-132.92 378.99,-123.24"/>
<polygon fill="#63b8ff" stroke="#63b8ff" points="380.18,-126.54 388.94,-120.58 378.37,-119.78 380.18,-126.54"/>
</a>
</g>
</g>
<!-- Node5 -->
<g id="Node000005" class="node">
<title>Node5</title>
<g id="a_Node000005"><a xlink:title=" ">
<polygon fill="#e0e0e0" stroke="#999999" points="309.96,-70 259.96,-70 259.96,-53 309.96,-53 309.96,-70"/>
<text text-anchor="middle" x="284.96" y="-59.6" font-family="Helvetica,sans-Serif" font-size="8.00">functional</text>
</a>
</g>
</g>
<!-- Node4&#45;&gt;Node5 -->
<g id="edge5_Node000004_Node000005" class="edge">
<title>Node4&#45;&gt;Node5</title>
<g id="a_edge5_Node000004_Node000005"><a xlink:title=" ">
<path fill="none" stroke="#63b8ff" d="M203.64,-158.84C185.7,-147.52 157.49,-125.56 170.96,-106 188.46,-80.59 222.96,-70.01 249.44,-65.61"/>
<polygon fill="#63b8ff" stroke="#63b8ff" points="250.1,-69.06 259.5,-64.17 249.11,-62.13 250.1,-69.06"/>
</a>
</g>
</g>
<!-- Node6 -->
<g id="Node000006" class="node">
<title>Node6</title>
<g id="a_Node000006"><a xlink:title=" ">
<polygon fill="#e0e0e0" stroke="#999999" points="80.96,-123 20.96,-123 20.96,-106 80.96,-106 80.96,-123"/>
<text text-anchor="middle" x="50.96" y="-112.6" font-family="Helvetica,sans-Serif" font-size="8.00">initializer_list</text>
</a>
</g>
</g>
<!-- Node4&#45;&gt;Node6 -->
<g id="edge6_Node000004_Node000006" class="edge">
<title>Node4&#45;&gt;Node6</title>
<g id="a_edge6_Node000004_Node000006"><a xlink:title=" ">
<path fill="none" stroke="#63b8ff" d="M192.47,-158.97C164.15,-150.27 117.34,-135.89 85.37,-126.07"/>
<polygon fill="#63b8ff" stroke="#63b8ff" points="86.14,-122.65 75.55,-123.06 84.08,-129.34 86.14,-122.65"/>
</a>
</g>
</g>
<!-- Node7 -->
<g id="Node000007" class="node">
<title>Node7</title>
<g id="a_Node000007"><a xlink:title=" ">
<polygon fill="#e0e0e0" stroke="#999999" points="361.96,-70 327.96,-70 327.96,-53 361.96,-53 361.96,-70"/>
<text text-anchor="middle" x="344.96" y="-59.6" font-family="Helvetica,sans-Serif" font-size="8.00">limits</text>
</a>
</g>
</g>
<!-- Node4&#45;&gt;Node7 -->
<g id="edge7_Node000004_Node000007" class="edge">
<title>Node4&#45;&gt;Node7</title>
<g id="a_edge7_Node000004_Node000007"><a xlink:title=" ">
<path fill="none" stroke="#63b8ff" d="M212.89,-158.97C206.83,-146.64 197.34,-121.92 208.96,-106 210.62,-103.72 278.82,-82.65 317.99,-70.69"/>
<polygon fill="#63b8ff" stroke="#63b8ff" points="319.19,-73.98 327.73,-67.72 317.15,-67.29 319.19,-73.98"/>
</a>
</g>
</g>
<!-- Node8 -->
<g id="Node000008" class="node">
<title>Node8</title>
<g id="a_Node000008"><a xlink:title=" ">
<polygon fill="#e0e0e0" stroke="#999999" points="332.96,-123 250.96,-123 250.96,-106 332.96,-106 332.96,-123"/>
<text text-anchor="middle" x="291.96" y="-112.6" font-family="Helvetica,sans-Serif" font-size="8.00">memory_resource</text>
</a>
</g>
</g>
<!-- Node4&#45;&gt;Node8 -->
<g id="edge8_Node000004_Node000008" class="edge">
<title>Node4&#45;&gt;Node8</title>
<g id="a_edge8_Node000004_Node000008"><a xlink:title=" ">
<path fill="none" stroke="#63b8ff" d="M228.03,-158.97C239.66,-151.07 258.19,-138.46 272.32,-128.86"/>
<polygon fill="#63b8ff" stroke="#63b8ff" points="274.55,-131.57 280.85,-123.06 270.61,-125.78 274.55,-131.57"/>
</a>
</g>
</g>
<!-- Node9 -->
<g id="Node000009" class="node">
<title>Node9</title>
<g id="a_Node000009"><a xlink:title=" ">
<polygon fill="#e0e0e0" stroke="#999999" points="433.46,-70 380.46,-70 380.46,-53 433.46,-53 433.46,-70"/>
<text text-anchor="middle" x="406.96" y="-59.6" font-family="Helvetica,sans-Serif" font-size="8.00">type_traits</text>
</a>
</g>
</g>
<!-- Node4&#45;&gt;Node9 -->
<g id="edge9_Node000004_Node000009" class="edge">
<title>Node4&#45;&gt;Node9</title>
<g id="a_edge9_Node000004_Node000009"><a xlink:title=" ">
<path fill="none" stroke="#63b8ff" d="M217.91,-158.94C219.93,-146.1 225.87,-120.06 241.96,-106 251.71,-97.48 325.06,-80.32 370.62,-70.28"/>
<polygon fill="#63b8ff" stroke="#63b8ff" points="371.42,-73.69 380.44,-68.14 369.92,-66.85 371.42,-73.69"/>
</a>
</g>
</g>
<!-- Node4&#45;&gt;Node10 -->
<g id="edge11_Node000004_Node000010" class="edge">
<title>Node4&#45;&gt;Node10</title>
<g id="a_edge11_Node000004_Node000010"><a xlink:title=" ">
<path fill="none" stroke="#63b8ff" d="M267.42,-158.97C332.9,-149.21 446.34,-132.29 510.71,-122.69"/>
<polygon fill="#63b8ff" stroke="#63b8ff" points="511.62,-126.1 520.99,-121.16 510.58,-119.18 511.62,-126.1"/>
</a>
</g>
</g>
<!-- Node4&#45;&gt;Node14 -->
<g id="edge21_Node000004_Node000014" class="edge">
<title>Node4&#45;&gt;Node14</title>
<g id="a_edge21_Node000004_Node000014"><a xlink:title=" ">
<path fill="none" stroke="#63b8ff" d="M290.5,-159.15C398.9,-148.18 590.4,-128.26 604.96,-123 620.37,-117.43 656.38,-92.2 678.5,-76.13"/>
<polygon fill="#63b8ff" stroke="#63b8ff" points="680.76,-78.82 686.76,-70.09 676.63,-73.17 680.76,-78.82"/>
</a>
</g>
</g>
<!-- Node10&#45;&gt;Node2 -->
<g id="edge14_Node000010_Node000002" class="edge">
<title>Node10&#45;&gt;Node2</title>
<g id="a_edge14_Node000010_Node000002"><a xlink:title=" ">
<path fill="none" stroke="#63b8ff" d="M544.66,-105.83C522.73,-94.12 479.37,-71.23 441.96,-53 419.05,-41.84 392.67,-29.82 373.53,-21.26"/>
<polygon fill="#63b8ff" stroke="#63b8ff" points="374.8,-17.99 364.24,-17.11 371.94,-24.38 374.8,-17.99"/>
</a>
</g>
</g>
<!-- Node10&#45;&gt;Node5 -->
<g id="edge15_Node000010_Node000005" class="edge">
<title>Node10&#45;&gt;Node5</title>
<g id="a_edge15_Node000010_Node000005"><a xlink:title=" ">
<path fill="none" stroke="#63b8ff" d="M521.05,-107.08C475.62,-99.3 396.95,-85.49 320.04,-70.15"/>
<polygon fill="#63b8ff" stroke="#63b8ff" points="320.68,-66.71 310.19,-68.18 319.3,-73.57 320.68,-66.71"/>
</a>
</g>
</g>
<!-- Node10&#45;&gt;Node7 -->
<g id="edge16_Node000010_Node000007" class="edge">
<title>Node10&#45;&gt;Node7</title>
<g id="a_edge16_Node000010_Node000007"><a xlink:title=" ">
<path fill="none" stroke="#63b8ff" d="M523.83,-105.96C487.95,-98.13 430.45,-85.22 371.79,-70.1"/>
<polygon fill="#63b8ff" stroke="#63b8ff" points="372.54,-66.68 361.99,-67.55 370.79,-73.45 372.54,-66.68"/>
</a>
</g>
</g>
<!-- Node10&#45;&gt;Node9 -->
<g id="edge18_Node000010_Node000009" class="edge">
<title>Node10&#45;&gt;Node9</title>
<g id="a_edge18_Node000010_Node000009"><a xlink:title=" ">
<path fill="none" stroke="#63b8ff" d="M536.53,-105.97C510.82,-97.35 468.48,-83.14 439.23,-73.33"/>
<polygon fill="#63b8ff" stroke="#63b8ff" points="440.07,-69.92 429.48,-70.06 437.85,-76.56 440.07,-69.92"/>
</a>
</g>
</g>
<!-- Node11 -->
<g id="Node000011" class="node">
<title>Node11</title>
<g id="a_Node000011"><a xlink:title=" ">
<polygon fill="#e0e0e0" stroke="#999999" points="525.46,-70 490.46,-70 490.46,-53 525.46,-53 525.46,-70"/>
<text text-anchor="middle" x="507.96" y="-59.6" font-family="Helvetica,sans-Serif" font-size="8.00">array</text>
</a>
</g>
</g>
<!-- Node10&#45;&gt;Node11 -->
<g id="edge12_Node000010_Node000011" class="edge">
<title>Node10&#45;&gt;Node11</title>
<g id="a_edge12_Node000010_Node000011"><a xlink:title=" ">
<path fill="none" stroke="#63b8ff" d="M551.43,-105.97C543.9,-98.44 532.11,-86.65 522.71,-77.25"/>
<polygon fill="#63b8ff" stroke="#63b8ff" points="525.06,-74.65 515.52,-70.06 520.11,-79.6 525.06,-74.65"/>
</a>
</g>
</g>
<!-- Node12 -->
<g id="Node000012" class="node">
<title>Node12</title>
<g id="a_Node000012"><a xlink:title=" ">
<polygon fill="#e0e0e0" stroke="#999999" points="581.96,-70 543.96,-70 543.96,-53 581.96,-53 581.96,-70"/>
<text text-anchor="middle" x="562.96" y="-59.6" font-family="Helvetica,sans-Serif" font-size="8.00">cmath</text>
</a>
</g>
</g>
<!-- Node10&#45;&gt;Node12 -->
<g id="edge13_Node000010_Node000012" class="edge">
<title>Node10&#45;&gt;Node12</title>
<g id="a_edge13_Node000010_Node000012"><a xlink:title=" ">
<path fill="none" stroke="#63b8ff" d="M559.55,-105.97C560.08,-99.19 560.88,-88.97 561.58,-80.13"/>
<polygon fill="#63b8ff" stroke="#63b8ff" points="565.07,-80.3 562.37,-70.06 558.1,-79.75 565.07,-80.3"/>
</a>
</g>
</g>
<!-- Node13 -->
<g id="Node000013" class="node">
<title>Node13</title>
<g id="a_Node000013"><a xlink:title=" ">
<polygon fill="#e0e0e0" stroke="#999999" points="635.96,-70 599.96,-70 599.96,-53 635.96,-53 635.96,-70"/>
<text text-anchor="middle" x="617.96" y="-59.6" font-family="Helvetica,sans-Serif" font-size="8.00">string</text>
</a>
</g>
</g>
<!-- Node10&#45;&gt;Node13 -->
<g id="edge17_Node000010_Node000013" class="edge">
<title>Node10&#45;&gt;Node13</title>
<g id="a_edge17_Node000010_Node000013"><a xlink:title=" ">
<path fill="none" stroke="#63b8ff" d="M567.67,-105.97C576.55,-98.29 590.57,-86.18 601.55,-76.69"/>
<polygon fill="#63b8ff" stroke="#63b8ff" points="603.94,-79.24 609.22,-70.06 599.36,-73.95 603.94,-79.24"/>
</a>
</g>
</g>
<!-- Node10&#45;&gt;Node14 -->
<g id="edge19_Node000010_Node000014" class="edge">
<title>Node10&#45;&gt;Node14</title>
<g id="a_edge19_Node000010_Node000014"><a xlink:title=" ">
<path fill="none" stroke="#63b8ff" d="M579.32,-105.97C602.46,-97.42 640.44,-83.39 666.96,-73.59"/>
<polygon fill="#63b8ff" stroke="#63b8ff" points="668.35,-76.81 676.51,-70.06 665.92,-70.24 668.35,-76.81"/>
</a>
</g>
</g>
<!-- Node14&#45;&gt;Node2 -->
<g id="edge20_Node000014_Node000002" class="edge">
<title>Node14&#45;&gt;Node2</title>
<g id="a_edge20_Node000014_Node000002"><a xlink:title=" ">
<path fill="none" stroke="#63b8ff" d="M654.39,-54.3C583.1,-43.91 441.17,-23.23 378.25,-14.06"/>
<polygon fill="#63b8ff" stroke="#63b8ff" points="378.55,-10.57 368.15,-12.59 377.54,-17.49 378.55,-10.57"/>
</a>
</g>
</g>
<!-- Node17&#45;&gt;Node2 -->
<g id="edge23_Node000017_Node000002" class="edge">
<title>Node17&#45;&gt;Node2</title>
<g id="a_edge23_Node000017_Node000002"><a xlink:title=" ">
<path fill="none" stroke="#63b8ff" d="M365.75,-158.73C363.39,-146.05 357.02,-120.83 341.96,-106 310.97,-75.48 275.41,-105.97 250.96,-70 232.01,-42.12 281.28,-24.48 316.04,-15.85"/>
<polygon fill="#63b8ff" stroke="#63b8ff" points="316.89,-19.24 325.83,-13.56 315.3,-12.43 316.89,-19.24"/>
</a>
</g>
</g>
<!-- Node17&#45;&gt;Node3 -->
<g id="edge25_Node000017_Node000003" class="edge">
<title>Node17&#45;&gt;Node3</title>
<g id="a_edge25_Node000017_Node000003"><a xlink:title=" ">
<path fill="none" stroke="#63b8ff" d="M373.01,-158.97C378.88,-151.67 387.98,-140.35 395.42,-131.1"/>
<polygon fill="#63b8ff" stroke="#63b8ff" points="398.35,-133.04 401.88,-123.06 392.89,-128.66 398.35,-133.04"/>
</a>
</g>
</g>
<!-- Node17&#45;&gt;Node8 -->
<g id="edge24_Node000017_Node000008" class="edge">
<title>Node17&#45;&gt;Node8</title>
<g id="a_edge24_Node000017_Node000008"><a xlink:title=" ">
<path fill="none" stroke="#63b8ff" d="M355.89,-158.97C344.26,-151.07 325.72,-138.46 311.6,-128.86"/>
<polygon fill="#63b8ff" stroke="#63b8ff" points="313.31,-125.78 303.07,-123.06 309.37,-131.57 313.31,-125.78"/>
</a>
</g>
</g>
<!-- Node17&#45;&gt;Node14 -->
<g id="edge26_Node000017_Node000014" class="edge">
<title>Node17&#45;&gt;Node14</title>
<g id="a_edge26_Node000017_Node000014"><a xlink:title=" ">
<path fill="none" stroke="#63b8ff" d="M425.63,-161.52C494.18,-154.93 602.85,-141.92 638.96,-123 658.84,-112.59 675.81,-92.76 686.17,-78.65"/>
<polygon fill="#63b8ff" stroke="#63b8ff" points="689.11,-80.55 691.99,-70.35 683.38,-76.53 689.11,-80.55"/>
</a>
</g>
</g>
<!-- Node18&#45;&gt;Node2 -->
<g id="edge29_Node000018_Node000002" class="edge">
<title>Node18&#45;&gt;Node2</title>
<g id="a_edge29_Node000018_Node000002"><a xlink:title=" ">
<path fill="none" stroke="#63b8ff" d="M554.11,-162.18C632.73,-151.43 807.59,-119.45 747.96,-53 723.35,-25.58 468.22,-13.85 378.2,-10.54"/>
<polygon fill="#63b8ff" stroke="#63b8ff" points="378.18,-7.03 368.06,-10.18 377.93,-14.03 378.18,-7.03"/>
</a>
</g>
</g>
<!-- Node18&#45;&gt;Node3 -->
<g id="edge32_Node000018_Node000003" class="edge">
<title>Node18&#45;&gt;Node3</title>
<g id="a_edge32_Node000018_Node000003"><a xlink:title=" ">
<path fill="none" stroke="#63b8ff" d="M501.73,-158.97C483.77,-150.65 454.61,-137.13 433.57,-127.37"/>
<polygon fill="#63b8ff" stroke="#63b8ff" points="434.8,-124.09 424.26,-123.06 431.86,-130.44 434.8,-124.09"/>
</a>
</g>
</g>
<!-- Node18&#45;&gt;Node7 -->
<g id="edge30_Node000018_Node000007" class="edge">
<title>Node18&#45;&gt;Node7</title>
<g id="a_edge30_Node000018_Node000007"><a xlink:title=" ">
<path fill="none" stroke="#63b8ff" d="M508.77,-158.81C494.02,-146.68 463.87,-122.76 435.96,-106 415.09,-93.47 390.05,-81.72 371.53,-73.6"/>
<polygon fill="#63b8ff" stroke="#63b8ff" points="372.8,-70.34 362.23,-69.59 370.03,-76.76 372.8,-70.34"/>
</a>
</g>
</g>
<!-- Node18&#45;&gt;Node9 -->
<g id="edge31_Node000018_Node000009" class="edge">
<title>Node18&#45;&gt;Node9</title>
<g id="a_edge31_Node000018_Node000009"><a xlink:title=" ">
<path fill="none" stroke="#63b8ff" d="M512.83,-158.86C504.5,-146.8 487.14,-122.97 468.96,-106 456.7,-94.56 441.28,-83.73 428.88,-75.73"/>
<polygon fill="#63b8ff" stroke="#63b8ff" points="430.42,-72.57 420.09,-70.21 426.69,-78.49 430.42,-72.57"/>
</a>
</g>
</g>
<!-- Node18&#45;&gt;Node10 -->
<g id="edge33_Node000018_Node000010" class="edge">
<title>Node18&#45;&gt;Node10</title>
<g id="a_edge33_Node000018_Node000010"><a xlink:title=" ">
<path fill="none" stroke="#63b8ff" d="M524.01,-158.97C529.88,-151.67 538.98,-140.35 546.42,-131.1"/>
<polygon fill="#63b8ff" stroke="#63b8ff" points="549.35,-133.04 552.88,-123.06 543.89,-128.66 549.35,-133.04"/>
</a>
</g>
</g>
<!-- Node18&#45;&gt;Node14 -->
<g id="edge34_Node000018_Node000014" class="edge">
<title>Node18&#45;&gt;Node14</title>
<g id="a_edge34_Node000018_Node000014"><a xlink:title=" ">
<path fill="none" stroke="#63b8ff" d="M554.26,-166.03C589.94,-163.63 643.75,-154.52 676.96,-123 688.74,-111.81 693.59,-93.55 695.58,-80.01"/>
<polygon fill="#63b8ff" stroke="#63b8ff" points="699.07,-80.33 696.67,-70.01 692.11,-79.57 699.07,-80.33"/>
</a>
</g>
</g>
<!-- Node19&#45;&gt;Node14 -->
<g id="edge37_Node000019_Node000014" class="edge">
<title>Node19&#45;&gt;Node14</title>
<g id="a_edge37_Node000019_Node000014"><a xlink:title=" ">
<path fill="none" stroke="#63b8ff" d="M855.96,-158.67C843.08,-146.34 816.58,-122.16 790.96,-106 770.5,-93.09 745.58,-81.74 726.54,-73.87"/>
<polygon fill="#63b8ff" stroke="#63b8ff" points="727.76,-70.58 717.17,-70.08 725.13,-77.07 727.76,-70.58"/>
</a>
</g>
</g>
<!-- Node20 -->
<g id="Node000020" class="node">
<title>Node20</title>
<g id="a_Node000020"><a xlink:href="../../dc/d3c/bnode_8hpp.html" target="_top" xlink:title=" ">
<polygon fill="white" stroke="#666666" points="898.46,-123 843.46,-123 843.46,-106 898.46,-106 898.46,-123"/>
<text text-anchor="middle" x="870.96" y="-112.6" font-family="Helvetica,sans-Serif" font-size="8.00">bnode.hpp</text>
</a>
</g>
</g>
<!-- Node19&#45;&gt;Node20 -->
<g id="edge36_Node000019_Node000020" class="edge">
<title>Node19&#45;&gt;Node20</title>
<g id="a_edge36_Node000019_Node000020"><a xlink:title=" ">
<path fill="none" stroke="#63b8ff" d="M864.99,-158.97C865.92,-152.19 867.33,-141.97 868.54,-133.13"/>
<polygon fill="#63b8ff" stroke="#63b8ff" points="872.03,-133.44 869.92,-123.06 865.09,-132.49 872.03,-133.44"/>
</a>
</g>
</g>
</g>
</svg>
