<?xml version="1.0" encoding="UTF-8" standalone="no"?>
<!DOCTYPE svg PUBLIC "-//W3C//DTD SVG 1.1//EN"
 "http://www.w3.org/Graphics/SVG/1.1/DTD/svg11.dtd">
<!-- Generated by graphviz version 2.43.0 (0)
 -->
<!-- Title: bnode Pages: 1 -->
<svg width="296pt" height="60pt"
 viewBox="0.00 0.00 296.00 60.00" xmlns="http://www.w3.org/2000/svg" xmlns:xlink="http://www.w3.org/1999/xlink">
<g id="graph0" class="graph" transform="scale(1 1) rotate(0) translate(4 56)">
<title>bnode</title>
<!-- Node1 -->
<g id="Node000001" class="node">
<title>Node1</title>
<g id="a_Node000001"><a xlink:title="Constructs an uninitialized BNode.">
<polygon fill="#999999" stroke="#666666" points="288,-34 245,-34 245,-17 288,-17 288,-34"/>
<text text-anchor="middle" x="266.5" y="-23.6" font-family="Helvetica,sans-Serif" font-size="8.00">bnode</text>
</a>
</g>
</g>
<!-- Node2 -->
<g id="Node000002" class="node">
<title>Node2</title>
<g id="a_Node000002"><a xlink:href="../../df/d64/structchdr_1_1solvers_1_1managed__node_a66205330f118f6d2bb86303fe4cc721c.html#a66205330f118f6d2bb86303fe4cc721c" target="_top" xlink:title="Constructs a node with a specified index and an optional parent pointer.">
<polygon fill="white" stroke="#666666" points="209,-52 0,-52 0,-35 209,-35 209,-52"/>
<text text-anchor="middle" x="104.5" y="-41.6" font-family="Helvetica,sans-Serif" font-size="8.00">chdr::solvers::managed_node::managed_node</text>
</a>
</g>
</g>
<!-- Node1&#45;&gt;Node2 -->
<g id="edge1_Node000001_Node000002" class="edge">
<title>Node1&#45;&gt;Node2</title>
<g id="a_edge1_Node000001_Node000002"><a xlink:title=" ">
<path fill="none" stroke="#63b8ff" d="M234.95,-28.94C219.56,-30.67 200.15,-32.85 181.08,-35"/>
<polygon fill="#63b8ff" stroke="#63b8ff" points="235.36,-32.41 244.91,-27.82 234.58,-25.46 235.36,-32.41"/>
</a>
</g>
</g>
<!-- Node3 -->
<g id="Node000003" class="node">
<title>Node3</title>
<g id="a_Node000003"><a xlink:href="../../df/d64/structchdr_1_1solvers_1_1managed__node_a347b686b64792776a7fe77145d90f928.html#a347b686b64792776a7fe77145d90f928" target="_top" xlink:title="Recursively releases dead nodes from the parent hierarchy.">
<polygon fill="white" stroke="#666666" points="195,-17 14,-17 14,0 195,0 195,-17"/>
<text text-anchor="middle" x="104.5" y="-6.6" font-family="Helvetica,sans-Serif" font-size="8.00">chdr::solvers::managed_node::expunge</text>
</a>
</g>
</g>
<!-- Node1&#45;&gt;Node3 -->
<g id="edge2_Node000001_Node000003" class="edge">
<title>Node1&#45;&gt;Node3</title>
<g id="a_edge2_Node000001_Node000003"><a xlink:title=" ">
<path fill="none" stroke="#63b8ff" d="M234.84,-22.24C220.74,-20.74 203.28,-18.89 185.81,-17.03"/>
<polygon fill="#63b8ff" stroke="#63b8ff" points="234.6,-25.74 244.91,-23.31 235.34,-18.78 234.6,-25.74"/>
</a>
</g>
</g>
</g>
</svg>
