<?xml version="1.0" encoding="UTF-8" standalone="no"?>
<!DOCTYPE svg PUBLIC "-//W3C//DTD SVG 1.1//EN"
 "http://www.w3.org/Graphics/SVG/1.1/DTD/svg11.dtd">
<!-- Generated by graphviz version 2.42.4 (0)
 -->
<!-- Title: bnode Pages: 1 -->
<svg width="296pt" height="130pt"
 viewBox="0.00 0.00 296.00 130.00" xmlns="http://www.w3.org/2000/svg" xmlns:xlink="http://www.w3.org/1999/xlink">
<g id="graph0" class="graph" transform="scale(1 1) rotate(0) translate(4 126)">
<title>bnode</title>
<!-- Node1 -->
<g id="Node000001" class="node">
<title>Node1</title>
<g id="a_Node000001"><a xlink:title="Constructs an uninitialized BNode.">
<polygon fill="#999999" stroke="#666666" points="288,-69 245,-69 245,-52 288,-52 288,-69"/>
<text text-anchor="middle" x="266.5" y="-58.6" font-family="Helvetica,sans-Serif" font-size="8.00">bnode</text>
</a>
</g>
</g>
<!-- Node2 -->
<g id="Node000002" class="node">
<title>Node2</title>
<g id="a_Node000002"><a xlink:href="../../df/d64/structchdr_1_1solvers_1_1managed__node_a66205330f118f6d2bb86303fe4cc721c.html#a66205330f118f6d2bb86303fe4cc721c" target="_top" xlink:title="Constructs a node with a specified index and an optional parent pointer.">
<polygon fill="white" stroke="#666666" points="209,-122 0,-122 0,-105 209,-105 209,-122"/>
<text text-anchor="middle" x="104.5" y="-111.6" font-family="Helvetica,sans-Serif" font-size="8.00">chdr::solvers::managed_node::managed_node</text>
</a>
</g>
</g>
<!-- Node1&#45;&gt;Node2 -->
<g id="edge1_Node000001_Node000002" class="edge">
<title>Node1&#45;&gt;Node2</title>
<g id="a_edge1_Node000001_Node000002"><a xlink:title=" ">
<path fill="none" stroke="#63b8ff" d="M246.93,-75.06C236.37,-82.61 222.58,-91.31 209,-96.5 199.9,-99.98 190.08,-102.74 180.25,-104.95"/>
<polygon fill="#63b8ff" stroke="#63b8ff" points="249.02,-77.86 254.96,-69.09 244.84,-72.24 249.02,-77.86"/>
</a>
</g>
</g>
<!-- Node3 -->
<g id="Node000003" class="node">
<title>Node3</title>
<g id="a_Node000003"><a xlink:href="../../df/d64/structchdr_1_1solvers_1_1managed__node_af4627435bff714d1f30b5d459f951e72.html#af4627435bff714d1f30b5d459f951e72" target="_top" xlink:title="Sets the current successor count.">
<polygon fill="white" stroke="#666666" points="189,-87 20,-87 20,-70 189,-70 189,-87"/>
<text text-anchor="middle" x="104.5" y="-76.6" font-family="Helvetica,sans-Serif" font-size="8.00">chdr::solvers::managed_node::count</text>
</a>
</g>
</g>
<!-- Node1&#45;&gt;Node3 -->
<g id="edge2_Node000001_Node000003" class="edge">
<title>Node1&#45;&gt;Node3</title>
<g id="a_edge2_Node000001_Node000003"><a xlink:title=" ">
<path fill="none" stroke="#63b8ff" d="M234.95,-63.94C219.56,-65.67 200.15,-67.85 181.08,-70"/>
<polygon fill="#63b8ff" stroke="#63b8ff" points="235.36,-67.41 244.91,-62.82 234.58,-60.46 235.36,-67.41"/>
</a>
</g>
</g>
<!-- Node4 -->
<g id="Node000004" class="node">
<title>Node4</title>
<g id="a_Node000004"><a xlink:href="../../df/d64/structchdr_1_1solvers_1_1managed__node_a347b686b64792776a7fe77145d90f928.html#a347b686b64792776a7fe77145d90f928" target="_top" xlink:title="Recursively releases dead nodes from the parent hierarchy.">
<polygon fill="white" stroke="#666666" points="195,-52 14,-52 14,-35 195,-35 195,-52"/>
<text text-anchor="middle" x="104.5" y="-41.6" font-family="Helvetica,sans-Serif" font-size="8.00">chdr::solvers::managed_node::expunge</text>
</a>
</g>
</g>
<!-- Node1&#45;&gt;Node4 -->
<g id="edge3_Node000001_Node000004" class="edge">
<title>Node1&#45;&gt;Node4</title>
<g id="a_edge3_Node000001_Node000004"><a xlink:title=" ">
<path fill="none" stroke="#63b8ff" d="M234.84,-57.24C220.74,-55.74 203.28,-53.89 185.81,-52.03"/>
<polygon fill="#63b8ff" stroke="#63b8ff" points="234.6,-60.74 244.91,-58.31 235.34,-53.78 234.6,-60.74"/>
</a>
</g>
</g>
<!-- Node5 -->
<g id="Node000005" class="node">
<title>Node5</title>
<g id="a_Node000005"><a xlink:href="../../df/d64/structchdr_1_1solvers_1_1managed__node_a90c8d052d768b663cd0b13d5556b8705.html#a90c8d052d768b663cd0b13d5556b8705" target="_top" xlink:title="Decrements parent&#39;s successor count and checks if it can be released.">
<polygon fill="white" stroke="#666666" points="199.5,-17 9.5,-17 9.5,0 199.5,0 199.5,-17"/>
<text text-anchor="middle" x="104.5" y="-6.6" font-family="Helvetica,sans-Serif" font-size="8.00">chdr::solvers::managed_node::forget_one</text>
</a>
</g>
</g>
<!-- Node1&#45;&gt;Node5 -->
<g id="edge4_Node000001_Node000005" class="edge">
<title>Node1&#45;&gt;Node5</title>
<g id="a_edge4_Node000001_Node000005"><a xlink:title=" ">
<path fill="none" stroke="#63b8ff" d="M245.67,-46.09C235.24,-39.16 221.94,-31.33 209,-26.5 198.4,-22.55 186.87,-19.46 175.47,-17.04"/>
<polygon fill="#63b8ff" stroke="#63b8ff" points="243.81,-49.05 254.03,-51.85 247.78,-43.29 243.81,-49.05"/>
</a>
</g>
</g>
</g>
</svg>
