<?xml version="1.0" encoding="UTF-8" standalone="no"?>
<!DOCTYPE svg PUBLIC "-//W3C//DTD SVG 1.1//EN"
 "http://www.w3.org/Graphics/SVG/1.1/DTD/svg11.dtd">
<!-- Generated by graphviz version 2.43.0 (0)
 -->
<!-- Title: bnode Pages: 1 -->
<svg width="266pt" height="60pt"
 viewBox="0.00 0.00 266.00 60.00" xmlns="http://www.w3.org/2000/svg" xmlns:xlink="http://www.w3.org/1999/xlink">
<g id="graph0" class="graph" transform="scale(1 1) rotate(0) translate(4 56)">
<title>bnode</title>
<!-- Node1 -->
<g id="Node000001" class="node">
<title>Node1</title>
<g id="a_Node000001"><a xlink:title="Constructs an uninitialized BNode.">
<polygon fill="#999999" stroke="#666666" points="258,-34 219,-34 219,-17 258,-17 258,-34"/>
<text text-anchor="middle" x="238.5" y="-23.6" font-family="Helvetica,sans-Serif" font-size="8.00">bnode</text>
</a>
</g>
</g>
<!-- Node2 -->
<g id="Node000002" class="node">
<title>Node2</title>
<g id="a_Node000002"><a xlink:href="../../df/d64/structchdr_1_1solvers_1_1managed__node_a66205330f118f6d2bb86303fe4cc721c.html#a66205330f118f6d2bb86303fe4cc721c" target="_top" xlink:title="Constructs a node with a specified index and an optional parent pointer.">
<polygon fill="white" stroke="#666666" points="183,-52 0,-52 0,-35 183,-35 183,-52"/>
<text text-anchor="middle" x="91.5" y="-41.6" font-family="Helvetica,sans-Serif" font-size="8.00">chdr::solvers::managed_node::managed_node</text>
</a>
</g>
</g>
<!-- Node1&#45;&gt;Node2 -->
<g id="edge1_Node000001_Node000002" class="edge">
<title>Node1&#45;&gt;Node2</title>
<g id="a_edge1_Node000001_Node000002"><a xlink:title=" ">
<path fill="none" stroke="#63b8ff" d="M208.6,-29.09C194.85,-30.79 177.78,-32.91 161,-35"/>
<polygon fill="#63b8ff" stroke="#63b8ff" points="209.35,-32.52 218.84,-27.82 208.49,-25.58 209.35,-32.52"/>
</a>
</g>
</g>
<!-- Node3 -->
<g id="Node000003" class="node">
<title>Node3</title>
<g id="a_Node000003"><a xlink:href="../../df/d64/structchdr_1_1solvers_1_1managed__node_ab5f592a9006a0547df3cf2c3ab2118a0.html#ab5f592a9006a0547df3cf2c3ab2118a0" target="_top" xlink:title="Recursively releases dead nodes from the parent hierarchy.">
<polygon fill="white" stroke="#666666" points="170.5,-17 12.5,-17 12.5,0 170.5,0 170.5,-17"/>
<text text-anchor="middle" x="91.5" y="-6.6" font-family="Helvetica,sans-Serif" font-size="8.00">chdr::solvers::managed_node::expunge</text>
</a>
</g>
</g>
<!-- Node1&#45;&gt;Node3 -->
<g id="edge2_Node000001_Node000003" class="edge">
<title>Node1&#45;&gt;Node3</title>
<g id="a_edge2_Node000001_Node000003"><a xlink:title=" ">
<path fill="none" stroke="#63b8ff" d="M208.58,-22.11C196,-20.63 180.65,-18.83 165.28,-17.03"/>
<polygon fill="#63b8ff" stroke="#63b8ff" points="208.5,-25.62 218.84,-23.31 209.32,-18.67 208.5,-25.62"/>
</a>
</g>
</g>
</g>
</svg>
