<?xml version="1.0" encoding="UTF-8" standalone="no"?>
<!DOCTYPE svg PUBLIC "-//W3C//DTD SVG 1.1//EN"
 "http://www.w3.org/Graphics/SVG/1.1/DTD/svg11.dtd">
<!-- Generated by graphviz version 2.43.0 (0)
 -->
<!-- Title: bnode Pages: 1 -->
<svg width="296pt" height="95pt"
 viewBox="0.00 0.00 296.00 95.00" xmlns="http://www.w3.org/2000/svg" xmlns:xlink="http://www.w3.org/1999/xlink">
<g id="graph0" class="graph" transform="scale(1 1) rotate(0) translate(4 91)">
<title>bnode</title>
<!-- Node1 -->
<g id="Node000001" class="node">
<title>Node1</title>
<g id="a_Node000001"><a xlink:title="Constructs an uninitialized BNode.">
<polygon fill="#999999" stroke="#666666" points="288,-52 245,-52 245,-35 288,-35 288,-52"/>
<text text-anchor="middle" x="266.5" y="-41.6" font-family="Helvetica,sans-Serif" font-size="8.00">bnode</text>
</a>
</g>
</g>
<!-- Node2 -->
<g id="Node000002" class="node">
<title>Node2</title>
<g id="a_Node000002"><a xlink:href="../../df/d64/structchdr_1_1solvers_1_1managed__node_a66205330f118f6d2bb86303fe4cc721c.html#a66205330f118f6d2bb86303fe4cc721c" target="_top" xlink:title="Constructs a node with a specified index and an optional parent pointer.">
<polygon fill="white" stroke="#666666" points="209,-87 0,-87 0,-70 209,-70 209,-87"/>
<text text-anchor="middle" x="104.5" y="-76.6" font-family="Helvetica,sans-Serif" font-size="8.00">chdr::solvers::managed_node::managed_node</text>
</a>
</g>
</g>
<!-- Node1&#45;&gt;Node2 -->
<g id="edge1_Node000001_Node000002" class="edge">
<title>Node1&#45;&gt;Node2</title>
<g id="a_edge1_Node000001_Node000002"><a xlink:title=" ">
<path fill="none" stroke="#63b8ff" d="M235.03,-54.1C226.66,-56.77 217.54,-59.45 209,-61.5 195.37,-64.77 180.57,-67.62 166.54,-69.99"/>
<polygon fill="#63b8ff" stroke="#63b8ff" points="236.37,-57.35 244.78,-50.9 234.18,-50.7 236.37,-57.35"/>
</a>
</g>
</g>
<!-- Node3 -->
<g id="Node000003" class="node">
<title>Node3</title>
<g id="a_Node000003"><a xlink:href="../../df/d64/structchdr_1_1solvers_1_1managed__node_a347b686b64792776a7fe77145d90f928.html#a347b686b64792776a7fe77145d90f928" target="_top" xlink:title="Recursively releases dead nodes from the parent hierarchy.">
<polygon fill="white" stroke="#666666" points="195,-52 14,-52 14,-35 195,-35 195,-52"/>
<text text-anchor="middle" x="104.5" y="-41.6" font-family="Helvetica,sans-Serif" font-size="8.00">chdr::solvers::managed_node::expunge</text>
</a>
</g>
</g>
<!-- Node1&#45;&gt;Node3 -->
<g id="edge2_Node000001_Node000003" class="edge">
<title>Node1&#45;&gt;Node3</title>
<g id="a_edge2_Node000001_Node000003"><a xlink:title=" ">
<path fill="none" stroke="#63b8ff" d="M234.61,-43.5C223.1,-43.5 209.37,-43.5 195.24,-43.5"/>
<polygon fill="#63b8ff" stroke="#63b8ff" points="234.91,-47 244.91,-43.5 234.91,-40 234.91,-47"/>
</a>
</g>
</g>
<!-- Node4 -->
<g id="Node000004" class="node">
<title>Node4</title>
<g id="a_Node000004"><a xlink:href="../../df/d64/structchdr_1_1solvers_1_1managed__node_a90c8d052d768b663cd0b13d5556b8705.html#a90c8d052d768b663cd0b13d5556b8705" target="_top" xlink:title="Decrements parent&#39;s successor count and checks if it can be released.">
<polygon fill="white" stroke="#666666" points="199.5,-17 9.5,-17 9.5,0 199.5,0 199.5,-17"/>
<text text-anchor="middle" x="104.5" y="-6.6" font-family="Helvetica,sans-Serif" font-size="8.00">chdr::solvers::managed_node::forget_one</text>
</a>
</g>
</g>
<!-- Node1&#45;&gt;Node4 -->
<g id="edge3_Node000001_Node000004" class="edge">
<title>Node1&#45;&gt;Node4</title>
<g id="a_edge3_Node000001_Node000004"><a xlink:title=" ">
<path fill="none" stroke="#63b8ff" d="M235.19,-33.65C226.77,-31.11 217.58,-28.53 209,-26.5 193.82,-22.91 177.24,-19.71 161.88,-17.04"/>
<polygon fill="#63b8ff" stroke="#63b8ff" points="234.41,-37.07 245,-36.68 236.48,-30.38 234.41,-37.07"/>
</a>
</g>
</g>
</g>
</svg>
