<?xml version="1.0" encoding="UTF-8" standalone="no"?>
<!DOCTYPE svg PUBLIC "-//W3C//DTD SVG 1.1//EN"
 "http://www.w3.org/Graphics/SVG/1.1/DTD/svg11.dtd">
<!-- Generated by graphviz version 2.43.0 (0)
 -->
<!-- Title: solver.hpp Pages: 1 -->
<svg width="704pt" height="237pt"
 viewBox="0.00 0.00 703.84 237.00" xmlns="http://www.w3.org/2000/svg" xmlns:xlink="http://www.w3.org/1999/xlink">
<g id="graph0" class="graph" transform="scale(1 1) rotate(0) translate(4 233)">
<title>solver.hpp</title>
<!-- Node1 -->
<g id="Node000001" class="node">
<title>Node1</title>
<g id="a_Node000001"><a xlink:title=" ">
<polygon fill="#999999" stroke="#666666" points="433,-229 380,-229 380,-212 433,-212 433,-229"/>
<text text-anchor="middle" x="406.5" y="-218.6" font-family="Helvetica,sans-Serif" font-size="8.00">solver.hpp</text>
</a>
</g>
</g>
<!-- Node2 -->
<g id="Node000002" class="node">
<title>Node2</title>
<g id="a_Node000002"><a xlink:title=" ">
<polygon fill="#e0e0e0" stroke="#999999" points="297.5,-17 255.5,-17 255.5,0 297.5,0 297.5,-17"/>
<text text-anchor="middle" x="276.5" y="-6.6" font-family="Helvetica,sans-Serif" font-size="8.00">cstddef</text>
</a>
</g>
</g>
<!-- Node1&#45;&gt;Node2 -->
<g id="edge1_Node000001_Node000002" class="edge">
<title>Node1&#45;&gt;Node2</title>
<g id="a_edge1_Node000001_Node000002"><a xlink:title=" ">
<path fill="none" stroke="#63b8ff" d="M433.13,-218.32C514.8,-213.74 752.15,-192.84 683.5,-106 636.43,-46.46 394.87,-19.81 307.82,-12.04"/>
<polygon fill="#63b8ff" stroke="#63b8ff" points="308.02,-8.55 297.76,-11.17 307.42,-15.52 308.02,-8.55"/>
</a>
</g>
</g>
<!-- Node3 -->
<g id="Node000003" class="node">
<title>Node3</title>
<g id="a_Node000003"><a xlink:title=" ">
<polygon fill="#e0e0e0" stroke="#999999" points="411,-70 358,-70 358,-53 411,-53 411,-70"/>
<text text-anchor="middle" x="384.5" y="-59.6" font-family="Helvetica,sans-Serif" font-size="8.00">type_traits</text>
</a>
</g>
</g>
<!-- Node1&#45;&gt;Node3 -->
<g id="edge2_Node000001_Node000003" class="edge">
<title>Node1&#45;&gt;Node3</title>
<g id="a_edge2_Node000001_Node000003"><a xlink:title=" ">
<path fill="none" stroke="#63b8ff" d="M398.1,-211.8C390.02,-203.77 378.34,-190.38 373.5,-176 362.49,-143.27 371.59,-102.44 378.51,-79.75"/>
<polygon fill="#63b8ff" stroke="#63b8ff" points="381.86,-80.77 381.63,-70.18 375.2,-78.6 381.86,-80.77"/>
</a>
</g>
</g>
<!-- Node4 -->
<g id="Node000004" class="node">
<title>Node4</title>
<g id="a_Node000004"><a xlink:title=" ">
<polygon fill="#e0e0e0" stroke="#999999" points="674.5,-123 636.5,-123 636.5,-106 674.5,-106 674.5,-123"/>
<text text-anchor="middle" x="655.5" y="-112.6" font-family="Helvetica,sans-Serif" font-size="8.00">vector</text>
</a>
</g>
</g>
<!-- Node1&#45;&gt;Node4 -->
<g id="edge3_Node000001_Node000004" class="edge">
<title>Node1&#45;&gt;Node4</title>
<g id="a_edge3_Node000001_Node000004"><a xlink:title=" ">
<path fill="none" stroke="#63b8ff" d="M433.19,-212.85C461.6,-205.38 507.59,-192.17 545.5,-176 577.98,-162.15 613.41,-141.6 635.04,-128.37"/>
<polygon fill="#63b8ff" stroke="#63b8ff" points="637.02,-131.27 643.69,-123.03 633.34,-125.31 637.02,-131.27"/>
</a>
</g>
</g>
<!-- Node5 -->
<g id="Node000005" class="node">
<title>Node5</title>
<g id="a_Node000005"><a xlink:href="../../d8/d62/existence__set_8hpp.html" target="_top" xlink:title=" ">
<polygon fill="white" stroke="#666666" points="536.5,-176 382.5,-176 382.5,-159 536.5,-159 536.5,-176"/>
<text text-anchor="middle" x="459.5" y="-165.6" font-family="Helvetica,sans-Serif" font-size="8.00">../../types/containers/existence_set.hpp</text>
</a>
</g>
</g>
<!-- Node1&#45;&gt;Node5 -->
<g id="edge4_Node000001_Node000005" class="edge">
<title>Node1&#45;&gt;Node5</title>
<g id="a_edge4_Node000001_Node000005"><a xlink:title=" ">
<path fill="none" stroke="#63b8ff" d="M414.32,-211.97C422.15,-204.44 434.4,-192.65 444.17,-183.25"/>
<polygon fill="#63b8ff" stroke="#63b8ff" points="446.87,-185.51 451.65,-176.06 442.01,-180.47 446.87,-185.51"/>
</a>
</g>
</g>
<!-- Node8 -->
<g id="Node000008" class="node">
<title>Node8</title>
<g id="a_Node000008"><a xlink:href="../../df/d93/utils_8hpp.html" target="_top" xlink:title=" ">
<polygon fill="white" stroke="#666666" points="306,-123 231,-123 231,-106 306,-106 306,-123"/>
<text text-anchor="middle" x="268.5" y="-112.6" font-family="Helvetica,sans-Serif" font-size="8.00">../../utils/utils.hpp</text>
</a>
</g>
</g>
<!-- Node1&#45;&gt;Node8 -->
<g id="edge19_Node000001_Node000008" class="edge">
<title>Node1&#45;&gt;Node8</title>
<g id="a_edge19_Node000001_Node000008"><a xlink:title=" ">
<path fill="none" stroke="#63b8ff" d="M394.05,-211.9C380.55,-203.52 358.54,-189.45 340.5,-176 320.59,-161.15 298.91,-142.58 284.6,-129.96"/>
<polygon fill="#63b8ff" stroke="#63b8ff" points="286.9,-127.32 277.1,-123.29 282.25,-132.55 286.9,-127.32"/>
</a>
</g>
</g>
<!-- Node13 -->
<g id="Node000013" class="node">
<title>Node13</title>
<g id="a_Node000013"><a xlink:href="../../d7/d65/intrinsics_8hpp.html" target="_top" xlink:title=" ">
<polygon fill="#fff0f0" stroke="red" points="85,-70 0,-70 0,-53 85,-53 85,-70"/>
<text text-anchor="middle" x="42.5" y="-59.6" font-family="Helvetica,sans-Serif" font-size="8.00">../utils/intrinsics.hpp</text>
</a>
</g>
</g>
<!-- Node1&#45;&gt;Node13 -->
<g id="edge20_Node000001_Node000013" class="edge">
<title>Node1&#45;&gt;Node13</title>
<g id="a_edge20_Node000001_Node000013"><a xlink:title=" ">
<path fill="none" stroke="#63b8ff" d="M388.94,-211.93C330.33,-186.65 141.11,-105.03 69.92,-74.33"/>
<polygon fill="#63b8ff" stroke="#63b8ff" points="70.88,-70.93 60.31,-70.18 68.1,-77.35 70.88,-70.93"/>
</a>
</g>
</g>
<!-- Node5&#45;&gt;Node2 -->
<g id="edge5_Node000005_Node000002" class="edge">
<title>Node5&#45;&gt;Node2</title>
<g id="a_edge5_Node000005_Node000002"><a xlink:title=" ">
<path fill="none" stroke="#63b8ff" d="M457.85,-158.95C452.71,-136.1 436.41,-68.32 420.5,-53 389.91,-23.54 340.08,-13.95 307.79,-10.88"/>
<polygon fill="#63b8ff" stroke="#63b8ff" points="307.82,-7.37 297.57,-10.07 307.26,-14.35 307.82,-7.37"/>
</a>
</g>
</g>
<!-- Node5&#45;&gt;Node3 -->
<g id="edge8_Node000005_Node000003" class="edge">
<title>Node5&#45;&gt;Node3</title>
<g id="a_edge8_Node000005_Node000003"><a xlink:title=" ">
<path fill="none" stroke="#63b8ff" d="M450.48,-158.82C441.19,-150.6 426.68,-136.87 416.5,-123 406.5,-109.38 397.74,-92.22 391.92,-79.66"/>
<polygon fill="#63b8ff" stroke="#63b8ff" points="395.05,-78.07 387.77,-70.37 388.66,-80.93 395.05,-78.07"/>
</a>
</g>
</g>
<!-- Node5&#45;&gt;Node4 -->
<g id="edge9_Node000005_Node000004" class="edge">
<title>Node5&#45;&gt;Node4</title>
<g id="a_edge9_Node000005_Node000004"><a xlink:title=" ">
<path fill="none" stroke="#63b8ff" d="M488.96,-158.95C520.62,-150.82 572.67,-137.41 626.51,-123.24"/>
<polygon fill="#63b8ff" stroke="#63b8ff" points="627.45,-126.62 636.23,-120.69 625.66,-119.85 627.45,-126.62"/>
</a>
</g>
</g>
<!-- Node6 -->
<g id="Node000006" class="node">
<title>Node6</title>
<g id="a_Node000006"><a xlink:title=" ">
<polygon fill="#e0e0e0" stroke="#999999" points="518.5,-123 458.5,-123 458.5,-106 518.5,-106 518.5,-123"/>
<text text-anchor="middle" x="488.5" y="-112.6" font-family="Helvetica,sans-Serif" font-size="8.00">initializer_list</text>
</a>
</g>
</g>
<!-- Node5&#45;&gt;Node6 -->
<g id="edge6_Node000005_Node000006" class="edge">
<title>Node5&#45;&gt;Node6</title>
<g id="a_edge6_Node000005_Node000006"><a xlink:title=" ">
<path fill="none" stroke="#63b8ff" d="M463.78,-158.97C467.81,-151.89 473.97,-141.05 479.14,-131.96"/>
<polygon fill="#63b8ff" stroke="#63b8ff" points="482.3,-133.48 484.2,-123.06 476.22,-130.02 482.3,-133.48"/>
</a>
</g>
</g>
<!-- Node7 -->
<g id="Node000007" class="node">
<title>Node7</title>
<g id="a_Node000007"><a xlink:title=" ">
<polygon fill="#e0e0e0" stroke="#999999" points="618.5,-123 536.5,-123 536.5,-106 618.5,-106 618.5,-123"/>
<text text-anchor="middle" x="577.5" y="-112.6" font-family="Helvetica,sans-Serif" font-size="8.00">memory_resource</text>
</a>
</g>
</g>
<!-- Node5&#45;&gt;Node7 -->
<g id="edge7_Node000005_Node000007" class="edge">
<title>Node5&#45;&gt;Node7</title>
<g id="a_edge7_Node000005_Node000007"><a xlink:title=" ">
<path fill="none" stroke="#63b8ff" d="M476.91,-158.97C496.35,-150.58 528.03,-136.88 550.64,-127.11"/>
<polygon fill="#63b8ff" stroke="#63b8ff" points="552.23,-130.24 560.02,-123.06 549.45,-123.81 552.23,-130.24"/>
</a>
</g>
</g>
<!-- Node5&#45;&gt;Node8 -->
<g id="edge10_Node000005_Node000008" class="edge">
<title>Node5&#45;&gt;Node8</title>
<g id="a_edge10_Node000005_Node000008"><a xlink:title=" ">
<path fill="none" stroke="#63b8ff" d="M431.32,-158.97C398.31,-150.16 343.47,-135.52 306.67,-125.69"/>
<polygon fill="#63b8ff" stroke="#63b8ff" points="307.36,-122.25 296.8,-123.06 305.56,-129.02 307.36,-122.25"/>
</a>
</g>
</g>
<!-- Node8&#45;&gt;Node2 -->
<g id="edge13_Node000008_Node000002" class="edge">
<title>Node8&#45;&gt;Node2</title>
<g id="a_edge13_Node000008_Node000002"><a xlink:title=" ">
<path fill="none" stroke="#63b8ff" d="M230.68,-110.36C181.54,-104.75 105.08,-89.93 132.5,-53 158.28,-18.28 210.95,-10.28 244.95,-8.95"/>
<polygon fill="#63b8ff" stroke="#63b8ff" points="245.34,-12.45 255.27,-8.73 245.2,-5.45 245.34,-12.45"/>
</a>
</g>
</g>
<!-- Node8&#45;&gt;Node3 -->
<g id="edge16_Node000008_Node000003" class="edge">
<title>Node8&#45;&gt;Node3</title>
<g id="a_edge16_Node000008_Node000003"><a xlink:title=" ">
<path fill="none" stroke="#63b8ff" d="M285.62,-105.97C304.72,-97.58 335.87,-83.88 358.1,-74.11"/>
<polygon fill="#63b8ff" stroke="#63b8ff" points="359.57,-77.28 367.31,-70.06 356.75,-70.88 359.57,-77.28"/>
</a>
</g>
</g>
<!-- Node9 -->
<g id="Node000009" class="node">
<title>Node9</title>
<g id="a_Node000009"><a xlink:title=" ">
<polygon fill="#e0e0e0" stroke="#999999" points="177,-70 142,-70 142,-53 177,-53 177,-70"/>
<text text-anchor="middle" x="159.5" y="-59.6" font-family="Helvetica,sans-Serif" font-size="8.00">array</text>
</a>
</g>
</g>
<!-- Node8&#45;&gt;Node9 -->
<g id="edge11_Node000008_Node000009" class="edge">
<title>Node8&#45;&gt;Node9</title>
<g id="a_edge11_Node000008_Node000009"><a xlink:title=" ">
<path fill="none" stroke="#63b8ff" d="M252.42,-105.97C234.63,-97.65 205.72,-84.13 184.87,-74.37"/>
<polygon fill="#63b8ff" stroke="#63b8ff" points="186.19,-71.12 175.65,-70.06 183.22,-77.46 186.19,-71.12"/>
</a>
</g>
</g>
<!-- Node10 -->
<g id="Node000010" class="node">
<title>Node10</title>
<g id="a_Node000010"><a xlink:title=" ">
<polygon fill="#e0e0e0" stroke="#999999" points="233.5,-70 195.5,-70 195.5,-53 233.5,-53 233.5,-70"/>
<text text-anchor="middle" x="214.5" y="-59.6" font-family="Helvetica,sans-Serif" font-size="8.00">cmath</text>
</a>
</g>
</g>
<!-- Node8&#45;&gt;Node10 -->
<g id="edge12_Node000008_Node000010" class="edge">
<title>Node8&#45;&gt;Node10</title>
<g id="a_edge12_Node000008_Node000010"><a xlink:title=" ">
<path fill="none" stroke="#63b8ff" d="M260.53,-105.97C252.48,-98.37 239.82,-86.41 229.82,-76.97"/>
<polygon fill="#63b8ff" stroke="#63b8ff" points="232.17,-74.38 222.5,-70.06 227.37,-79.47 232.17,-74.38"/>
</a>
</g>
</g>
<!-- Node11 -->
<g id="Node000011" class="node">
<title>Node11</title>
<g id="a_Node000011"><a xlink:title=" ">
<polygon fill="#e0e0e0" stroke="#999999" points="285.5,-70 251.5,-70 251.5,-53 285.5,-53 285.5,-70"/>
<text text-anchor="middle" x="268.5" y="-59.6" font-family="Helvetica,sans-Serif" font-size="8.00">limits</text>
</a>
</g>
</g>
<!-- Node8&#45;&gt;Node11 -->
<g id="edge14_Node000008_Node000011" class="edge">
<title>Node8&#45;&gt;Node11</title>
<g id="a_edge14_Node000008_Node000011"><a xlink:title=" ">
<path fill="none" stroke="#63b8ff" d="M268.5,-105.97C268.5,-99.19 268.5,-88.97 268.5,-80.13"/>
<polygon fill="#63b8ff" stroke="#63b8ff" points="272,-80.06 268.5,-70.06 265,-80.06 272,-80.06"/>
</a>
</g>
</g>
<!-- Node12 -->
<g id="Node000012" class="node">
<title>Node12</title>
<g id="a_Node000012"><a xlink:title=" ">
<polygon fill="#e0e0e0" stroke="#999999" points="339.5,-70 303.5,-70 303.5,-53 339.5,-53 339.5,-70"/>
<text text-anchor="middle" x="321.5" y="-59.6" font-family="Helvetica,sans-Serif" font-size="8.00">string</text>
</a>
</g>
</g>
<!-- Node8&#45;&gt;Node12 -->
<g id="edge15_Node000008_Node000012" class="edge">
<title>Node8&#45;&gt;Node12</title>
<g id="a_edge15_Node000008_Node000012"><a xlink:title=" ">
<path fill="none" stroke="#63b8ff" d="M276.32,-105.97C284.15,-98.44 296.4,-86.65 306.17,-77.25"/>
<polygon fill="#63b8ff" stroke="#63b8ff" points="308.87,-79.51 313.65,-70.06 304.01,-74.47 308.87,-79.51"/>
</a>
</g>
</g>
<!-- Node8&#45;&gt;Node13 -->
<g id="edge17_Node000008_Node000013" class="edge">
<title>Node8&#45;&gt;Node13</title>
<g id="a_edge17_Node000008_Node000013"><a xlink:title=" ">
<path fill="none" stroke="#63b8ff" d="M235.15,-105.97C195.6,-97.05 129.54,-82.14 86,-72.32"/>
<polygon fill="#63b8ff" stroke="#63b8ff" points="86.51,-68.84 75.98,-70.06 84.97,-75.67 86.51,-68.84"/>
</a>
</g>
</g>
<!-- Node13&#45;&gt;Node2 -->
<g id="edge18_Node000013_Node000002" class="edge">
<title>Node13&#45;&gt;Node2</title>
<g id="a_edge18_Node000013_Node000002"><a xlink:title=" ">
<path fill="none" stroke="#63b8ff" d="M77.03,-52.97C122.48,-43.07 201.72,-25.8 245.39,-16.28"/>
<polygon fill="#63b8ff" stroke="#63b8ff" points="246.41,-19.64 255.43,-14.09 244.92,-12.8 246.41,-19.64"/>
</a>
</g>
</g>
</g>
</svg>
