<?xml version="1.0" encoding="UTF-8" standalone="no"?>
<!DOCTYPE svg PUBLIC "-//W3C//DTD SVG 1.1//EN"
 "http://www.w3.org/Graphics/SVG/1.1/DTD/svg11.dtd">
<!-- Generated by graphviz version 2.43.0 (0)
 -->
<!-- Title: solver.hpp Pages: 1 -->
<svg width="553pt" height="184pt"
 viewBox="0.00 0.00 552.50 184.00" xmlns="http://www.w3.org/2000/svg" xmlns:xlink="http://www.w3.org/1999/xlink">
<g id="graph0" class="graph" transform="scale(1 1) rotate(0) translate(4 180)">
<title>solver.hpp</title>
<!-- Node1 -->
<g id="Node000001" class="node">
<title>Node1</title>
<g id="a_Node000001"><a xlink:title=" ">
<polygon fill="#999999" stroke="#666666" points="240,-176 181,-176 181,-159 240,-159 240,-176"/>
<text text-anchor="middle" x="210.5" y="-165.6" font-family="Helvetica,sans-Serif" font-size="8.00">solver.hpp</text>
</a>
</g>
</g>
<!-- Node2 -->
<g id="Node000002" class="node">
<title>Node2</title>
<g id="a_Node000002"><a xlink:title=" ">
<polygon fill="#e0e0e0" stroke="#999999" points="263,-17 216,-17 216,0 263,0 263,-17"/>
<text text-anchor="middle" x="239.5" y="-6.6" font-family="Helvetica,sans-Serif" font-size="8.00">cstddef</text>
</a>
</g>
</g>
<!-- Node1&#45;&gt;Node2 -->
<g id="edge1_Node000001_Node000002" class="edge">
<title>Node1&#45;&gt;Node2</title>
<g id="a_edge1_Node000001_Node000002"><a xlink:title=" ">
<path fill="none" stroke="#63b8ff" d="M180.69,-161.77C113.33,-149.87 -40.93,-115.12 10.5,-53 34.92,-23.51 148.35,-13.85 205.87,-10.82"/>
<polygon fill="#63b8ff" stroke="#63b8ff" points="206.11,-14.31 215.93,-10.32 205.77,-7.32 206.11,-14.31"/>
</a>
</g>
</g>
<!-- Node3 -->
<g id="Node000003" class="node">
<title>Node3</title>
<g id="a_Node000003"><a xlink:title=" ">
<polygon fill="#e0e0e0" stroke="#999999" points="57.5,-70 19.5,-70 19.5,-53 57.5,-53 57.5,-70"/>
<text text-anchor="middle" x="38.5" y="-59.6" font-family="Helvetica,sans-Serif" font-size="8.00">limits</text>
</a>
</g>
</g>
<!-- Node1&#45;&gt;Node3 -->
<g id="edge2_Node000001_Node000003" class="edge">
<title>Node1&#45;&gt;Node3</title>
<g id="a_edge2_Node000001_Node000003"><a xlink:title=" ">
<path fill="none" stroke="#63b8ff" d="M198.01,-158.96C183.65,-150.29 159.37,-135.62 138.5,-123 111.37,-106.6 80.1,-87.68 59.86,-75.43"/>
<polygon fill="#63b8ff" stroke="#63b8ff" points="61.5,-72.33 51.13,-70.14 57.87,-78.31 61.5,-72.33"/>
</a>
</g>
</g>
<!-- Node4 -->
<g id="Node000004" class="node">
<title>Node4</title>
<g id="a_Node000004"><a xlink:title=" ">
<polygon fill="#e0e0e0" stroke="#999999" points="135,-70 76,-70 76,-53 135,-53 135,-70"/>
<text text-anchor="middle" x="105.5" y="-59.6" font-family="Helvetica,sans-Serif" font-size="8.00">type_traits</text>
</a>
</g>
</g>
<!-- Node1&#45;&gt;Node4 -->
<g id="edge3_Node000001_Node000004" class="edge">
<title>Node1&#45;&gt;Node4</title>
<g id="a_edge3_Node000001_Node000004"><a xlink:title=" ">
<path fill="none" stroke="#63b8ff" d="M200.53,-158.91C189.76,-150.55 172.31,-136.49 158.5,-123 143.88,-108.71 128.64,-90.97 118.28,-78.4"/>
<polygon fill="#63b8ff" stroke="#63b8ff" points="120.7,-75.83 111.67,-70.29 115.27,-80.25 120.7,-75.83"/>
</a>
</g>
</g>
<!-- Node5 -->
<g id="Node000005" class="node">
<title>Node5</title>
<g id="a_Node000005"><a xlink:title=" ">
<polygon fill="#e0e0e0" stroke="#999999" points="352.5,-123 310.5,-123 310.5,-106 352.5,-106 352.5,-123"/>
<text text-anchor="middle" x="331.5" y="-112.6" font-family="Helvetica,sans-Serif" font-size="8.00">vector</text>
</a>
</g>
</g>
<!-- Node1&#45;&gt;Node5 -->
<g id="edge4_Node000001_Node000005" class="edge">
<title>Node1&#45;&gt;Node5</title>
<g id="a_edge4_Node000001_Node000005"><a xlink:title=" ">
<path fill="none" stroke="#63b8ff" d="M228.36,-158.97C248.37,-150.54 281.06,-136.76 304.27,-126.98"/>
<polygon fill="#63b8ff" stroke="#63b8ff" points="305.72,-130.17 313.58,-123.06 303,-123.71 305.72,-130.17"/>
</a>
</g>
</g>
<!-- Node6 -->
<g id="Node000006" class="node">
<title>Node6</title>
<g id="a_Node000006"><a xlink:href="../../df/d93/utils_8hpp.html" target="_top" xlink:title=" ">
<polygon fill="white" stroke="#666666" points="254,-123 167,-123 167,-106 254,-106 254,-123"/>
<text text-anchor="middle" x="210.5" y="-112.6" font-family="Helvetica,sans-Serif" font-size="8.00">../../utils/utils.hpp</text>
</a>
</g>
</g>
<!-- Node1&#45;&gt;Node6 -->
<g id="edge5_Node000001_Node000006" class="edge">
<title>Node1&#45;&gt;Node6</title>
<g id="a_edge5_Node000001_Node000006"><a xlink:title=" ">
<path fill="none" stroke="#63b8ff" d="M210.5,-158.97C210.5,-152.19 210.5,-141.97 210.5,-133.13"/>
<polygon fill="#63b8ff" stroke="#63b8ff" points="214,-133.06 210.5,-123.06 207,-133.06 214,-133.06"/>
</a>
</g>
</g>
<!-- Node11 -->
<g id="Node000011" class="node">
<title>Node11</title>
<g id="a_Node000011"><a xlink:href="../../d7/d65/intrinsics_8hpp.html" target="_top" xlink:title=" ">
<polygon fill="white" stroke="#666666" points="541,-70 442,-70 442,-53 541,-53 541,-70"/>
<text text-anchor="middle" x="491.5" y="-59.6" font-family="Helvetica,sans-Serif" font-size="8.00">../utils/intrinsics.hpp</text>
</a>
</g>
</g>
<!-- Node1&#45;&gt;Node11 -->
<g id="edge18_Node000001_Node000011" class="edge">
<title>Node1&#45;&gt;Node11</title>
<g id="a_edge18_Node000001_Node000011"><a xlink:title=" ">
<path fill="none" stroke="#63b8ff" d="M219.42,-158.94C235.02,-146.11 268.73,-120.08 301.5,-106 343.31,-88.03 393.63,-76.94 431.98,-70.45"/>
<polygon fill="#63b8ff" stroke="#63b8ff" points="432.65,-73.89 441.95,-68.82 431.52,-66.98 432.65,-73.89"/>
</a>
</g>
</g>
<!-- Node14 -->
<g id="Node000014" class="node">
<title>Node14</title>
<g id="a_Node000014"><a xlink:title=" ">
<polygon fill="#e0e0e0" stroke="#999999" points="424,-123 371,-123 371,-106 424,-106 424,-123"/>
<text text-anchor="middle" x="397.5" y="-112.6" font-family="Helvetica,sans-Serif" font-size="8.00">iostream</text>
</a>
</g>
</g>
<!-- Node1&#45;&gt;Node14 -->
<g id="edge17_Node000001_Node000014" class="edge">
<title>Node1&#45;&gt;Node14</title>
<g id="a_edge17_Node000001_Node000014"><a xlink:title=" ">
<path fill="none" stroke="#63b8ff" d="M238.09,-158.97C270.55,-150.12 324.57,-135.39 360.6,-125.56"/>
<polygon fill="#63b8ff" stroke="#63b8ff" points="361.98,-128.82 370.71,-122.81 360.14,-122.06 361.98,-128.82"/>
</a>
</g>
</g>
<!-- Node6&#45;&gt;Node2 -->
<g id="edge8_Node000006_Node000002" class="edge">
<title>Node6&#45;&gt;Node2</title>
<g id="a_edge8_Node000006_Node000002"><a xlink:title=" ">
<path fill="none" stroke="#63b8ff" d="M212.68,-105.68C217.32,-89.04 228.28,-49.75 234.66,-26.87"/>
<polygon fill="#63b8ff" stroke="#63b8ff" points="238.06,-27.7 237.38,-17.12 231.32,-25.82 238.06,-27.7"/>
</a>
</g>
</g>
<!-- Node6&#45;&gt;Node3 -->
<g id="edge10_Node000006_Node000003" class="edge">
<title>Node6&#45;&gt;Node3</title>
<g id="a_edge10_Node000006_Node000003"><a xlink:title=" ">
<path fill="none" stroke="#63b8ff" d="M185.12,-105.97C153.76,-96.67 100.5,-80.88 67.53,-71.11"/>
<polygon fill="#63b8ff" stroke="#63b8ff" points="68.18,-67.65 57.6,-68.16 66.19,-74.36 68.18,-67.65"/>
</a>
</g>
</g>
<!-- Node6&#45;&gt;Node4 -->
<g id="edge12_Node000006_Node000004" class="edge">
<title>Node6&#45;&gt;Node4</title>
<g id="a_edge12_Node000006_Node000004"><a xlink:title=" ">
<path fill="none" stroke="#63b8ff" d="M195.01,-105.97C177.95,-97.69 150.28,-84.25 130.22,-74.5"/>
<polygon fill="#63b8ff" stroke="#63b8ff" points="131.58,-71.28 121.06,-70.06 128.52,-77.57 131.58,-71.28"/>
</a>
</g>
</g>
<!-- Node7 -->
<g id="Node000007" class="node">
<title>Node7</title>
<g id="a_Node000007"><a xlink:title=" ">
<polygon fill="#e0e0e0" stroke="#999999" points="363.5,-70 325.5,-70 325.5,-53 363.5,-53 363.5,-70"/>
<text text-anchor="middle" x="344.5" y="-59.6" font-family="Helvetica,sans-Serif" font-size="8.00">array</text>
</a>
</g>
</g>
<!-- Node6&#45;&gt;Node7 -->
<g id="edge6_Node000006_Node000007" class="edge">
<title>Node6&#45;&gt;Node7</title>
<g id="a_edge6_Node000006_Node000007"><a xlink:title=" ">
<path fill="none" stroke="#63b8ff" d="M230.27,-105.97C252.77,-97.41 289.71,-83.35 315.48,-73.55"/>
<polygon fill="#63b8ff" stroke="#63b8ff" points="316.98,-76.72 325.08,-69.89 314.49,-70.18 316.98,-76.72"/>
</a>
</g>
</g>
<!-- Node8 -->
<g id="Node000008" class="node">
<title>Node8</title>
<g id="a_Node000008"><a xlink:title=" ">
<polygon fill="#e0e0e0" stroke="#999999" points="423.5,-70 381.5,-70 381.5,-53 423.5,-53 423.5,-70"/>
<text text-anchor="middle" x="402.5" y="-59.6" font-family="Helvetica,sans-Serif" font-size="8.00">cmath</text>
</a>
</g>
</g>
<!-- Node6&#45;&gt;Node8 -->
<g id="edge7_Node000006_Node000008" class="edge">
<title>Node6&#45;&gt;Node8</title>
<g id="a_edge7_Node000006_Node000008"><a xlink:title=" ">
<path fill="none" stroke="#63b8ff" d="M238.83,-105.97C274.25,-96.57 334.65,-80.52 371.34,-70.78"/>
<polygon fill="#63b8ff" stroke="#63b8ff" points="372.7,-74.04 381.47,-68.09 370.9,-67.27 372.7,-74.04"/>
</a>
</g>
</g>
<!-- Node9 -->
<g id="Node000009" class="node">
<title>Node9</title>
<g id="a_Node000009"><a xlink:title=" ">
<polygon fill="#e0e0e0" stroke="#999999" points="211.5,-70 153.5,-70 153.5,-53 211.5,-53 211.5,-70"/>
<text text-anchor="middle" x="182.5" y="-59.6" font-family="Helvetica,sans-Serif" font-size="8.00">functional</text>
</a>
</g>
</g>
<!-- Node6&#45;&gt;Node9 -->
<g id="edge9_Node000006_Node000009" class="edge">
<title>Node6&#45;&gt;Node9</title>
<g id="a_edge9_Node000006_Node000009"><a xlink:title=" ">
<path fill="none" stroke="#63b8ff" d="M206.37,-105.97C202.48,-98.89 196.53,-88.05 191.54,-78.96"/>
<polygon fill="#63b8ff" stroke="#63b8ff" points="194.53,-77.14 186.65,-70.06 188.4,-80.51 194.53,-77.14"/>
</a>
</g>
</g>
<!-- Node10 -->
<g id="Node000010" class="node">
<title>Node10</title>
<g id="a_Node000010"><a xlink:title=" ">
<polygon fill="#e0e0e0" stroke="#999999" points="307.5,-70 267.5,-70 267.5,-53 307.5,-53 307.5,-70"/>
<text text-anchor="middle" x="287.5" y="-59.6" font-family="Helvetica,sans-Serif" font-size="8.00">string</text>
</a>
</g>
</g>
<!-- Node6&#45;&gt;Node10 -->
<g id="edge11_Node000006_Node000010" class="edge">
<title>Node6&#45;&gt;Node10</title>
<g id="a_edge11_Node000006_Node000010"><a xlink:title=" ">
<path fill="none" stroke="#63b8ff" d="M221.86,-105.97C233.92,-97.99 253.2,-85.22 267.75,-75.58"/>
<polygon fill="#63b8ff" stroke="#63b8ff" points="269.69,-78.5 276.09,-70.06 265.82,-72.66 269.69,-78.5"/>
</a>
</g>
</g>
<!-- Node6&#45;&gt;Node11 -->
<g id="edge13_Node000006_Node000011" class="edge">
<title>Node6&#45;&gt;Node11</title>
<g id="a_edge13_Node000006_Node000011"><a xlink:title=" ">
<path fill="none" stroke="#63b8ff" d="M251.96,-105.97C301.88,-96.92 385.71,-81.7 439.8,-71.88"/>
<polygon fill="#63b8ff" stroke="#63b8ff" points="440.66,-75.29 449.87,-70.06 439.41,-68.4 440.66,-75.29"/>
</a>
</g>
</g>
<!-- Node11&#45;&gt;Node2 -->
<g id="edge15_Node000011_Node000002" class="edge">
<title>Node11&#45;&gt;Node2</title>
<g id="a_edge15_Node000011_Node000002"><a xlink:title=" ">
<path fill="none" stroke="#63b8ff" d="M454.32,-52.97C405.44,-43.08 320.29,-25.85 273.21,-16.32"/>
<polygon fill="#63b8ff" stroke="#63b8ff" points="273.71,-12.85 263.21,-14.3 272.32,-19.71 273.71,-12.85"/>
</a>
</g>
</g>
<!-- Node12 -->
<g id="Node000012" class="node">
<title>Node12</title>
<g id="a_Node000012"><a xlink:title=" ">
<polygon fill="#e0e0e0" stroke="#999999" points="544.5,-17 500.5,-17 500.5,0 544.5,0 544.5,-17"/>
<text text-anchor="middle" x="522.5" y="-6.6" font-family="Helvetica,sans-Serif" font-size="8.00">atomic</text>
</a>
</g>
</g>
<!-- Node11&#45;&gt;Node12 -->
<g id="edge14_Node000011_Node000012" class="edge">
<title>Node11&#45;&gt;Node12</title>
<g id="a_edge14_Node000011_Node000012"><a xlink:title=" ">
<path fill="none" stroke="#63b8ff" d="M496.08,-52.97C500.43,-45.82 507.11,-34.82 512.67,-25.67"/>
<polygon fill="#63b8ff" stroke="#63b8ff" points="515.71,-27.42 517.91,-17.06 509.72,-23.78 515.71,-27.42"/>
</a>
</g>
</g>
<!-- Node13 -->
<g id="Node000013" class="node">
<title>Node13</title>
<g id="a_Node000013"><a xlink:title=" ">
<polygon fill="#e0e0e0" stroke="#999999" points="482.5,-17 438.5,-17 438.5,0 482.5,0 482.5,-17"/>
<text text-anchor="middle" x="460.5" y="-6.6" font-family="Helvetica,sans-Serif" font-size="8.00">cstdlib</text>
</a>
</g>
</g>
<!-- Node11&#45;&gt;Node13 -->
<g id="edge16_Node000011_Node000013" class="edge">
<title>Node11&#45;&gt;Node13</title>
<g id="a_edge16_Node000011_Node000013"><a xlink:title=" ">
<path fill="none" stroke="#63b8ff" d="M486.93,-52.97C482.58,-45.82 475.89,-34.82 470.33,-25.67"/>
<polygon fill="#63b8ff" stroke="#63b8ff" points="473.28,-23.78 465.1,-17.06 467.3,-27.42 473.28,-23.78"/>
</a>
</g>
</g>
</g>
</svg>
