<?xml version="1.0" encoding="UTF-8" standalone="no"?>
<!DOCTYPE svg PUBLIC "-//W3C//DTD SVG 1.1//EN"
 "http://www.w3.org/Graphics/SVG/1.1/DTD/svg11.dtd">
<!-- Generated by graphviz version 2.43.0 (0)
 -->
<!-- Title: Memory&#45;Bounded Pages: 1 -->
<svg width="430pt" height="26pt"
 viewBox="0.00 0.00 430.00 25.50" xmlns="http://www.w3.org/2000/svg" xmlns:xlink="http://www.w3.org/1999/xlink">
<g id="graph0" class="graph" transform="scale(1 1) rotate(0) translate(4 21.5)">
<title>Memory&#45;Bounded</title>
<!-- Node1 -->
<g id="Node000001" class="node">
<title>Node1</title>
<g id="a_Node000001"><a xlink:title="Solvers which enforce an arbitrary limit on memory usage.">
<polygon fill="#999999" stroke="#666666" points="195,-17 107,-17 107,0 195,0 195,-17"/>
<text text-anchor="middle" x="151" y="-6.6" font-family="Helvetica,sans-Serif" font-size="8.00">Memory&#45;Bounded</text>
</a>
</g>
</g>
<!-- Node3 -->
<g id="Node000003" class="node">
<title>Node3</title>
<g id="a_Node000003"><a xlink:href="../../d1/d47/group__SingleTargetGraveyardOptimised.html" target="_top" xlink:title="Graveyard solvers, which dynamically prune the search tree.">
<polygon fill="white" stroke="#666666" points="422,-17 319,-17 319,0 422,0 422,-17"/>
<text text-anchor="middle" x="370.5" y="-6.6" font-family="Helvetica,sans-Serif" font-size="8.00">Graveyard&#45;Optimised</text>
</a>
</g>
</g>
<!-- Node1&#45;&gt;Node3 -->
<g id="edge2" class="edge">
<title>Node1&#45;&gt;Node3</title>
<path fill="none" stroke="orange" stroke-dasharray="5,2" d="M195.23,-8.5C230.79,-8.5 281.24,-8.5 318.71,-8.5"/>
<text text-anchor="middle" x="257" y="-11.1" font-family="Helvetica,sans-Serif" font-size="8.00">chdr::solvers::mgstar</text>
</g>
<!-- Node2 -->
<g id="Node000002" class="node">
<title>Node2</title>
<g id="a_Node000002"><a xlink:href="../../d5/d91/group__Single-Target.html" target="_top" xlink:title="Solvers which route to a single destination.">
<polygon fill="white" stroke="#666666" points="70,-17 0,-17 0,0 70,0 70,-17"/>
<text text-anchor="middle" x="35" y="-6.6" font-family="Helvetica,sans-Serif" font-size="8.00">Single&#45;Target</text>
</a>
</g>
</g>
<!-- Node2&#45;&gt;Node1 -->
<g id="edge1" class="edge">
<title>Node2&#45;&gt;Node1</title>
<path fill="none" stroke="black" d="M80.24,-8.5C89.01,-8.5 98.2,-8.5 106.92,-8.5"/>
<polygon fill="black" stroke="black" points="80.2,-5 70.2,-8.5 80.2,-12 80.2,-5"/>
</g>
</g>
</svg>
