<?xml version="1.0" encoding="UTF-8" standalone="no"?>
<!DOCTYPE svg PUBLIC "-//W3C//DTD SVG 1.1//EN"
 "http://www.w3.org/Graphics/SVG/1.1/DTD/svg11.dtd">
<!-- Generated by graphviz version 2.43.0 (0)
 -->
<!-- Title: solver&lt; solver_t, params_t &gt; Pages: 1 -->
<svg width="206pt" height="103pt"
 viewBox="0.00 0.00 206.00 103.00" xmlns="http://www.w3.org/2000/svg" xmlns:xlink="http://www.w3.org/1999/xlink">
<g id="graph0" class="graph" transform="scale(1 1) rotate(0) translate(4 99)">
<title>solver&lt; solver_t, params_t &gt;</title>
<!-- Node1 -->
<g id="Node000001" class="node">
<title>Node1</title>
<g id="a_Node000001"><a xlink:title="A static class serving as the core entry point for the CHDR library.">
<polygon fill="#999999" stroke="transparent" points="198,-95 0,-95 0,0 198,0 198,-95"/>
<text text-anchor="start" x="40.5" y="-84.1" font-family="Helvetica,sans-Serif" font-size="8.00">solver&lt; solver_t, params_t &gt;</text>
<text text-anchor="start" x="97.5" y="-71.1" font-family="Helvetica,sans-Serif" font-size="8.00"> </text>
<text text-anchor="start" x="4" y="-58.1" font-family="Helvetica,sans-Serif" font-size="8.00">+</text>
<text text-anchor="start" x="15" y="-58.1" font-family="Helvetica,sans-Serif" font-size="8.00">auto operator()(Args &amp;&amp;... _args)</text>
<text text-anchor="start" x="4" y="-45.1" font-family="Helvetica,sans-Serif" font-size="8.00">+</text>
<text text-anchor="start" x="15" y="-45.1" font-family="Helvetica,sans-Serif" font-size="8.00">auto operator()(const params_t &amp;_params)</text>
<text text-anchor="start" x="4" y="-32.1" font-family="Helvetica,sans-Serif" font-size="8.00">+</text>
<text text-anchor="start" x="15" y="-32.1" font-family="Helvetica,sans-Serif" font-size="8.00">static auto solve(Args &amp;&amp;... _args)</text>
<text text-anchor="start" x="4" y="-19.1" font-family="Helvetica,sans-Serif" font-size="8.00">+</text>
<text text-anchor="start" x="15" y="-19.1" font-family="Helvetica,sans-Serif" font-size="8.00">static auto solve(const params_t &amp;_params)</text>
<text text-anchor="start" x="5.5" y="-6.1" font-family="Helvetica,sans-Serif" font-size="8.00">*</text>
<text text-anchor="start" x="15" y="-6.1" font-family="Helvetica,sans-Serif" font-size="8.00">solver() noexcept=default</text>
<polygon fill="#666666" stroke="#666666" points="0,-79.5 0,-79.5 198,-79.5 198,-79.5 0,-79.5"/>
<polygon fill="#666666" stroke="#666666" points="0,-66.5 0,-66.5 198,-66.5 198,-66.5 0,-66.5"/>
<polygon fill="none" stroke="#666666" points="0,0 0,-95 198,-95 198,0 0,0"/>
</a>
</g>
</g>
</g>
</svg>
