<?xml version="1.0" encoding="UTF-8" standalone="no"?>
<!DOCTYPE svg PUBLIC "-//W3C//DTD SVG 1.1//EN"
 "http://www.w3.org/Graphics/SVG/1.1/DTD/svg11.dtd">
<!-- Generated by graphviz version 2.43.0 (0)
 -->
<!-- Title: solver&lt; Derived, params_t &gt; Pages: 1 -->
<svg width="200pt" height="90pt"
 viewBox="0.00 0.00 200.00 90.00" xmlns="http://www.w3.org/2000/svg" xmlns:xlink="http://www.w3.org/1999/xlink">
<g id="graph0" class="graph" transform="scale(1 1) rotate(0) translate(4 86)">
<title>solver&lt; Derived, params_t &gt;</title>
<!-- Node1 -->
<g id="Node000001" class="node">
<title>Node1</title>
<g id="a_Node000001"><a xlink:title=" ">
<polygon fill="#999999" stroke="transparent" points="192,-82 0,-82 0,0 192,0 192,-82"/>
<text text-anchor="start" x="45.5" y="-71.6" font-family="Helvetica,sans-Serif" font-size="8.00">solver&lt; Derived, params_t &gt;</text>
<text text-anchor="start" x="94.5" y="-58.6" font-family="Helvetica,sans-Serif" font-size="8.00"> </text>
<text text-anchor="start" x="4" y="-45.6" font-family="Helvetica,sans-Serif" font-size="8.00">+</text>
<text text-anchor="start" x="13" y="-45.6" font-family="Helvetica,sans-Serif" font-size="8.00">static auto operator()(Args &amp;&amp;... _args)</text>
<text text-anchor="start" x="4" y="-32.6" font-family="Helvetica,sans-Serif" font-size="8.00">+</text>
<text text-anchor="start" x="13" y="-32.6" font-family="Helvetica,sans-Serif" font-size="8.00">static auto operator()(const params_t &amp;_params)</text>
<text text-anchor="start" x="4" y="-19.6" font-family="Helvetica,sans-Serif" font-size="8.00">+</text>
<text text-anchor="start" x="13" y="-19.6" font-family="Helvetica,sans-Serif" font-size="8.00">static auto solve(Args &amp;&amp;... _args)</text>
<text text-anchor="start" x="4" y="-6.6" font-family="Helvetica,sans-Serif" font-size="8.00">+</text>
<text text-anchor="start" x="13" y="-6.6" font-family="Helvetica,sans-Serif" font-size="8.00">static auto solve(const params_t &amp;_params)</text>
<polygon fill="#666666" stroke="#666666" points="0,-67 0,-67 192,-67 192,-67 0,-67"/>
<polygon fill="#666666" stroke="#666666" points="0,-54 0,-54 192,-54 192,-54 0,-54"/>
<polygon fill="none" stroke="#666666" points="0,0 0,-82 192,-82 192,0 0,0"/>
</a>
</g>
</g>
</g>
</svg>
