<?xml version="1.0" encoding="UTF-8" standalone="no"?>
<!DOCTYPE svg PUBLIC "-//W3C//DTD SVG 1.1//EN"
 "http://www.w3.org/Graphics/SVG/1.1/DTD/svg11.dtd">
<!-- Generated by graphviz version 2.43.0 (0)
 -->
<!-- Title: erase Pages: 1 -->
<svg width="307pt" height="134pt"
 viewBox="0.00 0.00 307.00 134.00" xmlns="http://www.w3.org/2000/svg" xmlns:xlink="http://www.w3.org/1999/xlink">
<g id="graph0" class="graph" transform="scale(1 1) rotate(0) translate(4 130)">
<title>erase</title>
<!-- Node1 -->
<g id="Node000001" class="node">
<title>Node1</title>
<g id="a_Node000001"><a xlink:title="Removes a specified item from the heap, restoring the heap property after removal.">
<polygon fill="#999999" stroke="#666666" points="37,-70 0,-70 0,-53 37,-53 37,-70"/>
<text text-anchor="middle" x="18.5" y="-59.6" font-family="Helvetica,sans-Serif" font-size="8.00">erase</text>
</a>
</g>
</g>
<!-- Node2 -->
<g id="Node000002" class="node">
<title>Node2</title>
<g id="a_Node000002"><a xlink:href="../../d3/d61/classchdr_1_1heap_a3f6fc5de06a318920d84f3c3742db07f.html#a3f6fc5de06a318920d84f3c3742db07f" target="_top" xlink:title="Checks if the heap is empty.">
<polygon fill="white" stroke="#666666" points="119,-126 81,-126 81,-109 119,-109 119,-126"/>
<text text-anchor="middle" x="100" y="-115.6" font-family="Helvetica,sans-Serif" font-size="8.00">empty</text>
</a>
</g>
</g>
<!-- Node1&#45;&gt;Node2 -->
<g id="edge1_Node000001_Node000002" class="edge">
<title>Node1&#45;&gt;Node2</title>
<g id="a_edge1_Node000001_Node000002"><a xlink:title=" ">
<path fill="none" stroke="#63b8ff" d="M31.57,-70.01C43.95,-78.72 63.43,-92.44 78.27,-102.9"/>
<polygon fill="#63b8ff" stroke="#63b8ff" points="76.62,-106.02 86.81,-108.91 80.65,-100.29 76.62,-106.02"/>
</a>
</g>
</g>
<!-- Node3 -->
<g id="Node000003" class="node">
<title>Node3</title>
<g id="a_Node000003"><a xlink:href="../../d3/d61/classchdr_1_1heap_a3caedb145a667c26028740417dcf32c3.html#a3caedb145a667c26028740417dcf32c3" target="_top" xlink:title="Retrieves the number of elements currently stored in the heap.">
<polygon fill="white" stroke="#666666" points="193,-70 163,-70 163,-53 193,-53 193,-70"/>
<text text-anchor="middle" x="178" y="-59.6" font-family="Helvetica,sans-Serif" font-size="8.00">size</text>
</a>
</g>
</g>
<!-- Node1&#45;&gt;Node3 -->
<g id="edge4_Node000001_Node000003" class="edge">
<title>Node1&#45;&gt;Node3</title>
<g id="a_edge4_Node000001_Node000003"><a xlink:title=" ">
<path fill="none" stroke="#63b8ff" d="M37.26,-61.5C65.47,-61.5 120.59,-61.5 152.52,-61.5"/>
<polygon fill="#63b8ff" stroke="#63b8ff" points="152.77,-65 162.77,-61.5 152.77,-58 152.77,-65"/>
</a>
</g>
</g>
<!-- Node5 -->
<g id="Node000005" class="node">
<title>Node5</title>
<g id="a_Node000005"><a xlink:href="../../d3/d61/classchdr_1_1heap_a9bb7e9906ed7296a33c7c08c4d0ef800.html#a9bb7e9906ed7296a33c7c08c4d0ef800" target="_top" xlink:title="Reorganises the heap by moving a specified item downward to maintain the heap property.">
<polygon fill="white" stroke="#666666" points="127,-52 73,-52 73,-35 127,-35 127,-52"/>
<text text-anchor="middle" x="100" y="-41.6" font-family="Helvetica,sans-Serif" font-size="8.00">sort_down</text>
</a>
</g>
</g>
<!-- Node1&#45;&gt;Node5 -->
<g id="edge5_Node000001_Node000005" class="edge">
<title>Node1&#45;&gt;Node5</title>
<g id="a_edge5_Node000001_Node000005"><a xlink:title=" ">
<path fill="none" stroke="#63b8ff" d="M37.14,-57.51C44.79,-55.77 54.03,-53.68 63.02,-51.65"/>
<polygon fill="#63b8ff" stroke="#63b8ff" points="63.97,-55.02 72.95,-49.4 62.43,-48.19 63.97,-55.02"/>
</a>
</g>
</g>
<!-- Node6 -->
<g id="Node000006" class="node">
<title>Node6</title>
<g id="a_Node000006"><a xlink:href="../../d3/d61/classchdr_1_1heap_ab3bf20f6c00b1d3c85593ed5a5c4c3a1.html#ab3bf20f6c00b1d3c85593ed5a5c4c3a1" target="_top" xlink:title="Adjusts the position of an item in the heap by moving it upwards towards the root.">
<polygon fill="white" stroke="#666666" points="122,-17 78,-17 78,0 122,0 122,-17"/>
<text text-anchor="middle" x="100" y="-6.6" font-family="Helvetica,sans-Serif" font-size="8.00">sort_up</text>
</a>
</g>
</g>
<!-- Node1&#45;&gt;Node6 -->
<g id="edge7_Node000001_Node000006" class="edge">
<title>Node1&#45;&gt;Node6</title>
<g id="a_edge7_Node000001_Node000006"><a xlink:title=" ">
<path fill="none" stroke="#63b8ff" d="M32.27,-52.98C44.49,-44.84 63.13,-32.41 77.61,-22.76"/>
<polygon fill="#63b8ff" stroke="#63b8ff" points="79.62,-25.63 85.99,-17.17 75.73,-19.81 79.62,-25.63"/>
</a>
</g>
</g>
<!-- Node2&#45;&gt;Node3 -->
<g id="edge2_Node000002_Node000003" class="edge">
<title>Node2&#45;&gt;Node3</title>
<g id="a_edge2_Node000002_Node000003"><a xlink:title=" ">
<path fill="none" stroke="#63b8ff" d="M112.54,-108.99C124.37,-100.28 142.99,-86.56 157.18,-76.1"/>
<polygon fill="#63b8ff" stroke="#63b8ff" points="159.37,-78.83 165.35,-70.09 155.22,-73.2 159.37,-78.83"/>
</a>
</g>
</g>
<!-- Node4 -->
<g id="Node000004" class="node">
<title>Node4</title>
<g id="a_Node000004"><a xlink:href="../../d2/dcb/structchdr_1_1utils_a05e8953d59fd314cf105f52b0c1272dd.html#a05e8953d59fd314cf105f52b0c1272dd" target="_top" xlink:title="Determines the maximum of two comparable values.">
<polygon fill="white" stroke="#666666" points="299,-70 229,-70 229,-53 299,-53 299,-70"/>
<text text-anchor="middle" x="264" y="-59.6" font-family="Helvetica,sans-Serif" font-size="8.00">chdr::utils::max</text>
</a>
</g>
</g>
<!-- Node3&#45;&gt;Node4 -->
<g id="edge3_Node000003_Node000004" class="edge">
<title>Node3&#45;&gt;Node4</title>
<g id="a_edge3_Node000003_Node000004"><a xlink:title=" ">
<path fill="none" stroke="#63b8ff" d="M193.25,-61.5C200.32,-61.5 209.3,-61.5 218.44,-61.5"/>
<polygon fill="#63b8ff" stroke="#63b8ff" points="218.73,-65 228.73,-61.5 218.73,-58 218.73,-65"/>
</a>
</g>
</g>
<!-- Node5&#45;&gt;Node3 -->
<g id="edge6_Node000005_Node000003" class="edge">
<title>Node5&#45;&gt;Node3</title>
<g id="a_edge6_Node000005_Node000003"><a xlink:title=" ">
<path fill="none" stroke="#63b8ff" d="M127.15,-49.69C135.61,-51.7 144.93,-53.9 153.2,-55.86"/>
<polygon fill="#63b8ff" stroke="#63b8ff" points="152.44,-59.28 162.98,-58.18 154.05,-52.47 152.44,-59.28"/>
</a>
</g>
</g>
<!-- Node6&#45;&gt;Node3 -->
<g id="edge8_Node000006_Node000003" class="edge">
<title>Node6&#45;&gt;Node3</title>
<g id="a_edge8_Node000006_Node000003"><a xlink:title=" ">
<path fill="none" stroke="#63b8ff" d="M113.44,-17.09C117.74,-20.07 122.58,-23.43 127,-26.5 136.65,-33.22 147.34,-40.69 156.34,-47"/>
<polygon fill="#63b8ff" stroke="#63b8ff" points="154.49,-49.98 164.68,-52.85 158.5,-44.25 154.49,-49.98"/>
</a>
</g>
</g>
</g>
</svg>
