<?xml version="1.0" encoding="UTF-8" standalone="no"?>
<!DOCTYPE svg PUBLIC "-//W3C//DTD SVG 1.1//EN"
 "http://www.w3.org/Graphics/SVG/1.1/DTD/svg11.dtd">
<!-- Generated by graphviz version 2.43.0 (0)
 -->
<!-- Title: pop_back Pages: 1 -->
<svg width="305pt" height="25pt"
 viewBox="0.00 0.00 305.00 25.00" xmlns="http://www.w3.org/2000/svg" xmlns:xlink="http://www.w3.org/1999/xlink">
<g id="graph0" class="graph" transform="scale(1 1) rotate(0) translate(4 21)">
<title>pop_back</title>
<!-- Node1 -->
<g id="Node000001" class="node">
<title>Node1</title>
<g id="a_Node000001"><a xlink:title="Removes the last element from the heap.">
<polygon fill="#999999" stroke="#666666" points="51,-17 0,-17 0,0 51,0 51,-17"/>
<text text-anchor="middle" x="25.5" y="-6.6" font-family="Helvetica,sans-Serif" font-size="8.00">pop_back</text>
</a>
</g>
</g>
<!-- Node2 -->
<g id="Node000002" class="node">
<title>Node2</title>
<g id="a_Node000002"><a xlink:href="../../d3/d61/classchdr_1_1heap_a3f6fc5de06a318920d84f3c3742db07f.html#a3f6fc5de06a318920d84f3c3742db07f" target="_top" xlink:title="Determines whether the heap container is empty.">
<polygon fill="white" stroke="#666666" points="125,-17 87,-17 87,0 125,0 125,-17"/>
<text text-anchor="middle" x="106" y="-6.6" font-family="Helvetica,sans-Serif" font-size="8.00">empty</text>
</a>
</g>
</g>
<!-- Node1&#45;&gt;Node2 -->
<g id="edge1_Node000001_Node000002" class="edge">
<title>Node1&#45;&gt;Node2</title>
<g id="a_edge1_Node000001_Node000002"><a xlink:title=" ">
<path fill="none" stroke="#63b8ff" d="M51.34,-8.5C59.42,-8.5 68.46,-8.5 76.77,-8.5"/>
<polygon fill="#63b8ff" stroke="#63b8ff" points="76.79,-12 86.79,-8.5 76.79,-5 76.79,-12"/>
</a>
</g>
</g>
<!-- Node3 -->
<g id="Node000003" class="node">
<title>Node3</title>
<g id="a_Node000003"><a xlink:href="../../d3/d61/classchdr_1_1heap_a3caedb145a667c26028740417dcf32c3.html#a3caedb145a667c26028740417dcf32c3" target="_top" xlink:title="Retrieves the number of elements currently present in the heap.">
<polygon fill="white" stroke="#666666" points="191,-17 161,-17 161,0 191,0 191,-17"/>
<text text-anchor="middle" x="176" y="-6.6" font-family="Helvetica,sans-Serif" font-size="8.00">size</text>
</a>
</g>
</g>
<!-- Node2&#45;&gt;Node3 -->
<g id="edge2_Node000002_Node000003" class="edge">
<title>Node2&#45;&gt;Node3</title>
<g id="a_edge2_Node000002_Node000003"><a xlink:title=" ">
<path fill="none" stroke="#63b8ff" d="M125.22,-8.5C133.08,-8.5 142.38,-8.5 150.8,-8.5"/>
<polygon fill="#63b8ff" stroke="#63b8ff" points="150.83,-12 160.83,-8.5 150.83,-5 150.83,-12"/>
</a>
</g>
</g>
<!-- Node4 -->
<g id="Node000004" class="node">
<title>Node4</title>
<g id="a_Node000004"><a xlink:href="../../d2/dcb/structchdr_1_1utils_abb4d38d3c7a25d93fcedd12666fb00a1.html#abb4d38d3c7a25d93fcedd12666fb00a1" target="_top" xlink:title="Determines the maximum of two comparable values.">
<polygon fill="white" stroke="#666666" points="297,-17 227,-17 227,0 297,0 297,-17"/>
<text text-anchor="middle" x="262" y="-6.6" font-family="Helvetica,sans-Serif" font-size="8.00">chdr::utils::max</text>
</a>
</g>
</g>
<!-- Node3&#45;&gt;Node4 -->
<g id="edge3_Node000003_Node000004" class="edge">
<title>Node3&#45;&gt;Node4</title>
<g id="a_edge3_Node000003_Node000004"><a xlink:title=" ">
<path fill="none" stroke="#63b8ff" d="M191.25,-8.5C198.32,-8.5 207.3,-8.5 216.44,-8.5"/>
<polygon fill="#63b8ff" stroke="#63b8ff" points="216.73,-12 226.73,-8.5 216.73,-5 216.73,-12"/>
</a>
</g>
</g>
</g>
</svg>
