<?xml version="1.0" encoding="UTF-8" standalone="no"?>
<!DOCTYPE svg PUBLIC "-//W3C//DTD SVG 1.1//EN"
 "http://www.w3.org/Graphics/SVG/1.1/DTD/svg11.dtd">
<!-- Generated by graphviz version 2.43.0 (0)
 -->
<!-- Title: sort_up Pages: 1 -->
<svg width="219pt" height="270pt"
 viewBox="0.00 0.00 219.00 270.00" xmlns="http://www.w3.org/2000/svg" xmlns:xlink="http://www.w3.org/1999/xlink">
<g id="graph0" class="graph" transform="scale(1 1) rotate(0) translate(4 266)">
<title>sort_up</title>
<!-- Node1 -->
<g id="Node000001" class="node">
<title>Node1</title>
<g id="a_Node000001"><a xlink:title="Adjusts the position of an item in the heap by moving it upwards towards the root.">
<polygon fill="#999999" stroke="#666666" points="211,-139 167,-139 167,-122 211,-122 211,-139"/>
<text text-anchor="middle" x="189" y="-128.6" font-family="Helvetica,sans-Serif" font-size="8.00">sort_up</text>
</a>
</g>
</g>
<!-- Node2 -->
<g id="Node000002" class="node">
<title>Node2</title>
<g id="a_Node000002"><a xlink:href="../../d3/d61/classchdr_1_1heap_add55c8b8d3e3d6419e57210d3313fd09.html#add55c8b8d3e3d6419e57210d3313fd09" target="_top" xlink:title="Adds a new element to the heap container using perfect forwarding.">
<polygon fill="white" stroke="#666666" points="131,-262 84,-262 84,-245 131,-245 131,-262"/>
<text text-anchor="middle" x="107.5" y="-251.6" font-family="Helvetica,sans-Serif" font-size="8.00">emplace</text>
</a>
</g>
</g>
<!-- Node1&#45;&gt;Node2 -->
<g id="edge1_Node000001_Node000002" class="edge">
<title>Node1&#45;&gt;Node2</title>
<g id="a_edge1_Node000001_Node000002"><a xlink:title=" ">
<path fill="none" stroke="#63b8ff" d="M181.01,-148.82C171.88,-171.18 154.25,-209.37 131,-236.5 128.45,-239.47 125.3,-242.25 122.17,-244.66"/>
<polygon fill="#63b8ff" stroke="#63b8ff" points="184.38,-149.82 184.81,-139.23 177.87,-147.24 184.38,-149.82"/>
</a>
</g>
</g>
<!-- Node4 -->
<g id="Node000004" class="node">
<title>Node4</title>
<g id="a_Node000004"><a xlink:href="../../d3/d61/classchdr_1_1heap_a5ff8da78f62646f1ca68dae37f04ed8f.html#a5ff8da78f62646f1ca68dae37f04ed8f" target="_top" xlink:title="Removes a specified item from the heap, restoring the heap property after removal.">
<polygon fill="white" stroke="#666666" points="126,-227 89,-227 89,-210 126,-210 126,-227"/>
<text text-anchor="middle" x="107.5" y="-216.6" font-family="Helvetica,sans-Serif" font-size="8.00">erase</text>
</a>
</g>
</g>
<!-- Node1&#45;&gt;Node4 -->
<g id="edge3_Node000001_Node000004" class="edge">
<title>Node1&#45;&gt;Node4</title>
<g id="a_edge3_Node000001_Node000004"><a xlink:title=" ">
<path fill="none" stroke="#63b8ff" d="M176.04,-147.73C165.18,-162.76 148.28,-184.72 131,-201.5 128.05,-204.36 124.61,-207.18 121.33,-209.67"/>
<polygon fill="#63b8ff" stroke="#63b8ff" points="179.03,-149.56 181.96,-139.38 173.32,-145.51 179.03,-149.56"/>
</a>
</g>
</g>
<!-- Node6 -->
<g id="Node000006" class="node">
<title>Node6</title>
<g id="a_Node000006"><a xlink:href="../../d3/d61/classchdr_1_1heap_a469d35276d628f97cb8c0fd8962467f5.html#a469d35276d628f97cb8c0fd8962467f5" target="_top" xlink:title="Removes an element from the heap using an iterator while maintaining the heap property.">
<polygon fill="white" stroke="#666666" points="126,-192 89,-192 89,-175 126,-175 126,-192"/>
<text text-anchor="middle" x="107.5" y="-181.6" font-family="Helvetica,sans-Serif" font-size="8.00">erase</text>
</a>
</g>
</g>
<!-- Node1&#45;&gt;Node6 -->
<g id="edge5_Node000001_Node000006" class="edge">
<title>Node1&#45;&gt;Node6</title>
<g id="a_edge5_Node000001_Node000006"><a xlink:title=" ">
<path fill="none" stroke="#63b8ff" d="M166.89,-144.58C152.46,-154.19 133.8,-166.63 121.51,-174.83"/>
<polygon fill="#63b8ff" stroke="#63b8ff" points="168.85,-147.47 175.23,-139.02 164.96,-141.65 168.85,-147.47"/>
</a>
</g>
</g>
<!-- Node7 -->
<g id="Node000007" class="node">
<title>Node7</title>
<g id="a_Node000007"><a xlink:href="../../d3/d61/classchdr_1_1heap_a5a2024fa8b956ddb73b0dff9565468f2.html#a5a2024fa8b956ddb73b0dff9565468f2" target="_top" xlink:title="Inserts a range of elements into the heap.">
<polygon fill="white" stroke="#666666" points="125.5,-157 89.5,-157 89.5,-140 125.5,-140 125.5,-157"/>
<text text-anchor="middle" x="107.5" y="-146.6" font-family="Helvetica,sans-Serif" font-size="8.00">insert</text>
</a>
</g>
</g>
<!-- Node1&#45;&gt;Node7 -->
<g id="edge6_Node000001_Node000007" class="edge">
<title>Node1&#45;&gt;Node7</title>
<g id="a_edge6_Node000001_Node000007"><a xlink:title=" ">
<path fill="none" stroke="#63b8ff" d="M156.86,-137.55C146.22,-139.96 134.71,-142.57 125.59,-144.63"/>
<polygon fill="#63b8ff" stroke="#63b8ff" points="157.72,-140.95 166.7,-135.32 156.17,-134.12 157.72,-140.95"/>
</a>
</g>
</g>
<!-- Node8 -->
<g id="Node000008" class="node">
<title>Node8</title>
<g id="a_Node000008"><a xlink:href="../../d3/d61/classchdr_1_1heap_a5dfd7f9a4ad6a51dfb81d4da0f5ec261.html#a5dfd7f9a4ad6a51dfb81d4da0f5ec261" target="_top" xlink:title="Inserts an element into the heap while maintaining the heap property.">
<polygon fill="white" stroke="#666666" points="125.5,-122 89.5,-122 89.5,-105 125.5,-105 125.5,-122"/>
<text text-anchor="middle" x="107.5" y="-111.6" font-family="Helvetica,sans-Serif" font-size="8.00">insert</text>
</a>
</g>
</g>
<!-- Node1&#45;&gt;Node8 -->
<g id="edge7_Node000001_Node000008" class="edge">
<title>Node1&#45;&gt;Node8</title>
<g id="a_edge7_Node000001_Node000008"><a xlink:title=" ">
<path fill="none" stroke="#63b8ff" d="M156.86,-123.84C146.22,-121.57 134.71,-119.1 125.59,-117.15"/>
<polygon fill="#63b8ff" stroke="#63b8ff" points="156.18,-127.28 166.7,-125.94 157.65,-120.43 156.18,-127.28"/>
</a>
</g>
</g>
<!-- Node9 -->
<g id="Node000009" class="node">
<title>Node9</title>
<g id="a_Node000009"><a xlink:href="../../d3/d61/classchdr_1_1heap_a45a566405e1e982fe89c9eab9315e0ce.html#a45a566405e1e982fe89c9eab9315e0ce" target="_top" xlink:title="Moves an element into the heap while maintaining the heap property.">
<polygon fill="white" stroke="#666666" points="125.5,-87 89.5,-87 89.5,-70 125.5,-70 125.5,-87"/>
<text text-anchor="middle" x="107.5" y="-76.6" font-family="Helvetica,sans-Serif" font-size="8.00">insert</text>
</a>
</g>
</g>
<!-- Node1&#45;&gt;Node9 -->
<g id="edge8_Node000001_Node000009" class="edge">
<title>Node1&#45;&gt;Node9</title>
<g id="a_edge8_Node000001_Node000009"><a xlink:title=" ">
<path fill="none" stroke="#63b8ff" d="M166.16,-116.22C151.9,-106.88 133.74,-95.01 121.65,-87.1"/>
<polygon fill="#63b8ff" stroke="#63b8ff" points="164.59,-119.37 174.87,-121.91 168.42,-113.51 164.59,-119.37"/>
</a>
</g>
</g>
<!-- Node10 -->
<g id="Node000010" class="node">
<title>Node10</title>
<g id="a_Node000010"><a xlink:href="../../d3/d61/classchdr_1_1heap_afb62bdc27151ccbc8d7d8ceb30c24d6e.html#afb62bdc27151ccbc8d7d8ceb30c24d6e" target="_top" xlink:title="Adds an item to the heap.">
<polygon fill="white" stroke="#666666" points="124.5,-52 90.5,-52 90.5,-35 124.5,-35 124.5,-52"/>
<text text-anchor="middle" x="107.5" y="-41.6" font-family="Helvetica,sans-Serif" font-size="8.00">push</text>
</a>
</g>
</g>
<!-- Node1&#45;&gt;Node10 -->
<g id="edge9_Node000001_Node000010" class="edge">
<title>Node1&#45;&gt;Node10</title>
<g id="a_edge9_Node000001_Node000010"><a xlink:title=" ">
<path fill="none" stroke="#63b8ff" d="M175.84,-113.9C164.85,-99.39 147.87,-78.11 131,-61.5 127.72,-58.27 123.89,-55.04 120.33,-52.22"/>
<polygon fill="#63b8ff" stroke="#63b8ff" points="173.06,-116.03 181.84,-121.96 178.67,-111.85 173.06,-116.03"/>
</a>
</g>
</g>
<!-- Node12 -->
<g id="Node000012" class="node">
<title>Node12</title>
<g id="a_Node000012"><a xlink:href="../../d3/d61/classchdr_1_1heap_a10d3601db17d387e5fb4e8b45c2304e0.html#a10d3601db17d387e5fb4e8b45c2304e0" target="_top" xlink:title="Adds an item to the heap using move semantics.">
<polygon fill="white" stroke="#666666" points="124.5,-17 90.5,-17 90.5,0 124.5,0 124.5,-17"/>
<text text-anchor="middle" x="107.5" y="-6.6" font-family="Helvetica,sans-Serif" font-size="8.00">push</text>
</a>
</g>
</g>
<!-- Node1&#45;&gt;Node12 -->
<g id="edge11_Node000001_Node000012" class="edge">
<title>Node1&#45;&gt;Node12</title>
<g id="a_edge11_Node000001_Node000012"><a xlink:title=" ">
<path fill="none" stroke="#63b8ff" d="M180.81,-112.64C171.47,-90.81 153.65,-53.46 131,-26.5 128.17,-23.13 124.62,-19.95 121.19,-17.23"/>
<polygon fill="#63b8ff" stroke="#63b8ff" points="177.63,-114.1 184.7,-121.99 184.1,-111.42 177.63,-114.1"/>
</a>
</g>
</g>
<!-- Node3 -->
<g id="Node000003" class="node">
<title>Node3</title>
<g id="a_Node000003"><a xlink:href="../../d3/d61/classchdr_1_1heap_a3158f1bf4c4c1af0c65d6de220dd92d2.html#a3158f1bf4c4c1af0c65d6de220dd92d2" target="_top" xlink:title="Adds a new element to the heap container using perfect forwarding.">
<polygon fill="white" stroke="#666666" points="48,-262 0,-262 0,-245 48,-245 48,-262"/>
<text text-anchor="middle" x="24" y="-251.6" font-family="Helvetica,sans-Serif" font-size="8.00">enqueue</text>
</a>
</g>
</g>
<!-- Node2&#45;&gt;Node3 -->
<g id="edge2_Node000002_Node000003" class="edge">
<title>Node2&#45;&gt;Node3</title>
<g id="a_edge2_Node000002_Node000003"><a xlink:title=" ">
<path fill="none" stroke="#63b8ff" d="M73.7,-253.5C65.14,-253.5 56.09,-253.5 48.15,-253.5"/>
<polygon fill="#63b8ff" stroke="#63b8ff" points="73.8,-257 83.8,-253.5 73.8,-250 73.8,-257"/>
</a>
</g>
</g>
<!-- Node5 -->
<g id="Node000005" class="node">
<title>Node5</title>
<g id="a_Node000005"><a xlink:href="../../d3/d61/classchdr_1_1heap_acb6d4e6f53bcd4c93d386def0bd8be31.html#acb6d4e6f53bcd4c93d386def0bd8be31" target="_top" xlink:title="Removes all elements in a given range from the heap while maintaining the heap property.">
<polygon fill="white" stroke="#666666" points="42.5,-227 5.5,-227 5.5,-210 42.5,-210 42.5,-227"/>
<text text-anchor="middle" x="24" y="-216.6" font-family="Helvetica,sans-Serif" font-size="8.00">erase</text>
</a>
</g>
</g>
<!-- Node4&#45;&gt;Node5 -->
<g id="edge4_Node000004_Node000005" class="edge">
<title>Node4&#45;&gt;Node5</title>
<g id="a_edge4_Node000004_Node000005"><a xlink:title=" ">
<path fill="none" stroke="#63b8ff" d="M78.49,-218.5C66.6,-218.5 53.11,-218.5 42.65,-218.5"/>
<polygon fill="#63b8ff" stroke="#63b8ff" points="78.82,-222 88.82,-218.5 78.82,-215 78.82,-222"/>
</a>
</g>
</g>
<!-- Node11 -->
<g id="Node000011" class="node">
<title>Node11</title>
<g id="a_Node000011"><a xlink:href="../../d3/d61/classchdr_1_1heap_a5ac97b41f6cd96503adb0f7a3807cbe5.html#a5ac97b41f6cd96503adb0f7a3807cbe5" target="_top" xlink:title="Adds an item to the heap.">
<polygon fill="white" stroke="#666666" points="48,-52 0,-52 0,-35 48,-35 48,-52"/>
<text text-anchor="middle" x="24" y="-41.6" font-family="Helvetica,sans-Serif" font-size="8.00">enqueue</text>
</a>
</g>
</g>
<!-- Node10&#45;&gt;Node11 -->
<g id="edge10_Node000010_Node000011" class="edge">
<title>Node10&#45;&gt;Node11</title>
<g id="a_edge10_Node000010_Node000011"><a xlink:title=" ">
<path fill="none" stroke="#63b8ff" d="M80.28,-43.5C69.95,-43.5 58.18,-43.5 48.17,-43.5"/>
<polygon fill="#63b8ff" stroke="#63b8ff" points="80.4,-47 90.4,-43.5 80.4,-40 80.4,-47"/>
</a>
</g>
</g>
</g>
</svg>
