<?xml version="1.0" encoding="UTF-8" standalone="no"?>
<!DOCTYPE svg PUBLIC "-//W3C//DTD SVG 1.1//EN"
 "http://www.w3.org/Graphics/SVG/1.1/DTD/svg11.dtd">
<!-- Generated by graphviz version 2.43.0 (0)
 -->
<!-- Title: heap Pages: 1 -->
<svg width="305pt" height="99pt"
 viewBox="0.00 0.00 305.00 99.00" xmlns="http://www.w3.org/2000/svg" xmlns:xlink="http://www.w3.org/1999/xlink">
<g id="graph0" class="graph" transform="scale(1 1) rotate(0) translate(4 95)">
<title>heap</title>
<!-- Node1 -->
<g id="Node000001" class="node">
<title>Node1</title>
<g id="a_Node000001"><a xlink:title="Constructs a heap from a collection of elements with move semantics.">
<polygon fill="#999999" stroke="#666666" points="35,-54 0,-54 0,-37 35,-37 35,-54"/>
<text text-anchor="middle" x="17.5" y="-43.6" font-family="Helvetica,sans-Serif" font-size="8.00">heap</text>
</a>
</g>
</g>
<!-- Node2 -->
<g id="Node000002" class="node">
<title>Node2</title>
<g id="a_Node000002"><a xlink:href="../../d3/d61/classchdr_1_1heap_a3f6fc5de06a318920d84f3c3742db07f.html#a3f6fc5de06a318920d84f3c3742db07f" target="_top" xlink:title="Determines whether the heap container is empty.">
<polygon fill="white" stroke="#666666" points="117,-91 79,-91 79,-74 117,-74 117,-91"/>
<text text-anchor="middle" x="98" y="-80.6" font-family="Helvetica,sans-Serif" font-size="8.00">empty</text>
</a>
</g>
</g>
<!-- Node1&#45;&gt;Node2 -->
<g id="edge1_Node000001_Node000002" class="edge">
<title>Node1&#45;&gt;Node2</title>
<g id="a_edge1_Node000001_Node000002"><a xlink:title=" ">
<path fill="none" stroke="#63b8ff" d="M35.15,-53.35C45.13,-58.05 58.08,-64.16 69.55,-69.56"/>
<polygon fill="#63b8ff" stroke="#63b8ff" points="68.19,-72.79 78.73,-73.89 71.18,-66.46 68.19,-72.79"/>
</a>
</g>
</g>
<!-- Node3 -->
<g id="Node000003" class="node">
<title>Node3</title>
<g id="a_Node000003"><a xlink:href="../../d3/d61/classchdr_1_1heap_a3caedb145a667c26028740417dcf32c3.html#a3caedb145a667c26028740417dcf32c3" target="_top" xlink:title="Retrieves the number of elements currently present in the heap.">
<polygon fill="white" stroke="#666666" points="191,-54 161,-54 161,-37 191,-37 191,-54"/>
<text text-anchor="middle" x="176" y="-43.6" font-family="Helvetica,sans-Serif" font-size="8.00">size</text>
</a>
</g>
</g>
<!-- Node1&#45;&gt;Node3 -->
<g id="edge4_Node000001_Node000003" class="edge">
<title>Node1&#45;&gt;Node3</title>
<g id="a_edge4_Node000001_Node000003"><a xlink:title=" ">
<path fill="none" stroke="#63b8ff" d="M35.25,-45.5C62.9,-45.5 118.23,-45.5 150.35,-45.5"/>
<polygon fill="#63b8ff" stroke="#63b8ff" points="150.66,-49 160.66,-45.5 150.66,-42 150.66,-49"/>
</a>
</g>
</g>
<!-- Node5 -->
<g id="Node000005" class="node">
<title>Node5</title>
<g id="a_Node000005"><a xlink:href="../../d3/d61/classchdr_1_1heap_a9bb7e9906ed7296a33c7c08c4d0ef800.html#a9bb7e9906ed7296a33c7c08c4d0ef800" target="_top" xlink:title="Reorganises the heap by moving a specified item downward to maintain the heap property.">
<polygon fill="white" stroke="#666666" points="125,-17 71,-17 71,0 125,0 125,-17"/>
<text text-anchor="middle" x="98" y="-6.6" font-family="Helvetica,sans-Serif" font-size="8.00">sort_down</text>
</a>
</g>
</g>
<!-- Node1&#45;&gt;Node5 -->
<g id="edge5_Node000001_Node000005" class="edge">
<title>Node1&#45;&gt;Node5</title>
<g id="a_edge5_Node000001_Node000005"><a xlink:title=" ">
<path fill="none" stroke="#63b8ff" d="M35.15,-37.65C45.13,-32.95 58.08,-26.84 69.55,-21.44"/>
<polygon fill="#63b8ff" stroke="#63b8ff" points="71.18,-24.54 78.73,-17.11 68.19,-18.21 71.18,-24.54"/>
</a>
</g>
</g>
<!-- Node2&#45;&gt;Node3 -->
<g id="edge2_Node000002_Node000003" class="edge">
<title>Node2&#45;&gt;Node3</title>
<g id="a_edge2_Node000002_Node000003"><a xlink:title=" ">
<path fill="none" stroke="#63b8ff" d="M116.63,-73.92C126.94,-68.9 140.09,-62.5 151.3,-57.04"/>
<polygon fill="#63b8ff" stroke="#63b8ff" points="153.07,-60.07 160.53,-52.55 150,-53.78 153.07,-60.07"/>
</a>
</g>
</g>
<!-- Node4 -->
<g id="Node000004" class="node">
<title>Node4</title>
<g id="a_Node000004"><a xlink:href="../../d2/dcb/structchdr_1_1utils_abb4d38d3c7a25d93fcedd12666fb00a1.html#abb4d38d3c7a25d93fcedd12666fb00a1" target="_top" xlink:title="Determines the maximum of two comparable values.">
<polygon fill="white" stroke="#666666" points="297,-54 227,-54 227,-37 297,-37 297,-54"/>
<text text-anchor="middle" x="262" y="-43.6" font-family="Helvetica,sans-Serif" font-size="8.00">chdr::utils::max</text>
</a>
</g>
</g>
<!-- Node3&#45;&gt;Node4 -->
<g id="edge3_Node000003_Node000004" class="edge">
<title>Node3&#45;&gt;Node4</title>
<g id="a_edge3_Node000003_Node000004"><a xlink:title=" ">
<path fill="none" stroke="#63b8ff" d="M191.25,-45.5C198.32,-45.5 207.3,-45.5 216.44,-45.5"/>
<polygon fill="#63b8ff" stroke="#63b8ff" points="216.73,-49 226.73,-45.5 216.73,-42 216.73,-49"/>
</a>
</g>
</g>
<!-- Node5&#45;&gt;Node3 -->
<g id="edge6_Node000005_Node000003" class="edge">
<title>Node5&#45;&gt;Node3</title>
<g id="a_edge6_Node000005_Node000003"><a xlink:title=" ">
<path fill="none" stroke="#63b8ff" d="M116.63,-17.08C126.94,-22.1 140.09,-28.5 151.3,-33.96"/>
<polygon fill="#63b8ff" stroke="#63b8ff" points="150,-37.22 160.53,-38.45 153.07,-30.93 150,-37.22"/>
</a>
</g>
</g>
</g>
</svg>
