<?xml version="1.0" encoding="UTF-8" standalone="no"?>
<!DOCTYPE svg PUBLIC "-//W3C//DTD SVG 1.1//EN"
 "http://www.w3.org/Graphics/SVG/1.1/DTD/svg11.dtd">
<!-- Generated by graphviz version 2.43.0 (0)
 -->
<!-- Title: empty Pages: 1 -->
<svg width="218pt" height="25pt"
 viewBox="0.00 0.00 218.00 25.00" xmlns="http://www.w3.org/2000/svg" xmlns:xlink="http://www.w3.org/1999/xlink">
<g id="graph0" class="graph" transform="scale(1 1) rotate(0) translate(4 21)">
<title>empty</title>
<!-- Node1 -->
<g id="Node000001" class="node">
<title>Node1</title>
<g id="a_Node000001"><a xlink:title="Checks if the heap is empty.">
<polygon fill="#999999" stroke="#666666" points="38,-17 0,-17 0,0 38,0 38,-17"/>
<text text-anchor="middle" x="19" y="-6.6" font-family="Helvetica,sans-Serif" font-size="8.00">empty</text>
</a>
</g>
</g>
<!-- Node2 -->
<g id="Node000002" class="node">
<title>Node2</title>
<g id="a_Node000002"><a xlink:href="../../d3/d61/classchdr_1_1heap_a3caedb145a667c26028740417dcf32c3.html#a3caedb145a667c26028740417dcf32c3" target="_top" xlink:title="Retrieves the number of elements currently stored in the heap.">
<polygon fill="white" stroke="#666666" points="104,-17 74,-17 74,0 104,0 104,-17"/>
<text text-anchor="middle" x="89" y="-6.6" font-family="Helvetica,sans-Serif" font-size="8.00">size</text>
</a>
</g>
</g>
<!-- Node1&#45;&gt;Node2 -->
<g id="edge1_Node000001_Node000002" class="edge">
<title>Node1&#45;&gt;Node2</title>
<g id="a_edge1_Node000001_Node000002"><a xlink:title=" ">
<path fill="none" stroke="#63b8ff" d="M38.22,-8.5C46.08,-8.5 55.38,-8.5 63.8,-8.5"/>
<polygon fill="#63b8ff" stroke="#63b8ff" points="63.83,-12 73.83,-8.5 63.83,-5 63.83,-12"/>
</a>
</g>
</g>
<!-- Node3 -->
<g id="Node000003" class="node">
<title>Node3</title>
<g id="a_Node000003"><a xlink:href="../../d2/dcb/structchdr_1_1utils_abb4d38d3c7a25d93fcedd12666fb00a1.html#abb4d38d3c7a25d93fcedd12666fb00a1" target="_top" xlink:title="Determines the maximum of two comparable values.">
<polygon fill="white" stroke="#666666" points="210,-17 140,-17 140,0 210,0 210,-17"/>
<text text-anchor="middle" x="175" y="-6.6" font-family="Helvetica,sans-Serif" font-size="8.00">chdr::utils::max</text>
</a>
</g>
</g>
<!-- Node2&#45;&gt;Node3 -->
<g id="edge2_Node000002_Node000003" class="edge">
<title>Node2&#45;&gt;Node3</title>
<g id="a_edge2_Node000002_Node000003"><a xlink:title=" ">
<path fill="none" stroke="#63b8ff" d="M104.25,-8.5C111.32,-8.5 120.3,-8.5 129.44,-8.5"/>
<polygon fill="#63b8ff" stroke="#63b8ff" points="129.73,-12 139.73,-8.5 129.73,-5 129.73,-12"/>
</a>
</g>
</g>
</g>
</svg>
