<?xml version="1.0" encoding="UTF-8" standalone="no"?>
<!DOCTYPE svg PUBLIC "-//W3C//DTD SVG 1.1//EN"
 "http://www.w3.org/Graphics/SVG/1.1/DTD/svg11.dtd">
<!-- Generated by graphviz version 2.43.0 (0)
 -->
<!-- Title: insert Pages: 1 -->
<svg width="190pt" height="25pt"
 viewBox="0.00 0.00 190.00 25.00" xmlns="http://www.w3.org/2000/svg" xmlns:xlink="http://www.w3.org/1999/xlink">
<g id="graph0" class="graph" transform="scale(1 1) rotate(0) translate(4 21)">
<title>insert</title>
<!-- Node1 -->
<g id="Node000001" class="node">
<title>Node1</title>
<g id="a_Node000001"><a xlink:title="Moves an element into the heap while maintaining the heap property.">
<polygon fill="#999999" stroke="#666666" points="36,-17 0,-17 0,0 36,0 36,-17"/>
<text text-anchor="middle" x="18" y="-6.6" font-family="Helvetica,sans-Serif" font-size="8.00">insert</text>
</a>
</g>
</g>
<!-- Node2 -->
<g id="Node000002" class="node">
<title>Node2</title>
<g id="a_Node000002"><a xlink:href="../../d3/d61/classchdr_1_1heap_ab3bf20f6c00b1d3c85593ed5a5c4c3a1.html#ab3bf20f6c00b1d3c85593ed5a5c4c3a1" target="_top" xlink:title="Adjusts the position of an item in the heap by moving it upwards towards the root.">
<polygon fill="white" stroke="#666666" points="116,-17 72,-17 72,0 116,0 116,-17"/>
<text text-anchor="middle" x="94" y="-6.6" font-family="Helvetica,sans-Serif" font-size="8.00">sort_up</text>
</a>
</g>
</g>
<!-- Node1&#45;&gt;Node2 -->
<g id="edge1_Node000001_Node000002" class="edge">
<title>Node1&#45;&gt;Node2</title>
<g id="a_edge1_Node000001_Node000002"><a xlink:title=" ">
<path fill="none" stroke="#63b8ff" d="M36.16,-8.5C43.84,-8.5 53.12,-8.5 61.95,-8.5"/>
<polygon fill="#63b8ff" stroke="#63b8ff" points="61.97,-12 71.97,-8.5 61.97,-5 61.97,-12"/>
</a>
</g>
</g>
<!-- Node3 -->
<g id="Node000003" class="node">
<title>Node3</title>
<g id="a_Node000003"><a xlink:href="../../d3/d61/classchdr_1_1heap_a3caedb145a667c26028740417dcf32c3.html#a3caedb145a667c26028740417dcf32c3" target="_top" xlink:title="Retrieves the number of elements currently present in the heap.">
<polygon fill="white" stroke="#666666" points="182,-17 152,-17 152,0 182,0 182,-17"/>
<text text-anchor="middle" x="167" y="-6.6" font-family="Helvetica,sans-Serif" font-size="8.00">size</text>
</a>
</g>
</g>
<!-- Node2&#45;&gt;Node3 -->
<g id="edge2_Node000002_Node000003" class="edge">
<title>Node2&#45;&gt;Node3</title>
<g id="a_edge2_Node000002_Node000003"><a xlink:title=" ">
<path fill="none" stroke="#63b8ff" d="M116.3,-8.5C124.25,-8.5 133.35,-8.5 141.56,-8.5"/>
<polygon fill="#63b8ff" stroke="#63b8ff" points="141.68,-12 151.68,-8.5 141.68,-5 141.68,-12"/>
</a>
</g>
</g>
</g>
</svg>
