<?xml version="1.0" encoding="UTF-8" standalone="no"?>
<!DOCTYPE svg PUBLIC "-//W3C//DTD SVG 1.1//EN"
 "http://www.w3.org/Graphics/SVG/1.1/DTD/svg11.dtd">
<!-- Generated by graphviz version 2.43.0 (0)
 -->
<!-- Title: top Pages: 1 -->
<svg width="121pt" height="95pt"
 viewBox="0.00 0.00 121.00 95.00" xmlns="http://www.w3.org/2000/svg" xmlns:xlink="http://www.w3.org/1999/xlink">
<g id="graph0" class="graph" transform="scale(1 1) rotate(0) translate(4 91)">
<title>top</title>
<!-- Node1 -->
<g id="Node000001" class="node">
<title>Node1</title>
<g id="a_Node000001"><a xlink:title="Retrieves a reference to the top element of the heap.">
<polygon fill="#999999" stroke="#666666" points="113,-52 84,-52 84,-35 113,-35 113,-52"/>
<text text-anchor="middle" x="98.5" y="-41.6" font-family="Helvetica,sans-Serif" font-size="8.00">top</text>
</a>
</g>
</g>
<!-- Node2 -->
<g id="Node000002" class="node">
<title>Node2</title>
<g id="a_Node000002"><a xlink:href="../../d3/d61/classchdr_1_1heap_acc864476d3a1311f187c3290d0b161aa.html#acc864476d3a1311f187c3290d0b161aa" target="_top" xlink:title="Removes and returns the top element from the heap.">
<polygon fill="white" stroke="#666666" points="48,-87 0,-87 0,-70 48,-70 48,-87"/>
<text text-anchor="middle" x="24" y="-76.6" font-family="Helvetica,sans-Serif" font-size="8.00">dequeue</text>
</a>
</g>
</g>
<!-- Node1&#45;&gt;Node2 -->
<g id="edge1_Node000001_Node000002" class="edge">
<title>Node1&#45;&gt;Node2</title>
<g id="a_edge1_Node000001_Node000002"><a xlink:title=" ">
<path fill="none" stroke="#63b8ff" d="M74.62,-54.55C64.3,-59.53 52.31,-65.32 42.69,-69.96"/>
<polygon fill="#63b8ff" stroke="#63b8ff" points="76.38,-57.58 83.86,-50.08 73.34,-51.28 76.38,-57.58"/>
</a>
</g>
</g>
<!-- Node3 -->
<g id="Node000003" class="node">
<title>Node3</title>
<g id="a_Node000003"><a xlink:href="../../d3/d61/classchdr_1_1heap_a66ae5a391f699d2e564c2545ab9c6d82.html#a66ae5a391f699d2e564c2545ab9c6d82" target="_top" xlink:title="Retrieves a constant reference to the front element of the heap.">
<polygon fill="white" stroke="#666666" points="40.5,-52 7.5,-52 7.5,-35 40.5,-35 40.5,-52"/>
<text text-anchor="middle" x="24" y="-41.6" font-family="Helvetica,sans-Serif" font-size="8.00">front</text>
</a>
</g>
</g>
<!-- Node1&#45;&gt;Node3 -->
<g id="edge2_Node000001_Node000003" class="edge">
<title>Node1&#45;&gt;Node3</title>
<g id="a_edge2_Node000001_Node000003"><a xlink:title=" ">
<path fill="none" stroke="#63b8ff" d="M73.72,-43.5C62.84,-43.5 50.25,-43.5 40.59,-43.5"/>
<polygon fill="#63b8ff" stroke="#63b8ff" points="73.86,-47 83.86,-43.5 73.86,-40 73.86,-47"/>
</a>
</g>
</g>
<!-- Node4 -->
<g id="Node000004" class="node">
<title>Node4</title>
<g id="a_Node000004"><a xlink:href="../../d3/d61/classchdr_1_1heap_acbf9b62bac7333654c7862dc8cfd1e48.html#acbf9b62bac7333654c7862dc8cfd1e48" target="_top" xlink:title="Retrieves a reference to the front element of the heap.">
<polygon fill="white" stroke="#666666" points="40.5,-17 7.5,-17 7.5,0 40.5,0 40.5,-17"/>
<text text-anchor="middle" x="24" y="-6.6" font-family="Helvetica,sans-Serif" font-size="8.00">front</text>
</a>
</g>
</g>
<!-- Node1&#45;&gt;Node4 -->
<g id="edge3_Node000001_Node000004" class="edge">
<title>Node1&#45;&gt;Node4</title>
<g id="a_edge3_Node000001_Node000004"><a xlink:title=" ">
<path fill="none" stroke="#63b8ff" d="M74.74,-32.51C63.63,-27.15 50.55,-20.83 40.59,-16.03"/>
<polygon fill="#63b8ff" stroke="#63b8ff" points="73.34,-35.72 83.86,-36.92 76.38,-29.42 73.34,-35.72"/>
</a>
</g>
</g>
</g>
</svg>
