<?xml version="1.0" encoding="UTF-8" standalone="no"?>
<!DOCTYPE svg PUBLIC "-//W3C//DTD SVG 1.1//EN"
 "http://www.w3.org/Graphics/SVG/1.1/DTD/svg11.dtd">
<!-- Generated by graphviz version 2.43.0 (0)
 -->
<!-- Title: erase Pages: 1 -->
<svg width="274pt" height="134pt"
 viewBox="0.00 0.00 274.00 134.00" xmlns="http://www.w3.org/2000/svg" xmlns:xlink="http://www.w3.org/1999/xlink">
<g id="graph0" class="graph" transform="scale(1 1) rotate(0) translate(4 130)">
<title>erase</title>
<!-- Node1 -->
<g id="Node000001" class="node">
<title>Node1</title>
<g id="a_Node000001"><a xlink:title="Removes all elements in a given range from the heap while maintaining the heap property.">
<polygon fill="#999999" stroke="#666666" points="37,-70 0,-70 0,-53 37,-53 37,-70"/>
<text text-anchor="middle" x="18.5" y="-59.6" font-family="Helvetica,sans-Serif" font-size="8.00">erase</text>
</a>
</g>
</g>
<!-- Node2 -->
<g id="Node000002" class="node">
<title>Node2</title>
<g id="a_Node000002"><a xlink:href="../../d3/d61/classchdr_1_1heap_a5ff8da78f62646f1ca68dae37f04ed8f.html#a5ff8da78f62646f1ca68dae37f04ed8f" target="_top" xlink:title="Removes a specified item from the heap, restoring the heap property after removal.">
<polygon fill="white" stroke="#666666" points="110,-70 73,-70 73,-53 110,-53 110,-70"/>
<text text-anchor="middle" x="91.5" y="-59.6" font-family="Helvetica,sans-Serif" font-size="8.00">erase</text>
</a>
</g>
</g>
<!-- Node1&#45;&gt;Node2 -->
<g id="edge1_Node000001_Node000002" class="edge">
<title>Node1&#45;&gt;Node2</title>
<g id="a_edge1_Node000001_Node000002"><a xlink:title=" ">
<path fill="none" stroke="#63b8ff" d="M37.05,-61.5C44.76,-61.5 54,-61.5 62.61,-61.5"/>
<polygon fill="#63b8ff" stroke="#63b8ff" points="62.66,-65 72.66,-61.5 62.66,-58 62.66,-65"/>
</a>
</g>
</g>
<!-- Node3 -->
<g id="Node000003" class="node">
<title>Node3</title>
<g id="a_Node000003"><a xlink:href="../../d3/d61/classchdr_1_1heap_a3f6fc5de06a318920d84f3c3742db07f.html#a3f6fc5de06a318920d84f3c3742db07f" target="_top" xlink:title="Determines whether the heap container is empty.">
<polygon fill="white" stroke="#666666" points="192,-126 154,-126 154,-109 192,-109 192,-126"/>
<text text-anchor="middle" x="173" y="-115.6" font-family="Helvetica,sans-Serif" font-size="8.00">empty</text>
</a>
</g>
</g>
<!-- Node2&#45;&gt;Node3 -->
<g id="edge2_Node000002_Node000003" class="edge">
<title>Node2&#45;&gt;Node3</title>
<g id="a_edge2_Node000002_Node000003"><a xlink:title=" ">
<path fill="none" stroke="#63b8ff" d="M104.57,-70.01C116.95,-78.72 136.43,-92.44 151.27,-102.9"/>
<polygon fill="#63b8ff" stroke="#63b8ff" points="149.62,-106.02 159.81,-108.91 153.65,-100.29 149.62,-106.02"/>
</a>
</g>
</g>
<!-- Node4 -->
<g id="Node000004" class="node">
<title>Node4</title>
<g id="a_Node000004"><a xlink:href="../../d3/d61/classchdr_1_1heap_a3caedb145a667c26028740417dcf32c3.html#a3caedb145a667c26028740417dcf32c3" target="_top" xlink:title="Retrieves the number of elements currently present in the heap.">
<polygon fill="white" stroke="#666666" points="266,-70 236,-70 236,-53 266,-53 266,-70"/>
<text text-anchor="middle" x="251" y="-59.6" font-family="Helvetica,sans-Serif" font-size="8.00">size</text>
</a>
</g>
</g>
<!-- Node2&#45;&gt;Node4 -->
<g id="edge4_Node000002_Node000004" class="edge">
<title>Node2&#45;&gt;Node4</title>
<g id="a_edge4_Node000002_Node000004"><a xlink:title=" ">
<path fill="none" stroke="#63b8ff" d="M110.26,-61.5C138.47,-61.5 193.59,-61.5 225.52,-61.5"/>
<polygon fill="#63b8ff" stroke="#63b8ff" points="225.77,-65 235.77,-61.5 225.77,-58 225.77,-65"/>
</a>
</g>
</g>
<!-- Node5 -->
<g id="Node000005" class="node">
<title>Node5</title>
<g id="a_Node000005"><a xlink:href="../../d3/d61/classchdr_1_1heap_a9bb7e9906ed7296a33c7c08c4d0ef800.html#a9bb7e9906ed7296a33c7c08c4d0ef800" target="_top" xlink:title="Reorganises the heap by moving a specified item downward to maintain the heap property.">
<polygon fill="white" stroke="#666666" points="200,-52 146,-52 146,-35 200,-35 200,-52"/>
<text text-anchor="middle" x="173" y="-41.6" font-family="Helvetica,sans-Serif" font-size="8.00">sort_down</text>
</a>
</g>
</g>
<!-- Node2&#45;&gt;Node5 -->
<g id="edge5_Node000002_Node000005" class="edge">
<title>Node2&#45;&gt;Node5</title>
<g id="a_edge5_Node000002_Node000005"><a xlink:title=" ">
<path fill="none" stroke="#63b8ff" d="M110.14,-57.51C117.79,-55.77 127.03,-53.68 136.02,-51.65"/>
<polygon fill="#63b8ff" stroke="#63b8ff" points="136.97,-55.02 145.95,-49.4 135.43,-48.19 136.97,-55.02"/>
</a>
</g>
</g>
<!-- Node6 -->
<g id="Node000006" class="node">
<title>Node6</title>
<g id="a_Node000006"><a xlink:href="../../d3/d61/classchdr_1_1heap_ab3bf20f6c00b1d3c85593ed5a5c4c3a1.html#ab3bf20f6c00b1d3c85593ed5a5c4c3a1" target="_top" xlink:title="Adjusts the position of an item in the heap by moving it upwards towards the root.">
<polygon fill="white" stroke="#666666" points="195,-17 151,-17 151,0 195,0 195,-17"/>
<text text-anchor="middle" x="173" y="-6.6" font-family="Helvetica,sans-Serif" font-size="8.00">sort_up</text>
</a>
</g>
</g>
<!-- Node2&#45;&gt;Node6 -->
<g id="edge7_Node000002_Node000006" class="edge">
<title>Node2&#45;&gt;Node6</title>
<g id="a_edge7_Node000002_Node000006"><a xlink:title=" ">
<path fill="none" stroke="#63b8ff" d="M105.27,-52.98C117.49,-44.84 136.13,-32.41 150.61,-22.76"/>
<polygon fill="#63b8ff" stroke="#63b8ff" points="152.62,-25.63 158.99,-17.17 148.73,-19.81 152.62,-25.63"/>
</a>
</g>
</g>
<!-- Node3&#45;&gt;Node4 -->
<g id="edge3_Node000003_Node000004" class="edge">
<title>Node3&#45;&gt;Node4</title>
<g id="a_edge3_Node000003_Node000004"><a xlink:title=" ">
<path fill="none" stroke="#63b8ff" d="M185.54,-108.99C197.37,-100.28 215.99,-86.56 230.18,-76.1"/>
<polygon fill="#63b8ff" stroke="#63b8ff" points="232.37,-78.83 238.35,-70.09 228.22,-73.2 232.37,-78.83"/>
</a>
</g>
</g>
<!-- Node5&#45;&gt;Node4 -->
<g id="edge6_Node000005_Node000004" class="edge">
<title>Node5&#45;&gt;Node4</title>
<g id="a_edge6_Node000005_Node000004"><a xlink:title=" ">
<path fill="none" stroke="#63b8ff" d="M200.15,-49.69C208.61,-51.7 217.93,-53.9 226.2,-55.86"/>
<polygon fill="#63b8ff" stroke="#63b8ff" points="225.44,-59.28 235.98,-58.18 227.05,-52.47 225.44,-59.28"/>
</a>
</g>
</g>
<!-- Node6&#45;&gt;Node4 -->
<g id="edge8_Node000006_Node000004" class="edge">
<title>Node6&#45;&gt;Node4</title>
<g id="a_edge8_Node000006_Node000004"><a xlink:title=" ">
<path fill="none" stroke="#63b8ff" d="M186.44,-17.09C190.74,-20.07 195.58,-23.43 200,-26.5 209.65,-33.22 220.34,-40.69 229.34,-47"/>
<polygon fill="#63b8ff" stroke="#63b8ff" points="227.49,-49.98 237.68,-52.85 231.5,-44.25 227.49,-49.98"/>
</a>
</g>
</g>
</g>
</svg>
