<?xml version="1.0" encoding="UTF-8" standalone="no"?>
<!DOCTYPE svg PUBLIC "-//W3C//DTD SVG 1.1//EN"
 "http://www.w3.org/Graphics/SVG/1.1/DTD/svg11.dtd">
<!-- Generated by graphviz version 2.43.0 (0)
 -->
<!-- Title: size Pages: 1 -->
<svg width="336pt" height="789pt"
 viewBox="0.00 0.00 336.00 789.00" xmlns="http://www.w3.org/2000/svg" xmlns:xlink="http://www.w3.org/1999/xlink">
<g id="graph0" class="graph" transform="scale(1 1) rotate(0) translate(4 785)">
<title>size</title>
<!-- Node1 -->
<g id="Node000001" class="node">
<title>Node1</title>
<g id="a_Node000001"><a xlink:title="Retrieves the number of elements currently stored in the heap.">
<polygon fill="#999999" stroke="#666666" points="328,-336 295,-336 295,-319 328,-319 328,-336"/>
<text text-anchor="middle" x="311.5" y="-325.6" font-family="Helvetica,sans-Serif" font-size="8.00">size</text>
</a>
</g>
</g>
<!-- Node2 -->
<g id="Node000002" class="node">
<title>Node2</title>
<g id="a_Node000002"><a xlink:href="../../d3/d61/classchdr_1_1heap_adf4e3bffff56ce9f6c2ca6a36d40a725.html#adf4e3bffff56ce9f6c2ca6a36d40a725" target="_top" xlink:title="Constructs a heap from a collection of elements.">
<polygon fill="white" stroke="#666666" points="145.5,-406 107.5,-406 107.5,-389 145.5,-389 145.5,-406"/>
<text text-anchor="middle" x="126.5" y="-395.6" font-family="Helvetica,sans-Serif" font-size="8.00">heap</text>
</a>
</g>
</g>
<!-- Node1&#45;&gt;Node2 -->
<g id="edge1_Node000001_Node000002" class="edge">
<title>Node1&#45;&gt;Node2</title>
<g id="a_edge1_Node000001_Node000002"><a xlink:title=" ">
<path fill="none" stroke="#63b8ff" d="M291.02,-341.92C281.7,-348.31 270.16,-355.49 259,-360.5 220.27,-377.89 171.41,-389.05 145.52,-394.19"/>
<polygon fill="#63b8ff" stroke="#63b8ff" points="293.05,-344.77 299.2,-336.14 289.01,-339.06 293.05,-344.77"/>
</a>
</g>
</g>
<!-- Node3 -->
<g id="Node000003" class="node">
<title>Node3</title>
<g id="a_Node000003"><a xlink:href="../../d3/d61/classchdr_1_1heap_a115a6b02da0ef70b6e9cf66736b45b27.html#a115a6b02da0ef70b6e9cf66736b45b27" target="_top" xlink:title="Constructs a heap from a collection of elements with move semantics.">
<polygon fill="white" stroke="#666666" points="145.5,-371 107.5,-371 107.5,-354 145.5,-354 145.5,-371"/>
<text text-anchor="middle" x="126.5" y="-360.6" font-family="Helvetica,sans-Serif" font-size="8.00">heap</text>
</a>
</g>
</g>
<!-- Node1&#45;&gt;Node3 -->
<g id="edge2_Node000001_Node000003" class="edge">
<title>Node1&#45;&gt;Node3</title>
<g id="a_edge2_Node000001_Node000003"><a xlink:title=" ">
<path fill="none" stroke="#63b8ff" d="M285.02,-335.01C276.76,-337.28 267.53,-339.66 259,-341.5 218.99,-350.11 171.45,-356.85 145.91,-360.19"/>
<polygon fill="#63b8ff" stroke="#63b8ff" points="286.16,-338.32 294.83,-332.23 284.25,-331.59 286.16,-338.32"/>
</a>
</g>
</g>
<!-- Node4 -->
<g id="Node000004" class="node">
<title>Node4</title>
<g id="a_Node000004"><a xlink:href="../../d3/d61/classchdr_1_1heap_acc864476d3a1311f187c3290d0b161aa.html#acc864476d3a1311f187c3290d0b161aa" target="_top" xlink:title="Removes and returns the top element from the heap.">
<polygon fill="white" stroke="#666666" points="53,-568 0,-568 0,-551 53,-551 53,-568"/>
<text text-anchor="middle" x="26.5" y="-557.6" font-family="Helvetica,sans-Serif" font-size="8.00">dequeue</text>
</a>
</g>
</g>
<!-- Node1&#45;&gt;Node4 -->
<g id="edge3_Node000001_Node000004" class="edge">
<title>Node1&#45;&gt;Node4</title>
<g id="a_edge3_Node000001_Node000004"><a xlink:title=" ">
<path fill="none" stroke="#63b8ff" d="M310.2,-346.48C308.01,-410.73 291.04,-620.43 164,-699.5 135.7,-717.11 116.91,-717.72 89,-699.5 42.1,-668.88 30.73,-593.63 28.19,-568.12"/>
<polygon fill="#63b8ff" stroke="#63b8ff" points="313.7,-346.32 310.46,-336.24 306.71,-346.15 313.7,-346.32"/>
</a>
</g>
</g>
<!-- Node5 -->
<g id="Node000005" class="node">
<title>Node5</title>
<g id="a_Node000005"><a xlink:href="../../d3/d61/classchdr_1_1heap_a3f6fc5de06a318920d84f3c3742db07f.html#a3f6fc5de06a318920d84f3c3742db07f" target="_top" xlink:title="Checks if the heap is empty.">
<polygon fill="white" stroke="#666666" points="250.5,-497 208.5,-497 208.5,-480 250.5,-480 250.5,-497"/>
<text text-anchor="middle" x="229.5" y="-486.6" font-family="Helvetica,sans-Serif" font-size="8.00">empty</text>
</a>
</g>
</g>
<!-- Node1&#45;&gt;Node5 -->
<g id="edge4_Node000001_Node000005" class="edge">
<title>Node1&#45;&gt;Node5</title>
<g id="a_edge4_Node000001_Node000005"><a xlink:title=" ">
<path fill="none" stroke="#63b8ff" d="M301.56,-345.49C284.4,-380.03 247.44,-454.41 234.82,-479.8"/>
<polygon fill="#63b8ff" stroke="#63b8ff" points="304.88,-346.67 306.2,-336.16 298.61,-343.55 304.88,-346.67"/>
</a>
</g>
</g>
<!-- Node9 -->
<g id="Node000009" class="node">
<title>Node9</title>
<g id="a_Node000009"><a xlink:href="../../d3/d61/classchdr_1_1heap_a5ff8da78f62646f1ca68dae37f04ed8f.html#a5ff8da78f62646f1ca68dae37f04ed8f" target="_top" xlink:title="Removes a specified item from the heap, restoring the heap property after removal.">
<polygon fill="white" stroke="#666666" points="146.5,-262 106.5,-262 106.5,-245 146.5,-245 146.5,-262"/>
<text text-anchor="middle" x="126.5" y="-251.6" font-family="Helvetica,sans-Serif" font-size="8.00">erase</text>
</a>
</g>
</g>
<!-- Node1&#45;&gt;Node9 -->
<g id="edge22_Node000001_Node000009" class="edge">
<title>Node1&#45;&gt;Node9</title>
<g id="a_edge22_Node000001_Node000009"><a xlink:title=" ">
<path fill="none" stroke="#63b8ff" d="M299.22,-310.7C289.94,-298.31 275.64,-282.17 259,-273.5 222.54,-254.52 173.21,-252.26 146.53,-252.65"/>
<polygon fill="#63b8ff" stroke="#63b8ff" points="296.4,-312.78 305.05,-318.9 302.1,-308.72 296.4,-312.78"/>
</a>
</g>
</g>
<!-- Node12 -->
<g id="Node000012" class="node">
<title>Node12</title>
<g id="a_Node000012"><a xlink:href="../../d3/d61/classchdr_1_1heap_a274dca2a1d2c68ff3249f37b3ae410d5.html#a274dca2a1d2c68ff3249f37b3ae410d5" target="_top" xlink:title="Removes the top element from the heap and maintains the heap property.">
<polygon fill="white" stroke="#666666" points="142.5,-336 110.5,-336 110.5,-319 142.5,-319 142.5,-336"/>
<text text-anchor="middle" x="126.5" y="-325.6" font-family="Helvetica,sans-Serif" font-size="8.00">pop</text>
</a>
</g>
</g>
<!-- Node1&#45;&gt;Node12 -->
<g id="edge24_Node000001_Node000012" class="edge">
<title>Node1&#45;&gt;Node12</title>
<g id="a_edge24_Node000001_Node000012"><a xlink:title=" ">
<path fill="none" stroke="#63b8ff" d="M284.43,-327.5C245.57,-327.5 173.7,-327.5 142.55,-327.5"/>
<polygon fill="#63b8ff" stroke="#63b8ff" points="284.9,-331 294.9,-327.5 284.9,-324 284.9,-331"/>
</a>
</g>
</g>
<!-- Node19 -->
<g id="Node000019" class="node">
<title>Node19</title>
<g id="a_Node000019"><a xlink:href="../../d3/d61/classchdr_1_1heap_a469d35276d628f97cb8c0fd8962467f5.html#a469d35276d628f97cb8c0fd8962467f5" target="_top" xlink:title="Removes an element from the heap using an iterator while maintaining the heap property.">
<polygon fill="white" stroke="#666666" points="146.5,-227 106.5,-227 106.5,-210 146.5,-210 146.5,-227"/>
<text text-anchor="middle" x="126.5" y="-216.6" font-family="Helvetica,sans-Serif" font-size="8.00">erase</text>
</a>
</g>
</g>
<!-- Node1&#45;&gt;Node19 -->
<g id="edge23_Node000001_Node000019" class="edge">
<title>Node1&#45;&gt;Node19</title>
<g id="a_edge23_Node000001_Node000019"><a xlink:title=" ">
<path fill="none" stroke="#63b8ff" d="M302.86,-309.29C294.6,-291.83 279.76,-266.03 259,-251.5 224.48,-227.34 173.94,-220.83 146.66,-219.1"/>
<polygon fill="#63b8ff" stroke="#63b8ff" points="299.89,-311.21 307.15,-318.91 306.28,-308.36 299.89,-311.21"/>
</a>
</g>
</g>
<!-- Node20 -->
<g id="Node000020" class="node">
<title>Node20</title>
<g id="a_Node000020"><a xlink:href="../../d3/d61/classchdr_1_1heap_a9bb7e9906ed7296a33c7c08c4d0ef800.html#a9bb7e9906ed7296a33c7c08c4d0ef800" target="_top" xlink:title="Reorganises the heap by moving a specified item downward to maintain the heap property.">
<polygon fill="white" stroke="#666666" points="259,-299 200,-299 200,-282 259,-282 259,-299"/>
<text text-anchor="middle" x="229.5" y="-288.6" font-family="Helvetica,sans-Serif" font-size="8.00">sort_down</text>
</a>
</g>
</g>
<!-- Node1&#45;&gt;Node20 -->
<g id="edge25_Node000001_Node000020" class="edge">
<title>Node1&#45;&gt;Node20</title>
<g id="a_edge25_Node000001_Node000020"><a xlink:title=" ">
<path fill="none" stroke="#63b8ff" d="M285.4,-315.89C273.64,-310.45 259.88,-304.09 249.08,-299.09"/>
<polygon fill="#63b8ff" stroke="#63b8ff" points="284.15,-319.17 294.69,-320.19 287.09,-312.82 284.15,-319.17"/>
</a>
</g>
</g>
<!-- Node21 -->
<g id="Node000021" class="node">
<title>Node21</title>
<g id="a_Node000021"><a xlink:href="../../d3/d61/classchdr_1_1heap_ab3bf20f6c00b1d3c85593ed5a5c4c3a1.html#ab3bf20f6c00b1d3c85593ed5a5c4c3a1" target="_top" xlink:title="Adjusts the position of an item in the heap by moving it upwards towards the root.">
<polygon fill="white" stroke="#666666" points="253,-157 206,-157 206,-140 253,-140 253,-157"/>
<text text-anchor="middle" x="229.5" y="-146.6" font-family="Helvetica,sans-Serif" font-size="8.00">sort_up</text>
</a>
</g>
</g>
<!-- Node1&#45;&gt;Node21 -->
<g id="edge32_Node000001_Node000021" class="edge">
<title>Node1&#45;&gt;Node21</title>
<g id="a_edge32_Node000001_Node000021"><a xlink:title=" ">
<path fill="none" stroke="#63b8ff" d="M303.75,-309.28C294.42,-284.55 276.74,-239.11 259,-201.5 251.51,-185.63 241.58,-167.76 235.63,-157.36"/>
<polygon fill="#63b8ff" stroke="#63b8ff" points="300.53,-310.67 307.31,-318.81 307.09,-308.22 300.53,-310.67"/>
</a>
</g>
</g>
<!-- Node5&#45;&gt;Node2 -->
<g id="edge5_Node000005_Node000002" class="edge">
<title>Node5&#45;&gt;Node2</title>
<g id="a_edge5_Node000005_Node000002"><a xlink:title=" ">
<path fill="none" stroke="#63b8ff" d="M215.12,-472.23C202.73,-457.72 183.35,-436.37 164,-420.5 157.51,-415.18 149.72,-410.11 143,-406.09"/>
<polygon fill="#63b8ff" stroke="#63b8ff" points="212.45,-474.49 221.56,-479.9 217.81,-469.99 212.45,-474.49"/>
</a>
</g>
</g>
<!-- Node5&#45;&gt;Node3 -->
<g id="edge6_Node000005_Node000003" class="edge">
<title>Node5&#45;&gt;Node3</title>
<g id="a_edge6_Node000005_Node000003"><a xlink:title=" ">
<path fill="none" stroke="#63b8ff" d="M221.53,-470.41C211.76,-447.05 191.98,-406.32 164,-380.5 158.81,-375.71 152.1,-371.91 145.86,-369.07"/>
<polygon fill="#63b8ff" stroke="#63b8ff" points="218.33,-471.84 225.31,-479.81 224.83,-469.23 218.33,-471.84"/>
</a>
</g>
</g>
<!-- Node5&#45;&gt;Node4 -->
<g id="edge10_Node000005_Node000004" class="edge">
<title>Node5&#45;&gt;Node4</title>
<g id="a_edge10_Node000005_Node000004"><a xlink:title=" ">
<path fill="none" stroke="#63b8ff" d="M207.34,-474.25C178.78,-456.96 127.08,-432.67 89,-454.5 51.61,-475.93 34.76,-529.88 29.45,-550.92"/>
<polygon fill="#63b8ff" stroke="#63b8ff" points="205.76,-477.39 216.09,-479.77 209.5,-471.47 205.76,-477.39"/>
</a>
</g>
</g>
<!-- Node6 -->
<g id="Node000006" class="node">
<title>Node6</title>
<g id="a_Node000006"><a xlink:href="../../d3/d61/classchdr_1_1heap_ade547b1803d6a18f179000b440e7ac01.html#ade547b1803d6a18f179000b440e7ac01" target="_top" xlink:title="Retrieves a constant reference to the last element in the heap container.">
<polygon fill="white" stroke="#666666" points="144.5,-550 108.5,-550 108.5,-533 144.5,-533 144.5,-550"/>
<text text-anchor="middle" x="126.5" y="-539.6" font-family="Helvetica,sans-Serif" font-size="8.00">back</text>
</a>
</g>
</g>
<!-- Node5&#45;&gt;Node6 -->
<g id="edge7_Node000005_Node000006" class="edge">
<title>Node5&#45;&gt;Node6</title>
<g id="a_edge7_Node000005_Node000006"><a xlink:title=" ">
<path fill="none" stroke="#63b8ff" d="M204.81,-502.27C192.72,-509.16 177.7,-517.5 164,-524.5 157.78,-527.68 150.84,-530.97 144.71,-533.8"/>
<polygon fill="#63b8ff" stroke="#63b8ff" points="206.88,-505.12 213.81,-497.1 203.39,-499.05 206.88,-505.12"/>
</a>
</g>
</g>
<!-- Node7 -->
<g id="Node000007" class="node">
<title>Node7</title>
<g id="a_Node000007"><a xlink:href="../../d3/d61/classchdr_1_1heap_a7637c774c4326957055fa9634f92f728.html#a7637c774c4326957055fa9634f92f728" target="_top" xlink:title="Retrieves a reference to the last element in the heap container.">
<polygon fill="white" stroke="#666666" points="144.5,-515 108.5,-515 108.5,-498 144.5,-498 144.5,-515"/>
<text text-anchor="middle" x="126.5" y="-504.6" font-family="Helvetica,sans-Serif" font-size="8.00">back</text>
</a>
</g>
</g>
<!-- Node5&#45;&gt;Node7 -->
<g id="edge8_Node000005_Node000007" class="edge">
<title>Node5&#45;&gt;Node7</title>
<g id="a_edge8_Node000005_Node000007"><a xlink:title=" ">
<path fill="none" stroke="#63b8ff" d="M197.76,-493.98C180.29,-497.09 159.07,-500.87 144.55,-503.46"/>
<polygon fill="#63b8ff" stroke="#63b8ff" points="198.83,-497.34 208.06,-492.14 197.6,-490.45 198.83,-497.34"/>
</a>
</g>
</g>
<!-- Node8 -->
<g id="Node000008" class="node">
<title>Node8</title>
<g id="a_Node000008"><a xlink:href="../../d3/d61/classchdr_1_1heap_aec43d6ff800e89019bacb468a3ca4c2b.html#aec43d6ff800e89019bacb468a3ca4c2b" target="_top" xlink:title="Checks whether the specified item exists in the heap container.">
<polygon fill="white" stroke="#666666" points="152.5,-480 100.5,-480 100.5,-463 152.5,-463 152.5,-480"/>
<text text-anchor="middle" x="126.5" y="-469.6" font-family="Helvetica,sans-Serif" font-size="8.00">contains</text>
</a>
</g>
</g>
<!-- Node5&#45;&gt;Node8 -->
<g id="edge9_Node000005_Node000008" class="edge">
<title>Node5&#45;&gt;Node8</title>
<g id="a_edge9_Node000005_Node000008"><a xlink:title=" ">
<path fill="none" stroke="#63b8ff" d="M198.03,-483.37C183.5,-480.93 166.32,-478.03 152.56,-475.72"/>
<polygon fill="#63b8ff" stroke="#63b8ff" points="197.62,-486.85 208.06,-485.06 198.78,-479.95 197.62,-486.85"/>
</a>
</g>
</g>
<!-- Node5&#45;&gt;Node9 -->
<g id="edge11_Node000005_Node000009" class="edge">
<title>Node5&#45;&gt;Node9</title>
<g id="a_edge11_Node000005_Node000009"><a xlink:title=" ">
<path fill="none" stroke="#63b8ff" d="M223.3,-470.05C213.68,-437.1 191.58,-366.37 164,-310.5 155.05,-292.38 141.65,-272.88 133.82,-262.03"/>
<polygon fill="#63b8ff" stroke="#63b8ff" points="219.94,-471.05 226.07,-479.7 226.67,-469.12 219.94,-471.05"/>
</a>
</g>
</g>
<!-- Node11 -->
<g id="Node000011" class="node">
<title>Node11</title>
<g id="a_Node000011"><a xlink:href="../../d3/d61/classchdr_1_1heap_a2adc794fbb932e87602833ccd8c84e67.html#a2adc794fbb932e87602833ccd8c84e67" target="_top" xlink:title="Finds the first element in the heap not less than the specified value.">
<polygon fill="white" stroke="#666666" points="163.5,-690 89.5,-690 89.5,-673 163.5,-673 163.5,-690"/>
<text text-anchor="middle" x="126.5" y="-679.6" font-family="Helvetica,sans-Serif" font-size="8.00">lower_bounds</text>
</a>
</g>
</g>
<!-- Node5&#45;&gt;Node11 -->
<g id="edge13_Node000005_Node000011" class="edge">
<title>Node5&#45;&gt;Node11</title>
<g id="a_edge13_Node000005_Node000011"><a xlink:title=" ">
<path fill="none" stroke="#63b8ff" d="M226.37,-507.23C221.46,-542.28 206.33,-618.43 164,-664.5 160.88,-667.9 156.94,-670.67 152.81,-672.92"/>
<polygon fill="#63b8ff" stroke="#63b8ff" points="229.88,-507.38 227.67,-497.02 222.93,-506.5 229.88,-507.38"/>
</a>
</g>
</g>
<!-- Node5&#45;&gt;Node12 -->
<g id="edge14_Node000005_Node000012" class="edge">
<title>Node5&#45;&gt;Node12</title>
<g id="a_edge14_Node000005_Node000012"><a xlink:title=" ">
<path fill="none" stroke="#63b8ff" d="M224.49,-470.12C217.17,-440.48 199.07,-381.8 164,-345.5 158.21,-339.5 150,-335.21 142.83,-332.33"/>
<polygon fill="#63b8ff" stroke="#63b8ff" points="221.1,-471 226.78,-479.95 227.91,-469.42 221.1,-471"/>
</a>
</g>
</g>
<!-- Node13 -->
<g id="Node000013" class="node">
<title>Node13</title>
<g id="a_Node000013"><a xlink:href="../../d3/d61/classchdr_1_1heap_a90957d02dbdc1afa0c6dc61861842f4e.html#a90957d02dbdc1afa0c6dc61861842f4e" target="_top" xlink:title="Removes the last element from the heap.">
<polygon fill="white" stroke="#666666" points="154.5,-655 98.5,-655 98.5,-638 154.5,-638 154.5,-655"/>
<text text-anchor="middle" x="126.5" y="-644.6" font-family="Helvetica,sans-Serif" font-size="8.00">pop_back</text>
</a>
</g>
</g>
<!-- Node5&#45;&gt;Node13 -->
<g id="edge15_Node000005_Node000013" class="edge">
<title>Node5&#45;&gt;Node13</title>
<g id="a_edge15_Node000005_Node000013"><a xlink:title=" ">
<path fill="none" stroke="#63b8ff" d="M224.4,-507.14C217.04,-536.62 198.99,-594.27 164,-629.5 160.65,-632.87 156.5,-635.65 152.22,-637.92"/>
<polygon fill="#63b8ff" stroke="#63b8ff" points="227.82,-507.86 226.71,-497.32 221.01,-506.25 227.82,-507.86"/>
</a>
</g>
</g>
<!-- Node14 -->
<g id="Node000014" class="node">
<title>Node14</title>
<g id="a_Node000014"><a xlink:href="../../d3/d61/classchdr_1_1heap_a39b39a0753d600546b92d146681c30f5.html#a39b39a0753d600546b92d146681c30f5" target="_top" xlink:title="Retrieves a constant element to the top element of the heap.">
<polygon fill="white" stroke="#666666" points="141.5,-620 111.5,-620 111.5,-603 141.5,-603 141.5,-620"/>
<text text-anchor="middle" x="126.5" y="-609.6" font-family="Helvetica,sans-Serif" font-size="8.00">top</text>
</a>
</g>
</g>
<!-- Node5&#45;&gt;Node14 -->
<g id="edge16_Node000005_Node000014" class="edge">
<title>Node5&#45;&gt;Node14</title>
<g id="a_edge16_Node000005_Node000014"><a xlink:title=" ">
<path fill="none" stroke="#63b8ff" d="M221.53,-506.34C211.76,-529.38 191.98,-569.46 164,-594.5 157.65,-600.19 149.06,-604.31 141.81,-607.08"/>
<polygon fill="#63b8ff" stroke="#63b8ff" points="224.78,-507.66 225.32,-497.08 218.3,-505.01 224.78,-507.66"/>
</a>
</g>
</g>
<!-- Node15 -->
<g id="Node000015" class="node">
<title>Node15</title>
<g id="a_Node000015"><a xlink:href="../../d3/d61/classchdr_1_1heap_a20a753362275d34a67d855ce0105fab7.html#a20a753362275d34a67d855ce0105fab7" target="_top" xlink:title="Retrieves a reference to the top element of the heap.">
<polygon fill="white" stroke="#666666" points="141.5,-764 111.5,-764 111.5,-747 141.5,-747 141.5,-764"/>
<text text-anchor="middle" x="126.5" y="-753.6" font-family="Helvetica,sans-Serif" font-size="8.00">top</text>
</a>
</g>
</g>
<!-- Node5&#45;&gt;Node15 -->
<g id="edge17_Node000005_Node000015" class="edge">
<title>Node5&#45;&gt;Node15</title>
<g id="a_edge17_Node000005_Node000015"><a xlink:title=" ">
<path fill="none" stroke="#63b8ff" d="M224.63,-507.3C216.46,-544.96 195.6,-631.88 164,-699.5 155.65,-717.37 142.29,-736.2 134.26,-746.84"/>
<polygon fill="#63b8ff" stroke="#63b8ff" points="228.1,-507.77 226.75,-497.26 221.25,-506.32 228.1,-507.77"/>
</a>
</g>
</g>
<!-- Node18 -->
<g id="Node000018" class="node">
<title>Node18</title>
<g id="a_Node000018"><a xlink:href="../../d3/d61/classchdr_1_1heap_ae7e6fc4739ca4f4f74e4f8384106548e.html#ae7e6fc4739ca4f4f74e4f8384106548e" target="_top" xlink:title="Finds the first element in the heap greater than the specified value.">
<polygon fill="white" stroke="#666666" points="164,-585 89,-585 89,-568 164,-568 164,-585"/>
<text text-anchor="middle" x="126.5" y="-574.6" font-family="Helvetica,sans-Serif" font-size="8.00">upper_bounds</text>
</a>
</g>
</g>
<!-- Node5&#45;&gt;Node18 -->
<g id="edge21_Node000005_Node000018" class="edge">
<title>Node5&#45;&gt;Node18</title>
<g id="a_edge21_Node000005_Node000018"><a xlink:title=" ">
<path fill="none" stroke="#63b8ff" d="M216.12,-505.64C204.17,-521.25 184.85,-544.15 164,-559.5 159.61,-562.73 154.51,-565.57 149.53,-567.96"/>
<polygon fill="#63b8ff" stroke="#63b8ff" points="219.09,-507.51 222.26,-497.4 213.48,-503.33 219.09,-507.51"/>
</a>
</g>
</g>
<!-- Node10 -->
<g id="Node000010" class="node">
<title>Node10</title>
<g id="a_Node000010"><a xlink:href="../../d3/d61/classchdr_1_1heap_acb6d4e6f53bcd4c93d386def0bd8be31.html#acb6d4e6f53bcd4c93d386def0bd8be31" target="_top" xlink:title="Removes all elements in a given range from the heap while maintaining the heap property.">
<polygon fill="white" stroke="#666666" points="46.5,-262 6.5,-262 6.5,-245 46.5,-245 46.5,-262"/>
<text text-anchor="middle" x="26.5" y="-251.6" font-family="Helvetica,sans-Serif" font-size="8.00">erase</text>
</a>
</g>
</g>
<!-- Node9&#45;&gt;Node10 -->
<g id="edge12_Node000009_Node000010" class="edge">
<title>Node9&#45;&gt;Node10</title>
<g id="a_edge12_Node000009_Node000010"><a xlink:title=" ">
<path fill="none" stroke="#63b8ff" d="M95.76,-253.5C79.87,-253.5 60.77,-253.5 46.82,-253.5"/>
<polygon fill="#63b8ff" stroke="#63b8ff" points="96.14,-257 106.14,-253.5 96.14,-250 96.14,-257"/>
</a>
</g>
</g>
<!-- Node15&#45;&gt;Node4 -->
<g id="edge18_Node000015_Node000004" class="edge">
<title>Node15&#45;&gt;Node4</title>
<g id="a_edge18_Node000015_Node000004"><a xlink:title=" ">
<path fill="none" stroke="#63b8ff" d="M102.54,-744.31C97.56,-741.05 92.69,-737.1 89,-732.5 46.57,-679.49 32.17,-594.93 28.53,-568.02"/>
<polygon fill="#63b8ff" stroke="#63b8ff" points="100.98,-747.45 111.38,-749.43 104.48,-741.39 100.98,-747.45"/>
</a>
</g>
</g>
<!-- Node16 -->
<g id="Node000016" class="node">
<title>Node16</title>
<g id="a_Node000016"><a xlink:href="../../d3/d61/classchdr_1_1heap_a66ae5a391f699d2e564c2545ab9c6d82.html#a66ae5a391f699d2e564c2545ab9c6d82" target="_top" xlink:title="Retrieves a constant reference to the front element of the heap.">
<polygon fill="white" stroke="#666666" points="44.5,-781 8.5,-781 8.5,-764 44.5,-764 44.5,-781"/>
<text text-anchor="middle" x="26.5" y="-770.6" font-family="Helvetica,sans-Serif" font-size="8.00">front</text>
</a>
</g>
</g>
<!-- Node15&#45;&gt;Node16 -->
<g id="edge19_Node000015_Node000016" class="edge">
<title>Node15&#45;&gt;Node16</title>
<g id="a_edge19_Node000015_Node000016"><a xlink:title=" ">
<path fill="none" stroke="#63b8ff" d="M101.41,-759.68C83.87,-762.72 60.54,-766.77 44.82,-769.5"/>
<polygon fill="#63b8ff" stroke="#63b8ff" points="102.2,-763.09 111.46,-757.94 101.01,-756.2 102.2,-763.09"/>
</a>
</g>
</g>
<!-- Node17 -->
<g id="Node000017" class="node">
<title>Node17</title>
<g id="a_Node000017"><a xlink:href="../../d3/d61/classchdr_1_1heap_acbf9b62bac7333654c7862dc8cfd1e48.html#acbf9b62bac7333654c7862dc8cfd1e48" target="_top" xlink:title="Retrieves a reference to the front element of the heap.">
<polygon fill="white" stroke="#666666" points="44.5,-746 8.5,-746 8.5,-729 44.5,-729 44.5,-746"/>
<text text-anchor="middle" x="26.5" y="-735.6" font-family="Helvetica,sans-Serif" font-size="8.00">front</text>
</a>
</g>
</g>
<!-- Node15&#45;&gt;Node17 -->
<g id="edge20_Node000015_Node000017" class="edge">
<title>Node15&#45;&gt;Node17</title>
<g id="a_edge20_Node000015_Node000017"><a xlink:title=" ">
<path fill="none" stroke="#63b8ff" d="M101.41,-751.08C83.87,-747.85 60.54,-743.57 44.82,-740.68"/>
<polygon fill="#63b8ff" stroke="#63b8ff" points="100.99,-754.56 111.46,-752.92 102.26,-747.67 100.99,-754.56"/>
</a>
</g>
</g>
<!-- Node20&#45;&gt;Node2 -->
<g id="edge26_Node000020_Node000002" class="edge">
<title>Node20&#45;&gt;Node2</title>
<g id="a_edge26_Node000020_Node000002"><a xlink:title=" ">
<path fill="none" stroke="#63b8ff" d="M219.62,-307.9C208.79,-327.69 188.81,-359.92 164,-380.5 158.62,-384.96 151.87,-388.53 145.65,-391.23"/>
<polygon fill="#63b8ff" stroke="#63b8ff" points="222.72,-309.53 224.31,-299.05 216.54,-306.25 222.72,-309.53"/>
</a>
</g>
</g>
<!-- Node20&#45;&gt;Node3 -->
<g id="edge27_Node000020_Node000003" class="edge">
<title>Node20&#45;&gt;Node3</title>
<g id="a_edge27_Node000020_Node000003"><a xlink:title=" ">
<path fill="none" stroke="#63b8ff" d="M212.6,-306.2C200.1,-317.99 181.88,-334.02 164,-345.5 158.35,-349.13 151.81,-352.42 145.83,-355.13"/>
<polygon fill="#63b8ff" stroke="#63b8ff" points="215.15,-308.61 219.92,-299.16 210.29,-303.57 215.15,-308.61"/>
</a>
</g>
</g>
<!-- Node20&#45;&gt;Node4 -->
<g id="edge28_Node000020_Node000004" class="edge">
<title>Node20&#45;&gt;Node4</title>
<g id="a_edge28_Node000020_Node000004"><a xlink:title=" ">
<path fill="none" stroke="#63b8ff" d="M189.73,-285.23C158.68,-283.29 115.97,-286.09 89,-310.5 51.86,-344.11 32.5,-510.99 28.35,-550.91"/>
<polygon fill="#63b8ff" stroke="#63b8ff" points="189.53,-288.72 199.78,-286.04 190.1,-281.75 189.53,-288.72"/>
</a>
</g>
</g>
<!-- Node20&#45;&gt;Node9 -->
<g id="edge29_Node000020_Node000009" class="edge">
<title>Node20&#45;&gt;Node9</title>
<g id="a_edge29_Node000020_Node000009"><a xlink:title=" ">
<path fill="none" stroke="#63b8ff" d="M195.45,-278.39C179.32,-272.48 160.48,-265.58 146.74,-260.55"/>
<polygon fill="#63b8ff" stroke="#63b8ff" points="194.48,-281.76 205.07,-281.92 196.89,-275.19 194.48,-281.76"/>
</a>
</g>
</g>
<!-- Node20&#45;&gt;Node12 -->
<g id="edge31_Node000020_Node000012" class="edge">
<title>Node20&#45;&gt;Node12</title>
<g id="a_edge31_Node000020_Node000012"><a xlink:title=" ">
<path fill="none" stroke="#63b8ff" d="M195.58,-302.56C177.76,-309.09 156.59,-316.84 142.65,-321.95"/>
<polygon fill="#63b8ff" stroke="#63b8ff" points="196.89,-305.81 205.07,-299.08 194.48,-299.24 196.89,-305.81"/>
</a>
</g>
</g>
<!-- Node20&#45;&gt;Node19 -->
<g id="edge30_Node000020_Node000019" class="edge">
<title>Node20&#45;&gt;Node19</title>
<g id="a_edge30_Node000020_Node000019"><a xlink:title=" ">
<path fill="none" stroke="#63b8ff" d="M212.6,-274.8C200.1,-263.01 181.88,-246.98 164,-235.5 158.59,-232.02 152.35,-228.85 146.58,-226.21"/>
<polygon fill="#63b8ff" stroke="#63b8ff" points="210.29,-277.43 219.92,-281.84 215.15,-272.39 210.29,-277.43"/>
</a>
</g>
</g>
<!-- Node21&#45;&gt;Node9 -->
<g id="edge35_Node000021_Node000009" class="edge">
<title>Node21&#45;&gt;Node9</title>
<g id="a_edge35_Node000021_Node000009"><a xlink:title=" ">
<path fill="none" stroke="#63b8ff" d="M218.91,-166.06C207.78,-185.15 187.85,-215.6 164,-235.5 158.9,-239.76 152.63,-243.31 146.72,-246.11"/>
<polygon fill="#63b8ff" stroke="#63b8ff" points="222.03,-167.65 223.91,-157.22 215.94,-164.21 222.03,-167.65"/>
</a>
</g>
</g>
<!-- Node21&#45;&gt;Node19 -->
<g id="edge36_Node000021_Node000019" class="edge">
<title>Node21&#45;&gt;Node19</title>
<g id="a_edge36_Node000021_Node000019"><a xlink:title=" ">
<path fill="none" stroke="#63b8ff" d="M211.16,-164.24C198.61,-175.18 180.94,-189.68 164,-200.5 158.52,-204 152.27,-207.31 146.5,-210.11"/>
<polygon fill="#63b8ff" stroke="#63b8ff" points="213.8,-166.57 218.96,-157.32 209.15,-161.34 213.8,-166.57"/>
</a>
</g>
</g>
<!-- Node22 -->
<g id="Node000022" class="node">
<title>Node22</title>
<g id="a_Node000022"><a xlink:href="../../d3/d61/classchdr_1_1heap_add55c8b8d3e3d6419e57210d3313fd09.html#add55c8b8d3e3d6419e57210d3313fd09" target="_top" xlink:title="Adds a new element to the heap container using perfect forwarding.">
<polygon fill="white" stroke="#666666" points="152.5,-52 100.5,-52 100.5,-35 152.5,-35 152.5,-52"/>
<text text-anchor="middle" x="126.5" y="-41.6" font-family="Helvetica,sans-Serif" font-size="8.00">emplace</text>
</a>
</g>
</g>
<!-- Node21&#45;&gt;Node22 -->
<g id="edge33_Node000021_Node000022" class="edge">
<title>Node21&#45;&gt;Node22</title>
<g id="a_edge33_Node000021_Node000022"><a xlink:title=" ">
<path fill="none" stroke="#63b8ff" d="M219.21,-130.93C208.23,-111.55 188.32,-80.45 164,-60.5 160,-57.22 155.26,-54.41 150.55,-52.08"/>
<polygon fill="#63b8ff" stroke="#63b8ff" points="216.25,-132.8 224.12,-139.88 222.38,-129.43 216.25,-132.8"/>
</a>
</g>
</g>
<!-- Node24 -->
<g id="Node000024" class="node">
<title>Node24</title>
<g id="a_Node000024"><a xlink:href="../../d3/d61/classchdr_1_1heap_a5a2024fa8b956ddb73b0dff9565468f2.html#a5a2024fa8b956ddb73b0dff9565468f2" target="_top" xlink:title="Inserts a range of elements into the heap.">
<polygon fill="white" stroke="#666666" points="146.5,-17 106.5,-17 106.5,0 146.5,0 146.5,-17"/>
<text text-anchor="middle" x="126.5" y="-6.6" font-family="Helvetica,sans-Serif" font-size="8.00">insert</text>
</a>
</g>
</g>
<!-- Node21&#45;&gt;Node24 -->
<g id="edge37_Node000021_Node000024" class="edge">
<title>Node21&#45;&gt;Node24</title>
<g id="a_edge37_Node000021_Node000024"><a xlink:title=" ">
<path fill="none" stroke="#63b8ff" d="M223.03,-130.06C214.4,-103.76 195.29,-55.35 164,-25.5 159.14,-20.87 152.8,-17.32 146.76,-14.69"/>
<polygon fill="#63b8ff" stroke="#63b8ff" points="219.77,-131.36 226.1,-139.86 226.46,-129.27 219.77,-131.36"/>
</a>
</g>
</g>
<!-- Node25 -->
<g id="Node000025" class="node">
<title>Node25</title>
<g id="a_Node000025"><a xlink:href="../../d3/d61/classchdr_1_1heap_a5dfd7f9a4ad6a51dfb81d4da0f5ec261.html#a5dfd7f9a4ad6a51dfb81d4da0f5ec261" target="_top" xlink:title="Inserts an element into the heap while maintaining the heap property.">
<polygon fill="white" stroke="#666666" points="146.5,-192 106.5,-192 106.5,-175 146.5,-175 146.5,-192"/>
<text text-anchor="middle" x="126.5" y="-181.6" font-family="Helvetica,sans-Serif" font-size="8.00">insert</text>
</a>
</g>
</g>
<!-- Node21&#45;&gt;Node25 -->
<g id="edge38_Node000021_Node000025" class="edge">
<title>Node21&#45;&gt;Node25</title>
<g id="a_edge38_Node000021_Node000025"><a xlink:title=" ">
<path fill="none" stroke="#63b8ff" d="M196.14,-159.72C179.84,-165.36 160.64,-172.02 146.7,-176.85"/>
<polygon fill="#63b8ff" stroke="#63b8ff" points="197.53,-162.94 205.83,-156.35 195.24,-156.32 197.53,-162.94"/>
</a>
</g>
</g>
<!-- Node26 -->
<g id="Node000026" class="node">
<title>Node26</title>
<g id="a_Node000026"><a xlink:href="../../d3/d61/classchdr_1_1heap_a45a566405e1e982fe89c9eab9315e0ce.html#a45a566405e1e982fe89c9eab9315e0ce" target="_top" xlink:title="Moves an element into the heap while maintaining the heap property.">
<polygon fill="white" stroke="#666666" points="146.5,-157 106.5,-157 106.5,-140 146.5,-140 146.5,-157"/>
<text text-anchor="middle" x="126.5" y="-146.6" font-family="Helvetica,sans-Serif" font-size="8.00">insert</text>
</a>
</g>
</g>
<!-- Node21&#45;&gt;Node26 -->
<g id="edge39_Node000021_Node000026" class="edge">
<title>Node21&#45;&gt;Node26</title>
<g id="a_edge39_Node000021_Node000026"><a xlink:title=" ">
<path fill="none" stroke="#63b8ff" d="M195.67,-148.5C179.48,-148.5 160.51,-148.5 146.7,-148.5"/>
<polygon fill="#63b8ff" stroke="#63b8ff" points="195.83,-152 205.83,-148.5 195.83,-145 195.83,-152"/>
</a>
</g>
</g>
<!-- Node27 -->
<g id="Node000027" class="node">
<title>Node27</title>
<g id="a_Node000027"><a xlink:href="../../d3/d61/classchdr_1_1heap_afb62bdc27151ccbc8d7d8ceb30c24d6e.html#afb62bdc27151ccbc8d7d8ceb30c24d6e" target="_top" xlink:title="Adds an item to the heap.">
<polygon fill="white" stroke="#666666" points="145,-122 108,-122 108,-105 145,-105 145,-122"/>
<text text-anchor="middle" x="126.5" y="-111.6" font-family="Helvetica,sans-Serif" font-size="8.00">push</text>
</a>
</g>
</g>
<!-- Node21&#45;&gt;Node27 -->
<g id="edge40_Node000021_Node000027" class="edge">
<title>Node21&#45;&gt;Node27</title>
<g id="a_edge40_Node000021_Node000027"><a xlink:title=" ">
<path fill="none" stroke="#63b8ff" d="M196.28,-137.33C179.31,-131.45 159.16,-124.47 145.07,-119.59"/>
<polygon fill="#63b8ff" stroke="#63b8ff" points="195.24,-140.68 205.83,-140.65 197.53,-134.06 195.24,-140.68"/>
</a>
</g>
</g>
<!-- Node29 -->
<g id="Node000029" class="node">
<title>Node29</title>
<g id="a_Node000029"><a xlink:href="../../d3/d61/classchdr_1_1heap_a10d3601db17d387e5fb4e8b45c2304e0.html#a10d3601db17d387e5fb4e8b45c2304e0" target="_top" xlink:title="Adds an item to the heap using move semantics.">
<polygon fill="white" stroke="#666666" points="145,-87 108,-87 108,-70 145,-70 145,-87"/>
<text text-anchor="middle" x="126.5" y="-76.6" font-family="Helvetica,sans-Serif" font-size="8.00">push</text>
</a>
</g>
</g>
<!-- Node21&#45;&gt;Node29 -->
<g id="edge42_Node000021_Node000029" class="edge">
<title>Node21&#45;&gt;Node29</title>
<g id="a_edge42_Node000021_Node000029"><a xlink:title=" ">
<path fill="none" stroke="#63b8ff" d="M212.08,-133.03C199.54,-121.73 181.51,-106.52 164,-95.5 158.08,-91.78 151.22,-88.37 145.05,-85.6"/>
<polygon fill="#63b8ff" stroke="#63b8ff" points="209.72,-135.62 219.46,-139.81 214.46,-130.46 209.72,-135.62"/>
</a>
</g>
</g>
<!-- Node23 -->
<g id="Node000023" class="node">
<title>Node23</title>
<g id="a_Node000023"><a xlink:href="../../d3/d61/classchdr_1_1heap_a3158f1bf4c4c1af0c65d6de220dd92d2.html#a3158f1bf4c4c1af0c65d6de220dd92d2" target="_top" xlink:title="Adds a new element to the heap container using perfect forwarding.">
<polygon fill="white" stroke="#666666" points="53,-52 0,-52 0,-35 53,-35 53,-52"/>
<text text-anchor="middle" x="26.5" y="-41.6" font-family="Helvetica,sans-Serif" font-size="8.00">enqueue</text>
</a>
</g>
</g>
<!-- Node22&#45;&gt;Node23 -->
<g id="edge34_Node000022_Node000023" class="edge">
<title>Node22&#45;&gt;Node23</title>
<g id="a_edge34_Node000022_Node000023"><a xlink:title=" ">
<path fill="none" stroke="#63b8ff" d="M90,-43.5C77.87,-43.5 64.55,-43.5 53.33,-43.5"/>
<polygon fill="#63b8ff" stroke="#63b8ff" points="90.26,-47 100.26,-43.5 90.26,-40 90.26,-47"/>
</a>
</g>
</g>
<!-- Node28 -->
<g id="Node000028" class="node">
<title>Node28</title>
<g id="a_Node000028"><a xlink:href="../../d3/d61/classchdr_1_1heap_a5ac97b41f6cd96503adb0f7a3807cbe5.html#a5ac97b41f6cd96503adb0f7a3807cbe5" target="_top" xlink:title="Adds an item to the heap.">
<polygon fill="white" stroke="#666666" points="53,-122 0,-122 0,-105 53,-105 53,-122"/>
<text text-anchor="middle" x="26.5" y="-111.6" font-family="Helvetica,sans-Serif" font-size="8.00">enqueue</text>
</a>
</g>
</g>
<!-- Node27&#45;&gt;Node28 -->
<g id="edge41_Node000027_Node000028" class="edge">
<title>Node27&#45;&gt;Node28</title>
<g id="a_edge41_Node000027_Node000028"><a xlink:title=" ">
<path fill="none" stroke="#63b8ff" d="M97.95,-113.5C83.97,-113.5 67.08,-113.5 53.35,-113.5"/>
<polygon fill="#63b8ff" stroke="#63b8ff" points="97.98,-117 107.98,-113.5 97.98,-110 97.98,-117"/>
</a>
</g>
</g>
</g>
</svg>
