<?xml version="1.0" encoding="UTF-8" standalone="no"?>
<!DOCTYPE svg PUBLIC "-//W3C//DTD SVG 1.1//EN"
 "http://www.w3.org/Graphics/SVG/1.1/DTD/svg11.dtd">
<!-- Generated by graphviz version 2.43.0 (0)
 -->
<!-- Title: empty Pages: 1 -->
<svg width="250pt" height="449pt"
 viewBox="0.00 0.00 250.00 449.00" xmlns="http://www.w3.org/2000/svg" xmlns:xlink="http://www.w3.org/1999/xlink">
<g id="graph0" class="graph" transform="scale(1 1) rotate(0) translate(4 445)">
<title>empty</title>
<!-- Node1 -->
<g id="Node000001" class="node">
<title>Node1</title>
<g id="a_Node000001"><a xlink:title="Checks if the heap is empty.">
<polygon fill="#999999" stroke="#666666" points="242,-229 200,-229 200,-212 242,-212 242,-229"/>
<text text-anchor="middle" x="221" y="-218.6" font-family="Helvetica,sans-Serif" font-size="8.00">empty</text>
</a>
</g>
</g>
<!-- Node2 -->
<g id="Node000002" class="node">
<title>Node2</title>
<g id="a_Node000002"><a xlink:href="../../d3/d61/classchdr_1_1heap_adf4e3bffff56ce9f6c2ca6a36d40a725.html#adf4e3bffff56ce9f6c2ca6a36d40a725" target="_top" xlink:title="Constructs a heap from a collection of elements.">
<polygon fill="white" stroke="#666666" points="145.5,-441 107.5,-441 107.5,-424 145.5,-424 145.5,-441"/>
<text text-anchor="middle" x="126.5" y="-430.6" font-family="Helvetica,sans-Serif" font-size="8.00">heap</text>
</a>
</g>
</g>
<!-- Node1&#45;&gt;Node2 -->
<g id="edge1_Node000001_Node000002" class="edge">
<title>Node1&#45;&gt;Node2</title>
<g id="a_edge1_Node000001_Node000002"><a xlink:title=" ">
<path fill="none" stroke="#63b8ff" d="M219.6,-239.11C217.83,-276.82 208.8,-363.09 164,-415.5 159.28,-421.03 152.37,-424.87 145.83,-427.48"/>
<polygon fill="#63b8ff" stroke="#63b8ff" points="223.1,-239.17 219.95,-229.06 216.1,-238.93 223.1,-239.17"/>
</a>
</g>
</g>
<!-- Node3 -->
<g id="Node000003" class="node">
<title>Node3</title>
<g id="a_Node000003"><a xlink:href="../../d3/d61/classchdr_1_1heap_a115a6b02da0ef70b6e9cf66736b45b27.html#a115a6b02da0ef70b6e9cf66736b45b27" target="_top" xlink:title="Constructs a heap from a collection of elements with move semantics.">
<polygon fill="white" stroke="#666666" points="145.5,-406 107.5,-406 107.5,-389 145.5,-389 145.5,-406"/>
<text text-anchor="middle" x="126.5" y="-395.6" font-family="Helvetica,sans-Serif" font-size="8.00">heap</text>
</a>
</g>
</g>
<!-- Node1&#45;&gt;Node3 -->
<g id="edge2_Node000001_Node000003" class="edge">
<title>Node1&#45;&gt;Node3</title>
<g id="a_edge2_Node000001_Node000003"><a xlink:title=" ">
<path fill="none" stroke="#63b8ff" d="M218.16,-239.3C214.03,-271.89 201.28,-339.32 164,-380.5 159.12,-385.89 152.18,-389.71 145.66,-392.34"/>
<polygon fill="#63b8ff" stroke="#63b8ff" points="221.64,-239.66 219.28,-229.33 214.68,-238.87 221.64,-239.66"/>
</a>
</g>
</g>
<!-- Node4 -->
<g id="Node000004" class="node">
<title>Node4</title>
<g id="a_Node000004"><a xlink:href="../../d3/d61/classchdr_1_1heap_ade547b1803d6a18f179000b440e7ac01.html#ade547b1803d6a18f179000b440e7ac01" target="_top" xlink:title="Retrieves a constant reference to the last element in the heap container.">
<polygon fill="white" stroke="#666666" points="144.5,-371 108.5,-371 108.5,-354 144.5,-354 144.5,-371"/>
<text text-anchor="middle" x="126.5" y="-360.6" font-family="Helvetica,sans-Serif" font-size="8.00">back</text>
</a>
</g>
</g>
<!-- Node1&#45;&gt;Node4 -->
<g id="edge3_Node000001_Node000004" class="edge">
<title>Node1&#45;&gt;Node4</title>
<g id="a_edge3_Node000001_Node000004"><a xlink:title=" ">
<path fill="none" stroke="#63b8ff" d="M216,-239.23C209.42,-265.94 193.94,-315.12 164,-345.5 158.7,-350.88 151.38,-354.74 144.68,-357.42"/>
<polygon fill="#63b8ff" stroke="#63b8ff" points="219.46,-239.8 218.29,-229.27 212.64,-238.23 219.46,-239.8"/>
</a>
</g>
</g>
<!-- Node5 -->
<g id="Node000005" class="node">
<title>Node5</title>
<g id="a_Node000005"><a xlink:href="../../d3/d61/classchdr_1_1heap_a7637c774c4326957055fa9634f92f728.html#a7637c774c4326957055fa9634f92f728" target="_top" xlink:title="Retrieves a reference to the last element in the heap container.">
<polygon fill="white" stroke="#666666" points="144.5,-336 108.5,-336 108.5,-319 144.5,-319 144.5,-336"/>
<text text-anchor="middle" x="126.5" y="-325.6" font-family="Helvetica,sans-Serif" font-size="8.00">back</text>
</a>
</g>
</g>
<!-- Node1&#45;&gt;Node5 -->
<g id="edge4_Node000001_Node000005" class="edge">
<title>Node1&#45;&gt;Node5</title>
<g id="a_edge4_Node000001_Node000005"><a xlink:title=" ">
<path fill="none" stroke="#63b8ff" d="M212.6,-238.49C203.65,-258.36 186.88,-290.22 164,-310.5 158.45,-315.41 151.24,-319.17 144.7,-321.89"/>
<polygon fill="#63b8ff" stroke="#63b8ff" points="215.92,-239.64 216.66,-229.07 209.49,-236.87 215.92,-239.64"/>
</a>
</g>
</g>
<!-- Node6 -->
<g id="Node000006" class="node">
<title>Node6</title>
<g id="a_Node000006"><a xlink:href="../../d3/d61/classchdr_1_1heap_aec43d6ff800e89019bacb468a3ca4c2b.html#aec43d6ff800e89019bacb468a3ca4c2b" target="_top" xlink:title="Checks whether the specified item exists in the heap container.">
<polygon fill="white" stroke="#666666" points="152.5,-301 100.5,-301 100.5,-284 152.5,-284 152.5,-301"/>
<text text-anchor="middle" x="126.5" y="-290.6" font-family="Helvetica,sans-Serif" font-size="8.00">contains</text>
</a>
</g>
</g>
<!-- Node1&#45;&gt;Node6 -->
<g id="edge5_Node000001_Node000006" class="edge">
<title>Node1&#45;&gt;Node6</title>
<g id="a_edge5_Node000001_Node000006"><a xlink:title=" ">
<path fill="none" stroke="#63b8ff" d="M205.95,-237.04C195.31,-248.84 179.86,-264.51 164,-275.5 159.4,-278.69 154.12,-281.54 149.02,-283.96"/>
<polygon fill="#63b8ff" stroke="#63b8ff" points="208.82,-239.08 212.79,-229.25 203.56,-234.46 208.82,-239.08"/>
</a>
</g>
</g>
<!-- Node7 -->
<g id="Node000007" class="node">
<title>Node7</title>
<g id="a_Node000007"><a xlink:href="../../d3/d61/classchdr_1_1heap_acc864476d3a1311f187c3290d0b161aa.html#acc864476d3a1311f187c3290d0b161aa" target="_top" xlink:title="Removes and returns the top element from the heap.">
<polygon fill="white" stroke="#666666" points="53,-158 0,-158 0,-141 53,-141 53,-158"/>
<text text-anchor="middle" x="26.5" y="-147.6" font-family="Helvetica,sans-Serif" font-size="8.00">dequeue</text>
</a>
</g>
</g>
<!-- Node1&#45;&gt;Node7 -->
<g id="edge6_Node000001_Node000007" class="edge">
<title>Node1&#45;&gt;Node7</title>
<g id="a_edge6_Node000001_Node000007"><a xlink:title=" ">
<path fill="none" stroke="#63b8ff" d="M189.81,-220.78C162.38,-219.98 121.38,-216.07 89,-201.5 66.3,-191.28 45.44,-170.13 34.83,-158.2"/>
<polygon fill="#63b8ff" stroke="#63b8ff" points="189.91,-224.28 199.97,-220.96 190.03,-217.28 189.91,-224.28"/>
</a>
</g>
</g>
<!-- Node8 -->
<g id="Node000008" class="node">
<title>Node8</title>
<g id="a_Node000008"><a xlink:href="../../d3/d61/classchdr_1_1heap_a5ff8da78f62646f1ca68dae37f04ed8f.html#a5ff8da78f62646f1ca68dae37f04ed8f" target="_top" xlink:title="Removes a specified item from the heap, restoring the heap property after removal.">
<polygon fill="white" stroke="#666666" points="146.5,-266 106.5,-266 106.5,-249 146.5,-249 146.5,-266"/>
<text text-anchor="middle" x="126.5" y="-255.6" font-family="Helvetica,sans-Serif" font-size="8.00">erase</text>
</a>
</g>
</g>
<!-- Node1&#45;&gt;Node8 -->
<g id="edge7_Node000001_Node000008" class="edge">
<title>Node1&#45;&gt;Node8</title>
<g id="a_edge7_Node000001_Node000008"><a xlink:title=" ">
<path fill="none" stroke="#63b8ff" d="M190.46,-232.32C176.09,-238.06 159.24,-244.81 146.58,-249.87"/>
<polygon fill="#63b8ff" stroke="#63b8ff" points="191.94,-235.49 199.93,-228.53 189.34,-228.99 191.94,-235.49"/>
</a>
</g>
</g>
<!-- Node10 -->
<g id="Node000010" class="node">
<title>Node10</title>
<g id="a_Node000010"><a xlink:href="../../d3/d61/classchdr_1_1heap_a2adc794fbb932e87602833ccd8c84e67.html#a2adc794fbb932e87602833ccd8c84e67" target="_top" xlink:title="Finds the first element in the heap not less than the specified value.">
<polygon fill="white" stroke="#666666" points="163.5,-192 89.5,-192 89.5,-175 163.5,-175 163.5,-192"/>
<text text-anchor="middle" x="126.5" y="-181.6" font-family="Helvetica,sans-Serif" font-size="8.00">lower_bounds</text>
</a>
</g>
</g>
<!-- Node1&#45;&gt;Node10 -->
<g id="edge9_Node000001_Node000010" class="edge">
<title>Node1&#45;&gt;Node10</title>
<g id="a_edge9_Node000001_Node000010"><a xlink:title=" ">
<path fill="none" stroke="#63b8ff" d="M190.53,-208.71C176.98,-203.29 161.2,-196.98 148.82,-192.03"/>
<polygon fill="#63b8ff" stroke="#63b8ff" points="189.34,-212.01 199.93,-212.47 191.94,-205.51 189.34,-212.01"/>
</a>
</g>
</g>
<!-- Node11 -->
<g id="Node000011" class="node">
<title>Node11</title>
<g id="a_Node000011"><a xlink:href="../../d3/d61/classchdr_1_1heap_a274dca2a1d2c68ff3249f37b3ae410d5.html#a274dca2a1d2c68ff3249f37b3ae410d5" target="_top" xlink:title="Removes the top element from the heap and maintains the heap property.">
<polygon fill="white" stroke="#666666" points="142.5,-157 110.5,-157 110.5,-140 142.5,-140 142.5,-157"/>
<text text-anchor="middle" x="126.5" y="-146.6" font-family="Helvetica,sans-Serif" font-size="8.00">pop</text>
</a>
</g>
</g>
<!-- Node1&#45;&gt;Node11 -->
<g id="edge10_Node000001_Node000011" class="edge">
<title>Node1&#45;&gt;Node11</title>
<g id="a_edge10_Node000001_Node000011"><a xlink:title=" ">
<path fill="none" stroke="#63b8ff" d="M205.82,-204.38C195.12,-192.86 179.65,-177.5 164,-166.5 157.41,-161.87 149.45,-157.79 142.65,-154.7"/>
<polygon fill="#63b8ff" stroke="#63b8ff" points="203.4,-206.92 212.71,-211.98 208.59,-202.22 203.4,-206.92"/>
</a>
</g>
</g>
<!-- Node12 -->
<g id="Node000012" class="node">
<title>Node12</title>
<g id="a_Node000012"><a xlink:href="../../d3/d61/classchdr_1_1heap_a90957d02dbdc1afa0c6dc61861842f4e.html#a90957d02dbdc1afa0c6dc61861842f4e" target="_top" xlink:title="Removes the last element from the heap.">
<polygon fill="white" stroke="#666666" points="154.5,-122 98.5,-122 98.5,-105 154.5,-105 154.5,-122"/>
<text text-anchor="middle" x="126.5" y="-111.6" font-family="Helvetica,sans-Serif" font-size="8.00">pop_back</text>
</a>
</g>
</g>
<!-- Node1&#45;&gt;Node12 -->
<g id="edge11_Node000001_Node000012" class="edge">
<title>Node1&#45;&gt;Node12</title>
<g id="a_edge11_Node000001_Node000012"><a xlink:title=" ">
<path fill="none" stroke="#63b8ff" d="M212.6,-202.51C203.65,-182.64 186.88,-150.78 164,-130.5 160.23,-127.16 155.7,-124.36 151.12,-122.05"/>
<polygon fill="#63b8ff" stroke="#63b8ff" points="209.49,-204.13 216.66,-211.93 215.92,-201.36 209.49,-204.13"/>
</a>
</g>
</g>
<!-- Node13 -->
<g id="Node000013" class="node">
<title>Node13</title>
<g id="a_Node000013"><a xlink:href="../../d3/d61/classchdr_1_1heap_a39b39a0753d600546b92d146681c30f5.html#a39b39a0753d600546b92d146681c30f5" target="_top" xlink:title="Retrieves a constant element to the top element of the heap.">
<polygon fill="white" stroke="#666666" points="141.5,-87 111.5,-87 111.5,-70 141.5,-70 141.5,-87"/>
<text text-anchor="middle" x="126.5" y="-76.6" font-family="Helvetica,sans-Serif" font-size="8.00">top</text>
</a>
</g>
</g>
<!-- Node1&#45;&gt;Node13 -->
<g id="edge12_Node000001_Node000013" class="edge">
<title>Node1&#45;&gt;Node13</title>
<g id="a_edge12_Node000001_Node000013"><a xlink:title=" ">
<path fill="none" stroke="#63b8ff" d="M216,-201.77C209.42,-175.06 193.94,-125.88 164,-95.5 157.92,-89.33 149.16,-85.14 141.75,-82.47"/>
<polygon fill="#63b8ff" stroke="#63b8ff" points="212.64,-202.77 218.29,-211.73 219.46,-201.2 212.64,-202.77"/>
</a>
</g>
</g>
<!-- Node14 -->
<g id="Node000014" class="node">
<title>Node14</title>
<g id="a_Node000014"><a xlink:href="../../d3/d61/classchdr_1_1heap_a20a753362275d34a67d855ce0105fab7.html#a20a753362275d34a67d855ce0105fab7" target="_top" xlink:title="Retrieves a reference to the top element of the heap.">
<polygon fill="white" stroke="#666666" points="141.5,-52 111.5,-52 111.5,-35 141.5,-35 141.5,-52"/>
<text text-anchor="middle" x="126.5" y="-41.6" font-family="Helvetica,sans-Serif" font-size="8.00">top</text>
</a>
</g>
</g>
<!-- Node1&#45;&gt;Node14 -->
<g id="edge13_Node000001_Node000014" class="edge">
<title>Node1&#45;&gt;Node14</title>
<g id="a_edge13_Node000001_Node000014"><a xlink:title=" ">
<path fill="none" stroke="#63b8ff" d="M218.16,-201.7C214.03,-169.11 201.28,-101.68 164,-60.5 158.09,-53.97 149.15,-49.75 141.6,-47.15"/>
<polygon fill="#63b8ff" stroke="#63b8ff" points="214.68,-202.13 219.28,-211.67 221.64,-201.34 214.68,-202.13"/>
</a>
</g>
</g>
<!-- Node17 -->
<g id="Node000017" class="node">
<title>Node17</title>
<g id="a_Node000017"><a xlink:href="../../d3/d61/classchdr_1_1heap_ae7e6fc4739ca4f4f74e4f8384106548e.html#ae7e6fc4739ca4f4f74e4f8384106548e" target="_top" xlink:title="Finds the first element in the heap greater than the specified value.">
<polygon fill="white" stroke="#666666" points="164,-17 89,-17 89,0 164,0 164,-17"/>
<text text-anchor="middle" x="126.5" y="-6.6" font-family="Helvetica,sans-Serif" font-size="8.00">upper_bounds</text>
</a>
</g>
</g>
<!-- Node1&#45;&gt;Node17 -->
<g id="edge17_Node000001_Node000017" class="edge">
<title>Node1&#45;&gt;Node17</title>
<g id="a_edge17_Node000001_Node000017"><a xlink:title=" ">
<path fill="none" stroke="#63b8ff" d="M219.6,-201.89C217.83,-164.18 208.8,-77.91 164,-25.5 161.09,-22.1 157.36,-19.34 153.39,-17.11"/>
<polygon fill="#63b8ff" stroke="#63b8ff" points="216.1,-202.07 219.95,-211.94 223.1,-201.83 216.1,-202.07"/>
</a>
</g>
</g>
<!-- Node9 -->
<g id="Node000009" class="node">
<title>Node9</title>
<g id="a_Node000009"><a xlink:href="../../d3/d61/classchdr_1_1heap_acb6d4e6f53bcd4c93d386def0bd8be31.html#acb6d4e6f53bcd4c93d386def0bd8be31" target="_top" xlink:title="Removes all elements in a given range from the heap while maintaining the heap property.">
<polygon fill="white" stroke="#666666" points="46.5,-266 6.5,-266 6.5,-249 46.5,-249 46.5,-266"/>
<text text-anchor="middle" x="26.5" y="-255.6" font-family="Helvetica,sans-Serif" font-size="8.00">erase</text>
</a>
</g>
</g>
<!-- Node8&#45;&gt;Node9 -->
<g id="edge8_Node000008_Node000009" class="edge">
<title>Node8&#45;&gt;Node9</title>
<g id="a_edge8_Node000008_Node000009"><a xlink:title=" ">
<path fill="none" stroke="#63b8ff" d="M95.76,-257.5C79.87,-257.5 60.77,-257.5 46.82,-257.5"/>
<polygon fill="#63b8ff" stroke="#63b8ff" points="96.14,-261 106.14,-257.5 96.14,-254 96.14,-261"/>
</a>
</g>
</g>
<!-- Node14&#45;&gt;Node7 -->
<g id="edge14_Node000014_Node000007" class="edge">
<title>Node14&#45;&gt;Node7</title>
<g id="a_edge14_Node000014_Node000007"><a xlink:title=" ">
<path fill="none" stroke="#63b8ff" d="M102.08,-52.15C97.47,-54.46 92.87,-57.23 89,-60.5 61.01,-84.12 39.98,-123.4 31.54,-140.77"/>
<polygon fill="#63b8ff" stroke="#63b8ff" points="103.59,-55.31 111.32,-48.08 100.76,-48.91 103.59,-55.31"/>
</a>
</g>
</g>
<!-- Node15 -->
<g id="Node000015" class="node">
<title>Node15</title>
<g id="a_Node000015"><a xlink:href="../../d3/d61/classchdr_1_1heap_a66ae5a391f699d2e564c2545ab9c6d82.html#a66ae5a391f699d2e564c2545ab9c6d82" target="_top" xlink:title="Retrieves a constant reference to the front element of the heap.">
<polygon fill="white" stroke="#666666" points="44.5,-69 8.5,-69 8.5,-52 44.5,-52 44.5,-69"/>
<text text-anchor="middle" x="26.5" y="-58.6" font-family="Helvetica,sans-Serif" font-size="8.00">front</text>
</a>
</g>
</g>
<!-- Node14&#45;&gt;Node15 -->
<g id="edge15_Node000014_Node000015" class="edge">
<title>Node14&#45;&gt;Node15</title>
<g id="a_edge15_Node000014_Node000015"><a xlink:title=" ">
<path fill="none" stroke="#63b8ff" d="M101.41,-47.68C83.87,-50.72 60.54,-54.77 44.82,-57.5"/>
<polygon fill="#63b8ff" stroke="#63b8ff" points="102.2,-51.09 111.46,-45.94 101.01,-44.2 102.2,-51.09"/>
</a>
</g>
</g>
<!-- Node16 -->
<g id="Node000016" class="node">
<title>Node16</title>
<g id="a_Node000016"><a xlink:href="../../d3/d61/classchdr_1_1heap_acbf9b62bac7333654c7862dc8cfd1e48.html#acbf9b62bac7333654c7862dc8cfd1e48" target="_top" xlink:title="Retrieves a reference to the front element of the heap.">
<polygon fill="white" stroke="#666666" points="44.5,-34 8.5,-34 8.5,-17 44.5,-17 44.5,-34"/>
<text text-anchor="middle" x="26.5" y="-23.6" font-family="Helvetica,sans-Serif" font-size="8.00">front</text>
</a>
</g>
</g>
<!-- Node14&#45;&gt;Node16 -->
<g id="edge16_Node000014_Node000016" class="edge">
<title>Node14&#45;&gt;Node16</title>
<g id="a_edge16_Node000014_Node000016"><a xlink:title=" ">
<path fill="none" stroke="#63b8ff" d="M101.41,-39.08C83.87,-35.85 60.54,-31.57 44.82,-28.68"/>
<polygon fill="#63b8ff" stroke="#63b8ff" points="100.99,-42.56 111.46,-40.92 102.26,-35.67 100.99,-42.56"/>
</a>
</g>
</g>
</g>
</svg>
