<?xml version="1.0" encoding="UTF-8" standalone="no"?>
<!DOCTYPE svg PUBLIC "-//W3C//DTD SVG 1.1//EN"
 "http://www.w3.org/Graphics/SVG/1.1/DTD/svg11.dtd">
<!-- Generated by graphviz version 2.43.0 (0)
 -->
<!-- Title: sort_down Pages: 1 -->
<svg width="219pt" height="200pt"
 viewBox="0.00 0.00 219.00 200.00" xmlns="http://www.w3.org/2000/svg" xmlns:xlink="http://www.w3.org/1999/xlink">
<g id="graph0" class="graph" transform="scale(1 1) rotate(0) translate(4 196)">
<title>sort_down</title>
<!-- Node1 -->
<g id="Node000001" class="node">
<title>Node1</title>
<g id="a_Node000001"><a xlink:title="Reorganises the heap by moving a specified item downward to maintain the heap property.">
<polygon fill="#999999" stroke="#666666" points="211,-104 157,-104 157,-87 211,-87 211,-104"/>
<text text-anchor="middle" x="184" y="-93.6" font-family="Helvetica,sans-Serif" font-size="8.00">sort_down</text>
</a>
</g>
</g>
<!-- Node2 -->
<g id="Node000002" class="node">
<title>Node2</title>
<g id="a_Node000002"><a xlink:href="../../d3/d61/classchdr_1_1heap_adf4e3bffff56ce9f6c2ca6a36d40a725.html#adf4e3bffff56ce9f6c2ca6a36d40a725" target="_top" xlink:title="Constructs a heap from a collection of elements.">
<polygon fill="white" stroke="#666666" points="114.5,-192 79.5,-192 79.5,-175 114.5,-175 114.5,-192"/>
<text text-anchor="middle" x="97" y="-181.6" font-family="Helvetica,sans-Serif" font-size="8.00">heap</text>
</a>
</g>
</g>
<!-- Node1&#45;&gt;Node2 -->
<g id="edge1_Node000001_Node000002" class="edge">
<title>Node1&#45;&gt;Node2</title>
<g id="a_edge1_Node000001_Node000002"><a xlink:title=" ">
<path fill="none" stroke="#63b8ff" d="M170.1,-112.25C158.16,-127.25 139.51,-149.44 121,-166.5 117.79,-169.46 114.07,-172.4 110.56,-174.97"/>
<polygon fill="#63b8ff" stroke="#63b8ff" points="172.88,-114.37 176.3,-104.35 167.37,-110.05 172.88,-114.37"/>
</a>
</g>
</g>
<!-- Node3 -->
<g id="Node000003" class="node">
<title>Node3</title>
<g id="a_Node000003"><a xlink:href="../../d3/d61/classchdr_1_1heap_a115a6b02da0ef70b6e9cf66736b45b27.html#a115a6b02da0ef70b6e9cf66736b45b27" target="_top" xlink:title="Constructs a heap from a collection of elements with move semantics.">
<polygon fill="white" stroke="#666666" points="114.5,-157 79.5,-157 79.5,-140 114.5,-140 114.5,-157"/>
<text text-anchor="middle" x="97" y="-146.6" font-family="Helvetica,sans-Serif" font-size="8.00">heap</text>
</a>
</g>
</g>
<!-- Node1&#45;&gt;Node3 -->
<g id="edge2_Node000001_Node000003" class="edge">
<title>Node1&#45;&gt;Node3</title>
<g id="a_edge2_Node000001_Node000003"><a xlink:title=" ">
<path fill="none" stroke="#63b8ff" d="M160.43,-109.58C145,-119.19 125.05,-131.63 111.91,-139.83"/>
<polygon fill="#63b8ff" stroke="#63b8ff" points="162.71,-112.28 169.34,-104.02 159.01,-106.34 162.71,-112.28"/>
</a>
</g>
</g>
<!-- Node4 -->
<g id="Node000004" class="node">
<title>Node4</title>
<g id="a_Node000004"><a xlink:href="../../d3/d61/classchdr_1_1heap_acc864476d3a1311f187c3290d0b161aa.html#acc864476d3a1311f187c3290d0b161aa" target="_top" xlink:title="Removes and returns the top element from the heap.">
<polygon fill="white" stroke="#666666" points="121,-122 73,-122 73,-105 121,-105 121,-122"/>
<text text-anchor="middle" x="97" y="-111.6" font-family="Helvetica,sans-Serif" font-size="8.00">dequeue</text>
</a>
</g>
</g>
<!-- Node1&#45;&gt;Node4 -->
<g id="edge3_Node000001_Node000004" class="edge">
<title>Node1&#45;&gt;Node4</title>
<g id="a_edge3_Node000001_Node000004"><a xlink:title=" ">
<path fill="none" stroke="#63b8ff" d="M146.7,-103.19C138.07,-105.01 129.1,-106.91 121.25,-108.58"/>
<polygon fill="#63b8ff" stroke="#63b8ff" points="147.51,-106.59 156.57,-101.1 146.06,-99.74 147.51,-106.59"/>
</a>
</g>
</g>
<!-- Node5 -->
<g id="Node000005" class="node">
<title>Node5</title>
<g id="a_Node000005"><a xlink:href="../../d3/d61/classchdr_1_1heap_a5ff8da78f62646f1ca68dae37f04ed8f.html#a5ff8da78f62646f1ca68dae37f04ed8f" target="_top" xlink:title="Removes a specified item from the heap, restoring the heap property after removal.">
<polygon fill="white" stroke="#666666" points="115.5,-87 78.5,-87 78.5,-70 115.5,-70 115.5,-87"/>
<text text-anchor="middle" x="97" y="-76.6" font-family="Helvetica,sans-Serif" font-size="8.00">erase</text>
</a>
</g>
</g>
<!-- Node1&#45;&gt;Node5 -->
<g id="edge4_Node000001_Node000005" class="edge">
<title>Node1&#45;&gt;Node5</title>
<g id="a_edge4_Node000001_Node000005"><a xlink:title=" ">
<path fill="none" stroke="#63b8ff" d="M146.52,-88.2C135.78,-86.06 124.52,-83.8 115.55,-82.01"/>
<polygon fill="#63b8ff" stroke="#63b8ff" points="146.08,-91.69 156.57,-90.21 147.45,-84.82 146.08,-91.69"/>
</a>
</g>
</g>
<!-- Node7 -->
<g id="Node000007" class="node">
<title>Node7</title>
<g id="a_Node000007"><a xlink:href="../../d3/d61/classchdr_1_1heap_a469d35276d628f97cb8c0fd8962467f5.html#a469d35276d628f97cb8c0fd8962467f5" target="_top" xlink:title="Removes an element from the heap using an iterator while maintaining the heap property.">
<polygon fill="white" stroke="#666666" points="115.5,-52 78.5,-52 78.5,-35 115.5,-35 115.5,-52"/>
<text text-anchor="middle" x="97" y="-41.6" font-family="Helvetica,sans-Serif" font-size="8.00">erase</text>
</a>
</g>
</g>
<!-- Node1&#45;&gt;Node7 -->
<g id="edge6_Node000001_Node000007" class="edge">
<title>Node1&#45;&gt;Node7</title>
<g id="a_edge6_Node000001_Node000007"><a xlink:title=" ">
<path fill="none" stroke="#63b8ff" d="M160.09,-81.48C144.77,-72.11 125.11,-60.08 112.06,-52.1"/>
<polygon fill="#63b8ff" stroke="#63b8ff" points="158.61,-84.68 168.96,-86.91 162.26,-78.71 158.61,-84.68"/>
</a>
</g>
</g>
<!-- Node8 -->
<g id="Node000008" class="node">
<title>Node8</title>
<g id="a_Node000008"><a xlink:href="../../d3/d61/classchdr_1_1heap_a274dca2a1d2c68ff3249f37b3ae410d5.html#a274dca2a1d2c68ff3249f37b3ae410d5" target="_top" xlink:title="Removes the top element from the heap and maintains the heap property.">
<polygon fill="white" stroke="#666666" points="112,-17 82,-17 82,0 112,0 112,-17"/>
<text text-anchor="middle" x="97" y="-6.6" font-family="Helvetica,sans-Serif" font-size="8.00">pop</text>
</a>
</g>
</g>
<!-- Node1&#45;&gt;Node8 -->
<g id="edge7_Node000001_Node000008" class="edge">
<title>Node1&#45;&gt;Node8</title>
<g id="a_edge7_Node000001_Node000008"><a xlink:title=" ">
<path fill="none" stroke="#63b8ff" d="M169.56,-78.97C157.48,-64.51 138.93,-43.25 121,-26.5 117.59,-23.32 113.66,-20.1 110.03,-17.28"/>
<polygon fill="#63b8ff" stroke="#63b8ff" points="167.12,-81.51 176.18,-87 172.52,-77.06 167.12,-81.51"/>
</a>
</g>
</g>
<!-- Node6 -->
<g id="Node000006" class="node">
<title>Node6</title>
<g id="a_Node000006"><a xlink:href="../../d3/d61/classchdr_1_1heap_acb6d4e6f53bcd4c93d386def0bd8be31.html#acb6d4e6f53bcd4c93d386def0bd8be31" target="_top" xlink:title="Removes all elements in a given range from the heap while maintaining the heap property.">
<polygon fill="white" stroke="#666666" points="37,-87 0,-87 0,-70 37,-70 37,-87"/>
<text text-anchor="middle" x="18.5" y="-76.6" font-family="Helvetica,sans-Serif" font-size="8.00">erase</text>
</a>
</g>
</g>
<!-- Node5&#45;&gt;Node6 -->
<g id="edge5_Node000005_Node000006" class="edge">
<title>Node5&#45;&gt;Node6</title>
<g id="a_edge5_Node000005_Node000006"><a xlink:title=" ">
<path fill="none" stroke="#63b8ff" d="M68.03,-78.5C57.71,-78.5 46.3,-78.5 37.15,-78.5"/>
<polygon fill="#63b8ff" stroke="#63b8ff" points="68.26,-82 78.26,-78.5 68.26,-75 68.26,-82"/>
</a>
</g>
</g>
</g>
</svg>
