<?xml version="1.0" encoding="UTF-8" standalone="no"?>
<!DOCTYPE svg PUBLIC "-//W3C//DTD SVG 1.1//EN"
 "http://www.w3.org/Graphics/SVG/1.1/DTD/svg11.dtd">
<!-- Generated by graphviz version 2.43.0 (0)
 -->
<!-- Title: sort_down Pages: 1 -->
<svg width="234pt" height="25pt"
 viewBox="0.00 0.00 234.00 25.00" xmlns="http://www.w3.org/2000/svg" xmlns:xlink="http://www.w3.org/1999/xlink">
<g id="graph0" class="graph" transform="scale(1 1) rotate(0) translate(4 21)">
<title>sort_down</title>
<!-- Node1 -->
<g id="Node000001" class="node">
<title>Node1</title>
<g id="a_Node000001"><a xlink:title="Reorganises the heap by moving a specified item downward to maintain the heap property.">
<polygon fill="#999999" stroke="#666666" points="54,-17 0,-17 0,0 54,0 54,-17"/>
<text text-anchor="middle" x="27" y="-6.6" font-family="Helvetica,sans-Serif" font-size="8.00">sort_down</text>
</a>
</g>
</g>
<!-- Node2 -->
<g id="Node000002" class="node">
<title>Node2</title>
<g id="a_Node000002"><a xlink:href="../../d3/d61/classchdr_1_1heap_a3caedb145a667c26028740417dcf32c3.html#a3caedb145a667c26028740417dcf32c3" target="_top" xlink:title="Retrieves the number of elements currently stored in the heap.">
<polygon fill="white" stroke="#666666" points="120,-17 90,-17 90,0 120,0 120,-17"/>
<text text-anchor="middle" x="105" y="-6.6" font-family="Helvetica,sans-Serif" font-size="8.00">size</text>
</a>
</g>
</g>
<!-- Node1&#45;&gt;Node2 -->
<g id="edge1_Node000001_Node000002" class="edge">
<title>Node1&#45;&gt;Node2</title>
<g id="a_edge1_Node000001_Node000002"><a xlink:title=" ">
<path fill="none" stroke="#63b8ff" d="M54.15,-8.5C62.51,-8.5 71.72,-8.5 79.93,-8.5"/>
<polygon fill="#63b8ff" stroke="#63b8ff" points="79.98,-12 89.98,-8.5 79.98,-5 79.98,-12"/>
</a>
</g>
</g>
<!-- Node3 -->
<g id="Node000003" class="node">
<title>Node3</title>
<g id="a_Node000003"><a xlink:href="../../d2/dcb/structchdr_1_1utils_a05e8953d59fd314cf105f52b0c1272dd.html#a05e8953d59fd314cf105f52b0c1272dd" target="_top" xlink:title="Determines the maximum of two comparable values.">
<polygon fill="white" stroke="#666666" points="226,-17 156,-17 156,0 226,0 226,-17"/>
<text text-anchor="middle" x="191" y="-6.6" font-family="Helvetica,sans-Serif" font-size="8.00">chdr::utils::max</text>
</a>
</g>
</g>
<!-- Node2&#45;&gt;Node3 -->
<g id="edge2_Node000002_Node000003" class="edge">
<title>Node2&#45;&gt;Node3</title>
<g id="a_edge2_Node000002_Node000003"><a xlink:title=" ">
<path fill="none" stroke="#63b8ff" d="M120.25,-8.5C127.32,-8.5 136.3,-8.5 145.44,-8.5"/>
<polygon fill="#63b8ff" stroke="#63b8ff" points="145.73,-12 155.73,-8.5 145.73,-5 145.73,-12"/>
</a>
</g>
</g>
</g>
</svg>
