<?xml version="1.0" encoding="UTF-8" standalone="no"?>
<!DOCTYPE svg PUBLIC "-//W3C//DTD SVG 1.1//EN"
 "http://www.w3.org/Graphics/SVG/1.1/DTD/svg11.dtd">
<!-- Generated by graphviz version 2.43.0 (0)
 -->
<!-- Title: pop Pages: 1 -->
<svg width="300pt" height="99pt"
 viewBox="0.00 0.00 300.00 99.00" xmlns="http://www.w3.org/2000/svg" xmlns:xlink="http://www.w3.org/1999/xlink">
<g id="graph0" class="graph" transform="scale(1 1) rotate(0) translate(4 95)">
<title>pop</title>
<!-- Node1 -->
<g id="Node000001" class="node">
<title>Node1</title>
<g id="a_Node000001"><a xlink:title="Removes the top element from the heap and maintains the heap property.">
<polygon fill="#999999" stroke="#666666" points="30,-54 0,-54 0,-37 30,-37 30,-54"/>
<text text-anchor="middle" x="15" y="-43.6" font-family="Helvetica,sans-Serif" font-size="8.00">pop</text>
</a>
</g>
</g>
<!-- Node2 -->
<g id="Node000002" class="node">
<title>Node2</title>
<g id="a_Node000002"><a xlink:href="../../d3/d61/classchdr_1_1heap_a3f6fc5de06a318920d84f3c3742db07f.html#a3f6fc5de06a318920d84f3c3742db07f" target="_top" xlink:title="Checks if the heap is empty.">
<polygon fill="white" stroke="#666666" points="112,-91 74,-91 74,-74 112,-74 112,-91"/>
<text text-anchor="middle" x="93" y="-80.6" font-family="Helvetica,sans-Serif" font-size="8.00">empty</text>
</a>
</g>
</g>
<!-- Node1&#45;&gt;Node2 -->
<g id="edge1_Node000001_Node000002" class="edge">
<title>Node1&#45;&gt;Node2</title>
<g id="a_edge1_Node000001_Node000002"><a xlink:title=" ">
<path fill="none" stroke="#63b8ff" d="M30.3,-52.46C40.13,-57.25 53.5,-63.76 65.28,-69.49"/>
<polygon fill="#63b8ff" stroke="#63b8ff" points="63.77,-72.65 74.29,-73.88 66.83,-66.35 63.77,-72.65"/>
</a>
</g>
</g>
<!-- Node3 -->
<g id="Node000003" class="node">
<title>Node3</title>
<g id="a_Node000003"><a xlink:href="../../d3/d61/classchdr_1_1heap_a3caedb145a667c26028740417dcf32c3.html#a3caedb145a667c26028740417dcf32c3" target="_top" xlink:title="Retrieves the number of elements currently stored in the heap.">
<polygon fill="white" stroke="#666666" points="186,-54 156,-54 156,-37 186,-37 186,-54"/>
<text text-anchor="middle" x="171" y="-43.6" font-family="Helvetica,sans-Serif" font-size="8.00">size</text>
</a>
</g>
</g>
<!-- Node1&#45;&gt;Node3 -->
<g id="edge4_Node000001_Node000003" class="edge">
<title>Node1&#45;&gt;Node3</title>
<g id="a_edge4_Node000001_Node000003"><a xlink:title=" ">
<path fill="none" stroke="#63b8ff" d="M30.21,-45.5C56.57,-45.5 113.3,-45.5 145.81,-45.5"/>
<polygon fill="#63b8ff" stroke="#63b8ff" points="145.82,-49 155.82,-45.5 145.82,-42 145.82,-49"/>
</a>
</g>
</g>
<!-- Node5 -->
<g id="Node000005" class="node">
<title>Node5</title>
<g id="a_Node000005"><a xlink:href="../../d3/d61/classchdr_1_1heap_a9bb7e9906ed7296a33c7c08c4d0ef800.html#a9bb7e9906ed7296a33c7c08c4d0ef800" target="_top" xlink:title="Reorganises the heap by moving a specified item downward to maintain the heap property.">
<polygon fill="white" stroke="#666666" points="120,-17 66,-17 66,0 120,0 120,-17"/>
<text text-anchor="middle" x="93" y="-6.6" font-family="Helvetica,sans-Serif" font-size="8.00">sort_down</text>
</a>
</g>
</g>
<!-- Node1&#45;&gt;Node5 -->
<g id="edge5_Node000001_Node000005" class="edge">
<title>Node1&#45;&gt;Node5</title>
<g id="a_edge5_Node000001_Node000005"><a xlink:title=" ">
<path fill="none" stroke="#63b8ff" d="M30.3,-38.54C40.13,-33.75 53.5,-27.24 65.28,-21.51"/>
<polygon fill="#63b8ff" stroke="#63b8ff" points="66.83,-24.65 74.29,-17.12 63.77,-18.35 66.83,-24.65"/>
</a>
</g>
</g>
<!-- Node2&#45;&gt;Node3 -->
<g id="edge2_Node000002_Node000003" class="edge">
<title>Node2&#45;&gt;Node3</title>
<g id="a_edge2_Node000002_Node000003"><a xlink:title=" ">
<path fill="none" stroke="#63b8ff" d="M111.63,-73.92C121.94,-68.9 135.09,-62.5 146.3,-57.04"/>
<polygon fill="#63b8ff" stroke="#63b8ff" points="148.07,-60.07 155.53,-52.55 145,-53.78 148.07,-60.07"/>
</a>
</g>
</g>
<!-- Node4 -->
<g id="Node000004" class="node">
<title>Node4</title>
<g id="a_Node000004"><a xlink:href="../../d2/dcb/structchdr_1_1utils_a05e8953d59fd314cf105f52b0c1272dd.html#a05e8953d59fd314cf105f52b0c1272dd" target="_top" xlink:title="Determines the maximum of two comparable values.">
<polygon fill="white" stroke="#666666" points="292,-54 222,-54 222,-37 292,-37 292,-54"/>
<text text-anchor="middle" x="257" y="-43.6" font-family="Helvetica,sans-Serif" font-size="8.00">chdr::utils::max</text>
</a>
</g>
</g>
<!-- Node3&#45;&gt;Node4 -->
<g id="edge3_Node000003_Node000004" class="edge">
<title>Node3&#45;&gt;Node4</title>
<g id="a_edge3_Node000003_Node000004"><a xlink:title=" ">
<path fill="none" stroke="#63b8ff" d="M186.25,-45.5C193.32,-45.5 202.3,-45.5 211.44,-45.5"/>
<polygon fill="#63b8ff" stroke="#63b8ff" points="211.73,-49 221.73,-45.5 211.73,-42 211.73,-49"/>
</a>
</g>
</g>
<!-- Node5&#45;&gt;Node3 -->
<g id="edge6_Node000005_Node000003" class="edge">
<title>Node5&#45;&gt;Node3</title>
<g id="a_edge6_Node000005_Node000003"><a xlink:title=" ">
<path fill="none" stroke="#63b8ff" d="M111.63,-17.08C121.94,-22.1 135.09,-28.5 146.3,-33.96"/>
<polygon fill="#63b8ff" stroke="#63b8ff" points="145,-37.22 155.53,-38.45 148.07,-30.93 145,-37.22"/>
</a>
</g>
</g>
</g>
</svg>
