<?xml version="1.0" encoding="UTF-8" standalone="no"?>
<!DOCTYPE svg PUBLIC "-//W3C//DTD SVG 1.1//EN"
 "http://www.w3.org/Graphics/SVG/1.1/DTD/svg11.dtd">
<!-- Generated by graphviz version 2.43.0 (0)
 -->
<!-- Title: dequeue Pages: 1 -->
<svg width="383pt" height="111pt"
 viewBox="0.00 0.00 383.00 111.29" xmlns="http://www.w3.org/2000/svg" xmlns:xlink="http://www.w3.org/1999/xlink">
<g id="graph0" class="graph" transform="scale(1 1) rotate(0) translate(4 107.29)">
<title>dequeue</title>
<!-- Node1 -->
<g id="Node000001" class="node">
<title>Node1</title>
<g id="a_Node000001"><a xlink:title="Removes and returns the top element from the heap.">
<polygon fill="#999999" stroke="#666666" points="48,-72 0,-72 0,-55 48,-55 48,-72"/>
<text text-anchor="middle" x="24" y="-61.6" font-family="Helvetica,sans-Serif" font-size="8.00">dequeue</text>
</a>
</g>
</g>
<!-- Node2 -->
<g id="Node000002" class="node">
<title>Node2</title>
<g id="a_Node000002"><a xlink:href="../../d3/d61/classchdr_1_1heap_a3f6fc5de06a318920d84f3c3742db07f.html#a3f6fc5de06a318920d84f3c3742db07f" target="_top" xlink:title="Checks if the heap is empty.">
<polygon fill="white" stroke="#666666" points="195,-91 157,-91 157,-74 195,-74 195,-91"/>
<text text-anchor="middle" x="176" y="-80.6" font-family="Helvetica,sans-Serif" font-size="8.00">empty</text>
</a>
</g>
</g>
<!-- Node1&#45;&gt;Node2 -->
<g id="edge1_Node000001_Node000002" class="edge">
<title>Node1&#45;&gt;Node2</title>
<g id="a_edge1_Node000001_Node000002"><a xlink:title=" ">
<path fill="none" stroke="#63b8ff" d="M35,-72.28C46.09,-81.38 64.94,-95.02 84,-100.5 105.02,-106.55 129.36,-101.11 147.57,-94.67"/>
<polygon fill="#63b8ff" stroke="#63b8ff" points="148.91,-97.9 157,-91.06 146.41,-91.37 148.91,-97.9"/>
</a>
</g>
</g>
<!-- Node3 -->
<g id="Node000003" class="node">
<title>Node3</title>
<g id="a_Node000003"><a xlink:href="../../d3/d61/classchdr_1_1heap_a3caedb145a667c26028740417dcf32c3.html#a3caedb145a667c26028740417dcf32c3" target="_top" xlink:title="Retrieves the number of elements currently stored in the heap.">
<polygon fill="white" stroke="#666666" points="269,-54 239,-54 239,-37 269,-37 269,-54"/>
<text text-anchor="middle" x="254" y="-43.6" font-family="Helvetica,sans-Serif" font-size="8.00">size</text>
</a>
</g>
</g>
<!-- Node1&#45;&gt;Node3 -->
<g id="edge4_Node000001_Node000003" class="edge">
<title>Node1&#45;&gt;Node3</title>
<g id="a_edge4_Node000001_Node000003"><a xlink:title=" ">
<path fill="none" stroke="#63b8ff" d="M48.12,-61.68C91.43,-58.26 184.41,-50.92 228.65,-47.42"/>
<polygon fill="#63b8ff" stroke="#63b8ff" points="229.09,-50.9 238.78,-46.62 228.54,-43.92 229.09,-50.9"/>
</a>
</g>
</g>
<!-- Node5 -->
<g id="Node000005" class="node">
<title>Node5</title>
<g id="a_Node000005"><a xlink:href="../../d3/d61/classchdr_1_1heap_a9bb7e9906ed7296a33c7c08c4d0ef800.html#a9bb7e9906ed7296a33c7c08c4d0ef800" target="_top" xlink:title="Reorganises the heap by moving a specified item downward to maintain the heap property.">
<polygon fill="white" stroke="#666666" points="203,-17 149,-17 149,0 203,0 203,-17"/>
<text text-anchor="middle" x="176" y="-6.6" font-family="Helvetica,sans-Serif" font-size="8.00">sort_down</text>
</a>
</g>
</g>
<!-- Node1&#45;&gt;Node5 -->
<g id="edge5_Node000001_Node000005" class="edge">
<title>Node1&#45;&gt;Node5</title>
<g id="a_edge5_Node000001_Node000005"><a xlink:title=" ">
<path fill="none" stroke="#63b8ff" d="M38.6,-54.85C50.26,-47.75 67.72,-37.86 84,-31.5 101.6,-24.63 121.92,-19.26 138.89,-15.45"/>
<polygon fill="#63b8ff" stroke="#63b8ff" points="139.93,-18.81 148.97,-13.28 138.46,-11.96 139.93,-18.81"/>
</a>
</g>
</g>
<!-- Node6 -->
<g id="Node000006" class="node">
<title>Node6</title>
<g id="a_Node000006"><a xlink:href="../../d3/d61/classchdr_1_1heap_a20a753362275d34a67d855ce0105fab7.html#a20a753362275d34a67d855ce0105fab7" target="_top" xlink:title="Retrieves a reference to the top element of the heap.">
<polygon fill="white" stroke="#666666" points="113,-91 84,-91 84,-74 113,-74 113,-91"/>
<text text-anchor="middle" x="98.5" y="-80.6" font-family="Helvetica,sans-Serif" font-size="8.00">top</text>
</a>
</g>
</g>
<!-- Node1&#45;&gt;Node6 -->
<g id="edge7_Node000001_Node000006" class="edge">
<title>Node1&#45;&gt;Node6</title>
<g id="a_edge7_Node000001_Node000006"><a xlink:title=" ">
<path fill="none" stroke="#63b8ff" d="M48.34,-69.62C56.6,-71.78 65.9,-74.22 74.17,-76.38"/>
<polygon fill="#63b8ff" stroke="#63b8ff" points="73.37,-79.79 83.93,-78.94 75.14,-73.02 73.37,-79.79"/>
</a>
</g>
</g>
<!-- Node2&#45;&gt;Node3 -->
<g id="edge2_Node000002_Node000003" class="edge">
<title>Node2&#45;&gt;Node3</title>
<g id="a_edge2_Node000002_Node000003"><a xlink:title=" ">
<path fill="none" stroke="#63b8ff" d="M194.63,-73.92C204.94,-68.9 218.09,-62.5 229.3,-57.04"/>
<polygon fill="#63b8ff" stroke="#63b8ff" points="231.07,-60.07 238.53,-52.55 228,-53.78 231.07,-60.07"/>
</a>
</g>
</g>
<!-- Node4 -->
<g id="Node000004" class="node">
<title>Node4</title>
<g id="a_Node000004"><a xlink:href="../../d2/dcb/structchdr_1_1utils_abb4d38d3c7a25d93fcedd12666fb00a1.html#abb4d38d3c7a25d93fcedd12666fb00a1" target="_top" xlink:title="Determines the maximum of two comparable values.">
<polygon fill="white" stroke="#666666" points="375,-54 305,-54 305,-37 375,-37 375,-54"/>
<text text-anchor="middle" x="340" y="-43.6" font-family="Helvetica,sans-Serif" font-size="8.00">chdr::utils::max</text>
</a>
</g>
</g>
<!-- Node3&#45;&gt;Node4 -->
<g id="edge3_Node000003_Node000004" class="edge">
<title>Node3&#45;&gt;Node4</title>
<g id="a_edge3_Node000003_Node000004"><a xlink:title=" ">
<path fill="none" stroke="#63b8ff" d="M269.25,-45.5C276.32,-45.5 285.3,-45.5 294.44,-45.5"/>
<polygon fill="#63b8ff" stroke="#63b8ff" points="294.73,-49 304.73,-45.5 294.73,-42 294.73,-49"/>
</a>
</g>
</g>
<!-- Node5&#45;&gt;Node3 -->
<g id="edge6_Node000005_Node000003" class="edge">
<title>Node5&#45;&gt;Node3</title>
<g id="a_edge6_Node000005_Node000003"><a xlink:title=" ">
<path fill="none" stroke="#63b8ff" d="M194.63,-17.08C204.94,-22.1 218.09,-28.5 229.3,-33.96"/>
<polygon fill="#63b8ff" stroke="#63b8ff" points="228,-37.22 238.53,-38.45 231.07,-30.93 228,-37.22"/>
</a>
</g>
</g>
<!-- Node6&#45;&gt;Node2 -->
<g id="edge8_Node000006_Node000002" class="edge">
<title>Node6&#45;&gt;Node2</title>
<g id="a_edge8_Node000006_Node000002"><a xlink:title=" ">
<path fill="none" stroke="#63b8ff" d="M113.35,-82.5C122.73,-82.5 135.47,-82.5 146.93,-82.5"/>
<polygon fill="#63b8ff" stroke="#63b8ff" points="146.96,-86 156.96,-82.5 146.96,-79 146.96,-86"/>
</a>
</g>
</g>
</g>
</svg>
