<?xml version="1.0" encoding="UTF-8" standalone="no"?>
<!DOCTYPE svg PUBLIC "-//W3C//DTD SVG 1.1//EN"
 "http://www.w3.org/Graphics/SVG/1.1/DTD/svg11.dtd">
<!-- Generated by graphviz version 2.43.0 (0)
 -->
<!-- Title: erase Pages: 1 -->
<svg width="307pt" height="73pt"
 viewBox="0.00 0.00 307.00 72.53" xmlns="http://www.w3.org/2000/svg" xmlns:xlink="http://www.w3.org/1999/xlink">
<g id="graph0" class="graph" transform="scale(1 1) rotate(0) translate(4 68.53)">
<title>erase</title>
<!-- Node1 -->
<g id="Node000001" class="node">
<title>Node1</title>
<g id="a_Node000001"><a xlink:title="Removes an element from the heap using an iterator while maintaining the heap property.">
<polygon fill="#999999" stroke="#666666" points="37,-52 0,-52 0,-35 37,-35 37,-52"/>
<text text-anchor="middle" x="18.5" y="-41.6" font-family="Helvetica,sans-Serif" font-size="8.00">erase</text>
</a>
</g>
</g>
<!-- Node2 -->
<g id="Node000002" class="node">
<title>Node2</title>
<g id="a_Node000002"><a xlink:href="../../d3/d61/classchdr_1_1heap_a3caedb145a667c26028740417dcf32c3.html#a3caedb145a667c26028740417dcf32c3" target="_top" xlink:title="Retrieves the number of elements currently stored in the heap.">
<polygon fill="white" stroke="#666666" points="193,-52 163,-52 163,-35 193,-35 193,-52"/>
<text text-anchor="middle" x="178" y="-41.6" font-family="Helvetica,sans-Serif" font-size="8.00">size</text>
</a>
</g>
</g>
<!-- Node1&#45;&gt;Node2 -->
<g id="edge1_Node000001_Node000002" class="edge">
<title>Node1&#45;&gt;Node2</title>
<g id="a_edge1_Node000001_Node000002"><a xlink:title=" ">
<path fill="none" stroke="#63b8ff" d="M37.45,-51.17C47.66,-55.11 60.81,-59.51 73,-61.5 96.68,-65.38 103.36,-65.63 127,-61.5 135.92,-59.94 145.34,-56.94 153.58,-53.82"/>
<polygon fill="#63b8ff" stroke="#63b8ff" points="154.95,-57.04 162.92,-50.05 152.33,-50.55 154.95,-57.04"/>
</a>
</g>
</g>
<!-- Node4 -->
<g id="Node000004" class="node">
<title>Node4</title>
<g id="a_Node000004"><a xlink:href="../../d3/d61/classchdr_1_1heap_a9bb7e9906ed7296a33c7c08c4d0ef800.html#a9bb7e9906ed7296a33c7c08c4d0ef800" target="_top" xlink:title="Reorganises the heap by moving a specified item downward to maintain the heap property.">
<polygon fill="white" stroke="#666666" points="127,-52 73,-52 73,-35 127,-35 127,-52"/>
<text text-anchor="middle" x="100" y="-41.6" font-family="Helvetica,sans-Serif" font-size="8.00">sort_down</text>
</a>
</g>
</g>
<!-- Node1&#45;&gt;Node4 -->
<g id="edge3_Node000001_Node000004" class="edge">
<title>Node1&#45;&gt;Node4</title>
<g id="a_edge3_Node000001_Node000004"><a xlink:title=" ">
<path fill="none" stroke="#63b8ff" d="M37.14,-43.5C44.71,-43.5 53.83,-43.5 62.73,-43.5"/>
<polygon fill="#63b8ff" stroke="#63b8ff" points="62.95,-47 72.95,-43.5 62.95,-40 62.95,-47"/>
</a>
</g>
</g>
<!-- Node5 -->
<g id="Node000005" class="node">
<title>Node5</title>
<g id="a_Node000005"><a xlink:href="../../d3/d61/classchdr_1_1heap_ab3bf20f6c00b1d3c85593ed5a5c4c3a1.html#ab3bf20f6c00b1d3c85593ed5a5c4c3a1" target="_top" xlink:title="Adjusts the position of an item in the heap by moving it upwards towards the root.">
<polygon fill="white" stroke="#666666" points="122,-17 78,-17 78,0 122,0 122,-17"/>
<text text-anchor="middle" x="100" y="-6.6" font-family="Helvetica,sans-Serif" font-size="8.00">sort_up</text>
</a>
</g>
</g>
<!-- Node1&#45;&gt;Node5 -->
<g id="edge5_Node000001_Node000005" class="edge">
<title>Node1&#45;&gt;Node5</title>
<g id="a_edge5_Node000001_Node000005"><a xlink:title=" ">
<path fill="none" stroke="#63b8ff" d="M37.14,-35.73C46.84,-31.46 59.1,-26.06 70.15,-21.2"/>
<polygon fill="#63b8ff" stroke="#63b8ff" points="71.71,-24.34 79.45,-17.11 68.89,-17.93 71.71,-24.34"/>
</a>
</g>
</g>
<!-- Node3 -->
<g id="Node000003" class="node">
<title>Node3</title>
<g id="a_Node000003"><a xlink:href="../../d2/dcb/structchdr_1_1utils_abb4d38d3c7a25d93fcedd12666fb00a1.html#abb4d38d3c7a25d93fcedd12666fb00a1" target="_top" xlink:title="Determines the maximum of two comparable values.">
<polygon fill="white" stroke="#666666" points="299,-52 229,-52 229,-35 299,-35 299,-52"/>
<text text-anchor="middle" x="264" y="-41.6" font-family="Helvetica,sans-Serif" font-size="8.00">chdr::utils::max</text>
</a>
</g>
</g>
<!-- Node2&#45;&gt;Node3 -->
<g id="edge2_Node000002_Node000003" class="edge">
<title>Node2&#45;&gt;Node3</title>
<g id="a_edge2_Node000002_Node000003"><a xlink:title=" ">
<path fill="none" stroke="#63b8ff" d="M193.25,-43.5C200.32,-43.5 209.3,-43.5 218.44,-43.5"/>
<polygon fill="#63b8ff" stroke="#63b8ff" points="218.73,-47 228.73,-43.5 218.73,-40 218.73,-47"/>
</a>
</g>
</g>
<!-- Node4&#45;&gt;Node2 -->
<g id="edge4_Node000004_Node000002" class="edge">
<title>Node4&#45;&gt;Node2</title>
<g id="a_edge4_Node000004_Node000002"><a xlink:title=" ">
<path fill="none" stroke="#63b8ff" d="M127.15,-43.5C135.51,-43.5 144.72,-43.5 152.93,-43.5"/>
<polygon fill="#63b8ff" stroke="#63b8ff" points="152.98,-47 162.98,-43.5 152.98,-40 152.98,-47"/>
</a>
</g>
</g>
<!-- Node5&#45;&gt;Node2 -->
<g id="edge6_Node000005_Node000002" class="edge">
<title>Node5&#45;&gt;Node2</title>
<g id="a_edge6_Node000005_Node000002"><a xlink:title=" ">
<path fill="none" stroke="#63b8ff" d="M119.79,-17.15C130.02,-21.86 142.77,-27.74 153.64,-32.74"/>
<polygon fill="#63b8ff" stroke="#63b8ff" points="152.41,-36.03 162.96,-37.03 155.34,-29.67 152.41,-36.03"/>
</a>
</g>
</g>
</g>
</svg>
