<?xml version="1.0" encoding="UTF-8" standalone="no"?>
<!DOCTYPE svg PUBLIC "-//W3C//DTD SVG 1.1//EN"
 "http://www.w3.org/Graphics/SVG/1.1/DTD/svg11.dtd">
<!-- Generated by graphviz version 2.43.0 (0)
 -->
<!-- Title: push Pages: 1 -->
<svg width="294pt" height="25pt"
 viewBox="0.00 0.00 294.00 25.00" xmlns="http://www.w3.org/2000/svg" xmlns:xlink="http://www.w3.org/1999/xlink">
<g id="graph0" class="graph" transform="scale(1 1) rotate(0) translate(4 21)">
<title>push</title>
<!-- Node1 -->
<g id="Node000001" class="node">
<title>Node1</title>
<g id="a_Node000001"><a xlink:title="Adds an item to the heap using move semantics.">
<polygon fill="#999999" stroke="#666666" points="34,-17 0,-17 0,0 34,0 34,-17"/>
<text text-anchor="middle" x="17" y="-6.6" font-family="Helvetica,sans-Serif" font-size="8.00">push</text>
</a>
</g>
</g>
<!-- Node2 -->
<g id="Node000002" class="node">
<title>Node2</title>
<g id="a_Node000002"><a xlink:href="../../d3/d61/classchdr_1_1heap_ab3bf20f6c00b1d3c85593ed5a5c4c3a1.html#ab3bf20f6c00b1d3c85593ed5a5c4c3a1" target="_top" xlink:title="Adjusts the position of an item in the heap by moving it upwards towards the root.">
<polygon fill="white" stroke="#666666" points="114,-17 70,-17 70,0 114,0 114,-17"/>
<text text-anchor="middle" x="92" y="-6.6" font-family="Helvetica,sans-Serif" font-size="8.00">sort_up</text>
</a>
</g>
</g>
<!-- Node1&#45;&gt;Node2 -->
<g id="edge1_Node000001_Node000002" class="edge">
<title>Node1&#45;&gt;Node2</title>
<g id="a_edge1_Node000001_Node000002"><a xlink:title=" ">
<path fill="none" stroke="#63b8ff" d="M34.2,-8.5C41.75,-8.5 50.99,-8.5 59.82,-8.5"/>
<polygon fill="#63b8ff" stroke="#63b8ff" points="59.85,-12 69.85,-8.5 59.85,-5 59.85,-12"/>
</a>
</g>
</g>
<!-- Node3 -->
<g id="Node000003" class="node">
<title>Node3</title>
<g id="a_Node000003"><a xlink:href="../../d3/d61/classchdr_1_1heap_a3caedb145a667c26028740417dcf32c3.html#a3caedb145a667c26028740417dcf32c3" target="_top" xlink:title="Retrieves the number of elements currently stored in the heap.">
<polygon fill="white" stroke="#666666" points="180,-17 150,-17 150,0 180,0 180,-17"/>
<text text-anchor="middle" x="165" y="-6.6" font-family="Helvetica,sans-Serif" font-size="8.00">size</text>
</a>
</g>
</g>
<!-- Node2&#45;&gt;Node3 -->
<g id="edge2_Node000002_Node000003" class="edge">
<title>Node2&#45;&gt;Node3</title>
<g id="a_edge2_Node000002_Node000003"><a xlink:title=" ">
<path fill="none" stroke="#63b8ff" d="M114.3,-8.5C122.25,-8.5 131.35,-8.5 139.56,-8.5"/>
<polygon fill="#63b8ff" stroke="#63b8ff" points="139.68,-12 149.68,-8.5 139.68,-5 139.68,-12"/>
</a>
</g>
</g>
<!-- Node4 -->
<g id="Node000004" class="node">
<title>Node4</title>
<g id="a_Node000004"><a xlink:href="../../d2/dcb/structchdr_1_1utils_a05e8953d59fd314cf105f52b0c1272dd.html#a05e8953d59fd314cf105f52b0c1272dd" target="_top" xlink:title="Determines the maximum of two comparable values.">
<polygon fill="white" stroke="#666666" points="286,-17 216,-17 216,0 286,0 286,-17"/>
<text text-anchor="middle" x="251" y="-6.6" font-family="Helvetica,sans-Serif" font-size="8.00">chdr::utils::max</text>
</a>
</g>
</g>
<!-- Node3&#45;&gt;Node4 -->
<g id="edge3_Node000003_Node000004" class="edge">
<title>Node3&#45;&gt;Node4</title>
<g id="a_edge3_Node000003_Node000004"><a xlink:title=" ">
<path fill="none" stroke="#63b8ff" d="M180.25,-8.5C187.32,-8.5 196.3,-8.5 205.44,-8.5"/>
<polygon fill="#63b8ff" stroke="#63b8ff" points="205.73,-12 215.73,-8.5 205.73,-5 205.73,-12"/>
</a>
</g>
</g>
</g>
</svg>
