<?xml version="1.0" encoding="UTF-8" standalone="no"?>
<!DOCTYPE svg PUBLIC "-//W3C//DTD SVG 1.1//EN"
 "http://www.w3.org/Graphics/SVG/1.1/DTD/svg11.dtd">
<!-- Generated by graphviz version 2.43.0 (0)
 -->
<!-- Title: size Pages: 1 -->
<svg width="335pt" height="754pt"
 viewBox="0.00 0.00 335.00 754.00" xmlns="http://www.w3.org/2000/svg" xmlns:xlink="http://www.w3.org/1999/xlink">
<g id="graph0" class="graph" transform="scale(1 1) rotate(0) translate(4 750)">
<title>size</title>
<!-- Node1 -->
<g id="Node000001" class="node">
<title>Node1</title>
<g id="a_Node000001"><a xlink:title="Retrieves the number of elements currently stored in the heap.">
<polygon fill="#999999" stroke="#666666" points="327,-336 294,-336 294,-319 327,-319 327,-336"/>
<text text-anchor="middle" x="310.5" y="-325.6" font-family="Helvetica,sans-Serif" font-size="8.00">size</text>
</a>
</g>
</g>
<!-- Node2 -->
<g id="Node000002" class="node">
<title>Node2</title>
<g id="a_Node000002"><a xlink:href="../../d3/d61/classchdr_1_1heap_adf4e3bffff56ce9f6c2ca6a36d40a725.html#adf4e3bffff56ce9f6c2ca6a36d40a725" target="_top" xlink:title="Constructs a heap from a collection of elements.">
<polygon fill="white" stroke="#666666" points="145,-406 107,-406 107,-389 145,-389 145,-406"/>
<text text-anchor="middle" x="126" y="-395.6" font-family="Helvetica,sans-Serif" font-size="8.00">heap</text>
</a>
</g>
</g>
<!-- Node1&#45;&gt;Node2 -->
<g id="edge1_Node000001_Node000002" class="edge">
<title>Node1&#45;&gt;Node2</title>
<g id="a_edge1_Node000001_Node000002"><a xlink:title=" ">
<path fill="none" stroke="#63b8ff" d="M290.02,-341.92C280.7,-348.3 269.16,-355.48 258,-360.5 219.63,-377.75 171.29,-388.9 145.39,-394.09"/>
<polygon fill="#63b8ff" stroke="#63b8ff" points="292.05,-344.77 298.2,-336.14 288.01,-339.05 292.05,-344.77"/>
</a>
</g>
</g>
<!-- Node3 -->
<g id="Node000003" class="node">
<title>Node3</title>
<g id="a_Node000003"><a xlink:href="../../d3/d61/classchdr_1_1heap_a115a6b02da0ef70b6e9cf66736b45b27.html#a115a6b02da0ef70b6e9cf66736b45b27" target="_top" xlink:title="Constructs a heap from a collection of elements with move semantics.">
<polygon fill="white" stroke="#666666" points="145,-371 107,-371 107,-354 145,-354 145,-371"/>
<text text-anchor="middle" x="126" y="-360.6" font-family="Helvetica,sans-Serif" font-size="8.00">heap</text>
</a>
</g>
</g>
<!-- Node1&#45;&gt;Node3 -->
<g id="edge2_Node000001_Node000003" class="edge">
<title>Node1&#45;&gt;Node3</title>
<g id="a_edge2_Node000001_Node000003"><a xlink:title=" ">
<path fill="none" stroke="#63b8ff" d="M284.02,-335C275.76,-337.28 266.53,-339.66 258,-341.5 218.15,-350.09 170.78,-356.84 145.34,-360.19"/>
<polygon fill="#63b8ff" stroke="#63b8ff" points="285.16,-338.32 293.83,-332.23 283.25,-331.58 285.16,-338.32"/>
</a>
</g>
</g>
<!-- Node4 -->
<g id="Node000004" class="node">
<title>Node4</title>
<g id="a_Node000004"><a xlink:href="../../d3/d61/classchdr_1_1heap_acc864476d3a1311f187c3290d0b161aa.html#acc864476d3a1311f187c3290d0b161aa" target="_top" xlink:title="Removes and returns the top element from the heap.">
<polygon fill="white" stroke="#666666" points="53,-638 0,-638 0,-621 53,-621 53,-638"/>
<text text-anchor="middle" x="26.5" y="-627.6" font-family="Helvetica,sans-Serif" font-size="8.00">dequeue</text>
</a>
</g>
</g>
<!-- Node1&#45;&gt;Node4 -->
<g id="edge3_Node000001_Node000004" class="edge">
<title>Node1&#45;&gt;Node4</title>
<g id="a_edge3_Node000001_Node000004"><a xlink:title=" ">
<path fill="none" stroke="#63b8ff" d="M308.4,-346.27C303.71,-406.36 279.86,-594.22 163,-664.5 121.98,-689.17 63.85,-655.14 39.24,-638.15"/>
<polygon fill="#63b8ff" stroke="#63b8ff" points="311.91,-346.24 309.1,-336.02 304.92,-345.76 311.91,-346.24"/>
</a>
</g>
</g>
<!-- Node5 -->
<g id="Node000005" class="node">
<title>Node5</title>
<g id="a_Node000005"><a xlink:href="../../d3/d61/classchdr_1_1heap_a3f6fc5de06a318920d84f3c3742db07f.html#a3f6fc5de06a318920d84f3c3742db07f" target="_top" xlink:title="Checks if the heap is empty.">
<polygon fill="white" stroke="#666666" points="249.5,-476 207.5,-476 207.5,-459 249.5,-459 249.5,-476"/>
<text text-anchor="middle" x="228.5" y="-465.6" font-family="Helvetica,sans-Serif" font-size="8.00">empty</text>
</a>
</g>
</g>
<!-- Node1&#45;&gt;Node5 -->
<g id="edge4_Node000001_Node000005" class="edge">
<title>Node1&#45;&gt;Node5</title>
<g id="a_edge4_Node000001_Node000005"><a xlink:title=" ">
<path fill="none" stroke="#63b8ff" d="M299.34,-345.28C282.02,-375.58 247.41,-436.16 234.5,-458.75"/>
<polygon fill="#63b8ff" stroke="#63b8ff" points="302.57,-346.68 304.5,-336.26 296.5,-343.2 302.57,-346.68"/>
</a>
</g>
</g>
<!-- Node9 -->
<g id="Node000009" class="node">
<title>Node9</title>
<g id="a_Node000009"><a xlink:href="../../d3/d61/classchdr_1_1heap_a5ff8da78f62646f1ca68dae37f04ed8f.html#a5ff8da78f62646f1ca68dae37f04ed8f" target="_top" xlink:title="Removes a specified item from the heap, restoring the heap property after removal.">
<polygon fill="white" stroke="#666666" points="146,-262 106,-262 106,-245 146,-245 146,-262"/>
<text text-anchor="middle" x="126" y="-251.6" font-family="Helvetica,sans-Serif" font-size="8.00">erase</text>
</a>
</g>
</g>
<!-- Node1&#45;&gt;Node9 -->
<g id="edge21_Node000001_Node000009" class="edge">
<title>Node1&#45;&gt;Node9</title>
<g id="a_edge21_Node000001_Node000009"><a xlink:title=" ">
<path fill="none" stroke="#63b8ff" d="M298.22,-310.7C288.94,-298.32 274.64,-282.17 258,-273.5 221.89,-254.68 173.09,-252.33 146.41,-252.66"/>
<polygon fill="#63b8ff" stroke="#63b8ff" points="295.4,-312.78 304.05,-318.9 301.1,-308.72 295.4,-312.78"/>
</a>
</g>
</g>
<!-- Node12 -->
<g id="Node000012" class="node">
<title>Node12</title>
<g id="a_Node000012"><a xlink:href="../../d3/d61/classchdr_1_1heap_a274dca2a1d2c68ff3249f37b3ae410d5.html#a274dca2a1d2c68ff3249f37b3ae410d5" target="_top" xlink:title="Removes the top element from the heap and maintains the heap property.">
<polygon fill="white" stroke="#666666" points="142,-336 110,-336 110,-319 142,-319 142,-336"/>
<text text-anchor="middle" x="126" y="-325.6" font-family="Helvetica,sans-Serif" font-size="8.00">pop</text>
</a>
</g>
</g>
<!-- Node1&#45;&gt;Node12 -->
<g id="edge23_Node000001_Node000012" class="edge">
<title>Node1&#45;&gt;Node12</title>
<g id="a_edge23_Node000001_Node000012"><a xlink:title=" ">
<path fill="none" stroke="#63b8ff" d="M283.5,-327.5C244.74,-327.5 173.07,-327.5 142.01,-327.5"/>
<polygon fill="#63b8ff" stroke="#63b8ff" points="283.94,-331 293.94,-327.5 283.94,-324 283.94,-331"/>
</a>
</g>
</g>
<!-- Node18 -->
<g id="Node000018" class="node">
<title>Node18</title>
<g id="a_Node000018"><a xlink:href="../../d3/d61/classchdr_1_1heap_a469d35276d628f97cb8c0fd8962467f5.html#a469d35276d628f97cb8c0fd8962467f5" target="_top" xlink:title="Removes an element from the heap using an iterator while maintaining the heap property.">
<polygon fill="white" stroke="#666666" points="146,-227 106,-227 106,-210 146,-210 146,-227"/>
<text text-anchor="middle" x="126" y="-216.6" font-family="Helvetica,sans-Serif" font-size="8.00">erase</text>
</a>
</g>
</g>
<!-- Node1&#45;&gt;Node18 -->
<g id="edge22_Node000001_Node000018" class="edge">
<title>Node1&#45;&gt;Node18</title>
<g id="a_edge22_Node000001_Node000018"><a xlink:title=" ">
<path fill="none" stroke="#63b8ff" d="M301.86,-309.3C293.6,-291.84 278.76,-266.04 258,-251.5 223.61,-227.42 173.27,-220.88 146.09,-219.12"/>
<polygon fill="#63b8ff" stroke="#63b8ff" points="298.88,-311.21 306.15,-318.92 305.28,-308.36 298.88,-311.21"/>
</a>
</g>
</g>
<!-- Node19 -->
<g id="Node000019" class="node">
<title>Node19</title>
<g id="a_Node000019"><a xlink:href="../../d3/d61/classchdr_1_1heap_a9bb7e9906ed7296a33c7c08c4d0ef800.html#a9bb7e9906ed7296a33c7c08c4d0ef800" target="_top" xlink:title="Reorganises the heap by moving a specified item downward to maintain the heap property.">
<polygon fill="white" stroke="#666666" points="258,-299 199,-299 199,-282 258,-282 258,-299"/>
<text text-anchor="middle" x="228.5" y="-288.6" font-family="Helvetica,sans-Serif" font-size="8.00">sort_down</text>
</a>
</g>
</g>
<!-- Node1&#45;&gt;Node19 -->
<g id="edge24_Node000001_Node000019" class="edge">
<title>Node1&#45;&gt;Node19</title>
<g id="a_edge24_Node000001_Node000019"><a xlink:title=" ">
<path fill="none" stroke="#63b8ff" d="M284.4,-315.89C272.64,-310.45 258.88,-304.09 248.08,-299.09"/>
<polygon fill="#63b8ff" stroke="#63b8ff" points="283.15,-319.17 293.69,-320.19 286.09,-312.82 283.15,-319.17"/>
</a>
</g>
</g>
<!-- Node20 -->
<g id="Node000020" class="node">
<title>Node20</title>
<g id="a_Node000020"><a xlink:href="../../d3/d61/classchdr_1_1heap_ab3bf20f6c00b1d3c85593ed5a5c4c3a1.html#ab3bf20f6c00b1d3c85593ed5a5c4c3a1" target="_top" xlink:title="Adjusts the position of an item in the heap by moving it upwards towards the root.">
<polygon fill="white" stroke="#666666" points="252,-157 205,-157 205,-140 252,-140 252,-157"/>
<text text-anchor="middle" x="228.5" y="-146.6" font-family="Helvetica,sans-Serif" font-size="8.00">sort_up</text>
</a>
</g>
</g>
<!-- Node1&#45;&gt;Node20 -->
<g id="edge31_Node000001_Node000020" class="edge">
<title>Node1&#45;&gt;Node20</title>
<g id="a_edge31_Node000001_Node000020"><a xlink:title=" ">
<path fill="none" stroke="#63b8ff" d="M302.75,-309.28C293.42,-284.55 275.74,-239.11 258,-201.5 250.51,-185.63 240.58,-167.76 234.63,-157.36"/>
<polygon fill="#63b8ff" stroke="#63b8ff" points="299.53,-310.67 306.31,-318.81 306.09,-308.22 299.53,-310.67"/>
</a>
</g>
</g>
<!-- Node5&#45;&gt;Node2 -->
<g id="edge5_Node000005_Node000002" class="edge">
<title>Node5&#45;&gt;Node2</title>
<g id="a_edge5_Node000005_Node000002"><a xlink:title=" ">
<path fill="none" stroke="#63b8ff" d="M210.14,-451.79C197.58,-440.86 179.91,-426.37 163,-415.5 157.47,-411.95 151.15,-408.58 145.36,-405.74"/>
<polygon fill="#63b8ff" stroke="#63b8ff" points="208.14,-454.69 217.95,-458.7 212.78,-449.45 208.14,-454.69"/>
</a>
</g>
</g>
<!-- Node5&#45;&gt;Node3 -->
<g id="edge6_Node000005_Node000003" class="edge">
<title>Node5&#45;&gt;Node3</title>
<g id="a_edge6_Node000005_Node000003"><a xlink:title=" ">
<path fill="none" stroke="#63b8ff" d="M217.89,-449.97C206.74,-430.9 186.79,-400.47 163,-380.5 157.75,-376.1 151.25,-372.43 145.22,-369.58"/>
<polygon fill="#63b8ff" stroke="#63b8ff" points="214.92,-451.82 222.9,-458.79 221.01,-448.36 214.92,-451.82"/>
</a>
</g>
</g>
<!-- Node5&#45;&gt;Node4 -->
<g id="edge10_Node000005_Node000004" class="edge">
<title>Node5&#45;&gt;Node4</title>
<g id="a_edge10_Node000005_Node000004"><a xlink:title=" ">
<path fill="none" stroke="#63b8ff" d="M222.85,-485.86C215.07,-512.82 196.83,-562.91 163,-590.5 131.13,-616.49 82.73,-625.16 53.23,-628.06"/>
<polygon fill="#63b8ff" stroke="#63b8ff" points="226.25,-486.72 225.49,-476.15 219.49,-484.89 226.25,-486.72"/>
</a>
</g>
</g>
<!-- Node6 -->
<g id="Node000006" class="node">
<title>Node6</title>
<g id="a_Node000006"><a xlink:href="../../d3/d61/classchdr_1_1heap_ade547b1803d6a18f179000b440e7ac01.html#ade547b1803d6a18f179000b440e7ac01" target="_top" xlink:title="Retrieves a constant reference to the last element in the heap container.">
<polygon fill="white" stroke="#666666" points="144,-581 108,-581 108,-564 144,-564 144,-581"/>
<text text-anchor="middle" x="126" y="-570.6" font-family="Helvetica,sans-Serif" font-size="8.00">back</text>
</a>
</g>
</g>
<!-- Node5&#45;&gt;Node6 -->
<g id="edge7_Node000005_Node000006" class="edge">
<title>Node5&#45;&gt;Node6</title>
<g id="a_edge7_Node000005_Node000006"><a xlink:title=" ">
<path fill="none" stroke="#63b8ff" d="M218.19,-485.04C207.19,-504.41 187.26,-535.48 163,-555.5 157.45,-560.07 150.47,-563.74 144.14,-566.48"/>
<polygon fill="#63b8ff" stroke="#63b8ff" points="221.36,-486.55 223.11,-476.1 215.23,-483.18 221.36,-486.55"/>
</a>
</g>
</g>
<!-- Node7 -->
<g id="Node000007" class="node">
<title>Node7</title>
<g id="a_Node000007"><a xlink:href="../../d3/d61/classchdr_1_1heap_a7637c774c4326957055fa9634f92f728.html#a7637c774c4326957055fa9634f92f728" target="_top" xlink:title="Retrieves a reference to the last element in the heap container.">
<polygon fill="white" stroke="#666666" points="144,-546 108,-546 108,-529 144,-529 144,-546"/>
<text text-anchor="middle" x="126" y="-535.6" font-family="Helvetica,sans-Serif" font-size="8.00">back</text>
</a>
</g>
</g>
<!-- Node5&#45;&gt;Node7 -->
<g id="edge8_Node000005_Node000007" class="edge">
<title>Node5&#45;&gt;Node7</title>
<g id="a_edge8_Node000005_Node000007"><a xlink:title=" ">
<path fill="none" stroke="#63b8ff" d="M211.06,-482.94C198.52,-494.23 180.48,-509.43 163,-520.5 157.16,-524.2 150.39,-527.6 144.31,-530.37"/>
<polygon fill="#63b8ff" stroke="#63b8ff" points="213.44,-485.51 218.44,-476.18 208.71,-480.35 213.44,-485.51"/>
</a>
</g>
</g>
<!-- Node8 -->
<g id="Node000008" class="node">
<title>Node8</title>
<g id="a_Node000008"><a xlink:href="../../d3/d61/classchdr_1_1heap_aec43d6ff800e89019bacb468a3ca4c2b.html#aec43d6ff800e89019bacb468a3ca4c2b" target="_top" xlink:title="Checks whether the specified item exists in the heap container.">
<polygon fill="white" stroke="#666666" points="152,-511 100,-511 100,-494 152,-494 152,-511"/>
<text text-anchor="middle" x="126" y="-500.6" font-family="Helvetica,sans-Serif" font-size="8.00">contains</text>
</a>
</g>
</g>
<!-- Node5&#45;&gt;Node8 -->
<g id="edge9_Node000005_Node000008" class="edge">
<title>Node5&#45;&gt;Node8</title>
<g id="a_edge9_Node000005_Node000008"><a xlink:title=" ">
<path fill="none" stroke="#63b8ff" d="M197.53,-477.94C182.87,-483.04 165.43,-489.11 151.57,-493.94"/>
<polygon fill="#63b8ff" stroke="#63b8ff" points="198.87,-481.18 207.16,-474.58 196.57,-474.57 198.87,-481.18"/>
</a>
</g>
</g>
<!-- Node5&#45;&gt;Node9 -->
<g id="edge11_Node000005_Node000009" class="edge">
<title>Node5&#45;&gt;Node9</title>
<g id="a_edge11_Node000005_Node000009"><a xlink:title=" ">
<path fill="none" stroke="#63b8ff" d="M221.18,-449.27C210.62,-419.52 188.04,-359.01 163,-310.5 153.77,-292.61 140.69,-273.03 133.1,-262.11"/>
<polygon fill="#63b8ff" stroke="#63b8ff" points="217.9,-450.48 224.51,-458.76 224.5,-448.16 217.9,-450.48"/>
</a>
</g>
</g>
<!-- Node11 -->
<g id="Node000011" class="node">
<title>Node11</title>
<g id="a_Node000011"><a xlink:href="../../d3/d61/classchdr_1_1heap_a2adc794fbb932e87602833ccd8c84e67.html#a2adc794fbb932e87602833ccd8c84e67" target="_top" xlink:title="Finds the first element in the heap not less than the specified value.">
<polygon fill="white" stroke="#666666" points="163,-476 89,-476 89,-459 163,-459 163,-476"/>
<text text-anchor="middle" x="126" y="-465.6" font-family="Helvetica,sans-Serif" font-size="8.00">lower_bounds</text>
</a>
</g>
</g>
<!-- Node5&#45;&gt;Node11 -->
<g id="edge13_Node000005_Node000011" class="edge">
<title>Node5&#45;&gt;Node11</title>
<g id="a_edge13_Node000005_Node000011"><a xlink:title=" ">
<path fill="none" stroke="#63b8ff" d="M197.05,-467.5C186.37,-467.5 174.27,-467.5 163.17,-467.5"/>
<polygon fill="#63b8ff" stroke="#63b8ff" points="197.16,-471 207.16,-467.5 197.16,-464 197.16,-471"/>
</a>
</g>
</g>
<!-- Node5&#45;&gt;Node12 -->
<g id="edge14_Node000005_Node000012" class="edge">
<title>Node5&#45;&gt;Node12</title>
<g id="a_edge14_Node000005_Node000012"><a xlink:title=" ">
<path fill="none" stroke="#63b8ff" d="M221.88,-449.33C213.06,-423.38 193.73,-375.54 163,-345.5 157.2,-339.83 149.27,-335.61 142.32,-332.68"/>
<polygon fill="#63b8ff" stroke="#63b8ff" points="218.6,-450.56 225.02,-458.99 225.26,-448.4 218.6,-450.56"/>
</a>
</g>
</g>
<!-- Node13 -->
<g id="Node000013" class="node">
<title>Node13</title>
<g id="a_Node000013"><a xlink:href="../../d3/d61/classchdr_1_1heap_a90957d02dbdc1afa0c6dc61861842f4e.html#a90957d02dbdc1afa0c6dc61861842f4e" target="_top" xlink:title="Removes the last element from the heap.">
<polygon fill="white" stroke="#666666" points="154,-441 98,-441 98,-424 154,-424 154,-441"/>
<text text-anchor="middle" x="126" y="-430.6" font-family="Helvetica,sans-Serif" font-size="8.00">pop_back</text>
</a>
</g>
</g>
<!-- Node5&#45;&gt;Node13 -->
<g id="edge15_Node000005_Node000013" class="edge">
<title>Node5&#45;&gt;Node13</title>
<g id="a_edge15_Node000005_Node000013"><a xlink:title=" ">
<path fill="none" stroke="#63b8ff" d="M197.53,-457.06C182.87,-451.96 165.43,-445.89 151.57,-441.06"/>
<polygon fill="#63b8ff" stroke="#63b8ff" points="196.57,-460.43 207.16,-460.42 198.87,-453.82 196.57,-460.43"/>
</a>
</g>
</g>
<!-- Node14 -->
<g id="Node000014" class="node">
<title>Node14</title>
<g id="a_Node000014"><a xlink:href="../../d3/d61/classchdr_1_1heap_a39b39a0753d600546b92d146681c30f5.html#a39b39a0753d600546b92d146681c30f5" target="_top" xlink:title="Retrieves a constant element to the top element of the heap.">
<polygon fill="white" stroke="#666666" points="141,-655 111,-655 111,-638 141,-638 141,-655"/>
<text text-anchor="middle" x="126" y="-644.6" font-family="Helvetica,sans-Serif" font-size="8.00">top</text>
</a>
</g>
</g>
<!-- Node5&#45;&gt;Node14 -->
<g id="edge16_Node000005_Node000014" class="edge">
<title>Node5&#45;&gt;Node14</title>
<g id="a_edge16_Node000005_Node000014"><a xlink:title=" ">
<path fill="none" stroke="#63b8ff" d="M223.64,-486.22C216.39,-517.59 198.19,-581.48 163,-623.5 157.1,-630.55 148.46,-636.17 141.13,-640.08"/>
<polygon fill="#63b8ff" stroke="#63b8ff" points="227.11,-486.75 225.83,-476.23 220.27,-485.25 227.11,-486.75"/>
</a>
</g>
</g>
<!-- Node15 -->
<g id="Node000015" class="node">
<title>Node15</title>
<g id="a_Node000015"><a xlink:href="../../d3/d61/classchdr_1_1heap_a20a753362275d34a67d855ce0105fab7.html#a20a753362275d34a67d855ce0105fab7" target="_top" xlink:title="Retrieves a reference to the top element of the heap.">
<polygon fill="white" stroke="#666666" points="141,-729 111,-729 111,-712 141,-712 141,-729"/>
<text text-anchor="middle" x="126" y="-718.6" font-family="Helvetica,sans-Serif" font-size="8.00">top</text>
</a>
</g>
</g>
<!-- Node5&#45;&gt;Node15 -->
<g id="edge17_Node000005_Node000015" class="edge">
<title>Node5&#45;&gt;Node15</title>
<g id="a_edge17_Node000005_Node000015"><a xlink:title=" ">
<path fill="none" stroke="#63b8ff" d="M223.14,-485.97C214.36,-521.57 192.84,-601.74 163,-664.5 154.56,-682.24 141.46,-701.12 133.6,-711.79"/>
<polygon fill="#63b8ff" stroke="#63b8ff" points="226.59,-486.59 225.53,-476.05 219.78,-484.95 226.59,-486.59"/>
</a>
</g>
</g>
<!-- Node10 -->
<g id="Node000010" class="node">
<title>Node10</title>
<g id="a_Node000010"><a xlink:href="../../d3/d61/classchdr_1_1heap_acb6d4e6f53bcd4c93d386def0bd8be31.html#acb6d4e6f53bcd4c93d386def0bd8be31" target="_top" xlink:title="Removes all elements in a given range from the heap while maintaining the heap property.">
<polygon fill="white" stroke="#666666" points="46.5,-262 6.5,-262 6.5,-245 46.5,-245 46.5,-262"/>
<text text-anchor="middle" x="26.5" y="-251.6" font-family="Helvetica,sans-Serif" font-size="8.00">erase</text>
</a>
</g>
</g>
<!-- Node9&#45;&gt;Node10 -->
<g id="edge12_Node000009_Node000010" class="edge">
<title>Node9&#45;&gt;Node10</title>
<g id="a_edge12_Node000009_Node000010"><a xlink:title=" ">
<path fill="none" stroke="#63b8ff" d="M95.41,-253.5C79.6,-253.5 60.6,-253.5 46.72,-253.5"/>
<polygon fill="#63b8ff" stroke="#63b8ff" points="95.74,-257 105.74,-253.5 95.74,-250 95.74,-257"/>
</a>
</g>
</g>
<!-- Node15&#45;&gt;Node4 -->
<g id="edge18_Node000015_Node000004" class="edge">
<title>Node15&#45;&gt;Node4</title>
<g id="a_edge18_Node000015_Node000004"><a xlink:title=" ">
<path fill="none" stroke="#63b8ff" d="M102.24,-707.27C97.7,-704.27 93.07,-700.94 89,-697.5 66.64,-678.59 44.65,-651.73 34.05,-638.12"/>
<polygon fill="#63b8ff" stroke="#63b8ff" points="100.39,-710.24 110.72,-712.58 104.11,-704.3 100.39,-710.24"/>
</a>
</g>
</g>
<!-- Node16 -->
<g id="Node000016" class="node">
<title>Node16</title>
<g id="a_Node000016"><a xlink:href="../../d3/d61/classchdr_1_1heap_a66ae5a391f699d2e564c2545ab9c6d82.html#a66ae5a391f699d2e564c2545ab9c6d82" target="_top" xlink:title="Retrieves a constant reference to the front element of the heap.">
<polygon fill="white" stroke="#666666" points="44.5,-746 8.5,-746 8.5,-729 44.5,-729 44.5,-746"/>
<text text-anchor="middle" x="26.5" y="-735.6" font-family="Helvetica,sans-Serif" font-size="8.00">front</text>
</a>
</g>
</g>
<!-- Node15&#45;&gt;Node16 -->
<g id="edge19_Node000015_Node000016" class="edge">
<title>Node15&#45;&gt;Node16</title>
<g id="a_edge19_Node000015_Node000016"><a xlink:title=" ">
<path fill="none" stroke="#63b8ff" d="M100.59,-724.76C83.13,-727.8 60.08,-731.82 44.57,-734.52"/>
<polygon fill="#63b8ff" stroke="#63b8ff" points="101.36,-728.17 110.61,-723.01 100.16,-721.28 101.36,-728.17"/>
</a>
</g>
</g>
<!-- Node17 -->
<g id="Node000017" class="node">
<title>Node17</title>
<g id="a_Node000017"><a xlink:href="../../d3/d61/classchdr_1_1heap_acbf9b62bac7333654c7862dc8cfd1e48.html#acbf9b62bac7333654c7862dc8cfd1e48" target="_top" xlink:title="Retrieves a reference to the front element of the heap.">
<polygon fill="white" stroke="#666666" points="44.5,-711 8.5,-711 8.5,-694 44.5,-694 44.5,-711"/>
<text text-anchor="middle" x="26.5" y="-700.6" font-family="Helvetica,sans-Serif" font-size="8.00">front</text>
</a>
</g>
</g>
<!-- Node15&#45;&gt;Node17 -->
<g id="edge20_Node000015_Node000017" class="edge">
<title>Node15&#45;&gt;Node17</title>
<g id="a_edge20_Node000015_Node000017"><a xlink:title=" ">
<path fill="none" stroke="#63b8ff" d="M100.59,-715.99C83.13,-712.77 60.08,-708.52 44.57,-705.65"/>
<polygon fill="#63b8ff" stroke="#63b8ff" points="100.14,-719.47 110.61,-717.84 101.42,-712.59 100.14,-719.47"/>
</a>
</g>
</g>
<!-- Node19&#45;&gt;Node2 -->
<g id="edge25_Node000019_Node000002" class="edge">
<title>Node19&#45;&gt;Node2</title>
<g id="a_edge25_Node000019_Node000002"><a xlink:title=" ">
<path fill="none" stroke="#63b8ff" d="M218.6,-307.88C207.75,-327.65 187.75,-359.86 163,-380.5 157.8,-384.84 151.3,-388.35 145.27,-391.02"/>
<polygon fill="#63b8ff" stroke="#63b8ff" points="221.7,-309.51 223.3,-299.04 215.52,-306.23 221.7,-309.51"/>
</a>
</g>
</g>
<!-- Node19&#45;&gt;Node3 -->
<g id="edge26_Node000019_Node000003" class="edge">
<title>Node19&#45;&gt;Node3</title>
<g id="a_edge26_Node000019_Node000003"><a xlink:title=" ">
<path fill="none" stroke="#63b8ff" d="M211.58,-306.18C199.08,-317.95 180.85,-333.97 163,-345.5 157.43,-349.1 150.97,-352.39 145.08,-355.1"/>
<polygon fill="#63b8ff" stroke="#63b8ff" points="214.12,-308.59 218.91,-299.14 209.28,-303.54 214.12,-308.59"/>
</a>
</g>
</g>
<!-- Node19&#45;&gt;Node4 -->
<g id="edge27_Node000019_Node000004" class="edge">
<title>Node19&#45;&gt;Node4</title>
<g id="a_edge27_Node000019_Node000004"><a xlink:title=" ">
<path fill="none" stroke="#63b8ff" d="M188.67,-284.95C157.64,-282.85 115.14,-285.56 89,-310.5 42.38,-354.98 29.99,-574.2 27.86,-620.79"/>
<polygon fill="#63b8ff" stroke="#63b8ff" points="188.45,-288.45 198.72,-285.83 189.06,-281.47 188.45,-288.45"/>
</a>
</g>
</g>
<!-- Node19&#45;&gt;Node9 -->
<g id="edge28_Node000019_Node000009" class="edge">
<title>Node19&#45;&gt;Node9</title>
<g id="a_edge28_Node000019_Node000009"><a xlink:title=" ">
<path fill="none" stroke="#63b8ff" d="M194.61,-278.39C178.56,-272.48 159.82,-265.58 146.14,-260.55"/>
<polygon fill="#63b8ff" stroke="#63b8ff" points="193.6,-281.75 204.19,-281.92 196.02,-275.18 193.6,-281.75"/>
</a>
</g>
</g>
<!-- Node19&#45;&gt;Node12 -->
<g id="edge30_Node000019_Node000012" class="edge">
<title>Node19&#45;&gt;Node12</title>
<g id="a_edge30_Node000019_Node000012"><a xlink:title=" ">
<path fill="none" stroke="#63b8ff" d="M194.75,-302.56C177.01,-309.09 155.95,-316.84 142.07,-321.95"/>
<polygon fill="#63b8ff" stroke="#63b8ff" points="196.02,-305.82 204.19,-299.08 193.6,-299.25 196.02,-305.82"/>
</a>
</g>
</g>
<!-- Node19&#45;&gt;Node18 -->
<g id="edge29_Node000019_Node000018" class="edge">
<title>Node19&#45;&gt;Node18</title>
<g id="a_edge29_Node000019_Node000018"><a xlink:title=" ">
<path fill="none" stroke="#63b8ff" d="M211.03,-274.85C198.48,-263.4 180.43,-247.93 163,-236.5 157.74,-233.05 151.73,-229.8 146.15,-227.04"/>
<polygon fill="#63b8ff" stroke="#63b8ff" points="208.72,-277.48 218.43,-281.72 213.48,-272.35 208.72,-277.48"/>
</a>
</g>
</g>
<!-- Node20&#45;&gt;Node9 -->
<g id="edge34_Node000020_Node000009" class="edge">
<title>Node20&#45;&gt;Node9</title>
<g id="a_edge34_Node000020_Node000009"><a xlink:title=" ">
<path fill="none" stroke="#63b8ff" d="M218.19,-166.04C207.19,-185.41 187.26,-216.48 163,-236.5 158.09,-240.55 152.07,-243.88 146.35,-246.49"/>
<polygon fill="#63b8ff" stroke="#63b8ff" points="221.36,-167.55 223.11,-157.1 215.23,-164.18 221.36,-167.55"/>
</a>
</g>
</g>
<!-- Node20&#45;&gt;Node18 -->
<g id="edge35_Node000020_Node000018" class="edge">
<title>Node20&#45;&gt;Node18</title>
<g id="a_edge35_Node000020_Node000018"><a xlink:title=" ">
<path fill="none" stroke="#63b8ff" d="M210.14,-164.21C197.58,-175.14 179.91,-189.63 163,-200.5 157.71,-203.9 151.69,-207.13 146.11,-209.9"/>
<polygon fill="#63b8ff" stroke="#63b8ff" points="212.78,-166.55 217.95,-157.3 208.14,-161.31 212.78,-166.55"/>
</a>
</g>
</g>
<!-- Node21 -->
<g id="Node000021" class="node">
<title>Node21</title>
<g id="a_Node000021"><a xlink:href="../../d3/d61/classchdr_1_1heap_add55c8b8d3e3d6419e57210d3313fd09.html#add55c8b8d3e3d6419e57210d3313fd09" target="_top" xlink:title="Adds a new element to the heap container using perfect forwarding.">
<polygon fill="white" stroke="#666666" points="152,-192 100,-192 100,-175 152,-175 152,-192"/>
<text text-anchor="middle" x="126" y="-181.6" font-family="Helvetica,sans-Serif" font-size="8.00">emplace</text>
</a>
</g>
</g>
<!-- Node20&#45;&gt;Node21 -->
<g id="edge32_Node000020_Node000021" class="edge">
<title>Node20&#45;&gt;Node21</title>
<g id="a_edge32_Node000020_Node000021"><a xlink:title=" ">
<path fill="none" stroke="#63b8ff" d="M195.12,-159.78C180.99,-164.7 164.7,-170.37 151.59,-174.94"/>
<polygon fill="#63b8ff" stroke="#63b8ff" points="196.65,-162.95 204.95,-156.35 194.35,-156.34 196.65,-162.95"/>
</a>
</g>
</g>
<!-- Node23 -->
<g id="Node000023" class="node">
<title>Node23</title>
<g id="a_Node000023"><a xlink:href="../../d3/d61/classchdr_1_1heap_a5a2024fa8b956ddb73b0dff9565468f2.html#a5a2024fa8b956ddb73b0dff9565468f2" target="_top" xlink:title="Inserts a range of elements into the heap.">
<polygon fill="white" stroke="#666666" points="146,-157 106,-157 106,-140 146,-140 146,-157"/>
<text text-anchor="middle" x="126" y="-146.6" font-family="Helvetica,sans-Serif" font-size="8.00">insert</text>
</a>
</g>
</g>
<!-- Node20&#45;&gt;Node23 -->
<g id="edge36_Node000020_Node000023" class="edge">
<title>Node20&#45;&gt;Node23</title>
<g id="a_edge36_Node000020_Node000023"><a xlink:title=" ">
<path fill="none" stroke="#63b8ff" d="M194.84,-148.5C178.72,-148.5 159.84,-148.5 146.1,-148.5"/>
<polygon fill="#63b8ff" stroke="#63b8ff" points="194.95,-152 204.95,-148.5 194.95,-145 194.95,-152"/>
</a>
</g>
</g>
<!-- Node24 -->
<g id="Node000024" class="node">
<title>Node24</title>
<g id="a_Node000024"><a xlink:href="../../d3/d61/classchdr_1_1heap_a5dfd7f9a4ad6a51dfb81d4da0f5ec261.html#a5dfd7f9a4ad6a51dfb81d4da0f5ec261" target="_top" xlink:title="Inserts an element into the heap while maintaining the heap property.">
<polygon fill="white" stroke="#666666" points="146,-122 106,-122 106,-105 146,-105 146,-122"/>
<text text-anchor="middle" x="126" y="-111.6" font-family="Helvetica,sans-Serif" font-size="8.00">insert</text>
</a>
</g>
</g>
<!-- Node20&#45;&gt;Node24 -->
<g id="edge37_Node000020_Node000024" class="edge">
<title>Node20&#45;&gt;Node24</title>
<g id="a_edge37_Node000020_Node000024"><a xlink:title=" ">
<path fill="none" stroke="#63b8ff" d="M195.3,-137.28C179.08,-131.64 159.97,-124.98 146.1,-120.15"/>
<polygon fill="#63b8ff" stroke="#63b8ff" points="194.35,-140.66 204.95,-140.65 196.65,-134.05 194.35,-140.66"/>
</a>
</g>
</g>
<!-- Node25 -->
<g id="Node000025" class="node">
<title>Node25</title>
<g id="a_Node000025"><a xlink:href="../../d3/d61/classchdr_1_1heap_a45a566405e1e982fe89c9eab9315e0ce.html#a45a566405e1e982fe89c9eab9315e0ce" target="_top" xlink:title="Moves an element into the heap while maintaining the heap property.">
<polygon fill="white" stroke="#666666" points="146,-87 106,-87 106,-70 146,-70 146,-87"/>
<text text-anchor="middle" x="126" y="-76.6" font-family="Helvetica,sans-Serif" font-size="8.00">insert</text>
</a>
</g>
</g>
<!-- Node20&#45;&gt;Node25 -->
<g id="edge38_Node000020_Node000025" class="edge">
<title>Node20&#45;&gt;Node25</title>
<g id="a_edge38_Node000020_Node000025"><a xlink:title=" ">
<path fill="none" stroke="#63b8ff" d="M211.06,-133.06C198.52,-121.77 180.48,-106.57 163,-95.5 157.74,-92.17 151.73,-89.08 146.15,-86.48"/>
<polygon fill="#63b8ff" stroke="#63b8ff" points="208.71,-135.65 218.44,-139.82 213.44,-130.49 208.71,-135.65"/>
</a>
</g>
</g>
<!-- Node26 -->
<g id="Node000026" class="node">
<title>Node26</title>
<g id="a_Node000026"><a xlink:href="../../d3/d61/classchdr_1_1heap_afb62bdc27151ccbc8d7d8ceb30c24d6e.html#afb62bdc27151ccbc8d7d8ceb30c24d6e" target="_top" xlink:title="Adds an item to the heap.">
<polygon fill="white" stroke="#666666" points="144.5,-52 107.5,-52 107.5,-35 144.5,-35 144.5,-52"/>
<text text-anchor="middle" x="126" y="-41.6" font-family="Helvetica,sans-Serif" font-size="8.00">push</text>
</a>
</g>
</g>
<!-- Node20&#45;&gt;Node26 -->
<g id="edge39_Node000020_Node000026" class="edge">
<title>Node20&#45;&gt;Node26</title>
<g id="a_edge39_Node000020_Node000026"><a xlink:title=" ">
<path fill="none" stroke="#63b8ff" d="M218.19,-130.96C207.19,-111.59 187.26,-80.52 163,-60.5 157.56,-56.01 150.74,-52.4 144.5,-49.68"/>
<polygon fill="#63b8ff" stroke="#63b8ff" points="215.23,-132.82 223.11,-139.9 221.36,-129.45 215.23,-132.82"/>
</a>
</g>
</g>
<!-- Node28 -->
<g id="Node000028" class="node">
<title>Node28</title>
<g id="a_Node000028"><a xlink:href="../../d3/d61/classchdr_1_1heap_a10d3601db17d387e5fb4e8b45c2304e0.html#a10d3601db17d387e5fb4e8b45c2304e0" target="_top" xlink:title="Adds an item to the heap using move semantics.">
<polygon fill="white" stroke="#666666" points="144.5,-17 107.5,-17 107.5,0 144.5,0 144.5,-17"/>
<text text-anchor="middle" x="126" y="-6.6" font-family="Helvetica,sans-Serif" font-size="8.00">push</text>
</a>
</g>
</g>
<!-- Node20&#45;&gt;Node28 -->
<g id="edge41_Node000020_Node000028" class="edge">
<title>Node20&#45;&gt;Node28</title>
<g id="a_edge41_Node000020_Node000028"><a xlink:title=" ">
<path fill="none" stroke="#63b8ff" d="M222.01,-130.08C213.35,-103.81 194.22,-55.44 163,-25.5 157.81,-20.52 150.9,-16.79 144.52,-14.1"/>
<polygon fill="#63b8ff" stroke="#63b8ff" points="218.75,-131.38 225.09,-139.87 225.43,-129.28 218.75,-131.38"/>
</a>
</g>
</g>
<!-- Node22 -->
<g id="Node000022" class="node">
<title>Node22</title>
<g id="a_Node000022"><a xlink:href="../../d3/d61/classchdr_1_1heap_a3158f1bf4c4c1af0c65d6de220dd92d2.html#a3158f1bf4c4c1af0c65d6de220dd92d2" target="_top" xlink:title="Adds a new element to the heap container using perfect forwarding.">
<polygon fill="white" stroke="#666666" points="53,-192 0,-192 0,-175 53,-175 53,-192"/>
<text text-anchor="middle" x="26.5" y="-181.6" font-family="Helvetica,sans-Serif" font-size="8.00">enqueue</text>
</a>
</g>
</g>
<!-- Node21&#45;&gt;Node22 -->
<g id="edge33_Node000021_Node000022" class="edge">
<title>Node21&#45;&gt;Node22</title>
<g id="a_edge33_Node000021_Node000022"><a xlink:title=" ">
<path fill="none" stroke="#63b8ff" d="M89.68,-183.5C77.62,-183.5 64.36,-183.5 53.2,-183.5"/>
<polygon fill="#63b8ff" stroke="#63b8ff" points="89.89,-187 99.89,-183.5 89.89,-180 89.89,-187"/>
</a>
</g>
</g>
<!-- Node27 -->
<g id="Node000027" class="node">
<title>Node27</title>
<g id="a_Node000027"><a xlink:href="../../d3/d61/classchdr_1_1heap_a5ac97b41f6cd96503adb0f7a3807cbe5.html#a5ac97b41f6cd96503adb0f7a3807cbe5" target="_top" xlink:title="Adds an item to the heap.">
<polygon fill="white" stroke="#666666" points="53,-52 0,-52 0,-35 53,-35 53,-52"/>
<text text-anchor="middle" x="26.5" y="-41.6" font-family="Helvetica,sans-Serif" font-size="8.00">enqueue</text>
</a>
</g>
</g>
<!-- Node26&#45;&gt;Node27 -->
<g id="edge40_Node000026_Node000027" class="edge">
<title>Node26&#45;&gt;Node27</title>
<g id="a_edge40_Node000026_Node000027"><a xlink:title=" ">
<path fill="none" stroke="#63b8ff" d="M96.8,-43.5C83.09,-43.5 66.73,-43.5 53.35,-43.5"/>
<polygon fill="#63b8ff" stroke="#63b8ff" points="97.12,-47 107.12,-43.5 97.12,-40 97.12,-47"/>
</a>
</g>
</g>
</g>
</svg>
