<?xml version="1.0" encoding="UTF-8" standalone="no"?>
<!DOCTYPE svg PUBLIC "-//W3C//DTD SVG 1.1//EN"
 "http://www.w3.org/Graphics/SVG/1.1/DTD/svg11.dtd">
<!-- Generated by graphviz version 2.43.0 (0)
 -->
<!-- Title: empty Pages: 1 -->
<svg width="233pt" height="431pt"
 viewBox="0.00 0.00 233.00 431.00" xmlns="http://www.w3.org/2000/svg" xmlns:xlink="http://www.w3.org/1999/xlink">
<g id="graph0" class="graph" transform="scale(1 1) rotate(0) translate(4 427)">
<title>empty</title>
<!-- Node1 -->
<g id="Node000001" class="node">
<title>Node1</title>
<g id="a_Node000001"><a xlink:title="Checks if the heap is empty.">
<polygon fill="#999999" stroke="#666666" points="225,-229 187,-229 187,-212 225,-212 225,-229"/>
<text text-anchor="middle" x="206" y="-218.6" font-family="Helvetica,sans-Serif" font-size="8.00">empty</text>
</a>
</g>
</g>
<!-- Node2 -->
<g id="Node000002" class="node">
<title>Node2</title>
<g id="a_Node000002"><a xlink:href="../../d3/d61/classchdr_1_1heap_adf4e3bffff56ce9f6c2ca6a36d40a725.html#adf4e3bffff56ce9f6c2ca6a36d40a725" target="_top" xlink:title="Constructs a heap from a collection of elements.">
<polygon fill="white" stroke="#666666" points="135,-423 100,-423 100,-406 135,-406 135,-423"/>
<text text-anchor="middle" x="117.5" y="-412.6" font-family="Helvetica,sans-Serif" font-size="8.00">heap</text>
</a>
</g>
</g>
<!-- Node1&#45;&gt;Node2 -->
<g id="edge1_Node000001_Node000002" class="edge">
<title>Node1&#45;&gt;Node2</title>
<g id="a_edge1_Node000001_Node000002"><a xlink:title=" ">
<path fill="none" stroke="#63b8ff" d="M203.92,-239.6C201,-274.7 190.25,-350.18 151,-397.5 146.85,-402.5 140.85,-406.21 135.13,-408.87"/>
<polygon fill="#63b8ff" stroke="#63b8ff" points="207.43,-239.57 204.64,-229.35 200.45,-239.08 207.43,-239.57"/>
</a>
</g>
</g>
<!-- Node3 -->
<g id="Node000003" class="node">
<title>Node3</title>
<g id="a_Node000003"><a xlink:href="../../d3/d61/classchdr_1_1heap_a115a6b02da0ef70b6e9cf66736b45b27.html#a115a6b02da0ef70b6e9cf66736b45b27" target="_top" xlink:title="Constructs a heap from a collection of elements with move semantics.">
<polygon fill="white" stroke="#666666" points="135,-388 100,-388 100,-371 135,-371 135,-388"/>
<text text-anchor="middle" x="117.5" y="-377.6" font-family="Helvetica,sans-Serif" font-size="8.00">heap</text>
</a>
</g>
</g>
<!-- Node1&#45;&gt;Node3 -->
<g id="edge2_Node000001_Node000003" class="edge">
<title>Node1&#45;&gt;Node3</title>
<g id="a_edge2_Node000001_Node000003"><a xlink:title=" ">
<path fill="none" stroke="#63b8ff" d="M202.2,-239.45C196.97,-268.96 183.16,-326.29 151,-362.5 146.77,-367.26 140.89,-370.9 135.29,-373.56"/>
<polygon fill="#63b8ff" stroke="#63b8ff" points="205.71,-239.71 203.86,-229.28 198.8,-238.59 205.71,-239.71"/>
</a>
</g>
</g>
<!-- Node4 -->
<g id="Node000004" class="node">
<title>Node4</title>
<g id="a_Node000004"><a xlink:href="../../d3/d61/classchdr_1_1heap_ade547b1803d6a18f179000b440e7ac01.html#ade547b1803d6a18f179000b440e7ac01" target="_top" xlink:title="Retrieves a constant reference to the last element in the heap container.">
<polygon fill="white" stroke="#666666" points="134,-353 101,-353 101,-336 134,-336 134,-353"/>
<text text-anchor="middle" x="117.5" y="-342.6" font-family="Helvetica,sans-Serif" font-size="8.00">back</text>
</a>
</g>
</g>
<!-- Node1&#45;&gt;Node4 -->
<g id="edge3_Node000001_Node000004" class="edge">
<title>Node1&#45;&gt;Node4</title>
<g id="a_edge3_Node000001_Node000004"><a xlink:title=" ">
<path fill="none" stroke="#63b8ff" d="M199.69,-238.66C192.14,-261.77 176.34,-301.78 151,-327.5 146.26,-332.31 139.88,-336.05 134.02,-338.78"/>
<polygon fill="#63b8ff" stroke="#63b8ff" points="203.04,-239.66 202.66,-229.07 196.36,-237.59 203.04,-239.66"/>
</a>
</g>
</g>
<!-- Node5 -->
<g id="Node000005" class="node">
<title>Node5</title>
<g id="a_Node000005"><a xlink:href="../../d3/d61/classchdr_1_1heap_a7637c774c4326957055fa9634f92f728.html#a7637c774c4326957055fa9634f92f728" target="_top" xlink:title="Retrieves a reference to the last element in the heap container.">
<polygon fill="white" stroke="#666666" points="134,-318 101,-318 101,-301 134,-301 134,-318"/>
<text text-anchor="middle" x="117.5" y="-307.6" font-family="Helvetica,sans-Serif" font-size="8.00">back</text>
</a>
</g>
</g>
<!-- Node1&#45;&gt;Node5 -->
<g id="edge4_Node000001_Node000005" class="edge">
<title>Node1&#45;&gt;Node5</title>
<g id="a_edge4_Node000001_Node000005"><a xlink:title=" ">
<path fill="none" stroke="#63b8ff" d="M195.16,-237.74C185.5,-253.52 169.53,-276.74 151,-292.5 146.05,-296.71 139.89,-300.26 134.26,-303.01"/>
<polygon fill="#63b8ff" stroke="#63b8ff" points="198.25,-239.4 200.33,-229.01 192.22,-235.83 198.25,-239.4"/>
</a>
</g>
</g>
<!-- Node6 -->
<g id="Node000006" class="node">
<title>Node6</title>
<g id="a_Node000006"><a xlink:href="../../d3/d61/classchdr_1_1heap_aec43d6ff800e89019bacb468a3ca4c2b.html#aec43d6ff800e89019bacb468a3ca4c2b" target="_top" xlink:title="Checks whether the specified item exists in the heap container.">
<polygon fill="white" stroke="#666666" points="140.5,-283 94.5,-283 94.5,-266 140.5,-266 140.5,-283"/>
<text text-anchor="middle" x="117.5" y="-272.6" font-family="Helvetica,sans-Serif" font-size="8.00">contains</text>
</a>
</g>
</g>
<!-- Node1&#45;&gt;Node6 -->
<g id="edge5_Node000001_Node000006" class="edge">
<title>Node1&#45;&gt;Node6</title>
<g id="a_edge5_Node000001_Node000006"><a xlink:title=" ">
<path fill="none" stroke="#63b8ff" d="M184.84,-235.16C174.84,-242.2 162.48,-250.6 151,-257.5 146.2,-260.39 140.86,-263.3 135.91,-265.88"/>
<polygon fill="#63b8ff" stroke="#63b8ff" points="187.15,-237.8 193.26,-229.15 183.08,-232.11 187.15,-237.8"/>
</a>
</g>
</g>
<!-- Node7 -->
<g id="Node000007" class="node">
<title>Node7</title>
<g id="a_Node000007"><a xlink:href="../../d3/d61/classchdr_1_1heap_acc864476d3a1311f187c3290d0b161aa.html#acc864476d3a1311f187c3290d0b161aa" target="_top" xlink:title="Removes and returns the top element from the heap.">
<polygon fill="white" stroke="#666666" points="48,-149 0,-149 0,-132 48,-132 48,-149"/>
<text text-anchor="middle" x="24" y="-138.6" font-family="Helvetica,sans-Serif" font-size="8.00">dequeue</text>
</a>
</g>
</g>
<!-- Node1&#45;&gt;Node7 -->
<g id="edge6_Node000001_Node000007" class="edge">
<title>Node1&#45;&gt;Node7</title>
<g id="a_edge6_Node000001_Node000007"><a xlink:title=" ">
<path fill="none" stroke="#63b8ff" d="M176.66,-214.66C151.48,-208.82 114.09,-198.53 84,-183.5 65.18,-174.1 45.96,-158.81 34.77,-149.22"/>
<polygon fill="#63b8ff" stroke="#63b8ff" points="176.13,-218.13 186.65,-216.89 177.66,-211.3 176.13,-218.13"/>
</a>
</g>
</g>
<!-- Node8 -->
<g id="Node000008" class="node">
<title>Node8</title>
<g id="a_Node000008"><a xlink:href="../../d3/d61/classchdr_1_1heap_a5ff8da78f62646f1ca68dae37f04ed8f.html#a5ff8da78f62646f1ca68dae37f04ed8f" target="_top" xlink:title="Removes a specified item from the heap, restoring the heap property after removal.">
<polygon fill="white" stroke="#666666" points="136,-248 99,-248 99,-231 136,-231 136,-248"/>
<text text-anchor="middle" x="117.5" y="-237.6" font-family="Helvetica,sans-Serif" font-size="8.00">erase</text>
</a>
</g>
</g>
<!-- Node1&#45;&gt;Node8 -->
<g id="edge7_Node000001_Node000008" class="edge">
<title>Node1&#45;&gt;Node8</title>
<g id="a_edge7_Node000001_Node000008"><a xlink:title=" ">
<path fill="none" stroke="#63b8ff" d="M176.56,-226.75C163.26,-229.67 147.83,-233.06 136.23,-235.61"/>
<polygon fill="#63b8ff" stroke="#63b8ff" points="177.64,-230.09 186.66,-224.53 176.14,-223.26 177.64,-230.09"/>
</a>
</g>
</g>
<!-- Node10 -->
<g id="Node000010" class="node">
<title>Node10</title>
<g id="a_Node000010"><a xlink:href="../../d3/d61/classchdr_1_1heap_a2adc794fbb932e87602833ccd8c84e67.html#a2adc794fbb932e87602833ccd8c84e67" target="_top" xlink:title="Finds the first element in the heap not less than the specified value.">
<polygon fill="white" stroke="#666666" points="151,-174 84,-174 84,-157 151,-157 151,-174"/>
<text text-anchor="middle" x="117.5" y="-163.6" font-family="Helvetica,sans-Serif" font-size="8.00">lower_bounds</text>
</a>
</g>
</g>
<!-- Node1&#45;&gt;Node10 -->
<g id="edge9_Node000001_Node000010" class="edge">
<title>Node1&#45;&gt;Node10</title>
<g id="a_edge9_Node000001_Node000010"><a xlink:title=" ">
<path fill="none" stroke="#63b8ff" d="M182.71,-206.32C166.63,-196.11 145.47,-182.65 131.92,-174.03"/>
<polygon fill="#63b8ff" stroke="#63b8ff" points="181.17,-209.49 191.48,-211.91 184.92,-203.59 181.17,-209.49"/>
</a>
</g>
</g>
<!-- Node11 -->
<g id="Node000011" class="node">
<title>Node11</title>
<g id="a_Node000011"><a xlink:href="../../d3/d61/classchdr_1_1heap_a274dca2a1d2c68ff3249f37b3ae410d5.html#a274dca2a1d2c68ff3249f37b3ae410d5" target="_top" xlink:title="Removes the top element from the heap and maintains the heap property.">
<polygon fill="white" stroke="#666666" points="132.5,-139 102.5,-139 102.5,-122 132.5,-122 132.5,-139"/>
<text text-anchor="middle" x="117.5" y="-128.6" font-family="Helvetica,sans-Serif" font-size="8.00">pop</text>
</a>
</g>
</g>
<!-- Node1&#45;&gt;Node11 -->
<g id="edge10_Node000001_Node000011" class="edge">
<title>Node1&#45;&gt;Node11</title>
<g id="a_edge10_Node000001_Node000011"><a xlink:title=" ">
<path fill="none" stroke="#63b8ff" d="M194.76,-202.85C185.01,-187.16 169.15,-164.31 151,-148.5 145.55,-143.76 138.65,-139.72 132.61,-136.68"/>
<polygon fill="#63b8ff" stroke="#63b8ff" points="191.86,-204.81 200.01,-211.58 197.85,-201.2 191.86,-204.81"/>
</a>
</g>
</g>
<!-- Node12 -->
<g id="Node000012" class="node">
<title>Node12</title>
<g id="a_Node000012"><a xlink:href="../../d3/d61/classchdr_1_1heap_a90957d02dbdc1afa0c6dc61861842f4e.html#a90957d02dbdc1afa0c6dc61861842f4e" target="_top" xlink:title="Removes the last element from the heap.">
<polygon fill="white" stroke="#666666" points="143,-104 92,-104 92,-87 143,-87 143,-104"/>
<text text-anchor="middle" x="117.5" y="-93.6" font-family="Helvetica,sans-Serif" font-size="8.00">pop_back</text>
</a>
</g>
</g>
<!-- Node1&#45;&gt;Node12 -->
<g id="edge11_Node000001_Node000012" class="edge">
<title>Node1&#45;&gt;Node12</title>
<g id="a_edge11_Node000001_Node000012"><a xlink:title=" ">
<path fill="none" stroke="#63b8ff" d="M199.73,-202.17C192.23,-178.84 176.48,-138.46 151,-112.5 147.79,-109.23 143.81,-106.45 139.76,-104.15"/>
<polygon fill="#63b8ff" stroke="#63b8ff" points="196.42,-203.31 202.68,-211.85 203.11,-201.26 196.42,-203.31"/>
</a>
</g>
</g>
<!-- Node13 -->
<g id="Node000013" class="node">
<title>Node13</title>
<g id="a_Node000013"><a xlink:href="../../d3/d61/classchdr_1_1heap_a39b39a0753d600546b92d146681c30f5.html#a39b39a0753d600546b92d146681c30f5" target="_top" xlink:title="Retrieves a constant element to the top element of the heap.">
<polygon fill="white" stroke="#666666" points="132,-69 103,-69 103,-52 132,-52 132,-69"/>
<text text-anchor="middle" x="117.5" y="-58.6" font-family="Helvetica,sans-Serif" font-size="8.00">top</text>
</a>
</g>
</g>
<!-- Node1&#45;&gt;Node13 -->
<g id="edge12_Node000001_Node000013" class="edge">
<title>Node1&#45;&gt;Node13</title>
<g id="a_edge12_Node000001_Node000013"><a xlink:title=" ">
<path fill="none" stroke="#63b8ff" d="M202.24,-201.42C197.05,-171.7 183.31,-113.98 151,-77.5 146.02,-71.88 138.72,-67.82 132.31,-65.09"/>
<polygon fill="#63b8ff" stroke="#63b8ff" points="198.84,-202.34 203.88,-211.66 205.75,-201.23 198.84,-202.34"/>
</a>
</g>
</g>
<!-- Node14 -->
<g id="Node000014" class="node">
<title>Node14</title>
<g id="a_Node000014"><a xlink:href="../../d3/d61/classchdr_1_1heap_a20a753362275d34a67d855ce0105fab7.html#a20a753362275d34a67d855ce0105fab7" target="_top" xlink:title="Retrieves a reference to the top element of the heap.">
<polygon fill="white" stroke="#666666" points="132,-34 103,-34 103,-17 132,-17 132,-34"/>
<text text-anchor="middle" x="117.5" y="-23.6" font-family="Helvetica,sans-Serif" font-size="8.00">top</text>
</a>
</g>
</g>
<!-- Node1&#45;&gt;Node14 -->
<g id="edge13_Node000001_Node000014" class="edge">
<title>Node1&#45;&gt;Node14</title>
<g id="a_edge13_Node000001_Node000014"><a xlink:title=" ">
<path fill="none" stroke="#63b8ff" d="M203.99,-201.79C201.18,-166.71 190.6,-90.32 151,-42.5 146.13,-36.62 138.68,-32.51 132.14,-29.81"/>
<polygon fill="#63b8ff" stroke="#63b8ff" points="200.51,-202.25 204.68,-212 207.5,-201.78 200.51,-202.25"/>
</a>
</g>
</g>
<!-- Node9 -->
<g id="Node000009" class="node">
<title>Node9</title>
<g id="a_Node000009"><a xlink:href="../../d3/d61/classchdr_1_1heap_acb6d4e6f53bcd4c93d386def0bd8be31.html#acb6d4e6f53bcd4c93d386def0bd8be31" target="_top" xlink:title="Removes all elements in a given range from the heap while maintaining the heap property.">
<polygon fill="white" stroke="#666666" points="42.5,-248 5.5,-248 5.5,-231 42.5,-231 42.5,-248"/>
<text text-anchor="middle" x="24" y="-237.6" font-family="Helvetica,sans-Serif" font-size="8.00">erase</text>
</a>
</g>
</g>
<!-- Node8&#45;&gt;Node9 -->
<g id="edge8_Node000008_Node000009" class="edge">
<title>Node8&#45;&gt;Node9</title>
<g id="a_edge8_Node000008_Node000009"><a xlink:title=" ">
<path fill="none" stroke="#63b8ff" d="M88.6,-239.5C73.62,-239.5 55.61,-239.5 42.59,-239.5"/>
<polygon fill="#63b8ff" stroke="#63b8ff" points="88.86,-243 98.86,-239.5 88.86,-236 88.86,-243"/>
</a>
</g>
</g>
<!-- Node14&#45;&gt;Node7 -->
<g id="edge14_Node000014_Node000007" class="edge">
<title>Node14&#45;&gt;Node7</title>
<g id="a_edge14_Node000014_Node000007"><a xlink:title=" ">
<path fill="none" stroke="#63b8ff" d="M93.68,-35.37C90.22,-37.43 86.86,-39.81 84,-42.5 55.37,-69.46 35.73,-113.34 28.31,-131.84"/>
<polygon fill="#63b8ff" stroke="#63b8ff" points="95.53,-38.35 102.8,-30.65 92.31,-32.14 95.53,-38.35"/>
</a>
</g>
</g>
<!-- Node15 -->
<g id="Node000015" class="node">
<title>Node15</title>
<g id="a_Node000015"><a xlink:href="../../d3/d61/classchdr_1_1heap_a66ae5a391f699d2e564c2545ab9c6d82.html#a66ae5a391f699d2e564c2545ab9c6d82" target="_top" xlink:title="Retrieves a constant reference to the front element of the heap.">
<polygon fill="white" stroke="#666666" points="40.5,-52 7.5,-52 7.5,-35 40.5,-35 40.5,-52"/>
<text text-anchor="middle" x="24" y="-41.6" font-family="Helvetica,sans-Serif" font-size="8.00">front</text>
</a>
</g>
</g>
<!-- Node14&#45;&gt;Node15 -->
<g id="edge15_Node000014_Node000015" class="edge">
<title>Node14&#45;&gt;Node15</title>
<g id="a_edge15_Node000014_Node000015"><a xlink:title=" ">
<path fill="none" stroke="#63b8ff" d="M93.06,-30.11C76.63,-33.34 55.11,-37.58 40.71,-40.41"/>
<polygon fill="#63b8ff" stroke="#63b8ff" points="93.86,-33.52 103,-28.16 92.51,-26.65 93.86,-33.52"/>
</a>
</g>
</g>
<!-- Node16 -->
<g id="Node000016" class="node">
<title>Node16</title>
<g id="a_Node000016"><a xlink:href="../../d3/d61/classchdr_1_1heap_acbf9b62bac7333654c7862dc8cfd1e48.html#acbf9b62bac7333654c7862dc8cfd1e48" target="_top" xlink:title="Retrieves a reference to the front element of the heap.">
<polygon fill="white" stroke="#666666" points="40.5,-17 7.5,-17 7.5,0 40.5,0 40.5,-17"/>
<text text-anchor="middle" x="24" y="-6.6" font-family="Helvetica,sans-Serif" font-size="8.00">front</text>
</a>
</g>
</g>
<!-- Node14&#45;&gt;Node16 -->
<g id="edge16_Node000014_Node000016" class="edge">
<title>Node14&#45;&gt;Node16</title>
<g id="a_edge16_Node000014_Node000016"><a xlink:title=" ">
<path fill="none" stroke="#63b8ff" d="M93.06,-21.15C76.63,-18.09 55.11,-14.09 40.71,-11.42"/>
<polygon fill="#63b8ff" stroke="#63b8ff" points="92.53,-24.61 103,-22.99 93.81,-17.72 92.53,-24.61"/>
</a>
</g>
</g>
</g>
</svg>
