<?xml version="1.0" encoding="UTF-8" standalone="no"?>
<!DOCTYPE svg PUBLIC "-//W3C//DTD SVG 1.1//EN"
 "http://www.w3.org/Graphics/SVG/1.1/DTD/svg11.dtd">
<!-- Generated by graphviz version 2.43.0 (0)
 -->
<!-- Title: top Pages: 1 -->
<svg width="283pt" height="25pt"
 viewBox="0.00 0.00 283.00 25.00" xmlns="http://www.w3.org/2000/svg" xmlns:xlink="http://www.w3.org/1999/xlink">
<g id="graph0" class="graph" transform="scale(1 1) rotate(0) translate(4 21)">
<title>top</title>
<!-- Node1 -->
<g id="Node000001" class="node">
<title>Node1</title>
<g id="a_Node000001"><a xlink:title="Retrieves a reference to the top element of the heap.">
<polygon fill="#999999" stroke="#666666" points="29,-17 0,-17 0,0 29,0 29,-17"/>
<text text-anchor="middle" x="14.5" y="-6.6" font-family="Helvetica,sans-Serif" font-size="8.00">top</text>
</a>
</g>
</g>
<!-- Node2 -->
<g id="Node000002" class="node">
<title>Node2</title>
<g id="a_Node000002"><a xlink:href="../../d3/d61/classchdr_1_1heap_a3f6fc5de06a318920d84f3c3742db07f.html#a3f6fc5de06a318920d84f3c3742db07f" target="_top" xlink:title="Checks if the heap is empty.">
<polygon fill="white" stroke="#666666" points="103,-17 65,-17 65,0 103,0 103,-17"/>
<text text-anchor="middle" x="84" y="-6.6" font-family="Helvetica,sans-Serif" font-size="8.00">empty</text>
</a>
</g>
</g>
<!-- Node1&#45;&gt;Node2 -->
<g id="edge1_Node000001_Node000002" class="edge">
<title>Node1&#45;&gt;Node2</title>
<g id="a_edge1_Node000001_Node000002"><a xlink:title=" ">
<path fill="none" stroke="#63b8ff" d="M29.16,-8.5C36.52,-8.5 45.9,-8.5 54.75,-8.5"/>
<polygon fill="#63b8ff" stroke="#63b8ff" points="54.75,-12 64.75,-8.5 54.75,-5 54.75,-12"/>
</a>
</g>
</g>
<!-- Node3 -->
<g id="Node000003" class="node">
<title>Node3</title>
<g id="a_Node000003"><a xlink:href="../../d3/d61/classchdr_1_1heap_a3caedb145a667c26028740417dcf32c3.html#a3caedb145a667c26028740417dcf32c3" target="_top" xlink:title="Retrieves the number of elements currently stored in the heap.">
<polygon fill="white" stroke="#666666" points="169,-17 139,-17 139,0 169,0 169,-17"/>
<text text-anchor="middle" x="154" y="-6.6" font-family="Helvetica,sans-Serif" font-size="8.00">size</text>
</a>
</g>
</g>
<!-- Node2&#45;&gt;Node3 -->
<g id="edge2_Node000002_Node000003" class="edge">
<title>Node2&#45;&gt;Node3</title>
<g id="a_edge2_Node000002_Node000003"><a xlink:title=" ">
<path fill="none" stroke="#63b8ff" d="M103.22,-8.5C111.08,-8.5 120.38,-8.5 128.8,-8.5"/>
<polygon fill="#63b8ff" stroke="#63b8ff" points="128.83,-12 138.83,-8.5 128.83,-5 128.83,-12"/>
</a>
</g>
</g>
<!-- Node4 -->
<g id="Node000004" class="node">
<title>Node4</title>
<g id="a_Node000004"><a xlink:href="../../d2/dcb/structchdr_1_1utils_abb4d38d3c7a25d93fcedd12666fb00a1.html#abb4d38d3c7a25d93fcedd12666fb00a1" target="_top" xlink:title="Determines the maximum of two comparable values.">
<polygon fill="white" stroke="#666666" points="275,-17 205,-17 205,0 275,0 275,-17"/>
<text text-anchor="middle" x="240" y="-6.6" font-family="Helvetica,sans-Serif" font-size="8.00">chdr::utils::max</text>
</a>
</g>
</g>
<!-- Node3&#45;&gt;Node4 -->
<g id="edge3_Node000003_Node000004" class="edge">
<title>Node3&#45;&gt;Node4</title>
<g id="a_edge3_Node000003_Node000004"><a xlink:title=" ">
<path fill="none" stroke="#63b8ff" d="M169.25,-8.5C176.32,-8.5 185.3,-8.5 194.44,-8.5"/>
<polygon fill="#63b8ff" stroke="#63b8ff" points="194.73,-12 204.73,-8.5 194.73,-5 194.73,-12"/>
</a>
</g>
</g>
</g>
</svg>
