<?xml version="1.0" encoding="UTF-8" standalone="no"?>
<!DOCTYPE svg PUBLIC "-//W3C//DTD SVG 1.1//EN"
 "http://www.w3.org/Graphics/SVG/1.1/DTD/svg11.dtd">
<!-- Generated by graphviz version 2.43.0 (0)
 -->
<!-- Title: queue.hpp Pages: 1 -->
<svg width="271pt" height="131pt"
 viewBox="0.00 0.00 270.97 131.00" xmlns="http://www.w3.org/2000/svg" xmlns:xlink="http://www.w3.org/1999/xlink">
<g id="graph0" class="graph" transform="scale(1 1) rotate(0) translate(4 127)">
<title>queue.hpp</title>
<!-- Node1 -->
<g id="Node000001" class="node">
<title>Node1</title>
<g id="a_Node000001"><a xlink:title=" ">
<polygon fill="#999999" stroke="#666666" points="98.47,-123 43.47,-123 43.47,-106 98.47,-106 98.47,-123"/>
<text text-anchor="middle" x="70.97" y="-112.6" font-family="Helvetica,sans-Serif" font-size="8.00">queue.hpp</text>
</a>
</g>
</g>
<!-- Node2 -->
<g id="Node000002" class="node">
<title>Node2</title>
<g id="a_Node000002"><a xlink:title=" ">
<polygon fill="#e0e0e0" stroke="#999999" points="90.97,-17 48.97,-17 48.97,0 90.97,0 90.97,-17"/>
<text text-anchor="middle" x="69.97" y="-6.6" font-family="Helvetica,sans-Serif" font-size="8.00">cstddef</text>
</a>
</g>
</g>
<!-- Node1&#45;&gt;Node2 -->
<g id="edge1_Node000001_Node000002" class="edge">
<title>Node1&#45;&gt;Node2</title>
<g id="a_edge1_Node000001_Node000002"><a xlink:title=" ">
<path fill="none" stroke="#63b8ff" d="M48.87,-105.97C32.96,-99.25 12.66,-87.7 2.97,-70 -8.36,-49.31 16.79,-32.04 39.44,-21.31"/>
<polygon fill="#63b8ff" stroke="#63b8ff" points="41.15,-24.38 48.88,-17.13 38.32,-17.98 41.15,-24.38"/>
</a>
</g>
</g>
<!-- Node3 -->
<g id="Node000003" class="node">
<title>Node3</title>
<g id="a_Node000003"><a xlink:title=" ">
<polygon fill="#e0e0e0" stroke="#999999" points="51.47,-70 12.47,-70 12.47,-53 51.47,-53 51.47,-70"/>
<text text-anchor="middle" x="31.97" y="-59.6" font-family="Helvetica,sans-Serif" font-size="8.00">deque</text>
</a>
</g>
</g>
<!-- Node1&#45;&gt;Node3 -->
<g id="edge2_Node000001_Node000003" class="edge">
<title>Node1&#45;&gt;Node3</title>
<g id="a_edge2_Node000001_Node000003"><a xlink:title=" ">
<path fill="none" stroke="#63b8ff" d="M65.21,-105.97C59.62,-98.67 50.97,-87.35 43.89,-78.1"/>
<polygon fill="#63b8ff" stroke="#63b8ff" points="46.6,-75.87 37.74,-70.06 41.04,-80.13 46.6,-75.87"/>
</a>
</g>
</g>
<!-- Node4 -->
<g id="Node000004" class="node">
<title>Node4</title>
<g id="a_Node000004"><a xlink:title=" ">
<polygon fill="#e0e0e0" stroke="#999999" points="151.97,-70 69.97,-70 69.97,-53 151.97,-53 151.97,-70"/>
<text text-anchor="middle" x="110.97" y="-59.6" font-family="Helvetica,sans-Serif" font-size="8.00">memory_resource</text>
</a>
</g>
</g>
<!-- Node1&#45;&gt;Node4 -->
<g id="edge3_Node000001_Node000004" class="edge">
<title>Node1&#45;&gt;Node4</title>
<g id="a_edge3_Node000001_Node000004"><a xlink:title=" ">
<path fill="none" stroke="#63b8ff" d="M76.87,-105.97C82.6,-98.67 91.47,-87.35 98.73,-78.1"/>
<polygon fill="#63b8ff" stroke="#63b8ff" points="101.62,-80.08 105.04,-70.06 96.11,-75.76 101.62,-80.08"/>
</a>
</g>
</g>
<!-- Node5 -->
<g id="Node000005" class="node">
<title>Node5</title>
<g id="a_Node000005"><a xlink:href="../../d7/d65/intrinsics_8hpp.html" target="_top" xlink:title=" ">
<polygon fill="white" stroke="#666666" points="261.97,-70 169.97,-70 169.97,-53 261.97,-53 261.97,-70"/>
<text text-anchor="middle" x="215.97" y="-59.6" font-family="Helvetica,sans-Serif" font-size="8.00">../../utils/intrinsics.hpp</text>
</a>
</g>
</g>
<!-- Node1&#45;&gt;Node5 -->
<g id="edge4_Node000001_Node000005" class="edge">
<title>Node1&#45;&gt;Node5</title>
<g id="a_edge4_Node000001_Node000005"><a xlink:title=" ">
<path fill="none" stroke="#63b8ff" d="M92.36,-105.97C116.78,-97.39 156.93,-83.27 184.81,-73.46"/>
<polygon fill="#63b8ff" stroke="#63b8ff" points="186.21,-76.68 194.48,-70.06 183.89,-70.07 186.21,-76.68"/>
</a>
</g>
</g>
<!-- Node5&#45;&gt;Node2 -->
<g id="edge6_Node000005_Node000002" class="edge">
<title>Node5&#45;&gt;Node2</title>
<g id="a_edge6_Node000005_Node000002"><a xlink:title=" ">
<path fill="none" stroke="#63b8ff" d="M194.42,-52.97C169.7,-44.34 128.95,-30.1 100.85,-20.29"/>
<polygon fill="#63b8ff" stroke="#63b8ff" points="101.72,-16.88 91.12,-16.89 99.41,-23.49 101.72,-16.88"/>
</a>
</g>
</g>
<!-- Node6 -->
<g id="Node000006" class="node">
<title>Node6</title>
<g id="a_Node000006"><a xlink:title=" ">
<polygon fill="#e0e0e0" stroke="#999999" points="206.97,-17 166.97,-17 166.97,0 206.97,0 206.97,-17"/>
<text text-anchor="middle" x="186.97" y="-6.6" font-family="Helvetica,sans-Serif" font-size="8.00">atomic</text>
</a>
</g>
</g>
<!-- Node5&#45;&gt;Node6 -->
<g id="edge5_Node000005_Node000006" class="edge">
<title>Node5&#45;&gt;Node6</title>
<g id="a_edge5_Node000005_Node000006"><a xlink:title=" ">
<path fill="none" stroke="#63b8ff" d="M211.69,-52.97C207.66,-45.89 201.49,-35.05 196.33,-25.96"/>
<polygon fill="#63b8ff" stroke="#63b8ff" points="199.25,-24.02 191.26,-17.06 193.16,-27.48 199.25,-24.02"/>
</a>
</g>
</g>
<!-- Node7 -->
<g id="Node000007" class="node">
<title>Node7</title>
<g id="a_Node000007"><a xlink:title=" ">
<polygon fill="#e0e0e0" stroke="#999999" points="262.97,-17 224.97,-17 224.97,0 262.97,0 262.97,-17"/>
<text text-anchor="middle" x="243.97" y="-6.6" font-family="Helvetica,sans-Serif" font-size="8.00">cstdlib</text>
</a>
</g>
</g>
<!-- Node5&#45;&gt;Node7 -->
<g id="edge7_Node000005_Node000007" class="edge">
<title>Node5&#45;&gt;Node7</title>
<g id="a_edge7_Node000005_Node000007"><a xlink:title=" ">
<path fill="none" stroke="#63b8ff" d="M220.1,-52.97C223.98,-45.89 229.94,-35.05 234.93,-25.96"/>
<polygon fill="#63b8ff" stroke="#63b8ff" points="238.07,-27.51 239.82,-17.06 231.94,-24.14 238.07,-27.51"/>
</a>
</g>
</g>
</g>
</svg>
