<?xml version="1.0" encoding="UTF-8" standalone="no"?>
<!DOCTYPE svg PUBLIC "-//W3C//DTD SVG 1.1//EN"
 "http://www.w3.org/Graphics/SVG/1.1/DTD/svg11.dtd">
<!-- Generated by graphviz version 2.43.0 (0)
 -->
<!-- Title: queue.hpp Pages: 1 -->
<svg width="264pt" height="78pt"
 viewBox="0.00 0.00 264.00 78.00" xmlns="http://www.w3.org/2000/svg" xmlns:xlink="http://www.w3.org/1999/xlink">
<g id="graph0" class="graph" transform="scale(1 1) rotate(0) translate(4 74)">
<title>queue.hpp</title>
<!-- Node1 -->
<g id="Node000001" class="node">
<title>Node1</title>
<g id="a_Node000001"><a xlink:title=" ">
<polygon fill="#999999" stroke="#666666" points="135.5,-70 80.5,-70 80.5,-53 135.5,-53 135.5,-70"/>
<text text-anchor="middle" x="108" y="-59.6" font-family="Helvetica,sans-Serif" font-size="8.00">queue.hpp</text>
</a>
</g>
</g>
<!-- Node2 -->
<g id="Node000002" class="node">
<title>Node2</title>
<g id="a_Node000002"><a xlink:title=" ">
<polygon fill="#e0e0e0" stroke="#999999" points="42,-17 0,-17 0,0 42,0 42,-17"/>
<text text-anchor="middle" x="21" y="-6.6" font-family="Helvetica,sans-Serif" font-size="8.00">cstddef</text>
</a>
</g>
</g>
<!-- Node1&#45;&gt;Node2 -->
<g id="edge1_Node000001_Node000002" class="edge">
<title>Node1&#45;&gt;Node2</title>
<g id="a_edge1_Node000001_Node000002"><a xlink:title=" ">
<path fill="none" stroke="#63b8ff" d="M95.16,-52.97C81.41,-44.91 59.35,-31.98 42.85,-22.31"/>
<polygon fill="#63b8ff" stroke="#63b8ff" points="44.29,-19.09 33.89,-17.06 40.75,-25.13 44.29,-19.09"/>
</a>
</g>
</g>
<!-- Node3 -->
<g id="Node000003" class="node">
<title>Node3</title>
<g id="a_Node000003"><a xlink:title=" ">
<polygon fill="#e0e0e0" stroke="#999999" points="99.5,-17 60.5,-17 60.5,0 99.5,0 99.5,-17"/>
<text text-anchor="middle" x="80" y="-6.6" font-family="Helvetica,sans-Serif" font-size="8.00">queue</text>
</a>
</g>
</g>
<!-- Node1&#45;&gt;Node3 -->
<g id="edge2_Node000001_Node000003" class="edge">
<title>Node1&#45;&gt;Node3</title>
<g id="a_edge2_Node000001_Node000003"><a xlink:title=" ">
<path fill="none" stroke="#63b8ff" d="M103.87,-52.97C99.98,-45.89 94.03,-35.05 89.04,-25.96"/>
<polygon fill="#63b8ff" stroke="#63b8ff" points="92.03,-24.14 84.15,-17.06 85.89,-27.51 92.03,-24.14"/>
</a>
</g>
</g>
<!-- Node4 -->
<g id="Node000004" class="node">
<title>Node4</title>
<g id="a_Node000004"><a xlink:title=" ">
<polygon fill="#e0e0e0" stroke="#999999" points="156,-17 118,-17 118,0 156,0 156,-17"/>
<text text-anchor="middle" x="137" y="-6.6" font-family="Helvetica,sans-Serif" font-size="8.00">vector</text>
</a>
</g>
</g>
<!-- Node1&#45;&gt;Node4 -->
<g id="edge3_Node000001_Node000004" class="edge">
<title>Node1&#45;&gt;Node4</title>
<g id="a_edge3_Node000001_Node000004"><a xlink:title=" ">
<path fill="none" stroke="#63b8ff" d="M112.28,-52.97C116.31,-45.89 122.47,-35.05 127.64,-25.96"/>
<polygon fill="#63b8ff" stroke="#63b8ff" points="130.8,-27.48 132.7,-17.06 124.72,-24.02 130.8,-27.48"/>
</a>
</g>
</g>
<!-- Node5 -->
<g id="Node000005" class="node">
<title>Node5</title>
<g id="a_Node000005"><a xlink:title=" ">
<polygon fill="#e0e0e0" stroke="#999999" points="256,-17 174,-17 174,0 256,0 256,-17"/>
<text text-anchor="middle" x="215" y="-6.6" font-family="Helvetica,sans-Serif" font-size="8.00">memory_resource</text>
</a>
</g>
</g>
<!-- Node1&#45;&gt;Node5 -->
<g id="edge4_Node000001_Node000005" class="edge">
<title>Node1&#45;&gt;Node5</title>
<g id="a_edge4_Node000001_Node000005"><a xlink:title=" ">
<path fill="none" stroke="#63b8ff" d="M123.79,-52.97C141.25,-44.65 169.63,-31.13 190.09,-21.37"/>
<polygon fill="#63b8ff" stroke="#63b8ff" points="191.63,-24.52 199.15,-17.06 188.61,-18.2 191.63,-24.52"/>
</a>
</g>
</g>
</g>
</svg>
