<?xml version="1.0" encoding="UTF-8" standalone="no"?>
<!DOCTYPE svg PUBLIC "-//W3C//DTD SVG 1.1//EN"
 "http://www.w3.org/Graphics/SVG/1.1/DTD/svg11.dtd">
<!-- Generated by graphviz version 2.43.0 (0)
 -->
<!-- Title: queue.hpp Pages: 1 -->
<svg width="296pt" height="131pt"
 viewBox="0.00 0.00 295.73 131.00" xmlns="http://www.w3.org/2000/svg" xmlns:xlink="http://www.w3.org/1999/xlink">
<g id="graph0" class="graph" transform="scale(1 1) rotate(0) translate(4 127)">
<title>queue.hpp</title>
<!-- Node1 -->
<g id="Node000001" class="node">
<title>Node1</title>
<g id="a_Node000001"><a xlink:title=" ">
<polygon fill="#999999" stroke="#666666" points="106.73,-123 45.73,-123 45.73,-106 106.73,-106 106.73,-123"/>
<text text-anchor="middle" x="76.23" y="-112.6" font-family="Helvetica,sans-Serif" font-size="8.00">queue.hpp</text>
</a>
</g>
</g>
<!-- Node2 -->
<g id="Node000002" class="node">
<title>Node2</title>
<g id="a_Node000002"><a xlink:title=" ">
<polygon fill="#e0e0e0" stroke="#999999" points="100.73,-17 53.73,-17 53.73,0 100.73,0 100.73,-17"/>
<text text-anchor="middle" x="77.23" y="-6.6" font-family="Helvetica,sans-Serif" font-size="8.00">cstddef</text>
</a>
</g>
</g>
<!-- Node1&#45;&gt;Node2 -->
<g id="edge1_Node000001_Node000002" class="edge">
<title>Node1&#45;&gt;Node2</title>
<g id="a_edge1_Node000001_Node000002"><a xlink:title=" ">
<path fill="none" stroke="#63b8ff" d="M52.81,-106C26.52,-96.22 -10.75,-77.43 3.23,-53 12.12,-37.47 28.95,-26.94 44.31,-20.13"/>
<polygon fill="#63b8ff" stroke="#63b8ff" points="45.66,-23.36 53.61,-16.36 43.03,-16.88 45.66,-23.36"/>
</a>
</g>
</g>
<!-- Node3 -->
<g id="Node000003" class="node">
<title>Node3</title>
<g id="a_Node000003"><a xlink:title=" ">
<polygon fill="#e0e0e0" stroke="#999999" points="55.73,-70 12.73,-70 12.73,-53 55.73,-53 55.73,-70"/>
<text text-anchor="middle" x="34.23" y="-59.6" font-family="Helvetica,sans-Serif" font-size="8.00">deque</text>
</a>
</g>
</g>
<!-- Node1&#45;&gt;Node3 -->
<g id="edge2_Node000001_Node000003" class="edge">
<title>Node1&#45;&gt;Node3</title>
<g id="a_edge2_Node000001_Node000003"><a xlink:title=" ">
<path fill="none" stroke="#63b8ff" d="M70.03,-105.97C63.95,-98.59 54.5,-87.12 46.84,-77.81"/>
<polygon fill="#63b8ff" stroke="#63b8ff" points="49.51,-75.55 40.45,-70.06 44.11,-80 49.51,-75.55"/>
</a>
</g>
</g>
<!-- Node4 -->
<g id="Node000004" class="node">
<title>Node4</title>
<g id="a_Node000004"><a xlink:title=" ">
<polygon fill="#e0e0e0" stroke="#999999" points="162.73,-70 73.73,-70 73.73,-53 162.73,-53 162.73,-70"/>
<text text-anchor="middle" x="118.23" y="-59.6" font-family="Helvetica,sans-Serif" font-size="8.00">memory_resource</text>
</a>
</g>
</g>
<!-- Node1&#45;&gt;Node4 -->
<g id="edge3_Node000001_Node000004" class="edge">
<title>Node1&#45;&gt;Node4</title>
<g id="a_edge3_Node000001_Node000004"><a xlink:title=" ">
<path fill="none" stroke="#63b8ff" d="M82.43,-105.97C88.51,-98.59 97.95,-87.12 105.62,-77.81"/>
<polygon fill="#63b8ff" stroke="#63b8ff" points="108.35,-80 112.01,-70.06 102.95,-75.55 108.35,-80"/>
</a>
</g>
</g>
<!-- Node5 -->
<g id="Node000005" class="node">
<title>Node5</title>
<g id="a_Node000005"><a xlink:href="../../d7/d65/intrinsics_8hpp.html" target="_top" xlink:title=" ">
<polygon fill="white" stroke="#666666" points="287.73,-70 180.73,-70 180.73,-53 287.73,-53 287.73,-70"/>
<text text-anchor="middle" x="234.23" y="-59.6" font-family="Helvetica,sans-Serif" font-size="8.00">../../utils/intrinsics.hpp</text>
</a>
</g>
</g>
<!-- Node1&#45;&gt;Node5 -->
<g id="edge4_Node000001_Node000005" class="edge">
<title>Node1&#45;&gt;Node5</title>
<g id="a_edge4_Node000001_Node000005"><a xlink:title=" ">
<path fill="none" stroke="#63b8ff" d="M99.54,-105.97C126.38,-97.31 170.67,-83.02 201.08,-73.2"/>
<polygon fill="#63b8ff" stroke="#63b8ff" points="202.38,-76.46 210.82,-70.06 200.23,-69.8 202.38,-76.46"/>
</a>
</g>
</g>
<!-- Node5&#45;&gt;Node2 -->
<g id="edge6_Node000005_Node000002" class="edge">
<title>Node5&#45;&gt;Node2</title>
<g id="a_edge6_Node000005_Node000002"><a xlink:title=" ">
<path fill="none" stroke="#63b8ff" d="M211.06,-52.97C184.39,-44.31 140.39,-30.02 110.17,-20.2"/>
<polygon fill="#63b8ff" stroke="#63b8ff" points="111.08,-16.82 100.49,-17.06 108.92,-23.47 111.08,-16.82"/>
</a>
</g>
</g>
<!-- Node6 -->
<g id="Node000006" class="node">
<title>Node6</title>
<g id="a_Node000006"><a xlink:title=" ">
<polygon fill="#e0e0e0" stroke="#999999" points="225.23,-17 181.23,-17 181.23,0 225.23,0 225.23,-17"/>
<text text-anchor="middle" x="203.23" y="-6.6" font-family="Helvetica,sans-Serif" font-size="8.00">atomic</text>
</a>
</g>
</g>
<!-- Node5&#45;&gt;Node6 -->
<g id="edge5_Node000005_Node000006" class="edge">
<title>Node5&#45;&gt;Node6</title>
<g id="a_edge5_Node000005_Node000006"><a xlink:title=" ">
<path fill="none" stroke="#63b8ff" d="M229.65,-52.97C225.3,-45.82 218.62,-34.82 213.06,-25.67"/>
<polygon fill="#63b8ff" stroke="#63b8ff" points="216.01,-23.78 207.82,-17.06 210.02,-27.42 216.01,-23.78"/>
</a>
</g>
</g>
<!-- Node7 -->
<g id="Node000007" class="node">
<title>Node7</title>
<g id="a_Node000007"><a xlink:title=" ">
<polygon fill="#e0e0e0" stroke="#999999" points="287.23,-17 243.23,-17 243.23,0 287.23,0 287.23,-17"/>
<text text-anchor="middle" x="265.23" y="-6.6" font-family="Helvetica,sans-Serif" font-size="8.00">cstdlib</text>
</a>
</g>
</g>
<!-- Node5&#45;&gt;Node7 -->
<g id="edge7_Node000005_Node000007" class="edge">
<title>Node5&#45;&gt;Node7</title>
<g id="a_edge7_Node000005_Node000007"><a xlink:title=" ">
<path fill="none" stroke="#63b8ff" d="M238.8,-52.97C243.15,-45.82 249.84,-34.82 255.4,-25.67"/>
<polygon fill="#63b8ff" stroke="#63b8ff" points="258.43,-27.42 260.64,-17.06 252.45,-23.78 258.43,-27.42"/>
</a>
</g>
</g>
</g>
</svg>
