<?xml version="1.0" encoding="UTF-8" standalone="no"?>
<!DOCTYPE svg PUBLIC "-//W3C//DTD SVG 1.1//EN"
 "http://www.w3.org/Graphics/SVG/1.1/DTD/svg11.dtd">
<!-- Generated by graphviz version 2.43.0 (0)
 -->
<!-- Title: bnode&lt; index_t &gt; Pages: 1 -->
<svg width="1614pt" height="221pt"
 viewBox="0.00 0.00 1614.00 221.00" xmlns="http://www.w3.org/2000/svg" xmlns:xlink="http://www.w3.org/1999/xlink">
<g id="graph0" class="graph" transform="scale(1 1) rotate(0) translate(4 217)">
<title>bnode&lt; index_t &gt;</title>
<!-- Node1 -->
<g id="Node000001" class="node">
<title>Node1</title>
<g id="a_Node000001"><a xlink:title="Base class for pathfinding nodes.">
<polygon fill="#999999" stroke="transparent" points="828.5,-213 736.5,-213 736.5,-170 828.5,-170 828.5,-213"/>
<text text-anchor="start" x="746" y="-202.1" font-family="Helvetica,sans-Serif" font-size="8.00">bnode&lt; index_t &gt;</text>
<text text-anchor="start" x="740.5" y="-189.1" font-family="Helvetica,sans-Serif" font-size="8.00">+</text>
<text text-anchor="start" x="751.5" y="-189.1" font-family="Helvetica,sans-Serif" font-size="8.00">index_t m_index</text>
<text text-anchor="start" x="742" y="-176.1" font-family="Helvetica,sans-Serif" font-size="8.00">*</text>
<text text-anchor="start" x="751.5" y="-176.1" font-family="Helvetica,sans-Serif" font-size="8.00">bnode() noexcept</text>
<polygon fill="#666666" stroke="#666666" points="736.5,-197.5 736.5,-197.5 828.5,-197.5 828.5,-197.5 736.5,-197.5"/>
<polygon fill="#666666" stroke="#666666" points="736.5,-184.5 736.5,-184.5 749.5,-184.5 749.5,-184.5 736.5,-184.5"/>
<polygon fill="#666666" stroke="#666666" points="749.5,-184.5 749.5,-184.5 828.5,-184.5 828.5,-184.5 749.5,-184.5"/>
<polygon fill="none" stroke="#666666" points="736.5,-170 736.5,-213 828.5,-213 828.5,-170 736.5,-170"/>
</a>
</g>
</g>
<!-- Node2 -->
<g id="Node000002" class="node">
<title>Node2</title>
<g id="a_Node000002"><a xlink:href="../../df/d64/structchdr_1_1solvers_1_1managed__node.html" target="_top" xlink:title=" ">
<polygon fill="white" stroke="transparent" points="379,-134 0,-134 0,0 379,0 379,-134"/>
<text text-anchor="start" x="122" y="-123.6" font-family="Helvetica,sans-Serif" font-size="8.00">managed_node&lt; index_t, node &gt;</text>
<text text-anchor="start" x="4.5" y="-110.6" font-family="Helvetica,sans-Serif" font-size="8.00">+</text>
<text text-anchor="start" x="15.5" y="-110.6" font-family="Helvetica,sans-Serif" font-size="8.00">managed_node *restrict m_parent</text>
<text text-anchor="start" x="4.5" y="-97.6" font-family="Helvetica,sans-Serif" font-size="8.00">+</text>
<text text-anchor="start" x="15.5" y="-97.6" font-family="Helvetica,sans-Serif" font-size="8.00">count_t count() const noexcept</text>
<text text-anchor="start" x="4.5" y="-84.6" font-family="Helvetica,sans-Serif" font-size="8.00">+</text>
<text text-anchor="start" x="15.5" y="-84.6" font-family="Helvetica,sans-Serif" font-size="8.00">void count(count_t _count) noexcept</text>
<text text-anchor="start" x="4.5" y="-71.6" font-family="Helvetica,sans-Serif" font-size="8.00">+</text>
<text text-anchor="start" x="15.5" y="-71.6" font-family="Helvetica,sans-Serif" font-size="8.00">void expunge(memory_resource_t *_resource)</text>
<text text-anchor="start" x="4.5" y="-58.6" font-family="Helvetica,sans-Serif" font-size="8.00">+</text>
<text text-anchor="start" x="15.5" y="-58.6" font-family="Helvetica,sans-Serif" font-size="8.00">auto * forget_one()</text>
<text text-anchor="start" x="4.5" y="-45.6" font-family="Helvetica,sans-Serif" font-size="8.00">+</text>
<text text-anchor="start" x="15.5" y="-45.6" font-family="Helvetica,sans-Serif" font-size="8.00">managed_node() noexcept</text>
<text text-anchor="start" x="4.5" y="-32.6" font-family="Helvetica,sans-Serif" font-size="8.00">+</text>
<text text-anchor="start" x="15.5" y="-32.6" font-family="Helvetica,sans-Serif" font-size="8.00">managed_node(index_t _index, managed_node *restrict const _parent=nullptr) noexcept</text>
<text text-anchor="start" x="6" y="-19.6" font-family="Helvetica,sans-Serif" font-size="8.00">*</text>
<text text-anchor="start" x="15.5" y="-19.6" font-family="Helvetica,sans-Serif" font-size="8.00">managed_node() noexcept</text>
<text text-anchor="start" x="6" y="-6.6" font-family="Helvetica,sans-Serif" font-size="8.00">*</text>
<text text-anchor="start" x="15.5" y="-6.6" font-family="Helvetica,sans-Serif" font-size="8.00">managed_node(index_t _index, managed_node *restrict const _parent=nullptr) noexcept</text>
<polygon fill="#666666" stroke="#666666" points="0.5,-119 0.5,-119 379.5,-119 379.5,-119 0.5,-119"/>
<polygon fill="#666666" stroke="#666666" points="0.5,-106 0.5,-106 13.5,-106 13.5,-106 0.5,-106"/>
<polygon fill="#666666" stroke="#666666" points="13.5,-106 13.5,-106 379.5,-106 379.5,-106 13.5,-106"/>
<polygon fill="none" stroke="#666666" points="0,0 0,-134 379,-134 379,0 0,0"/>
</a>
</g>
</g>
<!-- Node1&#45;&gt;Node2 -->
<g id="edge1_Node000001_Node000002" class="edge">
<title>Node1&#45;&gt;Node2</title>
<g id="a_edge1_Node000001_Node000002"><a xlink:title=" ">
<path fill="none" stroke="#63b8ff" d="M726.4,-185.68C649.29,-178.32 506.54,-162.11 387.5,-134 384.77,-133.35 382.02,-132.69 379.26,-132"/>
<polygon fill="none" stroke="#63b8ff" points="726.1,-189.16 736.38,-186.61 726.75,-182.19 726.1,-189.16"/>
</a>
</g>
</g>
<!-- Node3 -->
<g id="Node000003" class="node">
<title>Node3</title>
<g id="a_Node000003"><a xlink:href="../../df/d64/structchdr_1_1solvers_1_1managed__node.html" target="_top" xlink:title="A hierarchical node in a pathfinding context, with a clean&#45;up mechanism.">
<polygon fill="white" stroke="transparent" points="776,-121 397,-121 397,-13 776,-13 776,-121"/>
<text text-anchor="start" x="514" y="-110.6" font-family="Helvetica,sans-Serif" font-size="8.00">managed_node&lt; index_t, derived &gt;</text>
<text text-anchor="start" x="401.5" y="-97.6" font-family="Helvetica,sans-Serif" font-size="8.00">+</text>
<text text-anchor="start" x="412.5" y="-97.6" font-family="Helvetica,sans-Serif" font-size="8.00">managed_node *restrict m_parent</text>
<text text-anchor="start" x="401.5" y="-84.6" font-family="Helvetica,sans-Serif" font-size="8.00">+</text>
<text text-anchor="start" x="412.5" y="-84.6" font-family="Helvetica,sans-Serif" font-size="8.00">count_t count() const noexcept</text>
<text text-anchor="start" x="401.5" y="-71.6" font-family="Helvetica,sans-Serif" font-size="8.00">+</text>
<text text-anchor="start" x="412.5" y="-71.6" font-family="Helvetica,sans-Serif" font-size="8.00">void count(count_t _count) noexcept</text>
<text text-anchor="start" x="401.5" y="-58.6" font-family="Helvetica,sans-Serif" font-size="8.00">+</text>
<text text-anchor="start" x="412.5" y="-58.6" font-family="Helvetica,sans-Serif" font-size="8.00">void expunge(memory_resource_t *_resource)</text>
<text text-anchor="start" x="401.5" y="-45.6" font-family="Helvetica,sans-Serif" font-size="8.00">+</text>
<text text-anchor="start" x="412.5" y="-45.6" font-family="Helvetica,sans-Serif" font-size="8.00">auto * forget_one()</text>
<text text-anchor="start" x="403" y="-32.6" font-family="Helvetica,sans-Serif" font-size="8.00">*</text>
<text text-anchor="start" x="412.5" y="-32.6" font-family="Helvetica,sans-Serif" font-size="8.00">managed_node() noexcept</text>
<text text-anchor="start" x="403" y="-19.6" font-family="Helvetica,sans-Serif" font-size="8.00">*</text>
<text text-anchor="start" x="412.5" y="-19.6" font-family="Helvetica,sans-Serif" font-size="8.00">managed_node(index_t _index, managed_node *restrict const _parent=nullptr) noexcept</text>
<polygon fill="#666666" stroke="#666666" points="397.5,-106 397.5,-106 776.5,-106 776.5,-106 397.5,-106"/>
<polygon fill="#666666" stroke="#666666" points="397.5,-93 397.5,-93 410.5,-93 410.5,-93 397.5,-93"/>
<polygon fill="#666666" stroke="#666666" points="410.5,-93 410.5,-93 776.5,-93 776.5,-93 410.5,-93"/>
<polygon fill="none" stroke="#666666" points="397,-13 397,-121 776,-121 776,-13 397,-13"/>
</a>
</g>
</g>
<!-- Node1&#45;&gt;Node3 -->
<g id="edge2_Node000001_Node000003" class="edge">
<title>Node1&#45;&gt;Node3</title>
<g id="a_edge2_Node000001_Node000003"><a xlink:title=" ">
<path fill="none" stroke="#63b8ff" d="M741.03,-164.58C720.74,-151.9 695.55,-136.16 671.43,-121.08"/>
<polygon fill="none" stroke="#63b8ff" points="739.36,-167.66 749.69,-170 743.07,-161.73 739.36,-167.66"/>
</a>
</g>
</g>
<!-- Node4 -->
<g id="Node000004" class="node">
<title>Node4</title>
<g id="a_Node000004"><a xlink:href="../../da/d36/structchdr_1_1solvers_1_1mutable__node.html" target="_top" xlink:title="A hierarchical node in a pathfinding context, requires manual memory management.">
<polygon fill="white" stroke="transparent" points="1162.5,-108 794.5,-108 794.5,-26 1162.5,-26 1162.5,-108"/>
<text text-anchor="start" x="925.5" y="-97.6" font-family="Helvetica,sans-Serif" font-size="8.00">mutable_node&lt; index_t &gt;</text>
<text text-anchor="start" x="798.5" y="-84.6" font-family="Helvetica,sans-Serif" font-size="8.00">+</text>
<text text-anchor="start" x="809.5" y="-84.6" font-family="Helvetica,sans-Serif" font-size="8.00">mutable_node *restrict m_parent</text>
<text text-anchor="start" x="798.5" y="-71.6" font-family="Helvetica,sans-Serif" font-size="8.00">+</text>
<text text-anchor="start" x="809.5" y="-71.6" font-family="Helvetica,sans-Serif" font-size="8.00">mutable_node() noexcept</text>
<text text-anchor="start" x="798.5" y="-58.6" font-family="Helvetica,sans-Serif" font-size="8.00">+</text>
<text text-anchor="start" x="809.5" y="-58.6" font-family="Helvetica,sans-Serif" font-size="8.00">mutable_node(index_t _index, mutable_node *restrict const _parent=nullptr) noexcept</text>
<text text-anchor="start" x="800" y="-45.6" font-family="Helvetica,sans-Serif" font-size="8.00">*</text>
<text text-anchor="start" x="809.5" y="-45.6" font-family="Helvetica,sans-Serif" font-size="8.00">mutable_node() noexcept</text>
<text text-anchor="start" x="800" y="-32.6" font-family="Helvetica,sans-Serif" font-size="8.00">*</text>
<text text-anchor="start" x="809.5" y="-32.6" font-family="Helvetica,sans-Serif" font-size="8.00">mutable_node(index_t _index, mutable_node *restrict const _parent=nullptr) noexcept</text>
<polygon fill="#666666" stroke="#666666" points="794.5,-93 794.5,-93 1162.5,-93 1162.5,-93 794.5,-93"/>
<polygon fill="#666666" stroke="#666666" points="794.5,-80 794.5,-80 807.5,-80 807.5,-80 794.5,-80"/>
<polygon fill="#666666" stroke="#666666" points="807.5,-80 807.5,-80 1162.5,-80 1162.5,-80 807.5,-80"/>
<polygon fill="none" stroke="#666666" points="794.5,-26 794.5,-108 1162.5,-108 1162.5,-26 794.5,-26"/>
</a>
</g>
</g>
<!-- Node1&#45;&gt;Node4 -->
<g id="edge3_Node000001_Node000004" class="edge">
<title>Node1&#45;&gt;Node4</title>
<g id="a_edge3_Node000001_Node000004"><a xlink:title=" ">
<path fill="none" stroke="#63b8ff" d="M823.86,-164.65C850.07,-148.27 884.51,-126.74 914.23,-108.17"/>
<polygon fill="none" stroke="#63b8ff" points="821.93,-161.73 815.31,-170 825.64,-167.66 821.93,-161.73"/>
</a>
</g>
</g>
<!-- Node5 -->
<g id="Node000005" class="node">
<title>Node5</title>
<g id="a_Node000005"><a xlink:href="../../d6/d3c/structchdr_1_1solvers_1_1unmanaged__node.html" target="_top" xlink:title="A hierarchical node in a pathfinding context, requires manual memory management.">
<polygon fill="white" stroke="transparent" points="1606,-108 1181,-108 1181,-26 1606,-26 1606,-108"/>
<text text-anchor="start" x="1333.5" y="-97.6" font-family="Helvetica,sans-Serif" font-size="8.00">unmanaged_node&lt; index_t &gt;</text>
<text text-anchor="start" x="1185.5" y="-84.6" font-family="Helvetica,sans-Serif" font-size="8.00">+</text>
<text text-anchor="start" x="1196.5" y="-84.6" font-family="Helvetica,sans-Serif" font-size="8.00">const unmanaged_node *restrict m_parent</text>
<text text-anchor="start" x="1185.5" y="-71.6" font-family="Helvetica,sans-Serif" font-size="8.00">+</text>
<text text-anchor="start" x="1196.5" y="-71.6" font-family="Helvetica,sans-Serif" font-size="8.00">unmanaged_node() noexcept</text>
<text text-anchor="start" x="1185.5" y="-58.6" font-family="Helvetica,sans-Serif" font-size="8.00">+</text>
<text text-anchor="start" x="1196.5" y="-58.6" font-family="Helvetica,sans-Serif" font-size="8.00">unmanaged_node(index_t _index, const unmanaged_node *restrict const _parent=nullptr) noexcept</text>
<text text-anchor="start" x="1187" y="-45.6" font-family="Helvetica,sans-Serif" font-size="8.00">*</text>
<text text-anchor="start" x="1196.5" y="-45.6" font-family="Helvetica,sans-Serif" font-size="8.00">unmanaged_node() noexcept</text>
<text text-anchor="start" x="1187" y="-32.6" font-family="Helvetica,sans-Serif" font-size="8.00">*</text>
<text text-anchor="start" x="1196.5" y="-32.6" font-family="Helvetica,sans-Serif" font-size="8.00">unmanaged_node(index_t _index, const unmanaged_node *restrict const _parent=nullptr) noexcept</text>
<polygon fill="#666666" stroke="#666666" points="1181.5,-93 1181.5,-93 1606.5,-93 1606.5,-93 1181.5,-93"/>
<polygon fill="#666666" stroke="#666666" points="1181.5,-80 1181.5,-80 1194.5,-80 1194.5,-80 1181.5,-80"/>
<polygon fill="#666666" stroke="#666666" points="1194.5,-80 1194.5,-80 1606.5,-80 1606.5,-80 1194.5,-80"/>
<polygon fill="none" stroke="#666666" points="1181,-26 1181,-108 1606,-108 1606,-26 1181,-26"/>
</a>
</g>
</g>
<!-- Node1&#45;&gt;Node5 -->
<g id="edge4_Node000001_Node000005" class="edge">
<title>Node1&#45;&gt;Node5</title>
<g id="a_edge4_Node000001_Node000005"><a xlink:title=" ">
<path fill="none" stroke="#63b8ff" d="M839.01,-184.89C915.12,-176.74 1054.53,-159.74 1171.5,-134 1203.9,-126.87 1238.47,-117.48 1270.45,-108.03"/>
<polygon fill="none" stroke="#63b8ff" points="838.28,-181.45 828.7,-185.98 839.01,-188.41 838.28,-181.45"/>
</a>
</g>
</g>
</g>
</svg>
