<?xml version="1.0" encoding="UTF-8" standalone="no"?>
<!DOCTYPE svg PUBLIC "-//W3C//DTD SVG 1.1//EN"
 "http://www.w3.org/Graphics/SVG/1.1/DTD/svg11.dtd">
<!-- Generated by graphviz version 2.43.0 (0)
 -->
<!-- Title: bnode&lt; index_t &gt; Pages: 1 -->
<svg width="1083pt" height="195pt"
 viewBox="0.00 0.00 1082.50 195.00" xmlns="http://www.w3.org/2000/svg" xmlns:xlink="http://www.w3.org/1999/xlink">
<g id="graph0" class="graph" transform="scale(1 1) rotate(0) translate(4 191)">
<title>bnode&lt; index_t &gt;</title>
<!-- Node1 -->
<g id="Node000001" class="node">
<title>Node1</title>
<g id="a_Node000001"><a xlink:title="Base class for pathfinding nodes.">
<polygon fill="#999999" stroke="transparent" points="558,-187 477,-187 477,-144 558,-144 558,-187"/>
<text text-anchor="start" x="487" y="-176.1" font-family="Helvetica,sans-Serif" font-size="8.00">bnode&lt; index_t &gt;</text>
<text text-anchor="start" x="481.5" y="-163.1" font-family="Helvetica,sans-Serif" font-size="8.00">+</text>
<text text-anchor="start" x="490.5" y="-163.1" font-family="Helvetica,sans-Serif" font-size="8.00">index_t m_index</text>
<text text-anchor="start" x="482" y="-150.1" font-family="Helvetica,sans-Serif" font-size="8.00">*</text>
<text text-anchor="start" x="490.5" y="-150.1" font-family="Helvetica,sans-Serif" font-size="8.00">bnode() noexcept</text>
<polygon fill="#666666" stroke="#666666" points="477.5,-171.5 477.5,-171.5 558.5,-171.5 558.5,-171.5 477.5,-171.5"/>
<polygon fill="#666666" stroke="#666666" points="477.5,-158.5 477.5,-158.5 488.5,-158.5 488.5,-158.5 477.5,-158.5"/>
<polygon fill="#666666" stroke="#666666" points="488.5,-158.5 488.5,-158.5 558.5,-158.5 558.5,-158.5 488.5,-158.5"/>
<polygon fill="none" stroke="#666666" points="477,-144 477,-187 558,-187 558,-144 477,-144"/>
</a>
</g>
</g>
<!-- Node2 -->
<g id="Node000002" class="node">
<title>Node2</title>
<g id="a_Node000002"><a xlink:href="../../df/d64/structchdr_1_1solvers_1_1managed__node.html" target="_top" xlink:title=" ">
<polygon fill="white" stroke="transparent" points="333,-108 0,-108 0,0 333,0 333,-108"/>
<text text-anchor="start" x="108" y="-97.6" font-family="Helvetica,sans-Serif" font-size="8.00">managed_node&lt; index_t, node &gt;</text>
<text text-anchor="start" x="4.5" y="-84.6" font-family="Helvetica,sans-Serif" font-size="8.00">+</text>
<text text-anchor="start" x="13.5" y="-84.6" font-family="Helvetica,sans-Serif" font-size="8.00">managed_node *restrict m_parent</text>
<text text-anchor="start" x="4.5" y="-71.6" font-family="Helvetica,sans-Serif" font-size="8.00">+</text>
<text text-anchor="start" x="13.5" y="-71.6" font-family="Helvetica,sans-Serif" font-size="8.00">count_t count() const noexcept</text>
<text text-anchor="start" x="4.5" y="-58.6" font-family="Helvetica,sans-Serif" font-size="8.00">+</text>
<text text-anchor="start" x="13.5" y="-58.6" font-family="Helvetica,sans-Serif" font-size="8.00">void expunge(pmr_t *_pmr) noexcept</text>
<text text-anchor="start" x="4.5" y="-45.6" font-family="Helvetica,sans-Serif" font-size="8.00">+</text>
<text text-anchor="start" x="13.5" y="-45.6" font-family="Helvetica,sans-Serif" font-size="8.00">managed_node() noexcept</text>
<text text-anchor="start" x="4.5" y="-32.6" font-family="Helvetica,sans-Serif" font-size="8.00">+</text>
<text text-anchor="start" x="13.5" y="-32.6" font-family="Helvetica,sans-Serif" font-size="8.00">managed_node(index_t _index, managed_node *restrict const _parent=nullptr) noexcept</text>
<text text-anchor="start" x="5" y="-19.6" font-family="Helvetica,sans-Serif" font-size="8.00">*</text>
<text text-anchor="start" x="13.5" y="-19.6" font-family="Helvetica,sans-Serif" font-size="8.00">managed_node() noexcept</text>
<text text-anchor="start" x="5" y="-6.6" font-family="Helvetica,sans-Serif" font-size="8.00">*</text>
<text text-anchor="start" x="13.5" y="-6.6" font-family="Helvetica,sans-Serif" font-size="8.00">managed_node(index_t _index, managed_node *restrict const _parent=nullptr) noexcept</text>
<polygon fill="#666666" stroke="#666666" points="0.5,-93 0.5,-93 333.5,-93 333.5,-93 0.5,-93"/>
<polygon fill="#666666" stroke="#666666" points="0.5,-80 0.5,-80 11.5,-80 11.5,-80 0.5,-80"/>
<polygon fill="#666666" stroke="#666666" points="11.5,-80 11.5,-80 333.5,-80 333.5,-80 11.5,-80"/>
<polygon fill="none" stroke="#666666" points="0,0 0,-108 333,-108 333,0 0,0"/>
</a>
</g>
</g>
<!-- Node1&#45;&gt;Node2 -->
<g id="edge1_Node000001_Node000002" class="edge">
<title>Node1&#45;&gt;Node2</title>
<g id="a_edge1_Node000001_Node000002"><a xlink:title=" ">
<path fill="none" stroke="#63b8ff" d="M467.28,-148.83C431.8,-137.76 382.06,-122.25 333.22,-107.01"/>
<polygon fill="none" stroke="#63b8ff" points="466.3,-152.2 476.89,-151.83 468.39,-145.51 466.3,-152.2"/>
</a>
</g>
</g>
<!-- Node3 -->
<g id="Node000003" class="node">
<title>Node3</title>
<g id="a_Node000003"><a xlink:href="../../df/d64/structchdr_1_1solvers_1_1managed__node.html" target="_top" xlink:title="A hierarchical node in a pathfinding context, with a clean&#45;up mechanism.">
<polygon fill="white" stroke="transparent" points="684,-95 351,-95 351,-13 684,-13 684,-95"/>
<text text-anchor="start" x="454.5" y="-84.6" font-family="Helvetica,sans-Serif" font-size="8.00">managed_node&lt; index_t, derived &gt;</text>
<text text-anchor="start" x="355.5" y="-71.6" font-family="Helvetica,sans-Serif" font-size="8.00">+</text>
<text text-anchor="start" x="364.5" y="-71.6" font-family="Helvetica,sans-Serif" font-size="8.00">managed_node *restrict m_parent</text>
<text text-anchor="start" x="355.5" y="-58.6" font-family="Helvetica,sans-Serif" font-size="8.00">+</text>
<text text-anchor="start" x="364.5" y="-58.6" font-family="Helvetica,sans-Serif" font-size="8.00">count_t count() const noexcept</text>
<text text-anchor="start" x="355.5" y="-45.6" font-family="Helvetica,sans-Serif" font-size="8.00">+</text>
<text text-anchor="start" x="364.5" y="-45.6" font-family="Helvetica,sans-Serif" font-size="8.00">void expunge(pmr_t *_pmr) noexcept</text>
<text text-anchor="start" x="356" y="-32.6" font-family="Helvetica,sans-Serif" font-size="8.00">*</text>
<text text-anchor="start" x="364.5" y="-32.6" font-family="Helvetica,sans-Serif" font-size="8.00">managed_node() noexcept</text>
<text text-anchor="start" x="356" y="-19.6" font-family="Helvetica,sans-Serif" font-size="8.00">*</text>
<text text-anchor="start" x="364.5" y="-19.6" font-family="Helvetica,sans-Serif" font-size="8.00">managed_node(index_t _index, managed_node *restrict const _parent=nullptr) noexcept</text>
<polygon fill="#666666" stroke="#666666" points="351.5,-80 351.5,-80 684.5,-80 684.5,-80 351.5,-80"/>
<polygon fill="#666666" stroke="#666666" points="351.5,-67 351.5,-67 362.5,-67 362.5,-67 351.5,-67"/>
<polygon fill="#666666" stroke="#666666" points="362.5,-67 362.5,-67 684.5,-67 684.5,-67 362.5,-67"/>
<polygon fill="none" stroke="#666666" points="351,-13 351,-95 684,-95 684,-13 351,-13"/>
</a>
</g>
</g>
<!-- Node1&#45;&gt;Node3 -->
<g id="edge2_Node000001_Node000003" class="edge">
<title>Node1&#45;&gt;Node3</title>
<g id="a_edge2_Node000001_Node000003"><a xlink:title=" ">
<path fill="none" stroke="#63b8ff" d="M517.5,-133.9C517.5,-121.85 517.5,-107.85 517.5,-95.02"/>
<polygon fill="none" stroke="#63b8ff" points="514,-133.9 517.5,-143.9 521,-133.9 514,-133.9"/>
</a>
</g>
</g>
<!-- Node4 -->
<g id="Node000004" class="node">
<title>Node4</title>
<g id="a_Node000004"><a xlink:href="../../d6/d3c/structchdr_1_1solvers_1_1unmanaged__node.html" target="_top" xlink:title="A hierarchical node in a pathfinding context, requires manual memory management.">
<polygon fill="white" stroke="transparent" points="1074.5,-95 702.5,-95 702.5,-13 1074.5,-13 1074.5,-95"/>
<text text-anchor="start" x="836" y="-84.6" font-family="Helvetica,sans-Serif" font-size="8.00">unmanaged_node&lt; index_t &gt;</text>
<text text-anchor="start" x="706.5" y="-71.6" font-family="Helvetica,sans-Serif" font-size="8.00">+</text>
<text text-anchor="start" x="715.5" y="-71.6" font-family="Helvetica,sans-Serif" font-size="8.00">const unmanaged_node *restrict m_parent</text>
<text text-anchor="start" x="706.5" y="-58.6" font-family="Helvetica,sans-Serif" font-size="8.00">+</text>
<text text-anchor="start" x="715.5" y="-58.6" font-family="Helvetica,sans-Serif" font-size="8.00">unmanaged_node() noexcept</text>
<text text-anchor="start" x="706.5" y="-45.6" font-family="Helvetica,sans-Serif" font-size="8.00">+</text>
<text text-anchor="start" x="715.5" y="-45.6" font-family="Helvetica,sans-Serif" font-size="8.00">unmanaged_node(index_t _index, const unmanaged_node *restrict const _parent=nullptr) noexcept</text>
<text text-anchor="start" x="707" y="-32.6" font-family="Helvetica,sans-Serif" font-size="8.00">*</text>
<text text-anchor="start" x="715.5" y="-32.6" font-family="Helvetica,sans-Serif" font-size="8.00">unmanaged_node() noexcept</text>
<text text-anchor="start" x="707" y="-19.6" font-family="Helvetica,sans-Serif" font-size="8.00">*</text>
<text text-anchor="start" x="715.5" y="-19.6" font-family="Helvetica,sans-Serif" font-size="8.00">unmanaged_node(index_t _index, const unmanaged_node *restrict const _parent=nullptr) noexcept</text>
<polygon fill="#666666" stroke="#666666" points="702.5,-80 702.5,-80 1074.5,-80 1074.5,-80 702.5,-80"/>
<polygon fill="#666666" stroke="#666666" points="702.5,-67 702.5,-67 713.5,-67 713.5,-67 702.5,-67"/>
<polygon fill="#666666" stroke="#666666" points="713.5,-67 713.5,-67 1074.5,-67 1074.5,-67 713.5,-67"/>
<polygon fill="none" stroke="#666666" points="702.5,-13 702.5,-95 1074.5,-95 1074.5,-13 702.5,-13"/>
</a>
</g>
</g>
<!-- Node1&#45;&gt;Node4 -->
<g id="edge3_Node000001_Node000004" class="edge">
<title>Node1&#45;&gt;Node4</title>
<g id="a_edge3_Node000001_Node000004"><a xlink:title=" ">
<path fill="none" stroke="#63b8ff" d="M567.98,-149.6C615.39,-135.61 688.47,-114.04 752.88,-95.03"/>
<polygon fill="none" stroke="#63b8ff" points="566.86,-146.28 558.26,-152.47 568.85,-152.99 566.86,-146.28"/>
</a>
</g>
</g>
</g>
</svg>
