<?xml version="1.0" encoding="UTF-8" standalone="no"?>
<!DOCTYPE svg PUBLIC "-//W3C//DTD SVG 1.1//EN"
 "http://www.w3.org/Graphics/SVG/1.1/DTD/svg11.dtd">
<!-- Generated by graphviz version 2.43.0 (0)
 -->
<!-- Title: bnode&lt; index_t &gt; Pages: 1 -->
<svg width="1227pt" height="195pt"
 viewBox="0.00 0.00 1227.00 195.00" xmlns="http://www.w3.org/2000/svg" xmlns:xlink="http://www.w3.org/1999/xlink">
<g id="graph0" class="graph" transform="scale(1 1) rotate(0) translate(4 191)">
<title>bnode&lt; index_t &gt;</title>
<!-- Node1 -->
<g id="Node000001" class="node">
<title>Node1</title>
<g id="a_Node000001"><a xlink:title="Base class for pathfinding nodes.">
<polygon fill="#999999" stroke="transparent" points="632.5,-187 540.5,-187 540.5,-144 632.5,-144 632.5,-187"/>
<text text-anchor="start" x="550" y="-176.1" font-family="Helvetica,sans-Serif" font-size="8.00">bnode&lt; index_t &gt;</text>
<text text-anchor="start" x="544.5" y="-163.1" font-family="Helvetica,sans-Serif" font-size="8.00">+</text>
<text text-anchor="start" x="555.5" y="-163.1" font-family="Helvetica,sans-Serif" font-size="8.00">index_t m_index</text>
<text text-anchor="start" x="546" y="-150.1" font-family="Helvetica,sans-Serif" font-size="8.00">*</text>
<text text-anchor="start" x="555.5" y="-150.1" font-family="Helvetica,sans-Serif" font-size="8.00">bnode() noexcept</text>
<polygon fill="#666666" stroke="#666666" points="540.5,-171.5 540.5,-171.5 632.5,-171.5 632.5,-171.5 540.5,-171.5"/>
<polygon fill="#666666" stroke="#666666" points="540.5,-158.5 540.5,-158.5 553.5,-158.5 553.5,-158.5 540.5,-158.5"/>
<polygon fill="#666666" stroke="#666666" points="553.5,-158.5 553.5,-158.5 632.5,-158.5 632.5,-158.5 553.5,-158.5"/>
<polygon fill="none" stroke="#666666" points="540.5,-144 540.5,-187 632.5,-187 632.5,-144 540.5,-144"/>
</a>
</g>
</g>
<!-- Node2 -->
<g id="Node000002" class="node">
<title>Node2</title>
<g id="a_Node000002"><a xlink:href="../../df/d64/structchdr_1_1solvers_1_1managed__node.html" target="_top" xlink:title=" ">
<polygon fill="white" stroke="transparent" points="379,-108 0,-108 0,0 379,0 379,-108"/>
<text text-anchor="start" x="122" y="-97.6" font-family="Helvetica,sans-Serif" font-size="8.00">managed_node&lt; index_t, node &gt;</text>
<text text-anchor="start" x="4.5" y="-84.6" font-family="Helvetica,sans-Serif" font-size="8.00">+</text>
<text text-anchor="start" x="15.5" y="-84.6" font-family="Helvetica,sans-Serif" font-size="8.00">managed_node *restrict m_parent</text>
<text text-anchor="start" x="4.5" y="-71.6" font-family="Helvetica,sans-Serif" font-size="8.00">+</text>
<text text-anchor="start" x="15.5" y="-71.6" font-family="Helvetica,sans-Serif" font-size="8.00">count_t count() const noexcept</text>
<text text-anchor="start" x="4.5" y="-58.6" font-family="Helvetica,sans-Serif" font-size="8.00">+</text>
<text text-anchor="start" x="15.5" y="-58.6" font-family="Helvetica,sans-Serif" font-size="8.00">void expunge(memory_resource_t *_resource)</text>
<text text-anchor="start" x="4.5" y="-45.6" font-family="Helvetica,sans-Serif" font-size="8.00">+</text>
<text text-anchor="start" x="15.5" y="-45.6" font-family="Helvetica,sans-Serif" font-size="8.00">managed_node() noexcept</text>
<text text-anchor="start" x="4.5" y="-32.6" font-family="Helvetica,sans-Serif" font-size="8.00">+</text>
<text text-anchor="start" x="15.5" y="-32.6" font-family="Helvetica,sans-Serif" font-size="8.00">managed_node(index_t _index, managed_node *restrict const _parent=nullptr) noexcept</text>
<text text-anchor="start" x="6" y="-19.6" font-family="Helvetica,sans-Serif" font-size="8.00">*</text>
<text text-anchor="start" x="15.5" y="-19.6" font-family="Helvetica,sans-Serif" font-size="8.00">managed_node() noexcept</text>
<text text-anchor="start" x="6" y="-6.6" font-family="Helvetica,sans-Serif" font-size="8.00">*</text>
<text text-anchor="start" x="15.5" y="-6.6" font-family="Helvetica,sans-Serif" font-size="8.00">managed_node(index_t _index, managed_node *restrict const _parent=nullptr) noexcept</text>
<polygon fill="#666666" stroke="#666666" points="0.5,-93 0.5,-93 379.5,-93 379.5,-93 0.5,-93"/>
<polygon fill="#666666" stroke="#666666" points="0.5,-80 0.5,-80 13.5,-80 13.5,-80 0.5,-80"/>
<polygon fill="#666666" stroke="#666666" points="13.5,-80 13.5,-80 379.5,-80 379.5,-80 13.5,-80"/>
<polygon fill="none" stroke="#666666" points="0,0 0,-108 379,-108 379,0 0,0"/>
</a>
</g>
</g>
<!-- Node1&#45;&gt;Node2 -->
<g id="edge1_Node000001_Node000002" class="edge">
<title>Node1&#45;&gt;Node2</title>
<g id="a_edge1_Node000001_Node000002"><a xlink:title=" ">
<path fill="none" stroke="#63b8ff" d="M530.39,-149.02C490.47,-138.01 434.31,-122.52 379.09,-107.29"/>
<polygon fill="none" stroke="#63b8ff" points="529.61,-152.44 540.18,-151.72 531.47,-145.69 529.61,-152.44"/>
</a>
</g>
</g>
<!-- Node3 -->
<g id="Node000003" class="node">
<title>Node3</title>
<g id="a_Node000003"><a xlink:href="../../df/d64/structchdr_1_1solvers_1_1managed__node.html" target="_top" xlink:title="A hierarchical node in a pathfinding context, with a clean&#45;up mechanism.">
<polygon fill="white" stroke="transparent" points="776,-95 397,-95 397,-13 776,-13 776,-95"/>
<text text-anchor="start" x="514" y="-84.6" font-family="Helvetica,sans-Serif" font-size="8.00">managed_node&lt; index_t, derived &gt;</text>
<text text-anchor="start" x="401.5" y="-71.6" font-family="Helvetica,sans-Serif" font-size="8.00">+</text>
<text text-anchor="start" x="412.5" y="-71.6" font-family="Helvetica,sans-Serif" font-size="8.00">managed_node *restrict m_parent</text>
<text text-anchor="start" x="401.5" y="-58.6" font-family="Helvetica,sans-Serif" font-size="8.00">+</text>
<text text-anchor="start" x="412.5" y="-58.6" font-family="Helvetica,sans-Serif" font-size="8.00">count_t count() const noexcept</text>
<text text-anchor="start" x="401.5" y="-45.6" font-family="Helvetica,sans-Serif" font-size="8.00">+</text>
<text text-anchor="start" x="412.5" y="-45.6" font-family="Helvetica,sans-Serif" font-size="8.00">void expunge(memory_resource_t *_resource)</text>
<text text-anchor="start" x="403" y="-32.6" font-family="Helvetica,sans-Serif" font-size="8.00">*</text>
<text text-anchor="start" x="412.5" y="-32.6" font-family="Helvetica,sans-Serif" font-size="8.00">managed_node() noexcept</text>
<text text-anchor="start" x="403" y="-19.6" font-family="Helvetica,sans-Serif" font-size="8.00">*</text>
<text text-anchor="start" x="412.5" y="-19.6" font-family="Helvetica,sans-Serif" font-size="8.00">managed_node(index_t _index, managed_node *restrict const _parent=nullptr) noexcept</text>
<polygon fill="#666666" stroke="#666666" points="397.5,-80 397.5,-80 776.5,-80 776.5,-80 397.5,-80"/>
<polygon fill="#666666" stroke="#666666" points="397.5,-67 397.5,-67 410.5,-67 410.5,-67 397.5,-67"/>
<polygon fill="#666666" stroke="#666666" points="410.5,-67 410.5,-67 776.5,-67 776.5,-67 410.5,-67"/>
<polygon fill="none" stroke="#666666" points="397,-13 397,-95 776,-95 776,-13 397,-13"/>
</a>
</g>
</g>
<!-- Node1&#45;&gt;Node3 -->
<g id="edge2_Node000001_Node000003" class="edge">
<title>Node1&#45;&gt;Node3</title>
<g id="a_edge2_Node000001_Node000003"><a xlink:title=" ">
<path fill="none" stroke="#63b8ff" d="M586.5,-133.9C586.5,-121.85 586.5,-107.85 586.5,-95.02"/>
<polygon fill="none" stroke="#63b8ff" points="583,-133.9 586.5,-143.9 590,-133.9 583,-133.9"/>
</a>
</g>
</g>
<!-- Node4 -->
<g id="Node000004" class="node">
<title>Node4</title>
<g id="a_Node000004"><a xlink:href="../../d6/d3c/structchdr_1_1solvers_1_1unmanaged__node.html" target="_top" xlink:title="A hierarchical node in a pathfinding context, requires manual memory management.">
<polygon fill="white" stroke="transparent" points="1219,-95 794,-95 794,-13 1219,-13 1219,-95"/>
<text text-anchor="start" x="946.5" y="-84.6" font-family="Helvetica,sans-Serif" font-size="8.00">unmanaged_node&lt; index_t &gt;</text>
<text text-anchor="start" x="798.5" y="-71.6" font-family="Helvetica,sans-Serif" font-size="8.00">+</text>
<text text-anchor="start" x="809.5" y="-71.6" font-family="Helvetica,sans-Serif" font-size="8.00">const unmanaged_node *restrict m_parent</text>
<text text-anchor="start" x="798.5" y="-58.6" font-family="Helvetica,sans-Serif" font-size="8.00">+</text>
<text text-anchor="start" x="809.5" y="-58.6" font-family="Helvetica,sans-Serif" font-size="8.00">unmanaged_node() noexcept</text>
<text text-anchor="start" x="798.5" y="-45.6" font-family="Helvetica,sans-Serif" font-size="8.00">+</text>
<text text-anchor="start" x="809.5" y="-45.6" font-family="Helvetica,sans-Serif" font-size="8.00">unmanaged_node(index_t _index, const unmanaged_node *restrict const _parent=nullptr) noexcept</text>
<text text-anchor="start" x="800" y="-32.6" font-family="Helvetica,sans-Serif" font-size="8.00">*</text>
<text text-anchor="start" x="809.5" y="-32.6" font-family="Helvetica,sans-Serif" font-size="8.00">unmanaged_node() noexcept</text>
<text text-anchor="start" x="800" y="-19.6" font-family="Helvetica,sans-Serif" font-size="8.00">*</text>
<text text-anchor="start" x="809.5" y="-19.6" font-family="Helvetica,sans-Serif" font-size="8.00">unmanaged_node(index_t _index, const unmanaged_node *restrict const _parent=nullptr) noexcept</text>
<polygon fill="#666666" stroke="#666666" points="794.5,-80 794.5,-80 1219.5,-80 1219.5,-80 794.5,-80"/>
<polygon fill="#666666" stroke="#666666" points="794.5,-67 794.5,-67 807.5,-67 807.5,-67 794.5,-67"/>
<polygon fill="#666666" stroke="#666666" points="807.5,-67 807.5,-67 1219.5,-67 1219.5,-67 807.5,-67"/>
<polygon fill="none" stroke="#666666" points="794,-13 794,-95 1219,-95 1219,-13 794,-13"/>
</a>
</g>
</g>
<!-- Node1&#45;&gt;Node4 -->
<g id="edge3_Node000001_Node000004" class="edge">
<title>Node1&#45;&gt;Node4</title>
<g id="a_edge3_Node000001_Node000004"><a xlink:title=" ">
<path fill="none" stroke="#63b8ff" d="M642.64,-149.86C696.28,-135.88 779.59,-114.16 852.97,-95.03"/>
<polygon fill="none" stroke="#63b8ff" points="641.44,-146.56 632.65,-152.47 643.21,-153.33 641.44,-146.56"/>
</a>
</g>
</g>
</g>
</svg>
