<?xml version="1.0" encoding="UTF-8" standalone="no"?>
<!DOCTYPE svg PUBLIC "-//W3C//DTD SVG 1.1//EN"
 "http://www.w3.org/Graphics/SVG/1.1/DTD/svg11.dtd">
<!-- Generated by graphviz version 2.43.0 (0)
 -->
<!-- Title: bnode&lt; index_t &gt; Pages: 1 -->
<svg width="1614pt" height="195pt"
 viewBox="0.00 0.00 1614.00 195.00" xmlns="http://www.w3.org/2000/svg" xmlns:xlink="http://www.w3.org/1999/xlink">
<g id="graph0" class="graph" transform="scale(1 1) rotate(0) translate(4 191)">
<title>bnode&lt; index_t &gt;</title>
<!-- Node1 -->
<g id="Node000001" class="node">
<title>Node1</title>
<g id="a_Node000001"><a xlink:title="Base class for pathfinding nodes.">
<polygon fill="#999999" stroke="transparent" points="828.5,-187 736.5,-187 736.5,-144 828.5,-144 828.5,-187"/>
<text text-anchor="start" x="746" y="-176.1" font-family="Helvetica,sans-Serif" font-size="8.00">bnode&lt; index_t &gt;</text>
<text text-anchor="start" x="740.5" y="-163.1" font-family="Helvetica,sans-Serif" font-size="8.00">+</text>
<text text-anchor="start" x="751.5" y="-163.1" font-family="Helvetica,sans-Serif" font-size="8.00">index_t m_index</text>
<text text-anchor="start" x="742" y="-150.1" font-family="Helvetica,sans-Serif" font-size="8.00">*</text>
<text text-anchor="start" x="751.5" y="-150.1" font-family="Helvetica,sans-Serif" font-size="8.00">bnode() noexcept</text>
<polygon fill="#666666" stroke="#666666" points="736.5,-171.5 736.5,-171.5 828.5,-171.5 828.5,-171.5 736.5,-171.5"/>
<polygon fill="#666666" stroke="#666666" points="736.5,-158.5 736.5,-158.5 749.5,-158.5 749.5,-158.5 736.5,-158.5"/>
<polygon fill="#666666" stroke="#666666" points="749.5,-158.5 749.5,-158.5 828.5,-158.5 828.5,-158.5 749.5,-158.5"/>
<polygon fill="none" stroke="#666666" points="736.5,-144 736.5,-187 828.5,-187 828.5,-144 736.5,-144"/>
</a>
</g>
</g>
<!-- Node2 -->
<g id="Node000002" class="node">
<title>Node2</title>
<g id="a_Node000002"><a xlink:href="../../df/d64/structchdr_1_1solvers_1_1managed__node.html" target="_top" xlink:title=" ">
<polygon fill="white" stroke="transparent" points="379,-108 0,-108 0,0 379,0 379,-108"/>
<text text-anchor="start" x="122" y="-97.6" font-family="Helvetica,sans-Serif" font-size="8.00">managed_node&lt; index_t, node &gt;</text>
<text text-anchor="start" x="4.5" y="-84.6" font-family="Helvetica,sans-Serif" font-size="8.00">+</text>
<text text-anchor="start" x="15.5" y="-84.6" font-family="Helvetica,sans-Serif" font-size="8.00">managed_node *restrict m_parent</text>
<text text-anchor="start" x="4.5" y="-71.6" font-family="Helvetica,sans-Serif" font-size="8.00">+</text>
<text text-anchor="start" x="15.5" y="-71.6" font-family="Helvetica,sans-Serif" font-size="8.00">count_t count() const noexcept</text>
<text text-anchor="start" x="4.5" y="-58.6" font-family="Helvetica,sans-Serif" font-size="8.00">+</text>
<text text-anchor="start" x="15.5" y="-58.6" font-family="Helvetica,sans-Serif" font-size="8.00">void expunge(memory_resource_t *_resource)</text>
<text text-anchor="start" x="4.5" y="-45.6" font-family="Helvetica,sans-Serif" font-size="8.00">+</text>
<text text-anchor="start" x="15.5" y="-45.6" font-family="Helvetica,sans-Serif" font-size="8.00">managed_node() noexcept</text>
<text text-anchor="start" x="4.5" y="-32.6" font-family="Helvetica,sans-Serif" font-size="8.00">+</text>
<text text-anchor="start" x="15.5" y="-32.6" font-family="Helvetica,sans-Serif" font-size="8.00">managed_node(index_t _index, managed_node *restrict const _parent=nullptr) noexcept</text>
<text text-anchor="start" x="6" y="-19.6" font-family="Helvetica,sans-Serif" font-size="8.00">*</text>
<text text-anchor="start" x="15.5" y="-19.6" font-family="Helvetica,sans-Serif" font-size="8.00">managed_node() noexcept</text>
<text text-anchor="start" x="6" y="-6.6" font-family="Helvetica,sans-Serif" font-size="8.00">*</text>
<text text-anchor="start" x="15.5" y="-6.6" font-family="Helvetica,sans-Serif" font-size="8.00">managed_node(index_t _index, managed_node *restrict const _parent=nullptr) noexcept</text>
<polygon fill="#666666" stroke="#666666" points="0.5,-93 0.5,-93 379.5,-93 379.5,-93 0.5,-93"/>
<polygon fill="#666666" stroke="#666666" points="0.5,-80 0.5,-80 13.5,-80 13.5,-80 0.5,-80"/>
<polygon fill="#666666" stroke="#666666" points="13.5,-80 13.5,-80 379.5,-80 379.5,-80 13.5,-80"/>
<polygon fill="none" stroke="#666666" points="0,0 0,-108 379,-108 379,0 0,0"/>
</a>
</g>
</g>
<!-- Node1&#45;&gt;Node2 -->
<g id="edge1_Node000001_Node000002" class="edge">
<title>Node1&#45;&gt;Node2</title>
<g id="a_edge1_Node000001_Node000002"><a xlink:title=" ">
<path fill="none" stroke="#63b8ff" d="M726.32,-158.6C649.39,-150.05 507.17,-132.48 387.5,-108 384.71,-107.43 381.9,-106.84 379.08,-106.24"/>
<polygon fill="none" stroke="#63b8ff" points="725.95,-162.08 736.28,-159.7 726.72,-155.13 725.95,-162.08"/>
</a>
</g>
</g>
<!-- Node3 -->
<g id="Node000003" class="node">
<title>Node3</title>
<g id="a_Node000003"><a xlink:href="../../df/d64/structchdr_1_1solvers_1_1managed__node.html" target="_top" xlink:title="A hierarchical node in a pathfinding context, with a clean&#45;up mechanism.">
<polygon fill="white" stroke="transparent" points="776,-95 397,-95 397,-13 776,-13 776,-95"/>
<text text-anchor="start" x="514" y="-84.6" font-family="Helvetica,sans-Serif" font-size="8.00">managed_node&lt; index_t, derived &gt;</text>
<text text-anchor="start" x="401.5" y="-71.6" font-family="Helvetica,sans-Serif" font-size="8.00">+</text>
<text text-anchor="start" x="412.5" y="-71.6" font-family="Helvetica,sans-Serif" font-size="8.00">managed_node *restrict m_parent</text>
<text text-anchor="start" x="401.5" y="-58.6" font-family="Helvetica,sans-Serif" font-size="8.00">+</text>
<text text-anchor="start" x="412.5" y="-58.6" font-family="Helvetica,sans-Serif" font-size="8.00">count_t count() const noexcept</text>
<text text-anchor="start" x="401.5" y="-45.6" font-family="Helvetica,sans-Serif" font-size="8.00">+</text>
<text text-anchor="start" x="412.5" y="-45.6" font-family="Helvetica,sans-Serif" font-size="8.00">void expunge(memory_resource_t *_resource)</text>
<text text-anchor="start" x="403" y="-32.6" font-family="Helvetica,sans-Serif" font-size="8.00">*</text>
<text text-anchor="start" x="412.5" y="-32.6" font-family="Helvetica,sans-Serif" font-size="8.00">managed_node() noexcept</text>
<text text-anchor="start" x="403" y="-19.6" font-family="Helvetica,sans-Serif" font-size="8.00">*</text>
<text text-anchor="start" x="412.5" y="-19.6" font-family="Helvetica,sans-Serif" font-size="8.00">managed_node(index_t _index, managed_node *restrict const _parent=nullptr) noexcept</text>
<polygon fill="#666666" stroke="#666666" points="397.5,-80 397.5,-80 776.5,-80 776.5,-80 397.5,-80"/>
<polygon fill="#666666" stroke="#666666" points="397.5,-67 397.5,-67 410.5,-67 410.5,-67 397.5,-67"/>
<polygon fill="#666666" stroke="#666666" points="410.5,-67 410.5,-67 776.5,-67 776.5,-67 410.5,-67"/>
<polygon fill="none" stroke="#666666" points="397,-13 397,-95 776,-95 776,-13 397,-13"/>
</a>
</g>
</g>
<!-- Node1&#45;&gt;Node3 -->
<g id="edge2_Node000001_Node000003" class="edge">
<title>Node1&#45;&gt;Node3</title>
<g id="a_edge2_Node000001_Node000003"><a xlink:title=" ">
<path fill="none" stroke="#63b8ff" d="M736.65,-138.88C713.29,-125.83 684.35,-109.67 658.13,-95.02"/>
<polygon fill="none" stroke="#63b8ff" points="735.2,-142.08 745.63,-143.9 738.61,-135.97 735.2,-142.08"/>
</a>
</g>
</g>
<!-- Node4 -->
<g id="Node000004" class="node">
<title>Node4</title>
<g id="a_Node000004"><a xlink:href="../../da/d36/structchdr_1_1solvers_1_1mutable__node.html" target="_top" xlink:title="A hierarchical node in a pathfinding context, requires manual memory management.">
<polygon fill="white" stroke="transparent" points="1162.5,-95 794.5,-95 794.5,-13 1162.5,-13 1162.5,-95"/>
<text text-anchor="start" x="925.5" y="-84.6" font-family="Helvetica,sans-Serif" font-size="8.00">mutable_node&lt; index_t &gt;</text>
<text text-anchor="start" x="798.5" y="-71.6" font-family="Helvetica,sans-Serif" font-size="8.00">+</text>
<text text-anchor="start" x="809.5" y="-71.6" font-family="Helvetica,sans-Serif" font-size="8.00">mutable_node *restrict m_parent</text>
<text text-anchor="start" x="798.5" y="-58.6" font-family="Helvetica,sans-Serif" font-size="8.00">+</text>
<text text-anchor="start" x="809.5" y="-58.6" font-family="Helvetica,sans-Serif" font-size="8.00">mutable_node() noexcept</text>
<text text-anchor="start" x="798.5" y="-45.6" font-family="Helvetica,sans-Serif" font-size="8.00">+</text>
<text text-anchor="start" x="809.5" y="-45.6" font-family="Helvetica,sans-Serif" font-size="8.00">mutable_node(index_t _index, mutable_node *restrict const _parent=nullptr) noexcept</text>
<text text-anchor="start" x="800" y="-32.6" font-family="Helvetica,sans-Serif" font-size="8.00">*</text>
<text text-anchor="start" x="809.5" y="-32.6" font-family="Helvetica,sans-Serif" font-size="8.00">mutable_node() noexcept</text>
<text text-anchor="start" x="800" y="-19.6" font-family="Helvetica,sans-Serif" font-size="8.00">*</text>
<text text-anchor="start" x="809.5" y="-19.6" font-family="Helvetica,sans-Serif" font-size="8.00">mutable_node(index_t _index, mutable_node *restrict const _parent=nullptr) noexcept</text>
<polygon fill="#666666" stroke="#666666" points="794.5,-80 794.5,-80 1162.5,-80 1162.5,-80 794.5,-80"/>
<polygon fill="#666666" stroke="#666666" points="794.5,-67 794.5,-67 807.5,-67 807.5,-67 794.5,-67"/>
<polygon fill="#666666" stroke="#666666" points="807.5,-67 807.5,-67 1162.5,-67 1162.5,-67 807.5,-67"/>
<polygon fill="none" stroke="#666666" points="794.5,-13 794.5,-95 1162.5,-95 1162.5,-13 794.5,-13"/>
</a>
</g>
</g>
<!-- Node1&#45;&gt;Node4 -->
<g id="edge3_Node000001_Node000004" class="edge">
<title>Node1&#45;&gt;Node4</title>
<g id="a_edge3_Node000001_Node000004"><a xlink:title=" ">
<path fill="none" stroke="#63b8ff" d="M828.35,-138.88C851.71,-125.83 880.65,-109.67 906.87,-95.02"/>
<polygon fill="none" stroke="#63b8ff" points="826.39,-135.97 819.37,-143.9 829.8,-142.08 826.39,-135.97"/>
</a>
</g>
</g>
<!-- Node5 -->
<g id="Node000005" class="node">
<title>Node5</title>
<g id="a_Node000005"><a xlink:href="../../d6/d3c/structchdr_1_1solvers_1_1unmanaged__node.html" target="_top" xlink:title="A hierarchical node in a pathfinding context, requires manual memory management.">
<polygon fill="white" stroke="transparent" points="1606,-95 1181,-95 1181,-13 1606,-13 1606,-95"/>
<text text-anchor="start" x="1333.5" y="-84.6" font-family="Helvetica,sans-Serif" font-size="8.00">unmanaged_node&lt; index_t &gt;</text>
<text text-anchor="start" x="1185.5" y="-71.6" font-family="Helvetica,sans-Serif" font-size="8.00">+</text>
<text text-anchor="start" x="1196.5" y="-71.6" font-family="Helvetica,sans-Serif" font-size="8.00">const unmanaged_node *restrict m_parent</text>
<text text-anchor="start" x="1185.5" y="-58.6" font-family="Helvetica,sans-Serif" font-size="8.00">+</text>
<text text-anchor="start" x="1196.5" y="-58.6" font-family="Helvetica,sans-Serif" font-size="8.00">unmanaged_node() noexcept</text>
<text text-anchor="start" x="1185.5" y="-45.6" font-family="Helvetica,sans-Serif" font-size="8.00">+</text>
<text text-anchor="start" x="1196.5" y="-45.6" font-family="Helvetica,sans-Serif" font-size="8.00">unmanaged_node(index_t _index, const unmanaged_node *restrict const _parent=nullptr) noexcept</text>
<text text-anchor="start" x="1187" y="-32.6" font-family="Helvetica,sans-Serif" font-size="8.00">*</text>
<text text-anchor="start" x="1196.5" y="-32.6" font-family="Helvetica,sans-Serif" font-size="8.00">unmanaged_node() noexcept</text>
<text text-anchor="start" x="1187" y="-19.6" font-family="Helvetica,sans-Serif" font-size="8.00">*</text>
<text text-anchor="start" x="1196.5" y="-19.6" font-family="Helvetica,sans-Serif" font-size="8.00">unmanaged_node(index_t _index, const unmanaged_node *restrict const _parent=nullptr) noexcept</text>
<polygon fill="#666666" stroke="#666666" points="1181.5,-80 1181.5,-80 1606.5,-80 1606.5,-80 1181.5,-80"/>
<polygon fill="#666666" stroke="#666666" points="1181.5,-67 1181.5,-67 1194.5,-67 1194.5,-67 1181.5,-67"/>
<polygon fill="#666666" stroke="#666666" points="1194.5,-67 1194.5,-67 1606.5,-67 1606.5,-67 1194.5,-67"/>
<polygon fill="none" stroke="#666666" points="1181,-13 1181,-95 1606,-95 1606,-13 1181,-13"/>
</a>
</g>
</g>
<!-- Node1&#45;&gt;Node5 -->
<g id="edge4_Node000001_Node000005" class="edge">
<title>Node1&#45;&gt;Node5</title>
<g id="a_edge4_Node000001_Node000005"><a xlink:title=" ">
<path fill="none" stroke="#63b8ff" d="M838.82,-157.94C914.71,-148.73 1053.88,-130.54 1171.5,-108 1191.64,-104.14 1212.71,-99.68 1233.51,-95.01"/>
<polygon fill="none" stroke="#63b8ff" points="838.04,-154.51 828.54,-159.18 838.88,-161.45 838.04,-154.51"/>
</a>
</g>
</g>
</g>
</svg>
