<?xml version="1.0" encoding="UTF-8" standalone="no"?>
<!DOCTYPE svg PUBLIC "-//W3C//DTD SVG 1.1//EN"
 "http://www.w3.org/Graphics/SVG/1.1/DTD/svg11.dtd">
<!-- Generated by graphviz version 2.43.0 (0)
 -->
<!-- Title: bnode&lt; index_t &gt; Pages: 1 -->
<svg width="1614pt" height="208pt"
 viewBox="0.00 0.00 1614.00 208.00" xmlns="http://www.w3.org/2000/svg" xmlns:xlink="http://www.w3.org/1999/xlink">
<g id="graph0" class="graph" transform="scale(1 1) rotate(0) translate(4 204)">
<title>bnode&lt; index_t &gt;</title>
<!-- Node1 -->
<g id="Node000001" class="node">
<title>Node1</title>
<g id="a_Node000001"><a xlink:title="Base class for pathfinding nodes.">
<polygon fill="#999999" stroke="transparent" points="828.5,-200 736.5,-200 736.5,-157 828.5,-157 828.5,-200"/>
<text text-anchor="start" x="746" y="-189.1" font-family="Helvetica,sans-Serif" font-size="8.00">bnode&lt; index_t &gt;</text>
<text text-anchor="start" x="740.5" y="-176.1" font-family="Helvetica,sans-Serif" font-size="8.00">+</text>
<text text-anchor="start" x="751.5" y="-176.1" font-family="Helvetica,sans-Serif" font-size="8.00">index_t m_index</text>
<text text-anchor="start" x="742" y="-163.1" font-family="Helvetica,sans-Serif" font-size="8.00">*</text>
<text text-anchor="start" x="751.5" y="-163.1" font-family="Helvetica,sans-Serif" font-size="8.00">bnode() noexcept</text>
<polygon fill="#666666" stroke="#666666" points="736.5,-184.5 736.5,-184.5 828.5,-184.5 828.5,-184.5 736.5,-184.5"/>
<polygon fill="#666666" stroke="#666666" points="736.5,-171.5 736.5,-171.5 749.5,-171.5 749.5,-171.5 736.5,-171.5"/>
<polygon fill="#666666" stroke="#666666" points="749.5,-171.5 749.5,-171.5 828.5,-171.5 828.5,-171.5 749.5,-171.5"/>
<polygon fill="none" stroke="#666666" points="736.5,-157 736.5,-200 828.5,-200 828.5,-157 736.5,-157"/>
</a>
</g>
</g>
<!-- Node2 -->
<g id="Node000002" class="node">
<title>Node2</title>
<g id="a_Node000002"><a xlink:href="../../df/d64/structchdr_1_1solvers_1_1managed__node.html" target="_top" xlink:title=" ">
<polygon fill="white" stroke="transparent" points="379,-121 0,-121 0,0 379,0 379,-121"/>
<text text-anchor="start" x="122" y="-110.1" font-family="Helvetica,sans-Serif" font-size="8.00">managed_node&lt; index_t, node &gt;</text>
<text text-anchor="start" x="4.5" y="-97.1" font-family="Helvetica,sans-Serif" font-size="8.00">+</text>
<text text-anchor="start" x="15.5" y="-97.1" font-family="Helvetica,sans-Serif" font-size="8.00">managed_node *restrict m_parent</text>
<text text-anchor="start" x="4.5" y="-84.1" font-family="Helvetica,sans-Serif" font-size="8.00">+</text>
<text text-anchor="start" x="15.5" y="-84.1" font-family="Helvetica,sans-Serif" font-size="8.00">count_t count() const noexcept</text>
<text text-anchor="start" x="4.5" y="-71.1" font-family="Helvetica,sans-Serif" font-size="8.00">+</text>
<text text-anchor="start" x="15.5" y="-71.1" font-family="Helvetica,sans-Serif" font-size="8.00">void expunge(memory_resource_t *_resource)</text>
<text text-anchor="start" x="4.5" y="-58.1" font-family="Helvetica,sans-Serif" font-size="8.00">+</text>
<text text-anchor="start" x="15.5" y="-58.1" font-family="Helvetica,sans-Serif" font-size="8.00">auto * expunge_one()</text>
<text text-anchor="start" x="4.5" y="-45.1" font-family="Helvetica,sans-Serif" font-size="8.00">+</text>
<text text-anchor="start" x="15.5" y="-45.1" font-family="Helvetica,sans-Serif" font-size="8.00">managed_node() noexcept</text>
<text text-anchor="start" x="4.5" y="-32.1" font-family="Helvetica,sans-Serif" font-size="8.00">+</text>
<text text-anchor="start" x="15.5" y="-32.1" font-family="Helvetica,sans-Serif" font-size="8.00">managed_node(index_t _index, managed_node *restrict const _parent=nullptr) noexcept</text>
<text text-anchor="start" x="6" y="-19.1" font-family="Helvetica,sans-Serif" font-size="8.00">*</text>
<text text-anchor="start" x="15.5" y="-19.1" font-family="Helvetica,sans-Serif" font-size="8.00">managed_node() noexcept</text>
<text text-anchor="start" x="6" y="-6.1" font-family="Helvetica,sans-Serif" font-size="8.00">*</text>
<text text-anchor="start" x="15.5" y="-6.1" font-family="Helvetica,sans-Serif" font-size="8.00">managed_node(index_t _index, managed_node *restrict const _parent=nullptr) noexcept</text>
<polygon fill="#666666" stroke="#666666" points="0.5,-105.5 0.5,-105.5 379.5,-105.5 379.5,-105.5 0.5,-105.5"/>
<polygon fill="#666666" stroke="#666666" points="0.5,-92.5 0.5,-92.5 13.5,-92.5 13.5,-92.5 0.5,-92.5"/>
<polygon fill="#666666" stroke="#666666" points="13.5,-92.5 13.5,-92.5 379.5,-92.5 379.5,-92.5 13.5,-92.5"/>
<polygon fill="none" stroke="#666666" points="0,0 0,-121 379,-121 379,0 0,0"/>
</a>
</g>
</g>
<!-- Node1&#45;&gt;Node2 -->
<g id="edge1_Node000001_Node000002" class="edge">
<title>Node1&#45;&gt;Node2</title>
<g id="a_edge1_Node000001_Node000002"><a xlink:title=" ">
<path fill="none" stroke="#63b8ff" d="M726.52,-172.16C649.54,-164.22 506.95,-147.34 387.5,-121 384.7,-120.38 381.87,-119.74 379.04,-119.09"/>
<polygon fill="none" stroke="#63b8ff" points="726.18,-175.65 736.48,-173.18 726.89,-168.68 726.18,-175.65"/>
</a>
</g>
</g>
<!-- Node3 -->
<g id="Node000003" class="node">
<title>Node3</title>
<g id="a_Node000003"><a xlink:href="../../df/d64/structchdr_1_1solvers_1_1managed__node.html" target="_top" xlink:title="A hierarchical node in a pathfinding context, with a clean&#45;up mechanism.">
<polygon fill="white" stroke="transparent" points="776,-108 397,-108 397,-13 776,-13 776,-108"/>
<text text-anchor="start" x="514" y="-97.1" font-family="Helvetica,sans-Serif" font-size="8.00">managed_node&lt; index_t, derived &gt;</text>
<text text-anchor="start" x="401.5" y="-84.1" font-family="Helvetica,sans-Serif" font-size="8.00">+</text>
<text text-anchor="start" x="412.5" y="-84.1" font-family="Helvetica,sans-Serif" font-size="8.00">managed_node *restrict m_parent</text>
<text text-anchor="start" x="401.5" y="-71.1" font-family="Helvetica,sans-Serif" font-size="8.00">+</text>
<text text-anchor="start" x="412.5" y="-71.1" font-family="Helvetica,sans-Serif" font-size="8.00">count_t count() const noexcept</text>
<text text-anchor="start" x="401.5" y="-58.1" font-family="Helvetica,sans-Serif" font-size="8.00">+</text>
<text text-anchor="start" x="412.5" y="-58.1" font-family="Helvetica,sans-Serif" font-size="8.00">void expunge(memory_resource_t *_resource)</text>
<text text-anchor="start" x="401.5" y="-45.1" font-family="Helvetica,sans-Serif" font-size="8.00">+</text>
<text text-anchor="start" x="412.5" y="-45.1" font-family="Helvetica,sans-Serif" font-size="8.00">auto * expunge_one()</text>
<text text-anchor="start" x="403" y="-32.1" font-family="Helvetica,sans-Serif" font-size="8.00">*</text>
<text text-anchor="start" x="412.5" y="-32.1" font-family="Helvetica,sans-Serif" font-size="8.00">managed_node() noexcept</text>
<text text-anchor="start" x="403" y="-19.1" font-family="Helvetica,sans-Serif" font-size="8.00">*</text>
<text text-anchor="start" x="412.5" y="-19.1" font-family="Helvetica,sans-Serif" font-size="8.00">managed_node(index_t _index, managed_node *restrict const _parent=nullptr) noexcept</text>
<polygon fill="#666666" stroke="#666666" points="397.5,-92.5 397.5,-92.5 776.5,-92.5 776.5,-92.5 397.5,-92.5"/>
<polygon fill="#666666" stroke="#666666" points="397.5,-79.5 397.5,-79.5 410.5,-79.5 410.5,-79.5 397.5,-79.5"/>
<polygon fill="#666666" stroke="#666666" points="410.5,-79.5 410.5,-79.5 776.5,-79.5 776.5,-79.5 410.5,-79.5"/>
<polygon fill="none" stroke="#666666" points="397,-13 397,-108 776,-108 776,-13 397,-13"/>
</a>
</g>
</g>
<!-- Node1&#45;&gt;Node3 -->
<g id="edge2_Node000001_Node000003" class="edge">
<title>Node1&#45;&gt;Node3</title>
<g id="a_edge2_Node000001_Node000003"><a xlink:title=" ">
<path fill="none" stroke="#63b8ff" d="M738.81,-151.64C717.12,-138.8 690.24,-122.9 665.13,-108.03"/>
<polygon fill="none" stroke="#63b8ff" points="737.07,-154.68 747.46,-156.76 740.64,-148.66 737.07,-154.68"/>
</a>
</g>
</g>
<!-- Node4 -->
<g id="Node000004" class="node">
<title>Node4</title>
<g id="a_Node000004"><a xlink:href="../../da/d36/structchdr_1_1solvers_1_1mutable__node.html" target="_top" xlink:title="A hierarchical node in a pathfinding context, requires manual memory management.">
<polygon fill="white" stroke="transparent" points="1162.5,-101.5 794.5,-101.5 794.5,-19.5 1162.5,-19.5 1162.5,-101.5"/>
<text text-anchor="start" x="925.5" y="-91.1" font-family="Helvetica,sans-Serif" font-size="8.00">mutable_node&lt; index_t &gt;</text>
<text text-anchor="start" x="798.5" y="-78.1" font-family="Helvetica,sans-Serif" font-size="8.00">+</text>
<text text-anchor="start" x="809.5" y="-78.1" font-family="Helvetica,sans-Serif" font-size="8.00">mutable_node *restrict m_parent</text>
<text text-anchor="start" x="798.5" y="-65.1" font-family="Helvetica,sans-Serif" font-size="8.00">+</text>
<text text-anchor="start" x="809.5" y="-65.1" font-family="Helvetica,sans-Serif" font-size="8.00">mutable_node() noexcept</text>
<text text-anchor="start" x="798.5" y="-52.1" font-family="Helvetica,sans-Serif" font-size="8.00">+</text>
<text text-anchor="start" x="809.5" y="-52.1" font-family="Helvetica,sans-Serif" font-size="8.00">mutable_node(index_t _index, mutable_node *restrict const _parent=nullptr) noexcept</text>
<text text-anchor="start" x="800" y="-39.1" font-family="Helvetica,sans-Serif" font-size="8.00">*</text>
<text text-anchor="start" x="809.5" y="-39.1" font-family="Helvetica,sans-Serif" font-size="8.00">mutable_node() noexcept</text>
<text text-anchor="start" x="800" y="-26.1" font-family="Helvetica,sans-Serif" font-size="8.00">*</text>
<text text-anchor="start" x="809.5" y="-26.1" font-family="Helvetica,sans-Serif" font-size="8.00">mutable_node(index_t _index, mutable_node *restrict const _parent=nullptr) noexcept</text>
<polygon fill="#666666" stroke="#666666" points="794.5,-86.5 794.5,-86.5 1162.5,-86.5 1162.5,-86.5 794.5,-86.5"/>
<polygon fill="#666666" stroke="#666666" points="794.5,-73.5 794.5,-73.5 807.5,-73.5 807.5,-73.5 794.5,-73.5"/>
<polygon fill="#666666" stroke="#666666" points="807.5,-73.5 807.5,-73.5 1162.5,-73.5 1162.5,-73.5 807.5,-73.5"/>
<polygon fill="none" stroke="#666666" points="794.5,-19.5 794.5,-101.5 1162.5,-101.5 1162.5,-19.5 794.5,-19.5"/>
</a>
</g>
</g>
<!-- Node1&#45;&gt;Node4 -->
<g id="edge3_Node000001_Node000004" class="edge">
<title>Node1&#45;&gt;Node4</title>
<g id="a_edge3_Node000001_Node000004"><a xlink:title=" ">
<path fill="none" stroke="#63b8ff" d="M826.38,-151.53C851.24,-136.82 882.88,-118.09 910.86,-101.53"/>
<polygon fill="none" stroke="#63b8ff" points="824.36,-148.66 817.54,-156.76 827.93,-154.68 824.36,-148.66"/>
</a>
</g>
</g>
<!-- Node5 -->
<g id="Node000005" class="node">
<title>Node5</title>
<g id="a_Node000005"><a xlink:href="../../d6/d3c/structchdr_1_1solvers_1_1unmanaged__node.html" target="_top" xlink:title="A hierarchical node in a pathfinding context, requires manual memory management.">
<polygon fill="white" stroke="transparent" points="1606,-101.5 1181,-101.5 1181,-19.5 1606,-19.5 1606,-101.5"/>
<text text-anchor="start" x="1333.5" y="-91.1" font-family="Helvetica,sans-Serif" font-size="8.00">unmanaged_node&lt; index_t &gt;</text>
<text text-anchor="start" x="1185.5" y="-78.1" font-family="Helvetica,sans-Serif" font-size="8.00">+</text>
<text text-anchor="start" x="1196.5" y="-78.1" font-family="Helvetica,sans-Serif" font-size="8.00">const unmanaged_node *restrict m_parent</text>
<text text-anchor="start" x="1185.5" y="-65.1" font-family="Helvetica,sans-Serif" font-size="8.00">+</text>
<text text-anchor="start" x="1196.5" y="-65.1" font-family="Helvetica,sans-Serif" font-size="8.00">unmanaged_node() noexcept</text>
<text text-anchor="start" x="1185.5" y="-52.1" font-family="Helvetica,sans-Serif" font-size="8.00">+</text>
<text text-anchor="start" x="1196.5" y="-52.1" font-family="Helvetica,sans-Serif" font-size="8.00">unmanaged_node(index_t _index, const unmanaged_node *restrict const _parent=nullptr) noexcept</text>
<text text-anchor="start" x="1187" y="-39.1" font-family="Helvetica,sans-Serif" font-size="8.00">*</text>
<text text-anchor="start" x="1196.5" y="-39.1" font-family="Helvetica,sans-Serif" font-size="8.00">unmanaged_node() noexcept</text>
<text text-anchor="start" x="1187" y="-26.1" font-family="Helvetica,sans-Serif" font-size="8.00">*</text>
<text text-anchor="start" x="1196.5" y="-26.1" font-family="Helvetica,sans-Serif" font-size="8.00">unmanaged_node(index_t _index, const unmanaged_node *restrict const _parent=nullptr) noexcept</text>
<polygon fill="#666666" stroke="#666666" points="1181.5,-86.5 1181.5,-86.5 1606.5,-86.5 1606.5,-86.5 1181.5,-86.5"/>
<polygon fill="#666666" stroke="#666666" points="1181.5,-73.5 1181.5,-73.5 1194.5,-73.5 1194.5,-73.5 1181.5,-73.5"/>
<polygon fill="#666666" stroke="#666666" points="1194.5,-73.5 1194.5,-73.5 1606.5,-73.5 1606.5,-73.5 1194.5,-73.5"/>
<polygon fill="none" stroke="#666666" points="1181,-19.5 1181,-101.5 1606,-101.5 1606,-19.5 1181,-19.5"/>
</a>
</g>
</g>
<!-- Node1&#45;&gt;Node5 -->
<g id="edge4_Node000001_Node000005" class="edge">
<title>Node1&#45;&gt;Node5</title>
<g id="a_edge4_Node000001_Node000005"><a xlink:title=" ">
<path fill="none" stroke="#63b8ff" d="M838.91,-171.42C914.91,-162.74 1054.2,-145.15 1171.5,-121 1198.37,-115.47 1226.82,-108.62 1254.06,-101.55"/>
<polygon fill="none" stroke="#63b8ff" points="838.16,-167.98 828.62,-172.58 838.95,-174.94 838.16,-167.98"/>
</a>
</g>
</g>
</g>
</svg>
