<?xml version="1.0" encoding="UTF-8" standalone="no"?>
<!DOCTYPE svg PUBLIC "-//W3C//DTD SVG 1.1//EN"
 "http://www.w3.org/Graphics/SVG/1.1/DTD/svg11.dtd">
<!-- Generated by graphviz version 2.43.0 (0)
 -->
<!-- Title: bnode&lt; index_t &gt; Pages: 1 -->
<svg width="1083pt" height="208pt"
 viewBox="0.00 0.00 1082.50 208.00" xmlns="http://www.w3.org/2000/svg" xmlns:xlink="http://www.w3.org/1999/xlink">
<g id="graph0" class="graph" transform="scale(1 1) rotate(0) translate(4 204)">
<title>bnode&lt; index_t &gt;</title>
<!-- Node1 -->
<g id="Node000001" class="node">
<title>Node1</title>
<g id="a_Node000001"><a xlink:title="Base class for pathfinding nodes.">
<polygon fill="#999999" stroke="transparent" points="558,-200 477,-200 477,-157 558,-157 558,-200"/>
<text text-anchor="start" x="487" y="-189.1" font-family="Helvetica,sans-Serif" font-size="8.00">bnode&lt; index_t &gt;</text>
<text text-anchor="start" x="481.5" y="-176.1" font-family="Helvetica,sans-Serif" font-size="8.00">+</text>
<text text-anchor="start" x="490.5" y="-176.1" font-family="Helvetica,sans-Serif" font-size="8.00">index_t m_index</text>
<text text-anchor="start" x="482" y="-163.1" font-family="Helvetica,sans-Serif" font-size="8.00">*</text>
<text text-anchor="start" x="490.5" y="-163.1" font-family="Helvetica,sans-Serif" font-size="8.00">bnode() noexcept</text>
<polygon fill="#666666" stroke="#666666" points="477.5,-184.5 477.5,-184.5 558.5,-184.5 558.5,-184.5 477.5,-184.5"/>
<polygon fill="#666666" stroke="#666666" points="477.5,-171.5 477.5,-171.5 488.5,-171.5 488.5,-171.5 477.5,-171.5"/>
<polygon fill="#666666" stroke="#666666" points="488.5,-171.5 488.5,-171.5 558.5,-171.5 558.5,-171.5 488.5,-171.5"/>
<polygon fill="none" stroke="#666666" points="477,-157 477,-200 558,-200 558,-157 477,-157"/>
</a>
</g>
</g>
<!-- Node2 -->
<g id="Node000002" class="node">
<title>Node2</title>
<g id="a_Node000002"><a xlink:href="../../df/d64/structchdr_1_1solvers_1_1managed__node.html" target="_top" xlink:title=" ">
<polygon fill="white" stroke="transparent" points="333,-121 0,-121 0,0 333,0 333,-121"/>
<text text-anchor="start" x="108" y="-110.1" font-family="Helvetica,sans-Serif" font-size="8.00">managed_node&lt; index_t, node &gt;</text>
<text text-anchor="start" x="4.5" y="-97.1" font-family="Helvetica,sans-Serif" font-size="8.00">+</text>
<text text-anchor="start" x="13.5" y="-97.1" font-family="Helvetica,sans-Serif" font-size="8.00">managed_node *restrict m_parent</text>
<text text-anchor="start" x="4.5" y="-84.1" font-family="Helvetica,sans-Serif" font-size="8.00">+</text>
<text text-anchor="start" x="13.5" y="-84.1" font-family="Helvetica,sans-Serif" font-size="8.00">void decr() const noexcept</text>
<text text-anchor="start" x="4.5" y="-71.1" font-family="Helvetica,sans-Serif" font-size="8.00">+</text>
<text text-anchor="start" x="13.5" y="-71.1" font-family="Helvetica,sans-Serif" font-size="8.00">void expunge(pmr_t *_pmr) noexcept</text>
<text text-anchor="start" x="4.5" y="-58.1" font-family="Helvetica,sans-Serif" font-size="8.00">+</text>
<text text-anchor="start" x="13.5" y="-58.1" font-family="Helvetica,sans-Serif" font-size="8.00">void incr() const noexcept</text>
<text text-anchor="start" x="4.5" y="-45.1" font-family="Helvetica,sans-Serif" font-size="8.00">+</text>
<text text-anchor="start" x="13.5" y="-45.1" font-family="Helvetica,sans-Serif" font-size="8.00">managed_node() noexcept</text>
<text text-anchor="start" x="4.5" y="-32.1" font-family="Helvetica,sans-Serif" font-size="8.00">+</text>
<text text-anchor="start" x="13.5" y="-32.1" font-family="Helvetica,sans-Serif" font-size="8.00">managed_node(index_t _index, managed_node *restrict const _parent=nullptr) noexcept</text>
<text text-anchor="start" x="5" y="-19.1" font-family="Helvetica,sans-Serif" font-size="8.00">*</text>
<text text-anchor="start" x="13.5" y="-19.1" font-family="Helvetica,sans-Serif" font-size="8.00">managed_node() noexcept</text>
<text text-anchor="start" x="5" y="-6.1" font-family="Helvetica,sans-Serif" font-size="8.00">*</text>
<text text-anchor="start" x="13.5" y="-6.1" font-family="Helvetica,sans-Serif" font-size="8.00">managed_node(index_t _index, managed_node *restrict const _parent=nullptr) noexcept</text>
<polygon fill="#666666" stroke="#666666" points="0.5,-105.5 0.5,-105.5 333.5,-105.5 333.5,-105.5 0.5,-105.5"/>
<polygon fill="#666666" stroke="#666666" points="0.5,-92.5 0.5,-92.5 11.5,-92.5 11.5,-92.5 0.5,-92.5"/>
<polygon fill="#666666" stroke="#666666" points="11.5,-92.5 11.5,-92.5 333.5,-92.5 333.5,-92.5 11.5,-92.5"/>
<polygon fill="none" stroke="#666666" points="0,0 0,-121 333,-121 333,0 0,0"/>
</a>
</g>
</g>
<!-- Node1&#45;&gt;Node2 -->
<g id="edge1_Node000001_Node000002" class="edge">
<title>Node1&#45;&gt;Node2</title>
<g id="a_edge1_Node000001_Node000002"><a xlink:title=" ">
<path fill="none" stroke="#63b8ff" d="M467.31,-161.64C432.06,-150.44 383.83,-134.99 341.5,-121 338.76,-120.09 335.99,-119.18 333.21,-118.25"/>
<polygon fill="none" stroke="#63b8ff" points="466.3,-164.99 476.89,-164.68 468.42,-158.32 466.3,-164.99"/>
</a>
</g>
</g>
<!-- Node3 -->
<g id="Node000003" class="node">
<title>Node3</title>
<g id="a_Node000003"><a xlink:href="../../df/d64/structchdr_1_1solvers_1_1managed__node.html" target="_top" xlink:title="A hierarchical node in a pathfinding context, with a clean&#45;up mechanism.">
<polygon fill="white" stroke="transparent" points="684,-121 351,-121 351,0 684,0 684,-121"/>
<text text-anchor="start" x="454.5" y="-110.1" font-family="Helvetica,sans-Serif" font-size="8.00">managed_node&lt; index_t, derived &gt;</text>
<text text-anchor="start" x="355.5" y="-97.1" font-family="Helvetica,sans-Serif" font-size="8.00">+</text>
<text text-anchor="start" x="364.5" y="-97.1" font-family="Helvetica,sans-Serif" font-size="8.00">managed_node *restrict m_parent</text>
<text text-anchor="start" x="355.5" y="-84.1" font-family="Helvetica,sans-Serif" font-size="8.00">+</text>
<text text-anchor="start" x="364.5" y="-84.1" font-family="Helvetica,sans-Serif" font-size="8.00">void decr() const noexcept</text>
<text text-anchor="start" x="355.5" y="-71.1" font-family="Helvetica,sans-Serif" font-size="8.00">+</text>
<text text-anchor="start" x="364.5" y="-71.1" font-family="Helvetica,sans-Serif" font-size="8.00">void expunge(pmr_t *_pmr) noexcept</text>
<text text-anchor="start" x="355.5" y="-58.1" font-family="Helvetica,sans-Serif" font-size="8.00">+</text>
<text text-anchor="start" x="364.5" y="-58.1" font-family="Helvetica,sans-Serif" font-size="8.00">void incr() const noexcept</text>
<text text-anchor="start" x="355.5" y="-45.1" font-family="Helvetica,sans-Serif" font-size="8.00">+</text>
<text text-anchor="start" x="364.5" y="-45.1" font-family="Helvetica,sans-Serif" font-size="8.00">managed_node() noexcept</text>
<text text-anchor="start" x="355.5" y="-32.1" font-family="Helvetica,sans-Serif" font-size="8.00">+</text>
<text text-anchor="start" x="364.5" y="-32.1" font-family="Helvetica,sans-Serif" font-size="8.00">managed_node(index_t _index, managed_node *restrict const _parent=nullptr) noexcept</text>
<text text-anchor="start" x="356" y="-19.1" font-family="Helvetica,sans-Serif" font-size="8.00">*</text>
<text text-anchor="start" x="364.5" y="-19.1" font-family="Helvetica,sans-Serif" font-size="8.00">managed_node() noexcept</text>
<text text-anchor="start" x="356" y="-6.1" font-family="Helvetica,sans-Serif" font-size="8.00">*</text>
<text text-anchor="start" x="364.5" y="-6.1" font-family="Helvetica,sans-Serif" font-size="8.00">managed_node(index_t _index, managed_node *restrict const _parent=nullptr) noexcept</text>
<polygon fill="#666666" stroke="#666666" points="351.5,-105.5 351.5,-105.5 684.5,-105.5 684.5,-105.5 351.5,-105.5"/>
<polygon fill="#666666" stroke="#666666" points="351.5,-92.5 351.5,-92.5 362.5,-92.5 362.5,-92.5 351.5,-92.5"/>
<polygon fill="#666666" stroke="#666666" points="362.5,-92.5 362.5,-92.5 684.5,-92.5 684.5,-92.5 362.5,-92.5"/>
<polygon fill="none" stroke="#666666" points="351,0 351,-121 684,-121 684,0 351,0"/>
</a>
</g>
</g>
<!-- Node1&#45;&gt;Node3 -->
<g id="edge2_Node000001_Node000003" class="edge">
<title>Node1&#45;&gt;Node3</title>
<g id="a_edge2_Node000001_Node000003"><a xlink:title=" ">
<path fill="none" stroke="#63b8ff" d="M517.5,-146.67C517.5,-138.83 517.5,-130.13 517.5,-121.37"/>
<polygon fill="none" stroke="#63b8ff" points="514,-146.76 517.5,-156.76 521,-146.76 514,-146.76"/>
</a>
</g>
</g>
<!-- Node4 -->
<g id="Node000004" class="node">
<title>Node4</title>
<g id="a_Node000004"><a xlink:href="../../d6/d3c/structchdr_1_1solvers_1_1unmanaged__node.html" target="_top" xlink:title="A hierarchical node in a pathfinding context, requires manual memory management.">
<polygon fill="white" stroke="transparent" points="1074.5,-101.5 702.5,-101.5 702.5,-19.5 1074.5,-19.5 1074.5,-101.5"/>
<text text-anchor="start" x="836" y="-91.1" font-family="Helvetica,sans-Serif" font-size="8.00">unmanaged_node&lt; index_t &gt;</text>
<text text-anchor="start" x="706.5" y="-78.1" font-family="Helvetica,sans-Serif" font-size="8.00">+</text>
<text text-anchor="start" x="715.5" y="-78.1" font-family="Helvetica,sans-Serif" font-size="8.00">const unmanaged_node *restrict m_parent</text>
<text text-anchor="start" x="706.5" y="-65.1" font-family="Helvetica,sans-Serif" font-size="8.00">+</text>
<text text-anchor="start" x="715.5" y="-65.1" font-family="Helvetica,sans-Serif" font-size="8.00">unmanaged_node() noexcept</text>
<text text-anchor="start" x="706.5" y="-52.1" font-family="Helvetica,sans-Serif" font-size="8.00">+</text>
<text text-anchor="start" x="715.5" y="-52.1" font-family="Helvetica,sans-Serif" font-size="8.00">unmanaged_node(index_t _index, const unmanaged_node *restrict const _parent=nullptr) noexcept</text>
<text text-anchor="start" x="707" y="-39.1" font-family="Helvetica,sans-Serif" font-size="8.00">*</text>
<text text-anchor="start" x="715.5" y="-39.1" font-family="Helvetica,sans-Serif" font-size="8.00">unmanaged_node() noexcept</text>
<text text-anchor="start" x="707" y="-26.1" font-family="Helvetica,sans-Serif" font-size="8.00">*</text>
<text text-anchor="start" x="715.5" y="-26.1" font-family="Helvetica,sans-Serif" font-size="8.00">unmanaged_node(index_t _index, const unmanaged_node *restrict const _parent=nullptr) noexcept</text>
<polygon fill="#666666" stroke="#666666" points="702.5,-86.5 702.5,-86.5 1074.5,-86.5 1074.5,-86.5 702.5,-86.5"/>
<polygon fill="#666666" stroke="#666666" points="702.5,-73.5 702.5,-73.5 713.5,-73.5 713.5,-73.5 702.5,-73.5"/>
<polygon fill="#666666" stroke="#666666" points="713.5,-73.5 713.5,-73.5 1074.5,-73.5 1074.5,-73.5 713.5,-73.5"/>
<polygon fill="none" stroke="#666666" points="702.5,-19.5 702.5,-101.5 1074.5,-101.5 1074.5,-19.5 702.5,-19.5"/>
</a>
</g>
</g>
<!-- Node1&#45;&gt;Node4 -->
<g id="edge3_Node000001_Node000004" class="edge">
<title>Node1&#45;&gt;Node4</title>
<g id="a_edge3_Node000001_Node000004"><a xlink:title=" ">
<path fill="none" stroke="#63b8ff" d="M568.04,-161.7C617.29,-146.3 694.21,-122.25 760.35,-101.57"/>
<polygon fill="none" stroke="#63b8ff" points="566.76,-158.43 558.26,-164.75 568.85,-165.11 566.76,-158.43"/>
</a>
</g>
</g>
</g>
</svg>
