<?xml version="1.0" encoding="UTF-8" standalone="no"?>
<!DOCTYPE svg PUBLIC "-//W3C//DTD SVG 1.1//EN"
 "http://www.w3.org/Graphics/SVG/1.1/DTD/svg11.dtd">
<!-- Generated by graphviz version 2.43.0 (0)
 -->
<!-- Title: gbfs.hpp Pages: 1 -->
<svg width="1263pt" height="290pt"
 viewBox="0.00 0.00 1263.22 290.00" xmlns="http://www.w3.org/2000/svg" xmlns:xlink="http://www.w3.org/1999/xlink">
<g id="graph0" class="graph" transform="scale(1 1) rotate(0) translate(4 286)">
<title>gbfs.hpp</title>
<!-- Node1 -->
<g id="Node000001" class="node">
<title>Node1</title>
<g id="a_Node000001"><a xlink:title=" ">
<polygon fill="#999999" stroke="#666666" points="391.5,-282 344.5,-282 344.5,-265 391.5,-265 391.5,-282"/>
<text text-anchor="middle" x="368" y="-271.6" font-family="Helvetica,sans-Serif" font-size="8.00">gbfs.hpp</text>
</a>
</g>
</g>
<!-- Node2 -->
<g id="Node000002" class="node">
<title>Node2</title>
<g id="a_Node000002"><a xlink:title=" ">
<polygon fill="#e0e0e0" stroke="#999999" points="491,-17 449,-17 449,0 491,0 491,-17"/>
<text text-anchor="middle" x="470" y="-6.6" font-family="Helvetica,sans-Serif" font-size="8.00">cstddef</text>
</a>
</g>
</g>
<!-- Node1&#45;&gt;Node2 -->
<g id="edge1_Node000001_Node000002" class="edge">
<title>Node1&#45;&gt;Node2</title>
<g id="a_edge1_Node000001_Node000002"><a xlink:title=" ">
<path fill="none" stroke="#63b8ff" d="M344.42,-270.97C263.2,-265.06 0,-240.37 0,-168.5 0,-168.5 0,-168.5 0,-113.5 0,-80.25 15.18,-69.57 44,-53 111.28,-14.31 352.18,-9.79 438.75,-9.45"/>
<polygon fill="#63b8ff" stroke="#63b8ff" points="438.76,-12.95 448.75,-9.42 438.74,-5.95 438.76,-12.95"/>
</a>
</g>
</g>
<!-- Node3 -->
<g id="Node000003" class="node">
<title>Node3</title>
<g id="a_Node000003"><a xlink:title=" ">
<polygon fill="#e0e0e0" stroke="#999999" points="328,-123 290,-123 290,-106 328,-106 328,-123"/>
<text text-anchor="middle" x="309" y="-112.6" font-family="Helvetica,sans-Serif" font-size="8.00">vector</text>
</a>
</g>
</g>
<!-- Node1&#45;&gt;Node3 -->
<g id="edge2_Node000001_Node000003" class="edge">
<title>Node1&#45;&gt;Node3</title>
<g id="a_edge2_Node000001_Node000003"><a xlink:title=" ">
<path fill="none" stroke="#63b8ff" d="M365.15,-264.93C356.18,-241.05 328.32,-166.91 315.53,-132.89"/>
<polygon fill="#63b8ff" stroke="#63b8ff" points="318.75,-131.5 311.96,-123.37 312.2,-133.96 318.75,-131.5"/>
</a>
</g>
</g>
<!-- Node4 -->
<g id="Node000004" class="node">
<title>Node4</title>
<g id="a_Node000004"><a xlink:href="../../d8/d62/existence__set_8hpp.html" target="_top" xlink:title=" ">
<polygon fill="white" stroke="#666666" points="492.5,-176 345.5,-176 345.5,-159 492.5,-159 492.5,-176"/>
<text text-anchor="middle" x="419" y="-165.6" font-family="Helvetica,sans-Serif" font-size="8.00">../types/containers/existence_set.hpp</text>
</a>
</g>
</g>
<!-- Node1&#45;&gt;Node4 -->
<g id="edge3_Node000001_Node000004" class="edge">
<title>Node1&#45;&gt;Node4</title>
<g id="a_edge3_Node000001_Node000004"><a xlink:title=" ">
<path fill="none" stroke="#63b8ff" d="M371.83,-264.68C380.07,-247.89 399.61,-208.04 410.79,-185.25"/>
<polygon fill="#63b8ff" stroke="#63b8ff" points="414,-186.64 415.26,-176.12 407.72,-183.56 414,-186.64"/>
</a>
</g>
</g>
<!-- Node9 -->
<g id="Node000009" class="node">
<title>Node9</title>
<g id="a_Node000009"><a xlink:href="../../df/d93/utils_8hpp.html" target="_top" xlink:title=" ">
<polygon fill="white" stroke="#666666" points="233.5,-123 158.5,-123 158.5,-106 233.5,-106 233.5,-123"/>
<text text-anchor="middle" x="196" y="-112.6" font-family="Helvetica,sans-Serif" font-size="8.00">../../utils/utils.hpp</text>
</a>
</g>
</g>
<!-- Node1&#45;&gt;Node9 -->
<g id="edge26_Node000001_Node000009" class="edge">
<title>Node1&#45;&gt;Node9</title>
<g id="a_edge26_Node000001_Node000009"><a xlink:title=" ">
<path fill="none" stroke="#63b8ff" d="M344.23,-265.61C308.1,-253.77 240.16,-225.9 208,-176 199.83,-163.32 197.02,-146.28 196.14,-133.51"/>
<polygon fill="#63b8ff" stroke="#63b8ff" points="199.63,-133.11 195.78,-123.24 192.63,-133.35 199.63,-133.11"/>
</a>
</g>
</g>
<!-- Node13 -->
<g id="Node000013" class="node">
<title>Node13</title>
<g id="a_Node000013"><a xlink:href="../../d7/d65/intrinsics_8hpp.html" target="_top" xlink:title=" ">
<polygon fill="#fff0f0" stroke="red" points="722.5,-70 637.5,-70 637.5,-53 722.5,-53 722.5,-70"/>
<text text-anchor="middle" x="680" y="-59.6" font-family="Helvetica,sans-Serif" font-size="8.00">../utils/intrinsics.hpp</text>
</a>
</g>
</g>
<!-- Node1&#45;&gt;Node13 -->
<g id="edge50_Node000001_Node000013" class="edge">
<title>Node1&#45;&gt;Node13</title>
<g id="a_edge50_Node000001_Node000013"><a xlink:title=" ">
<path fill="none" stroke="#63b8ff" d="M391.82,-272.02C517.67,-269.4 1102.26,-255.86 1178,-229 1215.79,-215.6 1232.79,-211.72 1251,-176 1299.24,-81.36 883.28,-65.61 732.91,-63.01"/>
<polygon fill="#63b8ff" stroke="#63b8ff" points="732.61,-59.51 722.55,-62.85 732.5,-66.5 732.61,-59.51"/>
</a>
</g>
</g>
<!-- Node16 -->
<g id="Node000016" class="node">
<title>Node16</title>
<g id="a_Node000016"><a xlink:href="../../d7/ded/queue_8hpp.html" target="_top" xlink:title=" ">
<polygon fill="white" stroke="#666666" points="655,-176 533,-176 533,-159 655,-159 655,-176"/>
<text text-anchor="middle" x="594" y="-165.6" font-family="Helvetica,sans-Serif" font-size="8.00">../types/containers/queue.hpp</text>
</a>
</g>
</g>
<!-- Node1&#45;&gt;Node16 -->
<g id="edge21_Node000001_Node000016" class="edge">
<title>Node1&#45;&gt;Node16</title>
<g id="a_edge21_Node000001_Node000016"><a xlink:title=" ">
<path fill="none" stroke="#63b8ff" d="M384.62,-264.85C423.73,-246.85 521.82,-201.72 568.52,-180.23"/>
<polygon fill="#63b8ff" stroke="#63b8ff" points="570.04,-183.38 577.66,-176.02 567.11,-177.02 570.04,-183.38"/>
</a>
</g>
</g>
<!-- Node18 -->
<g id="Node000018" class="node">
<title>Node18</title>
<g id="a_Node000018"><a xlink:href="../../da/deb/managed__node_8hpp.html" target="_top" xlink:title=" ">
<polygon fill="white" stroke="#666666" points="1169,-229 1061,-229 1061,-212 1169,-212 1169,-229"/>
<text text-anchor="middle" x="1115" y="-218.6" font-family="Helvetica,sans-Serif" font-size="8.00">base/managed_node.hpp</text>
</a>
</g>
</g>
<!-- Node1&#45;&gt;Node18 -->
<g id="edge27_Node000001_Node000018" class="edge">
<title>Node1&#45;&gt;Node18</title>
<g id="a_edge27_Node000001_Node000018"><a xlink:title=" ">
<path fill="none" stroke="#63b8ff" d="M391.59,-270.89C492.9,-263.97 893.11,-236.65 1050.72,-225.89"/>
<polygon fill="#63b8ff" stroke="#63b8ff" points="1051.01,-229.38 1060.75,-225.2 1050.53,-222.39 1051.01,-229.38"/>
</a>
</g>
</g>
<!-- Node26 -->
<g id="Node000026" class="node">
<title>Node26</title>
<g id="a_Node000026"><a xlink:href="../../d2/d1c/solver_8hpp.html" target="_top" xlink:title=" ">
<polygon fill="white" stroke="#666666" points="289,-176 217,-176 217,-159 289,-159 289,-176"/>
<text text-anchor="middle" x="253" y="-165.6" font-family="Helvetica,sans-Serif" font-size="8.00">base/solver.hpp</text>
</a>
</g>
</g>
<!-- Node1&#45;&gt;Node26 -->
<g id="edge43_Node000001_Node000026" class="edge">
<title>Node1&#45;&gt;Node26</title>
<g id="a_edge43_Node000001_Node000026"><a xlink:title=" ">
<path fill="none" stroke="#63b8ff" d="M354.23,-264.88C340.48,-256.92 319.12,-243.57 303,-229 288.03,-215.47 273.65,-197.35 264.19,-184.48"/>
<polygon fill="#63b8ff" stroke="#63b8ff" points="266.9,-182.26 258.23,-176.18 261.21,-186.34 266.9,-182.26"/>
</a>
</g>
</g>
<!-- Node4&#45;&gt;Node2 -->
<g id="edge4_Node000004_Node000002" class="edge">
<title>Node4&#45;&gt;Node2</title>
<g id="a_edge4_Node000004_Node000002"><a xlink:title=" ">
<path fill="none" stroke="#63b8ff" d="M421.96,-158.84C425.27,-150.19 430.72,-135.65 435,-123 446.4,-89.24 458.36,-49.34 464.93,-26.97"/>
<polygon fill="#63b8ff" stroke="#63b8ff" points="468.32,-27.83 467.76,-17.25 461.6,-25.87 468.32,-27.83"/>
</a>
</g>
</g>
<!-- Node4&#45;&gt;Node3 -->
<g id="edge9_Node000004_Node000003" class="edge">
<title>Node4&#45;&gt;Node3</title>
<g id="a_edge9_Node000004_Node000003"><a xlink:title=" ">
<path fill="none" stroke="#63b8ff" d="M402.77,-158.97C384.82,-150.65 355.65,-137.13 334.61,-127.37"/>
<polygon fill="#63b8ff" stroke="#63b8ff" points="335.84,-124.09 325.3,-123.06 332.9,-130.44 335.84,-124.09"/>
</a>
</g>
</g>
<!-- Node5 -->
<g id="Node000005" class="node">
<title>Node5</title>
<g id="a_Node000005"><a xlink:title=" ">
<polygon fill="#e0e0e0" stroke="#999999" points="389,-70 339,-70 339,-53 389,-53 389,-70"/>
<text text-anchor="middle" x="364" y="-59.6" font-family="Helvetica,sans-Serif" font-size="8.00">functional</text>
</a>
</g>
</g>
<!-- Node4&#45;&gt;Node5 -->
<g id="edge5_Node000004_Node000005" class="edge">
<title>Node4&#45;&gt;Node5</title>
<g id="a_edge5_Node000004_Node000005"><a xlink:title=" ">
<path fill="none" stroke="#63b8ff" d="M414.87,-158.68C405.98,-141.89 384.91,-102.04 372.86,-79.25"/>
<polygon fill="#63b8ff" stroke="#63b8ff" points="375.8,-77.33 368.03,-70.12 369.61,-80.6 375.8,-77.33"/>
</a>
</g>
</g>
<!-- Node6 -->
<g id="Node000006" class="node">
<title>Node6</title>
<g id="a_Node000006"><a xlink:title=" ">
<polygon fill="#e0e0e0" stroke="#999999" points="441,-70 407,-70 407,-53 441,-53 441,-70"/>
<text text-anchor="middle" x="424" y="-59.6" font-family="Helvetica,sans-Serif" font-size="8.00">limits</text>
</a>
</g>
</g>
<!-- Node4&#45;&gt;Node6 -->
<g id="edge6_Node000004_Node000006" class="edge">
<title>Node4&#45;&gt;Node6</title>
<g id="a_edge6_Node000004_Node000006"><a xlink:title=" ">
<path fill="none" stroke="#63b8ff" d="M419.38,-158.68C420.17,-142.11 422.05,-103.11 423.15,-80.18"/>
<polygon fill="#63b8ff" stroke="#63b8ff" points="426.65,-80.28 423.63,-70.12 419.66,-79.95 426.65,-80.28"/>
</a>
</g>
</g>
<!-- Node7 -->
<g id="Node000007" class="node">
<title>Node7</title>
<g id="a_Node000007"><a xlink:title=" ">
<polygon fill="#e0e0e0" stroke="#999999" points="714,-123 632,-123 632,-106 714,-106 714,-123"/>
<text text-anchor="middle" x="673" y="-112.6" font-family="Helvetica,sans-Serif" font-size="8.00">memory_resource</text>
</a>
</g>
</g>
<!-- Node4&#45;&gt;Node7 -->
<g id="edge7_Node000004_Node000007" class="edge">
<title>Node4&#45;&gt;Node7</title>
<g id="a_edge7_Node000004_Node000007"><a xlink:title=" ">
<path fill="none" stroke="#63b8ff" d="M456.48,-158.97C501.31,-149.97 576.43,-134.89 625.35,-125.07"/>
<polygon fill="#63b8ff" stroke="#63b8ff" points="626.25,-128.46 635.37,-123.06 624.87,-121.59 626.25,-128.46"/>
</a>
</g>
</g>
<!-- Node8 -->
<g id="Node000008" class="node">
<title>Node8</title>
<g id="a_Node000008"><a xlink:title=" ">
<polygon fill="#e0e0e0" stroke="#999999" points="119.5,-70 66.5,-70 66.5,-53 119.5,-53 119.5,-70"/>
<text text-anchor="middle" x="93" y="-59.6" font-family="Helvetica,sans-Serif" font-size="8.00">type_traits</text>
</a>
</g>
</g>
<!-- Node4&#45;&gt;Node8 -->
<g id="edge8_Node000004_Node000008" class="edge">
<title>Node4&#45;&gt;Node8</title>
<g id="a_edge8_Node000004_Node000008"><a xlink:title=" ">
<path fill="none" stroke="#63b8ff" d="M345.45,-160.08C277.46,-153.17 182.11,-140.74 149,-123 129.73,-112.68 113.52,-93.13 103.58,-79.05"/>
<polygon fill="#63b8ff" stroke="#63b8ff" points="106.22,-76.7 97.73,-70.35 100.4,-80.6 106.22,-76.7"/>
</a>
</g>
</g>
<!-- Node4&#45;&gt;Node9 -->
<g id="edge10_Node000004_Node000009" class="edge">
<title>Node4&#45;&gt;Node9</title>
<g id="a_edge10_Node000004_Node000009"><a xlink:title=" ">
<path fill="none" stroke="#63b8ff" d="M386.1,-158.97C347.06,-150.05 281.88,-135.14 238.92,-125.32"/>
<polygon fill="#63b8ff" stroke="#63b8ff" points="239.57,-121.87 229.04,-123.06 238.01,-128.7 239.57,-121.87"/>
</a>
</g>
</g>
<!-- Node4&#45;&gt;Node13 -->
<g id="edge20_Node000004_Node000013" class="edge">
<title>Node4&#45;&gt;Node13</title>
<g id="a_edge20_Node000004_Node000013"><a xlink:title=" ">
<path fill="none" stroke="#63b8ff" d="M437.04,-158.9C464.71,-147.28 519.31,-124.51 566,-106 594.48,-94.71 627.15,-82.3 650.2,-73.63"/>
<polygon fill="#63b8ff" stroke="#63b8ff" points="651.62,-76.83 659.76,-70.04 649.17,-70.28 651.62,-76.83"/>
</a>
</g>
</g>
<!-- Node9&#45;&gt;Node2 -->
<g id="edge13_Node000009_Node000002" class="edge">
<title>Node9&#45;&gt;Node2</title>
<g id="a_edge13_Node000009_Node000002"><a xlink:title=" ">
<path fill="none" stroke="#63b8ff" d="M212.8,-105.88C248.11,-89.88 327.04,-54.12 330,-53 366.88,-39.01 410.41,-26.01 439.03,-17.94"/>
<polygon fill="#63b8ff" stroke="#63b8ff" points="440.16,-21.26 448.85,-15.19 438.28,-14.51 440.16,-21.26"/>
</a>
</g>
</g>
<!-- Node9&#45;&gt;Node5 -->
<g id="edge14_Node000009_Node000005" class="edge">
<title>Node9&#45;&gt;Node5</title>
<g id="a_edge14_Node000009_Node000005"><a xlink:title=" ">
<path fill="none" stroke="#63b8ff" d="M220.79,-105.97C249.45,-97.27 296.82,-82.89 329.18,-73.07"/>
<polygon fill="#63b8ff" stroke="#63b8ff" points="330.56,-76.31 339.11,-70.06 328.52,-69.61 330.56,-76.31"/>
</a>
</g>
</g>
<!-- Node9&#45;&gt;Node6 -->
<g id="edge15_Node000009_Node000006" class="edge">
<title>Node9&#45;&gt;Node6</title>
<g id="a_edge15_Node000009_Node000006"><a xlink:title=" ">
<path fill="none" stroke="#63b8ff" d="M233.78,-106.17C272.43,-98.5 334.42,-85.69 396.95,-70.11"/>
<polygon fill="#63b8ff" stroke="#63b8ff" points="398.14,-73.42 406.98,-67.59 396.43,-66.63 398.14,-73.42"/>
</a>
</g>
</g>
<!-- Node9&#45;&gt;Node8 -->
<g id="edge17_Node000009_Node000008" class="edge">
<title>Node9&#45;&gt;Node8</title>
<g id="a_edge17_Node000009_Node000008"><a xlink:title=" ">
<path fill="none" stroke="#63b8ff" d="M180.8,-105.97C164.07,-97.69 136.93,-84.25 117.24,-74.5"/>
<polygon fill="#63b8ff" stroke="#63b8ff" points="118.78,-71.36 108.26,-70.06 115.67,-77.63 118.78,-71.36"/>
</a>
</g>
</g>
<!-- Node10 -->
<g id="Node000010" class="node">
<title>Node10</title>
<g id="a_Node000010"><a xlink:title=" ">
<polygon fill="#e0e0e0" stroke="#999999" points="172.5,-70 137.5,-70 137.5,-53 172.5,-53 172.5,-70"/>
<text text-anchor="middle" x="155" y="-59.6" font-family="Helvetica,sans-Serif" font-size="8.00">array</text>
</a>
</g>
</g>
<!-- Node9&#45;&gt;Node10 -->
<g id="edge11_Node000009_Node000010" class="edge">
<title>Node9&#45;&gt;Node10</title>
<g id="a_edge11_Node000009_Node000010"><a xlink:title=" ">
<path fill="none" stroke="#63b8ff" d="M189.95,-105.97C184.08,-98.67 174.98,-87.35 167.54,-78.1"/>
<polygon fill="#63b8ff" stroke="#63b8ff" points="170.07,-75.66 161.07,-70.06 164.61,-80.04 170.07,-75.66"/>
</a>
</g>
</g>
<!-- Node11 -->
<g id="Node000011" class="node">
<title>Node11</title>
<g id="a_Node000011"><a xlink:title=" ">
<polygon fill="#e0e0e0" stroke="#999999" points="229,-70 191,-70 191,-53 229,-53 229,-70"/>
<text text-anchor="middle" x="210" y="-59.6" font-family="Helvetica,sans-Serif" font-size="8.00">cmath</text>
</a>
</g>
</g>
<!-- Node9&#45;&gt;Node11 -->
<g id="edge12_Node000009_Node000011" class="edge">
<title>Node9&#45;&gt;Node11</title>
<g id="a_edge12_Node000009_Node000011"><a xlink:title=" ">
<path fill="none" stroke="#63b8ff" d="M198.07,-105.97C199.95,-99.12 202.8,-88.74 205.24,-79.84"/>
<polygon fill="#63b8ff" stroke="#63b8ff" points="208.65,-80.63 207.93,-70.06 201.9,-78.77 208.65,-80.63"/>
</a>
</g>
</g>
<!-- Node12 -->
<g id="Node000012" class="node">
<title>Node12</title>
<g id="a_Node000012"><a xlink:title=" ">
<polygon fill="#e0e0e0" stroke="#999999" points="283,-70 247,-70 247,-53 283,-53 283,-70"/>
<text text-anchor="middle" x="265" y="-59.6" font-family="Helvetica,sans-Serif" font-size="8.00">string</text>
</a>
</g>
</g>
<!-- Node9&#45;&gt;Node12 -->
<g id="edge16_Node000009_Node000012" class="edge">
<title>Node9&#45;&gt;Node12</title>
<g id="a_edge16_Node000009_Node000012"><a xlink:title=" ">
<path fill="none" stroke="#63b8ff" d="M206.18,-105.97C216.78,-98.14 233.61,-85.7 246.56,-76.13"/>
<polygon fill="#63b8ff" stroke="#63b8ff" points="248.82,-78.81 254.78,-70.06 244.65,-73.19 248.82,-78.81"/>
</a>
</g>
</g>
<!-- Node9&#45;&gt;Node13 -->
<g id="edge18_Node000009_Node000013" class="edge">
<title>Node9&#45;&gt;Node13</title>
<g id="a_edge18_Node000009_Node000013"><a xlink:title=" ">
<path fill="none" stroke="#63b8ff" d="M233.58,-109.54C319.17,-100.52 528.81,-78.43 627.29,-68.05"/>
<polygon fill="#63b8ff" stroke="#63b8ff" points="627.73,-71.53 637.31,-67 627,-64.57 627.73,-71.53"/>
</a>
</g>
</g>
<!-- Node13&#45;&gt;Node2 -->
<g id="edge19_Node000013_Node000002" class="edge">
<title>Node13&#45;&gt;Node2</title>
<g id="a_edge19_Node000013_Node000002"><a xlink:title=" ">
<path fill="none" stroke="#63b8ff" d="M649.01,-52.97C609.32,-43.33 540.91,-26.72 501.14,-17.06"/>
<polygon fill="#63b8ff" stroke="#63b8ff" points="501.75,-13.61 491.21,-14.65 500.1,-20.41 501.75,-13.61"/>
</a>
</g>
</g>
<!-- Node16&#45;&gt;Node2 -->
<g id="edge22_Node000016_Node000002" class="edge">
<title>Node16&#45;&gt;Node2</title>
<g id="a_edge22_Node000016_Node000002"><a xlink:title=" ">
<path fill="none" stroke="#63b8ff" d="M588.02,-158.93C568.92,-134.74 509.08,-58.98 482.7,-25.58"/>
<polygon fill="#63b8ff" stroke="#63b8ff" points="485.16,-23.04 476.21,-17.37 479.66,-27.38 485.16,-23.04"/>
</a>
</g>
</g>
<!-- Node16&#45;&gt;Node7 -->
<g id="edge24_Node000016_Node000007" class="edge">
<title>Node16&#45;&gt;Node7</title>
<g id="a_edge24_Node000016_Node000007"><a xlink:title=" ">
<path fill="none" stroke="#63b8ff" d="M605.66,-158.97C618.03,-150.99 637.81,-138.22 652.74,-128.58"/>
<polygon fill="#63b8ff" stroke="#63b8ff" points="654.79,-131.42 661.3,-123.06 651,-125.54 654.79,-131.42"/>
</a>
</g>
</g>
<!-- Node16&#45;&gt;Node13 -->
<g id="edge25_Node000016_Node000013" class="edge">
<title>Node16&#45;&gt;Node13</title>
<g id="a_edge25_Node000016_Node000013"><a xlink:title=" ">
<path fill="none" stroke="#63b8ff" d="M655.2,-161.25C680.46,-155.71 707.42,-144.69 723,-123 734.48,-107.02 716.96,-88.57 700.95,-76.29"/>
<polygon fill="#63b8ff" stroke="#63b8ff" points="702.58,-73.15 692.41,-70.16 698.49,-78.83 702.58,-73.15"/>
</a>
</g>
</g>
<!-- Node17 -->
<g id="Node000017" class="node">
<title>Node17</title>
<g id="a_Node000017"><a xlink:title=" ">
<polygon fill="#e0e0e0" stroke="#999999" points="613.5,-123 574.5,-123 574.5,-106 613.5,-106 613.5,-123"/>
<text text-anchor="middle" x="594" y="-112.6" font-family="Helvetica,sans-Serif" font-size="8.00">deque</text>
</a>
</g>
</g>
<!-- Node16&#45;&gt;Node17 -->
<g id="edge23_Node000016_Node000017" class="edge">
<title>Node16&#45;&gt;Node17</title>
<g id="a_edge23_Node000016_Node000017"><a xlink:title=" ">
<path fill="none" stroke="#63b8ff" d="M594,-158.97C594,-152.19 594,-141.97 594,-133.13"/>
<polygon fill="#63b8ff" stroke="#63b8ff" points="597.5,-133.06 594,-123.06 590.5,-133.06 597.5,-133.06"/>
</a>
</g>
</g>
<!-- Node18&#45;&gt;Node13 -->
<g id="edge42_Node000018_Node000013" class="edge">
<title>Node18&#45;&gt;Node13</title>
<g id="a_edge42_Node000018_Node000013"><a xlink:title=" ">
<path fill="none" stroke="#63b8ff" d="M1121.22,-211.75C1136.62,-191.62 1173.27,-137.04 1145,-106 1117.67,-76 848.69,-66.32 732.74,-63.52"/>
<polygon fill="#63b8ff" stroke="#63b8ff" points="732.75,-60.02 722.67,-63.29 732.58,-67.02 732.75,-60.02"/>
</a>
</g>
</g>
<!-- Node19 -->
<g id="Node000019" class="node">
<title>Node19</title>
<g id="a_Node000019"><a xlink:title=" ">
<polygon fill="#e0e0e0" stroke="#999999" points="1136,-123 1094,-123 1094,-106 1136,-106 1136,-123"/>
<text text-anchor="middle" x="1115" y="-112.6" font-family="Helvetica,sans-Serif" font-size="8.00">cassert</text>
</a>
</g>
</g>
<!-- Node18&#45;&gt;Node19 -->
<g id="edge28_Node000018_Node000019" class="edge">
<title>Node18&#45;&gt;Node19</title>
<g id="a_edge28_Node000018_Node000019"><a xlink:title=" ">
<path fill="none" stroke="#63b8ff" d="M1115,-211.68C1115,-195.11 1115,-156.11 1115,-133.18"/>
<polygon fill="#63b8ff" stroke="#63b8ff" points="1118.5,-133.12 1115,-123.12 1111.5,-133.13 1118.5,-133.12"/>
</a>
</g>
</g>
<!-- Node20 -->
<g id="Node000020" class="node">
<title>Node20</title>
<g id="a_Node000020"><a xlink:href="../../dc/d3c/bnode_8hpp.html" target="_top" xlink:title=" ">
<polygon fill="white" stroke="#666666" points="1241.5,-176 1186.5,-176 1186.5,-159 1241.5,-159 1241.5,-176"/>
<text text-anchor="middle" x="1214" y="-165.6" font-family="Helvetica,sans-Serif" font-size="8.00">bnode.hpp</text>
</a>
</g>
</g>
<!-- Node18&#45;&gt;Node20 -->
<g id="edge29_Node000018_Node000020" class="edge">
<title>Node18&#45;&gt;Node20</title>
<g id="a_edge29_Node000018_Node000020"><a xlink:title=" ">
<path fill="none" stroke="#63b8ff" d="M1129.61,-211.97C1145.62,-203.73 1171.54,-190.37 1190.44,-180.64"/>
<polygon fill="#63b8ff" stroke="#63b8ff" points="1192.05,-183.75 1199.33,-176.06 1188.84,-177.52 1192.05,-183.75"/>
</a>
</g>
</g>
<!-- Node21 -->
<g id="Node000021" class="node">
<title>Node21</title>
<g id="a_Node000021"><a xlink:href="../../d9/df8/heterogeneous__pool_8hpp.html" target="_top" xlink:title=" ">
<polygon fill="white" stroke="#666666" points="985.5,-176 828.5,-176 828.5,-159 985.5,-159 985.5,-176"/>
<text text-anchor="middle" x="907" y="-165.6" font-family="Helvetica,sans-Serif" font-size="8.00">../../types/pmr/heterogeneous_pool.hpp</text>
</a>
</g>
</g>
<!-- Node18&#45;&gt;Node21 -->
<g id="edge30_Node000018_Node000021" class="edge">
<title>Node18&#45;&gt;Node21</title>
<g id="a_edge30_Node000018_Node000021"><a xlink:title=" ">
<path fill="none" stroke="#63b8ff" d="M1084.31,-211.97C1048.06,-203.09 987.62,-188.27 947.54,-178.44"/>
<polygon fill="#63b8ff" stroke="#63b8ff" points="948.36,-175.04 937.82,-176.06 946.7,-181.84 948.36,-175.04"/>
</a>
</g>
</g>
<!-- Node21&#45;&gt;Node2 -->
<g id="edge32_Node000021_Node000002" class="edge">
<title>Node21&#45;&gt;Node2</title>
<g id="a_edge32_Node000021_Node000002"><a xlink:title=" ">
<path fill="none" stroke="#63b8ff" d="M955.89,-158.96C997.91,-150.42 1048.32,-133.92 1025,-106 957.26,-24.91 608.47,-11.96 501.34,-9.89"/>
<polygon fill="#63b8ff" stroke="#63b8ff" points="501.24,-6.39 491.18,-9.72 501.11,-13.39 501.24,-6.39"/>
</a>
</g>
</g>
<!-- Node21&#45;&gt;Node3 -->
<g id="edge38_Node000021_Node000003" class="edge">
<title>Node21&#45;&gt;Node3</title>
<g id="a_edge38_Node000021_Node000003"><a xlink:title=" ">
<path fill="none" stroke="#63b8ff" d="M828.21,-159.78C693.94,-148.33 426.74,-125.54 338.23,-117.99"/>
<polygon fill="#63b8ff" stroke="#63b8ff" points="338.38,-114.49 328.12,-117.13 337.78,-121.47 338.38,-114.49"/>
</a>
</g>
</g>
<!-- Node21&#45;&gt;Node6 -->
<g id="edge34_Node000021_Node000006" class="edge">
<title>Node21&#45;&gt;Node6</title>
<g id="a_edge34_Node000021_Node000006"><a xlink:title=" ">
<path fill="none" stroke="#63b8ff" d="M887.71,-158.92C854.55,-146.18 784.37,-120.44 723,-106 624.32,-82.78 504.24,-69.83 451.3,-64.87"/>
<polygon fill="#63b8ff" stroke="#63b8ff" points="451.33,-61.36 441.05,-63.94 450.69,-68.33 451.33,-61.36"/>
</a>
</g>
</g>
<!-- Node21&#45;&gt;Node7 -->
<g id="edge39_Node000021_Node000007" class="edge">
<title>Node21&#45;&gt;Node7</title>
<g id="a_edge39_Node000021_Node000007"><a xlink:title=" ">
<path fill="none" stroke="#63b8ff" d="M872.47,-158.97C831.34,-150.01 762.54,-135.02 717.47,-125.19"/>
<polygon fill="#63b8ff" stroke="#63b8ff" points="718.19,-121.77 707.67,-123.06 716.69,-128.61 718.19,-121.77"/>
</a>
</g>
</g>
<!-- Node21&#45;&gt;Node9 -->
<g id="edge41_Node000021_Node000009" class="edge">
<title>Node21&#45;&gt;Node9</title>
<g id="a_edge41_Node000021_Node000009"><a xlink:title=" ">
<path fill="none" stroke="#63b8ff" d="M828.4,-161.51C709.75,-153.87 477.85,-138.52 281,-123 268.89,-122.04 255.81,-120.93 243.63,-119.86"/>
<polygon fill="#63b8ff" stroke="#63b8ff" points="243.92,-116.37 233.65,-118.97 243.3,-123.34 243.92,-116.37"/>
</a>
</g>
</g>
<!-- Node21&#45;&gt;Node13 -->
<g id="edge40_Node000021_Node000013" class="edge">
<title>Node21&#45;&gt;Node13</title>
<g id="a_edge40_Node000021_Node000013"><a xlink:title=" ">
<path fill="none" stroke="#63b8ff" d="M943.97,-158.94C981.65,-149.62 1031.6,-131.78 1009,-106 991.1,-85.58 821.12,-71.64 732.78,-65.72"/>
<polygon fill="#63b8ff" stroke="#63b8ff" points="732.89,-62.22 722.68,-65.05 732.43,-69.2 732.89,-62.22"/>
</a>
</g>
</g>
<!-- Node21&#45;&gt;Node19 -->
<g id="edge31_Node000021_Node000019" class="edge">
<title>Node21&#45;&gt;Node19</title>
<g id="a_edge31_Node000021_Node000019"><a xlink:title=" ">
<path fill="none" stroke="#63b8ff" d="M937.69,-158.97C977.01,-149.33 1044.76,-132.72 1084.15,-123.06"/>
<polygon fill="#63b8ff" stroke="#63b8ff" points="1085.11,-126.43 1093.99,-120.65 1083.45,-119.63 1085.11,-126.43"/>
</a>
</g>
</g>
<!-- Node22 -->
<g id="Node000022" class="node">
<title>Node22</title>
<g id="a_Node000022"><a xlink:title=" ">
<polygon fill="#e0e0e0" stroke="#999999" points="847.5,-123 808.5,-123 808.5,-106 847.5,-106 847.5,-123"/>
<text text-anchor="middle" x="828" y="-112.6" font-family="Helvetica,sans-Serif" font-size="8.00">cstdint</text>
</a>
</g>
</g>
<!-- Node21&#45;&gt;Node22 -->
<g id="edge33_Node000021_Node000022" class="edge">
<title>Node21&#45;&gt;Node22</title>
<g id="a_edge33_Node000021_Node000022"><a xlink:title=" ">
<path fill="none" stroke="#63b8ff" d="M895.34,-158.97C882.97,-150.99 863.19,-138.22 848.26,-128.58"/>
<polygon fill="#63b8ff" stroke="#63b8ff" points="850,-125.54 839.7,-123.06 846.21,-131.42 850,-125.54"/>
</a>
</g>
</g>
<!-- Node23 -->
<g id="Node000023" class="node">
<title>Node23</title>
<g id="a_Node000023"><a xlink:title=" ">
<polygon fill="#e0e0e0" stroke="#999999" points="898,-123 866,-123 866,-106 898,-106 898,-123"/>
<text text-anchor="middle" x="882" y="-112.6" font-family="Helvetica,sans-Serif" font-size="8.00">map</text>
</a>
</g>
</g>
<!-- Node21&#45;&gt;Node23 -->
<g id="edge35_Node000021_Node000023" class="edge">
<title>Node21&#45;&gt;Node23</title>
<g id="a_edge35_Node000021_Node000023"><a xlink:title=" ">
<path fill="none" stroke="#63b8ff" d="M903.31,-158.97C899.88,-151.97 894.64,-141.28 890.21,-132.25"/>
<polygon fill="#63b8ff" stroke="#63b8ff" points="893.25,-130.49 885.7,-123.06 886.96,-133.58 893.25,-130.49"/>
</a>
</g>
</g>
<!-- Node24 -->
<g id="Node000024" class="node">
<title>Node24</title>
<g id="a_Node000024"><a xlink:title=" ">
<polygon fill="#e0e0e0" stroke="#999999" points="948,-123 916,-123 916,-106 948,-106 948,-123"/>
<text text-anchor="middle" x="932" y="-112.6" font-family="Helvetica,sans-Serif" font-size="8.00">new</text>
</a>
</g>
</g>
<!-- Node21&#45;&gt;Node24 -->
<g id="edge36_Node000021_Node000024" class="edge">
<title>Node21&#45;&gt;Node24</title>
<g id="a_edge36_Node000021_Node000024"><a xlink:title=" ">
<path fill="none" stroke="#63b8ff" d="M910.69,-158.97C914.12,-151.97 919.36,-141.28 923.79,-132.25"/>
<polygon fill="#63b8ff" stroke="#63b8ff" points="927.04,-133.58 928.3,-123.06 920.75,-130.49 927.04,-133.58"/>
</a>
</g>
</g>
<!-- Node25 -->
<g id="Node000025" class="node">
<title>Node25</title>
<g id="a_Node000025"><a xlink:title=" ">
<polygon fill="#e0e0e0" stroke="#999999" points="1000,-123 966,-123 966,-106 1000,-106 1000,-123"/>
<text text-anchor="middle" x="983" y="-112.6" font-family="Helvetica,sans-Serif" font-size="8.00">utility</text>
</a>
</g>
</g>
<!-- Node21&#45;&gt;Node25 -->
<g id="edge37_Node000021_Node000025" class="edge">
<title>Node21&#45;&gt;Node25</title>
<g id="a_edge37_Node000021_Node000025"><a xlink:title=" ">
<path fill="none" stroke="#63b8ff" d="M918.21,-158.97C930,-151.07 948.78,-138.46 963.1,-128.86"/>
<polygon fill="#63b8ff" stroke="#63b8ff" points="965.39,-131.53 971.74,-123.06 961.49,-125.72 965.39,-131.53"/>
</a>
</g>
</g>
<!-- Node26&#45;&gt;Node2 -->
<g id="edge44_Node000026_Node000002" class="edge">
<title>Node26&#45;&gt;Node2</title>
<g id="a_edge44_Node000026_Node000002"><a xlink:title=" ">
<path fill="none" stroke="#63b8ff" d="M216.98,-160.1C147.36,-146.29 5.5,-110.21 57,-53 82.46,-24.72 346.86,-13.5 438.74,-10.43"/>
<polygon fill="#63b8ff" stroke="#63b8ff" points="438.94,-13.93 448.82,-10.11 438.71,-6.93 438.94,-13.93"/>
</a>
</g>
</g>
<!-- Node26&#45;&gt;Node3 -->
<g id="edge47_Node000026_Node000003" class="edge">
<title>Node26&#45;&gt;Node3</title>
<g id="a_edge47_Node000026_Node000003"><a xlink:title=" ">
<path fill="none" stroke="#63b8ff" d="M261.26,-158.97C269.62,-151.37 282.74,-139.41 293.12,-129.97"/>
<polygon fill="#63b8ff" stroke="#63b8ff" points="295.67,-132.38 300.7,-123.06 290.95,-127.2 295.67,-132.38"/>
</a>
</g>
</g>
<!-- Node26&#45;&gt;Node6 -->
<g id="edge45_Node000026_Node000006" class="edge">
<title>Node26&#45;&gt;Node6</title>
<g id="a_edge45_Node000026_Node000006"><a xlink:title=" ">
<path fill="none" stroke="#63b8ff" d="M254.4,-158.99C257.18,-146.22 264.59,-120.29 281,-106 283.26,-104.04 356.44,-82.34 397.21,-70.35"/>
<polygon fill="#63b8ff" stroke="#63b8ff" points="398.21,-73.7 406.82,-67.53 396.24,-66.99 398.21,-73.7"/>
</a>
</g>
</g>
<!-- Node26&#45;&gt;Node8 -->
<g id="edge46_Node000026_Node000008" class="edge">
<title>Node26&#45;&gt;Node8</title>
<g id="a_edge46_Node000026_Node000008"><a xlink:title=" ">
<path fill="none" stroke="#63b8ff" d="M216.88,-163.66C186.41,-159.44 143.47,-148.98 116,-123 104.14,-111.78 98.33,-93.81 95.53,-80.36"/>
<polygon fill="#63b8ff" stroke="#63b8ff" points="98.96,-79.64 93.81,-70.38 92.06,-80.82 98.96,-79.64"/>
</a>
</g>
</g>
<!-- Node26&#45;&gt;Node9 -->
<g id="edge48_Node000026_Node000009" class="edge">
<title>Node26&#45;&gt;Node9</title>
<g id="a_edge48_Node000026_Node000009"><a xlink:title=" ">
<path fill="none" stroke="#63b8ff" d="M244.59,-158.97C236.09,-151.37 222.73,-139.41 212.17,-129.97"/>
<polygon fill="#63b8ff" stroke="#63b8ff" points="214.23,-127.12 204.45,-123.06 209.56,-132.33 214.23,-127.12"/>
</a>
</g>
</g>
<!-- Node26&#45;&gt;Node13 -->
<g id="edge49_Node000026_Node000013" class="edge">
<title>Node26&#45;&gt;Node13</title>
<g id="a_edge49_Node000026_Node000013"><a xlink:title=" ">
<path fill="none" stroke="#63b8ff" d="M284.05,-158.94C359.85,-140.48 554.31,-93.11 639.26,-72.42"/>
<polygon fill="#63b8ff" stroke="#63b8ff" points="640.18,-75.8 649.06,-70.03 638.52,-69 640.18,-75.8"/>
</a>
</g>
</g>
</g>
</svg>
