<?xml version="1.0" encoding="UTF-8" standalone="no"?>
<!DOCTYPE svg PUBLIC "-//W3C//DTD SVG 1.1//EN"
 "http://www.w3.org/Graphics/SVG/1.1/DTD/svg11.dtd">
<!-- Generated by graphviz version 2.43.0 (0)
 -->
<!-- Title: gbfs.hpp Pages: 1 -->
<svg width="1289pt" height="290pt"
 viewBox="0.00 0.00 1289.17 290.00" xmlns="http://www.w3.org/2000/svg" xmlns:xlink="http://www.w3.org/1999/xlink">
<g id="graph0" class="graph" transform="scale(1 1) rotate(0) translate(4 286)">
<title>gbfs.hpp</title>
<!-- Node1 -->
<g id="Node000001" class="node">
<title>Node1</title>
<g id="a_Node000001"><a xlink:title=" ">
<polygon fill="#999999" stroke="#666666" points="478.5,-282 425.5,-282 425.5,-265 478.5,-265 478.5,-282"/>
<text text-anchor="middle" x="452" y="-271.6" font-family="Helvetica,sans-Serif" font-size="8.00">gbfs.hpp</text>
</a>
</g>
</g>
<!-- Node2 -->
<g id="Node000002" class="node">
<title>Node2</title>
<g id="a_Node000002"><a xlink:title=" ">
<polygon fill="#e0e0e0" stroke="#999999" points="565.5,-17 518.5,-17 518.5,0 565.5,0 565.5,-17"/>
<text text-anchor="middle" x="542" y="-6.6" font-family="Helvetica,sans-Serif" font-size="8.00">cstddef</text>
</a>
</g>
</g>
<!-- Node1&#45;&gt;Node2 -->
<g id="edge1_Node000001_Node000002" class="edge">
<title>Node1&#45;&gt;Node2</title>
<g id="a_edge1_Node000001_Node000002"><a xlink:title=" ">
<path fill="none" stroke="#63b8ff" d="M425.41,-272.11C328.52,-270 0,-256.37 0,-168.5 0,-168.5 0,-168.5 0,-113.5 0,-69.63 37.2,-69.13 78,-53 156.43,-21.98 414.88,-12.63 508.1,-10.23"/>
<polygon fill="#63b8ff" stroke="#63b8ff" points="508.46,-13.73 518.37,-9.98 508.29,-6.73 508.46,-13.73"/>
</a>
</g>
</g>
<!-- Node3 -->
<g id="Node000003" class="node">
<title>Node3</title>
<g id="a_Node000003"><a xlink:title=" ">
<polygon fill="#e0e0e0" stroke="#999999" points="438,-123 396,-123 396,-106 438,-106 438,-123"/>
<text text-anchor="middle" x="417" y="-112.6" font-family="Helvetica,sans-Serif" font-size="8.00">vector</text>
</a>
</g>
</g>
<!-- Node1&#45;&gt;Node3 -->
<g id="edge2_Node000001_Node000003" class="edge">
<title>Node1&#45;&gt;Node3</title>
<g id="a_edge2_Node000001_Node000003"><a xlink:title=" ">
<path fill="none" stroke="#63b8ff" d="M447.91,-264.78C439.69,-248.78 421.4,-210.58 415,-176 413.62,-168.57 414.83,-166.55 415,-159 415.19,-150.57 415.6,-141.23 415.99,-133.37"/>
<polygon fill="#63b8ff" stroke="#63b8ff" points="419.5,-133.37 416.54,-123.2 412.51,-132.99 419.5,-133.37"/>
</a>
</g>
</g>
<!-- Node4 -->
<g id="Node000004" class="node">
<title>Node4</title>
<g id="a_Node000004"><a xlink:href="../../d8/d62/existence__set_8hpp.html" target="_top" xlink:title=" ">
<polygon fill="white" stroke="#666666" points="594,-176 424,-176 424,-159 594,-159 594,-176"/>
<text text-anchor="middle" x="509" y="-165.6" font-family="Helvetica,sans-Serif" font-size="8.00">../types/containers/existence_set.hpp</text>
</a>
</g>
</g>
<!-- Node1&#45;&gt;Node4 -->
<g id="edge3_Node000001_Node000004" class="edge">
<title>Node1&#45;&gt;Node4</title>
<g id="a_edge3_Node000001_Node000004"><a xlink:title=" ">
<path fill="none" stroke="#63b8ff" d="M456.28,-264.68C465.53,-247.81 487.53,-207.68 499.99,-184.94"/>
<polygon fill="#63b8ff" stroke="#63b8ff" points="503.08,-186.58 504.82,-176.12 496.95,-183.21 503.08,-186.58"/>
</a>
</g>
</g>
<!-- Node9 -->
<g id="Node000009" class="node">
<title>Node9</title>
<g id="a_Node000009"><a xlink:href="../../df/d93/utils_8hpp.html" target="_top" xlink:title=" ">
<polygon fill="white" stroke="#666666" points="301.5,-123 214.5,-123 214.5,-106 301.5,-106 301.5,-123"/>
<text text-anchor="middle" x="258" y="-112.6" font-family="Helvetica,sans-Serif" font-size="8.00">../../utils/utils.hpp</text>
</a>
</g>
</g>
<!-- Node1&#45;&gt;Node9 -->
<g id="edge26_Node000001_Node000009" class="edge">
<title>Node1&#45;&gt;Node9</title>
<g id="a_edge26_Node000001_Node000009"><a xlink:title=" ">
<path fill="none" stroke="#63b8ff" d="M425.25,-265.25C386.45,-253.3 315.07,-225.73 277,-176 267.48,-163.56 262.67,-146.25 260.28,-133.34"/>
<polygon fill="#63b8ff" stroke="#63b8ff" points="263.72,-132.7 258.74,-123.35 256.8,-133.76 263.72,-132.7"/>
</a>
</g>
</g>
<!-- Node13 -->
<g id="Node000013" class="node">
<title>Node13</title>
<g id="a_Node000013"><a xlink:href="../../d7/d65/intrinsics_8hpp.html" target="_top" xlink:title=" ">
<polygon fill="#fff0f0" stroke="red" points="753.5,-70 654.5,-70 654.5,-53 753.5,-53 753.5,-70"/>
<text text-anchor="middle" x="704" y="-59.6" font-family="Helvetica,sans-Serif" font-size="8.00">../utils/intrinsics.hpp</text>
</a>
</g>
</g>
<!-- Node1&#45;&gt;Node13 -->
<g id="edge52_Node000001_Node000013" class="edge">
<title>Node1&#45;&gt;Node13</title>
<g id="a_edge52_Node000001_Node000013"><a xlink:title=" ">
<path fill="none" stroke="#63b8ff" d="M478.52,-271.25C611.49,-264.73 1201.61,-232.72 1258,-176 1280.2,-153.67 1290.4,-129.11 1269,-106 1235.21,-69.51 902.35,-63.53 763.92,-62.62"/>
<polygon fill="#63b8ff" stroke="#63b8ff" points="763.92,-59.12 753.9,-62.56 763.87,-66.12 763.92,-59.12"/>
</a>
</g>
</g>
<!-- Node16 -->
<g id="Node000016" class="node">
<title>Node16</title>
<g id="a_Node000016"><a xlink:href="../../d7/ded/queue_8hpp.html" target="_top" xlink:title=" ">
<polygon fill="white" stroke="#666666" points="784,-176 644,-176 644,-159 784,-159 784,-176"/>
<text text-anchor="middle" x="714" y="-165.6" font-family="Helvetica,sans-Serif" font-size="8.00">../types/containers/queue.hpp</text>
</a>
</g>
</g>
<!-- Node1&#45;&gt;Node16 -->
<g id="edge21_Node000001_Node000016" class="edge">
<title>Node1&#45;&gt;Node16</title>
<g id="a_edge21_Node000001_Node000016"><a xlink:title=" ">
<path fill="none" stroke="#63b8ff" d="M471.27,-264.85C516.89,-246.74 631.75,-201.15 685.47,-179.83"/>
<polygon fill="#63b8ff" stroke="#63b8ff" points="687.06,-182.96 695.06,-176.02 684.47,-176.45 687.06,-182.96"/>
</a>
</g>
</g>
<!-- Node18 -->
<g id="Node000018" class="node">
<title>Node18</title>
<g id="a_Node000018"><a xlink:href="../../da/deb/managed__node_8hpp.html" target="_top" xlink:title=" ">
<polygon fill="white" stroke="#666666" points="1001,-229 879,-229 879,-212 1001,-212 1001,-229"/>
<text text-anchor="middle" x="940" y="-218.6" font-family="Helvetica,sans-Serif" font-size="8.00">base/managed_node.hpp</text>
</a>
</g>
</g>
<!-- Node1&#45;&gt;Node18 -->
<g id="edge27_Node000001_Node000018" class="edge">
<title>Node1&#45;&gt;Node18</title>
<g id="a_edge27_Node000001_Node000018"><a xlink:title=" ">
<path fill="none" stroke="#63b8ff" d="M478.58,-269.72C551.88,-262.06 758.68,-240.45 868.85,-228.94"/>
<polygon fill="#63b8ff" stroke="#63b8ff" points="869.3,-232.41 878.88,-227.89 868.57,-225.45 869.3,-232.41"/>
</a>
</g>
</g>
<!-- Node26 -->
<g id="Node000026" class="node">
<title>Node26</title>
<g id="a_Node000026"><a xlink:href="../../d2/d1c/solver_8hpp.html" target="_top" xlink:title=" ">
<polygon fill="white" stroke="#666666" points="368,-176 286,-176 286,-159 368,-159 368,-176"/>
<text text-anchor="middle" x="327" y="-165.6" font-family="Helvetica,sans-Serif" font-size="8.00">base/solver.hpp</text>
</a>
</g>
</g>
<!-- Node1&#45;&gt;Node26 -->
<g id="edge44_Node000001_Node000026" class="edge">
<title>Node1&#45;&gt;Node26</title>
<g id="a_edge44_Node000001_Node000026"><a xlink:title=" ">
<path fill="none" stroke="#63b8ff" d="M437.27,-264.92C422.54,-256.98 399.59,-243.65 382,-229 365.69,-215.42 349.68,-197.07 339.17,-184.15"/>
<polygon fill="#63b8ff" stroke="#63b8ff" points="341.81,-181.84 332.84,-176.2 336.33,-186.2 341.81,-181.84"/>
</a>
</g>
</g>
<!-- Node4&#45;&gt;Node2 -->
<g id="edge4_Node000004_Node000002" class="edge">
<title>Node4&#45;&gt;Node2</title>
<g id="a_edge4_Node000004_Node000002"><a xlink:title=" ">
<path fill="none" stroke="#63b8ff" d="M510.59,-158.93C515.59,-135.15 531.06,-61.56 538.25,-27.33"/>
<polygon fill="#63b8ff" stroke="#63b8ff" points="541.71,-27.87 540.35,-17.37 534.86,-26.43 541.71,-27.87"/>
</a>
</g>
</g>
<!-- Node4&#45;&gt;Node3 -->
<g id="edge9_Node000004_Node000003" class="edge">
<title>Node4&#45;&gt;Node3</title>
<g id="a_edge9_Node000004_Node000003"><a xlink:title=" ">
<path fill="none" stroke="#63b8ff" d="M495.43,-158.97C480.75,-150.84 457.11,-137.74 439.62,-128.04"/>
<polygon fill="#63b8ff" stroke="#63b8ff" points="441.07,-124.84 430.63,-123.06 437.68,-130.97 441.07,-124.84"/>
</a>
</g>
</g>
<!-- Node5 -->
<g id="Node000005" class="node">
<title>Node5</title>
<g id="a_Node000005"><a xlink:title=" ">
<polygon fill="#e0e0e0" stroke="#999999" points="455,-70 397,-70 397,-53 455,-53 455,-70"/>
<text text-anchor="middle" x="426" y="-59.6" font-family="Helvetica,sans-Serif" font-size="8.00">functional</text>
</a>
</g>
</g>
<!-- Node4&#45;&gt;Node5 -->
<g id="edge5_Node000004_Node000005" class="edge">
<title>Node4&#45;&gt;Node5</title>
<g id="a_edge5_Node000004_Node000005"><a xlink:title=" ">
<path fill="none" stroke="#63b8ff" d="M502.76,-158.68C489.12,-141.58 456.4,-100.59 438.4,-78.03"/>
<polygon fill="#63b8ff" stroke="#63b8ff" points="441.06,-75.76 432.09,-70.12 435.59,-80.12 441.06,-75.76"/>
</a>
</g>
</g>
<!-- Node6 -->
<g id="Node000006" class="node">
<title>Node6</title>
<g id="a_Node000006"><a xlink:title=" ">
<polygon fill="#e0e0e0" stroke="#999999" points="513,-70 475,-70 475,-53 513,-53 513,-70"/>
<text text-anchor="middle" x="494" y="-59.6" font-family="Helvetica,sans-Serif" font-size="8.00">limits</text>
</a>
</g>
</g>
<!-- Node4&#45;&gt;Node6 -->
<g id="edge6_Node000004_Node000006" class="edge">
<title>Node4&#45;&gt;Node6</title>
<g id="a_edge6_Node000004_Node000006"><a xlink:title=" ">
<path fill="none" stroke="#63b8ff" d="M507.87,-158.68C505.48,-142.11 499.86,-103.11 496.55,-80.18"/>
<polygon fill="#63b8ff" stroke="#63b8ff" points="499.99,-79.52 495.1,-70.12 493.06,-80.52 499.99,-79.52"/>
</a>
</g>
</g>
<!-- Node7 -->
<g id="Node000007" class="node">
<title>Node7</title>
<g id="a_Node000007"><a xlink:title=" ">
<polygon fill="#e0e0e0" stroke="#999999" points="758.5,-123 669.5,-123 669.5,-106 758.5,-106 758.5,-123"/>
<text text-anchor="middle" x="714" y="-112.6" font-family="Helvetica,sans-Serif" font-size="8.00">memory_resource</text>
</a>
</g>
</g>
<!-- Node4&#45;&gt;Node7 -->
<g id="edge7_Node000004_Node000007" class="edge">
<title>Node4&#45;&gt;Node7</title>
<g id="a_edge7_Node000004_Node000007"><a xlink:title=" ">
<path fill="none" stroke="#63b8ff" d="M539.25,-158.97C574.9,-150.1 634.29,-135.33 673.79,-125.5"/>
<polygon fill="#63b8ff" stroke="#63b8ff" points="674.77,-128.87 683.63,-123.06 673.08,-122.07 674.77,-128.87"/>
</a>
</g>
</g>
<!-- Node8 -->
<g id="Node000008" class="node">
<title>Node8</title>
<g id="a_Node000008"><a xlink:title=" ">
<polygon fill="#e0e0e0" stroke="#999999" points="162.5,-70 103.5,-70 103.5,-53 162.5,-53 162.5,-70"/>
<text text-anchor="middle" x="133" y="-59.6" font-family="Helvetica,sans-Serif" font-size="8.00">type_traits</text>
</a>
</g>
</g>
<!-- Node4&#45;&gt;Node8 -->
<g id="edge8_Node000004_Node000008" class="edge">
<title>Node4&#45;&gt;Node8</title>
<g id="a_edge8_Node000004_Node000008"><a xlink:title=" ">
<path fill="none" stroke="#63b8ff" d="M423.82,-159.58C347.88,-152.45 243.02,-140 205,-123 181.58,-112.53 159.78,-92.11 146.44,-77.91"/>
<polygon fill="#63b8ff" stroke="#63b8ff" points="148.92,-75.44 139.61,-70.39 143.74,-80.14 148.92,-75.44"/>
</a>
</g>
</g>
<!-- Node4&#45;&gt;Node9 -->
<g id="edge10_Node000004_Node000009" class="edge">
<title>Node4&#45;&gt;Node9</title>
<g id="a_edge10_Node000004_Node000009"><a xlink:title=" ">
<path fill="none" stroke="#63b8ff" d="M471.96,-158.97C427.66,-149.97 353.43,-134.89 305.09,-125.07"/>
<polygon fill="#63b8ff" stroke="#63b8ff" points="305.68,-121.62 295.19,-123.06 304.29,-128.48 305.68,-121.62"/>
</a>
</g>
</g>
<!-- Node4&#45;&gt;Node13 -->
<g id="edge20_Node000004_Node000013" class="edge">
<title>Node4&#45;&gt;Node13</title>
<g id="a_edge20_Node000004_Node000013"><a xlink:title=" ">
<path fill="none" stroke="#63b8ff" d="M518.98,-158.94C535.31,-146.78 569.06,-122.56 600,-106 623.83,-93.24 652.22,-81.59 673.32,-73.56"/>
<polygon fill="#63b8ff" stroke="#63b8ff" points="674.6,-76.82 682.74,-70.03 672.15,-70.26 674.6,-76.82"/>
</a>
</g>
</g>
<!-- Node9&#45;&gt;Node2 -->
<g id="edge13_Node000009_Node000002" class="edge">
<title>Node9&#45;&gt;Node2</title>
<g id="a_edge13_Node000009_Node000002"><a xlink:title=" ">
<path fill="none" stroke="#63b8ff" d="M272.49,-105.82C296.16,-93.48 344.82,-69.03 388,-53 428.6,-37.93 476.85,-25.08 508.39,-17.34"/>
<polygon fill="#63b8ff" stroke="#63b8ff" points="509.51,-20.67 518.41,-14.92 507.86,-13.87 509.51,-20.67"/>
</a>
</g>
</g>
<!-- Node9&#45;&gt;Node5 -->
<g id="edge14_Node000009_Node000005" class="edge">
<title>Node9&#45;&gt;Node5</title>
<g id="a_edge14_Node000009_Node000005"><a xlink:title=" ">
<path fill="none" stroke="#63b8ff" d="M282.79,-105.97C311.45,-97.27 358.82,-82.89 391.18,-73.07"/>
<polygon fill="#63b8ff" stroke="#63b8ff" points="392.56,-76.31 401.11,-70.06 390.52,-69.61 392.56,-76.31"/>
</a>
</g>
</g>
<!-- Node9&#45;&gt;Node6 -->
<g id="edge15_Node000009_Node000006" class="edge">
<title>Node9&#45;&gt;Node6</title>
<g id="a_edge15_Node000009_Node000006"><a xlink:title=" ">
<path fill="none" stroke="#63b8ff" d="M295.68,-105.98C337.06,-97.62 405.41,-83.51 464,-70 464.33,-69.92 464.67,-69.85 465.01,-69.77"/>
<polygon fill="#63b8ff" stroke="#63b8ff" points="466.08,-73.11 474.98,-67.37 464.44,-66.3 466.08,-73.11"/>
</a>
</g>
</g>
<!-- Node9&#45;&gt;Node8 -->
<g id="edge17_Node000009_Node000008" class="edge">
<title>Node9&#45;&gt;Node8</title>
<g id="a_edge17_Node000009_Node000008"><a xlink:title=" ">
<path fill="none" stroke="#63b8ff" d="M239.56,-105.97C218.78,-97.5 184.8,-83.64 160.81,-73.85"/>
<polygon fill="#63b8ff" stroke="#63b8ff" points="162.1,-70.59 151.52,-70.06 159.46,-77.07 162.1,-70.59"/>
</a>
</g>
</g>
<!-- Node10 -->
<g id="Node000010" class="node">
<title>Node10</title>
<g id="a_Node000010"><a xlink:title=" ">
<polygon fill="#e0e0e0" stroke="#999999" points="219,-70 181,-70 181,-53 219,-53 219,-70"/>
<text text-anchor="middle" x="200" y="-59.6" font-family="Helvetica,sans-Serif" font-size="8.00">array</text>
</a>
</g>
</g>
<!-- Node9&#45;&gt;Node10 -->
<g id="edge11_Node000009_Node000010" class="edge">
<title>Node9&#45;&gt;Node10</title>
<g id="a_edge11_Node000009_Node000010"><a xlink:title=" ">
<path fill="none" stroke="#63b8ff" d="M249.44,-105.97C240.7,-98.29 226.93,-86.18 216.13,-76.69"/>
<polygon fill="#63b8ff" stroke="#63b8ff" points="218.41,-74.03 208.59,-70.06 213.79,-79.29 218.41,-74.03"/>
</a>
</g>
</g>
<!-- Node11 -->
<g id="Node000011" class="node">
<title>Node11</title>
<g id="a_Node000011"><a xlink:title=" ">
<polygon fill="#e0e0e0" stroke="#999999" points="279,-70 237,-70 237,-53 279,-53 279,-70"/>
<text text-anchor="middle" x="258" y="-59.6" font-family="Helvetica,sans-Serif" font-size="8.00">cmath</text>
</a>
</g>
</g>
<!-- Node9&#45;&gt;Node11 -->
<g id="edge12_Node000009_Node000011" class="edge">
<title>Node9&#45;&gt;Node11</title>
<g id="a_edge12_Node000009_Node000011"><a xlink:title=" ">
<path fill="none" stroke="#63b8ff" d="M258,-105.97C258,-99.19 258,-88.97 258,-80.13"/>
<polygon fill="#63b8ff" stroke="#63b8ff" points="261.5,-80.06 258,-70.06 254.5,-80.06 261.5,-80.06"/>
</a>
</g>
</g>
<!-- Node12 -->
<g id="Node000012" class="node">
<title>Node12</title>
<g id="a_Node000012"><a xlink:title=" ">
<polygon fill="#e0e0e0" stroke="#999999" points="337,-70 297,-70 297,-53 337,-53 337,-70"/>
<text text-anchor="middle" x="317" y="-59.6" font-family="Helvetica,sans-Serif" font-size="8.00">string</text>
</a>
</g>
</g>
<!-- Node9&#45;&gt;Node12 -->
<g id="edge16_Node000009_Node000012" class="edge">
<title>Node9&#45;&gt;Node12</title>
<g id="a_edge16_Node000009_Node000012"><a xlink:title=" ">
<path fill="none" stroke="#63b8ff" d="M266.71,-105.97C275.59,-98.29 289.61,-86.18 300.59,-76.69"/>
<polygon fill="#63b8ff" stroke="#63b8ff" points="302.98,-79.24 308.26,-70.06 298.4,-73.95 302.98,-79.24"/>
</a>
</g>
</g>
<!-- Node9&#45;&gt;Node13 -->
<g id="edge18_Node000009_Node000013" class="edge">
<title>Node9&#45;&gt;Node13</title>
<g id="a_edge18_Node000009_Node000013"><a xlink:title=" ">
<path fill="none" stroke="#63b8ff" d="M301.58,-108.52C381.78,-99.35 552.87,-79.78 643.99,-69.36"/>
<polygon fill="#63b8ff" stroke="#63b8ff" points="644.62,-72.81 654.16,-68.2 643.82,-65.86 644.62,-72.81"/>
</a>
</g>
</g>
<!-- Node13&#45;&gt;Node2 -->
<g id="edge19_Node000013_Node000002" class="edge">
<title>Node13&#45;&gt;Node2</title>
<g id="a_edge19_Node000013_Node000002"><a xlink:title=" ">
<path fill="none" stroke="#63b8ff" d="M680.1,-52.97C652.38,-44.25 606.51,-29.81 575.31,-19.99"/>
<polygon fill="#63b8ff" stroke="#63b8ff" points="576.33,-16.64 565.74,-16.97 574.23,-23.31 576.33,-16.64"/>
</a>
</g>
</g>
<!-- Node16&#45;&gt;Node2 -->
<g id="edge22_Node000016_Node000002" class="edge">
<title>Node16&#45;&gt;Node2</title>
<g id="a_edge22_Node000016_Node000002"><a xlink:title=" ">
<path fill="none" stroke="#63b8ff" d="M784.23,-162.7C834.77,-156.92 890.39,-142.39 868,-106 836.83,-55.35 652.72,-24.64 575.77,-13.87"/>
<polygon fill="#63b8ff" stroke="#63b8ff" points="576.04,-10.37 565.65,-12.48 575.08,-17.31 576.04,-10.37"/>
</a>
</g>
</g>
<!-- Node16&#45;&gt;Node7 -->
<g id="edge24_Node000016_Node000007" class="edge">
<title>Node16&#45;&gt;Node7</title>
<g id="a_edge24_Node000016_Node000007"><a xlink:title=" ">
<path fill="none" stroke="#63b8ff" d="M714,-158.97C714,-152.19 714,-141.97 714,-133.13"/>
<polygon fill="#63b8ff" stroke="#63b8ff" points="717.5,-133.06 714,-123.06 710.5,-133.06 717.5,-133.06"/>
</a>
</g>
</g>
<!-- Node16&#45;&gt;Node13 -->
<g id="edge25_Node000016_Node000013" class="edge">
<title>Node16&#45;&gt;Node13</title>
<g id="a_edge25_Node000016_Node000013"><a xlink:title=" ">
<path fill="none" stroke="#63b8ff" d="M729.92,-158.88C749.72,-148.28 779.59,-127.9 768,-106 760.61,-92.05 746.53,-81.74 733.45,-74.67"/>
<polygon fill="#63b8ff" stroke="#63b8ff" points="734.72,-71.4 724.21,-70.09 731.61,-77.67 734.72,-71.4"/>
</a>
</g>
</g>
<!-- Node17 -->
<g id="Node000017" class="node">
<title>Node17</title>
<g id="a_Node000017"><a xlink:title=" ">
<polygon fill="#e0e0e0" stroke="#999999" points="651.5,-123 608.5,-123 608.5,-106 651.5,-106 651.5,-123"/>
<text text-anchor="middle" x="630" y="-112.6" font-family="Helvetica,sans-Serif" font-size="8.00">deque</text>
</a>
</g>
</g>
<!-- Node16&#45;&gt;Node17 -->
<g id="edge23_Node000016_Node000017" class="edge">
<title>Node16&#45;&gt;Node17</title>
<g id="a_edge23_Node000016_Node000017"><a xlink:title=" ">
<path fill="none" stroke="#63b8ff" d="M701.61,-158.97C688.33,-150.91 667.02,-137.98 651.1,-128.31"/>
<polygon fill="#63b8ff" stroke="#63b8ff" points="652.81,-125.25 642.45,-123.06 649.18,-131.24 652.81,-125.25"/>
</a>
</g>
</g>
<!-- Node18&#45;&gt;Node13 -->
<g id="edge43_Node000018_Node000013" class="edge">
<title>Node18&#45;&gt;Node13</title>
<g id="a_edge43_Node000018_Node000013"><a xlink:title=" ">
<path fill="none" stroke="#63b8ff" d="M1001.15,-217C1111.3,-210.45 1324.95,-187.16 1250,-106 1217.54,-70.85 898.66,-64.08 763.77,-62.79"/>
<polygon fill="#63b8ff" stroke="#63b8ff" points="763.64,-59.29 753.61,-62.71 763.58,-66.29 763.64,-59.29"/>
</a>
</g>
</g>
<!-- Node19 -->
<g id="Node000019" class="node">
<title>Node19</title>
<g id="a_Node000019"><a xlink:title=" ">
<polygon fill="#e0e0e0" stroke="#999999" points="1240.5,-123 1193.5,-123 1193.5,-106 1240.5,-106 1240.5,-123"/>
<text text-anchor="middle" x="1217" y="-112.6" font-family="Helvetica,sans-Serif" font-size="8.00">cassert</text>
</a>
</g>
</g>
<!-- Node18&#45;&gt;Node19 -->
<g id="edge28_Node000018_Node000019" class="edge">
<title>Node18&#45;&gt;Node19</title>
<g id="a_edge28_Node000018_Node000019"><a xlink:title=" ">
<path fill="none" stroke="#63b8ff" d="M980.63,-212C1015.23,-204.9 1065.89,-192.82 1108,-176 1140.74,-162.92 1175.95,-141.99 1197.23,-128.5"/>
<polygon fill="#63b8ff" stroke="#63b8ff" points="1199.19,-131.4 1205.7,-123.04 1195.4,-125.51 1199.19,-131.4"/>
</a>
</g>
</g>
<!-- Node20 -->
<g id="Node000020" class="node">
<title>Node20</title>
<g id="a_Node000020"><a xlink:title=" ">
<polygon fill="#e0e0e0" stroke="#999999" points="859,-123 815,-123 815,-106 859,-106 859,-123"/>
<text text-anchor="middle" x="837" y="-112.6" font-family="Helvetica,sans-Serif" font-size="8.00">cstdint</text>
</a>
</g>
</g>
<!-- Node18&#45;&gt;Node20 -->
<g id="edge29_Node000018_Node000020" class="edge">
<title>Node18&#45;&gt;Node20</title>
<g id="a_edge29_Node000018_Node000020"><a xlink:title=" ">
<path fill="none" stroke="#63b8ff" d="M889.64,-211.98C868.12,-206 845.01,-195.26 832,-176 823.52,-163.44 826.14,-145.91 830.07,-132.95"/>
<polygon fill="#63b8ff" stroke="#63b8ff" points="833.43,-133.95 833.46,-123.35 826.83,-131.61 833.43,-133.95"/>
</a>
</g>
</g>
<!-- Node21 -->
<g id="Node000021" class="node">
<title>Node21</title>
<g id="a_Node000021"><a xlink:href="../../dc/d3c/bnode_8hpp.html" target="_top" xlink:title=" ">
<polygon fill="white" stroke="#666666" points="901.5,-176 840.5,-176 840.5,-159 901.5,-159 901.5,-176"/>
<text text-anchor="middle" x="871" y="-165.6" font-family="Helvetica,sans-Serif" font-size="8.00">bnode.hpp</text>
</a>
</g>
</g>
<!-- Node18&#45;&gt;Node21 -->
<g id="edge30_Node000018_Node000021" class="edge">
<title>Node18&#45;&gt;Node21</title>
<g id="a_edge30_Node000018_Node000021"><a xlink:title=" ">
<path fill="none" stroke="#63b8ff" d="M929.82,-211.97C919.22,-204.14 902.39,-191.7 889.44,-182.13"/>
<polygon fill="#63b8ff" stroke="#63b8ff" points="891.35,-179.19 881.22,-176.06 887.18,-184.81 891.35,-179.19"/>
</a>
</g>
</g>
<!-- Node22 -->
<g id="Node000022" class="node">
<title>Node22</title>
<g id="a_Node000022"><a xlink:href="../../d9/df8/heterogeneous__pool_8hpp.html" target="_top" xlink:title=" ">
<polygon fill="white" stroke="#666666" points="1098.5,-176 919.5,-176 919.5,-159 1098.5,-159 1098.5,-176"/>
<text text-anchor="middle" x="1009" y="-165.6" font-family="Helvetica,sans-Serif" font-size="8.00">../../types/pmr/heterogeneous_pool.hpp</text>
</a>
</g>
</g>
<!-- Node18&#45;&gt;Node22 -->
<g id="edge31_Node000018_Node000022" class="edge">
<title>Node18&#45;&gt;Node22</title>
<g id="a_edge31_Node000018_Node000022"><a xlink:title=" ">
<path fill="none" stroke="#63b8ff" d="M950.18,-211.97C960.78,-204.14 977.61,-191.7 990.56,-182.13"/>
<polygon fill="#63b8ff" stroke="#63b8ff" points="992.82,-184.81 998.78,-176.06 988.65,-179.19 992.82,-184.81"/>
</a>
</g>
</g>
<!-- Node22&#45;&gt;Node2 -->
<g id="edge33_Node000022_Node000002" class="edge">
<title>Node22&#45;&gt;Node2</title>
<g id="a_edge33_Node000022_Node000002"><a xlink:title=" ">
<path fill="none" stroke="#63b8ff" d="M1074.44,-159C1120.94,-151.03 1171.06,-135.38 1146,-106 1071.49,-18.64 691.87,-10.01 575.78,-9.44"/>
<polygon fill="#63b8ff" stroke="#63b8ff" points="575.7,-5.94 565.69,-9.41 575.68,-12.94 575.7,-5.94"/>
</a>
</g>
</g>
<!-- Node22&#45;&gt;Node3 -->
<g id="edge39_Node000022_Node000003" class="edge">
<title>Node22&#45;&gt;Node3</title>
<g id="a_edge39_Node000022_Node000003"><a xlink:title=" ">
<path fill="none" stroke="#63b8ff" d="M921.65,-158.97C787.19,-147.39 535.85,-125.74 448.15,-118.18"/>
<polygon fill="#63b8ff" stroke="#63b8ff" points="448.31,-114.68 438.05,-117.31 447.71,-121.66 448.31,-114.68"/>
</a>
</g>
</g>
<!-- Node22&#45;&gt;Node6 -->
<g id="edge35_Node000022_Node000006" class="edge">
<title>Node22&#45;&gt;Node6</title>
<g id="a_edge35_Node000022_Node000006"><a xlink:title=" ">
<path fill="none" stroke="#63b8ff" d="M988.46,-158.88C966.55,-150.6 930.96,-136.71 901,-123 886,-116.13 883.78,-110.81 868,-106 803.48,-86.34 599.98,-70.11 523.46,-64.56"/>
<polygon fill="#63b8ff" stroke="#63b8ff" points="523.35,-61.04 513.13,-63.81 522.85,-68.02 523.35,-61.04"/>
</a>
</g>
</g>
<!-- Node22&#45;&gt;Node7 -->
<g id="edge40_Node000022_Node000007" class="edge">
<title>Node22&#45;&gt;Node7</title>
<g id="a_edge40_Node000022_Node000007"><a xlink:title=" ">
<path fill="none" stroke="#63b8ff" d="M965.47,-158.97C912.86,-149.88 824.33,-134.57 767.57,-124.76"/>
<polygon fill="#63b8ff" stroke="#63b8ff" points="768.16,-121.31 757.71,-123.06 766.96,-128.21 768.16,-121.31"/>
</a>
</g>
</g>
<!-- Node22&#45;&gt;Node9 -->
<g id="edge42_Node000022_Node000009" class="edge">
<title>Node22&#45;&gt;Node9</title>
<g id="a_edge42_Node000022_Node000009"><a xlink:title=" ">
<path fill="none" stroke="#63b8ff" d="M919.28,-159.6C916.49,-159.39 913.72,-159.19 911,-159 688.46,-143.07 423.1,-125.98 311.56,-118.89"/>
<polygon fill="#63b8ff" stroke="#63b8ff" points="311.77,-115.39 301.57,-118.25 311.33,-122.38 311.77,-115.39"/>
</a>
</g>
</g>
<!-- Node22&#45;&gt;Node13 -->
<g id="edge41_Node000022_Node000013" class="edge">
<title>Node22&#45;&gt;Node13</title>
<g id="a_edge41_Node000022_Node000013"><a xlink:title=" ">
<path fill="none" stroke="#63b8ff" d="M997.88,-158.8C978.87,-145.99 938.56,-120.31 901,-106 856.44,-89.02 803.55,-77.8 763.81,-71.01"/>
<polygon fill="#63b8ff" stroke="#63b8ff" points="764.18,-67.53 753.74,-69.34 763.03,-74.43 764.18,-67.53"/>
</a>
</g>
</g>
<!-- Node22&#45;&gt;Node19 -->
<g id="edge32_Node000022_Node000019" class="edge">
<title>Node22&#45;&gt;Node19</title>
<g id="a_edge32_Node000022_Node000019"><a xlink:title=" ">
<path fill="none" stroke="#63b8ff" d="M1039.69,-158.97C1078.15,-149.54 1143.84,-133.44 1183.55,-123.7"/>
<polygon fill="#63b8ff" stroke="#63b8ff" points="1184.42,-127.09 1193.3,-121.31 1182.75,-120.29 1184.42,-127.09"/>
</a>
</g>
</g>
<!-- Node22&#45;&gt;Node20 -->
<g id="edge34_Node000022_Node000020" class="edge">
<title>Node22&#45;&gt;Node20</title>
<g id="a_edge34_Node000022_Node000020"><a xlink:title=" ">
<path fill="none" stroke="#63b8ff" d="M983.62,-158.97C953.13,-149.94 901.97,-134.76 868.85,-124.95"/>
<polygon fill="#63b8ff" stroke="#63b8ff" points="869.78,-121.57 859.2,-122.08 867.79,-128.28 869.78,-121.57"/>
</a>
</g>
</g>
<!-- Node23 -->
<g id="Node000023" class="node">
<title>Node23</title>
<g id="a_Node000023"><a xlink:title=" ">
<polygon fill="#e0e0e0" stroke="#999999" points="1026.5,-123 991.5,-123 991.5,-106 1026.5,-106 1026.5,-123"/>
<text text-anchor="middle" x="1009" y="-112.6" font-family="Helvetica,sans-Serif" font-size="8.00">map</text>
</a>
</g>
</g>
<!-- Node22&#45;&gt;Node23 -->
<g id="edge36_Node000022_Node000023" class="edge">
<title>Node22&#45;&gt;Node23</title>
<g id="a_edge36_Node000022_Node000023"><a xlink:title=" ">
<path fill="none" stroke="#63b8ff" d="M1009,-158.97C1009,-152.19 1009,-141.97 1009,-133.13"/>
<polygon fill="#63b8ff" stroke="#63b8ff" points="1012.5,-133.06 1009,-123.06 1005.5,-133.06 1012.5,-133.06"/>
</a>
</g>
</g>
<!-- Node24 -->
<g id="Node000024" class="node">
<title>Node24</title>
<g id="a_Node000024"><a xlink:title=" ">
<polygon fill="#e0e0e0" stroke="#999999" points="1079,-123 1045,-123 1045,-106 1079,-106 1079,-123"/>
<text text-anchor="middle" x="1062" y="-112.6" font-family="Helvetica,sans-Serif" font-size="8.00">new</text>
</a>
</g>
</g>
<!-- Node22&#45;&gt;Node24 -->
<g id="edge37_Node000022_Node000024" class="edge">
<title>Node22&#45;&gt;Node24</title>
<g id="a_edge37_Node000022_Node000024"><a xlink:title=" ">
<path fill="none" stroke="#63b8ff" d="M1016.82,-158.97C1024.65,-151.44 1036.9,-139.65 1046.67,-130.25"/>
<polygon fill="#63b8ff" stroke="#63b8ff" points="1049.37,-132.51 1054.15,-123.06 1044.51,-127.47 1049.37,-132.51"/>
</a>
</g>
</g>
<!-- Node25 -->
<g id="Node000025" class="node">
<title>Node25</title>
<g id="a_Node000025"><a xlink:title=" ">
<polygon fill="#e0e0e0" stroke="#999999" points="1136.5,-123 1097.5,-123 1097.5,-106 1136.5,-106 1136.5,-123"/>
<text text-anchor="middle" x="1117" y="-112.6" font-family="Helvetica,sans-Serif" font-size="8.00">utility</text>
</a>
</g>
</g>
<!-- Node22&#45;&gt;Node25 -->
<g id="edge38_Node000022_Node000025" class="edge">
<title>Node22&#45;&gt;Node25</title>
<g id="a_edge38_Node000022_Node000025"><a xlink:title=" ">
<path fill="none" stroke="#63b8ff" d="M1024.94,-158.97C1042.56,-150.65 1071.2,-137.13 1091.86,-127.37"/>
<polygon fill="#63b8ff" stroke="#63b8ff" points="1093.45,-130.49 1101,-123.06 1090.46,-124.16 1093.45,-130.49"/>
</a>
</g>
</g>
<!-- Node26&#45;&gt;Node2 -->
<g id="edge45_Node000026_Node000002" class="edge">
<title>Node26&#45;&gt;Node2</title>
<g id="a_edge45_Node000026_Node000002"><a xlink:title=" ">
<path fill="none" stroke="#63b8ff" d="M285.9,-165.17C224.11,-162.22 111.87,-152.78 87,-123 75.56,-109.3 68.36,-77.77 94,-53 123.65,-24.35 408.93,-13.37 508.17,-10.4"/>
<polygon fill="#63b8ff" stroke="#63b8ff" points="508.36,-13.9 518.26,-10.11 508.16,-6.9 508.36,-13.9"/>
</a>
</g>
</g>
<!-- Node26&#45;&gt;Node3 -->
<g id="edge48_Node000026_Node000003" class="edge">
<title>Node26&#45;&gt;Node3</title>
<g id="a_edge48_Node000026_Node000003"><a xlink:title=" ">
<path fill="none" stroke="#63b8ff" d="M340.28,-158.97C354.64,-150.84 377.76,-137.74 394.87,-128.04"/>
<polygon fill="#63b8ff" stroke="#63b8ff" points="396.69,-131.03 403.67,-123.06 393.24,-124.94 396.69,-131.03"/>
</a>
</g>
</g>
<!-- Node26&#45;&gt;Node6 -->
<g id="edge46_Node000026_Node000006" class="edge">
<title>Node26&#45;&gt;Node6</title>
<g id="a_edge46_Node000026_Node000006"><a xlink:title=" ">
<path fill="none" stroke="#63b8ff" d="M328.36,-158.59C331,-145.71 338,-120.21 354,-106 362.44,-98.51 426.36,-80.52 464.85,-70.18"/>
<polygon fill="#63b8ff" stroke="#63b8ff" points="466.21,-73.44 474.97,-67.48 464.4,-66.67 466.21,-73.44"/>
</a>
</g>
</g>
<!-- Node26&#45;&gt;Node8 -->
<g id="edge47_Node000026_Node000008" class="edge">
<title>Node26&#45;&gt;Node8</title>
<g id="a_edge47_Node000026_Node000008"><a xlink:title=" ">
<path fill="none" stroke="#63b8ff" d="M285.53,-164.86C225.44,-161.52 118.75,-151.62 95,-123 82.77,-108.26 99.12,-89.29 114.02,-76.56"/>
<polygon fill="#63b8ff" stroke="#63b8ff" points="116.34,-79.18 121.96,-70.19 111.97,-73.72 116.34,-79.18"/>
</a>
</g>
</g>
<!-- Node26&#45;&gt;Node9 -->
<g id="edge49_Node000026_Node000009" class="edge">
<title>Node26&#45;&gt;Node9</title>
<g id="a_edge49_Node000026_Node000009"><a xlink:title=" ">
<path fill="none" stroke="#63b8ff" d="M316.82,-158.97C306.22,-151.14 289.39,-138.7 276.44,-129.13"/>
<polygon fill="#63b8ff" stroke="#63b8ff" points="278.35,-126.19 268.22,-123.06 274.18,-131.81 278.35,-126.19"/>
</a>
</g>
</g>
<!-- Node26&#45;&gt;Node13 -->
<g id="edge51_Node000026_Node000013" class="edge">
<title>Node26&#45;&gt;Node13</title>
<g id="a_edge51_Node000026_Node000013"><a xlink:title=" ">
<path fill="none" stroke="#63b8ff" d="M332.18,-158.59C341.42,-145.23 362.12,-118.42 387,-106 430.88,-84.1 565.04,-71.71 644.06,-66.14"/>
<polygon fill="#63b8ff" stroke="#63b8ff" points="644.62,-69.61 654.36,-65.43 644.14,-62.62 644.62,-69.61"/>
</a>
</g>
</g>
<!-- Node27 -->
<g id="Node000027" class="node">
<title>Node27</title>
<g id="a_Node000027"><a xlink:title=" ">
<polygon fill="#e0e0e0" stroke="#999999" points="157.5,-123 104.5,-123 104.5,-106 157.5,-106 157.5,-123"/>
<text text-anchor="middle" x="131" y="-112.6" font-family="Helvetica,sans-Serif" font-size="8.00">iostream</text>
</a>
</g>
</g>
<!-- Node26&#45;&gt;Node27 -->
<g id="edge50_Node000026_Node000027" class="edge">
<title>Node26&#45;&gt;Node27</title>
<g id="a_edge50_Node000026_Node000027"><a xlink:title=" ">
<path fill="none" stroke="#63b8ff" d="M298.08,-158.97C263.43,-149.96 205.33,-134.84 167.59,-125.02"/>
<polygon fill="#63b8ff" stroke="#63b8ff" points="168.08,-121.53 157.52,-122.4 166.32,-128.31 168.08,-121.53"/>
</a>
</g>
</g>
</g>
</svg>
