<?xml version="1.0" encoding="UTF-8" standalone="no"?>
<!DOCTYPE svg PUBLIC "-//W3C//DTD SVG 1.1//EN"
 "http://www.w3.org/Graphics/SVG/1.1/DTD/svg11.dtd">
<!-- Generated by graphviz version 2.43.0 (0)
 -->
<!-- Title: gbfs.hpp Pages: 1 -->
<svg width="985pt" height="290pt"
 viewBox="0.00 0.00 985.00 290.00" xmlns="http://www.w3.org/2000/svg" xmlns:xlink="http://www.w3.org/1999/xlink">
<g id="graph0" class="graph" transform="scale(1 1) rotate(0) translate(4 286)">
<title>gbfs.hpp</title>
<!-- Node1 -->
<g id="Node000001" class="node">
<title>Node1</title>
<g id="a_Node000001"><a xlink:title=" ">
<polygon fill="#999999" stroke="#666666" points="391.5,-282 344.5,-282 344.5,-265 391.5,-265 391.5,-282"/>
<text text-anchor="middle" x="368" y="-271.6" font-family="Helvetica,sans-Serif" font-size="8.00">gbfs.hpp</text>
</a>
</g>
</g>
<!-- Node2 -->
<g id="Node000002" class="node">
<title>Node2</title>
<g id="a_Node000002"><a xlink:title=" ">
<polygon fill="#e0e0e0" stroke="#999999" points="372,-17 330,-17 330,0 372,0 372,-17"/>
<text text-anchor="middle" x="351" y="-6.6" font-family="Helvetica,sans-Serif" font-size="8.00">cstddef</text>
</a>
</g>
</g>
<!-- Node1&#45;&gt;Node2 -->
<g id="edge1_Node000001_Node000002" class="edge">
<title>Node1&#45;&gt;Node2</title>
<g id="a_edge1_Node000001_Node000002"><a xlink:title=" ">
<path fill="none" stroke="#63b8ff" d="M344.42,-270.97C263.2,-265.06 0,-240.37 0,-168.5 0,-168.5 0,-168.5 0,-113.5 0,-47.14 233.54,-19.84 319.63,-12.03"/>
<polygon fill="#63b8ff" stroke="#63b8ff" points="320.18,-15.5 329.83,-11.14 319.57,-8.53 320.18,-15.5"/>
</a>
</g>
</g>
<!-- Node3 -->
<g id="Node000003" class="node">
<title>Node3</title>
<g id="a_Node000003"><a xlink:title=" ">
<polygon fill="#e0e0e0" stroke="#999999" points="416,-123 378,-123 378,-106 416,-106 416,-123"/>
<text text-anchor="middle" x="397" y="-112.6" font-family="Helvetica,sans-Serif" font-size="8.00">vector</text>
</a>
</g>
</g>
<!-- Node1&#45;&gt;Node3 -->
<g id="edge2_Node000001_Node000003" class="edge">
<title>Node1&#45;&gt;Node3</title>
<g id="a_edge2_Node000001_Node000003"><a xlink:title=" ">
<path fill="none" stroke="#63b8ff" d="M369.4,-264.93C373.79,-241.15 387.38,-167.56 393.71,-133.33"/>
<polygon fill="#63b8ff" stroke="#63b8ff" points="397.17,-133.84 395.55,-123.37 390.29,-132.56 397.17,-133.84"/>
</a>
</g>
</g>
<!-- Node4 -->
<g id="Node000004" class="node">
<title>Node4</title>
<g id="a_Node000004"><a xlink:href="../../d8/d62/existence__set_8hpp.html" target="_top" xlink:title=" ">
<polygon fill="white" stroke="#666666" points="339.5,-176 192.5,-176 192.5,-159 339.5,-159 339.5,-176"/>
<text text-anchor="middle" x="266" y="-165.6" font-family="Helvetica,sans-Serif" font-size="8.00">../types/containers/existence_set.hpp</text>
</a>
</g>
</g>
<!-- Node1&#45;&gt;Node4 -->
<g id="edge3_Node000001_Node000004" class="edge">
<title>Node1&#45;&gt;Node4</title>
<g id="a_edge3_Node000001_Node000004"><a xlink:title=" ">
<path fill="none" stroke="#63b8ff" d="M360.33,-264.68C343.42,-247.43 302.65,-205.87 280.65,-183.44"/>
<polygon fill="#63b8ff" stroke="#63b8ff" points="282.98,-180.81 273.48,-176.12 277.98,-185.72 282.98,-180.81"/>
</a>
</g>
</g>
<!-- Node8 -->
<g id="Node000008" class="node">
<title>Node8</title>
<g id="a_Node000008"><a xlink:href="../../df/d93/utils_8hpp.html" target="_top" xlink:title=" ">
<polygon fill="white" stroke="#666666" points="585.5,-123 510.5,-123 510.5,-106 585.5,-106 585.5,-123"/>
<text text-anchor="middle" x="548" y="-112.6" font-family="Helvetica,sans-Serif" font-size="8.00">../../utils/utils.hpp</text>
</a>
</g>
</g>
<!-- Node1&#45;&gt;Node8 -->
<g id="edge23_Node000001_Node000008" class="edge">
<title>Node1&#45;&gt;Node8</title>
<g id="a_edge23_Node000001_Node000008"><a xlink:title=" ">
<path fill="none" stroke="#63b8ff" d="M391.97,-269.16C418.45,-264.37 461.02,-253.29 489,-229 519.1,-202.87 536,-157.58 543.41,-132.84"/>
<polygon fill="#63b8ff" stroke="#63b8ff" points="546.82,-133.64 546.16,-123.07 540.08,-131.75 546.82,-133.64"/>
</a>
</g>
</g>
<!-- Node15 -->
<g id="Node000015" class="node">
<title>Node15</title>
<g id="a_Node000015"><a xlink:href="../../d7/ded/queue_8hpp.html" target="_top" xlink:title=" ">
<polygon fill="white" stroke="#666666" points="174,-176 52,-176 52,-159 174,-159 174,-176"/>
<text text-anchor="middle" x="113" y="-165.6" font-family="Helvetica,sans-Serif" font-size="8.00">../types/containers/queue.hpp</text>
</a>
</g>
</g>
<!-- Node1&#45;&gt;Node15 -->
<g id="edge18_Node000001_Node000015" class="edge">
<title>Node1&#45;&gt;Node15</title>
<g id="a_edge18_Node000001_Node000015"><a xlink:title=" ">
<path fill="none" stroke="#63b8ff" d="M349.25,-264.85C304.84,-246.74 193.05,-201.15 140.77,-179.83"/>
<polygon fill="#63b8ff" stroke="#63b8ff" points="142.02,-176.55 131.43,-176.02 139.37,-183.04 142.02,-176.55"/>
</a>
</g>
</g>
<!-- Node17 -->
<g id="Node000017" class="node">
<title>Node17</title>
<g id="a_Node000017"><a xlink:href="../../da/deb/managed__node_8hpp.html" target="_top" xlink:title=" ">
<polygon fill="white" stroke="#666666" points="830,-229 722,-229 722,-212 830,-212 830,-229"/>
<text text-anchor="middle" x="776" y="-218.6" font-family="Helvetica,sans-Serif" font-size="8.00">base/managed_node.hpp</text>
</a>
</g>
</g>
<!-- Node1&#45;&gt;Node17 -->
<g id="edge24_Node000001_Node000017" class="edge">
<title>Node1&#45;&gt;Node17</title>
<g id="a_edge24_Node000001_Node000017"><a xlink:title=" ">
<path fill="none" stroke="#63b8ff" d="M391.7,-269.54C453.17,-261.85 619.38,-241.08 711.8,-229.52"/>
<polygon fill="#63b8ff" stroke="#63b8ff" points="712.39,-232.98 721.88,-228.27 711.52,-226.03 712.39,-232.98"/>
</a>
</g>
</g>
<!-- Node24 -->
<g id="Node000024" class="node">
<title>Node24</title>
<g id="a_Node000024"><a xlink:href="../../d2/d1c/solver_8hpp.html" target="_top" xlink:title=" ">
<polygon fill="white" stroke="#666666" points="480,-229 408,-229 408,-212 480,-212 480,-229"/>
<text text-anchor="middle" x="444" y="-218.6" font-family="Helvetica,sans-Serif" font-size="8.00">base/solver.hpp</text>
</a>
</g>
</g>
<!-- Node1&#45;&gt;Node24 -->
<g id="edge38_Node000001_Node000024" class="edge">
<title>Node1&#45;&gt;Node24</title>
<g id="a_edge38_Node000001_Node000024"><a xlink:title=" ">
<path fill="none" stroke="#63b8ff" d="M379.21,-264.97C391,-257.07 409.78,-244.46 424.1,-234.86"/>
<polygon fill="#63b8ff" stroke="#63b8ff" points="426.39,-237.53 432.74,-229.06 422.49,-231.72 426.39,-237.53"/>
</a>
</g>
</g>
<!-- Node4&#45;&gt;Node2 -->
<g id="edge4_Node000004_Node000002" class="edge">
<title>Node4&#45;&gt;Node2</title>
<g id="a_edge4_Node000004_Node000002"><a xlink:title=" ">
<path fill="none" stroke="#63b8ff" d="M262.74,-158.95C254.82,-139.27 236.89,-85.71 261,-53 275.18,-33.76 300.15,-22.63 320.2,-16.45"/>
<polygon fill="#63b8ff" stroke="#63b8ff" points="321.19,-19.81 329.87,-13.73 319.29,-13.08 321.19,-19.81"/>
</a>
</g>
</g>
<!-- Node4&#45;&gt;Node3 -->
<g id="edge8_Node000004_Node000003" class="edge">
<title>Node4&#45;&gt;Node3</title>
<g id="a_edge8_Node000004_Node000003"><a xlink:title=" ">
<path fill="none" stroke="#63b8ff" d="M285.33,-158.97C307.19,-150.46 343.03,-136.51 368.19,-126.72"/>
<polygon fill="#63b8ff" stroke="#63b8ff" points="369.54,-129.95 377.59,-123.06 367,-123.42 369.54,-129.95"/>
</a>
</g>
</g>
<!-- Node5 -->
<g id="Node000005" class="node">
<title>Node5</title>
<g id="a_Node000005"><a xlink:title=" ">
<polygon fill="#e0e0e0" stroke="#999999" points="322,-123 262,-123 262,-106 322,-106 322,-123"/>
<text text-anchor="middle" x="292" y="-112.6" font-family="Helvetica,sans-Serif" font-size="8.00">initializer_list</text>
</a>
</g>
</g>
<!-- Node4&#45;&gt;Node5 -->
<g id="edge5_Node000004_Node000005" class="edge">
<title>Node4&#45;&gt;Node5</title>
<g id="a_edge5_Node000004_Node000005"><a xlink:title=" ">
<path fill="none" stroke="#63b8ff" d="M269.84,-158.97C273.41,-151.97 278.86,-141.28 283.46,-132.25"/>
<polygon fill="#63b8ff" stroke="#63b8ff" points="286.72,-133.55 288.15,-123.06 280.49,-130.38 286.72,-133.55"/>
</a>
</g>
</g>
<!-- Node6 -->
<g id="Node000006" class="node">
<title>Node6</title>
<g id="a_Node000006"><a xlink:title=" ">
<polygon fill="#e0e0e0" stroke="#999999" points="206,-123 124,-123 124,-106 206,-106 206,-123"/>
<text text-anchor="middle" x="165" y="-112.6" font-family="Helvetica,sans-Serif" font-size="8.00">memory_resource</text>
</a>
</g>
</g>
<!-- Node4&#45;&gt;Node6 -->
<g id="edge6_Node000004_Node000006" class="edge">
<title>Node4&#45;&gt;Node6</title>
<g id="a_edge6_Node000004_Node000006"><a xlink:title=" ">
<path fill="none" stroke="#63b8ff" d="M251.1,-158.97C234.76,-150.73 208.31,-137.37 189.04,-127.64"/>
<polygon fill="#63b8ff" stroke="#63b8ff" points="190.47,-124.44 179.96,-123.06 187.31,-130.69 190.47,-124.44"/>
</a>
</g>
</g>
<!-- Node7 -->
<g id="Node000007" class="node">
<title>Node7</title>
<g id="a_Node000007"><a xlink:title=" ">
<polygon fill="#e0e0e0" stroke="#999999" points="322.5,-70 269.5,-70 269.5,-53 322.5,-53 322.5,-70"/>
<text text-anchor="middle" x="296" y="-59.6" font-family="Helvetica,sans-Serif" font-size="8.00">type_traits</text>
</a>
</g>
</g>
<!-- Node4&#45;&gt;Node7 -->
<g id="edge7_Node000004_Node000007" class="edge">
<title>Node4&#45;&gt;Node7</title>
<g id="a_edge7_Node000004_Node000007"><a xlink:title=" ">
<path fill="none" stroke="#63b8ff" d="M286.52,-158.99C301.83,-152.18 321.66,-140.49 331,-123 339.52,-107.04 326.25,-89.16 313.68,-77"/>
<polygon fill="#63b8ff" stroke="#63b8ff" points="315.92,-74.31 306.14,-70.24 311.25,-79.52 315.92,-74.31"/>
</a>
</g>
</g>
<!-- Node4&#45;&gt;Node8 -->
<g id="edge9_Node000004_Node000008" class="edge">
<title>Node4&#45;&gt;Node8</title>
<g id="a_edge9_Node000004_Node000008"><a xlink:title=" ">
<path fill="none" stroke="#63b8ff" d="M307.61,-158.97C358.99,-149.68 446.21,-133.91 500.26,-124.13"/>
<polygon fill="#63b8ff" stroke="#63b8ff" points="501.07,-127.54 510.28,-122.32 499.82,-120.66 501.07,-127.54"/>
</a>
</g>
</g>
<!-- Node8&#45;&gt;Node2 -->
<g id="edge12_Node000008_Node000002" class="edge">
<title>Node8&#45;&gt;Node2</title>
<g id="a_edge12_Node000008_Node000002"><a xlink:title=" ">
<path fill="none" stroke="#63b8ff" d="M558.79,-106C574.58,-94.12 600.6,-70.55 586,-53 560.4,-22.22 439.84,-13.13 382.05,-10.51"/>
<polygon fill="#63b8ff" stroke="#63b8ff" points="382.16,-7.02 372.03,-10.1 381.87,-14.01 382.16,-7.02"/>
</a>
</g>
</g>
<!-- Node8&#45;&gt;Node7 -->
<g id="edge15_Node000008_Node000007" class="edge">
<title>Node8&#45;&gt;Node7</title>
<g id="a_edge15_Node000008_Node000007"><a xlink:title=" ">
<path fill="none" stroke="#63b8ff" d="M510.82,-105.97C462.86,-96.27 379.97,-79.49 332.4,-69.87"/>
<polygon fill="#63b8ff" stroke="#63b8ff" points="333.02,-66.42 322.52,-67.87 331.63,-73.28 333.02,-66.42"/>
</a>
</g>
</g>
<!-- Node9 -->
<g id="Node000009" class="node">
<title>Node9</title>
<g id="a_Node000009"><a xlink:title=" ">
<polygon fill="#e0e0e0" stroke="#999999" points="520.5,-70 485.5,-70 485.5,-53 520.5,-53 520.5,-70"/>
<text text-anchor="middle" x="503" y="-59.6" font-family="Helvetica,sans-Serif" font-size="8.00">array</text>
</a>
</g>
</g>
<!-- Node8&#45;&gt;Node9 -->
<g id="edge10_Node000008_Node000009" class="edge">
<title>Node8&#45;&gt;Node9</title>
<g id="a_edge10_Node000008_Node000009"><a xlink:title=" ">
<path fill="none" stroke="#63b8ff" d="M541.36,-105.97C534.85,-98.59 524.72,-87.12 516.51,-77.81"/>
<polygon fill="#63b8ff" stroke="#63b8ff" points="518.91,-75.24 509.67,-70.06 513.66,-79.87 518.91,-75.24"/>
</a>
</g>
</g>
<!-- Node10 -->
<g id="Node000010" class="node">
<title>Node10</title>
<g id="a_Node000010"><a xlink:title=" ">
<polygon fill="#e0e0e0" stroke="#999999" points="577,-70 539,-70 539,-53 577,-53 577,-70"/>
<text text-anchor="middle" x="558" y="-59.6" font-family="Helvetica,sans-Serif" font-size="8.00">cmath</text>
</a>
</g>
</g>
<!-- Node8&#45;&gt;Node10 -->
<g id="edge11_Node000008_Node000010" class="edge">
<title>Node8&#45;&gt;Node10</title>
<g id="a_edge11_Node000008_Node000010"><a xlink:title=" ">
<path fill="none" stroke="#63b8ff" d="M549.48,-105.97C550.8,-99.19 552.81,-88.97 554.54,-80.13"/>
<polygon fill="#63b8ff" stroke="#63b8ff" points="558.03,-80.54 556.52,-70.06 551.16,-79.2 558.03,-80.54"/>
</a>
</g>
</g>
<!-- Node11 -->
<g id="Node000011" class="node">
<title>Node11</title>
<g id="a_Node000011"><a xlink:title=" ">
<polygon fill="#e0e0e0" stroke="#999999" points="413,-70 379,-70 379,-53 413,-53 413,-70"/>
<text text-anchor="middle" x="396" y="-59.6" font-family="Helvetica,sans-Serif" font-size="8.00">limits</text>
</a>
</g>
</g>
<!-- Node8&#45;&gt;Node11 -->
<g id="edge13_Node000008_Node000011" class="edge">
<title>Node8&#45;&gt;Node11</title>
<g id="a_edge13_Node000008_Node000011"><a xlink:title=" ">
<path fill="none" stroke="#63b8ff" d="M525.57,-105.97C498.24,-96.8 452.1,-81.32 422.89,-71.52"/>
<polygon fill="#63b8ff" stroke="#63b8ff" points="423.91,-68.17 413.32,-68.31 421.69,-74.81 423.91,-68.17"/>
</a>
</g>
</g>
<!-- Node12 -->
<g id="Node000012" class="node">
<title>Node12</title>
<g id="a_Node000012"><a xlink:title=" ">
<polygon fill="#e0e0e0" stroke="#999999" points="467,-70 431,-70 431,-53 467,-53 467,-70"/>
<text text-anchor="middle" x="449" y="-59.6" font-family="Helvetica,sans-Serif" font-size="8.00">string</text>
</a>
</g>
</g>
<!-- Node8&#45;&gt;Node12 -->
<g id="edge14_Node000008_Node000012" class="edge">
<title>Node8&#45;&gt;Node12</title>
<g id="a_edge14_Node000008_Node000012"><a xlink:title=" ">
<path fill="none" stroke="#63b8ff" d="M533.39,-105.97C517.38,-97.73 491.46,-84.37 472.56,-74.64"/>
<polygon fill="#63b8ff" stroke="#63b8ff" points="474.16,-71.52 463.67,-70.06 470.95,-77.75 474.16,-71.52"/>
</a>
</g>
</g>
<!-- Node13 -->
<g id="Node000013" class="node">
<title>Node13</title>
<g id="a_Node000013"><a xlink:href="../../d7/d65/intrinsics_8hpp.html" target="_top" xlink:title=" ">
<polygon fill="#fff0f0" stroke="red" points="718.5,-70 633.5,-70 633.5,-53 718.5,-53 718.5,-70"/>
<text text-anchor="middle" x="676" y="-59.6" font-family="Helvetica,sans-Serif" font-size="8.00">../utils/intrinsics.hpp</text>
</a>
</g>
</g>
<!-- Node8&#45;&gt;Node13 -->
<g id="edge16_Node000008_Node000013" class="edge">
<title>Node8&#45;&gt;Node13</title>
<g id="a_edge16_Node000008_Node000013"><a xlink:title=" ">
<path fill="none" stroke="#63b8ff" d="M566.89,-105.97C588.16,-97.5 622.95,-83.64 647.52,-73.85"/>
<polygon fill="#63b8ff" stroke="#63b8ff" points="649.04,-77.01 657.04,-70.06 646.45,-70.51 649.04,-77.01"/>
</a>
</g>
</g>
<!-- Node13&#45;&gt;Node2 -->
<g id="edge17_Node000013_Node000002" class="edge">
<title>Node13&#45;&gt;Node2</title>
<g id="a_edge17_Node000013_Node000002"><a xlink:title=" ">
<path fill="none" stroke="#63b8ff" d="M633.18,-53.78C566.81,-43.37 440.68,-23.57 382.21,-14.4"/>
<polygon fill="#63b8ff" stroke="#63b8ff" points="382.53,-10.9 372.11,-12.81 381.44,-17.82 382.53,-10.9"/>
</a>
</g>
</g>
<!-- Node15&#45;&gt;Node2 -->
<g id="edge19_Node000015_Node000002" class="edge">
<title>Node15&#45;&gt;Node2</title>
<g id="a_edge19_Node000015_Node000002"><a xlink:title=" ">
<path fill="none" stroke="#63b8ff" d="M110.76,-158.6C107.75,-146.18 103.96,-121.87 115,-106 162.42,-37.84 267.05,-17.76 319.6,-11.89"/>
<polygon fill="#63b8ff" stroke="#63b8ff" points="320.08,-15.36 329.68,-10.87 319.38,-8.39 320.08,-15.36"/>
</a>
</g>
</g>
<!-- Node15&#45;&gt;Node3 -->
<g id="edge21_Node000015_Node000003" class="edge">
<title>Node15&#45;&gt;Node3</title>
<g id="a_edge21_Node000015_Node000003"><a xlink:title=" ">
<path fill="none" stroke="#63b8ff" d="M154.91,-158.97C213.25,-148.5 317.45,-129.79 367.96,-120.72"/>
<polygon fill="#63b8ff" stroke="#63b8ff" points="368.66,-124.14 377.89,-118.93 367.43,-117.25 368.66,-124.14"/>
</a>
</g>
</g>
<!-- Node15&#45;&gt;Node6 -->
<g id="edge22_Node000015_Node000006" class="edge">
<title>Node15&#45;&gt;Node6</title>
<g id="a_edge22_Node000015_Node000006"><a xlink:title=" ">
<path fill="none" stroke="#63b8ff" d="M120.67,-158.97C128.35,-151.44 140.38,-139.65 149.96,-130.25"/>
<polygon fill="#63b8ff" stroke="#63b8ff" points="152.61,-132.56 157.3,-123.06 147.71,-127.56 152.61,-132.56"/>
</a>
</g>
</g>
<!-- Node16 -->
<g id="Node000016" class="node">
<title>Node16</title>
<g id="a_Node000016"><a xlink:title=" ">
<polygon fill="#e0e0e0" stroke="#999999" points="67.5,-123 28.5,-123 28.5,-106 67.5,-106 67.5,-123"/>
<text text-anchor="middle" x="48" y="-112.6" font-family="Helvetica,sans-Serif" font-size="8.00">queue</text>
</a>
</g>
</g>
<!-- Node15&#45;&gt;Node16 -->
<g id="edge20_Node000015_Node000016" class="edge">
<title>Node15&#45;&gt;Node16</title>
<g id="a_edge20_Node000015_Node000016"><a xlink:title=" ">
<path fill="none" stroke="#63b8ff" d="M103.41,-158.97C93.52,-151.22 77.87,-138.94 65.73,-129.41"/>
<polygon fill="#63b8ff" stroke="#63b8ff" points="67.66,-126.48 57.63,-123.06 63.34,-131.98 67.66,-126.48"/>
</a>
</g>
</g>
<!-- Node17&#45;&gt;Node13 -->
<g id="edge37_Node000017_Node000013" class="edge">
<title>Node17&#45;&gt;Node13</title>
<g id="a_edge37_Node000017_Node000013"><a xlink:title=" ">
<path fill="none" stroke="#63b8ff" d="M744.4,-211.91C725.2,-205.59 701.97,-194.54 689,-176 668.97,-147.37 670.35,-104.39 673.16,-80.38"/>
<polygon fill="#63b8ff" stroke="#63b8ff" points="676.66,-80.64 674.57,-70.25 669.72,-79.68 676.66,-80.64"/>
</a>
</g>
</g>
<!-- Node18 -->
<g id="Node000018" class="node">
<title>Node18</title>
<g id="a_Node000018"><a xlink:title=" ">
<polygon fill="#e0e0e0" stroke="#999999" points="977,-123 935,-123 935,-106 977,-106 977,-123"/>
<text text-anchor="middle" x="956" y="-112.6" font-family="Helvetica,sans-Serif" font-size="8.00">cassert</text>
</a>
</g>
</g>
<!-- Node17&#45;&gt;Node18 -->
<g id="edge25_Node000017_Node000018" class="edge">
<title>Node17&#45;&gt;Node18</title>
<g id="a_edge25_Node000017_Node000018"><a xlink:title=" ">
<path fill="none" stroke="#63b8ff" d="M830.24,-217.77C864.94,-213.85 908.6,-203.28 937,-176 948.66,-164.8 953.2,-146.54 954.94,-133"/>
<polygon fill="#63b8ff" stroke="#63b8ff" points="958.43,-133.28 955.85,-123 951.46,-132.65 958.43,-133.28"/>
</a>
</g>
</g>
<!-- Node19 -->
<g id="Node000019" class="node">
<title>Node19</title>
<g id="a_Node000019"><a xlink:href="../../dc/d3c/bnode_8hpp.html" target="_top" xlink:title=" ">
<polygon fill="white" stroke="#666666" points="927.5,-176 872.5,-176 872.5,-159 927.5,-159 927.5,-176"/>
<text text-anchor="middle" x="900" y="-165.6" font-family="Helvetica,sans-Serif" font-size="8.00">bnode.hpp</text>
</a>
</g>
</g>
<!-- Node17&#45;&gt;Node19 -->
<g id="edge26_Node000017_Node000019" class="edge">
<title>Node17&#45;&gt;Node19</title>
<g id="a_edge26_Node000017_Node000019"><a xlink:title=" ">
<path fill="none" stroke="#63b8ff" d="M794.3,-211.97C814.81,-203.54 848.31,-189.76 872.1,-179.98"/>
<polygon fill="#63b8ff" stroke="#63b8ff" points="873.71,-183.1 881.63,-176.06 871.05,-176.62 873.71,-183.1"/>
</a>
</g>
</g>
<!-- Node20 -->
<g id="Node000020" class="node">
<title>Node20</title>
<g id="a_Node000020"><a xlink:href="../../d9/df8/heterogeneous__pool_8hpp.html" target="_top" xlink:title=" ">
<polygon fill="white" stroke="#666666" points="854.5,-176 697.5,-176 697.5,-159 854.5,-159 854.5,-176"/>
<text text-anchor="middle" x="776" y="-165.6" font-family="Helvetica,sans-Serif" font-size="8.00">../../types/pmr/heterogeneous_pool.hpp</text>
</a>
</g>
</g>
<!-- Node17&#45;&gt;Node20 -->
<g id="edge27_Node000017_Node000020" class="edge">
<title>Node17&#45;&gt;Node20</title>
<g id="a_edge27_Node000017_Node000020"><a xlink:title=" ">
<path fill="none" stroke="#63b8ff" d="M776,-211.97C776,-205.19 776,-194.97 776,-186.13"/>
<polygon fill="#63b8ff" stroke="#63b8ff" points="779.5,-186.06 776,-176.06 772.5,-186.06 779.5,-186.06"/>
</a>
</g>
</g>
<!-- Node20&#45;&gt;Node2 -->
<g id="edge29_Node000020_Node000002" class="edge">
<title>Node20&#45;&gt;Node2</title>
<g id="a_edge29_Node000020_Node000002"><a xlink:title=" ">
<path fill="none" stroke="#63b8ff" d="M773.84,-158.8C767.16,-135.51 746.15,-66.59 728,-53 673.73,-12.36 463.04,-8.95 382.52,-9.17"/>
<polygon fill="#63b8ff" stroke="#63b8ff" points="382.04,-5.68 372.05,-9.23 382.07,-12.68 382.04,-5.68"/>
</a>
</g>
</g>
<!-- Node20&#45;&gt;Node3 -->
<g id="edge34_Node000020_Node000003" class="edge">
<title>Node20&#45;&gt;Node3</title>
<g id="a_edge34_Node000020_Node000003"><a xlink:title=" ">
<path fill="none" stroke="#63b8ff" d="M720.08,-158.97C638.33,-147.97 489.09,-127.89 426.19,-119.43"/>
<polygon fill="#63b8ff" stroke="#63b8ff" points="426.55,-115.94 416.17,-118.08 425.61,-122.88 426.55,-115.94"/>
</a>
</g>
</g>
<!-- Node20&#45;&gt;Node6 -->
<g id="edge32_Node000020_Node000006" class="edge">
<title>Node20&#45;&gt;Node6</title>
<g id="a_edge32_Node000020_Node000006"><a xlink:title=" ">
<path fill="none" stroke="#63b8ff" d="M697.14,-159.99C594.75,-151.53 410.52,-136.26 253,-123 241.18,-122 228.47,-120.93 216.49,-119.91"/>
<polygon fill="#63b8ff" stroke="#63b8ff" points="216.45,-116.39 206.19,-119.03 215.85,-123.36 216.45,-116.39"/>
</a>
</g>
</g>
<!-- Node20&#45;&gt;Node8 -->
<g id="edge36_Node000020_Node000008" class="edge">
<title>Node20&#45;&gt;Node8</title>
<g id="a_edge36_Node000020_Node000008"><a xlink:title=" ">
<path fill="none" stroke="#63b8ff" d="M742.36,-158.97C702.37,-150.03 635.53,-135.08 591.6,-125.25"/>
<polygon fill="#63b8ff" stroke="#63b8ff" points="592.3,-121.82 581.78,-123.06 590.78,-128.65 592.3,-121.82"/>
</a>
</g>
</g>
<!-- Node20&#45;&gt;Node13 -->
<g id="edge35_Node000020_Node000013" class="edge">
<title>Node20&#45;&gt;Node13</title>
<g id="a_edge35_Node000020_Node000013"><a xlink:title=" ">
<path fill="none" stroke="#63b8ff" d="M768.33,-158.85C759.69,-150.21 745.24,-135.68 733,-123 718.18,-107.64 701.46,-89.84 689.98,-77.54"/>
<polygon fill="#63b8ff" stroke="#63b8ff" points="692.34,-74.94 682.96,-70.01 687.22,-79.71 692.34,-74.94"/>
</a>
</g>
</g>
<!-- Node20&#45;&gt;Node18 -->
<g id="edge28_Node000020_Node000018" class="edge">
<title>Node20&#45;&gt;Node18</title>
<g id="a_edge28_Node000020_Node000018"><a xlink:title=" ">
<path fill="none" stroke="#63b8ff" d="M802.56,-158.97C835.17,-149.73 890.4,-134.09 924.95,-124.3"/>
<polygon fill="#63b8ff" stroke="#63b8ff" points="926.29,-127.56 934.96,-121.46 924.38,-120.82 926.29,-127.56"/>
</a>
</g>
</g>
<!-- Node21 -->
<g id="Node000021" class="node">
<title>Node21</title>
<g id="a_Node000021"><a xlink:title=" ">
<polygon fill="#e0e0e0" stroke="#999999" points="916.5,-123 877.5,-123 877.5,-106 916.5,-106 916.5,-123"/>
<text text-anchor="middle" x="897" y="-112.6" font-family="Helvetica,sans-Serif" font-size="8.00">cstdint</text>
</a>
</g>
</g>
<!-- Node20&#45;&gt;Node21 -->
<g id="edge30_Node000020_Node000021" class="edge">
<title>Node20&#45;&gt;Node21</title>
<g id="a_edge30_Node000020_Node000021"><a xlink:title=" ">
<path fill="none" stroke="#63b8ff" d="M793.85,-158.97C813.87,-150.54 846.56,-136.76 869.77,-126.98"/>
<polygon fill="#63b8ff" stroke="#63b8ff" points="871.22,-130.17 879.07,-123.06 868.5,-123.71 871.22,-130.17"/>
</a>
</g>
</g>
<!-- Node22 -->
<g id="Node000022" class="node">
<title>Node22</title>
<g id="a_Node000022"><a xlink:title=" ">
<polygon fill="#e0e0e0" stroke="#999999" points="807,-123 775,-123 775,-106 807,-106 807,-123"/>
<text text-anchor="middle" x="791" y="-112.6" font-family="Helvetica,sans-Serif" font-size="8.00">map</text>
</a>
</g>
</g>
<!-- Node20&#45;&gt;Node22 -->
<g id="edge31_Node000020_Node000022" class="edge">
<title>Node20&#45;&gt;Node22</title>
<g id="a_edge31_Node000020_Node000022"><a xlink:title=" ">
<path fill="none" stroke="#63b8ff" d="M778.21,-158.97C780.23,-152.12 783.28,-141.74 785.9,-132.84"/>
<polygon fill="#63b8ff" stroke="#63b8ff" points="789.31,-133.64 788.78,-123.06 782.6,-131.66 789.31,-133.64"/>
</a>
</g>
</g>
<!-- Node23 -->
<g id="Node000023" class="node">
<title>Node23</title>
<g id="a_Node000023"><a xlink:title=" ">
<polygon fill="#e0e0e0" stroke="#999999" points="859,-123 825,-123 825,-106 859,-106 859,-123"/>
<text text-anchor="middle" x="842" y="-112.6" font-family="Helvetica,sans-Serif" font-size="8.00">utility</text>
</a>
</g>
</g>
<!-- Node20&#45;&gt;Node23 -->
<g id="edge33_Node000020_Node000023" class="edge">
<title>Node20&#45;&gt;Node23</title>
<g id="a_edge33_Node000020_Node000023"><a xlink:title=" ">
<path fill="none" stroke="#63b8ff" d="M785.74,-158.97C795.78,-151.22 811.67,-138.94 824,-129.41"/>
<polygon fill="#63b8ff" stroke="#63b8ff" points="826.45,-131.94 832.22,-123.06 822.17,-126.4 826.45,-131.94"/>
</a>
</g>
</g>
<!-- Node24&#45;&gt;Node2 -->
<g id="edge39_Node000024_Node000002" class="edge">
<title>Node24&#45;&gt;Node2</title>
<g id="a_edge39_Node000024_Node000002"><a xlink:title=" ">
<path fill="none" stroke="#63b8ff" d="M447.82,-211.72C451.77,-203.19 457.69,-188.99 460,-176 465.6,-144.58 464.7,-130.29 444,-106 420.28,-78.16 393.87,-97.71 370,-70 359.66,-58 354.94,-40.38 352.79,-27.25"/>
<polygon fill="#63b8ff" stroke="#63b8ff" points="356.24,-26.59 351.49,-17.12 349.29,-27.48 356.24,-26.59"/>
</a>
</g>
</g>
<!-- Node24&#45;&gt;Node3 -->
<g id="edge41_Node000024_Node000003" class="edge">
<title>Node24&#45;&gt;Node3</title>
<g id="a_edge41_Node000024_Node000003"><a xlink:title=" ">
<path fill="none" stroke="#63b8ff" d="M440.47,-211.68C432.88,-194.89 414.87,-155.04 404.57,-132.25"/>
<polygon fill="#63b8ff" stroke="#63b8ff" points="407.75,-130.8 400.45,-123.12 401.37,-133.68 407.75,-130.8"/>
</a>
</g>
</g>
<!-- Node24&#45;&gt;Node4 -->
<g id="edge42_Node000024_Node000004" class="edge">
<title>Node24&#45;&gt;Node4</title>
<g id="a_edge42_Node000024_Node000004"><a xlink:title=" ">
<path fill="none" stroke="#63b8ff" d="M417.74,-211.97C387.11,-203.2 336.3,-188.64 302.01,-178.82"/>
<polygon fill="#63b8ff" stroke="#63b8ff" points="302.95,-175.45 292.37,-176.06 301.02,-182.18 302.95,-175.45"/>
</a>
</g>
</g>
<!-- Node24&#45;&gt;Node7 -->
<g id="edge40_Node000024_Node000007" class="edge">
<title>Node24&#45;&gt;Node7</title>
<g id="a_edge40_Node000024_Node000007"><a xlink:title=" ">
<path fill="none" stroke="#63b8ff" d="M445.16,-211.79C447.73,-191.73 451.69,-137.33 425,-106 412.84,-91.73 366.24,-78.45 332.54,-70.4"/>
<polygon fill="#63b8ff" stroke="#63b8ff" points="333.08,-66.94 322.54,-68.08 331.49,-73.76 333.08,-66.94"/>
</a>
</g>
</g>
<!-- Node24&#45;&gt;Node8 -->
<g id="edge43_Node000024_Node000008" class="edge">
<title>Node24&#45;&gt;Node8</title>
<g id="a_edge43_Node000024_Node000008"><a xlink:title=" ">
<path fill="none" stroke="#63b8ff" d="M454,-211.94C464.78,-203.6 482.26,-189.56 496,-176 510.44,-161.75 525.38,-144.01 535.52,-131.43"/>
<polygon fill="#63b8ff" stroke="#63b8ff" points="538.49,-133.31 541.97,-123.31 533.01,-128.95 538.49,-133.31"/>
</a>
</g>
</g>
<!-- Node24&#45;&gt;Node13 -->
<g id="edge44_Node000024_Node000013" class="edge">
<title>Node24&#45;&gt;Node13</title>
<g id="a_edge44_Node000024_Node000013"><a xlink:title=" ">
<path fill="none" stroke="#63b8ff" d="M457.33,-211.88C472.08,-203.37 496.47,-189.08 517,-176 552.35,-153.48 560.87,-147.32 595,-123 616.95,-107.36 641.71,-88.71 658.01,-76.29"/>
<polygon fill="#63b8ff" stroke="#63b8ff" points="660.31,-78.95 666.13,-70.1 656.06,-73.38 660.31,-78.95"/>
</a>
</g>
</g>
</g>
</svg>
