<?xml version="1.0" encoding="UTF-8" standalone="no"?>
<!DOCTYPE svg PUBLIC "-//W3C//DTD SVG 1.1//EN"
 "http://www.w3.org/Graphics/SVG/1.1/DTD/svg11.dtd">
<!-- Generated by graphviz version 2.43.0 (0)
 -->
<!-- Title: gbfs.hpp Pages: 1 -->
<svg width="1282pt" height="290pt"
 viewBox="0.00 0.00 1281.50 290.00" xmlns="http://www.w3.org/2000/svg" xmlns:xlink="http://www.w3.org/1999/xlink">
<g id="graph0" class="graph" transform="scale(1 1) rotate(0) translate(4 286)">
<title>gbfs.hpp</title>
<!-- Node1 -->
<g id="Node000001" class="node">
<title>Node1</title>
<g id="a_Node000001"><a xlink:title=" ">
<polygon fill="#999999" stroke="#666666" points="547.5,-282 500.5,-282 500.5,-265 547.5,-265 547.5,-282"/>
<text text-anchor="middle" x="524" y="-271.6" font-family="Helvetica,sans-Serif" font-size="8.00">gbfs.hpp</text>
</a>
</g>
</g>
<!-- Node2 -->
<g id="Node000002" class="node">
<title>Node2</title>
<g id="a_Node000002"><a xlink:title=" ">
<polygon fill="#e0e0e0" stroke="#999999" points="497,-17 455,-17 455,0 497,0 497,-17"/>
<text text-anchor="middle" x="476" y="-6.6" font-family="Helvetica,sans-Serif" font-size="8.00">cstddef</text>
</a>
</g>
</g>
<!-- Node1&#45;&gt;Node2 -->
<g id="edge1_Node000001_Node000002" class="edge">
<title>Node1&#45;&gt;Node2</title>
<g id="a_edge1_Node000001_Node000002"><a xlink:title=" ">
<path fill="none" stroke="#63b8ff" d="M500.47,-272.91C398.51,-274.08 0,-272.03 0,-168.5 0,-168.5 0,-168.5 0,-113.5 0,-79.72 16.53,-69.51 46,-53 114.41,-14.66 357.79,-9.93 444.8,-9.48"/>
<polygon fill="#63b8ff" stroke="#63b8ff" points="444.86,-12.98 454.84,-9.45 444.83,-5.98 444.86,-12.98"/>
</a>
</g>
</g>
<!-- Node3 -->
<g id="Node000003" class="node">
<title>Node3</title>
<g id="a_Node000003"><a xlink:title=" ">
<polygon fill="#e0e0e0" stroke="#999999" points="580,-123 542,-123 542,-106 580,-106 580,-123"/>
<text text-anchor="middle" x="561" y="-112.6" font-family="Helvetica,sans-Serif" font-size="8.00">vector</text>
</a>
</g>
</g>
<!-- Node1&#45;&gt;Node3 -->
<g id="edge2_Node000001_Node000003" class="edge">
<title>Node1&#45;&gt;Node3</title>
<g id="a_edge2_Node000001_Node000003"><a xlink:title=" ">
<path fill="none" stroke="#63b8ff" d="M525.78,-264.93C531.39,-241.15 548.73,-167.56 556.8,-133.33"/>
<polygon fill="#63b8ff" stroke="#63b8ff" points="560.26,-133.9 559.15,-123.37 553.45,-132.3 560.26,-133.9"/>
</a>
</g>
</g>
<!-- Node4 -->
<g id="Node000004" class="node">
<title>Node4</title>
<g id="a_Node000004"><a xlink:href="../../d8/d62/existence__set_8hpp.html" target="_top" xlink:title=" ">
<polygon fill="white" stroke="#666666" points="516.5,-176 369.5,-176 369.5,-159 516.5,-159 516.5,-176"/>
<text text-anchor="middle" x="443" y="-165.6" font-family="Helvetica,sans-Serif" font-size="8.00">../types/containers/existence_set.hpp</text>
</a>
</g>
</g>
<!-- Node1&#45;&gt;Node4 -->
<g id="edge3_Node000001_Node000004" class="edge">
<title>Node1&#45;&gt;Node4</title>
<g id="a_edge3_Node000001_Node000004"><a xlink:title=" ">
<path fill="none" stroke="#63b8ff" d="M517.91,-264.68C504.59,-247.58 472.67,-206.59 455.1,-184.03"/>
<polygon fill="#63b8ff" stroke="#63b8ff" points="457.84,-181.86 448.94,-176.12 452.32,-186.17 457.84,-181.86"/>
</a>
</g>
</g>
<!-- Node10 -->
<g id="Node000010" class="node">
<title>Node10</title>
<g id="a_Node000010"><a xlink:href="../../df/d93/utils_8hpp.html" target="_top" xlink:title=" ">
<polygon fill="white" stroke="#666666" points="217.5,-123 142.5,-123 142.5,-106 217.5,-106 217.5,-123"/>
<text text-anchor="middle" x="180" y="-112.6" font-family="Helvetica,sans-Serif" font-size="8.00">../../utils/utils.hpp</text>
</a>
</g>
</g>
<!-- Node1&#45;&gt;Node10 -->
<g id="edge27_Node000001_Node000010" class="edge">
<title>Node1&#45;&gt;Node10</title>
<g id="a_edge27_Node000001_Node000010"><a xlink:title=" ">
<path fill="none" stroke="#63b8ff" d="M500.42,-272.53C441.5,-271.29 286.46,-259.79 201,-176 189.46,-164.69 184.26,-146.73 181.91,-133.31"/>
<polygon fill="#63b8ff" stroke="#63b8ff" points="185.37,-132.78 180.54,-123.35 178.44,-133.73 185.37,-132.78"/>
</a>
</g>
</g>
<!-- Node14 -->
<g id="Node000014" class="node">
<title>Node14</title>
<g id="a_Node000014"><a xlink:href="../../d7/d65/intrinsics_8hpp.html" target="_top" xlink:title=" ">
<polygon fill="#fff0f0" stroke="red" points="719.5,-70 634.5,-70 634.5,-53 719.5,-53 719.5,-70"/>
<text text-anchor="middle" x="677" y="-59.6" font-family="Helvetica,sans-Serif" font-size="8.00">../utils/intrinsics.hpp</text>
</a>
</g>
</g>
<!-- Node1&#45;&gt;Node14 -->
<g id="edge51_Node000001_Node000014" class="edge">
<title>Node1&#45;&gt;Node14</title>
<g id="a_edge51_Node000001_Node000014"><a xlink:title=" ">
<path fill="none" stroke="#63b8ff" d="M547.67,-271.26C638.12,-266.05 960.5,-242.99 1033,-176 1051.49,-158.91 1048.48,-147.77 1053,-123 1054.36,-115.57 1058.03,-111.64 1053,-106 1031.86,-82.28 828.06,-69.57 729.65,-64.78"/>
<polygon fill="#63b8ff" stroke="#63b8ff" points="729.77,-61.28 719.62,-64.3 729.44,-68.27 729.77,-61.28"/>
</a>
</g>
</g>
<!-- Node17 -->
<g id="Node000017" class="node">
<title>Node17</title>
<g id="a_Node000017"><a xlink:href="../../d7/ded/queue_8hpp.html" target="_top" xlink:title=" ">
<polygon fill="white" stroke="#666666" points="1273,-176 1151,-176 1151,-159 1273,-159 1273,-176"/>
<text text-anchor="middle" x="1212" y="-165.6" font-family="Helvetica,sans-Serif" font-size="8.00">../types/containers/queue.hpp</text>
</a>
</g>
</g>
<!-- Node1&#45;&gt;Node17 -->
<g id="edge22_Node000001_Node000017" class="edge">
<title>Node1&#45;&gt;Node17</title>
<g id="a_edge22_Node000001_Node000017"><a xlink:title=" ">
<path fill="none" stroke="#63b8ff" d="M547.73,-272.7C646.74,-273.23 1026.79,-272.36 1137,-229 1161.73,-219.27 1184.64,-198.33 1198.47,-183.83"/>
<polygon fill="#63b8ff" stroke="#63b8ff" points="1201.32,-185.9 1205.51,-176.17 1196.17,-181.16 1201.32,-185.9"/>
</a>
</g>
</g>
<!-- Node19 -->
<g id="Node000019" class="node">
<title>Node19</title>
<g id="a_Node000019"><a xlink:href="../../da/deb/managed__node_8hpp.html" target="_top" xlink:title=" ">
<polygon fill="white" stroke="#666666" points="841,-229 733,-229 733,-212 841,-212 841,-229"/>
<text text-anchor="middle" x="787" y="-218.6" font-family="Helvetica,sans-Serif" font-size="8.00">base/managed_node.hpp</text>
</a>
</g>
</g>
<!-- Node1&#45;&gt;Node19 -->
<g id="edge28_Node000001_Node000019" class="edge">
<title>Node1&#45;&gt;Node19</title>
<g id="a_edge28_Node000001_Node000019"><a xlink:title=" ">
<path fill="none" stroke="#63b8ff" d="M547.8,-267.88C590.66,-259.57 681.58,-241.94 738.16,-230.97"/>
<polygon fill="#63b8ff" stroke="#63b8ff" points="739.16,-234.34 748.31,-229 737.82,-227.47 739.16,-234.34"/>
</a>
</g>
</g>
<!-- Node27 -->
<g id="Node000027" class="node">
<title>Node27</title>
<g id="a_Node000027"><a xlink:href="../../d2/d1c/solver_8hpp.html" target="_top" xlink:title=" ">
<polygon fill="white" stroke="#666666" points="282,-176 210,-176 210,-159 282,-159 282,-176"/>
<text text-anchor="middle" x="246" y="-165.6" font-family="Helvetica,sans-Serif" font-size="8.00">base/solver.hpp</text>
</a>
</g>
</g>
<!-- Node1&#45;&gt;Node27 -->
<g id="edge44_Node000001_Node000027" class="edge">
<title>Node1&#45;&gt;Node27</title>
<g id="a_edge44_Node000001_Node000027"><a xlink:title=" ">
<path fill="none" stroke="#63b8ff" d="M503.56,-264.85C454.94,-246.66 332.26,-200.77 275.56,-179.56"/>
<polygon fill="#63b8ff" stroke="#63b8ff" points="276.69,-176.24 266.1,-176.02 274.24,-182.8 276.69,-176.24"/>
</a>
</g>
</g>
<!-- Node4&#45;&gt;Node2 -->
<g id="edge4_Node000004_Node000002" class="edge">
<title>Node4&#45;&gt;Node2</title>
<g id="a_edge4_Node000004_Node000002"><a xlink:title=" ">
<path fill="none" stroke="#63b8ff" d="M444.59,-158.93C449.59,-135.15 465.06,-61.56 472.25,-27.33"/>
<polygon fill="#63b8ff" stroke="#63b8ff" points="475.71,-27.87 474.35,-17.37 468.86,-26.43 475.71,-27.87"/>
</a>
</g>
</g>
<!-- Node4&#45;&gt;Node3 -->
<g id="edge10_Node000004_Node000003" class="edge">
<title>Node4&#45;&gt;Node3</title>
<g id="a_edge10_Node000004_Node000003"><a xlink:title=" ">
<path fill="none" stroke="#63b8ff" d="M460.41,-158.97C479.85,-150.58 511.53,-136.88 534.14,-127.11"/>
<polygon fill="#63b8ff" stroke="#63b8ff" points="535.73,-130.24 543.52,-123.06 532.95,-123.81 535.73,-130.24"/>
</a>
</g>
</g>
<!-- Node5 -->
<g id="Node000005" class="node">
<title>Node5</title>
<g id="a_Node000005"><a xlink:title=" ">
<polygon fill="#e0e0e0" stroke="#999999" points="395,-70 345,-70 345,-53 395,-53 395,-70"/>
<text text-anchor="middle" x="370" y="-59.6" font-family="Helvetica,sans-Serif" font-size="8.00">functional</text>
</a>
</g>
</g>
<!-- Node4&#45;&gt;Node5 -->
<g id="edge5_Node000004_Node000005" class="edge">
<title>Node4&#45;&gt;Node5</title>
<g id="a_edge5_Node000004_Node000005"><a xlink:title=" ">
<path fill="none" stroke="#63b8ff" d="M437.51,-158.68C425.56,-141.66 396.99,-100.95 381.12,-78.34"/>
<polygon fill="#63b8ff" stroke="#63b8ff" points="383.96,-76.3 375.35,-70.12 378.23,-80.32 383.96,-76.3"/>
</a>
</g>
</g>
<!-- Node6 -->
<g id="Node000006" class="node">
<title>Node6</title>
<g id="a_Node000006"><a xlink:title=" ">
<polygon fill="#e0e0e0" stroke="#999999" points="372,-123 312,-123 312,-106 372,-106 372,-123"/>
<text text-anchor="middle" x="342" y="-112.6" font-family="Helvetica,sans-Serif" font-size="8.00">initializer_list</text>
</a>
</g>
</g>
<!-- Node4&#45;&gt;Node6 -->
<g id="edge6_Node000004_Node000006" class="edge">
<title>Node4&#45;&gt;Node6</title>
<g id="a_edge6_Node000004_Node000006"><a xlink:title=" ">
<path fill="none" stroke="#63b8ff" d="M428.1,-158.97C411.76,-150.73 385.31,-137.37 366.04,-127.64"/>
<polygon fill="#63b8ff" stroke="#63b8ff" points="367.47,-124.44 356.96,-123.06 364.31,-130.69 367.47,-124.44"/>
</a>
</g>
</g>
<!-- Node7 -->
<g id="Node000007" class="node">
<title>Node7</title>
<g id="a_Node000007"><a xlink:title=" ">
<polygon fill="#e0e0e0" stroke="#999999" points="448,-70 414,-70 414,-53 448,-53 448,-70"/>
<text text-anchor="middle" x="431" y="-59.6" font-family="Helvetica,sans-Serif" font-size="8.00">limits</text>
</a>
</g>
</g>
<!-- Node4&#45;&gt;Node7 -->
<g id="edge7_Node000004_Node000007" class="edge">
<title>Node4&#45;&gt;Node7</title>
<g id="a_edge7_Node000004_Node000007"><a xlink:title=" ">
<path fill="none" stroke="#63b8ff" d="M442.1,-158.68C440.19,-142.11 435.69,-103.11 433.04,-80.18"/>
<polygon fill="#63b8ff" stroke="#63b8ff" points="436.5,-79.66 431.88,-70.12 429.55,-80.46 436.5,-79.66"/>
</a>
</g>
</g>
<!-- Node8 -->
<g id="Node000008" class="node">
<title>Node8</title>
<g id="a_Node000008"><a xlink:title=" ">
<polygon fill="#e0e0e0" stroke="#999999" points="740,-123 658,-123 658,-106 740,-106 740,-123"/>
<text text-anchor="middle" x="699" y="-112.6" font-family="Helvetica,sans-Serif" font-size="8.00">memory_resource</text>
</a>
</g>
</g>
<!-- Node4&#45;&gt;Node8 -->
<g id="edge8_Node000004_Node000008" class="edge">
<title>Node4&#45;&gt;Node8</title>
<g id="a_edge8_Node000004_Node000008"><a xlink:title=" ">
<path fill="none" stroke="#63b8ff" d="M480.77,-158.97C525.96,-149.97 601.67,-134.89 650.97,-125.07"/>
<polygon fill="#63b8ff" stroke="#63b8ff" points="651.95,-128.44 661.07,-123.06 650.58,-121.58 651.95,-128.44"/>
</a>
</g>
</g>
<!-- Node9 -->
<g id="Node000009" class="node">
<title>Node9</title>
<g id="a_Node000009"><a xlink:title=" ">
<polygon fill="#e0e0e0" stroke="#999999" points="120.5,-70 67.5,-70 67.5,-53 120.5,-53 120.5,-70"/>
<text text-anchor="middle" x="94" y="-59.6" font-family="Helvetica,sans-Serif" font-size="8.00">type_traits</text>
</a>
</g>
</g>
<!-- Node4&#45;&gt;Node9 -->
<g id="edge9_Node000004_Node000009" class="edge">
<title>Node4&#45;&gt;Node9</title>
<g id="a_edge9_Node000004_Node000009"><a xlink:title=" ">
<path fill="none" stroke="#63b8ff" d="M369.44,-163.18C290.43,-158.41 171.06,-147.33 133,-123 117.23,-112.92 106.56,-93.92 100.42,-79.89"/>
<polygon fill="#63b8ff" stroke="#63b8ff" points="103.57,-78.34 96.6,-70.36 97.07,-80.94 103.57,-78.34"/>
</a>
</g>
</g>
<!-- Node4&#45;&gt;Node10 -->
<g id="edge11_Node000004_Node000010" class="edge">
<title>Node4&#45;&gt;Node10</title>
<g id="a_edge11_Node000004_Node000010"><a xlink:title=" ">
<path fill="none" stroke="#63b8ff" d="M404.19,-158.97C357.27,-149.88 278.32,-134.57 227.72,-124.75"/>
<polygon fill="#63b8ff" stroke="#63b8ff" points="228.17,-121.28 217.69,-122.81 226.84,-128.15 228.17,-121.28"/>
</a>
</g>
</g>
<!-- Node4&#45;&gt;Node14 -->
<g id="edge21_Node000004_Node000014" class="edge">
<title>Node4&#45;&gt;Node14</title>
<g id="a_edge21_Node000004_Node000014"><a xlink:title=" ">
<path fill="none" stroke="#63b8ff" d="M452.16,-158.97C467.83,-146.41 501.19,-121.08 533,-106 564.67,-90.99 602.7,-79.77 631.72,-72.48"/>
<polygon fill="#63b8ff" stroke="#63b8ff" points="632.7,-75.84 641.59,-70.07 631.04,-69.04 632.7,-75.84"/>
</a>
</g>
</g>
<!-- Node10&#45;&gt;Node2 -->
<g id="edge14_Node000010_Node000002" class="edge">
<title>Node10&#45;&gt;Node2</title>
<g id="a_edge14_Node000010_Node000002"><a xlink:title=" ">
<path fill="none" stroke="#63b8ff" d="M200.23,-105.92C223.06,-97.34 261.27,-82.87 294,-70 312.74,-62.63 317.03,-59.77 336,-53 373.15,-39.74 416.62,-26.59 445.15,-18.28"/>
<polygon fill="#63b8ff" stroke="#63b8ff" points="446.31,-21.59 454.95,-15.45 444.37,-14.86 446.31,-21.59"/>
</a>
</g>
</g>
<!-- Node10&#45;&gt;Node5 -->
<g id="edge15_Node000010_Node000005" class="edge">
<title>Node10&#45;&gt;Node5</title>
<g id="a_edge15_Node000010_Node000005"><a xlink:title=" ">
<path fill="none" stroke="#63b8ff" d="M208.04,-105.97C241.81,-96.91 298.58,-81.67 335.14,-71.86"/>
<polygon fill="#63b8ff" stroke="#63b8ff" points="336.14,-75.21 344.89,-69.24 334.32,-68.45 336.14,-75.21"/>
</a>
</g>
</g>
<!-- Node10&#45;&gt;Node7 -->
<g id="edge16_Node000010_Node000007" class="edge">
<title>Node10&#45;&gt;Node7</title>
<g id="a_edge16_Node000010_Node000007"><a xlink:title=" ">
<path fill="none" stroke="#63b8ff" d="M217.85,-107.09C262.54,-99.31 339.03,-85.31 404,-70 404.1,-69.98 404.2,-69.95 404.3,-69.93"/>
<polygon fill="#63b8ff" stroke="#63b8ff" points="405.09,-73.34 413.91,-67.47 403.36,-66.56 405.09,-73.34"/>
</a>
</g>
</g>
<!-- Node10&#45;&gt;Node9 -->
<g id="edge18_Node000010_Node000009" class="edge">
<title>Node10&#45;&gt;Node9</title>
<g id="a_edge18_Node000010_Node000009"><a xlink:title=" ">
<path fill="none" stroke="#63b8ff" d="M167.31,-105.97C153.72,-97.91 131.91,-84.98 115.6,-75.31"/>
<polygon fill="#63b8ff" stroke="#63b8ff" points="117.13,-72.15 106.74,-70.06 113.56,-78.17 117.13,-72.15"/>
</a>
</g>
</g>
<!-- Node11 -->
<g id="Node000011" class="node">
<title>Node11</title>
<g id="a_Node000011"><a xlink:title=" ">
<polygon fill="#e0e0e0" stroke="#999999" points="228.5,-70 193.5,-70 193.5,-53 228.5,-53 228.5,-70"/>
<text text-anchor="middle" x="211" y="-59.6" font-family="Helvetica,sans-Serif" font-size="8.00">array</text>
</a>
</g>
</g>
<!-- Node10&#45;&gt;Node11 -->
<g id="edge12_Node000010_Node000011" class="edge">
<title>Node10&#45;&gt;Node11</title>
<g id="a_edge12_Node000010_Node000011"><a xlink:title=" ">
<path fill="none" stroke="#63b8ff" d="M184.57,-105.97C188.92,-98.82 195.61,-87.82 201.17,-78.67"/>
<polygon fill="#63b8ff" stroke="#63b8ff" points="204.2,-80.42 206.41,-70.06 198.22,-76.78 204.2,-80.42"/>
</a>
</g>
</g>
<!-- Node12 -->
<g id="Node000012" class="node">
<title>Node12</title>
<g id="a_Node000012"><a xlink:title=" ">
<polygon fill="#e0e0e0" stroke="#999999" points="285,-70 247,-70 247,-53 285,-53 285,-70"/>
<text text-anchor="middle" x="266" y="-59.6" font-family="Helvetica,sans-Serif" font-size="8.00">cmath</text>
</a>
</g>
</g>
<!-- Node10&#45;&gt;Node12 -->
<g id="edge13_Node000010_Node000012" class="edge">
<title>Node10&#45;&gt;Node12</title>
<g id="a_edge13_Node000010_Node000012"><a xlink:title=" ">
<path fill="none" stroke="#63b8ff" d="M192.69,-105.97C206.28,-97.91 228.09,-84.98 244.4,-75.31"/>
<polygon fill="#63b8ff" stroke="#63b8ff" points="246.44,-78.17 253.26,-70.06 242.87,-72.15 246.44,-78.17"/>
</a>
</g>
</g>
<!-- Node13 -->
<g id="Node000013" class="node">
<title>Node13</title>
<g id="a_Node000013"><a xlink:title=" ">
<polygon fill="#e0e0e0" stroke="#999999" points="175,-70 139,-70 139,-53 175,-53 175,-70"/>
<text text-anchor="middle" x="157" y="-59.6" font-family="Helvetica,sans-Serif" font-size="8.00">string</text>
</a>
</g>
</g>
<!-- Node10&#45;&gt;Node13 -->
<g id="edge17_Node000010_Node000013" class="edge">
<title>Node10&#45;&gt;Node13</title>
<g id="a_edge17_Node000010_Node000013"><a xlink:title=" ">
<path fill="none" stroke="#63b8ff" d="M176.61,-105.97C173.45,-98.97 168.63,-88.28 164.56,-79.25"/>
<polygon fill="#63b8ff" stroke="#63b8ff" points="167.71,-77.73 160.41,-70.06 161.33,-80.61 167.71,-77.73"/>
</a>
</g>
</g>
<!-- Node10&#45;&gt;Node14 -->
<g id="edge19_Node000010_Node000014" class="edge">
<title>Node10&#45;&gt;Node14</title>
<g id="a_edge19_Node000010_Node000014"><a xlink:title=" ">
<path fill="none" stroke="#63b8ff" d="M217.76,-109.62C305.59,-100.61 523.71,-78.23 624.46,-67.89"/>
<polygon fill="#63b8ff" stroke="#63b8ff" points="624.82,-71.37 634.41,-66.87 624.11,-64.41 624.82,-71.37"/>
</a>
</g>
</g>
<!-- Node14&#45;&gt;Node2 -->
<g id="edge20_Node000014_Node000002" class="edge">
<title>Node14&#45;&gt;Node2</title>
<g id="a_edge20_Node000014_Node000002"><a xlink:title=" ">
<path fill="none" stroke="#63b8ff" d="M647.34,-52.97C609.81,-43.45 545.46,-27.12 507.21,-17.42"/>
<polygon fill="#63b8ff" stroke="#63b8ff" points="507.71,-13.93 497.15,-14.87 505.99,-20.72 507.71,-13.93"/>
</a>
</g>
</g>
<!-- Node17&#45;&gt;Node2 -->
<g id="edge23_Node000017_Node000002" class="edge">
<title>Node17&#45;&gt;Node2</title>
<g id="a_edge23_Node000017_Node000002"><a xlink:title=" ">
<path fill="none" stroke="#63b8ff" d="M1208.86,-158.87C1203.14,-145.92 1189.74,-119.72 1170,-106 1092.01,-51.81 1056.6,-69.05 963,-53 792.4,-23.74 584.6,-13.49 507.1,-10.54"/>
<polygon fill="#63b8ff" stroke="#63b8ff" points="507.16,-7.04 497.04,-10.17 506.91,-14.03 507.16,-7.04"/>
</a>
</g>
</g>
<!-- Node17&#45;&gt;Node8 -->
<g id="edge25_Node000017_Node000008" class="edge">
<title>Node17&#45;&gt;Node8</title>
<g id="a_edge25_Node000017_Node000008"><a xlink:title=" ">
<path fill="none" stroke="#63b8ff" d="M1150.88,-160.42C1048.84,-150.28 845.58,-130.07 750.4,-120.61"/>
<polygon fill="#63b8ff" stroke="#63b8ff" points="750.46,-117.1 740.17,-119.59 749.77,-124.06 750.46,-117.1"/>
</a>
</g>
</g>
<!-- Node17&#45;&gt;Node14 -->
<g id="edge26_Node000017_Node000014" class="edge">
<title>Node17&#45;&gt;Node14</title>
<g id="a_edge26_Node000017_Node000014"><a xlink:title=" ">
<path fill="none" stroke="#63b8ff" d="M1206.26,-158.9C1195.66,-145.5 1171.54,-117.97 1144,-106 1070.82,-74.2 836.01,-65.59 729.92,-63.31"/>
<polygon fill="#63b8ff" stroke="#63b8ff" points="729.83,-59.81 719.76,-63.1 729.68,-66.8 729.83,-59.81"/>
</a>
</g>
</g>
<!-- Node18 -->
<g id="Node000018" class="node">
<title>Node18</title>
<g id="a_Node000018"><a xlink:title=" ">
<polygon fill="#e0e0e0" stroke="#999999" points="1273.5,-123 1234.5,-123 1234.5,-106 1273.5,-106 1273.5,-123"/>
<text text-anchor="middle" x="1254" y="-112.6" font-family="Helvetica,sans-Serif" font-size="8.00">deque</text>
</a>
</g>
</g>
<!-- Node17&#45;&gt;Node18 -->
<g id="edge24_Node000017_Node000018" class="edge">
<title>Node17&#45;&gt;Node18</title>
<g id="a_edge24_Node000017_Node000018"><a xlink:title=" ">
<path fill="none" stroke="#63b8ff" d="M1218.2,-158.97C1224.28,-151.59 1233.72,-140.12 1241.39,-130.81"/>
<polygon fill="#63b8ff" stroke="#63b8ff" points="1244.12,-133 1247.78,-123.06 1238.72,-128.55 1244.12,-133"/>
</a>
</g>
</g>
<!-- Node19&#45;&gt;Node14 -->
<g id="edge43_Node000019_Node000014" class="edge">
<title>Node19&#45;&gt;Node14</title>
<g id="a_edge43_Node000019_Node000014"><a xlink:title=" ">
<path fill="none" stroke="#63b8ff" d="M841.26,-214.01C930.89,-202.93 1094.34,-172.99 1035,-106 1015.12,-83.55 824.52,-70.34 729.84,-65.11"/>
<polygon fill="#63b8ff" stroke="#63b8ff" points="729.78,-61.61 719.61,-64.56 729.41,-68.6 729.78,-61.61"/>
</a>
</g>
</g>
<!-- Node20 -->
<g id="Node000020" class="node">
<title>Node20</title>
<g id="a_Node000020"><a xlink:title=" ">
<polygon fill="#e0e0e0" stroke="#999999" points="640,-123 598,-123 598,-106 640,-106 640,-123"/>
<text text-anchor="middle" x="619" y="-112.6" font-family="Helvetica,sans-Serif" font-size="8.00">cassert</text>
</a>
</g>
</g>
<!-- Node19&#45;&gt;Node20 -->
<g id="edge29_Node000019_Node000020" class="edge">
<title>Node19&#45;&gt;Node20</title>
<g id="a_edge29_Node000019_Node000020"><a xlink:title=" ">
<path fill="none" stroke="#63b8ff" d="M769.51,-211.87C751.59,-203.8 723.14,-190.27 700,-176 676.81,-161.7 651.95,-142.49 635.99,-129.59"/>
<polygon fill="#63b8ff" stroke="#63b8ff" points="638.05,-126.76 628.09,-123.14 633.62,-132.18 638.05,-126.76"/>
</a>
</g>
</g>
<!-- Node21 -->
<g id="Node000021" class="node">
<title>Node21</title>
<g id="a_Node000021"><a xlink:href="../../dc/d3c/bnode_8hpp.html" target="_top" xlink:title=" ">
<polygon fill="white" stroke="#666666" points="938.5,-176 883.5,-176 883.5,-159 938.5,-159 938.5,-176"/>
<text text-anchor="middle" x="911" y="-165.6" font-family="Helvetica,sans-Serif" font-size="8.00">bnode.hpp</text>
</a>
</g>
</g>
<!-- Node19&#45;&gt;Node21 -->
<g id="edge30_Node000019_Node000021" class="edge">
<title>Node19&#45;&gt;Node21</title>
<g id="a_edge30_Node000019_Node000021"><a xlink:title=" ">
<path fill="none" stroke="#63b8ff" d="M805.3,-211.97C825.81,-203.54 859.31,-189.76 883.1,-179.98"/>
<polygon fill="#63b8ff" stroke="#63b8ff" points="884.71,-183.1 892.63,-176.06 882.05,-176.62 884.71,-183.1"/>
</a>
</g>
</g>
<!-- Node22 -->
<g id="Node000022" class="node">
<title>Node22</title>
<g id="a_Node000022"><a xlink:href="../../d9/df8/heterogeneous__pool_8hpp.html" target="_top" xlink:title=" ">
<polygon fill="white" stroke="#666666" points="865.5,-176 708.5,-176 708.5,-159 865.5,-159 865.5,-176"/>
<text text-anchor="middle" x="787" y="-165.6" font-family="Helvetica,sans-Serif" font-size="8.00">../../types/pmr/heterogeneous_pool.hpp</text>
</a>
</g>
</g>
<!-- Node19&#45;&gt;Node22 -->
<g id="edge31_Node000019_Node000022" class="edge">
<title>Node19&#45;&gt;Node22</title>
<g id="a_edge31_Node000019_Node000022"><a xlink:title=" ">
<path fill="none" stroke="#63b8ff" d="M787,-211.97C787,-205.19 787,-194.97 787,-186.13"/>
<polygon fill="#63b8ff" stroke="#63b8ff" points="790.5,-186.06 787,-176.06 783.5,-186.06 790.5,-186.06"/>
</a>
</g>
</g>
<!-- Node22&#45;&gt;Node2 -->
<g id="edge33_Node000022_Node000002" class="edge">
<title>Node22&#45;&gt;Node2</title>
<g id="a_edge33_Node000022_Node000002"><a xlink:title=" ">
<path fill="none" stroke="#63b8ff" d="M855.92,-158.96C925.24,-150.67 1023.49,-136.7 1035,-123 1039.86,-117.21 1039.87,-111.78 1035,-106 966.41,-24.5 614.59,-11.83 507.18,-9.86"/>
<polygon fill="#63b8ff" stroke="#63b8ff" points="507.06,-6.36 497,-9.7 506.94,-13.36 507.06,-6.36"/>
</a>
</g>
</g>
<!-- Node22&#45;&gt;Node3 -->
<g id="edge39_Node000022_Node000003" class="edge">
<title>Node22&#45;&gt;Node3</title>
<g id="a_edge39_Node000022_Node000003"><a xlink:title=" ">
<path fill="none" stroke="#63b8ff" d="M750.39,-158.98C712.59,-151.09 651.66,-138.07 590.13,-123.18"/>
<polygon fill="#63b8ff" stroke="#63b8ff" points="590.79,-119.74 580.25,-120.78 589.14,-126.55 590.79,-119.74"/>
</a>
</g>
</g>
<!-- Node22&#45;&gt;Node7 -->
<g id="edge35_Node000022_Node000007" class="edge">
<title>Node22&#45;&gt;Node7</title>
<g id="a_edge35_Node000022_Node000007"><a xlink:title=" ">
<path fill="none" stroke="#63b8ff" d="M784.53,-158.64C779.9,-145.34 768.59,-118.64 749,-106 701.1,-75.1 526.63,-65.8 458.51,-63.32"/>
<polygon fill="#63b8ff" stroke="#63b8ff" points="458.27,-59.81 448.16,-62.96 458.04,-66.8 458.27,-59.81"/>
</a>
</g>
</g>
<!-- Node22&#45;&gt;Node8 -->
<g id="edge40_Node000022_Node000008" class="edge">
<title>Node22&#45;&gt;Node8</title>
<g id="a_edge40_Node000022_Node000008"><a xlink:title=" ">
<path fill="none" stroke="#63b8ff" d="M774.02,-158.97C760.11,-150.91 737.79,-137.98 721.1,-128.31"/>
<polygon fill="#63b8ff" stroke="#63b8ff" points="722.45,-125.04 712.04,-123.06 718.94,-131.1 722.45,-125.04"/>
</a>
</g>
</g>
<!-- Node22&#45;&gt;Node10 -->
<g id="edge42_Node000022_Node000010" class="edge">
<title>Node22&#45;&gt;Node10</title>
<g id="a_edge42_Node000022_Node000010"><a xlink:title=" ">
<path fill="none" stroke="#63b8ff" d="M708.27,-159.88C580.65,-149.16 332.41,-128.31 228.05,-119.54"/>
<polygon fill="#63b8ff" stroke="#63b8ff" points="228.07,-116.03 217.81,-118.68 227.49,-123 228.07,-116.03"/>
</a>
</g>
</g>
<!-- Node22&#45;&gt;Node14 -->
<g id="edge41_Node000022_Node000014" class="edge">
<title>Node22&#45;&gt;Node14</title>
<g id="a_edge41_Node000022_Node000014"><a xlink:title=" ">
<path fill="none" stroke="#63b8ff" d="M788.67,-158.96C790.96,-146.6 793.55,-121.84 782,-106 769.52,-88.89 749.03,-78.48 729.46,-72.16"/>
<polygon fill="#63b8ff" stroke="#63b8ff" points="730.24,-68.74 719.66,-69.29 728.28,-75.46 730.24,-68.74"/>
</a>
</g>
</g>
<!-- Node22&#45;&gt;Node20 -->
<g id="edge32_Node000022_Node000020" class="edge">
<title>Node22&#45;&gt;Node20</title>
<g id="a_edge32_Node000022_Node000020"><a xlink:title=" ">
<path fill="none" stroke="#63b8ff" d="M762.21,-158.97C732.4,-149.92 682.33,-134.73 649.99,-124.91"/>
<polygon fill="#63b8ff" stroke="#63b8ff" points="650.75,-121.48 640.17,-121.93 648.72,-128.18 650.75,-121.48"/>
</a>
</g>
</g>
<!-- Node23 -->
<g id="Node000023" class="node">
<title>Node23</title>
<g id="a_Node000023"><a xlink:title=" ">
<polygon fill="#e0e0e0" stroke="#999999" points="925.5,-123 886.5,-123 886.5,-106 925.5,-106 925.5,-123"/>
<text text-anchor="middle" x="906" y="-112.6" font-family="Helvetica,sans-Serif" font-size="8.00">cstdint</text>
</a>
</g>
</g>
<!-- Node22&#45;&gt;Node23 -->
<g id="edge34_Node000022_Node000023" class="edge">
<title>Node22&#45;&gt;Node23</title>
<g id="a_edge34_Node000022_Node000023"><a xlink:title=" ">
<path fill="none" stroke="#63b8ff" d="M804.56,-158.97C824.16,-150.58 856.11,-136.88 878.91,-127.11"/>
<polygon fill="#63b8ff" stroke="#63b8ff" points="880.56,-130.21 888.37,-123.06 877.8,-123.78 880.56,-130.21"/>
</a>
</g>
</g>
<!-- Node24 -->
<g id="Node000024" class="node">
<title>Node24</title>
<g id="a_Node000024"><a xlink:title=" ">
<polygon fill="#e0e0e0" stroke="#999999" points="976,-123 944,-123 944,-106 976,-106 976,-123"/>
<text text-anchor="middle" x="960" y="-112.6" font-family="Helvetica,sans-Serif" font-size="8.00">map</text>
</a>
</g>
</g>
<!-- Node22&#45;&gt;Node24 -->
<g id="edge36_Node000022_Node000024" class="edge">
<title>Node22&#45;&gt;Node24</title>
<g id="a_edge36_Node000022_Node000024"><a xlink:title=" ">
<path fill="none" stroke="#63b8ff" d="M812.68,-159C840.36,-150.9 885.97,-137.54 934.19,-123.23"/>
<polygon fill="#63b8ff" stroke="#63b8ff" points="935.28,-126.56 943.87,-120.35 933.28,-119.85 935.28,-126.56"/>
</a>
</g>
</g>
<!-- Node25 -->
<g id="Node000025" class="node">
<title>Node25</title>
<g id="a_Node000025"><a xlink:title=" ">
<polygon fill="#e0e0e0" stroke="#999999" points="1026,-123 994,-123 994,-106 1026,-106 1026,-123"/>
<text text-anchor="middle" x="1010" y="-112.6" font-family="Helvetica,sans-Serif" font-size="8.00">new</text>
</a>
</g>
</g>
<!-- Node22&#45;&gt;Node25 -->
<g id="edge37_Node000022_Node000025" class="edge">
<title>Node22&#45;&gt;Node25</title>
<g id="a_edge37_Node000022_Node000025"><a xlink:title=" ">
<path fill="none" stroke="#63b8ff" d="M825.53,-158.93C863.55,-151.26 923.5,-138.64 984.17,-123.05"/>
<polygon fill="#63b8ff" stroke="#63b8ff" points="985.11,-126.42 993.91,-120.52 983.35,-119.64 985.11,-126.42"/>
</a>
</g>
</g>
<!-- Node26 -->
<g id="Node000026" class="node">
<title>Node26</title>
<g id="a_Node000026"><a xlink:title=" ">
<polygon fill="#e0e0e0" stroke="#999999" points="868,-123 834,-123 834,-106 868,-106 868,-123"/>
<text text-anchor="middle" x="851" y="-112.6" font-family="Helvetica,sans-Serif" font-size="8.00">utility</text>
</a>
</g>
</g>
<!-- Node22&#45;&gt;Node26 -->
<g id="edge38_Node000022_Node000026" class="edge">
<title>Node22&#45;&gt;Node26</title>
<g id="a_edge38_Node000022_Node000026"><a xlink:title=" ">
<path fill="none" stroke="#63b8ff" d="M796.44,-158.97C806.18,-151.22 821.59,-138.94 833.55,-129.41"/>
<polygon fill="#63b8ff" stroke="#63b8ff" points="835.88,-132.03 841.52,-123.06 831.52,-126.55 835.88,-132.03"/>
</a>
</g>
</g>
<!-- Node27&#45;&gt;Node2 -->
<g id="edge45_Node000027_Node000002" class="edge">
<title>Node27&#45;&gt;Node2</title>
<g id="a_edge45_Node000027_Node000002"><a xlink:title=" ">
<path fill="none" stroke="#63b8ff" d="M209.84,-164.2C175.59,-160.37 124.3,-150.17 89,-123 62.04,-102.25 35.22,-78.27 58,-53 83.81,-24.36 351.99,-13.36 444.68,-10.39"/>
<polygon fill="#63b8ff" stroke="#63b8ff" points="444.96,-13.89 454.84,-10.08 444.74,-6.89 444.96,-13.89"/>
</a>
</g>
</g>
<!-- Node27&#45;&gt;Node3 -->
<g id="edge48_Node000027_Node000003" class="edge">
<title>Node27&#45;&gt;Node3</title>
<g id="a_edge48_Node000027_Node000003"><a xlink:title=" ">
<path fill="none" stroke="#63b8ff" d="M282.13,-160.65C345.27,-150.43 474.42,-129.52 532.08,-120.18"/>
<polygon fill="#63b8ff" stroke="#63b8ff" points="532.67,-123.63 541.99,-118.58 531.56,-116.72 532.67,-123.63"/>
</a>
</g>
</g>
<!-- Node27&#45;&gt;Node7 -->
<g id="edge46_Node000027_Node000007" class="edge">
<title>Node27&#45;&gt;Node7</title>
<g id="a_edge46_Node000027_Node000007"><a xlink:title=" ">
<path fill="none" stroke="#63b8ff" d="M246.82,-158.95C248.63,-146.14 254.14,-120.13 270,-106 316.04,-64.98 344.51,-86.25 404,-70 404.1,-69.97 404.2,-69.95 404.3,-69.92"/>
<polygon fill="#63b8ff" stroke="#63b8ff" points="405.15,-73.31 413.87,-67.28 403.3,-66.56 405.15,-73.31"/>
</a>
</g>
</g>
<!-- Node27&#45;&gt;Node9 -->
<g id="edge47_Node000027_Node000009" class="edge">
<title>Node27&#45;&gt;Node9</title>
<g id="a_edge47_Node000027_Node000009"><a xlink:title=" ">
<path fill="none" stroke="#63b8ff" d="M209.89,-166.43C175.98,-164.24 126.6,-155.23 100,-123 90.33,-111.29 89.64,-93.64 90.88,-80.42"/>
<polygon fill="#63b8ff" stroke="#63b8ff" points="94.39,-80.59 92.3,-70.2 87.46,-79.63 94.39,-80.59"/>
</a>
</g>
</g>
<!-- Node27&#45;&gt;Node10 -->
<g id="edge49_Node000027_Node000010" class="edge">
<title>Node27&#45;&gt;Node10</title>
<g id="a_edge49_Node000027_Node000010"><a xlink:title=" ">
<path fill="none" stroke="#63b8ff" d="M236.26,-158.97C226.22,-151.22 210.33,-138.94 198,-129.41"/>
<polygon fill="#63b8ff" stroke="#63b8ff" points="199.83,-126.4 189.78,-123.06 195.55,-131.94 199.83,-126.4"/>
</a>
</g>
</g>
<!-- Node27&#45;&gt;Node14 -->
<g id="edge50_Node000027_Node000014" class="edge">
<title>Node27&#45;&gt;Node14</title>
<g id="a_edge50_Node000027_Node000014"><a xlink:title=" ">
<path fill="none" stroke="#63b8ff" d="M250.53,-158.96C258.97,-145.67 278.5,-118.31 303,-106 358.06,-78.34 534.87,-67.83 624.24,-64.21"/>
<polygon fill="#63b8ff" stroke="#63b8ff" points="624.57,-67.7 634.43,-63.81 624.3,-60.7 624.57,-67.7"/>
</a>
</g>
</g>
</g>
</svg>
