<?xml version="1.0" encoding="UTF-8" standalone="no"?>
<!DOCTYPE svg PUBLIC "-//W3C//DTD SVG 1.1//EN"
 "http://www.w3.org/Graphics/SVG/1.1/DTD/svg11.dtd">
<!-- Generated by graphviz version 2.43.0 (0)
 -->
<!-- Title: gbfs.hpp Pages: 1 -->
<svg width="1194pt" height="290pt"
 viewBox="0.00 0.00 1194.00 290.00" xmlns="http://www.w3.org/2000/svg" xmlns:xlink="http://www.w3.org/1999/xlink">
<g id="graph0" class="graph" transform="scale(1 1) rotate(0) translate(4 286)">
<title>gbfs.hpp</title>
<!-- Node1 -->
<g id="Node000001" class="node">
<title>Node1</title>
<g id="a_Node000001"><a xlink:title=" ">
<polygon fill="#999999" stroke="#666666" points="377.5,-282 330.5,-282 330.5,-265 377.5,-265 377.5,-282"/>
<text text-anchor="middle" x="354" y="-271.6" font-family="Helvetica,sans-Serif" font-size="8.00">gbfs.hpp</text>
</a>
</g>
</g>
<!-- Node2 -->
<g id="Node000002" class="node">
<title>Node2</title>
<g id="a_Node000002"><a xlink:title=" ">
<polygon fill="#e0e0e0" stroke="#999999" points="491,-17 449,-17 449,0 491,0 491,-17"/>
<text text-anchor="middle" x="470" y="-6.6" font-family="Helvetica,sans-Serif" font-size="8.00">cstddef</text>
</a>
</g>
</g>
<!-- Node1&#45;&gt;Node2 -->
<g id="edge1_Node000001_Node000002" class="edge">
<title>Node1&#45;&gt;Node2</title>
<g id="a_edge1_Node000001_Node000002"><a xlink:title=" ">
<path fill="none" stroke="#63b8ff" d="M330.5,-270.72C251.43,-264.1 0,-237.6 0,-168.5 0,-168.5 0,-168.5 0,-113.5 0,-79.99 15.86,-69.55 45,-53 112.26,-14.79 352.05,-9.97 438.58,-9.49"/>
<polygon fill="#63b8ff" stroke="#63b8ff" points="438.83,-12.99 448.81,-9.45 438.8,-5.99 438.83,-12.99"/>
</a>
</g>
</g>
<!-- Node3 -->
<g id="Node000003" class="node">
<title>Node3</title>
<g id="a_Node000003"><a xlink:title=" ">
<polygon fill="#e0e0e0" stroke="#999999" points="180,-123 142,-123 142,-106 180,-106 180,-123"/>
<text text-anchor="middle" x="161" y="-112.6" font-family="Helvetica,sans-Serif" font-size="8.00">vector</text>
</a>
</g>
</g>
<!-- Node1&#45;&gt;Node3 -->
<g id="edge2_Node000001_Node000003" class="edge">
<title>Node1&#45;&gt;Node3</title>
<g id="a_edge2_Node000001_Node000003"><a xlink:title=" ">
<path fill="none" stroke="#63b8ff" d="M344.69,-264.93C314.39,-240.28 218.22,-162.05 178.46,-129.71"/>
<polygon fill="#63b8ff" stroke="#63b8ff" points="180.64,-126.96 170.67,-123.37 176.22,-132.39 180.64,-126.96"/>
</a>
</g>
</g>
<!-- Node4 -->
<g id="Node000004" class="node">
<title>Node4</title>
<g id="a_Node000004"><a xlink:href="../../d8/d62/existence__set_8hpp.html" target="_top" xlink:title=" ">
<polygon fill="white" stroke="#666666" points="478.5,-176 331.5,-176 331.5,-159 478.5,-159 478.5,-176"/>
<text text-anchor="middle" x="405" y="-165.6" font-family="Helvetica,sans-Serif" font-size="8.00">../types/containers/existence_set.hpp</text>
</a>
</g>
</g>
<!-- Node1&#45;&gt;Node4 -->
<g id="edge3_Node000001_Node000004" class="edge">
<title>Node1&#45;&gt;Node4</title>
<g id="a_edge3_Node000001_Node000004"><a xlink:title=" ">
<path fill="none" stroke="#63b8ff" d="M357.83,-264.68C366.07,-247.89 385.61,-208.04 396.79,-185.25"/>
<polygon fill="#63b8ff" stroke="#63b8ff" points="400,-186.64 401.26,-176.12 393.72,-183.56 400,-186.64"/>
</a>
</g>
</g>
<!-- Node10 -->
<g id="Node000010" class="node">
<title>Node10</title>
<g id="a_Node000010"><a xlink:href="../../df/d93/utils_8hpp.html" target="_top" xlink:title=" ">
<polygon fill="white" stroke="#666666" points="349.5,-123 274.5,-123 274.5,-106 349.5,-106 349.5,-123"/>
<text text-anchor="middle" x="312" y="-112.6" font-family="Helvetica,sans-Serif" font-size="8.00">../../utils/utils.hpp</text>
</a>
</g>
</g>
<!-- Node1&#45;&gt;Node10 -->
<g id="edge27_Node000001_Node000010" class="edge">
<title>Node1&#45;&gt;Node10</title>
<g id="a_edge27_Node000001_Node000010"><a xlink:title=" ">
<path fill="none" stroke="#63b8ff" d="M350.92,-264.62C344.64,-248.31 330.29,-209.59 322,-176 318.48,-161.74 315.85,-145.29 314.17,-133.14"/>
<polygon fill="#63b8ff" stroke="#63b8ff" points="317.62,-132.49 312.86,-123.03 310.68,-133.4 317.62,-132.49"/>
</a>
</g>
</g>
<!-- Node14 -->
<g id="Node000014" class="node">
<title>Node14</title>
<g id="a_Node000014"><a xlink:href="../../d7/d65/intrinsics_8hpp.html" target="_top" xlink:title=" ">
<polygon fill="#fff0f0" stroke="red" points="631.5,-70 546.5,-70 546.5,-53 631.5,-53 631.5,-70"/>
<text text-anchor="middle" x="589" y="-59.6" font-family="Helvetica,sans-Serif" font-size="8.00">../utils/intrinsics.hpp</text>
</a>
</g>
</g>
<!-- Node1&#45;&gt;Node14 -->
<g id="edge49_Node000001_Node000014" class="edge">
<title>Node1&#45;&gt;Node14</title>
<g id="a_edge49_Node000001_Node000014"><a xlink:title=" ">
<path fill="none" stroke="#63b8ff" d="M377.61,-270.29C438.63,-263.78 605.21,-240.87 726,-176 757.05,-159.32 770.64,-155.19 785,-123 788.08,-116.1 789.73,-111.89 785,-106 767.36,-84.02 693.79,-72.45 641.99,-66.91"/>
<polygon fill="#63b8ff" stroke="#63b8ff" points="642.25,-63.42 631.95,-65.88 641.54,-70.38 642.25,-63.42"/>
</a>
</g>
</g>
<!-- Node17 -->
<g id="Node000017" class="node">
<title>Node17</title>
<g id="a_Node000017"><a xlink:href="../../d7/ded/queue_8hpp.html" target="_top" xlink:title=" ">
<polygon fill="white" stroke="#666666" points="717,-176 595,-176 595,-159 717,-159 717,-176"/>
<text text-anchor="middle" x="656" y="-165.6" font-family="Helvetica,sans-Serif" font-size="8.00">../types/containers/queue.hpp</text>
</a>
</g>
</g>
<!-- Node1&#45;&gt;Node17 -->
<g id="edge22_Node000001_Node000017" class="edge">
<title>Node1&#45;&gt;Node17</title>
<g id="a_edge22_Node000001_Node000017"><a xlink:title=" ">
<path fill="none" stroke="#63b8ff" d="M376.21,-264.85C429.24,-246.59 563.4,-200.39 624.64,-179.3"/>
<polygon fill="#63b8ff" stroke="#63b8ff" points="625.85,-182.58 634.17,-176.02 623.57,-175.97 625.85,-182.58"/>
</a>
</g>
</g>
<!-- Node19 -->
<g id="Node000019" class="node">
<title>Node19</title>
<g id="a_Node000019"><a xlink:href="../../da/deb/managed__node_8hpp.html" target="_top" xlink:title=" ">
<polygon fill="white" stroke="#666666" points="1041,-229 933,-229 933,-212 1041,-212 1041,-229"/>
<text text-anchor="middle" x="987" y="-218.6" font-family="Helvetica,sans-Serif" font-size="8.00">base/managed_node.hpp</text>
</a>
</g>
</g>
<!-- Node1&#45;&gt;Node19 -->
<g id="edge28_Node000001_Node000019" class="edge">
<title>Node1&#45;&gt;Node19</title>
<g id="a_edge28_Node000001_Node000019"><a xlink:title=" ">
<path fill="none" stroke="#63b8ff" d="M377.66,-270.59C466.89,-263.4 784.92,-237.78 922.65,-226.68"/>
<polygon fill="#63b8ff" stroke="#63b8ff" points="922.95,-230.17 932.64,-225.88 922.39,-223.19 922.95,-230.17"/>
</a>
</g>
</g>
<!-- Node26 -->
<g id="Node000026" class="node">
<title>Node26</title>
<g id="a_Node000026"><a xlink:href="../../d2/d1c/solver_8hpp.html" target="_top" xlink:title=" ">
<polygon fill="white" stroke="#666666" points="197,-176 125,-176 125,-159 197,-159 197,-176"/>
<text text-anchor="middle" x="161" y="-165.6" font-family="Helvetica,sans-Serif" font-size="8.00">base/solver.hpp</text>
</a>
</g>
</g>
<!-- Node1&#45;&gt;Node26 -->
<g id="edge42_Node000001_Node000026" class="edge">
<title>Node1&#45;&gt;Node26</title>
<g id="a_edge42_Node000001_Node000026"><a xlink:title=" ">
<path fill="none" stroke="#63b8ff" d="M330.43,-266.83C305.02,-260.12 263.93,-247.46 232,-229 210.4,-216.52 189.09,-197.15 175.54,-183.71"/>
<polygon fill="#63b8ff" stroke="#63b8ff" points="177.68,-180.89 168.17,-176.22 172.69,-185.8 177.68,-180.89"/>
</a>
</g>
</g>
<!-- Node4&#45;&gt;Node2 -->
<g id="edge4_Node000004_Node000002" class="edge">
<title>Node4&#45;&gt;Node2</title>
<g id="a_edge4_Node000004_Node000002"><a xlink:title=" ">
<path fill="none" stroke="#63b8ff" d="M408.74,-158.81C412.95,-150.12 420,-135.56 426,-123 437.22,-99.49 441.52,-94.26 451,-70 456.58,-55.71 461.72,-39.05 465.24,-26.84"/>
<polygon fill="#63b8ff" stroke="#63b8ff" points="468.65,-27.64 467.98,-17.06 461.91,-25.75 468.65,-27.64"/>
</a>
</g>
</g>
<!-- Node4&#45;&gt;Node3 -->
<g id="edge10_Node000004_Node000003" class="edge">
<title>Node4&#45;&gt;Node3</title>
<g id="a_edge10_Node000004_Node000003"><a xlink:title=" ">
<path fill="none" stroke="#63b8ff" d="M367.22,-158.95C324.96,-150.45 254.5,-136.11 194,-123 192.74,-122.73 191.45,-122.45 190.16,-122.16"/>
<polygon fill="#63b8ff" stroke="#63b8ff" points="190.7,-118.7 180.18,-119.93 189.17,-125.53 190.7,-118.7"/>
</a>
</g>
</g>
<!-- Node5 -->
<g id="Node000005" class="node">
<title>Node5</title>
<g id="a_Node000005"><a xlink:title=" ">
<polygon fill="#e0e0e0" stroke="#999999" points="442,-70 392,-70 392,-53 442,-53 442,-70"/>
<text text-anchor="middle" x="417" y="-59.6" font-family="Helvetica,sans-Serif" font-size="8.00">functional</text>
</a>
</g>
</g>
<!-- Node4&#45;&gt;Node5 -->
<g id="edge5_Node000004_Node000005" class="edge">
<title>Node4&#45;&gt;Node5</title>
<g id="a_edge5_Node000004_Node000005"><a xlink:title=" ">
<path fill="none" stroke="#63b8ff" d="M405.9,-158.68C407.81,-142.11 412.31,-103.11 414.96,-80.18"/>
<polygon fill="#63b8ff" stroke="#63b8ff" points="418.45,-80.46 416.12,-70.12 411.5,-79.66 418.45,-80.46"/>
</a>
</g>
</g>
<!-- Node6 -->
<g id="Node000006" class="node">
<title>Node6</title>
<g id="a_Node000006"><a xlink:title=" ">
<polygon fill="#e0e0e0" stroke="#999999" points="542,-123 482,-123 482,-106 542,-106 542,-123"/>
<text text-anchor="middle" x="512" y="-112.6" font-family="Helvetica,sans-Serif" font-size="8.00">initializer_list</text>
</a>
</g>
</g>
<!-- Node4&#45;&gt;Node6 -->
<g id="edge6_Node000004_Node000006" class="edge">
<title>Node4&#45;&gt;Node6</title>
<g id="a_edge6_Node000004_Node000006"><a xlink:title=" ">
<path fill="none" stroke="#63b8ff" d="M420.79,-158.97C438.25,-150.65 466.63,-137.13 487.09,-127.37"/>
<polygon fill="#63b8ff" stroke="#63b8ff" points="488.63,-130.52 496.15,-123.06 485.61,-124.2 488.63,-130.52"/>
</a>
</g>
</g>
<!-- Node7 -->
<g id="Node000007" class="node">
<title>Node7</title>
<g id="a_Node000007"><a xlink:title=" ">
<polygon fill="#e0e0e0" stroke="#999999" points="172,-70 138,-70 138,-53 172,-53 172,-70"/>
<text text-anchor="middle" x="155" y="-59.6" font-family="Helvetica,sans-Serif" font-size="8.00">limits</text>
</a>
</g>
</g>
<!-- Node4&#45;&gt;Node7 -->
<g id="edge7_Node000004_Node000007" class="edge">
<title>Node4&#45;&gt;Node7</title>
<g id="a_edge7_Node000004_Node000007"><a xlink:title=" ">
<path fill="none" stroke="#63b8ff" d="M374.6,-158.96C345.82,-151.37 301.66,-138.59 265,-123 232.5,-109.18 197.08,-88.62 175.45,-75.39"/>
<polygon fill="#63b8ff" stroke="#63b8ff" points="177.15,-72.32 166.81,-70.04 173.47,-78.28 177.15,-72.32"/>
</a>
</g>
</g>
<!-- Node8 -->
<g id="Node000008" class="node">
<title>Node8</title>
<g id="a_Node000008"><a xlink:title=" ">
<polygon fill="#e0e0e0" stroke="#999999" points="776,-123 694,-123 694,-106 776,-106 776,-123"/>
<text text-anchor="middle" x="735" y="-112.6" font-family="Helvetica,sans-Serif" font-size="8.00">memory_resource</text>
</a>
</g>
</g>
<!-- Node4&#45;&gt;Node8 -->
<g id="edge8_Node000004_Node000008" class="edge">
<title>Node4&#45;&gt;Node8</title>
<g id="a_edge8_Node000004_Node000008"><a xlink:title=" ">
<path fill="none" stroke="#63b8ff" d="M453.69,-158.97C515.34,-149.45 621.07,-133.11 683.86,-123.4"/>
<polygon fill="#63b8ff" stroke="#63b8ff" points="684.58,-126.83 693.93,-121.85 683.51,-119.92 684.58,-126.83"/>
</a>
</g>
</g>
<!-- Node9 -->
<g id="Node000009" class="node">
<title>Node9</title>
<g id="a_Node000009"><a xlink:title=" ">
<polygon fill="#e0e0e0" stroke="#999999" points="119.5,-70 66.5,-70 66.5,-53 119.5,-53 119.5,-70"/>
<text text-anchor="middle" x="93" y="-59.6" font-family="Helvetica,sans-Serif" font-size="8.00">type_traits</text>
</a>
</g>
</g>
<!-- Node4&#45;&gt;Node9 -->
<g id="edge9_Node000004_Node000009" class="edge">
<title>Node4&#45;&gt;Node9</title>
<g id="a_edge9_Node000004_Node000009"><a xlink:title=" ">
<path fill="none" stroke="#63b8ff" d="M365.16,-158.96C328.68,-151.54 273.47,-139.01 227,-123 225.62,-122.53 157.98,-91.92 119.34,-74.43"/>
<polygon fill="#63b8ff" stroke="#63b8ff" points="120.3,-71.02 109.75,-70.09 117.41,-77.4 120.3,-71.02"/>
</a>
</g>
</g>
<!-- Node4&#45;&gt;Node10 -->
<g id="edge11_Node000004_Node000010" class="edge">
<title>Node4&#45;&gt;Node10</title>
<g id="a_edge11_Node000004_Node000010"><a xlink:title=" ">
<path fill="none" stroke="#63b8ff" d="M391.28,-158.97C376.44,-150.84 352.55,-137.74 334.87,-128.04"/>
<polygon fill="#63b8ff" stroke="#63b8ff" points="336.23,-124.8 325.78,-123.06 332.86,-130.93 336.23,-124.8"/>
</a>
</g>
</g>
<!-- Node4&#45;&gt;Node14 -->
<g id="edge21_Node000004_Node000014" class="edge">
<title>Node4&#45;&gt;Node14</title>
<g id="a_edge21_Node000004_Node000014"><a xlink:title=" ">
<path fill="none" stroke="#63b8ff" d="M463.44,-158.97C492.07,-152.96 525.73,-142.2 551,-123 565.8,-111.76 576.29,-92.95 582.45,-79.29"/>
<polygon fill="#63b8ff" stroke="#63b8ff" points="585.68,-80.63 586.31,-70.05 579.22,-77.93 585.68,-80.63"/>
</a>
</g>
</g>
<!-- Node10&#45;&gt;Node2 -->
<g id="edge14_Node000010_Node000002" class="edge">
<title>Node10&#45;&gt;Node2</title>
<g id="a_edge14_Node000010_Node000002"><a xlink:title=" ">
<path fill="none" stroke="#63b8ff" d="M319.79,-105.74C332.34,-93.51 358.15,-69.45 383,-53 401.89,-40.5 424.88,-29.15 442.47,-21.18"/>
<polygon fill="#63b8ff" stroke="#63b8ff" points="443.92,-24.37 451.64,-17.12 441.08,-17.98 443.92,-24.37"/>
</a>
</g>
</g>
<!-- Node10&#45;&gt;Node5 -->
<g id="edge15_Node000010_Node000005" class="edge">
<title>Node10&#45;&gt;Node5</title>
<g id="a_edge15_Node000010_Node000005"><a xlink:title=" ">
<path fill="none" stroke="#63b8ff" d="M327.49,-105.97C344.55,-97.69 372.22,-84.25 392.28,-74.5"/>
<polygon fill="#63b8ff" stroke="#63b8ff" points="393.98,-77.57 401.44,-70.06 390.92,-71.28 393.98,-77.57"/>
</a>
</g>
</g>
<!-- Node10&#45;&gt;Node7 -->
<g id="edge16_Node000010_Node000007" class="edge">
<title>Node10&#45;&gt;Node7</title>
<g id="a_edge16_Node000010_Node000007"><a xlink:title=" ">
<path fill="none" stroke="#63b8ff" d="M288.83,-105.97C260.45,-96.75 212.43,-81.16 182.28,-71.36"/>
<polygon fill="#63b8ff" stroke="#63b8ff" points="183.02,-67.92 172.43,-68.16 180.86,-74.58 183.02,-67.92"/>
</a>
</g>
</g>
<!-- Node10&#45;&gt;Node9 -->
<g id="edge18_Node000010_Node000009" class="edge">
<title>Node10&#45;&gt;Node9</title>
<g id="a_edge18_Node000010_Node000009"><a xlink:title=" ">
<path fill="none" stroke="#63b8ff" d="M279.69,-105.97C239.57,-96.63 171.32,-80.74 129.39,-70.98"/>
<polygon fill="#63b8ff" stroke="#63b8ff" points="130.12,-67.55 119.59,-68.69 128.54,-74.37 130.12,-67.55"/>
</a>
</g>
</g>
<!-- Node11 -->
<g id="Node000011" class="node">
<title>Node11</title>
<g id="a_Node000011"><a xlink:title=" ">
<polygon fill="#e0e0e0" stroke="#999999" points="335.5,-70 300.5,-70 300.5,-53 335.5,-53 335.5,-70"/>
<text text-anchor="middle" x="318" y="-59.6" font-family="Helvetica,sans-Serif" font-size="8.00">array</text>
</a>
</g>
</g>
<!-- Node10&#45;&gt;Node11 -->
<g id="edge12_Node000010_Node000011" class="edge">
<title>Node10&#45;&gt;Node11</title>
<g id="a_edge12_Node000010_Node000011"><a xlink:title=" ">
<path fill="none" stroke="#63b8ff" d="M312.89,-105.97C313.68,-99.19 314.89,-88.97 315.93,-80.13"/>
<polygon fill="#63b8ff" stroke="#63b8ff" points="319.42,-80.4 317.11,-70.06 312.47,-79.58 319.42,-80.4"/>
</a>
</g>
</g>
<!-- Node12 -->
<g id="Node000012" class="node">
<title>Node12</title>
<g id="a_Node000012"><a xlink:title=" ">
<polygon fill="#e0e0e0" stroke="#999999" points="228,-70 190,-70 190,-53 228,-53 228,-70"/>
<text text-anchor="middle" x="209" y="-59.6" font-family="Helvetica,sans-Serif" font-size="8.00">cmath</text>
</a>
</g>
</g>
<!-- Node10&#45;&gt;Node12 -->
<g id="edge13_Node000010_Node000012" class="edge">
<title>Node10&#45;&gt;Node12</title>
<g id="a_edge13_Node000010_Node000012"><a xlink:title=" ">
<path fill="none" stroke="#63b8ff" d="M296.8,-105.97C280.07,-97.69 252.93,-84.25 233.24,-74.5"/>
<polygon fill="#63b8ff" stroke="#63b8ff" points="234.78,-71.36 224.26,-70.06 231.67,-77.63 234.78,-71.36"/>
</a>
</g>
</g>
<!-- Node13 -->
<g id="Node000013" class="node">
<title>Node13</title>
<g id="a_Node000013"><a xlink:title=" ">
<polygon fill="#e0e0e0" stroke="#999999" points="282,-70 246,-70 246,-53 282,-53 282,-70"/>
<text text-anchor="middle" x="264" y="-59.6" font-family="Helvetica,sans-Serif" font-size="8.00">string</text>
</a>
</g>
</g>
<!-- Node10&#45;&gt;Node13 -->
<g id="edge17_Node000010_Node000013" class="edge">
<title>Node10&#45;&gt;Node13</title>
<g id="a_edge17_Node000010_Node000013"><a xlink:title=" ">
<path fill="none" stroke="#63b8ff" d="M304.92,-105.97C297.9,-98.52 286.95,-86.89 278.15,-77.53"/>
<polygon fill="#63b8ff" stroke="#63b8ff" points="280.51,-74.94 271.11,-70.06 275.42,-79.74 280.51,-74.94"/>
</a>
</g>
</g>
<!-- Node10&#45;&gt;Node14 -->
<g id="edge19_Node000010_Node000014" class="edge">
<title>Node10&#45;&gt;Node14</title>
<g id="a_edge19_Node000010_Node000014"><a xlink:title=" ">
<path fill="none" stroke="#63b8ff" d="M349.65,-106.57C398.28,-97.61 483.17,-81.99 537.68,-71.95"/>
<polygon fill="#63b8ff" stroke="#63b8ff" points="538.62,-75.33 547.83,-70.08 537.36,-68.45 538.62,-75.33"/>
</a>
</g>
</g>
<!-- Node14&#45;&gt;Node2 -->
<g id="edge20_Node000014_Node000002" class="edge">
<title>Node14&#45;&gt;Node2</title>
<g id="a_edge20_Node000014_Node000002"><a xlink:title=" ">
<path fill="none" stroke="#63b8ff" d="M571.44,-52.97C551.84,-44.58 519.89,-30.88 497.09,-21.11"/>
<polygon fill="#63b8ff" stroke="#63b8ff" points="498.2,-17.78 487.63,-17.06 495.44,-24.21 498.2,-17.78"/>
</a>
</g>
</g>
<!-- Node17&#45;&gt;Node2 -->
<g id="edge23_Node000017_Node000002" class="edge">
<title>Node17&#45;&gt;Node2</title>
<g id="a_edge23_Node000017_Node000002"><a xlink:title=" ">
<path fill="none" stroke="#63b8ff" d="M717.12,-159.24C759.87,-151.45 805.87,-135.93 785,-106 751.86,-58.49 573.99,-25.75 501.14,-14.15"/>
<polygon fill="#63b8ff" stroke="#63b8ff" points="501.6,-10.68 491.18,-12.59 500.52,-17.6 501.6,-10.68"/>
</a>
</g>
</g>
<!-- Node17&#45;&gt;Node8 -->
<g id="edge25_Node000017_Node000008" class="edge">
<title>Node17&#45;&gt;Node8</title>
<g id="a_edge25_Node000017_Node000008"><a xlink:title=" ">
<path fill="none" stroke="#63b8ff" d="M667.66,-158.97C680.03,-150.99 699.81,-138.22 714.74,-128.58"/>
<polygon fill="#63b8ff" stroke="#63b8ff" points="716.79,-131.42 723.3,-123.06 713,-125.54 716.79,-131.42"/>
</a>
</g>
</g>
<!-- Node17&#45;&gt;Node14 -->
<g id="edge26_Node000017_Node000014" class="edge">
<title>Node17&#45;&gt;Node14</title>
<g id="a_edge26_Node000017_Node000014"><a xlink:title=" ">
<path fill="none" stroke="#63b8ff" d="M650.96,-158.68C640.05,-141.74 614.01,-101.32 599.4,-78.64"/>
<polygon fill="#63b8ff" stroke="#63b8ff" points="602.27,-76.64 593.91,-70.12 596.39,-80.43 602.27,-76.64"/>
</a>
</g>
</g>
<!-- Node18 -->
<g id="Node000018" class="node">
<title>Node18</title>
<g id="a_Node000018"><a xlink:title=" ">
<polygon fill="#e0e0e0" stroke="#999999" points="675.5,-123 636.5,-123 636.5,-106 675.5,-106 675.5,-123"/>
<text text-anchor="middle" x="656" y="-112.6" font-family="Helvetica,sans-Serif" font-size="8.00">deque</text>
</a>
</g>
</g>
<!-- Node17&#45;&gt;Node18 -->
<g id="edge24_Node000017_Node000018" class="edge">
<title>Node17&#45;&gt;Node18</title>
<g id="a_edge24_Node000017_Node000018"><a xlink:title=" ">
<path fill="none" stroke="#63b8ff" d="M656,-158.97C656,-152.19 656,-141.97 656,-133.13"/>
<polygon fill="#63b8ff" stroke="#63b8ff" points="659.5,-133.06 656,-123.06 652.5,-133.06 659.5,-133.06"/>
</a>
</g>
</g>
<!-- Node19&#45;&gt;Node14 -->
<g id="edge41_Node000019_Node000014" class="edge">
<title>Node19&#45;&gt;Node14</title>
<g id="a_edge41_Node000019_Node000014"><a xlink:title=" ">
<path fill="none" stroke="#63b8ff" d="M968.63,-211.88C950.52,-204.02 922.38,-190.83 900,-176 860.05,-149.53 861.21,-126.72 818,-106 761.57,-78.94 689.75,-68.7 641.72,-64.83"/>
<polygon fill="#63b8ff" stroke="#63b8ff" points="641.78,-61.33 631.55,-64.08 641.26,-68.31 641.78,-61.33"/>
</a>
</g>
</g>
<!-- Node20 -->
<g id="Node000020" class="node">
<title>Node20</title>
<g id="a_Node000020"><a xlink:title=" ">
<polygon fill="#e0e0e0" stroke="#999999" points="1186,-123 1144,-123 1144,-106 1186,-106 1186,-123"/>
<text text-anchor="middle" x="1165" y="-112.6" font-family="Helvetica,sans-Serif" font-size="8.00">cassert</text>
</a>
</g>
</g>
<!-- Node19&#45;&gt;Node20 -->
<g id="edge29_Node000019_Node000020" class="edge">
<title>Node19&#45;&gt;Node20</title>
<g id="a_edge29_Node000019_Node000020"><a xlink:title=" ">
<path fill="none" stroke="#63b8ff" d="M1003.89,-211.97C1021.86,-203.76 1050.97,-189.93 1075,-176 1100.52,-161.2 1128.52,-141.85 1146.4,-129.07"/>
<polygon fill="#63b8ff" stroke="#63b8ff" points="1148.69,-131.73 1154.76,-123.04 1144.6,-126.05 1148.69,-131.73"/>
</a>
</g>
</g>
<!-- Node21 -->
<g id="Node000021" class="node">
<title>Node21</title>
<g id="a_Node000021"><a xlink:href="../../dc/d3c/bnode_8hpp.html" target="_top" xlink:title=" ">
<polygon fill="white" stroke="#666666" points="1177.5,-176 1122.5,-176 1122.5,-159 1177.5,-159 1177.5,-176"/>
<text text-anchor="middle" x="1150" y="-165.6" font-family="Helvetica,sans-Serif" font-size="8.00">bnode.hpp</text>
</a>
</g>
</g>
<!-- Node19&#45;&gt;Node21 -->
<g id="edge30_Node000019_Node000021" class="edge">
<title>Node19&#45;&gt;Node21</title>
<g id="a_edge30_Node000019_Node000021"><a xlink:title=" ">
<path fill="none" stroke="#63b8ff" d="M1011.05,-211.97C1038.86,-203.27 1084.82,-188.89 1116.21,-179.07"/>
<polygon fill="#63b8ff" stroke="#63b8ff" points="1117.35,-182.38 1125.85,-176.06 1115.26,-175.7 1117.35,-182.38"/>
</a>
</g>
</g>
<!-- Node22 -->
<g id="Node000022" class="node">
<title>Node22</title>
<g id="a_Node000022"><a xlink:href="../../d9/df8/heterogeneous__pool_8hpp.html" target="_top" xlink:title=" ">
<polygon fill="white" stroke="#666666" points="1065.5,-176 908.5,-176 908.5,-159 1065.5,-159 1065.5,-176"/>
<text text-anchor="middle" x="987" y="-165.6" font-family="Helvetica,sans-Serif" font-size="8.00">../../types/pmr/heterogeneous_pool.hpp</text>
</a>
</g>
</g>
<!-- Node19&#45;&gt;Node22 -->
<g id="edge31_Node000019_Node000022" class="edge">
<title>Node19&#45;&gt;Node22</title>
<g id="a_edge31_Node000019_Node000022"><a xlink:title=" ">
<path fill="none" stroke="#63b8ff" d="M987,-211.97C987,-205.19 987,-194.97 987,-186.13"/>
<polygon fill="#63b8ff" stroke="#63b8ff" points="990.5,-186.06 987,-176.06 983.5,-186.06 990.5,-186.06"/>
</a>
</g>
</g>
<!-- Node22&#45;&gt;Node2 -->
<g id="edge33_Node000022_Node000002" class="edge">
<title>Node22&#45;&gt;Node2</title>
<g id="a_edge33_Node000022_Node000002"><a xlink:title=" ">
<path fill="none" stroke="#63b8ff" d="M1029.53,-158.94C1069.52,-150.01 1120.06,-132.88 1097,-106 1018.67,-14.7 617.46,-8.95 501.45,-9.23"/>
<polygon fill="#63b8ff" stroke="#63b8ff" points="501.12,-5.73 491.14,-9.27 501.15,-12.73 501.12,-5.73"/>
</a>
</g>
</g>
<!-- Node22&#45;&gt;Node3 -->
<g id="edge37_Node000022_Node000003" class="edge">
<title>Node22&#45;&gt;Node3</title>
<g id="a_edge37_Node000022_Node000003"><a xlink:title=" ">
<path fill="none" stroke="#63b8ff" d="M908.46,-162.07C775.82,-154.53 499,-138.49 265,-123 239.77,-121.33 211.12,-119.25 190.29,-117.7"/>
<polygon fill="#63b8ff" stroke="#63b8ff" points="190.4,-114.2 180.16,-116.95 189.88,-121.18 190.4,-114.2"/>
</a>
</g>
</g>
<!-- Node22&#45;&gt;Node8 -->
<g id="edge38_Node000022_Node000008" class="edge">
<title>Node22&#45;&gt;Node8</title>
<g id="a_edge38_Node000022_Node000008"><a xlink:title=" ">
<path fill="none" stroke="#63b8ff" d="M949.82,-158.97C905.34,-149.97 830.81,-134.89 782.28,-125.07"/>
<polygon fill="#63b8ff" stroke="#63b8ff" points="782.83,-121.61 772.34,-123.06 781.44,-128.47 782.83,-121.61"/>
</a>
</g>
</g>
<!-- Node22&#45;&gt;Node10 -->
<g id="edge40_Node000022_Node000010" class="edge">
<title>Node22&#45;&gt;Node10</title>
<g id="a_edge40_Node000022_Node000010"><a xlink:title=" ">
<path fill="none" stroke="#63b8ff" d="M908.25,-160.55C767.11,-149.89 475.11,-127.82 360.08,-119.13"/>
<polygon fill="#63b8ff" stroke="#63b8ff" points="360.06,-115.62 349.83,-118.36 359.54,-122.6 360.06,-115.62"/>
</a>
</g>
</g>
<!-- Node22&#45;&gt;Node14 -->
<g id="edge39_Node000022_Node000014" class="edge">
<title>Node22&#45;&gt;Node14</title>
<g id="a_edge39_Node000022_Node000014"><a xlink:title=" ">
<path fill="none" stroke="#63b8ff" d="M977.98,-158.66C962.17,-145.39 927.9,-118.73 894,-106 809.63,-74.32 704.18,-65.5 641.96,-63.17"/>
<polygon fill="#63b8ff" stroke="#63b8ff" points="641.72,-59.66 631.61,-62.83 641.49,-66.65 641.72,-59.66"/>
</a>
</g>
</g>
<!-- Node22&#45;&gt;Node20 -->
<g id="edge32_Node000022_Node000020" class="edge">
<title>Node22&#45;&gt;Node20</title>
<g id="a_edge32_Node000022_Node000020"><a xlink:title=" ">
<path fill="none" stroke="#63b8ff" d="M1013.26,-158.97C1045.43,-149.76 1099.83,-134.17 1134.01,-124.38"/>
<polygon fill="#63b8ff" stroke="#63b8ff" points="1135.27,-127.66 1143.92,-121.54 1133.35,-120.93 1135.27,-127.66"/>
</a>
</g>
</g>
<!-- Node23 -->
<g id="Node000023" class="node">
<title>Node23</title>
<g id="a_Node000023"><a xlink:title=" ">
<polygon fill="#e0e0e0" stroke="#999999" points="1087.5,-123 1048.5,-123 1048.5,-106 1087.5,-106 1087.5,-123"/>
<text text-anchor="middle" x="1068" y="-112.6" font-family="Helvetica,sans-Serif" font-size="8.00">cstdint</text>
</a>
</g>
</g>
<!-- Node22&#45;&gt;Node23 -->
<g id="edge34_Node000022_Node000023" class="edge">
<title>Node22&#45;&gt;Node23</title>
<g id="a_edge34_Node000022_Node000023"><a xlink:title=" ">
<path fill="none" stroke="#63b8ff" d="M998.95,-158.97C1011.63,-150.99 1031.92,-138.22 1047.22,-128.58"/>
<polygon fill="#63b8ff" stroke="#63b8ff" points="1049.4,-131.35 1056,-123.06 1045.67,-125.42 1049.4,-131.35"/>
</a>
</g>
</g>
<!-- Node24 -->
<g id="Node000024" class="node">
<title>Node24</title>
<g id="a_Node000024"><a xlink:title=" ">
<polygon fill="#e0e0e0" stroke="#999999" points="978,-123 946,-123 946,-106 978,-106 978,-123"/>
<text text-anchor="middle" x="962" y="-112.6" font-family="Helvetica,sans-Serif" font-size="8.00">map</text>
</a>
</g>
</g>
<!-- Node22&#45;&gt;Node24 -->
<g id="edge35_Node000022_Node000024" class="edge">
<title>Node22&#45;&gt;Node24</title>
<g id="a_edge35_Node000022_Node000024"><a xlink:title=" ">
<path fill="none" stroke="#63b8ff" d="M983.31,-158.97C979.88,-151.97 974.64,-141.28 970.21,-132.25"/>
<polygon fill="#63b8ff" stroke="#63b8ff" points="973.25,-130.49 965.7,-123.06 966.96,-133.58 973.25,-130.49"/>
</a>
</g>
</g>
<!-- Node25 -->
<g id="Node000025" class="node">
<title>Node25</title>
<g id="a_Node000025"><a xlink:title=" ">
<polygon fill="#e0e0e0" stroke="#999999" points="1030,-123 996,-123 996,-106 1030,-106 1030,-123"/>
<text text-anchor="middle" x="1013" y="-112.6" font-family="Helvetica,sans-Serif" font-size="8.00">utility</text>
</a>
</g>
</g>
<!-- Node22&#45;&gt;Node25 -->
<g id="edge36_Node000022_Node000025" class="edge">
<title>Node22&#45;&gt;Node25</title>
<g id="a_edge36_Node000022_Node000025"><a xlink:title=" ">
<path fill="none" stroke="#63b8ff" d="M990.84,-158.97C994.41,-151.97 999.86,-141.28 1004.46,-132.25"/>
<polygon fill="#63b8ff" stroke="#63b8ff" points="1007.72,-133.55 1009.15,-123.06 1001.49,-130.38 1007.72,-133.55"/>
</a>
</g>
</g>
<!-- Node26&#45;&gt;Node2 -->
<g id="edge43_Node000026_Node000002" class="edge">
<title>Node26&#45;&gt;Node2</title>
<g id="a_edge43_Node000026_Node000002"><a xlink:title=" ">
<path fill="none" stroke="#63b8ff" d="M144.53,-158.97C106.94,-140.83 20.79,-93.22 57,-53 82.46,-24.72 346.86,-13.5 438.74,-10.43"/>
<polygon fill="#63b8ff" stroke="#63b8ff" points="438.94,-13.93 448.82,-10.11 438.71,-6.93 438.94,-13.93"/>
</a>
</g>
</g>
<!-- Node26&#45;&gt;Node3 -->
<g id="edge46_Node000026_Node000003" class="edge">
<title>Node26&#45;&gt;Node3</title>
<g id="a_edge46_Node000026_Node000003"><a xlink:title=" ">
<path fill="none" stroke="#63b8ff" d="M161,-158.97C161,-152.19 161,-141.97 161,-133.13"/>
<polygon fill="#63b8ff" stroke="#63b8ff" points="164.5,-133.06 161,-123.06 157.5,-133.06 164.5,-133.06"/>
</a>
</g>
</g>
<!-- Node26&#45;&gt;Node7 -->
<g id="edge44_Node000026_Node000007" class="edge">
<title>Node26&#45;&gt;Node7</title>
<g id="a_edge44_Node000026_Node000007"><a xlink:title=" ">
<path fill="none" stroke="#63b8ff" d="M154.11,-158.86C147.23,-150.67 137.1,-136.96 133,-123 128.52,-107.77 135.79,-90.82 143.14,-78.74"/>
<polygon fill="#63b8ff" stroke="#63b8ff" points="146.18,-80.49 148.83,-70.23 140.36,-76.59 146.18,-80.49"/>
</a>
</g>
</g>
<!-- Node26&#45;&gt;Node9 -->
<g id="edge45_Node000026_Node000009" class="edge">
<title>Node26&#45;&gt;Node9</title>
<g id="a_edge45_Node000026_Node000009"><a xlink:title=" ">
<path fill="none" stroke="#63b8ff" d="M154.61,-158.7C147.73,-150.16 136.61,-135.95 128,-123 118.45,-108.63 108.71,-91.56 101.94,-79.22"/>
<polygon fill="#63b8ff" stroke="#63b8ff" points="104.86,-77.26 97.02,-70.13 98.7,-80.59 104.86,-77.26"/>
</a>
</g>
</g>
<!-- Node26&#45;&gt;Node10 -->
<g id="edge47_Node000026_Node000010" class="edge">
<title>Node26&#45;&gt;Node10</title>
<g id="a_edge47_Node000026_Node000010"><a xlink:title=" ">
<path fill="none" stroke="#63b8ff" d="M183.28,-158.97C208.82,-150.35 250.89,-136.14 279.94,-126.33"/>
<polygon fill="#63b8ff" stroke="#63b8ff" points="281.27,-129.57 289.63,-123.06 279.03,-122.94 281.27,-129.57"/>
</a>
</g>
</g>
<!-- Node26&#45;&gt;Node14 -->
<g id="edge48_Node000026_Node000014" class="edge">
<title>Node26&#45;&gt;Node14</title>
<g id="a_edge48_Node000026_Node000014"><a xlink:title=" ">
<path fill="none" stroke="#63b8ff" d="M197.04,-158.98C236.62,-150.62 301.99,-136.51 358,-123 426.75,-106.41 506.46,-85.07 551.98,-72.67"/>
<polygon fill="#63b8ff" stroke="#63b8ff" points="552.98,-76.02 561.71,-70.02 551.14,-69.27 552.98,-76.02"/>
</a>
</g>
</g>
</g>
</svg>
