<?xml version="1.0" encoding="UTF-8" standalone="no"?>
<!DOCTYPE svg PUBLIC "-//W3C//DTD SVG 1.1//EN"
 "http://www.w3.org/Graphics/SVG/1.1/DTD/svg11.dtd">
<!-- Generated by graphviz version 2.43.0 (0)
 -->
<!-- Title: intrinsics.hpp Pages: 1 -->
<svg width="164pt" height="78pt"
 viewBox="0.00 0.00 164.00 78.00" xmlns="http://www.w3.org/2000/svg" xmlns:xlink="http://www.w3.org/1999/xlink">
<g id="graph0" class="graph" transform="scale(1 1) rotate(0) translate(4 74)">
<title>intrinsics.hpp</title>
<!-- Node1 -->
<g id="Node000001" class="node">
<title>Node1</title>
<g id="a_Node000001"><a xlink:title=" ">
<polygon fill="#999999" stroke="#666666" points="110,-70 48,-70 48,-53 110,-53 110,-70"/>
<text text-anchor="middle" x="79" y="-59.6" font-family="Helvetica,sans-Serif" font-size="8.00">intrinsics.hpp</text>
</a>
</g>
</g>
<!-- Node2 -->
<g id="Node000002" class="node">
<title>Node2</title>
<g id="a_Node000002"><a xlink:title=" ">
<polygon fill="#e0e0e0" stroke="#999999" points="40,-17 0,-17 0,0 40,0 40,-17"/>
<text text-anchor="middle" x="20" y="-6.6" font-family="Helvetica,sans-Serif" font-size="8.00">atomic</text>
</a>
</g>
</g>
<!-- Node1&#45;&gt;Node2 -->
<g id="edge1_Node000001_Node000002" class="edge">
<title>Node1&#45;&gt;Node2</title>
<g id="a_edge1_Node000001_Node000002"><a xlink:title=" ">
<path fill="none" stroke="#63b8ff" d="M70.29,-52.97C61.41,-45.29 47.39,-33.18 36.41,-23.69"/>
<polygon fill="#63b8ff" stroke="#63b8ff" points="38.6,-20.95 28.74,-17.06 34.02,-26.24 38.6,-20.95"/>
</a>
</g>
</g>
<!-- Node3 -->
<g id="Node000003" class="node">
<title>Node3</title>
<g id="a_Node000003"><a xlink:title=" ">
<polygon fill="#e0e0e0" stroke="#999999" points="100,-17 58,-17 58,0 100,0 100,-17"/>
<text text-anchor="middle" x="79" y="-6.6" font-family="Helvetica,sans-Serif" font-size="8.00">cstddef</text>
</a>
</g>
</g>
<!-- Node1&#45;&gt;Node3 -->
<g id="edge2_Node000001_Node000003" class="edge">
<title>Node1&#45;&gt;Node3</title>
<g id="a_edge2_Node000001_Node000003"><a xlink:title=" ">
<path fill="none" stroke="#63b8ff" d="M79,-52.97C79,-46.19 79,-35.97 79,-27.13"/>
<polygon fill="#63b8ff" stroke="#63b8ff" points="82.5,-27.06 79,-17.06 75.5,-27.06 82.5,-27.06"/>
</a>
</g>
</g>
<!-- Node4 -->
<g id="Node000004" class="node">
<title>Node4</title>
<g id="a_Node000004"><a xlink:title=" ">
<polygon fill="#e0e0e0" stroke="#999999" points="156,-17 118,-17 118,0 156,0 156,-17"/>
<text text-anchor="middle" x="137" y="-6.6" font-family="Helvetica,sans-Serif" font-size="8.00">cstdlib</text>
</a>
</g>
</g>
<!-- Node1&#45;&gt;Node4 -->
<g id="edge3_Node000001_Node000004" class="edge">
<title>Node1&#45;&gt;Node4</title>
<g id="a_edge3_Node000001_Node000004"><a xlink:title=" ">
<path fill="none" stroke="#63b8ff" d="M87.56,-52.97C96.3,-45.29 110.07,-33.18 120.87,-23.69"/>
<polygon fill="#63b8ff" stroke="#63b8ff" points="123.21,-26.29 128.41,-17.06 118.59,-21.03 123.21,-26.29"/>
</a>
</g>
</g>
</g>
</svg>
