<?xml version="1.0" encoding="UTF-8" standalone="no"?>
<!DOCTYPE svg PUBLIC "-//W3C//DTD SVG 1.1//EN"
 "http://www.w3.org/Graphics/SVG/1.1/DTD/svg11.dtd">
<!-- Generated by graphviz version 2.43.0 (0)
 -->
<!-- Title: intrinsics.hpp Pages: 1 -->
<svg width="180pt" height="78pt"
 viewBox="0.00 0.00 180.00 78.00" xmlns="http://www.w3.org/2000/svg" xmlns:xlink="http://www.w3.org/1999/xlink">
<g id="graph0" class="graph" transform="scale(1 1) rotate(0) translate(4 74)">
<title>intrinsics.hpp</title>
<!-- Node1 -->
<g id="Node000001" class="node">
<title>Node1</title>
<g id="a_Node000001"><a xlink:title=" ">
<polygon fill="#999999" stroke="#666666" points="121.5,-70 50.5,-70 50.5,-53 121.5,-53 121.5,-70"/>
<text text-anchor="middle" x="86" y="-59.6" font-family="Helvetica,sans-Serif" font-size="8.00">intrinsics.hpp</text>
</a>
</g>
</g>
<!-- Node2 -->
<g id="Node000002" class="node">
<title>Node2</title>
<g id="a_Node000002"><a xlink:title=" ">
<polygon fill="#e0e0e0" stroke="#999999" points="44,-17 0,-17 0,0 44,0 44,-17"/>
<text text-anchor="middle" x="22" y="-6.6" font-family="Helvetica,sans-Serif" font-size="8.00">atomic</text>
</a>
</g>
</g>
<!-- Node1&#45;&gt;Node2 -->
<g id="edge1_Node000001_Node000002" class="edge">
<title>Node1&#45;&gt;Node2</title>
<g id="a_edge1_Node000001_Node000002"><a xlink:title=" ">
<path fill="none" stroke="#63b8ff" d="M76.56,-52.97C66.82,-45.22 51.41,-32.94 39.45,-23.41"/>
<polygon fill="#63b8ff" stroke="#63b8ff" points="41.48,-20.55 31.48,-17.06 37.12,-26.03 41.48,-20.55"/>
</a>
</g>
</g>
<!-- Node3 -->
<g id="Node000003" class="node">
<title>Node3</title>
<g id="a_Node000003"><a xlink:title=" ">
<polygon fill="#e0e0e0" stroke="#999999" points="109.5,-17 62.5,-17 62.5,0 109.5,0 109.5,-17"/>
<text text-anchor="middle" x="86" y="-6.6" font-family="Helvetica,sans-Serif" font-size="8.00">cstddef</text>
</a>
</g>
</g>
<!-- Node1&#45;&gt;Node3 -->
<g id="edge2_Node000001_Node000003" class="edge">
<title>Node1&#45;&gt;Node3</title>
<g id="a_edge2_Node000001_Node000003"><a xlink:title=" ">
<path fill="none" stroke="#63b8ff" d="M86,-52.97C86,-46.19 86,-35.97 86,-27.13"/>
<polygon fill="#63b8ff" stroke="#63b8ff" points="89.5,-27.06 86,-17.06 82.5,-27.06 89.5,-27.06"/>
</a>
</g>
</g>
<!-- Node4 -->
<g id="Node000004" class="node">
<title>Node4</title>
<g id="a_Node000004"><a xlink:title=" ">
<polygon fill="#e0e0e0" stroke="#999999" points="172,-17 128,-17 128,0 172,0 172,-17"/>
<text text-anchor="middle" x="150" y="-6.6" font-family="Helvetica,sans-Serif" font-size="8.00">cstdlib</text>
</a>
</g>
</g>
<!-- Node1&#45;&gt;Node4 -->
<g id="edge3_Node000001_Node000004" class="edge">
<title>Node1&#45;&gt;Node4</title>
<g id="a_edge3_Node000001_Node000004"><a xlink:title=" ">
<path fill="none" stroke="#63b8ff" d="M95.44,-52.97C105.18,-45.22 120.59,-32.94 132.55,-23.41"/>
<polygon fill="#63b8ff" stroke="#63b8ff" points="134.88,-26.03 140.52,-17.06 130.52,-20.55 134.88,-26.03"/>
</a>
</g>
</g>
</g>
</svg>
