<?xml version="1.0" encoding="UTF-8" standalone="no"?>
<!DOCTYPE svg PUBLIC "-//W3C//DTD SVG 1.1//EN"
 "http://www.w3.org/Graphics/SVG/1.1/DTD/svg11.dtd">
<!-- Generated by graphviz version 2.43.0 (0)
 -->
<!-- Title: grid.hpp Pages: 1 -->
<svg width="775pt" height="184pt"
 viewBox="0.00 0.00 775.00 184.00" xmlns="http://www.w3.org/2000/svg" xmlns:xlink="http://www.w3.org/1999/xlink">
<g id="graph0" class="graph" transform="scale(1 1) rotate(0) translate(4 180)">
<title>grid.hpp</title>
<!-- Node1 -->
<g id="Node000001" class="node">
<title>Node1</title>
<g id="a_Node000001"><a xlink:title=" ">
<polygon fill="#999999" stroke="#666666" points="444,-176 398,-176 398,-159 444,-159 444,-176"/>
<text text-anchor="middle" x="421" y="-165.6" font-family="Helvetica,sans-Serif" font-size="8.00">grid.hpp</text>
</a>
</g>
</g>
<!-- Node2 -->
<g id="Node000002" class="node">
<title>Node2</title>
<g id="a_Node000002"><a xlink:title=" ">
<polygon fill="#e0e0e0" stroke="#999999" points="50,-123 0,-123 0,-106 50,-106 50,-123"/>
<text text-anchor="middle" x="25" y="-112.6" font-family="Helvetica,sans-Serif" font-size="8.00">algorithm</text>
</a>
</g>
</g>
<!-- Node1&#45;&gt;Node2 -->
<g id="edge1_Node000001_Node000002" class="edge">
<title>Node1&#45;&gt;Node2</title>
<g id="a_edge1_Node000001_Node000002"><a xlink:title=" ">
<path fill="none" stroke="#63b8ff" d="M397.95,-164.25C341.07,-158.57 189.53,-142.69 64,-123 62.74,-122.8 61.45,-122.59 60.15,-122.38"/>
<polygon fill="#63b8ff" stroke="#63b8ff" points="60.59,-118.9 50.13,-120.6 59.36,-125.79 60.59,-118.9"/>
</a>
</g>
</g>
<!-- Node3 -->
<g id="Node000003" class="node">
<title>Node3</title>
<g id="a_Node000003"><a xlink:title=" ">
<polygon fill="#e0e0e0" stroke="#999999" points="179.5,-70 144.5,-70 144.5,-53 179.5,-53 179.5,-70"/>
<text text-anchor="middle" x="162" y="-59.6" font-family="Helvetica,sans-Serif" font-size="8.00">array</text>
</a>
</g>
</g>
<!-- Node1&#45;&gt;Node3 -->
<g id="edge2_Node000001_Node000003" class="edge">
<title>Node1&#45;&gt;Node3</title>
<g id="a_edge2_Node000001_Node000003"><a xlink:title=" ">
<path fill="none" stroke="#63b8ff" d="M401.96,-158.85C356.52,-140.61 241.65,-94.48 189.05,-73.36"/>
<polygon fill="#63b8ff" stroke="#63b8ff" points="190.28,-70.08 179.69,-69.6 187.67,-76.58 190.28,-70.08"/>
</a>
</g>
</g>
<!-- Node4 -->
<g id="Node000004" class="node">
<title>Node4</title>
<g id="a_Node000004"><a xlink:title=" ">
<polygon fill="#e0e0e0" stroke="#999999" points="659,-123 617,-123 617,-106 659,-106 659,-123"/>
<text text-anchor="middle" x="638" y="-112.6" font-family="Helvetica,sans-Serif" font-size="8.00">cassert</text>
</a>
</g>
</g>
<!-- Node1&#45;&gt;Node4 -->
<g id="edge3_Node000001_Node000004" class="edge">
<title>Node1&#45;&gt;Node4</title>
<g id="a_edge3_Node000001_Node000004"><a xlink:title=" ">
<path fill="none" stroke="#63b8ff" d="M444.22,-161.04C483.5,-151.81 563.04,-133.12 607.02,-122.78"/>
<polygon fill="#63b8ff" stroke="#63b8ff" points="607.94,-126.16 616.87,-120.47 606.34,-119.35 607.94,-126.16"/>
</a>
</g>
</g>
<!-- Node5 -->
<g id="Node000005" class="node">
<title>Node5</title>
<g id="a_Node000005"><a xlink:title=" ">
<polygon fill="#e0e0e0" stroke="#999999" points="238,-17 196,-17 196,0 238,0 238,-17"/>
<text text-anchor="middle" x="217" y="-6.6" font-family="Helvetica,sans-Serif" font-size="8.00">cstddef</text>
</a>
</g>
</g>
<!-- Node1&#45;&gt;Node5 -->
<g id="edge4_Node000001_Node000005" class="edge">
<title>Node1&#45;&gt;Node5</title>
<g id="a_edge4_Node000001_Node000005"><a xlink:title=" ">
<path fill="none" stroke="#63b8ff" d="M397.66,-167.13C330.04,-168.39 136.33,-167.96 97,-123 61.73,-82.68 141.82,-40.77 187.7,-21.06"/>
<polygon fill="#63b8ff" stroke="#63b8ff" points="189.31,-24.18 197.19,-17.09 186.61,-17.72 189.31,-24.18"/>
</a>
</g>
</g>
<!-- Node6 -->
<g id="Node000006" class="node">
<title>Node6</title>
<g id="a_Node000006"><a xlink:title=" ">
<polygon fill="#e0e0e0" stroke="#999999" points="623.5,-70 570.5,-70 570.5,-53 623.5,-53 623.5,-70"/>
<text text-anchor="middle" x="597" y="-59.6" font-family="Helvetica,sans-Serif" font-size="8.00">type_traits</text>
</a>
</g>
</g>
<!-- Node1&#45;&gt;Node6 -->
<g id="edge5_Node000001_Node000006" class="edge">
<title>Node1&#45;&gt;Node6</title>
<g id="a_edge5_Node000001_Node000006"><a xlink:title=" ">
<path fill="none" stroke="#63b8ff" d="M444,-165.63C475.94,-163.25 533.86,-154.54 570,-123 582.73,-111.89 589.74,-93.62 593.4,-80.05"/>
<polygon fill="#63b8ff" stroke="#63b8ff" points="596.88,-80.56 595.75,-70.03 590.06,-78.97 596.88,-80.56"/>
</a>
</g>
</g>
<!-- Node7 -->
<g id="Node000007" class="node">
<title>Node7</title>
<g id="a_Node000007"><a xlink:title=" ">
<polygon fill="#e0e0e0" stroke="#999999" points="711,-123 677,-123 677,-106 711,-106 711,-123"/>
<text text-anchor="middle" x="694" y="-112.6" font-family="Helvetica,sans-Serif" font-size="8.00">utility</text>
</a>
</g>
</g>
<!-- Node1&#45;&gt;Node7 -->
<g id="edge6_Node000001_Node000007" class="edge">
<title>Node1&#45;&gt;Node7</title>
<g id="a_edge6_Node000001_Node000007"><a xlink:title=" ">
<path fill="none" stroke="#63b8ff" d="M444.32,-163.24C486.75,-157.13 579.53,-142.94 666.92,-123.02"/>
<polygon fill="#63b8ff" stroke="#63b8ff" points="667.77,-126.42 676.73,-120.76 666.19,-119.6 667.77,-126.42"/>
</a>
</g>
</g>
<!-- Node8 -->
<g id="Node000008" class="node">
<title>Node8</title>
<g id="a_Node000008"><a xlink:title=" ">
<polygon fill="#e0e0e0" stroke="#999999" points="767,-123 729,-123 729,-106 767,-106 767,-123"/>
<text text-anchor="middle" x="748" y="-112.6" font-family="Helvetica,sans-Serif" font-size="8.00">vector</text>
</a>
</g>
</g>
<!-- Node1&#45;&gt;Node8 -->
<g id="edge7_Node000001_Node000008" class="edge">
<title>Node1&#45;&gt;Node8</title>
<g id="a_edge7_Node000001_Node000008"><a xlink:title=" ">
<path fill="none" stroke="#63b8ff" d="M444.04,-164.08C492.89,-158.75 610.6,-144.88 718.7,-123.03"/>
<polygon fill="#63b8ff" stroke="#63b8ff" points="719.7,-126.4 728.79,-120.96 718.29,-119.54 719.7,-126.4"/>
</a>
</g>
</g>
<!-- Node9 -->
<g id="Node000009" class="node">
<title>Node9</title>
<g id="a_Node000009"><a xlink:href="../../df/d93/utils_8hpp.html" target="_top" xlink:title=" ">
<polygon fill="white" stroke="#666666" points="393,-123 325,-123 325,-106 393,-106 393,-123"/>
<text text-anchor="middle" x="359" y="-112.6" font-family="Helvetica,sans-Serif" font-size="8.00">../utils/utils.hpp</text>
</a>
</g>
</g>
<!-- Node1&#45;&gt;Node9 -->
<g id="edge8_Node000001_Node000009" class="edge">
<title>Node1&#45;&gt;Node9</title>
<g id="a_edge8_Node000001_Node000009"><a xlink:title=" ">
<path fill="none" stroke="#63b8ff" d="M411.85,-158.97C402.51,-151.29 387.78,-139.18 376.25,-129.69"/>
<polygon fill="#63b8ff" stroke="#63b8ff" points="378.13,-126.71 368.19,-123.06 373.69,-132.11 378.13,-126.71"/>
</a>
</g>
</g>
<!-- Node14 -->
<g id="Node000014" class="node">
<title>Node14</title>
<g id="a_Node000014"><a xlink:href="../../d7/d65/intrinsics_8hpp.html" target="_top" xlink:title=" ">
<polygon fill="white" stroke="#666666" points="499.5,-70 414.5,-70 414.5,-53 499.5,-53 499.5,-70"/>
<text text-anchor="middle" x="457" y="-59.6" font-family="Helvetica,sans-Serif" font-size="8.00">../utils/intrinsics.hpp</text>
</a>
</g>
</g>
<!-- Node1&#45;&gt;Node14 -->
<g id="edge23_Node000001_Node000014" class="edge">
<title>Node1&#45;&gt;Node14</title>
<g id="a_edge23_Node000001_Node000014"><a xlink:title=" ">
<path fill="none" stroke="#63b8ff" d="M423.51,-158.64C427.22,-147.07 434.44,-124.8 441,-106 444.03,-97.33 447.53,-87.74 450.49,-79.78"/>
<polygon fill="#63b8ff" stroke="#63b8ff" points="453.86,-80.77 454.09,-70.17 447.31,-78.31 453.86,-80.77"/>
</a>
</g>
</g>
<!-- Node17 -->
<g id="Node000017" class="node">
<title>Node17</title>
<g id="a_Node000017"><a xlink:href="../../d1/d2d/weighted__node_8hpp.html" target="_top" xlink:title=" ">
<polygon fill="white" stroke="#666666" points="560.5,-123 449.5,-123 449.5,-106 560.5,-106 560.5,-123"/>
<text text-anchor="middle" x="505" y="-112.6" font-family="Helvetica,sans-Serif" font-size="8.00">nodes/weighted_node.hpp</text>
</a>
</g>
</g>
<!-- Node1&#45;&gt;Node17 -->
<g id="edge20_Node000001_Node000017" class="edge">
<title>Node1&#45;&gt;Node17</title>
<g id="a_edge20_Node000001_Node000017"><a xlink:title=" ">
<path fill="none" stroke="#63b8ff" d="M433.39,-158.97C446.67,-150.91 467.98,-137.98 483.9,-128.31"/>
<polygon fill="#63b8ff" stroke="#63b8ff" points="485.82,-131.24 492.55,-123.06 482.19,-125.25 485.82,-131.24"/>
</a>
</g>
</g>
<!-- Node18 -->
<g id="Node000018" class="node">
<title>Node18</title>
<g id="a_Node000018"><a xlink:href="../../d9/dfc/coord_8hpp.html" target="_top" xlink:title=" ">
<polygon fill="white" stroke="#666666" points="246,-123 106,-123 106,-106 246,-106 246,-123"/>
<text text-anchor="middle" x="176" y="-112.6" font-family="Helvetica,sans-Serif" font-size="8.00">include/types/containers/coord.hpp</text>
</a>
</g>
</g>
<!-- Node1&#45;&gt;Node18 -->
<g id="edge24_Node000001_Node000018" class="edge">
<title>Node1&#45;&gt;Node18</title>
<g id="a_edge24_Node000001_Node000018"><a xlink:title=" ">
<path fill="none" stroke="#63b8ff" d="M397.95,-161.7C357.86,-153.36 274.57,-136.02 222.2,-125.12"/>
<polygon fill="#63b8ff" stroke="#63b8ff" points="222.66,-121.64 212.16,-123.03 221.23,-128.49 222.66,-121.64"/>
</a>
</g>
</g>
<!-- Node9&#45;&gt;Node3 -->
<g id="edge9_Node000009_Node000003" class="edge">
<title>Node9&#45;&gt;Node3</title>
<g id="a_edge9_Node000009_Node000003"><a xlink:title=" ">
<path fill="none" stroke="#63b8ff" d="M328.86,-105.98C296.76,-97.94 244.24,-84.65 189.57,-70.11"/>
<polygon fill="#63b8ff" stroke="#63b8ff" points="190.27,-66.67 179.7,-67.47 188.46,-73.43 190.27,-66.67"/>
</a>
</g>
</g>
<!-- Node9&#45;&gt;Node5 -->
<g id="edge11_Node000009_Node000005" class="edge">
<title>Node9&#45;&gt;Node5</title>
<g id="a_edge11_Node000009_Node000005"><a xlink:title=" ">
<path fill="none" stroke="#63b8ff" d="M352.62,-105.69C342.29,-93.38 320.85,-69.23 299,-53 281.91,-40.31 260.63,-29.14 244.03,-21.29"/>
<polygon fill="#63b8ff" stroke="#63b8ff" points="245.41,-18.07 234.86,-17.07 242.48,-24.43 245.41,-18.07"/>
</a>
</g>
</g>
<!-- Node9&#45;&gt;Node6 -->
<g id="edge15_Node000009_Node000006" class="edge">
<title>Node9&#45;&gt;Node6</title>
<g id="a_edge15_Node000009_Node000006"><a xlink:title=" ">
<path fill="none" stroke="#63b8ff" d="M393.1,-106.19C437.46,-96.69 514.66,-80.14 560.27,-70.37"/>
<polygon fill="#63b8ff" stroke="#63b8ff" points="561.28,-73.73 570.33,-68.22 559.82,-66.89 561.28,-73.73"/>
</a>
</g>
</g>
<!-- Node10 -->
<g id="Node000010" class="node">
<title>Node10</title>
<g id="a_Node000010"><a xlink:title=" ">
<polygon fill="#e0e0e0" stroke="#999999" points="290,-70 252,-70 252,-53 290,-53 290,-70"/>
<text text-anchor="middle" x="271" y="-59.6" font-family="Helvetica,sans-Serif" font-size="8.00">cmath</text>
</a>
</g>
</g>
<!-- Node9&#45;&gt;Node10 -->
<g id="edge10_Node000009_Node000010" class="edge">
<title>Node9&#45;&gt;Node10</title>
<g id="a_edge10_Node000009_Node000010"><a xlink:title=" ">
<path fill="none" stroke="#63b8ff" d="M346.02,-105.97C332.11,-97.91 309.79,-84.98 293.1,-75.31"/>
<polygon fill="#63b8ff" stroke="#63b8ff" points="294.45,-72.04 284.04,-70.06 290.94,-78.1 294.45,-72.04"/>
</a>
</g>
</g>
<!-- Node11 -->
<g id="Node000011" class="node">
<title>Node11</title>
<g id="a_Node000011"><a xlink:title=" ">
<polygon fill="#e0e0e0" stroke="#999999" points="396,-70 346,-70 346,-53 396,-53 396,-70"/>
<text text-anchor="middle" x="371" y="-59.6" font-family="Helvetica,sans-Serif" font-size="8.00">functional</text>
</a>
</g>
</g>
<!-- Node9&#45;&gt;Node11 -->
<g id="edge12_Node000009_Node000011" class="edge">
<title>Node9&#45;&gt;Node11</title>
<g id="a_edge12_Node000009_Node000011"><a xlink:title=" ">
<path fill="none" stroke="#63b8ff" d="M360.77,-105.97C362.38,-99.12 364.83,-88.74 366.92,-79.84"/>
<polygon fill="#63b8ff" stroke="#63b8ff" points="370.34,-80.59 369.22,-70.06 363.52,-78.99 370.34,-80.59"/>
</a>
</g>
</g>
<!-- Node12 -->
<g id="Node000012" class="node">
<title>Node12</title>
<g id="a_Node000012"><a xlink:title=" ">
<polygon fill="#e0e0e0" stroke="#999999" points="552,-70 518,-70 518,-53 552,-53 552,-70"/>
<text text-anchor="middle" x="535" y="-59.6" font-family="Helvetica,sans-Serif" font-size="8.00">limits</text>
</a>
</g>
</g>
<!-- Node9&#45;&gt;Node12 -->
<g id="edge13_Node000009_Node000012" class="edge">
<title>Node9&#45;&gt;Node12</title>
<g id="a_edge13_Node000009_Node000012"><a xlink:title=" ">
<path fill="none" stroke="#63b8ff" d="M384.97,-105.97C417.93,-96.42 474.51,-80.03 507.97,-70.33"/>
<polygon fill="#63b8ff" stroke="#63b8ff" points="509.33,-73.58 517.96,-67.44 507.38,-66.86 509.33,-73.58"/>
</a>
</g>
</g>
<!-- Node13 -->
<g id="Node000013" class="node">
<title>Node13</title>
<g id="a_Node000013"><a xlink:title=" ">
<polygon fill="#e0e0e0" stroke="#999999" points="234,-70 198,-70 198,-53 234,-53 234,-70"/>
<text text-anchor="middle" x="216" y="-59.6" font-family="Helvetica,sans-Serif" font-size="8.00">string</text>
</a>
</g>
</g>
<!-- Node9&#45;&gt;Node13 -->
<g id="edge14_Node000009_Node000013" class="edge">
<title>Node9&#45;&gt;Node13</title>
<g id="a_edge14_Node000009_Node000013"><a xlink:title=" ">
<path fill="none" stroke="#63b8ff" d="M337.9,-105.97C312.85,-97.04 271.01,-82.12 243.46,-72.29"/>
<polygon fill="#63b8ff" stroke="#63b8ff" points="244.61,-68.99 234.02,-68.93 242.26,-75.58 244.61,-68.99"/>
</a>
</g>
</g>
<!-- Node9&#45;&gt;Node14 -->
<g id="edge16_Node000009_Node000014" class="edge">
<title>Node9&#45;&gt;Node14</title>
<g id="a_edge16_Node000009_Node000014"><a xlink:title=" ">
<path fill="none" stroke="#63b8ff" d="M373.46,-105.97C389.24,-97.76 414.74,-84.49 433.42,-74.77"/>
<polygon fill="#63b8ff" stroke="#63b8ff" points="435.23,-77.78 442.48,-70.06 431.99,-71.57 435.23,-77.78"/>
</a>
</g>
</g>
<!-- Node14&#45;&gt;Node5 -->
<g id="edge18_Node000014_Node000005" class="edge">
<title>Node14&#45;&gt;Node5</title>
<g id="a_edge18_Node000014_Node000005"><a xlink:title=" ">
<path fill="none" stroke="#63b8ff" d="M421.59,-52.97C374.75,-43.02 292.93,-25.64 248.27,-16.15"/>
<polygon fill="#63b8ff" stroke="#63b8ff" points="248.79,-12.68 238.29,-14.02 247.34,-19.53 248.79,-12.68"/>
</a>
</g>
</g>
<!-- Node15 -->
<g id="Node000015" class="node">
<title>Node15</title>
<g id="a_Node000015"><a xlink:title=" ">
<polygon fill="#e0e0e0" stroke="#999999" points="505,-17 465,-17 465,0 505,0 505,-17"/>
<text text-anchor="middle" x="485" y="-6.6" font-family="Helvetica,sans-Serif" font-size="8.00">atomic</text>
</a>
</g>
</g>
<!-- Node14&#45;&gt;Node15 -->
<g id="edge17_Node000014_Node000015" class="edge">
<title>Node14&#45;&gt;Node15</title>
<g id="a_edge17_Node000014_Node000015"><a xlink:title=" ">
<path fill="none" stroke="#63b8ff" d="M461.13,-52.97C465.02,-45.89 470.97,-35.05 475.96,-25.96"/>
<polygon fill="#63b8ff" stroke="#63b8ff" points="479.11,-27.51 480.85,-17.06 472.97,-24.14 479.11,-27.51"/>
</a>
</g>
</g>
<!-- Node16 -->
<g id="Node000016" class="node">
<title>Node16</title>
<g id="a_Node000016"><a xlink:title=" ">
<polygon fill="#e0e0e0" stroke="#999999" points="447,-17 409,-17 409,0 447,0 447,-17"/>
<text text-anchor="middle" x="428" y="-6.6" font-family="Helvetica,sans-Serif" font-size="8.00">cstdlib</text>
</a>
</g>
</g>
<!-- Node14&#45;&gt;Node16 -->
<g id="edge19_Node000014_Node000016" class="edge">
<title>Node14&#45;&gt;Node16</title>
<g id="a_edge19_Node000014_Node000016"><a xlink:title=" ">
<path fill="none" stroke="#63b8ff" d="M452.72,-52.97C448.69,-45.89 442.53,-35.05 437.36,-25.96"/>
<polygon fill="#63b8ff" stroke="#63b8ff" points="440.28,-24.02 432.3,-17.06 434.2,-27.48 440.28,-24.02"/>
</a>
</g>
</g>
<!-- Node17&#45;&gt;Node6 -->
<g id="edge22_Node000017_Node000006" class="edge">
<title>Node17&#45;&gt;Node6</title>
<g id="a_edge22_Node000017_Node000006"><a xlink:title=" ">
<path fill="none" stroke="#63b8ff" d="M518.57,-105.97C533.25,-97.84 556.89,-84.74 574.38,-75.04"/>
<polygon fill="#63b8ff" stroke="#63b8ff" points="576.32,-77.97 583.37,-70.06 572.93,-71.84 576.32,-77.97"/>
</a>
</g>
</g>
<!-- Node17&#45;&gt;Node12 -->
<g id="edge21_Node000017_Node000012" class="edge">
<title>Node17&#45;&gt;Node12</title>
<g id="a_edge21_Node000017_Node000012"><a xlink:title=" ">
<path fill="none" stroke="#63b8ff" d="M509.43,-105.97C513.59,-98.89 519.97,-88.05 525.32,-78.96"/>
<polygon fill="#63b8ff" stroke="#63b8ff" points="528.5,-80.45 530.56,-70.06 522.47,-76.9 528.5,-80.45"/>
</a>
</g>
</g>
<!-- Node18&#45;&gt;Node3 -->
<g id="edge25_Node000018_Node000003" class="edge">
<title>Node18&#45;&gt;Node3</title>
<g id="a_edge25_Node000018_Node000003"><a xlink:title=" ">
<path fill="none" stroke="#63b8ff" d="M173.93,-105.97C172.05,-99.12 169.2,-88.74 166.76,-79.84"/>
<polygon fill="#63b8ff" stroke="#63b8ff" points="170.1,-78.77 164.07,-70.06 163.35,-80.63 170.1,-78.77"/>
</a>
</g>
</g>
<!-- Node18&#45;&gt;Node5 -->
<g id="edge26_Node000018_Node000005" class="edge">
<title>Node18&#45;&gt;Node5</title>
<g id="a_edge26_Node000018_Node000005"><a xlink:title=" ">
<path fill="none" stroke="#63b8ff" d="M164.19,-105.84C148.28,-94.53 123.23,-72.57 135,-53 146.07,-34.59 167.85,-23.56 186.18,-17.21"/>
<polygon fill="#63b8ff" stroke="#63b8ff" points="187.43,-20.49 195.92,-14.15 185.33,-13.81 187.43,-20.49"/>
</a>
</g>
</g>
</g>
</svg>