<?xml version="1.0" encoding="UTF-8" standalone="no"?>
<!DOCTYPE svg PUBLIC "-//W3C//DTD SVG 1.1//EN"
 "http://www.w3.org/Graphics/SVG/1.1/DTD/svg11.dtd">
<!-- Generated by graphviz version 2.43.0 (0)
 -->
<!-- Title: grid.hpp Pages: 1 -->
<svg width="621pt" height="184pt"
 viewBox="0.00 0.00 621.00 184.00" xmlns="http://www.w3.org/2000/svg" xmlns:xlink="http://www.w3.org/1999/xlink">
<g id="graph0" class="graph" transform="scale(1 1) rotate(0) translate(4 180)">
<title>grid.hpp</title>
<!-- Node1 -->
<g id="Node000001" class="node">
<title>Node1</title>
<g id="a_Node000001"><a xlink:title=" ">
<polygon fill="#999999" stroke="#666666" points="358,-176 312,-176 312,-159 358,-159 358,-176"/>
<text text-anchor="middle" x="335" y="-165.6" font-family="Helvetica,sans-Serif" font-size="8.00">grid.hpp</text>
</a>
</g>
</g>
<!-- Node2 -->
<g id="Node000002" class="node">
<title>Node2</title>
<g id="a_Node000002"><a xlink:title=" ">
<polygon fill="#e0e0e0" stroke="#999999" points="50,-123 0,-123 0,-106 50,-106 50,-123"/>
<text text-anchor="middle" x="25" y="-112.6" font-family="Helvetica,sans-Serif" font-size="8.00">algorithm</text>
</a>
</g>
</g>
<!-- Node1&#45;&gt;Node2 -->
<g id="edge1_Node000001_Node000002" class="edge">
<title>Node1&#45;&gt;Node2</title>
<g id="a_edge1_Node000001_Node000002"><a xlink:title=" ">
<path fill="none" stroke="#63b8ff" d="M311.76,-163.02C264.85,-155.93 155.51,-139.14 64,-123 62.74,-122.78 61.46,-122.55 60.16,-122.31"/>
<polygon fill="#63b8ff" stroke="#63b8ff" points="60.63,-118.84 50.15,-120.46 59.35,-125.72 60.63,-118.84"/>
</a>
</g>
</g>
<!-- Node3 -->
<g id="Node000003" class="node">
<title>Node3</title>
<g id="a_Node000003"><a xlink:title=" ">
<polygon fill="#e0e0e0" stroke="#999999" points="141.5,-70 106.5,-70 106.5,-53 141.5,-53 141.5,-70"/>
<text text-anchor="middle" x="124" y="-59.6" font-family="Helvetica,sans-Serif" font-size="8.00">array</text>
</a>
</g>
</g>
<!-- Node1&#45;&gt;Node3 -->
<g id="edge2_Node000001_Node000003" class="edge">
<title>Node1&#45;&gt;Node3</title>
<g id="a_edge2_Node000001_Node000003"><a xlink:title=" ">
<path fill="none" stroke="#63b8ff" d="M317.31,-158.99C297.75,-150.58 265.36,-136.38 238,-123 205.77,-107.24 169.26,-87.53 146.43,-74.97"/>
<polygon fill="#63b8ff" stroke="#63b8ff" points="147.98,-71.83 137.54,-70.06 144.6,-77.96 147.98,-71.83"/>
</a>
</g>
</g>
<!-- Node4 -->
<g id="Node000004" class="node">
<title>Node4</title>
<g id="a_Node000004"><a xlink:title=" ">
<polygon fill="#e0e0e0" stroke="#999999" points="505,-123 463,-123 463,-106 505,-106 505,-123"/>
<text text-anchor="middle" x="484" y="-112.6" font-family="Helvetica,sans-Serif" font-size="8.00">cassert</text>
</a>
</g>
</g>
<!-- Node1&#45;&gt;Node4 -->
<g id="edge3_Node000001_Node000004" class="edge">
<title>Node1&#45;&gt;Node4</title>
<g id="a_edge3_Node000001_Node000004"><a xlink:title=" ">
<path fill="none" stroke="#63b8ff" d="M356.99,-158.97C382.47,-150.25 424.65,-135.81 453.35,-125.99"/>
<polygon fill="#63b8ff" stroke="#63b8ff" points="454.56,-129.28 462.89,-122.73 452.29,-122.65 454.56,-129.28"/>
</a>
</g>
</g>
<!-- Node5 -->
<g id="Node000005" class="node">
<title>Node5</title>
<g id="a_Node000005"><a xlink:title=" ">
<polygon fill="#e0e0e0" stroke="#999999" points="191,-17 149,-17 149,0 191,0 191,-17"/>
<text text-anchor="middle" x="170" y="-6.6" font-family="Helvetica,sans-Serif" font-size="8.00">cstddef</text>
</a>
</g>
</g>
<!-- Node1&#45;&gt;Node5 -->
<g id="edge4_Node000001_Node000005" class="edge">
<title>Node1&#45;&gt;Node5</title>
<g id="a_edge4_Node000001_Node000005"><a xlink:title=" ">
<path fill="none" stroke="#63b8ff" d="M311.79,-165.5C261.59,-161.92 143.65,-145.48 97,-70 83.49,-48.15 113.59,-30.45 139.14,-19.97"/>
<polygon fill="#63b8ff" stroke="#63b8ff" points="140.54,-23.18 148.61,-16.31 138.02,-16.65 140.54,-23.18"/>
</a>
</g>
</g>
<!-- Node6 -->
<g id="Node000006" class="node">
<title>Node6</title>
<g id="a_Node000006"><a xlink:title=" ">
<polygon fill="#e0e0e0" stroke="#999999" points="557,-123 523,-123 523,-106 557,-106 557,-123"/>
<text text-anchor="middle" x="540" y="-112.6" font-family="Helvetica,sans-Serif" font-size="8.00">utility</text>
</a>
</g>
</g>
<!-- Node1&#45;&gt;Node6 -->
<g id="edge5_Node000001_Node000006" class="edge">
<title>Node1&#45;&gt;Node6</title>
<g id="a_edge5_Node000001_Node000006"><a xlink:title=" ">
<path fill="none" stroke="#63b8ff" d="M358.25,-161.18C390.73,-153.68 451.75,-139.33 513.12,-123.14"/>
<polygon fill="#63b8ff" stroke="#63b8ff" points="514.2,-126.47 522.97,-120.53 512.4,-119.71 514.2,-126.47"/>
</a>
</g>
</g>
<!-- Node7 -->
<g id="Node000007" class="node">
<title>Node7</title>
<g id="a_Node000007"><a xlink:title=" ">
<polygon fill="#e0e0e0" stroke="#999999" points="613,-123 575,-123 575,-106 613,-106 613,-123"/>
<text text-anchor="middle" x="594" y="-112.6" font-family="Helvetica,sans-Serif" font-size="8.00">vector</text>
</a>
</g>
</g>
<!-- Node1&#45;&gt;Node7 -->
<g id="edge6_Node000001_Node000007" class="edge">
<title>Node1&#45;&gt;Node7</title>
<g id="a_edge6_Node000001_Node000007"><a xlink:title=" ">
<path fill="none" stroke="#63b8ff" d="M358.07,-162.75C398.14,-156.11 483.39,-141.42 564.86,-123.11"/>
<polygon fill="#63b8ff" stroke="#63b8ff" points="565.79,-126.48 574.77,-120.86 564.24,-119.66 565.79,-126.48"/>
</a>
</g>
</g>
<!-- Node8 -->
<g id="Node000008" class="node">
<title>Node8</title>
<g id="a_Node000008"><a xlink:href="../../df/d93/utils_8hpp.html" target="_top" xlink:title=" ">
<polygon fill="white" stroke="#666666" points="315,-123 247,-123 247,-106 315,-106 315,-123"/>
<text text-anchor="middle" x="281" y="-112.6" font-family="Helvetica,sans-Serif" font-size="8.00">../utils/utils.hpp</text>
</a>
</g>
</g>
<!-- Node1&#45;&gt;Node8 -->
<g id="edge7_Node000001_Node000008" class="edge">
<title>Node1&#45;&gt;Node8</title>
<g id="a_edge7_Node000001_Node000008"><a xlink:title=" ">
<path fill="none" stroke="#63b8ff" d="M327.03,-158.97C318.98,-151.37 306.32,-139.41 296.32,-129.97"/>
<polygon fill="#63b8ff" stroke="#63b8ff" points="298.67,-127.38 289,-123.06 293.87,-132.47 298.67,-127.38"/>
</a>
</g>
</g>
<!-- Node15 -->
<g id="Node000015" class="node">
<title>Node15</title>
<g id="a_Node000015"><a xlink:href="../../d1/d2d/weighted__node_8hpp.html" target="_top" xlink:title=" ">
<polygon fill="white" stroke="#666666" points="444.5,-123 333.5,-123 333.5,-106 444.5,-106 444.5,-123"/>
<text text-anchor="middle" x="389" y="-112.6" font-family="Helvetica,sans-Serif" font-size="8.00">nodes/weighted_node.hpp</text>
</a>
</g>
</g>
<!-- Node1&#45;&gt;Node15 -->
<g id="edge17_Node000001_Node000015" class="edge">
<title>Node1&#45;&gt;Node15</title>
<g id="a_edge17_Node000001_Node000015"><a xlink:title=" ">
<path fill="none" stroke="#63b8ff" d="M342.97,-158.97C351.02,-151.37 363.68,-139.41 373.68,-129.97"/>
<polygon fill="#63b8ff" stroke="#63b8ff" points="376.13,-132.47 381,-123.06 371.33,-127.38 376.13,-132.47"/>
</a>
</g>
</g>
<!-- Node8&#45;&gt;Node3 -->
<g id="edge8_Node000008_Node000003" class="edge">
<title>Node8&#45;&gt;Node3</title>
<g id="a_edge8_Node000008_Node000003"><a xlink:title=" ">
<path fill="none" stroke="#63b8ff" d="M257.83,-105.97C229.6,-96.8 181.94,-81.32 151.77,-71.52"/>
<polygon fill="#63b8ff" stroke="#63b8ff" points="152.48,-68.07 141.89,-68.31 150.32,-74.73 152.48,-68.07"/>
</a>
</g>
</g>
<!-- Node8&#45;&gt;Node5 -->
<g id="edge10_Node000008_Node000005" class="edge">
<title>Node8&#45;&gt;Node5</title>
<g id="a_edge10_Node000008_Node000005"><a xlink:title=" ">
<path fill="none" stroke="#63b8ff" d="M250.15,-105.87C230.13,-99.42 204.9,-88.25 189,-70 178.6,-58.06 173.89,-40.43 171.75,-27.28"/>
<polygon fill="#63b8ff" stroke="#63b8ff" points="175.2,-26.61 170.47,-17.13 168.25,-27.49 175.2,-26.61"/>
</a>
</g>
</g>
<!-- Node9 -->
<g id="Node000009" class="node">
<title>Node9</title>
<g id="a_Node000009"><a xlink:title=" ">
<polygon fill="#e0e0e0" stroke="#999999" points="340,-70 302,-70 302,-53 340,-53 340,-70"/>
<text text-anchor="middle" x="321" y="-59.6" font-family="Helvetica,sans-Serif" font-size="8.00">cmath</text>
</a>
</g>
</g>
<!-- Node8&#45;&gt;Node9 -->
<g id="edge9_Node000008_Node000009" class="edge">
<title>Node8&#45;&gt;Node9</title>
<g id="a_edge9_Node000008_Node000009"><a xlink:title=" ">
<path fill="none" stroke="#63b8ff" d="M286.9,-105.97C292.63,-98.67 301.51,-87.35 308.76,-78.1"/>
<polygon fill="#63b8ff" stroke="#63b8ff" points="311.66,-80.08 315.07,-70.06 306.15,-75.76 311.66,-80.08"/>
</a>
</g>
</g>
<!-- Node10 -->
<g id="Node000010" class="node">
<title>Node10</title>
<g id="a_Node000010"><a xlink:title=" ">
<polygon fill="#e0e0e0" stroke="#999999" points="446,-70 412,-70 412,-53 446,-53 446,-70"/>
<text text-anchor="middle" x="429" y="-59.6" font-family="Helvetica,sans-Serif" font-size="8.00">limits</text>
</a>
</g>
</g>
<!-- Node8&#45;&gt;Node10 -->
<g id="edge11_Node000008_Node000010" class="edge">
<title>Node8&#45;&gt;Node10</title>
<g id="a_edge11_Node000008_Node000010"><a xlink:title=" ">
<path fill="none" stroke="#63b8ff" d="M302.84,-105.97C329.19,-96.89 373.5,-81.62 401.98,-71.81"/>
<polygon fill="#63b8ff" stroke="#63b8ff" points="403.38,-75.03 411.7,-68.46 401.1,-68.41 403.38,-75.03"/>
</a>
</g>
</g>
<!-- Node11 -->
<g id="Node000011" class="node">
<title>Node11</title>
<g id="a_Node000011"><a xlink:title=" ">
<polygon fill="#e0e0e0" stroke="#999999" points="394,-70 358,-70 358,-53 394,-53 394,-70"/>
<text text-anchor="middle" x="376" y="-59.6" font-family="Helvetica,sans-Serif" font-size="8.00">string</text>
</a>
</g>
</g>
<!-- Node8&#45;&gt;Node11 -->
<g id="edge12_Node000008_Node000011" class="edge">
<title>Node8&#45;&gt;Node11</title>
<g id="a_edge12_Node000008_Node000011"><a xlink:title=" ">
<path fill="none" stroke="#63b8ff" d="M295.02,-105.97C310.17,-97.84 334.58,-84.74 352.64,-75.04"/>
<polygon fill="#63b8ff" stroke="#63b8ff" points="354.77,-77.87 361.92,-70.06 351.46,-71.7 354.77,-77.87"/>
</a>
</g>
</g>
<!-- Node12 -->
<g id="Node000012" class="node">
<title>Node12</title>
<g id="a_Node000012"><a xlink:title=" ">
<polygon fill="#e0e0e0" stroke="#999999" points="517.5,-70 464.5,-70 464.5,-53 517.5,-53 517.5,-70"/>
<text text-anchor="middle" x="491" y="-59.6" font-family="Helvetica,sans-Serif" font-size="8.00">type_traits</text>
</a>
</g>
</g>
<!-- Node8&#45;&gt;Node12 -->
<g id="edge13_Node000008_Node000012" class="edge">
<title>Node8&#45;&gt;Node12</title>
<g id="a_edge13_Node000008_Node000012"><a xlink:title=" ">
<path fill="none" stroke="#63b8ff" d="M311.99,-105.97C349.88,-96.77 413.93,-81.22 454.26,-71.42"/>
<polygon fill="#63b8ff" stroke="#63b8ff" points="455.33,-74.76 464.22,-69 453.68,-67.96 455.33,-74.76"/>
</a>
</g>
</g>
<!-- Node13 -->
<g id="Node000013" class="node">
<title>Node13</title>
<g id="a_Node000013"><a xlink:href="../../d7/d65/intrinsics_8hpp.html" target="_top" xlink:title=" ">
<polygon fill="white" stroke="#666666" points="283.5,-70 198.5,-70 198.5,-53 283.5,-53 283.5,-70"/>
<text text-anchor="middle" x="241" y="-59.6" font-family="Helvetica,sans-Serif" font-size="8.00">../utils/intrinsics.hpp</text>
</a>
</g>
</g>
<!-- Node8&#45;&gt;Node13 -->
<g id="edge14_Node000008_Node000013" class="edge">
<title>Node8&#45;&gt;Node13</title>
<g id="a_edge14_Node000008_Node000013"><a xlink:title=" ">
<path fill="none" stroke="#63b8ff" d="M275.1,-105.97C269.37,-98.67 260.49,-87.35 253.24,-78.1"/>
<polygon fill="#63b8ff" stroke="#63b8ff" points="255.85,-75.76 246.93,-70.06 250.34,-80.08 255.85,-75.76"/>
</a>
</g>
</g>
<!-- Node13&#45;&gt;Node5 -->
<g id="edge15_Node000013_Node000005" class="edge">
<title>Node13&#45;&gt;Node5</title>
<g id="a_edge15_Node000013_Node000005"><a xlink:title=" ">
<path fill="none" stroke="#63b8ff" d="M230.52,-52.97C219.62,-45.14 202.3,-32.7 188.98,-23.13"/>
<polygon fill="#63b8ff" stroke="#63b8ff" points="190.68,-20.05 180.52,-17.06 186.6,-25.73 190.68,-20.05"/>
</a>
</g>
</g>
<!-- Node14 -->
<g id="Node000014" class="node">
<title>Node14</title>
<g id="a_Node000014"><a xlink:title=" ">
<polygon fill="#e0e0e0" stroke="#999999" points="260,-17 222,-17 222,0 260,0 260,-17"/>
<text text-anchor="middle" x="241" y="-6.6" font-family="Helvetica,sans-Serif" font-size="8.00">cstdlib</text>
</a>
</g>
</g>
<!-- Node13&#45;&gt;Node14 -->
<g id="edge16_Node000013_Node000014" class="edge">
<title>Node13&#45;&gt;Node14</title>
<g id="a_edge16_Node000013_Node000014"><a xlink:title=" ">
<path fill="none" stroke="#63b8ff" d="M241,-52.97C241,-46.19 241,-35.97 241,-27.13"/>
<polygon fill="#63b8ff" stroke="#63b8ff" points="244.5,-27.06 241,-17.06 237.5,-27.06 244.5,-27.06"/>
</a>
</g>
</g>
<!-- Node15&#45;&gt;Node10 -->
<g id="edge18_Node000015_Node000010" class="edge">
<title>Node15&#45;&gt;Node10</title>
<g id="a_edge18_Node000015_Node000010"><a xlink:title=" ">
<path fill="none" stroke="#63b8ff" d="M394.9,-105.97C400.63,-98.67 409.51,-87.35 416.76,-78.1"/>
<polygon fill="#63b8ff" stroke="#63b8ff" points="419.66,-80.08 423.07,-70.06 414.15,-75.76 419.66,-80.08"/>
</a>
</g>
</g>
<!-- Node15&#45;&gt;Node12 -->
<g id="edge19_Node000015_Node000012" class="edge">
<title>Node15&#45;&gt;Node12</title>
<g id="a_edge19_Node000015_Node000012"><a xlink:title=" ">
<path fill="none" stroke="#63b8ff" d="M404.05,-105.97C420.55,-97.73 447.26,-84.37 466.72,-74.64"/>
<polygon fill="#63b8ff" stroke="#63b8ff" points="468.51,-77.66 475.89,-70.06 465.38,-71.4 468.51,-77.66"/>
</a>
</g>
</g>
</g>
</svg>
