<?xml version="1.0" encoding="UTF-8" standalone="no"?>
<!DOCTYPE svg PUBLIC "-//W3C//DTD SVG 1.1//EN"
 "http://www.w3.org/Graphics/SVG/1.1/DTD/svg11.dtd">
<!-- Generated by graphviz version 2.43.0 (0)
 -->
<!-- Title: grid.hpp Pages: 1 -->
<svg width="745pt" height="184pt"
 viewBox="0.00 0.00 745.00 184.00" xmlns="http://www.w3.org/2000/svg" xmlns:xlink="http://www.w3.org/1999/xlink">
<g id="graph0" class="graph" transform="scale(1 1) rotate(0) translate(4 180)">
<title>grid.hpp</title>
<!-- Node1 -->
<g id="Node000001" class="node">
<title>Node1</title>
<g id="a_Node000001"><a xlink:title=" ">
<polygon fill="#999999" stroke="#666666" points="456,-176 410,-176 410,-159 456,-159 456,-176"/>
<text text-anchor="middle" x="433" y="-165.6" font-family="Helvetica,sans-Serif" font-size="8.00">grid.hpp</text>
</a>
</g>
</g>
<!-- Node2 -->
<g id="Node000002" class="node">
<title>Node2</title>
<g id="a_Node000002"><a xlink:title=" ">
<polygon fill="#e0e0e0" stroke="#999999" points="50,-123 0,-123 0,-106 50,-106 50,-123"/>
<text text-anchor="middle" x="25" y="-112.6" font-family="Helvetica,sans-Serif" font-size="8.00">algorithm</text>
</a>
</g>
</g>
<!-- Node1&#45;&gt;Node2 -->
<g id="edge1_Node000001_Node000002" class="edge">
<title>Node1&#45;&gt;Node2</title>
<g id="a_edge1_Node000001_Node000002"><a xlink:title=" ">
<path fill="none" stroke="#63b8ff" d="M409.61,-164.34C351.15,-158.81 194.04,-143.14 64,-123 62.74,-122.8 61.45,-122.6 60.15,-122.38"/>
<polygon fill="#63b8ff" stroke="#63b8ff" points="60.59,-118.9 50.13,-120.61 59.37,-125.8 60.59,-118.9"/>
</a>
</g>
</g>
<!-- Node3 -->
<g id="Node000003" class="node">
<title>Node3</title>
<g id="a_Node000003"><a xlink:title=" ">
<polygon fill="#e0e0e0" stroke="#999999" points="141.5,-70 106.5,-70 106.5,-53 141.5,-53 141.5,-70"/>
<text text-anchor="middle" x="124" y="-59.6" font-family="Helvetica,sans-Serif" font-size="8.00">array</text>
</a>
</g>
</g>
<!-- Node1&#45;&gt;Node3 -->
<g id="edge2_Node000001_Node000003" class="edge">
<title>Node1&#45;&gt;Node3</title>
<g id="a_edge2_Node000001_Node000003"><a xlink:title=" ">
<path fill="none" stroke="#63b8ff" d="M409.93,-160.21C380.85,-152.16 329.42,-137.51 286,-123 238.21,-107.03 183.45,-85.99 151.4,-73.4"/>
<polygon fill="#63b8ff" stroke="#63b8ff" points="152.42,-70.04 141.83,-69.63 149.85,-76.55 152.42,-70.04"/>
</a>
</g>
</g>
<!-- Node4 -->
<g id="Node000004" class="node">
<title>Node4</title>
<g id="a_Node000004"><a xlink:title=" ">
<polygon fill="#e0e0e0" stroke="#999999" points="629,-123 587,-123 587,-106 629,-106 629,-123"/>
<text text-anchor="middle" x="608" y="-112.6" font-family="Helvetica,sans-Serif" font-size="8.00">cassert</text>
</a>
</g>
</g>
<!-- Node1&#45;&gt;Node4 -->
<g id="edge3_Node000001_Node000004" class="edge">
<title>Node1&#45;&gt;Node4</title>
<g id="a_edge3_Node000001_Node000004"><a xlink:title=" ">
<path fill="none" stroke="#63b8ff" d="M456.24,-159.73C487.25,-150.69 542.25,-134.66 576.83,-124.58"/>
<polygon fill="#63b8ff" stroke="#63b8ff" points="578.24,-127.82 586.86,-121.66 576.28,-121.1 578.24,-127.82"/>
</a>
</g>
</g>
<!-- Node5 -->
<g id="Node000005" class="node">
<title>Node5</title>
<g id="a_Node000005"><a xlink:title=" ">
<polygon fill="#e0e0e0" stroke="#999999" points="369,-17 327,-17 327,0 369,0 369,-17"/>
<text text-anchor="middle" x="348" y="-6.6" font-family="Helvetica,sans-Serif" font-size="8.00">cstddef</text>
</a>
</g>
</g>
<!-- Node1&#45;&gt;Node5 -->
<g id="edge4_Node000001_Node000005" class="edge">
<title>Node1&#45;&gt;Node5</title>
<g id="a_edge4_Node000001_Node000005"><a xlink:title=" ">
<path fill="none" stroke="#63b8ff" d="M409.88,-163.62C340.02,-154.36 133.62,-122.89 97,-70 92.7,-63.79 92.13,-58.78 97,-53 124.74,-20.04 255.6,-12.05 316.58,-10.12"/>
<polygon fill="#63b8ff" stroke="#63b8ff" points="316.88,-13.61 326.77,-9.83 316.68,-6.61 316.88,-13.61"/>
</a>
</g>
</g>
<!-- Node6 -->
<g id="Node000006" class="node">
<title>Node6</title>
<g id="a_Node000006"><a xlink:title=" ">
<polygon fill="#e0e0e0" stroke="#999999" points="585.5,-70 532.5,-70 532.5,-53 585.5,-53 585.5,-70"/>
<text text-anchor="middle" x="559" y="-59.6" font-family="Helvetica,sans-Serif" font-size="8.00">type_traits</text>
</a>
</g>
</g>
<!-- Node1&#45;&gt;Node6 -->
<g id="edge5_Node000001_Node000006" class="edge">
<title>Node1&#45;&gt;Node6</title>
<g id="a_edge5_Node000001_Node000006"><a xlink:title=" ">
<path fill="none" stroke="#63b8ff" d="M456.33,-162.97C480.53,-158.1 517.85,-147.04 540,-123 550.73,-111.35 555.4,-93.69 557.43,-80.45"/>
<polygon fill="#63b8ff" stroke="#63b8ff" points="560.95,-80.56 558.63,-70.22 553.99,-79.75 560.95,-80.56"/>
</a>
</g>
</g>
<!-- Node7 -->
<g id="Node000007" class="node">
<title>Node7</title>
<g id="a_Node000007"><a xlink:title=" ">
<polygon fill="#e0e0e0" stroke="#999999" points="681,-123 647,-123 647,-106 681,-106 681,-123"/>
<text text-anchor="middle" x="664" y="-112.6" font-family="Helvetica,sans-Serif" font-size="8.00">utility</text>
</a>
</g>
</g>
<!-- Node1&#45;&gt;Node7 -->
<g id="edge6_Node000001_Node000007" class="edge">
<title>Node1&#45;&gt;Node7</title>
<g id="a_edge6_Node000001_Node000007"><a xlink:title=" ">
<path fill="none" stroke="#63b8ff" d="M456.18,-162.14C492.59,-155.18 565.58,-140.74 636.93,-123.11"/>
<polygon fill="#63b8ff" stroke="#63b8ff" points="638.13,-126.42 646.98,-120.6 636.43,-119.62 638.13,-126.42"/>
</a>
</g>
</g>
<!-- Node8 -->
<g id="Node000008" class="node">
<title>Node8</title>
<g id="a_Node000008"><a xlink:title=" ">
<polygon fill="#e0e0e0" stroke="#999999" points="737,-123 699,-123 699,-106 737,-106 737,-123"/>
<text text-anchor="middle" x="718" y="-112.6" font-family="Helvetica,sans-Serif" font-size="8.00">vector</text>
</a>
</g>
</g>
<!-- Node1&#45;&gt;Node8 -->
<g id="edge7_Node000001_Node000008" class="edge">
<title>Node1&#45;&gt;Node8</title>
<g id="a_edge7_Node000001_Node000008"><a xlink:title=" ">
<path fill="none" stroke="#63b8ff" d="M456.18,-163.32C499.81,-157.19 597.27,-142.72 688.8,-123.07"/>
<polygon fill="#63b8ff" stroke="#63b8ff" points="689.75,-126.45 698.78,-120.9 688.26,-119.61 689.75,-126.45"/>
</a>
</g>
</g>
<!-- Node9 -->
<g id="Node000009" class="node">
<title>Node9</title>
<g id="a_Node000009"><a xlink:href="../../df/d93/utils_8hpp.html" target="_top" xlink:title=" ">
<polygon fill="white" stroke="#666666" points="363,-123 295,-123 295,-106 363,-106 363,-123"/>
<text text-anchor="middle" x="329" y="-112.6" font-family="Helvetica,sans-Serif" font-size="8.00">../utils/utils.hpp</text>
</a>
</g>
</g>
<!-- Node1&#45;&gt;Node9 -->
<g id="edge8_Node000001_Node000009" class="edge">
<title>Node1&#45;&gt;Node9</title>
<g id="a_edge8_Node000001_Node000009"><a xlink:title=" ">
<path fill="none" stroke="#63b8ff" d="M417.65,-158.97C400.76,-150.69 373.35,-137.25 353.48,-127.5"/>
<polygon fill="#63b8ff" stroke="#63b8ff" points="354.93,-124.32 344.41,-123.06 351.85,-130.6 354.93,-124.32"/>
</a>
</g>
</g>
<!-- Node14 -->
<g id="Node000014" class="node">
<title>Node14</title>
<g id="a_Node000014"><a xlink:href="../../d7/d65/intrinsics_8hpp.html" target="_top" xlink:title=" ">
<polygon fill="white" stroke="#666666" points="461.5,-70 376.5,-70 376.5,-53 461.5,-53 461.5,-70"/>
<text text-anchor="middle" x="419" y="-59.6" font-family="Helvetica,sans-Serif" font-size="8.00">../utils/intrinsics.hpp</text>
</a>
</g>
</g>
<!-- Node1&#45;&gt;Node14 -->
<g id="edge23_Node000001_Node000014" class="edge">
<title>Node1&#45;&gt;Node14</title>
<g id="a_edge23_Node000001_Node000014"><a xlink:title=" ">
<path fill="none" stroke="#63b8ff" d="M427.77,-158.91C422.34,-150.56 414.22,-136.5 411,-123 407.58,-108.64 410.25,-91.99 413.4,-79.79"/>
<polygon fill="#63b8ff" stroke="#63b8ff" points="416.8,-80.62 416.26,-70.04 410.08,-78.65 416.8,-80.62"/>
</a>
</g>
</g>
<!-- Node17 -->
<g id="Node000017" class="node">
<title>Node17</title>
<g id="a_Node000017"><a xlink:href="../../d1/d2d/weighted__node_8hpp.html" target="_top" xlink:title=" ">
<polygon fill="white" stroke="#666666" points="530.5,-123 419.5,-123 419.5,-106 530.5,-106 530.5,-123"/>
<text text-anchor="middle" x="475" y="-112.6" font-family="Helvetica,sans-Serif" font-size="8.00">nodes/weighted_node.hpp</text>
</a>
</g>
</g>
<!-- Node1&#45;&gt;Node17 -->
<g id="edge20_Node000001_Node000017" class="edge">
<title>Node1&#45;&gt;Node17</title>
<g id="a_edge20_Node000001_Node000017"><a xlink:title=" ">
<path fill="none" stroke="#63b8ff" d="M439.2,-158.97C445.28,-151.59 454.72,-140.12 462.39,-130.81"/>
<polygon fill="#63b8ff" stroke="#63b8ff" points="465.12,-133 468.78,-123.06 459.72,-128.55 465.12,-133"/>
</a>
</g>
</g>
<!-- Node9&#45;&gt;Node3 -->
<g id="edge9_Node000009_Node000003" class="edge">
<title>Node9&#45;&gt;Node3</title>
<g id="a_edge9_Node000009_Node000003"><a xlink:title=" ">
<path fill="none" stroke="#63b8ff" d="M296.77,-105.94C263.01,-97.96 208.2,-84.8 151.54,-70.07"/>
<polygon fill="#63b8ff" stroke="#63b8ff" points="152.26,-66.64 141.7,-67.5 150.49,-73.41 152.26,-66.64"/>
</a>
</g>
</g>
<!-- Node9&#45;&gt;Node5 -->
<g id="edge11_Node000009_Node000005" class="edge">
<title>Node9&#45;&gt;Node5</title>
<g id="a_edge11_Node000009_Node000005"><a xlink:title=" ">
<path fill="none" stroke="#63b8ff" d="M330.43,-105.68C333.46,-89.11 340.58,-50.11 344.77,-27.18"/>
<polygon fill="#63b8ff" stroke="#63b8ff" points="348.25,-27.59 346.61,-17.12 341.37,-26.33 348.25,-27.59"/>
</a>
</g>
</g>
<!-- Node9&#45;&gt;Node6 -->
<g id="edge15_Node000009_Node000006" class="edge">
<title>Node9&#45;&gt;Node6</title>
<g id="a_edge15_Node000009_Node000006"><a xlink:title=" ">
<path fill="none" stroke="#63b8ff" d="M362.94,-105.97C405.62,-96.51 478.63,-80.32 522.49,-70.59"/>
<polygon fill="#63b8ff" stroke="#63b8ff" points="523.45,-73.97 532.45,-68.39 521.93,-67.13 523.45,-73.97"/>
</a>
</g>
</g>
<!-- Node10 -->
<g id="Node000010" class="node">
<title>Node10</title>
<g id="a_Node000010"><a xlink:title=" ">
<polygon fill="#e0e0e0" stroke="#999999" points="252,-70 214,-70 214,-53 252,-53 252,-70"/>
<text text-anchor="middle" x="233" y="-59.6" font-family="Helvetica,sans-Serif" font-size="8.00">cmath</text>
</a>
</g>
</g>
<!-- Node9&#45;&gt;Node10 -->
<g id="edge10_Node000009_Node000010" class="edge">
<title>Node9&#45;&gt;Node10</title>
<g id="a_edge10_Node000009_Node000010"><a xlink:title=" ">
<path fill="none" stroke="#63b8ff" d="M314.83,-105.97C299.38,-97.76 274.4,-84.49 256.1,-74.77"/>
<polygon fill="#63b8ff" stroke="#63b8ff" points="257.7,-71.66 247.22,-70.06 254.41,-77.84 257.7,-71.66"/>
</a>
</g>
</g>
<!-- Node11 -->
<g id="Node000011" class="node">
<title>Node11</title>
<g id="a_Node000011"><a xlink:title=" ">
<polygon fill="#e0e0e0" stroke="#999999" points="320,-70 270,-70 270,-53 320,-53 320,-70"/>
<text text-anchor="middle" x="295" y="-59.6" font-family="Helvetica,sans-Serif" font-size="8.00">functional</text>
</a>
</g>
</g>
<!-- Node9&#45;&gt;Node11 -->
<g id="edge12_Node000009_Node000011" class="edge">
<title>Node9&#45;&gt;Node11</title>
<g id="a_edge12_Node000009_Node000011"><a xlink:title=" ">
<path fill="none" stroke="#63b8ff" d="M323.98,-105.97C319.16,-98.74 311.72,-87.59 305.59,-78.39"/>
<polygon fill="#63b8ff" stroke="#63b8ff" points="308.5,-76.44 300.04,-70.06 302.67,-80.32 308.5,-76.44"/>
</a>
</g>
</g>
<!-- Node12 -->
<g id="Node000012" class="node">
<title>Node12</title>
<g id="a_Node000012"><a xlink:title=" ">
<polygon fill="#e0e0e0" stroke="#999999" points="514,-70 480,-70 480,-53 514,-53 514,-70"/>
<text text-anchor="middle" x="497" y="-59.6" font-family="Helvetica,sans-Serif" font-size="8.00">limits</text>
</a>
</g>
</g>
<!-- Node9&#45;&gt;Node12 -->
<g id="edge13_Node000009_Node000012" class="edge">
<title>Node9&#45;&gt;Node12</title>
<g id="a_edge13_Node000009_Node000012"><a xlink:title=" ">
<path fill="none" stroke="#63b8ff" d="M353.79,-105.97C384.92,-96.52 438.13,-80.37 470.19,-70.64"/>
<polygon fill="#63b8ff" stroke="#63b8ff" points="471.24,-73.98 479.8,-67.72 469.21,-67.28 471.24,-73.98"/>
</a>
</g>
</g>
<!-- Node13 -->
<g id="Node000013" class="node">
<title>Node13</title>
<g id="a_Node000013"><a xlink:title=" ">
<polygon fill="#e0e0e0" stroke="#999999" points="196,-70 160,-70 160,-53 196,-53 196,-70"/>
<text text-anchor="middle" x="178" y="-59.6" font-family="Helvetica,sans-Serif" font-size="8.00">string</text>
</a>
</g>
</g>
<!-- Node9&#45;&gt;Node13 -->
<g id="edge14_Node000009_Node000013" class="edge">
<title>Node9&#45;&gt;Node13</title>
<g id="a_edge14_Node000009_Node000013"><a xlink:title=" ">
<path fill="none" stroke="#63b8ff" d="M306.72,-105.97C279.86,-96.9 234.72,-81.66 205.66,-71.84"/>
<polygon fill="#63b8ff" stroke="#63b8ff" points="206.7,-68.5 196.11,-68.62 204.46,-75.13 206.7,-68.5"/>
</a>
</g>
</g>
<!-- Node9&#45;&gt;Node14 -->
<g id="edge16_Node000009_Node000014" class="edge">
<title>Node9&#45;&gt;Node14</title>
<g id="a_edge16_Node000009_Node000014"><a xlink:title=" ">
<path fill="none" stroke="#63b8ff" d="M342.28,-105.97C356.64,-97.84 379.76,-84.74 396.87,-75.04"/>
<polygon fill="#63b8ff" stroke="#63b8ff" points="398.69,-78.03 405.67,-70.06 395.24,-71.94 398.69,-78.03"/>
</a>
</g>
</g>
<!-- Node14&#45;&gt;Node5 -->
<g id="edge18_Node000014_Node000005" class="edge">
<title>Node14&#45;&gt;Node5</title>
<g id="a_edge18_Node000014_Node000005"><a xlink:title=" ">
<path fill="none" stroke="#63b8ff" d="M408.52,-52.97C397.62,-45.14 380.3,-32.7 366.98,-23.13"/>
<polygon fill="#63b8ff" stroke="#63b8ff" points="368.68,-20.05 358.52,-17.06 364.6,-25.73 368.68,-20.05"/>
</a>
</g>
</g>
<!-- Node15 -->
<g id="Node000015" class="node">
<title>Node15</title>
<g id="a_Node000015"><a xlink:title=" ">
<polygon fill="#e0e0e0" stroke="#999999" points="489,-17 449,-17 449,0 489,0 489,-17"/>
<text text-anchor="middle" x="469" y="-6.6" font-family="Helvetica,sans-Serif" font-size="8.00">atomic</text>
</a>
</g>
</g>
<!-- Node14&#45;&gt;Node15 -->
<g id="edge17_Node000014_Node000015" class="edge">
<title>Node14&#45;&gt;Node15</title>
<g id="a_edge17_Node000014_Node000015"><a xlink:title=" ">
<path fill="none" stroke="#63b8ff" d="M426.38,-52.97C433.76,-45.44 445.32,-33.65 454.54,-24.25"/>
<polygon fill="#63b8ff" stroke="#63b8ff" points="457.09,-26.65 461.59,-17.06 452.09,-21.75 457.09,-26.65"/>
</a>
</g>
</g>
<!-- Node16 -->
<g id="Node000016" class="node">
<title>Node16</title>
<g id="a_Node000016"><a xlink:title=" ">
<polygon fill="#e0e0e0" stroke="#999999" points="431,-17 393,-17 393,0 431,0 431,-17"/>
<text text-anchor="middle" x="412" y="-6.6" font-family="Helvetica,sans-Serif" font-size="8.00">cstdlib</text>
</a>
</g>
</g>
<!-- Node14&#45;&gt;Node16 -->
<g id="edge19_Node000014_Node000016" class="edge">
<title>Node14&#45;&gt;Node16</title>
<g id="a_edge19_Node000014_Node000016"><a xlink:title=" ">
<path fill="none" stroke="#63b8ff" d="M417.97,-52.97C417.04,-46.19 415.63,-35.97 414.42,-27.13"/>
<polygon fill="#63b8ff" stroke="#63b8ff" points="417.86,-26.49 413.04,-17.06 410.93,-27.44 417.86,-26.49"/>
</a>
</g>
</g>
<!-- Node17&#45;&gt;Node6 -->
<g id="edge22_Node000017_Node000006" class="edge">
<title>Node17&#45;&gt;Node6</title>
<g id="a_edge22_Node000017_Node000006"><a xlink:title=" ">
<path fill="none" stroke="#63b8ff" d="M487.39,-105.97C500.67,-97.91 521.98,-84.98 537.9,-75.31"/>
<polygon fill="#63b8ff" stroke="#63b8ff" points="539.82,-78.24 546.55,-70.06 536.19,-72.25 539.82,-78.24"/>
</a>
</g>
</g>
<!-- Node17&#45;&gt;Node12 -->
<g id="edge21_Node000017_Node000012" class="edge">
<title>Node17&#45;&gt;Node12</title>
<g id="a_edge21_Node000017_Node000012"><a xlink:title=" ">
<path fill="none" stroke="#63b8ff" d="M478.25,-105.97C481.27,-98.97 485.88,-88.28 489.77,-79.25"/>
<polygon fill="#63b8ff" stroke="#63b8ff" points="492.99,-80.62 493.74,-70.06 486.57,-77.85 492.99,-80.62"/>
</a>
</g>
</g>
</g>
</svg>
