<?xml version="1.0" encoding="UTF-8" standalone="no"?>
<!DOCTYPE svg PUBLIC "-//W3C//DTD SVG 1.1//EN"
 "http://www.w3.org/Graphics/SVG/1.1/DTD/svg11.dtd">
<!-- Generated by graphviz version 2.43.0 (0)
 -->
<!-- Title: grid.hpp Pages: 1 -->
<svg width="837pt" height="184pt"
 viewBox="0.00 0.00 837.00 184.00" xmlns="http://www.w3.org/2000/svg" xmlns:xlink="http://www.w3.org/1999/xlink">
<g id="graph0" class="graph" transform="scale(1 1) rotate(0) translate(4 180)">
<title>grid.hpp</title>
<!-- Node1 -->
<g id="Node000001" class="node">
<title>Node1</title>
<g id="a_Node000001"><a xlink:title=" ">
<polygon fill="#999999" stroke="#666666" points="479,-176 429,-176 429,-159 479,-159 479,-176"/>
<text text-anchor="middle" x="454" y="-165.6" font-family="Helvetica,sans-Serif" font-size="8.00">grid.hpp</text>
</a>
</g>
</g>
<!-- Node2 -->
<g id="Node000002" class="node">
<title>Node2</title>
<g id="a_Node000002"><a xlink:title=" ">
<polygon fill="#e0e0e0" stroke="#999999" points="56,-123 0,-123 0,-106 56,-106 56,-123"/>
<text text-anchor="middle" x="28" y="-112.6" font-family="Helvetica,sans-Serif" font-size="8.00">algorithm</text>
</a>
</g>
</g>
<!-- Node1&#45;&gt;Node2 -->
<g id="edge1_Node000001_Node000002" class="edge">
<title>Node1&#45;&gt;Node2</title>
<g id="a_edge1_Node000001_Node000002"><a xlink:title=" ">
<path fill="none" stroke="#63b8ff" d="M428.77,-164.2C367.26,-158.49 204.77,-142.65 70,-123 68.9,-122.84 67.79,-122.67 66.66,-122.5"/>
<polygon fill="#63b8ff" stroke="#63b8ff" points="66.86,-118.99 56.43,-120.83 65.73,-125.89 66.86,-118.99"/>
</a>
</g>
</g>
<!-- Node3 -->
<g id="Node000003" class="node">
<title>Node3</title>
<g id="a_Node000003"><a xlink:title=" ">
<polygon fill="#e0e0e0" stroke="#999999" points="188,-70 150,-70 150,-53 188,-53 188,-70"/>
<text text-anchor="middle" x="169" y="-59.6" font-family="Helvetica,sans-Serif" font-size="8.00">array</text>
</a>
</g>
</g>
<!-- Node1&#45;&gt;Node3 -->
<g id="edge2_Node000001_Node000003" class="edge">
<title>Node1&#45;&gt;Node3</title>
<g id="a_edge2_Node000001_Node000003"><a xlink:title=" ">
<path fill="none" stroke="#63b8ff" d="M433.04,-158.85C382.72,-140.49 254.98,-93.87 197.63,-72.95"/>
<polygon fill="#63b8ff" stroke="#63b8ff" points="198.69,-69.61 188.1,-69.47 196.29,-76.18 198.69,-69.61"/>
</a>
</g>
</g>
<!-- Node4 -->
<g id="Node000004" class="node">
<title>Node4</title>
<g id="a_Node000004"><a xlink:title=" ">
<polygon fill="#e0e0e0" stroke="#999999" points="711.5,-123 664.5,-123 664.5,-106 711.5,-106 711.5,-123"/>
<text text-anchor="middle" x="688" y="-112.6" font-family="Helvetica,sans-Serif" font-size="8.00">cassert</text>
</a>
</g>
</g>
<!-- Node1&#45;&gt;Node4 -->
<g id="edge3_Node000001_Node000004" class="edge">
<title>Node1&#45;&gt;Node4</title>
<g id="a_edge3_Node000001_Node000004"><a xlink:title=" ">
<path fill="none" stroke="#63b8ff" d="M479.04,-161.04C521.33,-151.83 606.92,-133.17 654.39,-122.83"/>
<polygon fill="#63b8ff" stroke="#63b8ff" points="655.16,-126.24 664.19,-120.69 653.67,-119.4 655.16,-126.24"/>
</a>
</g>
</g>
<!-- Node5 -->
<g id="Node000005" class="node">
<title>Node5</title>
<g id="a_Node000005"><a xlink:title=" ">
<polygon fill="#e0e0e0" stroke="#999999" points="251.5,-17 204.5,-17 204.5,0 251.5,0 251.5,-17"/>
<text text-anchor="middle" x="228" y="-6.6" font-family="Helvetica,sans-Serif" font-size="8.00">cstddef</text>
</a>
</g>
</g>
<!-- Node1&#45;&gt;Node5 -->
<g id="edge4_Node000001_Node000005" class="edge">
<title>Node1&#45;&gt;Node5</title>
<g id="a_edge4_Node000001_Node000005"><a xlink:title=" ">
<path fill="none" stroke="#63b8ff" d="M428.91,-165.28C352.19,-161.28 124.6,-147.44 103,-123 66.76,-81.99 149.88,-40.42 197.53,-20.93"/>
<polygon fill="#63b8ff" stroke="#63b8ff" points="199.11,-24.07 207.1,-17.11 196.51,-17.56 199.11,-24.07"/>
</a>
</g>
</g>
<!-- Node6 -->
<g id="Node000006" class="node">
<title>Node6</title>
<g id="a_Node000006"><a xlink:title=" ">
<polygon fill="#e0e0e0" stroke="#999999" points="671.5,-70 612.5,-70 612.5,-53 671.5,-53 671.5,-70"/>
<text text-anchor="middle" x="642" y="-59.6" font-family="Helvetica,sans-Serif" font-size="8.00">type_traits</text>
</a>
</g>
</g>
<!-- Node1&#45;&gt;Node6 -->
<g id="edge5_Node000001_Node000006" class="edge">
<title>Node1&#45;&gt;Node6</title>
<g id="a_edge5_Node000001_Node000006"><a xlink:title=" ">
<path fill="none" stroke="#63b8ff" d="M479.26,-166.42C514.31,-164.98 577.8,-157.37 617,-123 629.55,-112 635.93,-93.7 639.09,-80.11"/>
<polygon fill="#63b8ff" stroke="#63b8ff" points="642.57,-80.54 641.05,-70.06 635.7,-79.2 642.57,-80.54"/>
</a>
</g>
</g>
<!-- Node7 -->
<g id="Node000007" class="node">
<title>Node7</title>
<g id="a_Node000007"><a xlink:title=" ">
<polygon fill="#e0e0e0" stroke="#999999" points="768.5,-123 729.5,-123 729.5,-106 768.5,-106 768.5,-123"/>
<text text-anchor="middle" x="749" y="-112.6" font-family="Helvetica,sans-Serif" font-size="8.00">utility</text>
</a>
</g>
</g>
<!-- Node1&#45;&gt;Node7 -->
<g id="edge6_Node000001_Node000007" class="edge">
<title>Node1&#45;&gt;Node7</title>
<g id="a_edge6_Node000001_Node000007"><a xlink:title=" ">
<path fill="none" stroke="#63b8ff" d="M479.19,-163.25C525.11,-157.15 625.65,-142.95 719.54,-123.12"/>
<polygon fill="#63b8ff" stroke="#63b8ff" points="720.43,-126.51 729.48,-121 718.97,-119.67 720.43,-126.51"/>
</a>
</g>
</g>
<!-- Node8 -->
<g id="Node000008" class="node">
<title>Node8</title>
<g id="a_Node000008"><a xlink:title=" ">
<polygon fill="#e0e0e0" stroke="#999999" points="829,-123 787,-123 787,-106 829,-106 829,-123"/>
<text text-anchor="middle" x="808" y="-112.6" font-family="Helvetica,sans-Serif" font-size="8.00">vector</text>
</a>
</g>
</g>
<!-- Node1&#45;&gt;Node8 -->
<g id="edge7_Node000001_Node000008" class="edge">
<title>Node1&#45;&gt;Node8</title>
<g id="a_edge7_Node000001_Node000008"><a xlink:title=" ">
<path fill="none" stroke="#63b8ff" d="M479.36,-164.07C532.62,-158.75 660.14,-144.95 776.61,-123.06"/>
<polygon fill="#63b8ff" stroke="#63b8ff" points="777.59,-126.43 786.76,-121.12 776.28,-119.55 777.59,-126.43"/>
</a>
</g>
</g>
<!-- Node9 -->
<g id="Node000009" class="node">
<title>Node9</title>
<g id="a_Node000009"><a xlink:href="../../df/d93/utils_8hpp.html" target="_top" xlink:title=" ">
<polygon fill="white" stroke="#666666" points="426,-123 346,-123 346,-106 426,-106 426,-123"/>
<text text-anchor="middle" x="386" y="-112.6" font-family="Helvetica,sans-Serif" font-size="8.00">../utils/utils.hpp</text>
</a>
</g>
</g>
<!-- Node1&#45;&gt;Node9 -->
<g id="edge8_Node000001_Node000009" class="edge">
<title>Node1&#45;&gt;Node9</title>
<g id="a_edge8_Node000001_Node000009"><a xlink:title=" ">
<path fill="none" stroke="#63b8ff" d="M443.97,-158.97C433.52,-151.14 416.93,-138.7 404.17,-129.13"/>
<polygon fill="#63b8ff" stroke="#63b8ff" points="406.17,-126.26 396.07,-123.06 401.97,-131.86 406.17,-126.26"/>
</a>
</g>
</g>
<!-- Node14 -->
<g id="Node000014" class="node">
<title>Node14</title>
<g id="a_Node000014"><a xlink:href="../../d7/d65/intrinsics_8hpp.html" target="_top" xlink:title=" ">
<polygon fill="white" stroke="#666666" points="537.5,-70 438.5,-70 438.5,-53 537.5,-53 537.5,-70"/>
<text text-anchor="middle" x="488" y="-59.6" font-family="Helvetica,sans-Serif" font-size="8.00">../utils/intrinsics.hpp</text>
</a>
</g>
</g>
<!-- Node1&#45;&gt;Node14 -->
<g id="edge23_Node000001_Node000014" class="edge">
<title>Node1&#45;&gt;Node14</title>
<g id="a_edge23_Node000001_Node000014"><a xlink:title=" ">
<path fill="none" stroke="#63b8ff" d="M456.39,-158.65C459.93,-147.09 466.8,-124.82 473,-106 475.85,-97.34 479.14,-87.76 481.91,-79.79"/>
<polygon fill="#63b8ff" stroke="#63b8ff" points="485.28,-80.77 485.28,-70.18 478.67,-78.46 485.28,-80.77"/>
</a>
</g>
</g>
<!-- Node17 -->
<g id="Node000017" class="node">
<title>Node17</title>
<g id="a_Node000017"><a xlink:href="../../d1/d2d/weighted__node_8hpp.html" target="_top" xlink:title=" ">
<polygon fill="white" stroke="#666666" points="608,-123 482,-123 482,-106 608,-106 608,-123"/>
<text text-anchor="middle" x="545" y="-112.6" font-family="Helvetica,sans-Serif" font-size="8.00">nodes/weighted_node.hpp</text>
</a>
</g>
</g>
<!-- Node1&#45;&gt;Node17 -->
<g id="edge20_Node000001_Node000017" class="edge">
<title>Node1&#45;&gt;Node17</title>
<g id="a_edge20_Node000001_Node000017"><a xlink:title=" ">
<path fill="none" stroke="#63b8ff" d="M467.43,-158.97C481.94,-150.84 505.32,-137.74 522.63,-128.04"/>
<polygon fill="#63b8ff" stroke="#63b8ff" points="524.51,-131 531.52,-123.06 521.08,-124.89 524.51,-131"/>
</a>
</g>
</g>
<!-- Node18 -->
<g id="Node000018" class="node">
<title>Node18</title>
<g id="a_Node000018"><a xlink:href="../../d9/dfc/coord_8hpp.html" target="_top" xlink:title=" ">
<polygon fill="white" stroke="#666666" points="275.5,-123 112.5,-123 112.5,-106 275.5,-106 275.5,-123"/>
<text text-anchor="middle" x="194" y="-112.6" font-family="Helvetica,sans-Serif" font-size="8.00">include/types/containers/coord.hpp</text>
</a>
</g>
</g>
<!-- Node1&#45;&gt;Node18 -->
<g id="edge24_Node000001_Node000018" class="edge">
<title>Node1&#45;&gt;Node18</title>
<g id="a_edge24_Node000001_Node000018"><a xlink:title=" ">
<path fill="none" stroke="#63b8ff" d="M428.6,-161.52C385.53,-153.07 297.51,-135.8 242.38,-124.99"/>
<polygon fill="#63b8ff" stroke="#63b8ff" points="242.98,-121.54 232.49,-123.05 241.63,-128.41 242.98,-121.54"/>
</a>
</g>
</g>
<!-- Node9&#45;&gt;Node3 -->
<g id="edge9_Node000009_Node000003" class="edge">
<title>Node9&#45;&gt;Node3</title>
<g id="a_edge9_Node000009_Node000003"><a xlink:title=" ">
<path fill="none" stroke="#63b8ff" d="M351.42,-105.93C315.46,-97.97 257.29,-84.86 198.14,-70.21"/>
<polygon fill="#63b8ff" stroke="#63b8ff" points="198.81,-66.77 188.26,-67.75 197.12,-73.56 198.81,-66.77"/>
</a>
</g>
</g>
<!-- Node9&#45;&gt;Node5 -->
<g id="edge11_Node000009_Node000005" class="edge">
<title>Node9&#45;&gt;Node5</title>
<g id="a_edge11_Node000009_Node000005"><a xlink:title=" ">
<path fill="none" stroke="#63b8ff" d="M378.21,-105.74C365.66,-93.51 339.85,-69.45 315,-53 296.11,-40.5 273.12,-29.15 255.53,-21.18"/>
<polygon fill="#63b8ff" stroke="#63b8ff" points="256.92,-17.98 246.36,-17.12 254.08,-24.37 256.92,-17.98"/>
</a>
</g>
</g>
<!-- Node9&#45;&gt;Node6 -->
<g id="edge15_Node000009_Node000006" class="edge">
<title>Node9&#45;&gt;Node6</title>
<g id="a_edge15_Node000009_Node000006"><a xlink:title=" ">
<path fill="none" stroke="#63b8ff" d="M423.77,-105.97C471.69,-96.43 553.92,-80.05 602.6,-70.35"/>
<polygon fill="#63b8ff" stroke="#63b8ff" points="603.33,-73.77 612.45,-68.39 601.96,-66.91 603.33,-73.77"/>
</a>
</g>
</g>
<!-- Node10 -->
<g id="Node000010" class="node">
<title>Node10</title>
<g id="a_Node000010"><a xlink:title=" ">
<polygon fill="#e0e0e0" stroke="#999999" points="306,-70 264,-70 264,-53 306,-53 306,-70"/>
<text text-anchor="middle" x="285" y="-59.6" font-family="Helvetica,sans-Serif" font-size="8.00">cmath</text>
</a>
</g>
</g>
<!-- Node9&#45;&gt;Node10 -->
<g id="edge10_Node000009_Node000010" class="edge">
<title>Node9&#45;&gt;Node10</title>
<g id="a_edge10_Node000009_Node000010"><a xlink:title=" ">
<path fill="none" stroke="#63b8ff" d="M371.1,-105.97C354.76,-97.73 328.31,-84.37 309.04,-74.64"/>
<polygon fill="#63b8ff" stroke="#63b8ff" points="310.47,-71.44 299.96,-70.06 307.31,-77.69 310.47,-71.44"/>
</a>
</g>
</g>
<!-- Node11 -->
<g id="Node000011" class="node">
<title>Node11</title>
<g id="a_Node000011"><a xlink:title=" ">
<polygon fill="#e0e0e0" stroke="#999999" points="420,-70 362,-70 362,-53 420,-53 420,-70"/>
<text text-anchor="middle" x="391" y="-59.6" font-family="Helvetica,sans-Serif" font-size="8.00">functional</text>
</a>
</g>
</g>
<!-- Node9&#45;&gt;Node11 -->
<g id="edge12_Node000009_Node000011" class="edge">
<title>Node9&#45;&gt;Node11</title>
<g id="a_edge12_Node000009_Node000011"><a xlink:title=" ">
<path fill="none" stroke="#63b8ff" d="M386.74,-105.97C387.4,-99.19 388.41,-88.97 389.27,-80.13"/>
<polygon fill="#63b8ff" stroke="#63b8ff" points="392.77,-80.35 390.26,-70.06 385.8,-79.67 392.77,-80.35"/>
</a>
</g>
</g>
<!-- Node12 -->
<g id="Node000012" class="node">
<title>Node12</title>
<g id="a_Node000012"><a xlink:title=" ">
<polygon fill="#e0e0e0" stroke="#999999" points="594,-70 556,-70 556,-53 594,-53 594,-70"/>
<text text-anchor="middle" x="575" y="-59.6" font-family="Helvetica,sans-Serif" font-size="8.00">limits</text>
</a>
</g>
</g>
<!-- Node9&#45;&gt;Node12 -->
<g id="edge13_Node000009_Node000012" class="edge">
<title>Node9&#45;&gt;Node12</title>
<g id="a_edge13_Node000009_Node000012"><a xlink:title=" ">
<path fill="none" stroke="#63b8ff" d="M413.89,-105.97C449.31,-96.42 510.13,-80 546.05,-70.31"/>
<polygon fill="#63b8ff" stroke="#63b8ff" points="547.17,-73.64 555.91,-67.65 545.34,-66.88 547.17,-73.64"/>
</a>
</g>
</g>
<!-- Node13 -->
<g id="Node000013" class="node">
<title>Node13</title>
<g id="a_Node000013"><a xlink:title=" ">
<polygon fill="#e0e0e0" stroke="#999999" points="246,-70 206,-70 206,-53 246,-53 246,-70"/>
<text text-anchor="middle" x="226" y="-59.6" font-family="Helvetica,sans-Serif" font-size="8.00">string</text>
</a>
</g>
</g>
<!-- Node9&#45;&gt;Node13 -->
<g id="edge14_Node000009_Node000013" class="edge">
<title>Node9&#45;&gt;Node13</title>
<g id="a_edge14_Node000009_Node000013"><a xlink:title=" ">
<path fill="none" stroke="#63b8ff" d="M362.39,-105.97C334.12,-96.96 286.73,-81.86 255.92,-72.04"/>
<polygon fill="#63b8ff" stroke="#63b8ff" points="256.75,-68.63 246.16,-68.93 254.62,-75.3 256.75,-68.63"/>
</a>
</g>
</g>
<!-- Node9&#45;&gt;Node14 -->
<g id="edge16_Node000009_Node000014" class="edge">
<title>Node9&#45;&gt;Node14</title>
<g id="a_edge16_Node000009_Node000014"><a xlink:title=" ">
<path fill="none" stroke="#63b8ff" d="M401.05,-105.97C417.55,-97.73 444.26,-84.37 463.72,-74.64"/>
<polygon fill="#63b8ff" stroke="#63b8ff" points="465.51,-77.66 472.89,-70.06 462.38,-71.4 465.51,-77.66"/>
</a>
</g>
</g>
<!-- Node14&#45;&gt;Node5 -->
<g id="edge18_Node000014_Node000005" class="edge">
<title>Node14&#45;&gt;Node5</title>
<g id="a_edge18_Node000014_Node000005"><a xlink:title=" ">
<path fill="none" stroke="#63b8ff" d="M449.64,-52.97C398.84,-43.01 310.06,-25.6 261.71,-16.11"/>
<polygon fill="#63b8ff" stroke="#63b8ff" points="262.24,-12.65 251.76,-14.16 260.89,-19.52 262.24,-12.65"/>
</a>
</g>
</g>
<!-- Node15 -->
<g id="Node000015" class="node">
<title>Node15</title>
<g id="a_Node000015"><a xlink:title=" ">
<polygon fill="#e0e0e0" stroke="#999999" points="541,-17 497,-17 497,0 541,0 541,-17"/>
<text text-anchor="middle" x="519" y="-6.6" font-family="Helvetica,sans-Serif" font-size="8.00">atomic</text>
</a>
</g>
</g>
<!-- Node14&#45;&gt;Node15 -->
<g id="edge17_Node000014_Node000015" class="edge">
<title>Node14&#45;&gt;Node15</title>
<g id="a_edge17_Node000014_Node000015"><a xlink:title=" ">
<path fill="none" stroke="#63b8ff" d="M492.57,-52.97C496.92,-45.82 503.61,-34.82 509.17,-25.67"/>
<polygon fill="#63b8ff" stroke="#63b8ff" points="512.2,-27.42 514.41,-17.06 506.22,-23.78 512.2,-27.42"/>
</a>
</g>
</g>
<!-- Node16 -->
<g id="Node000016" class="node">
<title>Node16</title>
<g id="a_Node000016"><a xlink:title=" ">
<polygon fill="#e0e0e0" stroke="#999999" points="479,-17 435,-17 435,0 479,0 479,-17"/>
<text text-anchor="middle" x="457" y="-6.6" font-family="Helvetica,sans-Serif" font-size="8.00">cstdlib</text>
</a>
</g>
</g>
<!-- Node14&#45;&gt;Node16 -->
<g id="edge19_Node000014_Node000016" class="edge">
<title>Node14&#45;&gt;Node16</title>
<g id="a_edge19_Node000014_Node000016"><a xlink:title=" ">
<path fill="none" stroke="#63b8ff" d="M483.43,-52.97C479.08,-45.82 472.39,-34.82 466.83,-25.67"/>
<polygon fill="#63b8ff" stroke="#63b8ff" points="469.78,-23.78 461.59,-17.06 463.8,-27.42 469.78,-23.78"/>
</a>
</g>
</g>
<!-- Node17&#45;&gt;Node6 -->
<g id="edge22_Node000017_Node000006" class="edge">
<title>Node17&#45;&gt;Node6</title>
<g id="a_edge22_Node000017_Node000006"><a xlink:title=" ">
<path fill="none" stroke="#63b8ff" d="M559.31,-105.97C574.93,-97.76 600.17,-84.49 618.66,-74.77"/>
<polygon fill="#63b8ff" stroke="#63b8ff" points="620.41,-77.81 627.63,-70.06 617.15,-71.61 620.41,-77.81"/>
</a>
</g>
</g>
<!-- Node17&#45;&gt;Node12 -->
<g id="edge21_Node000017_Node000012" class="edge">
<title>Node17&#45;&gt;Node12</title>
<g id="a_edge21_Node000017_Node000012"><a xlink:title=" ">
<path fill="none" stroke="#63b8ff" d="M549.43,-105.97C553.59,-98.89 559.97,-88.05 565.32,-78.96"/>
<polygon fill="#63b8ff" stroke="#63b8ff" points="568.5,-80.45 570.56,-70.06 562.47,-76.9 568.5,-80.45"/>
</a>
</g>
</g>
<!-- Node18&#45;&gt;Node3 -->
<g id="edge25_Node000018_Node000003" class="edge">
<title>Node18&#45;&gt;Node3</title>
<g id="a_edge25_Node000018_Node000003"><a xlink:title=" ">
<path fill="none" stroke="#63b8ff" d="M190.31,-105.97C186.88,-98.97 181.64,-88.28 177.21,-79.25"/>
<polygon fill="#63b8ff" stroke="#63b8ff" points="180.25,-77.49 172.7,-70.06 173.96,-80.58 180.25,-77.49"/>
</a>
</g>
</g>
<!-- Node18&#45;&gt;Node5 -->
<g id="edge26_Node000018_Node000005" class="edge">
<title>Node18&#45;&gt;Node5</title>
<g id="a_edge26_Node000018_Node000005"><a xlink:title=" ">
<path fill="none" stroke="#63b8ff" d="M178.6,-105.96C158.66,-95.13 127.93,-74.14 141,-53 152.72,-34.04 175.48,-23.07 194.78,-16.89"/>
<polygon fill="#63b8ff" stroke="#63b8ff" points="195.86,-20.22 204.49,-14.07 193.91,-13.5 195.86,-20.22"/>
</a>
</g>
</g>
</g>
</svg>
