<?xml version="1.0" encoding="UTF-8" standalone="no"?>
<!DOCTYPE svg PUBLIC "-//W3C//DTD SVG 1.1//EN"
 "http://www.w3.org/Graphics/SVG/1.1/DTD/svg11.dtd">
<!-- Generated by graphviz version 2.43.0 (0)
 -->
<!-- Title: fstar.hpp Pages: 1 -->
<svg width="774pt" height="237pt"
 viewBox="0.00 0.00 773.64 237.00" xmlns="http://www.w3.org/2000/svg" xmlns:xlink="http://www.w3.org/1999/xlink">
<g id="graph0" class="graph" transform="scale(1 1) rotate(0) translate(4 233)">
<title>fstar.hpp</title>
<!-- Node1 -->
<g id="Node000001" class="node">
<title>Node1</title>
<g id="a_Node000001"><a xlink:title=" ">
<polygon fill="#999999" stroke="#666666" points="502.75,-229 455.75,-229 455.75,-212 502.75,-212 502.75,-229"/>
<text text-anchor="middle" x="479.25" y="-218.6" font-family="Helvetica,sans-Serif" font-size="8.00">fstar.hpp</text>
</a>
</g>
</g>
<!-- Node2 -->
<g id="Node000002" class="node">
<title>Node2</title>
<g id="a_Node000002"><a xlink:title=" ">
<polygon fill="#e0e0e0" stroke="#999999" points="589.25,-17 547.25,-17 547.25,0 589.25,0 589.25,-17"/>
<text text-anchor="middle" x="568.25" y="-6.6" font-family="Helvetica,sans-Serif" font-size="8.00">cstddef</text>
</a>
</g>
</g>
<!-- Node1&#45;&gt;Node2 -->
<g id="edge1_Node000001_Node000002" class="edge">
<title>Node1&#45;&gt;Node2</title>
<g id="a_edge1_Node000001_Node000002"><a xlink:title=" ">
<path fill="none" stroke="#63b8ff" d="M503.07,-218.78C561.06,-216.53 707.33,-207.77 742.25,-176 765.72,-154.65 772.79,-133.08 756.25,-106 721.91,-49.77 643.22,-24.94 599.31,-15.13"/>
<polygon fill="#63b8ff" stroke="#63b8ff" points="599.97,-11.69 589.46,-13.05 598.52,-18.54 599.97,-11.69"/>
</a>
</g>
</g>
<!-- Node3 -->
<g id="Node000003" class="node">
<title>Node3</title>
<g id="a_Node000003"><a xlink:title=" ">
<polygon fill="#e0e0e0" stroke="#999999" points="92.25,-70 58.25,-70 58.25,-53 92.25,-53 92.25,-70"/>
<text text-anchor="middle" x="75.25" y="-59.6" font-family="Helvetica,sans-Serif" font-size="8.00">limits</text>
</a>
</g>
</g>
<!-- Node1&#45;&gt;Node3 -->
<g id="edge2_Node000001_Node000003" class="edge">
<title>Node1&#45;&gt;Node3</title>
<g id="a_edge2_Node000001_Node000003"><a xlink:title=" ">
<path fill="none" stroke="#63b8ff" d="M455.48,-218.67C366.97,-215.02 58.86,-197.09 4.25,-123 -11.6,-101.5 22.45,-82.59 48.67,-71.86"/>
<polygon fill="#63b8ff" stroke="#63b8ff" points="50.16,-75.04 58.22,-68.16 47.63,-68.51 50.16,-75.04"/>
</a>
</g>
</g>
<!-- Node4 -->
<g id="Node000004" class="node">
<title>Node4</title>
<g id="a_Node000004"><a xlink:title=" ">
<polygon fill="#e0e0e0" stroke="#999999" points="483.25,-123 445.25,-123 445.25,-106 483.25,-106 483.25,-123"/>
<text text-anchor="middle" x="464.25" y="-112.6" font-family="Helvetica,sans-Serif" font-size="8.00">vector</text>
</a>
</g>
</g>
<!-- Node1&#45;&gt;Node4 -->
<g id="edge3_Node000001_Node000004" class="edge">
<title>Node1&#45;&gt;Node4</title>
<g id="a_edge3_Node000001_Node000004"><a xlink:title=" ">
<path fill="none" stroke="#63b8ff" d="M476.34,-211.94C473.2,-203.37 468.36,-188.91 466.25,-176 463.92,-161.69 463.52,-145.24 463.65,-133.11"/>
<polygon fill="#63b8ff" stroke="#63b8ff" points="467.15,-133.09 463.88,-123.01 460.15,-132.93 467.15,-133.09"/>
</a>
</g>
</g>
<!-- Node5 -->
<g id="Node000005" class="node">
<title>Node5</title>
<g id="a_Node000005"><a xlink:href="../../d8/d62/existence__set_8hpp.html" target="_top" xlink:title=" ">
<polygon fill="white" stroke="#666666" points="331.75,-176 184.75,-176 184.75,-159 331.75,-159 331.75,-176"/>
<text text-anchor="middle" x="258.25" y="-165.6" font-family="Helvetica,sans-Serif" font-size="8.00">../types/containers/existence_set.hpp</text>
</a>
</g>
</g>
<!-- Node1&#45;&gt;Node5 -->
<g id="edge4_Node000001_Node000005" class="edge">
<title>Node1&#45;&gt;Node5</title>
<g id="a_edge4_Node000001_Node000005"><a xlink:title=" ">
<path fill="none" stroke="#63b8ff" d="M455.6,-214.04C418.75,-205.54 347.07,-189 301,-178.36"/>
<polygon fill="#63b8ff" stroke="#63b8ff" points="301.54,-174.9 291.01,-176.06 299.97,-181.72 301.54,-174.9"/>
</a>
</g>
</g>
<!-- Node10 -->
<g id="Node000010" class="node">
<title>Node10</title>
<g id="a_Node000010"><a xlink:href="../../df/d93/utils_8hpp.html" target="_top" xlink:title=" ">
<polygon fill="white" stroke="#666666" points="350.75,-123 275.75,-123 275.75,-106 350.75,-106 350.75,-123"/>
<text text-anchor="middle" x="313.25" y="-112.6" font-family="Helvetica,sans-Serif" font-size="8.00">../../utils/utils.hpp</text>
</a>
</g>
</g>
<!-- Node1&#45;&gt;Node10 -->
<g id="edge23_Node000001_Node000010" class="edge">
<title>Node1&#45;&gt;Node10</title>
<g id="a_edge23_Node000001_Node000010"><a xlink:title=" ">
<path fill="none" stroke="#63b8ff" d="M467.04,-211.85C438.86,-194.2 369.01,-150.43 333.98,-128.49"/>
<polygon fill="#63b8ff" stroke="#63b8ff" points="335.81,-125.5 325.48,-123.16 332.09,-131.43 335.81,-125.5"/>
</a>
</g>
</g>
<!-- Node14 -->
<g id="Node000014" class="node">
<title>Node14</title>
<g id="a_Node000014"><a xlink:href="../../d7/d65/intrinsics_8hpp.html" target="_top" xlink:title=" ">
<polygon fill="#fff0f0" stroke="red" points="610.75,-70 525.75,-70 525.75,-53 610.75,-53 610.75,-70"/>
<text text-anchor="middle" x="568.25" y="-59.6" font-family="Helvetica,sans-Serif" font-size="8.00">../utils/intrinsics.hpp</text>
</a>
</g>
</g>
<!-- Node1&#45;&gt;Node14 -->
<g id="edge34_Node000001_Node000014" class="edge">
<title>Node1&#45;&gt;Node14</title>
<g id="a_edge34_Node000001_Node000014"><a xlink:title=" ">
<path fill="none" stroke="#63b8ff" d="M502.87,-212.69C520.63,-206.25 543.95,-194.74 556.25,-176 575.41,-146.82 573.88,-104.05 571.07,-80.21"/>
<polygon fill="#63b8ff" stroke="#63b8ff" points="574.51,-79.6 569.67,-70.18 567.58,-80.56 574.51,-79.6"/>
</a>
</g>
</g>
<!-- Node17 -->
<g id="Node000017" class="node">
<title>Node17</title>
<g id="a_Node000017"><a xlink:href="../../d2/d1c/solver_8hpp.html" target="_top" xlink:title=" ">
<polygon fill="white" stroke="#666666" points="547.25,-176 475.25,-176 475.25,-159 547.25,-159 547.25,-176"/>
<text text-anchor="middle" x="511.25" y="-165.6" font-family="Helvetica,sans-Serif" font-size="8.00">base/solver.hpp</text>
</a>
</g>
</g>
<!-- Node1&#45;&gt;Node17 -->
<g id="edge24_Node000001_Node000017" class="edge">
<title>Node1&#45;&gt;Node17</title>
<g id="a_edge24_Node000001_Node000017"><a xlink:title=" ">
<path fill="none" stroke="#63b8ff" d="M483.97,-211.97C488.46,-204.82 495.36,-193.82 501.1,-184.67"/>
<polygon fill="#63b8ff" stroke="#63b8ff" points="504.16,-186.39 506.51,-176.06 498.23,-182.67 504.16,-186.39"/>
</a>
</g>
</g>
<!-- Node18 -->
<g id="Node000018" class="node">
<title>Node18</title>
<g id="a_Node000018"><a xlink:href="../../d0/def/unmanaged__node_8hpp.html" target="_top" xlink:title=" ">
<polygon fill="white" stroke="#666666" points="732.75,-176 615.75,-176 615.75,-159 732.75,-159 732.75,-176"/>
<text text-anchor="middle" x="674.25" y="-165.6" font-family="Helvetica,sans-Serif" font-size="8.00">base/unmanaged_node.hpp</text>
</a>
</g>
</g>
<!-- Node1&#45;&gt;Node18 -->
<g id="edge31_Node000001_Node000018" class="edge">
<title>Node1&#45;&gt;Node18</title>
<g id="a_edge31_Node000001_Node000018"><a xlink:title=" ">
<path fill="none" stroke="#63b8ff" d="M502.77,-213.35C535.67,-204.75 595.81,-189.01 635.41,-178.66"/>
<polygon fill="#63b8ff" stroke="#63b8ff" points="636.47,-182 645.26,-176.08 634.7,-175.23 636.47,-182"/>
</a>
</g>
</g>
<!-- Node5&#45;&gt;Node2 -->
<g id="edge5_Node000005_Node000002" class="edge">
<title>Node5&#45;&gt;Node2</title>
<g id="a_edge5_Node000005_Node000002"><a xlink:title=" ">
<path fill="none" stroke="#63b8ff" d="M184.47,-164.1C117.87,-160.19 26.96,-149.93 4.25,-123 -0.62,-117.22 1.65,-113.09 4.25,-106 14.9,-76.99 21.77,-67.14 49.25,-53 134.98,-8.89 438.03,-8.08 536.85,-9.04"/>
<polygon fill="#63b8ff" stroke="#63b8ff" points="537.04,-12.55 547.07,-9.16 537.11,-5.55 537.04,-12.55"/>
</a>
</g>
</g>
<!-- Node5&#45;&gt;Node3 -->
<g id="edge8_Node000005_Node000003" class="edge">
<title>Node5&#45;&gt;Node3</title>
<g id="a_edge8_Node000005_Node000003"><a xlink:title=" ">
<path fill="none" stroke="#63b8ff" d="M184.61,-163.62C120.31,-159.37 33.95,-148.88 12.25,-123 -3.34,-104.41 25.15,-85.43 48.72,-73.81"/>
<polygon fill="#63b8ff" stroke="#63b8ff" points="50.48,-76.85 58.06,-69.44 47.52,-70.51 50.48,-76.85"/>
</a>
</g>
</g>
<!-- Node5&#45;&gt;Node4 -->
<g id="edge11_Node000005_Node000004" class="edge">
<title>Node5&#45;&gt;Node4</title>
<g id="a_edge11_Node000005_Node000004"><a xlink:title=" ">
<path fill="none" stroke="#63b8ff" d="M288.65,-158.97C328.03,-149.22 396.24,-132.34 435.04,-122.73"/>
<polygon fill="#63b8ff" stroke="#63b8ff" points="436.29,-126.03 445.15,-120.23 434.6,-119.23 436.29,-126.03"/>
</a>
</g>
</g>
<!-- Node6 -->
<g id="Node000006" class="node">
<title>Node6</title>
<g id="a_Node000006"><a xlink:title=" ">
<polygon fill="#e0e0e0" stroke="#999999" points="234.25,-70 184.25,-70 184.25,-53 234.25,-53 234.25,-70"/>
<text text-anchor="middle" x="209.25" y="-59.6" font-family="Helvetica,sans-Serif" font-size="8.00">functional</text>
</a>
</g>
</g>
<!-- Node5&#45;&gt;Node6 -->
<g id="edge6_Node000005_Node000006" class="edge">
<title>Node5&#45;&gt;Node6</title>
<g id="a_edge6_Node000005_Node000006"><a xlink:title=" ">
<path fill="none" stroke="#63b8ff" d="M254.57,-158.68C246.65,-141.89 227.88,-102.04 217.14,-79.25"/>
<polygon fill="#63b8ff" stroke="#63b8ff" points="220.27,-77.68 212.84,-70.12 213.94,-80.66 220.27,-77.68"/>
</a>
</g>
</g>
<!-- Node7 -->
<g id="Node000007" class="node">
<title>Node7</title>
<g id="a_Node000007"><a xlink:title=" ">
<polygon fill="#e0e0e0" stroke="#999999" points="81.25,-123 21.25,-123 21.25,-106 81.25,-106 81.25,-123"/>
<text text-anchor="middle" x="51.25" y="-112.6" font-family="Helvetica,sans-Serif" font-size="8.00">initializer_list</text>
</a>
</g>
</g>
<!-- Node5&#45;&gt;Node7 -->
<g id="edge7_Node000005_Node000007" class="edge">
<title>Node5&#45;&gt;Node7</title>
<g id="a_edge7_Node000005_Node000007"><a xlink:title=" ">
<path fill="none" stroke="#63b8ff" d="M227.71,-158.97C191.6,-150.08 131.39,-135.25 91.51,-125.42"/>
<polygon fill="#63b8ff" stroke="#63b8ff" points="92.13,-121.97 81.58,-122.97 90.46,-128.76 92.13,-121.97"/>
</a>
</g>
</g>
<!-- Node8 -->
<g id="Node000008" class="node">
<title>Node8</title>
<g id="a_Node000008"><a xlink:title=" ">
<polygon fill="#e0e0e0" stroke="#999999" points="181.25,-123 99.25,-123 99.25,-106 181.25,-106 181.25,-123"/>
<text text-anchor="middle" x="140.25" y="-112.6" font-family="Helvetica,sans-Serif" font-size="8.00">memory_resource</text>
</a>
</g>
</g>
<!-- Node5&#45;&gt;Node8 -->
<g id="edge9_Node000005_Node000008" class="edge">
<title>Node5&#45;&gt;Node8</title>
<g id="a_edge9_Node000005_Node000008"><a xlink:title=" ">
<path fill="none" stroke="#63b8ff" d="M240.84,-158.97C221.41,-150.58 189.72,-136.88 167.11,-127.11"/>
<polygon fill="#63b8ff" stroke="#63b8ff" points="168.3,-123.81 157.73,-123.06 165.52,-130.24 168.3,-123.81"/>
</a>
</g>
</g>
<!-- Node9 -->
<g id="Node000009" class="node">
<title>Node9</title>
<g id="a_Node000009"><a xlink:title=" ">
<polygon fill="#e0e0e0" stroke="#999999" points="507.75,-70 454.75,-70 454.75,-53 507.75,-53 507.75,-70"/>
<text text-anchor="middle" x="481.25" y="-59.6" font-family="Helvetica,sans-Serif" font-size="8.00">type_traits</text>
</a>
</g>
</g>
<!-- Node5&#45;&gt;Node9 -->
<g id="edge10_Node000005_Node000009" class="edge">
<title>Node5&#45;&gt;Node9</title>
<g id="a_edge10_Node000005_Node000009"><a xlink:title=" ">
<path fill="none" stroke="#63b8ff" d="M276.63,-158.93C296.97,-150.48 330.66,-136.23 359.25,-123 393.76,-107.03 433.06,-87.24 457.52,-74.74"/>
<polygon fill="#63b8ff" stroke="#63b8ff" points="459.42,-77.7 466.73,-70.02 456.23,-71.47 459.42,-77.7"/>
</a>
</g>
</g>
<!-- Node5&#45;&gt;Node10 -->
<g id="edge12_Node000005_Node000010" class="edge">
<title>Node5&#45;&gt;Node10</title>
<g id="a_edge12_Node000005_Node000010"><a xlink:title=" ">
<path fill="none" stroke="#63b8ff" d="M266.37,-158.97C274.57,-151.37 287.46,-139.41 297.65,-129.97"/>
<polygon fill="#63b8ff" stroke="#63b8ff" points="300.15,-132.42 305.1,-123.06 295.39,-127.29 300.15,-132.42"/>
</a>
</g>
</g>
<!-- Node5&#45;&gt;Node14 -->
<g id="edge22_Node000005_Node000014" class="edge">
<title>Node5&#45;&gt;Node14</title>
<g id="a_edge22_Node000005_Node000014"><a xlink:title=" ">
<path fill="none" stroke="#63b8ff" d="M282.18,-158.9C308.7,-150.41 352.67,-136.13 390.25,-123 410.83,-115.81 415.68,-113.19 436.25,-106 469.58,-94.35 507.93,-81.81 534.67,-73.2"/>
<polygon fill="#63b8ff" stroke="#63b8ff" points="535.87,-76.49 544.32,-70.1 533.73,-69.83 535.87,-76.49"/>
</a>
</g>
</g>
<!-- Node10&#45;&gt;Node2 -->
<g id="edge15_Node000010_Node000002" class="edge">
<title>Node10&#45;&gt;Node2</title>
<g id="a_edge15_Node000010_Node000002"><a xlink:title=" ">
<path fill="none" stroke="#63b8ff" d="M303.7,-105.77C289.76,-93.58 267,-69.58 281.25,-53 314,-14.92 469.76,-9.77 537.11,-9.35"/>
<polygon fill="#63b8ff" stroke="#63b8ff" points="537.13,-12.85 547.12,-9.32 537.11,-5.85 537.13,-12.85"/>
</a>
</g>
</g>
<!-- Node10&#45;&gt;Node3 -->
<g id="edge17_Node000010_Node000003" class="edge">
<title>Node10&#45;&gt;Node3</title>
<g id="a_edge17_Node000010_Node000003"><a xlink:title=" ">
<path fill="none" stroke="#63b8ff" d="M278.13,-105.97C230.23,-95.71 145.44,-77.54 102.21,-68.28"/>
<polygon fill="#63b8ff" stroke="#63b8ff" points="102.92,-64.85 92.41,-66.18 101.46,-71.7 102.92,-64.85"/>
</a>
</g>
</g>
<!-- Node10&#45;&gt;Node6 -->
<g id="edge16_Node000010_Node000006" class="edge">
<title>Node10&#45;&gt;Node6</title>
<g id="a_edge16_Node000010_Node000006"><a xlink:title=" ">
<path fill="none" stroke="#63b8ff" d="M297.91,-105.97C281.01,-97.69 253.6,-84.25 233.73,-74.5"/>
<polygon fill="#63b8ff" stroke="#63b8ff" points="235.18,-71.32 224.66,-70.06 232.1,-77.6 235.18,-71.32"/>
</a>
</g>
</g>
<!-- Node10&#45;&gt;Node9 -->
<g id="edge19_Node000010_Node000009" class="edge">
<title>Node10&#45;&gt;Node9</title>
<g id="a_edge19_Node000010_Node000009"><a xlink:title=" ">
<path fill="none" stroke="#63b8ff" d="M338.04,-105.97C366.7,-97.27 414.07,-82.89 446.43,-73.07"/>
<polygon fill="#63b8ff" stroke="#63b8ff" points="447.81,-76.31 456.36,-70.06 445.77,-69.61 447.81,-76.31"/>
</a>
</g>
</g>
<!-- Node11 -->
<g id="Node000011" class="node">
<title>Node11</title>
<g id="a_Node000011"><a xlink:title=" ">
<polygon fill="#e0e0e0" stroke="#999999" points="325.75,-70 290.75,-70 290.75,-53 325.75,-53 325.75,-70"/>
<text text-anchor="middle" x="308.25" y="-59.6" font-family="Helvetica,sans-Serif" font-size="8.00">array</text>
</a>
</g>
</g>
<!-- Node10&#45;&gt;Node11 -->
<g id="edge13_Node000010_Node000011" class="edge">
<title>Node10&#45;&gt;Node11</title>
<g id="a_edge13_Node000010_Node000011"><a xlink:title=" ">
<path fill="none" stroke="#63b8ff" d="M312.51,-105.97C311.85,-99.19 310.85,-88.97 309.98,-80.13"/>
<polygon fill="#63b8ff" stroke="#63b8ff" points="313.45,-79.67 308.99,-70.06 306.48,-80.35 313.45,-79.67"/>
</a>
</g>
</g>
<!-- Node12 -->
<g id="Node000012" class="node">
<title>Node12</title>
<g id="a_Node000012"><a xlink:title=" ">
<polygon fill="#e0e0e0" stroke="#999999" points="382.25,-70 344.25,-70 344.25,-53 382.25,-53 382.25,-70"/>
<text text-anchor="middle" x="363.25" y="-59.6" font-family="Helvetica,sans-Serif" font-size="8.00">cmath</text>
</a>
</g>
</g>
<!-- Node10&#45;&gt;Node12 -->
<g id="edge14_Node000010_Node000012" class="edge">
<title>Node10&#45;&gt;Node12</title>
<g id="a_edge14_Node000010_Node000012"><a xlink:title=" ">
<path fill="none" stroke="#63b8ff" d="M320.63,-105.97C328.01,-98.44 339.57,-86.65 348.79,-77.25"/>
<polygon fill="#63b8ff" stroke="#63b8ff" points="351.34,-79.65 355.84,-70.06 346.34,-74.75 351.34,-79.65"/>
</a>
</g>
</g>
<!-- Node13 -->
<g id="Node000013" class="node">
<title>Node13</title>
<g id="a_Node000013"><a xlink:title=" ">
<polygon fill="#e0e0e0" stroke="#999999" points="436.25,-70 400.25,-70 400.25,-53 436.25,-53 436.25,-70"/>
<text text-anchor="middle" x="418.25" y="-59.6" font-family="Helvetica,sans-Serif" font-size="8.00">string</text>
</a>
</g>
</g>
<!-- Node10&#45;&gt;Node13 -->
<g id="edge18_Node000010_Node000013" class="edge">
<title>Node10&#45;&gt;Node13</title>
<g id="a_edge18_Node000010_Node000013"><a xlink:title=" ">
<path fill="none" stroke="#63b8ff" d="M328.74,-105.97C345.8,-97.69 373.47,-84.25 393.54,-74.5"/>
<polygon fill="#63b8ff" stroke="#63b8ff" points="395.23,-77.57 402.69,-70.06 392.17,-71.28 395.23,-77.57"/>
</a>
</g>
</g>
<!-- Node10&#45;&gt;Node14 -->
<g id="edge20_Node000010_Node000014" class="edge">
<title>Node10&#45;&gt;Node14</title>
<g id="a_edge20_Node000010_Node000014"><a xlink:title=" ">
<path fill="none" stroke="#63b8ff" d="M350.88,-105.97C395.89,-96.97 471.3,-81.89 520.41,-72.07"/>
<polygon fill="#63b8ff" stroke="#63b8ff" points="521.35,-75.45 530.47,-70.06 519.98,-68.59 521.35,-75.45"/>
</a>
</g>
</g>
<!-- Node14&#45;&gt;Node2 -->
<g id="edge21_Node000014_Node000002" class="edge">
<title>Node14&#45;&gt;Node2</title>
<g id="a_edge21_Node000014_Node000002"><a xlink:title=" ">
<path fill="none" stroke="#63b8ff" d="M568.25,-52.97C568.25,-46.19 568.25,-35.97 568.25,-27.13"/>
<polygon fill="#63b8ff" stroke="#63b8ff" points="571.75,-27.06 568.25,-17.06 564.75,-27.06 571.75,-27.06"/>
</a>
</g>
</g>
<!-- Node17&#45;&gt;Node2 -->
<g id="edge25_Node000017_Node000002" class="edge">
<title>Node17&#45;&gt;Node2</title>
<g id="a_edge25_Node000017_Node000002"><a xlink:title=" ">
<path fill="none" stroke="#63b8ff" d="M526.11,-158.86C551.1,-145.06 600.74,-113.33 620.25,-70 628.77,-51.07 609.49,-33.57 592.04,-22.31"/>
<polygon fill="#63b8ff" stroke="#63b8ff" points="593.62,-19.17 583.24,-17.02 590.01,-25.17 593.62,-19.17"/>
</a>
</g>
</g>
<!-- Node17&#45;&gt;Node3 -->
<g id="edge26_Node000017_Node000003" class="edge">
<title>Node17&#45;&gt;Node3</title>
<g id="a_edge26_Node000017_Node000003"><a xlink:title=" ">
<path fill="none" stroke="#63b8ff" d="M475.24,-161.62C427.19,-154.76 339.66,-141.06 266.25,-123 206.66,-108.34 138.5,-85.15 101.88,-72.16"/>
<polygon fill="#63b8ff" stroke="#63b8ff" points="103.01,-68.84 92.42,-68.77 100.65,-75.44 103.01,-68.84"/>
</a>
</g>
</g>
<!-- Node17&#45;&gt;Node4 -->
<g id="edge28_Node000017_Node000004" class="edge">
<title>Node17&#45;&gt;Node4</title>
<g id="a_edge28_Node000017_Node000004"><a xlink:title=" ">
<path fill="none" stroke="#63b8ff" d="M504.32,-158.97C497.44,-151.52 486.72,-139.89 478.1,-130.53"/>
<polygon fill="#63b8ff" stroke="#63b8ff" points="480.57,-128.04 471.21,-123.06 475.42,-132.78 480.57,-128.04"/>
</a>
</g>
</g>
<!-- Node17&#45;&gt;Node9 -->
<g id="edge27_Node000017_Node000009" class="edge">
<title>Node17&#45;&gt;Node9</title>
<g id="a_edge27_Node000017_Node000009"><a xlink:title=" ">
<path fill="none" stroke="#63b8ff" d="M509,-158.68C504.19,-142.04 492.86,-102.75 486.26,-79.87"/>
<polygon fill="#63b8ff" stroke="#63b8ff" points="489.59,-78.76 483.45,-70.12 482.86,-80.7 489.59,-78.76"/>
</a>
</g>
</g>
<!-- Node17&#45;&gt;Node10 -->
<g id="edge29_Node000017_Node000010" class="edge">
<title>Node17&#45;&gt;Node10</title>
<g id="a_edge29_Node000017_Node000010"><a xlink:title=" ">
<path fill="none" stroke="#63b8ff" d="M482.04,-158.97C447.67,-150.12 390.48,-135.39 352.33,-125.57"/>
<polygon fill="#63b8ff" stroke="#63b8ff" points="353.14,-122.16 342.59,-123.06 351.4,-128.94 353.14,-122.16"/>
</a>
</g>
</g>
<!-- Node17&#45;&gt;Node14 -->
<g id="edge30_Node000017_Node000014" class="edge">
<title>Node17&#45;&gt;Node14</title>
<g id="a_edge30_Node000017_Node000014"><a xlink:title=" ">
<path fill="none" stroke="#63b8ff" d="M515.54,-158.68C524.78,-141.81 546.78,-101.68 559.24,-78.94"/>
<polygon fill="#63b8ff" stroke="#63b8ff" points="562.33,-80.58 564.07,-70.12 556.2,-77.21 562.33,-80.58"/>
</a>
</g>
</g>
<!-- Node18&#45;&gt;Node14 -->
<g id="edge33_Node000018_Node000014" class="edge">
<title>Node18&#45;&gt;Node14</title>
<g id="a_edge33_Node000018_Node000014"><a xlink:title=" ">
<path fill="none" stroke="#63b8ff" d="M666.28,-158.68C648.63,-141.36 605.96,-99.5 583.18,-77.15"/>
<polygon fill="#63b8ff" stroke="#63b8ff" points="585.61,-74.63 576.02,-70.12 580.71,-79.63 585.61,-74.63"/>
</a>
</g>
</g>
<!-- Node19 -->
<g id="Node000019" class="node">
<title>Node19</title>
<g id="a_Node000019"><a xlink:href="../../dc/d3c/bnode_8hpp.html" target="_top" xlink:title=" ">
<polygon fill="white" stroke="#666666" points="746.75,-123 691.75,-123 691.75,-106 746.75,-106 746.75,-123"/>
<text text-anchor="middle" x="719.25" y="-112.6" font-family="Helvetica,sans-Serif" font-size="8.00">bnode.hpp</text>
</a>
</g>
</g>
<!-- Node18&#45;&gt;Node19 -->
<g id="edge32_Node000018_Node000019" class="edge">
<title>Node18&#45;&gt;Node19</title>
<g id="a_edge32_Node000018_Node000019"><a xlink:title=" ">
<path fill="none" stroke="#63b8ff" d="M680.89,-158.97C687.4,-151.59 697.53,-140.12 705.74,-130.81"/>
<polygon fill="#63b8ff" stroke="#63b8ff" points="708.59,-132.87 712.58,-123.06 703.34,-128.24 708.59,-132.87"/>
</a>
</g>
</g>
</g>
</svg>
