<?xml version="1.0" encoding="UTF-8" standalone="no"?>
<!DOCTYPE svg PUBLIC "-//W3C//DTD SVG 1.1//EN"
 "http://www.w3.org/Graphics/SVG/1.1/DTD/svg11.dtd">
<!-- Generated by graphviz version 2.43.0 (0)
 -->
<!-- Title: fstar.hpp Pages: 1 -->
<svg width="748pt" height="290pt"
 viewBox="0.00 0.00 747.50 290.00" xmlns="http://www.w3.org/2000/svg" xmlns:xlink="http://www.w3.org/1999/xlink">
<g id="graph0" class="graph" transform="scale(1 1) rotate(0) translate(4 286)">
<title>fstar.hpp</title>
<!-- Node1 -->
<g id="Node000001" class="node">
<title>Node1</title>
<g id="a_Node000001"><a xlink:title=" ">
<polygon fill="#999999" stroke="#666666" points="348.5,-282 301.5,-282 301.5,-265 348.5,-265 348.5,-282"/>
<text text-anchor="middle" x="325" y="-271.6" font-family="Helvetica,sans-Serif" font-size="8.00">fstar.hpp</text>
</a>
</g>
</g>
<!-- Node2 -->
<g id="Node000002" class="node">
<title>Node2</title>
<g id="a_Node000002"><a xlink:title=" ">
<polygon fill="#e0e0e0" stroke="#999999" points="337,-17 295,-17 295,0 337,0 337,-17"/>
<text text-anchor="middle" x="316" y="-6.6" font-family="Helvetica,sans-Serif" font-size="8.00">cstddef</text>
</a>
</g>
</g>
<!-- Node1&#45;&gt;Node2 -->
<g id="edge1_Node000001_Node000002" class="edge">
<title>Node1&#45;&gt;Node2</title>
<g id="a_edge1_Node000001_Node000002"><a xlink:title=" ">
<path fill="none" stroke="#63b8ff" d="M301.37,-270.11C226.58,-261.9 0,-231.81 0,-168.5 0,-168.5 0,-168.5 0,-113.5 0,-53.94 205.09,-22.85 284.82,-13.01"/>
<polygon fill="#63b8ff" stroke="#63b8ff" points="285.27,-16.48 294.78,-11.81 284.43,-9.53 285.27,-16.48"/>
</a>
</g>
</g>
<!-- Node3 -->
<g id="Node000003" class="node">
<title>Node3</title>
<g id="a_Node000003"><a xlink:title=" ">
<polygon fill="#e0e0e0" stroke="#999999" points="177,-70 143,-70 143,-53 177,-53 177,-70"/>
<text text-anchor="middle" x="160" y="-59.6" font-family="Helvetica,sans-Serif" font-size="8.00">limits</text>
</a>
</g>
</g>
<!-- Node1&#45;&gt;Node3 -->
<g id="edge2_Node000001_Node000003" class="edge">
<title>Node1&#45;&gt;Node3</title>
<g id="a_edge2_Node000001_Node000003"><a xlink:title=" ">
<path fill="none" stroke="#63b8ff" d="M301.12,-266.9C249.14,-253.16 127.76,-212.19 95,-123 86.76,-100.56 112.35,-83.11 133.81,-72.84"/>
<polygon fill="#63b8ff" stroke="#63b8ff" points="135.24,-76.03 142.94,-68.75 132.38,-69.64 135.24,-76.03"/>
</a>
</g>
</g>
<!-- Node4 -->
<g id="Node000004" class="node">
<title>Node4</title>
<g id="a_Node000004"><a xlink:title=" ">
<polygon fill="#e0e0e0" stroke="#999999" points="358,-123 320,-123 320,-106 358,-106 358,-123"/>
<text text-anchor="middle" x="339" y="-112.6" font-family="Helvetica,sans-Serif" font-size="8.00">vector</text>
</a>
</g>
</g>
<!-- Node1&#45;&gt;Node4 -->
<g id="edge3_Node000001_Node000004" class="edge">
<title>Node1&#45;&gt;Node4</title>
<g id="a_edge3_Node000001_Node000004"><a xlink:title=" ">
<path fill="none" stroke="#63b8ff" d="M325.68,-264.93C327.8,-241.15 334.36,-167.56 337.41,-133.33"/>
<polygon fill="#63b8ff" stroke="#63b8ff" points="340.9,-133.64 338.3,-123.37 333.92,-133.02 340.9,-133.64"/>
</a>
</g>
</g>
<!-- Node5 -->
<g id="Node000005" class="node">
<title>Node5</title>
<g id="a_Node000005"><a xlink:href="../../d8/d62/existence__set_8hpp.html" target="_top" xlink:title=" ">
<polygon fill="white" stroke="#666666" points="296.5,-176 149.5,-176 149.5,-159 296.5,-159 296.5,-176"/>
<text text-anchor="middle" x="223" y="-165.6" font-family="Helvetica,sans-Serif" font-size="8.00">../types/containers/existence_set.hpp</text>
</a>
</g>
</g>
<!-- Node1&#45;&gt;Node5 -->
<g id="edge4_Node000001_Node000005" class="edge">
<title>Node1&#45;&gt;Node5</title>
<g id="a_edge4_Node000001_Node000005"><a xlink:title=" ">
<path fill="none" stroke="#63b8ff" d="M317.33,-264.68C300.42,-247.43 259.65,-205.87 237.65,-183.44"/>
<polygon fill="#63b8ff" stroke="#63b8ff" points="239.98,-180.81 230.48,-176.12 234.98,-185.72 239.98,-180.81"/>
</a>
</g>
</g>
<!-- Node9 -->
<g id="Node000009" class="node">
<title>Node9</title>
<g id="a_Node000009"><a xlink:href="../../df/d93/utils_8hpp.html" target="_top" xlink:title=" ">
<polygon fill="white" stroke="#666666" points="489.5,-123 414.5,-123 414.5,-106 489.5,-106 489.5,-123"/>
<text text-anchor="middle" x="452" y="-112.6" font-family="Helvetica,sans-Serif" font-size="8.00">../../utils/utils.hpp</text>
</a>
</g>
</g>
<!-- Node1&#45;&gt;Node9 -->
<g id="edge19_Node000001_Node000009" class="edge">
<title>Node1&#45;&gt;Node9</title>
<g id="a_edge19_Node000001_Node000009"><a xlink:title=" ">
<path fill="none" stroke="#63b8ff" d="M348.63,-271.43C376.89,-268.75 423.23,-259.64 446,-229 466.94,-200.84 461.68,-157.03 456.52,-132.91"/>
<polygon fill="#63b8ff" stroke="#63b8ff" points="459.9,-131.98 454.18,-123.06 453.09,-133.6 459.9,-131.98"/>
</a>
</g>
</g>
<!-- Node15 -->
<g id="Node000015" class="node">
<title>Node15</title>
<g id="a_Node000015"><a xlink:href="../../d2/d1c/solver_8hpp.html" target="_top" xlink:title=" ">
<polygon fill="white" stroke="#666666" points="437,-229 365,-229 365,-212 437,-212 437,-229"/>
<text text-anchor="middle" x="401" y="-218.6" font-family="Helvetica,sans-Serif" font-size="8.00">base/solver.hpp</text>
</a>
</g>
</g>
<!-- Node1&#45;&gt;Node15 -->
<g id="edge20_Node000001_Node000015" class="edge">
<title>Node1&#45;&gt;Node15</title>
<g id="a_edge20_Node000001_Node000015"><a xlink:title=" ">
<path fill="none" stroke="#63b8ff" d="M336.21,-264.97C348,-257.07 366.78,-244.46 381.1,-234.86"/>
<polygon fill="#63b8ff" stroke="#63b8ff" points="383.39,-237.53 389.74,-229.06 379.49,-231.72 383.39,-237.53"/>
</a>
</g>
</g>
<!-- Node16 -->
<g id="Node000016" class="node">
<title>Node16</title>
<g id="a_Node000016"><a xlink:href="../../d0/def/unmanaged__node_8hpp.html" target="_top" xlink:title=" ">
<polygon fill="white" stroke="#666666" points="739.5,-229 622.5,-229 622.5,-212 739.5,-212 739.5,-229"/>
<text text-anchor="middle" x="681" y="-218.6" font-family="Helvetica,sans-Serif" font-size="8.00">base/unmanaged_node.hpp</text>
</a>
</g>
</g>
<!-- Node1&#45;&gt;Node16 -->
<g id="edge27_Node000001_Node000016" class="edge">
<title>Node1&#45;&gt;Node16</title>
<g id="a_edge27_Node000001_Node000016"><a xlink:title=" ">
<path fill="none" stroke="#63b8ff" d="M348.63,-269.11C402.99,-261.33 538.37,-241.93 618.58,-230.44"/>
<polygon fill="#63b8ff" stroke="#63b8ff" points="619.15,-233.9 628.56,-229.01 618.16,-226.97 619.15,-233.9"/>
</a>
</g>
</g>
<!-- Node5&#45;&gt;Node2 -->
<g id="edge5_Node000005_Node000002" class="edge">
<title>Node5&#45;&gt;Node2</title>
<g id="a_edge5_Node000005_Node000002"><a xlink:title=" ">
<path fill="none" stroke="#63b8ff" d="M152.85,-158.94C117.94,-151.37 85.07,-136.24 95,-106 104.12,-78.21 109.63,-69.16 134,-53 180.4,-22.23 246.25,-13.16 284.7,-10.53"/>
<polygon fill="#63b8ff" stroke="#63b8ff" points="285,-14.02 294.79,-9.95 284.6,-7.03 285,-14.02"/>
</a>
</g>
</g>
<!-- Node5&#45;&gt;Node4 -->
<g id="edge9_Node000005_Node000004" class="edge">
<title>Node5&#45;&gt;Node4</title>
<g id="a_edge9_Node000005_Node000004"><a xlink:title=" ">
<path fill="none" stroke="#63b8ff" d="M240.12,-158.97C259.22,-150.58 290.37,-136.88 312.6,-127.11"/>
<polygon fill="#63b8ff" stroke="#63b8ff" points="314.07,-130.28 321.81,-123.06 311.25,-123.88 314.07,-130.28"/>
</a>
</g>
</g>
<!-- Node6 -->
<g id="Node000006" class="node">
<title>Node6</title>
<g id="a_Node000006"><a xlink:title=" ">
<polygon fill="#e0e0e0" stroke="#999999" points="164,-123 104,-123 104,-106 164,-106 164,-123"/>
<text text-anchor="middle" x="134" y="-112.6" font-family="Helvetica,sans-Serif" font-size="8.00">initializer_list</text>
</a>
</g>
</g>
<!-- Node5&#45;&gt;Node6 -->
<g id="edge6_Node000005_Node000006" class="edge">
<title>Node5&#45;&gt;Node6</title>
<g id="a_edge6_Node000005_Node000006"><a xlink:title=" ">
<path fill="none" stroke="#63b8ff" d="M209.87,-158.97C195.67,-150.84 172.8,-137.74 155.88,-128.04"/>
<polygon fill="#63b8ff" stroke="#63b8ff" points="157.6,-124.99 147.19,-123.06 154.12,-131.06 157.6,-124.99"/>
</a>
</g>
</g>
<!-- Node7 -->
<g id="Node000007" class="node">
<title>Node7</title>
<g id="a_Node000007"><a xlink:title=" ">
<polygon fill="#e0e0e0" stroke="#999999" points="264,-123 182,-123 182,-106 264,-106 264,-123"/>
<text text-anchor="middle" x="223" y="-112.6" font-family="Helvetica,sans-Serif" font-size="8.00">memory_resource</text>
</a>
</g>
</g>
<!-- Node5&#45;&gt;Node7 -->
<g id="edge7_Node000005_Node000007" class="edge">
<title>Node5&#45;&gt;Node7</title>
<g id="a_edge7_Node000005_Node000007"><a xlink:title=" ">
<path fill="none" stroke="#63b8ff" d="M223,-158.97C223,-152.19 223,-141.97 223,-133.13"/>
<polygon fill="#63b8ff" stroke="#63b8ff" points="226.5,-133.06 223,-123.06 219.5,-133.06 226.5,-133.06"/>
</a>
</g>
</g>
<!-- Node8 -->
<g id="Node000008" class="node">
<title>Node8</title>
<g id="a_Node000008"><a xlink:title=" ">
<polygon fill="#e0e0e0" stroke="#999999" points="287.5,-70 234.5,-70 234.5,-53 287.5,-53 287.5,-70"/>
<text text-anchor="middle" x="261" y="-59.6" font-family="Helvetica,sans-Serif" font-size="8.00">type_traits</text>
</a>
</g>
</g>
<!-- Node5&#45;&gt;Node8 -->
<g id="edge8_Node000005_Node000008" class="edge">
<title>Node5&#45;&gt;Node8</title>
<g id="a_edge8_Node000005_Node000008"><a xlink:title=" ">
<path fill="none" stroke="#63b8ff" d="M236.99,-158.97C249.05,-151.59 265.66,-139.13 273,-123 279.31,-109.14 274.91,-92.02 269.75,-79.53"/>
<polygon fill="#63b8ff" stroke="#63b8ff" points="272.85,-77.89 265.45,-70.3 266.5,-80.84 272.85,-77.89"/>
</a>
</g>
</g>
<!-- Node5&#45;&gt;Node9 -->
<g id="edge10_Node000005_Node000009" class="edge">
<title>Node5&#45;&gt;Node9</title>
<g id="a_edge10_Node000005_Node000009"><a xlink:title=" ">
<path fill="none" stroke="#63b8ff" d="M256.79,-158.97C296.96,-150.03 364.09,-135.08 408.2,-125.25"/>
<polygon fill="#63b8ff" stroke="#63b8ff" points="409.07,-128.65 418.07,-123.06 407.55,-121.81 409.07,-128.65"/>
</a>
</g>
</g>
<!-- Node9&#45;&gt;Node2 -->
<g id="edge13_Node000009_Node000002" class="edge">
<title>Node9&#45;&gt;Node2</title>
<g id="a_edge13_Node000009_Node000002"><a xlink:title=" ">
<path fill="none" stroke="#63b8ff" d="M414.3,-108.29C388.69,-102.87 355.82,-91.92 335,-70 324.09,-58.52 319.45,-40.83 317.47,-27.55"/>
<polygon fill="#63b8ff" stroke="#63b8ff" points="320.91,-26.82 316.32,-17.27 313.95,-27.59 320.91,-26.82"/>
</a>
</g>
</g>
<!-- Node9&#45;&gt;Node3 -->
<g id="edge14_Node000009_Node000003" class="edge">
<title>Node9&#45;&gt;Node3</title>
<g id="a_edge14_Node000009_Node000003"><a xlink:title=" ">
<path fill="none" stroke="#63b8ff" d="M414.42,-106.94C354.62,-96.49 239.22,-76.34 186.92,-67.2"/>
<polygon fill="#63b8ff" stroke="#63b8ff" points="187.51,-63.75 177.05,-65.48 186.3,-70.65 187.51,-63.75"/>
</a>
</g>
</g>
<!-- Node9&#45;&gt;Node8 -->
<g id="edge16_Node000009_Node000008" class="edge">
<title>Node9&#45;&gt;Node8</title>
<g id="a_edge16_Node000009_Node000008"><a xlink:title=" ">
<path fill="none" stroke="#63b8ff" d="M423.82,-105.97C390.33,-97.03 334.39,-82.1 297.59,-72.27"/>
<polygon fill="#63b8ff" stroke="#63b8ff" points="298.32,-68.84 287.76,-69.64 296.51,-75.61 298.32,-68.84"/>
</a>
</g>
</g>
<!-- Node10 -->
<g id="Node000010" class="node">
<title>Node10</title>
<g id="a_Node000010"><a xlink:title=" ">
<polygon fill="#e0e0e0" stroke="#999999" points="379.5,-70 344.5,-70 344.5,-53 379.5,-53 379.5,-70"/>
<text text-anchor="middle" x="362" y="-59.6" font-family="Helvetica,sans-Serif" font-size="8.00">array</text>
</a>
</g>
</g>
<!-- Node9&#45;&gt;Node10 -->
<g id="edge11_Node000009_Node000010" class="edge">
<title>Node9&#45;&gt;Node10</title>
<g id="a_edge11_Node000009_Node000010"><a xlink:title=" ">
<path fill="none" stroke="#63b8ff" d="M438.72,-105.97C424.36,-97.84 401.24,-84.74 384.13,-75.04"/>
<polygon fill="#63b8ff" stroke="#63b8ff" points="385.76,-71.94 375.33,-70.06 382.31,-78.03 385.76,-71.94"/>
</a>
</g>
</g>
<!-- Node11 -->
<g id="Node000011" class="node">
<title>Node11</title>
<g id="a_Node000011"><a xlink:title=" ">
<polygon fill="#e0e0e0" stroke="#999999" points="436,-70 398,-70 398,-53 436,-53 436,-70"/>
<text text-anchor="middle" x="417" y="-59.6" font-family="Helvetica,sans-Serif" font-size="8.00">cmath</text>
</a>
</g>
</g>
<!-- Node9&#45;&gt;Node11 -->
<g id="edge12_Node000009_Node000011" class="edge">
<title>Node9&#45;&gt;Node11</title>
<g id="a_edge12_Node000009_Node000011"><a xlink:title=" ">
<path fill="none" stroke="#63b8ff" d="M446.84,-105.97C441.87,-98.74 434.22,-87.59 427.9,-78.39"/>
<polygon fill="#63b8ff" stroke="#63b8ff" points="430.73,-76.32 422.19,-70.06 424.96,-80.28 430.73,-76.32"/>
</a>
</g>
</g>
<!-- Node12 -->
<g id="Node000012" class="node">
<title>Node12</title>
<g id="a_Node000012"><a xlink:title=" ">
<polygon fill="#e0e0e0" stroke="#999999" points="490,-70 454,-70 454,-53 490,-53 490,-70"/>
<text text-anchor="middle" x="472" y="-59.6" font-family="Helvetica,sans-Serif" font-size="8.00">string</text>
</a>
</g>
</g>
<!-- Node9&#45;&gt;Node12 -->
<g id="edge15_Node000009_Node000012" class="edge">
<title>Node9&#45;&gt;Node12</title>
<g id="a_edge15_Node000009_Node000012"><a xlink:title=" ">
<path fill="none" stroke="#63b8ff" d="M454.95,-105.97C457.67,-99.04 461.8,-88.51 465.32,-79.55"/>
<polygon fill="#63b8ff" stroke="#63b8ff" points="468.64,-80.64 469.04,-70.06 462.13,-78.09 468.64,-80.64"/>
</a>
</g>
</g>
<!-- Node13 -->
<g id="Node000013" class="node">
<title>Node13</title>
<g id="a_Node000013"><a xlink:href="../../d7/d65/intrinsics_8hpp.html" target="_top" xlink:title=" ">
<polygon fill="#fff0f0" stroke="red" points="631.5,-70 546.5,-70 546.5,-53 631.5,-53 631.5,-70"/>
<text text-anchor="middle" x="589" y="-59.6" font-family="Helvetica,sans-Serif" font-size="8.00">../utils/intrinsics.hpp</text>
</a>
</g>
</g>
<!-- Node9&#45;&gt;Node13 -->
<g id="edge17_Node000009_Node000013" class="edge">
<title>Node9&#45;&gt;Node13</title>
<g id="a_edge17_Node000009_Node000013"><a xlink:title=" ">
<path fill="none" stroke="#63b8ff" d="M472.21,-105.97C495.18,-97.42 532.89,-83.39 559.22,-73.59"/>
<polygon fill="#63b8ff" stroke="#63b8ff" points="560.55,-76.82 568.7,-70.06 558.11,-70.26 560.55,-76.82"/>
</a>
</g>
</g>
<!-- Node13&#45;&gt;Node2 -->
<g id="edge18_Node000013_Node000002" class="edge">
<title>Node13&#45;&gt;Node2</title>
<g id="a_edge18_Node000013_Node000002"><a xlink:title=" ">
<path fill="none" stroke="#63b8ff" d="M548.72,-52.97C493.86,-42.73 396.82,-24.6 347.16,-15.32"/>
<polygon fill="#63b8ff" stroke="#63b8ff" points="347.51,-11.83 337.04,-13.43 346.22,-18.71 347.51,-11.83"/>
</a>
</g>
</g>
<!-- Node15&#45;&gt;Node2 -->
<g id="edge21_Node000015_Node000002" class="edge">
<title>Node15&#45;&gt;Node2</title>
<g id="a_edge21_Node000015_Node000002"><a xlink:title=" ">
<path fill="none" stroke="#63b8ff" d="M412.11,-211.73C446.04,-187.1 543.29,-109.06 499,-53 480.41,-29.48 394.35,-17.32 347.16,-12.32"/>
<polygon fill="#63b8ff" stroke="#63b8ff" points="347.47,-8.84 337.17,-11.31 346.77,-15.8 347.47,-8.84"/>
</a>
</g>
</g>
<!-- Node15&#45;&gt;Node4 -->
<g id="edge23_Node000015_Node000004" class="edge">
<title>Node15&#45;&gt;Node4</title>
<g id="a_edge23_Node000015_Node000004"><a xlink:title=" ">
<path fill="none" stroke="#63b8ff" d="M396.34,-211.68C386.28,-194.81 362.36,-154.68 348.8,-131.94"/>
<polygon fill="#63b8ff" stroke="#63b8ff" points="351.67,-129.92 343.55,-123.12 345.66,-133.51 351.67,-129.92"/>
</a>
</g>
</g>
<!-- Node15&#45;&gt;Node5 -->
<g id="edge24_Node000015_Node000005" class="edge">
<title>Node15&#45;&gt;Node5</title>
<g id="a_edge24_Node000015_Node000005"><a xlink:title=" ">
<path fill="none" stroke="#63b8ff" d="M374.74,-211.97C344.11,-203.2 293.3,-188.64 259.01,-178.82"/>
<polygon fill="#63b8ff" stroke="#63b8ff" points="259.95,-175.45 249.37,-176.06 258.02,-182.18 259.95,-175.45"/>
</a>
</g>
</g>
<!-- Node15&#45;&gt;Node8 -->
<g id="edge22_Node000015_Node000008" class="edge">
<title>Node15&#45;&gt;Node8</title>
<g id="a_edge22_Node000015_Node000008"><a xlink:title=" ">
<path fill="none" stroke="#63b8ff" d="M400.91,-211.76C400.25,-191.65 395.76,-137.12 367,-106 348.77,-86.27 320.29,-75.25 297.43,-69.25"/>
<polygon fill="#63b8ff" stroke="#63b8ff" points="298.25,-65.84 287.71,-66.9 296.61,-72.65 298.25,-65.84"/>
</a>
</g>
</g>
<!-- Node15&#45;&gt;Node9 -->
<g id="edge25_Node000015_Node000009" class="edge">
<title>Node15&#45;&gt;Node9</title>
<g id="a_edge25_Node000015_Node000009"><a xlink:title=" ">
<path fill="none" stroke="#63b8ff" d="M404.83,-211.68C413.07,-194.89 432.61,-155.04 443.79,-132.25"/>
<polygon fill="#63b8ff" stroke="#63b8ff" points="447,-133.64 448.26,-123.12 440.72,-130.56 447,-133.64"/>
</a>
</g>
</g>
<!-- Node15&#45;&gt;Node13 -->
<g id="edge26_Node000015_Node000013" class="edge">
<title>Node15&#45;&gt;Node13</title>
<g id="a_edge26_Node000015_Node000013"><a xlink:title=" ">
<path fill="none" stroke="#63b8ff" d="M437.24,-215.14C465.85,-210.04 505.26,-199.12 532,-176 561.94,-150.11 577.92,-104.72 584.79,-79.91"/>
<polygon fill="#63b8ff" stroke="#63b8ff" points="588.21,-80.66 587.33,-70.1 581.44,-78.91 588.21,-80.66"/>
</a>
</g>
</g>
<!-- Node16&#45;&gt;Node13 -->
<g id="edge29_Node000016_Node000013" class="edge">
<title>Node16&#45;&gt;Node13</title>
<g id="a_edge29_Node000016_Node000013"><a xlink:title=" ">
<path fill="none" stroke="#63b8ff" d="M675.67,-211.92C669.71,-203.34 659.84,-188.87 652,-176 631.45,-142.28 609.51,-101.54 597.72,-79.19"/>
<polygon fill="#63b8ff" stroke="#63b8ff" points="600.67,-77.28 592.92,-70.06 594.47,-80.54 600.67,-77.28"/>
</a>
</g>
</g>
<!-- Node17 -->
<g id="Node000017" class="node">
<title>Node17</title>
<g id="a_Node000017"><a xlink:href="../../dc/d3c/bnode_8hpp.html" target="_top" xlink:title=" ">
<polygon fill="white" stroke="#666666" points="715.5,-176 660.5,-176 660.5,-159 715.5,-159 715.5,-176"/>
<text text-anchor="middle" x="688" y="-165.6" font-family="Helvetica,sans-Serif" font-size="8.00">bnode.hpp</text>
</a>
</g>
</g>
<!-- Node16&#45;&gt;Node17 -->
<g id="edge28_Node000016_Node000017" class="edge">
<title>Node16&#45;&gt;Node17</title>
<g id="a_edge28_Node000016_Node000017"><a xlink:title=" ">
<path fill="none" stroke="#63b8ff" d="M682.03,-211.97C682.96,-205.19 684.37,-194.97 685.58,-186.13"/>
<polygon fill="#63b8ff" stroke="#63b8ff" points="689.07,-186.44 686.96,-176.06 682.14,-185.49 689.07,-186.44"/>
</a>
</g>
</g>
</g>
</svg>
