<?xml version="1.0" encoding="UTF-8" standalone="no"?>
<!DOCTYPE svg PUBLIC "-//W3C//DTD SVG 1.1//EN"
 "http://www.w3.org/Graphics/SVG/1.1/DTD/svg11.dtd">
<!-- Generated by graphviz version 2.43.0 (0)
 -->
<!-- Title: fstar.hpp Pages: 1 -->
<svg width="654pt" height="237pt"
 viewBox="0.00 0.00 653.70 237.00" xmlns="http://www.w3.org/2000/svg" xmlns:xlink="http://www.w3.org/1999/xlink">
<g id="graph0" class="graph" transform="scale(1 1) rotate(0) translate(4 233)">
<title>fstar.hpp</title>
<!-- Node1 -->
<g id="Node000001" class="node">
<title>Node1</title>
<g id="a_Node000001"><a xlink:title=" ">
<polygon fill="#999999" stroke="#666666" points="376.42,-229 329.42,-229 329.42,-212 376.42,-212 376.42,-229"/>
<text text-anchor="middle" x="352.92" y="-218.6" font-family="Helvetica,sans-Serif" font-size="8.00">fstar.hpp</text>
</a>
</g>
</g>
<!-- Node2 -->
<g id="Node000002" class="node">
<title>Node2</title>
<g id="a_Node000002"><a xlink:title=" ">
<polygon fill="#e0e0e0" stroke="#999999" points="297.92,-17 255.92,-17 255.92,0 297.92,0 297.92,-17"/>
<text text-anchor="middle" x="276.92" y="-6.6" font-family="Helvetica,sans-Serif" font-size="8.00">cstddef</text>
</a>
</g>
</g>
<!-- Node1&#45;&gt;Node2 -->
<g id="edge1_Node000001_Node000002" class="edge">
<title>Node1&#45;&gt;Node2</title>
<g id="a_edge1_Node000001_Node000002"><a xlink:title=" ">
<path fill="none" stroke="#63b8ff" d="M376.43,-219.16C454.36,-217.13 695.9,-203.04 635.92,-106 600.89,-49.32 388.83,-21.3 308.09,-12.57"/>
<polygon fill="#63b8ff" stroke="#63b8ff" points="308.35,-9.08 298.04,-11.51 307.62,-16.04 308.35,-9.08"/>
</a>
</g>
</g>
<!-- Node3 -->
<g id="Node000003" class="node">
<title>Node3</title>
<g id="a_Node000003"><a xlink:title=" ">
<polygon fill="#e0e0e0" stroke="#999999" points="502.92,-70 468.92,-70 468.92,-53 502.92,-53 502.92,-70"/>
<text text-anchor="middle" x="485.92" y="-59.6" font-family="Helvetica,sans-Serif" font-size="8.00">limits</text>
</a>
</g>
</g>
<!-- Node1&#45;&gt;Node3 -->
<g id="edge2_Node000001_Node000003" class="edge">
<title>Node1&#45;&gt;Node3</title>
<g id="a_edge2_Node000001_Node000003"><a xlink:title=" ">
<path fill="none" stroke="#63b8ff" d="M376.49,-220.16C432.63,-220.24 573.17,-211.3 620.92,-123 644.05,-80.23 559.14,-67.63 513.33,-63.97"/>
<polygon fill="#63b8ff" stroke="#63b8ff" points="513.37,-60.46 503.15,-63.25 512.88,-67.45 513.37,-60.46"/>
</a>
</g>
</g>
<!-- Node4 -->
<g id="Node000004" class="node">
<title>Node4</title>
<g id="a_Node000004"><a xlink:title=" ">
<polygon fill="#e0e0e0" stroke="#999999" points="215.92,-123 177.92,-123 177.92,-106 215.92,-106 215.92,-123"/>
<text text-anchor="middle" x="196.92" y="-112.6" font-family="Helvetica,sans-Serif" font-size="8.00">vector</text>
</a>
</g>
</g>
<!-- Node1&#45;&gt;Node4 -->
<g id="edge3_Node000001_Node000004" class="edge">
<title>Node1&#45;&gt;Node4</title>
<g id="a_edge3_Node000001_Node000004"><a xlink:title=" ">
<path fill="none" stroke="#63b8ff" d="M338.09,-211.91C322.31,-203.66 296.8,-189.8 275.92,-176 253.55,-161.21 229.26,-142.11 213.6,-129.37"/>
<polygon fill="#63b8ff" stroke="#63b8ff" points="215.81,-126.65 205.86,-123.01 211.37,-132.06 215.81,-126.65"/>
</a>
</g>
</g>
<!-- Node5 -->
<g id="Node000005" class="node">
<title>Node5</title>
<g id="a_Node000005"><a xlink:href="../../d8/d62/existence__set_8hpp.html" target="_top" xlink:title=" ">
<polygon fill="white" stroke="#666666" points="223.42,-176 76.42,-176 76.42,-159 223.42,-159 223.42,-176"/>
<text text-anchor="middle" x="149.92" y="-165.6" font-family="Helvetica,sans-Serif" font-size="8.00">../types/containers/existence_set.hpp</text>
</a>
</g>
</g>
<!-- Node1&#45;&gt;Node5 -->
<g id="edge4_Node000001_Node000005" class="edge">
<title>Node1&#45;&gt;Node5</title>
<g id="a_edge4_Node000001_Node000005"><a xlink:title=" ">
<path fill="none" stroke="#63b8ff" d="M329.24,-213.55C295.04,-204.96 231.37,-188.96 189.83,-178.53"/>
<polygon fill="#63b8ff" stroke="#63b8ff" points="190.59,-175.11 180.04,-176.07 188.88,-181.9 190.59,-175.11"/>
</a>
</g>
</g>
<!-- Node9 -->
<g id="Node000009" class="node">
<title>Node9</title>
<g id="a_Node000009"><a xlink:href="../../df/d93/utils_8hpp.html" target="_top" xlink:title=" ">
<polygon fill="white" stroke="#666666" points="423.42,-123 348.42,-123 348.42,-106 423.42,-106 423.42,-123"/>
<text text-anchor="middle" x="385.92" y="-112.6" font-family="Helvetica,sans-Serif" font-size="8.00">../../utils/utils.hpp</text>
</a>
</g>
</g>
<!-- Node1&#45;&gt;Node9 -->
<g id="edge22_Node000001_Node000009" class="edge">
<title>Node1&#45;&gt;Node9</title>
<g id="a_edge22_Node000001_Node000009"><a xlink:title=" ">
<path fill="none" stroke="#63b8ff" d="M355.4,-211.68C360.68,-195.04 373.15,-155.75 380.41,-132.87"/>
<polygon fill="#63b8ff" stroke="#63b8ff" points="383.82,-133.72 383.5,-123.12 377.14,-131.6 383.82,-133.72"/>
</a>
</g>
</g>
<!-- Node13 -->
<g id="Node000013" class="node">
<title>Node13</title>
<g id="a_Node000013"><a xlink:href="../../d7/d65/intrinsics_8hpp.html" target="_top" xlink:title=" ">
<polygon fill="#fff0f0" stroke="red" points="108.42,-70 23.42,-70 23.42,-53 108.42,-53 108.42,-70"/>
<text text-anchor="middle" x="65.92" y="-59.6" font-family="Helvetica,sans-Serif" font-size="8.00">../utils/intrinsics.hpp</text>
</a>
</g>
</g>
<!-- Node1&#45;&gt;Node13 -->
<g id="edge33_Node000001_Node000013" class="edge">
<title>Node1&#45;&gt;Node13</title>
<g id="a_edge33_Node000001_Node000013"><a xlink:title=" ">
<path fill="none" stroke="#63b8ff" d="M329.28,-217.86C269.3,-213.39 112.75,-199.73 66.92,-176 32.74,-158.3 -0.03,-141.03 15.92,-106 21.66,-93.4 33.05,-83.04 43.51,-75.59"/>
<polygon fill="#63b8ff" stroke="#63b8ff" points="45.51,-78.46 51.93,-70.03 41.66,-72.62 45.51,-78.46"/>
</a>
</g>
</g>
<!-- Node16 -->
<g id="Node000016" class="node">
<title>Node16</title>
<g id="a_Node000016"><a xlink:href="../../d2/d1c/solver_8hpp.html" target="_top" xlink:title=" ">
<polygon fill="white" stroke="#666666" points="356.92,-176 284.92,-176 284.92,-159 356.92,-159 356.92,-176"/>
<text text-anchor="middle" x="320.92" y="-165.6" font-family="Helvetica,sans-Serif" font-size="8.00">base/solver.hpp</text>
</a>
</g>
</g>
<!-- Node1&#45;&gt;Node16 -->
<g id="edge23_Node000001_Node000016" class="edge">
<title>Node1&#45;&gt;Node16</title>
<g id="a_edge23_Node000001_Node000016"><a xlink:title=" ">
<path fill="none" stroke="#63b8ff" d="M348.2,-211.97C343.71,-204.82 336.81,-193.82 331.07,-184.67"/>
<polygon fill="#63b8ff" stroke="#63b8ff" points="333.94,-182.67 325.66,-176.06 328.01,-186.39 333.94,-182.67"/>
</a>
</g>
</g>
<!-- Node17 -->
<g id="Node000017" class="node">
<title>Node17</title>
<g id="a_Node000017"><a xlink:href="../../d0/def/unmanaged__node_8hpp.html" target="_top" xlink:title=" ">
<polygon fill="white" stroke="#666666" points="530.42,-176 413.42,-176 413.42,-159 530.42,-159 530.42,-176"/>
<text text-anchor="middle" x="471.92" y="-165.6" font-family="Helvetica,sans-Serif" font-size="8.00">base/unmanaged_node.hpp</text>
</a>
</g>
</g>
<!-- Node1&#45;&gt;Node17 -->
<g id="edge30_Node000001_Node000017" class="edge">
<title>Node1&#45;&gt;Node17</title>
<g id="a_edge30_Node000001_Node000017"><a xlink:title=" ">
<path fill="none" stroke="#63b8ff" d="M370.48,-211.97C390.08,-203.58 422.03,-189.88 444.84,-180.11"/>
<polygon fill="#63b8ff" stroke="#63b8ff" points="446.48,-183.21 454.29,-176.06 443.72,-176.78 446.48,-183.21"/>
</a>
</g>
</g>
<!-- Node5&#45;&gt;Node2 -->
<g id="edge5_Node000005_Node000002" class="edge">
<title>Node5&#45;&gt;Node2</title>
<g id="a_edge5_Node000005_Node000002"><a xlink:title=" ">
<path fill="none" stroke="#63b8ff" d="M76.32,-159.09C53.4,-152.98 30.38,-142.12 15.92,-123 -2.85,-98.17 -6.21,-76.74 13.92,-53 43.28,-18.38 182.06,-11.28 245.34,-9.85"/>
<polygon fill="#63b8ff" stroke="#63b8ff" points="245.59,-13.34 255.53,-9.65 245.46,-6.34 245.59,-13.34"/>
</a>
</g>
</g>
<!-- Node5&#45;&gt;Node3 -->
<g id="edge7_Node000005_Node000003" class="edge">
<title>Node5&#45;&gt;Node3</title>
<g id="a_edge7_Node000005_Node000003"><a xlink:title=" ">
<path fill="none" stroke="#63b8ff" d="M223.46,-160.81C294.7,-154.29 396.94,-142 431.92,-123 450.82,-112.74 466.39,-93.18 475.88,-79.08"/>
<polygon fill="#63b8ff" stroke="#63b8ff" points="479.01,-80.68 481.44,-70.36 473.11,-76.91 479.01,-80.68"/>
</a>
</g>
</g>
<!-- Node5&#45;&gt;Node4 -->
<g id="edge10_Node000005_Node000004" class="edge">
<title>Node5&#45;&gt;Node4</title>
<g id="a_edge10_Node000005_Node000004"><a xlink:title=" ">
<path fill="none" stroke="#63b8ff" d="M156.86,-158.97C163.73,-151.52 174.45,-139.89 183.07,-130.53"/>
<polygon fill="#63b8ff" stroke="#63b8ff" points="185.76,-132.78 189.96,-123.06 180.61,-128.04 185.76,-132.78"/>
</a>
</g>
</g>
<!-- Node6 -->
<g id="Node000006" class="node">
<title>Node6</title>
<g id="a_Node000006"><a xlink:title=" ">
<polygon fill="#e0e0e0" stroke="#999999" points="176.92,-70 126.92,-70 126.92,-53 176.92,-53 176.92,-70"/>
<text text-anchor="middle" x="151.92" y="-59.6" font-family="Helvetica,sans-Serif" font-size="8.00">functional</text>
</a>
</g>
</g>
<!-- Node5&#45;&gt;Node6 -->
<g id="edge6_Node000005_Node000006" class="edge">
<title>Node5&#45;&gt;Node6</title>
<g id="a_edge6_Node000005_Node000006"><a xlink:title=" ">
<path fill="none" stroke="#63b8ff" d="M96.93,-158.93C56.41,-150.74 10.66,-134.82 30.92,-106 41.09,-91.54 84.98,-78.32 116.98,-70.35"/>
<polygon fill="#63b8ff" stroke="#63b8ff" points="118,-73.7 126.9,-67.95 116.35,-66.9 118,-73.7"/>
</a>
</g>
</g>
<!-- Node7 -->
<g id="Node000007" class="node">
<title>Node7</title>
<g id="a_Node000007"><a xlink:title=" ">
<polygon fill="#e0e0e0" stroke="#999999" points="121.92,-123 39.92,-123 39.92,-106 121.92,-106 121.92,-123"/>
<text text-anchor="middle" x="80.92" y="-112.6" font-family="Helvetica,sans-Serif" font-size="8.00">memory_resource</text>
</a>
</g>
</g>
<!-- Node5&#45;&gt;Node7 -->
<g id="edge8_Node000005_Node000007" class="edge">
<title>Node5&#45;&gt;Node7</title>
<g id="a_edge8_Node000005_Node000007"><a xlink:title=" ">
<path fill="none" stroke="#63b8ff" d="M139.74,-158.97C129.14,-151.14 112.31,-138.7 99.36,-129.13"/>
<polygon fill="#63b8ff" stroke="#63b8ff" points="101.27,-126.19 91.15,-123.06 97.11,-131.81 101.27,-126.19"/>
</a>
</g>
</g>
<!-- Node8 -->
<g id="Node000008" class="node">
<title>Node8</title>
<g id="a_Node000008"><a xlink:title=" ">
<polygon fill="#e0e0e0" stroke="#999999" points="248.42,-70 195.42,-70 195.42,-53 248.42,-53 248.42,-70"/>
<text text-anchor="middle" x="221.92" y="-59.6" font-family="Helvetica,sans-Serif" font-size="8.00">type_traits</text>
</a>
</g>
</g>
<!-- Node5&#45;&gt;Node8 -->
<g id="edge9_Node000005_Node000008" class="edge">
<title>Node5&#45;&gt;Node8</title>
<g id="a_edge9_Node000005_Node000008"><a xlink:title=" ">
<path fill="none" stroke="#63b8ff" d="M150.9,-158.82C152.73,-146.7 157.59,-122.79 168.92,-106 177.04,-93.98 189.44,-83.54 200.21,-75.91"/>
<polygon fill="#63b8ff" stroke="#63b8ff" points="202.39,-78.66 208.74,-70.18 198.48,-72.85 202.39,-78.66"/>
</a>
</g>
</g>
<!-- Node5&#45;&gt;Node9 -->
<g id="edge11_Node000005_Node000009" class="edge">
<title>Node5&#45;&gt;Node9</title>
<g id="a_edge11_Node000005_Node000009"><a xlink:title=" ">
<path fill="none" stroke="#63b8ff" d="M184.75,-158.97C226.23,-150.01 295.61,-135.02 341.08,-125.19"/>
<polygon fill="#63b8ff" stroke="#63b8ff" points="341.92,-128.59 350.96,-123.06 340.44,-121.75 341.92,-128.59"/>
</a>
</g>
</g>
<!-- Node5&#45;&gt;Node13 -->
<g id="edge21_Node000005_Node000013" class="edge">
<title>Node5&#45;&gt;Node13</title>
<g id="a_edge21_Node000005_Node000013"><a xlink:title=" ">
<path fill="none" stroke="#63b8ff" d="M81.35,-158.94C59.04,-152.86 36.54,-142.06 22.92,-123 11.48,-106.99 28.99,-88.55 44.99,-76.28"/>
<polygon fill="#63b8ff" stroke="#63b8ff" points="47.44,-78.82 53.52,-70.15 43.36,-73.14 47.44,-78.82"/>
</a>
</g>
</g>
<!-- Node9&#45;&gt;Node2 -->
<g id="edge14_Node000009_Node000002" class="edge">
<title>Node9&#45;&gt;Node2</title>
<g id="a_edge14_Node000009_Node000002"><a xlink:title=" ">
<path fill="none" stroke="#63b8ff" d="M356.59,-105.99C336.87,-99.51 311.69,-88.26 295.92,-70 285.57,-58.01 280.85,-40.39 278.71,-27.26"/>
<polygon fill="#63b8ff" stroke="#63b8ff" points="282.15,-26.59 277.41,-17.12 275.21,-27.48 282.15,-26.59"/>
</a>
</g>
</g>
<!-- Node9&#45;&gt;Node3 -->
<g id="edge16_Node000009_Node000003" class="edge">
<title>Node9&#45;&gt;Node3</title>
<g id="a_edge16_Node000009_Node000003"><a xlink:title=" ">
<path fill="none" stroke="#63b8ff" d="M400.68,-105.97C416.85,-97.73 443.04,-84.37 462.12,-74.64"/>
<polygon fill="#63b8ff" stroke="#63b8ff" points="463.79,-77.72 471.11,-70.06 460.61,-71.48 463.79,-77.72"/>
</a>
</g>
</g>
<!-- Node9&#45;&gt;Node6 -->
<g id="edge15_Node000009_Node000006" class="edge">
<title>Node9&#45;&gt;Node6</title>
<g id="a_edge15_Node000009_Node000006"><a xlink:title=" ">
<path fill="none" stroke="#63b8ff" d="M351.23,-105.99C313.29,-97.76 250.41,-84.11 186.95,-70.22"/>
<polygon fill="#63b8ff" stroke="#63b8ff" points="187.69,-66.8 177.17,-68.08 186.19,-73.64 187.69,-66.8"/>
</a>
</g>
</g>
<!-- Node9&#45;&gt;Node8 -->
<g id="edge18_Node000009_Node000008" class="edge">
<title>Node9&#45;&gt;Node8</title>
<g id="a_edge18_Node000009_Node000008"><a xlink:title=" ">
<path fill="none" stroke="#63b8ff" d="M361.72,-105.97C333.75,-97.27 287.5,-82.89 255.92,-73.07"/>
<polygon fill="#63b8ff" stroke="#63b8ff" points="256.81,-69.68 246.22,-70.06 254.73,-76.37 256.81,-69.68"/>
</a>
</g>
</g>
<!-- Node10 -->
<g id="Node000010" class="node">
<title>Node10</title>
<g id="a_Node000010"><a xlink:title=" ">
<polygon fill="#e0e0e0" stroke="#999999" points="394.42,-70 359.42,-70 359.42,-53 394.42,-53 394.42,-70"/>
<text text-anchor="middle" x="376.92" y="-59.6" font-family="Helvetica,sans-Serif" font-size="8.00">array</text>
</a>
</g>
</g>
<!-- Node9&#45;&gt;Node10 -->
<g id="edge12_Node000009_Node000010" class="edge">
<title>Node9&#45;&gt;Node10</title>
<g id="a_edge12_Node000009_Node000010"><a xlink:title=" ">
<path fill="none" stroke="#63b8ff" d="M384.6,-105.97C383.4,-99.19 381.59,-88.97 380.03,-80.13"/>
<polygon fill="#63b8ff" stroke="#63b8ff" points="383.44,-79.3 378.26,-70.06 376.55,-80.51 383.44,-79.3"/>
</a>
</g>
</g>
<!-- Node11 -->
<g id="Node000011" class="node">
<title>Node11</title>
<g id="a_Node000011"><a xlink:title=" ">
<polygon fill="#e0e0e0" stroke="#999999" points="450.92,-70 412.92,-70 412.92,-53 450.92,-53 450.92,-70"/>
<text text-anchor="middle" x="431.92" y="-59.6" font-family="Helvetica,sans-Serif" font-size="8.00">cmath</text>
</a>
</g>
</g>
<!-- Node9&#45;&gt;Node11 -->
<g id="edge13_Node000009_Node000011" class="edge">
<title>Node9&#45;&gt;Node11</title>
<g id="a_edge13_Node000009_Node000011"><a xlink:title=" ">
<path fill="none" stroke="#63b8ff" d="M392.71,-105.97C399.44,-98.52 409.93,-86.89 418.37,-77.53"/>
<polygon fill="#63b8ff" stroke="#63b8ff" points="421.01,-79.83 425.11,-70.06 415.81,-75.14 421.01,-79.83"/>
</a>
</g>
</g>
<!-- Node12 -->
<g id="Node000012" class="node">
<title>Node12</title>
<g id="a_Node000012"><a xlink:title=" ">
<polygon fill="#e0e0e0" stroke="#999999" points="340.92,-70 304.92,-70 304.92,-53 340.92,-53 340.92,-70"/>
<text text-anchor="middle" x="322.92" y="-59.6" font-family="Helvetica,sans-Serif" font-size="8.00">string</text>
</a>
</g>
</g>
<!-- Node9&#45;&gt;Node12 -->
<g id="edge17_Node000009_Node000012" class="edge">
<title>Node9&#45;&gt;Node12</title>
<g id="a_edge17_Node000009_Node000012"><a xlink:title=" ">
<path fill="none" stroke="#63b8ff" d="M376.63,-105.97C367.04,-98.22 351.88,-85.94 340.1,-76.41"/>
<polygon fill="#63b8ff" stroke="#63b8ff" points="342.23,-73.63 332.26,-70.06 337.83,-79.07 342.23,-73.63"/>
</a>
</g>
</g>
<!-- Node9&#45;&gt;Node13 -->
<g id="edge19_Node000009_Node000013" class="edge">
<title>Node9&#45;&gt;Node13</title>
<g id="a_edge19_Node000009_Node000013"><a xlink:title=" ">
<path fill="none" stroke="#63b8ff" d="M348.27,-107.5C291.35,-98.43 183.16,-81.19 118.5,-70.88"/>
<polygon fill="#63b8ff" stroke="#63b8ff" points="118.93,-67.4 108.51,-69.29 117.83,-74.32 118.93,-67.4"/>
</a>
</g>
</g>
<!-- Node13&#45;&gt;Node2 -->
<g id="edge20_Node000013_Node000002" class="edge">
<title>Node13&#45;&gt;Node2</title>
<g id="a_edge20_Node000013_Node000002"><a xlink:title=" ">
<path fill="none" stroke="#63b8ff" d="M97.06,-52.97C137.04,-43.31 206.03,-26.63 245.95,-16.99"/>
<polygon fill="#63b8ff" stroke="#63b8ff" points="247.01,-20.33 255.91,-14.58 245.37,-13.53 247.01,-20.33"/>
</a>
</g>
</g>
<!-- Node16&#45;&gt;Node2 -->
<g id="edge24_Node000016_Node000002" class="edge">
<title>Node16&#45;&gt;Node2</title>
<g id="a_edge24_Node000016_Node000002"><a xlink:title=" ">
<path fill="none" stroke="#63b8ff" d="M357.01,-165.26C393.02,-162.26 448.14,-152.71 484.92,-123 510.86,-102.05 533.25,-78.63 511.92,-53 486.32,-22.22 365.77,-13.13 307.97,-10.51"/>
<polygon fill="#63b8ff" stroke="#63b8ff" points="308.09,-7.02 297.95,-10.1 307.8,-14.01 308.09,-7.02"/>
</a>
</g>
</g>
<!-- Node16&#45;&gt;Node3 -->
<g id="edge25_Node000016_Node000003" class="edge">
<title>Node16&#45;&gt;Node3</title>
<g id="a_edge25_Node000016_Node000003"><a xlink:title=" ">
<path fill="none" stroke="#63b8ff" d="M357.19,-164.79C389.72,-161.36 436.72,-151.4 465.92,-123 477.45,-111.79 482.33,-93.82 484.4,-80.36"/>
<polygon fill="#63b8ff" stroke="#63b8ff" points="487.89,-80.72 485.56,-70.38 480.93,-79.91 487.89,-80.72"/>
</a>
</g>
</g>
<!-- Node16&#45;&gt;Node4 -->
<g id="edge27_Node000016_Node000004" class="edge">
<title>Node16&#45;&gt;Node4</title>
<g id="a_edge27_Node000016_Node000004"><a xlink:title=" ">
<path fill="none" stroke="#63b8ff" d="M302.63,-158.97C282.11,-150.54 248.61,-136.76 224.83,-126.98"/>
<polygon fill="#63b8ff" stroke="#63b8ff" points="225.87,-123.62 215.29,-123.06 223.21,-130.1 225.87,-123.62"/>
</a>
</g>
</g>
<!-- Node16&#45;&gt;Node8 -->
<g id="edge26_Node000016_Node000008" class="edge">
<title>Node16&#45;&gt;Node8</title>
<g id="a_edge26_Node000016_Node000008"><a xlink:title=" ">
<path fill="none" stroke="#63b8ff" d="M313.48,-158.68C297.06,-141.43 257.49,-99.87 236.15,-77.44"/>
<polygon fill="#63b8ff" stroke="#63b8ff" points="238.61,-74.95 229.18,-70.12 233.54,-79.78 238.61,-74.95"/>
</a>
</g>
</g>
<!-- Node16&#45;&gt;Node9 -->
<g id="edge28_Node000016_Node000009" class="edge">
<title>Node16&#45;&gt;Node9</title>
<g id="a_edge28_Node000016_Node000009"><a xlink:title=" ">
<path fill="none" stroke="#63b8ff" d="M330.51,-158.97C340.4,-151.22 356.05,-138.94 368.2,-129.41"/>
<polygon fill="#63b8ff" stroke="#63b8ff" points="370.59,-131.98 376.29,-123.06 366.26,-126.48 370.59,-131.98"/>
</a>
</g>
</g>
<!-- Node16&#45;&gt;Node13 -->
<g id="edge29_Node000016_Node000013" class="edge">
<title>Node16&#45;&gt;Node13</title>
<g id="a_edge29_Node000016_Node000013"><a xlink:title=" ">
<path fill="none" stroke="#63b8ff" d="M311.11,-158.92C294.32,-146.28 258.64,-120.84 224.92,-106 189.83,-90.55 147.91,-79.36 115.93,-72.19"/>
<polygon fill="#63b8ff" stroke="#63b8ff" points="116.43,-68.72 105.91,-70.01 114.94,-75.56 116.43,-68.72"/>
</a>
</g>
</g>
<!-- Node17&#45;&gt;Node13 -->
<g id="edge32_Node000017_Node000013" class="edge">
<title>Node17&#45;&gt;Node13</title>
<g id="a_edge32_Node000017_Node000013"><a xlink:title=" ">
<path fill="none" stroke="#63b8ff" d="M446.3,-158.95C405.81,-147.1 324.48,-123.69 254.92,-106 205.8,-93.51 149.09,-80.66 110.71,-72.2"/>
<polygon fill="#63b8ff" stroke="#63b8ff" points="111.39,-68.77 100.87,-70.04 109.89,-75.61 111.39,-68.77"/>
</a>
</g>
</g>
<!-- Node18 -->
<g id="Node000018" class="node">
<title>Node18</title>
<g id="a_Node000018"><a xlink:href="../../dc/d3c/bnode_8hpp.html" target="_top" xlink:title=" ">
<polygon fill="white" stroke="#666666" points="611.42,-123 556.42,-123 556.42,-106 611.42,-106 611.42,-123"/>
<text text-anchor="middle" x="583.92" y="-112.6" font-family="Helvetica,sans-Serif" font-size="8.00">bnode.hpp</text>
</a>
</g>
</g>
<!-- Node17&#45;&gt;Node18 -->
<g id="edge31_Node000017_Node000018" class="edge">
<title>Node17&#45;&gt;Node18</title>
<g id="a_edge31_Node000017_Node000018"><a xlink:title=" ">
<path fill="none" stroke="#63b8ff" d="M488.45,-158.97C506.81,-150.61 536.7,-137 558.14,-127.24"/>
<polygon fill="#63b8ff" stroke="#63b8ff" points="559.68,-130.39 567.33,-123.06 556.78,-124.01 559.68,-130.39"/>
</a>
</g>
</g>
</g>
</svg>
