<?xml version="1.0" encoding="UTF-8" standalone="no"?>
<!DOCTYPE svg PUBLIC "-//W3C//DTD SVG 1.1//EN"
 "http://www.w3.org/Graphics/SVG/1.1/DTD/svg11.dtd">
<!-- Generated by graphviz version 2.43.0 (0)
 -->
<!-- Title: graph.hpp Pages: 1 -->
<svg width="1209pt" height="237pt"
 viewBox="0.00 0.00 1209.13 237.00" xmlns="http://www.w3.org/2000/svg" xmlns:xlink="http://www.w3.org/1999/xlink">
<g id="graph0" class="graph" transform="scale(1 1) rotate(0) translate(4 233)">
<title>graph.hpp</title>
<!-- Node1 -->
<g id="Node000001" class="node">
<title>Node1</title>
<g id="a_Node000001"><a xlink:title=" ">
<polygon fill="#999999" stroke="#666666" points="578.31,-229 525.31,-229 525.31,-212 578.31,-212 578.31,-229"/>
<text text-anchor="middle" x="551.81" y="-218.6" font-family="Helvetica,sans-Serif" font-size="8.00">graph.hpp</text>
</a>
</g>
</g>
<!-- Node2 -->
<g id="Node000002" class="node">
<title>Node2</title>
<g id="a_Node000002"><a xlink:title=" ">
<polygon fill="#e0e0e0" stroke="#999999" points="784.31,-70 749.31,-70 749.31,-53 784.31,-53 784.31,-70"/>
<text text-anchor="middle" x="766.81" y="-59.6" font-family="Helvetica,sans-Serif" font-size="8.00">array</text>
</a>
</g>
</g>
<!-- Node1&#45;&gt;Node2 -->
<g id="edge1_Node000001_Node000002" class="edge">
<title>Node1&#45;&gt;Node2</title>
<g id="a_edge1_Node000001_Node000002"><a xlink:title=" ">
<path fill="none" stroke="#63b8ff" d="M578.65,-218.35C632.21,-215.43 749.35,-205.72 773.81,-176 796.32,-148.65 783.84,-103.87 774.35,-79.54"/>
<polygon fill="#63b8ff" stroke="#63b8ff" points="777.54,-78.09 770.47,-70.2 771.08,-80.78 777.54,-78.09"/>
</a>
</g>
</g>
<!-- Node3 -->
<g id="Node000003" class="node">
<title>Node3</title>
<g id="a_Node000003"><a xlink:title=" ">
<polygon fill="#e0e0e0" stroke="#999999" points="346.81,-123 304.81,-123 304.81,-106 346.81,-106 346.81,-123"/>
<text text-anchor="middle" x="325.81" y="-112.6" font-family="Helvetica,sans-Serif" font-size="8.00">cassert</text>
</a>
</g>
</g>
<!-- Node1&#45;&gt;Node3 -->
<g id="edge2_Node000001_Node000003" class="edge">
<title>Node1&#45;&gt;Node3</title>
<g id="a_edge2_Node000001_Node000003"><a xlink:title=" ">
<path fill="none" stroke="#63b8ff" d="M575.7,-211.97C604.99,-201.54 648.48,-181.43 628.81,-159 590.28,-115.06 431.16,-132.65 356.94,-122.72"/>
<polygon fill="#63b8ff" stroke="#63b8ff" points="357.48,-119.26 347.05,-121.13 356.37,-126.17 357.48,-119.26"/>
</a>
</g>
</g>
<!-- Node4 -->
<g id="Node000004" class="node">
<title>Node4</title>
<g id="a_Node000004"><a xlink:title=" ">
<polygon fill="#e0e0e0" stroke="#999999" points="534.81,-17 492.81,-17 492.81,0 534.81,0 534.81,-17"/>
<text text-anchor="middle" x="513.81" y="-6.6" font-family="Helvetica,sans-Serif" font-size="8.00">cstddef</text>
</a>
</g>
</g>
<!-- Node1&#45;&gt;Node4 -->
<g id="edge3_Node000001_Node000004" class="edge">
<title>Node1&#45;&gt;Node4</title>
<g id="a_edge3_Node000001_Node000004"><a xlink:title=" ">
<path fill="none" stroke="#63b8ff" d="M578.39,-217.63C680.08,-210.1 1043.77,-179.65 1142.81,-123 1176,-104.02 1218.97,-80.89 1192.81,-53 1170.36,-29.06 675.11,-13.9 544.93,-10.32"/>
<polygon fill="#63b8ff" stroke="#63b8ff" points="544.93,-6.82 534.83,-10.05 544.74,-13.82 544.93,-6.82"/>
</a>
</g>
</g>
<!-- Node5 -->
<g id="Node000005" class="node">
<title>Node5</title>
<g id="a_Node000005"><a xlink:title=" ">
<polygon fill="#e0e0e0" stroke="#999999" points="214.81,-176 176.81,-176 176.81,-159 214.81,-159 214.81,-176"/>
<text text-anchor="middle" x="195.81" y="-165.6" font-family="Helvetica,sans-Serif" font-size="8.00">future</text>
</a>
</g>
</g>
<!-- Node1&#45;&gt;Node5 -->
<g id="edge4_Node000001_Node000005" class="edge">
<title>Node1&#45;&gt;Node5</title>
<g id="a_edge4_Node000001_Node000005"><a xlink:title=" ">
<path fill="none" stroke="#63b8ff" d="M525.26,-217.16C470.73,-212.1 342.08,-198.88 224.87,-175.95"/>
<polygon fill="#63b8ff" stroke="#63b8ff" points="225.5,-172.51 215.01,-174 224.14,-179.38 225.5,-172.51"/>
</a>
</g>
</g>
<!-- Node6 -->
<g id="Node000006" class="node">
<title>Node6</title>
<g id="a_Node000006"><a xlink:title=" ">
<polygon fill="#e0e0e0" stroke="#999999" points="292.81,-176 232.81,-176 232.81,-159 292.81,-159 292.81,-176"/>
<text text-anchor="middle" x="262.81" y="-165.6" font-family="Helvetica,sans-Serif" font-size="8.00">initializer_list</text>
</a>
</g>
</g>
<!-- Node1&#45;&gt;Node6 -->
<g id="edge5_Node000001_Node000006" class="edge">
<title>Node1&#45;&gt;Node6</title>
<g id="a_edge5_Node000001_Node000006"><a xlink:title=" ">
<path fill="none" stroke="#63b8ff" d="M525.14,-215.02C481.1,-207.59 390.14,-192.09 303.08,-176.2"/>
<polygon fill="#63b8ff" stroke="#63b8ff" points="303.5,-172.72 293.03,-174.37 302.24,-179.61 303.5,-172.72"/>
</a>
</g>
</g>
<!-- Node7 -->
<g id="Node000007" class="node">
<title>Node7</title>
<g id="a_Node000007"><a xlink:title=" ">
<polygon fill="#e0e0e0" stroke="#999999" points="348.81,-176 310.81,-176 310.81,-159 348.81,-159 348.81,-176"/>
<text text-anchor="middle" x="329.81" y="-165.6" font-family="Helvetica,sans-Serif" font-size="8.00">mutex</text>
</a>
</g>
</g>
<!-- Node1&#45;&gt;Node7 -->
<g id="edge6_Node000001_Node000007" class="edge">
<title>Node1&#45;&gt;Node7</title>
<g id="a_edge6_Node000001_Node000007"><a xlink:title=" ">
<path fill="none" stroke="#63b8ff" d="M525.06,-213.87C489.39,-206.28 424.09,-192.1 359.07,-176.23"/>
<polygon fill="#63b8ff" stroke="#63b8ff" points="359.61,-172.76 349.06,-173.77 357.94,-179.55 359.61,-172.76"/>
</a>
</g>
</g>
<!-- Node8 -->
<g id="Node000008" class="node">
<title>Node8</title>
<g id="a_Node000008"><a xlink:title=" ">
<polygon fill="#e0e0e0" stroke="#999999" points="406.81,-176 366.81,-176 366.81,-159 406.81,-159 406.81,-176"/>
<text text-anchor="middle" x="386.81" y="-165.6" font-family="Helvetica,sans-Serif" font-size="8.00">thread</text>
</a>
</g>
</g>
<!-- Node1&#45;&gt;Node8 -->
<g id="edge7_Node000001_Node000008" class="edge">
<title>Node1&#45;&gt;Node8</title>
<g id="a_edge7_Node000001_Node000008"><a xlink:title=" ">
<path fill="none" stroke="#63b8ff" d="M527.46,-211.97C498.02,-202.87 448.47,-187.56 416.73,-177.75"/>
<polygon fill="#63b8ff" stroke="#63b8ff" points="417.68,-174.38 407.1,-174.77 415.62,-181.07 417.68,-174.38"/>
</a>
</g>
</g>
<!-- Node9 -->
<g id="Node000009" class="node">
<title>Node9</title>
<g id="a_Node000009"><a xlink:title=" ">
<polygon fill="#e0e0e0" stroke="#999999" points="498.81,-176 424.81,-176 424.81,-159 498.81,-159 498.81,-176"/>
<text text-anchor="middle" x="461.81" y="-165.6" font-family="Helvetica,sans-Serif" font-size="8.00">unordered_map</text>
</a>
</g>
</g>
<!-- Node1&#45;&gt;Node9 -->
<g id="edge8_Node000001_Node000009" class="edge">
<title>Node1&#45;&gt;Node9</title>
<g id="a_edge8_Node000001_Node000009"><a xlink:title=" ">
<path fill="none" stroke="#63b8ff" d="M538.53,-211.97C524.17,-203.84 501.05,-190.74 483.94,-181.04"/>
<polygon fill="#63b8ff" stroke="#63b8ff" points="485.57,-177.94 475.15,-176.06 482.12,-184.03 485.57,-177.94"/>
</a>
</g>
</g>
<!-- Node10 -->
<g id="Node000010" class="node">
<title>Node10</title>
<g id="a_Node000010"><a xlink:title=" ">
<polygon fill="#e0e0e0" stroke="#999999" points="586.31,-176 517.31,-176 517.31,-159 586.31,-159 586.31,-176"/>
<text text-anchor="middle" x="551.81" y="-165.6" font-family="Helvetica,sans-Serif" font-size="8.00">unordered_set</text>
</a>
</g>
</g>
<!-- Node1&#45;&gt;Node10 -->
<g id="edge9_Node000001_Node000010" class="edge">
<title>Node1&#45;&gt;Node10</title>
<g id="a_edge9_Node000001_Node000010"><a xlink:title=" ">
<path fill="none" stroke="#63b8ff" d="M551.81,-211.97C551.81,-205.19 551.81,-194.97 551.81,-186.13"/>
<polygon fill="#63b8ff" stroke="#63b8ff" points="555.31,-186.06 551.81,-176.06 548.31,-186.06 555.31,-186.06"/>
</a>
</g>
</g>
<!-- Node11 -->
<g id="Node000011" class="node">
<title>Node11</title>
<g id="a_Node000011"><a xlink:title=" ">
<polygon fill="#e0e0e0" stroke="#999999" points="398.81,-123 364.81,-123 364.81,-106 398.81,-106 398.81,-123"/>
<text text-anchor="middle" x="381.81" y="-112.6" font-family="Helvetica,sans-Serif" font-size="8.00">utility</text>
</a>
</g>
</g>
<!-- Node1&#45;&gt;Node11 -->
<g id="edge10_Node000001_Node000011" class="edge">
<title>Node1&#45;&gt;Node11</title>
<g id="a_edge10_Node000001_Node000011"><a xlink:title=" ">
<path fill="none" stroke="#63b8ff" d="M578.4,-215.63C620.36,-208.45 694.47,-190.85 666.81,-159 629.44,-115.95 468.8,-133.72 412.81,-123 411.56,-122.76 410.28,-122.5 408.99,-122.23"/>
<polygon fill="#63b8ff" stroke="#63b8ff" points="409.65,-118.79 399.13,-120 408.11,-125.62 409.65,-118.79"/>
</a>
</g>
</g>
<!-- Node12 -->
<g id="Node000012" class="node">
<title>Node12</title>
<g id="a_Node000012"><a xlink:title=" ">
<polygon fill="#e0e0e0" stroke="#999999" points="286.81,-123 248.81,-123 248.81,-106 286.81,-106 286.81,-123"/>
<text text-anchor="middle" x="267.81" y="-112.6" font-family="Helvetica,sans-Serif" font-size="8.00">vector</text>
</a>
</g>
</g>
<!-- Node1&#45;&gt;Node12 -->
<g id="edge11_Node000001_Node000012" class="edge">
<title>Node1&#45;&gt;Node12</title>
<g id="a_edge11_Node000001_Node000012"><a xlink:title=" ">
<path fill="none" stroke="#63b8ff" d="M564.35,-211.88C582.32,-200.06 611.58,-176.78 595.81,-159 553.17,-110.93 377.76,-133.55 297.26,-122.7"/>
<polygon fill="#63b8ff" stroke="#63b8ff" points="297.44,-119.18 287.01,-121.03 296.31,-126.09 297.44,-119.18"/>
</a>
</g>
</g>
<!-- Node13 -->
<g id="Node000013" class="node">
<title>Node13</title>
<g id="a_Node000013"><a xlink:title=" ">
<polygon fill="#e0e0e0" stroke="#999999" points="101.81,-123 19.81,-123 19.81,-106 101.81,-106 101.81,-123"/>
<text text-anchor="middle" x="60.81" y="-112.6" font-family="Helvetica,sans-Serif" font-size="8.00">memory_resource</text>
</a>
</g>
</g>
<!-- Node1&#45;&gt;Node13 -->
<g id="edge12_Node000001_Node000013" class="edge">
<title>Node1&#45;&gt;Node13</title>
<g id="a_edge12_Node000001_Node000013"><a xlink:title=" ">
<path fill="none" stroke="#63b8ff" d="M525.17,-219.33C423.7,-218.41 65.47,-212.59 31.81,-176 19.67,-162.8 32.63,-143.58 44.89,-130.36"/>
<polygon fill="#63b8ff" stroke="#63b8ff" points="47.63,-132.58 52.2,-123.02 42.67,-127.64 47.63,-132.58"/>
</a>
</g>
</g>
<!-- Node14 -->
<g id="Node000014" class="node">
<title>Node14</title>
<g id="a_Node000014"><a xlink:href="../../df/d47/stack_8hpp.html" target="_top" xlink:title=" ">
<polygon fill="white" stroke="#666666" points="158.31,-176 41.31,-176 41.31,-159 158.31,-159 158.31,-176"/>
<text text-anchor="middle" x="99.81" y="-165.6" font-family="Helvetica,sans-Serif" font-size="8.00">../types/containers/stack.hpp</text>
</a>
</g>
</g>
<!-- Node1&#45;&gt;Node14 -->
<g id="edge13_Node000001_Node000014" class="edge">
<title>Node1&#45;&gt;Node14</title>
<g id="a_edge13_Node000001_Node000014"><a xlink:title=" ">
<path fill="none" stroke="#63b8ff" d="M525.22,-216.5C456.34,-208.73 270.39,-187.75 168.63,-176.27"/>
<polygon fill="#63b8ff" stroke="#63b8ff" points="168.79,-172.76 158.46,-175.12 168,-179.72 168.79,-172.76"/>
</a>
</g>
</g>
<!-- Node15 -->
<g id="Node000015" class="node">
<title>Node15</title>
<g id="a_Node000015"><a xlink:href="../../d7/d65/intrinsics_8hpp.html" target="_top" xlink:title=" ">
<polygon fill="white" stroke="#666666" points="192.81,-70 100.81,-70 100.81,-53 192.81,-53 192.81,-70"/>
<text text-anchor="middle" x="146.81" y="-59.6" font-family="Helvetica,sans-Serif" font-size="8.00">../../utils/intrinsics.hpp</text>
</a>
</g>
</g>
<!-- Node1&#45;&gt;Node15 -->
<g id="edge48_Node000001_Node000015" class="edge">
<title>Node1&#45;&gt;Node15</title>
<g id="a_edge48_Node000001_Node000015"><a xlink:title=" ">
<path fill="none" stroke="#63b8ff" d="M525.01,-219.1C422.93,-217.32 62.21,-208.76 23.81,-176 -0.26,-155.46 -7.85,-131.56 10.81,-106 29.05,-81.02 61.82,-70.05 90.63,-65.38"/>
<polygon fill="#63b8ff" stroke="#63b8ff" points="91.2,-68.83 100.62,-63.97 90.23,-61.9 91.2,-68.83"/>
</a>
</g>
</g>
<!-- Node18 -->
<g id="Node000018" class="node">
<title>Node18</title>
<g id="a_Node000018"><a xlink:href="../../df/d93/utils_8hpp.html" target="_top" xlink:title=" ">
<polygon fill="white" stroke="#666666" points="1133.81,-123 1065.81,-123 1065.81,-106 1133.81,-106 1133.81,-123"/>
<text text-anchor="middle" x="1099.81" y="-112.6" font-family="Helvetica,sans-Serif" font-size="8.00">../utils/utils.hpp</text>
</a>
</g>
</g>
<!-- Node1&#45;&gt;Node18 -->
<g id="edge21_Node000001_Node000018" class="edge">
<title>Node1&#45;&gt;Node18</title>
<g id="a_edge21_Node000001_Node000018"><a xlink:title=" ">
<path fill="none" stroke="#63b8ff" d="M578.43,-216.73C632.12,-210.94 757.15,-196.36 860.81,-176 933.63,-161.7 1017.45,-139.02 1063.96,-125.87"/>
<polygon fill="#63b8ff" stroke="#63b8ff" points="1065.19,-129.16 1073.85,-123.06 1063.27,-122.42 1065.19,-129.16"/>
</a>
</g>
</g>
<!-- Node24 -->
<g id="Node000024" class="node">
<title>Node24</title>
<g id="a_Node000024"><a xlink:href="../../dc/d8a/grid_8hpp.html" target="_top" xlink:title=" ">
<polygon fill="white" stroke="#666666" points="764.81,-176 718.81,-176 718.81,-159 764.81,-159 764.81,-176"/>
<text text-anchor="middle" x="741.81" y="-165.6" font-family="Helvetica,sans-Serif" font-size="8.00">grid.hpp</text>
</a>
</g>
</g>
<!-- Node1&#45;&gt;Node24 -->
<g id="edge30_Node000001_Node000024" class="edge">
<title>Node1&#45;&gt;Node24</title>
<g id="a_edge30_Node000001_Node000024"><a xlink:title=" ">
<path fill="none" stroke="#63b8ff" d="M578.63,-212.3C612.85,-203.12 672.02,-187.23 708.93,-177.33"/>
<polygon fill="#63b8ff" stroke="#63b8ff" points="709.95,-180.68 718.7,-174.7 708.14,-173.91 709.95,-180.68"/>
</a>
</g>
</g>
<!-- Node28 -->
<g id="Node000028" class="node">
<title>Node28</title>
<g id="a_Node000028"><a xlink:href="../../d9/ddd/id__node_8hpp.html" target="_top" xlink:title=" ">
<polygon fill="white" stroke="#666666" points="1047.31,-123 962.31,-123 962.31,-106 1047.31,-106 1047.31,-123"/>
<text text-anchor="middle" x="1004.81" y="-112.6" font-family="Helvetica,sans-Serif" font-size="8.00">nodes/id_node.hpp</text>
</a>
</g>
</g>
<!-- Node1&#45;&gt;Node28 -->
<g id="edge46_Node000001_Node000028" class="edge">
<title>Node1&#45;&gt;Node28</title>
<g id="a_edge46_Node000001_Node000028"><a xlink:title=" ">
<path fill="none" stroke="#63b8ff" d="M578.61,-216.51C627.02,-210.81 732.09,-197.04 818.81,-176 875.22,-162.32 939.22,-139.93 975.53,-126.57"/>
<polygon fill="#63b8ff" stroke="#63b8ff" points="976.85,-129.81 985.01,-123.05 974.41,-123.25 976.85,-129.81"/>
</a>
</g>
</g>
<!-- Node14&#45;&gt;Node4 -->
<g id="edge14_Node000014_Node000004" class="edge">
<title>Node14&#45;&gt;Node4</title>
<g id="a_edge14_Node000014_Node000004"><a xlink:title=" ">
<path fill="none" stroke="#63b8ff" d="M116.46,-158.86C142.54,-146.99 194.69,-123.67 239.81,-106 327.02,-71.85 431.89,-36.46 482.91,-19.61"/>
<polygon fill="#63b8ff" stroke="#63b8ff" points="484.26,-22.85 492.66,-16.39 482.07,-16.2 484.26,-22.85"/>
</a>
</g>
</g>
<!-- Node14&#45;&gt;Node12 -->
<g id="edge16_Node000014_Node000012" class="edge">
<title>Node14&#45;&gt;Node12</title>
<g id="a_edge16_Node000014_Node000012"><a xlink:title=" ">
<path fill="none" stroke="#63b8ff" d="M124.6,-158.97C155.07,-149.72 206.7,-134.05 238.93,-124.27"/>
<polygon fill="#63b8ff" stroke="#63b8ff" points="240.12,-127.57 248.67,-121.31 238.08,-120.87 240.12,-127.57"/>
</a>
</g>
</g>
<!-- Node14&#45;&gt;Node13 -->
<g id="edge15_Node000014_Node000013" class="edge">
<title>Node14&#45;&gt;Node13</title>
<g id="a_edge15_Node000014_Node000013"><a xlink:title=" ">
<path fill="none" stroke="#63b8ff" d="M94.06,-158.97C88.47,-151.67 79.82,-140.35 72.74,-131.1"/>
<polygon fill="#63b8ff" stroke="#63b8ff" points="75.44,-128.87 66.59,-123.06 69.88,-133.13 75.44,-128.87"/>
</a>
</g>
</g>
<!-- Node14&#45;&gt;Node15 -->
<g id="edge17_Node000014_Node000015" class="edge">
<title>Node14&#45;&gt;Node15</title>
<g id="a_edge17_Node000014_Node000015"><a xlink:title=" ">
<path fill="none" stroke="#63b8ff" d="M103.34,-158.68C110.93,-141.89 128.94,-102.04 139.24,-79.25"/>
<polygon fill="#63b8ff" stroke="#63b8ff" points="142.44,-80.68 143.37,-70.12 136.06,-77.8 142.44,-80.68"/>
</a>
</g>
</g>
<!-- Node15&#45;&gt;Node4 -->
<g id="edge19_Node000015_Node000004" class="edge">
<title>Node15&#45;&gt;Node4</title>
<g id="a_edge19_Node000015_Node000004"><a xlink:title=" ">
<path fill="none" stroke="#63b8ff" d="M192.92,-54.09C268.78,-43.55 417.96,-22.82 482.65,-13.83"/>
<polygon fill="#63b8ff" stroke="#63b8ff" points="483.22,-17.28 492.64,-12.44 482.26,-10.35 483.22,-17.28"/>
</a>
</g>
</g>
<!-- Node16 -->
<g id="Node000016" class="node">
<title>Node16</title>
<g id="a_Node000016"><a xlink:title=" ">
<polygon fill="#e0e0e0" stroke="#999999" points="195.81,-17 155.81,-17 155.81,0 195.81,0 195.81,-17"/>
<text text-anchor="middle" x="175.81" y="-6.6" font-family="Helvetica,sans-Serif" font-size="8.00">atomic</text>
</a>
</g>
</g>
<!-- Node15&#45;&gt;Node16 -->
<g id="edge18_Node000015_Node000016" class="edge">
<title>Node15&#45;&gt;Node16</title>
<g id="a_edge18_Node000015_Node000016"><a xlink:title=" ">
<path fill="none" stroke="#63b8ff" d="M151.09,-52.97C155.12,-45.89 161.28,-35.05 166.45,-25.96"/>
<polygon fill="#63b8ff" stroke="#63b8ff" points="169.61,-27.48 171.51,-17.06 163.53,-24.02 169.61,-27.48"/>
</a>
</g>
</g>
<!-- Node17 -->
<g id="Node000017" class="node">
<title>Node17</title>
<g id="a_Node000017"><a xlink:title=" ">
<polygon fill="#e0e0e0" stroke="#999999" points="137.81,-17 99.81,-17 99.81,0 137.81,0 137.81,-17"/>
<text text-anchor="middle" x="118.81" y="-6.6" font-family="Helvetica,sans-Serif" font-size="8.00">cstdlib</text>
</a>
</g>
</g>
<!-- Node15&#45;&gt;Node17 -->
<g id="edge20_Node000015_Node000017" class="edge">
<title>Node15&#45;&gt;Node17</title>
<g id="a_edge20_Node000015_Node000017"><a xlink:title=" ">
<path fill="none" stroke="#63b8ff" d="M142.68,-52.97C138.79,-45.89 132.84,-35.05 127.85,-25.96"/>
<polygon fill="#63b8ff" stroke="#63b8ff" points="130.84,-24.14 122.96,-17.06 124.7,-27.51 130.84,-24.14"/>
</a>
</g>
</g>
<!-- Node18&#45;&gt;Node2 -->
<g id="edge22_Node000018_Node000002" class="edge">
<title>Node18&#45;&gt;Node2</title>
<g id="a_edge22_Node000018_Node000002"><a xlink:title=" ">
<path fill="none" stroke="#63b8ff" d="M1065.56,-107.45C1062.6,-106.95 1059.65,-106.46 1056.81,-106 960.63,-90.4 846.18,-73.81 794.53,-66.43"/>
<polygon fill="#63b8ff" stroke="#63b8ff" points="794.88,-62.95 784.49,-65 793.89,-69.88 794.88,-62.95"/>
</a>
</g>
</g>
<!-- Node18&#45;&gt;Node4 -->
<g id="edge24_Node000018_Node000004" class="edge">
<title>Node18&#45;&gt;Node4</title>
<g id="a_edge24_Node000018_Node000004"><a xlink:title=" ">
<path fill="none" stroke="#63b8ff" d="M1085.02,-105.85C1054.85,-90.3 988.09,-56.19 976.81,-53 895.15,-29.93 635.43,-15.42 545.12,-10.96"/>
<polygon fill="#63b8ff" stroke="#63b8ff" points="545.13,-7.46 534.97,-10.47 544.79,-14.45 545.13,-7.46"/>
</a>
</g>
</g>
<!-- Node18&#45;&gt;Node15 -->
<g id="edge29_Node000018_Node000015" class="edge">
<title>Node18&#45;&gt;Node15</title>
<g id="a_edge29_Node000018_Node000015"><a xlink:title=" ">
<path fill="none" stroke="#63b8ff" d="M1065.6,-107.14C1062.63,-106.7 1059.67,-106.32 1056.81,-106 735.12,-70.4 346.28,-63.92 203.17,-62.75"/>
<polygon fill="#63b8ff" stroke="#63b8ff" points="202.92,-59.25 192.9,-62.67 202.87,-66.25 202.92,-59.25"/>
</a>
</g>
</g>
<!-- Node19 -->
<g id="Node000019" class="node">
<title>Node19</title>
<g id="a_Node000019"><a xlink:title=" ">
<polygon fill="#e0e0e0" stroke="#999999" points="1115.81,-70 1077.81,-70 1077.81,-53 1115.81,-53 1115.81,-70"/>
<text text-anchor="middle" x="1096.81" y="-59.6" font-family="Helvetica,sans-Serif" font-size="8.00">cmath</text>
</a>
</g>
</g>
<!-- Node18&#45;&gt;Node19 -->
<g id="edge23_Node000018_Node000019" class="edge">
<title>Node18&#45;&gt;Node19</title>
<g id="a_edge23_Node000018_Node000019"><a xlink:title=" ">
<path fill="none" stroke="#63b8ff" d="M1099.37,-105.97C1098.97,-99.19 1098.37,-88.97 1097.85,-80.13"/>
<polygon fill="#63b8ff" stroke="#63b8ff" points="1101.34,-79.83 1097.26,-70.06 1094.35,-80.24 1101.34,-79.83"/>
</a>
</g>
</g>
<!-- Node20 -->
<g id="Node000020" class="node">
<title>Node20</title>
<g id="a_Node000020"><a xlink:title=" ">
<polygon fill="#e0e0e0" stroke="#999999" points="1183.81,-70 1133.81,-70 1133.81,-53 1183.81,-53 1183.81,-70"/>
<text text-anchor="middle" x="1158.81" y="-59.6" font-family="Helvetica,sans-Serif" font-size="8.00">functional</text>
</a>
</g>
</g>
<!-- Node18&#45;&gt;Node20 -->
<g id="edge25_Node000018_Node000020" class="edge">
<title>Node18&#45;&gt;Node20</title>
<g id="a_edge25_Node000018_Node000020"><a xlink:title=" ">
<path fill="none" stroke="#63b8ff" d="M1108.52,-105.97C1117.41,-98.29 1131.42,-86.18 1142.4,-76.69"/>
<polygon fill="#63b8ff" stroke="#63b8ff" points="1144.79,-79.24 1150.07,-70.06 1140.22,-73.95 1144.79,-79.24"/>
</a>
</g>
</g>
<!-- Node21 -->
<g id="Node000021" class="node">
<title>Node21</title>
<g id="a_Node000021"><a xlink:title=" ">
<polygon fill="#e0e0e0" stroke="#999999" points="967.81,-70 933.81,-70 933.81,-53 967.81,-53 967.81,-70"/>
<text text-anchor="middle" x="950.81" y="-59.6" font-family="Helvetica,sans-Serif" font-size="8.00">limits</text>
</a>
</g>
</g>
<!-- Node18&#45;&gt;Node21 -->
<g id="edge26_Node000018_Node000021" class="edge">
<title>Node18&#45;&gt;Node21</title>
<g id="a_edge26_Node000018_Node000021"><a xlink:title=" ">
<path fill="none" stroke="#63b8ff" d="M1077.83,-105.97C1051.29,-96.89 1006.68,-81.62 978.01,-71.81"/>
<polygon fill="#63b8ff" stroke="#63b8ff" points="978.83,-68.39 968.23,-68.46 976.56,-75.01 978.83,-68.39"/>
</a>
</g>
</g>
<!-- Node22 -->
<g id="Node000022" class="node">
<title>Node22</title>
<g id="a_Node000022"><a xlink:title=" ">
<polygon fill="#e0e0e0" stroke="#999999" points="1059.81,-70 1023.81,-70 1023.81,-53 1059.81,-53 1059.81,-70"/>
<text text-anchor="middle" x="1041.81" y="-59.6" font-family="Helvetica,sans-Serif" font-size="8.00">string</text>
</a>
</g>
</g>
<!-- Node18&#45;&gt;Node22 -->
<g id="edge27_Node000018_Node000022" class="edge">
<title>Node18&#45;&gt;Node22</title>
<g id="a_edge27_Node000018_Node000022"><a xlink:title=" ">
<path fill="none" stroke="#63b8ff" d="M1091.25,-105.97C1082.51,-98.29 1068.74,-86.18 1057.94,-76.69"/>
<polygon fill="#63b8ff" stroke="#63b8ff" points="1060.23,-74.03 1050.4,-70.06 1055.6,-79.29 1060.23,-74.03"/>
</a>
</g>
</g>
<!-- Node23 -->
<g id="Node000023" class="node">
<title>Node23</title>
<g id="a_Node000023"><a xlink:title=" ">
<polygon fill="#e0e0e0" stroke="#999999" points="915.31,-70 862.31,-70 862.31,-53 915.31,-53 915.31,-70"/>
<text text-anchor="middle" x="888.81" y="-59.6" font-family="Helvetica,sans-Serif" font-size="8.00">type_traits</text>
</a>
</g>
</g>
<!-- Node18&#45;&gt;Node23 -->
<g id="edge28_Node000018_Node000023" class="edge">
<title>Node18&#45;&gt;Node23</title>
<g id="a_edge28_Node000018_Node000023"><a xlink:title=" ">
<path fill="none" stroke="#63b8ff" d="M1068.68,-105.97C1030.42,-96.73 965.62,-81.07 925.13,-71.28"/>
<polygon fill="#63b8ff" stroke="#63b8ff" points="925.94,-67.87 915.39,-68.93 924.29,-74.68 925.94,-67.87"/>
</a>
</g>
</g>
<!-- Node24&#45;&gt;Node2 -->
<g id="edge32_Node000024_Node000002" class="edge">
<title>Node24&#45;&gt;Node2</title>
<g id="a_edge32_Node000024_Node000002"><a xlink:title=" ">
<path fill="none" stroke="#63b8ff" d="M742.85,-158.98C744.52,-147.47 748.09,-124.85 752.81,-106 755.01,-97.22 758.03,-87.62 760.71,-79.68"/>
<polygon fill="#63b8ff" stroke="#63b8ff" points="764.05,-80.71 764.02,-70.11 757.44,-78.41 764.05,-80.71"/>
</a>
</g>
</g>
<!-- Node24&#45;&gt;Node3 -->
<g id="edge33_Node000024_Node000003" class="edge">
<title>Node24&#45;&gt;Node3</title>
<g id="a_edge33_Node000024_Node000003"><a xlink:title=" ">
<path fill="none" stroke="#63b8ff" d="M718.57,-164.06C645.37,-156.36 421.1,-132.59 357.29,-122.87"/>
<polygon fill="#63b8ff" stroke="#63b8ff" points="357.48,-119.36 347.04,-121.18 356.34,-126.26 357.48,-119.36"/>
</a>
</g>
</g>
<!-- Node24&#45;&gt;Node4 -->
<g id="edge34_Node000024_Node000004" class="edge">
<title>Node24&#45;&gt;Node4</title>
<g id="a_edge34_Node000024_Node000004"><a xlink:title=" ">
<path fill="none" stroke="#63b8ff" d="M718.81,-163.44C656.99,-155.1 491.44,-132.02 483.81,-123 459.88,-94.7 485.09,-49.33 501.7,-25.42"/>
<polygon fill="#63b8ff" stroke="#63b8ff" points="504.68,-27.28 507.72,-17.13 499.01,-23.16 504.68,-27.28"/>
</a>
</g>
</g>
<!-- Node24&#45;&gt;Node11 -->
<g id="edge36_Node000024_Node000011" class="edge">
<title>Node24&#45;&gt;Node11</title>
<g id="a_edge36_Node000024_Node000011"><a xlink:title=" ">
<path fill="none" stroke="#63b8ff" d="M718.77,-161.54C714.16,-160.63 709.34,-159.74 704.81,-159 575.75,-138 541.46,-146.41 412.81,-123 411.55,-122.77 410.27,-122.52 408.98,-122.26"/>
<polygon fill="#63b8ff" stroke="#63b8ff" points="409.64,-118.82 399.12,-120.06 408.11,-125.65 409.64,-118.82"/>
</a>
</g>
</g>
<!-- Node24&#45;&gt;Node12 -->
<g id="edge37_Node000024_Node000012" class="edge">
<title>Node24&#45;&gt;Node12</title>
<g id="a_edge37_Node000024_Node000012"><a xlink:title=" ">
<path fill="none" stroke="#63b8ff" d="M718.6,-164.74C641.88,-158.86 396.09,-139.39 296.96,-122.83"/>
<polygon fill="#63b8ff" stroke="#63b8ff" points="297.45,-119.36 287,-121.08 296.24,-126.26 297.45,-119.36"/>
</a>
</g>
</g>
<!-- Node24&#45;&gt;Node15 -->
<g id="edge42_Node000024_Node000015" class="edge">
<title>Node24&#45;&gt;Node15</title>
<g id="a_edge42_Node000024_Node000015"><a xlink:title=" ">
<path fill="none" stroke="#63b8ff" d="M718.59,-163.34C654.23,-154.54 476.59,-129.92 450.81,-123 430.96,-117.67 427.61,-111.5 407.81,-106 338.58,-86.78 256.51,-74.81 203.14,-68.4"/>
<polygon fill="#63b8ff" stroke="#63b8ff" points="203.53,-64.92 193.19,-67.23 202.71,-71.87 203.53,-64.92"/>
</a>
</g>
</g>
<!-- Node24&#45;&gt;Node18 -->
<g id="edge38_Node000024_Node000018" class="edge">
<title>Node24&#45;&gt;Node18</title>
<g id="a_edge38_Node000024_Node000018"><a xlink:title=" ">
<path fill="none" stroke="#63b8ff" d="M765.17,-163.56C816,-157.11 940.66,-140.95 1055.54,-123.15"/>
<polygon fill="#63b8ff" stroke="#63b8ff" points="1056.22,-126.58 1065.56,-121.59 1055.14,-119.67 1056.22,-126.58"/>
</a>
</g>
</g>
<!-- Node24&#45;&gt;Node23 -->
<g id="edge35_Node000024_Node000023" class="edge">
<title>Node24&#45;&gt;Node23</title>
<g id="a_edge35_Node000024_Node000023"><a xlink:title=" ">
<path fill="none" stroke="#63b8ff" d="M751.96,-158.94C767.52,-147.38 798.27,-124.68 824.81,-106 839.49,-95.67 856.27,-84.28 868.97,-75.74"/>
<polygon fill="#63b8ff" stroke="#63b8ff" points="871.05,-78.56 877.4,-70.09 867.15,-72.75 871.05,-78.56"/>
</a>
</g>
</g>
<!-- Node25 -->
<g id="Node000025" class="node">
<title>Node25</title>
<g id="a_Node000025"><a xlink:title=" ">
<polygon fill="#e0e0e0" stroke="#999999" points="700.81,-123 650.81,-123 650.81,-106 700.81,-106 700.81,-123"/>
<text text-anchor="middle" x="675.81" y="-112.6" font-family="Helvetica,sans-Serif" font-size="8.00">algorithm</text>
</a>
</g>
</g>
<!-- Node24&#45;&gt;Node25 -->
<g id="edge31_Node000024_Node000025" class="edge">
<title>Node24&#45;&gt;Node25</title>
<g id="a_edge31_Node000024_Node000025"><a xlink:title=" ">
<path fill="none" stroke="#63b8ff" d="M732.07,-158.97C722.03,-151.22 706.14,-138.94 693.81,-129.41"/>
<polygon fill="#63b8ff" stroke="#63b8ff" points="695.64,-126.4 685.59,-123.06 691.36,-131.94 695.64,-126.4"/>
</a>
</g>
</g>
<!-- Node26 -->
<g id="Node000026" class="node">
<title>Node26</title>
<g id="a_Node000026"><a xlink:href="../../d1/d2d/weighted__node_8hpp.html" target="_top" xlink:title=" ">
<polygon fill="white" stroke="#666666" points="944.31,-123 833.31,-123 833.31,-106 944.31,-106 944.31,-123"/>
<text text-anchor="middle" x="888.81" y="-112.6" font-family="Helvetica,sans-Serif" font-size="8.00">nodes/weighted_node.hpp</text>
</a>
</g>
</g>
<!-- Node24&#45;&gt;Node26 -->
<g id="edge39_Node000024_Node000026" class="edge">
<title>Node24&#45;&gt;Node26</title>
<g id="a_edge39_Node000024_Node000026"><a xlink:title=" ">
<path fill="none" stroke="#63b8ff" d="M763.5,-158.97C788.25,-150.39 828.96,-136.27 857.23,-126.46"/>
<polygon fill="#63b8ff" stroke="#63b8ff" points="858.73,-129.64 867.03,-123.06 856.44,-123.03 858.73,-129.64"/>
</a>
</g>
</g>
<!-- Node27 -->
<g id="Node000027" class="node">
<title>Node27</title>
<g id="a_Node000027"><a xlink:href="../../d9/dfc/coord_8hpp.html" target="_top" xlink:title=" ">
<polygon fill="white" stroke="#666666" points="632.81,-123 492.81,-123 492.81,-106 632.81,-106 632.81,-123"/>
<text text-anchor="middle" x="562.81" y="-112.6" font-family="Helvetica,sans-Serif" font-size="8.00">include/types/containers/coord.hpp</text>
</a>
</g>
</g>
<!-- Node24&#45;&gt;Node27 -->
<g id="edge43_Node000024_Node000027" class="edge">
<title>Node24&#45;&gt;Node27</title>
<g id="a_edge43_Node000024_Node000027"><a xlink:title=" ">
<path fill="none" stroke="#63b8ff" d="M718.78,-159.94C688.53,-151.32 635.07,-136.09 599.29,-125.89"/>
<polygon fill="#63b8ff" stroke="#63b8ff" points="599.82,-122.41 589.25,-123.03 597.91,-129.14 599.82,-122.41"/>
</a>
</g>
</g>
<!-- Node26&#45;&gt;Node21 -->
<g id="edge40_Node000026_Node000021" class="edge">
<title>Node26&#45;&gt;Node21</title>
<g id="a_edge40_Node000026_Node000021"><a xlink:title=" ">
<path fill="none" stroke="#63b8ff" d="M897.96,-105.97C907.3,-98.29 922.03,-86.18 933.57,-76.69"/>
<polygon fill="#63b8ff" stroke="#63b8ff" points="936.13,-79.11 941.63,-70.06 931.68,-73.71 936.13,-79.11"/>
</a>
</g>
</g>
<!-- Node26&#45;&gt;Node23 -->
<g id="edge41_Node000026_Node000023" class="edge">
<title>Node26&#45;&gt;Node23</title>
<g id="a_edge41_Node000026_Node000023"><a xlink:title=" ">
<path fill="none" stroke="#63b8ff" d="M888.81,-105.97C888.81,-99.19 888.81,-88.97 888.81,-80.13"/>
<polygon fill="#63b8ff" stroke="#63b8ff" points="892.31,-80.06 888.81,-70.06 885.31,-80.06 892.31,-80.06"/>
</a>
</g>
</g>
<!-- Node27&#45;&gt;Node2 -->
<g id="edge44_Node000027_Node000002" class="edge">
<title>Node27&#45;&gt;Node2</title>
<g id="a_edge44_Node000027_Node000002"><a xlink:title=" ">
<path fill="none" stroke="#63b8ff" d="M592.91,-105.97C632.42,-96.1 701.22,-78.9 739.36,-69.36"/>
<polygon fill="#63b8ff" stroke="#63b8ff" points="740.41,-72.71 749.26,-66.89 738.71,-65.92 740.41,-72.71"/>
</a>
</g>
</g>
<!-- Node27&#45;&gt;Node4 -->
<g id="edge45_Node000027_Node000004" class="edge">
<title>Node27&#45;&gt;Node4</title>
<g id="a_edge45_Node000027_Node000004"><a xlink:title=" ">
<path fill="none" stroke="#63b8ff" d="M559.13,-105.68C551.21,-88.89 532.44,-49.04 521.7,-26.25"/>
<polygon fill="#63b8ff" stroke="#63b8ff" points="524.83,-24.68 517.4,-17.12 518.5,-27.66 524.83,-24.68"/>
</a>
</g>
</g>
<!-- Node28&#45;&gt;Node23 -->
<g id="edge47_Node000028_Node000023" class="edge">
<title>Node28&#45;&gt;Node23</title>
<g id="a_edge47_Node000028_Node000023"><a xlink:title=" ">
<path fill="none" stroke="#63b8ff" d="M987.69,-105.97C968.59,-97.58 937.44,-83.88 915.21,-74.11"/>
<polygon fill="#63b8ff" stroke="#63b8ff" points="916.56,-70.88 906,-70.06 913.74,-77.28 916.56,-70.88"/>
</a>
</g>
</g>
</g>
</svg>