<?xml version="1.0" encoding="UTF-8" standalone="no"?>
<!DOCTYPE svg PUBLIC "-//W3C//DTD SVG 1.1//EN"
 "http://www.w3.org/Graphics/SVG/1.1/DTD/svg11.dtd">
<!-- Generated by graphviz version 2.43.0 (0)
 -->
<!-- Title: graph.hpp Pages: 1 -->
<svg width="1260pt" height="237pt"
 viewBox="0.00 0.00 1260.19 237.00" xmlns="http://www.w3.org/2000/svg" xmlns:xlink="http://www.w3.org/1999/xlink">
<g id="graph0" class="graph" transform="scale(1 1) rotate(0) translate(4 233)">
<title>graph.hpp</title>
<!-- Node1 -->
<g id="Node000001" class="node">
<title>Node1</title>
<g id="a_Node000001"><a xlink:title=" ">
<polygon fill="#999999" stroke="#666666" points="432.69,-229 379.69,-229 379.69,-212 432.69,-212 432.69,-229"/>
<text text-anchor="middle" x="406.19" y="-218.6" font-family="Helvetica,sans-Serif" font-size="8.00">graph.hpp</text>
</a>
</g>
</g>
<!-- Node2 -->
<g id="Node000002" class="node">
<title>Node2</title>
<g id="a_Node000002"><a xlink:title=" ">
<polygon fill="#e0e0e0" stroke="#999999" points="685.69,-70 650.69,-70 650.69,-53 685.69,-53 685.69,-70"/>
<text text-anchor="middle" x="668.19" y="-59.6" font-family="Helvetica,sans-Serif" font-size="8.00">array</text>
</a>
</g>
</g>
<!-- Node1&#45;&gt;Node2 -->
<g id="edge1_Node000001_Node000002" class="edge">
<title>Node1&#45;&gt;Node2</title>
<g id="a_edge1_Node000001_Node000002"><a xlink:title=" ">
<path fill="none" stroke="#63b8ff" d="M379.44,-220.03C283.86,-221.4 -32.76,-221.35 10.19,-159 47.7,-104.55 84.73,-120.68 149.19,-106 333.17,-64.09 562.08,-61.6 640.41,-62.11"/>
<polygon fill="#63b8ff" stroke="#63b8ff" points="640.42,-65.61 650.45,-62.2 640.48,-58.61 640.42,-65.61"/>
</a>
</g>
</g>
<!-- Node3 -->
<g id="Node000003" class="node">
<title>Node3</title>
<g id="a_Node000003"><a xlink:title=" ">
<polygon fill="#e0e0e0" stroke="#999999" points="596.19,-123 554.19,-123 554.19,-106 596.19,-106 596.19,-123"/>
<text text-anchor="middle" x="575.19" y="-112.6" font-family="Helvetica,sans-Serif" font-size="8.00">cassert</text>
</a>
</g>
</g>
<!-- Node1&#45;&gt;Node3 -->
<g id="edge2_Node000001_Node000003" class="edge">
<title>Node1&#45;&gt;Node3</title>
<g id="a_edge2_Node000001_Node000003"><a xlink:title=" ">
<path fill="none" stroke="#63b8ff" d="M432.76,-217.57C481.09,-213.46 580.37,-201.98 601.19,-176 611.99,-162.54 601.01,-143.92 590.19,-130.9"/>
<polygon fill="#63b8ff" stroke="#63b8ff" points="592.62,-128.37 583.33,-123.27 587.41,-133.05 592.62,-128.37"/>
</a>
</g>
</g>
<!-- Node4 -->
<g id="Node000004" class="node">
<title>Node4</title>
<g id="a_Node000004"><a xlink:title=" ">
<polygon fill="#e0e0e0" stroke="#999999" points="735.19,-17 693.19,-17 693.19,0 735.19,0 735.19,-17"/>
<text text-anchor="middle" x="714.19" y="-6.6" font-family="Helvetica,sans-Serif" font-size="8.00">cstddef</text>
</a>
</g>
</g>
<!-- Node1&#45;&gt;Node4 -->
<g id="edge3_Node000001_Node000004" class="edge">
<title>Node1&#45;&gt;Node4</title>
<g id="a_edge3_Node000001_Node000004"><a xlink:title=" ">
<path fill="none" stroke="#63b8ff" d="M379.54,-218.64C293.68,-215.62 28.38,-204.05 3.19,-176 -1.85,-170.38 0.51,-166.06 3.19,-159 14.37,-129.57 22.49,-120.95 50.19,-106 162.17,-45.58 566.55,-18.01 682.76,-11.22"/>
<polygon fill="#63b8ff" stroke="#63b8ff" points="683.3,-14.69 693.09,-10.63 682.9,-7.71 683.3,-14.69"/>
</a>
</g>
</g>
<!-- Node5 -->
<g id="Node000005" class="node">
<title>Node5</title>
<g id="a_Node000005"><a xlink:title=" ">
<polygon fill="#e0e0e0" stroke="#999999" points="69.19,-176 31.19,-176 31.19,-159 69.19,-159 69.19,-176"/>
<text text-anchor="middle" x="50.19" y="-165.6" font-family="Helvetica,sans-Serif" font-size="8.00">future</text>
</a>
</g>
</g>
<!-- Node1&#45;&gt;Node5 -->
<g id="edge4_Node000001_Node000005" class="edge">
<title>Node1&#45;&gt;Node5</title>
<g id="a_edge4_Node000001_Node000005"><a xlink:title=" ">
<path fill="none" stroke="#63b8ff" d="M379.64,-217.16C325.12,-212.1 196.46,-198.88 79.25,-175.95"/>
<polygon fill="#63b8ff" stroke="#63b8ff" points="79.89,-172.51 69.4,-174 78.52,-179.38 79.89,-172.51"/>
</a>
</g>
</g>
<!-- Node6 -->
<g id="Node000006" class="node">
<title>Node6</title>
<g id="a_Node000006"><a xlink:title=" ">
<polygon fill="#e0e0e0" stroke="#999999" points="147.19,-176 87.19,-176 87.19,-159 147.19,-159 147.19,-176"/>
<text text-anchor="middle" x="117.19" y="-165.6" font-family="Helvetica,sans-Serif" font-size="8.00">initializer_list</text>
</a>
</g>
</g>
<!-- Node1&#45;&gt;Node6 -->
<g id="edge5_Node000001_Node000006" class="edge">
<title>Node1&#45;&gt;Node6</title>
<g id="a_edge5_Node000001_Node000006"><a xlink:title=" ">
<path fill="none" stroke="#63b8ff" d="M379.53,-215.02C335.48,-207.59 244.53,-192.09 157.46,-176.2"/>
<polygon fill="#63b8ff" stroke="#63b8ff" points="157.88,-172.72 147.42,-174.37 156.62,-179.61 157.88,-172.72"/>
</a>
</g>
</g>
<!-- Node7 -->
<g id="Node000007" class="node">
<title>Node7</title>
<g id="a_Node000007"><a xlink:title=" ">
<polygon fill="#e0e0e0" stroke="#999999" points="203.19,-176 165.19,-176 165.19,-159 203.19,-159 203.19,-176"/>
<text text-anchor="middle" x="184.19" y="-165.6" font-family="Helvetica,sans-Serif" font-size="8.00">mutex</text>
</a>
</g>
</g>
<!-- Node1&#45;&gt;Node7 -->
<g id="edge6_Node000001_Node000007" class="edge">
<title>Node1&#45;&gt;Node7</title>
<g id="a_edge6_Node000001_Node000007"><a xlink:title=" ">
<path fill="none" stroke="#63b8ff" d="M379.44,-213.87C343.78,-206.28 278.47,-192.1 213.45,-176.23"/>
<polygon fill="#63b8ff" stroke="#63b8ff" points="213.99,-172.76 203.45,-173.77 212.32,-179.55 213.99,-172.76"/>
</a>
</g>
</g>
<!-- Node8 -->
<g id="Node000008" class="node">
<title>Node8</title>
<g id="a_Node000008"><a xlink:title=" ">
<polygon fill="#e0e0e0" stroke="#999999" points="261.19,-176 221.19,-176 221.19,-159 261.19,-159 261.19,-176"/>
<text text-anchor="middle" x="241.19" y="-165.6" font-family="Helvetica,sans-Serif" font-size="8.00">thread</text>
</a>
</g>
</g>
<!-- Node1&#45;&gt;Node8 -->
<g id="edge7_Node000001_Node000008" class="edge">
<title>Node1&#45;&gt;Node8</title>
<g id="a_edge7_Node000001_Node000008"><a xlink:title=" ">
<path fill="none" stroke="#63b8ff" d="M381.85,-211.97C352.4,-202.87 302.85,-187.56 271.11,-177.75"/>
<polygon fill="#63b8ff" stroke="#63b8ff" points="272.07,-174.38 261.48,-174.77 270,-181.07 272.07,-174.38"/>
</a>
</g>
</g>
<!-- Node9 -->
<g id="Node000009" class="node">
<title>Node9</title>
<g id="a_Node000009"><a xlink:title=" ">
<polygon fill="#e0e0e0" stroke="#999999" points="353.19,-176 279.19,-176 279.19,-159 353.19,-159 353.19,-176"/>
<text text-anchor="middle" x="316.19" y="-165.6" font-family="Helvetica,sans-Serif" font-size="8.00">unordered_map</text>
</a>
</g>
</g>
<!-- Node1&#45;&gt;Node9 -->
<g id="edge8_Node000001_Node000009" class="edge">
<title>Node1&#45;&gt;Node9</title>
<g id="a_edge8_Node000001_Node000009"><a xlink:title=" ">
<path fill="none" stroke="#63b8ff" d="M392.91,-211.97C378.56,-203.84 355.43,-190.74 338.32,-181.04"/>
<polygon fill="#63b8ff" stroke="#63b8ff" points="339.95,-177.94 329.53,-176.06 336.5,-184.03 339.95,-177.94"/>
</a>
</g>
</g>
<!-- Node10 -->
<g id="Node000010" class="node">
<title>Node10</title>
<g id="a_Node000010"><a xlink:title=" ">
<polygon fill="#e0e0e0" stroke="#999999" points="440.69,-176 371.69,-176 371.69,-159 440.69,-159 440.69,-176"/>
<text text-anchor="middle" x="406.19" y="-165.6" font-family="Helvetica,sans-Serif" font-size="8.00">unordered_set</text>
</a>
</g>
</g>
<!-- Node1&#45;&gt;Node10 -->
<g id="edge9_Node000001_Node000010" class="edge">
<title>Node1&#45;&gt;Node10</title>
<g id="a_edge9_Node000001_Node000010"><a xlink:title=" ">
<path fill="none" stroke="#63b8ff" d="M406.19,-211.97C406.19,-205.19 406.19,-194.97 406.19,-186.13"/>
<polygon fill="#63b8ff" stroke="#63b8ff" points="409.69,-186.06 406.19,-176.06 402.69,-186.06 409.69,-186.06"/>
</a>
</g>
</g>
<!-- Node11 -->
<g id="Node000011" class="node">
<title>Node11</title>
<g id="a_Node000011"><a xlink:title=" ">
<polygon fill="#e0e0e0" stroke="#999999" points="648.19,-123 614.19,-123 614.19,-106 648.19,-106 648.19,-123"/>
<text text-anchor="middle" x="631.19" y="-112.6" font-family="Helvetica,sans-Serif" font-size="8.00">utility</text>
</a>
</g>
</g>
<!-- Node1&#45;&gt;Node11 -->
<g id="edge10_Node000001_Node000011" class="edge">
<title>Node1&#45;&gt;Node11</title>
<g id="a_edge10_Node000001_Node000011"><a xlink:title=" ">
<path fill="none" stroke="#63b8ff" d="M432.76,-217.54C483.45,-213.26 591.23,-201.34 617.19,-176 628.52,-164.94 631.46,-146.66 631.91,-133.08"/>
<polygon fill="#63b8ff" stroke="#63b8ff" points="635.41,-133.01 631.83,-123.04 628.41,-133.07 635.41,-133.01"/>
</a>
</g>
</g>
<!-- Node12 -->
<g id="Node000012" class="node">
<title>Node12</title>
<g id="a_Node000012"><a xlink:title=" ">
<polygon fill="#e0e0e0" stroke="#999999" points="536.19,-123 498.19,-123 498.19,-106 536.19,-106 536.19,-123"/>
<text text-anchor="middle" x="517.19" y="-112.6" font-family="Helvetica,sans-Serif" font-size="8.00">vector</text>
</a>
</g>
</g>
<!-- Node1&#45;&gt;Node12 -->
<g id="edge11_Node000001_Node000012" class="edge">
<title>Node1&#45;&gt;Node12</title>
<g id="a_edge11_Node000001_Node000012"><a xlink:title=" ">
<path fill="none" stroke="#63b8ff" d="M432.72,-217C477.85,-212.15 566.52,-199.76 585.19,-176 600.78,-156.17 570.5,-137.55 545.49,-126.34"/>
<polygon fill="#63b8ff" stroke="#63b8ff" points="546.84,-123.11 536.26,-122.42 544.1,-129.55 546.84,-123.11"/>
</a>
</g>
</g>
<!-- Node13 -->
<g id="Node000013" class="node">
<title>Node13</title>
<g id="a_Node000013"><a xlink:title=" ">
<polygon fill="#e0e0e0" stroke="#999999" points="240.19,-123 158.19,-123 158.19,-106 240.19,-106 240.19,-123"/>
<text text-anchor="middle" x="199.19" y="-112.6" font-family="Helvetica,sans-Serif" font-size="8.00">memory_resource</text>
</a>
</g>
</g>
<!-- Node1&#45;&gt;Node13 -->
<g id="edge12_Node000001_Node000013" class="edge">
<title>Node1&#45;&gt;Node13</title>
<g id="a_edge12_Node000001_Node000013"><a xlink:title=" ">
<path fill="none" stroke="#63b8ff" d="M379.64,-218.5C296.61,-215.09 46.02,-202.68 22.19,-176 -16.05,-133.18 82.94,-120.65 147.86,-116.99"/>
<polygon fill="#63b8ff" stroke="#63b8ff" points="148.15,-120.48 157.96,-116.48 147.8,-113.49 148.15,-120.48"/>
</a>
</g>
</g>
<!-- Node14 -->
<g id="Node000014" class="node">
<title>Node14</title>
<g id="a_Node000014"><a xlink:href="../../df/d47/stack_8hpp.html" target="_top" xlink:title=" ">
<polygon fill="white" stroke="#666666" points="575.69,-176 458.69,-176 458.69,-159 575.69,-159 575.69,-176"/>
<text text-anchor="middle" x="517.19" y="-165.6" font-family="Helvetica,sans-Serif" font-size="8.00">../types/containers/stack.hpp</text>
</a>
</g>
</g>
<!-- Node1&#45;&gt;Node14 -->
<g id="edge13_Node000001_Node000014" class="edge">
<title>Node1&#45;&gt;Node14</title>
<g id="a_edge13_Node000001_Node000014"><a xlink:title=" ">
<path fill="none" stroke="#63b8ff" d="M422.57,-211.97C440.77,-203.61 470.39,-190 491.64,-180.24"/>
<polygon fill="#63b8ff" stroke="#63b8ff" points="493.12,-183.41 500.75,-176.06 490.2,-177.05 493.12,-183.41"/>
</a>
</g>
</g>
<!-- Node15 -->
<g id="Node000015" class="node">
<title>Node15</title>
<g id="a_Node000015"><a xlink:href="../../d7/d65/intrinsics_8hpp.html" target="_top" xlink:title=" ">
<polygon fill="white" stroke="#666666" points="1250.19,-70 1158.19,-70 1158.19,-53 1250.19,-53 1250.19,-70"/>
<text text-anchor="middle" x="1204.19" y="-59.6" font-family="Helvetica,sans-Serif" font-size="8.00">../../utils/intrinsics.hpp</text>
</a>
</g>
</g>
<!-- Node1&#45;&gt;Node15 -->
<g id="edge45_Node000001_Node000015" class="edge">
<title>Node1&#45;&gt;Node15</title>
<g id="a_edge45_Node000001_Node000015"><a xlink:title=" ">
<path fill="none" stroke="#63b8ff" d="M432.83,-219.91C555.51,-221.27 1065.17,-220.87 1182.19,-123 1194.79,-112.47 1200.17,-94.11 1202.47,-80.37"/>
<polygon fill="#63b8ff" stroke="#63b8ff" points="1205.98,-80.55 1203.77,-70.19 1199.04,-79.66 1205.98,-80.55"/>
</a>
</g>
</g>
<!-- Node18 -->
<g id="Node000018" class="node">
<title>Node18</title>
<g id="a_Node000018"><a xlink:href="../../df/d93/utils_8hpp.html" target="_top" xlink:title=" ">
<polygon fill="white" stroke="#666666" points="1150.19,-123 1082.19,-123 1082.19,-106 1150.19,-106 1150.19,-123"/>
<text text-anchor="middle" x="1116.19" y="-112.6" font-family="Helvetica,sans-Serif" font-size="8.00">../utils/utils.hpp</text>
</a>
</g>
</g>
<!-- Node1&#45;&gt;Node18 -->
<g id="edge21_Node000001_Node000018" class="edge">
<title>Node1&#45;&gt;Node18</title>
<g id="a_edge21_Node000001_Node000018"><a xlink:title=" ">
<path fill="none" stroke="#63b8ff" d="M433.17,-217.51C498.92,-212.48 672.57,-198.05 816.19,-176 908.84,-161.78 1016.26,-138.43 1074.1,-125.28"/>
<polygon fill="#63b8ff" stroke="#63b8ff" points="1074.99,-128.67 1083.96,-123.03 1073.44,-121.84 1074.99,-128.67"/>
</a>
</g>
</g>
<!-- Node24 -->
<g id="Node000024" class="node">
<title>Node24</title>
<g id="a_Node000024"><a xlink:href="../../dc/d8a/grid_8hpp.html" target="_top" xlink:title=" ">
<polygon fill="white" stroke="#666666" points="754.19,-176 708.19,-176 708.19,-159 754.19,-159 754.19,-176"/>
<text text-anchor="middle" x="731.19" y="-165.6" font-family="Helvetica,sans-Serif" font-size="8.00">grid.hpp</text>
</a>
</g>
</g>
<!-- Node1&#45;&gt;Node24 -->
<g id="edge30_Node000001_Node000024" class="edge">
<title>Node1&#45;&gt;Node24</title>
<g id="a_edge30_Node000001_Node000024"><a xlink:title=" ">
<path fill="none" stroke="#63b8ff" d="M432.87,-215.93C483.8,-209 598.34,-192.94 694.19,-176 695.46,-175.78 696.76,-175.54 698.07,-175.3"/>
<polygon fill="#63b8ff" stroke="#63b8ff" points="698.98,-178.69 708.14,-173.36 697.65,-171.81 698.98,-178.69"/>
</a>
</g>
</g>
<!-- Node27 -->
<g id="Node000027" class="node">
<title>Node27</title>
<g id="a_Node000027"><a xlink:href="../../d9/ddd/id__node_8hpp.html" target="_top" xlink:title=" ">
<polygon fill="white" stroke="#666666" points="1063.69,-123 978.69,-123 978.69,-106 1063.69,-106 1063.69,-123"/>
<text text-anchor="middle" x="1021.19" y="-112.6" font-family="Helvetica,sans-Serif" font-size="8.00">nodes/id_node.hpp</text>
</a>
</g>
</g>
<!-- Node1&#45;&gt;Node27 -->
<g id="edge43_Node000001_Node000027" class="edge">
<title>Node1&#45;&gt;Node27</title>
<g id="a_edge43_Node000001_Node000027"><a xlink:title=" ">
<path fill="none" stroke="#63b8ff" d="M432.76,-217.26C492.25,-212.03 640.55,-197.78 763.19,-176 842.44,-161.92 933.87,-138.83 983.81,-125.62"/>
<polygon fill="#63b8ff" stroke="#63b8ff" points="984.77,-128.99 993.53,-123.04 982.97,-122.22 984.77,-128.99"/>
</a>
</g>
</g>
<!-- Node14&#45;&gt;Node4 -->
<g id="edge14_Node000014_Node000004" class="edge">
<title>Node14&#45;&gt;Node4</title>
<g id="a_edge14_Node000014_Node000004"><a xlink:title=" ">
<path fill="none" stroke="#63b8ff" d="M506.35,-158.96C491.13,-147.42 466.62,-124.75 479.19,-106 525.38,-37.11 630.51,-17.36 683.07,-11.73"/>
<polygon fill="#63b8ff" stroke="#63b8ff" points="683.53,-15.2 693.15,-10.75 682.86,-8.23 683.53,-15.2"/>
</a>
</g>
</g>
<!-- Node14&#45;&gt;Node12 -->
<g id="edge16_Node000014_Node000012" class="edge">
<title>Node14&#45;&gt;Node12</title>
<g id="a_edge16_Node000014_Node000012"><a xlink:title=" ">
<path fill="none" stroke="#63b8ff" d="M517.19,-158.97C517.19,-152.19 517.19,-141.97 517.19,-133.13"/>
<polygon fill="#63b8ff" stroke="#63b8ff" points="520.69,-133.06 517.19,-123.06 513.69,-133.06 520.69,-133.06"/>
</a>
</g>
</g>
<!-- Node14&#45;&gt;Node13 -->
<g id="edge15_Node000014_Node000013" class="edge">
<title>Node14&#45;&gt;Node13</title>
<g id="a_edge15_Node000014_Node000013"><a xlink:title=" ">
<path fill="none" stroke="#63b8ff" d="M470.27,-158.97C411.48,-149.55 311.08,-133.44 250.36,-123.71"/>
<polygon fill="#63b8ff" stroke="#63b8ff" points="250.67,-120.21 240.24,-122.08 249.56,-127.12 250.67,-120.21"/>
</a>
</g>
</g>
<!-- Node14&#45;&gt;Node15 -->
<g id="edge17_Node000014_Node000015" class="edge">
<title>Node14&#45;&gt;Node15</title>
<g id="a_edge17_Node000014_Node000015"><a xlink:title=" ">
<path fill="none" stroke="#63b8ff" d="M508.74,-158.91C495.88,-146.49 474.39,-121.63 489.19,-106 537.92,-54.55 1038.97,-75.35 1147.73,-69.79"/>
<polygon fill="#63b8ff" stroke="#63b8ff" points="1148.28,-73.26 1158.01,-69.07 1147.79,-66.28 1148.28,-73.26"/>
</a>
</g>
</g>
<!-- Node15&#45;&gt;Node4 -->
<g id="edge19_Node000015_Node000004" class="edge">
<title>Node15&#45;&gt;Node4</title>
<g id="a_edge19_Node000015_Node000004"><a xlink:title=" ">
<path fill="none" stroke="#63b8ff" d="M1158,-54.08C1155.02,-53.7 1152.07,-53.34 1149.19,-53 998.28,-35.17 817.34,-18.62 745.65,-12.26"/>
<polygon fill="#63b8ff" stroke="#63b8ff" points="745.77,-8.75 735.5,-11.36 745.15,-15.73 745.77,-8.75"/>
</a>
</g>
</g>
<!-- Node16 -->
<g id="Node000016" class="node">
<title>Node16</title>
<g id="a_Node000016"><a xlink:title=" ">
<polygon fill="#e0e0e0" stroke="#999999" points="1252.19,-17 1212.19,-17 1212.19,0 1252.19,0 1252.19,-17"/>
<text text-anchor="middle" x="1232.19" y="-6.6" font-family="Helvetica,sans-Serif" font-size="8.00">atomic</text>
</a>
</g>
</g>
<!-- Node15&#45;&gt;Node16 -->
<g id="edge18_Node000015_Node000016" class="edge">
<title>Node15&#45;&gt;Node16</title>
<g id="a_edge18_Node000015_Node000016"><a xlink:title=" ">
<path fill="none" stroke="#63b8ff" d="M1208.33,-52.97C1212.21,-45.89 1218.17,-35.05 1223.16,-25.96"/>
<polygon fill="#63b8ff" stroke="#63b8ff" points="1226.3,-27.51 1228.05,-17.06 1220.17,-24.14 1226.3,-27.51"/>
</a>
</g>
</g>
<!-- Node17 -->
<g id="Node000017" class="node">
<title>Node17</title>
<g id="a_Node000017"><a xlink:title=" ">
<polygon fill="#e0e0e0" stroke="#999999" points="1194.19,-17 1156.19,-17 1156.19,0 1194.19,0 1194.19,-17"/>
<text text-anchor="middle" x="1175.19" y="-6.6" font-family="Helvetica,sans-Serif" font-size="8.00">cstdlib</text>
</a>
</g>
</g>
<!-- Node15&#45;&gt;Node17 -->
<g id="edge20_Node000015_Node000017" class="edge">
<title>Node15&#45;&gt;Node17</title>
<g id="a_edge20_Node000015_Node000017"><a xlink:title=" ">
<path fill="none" stroke="#63b8ff" d="M1199.92,-52.97C1195.89,-45.89 1189.72,-35.05 1184.56,-25.96"/>
<polygon fill="#63b8ff" stroke="#63b8ff" points="1187.48,-24.02 1179.49,-17.06 1181.39,-27.48 1187.48,-24.02"/>
</a>
</g>
</g>
<!-- Node18&#45;&gt;Node2 -->
<g id="edge22_Node000018_Node000002" class="edge">
<title>Node18&#45;&gt;Node2</title>
<g id="a_edge22_Node000018_Node000002"><a xlink:title=" ">
<path fill="none" stroke="#63b8ff" d="M1081.96,-107.32C1079,-106.85 1076.05,-106.4 1073.19,-106 931.9,-86.11 761.75,-70.55 696,-64.85"/>
<polygon fill="#63b8ff" stroke="#63b8ff" points="696.27,-61.36 686.01,-63.99 695.67,-68.34 696.27,-61.36"/>
</a>
</g>
</g>
<!-- Node18&#45;&gt;Node4 -->
<g id="edge24_Node000018_Node000004" class="edge">
<title>Node18&#45;&gt;Node4</title>
<g id="a_edge24_Node000018_Node000004"><a xlink:title=" ">
<path fill="none" stroke="#63b8ff" d="M1088.12,-105.99C1058.71,-97.91 1011.3,-84.29 971.19,-70 952.61,-63.38 949.06,-58.75 930.19,-53 865.77,-33.36 787.78,-20.16 745.37,-13.83"/>
<polygon fill="#63b8ff" stroke="#63b8ff" points="745.78,-10.35 735.38,-12.37 744.77,-17.28 745.78,-10.35"/>
</a>
</g>
</g>
<!-- Node18&#45;&gt;Node15 -->
<g id="edge29_Node000018_Node000015" class="edge">
<title>Node18&#45;&gt;Node15</title>
<g id="a_edge29_Node000018_Node000015"><a xlink:title=" ">
<path fill="none" stroke="#63b8ff" d="M1129.18,-105.97C1143.09,-97.91 1165.41,-84.98 1182.09,-75.31"/>
<polygon fill="#63b8ff" stroke="#63b8ff" points="1184.26,-78.1 1191.16,-70.06 1180.75,-72.04 1184.26,-78.1"/>
</a>
</g>
</g>
<!-- Node19 -->
<g id="Node000019" class="node">
<title>Node19</title>
<g id="a_Node000019"><a xlink:title=" ">
<polygon fill="#e0e0e0" stroke="#999999" points="1072.19,-70 1034.19,-70 1034.19,-53 1072.19,-53 1072.19,-70"/>
<text text-anchor="middle" x="1053.19" y="-59.6" font-family="Helvetica,sans-Serif" font-size="8.00">cmath</text>
</a>
</g>
</g>
<!-- Node18&#45;&gt;Node19 -->
<g id="edge23_Node000018_Node000019" class="edge">
<title>Node18&#45;&gt;Node19</title>
<g id="a_edge23_Node000018_Node000019"><a xlink:title=" ">
<path fill="none" stroke="#63b8ff" d="M1106.9,-105.97C1097.31,-98.22 1082.15,-85.94 1070.37,-76.41"/>
<polygon fill="#63b8ff" stroke="#63b8ff" points="1072.5,-73.63 1062.53,-70.06 1068.1,-79.07 1072.5,-73.63"/>
</a>
</g>
</g>
<!-- Node20 -->
<g id="Node000020" class="node">
<title>Node20</title>
<g id="a_Node000020"><a xlink:title=" ">
<polygon fill="#e0e0e0" stroke="#999999" points="1140.19,-70 1090.19,-70 1090.19,-53 1140.19,-53 1140.19,-70"/>
<text text-anchor="middle" x="1115.19" y="-59.6" font-family="Helvetica,sans-Serif" font-size="8.00">functional</text>
</a>
</g>
</g>
<!-- Node18&#45;&gt;Node20 -->
<g id="edge25_Node000018_Node000020" class="edge">
<title>Node18&#45;&gt;Node20</title>
<g id="a_edge25_Node000018_Node000020"><a xlink:title=" ">
<path fill="none" stroke="#63b8ff" d="M1116.05,-105.97C1115.91,-99.19 1115.71,-88.97 1115.54,-80.13"/>
<polygon fill="#63b8ff" stroke="#63b8ff" points="1119.04,-79.99 1115.34,-70.06 1112.04,-80.12 1119.04,-79.99"/>
</a>
</g>
</g>
<!-- Node21 -->
<g id="Node000021" class="node">
<title>Node21</title>
<g id="a_Node000021"><a xlink:title=" ">
<polygon fill="#e0e0e0" stroke="#999999" points="921.19,-70 887.19,-70 887.19,-53 921.19,-53 921.19,-70"/>
<text text-anchor="middle" x="904.19" y="-59.6" font-family="Helvetica,sans-Serif" font-size="8.00">limits</text>
</a>
</g>
</g>
<!-- Node18&#45;&gt;Node21 -->
<g id="edge26_Node000018_Node000021" class="edge">
<title>Node18&#45;&gt;Node21</title>
<g id="a_edge26_Node000018_Node000021"><a xlink:title=" ">
<path fill="none" stroke="#63b8ff" d="M1084.91,-105.97C1043.34,-95.97 970.58,-78.47 931.26,-69.01"/>
<polygon fill="#63b8ff" stroke="#63b8ff" points="931.88,-65.56 921.34,-66.62 930.24,-72.37 931.88,-65.56"/>
</a>
</g>
</g>
<!-- Node22 -->
<g id="Node000022" class="node">
<title>Node22</title>
<g id="a_Node000022"><a xlink:title=" ">
<polygon fill="#e0e0e0" stroke="#999999" points="1016.19,-70 980.19,-70 980.19,-53 1016.19,-53 1016.19,-70"/>
<text text-anchor="middle" x="998.19" y="-59.6" font-family="Helvetica,sans-Serif" font-size="8.00">string</text>
</a>
</g>
</g>
<!-- Node18&#45;&gt;Node22 -->
<g id="edge27_Node000018_Node000022" class="edge">
<title>Node18&#45;&gt;Node22</title>
<g id="a_edge27_Node000018_Node000022"><a xlink:title=" ">
<path fill="none" stroke="#63b8ff" d="M1098.78,-105.97C1079.35,-97.58 1047.67,-83.88 1025.05,-74.11"/>
<polygon fill="#63b8ff" stroke="#63b8ff" points="1026.24,-70.81 1015.68,-70.06 1023.47,-77.24 1026.24,-70.81"/>
</a>
</g>
</g>
<!-- Node23 -->
<g id="Node000023" class="node">
<title>Node23</title>
<g id="a_Node000023"><a xlink:title=" ">
<polygon fill="#e0e0e0" stroke="#999999" points="863.69,-70 810.69,-70 810.69,-53 863.69,-53 863.69,-70"/>
<text text-anchor="middle" x="837.19" y="-59.6" font-family="Helvetica,sans-Serif" font-size="8.00">type_traits</text>
</a>
</g>
</g>
<!-- Node18&#45;&gt;Node23 -->
<g id="edge28_Node000018_Node000023" class="edge">
<title>Node18&#45;&gt;Node23</title>
<g id="a_edge28_Node000018_Node000023"><a xlink:title=" ">
<path fill="none" stroke="#63b8ff" d="M1081.98,-107.25C1029.08,-97.58 927.88,-79.08 873.65,-69.16"/>
<polygon fill="#63b8ff" stroke="#63b8ff" points="874.24,-65.71 863.77,-67.36 872.98,-72.6 874.24,-65.71"/>
</a>
</g>
</g>
<!-- Node24&#45;&gt;Node2 -->
<g id="edge32_Node000024_Node000002" class="edge">
<title>Node24&#45;&gt;Node2</title>
<g id="a_edge32_Node000024_Node000002"><a xlink:title=" ">
<path fill="none" stroke="#63b8ff" d="M725.16,-158.7C718.66,-150.16 708.18,-135.94 700.19,-123 691.32,-108.62 682.43,-91.55 676.28,-79.22"/>
<polygon fill="#63b8ff" stroke="#63b8ff" points="679.37,-77.56 671.82,-70.13 673.09,-80.65 679.37,-77.56"/>
</a>
</g>
</g>
<!-- Node24&#45;&gt;Node3 -->
<g id="edge33_Node000024_Node000003" class="edge">
<title>Node24&#45;&gt;Node3</title>
<g id="a_edge33_Node000024_Node000003"><a xlink:title=" ">
<path fill="none" stroke="#63b8ff" d="M708.18,-158.97C681.07,-150.11 635.93,-135.36 605.87,-125.53"/>
<polygon fill="#63b8ff" stroke="#63b8ff" points="606.9,-122.18 596.3,-122.4 604.72,-128.84 606.9,-122.18"/>
</a>
</g>
</g>
<!-- Node24&#45;&gt;Node4 -->
<g id="edge34_Node000024_Node000004" class="edge">
<title>Node24&#45;&gt;Node4</title>
<g id="a_edge34_Node000024_Node000004"><a xlink:title=" ">
<path fill="none" stroke="#63b8ff" d="M730.37,-158.93C727.8,-135.15 719.83,-61.56 716.13,-27.33"/>
<polygon fill="#63b8ff" stroke="#63b8ff" points="719.6,-26.93 715.05,-17.37 712.64,-27.68 719.6,-26.93"/>
</a>
</g>
</g>
<!-- Node24&#45;&gt;Node11 -->
<g id="edge36_Node000024_Node000011" class="edge">
<title>Node24&#45;&gt;Node11</title>
<g id="a_edge36_Node000024_Node000011"><a xlink:title=" ">
<path fill="none" stroke="#63b8ff" d="M716.44,-158.97C700.26,-150.73 674.08,-137.37 654.99,-127.64"/>
<polygon fill="#63b8ff" stroke="#63b8ff" points="656.51,-124.48 646.01,-123.06 653.33,-130.72 656.51,-124.48"/>
</a>
</g>
</g>
<!-- Node24&#45;&gt;Node12 -->
<g id="edge37_Node000024_Node000012" class="edge">
<title>Node24&#45;&gt;Node12</title>
<g id="a_edge37_Node000024_Node000012"><a xlink:title=" ">
<path fill="none" stroke="#63b8ff" d="M707.94,-161.31C674.39,-153.77 610.24,-139.16 546.3,-123.21"/>
<polygon fill="#63b8ff" stroke="#63b8ff" points="547,-119.78 536.45,-120.75 545.3,-126.57 547,-119.78"/>
</a>
</g>
</g>
<!-- Node24&#45;&gt;Node15 -->
<g id="edge42_Node000024_Node000015" class="edge">
<title>Node24&#45;&gt;Node15</title>
<g id="a_edge42_Node000024_Node000015"><a xlink:title=" ">
<path fill="none" stroke="#63b8ff" d="M754.41,-166.56C833.17,-166.4 1089.13,-162.77 1159.19,-123 1176.6,-113.12 1189.27,-93.46 1196.65,-79.23"/>
<polygon fill="#63b8ff" stroke="#63b8ff" points="1199.88,-80.57 1201.08,-70.04 1193.58,-77.53 1199.88,-80.57"/>
</a>
</g>
</g>
<!-- Node24&#45;&gt;Node18 -->
<g id="edge38_Node000024_Node000018" class="edge">
<title>Node24&#45;&gt;Node18</title>
<g id="a_edge38_Node000024_Node000018"><a xlink:title=" ">
<path fill="none" stroke="#63b8ff" d="M754.47,-163.92C808.36,-157.85 946.12,-141.89 1071.77,-123.15"/>
<polygon fill="#63b8ff" stroke="#63b8ff" points="1072.58,-126.57 1081.95,-121.62 1071.54,-119.64 1072.58,-126.57"/>
</a>
</g>
</g>
<!-- Node24&#45;&gt;Node23 -->
<g id="edge35_Node000024_Node000023" class="edge">
<title>Node24&#45;&gt;Node23</title>
<g id="a_edge35_Node000024_Node000023"><a xlink:title=" ">
<path fill="none" stroke="#63b8ff" d="M735.17,-158.74C741.7,-146.51 755.64,-122.46 772.19,-106 784.44,-93.83 800.55,-83.02 813.67,-75.22"/>
<polygon fill="#63b8ff" stroke="#63b8ff" points="815.67,-78.11 822.6,-70.09 812.18,-72.04 815.67,-78.11"/>
</a>
</g>
</g>
<!-- Node25 -->
<g id="Node000025" class="node">
<title>Node25</title>
<g id="a_Node000025"><a xlink:title=" ">
<polygon fill="#e0e0e0" stroke="#999999" points="960.19,-123 910.19,-123 910.19,-106 960.19,-106 960.19,-123"/>
<text text-anchor="middle" x="935.19" y="-112.6" font-family="Helvetica,sans-Serif" font-size="8.00">algorithm</text>
</a>
</g>
</g>
<!-- Node24&#45;&gt;Node25 -->
<g id="edge31_Node000024_Node000025" class="edge">
<title>Node24&#45;&gt;Node25</title>
<g id="a_edge31_Node000024_Node000025"><a xlink:title=" ">
<path fill="none" stroke="#63b8ff" d="M754.2,-160.75C789.82,-151.84 858.55,-134.66 900.3,-124.22"/>
<polygon fill="#63b8ff" stroke="#63b8ff" points="901.19,-127.61 910.05,-121.79 899.5,-120.82 901.19,-127.61"/>
</a>
</g>
</g>
<!-- Node26 -->
<g id="Node000026" class="node">
<title>Node26</title>
<g id="a_Node000026"><a xlink:href="../../d1/d2d/weighted__node_8hpp.html" target="_top" xlink:title=" ">
<polygon fill="white" stroke="#666666" points="891.69,-123 780.69,-123 780.69,-106 891.69,-106 891.69,-123"/>
<text text-anchor="middle" x="836.19" y="-112.6" font-family="Helvetica,sans-Serif" font-size="8.00">nodes/weighted_node.hpp</text>
</a>
</g>
</g>
<!-- Node24&#45;&gt;Node26 -->
<g id="edge39_Node000024_Node000026" class="edge">
<title>Node24&#45;&gt;Node26</title>
<g id="a_edge39_Node000024_Node000026"><a xlink:title=" ">
<path fill="none" stroke="#63b8ff" d="M746.69,-158.97C763.75,-150.69 791.42,-137.25 811.48,-127.5"/>
<polygon fill="#63b8ff" stroke="#63b8ff" points="813.17,-130.57 820.64,-123.06 810.11,-124.28 813.17,-130.57"/>
</a>
</g>
</g>
<!-- Node26&#45;&gt;Node21 -->
<g id="edge40_Node000026_Node000021" class="edge">
<title>Node26&#45;&gt;Node21</title>
<g id="a_edge40_Node000026_Node000021"><a xlink:title=" ">
<path fill="none" stroke="#63b8ff" d="M846.23,-105.97C856.67,-98.14 873.26,-85.7 886.02,-76.13"/>
<polygon fill="#63b8ff" stroke="#63b8ff" points="888.22,-78.86 894.12,-70.06 884.02,-73.26 888.22,-78.86"/>
</a>
</g>
</g>
<!-- Node26&#45;&gt;Node23 -->
<g id="edge41_Node000026_Node000023" class="edge">
<title>Node26&#45;&gt;Node23</title>
<g id="a_edge41_Node000026_Node000023"><a xlink:title=" ">
<path fill="none" stroke="#63b8ff" d="M836.34,-105.97C836.47,-99.19 836.68,-88.97 836.85,-80.13"/>
<polygon fill="#63b8ff" stroke="#63b8ff" points="840.35,-80.12 837.05,-70.06 833.35,-79.99 840.35,-80.12"/>
</a>
</g>
</g>
<!-- Node27&#45;&gt;Node23 -->
<g id="edge44_Node000027_Node000023" class="edge">
<title>Node27&#45;&gt;Node23</title>
<g id="a_edge44_Node000027_Node000023"><a xlink:title=" ">
<path fill="none" stroke="#63b8ff" d="M994.04,-105.97C962.2,-97.15 909.26,-82.48 873.81,-72.65"/>
<polygon fill="#63b8ff" stroke="#63b8ff" points="874.43,-69.19 863.86,-69.89 872.56,-75.93 874.43,-69.19"/>
</a>
</g>
</g>
</g>
</svg>
