<?xml version="1.0" encoding="UTF-8" standalone="no"?>
<!DOCTYPE svg PUBLIC "-//W3C//DTD SVG 1.1//EN"
 "http://www.w3.org/Graphics/SVG/1.1/DTD/svg11.dtd">
<!-- Generated by graphviz version 2.43.0 (0)
 -->
<!-- Title: graph.hpp Pages: 1 -->
<svg width="1298pt" height="237pt"
 viewBox="0.00 0.00 1297.95 237.00" xmlns="http://www.w3.org/2000/svg" xmlns:xlink="http://www.w3.org/1999/xlink">
<g id="graph0" class="graph" transform="scale(1 1) rotate(0) translate(4 233)">
<title>graph.hpp</title>
<!-- Node1 -->
<g id="Node000001" class="node">
<title>Node1</title>
<g id="a_Node000001"><a xlink:title=" ">
<polygon fill="#999999" stroke="#666666" points="634.01,-229 575.01,-229 575.01,-212 634.01,-212 634.01,-229"/>
<text text-anchor="middle" x="604.51" y="-218.6" font-family="Helvetica,sans-Serif" font-size="8.00">graph.hpp</text>
</a>
</g>
</g>
<!-- Node2 -->
<g id="Node000002" class="node">
<title>Node2</title>
<g id="a_Node000002"><a xlink:title=" ">
<polygon fill="#e0e0e0" stroke="#999999" points="844.51,-70 806.51,-70 806.51,-53 844.51,-53 844.51,-70"/>
<text text-anchor="middle" x="825.51" y="-59.6" font-family="Helvetica,sans-Serif" font-size="8.00">array</text>
</a>
</g>
</g>
<!-- Node1&#45;&gt;Node2 -->
<g id="edge1_Node000001_Node000002" class="edge">
<title>Node1&#45;&gt;Node2</title>
<g id="a_edge1_Node000001_Node000002"><a xlink:title=" ">
<path fill="none" stroke="#63b8ff" d="M634.33,-218.38C690.48,-215.58 808.54,-206.16 833.51,-176 856.11,-148.7 843.1,-103.9 833.29,-79.55"/>
<polygon fill="#63b8ff" stroke="#63b8ff" points="836.44,-78.02 829.27,-70.21 830.01,-80.78 836.44,-78.02"/>
</a>
</g>
</g>
<!-- Node3 -->
<g id="Node000003" class="node">
<title>Node3</title>
<g id="a_Node000003"><a xlink:title=" ">
<polygon fill="#e0e0e0" stroke="#999999" points="370.01,-123 323.01,-123 323.01,-106 370.01,-106 370.01,-123"/>
<text text-anchor="middle" x="346.51" y="-112.6" font-family="Helvetica,sans-Serif" font-size="8.00">cassert</text>
</a>
</g>
</g>
<!-- Node1&#45;&gt;Node3 -->
<g id="edge2_Node000001_Node000003" class="edge">
<title>Node1&#45;&gt;Node3</title>
<g id="a_edge2_Node000001_Node000003"><a xlink:title=" ">
<path fill="none" stroke="#63b8ff" d="M629.81,-211.91C660.19,-201.57 704.7,-181.71 684.51,-159 641.03,-110.08 462.3,-132.53 380.22,-122.66"/>
<polygon fill="#63b8ff" stroke="#63b8ff" points="380.64,-119.19 370.24,-121.21 379.63,-126.11 380.64,-119.19"/>
</a>
</g>
</g>
<!-- Node4 -->
<g id="Node000004" class="node">
<title>Node4</title>
<g id="a_Node000004"><a xlink:title=" ">
<polygon fill="#e0e0e0" stroke="#999999" points="572.01,-17 525.01,-17 525.01,0 572.01,0 572.01,-17"/>
<text text-anchor="middle" x="548.51" y="-6.6" font-family="Helvetica,sans-Serif" font-size="8.00">cstddef</text>
</a>
</g>
</g>
<!-- Node1&#45;&gt;Node4 -->
<g id="edge3_Node000001_Node000004" class="edge">
<title>Node1&#45;&gt;Node4</title>
<g id="a_edge3_Node000001_Node000004"><a xlink:title=" ">
<path fill="none" stroke="#63b8ff" d="M634.26,-217.97C745.27,-211.81 1134.34,-186.07 1238.51,-123 1269.74,-104.09 1306.55,-79.57 1281.51,-53 1257.25,-27.26 723.99,-13.45 582.64,-10.24"/>
<polygon fill="#63b8ff" stroke="#63b8ff" points="582.48,-6.73 572.41,-10.01 582.33,-13.73 582.48,-6.73"/>
</a>
</g>
</g>
<!-- Node5 -->
<g id="Node000005" class="node">
<title>Node5</title>
<g id="a_Node000005"><a xlink:title=" ">
<polygon fill="#e0e0e0" stroke="#999999" points="238.01,-176 197.01,-176 197.01,-159 238.01,-159 238.01,-176"/>
<text text-anchor="middle" x="217.51" y="-165.6" font-family="Helvetica,sans-Serif" font-size="8.00">future</text>
</a>
</g>
</g>
<!-- Node1&#45;&gt;Node5 -->
<g id="edge4_Node000001_Node000005" class="edge">
<title>Node1&#45;&gt;Node5</title>
<g id="a_edge4_Node000001_Node000005"><a xlink:title=" ">
<path fill="none" stroke="#63b8ff" d="M574.7,-217.12C514.74,-212.08 375.17,-198.97 248,-175.83"/>
<polygon fill="#63b8ff" stroke="#63b8ff" points="248.56,-172.37 238.09,-174 247.29,-179.26 248.56,-172.37"/>
</a>
</g>
</g>
<!-- Node6 -->
<g id="Node000006" class="node">
<title>Node6</title>
<g id="a_Node000006"><a xlink:title=" ">
<polygon fill="#e0e0e0" stroke="#999999" points="326.51,-176 256.51,-176 256.51,-159 326.51,-159 326.51,-176"/>
<text text-anchor="middle" x="291.51" y="-165.6" font-family="Helvetica,sans-Serif" font-size="8.00">initializer_list</text>
</a>
</g>
</g>
<!-- Node1&#45;&gt;Node6 -->
<g id="edge5_Node000001_Node000006" class="edge">
<title>Node1&#45;&gt;Node6</title>
<g id="a_edge5_Node000001_Node000006"><a xlink:title=" ">
<path fill="none" stroke="#63b8ff" d="M574.76,-214.71C526.99,-207.02 429.95,-191.35 336.76,-176.03"/>
<polygon fill="#63b8ff" stroke="#63b8ff" points="337.31,-172.58 326.88,-174.41 336.18,-179.49 337.31,-172.58"/>
</a>
</g>
</g>
<!-- Node7 -->
<g id="Node000007" class="node">
<title>Node7</title>
<g id="a_Node000007"><a xlink:title=" ">
<polygon fill="#e0e0e0" stroke="#999999" points="386.01,-176 345.01,-176 345.01,-159 386.01,-159 386.01,-176"/>
<text text-anchor="middle" x="365.51" y="-165.6" font-family="Helvetica,sans-Serif" font-size="8.00">mutex</text>
</a>
</g>
</g>
<!-- Node1&#45;&gt;Node7 -->
<g id="edge6_Node000001_Node000007" class="edge">
<title>Node1&#45;&gt;Node7</title>
<g id="a_edge6_Node000001_Node000007"><a xlink:title=" ">
<path fill="none" stroke="#63b8ff" d="M575.01,-213.74C536.28,-206.11 465.96,-191.95 396,-176.03"/>
<polygon fill="#63b8ff" stroke="#63b8ff" points="396.67,-172.59 386.14,-173.77 395.11,-179.41 396.67,-172.59"/>
</a>
</g>
</g>
<!-- Node8 -->
<g id="Node000008" class="node">
<title>Node8</title>
<g id="a_Node000008"><a xlink:title=" ">
<polygon fill="#e0e0e0" stroke="#999999" points="448.51,-176 404.51,-176 404.51,-159 448.51,-159 448.51,-176"/>
<text text-anchor="middle" x="426.51" y="-165.6" font-family="Helvetica,sans-Serif" font-size="8.00">thread</text>
</a>
</g>
</g>
<!-- Node1&#45;&gt;Node8 -->
<g id="edge7_Node000001_Node000008" class="edge">
<title>Node1&#45;&gt;Node8</title>
<g id="a_edge7_Node000001_Node000008"><a xlink:title=" ">
<path fill="none" stroke="#63b8ff" d="M578.24,-211.97C546.43,-202.86 492.86,-187.51 458.62,-177.7"/>
<polygon fill="#63b8ff" stroke="#63b8ff" points="459.24,-174.24 448.66,-174.85 457.31,-180.97 459.24,-174.24"/>
</a>
</g>
</g>
<!-- Node9 -->
<g id="Node000009" class="node">
<title>Node9</title>
<g id="a_Node000009"><a xlink:title=" ">
<polygon fill="#e0e0e0" stroke="#999999" points="548.01,-176 467.01,-176 467.01,-159 548.01,-159 548.01,-176"/>
<text text-anchor="middle" x="507.51" y="-165.6" font-family="Helvetica,sans-Serif" font-size="8.00">unordered_map</text>
</a>
</g>
</g>
<!-- Node1&#45;&gt;Node9 -->
<g id="edge8_Node000001_Node000009" class="edge">
<title>Node1&#45;&gt;Node9</title>
<g id="a_edge8_Node000001_Node000009"><a xlink:title=" ">
<path fill="none" stroke="#63b8ff" d="M590.2,-211.97C574.58,-203.76 549.34,-190.49 530.85,-180.77"/>
<polygon fill="#63b8ff" stroke="#63b8ff" points="532.36,-177.61 521.88,-176.06 529.1,-183.81 532.36,-177.61"/>
</a>
</g>
</g>
<!-- Node10 -->
<g id="Node000010" class="node">
<title>Node10</title>
<g id="a_Node000010"><a xlink:title=" ">
<polygon fill="#e0e0e0" stroke="#999999" points="642.51,-176 566.51,-176 566.51,-159 642.51,-159 642.51,-176"/>
<text text-anchor="middle" x="604.51" y="-165.6" font-family="Helvetica,sans-Serif" font-size="8.00">unordered_set</text>
</a>
</g>
</g>
<!-- Node1&#45;&gt;Node10 -->
<g id="edge9_Node000001_Node000010" class="edge">
<title>Node1&#45;&gt;Node10</title>
<g id="a_edge9_Node000001_Node000010"><a xlink:title=" ">
<path fill="none" stroke="#63b8ff" d="M604.51,-211.97C604.51,-205.19 604.51,-194.97 604.51,-186.13"/>
<polygon fill="#63b8ff" stroke="#63b8ff" points="608.01,-186.06 604.51,-176.06 601.01,-186.06 608.01,-186.06"/>
</a>
</g>
</g>
<!-- Node11 -->
<g id="Node000011" class="node">
<title>Node11</title>
<g id="a_Node000011"><a xlink:title=" ">
<polygon fill="#e0e0e0" stroke="#999999" points="427.01,-123 388.01,-123 388.01,-106 427.01,-106 427.01,-123"/>
<text text-anchor="middle" x="407.51" y="-112.6" font-family="Helvetica,sans-Serif" font-size="8.00">utility</text>
</a>
</g>
</g>
<!-- Node1&#45;&gt;Node11 -->
<g id="edge10_Node000001_Node000011" class="edge">
<title>Node1&#45;&gt;Node11</title>
<g id="a_edge10_Node000001_Node000011"><a xlink:title=" ">
<path fill="none" stroke="#63b8ff" d="M634.26,-215.32C677.69,-208.05 750.42,-190.71 722.51,-159 680.92,-111.74 503.53,-133.79 441.51,-123 440.06,-122.75 438.57,-122.47 437.08,-122.19"/>
<polygon fill="#63b8ff" stroke="#63b8ff" points="437.73,-118.75 427.23,-120.16 436.32,-125.61 437.73,-118.75"/>
</a>
</g>
</g>
<!-- Node12 -->
<g id="Node000012" class="node">
<title>Node12</title>
<g id="a_Node000012"><a xlink:title=" ">
<polygon fill="#e0e0e0" stroke="#999999" points="304.51,-123 262.51,-123 262.51,-106 304.51,-106 304.51,-123"/>
<text text-anchor="middle" x="283.51" y="-112.6" font-family="Helvetica,sans-Serif" font-size="8.00">vector</text>
</a>
</g>
</g>
<!-- Node1&#45;&gt;Node12 -->
<g id="edge11_Node000001_Node000012" class="edge">
<title>Node1&#45;&gt;Node12</title>
<g id="a_edge11_Node000001_Node000012"><a xlink:title=" ">
<path fill="none" stroke="#63b8ff" d="M617.76,-211.96C636.77,-200.24 667.78,-177.1 651.51,-159 603.08,-105.12 404.66,-133.51 314.91,-122.53"/>
<polygon fill="#63b8ff" stroke="#63b8ff" points="315.18,-119.03 304.78,-121.03 314.16,-125.96 315.18,-119.03"/>
</a>
</g>
</g>
<!-- Node13 -->
<g id="Node000013" class="node">
<title>Node13</title>
<g id="a_Node000013"><a xlink:title=" ">
<polygon fill="#e0e0e0" stroke="#999999" points="109.01,-123 20.01,-123 20.01,-106 109.01,-106 109.01,-123"/>
<text text-anchor="middle" x="64.51" y="-112.6" font-family="Helvetica,sans-Serif" font-size="8.00">memory_resource</text>
</a>
</g>
</g>
<!-- Node1&#45;&gt;Node13 -->
<g id="edge12_Node000001_Node000013" class="edge">
<title>Node1&#45;&gt;Node13</title>
<g id="a_edge12_Node000001_Node000013"><a xlink:title=" ">
<path fill="none" stroke="#63b8ff" d="M574.88,-219.54C462.97,-219.38 70.55,-215.97 33.51,-176 21.17,-162.69 34.85,-143.53 47.74,-130.36"/>
<polygon fill="#63b8ff" stroke="#63b8ff" points="50.22,-132.83 55.03,-123.39 45.38,-127.77 50.22,-132.83"/>
</a>
</g>
</g>
<!-- Node14 -->
<g id="Node000014" class="node">
<title>Node14</title>
<g id="a_Node000014"><a xlink:href="../../df/d47/stack_8hpp.html" target="_top" xlink:title=" ">
<polygon fill="white" stroke="#666666" points="178.51,-176 42.51,-176 42.51,-159 178.51,-159 178.51,-176"/>
<text text-anchor="middle" x="110.51" y="-165.6" font-family="Helvetica,sans-Serif" font-size="8.00">../types/containers/stack.hpp</text>
</a>
</g>
</g>
<!-- Node1&#45;&gt;Node14 -->
<g id="edge13_Node000001_Node000014" class="edge">
<title>Node1&#45;&gt;Node14</title>
<g id="a_edge13_Node000001_Node000014"><a xlink:title=" ">
<path fill="none" stroke="#63b8ff" d="M574.72,-216.42C499.57,-208.67 300.35,-188.1 188.86,-176.59"/>
<polygon fill="#63b8ff" stroke="#63b8ff" points="188.99,-173.08 178.69,-175.54 188.27,-180.05 188.99,-173.08"/>
</a>
</g>
</g>
<!-- Node15 -->
<g id="Node000015" class="node">
<title>Node15</title>
<g id="a_Node000015"><a xlink:href="../../d7/d65/intrinsics_8hpp.html" target="_top" xlink:title=" ">
<polygon fill="white" stroke="#666666" points="206.01,-70 99.01,-70 99.01,-53 206.01,-53 206.01,-70"/>
<text text-anchor="middle" x="152.51" y="-59.6" font-family="Helvetica,sans-Serif" font-size="8.00">../../utils/intrinsics.hpp</text>
</a>
</g>
</g>
<!-- Node1&#45;&gt;Node15 -->
<g id="edge48_Node000001_Node000015" class="edge">
<title>Node1&#45;&gt;Node15</title>
<g id="a_edge48_Node000001_Node000015"><a xlink:title=" ">
<path fill="none" stroke="#63b8ff" d="M574.78,-219.23C462.49,-217.94 68.3,-210.96 25.51,-176 0.87,-155.87 -8.41,-131.58 10.51,-106 28.54,-81.61 59.98,-70.45 88.71,-65.51"/>
<polygon fill="#63b8ff" stroke="#63b8ff" points="89.35,-68.96 98.72,-64.02 88.32,-62.03 89.35,-68.96"/>
</a>
</g>
</g>
<!-- Node18 -->
<g id="Node000018" class="node">
<title>Node18</title>
<g id="a_Node000018"><a xlink:href="../../df/d93/utils_8hpp.html" target="_top" xlink:title=" ">
<polygon fill="white" stroke="#666666" points="1229.51,-123 1149.51,-123 1149.51,-106 1229.51,-106 1229.51,-123"/>
<text text-anchor="middle" x="1189.51" y="-112.6" font-family="Helvetica,sans-Serif" font-size="8.00">../utils/utils.hpp</text>
</a>
</g>
</g>
<!-- Node1&#45;&gt;Node18 -->
<g id="edge21_Node000001_Node000018" class="edge">
<title>Node1&#45;&gt;Node18</title>
<g id="a_edge21_Node000001_Node000018"><a xlink:title=" ">
<path fill="none" stroke="#63b8ff" d="M634.02,-216.33C690.34,-210.09 816.96,-195.14 922.51,-176 1004.06,-161.21 1098.39,-138.5 1150.26,-125.52"/>
<polygon fill="#63b8ff" stroke="#63b8ff" points="1151.2,-128.89 1160.05,-123.06 1149.5,-122.1 1151.2,-128.89"/>
</a>
</g>
</g>
<!-- Node24 -->
<g id="Node000024" class="node">
<title>Node24</title>
<g id="a_Node000024"><a xlink:href="../../dc/d8a/grid_8hpp.html" target="_top" xlink:title=" ">
<polygon fill="white" stroke="#666666" points="824.51,-176 774.51,-176 774.51,-159 824.51,-159 824.51,-176"/>
<text text-anchor="middle" x="799.51" y="-165.6" font-family="Helvetica,sans-Serif" font-size="8.00">grid.hpp</text>
</a>
</g>
</g>
<!-- Node1&#45;&gt;Node24 -->
<g id="edge30_Node000001_Node000024" class="edge">
<title>Node1&#45;&gt;Node24</title>
<g id="a_edge30_Node000001_Node000024"><a xlink:title=" ">
<path fill="none" stroke="#63b8ff" d="M633.28,-211.97C668.14,-202.86 726.86,-187.5 764.36,-177.69"/>
<polygon fill="#63b8ff" stroke="#63b8ff" points="765.55,-181 774.34,-175.08 763.78,-174.23 765.55,-181"/>
</a>
</g>
</g>
<!-- Node28 -->
<g id="Node000028" class="node">
<title>Node28</title>
<g id="a_Node000028"><a xlink:href="../../d9/ddd/id__node_8hpp.html" target="_top" xlink:title=" ">
<polygon fill="white" stroke="#666666" points="1131.01,-123 1036.01,-123 1036.01,-106 1131.01,-106 1131.01,-123"/>
<text text-anchor="middle" x="1083.51" y="-112.6" font-family="Helvetica,sans-Serif" font-size="8.00">nodes/id_node.hpp</text>
</a>
</g>
</g>
<!-- Node1&#45;&gt;Node28 -->
<g id="edge46_Node000001_Node000028" class="edge">
<title>Node1&#45;&gt;Node28</title>
<g id="a_edge46_Node000001_Node000028"><a xlink:title=" ">
<path fill="none" stroke="#63b8ff" d="M634.23,-216.03C684.65,-209.86 789.96,-195.75 877.51,-176 940.02,-161.9 1011.48,-139.45 1051.68,-126.23"/>
<polygon fill="#63b8ff" stroke="#63b8ff" points="1052.8,-129.54 1061.2,-123.07 1050.6,-122.9 1052.8,-129.54"/>
</a>
</g>
</g>
<!-- Node14&#45;&gt;Node4 -->
<g id="edge14_Node000014_Node000004" class="edge">
<title>Node14&#45;&gt;Node4</title>
<g id="a_edge14_Node000014_Node000004"><a xlink:title=" ">
<path fill="none" stroke="#63b8ff" d="M127.06,-158.96C153.5,-147.04 207.06,-123.39 253.51,-106 347.14,-70.95 460.01,-36.01 515.05,-19.44"/>
<polygon fill="#63b8ff" stroke="#63b8ff" points="516.38,-22.7 524.95,-16.47 514.36,-15.99 516.38,-22.7"/>
</a>
</g>
</g>
<!-- Node14&#45;&gt;Node12 -->
<g id="edge16_Node000014_Node000012" class="edge">
<title>Node14&#45;&gt;Node12</title>
<g id="a_edge16_Node000014_Node000012"><a xlink:title=" ">
<path fill="none" stroke="#63b8ff" d="M136.03,-158.97C167.12,-149.81 219.6,-134.34 252.85,-124.54"/>
<polygon fill="#63b8ff" stroke="#63b8ff" points="253.9,-127.88 262.5,-121.69 251.92,-121.16 253.9,-127.88"/>
</a>
</g>
</g>
<!-- Node14&#45;&gt;Node13 -->
<g id="edge15_Node000014_Node000013" class="edge">
<title>Node14&#45;&gt;Node13</title>
<g id="a_edge15_Node000014_Node000013"><a xlink:title=" ">
<path fill="none" stroke="#63b8ff" d="M103.72,-158.97C96.99,-151.52 86.5,-139.89 78.06,-130.53"/>
<polygon fill="#63b8ff" stroke="#63b8ff" points="80.62,-128.14 71.32,-123.06 75.42,-132.83 80.62,-128.14"/>
</a>
</g>
</g>
<!-- Node14&#45;&gt;Node15 -->
<g id="edge17_Node000014_Node000015" class="edge">
<title>Node14&#45;&gt;Node15</title>
<g id="a_edge17_Node000014_Node000015"><a xlink:title=" ">
<path fill="none" stroke="#63b8ff" d="M113.66,-158.68C120.42,-141.96 136.4,-102.39 145.62,-79.56"/>
<polygon fill="#63b8ff" stroke="#63b8ff" points="148.93,-80.71 149.43,-70.12 142.44,-78.09 148.93,-80.71"/>
</a>
</g>
</g>
<!-- Node15&#45;&gt;Node4 -->
<g id="edge19_Node000015_Node000004" class="edge">
<title>Node15&#45;&gt;Node4</title>
<g id="a_edge19_Node000015_Node000004"><a xlink:title=" ">
<path fill="none" stroke="#63b8ff" d="M206.33,-53.57C289.23,-42.89 445.79,-22.73 514.6,-13.87"/>
<polygon fill="#63b8ff" stroke="#63b8ff" points="515.4,-17.29 524.87,-12.54 514.51,-10.35 515.4,-17.29"/>
</a>
</g>
</g>
<!-- Node16 -->
<g id="Node000016" class="node">
<title>Node16</title>
<g id="a_Node000016"><a xlink:title=" ">
<polygon fill="#e0e0e0" stroke="#999999" points="205.51,-17 161.51,-17 161.51,0 205.51,0 205.51,-17"/>
<text text-anchor="middle" x="183.51" y="-6.6" font-family="Helvetica,sans-Serif" font-size="8.00">atomic</text>
</a>
</g>
</g>
<!-- Node15&#45;&gt;Node16 -->
<g id="edge18_Node000015_Node000016" class="edge">
<title>Node15&#45;&gt;Node16</title>
<g id="a_edge18_Node000015_Node000016"><a xlink:title=" ">
<path fill="none" stroke="#63b8ff" d="M157.08,-52.97C161.43,-45.82 168.12,-34.82 173.68,-25.67"/>
<polygon fill="#63b8ff" stroke="#63b8ff" points="176.71,-27.42 178.92,-17.06 170.73,-23.78 176.71,-27.42"/>
</a>
</g>
</g>
<!-- Node17 -->
<g id="Node000017" class="node">
<title>Node17</title>
<g id="a_Node000017"><a xlink:title=" ">
<polygon fill="#e0e0e0" stroke="#999999" points="143.51,-17 99.51,-17 99.51,0 143.51,0 143.51,-17"/>
<text text-anchor="middle" x="121.51" y="-6.6" font-family="Helvetica,sans-Serif" font-size="8.00">cstdlib</text>
</a>
</g>
</g>
<!-- Node15&#45;&gt;Node17 -->
<g id="edge20_Node000015_Node000017" class="edge">
<title>Node15&#45;&gt;Node17</title>
<g id="a_edge20_Node000015_Node000017"><a xlink:title=" ">
<path fill="none" stroke="#63b8ff" d="M147.93,-52.97C143.58,-45.82 136.9,-34.82 131.34,-25.67"/>
<polygon fill="#63b8ff" stroke="#63b8ff" points="134.29,-23.78 126.1,-17.06 128.3,-27.42 134.29,-23.78"/>
</a>
</g>
</g>
<!-- Node18&#45;&gt;Node2 -->
<g id="edge22_Node000018_Node000002" class="edge">
<title>Node18&#45;&gt;Node2</title>
<g id="a_edge22_Node000018_Node000002"><a xlink:title=" ">
<path fill="none" stroke="#63b8ff" d="M1149.4,-107.31C1146.39,-106.86 1143.4,-106.42 1140.51,-106 1035.51,-90.72 910.63,-73.86 854.9,-66.41"/>
<polygon fill="#63b8ff" stroke="#63b8ff" points="855.07,-62.9 844.7,-65.05 854.15,-69.84 855.07,-62.9"/>
</a>
</g>
</g>
<!-- Node18&#45;&gt;Node4 -->
<g id="edge24_Node000018_Node000004" class="edge">
<title>Node18&#45;&gt;Node4</title>
<g id="a_edge24_Node000018_Node000004"><a xlink:title=" ">
<path fill="none" stroke="#63b8ff" d="M1171.41,-105.89C1150.99,-97.29 1116.79,-82.79 1087.51,-70 1070.55,-62.59 1067.42,-57.64 1049.51,-53 960.72,-29.98 680.16,-15.44 582.46,-10.97"/>
<polygon fill="#63b8ff" stroke="#63b8ff" points="582.41,-7.47 572.26,-10.51 582.09,-14.46 582.41,-7.47"/>
</a>
</g>
</g>
<!-- Node18&#45;&gt;Node15 -->
<g id="edge29_Node000018_Node000015" class="edge">
<title>Node18&#45;&gt;Node15</title>
<g id="a_edge29_Node000018_Node000015"><a xlink:title=" ">
<path fill="none" stroke="#63b8ff" d="M1149.44,-107.01C1146.42,-106.63 1143.42,-106.29 1140.51,-106 793.08,-71.86 374.28,-64.51 216.65,-62.93"/>
<polygon fill="#63b8ff" stroke="#63b8ff" points="216.23,-59.43 206.2,-62.83 216.17,-66.43 216.23,-59.43"/>
</a>
</g>
</g>
<!-- Node19 -->
<g id="Node000019" class="node">
<title>Node19</title>
<g id="a_Node000019"><a xlink:title=" ">
<polygon fill="#e0e0e0" stroke="#999999" points="1196.51,-70 1154.51,-70 1154.51,-53 1196.51,-53 1196.51,-70"/>
<text text-anchor="middle" x="1175.51" y="-59.6" font-family="Helvetica,sans-Serif" font-size="8.00">cmath</text>
</a>
</g>
</g>
<!-- Node18&#45;&gt;Node19 -->
<g id="edge23_Node000018_Node000019" class="edge">
<title>Node18&#45;&gt;Node19</title>
<g id="a_edge23_Node000018_Node000019"><a xlink:title=" ">
<path fill="none" stroke="#63b8ff" d="M1187.44,-105.97C1185.56,-99.12 1182.71,-88.74 1180.27,-79.84"/>
<polygon fill="#63b8ff" stroke="#63b8ff" points="1183.6,-78.77 1177.58,-70.06 1176.85,-80.63 1183.6,-78.77"/>
</a>
</g>
</g>
<!-- Node20 -->
<g id="Node000020" class="node">
<title>Node20</title>
<g id="a_Node000020"><a xlink:title=" ">
<polygon fill="#e0e0e0" stroke="#999999" points="1272.51,-70 1214.51,-70 1214.51,-53 1272.51,-53 1272.51,-70"/>
<text text-anchor="middle" x="1243.51" y="-59.6" font-family="Helvetica,sans-Serif" font-size="8.00">functional</text>
</a>
</g>
</g>
<!-- Node18&#45;&gt;Node20 -->
<g id="edge25_Node000018_Node000020" class="edge">
<title>Node18&#45;&gt;Node20</title>
<g id="a_edge25_Node000018_Node000020"><a xlink:title=" ">
<path fill="none" stroke="#63b8ff" d="M1197.48,-105.97C1205.53,-98.37 1218.19,-86.41 1228.19,-76.97"/>
<polygon fill="#63b8ff" stroke="#63b8ff" points="1230.64,-79.47 1235.51,-70.06 1225.83,-74.38 1230.64,-79.47"/>
</a>
</g>
</g>
<!-- Node21 -->
<g id="Node000021" class="node">
<title>Node21</title>
<g id="a_Node000021"><a xlink:title=" ">
<polygon fill="#e0e0e0" stroke="#999999" points="1040.51,-70 1002.51,-70 1002.51,-53 1040.51,-53 1040.51,-70"/>
<text text-anchor="middle" x="1021.51" y="-59.6" font-family="Helvetica,sans-Serif" font-size="8.00">limits</text>
</a>
</g>
</g>
<!-- Node18&#45;&gt;Node21 -->
<g id="edge26_Node000018_Node000021" class="edge">
<title>Node18&#45;&gt;Node21</title>
<g id="a_edge26_Node000018_Node000021"><a xlink:title=" ">
<path fill="none" stroke="#63b8ff" d="M1164.72,-105.97C1134.25,-96.72 1082.62,-81.05 1050.39,-71.27"/>
<polygon fill="#63b8ff" stroke="#63b8ff" points="1051.24,-67.87 1040.65,-68.31 1049.2,-74.57 1051.24,-67.87"/>
</a>
</g>
</g>
<!-- Node22 -->
<g id="Node000022" class="node">
<title>Node22</title>
<g id="a_Node000022"><a xlink:title=" ">
<polygon fill="#e0e0e0" stroke="#999999" points="1136.51,-70 1096.51,-70 1096.51,-53 1136.51,-53 1136.51,-70"/>
<text text-anchor="middle" x="1116.51" y="-59.6" font-family="Helvetica,sans-Serif" font-size="8.00">string</text>
</a>
</g>
</g>
<!-- Node18&#45;&gt;Node22 -->
<g id="edge27_Node000018_Node000022" class="edge">
<title>Node18&#45;&gt;Node22</title>
<g id="a_edge27_Node000018_Node000022"><a xlink:title=" ">
<path fill="none" stroke="#63b8ff" d="M1178.74,-105.97C1167.41,-98.07 1149.37,-85.46 1135.62,-75.86"/>
<polygon fill="#63b8ff" stroke="#63b8ff" points="1137.53,-72.91 1127.32,-70.06 1133.52,-78.65 1137.53,-72.91"/>
</a>
</g>
</g>
<!-- Node23 -->
<g id="Node000023" class="node">
<title>Node23</title>
<g id="a_Node000023"><a xlink:title=" ">
<polygon fill="#e0e0e0" stroke="#999999" points="984.01,-70 925.01,-70 925.01,-53 984.01,-53 984.01,-70"/>
<text text-anchor="middle" x="954.51" y="-59.6" font-family="Helvetica,sans-Serif" font-size="8.00">type_traits</text>
</a>
</g>
</g>
<!-- Node18&#45;&gt;Node23 -->
<g id="edge28_Node000018_Node000023" class="edge">
<title>Node18&#45;&gt;Node23</title>
<g id="a_edge28_Node000018_Node000023"><a xlink:title=" ">
<path fill="none" stroke="#63b8ff" d="M1154.83,-105.97C1111.95,-96.67 1039.14,-80.87 994.11,-71.09"/>
<polygon fill="#63b8ff" stroke="#63b8ff" points="994.63,-67.63 984.11,-68.93 993.15,-74.47 994.63,-67.63"/>
</a>
</g>
</g>
<!-- Node24&#45;&gt;Node2 -->
<g id="edge32_Node000024_Node000002" class="edge">
<title>Node24&#45;&gt;Node2</title>
<g id="a_edge32_Node000024_Node000002"><a xlink:title=" ">
<path fill="none" stroke="#63b8ff" d="M800.71,-158.99C802.62,-147.49 806.62,-124.87 811.51,-106 813.78,-97.24 816.81,-87.64 819.47,-79.7"/>
<polygon fill="#63b8ff" stroke="#63b8ff" points="822.82,-80.72 822.76,-70.12 816.2,-78.44 822.82,-80.72"/>
</a>
</g>
</g>
<!-- Node24&#45;&gt;Node3 -->
<g id="edge33_Node000024_Node000003" class="edge">
<title>Node24&#45;&gt;Node3</title>
<g id="a_edge33_Node000024_Node000003"><a xlink:title=" ">
<path fill="none" stroke="#63b8ff" d="M774.3,-163.97C692.94,-155.81 439.61,-130.31 380.37,-122.69"/>
<polygon fill="#63b8ff" stroke="#63b8ff" points="380.63,-119.19 370.23,-121.25 379.64,-126.12 380.63,-119.19"/>
</a>
</g>
</g>
<!-- Node24&#45;&gt;Node4 -->
<g id="edge34_Node000024_Node000004" class="edge">
<title>Node24&#45;&gt;Node4</title>
<g id="a_edge34_Node000024_Node000004"><a xlink:title=" ">
<path fill="none" stroke="#63b8ff" d="M774.06,-163.08C704.8,-153.7 517.77,-127.96 513.51,-123 488.96,-94.43 517.26,-48.85 535.49,-25.07"/>
<polygon fill="#63b8ff" stroke="#63b8ff" points="538.35,-27.11 541.86,-17.11 532.88,-22.74 538.35,-27.11"/>
</a>
</g>
</g>
<!-- Node24&#45;&gt;Node11 -->
<g id="edge36_Node000024_Node000011" class="edge">
<title>Node24&#45;&gt;Node11</title>
<g id="a_edge36_Node000024_Node000011"><a xlink:title=" ">
<path fill="none" stroke="#63b8ff" d="M774.38,-161.37C769.78,-160.52 765.01,-159.69 760.51,-159 619.46,-137.51 582.25,-146.4 441.51,-123 440.05,-122.76 438.57,-122.49 437.07,-122.22"/>
<polygon fill="#63b8ff" stroke="#63b8ff" points="437.71,-118.77 427.22,-120.21 436.32,-125.63 437.71,-118.77"/>
</a>
</g>
</g>
<!-- Node24&#45;&gt;Node12 -->
<g id="edge37_Node000024_Node000012" class="edge">
<title>Node24&#45;&gt;Node12</title>
<g id="a_edge37_Node000024_Node000012"><a xlink:title=" ">
<path fill="none" stroke="#63b8ff" d="M774.28,-164.73C690.64,-158.8 422.11,-139.14 314.65,-122.67"/>
<polygon fill="#63b8ff" stroke="#63b8ff" points="315.2,-119.21 304.77,-121.08 314.09,-126.12 315.2,-119.21"/>
</a>
</g>
</g>
<!-- Node24&#45;&gt;Node15 -->
<g id="edge42_Node000024_Node000015" class="edge">
<title>Node24&#45;&gt;Node15</title>
<g id="a_edge42_Node000024_Node000015"><a xlink:title=" ">
<path fill="none" stroke="#63b8ff" d="M774.39,-163.25C701.43,-153.8 493.8,-126.74 479.51,-123 459.63,-117.8 456.35,-111.37 436.51,-106 362.24,-85.91 274.37,-74.23 216.25,-68.13"/>
<polygon fill="#63b8ff" stroke="#63b8ff" points="216.42,-64.63 206.11,-67.09 215.71,-71.59 216.42,-64.63"/>
</a>
</g>
</g>
<!-- Node24&#45;&gt;Node18 -->
<g id="edge38_Node000024_Node000018" class="edge">
<title>Node24&#45;&gt;Node18</title>
<g id="a_edge38_Node000024_Node000018"><a xlink:title=" ">
<path fill="none" stroke="#63b8ff" d="M824.78,-163.5C879.88,-156.9 1015.21,-140.44 1139.35,-123.13"/>
<polygon fill="#63b8ff" stroke="#63b8ff" points="1139.99,-126.57 1149.41,-121.72 1139.02,-119.64 1139.99,-126.57"/>
</a>
</g>
</g>
<!-- Node24&#45;&gt;Node23 -->
<g id="edge35_Node000024_Node000023" class="edge">
<title>Node24&#45;&gt;Node23</title>
<g id="a_edge35_Node000024_Node000023"><a xlink:title=" ">
<path fill="none" stroke="#63b8ff" d="M809.28,-158.95C824.6,-147.22 855.33,-124.06 882.51,-106 898.97,-95.06 918.15,-83.53 932.58,-75.09"/>
<polygon fill="#63b8ff" stroke="#63b8ff" points="934.4,-78.07 941.29,-70.03 930.88,-72.02 934.4,-78.07"/>
</a>
</g>
</g>
<!-- Node25 -->
<g id="Node000025" class="node">
<title>Node25</title>
<g id="a_Node000025"><a xlink:title=" ">
<polygon fill="#e0e0e0" stroke="#999999" points="759.51,-123 703.51,-123 703.51,-106 759.51,-106 759.51,-123"/>
<text text-anchor="middle" x="731.51" y="-112.6" font-family="Helvetica,sans-Serif" font-size="8.00">algorithm</text>
</a>
</g>
</g>
<!-- Node24&#45;&gt;Node25 -->
<g id="edge31_Node000024_Node000025" class="edge">
<title>Node24&#45;&gt;Node25</title>
<g id="a_edge31_Node000024_Node000025"><a xlink:title=" ">
<path fill="none" stroke="#63b8ff" d="M789.47,-158.97C779.03,-151.14 762.44,-138.7 749.68,-129.13"/>
<polygon fill="#63b8ff" stroke="#63b8ff" points="751.68,-126.26 741.58,-123.06 747.48,-131.86 751.68,-126.26"/>
</a>
</g>
</g>
<!-- Node26 -->
<g id="Node000026" class="node">
<title>Node26</title>
<g id="a_Node000026"><a xlink:href="../../d1/d2d/weighted__node_8hpp.html" target="_top" xlink:title=" ">
<polygon fill="white" stroke="#666666" points="1017.51,-123 891.51,-123 891.51,-106 1017.51,-106 1017.51,-123"/>
<text text-anchor="middle" x="954.51" y="-112.6" font-family="Helvetica,sans-Serif" font-size="8.00">nodes/weighted_node.hpp</text>
</a>
</g>
</g>
<!-- Node24&#45;&gt;Node26 -->
<g id="edge39_Node000024_Node000026" class="edge">
<title>Node24&#45;&gt;Node26</title>
<g id="a_edge39_Node000024_Node000026"><a xlink:title=" ">
<path fill="none" stroke="#63b8ff" d="M822.38,-158.97C848.71,-150.31 892.15,-136.02 921.99,-126.2"/>
<polygon fill="#63b8ff" stroke="#63b8ff" points="923.14,-129.51 931.54,-123.06 920.95,-122.86 923.14,-129.51"/>
</a>
</g>
</g>
<!-- Node27 -->
<g id="Node000027" class="node">
<title>Node27</title>
<g id="a_Node000027"><a xlink:href="../../d9/dfc/coord_8hpp.html" target="_top" xlink:title=" ">
<polygon fill="white" stroke="#666666" points="685.01,-123 522.01,-123 522.01,-106 685.01,-106 685.01,-123"/>
<text text-anchor="middle" x="603.51" y="-112.6" font-family="Helvetica,sans-Serif" font-size="8.00">include/types/containers/coord.hpp</text>
</a>
</g>
</g>
<!-- Node24&#45;&gt;Node27 -->
<g id="edge43_Node000024_Node000027" class="edge">
<title>Node24&#45;&gt;Node27</title>
<g id="a_edge43_Node000024_Node000027"><a xlink:title=" ">
<path fill="none" stroke="#63b8ff" d="M774.29,-159.94C740.81,-151.23 681.37,-135.76 642.19,-125.57"/>
<polygon fill="#63b8ff" stroke="#63b8ff" points="643.01,-122.16 632.45,-123.03 641.25,-128.94 643.01,-122.16"/>
</a>
</g>
</g>
<!-- Node26&#45;&gt;Node21 -->
<g id="edge40_Node000026_Node000021" class="edge">
<title>Node26&#45;&gt;Node21</title>
<g id="a_edge40_Node000026_Node000021"><a xlink:title=" ">
<path fill="none" stroke="#63b8ff" d="M964.39,-105.97C974.69,-98.14 991.03,-85.7 1003.6,-76.13"/>
<polygon fill="#63b8ff" stroke="#63b8ff" points="1005.74,-78.9 1011.58,-70.06 1001.5,-73.33 1005.74,-78.9"/>
</a>
</g>
</g>
<!-- Node26&#45;&gt;Node23 -->
<g id="edge41_Node000026_Node000023" class="edge">
<title>Node26&#45;&gt;Node23</title>
<g id="a_edge41_Node000026_Node000023"><a xlink:title=" ">
<path fill="none" stroke="#63b8ff" d="M954.51,-105.97C954.51,-99.19 954.51,-88.97 954.51,-80.13"/>
<polygon fill="#63b8ff" stroke="#63b8ff" points="958.01,-80.06 954.51,-70.06 951.01,-80.06 958.01,-80.06"/>
</a>
</g>
</g>
<!-- Node27&#45;&gt;Node2 -->
<g id="edge44_Node000027_Node000002" class="edge">
<title>Node27&#45;&gt;Node2</title>
<g id="a_edge44_Node000027_Node000002"><a xlink:title=" ">
<path fill="none" stroke="#63b8ff" d="M636.27,-105.97C679.54,-96.03 755.09,-78.68 796.43,-69.18"/>
<polygon fill="#63b8ff" stroke="#63b8ff" points="797.44,-72.54 806.41,-66.89 795.88,-65.72 797.44,-72.54"/>
</a>
</g>
</g>
<!-- Node27&#45;&gt;Node4 -->
<g id="edge45_Node000027_Node000004" class="edge">
<title>Node27&#45;&gt;Node4</title>
<g id="a_edge45_Node000027_Node000004"><a xlink:title=" ">
<path fill="none" stroke="#63b8ff" d="M599.37,-105.68C590.49,-88.89 569.42,-49.04 557.37,-26.25"/>
<polygon fill="#63b8ff" stroke="#63b8ff" points="560.31,-24.33 552.54,-17.12 554.12,-27.6 560.31,-24.33"/>
</a>
</g>
</g>
<!-- Node28&#45;&gt;Node23 -->
<g id="edge47_Node000028_Node000023" class="edge">
<title>Node28&#45;&gt;Node23</title>
<g id="a_edge47_Node000028_Node000023"><a xlink:title=" ">
<path fill="none" stroke="#63b8ff" d="M1064.47,-105.97C1043.04,-97.5 1007.97,-83.64 983.21,-73.85"/>
<polygon fill="#63b8ff" stroke="#63b8ff" points="984.21,-70.48 973.62,-70.06 981.63,-76.99 984.21,-70.48"/>
</a>
</g>
</g>
</g>
</svg>
