<?xml version="1.0" encoding="UTF-8" standalone="no"?>
<!DOCTYPE svg PUBLIC "-//W3C//DTD SVG 1.1//EN"
 "http://www.w3.org/Graphics/SVG/1.1/DTD/svg11.dtd">
<!-- Generated by graphviz version 2.43.0 (0)
 -->
<!-- Title: graph.hpp Pages: 1 -->
<svg width="943pt" height="237pt"
 viewBox="0.00 0.00 942.98 237.00" xmlns="http://www.w3.org/2000/svg" xmlns:xlink="http://www.w3.org/1999/xlink">
<g id="graph0" class="graph" transform="scale(1 1) rotate(0) translate(4 233)">
<title>graph.hpp</title>
<!-- Node1 -->
<g id="Node000001" class="node">
<title>Node1</title>
<g id="a_Node000001"><a xlink:title=" ">
<polygon fill="#999999" stroke="#666666" points="488.58,-229 435.58,-229 435.58,-212 488.58,-212 488.58,-229"/>
<text text-anchor="middle" x="462.08" y="-218.6" font-family="Helvetica,sans-Serif" font-size="8.00">graph.hpp</text>
</a>
</g>
</g>
<!-- Node2 -->
<g id="Node000002" class="node">
<title>Node2</title>
<g id="a_Node000002"><a xlink:title=" ">
<polygon fill="#e0e0e0" stroke="#999999" points="256.58,-70 221.58,-70 221.58,-53 256.58,-53 256.58,-70"/>
<text text-anchor="middle" x="239.08" y="-59.6" font-family="Helvetica,sans-Serif" font-size="8.00">array</text>
</a>
</g>
</g>
<!-- Node1&#45;&gt;Node2 -->
<g id="edge1_Node000001_Node000002" class="edge">
<title>Node1&#45;&gt;Node2</title>
<g id="a_edge1_Node000001_Node000002"><a xlink:title=" ">
<path fill="none" stroke="#63b8ff" d="M435.39,-219.21C355.04,-217.96 116.77,-211.28 49.08,-176 21.42,-161.58 13.99,-152.22 3.08,-123 0.43,-115.92 -1.76,-111.81 3.08,-106 29.31,-74.49 154.7,-65.72 211.27,-63.35"/>
<polygon fill="#63b8ff" stroke="#63b8ff" points="211.45,-66.84 221.31,-62.96 211.18,-59.85 211.45,-66.84"/>
</a>
</g>
</g>
<!-- Node3 -->
<g id="Node000003" class="node">
<title>Node3</title>
<g id="a_Node000003"><a xlink:title=" ">
<polygon fill="#e0e0e0" stroke="#999999" points="54.08,-123 12.08,-123 12.08,-106 54.08,-106 54.08,-123"/>
<text text-anchor="middle" x="33.08" y="-112.6" font-family="Helvetica,sans-Serif" font-size="8.00">cassert</text>
</a>
</g>
</g>
<!-- Node1&#45;&gt;Node3 -->
<g id="edge2_Node000001_Node000003" class="edge">
<title>Node1&#45;&gt;Node3</title>
<g id="a_edge2_Node000001_Node000003"><a xlink:title=" ">
<path fill="none" stroke="#63b8ff" d="M435.56,-219.57C357.46,-219.34 129.97,-215.21 69.08,-176 53.68,-166.09 43.98,-147.06 38.58,-132.98"/>
<polygon fill="#63b8ff" stroke="#63b8ff" points="41.84,-131.71 35.26,-123.4 35.23,-134 41.84,-131.71"/>
</a>
</g>
</g>
<!-- Node4 -->
<g id="Node000004" class="node">
<title>Node4</title>
<g id="a_Node000004"><a xlink:title=" ">
<polygon fill="#e0e0e0" stroke="#999999" points="762.08,-17 720.08,-17 720.08,0 762.08,0 762.08,-17"/>
<text text-anchor="middle" x="741.08" y="-6.6" font-family="Helvetica,sans-Serif" font-size="8.00">cstddef</text>
</a>
</g>
</g>
<!-- Node1&#45;&gt;Node4 -->
<g id="edge3_Node000001_Node000004" class="edge">
<title>Node1&#45;&gt;Node4</title>
<g id="a_edge3_Node000001_Node000004"><a xlink:title=" ">
<path fill="none" stroke="#63b8ff" d="M488.67,-219.21C569.9,-217.95 813.51,-211.24 883.08,-176 911.43,-161.64 919.65,-152.65 931.08,-123 958.07,-52.99 833.33,-23.75 772.63,-13.81"/>
<polygon fill="#63b8ff" stroke="#63b8ff" points="772.86,-10.3 762.44,-12.23 771.78,-17.22 772.86,-10.3"/>
</a>
</g>
</g>
<!-- Node5 -->
<g id="Node000005" class="node">
<title>Node5</title>
<g id="a_Node000005"><a xlink:title=" ">
<polygon fill="#e0e0e0" stroke="#999999" points="125.08,-176 87.08,-176 87.08,-159 125.08,-159 125.08,-176"/>
<text text-anchor="middle" x="106.08" y="-165.6" font-family="Helvetica,sans-Serif" font-size="8.00">future</text>
</a>
</g>
</g>
<!-- Node1&#45;&gt;Node5 -->
<g id="edge4_Node000001_Node000005" class="edge">
<title>Node1&#45;&gt;Node5</title>
<g id="a_edge4_Node000001_Node000005"><a xlink:title=" ">
<path fill="none" stroke="#63b8ff" d="M435.53,-217.16C381,-212.1 252.35,-198.88 135.14,-175.95"/>
<polygon fill="#63b8ff" stroke="#63b8ff" points="135.77,-172.51 125.28,-174 134.41,-179.38 135.77,-172.51"/>
</a>
</g>
</g>
<!-- Node6 -->
<g id="Node000006" class="node">
<title>Node6</title>
<g id="a_Node000006"><a xlink:title=" ">
<polygon fill="#e0e0e0" stroke="#999999" points="203.08,-176 143.08,-176 143.08,-159 203.08,-159 203.08,-176"/>
<text text-anchor="middle" x="173.08" y="-165.6" font-family="Helvetica,sans-Serif" font-size="8.00">initializer_list</text>
</a>
</g>
</g>
<!-- Node1&#45;&gt;Node6 -->
<g id="edge5_Node000001_Node000006" class="edge">
<title>Node1&#45;&gt;Node6</title>
<g id="a_edge5_Node000001_Node000006"><a xlink:title=" ">
<path fill="none" stroke="#63b8ff" d="M435.41,-215.02C391.37,-207.59 300.41,-192.09 213.35,-176.2"/>
<polygon fill="#63b8ff" stroke="#63b8ff" points="213.77,-172.72 203.3,-174.37 212.51,-179.61 213.77,-172.72"/>
</a>
</g>
</g>
<!-- Node7 -->
<g id="Node000007" class="node">
<title>Node7</title>
<g id="a_Node000007"><a xlink:title=" ">
<polygon fill="#e0e0e0" stroke="#999999" points="259.08,-176 221.08,-176 221.08,-159 259.08,-159 259.08,-176"/>
<text text-anchor="middle" x="240.08" y="-165.6" font-family="Helvetica,sans-Serif" font-size="8.00">mutex</text>
</a>
</g>
</g>
<!-- Node1&#45;&gt;Node7 -->
<g id="edge6_Node000001_Node000007" class="edge">
<title>Node1&#45;&gt;Node7</title>
<g id="a_edge6_Node000001_Node000007"><a xlink:title=" ">
<path fill="none" stroke="#63b8ff" d="M435.32,-213.87C399.66,-206.28 334.36,-192.1 269.34,-176.23"/>
<polygon fill="#63b8ff" stroke="#63b8ff" points="269.88,-172.76 259.33,-173.77 268.21,-179.55 269.88,-172.76"/>
</a>
</g>
</g>
<!-- Node8 -->
<g id="Node000008" class="node">
<title>Node8</title>
<g id="a_Node000008"><a xlink:title=" ">
<polygon fill="#e0e0e0" stroke="#999999" points="317.08,-176 277.08,-176 277.08,-159 317.08,-159 317.08,-176"/>
<text text-anchor="middle" x="297.08" y="-165.6" font-family="Helvetica,sans-Serif" font-size="8.00">thread</text>
</a>
</g>
</g>
<!-- Node1&#45;&gt;Node8 -->
<g id="edge7_Node000001_Node000008" class="edge">
<title>Node1&#45;&gt;Node8</title>
<g id="a_edge7_Node000001_Node000008"><a xlink:title=" ">
<path fill="none" stroke="#63b8ff" d="M437.73,-211.97C408.29,-202.87 358.74,-187.56 326.99,-177.75"/>
<polygon fill="#63b8ff" stroke="#63b8ff" points="327.95,-174.38 317.36,-174.77 325.88,-181.07 327.95,-174.38"/>
</a>
</g>
</g>
<!-- Node9 -->
<g id="Node000009" class="node">
<title>Node9</title>
<g id="a_Node000009"><a xlink:title=" ">
<polygon fill="#e0e0e0" stroke="#999999" points="409.08,-176 335.08,-176 335.08,-159 409.08,-159 409.08,-176"/>
<text text-anchor="middle" x="372.08" y="-165.6" font-family="Helvetica,sans-Serif" font-size="8.00">unordered_map</text>
</a>
</g>
</g>
<!-- Node1&#45;&gt;Node9 -->
<g id="edge8_Node000001_Node000009" class="edge">
<title>Node1&#45;&gt;Node9</title>
<g id="a_edge8_Node000001_Node000009"><a xlink:title=" ">
<path fill="none" stroke="#63b8ff" d="M448.8,-211.97C434.44,-203.84 411.32,-190.74 394.21,-181.04"/>
<polygon fill="#63b8ff" stroke="#63b8ff" points="395.84,-177.94 385.41,-176.06 392.39,-184.03 395.84,-177.94"/>
</a>
</g>
</g>
<!-- Node10 -->
<g id="Node000010" class="node">
<title>Node10</title>
<g id="a_Node000010"><a xlink:title=" ">
<polygon fill="#e0e0e0" stroke="#999999" points="496.58,-176 427.58,-176 427.58,-159 496.58,-159 496.58,-176"/>
<text text-anchor="middle" x="462.08" y="-165.6" font-family="Helvetica,sans-Serif" font-size="8.00">unordered_set</text>
</a>
</g>
</g>
<!-- Node1&#45;&gt;Node10 -->
<g id="edge9_Node000001_Node000010" class="edge">
<title>Node1&#45;&gt;Node10</title>
<g id="a_edge9_Node000001_Node000010"><a xlink:title=" ">
<path fill="none" stroke="#63b8ff" d="M462.08,-211.97C462.08,-205.19 462.08,-194.97 462.08,-186.13"/>
<polygon fill="#63b8ff" stroke="#63b8ff" points="465.58,-186.06 462.08,-176.06 458.58,-186.06 465.58,-186.06"/>
</a>
</g>
</g>
<!-- Node11 -->
<g id="Node000011" class="node">
<title>Node11</title>
<g id="a_Node000011"><a xlink:title=" ">
<polygon fill="#e0e0e0" stroke="#999999" points="107.08,-123 73.08,-123 73.08,-106 107.08,-106 107.08,-123"/>
<text text-anchor="middle" x="90.08" y="-112.6" font-family="Helvetica,sans-Serif" font-size="8.00">utility</text>
</a>
</g>
</g>
<!-- Node1&#45;&gt;Node11 -->
<g id="edge10_Node000001_Node000011" class="edge">
<title>Node1&#45;&gt;Node11</title>
<g id="a_edge10_Node000001_Node000011"><a xlink:title=" ">
<path fill="none" stroke="#63b8ff" d="M435.52,-218.5C352.49,-215.09 101.9,-202.68 78.08,-176 67.51,-164.16 73.2,-145.75 79.87,-132.35"/>
<polygon fill="#63b8ff" stroke="#63b8ff" points="83.11,-133.71 84.9,-123.26 76.99,-130.31 83.11,-133.71"/>
</a>
</g>
</g>
<!-- Node12 -->
<g id="Node000012" class="node">
<title>Node12</title>
<g id="a_Node000012"><a xlink:title=" ">
<polygon fill="#e0e0e0" stroke="#999999" points="741.08,-123 703.08,-123 703.08,-106 741.08,-106 741.08,-123"/>
<text text-anchor="middle" x="722.08" y="-112.6" font-family="Helvetica,sans-Serif" font-size="8.00">vector</text>
</a>
</g>
</g>
<!-- Node1&#45;&gt;Node12 -->
<g id="edge11_Node000001_Node000012" class="edge">
<title>Node1&#45;&gt;Node12</title>
<g id="a_edge11_Node000001_Node000012"><a xlink:title=" ">
<path fill="none" stroke="#63b8ff" d="M488.65,-217.01C540.64,-211.7 653.5,-197.95 685.08,-176 700.22,-165.47 710.31,-146.55 716.08,-132.66"/>
<polygon fill="#63b8ff" stroke="#63b8ff" points="719.38,-133.83 719.66,-123.24 712.83,-131.35 719.38,-133.83"/>
</a>
</g>
</g>
<!-- Node13 -->
<g id="Node000013" class="node">
<title>Node13</title>
<g id="a_Node000013"><a xlink:title=" ">
<polygon fill="#e0e0e0" stroke="#999999" points="922.08,-123 840.08,-123 840.08,-106 922.08,-106 922.08,-123"/>
<text text-anchor="middle" x="881.08" y="-112.6" font-family="Helvetica,sans-Serif" font-size="8.00">memory_resource</text>
</a>
</g>
</g>
<!-- Node1&#45;&gt;Node13 -->
<g id="edge12_Node000001_Node000013" class="edge">
<title>Node1&#45;&gt;Node13</title>
<g id="a_edge12_Node000001_Node000013"><a xlink:title=" ">
<path fill="none" stroke="#63b8ff" d="M488.67,-218.33C573.76,-214.36 835.41,-200.26 864.08,-176 876.31,-165.65 880.1,-147.26 881.11,-133.46"/>
<polygon fill="#63b8ff" stroke="#63b8ff" points="884.62,-133.34 881.43,-123.23 877.62,-133.12 884.62,-133.34"/>
</a>
</g>
</g>
<!-- Node14 -->
<g id="Node000014" class="node">
<title>Node14</title>
<g id="a_Node000014"><a xlink:href="../../dc/d8a/grid_8hpp.html" target="_top" xlink:title=" ">
<polygon fill="white" stroke="#666666" points="599.08,-176 553.08,-176 553.08,-159 599.08,-159 599.08,-176"/>
<text text-anchor="middle" x="576.08" y="-165.6" font-family="Helvetica,sans-Serif" font-size="8.00">grid.hpp</text>
</a>
</g>
</g>
<!-- Node1&#45;&gt;Node14 -->
<g id="edge13_Node000001_Node000014" class="edge">
<title>Node1&#45;&gt;Node14</title>
<g id="a_edge13_Node000001_Node000014"><a xlink:title=" ">
<path fill="none" stroke="#63b8ff" d="M478.9,-211.97C497.59,-203.61 528.01,-190 549.84,-180.24"/>
<polygon fill="#63b8ff" stroke="#63b8ff" points="551.49,-183.33 559.19,-176.06 548.63,-176.94 551.49,-183.33"/>
</a>
</g>
</g>
<!-- Node17 -->
<g id="Node000017" class="node">
<title>Node17</title>
<g id="a_Node000017"><a xlink:href="../../df/d93/utils_8hpp.html" target="_top" xlink:title=" ">
<polygon fill="white" stroke="#666666" points="609.08,-123 541.08,-123 541.08,-106 609.08,-106 609.08,-123"/>
<text text-anchor="middle" x="575.08" y="-112.6" font-family="Helvetica,sans-Serif" font-size="8.00">../utils/utils.hpp</text>
</a>
</g>
</g>
<!-- Node1&#45;&gt;Node17 -->
<g id="edge40_Node000001_Node000017" class="edge">
<title>Node1&#45;&gt;Node17</title>
<g id="a_edge40_Node000001_Node000017"><a xlink:title=" ">
<path fill="none" stroke="#63b8ff" d="M488.66,-220.33C522.68,-219.77 580.49,-213 608.08,-176 618.86,-161.54 605.5,-143.14 592.7,-130.45"/>
<polygon fill="#63b8ff" stroke="#63b8ff" points="594.74,-127.57 585.02,-123.37 590,-132.72 594.74,-127.57"/>
</a>
</g>
</g>
<!-- Node22 -->
<g id="Node000022" class="node">
<title>Node22</title>
<g id="a_Node000022"><a xlink:href="../../d7/d65/intrinsics_8hpp.html" target="_top" xlink:title=" ">
<polygon fill="#fff0f0" stroke="red" points="783.58,-70 698.58,-70 698.58,-53 783.58,-53 783.58,-70"/>
<text text-anchor="middle" x="741.08" y="-59.6" font-family="Helvetica,sans-Serif" font-size="8.00">../utils/intrinsics.hpp</text>
</a>
</g>
</g>
<!-- Node1&#45;&gt;Node22 -->
<g id="edge43_Node000001_Node000022" class="edge">
<title>Node1&#45;&gt;Node22</title>
<g id="a_edge43_Node000001_Node000022"><a xlink:title=" ">
<path fill="none" stroke="#63b8ff" d="M488.75,-216.53C522.06,-211.91 579.89,-200.79 623.08,-176 661.51,-153.94 662.04,-136.61 694.08,-106 704.3,-96.24 715.95,-85.45 725.1,-77.06"/>
<polygon fill="#63b8ff" stroke="#63b8ff" points="727.67,-79.45 732.68,-70.12 722.94,-74.29 727.67,-79.45"/>
</a>
</g>
</g>
<!-- Node26 -->
<g id="Node000026" class="node">
<title>Node26</title>
<g id="a_Node000026"><a xlink:href="../../df/d47/stack_8hpp.html" target="_top" xlink:title=" ">
<polygon fill="white" stroke="#666666" points="854.58,-176 737.58,-176 737.58,-159 854.58,-159 854.58,-176"/>
<text text-anchor="middle" x="796.08" y="-165.6" font-family="Helvetica,sans-Serif" font-size="8.00">../types/containers/stack.hpp</text>
</a>
</g>
</g>
<!-- Node1&#45;&gt;Node26 -->
<g id="edge35_Node000001_Node000026" class="edge">
<title>Node1&#45;&gt;Node26</title>
<g id="a_edge35_Node000001_Node000026"><a xlink:title=" ">
<path fill="none" stroke="#63b8ff" d="M488.85,-215.41C542.37,-207.24 663.7,-188.71 736.86,-177.54"/>
<polygon fill="#63b8ff" stroke="#63b8ff" points="737.49,-180.99 746.85,-176.02 736.43,-174.07 737.49,-180.99"/>
</a>
</g>
</g>
<!-- Node27 -->
<g id="Node000027" class="node">
<title>Node27</title>
<g id="a_Node000027"><a xlink:href="../../d9/ddd/id__node_8hpp.html" target="_top" xlink:title=" ">
<polygon fill="white" stroke="#666666" points="210.58,-123 125.58,-123 125.58,-106 210.58,-106 210.58,-123"/>
<text text-anchor="middle" x="168.08" y="-112.6" font-family="Helvetica,sans-Serif" font-size="8.00">nodes/id_node.hpp</text>
</a>
</g>
</g>
<!-- Node1&#45;&gt;Node27 -->
<g id="edge41_Node000001_Node000027" class="edge">
<title>Node1&#45;&gt;Node27</title>
<g id="a_edge41_Node000001_Node000027"><a xlink:title=" ">
<path fill="none" stroke="#63b8ff" d="M474.37,-211.87C491.99,-200.01 520.65,-176.71 505.08,-159 463.64,-111.9 287.29,-131.09 225.08,-123 223.62,-122.81 222.15,-122.62 220.66,-122.42"/>
<polygon fill="#63b8ff" stroke="#63b8ff" points="221.09,-118.95 210.72,-121.12 220.18,-125.89 221.09,-118.95"/>
</a>
</g>
</g>
<!-- Node14&#45;&gt;Node2 -->
<g id="edge15_Node000014_Node000002" class="edge">
<title>Node14&#45;&gt;Node2</title>
<g id="a_edge15_Node000014_Node000002"><a xlink:title=" ">
<path fill="none" stroke="#63b8ff" d="M552.96,-163.25C485.44,-153.73 292.87,-126.35 287.08,-123 269.52,-112.84 255.95,-93.56 247.79,-79.49"/>
<polygon fill="#63b8ff" stroke="#63b8ff" points="250.68,-77.47 242.82,-70.37 244.53,-80.82 250.68,-77.47"/>
</a>
</g>
</g>
<!-- Node14&#45;&gt;Node3 -->
<g id="edge16_Node000014_Node000003" class="edge">
<title>Node14&#45;&gt;Node3</title>
<g id="a_edge16_Node000014_Node000003"><a xlink:title=" ">
<path fill="none" stroke="#63b8ff" d="M553.07,-163.93C539.18,-162.41 521.12,-160.5 505.08,-159 312.53,-140.97 259.97,-153.78 64.36,-122.72"/>
<polygon fill="#63b8ff" stroke="#63b8ff" points="64.76,-119.23 54.33,-121.1 63.65,-126.15 64.76,-119.23"/>
</a>
</g>
</g>
<!-- Node14&#45;&gt;Node4 -->
<g id="edge17_Node000014_Node000004" class="edge">
<title>Node14&#45;&gt;Node4</title>
<g id="a_edge17_Node000014_Node000004"><a xlink:title=" ">
<path fill="none" stroke="#63b8ff" d="M564.48,-158.9C537,-139.99 472.47,-89.71 503.08,-53 529.03,-21.87 651.11,-12.95 709.64,-10.45"/>
<polygon fill="#63b8ff" stroke="#63b8ff" points="709.93,-13.94 719.79,-10.05 709.66,-6.95 709.93,-13.94"/>
</a>
</g>
</g>
<!-- Node14&#45;&gt;Node11 -->
<g id="edge19_Node000014_Node000011" class="edge">
<title>Node14&#45;&gt;Node11</title>
<g id="a_edge19_Node000014_Node000011"><a xlink:title=" ">
<path fill="none" stroke="#63b8ff" d="M553.06,-163.99C539.17,-162.5 521.11,-160.59 505.08,-159 335.5,-142.2 288.43,-154.72 117.16,-122.82"/>
<polygon fill="#63b8ff" stroke="#63b8ff" points="117.79,-119.38 107.31,-120.96 116.49,-126.26 117.79,-119.38"/>
</a>
</g>
</g>
<!-- Node14&#45;&gt;Node12 -->
<g id="edge20_Node000014_Node000012" class="edge">
<title>Node14&#45;&gt;Node12</title>
<g id="a_edge20_Node000014_Node000012"><a xlink:title=" ">
<path fill="none" stroke="#63b8ff" d="M597.62,-158.97C622.91,-150.14 664.97,-135.45 693.1,-125.62"/>
<polygon fill="#63b8ff" stroke="#63b8ff" points="694.49,-128.84 702.78,-122.24 692.18,-122.23 694.49,-128.84"/>
</a>
</g>
</g>
<!-- Node15 -->
<g id="Node000015" class="node">
<title>Node15</title>
<g id="a_Node000015"><a xlink:title=" ">
<polygon fill="#e0e0e0" stroke="#999999" points="485.08,-123 435.08,-123 435.08,-106 485.08,-106 485.08,-123"/>
<text text-anchor="middle" x="460.08" y="-112.6" font-family="Helvetica,sans-Serif" font-size="8.00">algorithm</text>
</a>
</g>
</g>
<!-- Node14&#45;&gt;Node15 -->
<g id="edge14_Node000014_Node000015" class="edge">
<title>Node14&#45;&gt;Node15</title>
<g id="a_edge14_Node000014_Node000015"><a xlink:title=" ">
<path fill="none" stroke="#63b8ff" d="M558.96,-158.97C539.86,-150.58 508.71,-136.88 486.48,-127.11"/>
<polygon fill="#63b8ff" stroke="#63b8ff" points="487.83,-123.88 477.26,-123.06 485.01,-130.28 487.83,-123.88"/>
</a>
</g>
</g>
<!-- Node16 -->
<g id="Node000016" class="node">
<title>Node16</title>
<g id="a_Node000016"><a xlink:title=" ">
<polygon fill="#e0e0e0" stroke="#999999" points="339.58,-70 286.58,-70 286.58,-53 339.58,-53 339.58,-70"/>
<text text-anchor="middle" x="313.08" y="-59.6" font-family="Helvetica,sans-Serif" font-size="8.00">type_traits</text>
</a>
</g>
</g>
<!-- Node14&#45;&gt;Node16 -->
<g id="edge18_Node000014_Node000016" class="edge">
<title>Node14&#45;&gt;Node16</title>
<g id="a_edge18_Node000014_Node000016"><a xlink:title=" ">
<path fill="none" stroke="#63b8ff" d="M553.02,-161.63C548.41,-160.71 543.6,-159.79 539.08,-159 485.31,-149.57 331.74,-164.33 296.08,-123 285.41,-110.64 293.03,-92.05 301.2,-78.74"/>
<polygon fill="#63b8ff" stroke="#63b8ff" points="304.3,-80.4 306.99,-70.15 298.49,-76.49 304.3,-80.4"/>
</a>
</g>
</g>
<!-- Node14&#45;&gt;Node17 -->
<g id="edge21_Node000014_Node000017" class="edge">
<title>Node14&#45;&gt;Node17</title>
<g id="a_edge21_Node000014_Node000017"><a xlink:title=" ">
<path fill="none" stroke="#63b8ff" d="M575.93,-158.97C575.8,-152.19 575.6,-141.97 575.42,-133.13"/>
<polygon fill="#63b8ff" stroke="#63b8ff" points="578.92,-132.99 575.23,-123.06 571.92,-133.12 578.92,-132.99"/>
</a>
</g>
</g>
<!-- Node14&#45;&gt;Node22 -->
<g id="edge34_Node000014_Node000022" class="edge">
<title>Node14&#45;&gt;Node22</title>
<g id="a_edge34_Node000014_Node000022"><a xlink:title=" ">
<path fill="none" stroke="#63b8ff" d="M586.01,-158.83C601.61,-146.93 632.96,-123.56 661.08,-106 679.18,-94.7 700.43,-83.22 716.48,-74.89"/>
<polygon fill="#63b8ff" stroke="#63b8ff" points="718.43,-77.83 725.73,-70.15 715.23,-71.6 718.43,-77.83"/>
</a>
</g>
</g>
<!-- Node25 -->
<g id="Node000025" class="node">
<title>Node25</title>
<g id="a_Node000025"><a xlink:href="../../d1/d2d/weighted__node_8hpp.html" target="_top" xlink:title=" ">
<polygon fill="white" stroke="#666666" points="416.58,-123 305.58,-123 305.58,-106 416.58,-106 416.58,-123"/>
<text text-anchor="middle" x="361.08" y="-112.6" font-family="Helvetica,sans-Serif" font-size="8.00">nodes/weighted_node.hpp</text>
</a>
</g>
</g>
<!-- Node14&#45;&gt;Node25 -->
<g id="edge31_Node000014_Node000025" class="edge">
<title>Node14&#45;&gt;Node25</title>
<g id="a_edge31_Node000014_Node000025"><a xlink:title=" ">
<path fill="none" stroke="#63b8ff" d="M553.07,-161.04C517.29,-152.56 447.78,-136.07 402.95,-125.43"/>
<polygon fill="#63b8ff" stroke="#63b8ff" points="403.48,-121.96 392.95,-123.06 401.87,-128.77 403.48,-121.96"/>
</a>
</g>
</g>
<!-- Node17&#45;&gt;Node2 -->
<g id="edge22_Node000017_Node000002" class="edge">
<title>Node17&#45;&gt;Node2</title>
<g id="a_edge22_Node000017_Node000002"><a xlink:title=" ">
<path fill="none" stroke="#63b8ff" d="M541.03,-109.09C485.58,-101.79 372.41,-86.36 277.08,-70 273.76,-69.43 270.3,-68.8 266.86,-68.15"/>
<polygon fill="#63b8ff" stroke="#63b8ff" points="267.31,-64.67 256.83,-66.19 265.98,-71.54 267.31,-64.67"/>
</a>
</g>
</g>
<!-- Node17&#45;&gt;Node4 -->
<g id="edge24_Node000017_Node000004" class="edge">
<title>Node17&#45;&gt;Node4</title>
<g id="a_edge24_Node000017_Node000004"><a xlink:title=" ">
<path fill="none" stroke="#63b8ff" d="M556.04,-105.91C531.44,-95.02 493.71,-73.96 511.08,-53 535.92,-23.01 652.47,-13.55 709.49,-10.68"/>
<polygon fill="#63b8ff" stroke="#63b8ff" points="709.91,-14.16 719.74,-10.2 709.59,-7.17 709.91,-14.16"/>
</a>
</g>
</g>
<!-- Node17&#45;&gt;Node16 -->
<g id="edge28_Node000017_Node000016" class="edge">
<title>Node17&#45;&gt;Node16</title>
<g id="a_edge28_Node000017_Node000016"><a xlink:title=" ">
<path fill="none" stroke="#63b8ff" d="M540.83,-106.83C491.38,-97.21 400.4,-79.5 349.68,-69.62"/>
<polygon fill="#63b8ff" stroke="#63b8ff" points="350.28,-66.18 339.8,-67.7 348.94,-73.05 350.28,-66.18"/>
</a>
</g>
</g>
<!-- Node18 -->
<g id="Node000018" class="node">
<title>Node18</title>
<g id="a_Node000018"><a xlink:title=" ">
<polygon fill="#e0e0e0" stroke="#999999" points="558.08,-70 520.08,-70 520.08,-53 558.08,-53 558.08,-70"/>
<text text-anchor="middle" x="539.08" y="-59.6" font-family="Helvetica,sans-Serif" font-size="8.00">cmath</text>
</a>
</g>
</g>
<!-- Node17&#45;&gt;Node18 -->
<g id="edge23_Node000017_Node000018" class="edge">
<title>Node17&#45;&gt;Node18</title>
<g id="a_edge23_Node000017_Node000018"><a xlink:title=" ">
<path fill="none" stroke="#63b8ff" d="M569.77,-105.97C564.66,-98.74 556.79,-87.59 550.29,-78.39"/>
<polygon fill="#63b8ff" stroke="#63b8ff" points="553.04,-76.21 544.41,-70.06 547.32,-80.24 553.04,-76.21"/>
</a>
</g>
</g>
<!-- Node19 -->
<g id="Node000019" class="node">
<title>Node19</title>
<g id="a_Node000019"><a xlink:title=" ">
<polygon fill="#e0e0e0" stroke="#999999" points="626.08,-70 576.08,-70 576.08,-53 626.08,-53 626.08,-70"/>
<text text-anchor="middle" x="601.08" y="-59.6" font-family="Helvetica,sans-Serif" font-size="8.00">functional</text>
</a>
</g>
</g>
<!-- Node17&#45;&gt;Node19 -->
<g id="edge25_Node000017_Node000019" class="edge">
<title>Node17&#45;&gt;Node19</title>
<g id="a_edge25_Node000017_Node000019"><a xlink:title=" ">
<path fill="none" stroke="#63b8ff" d="M578.91,-105.97C582.49,-98.97 587.94,-88.28 592.54,-79.25"/>
<polygon fill="#63b8ff" stroke="#63b8ff" points="595.8,-80.55 597.23,-70.06 589.57,-77.38 595.8,-80.55"/>
</a>
</g>
</g>
<!-- Node20 -->
<g id="Node000020" class="node">
<title>Node20</title>
<g id="a_Node000020"><a xlink:title=" ">
<polygon fill="#e0e0e0" stroke="#999999" points="415.08,-70 381.08,-70 381.08,-53 415.08,-53 415.08,-70"/>
<text text-anchor="middle" x="398.08" y="-59.6" font-family="Helvetica,sans-Serif" font-size="8.00">limits</text>
</a>
</g>
</g>
<!-- Node17&#45;&gt;Node20 -->
<g id="edge26_Node000017_Node000020" class="edge">
<title>Node17&#45;&gt;Node20</title>
<g id="a_edge26_Node000017_Node000020"><a xlink:title=" ">
<path fill="none" stroke="#63b8ff" d="M548.96,-105.97C515.67,-96.38 458.42,-79.89 424.83,-70.21"/>
<polygon fill="#63b8ff" stroke="#63b8ff" points="425.79,-66.84 415.22,-67.44 423.86,-73.57 425.79,-66.84"/>
</a>
</g>
</g>
<!-- Node21 -->
<g id="Node000021" class="node">
<title>Node21</title>
<g id="a_Node000021"><a xlink:title=" ">
<polygon fill="#e0e0e0" stroke="#999999" points="680.08,-70 644.08,-70 644.08,-53 680.08,-53 680.08,-70"/>
<text text-anchor="middle" x="662.08" y="-59.6" font-family="Helvetica,sans-Serif" font-size="8.00">string</text>
</a>
</g>
</g>
<!-- Node17&#45;&gt;Node21 -->
<g id="edge27_Node000017_Node000021" class="edge">
<title>Node17&#45;&gt;Node21</title>
<g id="a_edge27_Node000017_Node000021"><a xlink:title=" ">
<path fill="none" stroke="#63b8ff" d="M587.92,-105.97C601.67,-97.91 623.73,-84.98 640.23,-75.31"/>
<polygon fill="#63b8ff" stroke="#63b8ff" points="642.33,-78.13 649.19,-70.06 638.79,-72.09 642.33,-78.13"/>
</a>
</g>
</g>
<!-- Node17&#45;&gt;Node22 -->
<g id="edge29_Node000017_Node000022" class="edge">
<title>Node17&#45;&gt;Node22</title>
<g id="a_edge29_Node000017_Node000022"><a xlink:title=" ">
<path fill="none" stroke="#63b8ff" d="M599.57,-105.97C627.89,-97.27 674.7,-82.89 706.67,-73.07"/>
<polygon fill="#63b8ff" stroke="#63b8ff" points="707.95,-76.34 716.48,-70.06 705.9,-69.65 707.95,-76.34"/>
</a>
</g>
</g>
<!-- Node22&#45;&gt;Node4 -->
<g id="edge30_Node000022_Node000004" class="edge">
<title>Node22&#45;&gt;Node4</title>
<g id="a_edge30_Node000022_Node000004"><a xlink:title=" ">
<path fill="none" stroke="#63b8ff" d="M741.08,-52.97C741.08,-46.19 741.08,-35.97 741.08,-27.13"/>
<polygon fill="#63b8ff" stroke="#63b8ff" points="744.58,-27.06 741.08,-17.06 737.58,-27.06 744.58,-27.06"/>
</a>
</g>
</g>
<!-- Node25&#45;&gt;Node16 -->
<g id="edge33_Node000025_Node000016" class="edge">
<title>Node25&#45;&gt;Node16</title>
<g id="a_edge33_Node000025_Node000016"><a xlink:title=" ">
<path fill="none" stroke="#63b8ff" d="M354,-105.97C346.98,-98.52 336.03,-86.89 327.22,-77.53"/>
<polygon fill="#63b8ff" stroke="#63b8ff" points="329.59,-74.94 320.19,-70.06 324.49,-79.74 329.59,-74.94"/>
</a>
</g>
</g>
<!-- Node25&#45;&gt;Node20 -->
<g id="edge32_Node000025_Node000020" class="edge">
<title>Node25&#45;&gt;Node20</title>
<g id="a_edge32_Node000025_Node000020"><a xlink:title=" ">
<path fill="none" stroke="#63b8ff" d="M366.54,-105.97C371.78,-98.74 379.88,-87.59 386.55,-78.39"/>
<polygon fill="#63b8ff" stroke="#63b8ff" points="389.56,-80.21 392.6,-70.06 383.89,-76.1 389.56,-80.21"/>
</a>
</g>
</g>
<!-- Node26&#45;&gt;Node4 -->
<g id="edge36_Node000026_Node000004" class="edge">
<title>Node26&#45;&gt;Node4</title>
<g id="a_edge36_Node000026_Node000004"><a xlink:title=" ">
<path fill="none" stroke="#63b8ff" d="M797.92,-158.83C802.09,-139.78 810.58,-89.2 793.08,-53 786.99,-40.42 775.37,-30.15 764.65,-22.75"/>
<polygon fill="#63b8ff" stroke="#63b8ff" points="766.31,-19.66 756,-17.23 762.54,-25.56 766.31,-19.66"/>
</a>
</g>
</g>
<!-- Node26&#45;&gt;Node12 -->
<g id="edge38_Node000026_Node000012" class="edge">
<title>Node26&#45;&gt;Node12</title>
<g id="a_edge38_Node000026_Node000012"><a xlink:title=" ">
<path fill="none" stroke="#63b8ff" d="M785.16,-158.97C773.68,-151.07 755.39,-138.46 741.46,-128.86"/>
<polygon fill="#63b8ff" stroke="#63b8ff" points="743.26,-125.85 733.04,-123.06 739.29,-131.61 743.26,-125.85"/>
</a>
</g>
</g>
<!-- Node26&#45;&gt;Node13 -->
<g id="edge37_Node000026_Node000013" class="edge">
<title>Node26&#45;&gt;Node13</title>
<g id="a_edge37_Node000026_Node000013"><a xlink:title=" ">
<path fill="none" stroke="#63b8ff" d="M808.62,-158.97C822.05,-150.91 843.61,-137.98 859.73,-128.31"/>
<polygon fill="#63b8ff" stroke="#63b8ff" points="861.71,-131.2 868.48,-123.06 858.11,-125.2 861.71,-131.2"/>
</a>
</g>
</g>
<!-- Node26&#45;&gt;Node22 -->
<g id="edge39_Node000026_Node000022" class="edge">
<title>Node26&#45;&gt;Node22</title>
<g id="a_edge39_Node000026_Node000022"><a xlink:title=" ">
<path fill="none" stroke="#63b8ff" d="M791.94,-158.68C783.06,-141.89 761.99,-102.04 749.94,-79.25"/>
<polygon fill="#63b8ff" stroke="#63b8ff" points="752.88,-77.33 745.11,-70.12 746.69,-80.6 752.88,-77.33"/>
</a>
</g>
</g>
<!-- Node27&#45;&gt;Node16 -->
<g id="edge42_Node000027_Node000016" class="edge">
<title>Node27&#45;&gt;Node16</title>
<g id="a_edge42_Node000027_Node000016"><a xlink:title=" ">
<path fill="none" stroke="#63b8ff" d="M189.47,-105.97C213.89,-97.39 254.04,-83.27 281.93,-73.46"/>
<polygon fill="#63b8ff" stroke="#63b8ff" points="283.32,-76.68 291.59,-70.06 281,-70.07 283.32,-76.68"/>
</a>
</g>
</g>
</g>
</svg>
