<?xml version="1.0" encoding="UTF-8" standalone="no"?>
<!DOCTYPE svg PUBLIC "-//W3C//DTD SVG 1.1//EN"
 "http://www.w3.org/Graphics/SVG/1.1/DTD/svg11.dtd">
<!-- Generated by graphviz version 2.43.0 (0)
 -->
<!-- Title: graph.hpp Pages: 1 -->
<svg width="1115pt" height="237pt"
 viewBox="0.00 0.00 1115.36 237.00" xmlns="http://www.w3.org/2000/svg" xmlns:xlink="http://www.w3.org/1999/xlink">
<g id="graph0" class="graph" transform="scale(1 1) rotate(0) translate(4 233)">
<title>graph.hpp</title>
<!-- Node1 -->
<g id="Node000001" class="node">
<title>Node1</title>
<g id="a_Node000001"><a xlink:title=" ">
<polygon fill="#999999" stroke="#666666" points="525.36,-229 472.36,-229 472.36,-212 525.36,-212 525.36,-229"/>
<text text-anchor="middle" x="498.86" y="-218.6" font-family="Helvetica,sans-Serif" font-size="8.00">graph.hpp</text>
</a>
</g>
</g>
<!-- Node2 -->
<g id="Node000002" class="node">
<title>Node2</title>
<g id="a_Node000002"><a xlink:title=" ">
<polygon fill="#e0e0e0" stroke="#999999" points="592.86,-123 550.86,-123 550.86,-106 592.86,-106 592.86,-123"/>
<text text-anchor="middle" x="571.86" y="-112.6" font-family="Helvetica,sans-Serif" font-size="8.00">cassert</text>
</a>
</g>
</g>
<!-- Node1&#45;&gt;Node2 -->
<g id="edge1_Node000001_Node000002" class="edge">
<title>Node1&#45;&gt;Node2</title>
<g id="a_edge1_Node000001_Node000002"><a xlink:title=" ">
<path fill="none" stroke="#63b8ff" d="M525.64,-215.56C564.42,-209.25 633.19,-195.57 647.86,-176 664.06,-154.39 630.26,-136.15 602.67,-125.51"/>
<polygon fill="#63b8ff" stroke="#63b8ff" points="603.86,-122.22 593.27,-122.07 601.46,-128.79 603.86,-122.22"/>
</a>
</g>
</g>
<!-- Node3 -->
<g id="Node000003" class="node">
<title>Node3</title>
<g id="a_Node000003"><a xlink:title=" ">
<polygon fill="#e0e0e0" stroke="#999999" points="614.86,-17 572.86,-17 572.86,0 614.86,0 614.86,-17"/>
<text text-anchor="middle" x="593.86" y="-6.6" font-family="Helvetica,sans-Serif" font-size="8.00">cstddef</text>
</a>
</g>
</g>
<!-- Node1&#45;&gt;Node3 -->
<g id="edge2_Node000001_Node000003" class="edge">
<title>Node1&#45;&gt;Node3</title>
<g id="a_edge2_Node000001_Node000003"><a xlink:title=" ">
<path fill="none" stroke="#63b8ff" d="M472.1,-219.21C373.54,-217.89 34.76,-210.82 2.86,-176 -2.24,-170.43 1.63,-166.45 2.86,-159 6.91,-134.46 1.92,-122.12 20.86,-106 103.86,-35.36 454.97,-15.22 562.46,-10.65"/>
<polygon fill="#63b8ff" stroke="#63b8ff" points="562.8,-14.14 572.65,-10.24 562.52,-7.15 562.8,-14.14"/>
</a>
</g>
</g>
<!-- Node4 -->
<g id="Node000004" class="node">
<title>Node4</title>
<g id="a_Node000004"><a xlink:title=" ">
<polygon fill="#e0e0e0" stroke="#999999" points="185.86,-176 147.86,-176 147.86,-159 185.86,-159 185.86,-176"/>
<text text-anchor="middle" x="166.86" y="-165.6" font-family="Helvetica,sans-Serif" font-size="8.00">future</text>
</a>
</g>
</g>
<!-- Node1&#45;&gt;Node4 -->
<g id="edge3_Node000001_Node000004" class="edge">
<title>Node1&#45;&gt;Node4</title>
<g id="a_edge3_Node000001_Node000004"><a xlink:title=" ">
<path fill="none" stroke="#63b8ff" d="M472.24,-216.78C420.76,-211.27 303.82,-197.66 196.12,-176.02"/>
<polygon fill="#63b8ff" stroke="#63b8ff" points="196.57,-172.54 186.07,-173.97 195.17,-179.4 196.57,-172.54"/>
</a>
</g>
</g>
<!-- Node5 -->
<g id="Node000005" class="node">
<title>Node5</title>
<g id="a_Node000005"><a xlink:title=" ">
<polygon fill="#e0e0e0" stroke="#999999" points="263.86,-176 203.86,-176 203.86,-159 263.86,-159 263.86,-176"/>
<text text-anchor="middle" x="233.86" y="-165.6" font-family="Helvetica,sans-Serif" font-size="8.00">initializer_list</text>
</a>
</g>
</g>
<!-- Node1&#45;&gt;Node5 -->
<g id="edge4_Node000001_Node000005" class="edge">
<title>Node1&#45;&gt;Node5</title>
<g id="a_edge4_Node000001_Node000005"><a xlink:title=" ">
<path fill="none" stroke="#63b8ff" d="M471.99,-214.33C425.26,-205.34 328.8,-186.77 274.07,-176.24"/>
<polygon fill="#63b8ff" stroke="#63b8ff" points="274.52,-172.76 264.03,-174.31 273.19,-179.63 274.52,-172.76"/>
</a>
</g>
</g>
<!-- Node6 -->
<g id="Node000006" class="node">
<title>Node6</title>
<g id="a_Node000006"><a xlink:title=" ">
<polygon fill="#e0e0e0" stroke="#999999" points="329.36,-176 282.36,-176 282.36,-159 329.36,-159 329.36,-176"/>
<text text-anchor="middle" x="305.86" y="-165.6" font-family="Helvetica,sans-Serif" font-size="8.00">iostream</text>
</a>
</g>
</g>
<!-- Node1&#45;&gt;Node6 -->
<g id="edge5_Node000001_Node000006" class="edge">
<title>Node1&#45;&gt;Node6</title>
<g id="a_edge5_Node000001_Node000006"><a xlink:title=" ">
<path fill="none" stroke="#63b8ff" d="M472.02,-212.41C437.37,-203.25 377.06,-187.31 339.42,-177.37"/>
<polygon fill="#63b8ff" stroke="#63b8ff" points="340,-173.9 329.44,-174.73 338.21,-180.67 340,-173.9"/>
</a>
</g>
</g>
<!-- Node7 -->
<g id="Node000007" class="node">
<title>Node7</title>
<g id="a_Node000007"><a xlink:title=" ">
<polygon fill="#e0e0e0" stroke="#999999" points="385.86,-176 347.86,-176 347.86,-159 385.86,-159 385.86,-176"/>
<text text-anchor="middle" x="366.86" y="-165.6" font-family="Helvetica,sans-Serif" font-size="8.00">mutex</text>
</a>
</g>
</g>
<!-- Node1&#45;&gt;Node7 -->
<g id="edge6_Node000001_Node000007" class="edge">
<title>Node1&#45;&gt;Node7</title>
<g id="a_edge6_Node000001_Node000007"><a xlink:title=" ">
<path fill="none" stroke="#63b8ff" d="M479.38,-211.97C457.22,-203.41 420.83,-189.35 395.45,-179.55"/>
<polygon fill="#63b8ff" stroke="#63b8ff" points="396.58,-176.23 385.99,-175.89 394.05,-182.76 396.58,-176.23"/>
</a>
</g>
</g>
<!-- Node8 -->
<g id="Node000008" class="node">
<title>Node8</title>
<g id="a_Node000008"><a xlink:title=" ">
<polygon fill="#e0e0e0" stroke="#999999" points="443.86,-176 403.86,-176 403.86,-159 443.86,-159 443.86,-176"/>
<text text-anchor="middle" x="423.86" y="-165.6" font-family="Helvetica,sans-Serif" font-size="8.00">thread</text>
</a>
</g>
</g>
<!-- Node1&#45;&gt;Node8 -->
<g id="edge7_Node000001_Node000008" class="edge">
<title>Node1&#45;&gt;Node8</title>
<g id="a_edge7_Node000001_Node000008"><a xlink:title=" ">
<path fill="none" stroke="#63b8ff" d="M487.79,-211.97C476.16,-204.07 457.63,-191.46 443.5,-181.86"/>
<polygon fill="#63b8ff" stroke="#63b8ff" points="445.21,-178.78 434.97,-176.06 441.27,-184.57 445.21,-178.78"/>
</a>
</g>
</g>
<!-- Node9 -->
<g id="Node000009" class="node">
<title>Node9</title>
<g id="a_Node000009"><a xlink:title=" ">
<polygon fill="#e0e0e0" stroke="#999999" points="535.86,-176 461.86,-176 461.86,-159 535.86,-159 535.86,-176"/>
<text text-anchor="middle" x="498.86" y="-165.6" font-family="Helvetica,sans-Serif" font-size="8.00">unordered_map</text>
</a>
</g>
</g>
<!-- Node1&#45;&gt;Node9 -->
<g id="edge8_Node000001_Node000009" class="edge">
<title>Node1&#45;&gt;Node9</title>
<g id="a_edge8_Node000001_Node000009"><a xlink:title=" ">
<path fill="none" stroke="#63b8ff" d="M498.86,-211.97C498.86,-205.19 498.86,-194.97 498.86,-186.13"/>
<polygon fill="#63b8ff" stroke="#63b8ff" points="502.36,-186.06 498.86,-176.06 495.36,-186.06 502.36,-186.06"/>
</a>
</g>
</g>
<!-- Node10 -->
<g id="Node000010" class="node">
<title>Node10</title>
<g id="a_Node000010"><a xlink:title=" ">
<polygon fill="#e0e0e0" stroke="#999999" points="623.36,-176 554.36,-176 554.36,-159 623.36,-159 623.36,-176"/>
<text text-anchor="middle" x="588.86" y="-165.6" font-family="Helvetica,sans-Serif" font-size="8.00">unordered_set</text>
</a>
</g>
</g>
<!-- Node1&#45;&gt;Node10 -->
<g id="edge9_Node000001_Node000010" class="edge">
<title>Node1&#45;&gt;Node10</title>
<g id="a_edge9_Node000001_Node000010"><a xlink:title=" ">
<path fill="none" stroke="#63b8ff" d="M512.14,-211.97C526.5,-203.84 549.62,-190.74 566.73,-181.04"/>
<polygon fill="#63b8ff" stroke="#63b8ff" points="568.55,-184.03 575.53,-176.06 565.1,-177.94 568.55,-184.03"/>
</a>
</g>
</g>
<!-- Node11 -->
<g id="Node000011" class="node">
<title>Node11</title>
<g id="a_Node000011"><a xlink:title=" ">
<polygon fill="#e0e0e0" stroke="#999999" points="644.86,-123 610.86,-123 610.86,-106 644.86,-106 644.86,-123"/>
<text text-anchor="middle" x="627.86" y="-112.6" font-family="Helvetica,sans-Serif" font-size="8.00">utility</text>
</a>
</g>
</g>
<!-- Node1&#45;&gt;Node11 -->
<g id="edge10_Node000001_Node000011" class="edge">
<title>Node1&#45;&gt;Node11</title>
<g id="a_edge10_Node000001_Node000011"><a xlink:title=" ">
<path fill="none" stroke="#63b8ff" d="M525.51,-216.44C567.97,-210.96 647.93,-197.93 664.86,-176 676.37,-161.09 660.91,-142.4 646.6,-129.76"/>
<polygon fill="#63b8ff" stroke="#63b8ff" points="648.47,-126.76 638.53,-123.1 644.01,-132.16 648.47,-126.76"/>
</a>
</g>
</g>
<!-- Node12 -->
<g id="Node000012" class="node">
<title>Node12</title>
<g id="a_Node000012"><a xlink:title=" ">
<polygon fill="#e0e0e0" stroke="#999999" points="532.86,-123 494.86,-123 494.86,-106 532.86,-106 532.86,-123"/>
<text text-anchor="middle" x="513.86" y="-112.6" font-family="Helvetica,sans-Serif" font-size="8.00">vector</text>
</a>
</g>
</g>
<!-- Node1&#45;&gt;Node12 -->
<g id="edge11_Node000001_Node000012" class="edge">
<title>Node1&#45;&gt;Node12</title>
<g id="a_edge11_Node000001_Node000012"><a xlink:title=" ">
<path fill="none" stroke="#63b8ff" d="M525.6,-219.39C556.92,-217.65 607.62,-209.44 631.86,-176 636.29,-169.88 636.18,-165.2 631.86,-159 626.53,-151.35 575.77,-134.54 542.58,-124.2"/>
<polygon fill="#63b8ff" stroke="#63b8ff" points="543.5,-120.82 532.92,-121.22 541.44,-127.51 543.5,-120.82"/>
</a>
</g>
</g>
<!-- Node13 -->
<g id="Node000013" class="node">
<title>Node13</title>
<g id="a_Node000013"><a xlink:href="../../df/d47/stack_8hpp_source.html" target="_top" xlink:title=" ">
<polygon fill="white" stroke="#666666" points="129.36,-176 12.36,-176 12.36,-159 129.36,-159 129.36,-176"/>
<text text-anchor="middle" x="70.86" y="-165.6" font-family="Helvetica,sans-Serif" font-size="8.00">../types/containers/stack.hpp</text>
</a>
</g>
</g>
<!-- Node1&#45;&gt;Node13 -->
<g id="edge12_Node000001_Node000013" class="edge">
<title>Node1&#45;&gt;Node13</title>
<g id="a_edge12_Node000001_Node000013"><a xlink:title=" ">
<path fill="none" stroke="#63b8ff" d="M472.09,-216.31C406.42,-208.49 235.75,-188.15 139.49,-176.68"/>
<polygon fill="#63b8ff" stroke="#63b8ff" points="139.9,-173.2 129.56,-175.49 139.08,-180.15 139.9,-173.2"/>
</a>
</g>
</g>
<!-- Node17 -->
<g id="Node000017" class="node">
<title>Node17</title>
<g id="a_Node000017"><a xlink:href="../../df/d93/utils_8hpp.html" target="_top" xlink:title=" ">
<polygon fill="white" stroke="#666666" points="874.86,-123 806.86,-123 806.86,-106 874.86,-106 874.86,-123"/>
<text text-anchor="middle" x="840.86" y="-112.6" font-family="Helvetica,sans-Serif" font-size="8.00">../utils/utils.hpp</text>
</a>
</g>
</g>
<!-- Node1&#45;&gt;Node17 -->
<g id="edge19_Node000001_Node000017" class="edge">
<title>Node1&#45;&gt;Node17</title>
<g id="a_edge19_Node000001_Node000017"><a xlink:title=" ">
<path fill="none" stroke="#63b8ff" d="M525.66,-218.91C592.67,-216.95 765.38,-208.78 810.86,-176 824.97,-165.83 832.8,-147.13 836.89,-133.2"/>
<polygon fill="#63b8ff" stroke="#63b8ff" points="840.33,-133.87 839.42,-123.31 833.55,-132.13 840.33,-133.87"/>
</a>
</g>
</g>
<!-- Node23 -->
<g id="Node000023" class="node">
<title>Node23</title>
<g id="a_Node000023"><a xlink:href="../../dc/d8a/grid_8hpp.html" target="_top" xlink:title=" ">
<polygon fill="white" stroke="#666666" points="801.86,-176 755.86,-176 755.86,-159 801.86,-159 801.86,-176"/>
<text text-anchor="middle" x="778.86" y="-165.6" font-family="Helvetica,sans-Serif" font-size="8.00">grid.hpp</text>
</a>
</g>
</g>
<!-- Node1&#45;&gt;Node23 -->
<g id="edge27_Node000001_Node000023" class="edge">
<title>Node1&#45;&gt;Node23</title>
<g id="a_edge27_Node000001_Node000023"><a xlink:title=" ">
<path fill="none" stroke="#63b8ff" d="M525.5,-214.94C570.26,-207.22 663.35,-190.98 741.86,-176 743.13,-175.76 744.42,-175.51 745.72,-175.26"/>
<polygon fill="#63b8ff" stroke="#63b8ff" points="746.65,-178.64 755.78,-173.26 745.29,-171.77 746.65,-178.64"/>
</a>
</g>
</g>
<!-- Node26 -->
<g id="Node000026" class="node">
<title>Node26</title>
<g id="a_Node000026"><a xlink:href="../../d9/ddd/id__node_8hpp.html" target="_top" xlink:title=" ">
<polygon fill="white" stroke="#666666" points="1107.36,-123 1022.36,-123 1022.36,-106 1107.36,-106 1107.36,-123"/>
<text text-anchor="middle" x="1064.86" y="-112.6" font-family="Helvetica,sans-Serif" font-size="8.00">nodes/id_node.hpp</text>
</a>
</g>
</g>
<!-- Node1&#45;&gt;Node26 -->
<g id="edge38_Node000001_Node000026" class="edge">
<title>Node1&#45;&gt;Node26</title>
<g id="a_edge38_Node000001_Node000026"><a xlink:title=" ">
<path fill="none" stroke="#63b8ff" d="M525.45,-217.18C582.26,-211.98 719.5,-198.07 832.86,-176 903.74,-162.2 985.1,-139.32 1030.18,-126"/>
<polygon fill="#63b8ff" stroke="#63b8ff" points="1031.45,-129.28 1040.03,-123.07 1029.45,-122.57 1031.45,-129.28"/>
</a>
</g>
</g>
<!-- Node13&#45;&gt;Node3 -->
<g id="edge13_Node000013_Node000003" class="edge">
<title>Node13&#45;&gt;Node3</title>
<g id="a_edge13_Node000013_Node000003"><a xlink:title=" ">
<path fill="none" stroke="#63b8ff" d="M96.09,-158.93C182.72,-132.92 467.98,-47.29 562.86,-18.81"/>
<polygon fill="#63b8ff" stroke="#63b8ff" points="564.14,-22.08 572.71,-15.85 562.12,-15.37 564.14,-22.08"/>
</a>
</g>
</g>
<!-- Node13&#45;&gt;Node12 -->
<g id="edge15_Node000013_Node000012" class="edge">
<title>Node13&#45;&gt;Node12</title>
<g id="a_edge15_Node000013_Node000012"><a xlink:title=" ">
<path fill="none" stroke="#63b8ff" d="M129.69,-159.73C225.73,-148.67 412.7,-127.15 484.66,-118.86"/>
<polygon fill="#63b8ff" stroke="#63b8ff" points="485.27,-122.31 494.81,-117.69 484.47,-115.36 485.27,-122.31"/>
</a>
</g>
</g>
<!-- Node14 -->
<g id="Node000014" class="node">
<title>Node14</title>
<g id="a_Node000014"><a xlink:title=" ">
<polygon fill="#e0e0e0" stroke="#999999" points="111.86,-123 29.86,-123 29.86,-106 111.86,-106 111.86,-123"/>
<text text-anchor="middle" x="70.86" y="-112.6" font-family="Helvetica,sans-Serif" font-size="8.00">memory_resource</text>
</a>
</g>
</g>
<!-- Node13&#45;&gt;Node14 -->
<g id="edge14_Node000013_Node000014" class="edge">
<title>Node13&#45;&gt;Node14</title>
<g id="a_edge14_Node000013_Node000014"><a xlink:title=" ">
<path fill="none" stroke="#63b8ff" d="M70.86,-158.97C70.86,-152.19 70.86,-141.97 70.86,-133.13"/>
<polygon fill="#63b8ff" stroke="#63b8ff" points="74.36,-133.06 70.86,-123.06 67.36,-133.06 74.36,-133.06"/>
</a>
</g>
</g>
<!-- Node15 -->
<g id="Node000015" class="node">
<title>Node15</title>
<g id="a_Node000015"><a xlink:href="../../d7/d65/intrinsics_8hpp.html" target="_top" xlink:title=" ">
<polygon fill="white" stroke="#666666" points="727.36,-70 622.36,-70 622.36,-53 727.36,-53 727.36,-70"/>
<text text-anchor="middle" x="674.86" y="-59.6" font-family="Helvetica,sans-Serif" font-size="8.00">include/utils/intrinsics.hpp</text>
</a>
</g>
</g>
<!-- Node13&#45;&gt;Node15 -->
<g id="edge16_Node000013_Node000015" class="edge">
<title>Node13&#45;&gt;Node15</title>
<g id="a_edge16_Node000013_Node000015"><a xlink:title=" ">
<path fill="none" stroke="#63b8ff" d="M114.78,-158.94C223.2,-140.27 503.24,-92.05 621.21,-71.74"/>
<polygon fill="#63b8ff" stroke="#63b8ff" points="621.84,-75.18 631.1,-70.03 620.65,-68.28 621.84,-75.18"/>
</a>
</g>
</g>
<!-- Node15&#45;&gt;Node3 -->
<g id="edge17_Node000015_Node000003" class="edge">
<title>Node15&#45;&gt;Node3</title>
<g id="a_edge17_Node000015_Node000003"><a xlink:title=" ">
<path fill="none" stroke="#63b8ff" d="M662.91,-52.97C650.23,-44.99 629.94,-32.22 614.64,-22.58"/>
<polygon fill="#63b8ff" stroke="#63b8ff" points="616.19,-19.42 605.86,-17.06 612.46,-25.35 616.19,-19.42"/>
</a>
</g>
</g>
<!-- Node16 -->
<g id="Node000016" class="node">
<title>Node16</title>
<g id="a_Node000016"><a xlink:title=" ">
<polygon fill="#e0e0e0" stroke="#999999" points="693.86,-17 655.86,-17 655.86,0 693.86,0 693.86,-17"/>
<text text-anchor="middle" x="674.86" y="-6.6" font-family="Helvetica,sans-Serif" font-size="8.00">cstdlib</text>
</a>
</g>
</g>
<!-- Node15&#45;&gt;Node16 -->
<g id="edge18_Node000015_Node000016" class="edge">
<title>Node15&#45;&gt;Node16</title>
<g id="a_edge18_Node000015_Node000016"><a xlink:title=" ">
<path fill="none" stroke="#63b8ff" d="M674.86,-52.97C674.86,-46.19 674.86,-35.97 674.86,-27.13"/>
<polygon fill="#63b8ff" stroke="#63b8ff" points="678.36,-27.06 674.86,-17.06 671.36,-27.06 678.36,-27.06"/>
</a>
</g>
</g>
<!-- Node17&#45;&gt;Node3 -->
<g id="edge22_Node000017_Node000003" class="edge">
<title>Node17&#45;&gt;Node3</title>
<g id="a_edge22_Node000017_Node000003"><a xlink:title=" ">
<path fill="none" stroke="#63b8ff" d="M836.53,-105.8C828.77,-92.74 811.19,-66.39 788.86,-53 761.55,-36.62 673.1,-21.36 625.26,-14.04"/>
<polygon fill="#63b8ff" stroke="#63b8ff" points="625.56,-10.54 615.15,-12.52 624.52,-17.47 625.56,-10.54"/>
</a>
</g>
</g>
<!-- Node17&#45;&gt;Node15 -->
<g id="edge26_Node000017_Node000015" class="edge">
<title>Node17&#45;&gt;Node15</title>
<g id="a_edge26_Node000017_Node000015"><a xlink:title=" ">
<path fill="none" stroke="#63b8ff" d="M816.37,-105.97C788.05,-97.27 741.24,-82.89 709.27,-73.07"/>
<polygon fill="#63b8ff" stroke="#63b8ff" points="710.04,-69.65 699.45,-70.06 707.99,-76.34 710.04,-69.65"/>
</a>
</g>
</g>
<!-- Node18 -->
<g id="Node000018" class="node">
<title>Node18</title>
<g id="a_Node000018"><a xlink:title=" ">
<polygon fill="#e0e0e0" stroke="#999999" points="780.36,-70 745.36,-70 745.36,-53 780.36,-53 780.36,-70"/>
<text text-anchor="middle" x="762.86" y="-59.6" font-family="Helvetica,sans-Serif" font-size="8.00">array</text>
</a>
</g>
</g>
<!-- Node17&#45;&gt;Node18 -->
<g id="edge20_Node000017_Node000018" class="edge">
<title>Node17&#45;&gt;Node18</title>
<g id="a_edge20_Node000017_Node000018"><a xlink:title=" ">
<path fill="none" stroke="#63b8ff" d="M829.35,-105.97C817.14,-97.99 797.61,-85.22 782.87,-75.58"/>
<polygon fill="#63b8ff" stroke="#63b8ff" points="784.7,-72.6 774.42,-70.06 780.87,-78.46 784.7,-72.6"/>
</a>
</g>
</g>
<!-- Node19 -->
<g id="Node000019" class="node">
<title>Node19</title>
<g id="a_Node000019"><a xlink:title=" ">
<polygon fill="#e0e0e0" stroke="#999999" points="874.86,-70 836.86,-70 836.86,-53 874.86,-53 874.86,-70"/>
<text text-anchor="middle" x="855.86" y="-59.6" font-family="Helvetica,sans-Serif" font-size="8.00">cmath</text>
</a>
</g>
</g>
<!-- Node17&#45;&gt;Node19 -->
<g id="edge21_Node000017_Node000019" class="edge">
<title>Node17&#45;&gt;Node19</title>
<g id="a_edge21_Node000017_Node000019"><a xlink:title=" ">
<path fill="none" stroke="#63b8ff" d="M843.07,-105.97C845.09,-99.12 848.14,-88.74 850.76,-79.84"/>
<polygon fill="#63b8ff" stroke="#63b8ff" points="854.17,-80.64 853.64,-70.06 847.46,-78.66 854.17,-80.64"/>
</a>
</g>
</g>
<!-- Node20 -->
<g id="Node000020" class="node">
<title>Node20</title>
<g id="a_Node000020"><a xlink:title=" ">
<polygon fill="#e0e0e0" stroke="#999999" points="980.86,-70 946.86,-70 946.86,-53 980.86,-53 980.86,-70"/>
<text text-anchor="middle" x="963.86" y="-59.6" font-family="Helvetica,sans-Serif" font-size="8.00">limits</text>
</a>
</g>
</g>
<!-- Node17&#45;&gt;Node20 -->
<g id="edge23_Node000017_Node000020" class="edge">
<title>Node17&#45;&gt;Node20</title>
<g id="a_edge23_Node000017_Node000020"><a xlink:title=" ">
<path fill="none" stroke="#63b8ff" d="M859.01,-105.97C879.71,-97.39 913.74,-83.28 937.39,-73.47"/>
<polygon fill="#63b8ff" stroke="#63b8ff" points="938.93,-76.63 946.83,-69.56 936.25,-70.16 938.93,-76.63"/>
</a>
</g>
</g>
<!-- Node21 -->
<g id="Node000021" class="node">
<title>Node21</title>
<g id="a_Node000021"><a xlink:title=" ">
<polygon fill="#e0e0e0" stroke="#999999" points="928.86,-70 892.86,-70 892.86,-53 928.86,-53 928.86,-70"/>
<text text-anchor="middle" x="910.86" y="-59.6" font-family="Helvetica,sans-Serif" font-size="8.00">string</text>
</a>
</g>
</g>
<!-- Node17&#45;&gt;Node21 -->
<g id="edge24_Node000017_Node000021" class="edge">
<title>Node17&#45;&gt;Node21</title>
<g id="a_edge24_Node000017_Node000021"><a xlink:title=" ">
<path fill="none" stroke="#63b8ff" d="M851.19,-105.97C861.94,-98.14 879.02,-85.7 892.15,-76.13"/>
<polygon fill="#63b8ff" stroke="#63b8ff" points="894.47,-78.77 900.49,-70.06 890.35,-73.12 894.47,-78.77"/>
</a>
</g>
</g>
<!-- Node22 -->
<g id="Node000022" class="node">
<title>Node22</title>
<g id="a_Node000022"><a xlink:title=" ">
<polygon fill="#e0e0e0" stroke="#999999" points="1052.36,-70 999.36,-70 999.36,-53 1052.36,-53 1052.36,-70"/>
<text text-anchor="middle" x="1025.86" y="-59.6" font-family="Helvetica,sans-Serif" font-size="8.00">type_traits</text>
</a>
</g>
</g>
<!-- Node17&#45;&gt;Node22 -->
<g id="edge25_Node000017_Node000022" class="edge">
<title>Node17&#45;&gt;Node22</title>
<g id="a_edge25_Node000017_Node000022"><a xlink:title=" ">
<path fill="none" stroke="#63b8ff" d="M868.16,-105.97C900.27,-97.12 953.7,-82.39 989.35,-72.56"/>
<polygon fill="#63b8ff" stroke="#63b8ff" points="990.64,-75.84 999.35,-69.81 988.78,-69.09 990.64,-75.84"/>
</a>
</g>
</g>
<!-- Node23&#45;&gt;Node2 -->
<g id="edge30_Node000023_Node000002" class="edge">
<title>Node23&#45;&gt;Node2</title>
<g id="a_edge30_Node000023_Node000002"><a xlink:title=" ">
<path fill="none" stroke="#63b8ff" d="M755.66,-160.83C723.55,-152.97 663.5,-138.26 602.89,-123.25"/>
<polygon fill="#63b8ff" stroke="#63b8ff" points="603.71,-119.85 593.16,-120.84 602.03,-126.64 603.71,-119.85"/>
</a>
</g>
</g>
<!-- Node23&#45;&gt;Node3 -->
<g id="edge31_Node000023_Node000003" class="edge">
<title>Node23&#45;&gt;Node3</title>
<g id="a_edge31_Node000023_Node000003"><a xlink:title=" ">
<path fill="none" stroke="#63b8ff" d="M762.23,-158.9C724.27,-141.24 632.97,-96.9 612.86,-70 603.48,-57.45 598.65,-40.16 596.22,-27.27"/>
<polygon fill="#63b8ff" stroke="#63b8ff" points="599.67,-26.64 594.64,-17.32 592.75,-27.74 599.67,-26.64"/>
</a>
</g>
</g>
<!-- Node23&#45;&gt;Node11 -->
<g id="edge32_Node000023_Node000011" class="edge">
<title>Node23&#45;&gt;Node11</title>
<g id="a_edge32_Node000023_Node000011"><a xlink:title=" ">
<path fill="none" stroke="#63b8ff" d="M756.58,-158.97C729.43,-149.8 683.59,-134.32 654.57,-124.52"/>
<polygon fill="#63b8ff" stroke="#63b8ff" points="655.66,-121.2 645.07,-121.31 653.42,-127.83 655.66,-121.2"/>
</a>
</g>
</g>
<!-- Node23&#45;&gt;Node12 -->
<g id="edge33_Node000023_Node000012" class="edge">
<title>Node23&#45;&gt;Node12</title>
<g id="a_edge33_Node000023_Node000012"><a xlink:title=" ">
<path fill="none" stroke="#63b8ff" d="M755.86,-162.91C714.99,-156.39 626.86,-141.74 543.02,-123.1"/>
<polygon fill="#63b8ff" stroke="#63b8ff" points="543.61,-119.65 533.09,-120.87 542.08,-126.48 543.61,-119.65"/>
</a>
</g>
</g>
<!-- Node23&#45;&gt;Node17 -->
<g id="edge34_Node000023_Node000017" class="edge">
<title>Node23&#45;&gt;Node17</title>
<g id="a_edge34_Node000023_Node000017"><a xlink:title=" ">
<path fill="none" stroke="#63b8ff" d="M788.01,-158.97C797.35,-151.29 812.08,-139.18 823.61,-129.69"/>
<polygon fill="#63b8ff" stroke="#63b8ff" points="826.17,-132.11 831.67,-123.06 821.73,-126.71 826.17,-132.11"/>
</a>
</g>
</g>
<!-- Node23&#45;&gt;Node18 -->
<g id="edge29_Node000023_Node000018" class="edge">
<title>Node23&#45;&gt;Node18</title>
<g id="a_edge29_Node000023_Node000018"><a xlink:title=" ">
<path fill="none" stroke="#63b8ff" d="M777.66,-158.68C775.11,-142.11 769.11,-103.11 765.58,-80.18"/>
<polygon fill="#63b8ff" stroke="#63b8ff" points="769.01,-79.48 764.03,-70.12 762.09,-80.54 769.01,-79.48"/>
</a>
</g>
</g>
<!-- Node24 -->
<g id="Node000024" class="node">
<title>Node24</title>
<g id="a_Node000024"><a xlink:title=" ">
<polygon fill="#e0e0e0" stroke="#999999" points="750.86,-123 700.86,-123 700.86,-106 750.86,-106 750.86,-123"/>
<text text-anchor="middle" x="725.86" y="-112.6" font-family="Helvetica,sans-Serif" font-size="8.00">algorithm</text>
</a>
</g>
</g>
<!-- Node23&#45;&gt;Node24 -->
<g id="edge28_Node000023_Node000024" class="edge">
<title>Node23&#45;&gt;Node24</title>
<g id="a_edge28_Node000023_Node000024"><a xlink:title=" ">
<path fill="none" stroke="#63b8ff" d="M771.04,-158.97C763.21,-151.44 750.96,-139.65 741.19,-130.25"/>
<polygon fill="#63b8ff" stroke="#63b8ff" points="743.34,-127.47 733.71,-123.06 738.49,-132.51 743.34,-127.47"/>
</a>
</g>
</g>
<!-- Node25 -->
<g id="Node000025" class="node">
<title>Node25</title>
<g id="a_Node000025"><a xlink:href="../../d1/d2d/weighted__node_8hpp.html" target="_top" xlink:title=" ">
<polygon fill="white" stroke="#666666" points="1004.36,-123 893.36,-123 893.36,-106 1004.36,-106 1004.36,-123"/>
<text text-anchor="middle" x="948.86" y="-112.6" font-family="Helvetica,sans-Serif" font-size="8.00">nodes/weighted_node.hpp</text>
</a>
</g>
</g>
<!-- Node23&#45;&gt;Node25 -->
<g id="edge35_Node000023_Node000025" class="edge">
<title>Node23&#45;&gt;Node25</title>
<g id="a_edge35_Node000023_Node000025"><a xlink:title=" ">
<path fill="none" stroke="#63b8ff" d="M802.14,-159.52C830.98,-150.86 880.4,-136.04 913.83,-126.01"/>
<polygon fill="#63b8ff" stroke="#63b8ff" points="915.08,-129.29 923.65,-123.06 913.06,-122.58 915.08,-129.29"/>
</a>
</g>
</g>
<!-- Node25&#45;&gt;Node20 -->
<g id="edge36_Node000025_Node000020" class="edge">
<title>Node25&#45;&gt;Node20</title>
<g id="a_edge36_Node000025_Node000020"><a xlink:title=" ">
<path fill="none" stroke="#63b8ff" d="M951.07,-105.97C953.09,-99.12 956.14,-88.74 958.76,-79.84"/>
<polygon fill="#63b8ff" stroke="#63b8ff" points="962.17,-80.64 961.64,-70.06 955.46,-78.66 962.17,-80.64"/>
</a>
</g>
</g>
<!-- Node25&#45;&gt;Node22 -->
<g id="edge37_Node000025_Node000022" class="edge">
<title>Node25&#45;&gt;Node22</title>
<g id="a_edge37_Node000025_Node000022"><a xlink:title=" ">
<path fill="none" stroke="#63b8ff" d="M960.22,-105.97C972.28,-97.99 991.56,-85.22 1006.11,-75.58"/>
<polygon fill="#63b8ff" stroke="#63b8ff" points="1008.05,-78.5 1014.45,-70.06 1004.18,-72.66 1008.05,-78.5"/>
</a>
</g>
</g>
<!-- Node26&#45;&gt;Node22 -->
<g id="edge39_Node000026_Node000022" class="edge">
<title>Node26&#45;&gt;Node22</title>
<g id="a_edge39_Node000026_Node000022"><a xlink:title=" ">
<path fill="none" stroke="#63b8ff" d="M1059.11,-105.97C1053.52,-98.67 1044.87,-87.35 1037.79,-78.1"/>
<polygon fill="#63b8ff" stroke="#63b8ff" points="1040.49,-75.87 1031.64,-70.06 1034.93,-80.13 1040.49,-75.87"/>
</a>
</g>
</g>
</g>
</svg>
