<?xml version="1.0" encoding="UTF-8" standalone="no"?>
<!DOCTYPE svg PUBLIC "-//W3C//DTD SVG 1.1//EN"
 "http://www.w3.org/Graphics/SVG/1.1/DTD/svg11.dtd">
<!-- Generated by graphviz version 2.43.0 (0)
 -->
<!-- Title: mutable_node.hpp Pages: 1 -->
<svg width="119pt" height="131pt"
 viewBox="0.00 0.00 119.00 131.00" xmlns="http://www.w3.org/2000/svg" xmlns:xlink="http://www.w3.org/1999/xlink">
<g id="graph0" class="graph" transform="scale(1 1) rotate(0) translate(4 127)">
<title>mutable_node.hpp</title>
<!-- Node1 -->
<g id="Node000001" class="node">
<title>Node1</title>
<g id="a_Node000001"><a xlink:title=" ">
<polygon fill="#999999" stroke="#666666" points="93,-123 0,-123 0,-106 93,-106 93,-123"/>
<text text-anchor="middle" x="46.5" y="-112.6" font-family="Helvetica,sans-Serif" font-size="8.00">mutable_node.hpp</text>
</a>
</g>
</g>
<!-- Node2 -->
<g id="Node000002" class="node">
<title>Node2</title>
<g id="a_Node000002"><a xlink:href="../../d9/d96/chdr_8hpp.html" target="_top" xlink:title=" ">
<polygon fill="white" stroke="#666666" points="72.5,-17 20.5,-17 20.5,0 72.5,0 72.5,-17"/>
<text text-anchor="middle" x="46.5" y="-6.6" font-family="Helvetica,sans-Serif" font-size="8.00">chdr.hpp</text>
</a>
</g>
</g>
<!-- Node1&#45;&gt;Node2 -->
<g id="edge1_Node000001_Node000002" class="edge">
<title>Node1&#45;&gt;Node2</title>
<g id="a_edge1_Node000001_Node000002"><a xlink:title=" ">
<path fill="none" stroke="#63b8ff" d="M40.63,-96.39C38.21,-88.47 35.7,-78.86 34.5,-70 31.91,-50.9 38.9,-28.75 43.27,-17.28"/>
<polygon fill="#63b8ff" stroke="#63b8ff" points="37.32,-97.51 43.74,-105.93 43.97,-95.34 37.32,-97.51"/>
</a>
</g>
</g>
<!-- Node3 -->
<g id="Node000003" class="node">
<title>Node3</title>
<g id="a_Node000003"><a xlink:href="../../dd/d57/smastar_8hpp.html" target="_top" xlink:title=" ">
<polygon fill="white" stroke="#666666" points="111,-70 44,-70 44,-53 111,-53 111,-70"/>
<text text-anchor="middle" x="77.5" y="-59.6" font-family="Helvetica,sans-Serif" font-size="8.00">smastar.hpp</text>
</a>
</g>
</g>
<!-- Node1&#45;&gt;Node3 -->
<g id="edge2_Node000001_Node000003" class="edge">
<title>Node1&#45;&gt;Node3</title>
<g id="a_edge2_Node000001_Node000003"><a xlink:title=" ">
<path fill="none" stroke="#63b8ff" d="M56.31,-97.36C61.86,-88.23 68.55,-77.22 72.91,-70.06"/>
<polygon fill="#63b8ff" stroke="#63b8ff" points="53.28,-95.61 51.07,-105.97 59.26,-99.25 53.28,-95.61"/>
</a>
</g>
</g>
<!-- Node3&#45;&gt;Node2 -->
<g id="edge3_Node000003_Node000002" class="edge">
<title>Node3&#45;&gt;Node2</title>
<g id="a_edge3_Node000003_Node000002"><a xlink:title=" ">
<path fill="none" stroke="#63b8ff" d="M67.69,-44.36C62.14,-35.23 55.45,-24.22 51.09,-17.06"/>
<polygon fill="#63b8ff" stroke="#63b8ff" points="64.74,-46.25 72.93,-52.97 70.72,-42.61 64.74,-46.25"/>
</a>
</g>
</g>
</g>
</svg>
