<?xml version="1.0" encoding="UTF-8" standalone="no"?>
<!DOCTYPE svg PUBLIC "-//W3C//DTD SVG 1.1//EN"
 "http://www.w3.org/Graphics/SVG/1.1/DTD/svg11.dtd">
<!-- Generated by graphviz version 2.43.0 (0)
 -->
<!-- Title: queue.hpp Pages: 1 -->
<svg width="239pt" height="131pt"
 viewBox="0.00 0.00 239.00 131.00" xmlns="http://www.w3.org/2000/svg" xmlns:xlink="http://www.w3.org/1999/xlink">
<g id="graph0" class="graph" transform="scale(1 1) rotate(0) translate(4 127)">
<title>queue.hpp</title>
<!-- Node1 -->
<g id="Node000001" class="node">
<title>Node1</title>
<g id="a_Node000001"><a xlink:title=" ">
<polygon fill="#999999" stroke="#666666" points="134,-123 73,-123 73,-106 134,-106 134,-123"/>
<text text-anchor="middle" x="103.5" y="-112.6" font-family="Helvetica,sans-Serif" font-size="8.00">queue.hpp</text>
</a>
</g>
</g>
<!-- Node2 -->
<g id="Node000002" class="node">
<title>Node2</title>
<g id="a_Node000002"><a xlink:href="../../da/d36/bfs_8hpp.html" target="_top" xlink:title=" ">
<polygon fill="white" stroke="#666666" points="47,-70 0,-70 0,-53 47,-53 47,-70"/>
<text text-anchor="middle" x="23.5" y="-59.6" font-family="Helvetica,sans-Serif" font-size="8.00">bfs.hpp</text>
</a>
</g>
</g>
<!-- Node1&#45;&gt;Node2 -->
<g id="edge1_Node000001_Node000002" class="edge">
<title>Node1&#45;&gt;Node2</title>
<g id="a_edge1_Node000001_Node000002"><a xlink:title=" ">
<path fill="none" stroke="#63b8ff" d="M83.04,-100.46C67.93,-90.83 47.9,-78.05 35.35,-70.06"/>
<polygon fill="#63b8ff" stroke="#63b8ff" points="81.38,-103.55 91.7,-105.97 85.14,-97.65 81.38,-103.55"/>
</a>
</g>
</g>
<!-- Node3 -->
<g id="Node000003" class="node">
<title>Node3</title>
<g id="a_Node000003"><a xlink:href="../../d9/d96/chdr_8hpp.html" target="_top" xlink:title=" ">
<polygon fill="white" stroke="#666666" points="129.5,-17 77.5,-17 77.5,0 129.5,0 129.5,-17"/>
<text text-anchor="middle" x="103.5" y="-6.6" font-family="Helvetica,sans-Serif" font-size="8.00">chdr.hpp</text>
</a>
</g>
</g>
<!-- Node1&#45;&gt;Node3 -->
<g id="edge3_Node000001_Node000003" class="edge">
<title>Node1&#45;&gt;Node3</title>
<g id="a_edge3_Node000001_Node000003"><a xlink:title=" ">
<path fill="none" stroke="#63b8ff" d="M99.04,-96.02C97.24,-88.13 95.39,-78.66 94.5,-70 92.55,-50.99 97.79,-28.8 101.08,-17.3"/>
<polygon fill="#63b8ff" stroke="#63b8ff" points="95.67,-96.98 101.43,-105.87 102.47,-95.33 95.67,-96.98"/>
</a>
</g>
</g>
<!-- Node4 -->
<g id="Node000004" class="node">
<title>Node4</title>
<g id="a_Node000004"><a xlink:href="../../d8/d12/flood_8hpp.html" target="_top" xlink:title=" ">
<polygon fill="white" stroke="#666666" points="159.5,-70 103.5,-70 103.5,-53 159.5,-53 159.5,-70"/>
<text text-anchor="middle" x="131.5" y="-59.6" font-family="Helvetica,sans-Serif" font-size="8.00">flood.hpp</text>
</a>
</g>
</g>
<!-- Node1&#45;&gt;Node4 -->
<g id="edge4_Node000001_Node000004" class="edge">
<title>Node1&#45;&gt;Node4</title>
<g id="a_edge4_Node000001_Node000004"><a xlink:title=" ">
<path fill="none" stroke="#63b8ff" d="M112.52,-97.08C117.5,-87.99 123.46,-77.15 127.35,-70.06"/>
<polygon fill="#63b8ff" stroke="#63b8ff" points="109.38,-95.52 107.63,-105.97 115.51,-98.89 109.38,-95.52"/>
</a>
</g>
</g>
<!-- Node5 -->
<g id="Node000005" class="node">
<title>Node5</title>
<g id="a_Node000005"><a xlink:href="../../de/d94/gbfs_8hpp.html" target="_top" xlink:title=" ">
<polygon fill="white" stroke="#666666" points="231,-70 178,-70 178,-53 231,-53 231,-70"/>
<text text-anchor="middle" x="204.5" y="-59.6" font-family="Helvetica,sans-Serif" font-size="8.00">gbfs.hpp</text>
</a>
</g>
</g>
<!-- Node1&#45;&gt;Node5 -->
<g id="edge6_Node000001_Node000005" class="edge">
<title>Node1&#45;&gt;Node5</title>
<g id="a_edge6_Node000001_Node000005"><a xlink:title=" ">
<path fill="none" stroke="#63b8ff" d="M127.47,-101.4C146.72,-91.67 173.17,-78.32 189.54,-70.06"/>
<polygon fill="#63b8ff" stroke="#63b8ff" points="125.75,-98.34 118.4,-105.97 128.91,-104.59 125.75,-98.34"/>
</a>
</g>
</g>
<!-- Node2&#45;&gt;Node3 -->
<g id="edge2_Node000002_Node000003" class="edge">
<title>Node2&#45;&gt;Node3</title>
<g id="a_edge2_Node000002_Node000003"><a xlink:title=" ">
<path fill="none" stroke="#63b8ff" d="M43.96,-47.46C59.07,-37.83 79.1,-25.05 91.65,-17.06"/>
<polygon fill="#63b8ff" stroke="#63b8ff" points="41.86,-44.65 35.3,-52.97 45.62,-50.55 41.86,-44.65"/>
</a>
</g>
</g>
<!-- Node4&#45;&gt;Node3 -->
<g id="edge5_Node000004_Node000003" class="edge">
<title>Node4&#45;&gt;Node3</title>
<g id="a_edge5_Node000004_Node000003"><a xlink:title=" ">
<path fill="none" stroke="#63b8ff" d="M122.48,-44.08C117.5,-34.99 111.54,-24.15 107.65,-17.06"/>
<polygon fill="#63b8ff" stroke="#63b8ff" points="119.49,-45.89 127.37,-52.97 125.62,-42.52 119.49,-45.89"/>
</a>
</g>
</g>
<!-- Node5&#45;&gt;Node3 -->
<g id="edge7_Node000005_Node000003" class="edge">
<title>Node5&#45;&gt;Node3</title>
<g id="a_edge7_Node000005_Node000003"><a xlink:title=" ">
<path fill="none" stroke="#63b8ff" d="M180.53,-48.4C161.28,-38.67 134.83,-25.32 118.46,-17.06"/>
<polygon fill="#63b8ff" stroke="#63b8ff" points="179.09,-51.59 189.6,-52.97 182.25,-45.34 179.09,-51.59"/>
</a>
</g>
</g>
</g>
</svg>
