<?xml version="1.0" encoding="UTF-8" standalone="no"?>
<!DOCTYPE svg PUBLIC "-//W3C//DTD SVG 1.1//EN"
 "http://www.w3.org/Graphics/SVG/1.1/DTD/svg11.dtd">
<!-- Generated by graphviz version 2.43.0 (0)
 -->
<!-- Title: queue.hpp Pages: 1 -->
<svg width="223pt" height="131pt"
 viewBox="0.00 0.00 223.00 131.00" xmlns="http://www.w3.org/2000/svg" xmlns:xlink="http://www.w3.org/1999/xlink">
<g id="graph0" class="graph" transform="scale(1 1) rotate(0) translate(4 127)">
<title>queue.hpp</title>
<!-- Node1 -->
<g id="Node000001" class="node">
<title>Node1</title>
<g id="a_Node000001"><a xlink:title=" ">
<polygon fill="#999999" stroke="#666666" points="125,-123 70,-123 70,-106 125,-106 125,-123"/>
<text text-anchor="middle" x="97.5" y="-112.6" font-family="Helvetica,sans-Serif" font-size="8.00">queue.hpp</text>
</a>
</g>
</g>
<!-- Node2 -->
<g id="Node000002" class="node">
<title>Node2</title>
<g id="a_Node000002"><a xlink:href="../../da/d36/bfs_8hpp.html" target="_top" xlink:title=" ">
<polygon fill="white" stroke="#666666" points="43,-70 0,-70 0,-53 43,-53 43,-70"/>
<text text-anchor="middle" x="21.5" y="-59.6" font-family="Helvetica,sans-Serif" font-size="8.00">bfs.hpp</text>
</a>
</g>
</g>
<!-- Node1&#45;&gt;Node2 -->
<g id="edge1_Node000001_Node000002" class="edge">
<title>Node1&#45;&gt;Node2</title>
<g id="a_edge1_Node000001_Node000002"><a xlink:title=" ">
<path fill="none" stroke="#63b8ff" d="M77.65,-100.18C63.35,-90.58 44.57,-77.98 32.76,-70.06"/>
<polygon fill="#63b8ff" stroke="#63b8ff" points="76.03,-103.31 86.29,-105.97 79.93,-97.5 76.03,-103.31"/>
</a>
</g>
</g>
<!-- Node3 -->
<g id="Node000003" class="node">
<title>Node3</title>
<g id="a_Node000003"><a xlink:href="../../d9/d96/chdr_8hpp.html" target="_top" xlink:title=" ">
<polygon fill="white" stroke="#666666" points="121,-17 74,-17 74,0 121,0 121,-17"/>
<text text-anchor="middle" x="97.5" y="-6.6" font-family="Helvetica,sans-Serif" font-size="8.00">chdr.hpp</text>
</a>
</g>
</g>
<!-- Node1&#45;&gt;Node3 -->
<g id="edge3_Node000001_Node000003" class="edge">
<title>Node1&#45;&gt;Node3</title>
<g id="a_edge3_Node000001_Node000003"><a xlink:title=" ">
<path fill="none" stroke="#63b8ff" d="M93.59,-95.64C91.41,-83.61 89.35,-67.38 90.5,-53 91.51,-40.34 94.15,-25.81 95.89,-17.16"/>
<polygon fill="#63b8ff" stroke="#63b8ff" points="90.21,-96.57 95.61,-105.69 97.07,-95.19 90.21,-96.57"/>
</a>
</g>
</g>
<!-- Node4 -->
<g id="Node000004" class="node">
<title>Node4</title>
<g id="a_Node000004"><a xlink:href="../../d8/d12/flood_8hpp.html" target="_top" xlink:title=" ">
<polygon fill="white" stroke="#666666" points="149.5,-70 99.5,-70 99.5,-53 149.5,-53 149.5,-70"/>
<text text-anchor="middle" x="124.5" y="-59.6" font-family="Helvetica,sans-Serif" font-size="8.00">flood.hpp</text>
</a>
</g>
</g>
<!-- Node1&#45;&gt;Node4 -->
<g id="edge4_Node000001_Node000004" class="edge">
<title>Node1&#45;&gt;Node4</title>
<g id="a_edge4_Node000001_Node000004"><a xlink:title=" ">
<path fill="none" stroke="#63b8ff" d="M106.2,-97.08C111,-87.99 116.75,-77.15 120.5,-70.06"/>
<polygon fill="#63b8ff" stroke="#63b8ff" points="103.07,-95.5 101.48,-105.97 109.26,-98.77 103.07,-95.5"/>
</a>
</g>
</g>
<!-- Node5 -->
<g id="Node000005" class="node">
<title>Node5</title>
<g id="a_Node000005"><a xlink:href="../../de/d94/gbfs_8hpp.html" target="_top" xlink:title=" ">
<polygon fill="white" stroke="#666666" points="215,-70 168,-70 168,-53 215,-53 215,-70"/>
<text text-anchor="middle" x="191.5" y="-59.6" font-family="Helvetica,sans-Serif" font-size="8.00">gbfs.hpp</text>
</a>
</g>
</g>
<!-- Node1&#45;&gt;Node5 -->
<g id="edge6_Node000001_Node000005" class="edge">
<title>Node1&#45;&gt;Node5</title>
<g id="a_edge6_Node000001_Node000005"><a xlink:title=" ">
<path fill="none" stroke="#63b8ff" d="M120.54,-101C138.4,-91.31 162.55,-78.2 177.57,-70.06"/>
<polygon fill="#63b8ff" stroke="#63b8ff" points="118.49,-98.13 111.37,-105.97 121.83,-104.28 118.49,-98.13"/>
</a>
</g>
</g>
<!-- Node2&#45;&gt;Node3 -->
<g id="edge2_Node000002_Node000003" class="edge">
<title>Node2&#45;&gt;Node3</title>
<g id="a_edge2_Node000002_Node000003"><a xlink:title=" ">
<path fill="none" stroke="#63b8ff" d="M41.35,-47.18C55.65,-37.58 74.43,-24.98 86.24,-17.06"/>
<polygon fill="#63b8ff" stroke="#63b8ff" points="39.07,-44.5 32.71,-52.97 42.97,-50.31 39.07,-44.5"/>
</a>
</g>
</g>
<!-- Node4&#45;&gt;Node3 -->
<g id="edge5_Node000004_Node000003" class="edge">
<title>Node4&#45;&gt;Node3</title>
<g id="a_edge5_Node000004_Node000003"><a xlink:title=" ">
<path fill="none" stroke="#63b8ff" d="M115.8,-44.08C111,-34.99 105.25,-24.15 101.5,-17.06"/>
<polygon fill="#63b8ff" stroke="#63b8ff" points="112.74,-45.77 120.52,-52.97 118.93,-42.5 112.74,-45.77"/>
</a>
</g>
</g>
<!-- Node5&#45;&gt;Node3 -->
<g id="edge7_Node000005_Node000003" class="edge">
<title>Node5&#45;&gt;Node3</title>
<g id="a_edge7_Node000005_Node000003"><a xlink:title=" ">
<path fill="none" stroke="#63b8ff" d="M168.46,-48C150.6,-38.31 126.45,-25.2 111.43,-17.06"/>
<polygon fill="#63b8ff" stroke="#63b8ff" points="167.17,-51.28 177.63,-52.97 170.51,-45.13 167.17,-51.28"/>
</a>
</g>
</g>
</g>
</svg>
