<?xml version="1.0" encoding="UTF-8" standalone="no"?>
<!DOCTYPE svg PUBLIC "-//W3C//DTD SVG 1.1//EN"
 "http://www.w3.org/Graphics/SVG/1.1/DTD/svg11.dtd">
<!-- Generated by graphviz version 2.43.0 (0)
 -->
<!-- Title: mutable_node&lt; index_t &gt; Pages: 1 -->
<svg width="376pt" height="169pt"
 viewBox="0.00 0.00 376.00 169.00" xmlns="http://www.w3.org/2000/svg" xmlns:xlink="http://www.w3.org/1999/xlink">
<g id="graph0" class="graph" transform="scale(1 1) rotate(0) translate(4 165)">
<title>mutable_node&lt; index_t &gt;</title>
<!-- Node1 -->
<g id="Node000001" class="node">
<title>Node1</title>
<g id="a_Node000001"><a xlink:title="A hierarchical node in a pathfinding context, requires manual memory management.">
<polygon fill="#999999" stroke="transparent" points="368,-82 0,-82 0,0 368,0 368,-82"/>
<text text-anchor="start" x="131" y="-71.6" font-family="Helvetica,sans-Serif" font-size="8.00">mutable_node&lt; index_t &gt;</text>
<text text-anchor="start" x="4" y="-58.6" font-family="Helvetica,sans-Serif" font-size="8.00">+</text>
<text text-anchor="start" x="15" y="-58.6" font-family="Helvetica,sans-Serif" font-size="8.00">mutable_node *restrict m_parent</text>
<text text-anchor="start" x="4" y="-45.6" font-family="Helvetica,sans-Serif" font-size="8.00">+</text>
<text text-anchor="start" x="15" y="-45.6" font-family="Helvetica,sans-Serif" font-size="8.00">mutable_node() noexcept</text>
<text text-anchor="start" x="4" y="-32.6" font-family="Helvetica,sans-Serif" font-size="8.00">+</text>
<text text-anchor="start" x="15" y="-32.6" font-family="Helvetica,sans-Serif" font-size="8.00">mutable_node(index_t _index, mutable_node *restrict const _parent=nullptr) noexcept</text>
<text text-anchor="start" x="5.5" y="-19.6" font-family="Helvetica,sans-Serif" font-size="8.00">*</text>
<text text-anchor="start" x="15" y="-19.6" font-family="Helvetica,sans-Serif" font-size="8.00">mutable_node() noexcept</text>
<text text-anchor="start" x="5.5" y="-6.6" font-family="Helvetica,sans-Serif" font-size="8.00">*</text>
<text text-anchor="start" x="15" y="-6.6" font-family="Helvetica,sans-Serif" font-size="8.00">mutable_node(index_t _index, mutable_node *restrict const _parent=nullptr) noexcept</text>
<polygon fill="#666666" stroke="#666666" points="0,-67 0,-67 368,-67 368,-67 0,-67"/>
<polygon fill="#666666" stroke="#666666" points="0,-54 0,-54 13,-54 13,-54 0,-54"/>
<polygon fill="#666666" stroke="#666666" points="13,-54 13,-54 368,-54 368,-54 13,-54"/>
<polygon fill="none" stroke="#666666" points="0,0 0,-82 368,-82 368,0 0,0"/>
</a>
</g>
</g>
<!-- Node2 -->
<g id="Node000002" class="node">
<title>Node2</title>
<g id="a_Node000002"><a xlink:href="../../da/d98/structchdr_1_1solvers_1_1bnode.html" target="_top" xlink:title="Base class for pathfinding nodes.">
<polygon fill="white" stroke="transparent" points="230,-161 138,-161 138,-118 230,-118 230,-161"/>
<text text-anchor="start" x="147.5" y="-150.1" font-family="Helvetica,sans-Serif" font-size="8.00">bnode&lt; index_t &gt;</text>
<text text-anchor="start" x="142" y="-137.1" font-family="Helvetica,sans-Serif" font-size="8.00">+</text>
<text text-anchor="start" x="153" y="-137.1" font-family="Helvetica,sans-Serif" font-size="8.00">index_t m_index</text>
<text text-anchor="start" x="143.5" y="-124.1" font-family="Helvetica,sans-Serif" font-size="8.00">*</text>
<text text-anchor="start" x="153" y="-124.1" font-family="Helvetica,sans-Serif" font-size="8.00">bnode() noexcept</text>
<polygon fill="#666666" stroke="#666666" points="138,-145.5 138,-145.5 230,-145.5 230,-145.5 138,-145.5"/>
<polygon fill="#666666" stroke="#666666" points="138,-132.5 138,-132.5 151,-132.5 151,-132.5 138,-132.5"/>
<polygon fill="#666666" stroke="#666666" points="151,-132.5 151,-132.5 230,-132.5 230,-132.5 151,-132.5"/>
<polygon fill="none" stroke="#666666" points="138,-118 138,-161 230,-161 230,-118 138,-118"/>
</a>
</g>
</g>
<!-- Node2&#45;&gt;Node1 -->
<g id="edge1_Node000001_Node000002" class="edge">
<title>Node2&#45;&gt;Node1</title>
<g id="a_edge1_Node000001_Node000002"><a xlink:title=" ">
<path fill="none" stroke="#63b8ff" d="M184,-107.54C184,-99.52 184,-90.77 184,-82.35"/>
<polygon fill="none" stroke="#63b8ff" points="180.5,-107.56 184,-117.56 187.5,-107.56 180.5,-107.56"/>
</a>
</g>
</g>
</g>
</svg>
