<?xml version="1.0" encoding="UTF-8" standalone="no"?>
<!DOCTYPE svg PUBLIC "-//W3C//DTD SVG 1.1//EN"
 "http://www.w3.org/Graphics/SVG/1.1/DTD/svg11.dtd">
<!-- Generated by graphviz version 2.43.0 (0)
 -->
<!-- Title: gdfs.hpp Pages: 1 -->
<svg width="1119pt" height="290pt"
 viewBox="0.00 0.00 1118.64 290.00" xmlns="http://www.w3.org/2000/svg" xmlns:xlink="http://www.w3.org/1999/xlink">
<g id="graph0" class="graph" transform="scale(1 1) rotate(0) translate(4 286)">
<title>gdfs.hpp</title>
<!-- Node1 -->
<g id="Node000001" class="node">
<title>Node1</title>
<g id="a_Node000001"><a xlink:title=" ">
<polygon fill="#999999" stroke="#666666" points="553.5,-282 506.5,-282 506.5,-265 553.5,-265 553.5,-282"/>
<text text-anchor="middle" x="530" y="-271.6" font-family="Helvetica,sans-Serif" font-size="8.00">gdfs.hpp</text>
</a>
</g>
</g>
<!-- Node2 -->
<g id="Node000002" class="node">
<title>Node2</title>
<g id="a_Node000002"><a xlink:title=" ">
<polygon fill="#e0e0e0" stroke="#999999" points="497,-17 455,-17 455,0 497,0 497,-17"/>
<text text-anchor="middle" x="476" y="-6.6" font-family="Helvetica,sans-Serif" font-size="8.00">cstddef</text>
</a>
</g>
</g>
<!-- Node1&#45;&gt;Node2 -->
<g id="edge1_Node000001_Node000002" class="edge">
<title>Node1&#45;&gt;Node2</title>
<g id="a_edge1_Node000001_Node000002"><a xlink:title=" ">
<path fill="none" stroke="#63b8ff" d="M506.2,-272.97C403.07,-274.37 0,-273.17 0,-168.5 0,-168.5 0,-168.5 0,-113.5 0,-79.18 17.89,-69.48 48,-53 116.41,-15.57 357.99,-10.26 444.72,-9.57"/>
<polygon fill="#63b8ff" stroke="#63b8ff" points="444.99,-13.07 454.97,-9.51 444.95,-6.07 444.99,-13.07"/>
</a>
</g>
</g>
<!-- Node3 -->
<g id="Node000003" class="node">
<title>Node3</title>
<g id="a_Node000003"><a xlink:title=" ">
<polygon fill="#e0e0e0" stroke="#999999" points="580,-123 542,-123 542,-106 580,-106 580,-123"/>
<text text-anchor="middle" x="561" y="-112.6" font-family="Helvetica,sans-Serif" font-size="8.00">vector</text>
</a>
</g>
</g>
<!-- Node1&#45;&gt;Node3 -->
<g id="edge2_Node000001_Node000003" class="edge">
<title>Node1&#45;&gt;Node3</title>
<g id="a_edge2_Node000001_Node000003"><a xlink:title=" ">
<path fill="none" stroke="#63b8ff" d="M531.5,-264.93C536.19,-241.15 550.72,-167.56 557.48,-133.33"/>
<polygon fill="#63b8ff" stroke="#63b8ff" points="560.94,-133.85 559.45,-123.37 554.08,-132.5 560.94,-133.85"/>
</a>
</g>
</g>
<!-- Node4 -->
<g id="Node000004" class="node">
<title>Node4</title>
<g id="a_Node000004"><a xlink:href="../../d8/d62/existence__set_8hpp.html" target="_top" xlink:title=" ">
<polygon fill="white" stroke="#666666" points="372.5,-176 225.5,-176 225.5,-159 372.5,-159 372.5,-176"/>
<text text-anchor="middle" x="299" y="-165.6" font-family="Helvetica,sans-Serif" font-size="8.00">../types/containers/existence_set.hpp</text>
</a>
</g>
</g>
<!-- Node1&#45;&gt;Node4 -->
<g id="edge3_Node000001_Node000004" class="edge">
<title>Node1&#45;&gt;Node4</title>
<g id="a_edge3_Node000001_Node000004"><a xlink:title=" ">
<path fill="none" stroke="#63b8ff" d="M506.38,-267.24C478.11,-260.47 429.73,-247.35 391,-229 363.64,-216.03 334.92,-195.95 316.99,-182.52"/>
<polygon fill="#63b8ff" stroke="#63b8ff" points="318.74,-179.46 308.67,-176.18 314.5,-185.03 318.74,-179.46"/>
</a>
</g>
</g>
<!-- Node10 -->
<g id="Node000010" class="node">
<title>Node10</title>
<g id="a_Node000010"><a xlink:href="../../df/d93/utils_8hpp.html" target="_top" xlink:title=" ">
<polygon fill="white" stroke="#666666" points="333.5,-123 258.5,-123 258.5,-106 333.5,-106 333.5,-123"/>
<text text-anchor="middle" x="296" y="-112.6" font-family="Helvetica,sans-Serif" font-size="8.00">../../utils/utils.hpp</text>
</a>
</g>
</g>
<!-- Node1&#45;&gt;Node10 -->
<g id="edge27_Node000001_Node000010" class="edge">
<title>Node1&#45;&gt;Node10</title>
<g id="a_edge27_Node000001_Node000010"><a xlink:title=" ">
<path fill="none" stroke="#63b8ff" d="M521,-264.73C498.42,-245.43 437.13,-194.35 381,-159 362.12,-147.11 339.6,-135.7 322.48,-127.55"/>
<polygon fill="#63b8ff" stroke="#63b8ff" points="323.64,-124.23 313.1,-123.15 320.67,-130.56 323.64,-124.23"/>
</a>
</g>
</g>
<!-- Node14 -->
<g id="Node000014" class="node">
<title>Node14</title>
<g id="a_Node000014"><a xlink:href="../../d7/d65/intrinsics_8hpp.html" target="_top" xlink:title=" ">
<polygon fill="#fff0f0" stroke="red" points="670.5,-70 585.5,-70 585.5,-53 670.5,-53 670.5,-70"/>
<text text-anchor="middle" x="628" y="-59.6" font-family="Helvetica,sans-Serif" font-size="8.00">../utils/intrinsics.hpp</text>
</a>
</g>
</g>
<!-- Node1&#45;&gt;Node14 -->
<g id="edge49_Node000001_Node000014" class="edge">
<title>Node1&#45;&gt;Node14</title>
<g id="a_edge49_Node000001_Node000014"><a xlink:title=" ">
<path fill="none" stroke="#63b8ff" d="M553.72,-267.67C593.7,-258.1 673.41,-232.58 707,-176 714.12,-164.01 721.81,-134.8 704,-106 694.73,-91.01 678.27,-80.67 663.03,-73.85"/>
<polygon fill="#63b8ff" stroke="#63b8ff" points="664.36,-70.61 653.78,-70.05 661.7,-77.09 664.36,-70.61"/>
</a>
</g>
</g>
<!-- Node17 -->
<g id="Node000017" class="node">
<title>Node17</title>
<g id="a_Node000017"><a xlink:href="../../df/d47/stack_8hpp.html" target="_top" xlink:title=" ">
<polygon fill="white" stroke="#666666" points="697.5,-176 580.5,-176 580.5,-159 697.5,-159 697.5,-176"/>
<text text-anchor="middle" x="639" y="-165.6" font-family="Helvetica,sans-Serif" font-size="8.00">../types/containers/stack.hpp</text>
</a>
</g>
</g>
<!-- Node1&#45;&gt;Node17 -->
<g id="edge22_Node000001_Node000017" class="edge">
<title>Node1&#45;&gt;Node17</title>
<g id="a_edge22_Node000001_Node000017"><a xlink:title=" ">
<path fill="none" stroke="#63b8ff" d="M538.19,-264.68C556.35,-247.36 600.22,-205.5 623.65,-183.15"/>
<polygon fill="#63b8ff" stroke="#63b8ff" points="626.19,-185.56 631.01,-176.12 621.36,-180.5 626.19,-185.56"/>
</a>
</g>
</g>
<!-- Node18 -->
<g id="Node000018" class="node">
<title>Node18</title>
<g id="a_Node000018"><a xlink:href="../../da/deb/managed__node_8hpp.html" target="_top" xlink:title=" ">
<polygon fill="white" stroke="#666666" points="1050,-229 942,-229 942,-212 1050,-212 1050,-229"/>
<text text-anchor="middle" x="996" y="-218.6" font-family="Helvetica,sans-Serif" font-size="8.00">base/managed_node.hpp</text>
</a>
</g>
</g>
<!-- Node1&#45;&gt;Node18 -->
<g id="edge28_Node000001_Node000018" class="edge">
<title>Node1&#45;&gt;Node18</title>
<g id="a_edge28_Node000001_Node000018"><a xlink:title=" ">
<path fill="none" stroke="#63b8ff" d="M553.75,-269.9C623.03,-262.32 826.64,-240.03 931.68,-228.54"/>
<polygon fill="#63b8ff" stroke="#63b8ff" points="932.28,-231.99 941.84,-227.43 931.52,-225.04 932.28,-231.99"/>
</a>
</g>
</g>
<!-- Node25 -->
<g id="Node000025" class="node">
<title>Node25</title>
<g id="a_Node000025"><a xlink:href="../../d2/d1c/solver_8hpp.html" target="_top" xlink:title=" ">
<polygon fill="white" stroke="#666666" points="512,-176 440,-176 440,-159 512,-159 512,-176"/>
<text text-anchor="middle" x="476" y="-165.6" font-family="Helvetica,sans-Serif" font-size="8.00">base/solver.hpp</text>
</a>
</g>
</g>
<!-- Node1&#45;&gt;Node25 -->
<g id="edge42_Node000001_Node000025" class="edge">
<title>Node1&#45;&gt;Node25</title>
<g id="a_edge42_Node000001_Node000025"><a xlink:title=" ">
<path fill="none" stroke="#63b8ff" d="M525.94,-264.68C517.22,-247.89 496.53,-208.04 484.7,-185.25"/>
<polygon fill="#63b8ff" stroke="#63b8ff" points="487.67,-183.39 479.96,-176.12 481.46,-186.61 487.67,-183.39"/>
</a>
</g>
</g>
<!-- Node4&#45;&gt;Node2 -->
<g id="edge4_Node000004_Node000002" class="edge">
<title>Node4&#45;&gt;Node2</title>
<g id="a_edge4_Node000004_Node000002"><a xlink:title=" ">
<path fill="none" stroke="#63b8ff" d="M228.12,-158.98C174.69,-152.07 107,-140.26 85,-123 59.01,-102.61 37.89,-77.54 60,-53 85.68,-24.49 352.58,-13.4 444.83,-10.41"/>
<polygon fill="#63b8ff" stroke="#63b8ff" points="445.06,-13.9 454.94,-10.09 444.84,-6.9 445.06,-13.9"/>
</a>
</g>
</g>
<!-- Node4&#45;&gt;Node3 -->
<g id="edge10_Node000004_Node000003" class="edge">
<title>Node4&#45;&gt;Node3</title>
<g id="a_edge10_Node000004_Node000003"><a xlink:title=" ">
<path fill="none" stroke="#63b8ff" d="M337.66,-158.97C390.59,-148.67 484.45,-130.4 531.87,-121.17"/>
<polygon fill="#63b8ff" stroke="#63b8ff" points="532.64,-124.59 541.79,-119.24 531.3,-117.72 532.64,-124.59"/>
</a>
</g>
</g>
<!-- Node5 -->
<g id="Node000005" class="node">
<title>Node5</title>
<g id="a_Node000005"><a xlink:title=" ">
<polygon fill="#e0e0e0" stroke="#999999" points="119,-70 69,-70 69,-53 119,-53 119,-70"/>
<text text-anchor="middle" x="94" y="-59.6" font-family="Helvetica,sans-Serif" font-size="8.00">functional</text>
</a>
</g>
</g>
<!-- Node4&#45;&gt;Node5 -->
<g id="edge5_Node000004_Node000005" class="edge">
<title>Node4&#45;&gt;Node5</title>
<g id="a_edge5_Node000004_Node000005"><a xlink:title=" ">
<path fill="none" stroke="#63b8ff" d="M225.27,-160.34C173.83,-154.34 111.54,-143.1 95,-123 85.3,-111.21 86.29,-93.31 88.96,-80.04"/>
<polygon fill="#63b8ff" stroke="#63b8ff" points="92.39,-80.76 91.4,-70.21 85.59,-79.07 92.39,-80.76"/>
</a>
</g>
</g>
<!-- Node6 -->
<g id="Node000006" class="node">
<title>Node6</title>
<g id="a_Node000006"><a xlink:title=" ">
<polygon fill="#e0e0e0" stroke="#999999" points="164,-123 104,-123 104,-106 164,-106 164,-123"/>
<text text-anchor="middle" x="134" y="-112.6" font-family="Helvetica,sans-Serif" font-size="8.00">initializer_list</text>
</a>
</g>
</g>
<!-- Node4&#45;&gt;Node6 -->
<g id="edge6_Node000004_Node000006" class="edge">
<title>Node4&#45;&gt;Node6</title>
<g id="a_edge6_Node000004_Node000006"><a xlink:title=" ">
<path fill="none" stroke="#63b8ff" d="M274.65,-158.97C246.5,-150.27 199.98,-135.89 168.2,-126.07"/>
<polygon fill="#63b8ff" stroke="#63b8ff" points="169.03,-122.67 158.45,-123.06 166.97,-129.35 169.03,-122.67"/>
</a>
</g>
</g>
<!-- Node7 -->
<g id="Node000007" class="node">
<title>Node7</title>
<g id="a_Node000007"><a xlink:title=" ">
<polygon fill="#e0e0e0" stroke="#999999" points="174,-70 140,-70 140,-53 174,-53 174,-70"/>
<text text-anchor="middle" x="157" y="-59.6" font-family="Helvetica,sans-Serif" font-size="8.00">limits</text>
</a>
</g>
</g>
<!-- Node4&#45;&gt;Node7 -->
<g id="edge7_Node000004_Node000007" class="edge">
<title>Node4&#45;&gt;Node7</title>
<g id="a_edge7_Node000004_Node000007"><a xlink:title=" ">
<path fill="none" stroke="#63b8ff" d="M280.55,-158.86C263.06,-151.16 236.48,-138.26 216,-123 198.24,-109.77 180.91,-91.11 169.68,-78.02"/>
<polygon fill="#63b8ff" stroke="#63b8ff" points="172.35,-75.75 163.24,-70.34 166.98,-80.25 172.35,-75.75"/>
</a>
</g>
</g>
<!-- Node8 -->
<g id="Node000008" class="node">
<title>Node8</title>
<g id="a_Node000008"><a xlink:title=" ">
<polygon fill="#e0e0e0" stroke="#999999" points="680,-123 598,-123 598,-106 680,-106 680,-123"/>
<text text-anchor="middle" x="639" y="-112.6" font-family="Helvetica,sans-Serif" font-size="8.00">memory_resource</text>
</a>
</g>
</g>
<!-- Node4&#45;&gt;Node8 -->
<g id="edge8_Node000004_Node000008" class="edge">
<title>Node4&#45;&gt;Node8</title>
<g id="a_edge8_Node000004_Node000008"><a xlink:title=" ">
<path fill="none" stroke="#63b8ff" d="M349.17,-158.97C413.25,-149.36 523.57,-132.81 588.04,-123.14"/>
<polygon fill="#63b8ff" stroke="#63b8ff" points="588.6,-126.6 597.97,-121.65 587.57,-119.68 588.6,-126.6"/>
</a>
</g>
</g>
<!-- Node9 -->
<g id="Node000009" class="node">
<title>Node9</title>
<g id="a_Node000009"><a xlink:title=" ">
<polygon fill="#e0e0e0" stroke="#999999" points="447.5,-70 394.5,-70 394.5,-53 447.5,-53 447.5,-70"/>
<text text-anchor="middle" x="421" y="-59.6" font-family="Helvetica,sans-Serif" font-size="8.00">type_traits</text>
</a>
</g>
</g>
<!-- Node4&#45;&gt;Node9 -->
<g id="edge9_Node000004_Node000009" class="edge">
<title>Node4&#45;&gt;Node9</title>
<g id="a_edge9_Node000004_Node000009"><a xlink:title=" ">
<path fill="none" stroke="#63b8ff" d="M308.17,-158.68C328.58,-141.28 378.03,-99.13 404.16,-76.85"/>
<polygon fill="#63b8ff" stroke="#63b8ff" points="406.72,-79.28 412.06,-70.12 402.17,-73.95 406.72,-79.28"/>
</a>
</g>
</g>
<!-- Node4&#45;&gt;Node10 -->
<g id="edge11_Node000004_Node000010" class="edge">
<title>Node4&#45;&gt;Node10</title>
<g id="a_edge11_Node000004_Node000010"><a xlink:title=" ">
<path fill="none" stroke="#63b8ff" d="M298.56,-158.97C298.16,-152.19 297.56,-141.97 297.04,-133.13"/>
<polygon fill="#63b8ff" stroke="#63b8ff" points="300.53,-132.83 296.44,-123.06 293.54,-133.24 300.53,-132.83"/>
</a>
</g>
</g>
<!-- Node4&#45;&gt;Node14 -->
<g id="edge21_Node000004_Node000014" class="edge">
<title>Node4&#45;&gt;Node14</title>
<g id="a_edge21_Node000004_Node000014"><a xlink:title=" ">
<path fill="none" stroke="#63b8ff" d="M322.93,-158.94C380.73,-140.66 528.12,-94.07 594.59,-73.06"/>
<polygon fill="#63b8ff" stroke="#63b8ff" points="595.68,-76.39 604.16,-70.03 593.57,-69.71 595.68,-76.39"/>
</a>
</g>
</g>
<!-- Node10&#45;&gt;Node2 -->
<g id="edge14_Node000010_Node000002" class="edge">
<title>Node10&#45;&gt;Node2</title>
<g id="a_edge14_Node000010_Node000002"><a xlink:title=" ">
<path fill="none" stroke="#63b8ff" d="M306.09,-105.9C322.26,-93.89 355.19,-70.13 385,-53 405.85,-41.02 430.52,-29.38 448.9,-21.16"/>
<polygon fill="#63b8ff" stroke="#63b8ff" points="450.42,-24.31 458.15,-17.07 447.59,-17.91 450.42,-24.31"/>
</a>
</g>
</g>
<!-- Node10&#45;&gt;Node5 -->
<g id="edge15_Node000010_Node000005" class="edge">
<title>Node10&#45;&gt;Node5</title>
<g id="a_edge15_Node000010_Node000005"><a xlink:title=" ">
<path fill="none" stroke="#63b8ff" d="M266.19,-105.97C229.62,-96.74 167.72,-81.11 128.95,-71.32"/>
<polygon fill="#63b8ff" stroke="#63b8ff" points="129.69,-67.9 119.14,-68.85 127.98,-74.69 129.69,-67.9"/>
</a>
</g>
</g>
<!-- Node10&#45;&gt;Node7 -->
<g id="edge16_Node000010_Node000007" class="edge">
<title>Node10&#45;&gt;Node7</title>
<g id="a_edge16_Node000010_Node000007"><a xlink:title=" ">
<path fill="none" stroke="#63b8ff" d="M275.49,-105.97C251.12,-97.03 210.38,-82.09 183.6,-72.26"/>
<polygon fill="#63b8ff" stroke="#63b8ff" points="184.68,-68.93 174.09,-68.77 182.27,-75.5 184.68,-68.93"/>
</a>
</g>
</g>
<!-- Node10&#45;&gt;Node9 -->
<g id="edge18_Node000010_Node000009" class="edge">
<title>Node10&#45;&gt;Node9</title>
<g id="a_edge18_Node000010_Node000009"><a xlink:title=" ">
<path fill="none" stroke="#63b8ff" d="M314.44,-105.97C335.22,-97.5 369.2,-83.64 393.19,-73.85"/>
<polygon fill="#63b8ff" stroke="#63b8ff" points="394.54,-77.07 402.48,-70.06 391.9,-70.59 394.54,-77.07"/>
</a>
</g>
</g>
<!-- Node11 -->
<g id="Node000011" class="node">
<title>Node11</title>
<g id="a_Node000011"><a xlink:title=" ">
<polygon fill="#e0e0e0" stroke="#999999" points="281.5,-70 246.5,-70 246.5,-53 281.5,-53 281.5,-70"/>
<text text-anchor="middle" x="264" y="-59.6" font-family="Helvetica,sans-Serif" font-size="8.00">array</text>
</a>
</g>
</g>
<!-- Node10&#45;&gt;Node11 -->
<g id="edge12_Node000010_Node000011" class="edge">
<title>Node10&#45;&gt;Node11</title>
<g id="a_edge12_Node000010_Node000011"><a xlink:title=" ">
<path fill="none" stroke="#63b8ff" d="M291.28,-105.97C286.79,-98.82 279.89,-87.82 274.15,-78.67"/>
<polygon fill="#63b8ff" stroke="#63b8ff" points="277.02,-76.67 268.74,-70.06 271.09,-80.39 277.02,-76.67"/>
</a>
</g>
</g>
<!-- Node12 -->
<g id="Node000012" class="node">
<title>Node12</title>
<g id="a_Node000012"><a xlink:title=" ">
<polygon fill="#e0e0e0" stroke="#999999" points="338,-70 300,-70 300,-53 338,-53 338,-70"/>
<text text-anchor="middle" x="319" y="-59.6" font-family="Helvetica,sans-Serif" font-size="8.00">cmath</text>
</a>
</g>
</g>
<!-- Node10&#45;&gt;Node12 -->
<g id="edge13_Node000010_Node000012" class="edge">
<title>Node10&#45;&gt;Node12</title>
<g id="a_edge13_Node000010_Node000012"><a xlink:title=" ">
<path fill="none" stroke="#63b8ff" d="M299.39,-105.97C302.55,-98.97 307.37,-88.28 311.44,-79.25"/>
<polygon fill="#63b8ff" stroke="#63b8ff" points="314.67,-80.61 315.59,-70.06 308.29,-77.73 314.67,-80.61"/>
</a>
</g>
</g>
<!-- Node13 -->
<g id="Node000013" class="node">
<title>Node13</title>
<g id="a_Node000013"><a xlink:title=" ">
<polygon fill="#e0e0e0" stroke="#999999" points="228,-70 192,-70 192,-53 228,-53 228,-70"/>
<text text-anchor="middle" x="210" y="-59.6" font-family="Helvetica,sans-Serif" font-size="8.00">string</text>
</a>
</g>
</g>
<!-- Node10&#45;&gt;Node13 -->
<g id="edge17_Node000010_Node000013" class="edge">
<title>Node10&#45;&gt;Node13</title>
<g id="a_edge17_Node000010_Node000013"><a xlink:title=" ">
<path fill="none" stroke="#63b8ff" d="M283.31,-105.97C269.72,-97.91 247.91,-84.98 231.6,-75.31"/>
<polygon fill="#63b8ff" stroke="#63b8ff" points="233.13,-72.15 222.74,-70.06 229.56,-78.17 233.13,-72.15"/>
</a>
</g>
</g>
<!-- Node10&#45;&gt;Node14 -->
<g id="edge19_Node000010_Node000014" class="edge">
<title>Node10&#45;&gt;Node14</title>
<g id="a_edge19_Node000010_Node000014"><a xlink:title=" ">
<path fill="none" stroke="#63b8ff" d="M333.76,-107.7C393.01,-98.6 507.98,-80.94 575.33,-70.59"/>
<polygon fill="#63b8ff" stroke="#63b8ff" points="575.96,-74.04 585.31,-69.06 574.89,-67.12 575.96,-74.04"/>
</a>
</g>
</g>
<!-- Node14&#45;&gt;Node2 -->
<g id="edge20_Node000014_Node000002" class="edge">
<title>Node14&#45;&gt;Node2</title>
<g id="a_edge20_Node000014_Node000002"><a xlink:title=" ">
<path fill="none" stroke="#63b8ff" d="M605.57,-52.97C579.42,-44.2 536.05,-29.65 506.77,-19.82"/>
<polygon fill="#63b8ff" stroke="#63b8ff" points="507.64,-16.43 497.05,-16.56 505.42,-23.06 507.64,-16.43"/>
</a>
</g>
</g>
<!-- Node17&#45;&gt;Node2 -->
<g id="edge23_Node000017_Node000002" class="edge">
<title>Node17&#45;&gt;Node2</title>
<g id="a_edge23_Node000017_Node000002"><a xlink:title=" ">
<path fill="none" stroke="#63b8ff" d="M659.52,-158.99C674.83,-152.18 694.66,-140.49 704,-123 716.75,-99.13 688.5,-59.85 680,-53 653.73,-31.85 557.7,-18.45 507.33,-12.72"/>
<polygon fill="#63b8ff" stroke="#63b8ff" points="507.64,-9.23 497.31,-11.61 506.87,-16.19 507.64,-9.23"/>
</a>
</g>
</g>
<!-- Node17&#45;&gt;Node3 -->
<g id="edge25_Node000017_Node000003" class="edge">
<title>Node17&#45;&gt;Node3</title>
<g id="a_edge25_Node000017_Node000003"><a xlink:title=" ">
<path fill="none" stroke="#63b8ff" d="M627.49,-158.97C615.28,-150.99 595.75,-138.22 581.01,-128.58"/>
<polygon fill="#63b8ff" stroke="#63b8ff" points="582.84,-125.6 572.56,-123.06 579.01,-131.46 582.84,-125.6"/>
</a>
</g>
</g>
<!-- Node17&#45;&gt;Node8 -->
<g id="edge24_Node000017_Node000008" class="edge">
<title>Node17&#45;&gt;Node8</title>
<g id="a_edge24_Node000017_Node000008"><a xlink:title=" ">
<path fill="none" stroke="#63b8ff" d="M639,-158.97C639,-152.19 639,-141.97 639,-133.13"/>
<polygon fill="#63b8ff" stroke="#63b8ff" points="642.5,-133.06 639,-123.06 635.5,-133.06 642.5,-133.06"/>
</a>
</g>
</g>
<!-- Node17&#45;&gt;Node14 -->
<g id="edge26_Node000017_Node000014" class="edge">
<title>Node17&#45;&gt;Node14</title>
<g id="a_edge26_Node000017_Node000014"><a xlink:title=" ">
<path fill="none" stroke="#63b8ff" d="M653.5,-158.9C671.91,-148.15 700.04,-127.44 689,-106 681.91,-92.23 668.21,-81.86 655.59,-74.7"/>
<polygon fill="#63b8ff" stroke="#63b8ff" points="657.19,-71.59 646.7,-70.06 653.95,-77.79 657.19,-71.59"/>
</a>
</g>
</g>
<!-- Node18&#45;&gt;Node14 -->
<g id="edge41_Node000018_Node000014" class="edge">
<title>Node18&#45;&gt;Node14</title>
<g id="a_edge41_Node000018_Node000014"><a xlink:title=" ">
<path fill="none" stroke="#63b8ff" d="M1029.71,-212C1049.93,-205.74 1074.47,-194.73 1089,-176 1108.27,-151.17 1120.18,-129.22 1099,-106 1071.27,-75.59 798.2,-66.13 680.99,-63.46"/>
<polygon fill="#63b8ff" stroke="#63b8ff" points="680.89,-59.96 670.82,-63.24 680.74,-66.96 680.89,-59.96"/>
</a>
</g>
</g>
<!-- Node19 -->
<g id="Node000019" class="node">
<title>Node19</title>
<g id="a_Node000019"><a xlink:title=" ">
<polygon fill="#e0e0e0" stroke="#999999" points="1090,-123 1048,-123 1048,-106 1090,-106 1090,-123"/>
<text text-anchor="middle" x="1069" y="-112.6" font-family="Helvetica,sans-Serif" font-size="8.00">cassert</text>
</a>
</g>
</g>
<!-- Node18&#45;&gt;Node19 -->
<g id="edge29_Node000018_Node000019" class="edge">
<title>Node18&#45;&gt;Node19</title>
<g id="a_edge29_Node000018_Node000019"><a xlink:title=" ">
<path fill="none" stroke="#63b8ff" d="M997.12,-211.82C999.19,-199.7 1004.48,-175.78 1016,-159 1024.21,-147.04 1036.61,-136.61 1047.36,-128.96"/>
<polygon fill="#63b8ff" stroke="#63b8ff" points="1049.54,-131.71 1055.87,-123.22 1045.62,-125.91 1049.54,-131.71"/>
</a>
</g>
</g>
<!-- Node20 -->
<g id="Node000020" class="node">
<title>Node20</title>
<g id="a_Node000020"><a xlink:href="../../dc/d3c/bnode_8hpp.html" target="_top" xlink:title=" ">
<polygon fill="white" stroke="#666666" points="1079.5,-176 1024.5,-176 1024.5,-159 1079.5,-159 1079.5,-176"/>
<text text-anchor="middle" x="1052" y="-165.6" font-family="Helvetica,sans-Serif" font-size="8.00">bnode.hpp</text>
</a>
</g>
</g>
<!-- Node18&#45;&gt;Node20 -->
<g id="edge30_Node000018_Node000020" class="edge">
<title>Node18&#45;&gt;Node20</title>
<g id="a_edge30_Node000018_Node000020"><a xlink:title=" ">
<path fill="none" stroke="#63b8ff" d="M1004.26,-211.97C1012.62,-204.37 1025.74,-192.41 1036.12,-182.97"/>
<polygon fill="#63b8ff" stroke="#63b8ff" points="1038.67,-185.38 1043.7,-176.06 1033.95,-180.2 1038.67,-185.38"/>
</a>
</g>
</g>
<!-- Node21 -->
<g id="Node000021" class="node">
<title>Node21</title>
<g id="a_Node000021"><a xlink:href="../../d9/df8/heterogeneous__pool_8hpp.html" target="_top" xlink:title=" ">
<polygon fill="white" stroke="#666666" points="948.5,-176 791.5,-176 791.5,-159 948.5,-159 948.5,-176"/>
<text text-anchor="middle" x="870" y="-165.6" font-family="Helvetica,sans-Serif" font-size="8.00">../../types/pmr/heterogeneous_pool.hpp</text>
</a>
</g>
</g>
<!-- Node18&#45;&gt;Node21 -->
<g id="edge31_Node000018_Node000021" class="edge">
<title>Node18&#45;&gt;Node21</title>
<g id="a_edge31_Node000018_Node000021"><a xlink:title=" ">
<path fill="none" stroke="#63b8ff" d="M977.41,-211.97C956.47,-203.5 922.22,-189.64 898.03,-179.85"/>
<polygon fill="#63b8ff" stroke="#63b8ff" points="899.25,-176.56 888.67,-176.06 896.62,-183.05 899.25,-176.56"/>
</a>
</g>
</g>
<!-- Node21&#45;&gt;Node2 -->
<g id="edge33_Node000021_Node000002" class="edge">
<title>Node21&#45;&gt;Node2</title>
<g id="a_edge33_Node000021_Node000002"><a xlink:title=" ">
<path fill="none" stroke="#63b8ff" d="M861.51,-158.99C837.83,-138.46 768.26,-81.08 700,-53 634.68,-26.13 551.69,-15.59 507.33,-11.66"/>
<polygon fill="#63b8ff" stroke="#63b8ff" points="507.43,-8.16 497.17,-10.82 506.85,-15.14 507.43,-8.16"/>
</a>
</g>
</g>
<!-- Node21&#45;&gt;Node3 -->
<g id="edge37_Node000021_Node000003" class="edge">
<title>Node21&#45;&gt;Node3</title>
<g id="a_edge37_Node000021_Node000003"><a xlink:title=" ">
<path fill="none" stroke="#63b8ff" d="M808.81,-158.97C753.89,-151.77 670.91,-139.81 590.06,-123.01"/>
<polygon fill="#63b8ff" stroke="#63b8ff" points="590.72,-119.57 580.21,-120.94 589.28,-126.42 590.72,-119.57"/>
</a>
</g>
</g>
<!-- Node21&#45;&gt;Node8 -->
<g id="edge38_Node000021_Node000008" class="edge">
<title>Node21&#45;&gt;Node8</title>
<g id="a_edge38_Node000021_Node000008"><a xlink:title=" ">
<path fill="none" stroke="#63b8ff" d="M835.92,-158.97C795.4,-150.03 727.68,-135.08 683.18,-125.25"/>
<polygon fill="#63b8ff" stroke="#63b8ff" points="683.74,-121.79 673.22,-123.06 682.23,-128.63 683.74,-121.79"/>
</a>
</g>
</g>
<!-- Node21&#45;&gt;Node10 -->
<g id="edge40_Node000021_Node000010" class="edge">
<title>Node21&#45;&gt;Node10</title>
<g id="a_edge40_Node000021_Node000010"><a xlink:title=" ">
<path fill="none" stroke="#63b8ff" d="M791.39,-159.52C670.4,-148.77 442.21,-128.49 343.49,-119.72"/>
<polygon fill="#63b8ff" stroke="#63b8ff" points="343.78,-116.23 333.51,-118.83 343.16,-123.2 343.78,-116.23"/>
</a>
</g>
</g>
<!-- Node21&#45;&gt;Node14 -->
<g id="edge39_Node000021_Node000014" class="edge">
<title>Node21&#45;&gt;Node14</title>
<g id="a_edge39_Node000021_Node000014"><a xlink:title=" ">
<path fill="none" stroke="#63b8ff" d="M857.84,-158.83C837.95,-146.52 796.97,-122.09 760,-106 729,-92.51 692.4,-80.75 665.61,-72.88"/>
<polygon fill="#63b8ff" stroke="#63b8ff" points="666.43,-69.47 655.85,-70.05 664.49,-76.2 666.43,-69.47"/>
</a>
</g>
</g>
<!-- Node21&#45;&gt;Node19 -->
<g id="edge32_Node000021_Node000019" class="edge">
<title>Node21&#45;&gt;Node19</title>
<g id="a_edge32_Node000021_Node000019"><a xlink:title=" ">
<path fill="none" stroke="#63b8ff" d="M899.36,-158.97C936.42,-149.48 999.89,-133.21 1037.8,-123.5"/>
<polygon fill="#63b8ff" stroke="#63b8ff" points="1038.95,-126.81 1047.77,-120.94 1037.22,-120.03 1038.95,-126.81"/>
</a>
</g>
</g>
<!-- Node22 -->
<g id="Node000022" class="node">
<title>Node22</title>
<g id="a_Node000022"><a xlink:title=" ">
<polygon fill="#e0e0e0" stroke="#999999" points="927.5,-123 888.5,-123 888.5,-106 927.5,-106 927.5,-123"/>
<text text-anchor="middle" x="908" y="-112.6" font-family="Helvetica,sans-Serif" font-size="8.00">cstdint</text>
</a>
</g>
</g>
<!-- Node21&#45;&gt;Node22 -->
<g id="edge34_Node000021_Node000022" class="edge">
<title>Node21&#45;&gt;Node22</title>
<g id="a_edge34_Node000021_Node000022"><a xlink:title=" ">
<path fill="none" stroke="#63b8ff" d="M875.61,-158.97C881.05,-151.67 889.48,-140.35 896.38,-131.1"/>
<polygon fill="#63b8ff" stroke="#63b8ff" points="899.2,-133.17 902.37,-123.06 893.59,-128.98 899.2,-133.17"/>
</a>
</g>
</g>
<!-- Node23 -->
<g id="Node000023" class="node">
<title>Node23</title>
<g id="a_Node000023"><a xlink:title=" ">
<polygon fill="#e0e0e0" stroke="#999999" points="978,-123 946,-123 946,-106 978,-106 978,-123"/>
<text text-anchor="middle" x="962" y="-112.6" font-family="Helvetica,sans-Serif" font-size="8.00">map</text>
</a>
</g>
</g>
<!-- Node21&#45;&gt;Node23 -->
<g id="edge35_Node000021_Node000023" class="edge">
<title>Node21&#45;&gt;Node23</title>
<g id="a_edge35_Node000021_Node000023"><a xlink:title=" ">
<path fill="none" stroke="#63b8ff" d="M883.57,-158.97C898.25,-150.84 921.89,-137.74 939.38,-128.04"/>
<polygon fill="#63b8ff" stroke="#63b8ff" points="941.32,-130.97 948.37,-123.06 937.93,-124.84 941.32,-130.97"/>
</a>
</g>
</g>
<!-- Node24 -->
<g id="Node000024" class="node">
<title>Node24</title>
<g id="a_Node000024"><a xlink:title=" ">
<polygon fill="#e0e0e0" stroke="#999999" points="1030,-123 996,-123 996,-106 1030,-106 1030,-123"/>
<text text-anchor="middle" x="1013" y="-112.6" font-family="Helvetica,sans-Serif" font-size="8.00">utility</text>
</a>
</g>
</g>
<!-- Node21&#45;&gt;Node24 -->
<g id="edge36_Node000021_Node000024" class="edge">
<title>Node21&#45;&gt;Node24</title>
<g id="a_edge36_Node000021_Node000024"><a xlink:title=" ">
<path fill="none" stroke="#63b8ff" d="M891.1,-158.97C916.31,-149.98 958.54,-134.92 986.08,-125.1"/>
<polygon fill="#63b8ff" stroke="#63b8ff" points="987.61,-128.27 995.85,-121.62 985.26,-121.68 987.61,-128.27"/>
</a>
</g>
</g>
<!-- Node25&#45;&gt;Node2 -->
<g id="edge43_Node000025_Node000002" class="edge">
<title>Node25&#45;&gt;Node2</title>
<g id="a_edge43_Node000025_Node000002"><a xlink:title=" ">
<path fill="none" stroke="#63b8ff" d="M476,-158.93C476,-135.26 476,-62.19 476,-27.78"/>
<polygon fill="#63b8ff" stroke="#63b8ff" points="479.5,-27.37 476,-17.37 472.5,-27.37 479.5,-27.37"/>
</a>
</g>
</g>
<!-- Node25&#45;&gt;Node3 -->
<g id="edge46_Node000025_Node000003" class="edge">
<title>Node25&#45;&gt;Node3</title>
<g id="a_edge46_Node000025_Node000003"><a xlink:title=" ">
<path fill="none" stroke="#63b8ff" d="M488.54,-158.97C501.98,-150.91 523.54,-137.98 539.65,-128.31"/>
<polygon fill="#63b8ff" stroke="#63b8ff" points="541.63,-131.2 548.41,-123.06 538.03,-125.2 541.63,-131.2"/>
</a>
</g>
</g>
<!-- Node25&#45;&gt;Node7 -->
<g id="edge44_Node000025_Node000007" class="edge">
<title>Node25&#45;&gt;Node7</title>
<g id="a_edge44_Node000025_Node000007"><a xlink:title=" ">
<path fill="none" stroke="#63b8ff" d="M439.77,-163.94C393.91,-159.73 313.14,-149.03 249,-123 233.9,-116.87 198.1,-92.07 175.88,-76.18"/>
<polygon fill="#63b8ff" stroke="#63b8ff" points="177.71,-73.2 167.55,-70.2 173.63,-78.88 177.71,-73.2"/>
</a>
</g>
</g>
<!-- Node25&#45;&gt;Node9 -->
<g id="edge45_Node000025_Node000009" class="edge">
<title>Node25&#45;&gt;Node9</title>
<g id="a_edge45_Node000025_Node000009"><a xlink:title=" ">
<path fill="none" stroke="#63b8ff" d="M471.87,-158.68C462.98,-141.89 441.91,-102.04 429.86,-79.25"/>
<polygon fill="#63b8ff" stroke="#63b8ff" points="432.8,-77.33 425.03,-70.12 426.61,-80.6 432.8,-77.33"/>
</a>
</g>
</g>
<!-- Node25&#45;&gt;Node10 -->
<g id="edge47_Node000025_Node000010" class="edge">
<title>Node25&#45;&gt;Node10</title>
<g id="a_edge47_Node000025_Node000010"><a xlink:title=" ">
<path fill="none" stroke="#63b8ff" d="M449.44,-158.97C418.47,-150.2 367.09,-135.64 332.41,-125.82"/>
<polygon fill="#63b8ff" stroke="#63b8ff" points="333.24,-122.41 322.67,-123.06 331.34,-129.15 333.24,-122.41"/>
</a>
</g>
</g>
<!-- Node25&#45;&gt;Node14 -->
<g id="edge48_Node000025_Node000014" class="edge">
<title>Node25&#45;&gt;Node14</title>
<g id="a_edge48_Node000025_Node000014"><a xlink:title=" ">
<path fill="none" stroke="#63b8ff" d="M481.56,-158.91C490.98,-146.49 511.19,-121.65 533,-106 552.2,-92.22 576.47,-81.2 595.67,-73.7"/>
<polygon fill="#63b8ff" stroke="#63b8ff" points="597.07,-76.91 605.19,-70.1 594.6,-70.36 597.07,-76.91"/>
</a>
</g>
</g>
</g>
</svg>
