<?xml version="1.0" encoding="UTF-8" standalone="no"?>
<!DOCTYPE svg PUBLIC "-//W3C//DTD SVG 1.1//EN"
 "http://www.w3.org/Graphics/SVG/1.1/DTD/svg11.dtd">
<!-- Generated by graphviz version 2.43.0 (0)
 -->
<!-- Title: gdfs.hpp Pages: 1 -->
<svg width="1227pt" height="290pt"
 viewBox="0.00 0.00 1226.75 290.00" xmlns="http://www.w3.org/2000/svg" xmlns:xlink="http://www.w3.org/1999/xlink">
<g id="graph0" class="graph" transform="scale(1 1) rotate(0) translate(4 286)">
<title>gdfs.hpp</title>
<!-- Node1 -->
<g id="Node000001" class="node">
<title>Node1</title>
<g id="a_Node000001"><a xlink:title=" ">
<polygon fill="#999999" stroke="#666666" points="524.5,-282 477.5,-282 477.5,-265 524.5,-265 524.5,-282"/>
<text text-anchor="middle" x="501" y="-271.6" font-family="Helvetica,sans-Serif" font-size="8.00">gdfs.hpp</text>
</a>
</g>
</g>
<!-- Node2 -->
<g id="Node000002" class="node">
<title>Node2</title>
<g id="a_Node000002"><a xlink:title=" ">
<polygon fill="#e0e0e0" stroke="#999999" points="491,-17 449,-17 449,0 491,0 491,-17"/>
<text text-anchor="middle" x="470" y="-6.6" font-family="Helvetica,sans-Serif" font-size="8.00">cstddef</text>
</a>
</g>
</g>
<!-- Node1&#45;&gt;Node2 -->
<g id="edge1_Node000001_Node000002" class="edge">
<title>Node1&#45;&gt;Node2</title>
<g id="a_edge1_Node000001_Node000002"><a xlink:title=" ">
<path fill="none" stroke="#63b8ff" d="M477.17,-272.7C377.61,-272.91 0,-267.22 0,-168.5 0,-168.5 0,-168.5 0,-113.5 0,-80.25 15.18,-69.57 44,-53 111.28,-14.31 352.18,-9.79 438.75,-9.45"/>
<polygon fill="#63b8ff" stroke="#63b8ff" points="438.76,-12.95 448.75,-9.42 438.74,-5.95 438.76,-12.95"/>
</a>
</g>
</g>
<!-- Node3 -->
<g id="Node000003" class="node">
<title>Node3</title>
<g id="a_Node000003"><a xlink:title=" ">
<polygon fill="#e0e0e0" stroke="#999999" points="549,-123 511,-123 511,-106 549,-106 549,-123"/>
<text text-anchor="middle" x="530" y="-112.6" font-family="Helvetica,sans-Serif" font-size="8.00">vector</text>
</a>
</g>
</g>
<!-- Node1&#45;&gt;Node3 -->
<g id="edge2_Node000001_Node000003" class="edge">
<title>Node1&#45;&gt;Node3</title>
<g id="a_edge2_Node000001_Node000003"><a xlink:title=" ">
<path fill="none" stroke="#63b8ff" d="M502.4,-264.93C506.79,-241.15 520.38,-167.56 526.71,-133.33"/>
<polygon fill="#63b8ff" stroke="#63b8ff" points="530.17,-133.84 528.55,-123.37 523.29,-132.56 530.17,-133.84"/>
</a>
</g>
</g>
<!-- Node4 -->
<g id="Node000004" class="node">
<title>Node4</title>
<g id="a_Node000004"><a xlink:href="../../d8/d62/existence__set_8hpp.html" target="_top" xlink:title=" ">
<polygon fill="white" stroke="#666666" points="498.5,-176 351.5,-176 351.5,-159 498.5,-159 498.5,-176"/>
<text text-anchor="middle" x="425" y="-165.6" font-family="Helvetica,sans-Serif" font-size="8.00">../types/containers/existence_set.hpp</text>
</a>
</g>
</g>
<!-- Node1&#45;&gt;Node4 -->
<g id="edge3_Node000001_Node000004" class="edge">
<title>Node1&#45;&gt;Node4</title>
<g id="a_edge3_Node000001_Node000004"><a xlink:title=" ">
<path fill="none" stroke="#63b8ff" d="M495.29,-264.68C482.85,-247.66 453.1,-206.95 436.57,-184.34"/>
<polygon fill="#63b8ff" stroke="#63b8ff" points="439.3,-182.13 430.57,-176.12 433.65,-186.26 439.3,-182.13"/>
</a>
</g>
</g>
<!-- Node9 -->
<g id="Node000009" class="node">
<title>Node9</title>
<g id="a_Node000009"><a xlink:href="../../df/d93/utils_8hpp.html" target="_top" xlink:title=" ">
<polygon fill="white" stroke="#666666" points="264.5,-123 189.5,-123 189.5,-106 264.5,-106 264.5,-123"/>
<text text-anchor="middle" x="227" y="-112.6" font-family="Helvetica,sans-Serif" font-size="8.00">../../utils/utils.hpp</text>
</a>
</g>
</g>
<!-- Node1&#45;&gt;Node9 -->
<g id="edge26_Node000001_Node000009" class="edge">
<title>Node1&#45;&gt;Node9</title>
<g id="a_edge26_Node000001_Node000009"><a xlink:title=" ">
<path fill="none" stroke="#63b8ff" d="M477.45,-270.2C427.9,-264.11 312.15,-243.12 248,-176 236.95,-164.44 231.69,-146.77 229.2,-133.5"/>
<polygon fill="#63b8ff" stroke="#63b8ff" points="232.6,-132.61 227.65,-123.24 225.68,-133.65 232.6,-132.61"/>
</a>
</g>
</g>
<!-- Node13 -->
<g id="Node000013" class="node">
<title>Node13</title>
<g id="a_Node000013"><a xlink:href="../../d7/d65/intrinsics_8hpp.html" target="_top" xlink:title=" ">
<polygon fill="#fff0f0" stroke="red" points="790.5,-70 705.5,-70 705.5,-53 790.5,-53 790.5,-70"/>
<text text-anchor="middle" x="748" y="-59.6" font-family="Helvetica,sans-Serif" font-size="8.00">../utils/intrinsics.hpp</text>
</a>
</g>
</g>
<!-- Node1&#45;&gt;Node13 -->
<g id="edge50_Node000001_Node000013" class="edge">
<title>Node1&#45;&gt;Node13</title>
<g id="a_edge50_Node000001_Node000013"><a xlink:title=" ">
<path fill="none" stroke="#63b8ff" d="M524.72,-271.07C641.29,-263.81 1149.57,-229.22 1193,-176 1235.65,-123.74 1237.63,-151.69 1098,-106 996.43,-72.76 870.66,-64.63 800.91,-62.81"/>
<polygon fill="#63b8ff" stroke="#63b8ff" points="800.7,-59.31 790.62,-62.58 800.54,-66.31 800.7,-59.31"/>
</a>
</g>
</g>
<!-- Node16 -->
<g id="Node000016" class="node">
<title>Node16</title>
<g id="a_Node000016"><a xlink:href="../../df/d47/stack_8hpp.html" target="_top" xlink:title=" ">
<polygon fill="white" stroke="#666666" points="672.5,-176 555.5,-176 555.5,-159 672.5,-159 672.5,-176"/>
<text text-anchor="middle" x="614" y="-165.6" font-family="Helvetica,sans-Serif" font-size="8.00">../types/containers/stack.hpp</text>
</a>
</g>
</g>
<!-- Node1&#45;&gt;Node16 -->
<g id="edge21_Node000001_Node000016" class="edge">
<title>Node1&#45;&gt;Node16</title>
<g id="a_edge21_Node000001_Node000016"><a xlink:title=" ">
<path fill="none" stroke="#63b8ff" d="M509.49,-264.68C528.32,-247.36 573.8,-205.5 598.09,-183.15"/>
<polygon fill="#63b8ff" stroke="#63b8ff" points="600.73,-185.47 605.72,-176.12 595.99,-180.32 600.73,-185.47"/>
</a>
</g>
</g>
<!-- Node17 -->
<g id="Node000017" class="node">
<title>Node17</title>
<g id="a_Node000017"><a xlink:href="../../da/deb/managed__node_8hpp.html" target="_top" xlink:title=" ">
<polygon fill="white" stroke="#666666" points="925,-229 817,-229 817,-212 925,-212 925,-229"/>
<text text-anchor="middle" x="871" y="-218.6" font-family="Helvetica,sans-Serif" font-size="8.00">base/managed_node.hpp</text>
</a>
</g>
</g>
<!-- Node1&#45;&gt;Node17 -->
<g id="edge27_Node000001_Node000017" class="edge">
<title>Node1&#45;&gt;Node17</title>
<g id="a_edge27_Node000001_Node000017"><a xlink:title=" ">
<path fill="none" stroke="#63b8ff" d="M524.71,-269.23C580.75,-261.51 722.94,-241.91 806.66,-230.37"/>
<polygon fill="#63b8ff" stroke="#63b8ff" points="807.4,-233.8 816.82,-228.97 806.44,-226.87 807.4,-233.8"/>
</a>
</g>
</g>
<!-- Node25 -->
<g id="Node000025" class="node">
<title>Node25</title>
<g id="a_Node000025"><a xlink:href="../../d2/d1c/solver_8hpp.html" target="_top" xlink:title=" ">
<polygon fill="white" stroke="#666666" points="329,-176 257,-176 257,-159 329,-159 329,-176"/>
<text text-anchor="middle" x="293" y="-165.6" font-family="Helvetica,sans-Serif" font-size="8.00">base/solver.hpp</text>
</a>
</g>
</g>
<!-- Node1&#45;&gt;Node25 -->
<g id="edge43_Node000001_Node000025" class="edge">
<title>Node1&#45;&gt;Node25</title>
<g id="a_edge43_Node000001_Node000025"><a xlink:title=" ">
<path fill="none" stroke="#63b8ff" d="M485.71,-264.85C449.86,-246.93 360.19,-202.09 317,-180.5"/>
<polygon fill="#63b8ff" stroke="#63b8ff" points="318.55,-177.36 308.04,-176.02 315.42,-183.62 318.55,-177.36"/>
</a>
</g>
</g>
<!-- Node4&#45;&gt;Node2 -->
<g id="edge4_Node000004_Node000002" class="edge">
<title>Node4&#45;&gt;Node2</title>
<g id="a_edge4_Node000004_Node000002"><a xlink:title=" ">
<path fill="none" stroke="#63b8ff" d="M427.17,-158.93C433.98,-135.15 455.08,-61.56 464.89,-27.33"/>
<polygon fill="#63b8ff" stroke="#63b8ff" points="468.35,-27.94 467.75,-17.37 461.63,-26.01 468.35,-27.94"/>
</a>
</g>
</g>
<!-- Node4&#45;&gt;Node3 -->
<g id="edge9_Node000004_Node000003" class="edge">
<title>Node4&#45;&gt;Node3</title>
<g id="a_edge9_Node000004_Node000003"><a xlink:title=" ">
<path fill="none" stroke="#63b8ff" d="M440.49,-158.97C457.55,-150.69 485.22,-137.25 505.28,-127.5"/>
<polygon fill="#63b8ff" stroke="#63b8ff" points="506.98,-130.57 514.44,-123.06 503.92,-124.28 506.98,-130.57"/>
</a>
</g>
</g>
<!-- Node5 -->
<g id="Node000005" class="node">
<title>Node5</title>
<g id="a_Node000005"><a xlink:title=" ">
<polygon fill="#e0e0e0" stroke="#999999" points="390,-70 340,-70 340,-53 390,-53 390,-70"/>
<text text-anchor="middle" x="365" y="-59.6" font-family="Helvetica,sans-Serif" font-size="8.00">functional</text>
</a>
</g>
</g>
<!-- Node4&#45;&gt;Node5 -->
<g id="edge5_Node000004_Node000005" class="edge">
<title>Node4&#45;&gt;Node5</title>
<g id="a_edge5_Node000004_Node000005"><a xlink:title=" ">
<path fill="none" stroke="#63b8ff" d="M420.49,-158.68C410.76,-141.81 387.6,-101.68 374.49,-78.94"/>
<polygon fill="#63b8ff" stroke="#63b8ff" points="377.43,-77.04 369.4,-70.12 371.36,-80.54 377.43,-77.04"/>
</a>
</g>
</g>
<!-- Node6 -->
<g id="Node000006" class="node">
<title>Node6</title>
<g id="a_Node000006"><a xlink:title=" ">
<polygon fill="#e0e0e0" stroke="#999999" points="442,-70 408,-70 408,-53 442,-53 442,-70"/>
<text text-anchor="middle" x="425" y="-59.6" font-family="Helvetica,sans-Serif" font-size="8.00">limits</text>
</a>
</g>
</g>
<!-- Node4&#45;&gt;Node6 -->
<g id="edge6_Node000004_Node000006" class="edge">
<title>Node4&#45;&gt;Node6</title>
<g id="a_edge6_Node000004_Node000006"><a xlink:title=" ">
<path fill="none" stroke="#63b8ff" d="M425,-158.68C425,-142.11 425,-103.11 425,-80.18"/>
<polygon fill="#63b8ff" stroke="#63b8ff" points="428.5,-80.12 425,-70.12 421.5,-80.13 428.5,-80.12"/>
</a>
</g>
</g>
<!-- Node7 -->
<g id="Node000007" class="node">
<title>Node7</title>
<g id="a_Node000007"><a xlink:title=" ">
<polygon fill="#e0e0e0" stroke="#999999" points="649,-123 567,-123 567,-106 649,-106 649,-123"/>
<text text-anchor="middle" x="608" y="-112.6" font-family="Helvetica,sans-Serif" font-size="8.00">memory_resource</text>
</a>
</g>
</g>
<!-- Node4&#45;&gt;Node7 -->
<g id="edge7_Node000004_Node000007" class="edge">
<title>Node4&#45;&gt;Node7</title>
<g id="a_edge7_Node000004_Node000007"><a xlink:title=" ">
<path fill="none" stroke="#63b8ff" d="M452,-158.97C483.49,-150.2 535.72,-135.64 570.98,-125.82"/>
<polygon fill="#63b8ff" stroke="#63b8ff" points="572.19,-129.11 580.89,-123.06 570.31,-122.37 572.19,-129.11"/>
</a>
</g>
</g>
<!-- Node8 -->
<g id="Node000008" class="node">
<title>Node8</title>
<g id="a_Node000008"><a xlink:title=" ">
<polygon fill="#e0e0e0" stroke="#999999" points="119.5,-70 66.5,-70 66.5,-53 119.5,-53 119.5,-70"/>
<text text-anchor="middle" x="93" y="-59.6" font-family="Helvetica,sans-Serif" font-size="8.00">type_traits</text>
</a>
</g>
</g>
<!-- Node4&#45;&gt;Node8 -->
<g id="edge8_Node000004_Node000008" class="edge">
<title>Node4&#45;&gt;Node8</title>
<g id="a_edge8_Node000004_Node000008"><a xlink:title=" ">
<path fill="none" stroke="#63b8ff" d="M366.06,-159C304.64,-150.66 212.84,-136.56 180,-123 152.78,-111.76 125.58,-90.92 109.02,-76.88"/>
<polygon fill="#63b8ff" stroke="#63b8ff" points="111.23,-74.16 101.39,-70.24 106.64,-79.45 111.23,-74.16"/>
</a>
</g>
</g>
<!-- Node4&#45;&gt;Node9 -->
<g id="edge10_Node000004_Node000009" class="edge">
<title>Node4&#45;&gt;Node9</title>
<g id="a_edge10_Node000004_Node000009"><a xlink:title=" ">
<path fill="none" stroke="#63b8ff" d="M395.78,-158.97C361.42,-150.12 304.23,-135.39 266.08,-125.57"/>
<polygon fill="#63b8ff" stroke="#63b8ff" points="266.89,-122.16 256.34,-123.06 265.15,-128.94 266.89,-122.16"/>
</a>
</g>
</g>
<!-- Node4&#45;&gt;Node13 -->
<g id="edge20_Node000004_Node000013" class="edge">
<title>Node4&#45;&gt;Node13</title>
<g id="a_edge20_Node000004_Node000013"><a xlink:title=" ">
<path fill="none" stroke="#63b8ff" d="M432.24,-158.72C444.97,-145.56 472.82,-119.05 502,-106 564.6,-78.01 643.71,-68 695.06,-64.44"/>
<polygon fill="#63b8ff" stroke="#63b8ff" points="695.5,-67.92 705.26,-63.79 695.06,-60.93 695.5,-67.92"/>
</a>
</g>
</g>
<!-- Node9&#45;&gt;Node2 -->
<g id="edge13_Node000009_Node000002" class="edge">
<title>Node9&#45;&gt;Node2</title>
<g id="a_edge13_Node000009_Node000002"><a xlink:title=" ">
<path fill="none" stroke="#63b8ff" d="M238.1,-105.92C256.66,-93.51 295.45,-68.67 331,-53 366.86,-37.2 410.24,-24.59 438.89,-17.09"/>
<polygon fill="#63b8ff" stroke="#63b8ff" points="439.93,-20.44 448.74,-14.57 438.19,-13.66 439.93,-20.44"/>
</a>
</g>
</g>
<!-- Node9&#45;&gt;Node5 -->
<g id="edge14_Node000009_Node000005" class="edge">
<title>Node9&#45;&gt;Node5</title>
<g id="a_edge14_Node000009_Node000005"><a xlink:title=" ">
<path fill="none" stroke="#63b8ff" d="M247.36,-105.97C270.5,-97.42 308.48,-83.39 335,-73.59"/>
<polygon fill="#63b8ff" stroke="#63b8ff" points="336.39,-76.81 344.55,-70.06 333.96,-70.24 336.39,-76.81"/>
</a>
</g>
</g>
<!-- Node9&#45;&gt;Node6 -->
<g id="edge15_Node000009_Node000006" class="edge">
<title>Node9&#45;&gt;Node6</title>
<g id="a_edge15_Node000009_Node000006"><a xlink:title=" ">
<path fill="none" stroke="#63b8ff" d="M258.15,-105.95C290.72,-97.99 343.53,-84.87 398.11,-70.17"/>
<polygon fill="#63b8ff" stroke="#63b8ff" points="399.22,-73.49 407.96,-67.5 397.39,-66.74 399.22,-73.49"/>
</a>
</g>
</g>
<!-- Node9&#45;&gt;Node8 -->
<g id="edge17_Node000009_Node000008" class="edge">
<title>Node9&#45;&gt;Node8</title>
<g id="a_edge17_Node000009_Node000008"><a xlink:title=" ">
<path fill="none" stroke="#63b8ff" d="M207.23,-105.97C184.86,-97.46 148.21,-83.51 122.47,-73.72"/>
<polygon fill="#63b8ff" stroke="#63b8ff" points="123.44,-70.34 112.85,-70.06 120.95,-76.88 123.44,-70.34"/>
</a>
</g>
</g>
<!-- Node10 -->
<g id="Node000010" class="node">
<title>Node10</title>
<g id="a_Node000010"><a xlink:title=" ">
<polygon fill="#e0e0e0" stroke="#999999" points="227.5,-70 192.5,-70 192.5,-53 227.5,-53 227.5,-70"/>
<text text-anchor="middle" x="210" y="-59.6" font-family="Helvetica,sans-Serif" font-size="8.00">array</text>
</a>
</g>
</g>
<!-- Node9&#45;&gt;Node10 -->
<g id="edge11_Node000009_Node000010" class="edge">
<title>Node9&#45;&gt;Node10</title>
<g id="a_edge11_Node000009_Node000010"><a xlink:title=" ">
<path fill="none" stroke="#63b8ff" d="M224.49,-105.97C222.18,-99.04 218.67,-88.51 215.68,-79.55"/>
<polygon fill="#63b8ff" stroke="#63b8ff" points="219,-78.44 212.52,-70.06 212.36,-80.65 219,-78.44"/>
</a>
</g>
</g>
<!-- Node11 -->
<g id="Node000011" class="node">
<title>Node11</title>
<g id="a_Node000011"><a xlink:title=" ">
<polygon fill="#e0e0e0" stroke="#999999" points="284,-70 246,-70 246,-53 284,-53 284,-70"/>
<text text-anchor="middle" x="265" y="-59.6" font-family="Helvetica,sans-Serif" font-size="8.00">cmath</text>
</a>
</g>
</g>
<!-- Node9&#45;&gt;Node11 -->
<g id="edge12_Node000009_Node000011" class="edge">
<title>Node9&#45;&gt;Node11</title>
<g id="a_edge12_Node000009_Node000011"><a xlink:title=" ">
<path fill="none" stroke="#63b8ff" d="M232.61,-105.97C238.05,-98.67 246.48,-87.35 253.38,-78.1"/>
<polygon fill="#63b8ff" stroke="#63b8ff" points="256.2,-80.17 259.37,-70.06 250.59,-75.98 256.2,-80.17"/>
</a>
</g>
</g>
<!-- Node12 -->
<g id="Node000012" class="node">
<title>Node12</title>
<g id="a_Node000012"><a xlink:title=" ">
<polygon fill="#e0e0e0" stroke="#999999" points="174,-70 138,-70 138,-53 174,-53 174,-70"/>
<text text-anchor="middle" x="156" y="-59.6" font-family="Helvetica,sans-Serif" font-size="8.00">string</text>
</a>
</g>
</g>
<!-- Node9&#45;&gt;Node12 -->
<g id="edge16_Node000009_Node000012" class="edge">
<title>Node9&#45;&gt;Node12</title>
<g id="a_edge16_Node000009_Node000012"><a xlink:title=" ">
<path fill="none" stroke="#63b8ff" d="M216.52,-105.97C205.62,-98.14 188.3,-85.7 174.98,-76.13"/>
<polygon fill="#63b8ff" stroke="#63b8ff" points="176.68,-73.05 166.52,-70.06 172.6,-78.73 176.68,-73.05"/>
</a>
</g>
</g>
<!-- Node9&#45;&gt;Node13 -->
<g id="edge18_Node000009_Node000013" class="edge">
<title>Node9&#45;&gt;Node13</title>
<g id="a_edge18_Node000009_Node000013"><a xlink:title=" ">
<path fill="none" stroke="#63b8ff" d="M264.89,-109.79C356.44,-100.83 589.89,-77.98 695.13,-67.68"/>
<polygon fill="#63b8ff" stroke="#63b8ff" points="695.6,-71.15 705.21,-66.69 694.92,-64.18 695.6,-71.15"/>
</a>
</g>
</g>
<!-- Node13&#45;&gt;Node2 -->
<g id="edge19_Node000013_Node000002" class="edge">
<title>Node13&#45;&gt;Node2</title>
<g id="a_edge19_Node000013_Node000002"><a xlink:title=" ">
<path fill="none" stroke="#63b8ff" d="M706.98,-52.97C650.86,-42.68 551.38,-24.43 501.04,-15.19"/>
<polygon fill="#63b8ff" stroke="#63b8ff" points="501.54,-11.73 491.07,-13.37 500.28,-18.61 501.54,-11.73"/>
</a>
</g>
</g>
<!-- Node16&#45;&gt;Node2 -->
<g id="edge22_Node000016_Node000002" class="edge">
<title>Node16&#45;&gt;Node2</title>
<g id="a_edge22_Node000016_Node000002"><a xlink:title=" ">
<path fill="none" stroke="#63b8ff" d="M626.55,-158.94C643.48,-147.76 670.18,-125.95 658,-106 623.66,-49.77 544.97,-24.94 501.06,-15.13"/>
<polygon fill="#63b8ff" stroke="#63b8ff" points="501.72,-11.69 491.21,-13.05 500.27,-18.54 501.72,-11.69"/>
</a>
</g>
</g>
<!-- Node16&#45;&gt;Node3 -->
<g id="edge24_Node000016_Node000003" class="edge">
<title>Node16&#45;&gt;Node3</title>
<g id="a_edge24_Node000016_Node000003"><a xlink:title=" ">
<path fill="none" stroke="#63b8ff" d="M601.61,-158.97C588.33,-150.91 567.02,-137.98 551.1,-128.31"/>
<polygon fill="#63b8ff" stroke="#63b8ff" points="552.81,-125.25 542.45,-123.06 549.18,-131.24 552.81,-125.25"/>
</a>
</g>
</g>
<!-- Node16&#45;&gt;Node7 -->
<g id="edge23_Node000016_Node000007" class="edge">
<title>Node16&#45;&gt;Node7</title>
<g id="a_edge23_Node000016_Node000007"><a xlink:title=" ">
<path fill="none" stroke="#63b8ff" d="M613.11,-158.97C612.32,-152.19 611.11,-141.97 610.07,-133.13"/>
<polygon fill="#63b8ff" stroke="#63b8ff" points="613.53,-132.58 608.89,-123.06 606.58,-133.4 613.53,-132.58"/>
</a>
</g>
</g>
<!-- Node16&#45;&gt;Node13 -->
<g id="edge25_Node000016_Node000013" class="edge">
<title>Node16&#45;&gt;Node13</title>
<g id="a_edge25_Node000016_Node000013"><a xlink:title=" ">
<path fill="none" stroke="#63b8ff" d="M630.51,-158.98C646.74,-151.19 671.78,-138.06 691,-123 707.98,-109.69 724.57,-91.29 735.43,-78.29"/>
<polygon fill="#63b8ff" stroke="#63b8ff" points="738.36,-80.24 741.97,-70.28 732.93,-75.81 738.36,-80.24"/>
</a>
</g>
</g>
<!-- Node17&#45;&gt;Node13 -->
<g id="edge42_Node000017_Node000013" class="edge">
<title>Node17&#45;&gt;Node13</title>
<g id="a_edge42_Node000017_Node000013"><a xlink:title=" ">
<path fill="none" stroke="#63b8ff" d="M918.85,-211.97C995.21,-198.03 1131.06,-164.19 1080,-106 1061.9,-85.38 889.97,-71.52 800.91,-65.66"/>
<polygon fill="#63b8ff" stroke="#63b8ff" points="800.95,-62.15 790.74,-65 800.49,-69.14 800.95,-62.15"/>
</a>
</g>
</g>
<!-- Node18 -->
<g id="Node000018" class="node">
<title>Node18</title>
<g id="a_Node000018"><a xlink:title=" ">
<polygon fill="#e0e0e0" stroke="#999999" points="785,-123 743,-123 743,-106 785,-106 785,-123"/>
<text text-anchor="middle" x="764" y="-112.6" font-family="Helvetica,sans-Serif" font-size="8.00">cassert</text>
</a>
</g>
</g>
<!-- Node17&#45;&gt;Node18 -->
<g id="edge28_Node000017_Node000018" class="edge">
<title>Node17&#45;&gt;Node18</title>
<g id="a_edge28_Node000017_Node000018"><a xlink:title=" ">
<path fill="none" stroke="#63b8ff" d="M843.54,-211.95C824.39,-205.37 799.58,-194.01 784,-176 773.59,-163.96 768.56,-146.35 766.16,-133.23"/>
<polygon fill="#63b8ff" stroke="#63b8ff" points="769.58,-132.48 764.65,-123.11 762.66,-133.51 769.58,-132.48"/>
</a>
</g>
</g>
<!-- Node19 -->
<g id="Node000019" class="node">
<title>Node19</title>
<g id="a_Node000019"><a xlink:href="../../dc/d3c/bnode_8hpp.html" target="_top" xlink:title=" ">
<polygon fill="white" stroke="#666666" points="1183.5,-176 1128.5,-176 1128.5,-159 1183.5,-159 1183.5,-176"/>
<text text-anchor="middle" x="1156" y="-165.6" font-family="Helvetica,sans-Serif" font-size="8.00">bnode.hpp</text>
</a>
</g>
</g>
<!-- Node17&#45;&gt;Node19 -->
<g id="edge29_Node000017_Node000019" class="edge">
<title>Node17&#45;&gt;Node19</title>
<g id="a_edge29_Node000017_Node000019"><a xlink:title=" ">
<path fill="none" stroke="#63b8ff" d="M913.05,-211.97C968.5,-202.05 1065.24,-184.74 1118.38,-175.23"/>
<polygon fill="#63b8ff" stroke="#63b8ff" points="1119.18,-178.64 1128.41,-173.44 1117.95,-171.75 1119.18,-178.64"/>
</a>
</g>
</g>
<!-- Node20 -->
<g id="Node000020" class="node">
<title>Node20</title>
<g id="a_Node000020"><a xlink:href="../../d9/df8/heterogeneous__pool_8hpp.html" target="_top" xlink:title=" ">
<polygon fill="white" stroke="#666666" points="949.5,-176 792.5,-176 792.5,-159 949.5,-159 949.5,-176"/>
<text text-anchor="middle" x="871" y="-165.6" font-family="Helvetica,sans-Serif" font-size="8.00">../../types/pmr/heterogeneous_pool.hpp</text>
</a>
</g>
</g>
<!-- Node17&#45;&gt;Node20 -->
<g id="edge30_Node000017_Node000020" class="edge">
<title>Node17&#45;&gt;Node20</title>
<g id="a_edge30_Node000017_Node000020"><a xlink:title=" ">
<path fill="none" stroke="#63b8ff" d="M871,-211.97C871,-205.19 871,-194.97 871,-186.13"/>
<polygon fill="#63b8ff" stroke="#63b8ff" points="874.5,-186.06 871,-176.06 867.5,-186.06 874.5,-186.06"/>
</a>
</g>
</g>
<!-- Node20&#45;&gt;Node2 -->
<g id="edge32_Node000020_Node000002" class="edge">
<title>Node20&#45;&gt;Node2</title>
<g id="a_edge32_Node000020_Node000002"><a xlink:title=" ">
<path fill="none" stroke="#63b8ff" d="M949.65,-160.32C1001.79,-154.41 1063.51,-143.27 1080,-123 1084.77,-117.14 1084.82,-111.82 1080,-106 1005.45,-16.02 615.63,-9.31 501.45,-9.3"/>
<polygon fill="#63b8ff" stroke="#63b8ff" points="501.28,-5.8 491.28,-9.32 501.29,-12.8 501.28,-5.8"/>
</a>
</g>
</g>
<!-- Node20&#45;&gt;Node3 -->
<g id="edge38_Node000020_Node000003" class="edge">
<title>Node20&#45;&gt;Node3</title>
<g id="a_edge38_Node000020_Node000003"><a xlink:title=" ">
<path fill="none" stroke="#63b8ff" d="M798.47,-158.99C737.05,-152.05 646.56,-140.44 559.03,-122.97"/>
<polygon fill="#63b8ff" stroke="#63b8ff" points="559.7,-119.53 549.21,-120.98 558.31,-126.39 559.7,-119.53"/>
</a>
</g>
</g>
<!-- Node20&#45;&gt;Node6 -->
<g id="edge34_Node000020_Node000006" class="edge">
<title>Node20&#45;&gt;Node6</title>
<g id="a_edge34_Node000020_Node000006"><a xlink:title=" ">
<path fill="none" stroke="#63b8ff" d="M864.24,-158.97C851.81,-145.68 823.86,-118.33 794,-106 731.92,-80.36 526.64,-67.65 452.24,-63.8"/>
<polygon fill="#63b8ff" stroke="#63b8ff" points="452.4,-60.3 442.24,-63.3 452.05,-67.29 452.4,-60.3"/>
</a>
</g>
</g>
<!-- Node20&#45;&gt;Node7 -->
<g id="edge39_Node000020_Node000007" class="edge">
<title>Node20&#45;&gt;Node7</title>
<g id="a_edge39_Node000020_Node000007"><a xlink:title=" ">
<path fill="none" stroke="#63b8ff" d="M832.19,-158.97C785.67,-149.95 707.66,-134.83 657.02,-125.01"/>
<polygon fill="#63b8ff" stroke="#63b8ff" points="657.45,-121.52 646.97,-123.06 656.12,-128.4 657.45,-121.52"/>
</a>
</g>
</g>
<!-- Node20&#45;&gt;Node9 -->
<g id="edge41_Node000020_Node000009" class="edge">
<title>Node20&#45;&gt;Node9</title>
<g id="a_edge41_Node000020_Node000009"><a xlink:title=" ">
<path fill="none" stroke="#63b8ff" d="M792.36,-160.27C657.29,-149.58 385.17,-128.03 274.97,-119.3"/>
<polygon fill="#63b8ff" stroke="#63b8ff" points="275.07,-115.8 264.82,-118.5 274.51,-122.77 275.07,-115.8"/>
</a>
</g>
</g>
<!-- Node20&#45;&gt;Node13 -->
<g id="edge40_Node000020_Node000013" class="edge">
<title>Node20&#45;&gt;Node13</title>
<g id="a_edge40_Node000020_Node000013"><a xlink:title=" ">
<path fill="none" stroke="#63b8ff" d="M866.99,-158.99C860.14,-146.67 845.12,-121.98 827,-106 812.02,-92.79 792.36,-81.95 776.4,-74.39"/>
<polygon fill="#63b8ff" stroke="#63b8ff" points="777.57,-71.08 767.02,-70.12 774.67,-77.45 777.57,-71.08"/>
</a>
</g>
</g>
<!-- Node20&#45;&gt;Node18 -->
<g id="edge31_Node000020_Node000018" class="edge">
<title>Node20&#45;&gt;Node18</title>
<g id="a_edge31_Node000020_Node000018"><a xlink:title=" ">
<path fill="none" stroke="#63b8ff" d="M855.21,-158.97C837.75,-150.65 809.37,-137.13 788.91,-127.37"/>
<polygon fill="#63b8ff" stroke="#63b8ff" points="790.39,-124.2 779.85,-123.06 787.37,-130.52 790.39,-124.2"/>
</a>
</g>
</g>
<!-- Node21 -->
<g id="Node000021" class="node">
<title>Node21</title>
<g id="a_Node000021"><a xlink:title=" ">
<polygon fill="#e0e0e0" stroke="#999999" points="1070.5,-123 1031.5,-123 1031.5,-106 1070.5,-106 1070.5,-123"/>
<text text-anchor="middle" x="1051" y="-112.6" font-family="Helvetica,sans-Serif" font-size="8.00">cstdint</text>
</a>
</g>
</g>
<!-- Node20&#45;&gt;Node21 -->
<g id="edge33_Node000020_Node000021" class="edge">
<title>Node20&#45;&gt;Node21</title>
<g id="a_edge33_Node000020_Node000021"><a xlink:title=" ">
<path fill="none" stroke="#63b8ff" d="M897.56,-158.97C930.62,-149.61 986.91,-133.66 1021.34,-123.9"/>
<polygon fill="#63b8ff" stroke="#63b8ff" points="1022.61,-127.18 1031.28,-121.09 1020.7,-120.45 1022.61,-127.18"/>
</a>
</g>
</g>
<!-- Node22 -->
<g id="Node000022" class="node">
<title>Node22</title>
<g id="a_Node000022"><a xlink:title=" ">
<polygon fill="#e0e0e0" stroke="#999999" points="911,-123 879,-123 879,-106 911,-106 911,-123"/>
<text text-anchor="middle" x="895" y="-112.6" font-family="Helvetica,sans-Serif" font-size="8.00">map</text>
</a>
</g>
</g>
<!-- Node20&#45;&gt;Node22 -->
<g id="edge35_Node000020_Node000022" class="edge">
<title>Node20&#45;&gt;Node22</title>
<g id="a_edge35_Node000020_Node000022"><a xlink:title=" ">
<path fill="none" stroke="#63b8ff" d="M874.54,-158.97C877.84,-151.97 882.87,-141.28 887.12,-132.25"/>
<polygon fill="#63b8ff" stroke="#63b8ff" points="890.35,-133.59 891.44,-123.06 884.02,-130.61 890.35,-133.59"/>
</a>
</g>
</g>
<!-- Node23 -->
<g id="Node000023" class="node">
<title>Node23</title>
<g id="a_Node000023"><a xlink:title=" ">
<polygon fill="#e0e0e0" stroke="#999999" points="961,-123 929,-123 929,-106 961,-106 961,-123"/>
<text text-anchor="middle" x="945" y="-112.6" font-family="Helvetica,sans-Serif" font-size="8.00">new</text>
</a>
</g>
</g>
<!-- Node20&#45;&gt;Node23 -->
<g id="edge36_Node000020_Node000023" class="edge">
<title>Node20&#45;&gt;Node23</title>
<g id="a_edge36_Node000020_Node000023"><a xlink:title=" ">
<path fill="none" stroke="#63b8ff" d="M881.92,-158.97C893.4,-151.07 911.68,-138.46 925.62,-128.86"/>
<polygon fill="#63b8ff" stroke="#63b8ff" points="927.79,-131.61 934.04,-123.06 923.82,-125.85 927.79,-131.61"/>
</a>
</g>
</g>
<!-- Node24 -->
<g id="Node000024" class="node">
<title>Node24</title>
<g id="a_Node000024"><a xlink:title=" ">
<polygon fill="#e0e0e0" stroke="#999999" points="1013,-123 979,-123 979,-106 1013,-106 1013,-123"/>
<text text-anchor="middle" x="996" y="-112.6" font-family="Helvetica,sans-Serif" font-size="8.00">utility</text>
</a>
</g>
</g>
<!-- Node20&#45;&gt;Node24 -->
<g id="edge37_Node000020_Node000024" class="edge">
<title>Node20&#45;&gt;Node24</title>
<g id="a_edge37_Node000020_Node000024"><a xlink:title=" ">
<path fill="none" stroke="#63b8ff" d="M889.44,-158.97C910.57,-150.35 945.37,-136.16 969.42,-126.34"/>
<polygon fill="#63b8ff" stroke="#63b8ff" points="970.75,-129.58 978.69,-122.56 968.11,-123.1 970.75,-129.58"/>
</a>
</g>
</g>
<!-- Node25&#45;&gt;Node2 -->
<g id="edge44_Node000025_Node000002" class="edge">
<title>Node25&#45;&gt;Node2</title>
<g id="a_edge44_Node000025_Node000002"><a xlink:title=" ">
<path fill="none" stroke="#63b8ff" d="M256.83,-162.48C176.66,-152.23 -4.22,-121 57,-53 82.46,-24.72 346.86,-13.5 438.74,-10.43"/>
<polygon fill="#63b8ff" stroke="#63b8ff" points="438.94,-13.93 448.82,-10.11 438.71,-6.93 438.94,-13.93"/>
</a>
</g>
</g>
<!-- Node25&#45;&gt;Node3 -->
<g id="edge47_Node000025_Node000003" class="edge">
<title>Node25&#45;&gt;Node3</title>
<g id="a_edge47_Node000025_Node000003"><a xlink:title=" ">
<path fill="none" stroke="#63b8ff" d="M327.97,-158.97C374.84,-148.89 457.17,-131.17 500.86,-121.77"/>
<polygon fill="#63b8ff" stroke="#63b8ff" points="501.8,-125.15 510.84,-119.62 500.32,-118.31 501.8,-125.15"/>
</a>
</g>
</g>
<!-- Node25&#45;&gt;Node6 -->
<g id="edge45_Node000025_Node000006" class="edge">
<title>Node25&#45;&gt;Node6</title>
<g id="a_edge45_Node000025_Node000006"><a xlink:title=" ">
<path fill="none" stroke="#63b8ff" d="M299.79,-158.88C310.72,-146.85 333.22,-123.07 355,-106 369.82,-94.38 387.91,-83.21 401.98,-75.1"/>
<polygon fill="#63b8ff" stroke="#63b8ff" points="404.01,-77.97 411,-70.01 400.57,-71.88 404.01,-77.97"/>
</a>
</g>
</g>
<!-- Node25&#45;&gt;Node8 -->
<g id="edge46_Node000025_Node000008" class="edge">
<title>Node25&#45;&gt;Node8</title>
<g id="a_edge46_Node000025_Node000008"><a xlink:title=" ">
<path fill="none" stroke="#63b8ff" d="M256.89,-162.53C224.32,-157.54 176.25,-146.57 141,-123 124.14,-111.72 110.44,-92.65 102.06,-78.93"/>
<polygon fill="#63b8ff" stroke="#63b8ff" points="104.97,-76.97 96.93,-70.07 98.91,-80.48 104.97,-76.97"/>
</a>
</g>
</g>
<!-- Node25&#45;&gt;Node9 -->
<g id="edge48_Node000025_Node000009" class="edge">
<title>Node25&#45;&gt;Node9</title>
<g id="a_edge48_Node000025_Node000009"><a xlink:title=" ">
<path fill="none" stroke="#63b8ff" d="M283.26,-158.97C273.22,-151.22 257.33,-138.94 245,-129.41"/>
<polygon fill="#63b8ff" stroke="#63b8ff" points="246.83,-126.4 236.78,-123.06 242.55,-131.94 246.83,-126.4"/>
</a>
</g>
</g>
<!-- Node25&#45;&gt;Node13 -->
<g id="edge49_Node000025_Node000013" class="edge">
<title>Node25&#45;&gt;Node13</title>
<g id="a_edge49_Node000025_Node000013"><a xlink:title=" ">
<path fill="none" stroke="#63b8ff" d="M311.65,-158.97C343.71,-146.29 411.58,-120.65 471,-106 547.98,-87.02 639.12,-74.59 695.25,-68.05"/>
<polygon fill="#63b8ff" stroke="#63b8ff" points="695.78,-71.51 705.31,-66.9 694.98,-64.56 695.78,-71.51"/>
</a>
</g>
</g>
</g>
</svg>
