<?xml version="1.0" encoding="UTF-8" standalone="no"?>
<!DOCTYPE svg PUBLIC "-//W3C//DTD SVG 1.1//EN"
 "http://www.w3.org/Graphics/SVG/1.1/DTD/svg11.dtd">
<!-- Generated by graphviz version 2.43.0 (0)
 -->
<!-- Title: gdfs.hpp Pages: 1 -->
<svg width="1020pt" height="290pt"
 viewBox="0.00 0.00 1019.50 290.00" xmlns="http://www.w3.org/2000/svg" xmlns:xlink="http://www.w3.org/1999/xlink">
<g id="graph0" class="graph" transform="scale(1 1) rotate(0) translate(4 286)">
<title>gdfs.hpp</title>
<!-- Node1 -->
<g id="Node000001" class="node">
<title>Node1</title>
<g id="a_Node000001"><a xlink:title=" ">
<polygon fill="#999999" stroke="#666666" points="328.5,-282 281.5,-282 281.5,-265 328.5,-265 328.5,-282"/>
<text text-anchor="middle" x="305" y="-271.6" font-family="Helvetica,sans-Serif" font-size="8.00">gdfs.hpp</text>
</a>
</g>
</g>
<!-- Node2 -->
<g id="Node000002" class="node">
<title>Node2</title>
<g id="a_Node000002"><a xlink:title=" ">
<polygon fill="#e0e0e0" stroke="#999999" points="423,-17 381,-17 381,0 423,0 423,-17"/>
<text text-anchor="middle" x="402" y="-6.6" font-family="Helvetica,sans-Serif" font-size="8.00">cstddef</text>
</a>
</g>
</g>
<!-- Node1&#45;&gt;Node2 -->
<g id="edge1_Node000001_Node000002" class="edge">
<title>Node1&#45;&gt;Node2</title>
<g id="a_edge1_Node000001_Node000002"><a xlink:title=" ">
<path fill="none" stroke="#63b8ff" d="M281.32,-269.63C209.66,-260.28 0,-227.87 0,-168.5 0,-168.5 0,-168.5 0,-113.5 0,-79.72 16.71,-69.82 46,-53 100.94,-21.46 293.48,-12.58 370.15,-10.26"/>
<polygon fill="#63b8ff" stroke="#63b8ff" points="370.69,-13.74 380.59,-9.96 370.49,-6.75 370.69,-13.74"/>
</a>
</g>
</g>
<!-- Node3 -->
<g id="Node000003" class="node">
<title>Node3</title>
<g id="a_Node000003"><a xlink:title=" ">
<polygon fill="#e0e0e0" stroke="#999999" points="428,-123 390,-123 390,-106 428,-106 428,-123"/>
<text text-anchor="middle" x="409" y="-112.6" font-family="Helvetica,sans-Serif" font-size="8.00">vector</text>
</a>
</g>
</g>
<!-- Node1&#45;&gt;Node3 -->
<g id="edge2_Node000001_Node000003" class="edge">
<title>Node1&#45;&gt;Node3</title>
<g id="a_edge2_Node000001_Node000003"><a xlink:title=" ">
<path fill="none" stroke="#63b8ff" d="M315.51,-264.84C334.93,-250.06 376.24,-215.55 396,-176 402.69,-162.61 405.95,-145.87 407.53,-133.4"/>
<polygon fill="#63b8ff" stroke="#63b8ff" points="411.02,-133.66 408.56,-123.36 404.06,-132.95 411.02,-133.66"/>
</a>
</g>
</g>
<!-- Node4 -->
<g id="Node000004" class="node">
<title>Node4</title>
<g id="a_Node000004"><a xlink:href="../../d8/d62/existence__set_8hpp.html" target="_top" xlink:title=" ">
<polygon fill="white" stroke="#666666" points="181.5,-176 34.5,-176 34.5,-159 181.5,-159 181.5,-176"/>
<text text-anchor="middle" x="108" y="-165.6" font-family="Helvetica,sans-Serif" font-size="8.00">../types/containers/existence_set.hpp</text>
</a>
</g>
</g>
<!-- Node1&#45;&gt;Node4 -->
<g id="edge3_Node000001_Node000004" class="edge">
<title>Node1&#45;&gt;Node4</title>
<g id="a_edge3_Node000001_Node000004"><a xlink:title=" ">
<path fill="none" stroke="#63b8ff" d="M281.79,-264.93C259.26,-257.19 224.39,-244.18 196,-229 170.38,-215.3 143.16,-195.71 125.89,-182.57"/>
<polygon fill="#63b8ff" stroke="#63b8ff" points="127.88,-179.68 117.83,-176.35 123.61,-185.23 127.88,-179.68"/>
</a>
</g>
</g>
<!-- Node8 -->
<g id="Node000008" class="node">
<title>Node8</title>
<g id="a_Node000008"><a xlink:href="../../df/d93/utils_8hpp.html" target="_top" xlink:title=" ">
<polygon fill="white" stroke="#666666" points="295.5,-123 220.5,-123 220.5,-106 295.5,-106 295.5,-123"/>
<text text-anchor="middle" x="258" y="-112.6" font-family="Helvetica,sans-Serif" font-size="8.00">../../utils/utils.hpp</text>
</a>
</g>
</g>
<!-- Node1&#45;&gt;Node8 -->
<g id="edge23_Node000001_Node000008" class="edge">
<title>Node1&#45;&gt;Node8</title>
<g id="a_edge23_Node000001_Node000008"><a xlink:title=" ">
<path fill="none" stroke="#63b8ff" d="M292.86,-264.89C281.99,-257.3 266.76,-244.55 260,-229 246.29,-197.46 250.34,-156.17 254.31,-133.09"/>
<polygon fill="#63b8ff" stroke="#63b8ff" points="257.79,-133.56 256.23,-123.08 250.91,-132.24 257.79,-133.56"/>
</a>
</g>
</g>
<!-- Node15 -->
<g id="Node000015" class="node">
<title>Node15</title>
<g id="a_Node000015"><a xlink:href="../../df/d47/stack_8hpp.html" target="_top" xlink:title=" ">
<polygon fill="white" stroke="#666666" points="583.5,-176 466.5,-176 466.5,-159 583.5,-159 583.5,-176"/>
<text text-anchor="middle" x="525" y="-165.6" font-family="Helvetica,sans-Serif" font-size="8.00">../types/containers/stack.hpp</text>
</a>
</g>
</g>
<!-- Node1&#45;&gt;Node15 -->
<g id="edge18_Node000001_Node000015" class="edge">
<title>Node1&#45;&gt;Node15</title>
<g id="a_edge18_Node000001_Node000015"><a xlink:title=" ">
<path fill="none" stroke="#63b8ff" d="M328.52,-268.58C358.52,-262.91 411.37,-250.66 452,-229 474.58,-216.96 496.66,-197.23 510.52,-183.59"/>
<polygon fill="#63b8ff" stroke="#63b8ff" points="513.12,-185.93 517.67,-176.37 508.15,-181.01 513.12,-185.93"/>
</a>
</g>
</g>
<!-- Node16 -->
<g id="Node000016" class="node">
<title>Node16</title>
<g id="a_Node000016"><a xlink:href="../../da/deb/managed__node_8hpp.html" target="_top" xlink:title=" ">
<polygon fill="white" stroke="#666666" points="933,-229 825,-229 825,-212 933,-212 933,-229"/>
<text text-anchor="middle" x="879" y="-218.6" font-family="Helvetica,sans-Serif" font-size="8.00">base/managed_node.hpp</text>
</a>
</g>
</g>
<!-- Node1&#45;&gt;Node16 -->
<g id="edge24_Node000001_Node000016" class="edge">
<title>Node1&#45;&gt;Node16</title>
<g id="a_edge24_Node000001_Node000016"><a xlink:title=" ">
<path fill="none" stroke="#63b8ff" d="M328.57,-270.41C410.96,-263.09 687.89,-238.48 814.66,-227.22"/>
<polygon fill="#63b8ff" stroke="#63b8ff" points="815.34,-230.67 824.99,-226.3 814.72,-223.7 815.34,-230.67"/>
</a>
</g>
</g>
<!-- Node23 -->
<g id="Node000023" class="node">
<title>Node23</title>
<g id="a_Node000023"><a xlink:href="../../d2/d1c/solver_8hpp.html" target="_top" xlink:title=" ">
<polygon fill="white" stroke="#666666" points="341,-229 269,-229 269,-212 341,-212 341,-229"/>
<text text-anchor="middle" x="305" y="-218.6" font-family="Helvetica,sans-Serif" font-size="8.00">base/solver.hpp</text>
</a>
</g>
</g>
<!-- Node1&#45;&gt;Node23 -->
<g id="edge38_Node000001_Node000023" class="edge">
<title>Node1&#45;&gt;Node23</title>
<g id="a_edge38_Node000001_Node000023"><a xlink:title=" ">
<path fill="none" stroke="#63b8ff" d="M305,-264.97C305,-258.19 305,-247.97 305,-239.13"/>
<polygon fill="#63b8ff" stroke="#63b8ff" points="308.5,-239.06 305,-229.06 301.5,-239.06 308.5,-239.06"/>
</a>
</g>
</g>
<!-- Node4&#45;&gt;Node2 -->
<g id="edge4_Node000004_Node000002" class="edge">
<title>Node4&#45;&gt;Node2</title>
<g id="a_edge4_Node000004_Node000002"><a xlink:title=" ">
<path fill="none" stroke="#63b8ff" d="M99.25,-158.74C78.03,-139.02 27.71,-86.22 57,-53 77.64,-29.6 289.9,-15.63 370.86,-11.11"/>
<polygon fill="#63b8ff" stroke="#63b8ff" points="371.15,-14.6 380.94,-10.56 370.77,-7.61 371.15,-14.6"/>
</a>
</g>
</g>
<!-- Node4&#45;&gt;Node3 -->
<g id="edge8_Node000004_Node000003" class="edge">
<title>Node4&#45;&gt;Node3</title>
<g id="a_edge8_Node000004_Node000003"><a xlink:title=" ">
<path fill="none" stroke="#63b8ff" d="M152.41,-158.97C214.83,-148.4 326.79,-129.43 379.73,-120.46"/>
<polygon fill="#63b8ff" stroke="#63b8ff" points="380.52,-123.87 389.8,-118.75 379.36,-116.97 380.52,-123.87"/>
</a>
</g>
</g>
<!-- Node5 -->
<g id="Node000005" class="node">
<title>Node5</title>
<g id="a_Node000005"><a xlink:title=" ">
<polygon fill="#e0e0e0" stroke="#999999" points="164,-123 104,-123 104,-106 164,-106 164,-123"/>
<text text-anchor="middle" x="134" y="-112.6" font-family="Helvetica,sans-Serif" font-size="8.00">initializer_list</text>
</a>
</g>
</g>
<!-- Node4&#45;&gt;Node5 -->
<g id="edge5_Node000004_Node000005" class="edge">
<title>Node4&#45;&gt;Node5</title>
<g id="a_edge5_Node000004_Node000005"><a xlink:title=" ">
<path fill="none" stroke="#63b8ff" d="M111.84,-158.97C115.41,-151.97 120.86,-141.28 125.46,-132.25"/>
<polygon fill="#63b8ff" stroke="#63b8ff" points="128.72,-133.55 130.15,-123.06 122.49,-130.38 128.72,-133.55"/>
</a>
</g>
</g>
<!-- Node6 -->
<g id="Node000006" class="node">
<title>Node6</title>
<g id="a_Node000006"><a xlink:title=" ">
<polygon fill="#e0e0e0" stroke="#999999" points="528,-123 446,-123 446,-106 528,-106 528,-123"/>
<text text-anchor="middle" x="487" y="-112.6" font-family="Helvetica,sans-Serif" font-size="8.00">memory_resource</text>
</a>
</g>
</g>
<!-- Node4&#45;&gt;Node6 -->
<g id="edge6_Node000004_Node000006" class="edge">
<title>Node4&#45;&gt;Node6</title>
<g id="a_edge6_Node000004_Node000006"><a xlink:title=" ">
<path fill="none" stroke="#63b8ff" d="M167.18,-158.99C230.95,-150.83 335.7,-137.21 435.82,-123.14"/>
<polygon fill="#63b8ff" stroke="#63b8ff" points="436.39,-126.6 445.81,-121.74 435.42,-119.67 436.39,-126.6"/>
</a>
</g>
</g>
<!-- Node7 -->
<g id="Node000007" class="node">
<title>Node7</title>
<g id="a_Node000007"><a xlink:title=" ">
<polygon fill="#e0e0e0" stroke="#999999" points="119.5,-70 66.5,-70 66.5,-53 119.5,-53 119.5,-70"/>
<text text-anchor="middle" x="93" y="-59.6" font-family="Helvetica,sans-Serif" font-size="8.00">type_traits</text>
</a>
</g>
</g>
<!-- Node4&#45;&gt;Node7 -->
<g id="edge7_Node000004_Node000007" class="edge">
<title>Node4&#45;&gt;Node7</title>
<g id="a_edge7_Node000004_Node000007"><a xlink:title=" ">
<path fill="none" stroke="#63b8ff" d="M105.09,-158.94C101.95,-150.37 97.11,-135.91 95,-123 92.67,-108.69 92.27,-92.24 92.39,-80.11"/>
<polygon fill="#63b8ff" stroke="#63b8ff" points="95.9,-80.09 92.63,-70.01 88.9,-79.93 95.9,-80.09"/>
</a>
</g>
</g>
<!-- Node4&#45;&gt;Node8 -->
<g id="edge9_Node000004_Node000008" class="edge">
<title>Node4&#45;&gt;Node8</title>
<g id="a_edge9_Node000004_Node000008"><a xlink:title=" ">
<path fill="none" stroke="#63b8ff" d="M130.13,-158.97C155.5,-150.35 197.29,-136.14 226.15,-126.33"/>
<polygon fill="#63b8ff" stroke="#63b8ff" points="227.44,-129.59 235.78,-123.06 225.18,-122.96 227.44,-129.59"/>
</a>
</g>
</g>
<!-- Node8&#45;&gt;Node2 -->
<g id="edge12_Node000008_Node000002" class="edge">
<title>Node8&#45;&gt;Node2</title>
<g id="a_edge12_Node000008_Node000002"><a xlink:title=" ">
<path fill="none" stroke="#63b8ff" d="M277.78,-105.97C296.18,-98.43 323.86,-85.72 345,-70 362.5,-56.99 379.2,-38.25 389.95,-25.09"/>
<polygon fill="#63b8ff" stroke="#63b8ff" points="392.89,-27.01 396.38,-17 387.41,-22.65 392.89,-27.01"/>
</a>
</g>
</g>
<!-- Node8&#45;&gt;Node7 -->
<g id="edge15_Node000008_Node000007" class="edge">
<title>Node8&#45;&gt;Node7</title>
<g id="a_edge15_Node000008_Node000007"><a xlink:title=" ">
<path fill="none" stroke="#63b8ff" d="M233.65,-105.97C205.5,-97.27 158.98,-82.89 127.2,-73.07"/>
<polygon fill="#63b8ff" stroke="#63b8ff" points="128.03,-69.67 117.45,-70.06 125.97,-76.35 128.03,-69.67"/>
</a>
</g>
</g>
<!-- Node9 -->
<g id="Node000009" class="node">
<title>Node9</title>
<g id="a_Node000009"><a xlink:title=" ">
<polygon fill="#e0e0e0" stroke="#999999" points="279.5,-70 244.5,-70 244.5,-53 279.5,-53 279.5,-70"/>
<text text-anchor="middle" x="262" y="-59.6" font-family="Helvetica,sans-Serif" font-size="8.00">array</text>
</a>
</g>
</g>
<!-- Node8&#45;&gt;Node9 -->
<g id="edge10_Node000008_Node000009" class="edge">
<title>Node8&#45;&gt;Node9</title>
<g id="a_edge10_Node000008_Node000009"><a xlink:title=" ">
<path fill="none" stroke="#63b8ff" d="M258.59,-105.97C259.12,-99.19 259.92,-88.97 260.62,-80.13"/>
<polygon fill="#63b8ff" stroke="#63b8ff" points="264.11,-80.3 261.41,-70.06 257.14,-79.75 264.11,-80.3"/>
</a>
</g>
</g>
<!-- Node10 -->
<g id="Node000010" class="node">
<title>Node10</title>
<g id="a_Node000010"><a xlink:title=" ">
<polygon fill="#e0e0e0" stroke="#999999" points="336,-70 298,-70 298,-53 336,-53 336,-70"/>
<text text-anchor="middle" x="317" y="-59.6" font-family="Helvetica,sans-Serif" font-size="8.00">cmath</text>
</a>
</g>
</g>
<!-- Node8&#45;&gt;Node10 -->
<g id="edge11_Node000008_Node000010" class="edge">
<title>Node8&#45;&gt;Node10</title>
<g id="a_edge11_Node000008_Node000010"><a xlink:title=" ">
<path fill="none" stroke="#63b8ff" d="M266.71,-105.97C275.59,-98.29 289.61,-86.18 300.59,-76.69"/>
<polygon fill="#63b8ff" stroke="#63b8ff" points="302.98,-79.24 308.26,-70.06 298.4,-73.95 302.98,-79.24"/>
</a>
</g>
</g>
<!-- Node11 -->
<g id="Node000011" class="node">
<title>Node11</title>
<g id="a_Node000011"><a xlink:title=" ">
<polygon fill="#e0e0e0" stroke="#999999" points="172,-70 138,-70 138,-53 172,-53 172,-70"/>
<text text-anchor="middle" x="155" y="-59.6" font-family="Helvetica,sans-Serif" font-size="8.00">limits</text>
</a>
</g>
</g>
<!-- Node8&#45;&gt;Node11 -->
<g id="edge13_Node000008_Node000011" class="edge">
<title>Node8&#45;&gt;Node11</title>
<g id="a_edge13_Node000008_Node000011"><a xlink:title=" ">
<path fill="none" stroke="#63b8ff" d="M242.8,-105.97C226.07,-97.69 198.93,-84.25 179.24,-74.5"/>
<polygon fill="#63b8ff" stroke="#63b8ff" points="180.78,-71.36 170.26,-70.06 177.67,-77.63 180.78,-71.36"/>
</a>
</g>
</g>
<!-- Node12 -->
<g id="Node000012" class="node">
<title>Node12</title>
<g id="a_Node000012"><a xlink:title=" ">
<polygon fill="#e0e0e0" stroke="#999999" points="226,-70 190,-70 190,-53 226,-53 226,-70"/>
<text text-anchor="middle" x="208" y="-59.6" font-family="Helvetica,sans-Serif" font-size="8.00">string</text>
</a>
</g>
</g>
<!-- Node8&#45;&gt;Node12 -->
<g id="edge14_Node000008_Node000012" class="edge">
<title>Node8&#45;&gt;Node12</title>
<g id="a_edge14_Node000008_Node000012"><a xlink:title=" ">
<path fill="none" stroke="#63b8ff" d="M250.62,-105.97C243.24,-98.44 231.68,-86.65 222.46,-77.25"/>
<polygon fill="#63b8ff" stroke="#63b8ff" points="224.91,-74.75 215.41,-70.06 219.91,-79.65 224.91,-74.75"/>
</a>
</g>
</g>
<!-- Node13 -->
<g id="Node000013" class="node">
<title>Node13</title>
<g id="a_Node000013"><a xlink:href="../../d7/d65/intrinsics_8hpp.html" target="_top" xlink:title=" ">
<polygon fill="#fff0f0" stroke="red" points="540.5,-70 455.5,-70 455.5,-53 540.5,-53 540.5,-70"/>
<text text-anchor="middle" x="498" y="-59.6" font-family="Helvetica,sans-Serif" font-size="8.00">../utils/intrinsics.hpp</text>
</a>
</g>
</g>
<!-- Node8&#45;&gt;Node13 -->
<g id="edge16_Node000008_Node000013" class="edge">
<title>Node8&#45;&gt;Node13</title>
<g id="a_edge16_Node000008_Node000013"><a xlink:title=" ">
<path fill="none" stroke="#63b8ff" d="M293.41,-105.97C335.6,-97.01 406.16,-82.02 452.39,-72.19"/>
<polygon fill="#63b8ff" stroke="#63b8ff" points="453.39,-75.56 462.44,-70.06 451.93,-68.71 453.39,-75.56"/>
</a>
</g>
</g>
<!-- Node13&#45;&gt;Node2 -->
<g id="edge17_Node000013_Node000002" class="edge">
<title>Node13&#45;&gt;Node2</title>
<g id="a_edge17_Node000013_Node000002"><a xlink:title=" ">
<path fill="none" stroke="#63b8ff" d="M483.83,-52.97C468.38,-44.76 443.4,-31.49 425.1,-21.77"/>
<polygon fill="#63b8ff" stroke="#63b8ff" points="426.7,-18.66 416.22,-17.06 423.41,-24.84 426.7,-18.66"/>
</a>
</g>
</g>
<!-- Node15&#45;&gt;Node2 -->
<g id="edge19_Node000015_Node000002" class="edge">
<title>Node15&#45;&gt;Node2</title>
<g id="a_edge19_Node000015_Node000002"><a xlink:title=" ">
<path fill="none" stroke="#63b8ff" d="M531.65,-158.81C538.29,-150.59 548.05,-136.85 552,-123 556.67,-106.62 561.62,-67.93 550,-53 522.5,-17.66 467.79,-9.93 433.14,-8.81"/>
<polygon fill="#63b8ff" stroke="#63b8ff" points="433.14,-5.31 423.08,-8.66 433.03,-12.31 433.14,-5.31"/>
</a>
</g>
</g>
<!-- Node15&#45;&gt;Node3 -->
<g id="edge21_Node000015_Node000003" class="edge">
<title>Node15&#45;&gt;Node3</title>
<g id="a_edge21_Node000015_Node000003"><a xlink:title=" ">
<path fill="none" stroke="#63b8ff" d="M507.88,-158.97C488.78,-150.58 457.63,-136.88 435.4,-127.11"/>
<polygon fill="#63b8ff" stroke="#63b8ff" points="436.75,-123.88 426.19,-123.06 433.93,-130.28 436.75,-123.88"/>
</a>
</g>
</g>
<!-- Node15&#45;&gt;Node6 -->
<g id="edge20_Node000015_Node000006" class="edge">
<title>Node15&#45;&gt;Node6</title>
<g id="a_edge20_Node000015_Node000006"><a xlink:title=" ">
<path fill="none" stroke="#63b8ff" d="M519.39,-158.97C513.95,-151.67 505.52,-140.35 498.62,-131.1"/>
<polygon fill="#63b8ff" stroke="#63b8ff" points="501.41,-128.98 492.63,-123.06 495.8,-133.17 501.41,-128.98"/>
</a>
</g>
</g>
<!-- Node15&#45;&gt;Node13 -->
<g id="edge22_Node000015_Node000013" class="edge">
<title>Node15&#45;&gt;Node13</title>
<g id="a_edge22_Node000015_Node000013"><a xlink:title=" ">
<path fill="none" stroke="#63b8ff" d="M529.17,-158.82C534.96,-147.1 543.96,-124.2 537,-106 532.7,-94.77 524.03,-84.62 515.95,-76.95"/>
<polygon fill="#63b8ff" stroke="#63b8ff" points="518.07,-74.15 508.25,-70.16 513.44,-79.4 518.07,-74.15"/>
</a>
</g>
</g>
<!-- Node16&#45;&gt;Node13 -->
<g id="edge37_Node000016_Node000013" class="edge">
<title>Node16&#45;&gt;Node13</title>
<g id="a_edge37_Node000016_Node000013"><a xlink:title=" ">
<path fill="none" stroke="#63b8ff" d="M885.2,-211.77C900.54,-191.69 937.08,-137.21 909,-106 885.46,-79.83 656.55,-68.22 550.92,-64.23"/>
<polygon fill="#63b8ff" stroke="#63b8ff" points="550.92,-60.73 540.79,-63.85 550.66,-67.72 550.92,-60.73"/>
</a>
</g>
</g>
<!-- Node17 -->
<g id="Node000017" class="node">
<title>Node17</title>
<g id="a_Node000017"><a xlink:title=" ">
<polygon fill="#e0e0e0" stroke="#999999" points="900,-123 858,-123 858,-106 900,-106 900,-123"/>
<text text-anchor="middle" x="879" y="-112.6" font-family="Helvetica,sans-Serif" font-size="8.00">cassert</text>
</a>
</g>
</g>
<!-- Node16&#45;&gt;Node17 -->
<g id="edge25_Node000016_Node000017" class="edge">
<title>Node16&#45;&gt;Node17</title>
<g id="a_edge25_Node000016_Node000017"><a xlink:title=" ">
<path fill="none" stroke="#63b8ff" d="M879,-211.68C879,-195.11 879,-156.11 879,-133.18"/>
<polygon fill="#63b8ff" stroke="#63b8ff" points="882.5,-133.12 879,-123.12 875.5,-133.13 882.5,-133.12"/>
</a>
</g>
</g>
<!-- Node18 -->
<g id="Node000018" class="node">
<title>Node18</title>
<g id="a_Node000018"><a xlink:href="../../dc/d3c/bnode_8hpp.html" target="_top" xlink:title=" ">
<polygon fill="white" stroke="#666666" points="1011.5,-176 956.5,-176 956.5,-159 1011.5,-159 1011.5,-176"/>
<text text-anchor="middle" x="984" y="-165.6" font-family="Helvetica,sans-Serif" font-size="8.00">bnode.hpp</text>
</a>
</g>
</g>
<!-- Node16&#45;&gt;Node18 -->
<g id="edge26_Node000016_Node000018" class="edge">
<title>Node16&#45;&gt;Node18</title>
<g id="a_edge26_Node000016_Node000018"><a xlink:title=" ">
<path fill="none" stroke="#63b8ff" d="M894.49,-211.97C911.55,-203.69 939.22,-190.25 959.28,-180.5"/>
<polygon fill="#63b8ff" stroke="#63b8ff" points="960.98,-183.57 968.44,-176.06 957.92,-177.28 960.98,-183.57"/>
</a>
</g>
</g>
<!-- Node19 -->
<g id="Node000019" class="node">
<title>Node19</title>
<g id="a_Node000019"><a xlink:href="../../d9/df8/heterogeneous__pool_8hpp.html" target="_top" xlink:title=" ">
<polygon fill="white" stroke="#666666" points="790.5,-176 633.5,-176 633.5,-159 790.5,-159 790.5,-176"/>
<text text-anchor="middle" x="712" y="-165.6" font-family="Helvetica,sans-Serif" font-size="8.00">../../types/pmr/heterogeneous_pool.hpp</text>
</a>
</g>
</g>
<!-- Node16&#45;&gt;Node19 -->
<g id="edge27_Node000016_Node000019" class="edge">
<title>Node16&#45;&gt;Node19</title>
<g id="a_edge27_Node000016_Node000019"><a xlink:title=" ">
<path fill="none" stroke="#63b8ff" d="M854.36,-211.97C825.87,-203.27 778.78,-188.89 746.62,-179.07"/>
<polygon fill="#63b8ff" stroke="#63b8ff" points="747.33,-175.63 736.74,-176.06 745.28,-182.32 747.33,-175.63"/>
</a>
</g>
</g>
<!-- Node19&#45;&gt;Node2 -->
<g id="edge29_Node000019_Node000002" class="edge">
<title>Node19&#45;&gt;Node2</title>
<g id="a_edge29_Node000019_Node000002"><a xlink:title=" ">
<path fill="none" stroke="#63b8ff" d="M718.7,-158.74C728.41,-146.51 743.99,-122.45 732,-106 696.22,-56.93 508.81,-24.9 433.44,-13.82"/>
<polygon fill="#63b8ff" stroke="#63b8ff" points="433.56,-10.3 423.16,-12.34 432.56,-17.23 433.56,-10.3"/>
</a>
</g>
</g>
<!-- Node19&#45;&gt;Node3 -->
<g id="edge34_Node000019_Node000003" class="edge">
<title>Node19&#45;&gt;Node3</title>
<g id="a_edge34_Node000019_Node000003"><a xlink:title=" ">
<path fill="none" stroke="#63b8ff" d="M652.93,-158.98C599.31,-151.74 517.89,-139.73 438.4,-123.09"/>
<polygon fill="#63b8ff" stroke="#63b8ff" points="438.72,-119.58 428.22,-120.93 437.27,-126.43 438.72,-119.58"/>
</a>
</g>
</g>
<!-- Node19&#45;&gt;Node6 -->
<g id="edge32_Node000019_Node000006" class="edge">
<title>Node19&#45;&gt;Node6</title>
<g id="a_edge32_Node000019_Node000006"><a xlink:title=" ">
<path fill="none" stroke="#63b8ff" d="M678.8,-158.97C639.42,-150.05 573.66,-135.14 530.3,-125.32"/>
<polygon fill="#63b8ff" stroke="#63b8ff" points="530.86,-121.85 520.34,-123.06 529.31,-128.68 530.86,-121.85"/>
</a>
</g>
</g>
<!-- Node19&#45;&gt;Node8 -->
<g id="edge36_Node000019_Node000008" class="edge">
<title>Node19&#45;&gt;Node8</title>
<g id="a_edge36_Node000019_Node000008"><a xlink:title=" ">
<path fill="none" stroke="#63b8ff" d="M645.01,-158.97C552.36,-148.57 387.34,-130.03 306.02,-120.89"/>
<polygon fill="#63b8ff" stroke="#63b8ff" points="305.91,-117.36 295.58,-119.72 305.13,-124.32 305.91,-117.36"/>
</a>
</g>
</g>
<!-- Node19&#45;&gt;Node13 -->
<g id="edge35_Node000019_Node000013" class="edge">
<title>Node19&#45;&gt;Node13</title>
<g id="a_edge35_Node000019_Node000013"><a xlink:title=" ">
<path fill="none" stroke="#63b8ff" d="M715.33,-158.8C720.2,-146.21 727.4,-121.13 715,-106 694.61,-81.12 608.06,-70.18 550.61,-65.58"/>
<polygon fill="#63b8ff" stroke="#63b8ff" points="550.84,-62.09 540.6,-64.82 550.31,-69.07 550.84,-62.09"/>
</a>
</g>
</g>
<!-- Node19&#45;&gt;Node17 -->
<g id="edge28_Node000019_Node000017" class="edge">
<title>Node19&#45;&gt;Node17</title>
<g id="a_edge28_Node000019_Node000017"><a xlink:title=" ">
<path fill="none" stroke="#63b8ff" d="M736.64,-158.97C766.28,-149.92 816.04,-134.73 848.19,-124.91"/>
<polygon fill="#63b8ff" stroke="#63b8ff" points="849.42,-128.19 857.96,-121.93 847.37,-121.5 849.42,-128.19"/>
</a>
</g>
</g>
<!-- Node20 -->
<g id="Node000020" class="node">
<title>Node20</title>
<g id="a_Node000020"><a xlink:title=" ">
<polygon fill="#e0e0e0" stroke="#999999" points="839.5,-123 800.5,-123 800.5,-106 839.5,-106 839.5,-123"/>
<text text-anchor="middle" x="820" y="-112.6" font-family="Helvetica,sans-Serif" font-size="8.00">cstdint</text>
</a>
</g>
</g>
<!-- Node19&#45;&gt;Node20 -->
<g id="edge30_Node000019_Node000020" class="edge">
<title>Node19&#45;&gt;Node20</title>
<g id="a_edge30_Node000019_Node000020"><a xlink:title=" ">
<path fill="none" stroke="#63b8ff" d="M727.94,-158.97C745.56,-150.65 774.2,-137.13 794.86,-127.37"/>
<polygon fill="#63b8ff" stroke="#63b8ff" points="796.45,-130.49 804,-123.06 793.46,-124.16 796.45,-130.49"/>
</a>
</g>
</g>
<!-- Node21 -->
<g id="Node000021" class="node">
<title>Node21</title>
<g id="a_Node000021"><a xlink:title=" ">
<polygon fill="#e0e0e0" stroke="#999999" points="654,-123 622,-123 622,-106 654,-106 654,-123"/>
<text text-anchor="middle" x="638" y="-112.6" font-family="Helvetica,sans-Serif" font-size="8.00">map</text>
</a>
</g>
</g>
<!-- Node19&#45;&gt;Node21 -->
<g id="edge31_Node000019_Node000021" class="edge">
<title>Node19&#45;&gt;Node21</title>
<g id="a_edge31_Node000019_Node000021"><a xlink:title=" ">
<path fill="none" stroke="#63b8ff" d="M701.08,-158.97C689.6,-151.07 671.32,-138.46 657.38,-128.86"/>
<polygon fill="#63b8ff" stroke="#63b8ff" points="659.18,-125.85 648.96,-123.06 655.21,-131.61 659.18,-125.85"/>
</a>
</g>
</g>
<!-- Node22 -->
<g id="Node000022" class="node">
<title>Node22</title>
<g id="a_Node000022"><a xlink:title=" ">
<polygon fill="#e0e0e0" stroke="#999999" points="706,-123 672,-123 672,-106 706,-106 706,-123"/>
<text text-anchor="middle" x="689" y="-112.6" font-family="Helvetica,sans-Serif" font-size="8.00">utility</text>
</a>
</g>
</g>
<!-- Node19&#45;&gt;Node22 -->
<g id="edge33_Node000019_Node000022" class="edge">
<title>Node19&#45;&gt;Node22</title>
<g id="a_edge33_Node000019_Node000022"><a xlink:title=" ">
<path fill="none" stroke="#63b8ff" d="M708.61,-158.97C705.45,-151.97 700.63,-141.28 696.56,-132.25"/>
<polygon fill="#63b8ff" stroke="#63b8ff" points="699.71,-130.73 692.41,-123.06 693.33,-133.61 699.71,-130.73"/>
</a>
</g>
</g>
<!-- Node23&#45;&gt;Node2 -->
<g id="edge39_Node000023_Node000002" class="edge">
<title>Node23&#45;&gt;Node2</title>
<g id="a_edge39_Node000023_Node000002"><a xlink:title=" ">
<path fill="none" stroke="#63b8ff" d="M308.57,-211.78C322.62,-181.35 374.36,-69.35 394.19,-26.41"/>
<polygon fill="#63b8ff" stroke="#63b8ff" points="397.49,-27.62 398.5,-17.07 391.13,-24.68 397.49,-27.62"/>
</a>
</g>
</g>
<!-- Node23&#45;&gt;Node3 -->
<g id="edge41_Node000023_Node000003" class="edge">
<title>Node23&#45;&gt;Node3</title>
<g id="a_edge41_Node000023_Node000003"><a xlink:title=" ">
<path fill="none" stroke="#63b8ff" d="M322.53,-211.97C338.08,-204.6 360.66,-192.13 376,-176 387.85,-163.54 396.8,-145.99 402.37,-133.01"/>
<polygon fill="#63b8ff" stroke="#63b8ff" points="405.75,-133.96 406.24,-123.38 399.26,-131.35 405.75,-133.96"/>
</a>
</g>
</g>
<!-- Node23&#45;&gt;Node4 -->
<g id="edge42_Node000023_Node000004" class="edge">
<title>Node23&#45;&gt;Node4</title>
<g id="a_edge42_Node000023_Node000004"><a xlink:title=" ">
<path fill="none" stroke="#63b8ff" d="M275.93,-211.97C241.74,-203.12 184.84,-188.39 146.88,-178.57"/>
<polygon fill="#63b8ff" stroke="#63b8ff" points="147.75,-175.17 137.19,-176.06 145.99,-181.95 147.75,-175.17"/>
</a>
</g>
</g>
<!-- Node23&#45;&gt;Node7 -->
<g id="edge40_Node000023_Node000007" class="edge">
<title>Node23&#45;&gt;Node7</title>
<g id="a_edge40_Node000023_Node000007"><a xlink:title=" ">
<path fill="none" stroke="#63b8ff" d="M297.44,-211.97C277.96,-192.8 223.99,-141.19 173,-106 155.65,-94.03 134.67,-82.73 118.55,-74.64"/>
<polygon fill="#63b8ff" stroke="#63b8ff" points="119.74,-71.33 109.22,-70.05 116.65,-77.61 119.74,-71.33"/>
</a>
</g>
</g>
<!-- Node23&#45;&gt;Node8 -->
<g id="edge43_Node000023_Node000008" class="edge">
<title>Node23&#45;&gt;Node8</title>
<g id="a_edge43_Node000023_Node000008"><a xlink:title=" ">
<path fill="none" stroke="#63b8ff" d="M301.47,-211.68C293.88,-194.89 275.87,-155.04 265.57,-132.25"/>
<polygon fill="#63b8ff" stroke="#63b8ff" points="268.75,-130.8 261.45,-123.12 262.37,-133.68 268.75,-130.8"/>
</a>
</g>
</g>
<!-- Node23&#45;&gt;Node13 -->
<g id="edge44_Node000023_Node000013" class="edge">
<title>Node23&#45;&gt;Node13</title>
<g id="a_edge44_Node000023_Node000013"><a xlink:title=" ">
<path fill="none" stroke="#63b8ff" d="M311.07,-211.97C317.88,-203.42 329.12,-188.99 338,-176 358.61,-145.86 352.79,-129.18 381,-106 400.69,-89.82 426.98,-79.32 449.65,-72.71"/>
<polygon fill="#63b8ff" stroke="#63b8ff" points="450.73,-76.04 459.44,-70.02 448.87,-69.29 450.73,-76.04"/>
</a>
</g>
</g>
</g>
</svg>
