<?xml version="1.0" encoding="UTF-8" standalone="no"?>
<!DOCTYPE svg PUBLIC "-//W3C//DTD SVG 1.1//EN"
 "http://www.w3.org/Graphics/SVG/1.1/DTD/svg11.dtd">
<!-- Generated by graphviz version 2.43.0 (0)
 -->
<!-- Title: gdfs.hpp Pages: 1 -->
<svg width="1237pt" height="290pt"
 viewBox="0.00 0.00 1236.78 290.00" xmlns="http://www.w3.org/2000/svg" xmlns:xlink="http://www.w3.org/1999/xlink">
<g id="graph0" class="graph" transform="scale(1 1) rotate(0) translate(4 286)">
<title>gdfs.hpp</title>
<!-- Node1 -->
<g id="Node000001" class="node">
<title>Node1</title>
<g id="a_Node000001"><a xlink:title=" ">
<polygon fill="#999999" stroke="#666666" points="524.5,-282 477.5,-282 477.5,-265 524.5,-265 524.5,-282"/>
<text text-anchor="middle" x="501" y="-271.6" font-family="Helvetica,sans-Serif" font-size="8.00">gdfs.hpp</text>
</a>
</g>
</g>
<!-- Node2 -->
<g id="Node000002" class="node">
<title>Node2</title>
<g id="a_Node000002"><a xlink:title=" ">
<polygon fill="#e0e0e0" stroke="#999999" points="491,-17 449,-17 449,0 491,0 491,-17"/>
<text text-anchor="middle" x="470" y="-6.6" font-family="Helvetica,sans-Serif" font-size="8.00">cstddef</text>
</a>
</g>
</g>
<!-- Node1&#45;&gt;Node2 -->
<g id="edge1_Node000001_Node000002" class="edge">
<title>Node1&#45;&gt;Node2</title>
<g id="a_edge1_Node000001_Node000002"><a xlink:title=" ">
<path fill="none" stroke="#63b8ff" d="M477.17,-272.7C377.61,-272.91 0,-267.22 0,-168.5 0,-168.5 0,-168.5 0,-113.5 0,-80.25 15.18,-69.57 44,-53 111.28,-14.31 352.18,-9.79 438.75,-9.45"/>
<polygon fill="#63b8ff" stroke="#63b8ff" points="438.76,-12.95 448.75,-9.42 438.74,-5.95 438.76,-12.95"/>
</a>
</g>
</g>
<!-- Node3 -->
<g id="Node000003" class="node">
<title>Node3</title>
<g id="a_Node000003"><a xlink:title=" ">
<polygon fill="#e0e0e0" stroke="#999999" points="549,-123 511,-123 511,-106 549,-106 549,-123"/>
<text text-anchor="middle" x="530" y="-112.6" font-family="Helvetica,sans-Serif" font-size="8.00">vector</text>
</a>
</g>
</g>
<!-- Node1&#45;&gt;Node3 -->
<g id="edge2_Node000001_Node000003" class="edge">
<title>Node1&#45;&gt;Node3</title>
<g id="a_edge2_Node000001_Node000003"><a xlink:title=" ">
<path fill="none" stroke="#63b8ff" d="M502.4,-264.93C506.79,-241.15 520.38,-167.56 526.71,-133.33"/>
<polygon fill="#63b8ff" stroke="#63b8ff" points="530.17,-133.84 528.55,-123.37 523.29,-132.56 530.17,-133.84"/>
</a>
</g>
</g>
<!-- Node4 -->
<g id="Node000004" class="node">
<title>Node4</title>
<g id="a_Node000004"><a xlink:href="../../d8/d62/existence__set_8hpp.html" target="_top" xlink:title=" ">
<polygon fill="white" stroke="#666666" points="498.5,-176 351.5,-176 351.5,-159 498.5,-159 498.5,-176"/>
<text text-anchor="middle" x="425" y="-165.6" font-family="Helvetica,sans-Serif" font-size="8.00">../types/containers/existence_set.hpp</text>
</a>
</g>
</g>
<!-- Node1&#45;&gt;Node4 -->
<g id="edge3_Node000001_Node000004" class="edge">
<title>Node1&#45;&gt;Node4</title>
<g id="a_edge3_Node000001_Node000004"><a xlink:title=" ">
<path fill="none" stroke="#63b8ff" d="M495.29,-264.68C482.85,-247.66 453.1,-206.95 436.57,-184.34"/>
<polygon fill="#63b8ff" stroke="#63b8ff" points="439.3,-182.13 430.57,-176.12 433.65,-186.26 439.3,-182.13"/>
</a>
</g>
</g>
<!-- Node9 -->
<g id="Node000009" class="node">
<title>Node9</title>
<g id="a_Node000009"><a xlink:href="../../df/d93/utils_8hpp.html" target="_top" xlink:title=" ">
<polygon fill="white" stroke="#666666" points="264.5,-123 189.5,-123 189.5,-106 264.5,-106 264.5,-123"/>
<text text-anchor="middle" x="227" y="-112.6" font-family="Helvetica,sans-Serif" font-size="8.00">../../utils/utils.hpp</text>
</a>
</g>
</g>
<!-- Node1&#45;&gt;Node9 -->
<g id="edge26_Node000001_Node000009" class="edge">
<title>Node1&#45;&gt;Node9</title>
<g id="a_edge26_Node000001_Node000009"><a xlink:title=" ">
<path fill="none" stroke="#63b8ff" d="M477.45,-270.2C427.9,-264.11 312.15,-243.12 248,-176 236.95,-164.44 231.69,-146.77 229.2,-133.5"/>
<polygon fill="#63b8ff" stroke="#63b8ff" points="232.6,-132.61 227.65,-123.24 225.68,-133.65 232.6,-132.61"/>
</a>
</g>
</g>
<!-- Node13 -->
<g id="Node000013" class="node">
<title>Node13</title>
<g id="a_Node000013"><a xlink:href="../../d7/d65/intrinsics_8hpp.html" target="_top" xlink:title=" ">
<polygon fill="#fff0f0" stroke="red" points="724.5,-70 639.5,-70 639.5,-53 724.5,-53 724.5,-70"/>
<text text-anchor="middle" x="682" y="-59.6" font-family="Helvetica,sans-Serif" font-size="8.00">../utils/intrinsics.hpp</text>
</a>
</g>
</g>
<!-- Node1&#45;&gt;Node13 -->
<g id="edge51_Node000001_Node000013" class="edge">
<title>Node1&#45;&gt;Node13</title>
<g id="a_edge51_Node000001_Node000013"><a xlink:title=" ">
<path fill="none" stroke="#63b8ff" d="M524.51,-272.13C623.47,-270.37 1006.4,-261.56 1122,-229 1171.17,-215.15 1197.48,-219.67 1224,-176 1276.21,-90.04 881.03,-68.77 734.89,-63.87"/>
<polygon fill="#63b8ff" stroke="#63b8ff" points="734.92,-60.37 724.81,-63.55 734.69,-67.37 734.92,-60.37"/>
</a>
</g>
</g>
<!-- Node16 -->
<g id="Node000016" class="node">
<title>Node16</title>
<g id="a_Node000016"><a xlink:href="../../df/d47/stack_8hpp.html" target="_top" xlink:title=" ">
<polygon fill="white" stroke="#666666" points="672.5,-176 555.5,-176 555.5,-159 672.5,-159 672.5,-176"/>
<text text-anchor="middle" x="614" y="-165.6" font-family="Helvetica,sans-Serif" font-size="8.00">../types/containers/stack.hpp</text>
</a>
</g>
</g>
<!-- Node1&#45;&gt;Node16 -->
<g id="edge21_Node000001_Node000016" class="edge">
<title>Node1&#45;&gt;Node16</title>
<g id="a_edge21_Node000001_Node000016"><a xlink:title=" ">
<path fill="none" stroke="#63b8ff" d="M509.49,-264.68C528.32,-247.36 573.8,-205.5 598.09,-183.15"/>
<polygon fill="#63b8ff" stroke="#63b8ff" points="600.73,-185.47 605.72,-176.12 595.99,-180.32 600.73,-185.47"/>
</a>
</g>
</g>
<!-- Node17 -->
<g id="Node000017" class="node">
<title>Node17</title>
<g id="a_Node000017"><a xlink:href="../../da/deb/managed__node_8hpp.html" target="_top" xlink:title=" ">
<polygon fill="white" stroke="#666666" points="1113,-229 1005,-229 1005,-212 1113,-212 1113,-229"/>
<text text-anchor="middle" x="1059" y="-218.6" font-family="Helvetica,sans-Serif" font-size="8.00">base/managed_node.hpp</text>
</a>
</g>
</g>
<!-- Node1&#45;&gt;Node17 -->
<g id="edge27_Node000001_Node000017" class="edge">
<title>Node1&#45;&gt;Node17</title>
<g id="a_edge27_Node000001_Node000017"><a xlink:title=" ">
<path fill="none" stroke="#63b8ff" d="M524.62,-270.34C605.22,-262.97 871.28,-238.66 994.86,-227.36"/>
<polygon fill="#63b8ff" stroke="#63b8ff" points="995.3,-230.84 1004.94,-226.44 994.66,-223.87 995.3,-230.84"/>
</a>
</g>
</g>
<!-- Node25 -->
<g id="Node000025" class="node">
<title>Node25</title>
<g id="a_Node000025"><a xlink:href="../../d2/d1c/solver_8hpp.html" target="_top" xlink:title=" ">
<polygon fill="white" stroke="#666666" points="329,-176 257,-176 257,-159 329,-159 329,-176"/>
<text text-anchor="middle" x="293" y="-165.6" font-family="Helvetica,sans-Serif" font-size="8.00">base/solver.hpp</text>
</a>
</g>
</g>
<!-- Node1&#45;&gt;Node25 -->
<g id="edge44_Node000001_Node000025" class="edge">
<title>Node1&#45;&gt;Node25</title>
<g id="a_edge44_Node000001_Node000025"><a xlink:title=" ">
<path fill="none" stroke="#63b8ff" d="M485.71,-264.85C449.86,-246.93 360.19,-202.09 317,-180.5"/>
<polygon fill="#63b8ff" stroke="#63b8ff" points="318.55,-177.36 308.04,-176.02 315.42,-183.62 318.55,-177.36"/>
</a>
</g>
</g>
<!-- Node4&#45;&gt;Node2 -->
<g id="edge4_Node000004_Node000002" class="edge">
<title>Node4&#45;&gt;Node2</title>
<g id="a_edge4_Node000004_Node000002"><a xlink:title=" ">
<path fill="none" stroke="#63b8ff" d="M427.17,-158.93C433.98,-135.15 455.08,-61.56 464.89,-27.33"/>
<polygon fill="#63b8ff" stroke="#63b8ff" points="468.35,-27.94 467.75,-17.37 461.63,-26.01 468.35,-27.94"/>
</a>
</g>
</g>
<!-- Node4&#45;&gt;Node3 -->
<g id="edge9_Node000004_Node000003" class="edge">
<title>Node4&#45;&gt;Node3</title>
<g id="a_edge9_Node000004_Node000003"><a xlink:title=" ">
<path fill="none" stroke="#63b8ff" d="M440.49,-158.97C457.55,-150.69 485.22,-137.25 505.28,-127.5"/>
<polygon fill="#63b8ff" stroke="#63b8ff" points="506.98,-130.57 514.44,-123.06 503.92,-124.28 506.98,-130.57"/>
</a>
</g>
</g>
<!-- Node5 -->
<g id="Node000005" class="node">
<title>Node5</title>
<g id="a_Node000005"><a xlink:title=" ">
<polygon fill="#e0e0e0" stroke="#999999" points="390,-70 340,-70 340,-53 390,-53 390,-70"/>
<text text-anchor="middle" x="365" y="-59.6" font-family="Helvetica,sans-Serif" font-size="8.00">functional</text>
</a>
</g>
</g>
<!-- Node4&#45;&gt;Node5 -->
<g id="edge5_Node000004_Node000005" class="edge">
<title>Node4&#45;&gt;Node5</title>
<g id="a_edge5_Node000004_Node000005"><a xlink:title=" ">
<path fill="none" stroke="#63b8ff" d="M420.49,-158.68C410.76,-141.81 387.6,-101.68 374.49,-78.94"/>
<polygon fill="#63b8ff" stroke="#63b8ff" points="377.43,-77.04 369.4,-70.12 371.36,-80.54 377.43,-77.04"/>
</a>
</g>
</g>
<!-- Node6 -->
<g id="Node000006" class="node">
<title>Node6</title>
<g id="a_Node000006"><a xlink:title=" ">
<polygon fill="#e0e0e0" stroke="#999999" points="442,-70 408,-70 408,-53 442,-53 442,-70"/>
<text text-anchor="middle" x="425" y="-59.6" font-family="Helvetica,sans-Serif" font-size="8.00">limits</text>
</a>
</g>
</g>
<!-- Node4&#45;&gt;Node6 -->
<g id="edge6_Node000004_Node000006" class="edge">
<title>Node4&#45;&gt;Node6</title>
<g id="a_edge6_Node000004_Node000006"><a xlink:title=" ">
<path fill="none" stroke="#63b8ff" d="M425,-158.68C425,-142.11 425,-103.11 425,-80.18"/>
<polygon fill="#63b8ff" stroke="#63b8ff" points="428.5,-80.12 425,-70.12 421.5,-80.13 428.5,-80.12"/>
</a>
</g>
</g>
<!-- Node7 -->
<g id="Node000007" class="node">
<title>Node7</title>
<g id="a_Node000007"><a xlink:title=" ">
<polygon fill="#e0e0e0" stroke="#999999" points="687,-123 605,-123 605,-106 687,-106 687,-123"/>
<text text-anchor="middle" x="646" y="-112.6" font-family="Helvetica,sans-Serif" font-size="8.00">memory_resource</text>
</a>
</g>
</g>
<!-- Node4&#45;&gt;Node7 -->
<g id="edge7_Node000004_Node000007" class="edge">
<title>Node4&#45;&gt;Node7</title>
<g id="a_edge7_Node000004_Node000007"><a xlink:title=" ">
<path fill="none" stroke="#63b8ff" d="M457.61,-158.97C496.29,-150.05 560.89,-135.14 603.47,-125.32"/>
<polygon fill="#63b8ff" stroke="#63b8ff" points="604.3,-128.72 613.26,-123.06 602.73,-121.89 604.3,-128.72"/>
</a>
</g>
</g>
<!-- Node8 -->
<g id="Node000008" class="node">
<title>Node8</title>
<g id="a_Node000008"><a xlink:title=" ">
<polygon fill="#e0e0e0" stroke="#999999" points="119.5,-70 66.5,-70 66.5,-53 119.5,-53 119.5,-70"/>
<text text-anchor="middle" x="93" y="-59.6" font-family="Helvetica,sans-Serif" font-size="8.00">type_traits</text>
</a>
</g>
</g>
<!-- Node4&#45;&gt;Node8 -->
<g id="edge8_Node000004_Node000008" class="edge">
<title>Node4&#45;&gt;Node8</title>
<g id="a_edge8_Node000004_Node000008"><a xlink:title=" ">
<path fill="none" stroke="#63b8ff" d="M366.06,-159C304.64,-150.66 212.84,-136.56 180,-123 152.78,-111.76 125.58,-90.92 109.02,-76.88"/>
<polygon fill="#63b8ff" stroke="#63b8ff" points="111.23,-74.16 101.39,-70.24 106.64,-79.45 111.23,-74.16"/>
</a>
</g>
</g>
<!-- Node4&#45;&gt;Node9 -->
<g id="edge10_Node000004_Node000009" class="edge">
<title>Node4&#45;&gt;Node9</title>
<g id="a_edge10_Node000004_Node000009"><a xlink:title=" ">
<path fill="none" stroke="#63b8ff" d="M395.78,-158.97C361.42,-150.12 304.23,-135.39 266.08,-125.57"/>
<polygon fill="#63b8ff" stroke="#63b8ff" points="266.89,-122.16 256.34,-123.06 265.15,-128.94 266.89,-122.16"/>
</a>
</g>
</g>
<!-- Node4&#45;&gt;Node13 -->
<g id="edge20_Node000004_Node000013" class="edge">
<title>Node4&#45;&gt;Node13</title>
<g id="a_edge20_Node000004_Node000013"><a xlink:title=" ">
<path fill="none" stroke="#63b8ff" d="M432.33,-158.91C445.2,-146.04 473.24,-119.95 502,-106 542.32,-86.44 592.1,-75.29 629.08,-69.18"/>
<polygon fill="#63b8ff" stroke="#63b8ff" points="629.83,-72.61 639.16,-67.59 628.73,-65.69 629.83,-72.61"/>
</a>
</g>
</g>
<!-- Node9&#45;&gt;Node2 -->
<g id="edge13_Node000009_Node000002" class="edge">
<title>Node9&#45;&gt;Node2</title>
<g id="a_edge13_Node000009_Node000002"><a xlink:title=" ">
<path fill="none" stroke="#63b8ff" d="M238.1,-105.92C256.66,-93.51 295.45,-68.67 331,-53 366.86,-37.2 410.24,-24.59 438.89,-17.09"/>
<polygon fill="#63b8ff" stroke="#63b8ff" points="439.93,-20.44 448.74,-14.57 438.19,-13.66 439.93,-20.44"/>
</a>
</g>
</g>
<!-- Node9&#45;&gt;Node5 -->
<g id="edge14_Node000009_Node000005" class="edge">
<title>Node9&#45;&gt;Node5</title>
<g id="a_edge14_Node000009_Node000005"><a xlink:title=" ">
<path fill="none" stroke="#63b8ff" d="M247.36,-105.97C270.5,-97.42 308.48,-83.39 335,-73.59"/>
<polygon fill="#63b8ff" stroke="#63b8ff" points="336.39,-76.81 344.55,-70.06 333.96,-70.24 336.39,-76.81"/>
</a>
</g>
</g>
<!-- Node9&#45;&gt;Node6 -->
<g id="edge15_Node000009_Node000006" class="edge">
<title>Node9&#45;&gt;Node6</title>
<g id="a_edge15_Node000009_Node000006"><a xlink:title=" ">
<path fill="none" stroke="#63b8ff" d="M258.15,-105.95C290.72,-97.99 343.53,-84.87 398.11,-70.17"/>
<polygon fill="#63b8ff" stroke="#63b8ff" points="399.22,-73.49 407.96,-67.5 397.39,-66.74 399.22,-73.49"/>
</a>
</g>
</g>
<!-- Node9&#45;&gt;Node8 -->
<g id="edge17_Node000009_Node000008" class="edge">
<title>Node9&#45;&gt;Node8</title>
<g id="a_edge17_Node000009_Node000008"><a xlink:title=" ">
<path fill="none" stroke="#63b8ff" d="M207.23,-105.97C184.86,-97.46 148.21,-83.51 122.47,-73.72"/>
<polygon fill="#63b8ff" stroke="#63b8ff" points="123.44,-70.34 112.85,-70.06 120.95,-76.88 123.44,-70.34"/>
</a>
</g>
</g>
<!-- Node10 -->
<g id="Node000010" class="node">
<title>Node10</title>
<g id="a_Node000010"><a xlink:title=" ">
<polygon fill="#e0e0e0" stroke="#999999" points="227.5,-70 192.5,-70 192.5,-53 227.5,-53 227.5,-70"/>
<text text-anchor="middle" x="210" y="-59.6" font-family="Helvetica,sans-Serif" font-size="8.00">array</text>
</a>
</g>
</g>
<!-- Node9&#45;&gt;Node10 -->
<g id="edge11_Node000009_Node000010" class="edge">
<title>Node9&#45;&gt;Node10</title>
<g id="a_edge11_Node000009_Node000010"><a xlink:title=" ">
<path fill="none" stroke="#63b8ff" d="M224.49,-105.97C222.18,-99.04 218.67,-88.51 215.68,-79.55"/>
<polygon fill="#63b8ff" stroke="#63b8ff" points="219,-78.44 212.52,-70.06 212.36,-80.65 219,-78.44"/>
</a>
</g>
</g>
<!-- Node11 -->
<g id="Node000011" class="node">
<title>Node11</title>
<g id="a_Node000011"><a xlink:title=" ">
<polygon fill="#e0e0e0" stroke="#999999" points="284,-70 246,-70 246,-53 284,-53 284,-70"/>
<text text-anchor="middle" x="265" y="-59.6" font-family="Helvetica,sans-Serif" font-size="8.00">cmath</text>
</a>
</g>
</g>
<!-- Node9&#45;&gt;Node11 -->
<g id="edge12_Node000009_Node000011" class="edge">
<title>Node9&#45;&gt;Node11</title>
<g id="a_edge12_Node000009_Node000011"><a xlink:title=" ">
<path fill="none" stroke="#63b8ff" d="M232.61,-105.97C238.05,-98.67 246.48,-87.35 253.38,-78.1"/>
<polygon fill="#63b8ff" stroke="#63b8ff" points="256.2,-80.17 259.37,-70.06 250.59,-75.98 256.2,-80.17"/>
</a>
</g>
</g>
<!-- Node12 -->
<g id="Node000012" class="node">
<title>Node12</title>
<g id="a_Node000012"><a xlink:title=" ">
<polygon fill="#e0e0e0" stroke="#999999" points="174,-70 138,-70 138,-53 174,-53 174,-70"/>
<text text-anchor="middle" x="156" y="-59.6" font-family="Helvetica,sans-Serif" font-size="8.00">string</text>
</a>
</g>
</g>
<!-- Node9&#45;&gt;Node12 -->
<g id="edge16_Node000009_Node000012" class="edge">
<title>Node9&#45;&gt;Node12</title>
<g id="a_edge16_Node000009_Node000012"><a xlink:title=" ">
<path fill="none" stroke="#63b8ff" d="M216.52,-105.97C205.62,-98.14 188.3,-85.7 174.98,-76.13"/>
<polygon fill="#63b8ff" stroke="#63b8ff" points="176.68,-73.05 166.52,-70.06 172.6,-78.73 176.68,-73.05"/>
</a>
</g>
</g>
<!-- Node9&#45;&gt;Node13 -->
<g id="edge18_Node000009_Node000013" class="edge">
<title>Node9&#45;&gt;Node13</title>
<g id="a_edge18_Node000009_Node000013"><a xlink:title=" ">
<path fill="none" stroke="#63b8ff" d="M264.62,-109.28C345.58,-100.21 536.5,-78.81 629.39,-68.4"/>
<polygon fill="#63b8ff" stroke="#63b8ff" points="629.87,-71.87 639.41,-67.27 629.09,-64.91 629.87,-71.87"/>
</a>
</g>
</g>
<!-- Node13&#45;&gt;Node2 -->
<g id="edge19_Node000013_Node000002" class="edge">
<title>Node13&#45;&gt;Node2</title>
<g id="a_edge19_Node000013_Node000002"><a xlink:title=" ">
<path fill="none" stroke="#63b8ff" d="M650.72,-52.97C610.46,-43.29 540.93,-26.56 500.87,-16.93"/>
<polygon fill="#63b8ff" stroke="#63b8ff" points="501.66,-13.52 491.11,-14.58 500.02,-20.32 501.66,-13.52"/>
</a>
</g>
</g>
<!-- Node16&#45;&gt;Node2 -->
<g id="edge22_Node000016_Node000002" class="edge">
<title>Node16&#45;&gt;Node2</title>
<g id="a_edge22_Node000016_Node000002"><a xlink:title=" ">
<path fill="none" stroke="#63b8ff" d="M607.05,-158.93C584.68,-134.53 514.19,-57.68 483.98,-24.74"/>
<polygon fill="#63b8ff" stroke="#63b8ff" points="486.55,-22.37 477.21,-17.37 481.39,-27.1 486.55,-22.37"/>
</a>
</g>
</g>
<!-- Node16&#45;&gt;Node3 -->
<g id="edge24_Node000016_Node000003" class="edge">
<title>Node16&#45;&gt;Node3</title>
<g id="a_edge24_Node000016_Node000003"><a xlink:title=" ">
<path fill="none" stroke="#63b8ff" d="M601.61,-158.97C588.33,-150.91 567.02,-137.98 551.1,-128.31"/>
<polygon fill="#63b8ff" stroke="#63b8ff" points="552.81,-125.25 542.45,-123.06 549.18,-131.24 552.81,-125.25"/>
</a>
</g>
</g>
<!-- Node16&#45;&gt;Node7 -->
<g id="edge23_Node000016_Node000007" class="edge">
<title>Node16&#45;&gt;Node7</title>
<g id="a_edge23_Node000016_Node000007"><a xlink:title=" ">
<path fill="none" stroke="#63b8ff" d="M618.72,-158.97C623.21,-151.82 630.11,-140.82 635.85,-131.67"/>
<polygon fill="#63b8ff" stroke="#63b8ff" points="638.91,-133.39 641.26,-123.06 632.98,-129.67 638.91,-133.39"/>
</a>
</g>
</g>
<!-- Node16&#45;&gt;Node13 -->
<g id="edge25_Node000016_Node000013" class="edge">
<title>Node16&#45;&gt;Node13</title>
<g id="a_edge25_Node000016_Node000013"><a xlink:title=" ">
<path fill="none" stroke="#63b8ff" d="M644.54,-158.89C662.92,-152.56 684.87,-141.5 696,-123 704.07,-109.59 698.48,-91.93 692.13,-79.15"/>
<polygon fill="#63b8ff" stroke="#63b8ff" points="695.04,-77.18 687.13,-70.13 688.92,-80.57 695.04,-77.18"/>
</a>
</g>
</g>
<!-- Node17&#45;&gt;Node13 -->
<g id="edge43_Node000017_Node000013" class="edge">
<title>Node17&#45;&gt;Node13</title>
<g id="a_edge43_Node000017_Node000013"><a xlink:title=" ">
<path fill="none" stroke="#63b8ff" d="M1068.73,-211.8C1092.34,-192.23 1148.55,-139.75 1118,-106 1092.72,-78.07 845.46,-67.32 734.92,-63.88"/>
<polygon fill="#63b8ff" stroke="#63b8ff" points="734.77,-60.38 724.67,-63.57 734.56,-67.37 734.77,-60.38"/>
</a>
</g>
</g>
<!-- Node18 -->
<g id="Node000018" class="node">
<title>Node18</title>
<g id="a_Node000018"><a xlink:title=" ">
<polygon fill="#e0e0e0" stroke="#999999" points="1051,-123 1009,-123 1009,-106 1051,-106 1051,-123"/>
<text text-anchor="middle" x="1030" y="-112.6" font-family="Helvetica,sans-Serif" font-size="8.00">cassert</text>
</a>
</g>
</g>
<!-- Node17&#45;&gt;Node18 -->
<g id="edge28_Node000017_Node000018" class="edge">
<title>Node17&#45;&gt;Node18</title>
<g id="a_edge28_Node000017_Node000018"><a xlink:title=" ">
<path fill="none" stroke="#63b8ff" d="M1056.82,-211.68C1052.18,-195.04 1041.22,-155.75 1034.84,-132.87"/>
<polygon fill="#63b8ff" stroke="#63b8ff" points="1038.18,-131.82 1032.13,-123.12 1031.44,-133.7 1038.18,-131.82"/>
</a>
</g>
</g>
<!-- Node19 -->
<g id="Node000019" class="node">
<title>Node19</title>
<g id="a_Node000019"><a xlink:title=" ">
<polygon fill="#e0e0e0" stroke="#999999" points="1108.5,-123 1069.5,-123 1069.5,-106 1108.5,-106 1108.5,-123"/>
<text text-anchor="middle" x="1089" y="-112.6" font-family="Helvetica,sans-Serif" font-size="8.00">cstdint</text>
</a>
</g>
</g>
<!-- Node17&#45;&gt;Node19 -->
<g id="edge29_Node000017_Node000019" class="edge">
<title>Node17&#45;&gt;Node19</title>
<g id="a_edge29_Node000017_Node000019"><a xlink:title=" ">
<path fill="none" stroke="#63b8ff" d="M1061.25,-211.68C1066.06,-195.04 1077.39,-155.75 1083.99,-132.87"/>
<polygon fill="#63b8ff" stroke="#63b8ff" points="1087.39,-133.7 1086.8,-123.12 1080.67,-131.76 1087.39,-133.7"/>
</a>
</g>
</g>
<!-- Node20 -->
<g id="Node000020" class="node">
<title>Node20</title>
<g id="a_Node000020"><a xlink:href="../../dc/d3c/bnode_8hpp.html" target="_top" xlink:title=" ">
<polygon fill="white" stroke="#666666" points="1214.5,-176 1159.5,-176 1159.5,-159 1214.5,-159 1214.5,-176"/>
<text text-anchor="middle" x="1187" y="-165.6" font-family="Helvetica,sans-Serif" font-size="8.00">bnode.hpp</text>
</a>
</g>
</g>
<!-- Node17&#45;&gt;Node20 -->
<g id="edge30_Node000017_Node000020" class="edge">
<title>Node17&#45;&gt;Node20</title>
<g id="a_edge30_Node000017_Node000020"><a xlink:title=" ">
<path fill="none" stroke="#63b8ff" d="M1077.89,-211.97C1099.16,-203.5 1133.95,-189.64 1158.52,-179.85"/>
<polygon fill="#63b8ff" stroke="#63b8ff" points="1160.04,-183.01 1168.04,-176.06 1157.45,-176.51 1160.04,-183.01"/>
</a>
</g>
</g>
<!-- Node21 -->
<g id="Node000021" class="node">
<title>Node21</title>
<g id="a_Node000021"><a xlink:href="../../d9/df8/heterogeneous__pool_8hpp.html" target="_top" xlink:title=" ">
<polygon fill="white" stroke="#666666" points="940.5,-176 783.5,-176 783.5,-159 940.5,-159 940.5,-176"/>
<text text-anchor="middle" x="862" y="-165.6" font-family="Helvetica,sans-Serif" font-size="8.00">../../types/pmr/heterogeneous_pool.hpp</text>
</a>
</g>
</g>
<!-- Node17&#45;&gt;Node21 -->
<g id="edge31_Node000017_Node000021" class="edge">
<title>Node17&#45;&gt;Node21</title>
<g id="a_edge31_Node000017_Node000021"><a xlink:title=" ">
<path fill="none" stroke="#63b8ff" d="M1029.93,-211.97C995.74,-203.12 938.84,-188.39 900.88,-178.57"/>
<polygon fill="#63b8ff" stroke="#63b8ff" points="901.75,-175.17 891.19,-176.06 899.99,-181.95 901.75,-175.17"/>
</a>
</g>
</g>
<!-- Node21&#45;&gt;Node2 -->
<g id="edge33_Node000021_Node000002" class="edge">
<title>Node21&#45;&gt;Node2</title>
<g id="a_edge33_Node000021_Node000002"><a xlink:title=" ">
<path fill="none" stroke="#63b8ff" d="M898.82,-158.94C935.26,-149.77 982.82,-132.22 962,-106 904.21,-33.24 600.62,-14.72 501.4,-10.58"/>
<polygon fill="#63b8ff" stroke="#63b8ff" points="501.26,-7.07 491.13,-10.17 500.99,-14.07 501.26,-7.07"/>
</a>
</g>
</g>
<!-- Node21&#45;&gt;Node3 -->
<g id="edge39_Node000021_Node000003" class="edge">
<title>Node21&#45;&gt;Node3</title>
<g id="a_edge39_Node000021_Node000003"><a xlink:title=" ">
<path fill="none" stroke="#63b8ff" d="M813.01,-158.97C743.03,-148.22 616.59,-128.8 559.45,-120.02"/>
<polygon fill="#63b8ff" stroke="#63b8ff" points="559.71,-116.52 549.3,-118.46 558.65,-123.44 559.71,-116.52"/>
</a>
</g>
</g>
<!-- Node21&#45;&gt;Node6 -->
<g id="edge35_Node000021_Node000006" class="edge">
<title>Node21&#45;&gt;Node6</title>
<g id="a_edge35_Node000021_Node000006"><a xlink:title=" ">
<path fill="none" stroke="#63b8ff" d="M844.42,-158.83C814.5,-146.06 751.51,-120.43 696,-106 608.32,-83.21 501.4,-70.28 452.18,-65.13"/>
<polygon fill="#63b8ff" stroke="#63b8ff" points="452.34,-61.63 442.04,-64.1 451.63,-68.59 452.34,-61.63"/>
</a>
</g>
</g>
<!-- Node21&#45;&gt;Node7 -->
<g id="edge40_Node000021_Node000007" class="edge">
<title>Node21&#45;&gt;Node7</title>
<g id="a_edge40_Node000021_Node000007"><a xlink:title=" ">
<path fill="none" stroke="#63b8ff" d="M830.13,-158.97C792.4,-150.07 729.46,-135.2 687.84,-125.38"/>
<polygon fill="#63b8ff" stroke="#63b8ff" points="688.54,-121.95 678,-123.06 686.93,-128.76 688.54,-121.95"/>
</a>
</g>
</g>
<!-- Node21&#45;&gt;Node9 -->
<g id="edge42_Node000021_Node000009" class="edge">
<title>Node21&#45;&gt;Node9</title>
<g id="a_edge42_Node000021_Node000009"><a xlink:title=" ">
<path fill="none" stroke="#63b8ff" d="M783.5,-160.2C650.1,-149.48 383.07,-128.04 274.53,-119.32"/>
<polygon fill="#63b8ff" stroke="#63b8ff" points="274.77,-115.83 264.53,-118.51 274.21,-122.8 274.77,-115.83"/>
</a>
</g>
</g>
<!-- Node21&#45;&gt;Node13 -->
<g id="edge41_Node000021_Node000013" class="edge">
<title>Node21&#45;&gt;Node13</title>
<g id="a_edge41_Node000021_Node000013"><a xlink:title=" ">
<path fill="none" stroke="#63b8ff" d="M850.81,-158.88C833.25,-147.06 798.05,-123.78 767,-106 747.28,-94.71 724.3,-83.03 707.21,-74.63"/>
<polygon fill="#63b8ff" stroke="#63b8ff" points="708.42,-71.32 697.9,-70.08 705.35,-77.61 708.42,-71.32"/>
</a>
</g>
</g>
<!-- Node21&#45;&gt;Node18 -->
<g id="edge32_Node000021_Node000018" class="edge">
<title>Node21&#45;&gt;Node18</title>
<g id="a_edge32_Node000021_Node000018"><a xlink:title=" ">
<path fill="none" stroke="#63b8ff" d="M886.79,-158.97C916.6,-149.92 966.67,-134.73 999.01,-124.91"/>
<polygon fill="#63b8ff" stroke="#63b8ff" points="1000.28,-128.18 1008.83,-121.93 998.25,-121.48 1000.28,-128.18"/>
</a>
</g>
</g>
<!-- Node21&#45;&gt;Node19 -->
<g id="edge34_Node000021_Node000019" class="edge">
<title>Node21&#45;&gt;Node19</title>
<g id="a_edge34_Node000021_Node000019"><a xlink:title=" ">
<path fill="none" stroke="#63b8ff" d="M898.22,-158.96C935.97,-151.01 997.09,-137.88 1059.37,-123.07"/>
<polygon fill="#63b8ff" stroke="#63b8ff" points="1060.46,-126.41 1069.37,-120.68 1058.83,-119.6 1060.46,-126.41"/>
</a>
</g>
</g>
<!-- Node22 -->
<g id="Node000022" class="node">
<title>Node22</title>
<g id="a_Node000022"><a xlink:title=" ">
<polygon fill="#e0e0e0" stroke="#999999" points="903,-123 871,-123 871,-106 903,-106 903,-123"/>
<text text-anchor="middle" x="887" y="-112.6" font-family="Helvetica,sans-Serif" font-size="8.00">map</text>
</a>
</g>
</g>
<!-- Node21&#45;&gt;Node22 -->
<g id="edge36_Node000021_Node000022" class="edge">
<title>Node21&#45;&gt;Node22</title>
<g id="a_edge36_Node000021_Node000022"><a xlink:title=" ">
<path fill="none" stroke="#63b8ff" d="M865.69,-158.97C869.12,-151.97 874.36,-141.28 878.79,-132.25"/>
<polygon fill="#63b8ff" stroke="#63b8ff" points="882.04,-133.58 883.3,-123.06 875.75,-130.49 882.04,-133.58"/>
</a>
</g>
</g>
<!-- Node23 -->
<g id="Node000023" class="node">
<title>Node23</title>
<g id="a_Node000023"><a xlink:title=" ">
<polygon fill="#e0e0e0" stroke="#999999" points="953,-123 921,-123 921,-106 953,-106 953,-123"/>
<text text-anchor="middle" x="937" y="-112.6" font-family="Helvetica,sans-Serif" font-size="8.00">new</text>
</a>
</g>
</g>
<!-- Node21&#45;&gt;Node23 -->
<g id="edge37_Node000021_Node000023" class="edge">
<title>Node21&#45;&gt;Node23</title>
<g id="a_edge37_Node000021_Node000023"><a xlink:title=" ">
<path fill="none" stroke="#63b8ff" d="M873.07,-158.97C884.7,-151.07 903.23,-138.46 917.36,-128.86"/>
<polygon fill="#63b8ff" stroke="#63b8ff" points="919.59,-131.57 925.89,-123.06 915.65,-125.78 919.59,-131.57"/>
</a>
</g>
</g>
<!-- Node24 -->
<g id="Node000024" class="node">
<title>Node24</title>
<g id="a_Node000024"><a xlink:title=" ">
<polygon fill="#e0e0e0" stroke="#999999" points="853,-123 819,-123 819,-106 853,-106 853,-123"/>
<text text-anchor="middle" x="836" y="-112.6" font-family="Helvetica,sans-Serif" font-size="8.00">utility</text>
</a>
</g>
</g>
<!-- Node21&#45;&gt;Node24 -->
<g id="edge38_Node000021_Node000024" class="edge">
<title>Node21&#45;&gt;Node24</title>
<g id="a_edge38_Node000021_Node000024"><a xlink:title=" ">
<path fill="none" stroke="#63b8ff" d="M858.16,-158.97C854.59,-151.97 849.14,-141.28 844.54,-132.25"/>
<polygon fill="#63b8ff" stroke="#63b8ff" points="847.51,-130.38 839.85,-123.06 841.28,-133.55 847.51,-130.38"/>
</a>
</g>
</g>
<!-- Node25&#45;&gt;Node2 -->
<g id="edge45_Node000025_Node000002" class="edge">
<title>Node25&#45;&gt;Node2</title>
<g id="a_edge45_Node000025_Node000002"><a xlink:title=" ">
<path fill="none" stroke="#63b8ff" d="M256.83,-162.48C176.66,-152.23 -4.22,-121 57,-53 82.46,-24.72 346.86,-13.5 438.74,-10.43"/>
<polygon fill="#63b8ff" stroke="#63b8ff" points="438.94,-13.93 448.82,-10.11 438.71,-6.93 438.94,-13.93"/>
</a>
</g>
</g>
<!-- Node25&#45;&gt;Node3 -->
<g id="edge48_Node000025_Node000003" class="edge">
<title>Node25&#45;&gt;Node3</title>
<g id="a_edge48_Node000025_Node000003"><a xlink:title=" ">
<path fill="none" stroke="#63b8ff" d="M327.97,-158.97C374.84,-148.89 457.17,-131.17 500.86,-121.77"/>
<polygon fill="#63b8ff" stroke="#63b8ff" points="501.8,-125.15 510.84,-119.62 500.32,-118.31 501.8,-125.15"/>
</a>
</g>
</g>
<!-- Node25&#45;&gt;Node6 -->
<g id="edge46_Node000025_Node000006" class="edge">
<title>Node25&#45;&gt;Node6</title>
<g id="a_edge46_Node000025_Node000006"><a xlink:title=" ">
<path fill="none" stroke="#63b8ff" d="M299.79,-158.88C310.72,-146.85 333.22,-123.07 355,-106 369.82,-94.38 387.91,-83.21 401.98,-75.1"/>
<polygon fill="#63b8ff" stroke="#63b8ff" points="404.01,-77.97 411,-70.01 400.57,-71.88 404.01,-77.97"/>
</a>
</g>
</g>
<!-- Node25&#45;&gt;Node8 -->
<g id="edge47_Node000025_Node000008" class="edge">
<title>Node25&#45;&gt;Node8</title>
<g id="a_edge47_Node000025_Node000008"><a xlink:title=" ">
<path fill="none" stroke="#63b8ff" d="M256.89,-162.53C224.32,-157.54 176.25,-146.57 141,-123 124.14,-111.72 110.44,-92.65 102.06,-78.93"/>
<polygon fill="#63b8ff" stroke="#63b8ff" points="104.97,-76.97 96.93,-70.07 98.91,-80.48 104.97,-76.97"/>
</a>
</g>
</g>
<!-- Node25&#45;&gt;Node9 -->
<g id="edge49_Node000025_Node000009" class="edge">
<title>Node25&#45;&gt;Node9</title>
<g id="a_edge49_Node000025_Node000009"><a xlink:title=" ">
<path fill="none" stroke="#63b8ff" d="M283.26,-158.97C273.22,-151.22 257.33,-138.94 245,-129.41"/>
<polygon fill="#63b8ff" stroke="#63b8ff" points="246.83,-126.4 236.78,-123.06 242.55,-131.94 246.83,-126.4"/>
</a>
</g>
</g>
<!-- Node25&#45;&gt;Node13 -->
<g id="edge50_Node000025_Node000013" class="edge">
<title>Node25&#45;&gt;Node13</title>
<g id="a_edge50_Node000025_Node000013"><a xlink:title=" ">
<path fill="none" stroke="#63b8ff" d="M312.51,-158.98C345,-146.65 412.42,-121.93 471,-106 524.29,-91.51 586.31,-79.26 629.25,-71.49"/>
<polygon fill="#63b8ff" stroke="#63b8ff" points="629.97,-74.92 639.2,-69.71 628.74,-68.03 629.97,-74.92"/>
</a>
</g>
</g>
</g>
</svg>
