<?xml version="1.0" encoding="UTF-8" standalone="no"?>
<!DOCTYPE svg PUBLIC "-//W3C//DTD SVG 1.1//EN"
 "http://www.w3.org/Graphics/SVG/1.1/DTD/svg11.dtd">
<!-- Generated by graphviz version 2.43.0 (0)
 -->
<!-- Title: gdfs.hpp Pages: 1 -->
<svg width="1256pt" height="290pt"
 viewBox="0.00 0.00 1256.38 290.00" xmlns="http://www.w3.org/2000/svg" xmlns:xlink="http://www.w3.org/1999/xlink">
<g id="graph0" class="graph" transform="scale(1 1) rotate(0) translate(4 286)">
<title>gdfs.hpp</title>
<!-- Node1 -->
<g id="Node000001" class="node">
<title>Node1</title>
<g id="a_Node000001"><a xlink:title=" ">
<polygon fill="#999999" stroke="#666666" points="567.5,-282 514.5,-282 514.5,-265 567.5,-265 567.5,-282"/>
<text text-anchor="middle" x="541" y="-271.6" font-family="Helvetica,sans-Serif" font-size="8.00">gdfs.hpp</text>
</a>
</g>
</g>
<!-- Node2 -->
<g id="Node000002" class="node">
<title>Node2</title>
<g id="a_Node000002"><a xlink:title=" ">
<polygon fill="#e0e0e0" stroke="#999999" points="523.5,-17 476.5,-17 476.5,0 523.5,0 523.5,-17"/>
<text text-anchor="middle" x="500" y="-6.6" font-family="Helvetica,sans-Serif" font-size="8.00">cstddef</text>
</a>
</g>
</g>
<!-- Node1&#45;&gt;Node2 -->
<g id="edge1_Node000001_Node000002" class="edge">
<title>Node1&#45;&gt;Node2</title>
<g id="a_edge1_Node000001_Node000002"><a xlink:title=" ">
<path fill="none" stroke="#63b8ff" d="M514.17,-273.11C405.01,-274.91 0,-274.42 0,-168.5 0,-168.5 0,-168.5 0,-113.5 0,-80.51 14.44,-69.5 43,-53 114.94,-11.44 372.83,-8.72 466.06,-9.14"/>
<polygon fill="#63b8ff" stroke="#63b8ff" points="466.32,-12.65 476.34,-9.21 466.36,-5.65 466.32,-12.65"/>
</a>
</g>
</g>
<!-- Node3 -->
<g id="Node000003" class="node">
<title>Node3</title>
<g id="a_Node000003"><a xlink:title=" ">
<polygon fill="#e0e0e0" stroke="#999999" points="608,-123 566,-123 566,-106 608,-106 608,-123"/>
<text text-anchor="middle" x="587" y="-112.6" font-family="Helvetica,sans-Serif" font-size="8.00">vector</text>
</a>
</g>
</g>
<!-- Node1&#45;&gt;Node3 -->
<g id="edge2_Node000001_Node000003" class="edge">
<title>Node1&#45;&gt;Node3</title>
<g id="a_edge2_Node000001_Node000003"><a xlink:title=" ">
<path fill="none" stroke="#63b8ff" d="M543.22,-264.93C550.18,-241.15 571.75,-167.56 581.77,-133.33"/>
<polygon fill="#63b8ff" stroke="#63b8ff" points="585.24,-133.95 584.7,-123.37 578.52,-131.98 585.24,-133.95"/>
</a>
</g>
</g>
<!-- Node4 -->
<g id="Node000004" class="node">
<title>Node4</title>
<g id="a_Node000004"><a xlink:href="../../d8/d62/existence__set_8hpp.html" target="_top" xlink:title=" ">
<polygon fill="white" stroke="#666666" points="399,-176 229,-176 229,-159 399,-159 399,-176"/>
<text text-anchor="middle" x="314" y="-165.6" font-family="Helvetica,sans-Serif" font-size="8.00">../types/containers/existence_set.hpp</text>
</a>
</g>
</g>
<!-- Node1&#45;&gt;Node4 -->
<g id="edge3_Node000001_Node000004" class="edge">
<title>Node1&#45;&gt;Node4</title>
<g id="a_edge3_Node000001_Node000004"><a xlink:title=" ">
<path fill="none" stroke="#63b8ff" d="M524.31,-264.85C485.02,-246.85 386.5,-201.72 339.6,-180.23"/>
<polygon fill="#63b8ff" stroke="#63b8ff" points="340.96,-177 330.41,-176.02 338.04,-183.37 340.96,-177"/>
</a>
</g>
</g>
<!-- Node9 -->
<g id="Node000009" class="node">
<title>Node9</title>
<g id="a_Node000009"><a xlink:href="../../df/d93/utils_8hpp.html" target="_top" xlink:title=" ">
<polygon fill="white" stroke="#666666" points="209.5,-123 122.5,-123 122.5,-106 209.5,-106 209.5,-123"/>
<text text-anchor="middle" x="166" y="-112.6" font-family="Helvetica,sans-Serif" font-size="8.00">../../utils/utils.hpp</text>
</a>
</g>
</g>
<!-- Node1&#45;&gt;Node9 -->
<g id="edge26_Node000001_Node000009" class="edge">
<title>Node1&#45;&gt;Node9</title>
<g id="a_edge26_Node000001_Node000009"><a xlink:title=" ">
<path fill="none" stroke="#63b8ff" d="M514.44,-269.47C456.76,-261.89 317.43,-238.05 220,-176 201.86,-164.45 186.14,-145.14 176.41,-131.45"/>
<polygon fill="#63b8ff" stroke="#63b8ff" points="179.2,-129.32 170.68,-123.03 173.42,-133.26 179.2,-129.32"/>
</a>
</g>
</g>
<!-- Node13 -->
<g id="Node000013" class="node">
<title>Node13</title>
<g id="a_Node000013"><a xlink:href="../../d7/d65/intrinsics_8hpp.html" target="_top" xlink:title=" ">
<polygon fill="#fff0f0" stroke="red" points="690.5,-70 591.5,-70 591.5,-53 690.5,-53 690.5,-70"/>
<text text-anchor="middle" x="641" y="-59.6" font-family="Helvetica,sans-Serif" font-size="8.00">../utils/intrinsics.hpp</text>
</a>
</g>
</g>
<!-- Node1&#45;&gt;Node13 -->
<g id="edge52_Node000001_Node000013" class="edge">
<title>Node1&#45;&gt;Node13</title>
<g id="a_edge52_Node000001_Node000013"><a xlink:title=" ">
<path fill="none" stroke="#63b8ff" d="M567.58,-272.7C642.65,-272.74 862.33,-269.13 1039,-229 1139.41,-206.19 1200.83,-216.01 1245,-123 1248.24,-116.17 1250.15,-111.53 1245,-106 1208.46,-66.73 846.25,-62.43 700.9,-62.3"/>
<polygon fill="#63b8ff" stroke="#63b8ff" points="700.82,-58.8 690.82,-62.29 700.82,-65.8 700.82,-58.8"/>
</a>
</g>
</g>
<!-- Node16 -->
<g id="Node000016" class="node">
<title>Node16</title>
<g id="a_Node000016"><a xlink:href="../../df/d47/stack_8hpp.html" target="_top" xlink:title=" ">
<polygon fill="white" stroke="#666666" points="739,-176 603,-176 603,-159 739,-159 739,-176"/>
<text text-anchor="middle" x="671" y="-165.6" font-family="Helvetica,sans-Serif" font-size="8.00">../types/containers/stack.hpp</text>
</a>
</g>
</g>
<!-- Node1&#45;&gt;Node16 -->
<g id="edge21_Node000001_Node000016" class="edge">
<title>Node1&#45;&gt;Node16</title>
<g id="a_edge21_Node000001_Node000016"><a xlink:title=" ">
<path fill="none" stroke="#63b8ff" d="M550.77,-264.68C572.62,-247.21 625.67,-204.77 653.42,-182.57"/>
<polygon fill="#63b8ff" stroke="#63b8ff" points="655.85,-185.11 661.47,-176.12 651.47,-179.64 655.85,-185.11"/>
</a>
</g>
</g>
<!-- Node17 -->
<g id="Node000017" class="node">
<title>Node17</title>
<g id="a_Node000017"><a xlink:href="../../da/deb/managed__node_8hpp.html" target="_top" xlink:title=" ">
<polygon fill="white" stroke="#666666" points="1030,-229 908,-229 908,-212 1030,-212 1030,-229"/>
<text text-anchor="middle" x="969" y="-218.6" font-family="Helvetica,sans-Serif" font-size="8.00">base/managed_node.hpp</text>
</a>
</g>
</g>
<!-- Node1&#45;&gt;Node17 -->
<g id="edge27_Node000001_Node000017" class="edge">
<title>Node1&#45;&gt;Node17</title>
<g id="a_edge27_Node000001_Node000017"><a xlink:title=" ">
<path fill="none" stroke="#63b8ff" d="M567.77,-269.31C632.82,-261.56 800.9,-241.53 897.63,-230"/>
<polygon fill="#63b8ff" stroke="#63b8ff" points="898.11,-233.47 907.62,-228.81 897.28,-226.52 898.11,-233.47"/>
</a>
</g>
</g>
<!-- Node25 -->
<g id="Node000025" class="node">
<title>Node25</title>
<g id="a_Node000025"><a xlink:href="../../d2/d1c/solver_8hpp.html" target="_top" xlink:title=" ">
<polygon fill="white" stroke="#666666" points="514,-176 432,-176 432,-159 514,-159 514,-176"/>
<text text-anchor="middle" x="473" y="-165.6" font-family="Helvetica,sans-Serif" font-size="8.00">base/solver.hpp</text>
</a>
</g>
</g>
<!-- Node1&#45;&gt;Node25 -->
<g id="edge44_Node000001_Node000025" class="edge">
<title>Node1&#45;&gt;Node25</title>
<g id="a_edge44_Node000001_Node000025"><a xlink:title=" ">
<path fill="none" stroke="#63b8ff" d="M535.89,-264.68C524.81,-247.74 498.38,-207.32 483.55,-184.64"/>
<polygon fill="#63b8ff" stroke="#63b8ff" points="486.39,-182.58 477.99,-176.12 480.53,-186.41 486.39,-182.58"/>
</a>
</g>
</g>
<!-- Node4&#45;&gt;Node2 -->
<g id="edge4_Node000004_Node000002" class="edge">
<title>Node4&#45;&gt;Node2</title>
<g id="a_edge4_Node000004_Node000002"><a xlink:title=" ">
<path fill="none" stroke="#63b8ff" d="M238.71,-158.97C143.66,-146.65 -0.91,-116.87 57,-53 84.39,-22.79 367.73,-12.83 466.37,-10.26"/>
<polygon fill="#63b8ff" stroke="#63b8ff" points="466.49,-13.76 476.39,-10.01 466.31,-6.76 466.49,-13.76"/>
</a>
</g>
</g>
<!-- Node4&#45;&gt;Node3 -->
<g id="edge9_Node000004_Node000003" class="edge">
<title>Node4&#45;&gt;Node3</title>
<g id="a_edge9_Node000004_Node000003"><a xlink:title=" ">
<path fill="none" stroke="#63b8ff" d="M354.28,-158.97C409.14,-148.73 506.18,-130.6 555.84,-121.32"/>
<polygon fill="#63b8ff" stroke="#63b8ff" points="556.78,-124.71 565.96,-119.43 555.49,-117.83 556.78,-124.71"/>
</a>
</g>
</g>
<!-- Node5 -->
<g id="Node000005" class="node">
<title>Node5</title>
<g id="a_Node000005"><a xlink:title=" ">
<polygon fill="#e0e0e0" stroke="#999999" points="124,-70 66,-70 66,-53 124,-53 124,-70"/>
<text text-anchor="middle" x="95" y="-59.6" font-family="Helvetica,sans-Serif" font-size="8.00">functional</text>
</a>
</g>
</g>
<!-- Node4&#45;&gt;Node5 -->
<g id="edge5_Node000004_Node000005" class="edge">
<title>Node4&#45;&gt;Node5</title>
<g id="a_edge5_Node000004_Node000005"><a xlink:title=" ">
<path fill="none" stroke="#63b8ff" d="M244.11,-158.98C193.95,-152.21 131.99,-140.59 113,-123 101.19,-112.06 97.01,-93.76 95.59,-80.14"/>
<polygon fill="#63b8ff" stroke="#63b8ff" points="99.08,-79.83 94.94,-70.07 92.09,-80.28 99.08,-79.83"/>
</a>
</g>
</g>
<!-- Node6 -->
<g id="Node000006" class="node">
<title>Node6</title>
<g id="a_Node000006"><a xlink:title=" ">
<polygon fill="#e0e0e0" stroke="#999999" points="471,-70 433,-70 433,-53 471,-53 471,-70"/>
<text text-anchor="middle" x="452" y="-59.6" font-family="Helvetica,sans-Serif" font-size="8.00">limits</text>
</a>
</g>
</g>
<!-- Node4&#45;&gt;Node6 -->
<g id="edge6_Node000004_Node000006" class="edge">
<title>Node4&#45;&gt;Node6</title>
<g id="a_edge6_Node000004_Node000006"><a xlink:title=" ">
<path fill="none" stroke="#63b8ff" d="M315.05,-158.71C317.15,-146.01 323.04,-120.76 338,-106 350.34,-93.82 393.51,-79.43 423.04,-70.64"/>
<polygon fill="#63b8ff" stroke="#63b8ff" points="424.23,-73.94 432.84,-67.77 422.26,-67.22 424.23,-73.94"/>
</a>
</g>
</g>
<!-- Node7 -->
<g id="Node000007" class="node">
<title>Node7</title>
<g id="a_Node000007"><a xlink:title=" ">
<polygon fill="#e0e0e0" stroke="#999999" points="715.5,-123 626.5,-123 626.5,-106 715.5,-106 715.5,-123"/>
<text text-anchor="middle" x="671" y="-112.6" font-family="Helvetica,sans-Serif" font-size="8.00">memory_resource</text>
</a>
</g>
</g>
<!-- Node4&#45;&gt;Node7 -->
<g id="edge7_Node000004_Node000007" class="edge">
<title>Node4&#45;&gt;Node7</title>
<g id="a_edge7_Node000004_Node000007"><a xlink:title=" ">
<path fill="none" stroke="#63b8ff" d="M366.68,-158.97C433.55,-149.42 548.37,-133.02 616.23,-123.32"/>
<polygon fill="#63b8ff" stroke="#63b8ff" points="616.89,-126.77 626.3,-121.89 615.9,-119.84 616.89,-126.77"/>
</a>
</g>
</g>
<!-- Node8 -->
<g id="Node000008" class="node">
<title>Node8</title>
<g id="a_Node000008"><a xlink:title=" ">
<polygon fill="#e0e0e0" stroke="#999999" points="413.5,-70 354.5,-70 354.5,-53 413.5,-53 413.5,-70"/>
<text text-anchor="middle" x="384" y="-59.6" font-family="Helvetica,sans-Serif" font-size="8.00">type_traits</text>
</a>
</g>
</g>
<!-- Node4&#45;&gt;Node8 -->
<g id="edge8_Node000004_Node000008" class="edge">
<title>Node4&#45;&gt;Node8</title>
<g id="a_edge8_Node000004_Node000008"><a xlink:title=" ">
<path fill="none" stroke="#63b8ff" d="M298.84,-158.87C278.83,-147.77 247.71,-126.26 262,-106 271.79,-92.11 312.55,-79.46 344.29,-71.43"/>
<polygon fill="#63b8ff" stroke="#63b8ff" points="345.35,-74.77 354.23,-68.98 343.68,-67.97 345.35,-74.77"/>
</a>
</g>
</g>
<!-- Node4&#45;&gt;Node9 -->
<g id="edge10_Node000004_Node000009" class="edge">
<title>Node4&#45;&gt;Node9</title>
<g id="a_edge10_Node000004_Node000009"><a xlink:title=" ">
<path fill="none" stroke="#63b8ff" d="M292.16,-158.97C267.13,-150.35 225.9,-136.14 197.42,-126.33"/>
<polygon fill="#63b8ff" stroke="#63b8ff" points="198.52,-123.01 187.93,-123.06 196.24,-129.62 198.52,-123.01"/>
</a>
</g>
</g>
<!-- Node4&#45;&gt;Node13 -->
<g id="edge20_Node000004_Node000013" class="edge">
<title>Node4&#45;&gt;Node13</title>
<g id="a_edge20_Node000004_Node000013"><a xlink:title=" ">
<path fill="none" stroke="#63b8ff" d="M318.85,-158.65C327.53,-145.38 347.03,-118.71 371,-106 406.51,-87.17 513.15,-74.22 581.3,-67.61"/>
<polygon fill="#63b8ff" stroke="#63b8ff" points="581.85,-71.07 591.48,-66.64 581.19,-64.1 581.85,-71.07"/>
</a>
</g>
</g>
<!-- Node9&#45;&gt;Node2 -->
<g id="edge13_Node000009_Node000002" class="edge">
<title>Node9&#45;&gt;Node2</title>
<g id="a_edge13_Node000009_Node000002"><a xlink:title=" ">
<path fill="none" stroke="#63b8ff" d="M193.89,-105.98C222.58,-97.99 268.4,-84.53 307,-70 324.32,-63.48 327.6,-59.29 345,-53 385.97,-38.18 434.51,-25.28 466.22,-17.46"/>
<polygon fill="#63b8ff" stroke="#63b8ff" points="467.4,-20.77 476.29,-15 465.75,-13.97 467.4,-20.77"/>
</a>
</g>
</g>
<!-- Node9&#45;&gt;Node5 -->
<g id="edge14_Node000009_Node000005" class="edge">
<title>Node9&#45;&gt;Node5</title>
<g id="a_edge14_Node000009_Node000005"><a xlink:title=" ">
<path fill="none" stroke="#63b8ff" d="M155.52,-105.97C144.62,-98.14 127.3,-85.7 113.98,-76.13"/>
<polygon fill="#63b8ff" stroke="#63b8ff" points="115.68,-73.05 105.52,-70.06 111.6,-78.73 115.68,-73.05"/>
</a>
</g>
</g>
<!-- Node9&#45;&gt;Node6 -->
<g id="edge15_Node000009_Node000006" class="edge">
<title>Node9&#45;&gt;Node6</title>
<g id="a_edge15_Node000009_Node000006"><a xlink:title=" ">
<path fill="none" stroke="#63b8ff" d="M209.68,-107.12C260.79,-99.42 347.87,-85.54 422,-70 422.22,-69.95 422.43,-69.91 422.65,-69.86"/>
<polygon fill="#63b8ff" stroke="#63b8ff" points="423.72,-73.21 432.68,-67.56 422.16,-66.39 423.72,-73.21"/>
</a>
</g>
</g>
<!-- Node9&#45;&gt;Node8 -->
<g id="edge17_Node000009_Node000008" class="edge">
<title>Node9&#45;&gt;Node8</title>
<g id="a_edge17_Node000009_Node000008"><a xlink:title=" ">
<path fill="none" stroke="#63b8ff" d="M198.17,-105.97C237.01,-96.89 302.34,-81.6 344.28,-71.79"/>
<polygon fill="#63b8ff" stroke="#63b8ff" points="345.22,-75.17 354.16,-69.48 343.62,-68.35 345.22,-75.17"/>
</a>
</g>
</g>
<!-- Node10 -->
<g id="Node000010" class="node">
<title>Node10</title>
<g id="a_Node000010"><a xlink:title=" ">
<polygon fill="#e0e0e0" stroke="#999999" points="238,-70 200,-70 200,-53 238,-53 238,-70"/>
<text text-anchor="middle" x="219" y="-59.6" font-family="Helvetica,sans-Serif" font-size="8.00">array</text>
</a>
</g>
</g>
<!-- Node9&#45;&gt;Node10 -->
<g id="edge11_Node000009_Node000010" class="edge">
<title>Node9&#45;&gt;Node10</title>
<g id="a_edge11_Node000009_Node000010"><a xlink:title=" ">
<path fill="none" stroke="#63b8ff" d="M173.82,-105.97C181.65,-98.44 193.9,-86.65 203.67,-77.25"/>
<polygon fill="#63b8ff" stroke="#63b8ff" points="206.37,-79.51 211.15,-70.06 201.51,-74.47 206.37,-79.51"/>
</a>
</g>
</g>
<!-- Node11 -->
<g id="Node000011" class="node">
<title>Node11</title>
<g id="a_Node000011"><a xlink:title=" ">
<polygon fill="#e0e0e0" stroke="#999999" points="298,-70 256,-70 256,-53 298,-53 298,-70"/>
<text text-anchor="middle" x="277" y="-59.6" font-family="Helvetica,sans-Serif" font-size="8.00">cmath</text>
</a>
</g>
</g>
<!-- Node9&#45;&gt;Node11 -->
<g id="edge12_Node000009_Node000011" class="edge">
<title>Node9&#45;&gt;Node11</title>
<g id="a_edge12_Node000009_Node000011"><a xlink:title=" ">
<path fill="none" stroke="#63b8ff" d="M182.38,-105.97C200.58,-97.61 230.2,-84 251.45,-74.24"/>
<polygon fill="#63b8ff" stroke="#63b8ff" points="252.93,-77.41 260.55,-70.06 250.01,-71.05 252.93,-77.41"/>
</a>
</g>
</g>
<!-- Node12 -->
<g id="Node000012" class="node">
<title>Node12</title>
<g id="a_Node000012"><a xlink:title=" ">
<polygon fill="#e0e0e0" stroke="#999999" points="182,-70 142,-70 142,-53 182,-53 182,-70"/>
<text text-anchor="middle" x="162" y="-59.6" font-family="Helvetica,sans-Serif" font-size="8.00">string</text>
</a>
</g>
</g>
<!-- Node9&#45;&gt;Node12 -->
<g id="edge16_Node000009_Node000012" class="edge">
<title>Node9&#45;&gt;Node12</title>
<g id="a_edge16_Node000009_Node000012"><a xlink:title=" ">
<path fill="none" stroke="#63b8ff" d="M165.41,-105.97C164.88,-99.19 164.08,-88.97 163.38,-80.13"/>
<polygon fill="#63b8ff" stroke="#63b8ff" points="166.86,-79.75 162.59,-70.06 159.89,-80.3 166.86,-79.75"/>
</a>
</g>
</g>
<!-- Node9&#45;&gt;Node13 -->
<g id="edge18_Node000009_Node000013" class="edge">
<title>Node9&#45;&gt;Node13</title>
<g id="a_edge18_Node000009_Node000013"><a xlink:title=" ">
<path fill="none" stroke="#63b8ff" d="M209.84,-108.79C295.26,-99.62 484.11,-79.34 581.04,-68.94"/>
<polygon fill="#63b8ff" stroke="#63b8ff" points="581.69,-72.39 591.26,-67.84 580.94,-65.43 581.69,-72.39"/>
</a>
</g>
</g>
<!-- Node13&#45;&gt;Node2 -->
<g id="edge19_Node000013_Node000002" class="edge">
<title>Node13&#45;&gt;Node2</title>
<g id="a_edge19_Node000013_Node000002"><a xlink:title=" ">
<path fill="none" stroke="#63b8ff" d="M620.19,-52.97C596.56,-44.42 557.75,-30.39 530.65,-20.59"/>
<polygon fill="#63b8ff" stroke="#63b8ff" points="531.48,-17.17 520.89,-17.06 529.1,-23.75 531.48,-17.17"/>
</a>
</g>
</g>
<!-- Node16&#45;&gt;Node2 -->
<g id="edge22_Node000016_Node000002" class="edge">
<title>Node16&#45;&gt;Node2</title>
<g id="a_edge22_Node000016_Node000002"><a xlink:title=" ">
<path fill="none" stroke="#63b8ff" d="M693.75,-158.92C709.83,-152.23 730.22,-140.73 740,-123 757.14,-91.94 709.05,-58.79 700,-53 648.4,-19.98 575.6,-11.71 533.55,-9.82"/>
<polygon fill="#63b8ff" stroke="#63b8ff" points="533.67,-6.33 523.56,-9.47 533.43,-13.32 533.67,-6.33"/>
</a>
</g>
</g>
<!-- Node16&#45;&gt;Node3 -->
<g id="edge24_Node000016_Node000003" class="edge">
<title>Node16&#45;&gt;Node3</title>
<g id="a_edge24_Node000016_Node000003"><a xlink:title=" ">
<path fill="none" stroke="#63b8ff" d="M658.61,-158.97C645.33,-150.91 624.02,-137.98 608.1,-128.31"/>
<polygon fill="#63b8ff" stroke="#63b8ff" points="609.81,-125.25 599.45,-123.06 606.18,-131.24 609.81,-125.25"/>
</a>
</g>
</g>
<!-- Node16&#45;&gt;Node7 -->
<g id="edge23_Node000016_Node000007" class="edge">
<title>Node16&#45;&gt;Node7</title>
<g id="a_edge23_Node000016_Node000007"><a xlink:title=" ">
<path fill="none" stroke="#63b8ff" d="M671,-158.97C671,-152.19 671,-141.97 671,-133.13"/>
<polygon fill="#63b8ff" stroke="#63b8ff" points="674.5,-133.06 671,-123.06 667.5,-133.06 674.5,-133.06"/>
</a>
</g>
</g>
<!-- Node16&#45;&gt;Node13 -->
<g id="edge25_Node000016_Node000013" class="edge">
<title>Node16&#45;&gt;Node13</title>
<g id="a_edge25_Node000016_Node000013"><a xlink:title=" ">
<path fill="none" stroke="#63b8ff" d="M686.95,-158.85C707.18,-148.06 737.95,-127.29 725,-106 715.51,-90.4 698.42,-80.15 682.12,-73.54"/>
<polygon fill="#63b8ff" stroke="#63b8ff" points="683.27,-70.23 672.68,-70.05 680.85,-76.8 683.27,-70.23"/>
</a>
</g>
</g>
<!-- Node17&#45;&gt;Node13 -->
<g id="edge43_Node000017_Node000013" class="edge">
<title>Node17&#45;&gt;Node13</title>
<g id="a_edge43_Node000017_Node000013"><a xlink:title=" ">
<path fill="none" stroke="#63b8ff" d="M947.51,-211.87C925.43,-203.79 890.25,-190.26 861,-176 805.16,-148.77 795.41,-134.09 740,-106 716.65,-94.16 689.37,-82.31 669.36,-73.98"/>
<polygon fill="#63b8ff" stroke="#63b8ff" points="670.48,-70.65 659.9,-70.07 667.8,-77.12 670.48,-70.65"/>
</a>
</g>
</g>
<!-- Node18 -->
<g id="Node000018" class="node">
<title>Node18</title>
<g id="a_Node000018"><a xlink:title=" ">
<polygon fill="#e0e0e0" stroke="#999999" points="1173.5,-123 1126.5,-123 1126.5,-106 1173.5,-106 1173.5,-123"/>
<text text-anchor="middle" x="1150" y="-112.6" font-family="Helvetica,sans-Serif" font-size="8.00">cassert</text>
</a>
</g>
</g>
<!-- Node17&#45;&gt;Node18 -->
<g id="edge28_Node000017_Node000018" class="edge">
<title>Node17&#45;&gt;Node18</title>
<g id="a_edge28_Node000017_Node000018"><a xlink:title=" ">
<path fill="none" stroke="#63b8ff" d="M1021.8,-211.98C1064.9,-204.76 1121.15,-192.53 1137,-176 1147.7,-164.85 1150.48,-147.12 1150.86,-133.74"/>
<polygon fill="#63b8ff" stroke="#63b8ff" points="1154.36,-133.31 1150.72,-123.36 1147.36,-133.41 1154.36,-133.31"/>
</a>
</g>
</g>
<!-- Node19 -->
<g id="Node000019" class="node">
<title>Node19</title>
<g id="a_Node000019"><a xlink:title=" ">
<polygon fill="#e0e0e0" stroke="#999999" points="1236,-123 1192,-123 1192,-106 1236,-106 1236,-123"/>
<text text-anchor="middle" x="1214" y="-112.6" font-family="Helvetica,sans-Serif" font-size="8.00">cstdint</text>
</a>
</g>
</g>
<!-- Node17&#45;&gt;Node19 -->
<g id="edge29_Node000017_Node000019" class="edge">
<title>Node17&#45;&gt;Node19</title>
<g id="a_edge29_Node000017_Node000019"><a xlink:title=" ">
<path fill="none" stroke="#63b8ff" d="M1030.38,-213.98C1068.25,-208.49 1116.73,-197.6 1155,-176 1174.7,-164.88 1192.08,-145.2 1202.78,-131.31"/>
<polygon fill="#63b8ff" stroke="#63b8ff" points="1205.67,-133.29 1208.81,-123.17 1200.05,-129.12 1205.67,-133.29"/>
</a>
</g>
</g>
<!-- Node20 -->
<g id="Node000020" class="node">
<title>Node20</title>
<g id="a_Node000020"><a xlink:href="../../dc/d3c/bnode_8hpp.html" target="_top" xlink:title=" ">
<polygon fill="white" stroke="#666666" points="930.5,-176 869.5,-176 869.5,-159 930.5,-159 930.5,-176"/>
<text text-anchor="middle" x="900" y="-165.6" font-family="Helvetica,sans-Serif" font-size="8.00">bnode.hpp</text>
</a>
</g>
</g>
<!-- Node17&#45;&gt;Node20 -->
<g id="edge30_Node000017_Node000020" class="edge">
<title>Node17&#45;&gt;Node20</title>
<g id="a_edge30_Node000017_Node000020"><a xlink:title=" ">
<path fill="none" stroke="#63b8ff" d="M958.82,-211.97C948.22,-204.14 931.39,-191.7 918.44,-182.13"/>
<polygon fill="#63b8ff" stroke="#63b8ff" points="920.35,-179.19 910.22,-176.06 916.18,-184.81 920.35,-179.19"/>
</a>
</g>
</g>
<!-- Node21 -->
<g id="Node000021" class="node">
<title>Node21</title>
<g id="a_Node000021"><a xlink:href="../../d9/df8/heterogeneous__pool_8hpp.html" target="_top" xlink:title=" ">
<polygon fill="white" stroke="#666666" points="1127.5,-176 948.5,-176 948.5,-159 1127.5,-159 1127.5,-176"/>
<text text-anchor="middle" x="1038" y="-165.6" font-family="Helvetica,sans-Serif" font-size="8.00">../../types/pmr/heterogeneous_pool.hpp</text>
</a>
</g>
</g>
<!-- Node17&#45;&gt;Node21 -->
<g id="edge31_Node000017_Node000021" class="edge">
<title>Node17&#45;&gt;Node21</title>
<g id="a_edge31_Node000017_Node000021"><a xlink:title=" ">
<path fill="none" stroke="#63b8ff" d="M979.18,-211.97C989.78,-204.14 1006.61,-191.7 1019.56,-182.13"/>
<polygon fill="#63b8ff" stroke="#63b8ff" points="1021.82,-184.81 1027.78,-176.06 1017.65,-179.19 1021.82,-184.81"/>
</a>
</g>
</g>
<!-- Node21&#45;&gt;Node2 -->
<g id="edge33_Node000021_Node000002" class="edge">
<title>Node21&#45;&gt;Node2</title>
<g id="a_edge33_Node000021_Node000002"><a xlink:title=" ">
<path fill="none" stroke="#63b8ff" d="M1016.39,-158.85C991.99,-150.19 951.11,-135.66 916,-123 830.56,-92.19 811.52,-77.29 724,-53 657.56,-34.56 577.92,-21.09 533.74,-14.35"/>
<polygon fill="#63b8ff" stroke="#63b8ff" points="534.24,-10.89 523.83,-12.86 533.2,-17.81 534.24,-10.89"/>
</a>
</g>
</g>
<!-- Node21&#45;&gt;Node3 -->
<g id="edge39_Node000021_Node000003" class="edge">
<title>Node21&#45;&gt;Node3</title>
<g id="a_edge39_Node000021_Node000003"><a xlink:title=" ">
<path fill="none" stroke="#63b8ff" d="M952.08,-158.97C853.03,-150.07 695.12,-135.1 618.52,-122.77"/>
<polygon fill="#63b8ff" stroke="#63b8ff" points="618.71,-119.25 608.27,-121.04 617.55,-126.15 618.71,-119.25"/>
</a>
</g>
</g>
<!-- Node21&#45;&gt;Node6 -->
<g id="edge35_Node000021_Node000006" class="edge">
<title>Node21&#45;&gt;Node6</title>
<g id="a_edge35_Node000021_Node000006"><a xlink:title=" ">
<path fill="none" stroke="#63b8ff" d="M1000.97,-158.93C942.47,-147.07 825.02,-123.63 725,-106 636.49,-90.4 531.39,-74.35 481.34,-66.85"/>
<polygon fill="#63b8ff" stroke="#63b8ff" points="481.64,-63.36 471.23,-65.34 480.61,-70.28 481.64,-63.36"/>
</a>
</g>
</g>
<!-- Node21&#45;&gt;Node7 -->
<g id="edge40_Node000021_Node000007" class="edge">
<title>Node21&#45;&gt;Node7</title>
<g id="a_edge40_Node000021_Node000007"><a xlink:title=" ">
<path fill="none" stroke="#63b8ff" d="M983.85,-158.97C914.62,-149.36 795.43,-132.79 725.87,-123.12"/>
<polygon fill="#63b8ff" stroke="#63b8ff" points="725.95,-119.6 715.56,-121.69 724.98,-126.54 725.95,-119.6"/>
</a>
</g>
</g>
<!-- Node21&#45;&gt;Node9 -->
<g id="edge42_Node000021_Node000009" class="edge">
<title>Node21&#45;&gt;Node9</title>
<g id="a_edge42_Node000021_Node000009"><a xlink:title=" ">
<path fill="none" stroke="#63b8ff" d="M948.28,-159.56C945.49,-159.37 942.72,-159.18 940,-159 669.62,-141.06 345.77,-124.43 219.81,-118.15"/>
<polygon fill="#63b8ff" stroke="#63b8ff" points="219.82,-114.64 209.66,-117.64 219.48,-121.64 219.82,-114.64"/>
</a>
</g>
</g>
<!-- Node21&#45;&gt;Node13 -->
<g id="edge41_Node000021_Node000013" class="edge">
<title>Node21&#45;&gt;Node13</title>
<g id="a_edge41_Node000021_Node000013"><a xlink:title=" ">
<path fill="none" stroke="#63b8ff" d="M1049.62,-158.94C1066.63,-146.99 1094.67,-123.3 1079,-106 1054.1,-78.5 814.95,-67.69 700.92,-64.07"/>
<polygon fill="#63b8ff" stroke="#63b8ff" points="700.72,-60.57 690.62,-63.76 700.5,-67.56 700.72,-60.57"/>
</a>
</g>
</g>
<!-- Node21&#45;&gt;Node18 -->
<g id="edge32_Node000021_Node000018" class="edge">
<title>Node21&#45;&gt;Node18</title>
<g id="a_edge32_Node000021_Node000018"><a xlink:title=" ">
<path fill="none" stroke="#63b8ff" d="M1054.53,-158.97C1072.89,-150.61 1102.77,-137 1124.22,-127.24"/>
<polygon fill="#63b8ff" stroke="#63b8ff" points="1125.76,-130.39 1133.41,-123.06 1122.85,-124.01 1125.76,-130.39"/>
</a>
</g>
</g>
<!-- Node21&#45;&gt;Node19 -->
<g id="edge34_Node000021_Node000019" class="edge">
<title>Node21&#45;&gt;Node19</title>
<g id="a_edge34_Node000021_Node000019"><a xlink:title=" ">
<path fill="none" stroke="#63b8ff" d="M1063.97,-158.97C1095.34,-149.88 1148.1,-134.59 1181.97,-124.78"/>
<polygon fill="#63b8ff" stroke="#63b8ff" points="1183.2,-128.07 1191.83,-121.93 1181.25,-121.35 1183.2,-128.07"/>
</a>
</g>
</g>
<!-- Node22 -->
<g id="Node000022" class="node">
<title>Node22</title>
<g id="a_Node000022"><a xlink:title=" ">
<polygon fill="#e0e0e0" stroke="#999999" points="959.5,-123 924.5,-123 924.5,-106 959.5,-106 959.5,-123"/>
<text text-anchor="middle" x="942" y="-112.6" font-family="Helvetica,sans-Serif" font-size="8.00">map</text>
</a>
</g>
</g>
<!-- Node21&#45;&gt;Node22 -->
<g id="edge36_Node000021_Node000022" class="edge">
<title>Node21&#45;&gt;Node22</title>
<g id="a_edge36_Node000021_Node000022"><a xlink:title=" ">
<path fill="none" stroke="#63b8ff" d="M1023.83,-158.97C1008.38,-150.76 983.4,-137.49 965.1,-127.77"/>
<polygon fill="#63b8ff" stroke="#63b8ff" points="966.7,-124.66 956.22,-123.06 963.41,-130.84 966.7,-124.66"/>
</a>
</g>
</g>
<!-- Node23 -->
<g id="Node000023" class="node">
<title>Node23</title>
<g id="a_Node000023"><a xlink:title=" ">
<polygon fill="#e0e0e0" stroke="#999999" points="1012,-123 978,-123 978,-106 1012,-106 1012,-123"/>
<text text-anchor="middle" x="995" y="-112.6" font-family="Helvetica,sans-Serif" font-size="8.00">new</text>
</a>
</g>
</g>
<!-- Node21&#45;&gt;Node23 -->
<g id="edge37_Node000021_Node000023" class="edge">
<title>Node21&#45;&gt;Node23</title>
<g id="a_edge37_Node000021_Node000023"><a xlink:title=" ">
<path fill="none" stroke="#63b8ff" d="M1031.66,-158.97C1025.43,-151.59 1015.76,-140.12 1007.91,-130.81"/>
<polygon fill="#63b8ff" stroke="#63b8ff" points="1010.49,-128.45 1001.37,-123.06 1005.14,-132.96 1010.49,-128.45"/>
</a>
</g>
</g>
<!-- Node24 -->
<g id="Node000024" class="node">
<title>Node24</title>
<g id="a_Node000024"><a xlink:title=" ">
<polygon fill="#e0e0e0" stroke="#999999" points="1069.5,-123 1030.5,-123 1030.5,-106 1069.5,-106 1069.5,-123"/>
<text text-anchor="middle" x="1050" y="-112.6" font-family="Helvetica,sans-Serif" font-size="8.00">utility</text>
</a>
</g>
</g>
<!-- Node21&#45;&gt;Node24 -->
<g id="edge38_Node000021_Node000024" class="edge">
<title>Node21&#45;&gt;Node24</title>
<g id="a_edge38_Node000021_Node000024"><a xlink:title=" ">
<path fill="none" stroke="#63b8ff" d="M1039.77,-158.97C1041.38,-152.12 1043.83,-141.74 1045.92,-132.84"/>
<polygon fill="#63b8ff" stroke="#63b8ff" points="1049.34,-133.59 1048.22,-123.06 1042.52,-131.99 1049.34,-133.59"/>
</a>
</g>
</g>
<!-- Node25&#45;&gt;Node2 -->
<g id="edge45_Node000025_Node000002" class="edge">
<title>Node25&#45;&gt;Node2</title>
<g id="a_edge45_Node000025_Node000002"><a xlink:title=" ">
<path fill="none" stroke="#63b8ff" d="M474.3,-158.93C478.39,-135.15 491.05,-61.56 496.93,-27.33"/>
<polygon fill="#63b8ff" stroke="#63b8ff" points="500.4,-27.81 498.65,-17.37 493.5,-26.63 500.4,-27.81"/>
</a>
</g>
</g>
<!-- Node25&#45;&gt;Node3 -->
<g id="edge48_Node000025_Node000003" class="edge">
<title>Node25&#45;&gt;Node3</title>
<g id="a_edge48_Node000025_Node000003"><a xlink:title=" ">
<path fill="none" stroke="#63b8ff" d="M489.82,-158.97C508.51,-150.61 538.93,-137 560.76,-127.24"/>
<polygon fill="#63b8ff" stroke="#63b8ff" points="562.41,-130.33 570.11,-123.06 559.55,-123.94 562.41,-130.33"/>
</a>
</g>
</g>
<!-- Node25&#45;&gt;Node6 -->
<g id="edge46_Node000025_Node000006" class="edge">
<title>Node25&#45;&gt;Node6</title>
<g id="a_edge46_Node000025_Node000006"><a xlink:title=" ">
<path fill="none" stroke="#63b8ff" d="M471.42,-158.68C468.08,-142.11 460.2,-103.11 455.57,-80.18"/>
<polygon fill="#63b8ff" stroke="#63b8ff" points="458.95,-79.23 453.54,-70.12 452.09,-80.62 458.95,-79.23"/>
</a>
</g>
</g>
<!-- Node25&#45;&gt;Node8 -->
<g id="edge47_Node000025_Node000008" class="edge">
<title>Node25&#45;&gt;Node8</title>
<g id="a_edge47_Node000025_Node000008"><a xlink:title=" ">
<path fill="none" stroke="#63b8ff" d="M431.93,-160.1C409.88,-154.35 384.53,-143.48 371,-123 362.4,-109.99 367.74,-92.27 373.97,-79.38"/>
<polygon fill="#63b8ff" stroke="#63b8ff" points="377.23,-80.71 378.91,-70.25 371.07,-77.38 377.23,-80.71"/>
</a>
</g>
</g>
<!-- Node25&#45;&gt;Node9 -->
<g id="edge49_Node000025_Node000009" class="edge">
<title>Node25&#45;&gt;Node9</title>
<g id="a_edge49_Node000025_Node000009"><a xlink:title=" ">
<path fill="none" stroke="#63b8ff" d="M431.92,-159.67C377.16,-150.58 280.17,-134.47 219.68,-124.42"/>
<polygon fill="#63b8ff" stroke="#63b8ff" points="220,-120.92 209.57,-122.74 218.86,-127.83 220,-120.92"/>
</a>
</g>
</g>
<!-- Node25&#45;&gt;Node13 -->
<g id="edge51_Node000025_Node000013" class="edge">
<title>Node25&#45;&gt;Node13</title>
<g id="a_edge51_Node000025_Node000013"><a xlink:title=" ">
<path fill="none" stroke="#63b8ff" d="M482.51,-158.94C497.76,-146.99 528.83,-123.31 557,-106 576.07,-94.28 598.63,-82.72 615.57,-74.46"/>
<polygon fill="#63b8ff" stroke="#63b8ff" points="617.34,-77.49 624.83,-70 614.3,-71.19 617.34,-77.49"/>
</a>
</g>
</g>
<!-- Node26 -->
<g id="Node000026" class="node">
<title>Node26</title>
<g id="a_Node000026"><a xlink:title=" ">
<polygon fill="#e0e0e0" stroke="#999999" points="433.5,-123 380.5,-123 380.5,-106 433.5,-106 433.5,-123"/>
<text text-anchor="middle" x="407" y="-112.6" font-family="Helvetica,sans-Serif" font-size="8.00">iostream</text>
</a>
</g>
</g>
<!-- Node25&#45;&gt;Node26 -->
<g id="edge50_Node000025_Node000026" class="edge">
<title>Node25&#45;&gt;Node26</title>
<g id="a_edge50_Node000025_Node000026"><a xlink:title=" ">
<path fill="none" stroke="#63b8ff" d="M463.26,-158.97C453.22,-151.22 437.33,-138.94 425,-129.41"/>
<polygon fill="#63b8ff" stroke="#63b8ff" points="426.83,-126.4 416.78,-123.06 422.55,-131.94 426.83,-126.4"/>
</a>
</g>
</g>
</g>
</svg>
