<?xml version="1.0" encoding="UTF-8" standalone="no"?>
<!DOCTYPE svg PUBLIC "-//W3C//DTD SVG 1.1//EN"
 "http://www.w3.org/Graphics/SVG/1.1/DTD/svg11.dtd">
<!-- Generated by graphviz version 2.43.0 (0)
 -->
<!-- Title: gdfs.hpp Pages: 1 -->
<svg width="1214pt" height="290pt"
 viewBox="0.00 0.00 1213.96 290.00" xmlns="http://www.w3.org/2000/svg" xmlns:xlink="http://www.w3.org/1999/xlink">
<g id="graph0" class="graph" transform="scale(1 1) rotate(0) translate(4 286)">
<title>gdfs.hpp</title>
<!-- Node1 -->
<g id="Node000001" class="node">
<title>Node1</title>
<g id="a_Node000001"><a xlink:title=" ">
<polygon fill="#999999" stroke="#666666" points="526.5,-282 479.5,-282 479.5,-265 526.5,-265 526.5,-282"/>
<text text-anchor="middle" x="503" y="-271.6" font-family="Helvetica,sans-Serif" font-size="8.00">gdfs.hpp</text>
</a>
</g>
</g>
<!-- Node2 -->
<g id="Node000002" class="node">
<title>Node2</title>
<g id="a_Node000002"><a xlink:title=" ">
<polygon fill="#e0e0e0" stroke="#999999" points="505,-17 463,-17 463,0 505,0 505,-17"/>
<text text-anchor="middle" x="484" y="-6.6" font-family="Helvetica,sans-Serif" font-size="8.00">cstddef</text>
</a>
</g>
</g>
<!-- Node1&#45;&gt;Node2 -->
<g id="edge1_Node000001_Node000002" class="edge">
<title>Node1&#45;&gt;Node2</title>
<g id="a_edge1_Node000001_Node000002"><a xlink:title=" ">
<path fill="none" stroke="#63b8ff" d="M479.41,-272.72C379.97,-273.03 0,-267.71 0,-168.5 0,-168.5 0,-168.5 0,-113.5 0,-80.25 15.15,-69.53 44,-53 113.77,-13.03 364.05,-9.35 452.64,-9.33"/>
<polygon fill="#63b8ff" stroke="#63b8ff" points="452.86,-12.83 462.86,-9.34 452.87,-5.83 452.86,-12.83"/>
</a>
</g>
</g>
<!-- Node3 -->
<g id="Node000003" class="node">
<title>Node3</title>
<g id="a_Node000003"><a xlink:title=" ">
<polygon fill="#e0e0e0" stroke="#999999" points="588,-123 550,-123 550,-106 588,-106 588,-123"/>
<text text-anchor="middle" x="569" y="-112.6" font-family="Helvetica,sans-Serif" font-size="8.00">vector</text>
</a>
</g>
</g>
<!-- Node1&#45;&gt;Node3 -->
<g id="edge2_Node000001_Node000003" class="edge">
<title>Node1&#45;&gt;Node3</title>
<g id="a_edge2_Node000001_Node000003"><a xlink:title=" ">
<path fill="none" stroke="#63b8ff" d="M506,-264.74C513.17,-246.3 531.96,-198.42 549,-159 552.85,-150.09 557.35,-140.27 561.1,-132.21"/>
<polygon fill="#63b8ff" stroke="#63b8ff" points="564.27,-133.69 565.35,-123.15 557.93,-130.72 564.27,-133.69"/>
</a>
</g>
</g>
<!-- Node4 -->
<g id="Node000004" class="node">
<title>Node4</title>
<g id="a_Node000004"><a xlink:href="../../d8/d62/existence__set_8hpp.html" target="_top" xlink:title=" ">
<polygon fill="white" stroke="#666666" points="499.5,-176 352.5,-176 352.5,-159 499.5,-159 499.5,-176"/>
<text text-anchor="middle" x="426" y="-165.6" font-family="Helvetica,sans-Serif" font-size="8.00">../types/containers/existence_set.hpp</text>
</a>
</g>
</g>
<!-- Node1&#45;&gt;Node4 -->
<g id="edge3_Node000001_Node000004" class="edge">
<title>Node1&#45;&gt;Node4</title>
<g id="a_edge3_Node000001_Node000004"><a xlink:title=" ">
<path fill="none" stroke="#63b8ff" d="M497.21,-264.68C484.61,-247.66 454.47,-206.95 437.72,-184.34"/>
<polygon fill="#63b8ff" stroke="#63b8ff" points="440.41,-182.08 431.65,-176.12 434.78,-186.24 440.41,-182.08"/>
</a>
</g>
</g>
<!-- Node10 -->
<g id="Node000010" class="node">
<title>Node10</title>
<g id="a_Node000010"><a xlink:href="../../df/d93/utils_8hpp.html" target="_top" xlink:title=" ">
<polygon fill="white" stroke="#666666" points="225.5,-123 150.5,-123 150.5,-106 225.5,-106 225.5,-123"/>
<text text-anchor="middle" x="188" y="-112.6" font-family="Helvetica,sans-Serif" font-size="8.00">../../utils/utils.hpp</text>
</a>
</g>
</g>
<!-- Node1&#45;&gt;Node10 -->
<g id="edge27_Node000001_Node000010" class="edge">
<title>Node1&#45;&gt;Node10</title>
<g id="a_edge27_Node000001_Node000010"><a xlink:title=" ">
<path fill="none" stroke="#63b8ff" d="M479.45,-267.42C432.28,-256.45 324.1,-227.32 247,-176 228.37,-163.6 210.99,-144.49 199.98,-131.07"/>
<polygon fill="#63b8ff" stroke="#63b8ff" points="202.69,-128.85 193.73,-123.2 197.21,-133.21 202.69,-128.85"/>
</a>
</g>
</g>
<!-- Node14 -->
<g id="Node000014" class="node">
<title>Node14</title>
<g id="a_Node000014"><a xlink:href="../../d7/d65/intrinsics_8hpp.html" target="_top" xlink:title=" ">
<polygon fill="#fff0f0" stroke="red" points="763.5,-70 678.5,-70 678.5,-53 763.5,-53 763.5,-70"/>
<text text-anchor="middle" x="721" y="-59.6" font-family="Helvetica,sans-Serif" font-size="8.00">../utils/intrinsics.hpp</text>
</a>
</g>
</g>
<!-- Node1&#45;&gt;Node14 -->
<g id="edge51_Node000001_Node000014" class="edge">
<title>Node1&#45;&gt;Node14</title>
<g id="a_edge51_Node000001_Node000014"><a xlink:title=" ">
<path fill="none" stroke="#63b8ff" d="M526.72,-267.26C579.83,-254.04 707.09,-213.73 751,-123 758.47,-107.57 747.61,-90.02 736.93,-77.81"/>
<polygon fill="#63b8ff" stroke="#63b8ff" points="739.22,-75.14 729.79,-70.31 734.15,-79.97 739.22,-75.14"/>
</a>
</g>
</g>
<!-- Node17 -->
<g id="Node000017" class="node">
<title>Node17</title>
<g id="a_Node000017"><a xlink:href="../../df/d47/stack_8hpp.html" target="_top" xlink:title=" ">
<polygon fill="white" stroke="#666666" points="674.5,-176 557.5,-176 557.5,-159 674.5,-159 674.5,-176"/>
<text text-anchor="middle" x="616" y="-165.6" font-family="Helvetica,sans-Serif" font-size="8.00">../types/containers/stack.hpp</text>
</a>
</g>
</g>
<!-- Node1&#45;&gt;Node17 -->
<g id="edge22_Node000001_Node000017" class="edge">
<title>Node1&#45;&gt;Node17</title>
<g id="a_edge22_Node000001_Node000017"><a xlink:title=" ">
<path fill="none" stroke="#63b8ff" d="M511.49,-264.68C530.32,-247.36 575.8,-205.5 600.09,-183.15"/>
<polygon fill="#63b8ff" stroke="#63b8ff" points="602.73,-185.47 607.72,-176.12 597.99,-180.32 602.73,-185.47"/>
</a>
</g>
</g>
<!-- Node18 -->
<g id="Node000018" class="node">
<title>Node18</title>
<g id="a_Node000018"><a xlink:href="../../da/deb/managed__node_8hpp.html" target="_top" xlink:title=" ">
<polygon fill="white" stroke="#666666" points="1064,-229 956,-229 956,-212 1064,-212 1064,-229"/>
<text text-anchor="middle" x="1010" y="-218.6" font-family="Helvetica,sans-Serif" font-size="8.00">base/managed_node.hpp</text>
</a>
</g>
</g>
<!-- Node1&#45;&gt;Node18 -->
<g id="edge28_Node000001_Node000018" class="edge">
<title>Node1&#45;&gt;Node18</title>
<g id="a_edge28_Node000001_Node000018"><a xlink:title=" ">
<path fill="none" stroke="#63b8ff" d="M526.77,-270.11C601.29,-262.61 832.06,-239.4 945.59,-227.98"/>
<polygon fill="#63b8ff" stroke="#63b8ff" points="946.28,-231.43 955.87,-226.94 945.57,-224.46 946.28,-231.43"/>
</a>
</g>
</g>
<!-- Node26 -->
<g id="Node000026" class="node">
<title>Node26</title>
<g id="a_Node000026"><a xlink:href="../../d2/d1c/solver_8hpp.html" target="_top" xlink:title=" ">
<polygon fill="white" stroke="#666666" points="328,-176 256,-176 256,-159 328,-159 328,-176"/>
<text text-anchor="middle" x="292" y="-165.6" font-family="Helvetica,sans-Serif" font-size="8.00">base/solver.hpp</text>
</a>
</g>
</g>
<!-- Node1&#45;&gt;Node26 -->
<g id="edge44_Node000001_Node000026" class="edge">
<title>Node1&#45;&gt;Node26</title>
<g id="a_edge44_Node000001_Node000026"><a xlink:title=" ">
<path fill="none" stroke="#63b8ff" d="M487.48,-264.85C451.12,-246.93 360.16,-202.09 316.34,-180.5"/>
<polygon fill="#63b8ff" stroke="#63b8ff" points="317.77,-177.3 307.25,-176.02 314.68,-183.58 317.77,-177.3"/>
</a>
</g>
</g>
<!-- Node4&#45;&gt;Node2 -->
<g id="edge4_Node000004_Node000002" class="edge">
<title>Node4&#45;&gt;Node2</title>
<g id="a_edge4_Node000004_Node000002"><a xlink:title=" ">
<path fill="none" stroke="#63b8ff" d="M435.37,-158.91C444.49,-150.96 457.96,-137.62 465,-123 480.12,-91.58 483.45,-50.25 484.04,-27.13"/>
<polygon fill="#63b8ff" stroke="#63b8ff" points="487.54,-27.14 484.15,-17.1 480.55,-27.06 487.54,-27.14"/>
</a>
</g>
</g>
<!-- Node4&#45;&gt;Node3 -->
<g id="edge10_Node000004_Node000003" class="edge">
<title>Node4&#45;&gt;Node3</title>
<g id="a_edge10_Node000004_Node000003"><a xlink:title=" ">
<path fill="none" stroke="#63b8ff" d="M447.1,-158.97C471.73,-150.19 512.6,-135.61 540.16,-125.79"/>
<polygon fill="#63b8ff" stroke="#63b8ff" points="541.41,-129.06 549.65,-122.4 539.05,-122.46 541.41,-129.06"/>
</a>
</g>
</g>
<!-- Node5 -->
<g id="Node000005" class="node">
<title>Node5</title>
<g id="a_Node000005"><a xlink:title=" ">
<polygon fill="#e0e0e0" stroke="#999999" points="390,-70 340,-70 340,-53 390,-53 390,-70"/>
<text text-anchor="middle" x="365" y="-59.6" font-family="Helvetica,sans-Serif" font-size="8.00">functional</text>
</a>
</g>
</g>
<!-- Node4&#45;&gt;Node5 -->
<g id="edge5_Node000004_Node000005" class="edge">
<title>Node4&#45;&gt;Node5</title>
<g id="a_edge5_Node000004_Node000005"><a xlink:title=" ">
<path fill="none" stroke="#63b8ff" d="M415.76,-158.98C405.73,-151.1 390.73,-137.81 382,-123 374.2,-109.76 369.83,-92.77 367.49,-80.17"/>
<polygon fill="#63b8ff" stroke="#63b8ff" points="370.91,-79.38 365.86,-70.06 363.99,-80.49 370.91,-79.38"/>
</a>
</g>
</g>
<!-- Node6 -->
<g id="Node000006" class="node">
<title>Node6</title>
<g id="a_Node000006"><a xlink:title=" ">
<polygon fill="#e0e0e0" stroke="#999999" points="456,-123 396,-123 396,-106 456,-106 456,-123"/>
<text text-anchor="middle" x="426" y="-112.6" font-family="Helvetica,sans-Serif" font-size="8.00">initializer_list</text>
</a>
</g>
</g>
<!-- Node4&#45;&gt;Node6 -->
<g id="edge6_Node000004_Node000006" class="edge">
<title>Node4&#45;&gt;Node6</title>
<g id="a_edge6_Node000004_Node000006"><a xlink:title=" ">
<path fill="none" stroke="#63b8ff" d="M426,-158.97C426,-152.19 426,-141.97 426,-133.13"/>
<polygon fill="#63b8ff" stroke="#63b8ff" points="429.5,-133.06 426,-123.06 422.5,-133.06 429.5,-133.06"/>
</a>
</g>
</g>
<!-- Node7 -->
<g id="Node000007" class="node">
<title>Node7</title>
<g id="a_Node000007"><a xlink:title=" ">
<polygon fill="#e0e0e0" stroke="#999999" points="442,-70 408,-70 408,-53 442,-53 442,-70"/>
<text text-anchor="middle" x="425" y="-59.6" font-family="Helvetica,sans-Serif" font-size="8.00">limits</text>
</a>
</g>
</g>
<!-- Node4&#45;&gt;Node7 -->
<g id="edge7_Node000004_Node000007" class="edge">
<title>Node4&#45;&gt;Node7</title>
<g id="a_edge7_Node000004_Node000007"><a xlink:title=" ">
<path fill="none" stroke="#63b8ff" d="M415.75,-158.84C406.24,-151.03 392.73,-137.97 387,-123 380.47,-105.92 394.06,-88.45 406.76,-76.71"/>
<polygon fill="#63b8ff" stroke="#63b8ff" points="409.05,-79.35 414.37,-70.18 404.5,-74.03 409.05,-79.35"/>
</a>
</g>
</g>
<!-- Node8 -->
<g id="Node000008" class="node">
<title>Node8</title>
<g id="a_Node000008"><a xlink:title=" ">
<polygon fill="#e0e0e0" stroke="#999999" points="726,-123 644,-123 644,-106 726,-106 726,-123"/>
<text text-anchor="middle" x="685" y="-112.6" font-family="Helvetica,sans-Serif" font-size="8.00">memory_resource</text>
</a>
</g>
</g>
<!-- Node4&#45;&gt;Node8 -->
<g id="edge8_Node000004_Node000008" class="edge">
<title>Node4&#45;&gt;Node8</title>
<g id="a_edge8_Node000004_Node000008"><a xlink:title=" ">
<path fill="none" stroke="#63b8ff" d="M464.22,-158.97C510.03,-149.95 586.85,-134.83 636.72,-125.01"/>
<polygon fill="#63b8ff" stroke="#63b8ff" points="637.49,-128.42 646.63,-123.06 636.14,-121.55 637.49,-128.42"/>
</a>
</g>
</g>
<!-- Node9 -->
<g id="Node000009" class="node">
<title>Node9</title>
<g id="a_Node000009"><a xlink:title=" ">
<polygon fill="#e0e0e0" stroke="#999999" points="119.5,-70 66.5,-70 66.5,-53 119.5,-53 119.5,-70"/>
<text text-anchor="middle" x="93" y="-59.6" font-family="Helvetica,sans-Serif" font-size="8.00">type_traits</text>
</a>
</g>
</g>
<!-- Node4&#45;&gt;Node9 -->
<g id="edge9_Node000004_Node000009" class="edge">
<title>Node4&#45;&gt;Node9</title>
<g id="a_edge9_Node000004_Node000009"><a xlink:title=" ">
<path fill="none" stroke="#63b8ff" d="M359.75,-158.97C281.51,-149.68 159.59,-133.79 141,-123 123.46,-112.82 109.88,-93.54 101.72,-79.48"/>
<polygon fill="#63b8ff" stroke="#63b8ff" points="104.61,-77.46 96.75,-70.36 98.46,-80.82 104.61,-77.46"/>
</a>
</g>
</g>
<!-- Node4&#45;&gt;Node10 -->
<g id="edge11_Node000004_Node000010" class="edge">
<title>Node4&#45;&gt;Node10</title>
<g id="a_edge11_Node000004_Node000010"><a xlink:title=" ">
<path fill="none" stroke="#63b8ff" d="M390.88,-158.97C349.05,-150.01 279.07,-135.02 233.23,-125.19"/>
<polygon fill="#63b8ff" stroke="#63b8ff" points="233.77,-121.73 223.26,-123.06 232.31,-128.57 233.77,-121.73"/>
</a>
</g>
</g>
<!-- Node4&#45;&gt;Node14 -->
<g id="edge21_Node000004_Node000014" class="edge">
<title>Node4&#45;&gt;Node14</title>
<g id="a_edge21_Node000004_Node000014"><a xlink:title=" ">
<path fill="none" stroke="#63b8ff" d="M437.96,-158.93C458.36,-146.31 501.53,-120.89 541,-106 582.66,-90.29 631.92,-78.84 668.36,-71.65"/>
<polygon fill="#63b8ff" stroke="#63b8ff" points="669.13,-75.07 678.29,-69.73 667.81,-68.19 669.13,-75.07"/>
</a>
</g>
</g>
<!-- Node10&#45;&gt;Node2 -->
<g id="edge14_Node000010_Node000002" class="edge">
<title>Node10&#45;&gt;Node2</title>
<g id="a_edge14_Node000010_Node000002"><a xlink:title=" ">
<path fill="none" stroke="#63b8ff" d="M206.45,-105.88C227.26,-97.26 262.12,-82.76 292,-70 309.39,-62.57 313.2,-59.38 331,-53 372.57,-38.1 421.91,-24.84 453.09,-16.99"/>
<polygon fill="#63b8ff" stroke="#63b8ff" points="454.07,-20.35 462.93,-14.54 452.38,-13.56 454.07,-20.35"/>
</a>
</g>
</g>
<!-- Node10&#45;&gt;Node5 -->
<g id="edge15_Node000010_Node000005" class="edge">
<title>Node10&#45;&gt;Node5</title>
<g id="a_edge15_Node000010_Node000005"><a xlink:title=" ">
<path fill="none" stroke="#63b8ff" d="M214.12,-105.97C244.79,-97.14 295.81,-82.43 329.92,-72.61"/>
<polygon fill="#63b8ff" stroke="#63b8ff" points="331.28,-75.86 339.92,-69.73 329.34,-69.13 331.28,-75.86"/>
</a>
</g>
</g>
<!-- Node10&#45;&gt;Node7 -->
<g id="edge16_Node000010_Node000007" class="edge">
<title>Node10&#45;&gt;Node7</title>
<g id="a_edge16_Node000010_Node000007"><a xlink:title=" ">
<path fill="none" stroke="#63b8ff" d="M225.55,-106.67C265.91,-99.13 332.15,-86.17 398.24,-70.02"/>
<polygon fill="#63b8ff" stroke="#63b8ff" points="399.12,-73.41 407.99,-67.61 397.44,-66.61 399.12,-73.41"/>
</a>
</g>
</g>
<!-- Node10&#45;&gt;Node9 -->
<g id="edge18_Node000010_Node000009" class="edge">
<title>Node10&#45;&gt;Node9</title>
<g id="a_edge18_Node000010_Node000009"><a xlink:title=" ">
<path fill="none" stroke="#63b8ff" d="M173.98,-105.97C158.83,-97.84 134.42,-84.74 116.36,-75.04"/>
<polygon fill="#63b8ff" stroke="#63b8ff" points="117.54,-71.7 107.08,-70.06 114.23,-77.87 117.54,-71.7"/>
</a>
</g>
</g>
<!-- Node11 -->
<g id="Node000011" class="node">
<title>Node11</title>
<g id="a_Node000011"><a xlink:title=" ">
<polygon fill="#e0e0e0" stroke="#999999" points="283.5,-70 248.5,-70 248.5,-53 283.5,-53 283.5,-70"/>
<text text-anchor="middle" x="266" y="-59.6" font-family="Helvetica,sans-Serif" font-size="8.00">array</text>
</a>
</g>
</g>
<!-- Node10&#45;&gt;Node11 -->
<g id="edge12_Node000010_Node000011" class="edge">
<title>Node10&#45;&gt;Node11</title>
<g id="a_edge12_Node000010_Node000011"><a xlink:title=" ">
<path fill="none" stroke="#63b8ff" d="M199.51,-105.97C211.72,-97.99 231.25,-85.22 245.99,-75.58"/>
<polygon fill="#63b8ff" stroke="#63b8ff" points="247.99,-78.46 254.44,-70.06 244.16,-72.6 247.99,-78.46"/>
</a>
</g>
</g>
<!-- Node12 -->
<g id="Node000012" class="node">
<title>Node12</title>
<g id="a_Node000012"><a xlink:title=" ">
<polygon fill="#e0e0e0" stroke="#999999" points="176,-70 138,-70 138,-53 176,-53 176,-70"/>
<text text-anchor="middle" x="157" y="-59.6" font-family="Helvetica,sans-Serif" font-size="8.00">cmath</text>
</a>
</g>
</g>
<!-- Node10&#45;&gt;Node12 -->
<g id="edge13_Node000010_Node000012" class="edge">
<title>Node10&#45;&gt;Node12</title>
<g id="a_edge13_Node000010_Node000012"><a xlink:title=" ">
<path fill="none" stroke="#63b8ff" d="M183.43,-105.97C179.08,-98.82 172.39,-87.82 166.83,-78.67"/>
<polygon fill="#63b8ff" stroke="#63b8ff" points="169.78,-76.78 161.59,-70.06 163.8,-80.42 169.78,-76.78"/>
</a>
</g>
</g>
<!-- Node13 -->
<g id="Node000013" class="node">
<title>Node13</title>
<g id="a_Node000013"><a xlink:title=" ">
<polygon fill="#e0e0e0" stroke="#999999" points="230,-70 194,-70 194,-53 230,-53 230,-70"/>
<text text-anchor="middle" x="212" y="-59.6" font-family="Helvetica,sans-Serif" font-size="8.00">string</text>
</a>
</g>
</g>
<!-- Node10&#45;&gt;Node13 -->
<g id="edge17_Node000010_Node000013" class="edge">
<title>Node10&#45;&gt;Node13</title>
<g id="a_edge17_Node000010_Node000013"><a xlink:title=" ">
<path fill="none" stroke="#63b8ff" d="M191.54,-105.97C194.84,-98.97 199.87,-88.28 204.12,-79.25"/>
<polygon fill="#63b8ff" stroke="#63b8ff" points="207.35,-80.59 208.44,-70.06 201.02,-77.61 207.35,-80.59"/>
</a>
</g>
</g>
<!-- Node10&#45;&gt;Node14 -->
<g id="edge19_Node000010_Node000014" class="edge">
<title>Node10&#45;&gt;Node14</title>
<g id="a_edge19_Node000010_Node000014"><a xlink:title=" ">
<path fill="none" stroke="#63b8ff" d="M225.9,-109.87C319.33,-100.93 560.84,-77.82 668.2,-67.55"/>
<polygon fill="#63b8ff" stroke="#63b8ff" points="668.54,-71.04 678.17,-66.6 667.88,-64.07 668.54,-71.04"/>
</a>
</g>
</g>
<!-- Node14&#45;&gt;Node2 -->
<g id="edge20_Node000014_Node000002" class="edge">
<title>Node14&#45;&gt;Node2</title>
<g id="a_edge20_Node000014_Node000002"><a xlink:title=" ">
<path fill="none" stroke="#63b8ff" d="M686.03,-52.97C639.78,-43.02 558.99,-25.64 514.88,-16.15"/>
<polygon fill="#63b8ff" stroke="#63b8ff" points="515.53,-12.71 505.02,-14.02 514.06,-19.55 515.53,-12.71"/>
</a>
</g>
</g>
<!-- Node17&#45;&gt;Node2 -->
<g id="edge23_Node000017_Node000002" class="edge">
<title>Node17&#45;&gt;Node2</title>
<g id="a_edge23_Node000017_Node000002"><a xlink:title=" ">
<path fill="none" stroke="#63b8ff" d="M614.99,-158.84C613.1,-146.76 608.17,-122.9 597,-106 572.8,-69.39 530.87,-38.83 505.45,-22.44"/>
<polygon fill="#63b8ff" stroke="#63b8ff" points="507.23,-19.42 496.9,-17.05 503.5,-25.34 507.23,-19.42"/>
</a>
</g>
</g>
<!-- Node17&#45;&gt;Node3 -->
<g id="edge25_Node000017_Node000003" class="edge">
<title>Node17&#45;&gt;Node3</title>
<g id="a_edge25_Node000017_Node000003"><a xlink:title=" ">
<path fill="none" stroke="#63b8ff" d="M609.06,-158.97C602.19,-151.52 591.47,-139.89 582.85,-130.53"/>
<polygon fill="#63b8ff" stroke="#63b8ff" points="585.31,-128.04 575.96,-123.06 580.17,-132.78 585.31,-128.04"/>
</a>
</g>
</g>
<!-- Node17&#45;&gt;Node8 -->
<g id="edge24_Node000017_Node000008" class="edge">
<title>Node17&#45;&gt;Node8</title>
<g id="a_edge24_Node000017_Node000008"><a xlink:title=" ">
<path fill="none" stroke="#63b8ff" d="M626.18,-158.97C636.78,-151.14 653.61,-138.7 666.56,-129.13"/>
<polygon fill="#63b8ff" stroke="#63b8ff" points="668.82,-131.81 674.78,-123.06 664.65,-126.19 668.82,-131.81"/>
</a>
</g>
</g>
<!-- Node17&#45;&gt;Node14 -->
<g id="edge26_Node000017_Node000014" class="edge">
<title>Node17&#45;&gt;Node14</title>
<g id="a_edge26_Node000017_Node000014"><a xlink:title=" ">
<path fill="none" stroke="#63b8ff" d="M674.75,-159.46C697.43,-153.55 721.2,-142.74 735,-123 744.06,-110.04 738.15,-92.08 731.44,-79.1"/>
<polygon fill="#63b8ff" stroke="#63b8ff" points="734.41,-77.24 726.4,-70.31 728.34,-80.72 734.41,-77.24"/>
</a>
</g>
</g>
<!-- Node18&#45;&gt;Node14 -->
<g id="edge43_Node000018_Node000014" class="edge">
<title>Node18&#45;&gt;Node14</title>
<g id="a_edge43_Node000018_Node000014"><a xlink:title=" ">
<path fill="none" stroke="#63b8ff" d="M1047.26,-211.96C1114.31,-196.86 1243.95,-159.65 1195,-106 1167.05,-75.37 891.61,-66.03 773.9,-63.43"/>
<polygon fill="#63b8ff" stroke="#63b8ff" points="773.76,-59.92 763.68,-63.21 773.61,-66.92 773.76,-59.92"/>
</a>
</g>
</g>
<!-- Node19 -->
<g id="Node000019" class="node">
<title>Node19</title>
<g id="a_Node000019"><a xlink:title=" ">
<polygon fill="#e0e0e0" stroke="#999999" points="1186,-123 1144,-123 1144,-106 1186,-106 1186,-123"/>
<text text-anchor="middle" x="1165" y="-112.6" font-family="Helvetica,sans-Serif" font-size="8.00">cassert</text>
</a>
</g>
</g>
<!-- Node18&#45;&gt;Node19 -->
<g id="edge29_Node000018_Node000019" class="edge">
<title>Node18&#45;&gt;Node19</title>
<g id="a_edge29_Node000018_Node000019"><a xlink:title=" ">
<path fill="none" stroke="#63b8ff" d="M1029.02,-211.91C1047.43,-204.16 1075.73,-191.13 1098,-176 1117.75,-162.58 1137.73,-143.7 1150.66,-130.62"/>
<polygon fill="#63b8ff" stroke="#63b8ff" points="1153.29,-132.93 1157.74,-123.32 1148.27,-128.06 1153.29,-132.93"/>
</a>
</g>
</g>
<!-- Node20 -->
<g id="Node000020" class="node">
<title>Node20</title>
<g id="a_Node000020"><a xlink:href="../../dc/d3c/bnode_8hpp.html" target="_top" xlink:title=" ">
<polygon fill="white" stroke="#666666" points="913.5,-176 858.5,-176 858.5,-159 913.5,-159 913.5,-176"/>
<text text-anchor="middle" x="886" y="-165.6" font-family="Helvetica,sans-Serif" font-size="8.00">bnode.hpp</text>
</a>
</g>
</g>
<!-- Node18&#45;&gt;Node20 -->
<g id="edge30_Node000018_Node000020" class="edge">
<title>Node18&#45;&gt;Node20</title>
<g id="a_edge30_Node000018_Node000020"><a xlink:title=" ">
<path fill="none" stroke="#63b8ff" d="M991.7,-211.97C971.19,-203.54 937.69,-189.76 913.9,-179.98"/>
<polygon fill="#63b8ff" stroke="#63b8ff" points="914.95,-176.62 904.37,-176.06 912.29,-183.1 914.95,-176.62"/>
</a>
</g>
</g>
<!-- Node21 -->
<g id="Node000021" class="node">
<title>Node21</title>
<g id="a_Node000021"><a xlink:href="../../d9/df8/heterogeneous__pool_8hpp.html" target="_top" xlink:title=" ">
<polygon fill="white" stroke="#666666" points="1088.5,-176 931.5,-176 931.5,-159 1088.5,-159 1088.5,-176"/>
<text text-anchor="middle" x="1010" y="-165.6" font-family="Helvetica,sans-Serif" font-size="8.00">../../types/pmr/heterogeneous_pool.hpp</text>
</a>
</g>
</g>
<!-- Node18&#45;&gt;Node21 -->
<g id="edge31_Node000018_Node000021" class="edge">
<title>Node18&#45;&gt;Node21</title>
<g id="a_edge31_Node000018_Node000021"><a xlink:title=" ">
<path fill="none" stroke="#63b8ff" d="M1010,-211.97C1010,-205.19 1010,-194.97 1010,-186.13"/>
<polygon fill="#63b8ff" stroke="#63b8ff" points="1013.5,-186.06 1010,-176.06 1006.5,-186.06 1013.5,-186.06"/>
</a>
</g>
</g>
<!-- Node21&#45;&gt;Node2 -->
<g id="edge33_Node000021_Node000002" class="edge">
<title>Node21&#45;&gt;Node2</title>
<g id="a_edge33_Node000021_Node000002"><a xlink:title=" ">
<path fill="none" stroke="#63b8ff" d="M1038.86,-158.94C1071.44,-149.02 1117.43,-130.04 1097,-106 1020.89,-16.43 629.15,-9.44 515.15,-9.33"/>
<polygon fill="#63b8ff" stroke="#63b8ff" points="515,-5.83 505.01,-9.34 515.01,-12.83 515,-5.83"/>
</a>
</g>
</g>
<!-- Node21&#45;&gt;Node3 -->
<g id="edge39_Node000021_Node000003" class="edge">
<title>Node21&#45;&gt;Node3</title>
<g id="a_edge39_Node000021_Node000003"><a xlink:title=" ">
<path fill="none" stroke="#63b8ff" d="M944.93,-158.97C847.82,-147.74 668.87,-127.05 598.51,-118.91"/>
<polygon fill="#63b8ff" stroke="#63b8ff" points="598.52,-115.39 588.18,-117.72 597.72,-122.34 598.52,-115.39"/>
</a>
</g>
</g>
<!-- Node21&#45;&gt;Node7 -->
<g id="edge35_Node000021_Node000007" class="edge">
<title>Node21&#45;&gt;Node7</title>
<g id="a_edge35_Node000021_Node000007"><a xlink:title=" ">
<path fill="none" stroke="#63b8ff" d="M979.22,-158.91C928.55,-146.61 824.25,-122.05 735,-106 631.17,-87.32 506.55,-71.96 452.38,-65.62"/>
<polygon fill="#63b8ff" stroke="#63b8ff" points="452.55,-62.12 442.21,-64.44 451.74,-69.07 452.55,-62.12"/>
</a>
</g>
</g>
<!-- Node21&#45;&gt;Node8 -->
<g id="edge40_Node000021_Node000008" class="edge">
<title>Node21&#45;&gt;Node8</title>
<g id="a_edge40_Node000021_Node000008"><a xlink:title=" ">
<path fill="none" stroke="#63b8ff" d="M962.05,-158.97C901.66,-149.5 798.35,-133.29 736.39,-123.56"/>
<polygon fill="#63b8ff" stroke="#63b8ff" points="736.87,-120.1 726.45,-122 735.78,-127.01 736.87,-120.1"/>
</a>
</g>
</g>
<!-- Node21&#45;&gt;Node10 -->
<g id="edge42_Node000021_Node000010" class="edge">
<title>Node21&#45;&gt;Node10</title>
<g id="a_edge42_Node000021_Node000010"><a xlink:title=" ">
<path fill="none" stroke="#63b8ff" d="M931.29,-159.62C928.49,-159.4 925.72,-159.2 923,-159 663.73,-140.16 352.56,-123.8 235.56,-117.87"/>
<polygon fill="#63b8ff" stroke="#63b8ff" points="235.67,-114.37 225.5,-117.36 235.31,-121.36 235.67,-114.37"/>
</a>
</g>
</g>
<!-- Node21&#45;&gt;Node14 -->
<g id="edge41_Node000021_Node000014" class="edge">
<title>Node21&#45;&gt;Node14</title>
<g id="a_edge41_Node000021_Node000014"><a xlink:title=" ">
<path fill="none" stroke="#63b8ff" d="M987.69,-158.88C962.98,-150.39 922,-136.1 887,-123 867.75,-115.8 863.25,-113.2 844,-106 813.24,-94.48 777.86,-82.06 752.96,-73.44"/>
<polygon fill="#63b8ff" stroke="#63b8ff" points="753.9,-70.07 743.31,-70.12 751.62,-76.68 753.9,-70.07"/>
</a>
</g>
</g>
<!-- Node21&#45;&gt;Node19 -->
<g id="edge32_Node000021_Node000019" class="edge">
<title>Node21&#45;&gt;Node19</title>
<g id="a_edge32_Node000021_Node000019"><a xlink:title=" ">
<path fill="none" stroke="#63b8ff" d="M1032.87,-158.97C1059.65,-150.16 1104.15,-135.52 1134.01,-125.7"/>
<polygon fill="#63b8ff" stroke="#63b8ff" points="1135.13,-129.01 1143.53,-122.56 1132.94,-122.36 1135.13,-129.01"/>
</a>
</g>
</g>
<!-- Node22 -->
<g id="Node000022" class="node">
<title>Node22</title>
<g id="a_Node000022"><a xlink:title=" ">
<polygon fill="#e0e0e0" stroke="#999999" points="987.5,-123 948.5,-123 948.5,-106 987.5,-106 987.5,-123"/>
<text text-anchor="middle" x="968" y="-112.6" font-family="Helvetica,sans-Serif" font-size="8.00">cstdint</text>
</a>
</g>
</g>
<!-- Node21&#45;&gt;Node22 -->
<g id="edge34_Node000021_Node000022" class="edge">
<title>Node21&#45;&gt;Node22</title>
<g id="a_edge34_Node000021_Node000022"><a xlink:title=" ">
<path fill="none" stroke="#63b8ff" d="M1003.8,-158.97C997.72,-151.59 988.28,-140.12 980.61,-130.81"/>
<polygon fill="#63b8ff" stroke="#63b8ff" points="983.28,-128.55 974.22,-123.06 977.88,-133 983.28,-128.55"/>
</a>
</g>
</g>
<!-- Node23 -->
<g id="Node000023" class="node">
<title>Node23</title>
<g id="a_Node000023"><a xlink:title=" ">
<polygon fill="#e0e0e0" stroke="#999999" points="1038,-123 1006,-123 1006,-106 1038,-106 1038,-123"/>
<text text-anchor="middle" x="1022" y="-112.6" font-family="Helvetica,sans-Serif" font-size="8.00">map</text>
</a>
</g>
</g>
<!-- Node21&#45;&gt;Node23 -->
<g id="edge36_Node000021_Node000023" class="edge">
<title>Node21&#45;&gt;Node23</title>
<g id="a_edge36_Node000021_Node000023"><a xlink:title=" ">
<path fill="none" stroke="#63b8ff" d="M1011.77,-158.97C1013.38,-152.12 1015.83,-141.74 1017.92,-132.84"/>
<polygon fill="#63b8ff" stroke="#63b8ff" points="1021.34,-133.59 1020.22,-123.06 1014.52,-131.99 1021.34,-133.59"/>
</a>
</g>
</g>
<!-- Node24 -->
<g id="Node000024" class="node">
<title>Node24</title>
<g id="a_Node000024"><a xlink:title=" ">
<polygon fill="#e0e0e0" stroke="#999999" points="1088,-123 1056,-123 1056,-106 1088,-106 1088,-123"/>
<text text-anchor="middle" x="1072" y="-112.6" font-family="Helvetica,sans-Serif" font-size="8.00">new</text>
</a>
</g>
</g>
<!-- Node21&#45;&gt;Node24 -->
<g id="edge37_Node000021_Node000024" class="edge">
<title>Node21&#45;&gt;Node24</title>
<g id="a_edge37_Node000021_Node000024"><a xlink:title=" ">
<path fill="none" stroke="#63b8ff" d="M1019.15,-158.97C1028.49,-151.29 1043.22,-139.18 1054.75,-129.69"/>
<polygon fill="#63b8ff" stroke="#63b8ff" points="1057.31,-132.11 1062.81,-123.06 1052.87,-126.71 1057.31,-132.11"/>
</a>
</g>
</g>
<!-- Node25 -->
<g id="Node000025" class="node">
<title>Node25</title>
<g id="a_Node000025"><a xlink:title=" ">
<polygon fill="#e0e0e0" stroke="#999999" points="930,-123 896,-123 896,-106 930,-106 930,-123"/>
<text text-anchor="middle" x="913" y="-112.6" font-family="Helvetica,sans-Serif" font-size="8.00">utility</text>
</a>
</g>
</g>
<!-- Node21&#45;&gt;Node25 -->
<g id="edge38_Node000021_Node000025" class="edge">
<title>Node21&#45;&gt;Node25</title>
<g id="a_edge38_Node000021_Node000025"><a xlink:title=" ">
<path fill="none" stroke="#63b8ff" d="M995.69,-158.97C980.07,-150.76 954.83,-137.49 936.34,-127.77"/>
<polygon fill="#63b8ff" stroke="#63b8ff" points="937.85,-124.61 927.37,-123.06 934.59,-130.81 937.85,-124.61"/>
</a>
</g>
</g>
<!-- Node26&#45;&gt;Node2 -->
<g id="edge45_Node000026_Node000002" class="edge">
<title>Node26&#45;&gt;Node2</title>
<g id="a_edge45_Node000026_Node000002"><a xlink:title=" ">
<path fill="none" stroke="#63b8ff" d="M255.96,-162.43C176.09,-152.09 -4.12,-120.66 57,-53 83.48,-23.68 359.13,-13.09 452.94,-10.31"/>
<polygon fill="#63b8ff" stroke="#63b8ff" points="453.06,-13.81 462.95,-10.03 452.86,-6.81 453.06,-13.81"/>
</a>
</g>
</g>
<!-- Node26&#45;&gt;Node3 -->
<g id="edge48_Node000026_Node000003" class="edge">
<title>Node26&#45;&gt;Node3</title>
<g id="a_edge48_Node000026_Node000003"><a xlink:title=" ">
<path fill="none" stroke="#63b8ff" d="M328.21,-159.83C383.8,-149.6 489.05,-130.22 539.96,-120.85"/>
<polygon fill="#63b8ff" stroke="#63b8ff" points="540.77,-124.26 549.97,-119 539.5,-117.37 540.77,-124.26"/>
</a>
</g>
</g>
<!-- Node26&#45;&gt;Node7 -->
<g id="edge46_Node000026_Node000007" class="edge">
<title>Node26&#45;&gt;Node7</title>
<g id="a_edge46_Node000026_Node000007"><a xlink:title=" ">
<path fill="none" stroke="#63b8ff" d="M302,-158.68C324.35,-141.21 378.62,-98.77 407.01,-76.57"/>
<polygon fill="#63b8ff" stroke="#63b8ff" points="409.53,-79.04 415.25,-70.12 405.22,-73.53 409.53,-79.04"/>
</a>
</g>
</g>
<!-- Node26&#45;&gt;Node9 -->
<g id="edge47_Node000026_Node000009" class="edge">
<title>Node26&#45;&gt;Node9</title>
<g id="a_edge47_Node000026_Node000009"><a xlink:title=" ">
<path fill="none" stroke="#63b8ff" d="M255.75,-162.41C208.25,-156.33 128.59,-143.37 108,-123 96.7,-111.82 93.43,-93.56 92.69,-80.01"/>
<polygon fill="#63b8ff" stroke="#63b8ff" points="96.19,-79.96 92.55,-70.01 89.19,-80.06 96.19,-79.96"/>
</a>
</g>
</g>
<!-- Node26&#45;&gt;Node10 -->
<g id="edge49_Node000026_Node000010" class="edge">
<title>Node26&#45;&gt;Node10</title>
<g id="a_edge49_Node000026_Node000010"><a xlink:title=" ">
<path fill="none" stroke="#63b8ff" d="M276.65,-158.97C259.76,-150.69 232.35,-137.25 212.48,-127.5"/>
<polygon fill="#63b8ff" stroke="#63b8ff" points="213.93,-124.32 203.41,-123.06 210.85,-130.6 213.93,-124.32"/>
</a>
</g>
</g>
<!-- Node26&#45;&gt;Node14 -->
<g id="edge50_Node000026_Node000014" class="edge">
<title>Node26&#45;&gt;Node14</title>
<g id="a_edge50_Node000026_Node000014"><a xlink:title=" ">
<path fill="none" stroke="#63b8ff" d="M302.56,-158.94C323.34,-144.2 369.08,-112.51 387,-106 481.96,-71.52 600.86,-63.77 668.14,-62.37"/>
<polygon fill="#63b8ff" stroke="#63b8ff" points="668.55,-65.86 678.49,-62.2 668.43,-58.87 668.55,-65.86"/>
</a>
</g>
</g>
</g>
</svg>
