<?xml version="1.0" encoding="UTF-8" standalone="no"?>
<!DOCTYPE svg PUBLIC "-//W3C//DTD SVG 1.1//EN"
 "http://www.w3.org/Graphics/SVG/1.1/DTD/svg11.dtd">
<!-- Generated by graphviz version 2.43.0 (0)
 -->
<!-- Title: managed_node.hpp Pages: 1 -->
<svg width="356pt" height="131pt"
 viewBox="0.00 0.00 356.49 131.00" xmlns="http://www.w3.org/2000/svg" xmlns:xlink="http://www.w3.org/1999/xlink">
<g id="graph0" class="graph" transform="scale(1 1) rotate(0) translate(4 127)">
<title>managed_node.hpp</title>
<!-- Node1 -->
<g id="Node000001" class="node">
<title>Node1</title>
<g id="a_Node000001"><a xlink:title=" ">
<polygon fill="#999999" stroke="#666666" points="202.99,-123 113.99,-123 113.99,-106 202.99,-106 202.99,-123"/>
<text text-anchor="middle" x="158.49" y="-112.6" font-family="Helvetica,sans-Serif" font-size="8.00">managed_node.hpp</text>
</a>
</g>
</g>
<!-- Node2 -->
<g id="Node000002" class="node">
<title>Node2</title>
<g id="a_Node000002"><a xlink:href="../../d9/d96/chdr_8hpp.html" target="_top" xlink:title=" ">
<polygon fill="white" stroke="#666666" points="181.99,-17 134.99,-17 134.99,0 181.99,0 181.99,-17"/>
<text text-anchor="middle" x="158.49" y="-6.6" font-family="Helvetica,sans-Serif" font-size="8.00">chdr.hpp</text>
</a>
</g>
</g>
<!-- Node1&#45;&gt;Node2 -->
<g id="edge1_Node000001_Node000002" class="edge">
<title>Node1&#45;&gt;Node2</title>
<g id="a_edge1_Node000001_Node000002"><a xlink:title=" ">
<path fill="none" stroke="#63b8ff" d="M103.59,-104.89C65.07,-97.59 18.39,-85.79 6.49,-70 -27.71,-24.64 84.3,-13.23 134.94,-10.41"/>
<polygon fill="#63b8ff" stroke="#63b8ff" points="103.23,-108.38 113.69,-106.73 104.49,-101.49 103.23,-108.38"/>
</a>
</g>
</g>
<!-- Node3 -->
<g id="Node000003" class="node">
<title>Node3</title>
<g id="a_Node000003"><a xlink:href="../../d3/d3e/gbest__first_8hpp.html" target="_top" xlink:title=" ">
<polygon fill="white" stroke="#666666" points="84.99,-70 15.99,-70 15.99,-53 84.99,-53 84.99,-70"/>
<text text-anchor="middle" x="50.49" y="-59.6" font-family="Helvetica,sans-Serif" font-size="8.00">gbest_first.hpp</text>
</a>
</g>
</g>
<!-- Node1&#45;&gt;Node3 -->
<g id="edge2_Node000001_Node000003" class="edge">
<title>Node1&#45;&gt;Node3</title>
<g id="a_edge2_Node000001_Node000003"><a xlink:title=" ">
<path fill="none" stroke="#63b8ff" d="M133.42,-101.66C112.78,-91.92 84.14,-78.39 66.49,-70.06"/>
<polygon fill="#63b8ff" stroke="#63b8ff" points="132.01,-104.87 142.55,-105.97 135,-98.54 132.01,-104.87"/>
</a>
</g>
</g>
<!-- Node4 -->
<g id="Node000004" class="node">
<title>Node4</title>
<g id="a_Node000004"><a xlink:href="../../de/d94/gbfs_8hpp.html" target="_top" xlink:title=" ">
<polygon fill="white" stroke="#666666" points="149.99,-70 102.99,-70 102.99,-53 149.99,-53 149.99,-70"/>
<text text-anchor="middle" x="126.49" y="-59.6" font-family="Helvetica,sans-Serif" font-size="8.00">gbfs.hpp</text>
</a>
</g>
</g>
<!-- Node1&#45;&gt;Node4 -->
<g id="edge4_Node000001_Node000004" class="edge">
<title>Node1&#45;&gt;Node4</title>
<g id="a_edge4_Node000001_Node000004"><a xlink:title=" ">
<path fill="none" stroke="#63b8ff" d="M148.36,-97.36C142.63,-88.23 135.73,-77.22 131.23,-70.06"/>
<polygon fill="#63b8ff" stroke="#63b8ff" points="145.49,-99.36 153.77,-105.97 151.42,-95.64 145.49,-99.36"/>
</a>
</g>
</g>
<!-- Node5 -->
<g id="Node000005" class="node">
<title>Node5</title>
<g id="a_Node000005"><a xlink:href="../../d4/df2/gdfs_8hpp.html" target="_top" xlink:title=" ">
<polygon fill="white" stroke="#666666" points="214.99,-70 167.99,-70 167.99,-53 214.99,-53 214.99,-70"/>
<text text-anchor="middle" x="191.49" y="-59.6" font-family="Helvetica,sans-Serif" font-size="8.00">gdfs.hpp</text>
</a>
</g>
</g>
<!-- Node1&#45;&gt;Node5 -->
<g id="edge6_Node000001_Node000005" class="edge">
<title>Node1&#45;&gt;Node5</title>
<g id="a_edge6_Node000001_Node000005"><a xlink:title=" ">
<path fill="none" stroke="#63b8ff" d="M168.93,-97.36C174.84,-88.23 181.96,-77.22 186.6,-70.06"/>
<polygon fill="#63b8ff" stroke="#63b8ff" points="165.85,-95.68 163.36,-105.97 171.73,-99.48 165.85,-95.68"/>
</a>
</g>
</g>
<!-- Node6 -->
<g id="Node000006" class="node">
<title>Node6</title>
<g id="a_Node000006"><a xlink:href="../../d3/d3e/gjps_8hpp.html" target="_top" xlink:title=" ">
<polygon fill="white" stroke="#666666" points="279.99,-70 232.99,-70 232.99,-53 279.99,-53 279.99,-70"/>
<text text-anchor="middle" x="256.49" y="-59.6" font-family="Helvetica,sans-Serif" font-size="8.00">gjps.hpp</text>
</a>
</g>
</g>
<!-- Node1&#45;&gt;Node6 -->
<g id="edge8_Node000001_Node000006" class="edge">
<title>Node1&#45;&gt;Node6</title>
<g id="a_edge8_Node000001_Node000006"><a xlink:title=" ">
<path fill="none" stroke="#63b8ff" d="M182,-101.27C200.66,-91.55 226.17,-78.28 241.97,-70.06"/>
<polygon fill="#63b8ff" stroke="#63b8ff" points="180.2,-98.25 172.95,-105.97 183.43,-104.46 180.2,-98.25"/>
</a>
</g>
</g>
<!-- Node7 -->
<g id="Node000007" class="node">
<title>Node7</title>
<g id="a_Node000007"><a xlink:href="../../d1/def/gstar_8hpp.html" target="_top" xlink:title=" ">
<polygon fill="white" stroke="#666666" points="348.49,-70 298.49,-70 298.49,-53 348.49,-53 348.49,-70"/>
<text text-anchor="middle" x="323.49" y="-59.6" font-family="Helvetica,sans-Serif" font-size="8.00">gstar.hpp</text>
</a>
</g>
</g>
<!-- Node1&#45;&gt;Node7 -->
<g id="edge10_Node000001_Node000007" class="edge">
<title>Node1&#45;&gt;Node7</title>
<g id="a_edge10_Node000001_Node000007"><a xlink:title=" ">
<path fill="none" stroke="#63b8ff" d="M192.58,-102.96C224.32,-93.15 270.85,-78.77 299.04,-70.06"/>
<polygon fill="#63b8ff" stroke="#63b8ff" points="191.35,-99.68 182.83,-105.97 193.42,-106.37 191.35,-99.68"/>
</a>
</g>
</g>
<!-- Node3&#45;&gt;Node2 -->
<g id="edge3_Node000003_Node000002" class="edge">
<title>Node3&#45;&gt;Node2</title>
<g id="a_edge3_Node000003_Node000002"><a xlink:title=" ">
<path fill="none" stroke="#63b8ff" d="M75.55,-48.66C96.19,-38.92 124.83,-25.39 142.49,-17.06"/>
<polygon fill="#63b8ff" stroke="#63b8ff" points="73.97,-45.54 66.42,-52.97 76.96,-51.87 73.97,-45.54"/>
</a>
</g>
</g>
<!-- Node4&#45;&gt;Node2 -->
<g id="edge5_Node000004_Node000002" class="edge">
<title>Node4&#45;&gt;Node2</title>
<g id="a_edge5_Node000004_Node000002"><a xlink:title=" ">
<path fill="none" stroke="#63b8ff" d="M136.61,-44.36C142.35,-35.23 149.25,-24.22 153.75,-17.06"/>
<polygon fill="#63b8ff" stroke="#63b8ff" points="133.56,-42.64 131.21,-52.97 139.49,-46.36 133.56,-42.64"/>
</a>
</g>
</g>
<!-- Node5&#45;&gt;Node2 -->
<g id="edge7_Node000005_Node000002" class="edge">
<title>Node5&#45;&gt;Node2</title>
<g id="a_edge7_Node000005_Node000002"><a xlink:title=" ">
<path fill="none" stroke="#63b8ff" d="M181.05,-44.36C175.13,-35.23 168.01,-24.22 163.38,-17.06"/>
<polygon fill="#63b8ff" stroke="#63b8ff" points="178.25,-46.48 186.62,-52.97 184.12,-42.68 178.25,-46.48"/>
</a>
</g>
</g>
<!-- Node6&#45;&gt;Node2 -->
<g id="edge9_Node000006_Node000002" class="edge">
<title>Node6&#45;&gt;Node2</title>
<g id="a_edge9_Node000006_Node000002"><a xlink:title=" ">
<path fill="none" stroke="#63b8ff" d="M232.98,-48.27C214.31,-38.55 188.81,-25.28 173.01,-17.06"/>
<polygon fill="#63b8ff" stroke="#63b8ff" points="231.54,-51.46 242.03,-52.97 234.77,-45.25 231.54,-51.46"/>
</a>
</g>
</g>
<!-- Node7&#45;&gt;Node2 -->
<g id="edge11_Node000007_Node000002" class="edge">
<title>Node7&#45;&gt;Node2</title>
<g id="a_edge11_Node000007_Node000002"><a xlink:title=" ">
<path fill="none" stroke="#63b8ff" d="M289.31,-49.94C257.27,-40.03 210.21,-25.49 182.13,-16.81"/>
<polygon fill="#63b8ff" stroke="#63b8ff" points="288.55,-53.37 299.14,-52.97 290.62,-46.68 288.55,-53.37"/>
</a>
</g>
</g>
</g>
</svg>
