<?xml version="1.0" encoding="UTF-8" standalone="no"?>
<!DOCTYPE svg PUBLIC "-//W3C//DTD SVG 1.1//EN"
 "http://www.w3.org/Graphics/SVG/1.1/DTD/svg11.dtd">
<!-- Generated by graphviz version 2.43.0 (0)
 -->
<!-- Title: managed_node.hpp Pages: 1 -->
<svg width="295pt" height="131pt"
 viewBox="0.00 0.00 295.00 131.00" xmlns="http://www.w3.org/2000/svg" xmlns:xlink="http://www.w3.org/1999/xlink">
<g id="graph0" class="graph" transform="scale(1 1) rotate(0) translate(4 127)">
<title>managed_node.hpp</title>
<!-- Node1 -->
<g id="Node000001" class="node">
<title>Node1</title>
<g id="a_Node000001"><a xlink:title=" ">
<polygon fill="#999999" stroke="#666666" points="174.5,-123 85.5,-123 85.5,-106 174.5,-106 174.5,-123"/>
<text text-anchor="middle" x="130" y="-112.6" font-family="Helvetica,sans-Serif" font-size="8.00">managed_node.hpp</text>
</a>
</g>
</g>
<!-- Node2 -->
<g id="Node000002" class="node">
<title>Node2</title>
<g id="a_Node000002"><a xlink:href="../../dc/da9/astar_8hpp.html" target="_top" xlink:title=" ">
<polygon fill="white" stroke="#666666" points="50,-70 0,-70 0,-53 50,-53 50,-70"/>
<text text-anchor="middle" x="25" y="-59.6" font-family="Helvetica,sans-Serif" font-size="8.00">astar.hpp</text>
</a>
</g>
</g>
<!-- Node1&#45;&gt;Node2 -->
<g id="edge1_Node000001_Node000002" class="edge">
<title>Node1&#45;&gt;Node2</title>
<g id="a_edge1_Node000001_Node000002"><a xlink:title=" ">
<path fill="none" stroke="#63b8ff" d="M105.36,-101.53C85.32,-91.8 57.64,-78.36 40.56,-70.06"/>
<polygon fill="#63b8ff" stroke="#63b8ff" points="103.98,-104.75 114.51,-105.97 107.04,-98.46 103.98,-104.75"/>
</a>
</g>
</g>
<!-- Node3 -->
<g id="Node000003" class="node">
<title>Node3</title>
<g id="a_Node000003"><a xlink:href="../../d9/d96/chdr_8hpp.html" target="_top" xlink:title=" ">
<polygon fill="white" stroke="#666666" points="153.5,-17 106.5,-17 106.5,0 153.5,0 153.5,-17"/>
<text text-anchor="middle" x="130" y="-6.6" font-family="Helvetica,sans-Serif" font-size="8.00">chdr.hpp</text>
</a>
</g>
</g>
<!-- Node1&#45;&gt;Node3 -->
<g id="edge3_Node000001_Node000003" class="edge">
<title>Node1&#45;&gt;Node3</title>
<g id="a_edge3_Node000001_Node000003"><a xlink:title=" ">
<path fill="none" stroke="#63b8ff" d="M114.59,-98.35C107.79,-90.59 100.55,-80.56 97,-70 90.21,-49.81 108.82,-28.45 120.79,-17.31"/>
<polygon fill="#63b8ff" stroke="#63b8ff" points="112.2,-100.91 121.6,-105.8 117.3,-96.12 112.2,-100.91"/>
</a>
</g>
</g>
<!-- Node4 -->
<g id="Node000004" class="node">
<title>Node4</title>
<g id="a_Node000004"><a xlink:href="../../de/d94/gbfs_8hpp.html" target="_top" xlink:title=" ">
<polygon fill="white" stroke="#666666" points="153.5,-70 106.5,-70 106.5,-53 153.5,-53 153.5,-70"/>
<text text-anchor="middle" x="130" y="-59.6" font-family="Helvetica,sans-Serif" font-size="8.00">gbfs.hpp</text>
</a>
</g>
</g>
<!-- Node1&#45;&gt;Node4 -->
<g id="edge4_Node000001_Node000004" class="edge">
<title>Node1&#45;&gt;Node4</title>
<g id="a_edge4_Node000001_Node000004"><a xlink:title=" ">
<path fill="none" stroke="#63b8ff" d="M130,-95.91C130,-87.08 130,-76.85 130,-70.06"/>
<polygon fill="#63b8ff" stroke="#63b8ff" points="126.5,-95.97 130,-105.97 133.5,-95.97 126.5,-95.97"/>
</a>
</g>
</g>
<!-- Node5 -->
<g id="Node000005" class="node">
<title>Node5</title>
<g id="a_Node000005"><a xlink:href="../../d4/df2/gdfs_8hpp.html" target="_top" xlink:title=" ">
<polygon fill="white" stroke="#666666" points="218.5,-70 171.5,-70 171.5,-53 218.5,-53 218.5,-70"/>
<text text-anchor="middle" x="195" y="-59.6" font-family="Helvetica,sans-Serif" font-size="8.00">gdfs.hpp</text>
</a>
</g>
</g>
<!-- Node1&#45;&gt;Node5 -->
<g id="edge6_Node000001_Node000005" class="edge">
<title>Node1&#45;&gt;Node5</title>
<g id="a_edge6_Node000001_Node000005"><a xlink:title=" ">
<path fill="none" stroke="#63b8ff" d="M147.68,-99.63C159.82,-90.11 175.47,-77.83 185.37,-70.06"/>
<polygon fill="#63b8ff" stroke="#63b8ff" points="145.3,-97.05 139.59,-105.97 149.62,-102.56 145.3,-97.05"/>
</a>
</g>
</g>
<!-- Node6 -->
<g id="Node000006" class="node">
<title>Node6</title>
<g id="a_Node000006"><a xlink:href="../../d1/def/gstar_8hpp.html" target="_top" xlink:title=" ">
<polygon fill="white" stroke="#666666" points="287,-70 237,-70 237,-53 287,-53 287,-70"/>
<text text-anchor="middle" x="262" y="-59.6" font-family="Helvetica,sans-Serif" font-size="8.00">gstar.hpp</text>
</a>
</g>
</g>
<!-- Node1&#45;&gt;Node6 -->
<g id="edge8_Node000001_Node000006" class="edge">
<title>Node1&#45;&gt;Node6</title>
<g id="a_edge8_Node000001_Node000006"><a xlink:title=" ">
<path fill="none" stroke="#63b8ff" d="M158.94,-102.32C184.27,-92.53 220.38,-78.58 242.44,-70.06"/>
<polygon fill="#63b8ff" stroke="#63b8ff" points="157.54,-99.11 149.48,-105.97 160.07,-105.64 157.54,-99.11"/>
</a>
</g>
</g>
<!-- Node2&#45;&gt;Node3 -->
<g id="edge2_Node000002_Node000003" class="edge">
<title>Node2&#45;&gt;Node3</title>
<g id="a_edge2_Node000002_Node000003"><a xlink:title=" ">
<path fill="none" stroke="#63b8ff" d="M49.64,-48.53C69.68,-38.8 97.36,-25.36 114.44,-17.06"/>
<polygon fill="#63b8ff" stroke="#63b8ff" points="47.96,-45.46 40.49,-52.97 51.02,-51.75 47.96,-45.46"/>
</a>
</g>
</g>
<!-- Node4&#45;&gt;Node3 -->
<g id="edge5_Node000004_Node000003" class="edge">
<title>Node4&#45;&gt;Node3</title>
<g id="a_edge5_Node000004_Node000003"><a xlink:title=" ">
<path fill="none" stroke="#63b8ff" d="M130,-42.91C130,-34.08 130,-23.85 130,-17.06"/>
<polygon fill="#63b8ff" stroke="#63b8ff" points="126.5,-42.97 130,-52.97 133.5,-42.97 126.5,-42.97"/>
</a>
</g>
</g>
<!-- Node5&#45;&gt;Node3 -->
<g id="edge7_Node000005_Node000003" class="edge">
<title>Node5&#45;&gt;Node3</title>
<g id="a_edge7_Node000005_Node000003"><a xlink:title=" ">
<path fill="none" stroke="#63b8ff" d="M177.32,-46.63C165.18,-37.11 149.53,-24.83 139.63,-17.06"/>
<polygon fill="#63b8ff" stroke="#63b8ff" points="175.38,-49.56 185.41,-52.97 179.7,-44.05 175.38,-49.56"/>
</a>
</g>
</g>
<!-- Node6&#45;&gt;Node3 -->
<g id="edge9_Node000006_Node000003" class="edge">
<title>Node6&#45;&gt;Node3</title>
<g id="a_edge9_Node000006_Node000003"><a xlink:title=" ">
<path fill="none" stroke="#63b8ff" d="M233.06,-49.32C207.73,-39.53 171.62,-25.58 149.56,-17.06"/>
<polygon fill="#63b8ff" stroke="#63b8ff" points="231.93,-52.64 242.52,-52.97 234.46,-46.11 231.93,-52.64"/>
</a>
</g>
</g>
</g>
</svg>
