<?xml version="1.0" encoding="UTF-8" standalone="no"?>
<!DOCTYPE svg PUBLIC "-//W3C//DTD SVG 1.1//EN"
 "http://www.w3.org/Graphics/SVG/1.1/DTD/svg11.dtd">
<!-- Generated by graphviz version 2.43.0 (0)
 -->
<!-- Title: managed_node.hpp Pages: 1 -->
<svg width="257pt" height="78pt"
 viewBox="0.00 0.00 257.00 78.00" xmlns="http://www.w3.org/2000/svg" xmlns:xlink="http://www.w3.org/1999/xlink">
<g id="graph0" class="graph" transform="scale(1 1) rotate(0) translate(4 74)">
<title>managed_node.hpp</title>
<!-- Node1 -->
<g id="Node000001" class="node">
<title>Node1</title>
<g id="a_Node000001"><a xlink:title=" ">
<polygon fill="#999999" stroke="#666666" points="168.5,-70 79.5,-70 79.5,-53 168.5,-53 168.5,-70"/>
<text text-anchor="middle" x="124" y="-59.6" font-family="Helvetica,sans-Serif" font-size="8.00">managed_node.hpp</text>
</a>
</g>
</g>
<!-- Node2 -->
<g id="Node000002" class="node">
<title>Node2</title>
<g id="a_Node000002"><a xlink:href="../../dc/da9/astar_8hpp.html" target="_top" xlink:title=" ">
<polygon fill="white" stroke="#666666" points="50,-17 0,-17 0,0 50,0 50,-17"/>
<text text-anchor="middle" x="25" y="-6.6" font-family="Helvetica,sans-Serif" font-size="8.00">astar.hpp</text>
</a>
</g>
</g>
<!-- Node1&#45;&gt;Node2 -->
<g id="edge1_Node000001_Node000002" class="edge">
<title>Node1&#45;&gt;Node2</title>
<g id="a_edge1_Node000001_Node000002"><a xlink:title=" ">
<path fill="none" stroke="#63b8ff" d="M100.25,-48.27C81.4,-38.55 55.63,-25.28 39.67,-17.06"/>
<polygon fill="#63b8ff" stroke="#63b8ff" points="98.9,-51.51 109.39,-52.97 102.11,-45.28 98.9,-51.51"/>
</a>
</g>
</g>
<!-- Node3 -->
<g id="Node000003" class="node">
<title>Node3</title>
<g id="a_Node000003"><a xlink:href="../../de/d94/gbfs_8hpp_source.html" target="_top" xlink:title=" ">
<polygon fill="white" stroke="#666666" points="115.5,-17 68.5,-17 68.5,0 115.5,0 115.5,-17"/>
<text text-anchor="middle" x="92" y="-6.6" font-family="Helvetica,sans-Serif" font-size="8.00">gbfs.hpp</text>
</a>
</g>
</g>
<!-- Node1&#45;&gt;Node3 -->
<g id="edge2_Node000001_Node000003" class="edge">
<title>Node1&#45;&gt;Node3</title>
<g id="a_edge2_Node000001_Node000003"><a xlink:title=" ">
<path fill="none" stroke="#63b8ff" d="M113.88,-44.36C108.14,-35.23 101.24,-24.22 96.74,-17.06"/>
<polygon fill="#63b8ff" stroke="#63b8ff" points="111,-46.36 119.28,-52.97 116.93,-42.64 111,-46.36"/>
</a>
</g>
</g>
<!-- Node4 -->
<g id="Node000004" class="node">
<title>Node4</title>
<g id="a_Node000004"><a xlink:href="../../d4/df2/gdfs_8hpp_source.html" target="_top" xlink:title=" ">
<polygon fill="white" stroke="#666666" points="180.5,-17 133.5,-17 133.5,0 180.5,0 180.5,-17"/>
<text text-anchor="middle" x="157" y="-6.6" font-family="Helvetica,sans-Serif" font-size="8.00">gdfs.hpp</text>
</a>
</g>
</g>
<!-- Node1&#45;&gt;Node4 -->
<g id="edge3_Node000001_Node000004" class="edge">
<title>Node1&#45;&gt;Node4</title>
<g id="a_edge3_Node000001_Node000004"><a xlink:title=" ">
<path fill="none" stroke="#63b8ff" d="M134.44,-44.36C140.35,-35.23 147.47,-24.22 152.11,-17.06"/>
<polygon fill="#63b8ff" stroke="#63b8ff" points="131.36,-42.68 128.87,-52.97 137.24,-46.48 131.36,-42.68"/>
</a>
</g>
</g>
<!-- Node5 -->
<g id="Node000005" class="node">
<title>Node5</title>
<g id="a_Node000005"><a xlink:href="../../d1/def/gstar_8hpp_source.html" target="_top" xlink:title=" ">
<polygon fill="white" stroke="#666666" points="249,-17 199,-17 199,0 249,0 249,-17"/>
<text text-anchor="middle" x="224" y="-6.6" font-family="Helvetica,sans-Serif" font-size="8.00">gstar.hpp</text>
</a>
</g>
</g>
<!-- Node1&#45;&gt;Node5 -->
<g id="edge4_Node000001_Node000005" class="edge">
<title>Node1&#45;&gt;Node5</title>
<g id="a_edge4_Node000001_Node000005"><a xlink:title=" ">
<path fill="none" stroke="#63b8ff" d="M147.73,-48.4C166.8,-38.67 192.99,-25.32 209.18,-17.06"/>
<polygon fill="#63b8ff" stroke="#63b8ff" points="146.07,-45.31 138.76,-52.97 149.25,-51.55 146.07,-45.31"/>
</a>
</g>
</g>
</g>
</svg>
