<?xml version="1.0" encoding="UTF-8" standalone="no"?>
<!DOCTYPE svg PUBLIC "-//W3C//DTD SVG 1.1//EN"
 "http://www.w3.org/Graphics/SVG/1.1/DTD/svg11.dtd">
<!-- Generated by graphviz version 2.43.0 (0)
 -->
<!-- Title: managed_node.hpp Pages: 1 -->
<svg width="201pt" height="131pt"
 viewBox="0.00 0.00 200.86 131.00" xmlns="http://www.w3.org/2000/svg" xmlns:xlink="http://www.w3.org/1999/xlink">
<g id="graph0" class="graph" transform="scale(1 1) rotate(0) translate(4 127)">
<title>managed_node.hpp</title>
<!-- Node1 -->
<g id="Node000001" class="node">
<title>Node1</title>
<g id="a_Node000001"><a xlink:title=" ">
<polygon fill="#999999" stroke="#666666" points="112.36,-123 23.36,-123 23.36,-106 112.36,-106 112.36,-123"/>
<text text-anchor="middle" x="67.86" y="-112.6" font-family="Helvetica,sans-Serif" font-size="8.00">managed_node.hpp</text>
</a>
</g>
</g>
<!-- Node2 -->
<g id="Node000002" class="node">
<title>Node2</title>
<g id="a_Node000002"><a xlink:href="../../d9/d96/chdr_8hpp.html" target="_top" xlink:title=" ">
<polygon fill="white" stroke="#666666" points="91.36,-17 44.36,-17 44.36,0 91.36,0 91.36,-17"/>
<text text-anchor="middle" x="67.86" y="-6.6" font-family="Helvetica,sans-Serif" font-size="8.00">chdr.hpp</text>
</a>
</g>
</g>
<!-- Node1&#45;&gt;Node2 -->
<g id="edge1_Node000001_Node000002" class="edge">
<title>Node1&#45;&gt;Node2</title>
<g id="a_edge1_Node000001_Node000002"><a xlink:title=" ">
<path fill="none" stroke="#63b8ff" d="M37.96,-101.43C24.68,-94.39 10.38,-84.07 2.86,-70 -9.7,-46.47 24.4,-27.12 47.83,-17.04"/>
<polygon fill="#63b8ff" stroke="#63b8ff" points="36.82,-104.77 47.34,-105.99 39.88,-98.47 36.82,-104.77"/>
</a>
</g>
</g>
<!-- Node3 -->
<g id="Node000003" class="node">
<title>Node3</title>
<g id="a_Node000003"><a xlink:href="../../de/d94/gbfs_8hpp.html" target="_top" xlink:title=" ">
<polygon fill="white" stroke="#666666" points="59.36,-70 12.36,-70 12.36,-53 59.36,-53 59.36,-70"/>
<text text-anchor="middle" x="35.86" y="-59.6" font-family="Helvetica,sans-Serif" font-size="8.00">gbfs.hpp</text>
</a>
</g>
</g>
<!-- Node1&#45;&gt;Node3 -->
<g id="edge2_Node000001_Node000003" class="edge">
<title>Node1&#45;&gt;Node3</title>
<g id="a_edge2_Node000001_Node000003"><a xlink:title=" ">
<path fill="none" stroke="#63b8ff" d="M57.74,-97.36C52,-88.23 45.1,-77.22 40.6,-70.06"/>
<polygon fill="#63b8ff" stroke="#63b8ff" points="54.86,-99.36 63.14,-105.97 60.79,-95.64 54.86,-99.36"/>
</a>
</g>
</g>
<!-- Node4 -->
<g id="Node000004" class="node">
<title>Node4</title>
<g id="a_Node000004"><a xlink:href="../../d4/df2/gdfs_8hpp.html" target="_top" xlink:title=" ">
<polygon fill="white" stroke="#666666" points="124.36,-70 77.36,-70 77.36,-53 124.36,-53 124.36,-70"/>
<text text-anchor="middle" x="100.86" y="-59.6" font-family="Helvetica,sans-Serif" font-size="8.00">gdfs.hpp</text>
</a>
</g>
</g>
<!-- Node1&#45;&gt;Node4 -->
<g id="edge4_Node000001_Node000004" class="edge">
<title>Node1&#45;&gt;Node4</title>
<g id="a_edge4_Node000001_Node000004"><a xlink:title=" ">
<path fill="none" stroke="#63b8ff" d="M78.3,-97.36C84.21,-88.23 91.33,-77.22 95.97,-70.06"/>
<polygon fill="#63b8ff" stroke="#63b8ff" points="75.22,-95.68 72.73,-105.97 81.1,-99.48 75.22,-95.68"/>
</a>
</g>
</g>
<!-- Node5 -->
<g id="Node000005" class="node">
<title>Node5</title>
<g id="a_Node000005"><a xlink:href="../../d1/def/gstar_8hpp.html" target="_top" xlink:title=" ">
<polygon fill="white" stroke="#666666" points="192.86,-70 142.86,-70 142.86,-53 192.86,-53 192.86,-70"/>
<text text-anchor="middle" x="167.86" y="-59.6" font-family="Helvetica,sans-Serif" font-size="8.00">gstar.hpp</text>
</a>
</g>
</g>
<!-- Node1&#45;&gt;Node5 -->
<g id="edge6_Node000001_Node000005" class="edge">
<title>Node1&#45;&gt;Node5</title>
<g id="a_edge6_Node000001_Node000005"><a xlink:title=" ">
<path fill="none" stroke="#63b8ff" d="M91.59,-101.4C110.66,-91.67 136.85,-78.32 153.04,-70.06"/>
<polygon fill="#63b8ff" stroke="#63b8ff" points="89.93,-98.31 82.62,-105.97 93.11,-104.55 89.93,-98.31"/>
</a>
</g>
</g>
<!-- Node3&#45;&gt;Node2 -->
<g id="edge3_Node000003_Node000002" class="edge">
<title>Node3&#45;&gt;Node2</title>
<g id="a_edge3_Node000003_Node000002"><a xlink:title=" ">
<path fill="none" stroke="#63b8ff" d="M45.98,-44.36C51.72,-35.23 58.62,-24.22 63.12,-17.06"/>
<polygon fill="#63b8ff" stroke="#63b8ff" points="42.93,-42.64 40.58,-52.97 48.86,-46.36 42.93,-42.64"/>
</a>
</g>
</g>
<!-- Node4&#45;&gt;Node2 -->
<g id="edge5_Node000004_Node000002" class="edge">
<title>Node4&#45;&gt;Node2</title>
<g id="a_edge5_Node000004_Node000002"><a xlink:title=" ">
<path fill="none" stroke="#63b8ff" d="M90.42,-44.36C84.51,-35.23 77.39,-24.22 72.75,-17.06"/>
<polygon fill="#63b8ff" stroke="#63b8ff" points="87.62,-46.48 95.99,-52.97 93.5,-42.68 87.62,-46.48"/>
</a>
</g>
</g>
<!-- Node5&#45;&gt;Node2 -->
<g id="edge7_Node000005_Node000002" class="edge">
<title>Node5&#45;&gt;Node2</title>
<g id="a_edge7_Node000005_Node000002"><a xlink:title=" ">
<path fill="none" stroke="#63b8ff" d="M144.13,-48.4C125.06,-38.67 98.88,-25.32 82.68,-17.06"/>
<polygon fill="#63b8ff" stroke="#63b8ff" points="142.61,-51.55 153.1,-52.97 145.79,-45.31 142.61,-51.55"/>
</a>
</g>
</g>
</g>
</svg>
