<?xml version="1.0" encoding="UTF-8" standalone="no"?>
<!DOCTYPE svg PUBLIC "-//W3C//DTD SVG 1.1//EN"
 "http://www.w3.org/Graphics/SVG/1.1/DTD/svg11.dtd">
<!-- Generated by graphviz version 2.43.0 (0)
 -->
<!-- Title: managed_node.hpp Pages: 1 -->
<svg width="388pt" height="131pt"
 viewBox="0.00 0.00 387.64 131.00" xmlns="http://www.w3.org/2000/svg" xmlns:xlink="http://www.w3.org/1999/xlink">
<g id="graph0" class="graph" transform="scale(1 1) rotate(0) translate(4 127)">
<title>managed_node.hpp</title>
<!-- Node1 -->
<g id="Node000001" class="node">
<title>Node1</title>
<g id="a_Node000001"><a xlink:title=" ">
<polygon fill="#999999" stroke="#666666" points="222.14,-123 124.14,-123 124.14,-106 222.14,-106 222.14,-123"/>
<text text-anchor="middle" x="173.14" y="-112.6" font-family="Helvetica,sans-Serif" font-size="8.00">managed_node.hpp</text>
</a>
</g>
</g>
<!-- Node2 -->
<g id="Node000002" class="node">
<title>Node2</title>
<g id="a_Node000002"><a xlink:href="../../d9/d96/chdr_8hpp.html" target="_top" xlink:title=" ">
<polygon fill="white" stroke="#666666" points="199.14,-17 147.14,-17 147.14,0 199.14,0 199.14,-17"/>
<text text-anchor="middle" x="173.14" y="-6.6" font-family="Helvetica,sans-Serif" font-size="8.00">chdr.hpp</text>
</a>
</g>
</g>
<!-- Node1&#45;&gt;Node2 -->
<g id="edge1_Node000001_Node000002" class="edge">
<title>Node1&#45;&gt;Node2</title>
<g id="a_edge1_Node000001_Node000002"><a xlink:title=" ">
<path fill="none" stroke="#63b8ff" d="M113.92,-105.69C71.76,-98.77 20.33,-87.09 7.14,-70 -30.24,-21.55 91.45,-11.87 146.99,-9.96"/>
<polygon fill="#63b8ff" stroke="#63b8ff" points="113.44,-109.15 123.86,-107.26 114.53,-102.24 113.44,-109.15"/>
</a>
</g>
</g>
<!-- Node3 -->
<g id="Node000003" class="node">
<title>Node3</title>
<g id="a_Node000003"><a xlink:href="../../d3/d3e/gbest__first_8hpp.html" target="_top" xlink:title=" ">
<polygon fill="white" stroke="#666666" points="93.64,-70 16.64,-70 16.64,-53 93.64,-53 93.64,-70"/>
<text text-anchor="middle" x="55.14" y="-59.6" font-family="Helvetica,sans-Serif" font-size="8.00">gbest_first.hpp</text>
</a>
</g>
</g>
<!-- Node1&#45;&gt;Node3 -->
<g id="edge2_Node000001_Node000003" class="edge">
<title>Node1&#45;&gt;Node3</title>
<g id="a_edge2_Node000001_Node000003"><a xlink:title=" ">
<path fill="none" stroke="#63b8ff" d="M146.37,-101.93C123.78,-92.16 92.09,-78.47 72.63,-70.06"/>
<polygon fill="#63b8ff" stroke="#63b8ff" points="145.17,-105.22 155.73,-105.97 147.94,-98.79 145.17,-105.22"/>
</a>
</g>
</g>
<!-- Node4 -->
<g id="Node000004" class="node">
<title>Node4</title>
<g id="a_Node000004"><a xlink:href="../../de/d94/gbfs_8hpp.html" target="_top" xlink:title=" ">
<polygon fill="white" stroke="#666666" points="164.64,-70 111.64,-70 111.64,-53 164.64,-53 164.64,-70"/>
<text text-anchor="middle" x="138.14" y="-59.6" font-family="Helvetica,sans-Serif" font-size="8.00">gbfs.hpp</text>
</a>
</g>
</g>
<!-- Node1&#45;&gt;Node4 -->
<g id="edge4_Node000001_Node000004" class="edge">
<title>Node1&#45;&gt;Node4</title>
<g id="a_edge4_Node000001_Node000004"><a xlink:title=" ">
<path fill="none" stroke="#63b8ff" d="M162.27,-97.65C155.96,-88.46 148.3,-77.3 143.33,-70.06"/>
<polygon fill="#63b8ff" stroke="#63b8ff" points="159.44,-99.71 167.98,-105.97 165.21,-95.75 159.44,-99.71"/>
</a>
</g>
</g>
<!-- Node5 -->
<g id="Node000005" class="node">
<title>Node5</title>
<g id="a_Node000005"><a xlink:href="../../d4/df2/gdfs_8hpp.html" target="_top" xlink:title=" ">
<polygon fill="white" stroke="#666666" points="235.64,-70 182.64,-70 182.64,-53 235.64,-53 235.64,-70"/>
<text text-anchor="middle" x="209.14" y="-59.6" font-family="Helvetica,sans-Serif" font-size="8.00">gdfs.hpp</text>
</a>
</g>
</g>
<!-- Node1&#45;&gt;Node5 -->
<g id="edge6_Node000001_Node000005" class="edge">
<title>Node1&#45;&gt;Node5</title>
<g id="a_edge6_Node000001_Node000005"><a xlink:title=" ">
<path fill="none" stroke="#63b8ff" d="M184.33,-97.65C190.82,-88.46 198.7,-77.3 203.81,-70.06"/>
<polygon fill="#63b8ff" stroke="#63b8ff" points="181.36,-95.79 178.46,-105.97 187.08,-99.82 181.36,-95.79"/>
</a>
</g>
</g>
<!-- Node6 -->
<g id="Node000006" class="node">
<title>Node6</title>
<g id="a_Node000006"><a xlink:href="../../d3/d3e/gjps_8hpp.html" target="_top" xlink:title=" ">
<polygon fill="white" stroke="#666666" points="306.14,-70 254.14,-70 254.14,-53 306.14,-53 306.14,-70"/>
<text text-anchor="middle" x="280.14" y="-59.6" font-family="Helvetica,sans-Serif" font-size="8.00">gjps.hpp</text>
</a>
</g>
</g>
<!-- Node1&#45;&gt;Node6 -->
<g id="edge8_Node000001_Node000006" class="edge">
<title>Node1&#45;&gt;Node6</title>
<g id="a_edge8_Node000001_Node000006"><a xlink:title=" ">
<path fill="none" stroke="#63b8ff" d="M197.98,-101.66C218.42,-91.92 246.8,-78.39 264.29,-70.06"/>
<polygon fill="#63b8ff" stroke="#63b8ff" points="196.45,-98.51 188.93,-105.97 199.47,-104.83 196.45,-98.51"/>
</a>
</g>
</g>
<!-- Node7 -->
<g id="Node000007" class="node">
<title>Node7</title>
<g id="a_Node000007"><a xlink:href="../../d1/def/gstar_8hpp.html" target="_top" xlink:title=" ">
<polygon fill="white" stroke="#666666" points="379.64,-70 324.64,-70 324.64,-53 379.64,-53 379.64,-70"/>
<text text-anchor="middle" x="352.14" y="-59.6" font-family="Helvetica,sans-Serif" font-size="8.00">gstar.hpp</text>
</a>
</g>
</g>
<!-- Node1&#45;&gt;Node7 -->
<g id="edge10_Node000001_Node000007" class="edge">
<title>Node1&#45;&gt;Node7</title>
<g id="a_edge10_Node000001_Node000007"><a xlink:title=" ">
<path fill="none" stroke="#63b8ff" d="M209.24,-103.22C243.68,-93.4 294.77,-78.85 325.62,-70.06"/>
<polygon fill="#63b8ff" stroke="#63b8ff" points="208.21,-99.87 199.56,-105.97 210.13,-106.6 208.21,-99.87"/>
</a>
</g>
</g>
<!-- Node3&#45;&gt;Node2 -->
<g id="edge3_Node000003_Node000002" class="edge">
<title>Node3&#45;&gt;Node2</title>
<g id="a_edge3_Node000003_Node000002"><a xlink:title=" ">
<path fill="none" stroke="#63b8ff" d="M81.92,-48.93C104.51,-39.16 136.2,-25.47 155.66,-17.06"/>
<polygon fill="#63b8ff" stroke="#63b8ff" points="80.35,-45.79 72.56,-52.97 83.12,-52.22 80.35,-45.79"/>
</a>
</g>
</g>
<!-- Node4&#45;&gt;Node2 -->
<g id="edge5_Node000004_Node000002" class="edge">
<title>Node4&#45;&gt;Node2</title>
<g id="a_edge5_Node000004_Node000002"><a xlink:title=" ">
<path fill="none" stroke="#63b8ff" d="M149.02,-44.65C155.33,-35.46 162.99,-24.3 167.96,-17.06"/>
<polygon fill="#63b8ff" stroke="#63b8ff" points="146.08,-42.75 143.31,-52.97 151.85,-46.71 146.08,-42.75"/>
</a>
</g>
</g>
<!-- Node5&#45;&gt;Node2 -->
<g id="edge7_Node000005_Node000002" class="edge">
<title>Node5&#45;&gt;Node2</title>
<g id="a_edge7_Node000005_Node000002"><a xlink:title=" ">
<path fill="none" stroke="#63b8ff" d="M197.96,-44.65C191.47,-35.46 183.59,-24.3 178.48,-17.06"/>
<polygon fill="#63b8ff" stroke="#63b8ff" points="195.21,-46.82 203.83,-52.97 200.93,-42.79 195.21,-46.82"/>
</a>
</g>
</g>
<!-- Node6&#45;&gt;Node2 -->
<g id="edge9_Node000006_Node000002" class="edge">
<title>Node6&#45;&gt;Node2</title>
<g id="a_edge9_Node000006_Node000002"><a xlink:title=" ">
<path fill="none" stroke="#63b8ff" d="M255.31,-48.66C234.87,-38.92 206.49,-25.39 189,-17.06"/>
<polygon fill="#63b8ff" stroke="#63b8ff" points="253.82,-51.83 264.36,-52.97 256.84,-45.51 253.82,-51.83"/>
</a>
</g>
</g>
<!-- Node7&#45;&gt;Node2 -->
<g id="edge11_Node000007_Node000002" class="edge">
<title>Node7&#45;&gt;Node2</title>
<g id="a_edge11_Node000007_Node000002"><a xlink:title=" ">
<path fill="none" stroke="#63b8ff" d="M316.02,-50.21C281.47,-40.36 230.18,-25.75 199.37,-16.97"/>
<polygon fill="#63b8ff" stroke="#63b8ff" points="315.16,-53.6 325.73,-52.97 317.07,-46.87 315.16,-53.6"/>
</a>
</g>
</g>
</g>
</svg>
