<?xml version="1.0" encoding="UTF-8" standalone="no"?>
<!DOCTYPE svg PUBLIC "-//W3C//DTD SVG 1.1//EN"
 "http://www.w3.org/Graphics/SVG/1.1/DTD/svg11.dtd">
<!-- Generated by graphviz version 2.43.0 (0)
 -->
<!-- Title: managed_node.hpp Pages: 1 -->
<svg width="267pt" height="131pt"
 viewBox="0.00 0.00 267.23 131.00" xmlns="http://www.w3.org/2000/svg" xmlns:xlink="http://www.w3.org/1999/xlink">
<g id="graph0" class="graph" transform="scale(1 1) rotate(0) translate(4 127)">
<title>managed_node.hpp</title>
<!-- Node1 -->
<g id="Node000001" class="node">
<title>Node1</title>
<g id="a_Node000001"><a xlink:title=" ">
<polygon fill="#999999" stroke="#666666" points="146.73,-123 57.73,-123 57.73,-106 146.73,-106 146.73,-123"/>
<text text-anchor="middle" x="102.23" y="-112.6" font-family="Helvetica,sans-Serif" font-size="8.00">managed_node.hpp</text>
</a>
</g>
</g>
<!-- Node2 -->
<g id="Node000002" class="node">
<title>Node2</title>
<g id="a_Node000002"><a xlink:href="../../d9/d96/chdr_8hpp.html" target="_top" xlink:title=" ">
<polygon fill="white" stroke="#666666" points="125.73,-17 78.73,-17 78.73,0 125.73,0 125.73,-17"/>
<text text-anchor="middle" x="102.23" y="-6.6" font-family="Helvetica,sans-Serif" font-size="8.00">chdr.hpp</text>
</a>
</g>
</g>
<!-- Node1&#45;&gt;Node2 -->
<g id="edge1_Node000001_Node000002" class="edge">
<title>Node1&#45;&gt;Node2</title>
<g id="a_edge1_Node000001_Node000002"><a xlink:title=" ">
<path fill="none" stroke="#63b8ff" d="M50.44,-102.75C32.71,-96.33 14.71,-86.13 4.23,-70 -15.83,-39.16 43.57,-21.4 78.57,-13.85"/>
<polygon fill="#63b8ff" stroke="#63b8ff" points="49.62,-106.17 60.21,-105.95 51.79,-99.51 49.62,-106.17"/>
</a>
</g>
</g>
<!-- Node3 -->
<g id="Node000003" class="node">
<title>Node3</title>
<g id="a_Node000003"><a xlink:href="../../de/d94/gbfs_8hpp.html" target="_top" xlink:title=" ">
<polygon fill="white" stroke="#666666" points="60.73,-70 13.73,-70 13.73,-53 60.73,-53 60.73,-70"/>
<text text-anchor="middle" x="37.23" y="-59.6" font-family="Helvetica,sans-Serif" font-size="8.00">gbfs.hpp</text>
</a>
</g>
</g>
<!-- Node1&#45;&gt;Node3 -->
<g id="edge2_Node000001_Node000003" class="edge">
<title>Node1&#45;&gt;Node3</title>
<g id="a_edge2_Node000001_Node000003"><a xlink:title=" ">
<path fill="none" stroke="#63b8ff" d="M84.55,-99.63C72.41,-90.11 56.76,-77.83 46.86,-70.06"/>
<polygon fill="#63b8ff" stroke="#63b8ff" points="82.61,-102.56 92.63,-105.97 86.93,-97.05 82.61,-102.56"/>
</a>
</g>
</g>
<!-- Node4 -->
<g id="Node000004" class="node">
<title>Node4</title>
<g id="a_Node000004"><a xlink:href="../../d4/df2/gdfs_8hpp.html" target="_top" xlink:title=" ">
<polygon fill="white" stroke="#666666" points="125.73,-70 78.73,-70 78.73,-53 125.73,-53 125.73,-70"/>
<text text-anchor="middle" x="102.23" y="-59.6" font-family="Helvetica,sans-Serif" font-size="8.00">gdfs.hpp</text>
</a>
</g>
</g>
<!-- Node1&#45;&gt;Node4 -->
<g id="edge4_Node000001_Node000004" class="edge">
<title>Node1&#45;&gt;Node4</title>
<g id="a_edge4_Node000001_Node000004"><a xlink:title=" ">
<path fill="none" stroke="#63b8ff" d="M102.23,-95.91C102.23,-87.08 102.23,-76.85 102.23,-70.06"/>
<polygon fill="#63b8ff" stroke="#63b8ff" points="98.73,-95.97 102.23,-105.97 105.73,-95.97 98.73,-95.97"/>
</a>
</g>
</g>
<!-- Node5 -->
<g id="Node000005" class="node">
<title>Node5</title>
<g id="a_Node000005"><a xlink:href="../../d3/d3e/gjps_8hpp.html" target="_top" xlink:title=" ">
<polygon fill="white" stroke="#666666" points="190.73,-70 143.73,-70 143.73,-53 190.73,-53 190.73,-70"/>
<text text-anchor="middle" x="167.23" y="-59.6" font-family="Helvetica,sans-Serif" font-size="8.00">gjps.hpp</text>
</a>
</g>
</g>
<!-- Node1&#45;&gt;Node5 -->
<g id="edge6_Node000001_Node000005" class="edge">
<title>Node1&#45;&gt;Node5</title>
<g id="a_edge6_Node000001_Node000005"><a xlink:title=" ">
<path fill="none" stroke="#63b8ff" d="M119.9,-99.63C132.04,-90.11 147.69,-77.83 157.6,-70.06"/>
<polygon fill="#63b8ff" stroke="#63b8ff" points="117.52,-97.05 111.82,-105.97 121.84,-102.56 117.52,-97.05"/>
</a>
</g>
</g>
<!-- Node6 -->
<g id="Node000006" class="node">
<title>Node6</title>
<g id="a_Node000006"><a xlink:href="../../d1/def/gstar_8hpp.html" target="_top" xlink:title=" ">
<polygon fill="white" stroke="#666666" points="259.23,-70 209.23,-70 209.23,-53 259.23,-53 259.23,-70"/>
<text text-anchor="middle" x="234.23" y="-59.6" font-family="Helvetica,sans-Serif" font-size="8.00">gstar.hpp</text>
</a>
</g>
</g>
<!-- Node1&#45;&gt;Node6 -->
<g id="edge8_Node000001_Node000006" class="edge">
<title>Node1&#45;&gt;Node6</title>
<g id="a_edge8_Node000001_Node000006"><a xlink:title=" ">
<path fill="none" stroke="#63b8ff" d="M131.16,-102.32C156.49,-92.53 192.6,-78.58 214.67,-70.06"/>
<polygon fill="#63b8ff" stroke="#63b8ff" points="129.77,-99.11 121.7,-105.97 132.29,-105.64 129.77,-99.11"/>
</a>
</g>
</g>
<!-- Node3&#45;&gt;Node2 -->
<g id="edge3_Node000003_Node000002" class="edge">
<title>Node3&#45;&gt;Node2</title>
<g id="a_edge3_Node000003_Node000002"><a xlink:title=" ">
<path fill="none" stroke="#63b8ff" d="M54.9,-46.63C67.04,-37.11 82.69,-24.83 92.6,-17.06"/>
<polygon fill="#63b8ff" stroke="#63b8ff" points="52.52,-44.05 46.82,-52.97 56.84,-49.56 52.52,-44.05"/>
</a>
</g>
</g>
<!-- Node4&#45;&gt;Node2 -->
<g id="edge5_Node000004_Node000002" class="edge">
<title>Node4&#45;&gt;Node2</title>
<g id="a_edge5_Node000004_Node000002"><a xlink:title=" ">
<path fill="none" stroke="#63b8ff" d="M102.23,-42.91C102.23,-34.08 102.23,-23.85 102.23,-17.06"/>
<polygon fill="#63b8ff" stroke="#63b8ff" points="98.73,-42.97 102.23,-52.97 105.73,-42.97 98.73,-42.97"/>
</a>
</g>
</g>
<!-- Node5&#45;&gt;Node2 -->
<g id="edge7_Node000005_Node000002" class="edge">
<title>Node5&#45;&gt;Node2</title>
<g id="a_edge7_Node000005_Node000002"><a xlink:title=" ">
<path fill="none" stroke="#63b8ff" d="M149.55,-46.63C137.41,-37.11 121.76,-24.83 111.86,-17.06"/>
<polygon fill="#63b8ff" stroke="#63b8ff" points="147.61,-49.56 157.63,-52.97 151.93,-44.05 147.61,-49.56"/>
</a>
</g>
</g>
<!-- Node6&#45;&gt;Node2 -->
<g id="edge9_Node000006_Node000002" class="edge">
<title>Node6&#45;&gt;Node2</title>
<g id="a_edge9_Node000006_Node000002"><a xlink:title=" ">
<path fill="none" stroke="#63b8ff" d="M205.29,-49.32C179.96,-39.53 143.85,-25.58 121.78,-17.06"/>
<polygon fill="#63b8ff" stroke="#63b8ff" points="204.16,-52.64 214.75,-52.97 206.68,-46.11 204.16,-52.64"/>
</a>
</g>
</g>
</g>
</svg>
