<?xml version="1.0" encoding="UTF-8" standalone="no"?>
<!DOCTYPE svg PUBLIC "-//W3C//DTD SVG 1.1//EN"
 "http://www.w3.org/Graphics/SVG/1.1/DTD/svg11.dtd">
<!-- Generated by graphviz version 2.43.0 (0)
 -->
<!-- Title: managed_node.hpp Pages: 1 -->
<svg width="470pt" height="131pt"
 viewBox="0.00 0.00 470.17 131.00" xmlns="http://www.w3.org/2000/svg" xmlns:xlink="http://www.w3.org/1999/xlink">
<g id="graph0" class="graph" transform="scale(1 1) rotate(0) translate(4 127)">
<title>managed_node.hpp</title>
<!-- Node1 -->
<g id="Node000001" class="node">
<title>Node1</title>
<g id="a_Node000001"><a xlink:title=" ">
<polygon fill="#999999" stroke="#666666" points="260.17,-123 162.17,-123 162.17,-106 260.17,-106 260.17,-123"/>
<text text-anchor="middle" x="211.17" y="-112.6" font-family="Helvetica,sans-Serif" font-size="8.00">managed_node.hpp</text>
</a>
</g>
</g>
<!-- Node2 -->
<g id="Node000002" class="node">
<title>Node2</title>
<g id="a_Node000002"><a xlink:href="../../d9/d96/chdr_8hpp.html" target="_top" xlink:title=" ">
<polygon fill="white" stroke="#666666" points="237.17,-17 185.17,-17 185.17,0 237.17,0 237.17,-17"/>
<text text-anchor="middle" x="211.17" y="-6.6" font-family="Helvetica,sans-Serif" font-size="8.00">chdr.hpp</text>
</a>
</g>
</g>
<!-- Node1&#45;&gt;Node2 -->
<g id="edge1_Node000001_Node000002" class="edge">
<title>Node1&#45;&gt;Node2</title>
<g id="a_edge1_Node000001_Node000002"><a xlink:title=" ">
<path fill="none" stroke="#63b8ff" d="M151.83,-114.14C78.72,-112.87 -31.19,-102.98 9.17,-53 30.98,-26 135.23,-14.96 184.83,-11.18"/>
<polygon fill="#63b8ff" stroke="#63b8ff" points="151.84,-117.64 161.89,-114.27 151.93,-110.64 151.84,-117.64"/>
</a>
</g>
</g>
<!-- Node3 -->
<g id="Node000003" class="node">
<title>Node3</title>
<g id="a_Node000003"><a xlink:href="../../d3/d3e/gbest__first_8hpp.html" target="_top" xlink:title=" ">
<polygon fill="white" stroke="#666666" points="95.67,-70 18.67,-70 18.67,-53 95.67,-53 95.67,-70"/>
<text text-anchor="middle" x="57.17" y="-59.6" font-family="Helvetica,sans-Serif" font-size="8.00">gbest_first.hpp</text>
</a>
</g>
</g>
<!-- Node1&#45;&gt;Node3 -->
<g id="edge2_Node000001_Node000003" class="edge">
<title>Node1&#45;&gt;Node3</title>
<g id="a_edge2_Node000001_Node000003"><a xlink:title=" ">
<path fill="none" stroke="#63b8ff" d="M178.58,-102.71C148.98,-92.9 106.08,-78.69 79.99,-70.06"/>
<polygon fill="#63b8ff" stroke="#63b8ff" points="177.86,-106.15 188.45,-105.97 180.06,-99.51 177.86,-106.15"/>
</a>
</g>
</g>
<!-- Node4 -->
<g id="Node000004" class="node">
<title>Node4</title>
<g id="a_Node000004"><a xlink:href="../../de/d94/gbfs_8hpp.html" target="_top" xlink:title=" ">
<polygon fill="white" stroke="#666666" points="166.67,-70 113.67,-70 113.67,-53 166.67,-53 166.67,-70"/>
<text text-anchor="middle" x="140.17" y="-59.6" font-family="Helvetica,sans-Serif" font-size="8.00">gbfs.hpp</text>
</a>
</g>
</g>
<!-- Node1&#45;&gt;Node4 -->
<g id="edge4_Node000001_Node000004" class="edge">
<title>Node1&#45;&gt;Node4</title>
<g id="a_edge4_Node000001_Node000004"><a xlink:title=" ">
<path fill="none" stroke="#63b8ff" d="M192.25,-99.91C178.94,-90.34 161.62,-77.9 150.69,-70.06"/>
<polygon fill="#63b8ff" stroke="#63b8ff" points="190.53,-102.98 200.7,-105.97 194.62,-97.3 190.53,-102.98"/>
</a>
</g>
</g>
<!-- Node5 -->
<g id="Node000005" class="node">
<title>Node5</title>
<g id="a_Node000005"><a xlink:href="../../d4/df2/gdfs_8hpp.html" target="_top" xlink:title=" ">
<polygon fill="white" stroke="#666666" points="237.67,-70 184.67,-70 184.67,-53 237.67,-53 237.67,-70"/>
<text text-anchor="middle" x="211.17" y="-59.6" font-family="Helvetica,sans-Serif" font-size="8.00">gdfs.hpp</text>
</a>
</g>
</g>
<!-- Node1&#45;&gt;Node5 -->
<g id="edge6_Node000001_Node000005" class="edge">
<title>Node1&#45;&gt;Node5</title>
<g id="a_edge6_Node000001_Node000005"><a xlink:title=" ">
<path fill="none" stroke="#63b8ff" d="M211.17,-95.91C211.17,-87.08 211.17,-76.85 211.17,-70.06"/>
<polygon fill="#63b8ff" stroke="#63b8ff" points="207.67,-95.97 211.17,-105.97 214.67,-95.97 207.67,-95.97"/>
</a>
</g>
</g>
<!-- Node6 -->
<g id="Node000006" class="node">
<title>Node6</title>
<g id="a_Node000006"><a xlink:href="../../d3/d3e/gjps_8hpp.html" target="_top" xlink:title=" ">
<polygon fill="white" stroke="#666666" points="308.17,-70 256.17,-70 256.17,-53 308.17,-53 308.17,-70"/>
<text text-anchor="middle" x="282.17" y="-59.6" font-family="Helvetica,sans-Serif" font-size="8.00">gjps.hpp</text>
</a>
</g>
</g>
<!-- Node1&#45;&gt;Node6 -->
<g id="edge8_Node000001_Node000006" class="edge">
<title>Node1&#45;&gt;Node6</title>
<g id="a_edge8_Node000001_Node000006"><a xlink:title=" ">
<path fill="none" stroke="#63b8ff" d="M230.1,-99.91C243.41,-90.34 260.73,-77.9 271.65,-70.06"/>
<polygon fill="#63b8ff" stroke="#63b8ff" points="227.73,-97.3 221.65,-105.97 231.81,-102.98 227.73,-97.3"/>
</a>
</g>
</g>
<!-- Node7 -->
<g id="Node000007" class="node">
<title>Node7</title>
<g id="a_Node000007"><a xlink:href="../../d1/def/gstar_8hpp.html" target="_top" xlink:title=" ">
<polygon fill="white" stroke="#666666" points="381.67,-70 326.67,-70 326.67,-53 381.67,-53 381.67,-70"/>
<text text-anchor="middle" x="354.17" y="-59.6" font-family="Helvetica,sans-Serif" font-size="8.00">gstar.hpp</text>
</a>
</g>
</g>
<!-- Node1&#45;&gt;Node7 -->
<g id="edge10_Node000001_Node000007" class="edge">
<title>Node1&#45;&gt;Node7</title>
<g id="a_edge10_Node000001_Node000007"><a xlink:title=" ">
<path fill="none" stroke="#63b8ff" d="M241.8,-102.58C269.27,-92.78 308.87,-78.66 332.99,-70.06"/>
<polygon fill="#63b8ff" stroke="#63b8ff" points="240.52,-99.32 232.27,-105.97 242.87,-105.91 240.52,-99.32"/>
</a>
</g>
</g>
<!-- Node8 -->
<g id="Node000008" class="node">
<title>Node8</title>
<g id="a_Node000008"><a xlink:href="../../d8/ddf/mgstar_8hpp.html" target="_top" xlink:title=" ">
<polygon fill="white" stroke="#666666" points="462.17,-70 400.17,-70 400.17,-53 462.17,-53 462.17,-70"/>
<text text-anchor="middle" x="431.17" y="-59.6" font-family="Helvetica,sans-Serif" font-size="8.00">mgstar.hpp</text>
</a>
</g>
</g>
<!-- Node1&#45;&gt;Node8 -->
<g id="edge12_Node000001_Node000008" class="edge">
<title>Node1&#45;&gt;Node8</title>
<g id="a_edge12_Node000001_Node000008"><a xlink:title=" ">
<path fill="none" stroke="#63b8ff" d="M253.49,-103.69C296.35,-93.75 361.65,-78.62 400,-69.73"/>
<polygon fill="#63b8ff" stroke="#63b8ff" points="252.59,-100.31 243.63,-105.97 254.17,-107.13 252.59,-100.31"/>
</a>
</g>
</g>
<!-- Node3&#45;&gt;Node2 -->
<g id="edge3_Node000003_Node000002" class="edge">
<title>Node3&#45;&gt;Node2</title>
<g id="a_edge3_Node000003_Node000002"><a xlink:title=" ">
<path fill="none" stroke="#63b8ff" d="M89.76,-49.71C119.36,-39.9 162.27,-25.69 188.36,-17.06"/>
<polygon fill="#63b8ff" stroke="#63b8ff" points="88.29,-46.51 79.9,-52.97 90.49,-53.15 88.29,-46.51"/>
</a>
</g>
</g>
<!-- Node4&#45;&gt;Node2 -->
<g id="edge5_Node000004_Node000002" class="edge">
<title>Node4&#45;&gt;Node2</title>
<g id="a_edge5_Node000004_Node000002"><a xlink:title=" ">
<path fill="none" stroke="#63b8ff" d="M159.1,-46.91C172.41,-37.34 189.73,-24.9 200.65,-17.06"/>
<polygon fill="#63b8ff" stroke="#63b8ff" points="156.73,-44.3 150.65,-52.97 160.81,-49.98 156.73,-44.3"/>
</a>
</g>
</g>
<!-- Node5&#45;&gt;Node2 -->
<g id="edge7_Node000005_Node000002" class="edge">
<title>Node5&#45;&gt;Node2</title>
<g id="a_edge7_Node000005_Node000002"><a xlink:title=" ">
<path fill="none" stroke="#63b8ff" d="M211.17,-42.91C211.17,-34.08 211.17,-23.85 211.17,-17.06"/>
<polygon fill="#63b8ff" stroke="#63b8ff" points="207.67,-42.97 211.17,-52.97 214.67,-42.97 207.67,-42.97"/>
</a>
</g>
</g>
<!-- Node6&#45;&gt;Node2 -->
<g id="edge9_Node000006_Node000002" class="edge">
<title>Node6&#45;&gt;Node2</title>
<g id="a_edge9_Node000006_Node000002"><a xlink:title=" ">
<path fill="none" stroke="#63b8ff" d="M263.25,-46.91C249.94,-37.34 232.62,-24.9 221.69,-17.06"/>
<polygon fill="#63b8ff" stroke="#63b8ff" points="261.53,-49.98 271.7,-52.97 265.62,-44.3 261.53,-49.98"/>
</a>
</g>
</g>
<!-- Node7&#45;&gt;Node2 -->
<g id="edge11_Node000007_Node000002" class="edge">
<title>Node7&#45;&gt;Node2</title>
<g id="a_edge11_Node000007_Node000002"><a xlink:title=" ">
<path fill="none" stroke="#63b8ff" d="M323.55,-49.58C296.08,-39.78 256.48,-25.66 232.36,-17.06"/>
<polygon fill="#63b8ff" stroke="#63b8ff" points="322.48,-52.91 333.07,-52.97 324.83,-46.32 322.48,-52.91"/>
</a>
</g>
</g>
<!-- Node8&#45;&gt;Node2 -->
<g id="edge13_Node000008_Node000002" class="edge">
<title>Node8&#45;&gt;Node2</title>
<g id="a_edge13_Node000008_Node000002"><a xlink:title=" ">
<path fill="none" stroke="#63b8ff" d="M390.15,-50.99C345.38,-40.61 275.05,-24.31 237.26,-15.55"/>
<polygon fill="#63b8ff" stroke="#63b8ff" points="389.59,-54.45 400.12,-53.3 391.17,-47.63 389.59,-54.45"/>
</a>
</g>
</g>
</g>
</svg>
