<?xml version="1.0" encoding="UTF-8" standalone="no"?>
<!DOCTYPE svg PUBLIC "-//W3C//DTD SVG 1.1//EN"
 "http://www.w3.org/Graphics/SVG/1.1/DTD/svg11.dtd">
<!-- Generated by graphviz version 2.42.4 (0)
 -->
<!-- Title: to_string Pages: 1 -->
<svg width="187pt" height="95pt"
 viewBox="0.00 0.00 187.00 95.00" xmlns="http://www.w3.org/2000/svg" xmlns:xlink="http://www.w3.org/1999/xlink">
<g id="graph0" class="graph" transform="scale(1 1) rotate(0) translate(4 91)">
<title>to_string</title>
<!-- Node1 -->
<g id="Node000001" class="node">
<title>Node1</title>
<g id="a_Node000001"><a xlink:title="Converts a duration in seconds to a formatted string representation.">
<polygon fill="#999999" stroke="#666666" points="52,-52 0,-52 0,-35 52,-35 52,-52"/>
<text text-anchor="middle" x="26" y="-41.6" font-family="Helvetica,sans-Serif" font-size="8.00">to_string</text>
</a>
</g>
</g>
<!-- Node2 -->
<g id="Node000002" class="node">
<title>Node2</title>
<g id="a_Node000002"><a xlink:href="../../d2/dcb/structchdr_1_1utils_a5dbf4cb43cd80497753aa963c21fa0cf.html#a5dbf4cb43cd80497753aa963c21fa0cf" target="_top" xlink:title="Computes the absolute value of a given arithmetic type.">
<polygon fill="white" stroke="#666666" points="149.5,-87 117.5,-87 117.5,-70 149.5,-70 149.5,-87"/>
<text text-anchor="middle" x="133.5" y="-76.6" font-family="Helvetica,sans-Serif" font-size="8.00">abs</text>
</a>
</g>
</g>
<!-- Node1&#45;&gt;Node2 -->
<g id="edge1_Node000001_Node000002" class="edge">
<title>Node1&#45;&gt;Node2</title>
<g id="a_edge1_Node000001_Node000002"><a xlink:title=" ">
<path fill="none" stroke="#63b8ff" d="M52,-51.79C68.86,-57.39 90.99,-64.73 107.79,-70.3"/>
<polygon fill="#63b8ff" stroke="#63b8ff" points="106.86,-73.68 117.46,-73.51 109.07,-67.04 106.86,-73.68"/>
</a>
</g>
</g>
<!-- Node3 -->
<g id="Node000003" class="node">
<title>Node3</title>
<g id="a_Node000003"><a xlink:href="../../d2/dcb/structchdr_1_1utils_a81ba0122d283ec87be2676092c872a52.html#a81ba0122d283ec87be2676092c872a52" target="_top" xlink:title="Constrains a value to lie within a specified range.">
<polygon fill="white" stroke="#666666" points="154,-52 113,-52 113,-35 154,-35 154,-52"/>
<text text-anchor="middle" x="133.5" y="-41.6" font-family="Helvetica,sans-Serif" font-size="8.00">clamp</text>
</a>
</g>
</g>
<!-- Node1&#45;&gt;Node3 -->
<g id="edge2_Node000001_Node000003" class="edge">
<title>Node1&#45;&gt;Node3</title>
<g id="a_edge2_Node000001_Node000003"><a xlink:title=" ">
<path fill="none" stroke="#63b8ff" d="M52,-43.5C67.15,-43.5 86.57,-43.5 102.54,-43.5"/>
<polygon fill="#63b8ff" stroke="#63b8ff" points="102.95,-47 112.95,-43.5 102.95,-40 102.95,-47"/>
</a>
</g>
</g>
<!-- Node4 -->
<g id="Node000004" class="node">
<title>Node4</title>
<g id="a_Node000004"><a xlink:href="../../d2/dcb/structchdr_1_1utils_a28a782853c92df109e951592c838e5e9.html#a28a782853c92df109e951592c838e5e9" target="_top" xlink:title="Removes trailing zeroes from a numeric string.">
<polygon fill="white" stroke="#666666" points="179,-17 88,-17 88,0 179,0 179,-17"/>
<text text-anchor="middle" x="133.5" y="-6.6" font-family="Helvetica,sans-Serif" font-size="8.00">trim_trailing_zeros</text>
</a>
</g>
</g>
<!-- Node1&#45;&gt;Node4 -->
<g id="edge3_Node000001_Node000004" class="edge">
<title>Node1&#45;&gt;Node4</title>
<g id="a_edge3_Node000001_Node000004"><a xlink:title=" ">
<path fill="none" stroke="#63b8ff" d="M52,-35.21C65.37,-30.77 82.06,-25.23 96.77,-20.35"/>
<polygon fill="#63b8ff" stroke="#63b8ff" points="98.19,-23.57 106.58,-17.1 95.98,-16.93 98.19,-23.57"/>
</a>
</g>
</g>
</g>
</svg>
