<?xml version="1.0" encoding="UTF-8" standalone="no"?>
<!DOCTYPE svg PUBLIC "-//W3C//DTD SVG 1.1//EN"
 "http://www.w3.org/Graphics/SVG/1.1/DTD/svg11.dtd">
<!-- Generated by graphviz version 2.43.0 (0)
 -->
<!-- Title: abs Pages: 1 -->
<svg width="258pt" height="165pt"
 viewBox="0.00 0.00 258.00 165.00" xmlns="http://www.w3.org/2000/svg" xmlns:xlink="http://www.w3.org/1999/xlink">
<g id="graph0" class="graph" transform="scale(1 1) rotate(0) translate(4 161)">
<title>abs</title>
<!-- Node1 -->
<g id="Node000001" class="node">
<title>Node1</title>
<g id="a_Node000001"><a xlink:title="Computes the absolute value of a given arithmetic type.">
<polygon fill="#999999" stroke="#666666" points="250,-87 218,-87 218,-70 250,-70 250,-87"/>
<text text-anchor="middle" x="234" y="-76.6" font-family="Helvetica,sans-Serif" font-size="8.00">abs</text>
</a>
</g>
</g>
<!-- Node2 -->
<g id="Node000002" class="node">
<title>Node2</title>
<g id="a_Node000002"><a xlink:href="../../de/d17/group__Heuristics_ga697263d117f4f386b673e87854c02114.html#ga697263d117f4f386b673e87854c02114" target="_top" xlink:title="Computes the Canberra distance between two nodes.">
<polygon fill="white" stroke="#666666" points="172,-157 10,-157 10,-140 172,-140 172,-157"/>
<text text-anchor="middle" x="91" y="-146.6" font-family="Helvetica,sans-Serif" font-size="8.00">chdr::heuristics::canberra_distance</text>
</a>
</g>
</g>
<!-- Node1&#45;&gt;Node2 -->
<g id="edge1_Node000001_Node000002" class="edge">
<title>Node1&#45;&gt;Node2</title>
<g id="a_edge1_Node000001_Node000002"><a xlink:title=" ">
<path fill="none" stroke="#63b8ff" d="M221.13,-95.58C211.87,-107.55 197.93,-122.89 182,-131.5 175.57,-134.98 168.54,-137.76 161.34,-139.97"/>
<polygon fill="#63b8ff" stroke="#63b8ff" points="224.14,-97.38 227.25,-87.25 218.51,-93.23 224.14,-97.38"/>
</a>
</g>
</g>
<!-- Node3 -->
<g id="Node000003" class="node">
<title>Node3</title>
<g id="a_Node000003"><a xlink:href="../../de/d17/group__Heuristics_ga04c87d0bd2d9fd23e93ab7eada84f72c.html#ga04c87d0bd2d9fd23e93ab7eada84f72c" target="_top" xlink:title="Computes the Chebyshev distance between two nodes.">
<polygon fill="white" stroke="#666666" points="176,-122 6,-122 6,-105 176,-105 176,-122"/>
<text text-anchor="middle" x="91" y="-111.6" font-family="Helvetica,sans-Serif" font-size="8.00">chdr::heuristics::chebyshev_distance</text>
</a>
</g>
</g>
<!-- Node1&#45;&gt;Node3 -->
<g id="edge2_Node000001_Node000003" class="edge">
<title>Node1&#45;&gt;Node3</title>
<g id="a_edge2_Node000001_Node000003"><a xlink:title=" ">
<path fill="none" stroke="#63b8ff" d="M208.15,-88.13C199.91,-91.09 190.64,-94.17 182,-96.5 170.02,-99.72 156.99,-102.56 144.66,-104.95"/>
<polygon fill="#63b8ff" stroke="#63b8ff" points="209.41,-91.39 217.57,-84.64 206.98,-84.83 209.41,-91.39"/>
</a>
</g>
</g>
<!-- Node4 -->
<g id="Node000004" class="node">
<title>Node4</title>
<g id="a_Node000004"><a xlink:href="../../de/d17/group__Heuristics_ga0ae5cd4c8261c2e6b92393ed5e4fb789.html#ga0ae5cd4c8261c2e6b92393ed5e4fb789" target="_top" xlink:title="Calculate the Manhattan distance between two nodes.">
<polygon fill="white" stroke="#666666" points="176,-87 6,-87 6,-70 176,-70 176,-87"/>
<text text-anchor="middle" x="91" y="-76.6" font-family="Helvetica,sans-Serif" font-size="8.00">chdr::heuristics::manhattan_distance</text>
</a>
</g>
</g>
<!-- Node1&#45;&gt;Node4 -->
<g id="edge3_Node000001_Node000004" class="edge">
<title>Node1&#45;&gt;Node4</title>
<g id="a_edge3_Node000001_Node000004"><a xlink:title=" ">
<path fill="none" stroke="#63b8ff" d="M207.69,-78.5C198.52,-78.5 187.59,-78.5 176.16,-78.5"/>
<polygon fill="#63b8ff" stroke="#63b8ff" points="207.91,-82 217.91,-78.5 207.91,-75 207.91,-82"/>
</a>
</g>
</g>
<!-- Node5 -->
<g id="Node000005" class="node">
<title>Node5</title>
<g id="a_Node000005"><a xlink:href="../../de/d17/group__Heuristics_ga2fe90d2468d08f5dc0157ff297b921ab.html#ga2fe90d2468d08f5dc0157ff297b921ab" target="_top" xlink:title="Computes the squared Euclidean distance between two nodes.">
<polygon fill="white" stroke="#666666" points="182,-52 0,-52 0,-35 182,-35 182,-52"/>
<text text-anchor="middle" x="91" y="-41.6" font-family="Helvetica,sans-Serif" font-size="8.00">chdr::heuristics::sqr_euclidean_distance</text>
</a>
</g>
</g>
<!-- Node1&#45;&gt;Node5 -->
<g id="edge4_Node000001_Node000005" class="edge">
<title>Node1&#45;&gt;Node5</title>
<g id="a_edge4_Node000001_Node000005"><a xlink:title=" ">
<path fill="none" stroke="#63b8ff" d="M208.46,-69.63C200.13,-66.81 190.72,-63.82 182,-61.5 168.6,-57.94 153.92,-54.72 140.36,-52.02"/>
<polygon fill="#63b8ff" stroke="#63b8ff" points="207.38,-72.96 217.97,-72.94 209.68,-66.35 207.38,-72.96"/>
</a>
</g>
</g>
<!-- Node6 -->
<g id="Node000006" class="node">
<title>Node6</title>
<g id="a_Node000006"><a xlink:href="../../d2/dcb/structchdr_1_1utils_acad2a572d66e0496dbb846b093aea3a6.html#acad2a572d66e0496dbb846b093aea3a6" target="_top" xlink:title="Converts a duration in seconds to a formatted string representation.">
<polygon fill="white" stroke="#666666" points="117,-17 65,-17 65,0 117,0 117,-17"/>
<text text-anchor="middle" x="91" y="-6.6" font-family="Helvetica,sans-Serif" font-size="8.00">to_string</text>
</a>
</g>
</g>
<!-- Node1&#45;&gt;Node6 -->
<g id="edge5_Node000001_Node000006" class="edge">
<title>Node1&#45;&gt;Node6</title>
<g id="a_edge5_Node000001_Node000006"><a xlink:title=" ">
<path fill="none" stroke="#63b8ff" d="M221.03,-61.8C211.72,-50.08 197.77,-35.04 182,-26.5 161.82,-15.57 135.87,-11.25 117.02,-9.55"/>
<polygon fill="#63b8ff" stroke="#63b8ff" points="218.37,-64.08 227.19,-69.94 223.95,-59.86 218.37,-64.08"/>
</a>
</g>
</g>
</g>
</svg>
