<?xml version="1.0" encoding="UTF-8" standalone="no"?>
<!DOCTYPE svg PUBLIC "-//W3C//DTD SVG 1.1//EN"
 "http://www.w3.org/Graphics/SVG/1.1/DTD/svg11.dtd">
<!-- Generated by graphviz version 2.43.0 (0)
 -->
<!-- Title: to_1d Pages: 1 -->
<svg width="384pt" height="157pt"
 viewBox="0.00 0.00 384.00 157.07" xmlns="http://www.w3.org/2000/svg" xmlns:xlink="http://www.w3.org/1999/xlink">
<g id="graph0" class="graph" transform="scale(1 1) rotate(0) translate(4 153.07)">
<title>to_1d</title>
<!-- Node1 -->
<g id="Node000001" class="node">
<title>Node1</title>
<g id="a_Node000001"><a xlink:title="Maps a multi&#45;dimensional index to a one&#45;dimensional array index.">
<polygon fill="#999999" stroke="#666666" points="376,-78 339,-78 339,-61 376,-61 376,-78"/>
<text text-anchor="middle" x="357.5" y="-67.6" font-family="Helvetica,sans-Serif" font-size="8.00">to_1d</text>
</a>
</g>
</g>
<!-- Node2 -->
<g id="Node000002" class="node">
<title>Node2</title>
<g id="a_Node000002"><a xlink:href="../../d9/dcb/classchdr_1_1mazes_1_1graph_a5ca1351a03df5ff49f85cc4b5669cefc.html#a5ca1351a03df5ff49f85cc4b5669cefc" target="_top" xlink:title="Constructs a graph instance from a grid structure.">
<polygon fill="white" stroke="#666666" points="114.5,-123 3.5,-123 3.5,-106 114.5,-106 114.5,-123"/>
<text text-anchor="middle" x="59" y="-112.6" font-family="Helvetica,sans-Serif" font-size="8.00">chdr::mazes::graph::graph</text>
</a>
</g>
</g>
<!-- Node1&#45;&gt;Node2 -->
<g id="edge1_Node000001_Node000002" class="edge">
<title>Node1&#45;&gt;Node2</title>
<g id="a_edge1_Node000001_Node000002"><a xlink:title=" ">
<path fill="none" stroke="#63b8ff" d="M347.38,-87.05C338.39,-102.25 323.08,-123.21 303,-132.5 228.33,-167.05 126.85,-138.71 82.41,-123.1"/>
<polygon fill="#63b8ff" stroke="#63b8ff" points="350.57,-88.52 352.36,-78.08 344.45,-85.12 350.57,-88.52"/>
</a>
</g>
</g>
<!-- Node3 -->
<g id="Node000003" class="node">
<title>Node3</title>
<g id="a_Node000003"><a xlink:href="../../de/de1/classchdr_1_1mazes_1_1grid_3_01coord__t_00_01bool_01_4_acae1d695ad2f308980a748bce2a94fe0.html#acae1d695ad2f308980a748bce2a94fe0" target="_top" xlink:title="Retrieves the node at a specified coordinate.">
<polygon fill="white" stroke="#666666" points="303,-105 154,-105 154,-88 303,-88 303,-105"/>
<text text-anchor="middle" x="228.5" y="-94.6" font-family="Helvetica,sans-Serif" font-size="8.00">chdr::mazes::grid&lt; coord_t, bool &gt;::at</text>
</a>
</g>
</g>
<!-- Node1&#45;&gt;Node3 -->
<g id="edge2_Node000001_Node000003" class="edge">
<title>Node1&#45;&gt;Node3</title>
<g id="a_edge2_Node000001_Node000003"><a xlink:title=" ">
<path fill="none" stroke="#63b8ff" d="M328.83,-75.38C311.55,-79.06 288.99,-83.85 269.74,-87.94"/>
<polygon fill="#63b8ff" stroke="#63b8ff" points="329.79,-78.76 338.84,-73.25 328.33,-71.91 329.79,-78.76"/>
</a>
</g>
</g>
<!-- Node4 -->
<g id="Node000004" class="node">
<title>Node4</title>
<g id="a_Node000004"><a xlink:href="../../dd/de3/classchdr_1_1mazes_1_1grid_a2c953e28d925a8042220b3abe9023479.html#a2c953e28d925a8042220b3abe9023479" target="_top" xlink:title="Retrieves the node at a specified coordinate.">
<polygon fill="white" stroke="#666666" points="273,-52 184,-52 184,-35 273,-35 273,-52"/>
<text text-anchor="middle" x="228.5" y="-41.6" font-family="Helvetica,sans-Serif" font-size="8.00">chdr::mazes::grid::at</text>
</a>
</g>
</g>
<!-- Node1&#45;&gt;Node4 -->
<g id="edge4_Node000001_Node000004" class="edge">
<title>Node1&#45;&gt;Node4</title>
<g id="a_edge4_Node000001_Node000004"><a xlink:title=" ">
<path fill="none" stroke="#63b8ff" d="M329.04,-63.88C312.13,-60.42 290.11,-55.91 271.08,-52.01"/>
<polygon fill="#63b8ff" stroke="#63b8ff" points="328.34,-67.31 338.84,-65.88 329.75,-60.45 328.34,-67.31"/>
</a>
</g>
</g>
<!-- Node6 -->
<g id="Node000006" class="node">
<title>Node6</title>
<g id="a_Node000006"><a xlink:href="../../d3/df4/classchdr_1_1solvers_1_1solver_aa62632bf43d0cf6db6a9f6de5e76b0ba.html#aa62632bf43d0cf6db6a9f6de5e76b0ba" target="_top" xlink:title="Executes the solver with the provided parameters.">
<polygon fill="white" stroke="#666666" points="283.5,-17 173.5,-17 173.5,0 283.5,0 283.5,-17"/>
<text text-anchor="middle" x="228.5" y="-6.6" font-family="Helvetica,sans-Serif" font-size="8.00">chdr::solvers::solver::solve</text>
</a>
</g>
</g>
<!-- Node1&#45;&gt;Node6 -->
<g id="edge8_Node000001_Node000006" class="edge">
<title>Node1&#45;&gt;Node6</title>
<g id="a_edge8_Node000001_Node000006"><a xlink:title=" ">
<path fill="none" stroke="#63b8ff" d="M341.51,-53.93C331.47,-44.37 317.47,-32.63 303,-25.5 295.95,-22.03 288.17,-19.25 280.38,-17.03"/>
<polygon fill="#63b8ff" stroke="#63b8ff" points="339.08,-56.45 348.65,-61 344.01,-51.48 339.08,-56.45"/>
</a>
</g>
</g>
<!-- Node3&#45;&gt;Node3 -->
<g id="edge3_Node000003_Node000003" class="edge">
<title>Node3&#45;&gt;Node3</title>
<g id="a_edge3_Node000003_Node000003"><a xlink:title=" ">
<path fill="none" stroke="#63b8ff" d="M252.39,-114.19C251.36,-119.17 243.39,-123 228.5,-123 205.25,-123 198.89,-113.67 209.43,-105.19"/>
<polygon fill="#63b8ff" stroke="#63b8ff" points="255.37,-112.35 247.57,-105.19 249.2,-115.65 255.37,-112.35"/>
</a>
</g>
</g>
<!-- Node4&#45;&gt;Node2 -->
<g id="edge5_Node000004_Node000002" class="edge">
<title>Node4&#45;&gt;Node2</title>
<g id="a_edge5_Node000004_Node000002"><a xlink:title=" ">
<path fill="none" stroke="#63b8ff" d="M197.93,-56.04C164.1,-70.37 109.62,-93.47 80.28,-105.91"/>
<polygon fill="#63b8ff" stroke="#63b8ff" points="199.45,-59.19 207.3,-52.06 196.72,-52.74 199.45,-59.19"/>
</a>
</g>
</g>
<!-- Node4&#45;&gt;Node4 -->
<g id="edge6_Node000004_Node000004" class="edge">
<title>Node4&#45;&gt;Node4</title>
<g id="a_edge6_Node000004_Node000004"><a xlink:title=" ">
<path fill="none" stroke="#63b8ff" d="M252.39,-61.19C251.36,-66.17 243.39,-70 228.5,-70 205.25,-70 198.89,-60.67 209.43,-52.19"/>
<polygon fill="#63b8ff" stroke="#63b8ff" points="255.37,-59.35 247.57,-52.19 249.2,-62.65 255.37,-59.35"/>
</a>
</g>
</g>
<!-- Node5 -->
<g id="Node000005" class="node">
<title>Node5</title>
<g id="a_Node000005"><a xlink:href="../../dd/de3/classchdr_1_1mazes_1_1grid_a943b441c52cc08ef04269321f14cc1f9.html#a943b441c52cc08ef04269321f14cc1f9" target="_top" xlink:title="Provides a reference access to the element at the specified index.">
<polygon fill="white" stroke="#666666" points="118,-52 0,-52 0,-35 118,-35 118,-52"/>
<text text-anchor="middle" x="59" y="-41.6" font-family="Helvetica,sans-Serif" font-size="8.00">chdr::mazes::grid::operator[]</text>
</a>
</g>
</g>
<!-- Node4&#45;&gt;Node5 -->
<g id="edge7_Node000004_Node000005" class="edge">
<title>Node4&#45;&gt;Node5</title>
<g id="a_edge7_Node000004_Node000005"><a xlink:title=" ">
<path fill="none" stroke="#63b8ff" d="M173.76,-43.5C156.02,-43.5 136.22,-43.5 118.18,-43.5"/>
<polygon fill="#63b8ff" stroke="#63b8ff" points="173.93,-47 183.93,-43.5 173.93,-40 173.93,-47"/>
</a>
</g>
</g>
</g>
</svg>
