<?xml version="1.0" encoding="UTF-8" standalone="no"?>
<!DOCTYPE svg PUBLIC "-//W3C//DTD SVG 1.1//EN"
 "http://www.w3.org/Graphics/SVG/1.1/DTD/svg11.dtd">
<!-- Generated by graphviz version 2.43.0 (0)
 -->
<!-- Title: to_1d Pages: 1 -->
<svg width="384pt" height="131pt"
 viewBox="0.00 0.00 384.00 131.00" xmlns="http://www.w3.org/2000/svg" xmlns:xlink="http://www.w3.org/1999/xlink">
<g id="graph0" class="graph" transform="scale(1 1) rotate(0) translate(4 127)">
<title>to_1d</title>
<!-- Node1 -->
<g id="Node000001" class="node">
<title>Node1</title>
<g id="a_Node000001"><a xlink:title="Maps a multi&#45;dimensional index to a one&#45;dimensional array index.">
<polygon fill="#999999" stroke="#666666" points="376,-52 339,-52 339,-35 376,-35 376,-52"/>
<text text-anchor="middle" x="357.5" y="-41.6" font-family="Helvetica,sans-Serif" font-size="8.00">to_1d</text>
</a>
</g>
</g>
<!-- Node2 -->
<g id="Node000002" class="node">
<title>Node2</title>
<g id="a_Node000002"><a xlink:href="../../de/de1/classchdr_1_1mazes_1_1grid_3_01coord__t_00_01bool_01_4_acae1d695ad2f308980a748bce2a94fe0.html#acae1d695ad2f308980a748bce2a94fe0" target="_top" xlink:title="Retrieves the node at a specified coordinate.">
<polygon fill="white" stroke="#666666" points="303,-105 154,-105 154,-88 303,-88 303,-105"/>
<text text-anchor="middle" x="228.5" y="-94.6" font-family="Helvetica,sans-Serif" font-size="8.00">chdr::mazes::grid&lt; coord_t, bool &gt;::at</text>
</a>
</g>
</g>
<!-- Node1&#45;&gt;Node2 -->
<g id="edge1_Node000001_Node000002" class="edge">
<title>Node1&#45;&gt;Node2</title>
<g id="a_edge1_Node000001_Node000002"><a xlink:title=" ">
<path fill="none" stroke="#63b8ff" d="M337.92,-58.48C328.05,-65.77 315.42,-74.1 303,-79.5 295.07,-82.94 286.35,-85.74 277.76,-88"/>
<polygon fill="#63b8ff" stroke="#63b8ff" points="340.31,-61.05 346.11,-52.19 336.05,-55.5 340.31,-61.05"/>
</a>
</g>
</g>
<!-- Node3 -->
<g id="Node000003" class="node">
<title>Node3</title>
<g id="a_Node000003"><a xlink:href="../../dd/de3/classchdr_1_1mazes_1_1grid_a2c953e28d925a8042220b3abe9023479.html#a2c953e28d925a8042220b3abe9023479" target="_top" xlink:title="Retrieves the node at a specified coordinate.">
<polygon fill="white" stroke="#666666" points="273,-52 184,-52 184,-35 273,-35 273,-52"/>
<text text-anchor="middle" x="228.5" y="-41.6" font-family="Helvetica,sans-Serif" font-size="8.00">chdr::mazes::grid::at</text>
</a>
</g>
</g>
<!-- Node1&#45;&gt;Node3 -->
<g id="edge3_Node000001_Node000003" class="edge">
<title>Node1&#45;&gt;Node3</title>
<g id="a_edge3_Node000001_Node000003"><a xlink:title=" ">
<path fill="none" stroke="#63b8ff" d="M328.44,-43.5C312.25,-43.5 291.54,-43.5 273.25,-43.5"/>
<polygon fill="#63b8ff" stroke="#63b8ff" points="328.84,-47 338.84,-43.5 328.84,-40 328.84,-47"/>
</a>
</g>
</g>
<!-- Node5 -->
<g id="Node000005" class="node">
<title>Node5</title>
<g id="a_Node000005"><a xlink:href="../../d3/df4/classchdr_1_1solvers_1_1solver_aa62632bf43d0cf6db6a9f6de5e76b0ba.html#aa62632bf43d0cf6db6a9f6de5e76b0ba" target="_top" xlink:title="Executes the solver with the provided parameters.">
<polygon fill="white" stroke="#666666" points="283.5,-17 173.5,-17 173.5,0 283.5,0 283.5,-17"/>
<text text-anchor="middle" x="228.5" y="-6.6" font-family="Helvetica,sans-Serif" font-size="8.00">chdr::solvers::solver::solve</text>
</a>
</g>
</g>
<!-- Node1&#45;&gt;Node5 -->
<g id="edge6_Node000001_Node000005" class="edge">
<title>Node1&#45;&gt;Node5</title>
<g id="a_edge6_Node000001_Node000005"><a xlink:title=" ">
<path fill="none" stroke="#63b8ff" d="M329.12,-34.41C320.77,-31.74 311.54,-28.9 303,-26.5 291.24,-23.19 278.32,-19.92 266.64,-17.08"/>
<polygon fill="#63b8ff" stroke="#63b8ff" points="328.17,-37.78 338.76,-37.53 330.32,-31.12 328.17,-37.78"/>
</a>
</g>
</g>
<!-- Node2&#45;&gt;Node2 -->
<g id="edge2_Node000002_Node000002" class="edge">
<title>Node2&#45;&gt;Node2</title>
<g id="a_edge2_Node000002_Node000002"><a xlink:title=" ">
<path fill="none" stroke="#63b8ff" d="M252.39,-114.19C251.36,-119.17 243.39,-123 228.5,-123 205.25,-123 198.89,-113.67 209.43,-105.19"/>
<polygon fill="#63b8ff" stroke="#63b8ff" points="255.37,-112.35 247.57,-105.19 249.2,-115.65 255.37,-112.35"/>
</a>
</g>
</g>
<!-- Node3&#45;&gt;Node3 -->
<g id="edge4_Node000003_Node000003" class="edge">
<title>Node3&#45;&gt;Node3</title>
<g id="a_edge4_Node000003_Node000003"><a xlink:title=" ">
<path fill="none" stroke="#63b8ff" d="M252.39,-61.19C251.36,-66.17 243.39,-70 228.5,-70 205.25,-70 198.89,-60.67 209.43,-52.19"/>
<polygon fill="#63b8ff" stroke="#63b8ff" points="255.37,-59.35 247.57,-52.19 249.2,-62.65 255.37,-59.35"/>
</a>
</g>
</g>
<!-- Node4 -->
<g id="Node000004" class="node">
<title>Node4</title>
<g id="a_Node000004"><a xlink:href="../../dd/de3/classchdr_1_1mazes_1_1grid_a943b441c52cc08ef04269321f14cc1f9.html#a943b441c52cc08ef04269321f14cc1f9" target="_top" xlink:title="Provides a reference access to the element at the specified index.">
<polygon fill="white" stroke="#666666" points="118,-52 0,-52 0,-35 118,-35 118,-52"/>
<text text-anchor="middle" x="59" y="-41.6" font-family="Helvetica,sans-Serif" font-size="8.00">chdr::mazes::grid::operator[]</text>
</a>
</g>
</g>
<!-- Node3&#45;&gt;Node4 -->
<g id="edge5_Node000003_Node000004" class="edge">
<title>Node3&#45;&gt;Node4</title>
<g id="a_edge5_Node000003_Node000004"><a xlink:title=" ">
<path fill="none" stroke="#63b8ff" d="M173.76,-43.5C156.02,-43.5 136.22,-43.5 118.18,-43.5"/>
<polygon fill="#63b8ff" stroke="#63b8ff" points="173.93,-47 183.93,-43.5 173.93,-40 173.93,-47"/>
</a>
</g>
</g>
</g>
</svg>
