<?xml version="1.0" encoding="UTF-8" standalone="no"?>
<!DOCTYPE svg PUBLIC "-//W3C//DTD SVG 1.1//EN"
 "http://www.w3.org/Graphics/SVG/1.1/DTD/svg11.dtd">
<!-- Generated by graphviz version 2.42.4 (0)
 -->
<!-- Title: to_1d Pages: 1 -->
<svg width="463pt" height="152pt"
 viewBox="0.00 0.00 463.00 152.00" xmlns="http://www.w3.org/2000/svg" xmlns:xlink="http://www.w3.org/1999/xlink">
<g id="graph0" class="graph" transform="scale(1 1) rotate(0) translate(4 148)">
<title>to_1d</title>
<!-- Node1 -->
<g id="Node000001" class="node">
<title>Node1</title>
<g id="a_Node000001"><a xlink:title="Maps a multidimensional index to a one&#45;dimensional array index.">
<polygon fill="#999999" stroke="#666666" points="455,-79 416,-79 416,-62 455,-62 455,-79"/>
<text text-anchor="middle" x="435.5" y="-68.6" font-family="Helvetica,sans-Serif" font-size="8.00">to_1d</text>
</a>
</g>
</g>
<!-- Node2 -->
<g id="Node000002" class="node">
<title>Node2</title>
<g id="a_Node000002"><a xlink:href="../../d9/dcb/classchdr_1_1mazes_1_1graph_a5ca1351a03df5ff49f85cc4b5669cefc.html#a5ca1351a03df5ff49f85cc4b5669cefc" target="_top" xlink:title="Constructs a graph instance from a grid structure.">
<polygon fill="white" stroke="#666666" points="375.5,-144 247.5,-144 247.5,-127 375.5,-127 375.5,-144"/>
<text text-anchor="middle" x="311.5" y="-133.6" font-family="Helvetica,sans-Serif" font-size="8.00">chdr::mazes::graph::graph</text>
</a>
</g>
</g>
<!-- Node1&#45;&gt;Node2 -->
<g id="edge1_Node000001_Node000002" class="edge">
<title>Node1&#45;&gt;Node2</title>
<g id="a_edge1_Node000001_Node000002"><a xlink:title=" ">
<path fill="none" stroke="#63b8ff" d="M417.38,-86.05C407.12,-94.75 393.49,-105.26 380,-112.5 368.98,-118.41 356.15,-123.24 344.65,-126.92"/>
<polygon fill="#63b8ff" stroke="#63b8ff" points="419.9,-88.5 425.13,-79.29 415.3,-83.23 419.9,-88.5"/>
</a>
</g>
</g>
<!-- Node3 -->
<g id="Node000003" class="node">
<title>Node3</title>
<g id="a_Node000003"><a xlink:href="../../de/de1/classchdr_1_1mazes_1_1grid_3_01coord__t_00_01bool_01_4_a7d575542c2bf3cf37dfbebf1d56a7bc9.html#a7d575542c2bf3cf37dfbebf1d56a7bc9" target="_top" xlink:title="Retrieves the node at a specified coordinate.">
<polygon fill="white" stroke="#666666" points="207,-102 0,-102 0,-85 207,-85 207,-102"/>
<text text-anchor="middle" x="103.5" y="-91.6" font-family="Helvetica,sans-Serif" font-size="8.00">chdr::mazes::grid&lt; coord_t, bool &gt;::operator[]</text>
</a>
</g>
</g>
<!-- Node1&#45;&gt;Node3 -->
<g id="edge2_Node000001_Node000003" class="edge">
<title>Node1&#45;&gt;Node3</title>
<g id="a_edge2_Node000001_Node000003"><a xlink:title=" ">
<path fill="none" stroke="#63b8ff" d="M405.9,-75.85C397.58,-77.23 388.45,-78.59 380,-79.5 322.98,-85.64 259.02,-89.1 207.09,-91.04"/>
<polygon fill="#63b8ff" stroke="#63b8ff" points="406.65,-79.27 415.91,-74.11 405.45,-72.37 406.65,-79.27"/>
</a>
</g>
</g>
<!-- Node4 -->
<g id="Node000004" class="node">
<title>Node4</title>
<g id="a_Node000004"><a xlink:href="../../dd/de3/classchdr_1_1mazes_1_1grid_ad8b85d86fc073f5557471a856975a9a2.html#ad8b85d86fc073f5557471a856975a9a2" target="_top" xlink:title="Retrieves the node at a specified coordinate.">
<polygon fill="white" stroke="#666666" points="380,-52 243,-52 243,-35 380,-35 380,-52"/>
<text text-anchor="middle" x="311.5" y="-41.6" font-family="Helvetica,sans-Serif" font-size="8.00">chdr::mazes::grid::operator[]</text>
</a>
</g>
</g>
<!-- Node1&#45;&gt;Node4 -->
<g id="edge3_Node000001_Node000004" class="edge">
<title>Node1&#45;&gt;Node4</title>
<g id="a_edge3_Node000001_Node000004"><a xlink:title=" ">
<path fill="none" stroke="#63b8ff" d="M405.91,-64.17C389.52,-60.55 368.73,-55.95 350.93,-52.01"/>
<polygon fill="#63b8ff" stroke="#63b8ff" points="405.45,-67.66 415.97,-66.4 406.96,-60.82 405.45,-67.66"/>
</a>
</g>
</g>
<!-- Node7 -->
<g id="Node000007" class="node">
<title>Node7</title>
<g id="a_Node000007"><a xlink:href="../../d3/df4/classchdr_1_1solvers_1_1solver_aa62632bf43d0cf6db6a9f6de5e76b0ba.html#aa62632bf43d0cf6db6a9f6de5e76b0ba" target="_top" xlink:title="Executes the solver with the provided parameters.">
<polygon fill="white" stroke="#666666" points="375.5,-17 247.5,-17 247.5,0 375.5,0 375.5,-17"/>
<text text-anchor="middle" x="311.5" y="-6.6" font-family="Helvetica,sans-Serif" font-size="8.00">chdr::solvers::solver::solve</text>
</a>
</g>
</g>
<!-- Node1&#45;&gt;Node7 -->
<g id="edge8_Node000001_Node000007" class="edge">
<title>Node1&#45;&gt;Node7</title>
<g id="a_edge8_Node000001_Node000007"><a xlink:title=" ">
<path fill="none" stroke="#63b8ff" d="M418.73,-54.77C408.47,-45.34 394.37,-33.8 380,-26.5 372.32,-22.6 363.71,-19.48 355.28,-17.01"/>
<polygon fill="#63b8ff" stroke="#63b8ff" points="416.41,-57.39 426.06,-61.76 421.24,-52.32 416.41,-57.39"/>
</a>
</g>
</g>
<!-- Node4&#45;&gt;Node3 -->
<g id="edge4_Node000004_Node000003" class="edge">
<title>Node4&#45;&gt;Node3</title>
<g id="a_edge4_Node000004_Node000003"><a xlink:title=" ">
<path fill="none" stroke="#63b8ff" d="M265.36,-54.46C227.6,-63.62 174.5,-76.51 139.79,-84.93"/>
<polygon fill="#63b8ff" stroke="#63b8ff" points="266.2,-57.86 275.09,-52.1 264.54,-51.05 266.2,-57.86"/>
</a>
</g>
</g>
<!-- Node4&#45;&gt;Node4 -->
<g id="edge5_Node000004_Node000004" class="edge">
<title>Node4&#45;&gt;Node4</title>
<g id="a_edge5_Node000004_Node000004"><a xlink:title=" ">
<path fill="none" stroke="#63b8ff" d="M334.64,-61.19C333.64,-66.17 325.93,-70 311.5,-70 288.98,-70 282.82,-60.67 293.02,-52.19"/>
<polygon fill="#63b8ff" stroke="#63b8ff" points="337.68,-59.46 329.98,-52.19 331.47,-62.68 337.68,-59.46"/>
</a>
</g>
</g>
<!-- Node5 -->
<g id="Node000005" class="node">
<title>Node5</title>
<g id="a_Node000005"><a xlink:href="../../dd/de3/classchdr_1_1mazes_1_1grid_a0804aafbf4991cf2d51f4aba926792a3.html#a0804aafbf4991cf2d51f4aba926792a3" target="_top" xlink:title="Retrieves the node at a specified index.">
<polygon fill="white" stroke="#666666" points="172,-57 35,-57 35,-40 172,-40 172,-57"/>
<text text-anchor="middle" x="103.5" y="-46.6" font-family="Helvetica,sans-Serif" font-size="8.00">chdr::mazes::grid::operator[]</text>
</a>
</g>
</g>
<!-- Node4&#45;&gt;Node5 -->
<g id="edge6_Node000004_Node000005" class="edge">
<title>Node4&#45;&gt;Node5</title>
<g id="a_edge6_Node000004_Node000005"><a xlink:title=" ">
<path fill="none" stroke="#63b8ff" d="M232.53,-45.39C212.7,-45.87 191.55,-46.39 172.28,-46.85"/>
<polygon fill="#63b8ff" stroke="#63b8ff" points="232.85,-48.89 242.76,-45.14 232.68,-41.89 232.85,-48.89"/>
</a>
</g>
</g>
<!-- Node6 -->
<g id="Node000006" class="node">
<title>Node6</title>
<g id="a_Node000006"><a xlink:href="../../de/de1/classchdr_1_1mazes_1_1grid_3_01coord__t_00_01bool_01_4_afd69e166d5e3ad92fcc4f685b73cee3c.html#afd69e166d5e3ad92fcc4f685b73cee3c" target="_top" xlink:title="Retrieves the node at a specified index.">
<polygon fill="white" stroke="#666666" points="207,-22 0,-22 0,-5 207,-5 207,-22"/>
<text text-anchor="middle" x="103.5" y="-11.6" font-family="Helvetica,sans-Serif" font-size="8.00">chdr::mazes::grid&lt; coord_t, bool &gt;::operator[]</text>
</a>
</g>
</g>
<!-- Node4&#45;&gt;Node6 -->
<g id="edge7_Node000004_Node000006" class="edge">
<title>Node4&#45;&gt;Node6</title>
<g id="a_edge7_Node000004_Node000006"><a xlink:title=" ">
<path fill="none" stroke="#63b8ff" d="M242.03,-33.53C216.48,-29.81 187.72,-25.62 163.13,-22.04"/>
<polygon fill="#63b8ff" stroke="#63b8ff" points="241.62,-37.01 252.02,-34.98 242.63,-30.08 241.62,-37.01"/>
</a>
</g>
</g>
</g>
</svg>
