<?xml version="1.0" encoding="UTF-8" standalone="no"?>
<!DOCTYPE svg PUBLIC "-//W3C//DTD SVG 1.1//EN"
 "http://www.w3.org/Graphics/SVG/1.1/DTD/svg11.dtd">
<!-- Generated by graphviz version 2.43.0 (0)
 -->
<!-- Title: max Pages: 1 -->
<svg width="610pt" height="748pt"
 viewBox="0.00 0.00 610.00 747.83" xmlns="http://www.w3.org/2000/svg" xmlns:xlink="http://www.w3.org/1999/xlink">
<g id="graph0" class="graph" transform="scale(1 1) rotate(0) translate(4 743.83)">
<title>max</title>
<!-- Node1 -->
<g id="Node000001" class="node">
<title>Node1</title>
<g id="a_Node000001"><a xlink:title="Determines the maximum of two comparable values.">
<polygon fill="#999999" stroke="#666666" points="602,-336 568,-336 568,-319 602,-319 602,-336"/>
<text text-anchor="middle" x="585" y="-325.6" font-family="Helvetica,sans-Serif" font-size="8.00">max</text>
</a>
</g>
</g>
<!-- Node2 -->
<g id="Node000002" class="node">
<title>Node2</title>
<g id="a_Node000002"><a xlink:href="../../d3/d61/classchdr_1_1heap_a3caedb145a667c26028740417dcf32c3.html#a3caedb145a667c26028740417dcf32c3" target="_top" xlink:title="Retrieves the number of elements currently stored in the heap.">
<polygon fill="white" stroke="#666666" points="532,-336 448,-336 448,-319 532,-319 532,-336"/>
<text text-anchor="middle" x="490" y="-325.6" font-family="Helvetica,sans-Serif" font-size="8.00">chdr::heap::size</text>
</a>
</g>
</g>
<!-- Node1&#45;&gt;Node2 -->
<g id="edge1_Node000001_Node000002" class="edge">
<title>Node1&#45;&gt;Node2</title>
<g id="a_edge1_Node000001_Node000002"><a xlink:title=" ">
<path fill="none" stroke="#63b8ff" d="M557.7,-327.5C549.76,-327.5 540.85,-327.5 532.19,-327.5"/>
<polygon fill="#63b8ff" stroke="#63b8ff" points="557.8,-331 567.8,-327.5 557.8,-324 557.8,-331"/>
</a>
</g>
</g>
<!-- Node3 -->
<g id="Node000003" class="node">
<title>Node3</title>
<g id="a_Node000003"><a xlink:href="../../d3/d61/classchdr_1_1heap_adf4e3bffff56ce9f6c2ca6a36d40a725.html#adf4e3bffff56ce9f6c2ca6a36d40a725" target="_top" xlink:title="Constructs a heap from a collection of elements.">
<polygon fill="white" stroke="#666666" points="247.5,-406 158.5,-406 158.5,-389 247.5,-389 247.5,-406"/>
<text text-anchor="middle" x="203" y="-395.6" font-family="Helvetica,sans-Serif" font-size="8.00">chdr::heap::heap</text>
</a>
</g>
</g>
<!-- Node2&#45;&gt;Node3 -->
<g id="edge2_Node000002_Node000003" class="edge">
<title>Node2&#45;&gt;Node3</title>
<g id="a_edge2_Node000002_Node000003"><a xlink:title=" ">
<path fill="none" stroke="#63b8ff" d="M463.63,-340.58C448.9,-347.7 429.79,-356.12 412,-361.5 356.57,-378.26 290.33,-388.04 247.74,-393.08"/>
<polygon fill="#63b8ff" stroke="#63b8ff" points="465.21,-343.71 472.63,-336.14 462.11,-337.43 465.21,-343.71"/>
</a>
</g>
</g>
<!-- Node4 -->
<g id="Node000004" class="node">
<title>Node4</title>
<g id="a_Node000004"><a xlink:href="../../d3/d61/classchdr_1_1heap_a115a6b02da0ef70b6e9cf66736b45b27.html#a115a6b02da0ef70b6e9cf66736b45b27" target="_top" xlink:title="Constructs a heap from a collection of elements with move semantics.">
<polygon fill="white" stroke="#666666" points="247.5,-371 158.5,-371 158.5,-354 247.5,-354 247.5,-371"/>
<text text-anchor="middle" x="203" y="-360.6" font-family="Helvetica,sans-Serif" font-size="8.00">chdr::heap::heap</text>
</a>
</g>
</g>
<!-- Node2&#45;&gt;Node4 -->
<g id="edge3_Node000002_Node000004" class="edge">
<title>Node2&#45;&gt;Node4</title>
<g id="a_edge3_Node000002_Node000004"><a xlink:title=" ">
<path fill="none" stroke="#63b8ff" d="M437.95,-337.37C429.31,-338.87 420.41,-340.31 412,-341.5 355.4,-349.49 289.71,-355.6 247.54,-359.11"/>
<polygon fill="#63b8ff" stroke="#63b8ff" points="438.71,-340.79 447.94,-335.59 437.48,-333.9 438.71,-340.79"/>
</a>
</g>
</g>
<!-- Node5 -->
<g id="Node000005" class="node">
<title>Node5</title>
<g id="a_Node000005"><a xlink:href="../../d3/d61/classchdr_1_1heap_acc864476d3a1311f187c3290d0b161aa.html#acc864476d3a1311f187c3290d0b161aa" target="_top" xlink:title="Removes and returns the top element from the heap.">
<polygon fill="white" stroke="#666666" points="104,-582 0,-582 0,-565 104,-565 104,-582"/>
<text text-anchor="middle" x="52" y="-571.6" font-family="Helvetica,sans-Serif" font-size="8.00">chdr::heap::dequeue</text>
</a>
</g>
</g>
<!-- Node2&#45;&gt;Node5 -->
<g id="edge4_Node000002_Node000005" class="edge">
<title>Node2&#45;&gt;Node5</title>
<g id="a_edge4_Node000002_Node000005"><a xlink:title=" ">
<path fill="none" stroke="#63b8ff" d="M485.57,-346.07C472.14,-412.63 416.26,-639.49 266,-719.5 216.57,-745.82 188.69,-747.16 140,-719.5 85.61,-688.6 61.64,-608.75 55.01,-582.22"/>
<polygon fill="#63b8ff" stroke="#63b8ff" points="489.02,-346.67 487.49,-336.19 482.15,-345.34 489.02,-346.67"/>
</a>
</g>
</g>
<!-- Node6 -->
<g id="Node000006" class="node">
<title>Node6</title>
<g id="a_Node000006"><a xlink:href="../../d3/d61/classchdr_1_1heap_a3f6fc5de06a318920d84f3c3742db07f.html#a3f6fc5de06a318920d84f3c3742db07f" target="_top" xlink:title="Checks if the heap is empty.">
<polygon fill="white" stroke="#666666" points="403.5,-493 310.5,-493 310.5,-476 403.5,-476 403.5,-493"/>
<text text-anchor="middle" x="357" y="-482.6" font-family="Helvetica,sans-Serif" font-size="8.00">chdr::heap::empty</text>
</a>
</g>
</g>
<!-- Node2&#45;&gt;Node6 -->
<g id="edge5_Node000002_Node000006" class="edge">
<title>Node2&#45;&gt;Node6</title>
<g id="a_edge5_Node000002_Node000006"><a xlink:title=" ">
<path fill="none" stroke="#63b8ff" d="M475.01,-344.27C447.32,-377.45 386.4,-450.46 365.34,-475.71"/>
<polygon fill="#63b8ff" stroke="#63b8ff" points="477.86,-346.31 481.58,-336.39 472.49,-341.83 477.86,-346.31"/>
</a>
</g>
</g>
<!-- Node10 -->
<g id="Node000010" class="node">
<title>Node10</title>
<g id="a_Node000010"><a xlink:href="../../d3/d61/classchdr_1_1heap_a5ff8da78f62646f1ca68dae37f04ed8f.html#a5ff8da78f62646f1ca68dae37f04ed8f" target="_top" xlink:title="Removes a specified item from the heap, restoring the heap property after removal.">
<polygon fill="#fff0f0" stroke="red" points="248.5,-262 157.5,-262 157.5,-245 248.5,-245 248.5,-262"/>
<text text-anchor="middle" x="203" y="-251.6" font-family="Helvetica,sans-Serif" font-size="8.00">chdr::heap::erase</text>
</a>
</g>
</g>
<!-- Node2&#45;&gt;Node10 -->
<g id="edge20_Node000002_Node000010" class="edge">
<title>Node2&#45;&gt;Node10</title>
<g id="a_edge20_Node000002_Node000010"><a xlink:title=" ">
<path fill="none" stroke="#63b8ff" d="M472.28,-311.87C457.6,-299.17 435.05,-282.01 412,-273.5 358.4,-253.71 292.02,-250.7 248.88,-251.31"/>
<polygon fill="#63b8ff" stroke="#63b8ff" points="470.17,-314.68 479.96,-318.74 474.84,-309.47 470.17,-314.68"/>
</a>
</g>
</g>
<!-- Node13 -->
<g id="Node000013" class="node">
<title>Node13</title>
<g id="a_Node000013"><a xlink:href="../../d3/d61/classchdr_1_1heap_a274dca2a1d2c68ff3249f37b3ae410d5.html#a274dca2a1d2c68ff3249f37b3ae410d5" target="_top" xlink:title="Removes the top element from the heap and maintains the heap property.">
<polygon fill="white" stroke="#666666" points="244.5,-336 161.5,-336 161.5,-319 244.5,-319 244.5,-336"/>
<text text-anchor="middle" x="203" y="-325.6" font-family="Helvetica,sans-Serif" font-size="8.00">chdr::heap::pop</text>
</a>
</g>
</g>
<!-- Node2&#45;&gt;Node13 -->
<g id="edge22_Node000002_Node000013" class="edge">
<title>Node2&#45;&gt;Node13</title>
<g id="a_edge22_Node000002_Node000013"><a xlink:title=" ">
<path fill="none" stroke="#63b8ff" d="M437.58,-327.5C382.26,-327.5 295.42,-327.5 244.66,-327.5"/>
<polygon fill="#63b8ff" stroke="#63b8ff" points="437.86,-331 447.86,-327.5 437.86,-324 437.86,-331"/>
</a>
</g>
</g>
<!-- Node20 -->
<g id="Node000020" class="node">
<title>Node20</title>
<g id="a_Node000020"><a xlink:href="../../d3/d61/classchdr_1_1heap_a469d35276d628f97cb8c0fd8962467f5.html#a469d35276d628f97cb8c0fd8962467f5" target="_top" xlink:title="Removes an element from the heap using an iterator while maintaining the heap property.">
<polygon fill="white" stroke="#666666" points="248.5,-227 157.5,-227 157.5,-210 248.5,-210 248.5,-227"/>
<text text-anchor="middle" x="203" y="-216.6" font-family="Helvetica,sans-Serif" font-size="8.00">chdr::heap::erase</text>
</a>
</g>
</g>
<!-- Node2&#45;&gt;Node20 -->
<g id="edge21_Node000002_Node000020" class="edge">
<title>Node2&#45;&gt;Node20</title>
<g id="a_edge21_Node000002_Node000020"><a xlink:title=" ">
<path fill="none" stroke="#63b8ff" d="M477.64,-310.41C464.29,-291.84 440.33,-262.92 412,-248.5 360.3,-222.19 292.58,-216.99 248.69,-216.83"/>
<polygon fill="#63b8ff" stroke="#63b8ff" points="474.89,-312.59 483.47,-318.81 480.64,-308.6 474.89,-312.59"/>
</a>
</g>
</g>
<!-- Node21 -->
<g id="Node000021" class="node">
<title>Node21</title>
<g id="a_Node000021"><a xlink:href="../../d3/d61/classchdr_1_1heap_a9bb7e9906ed7296a33c7c08c4d0ef800.html#a9bb7e9906ed7296a33c7c08c4d0ef800" target="_top" xlink:title="Reorganises the heap by moving a specified item downward to maintain the heap property.">
<polygon fill="white" stroke="#666666" points="412,-299 302,-299 302,-282 412,-282 412,-299"/>
<text text-anchor="middle" x="357" y="-288.6" font-family="Helvetica,sans-Serif" font-size="8.00">chdr::heap::sort_down</text>
</a>
</g>
</g>
<!-- Node2&#45;&gt;Node21 -->
<g id="edge23_Node000002_Node000021" class="edge">
<title>Node2&#45;&gt;Node21</title>
<g id="a_edge23_Node000002_Node000021"><a xlink:title=" ">
<path fill="none" stroke="#63b8ff" d="M448.78,-316.14C429.26,-310.63 406.21,-304.12 388.22,-299.04"/>
<polygon fill="#63b8ff" stroke="#63b8ff" points="448.04,-319.57 458.62,-318.92 449.94,-312.83 448.04,-319.57"/>
</a>
</g>
</g>
<!-- Node22 -->
<g id="Node000022" class="node">
<title>Node22</title>
<g id="a_Node000022"><a xlink:href="../../d3/d61/classchdr_1_1heap_ab3bf20f6c00b1d3c85593ed5a5c4c3a1.html#ab3bf20f6c00b1d3c85593ed5a5c4c3a1" target="_top" xlink:title="Adjusts the position of an item in the heap by moving it upwards towards the root.">
<polygon fill="white" stroke="#666666" points="406,-157 308,-157 308,-140 406,-140 406,-157"/>
<text text-anchor="middle" x="357" y="-146.6" font-family="Helvetica,sans-Serif" font-size="8.00">chdr::heap::sort_up</text>
</a>
</g>
</g>
<!-- Node2&#45;&gt;Node22 -->
<g id="edge30_Node000002_Node000022" class="edge">
<title>Node2&#45;&gt;Node22</title>
<g id="a_edge30_Node000002_Node000022"><a xlink:title=" ">
<path fill="none" stroke="#63b8ff" d="M479.91,-309.66C466.65,-284.4 440.46,-237.31 412,-201.5 398.43,-184.43 379.75,-167.21 368.3,-157.22"/>
<polygon fill="#63b8ff" stroke="#63b8ff" points="476.92,-311.5 484.63,-318.77 483.14,-308.28 476.92,-311.5"/>
</a>
</g>
</g>
<!-- Node6&#45;&gt;Node3 -->
<g id="edge6_Node000006_Node000003" class="edge">
<title>Node6&#45;&gt;Node3</title>
<g id="a_edge6_Node000006_Node000003"><a xlink:title=" ">
<path fill="none" stroke="#63b8ff" d="M339.33,-468.62C322.18,-453.07 294.08,-429.71 266,-415.5 258.5,-411.71 250.07,-408.59 241.9,-406.08"/>
<polygon fill="#63b8ff" stroke="#63b8ff" points="337.11,-471.33 346.82,-475.55 341.86,-466.19 337.11,-471.33"/>
</a>
</g>
</g>
<!-- Node6&#45;&gt;Node4 -->
<g id="edge7_Node000006_Node000004" class="edge">
<title>Node6&#45;&gt;Node4</title>
<g id="a_edge7_Node000006_Node000004"><a xlink:title=" ">
<path fill="none" stroke="#63b8ff" d="M345.46,-466.97C330.61,-443.77 301.36,-403.16 266,-380.5 259.87,-376.57 252.85,-373.47 245.8,-371.04"/>
<polygon fill="#63b8ff" stroke="#63b8ff" points="342.66,-469.11 350.92,-475.75 348.61,-465.41 342.66,-469.11"/>
</a>
</g>
</g>
<!-- Node6&#45;&gt;Node5 -->
<g id="edge11_Node000006_Node000005" class="edge">
<title>Node6&#45;&gt;Node5</title>
<g id="a_edge11_Node000006_Node000005"><a xlink:title=" ">
<path fill="none" stroke="#63b8ff" d="M354.57,-503.4C350.19,-546.43 332.8,-651.37 266,-695.5 219.28,-726.37 189.78,-721.14 140,-695.5 91.9,-670.72 64.53,-605.67 55.96,-582.15"/>
<polygon fill="#63b8ff" stroke="#63b8ff" points="358.06,-503.71 355.46,-493.44 351.09,-503.08 358.06,-503.71"/>
</a>
</g>
</g>
<!-- Node7 -->
<g id="Node000007" class="node">
<title>Node7</title>
<g id="a_Node000007"><a xlink:href="../../d3/d61/classchdr_1_1heap_ade547b1803d6a18f179000b440e7ac01.html#ade547b1803d6a18f179000b440e7ac01" target="_top" xlink:title="Retrieves a constant reference to the last element in the heap container.">
<polygon fill="white" stroke="#666666" points="246.5,-581 159.5,-581 159.5,-564 246.5,-564 246.5,-581"/>
<text text-anchor="middle" x="203" y="-570.6" font-family="Helvetica,sans-Serif" font-size="8.00">chdr::heap::back</text>
</a>
</g>
</g>
<!-- Node6&#45;&gt;Node7 -->
<g id="edge8_Node000006_Node000007" class="edge">
<title>Node6&#45;&gt;Node7</title>
<g id="a_edge8_Node000006_Node000007"><a xlink:title=" ">
<path fill="none" stroke="#63b8ff" d="M340.01,-500.44C323.02,-516.52 294.7,-541 266,-555.5 259.23,-558.92 251.68,-561.73 244.24,-564"/>
<polygon fill="#63b8ff" stroke="#63b8ff" points="342.64,-502.77 347.39,-493.3 337.77,-497.73 342.64,-502.77"/>
</a>
</g>
</g>
<!-- Node8 -->
<g id="Node000008" class="node">
<title>Node8</title>
<g id="a_Node000008"><a xlink:href="../../d3/d61/classchdr_1_1heap_a7637c774c4326957055fa9634f92f728.html#a7637c774c4326957055fa9634f92f728" target="_top" xlink:title="Retrieves a reference to the last element in the heap container.">
<polygon fill="white" stroke="#666666" points="246.5,-546 159.5,-546 159.5,-529 246.5,-529 246.5,-546"/>
<text text-anchor="middle" x="203" y="-535.6" font-family="Helvetica,sans-Serif" font-size="8.00">chdr::heap::back</text>
</a>
</g>
</g>
<!-- Node6&#45;&gt;Node8 -->
<g id="edge9_Node000006_Node000008" class="edge">
<title>Node6&#45;&gt;Node8</title>
<g id="a_edge9_Node000006_Node000008"><a xlink:title=" ">
<path fill="none" stroke="#63b8ff" d="M326.95,-497.09C309.47,-504.42 286.67,-513.56 266,-520.5 257.01,-523.52 247.15,-526.41 238,-528.92"/>
<polygon fill="#63b8ff" stroke="#63b8ff" points="328.73,-500.14 336.57,-493.01 326,-493.69 328.73,-500.14"/>
</a>
</g>
</g>
<!-- Node9 -->
<g id="Node000009" class="node">
<title>Node9</title>
<g id="a_Node000009"><a xlink:href="../../d3/d61/classchdr_1_1heap_aec43d6ff800e89019bacb468a3ca4c2b.html#aec43d6ff800e89019bacb468a3ca4c2b" target="_top" xlink:title="Checks whether the specified item exists in the heap container.">
<polygon fill="white" stroke="#666666" points="254.5,-511 151.5,-511 151.5,-494 254.5,-494 254.5,-511"/>
<text text-anchor="middle" x="203" y="-500.6" font-family="Helvetica,sans-Serif" font-size="8.00">chdr::heap::contains</text>
</a>
</g>
</g>
<!-- Node6&#45;&gt;Node9 -->
<g id="edge10_Node000006_Node000009" class="edge">
<title>Node6&#45;&gt;Node9</title>
<g id="a_edge10_Node000006_Node000009"><a xlink:title=" ">
<path fill="none" stroke="#63b8ff" d="M300.27,-491.1C285.33,-492.87 269.27,-494.77 254.62,-496.51"/>
<polygon fill="#63b8ff" stroke="#63b8ff" points="300.88,-494.55 310.39,-489.9 300.05,-487.6 300.88,-494.55"/>
</a>
</g>
</g>
<!-- Node6&#45;&gt;Node10 -->
<g id="edge12_Node000006_Node000010" class="edge">
<title>Node6&#45;&gt;Node10</title>
<g id="a_edge12_Node000006_Node000010"><a xlink:title=" ">
<path fill="none" stroke="#63b8ff" d="M349.06,-466.25C335.95,-433.17 305.33,-361.98 266,-310.5 251.09,-290.98 229.05,-272.53 215.66,-262.16"/>
<polygon fill="#63b8ff" stroke="#63b8ff" points="345.93,-467.87 352.82,-475.92 352.46,-465.34 345.93,-467.87"/>
</a>
</g>
</g>
<!-- Node12 -->
<g id="Node000012" class="node">
<title>Node12</title>
<g id="a_Node000012"><a xlink:href="../../d3/d61/classchdr_1_1heap_a2adc794fbb932e87602833ccd8c84e67.html#a2adc794fbb932e87602833ccd8c84e67" target="_top" xlink:title="Finds the first element in the heap not less than the specified value.">
<polygon fill="white" stroke="#666666" points="265.5,-476 140.5,-476 140.5,-459 265.5,-459 265.5,-476"/>
<text text-anchor="middle" x="203" y="-465.6" font-family="Helvetica,sans-Serif" font-size="8.00">chdr::heap::lower_bounds</text>
</a>
</g>
</g>
<!-- Node6&#45;&gt;Node12 -->
<g id="edge13_Node000006_Node000012" class="edge">
<title>Node6&#45;&gt;Node12</title>
<g id="a_edge13_Node000006_Node000012"><a xlink:title=" ">
<path fill="none" stroke="#63b8ff" d="M300.25,-478.27C288.98,-477 277.06,-475.67 265.6,-474.39"/>
<polygon fill="#63b8ff" stroke="#63b8ff" points="300.07,-481.77 310.39,-479.4 300.85,-474.81 300.07,-481.77"/>
</a>
</g>
</g>
<!-- Node6&#45;&gt;Node13 -->
<g id="edge14_Node000006_Node000013" class="edge">
<title>Node6&#45;&gt;Node13</title>
<g id="a_edge14_Node000006_Node000013"><a xlink:title=" ">
<path fill="none" stroke="#63b8ff" d="M349.15,-466.23C337.02,-436.42 308.94,-377.43 266,-345.5 259.7,-340.82 252.22,-337.35 244.66,-334.78"/>
<polygon fill="#63b8ff" stroke="#63b8ff" points="345.98,-467.75 352.89,-475.79 352.5,-465.2 345.98,-467.75"/>
</a>
</g>
</g>
<!-- Node14 -->
<g id="Node000014" class="node">
<title>Node14</title>
<g id="a_Node000014"><a xlink:href="../../d3/d61/classchdr_1_1heap_a90957d02dbdc1afa0c6dc61861842f4e.html#a90957d02dbdc1afa0c6dc61861842f4e" target="_top" xlink:title="Removes the last element from the heap.">
<polygon fill="white" stroke="#666666" points="256.5,-686 149.5,-686 149.5,-669 256.5,-669 256.5,-686"/>
<text text-anchor="middle" x="203" y="-675.6" font-family="Helvetica,sans-Serif" font-size="8.00">chdr::heap::pop_back</text>
</a>
</g>
</g>
<!-- Node6&#45;&gt;Node14 -->
<g id="edge15_Node000006_Node000014" class="edge">
<title>Node6&#45;&gt;Node14</title>
<g id="a_edge15_Node000006_Node000014"><a xlink:title=" ">
<path fill="none" stroke="#63b8ff" d="M351.81,-503.07C342.7,-539.07 317.65,-618.49 266,-660.5 261.76,-663.95 256.87,-666.7 251.73,-668.9"/>
<polygon fill="#63b8ff" stroke="#63b8ff" points="355.29,-503.55 354.22,-493.01 348.49,-501.92 355.29,-503.55"/>
</a>
</g>
</g>
<!-- Node15 -->
<g id="Node000015" class="node">
<title>Node15</title>
<g id="a_Node000015"><a xlink:href="../../d3/d61/classchdr_1_1heap_a39b39a0753d600546b92d146681c30f5.html#a39b39a0753d600546b92d146681c30f5" target="_top" xlink:title="Retrieves a constant element to the top element of the heap.">
<polygon fill="white" stroke="#666666" points="243.5,-651 162.5,-651 162.5,-634 243.5,-634 243.5,-651"/>
<text text-anchor="middle" x="203" y="-640.6" font-family="Helvetica,sans-Serif" font-size="8.00">chdr::heap::top</text>
</a>
</g>
</g>
<!-- Node6&#45;&gt;Node15 -->
<g id="edge16_Node000006_Node000015" class="edge">
<title>Node6&#45;&gt;Node15</title>
<g id="a_edge16_Node000006_Node000015"><a xlink:title=" ">
<path fill="none" stroke="#63b8ff" d="M349.44,-502.67C337.6,-532.88 309.72,-593.27 266,-625.5 259.44,-630.33 251.58,-633.79 243.7,-636.27"/>
<polygon fill="#63b8ff" stroke="#63b8ff" points="352.83,-503.61 353.08,-493.02 346.28,-501.14 352.83,-503.61"/>
</a>
</g>
</g>
<!-- Node16 -->
<g id="Node000016" class="node">
<title>Node16</title>
<g id="a_Node000016"><a xlink:href="../../d3/d61/classchdr_1_1heap_a20a753362275d34a67d855ce0105fab7.html#a20a753362275d34a67d855ce0105fab7" target="_top" xlink:title="Retrieves a reference to the top element of the heap.">
<polygon fill="#fff0f0" stroke="red" points="243.5,-441 162.5,-441 162.5,-424 243.5,-424 243.5,-441"/>
<text text-anchor="middle" x="203" y="-430.6" font-family="Helvetica,sans-Serif" font-size="8.00">chdr::heap::top</text>
</a>
</g>
</g>
<!-- Node6&#45;&gt;Node16 -->
<g id="edge17_Node000006_Node000016" class="edge">
<title>Node6&#45;&gt;Node16</title>
<g id="a_edge17_Node000006_Node000016"><a xlink:title=" ">
<path fill="none" stroke="#63b8ff" d="M325.14,-472.15C307.87,-465.42 285.87,-457.13 266,-450.5 256.11,-447.2 245.23,-443.93 235.37,-441.09"/>
<polygon fill="#63b8ff" stroke="#63b8ff" points="324.12,-475.52 334.71,-475.92 326.69,-469 324.12,-475.52"/>
</a>
</g>
</g>
<!-- Node19 -->
<g id="Node000019" class="node">
<title>Node19</title>
<g id="a_Node000019"><a xlink:href="../../d3/d61/classchdr_1_1heap_ae7e6fc4739ca4f4f74e4f8384106548e.html#ae7e6fc4739ca4f4f74e4f8384106548e" target="_top" xlink:title="Finds the first element in the heap greater than the specified value.">
<polygon fill="white" stroke="#666666" points="266,-616 140,-616 140,-599 266,-599 266,-616"/>
<text text-anchor="middle" x="203" y="-605.6" font-family="Helvetica,sans-Serif" font-size="8.00">chdr::heap::upper_bounds</text>
</a>
</g>
</g>
<!-- Node6&#45;&gt;Node19 -->
<g id="edge19_Node000006_Node000019" class="edge">
<title>Node6&#45;&gt;Node19</title>
<g id="a_edge19_Node000006_Node000019"><a xlink:title=" ">
<path fill="none" stroke="#63b8ff" d="M346.01,-501.78C331.44,-525.4 302.15,-567.47 266,-590.5 260.54,-593.98 254.37,-596.75 248.1,-598.96"/>
<polygon fill="#63b8ff" stroke="#63b8ff" points="349.03,-503.54 351.17,-493.16 343.03,-499.94 349.03,-503.54"/>
</a>
</g>
</g>
<!-- Node16&#45;&gt;Node5 -->
<g id="edge18_Node000016_Node000005" class="edge">
<title>Node16&#45;&gt;Node5</title>
<g id="a_edge18_Node000016_Node000005"><a xlink:title=" ">
<path fill="none" stroke="#63b8ff" d="M152.92,-443.29C148.35,-445.3 143.96,-447.68 140,-450.5 96.11,-481.76 66.52,-542.36 56.64,-564.83"/>
<polygon fill="#63b8ff" stroke="#63b8ff" points="154.36,-446.49 162.47,-439.67 151.87,-439.95 154.36,-446.49"/>
</a>
</g>
</g>
<!-- Node21&#45;&gt;Node3 -->
<g id="edge24_Node000021_Node000003" class="edge">
<title>Node21&#45;&gt;Node3</title>
<g id="a_edge24_Node000021_Node000003"><a xlink:title=" ">
<path fill="none" stroke="#63b8ff" d="M343.79,-307.18C328.06,-327.49 298.78,-361.44 266,-380.5 260.02,-383.98 253.3,-386.77 246.54,-389"/>
<polygon fill="#63b8ff" stroke="#63b8ff" points="346.63,-309.24 349.86,-299.15 341.04,-305.02 346.63,-309.24"/>
</a>
</g>
</g>
<!-- Node21&#45;&gt;Node4 -->
<g id="edge25_Node000021_Node000004" class="edge">
<title>Node21&#45;&gt;Node4</title>
<g id="a_edge25_Node000021_Node000004"><a xlink:title=" ">
<path fill="none" stroke="#63b8ff" d="M336.01,-304.99C318.34,-317.23 291.48,-334.48 266,-345.5 258.42,-348.78 250.04,-351.58 241.96,-353.91"/>
<polygon fill="#63b8ff" stroke="#63b8ff" points="338.2,-307.73 344.36,-299.1 334.17,-302.01 338.2,-307.73"/>
</a>
</g>
</g>
<!-- Node21&#45;&gt;Node5 -->
<g id="edge26_Node000021_Node000005" class="edge">
<title>Node21&#45;&gt;Node5</title>
<g id="a_edge26_Node000021_Node000005"><a xlink:title=" ">
<path fill="none" stroke="#63b8ff" d="M303.97,-280.54C256.18,-274.51 186,-273.92 140,-310.5 56.06,-377.25 52.34,-527.28 52.78,-564.84"/>
<polygon fill="#63b8ff" stroke="#63b8ff" points="303.72,-284.04 314.11,-281.94 304.68,-277.1 303.72,-284.04"/>
</a>
</g>
</g>
<!-- Node21&#45;&gt;Node10 -->
<g id="edge27_Node000021_Node000010" class="edge">
<title>Node21&#45;&gt;Node10</title>
<g id="a_edge27_Node000021_Node000010"><a xlink:title=" ">
<path fill="none" stroke="#63b8ff" d="M310.88,-279.52C287.92,-273.93 260.42,-267.23 239.06,-262.04"/>
<polygon fill="#63b8ff" stroke="#63b8ff" points="310.2,-282.95 320.75,-281.92 311.86,-276.15 310.2,-282.95"/>
</a>
</g>
</g>
<!-- Node21&#45;&gt;Node13 -->
<g id="edge29_Node000021_Node000013" class="edge">
<title>Node21&#45;&gt;Node13</title>
<g id="a_edge29_Node000021_Node000013"><a xlink:title=" ">
<path fill="none" stroke="#63b8ff" d="M310.88,-301.48C287.92,-307.07 260.42,-313.77 239.06,-318.96"/>
<polygon fill="#63b8ff" stroke="#63b8ff" points="311.86,-304.85 320.75,-299.08 310.2,-298.05 311.86,-304.85"/>
</a>
</g>
</g>
<!-- Node21&#45;&gt;Node20 -->
<g id="edge28_Node000021_Node000020" class="edge">
<title>Node21&#45;&gt;Node20</title>
<g id="a_edge28_Node000021_Node000020"><a xlink:title=" ">
<path fill="none" stroke="#63b8ff" d="M335.63,-276.19C317.9,-264.25 291.17,-247.49 266,-236.5 257.58,-232.82 248.19,-229.66 239.32,-227.05"/>
<polygon fill="#63b8ff" stroke="#63b8ff" points="333.79,-279.17 344.02,-281.93 337.75,-273.4 333.79,-279.17"/>
</a>
</g>
</g>
<!-- Node22&#45;&gt;Node10 -->
<g id="edge32_Node000022_Node000010" class="edge">
<title>Node22&#45;&gt;Node10</title>
<g id="a_edge32_Node000022_Node000010"><a xlink:title=" ">
<path fill="none" stroke="#63b8ff" d="M343.25,-165.37C327.33,-185.28 298.22,-218.02 266,-236.5 260,-239.94 253.27,-242.72 246.51,-244.94"/>
<polygon fill="#63b8ff" stroke="#63b8ff" points="346.22,-167.26 349.61,-157.22 340.7,-162.96 346.22,-167.26"/>
</a>
</g>
</g>
<!-- Node22&#45;&gt;Node20 -->
<g id="edge33_Node000022_Node000020" class="edge">
<title>Node22&#45;&gt;Node20</title>
<g id="a_edge33_Node000022_Node000020"><a xlink:title=" ">
<path fill="none" stroke="#63b8ff" d="M334.94,-162.62C317.17,-174.06 290.74,-189.95 266,-200.5 257.44,-204.15 247.92,-207.33 238.95,-209.95"/>
<polygon fill="#63b8ff" stroke="#63b8ff" points="336.94,-165.5 343.4,-157.1 333.11,-159.64 336.94,-165.5"/>
</a>
</g>
</g>
<!-- Node23 -->
<g id="Node000023" class="node">
<title>Node23</title>
<g id="a_Node000023"><a xlink:href="../../d3/d61/classchdr_1_1heap_add55c8b8d3e3d6419e57210d3313fd09.html#add55c8b8d3e3d6419e57210d3313fd09" target="_top" xlink:title="Adds a new element to the heap container using perfect forwarding.">
<polygon fill="#fff0f0" stroke="red" points="254.5,-192 151.5,-192 151.5,-175 254.5,-175 254.5,-192"/>
<text text-anchor="middle" x="203" y="-181.6" font-family="Helvetica,sans-Serif" font-size="8.00">chdr::heap::emplace</text>
</a>
</g>
</g>
<!-- Node22&#45;&gt;Node23 -->
<g id="edge31_Node000022_Node000023" class="edge">
<title>Node22&#45;&gt;Node23</title>
<g id="a_edge31_Node000022_Node000023"><a xlink:title=" ">
<path fill="none" stroke="#63b8ff" d="M309.07,-159.31C287.2,-164.34 261.54,-170.25 241.06,-174.97"/>
<polygon fill="#63b8ff" stroke="#63b8ff" points="309.86,-162.72 318.82,-157.06 308.29,-155.9 309.86,-162.72"/>
</a>
</g>
</g>
<!-- Node25 -->
<g id="Node000025" class="node">
<title>Node25</title>
<g id="a_Node000025"><a xlink:href="../../d3/d61/classchdr_1_1heap_a5a2024fa8b956ddb73b0dff9565468f2.html#a5a2024fa8b956ddb73b0dff9565468f2" target="_top" xlink:title="Inserts a range of elements into the heap.">
<polygon fill="white" stroke="#666666" points="248.5,-157 157.5,-157 157.5,-140 248.5,-140 248.5,-157"/>
<text text-anchor="middle" x="203" y="-146.6" font-family="Helvetica,sans-Serif" font-size="8.00">chdr::heap::insert</text>
</a>
</g>
</g>
<!-- Node22&#45;&gt;Node25 -->
<g id="edge34_Node000022_Node000025" class="edge">
<title>Node22&#45;&gt;Node25</title>
<g id="a_edge34_Node000022_Node000025"><a xlink:title=" ">
<path fill="none" stroke="#63b8ff" d="M297.46,-148.5C281.26,-148.5 263.95,-148.5 248.68,-148.5"/>
<polygon fill="#63b8ff" stroke="#63b8ff" points="297.91,-152 307.91,-148.5 297.91,-145 297.91,-152"/>
</a>
</g>
</g>
<!-- Node26 -->
<g id="Node000026" class="node">
<title>Node26</title>
<g id="a_Node000026"><a xlink:href="../../d3/d61/classchdr_1_1heap_a5dfd7f9a4ad6a51dfb81d4da0f5ec261.html#a5dfd7f9a4ad6a51dfb81d4da0f5ec261" target="_top" xlink:title="Inserts an element into the heap while maintaining the heap property.">
<polygon fill="white" stroke="#666666" points="248.5,-122 157.5,-122 157.5,-105 248.5,-105 248.5,-122"/>
<text text-anchor="middle" x="203" y="-111.6" font-family="Helvetica,sans-Serif" font-size="8.00">chdr::heap::insert</text>
</a>
</g>
</g>
<!-- Node22&#45;&gt;Node26 -->
<g id="edge35_Node000022_Node000026" class="edge">
<title>Node22&#45;&gt;Node26</title>
<g id="a_edge35_Node000022_Node000026"><a xlink:title=" ">
<path fill="none" stroke="#63b8ff" d="M309.07,-137.69C287.2,-132.66 261.54,-126.75 241.06,-122.03"/>
<polygon fill="#63b8ff" stroke="#63b8ff" points="308.29,-141.1 318.82,-139.94 309.86,-134.28 308.29,-141.1"/>
</a>
</g>
</g>
<!-- Node27 -->
<g id="Node000027" class="node">
<title>Node27</title>
<g id="a_Node000027"><a xlink:href="../../d3/d61/classchdr_1_1heap_a45a566405e1e982fe89c9eab9315e0ce.html#a45a566405e1e982fe89c9eab9315e0ce" target="_top" xlink:title="Moves an element into the heap while maintaining the heap property.">
<polygon fill="white" stroke="#666666" points="248.5,-87 157.5,-87 157.5,-70 248.5,-70 248.5,-87"/>
<text text-anchor="middle" x="203" y="-76.6" font-family="Helvetica,sans-Serif" font-size="8.00">chdr::heap::insert</text>
</a>
</g>
</g>
<!-- Node22&#45;&gt;Node27 -->
<g id="edge36_Node000022_Node000027" class="edge">
<title>Node22&#45;&gt;Node27</title>
<g id="a_edge36_Node000022_Node000027"><a xlink:title=" ">
<path fill="none" stroke="#63b8ff" d="M335.33,-134.18C317.6,-122.44 291.03,-106.08 266,-95.5 258.29,-92.24 249.78,-89.43 241.59,-87.09"/>
<polygon fill="#63b8ff" stroke="#63b8ff" points="333.49,-137.16 343.74,-139.85 337.4,-131.36 333.49,-137.16"/>
</a>
</g>
</g>
<!-- Node28 -->
<g id="Node000028" class="node">
<title>Node28</title>
<g id="a_Node000028"><a xlink:href="../../d3/d61/classchdr_1_1heap_afb62bdc27151ccbc8d7d8ceb30c24d6e.html#afb62bdc27151ccbc8d7d8ceb30c24d6e" target="_top" xlink:title="Adds an item to the heap.">
<polygon fill="#fff0f0" stroke="red" points="247,-52 159,-52 159,-35 247,-35 247,-52"/>
<text text-anchor="middle" x="203" y="-41.6" font-family="Helvetica,sans-Serif" font-size="8.00">chdr::heap::push</text>
</a>
</g>
</g>
<!-- Node22&#45;&gt;Node28 -->
<g id="edge37_Node000022_Node000028" class="edge">
<title>Node22&#45;&gt;Node28</title>
<g id="a_edge37_Node000022_Node000028"><a xlink:title=" ">
<path fill="none" stroke="#63b8ff" d="M343.25,-131.63C327.33,-111.72 298.22,-78.98 266,-60.5 260,-57.06 253.27,-54.28 246.51,-52.06"/>
<polygon fill="#63b8ff" stroke="#63b8ff" points="340.7,-134.04 349.61,-139.78 346.22,-129.74 340.7,-134.04"/>
</a>
</g>
</g>
<!-- Node30 -->
<g id="Node000030" class="node">
<title>Node30</title>
<g id="a_Node000030"><a xlink:href="../../d3/d61/classchdr_1_1heap_a10d3601db17d387e5fb4e8b45c2304e0.html#a10d3601db17d387e5fb4e8b45c2304e0" target="_top" xlink:title="Adds an item to the heap using move semantics.">
<polygon fill="white" stroke="#666666" points="247,-17 159,-17 159,0 247,0 247,-17"/>
<text text-anchor="middle" x="203" y="-6.6" font-family="Helvetica,sans-Serif" font-size="8.00">chdr::heap::push</text>
</a>
</g>
</g>
<!-- Node22&#45;&gt;Node30 -->
<g id="edge38_Node000022_Node000030" class="edge">
<title>Node22&#45;&gt;Node30</title>
<g id="a_edge38_Node000022_Node000030"><a xlink:title=" ">
<path fill="none" stroke="#63b8ff" d="M347.87,-130.75C334.62,-103.84 305.8,-52.92 266,-25.5 260.3,-21.57 253.73,-18.55 247.03,-16.23"/>
<polygon fill="#63b8ff" stroke="#63b8ff" points="344.72,-132.27 352.18,-139.8 351.04,-129.26 344.72,-132.27"/>
</a>
</g>
</g>
</g>
</svg>
