<?xml version="1.0" encoding="UTF-8" standalone="no"?>
<!DOCTYPE svg PUBLIC "-//W3C//DTD SVG 1.1//EN"
 "http://www.w3.org/Graphics/SVG/1.1/DTD/svg11.dtd">
<!-- Generated by graphviz version 2.43.0 (0)
 -->
<!-- Title: clamp Pages: 1 -->
<svg width="193pt" height="60pt"
 viewBox="0.00 0.00 193.00 60.00" xmlns="http://www.w3.org/2000/svg" xmlns:xlink="http://www.w3.org/1999/xlink">
<g id="graph0" class="graph" transform="scale(1 1) rotate(0) translate(4 56)">
<title>clamp</title>
<!-- Node1 -->
<g id="Node000001" class="node">
<title>Node1</title>
<g id="a_Node000001"><a xlink:title="Constrains a value to lie within a specified range.">
<polygon fill="#999999" stroke="#666666" points="185,-34 147,-34 147,-17 185,-17 185,-34"/>
<text text-anchor="middle" x="166" y="-23.6" font-family="Helvetica,sans-Serif" font-size="8.00">clamp</text>
</a>
</g>
</g>
<!-- Node2 -->
<g id="Node000002" class="node">
<title>Node2</title>
<g id="a_Node000002"><a xlink:href="../../d9/dcb/classchdr_1_1mazes_1_1graph_a5ca1351a03df5ff49f85cc4b5669cefc.html#a5ca1351a03df5ff49f85cc4b5669cefc" target="_top" xlink:title="Constructs a graph instance from a grid structure.">
<polygon fill="white" stroke="#666666" points="111,-52 0,-52 0,-35 111,-35 111,-52"/>
<text text-anchor="middle" x="55.5" y="-41.6" font-family="Helvetica,sans-Serif" font-size="8.00">chdr::mazes::graph::graph</text>
</a>
</g>
</g>
<!-- Node1&#45;&gt;Node2 -->
<g id="edge1_Node000001_Node000002" class="edge">
<title>Node1&#45;&gt;Node2</title>
<g id="a_edge1_Node000001_Node000002"><a xlink:title=" ">
<path fill="none" stroke="#63b8ff" d="M136.5,-30.23C127.66,-31.69 117.64,-33.36 107.76,-35"/>
<polygon fill="#63b8ff" stroke="#63b8ff" points="137.3,-33.64 146.59,-28.55 136.16,-26.74 137.3,-33.64"/>
</a>
</g>
</g>
<!-- Node3 -->
<g id="Node000003" class="node">
<title>Node3</title>
<g id="a_Node000003"><a xlink:href="../../d2/dcb/structchdr_1_1utils_adb33afbaf9ed795be953475e0d6df54c.html#adb33afbaf9ed795be953475e0d6df54c" target="_top" xlink:title="Converts a duration in seconds to a formatted string representation.">
<polygon fill="white" stroke="#666666" points="79,-17 32,-17 32,0 79,0 79,-17"/>
<text text-anchor="middle" x="55.5" y="-6.6" font-family="Helvetica,sans-Serif" font-size="8.00">to_string</text>
</a>
</g>
</g>
<!-- Node1&#45;&gt;Node3 -->
<g id="edge2_Node000001_Node000003" class="edge">
<title>Node1&#45;&gt;Node3</title>
<g id="a_edge2_Node000001_Node000003"><a xlink:title=" ">
<path fill="none" stroke="#63b8ff" d="M136.69,-21.06C118.75,-18.25 95.87,-14.67 79.14,-12.05"/>
<polygon fill="#63b8ff" stroke="#63b8ff" points="136.17,-24.53 146.59,-22.62 137.26,-17.61 136.17,-24.53"/>
</a>
</g>
</g>
</g>
</svg>
