<?xml version="1.0" encoding="UTF-8" standalone="no"?>
<!DOCTYPE svg PUBLIC "-//W3C//DTD SVG 1.1//EN"
 "http://www.w3.org/Graphics/SVG/1.1/DTD/svg11.dtd">
<!-- Generated by graphviz version 2.42.4 (0)
 -->
<!-- Title: clamp Pages: 1 -->
<svg width="213pt" height="60pt"
 viewBox="0.00 0.00 213.00 60.00" xmlns="http://www.w3.org/2000/svg" xmlns:xlink="http://www.w3.org/1999/xlink">
<g id="graph0" class="graph" transform="scale(1 1) rotate(0) translate(4 56)">
<title>clamp</title>
<!-- Node1 -->
<g id="Node000001" class="node">
<title>Node1</title>
<g id="a_Node000001"><a xlink:title="Constrains a value to lie within a specified range.">
<polygon fill="#999999" stroke="#666666" points="205,-34 164,-34 164,-17 205,-17 205,-34"/>
<text text-anchor="middle" x="184.5" y="-23.6" font-family="Helvetica,sans-Serif" font-size="8.00">clamp</text>
</a>
</g>
</g>
<!-- Node2 -->
<g id="Node000002" class="node">
<title>Node2</title>
<g id="a_Node000002"><a xlink:href="../../d9/dcb/classchdr_1_1mazes_1_1graph_a5ca1351a03df5ff49f85cc4b5669cefc.html#a5ca1351a03df5ff49f85cc4b5669cefc" target="_top" xlink:title="Constructs a graph instance from a grid structure.">
<polygon fill="white" stroke="#666666" points="128,-52 0,-52 0,-35 128,-35 128,-52"/>
<text text-anchor="middle" x="64" y="-41.6" font-family="Helvetica,sans-Serif" font-size="8.00">chdr::mazes::graph::graph</text>
</a>
</g>
</g>
<!-- Node1&#45;&gt;Node2 -->
<g id="edge1_Node000001_Node000002" class="edge">
<title>Node1&#45;&gt;Node2</title>
<g id="a_edge1_Node000001_Node000002"><a xlink:title=" ">
<path fill="none" stroke="#63b8ff" d="M153.81,-30.01C143.88,-31.52 132.45,-33.25 121.18,-34.97"/>
<polygon fill="#63b8ff" stroke="#63b8ff" points="154.57,-33.43 163.93,-28.47 153.52,-26.51 154.57,-33.43"/>
</a>
</g>
</g>
<!-- Node3 -->
<g id="Node000003" class="node">
<title>Node3</title>
<g id="a_Node000003"><a xlink:href="../../d2/dcb/structchdr_1_1utils_adb33afbaf9ed795be953475e0d6df54c.html#adb33afbaf9ed795be953475e0d6df54c" target="_top" xlink:title="Converts a duration in seconds to a formatted string representation.">
<polygon fill="white" stroke="#666666" points="90,-17 38,-17 38,0 90,0 90,-17"/>
<text text-anchor="middle" x="64" y="-6.6" font-family="Helvetica,sans-Serif" font-size="8.00">to_string</text>
</a>
</g>
</g>
<!-- Node1&#45;&gt;Node3 -->
<g id="edge2_Node000001_Node000003" class="edge">
<title>Node1&#45;&gt;Node3</title>
<g id="a_edge2_Node000001_Node000003"><a xlink:title=" ">
<path fill="none" stroke="#63b8ff" d="M154.03,-21.27C134.46,-18.47 109.05,-14.82 90.39,-12.14"/>
<polygon fill="#63b8ff" stroke="#63b8ff" points="153.54,-24.74 163.93,-22.69 154.53,-17.81 153.54,-24.74"/>
</a>
</g>
</g>
</g>
</svg>
