<?xml version="1.0" encoding="UTF-8" standalone="no"?>
<!DOCTYPE svg PUBLIC "-//W3C//DTD SVG 1.1//EN"
 "http://www.w3.org/Graphics/SVG/1.1/DTD/svg11.dtd">
<!-- Generated by graphviz version 2.43.0 (0)
 -->
<!-- Title: max Pages: 1 -->
<svg width="646pt" height="726pt"
 viewBox="0.00 0.00 646.00 725.63" xmlns="http://www.w3.org/2000/svg" xmlns:xlink="http://www.w3.org/1999/xlink">
<g id="graph0" class="graph" transform="scale(1 1) rotate(0) translate(4 721.63)">
<title>max</title>
<!-- Node1 -->
<g id="Node000001" class="node">
<title>Node1</title>
<g id="a_Node000001"><a xlink:title="Determines the maximum of two comparable values.">
<polygon fill="#999999" stroke="#666666" points="638,-372 606,-372 606,-355 638,-355 638,-372"/>
<text text-anchor="middle" x="622" y="-361.6" font-family="Helvetica,sans-Serif" font-size="8.00">max</text>
</a>
</g>
</g>
<!-- Node2 -->
<g id="Node000002" class="node">
<title>Node2</title>
<g id="a_Node000002"><a xlink:href="../../d7/d3f/classchdr_1_1heterogeneous__pool_a1b4832583d79e5833eb232f1388ef99a.html#a1b4832583d79e5833eb232f1388ef99a" target="_top" xlink:title="Deallocates memory and returns it to the pool for future use.">
<polygon fill="white" stroke="#666666" points="570,-390 406,-390 406,-373 570,-373 570,-390"/>
<text text-anchor="middle" x="488" y="-379.6" font-family="Helvetica,sans-Serif" font-size="8.00">chdr::heterogeneous_pool::do_deallocate</text>
</a>
</g>
</g>
<!-- Node1&#45;&gt;Node2 -->
<g id="edge1_Node000001_Node000002" class="edge">
<title>Node1&#45;&gt;Node2</title>
<g id="a_edge1_Node000001_Node000002"><a xlink:title=" ">
<path fill="none" stroke="#63b8ff" d="M595.68,-366.95C583.05,-368.68 567.15,-370.84 551.51,-372.98"/>
<polygon fill="#63b8ff" stroke="#63b8ff" points="596.42,-370.38 605.86,-365.56 595.48,-363.45 596.42,-370.38"/>
</a>
</g>
</g>
<!-- Node3 -->
<g id="Node000003" class="node">
<title>Node3</title>
<g id="a_Node000003"><a xlink:href="../../d3/d61/classchdr_1_1heap_a3caedb145a667c26028740417dcf32c3.html#a3caedb145a667c26028740417dcf32c3" target="_top" xlink:title="Retrieves the number of elements currently present in the heap.">
<polygon fill="white" stroke="#666666" points="524.5,-355 451.5,-355 451.5,-338 524.5,-338 524.5,-355"/>
<text text-anchor="middle" x="488" y="-344.6" font-family="Helvetica,sans-Serif" font-size="8.00">chdr::heap::size</text>
</a>
</g>
</g>
<!-- Node1&#45;&gt;Node3 -->
<g id="edge2_Node000001_Node000003" class="edge">
<title>Node1&#45;&gt;Node3</title>
<g id="a_edge2_Node000001_Node000003"><a xlink:title=" ">
<path fill="none" stroke="#63b8ff" d="M595.87,-360.26C575.67,-357.66 547.05,-353.98 524.51,-351.07"/>
<polygon fill="#63b8ff" stroke="#63b8ff" points="595.49,-363.74 605.86,-361.55 596.39,-356.8 595.49,-363.74"/>
</a>
</g>
</g>
<!-- Node4 -->
<g id="Node000004" class="node">
<title>Node4</title>
<g id="a_Node000004"><a xlink:href="../../d3/d61/classchdr_1_1heap_adf4e3bffff56ce9f6c2ca6a36d40a725.html#adf4e3bffff56ce9f6c2ca6a36d40a725" target="_top" xlink:title="Constructs a heap from a collection of elements.">
<polygon fill="white" stroke="#666666" points="220.5,-406 143.5,-406 143.5,-389 220.5,-389 220.5,-406"/>
<text text-anchor="middle" x="182" y="-395.6" font-family="Helvetica,sans-Serif" font-size="8.00">chdr::heap::heap</text>
</a>
</g>
</g>
<!-- Node3&#45;&gt;Node4 -->
<g id="edge3_Node000003_Node000004" class="edge">
<title>Node3&#45;&gt;Node4</title>
<g id="a_edge3_Node000003_Node000004"><a xlink:title=" ">
<path fill="none" stroke="#63b8ff" d="M441.59,-355.93C419.95,-360.29 393.68,-365.4 370,-369.5 318.41,-378.43 258.51,-387.1 220.69,-392.37"/>
<polygon fill="#63b8ff" stroke="#63b8ff" points="442.39,-359.34 451.49,-353.92 441,-352.48 442.39,-359.34"/>
</a>
</g>
</g>
<!-- Node5 -->
<g id="Node000005" class="node">
<title>Node5</title>
<g id="a_Node000005"><a xlink:href="../../d3/d61/classchdr_1_1heap_a115a6b02da0ef70b6e9cf66736b45b27.html#a115a6b02da0ef70b6e9cf66736b45b27" target="_top" xlink:title="Constructs a heap from a collection of elements with move semantics.">
<polygon fill="white" stroke="#666666" points="220.5,-371 143.5,-371 143.5,-354 220.5,-354 220.5,-371"/>
<text text-anchor="middle" x="182" y="-360.6" font-family="Helvetica,sans-Serif" font-size="8.00">chdr::heap::heap</text>
</a>
</g>
</g>
<!-- Node3&#45;&gt;Node5 -->
<g id="edge4_Node000003_Node000005" class="edge">
<title>Node3&#45;&gt;Node5</title>
<g id="a_edge4_Node000003_Node000005"><a xlink:title=" ">
<path fill="none" stroke="#63b8ff" d="M440.87,-348.93C380.61,-352.1 276.21,-357.59 220.53,-360.52"/>
<polygon fill="#63b8ff" stroke="#63b8ff" points="441.43,-352.4 451.23,-348.38 441.06,-345.41 441.43,-352.4"/>
</a>
</g>
</g>
<!-- Node6 -->
<g id="Node000006" class="node">
<title>Node6</title>
<g id="a_Node000006"><a xlink:href="../../d3/d61/classchdr_1_1heap_aec43d6ff800e89019bacb468a3ca4c2b.html#aec43d6ff800e89019bacb468a3ca4c2b" target="_top" xlink:title="Checks whether the specified item exists in the heap container.">
<polygon fill="white" stroke="#666666" points="226.5,-690 137.5,-690 137.5,-673 226.5,-673 226.5,-690"/>
<text text-anchor="middle" x="182" y="-679.6" font-family="Helvetica,sans-Serif" font-size="8.00">chdr::heap::contains</text>
</a>
</g>
</g>
<!-- Node3&#45;&gt;Node6 -->
<g id="edge5_Node000003_Node000006" class="edge">
<title>Node3&#45;&gt;Node6</title>
<g id="a_edge5_Node000003_Node000006"><a xlink:title=" ">
<path fill="none" stroke="#63b8ff" d="M441.25,-347.5C428.5,-349.89 415.54,-354.62 406,-363.5 363.37,-403.19 396.07,-437.42 370,-489.5 326.27,-576.86 316.91,-608.3 237,-664.5 232.1,-667.95 226.46,-670.72 220.73,-672.94"/>
<polygon fill="#63b8ff" stroke="#63b8ff" points="441.96,-350.93 451.36,-346.04 440.96,-344 441.96,-350.93"/>
</a>
</g>
</g>
<!-- Node7 -->
<g id="Node000007" class="node">
<title>Node7</title>
<g id="a_Node000007"><a xlink:href="../../d3/d61/classchdr_1_1heap_acc864476d3a1311f187c3290d0b161aa.html#acc864476d3a1311f187c3290d0b161aa" target="_top" xlink:title="Removes and returns the top element from the heap.">
<polygon fill="white" stroke="#666666" points="91,-461 0,-461 0,-444 91,-444 91,-461"/>
<text text-anchor="middle" x="45.5" y="-450.6" font-family="Helvetica,sans-Serif" font-size="8.00">chdr::heap::dequeue</text>
</a>
</g>
</g>
<!-- Node3&#45;&gt;Node7 -->
<g id="edge6_Node000003_Node000007" class="edge">
<title>Node3&#45;&gt;Node7</title>
<g id="a_edge6_Node000003_Node000007"><a xlink:title=" ">
<path fill="none" stroke="#63b8ff" d="M440.95,-346.79C428.07,-349.14 415.11,-354.02 406,-363.5 339.46,-432.71 415.69,-492.06 370,-576.5 331.69,-647.31 311.97,-670.15 237,-699.5 191.48,-717.32 166.56,-728.22 127,-699.5 45.97,-640.68 44.94,-498.13 46.09,-461.3"/>
<polygon fill="#63b8ff" stroke="#63b8ff" points="441.74,-350.22 451.19,-345.41 440.81,-343.28 441.74,-350.22"/>
</a>
</g>
</g>
<!-- Node8 -->
<g id="Node000008" class="node">
<title>Node8</title>
<g id="a_Node000008"><a xlink:href="../../d3/d61/classchdr_1_1heap_a3f6fc5de06a318920d84f3c3742db07f.html#a3f6fc5de06a318920d84f3c3742db07f" target="_top" xlink:title="Determines whether the heap container is empty.">
<polygon fill="white" stroke="#666666" points="362,-480 281,-480 281,-463 362,-463 362,-480"/>
<text text-anchor="middle" x="321.5" y="-469.6" font-family="Helvetica,sans-Serif" font-size="8.00">chdr::heap::empty</text>
</a>
</g>
</g>
<!-- Node3&#45;&gt;Node8 -->
<g id="edge7_Node000003_Node000008" class="edge">
<title>Node3&#45;&gt;Node8</title>
<g id="a_edge7_Node000003_Node000008"><a xlink:title=" ">
<path fill="none" stroke="#63b8ff" d="M441.12,-349.81C428.94,-352.31 416.32,-356.52 406,-363.5 382.11,-379.66 387.56,-394.62 370,-417.5 357.23,-434.14 340.76,-452.19 330.95,-462.64"/>
<polygon fill="#63b8ff" stroke="#63b8ff" points="441.93,-353.22 451.19,-348.08 440.74,-346.32 441.93,-353.22"/>
</a>
</g>
</g>
<!-- Node11 -->
<g id="Node000011" class="node">
<title>Node11</title>
<g id="a_Node000011"><a xlink:href="../../d3/d61/classchdr_1_1heap_a5ff8da78f62646f1ca68dae37f04ed8f.html#a5ff8da78f62646f1ca68dae37f04ed8f" target="_top" xlink:title="Removes a specified item from the heap, restoring the heap property after removal.">
<polygon fill="#fff0f0" stroke="red" points="222,-262 142,-262 142,-245 222,-245 222,-262"/>
<text text-anchor="middle" x="182" y="-251.6" font-family="Helvetica,sans-Serif" font-size="8.00">chdr::heap::erase</text>
</a>
</g>
</g>
<!-- Node3&#45;&gt;Node11 -->
<g id="edge21_Node000003_Node000011" class="edge">
<title>Node3&#45;&gt;Node11</title>
<g id="a_edge21_Node000003_Node000011"><a xlink:title=" ">
<path fill="none" stroke="#63b8ff" d="M469.14,-331.42C447.31,-313.93 408.51,-285.8 370,-272.5 320.96,-255.56 260.7,-252.33 222.07,-252.32"/>
<polygon fill="#63b8ff" stroke="#63b8ff" points="466.94,-334.14 476.9,-337.76 471.37,-328.72 466.94,-334.14"/>
</a>
</g>
</g>
<!-- Node14 -->
<g id="Node000014" class="node">
<title>Node14</title>
<g id="a_Node000014"><a xlink:href="../../d3/d61/classchdr_1_1heap_a274dca2a1d2c68ff3249f37b3ae410d5.html#a274dca2a1d2c68ff3249f37b3ae410d5" target="_top" xlink:title="Removes the top element from the heap and maintains the heap property.">
<polygon fill="white" stroke="#666666" points="218.5,-336 145.5,-336 145.5,-319 218.5,-319 218.5,-336"/>
<text text-anchor="middle" x="182" y="-325.6" font-family="Helvetica,sans-Serif" font-size="8.00">chdr::heap::pop</text>
</a>
</g>
</g>
<!-- Node3&#45;&gt;Node14 -->
<g id="edge23_Node000003_Node000014" class="edge">
<title>Node3&#45;&gt;Node14</title>
<g id="a_edge23_Node000003_Node000014"><a xlink:title=" ">
<path fill="none" stroke="#63b8ff" d="M441.14,-343.63C380.22,-339.83 273.89,-333.18 218.63,-329.73"/>
<polygon fill="#63b8ff" stroke="#63b8ff" points="441.03,-347.13 451.23,-344.26 441.47,-340.15 441.03,-347.13"/>
</a>
</g>
</g>
<!-- Node20 -->
<g id="Node000020" class="node">
<title>Node20</title>
<g id="a_Node000020"><a xlink:href="../../d3/d61/classchdr_1_1heap_a469d35276d628f97cb8c0fd8962467f5.html#a469d35276d628f97cb8c0fd8962467f5" target="_top" xlink:title="Removes an element from the heap using an iterator while maintaining the heap property.">
<polygon fill="white" stroke="#666666" points="222,-227 142,-227 142,-210 222,-210 222,-227"/>
<text text-anchor="middle" x="182" y="-216.6" font-family="Helvetica,sans-Serif" font-size="8.00">chdr::heap::erase</text>
</a>
</g>
</g>
<!-- Node3&#45;&gt;Node20 -->
<g id="edge22_Node000003_Node000020" class="edge">
<title>Node3&#45;&gt;Node20</title>
<g id="a_edge22_Node000003_Node000020"><a xlink:title=" ">
<path fill="none" stroke="#63b8ff" d="M472.66,-330.36C452.2,-308.46 412.39,-269.85 370,-250.5 322.21,-228.68 261.38,-221.63 222.31,-219.41"/>
<polygon fill="#63b8ff" stroke="#63b8ff" points="470.18,-332.84 479.52,-337.86 475.35,-328.12 470.18,-332.84"/>
</a>
</g>
</g>
<!-- Node21 -->
<g id="Node000021" class="node">
<title>Node21</title>
<g id="a_Node000021"><a xlink:href="../../d3/d61/classchdr_1_1heap_a9bb7e9906ed7296a33c7c08c4d0ef800.html#a9bb7e9906ed7296a33c7c08c4d0ef800" target="_top" xlink:title="Reorganises the heap by moving a specified item downward to maintain the heap property.">
<polygon fill="white" stroke="#666666" points="370,-299 273,-299 273,-282 370,-282 370,-299"/>
<text text-anchor="middle" x="321.5" y="-288.6" font-family="Helvetica,sans-Serif" font-size="8.00">chdr::heap::sort_down</text>
</a>
</g>
</g>
<!-- Node3&#45;&gt;Node21 -->
<g id="edge24_Node000003_Node000021" class="edge">
<title>Node3&#45;&gt;Node21</title>
<g id="a_edge24_Node000003_Node000021"><a xlink:title=" ">
<path fill="none" stroke="#63b8ff" d="M452.38,-334.72C421.08,-324.06 375.72,-308.62 347.72,-299.09"/>
<polygon fill="#63b8ff" stroke="#63b8ff" points="451.42,-338.09 462.02,-337.99 453.68,-331.46 451.42,-338.09"/>
</a>
</g>
</g>
<!-- Node22 -->
<g id="Node000022" class="node">
<title>Node22</title>
<g id="a_Node000022"><a xlink:href="../../d3/d61/classchdr_1_1heap_ab3bf20f6c00b1d3c85593ed5a5c4c3a1.html#ab3bf20f6c00b1d3c85593ed5a5c4c3a1" target="_top" xlink:title="Adjusts the position of an item in the heap by moving it upwards towards the root.">
<polygon fill="white" stroke="#666666" points="364.5,-157 278.5,-157 278.5,-140 364.5,-140 364.5,-157"/>
<text text-anchor="middle" x="321.5" y="-146.6" font-family="Helvetica,sans-Serif" font-size="8.00">chdr::heap::sort_up</text>
</a>
</g>
</g>
<!-- Node3&#45;&gt;Node22 -->
<g id="edge31_Node000003_Node000022" class="edge">
<title>Node3&#45;&gt;Node22</title>
<g id="a_edge31_Node000003_Node000022"><a xlink:title=" ">
<path fill="none" stroke="#63b8ff" d="M473.97,-329.78C452.64,-302.55 408.79,-247.1 370,-201.5 356.39,-185.5 339.91,-167.38 330.37,-157.01"/>
<polygon fill="#63b8ff" stroke="#63b8ff" points="471.38,-332.15 480.29,-337.88 476.89,-327.84 471.38,-332.15"/>
</a>
</g>
</g>
<!-- Node8&#45;&gt;Node4 -->
<g id="edge8_Node000008_Node000004" class="edge">
<title>Node8&#45;&gt;Node4</title>
<g id="a_edge8_Node000008_Node000004"><a xlink:title=" ">
<path fill="none" stroke="#63b8ff" d="M299.41,-457.44C282.82,-446.66 258.92,-431.78 237,-420.5 226.76,-415.23 215.04,-410.13 205.14,-406.08"/>
<polygon fill="#63b8ff" stroke="#63b8ff" points="297.54,-460.39 307.82,-462.95 301.38,-454.54 297.54,-460.39"/>
</a>
</g>
</g>
<!-- Node8&#45;&gt;Node5 -->
<g id="edge9_Node000008_Node000005" class="edge">
<title>Node8&#45;&gt;Node5</title>
<g id="a_edge9_Node000008_Node000005"><a xlink:title=" ">
<path fill="none" stroke="#63b8ff" d="M309.23,-454.33C294.83,-433.69 268.04,-399.37 237,-379.5 231.62,-376.06 225.49,-373.26 219.34,-371.02"/>
<polygon fill="#63b8ff" stroke="#63b8ff" points="306.43,-456.43 314.94,-462.74 312.22,-452.5 306.43,-456.43"/>
</a>
</g>
</g>
<!-- Node8&#45;&gt;Node6 -->
<g id="edge12_Node000008_Node000006" class="edge">
<title>Node8&#45;&gt;Node6</title>
<g id="a_edge12_Node000008_Node000006"><a xlink:title=" ">
<path fill="none" stroke="#63b8ff" d="M312.62,-489.5C303.16,-511.1 286.86,-548.42 273,-580.5 256.89,-617.78 267.12,-637.25 237,-664.5 233.14,-667.99 228.56,-670.77 223.73,-672.98"/>
<polygon fill="#63b8ff" stroke="#63b8ff" points="315.86,-490.82 316.66,-480.25 309.45,-488.01 315.86,-490.82"/>
</a>
</g>
</g>
<!-- Node8&#45;&gt;Node7 -->
<g id="edge13_Node000008_Node000007" class="edge">
<title>Node8&#45;&gt;Node7</title>
<g id="a_edge13_Node000008_Node000007"><a xlink:title=" ">
<path fill="none" stroke="#63b8ff" d="M276.36,-460.88C263.73,-458.29 249.89,-455.87 237,-454.5 187.34,-449.23 129.98,-449.48 91.29,-450.57"/>
<polygon fill="#63b8ff" stroke="#63b8ff" points="275.69,-464.32 286.2,-462.98 277.15,-457.47 275.69,-464.32"/>
</a>
</g>
</g>
<!-- Node9 -->
<g id="Node000009" class="node">
<title>Node9</title>
<g id="a_Node000009"><a xlink:href="../../d3/d61/classchdr_1_1heap_ade547b1803d6a18f179000b440e7ac01.html#ade547b1803d6a18f179000b440e7ac01" target="_top" xlink:title="Retrieves a constant reference to the last element in the heap container.">
<polygon fill="white" stroke="#666666" points="220,-585 144,-585 144,-568 220,-568 220,-585"/>
<text text-anchor="middle" x="182" y="-574.6" font-family="Helvetica,sans-Serif" font-size="8.00">chdr::heap::back</text>
</a>
</g>
</g>
<!-- Node8&#45;&gt;Node9 -->
<g id="edge10_Node000008_Node000009" class="edge">
<title>Node8&#45;&gt;Node9</title>
<g id="a_edge10_Node000008_Node000009"><a xlink:title=" ">
<path fill="none" stroke="#63b8ff" d="M308.64,-488.48C293.97,-508.26 267.22,-540.62 237,-559.5 231.5,-562.94 225.24,-565.73 218.99,-567.99"/>
<polygon fill="#63b8ff" stroke="#63b8ff" points="311.65,-490.29 314.66,-480.13 305.97,-486.19 311.65,-490.29"/>
</a>
</g>
</g>
<!-- Node10 -->
<g id="Node000010" class="node">
<title>Node10</title>
<g id="a_Node000010"><a xlink:href="../../d3/d61/classchdr_1_1heap_a7637c774c4326957055fa9634f92f728.html#a7637c774c4326957055fa9634f92f728" target="_top" xlink:title="Retrieves a reference to the last element in the heap container.">
<polygon fill="white" stroke="#666666" points="220,-550 144,-550 144,-533 220,-533 220,-550"/>
<text text-anchor="middle" x="182" y="-539.6" font-family="Helvetica,sans-Serif" font-size="8.00">chdr::heap::back</text>
</a>
</g>
</g>
<!-- Node8&#45;&gt;Node10 -->
<g id="edge11_Node000008_Node000010" class="edge">
<title>Node8&#45;&gt;Node10</title>
<g id="a_edge11_Node000008_Node000010"><a xlink:title=" ">
<path fill="none" stroke="#63b8ff" d="M300.92,-486C284.51,-497.64 260.12,-513.75 237,-524.5 230.05,-527.73 222.32,-530.57 214.93,-532.96"/>
<polygon fill="#63b8ff" stroke="#63b8ff" points="303.1,-488.75 309.16,-480.06 299,-483.07 303.1,-488.75"/>
</a>
</g>
</g>
<!-- Node8&#45;&gt;Node11 -->
<g id="edge14_Node000008_Node000011" class="edge">
<title>Node8&#45;&gt;Node11</title>
<g id="a_edge14_Node000008_Node000011"><a xlink:title=" ">
<path fill="none" stroke="#63b8ff" d="M313.26,-453.44C300.39,-422.46 271.61,-357.82 237,-309.5 223.79,-291.05 204.66,-272.7 193.07,-262.26"/>
<polygon fill="#63b8ff" stroke="#63b8ff" points="310.11,-454.99 317.13,-462.92 316.59,-452.34 310.11,-454.99"/>
</a>
</g>
</g>
<!-- Node13 -->
<g id="Node000013" class="node">
<title>Node13</title>
<g id="a_Node000013"><a xlink:href="../../d3/d61/classchdr_1_1heap_a2adc794fbb932e87602833ccd8c84e67.html#a2adc794fbb932e87602833ccd8c84e67" target="_top" xlink:title="Finds the first element in the heap not less than the specified value.">
<polygon fill="white" stroke="#666666" points="237,-515 127,-515 127,-498 237,-498 237,-515"/>
<text text-anchor="middle" x="182" y="-504.6" font-family="Helvetica,sans-Serif" font-size="8.00">chdr::heap::lower_bounds</text>
</a>
</g>
</g>
<!-- Node8&#45;&gt;Node13 -->
<g id="edge15_Node000008_Node000013" class="edge">
<title>Node8&#45;&gt;Node13</title>
<g id="a_edge15_Node000008_Node000013"><a xlink:title=" ">
<path fill="none" stroke="#63b8ff" d="M277.01,-482.57C257.54,-487.53 234.93,-493.28 216.77,-497.91"/>
<polygon fill="#63b8ff" stroke="#63b8ff" points="278.04,-485.92 286.86,-480.06 276.31,-479.14 278.04,-485.92"/>
</a>
</g>
</g>
<!-- Node8&#45;&gt;Node14 -->
<g id="edge16_Node000008_Node000014" class="edge">
<title>Node8&#45;&gt;Node14</title>
<g id="a_edge16_Node000008_Node000014"><a xlink:title=" ">
<path fill="none" stroke="#63b8ff" d="M313.35,-453.39C301.57,-425.85 275.47,-373.57 237,-344.5 231.59,-340.41 225.17,-337.29 218.68,-334.92"/>
<polygon fill="#63b8ff" stroke="#63b8ff" points="310.24,-455.03 317.28,-462.94 316.71,-452.36 310.24,-455.03"/>
</a>
</g>
</g>
<!-- Node15 -->
<g id="Node000015" class="node">
<title>Node15</title>
<g id="a_Node000015"><a xlink:href="../../d3/d61/classchdr_1_1heap_a90957d02dbdc1afa0c6dc61861842f4e.html#a90957d02dbdc1afa0c6dc61861842f4e" target="_top" xlink:title="Removes the last element from the heap.">
<polygon fill="white" stroke="#666666" points="229,-655 135,-655 135,-638 229,-638 229,-655"/>
<text text-anchor="middle" x="182" y="-644.6" font-family="Helvetica,sans-Serif" font-size="8.00">chdr::heap::pop_back</text>
</a>
</g>
</g>
<!-- Node8&#45;&gt;Node15 -->
<g id="edge17_Node000008_Node000015" class="edge">
<title>Node8&#45;&gt;Node15</title>
<g id="a_edge17_Node000008_Node000015"><a xlink:title=" ">
<path fill="none" stroke="#63b8ff" d="M312.88,-489.92C297.12,-527.26 260.43,-609.97 237,-629.5 232.85,-632.96 227.99,-635.72 222.91,-637.92"/>
<polygon fill="#63b8ff" stroke="#63b8ff" points="316.28,-490.87 316.91,-480.3 309.82,-488.17 316.28,-490.87"/>
</a>
</g>
</g>
<!-- Node16 -->
<g id="Node000016" class="node">
<title>Node16</title>
<g id="a_Node000016"><a xlink:href="../../d3/d61/classchdr_1_1heap_a39b39a0753d600546b92d146681c30f5.html#a39b39a0753d600546b92d146681c30f5" target="_top" xlink:title="Retrieves a constant element to the top element of the heap.">
<polygon fill="white" stroke="#666666" points="217.5,-620 146.5,-620 146.5,-603 217.5,-603 217.5,-620"/>
<text text-anchor="middle" x="182" y="-609.6" font-family="Helvetica,sans-Serif" font-size="8.00">chdr::heap::top</text>
</a>
</g>
</g>
<!-- Node8&#45;&gt;Node16 -->
<g id="edge18_Node000008_Node000016" class="edge">
<title>Node8&#45;&gt;Node16</title>
<g id="a_edge18_Node000008_Node000016"><a xlink:title=" ">
<path fill="none" stroke="#63b8ff" d="M313.02,-489.42C300.95,-516.2 274.66,-566.48 237,-594.5 231.24,-598.78 224.38,-602.01 217.51,-604.42"/>
<polygon fill="#63b8ff" stroke="#63b8ff" points="316.29,-490.68 317.07,-480.11 309.87,-487.89 316.29,-490.68"/>
</a>
</g>
</g>
<!-- Node17 -->
<g id="Node000017" class="node">
<title>Node17</title>
<g id="a_Node000017"><a xlink:href="../../d3/d61/classchdr_1_1heap_a20a753362275d34a67d855ce0105fab7.html#a20a753362275d34a67d855ce0105fab7" target="_top" xlink:title="Retrieves a reference to the top element of the heap.">
<polygon fill="#fff0f0" stroke="red" points="217.5,-480 146.5,-480 146.5,-463 217.5,-463 217.5,-480"/>
<text text-anchor="middle" x="182" y="-469.6" font-family="Helvetica,sans-Serif" font-size="8.00">chdr::heap::top</text>
</a>
</g>
</g>
<!-- Node8&#45;&gt;Node17 -->
<g id="edge19_Node000008_Node000017" class="edge">
<title>Node8&#45;&gt;Node17</title>
<g id="a_edge19_Node000008_Node000017"><a xlink:title=" ">
<path fill="none" stroke="#63b8ff" d="M270.61,-471.5C253,-471.5 233.6,-471.5 217.55,-471.5"/>
<polygon fill="#63b8ff" stroke="#63b8ff" points="270.73,-475 280.73,-471.5 270.73,-468 270.73,-475"/>
</a>
</g>
</g>
<!-- Node17&#45;&gt;Node7 -->
<g id="edge20_Node000017_Node000007" class="edge">
<title>Node17&#45;&gt;Node7</title>
<g id="a_edge20_Node000017_Node000007"><a xlink:title=" ">
<path fill="none" stroke="#63b8ff" d="M136.15,-465.16C121.67,-463.12 105.64,-460.85 91.18,-458.81"/>
<polygon fill="#63b8ff" stroke="#63b8ff" points="135.97,-468.67 146.36,-466.61 136.95,-461.74 135.97,-468.67"/>
</a>
</g>
</g>
<!-- Node21&#45;&gt;Node4 -->
<g id="edge25_Node000021_Node000004" class="edge">
<title>Node21&#45;&gt;Node4</title>
<g id="a_edge25_Node000021_Node000004"><a xlink:title=" ">
<path fill="none" stroke="#63b8ff" d="M308.82,-307.32C294.19,-327.22 267.33,-360.08 237,-379.5 231.01,-383.34 224.11,-386.44 217.3,-388.92"/>
<polygon fill="#63b8ff" stroke="#63b8ff" points="311.67,-309.35 314.65,-299.18 305.98,-305.27 311.67,-309.35"/>
</a>
</g>
</g>
<!-- Node21&#45;&gt;Node5 -->
<g id="edge26_Node000021_Node000005" class="edge">
<title>Node21&#45;&gt;Node5</title>
<g id="a_edge26_Node000021_Node000005"><a xlink:title=" ">
<path fill="none" stroke="#63b8ff" d="M300.92,-305.2C284.5,-317 260.11,-333.4 237,-344.5 229.52,-348.09 221.13,-351.27 213.24,-353.91"/>
<polygon fill="#63b8ff" stroke="#63b8ff" points="303.15,-307.9 309.16,-299.17 299.02,-302.25 303.15,-307.9"/>
</a>
</g>
</g>
<!-- Node21&#45;&gt;Node7 -->
<g id="edge27_Node000021_Node000007" class="edge">
<title>Node21&#45;&gt;Node7</title>
<g id="a_edge27_Node000021_Node000007"><a xlink:title=" ">
<path fill="none" stroke="#63b8ff" d="M262.61,-282.82C221.55,-280.37 166.88,-283.49 127,-309.5 76.65,-342.34 54.61,-418.19 48.42,-443.84"/>
<polygon fill="#63b8ff" stroke="#63b8ff" points="262.52,-286.32 272.74,-283.55 263.02,-279.34 262.52,-286.32"/>
</a>
</g>
</g>
<!-- Node21&#45;&gt;Node11 -->
<g id="edge28_Node000021_Node000011" class="edge">
<title>Node21&#45;&gt;Node11</title>
<g id="a_edge28_Node000021_Node000011"><a xlink:title=" ">
<path fill="none" stroke="#63b8ff" d="M278.85,-279.29C258.24,-273.75 233.77,-267.16 214.72,-262.04"/>
<polygon fill="#63b8ff" stroke="#63b8ff" points="278.04,-282.7 288.61,-281.92 279.86,-275.94 278.04,-282.7"/>
</a>
</g>
</g>
<!-- Node21&#45;&gt;Node14 -->
<g id="edge30_Node000021_Node000014" class="edge">
<title>Node21&#45;&gt;Node14</title>
<g id="a_edge30_Node000021_Node000014"><a xlink:title=" ">
<path fill="none" stroke="#63b8ff" d="M278.85,-301.71C258.24,-307.25 233.77,-313.84 214.72,-318.96"/>
<polygon fill="#63b8ff" stroke="#63b8ff" points="279.86,-305.06 288.61,-299.08 278.04,-298.3 279.86,-305.06"/>
</a>
</g>
</g>
<!-- Node21&#45;&gt;Node20 -->
<g id="edge29_Node000021_Node000020" class="edge">
<title>Node21&#45;&gt;Node20</title>
<g id="a_edge29_Node000021_Node000020"><a xlink:title=" ">
<path fill="none" stroke="#63b8ff" d="M301.56,-275.81C285.2,-263.68 260.55,-246.69 237,-235.5 230.16,-232.25 222.56,-229.42 215.26,-227.05"/>
<polygon fill="#63b8ff" stroke="#63b8ff" points="299.65,-278.76 309.74,-281.99 303.87,-273.17 299.65,-278.76"/>
</a>
</g>
</g>
<!-- Node22&#45;&gt;Node11 -->
<g id="edge33_Node000022_Node000011" class="edge">
<title>Node22&#45;&gt;Node11</title>
<g id="a_edge33_Node000022_Node000011"><a xlink:title=" ">
<path fill="none" stroke="#63b8ff" d="M308.31,-165.49C293.51,-184.98 266.79,-216.67 237,-235.5 230.9,-239.36 223.89,-242.48 216.98,-244.97"/>
<polygon fill="#63b8ff" stroke="#63b8ff" points="311.28,-167.37 314.41,-157.25 305.65,-163.2 311.28,-167.37"/>
</a>
</g>
</g>
<!-- Node22&#45;&gt;Node20 -->
<g id="edge34_Node000022_Node000020" class="edge">
<title>Node22&#45;&gt;Node20</title>
<g id="a_edge34_Node000022_Node000020"><a xlink:title=" ">
<path fill="none" stroke="#63b8ff" d="M300.55,-162.79C284.1,-174.12 259.82,-189.77 237,-200.5 229.4,-204.07 220.89,-207.26 212.92,-209.92"/>
<polygon fill="#63b8ff" stroke="#63b8ff" points="302.64,-165.6 308.84,-157.01 298.63,-159.87 302.64,-165.6"/>
</a>
</g>
</g>
<!-- Node23 -->
<g id="Node000023" class="node">
<title>Node23</title>
<g id="a_Node000023"><a xlink:href="../../d3/d61/classchdr_1_1heap_add55c8b8d3e3d6419e57210d3313fd09.html#add55c8b8d3e3d6419e57210d3313fd09" target="_top" xlink:title="Adds a new element to the heap container using perfect forwarding.">
<polygon fill="#fff0f0" stroke="red" points="226.5,-87 137.5,-87 137.5,-70 226.5,-70 226.5,-87"/>
<text text-anchor="middle" x="182" y="-76.6" font-family="Helvetica,sans-Serif" font-size="8.00">chdr::heap::emplace</text>
</a>
</g>
</g>
<!-- Node22&#45;&gt;Node23 -->
<g id="edge32_Node000022_Node000023" class="edge">
<title>Node22&#45;&gt;Node23</title>
<g id="a_edge32_Node000022_Node000023"><a xlink:title=" ">
<path fill="none" stroke="#63b8ff" d="M300.92,-134C284.51,-122.36 260.12,-106.25 237,-95.5 230.05,-92.27 222.32,-89.43 214.93,-87.04"/>
<polygon fill="#63b8ff" stroke="#63b8ff" points="299,-136.93 309.16,-139.94 303.1,-131.25 299,-136.93"/>
</a>
</g>
</g>
<!-- Node25 -->
<g id="Node000025" class="node">
<title>Node25</title>
<g id="a_Node000025"><a xlink:href="../../d3/d61/classchdr_1_1heap_a5a2024fa8b956ddb73b0dff9565468f2.html#a5a2024fa8b956ddb73b0dff9565468f2" target="_top" xlink:title="Inserts a range of elements into the heap.">
<polygon fill="white" stroke="#666666" points="221.5,-52 142.5,-52 142.5,-35 221.5,-35 221.5,-52"/>
<text text-anchor="middle" x="182" y="-41.6" font-family="Helvetica,sans-Serif" font-size="8.00">chdr::heap::insert</text>
</a>
</g>
</g>
<!-- Node22&#45;&gt;Node25 -->
<g id="edge35_Node000022_Node000025" class="edge">
<title>Node22&#45;&gt;Node25</title>
<g id="a_edge35_Node000022_Node000025"><a xlink:title=" ">
<path fill="none" stroke="#63b8ff" d="M308.64,-131.52C293.97,-111.74 267.22,-79.38 237,-60.5 231.5,-57.06 225.24,-54.27 218.99,-52.01"/>
<polygon fill="#63b8ff" stroke="#63b8ff" points="305.97,-133.81 314.66,-139.87 311.65,-129.71 305.97,-133.81"/>
</a>
</g>
</g>
<!-- Node26 -->
<g id="Node000026" class="node">
<title>Node26</title>
<g id="a_Node000026"><a xlink:href="../../d3/d61/classchdr_1_1heap_a5dfd7f9a4ad6a51dfb81d4da0f5ec261.html#a5dfd7f9a4ad6a51dfb81d4da0f5ec261" target="_top" xlink:title="Inserts an element into the heap while maintaining the heap property.">
<polygon fill="white" stroke="#666666" points="221.5,-17 142.5,-17 142.5,0 221.5,0 221.5,-17"/>
<text text-anchor="middle" x="182" y="-6.6" font-family="Helvetica,sans-Serif" font-size="8.00">chdr::heap::insert</text>
</a>
</g>
</g>
<!-- Node22&#45;&gt;Node26 -->
<g id="edge36_Node000022_Node000026" class="edge">
<title>Node22&#45;&gt;Node26</title>
<g id="a_edge36_Node000022_Node000026"><a xlink:title=" ">
<path fill="none" stroke="#63b8ff" d="M313.02,-130.58C300.95,-103.8 274.66,-53.52 237,-25.5 232.35,-22.04 226.97,-19.27 221.45,-17.06"/>
<polygon fill="#63b8ff" stroke="#63b8ff" points="309.87,-132.11 317.07,-139.89 316.29,-129.32 309.87,-132.11"/>
</a>
</g>
</g>
<!-- Node27 -->
<g id="Node000027" class="node">
<title>Node27</title>
<g id="a_Node000027"><a xlink:href="../../d3/d61/classchdr_1_1heap_a45a566405e1e982fe89c9eab9315e0ce.html#a45a566405e1e982fe89c9eab9315e0ce" target="_top" xlink:title="Moves an element into the heap while maintaining the heap property.">
<polygon fill="white" stroke="#666666" points="221.5,-192 142.5,-192 142.5,-175 221.5,-175 221.5,-192"/>
<text text-anchor="middle" x="182" y="-181.6" font-family="Helvetica,sans-Serif" font-size="8.00">chdr::heap::insert</text>
</a>
</g>
</g>
<!-- Node22&#45;&gt;Node27 -->
<g id="edge37_Node000022_Node000027" class="edge">
<title>Node22&#45;&gt;Node27</title>
<g id="a_edge37_Node000022_Node000027"><a xlink:title=" ">
<path fill="none" stroke="#63b8ff" d="M277.01,-159.57C257.54,-164.53 234.93,-170.28 216.77,-174.91"/>
<polygon fill="#63b8ff" stroke="#63b8ff" points="278.04,-162.92 286.86,-157.06 276.31,-156.14 278.04,-162.92"/>
</a>
</g>
</g>
<!-- Node28 -->
<g id="Node000028" class="node">
<title>Node28</title>
<g id="a_Node000028"><a xlink:href="../../d3/d61/classchdr_1_1heap_afb62bdc27151ccbc8d7d8ceb30c24d6e.html#afb62bdc27151ccbc8d7d8ceb30c24d6e" target="_top" xlink:title="Adds an item to the heap.">
<polygon fill="#fff0f0" stroke="red" points="220.5,-157 143.5,-157 143.5,-140 220.5,-140 220.5,-157"/>
<text text-anchor="middle" x="182" y="-146.6" font-family="Helvetica,sans-Serif" font-size="8.00">chdr::heap::push</text>
</a>
</g>
</g>
<!-- Node22&#45;&gt;Node28 -->
<g id="edge38_Node000022_Node000028" class="edge">
<title>Node22&#45;&gt;Node28</title>
<g id="a_edge38_Node000022_Node000028"><a xlink:title=" ">
<path fill="none" stroke="#63b8ff" d="M268.28,-148.5C252.39,-148.5 235.26,-148.5 220.54,-148.5"/>
<polygon fill="#63b8ff" stroke="#63b8ff" points="268.5,-152 278.5,-148.5 268.5,-145 268.5,-152"/>
</a>
</g>
</g>
<!-- Node30 -->
<g id="Node000030" class="node">
<title>Node30</title>
<g id="a_Node000030"><a xlink:href="../../d3/d61/classchdr_1_1heap_a10d3601db17d387e5fb4e8b45c2304e0.html#a10d3601db17d387e5fb4e8b45c2304e0" target="_top" xlink:title="Adds an item to the heap using move semantics.">
<polygon fill="white" stroke="#666666" points="220.5,-122 143.5,-122 143.5,-105 220.5,-105 220.5,-122"/>
<text text-anchor="middle" x="182" y="-111.6" font-family="Helvetica,sans-Serif" font-size="8.00">chdr::heap::push</text>
</a>
</g>
</g>
<!-- Node22&#45;&gt;Node30 -->
<g id="edge39_Node000022_Node000030" class="edge">
<title>Node22&#45;&gt;Node30</title>
<g id="a_edge39_Node000022_Node000030"><a xlink:title=" ">
<path fill="none" stroke="#63b8ff" d="M277.01,-137.43C257.54,-132.47 234.93,-126.72 216.77,-122.09"/>
<polygon fill="#63b8ff" stroke="#63b8ff" points="276.31,-140.86 286.86,-139.94 278.04,-134.08 276.31,-140.86"/>
</a>
</g>
</g>
</g>
</svg>
