<?xml version="1.0" encoding="UTF-8" standalone="no"?>
<!DOCTYPE svg PUBLIC "-//W3C//DTD SVG 1.1//EN"
 "http://www.w3.org/Graphics/SVG/1.1/DTD/svg11.dtd">
<!-- Generated by graphviz version 2.43.0 (0)
 -->
<!-- Title: min Pages: 1 -->
<svg width="189pt" height="60pt"
 viewBox="0.00 0.00 189.00 60.00" xmlns="http://www.w3.org/2000/svg" xmlns:xlink="http://www.w3.org/1999/xlink">
<g id="graph0" class="graph" transform="scale(1 1) rotate(0) translate(4 56)">
<title>min</title>
<!-- Node1 -->
<g id="Node000001" class="node">
<title>Node1</title>
<g id="a_Node000001"><a xlink:title="Returns the smaller of two values.">
<polygon fill="#999999" stroke="#666666" points="181,-34 152,-34 152,-17 181,-17 181,-34"/>
<text text-anchor="middle" x="166.5" y="-23.6" font-family="Helvetica,sans-Serif" font-size="8.00">min</text>
</a>
</g>
</g>
<!-- Node2 -->
<g id="Node000002" class="node">
<title>Node2</title>
<g id="a_Node000002"><a xlink:href="../../d3/d61/classchdr_1_1heap_ad902f3d62fc2c60c9bd9627517da1a5e.html#ad902f3d62fc2c60c9bd9627517da1a5e" target="_top" xlink:title="Constructs a heap container with a specified initial capacity and memory resource.">
<polygon fill="white" stroke="#666666" points="96.5,-52 19.5,-52 19.5,-35 96.5,-35 96.5,-52"/>
<text text-anchor="middle" x="58" y="-41.6" font-family="Helvetica,sans-Serif" font-size="8.00">chdr::heap::heap</text>
</a>
</g>
</g>
<!-- Node1&#45;&gt;Node2 -->
<g id="edge1_Node000001_Node000002" class="edge">
<title>Node1&#45;&gt;Node2</title>
<g id="a_edge1_Node000001_Node000002"><a xlink:title=" ">
<path fill="none" stroke="#63b8ff" d="M141.43,-29.57C128.26,-31.79 111.63,-34.6 96.77,-37.12"/>
<polygon fill="#63b8ff" stroke="#63b8ff" points="142.3,-32.97 151.58,-27.85 141.13,-26.07 142.3,-32.97"/>
</a>
</g>
</g>
<!-- Node3 -->
<g id="Node000003" class="node">
<title>Node3</title>
<g id="a_Node000003"><a xlink:href="../../d6/db9/classchdr_1_1existence__set_a30c34264336dae664d5b7942e3f16337.html#a30c34264336dae664d5b7942e3f16337" target="_top" xlink:title="Allocates additional capacity to accommodate the hash, ensuring an increase in storage is within the ...">
<polygon fill="white" stroke="#666666" points="116,-17 0,-17 0,0 116,0 116,-17"/>
<text text-anchor="middle" x="58" y="-6.6" font-family="Helvetica,sans-Serif" font-size="8.00">chdr::existence_set::allocate</text>
</a>
</g>
</g>
<!-- Node1&#45;&gt;Node3 -->
<g id="edge2_Node000001_Node000003" class="edge">
<title>Node1&#45;&gt;Node3</title>
<g id="a_edge2_Node000001_Node000003"><a xlink:title=" ">
<path fill="none" stroke="#63b8ff" d="M141.51,-21.67C132.84,-20.29 122.67,-18.66 112.49,-17.04"/>
<polygon fill="#63b8ff" stroke="#63b8ff" points="141.15,-25.16 151.58,-23.28 142.25,-18.24 141.15,-25.16"/>
</a>
</g>
</g>
</g>
</svg>
