<?xml version="1.0" encoding="UTF-8" standalone="no"?>
<!DOCTYPE svg PUBLIC "-//W3C//DTD SVG 1.1//EN"
 "http://www.w3.org/Graphics/SVG/1.1/DTD/svg11.dtd">
<!-- Generated by graphviz version 2.43.0 (0)
 -->
<!-- Title: abs Pages: 1 -->
<svg width="409pt" height="165pt"
 viewBox="0.00 0.00 409.00 165.00" xmlns="http://www.w3.org/2000/svg" xmlns:xlink="http://www.w3.org/1999/xlink">
<g id="graph0" class="graph" transform="scale(1 1) rotate(0) translate(4 161)">
<title>abs</title>
<!-- Node1 -->
<g id="Node000001" class="node">
<title>Node1</title>
<g id="a_Node000001"><a xlink:title="Computes the absolute value of a given arithmetic type.">
<polygon fill="#999999" stroke="#666666" points="401,-87 372,-87 372,-70 401,-70 401,-87"/>
<text text-anchor="middle" x="386.5" y="-76.6" font-family="Helvetica,sans-Serif" font-size="8.00">abs</text>
</a>
</g>
</g>
<!-- Node2 -->
<g id="Node000002" class="node">
<title>Node2</title>
<g id="a_Node000002"><a xlink:href="../../de/d17/group__Heuristics_ga697263d117f4f386b673e87854c02114.html#ga697263d117f4f386b673e87854c02114" target="_top" xlink:title="Computes the Canberra distance between two nodes.">
<polygon fill="white" stroke="#666666" points="327,-157 187,-157 187,-140 327,-140 327,-157"/>
<text text-anchor="middle" x="257" y="-146.6" font-family="Helvetica,sans-Serif" font-size="8.00">chdr::heuristics::canberra_distance</text>
</a>
</g>
</g>
<!-- Node1&#45;&gt;Node2 -->
<g id="edge1_Node000001_Node000002" class="edge">
<title>Node1&#45;&gt;Node2</title>
<g id="a_edge1_Node000001_Node000002"><a xlink:title=" ">
<path fill="none" stroke="#63b8ff" d="M374.01,-95.45C365.04,-107.36 351.52,-122.67 336,-131.5 329.86,-134.99 323.06,-137.77 316.13,-139.98"/>
<polygon fill="#63b8ff" stroke="#63b8ff" points="376.96,-97.34 379.94,-87.18 371.27,-93.27 376.96,-97.34"/>
</a>
</g>
</g>
<!-- Node3 -->
<g id="Node000003" class="node">
<title>Node3</title>
<g id="a_Node000003"><a xlink:href="../../de/d17/group__Heuristics_ga04c87d0bd2d9fd23e93ab7eada84f72c.html#ga04c87d0bd2d9fd23e93ab7eada84f72c" target="_top" xlink:title="Computes the Chebyshev distance between two nodes.">
<polygon fill="white" stroke="#666666" points="330,-122 184,-122 184,-105 330,-105 330,-122"/>
<text text-anchor="middle" x="257" y="-111.6" font-family="Helvetica,sans-Serif" font-size="8.00">chdr::heuristics::chebyshev_distance</text>
</a>
</g>
</g>
<!-- Node1&#45;&gt;Node3 -->
<g id="edge2_Node000001_Node000003" class="edge">
<title>Node1&#45;&gt;Node3</title>
<g id="a_edge2_Node000001_Node000003"><a xlink:title=" ">
<path fill="none" stroke="#63b8ff" d="M362.43,-87.62C354.17,-90.69 344.74,-93.97 336,-96.5 325.08,-99.66 313.16,-102.54 301.99,-104.99"/>
<polygon fill="#63b8ff" stroke="#63b8ff" points="363.7,-90.88 371.8,-84.05 361.2,-84.34 363.7,-90.88"/>
</a>
</g>
</g>
<!-- Node4 -->
<g id="Node000004" class="node">
<title>Node4</title>
<g id="a_Node000004"><a xlink:href="../../de/d17/group__Heuristics_ga0ae5cd4c8261c2e6b92393ed5e4fb789.html#ga0ae5cd4c8261c2e6b92393ed5e4fb789" target="_top" xlink:title="Calculate the Manhattan distance between two nodes.">
<polygon fill="white" stroke="#666666" points="330,-87 184,-87 184,-70 330,-70 330,-87"/>
<text text-anchor="middle" x="257" y="-76.6" font-family="Helvetica,sans-Serif" font-size="8.00">chdr::heuristics::manhattan_distance</text>
</a>
</g>
</g>
<!-- Node1&#45;&gt;Node4 -->
<g id="edge3_Node000001_Node000004" class="edge">
<title>Node1&#45;&gt;Node4</title>
<g id="a_edge3_Node000001_Node000004"><a xlink:title=" ">
<path fill="none" stroke="#63b8ff" d="M361.72,-78.5C352.59,-78.5 341.62,-78.5 330.28,-78.5"/>
<polygon fill="#63b8ff" stroke="#63b8ff" points="361.86,-82 371.86,-78.5 361.86,-75 361.86,-82"/>
</a>
</g>
</g>
<!-- Node5 -->
<g id="Node000005" class="node">
<title>Node5</title>
<g id="a_Node000005"><a xlink:href="../../de/d17/group__Heuristics_ga2fe90d2468d08f5dc0157ff297b921ab.html#ga2fe90d2468d08f5dc0157ff297b921ab" target="_top" xlink:title="Computes the squared Euclidean distance between two nodes.">
<polygon fill="white" stroke="#666666" points="336,-52 178,-52 178,-35 336,-35 336,-52"/>
<text text-anchor="middle" x="257" y="-41.6" font-family="Helvetica,sans-Serif" font-size="8.00">chdr::heuristics::sqr_euclidean_distance</text>
</a>
</g>
</g>
<!-- Node1&#45;&gt;Node5 -->
<g id="edge4_Node000001_Node000005" class="edge">
<title>Node1&#45;&gt;Node5</title>
<g id="a_edge4_Node000001_Node000005"><a xlink:title=" ">
<path fill="none" stroke="#63b8ff" d="M362.1,-69.91C353.9,-67.04 344.6,-63.96 336,-61.5 323.98,-58.06 310.76,-54.81 298.69,-52.05"/>
<polygon fill="#63b8ff" stroke="#63b8ff" points="361.16,-73.29 371.75,-73.35 363.51,-66.69 361.16,-73.29"/>
</a>
</g>
</g>
<!-- Node7 -->
<g id="Node000007" class="node">
<title>Node7</title>
<g id="a_Node000007"><a xlink:href="../../d2/dcb/structchdr_1_1utils_acad2a572d66e0496dbb846b093aea3a6.html#acad2a572d66e0496dbb846b093aea3a6" target="_top" xlink:title="Converts a duration in seconds to a formatted string representation.">
<polygon fill="white" stroke="#666666" points="280.5,-17 233.5,-17 233.5,0 280.5,0 280.5,-17"/>
<text text-anchor="middle" x="257" y="-6.6" font-family="Helvetica,sans-Serif" font-size="8.00">to_string</text>
</a>
</g>
</g>
<!-- Node1&#45;&gt;Node7 -->
<g id="edge6_Node000001_Node000007" class="edge">
<title>Node1&#45;&gt;Node7</title>
<g id="a_edge6_Node000001_Node000007"><a xlink:title=" ">
<path fill="none" stroke="#63b8ff" d="M373.6,-61.53C364.59,-49.94 351.18,-35.16 336,-26.5 318.98,-16.79 297.05,-12.32 280.77,-10.26"/>
<polygon fill="#63b8ff" stroke="#63b8ff" points="370.83,-63.67 379.6,-69.62 376.46,-59.51 370.83,-63.67"/>
</a>
</g>
</g>
<!-- Node6 -->
<g id="Node000006" class="node">
<title>Node6</title>
<g id="a_Node000006"><a xlink:href="../../de/d17/group__Heuristics_ga9af3a430ef8b7efb6fec1dc3069a2e16.html#ga9af3a430ef8b7efb6fec1dc3069a2e16" target="_top" xlink:title="Computes the Euclidean distance between two nodes.">
<polygon fill="white" stroke="#666666" points="142,-52 0,-52 0,-35 142,-35 142,-52"/>
<text text-anchor="middle" x="71" y="-41.6" font-family="Helvetica,sans-Serif" font-size="8.00">chdr::heuristics::euclidean_distance</text>
</a>
</g>
</g>
<!-- Node5&#45;&gt;Node6 -->
<g id="edge5_Node000005_Node000006" class="edge">
<title>Node5&#45;&gt;Node6</title>
<g id="a_edge5_Node000005_Node000006"><a xlink:title=" ">
<path fill="none" stroke="#63b8ff" d="M167.91,-43.5C159.31,-43.5 150.66,-43.5 142.27,-43.5"/>
<polygon fill="#63b8ff" stroke="#63b8ff" points="167.97,-47 177.97,-43.5 167.97,-40 167.97,-47"/>
</a>
</g>
</g>
</g>
</svg>
