<?xml version="1.0" encoding="UTF-8" standalone="no"?>
<!DOCTYPE svg PUBLIC "-//W3C//DTD SVG 1.1//EN"
 "http://www.w3.org/Graphics/SVG/1.1/DTD/svg11.dtd">
<!-- Generated by graphviz version 2.43.0 (0)
 -->
<!-- Title: to_nd Pages: 1 -->
<svg width="279pt" height="60pt"
 viewBox="0.00 0.00 279.00 60.00" xmlns="http://www.w3.org/2000/svg" xmlns:xlink="http://www.w3.org/1999/xlink">
<g id="graph0" class="graph" transform="scale(1 1) rotate(0) translate(4 56)">
<title>to_nd</title>
<!-- Node1 -->
<g id="Node000001" class="node">
<title>Node1</title>
<g id="a_Node000001"><a xlink:title="Maps a one&#45;dimensional index to a multidimensional coordinate representation.">
<polygon fill="#999999" stroke="#666666" points="271,-34 234,-34 234,-17 271,-17 271,-34"/>
<text text-anchor="middle" x="252.5" y="-23.6" font-family="Helvetica,sans-Serif" font-size="8.00">to_nd</text>
</a>
</g>
</g>
<!-- Node2 -->
<g id="Node000002" class="node">
<title>Node2</title>
<g id="a_Node000002"><a xlink:href="../../dd/de3/classchdr_1_1mazes_1_1grid_ad242ff0ed9416b32cc9de01ef6ea09cf.html#ad242ff0ed9416b32cc9de01ef6ea09cf" target="_top" xlink:title="Retrieves the neighbours of a node within the grid.">
<polygon fill="white" stroke="#666666" points="168,-52 30,-52 30,-35 168,-35 168,-52"/>
<text text-anchor="middle" x="99" y="-41.6" font-family="Helvetica,sans-Serif" font-size="8.00">chdr::mazes::grid::get_neighbours</text>
</a>
</g>
</g>
<!-- Node1&#45;&gt;Node2 -->
<g id="edge1_Node000001_Node000002" class="edge">
<title>Node1&#45;&gt;Node2</title>
<g id="a_edge1_Node000001_Node000002"><a xlink:title=" ">
<path fill="none" stroke="#63b8ff" d="M223.82,-28.79C208.2,-30.64 187.94,-33.05 168.34,-35.38"/>
<polygon fill="#63b8ff" stroke="#63b8ff" points="224.31,-32.26 233.82,-27.6 223.48,-25.3 224.31,-32.26"/>
</a>
</g>
</g>
<!-- Node3 -->
<g id="Node000003" class="node">
<title>Node3</title>
<g id="a_Node000003"><a xlink:href="../../de/de1/classchdr_1_1mazes_1_1grid_3_01coord__t_00_01bool_01_4_ad242ff0ed9416b32cc9de01ef6ea09cf.html#ad242ff0ed9416b32cc9de01ef6ea09cf" target="_top" xlink:title="Retrieves the neighbours of a node within the grid.">
<polygon fill="white" stroke="#666666" points="198,-17 0,-17 0,0 198,0 198,-17"/>
<text text-anchor="middle" x="99" y="-6.6" font-family="Helvetica,sans-Serif" font-size="8.00">chdr::mazes::grid&lt; coord_t, bool &gt;::get_neighbours</text>
</a>
</g>
</g>
<!-- Node1&#45;&gt;Node3 -->
<g id="edge2_Node000001_Node000003" class="edge">
<title>Node1&#45;&gt;Node3</title>
<g id="a_edge2_Node000001_Node000003"><a xlink:title=" ">
<path fill="none" stroke="#63b8ff" d="M223.75,-22.39C210.18,-20.86 193.11,-18.95 176.02,-17.03"/>
<polygon fill="#63b8ff" stroke="#63b8ff" points="223.5,-25.88 233.82,-23.52 224.28,-18.92 223.5,-25.88"/>
</a>
</g>
</g>
</g>
</svg>
