<?xml version="1.0" encoding="UTF-8" standalone="no"?>
<!DOCTYPE svg PUBLIC "-//W3C//DTD SVG 1.1//EN"
 "http://www.w3.org/Graphics/SVG/1.1/DTD/svg11.dtd">
<!-- Generated by graphviz version 2.43.0 (0)
 -->
<!-- Title: to_1d Pages: 1 -->
<svg width="290pt" height="166pt"
 viewBox="0.00 0.00 290.00 166.00" xmlns="http://www.w3.org/2000/svg" xmlns:xlink="http://www.w3.org/1999/xlink">
<g id="graph0" class="graph" transform="scale(1 1) rotate(0) translate(4 162)">
<title>to_1d</title>
<!-- Node1 -->
<g id="Node000001" class="node">
<title>Node1</title>
<g id="a_Node000001"><a xlink:title="Maps a multidimensional index to a one&#45;dimensional array index.">
<polygon fill="#999999" stroke="#666666" points="282,-78 243,-78 243,-61 282,-61 282,-78"/>
<text text-anchor="middle" x="262.5" y="-67.6" font-family="Helvetica,sans-Serif" font-size="8.00">to_1d</text>
</a>
</g>
</g>
<!-- Node2 -->
<g id="Node000002" class="node">
<title>Node2</title>
<g id="a_Node000002"><a xlink:href="../../d9/dcb/classchdr_1_1mazes_1_1graph_a5ca1351a03df5ff49f85cc4b5669cefc.html#a5ca1351a03df5ff49f85cc4b5669cefc" target="_top" xlink:title="Constructs a graph instance from a grid structure.">
<polygon fill="white" stroke="#666666" points="167.5,-158 39.5,-158 39.5,-141 167.5,-141 167.5,-158"/>
<text text-anchor="middle" x="103.5" y="-147.6" font-family="Helvetica,sans-Serif" font-size="8.00">chdr::mazes::graph::graph</text>
</a>
</g>
</g>
<!-- Node1&#45;&gt;Node2 -->
<g id="edge1_Node000001_Node000002" class="edge">
<title>Node1&#45;&gt;Node2</title>
<g id="a_edge1_Node000001_Node000002"><a xlink:title=" ">
<path fill="none" stroke="#63b8ff" d="M251.43,-86.76C241.91,-101.4 226.25,-121.71 207,-132.5 195.04,-139.2 181.15,-143.43 167.53,-146.05"/>
<polygon fill="#63b8ff" stroke="#63b8ff" points="254.49,-88.45 256.77,-78.1 248.54,-84.77 254.49,-88.45"/>
</a>
</g>
</g>
<!-- Node3 -->
<g id="Node000003" class="node">
<title>Node3</title>
<g id="a_Node000003"><a xlink:href="../../de/de1/classchdr_1_1mazes_1_1grid_3_01coord__t_00_01bool_01_4_a7d575542c2bf3cf37dfbebf1d56a7bc9.html#a7d575542c2bf3cf37dfbebf1d56a7bc9" target="_top" xlink:title="Retrieves the node at a specified coordinate.">
<polygon fill="white" stroke="#666666" points="207,-105 0,-105 0,-88 207,-88 207,-105"/>
<text text-anchor="middle" x="103.5" y="-94.6" font-family="Helvetica,sans-Serif" font-size="8.00">chdr::mazes::grid&lt; coord_t, bool &gt;::operator[]</text>
</a>
</g>
</g>
<!-- Node1&#45;&gt;Node3 -->
<g id="edge2_Node000001_Node000003" class="edge">
<title>Node1&#45;&gt;Node3</title>
<g id="a_edge2_Node000001_Node000003"><a xlink:title=" ">
<path fill="none" stroke="#63b8ff" d="M232.83,-74.85C224.51,-76.38 215.4,-78.03 207,-79.5 190.74,-82.34 173.01,-85.32 156.94,-87.98"/>
<polygon fill="#63b8ff" stroke="#63b8ff" points="233.65,-78.26 242.85,-73 232.38,-71.38 233.65,-78.26"/>
</a>
</g>
</g>
<!-- Node4 -->
<g id="Node000004" class="node">
<title>Node4</title>
<g id="a_Node000004"><a xlink:href="../../dd/de3/classchdr_1_1mazes_1_1grid_ad8b85d86fc073f5557471a856975a9a2.html#ad8b85d86fc073f5557471a856975a9a2" target="_top" xlink:title="Retrieves the node at a specified coordinate.">
<polygon fill="white" stroke="#666666" points="172,-52 35,-52 35,-35 172,-35 172,-52"/>
<text text-anchor="middle" x="103.5" y="-41.6" font-family="Helvetica,sans-Serif" font-size="8.00">chdr::mazes::grid::operator[]</text>
</a>
</g>
</g>
<!-- Node1&#45;&gt;Node4 -->
<g id="edge4_Node000001_Node000004" class="edge">
<title>Node1&#45;&gt;Node4</title>
<g id="a_edge4_Node000001_Node000004"><a xlink:title=" ">
<path fill="none" stroke="#63b8ff" d="M232.8,-64.75C211.39,-61.2 181.55,-56.26 156.03,-52.03"/>
<polygon fill="#63b8ff" stroke="#63b8ff" points="232.44,-68.23 242.87,-66.42 233.58,-61.33 232.44,-68.23"/>
</a>
</g>
</g>
<!-- Node5 -->
<g id="Node000005" class="node">
<title>Node5</title>
<g id="a_Node000005"><a xlink:href="../../d3/df4/classchdr_1_1solvers_1_1solver_aa62632bf43d0cf6db6a9f6de5e76b0ba.html#aa62632bf43d0cf6db6a9f6de5e76b0ba" target="_top" xlink:title="Executes the solver with the provided parameters.">
<polygon fill="white" stroke="#666666" points="167.5,-17 39.5,-17 39.5,0 167.5,0 167.5,-17"/>
<text text-anchor="middle" x="103.5" y="-6.6" font-family="Helvetica,sans-Serif" font-size="8.00">chdr::solvers::solver::solve</text>
</a>
</g>
</g>
<!-- Node1&#45;&gt;Node5 -->
<g id="edge6_Node000001_Node000005" class="edge">
<title>Node1&#45;&gt;Node5</title>
<g id="a_edge6_Node000001_Node000005"><a xlink:title=" ">
<path fill="none" stroke="#63b8ff" d="M245.88,-53.7C235.68,-44.33 221.58,-33.03 207,-26.5 194.8,-21.04 181.08,-17.23 167.75,-14.57"/>
<polygon fill="#63b8ff" stroke="#63b8ff" points="243.52,-56.29 253.16,-60.68 248.36,-51.24 243.52,-56.29"/>
</a>
</g>
</g>
<!-- Node3&#45;&gt;Node3 -->
<g id="edge3_Node000003_Node000003" class="edge">
<title>Node3&#45;&gt;Node3</title>
<g id="a_edge3_Node000003_Node000003"><a xlink:title=" ">
<path fill="none" stroke="#63b8ff" d="M133.11,-113.45C132.65,-118.79 122.78,-123 103.5,-123 74.8,-123 66.95,-113.67 79.96,-105.19"/>
<polygon fill="#63b8ff" stroke="#63b8ff" points="135.78,-111.18 127.04,-105.19 130.14,-115.32 135.78,-111.18"/>
</a>
</g>
</g>
<!-- Node4&#45;&gt;Node4 -->
<g id="edge5_Node000004_Node000004" class="edge">
<title>Node4&#45;&gt;Node4</title>
<g id="a_edge5_Node000004_Node000004"><a xlink:title=" ">
<path fill="none" stroke="#63b8ff" d="M133.11,-60.45C132.65,-65.79 122.78,-70 103.5,-70 74.8,-70 66.95,-60.67 79.96,-52.19"/>
<polygon fill="#63b8ff" stroke="#63b8ff" points="135.78,-58.18 127.04,-52.19 130.14,-62.32 135.78,-58.18"/>
</a>
</g>
</g>
</g>
</svg>
