<?xml version="1.0" encoding="UTF-8" standalone="no"?>
<!DOCTYPE svg PUBLIC "-//W3C//DTD SVG 1.1//EN"
 "http://www.w3.org/Graphics/SVG/1.1/DTD/svg11.dtd">
<!-- Generated by graphviz version 2.43.0 (0)
 -->
<!-- Title: max Pages: 1 -->
<svg width="609pt" height="729pt"
 viewBox="0.00 0.00 609.00 728.86" xmlns="http://www.w3.org/2000/svg" xmlns:xlink="http://www.w3.org/1999/xlink">
<g id="graph0" class="graph" transform="scale(1 1) rotate(0) translate(4 724.86)">
<title>max</title>
<!-- Node1 -->
<g id="Node000001" class="node">
<title>Node1</title>
<g id="a_Node000001"><a xlink:title="Determines the maximum of two comparable values.">
<polygon fill="#999999" stroke="#666666" points="601,-336 567,-336 567,-319 601,-319 601,-336"/>
<text text-anchor="middle" x="584" y="-325.6" font-family="Helvetica,sans-Serif" font-size="8.00">max</text>
</a>
</g>
</g>
<!-- Node2 -->
<g id="Node000002" class="node">
<title>Node2</title>
<g id="a_Node000002"><a xlink:href="../../d3/d61/classchdr_1_1heap_a3caedb145a667c26028740417dcf32c3.html#a3caedb145a667c26028740417dcf32c3" target="_top" xlink:title="Retrieves the number of elements currently stored in the heap.">
<polygon fill="white" stroke="#666666" points="531,-336 447,-336 447,-319 531,-319 531,-336"/>
<text text-anchor="middle" x="489" y="-325.6" font-family="Helvetica,sans-Serif" font-size="8.00">chdr::heap::size</text>
</a>
</g>
</g>
<!-- Node1&#45;&gt;Node2 -->
<g id="edge1_Node000001_Node000002" class="edge">
<title>Node1&#45;&gt;Node2</title>
<g id="a_edge1_Node000001_Node000002"><a xlink:title=" ">
<path fill="none" stroke="#63b8ff" d="M556.7,-327.5C548.76,-327.5 539.85,-327.5 531.19,-327.5"/>
<polygon fill="#63b8ff" stroke="#63b8ff" points="556.8,-331 566.8,-327.5 556.8,-324 556.8,-331"/>
</a>
</g>
</g>
<!-- Node3 -->
<g id="Node000003" class="node">
<title>Node3</title>
<g id="a_Node000003"><a xlink:href="../../d3/d61/classchdr_1_1heap_adf4e3bffff56ce9f6c2ca6a36d40a725.html#adf4e3bffff56ce9f6c2ca6a36d40a725" target="_top" xlink:title="Constructs a heap from a collection of elements.">
<polygon fill="white" stroke="#666666" points="247,-406 158,-406 158,-389 247,-389 247,-406"/>
<text text-anchor="middle" x="202.5" y="-395.6" font-family="Helvetica,sans-Serif" font-size="8.00">chdr::heap::heap</text>
</a>
</g>
</g>
<!-- Node2&#45;&gt;Node3 -->
<g id="edge2_Node000002_Node000003" class="edge">
<title>Node2&#45;&gt;Node3</title>
<g id="a_edge2_Node000002_Node000003"><a xlink:title=" ">
<path fill="none" stroke="#63b8ff" d="M462.63,-340.58C447.9,-347.7 428.78,-356.12 411,-361.5 355.71,-378.23 289.63,-388.02 247.13,-393.07"/>
<polygon fill="#63b8ff" stroke="#63b8ff" points="464.21,-343.7 471.62,-336.14 461.11,-337.43 464.21,-343.7"/>
</a>
</g>
</g>
<!-- Node4 -->
<g id="Node000004" class="node">
<title>Node4</title>
<g id="a_Node000004"><a xlink:href="../../d3/d61/classchdr_1_1heap_a115a6b02da0ef70b6e9cf66736b45b27.html#a115a6b02da0ef70b6e9cf66736b45b27" target="_top" xlink:title="Constructs a heap from a collection of elements with move semantics.">
<polygon fill="white" stroke="#666666" points="247,-371 158,-371 158,-354 247,-354 247,-371"/>
<text text-anchor="middle" x="202.5" y="-360.6" font-family="Helvetica,sans-Serif" font-size="8.00">chdr::heap::heap</text>
</a>
</g>
</g>
<!-- Node2&#45;&gt;Node4 -->
<g id="edge3_Node000002_Node000004" class="edge">
<title>Node2&#45;&gt;Node4</title>
<g id="a_edge3_Node000002_Node000004"><a xlink:title=" ">
<path fill="none" stroke="#63b8ff" d="M436.95,-337.37C428.31,-338.87 419.41,-340.31 411,-341.5 354.71,-349.45 289.42,-355.55 247.34,-359.08"/>
<polygon fill="#63b8ff" stroke="#63b8ff" points="437.71,-340.79 446.94,-335.59 436.48,-333.9 437.71,-340.79"/>
</a>
</g>
</g>
<!-- Node5 -->
<g id="Node000005" class="node">
<title>Node5</title>
<g id="a_Node000005"><a xlink:href="../../d3/d61/classchdr_1_1heap_acc864476d3a1311f187c3290d0b161aa.html#acc864476d3a1311f187c3290d0b161aa" target="_top" xlink:title="Removes and returns the top element from the heap.">
<polygon fill="white" stroke="#666666" points="104,-512 0,-512 0,-495 104,-495 104,-512"/>
<text text-anchor="middle" x="52" y="-501.6" font-family="Helvetica,sans-Serif" font-size="8.00">chdr::heap::dequeue</text>
</a>
</g>
</g>
<!-- Node2&#45;&gt;Node5 -->
<g id="edge4_Node000002_Node000005" class="edge">
<title>Node2&#45;&gt;Node5</title>
<g id="a_edge4_Node000002_Node000005"><a xlink:title=" ">
<path fill="none" stroke="#63b8ff" d="M484.01,-345.9C468.97,-409.94 409.14,-623.35 265,-699.5 215.88,-725.45 186.58,-729.78 140,-699.5 71.96,-655.26 56.71,-544.23 53.68,-512.25"/>
<polygon fill="#63b8ff" stroke="#63b8ff" points="487.44,-346.56 486.24,-336.04 480.62,-345.02 487.44,-346.56"/>
</a>
</g>
</g>
<!-- Node6 -->
<g id="Node000006" class="node">
<title>Node6</title>
<g id="a_Node000006"><a xlink:href="../../d3/d61/classchdr_1_1heap_a3f6fc5de06a318920d84f3c3742db07f.html#a3f6fc5de06a318920d84f3c3742db07f" target="_top" xlink:title="Checks if the heap is empty.">
<polygon fill="white" stroke="#666666" points="402.5,-476 309.5,-476 309.5,-459 402.5,-459 402.5,-476"/>
<text text-anchor="middle" x="356" y="-465.6" font-family="Helvetica,sans-Serif" font-size="8.00">chdr::heap::empty</text>
</a>
</g>
</g>
<!-- Node2&#45;&gt;Node6 -->
<g id="edge5_Node000002_Node000006" class="edge">
<title>Node2&#45;&gt;Node6</title>
<g id="a_edge5_Node000002_Node000006"><a xlink:title=" ">
<path fill="none" stroke="#63b8ff" d="M474.64,-344.26C459.71,-362.72 434.52,-393.04 411,-417.5 396.3,-432.79 377.96,-449.27 366.88,-458.97"/>
<polygon fill="#63b8ff" stroke="#63b8ff" points="477.56,-346.21 481.1,-336.23 472.11,-341.83 477.56,-346.21"/>
</a>
</g>
</g>
<!-- Node10 -->
<g id="Node000010" class="node">
<title>Node10</title>
<g id="a_Node000010"><a xlink:href="../../d3/d61/classchdr_1_1heap_a5ff8da78f62646f1ca68dae37f04ed8f.html#a5ff8da78f62646f1ca68dae37f04ed8f" target="_top" xlink:title="Removes a specified item from the heap, restoring the heap property after removal.">
<polygon fill="#fff0f0" stroke="red" points="248,-262 157,-262 157,-245 248,-245 248,-262"/>
<text text-anchor="middle" x="202.5" y="-251.6" font-family="Helvetica,sans-Serif" font-size="8.00">chdr::heap::erase</text>
</a>
</g>
</g>
<!-- Node2&#45;&gt;Node10 -->
<g id="edge19_Node000002_Node000010" class="edge">
<title>Node2&#45;&gt;Node10</title>
<g id="a_edge19_Node000002_Node000010"><a xlink:title=" ">
<path fill="none" stroke="#63b8ff" d="M471.28,-311.88C456.6,-299.17 434.05,-282.01 411,-273.5 357.53,-253.75 291.31,-250.73 248.27,-251.33"/>
<polygon fill="#63b8ff" stroke="#63b8ff" points="469.17,-314.68 478.96,-318.74 473.84,-309.47 469.17,-314.68"/>
</a>
</g>
</g>
<!-- Node13 -->
<g id="Node000013" class="node">
<title>Node13</title>
<g id="a_Node000013"><a xlink:href="../../d3/d61/classchdr_1_1heap_a274dca2a1d2c68ff3249f37b3ae410d5.html#a274dca2a1d2c68ff3249f37b3ae410d5" target="_top" xlink:title="Removes the top element from the heap and maintains the heap property.">
<polygon fill="white" stroke="#666666" points="244,-336 161,-336 161,-319 244,-319 244,-336"/>
<text text-anchor="middle" x="202.5" y="-325.6" font-family="Helvetica,sans-Serif" font-size="8.00">chdr::heap::pop</text>
</a>
</g>
</g>
<!-- Node2&#45;&gt;Node13 -->
<g id="edge21_Node000002_Node000013" class="edge">
<title>Node2&#45;&gt;Node13</title>
<g id="a_edge21_Node000002_Node000013"><a xlink:title=" ">
<path fill="none" stroke="#63b8ff" d="M436.67,-327.5C381.45,-327.5 294.76,-327.5 244.09,-327.5"/>
<polygon fill="#63b8ff" stroke="#63b8ff" points="436.94,-331 446.94,-327.5 436.94,-324 436.94,-331"/>
</a>
</g>
</g>
<!-- Node19 -->
<g id="Node000019" class="node">
<title>Node19</title>
<g id="a_Node000019"><a xlink:href="../../d3/d61/classchdr_1_1heap_a469d35276d628f97cb8c0fd8962467f5.html#a469d35276d628f97cb8c0fd8962467f5" target="_top" xlink:title="Removes an element from the heap using an iterator while maintaining the heap property.">
<polygon fill="white" stroke="#666666" points="248,-227 157,-227 157,-210 248,-210 248,-227"/>
<text text-anchor="middle" x="202.5" y="-216.6" font-family="Helvetica,sans-Serif" font-size="8.00">chdr::heap::erase</text>
</a>
</g>
</g>
<!-- Node2&#45;&gt;Node19 -->
<g id="edge20_Node000002_Node000019" class="edge">
<title>Node2&#45;&gt;Node19</title>
<g id="a_edge20_Node000002_Node000019"><a xlink:title=" ">
<path fill="none" stroke="#63b8ff" d="M476.64,-310.41C463.29,-291.85 439.33,-262.92 411,-248.5 359.42,-222.24 291.87,-217.03 248.08,-216.85"/>
<polygon fill="#63b8ff" stroke="#63b8ff" points="473.89,-312.59 482.46,-318.81 479.64,-308.6 473.89,-312.59"/>
</a>
</g>
</g>
<!-- Node20 -->
<g id="Node000020" class="node">
<title>Node20</title>
<g id="a_Node000020"><a xlink:href="../../d3/d61/classchdr_1_1heap_a9bb7e9906ed7296a33c7c08c4d0ef800.html#a9bb7e9906ed7296a33c7c08c4d0ef800" target="_top" xlink:title="Reorganises the heap by moving a specified item downward to maintain the heap property.">
<polygon fill="white" stroke="#666666" points="411,-299 301,-299 301,-282 411,-282 411,-299"/>
<text text-anchor="middle" x="356" y="-288.6" font-family="Helvetica,sans-Serif" font-size="8.00">chdr::heap::sort_down</text>
</a>
</g>
</g>
<!-- Node2&#45;&gt;Node20 -->
<g id="edge22_Node000002_Node000020" class="edge">
<title>Node2&#45;&gt;Node20</title>
<g id="a_edge22_Node000002_Node000020"><a xlink:title=" ">
<path fill="none" stroke="#63b8ff" d="M447.78,-316.14C428.26,-310.63 405.21,-304.12 387.22,-299.04"/>
<polygon fill="#63b8ff" stroke="#63b8ff" points="447.04,-319.57 457.62,-318.92 448.94,-312.83 447.04,-319.57"/>
</a>
</g>
</g>
<!-- Node21 -->
<g id="Node000021" class="node">
<title>Node21</title>
<g id="a_Node000021"><a xlink:href="../../d3/d61/classchdr_1_1heap_ab3bf20f6c00b1d3c85593ed5a5c4c3a1.html#ab3bf20f6c00b1d3c85593ed5a5c4c3a1" target="_top" xlink:title="Adjusts the position of an item in the heap by moving it upwards towards the root.">
<polygon fill="white" stroke="#666666" points="405,-157 307,-157 307,-140 405,-140 405,-157"/>
<text text-anchor="middle" x="356" y="-146.6" font-family="Helvetica,sans-Serif" font-size="8.00">chdr::heap::sort_up</text>
</a>
</g>
</g>
<!-- Node2&#45;&gt;Node21 -->
<g id="edge29_Node000002_Node000021" class="edge">
<title>Node2&#45;&gt;Node21</title>
<g id="a_edge29_Node000002_Node000021"><a xlink:title=" ">
<path fill="none" stroke="#63b8ff" d="M478.91,-309.66C465.65,-284.4 439.46,-237.31 411,-201.5 397.43,-184.43 378.75,-167.21 367.3,-157.22"/>
<polygon fill="#63b8ff" stroke="#63b8ff" points="475.92,-311.5 483.63,-318.77 482.14,-308.28 475.92,-311.5"/>
</a>
</g>
</g>
<!-- Node6&#45;&gt;Node3 -->
<g id="edge6_Node000006_Node000003" class="edge">
<title>Node6&#45;&gt;Node3</title>
<g id="a_edge6_Node000006_Node000003"><a xlink:title=" ">
<path fill="none" stroke="#63b8ff" d="M333.94,-453.39C316.16,-441.96 289.72,-426.08 265,-415.5 256.51,-411.87 247.06,-408.7 238.17,-406.07"/>
<polygon fill="#63b8ff" stroke="#63b8ff" points="332.1,-456.37 342.39,-458.91 335.93,-450.51 332.1,-456.37"/>
</a>
</g>
</g>
<!-- Node6&#45;&gt;Node4 -->
<g id="edge7_Node000006_Node000004" class="edge">
<title>Node6&#45;&gt;Node4</title>
<g id="a_edge7_Node000006_Node000004"><a xlink:title=" ">
<path fill="none" stroke="#63b8ff" d="M342.16,-450.92C326.14,-431.33 296.93,-399.06 265,-380.5 258.27,-376.59 250.62,-373.47 243.06,-371"/>
<polygon fill="#63b8ff" stroke="#63b8ff" points="339.58,-453.3 348.55,-458.93 345.05,-448.93 339.58,-453.3"/>
</a>
</g>
</g>
<!-- Node6&#45;&gt;Node5 -->
<g id="edge11_Node000006_Node000005" class="edge">
<title>Node6&#45;&gt;Node5</title>
<g id="a_edge11_Node000006_Node000005"><a xlink:title=" ">
<path fill="none" stroke="#63b8ff" d="M343.88,-484.62C328.92,-505.92 300.08,-541.2 265,-555.5 213.55,-576.47 193.55,-570.28 140,-555.5 109.3,-547.02 78.52,-524.54 63.12,-512.09"/>
<polygon fill="#63b8ff" stroke="#63b8ff" points="346.88,-486.45 349.59,-476.2 341.08,-482.52 346.88,-486.45"/>
</a>
</g>
</g>
<!-- Node7 -->
<g id="Node000007" class="node">
<title>Node7</title>
<g id="a_Node000007"><a xlink:href="../../d3/d61/classchdr_1_1heap_ade547b1803d6a18f179000b440e7ac01.html#ade547b1803d6a18f179000b440e7ac01" target="_top" xlink:title="Retrieves a constant reference to the last element in the heap container.">
<polygon fill="white" stroke="#666666" points="246,-546 159,-546 159,-529 246,-529 246,-546"/>
<text text-anchor="middle" x="202.5" y="-535.6" font-family="Helvetica,sans-Serif" font-size="8.00">chdr::heap::back</text>
</a>
</g>
</g>
<!-- Node6&#45;&gt;Node7 -->
<g id="edge8_Node000006_Node000007" class="edge">
<title>Node6&#45;&gt;Node7</title>
<g id="a_edge8_Node000006_Node000007"><a xlink:title=" ">
<path fill="none" stroke="#63b8ff" d="M334.32,-481.8C316.59,-493.54 290.02,-509.89 265,-520.5 257.25,-523.79 248.68,-526.62 240.46,-528.98"/>
<polygon fill="#63b8ff" stroke="#63b8ff" points="336.39,-484.63 342.73,-476.14 332.48,-478.82 336.39,-484.63"/>
</a>
</g>
</g>
<!-- Node8 -->
<g id="Node000008" class="node">
<title>Node8</title>
<g id="a_Node000008"><a xlink:href="../../d3/d61/classchdr_1_1heap_a7637c774c4326957055fa9634f92f728.html#a7637c774c4326957055fa9634f92f728" target="_top" xlink:title="Retrieves a reference to the last element in the heap container.">
<polygon fill="white" stroke="#666666" points="246,-511 159,-511 159,-494 246,-494 246,-511"/>
<text text-anchor="middle" x="202.5" y="-500.6" font-family="Helvetica,sans-Serif" font-size="8.00">chdr::heap::back</text>
</a>
</g>
</g>
<!-- Node6&#45;&gt;Node8 -->
<g id="edge9_Node000006_Node000008" class="edge">
<title>Node6&#45;&gt;Node8</title>
<g id="a_edge9_Node000006_Node000008"><a xlink:title=" ">
<path fill="none" stroke="#63b8ff" d="M307.93,-478.38C286.19,-483.4 260.76,-489.27 240.44,-493.97"/>
<polygon fill="#63b8ff" stroke="#63b8ff" points="308.98,-481.72 317.94,-476.06 307.41,-474.9 308.98,-481.72"/>
</a>
</g>
</g>
<!-- Node9 -->
<g id="Node000009" class="node">
<title>Node9</title>
<g id="a_Node000009"><a xlink:href="../../d3/d61/classchdr_1_1heap_aec43d6ff800e89019bacb468a3ca4c2b.html#aec43d6ff800e89019bacb468a3ca4c2b" target="_top" xlink:title="Checks whether the specified item exists in the heap container.">
<polygon fill="white" stroke="#666666" points="254,-476 151,-476 151,-459 254,-459 254,-476"/>
<text text-anchor="middle" x="202.5" y="-465.6" font-family="Helvetica,sans-Serif" font-size="8.00">chdr::heap::contains</text>
</a>
</g>
</g>
<!-- Node6&#45;&gt;Node9 -->
<g id="edge10_Node000006_Node000009" class="edge">
<title>Node6&#45;&gt;Node9</title>
<g id="a_edge10_Node000006_Node000009"><a xlink:title=" ">
<path fill="none" stroke="#63b8ff" d="M298.73,-467.5C284.14,-467.5 268.52,-467.5 254.23,-467.5"/>
<polygon fill="#63b8ff" stroke="#63b8ff" points="299.13,-471 309.13,-467.5 299.13,-464 299.13,-471"/>
</a>
</g>
</g>
<!-- Node6&#45;&gt;Node10 -->
<g id="edge12_Node000006_Node000010" class="edge">
<title>Node6&#45;&gt;Node10</title>
<g id="a_edge12_Node000006_Node000010"><a xlink:title=" ">
<path fill="none" stroke="#63b8ff" d="M346.87,-449.43C332.72,-419.03 301.56,-356.47 265,-310.5 249.78,-291.36 228.05,-272.79 214.91,-262.29"/>
<polygon fill="#63b8ff" stroke="#63b8ff" points="343.8,-451.13 351.15,-458.76 350.16,-448.21 343.8,-451.13"/>
</a>
</g>
</g>
<!-- Node12 -->
<g id="Node000012" class="node">
<title>Node12</title>
<g id="a_Node000012"><a xlink:href="../../d3/d61/classchdr_1_1heap_a2adc794fbb932e87602833ccd8c84e67.html#a2adc794fbb932e87602833ccd8c84e67" target="_top" xlink:title="Finds the first element in the heap not less than the specified value.">
<polygon fill="white" stroke="#666666" points="265,-690 140,-690 140,-673 265,-673 265,-690"/>
<text text-anchor="middle" x="202.5" y="-679.6" font-family="Helvetica,sans-Serif" font-size="8.00">chdr::heap::lower_bounds</text>
</a>
</g>
</g>
<!-- Node6&#45;&gt;Node12 -->
<g id="edge13_Node000006_Node000012" class="edge">
<title>Node6&#45;&gt;Node12</title>
<g id="a_edge13_Node000006_Node000012"><a xlink:title=" ">
<path fill="none" stroke="#63b8ff" d="M351.9,-486.11C344.4,-525.22 321.51,-616.32 265,-664.5 260.95,-667.95 256.26,-670.7 251.31,-672.9"/>
<polygon fill="#63b8ff" stroke="#63b8ff" points="355.37,-486.6 353.69,-476.14 348.48,-485.36 355.37,-486.6"/>
</a>
</g>
</g>
<!-- Node6&#45;&gt;Node13 -->
<g id="edge14_Node000006_Node000013" class="edge">
<title>Node6&#45;&gt;Node13</title>
<g id="a_edge14_Node000006_Node000013"><a xlink:title=" ">
<path fill="none" stroke="#63b8ff" d="M346.6,-449.63C333.14,-422.95 304.23,-372.92 265,-345.5 258.8,-341.17 251.55,-337.87 244.26,-335.35"/>
<polygon fill="#63b8ff" stroke="#63b8ff" points="343.6,-451.46 351.13,-458.91 349.89,-448.39 343.6,-451.46"/>
</a>
</g>
</g>
<!-- Node14 -->
<g id="Node000014" class="node">
<title>Node14</title>
<g id="a_Node000014"><a xlink:href="../../d3/d61/classchdr_1_1heap_a90957d02dbdc1afa0c6dc61861842f4e.html#a90957d02dbdc1afa0c6dc61861842f4e" target="_top" xlink:title="Removes the last element from the heap.">
<polygon fill="white" stroke="#666666" points="256,-655 149,-655 149,-638 256,-638 256,-655"/>
<text text-anchor="middle" x="202.5" y="-644.6" font-family="Helvetica,sans-Serif" font-size="8.00">chdr::heap::pop_back</text>
</a>
</g>
</g>
<!-- Node6&#45;&gt;Node14 -->
<g id="edge15_Node000006_Node000014" class="edge">
<title>Node6&#45;&gt;Node14</title>
<g id="a_edge15_Node000006_Node000014"><a xlink:title=" ">
<path fill="none" stroke="#63b8ff" d="M349.94,-485.98C339.72,-519.75 313.39,-591.43 265,-629.5 260.56,-632.99 255.45,-635.77 250.11,-637.98"/>
<polygon fill="#63b8ff" stroke="#63b8ff" points="353.38,-486.67 352.79,-476.09 346.66,-484.73 353.38,-486.67"/>
</a>
</g>
</g>
<!-- Node15 -->
<g id="Node000015" class="node">
<title>Node15</title>
<g id="a_Node000015"><a xlink:href="../../d3/d61/classchdr_1_1heap_a39b39a0753d600546b92d146681c30f5.html#a39b39a0753d600546b92d146681c30f5" target="_top" xlink:title="Retrieves a constant element to the top element of the heap.">
<polygon fill="white" stroke="#666666" points="243,-620 162,-620 162,-603 243,-603 243,-620"/>
<text text-anchor="middle" x="202.5" y="-609.6" font-family="Helvetica,sans-Serif" font-size="8.00">chdr::heap::top</text>
</a>
</g>
</g>
<!-- Node6&#45;&gt;Node15 -->
<g id="edge16_Node000006_Node000015" class="edge">
<title>Node6&#45;&gt;Node15</title>
<g id="a_edge16_Node000006_Node000015"><a xlink:title=" ">
<path fill="none" stroke="#63b8ff" d="M346.1,-485.25C332.18,-511.34 302.87,-560.03 265,-588.5 256.71,-594.73 246.54,-599.44 236.88,-602.92"/>
<polygon fill="#63b8ff" stroke="#63b8ff" points="349.32,-486.64 350.82,-476.15 343.11,-483.42 349.32,-486.64"/>
</a>
</g>
</g>
<!-- Node16 -->
<g id="Node000016" class="node">
<title>Node16</title>
<g id="a_Node000016"><a xlink:href="../../d3/d61/classchdr_1_1heap_a20a753362275d34a67d855ce0105fab7.html#a20a753362275d34a67d855ce0105fab7" target="_top" xlink:title="Retrieves a reference to the top element of the heap.">
<polygon fill="#fff0f0" stroke="red" points="243,-441 162,-441 162,-424 243,-424 243,-441"/>
<text text-anchor="middle" x="202.5" y="-430.6" font-family="Helvetica,sans-Serif" font-size="8.00">chdr::heap::top</text>
</a>
</g>
</g>
<!-- Node6&#45;&gt;Node16 -->
<g id="edge17_Node000006_Node000016" class="edge">
<title>Node6&#45;&gt;Node16</title>
<g id="a_edge17_Node000006_Node000016"><a xlink:title=" ">
<path fill="none" stroke="#63b8ff" d="M307.93,-456.62C286.19,-451.6 260.76,-445.73 240.44,-441.03"/>
<polygon fill="#63b8ff" stroke="#63b8ff" points="307.41,-460.1 317.94,-458.94 308.98,-453.28 307.41,-460.1"/>
</a>
</g>
</g>
<!-- Node16&#45;&gt;Node5 -->
<g id="edge18_Node000016_Node000005" class="edge">
<title>Node16&#45;&gt;Node5</title>
<g id="a_edge18_Node000016_Node000005"><a xlink:title=" ">
<path fill="none" stroke="#63b8ff" d="M156.84,-444.06C151.09,-445.99 145.35,-448.14 140,-450.5 111.53,-463.08 81.08,-483.41 64.84,-494.89"/>
<polygon fill="#63b8ff" stroke="#63b8ff" points="157.97,-447.38 166.45,-441.03 155.86,-440.7 157.97,-447.38"/>
</a>
</g>
</g>
<!-- Node20&#45;&gt;Node3 -->
<g id="edge23_Node000020_Node000003" class="edge">
<title>Node20&#45;&gt;Node3</title>
<g id="a_edge23_Node000020_Node000003"><a xlink:title=" ">
<path fill="none" stroke="#63b8ff" d="M342.79,-307.17C327.04,-327.47 297.76,-361.41 265,-380.5 259.07,-383.96 252.4,-386.74 245.7,-388.97"/>
<polygon fill="#63b8ff" stroke="#63b8ff" points="345.62,-309.23 348.86,-299.15 340.03,-305.01 345.62,-309.23"/>
</a>
</g>
</g>
<!-- Node20&#45;&gt;Node4 -->
<g id="edge24_Node000020_Node000004" class="edge">
<title>Node20&#45;&gt;Node4</title>
<g id="a_edge24_Node000020_Node000004"><a xlink:title=" ">
<path fill="none" stroke="#63b8ff" d="M335,-304.98C317.33,-317.21 290.47,-334.46 265,-345.5 257.38,-348.8 248.94,-351.63 240.83,-353.98"/>
<polygon fill="#63b8ff" stroke="#63b8ff" points="337.19,-307.71 343.35,-299.1 333.16,-301.99 337.19,-307.71"/>
</a>
</g>
</g>
<!-- Node20&#45;&gt;Node5 -->
<g id="edge25_Node000020_Node000005" class="edge">
<title>Node20&#45;&gt;Node5</title>
<g id="a_edge25_Node000020_Node000005"><a xlink:title=" ">
<path fill="none" stroke="#63b8ff" d="M296.28,-280.93C249.66,-276.62 185.05,-278.34 140,-310.5 75.09,-356.84 57.71,-463.29 53.92,-494.65"/>
<polygon fill="#63b8ff" stroke="#63b8ff" points="295.93,-284.42 306.24,-281.97 296.66,-277.45 295.93,-284.42"/>
</a>
</g>
</g>
<!-- Node20&#45;&gt;Node10 -->
<g id="edge26_Node000020_Node000010" class="edge">
<title>Node20&#45;&gt;Node10</title>
<g id="a_edge26_Node000020_Node000010"><a xlink:title=" ">
<path fill="none" stroke="#63b8ff" d="M310.03,-279.52C287.14,-273.93 259.73,-267.23 238.45,-262.04"/>
<polygon fill="#63b8ff" stroke="#63b8ff" points="309.32,-282.95 319.86,-281.92 310.98,-276.15 309.32,-282.95"/>
</a>
</g>
</g>
<!-- Node20&#45;&gt;Node13 -->
<g id="edge28_Node000020_Node000013" class="edge">
<title>Node20&#45;&gt;Node13</title>
<g id="a_edge28_Node000020_Node000013"><a xlink:title=" ">
<path fill="none" stroke="#63b8ff" d="M310.03,-301.48C287.14,-307.07 259.73,-313.77 238.45,-318.96"/>
<polygon fill="#63b8ff" stroke="#63b8ff" points="310.98,-304.85 319.86,-299.08 309.32,-298.05 310.98,-304.85"/>
</a>
</g>
</g>
<!-- Node20&#45;&gt;Node19 -->
<g id="edge27_Node000020_Node000019" class="edge">
<title>Node20&#45;&gt;Node19</title>
<g id="a_edge27_Node000020_Node000019"><a xlink:title=" ">
<path fill="none" stroke="#63b8ff" d="M334.62,-276.2C316.89,-264.28 290.16,-247.51 265,-236.5 256.64,-232.84 247.33,-229.68 238.53,-227.07"/>
<polygon fill="#63b8ff" stroke="#63b8ff" points="332.79,-279.19 343.02,-281.94 336.74,-273.41 332.79,-279.19"/>
</a>
</g>
</g>
<!-- Node21&#45;&gt;Node10 -->
<g id="edge31_Node000021_Node000010" class="edge">
<title>Node21&#45;&gt;Node10</title>
<g id="a_edge31_Node000021_Node000010"><a xlink:title=" ">
<path fill="none" stroke="#63b8ff" d="M342.25,-165.36C326.31,-185.26 297.2,-217.98 265,-236.5 259.05,-239.92 252.37,-242.69 245.67,-244.91"/>
<polygon fill="#63b8ff" stroke="#63b8ff" points="345.21,-167.25 348.6,-157.22 339.69,-162.95 345.21,-167.25"/>
</a>
</g>
</g>
<!-- Node21&#45;&gt;Node19 -->
<g id="edge32_Node000021_Node000019" class="edge">
<title>Node21&#45;&gt;Node19</title>
<g id="a_edge32_Node000021_Node000019"><a xlink:title=" ">
<path fill="none" stroke="#63b8ff" d="M333.94,-162.61C316.16,-174.04 289.72,-189.92 265,-200.5 256.51,-204.13 247.06,-207.3 238.17,-209.93"/>
<polygon fill="#63b8ff" stroke="#63b8ff" points="335.93,-165.49 342.39,-157.09 332.1,-159.63 335.93,-165.49"/>
</a>
</g>
</g>
<!-- Node22 -->
<g id="Node000022" class="node">
<title>Node22</title>
<g id="a_Node000022"><a xlink:href="../../d3/d61/classchdr_1_1heap_add55c8b8d3e3d6419e57210d3313fd09.html#add55c8b8d3e3d6419e57210d3313fd09" target="_top" xlink:title="Adds a new element to the heap container using perfect forwarding.">
<polygon fill="#fff0f0" stroke="red" points="254,-87 151,-87 151,-70 254,-70 254,-87"/>
<text text-anchor="middle" x="202.5" y="-76.6" font-family="Helvetica,sans-Serif" font-size="8.00">chdr::heap::emplace</text>
</a>
</g>
</g>
<!-- Node21&#45;&gt;Node22 -->
<g id="edge30_Node000021_Node000022" class="edge">
<title>Node21&#45;&gt;Node22</title>
<g id="a_edge30_Node000021_Node000022"><a xlink:title=" ">
<path fill="none" stroke="#63b8ff" d="M334.32,-134.2C316.59,-122.46 290.02,-106.11 265,-95.5 257.25,-92.21 248.68,-89.38 240.46,-87.02"/>
<polygon fill="#63b8ff" stroke="#63b8ff" points="332.48,-137.18 342.73,-139.86 336.39,-131.37 332.48,-137.18"/>
</a>
</g>
</g>
<!-- Node24 -->
<g id="Node000024" class="node">
<title>Node24</title>
<g id="a_Node000024"><a xlink:href="../../d3/d61/classchdr_1_1heap_a5a2024fa8b956ddb73b0dff9565468f2.html#a5a2024fa8b956ddb73b0dff9565468f2" target="_top" xlink:title="Inserts a range of elements into the heap.">
<polygon fill="white" stroke="#666666" points="248,-52 157,-52 157,-35 248,-35 248,-52"/>
<text text-anchor="middle" x="202.5" y="-41.6" font-family="Helvetica,sans-Serif" font-size="8.00">chdr::heap::insert</text>
</a>
</g>
</g>
<!-- Node21&#45;&gt;Node24 -->
<g id="edge33_Node000021_Node000024" class="edge">
<title>Node21&#45;&gt;Node24</title>
<g id="a_edge33_Node000021_Node000024"><a xlink:title=" ">
<path fill="none" stroke="#63b8ff" d="M342.25,-131.64C326.31,-111.74 297.2,-79.02 265,-60.5 259.05,-57.08 252.37,-54.31 245.67,-52.09"/>
<polygon fill="#63b8ff" stroke="#63b8ff" points="339.69,-134.05 348.6,-139.78 345.21,-129.75 339.69,-134.05"/>
</a>
</g>
</g>
<!-- Node25 -->
<g id="Node000025" class="node">
<title>Node25</title>
<g id="a_Node000025"><a xlink:href="../../d3/d61/classchdr_1_1heap_a5dfd7f9a4ad6a51dfb81d4da0f5ec261.html#a5dfd7f9a4ad6a51dfb81d4da0f5ec261" target="_top" xlink:title="Inserts an element into the heap while maintaining the heap property.">
<polygon fill="white" stroke="#666666" points="248,-17 157,-17 157,0 248,0 248,-17"/>
<text text-anchor="middle" x="202.5" y="-6.6" font-family="Helvetica,sans-Serif" font-size="8.00">chdr::heap::insert</text>
</a>
</g>
</g>
<!-- Node21&#45;&gt;Node25 -->
<g id="edge34_Node000021_Node000025" class="edge">
<title>Node21&#45;&gt;Node25</title>
<g id="a_edge34_Node000021_Node000025"><a xlink:title=" ">
<path fill="none" stroke="#63b8ff" d="M346.87,-130.76C333.61,-103.86 304.77,-52.97 265,-25.5 259.9,-21.97 254.08,-19.18 248.11,-16.96"/>
<polygon fill="#63b8ff" stroke="#63b8ff" points="343.71,-132.28 351.17,-139.8 350.03,-129.27 343.71,-132.28"/>
</a>
</g>
</g>
<!-- Node26 -->
<g id="Node000026" class="node">
<title>Node26</title>
<g id="a_Node000026"><a xlink:href="../../d3/d61/classchdr_1_1heap_a45a566405e1e982fe89c9eab9315e0ce.html#a45a566405e1e982fe89c9eab9315e0ce" target="_top" xlink:title="Moves an element into the heap while maintaining the heap property.">
<polygon fill="white" stroke="#666666" points="248,-192 157,-192 157,-175 248,-175 248,-192"/>
<text text-anchor="middle" x="202.5" y="-181.6" font-family="Helvetica,sans-Serif" font-size="8.00">chdr::heap::insert</text>
</a>
</g>
</g>
<!-- Node21&#45;&gt;Node26 -->
<g id="edge35_Node000021_Node000026" class="edge">
<title>Node21&#45;&gt;Node26</title>
<g id="a_edge35_Node000021_Node000026"><a xlink:title=" ">
<path fill="none" stroke="#63b8ff" d="M307.93,-159.38C286.19,-164.4 260.76,-170.27 240.44,-174.97"/>
<polygon fill="#63b8ff" stroke="#63b8ff" points="308.98,-162.72 317.94,-157.06 307.41,-155.9 308.98,-162.72"/>
</a>
</g>
</g>
<!-- Node27 -->
<g id="Node000027" class="node">
<title>Node27</title>
<g id="a_Node000027"><a xlink:href="../../d3/d61/classchdr_1_1heap_afb62bdc27151ccbc8d7d8ceb30c24d6e.html#afb62bdc27151ccbc8d7d8ceb30c24d6e" target="_top" xlink:title="Adds an item to the heap.">
<polygon fill="#fff0f0" stroke="red" points="246.5,-157 158.5,-157 158.5,-140 246.5,-140 246.5,-157"/>
<text text-anchor="middle" x="202.5" y="-146.6" font-family="Helvetica,sans-Serif" font-size="8.00">chdr::heap::push</text>
</a>
</g>
</g>
<!-- Node21&#45;&gt;Node27 -->
<g id="edge36_Node000021_Node000027" class="edge">
<title>Node21&#45;&gt;Node27</title>
<g id="a_edge36_Node000021_Node000027"><a xlink:title=" ">
<path fill="none" stroke="#63b8ff" d="M296.48,-148.5C279.85,-148.5 262.06,-148.5 246.53,-148.5"/>
<polygon fill="#63b8ff" stroke="#63b8ff" points="296.65,-152 306.65,-148.5 296.65,-145 296.65,-152"/>
</a>
</g>
</g>
<!-- Node29 -->
<g id="Node000029" class="node">
<title>Node29</title>
<g id="a_Node000029"><a xlink:href="../../d3/d61/classchdr_1_1heap_a10d3601db17d387e5fb4e8b45c2304e0.html#a10d3601db17d387e5fb4e8b45c2304e0" target="_top" xlink:title="Adds an item to the heap using move semantics.">
<polygon fill="white" stroke="#666666" points="246.5,-122 158.5,-122 158.5,-105 246.5,-105 246.5,-122"/>
<text text-anchor="middle" x="202.5" y="-111.6" font-family="Helvetica,sans-Serif" font-size="8.00">chdr::heap::push</text>
</a>
</g>
</g>
<!-- Node21&#45;&gt;Node29 -->
<g id="edge37_Node000021_Node000029" class="edge">
<title>Node21&#45;&gt;Node29</title>
<g id="a_edge37_Node000021_Node000029"><a xlink:title=" ">
<path fill="none" stroke="#63b8ff" d="M307.93,-137.62C286.19,-132.6 260.76,-126.73 240.44,-122.03"/>
<polygon fill="#63b8ff" stroke="#63b8ff" points="307.41,-141.1 317.94,-139.94 308.98,-134.28 307.41,-141.1"/>
</a>
</g>
</g>
</g>
</svg>
