<?xml version="1.0" encoding="UTF-8" standalone="no"?>
<!DOCTYPE svg PUBLIC "-//W3C//DTD SVG 1.1//EN"
 "http://www.w3.org/Graphics/SVG/1.1/DTD/svg11.dtd">
<!-- Generated by graphviz version 2.43.0 (0)
 -->
<!-- Title: to_nd Pages: 1 -->
<svg width="313pt" height="60pt"
 viewBox="0.00 0.00 313.00 60.00" xmlns="http://www.w3.org/2000/svg" xmlns:xlink="http://www.w3.org/1999/xlink">
<g id="graph0" class="graph" transform="scale(1 1) rotate(0) translate(4 56)">
<title>to_nd</title>
<!-- Node1 -->
<g id="Node000001" class="node">
<title>Node1</title>
<g id="a_Node000001"><a xlink:title="Maps a one&#45;dimensional index to a multidimensional coordinate representation.">
<polygon fill="#999999" stroke="#666666" points="305,-34 266,-34 266,-17 305,-17 305,-34"/>
<text text-anchor="middle" x="285.5" y="-23.6" font-family="Helvetica,sans-Serif" font-size="8.00">to_nd</text>
</a>
</g>
</g>
<!-- Node2 -->
<g id="Node000002" class="node">
<title>Node2</title>
<g id="a_Node000002"><a xlink:href="../../dd/de3/classchdr_1_1mazes_1_1grid_ad242ff0ed9416b32cc9de01ef6ea09cf.html#ad242ff0ed9416b32cc9de01ef6ea09cf" target="_top" xlink:title="Retrieves the neighbours of a node within the grid.">
<polygon fill="white" stroke="#666666" points="194.5,-52 35.5,-52 35.5,-35 194.5,-35 194.5,-52"/>
<text text-anchor="middle" x="115" y="-41.6" font-family="Helvetica,sans-Serif" font-size="8.00">chdr::mazes::grid::get_neighbours</text>
</a>
</g>
</g>
<!-- Node1&#45;&gt;Node2 -->
<g id="edge1_Node000001_Node000002" class="edge">
<title>Node1&#45;&gt;Node2</title>
<g id="a_edge1_Node000001_Node000002"><a xlink:title=" ">
<path fill="none" stroke="#63b8ff" d="M255.56,-28.59C238.69,-30.39 216.53,-32.76 194.84,-35.08"/>
<polygon fill="#63b8ff" stroke="#63b8ff" points="256.25,-32.04 265.82,-27.5 255.51,-25.08 256.25,-32.04"/>
</a>
</g>
</g>
<!-- Node3 -->
<g id="Node000003" class="node">
<title>Node3</title>
<g id="a_Node000003"><a xlink:href="../../de/de1/classchdr_1_1mazes_1_1grid_3_01coord__t_00_01bool_01_4_ad242ff0ed9416b32cc9de01ef6ea09cf.html#ad242ff0ed9416b32cc9de01ef6ea09cf" target="_top" xlink:title="Retrieves the neighbours of a node within the grid.">
<polygon fill="white" stroke="#666666" points="230,-17 0,-17 0,0 230,0 230,-17"/>
<text text-anchor="middle" x="115" y="-6.6" font-family="Helvetica,sans-Serif" font-size="8.00">chdr::mazes::grid&lt; coord_t, bool &gt;::get_neighbours</text>
</a>
</g>
</g>
<!-- Node1&#45;&gt;Node3 -->
<g id="edge2_Node000001_Node000003" class="edge">
<title>Node1&#45;&gt;Node3</title>
<g id="a_edge2_Node000001_Node000003"><a xlink:title=" ">
<path fill="none" stroke="#63b8ff" d="M255.43,-22.57C240,-21.01 220.16,-19.01 200.31,-17.01"/>
<polygon fill="#63b8ff" stroke="#63b8ff" points="255.52,-26.09 265.82,-23.62 256.23,-19.13 255.52,-26.09"/>
</a>
</g>
</g>
</g>
</svg>
