<?xml version="1.0" encoding="UTF-8" standalone="no"?>
<!DOCTYPE svg PUBLIC "-//W3C//DTD SVG 1.1//EN"
 "http://www.w3.org/Graphics/SVG/1.1/DTD/svg11.dtd">
<!-- Generated by graphviz version 2.43.0 (0)
 -->
<!-- Title: min Pages: 1 -->
<svg width="189pt" height="95pt"
 viewBox="0.00 0.00 189.00 95.00" xmlns="http://www.w3.org/2000/svg" xmlns:xlink="http://www.w3.org/1999/xlink">
<g id="graph0" class="graph" transform="scale(1 1) rotate(0) translate(4 91)">
<title>min</title>
<!-- Node1 -->
<g id="Node000001" class="node">
<title>Node1</title>
<g id="a_Node000001"><a xlink:title="Returns the smaller of two values.">
<polygon fill="#999999" stroke="#666666" points="181,-52 152,-52 152,-35 181,-35 181,-52"/>
<text text-anchor="middle" x="166.5" y="-41.6" font-family="Helvetica,sans-Serif" font-size="8.00">min</text>
</a>
</g>
</g>
<!-- Node2 -->
<g id="Node000002" class="node">
<title>Node2</title>
<g id="a_Node000002"><a xlink:href="../../d9/dcb/classchdr_1_1mazes_1_1graph_a5ca1351a03df5ff49f85cc4b5669cefc.html#a5ca1351a03df5ff49f85cc4b5669cefc" target="_top" xlink:title="Constructs a graph instance from a grid structure.">
<polygon fill="white" stroke="#666666" points="113.5,-87 2.5,-87 2.5,-70 113.5,-70 113.5,-87"/>
<text text-anchor="middle" x="58" y="-76.6" font-family="Helvetica,sans-Serif" font-size="8.00">chdr::mazes::graph::graph</text>
</a>
</g>
</g>
<!-- Node1&#45;&gt;Node2 -->
<g id="edge1_Node000001_Node000002" class="edge">
<title>Node1&#45;&gt;Node2</title>
<g id="a_edge1_Node000001_Node000002"><a xlink:title=" ">
<path fill="none" stroke="#63b8ff" d="M142.31,-52.25C134.05,-55.29 124.64,-58.64 116,-61.5 107.27,-64.39 97.73,-67.32 88.98,-69.92"/>
<polygon fill="#63b8ff" stroke="#63b8ff" points="143.55,-55.53 151.71,-48.76 141.11,-48.96 143.55,-55.53"/>
</a>
</g>
</g>
<!-- Node3 -->
<g id="Node000003" class="node">
<title>Node3</title>
<g id="a_Node000003"><a xlink:href="../../d3/d61/classchdr_1_1heap_ad902f3d62fc2c60c9bd9627517da1a5e.html#ad902f3d62fc2c60c9bd9627517da1a5e" target="_top" xlink:title="Constructs a heap container with a specified initial capacity and memory resource.">
<polygon fill="white" stroke="#666666" points="96.5,-52 19.5,-52 19.5,-35 96.5,-35 96.5,-52"/>
<text text-anchor="middle" x="58" y="-41.6" font-family="Helvetica,sans-Serif" font-size="8.00">chdr::heap::heap</text>
</a>
</g>
</g>
<!-- Node1&#45;&gt;Node3 -->
<g id="edge2_Node000001_Node000003" class="edge">
<title>Node1&#45;&gt;Node3</title>
<g id="a_edge2_Node000001_Node000003"><a xlink:title=" ">
<path fill="none" stroke="#63b8ff" d="M141.43,-43.5C128.26,-43.5 111.63,-43.5 96.77,-43.5"/>
<polygon fill="#63b8ff" stroke="#63b8ff" points="141.58,-47 151.58,-43.5 141.58,-40 141.58,-47"/>
</a>
</g>
</g>
<!-- Node4 -->
<g id="Node000004" class="node">
<title>Node4</title>
<g id="a_Node000004"><a xlink:href="../../d6/db9/classchdr_1_1existence__set_a30c34264336dae664d5b7942e3f16337.html#a30c34264336dae664d5b7942e3f16337" target="_top" xlink:title="Allocates additional capacity to accommodate the hash, ensuring an increase in storage is within the ...">
<polygon fill="white" stroke="#666666" points="116,-17 0,-17 0,0 116,0 116,-17"/>
<text text-anchor="middle" x="58" y="-6.6" font-family="Helvetica,sans-Serif" font-size="8.00">chdr::existence_set::allocate</text>
</a>
</g>
</g>
<!-- Node1&#45;&gt;Node4 -->
<g id="edge3_Node000001_Node000004" class="edge">
<title>Node1&#45;&gt;Node4</title>
<g id="a_edge3_Node000001_Node000004"><a xlink:title=" ">
<path fill="none" stroke="#63b8ff" d="M141.98,-35.29C133.78,-32.46 124.5,-29.3 116,-26.5 106.44,-23.35 95.94,-20 86.59,-17.06"/>
<polygon fill="#63b8ff" stroke="#63b8ff" points="141.07,-38.68 151.66,-38.64 143.36,-32.06 141.07,-38.68"/>
</a>
</g>
</g>
</g>
</svg>
