<?xml version="1.0" encoding="UTF-8" standalone="no"?>
<!DOCTYPE svg PUBLIC "-//W3C//DTD SVG 1.1//EN"
 "http://www.w3.org/Graphics/SVG/1.1/DTD/svg11.dtd">
<!-- Generated by graphviz version 2.43.0 (0)
 -->
<!-- Title: to_1d Pages: 1 -->
<svg width="259pt" height="166pt"
 viewBox="0.00 0.00 259.00 166.00" xmlns="http://www.w3.org/2000/svg" xmlns:xlink="http://www.w3.org/1999/xlink">
<g id="graph0" class="graph" transform="scale(1 1) rotate(0) translate(4 162)">
<title>to_1d</title>
<!-- Node1 -->
<g id="Node000001" class="node">
<title>Node1</title>
<g id="a_Node000001"><a xlink:title="Maps a multidimensional index to a one&#45;dimensional array index.">
<polygon fill="#999999" stroke="#666666" points="251,-78 214,-78 214,-61 251,-61 251,-78"/>
<text text-anchor="middle" x="232.5" y="-67.6" font-family="Helvetica,sans-Serif" font-size="8.00">to_1d</text>
</a>
</g>
</g>
<!-- Node2 -->
<g id="Node000002" class="node">
<title>Node2</title>
<g id="a_Node000002"><a xlink:href="../../d9/dcb/classchdr_1_1mazes_1_1graph_a5ca1351a03df5ff49f85cc4b5669cefc.html#a5ca1351a03df5ff49f85cc4b5669cefc" target="_top" xlink:title="Constructs a graph instance from a grid structure.">
<polygon fill="white" stroke="#666666" points="144.5,-158 33.5,-158 33.5,-141 144.5,-141 144.5,-158"/>
<text text-anchor="middle" x="89" y="-147.6" font-family="Helvetica,sans-Serif" font-size="8.00">chdr::mazes::graph::graph</text>
</a>
</g>
</g>
<!-- Node1&#45;&gt;Node2 -->
<g id="edge1_Node000001_Node000002" class="edge">
<title>Node1&#45;&gt;Node2</title>
<g id="a_edge1_Node000001_Node000002"><a xlink:title=" ">
<path fill="none" stroke="#63b8ff" d="M221.62,-86.63C212.28,-101.2 196.9,-121.45 178,-132.5 167.92,-138.39 156.2,-142.28 144.66,-144.85"/>
<polygon fill="#63b8ff" stroke="#63b8ff" points="224.64,-88.4 226.86,-78.03 218.66,-84.75 224.64,-88.4"/>
</a>
</g>
</g>
<!-- Node3 -->
<g id="Node000003" class="node">
<title>Node3</title>
<g id="a_Node000003"><a xlink:href="../../de/de1/classchdr_1_1mazes_1_1grid_3_01coord__t_00_01bool_01_4_a7d575542c2bf3cf37dfbebf1d56a7bc9.html#a7d575542c2bf3cf37dfbebf1d56a7bc9" target="_top" xlink:title="Retrieves the node at a specified coordinate.">
<polygon fill="white" stroke="#666666" points="178,-105 0,-105 0,-88 178,-88 178,-105"/>
<text text-anchor="middle" x="89" y="-94.6" font-family="Helvetica,sans-Serif" font-size="8.00">chdr::mazes::grid&lt; coord_t, bool &gt;::operator[]</text>
</a>
</g>
</g>
<!-- Node1&#45;&gt;Node3 -->
<g id="edge2_Node000001_Node000003" class="edge">
<title>Node1&#45;&gt;Node3</title>
<g id="a_edge2_Node000001_Node000003"><a xlink:title=" ">
<path fill="none" stroke="#63b8ff" d="M204.02,-74.74C184.34,-78.5 157.41,-83.64 134.66,-87.98"/>
<polygon fill="#63b8ff" stroke="#63b8ff" points="204.7,-78.18 213.87,-72.86 203.39,-71.3 204.7,-78.18"/>
</a>
</g>
</g>
<!-- Node4 -->
<g id="Node000004" class="node">
<title>Node4</title>
<g id="a_Node000004"><a xlink:href="../../dd/de3/classchdr_1_1mazes_1_1grid_ad8b85d86fc073f5557471a856975a9a2.html#ad8b85d86fc073f5557471a856975a9a2" target="_top" xlink:title="Retrieves the node at a specified coordinate.">
<polygon fill="white" stroke="#666666" points="148,-52 30,-52 30,-35 148,-35 148,-52"/>
<text text-anchor="middle" x="89" y="-41.6" font-family="Helvetica,sans-Serif" font-size="8.00">chdr::mazes::grid::operator[]</text>
</a>
</g>
</g>
<!-- Node1&#45;&gt;Node4 -->
<g id="edge4_Node000001_Node000004" class="edge">
<title>Node1&#45;&gt;Node4</title>
<g id="a_edge4_Node000001_Node000004"><a xlink:title=" ">
<path fill="none" stroke="#63b8ff" d="M204,-64.45C184.84,-60.93 158.82,-56.15 136.48,-52.04"/>
<polygon fill="#63b8ff" stroke="#63b8ff" points="203.4,-67.89 213.87,-66.26 204.66,-61.01 203.4,-67.89"/>
</a>
</g>
</g>
<!-- Node5 -->
<g id="Node000005" class="node">
<title>Node5</title>
<g id="a_Node000005"><a xlink:href="../../d3/df4/classchdr_1_1solvers_1_1solver_aa62632bf43d0cf6db6a9f6de5e76b0ba.html#aa62632bf43d0cf6db6a9f6de5e76b0ba" target="_top" xlink:title="Executes the solver with the provided parameters.">
<polygon fill="white" stroke="#666666" points="144,-17 34,-17 34,0 144,0 144,-17"/>
<text text-anchor="middle" x="89" y="-6.6" font-family="Helvetica,sans-Serif" font-size="8.00">chdr::solvers::solver::solve</text>
</a>
</g>
</g>
<!-- Node1&#45;&gt;Node5 -->
<g id="edge6_Node000001_Node000005" class="edge">
<title>Node1&#45;&gt;Node5</title>
<g id="a_edge6_Node000001_Node000005"><a xlink:title=" ">
<path fill="none" stroke="#63b8ff" d="M215.85,-53.56C205.86,-44.29 192.15,-33.15 178,-26.5 167.56,-21.59 155.8,-18.02 144.36,-15.41"/>
<polygon fill="#63b8ff" stroke="#63b8ff" points="213.68,-56.33 223.3,-60.77 218.55,-51.3 213.68,-56.33"/>
</a>
</g>
</g>
<!-- Node3&#45;&gt;Node3 -->
<g id="edge3_Node000003_Node000003" class="edge">
<title>Node3&#45;&gt;Node3</title>
<g id="a_edge3_Node000003_Node000003"><a xlink:title=" ">
<path fill="none" stroke="#63b8ff" d="M115.57,-113.82C114.78,-118.98 105.93,-123 89,-123 63.21,-123 56.15,-113.67 67.84,-105.19"/>
<polygon fill="#63b8ff" stroke="#63b8ff" points="118.43,-111.8 110.16,-105.19 112.5,-115.52 118.43,-111.8"/>
</a>
</g>
</g>
<!-- Node4&#45;&gt;Node4 -->
<g id="edge5_Node000004_Node000004" class="edge">
<title>Node4&#45;&gt;Node4</title>
<g id="a_edge5_Node000004_Node000004"><a xlink:title=" ">
<path fill="none" stroke="#63b8ff" d="M115.57,-60.82C114.78,-65.98 105.93,-70 89,-70 63.21,-70 56.15,-60.67 67.84,-52.19"/>
<polygon fill="#63b8ff" stroke="#63b8ff" points="118.43,-58.8 110.16,-52.19 112.5,-62.52 118.43,-58.8"/>
</a>
</g>
</g>
</g>
</svg>
