<?xml version="1.0" encoding="UTF-8" standalone="no"?>
<!DOCTYPE svg PUBLIC "-//W3C//DTD SVG 1.1//EN"
 "http://www.w3.org/Graphics/SVG/1.1/DTD/svg11.dtd">
<!-- Generated by graphviz version 2.43.0 (0)
 -->
<!-- Title: unmanaged_node.hpp Pages: 1 -->
<svg width="427pt" height="131pt"
 viewBox="0.00 0.00 427.00 131.00" xmlns="http://www.w3.org/2000/svg" xmlns:xlink="http://www.w3.org/1999/xlink">
<g id="graph0" class="graph" transform="scale(1 1) rotate(0) translate(4 127)">
<title>unmanaged_node.hpp</title>
<!-- Node1 -->
<g id="Node000001" class="node">
<title>Node1</title>
<g id="a_Node000001"><a xlink:title=" ">
<polygon fill="#999999" stroke="#666666" points="260,-123 162,-123 162,-106 260,-106 260,-123"/>
<text text-anchor="middle" x="211" y="-112.6" font-family="Helvetica,sans-Serif" font-size="8.00">unmanaged_node.hpp</text>
</a>
</g>
</g>
<!-- Node2 -->
<g id="Node000002" class="node">
<title>Node2</title>
<g id="a_Node000002"><a xlink:href="../../dc/da9/astar_8hpp.html" target="_top" xlink:title=" ">
<polygon fill="white" stroke="#666666" points="50,-70 0,-70 0,-53 50,-53 50,-70"/>
<text text-anchor="middle" x="25" y="-59.6" font-family="Helvetica,sans-Serif" font-size="8.00">astar.hpp</text>
</a>
</g>
</g>
<!-- Node1&#45;&gt;Node2 -->
<g id="edge1_Node000001_Node000002" class="edge">
<title>Node1&#45;&gt;Node2</title>
<g id="a_edge1_Node000001_Node000002"><a xlink:title=" ">
<path fill="none" stroke="#63b8ff" d="M173.72,-103.28C137.03,-93.22 81.99,-78.13 50.17,-69.4"/>
<polygon fill="#63b8ff" stroke="#63b8ff" points="172.99,-106.71 183.56,-105.97 174.84,-99.95 172.99,-106.71"/>
</a>
</g>
</g>
<!-- Node3 -->
<g id="Node000003" class="node">
<title>Node3</title>
<g id="a_Node000003"><a xlink:href="../../d9/d96/chdr_8hpp.html" target="_top" xlink:title=" ">
<polygon fill="white" stroke="#666666" points="234.5,-17 187.5,-17 187.5,0 234.5,0 234.5,-17"/>
<text text-anchor="middle" x="211" y="-6.6" font-family="Helvetica,sans-Serif" font-size="8.00">chdr.hpp</text>
</a>
</g>
</g>
<!-- Node1&#45;&gt;Node3 -->
<g id="edge7_Node000001_Node000003" class="edge">
<title>Node1&#45;&gt;Node3</title>
<g id="a_edge7_Node000001_Node000003"><a xlink:title=" ">
<path fill="none" stroke="#63b8ff" d="M151.9,-105.05C131.02,-98.91 109.6,-88.3 97,-70 72.85,-34.94 147.34,-18.6 187.36,-12.5"/>
<polygon fill="#63b8ff" stroke="#63b8ff" points="151.19,-108.48 161.75,-107.65 152.97,-101.71 151.19,-108.48"/>
</a>
</g>
</g>
<!-- Node4 -->
<g id="Node000004" class="node">
<title>Node4</title>
<g id="a_Node000004"><a xlink:href="../../d3/d77/best__first_8hpp.html" target="_top" xlink:title=" ">
<polygon fill="white" stroke="#666666" points="171.5,-70 106.5,-70 106.5,-53 171.5,-53 171.5,-70"/>
<text text-anchor="middle" x="139" y="-59.6" font-family="Helvetica,sans-Serif" font-size="8.00">best_first.hpp</text>
</a>
</g>
</g>
<!-- Node1&#45;&gt;Node4 -->
<g id="edge3_Node000001_Node000004" class="edge">
<title>Node1&#45;&gt;Node4</title>
<g id="a_edge3_Node000001_Node000004"><a xlink:title=" ">
<path fill="none" stroke="#63b8ff" d="M192.2,-100.18C178.65,-90.58 160.85,-77.98 149.67,-70.06"/>
<polygon fill="#63b8ff" stroke="#63b8ff" points="190.19,-103.05 200.38,-105.97 194.24,-97.34 190.19,-103.05"/>
</a>
</g>
</g>
<!-- Node5 -->
<g id="Node000005" class="node">
<title>Node5</title>
<g id="a_Node000005"><a xlink:href="../../da/d36/bfs_8hpp.html" target="_top" xlink:title=" ">
<polygon fill="white" stroke="#666666" points="232.5,-70 189.5,-70 189.5,-53 232.5,-53 232.5,-70"/>
<text text-anchor="middle" x="211" y="-59.6" font-family="Helvetica,sans-Serif" font-size="8.00">bfs.hpp</text>
</a>
</g>
</g>
<!-- Node1&#45;&gt;Node5 -->
<g id="edge5_Node000001_Node000005" class="edge">
<title>Node1&#45;&gt;Node5</title>
<g id="a_edge5_Node000001_Node000005"><a xlink:title=" ">
<path fill="none" stroke="#63b8ff" d="M211,-95.91C211,-87.08 211,-76.85 211,-70.06"/>
<polygon fill="#63b8ff" stroke="#63b8ff" points="207.5,-95.97 211,-105.97 214.5,-95.97 207.5,-95.97"/>
</a>
</g>
</g>
<!-- Node6 -->
<g id="Node000006" class="node">
<title>Node6</title>
<g id="a_Node000006"><a xlink:href="../../d3/dec/dfs_8hpp.html" target="_top" xlink:title=" ">
<polygon fill="white" stroke="#666666" points="293.5,-70 250.5,-70 250.5,-53 293.5,-53 293.5,-70"/>
<text text-anchor="middle" x="272" y="-59.6" font-family="Helvetica,sans-Serif" font-size="8.00">dfs.hpp</text>
</a>
</g>
</g>
<!-- Node1&#45;&gt;Node6 -->
<g id="edge8_Node000001_Node000006" class="edge">
<title>Node1&#45;&gt;Node6</title>
<g id="a_edge8_Node000001_Node000006"><a xlink:title=" ">
<path fill="none" stroke="#63b8ff" d="M227.92,-99.35C239.27,-89.87 253.76,-77.75 262.96,-70.06"/>
<polygon fill="#63b8ff" stroke="#63b8ff" points="225.43,-96.88 220,-105.97 229.92,-102.25 225.43,-96.88"/>
</a>
</g>
</g>
<!-- Node7 -->
<g id="Node000007" class="node">
<title>Node7</title>
<g id="a_Node000007"><a xlink:href="../../d1/d5a/fstar_8hpp.html" target="_top" xlink:title=" ">
<polygon fill="white" stroke="#666666" points="358.5,-70 311.5,-70 311.5,-53 358.5,-53 358.5,-70"/>
<text text-anchor="middle" x="335" y="-59.6" font-family="Helvetica,sans-Serif" font-size="8.00">fstar.hpp</text>
</a>
</g>
</g>
<!-- Node1&#45;&gt;Node7 -->
<g id="edge10_Node000001_Node000007" class="edge">
<title>Node1&#45;&gt;Node7</title>
<g id="a_edge10_Node000001_Node000007"><a xlink:title=" ">
<path fill="none" stroke="#63b8ff" d="M238.82,-102.06C262.58,-92.29 296.08,-78.51 316.63,-70.06"/>
<polygon fill="#63b8ff" stroke="#63b8ff" points="237.21,-98.93 229.3,-105.97 239.88,-105.41 237.21,-98.93"/>
</a>
</g>
</g>
<!-- Node8 -->
<g id="Node000008" class="node">
<title>Node8</title>
<g id="a_Node000008"><a xlink:href="../../d9/de6/jps_8hpp.html" target="_top" xlink:title=" ">
<polygon fill="white" stroke="#666666" points="419,-70 377,-70 377,-53 419,-53 419,-70"/>
<text text-anchor="middle" x="398" y="-59.6" font-family="Helvetica,sans-Serif" font-size="8.00">jps.hpp</text>
</a>
</g>
</g>
<!-- Node1&#45;&gt;Node8 -->
<g id="edge12_Node000001_Node000008" class="edge">
<title>Node1&#45;&gt;Node8</title>
<g id="a_edge12_Node000001_Node000008"><a xlink:title=" ">
<path fill="none" stroke="#63b8ff" d="M248.42,-103.29C287.02,-92.77 345.83,-76.73 376.97,-68.24"/>
<polygon fill="#63b8ff" stroke="#63b8ff" points="247.32,-99.97 238.59,-105.97 249.16,-106.72 247.32,-99.97"/>
</a>
</g>
</g>
<!-- Node2&#45;&gt;Node3 -->
<g id="edge2_Node000002_Node000003" class="edge">
<title>Node2&#45;&gt;Node3</title>
<g id="a_edge2_Node000002_Node000003"><a xlink:title=" ">
<path fill="none" stroke="#63b8ff" d="M60.02,-50.9C97.31,-40.67 155.31,-24.77 187.48,-15.95"/>
<polygon fill="#63b8ff" stroke="#63b8ff" points="58.8,-47.6 50.08,-53.62 60.65,-54.35 58.8,-47.6"/>
</a>
</g>
</g>
<!-- Node4&#45;&gt;Node3 -->
<g id="edge4_Node000004_Node000003" class="edge">
<title>Node4&#45;&gt;Node3</title>
<g id="a_edge4_Node000004_Node000003"><a xlink:title=" ">
<path fill="none" stroke="#63b8ff" d="M157.8,-47.18C171.35,-37.58 189.15,-24.98 200.33,-17.06"/>
<polygon fill="#63b8ff" stroke="#63b8ff" points="155.76,-44.34 149.62,-52.97 159.81,-50.05 155.76,-44.34"/>
</a>
</g>
</g>
<!-- Node5&#45;&gt;Node3 -->
<g id="edge6_Node000005_Node000003" class="edge">
<title>Node5&#45;&gt;Node3</title>
<g id="a_edge6_Node000005_Node000003"><a xlink:title=" ">
<path fill="none" stroke="#63b8ff" d="M211,-42.91C211,-34.08 211,-23.85 211,-17.06"/>
<polygon fill="#63b8ff" stroke="#63b8ff" points="207.5,-42.97 211,-52.97 214.5,-42.97 207.5,-42.97"/>
</a>
</g>
</g>
<!-- Node6&#45;&gt;Node3 -->
<g id="edge9_Node000006_Node000003" class="edge">
<title>Node6&#45;&gt;Node3</title>
<g id="a_edge9_Node000006_Node000003"><a xlink:title=" ">
<path fill="none" stroke="#63b8ff" d="M255.08,-46.35C243.73,-36.87 229.24,-24.75 220.04,-17.06"/>
<polygon fill="#63b8ff" stroke="#63b8ff" points="253.08,-49.25 263,-52.97 257.57,-43.88 253.08,-49.25"/>
</a>
</g>
</g>
<!-- Node7&#45;&gt;Node3 -->
<g id="edge11_Node000007_Node000003" class="edge">
<title>Node7&#45;&gt;Node3</title>
<g id="a_edge11_Node000007_Node000003"><a xlink:title=" ">
<path fill="none" stroke="#63b8ff" d="M307.18,-49.06C283.42,-39.29 249.92,-25.51 229.37,-17.06"/>
<polygon fill="#63b8ff" stroke="#63b8ff" points="306.12,-52.41 316.7,-52.97 308.79,-45.93 306.12,-52.41"/>
</a>
</g>
</g>
<!-- Node8&#45;&gt;Node3 -->
<g id="edge13_Node000008_Node000003" class="edge">
<title>Node8&#45;&gt;Node3</title>
<g id="a_edge13_Node000008_Node000003"><a xlink:title=" ">
<path fill="none" stroke="#63b8ff" d="M367.11,-52.08C329.92,-41.93 268.27,-25.12 234.65,-15.95"/>
<polygon fill="#63b8ff" stroke="#63b8ff" points="366.34,-55.49 376.91,-54.75 368.19,-48.74 366.34,-55.49"/>
</a>
</g>
</g>
</g>
</svg>
