<?xml version="1.0" encoding="UTF-8" standalone="no"?>
<!DOCTYPE svg PUBLIC "-//W3C//DTD SVG 1.1//EN"
 "http://www.w3.org/Graphics/SVG/1.1/DTD/svg11.dtd">
<!-- Generated by graphviz version 2.43.0 (0)
 -->
<!-- Title: unmanaged_node.hpp Pages: 1 -->
<svg width="367pt" height="131pt"
 viewBox="0.00 0.00 366.50 131.00" xmlns="http://www.w3.org/2000/svg" xmlns:xlink="http://www.w3.org/1999/xlink">
<g id="graph0" class="graph" transform="scale(1 1) rotate(0) translate(4 127)">
<title>unmanaged_node.hpp</title>
<!-- Node1 -->
<g id="Node000001" class="node">
<title>Node1</title>
<g id="a_Node000001"><a xlink:title=" ">
<polygon fill="#999999" stroke="#666666" points="224,-123 126,-123 126,-106 224,-106 224,-123"/>
<text text-anchor="middle" x="175" y="-112.6" font-family="Helvetica,sans-Serif" font-size="8.00">unmanaged_node.hpp</text>
</a>
</g>
</g>
<!-- Node2 -->
<g id="Node000002" class="node">
<title>Node2</title>
<g id="a_Node000002"><a xlink:href="../../dc/da9/astar_8hpp.html" target="_top" xlink:title=" ">
<polygon fill="white" stroke="#666666" points="50,-70 0,-70 0,-53 50,-53 50,-70"/>
<text text-anchor="middle" x="25" y="-59.6" font-family="Helvetica,sans-Serif" font-size="8.00">astar.hpp</text>
</a>
</g>
</g>
<!-- Node1&#45;&gt;Node2 -->
<g id="edge1_Node000001_Node000002" class="edge">
<title>Node1&#45;&gt;Node2</title>
<g id="a_edge1_Node000001_Node000002"><a xlink:title=" ">
<path fill="none" stroke="#63b8ff" d="M143.26,-102.71C114.42,-92.9 72.63,-78.69 47.22,-70.06"/>
<polygon fill="#63b8ff" stroke="#63b8ff" points="142.27,-106.07 152.87,-105.97 144.53,-99.44 142.27,-106.07"/>
</a>
</g>
</g>
<!-- Node3 -->
<g id="Node000003" class="node">
<title>Node3</title>
<g id="a_Node000003"><a xlink:href="../../d9/d96/chdr_8hpp.html" target="_top" xlink:title=" ">
<polygon fill="white" stroke="#666666" points="198.5,-17 151.5,-17 151.5,0 198.5,0 198.5,-17"/>
<text text-anchor="middle" x="175" y="-6.6" font-family="Helvetica,sans-Serif" font-size="8.00">chdr.hpp</text>
</a>
</g>
</g>
<!-- Node1&#45;&gt;Node3 -->
<g id="edge7_Node000001_Node000003" class="edge">
<title>Node1&#45;&gt;Node3</title>
<g id="a_edge7_Node000001_Node000003"><a xlink:title=" ">
<path fill="none" stroke="#63b8ff" d="M137.67,-102.17C122.24,-95.44 105.91,-85.17 97,-70 81.9,-44.29 123.36,-25.58 151.47,-16.23"/>
<polygon fill="#63b8ff" stroke="#63b8ff" points="136.49,-105.47 147.08,-105.91 139.08,-98.96 136.49,-105.47"/>
</a>
</g>
</g>
<!-- Node4 -->
<g id="Node000004" class="node">
<title>Node4</title>
<g id="a_Node000004"><a xlink:href="../../d3/d77/best__first_8hpp.html" target="_top" xlink:title=" ">
<polygon fill="white" stroke="#666666" points="171.5,-70 106.5,-70 106.5,-53 171.5,-53 171.5,-70"/>
<text text-anchor="middle" x="139" y="-59.6" font-family="Helvetica,sans-Serif" font-size="8.00">best_first.hpp</text>
</a>
</g>
</g>
<!-- Node1&#45;&gt;Node4 -->
<g id="edge3_Node000001_Node000004" class="edge">
<title>Node1&#45;&gt;Node4</title>
<g id="a_edge3_Node000001_Node000004"><a xlink:title=" ">
<path fill="none" stroke="#63b8ff" d="M163.81,-97.65C157.32,-88.46 149.45,-77.3 144.33,-70.06"/>
<polygon fill="#63b8ff" stroke="#63b8ff" points="161.06,-99.82 169.69,-105.97 166.78,-95.79 161.06,-99.82"/>
</a>
</g>
</g>
<!-- Node5 -->
<g id="Node000005" class="node">
<title>Node5</title>
<g id="a_Node000005"><a xlink:href="../../da/d36/bfs_8hpp.html" target="_top" xlink:title=" ">
<polygon fill="white" stroke="#666666" points="232.5,-70 189.5,-70 189.5,-53 232.5,-53 232.5,-70"/>
<text text-anchor="middle" x="211" y="-59.6" font-family="Helvetica,sans-Serif" font-size="8.00">bfs.hpp</text>
</a>
</g>
</g>
<!-- Node1&#45;&gt;Node5 -->
<g id="edge5_Node000001_Node000005" class="edge">
<title>Node1&#45;&gt;Node5</title>
<g id="a_edge5_Node000001_Node000005"><a xlink:title=" ">
<path fill="none" stroke="#63b8ff" d="M186.19,-97.65C192.68,-88.46 200.55,-77.3 205.67,-70.06"/>
<polygon fill="#63b8ff" stroke="#63b8ff" points="183.22,-95.79 180.31,-105.97 188.94,-99.82 183.22,-95.79"/>
</a>
</g>
</g>
<!-- Node6 -->
<g id="Node000006" class="node">
<title>Node6</title>
<g id="a_Node000006"><a xlink:href="../../d3/dec/dfs_8hpp.html" target="_top" xlink:title=" ">
<polygon fill="white" stroke="#666666" points="293.5,-70 250.5,-70 250.5,-53 293.5,-53 293.5,-70"/>
<text text-anchor="middle" x="272" y="-59.6" font-family="Helvetica,sans-Serif" font-size="8.00">dfs.hpp</text>
</a>
</g>
</g>
<!-- Node1&#45;&gt;Node6 -->
<g id="edge8_Node000001_Node000006" class="edge">
<title>Node1&#45;&gt;Node6</title>
<g id="a_edge8_Node000001_Node000006"><a xlink:title=" ">
<path fill="none" stroke="#63b8ff" d="M198.27,-101.27C216.74,-91.55 241.99,-78.28 257.63,-70.06"/>
<polygon fill="#63b8ff" stroke="#63b8ff" points="196.54,-98.22 189.31,-105.97 199.79,-104.42 196.54,-98.22"/>
</a>
</g>
</g>
<!-- Node7 -->
<g id="Node000007" class="node">
<title>Node7</title>
<g id="a_Node000007"><a xlink:href="../../d1/d5a/fstar_8hpp.html" target="_top" xlink:title=" ">
<polygon fill="white" stroke="#666666" points="358.5,-70 311.5,-70 311.5,-53 358.5,-53 358.5,-70"/>
<text text-anchor="middle" x="335" y="-59.6" font-family="Helvetica,sans-Serif" font-size="8.00">fstar.hpp</text>
</a>
</g>
</g>
<!-- Node1&#45;&gt;Node7 -->
<g id="edge10_Node000001_Node000007" class="edge">
<title>Node1&#45;&gt;Node7</title>
<g id="a_edge10_Node000001_Node000007"><a xlink:title=" ">
<path fill="none" stroke="#63b8ff" d="M208.46,-102.84C239.22,-93.03 284.07,-78.73 311.29,-70.06"/>
<polygon fill="#63b8ff" stroke="#63b8ff" points="207.07,-99.6 198.61,-105.97 209.2,-106.27 207.07,-99.6"/>
</a>
</g>
</g>
<!-- Node2&#45;&gt;Node3 -->
<g id="edge2_Node000002_Node000003" class="edge">
<title>Node2&#45;&gt;Node3</title>
<g id="a_edge2_Node000002_Node000003"><a xlink:title=" ">
<path fill="none" stroke="#63b8ff" d="M56.74,-49.71C85.58,-39.9 127.37,-25.69 152.78,-17.06"/>
<polygon fill="#63b8ff" stroke="#63b8ff" points="55.47,-46.44 47.13,-52.97 57.73,-53.07 55.47,-46.44"/>
</a>
</g>
</g>
<!-- Node4&#45;&gt;Node3 -->
<g id="edge4_Node000004_Node000003" class="edge">
<title>Node4&#45;&gt;Node3</title>
<g id="a_edge4_Node000004_Node000003"><a xlink:title=" ">
<path fill="none" stroke="#63b8ff" d="M150.19,-44.65C156.68,-35.46 164.55,-24.3 169.67,-17.06"/>
<polygon fill="#63b8ff" stroke="#63b8ff" points="147.22,-42.79 144.31,-52.97 152.94,-46.82 147.22,-42.79"/>
</a>
</g>
</g>
<!-- Node5&#45;&gt;Node3 -->
<g id="edge6_Node000005_Node000003" class="edge">
<title>Node5&#45;&gt;Node3</title>
<g id="a_edge6_Node000005_Node000003"><a xlink:title=" ">
<path fill="none" stroke="#63b8ff" d="M199.81,-44.65C193.32,-35.46 185.45,-24.3 180.33,-17.06"/>
<polygon fill="#63b8ff" stroke="#63b8ff" points="197.06,-46.82 205.69,-52.97 202.78,-42.79 197.06,-46.82"/>
</a>
</g>
</g>
<!-- Node6&#45;&gt;Node3 -->
<g id="edge9_Node000006_Node000003" class="edge">
<title>Node6&#45;&gt;Node3</title>
<g id="a_edge9_Node000006_Node000003"><a xlink:title=" ">
<path fill="none" stroke="#63b8ff" d="M248.73,-48.27C230.26,-38.55 205.01,-25.28 189.37,-17.06"/>
<polygon fill="#63b8ff" stroke="#63b8ff" points="247.21,-51.42 257.69,-52.97 250.46,-45.22 247.21,-51.42"/>
</a>
</g>
</g>
<!-- Node7&#45;&gt;Node3 -->
<g id="edge11_Node000007_Node000003" class="edge">
<title>Node7&#45;&gt;Node3</title>
<g id="a_edge11_Node000007_Node000003"><a xlink:title=" ">
<path fill="none" stroke="#63b8ff" d="M301.54,-49.84C270.78,-40.03 225.93,-25.73 198.71,-17.06"/>
<polygon fill="#63b8ff" stroke="#63b8ff" points="300.8,-53.27 311.39,-52.97 302.93,-46.6 300.8,-53.27"/>
</a>
</g>
</g>
</g>
</svg>
