<?xml version="1.0" encoding="UTF-8" standalone="no"?>
<!DOCTYPE svg PUBLIC "-//W3C//DTD SVG 1.1//EN"
 "http://www.w3.org/Graphics/SVG/1.1/DTD/svg11.dtd">
<!-- Generated by graphviz version 2.43.0 (0)
 -->
<!-- Title: unmanaged_node.hpp Pages: 1 -->
<svg width="549pt" height="131pt"
 viewBox="0.00 0.00 549.00 131.00" xmlns="http://www.w3.org/2000/svg" xmlns:xlink="http://www.w3.org/1999/xlink">
<g id="graph0" class="graph" transform="scale(1 1) rotate(0) translate(4 127)">
<title>unmanaged_node.hpp</title>
<!-- Node1 -->
<g id="Node000001" class="node">
<title>Node1</title>
<g id="a_Node000001"><a xlink:title=" ">
<polygon fill="#999999" stroke="#666666" points="312,-123 203,-123 203,-106 312,-106 312,-123"/>
<text text-anchor="middle" x="257.5" y="-112.6" font-family="Helvetica,sans-Serif" font-size="8.00">unmanaged_node.hpp</text>
</a>
</g>
</g>
<!-- Node2 -->
<g id="Node000002" class="node">
<title>Node2</title>
<g id="a_Node000002"><a xlink:href="../../dc/da9/astar_8hpp.html" target="_top" xlink:title=" ">
<polygon fill="white" stroke="#666666" points="55,-70 0,-70 0,-53 55,-53 55,-70"/>
<text text-anchor="middle" x="27.5" y="-59.6" font-family="Helvetica,sans-Serif" font-size="8.00">astar.hpp</text>
</a>
</g>
</g>
<!-- Node1&#45;&gt;Node2 -->
<g id="edge1_Node000001_Node000002" class="edge">
<title>Node1&#45;&gt;Node2</title>
<g id="a_edge1_Node000001_Node000002"><a xlink:title=" ">
<path fill="none" stroke="#63b8ff" d="M213.72,-103.79C167,-93.43 94.41,-77.34 55.08,-68.62"/>
<polygon fill="#63b8ff" stroke="#63b8ff" points="213.04,-107.23 223.56,-105.97 214.56,-100.39 213.04,-107.23"/>
</a>
</g>
</g>
<!-- Node3 -->
<g id="Node000003" class="node">
<title>Node3</title>
<g id="a_Node000003"><a xlink:href="../../d9/d96/chdr_8hpp.html" target="_top" xlink:title=" ">
<polygon fill="white" stroke="#666666" points="283.5,-17 231.5,-17 231.5,0 283.5,0 283.5,-17"/>
<text text-anchor="middle" x="257.5" y="-6.6" font-family="Helvetica,sans-Serif" font-size="8.00">chdr.hpp</text>
</a>
</g>
</g>
<!-- Node1&#45;&gt;Node3 -->
<g id="edge7_Node000001_Node000003" class="edge">
<title>Node1&#45;&gt;Node3</title>
<g id="a_edge7_Node000001_Node000003"><a xlink:title=" ">
<path fill="none" stroke="#63b8ff" d="M196.62,-104.11C158.38,-96.83 114.16,-85.39 102.5,-70 68.12,-24.65 178.44,-13.27 231.12,-10.43"/>
<polygon fill="#63b8ff" stroke="#63b8ff" points="196.23,-107.6 206.7,-105.97 197.49,-100.72 196.23,-107.6"/>
</a>
</g>
</g>
<!-- Node4 -->
<g id="Node000004" class="node">
<title>Node4</title>
<g id="a_Node000004"><a xlink:href="../../d3/d77/best__first_8hpp.html" target="_top" xlink:title=" ">
<polygon fill="white" stroke="#666666" points="183.5,-70 111.5,-70 111.5,-53 183.5,-53 183.5,-70"/>
<text text-anchor="middle" x="147.5" y="-59.6" font-family="Helvetica,sans-Serif" font-size="8.00">best_first.hpp</text>
</a>
</g>
</g>
<!-- Node1&#45;&gt;Node4 -->
<g id="edge3_Node000001_Node000004" class="edge">
<title>Node1&#45;&gt;Node4</title>
<g id="a_edge3_Node000001_Node000004"><a xlink:title=" ">
<path fill="none" stroke="#63b8ff" d="M231.97,-101.66C210.95,-91.92 181.78,-78.39 163.8,-70.06"/>
<polygon fill="#63b8ff" stroke="#63b8ff" points="230.72,-104.94 241.27,-105.97 233.67,-98.59 230.72,-104.94"/>
</a>
</g>
</g>
<!-- Node5 -->
<g id="Node000005" class="node">
<title>Node5</title>
<g id="a_Node000005"><a xlink:href="../../da/d36/bfs_8hpp.html" target="_top" xlink:title=" ">
<polygon fill="white" stroke="#666666" points="249,-70 202,-70 202,-53 249,-53 249,-70"/>
<text text-anchor="middle" x="225.5" y="-59.6" font-family="Helvetica,sans-Serif" font-size="8.00">bfs.hpp</text>
</a>
</g>
</g>
<!-- Node1&#45;&gt;Node5 -->
<g id="edge5_Node000001_Node000005" class="edge">
<title>Node1&#45;&gt;Node5</title>
<g id="a_edge5_Node000001_Node000005"><a xlink:title=" ">
<path fill="none" stroke="#63b8ff" d="M247.38,-97.36C241.64,-88.23 234.74,-77.22 230.24,-70.06"/>
<polygon fill="#63b8ff" stroke="#63b8ff" points="244.5,-99.36 252.78,-105.97 250.43,-95.64 244.5,-99.36"/>
</a>
</g>
</g>
<!-- Node6 -->
<g id="Node000006" class="node">
<title>Node6</title>
<g id="a_Node000006"><a xlink:href="../../d3/dec/dfs_8hpp.html" target="_top" xlink:title=" ">
<polygon fill="white" stroke="#666666" points="314,-70 267,-70 267,-53 314,-53 314,-70"/>
<text text-anchor="middle" x="290.5" y="-59.6" font-family="Helvetica,sans-Serif" font-size="8.00">dfs.hpp</text>
</a>
</g>
</g>
<!-- Node1&#45;&gt;Node6 -->
<g id="edge8_Node000001_Node000006" class="edge">
<title>Node1&#45;&gt;Node6</title>
<g id="a_edge8_Node000001_Node000006"><a xlink:title=" ">
<path fill="none" stroke="#63b8ff" d="M267.94,-97.36C273.85,-88.23 280.97,-77.22 285.61,-70.06"/>
<polygon fill="#63b8ff" stroke="#63b8ff" points="264.86,-95.68 262.37,-105.97 270.74,-99.48 264.86,-95.68"/>
</a>
</g>
</g>
<!-- Node7 -->
<g id="Node000007" class="node">
<title>Node7</title>
<g id="a_Node000007"><a xlink:href="../../d8/dd5/fringe_8hpp.html" target="_top" xlink:title=" ">
<polygon fill="white" stroke="#666666" points="391,-70 332,-70 332,-53 391,-53 391,-70"/>
<text text-anchor="middle" x="361.5" y="-59.6" font-family="Helvetica,sans-Serif" font-size="8.00">fringe.hpp</text>
</a>
</g>
</g>
<!-- Node1&#45;&gt;Node7 -->
<g id="edge10_Node000001_Node000007" class="edge">
<title>Node1&#45;&gt;Node7</title>
<g id="a_edge10_Node000001_Node000007"><a xlink:title=" ">
<path fill="none" stroke="#63b8ff" d="M281.91,-101.53C301.76,-91.8 329.17,-78.36 346.09,-70.06"/>
<polygon fill="#63b8ff" stroke="#63b8ff" points="280.28,-98.43 272.85,-105.97 283.37,-104.71 280.28,-98.43"/>
</a>
</g>
</g>
<!-- Node8 -->
<g id="Node000008" class="node">
<title>Node8</title>
<g id="a_Node000008"><a xlink:href="../../d9/de6/jps_8hpp.html" target="_top" xlink:title=" ">
<polygon fill="white" stroke="#666666" points="456,-70 409,-70 409,-53 456,-53 456,-70"/>
<text text-anchor="middle" x="432.5" y="-59.6" font-family="Helvetica,sans-Serif" font-size="8.00">jps.hpp</text>
</a>
</g>
</g>
<!-- Node1&#45;&gt;Node8 -->
<g id="edge12_Node000001_Node000008" class="edge">
<title>Node1&#45;&gt;Node8</title>
<g id="a_edge12_Node000001_Node000008"><a xlink:title=" ">
<path fill="none" stroke="#63b8ff" d="M293.01,-103.15C327.54,-93.09 379.01,-78.09 408.82,-69.4"/>
<polygon fill="#63b8ff" stroke="#63b8ff" points="291.94,-99.82 283.32,-105.97 293.9,-106.54 291.94,-99.82"/>
</a>
</g>
</g>
<!-- Node9 -->
<g id="Node000009" class="node">
<title>Node9</title>
<g id="a_Node000009"><a xlink:href="../../dd/d57/smastar_8hpp.html" target="_top" xlink:title=" ">
<polygon fill="white" stroke="#666666" points="541,-70 474,-70 474,-53 541,-53 541,-70"/>
<text text-anchor="middle" x="507.5" y="-59.6" font-family="Helvetica,sans-Serif" font-size="8.00">smastar.hpp</text>
</a>
</g>
</g>
<!-- Node1&#45;&gt;Node9 -->
<g id="edge14_Node000001_Node000009" class="edge">
<title>Node1&#45;&gt;Node9</title>
<g id="a_edge14_Node000001_Node000009"><a xlink:title=" ">
<path fill="none" stroke="#63b8ff" d="M304.47,-103.92C353.75,-93.86 429.99,-78.31 473.67,-69.4"/>
<polygon fill="#63b8ff" stroke="#63b8ff" points="303.49,-100.55 294.39,-105.97 304.89,-107.41 303.49,-100.55"/>
</a>
</g>
</g>
<!-- Node2&#45;&gt;Node3 -->
<g id="edge2_Node000002_Node000003" class="edge">
<title>Node2&#45;&gt;Node3</title>
<g id="a_edge2_Node000002_Node000003"><a xlink:title=" ">
<path fill="none" stroke="#63b8ff" d="M65.3,-52.12C112.16,-41.73 190.79,-24.29 231.43,-15.28"/>
<polygon fill="#63b8ff" stroke="#63b8ff" points="64.25,-48.77 55.24,-54.35 65.76,-55.6 64.25,-48.77"/>
</a>
</g>
</g>
<!-- Node4&#45;&gt;Node3 -->
<g id="edge4_Node000004_Node000003" class="edge">
<title>Node4&#45;&gt;Node3</title>
<g id="a_edge4_Node000004_Node000003"><a xlink:title=" ">
<path fill="none" stroke="#63b8ff" d="M173.03,-48.66C194.05,-38.92 223.22,-25.39 241.2,-17.06"/>
<polygon fill="#63b8ff" stroke="#63b8ff" points="171.33,-45.59 163.73,-52.97 174.28,-51.94 171.33,-45.59"/>
</a>
</g>
</g>
<!-- Node5&#45;&gt;Node3 -->
<g id="edge6_Node000005_Node000003" class="edge">
<title>Node5&#45;&gt;Node3</title>
<g id="a_edge6_Node000005_Node000003"><a xlink:title=" ">
<path fill="none" stroke="#63b8ff" d="M235.62,-44.36C241.36,-35.23 248.26,-24.22 252.76,-17.06"/>
<polygon fill="#63b8ff" stroke="#63b8ff" points="232.57,-42.64 230.22,-52.97 238.5,-46.36 232.57,-42.64"/>
</a>
</g>
</g>
<!-- Node6&#45;&gt;Node3 -->
<g id="edge9_Node000006_Node000003" class="edge">
<title>Node6&#45;&gt;Node3</title>
<g id="a_edge9_Node000006_Node000003"><a xlink:title=" ">
<path fill="none" stroke="#63b8ff" d="M280.06,-44.36C274.15,-35.23 267.03,-24.22 262.39,-17.06"/>
<polygon fill="#63b8ff" stroke="#63b8ff" points="277.26,-46.48 285.63,-52.97 283.14,-42.68 277.26,-46.48"/>
</a>
</g>
</g>
<!-- Node7&#45;&gt;Node3 -->
<g id="edge11_Node000007_Node000003" class="edge">
<title>Node7&#45;&gt;Node3</title>
<g id="a_edge11_Node000007_Node000003"><a xlink:title=" ">
<path fill="none" stroke="#63b8ff" d="M337.09,-48.53C317.24,-38.8 289.83,-25.36 272.91,-17.06"/>
<polygon fill="#63b8ff" stroke="#63b8ff" points="335.63,-51.71 346.15,-52.97 338.72,-45.43 335.63,-51.71"/>
</a>
</g>
</g>
<!-- Node8&#45;&gt;Node3 -->
<g id="edge13_Node000008_Node000003" class="edge">
<title>Node8&#45;&gt;Node3</title>
<g id="a_edge13_Node000008_Node000003"><a xlink:title=" ">
<path fill="none" stroke="#63b8ff" d="M399.04,-50.75C365.31,-40.92 313.98,-25.96 283.28,-17.01"/>
<polygon fill="#63b8ff" stroke="#63b8ff" points="398.32,-54.18 408.9,-53.62 400.28,-47.46 398.32,-54.18"/>
</a>
</g>
</g>
<!-- Node9&#45;&gt;Node3 -->
<g id="edge15_Node000009_Node000003" class="edge">
<title>Node9&#45;&gt;Node3</title>
<g id="a_edge15_Node000009_Node000003"><a xlink:title=" ">
<path fill="none" stroke="#63b8ff" d="M463.85,-51.6C411.86,-40.99 326.67,-23.61 283.84,-14.87"/>
<polygon fill="#63b8ff" stroke="#63b8ff" points="463.29,-55.05 473.78,-53.62 464.69,-48.19 463.29,-55.05"/>
</a>
</g>
</g>
</g>
</svg>
