<?xml version="1.0" encoding="UTF-8" standalone="no"?>
<!DOCTYPE svg PUBLIC "-//W3C//DTD SVG 1.1//EN"
 "http://www.w3.org/Graphics/SVG/1.1/DTD/svg11.dtd">
<!-- Generated by graphviz version 2.43.0 (0)
 -->
<!-- Title: unmanaged_node.hpp Pages: 1 -->
<svg width="353pt" height="131pt"
 viewBox="0.00 0.00 352.50 131.00" xmlns="http://www.w3.org/2000/svg" xmlns:xlink="http://www.w3.org/1999/xlink">
<g id="graph0" class="graph" transform="scale(1 1) rotate(0) translate(4 127)">
<title>unmanaged_node.hpp</title>
<!-- Node1 -->
<g id="Node000001" class="node">
<title>Node1</title>
<g id="a_Node000001"><a xlink:title=" ">
<polygon fill="#999999" stroke="#666666" points="209,-123 111,-123 111,-106 209,-106 209,-123"/>
<text text-anchor="middle" x="160" y="-112.6" font-family="Helvetica,sans-Serif" font-size="8.00">unmanaged_node.hpp</text>
</a>
</g>
</g>
<!-- Node2 -->
<g id="Node000002" class="node">
<title>Node2</title>
<g id="a_Node000002"><a xlink:href="../../dc/da9/astar_8hpp_source.html" target="_top" xlink:title=" ">
<polygon fill="white" stroke="#666666" points="50,-70 0,-70 0,-53 50,-53 50,-70"/>
<text text-anchor="middle" x="25" y="-59.6" font-family="Helvetica,sans-Serif" font-size="8.00">astar.hpp</text>
</a>
</g>
</g>
<!-- Node1&#45;&gt;Node2 -->
<g id="edge1_Node000001_Node000002" class="edge">
<title>Node1&#45;&gt;Node2</title>
<g id="a_edge1_Node000001_Node000002"><a xlink:title=" ">
<path fill="none" stroke="#63b8ff" d="M130.41,-102.32C104.5,-92.53 67.57,-78.58 45,-70.06"/>
<polygon fill="#63b8ff" stroke="#63b8ff" points="129.49,-105.71 140.08,-105.97 131.96,-99.17 129.49,-105.71"/>
</a>
</g>
</g>
<!-- Node3 -->
<g id="Node000003" class="node">
<title>Node3</title>
<g id="a_Node000003"><a xlink:href="../../d9/d96/chdr_8hpp_source.html" target="_top" xlink:title=" ">
<polygon fill="white" stroke="#666666" points="183.5,-17 136.5,-17 136.5,0 183.5,0 183.5,-17"/>
<text text-anchor="middle" x="160" y="-6.6" font-family="Helvetica,sans-Serif" font-size="8.00">chdr.hpp</text>
</a>
</g>
</g>
<!-- Node1&#45;&gt;Node3 -->
<g id="edge7_Node000001_Node000003" class="edge">
<title>Node1&#45;&gt;Node3</title>
<g id="a_edge7_Node000001_Node000003"><a xlink:title=" ">
<path fill="none" stroke="#63b8ff" d="M131.26,-101.37C118.31,-94.27 104.31,-83.92 97,-70 84.81,-46.77 117.87,-27.31 140.58,-17.13"/>
<polygon fill="#63b8ff" stroke="#63b8ff" points="129.89,-104.59 140.4,-105.97 133.04,-98.34 129.89,-104.59"/>
</a>
</g>
</g>
<!-- Node4 -->
<g id="Node000004" class="node">
<title>Node4</title>
<g id="a_Node000004"><a xlink:href="../../da/d36/bfs_8hpp_source.html" target="_top" xlink:title=" ">
<polygon fill="white" stroke="#666666" points="149.5,-70 106.5,-70 106.5,-53 149.5,-53 149.5,-70"/>
<text text-anchor="middle" x="128" y="-59.6" font-family="Helvetica,sans-Serif" font-size="8.00">bfs.hpp</text>
</a>
</g>
</g>
<!-- Node1&#45;&gt;Node4 -->
<g id="edge3_Node000001_Node000004" class="edge">
<title>Node1&#45;&gt;Node4</title>
<g id="a_edge3_Node000001_Node000004"><a xlink:title=" ">
<path fill="none" stroke="#63b8ff" d="M149.88,-97.36C144.14,-88.23 137.24,-77.22 132.74,-70.06"/>
<polygon fill="#63b8ff" stroke="#63b8ff" points="147,-99.36 155.28,-105.97 152.93,-95.64 147,-99.36"/>
</a>
</g>
</g>
<!-- Node5 -->
<g id="Node000005" class="node">
<title>Node5</title>
<g id="a_Node000005"><a xlink:href="../../db/d14/bstar_8hpp_source.html" target="_top" xlink:title=" ">
<polygon fill="white" stroke="#666666" points="218,-70 168,-70 168,-53 218,-53 218,-70"/>
<text text-anchor="middle" x="193" y="-59.6" font-family="Helvetica,sans-Serif" font-size="8.00">bstar.hpp</text>
</a>
</g>
</g>
<!-- Node1&#45;&gt;Node5 -->
<g id="edge5_Node000001_Node000005" class="edge">
<title>Node1&#45;&gt;Node5</title>
<g id="a_edge5_Node000001_Node000005"><a xlink:title=" ">
<path fill="none" stroke="#63b8ff" d="M170.44,-97.36C176.35,-88.23 183.47,-77.22 188.11,-70.06"/>
<polygon fill="#63b8ff" stroke="#63b8ff" points="167.36,-95.68 164.87,-105.97 173.24,-99.48 167.36,-95.68"/>
</a>
</g>
</g>
<!-- Node6 -->
<g id="Node000006" class="node">
<title>Node6</title>
<g id="a_Node000006"><a xlink:href="../../d3/dec/dfs_8hpp_source.html" target="_top" xlink:title=" ">
<polygon fill="white" stroke="#666666" points="279.5,-70 236.5,-70 236.5,-53 279.5,-53 279.5,-70"/>
<text text-anchor="middle" x="258" y="-59.6" font-family="Helvetica,sans-Serif" font-size="8.00">dfs.hpp</text>
</a>
</g>
</g>
<!-- Node1&#45;&gt;Node6 -->
<g id="edge8_Node000001_Node000006" class="edge">
<title>Node1&#45;&gt;Node6</title>
<g id="a_edge8_Node000001_Node000006"><a xlink:title=" ">
<path fill="none" stroke="#63b8ff" d="M183.51,-101.27C202.17,-91.55 227.68,-78.28 243.48,-70.06"/>
<polygon fill="#63b8ff" stroke="#63b8ff" points="181.72,-98.25 174.46,-105.97 184.95,-104.46 181.72,-98.25"/>
</a>
</g>
</g>
<!-- Node7 -->
<g id="Node000007" class="node">
<title>Node7</title>
<g id="a_Node000007"><a xlink:href="../../d1/d5a/fstar_8hpp_source.html" target="_top" xlink:title=" ">
<polygon fill="white" stroke="#666666" points="344.5,-70 297.5,-70 297.5,-53 344.5,-53 344.5,-70"/>
<text text-anchor="middle" x="321" y="-59.6" font-family="Helvetica,sans-Serif" font-size="8.00">fstar.hpp</text>
</a>
</g>
</g>
<!-- Node1&#45;&gt;Node7 -->
<g id="edge10_Node000001_Node000007" class="edge">
<title>Node1&#45;&gt;Node7</title>
<g id="a_edge10_Node000001_Node000007"><a xlink:title=" ">
<path fill="none" stroke="#63b8ff" d="M193.29,-102.95C224.36,-93.11 269.93,-78.68 297.41,-69.97"/>
<polygon fill="#63b8ff" stroke="#63b8ff" points="192.23,-99.62 183.76,-105.97 194.35,-106.29 192.23,-99.62"/>
</a>
</g>
</g>
<!-- Node2&#45;&gt;Node3 -->
<g id="edge2_Node000002_Node000003" class="edge">
<title>Node2&#45;&gt;Node3</title>
<g id="a_edge2_Node000002_Node000003"><a xlink:title=" ">
<path fill="none" stroke="#63b8ff" d="M54.59,-49.32C80.5,-39.53 117.43,-25.58 140,-17.06"/>
<polygon fill="#63b8ff" stroke="#63b8ff" points="53.04,-46.17 44.92,-52.97 55.51,-52.71 53.04,-46.17"/>
</a>
</g>
</g>
<!-- Node4&#45;&gt;Node3 -->
<g id="edge4_Node000004_Node000003" class="edge">
<title>Node4&#45;&gt;Node3</title>
<g id="a_edge4_Node000004_Node000003"><a xlink:title=" ">
<path fill="none" stroke="#63b8ff" d="M138.12,-44.36C143.86,-35.23 150.76,-24.22 155.26,-17.06"/>
<polygon fill="#63b8ff" stroke="#63b8ff" points="135.07,-42.64 132.72,-52.97 141,-46.36 135.07,-42.64"/>
</a>
</g>
</g>
<!-- Node5&#45;&gt;Node3 -->
<g id="edge6_Node000005_Node000003" class="edge">
<title>Node5&#45;&gt;Node3</title>
<g id="a_edge6_Node000005_Node000003"><a xlink:title=" ">
<path fill="none" stroke="#63b8ff" d="M182.56,-44.36C176.65,-35.23 169.53,-24.22 164.89,-17.06"/>
<polygon fill="#63b8ff" stroke="#63b8ff" points="179.76,-46.48 188.13,-52.97 185.64,-42.68 179.76,-46.48"/>
</a>
</g>
</g>
<!-- Node6&#45;&gt;Node3 -->
<g id="edge9_Node000006_Node000003" class="edge">
<title>Node6&#45;&gt;Node3</title>
<g id="a_edge9_Node000006_Node000003"><a xlink:title=" ">
<path fill="none" stroke="#63b8ff" d="M234.49,-48.27C215.83,-38.55 190.32,-25.28 174.52,-17.06"/>
<polygon fill="#63b8ff" stroke="#63b8ff" points="233.05,-51.46 243.54,-52.97 236.28,-45.25 233.05,-51.46"/>
</a>
</g>
</g>
<!-- Node7&#45;&gt;Node3 -->
<g id="edge11_Node000007_Node000003" class="edge">
<title>Node7&#45;&gt;Node3</title>
<g id="a_edge11_Node000007_Node000003"><a xlink:title=" ">
<path fill="none" stroke="#63b8ff" d="M287.71,-49.95C256.64,-40.11 211.07,-25.68 183.59,-16.97"/>
<polygon fill="#63b8ff" stroke="#63b8ff" points="286.65,-53.29 297.24,-52.97 288.77,-46.62 286.65,-53.29"/>
</a>
</g>
</g>
</g>
</svg>
