<?xml version="1.0" encoding="UTF-8" standalone="no"?>
<!DOCTYPE svg PUBLIC "-//W3C//DTD SVG 1.1//EN"
 "http://www.w3.org/Graphics/SVG/1.1/DTD/svg11.dtd">
<!-- Generated by graphviz version 2.43.0 (0)
 -->
<!-- Title: unmanaged_node.hpp Pages: 1 -->
<svg width="329pt" height="78pt"
 viewBox="0.00 0.00 328.50 78.00" xmlns="http://www.w3.org/2000/svg" xmlns:xlink="http://www.w3.org/1999/xlink">
<g id="graph0" class="graph" transform="scale(1 1) rotate(0) translate(4 74)">
<title>unmanaged_node.hpp</title>
<!-- Node1 -->
<g id="Node000001" class="node">
<title>Node1</title>
<g id="a_Node000001"><a xlink:title=" ">
<polygon fill="#999999" stroke="#666666" points="222,-70 124,-70 124,-53 222,-53 222,-70"/>
<text text-anchor="middle" x="173" y="-59.6" font-family="Helvetica,sans-Serif" font-size="8.00">unmanaged_node.hpp</text>
</a>
</g>
</g>
<!-- Node2 -->
<g id="Node000002" class="node">
<title>Node2</title>
<g id="a_Node000002"><a xlink:href="../../dc/da9/astar_8hpp.html" target="_top" xlink:title=" ">
<polygon fill="white" stroke="#666666" points="50,-17 0,-17 0,0 50,0 50,-17"/>
<text text-anchor="middle" x="25" y="-6.6" font-family="Helvetica,sans-Serif" font-size="8.00">astar.hpp</text>
</a>
</g>
</g>
<!-- Node1&#45;&gt;Node2 -->
<g id="edge1_Node000001_Node000002" class="edge">
<title>Node1&#45;&gt;Node2</title>
<g id="a_edge1_Node000001_Node000002"><a xlink:title=" ">
<path fill="none" stroke="#63b8ff" d="M141.68,-49.71C113.23,-39.9 72,-25.69 46.93,-17.06"/>
<polygon fill="#63b8ff" stroke="#63b8ff" points="140.57,-53.03 151.16,-52.97 142.85,-46.41 140.57,-53.03"/>
</a>
</g>
</g>
<!-- Node3 -->
<g id="Node000003" class="node">
<title>Node3</title>
<g id="a_Node000003"><a xlink:href="../../d3/d77/best__first_8hpp.html" target="_top" xlink:title=" ">
<polygon fill="white" stroke="#666666" points="133.5,-17 68.5,-17 68.5,0 133.5,0 133.5,-17"/>
<text text-anchor="middle" x="101" y="-6.6" font-family="Helvetica,sans-Serif" font-size="8.00">best_first.hpp</text>
</a>
</g>
</g>
<!-- Node1&#45;&gt;Node3 -->
<g id="edge2_Node000001_Node000003" class="edge">
<title>Node1&#45;&gt;Node3</title>
<g id="a_edge2_Node000001_Node000003"><a xlink:title=" ">
<path fill="none" stroke="#63b8ff" d="M154.2,-47.18C140.65,-37.58 122.85,-24.98 111.67,-17.06"/>
<polygon fill="#63b8ff" stroke="#63b8ff" points="152.19,-50.05 162.38,-52.97 156.24,-44.34 152.19,-50.05"/>
</a>
</g>
</g>
<!-- Node4 -->
<g id="Node000004" class="node">
<title>Node4</title>
<g id="a_Node000004"><a xlink:href="../../da/d36/bfs_8hpp.html" target="_top" xlink:title=" ">
<polygon fill="white" stroke="#666666" points="194.5,-17 151.5,-17 151.5,0 194.5,0 194.5,-17"/>
<text text-anchor="middle" x="173" y="-6.6" font-family="Helvetica,sans-Serif" font-size="8.00">bfs.hpp</text>
</a>
</g>
</g>
<!-- Node1&#45;&gt;Node4 -->
<g id="edge3_Node000001_Node000004" class="edge">
<title>Node1&#45;&gt;Node4</title>
<g id="a_edge3_Node000001_Node000004"><a xlink:title=" ">
<path fill="none" stroke="#63b8ff" d="M173,-42.91C173,-34.08 173,-23.85 173,-17.06"/>
<polygon fill="#63b8ff" stroke="#63b8ff" points="169.5,-42.97 173,-52.97 176.5,-42.97 169.5,-42.97"/>
</a>
</g>
</g>
<!-- Node5 -->
<g id="Node000005" class="node">
<title>Node5</title>
<g id="a_Node000005"><a xlink:href="../../d3/dec/dfs_8hpp.html" target="_top" xlink:title=" ">
<polygon fill="white" stroke="#666666" points="255.5,-17 212.5,-17 212.5,0 255.5,0 255.5,-17"/>
<text text-anchor="middle" x="234" y="-6.6" font-family="Helvetica,sans-Serif" font-size="8.00">dfs.hpp</text>
</a>
</g>
</g>
<!-- Node1&#45;&gt;Node5 -->
<g id="edge4_Node000001_Node000005" class="edge">
<title>Node1&#45;&gt;Node5</title>
<g id="a_edge4_Node000001_Node000005"><a xlink:title=" ">
<path fill="none" stroke="#63b8ff" d="M189.92,-46.35C201.27,-36.87 215.76,-24.75 224.96,-17.06"/>
<polygon fill="#63b8ff" stroke="#63b8ff" points="187.43,-43.88 182,-52.97 191.92,-49.25 187.43,-43.88"/>
</a>
</g>
</g>
<!-- Node6 -->
<g id="Node000006" class="node">
<title>Node6</title>
<g id="a_Node000006"><a xlink:href="../../d1/d5a/fstar_8hpp.html" target="_top" xlink:title=" ">
<polygon fill="white" stroke="#666666" points="320.5,-17 273.5,-17 273.5,0 320.5,0 320.5,-17"/>
<text text-anchor="middle" x="297" y="-6.6" font-family="Helvetica,sans-Serif" font-size="8.00">fstar.hpp</text>
</a>
</g>
</g>
<!-- Node1&#45;&gt;Node6 -->
<g id="edge5_Node000001_Node000006" class="edge">
<title>Node1&#45;&gt;Node6</title>
<g id="a_edge5_Node000001_Node000006"><a xlink:title=" ">
<path fill="none" stroke="#63b8ff" d="M200.82,-49.06C224.58,-39.29 258.08,-25.51 278.63,-17.06"/>
<polygon fill="#63b8ff" stroke="#63b8ff" points="199.21,-45.93 191.3,-52.97 201.88,-52.41 199.21,-45.93"/>
</a>
</g>
</g>
</g>
</svg>
