<?xml version="1.0" encoding="UTF-8" standalone="no"?>
<!DOCTYPE svg PUBLIC "-//W3C//DTD SVG 1.1//EN"
 "http://www.w3.org/Graphics/SVG/1.1/DTD/svg11.dtd">
<!-- Generated by graphviz version 2.43.0 (0)
 -->
<!-- Title: managed_node.hpp Pages: 1 -->
<svg width="750pt" height="237pt"
 viewBox="0.00 0.00 750.00 237.00" xmlns="http://www.w3.org/2000/svg" xmlns:xlink="http://www.w3.org/1999/xlink">
<g id="graph0" class="graph" transform="scale(1 1) rotate(0) translate(4 233)">
<title>managed_node.hpp</title>
<!-- Node1 -->
<g id="Node000001" class="node">
<title>Node1</title>
<g id="a_Node000001"><a xlink:title=" ">
<polygon fill="#999999" stroke="#666666" points="529.5,-229 440.5,-229 440.5,-212 529.5,-212 529.5,-229"/>
<text text-anchor="middle" x="485" y="-218.6" font-family="Helvetica,sans-Serif" font-size="8.00">managed_node.hpp</text>
</a>
</g>
</g>
<!-- Node2 -->
<g id="Node000002" class="node">
<title>Node2</title>
<g id="a_Node000002"><a xlink:title=" ">
<polygon fill="#e0e0e0" stroke="#999999" points="42,-123 0,-123 0,-106 42,-106 42,-123"/>
<text text-anchor="middle" x="21" y="-112.6" font-family="Helvetica,sans-Serif" font-size="8.00">cassert</text>
</a>
</g>
</g>
<!-- Node1&#45;&gt;Node2 -->
<g id="edge1_Node000001_Node000002" class="edge">
<title>Node1&#45;&gt;Node2</title>
<g id="a_edge1_Node000001_Node000002"><a xlink:title=" ">
<path fill="none" stroke="#63b8ff" d="M440.15,-214.43C385.73,-207.81 291.4,-194.79 212,-176 154.14,-162.31 88.4,-139.93 51.09,-126.57"/>
<polygon fill="#63b8ff" stroke="#63b8ff" points="51.95,-123.15 41.35,-123.05 49.57,-129.74 51.95,-123.15"/>
</a>
</g>
</g>
<!-- Node3 -->
<g id="Node000003" class="node">
<title>Node3</title>
<g id="a_Node000003"><a xlink:href="../../dc/d3c/bnode_8hpp.html" target="_top" xlink:title=" ">
<polygon fill="white" stroke="#666666" points="727.5,-176 672.5,-176 672.5,-159 727.5,-159 727.5,-176"/>
<text text-anchor="middle" x="700" y="-165.6" font-family="Helvetica,sans-Serif" font-size="8.00">bnode.hpp</text>
</a>
</g>
</g>
<!-- Node1&#45;&gt;Node3 -->
<g id="edge2_Node000001_Node000003" class="edge">
<title>Node1&#45;&gt;Node3</title>
<g id="a_edge2_Node000001_Node000003"><a xlink:title=" ">
<path fill="none" stroke="#63b8ff" d="M516.72,-211.97C555.49,-202.78 621,-187.24 662.3,-177.44"/>
<polygon fill="#63b8ff" stroke="#63b8ff" points="663.33,-180.8 672.25,-175.08 661.71,-173.99 663.33,-180.8"/>
</a>
</g>
</g>
<!-- Node4 -->
<g id="Node000004" class="node">
<title>Node4</title>
<g id="a_Node000004"><a xlink:href="../../d9/df8/heterogeneous__pool_8hpp.html" target="_top" xlink:title=" ">
<polygon fill="white" stroke="#666666" points="378.5,-176 221.5,-176 221.5,-159 378.5,-159 378.5,-176"/>
<text text-anchor="middle" x="300" y="-165.6" font-family="Helvetica,sans-Serif" font-size="8.00">../../types/pmr/heterogeneous_pool.hpp</text>
</a>
</g>
</g>
<!-- Node1&#45;&gt;Node4 -->
<g id="edge3_Node000001_Node000004" class="edge">
<title>Node1&#45;&gt;Node4</title>
<g id="a_edge3_Node000001_Node000004"><a xlink:title=" ">
<path fill="none" stroke="#63b8ff" d="M457.7,-211.97C425.87,-203.2 373.07,-188.64 337.43,-178.82"/>
<polygon fill="#63b8ff" stroke="#63b8ff" points="337.98,-175.34 327.41,-176.06 336.12,-182.09 337.98,-175.34"/>
</a>
</g>
</g>
<!-- Node13 -->
<g id="Node000013" class="node">
<title>Node13</title>
<g id="a_Node000013"><a xlink:href="../../d7/d65/intrinsics_8hpp.html" target="_top" xlink:title=" ">
<polygon fill="white" stroke="#666666" points="741,-70 649,-70 649,-53 741,-53 741,-70"/>
<text text-anchor="middle" x="695" y="-59.6" font-family="Helvetica,sans-Serif" font-size="8.00">../../utils/intrinsics.hpp</text>
</a>
</g>
</g>
<!-- Node1&#45;&gt;Node13 -->
<g id="edge26_Node000001_Node000013" class="edge">
<title>Node1&#45;&gt;Node13</title>
<g id="a_edge26_Node000001_Node000013"><a xlink:title=" ">
<path fill="none" stroke="#63b8ff" d="M495.9,-211.92C518.9,-195.86 573.98,-157.1 619,-123 639.45,-107.51 662.44,-89.06 677.72,-76.64"/>
<polygon fill="#63b8ff" stroke="#63b8ff" points="680.21,-79.13 685.75,-70.1 675.79,-73.7 680.21,-79.13"/>
</a>
</g>
</g>
<!-- Node4&#45;&gt;Node2 -->
<g id="edge4_Node000004_Node000002" class="edge">
<title>Node4&#45;&gt;Node2</title>
<g id="a_edge4_Node000004_Node000002"><a xlink:title=" ">
<path fill="none" stroke="#63b8ff" d="M254.94,-158.95C205.91,-150.62 125.25,-136.59 56,-123 54.73,-122.75 53.44,-122.49 52.13,-122.23"/>
<polygon fill="#63b8ff" stroke="#63b8ff" points="52.58,-118.75 42.07,-120.14 51.15,-125.6 52.58,-118.75"/>
</a>
</g>
</g>
<!-- Node5 -->
<g id="Node000005" class="node">
<title>Node5</title>
<g id="a_Node000005"><a xlink:title=" ">
<polygon fill="#e0e0e0" stroke="#999999" points="588,-17 546,-17 546,0 588,0 588,-17"/>
<text text-anchor="middle" x="567" y="-6.6" font-family="Helvetica,sans-Serif" font-size="8.00">cstddef</text>
</a>
</g>
</g>
<!-- Node4&#45;&gt;Node5 -->
<g id="edge5_Node000004_Node000005" class="edge">
<title>Node4&#45;&gt;Node5</title>
<g id="a_edge5_Node000004_Node000005"><a xlink:title=" ">
<path fill="none" stroke="#63b8ff" d="M221.44,-160.52C168.64,-154.68 105.75,-143.55 89,-123 84.23,-117.14 84.59,-112.14 89,-106 141.64,-32.67 438.28,-14.55 535.87,-10.54"/>
<polygon fill="#63b8ff" stroke="#63b8ff" points="536.13,-14.03 545.99,-10.15 535.86,-7.04 536.13,-14.03"/>
</a>
</g>
</g>
<!-- Node6 -->
<g id="Node000006" class="node">
<title>Node6</title>
<g id="a_Node000006"><a xlink:title=" ">
<polygon fill="#e0e0e0" stroke="#999999" points="137.5,-123 98.5,-123 98.5,-106 137.5,-106 137.5,-123"/>
<text text-anchor="middle" x="118" y="-112.6" font-family="Helvetica,sans-Serif" font-size="8.00">cstdint</text>
</a>
</g>
</g>
<!-- Node4&#45;&gt;Node6 -->
<g id="edge6_Node000004_Node000006" class="edge">
<title>Node4&#45;&gt;Node6</title>
<g id="a_edge6_Node000004_Node000006"><a xlink:title=" ">
<path fill="none" stroke="#63b8ff" d="M273.15,-158.97C239.63,-149.58 182.5,-133.57 147.71,-123.82"/>
<polygon fill="#63b8ff" stroke="#63b8ff" points="148.25,-120.34 137.68,-121.01 146.36,-127.08 148.25,-120.34"/>
</a>
</g>
</g>
<!-- Node7 -->
<g id="Node000007" class="node">
<title>Node7</title>
<g id="a_Node000007"><a xlink:title=" ">
<polygon fill="#e0e0e0" stroke="#999999" points="289,-70 255,-70 255,-53 289,-53 289,-70"/>
<text text-anchor="middle" x="272" y="-59.6" font-family="Helvetica,sans-Serif" font-size="8.00">limits</text>
</a>
</g>
</g>
<!-- Node4&#45;&gt;Node7 -->
<g id="edge7_Node000004_Node000007" class="edge">
<title>Node4&#45;&gt;Node7</title>
<g id="a_edge7_Node000004_Node000007"><a xlink:title=" ">
<path fill="none" stroke="#63b8ff" d="M378.72,-160.47C429.18,-153.45 480.78,-138.37 455,-106 412.31,-52.41 371.01,-84.84 298.92,-69.87"/>
<polygon fill="#63b8ff" stroke="#63b8ff" points="299.56,-66.43 289.03,-67.56 297.97,-73.24 299.56,-66.43"/>
</a>
</g>
</g>
<!-- Node8 -->
<g id="Node000008" class="node">
<title>Node8</title>
<g id="a_Node000008"><a xlink:title=" ">
<polygon fill="#e0e0e0" stroke="#999999" points="188,-123 156,-123 156,-106 188,-106 188,-123"/>
<text text-anchor="middle" x="172" y="-112.6" font-family="Helvetica,sans-Serif" font-size="8.00">map</text>
</a>
</g>
</g>
<!-- Node4&#45;&gt;Node8 -->
<g id="edge8_Node000004_Node000008" class="edge">
<title>Node4&#45;&gt;Node8</title>
<g id="a_edge8_Node000004_Node000008"><a xlink:title=" ">
<path fill="none" stroke="#63b8ff" d="M281.11,-158.97C258.99,-150.16 222.23,-135.51 197.56,-125.68"/>
<polygon fill="#63b8ff" stroke="#63b8ff" points="198.71,-122.38 188.13,-121.93 196.12,-128.88 198.71,-122.38"/>
</a>
</g>
</g>
<!-- Node9 -->
<g id="Node000009" class="node">
<title>Node9</title>
<g id="a_Node000009"><a xlink:title=" ">
<polygon fill="#e0e0e0" stroke="#999999" points="238,-123 206,-123 206,-106 238,-106 238,-123"/>
<text text-anchor="middle" x="222" y="-112.6" font-family="Helvetica,sans-Serif" font-size="8.00">new</text>
</a>
</g>
</g>
<!-- Node4&#45;&gt;Node9 -->
<g id="edge9_Node000004_Node000009" class="edge">
<title>Node4&#45;&gt;Node9</title>
<g id="a_edge9_Node000004_Node000009"><a xlink:title=" ">
<path fill="none" stroke="#63b8ff" d="M288.49,-158.97C276.28,-150.99 256.75,-138.22 242.01,-128.58"/>
<polygon fill="#63b8ff" stroke="#63b8ff" points="243.84,-125.6 233.56,-123.06 240.01,-131.46 243.84,-125.6"/>
</a>
</g>
</g>
<!-- Node10 -->
<g id="Node000010" class="node">
<title>Node10</title>
<g id="a_Node000010"><a xlink:title=" ">
<polygon fill="#e0e0e0" stroke="#999999" points="290,-123 256,-123 256,-106 290,-106 290,-123"/>
<text text-anchor="middle" x="273" y="-112.6" font-family="Helvetica,sans-Serif" font-size="8.00">utility</text>
</a>
</g>
</g>
<!-- Node4&#45;&gt;Node10 -->
<g id="edge10_Node000004_Node000010" class="edge">
<title>Node4&#45;&gt;Node10</title>
<g id="a_edge10_Node000004_Node000010"><a xlink:title=" ">
<path fill="none" stroke="#63b8ff" d="M296.02,-158.97C292.27,-151.89 286.53,-141.05 281.72,-131.96"/>
<polygon fill="#63b8ff" stroke="#63b8ff" points="284.77,-130.26 277,-123.06 278.59,-133.53 284.77,-130.26"/>
</a>
</g>
</g>
<!-- Node11 -->
<g id="Node000011" class="node">
<title>Node11</title>
<g id="a_Node000011"><a xlink:title=" ">
<polygon fill="#e0e0e0" stroke="#999999" points="346,-123 308,-123 308,-106 346,-106 346,-123"/>
<text text-anchor="middle" x="327" y="-112.6" font-family="Helvetica,sans-Serif" font-size="8.00">vector</text>
</a>
</g>
</g>
<!-- Node4&#45;&gt;Node11 -->
<g id="edge11_Node000004_Node000011" class="edge">
<title>Node4&#45;&gt;Node11</title>
<g id="a_edge11_Node000004_Node000011"><a xlink:title=" ">
<path fill="none" stroke="#63b8ff" d="M303.98,-158.97C307.73,-151.89 313.47,-141.05 318.28,-131.96"/>
<polygon fill="#63b8ff" stroke="#63b8ff" points="321.41,-133.53 323,-123.06 315.23,-130.26 321.41,-133.53"/>
</a>
</g>
</g>
<!-- Node12 -->
<g id="Node000012" class="node">
<title>Node12</title>
<g id="a_Node000012"><a xlink:title=" ">
<polygon fill="#e0e0e0" stroke="#999999" points="446,-123 364,-123 364,-106 446,-106 446,-123"/>
<text text-anchor="middle" x="405" y="-112.6" font-family="Helvetica,sans-Serif" font-size="8.00">memory_resource</text>
</a>
</g>
</g>
<!-- Node4&#45;&gt;Node12 -->
<g id="edge12_Node000004_Node000012" class="edge">
<title>Node4&#45;&gt;Node12</title>
<g id="a_edge12_Node000004_Node000012"><a xlink:title=" ">
<path fill="none" stroke="#63b8ff" d="M315.49,-158.97C332.55,-150.69 360.22,-137.25 380.28,-127.5"/>
<polygon fill="#63b8ff" stroke="#63b8ff" points="381.98,-130.57 389.44,-123.06 378.92,-124.28 381.98,-130.57"/>
</a>
</g>
</g>
<!-- Node4&#45;&gt;Node13 -->
<g id="edge13_Node000004_Node000013" class="edge">
<title>Node4&#45;&gt;Node13</title>
<g id="a_edge13_Node000004_Node000013"><a xlink:title=" ">
<path fill="none" stroke="#63b8ff" d="M378.55,-162.23C437.27,-157.22 518.84,-146.39 587,-123 620.47,-111.52 655.56,-89.78 676.34,-75.73"/>
<polygon fill="#63b8ff" stroke="#63b8ff" points="678.33,-78.61 684.57,-70.05 674.35,-72.85 678.33,-78.61"/>
</a>
</g>
</g>
<!-- Node16 -->
<g id="Node000016" class="node">
<title>Node16</title>
<g id="a_Node000016"><a xlink:href="../../df/d93/utils_8hpp.html" target="_top" xlink:title=" ">
<polygon fill="white" stroke="#666666" points="577.5,-123 502.5,-123 502.5,-106 577.5,-106 577.5,-123"/>
<text text-anchor="middle" x="540" y="-112.6" font-family="Helvetica,sans-Serif" font-size="8.00">../../utils/utils.hpp</text>
</a>
</g>
</g>
<!-- Node4&#45;&gt;Node16 -->
<g id="edge17_Node000004_Node000016" class="edge">
<title>Node4&#45;&gt;Node16</title>
<g id="a_edge17_Node000004_Node000016"><a xlink:title=" ">
<path fill="none" stroke="#63b8ff" d="M335.41,-158.97C377.6,-150.01 448.16,-135.02 494.39,-125.19"/>
<polygon fill="#63b8ff" stroke="#63b8ff" points="495.39,-128.56 504.44,-123.06 493.93,-121.71 495.39,-128.56"/>
</a>
</g>
</g>
<!-- Node13&#45;&gt;Node5 -->
<g id="edge15_Node000013_Node000005" class="edge">
<title>Node13&#45;&gt;Node5</title>
<g id="a_edge15_Node000013_Node000005"><a xlink:title=" ">
<path fill="none" stroke="#63b8ff" d="M676.11,-52.97C654.84,-44.5 620.05,-30.64 595.48,-20.85"/>
<polygon fill="#63b8ff" stroke="#63b8ff" points="596.55,-17.51 585.96,-17.06 593.96,-24.01 596.55,-17.51"/>
</a>
</g>
</g>
<!-- Node14 -->
<g id="Node000014" class="node">
<title>Node14</title>
<g id="a_Node000014"><a xlink:title=" ">
<polygon fill="#e0e0e0" stroke="#999999" points="686,-17 646,-17 646,0 686,0 686,-17"/>
<text text-anchor="middle" x="666" y="-6.6" font-family="Helvetica,sans-Serif" font-size="8.00">atomic</text>
</a>
</g>
</g>
<!-- Node13&#45;&gt;Node14 -->
<g id="edge14_Node000013_Node000014" class="edge">
<title>Node13&#45;&gt;Node14</title>
<g id="a_edge14_Node000013_Node000014"><a xlink:title=" ">
<path fill="none" stroke="#63b8ff" d="M690.72,-52.97C686.69,-45.89 680.53,-35.05 675.36,-25.96"/>
<polygon fill="#63b8ff" stroke="#63b8ff" points="678.28,-24.02 670.3,-17.06 672.2,-27.48 678.28,-24.02"/>
</a>
</g>
</g>
<!-- Node15 -->
<g id="Node000015" class="node">
<title>Node15</title>
<g id="a_Node000015"><a xlink:title=" ">
<polygon fill="#e0e0e0" stroke="#999999" points="742,-17 704,-17 704,0 742,0 742,-17"/>
<text text-anchor="middle" x="723" y="-6.6" font-family="Helvetica,sans-Serif" font-size="8.00">cstdlib</text>
</a>
</g>
</g>
<!-- Node13&#45;&gt;Node15 -->
<g id="edge16_Node000013_Node000015" class="edge">
<title>Node13&#45;&gt;Node15</title>
<g id="a_edge16_Node000013_Node000015"><a xlink:title=" ">
<path fill="none" stroke="#63b8ff" d="M699.13,-52.97C703.02,-45.89 708.97,-35.05 713.96,-25.96"/>
<polygon fill="#63b8ff" stroke="#63b8ff" points="717.11,-27.51 718.85,-17.06 710.97,-24.14 717.11,-27.51"/>
</a>
</g>
</g>
<!-- Node16&#45;&gt;Node5 -->
<g id="edge20_Node000016_Node000005" class="edge">
<title>Node16&#45;&gt;Node5</title>
<g id="a_edge20_Node000016_Node000005"><a xlink:title=" ">
<path fill="none" stroke="#63b8ff" d="M542.03,-105.68C546.35,-89.04 556.55,-49.75 562.49,-26.87"/>
<polygon fill="#63b8ff" stroke="#63b8ff" points="565.9,-27.68 565.02,-17.12 559.12,-25.92 565.9,-27.68"/>
</a>
</g>
</g>
<!-- Node16&#45;&gt;Node7 -->
<g id="edge22_Node000016_Node000007" class="edge">
<title>Node16&#45;&gt;Node7</title>
<g id="a_edge22_Node000016_Node000007"><a xlink:title=" ">
<path fill="none" stroke="#63b8ff" d="M502.44,-107.98C456.62,-100.97 376.61,-87.87 299.19,-70.06"/>
<polygon fill="#63b8ff" stroke="#63b8ff" points="299.81,-66.61 289.28,-67.75 298.22,-73.43 299.81,-66.61"/>
</a>
</g>
</g>
<!-- Node16&#45;&gt;Node13 -->
<g id="edge25_Node000016_Node000013" class="edge">
<title>Node16&#45;&gt;Node13</title>
<g id="a_edge25_Node000016_Node000013"><a xlink:title=" ">
<path fill="none" stroke="#63b8ff" d="M562.87,-105.97C589.2,-97.31 632.64,-83.02 662.48,-73.2"/>
<polygon fill="#63b8ff" stroke="#63b8ff" points="663.63,-76.51 672.04,-70.06 661.44,-69.86 663.63,-76.51"/>
</a>
</g>
</g>
<!-- Node17 -->
<g id="Node000017" class="node">
<title>Node17</title>
<g id="a_Node000017"><a xlink:title=" ">
<polygon fill="#e0e0e0" stroke="#999999" points="630.5,-70 595.5,-70 595.5,-53 630.5,-53 630.5,-70"/>
<text text-anchor="middle" x="613" y="-59.6" font-family="Helvetica,sans-Serif" font-size="8.00">array</text>
</a>
</g>
</g>
<!-- Node16&#45;&gt;Node17 -->
<g id="edge18_Node000016_Node000017" class="edge">
<title>Node16&#45;&gt;Node17</title>
<g id="a_edge18_Node000016_Node000017"><a xlink:title=" ">
<path fill="none" stroke="#63b8ff" d="M550.77,-105.97C562.09,-98.07 580.13,-85.46 593.88,-75.86"/>
<polygon fill="#63b8ff" stroke="#63b8ff" points="595.99,-78.65 602.18,-70.06 591.98,-72.91 595.99,-78.65"/>
</a>
</g>
</g>
<!-- Node18 -->
<g id="Node000018" class="node">
<title>Node18</title>
<g id="a_Node000018"><a xlink:title=" ">
<polygon fill="#e0e0e0" stroke="#999999" points="345,-70 307,-70 307,-53 345,-53 345,-70"/>
<text text-anchor="middle" x="326" y="-59.6" font-family="Helvetica,sans-Serif" font-size="8.00">cmath</text>
</a>
</g>
</g>
<!-- Node16&#45;&gt;Node18 -->
<g id="edge19_Node000016_Node000018" class="edge">
<title>Node16&#45;&gt;Node18</title>
<g id="a_edge19_Node000016_Node000018"><a xlink:title=" ">
<path fill="none" stroke="#63b8ff" d="M506.32,-105.96C470.97,-97.98 413.54,-84.8 355.04,-70.2"/>
<polygon fill="#63b8ff" stroke="#63b8ff" points="355.81,-66.78 345.26,-67.75 354.11,-73.57 355.81,-66.78"/>
</a>
</g>
</g>
<!-- Node19 -->
<g id="Node000019" class="node">
<title>Node19</title>
<g id="a_Node000019"><a xlink:title=" ">
<polygon fill="#e0e0e0" stroke="#999999" points="413,-70 363,-70 363,-53 413,-53 413,-70"/>
<text text-anchor="middle" x="388" y="-59.6" font-family="Helvetica,sans-Serif" font-size="8.00">functional</text>
</a>
</g>
</g>
<!-- Node16&#45;&gt;Node19 -->
<g id="edge21_Node000016_Node000019" class="edge">
<title>Node16&#45;&gt;Node19</title>
<g id="a_edge21_Node000016_Node000019"><a xlink:title=" ">
<path fill="none" stroke="#63b8ff" d="M517.57,-105.97C491.86,-97.35 449.52,-83.14 420.27,-73.33"/>
<polygon fill="#63b8ff" stroke="#63b8ff" points="421.11,-69.92 410.52,-70.06 418.89,-76.56 421.11,-69.92"/>
</a>
</g>
</g>
<!-- Node20 -->
<g id="Node000020" class="node">
<title>Node20</title>
<g id="a_Node000020"><a xlink:title=" ">
<polygon fill="#e0e0e0" stroke="#999999" points="467,-70 431,-70 431,-53 467,-53 467,-70"/>
<text text-anchor="middle" x="449" y="-59.6" font-family="Helvetica,sans-Serif" font-size="8.00">string</text>
</a>
</g>
</g>
<!-- Node16&#45;&gt;Node20 -->
<g id="edge23_Node000016_Node000020" class="edge">
<title>Node16&#45;&gt;Node20</title>
<g id="a_edge23_Node000016_Node000020"><a xlink:title=" ">
<path fill="none" stroke="#63b8ff" d="M526.57,-105.97C512.06,-97.84 488.68,-84.74 471.37,-75.04"/>
<polygon fill="#63b8ff" stroke="#63b8ff" points="472.92,-71.89 462.48,-70.06 469.49,-78 472.92,-71.89"/>
</a>
</g>
</g>
<!-- Node21 -->
<g id="Node000021" class="node">
<title>Node21</title>
<g id="a_Node000021"><a xlink:title=" ">
<polygon fill="#e0e0e0" stroke="#999999" points="538.5,-70 485.5,-70 485.5,-53 538.5,-53 538.5,-70"/>
<text text-anchor="middle" x="512" y="-59.6" font-family="Helvetica,sans-Serif" font-size="8.00">type_traits</text>
</a>
</g>
</g>
<!-- Node16&#45;&gt;Node21 -->
<g id="edge24_Node000016_Node000021" class="edge">
<title>Node16&#45;&gt;Node21</title>
<g id="a_edge24_Node000016_Node000021"><a xlink:title=" ">
<path fill="none" stroke="#63b8ff" d="M535.87,-105.97C531.98,-98.89 526.03,-88.05 521.04,-78.96"/>
<polygon fill="#63b8ff" stroke="#63b8ff" points="524.03,-77.14 516.15,-70.06 517.89,-80.51 524.03,-77.14"/>
</a>
</g>
</g>
</g>
</svg>
