<?xml version="1.0" encoding="UTF-8" standalone="no"?>
<!DOCTYPE svg PUBLIC "-//W3C//DTD SVG 1.1//EN"
 "http://www.w3.org/Graphics/SVG/1.1/DTD/svg11.dtd">
<!-- Generated by graphviz version 2.43.0 (0)
 -->
<!-- Title: managed_node.hpp Pages: 1 -->
<svg width="746pt" height="237pt"
 viewBox="0.00 0.00 746.00 237.00" xmlns="http://www.w3.org/2000/svg" xmlns:xlink="http://www.w3.org/1999/xlink">
<g id="graph0" class="graph" transform="scale(1 1) rotate(0) translate(4 233)">
<title>managed_node.hpp</title>
<!-- Node1 -->
<g id="Node000001" class="node">
<title>Node1</title>
<g id="a_Node000001"><a xlink:title=" ">
<polygon fill="#999999" stroke="#666666" points="263.5,-229 174.5,-229 174.5,-212 263.5,-212 263.5,-229"/>
<text text-anchor="middle" x="219" y="-218.6" font-family="Helvetica,sans-Serif" font-size="8.00">managed_node.hpp</text>
</a>
</g>
</g>
<!-- Node2 -->
<g id="Node000002" class="node">
<title>Node2</title>
<g id="a_Node000002"><a xlink:title=" ">
<polygon fill="#e0e0e0" stroke="#999999" points="42,-123 0,-123 0,-106 42,-106 42,-123"/>
<text text-anchor="middle" x="21" y="-112.6" font-family="Helvetica,sans-Serif" font-size="8.00">cassert</text>
</a>
</g>
</g>
<!-- Node1&#45;&gt;Node2 -->
<g id="edge1_Node000001_Node000002" class="edge">
<title>Node1&#45;&gt;Node2</title>
<g id="a_edge1_Node000001_Node000002"><a xlink:title=" ">
<path fill="none" stroke="#63b8ff" d="M199.66,-211.91C179.44,-203.76 146.96,-190.08 120,-176 91.64,-161.19 60.36,-141.47 40.7,-128.63"/>
<polygon fill="#63b8ff" stroke="#63b8ff" points="42.57,-125.67 32.29,-123.09 38.72,-131.52 42.57,-125.67"/>
</a>
</g>
</g>
<!-- Node3 -->
<g id="Node000003" class="node">
<title>Node3</title>
<g id="a_Node000003"><a xlink:href="../../dc/d3c/bnode_8hpp.html" target="_top" xlink:title=" ">
<polygon fill="white" stroke="#666666" points="184.5,-176 129.5,-176 129.5,-159 184.5,-159 184.5,-176"/>
<text text-anchor="middle" x="157" y="-165.6" font-family="Helvetica,sans-Serif" font-size="8.00">bnode.hpp</text>
</a>
</g>
</g>
<!-- Node1&#45;&gt;Node3 -->
<g id="edge2_Node000001_Node000003" class="edge">
<title>Node1&#45;&gt;Node3</title>
<g id="a_edge2_Node000001_Node000003"><a xlink:title=" ">
<path fill="none" stroke="#63b8ff" d="M209.85,-211.97C200.51,-204.29 185.78,-192.18 174.25,-182.69"/>
<polygon fill="#63b8ff" stroke="#63b8ff" points="176.13,-179.71 166.19,-176.06 171.69,-185.11 176.13,-179.71"/>
</a>
</g>
</g>
<!-- Node4 -->
<g id="Node000004" class="node">
<title>Node4</title>
<g id="a_Node000004"><a xlink:href="../../d9/df8/heterogeneous__pool_8hpp_source.html" target="_top" xlink:title=" ">
<polygon fill="white" stroke="#666666" points="359.5,-176 202.5,-176 202.5,-159 359.5,-159 359.5,-176"/>
<text text-anchor="middle" x="281" y="-165.6" font-family="Helvetica,sans-Serif" font-size="8.00">../../types/pmr/heterogeneous_pool.hpp</text>
</a>
</g>
</g>
<!-- Node1&#45;&gt;Node4 -->
<g id="edge3_Node000001_Node000004" class="edge">
<title>Node1&#45;&gt;Node4</title>
<g id="a_edge3_Node000001_Node000004"><a xlink:title=" ">
<path fill="none" stroke="#63b8ff" d="M228.15,-211.97C237.49,-204.29 252.22,-192.18 263.75,-182.69"/>
<polygon fill="#63b8ff" stroke="#63b8ff" points="266.31,-185.11 271.81,-176.06 261.87,-179.71 266.31,-185.11"/>
</a>
</g>
</g>
<!-- Node11 -->
<g id="Node000011" class="node">
<title>Node11</title>
<g id="a_Node000011"><a xlink:href="../../d7/d65/intrinsics_8hpp.html" target="_top" xlink:title=" ">
<polygon fill="white" stroke="#666666" points="738,-70 646,-70 646,-53 738,-53 738,-70"/>
<text text-anchor="middle" x="692" y="-59.6" font-family="Helvetica,sans-Serif" font-size="8.00">../../utils/intrinsics.hpp</text>
</a>
</g>
</g>
<!-- Node1&#45;&gt;Node11 -->
<g id="edge22_Node000001_Node000011" class="edge">
<title>Node1&#45;&gt;Node11</title>
<g id="a_edge22_Node000001_Node000011"><a xlink:title=" ">
<path fill="none" stroke="#63b8ff" d="M256.61,-211.98C322.33,-198.25 461.74,-166.49 574,-123 609.09,-109.4 647.49,-88.5 670.65,-75.17"/>
<polygon fill="#63b8ff" stroke="#63b8ff" points="672.43,-78.18 679.31,-70.13 668.91,-72.13 672.43,-78.18"/>
</a>
</g>
</g>
<!-- Node4&#45;&gt;Node2 -->
<g id="edge4_Node000004_Node000002" class="edge">
<title>Node4&#45;&gt;Node2</title>
<g id="a_edge4_Node000004_Node000002"><a xlink:title=" ">
<path fill="none" stroke="#63b8ff" d="M237.18,-158.99C192.88,-151.23 122.21,-138.37 52.15,-123.14"/>
<polygon fill="#63b8ff" stroke="#63b8ff" points="52.79,-119.7 42.27,-120.98 51.29,-126.54 52.79,-119.7"/>
</a>
</g>
</g>
<!-- Node5 -->
<g id="Node000005" class="node">
<title>Node5</title>
<g id="a_Node000005"><a xlink:title=" ">
<polygon fill="#e0e0e0" stroke="#999999" points="351,-17 309,-17 309,0 351,0 351,-17"/>
<text text-anchor="middle" x="330" y="-6.6" font-family="Helvetica,sans-Serif" font-size="8.00">cstddef</text>
</a>
</g>
</g>
<!-- Node4&#45;&gt;Node5 -->
<g id="edge5_Node000004_Node000005" class="edge">
<title>Node4&#45;&gt;Node5</title>
<g id="a_edge5_Node000004_Node000005"><a xlink:title=" ">
<path fill="none" stroke="#63b8ff" d="M287.15,-158.99C293.61,-150.69 303.57,-136.69 309,-123 321.77,-90.8 326.87,-50.33 328.83,-27.45"/>
<polygon fill="#63b8ff" stroke="#63b8ff" points="332.34,-27.45 329.6,-17.22 325.36,-26.93 332.34,-27.45"/>
</a>
</g>
</g>
<!-- Node6 -->
<g id="Node000006" class="node">
<title>Node6</title>
<g id="a_Node000006"><a xlink:title=" ">
<polygon fill="#e0e0e0" stroke="#999999" points="564.5,-123 525.5,-123 525.5,-106 564.5,-106 564.5,-123"/>
<text text-anchor="middle" x="545" y="-112.6" font-family="Helvetica,sans-Serif" font-size="8.00">cstdint</text>
</a>
</g>
</g>
<!-- Node4&#45;&gt;Node6 -->
<g id="edge6_Node000004_Node000006" class="edge">
<title>Node4&#45;&gt;Node6</title>
<g id="a_edge6_Node000004_Node000006"><a xlink:title=" ">
<path fill="none" stroke="#63b8ff" d="M323.04,-158.94C369.22,-150.55 445.51,-136.41 511,-123 512.44,-122.7 513.92,-122.4 515.41,-122.08"/>
<polygon fill="#63b8ff" stroke="#63b8ff" points="516.21,-125.49 525.24,-119.96 514.73,-118.65 516.21,-125.49"/>
</a>
</g>
</g>
<!-- Node7 -->
<g id="Node000007" class="node">
<title>Node7</title>
<g id="a_Node000007"><a xlink:title=" ">
<polygon fill="#e0e0e0" stroke="#999999" points="92,-123 60,-123 60,-106 92,-106 92,-123"/>
<text text-anchor="middle" x="76" y="-112.6" font-family="Helvetica,sans-Serif" font-size="8.00">map</text>
</a>
</g>
</g>
<!-- Node4&#45;&gt;Node7 -->
<g id="edge7_Node000004_Node000007" class="edge">
<title>Node4&#45;&gt;Node7</title>
<g id="a_edge7_Node000004_Node000007"><a xlink:title=" ">
<path fill="none" stroke="#63b8ff" d="M247.35,-158.94C213.07,-151.12 158.16,-138.24 101.88,-123.12"/>
<polygon fill="#63b8ff" stroke="#63b8ff" points="102.67,-119.7 92.1,-120.47 100.84,-126.46 102.67,-119.7"/>
</a>
</g>
</g>
<!-- Node8 -->
<g id="Node000008" class="node">
<title>Node8</title>
<g id="a_Node000008"><a xlink:title=" ">
<polygon fill="#e0e0e0" stroke="#999999" points="192,-123 110,-123 110,-106 192,-106 192,-123"/>
<text text-anchor="middle" x="151" y="-112.6" font-family="Helvetica,sans-Serif" font-size="8.00">memory_resource</text>
</a>
</g>
</g>
<!-- Node4&#45;&gt;Node8 -->
<g id="edge8_Node000004_Node000008" class="edge">
<title>Node4&#45;&gt;Node8</title>
<g id="a_edge8_Node000004_Node000008"><a xlink:title=" ">
<path fill="none" stroke="#63b8ff" d="M261.82,-158.97C240.12,-150.46 204.56,-136.51 179.59,-126.72"/>
<polygon fill="#63b8ff" stroke="#63b8ff" points="180.85,-123.45 170.26,-123.06 178.29,-129.97 180.85,-123.45"/>
</a>
</g>
</g>
<!-- Node9 -->
<g id="Node000009" class="node">
<title>Node9</title>
<g id="a_Node000009"><a xlink:title=" ">
<polygon fill="#e0e0e0" stroke="#999999" points="244,-123 210,-123 210,-106 244,-106 244,-123"/>
<text text-anchor="middle" x="227" y="-112.6" font-family="Helvetica,sans-Serif" font-size="8.00">utility</text>
</a>
</g>
</g>
<!-- Node4&#45;&gt;Node9 -->
<g id="edge9_Node000004_Node000009" class="edge">
<title>Node4&#45;&gt;Node9</title>
<g id="a_edge9_Node000004_Node000009"><a xlink:title=" ">
<path fill="none" stroke="#63b8ff" d="M273.03,-158.97C264.98,-151.37 252.32,-139.41 242.32,-129.97"/>
<polygon fill="#63b8ff" stroke="#63b8ff" points="244.67,-127.38 235,-123.06 239.87,-132.47 244.67,-127.38"/>
</a>
</g>
</g>
<!-- Node10 -->
<g id="Node000010" class="node">
<title>Node10</title>
<g id="a_Node000010"><a xlink:title=" ">
<polygon fill="#e0e0e0" stroke="#999999" points="300,-123 262,-123 262,-106 300,-106 300,-123"/>
<text text-anchor="middle" x="281" y="-112.6" font-family="Helvetica,sans-Serif" font-size="8.00">vector</text>
</a>
</g>
</g>
<!-- Node4&#45;&gt;Node10 -->
<g id="edge10_Node000004_Node000010" class="edge">
<title>Node4&#45;&gt;Node10</title>
<g id="a_edge10_Node000004_Node000010"><a xlink:title=" ">
<path fill="none" stroke="#63b8ff" d="M281,-158.97C281,-152.19 281,-141.97 281,-133.13"/>
<polygon fill="#63b8ff" stroke="#63b8ff" points="284.5,-133.06 281,-123.06 277.5,-133.06 284.5,-133.06"/>
</a>
</g>
</g>
<!-- Node4&#45;&gt;Node11 -->
<g id="edge11_Node000004_Node000011" class="edge">
<title>Node4&#45;&gt;Node11</title>
<g id="a_edge11_Node000004_Node000011"><a xlink:title=" ">
<path fill="none" stroke="#63b8ff" d="M327.05,-158.94C367.41,-151.7 427.37,-139.45 478,-123 495.98,-117.16 499.1,-112.08 517,-106 559.09,-91.71 608.32,-79.89 643.83,-72.19"/>
<polygon fill="#63b8ff" stroke="#63b8ff" points="644.87,-75.55 653.92,-70.04 643.41,-68.71 644.87,-75.55"/>
</a>
</g>
</g>
<!-- Node13 -->
<g id="Node000013" class="node">
<title>Node13</title>
<g id="a_Node000013"><a xlink:href="../../df/d93/utils_8hpp.html" target="_top" xlink:title=" ">
<polygon fill="white" stroke="#666666" points="468.5,-123 393.5,-123 393.5,-106 468.5,-106 468.5,-123"/>
<text text-anchor="middle" x="431" y="-112.6" font-family="Helvetica,sans-Serif" font-size="8.00">../../utils/utils.hpp</text>
</a>
</g>
</g>
<!-- Node4&#45;&gt;Node13 -->
<g id="edge14_Node000004_Node000013" class="edge">
<title>Node4&#45;&gt;Node13</title>
<g id="a_edge14_Node000004_Node000013"><a xlink:title=" ">
<path fill="none" stroke="#63b8ff" d="M303.13,-158.97C328.5,-150.35 370.29,-136.14 399.15,-126.33"/>
<polygon fill="#63b8ff" stroke="#63b8ff" points="400.44,-129.59 408.78,-123.06 398.18,-122.96 400.44,-129.59"/>
</a>
</g>
</g>
<!-- Node11&#45;&gt;Node5 -->
<g id="edge12_Node000011_Node000005" class="edge">
<title>Node11&#45;&gt;Node5</title>
<g id="a_edge12_Node000011_Node000005"><a xlink:title=" ">
<path fill="none" stroke="#63b8ff" d="M645.78,-53.99C571.01,-43.45 425.43,-22.94 361.45,-13.93"/>
<polygon fill="#63b8ff" stroke="#63b8ff" points="361.58,-10.41 351.19,-12.49 360.6,-17.35 361.58,-10.41"/>
</a>
</g>
</g>
<!-- Node12 -->
<g id="Node000012" class="node">
<title>Node12</title>
<g id="a_Node000012"><a xlink:title=" ">
<polygon fill="#e0e0e0" stroke="#999999" points="711,-17 673,-17 673,0 711,0 711,-17"/>
<text text-anchor="middle" x="692" y="-6.6" font-family="Helvetica,sans-Serif" font-size="8.00">cstdlib</text>
</a>
</g>
</g>
<!-- Node11&#45;&gt;Node12 -->
<g id="edge13_Node000011_Node000012" class="edge">
<title>Node11&#45;&gt;Node12</title>
<g id="a_edge13_Node000011_Node000012"><a xlink:title=" ">
<path fill="none" stroke="#63b8ff" d="M692,-52.97C692,-46.19 692,-35.97 692,-27.13"/>
<polygon fill="#63b8ff" stroke="#63b8ff" points="695.5,-27.06 692,-17.06 688.5,-27.06 695.5,-27.06"/>
</a>
</g>
</g>
<!-- Node13&#45;&gt;Node5 -->
<g id="edge17_Node000013_Node000005" class="edge">
<title>Node13&#45;&gt;Node5</title>
<g id="a_edge17_Node000013_Node000005"><a xlink:title=" ">
<path fill="none" stroke="#63b8ff" d="M405.79,-105.91C387.59,-99.22 363.73,-87.72 349,-70 338.87,-57.82 334.13,-40.23 331.91,-27.15"/>
<polygon fill="#63b8ff" stroke="#63b8ff" points="335.36,-26.5 330.55,-17.06 328.42,-27.44 335.36,-26.5"/>
</a>
</g>
</g>
<!-- Node13&#45;&gt;Node11 -->
<g id="edge21_Node000013_Node000011" class="edge">
<title>Node13&#45;&gt;Node11</title>
<g id="a_edge21_Node000013_Node000011"><a xlink:title=" ">
<path fill="none" stroke="#63b8ff" d="M468.67,-106.14C514.77,-97.13 592.89,-81.87 643.45,-71.99"/>
<polygon fill="#63b8ff" stroke="#63b8ff" points="644.34,-75.38 653.49,-70.03 643,-68.51 644.34,-75.38"/>
</a>
</g>
</g>
<!-- Node14 -->
<g id="Node000014" class="node">
<title>Node14</title>
<g id="a_Node000014"><a xlink:title=" ">
<polygon fill="#e0e0e0" stroke="#999999" points="393.5,-70 358.5,-70 358.5,-53 393.5,-53 393.5,-70"/>
<text text-anchor="middle" x="376" y="-59.6" font-family="Helvetica,sans-Serif" font-size="8.00">array</text>
</a>
</g>
</g>
<!-- Node13&#45;&gt;Node14 -->
<g id="edge15_Node000013_Node000014" class="edge">
<title>Node13&#45;&gt;Node14</title>
<g id="a_edge15_Node000013_Node000014"><a xlink:title=" ">
<path fill="none" stroke="#63b8ff" d="M422.88,-105.97C414.68,-98.37 401.79,-86.41 391.6,-76.97"/>
<polygon fill="#63b8ff" stroke="#63b8ff" points="393.86,-74.29 384.15,-70.06 389.1,-79.42 393.86,-74.29"/>
</a>
</g>
</g>
<!-- Node15 -->
<g id="Node000015" class="node">
<title>Node15</title>
<g id="a_Node000015"><a xlink:title=" ">
<polygon fill="#e0e0e0" stroke="#999999" points="450,-70 412,-70 412,-53 450,-53 450,-70"/>
<text text-anchor="middle" x="431" y="-59.6" font-family="Helvetica,sans-Serif" font-size="8.00">cmath</text>
</a>
</g>
</g>
<!-- Node13&#45;&gt;Node15 -->
<g id="edge16_Node000013_Node000015" class="edge">
<title>Node13&#45;&gt;Node15</title>
<g id="a_edge16_Node000013_Node000015"><a xlink:title=" ">
<path fill="none" stroke="#63b8ff" d="M431,-105.97C431,-99.19 431,-88.97 431,-80.13"/>
<polygon fill="#63b8ff" stroke="#63b8ff" points="434.5,-80.06 431,-70.06 427.5,-80.06 434.5,-80.06"/>
</a>
</g>
</g>
<!-- Node16 -->
<g id="Node000016" class="node">
<title>Node16</title>
<g id="a_Node000016"><a xlink:title=" ">
<polygon fill="#e0e0e0" stroke="#999999" points="502,-70 468,-70 468,-53 502,-53 502,-70"/>
<text text-anchor="middle" x="485" y="-59.6" font-family="Helvetica,sans-Serif" font-size="8.00">limits</text>
</a>
</g>
</g>
<!-- Node13&#45;&gt;Node16 -->
<g id="edge18_Node000013_Node000016" class="edge">
<title>Node13&#45;&gt;Node16</title>
<g id="a_edge18_Node000013_Node000016"><a xlink:title=" ">
<path fill="none" stroke="#63b8ff" d="M438.97,-105.97C447.02,-98.37 459.68,-86.41 469.68,-76.97"/>
<polygon fill="#63b8ff" stroke="#63b8ff" points="472.13,-79.47 477,-70.06 467.33,-74.38 472.13,-79.47"/>
</a>
</g>
</g>
<!-- Node17 -->
<g id="Node000017" class="node">
<title>Node17</title>
<g id="a_Node000017"><a xlink:title=" ">
<polygon fill="#e0e0e0" stroke="#999999" points="556,-70 520,-70 520,-53 556,-53 556,-70"/>
<text text-anchor="middle" x="538" y="-59.6" font-family="Helvetica,sans-Serif" font-size="8.00">string</text>
</a>
</g>
</g>
<!-- Node13&#45;&gt;Node17 -->
<g id="edge19_Node000013_Node000017" class="edge">
<title>Node13&#45;&gt;Node17</title>
<g id="a_edge19_Node000013_Node000017"><a xlink:title=" ">
<path fill="none" stroke="#63b8ff" d="M446.79,-105.97C464.25,-97.65 492.63,-84.13 513.09,-74.37"/>
<polygon fill="#63b8ff" stroke="#63b8ff" points="514.63,-77.52 522.15,-70.06 511.61,-71.2 514.63,-77.52"/>
</a>
</g>
</g>
<!-- Node18 -->
<g id="Node000018" class="node">
<title>Node18</title>
<g id="a_Node000018"><a xlink:title=" ">
<polygon fill="#e0e0e0" stroke="#999999" points="627.5,-70 574.5,-70 574.5,-53 627.5,-53 627.5,-70"/>
<text text-anchor="middle" x="601" y="-59.6" font-family="Helvetica,sans-Serif" font-size="8.00">type_traits</text>
</a>
</g>
</g>
<!-- Node13&#45;&gt;Node18 -->
<g id="edge20_Node000013_Node000018" class="edge">
<title>Node13&#45;&gt;Node18</title>
<g id="a_edge20_Node000013_Node000018"><a xlink:title=" ">
<path fill="none" stroke="#63b8ff" d="M456.08,-105.97C485.21,-97.24 533.44,-82.77 566.19,-72.94"/>
<polygon fill="#63b8ff" stroke="#63b8ff" points="567.24,-76.28 575.81,-70.06 565.23,-69.58 567.24,-76.28"/>
</a>
</g>
</g>
</g>
</svg>
