<?xml version="1.0" encoding="UTF-8" standalone="no"?>
<!DOCTYPE svg PUBLIC "-//W3C//DTD SVG 1.1//EN"
 "http://www.w3.org/Graphics/SVG/1.1/DTD/svg11.dtd">
<!-- Generated by graphviz version 2.43.0 (0)
 -->
<!-- Title: managed_node.hpp Pages: 1 -->
<svg width="777pt" height="237pt"
 viewBox="0.00 0.00 776.50 237.00" xmlns="http://www.w3.org/2000/svg" xmlns:xlink="http://www.w3.org/1999/xlink">
<g id="graph0" class="graph" transform="scale(1 1) rotate(0) translate(4 233)">
<title>managed_node.hpp</title>
<!-- Node1 -->
<g id="Node000001" class="node">
<title>Node1</title>
<g id="a_Node000001"><a xlink:title=" ">
<polygon fill="#999999" stroke="#666666" points="211.5,-229 113.5,-229 113.5,-212 211.5,-212 211.5,-229"/>
<text text-anchor="middle" x="162.5" y="-218.6" font-family="Helvetica,sans-Serif" font-size="8.00">managed_node.hpp</text>
</a>
</g>
</g>
<!-- Node2 -->
<g id="Node000002" class="node">
<title>Node2</title>
<g id="a_Node000002"><a xlink:title=" ">
<polygon fill="#e0e0e0" stroke="#999999" points="47,-123 0,-123 0,-106 47,-106 47,-123"/>
<text text-anchor="middle" x="23.5" y="-112.6" font-family="Helvetica,sans-Serif" font-size="8.00">cassert</text>
</a>
</g>
</g>
<!-- Node1&#45;&gt;Node2 -->
<g id="edge1_Node000001_Node000002" class="edge">
<title>Node1&#45;&gt;Node2</title>
<g id="a_edge1_Node000001_Node000002"><a xlink:title=" ">
<path fill="none" stroke="#63b8ff" d="M152.05,-211.68C128.59,-194.13 71.48,-151.4 41.91,-129.28"/>
<polygon fill="#63b8ff" stroke="#63b8ff" points="43.79,-126.31 33.69,-123.12 39.6,-131.92 43.79,-126.31"/>
</a>
</g>
</g>
<!-- Node3 -->
<g id="Node000003" class="node">
<title>Node3</title>
<g id="a_Node000003"><a xlink:title=" ">
<polygon fill="#e0e0e0" stroke="#999999" points="109.5,-123 65.5,-123 65.5,-106 109.5,-106 109.5,-123"/>
<text text-anchor="middle" x="87.5" y="-112.6" font-family="Helvetica,sans-Serif" font-size="8.00">cstdint</text>
</a>
</g>
</g>
<!-- Node1&#45;&gt;Node3 -->
<g id="edge2_Node000001_Node000003" class="edge">
<title>Node1&#45;&gt;Node3</title>
<g id="a_edge2_Node000001_Node000003"><a xlink:title=" ">
<path fill="none" stroke="#63b8ff" d="M154.58,-211.94C146.08,-203.6 132.47,-189.56 122.5,-176 112.28,-162.1 102.62,-144.98 96.04,-132.5"/>
<polygon fill="#63b8ff" stroke="#63b8ff" points="98.99,-130.58 91.3,-123.28 92.76,-133.78 98.99,-130.58"/>
</a>
</g>
</g>
<!-- Node4 -->
<g id="Node000004" class="node">
<title>Node4</title>
<g id="a_Node000004"><a xlink:href="../../dc/d3c/bnode_8hpp.html" target="_top" xlink:title=" ">
<polygon fill="white" stroke="#666666" points="193,-176 132,-176 132,-159 193,-159 193,-176"/>
<text text-anchor="middle" x="162.5" y="-165.6" font-family="Helvetica,sans-Serif" font-size="8.00">bnode.hpp</text>
</a>
</g>
</g>
<!-- Node1&#45;&gt;Node4 -->
<g id="edge3_Node000001_Node000004" class="edge">
<title>Node1&#45;&gt;Node4</title>
<g id="a_edge3_Node000001_Node000004"><a xlink:title=" ">
<path fill="none" stroke="#63b8ff" d="M162.5,-211.97C162.5,-205.19 162.5,-194.97 162.5,-186.13"/>
<polygon fill="#63b8ff" stroke="#63b8ff" points="166,-186.06 162.5,-176.06 159,-186.06 166,-186.06"/>
</a>
</g>
</g>
<!-- Node5 -->
<g id="Node000005" class="node">
<title>Node5</title>
<g id="a_Node000005"><a xlink:href="../../d9/df8/heterogeneous__pool_8hpp.html" target="_top" xlink:title=" ">
<polygon fill="white" stroke="#666666" points="404,-176 225,-176 225,-159 404,-159 404,-176"/>
<text text-anchor="middle" x="314.5" y="-165.6" font-family="Helvetica,sans-Serif" font-size="8.00">../../types/pmr/heterogeneous_pool.hpp</text>
</a>
</g>
</g>
<!-- Node1&#45;&gt;Node5 -->
<g id="edge4_Node000001_Node000005" class="edge">
<title>Node1&#45;&gt;Node5</title>
<g id="a_edge4_Node000001_Node000005"><a xlink:title=" ">
<path fill="none" stroke="#63b8ff" d="M184.93,-211.97C210.64,-203.35 252.98,-189.14 282.23,-179.33"/>
<polygon fill="#63b8ff" stroke="#63b8ff" points="283.61,-182.56 291.98,-176.06 281.39,-175.92 283.61,-182.56"/>
</a>
</g>
</g>
<!-- Node13 -->
<g id="Node000013" class="node">
<title>Node13</title>
<g id="a_Node000013"><a xlink:href="../../d7/d65/intrinsics_8hpp.html" target="_top" xlink:title=" ">
<polygon fill="white" stroke="#666666" points="747,-70 640,-70 640,-53 747,-53 747,-70"/>
<text text-anchor="middle" x="693.5" y="-59.6" font-family="Helvetica,sans-Serif" font-size="8.00">../../utils/intrinsics.hpp</text>
</a>
</g>
</g>
<!-- Node1&#45;&gt;Node13 -->
<g id="edge27_Node000001_Node000013" class="edge">
<title>Node1&#45;&gt;Node13</title>
<g id="a_edge27_Node000001_Node000013"><a xlink:title=" ">
<path fill="none" stroke="#63b8ff" d="M211.88,-214.7C321.4,-203.29 580.69,-171.78 652.5,-123 668.22,-112.32 679.59,-93.42 686.31,-79.58"/>
<polygon fill="#63b8ff" stroke="#63b8ff" points="689.61,-80.76 690.53,-70.2 683.23,-77.88 689.61,-80.76"/>
</a>
</g>
</g>
<!-- Node5&#45;&gt;Node2 -->
<g id="edge5_Node000005_Node000002" class="edge">
<title>Node5&#45;&gt;Node2</title>
<g id="a_edge5_Node000005_Node000002"><a xlink:title=" ">
<path fill="none" stroke="#63b8ff" d="M264.89,-158.99C214.97,-151.24 135.54,-138.39 57.29,-123.05"/>
<polygon fill="#63b8ff" stroke="#63b8ff" points="57.75,-119.57 47.26,-121.07 56.39,-126.44 57.75,-119.57"/>
</a>
</g>
</g>
<!-- Node5&#45;&gt;Node3 -->
<g id="edge7_Node000005_Node000003" class="edge">
<title>Node5&#45;&gt;Node3</title>
<g id="a_edge7_Node000005_Node000003"><a xlink:title=" ">
<path fill="none" stroke="#63b8ff" d="M281.01,-158.97C237.6,-149.22 162.42,-132.33 119.67,-122.73"/>
<polygon fill="#63b8ff" stroke="#63b8ff" points="120.32,-119.29 109.79,-120.51 118.78,-126.12 120.32,-119.29"/>
</a>
</g>
</g>
<!-- Node6 -->
<g id="Node000006" class="node">
<title>Node6</title>
<g id="a_Node000006"><a xlink:title=" ">
<polygon fill="#e0e0e0" stroke="#999999" points="635,-17 588,-17 588,0 635,0 635,-17"/>
<text text-anchor="middle" x="611.5" y="-6.6" font-family="Helvetica,sans-Serif" font-size="8.00">cstddef</text>
</a>
</g>
</g>
<!-- Node5&#45;&gt;Node6 -->
<g id="edge6_Node000005_Node000006" class="edge">
<title>Node5&#45;&gt;Node6</title>
<g id="a_edge6_Node000005_Node000006"><a xlink:title=" ">
<path fill="none" stroke="#63b8ff" d="M404.29,-163.7C475.55,-159.51 567.38,-149.05 593.5,-123 618.74,-97.82 617.52,-52.49 614.47,-27.41"/>
<polygon fill="#63b8ff" stroke="#63b8ff" points="617.89,-26.57 612.99,-17.18 610.96,-27.58 617.89,-26.57"/>
</a>
</g>
</g>
<!-- Node7 -->
<g id="Node000007" class="node">
<title>Node7</title>
<g id="a_Node000007"><a xlink:title=" ">
<polygon fill="#e0e0e0" stroke="#999999" points="133.5,-70 95.5,-70 95.5,-53 133.5,-53 133.5,-70"/>
<text text-anchor="middle" x="114.5" y="-59.6" font-family="Helvetica,sans-Serif" font-size="8.00">limits</text>
</a>
</g>
</g>
<!-- Node5&#45;&gt;Node7 -->
<g id="edge8_Node000005_Node000007" class="edge">
<title>Node5&#45;&gt;Node7</title>
<g id="a_edge8_Node000005_Node000007"><a xlink:title=" ">
<path fill="none" stroke="#63b8ff" d="M249.37,-158.97C219,-152.98 183.66,-142.24 156.5,-123 140.87,-111.93 129.15,-93.1 122.12,-79.38"/>
<polygon fill="#63b8ff" stroke="#63b8ff" points="125.14,-77.6 117.66,-70.1 118.83,-80.63 125.14,-77.6"/>
</a>
</g>
</g>
<!-- Node8 -->
<g id="Node000008" class="node">
<title>Node8</title>
<g id="a_Node000008"><a xlink:title=" ">
<polygon fill="#e0e0e0" stroke="#999999" points="306,-123 271,-123 271,-106 306,-106 306,-123"/>
<text text-anchor="middle" x="288.5" y="-112.6" font-family="Helvetica,sans-Serif" font-size="8.00">map</text>
</a>
</g>
</g>
<!-- Node5&#45;&gt;Node8 -->
<g id="edge9_Node000005_Node000008" class="edge">
<title>Node5&#45;&gt;Node8</title>
<g id="a_edge9_Node000005_Node000008"><a xlink:title=" ">
<path fill="none" stroke="#63b8ff" d="M310.66,-158.97C307.09,-151.97 301.64,-141.28 297.04,-132.25"/>
<polygon fill="#63b8ff" stroke="#63b8ff" points="300.01,-130.38 292.35,-123.06 293.78,-133.55 300.01,-130.38"/>
</a>
</g>
</g>
<!-- Node9 -->
<g id="Node000009" class="node">
<title>Node9</title>
<g id="a_Node000009"><a xlink:title=" ">
<polygon fill="#e0e0e0" stroke="#999999" points="358.5,-123 324.5,-123 324.5,-106 358.5,-106 358.5,-123"/>
<text text-anchor="middle" x="341.5" y="-112.6" font-family="Helvetica,sans-Serif" font-size="8.00">new</text>
</a>
</g>
</g>
<!-- Node5&#45;&gt;Node9 -->
<g id="edge10_Node000005_Node000009" class="edge">
<title>Node5&#45;&gt;Node9</title>
<g id="a_edge10_Node000005_Node000009"><a xlink:title=" ">
<path fill="none" stroke="#63b8ff" d="M318.48,-158.97C322.23,-151.89 327.97,-141.05 332.78,-131.96"/>
<polygon fill="#63b8ff" stroke="#63b8ff" points="335.91,-133.53 337.5,-123.06 329.73,-130.26 335.91,-133.53"/>
</a>
</g>
</g>
<!-- Node10 -->
<g id="Node000010" class="node">
<title>Node10</title>
<g id="a_Node000010"><a xlink:title=" ">
<polygon fill="#e0e0e0" stroke="#999999" points="416,-123 377,-123 377,-106 416,-106 416,-123"/>
<text text-anchor="middle" x="396.5" y="-112.6" font-family="Helvetica,sans-Serif" font-size="8.00">utility</text>
</a>
</g>
</g>
<!-- Node5&#45;&gt;Node10 -->
<g id="edge11_Node000005_Node000010" class="edge">
<title>Node5&#45;&gt;Node10</title>
<g id="a_edge11_Node000005_Node000010"><a xlink:title=" ">
<path fill="none" stroke="#63b8ff" d="M326.6,-158.97C339.44,-150.99 359.97,-138.22 375.47,-128.58"/>
<polygon fill="#63b8ff" stroke="#63b8ff" points="377.71,-131.31 384.35,-123.06 374.01,-125.37 377.71,-131.31"/>
</a>
</g>
</g>
<!-- Node11 -->
<g id="Node000011" class="node">
<title>Node11</title>
<g id="a_Node000011"><a xlink:title=" ">
<polygon fill="#e0e0e0" stroke="#999999" points="476.5,-123 434.5,-123 434.5,-106 476.5,-106 476.5,-123"/>
<text text-anchor="middle" x="455.5" y="-112.6" font-family="Helvetica,sans-Serif" font-size="8.00">vector</text>
</a>
</g>
</g>
<!-- Node5&#45;&gt;Node11 -->
<g id="edge12_Node000005_Node000011" class="edge">
<title>Node5&#45;&gt;Node11</title>
<g id="a_edge12_Node000005_Node000011"><a xlink:title=" ">
<path fill="none" stroke="#63b8ff" d="M335.31,-158.97C358.94,-150.42 397.75,-136.39 424.85,-126.59"/>
<polygon fill="#63b8ff" stroke="#63b8ff" points="426.4,-129.75 434.61,-123.06 424.02,-123.17 426.4,-129.75"/>
</a>
</g>
</g>
<!-- Node12 -->
<g id="Node000012" class="node">
<title>Node12</title>
<g id="a_Node000012"><a xlink:title=" ">
<polygon fill="#e0e0e0" stroke="#999999" points="584,-123 495,-123 495,-106 584,-106 584,-123"/>
<text text-anchor="middle" x="539.5" y="-112.6" font-family="Helvetica,sans-Serif" font-size="8.00">memory_resource</text>
</a>
</g>
</g>
<!-- Node5&#45;&gt;Node12 -->
<g id="edge13_Node000005_Node000012" class="edge">
<title>Node5&#45;&gt;Node12</title>
<g id="a_edge13_Node000005_Node000012"><a xlink:title=" ">
<path fill="none" stroke="#63b8ff" d="M347.7,-158.97C387.08,-150.05 452.84,-135.14 496.2,-125.32"/>
<polygon fill="#63b8ff" stroke="#63b8ff" points="497.19,-128.68 506.16,-123.06 495.64,-121.85 497.19,-128.68"/>
</a>
</g>
</g>
<!-- Node5&#45;&gt;Node13 -->
<g id="edge14_Node000005_Node000013" class="edge">
<title>Node5&#45;&gt;Node13</title>
<g id="a_edge14_Node000005_Node000013"><a xlink:title=" ">
<path fill="none" stroke="#63b8ff" d="M404.31,-159.86C482.16,-153.05 588.15,-140.89 626.5,-123 648.61,-112.68 668.61,-92.54 680.89,-78.34"/>
<polygon fill="#63b8ff" stroke="#63b8ff" points="683.78,-80.33 687.48,-70.4 678.4,-75.85 683.78,-80.33"/>
</a>
</g>
</g>
<!-- Node16 -->
<g id="Node000016" class="node">
<title>Node16</title>
<g id="a_Node000016"><a xlink:href="../../df/d93/utils_8hpp.html" target="_top" xlink:title=" ">
<polygon fill="white" stroke="#666666" points="253,-123 166,-123 166,-106 253,-106 253,-123"/>
<text text-anchor="middle" x="209.5" y="-112.6" font-family="Helvetica,sans-Serif" font-size="8.00">../../utils/utils.hpp</text>
</a>
</g>
</g>
<!-- Node5&#45;&gt;Node16 -->
<g id="edge18_Node000005_Node000016" class="edge">
<title>Node5&#45;&gt;Node16</title>
<g id="a_edge18_Node000005_Node000016"><a xlink:title=" ">
<path fill="none" stroke="#63b8ff" d="M299.01,-158.97C281.95,-150.69 254.28,-137.25 234.22,-127.5"/>
<polygon fill="#63b8ff" stroke="#63b8ff" points="235.58,-124.28 225.06,-123.06 232.52,-130.57 235.58,-124.28"/>
</a>
</g>
</g>
<!-- Node13&#45;&gt;Node6 -->
<g id="edge16_Node000013_Node000006" class="edge">
<title>Node13&#45;&gt;Node6</title>
<g id="a_edge16_Node000013_Node000006"><a xlink:title=" ">
<path fill="none" stroke="#63b8ff" d="M681.4,-52.97C668.56,-44.99 648.03,-32.22 632.53,-22.58"/>
<polygon fill="#63b8ff" stroke="#63b8ff" points="633.99,-19.37 623.65,-17.06 630.29,-25.31 633.99,-19.37"/>
</a>
</g>
</g>
<!-- Node14 -->
<g id="Node000014" class="node">
<title>Node14</title>
<g id="a_Node000014"><a xlink:title=" ">
<polygon fill="#e0e0e0" stroke="#999999" points="706.5,-17 662.5,-17 662.5,0 706.5,0 706.5,-17"/>
<text text-anchor="middle" x="684.5" y="-6.6" font-family="Helvetica,sans-Serif" font-size="8.00">atomic</text>
</a>
</g>
</g>
<!-- Node13&#45;&gt;Node14 -->
<g id="edge15_Node000013_Node000014" class="edge">
<title>Node13&#45;&gt;Node14</title>
<g id="a_edge15_Node000013_Node000014"><a xlink:title=" ">
<path fill="none" stroke="#63b8ff" d="M692.17,-52.97C690.98,-46.19 689.17,-35.97 687.61,-27.13"/>
<polygon fill="#63b8ff" stroke="#63b8ff" points="691.02,-26.3 685.83,-17.06 684.12,-27.51 691.02,-26.3"/>
</a>
</g>
</g>
<!-- Node15 -->
<g id="Node000015" class="node">
<title>Node15</title>
<g id="a_Node000015"><a xlink:title=" ">
<polygon fill="#e0e0e0" stroke="#999999" points="768.5,-17 724.5,-17 724.5,0 768.5,0 768.5,-17"/>
<text text-anchor="middle" x="746.5" y="-6.6" font-family="Helvetica,sans-Serif" font-size="8.00">cstdlib</text>
</a>
</g>
</g>
<!-- Node13&#45;&gt;Node15 -->
<g id="edge17_Node000013_Node000015" class="edge">
<title>Node13&#45;&gt;Node15</title>
<g id="a_edge17_Node000013_Node000015"><a xlink:title=" ">
<path fill="none" stroke="#63b8ff" d="M701.32,-52.97C709.15,-45.44 721.4,-33.65 731.17,-24.25"/>
<polygon fill="#63b8ff" stroke="#63b8ff" points="733.87,-26.51 738.65,-17.06 729.01,-21.47 733.87,-26.51"/>
</a>
</g>
</g>
<!-- Node16&#45;&gt;Node6 -->
<g id="edge21_Node000016_Node000006" class="edge">
<title>Node16&#45;&gt;Node6</title>
<g id="a_edge21_Node000016_Node000006"><a xlink:title=" ">
<path fill="none" stroke="#63b8ff" d="M200.5,-105.61C187.4,-93.2 166.13,-68.9 180.5,-53 207.03,-23.66 480.99,-13.17 577.82,-10.36"/>
<polygon fill="#63b8ff" stroke="#63b8ff" points="578.05,-13.85 587.94,-10.07 577.85,-6.86 578.05,-13.85"/>
</a>
</g>
</g>
<!-- Node16&#45;&gt;Node7 -->
<g id="edge23_Node000016_Node000007" class="edge">
<title>Node16&#45;&gt;Node7</title>
<g id="a_edge23_Node000016_Node000007"><a xlink:title=" ">
<path fill="none" stroke="#63b8ff" d="M195.48,-105.97C180.33,-97.84 155.92,-84.74 137.86,-75.04"/>
<polygon fill="#63b8ff" stroke="#63b8ff" points="139.04,-71.7 128.58,-70.06 135.73,-77.87 139.04,-71.7"/>
</a>
</g>
</g>
<!-- Node16&#45;&gt;Node13 -->
<g id="edge26_Node000016_Node000013" class="edge">
<title>Node16&#45;&gt;Node13</title>
<g id="a_edge26_Node000016_Node000013"><a xlink:title=" ">
<path fill="none" stroke="#63b8ff" d="M253.15,-107.18C256.32,-106.77 259.46,-106.37 262.5,-106 392.58,-90.24 545.24,-75.78 629.49,-68.15"/>
<polygon fill="#63b8ff" stroke="#63b8ff" points="630.02,-71.62 639.67,-67.24 629.4,-64.65 630.02,-71.62"/>
</a>
</g>
</g>
<!-- Node17 -->
<g id="Node000017" class="node">
<title>Node17</title>
<g id="a_Node000017"><a xlink:title=" ">
<polygon fill="#e0e0e0" stroke="#999999" points="363.5,-70 325.5,-70 325.5,-53 363.5,-53 363.5,-70"/>
<text text-anchor="middle" x="344.5" y="-59.6" font-family="Helvetica,sans-Serif" font-size="8.00">array</text>
</a>
</g>
</g>
<!-- Node16&#45;&gt;Node17 -->
<g id="edge19_Node000016_Node000017" class="edge">
<title>Node16&#45;&gt;Node17</title>
<g id="a_edge19_Node000016_Node000017"><a xlink:title=" ">
<path fill="none" stroke="#63b8ff" d="M229.42,-105.97C252.21,-97.36 289.73,-83.19 315.7,-73.38"/>
<polygon fill="#63b8ff" stroke="#63b8ff" points="317.25,-76.53 325.37,-69.73 314.78,-69.99 317.25,-76.53"/>
</a>
</g>
</g>
<!-- Node18 -->
<g id="Node000018" class="node">
<title>Node18</title>
<g id="a_Node000018"><a xlink:title=" ">
<polygon fill="#e0e0e0" stroke="#999999" points="423.5,-70 381.5,-70 381.5,-53 423.5,-53 423.5,-70"/>
<text text-anchor="middle" x="402.5" y="-59.6" font-family="Helvetica,sans-Serif" font-size="8.00">cmath</text>
</a>
</g>
</g>
<!-- Node16&#45;&gt;Node18 -->
<g id="edge20_Node000016_Node000018" class="edge">
<title>Node16&#45;&gt;Node18</title>
<g id="a_edge20_Node000016_Node000018"><a xlink:title=" ">
<path fill="none" stroke="#63b8ff" d="M237.98,-105.97C273.73,-96.53 334.82,-80.38 371.65,-70.65"/>
<polygon fill="#63b8ff" stroke="#63b8ff" points="372.58,-74.03 381.35,-68.09 370.79,-67.26 372.58,-74.03"/>
</a>
</g>
</g>
<!-- Node19 -->
<g id="Node000019" class="node">
<title>Node19</title>
<g id="a_Node000019"><a xlink:title=" ">
<polygon fill="#e0e0e0" stroke="#999999" points="499.5,-70 441.5,-70 441.5,-53 499.5,-53 499.5,-70"/>
<text text-anchor="middle" x="470.5" y="-59.6" font-family="Helvetica,sans-Serif" font-size="8.00">functional</text>
</a>
</g>
</g>
<!-- Node16&#45;&gt;Node19 -->
<g id="edge22_Node000016_Node000019" class="edge">
<title>Node16&#45;&gt;Node19</title>
<g id="a_edge22_Node000016_Node000019"><a xlink:title=" ">
<path fill="none" stroke="#63b8ff" d="M248.18,-105.98C290.66,-97.72 361.16,-83.99 431.53,-70.19"/>
<polygon fill="#63b8ff" stroke="#63b8ff" points="432.32,-73.6 441.46,-68.24 430.97,-66.73 432.32,-73.6"/>
</a>
</g>
</g>
<!-- Node20 -->
<g id="Node000020" class="node">
<title>Node20</title>
<g id="a_Node000020"><a xlink:title=" ">
<polygon fill="#e0e0e0" stroke="#999999" points="229.5,-70 189.5,-70 189.5,-53 229.5,-53 229.5,-70"/>
<text text-anchor="middle" x="209.5" y="-59.6" font-family="Helvetica,sans-Serif" font-size="8.00">string</text>
</a>
</g>
</g>
<!-- Node16&#45;&gt;Node20 -->
<g id="edge24_Node000016_Node000020" class="edge">
<title>Node16&#45;&gt;Node20</title>
<g id="a_edge24_Node000016_Node000020"><a xlink:title=" ">
<path fill="none" stroke="#63b8ff" d="M209.5,-105.97C209.5,-99.19 209.5,-88.97 209.5,-80.13"/>
<polygon fill="#63b8ff" stroke="#63b8ff" points="213,-80.06 209.5,-70.06 206,-80.06 213,-80.06"/>
</a>
</g>
</g>
<!-- Node21 -->
<g id="Node000021" class="node">
<title>Node21</title>
<g id="a_Node000021"><a xlink:title=" ">
<polygon fill="#e0e0e0" stroke="#999999" points="307,-70 248,-70 248,-53 307,-53 307,-70"/>
<text text-anchor="middle" x="277.5" y="-59.6" font-family="Helvetica,sans-Serif" font-size="8.00">type_traits</text>
</a>
</g>
</g>
<!-- Node16&#45;&gt;Node21 -->
<g id="edge25_Node000016_Node000021" class="edge">
<title>Node16&#45;&gt;Node21</title>
<g id="a_edge25_Node000016_Node000021"><a xlink:title=" ">
<path fill="none" stroke="#63b8ff" d="M219.53,-105.97C229.98,-98.14 246.57,-85.7 259.33,-76.13"/>
<polygon fill="#63b8ff" stroke="#63b8ff" points="261.53,-78.86 267.43,-70.06 257.33,-73.26 261.53,-78.86"/>
</a>
</g>
</g>
</g>
</svg>
