<?xml version="1.0" encoding="UTF-8" standalone="no"?>
<!DOCTYPE svg PUBLIC "-//W3C//DTD SVG 1.1//EN"
 "http://www.w3.org/Graphics/SVG/1.1/DTD/svg11.dtd">
<!-- Generated by graphviz version 2.43.0 (0)
 -->
<!-- Title: managed_node.hpp Pages: 1 -->
<svg width="718pt" height="237pt"
 viewBox="0.00 0.00 718.00 237.00" xmlns="http://www.w3.org/2000/svg" xmlns:xlink="http://www.w3.org/1999/xlink">
<g id="graph0" class="graph" transform="scale(1 1) rotate(0) translate(4 233)">
<title>managed_node.hpp</title>
<!-- Node1 -->
<g id="Node000001" class="node">
<title>Node1</title>
<g id="a_Node000001"><a xlink:title=" ">
<polygon fill="#999999" stroke="#666666" points="197.5,-229 108.5,-229 108.5,-212 197.5,-212 197.5,-229"/>
<text text-anchor="middle" x="153" y="-218.6" font-family="Helvetica,sans-Serif" font-size="8.00">managed_node.hpp</text>
</a>
</g>
</g>
<!-- Node2 -->
<g id="Node000002" class="node">
<title>Node2</title>
<g id="a_Node000002"><a xlink:title=" ">
<polygon fill="#e0e0e0" stroke="#999999" points="42,-123 0,-123 0,-106 42,-106 42,-123"/>
<text text-anchor="middle" x="21" y="-112.6" font-family="Helvetica,sans-Serif" font-size="8.00">cassert</text>
</a>
</g>
</g>
<!-- Node1&#45;&gt;Node2 -->
<g id="edge1_Node000001_Node000002" class="edge">
<title>Node1&#45;&gt;Node2</title>
<g id="a_edge1_Node000001_Node000002"><a xlink:title=" ">
<path fill="none" stroke="#63b8ff" d="M143.08,-211.68C120.9,-194.21 67.03,-151.77 38.85,-129.57"/>
<polygon fill="#63b8ff" stroke="#63b8ff" points="40.7,-126.56 30.68,-123.12 36.37,-132.06 40.7,-126.56"/>
</a>
</g>
</g>
<!-- Node3 -->
<g id="Node000003" class="node">
<title>Node3</title>
<g id="a_Node000003"><a xlink:title=" ">
<polygon fill="#e0e0e0" stroke="#999999" points="99.5,-123 60.5,-123 60.5,-106 99.5,-106 99.5,-123"/>
<text text-anchor="middle" x="80" y="-112.6" font-family="Helvetica,sans-Serif" font-size="8.00">cstdint</text>
</a>
</g>
</g>
<!-- Node1&#45;&gt;Node3 -->
<g id="edge2_Node000001_Node000003" class="edge">
<title>Node1&#45;&gt;Node3</title>
<g id="a_edge2_Node000001_Node000003"><a xlink:title=" ">
<path fill="none" stroke="#63b8ff" d="M145.76,-211.81C137.98,-203.36 125.46,-189.23 116,-176 105.89,-161.86 95.91,-144.77 89.03,-132.36"/>
<polygon fill="#63b8ff" stroke="#63b8ff" points="91.9,-130.32 84.04,-123.21 85.75,-133.66 91.9,-130.32"/>
</a>
</g>
</g>
<!-- Node4 -->
<g id="Node000004" class="node">
<title>Node4</title>
<g id="a_Node000004"><a xlink:href="../../dc/d3c/bnode_8hpp.html" target="_top" xlink:title=" ">
<polygon fill="white" stroke="#666666" points="180.5,-176 125.5,-176 125.5,-159 180.5,-159 180.5,-176"/>
<text text-anchor="middle" x="153" y="-165.6" font-family="Helvetica,sans-Serif" font-size="8.00">bnode.hpp</text>
</a>
</g>
</g>
<!-- Node1&#45;&gt;Node4 -->
<g id="edge3_Node000001_Node000004" class="edge">
<title>Node1&#45;&gt;Node4</title>
<g id="a_edge3_Node000001_Node000004"><a xlink:title=" ">
<path fill="none" stroke="#63b8ff" d="M153,-211.97C153,-205.19 153,-194.97 153,-186.13"/>
<polygon fill="#63b8ff" stroke="#63b8ff" points="156.5,-186.06 153,-176.06 149.5,-186.06 156.5,-186.06"/>
</a>
</g>
</g>
<!-- Node5 -->
<g id="Node000005" class="node">
<title>Node5</title>
<g id="a_Node000005"><a xlink:href="../../d9/df8/heterogeneous__pool_8hpp.html" target="_top" xlink:title=" ">
<polygon fill="white" stroke="#666666" points="369.5,-176 212.5,-176 212.5,-159 369.5,-159 369.5,-176"/>
<text text-anchor="middle" x="291" y="-165.6" font-family="Helvetica,sans-Serif" font-size="8.00">../../types/pmr/heterogeneous_pool.hpp</text>
</a>
</g>
</g>
<!-- Node1&#45;&gt;Node5 -->
<g id="edge4_Node000001_Node000005" class="edge">
<title>Node1&#45;&gt;Node5</title>
<g id="a_edge4_Node000001_Node000005"><a xlink:title=" ">
<path fill="none" stroke="#63b8ff" d="M173.36,-211.97C196.5,-203.42 234.48,-189.39 261,-179.59"/>
<polygon fill="#63b8ff" stroke="#63b8ff" points="262.39,-182.81 270.55,-176.06 259.96,-176.24 262.39,-182.81"/>
</a>
</g>
</g>
<!-- Node13 -->
<g id="Node000013" class="node">
<title>Node13</title>
<g id="a_Node000013"><a xlink:href="../../d7/d65/intrinsics_8hpp.html" target="_top" xlink:title=" ">
<polygon fill="white" stroke="#666666" points="688,-70 596,-70 596,-53 688,-53 688,-70"/>
<text text-anchor="middle" x="642" y="-59.6" font-family="Helvetica,sans-Serif" font-size="8.00">../../utils/intrinsics.hpp</text>
</a>
</g>
</g>
<!-- Node1&#45;&gt;Node13 -->
<g id="edge27_Node000001_Node000013" class="edge">
<title>Node1&#45;&gt;Node13</title>
<g id="a_edge27_Node000001_Node000013"><a xlink:title=" ">
<path fill="none" stroke="#63b8ff" d="M197.85,-214.72C299.16,-203.2 541.92,-171.19 607,-123 621.47,-112.29 630.92,-93.68 636.31,-79.92"/>
<polygon fill="#63b8ff" stroke="#63b8ff" points="639.73,-80.76 639.78,-70.16 633.13,-78.41 639.73,-80.76"/>
</a>
</g>
</g>
<!-- Node5&#45;&gt;Node2 -->
<g id="edge5_Node000005_Node000002" class="edge">
<title>Node5&#45;&gt;Node2</title>
<g id="a_edge5_Node000005_Node000002"><a xlink:title=" ">
<path fill="none" stroke="#63b8ff" d="M244.36,-158.98C198.05,-151.3 124.8,-138.61 52.46,-123.19"/>
<polygon fill="#63b8ff" stroke="#63b8ff" points="52.78,-119.68 42.26,-121 51.31,-126.52 52.78,-119.68"/>
</a>
</g>
</g>
<!-- Node5&#45;&gt;Node3 -->
<g id="edge7_Node000005_Node000003" class="edge">
<title>Node5&#45;&gt;Node3</title>
<g id="a_edge7_Node000005_Node000003"><a xlink:title=" ">
<path fill="none" stroke="#63b8ff" d="M259.87,-158.97C219.35,-149.18 149.07,-132.19 109.42,-122.61"/>
<polygon fill="#63b8ff" stroke="#63b8ff" points="110.11,-119.18 99.56,-120.23 108.46,-125.98 110.11,-119.18"/>
</a>
</g>
</g>
<!-- Node6 -->
<g id="Node000006" class="node">
<title>Node6</title>
<g id="a_Node000006"><a xlink:title=" ">
<polygon fill="#e0e0e0" stroke="#999999" points="589,-17 547,-17 547,0 589,0 589,-17"/>
<text text-anchor="middle" x="568" y="-6.6" font-family="Helvetica,sans-Serif" font-size="8.00">cstddef</text>
</a>
</g>
</g>
<!-- Node5&#45;&gt;Node6 -->
<g id="edge6_Node000005_Node000006" class="edge">
<title>Node5&#45;&gt;Node6</title>
<g id="a_edge6_Node000005_Node000006"><a xlink:title=" ">
<path fill="none" stroke="#63b8ff" d="M369.79,-163.05C436.23,-158.43 524.32,-147.71 549,-123 574.23,-97.74 573.5,-52.44 570.75,-27.39"/>
<polygon fill="#63b8ff" stroke="#63b8ff" points="574.18,-26.62 569.39,-17.17 567.24,-27.54 574.18,-26.62"/>
</a>
</g>
</g>
<!-- Node7 -->
<g id="Node000007" class="node">
<title>Node7</title>
<g id="a_Node000007"><a xlink:title=" ">
<polygon fill="#e0e0e0" stroke="#999999" points="120,-70 86,-70 86,-53 120,-53 120,-70"/>
<text text-anchor="middle" x="103" y="-59.6" font-family="Helvetica,sans-Serif" font-size="8.00">limits</text>
</a>
</g>
</g>
<!-- Node5&#45;&gt;Node7 -->
<g id="edge8_Node000005_Node000007" class="edge">
<title>Node5&#45;&gt;Node7</title>
<g id="a_edge8_Node000005_Node000007"><a xlink:title=" ">
<path fill="none" stroke="#63b8ff" d="M239.19,-158.94C210.35,-152.82 174.95,-141.97 148,-123 131.81,-111.6 119.04,-92.55 111.3,-78.87"/>
<polygon fill="#63b8ff" stroke="#63b8ff" points="114.38,-77.21 106.58,-70.04 108.21,-80.51 114.38,-77.21"/>
</a>
</g>
</g>
<!-- Node8 -->
<g id="Node000008" class="node">
<title>Node8</title>
<g id="a_Node000008"><a xlink:title=" ">
<polygon fill="#e0e0e0" stroke="#999999" points="282,-123 250,-123 250,-106 282,-106 282,-123"/>
<text text-anchor="middle" x="266" y="-112.6" font-family="Helvetica,sans-Serif" font-size="8.00">map</text>
</a>
</g>
</g>
<!-- Node5&#45;&gt;Node8 -->
<g id="edge9_Node000005_Node000008" class="edge">
<title>Node5&#45;&gt;Node8</title>
<g id="a_edge9_Node000005_Node000008"><a xlink:title=" ">
<path fill="none" stroke="#63b8ff" d="M287.31,-158.97C283.88,-151.97 278.64,-141.28 274.21,-132.25"/>
<polygon fill="#63b8ff" stroke="#63b8ff" points="277.25,-130.49 269.7,-123.06 270.96,-133.58 277.25,-130.49"/>
</a>
</g>
</g>
<!-- Node9 -->
<g id="Node000009" class="node">
<title>Node9</title>
<g id="a_Node000009"><a xlink:title=" ">
<polygon fill="#e0e0e0" stroke="#999999" points="332,-123 300,-123 300,-106 332,-106 332,-123"/>
<text text-anchor="middle" x="316" y="-112.6" font-family="Helvetica,sans-Serif" font-size="8.00">new</text>
</a>
</g>
</g>
<!-- Node5&#45;&gt;Node9 -->
<g id="edge10_Node000005_Node000009" class="edge">
<title>Node5&#45;&gt;Node9</title>
<g id="a_edge10_Node000005_Node000009"><a xlink:title=" ">
<path fill="none" stroke="#63b8ff" d="M294.69,-158.97C298.12,-151.97 303.36,-141.28 307.79,-132.25"/>
<polygon fill="#63b8ff" stroke="#63b8ff" points="311.04,-133.58 312.3,-123.06 304.75,-130.49 311.04,-133.58"/>
</a>
</g>
</g>
<!-- Node10 -->
<g id="Node000010" class="node">
<title>Node10</title>
<g id="a_Node000010"><a xlink:title=" ">
<polygon fill="#e0e0e0" stroke="#999999" points="384,-123 350,-123 350,-106 384,-106 384,-123"/>
<text text-anchor="middle" x="367" y="-112.6" font-family="Helvetica,sans-Serif" font-size="8.00">utility</text>
</a>
</g>
</g>
<!-- Node5&#45;&gt;Node10 -->
<g id="edge11_Node000005_Node000010" class="edge">
<title>Node5&#45;&gt;Node10</title>
<g id="a_edge11_Node000005_Node000010"><a xlink:title=" ">
<path fill="none" stroke="#63b8ff" d="M302.21,-158.97C314,-151.07 332.78,-138.46 347.1,-128.86"/>
<polygon fill="#63b8ff" stroke="#63b8ff" points="349.39,-131.53 355.74,-123.06 345.49,-125.72 349.39,-131.53"/>
</a>
</g>
</g>
<!-- Node11 -->
<g id="Node000011" class="node">
<title>Node11</title>
<g id="a_Node000011"><a xlink:title=" ">
<polygon fill="#e0e0e0" stroke="#999999" points="440,-123 402,-123 402,-106 440,-106 440,-123"/>
<text text-anchor="middle" x="421" y="-112.6" font-family="Helvetica,sans-Serif" font-size="8.00">vector</text>
</a>
</g>
</g>
<!-- Node5&#45;&gt;Node11 -->
<g id="edge12_Node000005_Node000011" class="edge">
<title>Node5&#45;&gt;Node11</title>
<g id="a_edge12_Node000005_Node000011"><a xlink:title=" ">
<path fill="none" stroke="#63b8ff" d="M310.18,-158.97C331.88,-150.46 367.44,-136.51 392.41,-126.72"/>
<polygon fill="#63b8ff" stroke="#63b8ff" points="393.71,-129.97 401.74,-123.06 391.15,-123.45 393.71,-129.97"/>
</a>
</g>
</g>
<!-- Node12 -->
<g id="Node000012" class="node">
<title>Node12</title>
<g id="a_Node000012"><a xlink:title=" ">
<polygon fill="#e0e0e0" stroke="#999999" points="540,-123 458,-123 458,-106 540,-106 540,-123"/>
<text text-anchor="middle" x="499" y="-112.6" font-family="Helvetica,sans-Serif" font-size="8.00">memory_resource</text>
</a>
</g>
</g>
<!-- Node5&#45;&gt;Node12 -->
<g id="edge13_Node000005_Node000012" class="edge">
<title>Node5&#45;&gt;Node12</title>
<g id="a_edge13_Node000005_Node000012"><a xlink:title=" ">
<path fill="none" stroke="#63b8ff" d="M321.69,-158.97C357.94,-150.09 418.38,-135.27 458.46,-125.44"/>
<polygon fill="#63b8ff" stroke="#63b8ff" points="459.3,-128.84 468.18,-123.06 457.64,-122.04 459.3,-128.84"/>
</a>
</g>
</g>
<!-- Node5&#45;&gt;Node13 -->
<g id="edge14_Node000005_Node000013" class="edge">
<title>Node5&#45;&gt;Node13</title>
<g id="a_edge14_Node000005_Node000013"><a xlink:title=" ">
<path fill="none" stroke="#63b8ff" d="M369.76,-160.34C442.94,-153.61 545.89,-141.3 582,-123 602.35,-112.69 619.96,-92.85 630.74,-78.7"/>
<polygon fill="#63b8ff" stroke="#63b8ff" points="633.74,-80.52 636.8,-70.38 628.08,-76.4 633.74,-80.52"/>
</a>
</g>
</g>
<!-- Node16 -->
<g id="Node000016" class="node">
<title>Node16</title>
<g id="a_Node000016"><a xlink:href="../../df/d93/utils_8hpp.html" target="_top" xlink:title=" ">
<polygon fill="white" stroke="#666666" points="231.5,-123 156.5,-123 156.5,-106 231.5,-106 231.5,-123"/>
<text text-anchor="middle" x="194" y="-112.6" font-family="Helvetica,sans-Serif" font-size="8.00">../../utils/utils.hpp</text>
</a>
</g>
</g>
<!-- Node5&#45;&gt;Node16 -->
<g id="edge18_Node000005_Node000016" class="edge">
<title>Node5&#45;&gt;Node16</title>
<g id="a_edge18_Node000005_Node000016"><a xlink:title=" ">
<path fill="none" stroke="#63b8ff" d="M276.69,-158.97C261.07,-150.76 235.83,-137.49 217.34,-127.77"/>
<polygon fill="#63b8ff" stroke="#63b8ff" points="218.85,-124.61 208.37,-123.06 215.59,-130.81 218.85,-124.61"/>
</a>
</g>
</g>
<!-- Node13&#45;&gt;Node6 -->
<g id="edge16_Node000013_Node000006" class="edge">
<title>Node13&#45;&gt;Node6</title>
<g id="a_edge16_Node000013_Node000006"><a xlink:title=" ">
<path fill="none" stroke="#63b8ff" d="M631.08,-52.97C619.6,-45.07 601.32,-32.46 587.38,-22.86"/>
<polygon fill="#63b8ff" stroke="#63b8ff" points="589.18,-19.85 578.96,-17.06 585.21,-25.61 589.18,-19.85"/>
</a>
</g>
</g>
<!-- Node14 -->
<g id="Node000014" class="node">
<title>Node14</title>
<g id="a_Node000014"><a xlink:title=" ">
<polygon fill="#e0e0e0" stroke="#999999" points="654,-17 614,-17 614,0 654,0 654,-17"/>
<text text-anchor="middle" x="634" y="-6.6" font-family="Helvetica,sans-Serif" font-size="8.00">atomic</text>
</a>
</g>
</g>
<!-- Node13&#45;&gt;Node14 -->
<g id="edge15_Node000013_Node000014" class="edge">
<title>Node13&#45;&gt;Node14</title>
<g id="a_edge15_Node000013_Node000014"><a xlink:title=" ">
<path fill="none" stroke="#63b8ff" d="M640.82,-52.97C639.76,-46.19 638.15,-35.97 636.77,-27.13"/>
<polygon fill="#63b8ff" stroke="#63b8ff" points="640.19,-26.39 635.19,-17.06 633.28,-27.48 640.19,-26.39"/>
</a>
</g>
</g>
<!-- Node15 -->
<g id="Node000015" class="node">
<title>Node15</title>
<g id="a_Node000015"><a xlink:title=" ">
<polygon fill="#e0e0e0" stroke="#999999" points="710,-17 672,-17 672,0 710,0 710,-17"/>
<text text-anchor="middle" x="691" y="-6.6" font-family="Helvetica,sans-Serif" font-size="8.00">cstdlib</text>
</a>
</g>
</g>
<!-- Node13&#45;&gt;Node15 -->
<g id="edge17_Node000013_Node000015" class="edge">
<title>Node13&#45;&gt;Node15</title>
<g id="a_edge17_Node000013_Node000015"><a xlink:title=" ">
<path fill="none" stroke="#63b8ff" d="M649.23,-52.97C656.4,-45.52 667.57,-33.89 676.56,-24.53"/>
<polygon fill="#63b8ff" stroke="#63b8ff" points="679.34,-26.69 683.74,-17.06 674.29,-21.84 679.34,-26.69"/>
</a>
</g>
</g>
<!-- Node16&#45;&gt;Node6 -->
<g id="edge21_Node000016_Node000006" class="edge">
<title>Node16&#45;&gt;Node6</title>
<g id="a_edge21_Node000016_Node000006"><a xlink:title=" ">
<path fill="none" stroke="#63b8ff" d="M185.84,-105.97C173.44,-93.65 152.71,-68.92 167,-53 191.61,-25.58 446.74,-13.85 536.76,-10.54"/>
<polygon fill="#63b8ff" stroke="#63b8ff" points="537.03,-14.03 546.9,-10.18 536.78,-7.03 537.03,-14.03"/>
</a>
</g>
</g>
<!-- Node16&#45;&gt;Node7 -->
<g id="edge23_Node000016_Node000007" class="edge">
<title>Node16&#45;&gt;Node7</title>
<g id="a_edge23_Node000016_Node000007"><a xlink:title=" ">
<path fill="none" stroke="#63b8ff" d="M180.57,-105.97C166.06,-97.84 142.68,-84.74 125.37,-75.04"/>
<polygon fill="#63b8ff" stroke="#63b8ff" points="126.92,-71.89 116.48,-70.06 123.49,-78 126.92,-71.89"/>
</a>
</g>
</g>
<!-- Node16&#45;&gt;Node13 -->
<g id="edge26_Node000016_Node000013" class="edge">
<title>Node16&#45;&gt;Node13</title>
<g id="a_edge26_Node000016_Node000013"><a xlink:title=" ">
<path fill="none" stroke="#63b8ff" d="M231.69,-107.32C234.83,-106.85 237.97,-106.41 241,-106 363.72,-89.56 508.21,-75.08 585.86,-67.69"/>
<polygon fill="#63b8ff" stroke="#63b8ff" points="586.28,-71.17 595.9,-66.74 585.62,-64.2 586.28,-71.17"/>
</a>
</g>
</g>
<!-- Node17 -->
<g id="Node000017" class="node">
<title>Node17</title>
<g id="a_Node000017"><a xlink:title=" ">
<polygon fill="#e0e0e0" stroke="#999999" points="336.5,-70 301.5,-70 301.5,-53 336.5,-53 336.5,-70"/>
<text text-anchor="middle" x="319" y="-59.6" font-family="Helvetica,sans-Serif" font-size="8.00">array</text>
</a>
</g>
</g>
<!-- Node16&#45;&gt;Node17 -->
<g id="edge19_Node000016_Node000017" class="edge">
<title>Node16&#45;&gt;Node17</title>
<g id="a_edge19_Node000016_Node000017"><a xlink:title=" ">
<path fill="none" stroke="#63b8ff" d="M212.44,-105.97C233.45,-97.4 267.98,-83.32 292.01,-73.51"/>
<polygon fill="#63b8ff" stroke="#63b8ff" points="293.35,-76.74 301.29,-69.73 290.71,-70.26 293.35,-76.74"/>
</a>
</g>
</g>
<!-- Node18 -->
<g id="Node000018" class="node">
<title>Node18</title>
<g id="a_Node000018"><a xlink:title=" ">
<polygon fill="#e0e0e0" stroke="#999999" points="393,-70 355,-70 355,-53 393,-53 393,-70"/>
<text text-anchor="middle" x="374" y="-59.6" font-family="Helvetica,sans-Serif" font-size="8.00">cmath</text>
</a>
</g>
</g>
<!-- Node16&#45;&gt;Node18 -->
<g id="edge20_Node000016_Node000018" class="edge">
<title>Node16&#45;&gt;Node18</title>
<g id="a_edge20_Node000016_Node000018"><a xlink:title=" ">
<path fill="none" stroke="#63b8ff" d="M220.56,-105.97C253.79,-96.56 310.51,-80.49 344.89,-70.75"/>
<polygon fill="#63b8ff" stroke="#63b8ff" points="346.13,-74.03 354.8,-67.94 344.22,-67.3 346.13,-74.03"/>
</a>
</g>
</g>
<!-- Node19 -->
<g id="Node000019" class="node">
<title>Node19</title>
<g id="a_Node000019"><a xlink:title=" ">
<polygon fill="#e0e0e0" stroke="#999999" points="461,-70 411,-70 411,-53 461,-53 461,-70"/>
<text text-anchor="middle" x="436" y="-59.6" font-family="Helvetica,sans-Serif" font-size="8.00">functional</text>
</a>
</g>
</g>
<!-- Node16&#45;&gt;Node19 -->
<g id="edge22_Node000016_Node000019" class="edge">
<title>Node16&#45;&gt;Node19</title>
<g id="a_edge22_Node000016_Node000019"><a xlink:title=" ">
<path fill="none" stroke="#63b8ff" d="M230.47,-106C269.99,-97.84 335.18,-84.31 400.67,-70.27"/>
<polygon fill="#63b8ff" stroke="#63b8ff" points="401.71,-73.62 410.76,-68.1 400.24,-66.78 401.71,-73.62"/>
</a>
</g>
</g>
<!-- Node20 -->
<g id="Node000020" class="node">
<title>Node20</title>
<g id="a_Node000020"><a xlink:title=" ">
<polygon fill="#e0e0e0" stroke="#999999" points="212,-70 176,-70 176,-53 212,-53 212,-70"/>
<text text-anchor="middle" x="194" y="-59.6" font-family="Helvetica,sans-Serif" font-size="8.00">string</text>
</a>
</g>
</g>
<!-- Node16&#45;&gt;Node20 -->
<g id="edge24_Node000016_Node000020" class="edge">
<title>Node16&#45;&gt;Node20</title>
<g id="a_edge24_Node000016_Node000020"><a xlink:title=" ">
<path fill="none" stroke="#63b8ff" d="M194,-105.97C194,-99.19 194,-88.97 194,-80.13"/>
<polygon fill="#63b8ff" stroke="#63b8ff" points="197.5,-80.06 194,-70.06 190.5,-80.06 197.5,-80.06"/>
</a>
</g>
</g>
<!-- Node21 -->
<g id="Node000021" class="node">
<title>Node21</title>
<g id="a_Node000021"><a xlink:title=" ">
<polygon fill="#e0e0e0" stroke="#999999" points="283.5,-70 230.5,-70 230.5,-53 283.5,-53 283.5,-70"/>
<text text-anchor="middle" x="257" y="-59.6" font-family="Helvetica,sans-Serif" font-size="8.00">type_traits</text>
</a>
</g>
</g>
<!-- Node16&#45;&gt;Node21 -->
<g id="edge25_Node000016_Node000021" class="edge">
<title>Node16&#45;&gt;Node21</title>
<g id="a_edge25_Node000016_Node000021"><a xlink:title=" ">
<path fill="none" stroke="#63b8ff" d="M203.3,-105.97C212.88,-98.22 228.05,-85.94 239.82,-76.41"/>
<polygon fill="#63b8ff" stroke="#63b8ff" points="242.1,-79.07 247.67,-70.06 237.69,-73.63 242.1,-79.07"/>
</a>
</g>
</g>
</g>
</svg>
