<?xml version="1.0" encoding="UTF-8" standalone="no"?>
<!DOCTYPE svg PUBLIC "-//W3C//DTD SVG 1.1//EN"
 "http://www.w3.org/Graphics/SVG/1.1/DTD/svg11.dtd">
<!-- Generated by graphviz version 2.43.0 (0)
 -->
<!-- Title: managed_node.hpp Pages: 1 -->
<svg width="784pt" height="237pt"
 viewBox="0.00 0.00 784.00 237.00" xmlns="http://www.w3.org/2000/svg" xmlns:xlink="http://www.w3.org/1999/xlink">
<g id="graph0" class="graph" transform="scale(1 1) rotate(0) translate(4 233)">
<title>managed_node.hpp</title>
<!-- Node1 -->
<g id="Node000001" class="node">
<title>Node1</title>
<g id="a_Node000001"><a xlink:title=" ">
<polygon fill="#999999" stroke="#666666" points="241.5,-229 152.5,-229 152.5,-212 241.5,-212 241.5,-229"/>
<text text-anchor="middle" x="197" y="-218.6" font-family="Helvetica,sans-Serif" font-size="8.00">managed_node.hpp</text>
</a>
</g>
</g>
<!-- Node2 -->
<g id="Node000002" class="node">
<title>Node2</title>
<g id="a_Node000002"><a xlink:title=" ">
<polygon fill="#e0e0e0" stroke="#999999" points="42,-123 0,-123 0,-106 42,-106 42,-123"/>
<text text-anchor="middle" x="21" y="-112.6" font-family="Helvetica,sans-Serif" font-size="8.00">cassert</text>
</a>
</g>
</g>
<!-- Node1&#45;&gt;Node2 -->
<g id="edge1_Node000001_Node000002" class="edge">
<title>Node1&#45;&gt;Node2</title>
<g id="a_edge1_Node000001_Node000002"><a xlink:title=" ">
<path fill="none" stroke="#63b8ff" d="M175.77,-211.96C155.19,-204.25 123.44,-191.25 98,-176 75.57,-162.56 52.3,-143.43 37.29,-130.3"/>
<polygon fill="#63b8ff" stroke="#63b8ff" points="39.28,-127.38 29.48,-123.35 34.62,-132.61 39.28,-127.38"/>
</a>
</g>
</g>
<!-- Node3 -->
<g id="Node000003" class="node">
<title>Node3</title>
<g id="a_Node000003"><a xlink:href="../../dc/d3c/bnode_8hpp.html" target="_top" xlink:title=" ">
<polygon fill="white" stroke="#666666" points="162.5,-176 107.5,-176 107.5,-159 162.5,-159 162.5,-176"/>
<text text-anchor="middle" x="135" y="-165.6" font-family="Helvetica,sans-Serif" font-size="8.00">bnode.hpp</text>
</a>
</g>
</g>
<!-- Node1&#45;&gt;Node3 -->
<g id="edge2_Node000001_Node000003" class="edge">
<title>Node1&#45;&gt;Node3</title>
<g id="a_edge2_Node000001_Node000003"><a xlink:title=" ">
<path fill="none" stroke="#63b8ff" d="M187.85,-211.97C178.51,-204.29 163.78,-192.18 152.25,-182.69"/>
<polygon fill="#63b8ff" stroke="#63b8ff" points="154.13,-179.71 144.19,-176.06 149.69,-185.11 154.13,-179.71"/>
</a>
</g>
</g>
<!-- Node4 -->
<g id="Node000004" class="node">
<title>Node4</title>
<g id="a_Node000004"><a xlink:href="../../d9/df8/heterogeneous__pool_8hpp.html" target="_top" xlink:title=" ">
<polygon fill="white" stroke="#666666" points="337.5,-176 180.5,-176 180.5,-159 337.5,-159 337.5,-176"/>
<text text-anchor="middle" x="259" y="-165.6" font-family="Helvetica,sans-Serif" font-size="8.00">../../types/pmr/heterogeneous_pool.hpp</text>
</a>
</g>
</g>
<!-- Node1&#45;&gt;Node4 -->
<g id="edge3_Node000001_Node000004" class="edge">
<title>Node1&#45;&gt;Node4</title>
<g id="a_edge3_Node000001_Node000004"><a xlink:title=" ">
<path fill="none" stroke="#63b8ff" d="M206.15,-211.97C215.49,-204.29 230.22,-192.18 241.75,-182.69"/>
<polygon fill="#63b8ff" stroke="#63b8ff" points="244.31,-185.11 249.81,-176.06 239.87,-179.71 244.31,-185.11"/>
</a>
</g>
</g>
<!-- Node11 -->
<g id="Node000011" class="node">
<title>Node11</title>
<g id="a_Node000011"><a xlink:href="../../d7/d65/intrinsics_8hpp.html" target="_top" xlink:title=" ">
<polygon fill="white" stroke="#666666" points="774,-70 682,-70 682,-53 774,-53 774,-70"/>
<text text-anchor="middle" x="728" y="-59.6" font-family="Helvetica,sans-Serif" font-size="8.00">../../utils/intrinsics.hpp</text>
</a>
</g>
</g>
<!-- Node1&#45;&gt;Node11 -->
<g id="edge24_Node000001_Node000011" class="edge">
<title>Node1&#45;&gt;Node11</title>
<g id="a_edge24_Node000001_Node000011"><a xlink:title=" ">
<path fill="none" stroke="#63b8ff" d="M232.13,-211.98C299.14,-197.3 449.52,-162.78 573,-123 618.7,-108.28 670.4,-87.17 701.04,-74.17"/>
<polygon fill="#63b8ff" stroke="#63b8ff" points="702.76,-77.24 710.58,-70.1 700.01,-70.81 702.76,-77.24"/>
</a>
</g>
</g>
<!-- Node4&#45;&gt;Node2 -->
<g id="edge4_Node000004_Node000002" class="edge">
<title>Node4&#45;&gt;Node2</title>
<g id="a_edge4_Node000004_Node000002"><a xlink:title=" ">
<path fill="none" stroke="#63b8ff" d="M220.57,-158.93C180.79,-150.99 116.62,-137.89 52.2,-123.2"/>
<polygon fill="#63b8ff" stroke="#63b8ff" points="52.81,-119.75 42.28,-120.93 51.25,-126.57 52.81,-119.75"/>
</a>
</g>
</g>
<!-- Node5 -->
<g id="Node000005" class="node">
<title>Node5</title>
<g id="a_Node000005"><a xlink:title=" ">
<polygon fill="#e0e0e0" stroke="#999999" points="319,-17 277,-17 277,0 319,0 319,-17"/>
<text text-anchor="middle" x="298" y="-6.6" font-family="Helvetica,sans-Serif" font-size="8.00">cstddef</text>
</a>
</g>
</g>
<!-- Node4&#45;&gt;Node5 -->
<g id="edge5_Node000004_Node000005" class="edge">
<title>Node4&#45;&gt;Node5</title>
<g id="a_edge5_Node000004_Node000005"><a xlink:title=" ">
<path fill="none" stroke="#63b8ff" d="M272.99,-158.97C285.05,-151.59 301.66,-139.13 309,-123 312.13,-116.12 309.62,-113.53 309,-106 307.66,-89.83 305,-86.1 303,-70 301.22,-55.73 299.92,-39.49 299.09,-27.43"/>
<polygon fill="#63b8ff" stroke="#63b8ff" points="302.58,-27.11 298.44,-17.35 295.59,-27.56 302.58,-27.11"/>
</a>
</g>
</g>
<!-- Node6 -->
<g id="Node000006" class="node">
<title>Node6</title>
<g id="a_Node000006"><a xlink:title=" ">
<polygon fill="#e0e0e0" stroke="#999999" points="563.5,-123 524.5,-123 524.5,-106 563.5,-106 563.5,-123"/>
<text text-anchor="middle" x="544" y="-112.6" font-family="Helvetica,sans-Serif" font-size="8.00">cstdint</text>
</a>
</g>
</g>
<!-- Node4&#45;&gt;Node6 -->
<g id="edge6_Node000004_Node000006" class="edge">
<title>Node4&#45;&gt;Node6</title>
<g id="a_edge6_Node000004_Node000006"><a xlink:title=" ">
<path fill="none" stroke="#63b8ff" d="M306.3,-158.96C356.85,-150.75 439.27,-136.92 510,-123 511.45,-122.72 512.92,-122.42 514.42,-122.11"/>
<polygon fill="#63b8ff" stroke="#63b8ff" points="515.2,-125.52 524.26,-120.01 513.75,-118.67 515.2,-125.52"/>
</a>
</g>
</g>
<!-- Node7 -->
<g id="Node000007" class="node">
<title>Node7</title>
<g id="a_Node000007"><a xlink:title=" ">
<polygon fill="#e0e0e0" stroke="#999999" points="92,-123 60,-123 60,-106 92,-106 92,-123"/>
<text text-anchor="middle" x="76" y="-112.6" font-family="Helvetica,sans-Serif" font-size="8.00">map</text>
</a>
</g>
</g>
<!-- Node4&#45;&gt;Node7 -->
<g id="edge7_Node000004_Node000007" class="edge">
<title>Node4&#45;&gt;Node7</title>
<g id="a_edge7_Node000004_Node000007"><a xlink:title=" ">
<path fill="none" stroke="#63b8ff" d="M230.98,-158.99C201.26,-150.99 152.72,-137.78 101.96,-123.23"/>
<polygon fill="#63b8ff" stroke="#63b8ff" points="102.7,-119.8 92.12,-120.4 100.77,-126.52 102.7,-119.8"/>
</a>
</g>
</g>
<!-- Node8 -->
<g id="Node000008" class="node">
<title>Node8</title>
<g id="a_Node000008"><a xlink:title=" ">
<polygon fill="#e0e0e0" stroke="#999999" points="144,-123 110,-123 110,-106 144,-106 144,-123"/>
<text text-anchor="middle" x="127" y="-112.6" font-family="Helvetica,sans-Serif" font-size="8.00">utility</text>
</a>
</g>
</g>
<!-- Node4&#45;&gt;Node8 -->
<g id="edge8_Node000004_Node000008" class="edge">
<title>Node4&#45;&gt;Node8</title>
<g id="a_edge8_Node000004_Node000008"><a xlink:title=" ">
<path fill="none" stroke="#63b8ff" d="M239.52,-158.97C216.73,-150.17 178.88,-135.54 153.44,-125.72"/>
<polygon fill="#63b8ff" stroke="#63b8ff" points="154.63,-122.42 144.04,-122.08 152.1,-128.95 154.63,-122.42"/>
</a>
</g>
</g>
<!-- Node9 -->
<g id="Node000009" class="node">
<title>Node9</title>
<g id="a_Node000009"><a xlink:title=" ">
<polygon fill="#e0e0e0" stroke="#999999" points="200,-123 162,-123 162,-106 200,-106 200,-123"/>
<text text-anchor="middle" x="181" y="-112.6" font-family="Helvetica,sans-Serif" font-size="8.00">vector</text>
</a>
</g>
</g>
<!-- Node4&#45;&gt;Node9 -->
<g id="edge9_Node000004_Node000009" class="edge">
<title>Node4&#45;&gt;Node9</title>
<g id="a_edge9_Node000004_Node000009"><a xlink:title=" ">
<path fill="none" stroke="#63b8ff" d="M247.49,-158.97C235.28,-150.99 215.75,-138.22 201.01,-128.58"/>
<polygon fill="#63b8ff" stroke="#63b8ff" points="202.84,-125.6 192.56,-123.06 199.01,-131.46 202.84,-125.6"/>
</a>
</g>
</g>
<!-- Node10 -->
<g id="Node000010" class="node">
<title>Node10</title>
<g id="a_Node000010"><a xlink:title=" ">
<polygon fill="#e0e0e0" stroke="#999999" points="300,-123 218,-123 218,-106 300,-106 300,-123"/>
<text text-anchor="middle" x="259" y="-112.6" font-family="Helvetica,sans-Serif" font-size="8.00">memory_resource</text>
</a>
</g>
</g>
<!-- Node4&#45;&gt;Node10 -->
<g id="edge10_Node000004_Node000010" class="edge">
<title>Node4&#45;&gt;Node10</title>
<g id="a_edge10_Node000004_Node000010"><a xlink:title=" ">
<path fill="none" stroke="#63b8ff" d="M259,-158.97C259,-152.19 259,-141.97 259,-133.13"/>
<polygon fill="#63b8ff" stroke="#63b8ff" points="262.5,-133.06 259,-123.06 255.5,-133.06 262.5,-133.06"/>
</a>
</g>
</g>
<!-- Node4&#45;&gt;Node11 -->
<g id="edge11_Node000004_Node000011" class="edge">
<title>Node4&#45;&gt;Node11</title>
<g id="a_edge11_Node000004_Node000011"><a xlink:title=" ">
<path fill="none" stroke="#63b8ff" d="M313.56,-158.94C358.15,-151.97 422.5,-140.1 477,-123 495.04,-117.34 497.97,-111.71 516,-106 567.73,-89.62 628.57,-77.87 671.77,-70.75"/>
<polygon fill="#63b8ff" stroke="#63b8ff" points="672.49,-74.18 681.81,-69.13 671.37,-67.27 672.49,-74.18"/>
</a>
</g>
</g>
<!-- Node14 -->
<g id="Node000014" class="node">
<title>Node14</title>
<g id="a_Node000014"><a xlink:href="../../df/d93/utils_8hpp.html" target="_top" xlink:title=" ">
<polygon fill="white" stroke="#666666" points="467.5,-123 392.5,-123 392.5,-106 467.5,-106 467.5,-123"/>
<text text-anchor="middle" x="430" y="-112.6" font-family="Helvetica,sans-Serif" font-size="8.00">../../utils/utils.hpp</text>
</a>
</g>
</g>
<!-- Node4&#45;&gt;Node14 -->
<g id="edge15_Node000004_Node000014" class="edge">
<title>Node4&#45;&gt;Node14</title>
<g id="a_edge15_Node000004_Node000014"><a xlink:title=" ">
<path fill="none" stroke="#63b8ff" d="M284.23,-158.97C313.53,-150.24 362.04,-135.77 394.98,-125.94"/>
<polygon fill="#63b8ff" stroke="#63b8ff" points="396.08,-129.27 404.66,-123.06 394.08,-122.56 396.08,-129.27"/>
</a>
</g>
</g>
<!-- Node11&#45;&gt;Node5 -->
<g id="edge13_Node000011_Node000005" class="edge">
<title>Node11&#45;&gt;Node5</title>
<g id="a_edge13_Node000011_Node000005"><a xlink:title=" ">
<path fill="none" stroke="#63b8ff" d="M681.8,-54.13C678.82,-53.74 675.87,-53.36 673,-53 545.76,-36.95 393.94,-20.02 329.46,-12.93"/>
<polygon fill="#63b8ff" stroke="#63b8ff" points="329.48,-9.42 319.16,-11.8 328.72,-16.37 329.48,-9.42"/>
</a>
</g>
</g>
<!-- Node12 -->
<g id="Node000012" class="node">
<title>Node12</title>
<g id="a_Node000012"><a xlink:title=" ">
<polygon fill="#e0e0e0" stroke="#999999" points="776,-17 736,-17 736,0 776,0 776,-17"/>
<text text-anchor="middle" x="756" y="-6.6" font-family="Helvetica,sans-Serif" font-size="8.00">atomic</text>
</a>
</g>
</g>
<!-- Node11&#45;&gt;Node12 -->
<g id="edge12_Node000011_Node000012" class="edge">
<title>Node11&#45;&gt;Node12</title>
<g id="a_edge12_Node000011_Node000012"><a xlink:title=" ">
<path fill="none" stroke="#63b8ff" d="M732.13,-52.97C736.02,-45.89 741.97,-35.05 746.96,-25.96"/>
<polygon fill="#63b8ff" stroke="#63b8ff" points="750.11,-27.51 751.85,-17.06 743.97,-24.14 750.11,-27.51"/>
</a>
</g>
</g>
<!-- Node13 -->
<g id="Node000013" class="node">
<title>Node13</title>
<g id="a_Node000013"><a xlink:title=" ">
<polygon fill="#e0e0e0" stroke="#999999" points="718,-17 680,-17 680,0 718,0 718,-17"/>
<text text-anchor="middle" x="699" y="-6.6" font-family="Helvetica,sans-Serif" font-size="8.00">cstdlib</text>
</a>
</g>
</g>
<!-- Node11&#45;&gt;Node13 -->
<g id="edge14_Node000011_Node000013" class="edge">
<title>Node11&#45;&gt;Node13</title>
<g id="a_edge14_Node000011_Node000013"><a xlink:title=" ">
<path fill="none" stroke="#63b8ff" d="M723.72,-52.97C719.69,-45.89 713.53,-35.05 708.36,-25.96"/>
<polygon fill="#63b8ff" stroke="#63b8ff" points="711.28,-24.02 703.3,-17.06 705.2,-27.48 711.28,-24.02"/>
</a>
</g>
</g>
<!-- Node14&#45;&gt;Node5 -->
<g id="edge18_Node000014_Node000005" class="edge">
<title>Node14&#45;&gt;Node5</title>
<g id="a_edge18_Node000014_Node000005"><a xlink:title=" ">
<path fill="none" stroke="#63b8ff" d="M392.49,-107.71C367.91,-102.06 336.78,-91.07 317,-70 306.16,-58.45 301.5,-40.78 299.5,-27.51"/>
<polygon fill="#63b8ff" stroke="#63b8ff" points="302.94,-26.79 298.34,-17.25 295.99,-27.58 302.94,-26.79"/>
</a>
</g>
</g>
<!-- Node14&#45;&gt;Node11 -->
<g id="edge23_Node000014_Node000011" class="edge">
<title>Node14&#45;&gt;Node11</title>
<g id="a_edge23_Node000014_Node000011"><a xlink:title=" ">
<path fill="none" stroke="#63b8ff" d="M467.74,-107.04C519.86,-98.12 614.16,-81.98 673.8,-71.78"/>
<polygon fill="#63b8ff" stroke="#63b8ff" points="674.52,-75.2 683.79,-70.07 673.34,-68.3 674.52,-75.2"/>
</a>
</g>
</g>
<!-- Node15 -->
<g id="Node000015" class="node">
<title>Node15</title>
<g id="a_Node000015"><a xlink:title=" ">
<polygon fill="#e0e0e0" stroke="#999999" points="361.5,-70 326.5,-70 326.5,-53 361.5,-53 361.5,-70"/>
<text text-anchor="middle" x="344" y="-59.6" font-family="Helvetica,sans-Serif" font-size="8.00">array</text>
</a>
</g>
</g>
<!-- Node14&#45;&gt;Node15 -->
<g id="edge16_Node000014_Node000015" class="edge">
<title>Node14&#45;&gt;Node15</title>
<g id="a_edge16_Node000014_Node000015"><a xlink:title=" ">
<path fill="none" stroke="#63b8ff" d="M417.31,-105.97C403.72,-97.91 381.91,-84.98 365.6,-75.31"/>
<polygon fill="#63b8ff" stroke="#63b8ff" points="367.13,-72.15 356.74,-70.06 363.56,-78.17 367.13,-72.15"/>
</a>
</g>
</g>
<!-- Node16 -->
<g id="Node000016" class="node">
<title>Node16</title>
<g id="a_Node000016"><a xlink:title=" ">
<polygon fill="#e0e0e0" stroke="#999999" points="418,-70 380,-70 380,-53 418,-53 418,-70"/>
<text text-anchor="middle" x="399" y="-59.6" font-family="Helvetica,sans-Serif" font-size="8.00">cmath</text>
</a>
</g>
</g>
<!-- Node14&#45;&gt;Node16 -->
<g id="edge17_Node000014_Node000016" class="edge">
<title>Node14&#45;&gt;Node16</title>
<g id="a_edge17_Node000014_Node000016"><a xlink:title=" ">
<path fill="none" stroke="#63b8ff" d="M425.43,-105.97C421.08,-98.82 414.39,-87.82 408.83,-78.67"/>
<polygon fill="#63b8ff" stroke="#63b8ff" points="411.78,-76.78 403.59,-70.06 405.8,-80.42 411.78,-76.78"/>
</a>
</g>
</g>
<!-- Node17 -->
<g id="Node000017" class="node">
<title>Node17</title>
<g id="a_Node000017"><a xlink:title=" ">
<polygon fill="#e0e0e0" stroke="#999999" points="486,-70 436,-70 436,-53 486,-53 486,-70"/>
<text text-anchor="middle" x="461" y="-59.6" font-family="Helvetica,sans-Serif" font-size="8.00">functional</text>
</a>
</g>
</g>
<!-- Node14&#45;&gt;Node17 -->
<g id="edge19_Node000014_Node000017" class="edge">
<title>Node14&#45;&gt;Node17</title>
<g id="a_edge19_Node000014_Node000017"><a xlink:title=" ">
<path fill="none" stroke="#63b8ff" d="M434.57,-105.97C438.92,-98.82 445.61,-87.82 451.17,-78.67"/>
<polygon fill="#63b8ff" stroke="#63b8ff" points="454.2,-80.42 456.41,-70.06 448.22,-76.78 454.2,-80.42"/>
</a>
</g>
</g>
<!-- Node18 -->
<g id="Node000018" class="node">
<title>Node18</title>
<g id="a_Node000018"><a xlink:title=" ">
<polygon fill="#e0e0e0" stroke="#999999" points="538,-70 504,-70 504,-53 538,-53 538,-70"/>
<text text-anchor="middle" x="521" y="-59.6" font-family="Helvetica,sans-Serif" font-size="8.00">limits</text>
</a>
</g>
</g>
<!-- Node14&#45;&gt;Node18 -->
<g id="edge20_Node000014_Node000018" class="edge">
<title>Node14&#45;&gt;Node18</title>
<g id="a_edge20_Node000014_Node000018"><a xlink:title=" ">
<path fill="none" stroke="#63b8ff" d="M443.43,-105.97C457.94,-97.84 481.32,-84.74 498.63,-75.04"/>
<polygon fill="#63b8ff" stroke="#63b8ff" points="500.51,-78 507.52,-70.06 497.08,-71.89 500.51,-78"/>
</a>
</g>
</g>
<!-- Node19 -->
<g id="Node000019" class="node">
<title>Node19</title>
<g id="a_Node000019"><a xlink:title=" ">
<polygon fill="#e0e0e0" stroke="#999999" points="592,-70 556,-70 556,-53 592,-53 592,-70"/>
<text text-anchor="middle" x="574" y="-59.6" font-family="Helvetica,sans-Serif" font-size="8.00">string</text>
</a>
</g>
</g>
<!-- Node14&#45;&gt;Node19 -->
<g id="edge21_Node000014_Node000019" class="edge">
<title>Node14&#45;&gt;Node19</title>
<g id="a_edge21_Node000014_Node000019"><a xlink:title=" ">
<path fill="none" stroke="#63b8ff" d="M451.25,-105.97C476.47,-97.04 518.6,-82.12 546.35,-72.29"/>
<polygon fill="#63b8ff" stroke="#63b8ff" points="547.6,-75.56 555.86,-68.93 545.26,-68.96 547.6,-75.56"/>
</a>
</g>
</g>
<!-- Node20 -->
<g id="Node000020" class="node">
<title>Node20</title>
<g id="a_Node000020"><a xlink:title=" ">
<polygon fill="#e0e0e0" stroke="#999999" points="663.5,-70 610.5,-70 610.5,-53 663.5,-53 663.5,-70"/>
<text text-anchor="middle" x="637" y="-59.6" font-family="Helvetica,sans-Serif" font-size="8.00">type_traits</text>
</a>
</g>
</g>
<!-- Node14&#45;&gt;Node20 -->
<g id="edge22_Node000014_Node000020" class="edge">
<title>Node14&#45;&gt;Node20</title>
<g id="a_edge22_Node000014_Node000020"><a xlink:title=" ">
<path fill="none" stroke="#63b8ff" d="M460.54,-105.97C497.79,-96.8 560.68,-81.3 600.45,-71.5"/>
<polygon fill="#63b8ff" stroke="#63b8ff" points="601.41,-74.87 610.28,-69.08 599.74,-68.08 601.41,-74.87"/>
</a>
</g>
</g>
</g>
</svg>
