<?xml version="1.0" encoding="UTF-8" standalone="no"?>
<!DOCTYPE svg PUBLIC "-//W3C//DTD SVG 1.1//EN"
 "http://www.w3.org/Graphics/SVG/1.1/DTD/svg11.dtd">
<!-- Generated by graphviz version 2.43.0 (0)
 -->
<!-- Title: heap.hpp Pages: 1 -->
<svg width="441pt" height="131pt"
 viewBox="0.00 0.00 440.50 131.00" xmlns="http://www.w3.org/2000/svg" xmlns:xlink="http://www.w3.org/1999/xlink">
<g id="graph0" class="graph" transform="scale(1 1) rotate(0) translate(4 127)">
<title>heap.hpp</title>
<!-- Node1 -->
<g id="Node000001" class="node">
<title>Node1</title>
<g id="a_Node000001"><a xlink:title=" ">
<polygon fill="#999999" stroke="#666666" points="221.5,-123 165.5,-123 165.5,-106 221.5,-106 221.5,-123"/>
<text text-anchor="middle" x="193.5" y="-112.6" font-family="Helvetica,sans-Serif" font-size="8.00">heap.hpp</text>
</a>
</g>
</g>
<!-- Node2 -->
<g id="Node000002" class="node">
<title>Node2</title>
<g id="a_Node000002"><a xlink:href="../../dc/da9/astar_8hpp.html" target="_top" xlink:title=" ">
<polygon fill="white" stroke="#666666" points="55,-70 0,-70 0,-53 55,-53 55,-70"/>
<text text-anchor="middle" x="27.5" y="-59.6" font-family="Helvetica,sans-Serif" font-size="8.00">astar.hpp</text>
</a>
</g>
</g>
<!-- Node1&#45;&gt;Node2 -->
<g id="edge1_Node000001_Node000002" class="edge">
<title>Node1&#45;&gt;Node2</title>
<g id="a_edge1_Node000001_Node000002"><a xlink:title=" ">
<path fill="none" stroke="#63b8ff" d="M159.2,-102.96C127.27,-93.15 80.46,-78.77 52.09,-70.06"/>
<polygon fill="#63b8ff" stroke="#63b8ff" points="158.42,-106.38 169.01,-105.97 160.47,-99.69 158.42,-106.38"/>
</a>
</g>
</g>
<!-- Node3 -->
<g id="Node000003" class="node">
<title>Node3</title>
<g id="a_Node000003"><a xlink:href="../../d9/d96/chdr_8hpp.html" target="_top" xlink:title=" ">
<polygon fill="white" stroke="#666666" points="219.5,-17 167.5,-17 167.5,0 219.5,0 219.5,-17"/>
<text text-anchor="middle" x="193.5" y="-6.6" font-family="Helvetica,sans-Serif" font-size="8.00">chdr.hpp</text>
</a>
</g>
</g>
<!-- Node1&#45;&gt;Node3 -->
<g id="edge5_Node000001_Node000003" class="edge">
<title>Node1&#45;&gt;Node3</title>
<g id="a_edge5_Node000001_Node000003"><a xlink:title=" ">
<path fill="none" stroke="#63b8ff" d="M155.26,-105.43C135.91,-99.21 114.11,-88.42 102.5,-70 84.64,-41.67 134.67,-23.65 167.46,-15.18"/>
<polygon fill="#63b8ff" stroke="#63b8ff" points="154.51,-108.86 165.09,-108.29 156.46,-102.14 154.51,-108.86"/>
</a>
</g>
</g>
<!-- Node4 -->
<g id="Node000004" class="node">
<title>Node4</title>
<g id="a_Node000004"><a xlink:href="../../d3/d77/best__first_8hpp.html" target="_top" xlink:title=" ">
<polygon fill="white" stroke="#666666" points="183.5,-70 111.5,-70 111.5,-53 183.5,-53 183.5,-70"/>
<text text-anchor="middle" x="147.5" y="-59.6" font-family="Helvetica,sans-Serif" font-size="8.00">best_first.hpp</text>
</a>
</g>
</g>
<!-- Node1&#45;&gt;Node4 -->
<g id="edge3_Node000001_Node000004" class="edge">
<title>Node1&#45;&gt;Node4</title>
<g id="a_edge3_Node000001_Node000004"><a xlink:title=" ">
<path fill="none" stroke="#63b8ff" d="M179.98,-98.51C171.55,-89.16 161.05,-77.53 154.32,-70.06"/>
<polygon fill="#63b8ff" stroke="#63b8ff" points="177.42,-100.89 186.71,-105.97 182.61,-96.2 177.42,-100.89"/>
</a>
</g>
</g>
<!-- Node5 -->
<g id="Node000005" class="node">
<title>Node5</title>
<g id="a_Node000005"><a xlink:href="../../d3/d3e/gbest__first_8hpp.html" target="_top" xlink:title=" ">
<polygon fill="white" stroke="#666666" points="279,-70 202,-70 202,-53 279,-53 279,-70"/>
<text text-anchor="middle" x="240.5" y="-59.6" font-family="Helvetica,sans-Serif" font-size="8.00">gbest_first.hpp</text>
</a>
</g>
</g>
<!-- Node1&#45;&gt;Node5 -->
<g id="edge6_Node000001_Node000005" class="edge">
<title>Node1&#45;&gt;Node5</title>
<g id="a_edge6_Node000001_Node000005"><a xlink:title=" ">
<path fill="none" stroke="#63b8ff" d="M207.32,-98.51C215.93,-89.16 226.65,-77.53 233.54,-70.06"/>
<polygon fill="#63b8ff" stroke="#63b8ff" points="204.64,-96.25 200.44,-105.97 209.79,-100.99 204.64,-96.25"/>
</a>
</g>
</g>
<!-- Node6 -->
<g id="Node000006" class="node">
<title>Node6</title>
<g id="a_Node000006"><a xlink:href="../../d1/def/gstar_8hpp.html" target="_top" xlink:title=" ">
<polygon fill="white" stroke="#666666" points="352,-70 297,-70 297,-53 352,-53 352,-70"/>
<text text-anchor="middle" x="324.5" y="-59.6" font-family="Helvetica,sans-Serif" font-size="8.00">gstar.hpp</text>
</a>
</g>
</g>
<!-- Node1&#45;&gt;Node6 -->
<g id="edge8_Node000001_Node000006" class="edge">
<title>Node1&#45;&gt;Node6</title>
<g id="a_edge8_Node000001_Node000006"><a xlink:title=" ">
<path fill="none" stroke="#63b8ff" d="M222.22,-102.32C247.36,-92.53 283.19,-78.58 305.09,-70.06"/>
<polygon fill="#63b8ff" stroke="#63b8ff" points="220.88,-99.09 212.83,-105.97 223.42,-105.61 220.88,-99.09"/>
</a>
</g>
</g>
<!-- Node7 -->
<g id="Node000007" class="node">
<title>Node7</title>
<g id="a_Node000007"><a xlink:href="../../d8/ddf/mgstar_8hpp.html" target="_top" xlink:title=" ">
<polygon fill="white" stroke="#666666" points="432.5,-70 370.5,-70 370.5,-53 432.5,-53 432.5,-70"/>
<text text-anchor="middle" x="401.5" y="-59.6" font-family="Helvetica,sans-Serif" font-size="8.00">mgstar.hpp</text>
</a>
</g>
</g>
<!-- Node1&#45;&gt;Node7 -->
<g id="edge10_Node000001_Node000007" class="edge">
<title>Node1&#45;&gt;Node7</title>
<g id="a_edge10_Node000001_Node000007"><a xlink:title=" ">
<path fill="none" stroke="#63b8ff" d="M231.47,-104.19C271.51,-94.37 333.82,-79.09 370.86,-70.01"/>
<polygon fill="#63b8ff" stroke="#63b8ff" points="230.43,-100.84 221.55,-106.62 232.1,-107.64 230.43,-100.84"/>
</a>
</g>
</g>
<!-- Node2&#45;&gt;Node3 -->
<g id="edge2_Node000002_Node000003" class="edge">
<title>Node2&#45;&gt;Node3</title>
<g id="a_edge2_Node000002_Node000003"><a xlink:title=" ">
<path fill="none" stroke="#63b8ff" d="M61.8,-49.96C93.73,-40.15 140.54,-25.77 168.91,-17.06"/>
<polygon fill="#63b8ff" stroke="#63b8ff" points="60.53,-46.69 51.99,-52.97 62.58,-53.38 60.53,-46.69"/>
</a>
</g>
</g>
<!-- Node4&#45;&gt;Node3 -->
<g id="edge4_Node000004_Node000003" class="edge">
<title>Node4&#45;&gt;Node3</title>
<g id="a_edge4_Node000004_Node000003"><a xlink:title=" ">
<path fill="none" stroke="#63b8ff" d="M161.02,-45.51C169.45,-36.16 179.95,-24.53 186.68,-17.06"/>
<polygon fill="#63b8ff" stroke="#63b8ff" points="158.39,-43.2 154.29,-52.97 163.58,-47.89 158.39,-43.2"/>
</a>
</g>
</g>
<!-- Node5&#45;&gt;Node3 -->
<g id="edge7_Node000005_Node000003" class="edge">
<title>Node5&#45;&gt;Node3</title>
<g id="a_edge7_Node000005_Node000003"><a xlink:title=" ">
<path fill="none" stroke="#63b8ff" d="M226.68,-45.51C218.07,-36.16 207.35,-24.53 200.46,-17.06"/>
<polygon fill="#63b8ff" stroke="#63b8ff" points="224.21,-47.99 233.56,-52.97 229.36,-43.25 224.21,-47.99"/>
</a>
</g>
</g>
<!-- Node6&#45;&gt;Node3 -->
<g id="edge9_Node000006_Node000003" class="edge">
<title>Node6&#45;&gt;Node3</title>
<g id="a_edge9_Node000006_Node000003"><a xlink:title=" ">
<path fill="none" stroke="#63b8ff" d="M295.78,-49.32C270.64,-39.53 234.81,-25.58 212.91,-17.06"/>
<polygon fill="#63b8ff" stroke="#63b8ff" points="294.58,-52.61 305.17,-52.97 297.12,-46.09 294.58,-52.61"/>
</a>
</g>
</g>
<!-- Node7&#45;&gt;Node3 -->
<g id="edge11_Node000007_Node000003" class="edge">
<title>Node7&#45;&gt;Node3</title>
<g id="a_edge11_Node000007_Node000003"><a xlink:title=" ">
<path fill="none" stroke="#63b8ff" d="M360.95,-50.56C319.17,-40.31 255.27,-24.65 219.71,-15.93"/>
<polygon fill="#63b8ff" stroke="#63b8ff" points="360.26,-53.99 370.81,-52.97 361.93,-47.19 360.26,-53.99"/>
</a>
</g>
</g>
</g>
</svg>
