<?xml version="1.0" encoding="UTF-8" standalone="no"?>
<!DOCTYPE svg PUBLIC "-//W3C//DTD SVG 1.1//EN"
 "http://www.w3.org/Graphics/SVG/1.1/DTD/svg11.dtd">
<!-- Generated by graphviz version 2.43.0 (0)
 -->
<!-- Title: heap.hpp Pages: 1 -->
<svg width="335pt" height="131pt"
 viewBox="0.00 0.00 335.00 131.00" xmlns="http://www.w3.org/2000/svg" xmlns:xlink="http://www.w3.org/1999/xlink">
<g id="graph0" class="graph" transform="scale(1 1) rotate(0) translate(4 127)">
<title>heap.hpp</title>
<!-- Node1 -->
<g id="Node000001" class="node">
<title>Node1</title>
<g id="a_Node000001"><a xlink:title=" ">
<polygon fill="#999999" stroke="#666666" points="164,-123 114,-123 114,-106 164,-106 164,-123"/>
<text text-anchor="middle" x="139" y="-112.6" font-family="Helvetica,sans-Serif" font-size="8.00">heap.hpp</text>
</a>
</g>
</g>
<!-- Node2 -->
<g id="Node000002" class="node">
<title>Node2</title>
<g id="a_Node000002"><a xlink:href="../../dc/da9/astar_8hpp.html" target="_top" xlink:title=" ">
<polygon fill="white" stroke="#666666" points="50,-70 0,-70 0,-53 50,-53 50,-70"/>
<text text-anchor="middle" x="25" y="-59.6" font-family="Helvetica,sans-Serif" font-size="8.00">astar.hpp</text>
</a>
</g>
</g>
<!-- Node1&#45;&gt;Node2 -->
<g id="edge1_Node000001_Node000002" class="edge">
<title>Node1&#45;&gt;Node2</title>
<g id="a_edge1_Node000001_Node000002"><a xlink:title=" ">
<path fill="none" stroke="#63b8ff" d="M112.84,-101.8C91.03,-92.04 60.61,-78.43 41.89,-70.06"/>
<polygon fill="#63b8ff" stroke="#63b8ff" points="111.62,-105.09 122.18,-105.97 114.48,-98.7 111.62,-105.09"/>
</a>
</g>
</g>
<!-- Node3 -->
<g id="Node000003" class="node">
<title>Node3</title>
<g id="a_Node000003"><a xlink:href="../../d9/d96/chdr_8hpp.html" target="_top" xlink:title=" ">
<polygon fill="white" stroke="#666666" points="162.5,-17 115.5,-17 115.5,0 162.5,0 162.5,-17"/>
<text text-anchor="middle" x="139" y="-6.6" font-family="Helvetica,sans-Serif" font-size="8.00">chdr.hpp</text>
</a>
</g>
</g>
<!-- Node1&#45;&gt;Node3 -->
<g id="edge5_Node000001_Node000003" class="edge">
<title>Node1&#45;&gt;Node3</title>
<g id="a_edge5_Node000001_Node000003"><a xlink:title=" ">
<path fill="none" stroke="#63b8ff" d="M119.64,-99.26C110.96,-91.66 101.65,-81.51 97,-70 88.47,-48.9 112.11,-27.89 127.3,-17.05"/>
<polygon fill="#63b8ff" stroke="#63b8ff" points="117.62,-102.13 127.59,-105.72 122.04,-96.7 117.62,-102.13"/>
</a>
</g>
</g>
<!-- Node4 -->
<g id="Node000004" class="node">
<title>Node4</title>
<g id="a_Node000004"><a xlink:href="../../d3/d77/best__first_8hpp.html" target="_top" xlink:title=" ">
<polygon fill="white" stroke="#666666" points="171.5,-70 106.5,-70 106.5,-53 171.5,-53 171.5,-70"/>
<text text-anchor="middle" x="139" y="-59.6" font-family="Helvetica,sans-Serif" font-size="8.00">best_first.hpp</text>
</a>
</g>
</g>
<!-- Node1&#45;&gt;Node4 -->
<g id="edge3_Node000001_Node000004" class="edge">
<title>Node1&#45;&gt;Node4</title>
<g id="a_edge3_Node000001_Node000004"><a xlink:title=" ">
<path fill="none" stroke="#63b8ff" d="M139,-95.91C139,-87.08 139,-76.85 139,-70.06"/>
<polygon fill="#63b8ff" stroke="#63b8ff" points="135.5,-95.97 139,-105.97 142.5,-95.97 135.5,-95.97"/>
</a>
</g>
</g>
<!-- Node5 -->
<g id="Node000005" class="node">
<title>Node5</title>
<g id="a_Node000005"><a xlink:href="../../d3/d3e/gbest__first_8hpp.html" target="_top" xlink:title=" ">
<polygon fill="white" stroke="#666666" points="258.5,-70 189.5,-70 189.5,-53 258.5,-53 258.5,-70"/>
<text text-anchor="middle" x="224" y="-59.6" font-family="Helvetica,sans-Serif" font-size="8.00">gbest_first.hpp</text>
</a>
</g>
</g>
<!-- Node1&#45;&gt;Node5 -->
<g id="edge6_Node000001_Node000005" class="edge">
<title>Node1&#45;&gt;Node5</title>
<g id="a_edge6_Node000001_Node000005"><a xlink:title=" ">
<path fill="none" stroke="#63b8ff" d="M160.29,-100.73C176.39,-91.07 197.95,-78.13 211.41,-70.06"/>
<polygon fill="#63b8ff" stroke="#63b8ff" points="158.32,-97.83 151.54,-105.97 161.92,-103.83 158.32,-97.83"/>
</a>
</g>
</g>
<!-- Node6 -->
<g id="Node000006" class="node">
<title>Node6</title>
<g id="a_Node000006"><a xlink:href="../../d1/def/gstar_8hpp.html" target="_top" xlink:title=" ">
<polygon fill="white" stroke="#666666" points="327,-70 277,-70 277,-53 327,-53 327,-70"/>
<text text-anchor="middle" x="302" y="-59.6" font-family="Helvetica,sans-Serif" font-size="8.00">gstar.hpp</text>
</a>
</g>
</g>
<!-- Node1&#45;&gt;Node6 -->
<g id="edge8_Node000001_Node000006" class="edge">
<title>Node1&#45;&gt;Node6</title>
<g id="a_edge8_Node000001_Node000006"><a xlink:title=" ">
<path fill="none" stroke="#63b8ff" d="M172.68,-102.96C204.03,-93.15 250,-78.77 277.85,-70.06"/>
<polygon fill="#63b8ff" stroke="#63b8ff" points="171.55,-99.65 163.05,-105.97 173.64,-106.33 171.55,-99.65"/>
</a>
</g>
</g>
<!-- Node2&#45;&gt;Node3 -->
<g id="edge2_Node000002_Node000003" class="edge">
<title>Node2&#45;&gt;Node3</title>
<g id="a_edge2_Node000002_Node000003"><a xlink:title=" ">
<path fill="none" stroke="#63b8ff" d="M51.16,-48.8C72.97,-39.04 103.39,-25.43 122.11,-17.06"/>
<polygon fill="#63b8ff" stroke="#63b8ff" points="49.52,-45.7 41.82,-52.97 52.38,-52.09 49.52,-45.7"/>
</a>
</g>
</g>
<!-- Node4&#45;&gt;Node3 -->
<g id="edge4_Node000004_Node000003" class="edge">
<title>Node4&#45;&gt;Node3</title>
<g id="a_edge4_Node000004_Node000003"><a xlink:title=" ">
<path fill="none" stroke="#63b8ff" d="M139,-42.91C139,-34.08 139,-23.85 139,-17.06"/>
<polygon fill="#63b8ff" stroke="#63b8ff" points="135.5,-42.97 139,-52.97 142.5,-42.97 135.5,-42.97"/>
</a>
</g>
</g>
<!-- Node5&#45;&gt;Node3 -->
<g id="edge7_Node000005_Node000003" class="edge">
<title>Node5&#45;&gt;Node3</title>
<g id="a_edge7_Node000005_Node000003"><a xlink:title=" ">
<path fill="none" stroke="#63b8ff" d="M202.71,-47.73C186.61,-38.07 165.05,-25.13 151.59,-17.06"/>
<polygon fill="#63b8ff" stroke="#63b8ff" points="201.08,-50.83 211.46,-52.97 204.68,-44.83 201.08,-50.83"/>
</a>
</g>
</g>
<!-- Node6&#45;&gt;Node3 -->
<g id="edge9_Node000006_Node000003" class="edge">
<title>Node6&#45;&gt;Node3</title>
<g id="a_edge9_Node000006_Node000003"><a xlink:title=" ">
<path fill="none" stroke="#63b8ff" d="M268.27,-49.94C236.71,-40.07 190.4,-25.58 162.62,-16.89"/>
<polygon fill="#63b8ff" stroke="#63b8ff" points="267.36,-53.33 277.95,-52.97 269.45,-46.65 267.36,-53.33"/>
</a>
</g>
</g>
</g>
</svg>
