<?xml version="1.0" encoding="UTF-8" standalone="no"?>
<!DOCTYPE svg PUBLIC "-//W3C//DTD SVG 1.1//EN"
 "http://www.w3.org/Graphics/SVG/1.1/DTD/svg11.dtd">
<!-- Generated by graphviz version 2.43.0 (0)
 -->
<!-- Title: heap.hpp Pages: 1 -->
<svg width="248pt" height="131pt"
 viewBox="0.00 0.00 248.00 131.00" xmlns="http://www.w3.org/2000/svg" xmlns:xlink="http://www.w3.org/1999/xlink">
<g id="graph0" class="graph" transform="scale(1 1) rotate(0) translate(4 127)">
<title>heap.hpp</title>
<!-- Node1 -->
<g id="Node000001" class="node">
<title>Node1</title>
<g id="a_Node000001"><a xlink:title=" ">
<polygon fill="#999999" stroke="#666666" points="133,-123 83,-123 83,-106 133,-106 133,-123"/>
<text text-anchor="middle" x="108" y="-112.6" font-family="Helvetica,sans-Serif" font-size="8.00">heap.hpp</text>
</a>
</g>
</g>
<!-- Node2 -->
<g id="Node000002" class="node">
<title>Node2</title>
<g id="a_Node000002"><a xlink:href="../../dc/da9/astar_8hpp.html" target="_top" xlink:title=" ">
<polygon fill="white" stroke="#666666" points="50,-70 0,-70 0,-53 50,-53 50,-70"/>
<text text-anchor="middle" x="25" y="-59.6" font-family="Helvetica,sans-Serif" font-size="8.00">astar.hpp</text>
</a>
</g>
</g>
<!-- Node1&#45;&gt;Node2 -->
<g id="edge1_Node000001_Node000002" class="edge">
<title>Node1&#45;&gt;Node2</title>
<g id="a_edge1_Node000001_Node000002"><a xlink:title=" ">
<path fill="none" stroke="#63b8ff" d="M87.21,-100.73C71.49,-91.07 50.44,-78.13 37.3,-70.06"/>
<polygon fill="#63b8ff" stroke="#63b8ff" points="85.4,-103.72 95.75,-105.97 89.07,-97.76 85.4,-103.72"/>
</a>
</g>
</g>
<!-- Node3 -->
<g id="Node000003" class="node">
<title>Node3</title>
<g id="a_Node000003"><a xlink:href="../../d9/d96/chdr_8hpp.html" target="_top" xlink:title=" ">
<polygon fill="white" stroke="#666666" points="131.5,-17 84.5,-17 84.5,0 131.5,0 131.5,-17"/>
<text text-anchor="middle" x="108" y="-6.6" font-family="Helvetica,sans-Serif" font-size="8.00">chdr.hpp</text>
</a>
</g>
</g>
<!-- Node1&#45;&gt;Node3 -->
<g id="edge5_Node000001_Node000003" class="edge">
<title>Node1&#45;&gt;Node3</title>
<g id="a_edge5_Node000001_Node000003"><a xlink:title=" ">
<path fill="none" stroke="#63b8ff" d="M102.55,-96.08C100.35,-88.21 98.09,-78.72 97,-70 94.63,-50.93 101.03,-28.77 105.04,-17.29"/>
<polygon fill="#63b8ff" stroke="#63b8ff" points="99.26,-97.32 105.47,-105.91 105.97,-95.33 99.26,-97.32"/>
</a>
</g>
</g>
<!-- Node4 -->
<g id="Node000004" class="node">
<title>Node4</title>
<g id="a_Node000004"><a xlink:href="../../d3/d77/best__first_8hpp.html" target="_top" xlink:title=" ">
<polygon fill="white" stroke="#666666" points="171.5,-70 106.5,-70 106.5,-53 171.5,-53 171.5,-70"/>
<text text-anchor="middle" x="139" y="-59.6" font-family="Helvetica,sans-Serif" font-size="8.00">best_first.hpp</text>
</a>
</g>
</g>
<!-- Node1&#45;&gt;Node4 -->
<g id="edge3_Node000001_Node000004" class="edge">
<title>Node1&#45;&gt;Node4</title>
<g id="a_edge3_Node000001_Node000004"><a xlink:title=" ">
<path fill="none" stroke="#63b8ff" d="M117.81,-97.36C123.36,-88.23 130.05,-77.22 134.41,-70.06"/>
<polygon fill="#63b8ff" stroke="#63b8ff" points="114.78,-95.61 112.57,-105.97 120.76,-99.25 114.78,-95.61"/>
</a>
</g>
</g>
<!-- Node5 -->
<g id="Node000005" class="node">
<title>Node5</title>
<g id="a_Node000005"><a xlink:href="../../d1/def/gstar_8hpp_source.html" target="_top" xlink:title=" ">
<polygon fill="white" stroke="#666666" points="240,-70 190,-70 190,-53 240,-53 240,-70"/>
<text text-anchor="middle" x="215" y="-59.6" font-family="Helvetica,sans-Serif" font-size="8.00">gstar.hpp</text>
</a>
</g>
</g>
<!-- Node1&#45;&gt;Node5 -->
<g id="edge6_Node000001_Node000005" class="edge">
<title>Node1&#45;&gt;Node5</title>
<g id="a_edge6_Node000001_Node000005"><a xlink:title=" ">
<path fill="none" stroke="#63b8ff" d="M132.83,-101.66C153.28,-91.92 181.66,-78.39 199.15,-70.06"/>
<polygon fill="#63b8ff" stroke="#63b8ff" points="131.31,-98.51 123.79,-105.97 134.32,-104.83 131.31,-98.51"/>
</a>
</g>
</g>
<!-- Node2&#45;&gt;Node3 -->
<g id="edge2_Node000002_Node000003" class="edge">
<title>Node2&#45;&gt;Node3</title>
<g id="a_edge2_Node000002_Node000003"><a xlink:title=" ">
<path fill="none" stroke="#63b8ff" d="M45.79,-47.73C61.51,-38.07 82.56,-25.13 95.7,-17.06"/>
<polygon fill="#63b8ff" stroke="#63b8ff" points="43.93,-44.76 37.25,-52.97 47.6,-50.72 43.93,-44.76"/>
</a>
</g>
</g>
<!-- Node4&#45;&gt;Node3 -->
<g id="edge4_Node000004_Node000003" class="edge">
<title>Node4&#45;&gt;Node3</title>
<g id="a_edge4_Node000004_Node000003"><a xlink:title=" ">
<path fill="none" stroke="#63b8ff" d="M129.19,-44.36C123.64,-35.23 116.95,-24.22 112.59,-17.06"/>
<polygon fill="#63b8ff" stroke="#63b8ff" points="126.24,-46.25 134.43,-52.97 132.22,-42.61 126.24,-46.25"/>
</a>
</g>
</g>
<!-- Node5&#45;&gt;Node3 -->
<g id="edge7_Node000005_Node000003" class="edge">
<title>Node5&#45;&gt;Node3</title>
<g id="a_edge7_Node000005_Node000003"><a xlink:title=" ">
<path fill="none" stroke="#63b8ff" d="M190.17,-48.66C169.72,-38.92 141.34,-25.39 123.85,-17.06"/>
<polygon fill="#63b8ff" stroke="#63b8ff" points="188.68,-51.83 199.21,-52.97 191.69,-45.51 188.68,-51.83"/>
</a>
</g>
</g>
</g>
</svg>
