<?xml version="1.0" encoding="UTF-8" standalone="no"?>
<!DOCTYPE svg PUBLIC "-//W3C//DTD SVG 1.1//EN"
 "http://www.w3.org/Graphics/SVG/1.1/DTD/svg11.dtd">
<!-- Generated by graphviz version 2.43.0 (0)
 -->
<!-- Title: bfs.hpp Pages: 1 -->
<svg width="1018pt" height="237pt"
 viewBox="0.00 0.00 1017.89 237.00" xmlns="http://www.w3.org/2000/svg" xmlns:xlink="http://www.w3.org/1999/xlink">
<g id="graph0" class="graph" transform="scale(1 1) rotate(0) translate(4 233)">
<title>bfs.hpp</title>
<!-- Node1 -->
<g id="Node000001" class="node">
<title>Node1</title>
<g id="a_Node000001"><a xlink:title=" ">
<polygon fill="#999999" stroke="#666666" points="358.39,-229 311.39,-229 311.39,-212 358.39,-212 358.39,-229"/>
<text text-anchor="middle" x="334.89" y="-218.6" font-family="Helvetica,sans-Serif" font-size="8.00">bfs.hpp</text>
</a>
</g>
</g>
<!-- Node2 -->
<g id="Node000002" class="node">
<title>Node2</title>
<g id="a_Node000002"><a xlink:title=" ">
<polygon fill="#e0e0e0" stroke="#999999" points="363.39,-17 316.39,-17 316.39,0 363.39,0 363.39,-17"/>
<text text-anchor="middle" x="339.89" y="-6.6" font-family="Helvetica,sans-Serif" font-size="8.00">cstddef</text>
</a>
</g>
</g>
<!-- Node1&#45;&gt;Node2 -->
<g id="edge1_Node000001_Node000002" class="edge">
<title>Node1&#45;&gt;Node2</title>
<g id="a_edge1_Node000001_Node000002"><a xlink:title=" ">
<path fill="none" stroke="#63b8ff" d="M311.26,-216.51C223.65,-204.55 -72.94,-155.74 16.89,-53 54.17,-10.37 230.61,-7.81 305.81,-8.72"/>
<polygon fill="#63b8ff" stroke="#63b8ff" points="306.09,-12.23 316.14,-8.88 306.2,-5.23 306.09,-12.23"/>
</a>
</g>
</g>
<!-- Node3 -->
<g id="Node000003" class="node">
<title>Node3</title>
<g id="a_Node000003"><a xlink:title=" ">
<polygon fill="#e0e0e0" stroke="#999999" points="82.89,-123 40.89,-123 40.89,-106 82.89,-106 82.89,-123"/>
<text text-anchor="middle" x="61.89" y="-112.6" font-family="Helvetica,sans-Serif" font-size="8.00">vector</text>
</a>
</g>
</g>
<!-- Node1&#45;&gt;Node3 -->
<g id="edge2_Node000001_Node000003" class="edge">
<title>Node1&#45;&gt;Node3</title>
<g id="a_edge2_Node000001_Node000003"><a xlink:title=" ">
<path fill="none" stroke="#63b8ff" d="M311.23,-216.01C276.89,-210.41 211.69,-197.8 159.89,-176 130.28,-163.54 99.23,-142.88 80.21,-129.23"/>
<polygon fill="#63b8ff" stroke="#63b8ff" points="82.04,-126.23 71.9,-123.16 77.91,-131.88 82.04,-126.23"/>
</a>
</g>
</g>
<!-- Node4 -->
<g id="Node000004" class="node">
<title>Node4</title>
<g id="a_Node000004"><a xlink:href="../../d8/d62/existence__set_8hpp.html" target="_top" xlink:title=" ">
<polygon fill="white" stroke="#666666" points="347.89,-176 177.89,-176 177.89,-159 347.89,-159 347.89,-176"/>
<text text-anchor="middle" x="262.89" y="-165.6" font-family="Helvetica,sans-Serif" font-size="8.00">../types/containers/existence_set.hpp</text>
</a>
</g>
</g>
<!-- Node1&#45;&gt;Node4 -->
<g id="edge3_Node000001_Node000004" class="edge">
<title>Node1&#45;&gt;Node4</title>
<g id="a_edge3_Node000001_Node000004"><a xlink:title=" ">
<path fill="none" stroke="#63b8ff" d="M324.27,-211.97C313.1,-204.07 295.31,-191.46 281.75,-181.86"/>
<polygon fill="#63b8ff" stroke="#63b8ff" points="283.75,-178.98 273.56,-176.06 279.7,-184.69 283.75,-178.98"/>
</a>
</g>
</g>
<!-- Node9 -->
<g id="Node000009" class="node">
<title>Node9</title>
<g id="a_Node000009"><a xlink:href="../../df/d93/utils_8hpp.html" target="_top" xlink:title=" ">
<polygon fill="white" stroke="#666666" points="226.39,-123 139.39,-123 139.39,-106 226.39,-106 226.39,-123"/>
<text text-anchor="middle" x="182.89" y="-112.6" font-family="Helvetica,sans-Serif" font-size="8.00">../../utils/utils.hpp</text>
</a>
</g>
</g>
<!-- Node1&#45;&gt;Node9 -->
<g id="edge26_Node000001_Node000009" class="edge">
<title>Node1&#45;&gt;Node9</title>
<g id="a_edge26_Node000001_Node000009"><a xlink:title=" ">
<path fill="none" stroke="#63b8ff" d="M311.26,-216.83C269.69,-211.58 186.23,-198.47 168.89,-176 159.13,-163.35 165.37,-145.07 172.35,-131.91"/>
<polygon fill="#63b8ff" stroke="#63b8ff" points="175.52,-133.43 177.58,-123.04 169.49,-129.88 175.52,-133.43"/>
</a>
</g>
</g>
<!-- Node13 -->
<g id="Node000013" class="node">
<title>Node13</title>
<g id="a_Node000013"><a xlink:href="../../d7/d65/intrinsics_8hpp.html" target="_top" xlink:title=" ">
<polygon fill="#fff0f0" stroke="red" points="602.39,-70 503.39,-70 503.39,-53 602.39,-53 602.39,-70"/>
<text text-anchor="middle" x="552.89" y="-59.6" font-family="Helvetica,sans-Serif" font-size="8.00">../utils/intrinsics.hpp</text>
</a>
</g>
</g>
<!-- Node1&#45;&gt;Node13 -->
<g id="edge38_Node000001_Node000013" class="edge">
<title>Node1&#45;&gt;Node13</title>
<g id="a_edge38_Node000001_Node000013"><a xlink:title=" ">
<path fill="none" stroke="#63b8ff" d="M358.72,-215.71C424.88,-204.65 608.23,-170.19 642.89,-123 659.74,-100.07 625.32,-83.12 594.3,-73.09"/>
<polygon fill="#63b8ff" stroke="#63b8ff" points="595.01,-69.65 584.42,-70.08 592.96,-76.34 595.01,-69.65"/>
</a>
</g>
</g>
<!-- Node16 -->
<g id="Node000016" class="node">
<title>Node16</title>
<g id="a_Node000016"><a xlink:href="../../d7/ded/queue_8hpp.html" target="_top" xlink:title=" ">
<polygon fill="white" stroke="#666666" points="859.89,-176 719.89,-176 719.89,-159 859.89,-159 859.89,-176"/>
<text text-anchor="middle" x="789.89" y="-165.6" font-family="Helvetica,sans-Serif" font-size="8.00">../types/containers/queue.hpp</text>
</a>
</g>
</g>
<!-- Node1&#45;&gt;Node16 -->
<g id="edge21_Node000001_Node000016" class="edge">
<title>Node1&#45;&gt;Node16</title>
<g id="a_edge21_Node000001_Node000016"><a xlink:title=" ">
<path fill="none" stroke="#63b8ff" d="M358.4,-216.87C423.27,-209.59 607,-189 712.62,-177.16"/>
<polygon fill="#63b8ff" stroke="#63b8ff" points="713.04,-180.64 722.59,-176.04 712.26,-173.68 713.04,-180.64"/>
</a>
</g>
</g>
<!-- Node18 -->
<g id="Node000018" class="node">
<title>Node18</title>
<g id="a_Node000018"><a xlink:href="../../d2/d1c/solver_8hpp.html" target="_top" xlink:title=" ">
<polygon fill="white" stroke="#666666" points="447.89,-176 365.89,-176 365.89,-159 447.89,-159 447.89,-176"/>
<text text-anchor="middle" x="406.89" y="-165.6" font-family="Helvetica,sans-Serif" font-size="8.00">base/solver.hpp</text>
</a>
</g>
</g>
<!-- Node1&#45;&gt;Node18 -->
<g id="edge27_Node000001_Node000018" class="edge">
<title>Node1&#45;&gt;Node18</title>
<g id="a_edge27_Node000001_Node000018"><a xlink:title=" ">
<path fill="none" stroke="#63b8ff" d="M345.52,-211.97C356.69,-204.07 374.48,-191.46 388.04,-181.86"/>
<polygon fill="#63b8ff" stroke="#63b8ff" points="390.09,-184.69 396.23,-176.06 386.04,-178.98 390.09,-184.69"/>
</a>
</g>
</g>
<!-- Node20 -->
<g id="Node000020" class="node">
<title>Node20</title>
<g id="a_Node000020"><a xlink:href="../../d0/def/unmanaged__node_8hpp.html" target="_top" xlink:title=" ">
<polygon fill="white" stroke="#666666" points="1009.89,-176 877.89,-176 877.89,-159 1009.89,-159 1009.89,-176"/>
<text text-anchor="middle" x="943.89" y="-165.6" font-family="Helvetica,sans-Serif" font-size="8.00">base/unmanaged_node.hpp</text>
</a>
</g>
</g>
<!-- Node1&#45;&gt;Node20 -->
<g id="edge35_Node000001_Node000020" class="edge">
<title>Node1&#45;&gt;Node20</title>
<g id="a_edge35_Node000001_Node000020"><a xlink:title=" ">
<path fill="none" stroke="#63b8ff" d="M358.59,-217.73C432.29,-212.18 664.18,-194.46 867.67,-176.09"/>
<polygon fill="#63b8ff" stroke="#63b8ff" points="868,-179.58 877.65,-175.19 867.37,-172.61 868,-179.58"/>
</a>
</g>
</g>
<!-- Node4&#45;&gt;Node2 -->
<g id="edge4_Node000004_Node000002" class="edge">
<title>Node4&#45;&gt;Node2</title>
<g id="a_edge4_Node000004_Node000002"><a xlink:title=" ">
<path fill="none" stroke="#63b8ff" d="M177.88,-161.63C119.93,-156.32 50.46,-145.38 31.89,-123 12.04,-99.05 11.49,-76.49 31.89,-53 67.1,-12.48 233.36,-8.66 305.9,-8.98"/>
<polygon fill="#63b8ff" stroke="#63b8ff" points="306.28,-12.48 316.3,-9.05 306.33,-5.48 306.28,-12.48"/>
</a>
</g>
</g>
<!-- Node4&#45;&gt;Node3 -->
<g id="edge9_Node000004_Node000003" class="edge">
<title>Node4&#45;&gt;Node3</title>
<g id="a_edge9_Node000004_Node000003"><a xlink:title=" ">
<path fill="none" stroke="#63b8ff" d="M233.24,-158.97C195.71,-149.45 131.35,-133.12 93.1,-123.42"/>
<polygon fill="#63b8ff" stroke="#63b8ff" points="93.6,-119.93 83.05,-120.87 91.88,-126.72 93.6,-119.93"/>
</a>
</g>
</g>
<!-- Node5 -->
<g id="Node000005" class="node">
<title>Node5</title>
<g id="a_Node000005"><a xlink:title=" ">
<polygon fill="#e0e0e0" stroke="#999999" points="98.89,-70 40.89,-70 40.89,-53 98.89,-53 98.89,-70"/>
<text text-anchor="middle" x="69.89" y="-59.6" font-family="Helvetica,sans-Serif" font-size="8.00">functional</text>
</a>
</g>
</g>
<!-- Node4&#45;&gt;Node5 -->
<g id="edge5_Node000004_Node000005" class="edge">
<title>Node4&#45;&gt;Node5</title>
<g id="a_edge5_Node000004_Node000005"><a xlink:title=" ">
<path fill="none" stroke="#63b8ff" d="M224.14,-158.94C196.43,-152.36 159.05,-140.99 129.89,-123 110.69,-111.15 93.06,-91.93 81.96,-78.34"/>
<polygon fill="#63b8ff" stroke="#63b8ff" points="84.59,-76.03 75.65,-70.36 79.1,-80.37 84.59,-76.03"/>
</a>
</g>
</g>
<!-- Node6 -->
<g id="Node000006" class="node">
<title>Node6</title>
<g id="a_Node000006"><a xlink:title=" ">
<polygon fill="#e0e0e0" stroke="#999999" points="366.89,-70 328.89,-70 328.89,-53 366.89,-53 366.89,-70"/>
<text text-anchor="middle" x="347.89" y="-59.6" font-family="Helvetica,sans-Serif" font-size="8.00">limits</text>
</a>
</g>
</g>
<!-- Node4&#45;&gt;Node6 -->
<g id="edge6_Node000004_Node000006" class="edge">
<title>Node4&#45;&gt;Node6</title>
<g id="a_edge6_Node000004_Node000006"><a xlink:title=" ">
<path fill="none" stroke="#63b8ff" d="M269.28,-158.68C283.26,-141.58 316.76,-100.59 335.2,-78.03"/>
<polygon fill="#63b8ff" stroke="#63b8ff" points="338.04,-80.08 341.66,-70.12 332.62,-75.65 338.04,-80.08"/>
</a>
</g>
</g>
<!-- Node7 -->
<g id="Node000007" class="node">
<title>Node7</title>
<g id="a_Node000007"><a xlink:title=" ">
<polygon fill="#e0e0e0" stroke="#999999" points="524.39,-123 435.39,-123 435.39,-106 524.39,-106 524.39,-123"/>
<text text-anchor="middle" x="479.89" y="-112.6" font-family="Helvetica,sans-Serif" font-size="8.00">memory_resource</text>
</a>
</g>
</g>
<!-- Node4&#45;&gt;Node7 -->
<g id="edge7_Node000004_Node000007" class="edge">
<title>Node4&#45;&gt;Node7</title>
<g id="a_edge7_Node000004_Node000007"><a xlink:title=" ">
<path fill="none" stroke="#63b8ff" d="M294.91,-158.97C332.82,-150.07 396.05,-135.2 437.87,-125.38"/>
<polygon fill="#63b8ff" stroke="#63b8ff" points="438.81,-128.75 447.74,-123.06 437.21,-121.94 438.81,-128.75"/>
</a>
</g>
</g>
<!-- Node8 -->
<g id="Node000008" class="node">
<title>Node8</title>
<g id="a_Node000008"><a xlink:title=" ">
<polygon fill="#e0e0e0" stroke="#999999" points="444.39,-70 385.39,-70 385.39,-53 444.39,-53 444.39,-70"/>
<text text-anchor="middle" x="414.89" y="-59.6" font-family="Helvetica,sans-Serif" font-size="8.00">type_traits</text>
</a>
</g>
</g>
<!-- Node4&#45;&gt;Node8 -->
<g id="edge8_Node000004_Node000008" class="edge">
<title>Node4&#45;&gt;Node8</title>
<g id="a_edge8_Node000004_Node000008"><a xlink:title=" ">
<path fill="none" stroke="#63b8ff" d="M274.32,-158.68C300.08,-141.06 362.97,-98.03 395.17,-75.99"/>
<polygon fill="#63b8ff" stroke="#63b8ff" points="397.47,-78.66 403.75,-70.12 393.52,-72.88 397.47,-78.66"/>
</a>
</g>
</g>
<!-- Node4&#45;&gt;Node9 -->
<g id="edge10_Node000004_Node000009" class="edge">
<title>Node4&#45;&gt;Node9</title>
<g id="a_edge10_Node000004_Node000009"><a xlink:title=" ">
<path fill="none" stroke="#63b8ff" d="M251.09,-158.97C238.57,-150.99 218.53,-138.22 203.42,-128.58"/>
<polygon fill="#63b8ff" stroke="#63b8ff" points="205.06,-125.48 194.75,-123.06 201.3,-131.38 205.06,-125.48"/>
</a>
</g>
</g>
<!-- Node4&#45;&gt;Node13 -->
<g id="edge20_Node000004_Node000013" class="edge">
<title>Node4&#45;&gt;Node13</title>
<g id="a_edge20_Node000004_Node000013"><a xlink:title=" ">
<path fill="none" stroke="#63b8ff" d="M282.66,-158.98C313.26,-147.38 374.01,-124.51 425.89,-106 458.06,-94.52 495.02,-81.93 520.74,-73.26"/>
<polygon fill="#63b8ff" stroke="#63b8ff" points="521.99,-76.53 530.35,-70.03 519.76,-69.9 521.99,-76.53"/>
</a>
</g>
</g>
<!-- Node9&#45;&gt;Node2 -->
<g id="edge13_Node000009_Node000002" class="edge">
<title>Node9&#45;&gt;Node2</title>
<g id="a_edge13_Node000009_Node000002"><a xlink:title=" ">
<path fill="none" stroke="#63b8ff" d="M172.15,-105.84C156.77,-93.95 131.81,-70.59 145.89,-53 165.58,-28.41 255.81,-16.77 305.98,-12.12"/>
<polygon fill="#63b8ff" stroke="#63b8ff" points="306.39,-15.59 316.04,-11.23 305.77,-8.62 306.39,-15.59"/>
</a>
</g>
</g>
<!-- Node9&#45;&gt;Node5 -->
<g id="edge14_Node000009_Node000005" class="edge">
<title>Node9&#45;&gt;Node5</title>
<g id="a_edge14_Node000009_Node000005"><a xlink:title=" ">
<path fill="none" stroke="#63b8ff" d="M166.22,-105.97C147.69,-97.61 117.54,-84 95.91,-74.24"/>
<polygon fill="#63b8ff" stroke="#63b8ff" points="97.19,-70.98 86.64,-70.06 94.31,-77.36 97.19,-70.98"/>
</a>
</g>
</g>
<!-- Node9&#45;&gt;Node6 -->
<g id="edge15_Node000009_Node000006" class="edge">
<title>Node9&#45;&gt;Node6</title>
<g id="a_edge15_Node000009_Node000006"><a xlink:title=" ">
<path fill="none" stroke="#63b8ff" d="M207.24,-105.97C237.01,-96.77 287.33,-81.22 319.02,-71.43"/>
<polygon fill="#63b8ff" stroke="#63b8ff" points="320.08,-74.76 328.6,-68.46 318.02,-68.07 320.08,-74.76"/>
</a>
</g>
</g>
<!-- Node9&#45;&gt;Node8 -->
<g id="edge17_Node000009_Node000008" class="edge">
<title>Node9&#45;&gt;Node8</title>
<g id="a_edge17_Node000009_Node000008"><a xlink:title=" ">
<path fill="none" stroke="#63b8ff" d="M217.13,-105.97C259.34,-96.7 330.95,-80.95 375.43,-71.17"/>
<polygon fill="#63b8ff" stroke="#63b8ff" points="376.29,-74.57 385.31,-69 374.79,-67.73 376.29,-74.57"/>
</a>
</g>
</g>
<!-- Node10 -->
<g id="Node000010" class="node">
<title>Node10</title>
<g id="a_Node000010"><a xlink:title=" ">
<polygon fill="#e0e0e0" stroke="#999999" points="192.89,-70 154.89,-70 154.89,-53 192.89,-53 192.89,-70"/>
<text text-anchor="middle" x="173.89" y="-59.6" font-family="Helvetica,sans-Serif" font-size="8.00">array</text>
</a>
</g>
</g>
<!-- Node9&#45;&gt;Node10 -->
<g id="edge11_Node000009_Node000010" class="edge">
<title>Node9&#45;&gt;Node10</title>
<g id="a_edge11_Node000009_Node000010"><a xlink:title=" ">
<path fill="none" stroke="#63b8ff" d="M181.57,-105.97C180.37,-99.19 178.57,-88.97 177.01,-80.13"/>
<polygon fill="#63b8ff" stroke="#63b8ff" points="180.41,-79.3 175.23,-70.06 173.52,-80.51 180.41,-79.3"/>
</a>
</g>
</g>
<!-- Node11 -->
<g id="Node000011" class="node">
<title>Node11</title>
<g id="a_Node000011"><a xlink:title=" ">
<polygon fill="#e0e0e0" stroke="#999999" points="252.89,-70 210.89,-70 210.89,-53 252.89,-53 252.89,-70"/>
<text text-anchor="middle" x="231.89" y="-59.6" font-family="Helvetica,sans-Serif" font-size="8.00">cmath</text>
</a>
</g>
</g>
<!-- Node9&#45;&gt;Node11 -->
<g id="edge12_Node000009_Node000011" class="edge">
<title>Node9&#45;&gt;Node11</title>
<g id="a_edge12_Node000009_Node000011"><a xlink:title=" ">
<path fill="none" stroke="#63b8ff" d="M190.13,-105.97C197.29,-98.52 208.47,-86.89 217.45,-77.53"/>
<polygon fill="#63b8ff" stroke="#63b8ff" points="220.23,-79.69 224.64,-70.06 215.18,-74.84 220.23,-79.69"/>
</a>
</g>
</g>
<!-- Node12 -->
<g id="Node000012" class="node">
<title>Node12</title>
<g id="a_Node000012"><a xlink:title=" ">
<polygon fill="#e0e0e0" stroke="#999999" points="310.89,-70 270.89,-70 270.89,-53 310.89,-53 310.89,-70"/>
<text text-anchor="middle" x="290.89" y="-59.6" font-family="Helvetica,sans-Serif" font-size="8.00">string</text>
</a>
</g>
</g>
<!-- Node9&#45;&gt;Node12 -->
<g id="edge16_Node000009_Node000012" class="edge">
<title>Node9&#45;&gt;Node12</title>
<g id="a_edge16_Node000009_Node000012"><a xlink:title=" ">
<path fill="none" stroke="#63b8ff" d="M198.83,-105.97C216.46,-97.65 245.1,-84.13 265.75,-74.37"/>
<polygon fill="#63b8ff" stroke="#63b8ff" points="267.35,-77.49 274.89,-70.06 264.36,-71.16 267.35,-77.49"/>
</a>
</g>
</g>
<!-- Node9&#45;&gt;Node13 -->
<g id="edge18_Node000009_Node000013" class="edge">
<title>Node9&#45;&gt;Node13</title>
<g id="a_edge18_Node000009_Node000013"><a xlink:title=" ">
<path fill="none" stroke="#63b8ff" d="M226.43,-107.5C292.56,-98.38 418.53,-81.02 493.18,-70.73"/>
<polygon fill="#63b8ff" stroke="#63b8ff" points="493.93,-74.16 503.36,-69.33 492.97,-67.23 493.93,-74.16"/>
</a>
</g>
</g>
<!-- Node13&#45;&gt;Node2 -->
<g id="edge19_Node000013_Node000002" class="edge">
<title>Node13&#45;&gt;Node2</title>
<g id="a_edge19_Node000013_Node000002"><a xlink:title=" ">
<path fill="none" stroke="#63b8ff" d="M521.47,-52.97C481.86,-43.49 414.09,-27.26 373.49,-17.54"/>
<polygon fill="#63b8ff" stroke="#63b8ff" points="374.08,-14.09 363.54,-15.16 372.45,-20.89 374.08,-14.09"/>
</a>
</g>
</g>
<!-- Node16&#45;&gt;Node2 -->
<g id="edge22_Node000016_Node000002" class="edge">
<title>Node16&#45;&gt;Node2</title>
<g id="a_edge22_Node000016_Node000002"><a xlink:title=" ">
<path fill="none" stroke="#63b8ff" d="M794.35,-158.99C801,-146.69 811.56,-122 799.89,-106 749.33,-36.65 471.25,-16.11 373.72,-10.99"/>
<polygon fill="#63b8ff" stroke="#63b8ff" points="373.69,-7.49 363.53,-10.48 373.34,-14.48 373.69,-7.49"/>
</a>
</g>
</g>
<!-- Node16&#45;&gt;Node7 -->
<g id="edge24_Node000016_Node000007" class="edge">
<title>Node16&#45;&gt;Node7</title>
<g id="a_edge24_Node000016_Node000007"><a xlink:title=" ">
<path fill="none" stroke="#63b8ff" d="M744.15,-158.97C688.35,-149.79 594.1,-134.29 534.54,-124.49"/>
<polygon fill="#63b8ff" stroke="#63b8ff" points="535,-121.02 524.57,-122.85 533.86,-127.93 535,-121.02"/>
</a>
</g>
</g>
<!-- Node16&#45;&gt;Node13 -->
<g id="edge25_Node000016_Node000013" class="edge">
<title>Node16&#45;&gt;Node13</title>
<g id="a_edge25_Node000016_Node000013"><a xlink:title=" ">
<path fill="none" stroke="#63b8ff" d="M791.46,-158.62C793.52,-145.77 795.43,-120.32 781.89,-106 759.23,-82.02 672.52,-70.94 612.56,-66.06"/>
<polygon fill="#63b8ff" stroke="#63b8ff" points="612.68,-62.55 602.44,-65.27 612.14,-69.53 612.68,-62.55"/>
</a>
</g>
</g>
<!-- Node17 -->
<g id="Node000017" class="node">
<title>Node17</title>
<g id="a_Node000017"><a xlink:title=" ">
<polygon fill="#e0e0e0" stroke="#999999" points="772.39,-123 729.39,-123 729.39,-106 772.39,-106 772.39,-123"/>
<text text-anchor="middle" x="750.89" y="-112.6" font-family="Helvetica,sans-Serif" font-size="8.00">deque</text>
</a>
</g>
</g>
<!-- Node16&#45;&gt;Node17 -->
<g id="edge23_Node000016_Node000017" class="edge">
<title>Node16&#45;&gt;Node17</title>
<g id="a_edge23_Node000016_Node000017"><a xlink:title=" ">
<path fill="none" stroke="#63b8ff" d="M784.14,-158.97C778.55,-151.67 769.9,-140.35 762.82,-131.1"/>
<polygon fill="#63b8ff" stroke="#63b8ff" points="765.53,-128.87 756.67,-123.06 759.97,-133.13 765.53,-128.87"/>
</a>
</g>
</g>
<!-- Node18&#45;&gt;Node2 -->
<g id="edge28_Node000018_Node000002" class="edge">
<title>Node18&#45;&gt;Node2</title>
<g id="a_edge28_Node000018_Node000002"><a xlink:title=" ">
<path fill="none" stroke="#63b8ff" d="M448.07,-165.03C508.99,-161.88 618.57,-152.22 642.89,-123 647.73,-117.19 644.92,-113.28 642.89,-106 635.51,-79.49 633.71,-68.39 610.89,-53 572.71,-27.25 437.66,-15.58 373.81,-11.41"/>
<polygon fill="#63b8ff" stroke="#63b8ff" points="373.68,-7.9 363.48,-10.77 373.24,-14.89 373.68,-7.9"/>
</a>
</g>
</g>
<!-- Node18&#45;&gt;Node3 -->
<g id="edge31_Node000018_Node000003" class="edge">
<title>Node18&#45;&gt;Node3</title>
<g id="a_edge31_Node000018_Node000003"><a xlink:title=" ">
<path fill="none" stroke="#63b8ff" d="M365.7,-160.31C362.72,-159.87 359.76,-159.43 356.89,-159 260.64,-144.68 146.7,-127.94 92.93,-120.05"/>
<polygon fill="#63b8ff" stroke="#63b8ff" points="93.4,-116.58 83,-118.59 92.39,-123.51 93.4,-116.58"/>
</a>
</g>
</g>
<!-- Node18&#45;&gt;Node6 -->
<g id="edge29_Node000018_Node000006" class="edge">
<title>Node18&#45;&gt;Node6</title>
<g id="a_edge29_Node000018_Node000006"><a xlink:title=" ">
<path fill="none" stroke="#63b8ff" d="M402.46,-158.68C392.89,-141.81 370.12,-101.68 357.22,-78.94"/>
<polygon fill="#63b8ff" stroke="#63b8ff" points="360.2,-77.1 352.22,-70.12 354.11,-80.55 360.2,-77.1"/>
</a>
</g>
</g>
<!-- Node18&#45;&gt;Node8 -->
<g id="edge30_Node000018_Node000008" class="edge">
<title>Node18&#45;&gt;Node8</title>
<g id="a_edge30_Node000018_Node000008"><a xlink:title=" ">
<path fill="none" stroke="#63b8ff" d="M407.5,-158.68C408.77,-142.11 411.77,-103.11 413.53,-80.18"/>
<polygon fill="#63b8ff" stroke="#63b8ff" points="417.03,-80.36 414.31,-70.12 410.05,-79.83 417.03,-80.36"/>
</a>
</g>
</g>
<!-- Node18&#45;&gt;Node9 -->
<g id="edge32_Node000018_Node000009" class="edge">
<title>Node18&#45;&gt;Node9</title>
<g id="a_edge32_Node000018_Node000009"><a xlink:title=" ">
<path fill="none" stroke="#63b8ff" d="M373.84,-158.97C334.64,-150.05 269.16,-135.14 226.01,-125.32"/>
<polygon fill="#63b8ff" stroke="#63b8ff" points="226.61,-121.86 216.08,-123.06 225.06,-128.69 226.61,-121.86"/>
</a>
</g>
</g>
<!-- Node18&#45;&gt;Node13 -->
<g id="edge34_Node000018_Node000013" class="edge">
<title>Node18&#45;&gt;Node13</title>
<g id="a_edge34_Node000018_Node000013"><a xlink:title=" ">
<path fill="none" stroke="#63b8ff" d="M447.93,-161.84C475.35,-156.67 510.38,-145.81 532.89,-123 544.07,-111.67 549,-93.97 551.18,-80.64"/>
<polygon fill="#63b8ff" stroke="#63b8ff" points="554.7,-80.67 552.47,-70.31 547.76,-79.8 554.7,-80.67"/>
</a>
</g>
</g>
<!-- Node19 -->
<g id="Node000019" class="node">
<title>Node19</title>
<g id="a_Node000019"><a xlink:title=" ">
<polygon fill="#e0e0e0" stroke="#999999" points="634.39,-123 581.39,-123 581.39,-106 634.39,-106 634.39,-123"/>
<text text-anchor="middle" x="607.89" y="-112.6" font-family="Helvetica,sans-Serif" font-size="8.00">iostream</text>
</a>
</g>
</g>
<!-- Node18&#45;&gt;Node19 -->
<g id="edge33_Node000018_Node000019" class="edge">
<title>Node18&#45;&gt;Node19</title>
<g id="a_edge33_Node000018_Node000019"><a xlink:title=" ">
<path fill="none" stroke="#63b8ff" d="M436.55,-158.97C472.44,-149.87 532.85,-134.54 571.51,-124.73"/>
<polygon fill="#63b8ff" stroke="#63b8ff" points="572.49,-128.09 581.33,-122.24 570.77,-121.31 572.49,-128.09"/>
</a>
</g>
</g>
<!-- Node20&#45;&gt;Node13 -->
<g id="edge37_Node000020_Node000013" class="edge">
<title>Node20&#45;&gt;Node13</title>
<g id="a_edge37_Node000020_Node000013"><a xlink:title=" ">
<path fill="none" stroke="#63b8ff" d="M928.75,-158.8C902.96,-145.99 848.54,-120.31 799.89,-106 737.37,-87.61 663.51,-75.85 612.96,-69.26"/>
<polygon fill="#63b8ff" stroke="#63b8ff" points="613.21,-65.77 602.85,-67.97 612.33,-72.71 613.21,-65.77"/>
</a>
</g>
</g>
<!-- Node21 -->
<g id="Node000021" class="node">
<title>Node21</title>
<g id="a_Node000021"><a xlink:href="../../dc/d3c/bnode_8hpp.html" target="_top" xlink:title=" ">
<polygon fill="white" stroke="#666666" points="974.39,-123 913.39,-123 913.39,-106 974.39,-106 974.39,-123"/>
<text text-anchor="middle" x="943.89" y="-112.6" font-family="Helvetica,sans-Serif" font-size="8.00">bnode.hpp</text>
</a>
</g>
</g>
<!-- Node20&#45;&gt;Node21 -->
<g id="edge36_Node000020_Node000021" class="edge">
<title>Node20&#45;&gt;Node21</title>
<g id="a_edge36_Node000020_Node000021"><a xlink:title=" ">
<path fill="none" stroke="#63b8ff" d="M943.89,-158.97C943.89,-152.19 943.89,-141.97 943.89,-133.13"/>
<polygon fill="#63b8ff" stroke="#63b8ff" points="947.4,-133.06 943.89,-123.06 940.4,-133.06 947.4,-133.06"/>
</a>
</g>
</g>
</g>
</svg>
