<?xml version="1.0" encoding="UTF-8" standalone="no"?>
<!DOCTYPE svg PUBLIC "-//W3C//DTD SVG 1.1//EN"
 "http://www.w3.org/Graphics/SVG/1.1/DTD/svg11.dtd">
<!-- Generated by graphviz version 2.43.0 (0)
 -->
<!-- Title: bfs.hpp Pages: 1 -->
<svg width="776pt" height="290pt"
 viewBox="0.00 0.00 775.50 290.00" xmlns="http://www.w3.org/2000/svg" xmlns:xlink="http://www.w3.org/1999/xlink">
<g id="graph0" class="graph" transform="scale(1 1) rotate(0) translate(4 286)">
<title>bfs.hpp</title>
<!-- Node1 -->
<g id="Node000001" class="node">
<title>Node1</title>
<g id="a_Node000001"><a xlink:title=" ">
<polygon fill="#999999" stroke="#666666" points="367.5,-282 324.5,-282 324.5,-265 367.5,-265 367.5,-282"/>
<text text-anchor="middle" x="346" y="-271.6" font-family="Helvetica,sans-Serif" font-size="8.00">bfs.hpp</text>
</a>
</g>
</g>
<!-- Node2 -->
<g id="Node000002" class="node">
<title>Node2</title>
<g id="a_Node000002"><a xlink:title=" ">
<polygon fill="#e0e0e0" stroke="#999999" points="420,-17 378,-17 378,0 420,0 420,-17"/>
<text text-anchor="middle" x="399" y="-6.6" font-family="Helvetica,sans-Serif" font-size="8.00">cstddef</text>
</a>
</g>
</g>
<!-- Node1&#45;&gt;Node2 -->
<g id="edge1_Node000001_Node000002" class="edge">
<title>Node1&#45;&gt;Node2</title>
<g id="a_edge1_Node000001_Node000002"><a xlink:title=" ">
<path fill="none" stroke="#63b8ff" d="M324.36,-270.73C248.61,-263.96 0,-236.56 0,-168.5 0,-168.5 0,-168.5 0,-113.5 0,-80.51 14.66,-69.88 43,-53 97.43,-20.58 290.27,-12.21 367.08,-10.15"/>
<polygon fill="#63b8ff" stroke="#63b8ff" points="367.63,-13.63 377.54,-9.89 367.46,-6.64 367.63,-13.63"/>
</a>
</g>
</g>
<!-- Node3 -->
<g id="Node000003" class="node">
<title>Node3</title>
<g id="a_Node000003"><a xlink:title=" ">
<polygon fill="#e0e0e0" stroke="#999999" points="672,-123 634,-123 634,-106 672,-106 672,-123"/>
<text text-anchor="middle" x="653" y="-112.6" font-family="Helvetica,sans-Serif" font-size="8.00">vector</text>
</a>
</g>
</g>
<!-- Node1&#45;&gt;Node3 -->
<g id="edge2_Node000001_Node000003" class="edge">
<title>Node1&#45;&gt;Node3</title>
<g id="a_edge2_Node000001_Node000003"><a xlink:title=" ">
<path fill="none" stroke="#63b8ff" d="M367.66,-272.4C407.34,-271.3 493.2,-264.61 554,-229 559.52,-225.77 614.45,-161.16 640.02,-130.89"/>
<polygon fill="#63b8ff" stroke="#63b8ff" points="642.89,-132.93 646.66,-123.03 637.54,-128.41 642.89,-132.93"/>
</a>
</g>
</g>
<!-- Node4 -->
<g id="Node000004" class="node">
<title>Node4</title>
<g id="a_Node000004"><a xlink:href="../../d8/d62/existence__set_8hpp.html" target="_top" xlink:title=" ">
<polygon fill="white" stroke="#666666" points="419.5,-176 272.5,-176 272.5,-159 419.5,-159 419.5,-176"/>
<text text-anchor="middle" x="346" y="-165.6" font-family="Helvetica,sans-Serif" font-size="8.00">../types/containers/existence_set.hpp</text>
</a>
</g>
</g>
<!-- Node1&#45;&gt;Node4 -->
<g id="edge3_Node000001_Node000004" class="edge">
<title>Node1&#45;&gt;Node4</title>
<g id="a_edge3_Node000001_Node000004"><a xlink:title=" ">
<path fill="none" stroke="#63b8ff" d="M346,-264.68C346,-248.11 346,-209.11 346,-186.18"/>
<polygon fill="#63b8ff" stroke="#63b8ff" points="349.5,-186.12 346,-176.12 342.5,-186.13 349.5,-186.12"/>
</a>
</g>
</g>
<!-- Node8 -->
<g id="Node000008" class="node">
<title>Node8</title>
<g id="a_Node000008"><a xlink:href="../../df/d93/utils_8hpp.html" target="_top" xlink:title=" ">
<polygon fill="white" stroke="#666666" points="251.5,-123 176.5,-123 176.5,-106 251.5,-106 251.5,-123"/>
<text text-anchor="middle" x="214" y="-112.6" font-family="Helvetica,sans-Serif" font-size="8.00">../../utils/utils.hpp</text>
</a>
</g>
</g>
<!-- Node1&#45;&gt;Node8 -->
<g id="edge23_Node000001_Node000008" class="edge">
<title>Node1&#45;&gt;Node8</title>
<g id="a_edge23_Node000001_Node000008"><a xlink:title=" ">
<path fill="none" stroke="#63b8ff" d="M324.34,-273.42C291.08,-273.51 228.23,-268.13 199,-229 177.66,-200.42 193.6,-156.14 205.05,-132.21"/>
<polygon fill="#63b8ff" stroke="#63b8ff" points="208.3,-133.55 209.7,-123.04 202.06,-130.38 208.3,-133.55"/>
</a>
</g>
</g>
<!-- Node15 -->
<g id="Node000015" class="node">
<title>Node15</title>
<g id="a_Node000015"><a xlink:href="../../d7/ded/queue_8hpp.html" target="_top" xlink:title=" ">
<polygon fill="white" stroke="#666666" points="748,-176 626,-176 626,-159 748,-159 748,-176"/>
<text text-anchor="middle" x="687" y="-165.6" font-family="Helvetica,sans-Serif" font-size="8.00">../types/containers/queue.hpp</text>
</a>
</g>
</g>
<!-- Node1&#45;&gt;Node15 -->
<g id="edge18_Node000001_Node000015" class="edge">
<title>Node1&#45;&gt;Node15</title>
<g id="a_edge18_Node000001_Node000015"><a xlink:title=" ">
<path fill="none" stroke="#63b8ff" d="M367.75,-272.64C414.55,-272.16 527.42,-266.82 612,-229 636,-218.27 658.8,-197.91 672.83,-183.79"/>
<polygon fill="#63b8ff" stroke="#63b8ff" points="675.6,-185.95 680.01,-176.32 670.56,-181.1 675.6,-185.95"/>
</a>
</g>
</g>
<!-- Node17 -->
<g id="Node000017" class="node">
<title>Node17</title>
<g id="a_Node000017"><a xlink:href="../../d2/d1c/solver_8hpp.html" target="_top" xlink:title=" ">
<polygon fill="white" stroke="#666666" points="280,-229 208,-229 208,-212 280,-212 280,-229"/>
<text text-anchor="middle" x="244" y="-218.6" font-family="Helvetica,sans-Serif" font-size="8.00">base/solver.hpp</text>
</a>
</g>
</g>
<!-- Node1&#45;&gt;Node17 -->
<g id="edge24_Node000001_Node000017" class="edge">
<title>Node1&#45;&gt;Node17</title>
<g id="a_edge24_Node000001_Node000017"><a xlink:title=" ">
<path fill="none" stroke="#63b8ff" d="M330.95,-264.97C314.45,-256.73 287.74,-243.37 268.28,-233.64"/>
<polygon fill="#63b8ff" stroke="#63b8ff" points="269.62,-230.4 259.11,-229.06 266.49,-236.66 269.62,-230.4"/>
</a>
</g>
</g>
<!-- Node18 -->
<g id="Node000018" class="node">
<title>Node18</title>
<g id="a_Node000018"><a xlink:href="../../d0/def/unmanaged__node_8hpp.html" target="_top" xlink:title=" ">
<polygon fill="white" stroke="#666666" points="544.5,-229 427.5,-229 427.5,-212 544.5,-212 544.5,-229"/>
<text text-anchor="middle" x="486" y="-218.6" font-family="Helvetica,sans-Serif" font-size="8.00">base/unmanaged_node.hpp</text>
</a>
</g>
</g>
<!-- Node1&#45;&gt;Node18 -->
<g id="edge31_Node000001_Node000018" class="edge">
<title>Node1&#45;&gt;Node18</title>
<g id="a_edge31_Node000001_Node000018"><a xlink:title=" ">
<path fill="none" stroke="#63b8ff" d="M366.66,-264.97C390.13,-256.42 428.66,-242.39 455.57,-232.59"/>
<polygon fill="#63b8ff" stroke="#63b8ff" points="457.06,-235.77 465.26,-229.06 454.66,-229.19 457.06,-235.77"/>
</a>
</g>
</g>
<!-- Node4&#45;&gt;Node2 -->
<g id="edge4_Node000004_Node000002" class="edge">
<title>Node4&#45;&gt;Node2</title>
<g id="a_edge4_Node000004_Node000002"><a xlink:title=" ">
<path fill="none" stroke="#63b8ff" d="M368.22,-158.94C401.17,-146.38 461.82,-117.75 487,-70 501.22,-43.04 460.88,-25.75 430.19,-16.84"/>
<polygon fill="#63b8ff" stroke="#63b8ff" points="430.81,-13.38 420.25,-14.13 428.98,-20.13 430.81,-13.38"/>
</a>
</g>
</g>
<!-- Node4&#45;&gt;Node3 -->
<g id="edge8_Node000004_Node000003" class="edge">
<title>Node4&#45;&gt;Node3</title>
<g id="a_edge8_Node000004_Node000003"><a xlink:title=" ">
<path fill="none" stroke="#63b8ff" d="M406.48,-158.97C461,-151.75 543.54,-139.76 623.99,-123"/>
<polygon fill="#63b8ff" stroke="#63b8ff" points="624.72,-126.43 633.79,-120.94 623.28,-119.58 624.72,-126.43"/>
</a>
</g>
</g>
<!-- Node5 -->
<g id="Node000005" class="node">
<title>Node5</title>
<g id="a_Node000005"><a xlink:title=" ">
<polygon fill="#e0e0e0" stroke="#999999" points="376,-123 316,-123 316,-106 376,-106 376,-123"/>
<text text-anchor="middle" x="346" y="-112.6" font-family="Helvetica,sans-Serif" font-size="8.00">initializer_list</text>
</a>
</g>
</g>
<!-- Node4&#45;&gt;Node5 -->
<g id="edge5_Node000004_Node000005" class="edge">
<title>Node4&#45;&gt;Node5</title>
<g id="a_edge5_Node000004_Node000005"><a xlink:title=" ">
<path fill="none" stroke="#63b8ff" d="M346,-158.97C346,-152.19 346,-141.97 346,-133.13"/>
<polygon fill="#63b8ff" stroke="#63b8ff" points="349.5,-133.06 346,-123.06 342.5,-133.06 349.5,-133.06"/>
</a>
</g>
</g>
<!-- Node6 -->
<g id="Node000006" class="node">
<title>Node6</title>
<g id="a_Node000006"><a xlink:title=" ">
<polygon fill="#e0e0e0" stroke="#999999" points="616,-123 534,-123 534,-106 616,-106 616,-123"/>
<text text-anchor="middle" x="575" y="-112.6" font-family="Helvetica,sans-Serif" font-size="8.00">memory_resource</text>
</a>
</g>
</g>
<!-- Node4&#45;&gt;Node6 -->
<g id="edge6_Node000004_Node000006" class="edge">
<title>Node4&#45;&gt;Node6</title>
<g id="a_edge6_Node000004_Node000006"><a xlink:title=" ">
<path fill="none" stroke="#63b8ff" d="M379.79,-158.97C419.96,-150.03 487.09,-135.08 531.2,-125.25"/>
<polygon fill="#63b8ff" stroke="#63b8ff" points="532.07,-128.65 541.07,-123.06 530.55,-121.81 532.07,-128.65"/>
</a>
</g>
</g>
<!-- Node7 -->
<g id="Node000007" class="node">
<title>Node7</title>
<g id="a_Node000007"><a xlink:title=" ">
<polygon fill="#e0e0e0" stroke="#999999" points="119.5,-70 66.5,-70 66.5,-53 119.5,-53 119.5,-70"/>
<text text-anchor="middle" x="93" y="-59.6" font-family="Helvetica,sans-Serif" font-size="8.00">type_traits</text>
</a>
</g>
</g>
<!-- Node4&#45;&gt;Node7 -->
<g id="edge7_Node000004_Node000007" class="edge">
<title>Node4&#45;&gt;Node7</title>
<g id="a_edge7_Node000004_Node000007"><a xlink:title=" ">
<path fill="none" stroke="#63b8ff" d="M286.88,-158.94C250.85,-152.71 204.65,-141.74 167,-123 143.65,-111.38 121.08,-91.23 107.14,-77.4"/>
<polygon fill="#63b8ff" stroke="#63b8ff" points="109.48,-74.79 99.98,-70.1 104.48,-79.69 109.48,-74.79"/>
</a>
</g>
</g>
<!-- Node4&#45;&gt;Node8 -->
<g id="edge9_Node000004_Node000008" class="edge">
<title>Node4&#45;&gt;Node8</title>
<g id="a_edge9_Node000004_Node000008"><a xlink:title=" ">
<path fill="none" stroke="#63b8ff" d="M326.52,-158.97C304.49,-150.46 268.39,-136.51 243.03,-126.72"/>
<polygon fill="#63b8ff" stroke="#63b8ff" points="244.15,-123.4 233.56,-123.06 241.62,-129.92 244.15,-123.4"/>
</a>
</g>
</g>
<!-- Node8&#45;&gt;Node2 -->
<g id="edge12_Node000008_Node000002" class="edge">
<title>Node8&#45;&gt;Node2</title>
<g id="a_edge12_Node000008_Node000002"><a xlink:title=" ">
<path fill="none" stroke="#63b8ff" d="M251.59,-106.49C279.1,-100.11 316.46,-88.75 345,-70 362.78,-58.32 378.39,-39.34 388.19,-25.76"/>
<polygon fill="#63b8ff" stroke="#63b8ff" points="391.18,-27.58 394,-17.37 385.43,-23.6 391.18,-27.58"/>
</a>
</g>
</g>
<!-- Node8&#45;&gt;Node7 -->
<g id="edge15_Node000008_Node000007" class="edge">
<title>Node8&#45;&gt;Node7</title>
<g id="a_edge15_Node000008_Node000007"><a xlink:title=" ">
<path fill="none" stroke="#63b8ff" d="M196.15,-105.97C176.13,-97.54 143.44,-83.76 120.23,-73.98"/>
<polygon fill="#63b8ff" stroke="#63b8ff" points="121.5,-70.71 110.93,-70.06 118.78,-77.17 121.5,-70.71"/>
</a>
</g>
</g>
<!-- Node9 -->
<g id="Node000009" class="node">
<title>Node9</title>
<g id="a_Node000009"><a xlink:title=" ">
<polygon fill="#e0e0e0" stroke="#999999" points="335.5,-70 300.5,-70 300.5,-53 335.5,-53 335.5,-70"/>
<text text-anchor="middle" x="318" y="-59.6" font-family="Helvetica,sans-Serif" font-size="8.00">array</text>
</a>
</g>
</g>
<!-- Node8&#45;&gt;Node9 -->
<g id="edge10_Node000008_Node000009" class="edge">
<title>Node8&#45;&gt;Node9</title>
<g id="a_edge10_Node000008_Node000009"><a xlink:title=" ">
<path fill="none" stroke="#63b8ff" d="M229.35,-105.97C246.24,-97.69 273.65,-84.25 293.52,-74.5"/>
<polygon fill="#63b8ff" stroke="#63b8ff" points="295.15,-77.6 302.59,-70.06 292.07,-71.32 295.15,-77.6"/>
</a>
</g>
</g>
<!-- Node10 -->
<g id="Node000010" class="node">
<title>Node10</title>
<g id="a_Node000010"><a xlink:title=" ">
<polygon fill="#e0e0e0" stroke="#999999" points="176,-70 138,-70 138,-53 176,-53 176,-70"/>
<text text-anchor="middle" x="157" y="-59.6" font-family="Helvetica,sans-Serif" font-size="8.00">cmath</text>
</a>
</g>
</g>
<!-- Node8&#45;&gt;Node10 -->
<g id="edge11_Node000008_Node000010" class="edge">
<title>Node8&#45;&gt;Node10</title>
<g id="a_edge11_Node000008_Node000010"><a xlink:title=" ">
<path fill="none" stroke="#63b8ff" d="M205.59,-105.97C197.09,-98.37 183.73,-86.41 173.17,-76.97"/>
<polygon fill="#63b8ff" stroke="#63b8ff" points="175.23,-74.12 165.45,-70.06 170.56,-79.33 175.23,-74.12"/>
</a>
</g>
</g>
<!-- Node11 -->
<g id="Node000011" class="node">
<title>Node11</title>
<g id="a_Node000011"><a xlink:title=" ">
<polygon fill="#e0e0e0" stroke="#999999" points="228,-70 194,-70 194,-53 228,-53 228,-70"/>
<text text-anchor="middle" x="211" y="-59.6" font-family="Helvetica,sans-Serif" font-size="8.00">limits</text>
</a>
</g>
</g>
<!-- Node8&#45;&gt;Node11 -->
<g id="edge13_Node000008_Node000011" class="edge">
<title>Node8&#45;&gt;Node11</title>
<g id="a_edge13_Node000008_Node000011"><a xlink:title=" ">
<path fill="none" stroke="#63b8ff" d="M213.56,-105.97C213.16,-99.19 212.56,-88.97 212.04,-80.13"/>
<polygon fill="#63b8ff" stroke="#63b8ff" points="215.53,-79.83 211.44,-70.06 208.54,-80.24 215.53,-79.83"/>
</a>
</g>
</g>
<!-- Node12 -->
<g id="Node000012" class="node">
<title>Node12</title>
<g id="a_Node000012"><a xlink:title=" ">
<polygon fill="#e0e0e0" stroke="#999999" points="282,-70 246,-70 246,-53 282,-53 282,-70"/>
<text text-anchor="middle" x="264" y="-59.6" font-family="Helvetica,sans-Serif" font-size="8.00">string</text>
</a>
</g>
</g>
<!-- Node8&#45;&gt;Node12 -->
<g id="edge14_Node000008_Node000012" class="edge">
<title>Node8&#45;&gt;Node12</title>
<g id="a_edge14_Node000008_Node000012"><a xlink:title=" ">
<path fill="none" stroke="#63b8ff" d="M221.38,-105.97C228.76,-98.44 240.32,-86.65 249.54,-77.25"/>
<polygon fill="#63b8ff" stroke="#63b8ff" points="252.09,-79.65 256.59,-70.06 247.09,-74.75 252.09,-79.65"/>
</a>
</g>
</g>
<!-- Node13 -->
<g id="Node000013" class="node">
<title>Node13</title>
<g id="a_Node000013"><a xlink:href="../../d7/d65/intrinsics_8hpp.html" target="_top" xlink:title=" ">
<polygon fill="#fff0f0" stroke="red" points="477.5,-70 392.5,-70 392.5,-53 477.5,-53 477.5,-70"/>
<text text-anchor="middle" x="435" y="-59.6" font-family="Helvetica,sans-Serif" font-size="8.00">../utils/intrinsics.hpp</text>
</a>
</g>
</g>
<!-- Node8&#45;&gt;Node13 -->
<g id="edge16_Node000008_Node000013" class="edge">
<title>Node8&#45;&gt;Node13</title>
<g id="a_edge16_Node000008_Node000013"><a xlink:title=" ">
<path fill="none" stroke="#63b8ff" d="M246.61,-105.97C285.29,-97.05 349.89,-82.14 392.47,-72.32"/>
<polygon fill="#63b8ff" stroke="#63b8ff" points="393.3,-75.72 402.26,-70.06 391.73,-68.89 393.3,-75.72"/>
</a>
</g>
</g>
<!-- Node13&#45;&gt;Node2 -->
<g id="edge17_Node000013_Node000002" class="edge">
<title>Node13&#45;&gt;Node2</title>
<g id="a_edge17_Node000013_Node000002"><a xlink:title=" ">
<path fill="none" stroke="#63b8ff" d="M429.69,-52.97C424.58,-45.74 416.71,-34.59 410.21,-25.39"/>
<polygon fill="#63b8ff" stroke="#63b8ff" points="412.96,-23.21 404.33,-17.06 407.24,-27.24 412.96,-23.21"/>
</a>
</g>
</g>
<!-- Node15&#45;&gt;Node2 -->
<g id="edge19_Node000015_Node000002" class="edge">
<title>Node15&#45;&gt;Node2</title>
<g id="a_edge19_Node000015_Node000002"><a xlink:title=" ">
<path fill="none" stroke="#63b8ff" d="M688.63,-158.86C690.83,-146.35 693.19,-121.39 681,-106 618.99,-27.72 490.21,-12.62 430.57,-9.93"/>
<polygon fill="#63b8ff" stroke="#63b8ff" points="430.39,-6.43 420.27,-9.56 430.14,-13.42 430.39,-6.43"/>
</a>
</g>
</g>
<!-- Node15&#45;&gt;Node3 -->
<g id="edge21_Node000015_Node000003" class="edge">
<title>Node15&#45;&gt;Node3</title>
<g id="a_edge21_Node000015_Node000003"><a xlink:title=" ">
<path fill="none" stroke="#63b8ff" d="M681.98,-158.97C677.16,-151.74 669.72,-140.59 663.59,-131.39"/>
<polygon fill="#63b8ff" stroke="#63b8ff" points="666.5,-129.44 658.04,-123.06 660.67,-133.32 666.5,-129.44"/>
</a>
</g>
</g>
<!-- Node15&#45;&gt;Node6 -->
<g id="edge22_Node000015_Node000006" class="edge">
<title>Node15&#45;&gt;Node6</title>
<g id="a_edge22_Node000015_Node000006"><a xlink:title=" ">
<path fill="none" stroke="#63b8ff" d="M670.47,-158.97C652.11,-150.61 622.23,-137 600.78,-127.24"/>
<polygon fill="#63b8ff" stroke="#63b8ff" points="602.15,-124.01 591.59,-123.06 599.24,-130.39 602.15,-124.01"/>
</a>
</g>
</g>
<!-- Node16 -->
<g id="Node000016" class="node">
<title>Node16</title>
<g id="a_Node000016"><a xlink:title=" ">
<polygon fill="#e0e0e0" stroke="#999999" points="767.5,-123 728.5,-123 728.5,-106 767.5,-106 767.5,-123"/>
<text text-anchor="middle" x="748" y="-112.6" font-family="Helvetica,sans-Serif" font-size="8.00">queue</text>
</a>
</g>
</g>
<!-- Node15&#45;&gt;Node16 -->
<g id="edge20_Node000015_Node000016" class="edge">
<title>Node15&#45;&gt;Node16</title>
<g id="a_edge20_Node000015_Node000016"><a xlink:title=" ">
<path fill="none" stroke="#63b8ff" d="M696,-158.97C705.19,-151.29 719.68,-139.18 731.03,-129.69"/>
<polygon fill="#63b8ff" stroke="#63b8ff" points="733.54,-132.16 738.96,-123.06 729.05,-126.79 733.54,-132.16"/>
</a>
</g>
</g>
<!-- Node17&#45;&gt;Node2 -->
<g id="edge25_Node000017_Node000002" class="edge">
<title>Node17&#45;&gt;Node2</title>
<g id="a_edge25_Node000017_Node000002"><a xlink:title=" ">
<path fill="none" stroke="#63b8ff" d="M222.21,-211.94C161.15,-189.66 -3.34,-121.5 57,-53 77.42,-29.82 287.39,-15.73 367.85,-11.15"/>
<polygon fill="#63b8ff" stroke="#63b8ff" points="368.09,-14.64 377.88,-10.59 367.7,-7.65 368.09,-14.64"/>
</a>
</g>
</g>
<!-- Node17&#45;&gt;Node3 -->
<g id="edge27_Node000017_Node000003" class="edge">
<title>Node17&#45;&gt;Node3</title>
<g id="a_edge27_Node000017_Node000003"><a xlink:title=" ">
<path fill="none" stroke="#63b8ff" d="M277.5,-211.97C314.62,-203.55 376.22,-189.33 429,-176 499.36,-158.23 581.62,-135.51 624.19,-123.61"/>
<polygon fill="#63b8ff" stroke="#63b8ff" points="625.19,-126.96 633.88,-120.89 623.31,-120.22 625.19,-126.96"/>
</a>
</g>
</g>
<!-- Node17&#45;&gt;Node4 -->
<g id="edge28_Node000017_Node000004" class="edge">
<title>Node17&#45;&gt;Node4</title>
<g id="a_edge28_Node000017_Node000004"><a xlink:title=" ">
<path fill="none" stroke="#63b8ff" d="M259.05,-211.97C275.55,-203.73 302.26,-190.37 321.72,-180.64"/>
<polygon fill="#63b8ff" stroke="#63b8ff" points="323.51,-183.66 330.89,-176.06 320.38,-177.4 323.51,-183.66"/>
</a>
</g>
</g>
<!-- Node17&#45;&gt;Node7 -->
<g id="edge26_Node000017_Node000007" class="edge">
<title>Node17&#45;&gt;Node7</title>
<g id="a_edge26_Node000017_Node000007"><a xlink:title=" ">
<path fill="none" stroke="#63b8ff" d="M234.23,-211.85C214.64,-196.27 169.63,-159.26 137,-123 124.4,-109 111.95,-91.45 103.53,-78.86"/>
<polygon fill="#63b8ff" stroke="#63b8ff" points="106.35,-76.78 97.94,-70.34 100.5,-80.62 106.35,-76.78"/>
</a>
</g>
</g>
<!-- Node17&#45;&gt;Node8 -->
<g id="edge29_Node000017_Node000008" class="edge">
<title>Node17&#45;&gt;Node8</title>
<g id="a_edge29_Node000017_Node000008"><a xlink:title=" ">
<path fill="none" stroke="#63b8ff" d="M241.4,-211.84C238.49,-203.18 233.7,-188.64 230,-176 225.79,-161.63 221.48,-145.2 218.39,-133.09"/>
<polygon fill="#63b8ff" stroke="#63b8ff" points="221.78,-132.21 215.94,-123.37 214.99,-133.92 221.78,-132.21"/>
</a>
</g>
</g>
<!-- Node17&#45;&gt;Node13 -->
<g id="edge30_Node000017_Node000013" class="edge">
<title>Node17&#45;&gt;Node13</title>
<g id="a_edge30_Node000017_Node000013"><a xlink:title=" ">
<path fill="none" stroke="#63b8ff" d="M245.44,-211.67C247.86,-199.75 253.42,-176.6 263,-159 277.64,-132.11 281.78,-123.36 307,-106 330.55,-89.79 360.68,-79.16 385.79,-72.46"/>
<polygon fill="#63b8ff" stroke="#63b8ff" points="386.66,-75.85 395.49,-70 384.94,-69.07 386.66,-75.85"/>
</a>
</g>
</g>
<!-- Node18&#45;&gt;Node13 -->
<g id="edge33_Node000018_Node000013" class="edge">
<title>Node18&#45;&gt;Node13</title>
<g id="a_edge33_Node000018_Node000013"><a xlink:title=" ">
<path fill="none" stroke="#63b8ff" d="M483.54,-211.93C475.78,-188.05 451.7,-113.91 440.65,-79.89"/>
<polygon fill="#63b8ff" stroke="#63b8ff" points="443.97,-78.8 437.56,-70.37 437.32,-80.96 443.97,-78.8"/>
</a>
</g>
</g>
<!-- Node19 -->
<g id="Node000019" class="node">
<title>Node19</title>
<g id="a_Node000019"><a xlink:href="../../dc/d3c/bnode_8hpp.html" target="_top" xlink:title=" ">
<polygon fill="white" stroke="#666666" points="569.5,-176 514.5,-176 514.5,-159 569.5,-159 569.5,-176"/>
<text text-anchor="middle" x="542" y="-165.6" font-family="Helvetica,sans-Serif" font-size="8.00">bnode.hpp</text>
</a>
</g>
</g>
<!-- Node18&#45;&gt;Node19 -->
<g id="edge32_Node000018_Node000019" class="edge">
<title>Node18&#45;&gt;Node19</title>
<g id="a_edge32_Node000018_Node000019"><a xlink:title=" ">
<path fill="none" stroke="#63b8ff" d="M494.26,-211.97C502.62,-204.37 515.74,-192.41 526.12,-182.97"/>
<polygon fill="#63b8ff" stroke="#63b8ff" points="528.67,-185.38 533.7,-176.06 523.95,-180.2 528.67,-185.38"/>
</a>
</g>
</g>
</g>
</svg>
