<?xml version="1.0" encoding="UTF-8" standalone="no"?>
<!DOCTYPE svg PUBLIC "-//W3C//DTD SVG 1.1//EN"
 "http://www.w3.org/Graphics/SVG/1.1/DTD/svg11.dtd">
<!-- Generated by graphviz version 2.43.0 (0)
 -->
<!-- Title: bfs.hpp Pages: 1 -->
<svg width="988pt" height="237pt"
 viewBox="0.00 0.00 988.21 237.00" xmlns="http://www.w3.org/2000/svg" xmlns:xlink="http://www.w3.org/1999/xlink">
<g id="graph0" class="graph" transform="scale(1 1) rotate(0) translate(4 233)">
<title>bfs.hpp</title>
<!-- Node1 -->
<g id="Node000001" class="node">
<title>Node1</title>
<g id="a_Node000001"><a xlink:title=" ">
<polygon fill="#999999" stroke="#666666" points="384.21,-229 341.21,-229 341.21,-212 384.21,-212 384.21,-229"/>
<text text-anchor="middle" x="362.71" y="-218.6" font-family="Helvetica,sans-Serif" font-size="8.00">bfs.hpp</text>
</a>
</g>
</g>
<!-- Node2 -->
<g id="Node000002" class="node">
<title>Node2</title>
<g id="a_Node000002"><a xlink:title=" ">
<polygon fill="#e0e0e0" stroke="#999999" points="358.71,-17 316.71,-17 316.71,0 358.71,0 358.71,-17"/>
<text text-anchor="middle" x="337.71" y="-6.6" font-family="Helvetica,sans-Serif" font-size="8.00">cstddef</text>
</a>
</g>
</g>
<!-- Node1&#45;&gt;Node2 -->
<g id="edge1_Node000001_Node000002" class="edge">
<title>Node1&#45;&gt;Node2</title>
<g id="a_edge1_Node000001_Node000002"><a xlink:title=" ">
<path fill="none" stroke="#63b8ff" d="M340.93,-217.35C251.35,-207.75 -79.41,-164.21 17.71,-53 54.98,-10.32 232.88,-7.92 306.1,-8.8"/>
<polygon fill="#63b8ff" stroke="#63b8ff" points="306.47,-12.3 316.52,-8.95 306.57,-5.3 306.47,-12.3"/>
</a>
</g>
</g>
<!-- Node3 -->
<g id="Node000003" class="node">
<title>Node3</title>
<g id="a_Node000003"><a xlink:title=" ">
<polygon fill="#e0e0e0" stroke="#999999" points="339.71,-123 301.71,-123 301.71,-106 339.71,-106 339.71,-123"/>
<text text-anchor="middle" x="320.71" y="-112.6" font-family="Helvetica,sans-Serif" font-size="8.00">vector</text>
</a>
</g>
</g>
<!-- Node1&#45;&gt;Node3 -->
<g id="edge2_Node000001_Node000003" class="edge">
<title>Node1&#45;&gt;Node3</title>
<g id="a_edge2_Node000001_Node000003"><a xlink:title=" ">
<path fill="none" stroke="#63b8ff" d="M355.32,-211.87C347.85,-203.7 336.61,-189.99 330.71,-176 325,-162.47 322.54,-145.96 321.48,-133.6"/>
<polygon fill="#63b8ff" stroke="#63b8ff" points="324.96,-133.03 320.84,-123.27 317.97,-133.47 324.96,-133.03"/>
</a>
</g>
</g>
<!-- Node4 -->
<g id="Node000004" class="node">
<title>Node4</title>
<g id="a_Node000004"><a xlink:href="../../d8/d62/existence__set_8hpp.html" target="_top" xlink:title=" ">
<polygon fill="white" stroke="#666666" points="487.21,-176 340.21,-176 340.21,-159 487.21,-159 487.21,-176"/>
<text text-anchor="middle" x="413.71" y="-165.6" font-family="Helvetica,sans-Serif" font-size="8.00">../types/containers/existence_set.hpp</text>
</a>
</g>
</g>
<!-- Node1&#45;&gt;Node4 -->
<g id="edge3_Node000001_Node000004" class="edge">
<title>Node1&#45;&gt;Node4</title>
<g id="a_edge3_Node000001_Node000004"><a xlink:title=" ">
<path fill="none" stroke="#63b8ff" d="M370.23,-211.97C377.76,-204.44 389.56,-192.65 398.96,-183.25"/>
<polygon fill="#63b8ff" stroke="#63b8ff" points="401.55,-185.6 406.15,-176.06 396.6,-180.65 401.55,-185.6"/>
</a>
</g>
</g>
<!-- Node10 -->
<g id="Node000010" class="node">
<title>Node10</title>
<g id="a_Node000010"><a xlink:href="../../df/d93/utils_8hpp.html" target="_top" xlink:title=" ">
<polygon fill="white" stroke="#666666" points="207.21,-123 132.21,-123 132.21,-106 207.21,-106 207.21,-123"/>
<text text-anchor="middle" x="169.71" y="-112.6" font-family="Helvetica,sans-Serif" font-size="8.00">../../utils/utils.hpp</text>
</a>
</g>
</g>
<!-- Node1&#45;&gt;Node10 -->
<g id="edge27_Node000001_Node000010" class="edge">
<title>Node1&#45;&gt;Node10</title>
<g id="a_edge27_Node000001_Node000010"><a xlink:title=" ">
<path fill="none" stroke="#63b8ff" d="M340.92,-220.21C304.98,-220.17 233.04,-214.83 190.71,-176 178.67,-164.96 173.53,-146.68 171.34,-133.09"/>
<polygon fill="#63b8ff" stroke="#63b8ff" points="174.8,-132.55 170.1,-123.05 167.85,-133.4 174.8,-132.55"/>
</a>
</g>
</g>
<!-- Node14 -->
<g id="Node000014" class="node">
<title>Node14</title>
<g id="a_Node000014"><a xlink:href="../../d7/d65/intrinsics_8hpp.html" target="_top" xlink:title=" ">
<polygon fill="#fff0f0" stroke="red" points="602.21,-70 517.21,-70 517.21,-53 602.21,-53 602.21,-70"/>
<text text-anchor="middle" x="559.71" y="-59.6" font-family="Helvetica,sans-Serif" font-size="8.00">../utils/intrinsics.hpp</text>
</a>
</g>
</g>
<!-- Node1&#45;&gt;Node14 -->
<g id="edge38_Node000001_Node000014" class="edge">
<title>Node1&#45;&gt;Node14</title>
<g id="a_edge38_Node000001_Node000014"><a xlink:title=" ">
<path fill="none" stroke="#63b8ff" d="M384.3,-216.26C449.56,-205.98 642.53,-171.87 678.71,-123 699.79,-94.52 653.24,-78.48 612.33,-70.18"/>
<polygon fill="#63b8ff" stroke="#63b8ff" points="612.84,-66.71 602.36,-68.28 611.53,-73.59 612.84,-66.71"/>
</a>
</g>
</g>
<!-- Node17 -->
<g id="Node000017" class="node">
<title>Node17</title>
<g id="a_Node000017"><a xlink:href="../../d7/ded/queue_8hpp.html" target="_top" xlink:title=" ">
<polygon fill="white" stroke="#666666" points="844.71,-176 722.71,-176 722.71,-159 844.71,-159 844.71,-176"/>
<text text-anchor="middle" x="783.71" y="-165.6" font-family="Helvetica,sans-Serif" font-size="8.00">../types/containers/queue.hpp</text>
</a>
</g>
</g>
<!-- Node1&#45;&gt;Node17 -->
<g id="edge22_Node000001_Node000017" class="edge">
<title>Node1&#45;&gt;Node17</title>
<g id="a_edge22_Node000001_Node000017"><a xlink:title=" ">
<path fill="none" stroke="#63b8ff" d="M384.45,-216.87C444.54,-209.59 614.83,-188.96 712.51,-177.12"/>
<polygon fill="#63b8ff" stroke="#63b8ff" points="713.09,-180.58 722.6,-175.9 712.25,-173.63 713.09,-180.58"/>
</a>
</g>
</g>
<!-- Node19 -->
<g id="Node000019" class="node">
<title>Node19</title>
<g id="a_Node000019"><a xlink:href="../../d2/d1c/solver_8hpp.html" target="_top" xlink:title=" ">
<polygon fill="white" stroke="#666666" points="271.71,-176 199.71,-176 199.71,-159 271.71,-159 271.71,-176"/>
<text text-anchor="middle" x="235.71" y="-165.6" font-family="Helvetica,sans-Serif" font-size="8.00">base/solver.hpp</text>
</a>
</g>
</g>
<!-- Node1&#45;&gt;Node19 -->
<g id="edge28_Node000001_Node000019" class="edge">
<title>Node1&#45;&gt;Node19</title>
<g id="a_edge28_Node000001_Node000019"><a xlink:title=" ">
<path fill="none" stroke="#63b8ff" d="M343.97,-211.97C322.86,-203.5 288.34,-189.64 263.96,-179.85"/>
<polygon fill="#63b8ff" stroke="#63b8ff" points="265.11,-176.53 254.52,-176.06 262.5,-183.03 265.11,-176.53"/>
</a>
</g>
</g>
<!-- Node20 -->
<g id="Node000020" class="node">
<title>Node20</title>
<g id="a_Node000020"><a xlink:href="../../d0/def/unmanaged__node_8hpp.html" target="_top" xlink:title=" ">
<polygon fill="white" stroke="#666666" points="980.21,-176 863.21,-176 863.21,-159 980.21,-159 980.21,-176"/>
<text text-anchor="middle" x="921.71" y="-165.6" font-family="Helvetica,sans-Serif" font-size="8.00">base/unmanaged_node.hpp</text>
</a>
</g>
</g>
<!-- Node1&#45;&gt;Node20 -->
<g id="edge35_Node000001_Node000020" class="edge">
<title>Node1&#45;&gt;Node20</title>
<g id="a_edge35_Node000001_Node000020"><a xlink:title=" ">
<path fill="none" stroke="#63b8ff" d="M384.26,-217.76C451.66,-212.27 664.65,-194.67 853.02,-176.04"/>
<polygon fill="#63b8ff" stroke="#63b8ff" points="853.5,-179.51 863.11,-175.04 852.81,-172.55 853.5,-179.51"/>
</a>
</g>
</g>
<!-- Node4&#45;&gt;Node2 -->
<g id="edge4_Node000004_Node000002" class="edge">
<title>Node4&#45;&gt;Node2</title>
<g id="a_edge4_Node000004_Node000002"><a xlink:title=" ">
<path fill="none" stroke="#63b8ff" d="M417.38,-158.89C426.15,-139.54 446.04,-87.52 424.71,-53 412.53,-33.31 388.45,-22.23 368.7,-16.19"/>
<polygon fill="#63b8ff" stroke="#63b8ff" points="369.42,-12.76 358.85,-13.47 367.56,-19.51 369.42,-12.76"/>
</a>
</g>
</g>
<!-- Node4&#45;&gt;Node3 -->
<g id="edge10_Node000004_Node000003" class="edge">
<title>Node4&#45;&gt;Node3</title>
<g id="a_edge10_Node000004_Node000003"><a xlink:title=" ">
<path fill="none" stroke="#63b8ff" d="M399.98,-158.97C385.15,-150.84 361.25,-137.74 343.57,-128.04"/>
<polygon fill="#63b8ff" stroke="#63b8ff" points="344.94,-124.8 334.48,-123.06 341.57,-130.93 344.94,-124.8"/>
</a>
</g>
</g>
<!-- Node5 -->
<g id="Node000005" class="node">
<title>Node5</title>
<g id="a_Node000005"><a xlink:title=" ">
<polygon fill="#e0e0e0" stroke="#999999" points="415.71,-70 365.71,-70 365.71,-53 415.71,-53 415.71,-70"/>
<text text-anchor="middle" x="390.71" y="-59.6" font-family="Helvetica,sans-Serif" font-size="8.00">functional</text>
</a>
</g>
</g>
<!-- Node4&#45;&gt;Node5 -->
<g id="edge5_Node000004_Node000005" class="edge">
<title>Node4&#45;&gt;Node5</title>
<g id="a_edge5_Node000004_Node000005"><a xlink:title=" ">
<path fill="none" stroke="#63b8ff" d="M411.98,-158.68C408.31,-142.11 399.69,-103.11 394.62,-80.18"/>
<polygon fill="#63b8ff" stroke="#63b8ff" points="397.97,-79.13 392.39,-70.12 391.13,-80.64 397.97,-79.13"/>
</a>
</g>
</g>
<!-- Node6 -->
<g id="Node000006" class="node">
<title>Node6</title>
<g id="a_Node000006"><a xlink:title=" ">
<polygon fill="#e0e0e0" stroke="#999999" points="531.71,-123 471.71,-123 471.71,-106 531.71,-106 531.71,-123"/>
<text text-anchor="middle" x="501.71" y="-112.6" font-family="Helvetica,sans-Serif" font-size="8.00">initializer_list</text>
</a>
</g>
</g>
<!-- Node4&#45;&gt;Node6 -->
<g id="edge6_Node000004_Node000006" class="edge">
<title>Node4&#45;&gt;Node6</title>
<g id="a_edge6_Node000004_Node000006"><a xlink:title=" ">
<path fill="none" stroke="#63b8ff" d="M426.69,-158.97C440.6,-150.91 462.92,-137.98 479.6,-128.31"/>
<polygon fill="#63b8ff" stroke="#63b8ff" points="481.77,-131.1 488.67,-123.06 478.26,-125.04 481.77,-131.1"/>
</a>
</g>
</g>
<!-- Node7 -->
<g id="Node000007" class="node">
<title>Node7</title>
<g id="a_Node000007"><a xlink:title=" ">
<polygon fill="#e0e0e0" stroke="#999999" points="347.71,-70 313.71,-70 313.71,-53 347.71,-53 347.71,-70"/>
<text text-anchor="middle" x="330.71" y="-59.6" font-family="Helvetica,sans-Serif" font-size="8.00">limits</text>
</a>
</g>
</g>
<!-- Node4&#45;&gt;Node7 -->
<g id="edge7_Node000004_Node000007" class="edge">
<title>Node4&#45;&gt;Node7</title>
<g id="a_edge7_Node000004_Node000007"><a xlink:title=" ">
<path fill="none" stroke="#63b8ff" d="M407.47,-158.68C393.82,-141.58 361.11,-100.59 343.1,-78.03"/>
<polygon fill="#63b8ff" stroke="#63b8ff" points="345.76,-75.76 336.79,-70.12 340.29,-80.12 345.76,-75.76"/>
</a>
</g>
</g>
<!-- Node8 -->
<g id="Node000008" class="node">
<title>Node8</title>
<g id="a_Node000008"><a xlink:title=" ">
<polygon fill="#e0e0e0" stroke="#999999" points="669.71,-123 587.71,-123 587.71,-106 669.71,-106 669.71,-123"/>
<text text-anchor="middle" x="628.71" y="-112.6" font-family="Helvetica,sans-Serif" font-size="8.00">memory_resource</text>
</a>
</g>
</g>
<!-- Node4&#45;&gt;Node8 -->
<g id="edge8_Node000004_Node000008" class="edge">
<title>Node4&#45;&gt;Node8</title>
<g id="a_edge8_Node000004_Node000008"><a xlink:title=" ">
<path fill="none" stroke="#63b8ff" d="M445.43,-158.97C482.98,-150.07 545.64,-135.2 587.06,-125.38"/>
<polygon fill="#63b8ff" stroke="#63b8ff" points="587.93,-128.77 596.85,-123.06 586.31,-121.96 587.93,-128.77"/>
</a>
</g>
</g>
<!-- Node9 -->
<g id="Node000009" class="node">
<title>Node9</title>
<g id="a_Node000009"><a xlink:title=" ">
<polygon fill="#e0e0e0" stroke="#999999" points="93.21,-70 40.21,-70 40.21,-53 93.21,-53 93.21,-70"/>
<text text-anchor="middle" x="66.71" y="-59.6" font-family="Helvetica,sans-Serif" font-size="8.00">type_traits</text>
</a>
</g>
</g>
<!-- Node4&#45;&gt;Node9 -->
<g id="edge9_Node000004_Node000009" class="edge">
<title>Node4&#45;&gt;Node9</title>
<g id="a_edge9_Node000004_Node000009"><a xlink:title=" ">
<path fill="none" stroke="#63b8ff" d="M339.95,-161.06C266.43,-154.66 159.34,-142.36 122.71,-123 103.38,-112.78 87.18,-93.22 77.25,-79.1"/>
<polygon fill="#63b8ff" stroke="#63b8ff" points="79.89,-76.75 71.42,-70.38 74.07,-80.64 79.89,-76.75"/>
</a>
</g>
</g>
<!-- Node4&#45;&gt;Node10 -->
<g id="edge11_Node000004_Node000010" class="edge">
<title>Node4&#45;&gt;Node10</title>
<g id="a_edge11_Node000004_Node000010"><a xlink:title=" ">
<path fill="none" stroke="#63b8ff" d="M377.7,-158.97C334.72,-149.99 262.77,-134.95 215.78,-125.13"/>
<polygon fill="#63b8ff" stroke="#63b8ff" points="216.36,-121.68 205.86,-123.06 214.93,-128.53 216.36,-121.68"/>
</a>
</g>
</g>
<!-- Node4&#45;&gt;Node14 -->
<g id="edge21_Node000004_Node000014" class="edge">
<title>Node4&#45;&gt;Node14</title>
<g id="a_edge21_Node000004_Node000014"><a xlink:title=" ">
<path fill="none" stroke="#63b8ff" d="M469.5,-158.99C494.23,-153.01 521.92,-142.28 540.71,-123 551.76,-111.66 556.39,-93.96 558.33,-80.63"/>
<polygon fill="#63b8ff" stroke="#63b8ff" points="561.85,-80.62 559.43,-70.31 554.89,-79.88 561.85,-80.62"/>
</a>
</g>
</g>
<!-- Node10&#45;&gt;Node2 -->
<g id="edge14_Node000010_Node000002" class="edge">
<title>Node10&#45;&gt;Node2</title>
<g id="a_edge14_Node000010_Node000002"><a xlink:title=" ">
<path fill="none" stroke="#63b8ff" d="M178.8,-105.86C193.4,-93.79 223.22,-69.95 250.71,-53 270.23,-40.96 293.53,-29.45 311.1,-21.3"/>
<polygon fill="#63b8ff" stroke="#63b8ff" points="312.58,-24.47 320.22,-17.13 309.67,-18.1 312.58,-24.47"/>
</a>
</g>
</g>
<!-- Node10&#45;&gt;Node5 -->
<g id="edge15_Node000010_Node000005" class="edge">
<title>Node10&#45;&gt;Node5</title>
<g id="a_edge15_Node000010_Node000005"><a xlink:title=" ">
<path fill="none" stroke="#63b8ff" d="M202.31,-105.97C243.36,-96.5 313.56,-80.3 355.7,-70.58"/>
<polygon fill="#63b8ff" stroke="#63b8ff" points="356.57,-73.97 365.52,-68.31 354.99,-67.15 356.57,-73.97"/>
</a>
</g>
</g>
<!-- Node10&#45;&gt;Node7 -->
<g id="edge16_Node000010_Node000007" class="edge">
<title>Node10&#45;&gt;Node7</title>
<g id="a_edge16_Node000010_Node000007"><a xlink:title=" ">
<path fill="none" stroke="#63b8ff" d="M193.46,-105.97C222.85,-96.66 272.78,-80.85 303.63,-71.08"/>
<polygon fill="#63b8ff" stroke="#63b8ff" points="304.82,-74.37 313.3,-68.01 302.71,-67.7 304.82,-74.37"/>
</a>
</g>
</g>
<!-- Node10&#45;&gt;Node9 -->
<g id="edge18_Node000010_Node000009" class="edge">
<title>Node10&#45;&gt;Node9</title>
<g id="a_edge18_Node000010_Node000009"><a xlink:title=" ">
<path fill="none" stroke="#63b8ff" d="M154.51,-105.97C137.77,-97.69 110.63,-84.25 90.95,-74.5"/>
<polygon fill="#63b8ff" stroke="#63b8ff" points="92.48,-71.36 81.97,-70.06 89.37,-77.63 92.48,-71.36"/>
</a>
</g>
</g>
<!-- Node11 -->
<g id="Node000011" class="node">
<title>Node11</title>
<g id="a_Node000011"><a xlink:title=" ">
<polygon fill="#e0e0e0" stroke="#999999" points="295.21,-70 260.21,-70 260.21,-53 295.21,-53 295.21,-70"/>
<text text-anchor="middle" x="277.71" y="-59.6" font-family="Helvetica,sans-Serif" font-size="8.00">array</text>
</a>
</g>
</g>
<!-- Node10&#45;&gt;Node11 -->
<g id="edge12_Node000010_Node000011" class="edge">
<title>Node10&#45;&gt;Node11</title>
<g id="a_edge12_Node000010_Node000011"><a xlink:title=" ">
<path fill="none" stroke="#63b8ff" d="M185.64,-105.97C203.27,-97.65 231.91,-84.13 252.57,-74.37"/>
<polygon fill="#63b8ff" stroke="#63b8ff" points="254.16,-77.49 261.7,-70.06 251.17,-71.16 254.16,-77.49"/>
</a>
</g>
</g>
<!-- Node12 -->
<g id="Node000012" class="node">
<title>Node12</title>
<g id="a_Node000012"><a xlink:title=" ">
<polygon fill="#e0e0e0" stroke="#999999" points="149.71,-70 111.71,-70 111.71,-53 149.71,-53 149.71,-70"/>
<text text-anchor="middle" x="130.71" y="-59.6" font-family="Helvetica,sans-Serif" font-size="8.00">cmath</text>
</a>
</g>
</g>
<!-- Node10&#45;&gt;Node12 -->
<g id="edge13_Node000010_Node000012" class="edge">
<title>Node10&#45;&gt;Node12</title>
<g id="a_edge13_Node000010_Node000012"><a xlink:title=" ">
<path fill="none" stroke="#63b8ff" d="M163.95,-105.97C158.36,-98.67 149.71,-87.35 142.63,-78.1"/>
<polygon fill="#63b8ff" stroke="#63b8ff" points="145.34,-75.87 136.48,-70.06 139.78,-80.13 145.34,-75.87"/>
</a>
</g>
</g>
<!-- Node13 -->
<g id="Node000013" class="node">
<title>Node13</title>
<g id="a_Node000013"><a xlink:title=" ">
<polygon fill="#e0e0e0" stroke="#999999" points="203.71,-70 167.71,-70 167.71,-53 203.71,-53 203.71,-70"/>
<text text-anchor="middle" x="185.71" y="-59.6" font-family="Helvetica,sans-Serif" font-size="8.00">string</text>
</a>
</g>
</g>
<!-- Node10&#45;&gt;Node13 -->
<g id="edge17_Node000010_Node000013" class="edge">
<title>Node10&#45;&gt;Node13</title>
<g id="a_edge17_Node000010_Node000013"><a xlink:title=" ">
<path fill="none" stroke="#63b8ff" d="M172.07,-105.97C174.22,-99.12 177.47,-88.74 180.27,-79.84"/>
<polygon fill="#63b8ff" stroke="#63b8ff" points="183.68,-80.65 183.33,-70.06 177,-78.55 183.68,-80.65"/>
</a>
</g>
</g>
<!-- Node10&#45;&gt;Node14 -->
<g id="edge19_Node000010_Node000014" class="edge">
<title>Node10&#45;&gt;Node14</title>
<g id="a_edge19_Node000010_Node000014"><a xlink:title=" ">
<path fill="none" stroke="#63b8ff" d="M207.45,-108.56C277.25,-99.44 426.63,-79.9 506.59,-69.45"/>
<polygon fill="#63b8ff" stroke="#63b8ff" points="507.47,-72.86 516.93,-68.09 506.56,-65.92 507.47,-72.86"/>
</a>
</g>
</g>
<!-- Node14&#45;&gt;Node2 -->
<g id="edge20_Node000014_Node000002" class="edge">
<title>Node14&#45;&gt;Node2</title>
<g id="a_edge20_Node000014_Node000002"><a xlink:title=" ">
<path fill="none" stroke="#63b8ff" d="M526.95,-52.97C484.36,-43.19 410.52,-26.23 368.78,-16.64"/>
<polygon fill="#63b8ff" stroke="#63b8ff" points="369.42,-13.2 358.89,-14.37 367.86,-20.02 369.42,-13.2"/>
</a>
</g>
</g>
<!-- Node17&#45;&gt;Node2 -->
<g id="edge23_Node000017_Node000002" class="edge">
<title>Node17&#45;&gt;Node2</title>
<g id="a_edge23_Node000017_Node000002"><a xlink:title=" ">
<path fill="none" stroke="#63b8ff" d="M792.4,-158.86C805.09,-146.8 825.8,-122.97 812.71,-106 757.96,-35.04 465.44,-15.36 368.75,-10.75"/>
<polygon fill="#63b8ff" stroke="#63b8ff" points="368.88,-7.25 358.73,-10.29 368.56,-14.24 368.88,-7.25"/>
</a>
</g>
</g>
<!-- Node17&#45;&gt;Node8 -->
<g id="edge25_Node000017_Node000008" class="edge">
<title>Node17&#45;&gt;Node8</title>
<g id="a_edge25_Node000017_Node000008"><a xlink:title=" ">
<path fill="none" stroke="#63b8ff" d="M760.83,-158.97C734.51,-150.31 691.06,-136.02 661.22,-126.2"/>
<polygon fill="#63b8ff" stroke="#63b8ff" points="662.26,-122.86 651.67,-123.06 660.08,-129.51 662.26,-122.86"/>
</a>
</g>
</g>
<!-- Node17&#45;&gt;Node14 -->
<g id="edge26_Node000017_Node000014" class="edge">
<title>Node17&#45;&gt;Node14</title>
<g id="a_edge26_Node000017_Node000014"><a xlink:title=" ">
<path fill="none" stroke="#63b8ff" d="M776.51,-158.6C764.38,-145.74 738.52,-120.26 711.71,-106 680.68,-89.5 642.67,-78.62 612.42,-71.87"/>
<polygon fill="#63b8ff" stroke="#63b8ff" points="612.99,-68.42 602.48,-69.74 611.52,-75.26 612.99,-68.42"/>
</a>
</g>
</g>
<!-- Node18 -->
<g id="Node000018" class="node">
<title>Node18</title>
<g id="a_Node000018"><a xlink:title=" ">
<polygon fill="#e0e0e0" stroke="#999999" points="803.21,-123 764.21,-123 764.21,-106 803.21,-106 803.21,-123"/>
<text text-anchor="middle" x="783.71" y="-112.6" font-family="Helvetica,sans-Serif" font-size="8.00">deque</text>
</a>
</g>
</g>
<!-- Node17&#45;&gt;Node18 -->
<g id="edge24_Node000017_Node000018" class="edge">
<title>Node17&#45;&gt;Node18</title>
<g id="a_edge24_Node000017_Node000018"><a xlink:title=" ">
<path fill="none" stroke="#63b8ff" d="M783.71,-158.97C783.71,-152.19 783.71,-141.97 783.71,-133.13"/>
<polygon fill="#63b8ff" stroke="#63b8ff" points="787.21,-133.06 783.71,-123.06 780.21,-133.06 787.21,-133.06"/>
</a>
</g>
</g>
<!-- Node19&#45;&gt;Node2 -->
<g id="edge29_Node000019_Node000002" class="edge">
<title>Node19&#45;&gt;Node2</title>
<g id="a_edge29_Node000019_Node000002"><a xlink:title=" ">
<path fill="none" stroke="#63b8ff" d="M199.69,-160.84C127.88,-148.11 -21.84,-113.51 30.71,-53 66.21,-12.11 235.49,-8.62 306.38,-9.01"/>
<polygon fill="#63b8ff" stroke="#63b8ff" points="306.46,-12.51 316.48,-9.09 306.51,-5.51 306.46,-12.51"/>
</a>
</g>
</g>
<!-- Node19&#45;&gt;Node3 -->
<g id="edge32_Node000019_Node000003" class="edge">
<title>Node19&#45;&gt;Node3</title>
<g id="a_edge32_Node000019_Node000003"><a xlink:title=" ">
<path fill="none" stroke="#63b8ff" d="M248.25,-158.97C261.68,-150.91 283.24,-137.98 299.36,-128.31"/>
<polygon fill="#63b8ff" stroke="#63b8ff" points="301.34,-131.2 308.11,-123.06 297.74,-125.2 301.34,-131.2"/>
</a>
</g>
</g>
<!-- Node19&#45;&gt;Node7 -->
<g id="edge30_Node000019_Node000007" class="edge">
<title>Node19&#45;&gt;Node7</title>
<g id="a_edge30_Node000019_Node000007"><a xlink:title=" ">
<path fill="none" stroke="#63b8ff" d="M237.16,-158.61C239.78,-146.2 246.32,-121.91 259.71,-106 271.69,-91.75 289.59,-80.83 304.41,-73.49"/>
<polygon fill="#63b8ff" stroke="#63b8ff" points="306.04,-76.6 313.62,-69.19 303.08,-70.26 306.04,-76.6"/>
</a>
</g>
</g>
<!-- Node19&#45;&gt;Node9 -->
<g id="edge31_Node000019_Node000009" class="edge">
<title>Node19&#45;&gt;Node9</title>
<g id="a_edge31_Node000019_Node000009"><a xlink:title=" ">
<path fill="none" stroke="#63b8ff" d="M199.49,-164.56C166.93,-160.96 119.74,-150.9 89.71,-123 77.74,-111.89 71.95,-93.9 69.18,-80.42"/>
<polygon fill="#63b8ff" stroke="#63b8ff" points="72.6,-79.69 67.49,-70.41 65.7,-80.85 72.6,-79.69"/>
</a>
</g>
</g>
<!-- Node19&#45;&gt;Node10 -->
<g id="edge33_Node000019_Node000010" class="edge">
<title>Node19&#45;&gt;Node10</title>
<g id="a_edge33_Node000019_Node000010"><a xlink:title=" ">
<path fill="none" stroke="#63b8ff" d="M225.97,-158.97C215.93,-151.22 200.04,-138.94 187.7,-129.41"/>
<polygon fill="#63b8ff" stroke="#63b8ff" points="189.54,-126.4 179.48,-123.06 185.26,-131.94 189.54,-126.4"/>
</a>
</g>
</g>
<!-- Node19&#45;&gt;Node14 -->
<g id="edge34_Node000019_Node000014" class="edge">
<title>Node19&#45;&gt;Node14</title>
<g id="a_edge34_Node000019_Node000014"><a xlink:title=" ">
<path fill="none" stroke="#63b8ff" d="M240.56,-158.66C249.24,-145.39 268.75,-118.73 292.71,-106 328.88,-86.78 439.7,-73.56 506.66,-67.08"/>
<polygon fill="#63b8ff" stroke="#63b8ff" points="507.39,-70.53 517.01,-66.1 506.73,-63.56 507.39,-70.53"/>
</a>
</g>
</g>
<!-- Node20&#45;&gt;Node14 -->
<g id="edge37_Node000020_Node000014" class="edge">
<title>Node20&#45;&gt;Node14</title>
<g id="a_edge37_Node000020_Node000014"><a xlink:title=" ">
<path fill="none" stroke="#63b8ff" d="M910.84,-158.82C891.88,-145.81 851.09,-119.51 812.71,-106 745.9,-82.48 664.55,-71.4 612.45,-66.38"/>
<polygon fill="#63b8ff" stroke="#63b8ff" points="612.71,-62.89 602.43,-65.45 612.07,-69.86 612.71,-62.89"/>
</a>
</g>
</g>
<!-- Node21 -->
<g id="Node000021" class="node">
<title>Node21</title>
<g id="a_Node000021"><a xlink:href="../../dc/d3c/bnode_8hpp.html" target="_top" xlink:title=" ">
<polygon fill="white" stroke="#666666" points="953.21,-123 898.21,-123 898.21,-106 953.21,-106 953.21,-123"/>
<text text-anchor="middle" x="925.71" y="-112.6" font-family="Helvetica,sans-Serif" font-size="8.00">bnode.hpp</text>
</a>
</g>
</g>
<!-- Node20&#45;&gt;Node21 -->
<g id="edge36_Node000020_Node000021" class="edge">
<title>Node20&#45;&gt;Node21</title>
<g id="a_edge36_Node000020_Node000021"><a xlink:title=" ">
<path fill="none" stroke="#63b8ff" d="M922.3,-158.97C922.83,-152.19 923.63,-141.97 924.32,-133.13"/>
<polygon fill="#63b8ff" stroke="#63b8ff" points="927.82,-133.3 925.11,-123.06 920.84,-132.75 927.82,-133.3"/>
</a>
</g>
</g>
</g>
</svg>
