<?xml version="1.0" encoding="UTF-8" standalone="no"?>
<!DOCTYPE svg PUBLIC "-//W3C//DTD SVG 1.1//EN"
 "http://www.w3.org/Graphics/SVG/1.1/DTD/svg11.dtd">
<!-- Generated by graphviz version 2.43.0 (0)
 -->
<!-- Title: bfs.hpp Pages: 1 -->
<svg width="883pt" height="237pt"
 viewBox="0.00 0.00 882.62 237.00" xmlns="http://www.w3.org/2000/svg" xmlns:xlink="http://www.w3.org/1999/xlink">
<g id="graph0" class="graph" transform="scale(1 1) rotate(0) translate(4 233)">
<title>bfs.hpp</title>
<!-- Node1 -->
<g id="Node000001" class="node">
<title>Node1</title>
<g id="a_Node000001"><a xlink:title=" ">
<polygon fill="#999999" stroke="#666666" points="474.74,-229 431.74,-229 431.74,-212 474.74,-212 474.74,-229"/>
<text text-anchor="middle" x="453.24" y="-218.6" font-family="Helvetica,sans-Serif" font-size="8.00">bfs.hpp</text>
</a>
</g>
</g>
<!-- Node2 -->
<g id="Node000002" class="node">
<title>Node2</title>
<g id="a_Node000002"><a xlink:title=" ">
<polygon fill="#e0e0e0" stroke="#999999" points="318.24,-17 276.24,-17 276.24,0 318.24,0 318.24,-17"/>
<text text-anchor="middle" x="297.24" y="-6.6" font-family="Helvetica,sans-Serif" font-size="8.00">cstddef</text>
</a>
</g>
</g>
<!-- Node1&#45;&gt;Node2 -->
<g id="edge1_Node000001_Node000002" class="edge">
<title>Node1&#45;&gt;Node2</title>
<g id="a_edge1_Node000001_Node000002"><a xlink:title=" ">
<path fill="none" stroke="#63b8ff" d="M431.53,-217.69C352.56,-210.68 82.27,-182.64 24.24,-123 2.18,-100.32 -9.38,-77 11.24,-53 43.8,-15.11 198.45,-9.84 265.79,-9.37"/>
<polygon fill="#63b8ff" stroke="#63b8ff" points="266.2,-12.87 276.19,-9.33 266.18,-5.87 266.2,-12.87"/>
</a>
</g>
</g>
<!-- Node3 -->
<g id="Node000003" class="node">
<title>Node3</title>
<g id="a_Node000003"><a xlink:title=" ">
<polygon fill="#e0e0e0" stroke="#999999" points="506.24,-123 468.24,-123 468.24,-106 506.24,-106 506.24,-123"/>
<text text-anchor="middle" x="487.24" y="-112.6" font-family="Helvetica,sans-Serif" font-size="8.00">vector</text>
</a>
</g>
</g>
<!-- Node1&#45;&gt;Node3 -->
<g id="edge2_Node000001_Node000003" class="edge">
<title>Node1&#45;&gt;Node3</title>
<g id="a_edge2_Node000001_Node000003"><a xlink:title=" ">
<path fill="none" stroke="#63b8ff" d="M460.72,-211.95C468.21,-203.84 479.31,-190.19 484.24,-176 489,-162.3 489.51,-145.8 488.96,-133.5"/>
<polygon fill="#63b8ff" stroke="#63b8ff" points="492.42,-132.93 488.21,-123.21 485.44,-133.44 492.42,-132.93"/>
</a>
</g>
</g>
<!-- Node4 -->
<g id="Node000004" class="node">
<title>Node4</title>
<g id="a_Node000004"><a xlink:href="../../d8/d62/existence__set_8hpp.html" target="_top" xlink:title=" ">
<polygon fill="white" stroke="#666666" points="475.74,-176 328.74,-176 328.74,-159 475.74,-159 475.74,-176"/>
<text text-anchor="middle" x="402.24" y="-165.6" font-family="Helvetica,sans-Serif" font-size="8.00">../types/containers/existence_set.hpp</text>
</a>
</g>
</g>
<!-- Node1&#45;&gt;Node4 -->
<g id="edge3_Node000001_Node000004" class="edge">
<title>Node1&#45;&gt;Node4</title>
<g id="a_edge3_Node000001_Node000004"><a xlink:title=" ">
<path fill="none" stroke="#63b8ff" d="M445.72,-211.97C438.19,-204.44 426.39,-192.65 416.99,-183.25"/>
<polygon fill="#63b8ff" stroke="#63b8ff" points="419.35,-180.65 409.8,-176.06 414.4,-185.6 419.35,-180.65"/>
</a>
</g>
</g>
<!-- Node9 -->
<g id="Node000009" class="node">
<title>Node9</title>
<g id="a_Node000009"><a xlink:href="../../df/d93/utils_8hpp.html" target="_top" xlink:title=" ">
<polygon fill="white" stroke="#666666" points="259.74,-123 184.74,-123 184.74,-106 259.74,-106 259.74,-123"/>
<text text-anchor="middle" x="222.24" y="-112.6" font-family="Helvetica,sans-Serif" font-size="8.00">../../utils/utils.hpp</text>
</a>
</g>
</g>
<!-- Node1&#45;&gt;Node9 -->
<g id="edge26_Node000001_Node000009" class="edge">
<title>Node1&#45;&gt;Node9</title>
<g id="a_edge26_Node000001_Node000009"><a xlink:title=" ">
<path fill="none" stroke="#63b8ff" d="M431.56,-218.45C380.79,-215.52 256.5,-205.43 229.24,-176 218.8,-164.73 217.96,-146.76 219.18,-133.33"/>
<polygon fill="#63b8ff" stroke="#63b8ff" points="222.66,-133.74 220.53,-123.36 215.72,-132.8 222.66,-133.74"/>
</a>
</g>
</g>
<!-- Node13 -->
<g id="Node000013" class="node">
<title>Node13</title>
<g id="a_Node000013"><a xlink:href="../../d7/d65/intrinsics_8hpp.html" target="_top" xlink:title=" ">
<polygon fill="#fff0f0" stroke="red" points="576.74,-70 491.74,-70 491.74,-53 576.74,-53 576.74,-70"/>
<text text-anchor="middle" x="534.24" y="-59.6" font-family="Helvetica,sans-Serif" font-size="8.00">../utils/intrinsics.hpp</text>
</a>
</g>
</g>
<!-- Node1&#45;&gt;Node13 -->
<g id="edge37_Node000001_Node000013" class="edge">
<title>Node1&#45;&gt;Node13</title>
<g id="a_edge37_Node000001_Node000013"><a xlink:title=" ">
<path fill="none" stroke="#63b8ff" d="M474.78,-218.69C554.1,-215.52 826.88,-202.73 854.24,-176 876.61,-154.15 881.84,-129.52 861.24,-106 843.48,-85.72 674.94,-71.74 587.04,-65.76"/>
<polygon fill="#63b8ff" stroke="#63b8ff" points="587.2,-62.27 576.99,-65.09 586.73,-69.25 587.2,-62.27"/>
</a>
</g>
</g>
<!-- Node16 -->
<g id="Node000016" class="node">
<title>Node16</title>
<g id="a_Node000016"><a xlink:href="../../d7/ded/queue_8hpp.html" target="_top" xlink:title=" ">
<polygon fill="white" stroke="#666666" points="845.24,-176 723.24,-176 723.24,-159 845.24,-159 845.24,-176"/>
<text text-anchor="middle" x="784.24" y="-165.6" font-family="Helvetica,sans-Serif" font-size="8.00">../types/containers/queue.hpp</text>
</a>
</g>
</g>
<!-- Node1&#45;&gt;Node16 -->
<g id="edge21_Node000001_Node000016" class="edge">
<title>Node1&#45;&gt;Node16</title>
<g id="a_edge21_Node000001_Node000016"><a xlink:title=" ">
<path fill="none" stroke="#63b8ff" d="M474.96,-216.15C525.1,-208.43 650.34,-189.13 725.17,-177.6"/>
<polygon fill="#63b8ff" stroke="#63b8ff" points="726.03,-181.01 735.38,-176.03 724.97,-174.09 726.03,-181.01"/>
</a>
</g>
</g>
<!-- Node18 -->
<g id="Node000018" class="node">
<title>Node18</title>
<g id="a_Node000018"><a xlink:href="../../d2/d1c/solver_8hpp.html" target="_top" xlink:title=" ">
<polygon fill="white" stroke="#666666" points="310.24,-176 238.24,-176 238.24,-159 310.24,-159 310.24,-176"/>
<text text-anchor="middle" x="274.24" y="-165.6" font-family="Helvetica,sans-Serif" font-size="8.00">base/solver.hpp</text>
</a>
</g>
</g>
<!-- Node1&#45;&gt;Node18 -->
<g id="edge27_Node000001_Node000018" class="edge">
<title>Node1&#45;&gt;Node18</title>
<g id="a_edge27_Node000001_Node000018"><a xlink:title=" ">
<path fill="none" stroke="#63b8ff" d="M431.65,-213.35C401.65,-204.8 346.95,-189.21 310.59,-178.86"/>
<polygon fill="#63b8ff" stroke="#63b8ff" points="311.44,-175.46 300.86,-176.08 309.52,-182.19 311.44,-175.46"/>
</a>
</g>
</g>
<!-- Node19 -->
<g id="Node000019" class="node">
<title>Node19</title>
<g id="a_Node000019"><a xlink:href="../../d0/def/unmanaged__node_8hpp.html" target="_top" xlink:title=" ">
<polygon fill="white" stroke="#666666" points="649.74,-176 532.74,-176 532.74,-159 649.74,-159 649.74,-176"/>
<text text-anchor="middle" x="591.24" y="-165.6" font-family="Helvetica,sans-Serif" font-size="8.00">base/unmanaged_node.hpp</text>
</a>
</g>
</g>
<!-- Node1&#45;&gt;Node19 -->
<g id="edge34_Node000001_Node000019" class="edge">
<title>Node1&#45;&gt;Node19</title>
<g id="a_edge34_Node000001_Node000019"><a xlink:title=" ">
<path fill="none" stroke="#63b8ff" d="M473.61,-211.97C496.74,-203.42 534.72,-189.39 561.25,-179.59"/>
<polygon fill="#63b8ff" stroke="#63b8ff" points="562.63,-182.81 570.8,-176.06 560.21,-176.24 562.63,-182.81"/>
</a>
</g>
</g>
<!-- Node4&#45;&gt;Node2 -->
<g id="edge4_Node000004_Node000002" class="edge">
<title>Node4&#45;&gt;Node2</title>
<g id="a_edge4_Node000004_Node000002"><a xlink:title=" ">
<path fill="none" stroke="#63b8ff" d="M400.1,-158.97C394.4,-139.8 377.37,-88.19 350.24,-53 341.28,-41.36 328.63,-30.83 317.95,-23.05"/>
<polygon fill="#63b8ff" stroke="#63b8ff" points="319.76,-20.04 309.55,-17.19 315.75,-25.79 319.76,-20.04"/>
</a>
</g>
</g>
<!-- Node4&#45;&gt;Node3 -->
<g id="edge9_Node000004_Node000003" class="edge">
<title>Node4&#45;&gt;Node3</title>
<g id="a_edge9_Node000004_Node000003"><a xlink:title=" ">
<path fill="none" stroke="#63b8ff" d="M414.79,-158.97C428.22,-150.91 449.78,-137.98 465.89,-128.31"/>
<polygon fill="#63b8ff" stroke="#63b8ff" points="467.88,-131.2 474.65,-123.06 464.28,-125.2 467.88,-131.2"/>
</a>
</g>
</g>
<!-- Node5 -->
<g id="Node000005" class="node">
<title>Node5</title>
<g id="a_Node000005"><a xlink:title=" ">
<polygon fill="#e0e0e0" stroke="#999999" points="447.24,-70 397.24,-70 397.24,-53 447.24,-53 447.24,-70"/>
<text text-anchor="middle" x="422.24" y="-59.6" font-family="Helvetica,sans-Serif" font-size="8.00">functional</text>
</a>
</g>
</g>
<!-- Node4&#45;&gt;Node5 -->
<g id="edge5_Node000004_Node000005" class="edge">
<title>Node4&#45;&gt;Node5</title>
<g id="a_edge5_Node000004_Node000005"><a xlink:title=" ">
<path fill="none" stroke="#63b8ff" d="M403.75,-158.68C406.93,-142.11 414.44,-103.11 418.84,-80.18"/>
<polygon fill="#63b8ff" stroke="#63b8ff" points="422.33,-80.61 420.78,-70.12 415.45,-79.28 422.33,-80.61"/>
</a>
</g>
</g>
<!-- Node6 -->
<g id="Node000006" class="node">
<title>Node6</title>
<g id="a_Node000006"><a xlink:title=" ">
<polygon fill="#e0e0e0" stroke="#999999" points="341.24,-70 307.24,-70 307.24,-53 341.24,-53 341.24,-70"/>
<text text-anchor="middle" x="324.24" y="-59.6" font-family="Helvetica,sans-Serif" font-size="8.00">limits</text>
</a>
</g>
</g>
<!-- Node4&#45;&gt;Node6 -->
<g id="edge6_Node000004_Node000006" class="edge">
<title>Node4&#45;&gt;Node6</title>
<g id="a_edge6_Node000004_Node000006"><a xlink:title=" ">
<path fill="none" stroke="#63b8ff" d="M390.1,-158.81C378.56,-150.99 361.35,-137.92 350.24,-123 340.53,-109.95 333.58,-92.71 329.32,-79.98"/>
<polygon fill="#63b8ff" stroke="#63b8ff" points="332.58,-78.67 326.28,-70.16 325.9,-80.75 332.58,-78.67"/>
</a>
</g>
</g>
<!-- Node7 -->
<g id="Node000007" class="node">
<title>Node7</title>
<g id="a_Node000007"><a xlink:title=" ">
<polygon fill="#e0e0e0" stroke="#999999" points="718.24,-123 636.24,-123 636.24,-106 718.24,-106 718.24,-123"/>
<text text-anchor="middle" x="677.24" y="-112.6" font-family="Helvetica,sans-Serif" font-size="8.00">memory_resource</text>
</a>
</g>
</g>
<!-- Node4&#45;&gt;Node7 -->
<g id="edge7_Node000004_Node000007" class="edge">
<title>Node4&#45;&gt;Node7</title>
<g id="a_edge7_Node000004_Node000007"><a xlink:title=" ">
<path fill="none" stroke="#63b8ff" d="M442.82,-158.97C491.67,-149.92 573.71,-134.7 626.65,-124.88"/>
<polygon fill="#63b8ff" stroke="#63b8ff" points="627.31,-128.32 636.5,-123.06 626.03,-121.44 627.31,-128.32"/>
</a>
</g>
</g>
<!-- Node8 -->
<g id="Node000008" class="node">
<title>Node8</title>
<g id="a_Node000008"><a xlink:title=" ">
<polygon fill="#e0e0e0" stroke="#999999" points="86.74,-70 33.74,-70 33.74,-53 86.74,-53 86.74,-70"/>
<text text-anchor="middle" x="60.24" y="-59.6" font-family="Helvetica,sans-Serif" font-size="8.00">type_traits</text>
</a>
</g>
</g>
<!-- Node4&#45;&gt;Node8 -->
<g id="edge8_Node000004_Node000008" class="edge">
<title>Node4&#45;&gt;Node8</title>
<g id="a_edge8_Node000004_Node000008"><a xlink:title=" ">
<path fill="none" stroke="#63b8ff" d="M335.33,-158.96C289.39,-152.51 227.51,-141.3 175.24,-123 140.22,-110.74 102.72,-89.25 80.39,-75.46"/>
<polygon fill="#63b8ff" stroke="#63b8ff" points="82.13,-72.42 71.8,-70.07 78.41,-78.35 82.13,-72.42"/>
</a>
</g>
</g>
<!-- Node4&#45;&gt;Node9 -->
<g id="edge10_Node000004_Node000009" class="edge">
<title>Node4&#45;&gt;Node9</title>
<g id="a_edge10_Node000004_Node000009"><a xlink:title=" ">
<path fill="none" stroke="#63b8ff" d="M375.68,-158.97C344.71,-150.2 293.34,-135.64 258.66,-125.82"/>
<polygon fill="#63b8ff" stroke="#63b8ff" points="259.49,-122.41 248.91,-123.06 257.58,-129.15 259.49,-122.41"/>
</a>
</g>
</g>
<!-- Node4&#45;&gt;Node13 -->
<g id="edge20_Node000004_Node000013" class="edge">
<title>Node4&#45;&gt;Node13</title>
<g id="a_edge20_Node000004_Node000013"><a xlink:title=" ">
<path fill="none" stroke="#63b8ff" d="M446.88,-158.96C470.12,-152.89 497.33,-142.08 515.24,-123 526.08,-111.45 530.74,-93.78 532.74,-80.51"/>
<polygon fill="#63b8ff" stroke="#63b8ff" points="536.26,-80.58 533.9,-70.25 529.3,-79.79 536.26,-80.58"/>
</a>
</g>
</g>
<!-- Node9&#45;&gt;Node2 -->
<g id="edge13_Node000009_Node000002" class="edge">
<title>Node9&#45;&gt;Node2</title>
<g id="a_edge13_Node000009_Node000002"><a xlink:title=" ">
<path fill="none" stroke="#63b8ff" d="M223.67,-105.82C226.19,-93.69 232.36,-69.78 244.24,-53 252.63,-41.16 265.04,-30.73 275.75,-23.06"/>
<polygon fill="#63b8ff" stroke="#63b8ff" points="277.92,-25.81 284.21,-17.29 273.98,-20.03 277.92,-25.81"/>
</a>
</g>
</g>
<!-- Node9&#45;&gt;Node5 -->
<g id="edge14_Node000009_Node000005" class="edge">
<title>Node9&#45;&gt;Node5</title>
<g id="a_edge14_Node000009_Node000005"><a xlink:title=" ">
<path fill="none" stroke="#63b8ff" d="M251.76,-105.97C287.86,-96.77 348.92,-81.2 387.33,-71.4"/>
<polygon fill="#63b8ff" stroke="#63b8ff" points="388.22,-74.79 397.05,-68.93 386.49,-68 388.22,-74.79"/>
</a>
</g>
</g>
<!-- Node9&#45;&gt;Node6 -->
<g id="edge15_Node000009_Node000006" class="edge">
<title>Node9&#45;&gt;Node6</title>
<g id="a_edge15_Node000009_Node000006"><a xlink:title=" ">
<path fill="none" stroke="#63b8ff" d="M237.29,-105.97C253.79,-97.73 280.5,-84.37 299.97,-74.64"/>
<polygon fill="#63b8ff" stroke="#63b8ff" points="301.75,-77.66 309.13,-70.06 298.62,-71.4 301.75,-77.66"/>
</a>
</g>
</g>
<!-- Node9&#45;&gt;Node8 -->
<g id="edge17_Node000009_Node000008" class="edge">
<title>Node9&#45;&gt;Node8</title>
<g id="a_edge17_Node000009_Node000008"><a xlink:title=" ">
<path fill="none" stroke="#63b8ff" d="M198.34,-105.97C170.7,-97.27 125.02,-82.89 93.82,-73.07"/>
<polygon fill="#63b8ff" stroke="#63b8ff" points="94.84,-69.72 84.25,-70.06 92.73,-76.4 94.84,-69.72"/>
</a>
</g>
</g>
<!-- Node10 -->
<g id="Node000010" class="node">
<title>Node10</title>
<g id="a_Node000010"><a xlink:title=" ">
<polygon fill="#e0e0e0" stroke="#999999" points="288.74,-70 253.74,-70 253.74,-53 288.74,-53 288.74,-70"/>
<text text-anchor="middle" x="271.24" y="-59.6" font-family="Helvetica,sans-Serif" font-size="8.00">array</text>
</a>
</g>
</g>
<!-- Node9&#45;&gt;Node10 -->
<g id="edge11_Node000009_Node000010" class="edge">
<title>Node9&#45;&gt;Node10</title>
<g id="a_edge11_Node000009_Node000010"><a xlink:title=" ">
<path fill="none" stroke="#63b8ff" d="M229.47,-105.97C236.64,-98.52 247.82,-86.89 256.8,-77.53"/>
<polygon fill="#63b8ff" stroke="#63b8ff" points="259.58,-79.69 263.98,-70.06 254.53,-74.84 259.58,-79.69"/>
</a>
</g>
</g>
<!-- Node11 -->
<g id="Node000011" class="node">
<title>Node11</title>
<g id="a_Node000011"><a xlink:title=" ">
<polygon fill="#e0e0e0" stroke="#999999" points="143.24,-70 105.24,-70 105.24,-53 143.24,-53 143.24,-70"/>
<text text-anchor="middle" x="124.24" y="-59.6" font-family="Helvetica,sans-Serif" font-size="8.00">cmath</text>
</a>
</g>
</g>
<!-- Node9&#45;&gt;Node11 -->
<g id="edge12_Node000009_Node000011" class="edge">
<title>Node9&#45;&gt;Node11</title>
<g id="a_edge12_Node000009_Node000011"><a xlink:title=" ">
<path fill="none" stroke="#63b8ff" d="M207.78,-105.97C192.01,-97.76 166.51,-84.49 147.82,-74.77"/>
<polygon fill="#63b8ff" stroke="#63b8ff" points="149.25,-71.57 138.76,-70.06 146.02,-77.78 149.25,-71.57"/>
</a>
</g>
</g>
<!-- Node12 -->
<g id="Node000012" class="node">
<title>Node12</title>
<g id="a_Node000012"><a xlink:title=" ">
<polygon fill="#e0e0e0" stroke="#999999" points="197.24,-70 161.24,-70 161.24,-53 197.24,-53 197.24,-70"/>
<text text-anchor="middle" x="179.24" y="-59.6" font-family="Helvetica,sans-Serif" font-size="8.00">string</text>
</a>
</g>
</g>
<!-- Node9&#45;&gt;Node12 -->
<g id="edge16_Node000009_Node000012" class="edge">
<title>Node9&#45;&gt;Node12</title>
<g id="a_edge16_Node000009_Node000012"><a xlink:title=" ">
<path fill="none" stroke="#63b8ff" d="M215.9,-105.97C209.68,-98.59 200,-87.12 192.16,-77.81"/>
<polygon fill="#63b8ff" stroke="#63b8ff" points="194.74,-75.45 185.62,-70.06 189.39,-79.96 194.74,-75.45"/>
</a>
</g>
</g>
<!-- Node9&#45;&gt;Node13 -->
<g id="edge18_Node000009_Node000013" class="edge">
<title>Node9&#45;&gt;Node13</title>
<g id="a_edge18_Node000009_Node000013"><a xlink:title=" ">
<path fill="none" stroke="#63b8ff" d="M259.88,-107.35C315.23,-98.3 418.79,-81.37 481.64,-71.1"/>
<polygon fill="#63b8ff" stroke="#63b8ff" points="482.44,-74.52 491.74,-69.45 481.31,-67.61 482.44,-74.52"/>
</a>
</g>
</g>
<!-- Node13&#45;&gt;Node2 -->
<g id="edge19_Node000013_Node000002" class="edge">
<title>Node13&#45;&gt;Node2</title>
<g id="a_edge19_Node000013_Node000002"><a xlink:title=" ">
<path fill="none" stroke="#63b8ff" d="M499.27,-52.97C453.02,-43.02 372.23,-25.64 328.13,-16.15"/>
<polygon fill="#63b8ff" stroke="#63b8ff" points="328.78,-12.71 318.26,-14.02 327.3,-19.55 328.78,-12.71"/>
</a>
</g>
</g>
<!-- Node16&#45;&gt;Node2 -->
<g id="edge22_Node000016_Node000002" class="edge">
<title>Node16&#45;&gt;Node2</title>
<g id="a_edge22_Node000016_Node000002"><a xlink:title=" ">
<path fill="none" stroke="#63b8ff" d="M808.68,-158.87C837.74,-148.56 880.09,-128.8 861.24,-106 792.81,-23.17 437.32,-11.42 328.76,-9.77"/>
<polygon fill="#63b8ff" stroke="#63b8ff" points="328.52,-6.26 318.47,-9.63 328.42,-13.26 328.52,-6.26"/>
</a>
</g>
</g>
<!-- Node16&#45;&gt;Node7 -->
<g id="edge24_Node000016_Node000007" class="edge">
<title>Node16&#45;&gt;Node7</title>
<g id="a_edge24_Node000016_Node000007"><a xlink:title=" ">
<path fill="none" stroke="#63b8ff" d="M768.46,-158.97C750.99,-150.65 722.62,-137.13 702.15,-127.37"/>
<polygon fill="#63b8ff" stroke="#63b8ff" points="703.63,-124.2 693.1,-123.06 700.62,-130.52 703.63,-124.2"/>
</a>
</g>
</g>
<!-- Node16&#45;&gt;Node13 -->
<g id="edge25_Node000016_Node000013" class="edge">
<title>Node16&#45;&gt;Node13</title>
<g id="a_edge25_Node000016_Node000013"><a xlink:title=" ">
<path fill="none" stroke="#63b8ff" d="M781.43,-158.77C776.23,-145.68 763.84,-119.28 744.24,-106 697.49,-74.32 632.41,-64.91 587.14,-62.5"/>
<polygon fill="#63b8ff" stroke="#63b8ff" points="587.09,-59 576.94,-62.06 586.78,-65.99 587.09,-59"/>
</a>
</g>
</g>
<!-- Node17 -->
<g id="Node000017" class="node">
<title>Node17</title>
<g id="a_Node000017"><a xlink:title=" ">
<polygon fill="#e0e0e0" stroke="#999999" points="851.74,-123 812.74,-123 812.74,-106 851.74,-106 851.74,-123"/>
<text text-anchor="middle" x="832.24" y="-112.6" font-family="Helvetica,sans-Serif" font-size="8.00">deque</text>
</a>
</g>
</g>
<!-- Node16&#45;&gt;Node17 -->
<g id="edge23_Node000016_Node000017" class="edge">
<title>Node16&#45;&gt;Node17</title>
<g id="a_edge23_Node000016_Node000017"><a xlink:title=" ">
<path fill="none" stroke="#63b8ff" d="M791.33,-158.97C798.35,-151.52 809.29,-139.89 818.1,-130.53"/>
<polygon fill="#63b8ff" stroke="#63b8ff" points="820.83,-132.74 825.13,-123.06 815.73,-127.94 820.83,-132.74"/>
</a>
</g>
</g>
<!-- Node18&#45;&gt;Node2 -->
<g id="edge28_Node000018_Node000002" class="edge">
<title>Node18&#45;&gt;Node2</title>
<g id="a_edge28_Node000018_Node000002"><a xlink:title=" ">
<path fill="none" stroke="#63b8ff" d="M238.15,-163.35C154.96,-154.78 -38.49,-126.52 24.24,-53 55.01,-16.95 200.8,-10.63 265.82,-9.63"/>
<polygon fill="#63b8ff" stroke="#63b8ff" points="265.93,-13.13 275.89,-9.51 265.85,-6.13 265.93,-13.13"/>
</a>
</g>
</g>
<!-- Node18&#45;&gt;Node3 -->
<g id="edge31_Node000018_Node000003" class="edge">
<title>Node18&#45;&gt;Node3</title>
<g id="a_edge31_Node000018_Node000003"><a xlink:title=" ">
<path fill="none" stroke="#63b8ff" d="M305.67,-158.97C346.78,-149.13 418.26,-132.02 458.17,-122.46"/>
<polygon fill="#63b8ff" stroke="#63b8ff" points="459.16,-125.82 468.07,-120.09 457.53,-119.02 459.16,-125.82"/>
</a>
</g>
</g>
<!-- Node18&#45;&gt;Node6 -->
<g id="edge29_Node000018_Node000006" class="edge">
<title>Node18&#45;&gt;Node6</title>
<g id="a_edge29_Node000018_Node000006"><a xlink:title=" ">
<path fill="none" stroke="#63b8ff" d="M278,-158.68C286.08,-141.89 305.24,-102.04 316.19,-79.25"/>
<polygon fill="#63b8ff" stroke="#63b8ff" points="319.4,-80.65 320.58,-70.12 313.09,-77.62 319.4,-80.65"/>
</a>
</g>
</g>
<!-- Node18&#45;&gt;Node8 -->
<g id="edge30_Node000018_Node000008" class="edge">
<title>Node18&#45;&gt;Node8</title>
<g id="a_edge30_Node000018_Node000008"><a xlink:title=" ">
<path fill="none" stroke="#63b8ff" d="M238.21,-162.68C204.15,-157.74 152.68,-146.77 114.24,-123 95.95,-111.69 80.26,-92.34 70.58,-78.57"/>
<polygon fill="#63b8ff" stroke="#63b8ff" points="73.37,-76.44 64.89,-70.09 67.56,-80.34 73.37,-76.44"/>
</a>
</g>
</g>
<!-- Node18&#45;&gt;Node9 -->
<g id="edge32_Node000018_Node000009" class="edge">
<title>Node18&#45;&gt;Node9</title>
<g id="a_edge32_Node000018_Node000009"><a xlink:title=" ">
<path fill="none" stroke="#63b8ff" d="M266.57,-158.97C258.89,-151.44 246.87,-139.65 237.28,-130.25"/>
<polygon fill="#63b8ff" stroke="#63b8ff" points="239.54,-127.56 229.95,-123.06 234.64,-132.56 239.54,-127.56"/>
</a>
</g>
</g>
<!-- Node18&#45;&gt;Node13 -->
<g id="edge33_Node000018_Node000013" class="edge">
<title>Node18&#45;&gt;Node13</title>
<g id="a_edge33_Node000018_Node000013"><a xlink:title=" ">
<path fill="none" stroke="#63b8ff" d="M293.36,-158.85C338.64,-140.74 452.62,-95.15 505.93,-73.83"/>
<polygon fill="#63b8ff" stroke="#63b8ff" points="507.46,-76.98 515.45,-70.02 504.86,-70.48 507.46,-76.98"/>
</a>
</g>
</g>
<!-- Node19&#45;&gt;Node13 -->
<g id="edge36_Node000019_Node000013" class="edge">
<title>Node19&#45;&gt;Node13</title>
<g id="a_edge36_Node000019_Node000013"><a xlink:title=" ">
<path fill="none" stroke="#63b8ff" d="M650.19,-160.21C697.48,-152.76 752.18,-137.18 727.24,-106 709.99,-84.42 638.17,-72.78 587.2,-67.11"/>
<polygon fill="#63b8ff" stroke="#63b8ff" points="587.3,-63.6 576.99,-66.03 586.56,-70.56 587.3,-63.6"/>
</a>
</g>
</g>
<!-- Node20 -->
<g id="Node000020" class="node">
<title>Node20</title>
<g id="a_Node000020"><a xlink:href="../../dc/d3c/bnode_8hpp.html" target="_top" xlink:title=" ">
<polygon fill="white" stroke="#666666" points="617.74,-123 562.74,-123 562.74,-106 617.74,-106 617.74,-123"/>
<text text-anchor="middle" x="590.24" y="-112.6" font-family="Helvetica,sans-Serif" font-size="8.00">bnode.hpp</text>
</a>
</g>
</g>
<!-- Node19&#45;&gt;Node20 -->
<g id="edge35_Node000019_Node000020" class="edge">
<title>Node19&#45;&gt;Node20</title>
<g id="a_edge35_Node000019_Node000020"><a xlink:title=" ">
<path fill="none" stroke="#63b8ff" d="M591.1,-158.97C590.96,-152.19 590.76,-141.97 590.59,-133.13"/>
<polygon fill="#63b8ff" stroke="#63b8ff" points="594.09,-132.99 590.39,-123.06 587.09,-133.12 594.09,-132.99"/>
</a>
</g>
</g>
</g>
</svg>
