<?xml version="1.0" encoding="UTF-8" standalone="no"?>
<!DOCTYPE svg PUBLIC "-//W3C//DTD SVG 1.1//EN"
 "http://www.w3.org/Graphics/SVG/1.1/DTD/svg11.dtd">
<!-- Generated by graphviz version 2.42.4 (0)
 -->
<!-- Title: monotonic_pool.hpp Pages: 1 -->
<svg width="122pt" height="131pt"
 viewBox="0.00 0.00 121.50 131.00" xmlns="http://www.w3.org/2000/svg" xmlns:xlink="http://www.w3.org/1999/xlink">
<g id="graph0" class="graph" transform="scale(1 1) rotate(0) translate(4 127)">
<title>monotonic_pool.hpp</title>
<!-- Node1 -->
<g id="Node000001" class="node">
<title>Node1</title>
<g id="a_Node000001"><a xlink:title=" ">
<polygon fill="#999999" stroke="#666666" points="100,-123 0,-123 0,-106 100,-106 100,-123"/>
<text text-anchor="middle" x="50" y="-112.6" font-family="Helvetica,sans-Serif" font-size="8.00">monotonic_pool.hpp</text>
</a>
</g>
</g>
<!-- Node2 -->
<g id="Node000002" class="node">
<title>Node2</title>
<g id="a_Node000002"><a xlink:href="../../d9/d96/chdr_8hpp.html" target="_top" xlink:title=" ">
<polygon fill="white" stroke="#666666" points="76,-17 24,-17 24,0 76,0 76,-17"/>
<text text-anchor="middle" x="50" y="-6.6" font-family="Helvetica,sans-Serif" font-size="8.00">chdr.hpp</text>
</a>
</g>
</g>
<!-- Node1&#45;&gt;Node2 -->
<g id="edge1_Node000001_Node000002" class="edge">
<title>Node1&#45;&gt;Node2</title>
<g id="a_edge1_Node000001_Node000002"><a xlink:title=" ">
<path fill="none" stroke="#63b8ff" d="M44.55,-96.08C42.35,-88.21 40.09,-78.72 39,-70 36.63,-50.93 43.03,-28.77 47.04,-17.29"/>
<polygon fill="#63b8ff" stroke="#63b8ff" points="41.26,-97.32 47.47,-105.91 47.97,-95.33 41.26,-97.32"/>
</a>
</g>
</g>
<!-- Node3 -->
<g id="Node000003" class="node">
<title>Node3</title>
<g id="a_Node000003"><a xlink:href="../../d3/d11/dijkstra_8hpp.html" target="_top" xlink:title=" ">
<polygon fill="white" stroke="#666666" points="113.5,-70 48.5,-70 48.5,-53 113.5,-53 113.5,-70"/>
<text text-anchor="middle" x="81" y="-59.6" font-family="Helvetica,sans-Serif" font-size="8.00">dijkstra.hpp</text>
</a>
</g>
</g>
<!-- Node1&#45;&gt;Node3 -->
<g id="edge2_Node000001_Node000003" class="edge">
<title>Node1&#45;&gt;Node3</title>
<g id="a_edge2_Node000001_Node000003"><a xlink:title=" ">
<path fill="none" stroke="#63b8ff" d="M59.81,-97.36C65.36,-88.23 72.05,-77.22 76.41,-70.06"/>
<polygon fill="#63b8ff" stroke="#63b8ff" points="56.78,-95.61 54.57,-105.97 62.76,-99.25 56.78,-95.61"/>
</a>
</g>
</g>
<!-- Node3&#45;&gt;Node2 -->
<g id="edge3_Node000003_Node000002" class="edge">
<title>Node3&#45;&gt;Node2</title>
<g id="a_edge3_Node000003_Node000002"><a xlink:title=" ">
<path fill="none" stroke="#63b8ff" d="M71.19,-44.36C65.64,-35.23 58.95,-24.22 54.59,-17.06"/>
<polygon fill="#63b8ff" stroke="#63b8ff" points="68.24,-46.25 76.43,-52.97 74.22,-42.61 68.24,-46.25"/>
</a>
</g>
</g>
</g>
</svg>
