<?xml version="1.0" encoding="UTF-8" standalone="no"?>
<!DOCTYPE svg PUBLIC "-//W3C//DTD SVG 1.1//EN"
 "http://www.w3.org/Graphics/SVG/1.1/DTD/svg11.dtd">
<!-- Generated by graphviz version 2.43.0 (0)
 -->
<!-- Title: graph&lt; index_t, scalar_t &gt; Pages: 1 -->
<svg width="567pt" height="77pt"
 viewBox="0.00 0.00 567.00 77.00" xmlns="http://www.w3.org/2000/svg" xmlns:xlink="http://www.w3.org/1999/xlink">
<g id="graph0" class="graph" transform="scale(1 1) rotate(0) translate(4 73)">
<title>graph&lt; index_t, scalar_t &gt;</title>
<!-- Node1 -->
<g id="Node000001" class="node">
<title>Node1</title>
<g id="a_Node000001"><a xlink:title="Graph structure for use in maze&#45;solving algorithms.">
<polygon fill="#999999" stroke="transparent" points="559,-69 0,-69 0,0 559,0 559,-69"/>
<text text-anchor="start" x="233.5" y="-58.1" font-family="Helvetica,sans-Serif" font-size="8.00">graph&lt; index_t, scalar_t &gt;</text>
<text text-anchor="start" x="278.5" y="-45.1" font-family="Helvetica,sans-Serif" font-size="8.00"> </text>
<text text-anchor="start" x="4.5" y="-32.1" font-family="Helvetica,sans-Serif" font-size="8.00">*</text>
<text text-anchor="start" x="12.5" y="-32.1" font-family="Helvetica,sans-Serif" font-size="8.00">graph(std::pmr::memory_resource *_resource=std::pmr::get_default_resource()) noexcept</text>
<text text-anchor="start" x="4.5" y="-19.1" font-family="Helvetica,sans-Serif" font-size="8.00">*</text>
<text text-anchor="start" x="12.5" y="-19.1" font-family="Helvetica,sans-Serif" font-size="8.00">graph(const std::initializer_list&lt; std::initializer_list&lt; edge_t &gt; &gt; &amp;_adjacency_list, std::pmr::memory_resource *_resource=std::pmr::get_default_resource())</text>
<text text-anchor="start" x="4.5" y="-6.1" font-family="Helvetica,sans-Serif" font-size="8.00">*</text>
<text text-anchor="start" x="12.5" y="-6.1" font-family="Helvetica,sans-Serif" font-size="8.00">graph(const grid&lt; coord_t, weight_t &gt; &amp;_grid, std::pmr::memory_resource *_resource=std::pmr::get_default_resource())</text>
<polygon fill="#666666" stroke="#666666" points="0.5,-53.5 0.5,-53.5 559.5,-53.5 559.5,-53.5 0.5,-53.5"/>
<polygon fill="#666666" stroke="#666666" points="0.5,-40.5 0.5,-40.5 559.5,-40.5 559.5,-40.5 0.5,-40.5"/>
<polygon fill="none" stroke="#666666" points="0,0 0,-69 559,-69 559,0 0,0"/>
</a>
</g>
</g>
</g>
</svg>
