<?xml version="1.0" encoding="UTF-8" standalone="no"?>
<!DOCTYPE svg PUBLIC "-//W3C//DTD SVG 1.1//EN"
 "http://www.w3.org/Graphics/SVG/1.1/DTD/svg11.dtd">
<!-- Generated by graphviz version 2.43.0 (0)
 -->
<!-- Title: heuristics.hpp Pages: 1 -->
<svg width="137pt" height="131pt"
 viewBox="0.00 0.00 136.50 131.00" xmlns="http://www.w3.org/2000/svg" xmlns:xlink="http://www.w3.org/1999/xlink">
<g id="graph0" class="graph" transform="scale(1 1) rotate(0) translate(4 127)">
<title>heuristics.hpp</title>
<!-- Node1 -->
<g id="Node000001" class="node">
<title>Node1</title>
<g id="a_Node000001"><a xlink:title=" ">
<polygon fill="#999999" stroke="#666666" points="74,-123 0,-123 0,-106 74,-106 74,-123"/>
<text text-anchor="middle" x="37" y="-112.6" font-family="Helvetica,sans-Serif" font-size="8.00">heuristics.hpp</text>
</a>
</g>
</g>
<!-- Node2 -->
<g id="Node000002" class="node">
<title>Node2</title>
<g id="a_Node000002"><a xlink:href="../../d9/d96/chdr_8hpp.html" target="_top" xlink:title=" ">
<polygon fill="white" stroke="#666666" points="63,-17 11,-17 11,0 63,0 63,-17"/>
<text text-anchor="middle" x="37" y="-6.6" font-family="Helvetica,sans-Serif" font-size="8.00">chdr.hpp</text>
</a>
</g>
</g>
<!-- Node1&#45;&gt;Node2 -->
<g id="edge1_Node000001_Node000002" class="edge">
<title>Node1&#45;&gt;Node2</title>
<g id="a_edge1_Node000001_Node000002"><a xlink:title=" ">
<path fill="none" stroke="#63b8ff" d="M19.91,-98.85C8.33,-87.04 -3.89,-69.71 2,-53 7.15,-38.37 19.54,-25.04 28.1,-17.09"/>
<polygon fill="#63b8ff" stroke="#63b8ff" points="17.55,-101.44 27.23,-105.75 22.35,-96.34 17.55,-101.44"/>
</a>
</g>
</g>
<!-- Node3 -->
<g id="Node000003" class="node">
<title>Node3</title>
<g id="a_Node000003"><a xlink:href="../../d3/d3e/gjps_8hpp.html" target="_top" xlink:title=" ">
<polygon fill="white" stroke="#666666" points="63,-70 11,-70 11,-53 63,-53 63,-70"/>
<text text-anchor="middle" x="37" y="-59.6" font-family="Helvetica,sans-Serif" font-size="8.00">gjps.hpp</text>
</a>
</g>
</g>
<!-- Node1&#45;&gt;Node3 -->
<g id="edge2_Node000001_Node000003" class="edge">
<title>Node1&#45;&gt;Node3</title>
<g id="a_edge2_Node000001_Node000003"><a xlink:title=" ">
<path fill="none" stroke="#63b8ff" d="M37,-95.91C37,-87.08 37,-76.85 37,-70.06"/>
<polygon fill="#63b8ff" stroke="#63b8ff" points="33.5,-95.97 37,-105.97 40.5,-95.97 33.5,-95.97"/>
</a>
</g>
</g>
<!-- Node4 -->
<g id="Node000004" class="node">
<title>Node4</title>
<g id="a_Node000004"><a xlink:href="../../d9/de6/jps_8hpp.html" target="_top" xlink:title=" ">
<polygon fill="white" stroke="#666666" points="128.5,-70 81.5,-70 81.5,-53 128.5,-53 128.5,-70"/>
<text text-anchor="middle" x="105" y="-59.6" font-family="Helvetica,sans-Serif" font-size="8.00">jps.hpp</text>
</a>
</g>
</g>
<!-- Node1&#45;&gt;Node4 -->
<g id="edge4_Node000001_Node000004" class="edge">
<title>Node1&#45;&gt;Node4</title>
<g id="a_edge4_Node000001_Node000004"><a xlink:title=" ">
<path fill="none" stroke="#63b8ff" d="M55.12,-99.91C67.87,-90.34 84.46,-77.9 94.93,-70.06"/>
<polygon fill="#63b8ff" stroke="#63b8ff" points="52.93,-97.17 47.03,-105.97 57.13,-102.77 52.93,-97.17"/>
</a>
</g>
</g>
<!-- Node3&#45;&gt;Node2 -->
<g id="edge3_Node000003_Node000002" class="edge">
<title>Node3&#45;&gt;Node2</title>
<g id="a_edge3_Node000003_Node000002"><a xlink:title=" ">
<path fill="none" stroke="#63b8ff" d="M37,-42.91C37,-34.08 37,-23.85 37,-17.06"/>
<polygon fill="#63b8ff" stroke="#63b8ff" points="33.5,-42.97 37,-52.97 40.5,-42.97 33.5,-42.97"/>
</a>
</g>
</g>
<!-- Node4&#45;&gt;Node2 -->
<g id="edge5_Node000004_Node000002" class="edge">
<title>Node4&#45;&gt;Node2</title>
<g id="a_edge5_Node000004_Node000002"><a xlink:title=" ">
<path fill="none" stroke="#63b8ff" d="M86.88,-46.91C74.13,-37.34 57.54,-24.9 47.07,-17.06"/>
<polygon fill="#63b8ff" stroke="#63b8ff" points="84.87,-49.77 94.97,-52.97 89.07,-44.17 84.87,-49.77"/>
</a>
</g>
</g>
</g>
</svg>
