<?xml version="1.0" encoding="UTF-8" standalone="no"?>
<!DOCTYPE svg PUBLIC "-//W3C//DTD SVG 1.1//EN"
 "http://www.w3.org/Graphics/SVG/1.1/DTD/svg11.dtd">
<!-- Generated by graphviz version 2.43.0 (0)
 -->
<!-- Title: weighted_node.hpp Pages: 1 -->
<svg width="252pt" height="184pt"
 viewBox="0.00 0.00 251.50 184.00" xmlns="http://www.w3.org/2000/svg" xmlns:xlink="http://www.w3.org/1999/xlink">
<g id="graph0" class="graph" transform="scale(1 1) rotate(0) translate(4 180)">
<title>weighted_node.hpp</title>
<!-- Node1 -->
<g id="Node000001" class="node">
<title>Node1</title>
<g id="a_Node000001"><a xlink:title=" ">
<polygon fill="#999999" stroke="#666666" points="87,-176 0,-176 0,-159 87,-159 87,-176"/>
<text text-anchor="middle" x="43.5" y="-165.6" font-family="Helvetica,sans-Serif" font-size="8.00">weighted_node.hpp</text>
</a>
</g>
</g>
<!-- Node2 -->
<g id="Node000002" class="node">
<title>Node2</title>
<g id="a_Node000002"><a xlink:href="../../d9/d96/chdr_8hpp.html" target="_top" xlink:title=" ">
<polygon fill="white" stroke="#666666" points="112,-17 65,-17 65,0 112,0 112,-17"/>
<text text-anchor="middle" x="88.5" y="-6.6" font-family="Helvetica,sans-Serif" font-size="8.00">chdr.hpp</text>
</a>
</g>
</g>
<!-- Node1&#45;&gt;Node2 -->
<g id="edge1_Node000001_Node000002" class="edge">
<title>Node1&#45;&gt;Node2</title>
<g id="a_edge1_Node000001_Node000002"><a xlink:title=" ">
<path fill="none" stroke="#63b8ff" d="M41.2,-149.01C38.91,-126.03 37.41,-84.87 50.5,-53 56.6,-38.16 69.92,-24.88 79.05,-17"/>
<polygon fill="#63b8ff" stroke="#63b8ff" points="37.72,-149.44 42.35,-158.96 44.68,-148.63 37.72,-149.44"/>
</a>
</g>
</g>
<!-- Node3 -->
<g id="Node000003" class="node">
<title>Node3</title>
<g id="a_Node000003"><a xlink:href="../../dc/d8a/grid_8hpp.html" target="_top" xlink:title=" ">
<polygon fill="white" stroke="#666666" points="111.5,-123 65.5,-123 65.5,-106 111.5,-106 111.5,-123"/>
<text text-anchor="middle" x="88.5" y="-112.6" font-family="Helvetica,sans-Serif" font-size="8.00">grid.hpp</text>
</a>
</g>
</g>
<!-- Node1&#45;&gt;Node3 -->
<g id="edge2_Node000001_Node000003" class="edge">
<title>Node1&#45;&gt;Node3</title>
<g id="a_edge2_Node000001_Node000003"><a xlink:title=" ">
<path fill="none" stroke="#63b8ff" d="M56.98,-151.22C65.18,-141.92 75.31,-130.45 81.83,-123.06"/>
<polygon fill="#63b8ff" stroke="#63b8ff" points="54.13,-149.16 50.14,-158.97 59.38,-153.79 54.13,-149.16"/>
</a>
</g>
</g>
<!-- Node3&#45;&gt;Node2 -->
<g id="edge3_Node000003_Node000002" class="edge">
<title>Node3&#45;&gt;Node2</title>
<g id="a_edge3_Node000003_Node000002"><a xlink:title=" ">
<path fill="none" stroke="#63b8ff" d="M73.09,-98.35C66.29,-90.59 59.05,-80.56 55.5,-70 48.71,-49.81 67.32,-28.45 79.29,-17.31"/>
<polygon fill="#63b8ff" stroke="#63b8ff" points="70.7,-100.91 80.1,-105.8 75.8,-96.12 70.7,-100.91"/>
</a>
</g>
</g>
<!-- Node4 -->
<g id="Node000004" class="node">
<title>Node4</title>
<g id="a_Node000004"><a xlink:href="../../d3/d3e/gjps_8hpp_source.html" target="_top" xlink:title=" ">
<polygon fill="white" stroke="#666666" points="112,-70 65,-70 65,-53 112,-53 112,-70"/>
<text text-anchor="middle" x="88.5" y="-59.6" font-family="Helvetica,sans-Serif" font-size="8.00">gjps.hpp</text>
</a>
</g>
</g>
<!-- Node3&#45;&gt;Node4 -->
<g id="edge4_Node000003_Node000004" class="edge">
<title>Node3&#45;&gt;Node4</title>
<g id="a_edge4_Node000003_Node000004"><a xlink:title=" ">
<path fill="none" stroke="#63b8ff" d="M88.5,-95.91C88.5,-87.08 88.5,-76.85 88.5,-70.06"/>
<polygon fill="#63b8ff" stroke="#63b8ff" points="85,-95.97 88.5,-105.97 92,-95.97 85,-95.97"/>
</a>
</g>
</g>
<!-- Node5 -->
<g id="Node000005" class="node">
<title>Node5</title>
<g id="a_Node000005"><a xlink:href="../../d9/de9/graph_8hpp_source.html" target="_top" xlink:title=" ">
<polygon fill="white" stroke="#666666" points="183,-70 130,-70 130,-53 183,-53 183,-70"/>
<text text-anchor="middle" x="156.5" y="-59.6" font-family="Helvetica,sans-Serif" font-size="8.00">graph.hpp</text>
</a>
</g>
</g>
<!-- Node3&#45;&gt;Node5 -->
<g id="edge6_Node000003_Node000005" class="edge">
<title>Node3&#45;&gt;Node5</title>
<g id="a_edge6_Node000003_Node000005"><a xlink:title=" ">
<path fill="none" stroke="#63b8ff" d="M106.62,-99.91C119.37,-90.34 135.96,-77.9 146.43,-70.06"/>
<polygon fill="#63b8ff" stroke="#63b8ff" points="104.43,-97.17 98.53,-105.97 108.63,-102.77 104.43,-97.17"/>
</a>
</g>
</g>
<!-- Node6 -->
<g id="Node000006" class="node">
<title>Node6</title>
<g id="a_Node000006"><a xlink:href="../../d9/de6/jps_8hpp_source.html" target="_top" xlink:title=" ">
<polygon fill="white" stroke="#666666" points="243.5,-70 201.5,-70 201.5,-53 243.5,-53 243.5,-70"/>
<text text-anchor="middle" x="222.5" y="-59.6" font-family="Helvetica,sans-Serif" font-size="8.00">jps.hpp</text>
</a>
</g>
</g>
<!-- Node3&#45;&gt;Node6 -->
<g id="edge8_Node000003_Node000006" class="edge">
<title>Node3&#45;&gt;Node6</title>
<g id="a_edge8_Node000003_Node000006"><a xlink:title=" ">
<path fill="none" stroke="#63b8ff" d="M117.88,-102.32C143.59,-92.53 180.25,-78.58 202.65,-70.06"/>
<polygon fill="#63b8ff" stroke="#63b8ff" points="116.37,-99.15 108.27,-105.97 118.86,-105.69 116.37,-99.15"/>
</a>
</g>
</g>
<!-- Node4&#45;&gt;Node2 -->
<g id="edge5_Node000004_Node000002" class="edge">
<title>Node4&#45;&gt;Node2</title>
<g id="a_edge5_Node000004_Node000002"><a xlink:title=" ">
<path fill="none" stroke="#63b8ff" d="M88.5,-42.91C88.5,-34.08 88.5,-23.85 88.5,-17.06"/>
<polygon fill="#63b8ff" stroke="#63b8ff" points="85,-42.97 88.5,-52.97 92,-42.97 85,-42.97"/>
</a>
</g>
</g>
<!-- Node5&#45;&gt;Node2 -->
<g id="edge7_Node000005_Node000002" class="edge">
<title>Node5&#45;&gt;Node2</title>
<g id="a_edge7_Node000005_Node000002"><a xlink:title=" ">
<path fill="none" stroke="#63b8ff" d="M138.38,-46.91C125.63,-37.34 109.04,-24.9 98.57,-17.06"/>
<polygon fill="#63b8ff" stroke="#63b8ff" points="136.37,-49.77 146.47,-52.97 140.57,-44.17 136.37,-49.77"/>
</a>
</g>
</g>
<!-- Node6&#45;&gt;Node2 -->
<g id="edge9_Node000006_Node000002" class="edge">
<title>Node6&#45;&gt;Node2</title>
<g id="a_edge9_Node000006_Node000002"><a xlink:title=" ">
<path fill="none" stroke="#63b8ff" d="M193.12,-49.32C167.41,-39.53 130.75,-25.58 108.35,-17.06"/>
<polygon fill="#63b8ff" stroke="#63b8ff" points="192.14,-52.69 202.73,-52.97 194.63,-46.15 192.14,-52.69"/>
</a>
</g>
</g>
</g>
</svg>
