<?xml version="1.0" encoding="UTF-8" standalone="no"?>
<!DOCTYPE svg PUBLIC "-//W3C//DTD SVG 1.1//EN"
 "http://www.w3.org/Graphics/SVG/1.1/DTD/svg11.dtd">
<!-- Generated by graphviz version 2.43.0 (0)
 -->
<!-- Title: Single&#45;Target Pages: 1 -->
<svg width="300pt" height="130pt"
 viewBox="0.00 0.00 300.00 130.00" xmlns="http://www.w3.org/2000/svg" xmlns:xlink="http://www.w3.org/1999/xlink">
<g id="graph0" class="graph" transform="scale(1 1) rotate(0) translate(4 126)">
<title>Single&#45;Target</title>
<!-- Node1 -->
<g id="Node000001" class="node">
<title>Node1</title>
<g id="a_Node000001"><a xlink:title="Solvers which route to a single destination.">
<polygon fill="#999999" stroke="#666666" points="153,-69 83,-69 83,-52 153,-52 153,-69"/>
<text text-anchor="middle" x="118" y="-58.6" font-family="Helvetica,sans-Serif" font-size="8.00">Single&#45;Target</text>
</a>
</g>
</g>
<!-- Node3 -->
<g id="Node000003" class="node">
<title>Node3</title>
<g id="a_Node000003"><a xlink:href="../../db/d80/group__SingleTargetCommon.html" target="_top" xlink:title="General&#45;purpose solvers.">
<polygon fill="white" stroke="#666666" points="267,-122 214,-122 214,-105 267,-105 267,-122"/>
<text text-anchor="middle" x="240.5" y="-111.6" font-family="Helvetica,sans-Serif" font-size="8.00">Common</text>
</a>
</g>
</g>
<!-- Node1&#45;&gt;Node3 -->
<g id="edge2" class="edge">
<title>Node1&#45;&gt;Node3</title>
<path fill="none" stroke="black" d="M142.96,-73.96C156.28,-81.15 173.3,-89.86 189,-96.5 196.92,-99.85 205.76,-103.01 213.79,-105.67"/>
<polygon fill="black" stroke="black" points="144.43,-70.77 133.98,-69.04 141.07,-76.91 144.43,-70.77"/>
</g>
<!-- Node4 -->
<g id="Node000004" class="node">
<title>Node4</title>
<g id="a_Node000004"><a xlink:href="../../d1/d47/group__SingleTargetGraveyardOptimised.html" target="_top" xlink:title="Graveyard solvers, which dynamically prune the search tree.">
<polygon fill="white" stroke="#666666" points="292,-87 189,-87 189,-70 292,-70 292,-87"/>
<text text-anchor="middle" x="240.5" y="-76.6" font-family="Helvetica,sans-Serif" font-size="8.00">Graveyard&#45;Optimised</text>
</a>
</g>
</g>
<!-- Node1&#45;&gt;Node4 -->
<g id="edge3" class="edge">
<title>Node1&#45;&gt;Node4</title>
<path fill="none" stroke="black" d="M163.33,-67.12C171.54,-68.35 180.17,-69.64 188.56,-70.89"/>
<polygon fill="black" stroke="black" points="163.62,-63.63 153.21,-65.61 162.58,-70.55 163.62,-63.63"/>
</g>
<!-- Node5 -->
<g id="Node000005" class="node">
<title>Node5</title>
<g id="a_Node000005"><a xlink:href="../../d5/d74/group__SingleTargetIterativeDeepening.html" target="_top" xlink:title="Solvers which repeatedly traverse the search space at incrementally&#45;increasing depths.">
<polygon fill="white" stroke="#666666" points="289.5,-52 191.5,-52 191.5,-35 289.5,-35 289.5,-52"/>
<text text-anchor="middle" x="240.5" y="-41.6" font-family="Helvetica,sans-Serif" font-size="8.00">Iterative&#45;Deepening</text>
</a>
</g>
</g>
<!-- Node1&#45;&gt;Node5 -->
<g id="edge4" class="edge">
<title>Node1&#45;&gt;Node5</title>
<path fill="none" stroke="black" d="M163.23,-54.26C172.36,-52.97 182.01,-51.61 191.26,-50.31"/>
<polygon fill="black" stroke="black" points="162.62,-50.81 153.21,-55.67 163.6,-57.74 162.62,-50.81"/>
</g>
<!-- Node6 -->
<g id="Node000006" class="node">
<title>Node6</title>
<g id="a_Node000006"><a xlink:href="../../dc/d80/group__SingleTargetSolutionChecking.html" target="_top" xlink:title="Solvers for checking if a path to the target is possible.">
<polygon fill="white" stroke="#666666" points="285.5,-17 195.5,-17 195.5,0 285.5,0 285.5,-17"/>
<text text-anchor="middle" x="240.5" y="-6.6" font-family="Helvetica,sans-Serif" font-size="8.00">Solution Checking</text>
</a>
</g>
</g>
<!-- Node1&#45;&gt;Node6 -->
<g id="edge5" class="edge">
<title>Node1&#45;&gt;Node6</title>
<path fill="none" stroke="black" d="M143.52,-47.19C156.78,-40.26 173.55,-31.92 189,-25.5 196.26,-22.48 204.27,-19.59 211.72,-17.08"/>
<polygon fill="black" stroke="black" points="141.75,-44.17 134.55,-51.94 145.03,-50.35 141.75,-44.17"/>
</g>
<!-- Node2 -->
<g id="Node000002" class="node">
<title>Node2</title>
<g id="a_Node000002"><a xlink:href="../../d3/d24/group__Solvers.html" target="_top" xlink:title="Graph traversal and pathfinding algorithms.">
<polygon fill="white" stroke="#666666" points="47,-69 0,-69 0,-52 47,-52 47,-69"/>
<text text-anchor="middle" x="23.5" y="-58.6" font-family="Helvetica,sans-Serif" font-size="8.00">Solvers</text>
</a>
</g>
</g>
<!-- Node2&#45;&gt;Node1 -->
<g id="edge1" class="edge">
<title>Node2&#45;&gt;Node1</title>
<path fill="none" stroke="black" d="M57.4,-60.5C65.66,-60.5 74.54,-60.5 82.86,-60.5"/>
<polygon fill="black" stroke="black" points="57.37,-57 47.37,-60.5 57.37,-64 57.37,-57"/>
</g>
</g>
</svg>
