<?xml version="1.0" encoding="UTF-8" standalone="no"?>
<!DOCTYPE svg PUBLIC "-//W3C//DTD SVG 1.1//EN"
 "http://www.w3.org/Graphics/SVG/1.1/DTD/svg11.dtd">
<!-- Generated by graphviz version 2.43.0 (0)
 -->
<!-- Title: Single&#45;Target Pages: 1 -->
<svg width="279pt" height="130pt"
 viewBox="0.00 0.00 279.00 130.00" xmlns="http://www.w3.org/2000/svg" xmlns:xlink="http://www.w3.org/1999/xlink">
<g id="graph0" class="graph" transform="scale(1 1) rotate(0) translate(4 126)">
<title>Single&#45;Target</title>
<!-- Node1 -->
<g id="Node000001" class="node">
<title>Node1</title>
<g id="a_Node000001"><a xlink:title="Solvers which route to a single destination.">
<polygon fill="#999999" stroke="#666666" points="143,-69 79,-69 79,-52 143,-52 143,-69"/>
<text text-anchor="middle" x="111" y="-58.6" font-family="Helvetica,sans-Serif" font-size="8.00">Single&#45;Target</text>
</a>
</g>
</g>
<!-- Node3 -->
<g id="Node000003" class="node">
<title>Node3</title>
<g id="a_Node000003"><a xlink:href="../../db/d80/group__SingleTargetCommon.html" target="_top" xlink:title="General&#45;purpose solvers.">
<polygon fill="white" stroke="#666666" points="250,-122 200,-122 200,-105 250,-105 250,-122"/>
<text text-anchor="middle" x="225" y="-111.6" font-family="Helvetica,sans-Serif" font-size="8.00">Common</text>
</a>
</g>
</g>
<!-- Node1&#45;&gt;Node3 -->
<g id="edge2" class="edge">
<title>Node1&#45;&gt;Node3</title>
<path fill="none" stroke="black" d="M135.58,-74.15C148.25,-81.24 164.25,-89.79 179,-96.5 185.69,-99.54 193.1,-102.5 199.94,-105.08"/>
<polygon fill="black" stroke="black" points="137.04,-70.96 126.62,-69.08 133.59,-77.05 137.04,-70.96"/>
</g>
<!-- Node4 -->
<g id="Node000004" class="node">
<title>Node4</title>
<g id="a_Node000004"><a xlink:href="../../d1/d47/group__SingleTargetGraveyardOptimised.html" target="_top" xlink:title="Graveyard solvers, which dynamically prune the search tree.">
<polygon fill="white" stroke="#666666" points="271,-87 179,-87 179,-70 271,-70 271,-87"/>
<text text-anchor="middle" x="225" y="-76.6" font-family="Helvetica,sans-Serif" font-size="8.00">Graveyard&#45;Optimised</text>
</a>
</g>
</g>
<!-- Node1&#45;&gt;Node4 -->
<g id="edge3" class="edge">
<title>Node1&#45;&gt;Node4</title>
<path fill="none" stroke="black" d="M153.09,-67.1C161.43,-68.44 170.25,-69.86 178.74,-71.23"/>
<polygon fill="black" stroke="black" points="153.63,-63.65 143.2,-65.51 152.52,-70.56 153.63,-63.65"/>
</g>
<!-- Node5 -->
<g id="Node000005" class="node">
<title>Node5</title>
<g id="a_Node000005"><a xlink:href="../../d5/d74/group__SingleTargetIterativeDeepening.html" target="_top" xlink:title="Solvers which repeatedly traverse the search space at incrementally&#45;increasing depths.">
<polygon fill="white" stroke="#666666" points="268.5,-52 181.5,-52 181.5,-35 268.5,-35 268.5,-52"/>
<text text-anchor="middle" x="225" y="-41.6" font-family="Helvetica,sans-Serif" font-size="8.00">Iterative&#45;Deepening</text>
</a>
</g>
</g>
<!-- Node1&#45;&gt;Node5 -->
<g id="edge4" class="edge">
<title>Node1&#45;&gt;Node5</title>
<path fill="none" stroke="black" d="M153.22,-54.24C162.35,-52.86 172.05,-51.38 181.25,-49.99"/>
<polygon fill="black" stroke="black" points="152.56,-50.8 143.2,-55.76 153.61,-57.72 152.56,-50.8"/>
</g>
<!-- Node6 -->
<g id="Node000006" class="node">
<title>Node6</title>
<g id="a_Node000006"><a xlink:href="../../dc/d80/group__SingleTargetSolutionChecking.html" target="_top" xlink:title="Solvers for checking if a path to the target is possible.">
<polygon fill="white" stroke="#666666" points="265,-17 185,-17 185,0 265,0 265,-17"/>
<text text-anchor="middle" x="225" y="-6.6" font-family="Helvetica,sans-Serif" font-size="8.00">Solution Checking</text>
</a>
</g>
</g>
<!-- Node1&#45;&gt;Node6 -->
<g id="edge5" class="edge">
<title>Node1&#45;&gt;Node6</title>
<path fill="none" stroke="black" d="M136.12,-47C148.72,-40.18 164.49,-32 179,-25.5 185.55,-22.56 192.78,-19.68 199.49,-17.15"/>
<polygon fill="black" stroke="black" points="134.26,-44.03 127.18,-51.9 137.63,-50.17 134.26,-44.03"/>
</g>
<!-- Node2 -->
<g id="Node000002" class="node">
<title>Node2</title>
<g id="a_Node000002"><a xlink:href="../../d3/d24/group__Solvers.html" target="_top" xlink:title="Graph traversal and pathfinding algorithms.">
<polygon fill="white" stroke="#666666" points="43,-69 0,-69 0,-52 43,-52 43,-69"/>
<text text-anchor="middle" x="21.5" y="-58.6" font-family="Helvetica,sans-Serif" font-size="8.00">Solvers</text>
</a>
</g>
</g>
<!-- Node2&#45;&gt;Node1 -->
<g id="edge1" class="edge">
<title>Node2&#45;&gt;Node1</title>
<path fill="none" stroke="black" d="M53.26,-60.5C61.53,-60.5 70.49,-60.5 78.79,-60.5"/>
<polygon fill="black" stroke="black" points="53.24,-57 43.24,-60.5 53.24,-64 53.24,-57"/>
</g>
</g>
</svg>
