<?xml version="1.0" encoding="UTF-8" standalone="no"?>
<!DOCTYPE svg PUBLIC "-//W3C//DTD SVG 1.1//EN"
 "http://www.w3.org/Graphics/SVG/1.1/DTD/svg11.dtd">
<!-- Generated by graphviz version 2.43.0 (0)
 -->
<!-- Title: unmanaged_node&lt; index_t &gt; Pages: 1 -->
<svg width="638pt" height="297pt"
 viewBox="0.00 0.00 638.00 297.00" xmlns="http://www.w3.org/2000/svg" xmlns:xlink="http://www.w3.org/1999/xlink">
<g id="graph0" class="graph" transform="scale(1 1) rotate(0) translate(4 293)">
<title>unmanaged_node&lt; index_t &gt;</title>
<!-- Node1 -->
<g id="Node000001" class="node">
<title>Node1</title>
<g id="a_Node000001"><a xlink:title="A hierarchical node in a pathfinding context, requires manual memory management.">
<polygon fill="#999999" stroke="transparent" points="372,-82 0,-82 0,0 372,0 372,-82"/>
<text text-anchor="start" x="133.5" y="-71.6" font-family="Helvetica,sans-Serif" font-size="8.00">unmanaged_node&lt; index_t &gt;</text>
<text text-anchor="start" x="184.5" y="-58.6" font-family="Helvetica,sans-Serif" font-size="8.00"> </text>
<text text-anchor="start" x="4" y="-45.6" font-family="Helvetica,sans-Serif" font-size="8.00">+</text>
<text text-anchor="start" x="13" y="-45.6" font-family="Helvetica,sans-Serif" font-size="8.00">unmanaged_node() noexcept</text>
<text text-anchor="start" x="4" y="-32.6" font-family="Helvetica,sans-Serif" font-size="8.00">+</text>
<text text-anchor="start" x="13" y="-32.6" font-family="Helvetica,sans-Serif" font-size="8.00">unmanaged_node(index_t _index, const unmanaged_node *restrict const _parent=nullptr) noexcept</text>
<text text-anchor="start" x="4.5" y="-19.6" font-family="Helvetica,sans-Serif" font-size="8.00">*</text>
<text text-anchor="start" x="13" y="-19.6" font-family="Helvetica,sans-Serif" font-size="8.00">unmanaged_node() noexcept</text>
<text text-anchor="start" x="4.5" y="-6.6" font-family="Helvetica,sans-Serif" font-size="8.00">*</text>
<text text-anchor="start" x="13" y="-6.6" font-family="Helvetica,sans-Serif" font-size="8.00">unmanaged_node(index_t _index, const unmanaged_node *restrict const _parent=nullptr) noexcept</text>
<polygon fill="#666666" stroke="#666666" points="0,-67 0,-67 372,-67 372,-67 0,-67"/>
<polygon fill="#666666" stroke="#666666" points="0,-54 0,-54 372,-54 372,-54 0,-54"/>
<polygon fill="none" stroke="#666666" points="0,0 0,-82 372,-82 372,0 0,0"/>
</a>
</g>
</g>
<!-- Node2 -->
<g id="Node000002" class="node">
<title>Node2</title>
<g id="a_Node000002"><a xlink:href="../../da/d98/structchdr_1_1solvers_1_1bnode.html" target="_top" xlink:title="Base class for pathfinding nodes.">
<polygon fill="white" stroke="transparent" points="222.5,-289 141.5,-289 141.5,-246 222.5,-246 222.5,-289"/>
<text text-anchor="start" x="151.5" y="-278.1" font-family="Helvetica,sans-Serif" font-size="8.00">bnode&lt; index_t &gt;</text>
<text text-anchor="start" x="146" y="-265.1" font-family="Helvetica,sans-Serif" font-size="8.00">+</text>
<text text-anchor="start" x="155" y="-265.1" font-family="Helvetica,sans-Serif" font-size="8.00">index_t m_index</text>
<text text-anchor="start" x="146.5" y="-252.1" font-family="Helvetica,sans-Serif" font-size="8.00">*</text>
<text text-anchor="start" x="155" y="-252.1" font-family="Helvetica,sans-Serif" font-size="8.00">bnode() noexcept</text>
<polygon fill="#666666" stroke="#666666" points="142,-273.5 142,-273.5 223,-273.5 223,-273.5 142,-273.5"/>
<polygon fill="#666666" stroke="#666666" points="142,-260.5 142,-260.5 153,-260.5 153,-260.5 142,-260.5"/>
<polygon fill="#666666" stroke="#666666" points="153,-260.5 153,-260.5 223,-260.5 223,-260.5 153,-260.5"/>
<polygon fill="none" stroke="#666666" points="141.5,-246 141.5,-289 222.5,-289 222.5,-246 141.5,-246"/>
</a>
</g>
</g>
<!-- Node2&#45;&gt;Node1 -->
<g id="edge1_Node000001_Node000002" class="edge">
<title>Node2&#45;&gt;Node1</title>
<g id="a_edge1_Node000001_Node000002"><a xlink:title=" ">
<path fill="none" stroke="#63b8ff" d="M182.55,-235.6C183.26,-195.7 184.5,-126.17 185.28,-82.2"/>
<polygon fill="none" stroke="#63b8ff" points="179.05,-235.72 182.37,-245.78 186.05,-235.85 179.05,-235.72"/>
</a>
</g>
</g>
<!-- Node3 -->
<g id="Node000003" class="node">
<title>Node3</title>
<g id="a_Node000003"><a xlink:href="../../d6/d3c/structchdr_1_1solvers_1_1unmanaged__node.html" target="_top" xlink:title="A hierarchical node in a pathfinding context, requires manual memory management.">
<polygon fill="white" stroke="transparent" points="570,-209 198,-209 198,-127 570,-127 570,-209"/>
<text text-anchor="start" x="331.5" y="-198.6" font-family="Helvetica,sans-Serif" font-size="8.00">unmanaged_node&lt; index_t &gt;</text>
<text text-anchor="start" x="382.5" y="-185.6" font-family="Helvetica,sans-Serif" font-size="8.00"> </text>
<text text-anchor="start" x="202" y="-172.6" font-family="Helvetica,sans-Serif" font-size="8.00">+</text>
<text text-anchor="start" x="211" y="-172.6" font-family="Helvetica,sans-Serif" font-size="8.00">unmanaged_node() noexcept</text>
<text text-anchor="start" x="202" y="-159.6" font-family="Helvetica,sans-Serif" font-size="8.00">+</text>
<text text-anchor="start" x="211" y="-159.6" font-family="Helvetica,sans-Serif" font-size="8.00">unmanaged_node(index_t _index, const unmanaged_node *restrict const _parent=nullptr) noexcept</text>
<text text-anchor="start" x="202.5" y="-146.6" font-family="Helvetica,sans-Serif" font-size="8.00">*</text>
<text text-anchor="start" x="211" y="-146.6" font-family="Helvetica,sans-Serif" font-size="8.00">unmanaged_node() noexcept</text>
<text text-anchor="start" x="202.5" y="-133.6" font-family="Helvetica,sans-Serif" font-size="8.00">*</text>
<text text-anchor="start" x="211" y="-133.6" font-family="Helvetica,sans-Serif" font-size="8.00">unmanaged_node(index_t _index, const unmanaged_node *restrict const _parent=nullptr) noexcept</text>
<polygon fill="#666666" stroke="#666666" points="198,-194 198,-194 570,-194 570,-194 198,-194"/>
<polygon fill="#666666" stroke="#666666" points="198,-181 198,-181 570,-181 570,-181 198,-181"/>
<polygon fill="none" stroke="#666666" points="198,-127 198,-209 570,-209 570,-127 198,-127"/>
</a>
</g>
</g>
<!-- Node2&#45;&gt;Node3 -->
<g id="edge3_Node000003_Node000002" class="edge">
<title>Node2&#45;&gt;Node3</title>
<g id="a_edge3_Node000003_Node000002"><a xlink:title=" ">
<path fill="none" stroke="#63b8ff" d="M232.15,-242.3C252.96,-232.25 277.67,-220.32 301.04,-209.04"/>
<polygon fill="none" stroke="#63b8ff" points="230.36,-239.27 222.88,-246.77 233.4,-245.57 230.36,-239.27"/>
</a>
</g>
</g>
<!-- Node3&#45;&gt;Node1 -->
<g id="edge2_Node000001_Node000003" class="edge">
<title>Node3&#45;&gt;Node1</title>
<g id="a_edge2_Node000001_Node000003"><a xlink:title=" ">
<path fill="none" stroke="#63b8ff" d="M320.53,-126.93C301.17,-114.71 279.72,-101.17 259.74,-88.55"/>
<polygon fill="none" stroke="#63b8ff" points="259.59,-88.46 252.38,-88.64 249.45,-82.05 256.65,-81.87 259.59,-88.46"/>
</a>
</g>
<text text-anchor="middle" x="311" y="-102.6" font-family="Helvetica,sans-Serif" font-size="8.00" fill="grey"> +m_parent</text>
</g>
<!-- Node3&#45;&gt;Node3 -->
<g id="edge4_Node000003_Node000003" class="edge">
<title>Node3&#45;&gt;Node3</title>
<g id="a_edge4_Node000003_Node000003"><a xlink:title=" ">
<path fill="none" stroke="#63b8ff" d="M570.02,-175.53C581.26,-173.74 588,-171.23 588,-168 588,-166.18 585.87,-164.6 582,-163.23"/>
<polygon fill="none" stroke="#63b8ff" points="581.72,-163.17 574.97,-165.72 570.02,-160.47 576.77,-157.92 581.72,-163.17"/>
</a>
</g>
<text text-anchor="middle" x="609" y="-166.1" font-family="Helvetica,sans-Serif" font-size="8.00" fill="grey"> +m_parent</text>
</g>
</g>
</svg>
