<?xml version="1.0" encoding="UTF-8" standalone="no"?>
<!DOCTYPE svg PUBLIC "-//W3C//DTD SVG 1.1//EN"
 "http://www.w3.org/Graphics/SVG/1.1/DTD/svg11.dtd">
<!-- Generated by graphviz version 2.43.0 (0)
 -->
<!-- Title: unmanaged_node&lt; index_t &gt; Pages: 1 -->
<svg width="724pt" height="297pt"
 viewBox="0.00 0.00 724.00 297.00" xmlns="http://www.w3.org/2000/svg" xmlns:xlink="http://www.w3.org/1999/xlink">
<g id="graph0" class="graph" transform="scale(1 1) rotate(0) translate(4 293)">
<title>unmanaged_node&lt; index_t &gt;</title>
<!-- Node1 -->
<g id="Node000001" class="node">
<title>Node1</title>
<g id="a_Node000001"><a xlink:title="A hierarchical node in a pathfinding context, requires manual memory management.">
<polygon fill="#999999" stroke="transparent" points="425,-82 0,-82 0,0 425,0 425,-82"/>
<text text-anchor="start" x="152.5" y="-71.6" font-family="Helvetica,sans-Serif" font-size="8.00">unmanaged_node&lt; index_t &gt;</text>
<text text-anchor="start" x="211.5" y="-58.6" font-family="Helvetica,sans-Serif" font-size="8.00"> </text>
<text text-anchor="start" x="4.5" y="-45.6" font-family="Helvetica,sans-Serif" font-size="8.00">+</text>
<text text-anchor="start" x="15.5" y="-45.6" font-family="Helvetica,sans-Serif" font-size="8.00">unmanaged_node() noexcept</text>
<text text-anchor="start" x="4.5" y="-32.6" font-family="Helvetica,sans-Serif" font-size="8.00">+</text>
<text text-anchor="start" x="15.5" y="-32.6" font-family="Helvetica,sans-Serif" font-size="8.00">unmanaged_node(index_t _index, const unmanaged_node *restrict const _parent=nullptr) noexcept</text>
<text text-anchor="start" x="6" y="-19.6" font-family="Helvetica,sans-Serif" font-size="8.00">*</text>
<text text-anchor="start" x="15.5" y="-19.6" font-family="Helvetica,sans-Serif" font-size="8.00">unmanaged_node() noexcept</text>
<text text-anchor="start" x="6" y="-6.6" font-family="Helvetica,sans-Serif" font-size="8.00">*</text>
<text text-anchor="start" x="15.5" y="-6.6" font-family="Helvetica,sans-Serif" font-size="8.00">unmanaged_node(index_t _index, const unmanaged_node *restrict const _parent=nullptr) noexcept</text>
<polygon fill="#666666" stroke="#666666" points="0.5,-67 0.5,-67 425.5,-67 425.5,-67 0.5,-67"/>
<polygon fill="#666666" stroke="#666666" points="0.5,-54 0.5,-54 425.5,-54 425.5,-54 0.5,-54"/>
<polygon fill="none" stroke="#666666" points="0,0 0,-82 425,-82 425,0 0,0"/>
</a>
</g>
</g>
<!-- Node2 -->
<g id="Node000002" class="node">
<title>Node2</title>
<g id="a_Node000002"><a xlink:href="../../da/d98/structchdr_1_1solvers_1_1bnode.html" target="_top" xlink:title="Base class for pathfinding nodes.">
<polygon fill="white" stroke="transparent" points="254.5,-289 162.5,-289 162.5,-246 254.5,-246 254.5,-289"/>
<text text-anchor="start" x="172" y="-278.1" font-family="Helvetica,sans-Serif" font-size="8.00">bnode&lt; index_t &gt;</text>
<text text-anchor="start" x="166.5" y="-265.1" font-family="Helvetica,sans-Serif" font-size="8.00">+</text>
<text text-anchor="start" x="177.5" y="-265.1" font-family="Helvetica,sans-Serif" font-size="8.00">index_t m_index</text>
<text text-anchor="start" x="168" y="-252.1" font-family="Helvetica,sans-Serif" font-size="8.00">*</text>
<text text-anchor="start" x="177.5" y="-252.1" font-family="Helvetica,sans-Serif" font-size="8.00">bnode() noexcept</text>
<polygon fill="#666666" stroke="#666666" points="162.5,-273.5 162.5,-273.5 254.5,-273.5 254.5,-273.5 162.5,-273.5"/>
<polygon fill="#666666" stroke="#666666" points="162.5,-260.5 162.5,-260.5 175.5,-260.5 175.5,-260.5 162.5,-260.5"/>
<polygon fill="#666666" stroke="#666666" points="175.5,-260.5 175.5,-260.5 254.5,-260.5 254.5,-260.5 175.5,-260.5"/>
<polygon fill="none" stroke="#666666" points="162.5,-246 162.5,-289 254.5,-289 254.5,-246 162.5,-246"/>
</a>
</g>
</g>
<!-- Node2&#45;&gt;Node1 -->
<g id="edge1_Node000001_Node000002" class="edge">
<title>Node2&#45;&gt;Node1</title>
<g id="a_edge1_Node000001_Node000002"><a xlink:title=" ">
<path fill="none" stroke="#63b8ff" d="M209.05,-235.6C209.76,-195.7 211,-126.17 211.78,-82.2"/>
<polygon fill="none" stroke="#63b8ff" points="205.55,-235.72 208.87,-245.78 212.55,-235.85 205.55,-235.72"/>
</a>
</g>
</g>
<!-- Node3 -->
<g id="Node000003" class="node">
<title>Node3</title>
<g id="a_Node000003"><a xlink:href="../../d6/d3c/structchdr_1_1solvers_1_1unmanaged__node.html" target="_top" xlink:title="A hierarchical node in a pathfinding context, requires manual memory management.">
<polygon fill="white" stroke="transparent" points="650,-209 225,-209 225,-127 650,-127 650,-209"/>
<text text-anchor="start" x="377.5" y="-198.6" font-family="Helvetica,sans-Serif" font-size="8.00">unmanaged_node&lt; index_t &gt;</text>
<text text-anchor="start" x="436.5" y="-185.6" font-family="Helvetica,sans-Serif" font-size="8.00"> </text>
<text text-anchor="start" x="229.5" y="-172.6" font-family="Helvetica,sans-Serif" font-size="8.00">+</text>
<text text-anchor="start" x="240.5" y="-172.6" font-family="Helvetica,sans-Serif" font-size="8.00">unmanaged_node() noexcept</text>
<text text-anchor="start" x="229.5" y="-159.6" font-family="Helvetica,sans-Serif" font-size="8.00">+</text>
<text text-anchor="start" x="240.5" y="-159.6" font-family="Helvetica,sans-Serif" font-size="8.00">unmanaged_node(index_t _index, const unmanaged_node *restrict const _parent=nullptr) noexcept</text>
<text text-anchor="start" x="231" y="-146.6" font-family="Helvetica,sans-Serif" font-size="8.00">*</text>
<text text-anchor="start" x="240.5" y="-146.6" font-family="Helvetica,sans-Serif" font-size="8.00">unmanaged_node() noexcept</text>
<text text-anchor="start" x="231" y="-133.6" font-family="Helvetica,sans-Serif" font-size="8.00">*</text>
<text text-anchor="start" x="240.5" y="-133.6" font-family="Helvetica,sans-Serif" font-size="8.00">unmanaged_node(index_t _index, const unmanaged_node *restrict const _parent=nullptr) noexcept</text>
<polygon fill="#666666" stroke="#666666" points="225.5,-194 225.5,-194 650.5,-194 650.5,-194 225.5,-194"/>
<polygon fill="#666666" stroke="#666666" points="225.5,-181 225.5,-181 650.5,-181 650.5,-181 225.5,-181"/>
<polygon fill="none" stroke="#666666" points="225,-127 225,-209 650,-209 650,-127 225,-127"/>
</a>
</g>
</g>
<!-- Node2&#45;&gt;Node3 -->
<g id="edge3_Node000003_Node000002" class="edge">
<title>Node2&#45;&gt;Node3</title>
<g id="a_edge3_Node000003_Node000002"><a xlink:title=" ">
<path fill="none" stroke="#63b8ff" d="M263.8,-242.96C287.65,-232.8 316.23,-220.63 343.25,-209.13"/>
<polygon fill="none" stroke="#63b8ff" points="262.4,-239.75 254.57,-246.89 265.14,-246.19 262.4,-239.75"/>
</a>
</g>
</g>
<!-- Node3&#45;&gt;Node1 -->
<g id="edge2_Node000001_Node000003" class="edge">
<title>Node3&#45;&gt;Node1</title>
<g id="a_edge2_Node000001_Node000003"><a xlink:title=" ">
<path fill="none" stroke="#63b8ff" d="M365.38,-126.93C343.08,-114.54 318.33,-100.79 295.36,-88.03"/>
<polygon fill="none" stroke="#63b8ff" points="295.09,-87.88 287.9,-88.46 284.6,-82.05 291.78,-81.47 295.09,-87.88"/>
</a>
</g>
<text text-anchor="middle" x="355.5" y="-102.6" font-family="Helvetica,sans-Serif" font-size="8.00" fill="grey"> +m_parent</text>
</g>
<!-- Node3&#45;&gt;Node3 -->
<g id="edge4_Node000003_Node000003" class="edge">
<title>Node3&#45;&gt;Node3</title>
<g id="a_edge4_Node000003_Node000003"><a xlink:title=" ">
<path fill="none" stroke="#63b8ff" d="M650.29,-175.14C661.41,-173.38 668,-171 668,-168 668,-166.31 665.92,-164.82 662.11,-163.52"/>
<polygon fill="none" stroke="#63b8ff" points="661.99,-163.5 655.26,-166.08 650.29,-160.86 657.02,-158.28 661.99,-163.5"/>
</a>
</g>
<text text-anchor="middle" x="692" y="-166.1" font-family="Helvetica,sans-Serif" font-size="8.00" fill="grey"> +m_parent</text>
</g>
</g>
</svg>
