<?xml version="1.0" encoding="UTF-8" standalone="no"?>
<!DOCTYPE svg PUBLIC "-//W3C//DTD SVG 1.1//EN"
 "http://www.w3.org/Graphics/SVG/1.1/DTD/svg11.dtd">
<!-- Generated by graphviz version 2.43.0 (0)
 -->
<!-- Title: heap.hpp Pages: 1 -->
<svg width="338pt" height="131pt"
 viewBox="0.00 0.00 337.99 131.00" xmlns="http://www.w3.org/2000/svg" xmlns:xlink="http://www.w3.org/1999/xlink">
<g id="graph0" class="graph" transform="scale(1 1) rotate(0) translate(4 127)">
<title>heap.hpp</title>
<!-- Node1 -->
<g id="Node000001" class="node">
<title>Node1</title>
<g id="a_Node000001"><a xlink:title=" ">
<polygon fill="#999999" stroke="#666666" points="124.99,-123 74.99,-123 74.99,-106 124.99,-106 124.99,-123"/>
<text text-anchor="middle" x="99.99" y="-112.6" font-family="Helvetica,sans-Serif" font-size="8.00">heap.hpp</text>
</a>
</g>
</g>
<!-- Node2 -->
<g id="Node000002" class="node">
<title>Node2</title>
<g id="a_Node000002"><a xlink:title=" ">
<polygon fill="#e0e0e0" stroke="#999999" points="110.99,-17 68.99,-17 68.99,0 110.99,0 110.99,-17"/>
<text text-anchor="middle" x="89.99" y="-6.6" font-family="Helvetica,sans-Serif" font-size="8.00">cstddef</text>
</a>
</g>
</g>
<!-- Node1&#45;&gt;Node2 -->
<g id="edge1_Node000001_Node000002" class="edge">
<title>Node1&#45;&gt;Node2</title>
<g id="a_edge1_Node000001_Node000002"><a xlink:title=" ">
<path fill="none" stroke="#63b8ff" d="M74.56,-109.75C51.72,-104.9 19.45,-93.99 3.99,-70 -12.32,-44.71 28.04,-26.9 58.85,-17.43"/>
<polygon fill="#63b8ff" stroke="#63b8ff" points="60.2,-20.68 68.83,-14.53 58.25,-13.95 60.2,-20.68"/>
</a>
</g>
</g>
<!-- Node3 -->
<g id="Node000003" class="node">
<title>Node3</title>
<g id="a_Node000003"><a xlink:title=" ">
<polygon fill="#e0e0e0" stroke="#999999" points="62.99,-70 12.99,-70 12.99,-53 62.99,-53 62.99,-70"/>
<text text-anchor="middle" x="37.99" y="-59.6" font-family="Helvetica,sans-Serif" font-size="8.00">functional</text>
</a>
</g>
</g>
<!-- Node1&#45;&gt;Node3 -->
<g id="edge2_Node000001_Node000003" class="edge">
<title>Node1&#45;&gt;Node3</title>
<g id="a_edge2_Node000001_Node000003"><a xlink:title=" ">
<path fill="none" stroke="#63b8ff" d="M90.84,-105.97C81.5,-98.29 66.77,-86.18 55.23,-76.69"/>
<polygon fill="#63b8ff" stroke="#63b8ff" points="57.12,-73.71 47.17,-70.06 52.67,-79.11 57.12,-73.71"/>
</a>
</g>
</g>
<!-- Node4 -->
<g id="Node000004" class="node">
<title>Node4</title>
<g id="a_Node000004"><a xlink:title=" ">
<polygon fill="#e0e0e0" stroke="#999999" points="118.99,-70 80.99,-70 80.99,-53 118.99,-53 118.99,-70"/>
<text text-anchor="middle" x="99.99" y="-59.6" font-family="Helvetica,sans-Serif" font-size="8.00">vector</text>
</a>
</g>
</g>
<!-- Node1&#45;&gt;Node4 -->
<g id="edge3_Node000001_Node000004" class="edge">
<title>Node1&#45;&gt;Node4</title>
<g id="a_edge3_Node000001_Node000004"><a xlink:title=" ">
<path fill="none" stroke="#63b8ff" d="M99.99,-105.97C99.99,-99.19 99.99,-88.97 99.99,-80.13"/>
<polygon fill="#63b8ff" stroke="#63b8ff" points="103.49,-80.06 99.99,-70.06 96.49,-80.06 103.49,-80.06"/>
</a>
</g>
</g>
<!-- Node5 -->
<g id="Node000005" class="node">
<title>Node5</title>
<g id="a_Node000005"><a xlink:title=" ">
<polygon fill="#e0e0e0" stroke="#999999" points="218.99,-70 136.99,-70 136.99,-53 218.99,-53 218.99,-70"/>
<text text-anchor="middle" x="177.99" y="-59.6" font-family="Helvetica,sans-Serif" font-size="8.00">memory_resource</text>
</a>
</g>
</g>
<!-- Node1&#45;&gt;Node5 -->
<g id="edge4_Node000001_Node000005" class="edge">
<title>Node1&#45;&gt;Node5</title>
<g id="a_edge4_Node000001_Node000005"><a xlink:title=" ">
<path fill="none" stroke="#63b8ff" d="M111.49,-105.97C123.71,-97.99 143.24,-85.22 157.98,-75.58"/>
<polygon fill="#63b8ff" stroke="#63b8ff" points="159.97,-78.46 166.43,-70.06 156.14,-72.6 159.97,-78.46"/>
</a>
</g>
</g>
<!-- Node6 -->
<g id="Node000006" class="node">
<title>Node6</title>
<g id="a_Node000006"><a xlink:href="../../d7/d65/intrinsics_8hpp.html" target="_top" xlink:title=" ">
<polygon fill="white" stroke="#666666" points="328.99,-70 236.99,-70 236.99,-53 328.99,-53 328.99,-70"/>
<text text-anchor="middle" x="282.99" y="-59.6" font-family="Helvetica,sans-Serif" font-size="8.00">../../utils/intrinsics.hpp</text>
</a>
</g>
</g>
<!-- Node1&#45;&gt;Node6 -->
<g id="edge5_Node000001_Node000006" class="edge">
<title>Node1&#45;&gt;Node6</title>
<g id="a_edge5_Node000001_Node000006"><a xlink:title=" ">
<path fill="none" stroke="#63b8ff" d="M125.05,-106.52C156.36,-97.79 210.21,-82.78 246.2,-72.75"/>
<polygon fill="#63b8ff" stroke="#63b8ff" points="247.15,-76.12 255.85,-70.06 245.27,-69.38 247.15,-76.12"/>
</a>
</g>
</g>
<!-- Node6&#45;&gt;Node2 -->
<g id="edge7_Node000006_Node000002" class="edge">
<title>Node6&#45;&gt;Node2</title>
<g id="a_edge7_Node000006_Node000002"><a xlink:title=" ">
<path fill="none" stroke="#63b8ff" d="M254.51,-52.97C218.76,-43.53 157.67,-27.38 120.83,-17.65"/>
<polygon fill="#63b8ff" stroke="#63b8ff" points="121.69,-14.26 111.13,-15.09 119.91,-21.03 121.69,-14.26"/>
</a>
</g>
</g>
<!-- Node7 -->
<g id="Node000007" class="node">
<title>Node7</title>
<g id="a_Node000007"><a xlink:title=" ">
<polygon fill="#e0e0e0" stroke="#999999" points="273.99,-17 233.99,-17 233.99,0 273.99,0 273.99,-17"/>
<text text-anchor="middle" x="253.99" y="-6.6" font-family="Helvetica,sans-Serif" font-size="8.00">atomic</text>
</a>
</g>
</g>
<!-- Node6&#45;&gt;Node7 -->
<g id="edge6_Node000006_Node000007" class="edge">
<title>Node6&#45;&gt;Node7</title>
<g id="a_edge6_Node000006_Node000007"><a xlink:title=" ">
<path fill="none" stroke="#63b8ff" d="M278.71,-52.97C274.68,-45.89 268.51,-35.05 263.35,-25.96"/>
<polygon fill="#63b8ff" stroke="#63b8ff" points="266.27,-24.02 258.28,-17.06 260.18,-27.48 266.27,-24.02"/>
</a>
</g>
</g>
<!-- Node8 -->
<g id="Node000008" class="node">
<title>Node8</title>
<g id="a_Node000008"><a xlink:title=" ">
<polygon fill="#e0e0e0" stroke="#999999" points="329.99,-17 291.99,-17 291.99,0 329.99,0 329.99,-17"/>
<text text-anchor="middle" x="310.99" y="-6.6" font-family="Helvetica,sans-Serif" font-size="8.00">cstdlib</text>
</a>
</g>
</g>
<!-- Node6&#45;&gt;Node8 -->
<g id="edge8_Node000006_Node000008" class="edge">
<title>Node6&#45;&gt;Node8</title>
<g id="a_edge8_Node000006_Node000008"><a xlink:title=" ">
<path fill="none" stroke="#63b8ff" d="M287.12,-52.97C291,-45.89 296.96,-35.05 301.95,-25.96"/>
<polygon fill="#63b8ff" stroke="#63b8ff" points="305.09,-27.51 306.84,-17.06 298.96,-24.14 305.09,-27.51"/>
</a>
</g>
</g>
</g>
</svg>
