<?xml version="1.0" encoding="UTF-8" standalone="no"?>
<!DOCTYPE svg PUBLIC "-//W3C//DTD SVG 1.1//EN"
 "http://www.w3.org/Graphics/SVG/1.1/DTD/svg11.dtd">
<!-- Generated by graphviz version 2.43.0 (0)
 -->
<!-- Title: heap.hpp Pages: 1 -->
<svg width="372pt" height="131pt"
 viewBox="0.00 0.00 372.22 131.00" xmlns="http://www.w3.org/2000/svg" xmlns:xlink="http://www.w3.org/1999/xlink">
<g id="graph0" class="graph" transform="scale(1 1) rotate(0) translate(4 127)">
<title>heap.hpp</title>
<!-- Node1 -->
<g id="Node000001" class="node">
<title>Node1</title>
<g id="a_Node000001"><a xlink:title=" ">
<polygon fill="#999999" stroke="#666666" points="138.72,-123 82.72,-123 82.72,-106 138.72,-106 138.72,-123"/>
<text text-anchor="middle" x="110.72" y="-112.6" font-family="Helvetica,sans-Serif" font-size="8.00">heap.hpp</text>
</a>
</g>
</g>
<!-- Node2 -->
<g id="Node000002" class="node">
<title>Node2</title>
<g id="a_Node000002"><a xlink:title=" ">
<polygon fill="#e0e0e0" stroke="#999999" points="140.22,-17 93.22,-17 93.22,0 140.22,0 140.22,-17"/>
<text text-anchor="middle" x="116.72" y="-6.6" font-family="Helvetica,sans-Serif" font-size="8.00">cstddef</text>
</a>
</g>
</g>
<!-- Node1&#45;&gt;Node2 -->
<g id="edge1_Node000001_Node000002" class="edge">
<title>Node1&#45;&gt;Node2</title>
<g id="a_edge1_Node000001_Node000002"><a xlink:title=" ">
<path fill="none" stroke="#63b8ff" d="M82.55,-108.99C44.34,-101.6 -16.82,-84.48 4.72,-53 22.2,-27.47 57.01,-16.92 83.22,-12.56"/>
<polygon fill="#63b8ff" stroke="#63b8ff" points="83.74,-16.02 93.13,-11.13 82.74,-9.1 83.74,-16.02"/>
</a>
</g>
</g>
<!-- Node3 -->
<g id="Node000003" class="node">
<title>Node3</title>
<g id="a_Node000003"><a xlink:title=" ">
<polygon fill="#e0e0e0" stroke="#999999" points="71.72,-70 13.72,-70 13.72,-53 71.72,-53 71.72,-70"/>
<text text-anchor="middle" x="42.72" y="-59.6" font-family="Helvetica,sans-Serif" font-size="8.00">functional</text>
</a>
</g>
</g>
<!-- Node1&#45;&gt;Node3 -->
<g id="edge2_Node000001_Node000003" class="edge">
<title>Node1&#45;&gt;Node3</title>
<g id="a_edge2_Node000001_Node000003"><a xlink:title=" ">
<path fill="none" stroke="#63b8ff" d="M100.69,-105.97C90.24,-98.14 73.66,-85.7 60.9,-76.13"/>
<polygon fill="#63b8ff" stroke="#63b8ff" points="62.9,-73.26 52.8,-70.06 58.7,-78.86 62.9,-73.26"/>
</a>
</g>
</g>
<!-- Node4 -->
<g id="Node000004" class="node">
<title>Node4</title>
<g id="a_Node000004"><a xlink:title=" ">
<polygon fill="#e0e0e0" stroke="#999999" points="131.72,-70 89.72,-70 89.72,-53 131.72,-53 131.72,-70"/>
<text text-anchor="middle" x="110.72" y="-59.6" font-family="Helvetica,sans-Serif" font-size="8.00">vector</text>
</a>
</g>
</g>
<!-- Node1&#45;&gt;Node4 -->
<g id="edge3_Node000001_Node000004" class="edge">
<title>Node1&#45;&gt;Node4</title>
<g id="a_edge3_Node000001_Node000004"><a xlink:title=" ">
<path fill="none" stroke="#63b8ff" d="M110.72,-105.97C110.72,-99.19 110.72,-88.97 110.72,-80.13"/>
<polygon fill="#63b8ff" stroke="#63b8ff" points="114.22,-80.06 110.72,-70.06 107.22,-80.06 114.22,-80.06"/>
</a>
</g>
</g>
<!-- Node5 -->
<g id="Node000005" class="node">
<title>Node5</title>
<g id="a_Node000005"><a xlink:title=" ">
<polygon fill="#e0e0e0" stroke="#999999" points="239.22,-70 150.22,-70 150.22,-53 239.22,-53 239.22,-70"/>
<text text-anchor="middle" x="194.72" y="-59.6" font-family="Helvetica,sans-Serif" font-size="8.00">memory_resource</text>
</a>
</g>
</g>
<!-- Node1&#45;&gt;Node5 -->
<g id="edge4_Node000001_Node000005" class="edge">
<title>Node1&#45;&gt;Node5</title>
<g id="a_edge4_Node000001_Node000005"><a xlink:title=" ">
<path fill="none" stroke="#63b8ff" d="M123.12,-105.97C136.39,-97.91 157.7,-84.98 173.62,-75.31"/>
<polygon fill="#63b8ff" stroke="#63b8ff" points="175.55,-78.24 182.28,-70.06 171.91,-72.25 175.55,-78.24"/>
</a>
</g>
</g>
<!-- Node6 -->
<g id="Node000006" class="node">
<title>Node6</title>
<g id="a_Node000006"><a xlink:href="../../d7/d65/intrinsics_8hpp.html" target="_top" xlink:title=" ">
<polygon fill="white" stroke="#666666" points="364.22,-70 257.22,-70 257.22,-53 364.22,-53 364.22,-70"/>
<text text-anchor="middle" x="310.72" y="-59.6" font-family="Helvetica,sans-Serif" font-size="8.00">../../utils/intrinsics.hpp</text>
</a>
</g>
</g>
<!-- Node1&#45;&gt;Node6 -->
<g id="edge5_Node000001_Node000006" class="edge">
<title>Node1&#45;&gt;Node6</title>
<g id="a_edge5_Node000001_Node000006"><a xlink:title=" ">
<path fill="none" stroke="#63b8ff" d="M138.95,-106.3C173.45,-97.5 232.03,-82.57 271.05,-72.62"/>
<polygon fill="#63b8ff" stroke="#63b8ff" points="272.18,-75.94 281.01,-70.08 270.45,-69.16 272.18,-75.94"/>
</a>
</g>
</g>
<!-- Node6&#45;&gt;Node2 -->
<g id="edge7_Node000006_Node000002" class="edge">
<title>Node6&#45;&gt;Node2</title>
<g id="a_edge7_Node000006_Node000002"><a xlink:title=" ">
<path fill="none" stroke="#63b8ff" d="M282.1,-52.97C246.93,-43.73 187.38,-28.07 150.15,-18.29"/>
<polygon fill="#63b8ff" stroke="#63b8ff" points="150.84,-14.85 140.28,-15.69 149.06,-21.62 150.84,-14.85"/>
</a>
</g>
</g>
<!-- Node7 -->
<g id="Node000007" class="node">
<title>Node7</title>
<g id="a_Node000007"><a xlink:title=" ">
<polygon fill="#e0e0e0" stroke="#999999" points="301.72,-17 257.72,-17 257.72,0 301.72,0 301.72,-17"/>
<text text-anchor="middle" x="279.72" y="-6.6" font-family="Helvetica,sans-Serif" font-size="8.00">atomic</text>
</a>
</g>
</g>
<!-- Node6&#45;&gt;Node7 -->
<g id="edge6_Node000006_Node000007" class="edge">
<title>Node6&#45;&gt;Node7</title>
<g id="a_edge6_Node000006_Node000007"><a xlink:title=" ">
<path fill="none" stroke="#63b8ff" d="M306.15,-52.97C301.8,-45.82 295.11,-34.82 289.55,-25.67"/>
<polygon fill="#63b8ff" stroke="#63b8ff" points="292.5,-23.78 284.32,-17.06 286.52,-27.42 292.5,-23.78"/>
</a>
</g>
</g>
<!-- Node8 -->
<g id="Node000008" class="node">
<title>Node8</title>
<g id="a_Node000008"><a xlink:title=" ">
<polygon fill="#e0e0e0" stroke="#999999" points="363.72,-17 319.72,-17 319.72,0 363.72,0 363.72,-17"/>
<text text-anchor="middle" x="341.72" y="-6.6" font-family="Helvetica,sans-Serif" font-size="8.00">cstdlib</text>
</a>
</g>
</g>
<!-- Node6&#45;&gt;Node8 -->
<g id="edge8_Node000006_Node000008" class="edge">
<title>Node6&#45;&gt;Node8</title>
<g id="a_edge8_Node000006_Node000008"><a xlink:title=" ">
<path fill="none" stroke="#63b8ff" d="M315.3,-52.97C319.65,-45.82 326.33,-34.82 331.89,-25.67"/>
<polygon fill="#63b8ff" stroke="#63b8ff" points="334.93,-27.42 337.13,-17.06 328.94,-23.78 334.93,-27.42"/>
</a>
</g>
</g>
</g>
</svg>
