<?xml version="1.0" encoding="UTF-8" standalone="no"?>
<!DOCTYPE svg PUBLIC "-//W3C//DTD SVG 1.1//EN"
 "http://www.w3.org/Graphics/SVG/1.1/DTD/svg11.dtd">
<!-- Generated by graphviz version 2.43.0 (0)
 -->
<!-- Title: heap.hpp Pages: 1 -->
<svg width="342pt" height="78pt"
 viewBox="0.00 0.00 342.00 78.00" xmlns="http://www.w3.org/2000/svg" xmlns:xlink="http://www.w3.org/1999/xlink">
<g id="graph0" class="graph" transform="scale(1 1) rotate(0) translate(4 74)">
<title>heap.hpp</title>
<!-- Node1 -->
<g id="Node000001" class="node">
<title>Node1</title>
<g id="a_Node000001"><a xlink:title=" ">
<polygon fill="#999999" stroke="#666666" points="194,-70 144,-70 144,-53 194,-53 194,-70"/>
<text text-anchor="middle" x="169" y="-59.6" font-family="Helvetica,sans-Serif" font-size="8.00">heap.hpp</text>
</a>
</g>
</g>
<!-- Node2 -->
<g id="Node000002" class="node">
<title>Node2</title>
<g id="a_Node000002"><a xlink:title=" ">
<polygon fill="#e0e0e0" stroke="#999999" points="42,-17 0,-17 0,0 42,0 42,-17"/>
<text text-anchor="middle" x="21" y="-6.6" font-family="Helvetica,sans-Serif" font-size="8.00">cstddef</text>
</a>
</g>
</g>
<!-- Node1&#45;&gt;Node2 -->
<g id="edge1_Node000001_Node000002" class="edge">
<title>Node1&#45;&gt;Node2</title>
<g id="a_edge1_Node000001_Node000002"><a xlink:title=" ">
<path fill="none" stroke="#63b8ff" d="M147.16,-52.97C121.99,-44.3 80.43,-29.98 51.93,-20.16"/>
<polygon fill="#63b8ff" stroke="#63b8ff" points="53.04,-16.84 42.45,-16.89 50.76,-23.46 53.04,-16.84"/>
</a>
</g>
</g>
<!-- Node3 -->
<g id="Node000003" class="node">
<title>Node3</title>
<g id="a_Node000003"><a xlink:title=" ">
<polygon fill="#e0e0e0" stroke="#999999" points="110,-17 60,-17 60,0 110,0 110,-17"/>
<text text-anchor="middle" x="85" y="-6.6" font-family="Helvetica,sans-Serif" font-size="8.00">functional</text>
</a>
</g>
</g>
<!-- Node1&#45;&gt;Node3 -->
<g id="edge2_Node000001_Node000003" class="edge">
<title>Node1&#45;&gt;Node3</title>
<g id="a_edge2_Node000001_Node000003"><a xlink:title=" ">
<path fill="none" stroke="#63b8ff" d="M156.61,-52.97C143.33,-44.91 122.02,-31.98 106.1,-22.31"/>
<polygon fill="#63b8ff" stroke="#63b8ff" points="107.81,-19.25 97.45,-17.06 104.18,-25.24 107.81,-19.25"/>
</a>
</g>
</g>
<!-- Node4 -->
<g id="Node000004" class="node">
<title>Node4</title>
<g id="a_Node000004"><a xlink:title=" ">
<polygon fill="#e0e0e0" stroke="#999999" points="210,-17 128,-17 128,0 210,0 210,-17"/>
<text text-anchor="middle" x="169" y="-6.6" font-family="Helvetica,sans-Serif" font-size="8.00">memory_resource</text>
</a>
</g>
</g>
<!-- Node1&#45;&gt;Node4 -->
<g id="edge3_Node000001_Node000004" class="edge">
<title>Node1&#45;&gt;Node4</title>
<g id="a_edge3_Node000001_Node000004"><a xlink:title=" ">
<path fill="none" stroke="#63b8ff" d="M169,-52.97C169,-46.19 169,-35.97 169,-27.13"/>
<polygon fill="#63b8ff" stroke="#63b8ff" points="172.5,-27.06 169,-17.06 165.5,-27.06 172.5,-27.06"/>
</a>
</g>
</g>
<!-- Node5 -->
<g id="Node000005" class="node">
<title>Node5</title>
<g id="a_Node000005"><a xlink:title=" ">
<polygon fill="#e0e0e0" stroke="#999999" points="278,-17 228,-17 228,0 278,0 278,-17"/>
<text text-anchor="middle" x="253" y="-6.6" font-family="Helvetica,sans-Serif" font-size="8.00">stdexcept</text>
</a>
</g>
</g>
<!-- Node1&#45;&gt;Node5 -->
<g id="edge4_Node000001_Node000005" class="edge">
<title>Node1&#45;&gt;Node5</title>
<g id="a_edge4_Node000001_Node000005"><a xlink:title=" ">
<path fill="none" stroke="#63b8ff" d="M181.39,-52.97C194.67,-44.91 215.98,-31.98 231.9,-22.31"/>
<polygon fill="#63b8ff" stroke="#63b8ff" points="233.82,-25.24 240.55,-17.06 230.19,-19.25 233.82,-25.24"/>
</a>
</g>
</g>
<!-- Node6 -->
<g id="Node000006" class="node">
<title>Node6</title>
<g id="a_Node000006"><a xlink:title=" ">
<polygon fill="#e0e0e0" stroke="#999999" points="334,-17 296,-17 296,0 334,0 334,-17"/>
<text text-anchor="middle" x="315" y="-6.6" font-family="Helvetica,sans-Serif" font-size="8.00">vector</text>
</a>
</g>
</g>
<!-- Node1&#45;&gt;Node6 -->
<g id="edge5_Node000001_Node000006" class="edge">
<title>Node1&#45;&gt;Node6</title>
<g id="a_edge5_Node000001_Node000006"><a xlink:title=" ">
<path fill="none" stroke="#63b8ff" d="M190.54,-52.97C215.83,-44.14 257.89,-29.45 286.02,-19.62"/>
<polygon fill="#63b8ff" stroke="#63b8ff" points="287.42,-22.84 295.7,-16.24 285.11,-16.23 287.42,-22.84"/>
</a>
</g>
</g>
</g>
</svg>
