<?xml version="1.0" encoding="UTF-8" standalone="no"?>
<!DOCTYPE svg PUBLIC "-//W3C//DTD SVG 1.1//EN"
 "http://www.w3.org/Graphics/SVG/1.1/DTD/svg11.dtd">
<!-- Generated by graphviz version 2.43.0 (0)
 -->
<!-- Title: utils.hpp Pages: 1 -->
<svg width="418pt" height="131pt"
 viewBox="0.00 0.00 418.00 131.00" xmlns="http://www.w3.org/2000/svg" xmlns:xlink="http://www.w3.org/1999/xlink">
<g id="graph0" class="graph" transform="scale(1 1) rotate(0) translate(4 127)">
<title>utils.hpp</title>
<!-- Node1 -->
<g id="Node000001" class="node">
<title>Node1</title>
<g id="a_Node000001"><a xlink:title=" ">
<polygon fill="#999999" stroke="#666666" points="187.5,-123 141.5,-123 141.5,-106 187.5,-106 187.5,-123"/>
<text text-anchor="middle" x="164.5" y="-112.6" font-family="Helvetica,sans-Serif" font-size="8.00">utils.hpp</text>
</a>
</g>
</g>
<!-- Node2 -->
<g id="Node000002" class="node">
<title>Node2</title>
<g id="a_Node000002"><a xlink:title=" ">
<polygon fill="#e0e0e0" stroke="#999999" points="35,-70 0,-70 0,-53 35,-53 35,-70"/>
<text text-anchor="middle" x="17.5" y="-59.6" font-family="Helvetica,sans-Serif" font-size="8.00">array</text>
</a>
</g>
</g>
<!-- Node1&#45;&gt;Node2 -->
<g id="edge1_Node000001_Node000002" class="edge">
<title>Node1&#45;&gt;Node2</title>
<g id="a_edge1_Node000001_Node000002"><a xlink:title=" ">
<path fill="none" stroke="#63b8ff" d="M142.81,-105.97C116.78,-96.94 73.1,-81.79 44.8,-71.97"/>
<polygon fill="#63b8ff" stroke="#63b8ff" points="45.72,-68.59 35.13,-68.62 43.43,-75.2 45.72,-68.59"/>
</a>
</g>
</g>
<!-- Node3 -->
<g id="Node000003" class="node">
<title>Node3</title>
<g id="a_Node000003"><a xlink:title=" ">
<polygon fill="#e0e0e0" stroke="#999999" points="91.5,-70 53.5,-70 53.5,-53 91.5,-53 91.5,-70"/>
<text text-anchor="middle" x="72.5" y="-59.6" font-family="Helvetica,sans-Serif" font-size="8.00">cmath</text>
</a>
</g>
</g>
<!-- Node1&#45;&gt;Node3 -->
<g id="edge2_Node000001_Node000003" class="edge">
<title>Node1&#45;&gt;Node3</title>
<g id="a_edge2_Node000001_Node000003"><a xlink:title=" ">
<path fill="none" stroke="#63b8ff" d="M150.93,-105.97C136.25,-97.84 112.61,-84.74 95.12,-75.04"/>
<polygon fill="#63b8ff" stroke="#63b8ff" points="96.57,-71.84 86.13,-70.06 93.18,-77.97 96.57,-71.84"/>
</a>
</g>
</g>
<!-- Node4 -->
<g id="Node000004" class="node">
<title>Node4</title>
<g id="a_Node000004"><a xlink:title=" ">
<polygon fill="#e0e0e0" stroke="#999999" points="235.5,-17 193.5,-17 193.5,0 235.5,0 235.5,-17"/>
<text text-anchor="middle" x="214.5" y="-6.6" font-family="Helvetica,sans-Serif" font-size="8.00">cstddef</text>
</a>
</g>
</g>
<!-- Node1&#45;&gt;Node4 -->
<g id="edge3_Node000001_Node000004" class="edge">
<title>Node1&#45;&gt;Node4</title>
<g id="a_edge3_Node000001_Node000004"><a xlink:title=" ">
<path fill="none" stroke="#63b8ff" d="M156.62,-105.77C145.61,-93.98 128.06,-71 138.5,-53 148.16,-36.34 166.88,-25.51 183.32,-18.83"/>
<polygon fill="#63b8ff" stroke="#63b8ff" points="184.99,-21.94 193.16,-15.19 182.56,-15.37 184.99,-21.94"/>
</a>
</g>
</g>
<!-- Node5 -->
<g id="Node000005" class="node">
<title>Node5</title>
<g id="a_Node000005"><a xlink:title=" ">
<polygon fill="#e0e0e0" stroke="#999999" points="181.5,-70 147.5,-70 147.5,-53 181.5,-53 181.5,-70"/>
<text text-anchor="middle" x="164.5" y="-59.6" font-family="Helvetica,sans-Serif" font-size="8.00">limits</text>
</a>
</g>
</g>
<!-- Node1&#45;&gt;Node5 -->
<g id="edge4_Node000001_Node000005" class="edge">
<title>Node1&#45;&gt;Node5</title>
<g id="a_edge4_Node000001_Node000005"><a xlink:title=" ">
<path fill="none" stroke="#63b8ff" d="M164.5,-105.97C164.5,-99.19 164.5,-88.97 164.5,-80.13"/>
<polygon fill="#63b8ff" stroke="#63b8ff" points="168,-80.06 164.5,-70.06 161,-80.06 168,-80.06"/>
</a>
</g>
</g>
<!-- Node6 -->
<g id="Node000006" class="node">
<title>Node6</title>
<g id="a_Node000006"><a xlink:title=" ">
<polygon fill="#e0e0e0" stroke="#999999" points="235.5,-70 199.5,-70 199.5,-53 235.5,-53 235.5,-70"/>
<text text-anchor="middle" x="217.5" y="-59.6" font-family="Helvetica,sans-Serif" font-size="8.00">string</text>
</a>
</g>
</g>
<!-- Node1&#45;&gt;Node6 -->
<g id="edge5_Node000001_Node000006" class="edge">
<title>Node1&#45;&gt;Node6</title>
<g id="a_edge5_Node000001_Node000006"><a xlink:title=" ">
<path fill="none" stroke="#63b8ff" d="M172.32,-105.97C180.15,-98.44 192.4,-86.65 202.17,-77.25"/>
<polygon fill="#63b8ff" stroke="#63b8ff" points="204.87,-79.51 209.65,-70.06 200.01,-74.47 204.87,-79.51"/>
</a>
</g>
</g>
<!-- Node7 -->
<g id="Node000007" class="node">
<title>Node7</title>
<g id="a_Node000007"><a xlink:title=" ">
<polygon fill="#e0e0e0" stroke="#999999" points="307,-70 254,-70 254,-53 307,-53 307,-70"/>
<text text-anchor="middle" x="280.5" y="-59.6" font-family="Helvetica,sans-Serif" font-size="8.00">type_traits</text>
</a>
</g>
</g>
<!-- Node1&#45;&gt;Node7 -->
<g id="edge6_Node000001_Node000007" class="edge">
<title>Node1&#45;&gt;Node7</title>
<g id="a_edge6_Node000001_Node000007"><a xlink:title=" ">
<path fill="none" stroke="#63b8ff" d="M181.62,-105.97C200.72,-97.58 231.87,-83.88 254.1,-74.11"/>
<polygon fill="#63b8ff" stroke="#63b8ff" points="255.57,-77.28 263.31,-70.06 252.75,-70.88 255.57,-77.28"/>
</a>
</g>
</g>
<!-- Node8 -->
<g id="Node000008" class="node">
<title>Node8</title>
<g id="a_Node000008"><a xlink:href="../../d7/d65/intrinsics_8hpp.html" target="_top" xlink:title=" ">
<polygon fill="white" stroke="#666666" points="410,-70 325,-70 325,-53 410,-53 410,-70"/>
<text text-anchor="middle" x="367.5" y="-59.6" font-family="Helvetica,sans-Serif" font-size="8.00">../utils/intrinsics.hpp</text>
</a>
</g>
</g>
<!-- Node1&#45;&gt;Node8 -->
<g id="edge7_Node000001_Node000008" class="edge">
<title>Node1&#45;&gt;Node8</title>
<g id="a_edge7_Node000001_Node000008"><a xlink:title=" ">
<path fill="none" stroke="#63b8ff" d="M187.79,-107.65C221.94,-99.07 286.08,-82.96 327.77,-72.48"/>
<polygon fill="#63b8ff" stroke="#63b8ff" points="328.75,-75.84 337.6,-70.01 327.05,-69.05 328.75,-75.84"/>
</a>
</g>
</g>
<!-- Node8&#45;&gt;Node4 -->
<g id="edge8_Node000008_Node000004" class="edge">
<title>Node8&#45;&gt;Node4</title>
<g id="a_edge8_Node000008_Node000004"><a xlink:title=" ">
<path fill="none" stroke="#63b8ff" d="M344.92,-52.97C318.6,-44.2 274.95,-29.65 245.47,-19.82"/>
<polygon fill="#63b8ff" stroke="#63b8ff" points="246.28,-16.4 235.69,-16.56 244.07,-23.05 246.28,-16.4"/>
</a>
</g>
</g>
<!-- Node9 -->
<g id="Node000009" class="node">
<title>Node9</title>
<g id="a_Node000009"><a xlink:title=" ">
<polygon fill="#e0e0e0" stroke="#999999" points="386.5,-17 348.5,-17 348.5,0 386.5,0 386.5,-17"/>
<text text-anchor="middle" x="367.5" y="-6.6" font-family="Helvetica,sans-Serif" font-size="8.00">cstdlib</text>
</a>
</g>
</g>
<!-- Node8&#45;&gt;Node9 -->
<g id="edge9_Node000008_Node000009" class="edge">
<title>Node8&#45;&gt;Node9</title>
<g id="a_edge9_Node000008_Node000009"><a xlink:title=" ">
<path fill="none" stroke="#63b8ff" d="M367.5,-52.97C367.5,-46.19 367.5,-35.97 367.5,-27.13"/>
<polygon fill="#63b8ff" stroke="#63b8ff" points="371,-27.06 367.5,-17.06 364,-27.06 371,-27.06"/>
</a>
</g>
</g>
</g>
</svg>
