<?xml version="1.0" encoding="UTF-8" standalone="no"?>
<!DOCTYPE svg PUBLIC "-//W3C//DTD SVG 1.1//EN"
 "http://www.w3.org/Graphics/SVG/1.1/DTD/svg11.dtd">
<!-- Generated by graphviz version 2.43.0 (0)
 -->
<!-- Title: utils.hpp Pages: 1 -->
<svg width="491pt" height="131pt"
 viewBox="0.00 0.00 490.50 131.00" xmlns="http://www.w3.org/2000/svg" xmlns:xlink="http://www.w3.org/1999/xlink">
<g id="graph0" class="graph" transform="scale(1 1) rotate(0) translate(4 127)">
<title>utils.hpp</title>
<!-- Node1 -->
<g id="Node000001" class="node">
<title>Node1</title>
<g id="a_Node000001"><a xlink:title=" ">
<polygon fill="#999999" stroke="#666666" points="225.5,-123 179.5,-123 179.5,-106 225.5,-106 225.5,-123"/>
<text text-anchor="middle" x="202.5" y="-112.6" font-family="Helvetica,sans-Serif" font-size="8.00">utils.hpp</text>
</a>
</g>
</g>
<!-- Node2 -->
<g id="Node000002" class="node">
<title>Node2</title>
<g id="a_Node000002"><a xlink:title=" ">
<polygon fill="#e0e0e0" stroke="#999999" points="35,-70 0,-70 0,-53 35,-53 35,-70"/>
<text text-anchor="middle" x="17.5" y="-59.6" font-family="Helvetica,sans-Serif" font-size="8.00">array</text>
</a>
</g>
</g>
<!-- Node1&#45;&gt;Node2 -->
<g id="edge1_Node000001_Node000002" class="edge">
<title>Node1&#45;&gt;Node2</title>
<g id="a_edge1_Node000001_Node000002"><a xlink:title=" ">
<path fill="none" stroke="#63b8ff" d="M179.47,-107.18C150.44,-99.2 98.77,-85 44.93,-70.11"/>
<polygon fill="#63b8ff" stroke="#63b8ff" points="45.79,-66.72 35.22,-67.43 43.92,-73.47 45.79,-66.72"/>
</a>
</g>
</g>
<!-- Node3 -->
<g id="Node000003" class="node">
<title>Node3</title>
<g id="a_Node000003"><a xlink:title=" ">
<polygon fill="#e0e0e0" stroke="#999999" points="91.5,-70 53.5,-70 53.5,-53 91.5,-53 91.5,-70"/>
<text text-anchor="middle" x="72.5" y="-59.6" font-family="Helvetica,sans-Serif" font-size="8.00">cmath</text>
</a>
</g>
</g>
<!-- Node1&#45;&gt;Node3 -->
<g id="edge2_Node000001_Node000003" class="edge">
<title>Node1&#45;&gt;Node3</title>
<g id="a_edge2_Node000001_Node000003"><a xlink:title=" ">
<path fill="none" stroke="#63b8ff" d="M183.32,-105.97C161.62,-97.46 126.06,-83.51 101.09,-73.72"/>
<polygon fill="#63b8ff" stroke="#63b8ff" points="102.35,-70.45 91.76,-70.06 99.79,-76.97 102.35,-70.45"/>
</a>
</g>
</g>
<!-- Node4 -->
<g id="Node000004" class="node">
<title>Node4</title>
<g id="a_Node000004"><a xlink:title=" ">
<polygon fill="#e0e0e0" stroke="#999999" points="268.5,-17 226.5,-17 226.5,0 268.5,0 268.5,-17"/>
<text text-anchor="middle" x="247.5" y="-6.6" font-family="Helvetica,sans-Serif" font-size="8.00">cstddef</text>
</a>
</g>
</g>
<!-- Node1&#45;&gt;Node4 -->
<g id="edge3_Node000001_Node000004" class="edge">
<title>Node1&#45;&gt;Node4</title>
<g id="a_edge3_Node000001_Node000004"><a xlink:title=" ">
<path fill="none" stroke="#63b8ff" d="M183.23,-105.99C159.32,-95.52 123.4,-75.28 138.5,-53 155.78,-27.5 190.66,-16.95 216.33,-12.58"/>
<polygon fill="#63b8ff" stroke="#63b8ff" points="216.96,-16.03 226.34,-11.11 215.94,-9.1 216.96,-16.03"/>
</a>
</g>
</g>
<!-- Node5 -->
<g id="Node000005" class="node">
<title>Node5</title>
<g id="a_Node000005"><a xlink:title=" ">
<polygon fill="#e0e0e0" stroke="#999999" points="197.5,-70 147.5,-70 147.5,-53 197.5,-53 197.5,-70"/>
<text text-anchor="middle" x="172.5" y="-59.6" font-family="Helvetica,sans-Serif" font-size="8.00">functional</text>
</a>
</g>
</g>
<!-- Node1&#45;&gt;Node5 -->
<g id="edge4_Node000001_Node000005" class="edge">
<title>Node1&#45;&gt;Node5</title>
<g id="a_edge4_Node000001_Node000005"><a xlink:title=" ">
<path fill="none" stroke="#63b8ff" d="M198.07,-105.97C193.91,-98.89 187.53,-88.05 182.18,-78.96"/>
<polygon fill="#63b8ff" stroke="#63b8ff" points="185.03,-76.9 176.94,-70.06 179,-80.45 185.03,-76.9"/>
</a>
</g>
</g>
<!-- Node6 -->
<g id="Node000006" class="node">
<title>Node6</title>
<g id="a_Node000006"><a xlink:title=" ">
<polygon fill="#e0e0e0" stroke="#999999" points="249.5,-70 215.5,-70 215.5,-53 249.5,-53 249.5,-70"/>
<text text-anchor="middle" x="232.5" y="-59.6" font-family="Helvetica,sans-Serif" font-size="8.00">limits</text>
</a>
</g>
</g>
<!-- Node1&#45;&gt;Node6 -->
<g id="edge5_Node000001_Node000006" class="edge">
<title>Node1&#45;&gt;Node6</title>
<g id="a_edge5_Node000001_Node000006"><a xlink:title=" ">
<path fill="none" stroke="#63b8ff" d="M206.93,-105.97C211.09,-98.89 217.47,-88.05 222.82,-78.96"/>
<polygon fill="#63b8ff" stroke="#63b8ff" points="226,-80.45 228.06,-70.06 219.97,-76.9 226,-80.45"/>
</a>
</g>
</g>
<!-- Node7 -->
<g id="Node000007" class="node">
<title>Node7</title>
<g id="a_Node000007"><a xlink:title=" ">
<polygon fill="#e0e0e0" stroke="#999999" points="303.5,-70 267.5,-70 267.5,-53 303.5,-53 303.5,-70"/>
<text text-anchor="middle" x="285.5" y="-59.6" font-family="Helvetica,sans-Serif" font-size="8.00">string</text>
</a>
</g>
</g>
<!-- Node1&#45;&gt;Node7 -->
<g id="edge6_Node000001_Node000007" class="edge">
<title>Node1&#45;&gt;Node7</title>
<g id="a_edge6_Node000001_Node000007"><a xlink:title=" ">
<path fill="none" stroke="#63b8ff" d="M214.75,-105.97C227.86,-97.91 248.92,-84.98 264.65,-75.31"/>
<polygon fill="#63b8ff" stroke="#63b8ff" points="266.52,-78.27 273.2,-70.06 262.85,-72.31 266.52,-78.27"/>
</a>
</g>
</g>
<!-- Node8 -->
<g id="Node000008" class="node">
<title>Node8</title>
<g id="a_Node000008"><a xlink:title=" ">
<polygon fill="#e0e0e0" stroke="#999999" points="375,-70 322,-70 322,-53 375,-53 375,-70"/>
<text text-anchor="middle" x="348.5" y="-59.6" font-family="Helvetica,sans-Serif" font-size="8.00">type_traits</text>
</a>
</g>
</g>
<!-- Node1&#45;&gt;Node8 -->
<g id="edge7_Node000001_Node000008" class="edge">
<title>Node1&#45;&gt;Node8</title>
<g id="a_edge7_Node000001_Node000008"><a xlink:title=" ">
<path fill="none" stroke="#63b8ff" d="M224.04,-105.97C248.63,-97.39 289.05,-83.27 317.13,-73.46"/>
<polygon fill="#63b8ff" stroke="#63b8ff" points="318.58,-76.66 326.87,-70.06 316.27,-70.05 318.58,-76.66"/>
</a>
</g>
</g>
<!-- Node9 -->
<g id="Node000009" class="node">
<title>Node9</title>
<g id="a_Node000009"><a xlink:href="../../d7/d65/intrinsics_8hpp.html" target="_top" xlink:title=" ">
<polygon fill="white" stroke="#666666" points="478,-70 393,-70 393,-53 478,-53 478,-70"/>
<text text-anchor="middle" x="435.5" y="-59.6" font-family="Helvetica,sans-Serif" font-size="8.00">../utils/intrinsics.hpp</text>
</a>
</g>
</g>
<!-- Node1&#45;&gt;Node9 -->
<g id="edge8_Node000001_Node000009" class="edge">
<title>Node1&#45;&gt;Node9</title>
<g id="a_edge8_Node000001_Node000009"><a xlink:title=" ">
<path fill="none" stroke="#63b8ff" d="M225.69,-108.42C264.16,-100 341.81,-83.01 391.1,-72.22"/>
<polygon fill="#63b8ff" stroke="#63b8ff" points="392.14,-75.57 401.16,-70.02 390.64,-68.74 392.14,-75.57"/>
</a>
</g>
</g>
<!-- Node9&#45;&gt;Node4 -->
<g id="edge10_Node000009_Node000004" class="edge">
<title>Node9&#45;&gt;Node4</title>
<g id="a_edge10_Node000009_Node000004"><a xlink:title=" ">
<path fill="none" stroke="#63b8ff" d="M407.76,-52.97C373.27,-43.62 314.57,-27.69 278.59,-17.93"/>
<polygon fill="#63b8ff" stroke="#63b8ff" points="279.21,-14.48 268.65,-15.24 277.38,-21.23 279.21,-14.48"/>
</a>
</g>
</g>
<!-- Node10 -->
<g id="Node000010" class="node">
<title>Node10</title>
<g id="a_Node000010"><a xlink:title=" ">
<polygon fill="#e0e0e0" stroke="#999999" points="426.5,-17 386.5,-17 386.5,0 426.5,0 426.5,-17"/>
<text text-anchor="middle" x="406.5" y="-6.6" font-family="Helvetica,sans-Serif" font-size="8.00">atomic</text>
</a>
</g>
</g>
<!-- Node9&#45;&gt;Node10 -->
<g id="edge9_Node000009_Node000010" class="edge">
<title>Node9&#45;&gt;Node10</title>
<g id="a_edge9_Node000009_Node000010"><a xlink:title=" ">
<path fill="none" stroke="#63b8ff" d="M431.22,-52.97C427.19,-45.89 421.03,-35.05 415.86,-25.96"/>
<polygon fill="#63b8ff" stroke="#63b8ff" points="418.78,-24.02 410.8,-17.06 412.7,-27.48 418.78,-24.02"/>
</a>
</g>
</g>
<!-- Node11 -->
<g id="Node000011" class="node">
<title>Node11</title>
<g id="a_Node000011"><a xlink:title=" ">
<polygon fill="#e0e0e0" stroke="#999999" points="482.5,-17 444.5,-17 444.5,0 482.5,0 482.5,-17"/>
<text text-anchor="middle" x="463.5" y="-6.6" font-family="Helvetica,sans-Serif" font-size="8.00">cstdlib</text>
</a>
</g>
</g>
<!-- Node9&#45;&gt;Node11 -->
<g id="edge11_Node000009_Node000011" class="edge">
<title>Node9&#45;&gt;Node11</title>
<g id="a_edge11_Node000009_Node000011"><a xlink:title=" ">
<path fill="none" stroke="#63b8ff" d="M439.63,-52.97C443.52,-45.89 449.47,-35.05 454.46,-25.96"/>
<polygon fill="#63b8ff" stroke="#63b8ff" points="457.61,-27.51 459.35,-17.06 451.47,-24.14 457.61,-27.51"/>
</a>
</g>
</g>
</g>
</svg>
