<?xml version="1.0" encoding="UTF-8" standalone="no"?>
<!DOCTYPE svg PUBLIC "-//W3C//DTD SVG 1.1//EN"
 "http://www.w3.org/Graphics/SVG/1.1/DTD/svg11.dtd">
<!-- Generated by graphviz version 2.43.0 (0)
 -->
<!-- Title: utils.hpp Pages: 1 -->
<svg width="532pt" height="131pt"
 viewBox="0.00 0.00 532.00 131.00" xmlns="http://www.w3.org/2000/svg" xmlns:xlink="http://www.w3.org/1999/xlink">
<g id="graph0" class="graph" transform="scale(1 1) rotate(0) translate(4 127)">
<title>utils.hpp</title>
<!-- Node1 -->
<g id="Node000001" class="node">
<title>Node1</title>
<g id="a_Node000001"><a xlink:title=" ">
<polygon fill="#999999" stroke="#666666" points="242,-123 190,-123 190,-106 242,-106 242,-123"/>
<text text-anchor="middle" x="216" y="-112.6" font-family="Helvetica,sans-Serif" font-size="8.00">utils.hpp</text>
</a>
</g>
</g>
<!-- Node2 -->
<g id="Node000002" class="node">
<title>Node2</title>
<g id="a_Node000002"><a xlink:title=" ">
<polygon fill="#e0e0e0" stroke="#999999" points="38,-70 0,-70 0,-53 38,-53 38,-70"/>
<text text-anchor="middle" x="19" y="-59.6" font-family="Helvetica,sans-Serif" font-size="8.00">array</text>
</a>
</g>
</g>
<!-- Node1&#45;&gt;Node2 -->
<g id="edge1_Node000001_Node000002" class="edge">
<title>Node1&#45;&gt;Node2</title>
<g id="a_edge1_Node000001_Node000002"><a xlink:title=" ">
<path fill="none" stroke="#63b8ff" d="M189.92,-106.87C158.52,-98.87 103.94,-84.91 47.99,-70.24"/>
<polygon fill="#63b8ff" stroke="#63b8ff" points="48.83,-66.84 38.27,-67.69 47.06,-73.61 48.83,-66.84"/>
</a>
</g>
</g>
<!-- Node3 -->
<g id="Node000003" class="node">
<title>Node3</title>
<g id="a_Node000003"><a xlink:title=" ">
<polygon fill="#e0e0e0" stroke="#999999" points="98,-70 56,-70 56,-53 98,-53 98,-70"/>
<text text-anchor="middle" x="77" y="-59.6" font-family="Helvetica,sans-Serif" font-size="8.00">cmath</text>
</a>
</g>
</g>
<!-- Node1&#45;&gt;Node3 -->
<g id="edge2_Node000001_Node000003" class="edge">
<title>Node1&#45;&gt;Node3</title>
<g id="a_edge2_Node000001_Node000003"><a xlink:title=" ">
<path fill="none" stroke="#63b8ff" d="M195.49,-105.97C172.19,-97.42 133.93,-83.39 107.21,-73.59"/>
<polygon fill="#63b8ff" stroke="#63b8ff" points="108.19,-70.21 97.59,-70.06 105.78,-76.79 108.19,-70.21"/>
</a>
</g>
</g>
<!-- Node4 -->
<g id="Node000004" class="node">
<title>Node4</title>
<g id="a_Node000004"><a xlink:title=" ">
<polygon fill="#e0e0e0" stroke="#999999" points="290.5,-17 243.5,-17 243.5,0 290.5,0 290.5,-17"/>
<text text-anchor="middle" x="267" y="-6.6" font-family="Helvetica,sans-Serif" font-size="8.00">cstddef</text>
</a>
</g>
</g>
<!-- Node1&#45;&gt;Node4 -->
<g id="edge3_Node000001_Node000004" class="edge">
<title>Node1&#45;&gt;Node4</title>
<g id="a_edge3_Node000001_Node000004"><a xlink:title=" ">
<path fill="none" stroke="#63b8ff" d="M193.81,-105.94C167.4,-95.7 128.76,-76.03 145,-53 164.85,-24.85 204.63,-14.81 233.38,-11.29"/>
<polygon fill="#63b8ff" stroke="#63b8ff" points="233.82,-14.76 243.41,-10.27 233.11,-7.8 233.82,-14.76"/>
</a>
</g>
</g>
<!-- Node5 -->
<g id="Node000005" class="node">
<title>Node5</title>
<g id="a_Node000005"><a xlink:title=" ">
<polygon fill="#e0e0e0" stroke="#999999" points="212,-70 154,-70 154,-53 212,-53 212,-70"/>
<text text-anchor="middle" x="183" y="-59.6" font-family="Helvetica,sans-Serif" font-size="8.00">functional</text>
</a>
</g>
</g>
<!-- Node1&#45;&gt;Node5 -->
<g id="edge4_Node000001_Node000005" class="edge">
<title>Node1&#45;&gt;Node5</title>
<g id="a_edge4_Node000001_Node000005"><a xlink:title=" ">
<path fill="none" stroke="#63b8ff" d="M211.13,-105.97C206.5,-98.82 199.38,-87.82 193.47,-78.67"/>
<polygon fill="#63b8ff" stroke="#63b8ff" points="196.26,-76.55 187.89,-70.06 190.38,-80.35 196.26,-76.55"/>
</a>
</g>
</g>
<!-- Node6 -->
<g id="Node000006" class="node">
<title>Node6</title>
<g id="a_Node000006"><a xlink:title=" ">
<polygon fill="#e0e0e0" stroke="#999999" points="268,-70 230,-70 230,-53 268,-53 268,-70"/>
<text text-anchor="middle" x="249" y="-59.6" font-family="Helvetica,sans-Serif" font-size="8.00">limits</text>
</a>
</g>
</g>
<!-- Node1&#45;&gt;Node6 -->
<g id="edge5_Node000001_Node000006" class="edge">
<title>Node1&#45;&gt;Node6</title>
<g id="a_edge5_Node000001_Node000006"><a xlink:title=" ">
<path fill="none" stroke="#63b8ff" d="M220.87,-105.97C225.5,-98.82 232.62,-87.82 238.53,-78.67"/>
<polygon fill="#63b8ff" stroke="#63b8ff" points="241.62,-80.35 244.11,-70.06 235.74,-76.55 241.62,-80.35"/>
</a>
</g>
</g>
<!-- Node7 -->
<g id="Node000007" class="node">
<title>Node7</title>
<g id="a_Node000007"><a xlink:title=" ">
<polygon fill="#e0e0e0" stroke="#999999" points="326,-70 286,-70 286,-53 326,-53 326,-70"/>
<text text-anchor="middle" x="306" y="-59.6" font-family="Helvetica,sans-Serif" font-size="8.00">string</text>
</a>
</g>
</g>
<!-- Node1&#45;&gt;Node7 -->
<g id="edge6_Node000001_Node000007" class="edge">
<title>Node1&#45;&gt;Node7</title>
<g id="a_edge6_Node000001_Node000007"><a xlink:title=" ">
<path fill="none" stroke="#63b8ff" d="M229.28,-105.97C243.64,-97.84 266.76,-84.74 283.87,-75.04"/>
<polygon fill="#63b8ff" stroke="#63b8ff" points="285.69,-78.03 292.67,-70.06 282.24,-71.94 285.69,-78.03"/>
</a>
</g>
</g>
<!-- Node8 -->
<g id="Node000008" class="node">
<title>Node8</title>
<g id="a_Node000008"><a xlink:title=" ">
<polygon fill="#e0e0e0" stroke="#999999" points="403.5,-70 344.5,-70 344.5,-53 403.5,-53 403.5,-70"/>
<text text-anchor="middle" x="374" y="-59.6" font-family="Helvetica,sans-Serif" font-size="8.00">type_traits</text>
</a>
</g>
</g>
<!-- Node1&#45;&gt;Node8 -->
<g id="edge7_Node000001_Node000008" class="edge">
<title>Node1&#45;&gt;Node8</title>
<g id="a_edge7_Node000001_Node000008"><a xlink:title=" ">
<path fill="none" stroke="#63b8ff" d="M239.31,-105.97C266.15,-97.31 310.44,-83.02 340.85,-73.2"/>
<polygon fill="#63b8ff" stroke="#63b8ff" points="342.15,-76.46 350.59,-70.06 340,-69.8 342.15,-76.46"/>
</a>
</g>
</g>
<!-- Node9 -->
<g id="Node000009" class="node">
<title>Node9</title>
<g id="a_Node000009"><a xlink:href="../../d7/d65/intrinsics_8hpp.html" target="_top" xlink:title=" ">
<polygon fill="white" stroke="#666666" points="520.5,-70 421.5,-70 421.5,-53 520.5,-53 520.5,-70"/>
<text text-anchor="middle" x="471" y="-59.6" font-family="Helvetica,sans-Serif" font-size="8.00">../utils/intrinsics.hpp</text>
</a>
</g>
</g>
<!-- Node1&#45;&gt;Node9 -->
<g id="edge8_Node000001_Node000009" class="edge">
<title>Node1&#45;&gt;Node9</title>
<g id="a_edge8_Node000001_Node000009"><a xlink:title=" ">
<path fill="none" stroke="#63b8ff" d="M242.33,-108.23C285.01,-99.7 369.89,-82.72 423.38,-72.02"/>
<polygon fill="#63b8ff" stroke="#63b8ff" points="424.19,-75.43 433.31,-70.04 422.82,-68.57 424.19,-75.43"/>
</a>
</g>
</g>
<!-- Node9&#45;&gt;Node4 -->
<g id="edge10_Node000009_Node000004" class="edge">
<title>Node9&#45;&gt;Node4</title>
<g id="a_edge10_Node000009_Node000004"><a xlink:title=" ">
<path fill="none" stroke="#63b8ff" d="M440.9,-52.97C403.36,-43.59 339.38,-27.59 300.37,-17.84"/>
<polygon fill="#63b8ff" stroke="#63b8ff" points="301.1,-14.42 290.55,-15.39 299.4,-21.21 301.1,-14.42"/>
</a>
</g>
</g>
<!-- Node10 -->
<g id="Node000010" class="node">
<title>Node10</title>
<g id="a_Node000010"><a xlink:title=" ">
<polygon fill="#e0e0e0" stroke="#999999" points="462,-17 418,-17 418,0 462,0 462,-17"/>
<text text-anchor="middle" x="440" y="-6.6" font-family="Helvetica,sans-Serif" font-size="8.00">atomic</text>
</a>
</g>
</g>
<!-- Node9&#45;&gt;Node10 -->
<g id="edge9_Node000009_Node000010" class="edge">
<title>Node9&#45;&gt;Node10</title>
<g id="a_edge9_Node000009_Node000010"><a xlink:title=" ">
<path fill="none" stroke="#63b8ff" d="M466.43,-52.97C462.08,-45.82 455.39,-34.82 449.83,-25.67"/>
<polygon fill="#63b8ff" stroke="#63b8ff" points="452.78,-23.78 444.59,-17.06 446.8,-27.42 452.78,-23.78"/>
</a>
</g>
</g>
<!-- Node11 -->
<g id="Node000011" class="node">
<title>Node11</title>
<g id="a_Node000011"><a xlink:title=" ">
<polygon fill="#e0e0e0" stroke="#999999" points="524,-17 480,-17 480,0 524,0 524,-17"/>
<text text-anchor="middle" x="502" y="-6.6" font-family="Helvetica,sans-Serif" font-size="8.00">cstdlib</text>
</a>
</g>
</g>
<!-- Node9&#45;&gt;Node11 -->
<g id="edge11_Node000009_Node000011" class="edge">
<title>Node9&#45;&gt;Node11</title>
<g id="a_edge11_Node000009_Node000011"><a xlink:title=" ">
<path fill="none" stroke="#63b8ff" d="M475.57,-52.97C479.92,-45.82 486.61,-34.82 492.17,-25.67"/>
<polygon fill="#63b8ff" stroke="#63b8ff" points="495.2,-27.42 497.41,-17.06 489.22,-23.78 495.2,-27.42"/>
</a>
</g>
</g>
</g>
</svg>
