<?xml version="1.0" encoding="UTF-8" standalone="no"?>
<!DOCTYPE svg PUBLIC "-//W3C//DTD SVG 1.1//EN"
 "http://www.w3.org/Graphics/SVG/1.1/DTD/svg11.dtd">
<!-- Generated by graphviz version 2.43.0 (0)
 -->
<!-- Title: utils.hpp Pages: 1 -->
<svg width="1706pt" height="184pt"
 viewBox="0.00 0.00 1705.50 184.00" xmlns="http://www.w3.org/2000/svg" xmlns:xlink="http://www.w3.org/1999/xlink">
<g id="graph0" class="graph" transform="scale(1 1) rotate(0) translate(4 180)">
<title>utils.hpp</title>
<!-- Node1 -->
<g id="Node000001" class="node">
<title>Node1</title>
<g id="a_Node000001"><a xlink:title=" ">
<polygon fill="#999999" stroke="#666666" points="846,-176 800,-176 800,-159 846,-159 846,-176"/>
<text text-anchor="middle" x="823" y="-165.6" font-family="Helvetica,sans-Serif" font-size="8.00">utils.hpp</text>
</a>
</g>
</g>
<!-- Node2 -->
<g id="Node000002" class="node">
<title>Node2</title>
<g id="a_Node000002"><a xlink:href="../../dc/da9/astar_8hpp.html" target="_top" xlink:title=" ">
<polygon fill="white" stroke="#666666" points="617,-17 567,-17 567,0 617,0 617,-17"/>
<text text-anchor="middle" x="592" y="-6.6" font-family="Helvetica,sans-Serif" font-size="8.00">astar.hpp</text>
</a>
</g>
</g>
<!-- Node1&#45;&gt;Node2 -->
<g id="edge1_Node000001_Node000002" class="edge">
<title>Node1&#45;&gt;Node2</title>
<g id="a_edge1_Node000001_Node000002"><a xlink:title=" ">
<path fill="none" stroke="#63b8ff" d="M789.59,-166.18C724.94,-164.78 586.49,-157.71 557,-123 529.49,-90.63 568.92,-36.86 585.37,-17.09"/>
<polygon fill="#63b8ff" stroke="#63b8ff" points="789.6,-169.68 799.67,-166.37 789.73,-162.68 789.6,-169.68"/>
</a>
</g>
</g>
<!-- Node3 -->
<g id="Node000003" class="node">
<title>Node3</title>
<g id="a_Node000003"><a xlink:href="../../d3/d77/best__first_8hpp.html" target="_top" xlink:title=" ">
<polygon fill="white" stroke="#666666" points="204.5,-17 139.5,-17 139.5,0 204.5,0 204.5,-17"/>
<text text-anchor="middle" x="172" y="-6.6" font-family="Helvetica,sans-Serif" font-size="8.00">best_first.hpp</text>
</a>
</g>
</g>
<!-- Node1&#45;&gt;Node3 -->
<g id="edge2_Node000001_Node000003" class="edge">
<title>Node1&#45;&gt;Node3</title>
<g id="a_edge2_Node000001_Node000003"><a xlink:title=" ">
<path fill="none" stroke="#63b8ff" d="M789.5,-167.14C716.69,-167.66 539.21,-164.17 398,-123 310.33,-97.44 215.93,-38.49 183.61,-17.28"/>
<polygon fill="#63b8ff" stroke="#63b8ff" points="789.9,-170.64 799.87,-167.03 789.83,-163.64 789.9,-170.64"/>
</a>
</g>
</g>
<!-- Node4 -->
<g id="Node000004" class="node">
<title>Node4</title>
<g id="a_Node000004"><a xlink:href="../../da/d36/bfs_8hpp.html" target="_top" xlink:title=" ">
<polygon fill="white" stroke="#666666" points="548.5,-17 505.5,-17 505.5,0 548.5,0 548.5,-17"/>
<text text-anchor="middle" x="527" y="-6.6" font-family="Helvetica,sans-Serif" font-size="8.00">bfs.hpp</text>
</a>
</g>
</g>
<!-- Node1&#45;&gt;Node4 -->
<g id="edge3_Node000001_Node000004" class="edge">
<title>Node1&#45;&gt;Node4</title>
<g id="a_edge3_Node000001_Node000004"><a xlink:title=" ">
<path fill="none" stroke="#63b8ff" d="M789.53,-166.01C723.27,-164.32 578.82,-156.75 545,-123 515.77,-93.83 522.04,-37.62 525.51,-17.18"/>
<polygon fill="#63b8ff" stroke="#63b8ff" points="789.77,-169.52 799.84,-166.25 789.92,-162.52 789.77,-169.52"/>
</a>
</g>
</g>
<!-- Node5 -->
<g id="Node000005" class="node">
<title>Node5</title>
<g id="a_Node000005"><a xlink:href="../../d3/dec/dfs_8hpp.html" target="_top" xlink:title=" ">
<polygon fill="white" stroke="#666666" points="121.5,-17 78.5,-17 78.5,0 121.5,0 121.5,-17"/>
<text text-anchor="middle" x="100" y="-6.6" font-family="Helvetica,sans-Serif" font-size="8.00">dfs.hpp</text>
</a>
</g>
</g>
<!-- Node1&#45;&gt;Node5 -->
<g id="edge4_Node000001_Node000005" class="edge">
<title>Node1&#45;&gt;Node5</title>
<g id="a_edge4_Node000001_Node000005"><a xlink:title=" ">
<path fill="none" stroke="#63b8ff" d="M789.53,-167.26C710.98,-168.23 509.26,-165.94 348,-123 252.6,-97.59 148.09,-38.28 112.59,-17.15"/>
<polygon fill="#63b8ff" stroke="#63b8ff" points="789.83,-170.76 799.78,-167.11 789.73,-163.76 789.83,-170.76"/>
</a>
</g>
</g>
<!-- Node6 -->
<g id="Node000006" class="node">
<title>Node6</title>
<g id="a_Node000006"><a xlink:href="../../d6/ded/eidastar_8hpp_source.html" target="_top" xlink:title=" ">
<polygon fill="white" stroke="#666666" points="60,-17 0,-17 0,0 60,0 60,-17"/>
<text text-anchor="middle" x="30" y="-6.6" font-family="Helvetica,sans-Serif" font-size="8.00">eidastar.hpp</text>
</a>
</g>
</g>
<!-- Node1&#45;&gt;Node6 -->
<g id="edge5_Node000001_Node000006" class="edge">
<title>Node1&#45;&gt;Node6</title>
<g id="a_edge5_Node000001_Node000006"><a xlink:title=" ">
<path fill="none" stroke="#63b8ff" d="M789.58,-165.17C688.75,-160.92 388.69,-146.58 294,-123 192.82,-97.81 80.89,-38.1 43.2,-17.02"/>
<polygon fill="#63b8ff" stroke="#63b8ff" points="789.65,-168.67 799.79,-165.59 789.94,-161.68 789.65,-168.67"/>
</a>
</g>
</g>
<!-- Node7 -->
<g id="Node000007" class="node">
<title>Node7</title>
<g id="a_Node000007"><a xlink:href="../../dd/d67/eidbstar_8hpp_source.html" target="_top" xlink:title=" ">
<polygon fill="white" stroke="#666666" points="283,-17 223,-17 223,0 283,0 283,-17"/>
<text text-anchor="middle" x="253" y="-6.6" font-family="Helvetica,sans-Serif" font-size="8.00">eidbstar.hpp</text>
</a>
</g>
</g>
<!-- Node1&#45;&gt;Node7 -->
<g id="edge6_Node000001_Node000007" class="edge">
<title>Node1&#45;&gt;Node7</title>
<g id="a_edge6_Node000001_Node000007"><a xlink:title=" ">
<path fill="none" stroke="#63b8ff" d="M789.92,-164.55C709.45,-159.52 505.4,-144.93 441,-123 365.93,-97.43 288.74,-38.48 262.43,-17.28"/>
<polygon fill="#63b8ff" stroke="#63b8ff" points="789.79,-168.05 799.98,-165.17 790.22,-161.06 789.79,-168.05"/>
</a>
</g>
</g>
<!-- Node8 -->
<g id="Node000008" class="node">
<title>Node8</title>
<g id="a_Node000008"><a xlink:href="../../dd/d95/eiddfs_8hpp_source.html" target="_top" xlink:title=" ">
<polygon fill="white" stroke="#666666" points="422.5,-17 369.5,-17 369.5,0 422.5,0 422.5,-17"/>
<text text-anchor="middle" x="396" y="-6.6" font-family="Helvetica,sans-Serif" font-size="8.00">eiddfs.hpp</text>
</a>
</g>
</g>
<!-- Node1&#45;&gt;Node8 -->
<g id="edge7_Node000001_Node000008" class="edge">
<title>Node1&#45;&gt;Node8</title>
<g id="a_edge7_Node000001_Node000008"><a xlink:title=" ">
<path fill="none" stroke="#63b8ff" d="M789.69,-164.61C719.1,-160.16 556.94,-147.53 508,-123 456.52,-97.2 414.76,-38.4 400.91,-17.25"/>
<polygon fill="#63b8ff" stroke="#63b8ff" points="789.61,-168.11 799.8,-165.23 790.04,-161.12 789.61,-168.11"/>
</a>
</g>
</g>
<!-- Node9 -->
<g id="Node000009" class="node">
<title>Node9</title>
<g id="a_Node000009"><a xlink:href="../../d8/d62/existence__set_8hpp.html" target="_top" xlink:title=" ">
<polygon fill="white" stroke="#666666" points="646,-123 566,-123 566,-106 646,-106 646,-123"/>
<text text-anchor="middle" x="606" y="-112.6" font-family="Helvetica,sans-Serif" font-size="8.00">existence_set.hpp</text>
</a>
</g>
</g>
<!-- Node1&#45;&gt;Node9 -->
<g id="edge8_Node000001_Node000009" class="edge">
<title>Node1&#45;&gt;Node9</title>
<g id="a_edge8_Node000001_Node000009"><a xlink:title=" ">
<path fill="none" stroke="#63b8ff" d="M789.97,-158.74C748.8,-149.06 678.92,-132.64 638.17,-123.06"/>
<polygon fill="#63b8ff" stroke="#63b8ff" points="789.24,-162.16 799.78,-161.04 790.84,-155.35 789.24,-162.16"/>
</a>
</g>
</g>
<!-- Node10 -->
<g id="Node000010" class="node">
<title>Node10</title>
<g id="a_Node000010"><a xlink:href="../../d8/d12/flood_8hpp.html" target="_top" xlink:title=" ">
<polygon fill="white" stroke="#666666" points="351,-17 301,-17 301,0 351,0 351,-17"/>
<text text-anchor="middle" x="326" y="-6.6" font-family="Helvetica,sans-Serif" font-size="8.00">flood.hpp</text>
</a>
</g>
</g>
<!-- Node1&#45;&gt;Node10 -->
<g id="edge39_Node000001_Node000010" class="edge">
<title>Node1&#45;&gt;Node10</title>
<g id="a_edge39_Node000001_Node000010"><a xlink:title=" ">
<path fill="none" stroke="#63b8ff" d="M789.45,-164.45C714.2,-159.52 534.16,-145.65 478,-123 414.47,-97.37 353.83,-38.46 333.33,-17.27"/>
<polygon fill="#63b8ff" stroke="#63b8ff" points="789.56,-167.97 799.76,-165.12 790.01,-160.98 789.56,-167.97"/>
</a>
</g>
</g>
<!-- Node11 -->
<g id="Node000011" class="node">
<title>Node11</title>
<g id="a_Node000011"><a xlink:href="../../d1/d5a/fstar_8hpp.html" target="_top" xlink:title=" ">
<polygon fill="white" stroke="#666666" points="487.5,-17 440.5,-17 440.5,0 487.5,0 487.5,-17"/>
<text text-anchor="middle" x="464" y="-6.6" font-family="Helvetica,sans-Serif" font-size="8.00">fstar.hpp</text>
</a>
</g>
</g>
<!-- Node1&#45;&gt;Node11 -->
<g id="edge40_Node000001_Node000011" class="edge">
<title>Node1&#45;&gt;Node11</title>
<g id="a_edge40_Node000001_Node000011"><a xlink:title=" ">
<path fill="none" stroke="#63b8ff" d="M789.64,-165.14C722.05,-161.81 571.82,-151.35 530,-123 490.76,-96.4 471.71,-38.1 465.95,-17.17"/>
<polygon fill="#63b8ff" stroke="#63b8ff" points="789.59,-168.64 799.75,-165.61 789.92,-161.65 789.59,-168.64"/>
</a>
</g>
</g>
<!-- Node12 -->
<g id="Node000012" class="node">
<title>Node12</title>
<g id="a_Node000012"><a xlink:href="../../de/d94/gbfs_8hpp_source.html" target="_top" xlink:title=" ">
<polygon fill="white" stroke="#666666" points="757.5,-17 710.5,-17 710.5,0 757.5,0 757.5,-17"/>
<text text-anchor="middle" x="734" y="-6.6" font-family="Helvetica,sans-Serif" font-size="8.00">gbfs.hpp</text>
</a>
</g>
</g>
<!-- Node1&#45;&gt;Node12 -->
<g id="edge41_Node000001_Node000012" class="edge">
<title>Node1&#45;&gt;Node12</title>
<g id="a_edge41_Node000001_Node000012"><a xlink:title=" ">
<path fill="none" stroke="#63b8ff" d="M797.32,-154.19C784.59,-146.83 770.03,-136.31 761,-123 737.68,-88.64 734.4,-36.53 734.01,-17.13"/>
<polygon fill="#63b8ff" stroke="#63b8ff" points="795.71,-157.3 806.17,-158.98 799.05,-151.14 795.71,-157.3"/>
</a>
</g>
</g>
<!-- Node13 -->
<g id="Node000013" class="node">
<title>Node13</title>
<g id="a_Node000013"><a xlink:href="../../d4/df2/gdfs_8hpp_source.html" target="_top" xlink:title=" ">
<polygon fill="white" stroke="#666666" points="829.5,-17 782.5,-17 782.5,0 829.5,0 829.5,-17"/>
<text text-anchor="middle" x="806" y="-6.6" font-family="Helvetica,sans-Serif" font-size="8.00">gdfs.hpp</text>
</a>
</g>
</g>
<!-- Node1&#45;&gt;Node13 -->
<g id="edge42_Node000001_Node000013" class="edge">
<title>Node1&#45;&gt;Node13</title>
<g id="a_edge42_Node000001_Node000013"><a xlink:title=" ">
<path fill="none" stroke="#63b8ff" d="M851.29,-154.26C864.04,-147.13 877.82,-136.8 885,-123 888.49,-116.3 885.63,-113.53 885,-106 882.99,-82.19 889.32,-72.83 876,-53 864.35,-35.66 843.22,-23.95 827.21,-17.09"/>
<polygon fill="#63b8ff" stroke="#63b8ff" points="849.59,-151.2 842.3,-158.88 852.79,-157.42 849.59,-151.2"/>
</a>
</g>
</g>
<!-- Node14 -->
<g id="Node000014" class="node">
<title>Node14</title>
<g id="a_Node000014"><a xlink:href="../../d3/d3e/gjps_8hpp_source.html" target="_top" xlink:title=" ">
<polygon fill="white" stroke="#666666" points="1184.5,-17 1137.5,-17 1137.5,0 1184.5,0 1184.5,-17"/>
<text text-anchor="middle" x="1161" y="-6.6" font-family="Helvetica,sans-Serif" font-size="8.00">gjps.hpp</text>
</a>
</g>
</g>
<!-- Node1&#45;&gt;Node14 -->
<g id="edge43_Node000001_Node000014" class="edge">
<title>Node1&#45;&gt;Node14</title>
<g id="a_edge43_Node000001_Node000014"><a xlink:title=" ">
<path fill="none" stroke="#63b8ff" d="M856.11,-161.03C890.19,-154.66 944.35,-142.45 988,-123 1055.92,-92.73 1127.11,-37.2 1151.88,-17.06"/>
<polygon fill="#63b8ff" stroke="#63b8ff" points="855.42,-157.6 846.2,-162.82 856.67,-164.49 855.42,-157.6"/>
</a>
</g>
</g>
<!-- Node15 -->
<g id="Node000015" class="node">
<title>Node15</title>
<g id="a_Node000015"><a xlink:href="../../d1/def/gstar_8hpp_source.html" target="_top" xlink:title=" ">
<polygon fill="white" stroke="#666666" points="901,-17 851,-17 851,0 901,0 901,-17"/>
<text text-anchor="middle" x="876" y="-6.6" font-family="Helvetica,sans-Serif" font-size="8.00">gstar.hpp</text>
</a>
</g>
</g>
<!-- Node1&#45;&gt;Node15 -->
<g id="edge49_Node000001_Node000015" class="edge">
<title>Node1&#45;&gt;Node15</title>
<g id="a_edge49_Node000001_Node000015"><a xlink:title=" ">
<path fill="none" stroke="#63b8ff" d="M855.89,-156.75C872.22,-150.06 890.45,-139.36 900,-123 920.71,-87.51 893.17,-36.51 881.13,-17.25"/>
<polygon fill="#63b8ff" stroke="#63b8ff" points="854.21,-153.64 846.07,-160.41 856.66,-160.2 854.21,-153.64"/>
</a>
</g>
</g>
<!-- Node16 -->
<g id="Node000016" class="node">
<title>Node16</title>
<g id="a_Node000016"><a xlink:href="../../d9/de6/jps_8hpp_source.html" target="_top" xlink:title=" ">
<polygon fill="white" stroke="#666666" points="1271,-17 1229,-17 1229,0 1271,0 1271,-17"/>
<text text-anchor="middle" x="1250" y="-6.6" font-family="Helvetica,sans-Serif" font-size="8.00">jps.hpp</text>
</a>
</g>
</g>
<!-- Node1&#45;&gt;Node16 -->
<g id="edge61_Node000001_Node000016" class="edge">
<title>Node1&#45;&gt;Node16</title>
<g id="a_edge61_Node000001_Node000016"><a xlink:title=" ">
<path fill="none" stroke="#63b8ff" d="M856.18,-166.03C951.04,-164.3 1221.81,-156.47 1303,-123 1341.97,-106.93 1391.06,-87.61 1367,-53 1345.35,-21.86 1298.63,-12.97 1271.23,-10.46"/>
<polygon fill="#63b8ff" stroke="#63b8ff" points="855.95,-162.54 846.01,-166.21 856.07,-169.53 855.95,-162.54"/>
</a>
</g>
</g>
<!-- Node17 -->
<g id="Node000017" class="node">
<title>Node17</title>
<g id="a_Node000017"><a xlink:href="../../d2/d1c/solver_8hpp.html" target="_top" xlink:title=" ">
<polygon fill="white" stroke="#666666" points="645.5,-70 592.5,-70 592.5,-53 645.5,-53 645.5,-70"/>
<text text-anchor="middle" x="619" y="-59.6" font-family="Helvetica,sans-Serif" font-size="8.00">solver.hpp</text>
</a>
</g>
</g>
<!-- Node1&#45;&gt;Node17 -->
<g id="edge63_Node000001_Node000017" class="edge">
<title>Node1&#45;&gt;Node17</title>
<g id="a_edge63_Node000001_Node000017"><a xlink:title=" ">
<path fill="none" stroke="#63b8ff" d="M790.25,-158.2C764.31,-150.91 727.64,-138.97 698,-123 669.71,-107.76 640.83,-82.73 627.14,-70.18"/>
<polygon fill="#63b8ff" stroke="#63b8ff" points="789.4,-161.6 799.97,-160.86 791.24,-154.85 789.4,-161.6"/>
</a>
</g>
</g>
<!-- Node19 -->
<g id="Node000019" class="node">
<title>Node19</title>
<g id="a_Node000019"><a xlink:href="../../db/df9/idastar_8hpp_source.html" target="_top" xlink:title=" ">
<polygon fill="white" stroke="#666666" points="977,-17 921,-17 921,0 977,0 977,-17"/>
<text text-anchor="middle" x="949" y="-6.6" font-family="Helvetica,sans-Serif" font-size="8.00">idastar.hpp</text>
</a>
</g>
</g>
<!-- Node1&#45;&gt;Node19 -->
<g id="edge58_Node000001_Node000019" class="edge">
<title>Node1&#45;&gt;Node19</title>
<g id="a_edge58_Node000001_Node000019"><a xlink:title=" ">
<path fill="none" stroke="#63b8ff" d="M856.02,-159.03C876.63,-152.73 902.16,-141.66 918,-123 945.24,-90.93 948.71,-36.98 949.03,-17.13"/>
<polygon fill="#63b8ff" stroke="#63b8ff" points="855.04,-155.67 846.36,-161.75 856.94,-162.41 855.04,-155.67"/>
</a>
</g>
</g>
<!-- Node20 -->
<g id="Node000020" class="node">
<title>Node20</title>
<g id="a_Node000020"><a xlink:href="../../d1/d24/idbstar_8hpp_source.html" target="_top" xlink:title=" ">
<polygon fill="white" stroke="#666666" points="1052,-17 996,-17 996,0 1052,0 1052,-17"/>
<text text-anchor="middle" x="1024" y="-6.6" font-family="Helvetica,sans-Serif" font-size="8.00">idbstar.hpp</text>
</a>
</g>
</g>
<!-- Node1&#45;&gt;Node20 -->
<g id="edge59_Node000001_Node000020" class="edge">
<title>Node1&#45;&gt;Node20</title>
<g id="a_edge59_Node000001_Node000020"><a xlink:title=" ">
<path fill="none" stroke="#63b8ff" d="M855.89,-159.31C880.3,-152.79 913.47,-141.34 938,-123 978.99,-92.36 1009.92,-37.06 1020.26,-17.01"/>
<polygon fill="#63b8ff" stroke="#63b8ff" points="854.86,-155.96 846.02,-161.81 856.57,-162.75 854.86,-155.96"/>
</a>
</g>
</g>
<!-- Node21 -->
<g id="Node000021" class="node">
<title>Node21</title>
<g id="a_Node000021"><a xlink:href="../../df/d71/iddfs_8hpp_source.html" target="_top" xlink:title=" ">
<polygon fill="white" stroke="#666666" points="1119.5,-17 1070.5,-17 1070.5,0 1119.5,0 1119.5,-17"/>
<text text-anchor="middle" x="1095" y="-6.6" font-family="Helvetica,sans-Serif" font-size="8.00">iddfs.hpp</text>
</a>
</g>
</g>
<!-- Node1&#45;&gt;Node21 -->
<g id="edge60_Node000001_Node000021" class="edge">
<title>Node1&#45;&gt;Node21</title>
<g id="a_edge60_Node000001_Node000021"><a xlink:title=" ">
<path fill="none" stroke="#63b8ff" d="M856.1,-160.1C885.25,-153.56 928.2,-141.68 962,-123 1017,-92.61 1070.01,-37.16 1088.29,-17.04"/>
<polygon fill="#63b8ff" stroke="#63b8ff" points="855.07,-156.74 846.03,-162.27 856.54,-163.58 855.07,-156.74"/>
</a>
</g>
</g>
<!-- Node22 -->
<g id="Node000022" class="node">
<title>Node22</title>
<g id="a_Node000022"><a xlink:href="../../d9/de9/graph_8hpp_source.html" target="_top" xlink:title=" ">
<polygon fill="white" stroke="#666666" points="1357.5,-70 1304.5,-70 1304.5,-53 1357.5,-53 1357.5,-70"/>
<text text-anchor="middle" x="1331" y="-59.6" font-family="Helvetica,sans-Serif" font-size="8.00">graph.hpp</text>
</a>
</g>
</g>
<!-- Node1&#45;&gt;Node22 -->
<g id="edge44_Node000001_Node000022" class="edge">
<title>Node1&#45;&gt;Node22</title>
<g id="a_edge44_Node000001_Node000022"><a xlink:title=" ">
<path fill="none" stroke="#63b8ff" d="M856.36,-166.5C948.62,-166.02 1205.3,-161.18 1279,-123 1302.37,-110.9 1319.69,-83.43 1327.07,-70.08"/>
<polygon fill="#63b8ff" stroke="#63b8ff" points="856.18,-163 846.19,-166.54 856.2,-170 856.18,-163"/>
</a>
</g>
</g>
<!-- Node23 -->
<g id="Node000023" class="node">
<title>Node23</title>
<g id="a_Node000023"><a xlink:href="../../dc/d8a/grid_8hpp.html" target="_top" xlink:title=" ">
<polygon fill="white" stroke="#666666" points="1270,-123 1224,-123 1224,-106 1270,-106 1270,-123"/>
<text text-anchor="middle" x="1247" y="-112.6" font-family="Helvetica,sans-Serif" font-size="8.00">grid.hpp</text>
</a>
</g>
</g>
<!-- Node1&#45;&gt;Node23 -->
<g id="edge45_Node000001_Node000023" class="edge">
<title>Node1&#45;&gt;Node23</title>
<g id="a_edge45_Node000001_Node000023"><a xlink:title=" ">
<path fill="none" stroke="#63b8ff" d="M856.21,-162.51C939.02,-152.55 1153.08,-126.8 1223.88,-118.28"/>
<polygon fill="#63b8ff" stroke="#63b8ff" points="855.61,-159.05 846.1,-163.72 856.44,-166 855.61,-159.05"/>
</a>
</g>
</g>
<!-- Node24 -->
<g id="Node000024" class="node">
<title>Node24</title>
<g id="a_Node000024"><a xlink:href="../../d9/df8/heterogeneous__pool_8hpp.html" target="_top" xlink:title=" ">
<polygon fill="white" stroke="#666666" points="876,-123 770,-123 770,-106 876,-106 876,-123"/>
<text text-anchor="middle" x="823" y="-112.6" font-family="Helvetica,sans-Serif" font-size="8.00">heterogeneous_pool.hpp</text>
</a>
</g>
</g>
<!-- Node1&#45;&gt;Node24 -->
<g id="edge50_Node000001_Node000024" class="edge">
<title>Node1&#45;&gt;Node24</title>
<g id="a_edge50_Node000001_Node000024"><a xlink:title=" ">
<path fill="none" stroke="#63b8ff" d="M823,-148.91C823,-140.08 823,-129.85 823,-123.06"/>
<polygon fill="#63b8ff" stroke="#63b8ff" points="819.5,-148.97 823,-158.97 826.5,-148.97 819.5,-148.97"/>
</a>
</g>
</g>
<!-- Node26 -->
<g id="Node000026" class="node">
<title>Node26</title>
<g id="a_Node000026"><a xlink:href="../../df/d24/heuristics_8hpp.html" target="_top" xlink:title=" ">
<polygon fill="white" stroke="#666666" points="1469.5,-123 1404.5,-123 1404.5,-106 1469.5,-106 1469.5,-123"/>
<text text-anchor="middle" x="1437" y="-112.6" font-family="Helvetica,sans-Serif" font-size="8.00">heuristics.hpp</text>
</a>
</g>
</g>
<!-- Node1&#45;&gt;Node26 -->
<g id="edge56_Node000001_Node000026" class="edge">
<title>Node1&#45;&gt;Node26</title>
<g id="a_edge56_Node000001_Node000026"><a xlink:title=" ">
<path fill="none" stroke="#63b8ff" d="M856.13,-164.91C943.6,-160.49 1187.87,-146.84 1390,-123 1394.68,-122.45 1399.6,-121.77 1404.43,-121.05"/>
<polygon fill="#63b8ff" stroke="#63b8ff" points="855.83,-161.42 846.02,-165.41 856.18,-168.41 855.83,-161.42"/>
</a>
</g>
</g>
<!-- Node27 -->
<g id="Node000027" class="node">
<title>Node27</title>
<g id="a_Node000027"><a xlink:href="../../d5/d3c/homogeneous__pool_8hpp.html" target="_top" xlink:title=" ">
<polygon fill="white" stroke="#666666" points="1590.5,-123 1487.5,-123 1487.5,-106 1590.5,-106 1590.5,-123"/>
<text text-anchor="middle" x="1539" y="-112.6" font-family="Helvetica,sans-Serif" font-size="8.00">homogeneous_pool.hpp</text>
</a>
</g>
</g>
<!-- Node1&#45;&gt;Node27 -->
<g id="edge57_Node000001_Node000027" class="edge">
<title>Node1&#45;&gt;Node27</title>
<g id="a_edge57_Node000001_Node000027"><a xlink:title=" ">
<path fill="none" stroke="#63b8ff" d="M856.31,-164.98C952.81,-160.42 1240.8,-145.77 1479,-123 1481.72,-122.74 1484.5,-122.46 1487.31,-122.15"/>
<polygon fill="#63b8ff" stroke="#63b8ff" points="856.11,-161.48 846.28,-165.45 856.43,-168.47 856.11,-161.48"/>
</a>
</g>
</g>
<!-- Node28 -->
<g id="Node000028" class="node">
<title>Node28</title>
<g id="a_Node000028"><a xlink:href="../../d4/d99/monotonic__pool_8hpp.html" target="_top" xlink:title=" ">
<polygon fill="white" stroke="#666666" points="1697.5,-123 1608.5,-123 1608.5,-106 1697.5,-106 1697.5,-123"/>
<text text-anchor="middle" x="1653" y="-112.6" font-family="Helvetica,sans-Serif" font-size="8.00">monotonic_pool.hpp</text>
</a>
</g>
</g>
<!-- Node1&#45;&gt;Node28 -->
<g id="edge62_Node000001_Node000028" class="edge">
<title>Node1&#45;&gt;Node28</title>
<g id="a_edge62_Node000001_Node000028"><a xlink:title=" ">
<path fill="none" stroke="#63b8ff" d="M856.52,-165.64C964.52,-162.64 1313.04,-151.28 1600,-123 1602.77,-122.73 1605.63,-122.41 1608.5,-122.08"/>
<polygon fill="#63b8ff" stroke="#63b8ff" points="856.16,-162.15 846.26,-165.92 856.35,-169.14 856.16,-162.15"/>
</a>
</g>
</g>
<!-- Node9&#45;&gt;Node2 -->
<g id="edge9_Node000009_Node000002" class="edge">
<title>Node9&#45;&gt;Node2</title>
<g id="a_edge9_Node000009_Node000002"><a xlink:title=" ">
<path fill="none" stroke="#63b8ff" d="M595.1,-97.45C590.38,-89.55 585.4,-79.67 583,-70 578.35,-51.24 584.86,-28.58 589.01,-17.04"/>
<polygon fill="#63b8ff" stroke="#63b8ff" points="592.2,-99.41 600.53,-105.95 598.1,-95.64 592.2,-99.41"/>
</a>
</g>
</g>
<!-- Node9&#45;&gt;Node3 -->
<g id="edge10_Node000009_Node000003" class="edge">
<title>Node9&#45;&gt;Node3</title>
<g id="a_edge10_Node000009_Node000003"><a xlink:title=" ">
<path fill="none" stroke="#63b8ff" d="M564.46,-103.55C478,-82.83 280.36,-35.47 203.44,-17.03"/>
<polygon fill="#63b8ff" stroke="#63b8ff" points="563.9,-107.01 574.44,-105.94 565.53,-100.2 563.9,-107.01"/>
</a>
</g>
</g>
<!-- Node9&#45;&gt;Node4 -->
<g id="edge11_Node000009_Node000004" class="edge">
<title>Node9&#45;&gt;Node4</title>
<g id="a_edge11_Node000009_Node000004"><a xlink:title=" ">
<path fill="none" stroke="#63b8ff" d="M594.01,-97.71C576.77,-75.01 545.64,-34.04 532.79,-17.12"/>
<polygon fill="#63b8ff" stroke="#63b8ff" points="591.23,-99.84 600.06,-105.68 596.8,-95.6 591.23,-99.84"/>
</a>
</g>
</g>
<!-- Node9&#45;&gt;Node5 -->
<g id="edge12_Node000009_Node000005" class="edge">
<title>Node9&#45;&gt;Node5</title>
<g id="a_edge12_Node000009_Node000005"><a xlink:title=" ">
<path fill="none" stroke="#63b8ff" d="M555.96,-105.43C506.15,-97.21 427.59,-83.75 360,-70 257.21,-49.08 232,-41.5 130,-17 127.29,-16.35 124.44,-15.65 121.62,-14.96"/>
<polygon fill="#63b8ff" stroke="#63b8ff" points="555.39,-108.88 565.83,-107.05 556.53,-101.97 555.39,-108.88"/>
</a>
</g>
</g>
<!-- Node9&#45;&gt;Node10 -->
<g id="edge13_Node000009_Node000010" class="edge">
<title>Node9&#45;&gt;Node10</title>
<g id="a_edge13_Node000009_Node000010"><a xlink:title=" ">
<path fill="none" stroke="#63b8ff" d="M575.81,-102.29C518.4,-80.96 394.85,-35.07 346.24,-17.02"/>
<polygon fill="#63b8ff" stroke="#63b8ff" points="574.82,-105.65 585.41,-105.85 577.26,-99.09 574.82,-105.65"/>
</a>
</g>
</g>
<!-- Node9&#45;&gt;Node11 -->
<g id="edge14_Node000009_Node000011" class="edge">
<title>Node9&#45;&gt;Node11</title>
<g id="a_edge14_Node000009_Node000011"><a xlink:title=" ">
<path fill="none" stroke="#63b8ff" d="M587.25,-99.77C556.95,-77.58 498.23,-34.57 474.41,-17.12"/>
<polygon fill="#63b8ff" stroke="#63b8ff" points="585.19,-102.6 595.33,-105.68 589.33,-96.95 585.19,-102.6"/>
</a>
</g>
</g>
<!-- Node9&#45;&gt;Node12 -->
<g id="edge15_Node000009_Node000012" class="edge">
<title>Node9&#45;&gt;Node12</title>
<g id="a_edge15_Node000009_Node000012"><a xlink:title=" ">
<path fill="none" stroke="#63b8ff" d="M623.61,-99.19C651.12,-76.84 703.33,-34.42 724.62,-17.12"/>
<polygon fill="#63b8ff" stroke="#63b8ff" points="621.17,-96.66 615.62,-105.68 625.59,-102.09 621.17,-96.66"/>
</a>
</g>
</g>
<!-- Node9&#45;&gt;Node13 -->
<g id="edge16_Node000009_Node000013" class="edge">
<title>Node9&#45;&gt;Node13</title>
<g id="a_edge16_Node000009_Node000013"><a xlink:title=" ">
<path fill="none" stroke="#63b8ff" d="M629.64,-101.21C671.48,-79.45 757.39,-34.78 791.54,-17.02"/>
<polygon fill="#63b8ff" stroke="#63b8ff" points="627.96,-98.13 620.71,-105.85 631.19,-104.34 627.96,-98.13"/>
</a>
</g>
</g>
<!-- Node9&#45;&gt;Node14 -->
<g id="edge17_Node000009_Node000014" class="edge">
<title>Node9&#45;&gt;Node14</title>
<g id="a_edge17_Node000009_Node000014"><a xlink:title=" ">
<path fill="none" stroke="#63b8ff" d="M656.16,-107.04C713.76,-99.36 811.02,-85.6 894,-70 999.22,-50.21 1024.66,-40.99 1129,-17 1131.67,-16.39 1134.46,-15.74 1137.24,-15.09"/>
<polygon fill="#63b8ff" stroke="#63b8ff" points="655.68,-103.57 646.22,-108.35 656.59,-110.51 655.68,-103.57"/>
</a>
</g>
</g>
<!-- Node9&#45;&gt;Node15 -->
<g id="edge18_Node000009_Node000015" class="edge">
<title>Node9&#45;&gt;Node15</title>
<g id="a_edge18_Node000009_Node000015"><a xlink:title=" ">
<path fill="none" stroke="#63b8ff" d="M656.48,-112.86C726.7,-110.78 848.36,-102.45 876,-70 888.67,-55.13 882.93,-29.93 878.84,-17.26"/>
<polygon fill="#63b8ff" stroke="#63b8ff" points="656,-109.37 646.09,-113.13 656.18,-116.37 656,-109.37"/>
</a>
</g>
</g>
<!-- Node9&#45;&gt;Node16 -->
<g id="edge19_Node000009_Node000016" class="edge">
<title>Node9&#45;&gt;Node16</title>
<g id="a_edge19_Node000009_Node000016"><a xlink:title=" ">
<path fill="none" stroke="#63b8ff" d="M656.27,-108.27C723.26,-101.05 845.4,-86.96 949,-70 1054.73,-52.69 1179.99,-25.27 1228.93,-14.28"/>
<polygon fill="#63b8ff" stroke="#63b8ff" points="655.58,-104.83 646.01,-109.37 656.32,-111.79 655.58,-104.83"/>
</a>
</g>
</g>
<!-- Node9&#45;&gt;Node17 -->
<g id="edge20_Node000009_Node000017" class="edge">
<title>Node9&#45;&gt;Node17</title>
<g id="a_edge20_Node000009_Node000017"><a xlink:title=" ">
<path fill="none" stroke="#63b8ff" d="M610.41,-96.2C612.68,-87.31 615.32,-76.92 617.07,-70.06"/>
<polygon fill="#63b8ff" stroke="#63b8ff" points="607,-95.42 607.92,-105.97 613.78,-97.15 607,-95.42"/>
</a>
</g>
</g>
<!-- Node17&#45;&gt;Node2 -->
<g id="edge21_Node000017_Node000002" class="edge">
<title>Node17&#45;&gt;Node2</title>
<g id="a_edge21_Node000017_Node000002"><a xlink:title=" ">
<path fill="none" stroke="#63b8ff" d="M610.3,-44.08C605.5,-34.99 599.75,-24.15 596,-17.06"/>
<polygon fill="#63b8ff" stroke="#63b8ff" points="607.24,-45.77 615.02,-52.97 613.43,-42.5 607.24,-45.77"/>
</a>
</g>
</g>
<!-- Node17&#45;&gt;Node3 -->
<g id="edge22_Node000017_Node000003" class="edge">
<title>Node17&#45;&gt;Node3</title>
<g id="a_edge22_Node000017_Node000003"><a xlink:title=" ">
<path fill="none" stroke="#63b8ff" d="M582.13,-57.41C510.84,-51.24 349.17,-36.3 214,-17 210.92,-16.56 207.72,-16.06 204.52,-15.54"/>
<polygon fill="#63b8ff" stroke="#63b8ff" points="582.12,-60.92 592.38,-58.29 582.72,-53.94 582.12,-60.92"/>
</a>
</g>
</g>
<!-- Node17&#45;&gt;Node4 -->
<g id="edge23_Node000017_Node000004" class="edge">
<title>Node17&#45;&gt;Node4</title>
<g id="a_edge23_Node000017_Node000004"><a xlink:title=" ">
<path fill="none" stroke="#63b8ff" d="M596.45,-48C578.97,-38.31 555.33,-25.2 540.63,-17.06"/>
<polygon fill="#63b8ff" stroke="#63b8ff" points="594.98,-51.19 605.43,-52.97 598.38,-45.07 594.98,-51.19"/>
</a>
</g>
</g>
<!-- Node17&#45;&gt;Node5 -->
<g id="edge24_Node000017_Node000005" class="edge">
<title>Node17&#45;&gt;Node5</title>
<g id="a_edge24_Node000017_Node000005"><a xlink:title=" ">
<path fill="none" stroke="#63b8ff" d="M582.27,-59.19C500.51,-55.86 297.48,-45.21 130,-17 127.25,-16.54 124.37,-15.95 121.55,-15.31"/>
<polygon fill="#63b8ff" stroke="#63b8ff" points="582.18,-62.69 592.31,-59.59 582.46,-55.7 582.18,-62.69"/>
</a>
</g>
</g>
<!-- Node17&#45;&gt;Node6 -->
<g id="edge26_Node000017_Node000006" class="edge">
<title>Node17&#45;&gt;Node6</title>
<g id="a_edge26_Node000017_Node000006"><a xlink:title=" ">
<path fill="none" stroke="#63b8ff" d="M582.18,-59C493.52,-55.09 261.23,-43 69,-17 66.13,-16.61 63.15,-16.15 60.18,-15.65"/>
<polygon fill="#63b8ff" stroke="#63b8ff" points="582.13,-62.5 592.27,-59.44 582.43,-55.51 582.13,-62.5"/>
</a>
</g>
</g>
<!-- Node17&#45;&gt;Node7 -->
<g id="edge27_Node000017_Node000007" class="edge">
<title>Node17&#45;&gt;Node7</title>
<g id="a_edge27_Node000017_Node000007"><a xlink:title=" ">
<path fill="none" stroke="#63b8ff" d="M581.99,-56.28C521.28,-49.21 396.79,-34.03 292,-17 289.14,-16.54 286.17,-16.02 283.2,-15.49"/>
<polygon fill="#63b8ff" stroke="#63b8ff" points="581.88,-59.79 592.22,-57.47 582.69,-52.84 581.88,-59.79"/>
</a>
</g>
</g>
<!-- Node17&#45;&gt;Node8 -->
<g id="edge28_Node000017_Node000008" class="edge">
<title>Node17&#45;&gt;Node8</title>
<g id="a_edge28_Node000017_Node000008"><a xlink:title=" ">
<path fill="none" stroke="#63b8ff" d="M582.18,-52.08C537.25,-41.8 462.37,-24.68 422.65,-15.59"/>
<polygon fill="#63b8ff" stroke="#63b8ff" points="581.57,-55.53 592.1,-54.35 583.13,-48.71 581.57,-55.53"/>
</a>
</g>
</g>
<!-- Node17&#45;&gt;Node10 -->
<g id="edge29_Node000017_Node000010" class="edge">
<title>Node17&#45;&gt;Node10</title>
<g id="a_edge29_Node000017_Node000010"><a xlink:title=" ">
<path fill="none" stroke="#63b8ff" d="M582.39,-54.95C532.13,-47.19 438.98,-32.33 360,-17 357.15,-16.45 354.18,-15.84 351.22,-15.21"/>
<polygon fill="#63b8ff" stroke="#63b8ff" points="582.03,-58.44 592.45,-56.5 583.1,-51.52 582.03,-58.44"/>
</a>
</g>
</g>
<!-- Node17&#45;&gt;Node11 -->
<g id="edge30_Node000017_Node000011" class="edge">
<title>Node17&#45;&gt;Node11</title>
<g id="a_edge30_Node000017_Node000011"><a xlink:title=" ">
<path fill="none" stroke="#63b8ff" d="M586.59,-49.84C556.78,-40.03 513.33,-25.73 486.96,-17.06"/>
<polygon fill="#63b8ff" stroke="#63b8ff" points="585.54,-53.17 596.13,-52.97 587.72,-46.52 585.54,-53.17"/>
</a>
</g>
</g>
<!-- Node17&#45;&gt;Node12 -->
<g id="edge31_Node000017_Node000012" class="edge">
<title>Node17&#45;&gt;Node12</title>
<g id="a_edge31_Node000017_Node000012"><a xlink:title=" ">
<path fill="none" stroke="#63b8ff" d="M645.39,-48.8C667.39,-39.04 698.08,-25.43 716.96,-17.06"/>
<polygon fill="#63b8ff" stroke="#63b8ff" points="643.69,-45.72 635.97,-52.97 646.53,-52.12 643.69,-45.72"/>
</a>
</g>
</g>
<!-- Node17&#45;&gt;Node13 -->
<g id="edge32_Node000017_Node000013" class="edge">
<title>Node17&#45;&gt;Node13</title>
<g id="a_edge32_Node000017_Node000013"><a xlink:title=" ">
<path fill="none" stroke="#63b8ff" d="M655.81,-50.46C693.29,-40.24 750.3,-24.69 782.22,-15.99"/>
<polygon fill="#63b8ff" stroke="#63b8ff" points="654.52,-47.19 645.79,-53.19 656.36,-53.94 654.52,-47.19"/>
</a>
</g>
</g>
<!-- Node17&#45;&gt;Node14 -->
<g id="edge33_Node000017_Node000014" class="edge">
<title>Node17&#45;&gt;Node14</title>
<g id="a_edge33_Node000017_Node000014"><a xlink:title=" ">
<path fill="none" stroke="#63b8ff" d="M655.54,-58.08C756.43,-51.27 1037.46,-31.55 1129,-17 1131.7,-16.57 1134.52,-16.04 1137.31,-15.46"/>
<polygon fill="#63b8ff" stroke="#63b8ff" points="655.26,-54.59 645.52,-58.75 655.73,-61.57 655.26,-54.59"/>
</a>
</g>
</g>
<!-- Node17&#45;&gt;Node15 -->
<g id="edge34_Node000017_Node000015" class="edge">
<title>Node17&#45;&gt;Node15</title>
<g id="a_edge34_Node000017_Node000015"><a xlink:title=" ">
<path fill="none" stroke="#63b8ff" d="M655.5,-53.26C708.41,-42.76 805.04,-23.58 850.75,-14.51"/>
<polygon fill="#63b8ff" stroke="#63b8ff" points="654.66,-49.85 645.54,-55.23 656.03,-56.72 654.66,-49.85"/>
</a>
</g>
</g>
<!-- Node17&#45;&gt;Node16 -->
<g id="edge38_Node000017_Node000016" class="edge">
<title>Node17&#45;&gt;Node16</title>
<g id="a_edge38_Node000017_Node000016"><a xlink:title=" ">
<path fill="none" stroke="#63b8ff" d="M655.82,-58.45C747.11,-53.22 991.2,-38.23 1194,-17 1205.51,-15.79 1218.31,-14.11 1228.76,-12.64"/>
<polygon fill="#63b8ff" stroke="#63b8ff" points="655.49,-54.97 645.7,-59.03 655.89,-61.95 655.49,-54.97"/>
</a>
</g>
</g>
<!-- Node18 -->
<g id="Node000018" class="node">
<title>Node18</title>
<g id="a_Node000018"><a xlink:href="../../d3/d11/dijkstra_8hpp_source.html" target="_top" xlink:title=" ">
<polygon fill="white" stroke="#666666" points="692.5,-17 635.5,-17 635.5,0 692.5,0 692.5,-17"/>
<text text-anchor="middle" x="664" y="-6.6" font-family="Helvetica,sans-Serif" font-size="8.00">dijkstra.hpp</text>
</a>
</g>
</g>
<!-- Node17&#45;&gt;Node18 -->
<g id="edge25_Node000017_Node000018" class="edge">
<title>Node17&#45;&gt;Node18</title>
<g id="a_edge25_Node000017_Node000018"><a xlink:title=" ">
<path fill="none" stroke="#63b8ff" d="M632.48,-45.22C640.68,-35.92 650.81,-24.45 657.33,-17.06"/>
<polygon fill="#63b8ff" stroke="#63b8ff" points="629.63,-43.16 625.64,-52.97 634.88,-47.79 629.63,-43.16"/>
</a>
</g>
</g>
<!-- Node17&#45;&gt;Node19 -->
<g id="edge35_Node000017_Node000019" class="edge">
<title>Node17&#45;&gt;Node19</title>
<g id="a_edge35_Node000017_Node000019"><a xlink:title=" ">
<path fill="none" stroke="#63b8ff" d="M655.54,-55.54C710.76,-47.92 818.7,-32.6 910,-17 913.53,-16.4 917.24,-15.73 920.91,-15.05"/>
<polygon fill="#63b8ff" stroke="#63b8ff" points="654.97,-52.08 645.54,-56.91 655.92,-59.02 654.97,-52.08"/>
</a>
</g>
</g>
<!-- Node17&#45;&gt;Node20 -->
<g id="edge36_Node000017_Node000020" class="edge">
<title>Node17&#45;&gt;Node20</title>
<g id="a_edge36_Node000017_Node000020"><a xlink:title=" ">
<path fill="none" stroke="#63b8ff" d="M656.16,-57.05C722.58,-50.67 865.93,-35.94 986,-17 989.19,-16.5 992.52,-15.92 995.82,-15.31"/>
<polygon fill="#63b8ff" stroke="#63b8ff" points="655.43,-53.6 645.81,-58.04 656.09,-60.57 655.43,-53.6"/>
</a>
</g>
</g>
<!-- Node17&#45;&gt;Node21 -->
<g id="edge37_Node000017_Node000021" class="edge">
<title>Node17&#45;&gt;Node21</title>
<g id="a_edge37_Node000017_Node000021"><a xlink:title=" ">
<path fill="none" stroke="#63b8ff" d="M655.55,-58.38C731.45,-53.65 911.54,-40.75 1061,-17 1063.98,-16.53 1067.1,-15.95 1070.18,-15.33"/>
<polygon fill="#63b8ff" stroke="#63b8ff" points="655.31,-54.89 645.54,-58.99 655.74,-61.87 655.31,-54.89"/>
</a>
</g>
</g>
<!-- Node23&#45;&gt;Node14 -->
<g id="edge46_Node000023_Node000014" class="edge">
<title>Node23&#45;&gt;Node14</title>
<g id="a_edge46_Node000023_Node000014"><a xlink:title=" ">
<path fill="none" stroke="#63b8ff" d="M1233.94,-97.71C1215.18,-75.01 1181.3,-34.04 1167.31,-17.12"/>
<polygon fill="#63b8ff" stroke="#63b8ff" points="1231.47,-100.21 1240.54,-105.68 1236.86,-95.75 1231.47,-100.21"/>
</a>
</g>
</g>
<!-- Node23&#45;&gt;Node16 -->
<g id="edge48_Node000023_Node000016" class="edge">
<title>Node23&#45;&gt;Node16</title>
<g id="a_edge48_Node000023_Node000016"><a xlink:title=" ">
<path fill="none" stroke="#63b8ff" d="M1249.52,-95.66C1250.5,-87.81 1251.52,-78.46 1252,-70 1253.08,-51.11 1251.65,-28.88 1250.71,-17.34"/>
<polygon fill="#63b8ff" stroke="#63b8ff" points="1246.01,-95.45 1248.15,-105.82 1252.95,-96.38 1246.01,-95.45"/>
</a>
</g>
</g>
<!-- Node23&#45;&gt;Node22 -->
<g id="edge47_Node000023_Node000022" class="edge">
<title>Node23&#45;&gt;Node22</title>
<g id="a_edge47_Node000023_Node000022"><a xlink:title=" ">
<path fill="none" stroke="#63b8ff" d="M1268.04,-100.73C1283.95,-91.07 1305.26,-78.13 1318.55,-70.06"/>
<polygon fill="#63b8ff" stroke="#63b8ff" points="1266.13,-97.79 1259.39,-105.97 1269.76,-103.78 1266.13,-97.79"/>
</a>
</g>
</g>
<!-- Node25 -->
<g id="Node000025" class="node">
<title>Node25</title>
<g id="a_Node000025"><a xlink:href="../../da/deb/managed__node_8hpp.html" target="_top" xlink:title=" ">
<polygon fill="white" stroke="#666666" points="867.5,-70 778.5,-70 778.5,-53 867.5,-53 867.5,-70"/>
<text text-anchor="middle" x="823" y="-59.6" font-family="Helvetica,sans-Serif" font-size="8.00">managed_node.hpp</text>
</a>
</g>
</g>
<!-- Node24&#45;&gt;Node25 -->
<g id="edge51_Node000024_Node000025" class="edge">
<title>Node24&#45;&gt;Node25</title>
<g id="a_edge51_Node000024_Node000025"><a xlink:title=" ">
<path fill="none" stroke="#63b8ff" d="M823,-95.91C823,-87.08 823,-76.85 823,-70.06"/>
<polygon fill="#63b8ff" stroke="#63b8ff" points="819.5,-95.97 823,-105.97 826.5,-95.97 819.5,-95.97"/>
</a>
</g>
</g>
<!-- Node25&#45;&gt;Node2 -->
<g id="edge52_Node000025_Node000002" class="edge">
<title>Node25&#45;&gt;Node2</title>
<g id="a_edge52_Node000025_Node000002"><a xlink:title=" ">
<path fill="none" stroke="#63b8ff" d="M779.13,-50.81C731.25,-40.24 656.22,-23.68 617.31,-15.09"/>
<polygon fill="#63b8ff" stroke="#63b8ff" points="778.4,-54.24 788.92,-52.97 779.9,-47.4 778.4,-54.24"/>
</a>
</g>
</g>
<!-- Node25&#45;&gt;Node12 -->
<g id="edge53_Node000025_Node000012" class="edge">
<title>Node25&#45;&gt;Node12</title>
<g id="a_edge53_Node000025_Node000012"><a xlink:title=" ">
<path fill="none" stroke="#63b8ff" d="M801.18,-48C784.27,-38.31 761.41,-25.2 747.19,-17.06"/>
<polygon fill="#63b8ff" stroke="#63b8ff" points="799.45,-51.04 809.87,-52.97 802.93,-44.97 799.45,-51.04"/>
</a>
</g>
</g>
<!-- Node25&#45;&gt;Node13 -->
<g id="edge54_Node000025_Node000013" class="edge">
<title>Node25&#45;&gt;Node13</title>
<g id="a_edge54_Node000025_Node000013"><a xlink:title=" ">
<path fill="none" stroke="#63b8ff" d="M817.23,-43.2C814.27,-34.31 810.81,-23.92 808.52,-17.06"/>
<polygon fill="#63b8ff" stroke="#63b8ff" points="814.01,-44.59 820.49,-52.97 820.65,-42.38 814.01,-44.59"/>
</a>
</g>
</g>
<!-- Node25&#45;&gt;Node15 -->
<g id="edge55_Node000025_Node000015" class="edge">
<title>Node25&#45;&gt;Node15</title>
<g id="a_edge55_Node000025_Node000015"><a xlink:title=" ">
<path fill="none" stroke="#63b8ff" d="M838.29,-45.79C848.05,-36.39 860.31,-24.6 868.15,-17.06"/>
<polygon fill="#63b8ff" stroke="#63b8ff" points="835.6,-43.52 830.82,-52.97 840.45,-48.56 835.6,-43.52"/>
</a>
</g>
</g>
</g>
</svg>
