<?xml version="1.0" encoding="UTF-8" standalone="no"?>
<!DOCTYPE svg PUBLIC "-//W3C//DTD SVG 1.1//EN"
 "http://www.w3.org/Graphics/SVG/1.1/DTD/svg11.dtd">
<!-- Generated by graphviz version 2.43.0 (0)
 -->
<!-- Title: flood.hpp Pages: 1 -->
<svg width="787pt" height="237pt"
 viewBox="0.00 0.00 787.28 237.00" xmlns="http://www.w3.org/2000/svg" xmlns:xlink="http://www.w3.org/1999/xlink">
<g id="graph0" class="graph" transform="scale(1 1) rotate(0) translate(4 233)">
<title>flood.hpp</title>
<!-- Node1 -->
<g id="Node000001" class="node">
<title>Node1</title>
<g id="a_Node000001"><a xlink:title=" ">
<polygon fill="#999999" stroke="#666666" points="356.82,-229 306.82,-229 306.82,-212 356.82,-212 356.82,-229"/>
<text text-anchor="middle" x="331.82" y="-218.6" font-family="Helvetica,sans-Serif" font-size="8.00">flood.hpp</text>
</a>
</g>
</g>
<!-- Node2 -->
<g id="Node000002" class="node">
<title>Node2</title>
<g id="a_Node000002"><a xlink:title=" ">
<polygon fill="#e0e0e0" stroke="#999999" points="473.82,-17 431.82,-17 431.82,0 473.82,0 473.82,-17"/>
<text text-anchor="middle" x="452.82" y="-6.6" font-family="Helvetica,sans-Serif" font-size="8.00">cstddef</text>
</a>
</g>
</g>
<!-- Node1&#45;&gt;Node2 -->
<g id="edge1_Node000001_Node000002" class="edge">
<title>Node1&#45;&gt;Node2</title>
<g id="a_edge1_Node000001_Node000002"><a xlink:title=" ">
<path fill="none" stroke="#63b8ff" d="M306.75,-220.33C259.78,-220.81 156.61,-216.68 82.82,-176 28.12,-145.84 -27.11,-99.3 14.82,-53 42.08,-22.9 326.04,-12.8 421.62,-10.23"/>
<polygon fill="#63b8ff" stroke="#63b8ff" points="421.9,-13.73 431.81,-9.97 421.72,-6.73 421.9,-13.73"/>
</a>
</g>
</g>
<!-- Node3 -->
<g id="Node000003" class="node">
<title>Node3</title>
<g id="a_Node000003"><a xlink:title=" ">
<polygon fill="#e0e0e0" stroke="#999999" points="247.82,-123 209.82,-123 209.82,-106 247.82,-106 247.82,-123"/>
<text text-anchor="middle" x="228.82" y="-112.6" font-family="Helvetica,sans-Serif" font-size="8.00">vector</text>
</a>
</g>
</g>
<!-- Node1&#45;&gt;Node3 -->
<g id="edge2_Node000001_Node000003" class="edge">
<title>Node1&#45;&gt;Node3</title>
<g id="a_edge2_Node000001_Node000003"><a xlink:title=" ">
<path fill="none" stroke="#63b8ff" d="M323.77,-211.89C314.69,-203.28 299.55,-188.78 286.82,-176 271.64,-160.75 254.65,-142.93 243,-130.6"/>
<polygon fill="#63b8ff" stroke="#63b8ff" points="245.28,-127.92 235.88,-123.04 240.18,-132.72 245.28,-127.92"/>
</a>
</g>
</g>
<!-- Node4 -->
<g id="Node000004" class="node">
<title>Node4</title>
<g id="a_Node000004"><a xlink:href="../../d8/d62/existence__set_8hpp.html" target="_top" xlink:title=" ">
<polygon fill="white" stroke="#666666" points="239.32,-176 92.32,-176 92.32,-159 239.32,-159 239.32,-176"/>
<text text-anchor="middle" x="165.82" y="-165.6" font-family="Helvetica,sans-Serif" font-size="8.00">../types/containers/existence_set.hpp</text>
</a>
</g>
</g>
<!-- Node1&#45;&gt;Node4 -->
<g id="edge3_Node000001_Node000004" class="edge">
<title>Node1&#45;&gt;Node4</title>
<g id="a_edge3_Node000001_Node000004"><a xlink:title=" ">
<path fill="none" stroke="#63b8ff" d="M307.33,-211.97C279.01,-203.27 232.2,-188.89 200.23,-179.07"/>
<polygon fill="#63b8ff" stroke="#63b8ff" points="201.01,-175.65 190.42,-176.06 198.95,-182.34 201.01,-175.65"/>
</a>
</g>
</g>
<!-- Node10 -->
<g id="Node000010" class="node">
<title>Node10</title>
<g id="a_Node000010"><a xlink:href="../../df/d93/utils_8hpp.html" target="_top" xlink:title=" ">
<polygon fill="white" stroke="#666666" points="417.32,-123 342.32,-123 342.32,-106 417.32,-106 417.32,-123"/>
<text text-anchor="middle" x="379.82" y="-112.6" font-family="Helvetica,sans-Serif" font-size="8.00">../../utils/utils.hpp</text>
</a>
</g>
</g>
<!-- Node1&#45;&gt;Node10 -->
<g id="edge27_Node000001_Node000010" class="edge">
<title>Node1&#45;&gt;Node10</title>
<g id="a_edge27_Node000001_Node000010"><a xlink:title=" ">
<path fill="none" stroke="#63b8ff" d="M343.85,-211.84C354.64,-204.21 369.82,-191.44 376.82,-176 382.88,-162.66 383.23,-145.91 382.3,-133.43"/>
<polygon fill="#63b8ff" stroke="#63b8ff" points="385.76,-132.94 381.2,-123.37 378.8,-133.69 385.76,-132.94"/>
</a>
</g>
</g>
<!-- Node14 -->
<g id="Node000014" class="node">
<title>Node14</title>
<g id="a_Node000014"><a xlink:href="../../d7/d65/intrinsics_8hpp.html" target="_top" xlink:title=" ">
<polygon fill="#fff0f0" stroke="red" points="531.32,-70 446.32,-70 446.32,-53 531.32,-53 531.32,-70"/>
<text text-anchor="middle" x="488.82" y="-59.6" font-family="Helvetica,sans-Serif" font-size="8.00">../utils/intrinsics.hpp</text>
</a>
</g>
</g>
<!-- Node1&#45;&gt;Node14 -->
<g id="edge35_Node000001_Node000014" class="edge">
<title>Node1&#45;&gt;Node14</title>
<g id="a_edge35_Node000001_Node000014"><a xlink:title=" ">
<path fill="none" stroke="#63b8ff" d="M354.19,-211.96C387.84,-199.34 450.77,-170.54 480.82,-123 488.8,-110.38 490.42,-93.33 490.26,-80.55"/>
<polygon fill="#63b8ff" stroke="#63b8ff" points="493.75,-80.07 489.75,-70.25 486.75,-80.42 493.75,-80.07"/>
</a>
</g>
</g>
<!-- Node17 -->
<g id="Node000017" class="node">
<title>Node17</title>
<g id="a_Node000017"><a xlink:href="../../d7/ded/queue_8hpp.html" target="_top" xlink:title=" ">
<polygon fill="white" stroke="#666666" points="758.82,-176 636.82,-176 636.82,-159 758.82,-159 758.82,-176"/>
<text text-anchor="middle" x="697.82" y="-165.6" font-family="Helvetica,sans-Serif" font-size="8.00">../types/containers/queue.hpp</text>
</a>
</g>
</g>
<!-- Node1&#45;&gt;Node17 -->
<g id="edge22_Node000001_Node000017" class="edge">
<title>Node1&#45;&gt;Node17</title>
<g id="a_edge22_Node000001_Node000017"><a xlink:title=" ">
<path fill="none" stroke="#63b8ff" d="M356.98,-215.99C413.49,-208.12 551.95,-188.83 633.96,-177.4"/>
<polygon fill="#63b8ff" stroke="#63b8ff" points="634.5,-180.86 643.92,-176.01 633.53,-173.93 634.5,-180.86"/>
</a>
</g>
</g>
<!-- Node19 -->
<g id="Node000019" class="node">
<title>Node19</title>
<g id="a_Node000019"><a xlink:href="../../d2/d1c/solver_8hpp.html" target="_top" xlink:title=" ">
<polygon fill="white" stroke="#666666" points="367.82,-176 295.82,-176 295.82,-159 367.82,-159 367.82,-176"/>
<text text-anchor="middle" x="331.82" y="-165.6" font-family="Helvetica,sans-Serif" font-size="8.00">base/solver.hpp</text>
</a>
</g>
</g>
<!-- Node1&#45;&gt;Node19 -->
<g id="edge28_Node000001_Node000019" class="edge">
<title>Node1&#45;&gt;Node19</title>
<g id="a_edge28_Node000001_Node000019"><a xlink:title=" ">
<path fill="none" stroke="#63b8ff" d="M331.82,-211.97C331.82,-205.19 331.82,-194.97 331.82,-186.13"/>
<polygon fill="#63b8ff" stroke="#63b8ff" points="335.32,-186.06 331.82,-176.06 328.32,-186.06 335.32,-186.06"/>
</a>
</g>
</g>
<!-- Node4&#45;&gt;Node2 -->
<g id="edge4_Node000004_Node000002" class="edge">
<title>Node4&#45;&gt;Node2</title>
<g id="a_edge4_Node000004_Node000002"><a xlink:title=" ">
<path fill="none" stroke="#63b8ff" d="M142.04,-158.97C92.31,-142.07 -14.73,-99.01 26.82,-53 53.21,-23.78 327.62,-13.13 421.52,-10.33"/>
<polygon fill="#63b8ff" stroke="#63b8ff" points="421.65,-13.83 431.55,-10.04 421.45,-6.83 421.65,-13.83"/>
</a>
</g>
</g>
<!-- Node4&#45;&gt;Node3 -->
<g id="edge10_Node000004_Node000003" class="edge">
<title>Node4&#45;&gt;Node3</title>
<g id="a_edge10_Node000004_Node000003"><a xlink:title=" ">
<path fill="none" stroke="#63b8ff" d="M175.12,-158.97C184.71,-151.22 199.87,-138.94 211.64,-129.41"/>
<polygon fill="#63b8ff" stroke="#63b8ff" points="213.92,-132.07 219.49,-123.06 209.52,-126.63 213.92,-132.07"/>
</a>
</g>
</g>
<!-- Node5 -->
<g id="Node000005" class="node">
<title>Node5</title>
<g id="a_Node000005"><a xlink:title=" ">
<polygon fill="#e0e0e0" stroke="#999999" points="85.82,-70 35.82,-70 35.82,-53 85.82,-53 85.82,-70"/>
<text text-anchor="middle" x="60.82" y="-59.6" font-family="Helvetica,sans-Serif" font-size="8.00">functional</text>
</a>
</g>
</g>
<!-- Node4&#45;&gt;Node5 -->
<g id="edge5_Node000004_Node000005" class="edge">
<title>Node4&#45;&gt;Node5</title>
<g id="a_edge5_Node000004_Node000005"><a xlink:title=" ">
<path fill="none" stroke="#63b8ff" d="M136.96,-158.97C117.6,-152.49 92.95,-141.23 77.82,-123 67.8,-110.92 63.67,-93.31 61.98,-80.2"/>
<polygon fill="#63b8ff" stroke="#63b8ff" points="65.45,-79.72 61.04,-70.09 58.48,-80.38 65.45,-79.72"/>
</a>
</g>
</g>
<!-- Node6 -->
<g id="Node000006" class="node">
<title>Node6</title>
<g id="a_Node000006"><a xlink:title=" ">
<polygon fill="#e0e0e0" stroke="#999999" points="153.82,-123 93.82,-123 93.82,-106 153.82,-106 153.82,-123"/>
<text text-anchor="middle" x="123.82" y="-112.6" font-family="Helvetica,sans-Serif" font-size="8.00">initializer_list</text>
</a>
</g>
</g>
<!-- Node4&#45;&gt;Node6 -->
<g id="edge6_Node000004_Node000006" class="edge">
<title>Node4&#45;&gt;Node6</title>
<g id="a_edge6_Node000004_Node000006"><a xlink:title=" ">
<path fill="none" stroke="#63b8ff" d="M159.63,-158.97C153.55,-151.59 144.1,-140.12 136.44,-130.81"/>
<polygon fill="#63b8ff" stroke="#63b8ff" points="139.11,-128.55 130.05,-123.06 133.7,-133 139.11,-128.55"/>
</a>
</g>
</g>
<!-- Node7 -->
<g id="Node000007" class="node">
<title>Node7</title>
<g id="a_Node000007"><a xlink:title=" ">
<polygon fill="#e0e0e0" stroke="#999999" points="154.82,-70 120.82,-70 120.82,-53 154.82,-53 154.82,-70"/>
<text text-anchor="middle" x="137.82" y="-59.6" font-family="Helvetica,sans-Serif" font-size="8.00">limits</text>
</a>
</g>
</g>
<!-- Node4&#45;&gt;Node7 -->
<g id="edge7_Node000004_Node000007" class="edge">
<title>Node4&#45;&gt;Node7</title>
<g id="a_edge7_Node000004_Node000007"><a xlink:title=" ">
<path fill="none" stroke="#63b8ff" d="M136.06,-158.93C117.81,-152.58 95.88,-141.49 84.82,-123 73.92,-104.77 94.69,-86.85 113.34,-75.3"/>
<polygon fill="#63b8ff" stroke="#63b8ff" points="115.28,-78.22 122.17,-70.17 111.77,-72.16 115.28,-78.22"/>
</a>
</g>
</g>
<!-- Node8 -->
<g id="Node000008" class="node">
<title>Node8</title>
<g id="a_Node000008"><a xlink:title=" ">
<polygon fill="#e0e0e0" stroke="#999999" points="669.82,-123 587.82,-123 587.82,-106 669.82,-106 669.82,-123"/>
<text text-anchor="middle" x="628.82" y="-112.6" font-family="Helvetica,sans-Serif" font-size="8.00">memory_resource</text>
</a>
</g>
</g>
<!-- Node4&#45;&gt;Node8 -->
<g id="edge8_Node000004_Node000008" class="edge">
<title>Node4&#45;&gt;Node8</title>
<g id="a_edge8_Node000004_Node000008"><a xlink:title=" ">
<path fill="none" stroke="#63b8ff" d="M234.14,-158.97C327.83,-148.65 494.08,-130.34 577.74,-121.13"/>
<polygon fill="#63b8ff" stroke="#63b8ff" points="578.21,-124.6 587.76,-120.02 577.44,-117.64 578.21,-124.6"/>
</a>
</g>
</g>
<!-- Node9 -->
<g id="Node000009" class="node">
<title>Node9</title>
<g id="a_Node000009"><a xlink:title=" ">
<polygon fill="#e0e0e0" stroke="#999999" points="226.32,-70 173.32,-70 173.32,-53 226.32,-53 226.32,-70"/>
<text text-anchor="middle" x="199.82" y="-59.6" font-family="Helvetica,sans-Serif" font-size="8.00">type_traits</text>
</a>
</g>
</g>
<!-- Node4&#45;&gt;Node9 -->
<g id="edge9_Node000004_Node000009" class="edge">
<title>Node4&#45;&gt;Node9</title>
<g id="a_edge9_Node000004_Node000009"><a xlink:title=" ">
<path fill="none" stroke="#63b8ff" d="M168.38,-158.68C173.82,-142.04 186.66,-102.75 194.15,-79.87"/>
<polygon fill="#63b8ff" stroke="#63b8ff" points="197.55,-80.72 197.33,-70.12 190.9,-78.54 197.55,-80.72"/>
</a>
</g>
</g>
<!-- Node4&#45;&gt;Node10 -->
<g id="edge11_Node000004_Node000010" class="edge">
<title>Node4&#45;&gt;Node10</title>
<g id="a_edge11_Node000004_Node000010"><a xlink:title=" ">
<path fill="none" stroke="#63b8ff" d="M197.4,-158.97C234.78,-150.07 297.14,-135.2 338.38,-125.38"/>
<polygon fill="#63b8ff" stroke="#63b8ff" points="339.2,-128.78 348.12,-123.06 337.58,-121.97 339.2,-128.78"/>
</a>
</g>
</g>
<!-- Node4&#45;&gt;Node14 -->
<g id="edge21_Node000004_Node000014" class="edge">
<title>Node4&#45;&gt;Node14</title>
<g id="a_edge21_Node000004_Node000014"><a xlink:title=" ">
<path fill="none" stroke="#63b8ff" d="M239.56,-159.07C304.64,-151.63 393.98,-139 425.82,-123 446.72,-112.5 465.3,-92.7 476.78,-78.61"/>
<polygon fill="#63b8ff" stroke="#63b8ff" points="479.85,-80.37 483.24,-70.33 474.33,-76.06 479.85,-80.37"/>
</a>
</g>
</g>
<!-- Node10&#45;&gt;Node2 -->
<g id="edge14_Node000010_Node000002" class="edge">
<title>Node10&#45;&gt;Node2</title>
<g id="a_edge14_Node000010_Node000002"><a xlink:title=" ">
<path fill="none" stroke="#63b8ff" d="M385.31,-105.68C397.26,-88.66 425.83,-47.95 441.71,-25.34"/>
<polygon fill="#63b8ff" stroke="#63b8ff" points="444.59,-27.32 447.47,-17.12 438.86,-23.3 444.59,-27.32"/>
</a>
</g>
</g>
<!-- Node10&#45;&gt;Node5 -->
<g id="edge15_Node000010_Node000005" class="edge">
<title>Node10&#45;&gt;Node5</title>
<g id="a_edge15_Node000010_Node000005"><a xlink:title=" ">
<path fill="none" stroke="#63b8ff" d="M342.29,-107.5C280.15,-97.56 156.72,-77.83 96.09,-68.14"/>
<polygon fill="#63b8ff" stroke="#63b8ff" points="96.31,-64.63 85.88,-66.51 95.2,-71.54 96.31,-64.63"/>
</a>
</g>
</g>
<!-- Node10&#45;&gt;Node7 -->
<g id="edge16_Node000010_Node000007" class="edge">
<title>Node10&#45;&gt;Node7</title>
<g id="a_edge16_Node000010_Node000007"><a xlink:title=" ">
<path fill="none" stroke="#63b8ff" d="M342.16,-106.88C300.92,-99.43 232.66,-86.46 164.83,-70.07"/>
<polygon fill="#63b8ff" stroke="#63b8ff" points="165.38,-66.6 154.83,-67.62 163.72,-73.4 165.38,-66.6"/>
</a>
</g>
</g>
<!-- Node10&#45;&gt;Node9 -->
<g id="edge18_Node000010_Node000009" class="edge">
<title>Node10&#45;&gt;Node9</title>
<g id="a_edge18_Node000010_Node000009"><a xlink:title=" ">
<path fill="none" stroke="#63b8ff" d="M353.26,-105.97C322.29,-97.2 270.92,-82.64 236.24,-72.82"/>
<polygon fill="#63b8ff" stroke="#63b8ff" points="237.07,-69.41 226.49,-70.06 235.16,-76.15 237.07,-69.41"/>
</a>
</g>
</g>
<!-- Node11 -->
<g id="Node000011" class="node">
<title>Node11</title>
<g id="a_Node000011"><a xlink:title=" ">
<polygon fill="#e0e0e0" stroke="#999999" points="279.32,-70 244.32,-70 244.32,-53 279.32,-53 279.32,-70"/>
<text text-anchor="middle" x="261.82" y="-59.6" font-family="Helvetica,sans-Serif" font-size="8.00">array</text>
</a>
</g>
</g>
<!-- Node10&#45;&gt;Node11 -->
<g id="edge12_Node000010_Node000011" class="edge">
<title>Node10&#45;&gt;Node11</title>
<g id="a_edge12_Node000010_Node000011"><a xlink:title=" ">
<path fill="none" stroke="#63b8ff" d="M362.41,-105.97C342.98,-97.58 311.3,-83.88 288.68,-74.11"/>
<polygon fill="#63b8ff" stroke="#63b8ff" points="289.88,-70.81 279.31,-70.06 287.1,-77.24 289.88,-70.81"/>
</a>
</g>
</g>
<!-- Node12 -->
<g id="Node000012" class="node">
<title>Node12</title>
<g id="a_Node000012"><a xlink:title=" ">
<polygon fill="#e0e0e0" stroke="#999999" points="335.82,-70 297.82,-70 297.82,-53 335.82,-53 335.82,-70"/>
<text text-anchor="middle" x="316.82" y="-59.6" font-family="Helvetica,sans-Serif" font-size="8.00">cmath</text>
</a>
</g>
</g>
<!-- Node10&#45;&gt;Node12 -->
<g id="edge13_Node000010_Node000012" class="edge">
<title>Node10&#45;&gt;Node12</title>
<g id="a_edge13_Node000010_Node000012"><a xlink:title=" ">
<path fill="none" stroke="#63b8ff" d="M370.53,-105.97C360.94,-98.22 345.78,-85.94 334,-76.41"/>
<polygon fill="#63b8ff" stroke="#63b8ff" points="336.13,-73.63 326.16,-70.06 331.73,-79.07 336.13,-73.63"/>
</a>
</g>
</g>
<!-- Node13 -->
<g id="Node000013" class="node">
<title>Node13</title>
<g id="a_Node000013"><a xlink:title=" ">
<polygon fill="#e0e0e0" stroke="#999999" points="389.82,-70 353.82,-70 353.82,-53 389.82,-53 389.82,-70"/>
<text text-anchor="middle" x="371.82" y="-59.6" font-family="Helvetica,sans-Serif" font-size="8.00">string</text>
</a>
</g>
</g>
<!-- Node10&#45;&gt;Node13 -->
<g id="edge17_Node000010_Node000013" class="edge">
<title>Node10&#45;&gt;Node13</title>
<g id="a_edge17_Node000010_Node000013"><a xlink:title=" ">
<path fill="none" stroke="#63b8ff" d="M378.64,-105.97C377.58,-99.19 375.98,-88.97 374.59,-80.13"/>
<polygon fill="#63b8ff" stroke="#63b8ff" points="378.02,-79.39 373.01,-70.06 371.1,-80.48 378.02,-79.39"/>
</a>
</g>
</g>
<!-- Node10&#45;&gt;Node14 -->
<g id="edge19_Node000010_Node000014" class="edge">
<title>Node10&#45;&gt;Node14</title>
<g id="a_edge19_Node000010_Node000014"><a xlink:title=" ">
<path fill="none" stroke="#63b8ff" d="M395.91,-105.97C413.7,-97.65 442.6,-84.13 463.45,-74.37"/>
<polygon fill="#63b8ff" stroke="#63b8ff" points="465.1,-77.46 472.68,-70.06 462.13,-71.12 465.1,-77.46"/>
</a>
</g>
</g>
<!-- Node14&#45;&gt;Node2 -->
<g id="edge20_Node000014_Node000002" class="edge">
<title>Node14&#45;&gt;Node2</title>
<g id="a_edge20_Node000014_Node000002"><a xlink:title=" ">
<path fill="none" stroke="#63b8ff" d="M483.51,-52.97C478.41,-45.74 470.53,-34.59 464.04,-25.39"/>
<polygon fill="#63b8ff" stroke="#63b8ff" points="466.78,-23.21 458.16,-17.06 461.07,-27.24 466.78,-23.21"/>
</a>
</g>
</g>
<!-- Node17&#45;&gt;Node2 -->
<g id="edge23_Node000017_Node000002" class="edge">
<title>Node17&#45;&gt;Node2</title>
<g id="a_edge23_Node000017_Node000002"><a xlink:title=" ">
<path fill="none" stroke="#63b8ff" d="M722.4,-158.99C751.05,-148.93 792.38,-129.59 774.82,-106 739.46,-58.48 557.68,-25.64 483.95,-14.08"/>
<polygon fill="#63b8ff" stroke="#63b8ff" points="484.3,-10.6 473.89,-12.53 483.24,-17.51 484.3,-10.6"/>
</a>
</g>
</g>
<!-- Node17&#45;&gt;Node8 -->
<g id="edge25_Node000017_Node000008" class="edge">
<title>Node17&#45;&gt;Node8</title>
<g id="a_edge25_Node000017_Node000008"><a xlink:title=" ">
<path fill="none" stroke="#63b8ff" d="M687.64,-158.97C677.04,-151.14 660.21,-138.7 647.27,-129.13"/>
<polygon fill="#63b8ff" stroke="#63b8ff" points="649.17,-126.19 639.05,-123.06 645.01,-131.81 649.17,-126.19"/>
</a>
</g>
</g>
<!-- Node17&#45;&gt;Node14 -->
<g id="edge26_Node000017_Node000014" class="edge">
<title>Node17&#45;&gt;Node14</title>
<g id="a_edge26_Node000017_Node000014"><a xlink:title=" ">
<path fill="none" stroke="#63b8ff" d="M697.73,-158.93C697.15,-146.09 694.03,-120.04 678.82,-106 659.1,-87.78 590.8,-75.43 541.74,-68.68"/>
<polygon fill="#63b8ff" stroke="#63b8ff" points="541.97,-65.18 531.59,-67.32 541.04,-72.11 541.97,-65.18"/>
</a>
</g>
</g>
<!-- Node18 -->
<g id="Node000018" class="node">
<title>Node18</title>
<g id="a_Node000018"><a xlink:title=" ">
<polygon fill="#e0e0e0" stroke="#999999" points="765.32,-123 726.32,-123 726.32,-106 765.32,-106 765.32,-123"/>
<text text-anchor="middle" x="745.82" y="-112.6" font-family="Helvetica,sans-Serif" font-size="8.00">deque</text>
</a>
</g>
</g>
<!-- Node17&#45;&gt;Node18 -->
<g id="edge24_Node000017_Node000018" class="edge">
<title>Node17&#45;&gt;Node18</title>
<g id="a_edge24_Node000017_Node000018"><a xlink:title=" ">
<path fill="none" stroke="#63b8ff" d="M704.91,-158.97C711.93,-151.52 722.87,-139.89 731.68,-130.53"/>
<polygon fill="#63b8ff" stroke="#63b8ff" points="734.41,-132.74 738.71,-123.06 729.31,-127.94 734.41,-132.74"/>
</a>
</g>
</g>
<!-- Node19&#45;&gt;Node2 -->
<g id="edge29_Node000019_Node000002" class="edge">
<title>Node19&#45;&gt;Node2</title>
<g id="a_edge29_Node000019_Node000002"><a xlink:title=" ">
<path fill="none" stroke="#63b8ff" d="M368.22,-163.34C419.67,-156.56 510.64,-135.44 539.82,-70 552.02,-42.64 513.52,-25.61 483.87,-16.84"/>
<polygon fill="#63b8ff" stroke="#63b8ff" points="484.42,-13.36 473.85,-14.08 482.56,-20.11 484.42,-13.36"/>
</a>
</g>
</g>
<!-- Node19&#45;&gt;Node3 -->
<g id="edge32_Node000019_Node000003" class="edge">
<title>Node19&#45;&gt;Node3</title>
<g id="a_edge32_Node000019_Node000003"><a xlink:title=" ">
<path fill="none" stroke="#63b8ff" d="M316.63,-158.97C299.89,-150.69 272.75,-137.25 253.07,-127.5"/>
<polygon fill="#63b8ff" stroke="#63b8ff" points="254.6,-124.36 244.08,-123.06 251.49,-130.63 254.6,-124.36"/>
</a>
</g>
</g>
<!-- Node19&#45;&gt;Node7 -->
<g id="edge30_Node000019_Node000007" class="edge">
<title>Node19&#45;&gt;Node7</title>
<g id="a_edge30_Node000019_Node000007"><a xlink:title=" ">
<path fill="none" stroke="#63b8ff" d="M324.14,-158.84C311.23,-146.31 283.91,-121.32 256.82,-106 240.81,-96.94 194.91,-81.15 165.03,-71.29"/>
<polygon fill="#63b8ff" stroke="#63b8ff" points="165.79,-67.86 155.2,-68.07 163.61,-74.51 165.79,-67.86"/>
</a>
</g>
</g>
<!-- Node19&#45;&gt;Node9 -->
<g id="edge31_Node000019_Node000009" class="edge">
<title>Node19&#45;&gt;Node9</title>
<g id="a_edge31_Node000019_Node000009"><a xlink:title=" ">
<path fill="none" stroke="#63b8ff" d="M328.18,-158.87C321.88,-146.39 307.91,-121.45 289.82,-106 273.24,-91.83 251.24,-81.08 233.14,-73.82"/>
<polygon fill="#63b8ff" stroke="#63b8ff" points="234.14,-70.45 223.55,-70.14 231.63,-76.99 234.14,-70.45"/>
</a>
</g>
</g>
<!-- Node19&#45;&gt;Node10 -->
<g id="edge33_Node000019_Node000010" class="edge">
<title>Node19&#45;&gt;Node10</title>
<g id="a_edge33_Node000019_Node000010"><a xlink:title=" ">
<path fill="none" stroke="#63b8ff" d="M338.91,-158.97C345.93,-151.52 356.87,-139.89 365.68,-130.53"/>
<polygon fill="#63b8ff" stroke="#63b8ff" points="368.41,-132.74 372.71,-123.06 363.31,-127.94 368.41,-132.74"/>
</a>
</g>
</g>
<!-- Node19&#45;&gt;Node14 -->
<g id="edge34_Node000019_Node000014" class="edge">
<title>Node19&#45;&gt;Node14</title>
<g id="a_edge34_Node000019_Node000014"><a xlink:title=" ">
<path fill="none" stroke="#63b8ff" d="M367.93,-161.96C395.9,-156.77 434.1,-145.82 459.82,-123 472.49,-111.77 480.12,-93.79 484.35,-80.35"/>
<polygon fill="#63b8ff" stroke="#63b8ff" points="487.82,-80.94 487.14,-70.37 481.08,-79.06 487.82,-80.94"/>
</a>
</g>
</g>
</g>
</svg>
