<?xml version="1.0" encoding="UTF-8" standalone="no"?>
<!DOCTYPE svg PUBLIC "-//W3C//DTD SVG 1.1//EN"
 "http://www.w3.org/Graphics/SVG/1.1/DTD/svg11.dtd">
<!-- Generated by graphviz version 2.43.0 (0)
 -->
<!-- Title: flood.hpp Pages: 1 -->
<svg width="714pt" height="237pt"
 viewBox="0.00 0.00 713.94 237.00" xmlns="http://www.w3.org/2000/svg" xmlns:xlink="http://www.w3.org/1999/xlink">
<g id="graph0" class="graph" transform="scale(1 1) rotate(0) translate(4 233)">
<title>flood.hpp</title>
<!-- Node1 -->
<g id="Node000001" class="node">
<title>Node1</title>
<g id="a_Node000001"><a xlink:title=" ">
<polygon fill="#999999" stroke="#666666" points="298.52,-229 248.52,-229 248.52,-212 298.52,-212 298.52,-229"/>
<text text-anchor="middle" x="273.52" y="-218.6" font-family="Helvetica,sans-Serif" font-size="8.00">flood.hpp</text>
</a>
</g>
</g>
<!-- Node2 -->
<g id="Node000002" class="node">
<title>Node2</title>
<g id="a_Node000002"><a xlink:title=" ">
<polygon fill="#e0e0e0" stroke="#999999" points="283.52,-17 241.52,-17 241.52,0 283.52,0 283.52,-17"/>
<text text-anchor="middle" x="262.52" y="-6.6" font-family="Helvetica,sans-Serif" font-size="8.00">cstddef</text>
</a>
</g>
</g>
<!-- Node1&#45;&gt;Node2 -->
<g id="edge1_Node000001_Node000002" class="edge">
<title>Node1&#45;&gt;Node2</title>
<g id="a_edge1_Node000001_Node000002"><a xlink:title=" ">
<path fill="none" stroke="#63b8ff" d="M248.2,-220.42C190.22,-220.92 49.46,-212.55 6.52,-123 -36.65,-32.98 154.14,-14.35 231.34,-10.5"/>
<polygon fill="#63b8ff" stroke="#63b8ff" points="231.61,-13.99 241.44,-10.05 231.3,-7 231.61,-13.99"/>
</a>
</g>
</g>
<!-- Node3 -->
<g id="Node000003" class="node">
<title>Node3</title>
<g id="a_Node000003"><a xlink:title=" ">
<polygon fill="#e0e0e0" stroke="#999999" points="53.52,-123 15.52,-123 15.52,-106 53.52,-106 53.52,-123"/>
<text text-anchor="middle" x="34.52" y="-112.6" font-family="Helvetica,sans-Serif" font-size="8.00">vector</text>
</a>
</g>
</g>
<!-- Node1&#45;&gt;Node3 -->
<g id="edge2_Node000001_Node000003" class="edge">
<title>Node1&#45;&gt;Node3</title>
<g id="a_edge2_Node000001_Node000003"><a xlink:title=" ">
<path fill="none" stroke="#63b8ff" d="M248.34,-217.09C213.37,-212.9 148.91,-202.07 100.52,-176 79.21,-164.52 59.41,-144.63 47.16,-130.8"/>
<polygon fill="#63b8ff" stroke="#63b8ff" points="49.73,-128.42 40.57,-123.1 44.42,-132.98 49.73,-128.42"/>
</a>
</g>
</g>
<!-- Node4 -->
<g id="Node000004" class="node">
<title>Node4</title>
<g id="a_Node000004"><a xlink:href="../../d8/d62/existence__set_8hpp.html" target="_top" xlink:title=" ">
<polygon fill="white" stroke="#666666" points="347.02,-176 200.02,-176 200.02,-159 347.02,-159 347.02,-176"/>
<text text-anchor="middle" x="273.52" y="-165.6" font-family="Helvetica,sans-Serif" font-size="8.00">../types/containers/existence_set.hpp</text>
</a>
</g>
</g>
<!-- Node1&#45;&gt;Node4 -->
<g id="edge3_Node000001_Node000004" class="edge">
<title>Node1&#45;&gt;Node4</title>
<g id="a_edge3_Node000001_Node000004"><a xlink:title=" ">
<path fill="none" stroke="#63b8ff" d="M273.52,-211.97C273.52,-205.19 273.52,-194.97 273.52,-186.13"/>
<polygon fill="#63b8ff" stroke="#63b8ff" points="277.02,-186.06 273.52,-176.06 270.02,-186.06 277.02,-186.06"/>
</a>
</g>
</g>
<!-- Node9 -->
<g id="Node000009" class="node">
<title>Node9</title>
<g id="a_Node000009"><a xlink:href="../../df/d93/utils_8hpp.html" target="_top" xlink:title=" ">
<polygon fill="white" stroke="#666666" points="413.02,-123 338.02,-123 338.02,-106 413.02,-106 413.02,-123"/>
<text text-anchor="middle" x="375.52" y="-112.6" font-family="Helvetica,sans-Serif" font-size="8.00">../../utils/utils.hpp</text>
</a>
</g>
</g>
<!-- Node1&#45;&gt;Node9 -->
<g id="edge26_Node000001_Node000009" class="edge">
<title>Node1&#45;&gt;Node9</title>
<g id="a_edge26_Node000001_Node000009"><a xlink:title=" ">
<path fill="none" stroke="#63b8ff" d="M298.27,-211.99C316.47,-205.28 340.55,-193.73 355.52,-176 365.78,-163.84 370.83,-146.24 373.28,-133.16"/>
<polygon fill="#63b8ff" stroke="#63b8ff" points="376.77,-133.49 374.83,-123.07 369.85,-132.42 376.77,-133.49"/>
</a>
</g>
</g>
<!-- Node13 -->
<g id="Node000013" class="node">
<title>Node13</title>
<g id="a_Node000013"><a xlink:href="../../d7/d65/intrinsics_8hpp.html" target="_top" xlink:title=" ">
<polygon fill="#fff0f0" stroke="red" points="655.02,-70 570.02,-70 570.02,-53 655.02,-53 655.02,-70"/>
<text text-anchor="middle" x="612.52" y="-59.6" font-family="Helvetica,sans-Serif" font-size="8.00">../utils/intrinsics.hpp</text>
</a>
</g>
</g>
<!-- Node1&#45;&gt;Node13 -->
<g id="edge34_Node000001_Node000013" class="edge">
<title>Node1&#45;&gt;Node13</title>
<g id="a_edge34_Node000001_Node000013"><a xlink:title=" ">
<path fill="none" stroke="#63b8ff" d="M298.63,-218.64C384.05,-215.48 659.56,-203.23 687.52,-176 709.92,-154.19 710.63,-132.79 694.52,-106 685.3,-90.68 668.66,-80.46 652.78,-73.81"/>
<polygon fill="#63b8ff" stroke="#63b8ff" points="653.64,-70.4 643.05,-70.11 651.16,-76.94 653.64,-70.4"/>
</a>
</g>
</g>
<!-- Node16 -->
<g id="Node000016" class="node">
<title>Node16</title>
<g id="a_Node000016"><a xlink:href="../../d7/ded/queue_8hpp.html" target="_top" xlink:title=" ">
<polygon fill="white" stroke="#666666" points="678.52,-176 556.52,-176 556.52,-159 678.52,-159 678.52,-176"/>
<text text-anchor="middle" x="617.52" y="-165.6" font-family="Helvetica,sans-Serif" font-size="8.00">../types/containers/queue.hpp</text>
</a>
</g>
</g>
<!-- Node1&#45;&gt;Node16 -->
<g id="edge21_Node000001_Node000016" class="edge">
<title>Node1&#45;&gt;Node16</title>
<g id="a_edge21_Node000001_Node000016"><a xlink:title=" ">
<path fill="none" stroke="#63b8ff" d="M298.53,-215.79C352.32,-207.82 480.28,-188.85 556.78,-177.5"/>
<polygon fill="#63b8ff" stroke="#63b8ff" points="557.39,-180.95 566.76,-176.02 556.36,-174.03 557.39,-180.95"/>
</a>
</g>
</g>
<!-- Node18 -->
<g id="Node000018" class="node">
<title>Node18</title>
<g id="a_Node000018"><a xlink:href="../../d2/d1c/solver_8hpp.html" target="_top" xlink:title=" ">
<polygon fill="white" stroke="#666666" points="181.52,-176 109.52,-176 109.52,-159 181.52,-159 181.52,-176"/>
<text text-anchor="middle" x="145.52" y="-165.6" font-family="Helvetica,sans-Serif" font-size="8.00">base/solver.hpp</text>
</a>
</g>
</g>
<!-- Node1&#45;&gt;Node18 -->
<g id="edge27_Node000001_Node000018" class="edge">
<title>Node1&#45;&gt;Node18</title>
<g id="a_edge27_Node000001_Node000018"><a xlink:title=" ">
<path fill="none" stroke="#63b8ff" d="M254.63,-211.97C233.36,-203.5 198.56,-189.64 173.99,-179.85"/>
<polygon fill="#63b8ff" stroke="#63b8ff" points="175.07,-176.51 164.48,-176.06 172.48,-183.01 175.07,-176.51"/>
</a>
</g>
</g>
<!-- Node4&#45;&gt;Node2 -->
<g id="edge4_Node000004_Node000002" class="edge">
<title>Node4&#45;&gt;Node2</title>
<g id="a_edge4_Node000004_Node000002"><a xlink:title=" ">
<path fill="none" stroke="#63b8ff" d="M258.89,-158.8C234.3,-144.9 185.49,-113.03 166.52,-70 153.22,-39.83 198.35,-23.25 231.19,-15.38"/>
<polygon fill="#63b8ff" stroke="#63b8ff" points="232.33,-18.72 241.33,-13.13 230.81,-11.88 232.33,-18.72"/>
</a>
</g>
</g>
<!-- Node4&#45;&gt;Node3 -->
<g id="edge9_Node000004_Node000003" class="edge">
<title>Node4&#45;&gt;Node3</title>
<g id="a_edge9_Node000004_Node000003"><a xlink:title=" ">
<path fill="none" stroke="#63b8ff" d="M238.25,-158.97C190.87,-148.86 107.54,-131.08 63.57,-121.7"/>
<polygon fill="#63b8ff" stroke="#63b8ff" points="64.05,-118.22 53.54,-119.56 62.59,-125.07 64.05,-118.22"/>
</a>
</g>
</g>
<!-- Node5 -->
<g id="Node000005" class="node">
<title>Node5</title>
<g id="a_Node000005"><a xlink:title=" ">
<polygon fill="#e0e0e0" stroke="#999999" points="349.52,-70 299.52,-70 299.52,-53 349.52,-53 349.52,-70"/>
<text text-anchor="middle" x="324.52" y="-59.6" font-family="Helvetica,sans-Serif" font-size="8.00">functional</text>
</a>
</g>
</g>
<!-- Node4&#45;&gt;Node5 -->
<g id="edge5_Node000004_Node000005" class="edge">
<title>Node4&#45;&gt;Node5</title>
<g id="a_edge5_Node000004_Node000005"><a xlink:title=" ">
<path fill="none" stroke="#63b8ff" d="M277.35,-158.68C285.59,-141.89 305.13,-102.04 316.3,-79.25"/>
<polygon fill="#63b8ff" stroke="#63b8ff" points="319.52,-80.64 320.78,-70.12 313.23,-77.56 319.52,-80.64"/>
</a>
</g>
</g>
<!-- Node6 -->
<g id="Node000006" class="node">
<title>Node6</title>
<g id="a_Node000006"><a xlink:title=" ">
<polygon fill="#e0e0e0" stroke="#999999" points="209.52,-70 175.52,-70 175.52,-53 209.52,-53 209.52,-70"/>
<text text-anchor="middle" x="192.52" y="-59.6" font-family="Helvetica,sans-Serif" font-size="8.00">limits</text>
</a>
</g>
</g>
<!-- Node4&#45;&gt;Node6 -->
<g id="edge6_Node000004_Node000006" class="edge">
<title>Node4&#45;&gt;Node6</title>
<g id="a_edge6_Node000004_Node000006"><a xlink:title=" ">
<path fill="none" stroke="#63b8ff" d="M267.43,-158.68C254.11,-141.58 222.18,-100.59 204.62,-78.03"/>
<polygon fill="#63b8ff" stroke="#63b8ff" points="207.36,-75.86 198.46,-70.12 201.84,-80.17 207.36,-75.86"/>
</a>
</g>
</g>
<!-- Node7 -->
<g id="Node000007" class="node">
<title>Node7</title>
<g id="a_Node000007"><a xlink:title=" ">
<polygon fill="#e0e0e0" stroke="#999999" points="589.52,-123 507.52,-123 507.52,-106 589.52,-106 589.52,-123"/>
<text text-anchor="middle" x="548.52" y="-112.6" font-family="Helvetica,sans-Serif" font-size="8.00">memory_resource</text>
</a>
</g>
</g>
<!-- Node4&#45;&gt;Node7 -->
<g id="edge7_Node000004_Node000007" class="edge">
<title>Node4&#45;&gt;Node7</title>
<g id="a_edge7_Node000004_Node000007"><a xlink:title=" ">
<path fill="none" stroke="#63b8ff" d="M314.09,-158.97C362.94,-149.92 444.99,-134.7 497.92,-124.88"/>
<polygon fill="#63b8ff" stroke="#63b8ff" points="498.58,-128.32 507.77,-123.06 497.3,-121.44 498.58,-128.32"/>
</a>
</g>
</g>
<!-- Node8 -->
<g id="Node000008" class="node">
<title>Node8</title>
<g id="a_Node000008"><a xlink:title=" ">
<polygon fill="#e0e0e0" stroke="#999999" points="281.02,-70 228.02,-70 228.02,-53 281.02,-53 281.02,-70"/>
<text text-anchor="middle" x="254.52" y="-59.6" font-family="Helvetica,sans-Serif" font-size="8.00">type_traits</text>
</a>
</g>
</g>
<!-- Node4&#45;&gt;Node8 -->
<g id="edge8_Node000004_Node000008" class="edge">
<title>Node4&#45;&gt;Node8</title>
<g id="a_edge8_Node000004_Node000008"><a xlink:title=" ">
<path fill="none" stroke="#63b8ff" d="M272.09,-158.68C269.06,-142.11 261.94,-103.11 257.75,-80.18"/>
<polygon fill="#63b8ff" stroke="#63b8ff" points="261.15,-79.33 255.91,-70.12 254.26,-80.59 261.15,-79.33"/>
</a>
</g>
</g>
<!-- Node4&#45;&gt;Node9 -->
<g id="edge10_Node000004_Node000009" class="edge">
<title>Node4&#45;&gt;Node9</title>
<g id="a_edge10_Node000004_Node000009"><a xlink:title=" ">
<path fill="none" stroke="#63b8ff" d="M288.57,-158.97C305.06,-150.73 331.77,-137.37 351.24,-127.64"/>
<polygon fill="#63b8ff" stroke="#63b8ff" points="353.03,-130.66 360.4,-123.06 349.89,-124.4 353.03,-130.66"/>
</a>
</g>
</g>
<!-- Node4&#45;&gt;Node13 -->
<g id="edge20_Node000004_Node000013" class="edge">
<title>Node4&#45;&gt;Node13</title>
<g id="a_edge20_Node000004_Node000013"><a xlink:title=" ">
<path fill="none" stroke="#63b8ff" d="M311.94,-158.97C349.08,-151.31 406.72,-138.39 455.52,-123 475.12,-116.82 479.36,-113.44 498.52,-106 527.07,-94.91 559.74,-82.47 582.76,-73.74"/>
<polygon fill="#63b8ff" stroke="#63b8ff" points="584.2,-76.94 592.31,-70.13 581.72,-70.4 584.2,-76.94"/>
</a>
</g>
</g>
<!-- Node9&#45;&gt;Node2 -->
<g id="edge13_Node000009_Node000002" class="edge">
<title>Node9&#45;&gt;Node2</title>
<g id="a_edge13_Node000009_Node000002"><a xlink:title=" ">
<path fill="none" stroke="#63b8ff" d="M375.36,-105.86C374.72,-93.36 371.74,-68.39 358.52,-53 341.82,-33.56 314.65,-22.37 293.47,-16.22"/>
<polygon fill="#63b8ff" stroke="#63b8ff" points="294.19,-12.79 283.63,-13.59 292.39,-19.55 294.19,-12.79"/>
</a>
</g>
</g>
<!-- Node9&#45;&gt;Node5 -->
<g id="edge14_Node000009_Node000005" class="edge">
<title>Node9&#45;&gt;Node5</title>
<g id="a_edge14_Node000009_Node000005"><a xlink:title=" ">
<path fill="none" stroke="#63b8ff" d="M367.99,-105.97C360.46,-98.44 348.67,-86.65 339.26,-77.25"/>
<polygon fill="#63b8ff" stroke="#63b8ff" points="341.62,-74.65 332.07,-70.06 336.67,-79.6 341.62,-74.65"/>
</a>
</g>
</g>
<!-- Node9&#45;&gt;Node6 -->
<g id="edge15_Node000009_Node000006" class="edge">
<title>Node9&#45;&gt;Node6</title>
<g id="a_edge15_Node000009_Node000006"><a xlink:title=" ">
<path fill="none" stroke="#63b8ff" d="M347.98,-105.97C318.51,-97.88 270.15,-84.55 219.41,-70.23"/>
<polygon fill="#63b8ff" stroke="#63b8ff" points="220.15,-66.8 209.57,-67.45 218.24,-73.54 220.15,-66.8"/>
</a>
</g>
</g>
<!-- Node9&#45;&gt;Node8 -->
<g id="edge17_Node000009_Node000008" class="edge">
<title>Node9&#45;&gt;Node8</title>
<g id="a_edge17_Node000009_Node000008"><a xlink:title=" ">
<path fill="none" stroke="#63b8ff" d="M357.66,-105.97C337.65,-97.54 304.95,-83.76 281.75,-73.98"/>
<polygon fill="#63b8ff" stroke="#63b8ff" points="283.02,-70.71 272.44,-70.06 280.3,-77.17 283.02,-70.71"/>
</a>
</g>
</g>
<!-- Node10 -->
<g id="Node000010" class="node">
<title>Node10</title>
<g id="a_Node000010"><a xlink:title=" ">
<polygon fill="#e0e0e0" stroke="#999999" points="441.02,-70 406.02,-70 406.02,-53 441.02,-53 441.02,-70"/>
<text text-anchor="middle" x="423.52" y="-59.6" font-family="Helvetica,sans-Serif" font-size="8.00">array</text>
</a>
</g>
</g>
<!-- Node9&#45;&gt;Node10 -->
<g id="edge11_Node000009_Node000010" class="edge">
<title>Node9&#45;&gt;Node10</title>
<g id="a_edge11_Node000009_Node000010"><a xlink:title=" ">
<path fill="none" stroke="#63b8ff" d="M382.6,-105.97C389.62,-98.52 400.57,-86.89 409.37,-77.53"/>
<polygon fill="#63b8ff" stroke="#63b8ff" points="412.1,-79.74 416.41,-70.06 407,-74.94 412.1,-79.74"/>
</a>
</g>
</g>
<!-- Node11 -->
<g id="Node000011" class="node">
<title>Node11</title>
<g id="a_Node000011"><a xlink:title=" ">
<polygon fill="#e0e0e0" stroke="#999999" points="497.52,-70 459.52,-70 459.52,-53 497.52,-53 497.52,-70"/>
<text text-anchor="middle" x="478.52" y="-59.6" font-family="Helvetica,sans-Serif" font-size="8.00">cmath</text>
</a>
</g>
</g>
<!-- Node9&#45;&gt;Node11 -->
<g id="edge12_Node000009_Node000011" class="edge">
<title>Node9&#45;&gt;Node11</title>
<g id="a_edge12_Node000009_Node000011"><a xlink:title=" ">
<path fill="none" stroke="#63b8ff" d="M390.71,-105.97C407.45,-97.69 434.59,-84.25 454.27,-74.5"/>
<polygon fill="#63b8ff" stroke="#63b8ff" points="455.85,-77.63 463.26,-70.06 452.74,-71.36 455.85,-77.63"/>
</a>
</g>
</g>
<!-- Node12 -->
<g id="Node000012" class="node">
<title>Node12</title>
<g id="a_Node000012"><a xlink:title=" ">
<polygon fill="#e0e0e0" stroke="#999999" points="551.52,-70 515.52,-70 515.52,-53 551.52,-53 551.52,-70"/>
<text text-anchor="middle" x="533.52" y="-59.6" font-family="Helvetica,sans-Serif" font-size="8.00">string</text>
</a>
</g>
</g>
<!-- Node9&#45;&gt;Node12 -->
<g id="edge16_Node000009_Node000012" class="edge">
<title>Node9&#45;&gt;Node12</title>
<g id="a_edge16_Node000009_Node000012"><a xlink:title=" ">
<path fill="none" stroke="#63b8ff" d="M398.83,-105.97C427.37,-96.76 475.62,-81.19 505.96,-71.39"/>
<polygon fill="#63b8ff" stroke="#63b8ff" points="507.07,-74.71 515.51,-68.31 504.92,-68.05 507.07,-74.71"/>
</a>
</g>
</g>
<!-- Node9&#45;&gt;Node13 -->
<g id="edge18_Node000009_Node000013" class="edge">
<title>Node9&#45;&gt;Node13</title>
<g id="a_edge18_Node000009_Node000013"><a xlink:title=" ">
<path fill="none" stroke="#63b8ff" d="M410.49,-105.97C452.15,-97.01 521.83,-82.02 567.48,-72.19"/>
<polygon fill="#63b8ff" stroke="#63b8ff" points="568.36,-75.58 577.4,-70.06 566.89,-68.74 568.36,-75.58"/>
</a>
</g>
</g>
<!-- Node13&#45;&gt;Node2 -->
<g id="edge19_Node000013_Node000002" class="edge">
<title>Node13&#45;&gt;Node2</title>
<g id="a_edge19_Node000013_Node000002"><a xlink:title=" ">
<path fill="none" stroke="#63b8ff" d="M569.95,-54.3C498.65,-43.91 356.73,-23.23 293.8,-14.06"/>
<polygon fill="#63b8ff" stroke="#63b8ff" points="294.11,-10.57 283.71,-12.59 293.1,-17.49 294.11,-10.57"/>
</a>
</g>
</g>
<!-- Node16&#45;&gt;Node2 -->
<g id="edge22_Node000016_Node000002" class="edge">
<title>Node16&#45;&gt;Node2</title>
<g id="a_edge22_Node000016_Node000002"><a xlink:title=" ">
<path fill="none" stroke="#63b8ff" d="M644.71,-158.96C662.3,-152.51 683.84,-141.3 694.52,-123 709.78,-96.84 675.49,-60.21 664.52,-53 603.69,-13 377.55,-9.26 293.89,-9.28"/>
<polygon fill="#63b8ff" stroke="#63b8ff" points="293.73,-5.78 283.74,-9.3 293.75,-12.78 293.73,-5.78"/>
</a>
</g>
</g>
<!-- Node16&#45;&gt;Node7 -->
<g id="edge24_Node000016_Node000007" class="edge">
<title>Node16&#45;&gt;Node7</title>
<g id="a_edge24_Node000016_Node000007"><a xlink:title=" ">
<path fill="none" stroke="#63b8ff" d="M607.34,-158.97C596.74,-151.14 579.91,-138.7 566.96,-129.13"/>
<polygon fill="#63b8ff" stroke="#63b8ff" points="568.86,-126.19 558.74,-123.06 564.7,-131.81 568.86,-126.19"/>
</a>
</g>
</g>
<!-- Node16&#45;&gt;Node13 -->
<g id="edge25_Node000016_Node000013" class="edge">
<title>Node16&#45;&gt;Node13</title>
<g id="a_edge25_Node000016_Node000013"><a xlink:title=" ">
<path fill="none" stroke="#63b8ff" d="M617.14,-158.68C616.34,-142.11 614.47,-103.11 613.37,-80.18"/>
<polygon fill="#63b8ff" stroke="#63b8ff" points="616.86,-79.95 612.88,-70.12 609.87,-80.28 616.86,-79.95"/>
</a>
</g>
</g>
<!-- Node17 -->
<g id="Node000017" class="node">
<title>Node17</title>
<g id="a_Node000017"><a xlink:title=" ">
<polygon fill="#e0e0e0" stroke="#999999" points="685.02,-123 646.02,-123 646.02,-106 685.02,-106 685.02,-123"/>
<text text-anchor="middle" x="665.52" y="-112.6" font-family="Helvetica,sans-Serif" font-size="8.00">deque</text>
</a>
</g>
</g>
<!-- Node16&#45;&gt;Node17 -->
<g id="edge23_Node000016_Node000017" class="edge">
<title>Node16&#45;&gt;Node17</title>
<g id="a_edge23_Node000016_Node000017"><a xlink:title=" ">
<path fill="none" stroke="#63b8ff" d="M624.6,-158.97C631.62,-151.52 642.57,-139.89 651.37,-130.53"/>
<polygon fill="#63b8ff" stroke="#63b8ff" points="654.1,-132.74 658.41,-123.06 649,-127.94 654.1,-132.74"/>
</a>
</g>
</g>
<!-- Node18&#45;&gt;Node2 -->
<g id="edge28_Node000018_Node000002" class="edge">
<title>Node18&#45;&gt;Node2</title>
<g id="a_edge28_Node000018_Node000002"><a xlink:title=" ">
<path fill="none" stroke="#63b8ff" d="M144.18,-158.93C141.13,-139.23 135.75,-85.61 160.52,-53 177.38,-30.8 207.81,-19.79 231.05,-14.42"/>
<polygon fill="#63b8ff" stroke="#63b8ff" points="232.07,-17.79 241.15,-12.33 230.65,-10.93 232.07,-17.79"/>
</a>
</g>
</g>
<!-- Node18&#45;&gt;Node3 -->
<g id="edge31_Node000018_Node000003" class="edge">
<title>Node18&#45;&gt;Node3</title>
<g id="a_edge31_Node000018_Node000003"><a xlink:title=" ">
<path fill="none" stroke="#63b8ff" d="M129.14,-158.97C110.94,-150.61 81.32,-137 60.07,-127.24"/>
<polygon fill="#63b8ff" stroke="#63b8ff" points="61.51,-124.05 50.96,-123.06 58.59,-130.41 61.51,-124.05"/>
</a>
</g>
</g>
<!-- Node18&#45;&gt;Node6 -->
<g id="edge29_Node000018_Node000006" class="edge">
<title>Node18&#45;&gt;Node6</title>
<g id="a_edge29_Node000018_Node000006"><a xlink:title=" ">
<path fill="none" stroke="#63b8ff" d="M149.05,-158.68C156.64,-141.89 174.65,-102.04 184.95,-79.25"/>
<polygon fill="#63b8ff" stroke="#63b8ff" points="188.14,-80.68 189.07,-70.12 181.76,-77.8 188.14,-80.68"/>
</a>
</g>
</g>
<!-- Node18&#45;&gt;Node8 -->
<g id="edge30_Node000018_Node000008" class="edge">
<title>Node18&#45;&gt;Node8</title>
<g id="a_edge30_Node000018_Node000008"><a xlink:title=" ">
<path fill="none" stroke="#63b8ff" d="M153.71,-158.68C171.87,-141.36 215.74,-99.5 239.17,-77.15"/>
<polygon fill="#63b8ff" stroke="#63b8ff" points="241.71,-79.56 246.53,-70.12 236.87,-74.5 241.71,-79.56"/>
</a>
</g>
</g>
<!-- Node18&#45;&gt;Node9 -->
<g id="edge32_Node000018_Node000009" class="edge">
<title>Node18&#45;&gt;Node9</title>
<g id="a_edge32_Node000018_Node000009"><a xlink:title=" ">
<path fill="none" stroke="#63b8ff" d="M179.45,-158.97C219.8,-150.03 287.22,-135.08 331.53,-125.25"/>
<polygon fill="#63b8ff" stroke="#63b8ff" points="332.44,-128.64 341.44,-123.06 330.92,-121.8 332.44,-128.64"/>
</a>
</g>
</g>
<!-- Node18&#45;&gt;Node13 -->
<g id="edge33_Node000018_Node000013" class="edge">
<title>Node18&#45;&gt;Node13</title>
<g id="a_edge33_Node000018_Node000013"><a xlink:title=" ">
<path fill="none" stroke="#63b8ff" d="M181.86,-160.41C184.79,-159.93 187.7,-159.45 190.52,-159 293.1,-142.46 322.54,-154.61 421.52,-123 437.61,-117.86 439.75,-112.06 455.52,-106 492.56,-91.76 536.16,-80.06 568,-72.4"/>
<polygon fill="#63b8ff" stroke="#63b8ff" points="568.98,-75.76 577.91,-70.05 567.37,-68.95 568.98,-75.76"/>
</a>
</g>
</g>
</g>
</svg>
