<?xml version="1.0" encoding="UTF-8" standalone="no"?>
<!DOCTYPE svg PUBLIC "-//W3C//DTD SVG 1.1//EN"
 "http://www.w3.org/Graphics/SVG/1.1/DTD/svg11.dtd">
<!-- Generated by graphviz version 2.43.0 (0)
 -->
<!-- Title: flood.hpp Pages: 1 -->
<svg width="816pt" height="237pt"
 viewBox="0.00 0.00 816.01 237.00" xmlns="http://www.w3.org/2000/svg" xmlns:xlink="http://www.w3.org/1999/xlink">
<g id="graph0" class="graph" transform="scale(1 1) rotate(0) translate(4 233)">
<title>flood.hpp</title>
<!-- Node1 -->
<g id="Node000001" class="node">
<title>Node1</title>
<g id="a_Node000001"><a xlink:title=" ">
<polygon fill="#999999" stroke="#666666" points="362.52,-229 306.52,-229 306.52,-212 362.52,-212 362.52,-229"/>
<text text-anchor="middle" x="334.52" y="-218.6" font-family="Helvetica,sans-Serif" font-size="8.00">flood.hpp</text>
</a>
</g>
</g>
<!-- Node2 -->
<g id="Node000002" class="node">
<title>Node2</title>
<g id="a_Node000002"><a xlink:title=" ">
<polygon fill="#e0e0e0" stroke="#999999" points="486.02,-17 439.02,-17 439.02,0 486.02,0 486.02,-17"/>
<text text-anchor="middle" x="462.52" y="-6.6" font-family="Helvetica,sans-Serif" font-size="8.00">cstddef</text>
</a>
</g>
</g>
<!-- Node1&#45;&gt;Node2 -->
<g id="edge1_Node000001_Node000002" class="edge">
<title>Node1&#45;&gt;Node2</title>
<g id="a_edge1_Node000001_Node000002"><a xlink:title=" ">
<path fill="none" stroke="#63b8ff" d="M306.16,-219.47C242.28,-218.74 90.2,-213.06 58.52,-176 37.81,-151.77 -63.45,-188.35 61.52,-53 86.28,-26.18 336.7,-14.19 428.78,-10.67"/>
<polygon fill="#63b8ff" stroke="#63b8ff" points="429.09,-14.16 438.95,-10.29 428.83,-7.16 429.09,-14.16"/>
</a>
</g>
</g>
<!-- Node3 -->
<g id="Node000003" class="node">
<title>Node3</title>
<g id="a_Node000003"><a xlink:title=" ">
<polygon fill="#e0e0e0" stroke="#999999" points="209.52,-123 167.52,-123 167.52,-106 209.52,-106 209.52,-123"/>
<text text-anchor="middle" x="188.52" y="-112.6" font-family="Helvetica,sans-Serif" font-size="8.00">vector</text>
</a>
</g>
</g>
<!-- Node1&#45;&gt;Node3 -->
<g id="edge2_Node000001_Node000003" class="edge">
<title>Node1&#45;&gt;Node3</title>
<g id="a_edge2_Node000001_Node000003"><a xlink:title=" ">
<path fill="none" stroke="#63b8ff" d="M323.55,-211.68C298.8,-194.06 238.4,-151.03 207.46,-128.99"/>
<polygon fill="#63b8ff" stroke="#63b8ff" points="209.4,-126.08 199.23,-123.12 205.34,-131.78 209.4,-126.08"/>
</a>
</g>
</g>
<!-- Node4 -->
<g id="Node000004" class="node">
<title>Node4</title>
<g id="a_Node000004"><a xlink:href="../../d8/d62/existence__set_8hpp.html" target="_top" xlink:title=" ">
<polygon fill="white" stroke="#666666" points="237.52,-176 67.52,-176 67.52,-159 237.52,-159 237.52,-176"/>
<text text-anchor="middle" x="152.52" y="-165.6" font-family="Helvetica,sans-Serif" font-size="8.00">../types/containers/existence_set.hpp</text>
</a>
</g>
</g>
<!-- Node1&#45;&gt;Node4 -->
<g id="edge3_Node000001_Node000004" class="edge">
<title>Node1&#45;&gt;Node4</title>
<g id="a_edge3_Node000001_Node000004"><a xlink:title=" ">
<path fill="none" stroke="#63b8ff" d="M307.67,-211.97C276.35,-203.2 224.41,-188.64 189.34,-178.82"/>
<polygon fill="#63b8ff" stroke="#63b8ff" points="190.06,-175.38 179.49,-176.06 188.17,-182.12 190.06,-175.38"/>
</a>
</g>
</g>
<!-- Node9 -->
<g id="Node000009" class="node">
<title>Node9</title>
<g id="a_Node000009"><a xlink:href="../../df/d93/utils_8hpp.html" target="_top" xlink:title=" ">
<polygon fill="white" stroke="#666666" points="391.02,-123 304.02,-123 304.02,-106 391.02,-106 391.02,-123"/>
<text text-anchor="middle" x="347.52" y="-112.6" font-family="Helvetica,sans-Serif" font-size="8.00">../../utils/utils.hpp</text>
</a>
</g>
</g>
<!-- Node1&#45;&gt;Node9 -->
<g id="edge26_Node000001_Node000009" class="edge">
<title>Node1&#45;&gt;Node9</title>
<g id="a_edge26_Node000001_Node000009"><a xlink:title=" ">
<path fill="none" stroke="#63b8ff" d="M348.51,-211.97C360.58,-204.59 377.18,-192.13 384.52,-176 392.05,-159.48 378.64,-141.93 365.91,-130.01"/>
<polygon fill="#63b8ff" stroke="#63b8ff" points="368.11,-127.28 358.26,-123.37 363.52,-132.57 368.11,-127.28"/>
</a>
</g>
</g>
<!-- Node13 -->
<g id="Node000013" class="node">
<title>Node13</title>
<g id="a_Node000013"><a xlink:href="../../d7/d65/intrinsics_8hpp.html" target="_top" xlink:title=" ">
<polygon fill="#fff0f0" stroke="red" points="641.02,-70 542.02,-70 542.02,-53 641.02,-53 641.02,-70"/>
<text text-anchor="middle" x="591.52" y="-59.6" font-family="Helvetica,sans-Serif" font-size="8.00">../utils/intrinsics.hpp</text>
</a>
</g>
</g>
<!-- Node1&#45;&gt;Node13 -->
<g id="edge35_Node000001_Node000013" class="edge">
<title>Node1&#45;&gt;Node13</title>
<g id="a_edge35_Node000001_Node000013"><a xlink:title=" ">
<path fill="none" stroke="#63b8ff" d="M362.67,-218.93C457.65,-216.72 762.01,-207.25 791.52,-176 812.89,-153.37 813.08,-130.21 793.52,-106 775.89,-84.17 704.39,-72.78 651.44,-67.22"/>
<polygon fill="#63b8ff" stroke="#63b8ff" points="651.75,-63.73 641.45,-66.21 651.05,-70.7 651.75,-63.73"/>
</a>
</g>
</g>
<!-- Node16 -->
<g id="Node000016" class="node">
<title>Node16</title>
<g id="a_Node000016"><a xlink:href="../../d7/ded/queue_8hpp.html" target="_top" xlink:title=" ">
<polygon fill="white" stroke="#666666" points="782.52,-176 642.52,-176 642.52,-159 782.52,-159 782.52,-176"/>
<text text-anchor="middle" x="712.52" y="-165.6" font-family="Helvetica,sans-Serif" font-size="8.00">../types/containers/queue.hpp</text>
</a>
</g>
</g>
<!-- Node1&#45;&gt;Node16 -->
<g id="edge21_Node000001_Node000016" class="edge">
<title>Node1&#45;&gt;Node16</title>
<g id="a_edge21_Node000001_Node000016"><a xlink:title=" ">
<path fill="none" stroke="#63b8ff" d="M362.62,-215.71C422.31,-207.66 563.07,-188.66 646.74,-177.38"/>
<polygon fill="#63b8ff" stroke="#63b8ff" points="647.21,-180.84 656.65,-176.04 646.27,-173.91 647.21,-180.84"/>
</a>
</g>
</g>
<!-- Node18 -->
<g id="Node000018" class="node">
<title>Node18</title>
<g id="a_Node000018"><a xlink:href="../../d2/d1c/solver_8hpp.html" target="_top" xlink:title=" ">
<polygon fill="white" stroke="#666666" points="375.52,-176 293.52,-176 293.52,-159 375.52,-159 375.52,-176"/>
<text text-anchor="middle" x="334.52" y="-165.6" font-family="Helvetica,sans-Serif" font-size="8.00">base/solver.hpp</text>
</a>
</g>
</g>
<!-- Node1&#45;&gt;Node18 -->
<g id="edge27_Node000001_Node000018" class="edge">
<title>Node1&#45;&gt;Node18</title>
<g id="a_edge27_Node000001_Node000018"><a xlink:title=" ">
<path fill="none" stroke="#63b8ff" d="M334.52,-211.97C334.52,-205.19 334.52,-194.97 334.52,-186.13"/>
<polygon fill="#63b8ff" stroke="#63b8ff" points="338.02,-186.06 334.52,-176.06 331.02,-186.06 338.02,-186.06"/>
</a>
</g>
</g>
<!-- Node4&#45;&gt;Node2 -->
<g id="edge4_Node000004_Node000002" class="edge">
<title>Node4&#45;&gt;Node2</title>
<g id="a_edge4_Node000004_Node000002"><a xlink:title=" ">
<path fill="none" stroke="#63b8ff" d="M130.49,-158.97C114.2,-152.2 92.94,-140.58 81.52,-123 64.49,-96.78 53.68,-76.31 74.52,-53 97.97,-26.78 338.46,-14.48 428.63,-10.77"/>
<polygon fill="#63b8ff" stroke="#63b8ff" points="429,-14.25 438.85,-10.36 428.72,-7.26 429,-14.25"/>
</a>
</g>
</g>
<!-- Node4&#45;&gt;Node3 -->
<g id="edge9_Node000004_Node000003" class="edge">
<title>Node4&#45;&gt;Node3</title>
<g id="a_edge9_Node000004_Node000003"><a xlink:title=" ">
<path fill="none" stroke="#63b8ff" d="M157.83,-158.97C162.94,-151.74 170.81,-140.59 177.31,-131.39"/>
<polygon fill="#63b8ff" stroke="#63b8ff" points="180.28,-133.24 183.19,-123.06 174.56,-129.21 180.28,-133.24"/>
</a>
</g>
</g>
<!-- Node5 -->
<g id="Node000005" class="node">
<title>Node5</title>
<g id="a_Node000005"><a xlink:title=" ">
<polygon fill="#e0e0e0" stroke="#999999" points="141.52,-70 83.52,-70 83.52,-53 141.52,-53 141.52,-70"/>
<text text-anchor="middle" x="112.52" y="-59.6" font-family="Helvetica,sans-Serif" font-size="8.00">functional</text>
</a>
</g>
</g>
<!-- Node4&#45;&gt;Node5 -->
<g id="edge5_Node000004_Node000005" class="edge">
<title>Node4&#45;&gt;Node5</title>
<g id="a_edge5_Node000004_Node000005"><a xlink:title=" ">
<path fill="none" stroke="#63b8ff" d="M132.01,-158.99C116.69,-152.18 96.86,-140.49 87.52,-123 79.68,-108.32 88.99,-90.63 98.4,-78.19"/>
<polygon fill="#63b8ff" stroke="#63b8ff" points="101.35,-80.11 105.02,-70.17 95.95,-75.65 101.35,-80.11"/>
</a>
</g>
</g>
<!-- Node6 -->
<g id="Node000006" class="node">
<title>Node6</title>
<g id="a_Node000006"><a xlink:title=" ">
<polygon fill="#e0e0e0" stroke="#999999" points="227.52,-70 189.52,-70 189.52,-53 227.52,-53 227.52,-70"/>
<text text-anchor="middle" x="208.52" y="-59.6" font-family="Helvetica,sans-Serif" font-size="8.00">limits</text>
</a>
</g>
</g>
<!-- Node4&#45;&gt;Node6 -->
<g id="edge6_Node000004_Node000006" class="edge">
<title>Node4&#45;&gt;Node6</title>
<g id="a_edge6_Node000004_Node000006"><a xlink:title=" ">
<path fill="none" stroke="#63b8ff" d="M144.34,-158.75C132.9,-146.93 114.69,-123.91 125.52,-106 137.23,-86.65 160.7,-75.49 179.7,-69.33"/>
<polygon fill="#63b8ff" stroke="#63b8ff" points="180.81,-72.65 189.42,-66.47 178.84,-65.93 180.81,-72.65"/>
</a>
</g>
</g>
<!-- Node7 -->
<g id="Node000007" class="node">
<title>Node7</title>
<g id="a_Node000007"><a xlink:title=" ">
<polygon fill="#e0e0e0" stroke="#999999" points="608.02,-123 519.02,-123 519.02,-106 608.02,-106 608.02,-123"/>
<text text-anchor="middle" x="563.52" y="-112.6" font-family="Helvetica,sans-Serif" font-size="8.00">memory_resource</text>
</a>
</g>
</g>
<!-- Node4&#45;&gt;Node7 -->
<g id="edge7_Node000004_Node000007" class="edge">
<title>Node4&#45;&gt;Node7</title>
<g id="a_edge7_Node000004_Node000007"><a xlink:title=" ">
<path fill="none" stroke="#63b8ff" d="M217.06,-158.97C286.42,-150.79 400.22,-137.17 508.61,-123.1"/>
<polygon fill="#63b8ff" stroke="#63b8ff" points="509.28,-126.54 518.74,-121.78 508.37,-119.6 509.28,-126.54"/>
</a>
</g>
</g>
<!-- Node8 -->
<g id="Node000008" class="node">
<title>Node8</title>
<g id="a_Node000008"><a xlink:title=" ">
<polygon fill="#e0e0e0" stroke="#999999" points="305.02,-70 246.02,-70 246.02,-53 305.02,-53 305.02,-70"/>
<text text-anchor="middle" x="275.52" y="-59.6" font-family="Helvetica,sans-Serif" font-size="8.00">type_traits</text>
</a>
</g>
</g>
<!-- Node4&#45;&gt;Node8 -->
<g id="edge8_Node000004_Node000008" class="edge">
<title>Node4&#45;&gt;Node8</title>
<g id="a_edge8_Node000004_Node000008"><a xlink:title=" ">
<path fill="none" stroke="#63b8ff" d="M150.93,-158.89C148.8,-146.44 146.53,-121.55 158.52,-106 168.33,-93.28 206.01,-80.7 236,-72.37"/>
<polygon fill="#63b8ff" stroke="#63b8ff" points="237.08,-75.7 245.82,-69.71 235.25,-68.95 237.08,-75.7"/>
</a>
</g>
</g>
<!-- Node4&#45;&gt;Node9 -->
<g id="edge10_Node000004_Node000009" class="edge">
<title>Node4&#45;&gt;Node9</title>
<g id="a_edge10_Node000004_Node000009"><a xlink:title=" ">
<path fill="none" stroke="#63b8ff" d="M181.3,-158.97C214.99,-150.16 270.98,-135.52 308.56,-125.69"/>
<polygon fill="#63b8ff" stroke="#63b8ff" points="309.84,-128.97 318.63,-123.06 308.07,-122.2 309.84,-128.97"/>
</a>
</g>
</g>
<!-- Node4&#45;&gt;Node13 -->
<g id="edge20_Node000004_Node000013" class="edge">
<title>Node4&#45;&gt;Node13</title>
<g id="a_edge20_Node000004_Node000013"><a xlink:title=" ">
<path fill="none" stroke="#63b8ff" d="M220.09,-158.99C270.31,-152.35 340.11,-140.9 399.52,-123 417.63,-117.54 420.72,-112.38 438.52,-106 475.78,-92.65 519.26,-80.62 550.33,-72.61"/>
<polygon fill="#63b8ff" stroke="#63b8ff" points="551.54,-75.91 560.37,-70.05 549.81,-69.13 551.54,-75.91"/>
</a>
</g>
</g>
<!-- Node9&#45;&gt;Node2 -->
<g id="edge13_Node000009_Node000002" class="edge">
<title>Node9&#45;&gt;Node2</title>
<g id="a_edge13_Node000009_Node000002"><a xlink:title=" ">
<path fill="none" stroke="#63b8ff" d="M345.82,-105.93C343.49,-93.55 340.84,-68.74 352.52,-53 370.38,-28.94 403.61,-18.17 428.89,-13.37"/>
<polygon fill="#63b8ff" stroke="#63b8ff" points="429.54,-16.8 438.83,-11.7 428.39,-9.9 429.54,-16.8"/>
</a>
</g>
</g>
<!-- Node9&#45;&gt;Node5 -->
<g id="edge14_Node000009_Node000005" class="edge">
<title>Node9&#45;&gt;Node5</title>
<g id="a_edge14_Node000009_Node000005"><a xlink:title=" ">
<path fill="none" stroke="#63b8ff" d="M312.85,-105.97C269.85,-96.64 196.75,-80.78 151.75,-71.01"/>
<polygon fill="#63b8ff" stroke="#63b8ff" points="152.28,-67.55 141.77,-68.85 150.8,-74.39 152.28,-67.55"/>
</a>
</g>
</g>
<!-- Node9&#45;&gt;Node6 -->
<g id="edge15_Node000009_Node000006" class="edge">
<title>Node9&#45;&gt;Node6</title>
<g id="a_edge15_Node000009_Node000006"><a xlink:title=" ">
<path fill="none" stroke="#63b8ff" d="M327.01,-105.97C303.31,-97.28 264.13,-82.9 237.36,-73.08"/>
<polygon fill="#63b8ff" stroke="#63b8ff" points="238.37,-69.72 227.77,-69.56 235.95,-76.29 238.37,-69.72"/>
</a>
</g>
</g>
<!-- Node9&#45;&gt;Node8 -->
<g id="edge17_Node000009_Node000008" class="edge">
<title>Node9&#45;&gt;Node8</title>
<g id="a_edge17_Node000009_Node000008"><a xlink:title=" ">
<path fill="none" stroke="#63b8ff" d="M336.9,-105.97C325.73,-98.07 307.94,-85.46 294.38,-75.86"/>
<polygon fill="#63b8ff" stroke="#63b8ff" points="296.37,-72.98 286.19,-70.06 292.33,-78.69 296.37,-72.98"/>
</a>
</g>
</g>
<!-- Node10 -->
<g id="Node000010" class="node">
<title>Node10</title>
<g id="a_Node000010"><a xlink:title=" ">
<polygon fill="#e0e0e0" stroke="#999999" points="399.52,-70 361.52,-70 361.52,-53 399.52,-53 399.52,-70"/>
<text text-anchor="middle" x="380.52" y="-59.6" font-family="Helvetica,sans-Serif" font-size="8.00">array</text>
</a>
</g>
</g>
<!-- Node9&#45;&gt;Node10 -->
<g id="edge11_Node000009_Node000010" class="edge">
<title>Node9&#45;&gt;Node10</title>
<g id="a_edge11_Node000009_Node000010"><a xlink:title=" ">
<path fill="none" stroke="#63b8ff" d="M352.39,-105.97C357.02,-98.82 364.14,-87.82 370.06,-78.67"/>
<polygon fill="#63b8ff" stroke="#63b8ff" points="373.14,-80.35 375.63,-70.06 367.26,-76.55 373.14,-80.35"/>
</a>
</g>
</g>
<!-- Node11 -->
<g id="Node000011" class="node">
<title>Node11</title>
<g id="a_Node000011"><a xlink:title=" ">
<polygon fill="#e0e0e0" stroke="#999999" points="459.52,-70 417.52,-70 417.52,-53 459.52,-53 459.52,-70"/>
<text text-anchor="middle" x="438.52" y="-59.6" font-family="Helvetica,sans-Serif" font-size="8.00">cmath</text>
</a>
</g>
</g>
<!-- Node9&#45;&gt;Node11 -->
<g id="edge12_Node000009_Node000011" class="edge">
<title>Node9&#45;&gt;Node11</title>
<g id="a_edge12_Node000009_Node000011"><a xlink:title=" ">
<path fill="none" stroke="#63b8ff" d="M360.95,-105.97C375.47,-97.84 398.85,-84.74 416.15,-75.04"/>
<polygon fill="#63b8ff" stroke="#63b8ff" points="418.03,-78 425.04,-70.06 414.61,-71.89 418.03,-78"/>
</a>
</g>
</g>
<!-- Node12 -->
<g id="Node000012" class="node">
<title>Node12</title>
<g id="a_Node000012"><a xlink:title=" ">
<polygon fill="#e0e0e0" stroke="#999999" points="517.52,-70 477.52,-70 477.52,-53 517.52,-53 517.52,-70"/>
<text text-anchor="middle" x="497.52" y="-59.6" font-family="Helvetica,sans-Serif" font-size="8.00">string</text>
</a>
</g>
</g>
<!-- Node9&#45;&gt;Node12 -->
<g id="edge16_Node000009_Node000012" class="edge">
<title>Node9&#45;&gt;Node12</title>
<g id="a_edge16_Node000009_Node000012"><a xlink:title=" ">
<path fill="none" stroke="#63b8ff" d="M369.66,-105.97C395.61,-97.15 438.74,-82.49 467.65,-72.66"/>
<polygon fill="#63b8ff" stroke="#63b8ff" points="468.88,-75.93 477.22,-69.4 466.63,-69.31 468.88,-75.93"/>
</a>
</g>
</g>
<!-- Node9&#45;&gt;Node13 -->
<g id="edge18_Node000009_Node000013" class="edge">
<title>Node9&#45;&gt;Node13</title>
<g id="a_edge18_Node000009_Node000013"><a xlink:title=" ">
<path fill="none" stroke="#63b8ff" d="M383.53,-105.97C426.5,-96.99 498.45,-81.95 545.45,-72.13"/>
<polygon fill="#63b8ff" stroke="#63b8ff" points="546.3,-75.53 555.37,-70.06 544.87,-68.68 546.3,-75.53"/>
</a>
</g>
</g>
<!-- Node13&#45;&gt;Node2 -->
<g id="edge19_Node000013_Node000002" class="edge">
<title>Node13&#45;&gt;Node2</title>
<g id="a_edge19_Node000013_Node000002"><a xlink:title=" ">
<path fill="none" stroke="#63b8ff" d="M572.49,-52.97C551.05,-44.5 515.98,-30.64 491.22,-20.85"/>
<polygon fill="#63b8ff" stroke="#63b8ff" points="492.22,-17.48 481.63,-17.06 489.65,-23.99 492.22,-17.48"/>
</a>
</g>
</g>
<!-- Node16&#45;&gt;Node2 -->
<g id="edge22_Node000016_Node000002" class="edge">
<title>Node16&#45;&gt;Node2</title>
<g id="a_edge22_Node000016_Node000002"><a xlink:title=" ">
<path fill="none" stroke="#63b8ff" d="M739.64,-158.94C769.11,-149.29 809.95,-130.81 793.52,-106 760.22,-55.71 574.24,-24.8 496.59,-13.92"/>
<polygon fill="#63b8ff" stroke="#63b8ff" points="496.76,-10.41 486.38,-12.52 495.81,-17.34 496.76,-10.41"/>
</a>
</g>
</g>
<!-- Node16&#45;&gt;Node7 -->
<g id="edge24_Node000016_Node000007" class="edge">
<title>Node16&#45;&gt;Node7</title>
<g id="a_edge24_Node000016_Node000007"><a xlink:title=" ">
<path fill="none" stroke="#63b8ff" d="M690.54,-158.97C665.34,-150.35 623.83,-136.14 595.16,-126.33"/>
<polygon fill="#63b8ff" stroke="#63b8ff" points="596.19,-122.98 585.6,-123.06 593.93,-129.61 596.19,-122.98"/>
</a>
</g>
</g>
<!-- Node16&#45;&gt;Node13 -->
<g id="edge25_Node000016_Node000013" class="edge">
<title>Node16&#45;&gt;Node13</title>
<g id="a_edge25_Node000016_Node000013"><a xlink:title=" ">
<path fill="none" stroke="#63b8ff" d="M705.2,-158.7C693.92,-146.82 671.38,-123.72 650.52,-106 637.85,-95.23 622.74,-84.12 610.98,-75.82"/>
<polygon fill="#63b8ff" stroke="#63b8ff" points="612.95,-72.93 602.74,-70.08 608.94,-78.67 612.95,-72.93"/>
</a>
</g>
</g>
<!-- Node17 -->
<g id="Node000017" class="node">
<title>Node17</title>
<g id="a_Node000017"><a xlink:title=" ">
<polygon fill="#e0e0e0" stroke="#999999" points="784.02,-123 741.02,-123 741.02,-106 784.02,-106 784.02,-123"/>
<text text-anchor="middle" x="762.52" y="-112.6" font-family="Helvetica,sans-Serif" font-size="8.00">deque</text>
</a>
</g>
</g>
<!-- Node16&#45;&gt;Node17 -->
<g id="edge23_Node000016_Node000017" class="edge">
<title>Node16&#45;&gt;Node17</title>
<g id="a_edge23_Node000016_Node000017"><a xlink:title=" ">
<path fill="none" stroke="#63b8ff" d="M719.9,-158.97C727.29,-151.44 738.85,-139.65 748.06,-130.25"/>
<polygon fill="#63b8ff" stroke="#63b8ff" points="750.61,-132.65 755.11,-123.06 745.61,-127.75 750.61,-132.65"/>
</a>
</g>
</g>
<!-- Node18&#45;&gt;Node2 -->
<g id="edge28_Node000018_Node000002" class="edge">
<title>Node18&#45;&gt;Node2</title>
<g id="a_edge28_Node000018_Node000002"><a xlink:title=" ">
<path fill="none" stroke="#63b8ff" d="M375.74,-165.75C448.44,-163.61 595.39,-155.28 633.52,-123 657.96,-102.32 670.45,-78.06 650.52,-53 631.63,-29.24 545.29,-17.32 496.45,-12.39"/>
<polygon fill="#63b8ff" stroke="#63b8ff" points="496.64,-8.89 486.35,-11.41 495.97,-15.86 496.64,-8.89"/>
</a>
</g>
</g>
<!-- Node18&#45;&gt;Node3 -->
<g id="edge31_Node000018_Node000003" class="edge">
<title>Node18&#45;&gt;Node3</title>
<g id="a_edge31_Node000018_Node000003"><a xlink:title=" ">
<path fill="none" stroke="#63b8ff" d="M312.98,-158.97C288.25,-150.34 247.5,-136.1 219.41,-126.29"/>
<polygon fill="#63b8ff" stroke="#63b8ff" points="220.27,-122.88 209.68,-122.89 217.97,-129.49 220.27,-122.88"/>
</a>
</g>
</g>
<!-- Node18&#45;&gt;Node6 -->
<g id="edge29_Node000018_Node000006" class="edge">
<title>Node18&#45;&gt;Node6</title>
<g id="a_edge29_Node000018_Node000006"><a xlink:title=" ">
<path fill="none" stroke="#63b8ff" d="M325.05,-158.68C303.88,-141.21 252.46,-98.77 225.56,-76.57"/>
<polygon fill="#63b8ff" stroke="#63b8ff" points="227.7,-73.79 217.76,-70.12 223.24,-79.19 227.7,-73.79"/>
</a>
</g>
</g>
<!-- Node18&#45;&gt;Node8 -->
<g id="edge30_Node000018_Node000008" class="edge">
<title>Node18&#45;&gt;Node8</title>
<g id="a_edge30_Node000018_Node000008"><a xlink:title=" ">
<path fill="none" stroke="#63b8ff" d="M325.33,-158.73C316.31,-150.65 302.73,-137.21 294.52,-123 286.76,-109.57 281.79,-92.6 278.89,-80.05"/>
<polygon fill="#63b8ff" stroke="#63b8ff" points="282.26,-79.07 276.78,-70 275.41,-80.51 282.26,-79.07"/>
</a>
</g>
</g>
<!-- Node18&#45;&gt;Node9 -->
<g id="edge32_Node000018_Node000009" class="edge">
<title>Node18&#45;&gt;Node9</title>
<g id="a_edge32_Node000018_Node000009"><a xlink:title=" ">
<path fill="none" stroke="#63b8ff" d="M336.44,-158.97C338.19,-152.12 340.83,-141.74 343.1,-132.84"/>
<polygon fill="#63b8ff" stroke="#63b8ff" points="346.52,-133.61 345.6,-123.06 339.73,-131.88 346.52,-133.61"/>
</a>
</g>
</g>
<!-- Node18&#45;&gt;Node13 -->
<g id="edge34_Node000018_Node000013" class="edge">
<title>Node18&#45;&gt;Node13</title>
<g id="a_edge34_Node000018_Node000013"><a xlink:title=" ">
<path fill="none" stroke="#63b8ff" d="M375.68,-166.46C446.52,-165.41 586.85,-158.74 617.52,-123 628.76,-109.9 617.71,-91.22 606.74,-78.09"/>
<polygon fill="#63b8ff" stroke="#63b8ff" points="609.08,-75.46 599.79,-70.38 603.89,-80.15 609.08,-75.46"/>
</a>
</g>
</g>
<!-- Node19 -->
<g id="Node000019" class="node">
<title>Node19</title>
<g id="a_Node000019"><a xlink:title=" ">
<polygon fill="#e0e0e0" stroke="#999999" points="501.02,-123 448.02,-123 448.02,-106 501.02,-106 501.02,-123"/>
<text text-anchor="middle" x="474.52" y="-112.6" font-family="Helvetica,sans-Serif" font-size="8.00">iostream</text>
</a>
</g>
</g>
<!-- Node18&#45;&gt;Node19 -->
<g id="edge33_Node000018_Node000019" class="edge">
<title>Node18&#45;&gt;Node19</title>
<g id="a_edge33_Node000018_Node000019"><a xlink:title=" ">
<path fill="none" stroke="#63b8ff" d="M355.18,-158.97C378.65,-150.42 417.18,-136.39 444.09,-126.59"/>
<polygon fill="#63b8ff" stroke="#63b8ff" points="445.58,-129.77 453.78,-123.06 443.19,-123.19 445.58,-129.77"/>
</a>
</g>
</g>
</g>
</svg>
