<?xml version="1.0" encoding="UTF-8" standalone="no"?>
<!DOCTYPE svg PUBLIC "-//W3C//DTD SVG 1.1//EN"
 "http://www.w3.org/Graphics/SVG/1.1/DTD/svg11.dtd">
<!-- Generated by graphviz version 2.43.0 (0)
 -->
<!-- Title: flood.hpp Pages: 1 -->
<svg width="729pt" height="290pt"
 viewBox="0.00 0.00 728.50 290.00" xmlns="http://www.w3.org/2000/svg" xmlns:xlink="http://www.w3.org/1999/xlink">
<g id="graph0" class="graph" transform="scale(1 1) rotate(0) translate(4 286)">
<title>flood.hpp</title>
<!-- Node1 -->
<g id="Node000001" class="node">
<title>Node1</title>
<g id="a_Node000001"><a xlink:title=" ">
<polygon fill="#999999" stroke="#666666" points="356,-282 306,-282 306,-265 356,-265 356,-282"/>
<text text-anchor="middle" x="331" y="-271.6" font-family="Helvetica,sans-Serif" font-size="8.00">flood.hpp</text>
</a>
</g>
</g>
<!-- Node2 -->
<g id="Node000002" class="node">
<title>Node2</title>
<g id="a_Node000002"><a xlink:title=" ">
<polygon fill="#e0e0e0" stroke="#999999" points="309,-17 267,-17 267,0 309,0 309,-17"/>
<text text-anchor="middle" x="288" y="-6.6" font-family="Helvetica,sans-Serif" font-size="8.00">cstddef</text>
</a>
</g>
</g>
<!-- Node1&#45;&gt;Node2 -->
<g id="edge1_Node000001_Node000002" class="edge">
<title>Node1&#45;&gt;Node2</title>
<g id="a_edge1_Node000001_Node000002"><a xlink:title=" ">
<path fill="none" stroke="#63b8ff" d="M305.85,-270.08C228.61,-261.98 0,-232.58 0,-168.5 0,-168.5 0,-168.5 0,-113.5 0,-80.25 15.82,-70.64 44,-53 79.11,-31.03 199.4,-17.5 256.91,-12.14"/>
<polygon fill="#63b8ff" stroke="#63b8ff" points="257.23,-15.63 266.88,-11.24 256.6,-8.66 257.23,-15.63"/>
</a>
</g>
</g>
<!-- Node3 -->
<g id="Node000003" class="node">
<title>Node3</title>
<g id="a_Node000003"><a xlink:title=" ">
<polygon fill="#e0e0e0" stroke="#999999" points="525,-123 487,-123 487,-106 525,-106 525,-123"/>
<text text-anchor="middle" x="506" y="-112.6" font-family="Helvetica,sans-Serif" font-size="8.00">vector</text>
</a>
</g>
</g>
<!-- Node1&#45;&gt;Node3 -->
<g id="edge2_Node000001_Node000003" class="edge">
<title>Node1&#45;&gt;Node3</title>
<g id="a_edge2_Node000001_Node000003"><a xlink:title=" ">
<path fill="none" stroke="#63b8ff" d="M352.27,-264.98C385.83,-252.04 450.95,-222.4 487,-176 496.61,-163.63 501.41,-146.31 503.77,-133.38"/>
<polygon fill="#63b8ff" stroke="#63b8ff" points="507.25,-133.78 505.29,-123.37 500.33,-132.73 507.25,-133.78"/>
</a>
</g>
</g>
<!-- Node4 -->
<g id="Node000004" class="node">
<title>Node4</title>
<g id="a_Node000004"><a xlink:href="../../d8/d62/existence__set_8hpp.html" target="_top" xlink:title=" ">
<polygon fill="white" stroke="#666666" points="455.5,-176 308.5,-176 308.5,-159 455.5,-159 455.5,-176"/>
<text text-anchor="middle" x="382" y="-165.6" font-family="Helvetica,sans-Serif" font-size="8.00">../types/containers/existence_set.hpp</text>
</a>
</g>
</g>
<!-- Node1&#45;&gt;Node4 -->
<g id="edge3_Node000001_Node000004" class="edge">
<title>Node1&#45;&gt;Node4</title>
<g id="a_edge3_Node000001_Node000004"><a xlink:title=" ">
<path fill="none" stroke="#63b8ff" d="M334.83,-264.68C343.07,-247.89 362.61,-208.04 373.79,-185.25"/>
<polygon fill="#63b8ff" stroke="#63b8ff" points="377,-186.64 378.26,-176.12 370.72,-183.56 377,-186.64"/>
</a>
</g>
</g>
<!-- Node8 -->
<g id="Node000008" class="node">
<title>Node8</title>
<g id="a_Node000008"><a xlink:href="../../df/d93/utils_8hpp.html" target="_top" xlink:title=" ">
<polygon fill="white" stroke="#666666" points="337.5,-123 262.5,-123 262.5,-106 337.5,-106 337.5,-123"/>
<text text-anchor="middle" x="300" y="-112.6" font-family="Helvetica,sans-Serif" font-size="8.00">../../utils/utils.hpp</text>
</a>
</g>
</g>
<!-- Node1&#45;&gt;Node8 -->
<g id="edge23_Node000001_Node000008" class="edge">
<title>Node1&#45;&gt;Node8</title>
<g id="a_edge23_Node000001_Node000008"><a xlink:title=" ">
<path fill="none" stroke="#63b8ff" d="M327.46,-264.71C320.34,-248.58 304.51,-210.15 299,-176 297.8,-168.54 298.91,-166.56 299,-159 299.1,-150.58 299.3,-141.23 299.5,-133.38"/>
<polygon fill="#63b8ff" stroke="#63b8ff" points="303,-133.29 299.77,-123.2 296,-133.1 303,-133.29"/>
</a>
</g>
</g>
<!-- Node15 -->
<g id="Node000015" class="node">
<title>Node15</title>
<g id="a_Node000015"><a xlink:href="../../d7/ded/queue_8hpp.html" target="_top" xlink:title=" ">
<polygon fill="white" stroke="#666666" points="672,-176 550,-176 550,-159 672,-159 672,-176"/>
<text text-anchor="middle" x="611" y="-165.6" font-family="Helvetica,sans-Serif" font-size="8.00">../types/containers/queue.hpp</text>
</a>
</g>
</g>
<!-- Node1&#45;&gt;Node15 -->
<g id="edge18_Node000001_Node000015" class="edge">
<title>Node1&#45;&gt;Node15</title>
<g id="a_edge18_Node000001_Node000015"><a xlink:title=" ">
<path fill="none" stroke="#63b8ff" d="M356.18,-270.94C396.09,-267.65 475.55,-257.75 536,-229 559.74,-217.71 582.6,-197.48 596.71,-183.54"/>
<polygon fill="#63b8ff" stroke="#63b8ff" points="599.43,-185.76 603.95,-176.18 594.44,-180.86 599.43,-185.76"/>
</a>
</g>
</g>
<!-- Node17 -->
<g id="Node000017" class="node">
<title>Node17</title>
<g id="a_Node000017"><a xlink:href="../../d2/d1c/solver_8hpp.html" target="_top" xlink:title=" ">
<polygon fill="white" stroke="#666666" points="252,-229 180,-229 180,-212 252,-212 252,-229"/>
<text text-anchor="middle" x="216" y="-218.6" font-family="Helvetica,sans-Serif" font-size="8.00">base/solver.hpp</text>
</a>
</g>
</g>
<!-- Node1&#45;&gt;Node17 -->
<g id="edge24_Node000001_Node000017" class="edge">
<title>Node1&#45;&gt;Node17</title>
<g id="a_edge24_Node000001_Node000017"><a xlink:title=" ">
<path fill="none" stroke="#63b8ff" d="M314.03,-264.97C295.18,-256.61 264.49,-243 242.47,-233.24"/>
<polygon fill="#63b8ff" stroke="#63b8ff" points="243.6,-229.91 233.04,-229.06 240.76,-236.31 243.6,-229.91"/>
</a>
</g>
</g>
<!-- Node4&#45;&gt;Node2 -->
<g id="edge4_Node000004_Node000002" class="edge">
<title>Node4&#45;&gt;Node2</title>
<g id="a_edge4_Node000004_Node000002"><a xlink:title=" ">
<path fill="none" stroke="#63b8ff" d="M394.87,-158.9C424.6,-140.4 493.27,-91.71 463,-53 445.51,-30.62 364.89,-18.11 319.43,-12.73"/>
<polygon fill="#63b8ff" stroke="#63b8ff" points="319.55,-9.22 309.22,-11.57 318.76,-16.17 319.55,-9.22"/>
</a>
</g>
</g>
<!-- Node4&#45;&gt;Node3 -->
<g id="edge8_Node000004_Node000003" class="edge">
<title>Node4&#45;&gt;Node3</title>
<g id="a_edge8_Node000004_Node000003"><a xlink:title=" ">
<path fill="none" stroke="#63b8ff" d="M400.3,-158.97C420.81,-150.54 454.31,-136.76 478.1,-126.98"/>
<polygon fill="#63b8ff" stroke="#63b8ff" points="479.71,-130.1 487.63,-123.06 477.05,-123.62 479.71,-130.1"/>
</a>
</g>
</g>
<!-- Node5 -->
<g id="Node000005" class="node">
<title>Node5</title>
<g id="a_Node000005"><a xlink:title=" ">
<polygon fill="#e0e0e0" stroke="#999999" points="415,-123 355,-123 355,-106 415,-106 415,-123"/>
<text text-anchor="middle" x="385" y="-112.6" font-family="Helvetica,sans-Serif" font-size="8.00">initializer_list</text>
</a>
</g>
</g>
<!-- Node4&#45;&gt;Node5 -->
<g id="edge5_Node000004_Node000005" class="edge">
<title>Node4&#45;&gt;Node5</title>
<g id="a_edge5_Node000004_Node000005"><a xlink:title=" ">
<path fill="none" stroke="#63b8ff" d="M382.44,-158.97C382.84,-152.19 383.44,-141.97 383.96,-133.13"/>
<polygon fill="#63b8ff" stroke="#63b8ff" points="387.46,-133.24 384.56,-123.06 380.47,-132.83 387.46,-133.24"/>
</a>
</g>
</g>
<!-- Node6 -->
<g id="Node000006" class="node">
<title>Node6</title>
<g id="a_Node000006"><a xlink:title=" ">
<polygon fill="#e0e0e0" stroke="#999999" points="625,-123 543,-123 543,-106 625,-106 625,-123"/>
<text text-anchor="middle" x="584" y="-112.6" font-family="Helvetica,sans-Serif" font-size="8.00">memory_resource</text>
</a>
</g>
</g>
<!-- Node4&#45;&gt;Node6 -->
<g id="edge6_Node000004_Node000006" class="edge">
<title>Node4&#45;&gt;Node6</title>
<g id="a_edge6_Node000004_Node000006"><a xlink:title=" ">
<path fill="none" stroke="#63b8ff" d="M411.81,-158.97C446.86,-150.12 505.21,-135.39 544.13,-125.57"/>
<polygon fill="#63b8ff" stroke="#63b8ff" points="545.23,-128.9 554.07,-123.06 543.52,-122.11 545.23,-128.9"/>
</a>
</g>
</g>
<!-- Node7 -->
<g id="Node000007" class="node">
<title>Node7</title>
<g id="a_Node000007"><a xlink:title=" ">
<polygon fill="#e0e0e0" stroke="#999999" points="222.5,-70 169.5,-70 169.5,-53 222.5,-53 222.5,-70"/>
<text text-anchor="middle" x="196" y="-59.6" font-family="Helvetica,sans-Serif" font-size="8.00">type_traits</text>
</a>
</g>
</g>
<!-- Node4&#45;&gt;Node7 -->
<g id="edge7_Node000004_Node000007" class="edge">
<title>Node4&#45;&gt;Node7</title>
<g id="a_edge7_Node000004_Node000007"><a xlink:title=" ">
<path fill="none" stroke="#63b8ff" d="M344.28,-158.94C317.34,-152.36 281.05,-140.99 253,-123 234.64,-111.23 218.09,-92.27 207.62,-78.71"/>
<polygon fill="#63b8ff" stroke="#63b8ff" points="210.17,-76.28 201.39,-70.35 204.55,-80.46 210.17,-76.28"/>
</a>
</g>
</g>
<!-- Node4&#45;&gt;Node8 -->
<g id="edge9_Node000004_Node000008" class="edge">
<title>Node4&#45;&gt;Node8</title>
<g id="a_edge9_Node000004_Node000008"><a xlink:title=" ">
<path fill="none" stroke="#63b8ff" d="M369.9,-158.97C357.06,-150.99 336.53,-138.22 321.03,-128.58"/>
<polygon fill="#63b8ff" stroke="#63b8ff" points="322.49,-125.37 312.15,-123.06 318.79,-131.31 322.49,-125.37"/>
</a>
</g>
</g>
<!-- Node8&#45;&gt;Node2 -->
<g id="edge12_Node000008_Node000002" class="edge">
<title>Node8&#45;&gt;Node2</title>
<g id="a_edge12_Node000008_Node000002"><a xlink:title=" ">
<path fill="none" stroke="#63b8ff" d="M333.32,-105.92C374.78,-96.17 441,-79.35 448,-70 452.53,-63.95 452.59,-59 448,-53 432.45,-32.66 361.23,-19.58 319.23,-13.49"/>
<polygon fill="#63b8ff" stroke="#63b8ff" points="319.62,-10.01 309.24,-12.1 318.66,-16.95 319.62,-10.01"/>
</a>
</g>
</g>
<!-- Node8&#45;&gt;Node7 -->
<g id="edge15_Node000008_Node000007" class="edge">
<title>Node8&#45;&gt;Node7</title>
<g id="a_edge15_Node000008_Node000007"><a xlink:title=" ">
<path fill="none" stroke="#63b8ff" d="M284.65,-105.97C267.76,-97.69 240.35,-84.25 220.48,-74.5"/>
<polygon fill="#63b8ff" stroke="#63b8ff" points="221.93,-71.32 211.41,-70.06 218.85,-77.6 221.93,-71.32"/>
</a>
</g>
</g>
<!-- Node9 -->
<g id="Node000009" class="node">
<title>Node9</title>
<g id="a_Node000009"><a xlink:title=" ">
<polygon fill="#e0e0e0" stroke="#999999" points="330.5,-70 295.5,-70 295.5,-53 330.5,-53 330.5,-70"/>
<text text-anchor="middle" x="313" y="-59.6" font-family="Helvetica,sans-Serif" font-size="8.00">array</text>
</a>
</g>
</g>
<!-- Node8&#45;&gt;Node9 -->
<g id="edge10_Node000008_Node000009" class="edge">
<title>Node8&#45;&gt;Node9</title>
<g id="a_edge10_Node000008_Node000009"><a xlink:title=" ">
<path fill="none" stroke="#63b8ff" d="M301.92,-105.97C303.67,-99.12 306.31,-88.74 308.58,-79.84"/>
<polygon fill="#63b8ff" stroke="#63b8ff" points="312,-80.61 311.07,-70.06 305.21,-78.88 312,-80.61"/>
</a>
</g>
</g>
<!-- Node10 -->
<g id="Node000010" class="node">
<title>Node10</title>
<g id="a_Node000010"><a xlink:title=" ">
<polygon fill="#e0e0e0" stroke="#999999" points="387,-70 349,-70 349,-53 387,-53 387,-70"/>
<text text-anchor="middle" x="368" y="-59.6" font-family="Helvetica,sans-Serif" font-size="8.00">cmath</text>
</a>
</g>
</g>
<!-- Node8&#45;&gt;Node10 -->
<g id="edge11_Node000008_Node000010" class="edge">
<title>Node8&#45;&gt;Node10</title>
<g id="a_edge11_Node000008_Node000010"><a xlink:title=" ">
<path fill="none" stroke="#63b8ff" d="M310.03,-105.97C320.48,-98.14 337.07,-85.7 349.83,-76.13"/>
<polygon fill="#63b8ff" stroke="#63b8ff" points="352.03,-78.86 357.93,-70.06 347.83,-73.26 352.03,-78.86"/>
</a>
</g>
</g>
<!-- Node11 -->
<g id="Node000011" class="node">
<title>Node11</title>
<g id="a_Node000011"><a xlink:title=" ">
<polygon fill="#e0e0e0" stroke="#999999" points="439,-70 405,-70 405,-53 439,-53 439,-70"/>
<text text-anchor="middle" x="422" y="-59.6" font-family="Helvetica,sans-Serif" font-size="8.00">limits</text>
</a>
</g>
</g>
<!-- Node8&#45;&gt;Node11 -->
<g id="edge13_Node000008_Node000011" class="edge">
<title>Node8&#45;&gt;Node11</title>
<g id="a_edge13_Node000008_Node000011"><a xlink:title=" ">
<path fill="none" stroke="#63b8ff" d="M318,-105.97C338.42,-97.44 371.9,-83.44 395.35,-73.64"/>
<polygon fill="#63b8ff" stroke="#63b8ff" points="396.84,-76.81 404.71,-69.73 394.14,-70.35 396.84,-76.81"/>
</a>
</g>
</g>
<!-- Node12 -->
<g id="Node000012" class="node">
<title>Node12</title>
<g id="a_Node000012"><a xlink:title=" ">
<polygon fill="#e0e0e0" stroke="#999999" points="277,-70 241,-70 241,-53 277,-53 277,-70"/>
<text text-anchor="middle" x="259" y="-59.6" font-family="Helvetica,sans-Serif" font-size="8.00">string</text>
</a>
</g>
</g>
<!-- Node8&#45;&gt;Node12 -->
<g id="edge14_Node000008_Node000012" class="edge">
<title>Node8&#45;&gt;Node12</title>
<g id="a_edge14_Node000008_Node000012"><a xlink:title=" ">
<path fill="none" stroke="#63b8ff" d="M293.95,-105.97C288.08,-98.67 278.98,-87.35 271.54,-78.1"/>
<polygon fill="#63b8ff" stroke="#63b8ff" points="274.07,-75.66 265.07,-70.06 268.61,-80.04 274.07,-75.66"/>
</a>
</g>
</g>
<!-- Node13 -->
<g id="Node000013" class="node">
<title>Node13</title>
<g id="a_Node000013"><a xlink:href="../../d7/d65/intrinsics_8hpp.html" target="_top" xlink:title=" ">
<polygon fill="#fff0f0" stroke="red" points="151.5,-70 66.5,-70 66.5,-53 151.5,-53 151.5,-70"/>
<text text-anchor="middle" x="109" y="-59.6" font-family="Helvetica,sans-Serif" font-size="8.00">../utils/intrinsics.hpp</text>
</a>
</g>
</g>
<!-- Node8&#45;&gt;Node13 -->
<g id="edge16_Node000008_Node000013" class="edge">
<title>Node8&#45;&gt;Node13</title>
<g id="a_edge16_Node000008_Node000013"><a xlink:title=" ">
<path fill="none" stroke="#63b8ff" d="M271.82,-105.97C238.81,-97.16 183.97,-82.52 147.17,-72.69"/>
<polygon fill="#63b8ff" stroke="#63b8ff" points="147.86,-69.25 137.3,-70.06 146.06,-76.02 147.86,-69.25"/>
</a>
</g>
</g>
<!-- Node13&#45;&gt;Node2 -->
<g id="edge17_Node000013_Node000002" class="edge">
<title>Node13&#45;&gt;Node2</title>
<g id="a_edge17_Node000013_Node000002"><a xlink:title=" ">
<path fill="none" stroke="#63b8ff" d="M135.41,-52.97C167.76,-43.76 222.47,-28.17 256.84,-18.38"/>
<polygon fill="#63b8ff" stroke="#63b8ff" points="258.15,-21.65 266.8,-15.54 256.23,-14.91 258.15,-21.65"/>
</a>
</g>
</g>
<!-- Node15&#45;&gt;Node2 -->
<g id="edge19_Node000015_Node000002" class="edge">
<title>Node15&#45;&gt;Node2</title>
<g id="a_edge19_Node000015_Node000002"><a xlink:title=" ">
<path fill="none" stroke="#63b8ff" d="M618.28,-158.83C628.87,-146.72 646.01,-122.83 634,-106 596.9,-54 397.6,-23.43 319.46,-13.29"/>
<polygon fill="#63b8ff" stroke="#63b8ff" points="319.63,-9.78 309.27,-11.99 318.75,-16.73 319.63,-9.78"/>
</a>
</g>
</g>
<!-- Node15&#45;&gt;Node3 -->
<g id="edge21_Node000015_Node000003" class="edge">
<title>Node15&#45;&gt;Node3</title>
<g id="a_edge21_Node000015_Node000003"><a xlink:title=" ">
<path fill="none" stroke="#63b8ff" d="M595.51,-158.97C578.45,-150.69 550.78,-137.25 530.72,-127.5"/>
<polygon fill="#63b8ff" stroke="#63b8ff" points="532.08,-124.28 521.56,-123.06 529.02,-130.57 532.08,-124.28"/>
</a>
</g>
</g>
<!-- Node15&#45;&gt;Node6 -->
<g id="edge22_Node000015_Node000006" class="edge">
<title>Node15&#45;&gt;Node6</title>
<g id="a_edge22_Node000015_Node000006"><a xlink:title=" ">
<path fill="none" stroke="#63b8ff" d="M607.02,-158.97C603.27,-151.89 597.53,-141.05 592.72,-131.96"/>
<polygon fill="#63b8ff" stroke="#63b8ff" points="595.77,-130.26 588,-123.06 589.59,-133.53 595.77,-130.26"/>
</a>
</g>
</g>
<!-- Node16 -->
<g id="Node000016" class="node">
<title>Node16</title>
<g id="a_Node000016"><a xlink:title=" ">
<polygon fill="#e0e0e0" stroke="#999999" points="720.5,-123 681.5,-123 681.5,-106 720.5,-106 720.5,-123"/>
<text text-anchor="middle" x="701" y="-112.6" font-family="Helvetica,sans-Serif" font-size="8.00">queue</text>
</a>
</g>
</g>
<!-- Node15&#45;&gt;Node16 -->
<g id="edge20_Node000015_Node000016" class="edge">
<title>Node15&#45;&gt;Node16</title>
<g id="a_edge20_Node000015_Node000016"><a xlink:title=" ">
<path fill="none" stroke="#63b8ff" d="M624.28,-158.97C638.64,-150.84 661.76,-137.74 678.87,-128.04"/>
<polygon fill="#63b8ff" stroke="#63b8ff" points="680.69,-131.03 687.67,-123.06 677.24,-124.94 680.69,-131.03"/>
</a>
</g>
</g>
<!-- Node17&#45;&gt;Node2 -->
<g id="edge25_Node000017_Node000002" class="edge">
<title>Node17&#45;&gt;Node2</title>
<g id="a_edge25_Node000017_Node000002"><a xlink:title=" ">
<path fill="none" stroke="#63b8ff" d="M198,-211.89C146.09,-188.93 3.17,-117.92 57,-53 82.02,-22.82 199.59,-13.44 256.7,-10.64"/>
<polygon fill="#63b8ff" stroke="#63b8ff" points="257.12,-14.12 266.95,-10.17 256.8,-7.13 257.12,-14.12"/>
</a>
</g>
</g>
<!-- Node17&#45;&gt;Node3 -->
<g id="edge27_Node000017_Node000003" class="edge">
<title>Node17&#45;&gt;Node3</title>
<g id="a_edge27_Node000017_Node000003"><a xlink:title=" ">
<path fill="none" stroke="#63b8ff" d="M252.04,-216.66C312.31,-211.36 430.36,-198.4 465,-176 480.96,-165.68 492.28,-146.72 498.93,-132.76"/>
<polygon fill="#63b8ff" stroke="#63b8ff" points="502.27,-133.86 503.1,-123.3 495.86,-131.04 502.27,-133.86"/>
</a>
</g>
</g>
<!-- Node17&#45;&gt;Node4 -->
<g id="edge28_Node000017_Node000004" class="edge">
<title>Node17&#45;&gt;Node4</title>
<g id="a_edge28_Node000017_Node000004"><a xlink:title=" ">
<path fill="none" stroke="#63b8ff" d="M240.49,-211.97C268.81,-203.27 315.62,-188.89 347.59,-179.07"/>
<polygon fill="#63b8ff" stroke="#63b8ff" points="348.87,-182.34 357.41,-176.06 346.82,-175.65 348.87,-182.34"/>
</a>
</g>
</g>
<!-- Node17&#45;&gt;Node7 -->
<g id="edge26_Node000017_Node000007" class="edge">
<title>Node17&#45;&gt;Node7</title>
<g id="a_edge26_Node000017_Node000007"><a xlink:title=" ">
<path fill="none" stroke="#63b8ff" d="M215.04,-211.93C212.01,-188.15 202.63,-114.56 198.27,-80.33"/>
<polygon fill="#63b8ff" stroke="#63b8ff" points="201.74,-79.84 197,-70.37 194.79,-80.73 201.74,-79.84"/>
</a>
</g>
</g>
<!-- Node17&#45;&gt;Node8 -->
<g id="edge29_Node000017_Node000008" class="edge">
<title>Node17&#45;&gt;Node8</title>
<g id="a_edge29_Node000017_Node000008"><a xlink:title=" ">
<path fill="none" stroke="#63b8ff" d="M222.31,-211.68C236.12,-194.58 269.23,-153.59 287.45,-131.03"/>
<polygon fill="#63b8ff" stroke="#63b8ff" points="290.28,-133.1 293.84,-123.12 284.84,-128.71 290.28,-133.1"/>
</a>
</g>
</g>
<!-- Node17&#45;&gt;Node13 -->
<g id="edge30_Node000017_Node000013" class="edge">
<title>Node17&#45;&gt;Node13</title>
<g id="a_edge30_Node000017_Node000013"><a xlink:title=" ">
<path fill="none" stroke="#63b8ff" d="M210.84,-211.93C194.43,-187.84 143.16,-112.63 120.26,-79.01"/>
<polygon fill="#63b8ff" stroke="#63b8ff" points="122.89,-76.66 114.36,-70.37 117.1,-80.6 122.89,-76.66"/>
</a>
</g>
</g>
</g>
</svg>
