<?xml version="1.0" encoding="UTF-8" standalone="no"?>
<!DOCTYPE svg PUBLIC "-//W3C//DTD SVG 1.1//EN"
 "http://www.w3.org/Graphics/SVG/1.1/DTD/svg11.dtd">
<!-- Generated by graphviz version 2.43.0 (0)
 -->
<!-- Title: operator() Pages: 1 -->
<svg width="132pt" height="43pt"
 viewBox="0.00 0.00 132.00 43.00" xmlns="http://www.w3.org/2000/svg" xmlns:xlink="http://www.w3.org/1999/xlink">
<g id="graph0" class="graph" transform="scale(1 1) rotate(0) translate(4 39)">
<title>operator()</title>
<!-- Node1 -->
<g id="Node000001" class="node">
<title>Node1</title>
<g id="a_Node000001"><a xlink:title="Executes the solver with the provided parameters.">
<polygon fill="#999999" stroke="#666666" points="53,-17 0,-17 0,0 53,0 53,-17"/>
<text text-anchor="middle" x="26.5" y="-6.6" font-family="Helvetica,sans-Serif" font-size="8.00">operator()</text>
</a>
</g>
</g>
<!-- Node2 -->
<g id="Node000002" class="node">
<title>Node2</title>
<g id="a_Node000002"><a xlink:href="../../d3/df4/classchdr_1_1solvers_1_1solver_a096fe8cb528641fed6813df1f40bd347.html#a096fe8cb528641fed6813df1f40bd347" target="_top" xlink:title="Executes the solver with the provided parameters. Parameters are constructed using perfect forwarding...">
<polygon fill="white" stroke="#666666" points="124,-17 89,-17 89,0 124,0 124,-17"/>
<text text-anchor="middle" x="106.5" y="-6.6" font-family="Helvetica,sans-Serif" font-size="8.00">solve</text>
</a>
</g>
</g>
<!-- Node1&#45;&gt;Node2 -->
<g id="edge1_Node000001_Node000002" class="edge">
<title>Node1&#45;&gt;Node2</title>
<g id="a_edge1_Node000001_Node000002"><a xlink:title=" ">
<path fill="none" stroke="#63b8ff" d="M53.04,-8.5C61.2,-8.5 70.25,-8.5 78.5,-8.5"/>
<polygon fill="#63b8ff" stroke="#63b8ff" points="78.76,-12 88.76,-8.5 78.76,-5 78.76,-12"/>
</a>
</g>
</g>
<!-- Node2&#45;&gt;Node2 -->
<g id="edge2_Node000002_Node000002" class="edge">
<title>Node2&#45;&gt;Node2</title>
<g id="a_edge2_Node000002_Node000002"><a xlink:title=" ">
<path fill="none" stroke="#63b8ff" d="M94.58,-17.19C88,-25.67 91.97,-35 106.5,-35 115.35,-35 120.29,-31.54 121.3,-26.91"/>
<polygon fill="#63b8ff" stroke="#63b8ff" points="124.62,-25.78 118.42,-17.19 117.91,-27.77 124.62,-25.78"/>
</a>
</g>
</g>
</g>
</svg>
