<?xml version="1.0" encoding="UTF-8" standalone="no"?>
<!DOCTYPE svg PUBLIC "-//W3C//DTD SVG 1.1//EN"
 "http://www.w3.org/Graphics/SVG/1.1/DTD/svg11.dtd">
<!-- Generated by graphviz version 2.43.0 (0)
 -->
<!-- Title: operator() Pages: 1 -->
<svg width="132pt" height="60pt"
 viewBox="0.00 0.00 132.00 60.00" xmlns="http://www.w3.org/2000/svg" xmlns:xlink="http://www.w3.org/1999/xlink">
<g id="graph0" class="graph" transform="scale(1 1) rotate(0) translate(4 56)">
<title>operator()</title>
<!-- Node1 -->
<g id="Node000001" class="node">
<title>Node1</title>
<g id="a_Node000001"><a xlink:title="Executes the solver with the provided parameters. Parameters are constructed using perfect forwarding...">
<polygon fill="#999999" stroke="#666666" points="124,-34 71,-34 71,-17 124,-17 124,-34"/>
<text text-anchor="middle" x="97.5" y="-23.6" font-family="Helvetica,sans-Serif" font-size="8.00">operator()</text>
</a>
</g>
</g>
<!-- Node1&#45;&gt;Node1 -->
<g id="edge1_Node000001_Node000001" class="edge">
<title>Node1&#45;&gt;Node1</title>
<g id="a_edge1_Node000001_Node000001"><a xlink:title=" ">
<path fill="none" stroke="#63b8ff" d="M112.3,-43.91C111.29,-48.54 106.35,-52 97.5,-52 82.97,-52 79,-42.67 85.58,-34.19"/>
<polygon fill="#63b8ff" stroke="#63b8ff" points="115.62,-42.78 109.42,-34.19 108.91,-44.77 115.62,-42.78"/>
</a>
</g>
</g>
<!-- Node2 -->
<g id="Node000002" class="node">
<title>Node2</title>
<g id="a_Node000002"><a xlink:href="../../d3/df4/classchdr_1_1solvers_1_1solver_a096fe8cb528641fed6813df1f40bd347.html#a096fe8cb528641fed6813df1f40bd347" target="_top" xlink:title="Executes the solver with the provided parameters. Parameters are constructed using perfect forwarding...">
<polygon fill="white" stroke="#666666" points="35,-52 0,-52 0,-35 35,-35 35,-52"/>
<text text-anchor="middle" x="17.5" y="-41.6" font-family="Helvetica,sans-Serif" font-size="8.00">solve</text>
</a>
</g>
</g>
<!-- Node1&#45;&gt;Node2 -->
<g id="edge2_Node000001_Node000002" class="edge">
<title>Node1&#45;&gt;Node2</title>
<g id="a_edge2_Node000001_Node000002"><a xlink:title=" ">
<path fill="none" stroke="#63b8ff" d="M61.03,-33.69C52.04,-35.76 42.8,-37.89 35.24,-39.64"/>
<polygon fill="#63b8ff" stroke="#63b8ff" points="62,-37.05 70.96,-31.39 60.43,-30.23 62,-37.05"/>
</a>
</g>
</g>
<!-- Node3 -->
<g id="Node000003" class="node">
<title>Node3</title>
<g id="a_Node000003"><a xlink:href="../../d3/df4/classchdr_1_1solvers_1_1solver_aa62632bf43d0cf6db6a9f6de5e76b0ba.html#aa62632bf43d0cf6db6a9f6de5e76b0ba" target="_top" xlink:title="Executes the solver with the provided parameters.">
<polygon fill="white" stroke="#666666" points="35,-17 0,-17 0,0 35,0 35,-17"/>
<text text-anchor="middle" x="17.5" y="-6.6" font-family="Helvetica,sans-Serif" font-size="8.00">solve</text>
</a>
</g>
</g>
<!-- Node1&#45;&gt;Node3 -->
<g id="edge3_Node000001_Node000003" class="edge">
<title>Node1&#45;&gt;Node3</title>
<g id="a_edge3_Node000001_Node000003"><a xlink:title=" ">
<path fill="none" stroke="#63b8ff" d="M61.03,-17.77C52.04,-15.81 42.8,-13.8 35.24,-12.15"/>
<polygon fill="#63b8ff" stroke="#63b8ff" points="60.44,-21.22 70.96,-19.93 61.93,-14.38 60.44,-21.22"/>
</a>
</g>
</g>
</g>
</svg>
