<?xml version="1.0" encoding="UTF-8" standalone="no"?>
<!DOCTYPE svg PUBLIC "-//W3C//DTD SVG 1.1//EN"
 "http://www.w3.org/Graphics/SVG/1.1/DTD/svg11.dtd">
<!-- Generated by graphviz version 2.43.0 (0)
 -->
<!-- Title: solve Pages: 1 -->
<svg width="132pt" height="43pt"
 viewBox="0.00 0.00 132.00 43.00" xmlns="http://www.w3.org/2000/svg" xmlns:xlink="http://www.w3.org/1999/xlink">
<g id="graph0" class="graph" transform="scale(1 1) rotate(0) translate(4 39)">
<title>solve</title>
<!-- Node1 -->
<g id="Node000001" class="node">
<title>Node1</title>
<g id="a_Node000001"><a xlink:title="Executes the solver with the provided parameters. Parameters are constructed using perfect forwarding...">
<polygon fill="#999999" stroke="#666666" points="124,-17 89,-17 89,0 124,0 124,-17"/>
<text text-anchor="middle" x="106.5" y="-6.6" font-family="Helvetica,sans-Serif" font-size="8.00">solve</text>
</a>
</g>
</g>
<!-- Node1&#45;&gt;Node1 -->
<g id="edge2_Node000001_Node000001" class="edge">
<title>Node1&#45;&gt;Node1</title>
<g id="a_edge2_Node000001_Node000001"><a xlink:title=" ">
<path fill="none" stroke="#63b8ff" d="M121.3,-26.91C120.29,-31.54 115.35,-35 106.5,-35 91.97,-35 88,-25.67 94.58,-17.19"/>
<polygon fill="#63b8ff" stroke="#63b8ff" points="124.62,-25.78 118.42,-17.19 117.91,-27.77 124.62,-25.78"/>
</a>
</g>
</g>
<!-- Node2 -->
<g id="Node000002" class="node">
<title>Node2</title>
<g id="a_Node000002"><a xlink:href="../../d3/df4/classchdr_1_1solvers_1_1solver_ad64d7208d682691a4776aeabf905c8c9.html#ad64d7208d682691a4776aeabf905c8c9" target="_top" xlink:title="Executes the solver with the provided parameters.">
<polygon fill="white" stroke="#666666" points="53,-17 0,-17 0,0 53,0 53,-17"/>
<text text-anchor="middle" x="26.5" y="-6.6" font-family="Helvetica,sans-Serif" font-size="8.00">operator()</text>
</a>
</g>
</g>
<!-- Node1&#45;&gt;Node2 -->
<g id="edge1_Node000001_Node000002" class="edge">
<title>Node1&#45;&gt;Node2</title>
<g id="a_edge1_Node000001_Node000002"><a xlink:title=" ">
<path fill="none" stroke="#63b8ff" d="M78.72,-8.5C70.47,-8.5 61.41,-8.5 53.23,-8.5"/>
<polygon fill="#63b8ff" stroke="#63b8ff" points="78.96,-12 88.96,-8.5 78.96,-5 78.96,-12"/>
</a>
</g>
</g>
</g>
</svg>
