<?xml version="1.0" encoding="UTF-8" standalone="no"?>
<!DOCTYPE svg PUBLIC "-//W3C//DTD SVG 1.1//EN"
 "http://www.w3.org/Graphics/SVG/1.1/DTD/svg11.dtd">
<!-- Generated by graphviz version 2.43.0 (0)
 -->
<!-- Title: operator() Pages: 1 -->
<svg width="172pt" height="60pt"
 viewBox="0.00 0.00 172.00 60.00" xmlns="http://www.w3.org/2000/svg" xmlns:xlink="http://www.w3.org/1999/xlink">
<g id="graph0" class="graph" transform="scale(1 1) rotate(0) translate(4 56)">
<title>operator()</title>
<!-- Node1 -->
<g id="Node000001" class="node">
<title>Node1</title>
<g id="a_Node000001"><a xlink:title="Executes the solver with the provided parameters.">
<polygon fill="#999999" stroke="#666666" points="53,-34 0,-34 0,-17 53,-17 53,-34"/>
<text text-anchor="middle" x="26.5" y="-23.6" font-family="Helvetica,sans-Serif" font-size="8.00">operator()</text>
</a>
</g>
</g>
<!-- Node2 -->
<g id="Node000002" class="node">
<title>Node2</title>
<g id="a_Node000002"><a xlink:href="../../d3/df4/classchdr_1_1solvers_1_1solver_afd9ac73f57f4eae43f130211d9b95d86.html#afd9ac73f57f4eae43f130211d9b95d86" target="_top" xlink:title="Constructor for the solver class.">
<polygon fill="white" stroke="#666666" points="145.5,-52 107.5,-52 107.5,-35 145.5,-35 145.5,-52"/>
<text text-anchor="middle" x="126.5" y="-41.6" font-family="Helvetica,sans-Serif" font-size="8.00">solver</text>
</a>
</g>
</g>
<!-- Node1&#45;&gt;Node2 -->
<g id="edge1_Node000001_Node000002" class="edge">
<title>Node1&#45;&gt;Node2</title>
<g id="a_edge1_Node000001_Node000002"><a xlink:title=" ">
<path fill="none" stroke="#63b8ff" d="M53.25,-30.23C66.81,-32.72 83.45,-35.78 97.35,-38.33"/>
<polygon fill="#63b8ff" stroke="#63b8ff" points="96.88,-41.8 107.35,-40.17 98.14,-34.92 96.88,-41.8"/>
</a>
</g>
</g>
<!-- Node3 -->
<g id="Node000003" class="node">
<title>Node3</title>
<g id="a_Node000003"><a xlink:href="../../d2/dcb/structchdr_1_1utils_a5741e93a4c4f5630e7c86bda862cf611.html#a5741e93a4c4f5630e7c86bda862cf611" target="_top" xlink:title="Maps a multi&#45;dimensional index to a one&#45;dimensional array index.">
<polygon fill="white" stroke="#666666" points="164,-17 89,-17 89,0 164,0 164,-17"/>
<text text-anchor="middle" x="126.5" y="-6.6" font-family="Helvetica,sans-Serif" font-size="8.00">chdr::utils::to_1d</text>
</a>
</g>
</g>
<!-- Node1&#45;&gt;Node3 -->
<g id="edge2_Node000001_Node000003" class="edge">
<title>Node1&#45;&gt;Node3</title>
<g id="a_edge2_Node000001_Node000003"><a xlink:title=" ">
<path fill="none" stroke="#63b8ff" d="M53.25,-21.03C61.16,-19.66 70.12,-18.11 78.98,-16.57"/>
<polygon fill="#63b8ff" stroke="#63b8ff" points="79.61,-20.01 88.87,-14.85 78.42,-13.12 79.61,-20.01"/>
</a>
</g>
</g>
</g>
</svg>
