<?xml version="1.0" encoding="UTF-8" standalone="no"?>
<!DOCTYPE svg PUBLIC "-//W3C//DTD SVG 1.1//EN"
 "http://www.w3.org/Graphics/SVG/1.1/DTD/svg11.dtd">
<!-- Generated by graphviz version 2.43.0 (0)
 -->
<!-- Title: solve Pages: 1 -->
<svg width="132pt" height="43pt"
 viewBox="0.00 0.00 132.00 43.00" xmlns="http://www.w3.org/2000/svg" xmlns:xlink="http://www.w3.org/1999/xlink">
<g id="graph0" class="graph" transform="scale(1 1) rotate(0) translate(4 39)">
<title>solve</title>
<!-- Node1 -->
<g id="Node000001" class="node">
<title>Node1</title>
<g id="a_Node000001"><a xlink:title="Executes the solver with the provided parameters. Parameters are constructed using perfect forwarding...">
<polygon fill="#999999" stroke="#666666" points="35,-17 0,-17 0,0 35,0 35,-17"/>
<text text-anchor="middle" x="17.5" y="-6.6" font-family="Helvetica,sans-Serif" font-size="8.00">solve</text>
</a>
</g>
</g>
<!-- Node2 -->
<g id="Node000002" class="node">
<title>Node2</title>
<g id="a_Node000002"><a xlink:href="../../d3/df4/classchdr_1_1solvers_1_1solver_a27feec6a8bfa491b399c0cd7e158e5cd.html#a27feec6a8bfa491b399c0cd7e158e5cd" target="_top" xlink:title="Executes the solver with the provided parameters. Parameters are constructed using perfect forwarding...">
<polygon fill="white" stroke="#666666" points="124,-17 71,-17 71,0 124,0 124,-17"/>
<text text-anchor="middle" x="97.5" y="-6.6" font-family="Helvetica,sans-Serif" font-size="8.00">operator()</text>
</a>
</g>
</g>
<!-- Node1&#45;&gt;Node2 -->
<g id="edge1_Node000001_Node000002" class="edge">
<title>Node1&#45;&gt;Node2</title>
<g id="a_edge1_Node000001_Node000002"><a xlink:title=" ">
<path fill="none" stroke="#63b8ff" d="M35.04,-8.5C42.5,-8.5 51.62,-8.5 60.52,-8.5"/>
<polygon fill="#63b8ff" stroke="#63b8ff" points="60.77,-12 70.77,-8.5 60.77,-5 60.77,-12"/>
</a>
</g>
</g>
<!-- Node2&#45;&gt;Node2 -->
<g id="edge2_Node000002_Node000002" class="edge">
<title>Node2&#45;&gt;Node2</title>
<g id="a_edge2_Node000002_Node000002"><a xlink:title=" ">
<path fill="none" stroke="#63b8ff" d="M85.58,-17.19C79,-25.67 82.97,-35 97.5,-35 106.35,-35 111.29,-31.54 112.3,-26.91"/>
<polygon fill="#63b8ff" stroke="#63b8ff" points="115.62,-25.78 109.42,-17.19 108.91,-27.77 115.62,-25.78"/>
</a>
</g>
</g>
</g>
</svg>
