<?xml version="1.0" encoding="UTF-8" standalone="no"?>
<!DOCTYPE svg PUBLIC "-//W3C//DTD SVG 1.1//EN"
 "http://www.w3.org/Graphics/SVG/1.1/DTD/svg11.dtd">
<!-- Generated by graphviz version 2.43.0 (0)
 -->
<!-- Title: smastar.hpp Pages: 1 -->
<svg width="692pt" height="237pt"
 viewBox="0.00 0.00 691.95 237.00" xmlns="http://www.w3.org/2000/svg" xmlns:xlink="http://www.w3.org/1999/xlink">
<g id="graph0" class="graph" transform="scale(1 1) rotate(0) translate(4 233)">
<title>smastar.hpp</title>
<!-- Node1 -->
<g id="Node000001" class="node">
<title>Node1</title>
<g id="a_Node000001"><a xlink:title=" ">
<polygon fill="#999999" stroke="#666666" points="451.95,-229 384.95,-229 384.95,-212 451.95,-212 451.95,-229"/>
<text text-anchor="middle" x="418.45" y="-218.6" font-family="Helvetica,sans-Serif" font-size="8.00">smastar.hpp</text>
</a>
</g>
</g>
<!-- Node2 -->
<g id="Node000002" class="node">
<title>Node2</title>
<g id="a_Node000002"><a xlink:title=" ">
<polygon fill="#e0e0e0" stroke="#999999" points="237.95,-17 190.95,-17 190.95,0 237.95,0 237.95,-17"/>
<text text-anchor="middle" x="214.45" y="-6.6" font-family="Helvetica,sans-Serif" font-size="8.00">cstddef</text>
</a>
</g>
</g>
<!-- Node1&#45;&gt;Node2 -->
<g id="edge1_Node000001_Node000002" class="edge">
<title>Node1&#45;&gt;Node2</title>
<g id="a_edge1_Node000001_Node000002"><a xlink:title=" ">
<path fill="none" stroke="#63b8ff" d="M384.87,-219.51C302.56,-217.49 91.03,-199.37 3.45,-70 -0.79,-63.74 -1.33,-58.86 3.45,-53 25.43,-26.02 126.95,-15.28 180.75,-11.42"/>
<polygon fill="#63b8ff" stroke="#63b8ff" points="181.1,-14.91 190.84,-10.74 180.63,-7.92 181.1,-14.91"/>
</a>
</g>
</g>
<!-- Node3 -->
<g id="Node000003" class="node">
<title>Node3</title>
<g id="a_Node000003"><a xlink:title=" ">
<polygon fill="#e0e0e0" stroke="#999999" points="683.95,-176 654.95,-176 654.95,-159 683.95,-159 683.95,-176"/>
<text text-anchor="middle" x="669.45" y="-165.6" font-family="Helvetica,sans-Serif" font-size="8.00">set</text>
</a>
</g>
</g>
<!-- Node1&#45;&gt;Node3 -->
<g id="edge2_Node000001_Node000003" class="edge">
<title>Node1&#45;&gt;Node3</title>
<g id="a_edge2_Node000001_Node000003"><a xlink:title=" ">
<path fill="none" stroke="#63b8ff" d="M452.05,-213.56C495.65,-205.71 574,-191.09 640.45,-176 641.9,-175.67 643.4,-175.32 644.91,-174.95"/>
<polygon fill="#63b8ff" stroke="#63b8ff" points="645.89,-178.32 654.73,-172.49 644.18,-171.53 645.89,-178.32"/>
</a>
</g>
</g>
<!-- Node4 -->
<g id="Node000004" class="node">
<title>Node4</title>
<g id="a_Node000004"><a xlink:title=" ">
<polygon fill="#e0e0e0" stroke="#999999" points="333.95,-70 274.95,-70 274.95,-53 333.95,-53 333.95,-70"/>
<text text-anchor="middle" x="304.45" y="-59.6" font-family="Helvetica,sans-Serif" font-size="8.00">type_traits</text>
</a>
</g>
</g>
<!-- Node1&#45;&gt;Node4 -->
<g id="edge3_Node000001_Node000004" class="edge">
<title>Node1&#45;&gt;Node4</title>
<g id="a_edge3_Node000001_Node000004"><a xlink:title=" ">
<path fill="none" stroke="#63b8ff" d="M407.53,-211.76C396.7,-203.69 380.08,-190.27 368.45,-176 343.15,-144.99 322.25,-102.64 311.76,-79.43"/>
<polygon fill="#63b8ff" stroke="#63b8ff" points="314.93,-77.95 307.68,-70.22 308.53,-80.78 314.93,-77.95"/>
</a>
</g>
</g>
<!-- Node5 -->
<g id="Node000005" class="node">
<title>Node5</title>
<g id="a_Node000005"><a xlink:title=" ">
<polygon fill="#e0e0e0" stroke="#999999" points="598.45,-123 556.45,-123 556.45,-106 598.45,-106 598.45,-123"/>
<text text-anchor="middle" x="577.45" y="-112.6" font-family="Helvetica,sans-Serif" font-size="8.00">vector</text>
</a>
</g>
</g>
<!-- Node1&#45;&gt;Node5 -->
<g id="edge4_Node000001_Node000005" class="edge">
<title>Node1&#45;&gt;Node5</title>
<g id="a_edge4_Node000001_Node000005"><a xlink:title=" ">
<path fill="none" stroke="#63b8ff" d="M430.14,-211.85C457.01,-194.27 523.47,-150.81 557.16,-128.77"/>
<polygon fill="#63b8ff" stroke="#63b8ff" points="559.28,-131.56 565.74,-123.16 555.45,-125.7 559.28,-131.56"/>
</a>
</g>
</g>
<!-- Node6 -->
<g id="Node000006" class="node">
<title>Node6</title>
<g id="a_Node000006"><a xlink:href="../../df/d93/utils_8hpp.html" target="_top" xlink:title=" ">
<polygon fill="white" stroke="#666666" points="276.45,-123 196.45,-123 196.45,-106 276.45,-106 276.45,-123"/>
<text text-anchor="middle" x="236.45" y="-112.6" font-family="Helvetica,sans-Serif" font-size="8.00">../utils/utils.hpp</text>
</a>
</g>
</g>
<!-- Node1&#45;&gt;Node6 -->
<g id="edge5_Node000001_Node000006" class="edge">
<title>Node1&#45;&gt;Node6</title>
<g id="a_edge5_Node000001_Node000006"><a xlink:title=" ">
<path fill="none" stroke="#63b8ff" d="M384.79,-213.05C357.66,-206.72 319.41,-195.18 290.45,-176 272.71,-164.25 257.09,-145.29 247.28,-131.73"/>
<polygon fill="#63b8ff" stroke="#63b8ff" points="250.04,-129.57 241.45,-123.35 244.29,-133.56 250.04,-129.57"/>
</a>
</g>
</g>
<!-- Node12 -->
<g id="Node000012" class="node">
<title>Node12</title>
<g id="a_Node000012"><a xlink:href="../../d7/d65/intrinsics_8hpp.html" target="_top" xlink:title=" ">
<polygon fill="white" stroke="#666666" points="545.95,-70 446.95,-70 446.95,-53 545.95,-53 545.95,-70"/>
<text text-anchor="middle" x="496.45" y="-59.6" font-family="Helvetica,sans-Serif" font-size="8.00">../utils/intrinsics.hpp</text>
</a>
</g>
</g>
<!-- Node1&#45;&gt;Node12 -->
<g id="edge25_Node000001_Node000012" class="edge">
<title>Node1&#45;&gt;Node12</title>
<g id="a_edge25_Node000001_Node000012"><a xlink:title=" ">
<path fill="none" stroke="#63b8ff" d="M452.24,-213.56C497.08,-203.65 574.39,-179 607.45,-123 622.93,-96.77 588.99,-81.19 554.67,-72.44"/>
<polygon fill="#63b8ff" stroke="#63b8ff" points="555.08,-68.94 544.55,-70.04 553.47,-75.75 555.08,-68.94"/>
</a>
</g>
</g>
<!-- Node15 -->
<g id="Node000015" class="node">
<title>Node15</title>
<g id="a_Node000015"><a xlink:href="../../d2/d1c/solver_8hpp.html" target="_top" xlink:title=" ">
<polygon fill="white" stroke="#666666" points="459.45,-176 377.45,-176 377.45,-159 459.45,-159 459.45,-176"/>
<text text-anchor="middle" x="418.45" y="-165.6" font-family="Helvetica,sans-Serif" font-size="8.00">base/solver.hpp</text>
</a>
</g>
</g>
<!-- Node1&#45;&gt;Node15 -->
<g id="edge17_Node000001_Node000015" class="edge">
<title>Node1&#45;&gt;Node15</title>
<g id="a_edge17_Node000001_Node000015"><a xlink:title=" ">
<path fill="none" stroke="#63b8ff" d="M418.45,-211.97C418.45,-205.19 418.45,-194.97 418.45,-186.13"/>
<polygon fill="#63b8ff" stroke="#63b8ff" points="421.95,-186.06 418.45,-176.06 414.95,-186.06 421.95,-186.06"/>
</a>
</g>
</g>
<!-- Node6&#45;&gt;Node2 -->
<g id="edge8_Node000006_Node000002" class="edge">
<title>Node6&#45;&gt;Node2</title>
<g id="a_edge8_Node000006_Node000002"><a xlink:title=" ">
<path fill="none" stroke="#63b8ff" d="M196.44,-111.53C139.09,-107.76 37.92,-97.33 15.45,-70 -29.73,-15.07 112.41,-8.85 180.37,-8.9"/>
<polygon fill="#63b8ff" stroke="#63b8ff" points="180.58,-12.41 190.6,-8.96 180.62,-5.41 180.58,-12.41"/>
</a>
</g>
</g>
<!-- Node6&#45;&gt;Node4 -->
<g id="edge12_Node000006_Node000004" class="edge">
<title>Node6&#45;&gt;Node4</title>
<g id="a_edge12_Node000006_Node000004"><a xlink:title=" ">
<path fill="none" stroke="#63b8ff" d="M246.48,-105.97C256.92,-98.14 273.51,-85.7 286.27,-76.13"/>
<polygon fill="#63b8ff" stroke="#63b8ff" points="288.47,-78.86 294.37,-70.06 284.27,-73.26 288.47,-78.86"/>
</a>
</g>
</g>
<!-- Node7 -->
<g id="Node000007" class="node">
<title>Node7</title>
<g id="a_Node000007"><a xlink:title=" ">
<polygon fill="#e0e0e0" stroke="#999999" points="62.45,-70 24.45,-70 24.45,-53 62.45,-53 62.45,-70"/>
<text text-anchor="middle" x="43.45" y="-59.6" font-family="Helvetica,sans-Serif" font-size="8.00">array</text>
</a>
</g>
</g>
<!-- Node6&#45;&gt;Node7 -->
<g id="edge6_Node000006_Node000007" class="edge">
<title>Node6&#45;&gt;Node7</title>
<g id="a_edge6_Node000006_Node000007"><a xlink:title=" ">
<path fill="none" stroke="#63b8ff" d="M207.82,-105.99C176.84,-97.85 125.7,-84.4 72.65,-70.31"/>
<polygon fill="#63b8ff" stroke="#63b8ff" points="73.29,-66.86 62.72,-67.67 71.49,-73.62 73.29,-66.86"/>
</a>
</g>
</g>
<!-- Node8 -->
<g id="Node000008" class="node">
<title>Node8</title>
<g id="a_Node000008"><a xlink:title=" ">
<polygon fill="#e0e0e0" stroke="#999999" points="122.45,-70 80.45,-70 80.45,-53 122.45,-53 122.45,-70"/>
<text text-anchor="middle" x="101.45" y="-59.6" font-family="Helvetica,sans-Serif" font-size="8.00">cmath</text>
</a>
</g>
</g>
<!-- Node6&#45;&gt;Node8 -->
<g id="edge7_Node000006_Node000008" class="edge">
<title>Node6&#45;&gt;Node8</title>
<g id="a_edge7_Node000006_Node000008"><a xlink:title=" ">
<path fill="none" stroke="#63b8ff" d="M216.53,-105.97C193.99,-97.46 157.07,-83.51 131.13,-73.72"/>
<polygon fill="#63b8ff" stroke="#63b8ff" points="132.04,-70.32 121.45,-70.06 129.56,-76.86 132.04,-70.32"/>
</a>
</g>
</g>
<!-- Node9 -->
<g id="Node000009" class="node">
<title>Node9</title>
<g id="a_Node000009"><a xlink:title=" ">
<polygon fill="#e0e0e0" stroke="#999999" points="198.45,-70 140.45,-70 140.45,-53 198.45,-53 198.45,-70"/>
<text text-anchor="middle" x="169.45" y="-59.6" font-family="Helvetica,sans-Serif" font-size="8.00">functional</text>
</a>
</g>
</g>
<!-- Node6&#45;&gt;Node9 -->
<g id="edge9_Node000006_Node000009" class="edge">
<title>Node6&#45;&gt;Node9</title>
<g id="a_edge9_Node000006_Node000009"><a xlink:title=" ">
<path fill="none" stroke="#63b8ff" d="M226.56,-105.97C216.27,-98.14 199.92,-85.7 187.35,-76.13"/>
<polygon fill="#63b8ff" stroke="#63b8ff" points="189.45,-73.33 179.37,-70.06 185.21,-78.9 189.45,-73.33"/>
</a>
</g>
</g>
<!-- Node10 -->
<g id="Node000010" class="node">
<title>Node10</title>
<g id="a_Node000010"><a xlink:title=" ">
<polygon fill="#e0e0e0" stroke="#999999" points="390.45,-70 352.45,-70 352.45,-53 390.45,-53 390.45,-70"/>
<text text-anchor="middle" x="371.45" y="-59.6" font-family="Helvetica,sans-Serif" font-size="8.00">limits</text>
</a>
</g>
</g>
<!-- Node6&#45;&gt;Node10 -->
<g id="edge10_Node000006_Node000010" class="edge">
<title>Node6&#45;&gt;Node10</title>
<g id="a_edge10_Node000006_Node000010"><a xlink:title=" ">
<path fill="none" stroke="#63b8ff" d="M256.37,-105.97C279.16,-97.36 316.67,-83.19 342.65,-73.38"/>
<polygon fill="#63b8ff" stroke="#63b8ff" points="344.2,-76.53 352.32,-69.73 341.73,-69.99 344.2,-76.53"/>
</a>
</g>
</g>
<!-- Node11 -->
<g id="Node000011" class="node">
<title>Node11</title>
<g id="a_Node000011"><a xlink:title=" ">
<polygon fill="#e0e0e0" stroke="#999999" points="256.45,-70 216.45,-70 216.45,-53 256.45,-53 256.45,-70"/>
<text text-anchor="middle" x="236.45" y="-59.6" font-family="Helvetica,sans-Serif" font-size="8.00">string</text>
</a>
</g>
</g>
<!-- Node6&#45;&gt;Node11 -->
<g id="edge11_Node000006_Node000011" class="edge">
<title>Node6&#45;&gt;Node11</title>
<g id="a_edge11_Node000006_Node000011"><a xlink:title=" ">
<path fill="none" stroke="#63b8ff" d="M236.45,-105.97C236.45,-99.19 236.45,-88.97 236.45,-80.13"/>
<polygon fill="#63b8ff" stroke="#63b8ff" points="239.95,-80.06 236.45,-70.06 232.95,-80.06 239.95,-80.06"/>
</a>
</g>
</g>
<!-- Node6&#45;&gt;Node12 -->
<g id="edge13_Node000006_Node000012" class="edge">
<title>Node6&#45;&gt;Node12</title>
<g id="a_edge13_Node000006_Node000012"><a xlink:title=" ">
<path fill="none" stroke="#63b8ff" d="M274.81,-105.97C320.8,-96.95 397.92,-81.83 447.98,-72.01"/>
<polygon fill="#63b8ff" stroke="#63b8ff" points="448.78,-75.42 457.92,-70.06 447.44,-68.55 448.78,-75.42"/>
</a>
</g>
</g>
<!-- Node12&#45;&gt;Node2 -->
<g id="edge15_Node000012_Node000002" class="edge">
<title>Node12&#45;&gt;Node2</title>
<g id="a_edge15_Node000012_Node000002"><a xlink:title=" ">
<path fill="none" stroke="#63b8ff" d="M454.84,-52.97C398.65,-42.81 299.62,-24.9 247.95,-15.56"/>
<polygon fill="#63b8ff" stroke="#63b8ff" points="248.44,-12.09 237.97,-13.76 247.19,-18.98 248.44,-12.09"/>
</a>
</g>
</g>
<!-- Node13 -->
<g id="Node000013" class="node">
<title>Node13</title>
<g id="a_Node000013"><a xlink:title=" ">
<polygon fill="#e0e0e0" stroke="#999999" points="487.45,-17 443.45,-17 443.45,0 487.45,0 487.45,-17"/>
<text text-anchor="middle" x="465.45" y="-6.6" font-family="Helvetica,sans-Serif" font-size="8.00">atomic</text>
</a>
</g>
</g>
<!-- Node12&#45;&gt;Node13 -->
<g id="edge14_Node000012_Node000013" class="edge">
<title>Node12&#45;&gt;Node13</title>
<g id="a_edge14_Node000012_Node000013"><a xlink:title=" ">
<path fill="none" stroke="#63b8ff" d="M491.87,-52.97C487.52,-45.82 480.84,-34.82 475.28,-25.67"/>
<polygon fill="#63b8ff" stroke="#63b8ff" points="478.22,-23.78 470.04,-17.06 472.24,-27.42 478.22,-23.78"/>
</a>
</g>
</g>
<!-- Node14 -->
<g id="Node000014" class="node">
<title>Node14</title>
<g id="a_Node000014"><a xlink:title=" ">
<polygon fill="#e0e0e0" stroke="#999999" points="549.45,-17 505.45,-17 505.45,0 549.45,0 549.45,-17"/>
<text text-anchor="middle" x="527.45" y="-6.6" font-family="Helvetica,sans-Serif" font-size="8.00">cstdlib</text>
</a>
</g>
</g>
<!-- Node12&#45;&gt;Node14 -->
<g id="edge16_Node000012_Node000014" class="edge">
<title>Node12&#45;&gt;Node14</title>
<g id="a_edge16_Node000012_Node000014"><a xlink:title=" ">
<path fill="none" stroke="#63b8ff" d="M501.02,-52.97C505.37,-45.82 512.06,-34.82 517.61,-25.67"/>
<polygon fill="#63b8ff" stroke="#63b8ff" points="520.65,-27.42 522.85,-17.06 514.67,-23.78 520.65,-27.42"/>
</a>
</g>
</g>
<!-- Node15&#45;&gt;Node2 -->
<g id="edge18_Node000015_Node000002" class="edge">
<title>Node15&#45;&gt;Node2</title>
<g id="a_edge18_Node000015_Node000002"><a xlink:title=" ">
<path fill="none" stroke="#63b8ff" d="M419.73,-158.93C422.69,-138.76 427.72,-83.18 399.45,-53 379.15,-31.34 296.03,-18.64 248.39,-13.01"/>
<polygon fill="#63b8ff" stroke="#63b8ff" points="248.57,-9.5 238.24,-11.85 247.78,-16.46 248.57,-9.5"/>
</a>
</g>
</g>
<!-- Node15&#45;&gt;Node4 -->
<g id="edge20_Node000015_Node000004" class="edge">
<title>Node15&#45;&gt;Node4</title>
<g id="a_edge20_Node000015_Node000004"><a xlink:title=" ">
<path fill="none" stroke="#63b8ff" d="M409.88,-158.68C390.89,-141.36 345,-99.5 320.5,-77.15"/>
<polygon fill="#63b8ff" stroke="#63b8ff" points="322.55,-74.28 312.8,-70.12 317.83,-79.45 322.55,-74.28"/>
</a>
</g>
</g>
<!-- Node15&#45;&gt;Node5 -->
<g id="edge21_Node000015_Node000005" class="edge">
<title>Node15&#45;&gt;Node5</title>
<g id="a_edge21_Node000015_Node000005"><a xlink:title=" ">
<path fill="none" stroke="#63b8ff" d="M441.91,-158.97C469.69,-150.06 516.06,-135.19 546.69,-125.36"/>
<polygon fill="#63b8ff" stroke="#63b8ff" points="547.98,-128.63 556.43,-122.24 545.84,-121.96 547.98,-128.63"/>
</a>
</g>
</g>
<!-- Node15&#45;&gt;Node6 -->
<g id="edge22_Node000015_Node000006" class="edge">
<title>Node15&#45;&gt;Node6</title>
<g id="a_edge22_Node000015_Node000006"><a xlink:title=" ">
<path fill="none" stroke="#63b8ff" d="M391.59,-158.97C360.27,-150.2 308.33,-135.64 273.26,-125.82"/>
<polygon fill="#63b8ff" stroke="#63b8ff" points="273.98,-122.38 263.41,-123.06 272.09,-129.12 273.98,-122.38"/>
</a>
</g>
</g>
<!-- Node15&#45;&gt;Node10 -->
<g id="edge19_Node000015_Node000010" class="edge">
<title>Node15&#45;&gt;Node10</title>
<g id="a_edge19_Node000015_Node000010"><a xlink:title=" ">
<path fill="none" stroke="#63b8ff" d="M414.91,-158.68C407.32,-141.89 389.31,-102.04 379.01,-79.25"/>
<polygon fill="#63b8ff" stroke="#63b8ff" points="382.2,-77.8 374.89,-70.12 375.82,-80.68 382.2,-77.8"/>
</a>
</g>
</g>
<!-- Node15&#45;&gt;Node12 -->
<g id="edge24_Node000015_Node000012" class="edge">
<title>Node15&#45;&gt;Node12</title>
<g id="a_edge24_Node000015_Node000012"><a xlink:title=" ">
<path fill="none" stroke="#63b8ff" d="M424.31,-158.68C437.08,-141.66 467.6,-100.95 484.57,-78.34"/>
<polygon fill="#63b8ff" stroke="#63b8ff" points="487.53,-80.23 490.73,-70.12 481.93,-76.02 487.53,-80.23"/>
</a>
</g>
</g>
<!-- Node16 -->
<g id="Node000016" class="node">
<title>Node16</title>
<g id="a_Node000016"><a xlink:title=" ">
<polygon fill="#e0e0e0" stroke="#999999" points="537.95,-123 484.95,-123 484.95,-106 537.95,-106 537.95,-123"/>
<text text-anchor="middle" x="511.45" y="-112.6" font-family="Helvetica,sans-Serif" font-size="8.00">iostream</text>
</a>
</g>
</g>
<!-- Node15&#45;&gt;Node16 -->
<g id="edge23_Node000015_Node000016" class="edge">
<title>Node15&#45;&gt;Node16</title>
<g id="a_edge23_Node000015_Node000016"><a xlink:title=" ">
<path fill="none" stroke="#63b8ff" d="M432.17,-158.97C447,-150.84 470.9,-137.74 488.58,-128.04"/>
<polygon fill="#63b8ff" stroke="#63b8ff" points="490.58,-130.93 497.67,-123.06 487.22,-124.8 490.58,-130.93"/>
</a>
</g>
</g>
</g>
</svg>
