<?xml version="1.0" encoding="UTF-8" standalone="no"?>
<!DOCTYPE svg PUBLIC "-//W3C//DTD SVG 1.1//EN"
 "http://www.w3.org/Graphics/SVG/1.1/DTD/svg11.dtd">
<!-- Generated by graphviz version 2.43.0 (0)
 -->
<!-- Title: smastar.hpp Pages: 1 -->
<svg width="686pt" height="237pt"
 viewBox="0.00 0.00 685.53 237.00" xmlns="http://www.w3.org/2000/svg" xmlns:xlink="http://www.w3.org/1999/xlink">
<g id="graph0" class="graph" transform="scale(1 1) rotate(0) translate(4 233)">
<title>smastar.hpp</title>
<!-- Node1 -->
<g id="Node000001" class="node">
<title>Node1</title>
<g id="a_Node000001"><a xlink:title=" ">
<polygon fill="#999999" stroke="#666666" points="290.03,-229 223.03,-229 223.03,-212 290.03,-212 290.03,-229"/>
<text text-anchor="middle" x="256.53" y="-218.6" font-family="Helvetica,sans-Serif" font-size="8.00">smastar.hpp</text>
</a>
</g>
</g>
<!-- Node2 -->
<g id="Node000002" class="node">
<title>Node2</title>
<g id="a_Node000002"><a xlink:title=" ">
<polygon fill="#e0e0e0" stroke="#999999" points="343.03,-17 296.03,-17 296.03,0 343.03,0 343.03,-17"/>
<text text-anchor="middle" x="319.53" y="-6.6" font-family="Helvetica,sans-Serif" font-size="8.00">cstddef</text>
</a>
</g>
</g>
<!-- Node1&#45;&gt;Node2 -->
<g id="edge1_Node000001_Node000002" class="edge">
<title>Node1&#45;&gt;Node2</title>
<g id="a_edge1_Node000001_Node000002"><a xlink:title=" ">
<path fill="none" stroke="#63b8ff" d="M224.27,-211.93C143.86,-191.67 -54.23,-132.26 14.53,-53 49.29,-12.94 213.23,-8.84 285.35,-9.03"/>
<polygon fill="#63b8ff" stroke="#63b8ff" points="285.68,-12.53 295.7,-9.09 285.72,-5.53 285.68,-12.53"/>
</a>
</g>
</g>
<!-- Node3 -->
<g id="Node000003" class="node">
<title>Node3</title>
<g id="a_Node000003"><a xlink:title=" ">
<polygon fill="#e0e0e0" stroke="#999999" points="83.03,-70 24.03,-70 24.03,-53 83.03,-53 83.03,-70"/>
<text text-anchor="middle" x="53.53" y="-59.6" font-family="Helvetica,sans-Serif" font-size="8.00">type_traits</text>
</a>
</g>
</g>
<!-- Node1&#45;&gt;Node3 -->
<g id="edge2_Node000001_Node000003" class="edge">
<title>Node1&#45;&gt;Node3</title>
<g id="a_edge2_Node000001_Node000003"><a xlink:title=" ">
<path fill="none" stroke="#63b8ff" d="M244.73,-211.75C231.93,-203.24 210.98,-189.07 193.53,-176 147.85,-141.79 96.2,-98.72 70.27,-76.77"/>
<polygon fill="#63b8ff" stroke="#63b8ff" points="72.4,-73.99 62.51,-70.18 67.87,-79.32 72.4,-73.99"/>
</a>
</g>
</g>
<!-- Node4 -->
<g id="Node000004" class="node">
<title>Node4</title>
<g id="a_Node000004"><a xlink:title=" ">
<polygon fill="#e0e0e0" stroke="#999999" points="182.53,-123 140.53,-123 140.53,-106 182.53,-106 182.53,-123"/>
<text text-anchor="middle" x="161.53" y="-112.6" font-family="Helvetica,sans-Serif" font-size="8.00">vector</text>
</a>
</g>
</g>
<!-- Node1&#45;&gt;Node4 -->
<g id="edge3_Node000001_Node000004" class="edge">
<title>Node1&#45;&gt;Node4</title>
<g id="a_edge3_Node000001_Node000004"><a xlink:title=" ">
<path fill="none" stroke="#63b8ff" d="M247.96,-211.75C238.7,-203.25 223.63,-189.08 211.53,-176 197.98,-161.35 183.57,-143.66 173.72,-131.21"/>
<polygon fill="#63b8ff" stroke="#63b8ff" points="176.35,-128.89 167.43,-123.18 170.84,-133.21 176.35,-128.89"/>
</a>
</g>
</g>
<!-- Node5 -->
<g id="Node000005" class="node">
<title>Node5</title>
<g id="a_Node000005"><a xlink:title=" ">
<polygon fill="#e0e0e0" stroke="#999999" points="250.03,-176 221.03,-176 221.03,-159 250.03,-159 250.03,-176"/>
<text text-anchor="middle" x="235.53" y="-165.6" font-family="Helvetica,sans-Serif" font-size="8.00">set</text>
</a>
</g>
</g>
<!-- Node1&#45;&gt;Node5 -->
<g id="edge4_Node000001_Node000005" class="edge">
<title>Node1&#45;&gt;Node5</title>
<g id="a_edge4_Node000001_Node000005"><a xlink:title=" ">
<path fill="none" stroke="#63b8ff" d="M253.43,-211.97C250.58,-205.04 246.24,-194.51 242.55,-185.55"/>
<polygon fill="#63b8ff" stroke="#63b8ff" points="245.69,-183.97 238.64,-176.06 239.21,-186.64 245.69,-183.97"/>
</a>
</g>
</g>
<!-- Node6 -->
<g id="Node000006" class="node">
<title>Node6</title>
<g id="a_Node000006"><a xlink:href="../../df/d93/utils_8hpp.html" target="_top" xlink:title=" ">
<polygon fill="white" stroke="#666666" points="318.53,-123 238.53,-123 238.53,-106 318.53,-106 318.53,-123"/>
<text text-anchor="middle" x="278.53" y="-112.6" font-family="Helvetica,sans-Serif" font-size="8.00">../utils/utils.hpp</text>
</a>
</g>
</g>
<!-- Node1&#45;&gt;Node6 -->
<g id="edge5_Node000001_Node000006" class="edge">
<title>Node1&#45;&gt;Node6</title>
<g id="a_edge5_Node000001_Node000006"><a xlink:title=" ">
<path fill="none" stroke="#63b8ff" d="M258.18,-211.68C261.69,-195.11 269.94,-156.11 274.79,-133.18"/>
<polygon fill="#63b8ff" stroke="#63b8ff" points="278.27,-133.63 276.92,-123.12 271.42,-132.18 278.27,-133.63"/>
</a>
</g>
</g>
<!-- Node12 -->
<g id="Node000012" class="node">
<title>Node12</title>
<g id="a_Node000012"><a xlink:href="../../d7/d65/intrinsics_8hpp.html" target="_top" xlink:title=" ">
<polygon fill="white" stroke="#666666" points="583.03,-70 484.03,-70 484.03,-53 583.03,-53 583.03,-70"/>
<text text-anchor="middle" x="533.53" y="-59.6" font-family="Helvetica,sans-Serif" font-size="8.00">../utils/intrinsics.hpp</text>
</a>
</g>
</g>
<!-- Node1&#45;&gt;Node12 -->
<g id="edge28_Node000001_Node000012" class="edge">
<title>Node1&#45;&gt;Node12</title>
<g id="a_edge28_Node000001_Node000012"><a xlink:title=" ">
<path fill="none" stroke="#63b8ff" d="M290.4,-216.61C345.51,-210.04 454.36,-189.01 513.53,-123 524.15,-111.15 529.15,-93.51 531.49,-80.33"/>
<polygon fill="#63b8ff" stroke="#63b8ff" points="535,-80.55 532.94,-70.16 528.07,-79.57 535,-80.55"/>
</a>
</g>
</g>
<!-- Node15 -->
<g id="Node000015" class="node">
<title>Node15</title>
<g id="a_Node000015"><a xlink:href="../../d2/d1c/solver_8hpp.html" target="_top" xlink:title=" ">
<polygon fill="white" stroke="#666666" points="388.53,-176 306.53,-176 306.53,-159 388.53,-159 388.53,-176"/>
<text text-anchor="middle" x="347.53" y="-165.6" font-family="Helvetica,sans-Serif" font-size="8.00">base/solver.hpp</text>
</a>
</g>
</g>
<!-- Node1&#45;&gt;Node15 -->
<g id="edge17_Node000001_Node000015" class="edge">
<title>Node1&#45;&gt;Node15</title>
<g id="a_edge17_Node000001_Node000015"><a xlink:title=" ">
<path fill="none" stroke="#63b8ff" d="M269.96,-211.97C284.47,-203.84 307.85,-190.74 325.16,-181.04"/>
<polygon fill="#63b8ff" stroke="#63b8ff" points="327.04,-184 334.05,-176.06 323.61,-177.89 327.04,-184"/>
</a>
</g>
</g>
<!-- Node17 -->
<g id="Node000017" class="node">
<title>Node17</title>
<g id="a_Node000017"><a xlink:href="../../d5/d14/mutable__node_8hpp.html" target="_top" xlink:title=" ">
<polygon fill="white" stroke="#666666" points="677.53,-176 561.53,-176 561.53,-159 677.53,-159 677.53,-176"/>
<text text-anchor="middle" x="619.53" y="-165.6" font-family="Helvetica,sans-Serif" font-size="8.00">base/mutable_node.hpp</text>
</a>
</g>
</g>
<!-- Node1&#45;&gt;Node17 -->
<g id="edge25_Node000001_Node000017" class="edge">
<title>Node1&#45;&gt;Node17</title>
<g id="a_edge25_Node000001_Node000017"><a xlink:title=" ">
<path fill="none" stroke="#63b8ff" d="M290.35,-214.75C350.83,-206.25 478.37,-188.33 555.73,-177.46"/>
<polygon fill="#63b8ff" stroke="#63b8ff" points="556.43,-180.9 565.84,-176.04 555.45,-173.97 556.43,-180.9"/>
</a>
</g>
</g>
<!-- Node6&#45;&gt;Node2 -->
<g id="edge8_Node000006_Node000002" class="edge">
<title>Node6&#45;&gt;Node2</title>
<g id="a_edge8_Node000006_Node000002"><a xlink:title=" ">
<path fill="none" stroke="#63b8ff" d="M247.08,-105.98C214.3,-96.58 170.08,-78.57 188.53,-53 210.48,-22.58 254.57,-13.1 285.52,-10.32"/>
<polygon fill="#63b8ff" stroke="#63b8ff" points="286.13,-13.79 295.86,-9.6 285.64,-6.8 286.13,-13.79"/>
</a>
</g>
</g>
<!-- Node6&#45;&gt;Node3 -->
<g id="edge12_Node000006_Node000003" class="edge">
<title>Node6&#45;&gt;Node3</title>
<g id="a_edge12_Node000006_Node000003"><a xlink:title=" ">
<path fill="none" stroke="#63b8ff" d="M245.33,-105.97C204.82,-96.79 136.38,-81.28 93.15,-71.48"/>
<polygon fill="#63b8ff" stroke="#63b8ff" points="93.8,-68.04 83.27,-69.24 92.25,-74.87 93.8,-68.04"/>
</a>
</g>
</g>
<!-- Node7 -->
<g id="Node000007" class="node">
<title>Node7</title>
<g id="a_Node000007"><a xlink:title=" ">
<polygon fill="#e0e0e0" stroke="#999999" points="235.53,-70 197.53,-70 197.53,-53 235.53,-53 235.53,-70"/>
<text text-anchor="middle" x="216.53" y="-59.6" font-family="Helvetica,sans-Serif" font-size="8.00">array</text>
</a>
</g>
</g>
<!-- Node6&#45;&gt;Node7 -->
<g id="edge6_Node000006_Node000007" class="edge">
<title>Node6&#45;&gt;Node7</title>
<g id="a_edge6_Node000006_Node000007"><a xlink:title=" ">
<path fill="none" stroke="#63b8ff" d="M269.38,-105.97C260.04,-98.29 245.31,-86.18 233.78,-76.69"/>
<polygon fill="#63b8ff" stroke="#63b8ff" points="235.66,-73.71 225.72,-70.06 231.22,-79.11 235.66,-73.71"/>
</a>
</g>
</g>
<!-- Node8 -->
<g id="Node000008" class="node">
<title>Node8</title>
<g id="a_Node000008"><a xlink:title=" ">
<polygon fill="#e0e0e0" stroke="#999999" points="295.53,-70 253.53,-70 253.53,-53 295.53,-53 295.53,-70"/>
<text text-anchor="middle" x="274.53" y="-59.6" font-family="Helvetica,sans-Serif" font-size="8.00">cmath</text>
</a>
</g>
</g>
<!-- Node6&#45;&gt;Node8 -->
<g id="edge7_Node000006_Node000008" class="edge">
<title>Node6&#45;&gt;Node8</title>
<g id="a_edge7_Node000006_Node000008"><a xlink:title=" ">
<path fill="none" stroke="#63b8ff" d="M277.94,-105.97C277.41,-99.19 276.61,-88.97 275.91,-80.13"/>
<polygon fill="#63b8ff" stroke="#63b8ff" points="279.39,-79.75 275.12,-70.06 272.42,-80.3 279.39,-79.75"/>
</a>
</g>
</g>
<!-- Node9 -->
<g id="Node000009" class="node">
<title>Node9</title>
<g id="a_Node000009"><a xlink:title=" ">
<polygon fill="#e0e0e0" stroke="#999999" points="371.53,-70 313.53,-70 313.53,-53 371.53,-53 371.53,-70"/>
<text text-anchor="middle" x="342.53" y="-59.6" font-family="Helvetica,sans-Serif" font-size="8.00">functional</text>
</a>
</g>
</g>
<!-- Node6&#45;&gt;Node9 -->
<g id="edge9_Node000006_Node000009" class="edge">
<title>Node6&#45;&gt;Node9</title>
<g id="a_edge9_Node000006_Node000009"><a xlink:title=" ">
<path fill="none" stroke="#63b8ff" d="M287.97,-105.97C297.71,-98.22 313.12,-85.94 325.08,-76.41"/>
<polygon fill="#63b8ff" stroke="#63b8ff" points="327.41,-79.03 333.05,-70.06 323.05,-73.55 327.41,-79.03"/>
</a>
</g>
</g>
<!-- Node10 -->
<g id="Node000010" class="node">
<title>Node10</title>
<g id="a_Node000010"><a xlink:title=" ">
<polygon fill="#e0e0e0" stroke="#999999" points="427.53,-70 389.53,-70 389.53,-53 427.53,-53 427.53,-70"/>
<text text-anchor="middle" x="408.53" y="-59.6" font-family="Helvetica,sans-Serif" font-size="8.00">limits</text>
</a>
</g>
</g>
<!-- Node6&#45;&gt;Node10 -->
<g id="edge10_Node000006_Node000010" class="edge">
<title>Node6&#45;&gt;Node10</title>
<g id="a_edge10_Node000006_Node000010"><a xlink:title=" ">
<path fill="none" stroke="#63b8ff" d="M297.71,-105.97C319.41,-97.46 354.97,-83.51 379.94,-73.72"/>
<polygon fill="#63b8ff" stroke="#63b8ff" points="381.24,-76.97 389.27,-70.06 378.68,-70.45 381.24,-76.97"/>
</a>
</g>
</g>
<!-- Node11 -->
<g id="Node000011" class="node">
<title>Node11</title>
<g id="a_Node000011"><a xlink:title=" ">
<polygon fill="#e0e0e0" stroke="#999999" points="141.53,-70 101.53,-70 101.53,-53 141.53,-53 141.53,-70"/>
<text text-anchor="middle" x="121.53" y="-59.6" font-family="Helvetica,sans-Serif" font-size="8.00">string</text>
</a>
</g>
</g>
<!-- Node6&#45;&gt;Node11 -->
<g id="edge11_Node000006_Node000011" class="edge">
<title>Node6&#45;&gt;Node11</title>
<g id="a_edge11_Node000006_Node000011"><a xlink:title=" ">
<path fill="none" stroke="#63b8ff" d="M255.36,-105.97C227.78,-97.01 181.64,-82.02 151.39,-72.2"/>
<polygon fill="#63b8ff" stroke="#63b8ff" points="152.39,-68.84 141.79,-69.08 150.22,-75.5 152.39,-68.84"/>
</a>
</g>
</g>
<!-- Node6&#45;&gt;Node12 -->
<g id="edge13_Node000006_Node000012" class="edge">
<title>Node6&#45;&gt;Node12</title>
<g id="a_edge13_Node000006_Node000012"><a xlink:title=" ">
<path fill="none" stroke="#63b8ff" d="M316.16,-105.97C361.17,-96.97 436.58,-81.89 485.69,-72.07"/>
<polygon fill="#63b8ff" stroke="#63b8ff" points="486.63,-75.45 495.75,-70.06 485.26,-68.59 486.63,-75.45"/>
</a>
</g>
</g>
<!-- Node12&#45;&gt;Node2 -->
<g id="edge15_Node000012_Node000002" class="edge">
<title>Node12&#45;&gt;Node2</title>
<g id="a_edge15_Node000012_Node000002"><a xlink:title=" ">
<path fill="none" stroke="#63b8ff" d="M501.95,-52.97C462.08,-43.47 393.78,-27.2 353.02,-17.48"/>
<polygon fill="#63b8ff" stroke="#63b8ff" points="353.83,-14.08 343.29,-15.16 352.2,-20.88 353.83,-14.08"/>
</a>
</g>
</g>
<!-- Node13 -->
<g id="Node000013" class="node">
<title>Node13</title>
<g id="a_Node000013"><a xlink:title=" ">
<polygon fill="#e0e0e0" stroke="#999999" points="586.53,-17 542.53,-17 542.53,0 586.53,0 586.53,-17"/>
<text text-anchor="middle" x="564.53" y="-6.6" font-family="Helvetica,sans-Serif" font-size="8.00">atomic</text>
</a>
</g>
</g>
<!-- Node12&#45;&gt;Node13 -->
<g id="edge14_Node000012_Node000013" class="edge">
<title>Node12&#45;&gt;Node13</title>
<g id="a_edge14_Node000012_Node000013"><a xlink:title=" ">
<path fill="none" stroke="#63b8ff" d="M538.1,-52.97C542.45,-45.82 549.14,-34.82 554.7,-25.67"/>
<polygon fill="#63b8ff" stroke="#63b8ff" points="557.73,-27.42 559.94,-17.06 551.75,-23.78 557.73,-27.42"/>
</a>
</g>
</g>
<!-- Node14 -->
<g id="Node000014" class="node">
<title>Node14</title>
<g id="a_Node000014"><a xlink:title=" ">
<polygon fill="#e0e0e0" stroke="#999999" points="524.53,-17 480.53,-17 480.53,0 524.53,0 524.53,-17"/>
<text text-anchor="middle" x="502.53" y="-6.6" font-family="Helvetica,sans-Serif" font-size="8.00">cstdlib</text>
</a>
</g>
</g>
<!-- Node12&#45;&gt;Node14 -->
<g id="edge16_Node000012_Node000014" class="edge">
<title>Node12&#45;&gt;Node14</title>
<g id="a_edge16_Node000012_Node000014"><a xlink:title=" ">
<path fill="none" stroke="#63b8ff" d="M528.96,-52.97C524.61,-45.82 517.92,-34.82 512.36,-25.67"/>
<polygon fill="#63b8ff" stroke="#63b8ff" points="515.31,-23.78 507.12,-17.06 509.33,-27.42 515.31,-23.78"/>
</a>
</g>
</g>
<!-- Node15&#45;&gt;Node2 -->
<g id="edge18_Node000015_Node000002" class="edge">
<title>Node15&#45;&gt;Node2</title>
<g id="a_edge18_Node000015_Node000002"><a xlink:title=" ">
<path fill="none" stroke="#63b8ff" d="M356.01,-158.85C376.58,-140.07 428.07,-91.65 436.53,-70 439.28,-62.96 440.84,-59.2 436.53,-53 417.89,-26.18 380.63,-15.86 353.15,-11.91"/>
<polygon fill="#63b8ff" stroke="#63b8ff" points="353.5,-8.43 343.15,-10.69 352.65,-15.38 353.5,-8.43"/>
</a>
</g>
</g>
<!-- Node15&#45;&gt;Node3 -->
<g id="edge20_Node000015_Node000003" class="edge">
<title>Node15&#45;&gt;Node3</title>
<g id="a_edge20_Node000015_Node000003"><a xlink:title=" ">
<path fill="none" stroke="#63b8ff" d="M325.61,-158.92C301.79,-150.56 262.69,-136.51 229.53,-123 212.4,-116.02 208.83,-112.57 191.53,-106 157.75,-93.17 118.37,-81.02 90.34,-72.85"/>
<polygon fill="#63b8ff" stroke="#63b8ff" points="91.14,-69.43 80.56,-70.02 89.19,-76.16 91.14,-69.43"/>
</a>
</g>
</g>
<!-- Node15&#45;&gt;Node4 -->
<g id="edge21_Node000015_Node000004" class="edge">
<title>Node15&#45;&gt;Node4</title>
<g id="a_edge21_Node000015_Node000004"><a xlink:title=" ">
<path fill="none" stroke="#63b8ff" d="M320.09,-158.97C286.06,-149.64 228.2,-133.78 192.58,-124.01"/>
<polygon fill="#63b8ff" stroke="#63b8ff" points="193.29,-120.58 182.73,-121.31 191.44,-127.33 193.29,-120.58"/>
</a>
</g>
</g>
<!-- Node15&#45;&gt;Node6 -->
<g id="edge22_Node000015_Node000006" class="edge">
<title>Node15&#45;&gt;Node6</title>
<g id="a_edge22_Node000015_Node000006"><a xlink:title=" ">
<path fill="none" stroke="#63b8ff" d="M337.35,-158.97C326.75,-151.14 309.92,-138.7 296.97,-129.13"/>
<polygon fill="#63b8ff" stroke="#63b8ff" points="298.88,-126.19 288.75,-123.06 294.71,-131.81 298.88,-126.19"/>
</a>
</g>
</g>
<!-- Node15&#45;&gt;Node10 -->
<g id="edge19_Node000015_Node000010" class="edge">
<title>Node15&#45;&gt;Node10</title>
<g id="a_edge19_Node000015_Node000010"><a xlink:title=" ">
<path fill="none" stroke="#63b8ff" d="M349.73,-158.68C353.27,-146.77 360.93,-123.63 371.53,-106 377.67,-95.78 386.21,-85.57 393.53,-77.61"/>
<polygon fill="#63b8ff" stroke="#63b8ff" points="396.21,-79.87 400.58,-70.22 391.14,-75.04 396.21,-79.87"/>
</a>
</g>
</g>
<!-- Node15&#45;&gt;Node12 -->
<g id="edge24_Node000015_Node000012" class="edge">
<title>Node15&#45;&gt;Node12</title>
<g id="a_edge24_Node000015_Node000012"><a xlink:title=" ">
<path fill="none" stroke="#63b8ff" d="M358.38,-158.98C375.76,-147.07 411.07,-123.45 442.53,-106 463.69,-94.26 488.51,-82.52 506.89,-74.2"/>
<polygon fill="#63b8ff" stroke="#63b8ff" points="508.42,-77.35 516.11,-70.07 505.55,-70.97 508.42,-77.35"/>
</a>
</g>
</g>
<!-- Node16 -->
<g id="Node000016" class="node">
<title>Node16</title>
<g id="a_Node000016"><a xlink:title=" ">
<polygon fill="#e0e0e0" stroke="#999999" points="505.03,-123 452.03,-123 452.03,-106 505.03,-106 505.03,-123"/>
<text text-anchor="middle" x="478.53" y="-112.6" font-family="Helvetica,sans-Serif" font-size="8.00">iostream</text>
</a>
</g>
</g>
<!-- Node15&#45;&gt;Node16 -->
<g id="edge23_Node000015_Node000016" class="edge">
<title>Node15&#45;&gt;Node16</title>
<g id="a_edge23_Node000015_Node000016"><a xlink:title=" ">
<path fill="none" stroke="#63b8ff" d="M366.86,-158.97C388.73,-150.46 424.56,-136.51 449.72,-126.72"/>
<polygon fill="#63b8ff" stroke="#63b8ff" points="451.07,-129.95 459.12,-123.06 448.53,-123.42 451.07,-129.95"/>
</a>
</g>
</g>
<!-- Node17&#45;&gt;Node12 -->
<g id="edge27_Node000017_Node000012" class="edge">
<title>Node17&#45;&gt;Node12</title>
<g id="a_edge27_Node000017_Node000012"><a xlink:title=" ">
<path fill="none" stroke="#63b8ff" d="M613.07,-158.68C598.93,-141.58 565.03,-100.59 546.38,-78.03"/>
<polygon fill="#63b8ff" stroke="#63b8ff" points="548.91,-75.6 539.84,-70.12 543.51,-80.06 548.91,-75.6"/>
</a>
</g>
</g>
<!-- Node18 -->
<g id="Node000018" class="node">
<title>Node18</title>
<g id="a_Node000018"><a xlink:href="../../dc/d3c/bnode_8hpp.html" target="_top" xlink:title=" ">
<polygon fill="white" stroke="#666666" points="661.03,-123 600.03,-123 600.03,-106 661.03,-106 661.03,-123"/>
<text text-anchor="middle" x="630.53" y="-112.6" font-family="Helvetica,sans-Serif" font-size="8.00">bnode.hpp</text>
</a>
</g>
</g>
<!-- Node17&#45;&gt;Node18 -->
<g id="edge26_Node000017_Node000018" class="edge">
<title>Node17&#45;&gt;Node18</title>
<g id="a_edge26_Node000017_Node000018"><a xlink:title=" ">
<path fill="none" stroke="#63b8ff" d="M621.15,-158.97C622.63,-152.12 624.87,-141.74 626.79,-132.84"/>
<polygon fill="#63b8ff" stroke="#63b8ff" points="630.21,-133.57 628.9,-123.06 623.37,-132.09 630.21,-133.57"/>
</a>
</g>
</g>
</g>
</svg>
