<?xml version="1.0" encoding="UTF-8" standalone="no"?>
<!DOCTYPE svg PUBLIC "-//W3C//DTD SVG 1.1//EN"
 "http://www.w3.org/Graphics/SVG/1.1/DTD/svg11.dtd">
<!-- Generated by graphviz version 2.43.0 (0)
 -->
<!-- Title: Solvers Pages: 1 -->
<svg width="151pt" height="60pt"
 viewBox="0.00 0.00 151.00 60.00" xmlns="http://www.w3.org/2000/svg" xmlns:xlink="http://www.w3.org/1999/xlink">
<g id="graph0" class="graph" transform="scale(1 1) rotate(0) translate(4 56)">
<title>Solvers</title>
<!-- Node2 -->
<g id="Node000002" class="node">
<title>Node2</title>
<g id="a_Node000002"><a xlink:href="../../d9/d71/group__Multi-Target.html" target="_top" xlink:title="Solvers which route to multiple destinations.">
<polygon fill="white" stroke="#666666" points="140.5,-52 81.5,-52 81.5,-35 140.5,-35 140.5,-52"/>
<text text-anchor="middle" x="111" y="-41.6" font-family="Helvetica,sans-Serif" font-size="8.00">Multi&#45;Target</text>
</a>
</g>
</g>
<!-- Node3 -->
<g id="Node000003" class="node">
<title>Node3</title>
<g id="a_Node000003"><a xlink:href="../../d5/d91/group__Single-Target.html" target="_top" xlink:title="Solvers which route to a single destination.">
<polygon fill="white" stroke="#666666" points="143,-17 79,-17 79,0 143,0 143,-17"/>
<text text-anchor="middle" x="111" y="-6.6" font-family="Helvetica,sans-Serif" font-size="8.00">Single&#45;Target</text>
</a>
</g>
</g>
<!-- Node1 -->
<g id="Node000001" class="node">
<title>Node1</title>
<g id="a_Node000001"><a xlink:title=" ">
<polygon fill="#999999" stroke="#666666" points="43,-34 0,-34 0,-17 43,-17 43,-34"/>
<text text-anchor="middle" x="21.5" y="-23.6" font-family="Helvetica,sans-Serif" font-size="8.00">Solvers</text>
</a>
</g>
</g>
<!-- Node1&#45;&gt;Node2 -->
<g id="edge1" class="edge">
<title>Node1&#45;&gt;Node2</title>
<path fill="none" stroke="black" d="M53.16,-31.81C62.36,-33.7 72.41,-35.77 81.47,-37.63"/>
<polygon fill="black" stroke="black" points="53.74,-28.35 43.24,-29.77 52.33,-35.21 53.74,-28.35"/>
</g>
<!-- Node1&#45;&gt;Node3 -->
<g id="edge2" class="edge">
<title>Node1&#45;&gt;Node3</title>
<path fill="none" stroke="black" d="M53.26,-19.52C61.53,-17.92 70.49,-16.18 78.79,-14.56"/>
<polygon fill="black" stroke="black" points="52.39,-16.13 43.24,-21.47 53.72,-23 52.39,-16.13"/>
</g>
</g>
</svg>
