<?xml version="1.0" encoding="UTF-8" standalone="no"?>
<!DOCTYPE svg PUBLIC "-//W3C//DTD SVG 1.1//EN"
 "http://www.w3.org/Graphics/SVG/1.1/DTD/svg11.dtd">
<!-- Generated by graphviz version 2.43.0 (0)
 -->
<!-- Title: Solvers Pages: 1 -->
<svg width="161pt" height="60pt"
 viewBox="0.00 0.00 161.00 60.00" xmlns="http://www.w3.org/2000/svg" xmlns:xlink="http://www.w3.org/1999/xlink">
<g id="graph0" class="graph" transform="scale(1 1) rotate(0) translate(4 56)">
<title>Solvers</title>
<!-- Node2 -->
<g id="Node000002" class="node">
<title>Node2</title>
<g id="a_Node000002"><a xlink:href="../../d9/d71/group__Multi-Target.html" target="_top" xlink:title="Solvers which route to multiple destinations.">
<polygon fill="white" stroke="#666666" points="150,-52 86,-52 86,-35 150,-35 150,-52"/>
<text text-anchor="middle" x="118" y="-41.6" font-family="Helvetica,sans-Serif" font-size="8.00">Multi&#45;Target</text>
</a>
</g>
</g>
<!-- Node3 -->
<g id="Node000003" class="node">
<title>Node3</title>
<g id="a_Node000003"><a xlink:href="../../d5/d91/group__Single-Target.html" target="_top" xlink:title="Solvers which route to a single destination.">
<polygon fill="white" stroke="#666666" points="153,-17 83,-17 83,0 153,0 153,-17"/>
<text text-anchor="middle" x="118" y="-6.6" font-family="Helvetica,sans-Serif" font-size="8.00">Single&#45;Target</text>
</a>
</g>
</g>
<!-- Node1 -->
<g id="Node000001" class="node">
<title>Node1</title>
<g id="a_Node000001"><a xlink:title="Graph traversal and pathfinding algorithms.">
<polygon fill="#999999" stroke="#666666" points="47,-34 0,-34 0,-17 47,-17 47,-34"/>
<text text-anchor="middle" x="23.5" y="-23.6" font-family="Helvetica,sans-Serif" font-size="8.00">Solvers</text>
</a>
</g>
</g>
<!-- Node1&#45;&gt;Node2 -->
<g id="edge1" class="edge">
<title>Node1&#45;&gt;Node2</title>
<path fill="none" stroke="black" d="M57.35,-31.89C66.56,-33.69 76.55,-35.63 85.68,-37.4"/>
<polygon fill="black" stroke="black" points="57.85,-28.42 47.37,-29.95 56.51,-35.3 57.85,-28.42"/>
</g>
<!-- Node1&#45;&gt;Node3 -->
<g id="edge2" class="edge">
<title>Node1&#45;&gt;Node3</title>
<path fill="none" stroke="black" d="M57.4,-19.45C65.66,-17.93 74.54,-16.3 82.86,-14.77"/>
<polygon fill="black" stroke="black" points="56.57,-16.05 47.37,-21.3 57.83,-22.93 56.57,-16.05"/>
</g>
</g>
</svg>
