<?xml version="1.0" encoding="UTF-8" standalone="no"?>
<!DOCTYPE svg PUBLIC "-//W3C//DTD SVG 1.1//EN"
 "http://www.w3.org/Graphics/SVG/1.1/DTD/svg11.dtd">
<!-- Generated by graphviz version 2.43.0 (0)
 -->
<!-- Title: stack.hpp Pages: 1 -->
<svg width="270pt" height="131pt"
 viewBox="0.00 0.00 269.61 131.00" xmlns="http://www.w3.org/2000/svg" xmlns:xlink="http://www.w3.org/1999/xlink">
<g id="graph0" class="graph" transform="scale(1 1) rotate(0) translate(4 127)">
<title>stack.hpp</title>
<!-- Node1 -->
<g id="Node000001" class="node">
<title>Node1</title>
<g id="a_Node000001"><a xlink:title=" ">
<polygon fill="#999999" stroke="#666666" points="117.61,-123 67.61,-123 67.61,-106 117.61,-106 117.61,-123"/>
<text text-anchor="middle" x="92.61" y="-112.6" font-family="Helvetica,sans-Serif" font-size="8.00">stack.hpp</text>
</a>
</g>
</g>
<!-- Node2 -->
<g id="Node000002" class="node">
<title>Node2</title>
<g id="a_Node000002"><a xlink:title=" ">
<polygon fill="#e0e0e0" stroke="#999999" points="76.61,-17 34.61,-17 34.61,0 76.61,0 76.61,-17"/>
<text text-anchor="middle" x="55.61" y="-6.6" font-family="Helvetica,sans-Serif" font-size="8.00">cstddef</text>
</a>
</g>
</g>
<!-- Node1&#45;&gt;Node2 -->
<g id="edge1_Node000001_Node000002" class="edge">
<title>Node1&#45;&gt;Node2</title>
<g id="a_edge1_Node000001_Node000002"><a xlink:title=" ">
<path fill="none" stroke="#63b8ff" d="M67.33,-108.77C46.24,-103.35 17.45,-92.17 3.61,-70 -7.61,-52.03 13.15,-33.93 31.67,-22.28"/>
<polygon fill="#63b8ff" stroke="#63b8ff" points="33.6,-25.2 40.43,-17.1 30.04,-19.17 33.6,-25.2"/>
</a>
</g>
</g>
<!-- Node3 -->
<g id="Node000003" class="node">
<title>Node3</title>
<g id="a_Node000003"><a xlink:title=" ">
<polygon fill="#e0e0e0" stroke="#999999" points="94.61,-70 12.61,-70 12.61,-53 94.61,-53 94.61,-70"/>
<text text-anchor="middle" x="53.61" y="-59.6" font-family="Helvetica,sans-Serif" font-size="8.00">memory_resource</text>
</a>
</g>
</g>
<!-- Node1&#45;&gt;Node3 -->
<g id="edge2_Node000001_Node000003" class="edge">
<title>Node1&#45;&gt;Node3</title>
<g id="a_edge2_Node000001_Node000003"><a xlink:title=" ">
<path fill="none" stroke="#63b8ff" d="M86.86,-105.97C81.27,-98.67 72.62,-87.35 65.54,-78.1"/>
<polygon fill="#63b8ff" stroke="#63b8ff" points="68.24,-75.87 59.39,-70.06 62.68,-80.13 68.24,-75.87"/>
</a>
</g>
</g>
<!-- Node4 -->
<g id="Node000004" class="node">
<title>Node4</title>
<g id="a_Node000004"><a xlink:title=" ">
<polygon fill="#e0e0e0" stroke="#999999" points="150.61,-70 112.61,-70 112.61,-53 150.61,-53 150.61,-70"/>
<text text-anchor="middle" x="131.61" y="-59.6" font-family="Helvetica,sans-Serif" font-size="8.00">vector</text>
</a>
</g>
</g>
<!-- Node1&#45;&gt;Node4 -->
<g id="edge3_Node000001_Node000004" class="edge">
<title>Node1&#45;&gt;Node4</title>
<g id="a_edge3_Node000001_Node000004"><a xlink:title=" ">
<path fill="none" stroke="#63b8ff" d="M98.37,-105.97C103.95,-98.67 112.61,-87.35 119.68,-78.1"/>
<polygon fill="#63b8ff" stroke="#63b8ff" points="122.54,-80.13 125.83,-70.06 116.98,-75.87 122.54,-80.13"/>
</a>
</g>
</g>
<!-- Node5 -->
<g id="Node000005" class="node">
<title>Node5</title>
<g id="a_Node000005"><a xlink:href="../../d7/d65/intrinsics_8hpp.html" target="_top" xlink:title=" ">
<polygon fill="white" stroke="#666666" points="260.61,-70 168.61,-70 168.61,-53 260.61,-53 260.61,-70"/>
<text text-anchor="middle" x="214.61" y="-59.6" font-family="Helvetica,sans-Serif" font-size="8.00">../../utils/intrinsics.hpp</text>
</a>
</g>
</g>
<!-- Node1&#45;&gt;Node5 -->
<g id="edge4_Node000001_Node000005" class="edge">
<title>Node1&#45;&gt;Node5</title>
<g id="a_edge4_Node000001_Node000005"><a xlink:title=" ">
<path fill="none" stroke="#63b8ff" d="M110.61,-105.97C130.8,-97.54 163.76,-83.76 187.16,-73.98"/>
<polygon fill="#63b8ff" stroke="#63b8ff" points="188.66,-77.14 196.54,-70.06 185.96,-70.68 188.66,-77.14"/>
</a>
</g>
</g>
<!-- Node5&#45;&gt;Node2 -->
<g id="edge6_Node000005_Node000002" class="edge">
<title>Node5&#45;&gt;Node2</title>
<g id="a_edge6_Node000005_Node000002"><a xlink:title=" ">
<path fill="none" stroke="#63b8ff" d="M191.15,-52.97C163.37,-44.06 117,-29.19 86.36,-19.36"/>
<polygon fill="#63b8ff" stroke="#63b8ff" points="87.22,-15.96 76.63,-16.24 85.08,-22.63 87.22,-15.96"/>
</a>
</g>
</g>
<!-- Node6 -->
<g id="Node000006" class="node">
<title>Node6</title>
<g id="a_Node000006"><a xlink:title=" ">
<polygon fill="#e0e0e0" stroke="#999999" points="205.61,-17 165.61,-17 165.61,0 205.61,0 205.61,-17"/>
<text text-anchor="middle" x="185.61" y="-6.6" font-family="Helvetica,sans-Serif" font-size="8.00">atomic</text>
</a>
</g>
</g>
<!-- Node5&#45;&gt;Node6 -->
<g id="edge5_Node000005_Node000006" class="edge">
<title>Node5&#45;&gt;Node6</title>
<g id="a_edge5_Node000005_Node000006"><a xlink:title=" ">
<path fill="none" stroke="#63b8ff" d="M210.33,-52.97C206.31,-45.89 200.14,-35.05 194.97,-25.96"/>
<polygon fill="#63b8ff" stroke="#63b8ff" points="197.89,-24.02 189.91,-17.06 191.81,-27.48 197.89,-24.02"/>
</a>
</g>
</g>
<!-- Node7 -->
<g id="Node000007" class="node">
<title>Node7</title>
<g id="a_Node000007"><a xlink:title=" ">
<polygon fill="#e0e0e0" stroke="#999999" points="261.61,-17 223.61,-17 223.61,0 261.61,0 261.61,-17"/>
<text text-anchor="middle" x="242.61" y="-6.6" font-family="Helvetica,sans-Serif" font-size="8.00">cstdlib</text>
</a>
</g>
</g>
<!-- Node5&#45;&gt;Node7 -->
<g id="edge7_Node000005_Node000007" class="edge">
<title>Node5&#45;&gt;Node7</title>
<g id="a_edge7_Node000005_Node000007"><a xlink:title=" ">
<path fill="none" stroke="#63b8ff" d="M218.74,-52.97C222.63,-45.89 228.58,-35.05 233.57,-25.96"/>
<polygon fill="#63b8ff" stroke="#63b8ff" points="236.72,-27.51 238.46,-17.06 230.58,-24.14 236.72,-27.51"/>
</a>
</g>
</g>
</g>
</svg>
