<?xml version="1.0" encoding="UTF-8" standalone="no"?>
<!DOCTYPE svg PUBLIC "-//W3C//DTD SVG 1.1//EN"
 "http://www.w3.org/Graphics/SVG/1.1/DTD/svg11.dtd">
<!-- Generated by graphviz version 2.43.0 (0)
 -->
<!-- Title: stack.hpp Pages: 1 -->
<svg width="295pt" height="131pt"
 viewBox="0.00 0.00 295.19 131.00" xmlns="http://www.w3.org/2000/svg" xmlns:xlink="http://www.w3.org/1999/xlink">
<g id="graph0" class="graph" transform="scale(1 1) rotate(0) translate(4 127)">
<title>stack.hpp</title>
<!-- Node1 -->
<g id="Node000001" class="node">
<title>Node1</title>
<g id="a_Node000001"><a xlink:title=" ">
<polygon fill="#999999" stroke="#666666" points="126.69,-123 70.69,-123 70.69,-106 126.69,-106 126.69,-123"/>
<text text-anchor="middle" x="98.69" y="-112.6" font-family="Helvetica,sans-Serif" font-size="8.00">stack.hpp</text>
</a>
</g>
</g>
<!-- Node2 -->
<g id="Node000002" class="node">
<title>Node2</title>
<g id="a_Node000002"><a xlink:title=" ">
<polygon fill="#e0e0e0" stroke="#999999" points="101.19,-17 54.19,-17 54.19,0 101.19,0 101.19,-17"/>
<text text-anchor="middle" x="77.69" y="-6.6" font-family="Helvetica,sans-Serif" font-size="8.00">cstddef</text>
</a>
</g>
</g>
<!-- Node1&#45;&gt;Node2 -->
<g id="edge1_Node000001_Node000002" class="edge">
<title>Node1&#45;&gt;Node2</title>
<g id="a_edge1_Node000001_Node000002"><a xlink:title=" ">
<path fill="none" stroke="#63b8ff" d="M70.43,-108.98C48.08,-103.75 18.29,-92.75 3.69,-70 -9.98,-48.7 18.9,-31.31 44.49,-20.72"/>
<polygon fill="#63b8ff" stroke="#63b8ff" points="45.99,-23.9 54.04,-17.01 43.45,-17.37 45.99,-23.9"/>
</a>
</g>
</g>
<!-- Node3 -->
<g id="Node000003" class="node">
<title>Node3</title>
<g id="a_Node000003"><a xlink:title=" ">
<polygon fill="#e0e0e0" stroke="#999999" points="102.19,-70 13.19,-70 13.19,-53 102.19,-53 102.19,-70"/>
<text text-anchor="middle" x="57.69" y="-59.6" font-family="Helvetica,sans-Serif" font-size="8.00">memory_resource</text>
</a>
</g>
</g>
<!-- Node1&#45;&gt;Node3 -->
<g id="edge2_Node000001_Node000003" class="edge">
<title>Node1&#45;&gt;Node3</title>
<g id="a_edge2_Node000001_Node000003"><a xlink:title=" ">
<path fill="none" stroke="#63b8ff" d="M92.64,-105.97C86.77,-98.67 77.67,-87.35 70.23,-78.1"/>
<polygon fill="#63b8ff" stroke="#63b8ff" points="72.76,-75.66 63.77,-70.06 67.3,-80.04 72.76,-75.66"/>
</a>
</g>
</g>
<!-- Node4 -->
<g id="Node000004" class="node">
<title>Node4</title>
<g id="a_Node000004"><a xlink:title=" ">
<polygon fill="#e0e0e0" stroke="#999999" points="161.69,-70 119.69,-70 119.69,-53 161.69,-53 161.69,-70"/>
<text text-anchor="middle" x="140.69" y="-59.6" font-family="Helvetica,sans-Serif" font-size="8.00">vector</text>
</a>
</g>
</g>
<!-- Node1&#45;&gt;Node4 -->
<g id="edge3_Node000001_Node000004" class="edge">
<title>Node1&#45;&gt;Node4</title>
<g id="a_edge3_Node000001_Node000004"><a xlink:title=" ">
<path fill="none" stroke="#63b8ff" d="M104.89,-105.97C110.97,-98.59 120.42,-87.12 128.08,-77.81"/>
<polygon fill="#63b8ff" stroke="#63b8ff" points="130.81,-80 134.47,-70.06 125.41,-75.55 130.81,-80"/>
</a>
</g>
</g>
<!-- Node5 -->
<g id="Node000005" class="node">
<title>Node5</title>
<g id="a_Node000005"><a xlink:href="../../d7/d65/intrinsics_8hpp.html" target="_top" xlink:title=" ">
<polygon fill="white" stroke="#666666" points="287.19,-70 180.19,-70 180.19,-53 287.19,-53 287.19,-70"/>
<text text-anchor="middle" x="233.69" y="-59.6" font-family="Helvetica,sans-Serif" font-size="8.00">../../utils/intrinsics.hpp</text>
</a>
</g>
</g>
<!-- Node1&#45;&gt;Node5 -->
<g id="edge4_Node000001_Node000005" class="edge">
<title>Node1&#45;&gt;Node5</title>
<g id="a_edge4_Node000001_Node000005"><a xlink:title=" ">
<path fill="none" stroke="#63b8ff" d="M118.61,-105.97C141.14,-97.46 178.07,-83.51 204,-73.72"/>
<polygon fill="#63b8ff" stroke="#63b8ff" points="205.57,-76.86 213.69,-70.06 203.1,-70.32 205.57,-76.86"/>
</a>
</g>
</g>
<!-- Node5&#45;&gt;Node2 -->
<g id="edge6_Node000005_Node000002" class="edge">
<title>Node5&#45;&gt;Node2</title>
<g id="a_edge6_Node000005_Node000002"><a xlink:title=" ">
<path fill="none" stroke="#63b8ff" d="M210.67,-52.97C184.17,-44.31 140.45,-30.02 110.42,-20.2"/>
<polygon fill="#63b8ff" stroke="#63b8ff" points="111.4,-16.84 100.8,-17.06 109.22,-23.49 111.4,-16.84"/>
</a>
</g>
</g>
<!-- Node6 -->
<g id="Node000006" class="node">
<title>Node6</title>
<g id="a_Node000006"><a xlink:title=" ">
<polygon fill="#e0e0e0" stroke="#999999" points="224.69,-17 180.69,-17 180.69,0 224.69,0 224.69,-17"/>
<text text-anchor="middle" x="202.69" y="-6.6" font-family="Helvetica,sans-Serif" font-size="8.00">atomic</text>
</a>
</g>
</g>
<!-- Node5&#45;&gt;Node6 -->
<g id="edge5_Node000005_Node000006" class="edge">
<title>Node5&#45;&gt;Node6</title>
<g id="a_edge5_Node000005_Node000006"><a xlink:title=" ">
<path fill="none" stroke="#63b8ff" d="M229.12,-52.97C224.77,-45.82 218.08,-34.82 212.52,-25.67"/>
<polygon fill="#63b8ff" stroke="#63b8ff" points="215.47,-23.78 207.28,-17.06 209.49,-27.42 215.47,-23.78"/>
</a>
</g>
</g>
<!-- Node7 -->
<g id="Node000007" class="node">
<title>Node7</title>
<g id="a_Node000007"><a xlink:title=" ">
<polygon fill="#e0e0e0" stroke="#999999" points="286.69,-17 242.69,-17 242.69,0 286.69,0 286.69,-17"/>
<text text-anchor="middle" x="264.69" y="-6.6" font-family="Helvetica,sans-Serif" font-size="8.00">cstdlib</text>
</a>
</g>
</g>
<!-- Node5&#45;&gt;Node7 -->
<g id="edge7_Node000005_Node000007" class="edge">
<title>Node5&#45;&gt;Node7</title>
<g id="a_edge7_Node000005_Node000007"><a xlink:title=" ">
<path fill="none" stroke="#63b8ff" d="M238.26,-52.97C242.61,-45.82 249.3,-34.82 254.86,-25.67"/>
<polygon fill="#63b8ff" stroke="#63b8ff" points="257.89,-27.42 260.1,-17.06 251.91,-23.78 257.89,-27.42"/>
</a>
</g>
</g>
</g>
</svg>
