<?xml version="1.0" encoding="UTF-8" standalone="no"?>
<!DOCTYPE svg PUBLIC "-//W3C//DTD SVG 1.1//EN"
 "http://www.w3.org/Graphics/SVG/1.1/DTD/svg11.dtd">
<!-- Generated by graphviz version 2.43.0 (0)
 -->
<!-- Title: stack.hpp Pages: 1 -->
<svg width="282pt" height="131pt"
 viewBox="0.00 0.00 282.03 131.00" xmlns="http://www.w3.org/2000/svg" xmlns:xlink="http://www.w3.org/1999/xlink">
<g id="graph0" class="graph" transform="scale(1 1) rotate(0) translate(4 127)">
<title>stack.hpp</title>
<!-- Node1 -->
<g id="Node000001" class="node">
<title>Node1</title>
<g id="a_Node000001"><a xlink:title=" ">
<polygon fill="#999999" stroke="#666666" points="117.53,-123 67.53,-123 67.53,-106 117.53,-106 117.53,-123"/>
<text text-anchor="middle" x="92.53" y="-112.6" font-family="Helvetica,sans-Serif" font-size="8.00">stack.hpp</text>
</a>
</g>
</g>
<!-- Node2 -->
<g id="Node000002" class="node">
<title>Node2</title>
<g id="a_Node000002"><a xlink:title=" ">
<polygon fill="#e0e0e0" stroke="#999999" points="95.53,-17 53.53,-17 53.53,0 95.53,0 95.53,-17"/>
<text text-anchor="middle" x="74.53" y="-6.6" font-family="Helvetica,sans-Serif" font-size="8.00">cstddef</text>
</a>
</g>
</g>
<!-- Node1&#45;&gt;Node2 -->
<g id="edge1_Node000001_Node000002" class="edge">
<title>Node1&#45;&gt;Node2</title>
<g id="a_edge1_Node000001_Node000002"><a xlink:title=" ">
<path fill="none" stroke="#63b8ff" d="M67.26,-108.77C46.16,-103.35 17.38,-92.17 3.53,-70 -9.72,-48.78 18.88,-31.14 43.65,-20.48"/>
<polygon fill="#63b8ff" stroke="#63b8ff" points="45.24,-23.61 53.2,-16.62 42.62,-17.12 45.24,-23.61"/>
</a>
</g>
</g>
<!-- Node3 -->
<g id="Node000003" class="node">
<title>Node3</title>
<g id="a_Node000003"><a xlink:title=" ">
<polygon fill="#e0e0e0" stroke="#999999" points="94.53,-70 12.53,-70 12.53,-53 94.53,-53 94.53,-70"/>
<text text-anchor="middle" x="53.53" y="-59.6" font-family="Helvetica,sans-Serif" font-size="8.00">memory_resource</text>
</a>
</g>
</g>
<!-- Node1&#45;&gt;Node3 -->
<g id="edge2_Node000001_Node000003" class="edge">
<title>Node1&#45;&gt;Node3</title>
<g id="a_edge2_Node000001_Node000003"><a xlink:title=" ">
<path fill="none" stroke="#63b8ff" d="M86.78,-105.97C81.19,-98.67 72.54,-87.35 65.46,-78.1"/>
<polygon fill="#63b8ff" stroke="#63b8ff" points="68.17,-75.87 59.31,-70.06 62.61,-80.13 68.17,-75.87"/>
</a>
</g>
</g>
<!-- Node4 -->
<g id="Node000004" class="node">
<title>Node4</title>
<g id="a_Node000004"><a xlink:title=" ">
<polygon fill="#e0e0e0" stroke="#999999" points="150.53,-70 112.53,-70 112.53,-53 150.53,-53 150.53,-70"/>
<text text-anchor="middle" x="131.53" y="-59.6" font-family="Helvetica,sans-Serif" font-size="8.00">vector</text>
</a>
</g>
</g>
<!-- Node1&#45;&gt;Node4 -->
<g id="edge3_Node000001_Node000004" class="edge">
<title>Node1&#45;&gt;Node4</title>
<g id="a_edge3_Node000001_Node000004"><a xlink:title=" ">
<path fill="none" stroke="#63b8ff" d="M98.29,-105.97C103.88,-98.67 112.53,-87.35 119.6,-78.1"/>
<polygon fill="#63b8ff" stroke="#63b8ff" points="122.46,-80.13 125.76,-70.06 116.9,-75.87 122.46,-80.13"/>
</a>
</g>
</g>
<!-- Node5 -->
<g id="Node000005" class="node">
<title>Node5</title>
<g id="a_Node000005"><a xlink:href="../../d7/d65/intrinsics_8hpp.html" target="_top" xlink:title=" ">
<polygon fill="white" stroke="#666666" points="274.03,-70 169.03,-70 169.03,-53 274.03,-53 274.03,-70"/>
<text text-anchor="middle" x="221.53" y="-59.6" font-family="Helvetica,sans-Serif" font-size="8.00">include/utils/intrinsics.hpp</text>
</a>
</g>
</g>
<!-- Node1&#45;&gt;Node5 -->
<g id="edge4_Node000001_Node000005" class="edge">
<title>Node1&#45;&gt;Node5</title>
<g id="a_edge4_Node000001_Node000005"><a xlink:title=" ">
<path fill="none" stroke="#63b8ff" d="M111.57,-105.97C133,-97.5 168.07,-83.64 192.84,-73.85"/>
<polygon fill="#63b8ff" stroke="#63b8ff" points="194.41,-76.99 202.42,-70.06 191.83,-70.48 194.41,-76.99"/>
</a>
</g>
</g>
<!-- Node5&#45;&gt;Node2 -->
<g id="edge5_Node000005_Node000002" class="edge">
<title>Node5&#45;&gt;Node2</title>
<g id="a_edge5_Node000005_Node000002"><a xlink:title=" ">
<path fill="none" stroke="#63b8ff" d="M199.84,-52.97C174.95,-44.34 133.92,-30.1 105.63,-20.29"/>
<polygon fill="#63b8ff" stroke="#63b8ff" points="106.43,-16.86 95.84,-16.89 104.14,-23.47 106.43,-16.86"/>
</a>
</g>
</g>
<!-- Node6 -->
<g id="Node000006" class="node">
<title>Node6</title>
<g id="a_Node000006"><a xlink:title=" ">
<polygon fill="#e0e0e0" stroke="#999999" points="240.53,-17 202.53,-17 202.53,0 240.53,0 240.53,-17"/>
<text text-anchor="middle" x="221.53" y="-6.6" font-family="Helvetica,sans-Serif" font-size="8.00">cstdlib</text>
</a>
</g>
</g>
<!-- Node5&#45;&gt;Node6 -->
<g id="edge6_Node000005_Node000006" class="edge">
<title>Node5&#45;&gt;Node6</title>
<g id="a_edge6_Node000005_Node000006"><a xlink:title=" ">
<path fill="none" stroke="#63b8ff" d="M221.53,-52.97C221.53,-46.19 221.53,-35.97 221.53,-27.13"/>
<polygon fill="#63b8ff" stroke="#63b8ff" points="225.03,-27.06 221.53,-17.06 218.03,-27.06 225.03,-27.06"/>
</a>
</g>
</g>
</g>
</svg>
