<?xml version="1.0" encoding="UTF-8" standalone="no"?>
<!DOCTYPE svg PUBLIC "-//W3C//DTD SVG 1.1//EN"
 "http://www.w3.org/Graphics/SVG/1.1/DTD/svg11.dtd">
<!-- Generated by graphviz version 2.43.0 (0)
 -->
<!-- Title: solver&lt; solver_t, params_t &gt;::solver_utils::has_method_reset&lt; T &gt; Pages: 1 -->
<svg width="252pt" height="51pt"
 viewBox="0.00 0.00 252.00 51.00" xmlns="http://www.w3.org/2000/svg" xmlns:xlink="http://www.w3.org/1999/xlink">
<g id="graph0" class="graph" transform="scale(1 1) rotate(0) translate(4 47)">
<title>solver&lt; solver_t, params_t &gt;::solver_utils::has_method_reset&lt; T &gt;</title>
<!-- Node1 -->
<g id="Node000001" class="node">
<title>Node1</title>
<g id="a_Node000001"><a xlink:title="A utility trait for determining whether a type has a callable reset method.">
<polygon fill="#999999" stroke="transparent" points="244,-43 0,-43 0,0 244,0 244,-43"/>
<text text-anchor="start" x="5" y="-32.1" font-family="Helvetica,sans-Serif" font-size="8.00">solver&lt; solver_t, params_t &gt;::solver_utils::has_method_reset&lt; T &gt;</text>
<text text-anchor="start" x="46.5" y="-19.1" font-family="Helvetica,sans-Serif" font-size="8.00">+</text>
<text text-anchor="start" x="98" y="-19.1" font-family="Helvetica,sans-Serif" font-size="8.00">static bool value</text>
<text text-anchor="start" x="120.5" y="-6.1" font-family="Helvetica,sans-Serif" font-size="8.00"> </text>
<polygon fill="#666666" stroke="#666666" points="0,-27.5 0,-27.5 244,-27.5 244,-27.5 0,-27.5"/>
<polygon fill="#666666" stroke="#666666" points="0,-14.5 0,-14.5 96,-14.5 96,-14.5 0,-14.5"/>
<polygon fill="#666666" stroke="#666666" points="96,-14.5 96,-14.5 244,-14.5 244,-14.5 96,-14.5"/>
<polygon fill="none" stroke="#666666" points="0,0 0,-43 244,-43 244,0 0,0"/>
</a>
</g>
</g>
</g>
</svg>
