<?xml version="1.0" encoding="UTF-8" standalone="no"?>
<!DOCTYPE svg PUBLIC "-//W3C//DTD SVG 1.1//EN"
 "http://www.w3.org/Graphics/SVG/1.1/DTD/svg11.dtd">
<!-- Generated by graphviz version 2.43.0 (0)
 -->
<!-- Title: graph Pages: 1 -->
<svg width="381pt" height="491pt"
 viewBox="0.00 0.00 381.00 491.00" xmlns="http://www.w3.org/2000/svg" xmlns:xlink="http://www.w3.org/1999/xlink">
<g id="graph0" class="graph" transform="scale(1 1) rotate(0) translate(4 487)">
<title>graph</title>
<!-- Node1 -->
<g id="Node000001" class="node">
<title>Node1</title>
<g id="a_Node000001"><a xlink:title="Constructs a graph instance from a grid structure.">
<polygon fill="#999999" stroke="#666666" points="38,-250 0,-250 0,-233 38,-233 38,-250"/>
<text text-anchor="middle" x="19" y="-239.6" font-family="Helvetica,sans-Serif" font-size="8.00">graph</text>
</a>
</g>
</g>
<!-- Node2 -->
<g id="Node000002" class="node">
<title>Node2</title>
<g id="a_Node000002"><a xlink:href="../../d9/dcb/classchdr_1_1mazes_1_1graph_ab41a4e064828273b133921f8d05a7540.html#ab41a4e064828273b133921f8d05a7540" target="_top" xlink:title="Adds a new vertex to the graph with the specified identifier.">
<polygon fill="white" stroke="#666666" points="151.5,-483 121.5,-483 121.5,-466 151.5,-466 151.5,-483"/>
<text text-anchor="middle" x="136.5" y="-472.6" font-family="Helvetica,sans-Serif" font-size="8.00">add</text>
</a>
</g>
</g>
<!-- Node1&#45;&gt;Node2 -->
<g id="edge1_Node000001_Node000002" class="edge">
<title>Node1&#45;&gt;Node2</title>
<g id="a_edge1_Node000001_Node000002"><a xlink:title=" ">
<path fill="none" stroke="#63b8ff" d="M21.02,-250.29C25.43,-286.91 44.04,-426.79 74,-457.5 83.67,-467.41 98.56,-471.7 111.27,-473.49"/>
<polygon fill="#63b8ff" stroke="#63b8ff" points="110.97,-476.97 121.26,-474.47 111.65,-470.01 110.97,-476.97"/>
</a>
</g>
</g>
<!-- Node3 -->
<g id="Node000003" class="node">
<title>Node3</title>
<g id="a_Node000003"><a xlink:href="../../d2/dcb/structchdr_1_1utils_a81ba0122d283ec87be2676092c872a52.html#a81ba0122d283ec87be2676092c872a52" target="_top" xlink:title="Constrains a value to lie within a specified range.">
<polygon fill="white" stroke="#666666" points="174.5,-448 98.5,-448 98.5,-431 174.5,-431 174.5,-448"/>
<text text-anchor="middle" x="136.5" y="-437.6" font-family="Helvetica,sans-Serif" font-size="8.00">chdr::utils::clamp</text>
</a>
</g>
</g>
<!-- Node1&#45;&gt;Node3 -->
<g id="edge2_Node000001_Node000003" class="edge">
<title>Node1&#45;&gt;Node3</title>
<g id="a_edge2_Node000001_Node000003"><a xlink:title=" ">
<path fill="none" stroke="#63b8ff" d="M19.84,-250.14C19.78,-279.03 23.64,-373.15 74,-422.5 78.21,-426.62 83.32,-429.77 88.78,-432.16"/>
<polygon fill="#63b8ff" stroke="#63b8ff" points="87.6,-435.46 98.2,-435.52 89.96,-428.86 87.6,-435.46"/>
</a>
</g>
</g>
<!-- Node4 -->
<g id="Node000004" class="node">
<title>Node4</title>
<g id="a_Node000004"><a xlink:href="../../db/dc9/classchdr_1_1stack_ac8bb3912a3ce86b15842e79d0b421204.html#ac8bb3912a3ce86b15842e79d0b421204" target="_top" xlink:title="Clears all elements from the stack.">
<polygon fill="white" stroke="#666666" points="175,-413 98,-413 98,-396 175,-396 175,-413"/>
<text text-anchor="middle" x="136.5" y="-402.6" font-family="Helvetica,sans-Serif" font-size="8.00">chdr::stack::clear</text>
</a>
</g>
</g>
<!-- Node1&#45;&gt;Node4 -->
<g id="edge3_Node000001_Node000004" class="edge">
<title>Node1&#45;&gt;Node4</title>
<g id="a_edge3_Node000001_Node000004"><a xlink:title=" ">
<path fill="none" stroke="#63b8ff" d="M20.56,-250.23C22.64,-275.46 32.21,-349.1 74,-387.5 78.13,-391.29 83.03,-394.25 88.24,-396.56"/>
<polygon fill="#63b8ff" stroke="#63b8ff" points="87.24,-399.92 97.84,-400.04 89.63,-393.34 87.24,-399.92"/>
</a>
</g>
</g>
<!-- Node5 -->
<g id="Node000005" class="node">
<title>Node5</title>
<g id="a_Node000005"><a xlink:href="../../d9/dcb/classchdr_1_1mazes_1_1graph_ad6077e456dd6abb62d82087b55dc2331.html#ad6077e456dd6abb62d82087b55dc2331" target="_top" xlink:title="Returns the total number of vertices in the graph.">
<polygon fill="white" stroke="#666666" points="154.5,-378 118.5,-378 118.5,-361 154.5,-361 154.5,-378"/>
<text text-anchor="middle" x="136.5" y="-367.6" font-family="Helvetica,sans-Serif" font-size="8.00">count</text>
</a>
</g>
</g>
<!-- Node1&#45;&gt;Node5 -->
<g id="edge4_Node000001_Node000005" class="edge">
<title>Node1&#45;&gt;Node5</title>
<g id="a_edge4_Node000001_Node000005"><a xlink:title=" ">
<path fill="none" stroke="#63b8ff" d="M22.14,-250.17C27.48,-270.01 43.21,-319.12 74,-346.5 83.69,-355.11 96.9,-360.61 108.59,-364.06"/>
<polygon fill="#63b8ff" stroke="#63b8ff" points="107.8,-367.47 118.36,-366.6 109.56,-360.7 107.8,-367.47"/>
</a>
</g>
</g>
<!-- Node6 -->
<g id="Node000006" class="node">
<title>Node6</title>
<g id="a_Node000006"><a xlink:href="../../dd/de3/classchdr_1_1mazes_1_1grid_ad6077e456dd6abb62d82087b55dc2331.html#ad6077e456dd6abb62d82087b55dc2331" target="_top" xlink:title="Retrieves the total count of elements in the grid.">
<polygon fill="white" stroke="#666666" points="355,-305 253,-305 253,-288 355,-288 355,-305"/>
<text text-anchor="middle" x="304" y="-294.6" font-family="Helvetica,sans-Serif" font-size="8.00">chdr::mazes::grid::count</text>
</a>
</g>
</g>
<!-- Node1&#45;&gt;Node6 -->
<g id="edge5_Node000001_Node000006" class="edge">
<title>Node1&#45;&gt;Node6</title>
<g id="a_edge5_Node000001_Node000006"><a xlink:title=" ">
<path fill="none" stroke="#63b8ff" d="M23.41,-250.23C30.21,-266.29 47.17,-300.08 74,-313.5 138.31,-345.66 225.67,-324.06 271.68,-308.5"/>
<polygon fill="#63b8ff" stroke="#63b8ff" points="273.1,-311.71 281.38,-305.09 270.79,-305.1 273.1,-311.71"/>
</a>
</g>
</g>
<!-- Node7 -->
<g id="Node000007" class="node">
<title>Node7</title>
<g id="a_Node000007"><a xlink:href="../../db/dc9/classchdr_1_1stack_add55c8b8d3e3d6419e57210d3313fd09.html#add55c8b8d3e3d6419e57210d3313fd09" target="_top" xlink:title="Constructs an element in place, adding it to the stack.">
<polygon fill="white" stroke="#666666" points="181,-304 92,-304 92,-287 181,-287 181,-304"/>
<text text-anchor="middle" x="136.5" y="-293.6" font-family="Helvetica,sans-Serif" font-size="8.00">chdr::stack::emplace</text>
</a>
</g>
</g>
<!-- Node1&#45;&gt;Node7 -->
<g id="edge6_Node000001_Node000007" class="edge">
<title>Node1&#45;&gt;Node7</title>
<g id="a_edge6_Node000001_Node000007"><a xlink:title=" ">
<path fill="none" stroke="#63b8ff" d="M30.52,-250.29C40.96,-258.61 57.72,-270.93 74,-278.5 78.29,-280.5 82.87,-282.3 87.51,-283.92"/>
<polygon fill="#63b8ff" stroke="#63b8ff" points="86.48,-287.26 97.07,-286.99 88.62,-280.6 86.48,-287.26"/>
</a>
</g>
</g>
<!-- Node8 -->
<g id="Node000008" class="node">
<title>Node8</title>
<g id="a_Node000008"><a xlink:href="../../db/dc9/classchdr_1_1stack_a3f6fc5de06a318920d84f3c3742db07f.html#a3f6fc5de06a318920d84f3c3742db07f" target="_top" xlink:title="Checks if the stack is empty.">
<polygon fill="white" stroke="#666666" points="344.5,-122 263.5,-122 263.5,-105 344.5,-105 344.5,-122"/>
<text text-anchor="middle" x="304" y="-111.6" font-family="Helvetica,sans-Serif" font-size="8.00">chdr::stack::empty</text>
</a>
</g>
</g>
<!-- Node1&#45;&gt;Node8 -->
<g id="edge7_Node000001_Node000008" class="edge">
<title>Node1&#45;&gt;Node8</title>
<g id="a_edge7_Node000001_Node000008"><a xlink:title=" ">
<path fill="none" stroke="#63b8ff" d="M38.23,-234.38C70.82,-221.55 141.07,-193.35 199,-166.5 226.42,-153.79 257.2,-137.9 278.11,-126.85"/>
<polygon fill="#63b8ff" stroke="#63b8ff" points="279.78,-129.92 286.97,-122.14 276.5,-123.74 279.78,-129.92"/>
</a>
</g>
</g>
<!-- Node9 -->
<g id="Node000009" class="node">
<title>Node9</title>
<g id="a_Node000009"><a xlink:href="../../dd/de3/classchdr_1_1mazes_1_1grid_a0abdfb4af71cccf812fb2b7150f0cc72.html#a0abdfb4af71cccf812fb2b7150f0cc72" target="_top" xlink:title="Retrieves the neighbours of a node within the grid.">
<polygon fill="white" stroke="#666666" points="373,-250 235,-250 235,-233 373,-233 373,-250"/>
<text text-anchor="middle" x="304" y="-239.6" font-family="Helvetica,sans-Serif" font-size="8.00">chdr::mazes::grid::get_neighbours</text>
</a>
</g>
</g>
<!-- Node1&#45;&gt;Node9 -->
<g id="edge8_Node000001_Node000009" class="edge">
<title>Node1&#45;&gt;Node9</title>
<g id="a_edge8_Node000001_Node000009"><a xlink:title=" ">
<path fill="none" stroke="#63b8ff" d="M38.13,-241.5C75.02,-241.5 160.69,-241.5 224.68,-241.5"/>
<polygon fill="#63b8ff" stroke="#63b8ff" points="224.75,-245 234.75,-241.5 224.75,-238 224.75,-245"/>
</a>
</g>
</g>
<!-- Node10 -->
<g id="Node000010" class="node">
<title>Node10</title>
<g id="a_Node000010"><a xlink:href="../../dd/de3/classchdr_1_1mazes_1_1grid_a264c48c1d975bf357e96edcb92331ad2.html#a264c48c1d975bf357e96edcb92331ad2" target="_top" xlink:title="Determines whether a cell at the given index is transitory.">
<polygon fill="white" stroke="#666666" points="199,-269 74,-269 74,-252 199,-252 199,-269"/>
<text text-anchor="middle" x="136.5" y="-258.6" font-family="Helvetica,sans-Serif" font-size="8.00">chdr::mazes::grid::is_transitory</text>
</a>
</g>
</g>
<!-- Node1&#45;&gt;Node10 -->
<g id="edge9_Node000001_Node000010" class="edge">
<title>Node1&#45;&gt;Node10</title>
<g id="a_edge9_Node000001_Node000010"><a xlink:title=" ">
<path fill="none" stroke="#63b8ff" d="M38.05,-244.47C47.86,-246.08 60.63,-248.18 73.67,-250.33"/>
<polygon fill="#63b8ff" stroke="#63b8ff" points="73.23,-253.8 83.66,-251.97 74.36,-246.9 73.23,-253.8"/>
</a>
</g>
</g>
<!-- Node11 -->
<g id="Node000011" class="node">
<title>Node11</title>
<g id="a_Node000011"><a xlink:href="../../d2/dcb/structchdr_1_1utils_a2287d696e022b9c172ac719c733627e3.html#a2287d696e022b9c172ac719c733627e3" target="_top" xlink:title="Returns the smaller of two values.">
<polygon fill="white" stroke="#666666" points="170.5,-157 102.5,-157 102.5,-140 170.5,-140 170.5,-157"/>
<text text-anchor="middle" x="136.5" y="-146.6" font-family="Helvetica,sans-Serif" font-size="8.00">chdr::utils::min</text>
</a>
</g>
</g>
<!-- Node1&#45;&gt;Node11 -->
<g id="edge12_Node000001_Node000011" class="edge">
<title>Node1&#45;&gt;Node11</title>
<g id="a_edge12_Node000001_Node000011"><a xlink:title=" ">
<path fill="none" stroke="#63b8ff" d="M24.49,-232.93C32.54,-218.35 50.78,-188.63 74,-171.5 79.67,-167.32 86.19,-163.81 92.81,-160.9"/>
<polygon fill="#63b8ff" stroke="#63b8ff" points="94.5,-164 102.51,-157.06 91.92,-157.49 94.5,-164"/>
</a>
</g>
</g>
<!-- Node12 -->
<g id="Node000012" class="node">
<title>Node12</title>
<g id="a_Node000012"><a xlink:href="../../db/dc9/classchdr_1_1stack_a312e7f6c761a199c1369fbe651e084f0.html#a312e7f6c761a199c1369fbe651e084f0" target="_top" xlink:title="Pops an element from the stack.">
<polygon fill="white" stroke="#666666" points="173,-122 100,-122 100,-105 173,-105 173,-122"/>
<text text-anchor="middle" x="136.5" y="-111.6" font-family="Helvetica,sans-Serif" font-size="8.00">chdr::stack::pop</text>
</a>
</g>
</g>
<!-- Node1&#45;&gt;Node12 -->
<g id="edge13_Node000001_Node000012" class="edge">
<title>Node1&#45;&gt;Node12</title>
<g id="a_edge13_Node000001_Node000012"><a xlink:title=" ">
<path fill="none" stroke="#63b8ff" d="M21.74,-232.88C26.36,-212.18 40.96,-159.31 74,-131.5 78.69,-127.55 84.21,-124.47 89.98,-122.07"/>
<polygon fill="#63b8ff" stroke="#63b8ff" points="91.56,-125.22 99.84,-118.62 89.25,-118.62 91.56,-125.22"/>
</a>
</g>
</g>
<!-- Node13 -->
<g id="Node000013" class="node">
<title>Node13</title>
<g id="a_Node000013"><a xlink:href="../../dd/de3/classchdr_1_1mazes_1_1grid_a32d34adb7833cb15aa705c6c7ada57a8.html#a32d34adb7833cb15aa705c6c7ada57a8" target="_top" xlink:title="Retrieves the size of the grid.">
<polygon fill="white" stroke="#666666" points="184.5,-87 88.5,-87 88.5,-70 184.5,-70 184.5,-87"/>
<text text-anchor="middle" x="136.5" y="-76.6" font-family="Helvetica,sans-Serif" font-size="8.00">chdr::mazes::grid::size</text>
</a>
</g>
</g>
<!-- Node1&#45;&gt;Node13 -->
<g id="edge15_Node000001_Node000013" class="edge">
<title>Node1&#45;&gt;Node13</title>
<g id="a_edge15_Node000001_Node000013"><a xlink:title=" ">
<path fill="none" stroke="#63b8ff" d="M20.6,-232.86C22.82,-207.88 32.71,-134.93 74,-96.5 75.72,-94.9 77.58,-93.44 79.53,-92.11"/>
<polygon fill="#63b8ff" stroke="#63b8ff" points="81.59,-94.97 88.65,-87.07 78.2,-88.84 81.59,-94.97"/>
</a>
</g>
</g>
<!-- Node14 -->
<g id="Node000014" class="node">
<title>Node14</title>
<g id="a_Node000014"><a xlink:href="../../d2/dcb/structchdr_1_1utils_a5741e93a4c4f5630e7c86bda862cf611.html#a5741e93a4c4f5630e7c86bda862cf611" target="_top" xlink:title="Maps a multidimensional index to a one&#45;dimensional array index.">
<polygon fill="white" stroke="#666666" points="174,-52 99,-52 99,-35 174,-35 174,-52"/>
<text text-anchor="middle" x="136.5" y="-41.6" font-family="Helvetica,sans-Serif" font-size="8.00">chdr::utils::to_1d</text>
</a>
</g>
</g>
<!-- Node1&#45;&gt;Node14 -->
<g id="edge16_Node000001_Node000014" class="edge">
<title>Node1&#45;&gt;Node14</title>
<g id="a_edge16_Node000001_Node000014"><a xlink:title=" ">
<path fill="none" stroke="#63b8ff" d="M19.88,-232.93C19.97,-204.29 24.23,-110.93 74,-61.5 78.3,-57.23 83.55,-53.96 89.16,-51.46"/>
<polygon fill="#63b8ff" stroke="#63b8ff" points="90.62,-54.66 98.82,-47.94 88.22,-48.08 90.62,-54.66"/>
</a>
</g>
</g>
<!-- Node15 -->
<g id="Node000015" class="node">
<title>Node15</title>
<g id="a_Node000015"><a xlink:href="../../db/dc9/classchdr_1_1stack_a20a753362275d34a67d855ce0105fab7.html#a20a753362275d34a67d855ce0105fab7" target="_top" xlink:title="Provides access to the top element of the stack.">
<polygon fill="white" stroke="#666666" points="172,-17 101,-17 101,0 172,0 172,-17"/>
<text text-anchor="middle" x="136.5" y="-6.6" font-family="Helvetica,sans-Serif" font-size="8.00">chdr::stack::top</text>
</a>
</g>
</g>
<!-- Node1&#45;&gt;Node15 -->
<g id="edge17_Node000001_Node000015" class="edge">
<title>Node1&#45;&gt;Node15</title>
<g id="a_edge17_Node000001_Node000015"><a xlink:title=" ">
<path fill="none" stroke="#63b8ff" d="M21.02,-232.71C25.43,-196.09 44.04,-56.21 74,-25.5 78.78,-20.6 84.84,-17.07 91.28,-14.54"/>
<polygon fill="#63b8ff" stroke="#63b8ff" points="92.4,-17.86 100.88,-11.51 90.29,-11.19 92.4,-17.86"/>
</a>
</g>
</g>
<!-- Node10&#45;&gt;Node6 -->
<g id="edge10_Node000010_Node000006" class="edge">
<title>Node10&#45;&gt;Node6</title>
<g id="a_edge10_Node000010_Node000006"><a xlink:title=" ">
<path fill="none" stroke="#63b8ff" d="M176.72,-269.03C199.82,-274.06 229.26,-280.46 253.89,-285.82"/>
<polygon fill="#63b8ff" stroke="#63b8ff" points="253.26,-289.26 263.77,-287.97 254.75,-282.42 253.26,-289.26"/>
</a>
</g>
</g>
<!-- Node10&#45;&gt;Node9 -->
<g id="edge11_Node000010_Node000009" class="edge">
<title>Node10&#45;&gt;Node9</title>
<g id="a_edge11_Node000010_Node000009"><a xlink:title=" ">
<path fill="none" stroke="#63b8ff" d="M199.13,-253.43C207.52,-252.46 216.21,-251.46 224.85,-250.47"/>
<polygon fill="#63b8ff" stroke="#63b8ff" points="225.39,-253.93 234.93,-249.31 224.59,-246.98 225.39,-253.93"/>
</a>
</g>
</g>
<!-- Node12&#45;&gt;Node8 -->
<g id="edge14_Node000012_Node000008" class="edge">
<title>Node12&#45;&gt;Node8</title>
<g id="a_edge14_Node000012_Node000008"><a xlink:title=" ">
<path fill="none" stroke="#63b8ff" d="M173,-113.5C196.48,-113.5 227.59,-113.5 253.49,-113.5"/>
<polygon fill="#63b8ff" stroke="#63b8ff" points="253.5,-117 263.5,-113.5 253.5,-110 253.5,-117"/>
</a>
</g>
</g>
<!-- Node15&#45;&gt;Node8 -->
<g id="edge18_Node000015_Node000008" class="edge">
<title>Node15&#45;&gt;Node8</title>
<g id="a_edge18_Node000015_Node000008"><a xlink:title=" ">
<path fill="none" stroke="#63b8ff" d="M172.02,-15.24C181.1,-17.75 190.67,-21.1 199,-25.5 235.03,-44.53 269.66,-77.8 288.46,-97.52"/>
<polygon fill="#63b8ff" stroke="#63b8ff" points="285.91,-99.92 295.29,-104.83 291.02,-95.14 285.91,-99.92"/>
</a>
</g>
</g>
</g>
</svg>
