<?xml version="1.0" encoding="UTF-8" standalone="no"?>
<!DOCTYPE svg PUBLIC "-//W3C//DTD SVG 1.1//EN"
 "http://www.w3.org/Graphics/SVG/1.1/DTD/svg11.dtd">
<!-- Generated by graphviz version 2.42.4 (0)
 -->
<!-- Title: graph Pages: 1 -->
<svg width="370pt" height="383pt"
 viewBox="0.00 0.00 370.00 383.00" xmlns="http://www.w3.org/2000/svg" xmlns:xlink="http://www.w3.org/1999/xlink">
<g id="graph0" class="graph" transform="scale(1 1) rotate(0) translate(4 379)">
<title>graph</title>
<!-- Node1 -->
<g id="Node000001" class="node">
<title>Node1</title>
<g id="a_Node000001"><a xlink:title="Constructs a graph instance from a grid structure.">
<polygon fill="#999999" stroke="#666666" points="38,-196 0,-196 0,-179 38,-179 38,-196"/>
<text text-anchor="middle" x="19" y="-185.6" font-family="Helvetica,sans-Serif" font-size="8.00">graph</text>
</a>
</g>
</g>
<!-- Node2 -->
<g id="Node000002" class="node">
<title>Node2</title>
<g id="a_Node000002"><a xlink:href="../../d9/dcb/classchdr_1_1mazes_1_1graph_ab41a4e064828273b133921f8d05a7540.html#ab41a4e064828273b133921f8d05a7540" target="_top" xlink:title="Adds a new vertex to the graph with the specified identifier.">
<polygon fill="white" stroke="#666666" points="133.5,-375 103.5,-375 103.5,-358 133.5,-358 133.5,-375"/>
<text text-anchor="middle" x="118.5" y="-364.6" font-family="Helvetica,sans-Serif" font-size="8.00">add</text>
</a>
</g>
</g>
<!-- Node1&#45;&gt;Node2 -->
<g id="edge1_Node000001_Node000002" class="edge">
<title>Node1&#45;&gt;Node2</title>
<g id="a_edge1_Node000001_Node000002"><a xlink:title=" ">
<path fill="none" stroke="#63b8ff" d="M20.77,-196.01C23.48,-221.38 34.64,-297.59 74,-343.5 79.28,-349.65 86.62,-354.4 93.77,-357.95"/>
<polygon fill="#63b8ff" stroke="#63b8ff" points="92.62,-361.27 103.18,-362.05 95.41,-354.85 92.62,-361.27"/>
</a>
</g>
</g>
<!-- Node3 -->
<g id="Node000003" class="node">
<title>Node3</title>
<g id="a_Node000003"><a xlink:href="../../d9/dcb/classchdr_1_1mazes_1_1graph_abe2a6e079551372e0ed654c8f6562002.html#abe2a6e079551372e0ed654c8f6562002" target="_top" xlink:title=" ">
<polygon fill="white" stroke="#666666" points="275.5,-356 203.5,-356 203.5,-339 275.5,-339 275.5,-356"/>
<text text-anchor="middle" x="239.5" y="-345.6" font-family="Helvetica,sans-Serif" font-size="8.00">get_neighbours</text>
</a>
</g>
</g>
<!-- Node1&#45;&gt;Node3 -->
<g id="edge11_Node000001_Node000003" class="edge">
<title>Node1&#45;&gt;Node3</title>
<g id="a_edge11_Node000001_Node000003"><a xlink:title=" ">
<path fill="none" stroke="#63b8ff" d="M21.13,-196.25C24.55,-218.92 36.92,-279.95 74,-310.5 107.41,-338.03 157.12,-346.1 193.15,-348.01"/>
<polygon fill="#63b8ff" stroke="#63b8ff" points="193.26,-351.51 203.39,-348.4 193.53,-344.52 193.26,-351.51"/>
</a>
</g>
</g>
<!-- Node5 -->
<g id="Node000005" class="node">
<title>Node5</title>
<g id="a_Node000005"><a xlink:href="../../d2/dcb/structchdr_1_1utils_a81ba0122d283ec87be2676092c872a52.html#a81ba0122d283ec87be2676092c872a52" target="_top" xlink:title="Constrains a value to lie within a specified range.">
<polygon fill="white" stroke="#666666" points="156.5,-301 80.5,-301 80.5,-284 156.5,-284 156.5,-301"/>
<text text-anchor="middle" x="118.5" y="-290.6" font-family="Helvetica,sans-Serif" font-size="8.00">chdr::utils::clamp</text>
</a>
</g>
</g>
<!-- Node1&#45;&gt;Node5 -->
<g id="edge6_Node000001_Node000005" class="edge">
<title>Node1&#45;&gt;Node5</title>
<g id="a_edge6_Node000001_Node000005"><a xlink:title=" ">
<path fill="none" stroke="#63b8ff" d="M23.07,-196.02C29.71,-213.35 47.05,-252.96 74,-275.5 75.54,-276.79 77.19,-277.98 78.91,-279.1"/>
<polygon fill="#63b8ff" stroke="#63b8ff" points="77.5,-282.32 87.97,-283.98 80.83,-276.15 77.5,-282.32"/>
</a>
</g>
</g>
<!-- Node6 -->
<g id="Node000006" class="node">
<title>Node6</title>
<g id="a_Node000006"><a xlink:href="../../db/dc9/classchdr_1_1stack_ac8bb3912a3ce86b15842e79d0b421204.html#ac8bb3912a3ce86b15842e79d0b421204" target="_top" xlink:title="Clears all elements from the stack.">
<polygon fill="white" stroke="#666666" points="157,-266 80,-266 80,-249 157,-249 157,-266"/>
<text text-anchor="middle" x="118.5" y="-255.6" font-family="Helvetica,sans-Serif" font-size="8.00">chdr::stack::clear</text>
</a>
</g>
</g>
<!-- Node1&#45;&gt;Node6 -->
<g id="edge7_Node000001_Node000006" class="edge">
<title>Node1&#45;&gt;Node6</title>
<g id="a_edge7_Node000001_Node000006"><a xlink:title=" ">
<path fill="none" stroke="#63b8ff" d="M26.84,-196.11C36.35,-207.6 54.59,-227.94 74,-240.5 76.28,-241.98 78.71,-243.36 81.21,-244.64"/>
<polygon fill="#63b8ff" stroke="#63b8ff" points="79.89,-247.89 90.44,-248.88 82.81,-241.53 79.89,-247.89"/>
</a>
</g>
</g>
<!-- Node7 -->
<g id="Node000007" class="node">
<title>Node7</title>
<g id="a_Node000007"><a xlink:href="../../d9/dcb/classchdr_1_1mazes_1_1graph_ad6077e456dd6abb62d82087b55dc2331.html#ad6077e456dd6abb62d82087b55dc2331" target="_top" xlink:title="Returns the total number of vertices in the graph.">
<polygon fill="white" stroke="#666666" points="136.5,-231 100.5,-231 100.5,-214 136.5,-214 136.5,-231"/>
<text text-anchor="middle" x="118.5" y="-220.6" font-family="Helvetica,sans-Serif" font-size="8.00">count</text>
</a>
</g>
</g>
<!-- Node1&#45;&gt;Node7 -->
<g id="edge8_Node000001_Node000007" class="edge">
<title>Node1&#45;&gt;Node7</title>
<g id="a_edge8_Node000001_Node000007"><a xlink:title=" ">
<path fill="none" stroke="#63b8ff" d="M38.34,-194.08C53.05,-199.36 73.91,-206.85 90.52,-212.82"/>
<polygon fill="#63b8ff" stroke="#63b8ff" points="89.63,-216.21 100.23,-216.3 92,-209.63 89.63,-216.21"/>
</a>
</g>
</g>
<!-- Node8 -->
<g id="Node000008" class="node">
<title>Node8</title>
<g id="a_Node000008"><a xlink:href="../../db/dc9/classchdr_1_1stack_add55c8b8d3e3d6419e57210d3313fd09.html#add55c8b8d3e3d6419e57210d3313fd09" target="_top" xlink:title="Constructs an element in place, adding it to the stack.">
<polygon fill="white" stroke="#666666" points="163,-196 74,-196 74,-179 163,-179 163,-196"/>
<text text-anchor="middle" x="118.5" y="-185.6" font-family="Helvetica,sans-Serif" font-size="8.00">chdr::stack::emplace</text>
</a>
</g>
</g>
<!-- Node1&#45;&gt;Node8 -->
<g id="edge9_Node000001_Node000008" class="edge">
<title>Node1&#45;&gt;Node8</title>
<g id="a_edge9_Node000001_Node000008"><a xlink:title=" ">
<path fill="none" stroke="#63b8ff" d="M38.34,-187.5C45.63,-187.5 54.44,-187.5 63.49,-187.5"/>
<polygon fill="#63b8ff" stroke="#63b8ff" points="63.75,-191 73.75,-187.5 63.75,-184 63.75,-191"/>
</a>
</g>
</g>
<!-- Node9 -->
<g id="Node000009" class="node">
<title>Node9</title>
<g id="a_Node000009"><a xlink:href="../../db/dc9/classchdr_1_1stack_a3f6fc5de06a318920d84f3c3742db07f.html#a3f6fc5de06a318920d84f3c3742db07f" target="_top" xlink:title="Checks if the stack is empty.">
<polygon fill="white" stroke="#666666" points="280,-87 199,-87 199,-70 280,-70 280,-87"/>
<text text-anchor="middle" x="239.5" y="-76.6" font-family="Helvetica,sans-Serif" font-size="8.00">chdr::stack::empty</text>
</a>
</g>
</g>
<!-- Node1&#45;&gt;Node9 -->
<g id="edge10_Node000001_Node000009" class="edge">
<title>Node1&#45;&gt;Node9</title>
<g id="a_edge10_Node000001_Node000009"><a xlink:title=" ">
<path fill="none" stroke="#63b8ff" d="M38.22,-181.92C66.01,-173.07 120.25,-154.45 163,-131.5 183.52,-120.48 205.1,-104.88 219.9,-93.45"/>
<polygon fill="#63b8ff" stroke="#63b8ff" points="222.07,-96.2 227.78,-87.27 217.75,-90.69 222.07,-96.2"/>
</a>
</g>
</g>
<!-- Node10 -->
<g id="Node000010" class="node">
<title>Node10</title>
<g id="a_Node000010"><a xlink:href="../../d2/dcb/structchdr_1_1utils_a2287d696e022b9c172ac719c733627e3.html#a2287d696e022b9c172ac719c733627e3" target="_top" xlink:title="Returns the smaller of two values.">
<polygon fill="white" stroke="#666666" points="152.5,-122 84.5,-122 84.5,-105 152.5,-105 152.5,-122"/>
<text text-anchor="middle" x="118.5" y="-111.6" font-family="Helvetica,sans-Serif" font-size="8.00">chdr::utils::min</text>
</a>
</g>
</g>
<!-- Node1&#45;&gt;Node10 -->
<g id="edge12_Node000001_Node000010" class="edge">
<title>Node1&#45;&gt;Node10</title>
<g id="a_edge12_Node000001_Node000010"><a xlink:title=" ">
<path fill="none" stroke="#63b8ff" d="M27.8,-178.8C37.79,-168 55.97,-149.42 74,-136.5 78.89,-132.99 84.39,-129.68 89.79,-126.71"/>
<polygon fill="#63b8ff" stroke="#63b8ff" points="91.41,-129.81 98.65,-122.07 88.16,-123.61 91.41,-129.81"/>
</a>
</g>
</g>
<!-- Node11 -->
<g id="Node000011" class="node">
<title>Node11</title>
<g id="a_Node000011"><a xlink:href="../../db/dc9/classchdr_1_1stack_a312e7f6c761a199c1369fbe651e084f0.html#a312e7f6c761a199c1369fbe651e084f0" target="_top" xlink:title="Pops an element from the stack.">
<polygon fill="white" stroke="#666666" points="155,-87 82,-87 82,-70 155,-70 155,-87"/>
<text text-anchor="middle" x="118.5" y="-76.6" font-family="Helvetica,sans-Serif" font-size="8.00">chdr::stack::pop</text>
</a>
</g>
</g>
<!-- Node1&#45;&gt;Node11 -->
<g id="edge13_Node000001_Node000011" class="edge">
<title>Node1&#45;&gt;Node11</title>
<g id="a_edge13_Node000001_Node000011"><a xlink:title=" ">
<path fill="none" stroke="#63b8ff" d="M23.02,-178.73C29.59,-160.89 46.78,-120.07 74,-96.5 75.95,-94.81 78.07,-93.27 80.3,-91.86"/>
<polygon fill="#63b8ff" stroke="#63b8ff" points="82.11,-94.86 89.28,-87.06 78.81,-88.69 82.11,-94.86"/>
</a>
</g>
</g>
<!-- Node12 -->
<g id="Node000012" class="node">
<title>Node12</title>
<g id="a_Node000012"><a xlink:href="../../d2/dcb/structchdr_1_1utils_a5741e93a4c4f5630e7c86bda862cf611.html#a5741e93a4c4f5630e7c86bda862cf611" target="_top" xlink:title="Maps a multidimensional index to a one&#45;dimensional array index.">
<polygon fill="white" stroke="#666666" points="156,-52 81,-52 81,-35 156,-35 156,-52"/>
<text text-anchor="middle" x="118.5" y="-41.6" font-family="Helvetica,sans-Serif" font-size="8.00">chdr::utils::to_1d</text>
</a>
</g>
</g>
<!-- Node1&#45;&gt;Node12 -->
<g id="edge15_Node000001_Node000012" class="edge">
<title>Node1&#45;&gt;Node12</title>
<g id="a_edge15_Node000001_Node000012"><a xlink:title=" ">
<path fill="none" stroke="#63b8ff" d="M21.38,-178.9C25.41,-156.54 39.12,-95.95 74,-61.5 75.61,-59.91 77.37,-58.46 79.25,-57.13"/>
<polygon fill="#63b8ff" stroke="#63b8ff" points="81.09,-60.1 87.98,-52.05 77.57,-54.05 81.09,-60.1"/>
</a>
</g>
</g>
<!-- Node13 -->
<g id="Node000013" class="node">
<title>Node13</title>
<g id="a_Node000013"><a xlink:href="../../db/dc9/classchdr_1_1stack_a20a753362275d34a67d855ce0105fab7.html#a20a753362275d34a67d855ce0105fab7" target="_top" xlink:title="Provides access to the top element of the stack.">
<polygon fill="white" stroke="#666666" points="154,-17 83,-17 83,0 154,0 154,-17"/>
<text text-anchor="middle" x="118.5" y="-6.6" font-family="Helvetica,sans-Serif" font-size="8.00">chdr::stack::top</text>
</a>
</g>
</g>
<!-- Node1&#45;&gt;Node13 -->
<g id="edge16_Node000001_Node000013" class="edge">
<title>Node1&#45;&gt;Node13</title>
<g id="a_edge16_Node000001_Node000013"><a xlink:title=" ">
<path fill="none" stroke="#63b8ff" d="M20.4,-178.83C22.08,-152.26 30.7,-71.06 74,-25.5 74.91,-24.54 75.88,-23.64 76.9,-22.78"/>
<polygon fill="#63b8ff" stroke="#63b8ff" points="79.05,-25.56 85.5,-17.16 75.22,-19.7 79.05,-25.56"/>
</a>
</g>
</g>
<!-- Node2&#45;&gt;Node3 -->
<g id="edge2_Node000002_Node000003" class="edge">
<title>Node2&#45;&gt;Node3</title>
<g id="a_edge2_Node000002_Node000003"><a xlink:title=" ">
<path fill="none" stroke="#63b8ff" d="M133.62,-364.25C148.27,-361.91 171.97,-358.12 193.14,-354.74"/>
<polygon fill="#63b8ff" stroke="#63b8ff" points="193.95,-358.16 203.28,-353.12 192.85,-351.24 193.95,-358.16"/>
</a>
</g>
</g>
<!-- Node3&#45;&gt;Node3 -->
<g id="edge5_Node000003_Node000003" class="edge">
<title>Node3&#45;&gt;Node3</title>
<g id="a_edge5_Node000003_Node000003"><a xlink:title=" ">
<path fill="none" stroke="#63b8ff" d="M224.9,-356.19C216.83,-364.67 221.7,-374 239.5,-374 250.63,-374 256.7,-370.36 257.72,-365.55"/>
<polygon fill="#63b8ff" stroke="#63b8ff" points="260.97,-364.25 254.1,-356.19 254.44,-366.78 260.97,-364.25"/>
</a>
</g>
</g>
<!-- Node4 -->
<g id="Node000004" class="node">
<title>Node4</title>
<g id="a_Node000004"><a xlink:href="../../d9/dcb/classchdr_1_1mazes_1_1graph_ab276ef23dd28f7f3f6a804f7a958141d.html#ab276ef23dd28f7f3f6a804f7a958141d" target="_top" xlink:title=" ">
<polygon fill="white" stroke="#666666" points="362,-356 316,-356 316,-339 362,-339 362,-356"/>
<text text-anchor="middle" x="339" y="-345.6" font-family="Helvetica,sans-Serif" font-size="8.00">contains</text>
</a>
</g>
</g>
<!-- Node3&#45;&gt;Node4 -->
<g id="edge3_Node000003_Node000004" class="edge">
<title>Node3&#45;&gt;Node4</title>
<g id="a_edge3_Node000003_Node000004"><a xlink:title=" ">
<path fill="none" stroke="#63b8ff" d="M275.7,-340.99C285.55,-340.63 296.21,-340.68 305.88,-341.11"/>
<polygon fill="#63b8ff" stroke="#63b8ff" points="305.69,-344.61 315.89,-341.74 306.13,-337.62 305.69,-344.61"/>
</a>
</g>
</g>
<!-- Node4&#45;&gt;Node3 -->
<g id="edge4_Node000004_Node000003" class="edge">
<title>Node4&#45;&gt;Node3</title>
<g id="a_edge4_Node000004_Node000003"><a xlink:title=" ">
<path fill="none" stroke="#63b8ff" d="M315.89,-353.26C306.99,-354 296.38,-354.32 285.97,-354.24"/>
<polygon fill="#63b8ff" stroke="#63b8ff" points="285.77,-350.73 275.7,-354.01 285.62,-357.73 285.77,-350.73"/>
</a>
</g>
</g>
<!-- Node11&#45;&gt;Node9 -->
<g id="edge14_Node000011_Node000009" class="edge">
<title>Node11&#45;&gt;Node9</title>
<g id="a_edge14_Node000011_Node000009"><a xlink:title=" ">
<path fill="none" stroke="#63b8ff" d="M155.2,-78.5C165.69,-78.5 177.35,-78.5 188.55,-78.5"/>
<polygon fill="#63b8ff" stroke="#63b8ff" points="188.66,-82 198.66,-78.5 188.66,-75 188.66,-82"/>
</a>
</g>
</g>
<!-- Node13&#45;&gt;Node9 -->
<g id="edge17_Node000013_Node000009" class="edge">
<title>Node13&#45;&gt;Node9</title>
<g id="a_edge17_Node000013_Node000009"><a xlink:title=" ">
<path fill="none" stroke="#63b8ff" d="M144.35,-17.03C150.57,-19.48 157.14,-22.36 163,-25.5 183.53,-36.51 205.1,-52.12 219.91,-63.55"/>
<polygon fill="#63b8ff" stroke="#63b8ff" points="217.75,-66.31 227.78,-69.72 222.07,-60.8 217.75,-66.31"/>
</a>
</g>
</g>
</g>
</svg>
