<?xml version="1.0" encoding="UTF-8" standalone="no"?>
<!DOCTYPE svg PUBLIC "-//W3C//DTD SVG 1.1//EN"
 "http://www.w3.org/Graphics/SVG/1.1/DTD/svg11.dtd">
<!-- Generated by graphviz version 2.43.0 (0)
 -->
<!-- Title: add Pages: 1 -->
<svg width="112pt" height="60pt"
 viewBox="0.00 0.00 112.00 60.00" xmlns="http://www.w3.org/2000/svg" xmlns:xlink="http://www.w3.org/1999/xlink">
<g id="graph0" class="graph" transform="scale(1 1) rotate(0) translate(4 56)">
<title>add</title>
<!-- Node1 -->
<g id="Node000001" class="node">
<title>Node1</title>
<g id="a_Node000001"><a xlink:title="Adds a new vertex to the graph with the specified identifier.">
<polygon fill="#999999" stroke="#666666" points="104,-34 74,-34 74,-17 104,-17 104,-34"/>
<text text-anchor="middle" x="89" y="-23.6" font-family="Helvetica,sans-Serif" font-size="8.00">add</text>
</a>
</g>
</g>
<!-- Node2 -->
<g id="Node000002" class="node">
<title>Node2</title>
<g id="a_Node000002"><a xlink:href="../../d9/dcb/classchdr_1_1mazes_1_1graph_a5ca1351a03df5ff49f85cc4b5669cefc.html#a5ca1351a03df5ff49f85cc4b5669cefc" target="_top" xlink:title="Constructs a graph instance from a grid structure.">
<polygon fill="white" stroke="#666666" points="38,-52 0,-52 0,-35 38,-35 38,-52"/>
<text text-anchor="middle" x="19" y="-41.6" font-family="Helvetica,sans-Serif" font-size="8.00">graph</text>
</a>
</g>
</g>
<!-- Node1&#45;&gt;Node2 -->
<g id="edge1_Node000001_Node000002" class="edge">
<title>Node1&#45;&gt;Node2</title>
<g id="a_edge1_Node000001_Node000002"><a xlink:title=" ">
<path fill="none" stroke="#63b8ff" d="M64.15,-31.81C55.63,-34.07 46.18,-36.57 38.21,-38.68"/>
<polygon fill="#63b8ff" stroke="#63b8ff" points="65.14,-35.17 73.91,-29.23 63.35,-28.41 65.14,-35.17"/>
</a>
</g>
</g>
<!-- Node3 -->
<g id="Node000003" class="node">
<title>Node3</title>
<g id="a_Node000003"><a xlink:href="../../d9/dcb/classchdr_1_1mazes_1_1graph_a9c5fa6f424fe23ab89d383a1f8f78b02.html#a9c5fa6f424fe23ab89d383a1f8f78b02" target="_top" xlink:title="Constructs a graph instance from an adjacency list.">
<polygon fill="white" stroke="#666666" points="38,-17 0,-17 0,0 38,0 38,-17"/>
<text text-anchor="middle" x="19" y="-6.6" font-family="Helvetica,sans-Serif" font-size="8.00">graph</text>
</a>
</g>
</g>
<!-- Node1&#45;&gt;Node3 -->
<g id="edge2_Node000001_Node000003" class="edge">
<title>Node1&#45;&gt;Node3</title>
<g id="a_edge2_Node000001_Node000003"><a xlink:title=" ">
<path fill="none" stroke="#63b8ff" d="M64.15,-19.54C55.63,-17.41 46.18,-15.04 38.21,-13.05"/>
<polygon fill="#63b8ff" stroke="#63b8ff" points="63.36,-22.95 73.91,-21.98 65.06,-16.16 63.36,-22.95"/>
</a>
</g>
</g>
</g>
</svg>
