<?xml version="1.0" encoding="UTF-8" standalone="no"?>
<!DOCTYPE svg PUBLIC "-//W3C//DTD SVG 1.1//EN"
 "http://www.w3.org/Graphics/SVG/1.1/DTD/svg11.dtd">
<!-- Generated by graphviz version 2.42.4 (0)
 -->
<!-- Title: remove Pages: 1 -->
<svg width="242pt" height="62pt"
 viewBox="0.00 0.00 242.00 62.00" xmlns="http://www.w3.org/2000/svg" xmlns:xlink="http://www.w3.org/1999/xlink">
<g id="graph0" class="graph" transform="scale(1 1) rotate(0) translate(4 58)">
<title>remove</title>
<!-- Node1 -->
<g id="Node000001" class="node">
<title>Node1</title>
<g id="a_Node000001"><a xlink:title=" ">
<polygon fill="#999999" stroke="#666666" points="44,-17 0,-17 0,0 44,0 44,-17"/>
<text text-anchor="middle" x="22" y="-6.6" font-family="Helvetica,sans-Serif" font-size="8.00">remove</text>
</a>
</g>
</g>
<!-- Node2 -->
<g id="Node000002" class="node">
<title>Node2</title>
<g id="a_Node000002"><a xlink:href="../../d9/dcb/classchdr_1_1mazes_1_1graph_ab276ef23dd28f7f3f6a804f7a958141d.html#ab276ef23dd28f7f3f6a804f7a958141d" target="_top" xlink:title=" ">
<polygon fill="white" stroke="#666666" points="126,-36 80,-36 80,-19 126,-19 126,-36"/>
<text text-anchor="middle" x="103" y="-25.6" font-family="Helvetica,sans-Serif" font-size="8.00">contains</text>
</a>
</g>
</g>
<!-- Node1&#45;&gt;Node2 -->
<g id="edge1_Node000001_Node000002" class="edge">
<title>Node1&#45;&gt;Node2</title>
<g id="a_edge1_Node000001_Node000002"><a xlink:title=" ">
<path fill="none" stroke="#63b8ff" d="M44.17,-13.59C52.12,-15.5 61.34,-17.72 70.06,-19.82"/>
<polygon fill="#63b8ff" stroke="#63b8ff" points="69.4,-23.26 79.94,-22.2 71.04,-16.45 69.4,-23.26"/>
</a>
</g>
</g>
<!-- Node3 -->
<g id="Node000003" class="node">
<title>Node3</title>
<g id="a_Node000003"><a xlink:href="../../d9/dcb/classchdr_1_1mazes_1_1graph_abe2a6e079551372e0ed654c8f6562002.html#abe2a6e079551372e0ed654c8f6562002" target="_top" xlink:title=" ">
<polygon fill="white" stroke="#666666" points="234,-36 162,-36 162,-19 234,-19 234,-36"/>
<text text-anchor="middle" x="198" y="-25.6" font-family="Helvetica,sans-Serif" font-size="8.00">get_neighbours</text>
</a>
</g>
</g>
<!-- Node1&#45;&gt;Node3 -->
<g id="edge5_Node000001_Node000003" class="edge">
<title>Node1&#45;&gt;Node3</title>
<g id="a_edge5_Node000001_Node000003"><a xlink:title=" ">
<path fill="none" stroke="#63b8ff" d="M44.01,-7.59C64.89,-6.99 97.79,-6.89 126,-10.5 136.37,-11.83 147.43,-14.06 157.66,-16.49"/>
<polygon fill="#63b8ff" stroke="#63b8ff" points="157.01,-19.93 167.56,-18.94 158.69,-13.14 157.01,-19.93"/>
</a>
</g>
</g>
<!-- Node2&#45;&gt;Node3 -->
<g id="edge2_Node000002_Node000003" class="edge">
<title>Node2&#45;&gt;Node3</title>
<g id="a_edge2_Node000002_Node000003"><a xlink:title=" ">
<path fill="none" stroke="#63b8ff" d="M126.04,-21.66C133.68,-21.03 142.56,-20.73 151.39,-20.75"/>
<polygon fill="#63b8ff" stroke="#63b8ff" points="151.61,-24.26 161.67,-20.93 151.73,-17.26 151.61,-24.26"/>
</a>
</g>
</g>
<!-- Node3&#45;&gt;Node2 -->
<g id="edge3_Node000003_Node000002" class="edge">
<title>Node3&#45;&gt;Node2</title>
<g id="a_edge3_Node000003_Node000002"><a xlink:title=" ">
<path fill="none" stroke="#63b8ff" d="M161.67,-34.07C153.25,-34.34 144.31,-34.3 136.05,-33.95"/>
<polygon fill="#63b8ff" stroke="#63b8ff" points="136.23,-30.46 126.04,-33.34 135.81,-37.44 136.23,-30.46"/>
</a>
</g>
</g>
<!-- Node3&#45;&gt;Node3 -->
<g id="edge4_Node000003_Node000003" class="edge">
<title>Node3&#45;&gt;Node3</title>
<g id="a_edge4_Node000003_Node000003"><a xlink:title=" ">
<path fill="none" stroke="#63b8ff" d="M183.99,-36.19C176.26,-44.67 180.93,-54 198,-54 208.4,-54 214.2,-50.54 215.39,-45.91"/>
<polygon fill="#63b8ff" stroke="#63b8ff" points="218.6,-44.48 212.01,-36.19 211.99,-46.78 218.6,-44.48"/>
</a>
</g>
</g>
</g>
</svg>
