<?xml version="1.0" encoding="UTF-8" standalone="no"?>
<!DOCTYPE svg PUBLIC "-//W3C//DTD SVG 1.1//EN"
 "http://www.w3.org/Graphics/SVG/1.1/DTD/svg11.dtd">
<!-- Generated by graphviz version 2.43.0 (0)
 -->
<!-- Title: graph Pages: 1 -->
<svg width="381pt" height="408pt"
 viewBox="0.00 0.00 381.00 408.00" xmlns="http://www.w3.org/2000/svg" xmlns:xlink="http://www.w3.org/1999/xlink">
<g id="graph0" class="graph" transform="scale(1 1) rotate(0) translate(4 404)">
<title>graph</title>
<!-- Node1 -->
<g id="Node000001" class="node">
<title>Node1</title>
<g id="a_Node000001"><a xlink:title="Constructs a graph instance from a grid structure.">
<polygon fill="#999999" stroke="#666666" points="38,-199 0,-199 0,-182 38,-182 38,-199"/>
<text text-anchor="middle" x="19" y="-188.6" font-family="Helvetica,sans-Serif" font-size="8.00">graph</text>
</a>
</g>
</g>
<!-- Node2 -->
<g id="Node000002" class="node">
<title>Node2</title>
<g id="a_Node000002"><a xlink:href="../../d9/dcb/classchdr_1_1mazes_1_1graph_ab41a4e064828273b133921f8d05a7540.html#ab41a4e064828273b133921f8d05a7540" target="_top" xlink:title="Adds a new vertex to the graph with the specified identifier.">
<polygon fill="white" stroke="#666666" points="151.5,-400 121.5,-400 121.5,-383 151.5,-383 151.5,-400"/>
<text text-anchor="middle" x="136.5" y="-389.6" font-family="Helvetica,sans-Serif" font-size="8.00">add</text>
</a>
</g>
</g>
<!-- Node1&#45;&gt;Node2 -->
<g id="edge1_Node000001_Node000002" class="edge">
<title>Node1&#45;&gt;Node2</title>
<g id="a_edge1_Node000001_Node000002"><a xlink:title=" ">
<path fill="none" stroke="#63b8ff" d="M19.79,-199.28C19.57,-228.63 22.99,-324.29 74,-374.5 83.87,-384.21 98.76,-388.49 111.42,-390.33"/>
<polygon fill="#63b8ff" stroke="#63b8ff" points="111.06,-393.81 121.37,-391.37 111.79,-386.85 111.06,-393.81"/>
</a>
</g>
</g>
<!-- Node3 -->
<g id="Node000003" class="node">
<title>Node3</title>
<g id="a_Node000003"><a xlink:href="../../dd/de3/classchdr_1_1mazes_1_1grid_a2c953e28d925a8042220b3abe9023479.html#a2c953e28d925a8042220b3abe9023479" target="_top" xlink:title="Retrieves the node at a specified coordinate.">
<polygon fill="white" stroke="#666666" points="181,-347 92,-347 92,-330 181,-330 181,-347"/>
<text text-anchor="middle" x="136.5" y="-336.6" font-family="Helvetica,sans-Serif" font-size="8.00">chdr::mazes::grid::at</text>
</a>
</g>
</g>
<!-- Node1&#45;&gt;Node3 -->
<g id="edge2_Node000001_Node000003" class="edge">
<title>Node1&#45;&gt;Node3</title>
<g id="a_edge2_Node000001_Node000003"><a xlink:title=" ">
<path fill="none" stroke="#63b8ff" d="M21.34,-199.1C25.25,-221.45 38.72,-281.94 74,-315.5 78.34,-319.63 83.49,-323.03 88.93,-325.83"/>
<polygon fill="#63b8ff" stroke="#63b8ff" points="87.72,-329.12 98.27,-330 90.57,-322.73 87.72,-329.12"/>
</a>
</g>
</g>
<!-- Node4 -->
<g id="Node000004" class="node">
<title>Node4</title>
<g id="a_Node000004"><a xlink:href="../../d2/dcb/structchdr_1_1utils_a5741e93a4c4f5630e7c86bda862cf611.html#a5741e93a4c4f5630e7c86bda862cf611" target="_top" xlink:title="Maps a multi&#45;dimensional index to a one&#45;dimensional array index.">
<polygon fill="white" stroke="#666666" points="341.5,-328 266.5,-328 266.5,-311 341.5,-311 341.5,-328"/>
<text text-anchor="middle" x="304" y="-317.6" font-family="Helvetica,sans-Serif" font-size="8.00">chdr::utils::to_1d</text>
</a>
</g>
</g>
<!-- Node1&#45;&gt;Node4 -->
<g id="edge17_Node000001_Node000004" class="edge">
<title>Node1&#45;&gt;Node4</title>
<g id="a_edge17_Node000001_Node000004"><a xlink:title=" ">
<path fill="none" stroke="#63b8ff" d="M22.32,-199.06C27.83,-217.64 43.58,-261.69 74,-282.5 128.3,-319.66 206.56,-324.46 256.09,-323.07"/>
<polygon fill="#63b8ff" stroke="#63b8ff" points="256.34,-326.56 266.2,-322.69 256.07,-319.56 256.34,-326.56"/>
</a>
</g>
</g>
<!-- Node5 -->
<g id="Node000005" class="node">
<title>Node5</title>
<g id="a_Node000005"><a xlink:href="../../d2/dcb/structchdr_1_1utils_ab94b095ba27e03185c77fca09d6974e8.html#ab94b095ba27e03185c77fca09d6974e8" target="_top" xlink:title="Constrains a value to lie within a specified range.">
<polygon fill="white" stroke="#666666" points="174.5,-273 98.5,-273 98.5,-256 174.5,-256 174.5,-273"/>
<text text-anchor="middle" x="136.5" y="-262.6" font-family="Helvetica,sans-Serif" font-size="8.00">chdr::utils::clamp</text>
</a>
</g>
</g>
<!-- Node1&#45;&gt;Node5 -->
<g id="edge5_Node000001_Node000005" class="edge">
<title>Node1&#45;&gt;Node5</title>
<g id="a_edge5_Node000001_Node000005"><a xlink:title=" ">
<path fill="none" stroke="#63b8ff" d="M27.21,-199.19C36.85,-210.34 54.96,-229.63 74,-241.5 80.73,-245.7 88.35,-249.31 95.88,-252.35"/>
<polygon fill="#63b8ff" stroke="#63b8ff" points="94.69,-255.65 105.29,-255.89 97.16,-249.09 94.69,-255.65"/>
</a>
</g>
</g>
<!-- Node6 -->
<g id="Node000006" class="node">
<title>Node6</title>
<g id="a_Node000006"><a xlink:href="../../dd/de3/classchdr_1_1mazes_1_1grid_ad6077e456dd6abb62d82087b55dc2331.html#ad6077e456dd6abb62d82087b55dc2331" target="_top" xlink:title="Retrieves the total count of elements in the grid.">
<polygon fill="white" stroke="#666666" points="355,-217 253,-217 253,-200 355,-200 355,-217"/>
<text text-anchor="middle" x="304" y="-206.6" font-family="Helvetica,sans-Serif" font-size="8.00">chdr::mazes::grid::count</text>
</a>
</g>
</g>
<!-- Node1&#45;&gt;Node6 -->
<g id="edge6_Node000001_Node000006" class="edge">
<title>Node1&#45;&gt;Node6</title>
<g id="a_edge6_Node000001_Node000006"><a xlink:title=" ">
<path fill="none" stroke="#63b8ff" d="M38.12,-198.17C48.44,-202.11 61.71,-206.51 74,-208.5 130.55,-217.68 196,-216.52 242.4,-213.76"/>
<polygon fill="#63b8ff" stroke="#63b8ff" points="242.84,-217.24 252.6,-213.11 242.39,-210.25 242.84,-217.24"/>
</a>
</g>
</g>
<!-- Node7 -->
<g id="Node000007" class="node">
<title>Node7</title>
<g id="a_Node000007"><a xlink:href="../../dd/de3/classchdr_1_1mazes_1_1grid_a0abdfb4af71cccf812fb2b7150f0cc72.html#a0abdfb4af71cccf812fb2b7150f0cc72" target="_top" xlink:title="Retrieves the neighbours of a node within the grid.">
<polygon fill="white" stroke="#666666" points="373,-172 235,-172 235,-155 373,-155 373,-172"/>
<text text-anchor="middle" x="304" y="-161.6" font-family="Helvetica,sans-Serif" font-size="8.00">chdr::mazes::grid::get_neighbours</text>
</a>
</g>
</g>
<!-- Node1&#45;&gt;Node7 -->
<g id="edge7_Node000001_Node000007" class="edge">
<title>Node1&#45;&gt;Node7</title>
<g id="a_edge7_Node000001_Node000007"><a xlink:title=" ">
<path fill="none" stroke="#63b8ff" d="M38.2,-183.46C48.53,-179.8 61.8,-175.65 74,-173.5 123.63,-164.76 180.2,-162.22 224.69,-161.88"/>
<polygon fill="#63b8ff" stroke="#63b8ff" points="224.87,-165.38 234.86,-161.84 224.85,-158.38 224.87,-165.38"/>
</a>
</g>
</g>
<!-- Node8 -->
<g id="Node000008" class="node">
<title>Node8</title>
<g id="a_Node000008"><a xlink:href="../../dd/de3/classchdr_1_1mazes_1_1grid_a264c48c1d975bf357e96edcb92331ad2.html#a264c48c1d975bf357e96edcb92331ad2" target="_top" xlink:title="Determines whether a cell at the given index is transitory.">
<polygon fill="white" stroke="#666666" points="199,-199 74,-199 74,-182 199,-182 199,-199"/>
<text text-anchor="middle" x="136.5" y="-188.6" font-family="Helvetica,sans-Serif" font-size="8.00">chdr::mazes::grid::is_transitory</text>
</a>
</g>
</g>
<!-- Node1&#45;&gt;Node8 -->
<g id="edge8_Node000001_Node000008" class="edge">
<title>Node1&#45;&gt;Node8</title>
<g id="a_edge8_Node000001_Node000008"><a xlink:title=" ">
<path fill="none" stroke="#63b8ff" d="M38.05,-190.5C45.35,-190.5 54.28,-190.5 63.76,-190.5"/>
<polygon fill="#63b8ff" stroke="#63b8ff" points="63.78,-194 73.78,-190.5 63.78,-187 63.78,-194"/>
</a>
</g>
</g>
<!-- Node9 -->
<g id="Node000009" class="node">
<title>Node9</title>
<g id="a_Node000009"><a xlink:href="../../d7/d65/intrinsics_8hpp_a6079a0cf08f5514307afb208fadeb966.html#a6079a0cf08f5514307afb208fadeb966" target="_top" xlink:title="Forces heap defragmentation and consolidation by the internal memory allocator.">
<polygon fill="white" stroke="#666666" points="356,-91 252,-91 252,-74 356,-74 356,-91"/>
<text text-anchor="middle" x="304" y="-80.6" font-family="Helvetica,sans-Serif" font-size="8.00">chdr::malloc_consolidate</text>
</a>
</g>
</g>
<!-- Node1&#45;&gt;Node9 -->
<g id="edge11_Node000001_Node000009" class="edge">
<title>Node1&#45;&gt;Node9</title>
<g id="a_edge11_Node000001_Node000009"><a xlink:title=" ">
<path fill="none" stroke="#63b8ff" d="M32.41,-181.77C43.07,-174.55 59.04,-164.41 74,-157.5 135.93,-128.91 211.86,-106.32 258.84,-93.68"/>
<polygon fill="#63b8ff" stroke="#63b8ff" points="259.93,-97.01 268.69,-91.06 258.13,-90.24 259.93,-97.01"/>
</a>
</g>
</g>
<!-- Node10 -->
<g id="Node000010" class="node">
<title>Node10</title>
<g id="a_Node000010"><a xlink:href="../../d2/dcb/structchdr_1_1utils_ac49e3cb9b2b007da03059d95020d8b49.html#ac49e3cb9b2b007da03059d95020d8b49" target="_top" xlink:title="Returns the smaller of two values.">
<polygon fill="white" stroke="#666666" points="170.5,-87 102.5,-87 102.5,-70 170.5,-70 170.5,-87"/>
<text text-anchor="middle" x="136.5" y="-76.6" font-family="Helvetica,sans-Serif" font-size="8.00">chdr::utils::min</text>
</a>
</g>
</g>
<!-- Node1&#45;&gt;Node10 -->
<g id="edge13_Node000001_Node000010" class="edge">
<title>Node1&#45;&gt;Node10</title>
<g id="a_edge13_Node000001_Node000010"><a xlink:title=" ">
<path fill="none" stroke="#63b8ff" d="M23.01,-181.85C29.56,-164.26 46.72,-124.09 74,-101.5 79.61,-96.85 86.26,-93.09 93.07,-90.06"/>
<polygon fill="#63b8ff" stroke="#63b8ff" points="94.37,-93.31 102.38,-86.38 91.8,-86.8 94.37,-93.31"/>
</a>
</g>
</g>
<!-- Node11 -->
<g id="Node000011" class="node">
<title>Node11</title>
<g id="a_Node000011"><a xlink:href="../../d9/dcb/classchdr_1_1mazes_1_1graph_a66ec42d2ff5b84117b1da4cbba719f1b.html#a66ec42d2ff5b84117b1da4cbba719f1b" target="_top" xlink:title="Prunes the graph of transitory nodes.">
<polygon fill="white" stroke="#666666" points="155.5,-52 117.5,-52 117.5,-35 155.5,-35 155.5,-52"/>
<text text-anchor="middle" x="136.5" y="-41.6" font-family="Helvetica,sans-Serif" font-size="8.00">prune</text>
</a>
</g>
</g>
<!-- Node1&#45;&gt;Node11 -->
<g id="edge14_Node000001_Node000011" class="edge">
<title>Node1&#45;&gt;Node11</title>
<g id="a_edge14_Node000001_Node000011"><a xlink:title=" ">
<path fill="none" stroke="#63b8ff" d="M21.01,-181.72C24.18,-158.32 36.08,-93.99 74,-60.5 83.15,-52.42 95.83,-48.14 107.3,-45.9"/>
<polygon fill="#63b8ff" stroke="#63b8ff" points="108,-49.33 117.35,-44.35 106.94,-42.41 108,-49.33"/>
</a>
</g>
</g>
<!-- Node12 -->
<g id="Node000012" class="node">
<title>Node12</title>
<g id="a_Node000012"><a xlink:href="../../dd/de3/classchdr_1_1mazes_1_1grid_a32d34adb7833cb15aa705c6c7ada57a8.html#a32d34adb7833cb15aa705c6c7ada57a8" target="_top" xlink:title="Retrieves the size of the grid.">
<polygon fill="white" stroke="#666666" points="184.5,-17 88.5,-17 88.5,0 184.5,0 184.5,-17"/>
<text text-anchor="middle" x="136.5" y="-6.6" font-family="Helvetica,sans-Serif" font-size="8.00">chdr::mazes::grid::size</text>
</a>
</g>
</g>
<!-- Node1&#45;&gt;Node12 -->
<g id="edge16_Node000001_Node000012" class="edge">
<title>Node1&#45;&gt;Node12</title>
<g id="a_edge16_Node000001_Node000012"><a xlink:title=" ">
<path fill="none" stroke="#63b8ff" d="M20.13,-181.85C21.02,-154.62 27.56,-69.83 74,-25.5 75.66,-23.92 77.45,-22.48 79.35,-21.17"/>
<polygon fill="#63b8ff" stroke="#63b8ff" points="81.17,-24.16 88.21,-16.24 77.77,-18.04 81.17,-24.16"/>
</a>
</g>
</g>
<!-- Node3&#45;&gt;Node3 -->
<g id="edge3_Node000003_Node000003" class="edge">
<title>Node3&#45;&gt;Node3</title>
<g id="a_edge3_Node000003_Node000003"><a xlink:title=" ">
<path fill="none" stroke="#63b8ff" d="M119.22,-347.19C109.67,-355.67 115.43,-365 136.5,-365 150,-365 157.21,-361.17 158.15,-356.19"/>
<polygon fill="#63b8ff" stroke="#63b8ff" points="161.29,-354.66 153.78,-347.19 154.99,-357.71 161.29,-354.66"/>
</a>
</g>
</g>
<!-- Node3&#45;&gt;Node4 -->
<g id="edge4_Node000003_Node000004" class="edge">
<title>Node3&#45;&gt;Node4</title>
<g id="a_edge4_Node000003_Node000004"><a xlink:title=" ">
<path fill="none" stroke="#63b8ff" d="M181.42,-333.46C204.52,-330.81 232.85,-327.55 256.35,-324.86"/>
<polygon fill="#63b8ff" stroke="#63b8ff" points="256.9,-328.32 266.44,-323.7 256.1,-321.36 256.9,-328.32"/>
</a>
</g>
</g>
<!-- Node8&#45;&gt;Node6 -->
<g id="edge9_Node000008_Node000006" class="edge">
<title>Node8&#45;&gt;Node6</title>
<g id="a_edge9_Node000008_Node000006"><a xlink:title=" ">
<path fill="none" stroke="#63b8ff" d="M199.13,-197.2C213.4,-198.75 228.57,-200.4 242.78,-201.95"/>
<polygon fill="#63b8ff" stroke="#63b8ff" points="242.61,-205.45 252.93,-203.05 243.37,-198.49 242.61,-205.45"/>
</a>
</g>
</g>
<!-- Node8&#45;&gt;Node7 -->
<g id="edge10_Node000008_Node000007" class="edge">
<title>Node8&#45;&gt;Node7</title>
<g id="a_edge10_Node000008_Node000007"><a xlink:title=" ">
<path fill="none" stroke="#63b8ff" d="M189.87,-181.96C205.94,-179.33 223.8,-176.42 240.48,-173.7"/>
<polygon fill="#63b8ff" stroke="#63b8ff" points="241.39,-177.1 250.69,-172.03 240.26,-170.19 241.39,-177.1"/>
</a>
</g>
</g>
<!-- Node9&#45;&gt;Node9 -->
<g id="edge12_Node000009_Node000009" class="edge">
<title>Node9&#45;&gt;Node9</title>
<g id="a_edge12_Node000009_Node000009"><a xlink:title=" ">
<path fill="none" stroke="#63b8ff" d="M279.27,-91.19C265.6,-99.67 273.85,-109 304,-109 324.73,-109 335.1,-104.59 335.12,-99.08"/>
<polygon fill="#63b8ff" stroke="#63b8ff" points="337.75,-96.76 328.73,-91.19 332.31,-101.16 337.75,-96.76"/>
</a>
</g>
</g>
<!-- Node11&#45;&gt;Node9 -->
<g id="edge15_Node000011_Node000009" class="edge">
<title>Node11&#45;&gt;Node9</title>
<g id="a_edge15_Node000011_Node000009"><a xlink:title=" ">
<path fill="none" stroke="#63b8ff" d="M155.53,-47.75C179.59,-53.42 223.08,-63.67 256.62,-71.57"/>
<polygon fill="#63b8ff" stroke="#63b8ff" points="256.14,-75.05 266.68,-73.94 257.75,-68.24 256.14,-75.05"/>
</a>
</g>
</g>
</g>
</svg>
