<?xml version="1.0" encoding="UTF-8" standalone="no"?>
<!DOCTYPE svg PUBLIC "-//W3C//DTD SVG 1.1//EN"
 "http://www.w3.org/Graphics/SVG/1.1/DTD/svg11.dtd">
<!-- Generated by graphviz version 2.42.4 (0)
 -->
<!-- Title: get_neighbours Pages: 1 -->
<svg width="162pt" height="43pt"
 viewBox="0.00 0.00 162.00 43.00" xmlns="http://www.w3.org/2000/svg" xmlns:xlink="http://www.w3.org/1999/xlink">
<g id="graph0" class="graph" transform="scale(1 1) rotate(0) translate(4 39)">
<title>get_neighbours</title>
<!-- Node1 -->
<g id="Node000001" class="node">
<title>Node1</title>
<g id="a_Node000001"><a xlink:title=" ">
<polygon fill="#999999" stroke="#666666" points="72,-17 0,-17 0,0 72,0 72,-17"/>
<text text-anchor="middle" x="36" y="-6.6" font-family="Helvetica,sans-Serif" font-size="8.00">get_neighbours</text>
</a>
</g>
</g>
<!-- Node1&#45;&gt;Node1 -->
<g id="edge3_Node000001_Node000001" class="edge">
<title>Node1&#45;&gt;Node1</title>
<g id="a_edge3_Node000001_Node000001"><a xlink:title=" ">
<path fill="none" stroke="#63b8ff" d="M21.99,-17.19C14.26,-25.67 18.93,-35 36,-35 46.4,-35 52.2,-31.54 53.39,-26.91"/>
<polygon fill="#63b8ff" stroke="#63b8ff" points="56.6,-25.48 50.01,-17.19 49.99,-27.78 56.6,-25.48"/>
</a>
</g>
</g>
<!-- Node2 -->
<g id="Node000002" class="node">
<title>Node2</title>
<g id="a_Node000002"><a xlink:href="../../d9/dcb/classchdr_1_1mazes_1_1graph_ab276ef23dd28f7f3f6a804f7a958141d.html#ab276ef23dd28f7f3f6a804f7a958141d" target="_top" xlink:title=" ">
<polygon fill="white" stroke="#666666" points="154,-17 108,-17 108,0 154,0 154,-17"/>
<text text-anchor="middle" x="131" y="-6.6" font-family="Helvetica,sans-Serif" font-size="8.00">contains</text>
</a>
</g>
</g>
<!-- Node1&#45;&gt;Node2 -->
<g id="edge1_Node000001_Node000002" class="edge">
<title>Node1&#45;&gt;Node2</title>
<g id="a_edge1_Node000001_Node000002"><a xlink:title=" ">
<path fill="none" stroke="#63b8ff" d="M72.16,-1.93C80.55,-1.66 89.47,-1.69 97.72,-2.04"/>
<polygon fill="#63b8ff" stroke="#63b8ff" points="97.54,-5.53 107.73,-2.64 97.96,1.45 97.54,-5.53"/>
</a>
</g>
</g>
<!-- Node2&#45;&gt;Node1 -->
<g id="edge2_Node000002_Node000001" class="edge">
<title>Node2&#45;&gt;Node1</title>
<g id="a_edge2_Node000002_Node000001"><a xlink:title=" ">
<path fill="none" stroke="#63b8ff" d="M107.73,-14.36C100.08,-14.98 91.22,-15.28 82.4,-15.25"/>
<polygon fill="#63b8ff" stroke="#63b8ff" points="82.22,-11.74 72.16,-15.07 82.1,-18.74 82.22,-11.74"/>
</a>
</g>
</g>
</g>
</svg>
