<?xml version="1.0" encoding="UTF-8" standalone="no"?>
<!DOCTYPE svg PUBLIC "-//W3C//DTD SVG 1.1//EN"
 "http://www.w3.org/Graphics/SVG/1.1/DTD/svg11.dtd">
<!-- Generated by graphviz version 2.42.4 (0)
 -->
<!-- Title: operator[] Pages: 1 -->
<svg width="250pt" height="62pt"
 viewBox="0.00 0.00 250.00 62.00" xmlns="http://www.w3.org/2000/svg" xmlns:xlink="http://www.w3.org/1999/xlink">
<g id="graph0" class="graph" transform="scale(1 1) rotate(0) translate(4 58)">
<title>operator[]</title>
<!-- Node1 -->
<g id="Node000001" class="node">
<title>Node1</title>
<g id="a_Node000001"><a xlink:title="Retrieves the vertex at a specified index.">
<polygon fill="#999999" stroke="#666666" points="52,-17 0,-17 0,0 52,0 52,-17"/>
<text text-anchor="middle" x="26" y="-6.6" font-family="Helvetica,sans-Serif" font-size="8.00">operator[]</text>
</a>
</g>
</g>
<!-- Node2 -->
<g id="Node000002" class="node">
<title>Node2</title>
<g id="a_Node000002"><a xlink:href="../../d9/dcb/classchdr_1_1mazes_1_1graph_ab276ef23dd28f7f3f6a804f7a958141d.html#ab276ef23dd28f7f3f6a804f7a958141d" target="_top" xlink:title=" ">
<polygon fill="white" stroke="#666666" points="134,-36 88,-36 88,-19 134,-19 134,-36"/>
<text text-anchor="middle" x="111" y="-25.6" font-family="Helvetica,sans-Serif" font-size="8.00">contains</text>
</a>
</g>
</g>
<!-- Node1&#45;&gt;Node2 -->
<g id="edge1_Node000001_Node000002" class="edge">
<title>Node1&#45;&gt;Node2</title>
<g id="a_edge1_Node000001_Node000002"><a xlink:title=" ">
<path fill="none" stroke="#63b8ff" d="M52.35,-14.3C60.42,-16.15 69.45,-18.22 77.93,-20.16"/>
<polygon fill="#63b8ff" stroke="#63b8ff" points="77.36,-23.62 87.89,-22.44 78.92,-16.8 77.36,-23.62"/>
</a>
</g>
</g>
<!-- Node3 -->
<g id="Node000003" class="node">
<title>Node3</title>
<g id="a_Node000003"><a xlink:href="../../d9/dcb/classchdr_1_1mazes_1_1graph_abe2a6e079551372e0ed654c8f6562002.html#abe2a6e079551372e0ed654c8f6562002" target="_top" xlink:title=" ">
<polygon fill="white" stroke="#666666" points="242,-36 170,-36 170,-19 242,-19 242,-36"/>
<text text-anchor="middle" x="206" y="-25.6" font-family="Helvetica,sans-Serif" font-size="8.00">get_neighbours</text>
</a>
</g>
</g>
<!-- Node1&#45;&gt;Node3 -->
<g id="edge5_Node000001_Node000003" class="edge">
<title>Node1&#45;&gt;Node3</title>
<g id="a_edge5_Node000001_Node000003"><a xlink:title=" ">
<path fill="none" stroke="#63b8ff" d="M52.19,-7.44C73.94,-6.89 106.17,-6.95 134,-10.5 144.37,-11.82 155.43,-14.06 165.66,-16.48"/>
<polygon fill="#63b8ff" stroke="#63b8ff" points="165.01,-19.93 175.56,-18.94 166.7,-13.13 165.01,-19.93"/>
</a>
</g>
</g>
<!-- Node2&#45;&gt;Node3 -->
<g id="edge2_Node000002_Node000003" class="edge">
<title>Node2&#45;&gt;Node3</title>
<g id="a_edge2_Node000002_Node000003"><a xlink:title=" ">
<path fill="none" stroke="#63b8ff" d="M134.04,-21.66C141.68,-21.03 150.56,-20.73 159.39,-20.75"/>
<polygon fill="#63b8ff" stroke="#63b8ff" points="159.61,-24.26 169.67,-20.93 159.73,-17.26 159.61,-24.26"/>
</a>
</g>
</g>
<!-- Node3&#45;&gt;Node2 -->
<g id="edge3_Node000003_Node000002" class="edge">
<title>Node3&#45;&gt;Node2</title>
<g id="a_edge3_Node000003_Node000002"><a xlink:title=" ">
<path fill="none" stroke="#63b8ff" d="M169.67,-34.07C161.25,-34.34 152.31,-34.3 144.05,-33.95"/>
<polygon fill="#63b8ff" stroke="#63b8ff" points="144.23,-30.46 134.04,-33.34 143.81,-37.44 144.23,-30.46"/>
</a>
</g>
</g>
<!-- Node3&#45;&gt;Node3 -->
<g id="edge4_Node000003_Node000003" class="edge">
<title>Node3&#45;&gt;Node3</title>
<g id="a_edge4_Node000003_Node000003"><a xlink:title=" ">
<path fill="none" stroke="#63b8ff" d="M191.99,-36.19C184.26,-44.67 188.93,-54 206,-54 216.4,-54 222.2,-50.54 223.39,-45.91"/>
<polygon fill="#63b8ff" stroke="#63b8ff" points="226.6,-44.48 220.01,-36.19 219.99,-46.78 226.6,-44.48"/>
</a>
</g>
</g>
</g>
</svg>
