<?xml version="1.0" encoding="UTF-8" standalone="no"?>
<!DOCTYPE svg PUBLIC "-//W3C//DTD SVG 1.1//EN"
 "http://www.w3.org/Graphics/SVG/1.1/DTD/svg11.dtd">
<!-- Generated by graphviz version 2.42.4 (0)
 -->
<!-- Title: graph Pages: 1 -->
<svg width="302pt" height="44pt"
 viewBox="0.00 0.00 302.00 44.00" xmlns="http://www.w3.org/2000/svg" xmlns:xlink="http://www.w3.org/1999/xlink">
<g id="graph0" class="graph" transform="scale(1 1) rotate(0) translate(4 40)">
<title>graph</title>
<!-- Node1 -->
<g id="Node000001" class="node">
<title>Node1</title>
<g id="a_Node000001"><a xlink:title="Constructs a graph instance from an adjacency list.">
<polygon fill="#999999" stroke="#666666" points="38,-17 0,-17 0,0 38,0 38,-17"/>
<text text-anchor="middle" x="19" y="-6.6" font-family="Helvetica,sans-Serif" font-size="8.00">graph</text>
</a>
</g>
</g>
<!-- Node2 -->
<g id="Node000002" class="node">
<title>Node2</title>
<g id="a_Node000002"><a xlink:href="../../d9/dcb/classchdr_1_1mazes_1_1graph_ab41a4e064828273b133921f8d05a7540.html#ab41a4e064828273b133921f8d05a7540" target="_top" xlink:title="Adds a new vertex to the graph with the specified identifier.">
<polygon fill="white" stroke="#666666" points="104,-36 74,-36 74,-19 104,-19 104,-36"/>
<text text-anchor="middle" x="89" y="-25.6" font-family="Helvetica,sans-Serif" font-size="8.00">add</text>
</a>
</g>
</g>
<!-- Node1&#45;&gt;Node2 -->
<g id="edge1_Node000001_Node000002" class="edge">
<title>Node1&#45;&gt;Node2</title>
<g id="a_edge1_Node000001_Node000002"><a xlink:title=" ">
<path fill="none" stroke="#63b8ff" d="M38.22,-13.59C46.17,-15.81 55.59,-18.44 64.08,-20.82"/>
<polygon fill="#63b8ff" stroke="#63b8ff" points="63.25,-24.22 73.83,-23.54 65.14,-17.48 63.25,-24.22"/>
</a>
</g>
</g>
<!-- Node3 -->
<g id="Node000003" class="node">
<title>Node3</title>
<g id="a_Node000003"><a xlink:href="../../d9/dcb/classchdr_1_1mazes_1_1graph_abe2a6e079551372e0ed654c8f6562002.html#abe2a6e079551372e0ed654c8f6562002" target="_top" xlink:title=" ">
<polygon fill="white" stroke="#666666" points="212,-17 140,-17 140,0 212,0 212,-17"/>
<text text-anchor="middle" x="176" y="-6.6" font-family="Helvetica,sans-Serif" font-size="8.00">get_neighbours</text>
</a>
</g>
</g>
<!-- Node1&#45;&gt;Node3 -->
<g id="edge6_Node000001_Node000003" class="edge">
<title>Node1&#45;&gt;Node3</title>
<g id="a_edge6_Node000001_Node000003"><a xlink:title=" ">
<path fill="none" stroke="#63b8ff" d="M38.08,-8.5C60.4,-8.5 99.13,-8.5 129.72,-8.5"/>
<polygon fill="#63b8ff" stroke="#63b8ff" points="129.75,-12 139.75,-8.5 129.75,-5 129.75,-12"/>
</a>
</g>
</g>
<!-- Node2&#45;&gt;Node3 -->
<g id="edge2_Node000002_Node000003" class="edge">
<title>Node2&#45;&gt;Node3</title>
<g id="a_edge2_Node000002_Node000003"><a xlink:title=" ">
<path fill="none" stroke="#63b8ff" d="M104.04,-24.36C111.25,-22.75 120.48,-20.69 129.88,-18.59"/>
<polygon fill="#63b8ff" stroke="#63b8ff" points="130.67,-22 139.66,-16.4 129.14,-15.16 130.67,-22"/>
</a>
</g>
</g>
<!-- Node3&#45;&gt;Node3 -->
<g id="edge5_Node000003_Node000003" class="edge">
<title>Node3&#45;&gt;Node3</title>
<g id="a_edge5_Node000003_Node000003"><a xlink:title=" ">
<path fill="none" stroke="#63b8ff" d="M163.19,-17.19C156.11,-25.67 160.38,-35 176,-35 185.52,-35 190.82,-31.54 191.91,-26.91"/>
<polygon fill="#63b8ff" stroke="#63b8ff" points="195.19,-25.65 188.81,-17.19 188.52,-27.78 195.19,-25.65"/>
</a>
</g>
</g>
<!-- Node4 -->
<g id="Node000004" class="node">
<title>Node4</title>
<g id="a_Node000004"><a xlink:href="../../d9/dcb/classchdr_1_1mazes_1_1graph_ab276ef23dd28f7f3f6a804f7a958141d.html#ab276ef23dd28f7f3f6a804f7a958141d" target="_top" xlink:title=" ">
<polygon fill="white" stroke="#666666" points="294,-17 248,-17 248,0 294,0 294,-17"/>
<text text-anchor="middle" x="271" y="-6.6" font-family="Helvetica,sans-Serif" font-size="8.00">contains</text>
</a>
</g>
</g>
<!-- Node3&#45;&gt;Node4 -->
<g id="edge3_Node000003_Node000004" class="edge">
<title>Node3&#45;&gt;Node4</title>
<g id="a_edge3_Node000003_Node000004"><a xlink:title=" ">
<path fill="none" stroke="#63b8ff" d="M212.16,-1.93C220.55,-1.66 229.47,-1.69 237.72,-2.04"/>
<polygon fill="#63b8ff" stroke="#63b8ff" points="237.54,-5.53 247.73,-2.64 237.96,1.45 237.54,-5.53"/>
</a>
</g>
</g>
<!-- Node4&#45;&gt;Node3 -->
<g id="edge4_Node000004_Node000003" class="edge">
<title>Node4&#45;&gt;Node3</title>
<g id="a_edge4_Node000004_Node000003"><a xlink:title=" ">
<path fill="none" stroke="#63b8ff" d="M247.73,-14.36C240.08,-14.98 231.22,-15.28 222.4,-15.25"/>
<polygon fill="#63b8ff" stroke="#63b8ff" points="222.22,-11.74 212.16,-15.07 222.1,-18.74 222.22,-11.74"/>
</a>
</g>
</g>
</g>
</svg>
