<?xml version="1.0" encoding="UTF-8" standalone="no"?>
<!DOCTYPE svg PUBLIC "-//W3C//DTD SVG 1.1//EN"
 "http://www.w3.org/Graphics/SVG/1.1/DTD/svg11.dtd">
<!-- Generated by graphviz version 2.43.0 (0)
 -->
<!-- Title: contains Pages: 1 -->
<svg width="250pt" height="95pt"
 viewBox="0.00 0.00 250.00 95.00" xmlns="http://www.w3.org/2000/svg" xmlns:xlink="http://www.w3.org/1999/xlink">
<g id="graph0" class="graph" transform="scale(1 1) rotate(0) translate(4 91)">
<title>contains</title>
<!-- Node1 -->
<g id="Node000001" class="node">
<title>Node1</title>
<g id="a_Node000001"><a xlink:title=" ">
<polygon fill="#999999" stroke="#666666" points="242,-52 196,-52 196,-35 242,-35 242,-52"/>
<text text-anchor="middle" x="219" y="-41.6" font-family="Helvetica,sans-Serif" font-size="8.00">contains</text>
</a>
</g>
</g>
<!-- Node2 -->
<g id="Node000002" class="node">
<title>Node2</title>
<g id="a_Node000002"><a xlink:href="../../d9/dcb/classchdr_1_1mazes_1_1graph_a16518fd691e7ddba60f06d5c767b1f8e.html#a16518fd691e7ddba60f06d5c767b1f8e" target="_top" xlink:title="Retrieves the vertex at a specified index.">
<polygon fill="white" stroke="#666666" points="138.5,-87 109.5,-87 109.5,-70 138.5,-70 138.5,-87"/>
<text text-anchor="middle" x="124" y="-76.6" font-family="Helvetica,sans-Serif" font-size="8.00">at</text>
</a>
</g>
</g>
<!-- Node1&#45;&gt;Node2 -->
<g id="edge1_Node000001_Node000002" class="edge">
<title>Node1&#45;&gt;Node2</title>
<g id="a_edge1_Node000001_Node000002"><a xlink:title=" ">
<path fill="none" stroke="#63b8ff" d="M186.25,-55.45C169.97,-61.58 151,-68.72 138.53,-73.41"/>
<polygon fill="#63b8ff" stroke="#63b8ff" points="187.83,-58.59 195.96,-51.79 185.37,-52.04 187.83,-58.59"/>
</a>
</g>
</g>
<!-- Node4 -->
<g id="Node000004" class="node">
<title>Node4</title>
<g id="a_Node000004"><a xlink:href="../../d9/dcb/classchdr_1_1mazes_1_1graph_ace796c1bb79d924991f558dccc4edb7f.html#ace796c1bb79d924991f558dccc4edb7f" target="_top" xlink:title=" ">
<polygon fill="white" stroke="#666666" points="160,-52 88,-52 88,-35 160,-35 160,-52"/>
<text text-anchor="middle" x="124" y="-41.6" font-family="Helvetica,sans-Serif" font-size="8.00">get_neighbours</text>
</a>
</g>
</g>
<!-- Node1&#45;&gt;Node4 -->
<g id="edge3_Node000001_Node000004" class="edge">
<title>Node1&#45;&gt;Node4</title>
<g id="a_edge3_Node000001_Node000004"><a xlink:title=" ">
<path fill="none" stroke="#63b8ff" d="M185.95,-43.5C177.69,-43.5 168.75,-43.5 160.33,-43.5"/>
<polygon fill="#63b8ff" stroke="#63b8ff" points="185.96,-47 195.96,-43.5 185.96,-40 185.96,-47"/>
</a>
</g>
</g>
<!-- Node5 -->
<g id="Node000005" class="node">
<title>Node5</title>
<g id="a_Node000005"><a xlink:href="../../d9/dcb/classchdr_1_1mazes_1_1graph_a50cc7fa4c48882e5665f24305a38fc3b.html#a50cc7fa4c48882e5665f24305a38fc3b" target="_top" xlink:title=" ">
<polygon fill="white" stroke="#666666" points="146,-17 102,-17 102,0 146,0 146,-17"/>
<text text-anchor="middle" x="124" y="-6.6" font-family="Helvetica,sans-Serif" font-size="8.00">remove</text>
</a>
</g>
</g>
<!-- Node1&#45;&gt;Node5 -->
<g id="edge4_Node000001_Node000005" class="edge">
<title>Node1&#45;&gt;Node5</title>
<g id="a_edge4_Node000001_Node000005"><a xlink:title=" ">
<path fill="none" stroke="#63b8ff" d="M186.29,-31.56C173.08,-26.59 158.09,-20.95 146.24,-16.49"/>
<polygon fill="#63b8ff" stroke="#63b8ff" points="185.37,-34.96 195.96,-35.21 187.83,-28.41 185.37,-34.96"/>
</a>
</g>
</g>
<!-- Node3 -->
<g id="Node000003" class="node">
<title>Node3</title>
<g id="a_Node000003"><a xlink:href="../../d9/dcb/classchdr_1_1mazes_1_1graph_a943b441c52cc08ef04269321f14cc1f9.html#a943b441c52cc08ef04269321f14cc1f9" target="_top" xlink:title="Retrieves the vertex at a specified index.">
<polygon fill="white" stroke="#666666" points="52,-87 0,-87 0,-70 52,-70 52,-87"/>
<text text-anchor="middle" x="26" y="-76.6" font-family="Helvetica,sans-Serif" font-size="8.00">operator[]</text>
</a>
</g>
</g>
<!-- Node2&#45;&gt;Node3 -->
<g id="edge2_Node000002_Node000003" class="edge">
<title>Node2&#45;&gt;Node3</title>
<g id="a_edge2_Node000002_Node000003"><a xlink:title=" ">
<path fill="none" stroke="#63b8ff" d="M99.21,-78.5C84.93,-78.5 66.79,-78.5 52.26,-78.5"/>
<polygon fill="#63b8ff" stroke="#63b8ff" points="99.25,-82 109.25,-78.5 99.25,-75 99.25,-82"/>
</a>
</g>
</g>
</g>
</svg>
