<?xml version="1.0" encoding="UTF-8" standalone="no"?>
<!DOCTYPE svg PUBLIC "-//W3C//DTD SVG 1.1//EN"
 "http://www.w3.org/Graphics/SVG/1.1/DTD/svg11.dtd">
<!-- Generated by graphviz version 2.43.0 (0)
 -->
<!-- Title: graph Pages: 1 -->
<svg width="381pt" height="335pt"
 viewBox="0.00 0.00 381.00 335.00" xmlns="http://www.w3.org/2000/svg" xmlns:xlink="http://www.w3.org/1999/xlink">
<g id="graph0" class="graph" transform="scale(1 1) rotate(0) translate(4 331)">
<title>graph</title>
<!-- Node1 -->
<g id="Node000001" class="node">
<title>Node1</title>
<g id="a_Node000001"><a xlink:title="Constructs a graph instance from a grid structure.">
<polygon fill="#999999" stroke="#666666" points="38,-163 0,-163 0,-146 38,-146 38,-163"/>
<text text-anchor="middle" x="19" y="-152.6" font-family="Helvetica,sans-Serif" font-size="8.00">graph</text>
</a>
</g>
</g>
<!-- Node2 -->
<g id="Node000002" class="node">
<title>Node2</title>
<g id="a_Node000002"><a xlink:href="../../d9/dcb/classchdr_1_1mazes_1_1graph_ab41a4e064828273b133921f8d05a7540.html#ab41a4e064828273b133921f8d05a7540" target="_top" xlink:title="Adds a new vertex to the graph with the specified identifier.">
<polygon fill="white" stroke="#666666" points="151.5,-327 121.5,-327 121.5,-310 151.5,-310 151.5,-327"/>
<text text-anchor="middle" x="136.5" y="-316.6" font-family="Helvetica,sans-Serif" font-size="8.00">add</text>
</a>
</g>
</g>
<!-- Node1&#45;&gt;Node2 -->
<g id="edge1_Node000001_Node000002" class="edge">
<title>Node1&#45;&gt;Node2</title>
<g id="a_edge1_Node000001_Node000002"><a xlink:title=" ">
<path fill="none" stroke="#63b8ff" d="M20.54,-163.29C22.57,-188.68 32,-262.82 74,-301.5 84.02,-310.73 98.61,-315.01 111.06,-316.97"/>
<polygon fill="#63b8ff" stroke="#63b8ff" points="110.95,-320.49 121.28,-318.17 111.76,-313.53 110.95,-320.49"/>
</a>
</g>
</g>
<!-- Node3 -->
<g id="Node000003" class="node">
<title>Node3</title>
<g id="a_Node000003"><a xlink:href="../../dd/de3/classchdr_1_1mazes_1_1grid_a2c953e28d925a8042220b3abe9023479.html#a2c953e28d925a8042220b3abe9023479" target="_top" xlink:title="Retrieves the node at a specified coordinate.">
<polygon fill="white" stroke="#666666" points="181,-274 92,-274 92,-257 181,-257 181,-274"/>
<text text-anchor="middle" x="136.5" y="-263.6" font-family="Helvetica,sans-Serif" font-size="8.00">chdr::mazes::grid::at</text>
</a>
</g>
</g>
<!-- Node1&#45;&gt;Node3 -->
<g id="edge2_Node000001_Node000003" class="edge">
<title>Node1&#45;&gt;Node3</title>
<g id="a_edge2_Node000001_Node000003"><a xlink:title=" ">
<path fill="none" stroke="#63b8ff" d="M23.04,-163.05C29.64,-180.44 46.88,-220.16 74,-242.5 79.02,-246.64 84.86,-250.08 90.91,-252.92"/>
<polygon fill="#63b8ff" stroke="#63b8ff" points="89.91,-256.29 100.49,-256.91 92.6,-249.83 89.91,-256.29"/>
</a>
</g>
</g>
<!-- Node4 -->
<g id="Node000004" class="node">
<title>Node4</title>
<g id="a_Node000004"><a xlink:href="../../d2/dcb/structchdr_1_1utils_a5741e93a4c4f5630e7c86bda862cf611.html#a5741e93a4c4f5630e7c86bda862cf611" target="_top" xlink:title="Maps a multi&#45;dimensional index to a one&#45;dimensional array index.">
<polygon fill="white" stroke="#666666" points="341.5,-255 266.5,-255 266.5,-238 341.5,-238 341.5,-255"/>
<text text-anchor="middle" x="304" y="-244.6" font-family="Helvetica,sans-Serif" font-size="8.00">chdr::utils::to_1d</text>
</a>
</g>
</g>
<!-- Node1&#45;&gt;Node4 -->
<g id="edge13_Node000001_Node000004" class="edge">
<title>Node1&#45;&gt;Node4</title>
<g id="a_edge13_Node000001_Node000004"><a xlink:title=" ">
<path fill="none" stroke="#63b8ff" d="M25.8,-163.24C34.6,-175.74 52.61,-198.43 74,-209.5 131.82,-239.41 207.92,-246.3 256.16,-247.32"/>
<polygon fill="#63b8ff" stroke="#63b8ff" points="256.27,-250.82 266.32,-247.45 256.36,-243.82 256.27,-250.82"/>
</a>
</g>
</g>
<!-- Node5 -->
<g id="Node000005" class="node">
<title>Node5</title>
<g id="a_Node000005"><a xlink:href="../../d2/dcb/structchdr_1_1utils_ab94b095ba27e03185c77fca09d6974e8.html#ab94b095ba27e03185c77fca09d6974e8" target="_top" xlink:title="Constrains a value to lie within a specified range.">
<polygon fill="white" stroke="#666666" points="174.5,-200 98.5,-200 98.5,-183 174.5,-183 174.5,-200"/>
<text text-anchor="middle" x="136.5" y="-189.6" font-family="Helvetica,sans-Serif" font-size="8.00">chdr::utils::clamp</text>
</a>
</g>
</g>
<!-- Node1&#45;&gt;Node5 -->
<g id="edge5_Node000001_Node000005" class="edge">
<title>Node1&#45;&gt;Node5</title>
<g id="a_edge5_Node000001_Node000005"><a xlink:title=" ">
<path fill="none" stroke="#63b8ff" d="M38.05,-160.28C54.3,-165.49 78.67,-173.29 98.98,-179.8"/>
<polygon fill="#63b8ff" stroke="#63b8ff" points="97.98,-183.15 108.57,-182.87 100.11,-176.49 97.98,-183.15"/>
</a>
</g>
</g>
<!-- Node6 -->
<g id="Node000006" class="node">
<title>Node6</title>
<g id="a_Node000006"><a xlink:href="../../dd/de3/classchdr_1_1mazes_1_1grid_ad6077e456dd6abb62d82087b55dc2331.html#ad6077e456dd6abb62d82087b55dc2331" target="_top" xlink:title="Retrieves the total count of elements in the grid.">
<polygon fill="white" stroke="#666666" points="355,-144 253,-144 253,-127 355,-127 355,-144"/>
<text text-anchor="middle" x="304" y="-133.6" font-family="Helvetica,sans-Serif" font-size="8.00">chdr::mazes::grid::count</text>
</a>
</g>
</g>
<!-- Node1&#45;&gt;Node6 -->
<g id="edge6_Node000001_Node000006" class="edge">
<title>Node1&#45;&gt;Node6</title>
<g id="a_edge6_Node000001_Node000006"><a xlink:title=" ">
<path fill="none" stroke="#63b8ff" d="M38.13,-153.28C78.61,-150.57 177.83,-143.9 242.68,-139.55"/>
<polygon fill="#63b8ff" stroke="#63b8ff" points="243.04,-143.03 252.78,-138.87 242.57,-136.05 243.04,-143.03"/>
</a>
</g>
</g>
<!-- Node7 -->
<g id="Node000007" class="node">
<title>Node7</title>
<g id="a_Node000007"><a xlink:href="../../dd/de3/classchdr_1_1mazes_1_1grid_a0abdfb4af71cccf812fb2b7150f0cc72.html#a0abdfb4af71cccf812fb2b7150f0cc72" target="_top" xlink:title="Retrieves the neighbours of a node within the grid.">
<polygon fill="white" stroke="#666666" points="373,-108 235,-108 235,-91 373,-91 373,-108"/>
<text text-anchor="middle" x="304" y="-97.6" font-family="Helvetica,sans-Serif" font-size="8.00">chdr::mazes::grid::get_neighbours</text>
</a>
</g>
</g>
<!-- Node1&#45;&gt;Node7 -->
<g id="edge7_Node000001_Node000007" class="edge">
<title>Node1&#45;&gt;Node7</title>
<g id="a_edge7_Node000001_Node000007"><a xlink:title=" ">
<path fill="none" stroke="#63b8ff" d="M25.3,-145.73C33.72,-132.75 51.54,-108.92 74,-99.5 132.75,-74.85 207.67,-81.06 255.51,-89.15"/>
<polygon fill="#63b8ff" stroke="#63b8ff" points="255.12,-92.64 265.58,-90.95 256.35,-85.75 255.12,-92.64"/>
</a>
</g>
</g>
<!-- Node8 -->
<g id="Node000008" class="node">
<title>Node8</title>
<g id="a_Node000008"><a xlink:href="../../dd/de3/classchdr_1_1mazes_1_1grid_a264c48c1d975bf357e96edcb92331ad2.html#a264c48c1d975bf357e96edcb92331ad2" target="_top" xlink:title="Determines whether a cell at the given index is transitory.">
<polygon fill="white" stroke="#666666" points="199,-126 74,-126 74,-109 199,-109 199,-126"/>
<text text-anchor="middle" x="136.5" y="-115.6" font-family="Helvetica,sans-Serif" font-size="8.00">chdr::mazes::grid::is_transitory</text>
</a>
</g>
</g>
<!-- Node1&#45;&gt;Node8 -->
<g id="edge8_Node000001_Node000008" class="edge">
<title>Node1&#45;&gt;Node8</title>
<g id="a_edge8_Node000001_Node000008"><a xlink:title=" ">
<path fill="none" stroke="#63b8ff" d="M38.05,-148.72C54.3,-143.51 78.67,-135.71 98.98,-129.2"/>
<polygon fill="#63b8ff" stroke="#63b8ff" points="100.11,-132.51 108.57,-126.13 97.98,-125.85 100.11,-132.51"/>
</a>
</g>
</g>
<!-- Node9 -->
<g id="Node000009" class="node">
<title>Node9</title>
<g id="a_Node000009"><a xlink:href="../../d2/dcb/structchdr_1_1utils_ac49e3cb9b2b007da03059d95020d8b49.html#ac49e3cb9b2b007da03059d95020d8b49" target="_top" xlink:title="Returns the smaller of two values.">
<polygon fill="white" stroke="#666666" points="170.5,-52 102.5,-52 102.5,-35 170.5,-35 170.5,-52"/>
<text text-anchor="middle" x="136.5" y="-41.6" font-family="Helvetica,sans-Serif" font-size="8.00">chdr::utils::min</text>
</a>
</g>
</g>
<!-- Node1&#45;&gt;Node9 -->
<g id="edge11_Node000001_Node000009" class="edge">
<title>Node1&#45;&gt;Node9</title>
<g id="a_edge11_Node000001_Node000009"><a xlink:title=" ">
<path fill="none" stroke="#63b8ff" d="M23.04,-145.95C29.64,-128.56 46.88,-88.84 74,-66.5 79.63,-61.87 86.28,-58.11 93.09,-55.09"/>
<polygon fill="#63b8ff" stroke="#63b8ff" points="94.39,-58.34 102.4,-51.4 91.82,-51.83 94.39,-58.34"/>
</a>
</g>
</g>
<!-- Node10 -->
<g id="Node000010" class="node">
<title>Node10</title>
<g id="a_Node000010"><a xlink:href="../../dd/de3/classchdr_1_1mazes_1_1grid_a32d34adb7833cb15aa705c6c7ada57a8.html#a32d34adb7833cb15aa705c6c7ada57a8" target="_top" xlink:title="Retrieves the size of the grid.">
<polygon fill="white" stroke="#666666" points="184.5,-17 88.5,-17 88.5,0 184.5,0 184.5,-17"/>
<text text-anchor="middle" x="136.5" y="-6.6" font-family="Helvetica,sans-Serif" font-size="8.00">chdr::mazes::grid::size</text>
</a>
</g>
</g>
<!-- Node1&#45;&gt;Node10 -->
<g id="edge12_Node000001_Node000010" class="edge">
<title>Node1&#45;&gt;Node10</title>
<g id="a_edge12_Node000001_Node000010"><a xlink:title=" ">
<path fill="none" stroke="#63b8ff" d="M21.03,-145.78C24.26,-122.56 36.28,-58.72 74,-25.5 75.56,-24.13 77.22,-22.86 78.96,-21.7"/>
<polygon fill="#63b8ff" stroke="#63b8ff" points="81.07,-24.54 88.2,-16.7 77.74,-18.38 81.07,-24.54"/>
</a>
</g>
</g>
<!-- Node3&#45;&gt;Node3 -->
<g id="edge3_Node000003_Node000003" class="edge">
<title>Node3&#45;&gt;Node3</title>
<g id="a_edge3_Node000003_Node000003"><a xlink:title=" ">
<path fill="none" stroke="#63b8ff" d="M119.22,-274.19C109.67,-282.67 115.43,-292 136.5,-292 150,-292 157.21,-288.17 158.15,-283.19"/>
<polygon fill="#63b8ff" stroke="#63b8ff" points="161.29,-281.66 153.78,-274.19 154.99,-284.71 161.29,-281.66"/>
</a>
</g>
</g>
<!-- Node3&#45;&gt;Node4 -->
<g id="edge4_Node000003_Node000004" class="edge">
<title>Node3&#45;&gt;Node4</title>
<g id="a_edge4_Node000003_Node000004"><a xlink:title=" ">
<path fill="none" stroke="#63b8ff" d="M181.42,-260.46C204.52,-257.81 232.85,-254.55 256.35,-251.86"/>
<polygon fill="#63b8ff" stroke="#63b8ff" points="256.9,-255.32 266.44,-250.7 256.1,-248.36 256.9,-255.32"/>
</a>
</g>
</g>
<!-- Node8&#45;&gt;Node6 -->
<g id="edge9_Node000008_Node000006" class="edge">
<title>Node8&#45;&gt;Node6</title>
<g id="a_edge9_Node000008_Node000006"><a xlink:title=" ">
<path fill="none" stroke="#63b8ff" d="M199.13,-124.2C213.4,-125.75 228.57,-127.4 242.78,-128.95"/>
<polygon fill="#63b8ff" stroke="#63b8ff" points="242.61,-132.45 252.93,-130.05 243.37,-125.49 242.61,-132.45"/>
</a>
</g>
</g>
<!-- Node8&#45;&gt;Node7 -->
<g id="edge10_Node000008_Node000007" class="edge">
<title>Node8&#45;&gt;Node7</title>
<g id="a_edge10_Node000008_Node000007"><a xlink:title=" ">
<path fill="none" stroke="#63b8ff" d="M199.13,-110.8C207.52,-109.89 216.21,-108.94 224.85,-108"/>
<polygon fill="#63b8ff" stroke="#63b8ff" points="225.36,-111.46 234.93,-106.9 224.61,-104.51 225.36,-111.46"/>
</a>
</g>
</g>
</g>
</svg>
