<?xml version="1.0" encoding="UTF-8" standalone="no"?>
<!DOCTYPE svg PUBLIC "-//W3C//DTD SVG 1.1//EN"
 "http://www.w3.org/Graphics/SVG/1.1/DTD/svg11.dtd">
<!-- Generated by graphviz version 2.42.4 (0)
 -->
<!-- Title: contains Pages: 1 -->
<svg width="162pt" height="95pt"
 viewBox="0.00 0.00 162.00 95.00" xmlns="http://www.w3.org/2000/svg" xmlns:xlink="http://www.w3.org/1999/xlink">
<g id="graph0" class="graph" transform="scale(1 1) rotate(0) translate(4 91)">
<title>contains</title>
<!-- Node1 -->
<g id="Node000001" class="node">
<title>Node1</title>
<g id="a_Node000001"><a xlink:title=" ">
<polygon fill="#999999" stroke="#666666" points="154,-52 108,-52 108,-35 154,-35 154,-52"/>
<text text-anchor="middle" x="131" y="-41.6" font-family="Helvetica,sans-Serif" font-size="8.00">contains</text>
</a>
</g>
</g>
<!-- Node2 -->
<g id="Node000002" class="node">
<title>Node2</title>
<g id="a_Node000002"><a xlink:href="../../d9/dcb/classchdr_1_1mazes_1_1graph_abe2a6e079551372e0ed654c8f6562002.html#abe2a6e079551372e0ed654c8f6562002" target="_top" xlink:title=" ">
<polygon fill="white" stroke="#666666" points="72,-87 0,-87 0,-70 72,-70 72,-87"/>
<text text-anchor="middle" x="36" y="-76.6" font-family="Helvetica,sans-Serif" font-size="8.00">get_neighbours</text>
</a>
</g>
</g>
<!-- Node1&#45;&gt;Node2 -->
<g id="edge1_Node000001_Node000002" class="edge">
<title>Node1&#45;&gt;Node2</title>
<g id="a_edge1_Node000001_Node000002"><a xlink:title=" ">
<path fill="none" stroke="#63b8ff" d="M98.27,-55.44C85.66,-60.19 71.42,-65.54 59.85,-69.9"/>
<polygon fill="#63b8ff" stroke="#63b8ff" points="99.83,-58.59 107.96,-51.79 97.37,-52.04 99.83,-58.59"/>
</a>
</g>
</g>
<!-- Node3 -->
<g id="Node000003" class="node">
<title>Node3</title>
<g id="a_Node000003"><a xlink:href="../../d9/dcb/classchdr_1_1mazes_1_1graph_a8b3691d2eabbeddb2f43e5dcaa641b39.html#a8b3691d2eabbeddb2f43e5dcaa641b39" target="_top" xlink:title="Retrieves the vertex at a specified index.">
<polygon fill="white" stroke="#666666" points="62,-52 10,-52 10,-35 62,-35 62,-52"/>
<text text-anchor="middle" x="36" y="-41.6" font-family="Helvetica,sans-Serif" font-size="8.00">operator[]</text>
</a>
</g>
</g>
<!-- Node1&#45;&gt;Node3 -->
<g id="edge2_Node000001_Node000003" class="edge">
<title>Node1&#45;&gt;Node3</title>
<g id="a_edge2_Node000001_Node000003"><a xlink:title=" ">
<path fill="none" stroke="#63b8ff" d="M97.73,-43.5C86.08,-43.5 73.12,-43.5 62.17,-43.5"/>
<polygon fill="#63b8ff" stroke="#63b8ff" points="97.96,-47 107.96,-43.5 97.96,-40 97.96,-47"/>
</a>
</g>
</g>
<!-- Node4 -->
<g id="Node000004" class="node">
<title>Node4</title>
<g id="a_Node000004"><a xlink:href="../../d9/dcb/classchdr_1_1mazes_1_1graph_a50cc7fa4c48882e5665f24305a38fc3b.html#a50cc7fa4c48882e5665f24305a38fc3b" target="_top" xlink:title=" ">
<polygon fill="white" stroke="#666666" points="58,-17 14,-17 14,0 58,0 58,-17"/>
<text text-anchor="middle" x="36" y="-6.6" font-family="Helvetica,sans-Serif" font-size="8.00">remove</text>
</a>
</g>
</g>
<!-- Node1&#45;&gt;Node4 -->
<g id="edge3_Node000001_Node000004" class="edge">
<title>Node1&#45;&gt;Node4</title>
<g id="a_edge3_Node000001_Node000004"><a xlink:title=" ">
<path fill="none" stroke="#63b8ff" d="M98.29,-31.56C85.08,-26.59 70.09,-20.95 58.24,-16.49"/>
<polygon fill="#63b8ff" stroke="#63b8ff" points="97.37,-34.96 107.96,-35.21 99.83,-28.41 97.37,-34.96"/>
</a>
</g>
</g>
</g>
</svg>
