<?xml version="1.0" encoding="UTF-8" standalone="no"?>
<!DOCTYPE svg PUBLIC "-//W3C//DTD SVG 1.1//EN"
 "http://www.w3.org/Graphics/SVG/1.1/DTD/svg11.dtd">
<!-- Generated by graphviz version 2.42.4 (0)
 -->
<!-- Title: prune Pages: 1 -->
<svg width="268pt" height="96pt"
 viewBox="0.00 0.00 268.00 96.00" xmlns="http://www.w3.org/2000/svg" xmlns:xlink="http://www.w3.org/1999/xlink">
<g id="graph0" class="graph" transform="scale(1 1) rotate(0) translate(4 92)">
<title>prune</title>
<!-- Node1 -->
<g id="Node000001" class="node">
<title>Node1</title>
<g id="a_Node000001"><a xlink:title="Prunes the graph of transitory nodes.">
<polygon fill="#999999" stroke="#666666" points="38,-43 0,-43 0,-26 38,-26 38,-43"/>
<text text-anchor="middle" x="19" y="-32.6" font-family="Helvetica,sans-Serif" font-size="8.00">prune</text>
</a>
</g>
</g>
<!-- Node2 -->
<g id="Node000002" class="node">
<title>Node2</title>
<g id="a_Node000002"><a xlink:href="../../d9/dcb/classchdr_1_1mazes_1_1graph_abe2a6e079551372e0ed654c8f6562002.html#abe2a6e079551372e0ed654c8f6562002" target="_top" xlink:title=" ">
<polygon fill="white" stroke="#666666" points="162,-70 90,-70 90,-53 162,-53 162,-70"/>
<text text-anchor="middle" x="126" y="-59.6" font-family="Helvetica,sans-Serif" font-size="8.00">get_neighbours</text>
</a>
</g>
</g>
<!-- Node1&#45;&gt;Node2 -->
<g id="edge1_Node000001_Node000002" class="edge">
<title>Node1&#45;&gt;Node2</title>
<g id="a_edge1_Node000001_Node000002"><a xlink:title=" ">
<path fill="none" stroke="#63b8ff" d="M38.29,-39.2C50.34,-42.3 66.65,-46.5 81.87,-50.41"/>
<polygon fill="#63b8ff" stroke="#63b8ff" points="81.1,-53.83 91.66,-52.93 82.85,-47.05 81.1,-53.83"/>
</a>
</g>
</g>
<!-- Node4 -->
<g id="Node000004" class="node">
<title>Node4</title>
<g id="a_Node000004"><a xlink:href="../../d7/d65/intrinsics_8hpp_a2d6187f2cbd7367ae341413476f8ba92.html#a2d6187f2cbd7367ae341413476f8ba92" target="_top" xlink:title="Forces heap defragmentation and consolidation by the internal memory allocator.">
<polygon fill="white" stroke="#666666" points="178,-17 74,-17 74,0 178,0 178,-17"/>
<text text-anchor="middle" x="126" y="-6.6" font-family="Helvetica,sans-Serif" font-size="8.00">chdr::malloc_consolidate</text>
</a>
</g>
</g>
<!-- Node1&#45;&gt;Node4 -->
<g id="edge5_Node000001_Node000004" class="edge">
<title>Node1&#45;&gt;Node4</title>
<g id="a_edge5_Node000001_Node000004"><a xlink:title=" ">
<path fill="none" stroke="#63b8ff" d="M38.29,-29.97C49.94,-27.09 65.57,-23.22 80.35,-19.56"/>
<polygon fill="#63b8ff" stroke="#63b8ff" points="81.52,-22.87 90.38,-17.07 79.83,-16.08 81.52,-22.87"/>
</a>
</g>
</g>
<!-- Node2&#45;&gt;Node2 -->
<g id="edge4_Node000002_Node000002" class="edge">
<title>Node2&#45;&gt;Node2</title>
<g id="a_edge4_Node000002_Node000002"><a xlink:title=" ">
<path fill="none" stroke="#63b8ff" d="M110.21,-70.19C101.48,-78.67 106.75,-88 126,-88 138.03,-88 144.6,-84.36 145.71,-79.55"/>
<polygon fill="#63b8ff" stroke="#63b8ff" points="148.88,-78.06 141.79,-70.19 142.42,-80.76 148.88,-78.06"/>
</a>
</g>
</g>
<!-- Node3 -->
<g id="Node000003" class="node">
<title>Node3</title>
<g id="a_Node000003"><a xlink:href="../../d9/dcb/classchdr_1_1mazes_1_1graph_ab276ef23dd28f7f3f6a804f7a958141d.html#ab276ef23dd28f7f3f6a804f7a958141d" target="_top" xlink:title=" ">
<polygon fill="white" stroke="#666666" points="260,-70 214,-70 214,-53 260,-53 260,-70"/>
<text text-anchor="middle" x="237" y="-59.6" font-family="Helvetica,sans-Serif" font-size="8.00">contains</text>
</a>
</g>
</g>
<!-- Node2&#45;&gt;Node3 -->
<g id="edge2_Node000002_Node000003" class="edge">
<title>Node2&#45;&gt;Node3</title>
<g id="a_edge2_Node000002_Node000003"><a xlink:title=" ">
<path fill="none" stroke="#63b8ff" d="M162.09,-55.15C175.54,-54.57 190.81,-54.62 203.97,-55.29"/>
<polygon fill="#63b8ff" stroke="#63b8ff" points="203.78,-58.78 213.99,-55.96 204.24,-51.8 203.78,-58.78"/>
</a>
</g>
</g>
<!-- Node3&#45;&gt;Node2 -->
<g id="edge3_Node000003_Node000002" class="edge">
<title>Node3&#45;&gt;Node2</title>
<g id="a_edge3_Node000003_Node000002"><a xlink:title=" ">
<path fill="none" stroke="#63b8ff" d="M213.99,-67.04C202.02,-68.06 186.75,-68.44 172.35,-68.16"/>
<polygon fill="#63b8ff" stroke="#63b8ff" points="172.19,-64.66 162.09,-67.85 171.98,-71.66 172.19,-64.66"/>
</a>
</g>
</g>
<!-- Node4&#45;&gt;Node4 -->
<g id="edge6_Node000004_Node000004" class="edge">
<title>Node4&#45;&gt;Node4</title>
<g id="a_edge6_Node000004_Node000004"><a xlink:title=" ">
<path fill="none" stroke="#63b8ff" d="M110.21,-17.19C101.48,-25.67 106.75,-35 126,-35 138.03,-35 144.6,-31.36 145.71,-26.55"/>
<polygon fill="#63b8ff" stroke="#63b8ff" points="148.88,-25.06 141.79,-17.19 142.42,-27.76 148.88,-25.06"/>
</a>
</g>
</g>
</g>
</svg>
