<?xml version="1.0" encoding="UTF-8" standalone="no"?>
<!DOCTYPE svg PUBLIC "-//W3C//DTD SVG 1.1//EN"
 "http://www.w3.org/Graphics/SVG/1.1/DTD/svg11.dtd">
<!-- Generated by graphviz version 2.43.0 (0)
 -->
<!-- Title: graph Pages: 1 -->
<svg width="381pt" height="353pt"
 viewBox="0.00 0.00 381.00 353.00" xmlns="http://www.w3.org/2000/svg" xmlns:xlink="http://www.w3.org/1999/xlink">
<g id="graph0" class="graph" transform="scale(1 1) rotate(0) translate(4 349)">
<title>graph</title>
<!-- Node1 -->
<g id="Node000001" class="node">
<title>Node1</title>
<g id="a_Node000001"><a xlink:title="Constructs a graph instance from a grid structure.">
<polygon fill="#999999" stroke="#666666" points="38,-179 0,-179 0,-162 38,-162 38,-179"/>
<text text-anchor="middle" x="19" y="-168.6" font-family="Helvetica,sans-Serif" font-size="8.00">graph</text>
</a>
</g>
</g>
<!-- Node2 -->
<g id="Node000002" class="node">
<title>Node2</title>
<g id="a_Node000002"><a xlink:href="../../dd/de3/classchdr_1_1mazes_1_1grid_a2c953e28d925a8042220b3abe9023479.html#a2c953e28d925a8042220b3abe9023479" target="_top" xlink:title="Retrieves the node at a specified coordinate.">
<polygon fill="white" stroke="#666666" points="181,-327 92,-327 92,-310 181,-310 181,-327"/>
<text text-anchor="middle" x="136.5" y="-316.6" font-family="Helvetica,sans-Serif" font-size="8.00">chdr::mazes::grid::at</text>
</a>
</g>
</g>
<!-- Node1&#45;&gt;Node2 -->
<g id="edge1_Node000001_Node000002" class="edge">
<title>Node1&#45;&gt;Node2</title>
<g id="a_edge1_Node000001_Node000002"><a xlink:title=" ">
<path fill="none" stroke="#63b8ff" d="M21.34,-179.1C25.25,-201.45 38.72,-261.94 74,-295.5 78.34,-299.63 83.49,-303.03 88.93,-305.83"/>
<polygon fill="#63b8ff" stroke="#63b8ff" points="87.72,-309.12 98.27,-310 90.57,-302.73 87.72,-309.12"/>
</a>
</g>
</g>
<!-- Node3 -->
<g id="Node000003" class="node">
<title>Node3</title>
<g id="a_Node000003"><a xlink:href="../../d2/dcb/structchdr_1_1utils_a5741e93a4c4f5630e7c86bda862cf611.html#a5741e93a4c4f5630e7c86bda862cf611" target="_top" xlink:title="Maps a multi&#45;dimensional index to a one&#45;dimensional array index.">
<polygon fill="white" stroke="#666666" points="341.5,-308 266.5,-308 266.5,-291 341.5,-291 341.5,-308"/>
<text text-anchor="middle" x="304" y="-297.6" font-family="Helvetica,sans-Serif" font-size="8.00">chdr::utils::to_1d</text>
</a>
</g>
</g>
<!-- Node1&#45;&gt;Node3 -->
<g id="edge14_Node000001_Node000003" class="edge">
<title>Node1&#45;&gt;Node3</title>
<g id="a_edge14_Node000001_Node000003"><a xlink:title=" ">
<path fill="none" stroke="#63b8ff" d="M22.32,-179.06C27.83,-197.64 43.58,-241.69 74,-262.5 128.3,-299.66 206.56,-304.46 256.09,-303.07"/>
<polygon fill="#63b8ff" stroke="#63b8ff" points="256.34,-306.56 266.2,-302.69 256.07,-299.56 256.34,-306.56"/>
</a>
</g>
</g>
<!-- Node4 -->
<g id="Node000004" class="node">
<title>Node4</title>
<g id="a_Node000004"><a xlink:href="../../d2/dcb/structchdr_1_1utils_ab94b095ba27e03185c77fca09d6974e8.html#ab94b095ba27e03185c77fca09d6974e8" target="_top" xlink:title="Constrains a value to lie within a specified range.">
<polygon fill="white" stroke="#666666" points="174.5,-253 98.5,-253 98.5,-236 174.5,-236 174.5,-253"/>
<text text-anchor="middle" x="136.5" y="-242.6" font-family="Helvetica,sans-Serif" font-size="8.00">chdr::utils::clamp</text>
</a>
</g>
</g>
<!-- Node1&#45;&gt;Node4 -->
<g id="edge4_Node000001_Node000004" class="edge">
<title>Node1&#45;&gt;Node4</title>
<g id="a_edge4_Node000001_Node000004"><a xlink:title=" ">
<path fill="none" stroke="#63b8ff" d="M27.21,-179.19C36.85,-190.34 54.96,-209.63 74,-221.5 80.73,-225.7 88.35,-229.31 95.88,-232.35"/>
<polygon fill="#63b8ff" stroke="#63b8ff" points="94.69,-235.65 105.29,-235.89 97.16,-229.09 94.69,-235.65"/>
</a>
</g>
</g>
<!-- Node5 -->
<g id="Node000005" class="node">
<title>Node5</title>
<g id="a_Node000005"><a xlink:href="../../dd/de3/classchdr_1_1mazes_1_1grid_ad6077e456dd6abb62d82087b55dc2331.html#ad6077e456dd6abb62d82087b55dc2331" target="_top" xlink:title="Retrieves the total count of elements in the grid.">
<polygon fill="white" stroke="#666666" points="355,-197 253,-197 253,-180 355,-180 355,-197"/>
<text text-anchor="middle" x="304" y="-186.6" font-family="Helvetica,sans-Serif" font-size="8.00">chdr::mazes::grid::count</text>
</a>
</g>
</g>
<!-- Node1&#45;&gt;Node5 -->
<g id="edge5_Node000001_Node000005" class="edge">
<title>Node1&#45;&gt;Node5</title>
<g id="a_edge5_Node000001_Node000005"><a xlink:title=" ">
<path fill="none" stroke="#63b8ff" d="M38.12,-178.17C48.44,-182.11 61.71,-186.51 74,-188.5 130.55,-197.68 196,-196.52 242.4,-193.76"/>
<polygon fill="#63b8ff" stroke="#63b8ff" points="242.84,-197.24 252.6,-193.11 242.39,-190.25 242.84,-197.24"/>
</a>
</g>
</g>
<!-- Node6 -->
<g id="Node000006" class="node">
<title>Node6</title>
<g id="a_Node000006"><a xlink:href="../../dd/de3/classchdr_1_1mazes_1_1grid_a0abdfb4af71cccf812fb2b7150f0cc72.html#a0abdfb4af71cccf812fb2b7150f0cc72" target="_top" xlink:title="Retrieves the neighbours of a node within the grid.">
<polygon fill="white" stroke="#666666" points="373,-161 235,-161 235,-144 373,-144 373,-161"/>
<text text-anchor="middle" x="304" y="-150.6" font-family="Helvetica,sans-Serif" font-size="8.00">chdr::mazes::grid::get_neighbours</text>
</a>
</g>
</g>
<!-- Node1&#45;&gt;Node6 -->
<g id="edge6_Node000001_Node000006" class="edge">
<title>Node1&#45;&gt;Node6</title>
<g id="a_edge6_Node000001_Node000006"><a xlink:title=" ">
<path fill="none" stroke="#63b8ff" d="M38.12,-162.83C48.44,-158.89 61.71,-154.49 74,-152.5 123.7,-144.44 180.26,-144.35 224.74,-146.32"/>
<polygon fill="#63b8ff" stroke="#63b8ff" points="224.75,-149.83 234.91,-146.82 225.09,-142.83 224.75,-149.83"/>
</a>
</g>
</g>
<!-- Node7 -->
<g id="Node000007" class="node">
<title>Node7</title>
<g id="a_Node000007"><a xlink:href="../../dd/de3/classchdr_1_1mazes_1_1grid_a264c48c1d975bf357e96edcb92331ad2.html#a264c48c1d975bf357e96edcb92331ad2" target="_top" xlink:title="Determines whether a cell at the given index is transitory.">
<polygon fill="white" stroke="#666666" points="199,-179 74,-179 74,-162 199,-162 199,-179"/>
<text text-anchor="middle" x="136.5" y="-168.6" font-family="Helvetica,sans-Serif" font-size="8.00">chdr::mazes::grid::is_transitory</text>
</a>
</g>
</g>
<!-- Node1&#45;&gt;Node7 -->
<g id="edge7_Node000001_Node000007" class="edge">
<title>Node1&#45;&gt;Node7</title>
<g id="a_edge7_Node000001_Node000007"><a xlink:title=" ">
<path fill="none" stroke="#63b8ff" d="M38.05,-170.5C45.35,-170.5 54.28,-170.5 63.76,-170.5"/>
<polygon fill="#63b8ff" stroke="#63b8ff" points="63.78,-174 73.78,-170.5 63.78,-167 63.78,-174"/>
</a>
</g>
</g>
<!-- Node8 -->
<g id="Node000008" class="node">
<title>Node8</title>
<g id="a_Node000008"><a xlink:href="../../d7/d65/intrinsics_8hpp_a6079a0cf08f5514307afb208fadeb966.html#a6079a0cf08f5514307afb208fadeb966" target="_top" xlink:title="Forces heap defragmentation and consolidation by the internal memory allocator.">
<polygon fill="white" stroke="#666666" points="188.5,-87 84.5,-87 84.5,-70 188.5,-70 188.5,-87"/>
<text text-anchor="middle" x="136.5" y="-76.6" font-family="Helvetica,sans-Serif" font-size="8.00">chdr::malloc_consolidate</text>
</a>
</g>
</g>
<!-- Node1&#45;&gt;Node8 -->
<g id="edge10_Node000001_Node000008" class="edge">
<title>Node1&#45;&gt;Node8</title>
<g id="a_edge10_Node000001_Node000008"><a xlink:title=" ">
<path fill="none" stroke="#63b8ff" d="M28.38,-161.72C38.66,-151.16 56.85,-133.15 74,-119.5 86.04,-109.91 100.3,-100.31 112.05,-92.81"/>
<polygon fill="#63b8ff" stroke="#63b8ff" points="114.24,-95.57 120.85,-87.29 110.52,-89.64 114.24,-95.57"/>
</a>
</g>
</g>
<!-- Node9 -->
<g id="Node000009" class="node">
<title>Node9</title>
<g id="a_Node000009"><a xlink:href="../../d2/dcb/structchdr_1_1utils_ac49e3cb9b2b007da03059d95020d8b49.html#ac49e3cb9b2b007da03059d95020d8b49" target="_top" xlink:title="Returns the smaller of two values.">
<polygon fill="white" stroke="#666666" points="170.5,-52 102.5,-52 102.5,-35 170.5,-35 170.5,-52"/>
<text text-anchor="middle" x="136.5" y="-41.6" font-family="Helvetica,sans-Serif" font-size="8.00">chdr::utils::min</text>
</a>
</g>
</g>
<!-- Node1&#45;&gt;Node9 -->
<g id="edge12_Node000001_Node000009" class="edge">
<title>Node1&#45;&gt;Node9</title>
<g id="a_edge12_Node000001_Node000009"><a xlink:title=" ">
<path fill="none" stroke="#63b8ff" d="M21.71,-161.85C26.28,-141.08 40.75,-88.06 74,-60.5 79.39,-56.04 85.86,-52.74 92.55,-50.31"/>
<polygon fill="#63b8ff" stroke="#63b8ff" points="93.86,-53.57 102.42,-47.32 91.83,-46.87 93.86,-53.57"/>
</a>
</g>
</g>
<!-- Node10 -->
<g id="Node000010" class="node">
<title>Node10</title>
<g id="a_Node000010"><a xlink:href="../../dd/de3/classchdr_1_1mazes_1_1grid_a32d34adb7833cb15aa705c6c7ada57a8.html#a32d34adb7833cb15aa705c6c7ada57a8" target="_top" xlink:title="Retrieves the size of the grid.">
<polygon fill="white" stroke="#666666" points="184.5,-17 88.5,-17 88.5,0 184.5,0 184.5,-17"/>
<text text-anchor="middle" x="136.5" y="-6.6" font-family="Helvetica,sans-Serif" font-size="8.00">chdr::mazes::grid::size</text>
</a>
</g>
</g>
<!-- Node1&#45;&gt;Node10 -->
<g id="edge13_Node000001_Node000010" class="edge">
<title>Node1&#45;&gt;Node10</title>
<g id="a_edge13_Node000001_Node000010"><a xlink:title=" ">
<path fill="none" stroke="#63b8ff" d="M20.58,-161.83C22.72,-136.77 32.42,-63.62 74,-25.5 75.69,-23.95 77.51,-22.54 79.43,-21.25"/>
<polygon fill="#63b8ff" stroke="#63b8ff" points="81.25,-24.25 88.36,-16.4 77.9,-18.1 81.25,-24.25"/>
</a>
</g>
</g>
<!-- Node2&#45;&gt;Node2 -->
<g id="edge2_Node000002_Node000002" class="edge">
<title>Node2&#45;&gt;Node2</title>
<g id="a_edge2_Node000002_Node000002"><a xlink:title=" ">
<path fill="none" stroke="#63b8ff" d="M119.22,-327.19C109.67,-335.67 115.43,-345 136.5,-345 150,-345 157.21,-341.17 158.15,-336.19"/>
<polygon fill="#63b8ff" stroke="#63b8ff" points="161.29,-334.66 153.78,-327.19 154.99,-337.71 161.29,-334.66"/>
</a>
</g>
</g>
<!-- Node2&#45;&gt;Node3 -->
<g id="edge3_Node000002_Node000003" class="edge">
<title>Node2&#45;&gt;Node3</title>
<g id="a_edge3_Node000002_Node000003"><a xlink:title=" ">
<path fill="none" stroke="#63b8ff" d="M181.42,-313.46C204.52,-310.81 232.85,-307.55 256.35,-304.86"/>
<polygon fill="#63b8ff" stroke="#63b8ff" points="256.9,-308.32 266.44,-303.7 256.1,-301.36 256.9,-308.32"/>
</a>
</g>
</g>
<!-- Node7&#45;&gt;Node5 -->
<g id="edge8_Node000007_Node000005" class="edge">
<title>Node7&#45;&gt;Node5</title>
<g id="a_edge8_Node000007_Node000005"><a xlink:title=" ">
<path fill="none" stroke="#63b8ff" d="M199.13,-177.2C213.4,-178.75 228.57,-180.4 242.78,-181.95"/>
<polygon fill="#63b8ff" stroke="#63b8ff" points="242.61,-185.45 252.93,-183.05 243.37,-178.49 242.61,-185.45"/>
</a>
</g>
</g>
<!-- Node7&#45;&gt;Node6 -->
<g id="edge9_Node000007_Node000006" class="edge">
<title>Node7&#45;&gt;Node6</title>
<g id="a_edge9_Node000007_Node000006"><a xlink:title=" ">
<path fill="none" stroke="#63b8ff" d="M199.13,-163.8C207.52,-162.89 216.21,-161.94 224.85,-161"/>
<polygon fill="#63b8ff" stroke="#63b8ff" points="225.36,-164.46 234.93,-159.9 224.61,-157.51 225.36,-164.46"/>
</a>
</g>
</g>
<!-- Node8&#45;&gt;Node8 -->
<g id="edge11_Node000008_Node000008" class="edge">
<title>Node8&#45;&gt;Node8</title>
<g id="a_edge11_Node000008_Node000008"><a xlink:title=" ">
<path fill="none" stroke="#63b8ff" d="M119.22,-87.19C109.67,-95.67 115.43,-105 136.5,-105 150,-105 157.21,-101.17 158.15,-96.19"/>
<polygon fill="#63b8ff" stroke="#63b8ff" points="161.29,-94.66 153.78,-87.19 154.99,-97.71 161.29,-94.66"/>
</a>
</g>
</g>
</g>
</svg>
