<?xml version="1.0" encoding="UTF-8" standalone="no"?>
<!DOCTYPE svg PUBLIC "-//W3C//DTD SVG 1.1//EN"
 "http://www.w3.org/Graphics/SVG/1.1/DTD/svg11.dtd">
<!-- Generated by graphviz version 2.43.0 (0)
 -->
<!-- Title: prune Pages: 1 -->
<svg width="186pt" height="43pt"
 viewBox="0.00 0.00 186.00 43.00" xmlns="http://www.w3.org/2000/svg" xmlns:xlink="http://www.w3.org/1999/xlink">
<g id="graph0" class="graph" transform="scale(1 1) rotate(0) translate(4 39)">
<title>prune</title>
<!-- Node1 -->
<g id="Node000001" class="node">
<title>Node1</title>
<g id="a_Node000001"><a xlink:title="Prunes the graph of transitory nodes.">
<polygon fill="#999999" stroke="#666666" points="38,-17 0,-17 0,0 38,0 38,-17"/>
<text text-anchor="middle" x="19" y="-6.6" font-family="Helvetica,sans-Serif" font-size="8.00">prune</text>
</a>
</g>
</g>
<!-- Node2 -->
<g id="Node000002" class="node">
<title>Node2</title>
<g id="a_Node000002"><a xlink:href="../../d7/d65/intrinsics_8hpp_a6079a0cf08f5514307afb208fadeb966.html#a6079a0cf08f5514307afb208fadeb966" target="_top" xlink:title="Forces heap defragmentation and consolidation by the internal memory allocator.">
<polygon fill="white" stroke="#666666" points="178,-17 74,-17 74,0 178,0 178,-17"/>
<text text-anchor="middle" x="126" y="-6.6" font-family="Helvetica,sans-Serif" font-size="8.00">chdr::malloc_consolidate</text>
</a>
</g>
</g>
<!-- Node1&#45;&gt;Node2 -->
<g id="edge1_Node000001_Node000002" class="edge">
<title>Node1&#45;&gt;Node2</title>
<g id="a_edge1_Node000001_Node000002"><a xlink:title=" ">
<path fill="none" stroke="#63b8ff" d="M38.29,-8.5C45.62,-8.5 54.54,-8.5 63.82,-8.5"/>
<polygon fill="#63b8ff" stroke="#63b8ff" points="63.99,-12 73.99,-8.5 63.99,-5 63.99,-12"/>
</a>
</g>
</g>
<!-- Node2&#45;&gt;Node2 -->
<g id="edge2_Node000002_Node000002" class="edge">
<title>Node2&#45;&gt;Node2</title>
<g id="a_edge2_Node000002_Node000002"><a xlink:title=" ">
<path fill="none" stroke="#63b8ff" d="M110.21,-17.19C101.48,-25.67 106.75,-35 126,-35 138.03,-35 144.6,-31.36 145.71,-26.55"/>
<polygon fill="#63b8ff" stroke="#63b8ff" points="148.88,-25.06 141.79,-17.19 142.42,-27.76 148.88,-25.06"/>
</a>
</g>
</g>
</g>
</svg>
