<?xml version="1.0" encoding="UTF-8" standalone="no"?>
<!DOCTYPE svg PUBLIC "-//W3C//DTD SVG 1.1//EN"
 "http://www.w3.org/Graphics/SVG/1.1/DTD/svg11.dtd">
<!-- Generated by graphviz version 2.42.4 (0)
 -->
<!-- Title: get_neighbours Pages: 1 -->
<svg width="250pt" height="267pt"
 viewBox="0.00 0.00 250.00 267.28" xmlns="http://www.w3.org/2000/svg" xmlns:xlink="http://www.w3.org/1999/xlink">
<g id="graph0" class="graph" transform="scale(1 1) rotate(0) translate(4 263.28)">
<title>get_neighbours</title>
<!-- Node1 -->
<g id="Node000001" class="node">
<title>Node1</title>
<g id="a_Node000001"><a xlink:title=" ">
<polygon fill="#999999" stroke="#666666" points="242,-128 170,-128 170,-111 242,-111 242,-128"/>
<text text-anchor="middle" x="206" y="-117.6" font-family="Helvetica,sans-Serif" font-size="8.00">get_neighbours</text>
</a>
</g>
</g>
<!-- Node1&#45;&gt;Node1 -->
<g id="edge11_Node000001_Node000001" class="edge">
<title>Node1&#45;&gt;Node1</title>
<g id="a_edge11_Node000001_Node000001"><a xlink:title=" ">
<path fill="none" stroke="#63b8ff" d="M223.39,-137.91C222.2,-142.54 216.4,-146 206,-146 188.93,-146 184.26,-136.67 191.99,-128.19"/>
<polygon fill="#63b8ff" stroke="#63b8ff" points="226.6,-136.48 220.01,-128.19 219.99,-138.78 226.6,-136.48"/>
</a>
</g>
</g>
<!-- Node2 -->
<g id="Node000002" class="node">
<title>Node2</title>
<g id="a_Node000002"><a xlink:href="../../d9/dcb/classchdr_1_1mazes_1_1graph_a5ca1351a03df5ff49f85cc4b5669cefc.html#a5ca1351a03df5ff49f85cc4b5669cefc" target="_top" xlink:title="Constructs a graph instance from a grid structure.">
<polygon fill="white" stroke="#666666" points="45,-257 7,-257 7,-240 45,-240 45,-257"/>
<text text-anchor="middle" x="26" y="-246.6" font-family="Helvetica,sans-Serif" font-size="8.00">graph</text>
</a>
</g>
</g>
<!-- Node1&#45;&gt;Node2 -->
<g id="edge1_Node000001_Node000002" class="edge">
<title>Node1&#45;&gt;Node2</title>
<g id="a_edge1_Node000001_Node000002"><a xlink:title=" ">
<path fill="none" stroke="#63b8ff" d="M201.08,-138.06C193.73,-167.59 174.78,-224.39 134,-248.5 106.49,-264.76 67.65,-259.17 45.12,-253.75"/>
<polygon fill="#63b8ff" stroke="#63b8ff" points="204.52,-138.73 203.35,-128.2 197.69,-137.16 204.52,-138.73"/>
</a>
</g>
</g>
<!-- Node3 -->
<g id="Node000003" class="node">
<title>Node3</title>
<g id="a_Node000003"><a xlink:href="../../d9/dcb/classchdr_1_1mazes_1_1graph_a9c5fa6f424fe23ab89d383a1f8f78b02.html#a9c5fa6f424fe23ab89d383a1f8f78b02" target="_top" xlink:title="Constructs a graph instance from an adjacency list.">
<polygon fill="white" stroke="#666666" points="45,-212 7,-212 7,-195 45,-195 45,-212"/>
<text text-anchor="middle" x="26" y="-201.6" font-family="Helvetica,sans-Serif" font-size="8.00">graph</text>
</a>
</g>
</g>
<!-- Node1&#45;&gt;Node3 -->
<g id="edge2_Node000001_Node000003" class="edge">
<title>Node1&#45;&gt;Node3</title>
<g id="a_edge2_Node000001_Node000003"><a xlink:title=" ">
<path fill="none" stroke="#63b8ff" d="M188.62,-135.26C175,-147.58 154.58,-164.26 134,-174.5 104.71,-189.08 67.14,-197.08 45.2,-200.82"/>
<polygon fill="#63b8ff" stroke="#63b8ff" points="191.21,-137.63 196.16,-128.26 186.45,-132.5 191.21,-137.63"/>
</a>
</g>
</g>
<!-- Node4 -->
<g id="Node000004" class="node">
<title>Node4</title>
<g id="a_Node000004"><a xlink:href="../../d9/dcb/classchdr_1_1mazes_1_1graph_ab41a4e064828273b133921f8d05a7540.html#ab41a4e064828273b133921f8d05a7540" target="_top" xlink:title="Adds a new vertex to the graph with the specified identifier.">
<polygon fill="white" stroke="#666666" points="126,-239 96,-239 96,-222 126,-222 126,-239"/>
<text text-anchor="middle" x="111" y="-228.6" font-family="Helvetica,sans-Serif" font-size="8.00">add</text>
</a>
</g>
</g>
<!-- Node1&#45;&gt;Node4 -->
<g id="edge3_Node000001_Node000004" class="edge">
<title>Node1&#45;&gt;Node4</title>
<g id="a_edge3_Node000001_Node000004"><a xlink:title=" ">
<path fill="none" stroke="#63b8ff" d="M191.97,-136.5C178.03,-154.49 155.08,-183.52 134,-207.5 129.77,-212.31 124.85,-217.49 120.75,-221.71"/>
<polygon fill="#63b8ff" stroke="#63b8ff" points="195.05,-138.25 198.38,-128.19 189.5,-133.97 195.05,-138.25"/>
</a>
</g>
</g>
<!-- Node5 -->
<g id="Node000005" class="node">
<title>Node5</title>
<g id="a_Node000005"><a xlink:href="../../d9/dcb/classchdr_1_1mazes_1_1graph_a8e662ec5003e04b135c5d7cdb6c91db7.html#a8e662ec5003e04b135c5d7cdb6c91db7" target="_top" xlink:title="Adds a new edge to the graph with the specified identifier.">
<polygon fill="white" stroke="#666666" points="126,-165 96,-165 96,-148 126,-148 126,-165"/>
<text text-anchor="middle" x="111" y="-154.6" font-family="Helvetica,sans-Serif" font-size="8.00">add</text>
</a>
</g>
</g>
<!-- Node1&#45;&gt;Node5 -->
<g id="edge6_Node000001_Node000005" class="edge">
<title>Node1&#45;&gt;Node5</title>
<g id="a_edge6_Node000001_Node000005"><a xlink:title=" ">
<path fill="none" stroke="#63b8ff" d="M173.84,-131.9C157.72,-138.31 138.85,-145.82 126.23,-150.84"/>
<polygon fill="#63b8ff" stroke="#63b8ff" points="175.43,-135.03 183.43,-128.08 172.84,-128.53 175.43,-135.03"/>
</a>
</g>
</g>
<!-- Node6 -->
<g id="Node000006" class="node">
<title>Node6</title>
<g id="a_Node000006"><a xlink:href="../../d9/dcb/classchdr_1_1mazes_1_1graph_ab276ef23dd28f7f3f6a804f7a958141d.html#ab276ef23dd28f7f3f6a804f7a958141d" target="_top" xlink:title=" ">
<polygon fill="white" stroke="#666666" points="134,-91 88,-91 88,-74 134,-74 134,-91"/>
<text text-anchor="middle" x="111" y="-80.6" font-family="Helvetica,sans-Serif" font-size="8.00">contains</text>
</a>
</g>
</g>
<!-- Node1&#45;&gt;Node6 -->
<g id="edge7_Node000001_Node000006" class="edge">
<title>Node1&#45;&gt;Node6</title>
<g id="a_edge7_Node000001_Node000006"><a xlink:title=" ">
<path fill="none" stroke="#63b8ff" d="M185.82,-106.29C170.87,-98.88 150.07,-90.51 134.36,-85.53"/>
<polygon fill="#63b8ff" stroke="#63b8ff" points="184.21,-109.4 194.69,-110.97 187.48,-103.2 184.21,-109.4"/>
</a>
</g>
</g>
<!-- Node7 -->
<g id="Node000007" class="node">
<title>Node7</title>
<g id="a_Node000007"><a xlink:href="../../d9/dcb/classchdr_1_1mazes_1_1graph_a8b3691d2eabbeddb2f43e5dcaa641b39.html#a8b3691d2eabbeddb2f43e5dcaa641b39" target="_top" xlink:title="Retrieves the vertex at a specified index.">
<polygon fill="white" stroke="#666666" points="52,-109 0,-109 0,-92 52,-92 52,-109"/>
<text text-anchor="middle" x="26" y="-98.6" font-family="Helvetica,sans-Serif" font-size="8.00">operator[]</text>
</a>
</g>
</g>
<!-- Node1&#45;&gt;Node7 -->
<g id="edge12_Node000001_Node000007" class="edge">
<title>Node1&#45;&gt;Node7</title>
<g id="a_edge12_Node000001_Node000007"><a xlink:title=" ">
<path fill="none" stroke="#63b8ff" d="M159.63,-114.66C125.47,-111.01 79.91,-106.15 52.05,-103.17"/>
<polygon fill="#63b8ff" stroke="#63b8ff" points="159.52,-118.16 169.83,-115.75 160.26,-111.2 159.52,-118.16"/>
</a>
</g>
</g>
<!-- Node8 -->
<g id="Node000008" class="node">
<title>Node8</title>
<g id="a_Node000008"><a xlink:href="../../d9/dcb/classchdr_1_1mazes_1_1graph_a50cc7fa4c48882e5665f24305a38fc3b.html#a50cc7fa4c48882e5665f24305a38fc3b" target="_top" xlink:title=" ">
<polygon fill="white" stroke="#666666" points="48,-73 4,-73 4,-56 48,-56 48,-73"/>
<text text-anchor="middle" x="26" y="-62.6" font-family="Helvetica,sans-Serif" font-size="8.00">remove</text>
</a>
</g>
</g>
<!-- Node1&#45;&gt;Node8 -->
<g id="edge14_Node000001_Node000008" class="edge">
<title>Node1&#45;&gt;Node8</title>
<g id="a_edge14_Node000001_Node000008"><a xlink:title=" ">
<path fill="none" stroke="#63b8ff" d="M190.13,-103.1C176.9,-89.82 156.24,-72.11 134,-64.5 105.53,-54.76 70.24,-57.35 48.17,-60.56"/>
<polygon fill="#63b8ff" stroke="#63b8ff" points="187.92,-105.86 197.36,-110.67 192.99,-101.02 187.92,-105.86"/>
</a>
</g>
</g>
<!-- Node9 -->
<g id="Node000009" class="node">
<title>Node9</title>
<g id="a_Node000009"><a xlink:href="../../d9/dcb/classchdr_1_1mazes_1_1graph_a5d9e7e33eb15c5778780e40b320d4632.html#a5d9e7e33eb15c5778780e40b320d4632" target="_top" xlink:title="Prunes the graph of transitory nodes.">
<polygon fill="white" stroke="#666666" points="130,-17 92,-17 92,0 130,0 130,-17"/>
<text text-anchor="middle" x="111" y="-6.6" font-family="Helvetica,sans-Serif" font-size="8.00">prune</text>
</a>
</g>
</g>
<!-- Node1&#45;&gt;Node9 -->
<g id="edge13_Node000001_Node000009" class="edge">
<title>Node1&#45;&gt;Node9</title>
<g id="a_edge13_Node000001_Node000009"><a xlink:title=" ">
<path fill="none" stroke="#63b8ff" d="M191.97,-102.5C178.03,-84.51 155.08,-55.48 134,-31.5 129.77,-26.69 124.85,-21.51 120.75,-17.29"/>
<polygon fill="#63b8ff" stroke="#63b8ff" points="189.5,-105.03 198.38,-110.81 195.05,-100.75 189.5,-105.03"/>
</a>
</g>
</g>
<!-- Node4&#45;&gt;Node2 -->
<g id="edge4_Node000004_Node000002" class="edge">
<title>Node4&#45;&gt;Node2</title>
<g id="a_edge4_Node000004_Node000002"><a xlink:title=" ">
<path fill="none" stroke="#63b8ff" d="M85.82,-235.74C72.86,-238.56 57.15,-241.96 45.22,-244.55"/>
<polygon fill="#63b8ff" stroke="#63b8ff" points="86.89,-239.09 95.92,-233.55 85.41,-232.25 86.89,-239.09"/>
</a>
</g>
</g>
<!-- Node4&#45;&gt;Node3 -->
<g id="edge5_Node000004_Node000003" class="edge">
<title>Node4&#45;&gt;Node3</title>
<g id="a_edge5_Node000004_Node000003"><a xlink:title=" ">
<path fill="none" stroke="#63b8ff" d="M86.21,-222.76C73.17,-218.52 57.26,-213.35 45.22,-209.43"/>
<polygon fill="#63b8ff" stroke="#63b8ff" points="85.33,-226.15 95.92,-225.92 87.49,-219.5 85.33,-226.15"/>
</a>
</g>
</g>
<!-- Node6&#45;&gt;Node1 -->
<g id="edge8_Node000006_Node000001" class="edge">
<title>Node6&#45;&gt;Node1</title>
<g id="a_edge8_Node000006_Node000001"><a xlink:title=" ">
<path fill="none" stroke="#63b8ff" d="M131.69,-95.96C142.76,-101.42 156.92,-107.36 169.84,-112.08"/>
<polygon fill="#63b8ff" stroke="#63b8ff" points="132.99,-92.69 122.5,-91.15 129.73,-98.89 132.99,-92.69"/>
</a>
</g>
</g>
<!-- Node6&#45;&gt;Node7 -->
<g id="edge9_Node000006_Node000007" class="edge">
<title>Node6&#45;&gt;Node7</title>
<g id="a_edge9_Node000006_Node000007"><a xlink:title=" ">
<path fill="none" stroke="#63b8ff" d="M77.79,-89.49C69.31,-91.32 60.29,-93.28 52.24,-95.03"/>
<polygon fill="#63b8ff" stroke="#63b8ff" points="78.73,-92.86 87.76,-87.32 77.24,-86.02 78.73,-92.86"/>
</a>
</g>
</g>
<!-- Node6&#45;&gt;Node8 -->
<g id="edge10_Node000006_Node000008" class="edge">
<title>Node6&#45;&gt;Node8</title>
<g id="a_edge10_Node000006_Node000008"><a xlink:title=" ">
<path fill="none" stroke="#63b8ff" d="M77.77,-75.51C67.84,-73.36 57.15,-71.04 48.16,-69.09"/>
<polygon fill="#63b8ff" stroke="#63b8ff" points="77.24,-78.98 87.76,-77.68 78.73,-72.14 77.24,-78.98"/>
</a>
</g>
</g>
</g>
</svg>
