<?xml version="1.0" encoding="UTF-8" standalone="no"?>
<!DOCTYPE svg PUBLIC "-//W3C//DTD SVG 1.1//EN"
 "http://www.w3.org/Graphics/SVG/1.1/DTD/svg11.dtd">
<!-- Generated by graphviz version 2.43.0 (0)
 -->
<!-- Title: graph Pages: 1 -->
<svg width="381pt" height="545pt"
 viewBox="0.00 0.00 381.00 545.00" xmlns="http://www.w3.org/2000/svg" xmlns:xlink="http://www.w3.org/1999/xlink">
<g id="graph0" class="graph" transform="scale(1 1) rotate(0) translate(4 541)">
<title>graph</title>
<!-- Node1 -->
<g id="Node000001" class="node">
<title>Node1</title>
<g id="a_Node000001"><a xlink:title="Constructs a graph instance from a grid structure.">
<polygon fill="#999999" stroke="#666666" points="38,-266 0,-266 0,-249 38,-249 38,-266"/>
<text text-anchor="middle" x="19" y="-255.6" font-family="Helvetica,sans-Serif" font-size="8.00">graph</text>
</a>
</g>
</g>
<!-- Node2 -->
<g id="Node000002" class="node">
<title>Node2</title>
<g id="a_Node000002"><a xlink:href="../../d9/dcb/classchdr_1_1mazes_1_1graph_ab41a4e064828273b133921f8d05a7540.html#ab41a4e064828273b133921f8d05a7540" target="_top" xlink:title="Adds a new vertex to the graph with the specified identifier.">
<polygon fill="white" stroke="#666666" points="151.5,-537 121.5,-537 121.5,-520 151.5,-520 151.5,-537"/>
<text text-anchor="middle" x="136.5" y="-526.6" font-family="Helvetica,sans-Serif" font-size="8.00">add</text>
</a>
</g>
</g>
<!-- Node1&#45;&gt;Node2 -->
<g id="edge1_Node000001_Node000002" class="edge">
<title>Node1&#45;&gt;Node2</title>
<g id="a_edge1_Node000001_Node000002"><a xlink:title=" ">
<path fill="none" stroke="#63b8ff" d="M20.65,-266.15C23.87,-306.35 39.23,-474.57 74,-511.5 83.55,-521.64 98.56,-525.92 111.36,-527.65"/>
<polygon fill="#63b8ff" stroke="#63b8ff" points="111.15,-531.15 121.43,-528.58 111.79,-524.18 111.15,-531.15"/>
</a>
</g>
</g>
<!-- Node3 -->
<g id="Node000003" class="node">
<title>Node3</title>
<g id="a_Node000003"><a xlink:href="../../dd/de3/classchdr_1_1mazes_1_1grid_a2c953e28d925a8042220b3abe9023479.html#a2c953e28d925a8042220b3abe9023479" target="_top" xlink:title="Retrieves the node at a specified coordinate.">
<polygon fill="white" stroke="#666666" points="181,-484 92,-484 92,-467 181,-467 181,-484"/>
<text text-anchor="middle" x="136.5" y="-473.6" font-family="Helvetica,sans-Serif" font-size="8.00">chdr::mazes::grid::at</text>
</a>
</g>
</g>
<!-- Node1&#45;&gt;Node3 -->
<g id="edge2_Node000001_Node000003" class="edge">
<title>Node1&#45;&gt;Node3</title>
<g id="a_edge2_Node000001_Node000003"><a xlink:title=" ">
<path fill="none" stroke="#63b8ff" d="M19.79,-266.2C19.54,-296.19 22.75,-396.55 74,-452.5 77.71,-456.55 82.19,-459.88 87.03,-462.64"/>
<polygon fill="#63b8ff" stroke="#63b8ff" points="85.51,-465.79 96.04,-466.98 88.56,-459.48 85.51,-465.79"/>
</a>
</g>
</g>
<!-- Node4 -->
<g id="Node000004" class="node">
<title>Node4</title>
<g id="a_Node000004"><a xlink:href="../../d2/dcb/structchdr_1_1utils_a5741e93a4c4f5630e7c86bda862cf611.html#a5741e93a4c4f5630e7c86bda862cf611" target="_top" xlink:title="Maps a multidimensional index to a one&#45;dimensional array index.">
<polygon fill="white" stroke="#666666" points="341.5,-465 266.5,-465 266.5,-448 341.5,-448 341.5,-465"/>
<text text-anchor="middle" x="304" y="-454.6" font-family="Helvetica,sans-Serif" font-size="8.00">chdr::utils::to_1d</text>
</a>
</g>
</g>
<!-- Node1&#45;&gt;Node4 -->
<g id="edge18_Node000001_Node000004" class="edge">
<title>Node1&#45;&gt;Node4</title>
<g id="a_edge18_Node000001_Node000004"><a xlink:title=" ">
<path fill="none" stroke="#63b8ff" d="M19.99,-266.21C20.46,-293.61 25.89,-378.6 74,-419.5 100.77,-442.26 197.47,-451.19 256.31,-454.56"/>
<polygon fill="#63b8ff" stroke="#63b8ff" points="256.3,-458.06 266.48,-455.11 256.68,-451.07 256.3,-458.06"/>
</a>
</g>
</g>
<!-- Node5 -->
<g id="Node000005" class="node">
<title>Node5</title>
<g id="a_Node000005"><a xlink:href="../../d2/dcb/structchdr_1_1utils_ab94b095ba27e03185c77fca09d6974e8.html#ab94b095ba27e03185c77fca09d6974e8" target="_top" xlink:title="Constrains a value to lie within a specified range.">
<polygon fill="white" stroke="#666666" points="174.5,-410 98.5,-410 98.5,-393 174.5,-393 174.5,-410"/>
<text text-anchor="middle" x="136.5" y="-399.6" font-family="Helvetica,sans-Serif" font-size="8.00">chdr::utils::clamp</text>
</a>
</g>
</g>
<!-- Node1&#45;&gt;Node5 -->
<g id="edge5_Node000001_Node000005" class="edge">
<title>Node1&#45;&gt;Node5</title>
<g id="a_edge5_Node000001_Node000005"><a xlink:title=" ">
<path fill="none" stroke="#63b8ff" d="M21.08,-266.09C24.41,-288.96 36.69,-351.83 74,-384.5 78.27,-388.24 83.3,-391.16 88.6,-393.45"/>
<polygon fill="#63b8ff" stroke="#63b8ff" points="87.76,-396.86 98.36,-396.91 90.1,-390.27 87.76,-396.86"/>
</a>
</g>
</g>
<!-- Node6 -->
<g id="Node000006" class="node">
<title>Node6</title>
<g id="a_Node000006"><a xlink:href="../../db/dc9/classchdr_1_1stack_ac8bb3912a3ce86b15842e79d0b421204.html#ac8bb3912a3ce86b15842e79d0b421204" target="_top" xlink:title="Clears all elements from the stack.">
<polygon fill="white" stroke="#666666" points="175,-375 98,-375 98,-358 175,-358 175,-375"/>
<text text-anchor="middle" x="136.5" y="-364.6" font-family="Helvetica,sans-Serif" font-size="8.00">chdr::stack::clear</text>
</a>
</g>
</g>
<!-- Node1&#45;&gt;Node6 -->
<g id="edge6_Node000001_Node000006" class="edge">
<title>Node1&#45;&gt;Node6</title>
<g id="a_edge6_Node000001_Node000006"><a xlink:title=" ">
<path fill="none" stroke="#63b8ff" d="M22.58,-266.09C28.52,-284.35 44.92,-327.17 74,-349.5 78.34,-352.83 83.29,-355.51 88.46,-357.66"/>
<polygon fill="#63b8ff" stroke="#63b8ff" points="87.31,-360.97 97.91,-361 89.65,-354.37 87.31,-360.97"/>
</a>
</g>
</g>
<!-- Node7 -->
<g id="Node000007" class="node">
<title>Node7</title>
<g id="a_Node000007"><a xlink:href="../../d9/dcb/classchdr_1_1mazes_1_1graph_ad6077e456dd6abb62d82087b55dc2331.html#ad6077e456dd6abb62d82087b55dc2331" target="_top" xlink:title="Returns the total number of vertices in the graph.">
<polygon fill="white" stroke="#666666" points="154.5,-340 118.5,-340 118.5,-323 154.5,-323 154.5,-340"/>
<text text-anchor="middle" x="136.5" y="-329.6" font-family="Helvetica,sans-Serif" font-size="8.00">count</text>
</a>
</g>
</g>
<!-- Node1&#45;&gt;Node7 -->
<g id="edge7_Node000001_Node000007" class="edge">
<title>Node1&#45;&gt;Node7</title>
<g id="a_edge7_Node000001_Node000007"><a xlink:title=" ">
<path fill="none" stroke="#63b8ff" d="M27.21,-266.19C36.85,-277.34 54.96,-296.63 74,-308.5 84.67,-315.15 97.55,-320.34 108.77,-324.09"/>
<polygon fill="#63b8ff" stroke="#63b8ff" points="107.9,-327.48 118.48,-327.13 109.99,-320.8 107.9,-327.48"/>
</a>
</g>
</g>
<!-- Node8 -->
<g id="Node000008" class="node">
<title>Node8</title>
<g id="a_Node000008"><a xlink:href="../../dd/de3/classchdr_1_1mazes_1_1grid_ad6077e456dd6abb62d82087b55dc2331.html#ad6077e456dd6abb62d82087b55dc2331" target="_top" xlink:title="Retrieves the total count of elements in the grid.">
<polygon fill="white" stroke="#666666" points="355,-214 253,-214 253,-197 355,-197 355,-214"/>
<text text-anchor="middle" x="304" y="-203.6" font-family="Helvetica,sans-Serif" font-size="8.00">chdr::mazes::grid::count</text>
</a>
</g>
</g>
<!-- Node1&#45;&gt;Node8 -->
<g id="edge8_Node000001_Node000008" class="edge">
<title>Node1&#45;&gt;Node8</title>
<g id="a_edge8_Node000001_Node000008"><a xlink:title=" ">
<path fill="none" stroke="#63b8ff" d="M38.12,-265.17C48.44,-269.11 61.71,-273.51 74,-275.5 128.84,-284.4 145.86,-291.72 199,-275.5 233.82,-264.87 267.53,-238.25 286.72,-221.07"/>
<polygon fill="#63b8ff" stroke="#63b8ff" points="289.26,-223.5 294.24,-214.15 284.52,-218.35 289.26,-223.5"/>
</a>
</g>
</g>
<!-- Node9 -->
<g id="Node000009" class="node">
<title>Node9</title>
<g id="a_Node000009"><a xlink:href="../../db/dc9/classchdr_1_1stack_add55c8b8d3e3d6419e57210d3313fd09.html#add55c8b8d3e3d6419e57210d3313fd09" target="_top" xlink:title="Constructs an element in place, adding it to the stack.">
<polygon fill="white" stroke="#666666" points="181,-266 92,-266 92,-249 181,-249 181,-266"/>
<text text-anchor="middle" x="136.5" y="-255.6" font-family="Helvetica,sans-Serif" font-size="8.00">chdr::stack::emplace</text>
</a>
</g>
</g>
<!-- Node1&#45;&gt;Node9 -->
<g id="edge9_Node000001_Node000009" class="edge">
<title>Node1&#45;&gt;Node9</title>
<g id="a_edge9_Node000001_Node000009"><a xlink:title=" ">
<path fill="none" stroke="#63b8ff" d="M38.05,-257.5C49.81,-257.5 65.83,-257.5 81.48,-257.5"/>
<polygon fill="#63b8ff" stroke="#63b8ff" points="81.67,-261 91.67,-257.5 81.67,-254 81.67,-261"/>
</a>
</g>
</g>
<!-- Node10 -->
<g id="Node000010" class="node">
<title>Node10</title>
<g id="a_Node000010"><a xlink:href="../../db/dc9/classchdr_1_1stack_a3f6fc5de06a318920d84f3c3742db07f.html#a3f6fc5de06a318920d84f3c3742db07f" target="_top" xlink:title="Checks if the stack is empty.">
<polygon fill="white" stroke="#666666" points="177,-231 96,-231 96,-214 177,-214 177,-231"/>
<text text-anchor="middle" x="136.5" y="-220.6" font-family="Helvetica,sans-Serif" font-size="8.00">chdr::stack::empty</text>
</a>
</g>
</g>
<!-- Node1&#45;&gt;Node10 -->
<g id="edge10_Node000001_Node000010" class="edge">
<title>Node1&#45;&gt;Node10</title>
<g id="a_edge10_Node000001_Node000010"><a xlink:title=" ">
<path fill="none" stroke="#63b8ff" d="M38.47,-251.58C48.88,-248.27 62.15,-244.1 74,-240.5 81.1,-238.34 88.67,-236.09 95.99,-233.93"/>
<polygon fill="#63b8ff" stroke="#63b8ff" points="97.13,-237.25 105.75,-231.08 95.17,-230.53 97.13,-237.25"/>
</a>
</g>
</g>
<!-- Node11 -->
<g id="Node000011" class="node">
<title>Node11</title>
<g id="a_Node000011"><a xlink:href="../../dd/de3/classchdr_1_1mazes_1_1grid_a0abdfb4af71cccf812fb2b7150f0cc72.html#a0abdfb4af71cccf812fb2b7150f0cc72" target="_top" xlink:title="Retrieves the neighbours of a node within the grid.">
<polygon fill="white" stroke="#666666" points="373,-178 235,-178 235,-161 373,-161 373,-178"/>
<text text-anchor="middle" x="304" y="-167.6" font-family="Helvetica,sans-Serif" font-size="8.00">chdr::mazes::grid::get_neighbours</text>
</a>
</g>
</g>
<!-- Node1&#45;&gt;Node11 -->
<g id="edge11_Node000001_Node000011" class="edge">
<title>Node1&#45;&gt;Node11</title>
<g id="a_edge11_Node000001_Node000011"><a xlink:title=" ">
<path fill="none" stroke="#63b8ff" d="M22.21,-248.95C27.51,-230.43 42.87,-186.92 74,-169.5 133.31,-136.31 215.53,-147.45 263.61,-158.51"/>
<polygon fill="#63b8ff" stroke="#63b8ff" points="263.08,-161.98 273.62,-160.93 264.72,-155.18 263.08,-161.98"/>
</a>
</g>
</g>
<!-- Node12 -->
<g id="Node000012" class="node">
<title>Node12</title>
<g id="a_Node000012"><a xlink:href="../../dd/de3/classchdr_1_1mazes_1_1grid_a264c48c1d975bf357e96edcb92331ad2.html#a264c48c1d975bf357e96edcb92331ad2" target="_top" xlink:title="Determines whether a cell at the given index is transitory.">
<polygon fill="white" stroke="#666666" points="199,-196 74,-196 74,-179 199,-179 199,-196"/>
<text text-anchor="middle" x="136.5" y="-185.6" font-family="Helvetica,sans-Serif" font-size="8.00">chdr::mazes::grid::is_transitory</text>
</a>
</g>
</g>
<!-- Node1&#45;&gt;Node12 -->
<g id="edge12_Node000001_Node000012" class="edge">
<title>Node1&#45;&gt;Node12</title>
<g id="a_edge12_Node000001_Node000012"><a xlink:title=" ">
<path fill="none" stroke="#63b8ff" d="M26.72,-248.81C36.09,-237.26 54.19,-216.99 74,-205.5 77.89,-203.24 82.09,-201.25 86.41,-199.49"/>
<polygon fill="#63b8ff" stroke="#63b8ff" points="87.75,-202.72 95.95,-196.01 85.35,-196.15 87.75,-202.72"/>
</a>
</g>
</g>
<!-- Node13 -->
<g id="Node000013" class="node">
<title>Node13</title>
<g id="a_Node000013"><a xlink:href="../../d2/dcb/structchdr_1_1utils_ac49e3cb9b2b007da03059d95020d8b49.html#ac49e3cb9b2b007da03059d95020d8b49" target="_top" xlink:title="Returns the smaller of two values.">
<polygon fill="white" stroke="#666666" points="170.5,-122 102.5,-122 102.5,-105 170.5,-105 170.5,-122"/>
<text text-anchor="middle" x="136.5" y="-111.6" font-family="Helvetica,sans-Serif" font-size="8.00">chdr::utils::min</text>
</a>
</g>
</g>
<!-- Node1&#45;&gt;Node13 -->
<g id="edge15_Node000001_Node000013" class="edge">
<title>Node1&#45;&gt;Node13</title>
<g id="a_edge15_Node000001_Node000013"><a xlink:title=" ">
<path fill="none" stroke="#63b8ff" d="M21.48,-248.85C25.68,-226.96 39.64,-168.8 74,-136.5 79.42,-131.4 86.08,-127.41 93,-124.29"/>
<polygon fill="#63b8ff" stroke="#63b8ff" points="94.46,-127.47 102.48,-120.55 91.9,-120.96 94.46,-127.47"/>
</a>
</g>
</g>
<!-- Node14 -->
<g id="Node000014" class="node">
<title>Node14</title>
<g id="a_Node000014"><a xlink:href="../../db/dc9/classchdr_1_1stack_a312e7f6c761a199c1369fbe651e084f0.html#a312e7f6c761a199c1369fbe651e084f0" target="_top" xlink:title="Pops an element from the stack.">
<polygon fill="white" stroke="#666666" points="173,-87 100,-87 100,-70 173,-70 173,-87"/>
<text text-anchor="middle" x="136.5" y="-76.6" font-family="Helvetica,sans-Serif" font-size="8.00">chdr::stack::pop</text>
</a>
</g>
</g>
<!-- Node1&#45;&gt;Node14 -->
<g id="edge16_Node000001_Node000014" class="edge">
<title>Node1&#45;&gt;Node14</title>
<g id="a_edge16_Node000001_Node000014"><a xlink:title=" ">
<path fill="none" stroke="#63b8ff" d="M20.2,-248.62C21.3,-221.47 28.42,-138.77 74,-95.5 78.64,-91.1 84.32,-87.81 90.32,-85.37"/>
<polygon fill="#63b8ff" stroke="#63b8ff" points="91.55,-88.65 99.94,-82.18 89.35,-82.01 91.55,-88.65"/>
</a>
</g>
</g>
<!-- Node15 -->
<g id="Node000015" class="node">
<title>Node15</title>
<g id="a_Node000015"><a xlink:href="../../dd/de3/classchdr_1_1mazes_1_1grid_a32d34adb7833cb15aa705c6c7ada57a8.html#a32d34adb7833cb15aa705c6c7ada57a8" target="_top" xlink:title="Retrieves the size of the grid.">
<polygon fill="white" stroke="#666666" points="184.5,-52 88.5,-52 88.5,-35 184.5,-35 184.5,-52"/>
<text text-anchor="middle" x="136.5" y="-41.6" font-family="Helvetica,sans-Serif" font-size="8.00">chdr::mazes::grid::size</text>
</a>
</g>
</g>
<!-- Node1&#45;&gt;Node15 -->
<g id="edge17_Node000001_Node000015" class="edge">
<title>Node1&#45;&gt;Node15</title>
<g id="a_edge17_Node000001_Node000015"><a xlink:title=" ">
<path fill="none" stroke="#63b8ff" d="M19.59,-248.97C18.64,-218.65 19.64,-114.97 74,-60.5 75.65,-58.84 77.45,-57.34 79.36,-55.99"/>
<polygon fill="#63b8ff" stroke="#63b8ff" points="81.35,-58.88 88.33,-50.91 77.91,-52.79 81.35,-58.88"/>
</a>
</g>
</g>
<!-- Node16 -->
<g id="Node000016" class="node">
<title>Node16</title>
<g id="a_Node000016"><a xlink:href="../../db/dc9/classchdr_1_1stack_a20a753362275d34a67d855ce0105fab7.html#a20a753362275d34a67d855ce0105fab7" target="_top" xlink:title="Provides access to the top element of the stack.">
<polygon fill="white" stroke="#666666" points="172,-17 101,-17 101,0 172,0 172,-17"/>
<text text-anchor="middle" x="136.5" y="-6.6" font-family="Helvetica,sans-Serif" font-size="8.00">chdr::stack::top</text>
</a>
</g>
</g>
<!-- Node1&#45;&gt;Node16 -->
<g id="edge19_Node000001_Node000016" class="edge">
<title>Node1&#45;&gt;Node16</title>
<g id="a_edge19_Node000001_Node000016"><a xlink:title=" ">
<path fill="none" stroke="#63b8ff" d="M20.84,-248.84C24.72,-210.8 42,-58.84 74,-25.5 78.74,-20.56 84.78,-17.01 91.21,-14.48"/>
<polygon fill="#63b8ff" stroke="#63b8ff" points="92.33,-17.79 100.81,-11.44 90.22,-11.12 92.33,-17.79"/>
</a>
</g>
</g>
<!-- Node3&#45;&gt;Node3 -->
<g id="edge3_Node000003_Node000003" class="edge">
<title>Node3&#45;&gt;Node3</title>
<g id="a_edge3_Node000003_Node000003"><a xlink:title=" ">
<path fill="none" stroke="#63b8ff" d="M119.22,-484.19C109.67,-492.67 115.43,-502 136.5,-502 150,-502 157.21,-498.17 158.15,-493.19"/>
<polygon fill="#63b8ff" stroke="#63b8ff" points="161.29,-491.66 153.78,-484.19 154.99,-494.71 161.29,-491.66"/>
</a>
</g>
</g>
<!-- Node3&#45;&gt;Node4 -->
<g id="edge4_Node000003_Node000004" class="edge">
<title>Node3&#45;&gt;Node4</title>
<g id="a_edge4_Node000003_Node000004"><a xlink:title=" ">
<path fill="none" stroke="#63b8ff" d="M181.42,-470.46C204.52,-467.81 232.85,-464.55 256.35,-461.86"/>
<polygon fill="#63b8ff" stroke="#63b8ff" points="256.9,-465.32 266.44,-460.7 256.1,-458.36 256.9,-465.32"/>
</a>
</g>
</g>
<!-- Node12&#45;&gt;Node8 -->
<g id="edge13_Node000012_Node000008" class="edge">
<title>Node12&#45;&gt;Node8</title>
<g id="a_edge13_Node000012_Node000008"><a xlink:title=" ">
<path fill="none" stroke="#63b8ff" d="M199.13,-194.2C213.4,-195.75 228.57,-197.4 242.78,-198.95"/>
<polygon fill="#63b8ff" stroke="#63b8ff" points="242.61,-202.45 252.93,-200.05 243.37,-195.49 242.61,-202.45"/>
</a>
</g>
</g>
<!-- Node12&#45;&gt;Node11 -->
<g id="edge14_Node000012_Node000011" class="edge">
<title>Node12&#45;&gt;Node11</title>
<g id="a_edge14_Node000012_Node000011"><a xlink:title=" ">
<path fill="none" stroke="#63b8ff" d="M199.13,-180.8C207.52,-179.89 216.21,-178.94 224.85,-178"/>
<polygon fill="#63b8ff" stroke="#63b8ff" points="225.36,-181.46 234.93,-176.9 224.61,-174.51 225.36,-181.46"/>
</a>
</g>
</g>
</g>
</svg>
