<?xml version="1.0" encoding="UTF-8" standalone="no"?>
<!DOCTYPE svg PUBLIC "-//W3C//DTD SVG 1.1//EN"
 "http://www.w3.org/Graphics/SVG/1.1/DTD/svg11.dtd">
<!-- Generated by graphviz version 2.43.0 (0)
 -->
<!-- Title: operator[] Pages: 1 -->
<svg width="207pt" height="25pt"
 viewBox="0.00 0.00 207.00 25.00" xmlns="http://www.w3.org/2000/svg" xmlns:xlink="http://www.w3.org/1999/xlink">
<g id="graph0" class="graph" transform="scale(1 1) rotate(0) translate(4 21)">
<title>operator[]</title>
<!-- Node1 -->
<g id="Node000001" class="node">
<title>Node1</title>
<g id="a_Node000001"><a xlink:title="Retrieves the vertex at a specified index.">
<polygon fill="#999999" stroke="#666666" points="52,-17 0,-17 0,0 52,0 52,-17"/>
<text text-anchor="middle" x="26" y="-6.6" font-family="Helvetica,sans-Serif" font-size="8.00">operator[]</text>
</a>
</g>
</g>
<!-- Node2 -->
<g id="Node000002" class="node">
<title>Node2</title>
<g id="a_Node000002"><a xlink:href="../../d9/dcb/classchdr_1_1mazes_1_1graph_a16518fd691e7ddba60f06d5c767b1f8e.html#a16518fd691e7ddba60f06d5c767b1f8e" target="_top" xlink:title="Retrieves the vertex at a specified index.">
<polygon fill="white" stroke="#666666" points="117,-17 88,-17 88,0 117,0 117,-17"/>
<text text-anchor="middle" x="102.5" y="-6.6" font-family="Helvetica,sans-Serif" font-size="8.00">at</text>
</a>
</g>
</g>
<!-- Node1&#45;&gt;Node2 -->
<g id="edge1_Node000001_Node000002" class="edge">
<title>Node1&#45;&gt;Node2</title>
<g id="a_edge1_Node000001_Node000002"><a xlink:title=" ">
<path fill="none" stroke="#63b8ff" d="M52.22,-8.5C60.35,-8.5 69.33,-8.5 77.37,-8.5"/>
<polygon fill="#63b8ff" stroke="#63b8ff" points="77.6,-12 87.6,-8.5 77.6,-5 77.6,-12"/>
</a>
</g>
</g>
<!-- Node3 -->
<g id="Node000003" class="node">
<title>Node3</title>
<g id="a_Node000003"><a xlink:href="../../d9/dcb/classchdr_1_1mazes_1_1graph_ab276ef23dd28f7f3f6a804f7a958141d.html#ab276ef23dd28f7f3f6a804f7a958141d" target="_top" xlink:title=" ">
<polygon fill="white" stroke="#666666" points="199,-17 153,-17 153,0 199,0 199,-17"/>
<text text-anchor="middle" x="176" y="-6.6" font-family="Helvetica,sans-Serif" font-size="8.00">contains</text>
</a>
</g>
</g>
<!-- Node2&#45;&gt;Node3 -->
<g id="edge2_Node000002_Node000003" class="edge">
<title>Node2&#45;&gt;Node3</title>
<g id="a_edge2_Node000002_Node000003"><a xlink:title=" ">
<path fill="none" stroke="#63b8ff" d="M117.29,-8.5C124.52,-8.5 133.71,-8.5 142.62,-8.5"/>
<polygon fill="#63b8ff" stroke="#63b8ff" points="142.82,-12 152.82,-8.5 142.82,-5 142.82,-12"/>
</a>
</g>
</g>
</g>
</svg>
