<?xml version="1.0" encoding="UTF-8" standalone="no"?>
<!DOCTYPE svg PUBLIC "-//W3C//DTD SVG 1.1//EN"
 "http://www.w3.org/Graphics/SVG/1.1/DTD/svg11.dtd">
<!-- Generated by graphviz version 2.42.4 (0)
 -->
<!-- Title: contains Pages: 1 -->
<svg width="162pt" height="43pt"
 viewBox="0.00 0.00 162.00 43.00" xmlns="http://www.w3.org/2000/svg" xmlns:xlink="http://www.w3.org/1999/xlink">
<g id="graph0" class="graph" transform="scale(1 1) rotate(0) translate(4 39)">
<title>contains</title>
<!-- Node1 -->
<g id="Node000001" class="node">
<title>Node1</title>
<g id="a_Node000001"><a xlink:title=" ">
<polygon fill="#999999" stroke="#666666" points="46,-17 0,-17 0,0 46,0 46,-17"/>
<text text-anchor="middle" x="23" y="-6.6" font-family="Helvetica,sans-Serif" font-size="8.00">contains</text>
</a>
</g>
</g>
<!-- Node2 -->
<g id="Node000002" class="node">
<title>Node2</title>
<g id="a_Node000002"><a xlink:href="../../d9/dcb/classchdr_1_1mazes_1_1graph_abe2a6e079551372e0ed654c8f6562002.html#abe2a6e079551372e0ed654c8f6562002" target="_top" xlink:title=" ">
<polygon fill="white" stroke="#666666" points="154,-17 82,-17 82,0 154,0 154,-17"/>
<text text-anchor="middle" x="118" y="-6.6" font-family="Helvetica,sans-Serif" font-size="8.00">get_neighbours</text>
</a>
</g>
</g>
<!-- Node1&#45;&gt;Node2 -->
<g id="edge1_Node000001_Node000002" class="edge">
<title>Node1&#45;&gt;Node2</title>
<g id="a_edge1_Node000001_Node000002"><a xlink:title=" ">
<path fill="none" stroke="#63b8ff" d="M46.04,-2.66C53.68,-2.03 62.56,-1.73 71.39,-1.75"/>
<polygon fill="#63b8ff" stroke="#63b8ff" points="71.61,-5.26 81.67,-1.93 71.73,1.74 71.61,-5.26"/>
</a>
</g>
</g>
<!-- Node2&#45;&gt;Node1 -->
<g id="edge2_Node000002_Node000001" class="edge">
<title>Node2&#45;&gt;Node1</title>
<g id="a_edge2_Node000002_Node000001"><a xlink:title=" ">
<path fill="none" stroke="#63b8ff" d="M81.67,-15.07C73.25,-15.34 64.31,-15.3 56.05,-14.95"/>
<polygon fill="#63b8ff" stroke="#63b8ff" points="56.23,-11.46 46.04,-14.34 55.81,-18.44 56.23,-11.46"/>
</a>
</g>
</g>
<!-- Node2&#45;&gt;Node2 -->
<g id="edge3_Node000002_Node000002" class="edge">
<title>Node2&#45;&gt;Node2</title>
<g id="a_edge3_Node000002_Node000002"><a xlink:title=" ">
<path fill="none" stroke="#63b8ff" d="M103.99,-17.19C96.26,-25.67 100.93,-35 118,-35 128.4,-35 134.2,-31.54 135.39,-26.91"/>
<polygon fill="#63b8ff" stroke="#63b8ff" points="138.6,-25.48 132.01,-17.19 131.99,-27.78 138.6,-25.48"/>
</a>
</g>
</g>
</g>
</svg>
