<?xml version="1.0" encoding="UTF-8" standalone="no"?>
<!DOCTYPE svg PUBLIC "-//W3C//DTD SVG 1.1//EN"
 "http://www.w3.org/Graphics/SVG/1.1/DTD/svg11.dtd">
<!-- Generated by graphviz version 2.42.4 (0)
 -->
<!-- Title: contains Pages: 1 -->
<svg width="324pt" height="243pt"
 viewBox="0.00 0.00 324.00 243.00" xmlns="http://www.w3.org/2000/svg" xmlns:xlink="http://www.w3.org/1999/xlink">
<g id="graph0" class="graph" transform="scale(1 1) rotate(0) translate(4 239)">
<title>contains</title>
<!-- Node1 -->
<g id="Node000001" class="node">
<title>Node1</title>
<g id="a_Node000001"><a xlink:title=" ">
<polygon fill="#999999" stroke="#666666" points="316,-73 270,-73 270,-56 316,-56 316,-73"/>
<text text-anchor="middle" x="293" y="-62.6" font-family="Helvetica,sans-Serif" font-size="8.00">contains</text>
</a>
</g>
</g>
<!-- Node2 -->
<g id="Node000002" class="node">
<title>Node2</title>
<g id="a_Node000002"><a xlink:href="../../d9/dcb/classchdr_1_1mazes_1_1graph_abe2a6e079551372e0ed654c8f6562002.html#abe2a6e079551372e0ed654c8f6562002" target="_top" xlink:title=" ">
<polygon fill="white" stroke="#666666" points="234,-92 162,-92 162,-75 234,-75 234,-92"/>
<text text-anchor="middle" x="198" y="-81.6" font-family="Helvetica,sans-Serif" font-size="8.00">get_neighbours</text>
</a>
</g>
</g>
<!-- Node1&#45;&gt;Node2 -->
<g id="edge1_Node000001_Node000002" class="edge">
<title>Node1&#45;&gt;Node2</title>
<g id="a_edge1_Node000001_Node000002"><a xlink:title=" ">
<path fill="none" stroke="#63b8ff" d="M259.93,-64.6C244.79,-67.05 227.38,-71.01 215.06,-74.97"/>
<polygon fill="#63b8ff" stroke="#63b8ff" points="260.56,-68.05 269.96,-63.16 259.57,-61.12 260.56,-68.05"/>
</a>
</g>
</g>
<!-- Node7 -->
<g id="Node000007" class="node">
<title>Node7</title>
<g id="a_Node000007"><a xlink:href="../../d9/dcb/classchdr_1_1mazes_1_1graph_a8b3691d2eabbeddb2f43e5dcaa641b39.html#a8b3691d2eabbeddb2f43e5dcaa641b39" target="_top" xlink:title="Retrieves the vertex at a specified index.">
<polygon fill="white" stroke="#666666" points="126,-52 74,-52 74,-35 126,-35 126,-52"/>
<text text-anchor="middle" x="100" y="-41.6" font-family="Helvetica,sans-Serif" font-size="8.00">operator[]</text>
</a>
</g>
</g>
<!-- Node1&#45;&gt;Node7 -->
<g id="edge13_Node000001_Node000007" class="edge">
<title>Node1&#45;&gt;Node7</title>
<g id="a_edge13_Node000001_Node000007"><a xlink:title=" ">
<path fill="none" stroke="#63b8ff" d="M259.76,-60.96C222.08,-56.81 160.5,-50.04 126.16,-46.27"/>
<polygon fill="#63b8ff" stroke="#63b8ff" points="259.39,-64.44 269.72,-62.05 260.16,-57.48 259.39,-64.44"/>
</a>
</g>
</g>
<!-- Node9 -->
<g id="Node000009" class="node">
<title>Node9</title>
<g id="a_Node000009"><a xlink:href="../../d9/dcb/classchdr_1_1mazes_1_1graph_a50cc7fa4c48882e5665f24305a38fc3b.html#a50cc7fa4c48882e5665f24305a38fc3b" target="_top" xlink:title=" ">
<polygon fill="white" stroke="#666666" points="122,-17 78,-17 78,0 122,0 122,-17"/>
<text text-anchor="middle" x="100" y="-6.6" font-family="Helvetica,sans-Serif" font-size="8.00">remove</text>
</a>
</g>
</g>
<!-- Node1&#45;&gt;Node9 -->
<g id="edge14_Node000001_Node000009" class="edge">
<title>Node1&#45;&gt;Node9</title>
<g id="a_edge14_Node000001_Node000009"><a xlink:title=" ">
<path fill="none" stroke="#63b8ff" d="M260.2,-53.8C251.71,-51.02 242.53,-48.08 234,-45.5 194.77,-33.63 148.61,-21.11 122.28,-14.1"/>
<polygon fill="#63b8ff" stroke="#63b8ff" points="259.17,-57.14 269.77,-56.96 261.37,-50.5 259.17,-57.14"/>
</a>
</g>
</g>
<!-- Node2&#45;&gt;Node1 -->
<g id="edge8_Node000002_Node000001" class="edge">
<title>Node2&#45;&gt;Node1</title>
<g id="a_edge8_Node000002_Node000001"><a xlink:title=" ">
<path fill="none" stroke="#63b8ff" d="M244.15,-81.02C255.49,-78.75 266.95,-75.92 275.8,-73.08"/>
<polygon fill="#63b8ff" stroke="#63b8ff" points="243.46,-77.59 234.28,-82.87 244.75,-84.47 243.46,-77.59"/>
</a>
</g>
</g>
<!-- Node2&#45;&gt;Node2 -->
<g id="edge9_Node000002_Node000002" class="edge">
<title>Node2&#45;&gt;Node2</title>
<g id="a_edge9_Node000002_Node000002"><a xlink:title=" ">
<path fill="none" stroke="#63b8ff" d="M215.39,-101.91C214.2,-106.54 208.4,-110 198,-110 180.93,-110 176.26,-100.67 183.99,-92.19"/>
<polygon fill="#63b8ff" stroke="#63b8ff" points="218.6,-100.48 212.01,-92.19 211.99,-102.78 218.6,-100.48"/>
</a>
</g>
</g>
<!-- Node3 -->
<g id="Node000003" class="node">
<title>Node3</title>
<g id="a_Node000003"><a xlink:href="../../d9/dcb/classchdr_1_1mazes_1_1graph_a5ca1351a03df5ff49f85cc4b5669cefc.html#a5ca1351a03df5ff49f85cc4b5669cefc" target="_top" xlink:title="Constructs a graph instance from a grid structure.">
<polygon fill="white" stroke="#666666" points="38,-179 0,-179 0,-162 38,-162 38,-179"/>
<text text-anchor="middle" x="19" y="-168.6" font-family="Helvetica,sans-Serif" font-size="8.00">graph</text>
</a>
</g>
</g>
<!-- Node2&#45;&gt;Node3 -->
<g id="edge2_Node000002_Node000003" class="edge">
<title>Node2&#45;&gt;Node3</title>
<g id="a_edge2_Node000002_Node000003"><a xlink:title=" ">
<path fill="none" stroke="#63b8ff" d="M188.68,-101.17C177.68,-122.18 156.12,-156.2 126,-170.5 97.74,-183.91 60.27,-179.51 38.28,-175.04"/>
<polygon fill="#63b8ff" stroke="#63b8ff" points="191.9,-102.56 193.22,-92.04 185.63,-99.44 191.9,-102.56"/>
</a>
</g>
</g>
<!-- Node4 -->
<g id="Node000004" class="node">
<title>Node4</title>
<g id="a_Node000004"><a xlink:href="../../d9/dcb/classchdr_1_1mazes_1_1graph_a9c5fa6f424fe23ab89d383a1f8f78b02.html#a9c5fa6f424fe23ab89d383a1f8f78b02" target="_top" xlink:title="Constructs a graph instance from an adjacency list.">
<polygon fill="white" stroke="#666666" points="38,-143 0,-143 0,-126 38,-126 38,-143"/>
<text text-anchor="middle" x="19" y="-132.6" font-family="Helvetica,sans-Serif" font-size="8.00">graph</text>
</a>
</g>
</g>
<!-- Node2&#45;&gt;Node4 -->
<g id="edge3_Node000002_Node000004" class="edge">
<title>Node2&#45;&gt;Node4</title>
<g id="a_edge3_Node000002_Node000004"><a xlink:title=" ">
<path fill="none" stroke="#63b8ff" d="M157.37,-94.92C120.2,-105.63 66.27,-121.17 38.33,-129.22"/>
<polygon fill="#63b8ff" stroke="#63b8ff" points="158.73,-98.17 167.37,-92.04 156.8,-91.44 158.73,-98.17"/>
</a>
</g>
</g>
<!-- Node5 -->
<g id="Node000005" class="node">
<title>Node5</title>
<g id="a_Node000005"><a xlink:href="../../d9/dcb/classchdr_1_1mazes_1_1graph_ab41a4e064828273b133921f8d05a7540.html#ab41a4e064828273b133921f8d05a7540" target="_top" xlink:title="Adds a new vertex to the graph with the specified identifier.">
<polygon fill="white" stroke="#666666" points="115,-161 85,-161 85,-144 115,-144 115,-161"/>
<text text-anchor="middle" x="100" y="-150.6" font-family="Helvetica,sans-Serif" font-size="8.00">add</text>
</a>
</g>
</g>
<!-- Node2&#45;&gt;Node5 -->
<g id="edge4_Node000002_Node000005" class="edge">
<title>Node2&#45;&gt;Node5</title>
<g id="a_edge4_Node000002_Node000005"><a xlink:title=" ">
<path fill="none" stroke="#63b8ff" d="M176.69,-98.1C157.39,-111.97 129.02,-132.36 113.06,-143.83"/>
<polygon fill="#63b8ff" stroke="#63b8ff" points="178.76,-100.92 184.84,-92.24 174.68,-95.23 178.76,-100.92"/>
</a>
</g>
</g>
<!-- Node6 -->
<g id="Node000006" class="node">
<title>Node6</title>
<g id="a_Node000006"><a xlink:href="../../d9/dcb/classchdr_1_1mazes_1_1graph_a8e662ec5003e04b135c5d7cdb6c91db7.html#a8e662ec5003e04b135c5d7cdb6c91db7" target="_top" xlink:title="Adds a new edge to the graph with the specified identifier.">
<polygon fill="white" stroke="#666666" points="115,-87 85,-87 85,-70 115,-70 115,-87"/>
<text text-anchor="middle" x="100" y="-76.6" font-family="Helvetica,sans-Serif" font-size="8.00">add</text>
</a>
</g>
</g>
<!-- Node2&#45;&gt;Node6 -->
<g id="edge7_Node000002_Node000006" class="edge">
<title>Node2&#45;&gt;Node6</title>
<g id="a_edge7_Node000002_Node000006"><a xlink:title=" ">
<path fill="none" stroke="#63b8ff" d="M151.44,-81.13C138.36,-80.45 125.05,-79.75 115.38,-79.25"/>
<polygon fill="#63b8ff" stroke="#63b8ff" points="151.63,-84.64 161.8,-81.67 151.99,-77.65 151.63,-84.64"/>
</a>
</g>
</g>
<!-- Node2&#45;&gt;Node7 -->
<g id="edge10_Node000002_Node000007" class="edge">
<title>Node2&#45;&gt;Node7</title>
<g id="a_edge10_Node000002_Node000007"><a xlink:title=" ">
<path fill="none" stroke="#63b8ff" d="M166.9,-70.96C152.12,-64.8 134.68,-57.53 121.46,-52.03"/>
<polygon fill="#63b8ff" stroke="#63b8ff" points="165.59,-74.21 176.17,-74.82 168.28,-67.74 165.59,-74.21"/>
</a>
</g>
</g>
<!-- Node8 -->
<g id="Node000008" class="node">
<title>Node8</title>
<g id="a_Node000008"><a xlink:href="../../d9/dcb/classchdr_1_1mazes_1_1graph_a5d9e7e33eb15c5778780e40b320d4632.html#a5d9e7e33eb15c5778780e40b320d4632" target="_top" xlink:title="Prunes the graph of transitory nodes.">
<polygon fill="white" stroke="#666666" points="119,-235 81,-235 81,-218 119,-218 119,-235"/>
<text text-anchor="middle" x="100" y="-224.6" font-family="Helvetica,sans-Serif" font-size="8.00">prune</text>
</a>
</g>
</g>
<!-- Node2&#45;&gt;Node8 -->
<g id="edge11_Node000002_Node000008" class="edge">
<title>Node2&#45;&gt;Node8</title>
<g id="a_edge11_Node000002_Node000008"><a xlink:title=" ">
<path fill="none" stroke="#63b8ff" d="M188.54,-101.32C176.52,-125.71 152.92,-170.25 126,-203.5 121.84,-208.63 116.54,-213.68 111.89,-217.73"/>
<polygon fill="#63b8ff" stroke="#63b8ff" points="191.75,-102.72 192.96,-92.19 185.45,-99.67 191.75,-102.72"/>
</a>
</g>
</g>
<!-- Node2&#45;&gt;Node9 -->
<g id="edge12_Node000002_Node000009" class="edge">
<title>Node2&#45;&gt;Node9</title>
<g id="a_edge12_Node000002_Node000009"><a xlink:title=" ">
<path fill="none" stroke="#63b8ff" d="M179.18,-68.21C165.03,-56.25 144.59,-39.37 126,-25.5 122.21,-22.67 118,-19.74 114.13,-17.11"/>
<polygon fill="#63b8ff" stroke="#63b8ff" points="177.23,-71.14 187.11,-74.96 181.76,-65.81 177.23,-71.14"/>
</a>
</g>
</g>
<!-- Node5&#45;&gt;Node3 -->
<g id="edge5_Node000005_Node000003" class="edge">
<title>Node5&#45;&gt;Node3</title>
<g id="a_edge5_Node000005_Node000003"><a xlink:title=" ">
<path fill="none" stroke="#63b8ff" d="M74.8,-158.01C63,-160.7 49.05,-163.88 38.17,-166.36"/>
<polygon fill="#63b8ff" stroke="#63b8ff" points="75.9,-161.35 84.88,-155.72 74.35,-154.53 75.9,-161.35"/>
</a>
</g>
</g>
<!-- Node5&#45;&gt;Node4 -->
<g id="edge6_Node000005_Node000004" class="edge">
<title>Node5&#45;&gt;Node4</title>
<g id="a_edge6_Node000005_Node000004"><a xlink:title=" ">
<path fill="none" stroke="#63b8ff" d="M74.8,-146.99C63,-144.3 49.05,-141.12 38.17,-138.64"/>
<polygon fill="#63b8ff" stroke="#63b8ff" points="74.35,-150.47 84.88,-149.28 75.9,-143.65 74.35,-150.47"/>
</a>
</g>
</g>
</g>
</svg>
