<?xml version="1.0" encoding="UTF-8" standalone="no"?>
<!DOCTYPE svg PUBLIC "-//W3C//DTD SVG 1.1//EN"
 "http://www.w3.org/Graphics/SVG/1.1/DTD/svg11.dtd">
<!-- Generated by graphviz version 2.43.0 (0)
 -->
<!-- Title: graph Pages: 1 -->
<svg width="381pt" height="370pt"
 viewBox="0.00 0.00 381.00 370.00" xmlns="http://www.w3.org/2000/svg" xmlns:xlink="http://www.w3.org/1999/xlink">
<g id="graph0" class="graph" transform="scale(1 1) rotate(0) translate(4 366)">
<title>graph</title>
<!-- Node1 -->
<g id="Node000001" class="node">
<title>Node1</title>
<g id="a_Node000001"><a xlink:title="Constructs a graph instance from a grid structure.">
<polygon fill="#999999" stroke="#666666" points="38,-181 0,-181 0,-164 38,-164 38,-181"/>
<text text-anchor="middle" x="19" y="-170.6" font-family="Helvetica,sans-Serif" font-size="8.00">graph</text>
</a>
</g>
</g>
<!-- Node2 -->
<g id="Node000002" class="node">
<title>Node2</title>
<g id="a_Node000002"><a xlink:href="../../d9/dcb/classchdr_1_1mazes_1_1graph_ab41a4e064828273b133921f8d05a7540.html#ab41a4e064828273b133921f8d05a7540" target="_top" xlink:title="Adds a new vertex to the graph with the specified identifier.">
<polygon fill="white" stroke="#666666" points="151.5,-362 121.5,-362 121.5,-345 151.5,-345 151.5,-362"/>
<text text-anchor="middle" x="136.5" y="-351.6" font-family="Helvetica,sans-Serif" font-size="8.00">add</text>
</a>
</g>
</g>
<!-- Node1&#45;&gt;Node2 -->
<g id="edge1_Node000001_Node000002" class="edge">
<title>Node1&#45;&gt;Node2</title>
<g id="a_edge1_Node000001_Node000002"><a xlink:title=" ">
<path fill="none" stroke="#63b8ff" d="M20.15,-181.1C21.09,-208.17 27.77,-292.46 74,-336.5 83.93,-345.96 98.63,-350.24 111.17,-352.15"/>
<polygon fill="#63b8ff" stroke="#63b8ff" points="111.13,-355.66 121.45,-353.28 111.9,-348.71 111.13,-355.66"/>
</a>
</g>
</g>
<!-- Node3 -->
<g id="Node000003" class="node">
<title>Node3</title>
<g id="a_Node000003"><a xlink:href="../../dd/de3/classchdr_1_1mazes_1_1grid_a2c953e28d925a8042220b3abe9023479.html#a2c953e28d925a8042220b3abe9023479" target="_top" xlink:title="Retrieves the node at a specified coordinate.">
<polygon fill="white" stroke="#666666" points="181,-309 92,-309 92,-292 181,-292 181,-309"/>
<text text-anchor="middle" x="136.5" y="-298.6" font-family="Helvetica,sans-Serif" font-size="8.00">chdr::mazes::grid::at</text>
</a>
</g>
</g>
<!-- Node1&#45;&gt;Node3 -->
<g id="edge2_Node000001_Node000003" class="edge">
<title>Node1&#45;&gt;Node3</title>
<g id="a_edge2_Node000001_Node000003"><a xlink:title=" ">
<path fill="none" stroke="#63b8ff" d="M22.14,-181.17C27.48,-201.01 43.21,-250.12 74,-277.5 78.7,-281.68 84.22,-285.12 90,-287.95"/>
<polygon fill="#63b8ff" stroke="#63b8ff" points="88.64,-291.18 99.21,-291.92 91.41,-284.75 88.64,-291.18"/>
</a>
</g>
</g>
<!-- Node4 -->
<g id="Node000004" class="node">
<title>Node4</title>
<g id="a_Node000004"><a xlink:href="../../d2/dcb/structchdr_1_1utils_a5741e93a4c4f5630e7c86bda862cf611.html#a5741e93a4c4f5630e7c86bda862cf611" target="_top" xlink:title="Maps a multi&#45;dimensional index to a one&#45;dimensional array index.">
<polygon fill="white" stroke="#666666" points="341.5,-290 266.5,-290 266.5,-273 341.5,-273 341.5,-290"/>
<text text-anchor="middle" x="304" y="-279.6" font-family="Helvetica,sans-Serif" font-size="8.00">chdr::utils::to_1d</text>
</a>
</g>
</g>
<!-- Node1&#45;&gt;Node4 -->
<g id="edge14_Node000001_Node000004" class="edge">
<title>Node1&#45;&gt;Node4</title>
<g id="a_edge14_Node000001_Node000004"><a xlink:title=" ">
<path fill="none" stroke="#63b8ff" d="M23.85,-181.33C31.15,-196.92 48.59,-229.14 74,-244.5 130.03,-278.37 207.25,-284.14 256.15,-283.85"/>
<polygon fill="#63b8ff" stroke="#63b8ff" points="256.49,-287.34 266.43,-283.69 256.38,-280.34 256.49,-287.34"/>
</a>
</g>
</g>
<!-- Node5 -->
<g id="Node000005" class="node">
<title>Node5</title>
<g id="a_Node000005"><a xlink:href="../../d2/dcb/structchdr_1_1utils_ab94b095ba27e03185c77fca09d6974e8.html#ab94b095ba27e03185c77fca09d6974e8" target="_top" xlink:title="Constrains a value to lie within a specified range.">
<polygon fill="white" stroke="#666666" points="174.5,-235 98.5,-235 98.5,-218 174.5,-218 174.5,-235"/>
<text text-anchor="middle" x="136.5" y="-224.6" font-family="Helvetica,sans-Serif" font-size="8.00">chdr::utils::clamp</text>
</a>
</g>
</g>
<!-- Node1&#45;&gt;Node5 -->
<g id="edge5_Node000001_Node000005" class="edge">
<title>Node1&#45;&gt;Node5</title>
<g id="a_edge5_Node000001_Node000005"><a xlink:title=" ">
<path fill="none" stroke="#63b8ff" d="M30.52,-181.29C40.96,-189.61 57.72,-201.93 74,-209.5 78.65,-211.66 83.63,-213.6 88.67,-215.32"/>
<polygon fill="#63b8ff" stroke="#63b8ff" points="87.78,-218.71 98.37,-218.37 89.88,-212.03 87.78,-218.71"/>
</a>
</g>
</g>
<!-- Node6 -->
<g id="Node000006" class="node">
<title>Node6</title>
<g id="a_Node000006"><a xlink:href="../../d9/dcb/classchdr_1_1mazes_1_1graph_ad6077e456dd6abb62d82087b55dc2331.html#ad6077e456dd6abb62d82087b55dc2331" target="_top" xlink:title="Returns the total number of vertices in the graph.">
<polygon fill="white" stroke="#666666" points="154.5,-200 118.5,-200 118.5,-183 154.5,-183 154.5,-200"/>
<text text-anchor="middle" x="136.5" y="-189.6" font-family="Helvetica,sans-Serif" font-size="8.00">count</text>
</a>
</g>
</g>
<!-- Node1&#45;&gt;Node6 -->
<g id="edge6_Node000001_Node000006" class="edge">
<title>Node1&#45;&gt;Node6</title>
<g id="a_edge6_Node000001_Node000006"><a xlink:title=" ">
<path fill="none" stroke="#63b8ff" d="M38.05,-175.47C56.91,-178.57 86.73,-183.48 108.42,-187.05"/>
<polygon fill="#63b8ff" stroke="#63b8ff" points="107.9,-190.51 118.33,-188.68 109.03,-183.6 107.9,-190.51"/>
</a>
</g>
</g>
<!-- Node7 -->
<g id="Node000007" class="node">
<title>Node7</title>
<g id="a_Node000007"><a xlink:href="../../dd/de3/classchdr_1_1mazes_1_1grid_ad6077e456dd6abb62d82087b55dc2331.html#ad6077e456dd6abb62d82087b55dc2331" target="_top" xlink:title="Retrieves the total count of elements in the grid.">
<polygon fill="white" stroke="#666666" points="355,-144 253,-144 253,-127 355,-127 355,-144"/>
<text text-anchor="middle" x="304" y="-133.6" font-family="Helvetica,sans-Serif" font-size="8.00">chdr::mazes::grid::count</text>
</a>
</g>
</g>
<!-- Node1&#45;&gt;Node7 -->
<g id="edge7_Node000001_Node000007" class="edge">
<title>Node1&#45;&gt;Node7</title>
<g id="a_edge7_Node000001_Node000007"><a xlink:title=" ">
<path fill="none" stroke="#63b8ff" d="M38.13,-170.13C78.61,-164.84 177.83,-151.86 242.68,-143.39"/>
<polygon fill="#63b8ff" stroke="#63b8ff" points="243.32,-146.83 252.78,-142.07 242.41,-139.89 243.32,-146.83"/>
</a>
</g>
</g>
<!-- Node8 -->
<g id="Node000008" class="node">
<title>Node8</title>
<g id="a_Node000008"><a xlink:href="../../dd/de3/classchdr_1_1mazes_1_1grid_a0abdfb4af71cccf812fb2b7150f0cc72.html#a0abdfb4af71cccf812fb2b7150f0cc72" target="_top" xlink:title="Retrieves the neighbours of a node within the grid.">
<polygon fill="white" stroke="#666666" points="373,-108 235,-108 235,-91 373,-91 373,-108"/>
<text text-anchor="middle" x="304" y="-97.6" font-family="Helvetica,sans-Serif" font-size="8.00">chdr::mazes::grid::get_neighbours</text>
</a>
</g>
</g>
<!-- Node1&#45;&gt;Node8 -->
<g id="edge8_Node000001_Node000008" class="edge">
<title>Node1&#45;&gt;Node8</title>
<g id="a_edge8_Node000001_Node000008"><a xlink:title=" ">
<path fill="none" stroke="#63b8ff" d="M23.37,-163.65C30.11,-147.38 46.97,-113.13 74,-99.5 133.53,-69.49 213.34,-78.79 261.31,-88.79"/>
<polygon fill="#63b8ff" stroke="#63b8ff" points="260.81,-92.26 271.33,-90.98 262.31,-85.42 260.81,-92.26"/>
</a>
</g>
</g>
<!-- Node9 -->
<g id="Node000009" class="node">
<title>Node9</title>
<g id="a_Node000009"><a xlink:href="../../dd/de3/classchdr_1_1mazes_1_1grid_a264c48c1d975bf357e96edcb92331ad2.html#a264c48c1d975bf357e96edcb92331ad2" target="_top" xlink:title="Determines whether a cell at the given index is transitory.">
<polygon fill="white" stroke="#666666" points="199,-126 74,-126 74,-109 199,-109 199,-126"/>
<text text-anchor="middle" x="136.5" y="-115.6" font-family="Helvetica,sans-Serif" font-size="8.00">chdr::mazes::grid::is_transitory</text>
</a>
</g>
</g>
<!-- Node1&#45;&gt;Node9 -->
<g id="edge9_Node000001_Node000009" class="edge">
<title>Node1&#45;&gt;Node9</title>
<g id="a_edge9_Node000001_Node000009"><a xlink:title=" ">
<path fill="none" stroke="#63b8ff" d="M32.96,-163.94C43.68,-157.07 59.45,-147.46 74,-140.5 82.29,-136.53 91.46,-132.78 100.14,-129.5"/>
<polygon fill="#63b8ff" stroke="#63b8ff" points="101.46,-132.75 109.64,-126.02 99.05,-126.17 101.46,-132.75"/>
</a>
</g>
</g>
<!-- Node10 -->
<g id="Node000010" class="node">
<title>Node10</title>
<g id="a_Node000010"><a xlink:href="../../d2/dcb/structchdr_1_1utils_ac49e3cb9b2b007da03059d95020d8b49.html#ac49e3cb9b2b007da03059d95020d8b49" target="_top" xlink:title="Returns the smaller of two values.">
<polygon fill="white" stroke="#666666" points="170.5,-52 102.5,-52 102.5,-35 170.5,-35 170.5,-52"/>
<text text-anchor="middle" x="136.5" y="-41.6" font-family="Helvetica,sans-Serif" font-size="8.00">chdr::utils::min</text>
</a>
</g>
</g>
<!-- Node1&#45;&gt;Node10 -->
<g id="edge12_Node000001_Node000010" class="edge">
<title>Node1&#45;&gt;Node10</title>
<g id="a_edge12_Node000001_Node000010"><a xlink:title=" ">
<path fill="none" stroke="#63b8ff" d="M22.12,-163.75C27.4,-143.72 43.03,-94.15 74,-66.5 79.5,-61.59 86.14,-57.7 92.99,-54.62"/>
<polygon fill="#63b8ff" stroke="#63b8ff" points="94.38,-57.83 102.39,-50.9 91.8,-51.32 94.38,-57.83"/>
</a>
</g>
</g>
<!-- Node11 -->
<g id="Node000011" class="node">
<title>Node11</title>
<g id="a_Node000011"><a xlink:href="../../dd/de3/classchdr_1_1mazes_1_1grid_a32d34adb7833cb15aa705c6c7ada57a8.html#a32d34adb7833cb15aa705c6c7ada57a8" target="_top" xlink:title="Retrieves the size of the grid.">
<polygon fill="white" stroke="#666666" points="184.5,-17 88.5,-17 88.5,0 184.5,0 184.5,-17"/>
<text text-anchor="middle" x="136.5" y="-6.6" font-family="Helvetica,sans-Serif" font-size="8.00">chdr::mazes::grid::size</text>
</a>
</g>
</g>
<!-- Node1&#45;&gt;Node11 -->
<g id="edge13_Node000001_Node000011" class="edge">
<title>Node1&#45;&gt;Node11</title>
<g id="a_edge13_Node000001_Node000011"><a xlink:title=" ">
<path fill="none" stroke="#63b8ff" d="M20.54,-163.71C22.57,-138.32 32,-64.18 74,-25.5 75.69,-23.95 77.51,-22.53 79.42,-21.24"/>
<polygon fill="#63b8ff" stroke="#63b8ff" points="81.24,-24.24 88.34,-16.38 77.89,-18.09 81.24,-24.24"/>
</a>
</g>
</g>
<!-- Node3&#45;&gt;Node3 -->
<g id="edge3_Node000003_Node000003" class="edge">
<title>Node3&#45;&gt;Node3</title>
<g id="a_edge3_Node000003_Node000003"><a xlink:title=" ">
<path fill="none" stroke="#63b8ff" d="M119.22,-309.19C109.67,-317.67 115.43,-327 136.5,-327 150,-327 157.21,-323.17 158.15,-318.19"/>
<polygon fill="#63b8ff" stroke="#63b8ff" points="161.29,-316.66 153.78,-309.19 154.99,-319.71 161.29,-316.66"/>
</a>
</g>
</g>
<!-- Node3&#45;&gt;Node4 -->
<g id="edge4_Node000003_Node000004" class="edge">
<title>Node3&#45;&gt;Node4</title>
<g id="a_edge4_Node000003_Node000004"><a xlink:title=" ">
<path fill="none" stroke="#63b8ff" d="M181.42,-295.46C204.52,-292.81 232.85,-289.55 256.35,-286.86"/>
<polygon fill="#63b8ff" stroke="#63b8ff" points="256.9,-290.32 266.44,-285.7 256.1,-283.36 256.9,-290.32"/>
</a>
</g>
</g>
<!-- Node9&#45;&gt;Node7 -->
<g id="edge10_Node000009_Node000007" class="edge">
<title>Node9&#45;&gt;Node7</title>
<g id="a_edge10_Node000009_Node000007"><a xlink:title=" ">
<path fill="none" stroke="#63b8ff" d="M199.13,-124.2C213.4,-125.75 228.57,-127.4 242.78,-128.95"/>
<polygon fill="#63b8ff" stroke="#63b8ff" points="242.61,-132.45 252.93,-130.05 243.37,-125.49 242.61,-132.45"/>
</a>
</g>
</g>
<!-- Node9&#45;&gt;Node8 -->
<g id="edge11_Node000009_Node000008" class="edge">
<title>Node9&#45;&gt;Node8</title>
<g id="a_edge11_Node000009_Node000008"><a xlink:title=" ">
<path fill="none" stroke="#63b8ff" d="M199.13,-110.8C207.52,-109.89 216.21,-108.94 224.85,-108"/>
<polygon fill="#63b8ff" stroke="#63b8ff" points="225.36,-111.46 234.93,-106.9 224.61,-104.51 225.36,-111.46"/>
</a>
</g>
</g>
</g>
</svg>
