<?xml version="1.0" encoding="UTF-8" standalone="no"?>
<!DOCTYPE svg PUBLIC "-//W3C//DTD SVG 1.1//EN"
 "http://www.w3.org/Graphics/SVG/1.1/DTD/svg11.dtd">
<!-- Generated by graphviz version 2.43.0 (0)
 -->
<!-- Title: dijkstra.hpp Pages: 1 -->
<svg width="601pt" height="290pt"
 viewBox="0.00 0.00 601.11 290.00" xmlns="http://www.w3.org/2000/svg" xmlns:xlink="http://www.w3.org/1999/xlink">
<g id="graph0" class="graph" transform="scale(1 1) rotate(0) translate(4 286)">
<title>dijkstra.hpp</title>
<!-- Node1 -->
<g id="Node000001" class="node">
<title>Node1</title>
<g id="a_Node000001"><a xlink:title=" ">
<polygon fill="#999999" stroke="#666666" points="104,-282 47,-282 47,-265 104,-265 104,-282"/>
<text text-anchor="middle" x="75.5" y="-271.6" font-family="Helvetica,sans-Serif" font-size="8.00">dijkstra.hpp</text>
</a>
</g>
</g>
<!-- Node2 -->
<g id="Node000002" class="node">
<title>Node2</title>
<g id="a_Node000002"><a xlink:title=" ">
<polygon fill="#e0e0e0" stroke="#999999" points="47,-229 0,-229 0,-212 47,-212 47,-229"/>
<text text-anchor="middle" x="23.5" y="-218.6" font-family="Helvetica,sans-Serif" font-size="8.00">iostream</text>
</a>
</g>
</g>
<!-- Node1&#45;&gt;Node2 -->
<g id="edge1_Node000001_Node000002" class="edge">
<title>Node1&#45;&gt;Node2</title>
<g id="a_edge1_Node000001_Node000002"><a xlink:title=" ">
<path fill="none" stroke="#63b8ff" d="M67.83,-264.97C60.15,-257.44 48.12,-245.65 38.54,-236.25"/>
<polygon fill="#63b8ff" stroke="#63b8ff" points="40.79,-233.56 31.2,-229.06 35.89,-238.56 40.79,-233.56"/>
</a>
</g>
</g>
<!-- Node3 -->
<g id="Node000003" class="node">
<title>Node3</title>
<g id="a_Node000003"><a xlink:title=" ">
<polygon fill="#e0e0e0" stroke="#999999" points="179.5,-123 141.5,-123 141.5,-106 179.5,-106 179.5,-123"/>
<text text-anchor="middle" x="160.5" y="-112.6" font-family="Helvetica,sans-Serif" font-size="8.00">vector</text>
</a>
</g>
</g>
<!-- Node1&#45;&gt;Node3 -->
<g id="edge2_Node000001_Node000003" class="edge">
<title>Node1&#45;&gt;Node3</title>
<g id="a_edge2_Node000001_Node000003"><a xlink:title=" ">
<path fill="none" stroke="#63b8ff" d="M79.6,-264.93C92.58,-240.95 133.01,-166.27 151.32,-132.45"/>
<polygon fill="#63b8ff" stroke="#63b8ff" points="154.56,-133.83 156.24,-123.37 148.4,-130.49 154.56,-133.83"/>
</a>
</g>
</g>
<!-- Node4 -->
<g id="Node000004" class="node">
<title>Node4</title>
<g id="a_Node000004"><a xlink:href="../../d2/d1c/solver_8hpp.html" target="_top" xlink:title=" ">
<polygon fill="white" stroke="#666666" points="346.5,-229 274.5,-229 274.5,-212 346.5,-212 346.5,-229"/>
<text text-anchor="middle" x="310.5" y="-218.6" font-family="Helvetica,sans-Serif" font-size="8.00">base/solver.hpp</text>
</a>
</g>
</g>
<!-- Node1&#45;&gt;Node4 -->
<g id="edge3_Node000001_Node000004" class="edge">
<title>Node1&#45;&gt;Node4</title>
<g id="a_edge3_Node000001_Node000004"><a xlink:title=" ">
<path fill="none" stroke="#63b8ff" d="M104.32,-266.25C144.62,-257.5 218.22,-241.53 265.71,-231.22"/>
<polygon fill="#63b8ff" stroke="#63b8ff" points="266.68,-234.59 275.71,-229.05 265.2,-227.75 266.68,-234.59"/>
</a>
</g>
</g>
<!-- Node4&#45;&gt;Node3 -->
<g id="edge6_Node000004_Node000003" class="edge">
<title>Node4&#45;&gt;Node3</title>
<g id="a_edge6_Node000004_Node000003"><a xlink:title=" ">
<path fill="none" stroke="#63b8ff" d="M291.85,-211.94C273.82,-204.21 246.13,-191.2 224.5,-176 205.62,-162.73 186.76,-144.07 174.45,-131"/>
<polygon fill="#63b8ff" stroke="#63b8ff" points="176.73,-128.31 167.38,-123.33 171.58,-133.05 176.73,-128.31"/>
</a>
</g>
</g>
<!-- Node5 -->
<g id="Node000005" class="node">
<title>Node5</title>
<g id="a_Node000005"><a xlink:title=" ">
<polygon fill="#e0e0e0" stroke="#999999" points="520.5,-17 478.5,-17 478.5,0 520.5,0 520.5,-17"/>
<text text-anchor="middle" x="499.5" y="-6.6" font-family="Helvetica,sans-Serif" font-size="8.00">cstddef</text>
</a>
</g>
</g>
<!-- Node4&#45;&gt;Node5 -->
<g id="edge4_Node000004_Node000005" class="edge">
<title>Node4&#45;&gt;Node5</title>
<g id="a_edge4_Node000004_Node000005"><a xlink:title=" ">
<path fill="none" stroke="#63b8ff" d="M346.66,-217.84C387.32,-214.56 454.11,-204.83 503.5,-176 530.95,-159.98 531.86,-147.98 551.5,-123 573.12,-95.5 605.96,-82.72 587.5,-53 575.11,-33.06 550.58,-21.99 530.56,-16.01"/>
<polygon fill="#63b8ff" stroke="#63b8ff" points="531.45,-12.62 520.88,-13.4 529.62,-19.38 531.45,-12.62"/>
</a>
</g>
</g>
<!-- Node6 -->
<g id="Node000006" class="node">
<title>Node6</title>
<g id="a_Node000006"><a xlink:title=" ">
<polygon fill="#e0e0e0" stroke="#999999" points="436,-70 383,-70 383,-53 436,-53 436,-70"/>
<text text-anchor="middle" x="409.5" y="-59.6" font-family="Helvetica,sans-Serif" font-size="8.00">type_traits</text>
</a>
</g>
</g>
<!-- Node4&#45;&gt;Node6 -->
<g id="edge5_Node000004_Node000006" class="edge">
<title>Node4&#45;&gt;Node6</title>
<g id="a_edge5_Node000004_Node000006"><a xlink:title=" ">
<path fill="none" stroke="#63b8ff" d="M274.61,-211.91C210.4,-196.78 86.64,-159.62 132.5,-106 162.98,-70.36 304.51,-63.73 372.65,-62.63"/>
<polygon fill="#63b8ff" stroke="#63b8ff" points="372.97,-66.12 382.93,-62.49 372.88,-59.12 372.97,-66.12"/>
</a>
</g>
</g>
<!-- Node7 -->
<g id="Node000007" class="node">
<title>Node7</title>
<g id="a_Node000007"><a xlink:href="../../d8/d62/existence__set_8hpp.html" target="_top" xlink:title=" ">
<polygon fill="white" stroke="#666666" points="387.5,-176 233.5,-176 233.5,-159 387.5,-159 387.5,-176"/>
<text text-anchor="middle" x="310.5" y="-165.6" font-family="Helvetica,sans-Serif" font-size="8.00">../../types/containers/existence_set.hpp</text>
</a>
</g>
</g>
<!-- Node4&#45;&gt;Node7 -->
<g id="edge7_Node000004_Node000007" class="edge">
<title>Node4&#45;&gt;Node7</title>
<g id="a_edge7_Node000004_Node000007"><a xlink:title=" ">
<path fill="none" stroke="#63b8ff" d="M310.5,-211.97C310.5,-205.19 310.5,-194.97 310.5,-186.13"/>
<polygon fill="#63b8ff" stroke="#63b8ff" points="314,-186.06 310.5,-176.06 307,-186.06 314,-186.06"/>
</a>
</g>
</g>
<!-- Node10 -->
<g id="Node000010" class="node">
<title>Node10</title>
<g id="a_Node000010"><a xlink:href="../../df/d93/utils_8hpp.html" target="_top" xlink:title=" ">
<polygon fill="#fff0f0" stroke="red" points="527,-123 452,-123 452,-106 527,-106 527,-123"/>
<text text-anchor="middle" x="489.5" y="-112.6" font-family="Helvetica,sans-Serif" font-size="8.00">../../utils/utils.hpp</text>
</a>
</g>
</g>
<!-- Node4&#45;&gt;Node10 -->
<g id="edge18_Node000004_Node000010" class="edge">
<title>Node4&#45;&gt;Node10</title>
<g id="a_edge18_Node000004_Node000010"><a xlink:title=" ">
<path fill="none" stroke="#63b8ff" d="M326.62,-211.99C344.11,-203.7 372.72,-189.69 396.5,-176 422.63,-160.95 451.58,-141.68 470.13,-128.98"/>
<polygon fill="#63b8ff" stroke="#63b8ff" points="472.33,-131.72 478.58,-123.16 468.36,-125.95 472.33,-131.72"/>
</a>
</g>
</g>
<!-- Node15 -->
<g id="Node000015" class="node">
<title>Node15</title>
<g id="a_Node000015"><a xlink:href="../../d7/d65/intrinsics_8hpp.html" target="_top" xlink:title=" ">
<polygon fill="#fff0f0" stroke="red" points="578,-70 493,-70 493,-53 578,-53 578,-70"/>
<text text-anchor="middle" x="535.5" y="-59.6" font-family="Helvetica,sans-Serif" font-size="8.00">../utils/intrinsics.hpp</text>
</a>
</g>
</g>
<!-- Node4&#45;&gt;Node15 -->
<g id="edge19_Node000004_Node000015" class="edge">
<title>Node4&#45;&gt;Node15</title>
<g id="a_edge19_Node000004_Node000015"><a xlink:title=" ">
<path fill="none" stroke="#63b8ff" d="M346.55,-216.26C398.98,-209.37 494.46,-188.07 535.5,-123 543.47,-110.36 542.58,-93.07 540.22,-80.22"/>
<polygon fill="#63b8ff" stroke="#63b8ff" points="543.59,-79.25 537.95,-70.29 536.76,-80.81 543.59,-79.25"/>
</a>
</g>
</g>
<!-- Node7&#45;&gt;Node3 -->
<g id="edge12_Node000007_Node000003" class="edge">
<title>Node7&#45;&gt;Node3</title>
<g id="a_edge12_Node000007_Node000003"><a xlink:title=" ">
<path fill="none" stroke="#63b8ff" d="M288.37,-158.97C262.12,-150.05 218.31,-135.15 189.41,-125.33"/>
<polygon fill="#63b8ff" stroke="#63b8ff" points="190.45,-121.99 179.86,-122.08 188.2,-128.62 190.45,-121.99"/>
</a>
</g>
</g>
<!-- Node7&#45;&gt;Node5 -->
<g id="edge8_Node000007_Node000005" class="edge">
<title>Node7&#45;&gt;Node5</title>
<g id="a_edge8_Node000007_Node000005"><a xlink:title=" ">
<path fill="none" stroke="#63b8ff" d="M307.31,-158.97C302.77,-147.05 295.91,-123.42 304.5,-106 335.08,-43.95 421.71,-21.29 468.54,-13.42"/>
<polygon fill="#63b8ff" stroke="#63b8ff" points="469.1,-16.88 478.44,-11.88 468.02,-9.96 469.1,-16.88"/>
</a>
</g>
</g>
<!-- Node7&#45;&gt;Node6 -->
<g id="edge11_Node000007_Node000006" class="edge">
<title>Node7&#45;&gt;Node6</title>
<g id="a_edge11_Node000007_Node000006"><a xlink:title=" ">
<path fill="none" stroke="#63b8ff" d="M347.61,-158.9C367.82,-152.74 391.32,-141.87 404.5,-123 413.09,-110.71 413.68,-93.38 412.5,-80.42"/>
<polygon fill="#63b8ff" stroke="#63b8ff" points="415.95,-79.85 411.17,-70.39 409.02,-80.77 415.95,-79.85"/>
</a>
</g>
</g>
<!-- Node8 -->
<g id="Node000008" class="node">
<title>Node8</title>
<g id="a_Node000008"><a xlink:title=" ">
<polygon fill="#e0e0e0" stroke="#999999" points="257.5,-123 197.5,-123 197.5,-106 257.5,-106 257.5,-123"/>
<text text-anchor="middle" x="227.5" y="-112.6" font-family="Helvetica,sans-Serif" font-size="8.00">initializer_list</text>
</a>
</g>
</g>
<!-- Node7&#45;&gt;Node8 -->
<g id="edge9_Node000007_Node000008" class="edge">
<title>Node7&#45;&gt;Node8</title>
<g id="a_edge9_Node000007_Node000008"><a xlink:title=" ">
<path fill="none" stroke="#63b8ff" d="M298.25,-158.97C285.14,-150.91 264.08,-137.98 248.35,-128.31"/>
<polygon fill="#63b8ff" stroke="#63b8ff" points="250.15,-125.31 239.8,-123.06 246.48,-131.27 250.15,-125.31"/>
</a>
</g>
</g>
<!-- Node9 -->
<g id="Node000009" class="node">
<title>Node9</title>
<g id="a_Node000009"><a xlink:title=" ">
<polygon fill="#e0e0e0" stroke="#999999" points="395.5,-123 313.5,-123 313.5,-106 395.5,-106 395.5,-123"/>
<text text-anchor="middle" x="354.5" y="-112.6" font-family="Helvetica,sans-Serif" font-size="8.00">memory_resource</text>
</a>
</g>
</g>
<!-- Node7&#45;&gt;Node9 -->
<g id="edge10_Node000007_Node000009" class="edge">
<title>Node7&#45;&gt;Node9</title>
<g id="a_edge10_Node000007_Node000009"><a xlink:title=" ">
<path fill="none" stroke="#63b8ff" d="M316.99,-158.97C323.36,-151.59 333.26,-140.12 341.29,-130.81"/>
<polygon fill="#63b8ff" stroke="#63b8ff" points="344.1,-132.91 347.98,-123.06 338.8,-128.34 344.1,-132.91"/>
</a>
</g>
</g>
<!-- Node7&#45;&gt;Node10 -->
<g id="edge13_Node000007_Node000010" class="edge">
<title>Node7&#45;&gt;Node10</title>
<g id="a_edge13_Node000007_Node000010"><a xlink:title=" ">
<path fill="none" stroke="#63b8ff" d="M336.91,-158.97C367.71,-150.2 418.8,-135.64 453.29,-125.82"/>
<polygon fill="#63b8ff" stroke="#63b8ff" points="454.32,-129.16 462.98,-123.06 452.4,-122.43 454.32,-129.16"/>
</a>
</g>
</g>
<!-- Node10&#45;&gt;Node5 -->
<g id="edge14_Node000010_Node000005" class="edge">
<title>Node10&#45;&gt;Node5</title>
<g id="a_edge14_Node000010_Node000005"><a xlink:title=" ">
<path fill="none" stroke="#63b8ff" d="M487.69,-106C485.19,-94.52 481.33,-71.92 484.5,-53 485.99,-44.12 489.08,-34.62 492.06,-26.77"/>
<polygon fill="#63b8ff" stroke="#63b8ff" points="495.39,-27.89 495.92,-17.31 488.91,-25.25 495.39,-27.89"/>
</a>
</g>
</g>
<!-- Node10&#45;&gt;Node6 -->
<g id="edge15_Node000010_Node000006" class="edge">
<title>Node10&#45;&gt;Node6</title>
<g id="a_edge15_Node000010_Node000006"><a xlink:title=" ">
<path fill="none" stroke="#63b8ff" d="M477.7,-105.97C465.17,-97.99 445.14,-85.22 430.02,-75.58"/>
<polygon fill="#63b8ff" stroke="#63b8ff" points="431.67,-72.48 421.35,-70.06 427.9,-78.38 431.67,-72.48"/>
</a>
</g>
</g>
<!-- Node10&#45;&gt;Node15 -->
<g id="edge16_Node000010_Node000015" class="edge">
<title>Node10&#45;&gt;Node15</title>
<g id="a_edge16_Node000010_Node000015"><a xlink:title=" ">
<path fill="none" stroke="#63b8ff" d="M496.29,-105.97C503.01,-98.52 513.51,-86.89 521.94,-77.53"/>
<polygon fill="#63b8ff" stroke="#63b8ff" points="524.59,-79.83 528.68,-70.06 519.39,-75.14 524.59,-79.83"/>
</a>
</g>
</g>
<!-- Node15&#45;&gt;Node5 -->
<g id="edge17_Node000015_Node000005" class="edge">
<title>Node15&#45;&gt;Node5</title>
<g id="a_edge17_Node000015_Node000005"><a xlink:title=" ">
<path fill="none" stroke="#63b8ff" d="M530.19,-52.97C525.08,-45.74 517.21,-34.59 510.71,-25.39"/>
<polygon fill="#63b8ff" stroke="#63b8ff" points="513.46,-23.21 504.83,-17.06 507.74,-27.24 513.46,-23.21"/>
</a>
</g>
</g>
</g>
</svg>
