<?xml version="1.0" encoding="UTF-8" standalone="no"?>
<!DOCTYPE svg PUBLIC "-//W3C//DTD SVG 1.1//EN"
 "http://www.w3.org/Graphics/SVG/1.1/DTD/svg11.dtd">
<!-- Generated by graphviz version 2.43.0 (0)
 -->
<!-- Title: dijkstra.hpp Pages: 1 -->
<svg width="690pt" height="237pt"
 viewBox="0.00 0.00 690.00 237.00" xmlns="http://www.w3.org/2000/svg" xmlns:xlink="http://www.w3.org/1999/xlink">
<g id="graph0" class="graph" transform="scale(1 1) rotate(0) translate(4 233)">
<title>dijkstra.hpp</title>
<!-- Node1 -->
<g id="Node000001" class="node">
<title>Node1</title>
<g id="a_Node000001"><a xlink:title=" ">
<polygon fill="#999999" stroke="#666666" points="172,-229 107,-229 107,-212 172,-212 172,-229"/>
<text text-anchor="middle" x="139.5" y="-218.6" font-family="Helvetica,sans-Serif" font-size="8.00">dijkstra.hpp</text>
</a>
</g>
</g>
<!-- Node2 -->
<g id="Node000002" class="node">
<title>Node2</title>
<g id="a_Node000002"><a xlink:title=" ">
<polygon fill="#e0e0e0" stroke="#999999" points="53,-123 0,-123 0,-106 53,-106 53,-123"/>
<text text-anchor="middle" x="26.5" y="-112.6" font-family="Helvetica,sans-Serif" font-size="8.00">iostream</text>
</a>
</g>
</g>
<!-- Node1&#45;&gt;Node2 -->
<g id="edge1_Node000001_Node000002" class="edge">
<title>Node1&#45;&gt;Node2</title>
<g id="a_edge1_Node000001_Node000002"><a xlink:title=" ">
<path fill="none" stroke="#63b8ff" d="M131.01,-211.68C112.18,-194.36 66.7,-152.5 42.41,-130.15"/>
<polygon fill="#63b8ff" stroke="#63b8ff" points="44.51,-127.32 34.78,-123.12 39.77,-132.47 44.51,-127.32"/>
</a>
</g>
</g>
<!-- Node3 -->
<g id="Node000003" class="node">
<title>Node3</title>
<g id="a_Node000003"><a xlink:title=" ">
<polygon fill="#e0e0e0" stroke="#999999" points="113.5,-123 71.5,-123 71.5,-106 113.5,-106 113.5,-123"/>
<text text-anchor="middle" x="92.5" y="-112.6" font-family="Helvetica,sans-Serif" font-size="8.00">vector</text>
</a>
</g>
</g>
<!-- Node1&#45;&gt;Node3 -->
<g id="edge2_Node000001_Node000003" class="edge">
<title>Node1&#45;&gt;Node3</title>
<g id="a_edge2_Node000001_Node000003"><a xlink:title=" ">
<path fill="none" stroke="#63b8ff" d="M135.97,-211.68C128.38,-194.89 110.37,-155.04 100.07,-132.25"/>
<polygon fill="#63b8ff" stroke="#63b8ff" points="103.25,-130.8 95.95,-123.12 96.87,-133.68 103.25,-130.8"/>
</a>
</g>
</g>
<!-- Node4 -->
<g id="Node000004" class="node">
<title>Node4</title>
<g id="a_Node000004"><a xlink:href="../../d2/d1c/solver_8hpp.html" target="_top" xlink:title=" ">
<polygon fill="white" stroke="#666666" points="211.5,-176 129.5,-176 129.5,-159 211.5,-159 211.5,-176"/>
<text text-anchor="middle" x="170.5" y="-165.6" font-family="Helvetica,sans-Serif" font-size="8.00">base/solver.hpp</text>
</a>
</g>
</g>
<!-- Node1&#45;&gt;Node4 -->
<g id="edge3_Node000001_Node000004" class="edge">
<title>Node1&#45;&gt;Node4</title>
<g id="a_edge3_Node000001_Node000004"><a xlink:title=" ">
<path fill="none" stroke="#63b8ff" d="M144.07,-211.97C148.42,-204.82 155.11,-193.82 160.67,-184.67"/>
<polygon fill="#63b8ff" stroke="#63b8ff" points="163.7,-186.42 165.91,-176.06 157.72,-182.78 163.7,-186.42"/>
</a>
</g>
</g>
<!-- Node13 -->
<g id="Node000013" class="node">
<title>Node13</title>
<g id="a_Node000013"><a xlink:href="../../d7/d65/intrinsics_8hpp.html" target="_top" xlink:title=" ">
<polygon fill="#fff0f0" stroke="red" points="682,-70 583,-70 583,-53 682,-53 682,-70"/>
<text text-anchor="middle" x="632.5" y="-59.6" font-family="Helvetica,sans-Serif" font-size="8.00">../utils/intrinsics.hpp</text>
</a>
</g>
</g>
<!-- Node1&#45;&gt;Node13 -->
<g id="edge20_Node000001_Node000013" class="edge">
<title>Node1&#45;&gt;Node13</title>
<g id="a_edge20_Node000001_Node000013"><a xlink:title=" ">
<path fill="none" stroke="#63b8ff" d="M164.72,-211.96C218,-195.98 345.87,-157.35 452.5,-123 504.62,-106.21 564.89,-85.74 600.78,-73.43"/>
<polygon fill="#63b8ff" stroke="#63b8ff" points="602.35,-76.59 610.67,-70.04 600.07,-69.97 602.35,-76.59"/>
</a>
</g>
</g>
<!-- Node4&#45;&gt;Node2 -->
<g id="edge18_Node000004_Node000002" class="edge">
<title>Node4&#45;&gt;Node2</title>
<g id="a_edge18_Node000004_Node000002"><a xlink:title=" ">
<path fill="none" stroke="#63b8ff" d="M149.25,-158.97C125,-150.39 85.13,-136.27 57.44,-126.46"/>
<polygon fill="#63b8ff" stroke="#63b8ff" points="58.43,-123.1 47.83,-123.06 56.09,-129.69 58.43,-123.1"/>
</a>
</g>
</g>
<!-- Node4&#45;&gt;Node3 -->
<g id="edge7_Node000004_Node000003" class="edge">
<title>Node4&#45;&gt;Node3</title>
<g id="a_edge7_Node000004_Node000003"><a xlink:title=" ">
<path fill="none" stroke="#63b8ff" d="M158.99,-158.97C146.78,-150.99 127.25,-138.22 112.51,-128.58"/>
<polygon fill="#63b8ff" stroke="#63b8ff" points="114.34,-125.6 104.06,-123.06 110.51,-131.46 114.34,-125.6"/>
</a>
</g>
</g>
<!-- Node5 -->
<g id="Node000005" class="node">
<title>Node5</title>
<g id="a_Node000005"><a xlink:title=" ">
<polygon fill="#e0e0e0" stroke="#999999" points="328,-17 281,-17 281,0 328,0 328,-17"/>
<text text-anchor="middle" x="304.5" y="-6.6" font-family="Helvetica,sans-Serif" font-size="8.00">cstddef</text>
</a>
</g>
</g>
<!-- Node4&#45;&gt;Node5 -->
<g id="edge4_Node000004_Node000005" class="edge">
<title>Node4&#45;&gt;Node5</title>
<g id="a_edge4_Node000004_Node000005"><a xlink:title=" ">
<path fill="none" stroke="#63b8ff" d="M165.77,-158.96C154.11,-139.32 126.69,-85.84 151.5,-53 165.85,-34 230.32,-20.85 270.86,-14.3"/>
<polygon fill="#63b8ff" stroke="#63b8ff" points="271.51,-17.74 280.85,-12.74 270.43,-10.82 271.51,-17.74"/>
</a>
</g>
</g>
<!-- Node6 -->
<g id="Node000006" class="node">
<title>Node6</title>
<g id="a_Node000006"><a xlink:title=" ">
<polygon fill="#e0e0e0" stroke="#999999" points="198.5,-70 160.5,-70 160.5,-53 198.5,-53 198.5,-70"/>
<text text-anchor="middle" x="179.5" y="-59.6" font-family="Helvetica,sans-Serif" font-size="8.00">limits</text>
</a>
</g>
</g>
<!-- Node4&#45;&gt;Node6 -->
<g id="edge5_Node000004_Node000006" class="edge">
<title>Node4&#45;&gt;Node6</title>
<g id="a_edge5_Node000004_Node000006"><a xlink:title=" ">
<path fill="none" stroke="#63b8ff" d="M171.18,-158.68C172.61,-142.11 175.99,-103.11 177.97,-80.18"/>
<polygon fill="#63b8ff" stroke="#63b8ff" points="181.46,-80.39 178.84,-70.12 174.49,-79.79 181.46,-80.39"/>
</a>
</g>
</g>
<!-- Node7 -->
<g id="Node000007" class="node">
<title>Node7</title>
<g id="a_Node000007"><a xlink:title=" ">
<polygon fill="#e0e0e0" stroke="#999999" points="276,-70 217,-70 217,-53 276,-53 276,-70"/>
<text text-anchor="middle" x="246.5" y="-59.6" font-family="Helvetica,sans-Serif" font-size="8.00">type_traits</text>
</a>
</g>
</g>
<!-- Node4&#45;&gt;Node7 -->
<g id="edge6_Node000004_Node000007" class="edge">
<title>Node4&#45;&gt;Node7</title>
<g id="a_edge6_Node000004_Node000007"><a xlink:title=" ">
<path fill="none" stroke="#63b8ff" d="M176.21,-158.68C188.65,-141.66 218.4,-100.95 234.93,-78.34"/>
<polygon fill="#63b8ff" stroke="#63b8ff" points="237.85,-80.26 240.93,-70.12 232.2,-76.13 237.85,-80.26"/>
</a>
</g>
</g>
<!-- Node8 -->
<g id="Node000008" class="node">
<title>Node8</title>
<g id="a_Node000008"><a xlink:href="../../df/d93/utils_8hpp.html" target="_top" xlink:title=" ">
<polygon fill="white" stroke="#666666" points="395,-123 308,-123 308,-106 395,-106 395,-123"/>
<text text-anchor="middle" x="351.5" y="-112.6" font-family="Helvetica,sans-Serif" font-size="8.00">../../utils/utils.hpp</text>
</a>
</g>
</g>
<!-- Node4&#45;&gt;Node8 -->
<g id="edge8_Node000004_Node000008" class="edge">
<title>Node4&#45;&gt;Node8</title>
<g id="a_edge8_Node000004_Node000008"><a xlink:title=" ">
<path fill="none" stroke="#63b8ff" d="M197.21,-158.97C228.35,-150.2 280.01,-135.64 314.88,-125.82"/>
<polygon fill="#63b8ff" stroke="#63b8ff" points="316.01,-129.14 324.68,-123.06 314.11,-122.4 316.01,-129.14"/>
</a>
</g>
</g>
<!-- Node4&#45;&gt;Node13 -->
<g id="edge19_Node000004_Node000013" class="edge">
<title>Node4&#45;&gt;Node13</title>
<g id="a_edge19_Node000004_Node000013"><a xlink:title=" ">
<path fill="none" stroke="#63b8ff" d="M211.69,-159.81C258.59,-151.97 337.38,-138.12 404.5,-123 473.07,-107.55 552.18,-85.62 596.87,-72.85"/>
<polygon fill="#63b8ff" stroke="#63b8ff" points="598.02,-76.16 606.67,-70.04 596.09,-69.43 598.02,-76.16"/>
</a>
</g>
</g>
<!-- Node8&#45;&gt;Node5 -->
<g id="edge11_Node000008_Node000005" class="edge">
<title>Node8&#45;&gt;Node5</title>
<g id="a_edge11_Node000008_Node000005"><a xlink:title=" ">
<path fill="none" stroke="#63b8ff" d="M345.67,-105.85C339.48,-97.44 329.75,-83.34 323.5,-70 316.99,-56.11 311.94,-39.41 308.69,-27.09"/>
<polygon fill="#63b8ff" stroke="#63b8ff" points="312.03,-26.05 306.21,-17.19 305.24,-27.75 312.03,-26.05"/>
</a>
</g>
</g>
<!-- Node8&#45;&gt;Node6 -->
<g id="edge13_Node000008_Node000006" class="edge">
<title>Node8&#45;&gt;Node6</title>
<g id="a_edge13_Node000008_Node000006"><a xlink:title=" ">
<path fill="none" stroke="#63b8ff" d="M326.12,-105.97C294.75,-96.67 241.49,-80.88 208.53,-71.11"/>
<polygon fill="#63b8ff" stroke="#63b8ff" points="209.18,-67.65 198.6,-68.16 207.19,-74.36 209.18,-67.65"/>
</a>
</g>
</g>
<!-- Node8&#45;&gt;Node7 -->
<g id="edge15_Node000008_Node000007" class="edge">
<title>Node8&#45;&gt;Node7</title>
<g id="a_edge15_Node000008_Node000007"><a xlink:title=" ">
<path fill="none" stroke="#63b8ff" d="M336.01,-105.97C318.95,-97.69 291.28,-84.25 271.22,-74.5"/>
<polygon fill="#63b8ff" stroke="#63b8ff" points="272.58,-71.28 262.06,-70.06 269.52,-77.57 272.58,-71.28"/>
</a>
</g>
</g>
<!-- Node9 -->
<g id="Node000009" class="node">
<title>Node9</title>
<g id="a_Node000009"><a xlink:title=" ">
<polygon fill="#e0e0e0" stroke="#999999" points="370.5,-70 332.5,-70 332.5,-53 370.5,-53 370.5,-70"/>
<text text-anchor="middle" x="351.5" y="-59.6" font-family="Helvetica,sans-Serif" font-size="8.00">array</text>
</a>
</g>
</g>
<!-- Node8&#45;&gt;Node9 -->
<g id="edge9_Node000008_Node000009" class="edge">
<title>Node8&#45;&gt;Node9</title>
<g id="a_edge9_Node000008_Node000009"><a xlink:title=" ">
<path fill="none" stroke="#63b8ff" d="M351.5,-105.97C351.5,-99.19 351.5,-88.97 351.5,-80.13"/>
<polygon fill="#63b8ff" stroke="#63b8ff" points="355,-80.06 351.5,-70.06 348,-80.06 355,-80.06"/>
</a>
</g>
</g>
<!-- Node10 -->
<g id="Node000010" class="node">
<title>Node10</title>
<g id="a_Node000010"><a xlink:title=" ">
<polygon fill="#e0e0e0" stroke="#999999" points="430.5,-70 388.5,-70 388.5,-53 430.5,-53 430.5,-70"/>
<text text-anchor="middle" x="409.5" y="-59.6" font-family="Helvetica,sans-Serif" font-size="8.00">cmath</text>
</a>
</g>
</g>
<!-- Node8&#45;&gt;Node10 -->
<g id="edge10_Node000008_Node000010" class="edge">
<title>Node8&#45;&gt;Node10</title>
<g id="a_edge10_Node000008_Node000010"><a xlink:title=" ">
<path fill="none" stroke="#63b8ff" d="M360.06,-105.97C368.8,-98.29 382.57,-86.18 393.37,-76.69"/>
<polygon fill="#63b8ff" stroke="#63b8ff" points="395.71,-79.29 400.91,-70.06 391.09,-74.03 395.71,-79.29"/>
</a>
</g>
</g>
<!-- Node11 -->
<g id="Node000011" class="node">
<title>Node11</title>
<g id="a_Node000011"><a xlink:title=" ">
<polygon fill="#e0e0e0" stroke="#999999" points="506.5,-70 448.5,-70 448.5,-53 506.5,-53 506.5,-70"/>
<text text-anchor="middle" x="477.5" y="-59.6" font-family="Helvetica,sans-Serif" font-size="8.00">functional</text>
</a>
</g>
</g>
<!-- Node8&#45;&gt;Node11 -->
<g id="edge12_Node000008_Node000011" class="edge">
<title>Node8&#45;&gt;Node11</title>
<g id="a_edge12_Node000008_Node000011"><a xlink:title=" ">
<path fill="none" stroke="#63b8ff" d="M370.09,-105.97C391.03,-97.5 425.28,-83.64 449.47,-73.85"/>
<polygon fill="#63b8ff" stroke="#63b8ff" points="450.88,-77.05 458.83,-70.06 448.25,-70.56 450.88,-77.05"/>
</a>
</g>
</g>
<!-- Node12 -->
<g id="Node000012" class="node">
<title>Node12</title>
<g id="a_Node000012"><a xlink:title=" ">
<polygon fill="#e0e0e0" stroke="#999999" points="564.5,-70 524.5,-70 524.5,-53 564.5,-53 564.5,-70"/>
<text text-anchor="middle" x="544.5" y="-59.6" font-family="Helvetica,sans-Serif" font-size="8.00">string</text>
</a>
</g>
</g>
<!-- Node8&#45;&gt;Node12 -->
<g id="edge14_Node000008_Node000012" class="edge">
<title>Node8&#45;&gt;Node12</title>
<g id="a_edge14_Node000008_Node000012"><a xlink:title=" ">
<path fill="none" stroke="#63b8ff" d="M379.98,-105.97C415.96,-96.47 477.6,-80.18 514.36,-70.47"/>
<polygon fill="#63b8ff" stroke="#63b8ff" points="515.69,-73.73 524.46,-67.79 513.9,-66.97 515.69,-73.73"/>
</a>
</g>
</g>
<!-- Node8&#45;&gt;Node13 -->
<g id="edge16_Node000008_Node000013" class="edge">
<title>Node8&#45;&gt;Node13</title>
<g id="a_edge16_Node000008_Node000013"><a xlink:title=" ">
<path fill="none" stroke="#63b8ff" d="M392.96,-105.97C442.87,-96.92 526.71,-81.7 580.8,-71.88"/>
<polygon fill="#63b8ff" stroke="#63b8ff" points="581.65,-75.29 590.87,-70.06 580.4,-68.4 581.65,-75.29"/>
</a>
</g>
</g>
<!-- Node13&#45;&gt;Node5 -->
<g id="edge17_Node000013_Node000005" class="edge">
<title>Node13&#45;&gt;Node5</title>
<g id="a_edge17_Node000013_Node000005"><a xlink:title=" ">
<path fill="none" stroke="#63b8ff" d="M584.1,-52.97C516.83,-42.51 396.76,-23.85 338.32,-14.76"/>
<polygon fill="#63b8ff" stroke="#63b8ff" points="338.57,-11.26 328.15,-13.18 337.49,-18.17 338.57,-11.26"/>
</a>
</g>
</g>
</g>
</svg>
