<?xml version="1.0" encoding="UTF-8" standalone="no"?>
<!DOCTYPE svg PUBLIC "-//W3C//DTD SVG 1.1//EN"
 "http://www.w3.org/Graphics/SVG/1.1/DTD/svg11.dtd">
<!-- Generated by graphviz version 2.43.0 (0)
 -->
<!-- Title: dijkstra.hpp Pages: 1 -->
<svg width="582pt" height="237pt"
 viewBox="0.00 0.00 581.50 237.00" xmlns="http://www.w3.org/2000/svg" xmlns:xlink="http://www.w3.org/1999/xlink">
<g id="graph0" class="graph" transform="scale(1 1) rotate(0) translate(4 233)">
<title>dijkstra.hpp</title>
<!-- Node1 -->
<g id="Node000001" class="node">
<title>Node1</title>
<g id="a_Node000001"><a xlink:title=" ">
<polygon fill="#999999" stroke="#666666" points="144.5,-229 87.5,-229 87.5,-212 144.5,-212 144.5,-229"/>
<text text-anchor="middle" x="116" y="-218.6" font-family="Helvetica,sans-Serif" font-size="8.00">dijkstra.hpp</text>
</a>
</g>
</g>
<!-- Node2 -->
<g id="Node000002" class="node">
<title>Node2</title>
<g id="a_Node000002"><a xlink:title=" ">
<polygon fill="#e0e0e0" stroke="#999999" points="55.5,-176 8.5,-176 8.5,-159 55.5,-159 55.5,-176"/>
<text text-anchor="middle" x="32" y="-165.6" font-family="Helvetica,sans-Serif" font-size="8.00">iostream</text>
</a>
</g>
</g>
<!-- Node1&#45;&gt;Node2 -->
<g id="edge1_Node000001_Node000002" class="edge">
<title>Node1&#45;&gt;Node2</title>
<g id="a_edge1_Node000001_Node000002"><a xlink:title=" ">
<path fill="none" stroke="#63b8ff" d="M103.61,-211.97C90.33,-203.91 69.02,-190.98 53.1,-181.31"/>
<polygon fill="#63b8ff" stroke="#63b8ff" points="54.81,-178.25 44.45,-176.06 51.18,-184.24 54.81,-178.25"/>
</a>
</g>
</g>
<!-- Node3 -->
<g id="Node000003" class="node">
<title>Node3</title>
<g id="a_Node000003"><a xlink:title=" ">
<polygon fill="#e0e0e0" stroke="#999999" points="38,-123 0,-123 0,-106 38,-106 38,-123"/>
<text text-anchor="middle" x="19" y="-112.6" font-family="Helvetica,sans-Serif" font-size="8.00">vector</text>
</a>
</g>
</g>
<!-- Node1&#45;&gt;Node3 -->
<g id="edge2_Node000001_Node000003" class="edge">
<title>Node1&#45;&gt;Node3</title>
<g id="a_edge2_Node000001_Node000003"><a xlink:title=" ">
<path fill="none" stroke="#63b8ff" d="M109.81,-211.85C100.28,-200.18 81.3,-177.34 64,-159 54.64,-149.07 43.63,-138.42 34.85,-130.14"/>
<polygon fill="#63b8ff" stroke="#63b8ff" points="37.22,-127.56 27.52,-123.29 32.44,-132.68 37.22,-127.56"/>
</a>
</g>
</g>
<!-- Node4 -->
<g id="Node000004" class="node">
<title>Node4</title>
<g id="a_Node000004"><a xlink:href="../../d2/d1c/solver_8hpp.html" target="_top" xlink:title=" ">
<polygon fill="white" stroke="#666666" points="184,-176 112,-176 112,-159 184,-159 184,-176"/>
<text text-anchor="middle" x="148" y="-165.6" font-family="Helvetica,sans-Serif" font-size="8.00">base/solver.hpp</text>
</a>
</g>
</g>
<!-- Node1&#45;&gt;Node4 -->
<g id="edge3_Node000001_Node000004" class="edge">
<title>Node1&#45;&gt;Node4</title>
<g id="a_edge3_Node000001_Node000004"><a xlink:title=" ">
<path fill="none" stroke="#63b8ff" d="M120.72,-211.97C125.21,-204.82 132.11,-193.82 137.85,-184.67"/>
<polygon fill="#63b8ff" stroke="#63b8ff" points="140.91,-186.39 143.26,-176.06 134.98,-182.67 140.91,-186.39"/>
</a>
</g>
</g>
<!-- Node13 -->
<g id="Node000013" class="node">
<title>Node13</title>
<g id="a_Node000013"><a xlink:href="../../d7/d65/intrinsics_8hpp.html" target="_top" xlink:title=" ">
<polygon fill="#fff0f0" stroke="red" points="573.5,-70 488.5,-70 488.5,-53 573.5,-53 573.5,-70"/>
<text text-anchor="middle" x="531" y="-59.6" font-family="Helvetica,sans-Serif" font-size="8.00">../utils/intrinsics.hpp</text>
</a>
</g>
</g>
<!-- Node1&#45;&gt;Node13 -->
<g id="edge19_Node000001_Node000013" class="edge">
<title>Node1&#45;&gt;Node13</title>
<g id="a_edge19_Node000001_Node000013"><a xlink:title=" ">
<path fill="none" stroke="#63b8ff" d="M136.02,-211.93C203.25,-186.49 421.23,-104.03 501.21,-73.77"/>
<polygon fill="#63b8ff" stroke="#63b8ff" points="502.58,-76.99 510.7,-70.18 500.11,-70.45 502.58,-76.99"/>
</a>
</g>
</g>
<!-- Node4&#45;&gt;Node3 -->
<g id="edge7_Node000004_Node000003" class="edge">
<title>Node4&#45;&gt;Node3</title>
<g id="a_edge7_Node000004_Node000003"><a xlink:title=" ">
<path fill="none" stroke="#63b8ff" d="M128.97,-158.97C107.53,-150.5 72.46,-136.64 47.7,-126.85"/>
<polygon fill="#63b8ff" stroke="#63b8ff" points="48.7,-123.48 38.11,-123.06 46.13,-129.99 48.7,-123.48"/>
</a>
</g>
</g>
<!-- Node5 -->
<g id="Node000005" class="node">
<title>Node5</title>
<g id="a_Node000005"><a xlink:title=" ">
<polygon fill="#e0e0e0" stroke="#999999" points="249,-17 207,-17 207,0 249,0 249,-17"/>
<text text-anchor="middle" x="228" y="-6.6" font-family="Helvetica,sans-Serif" font-size="8.00">cstddef</text>
</a>
</g>
</g>
<!-- Node4&#45;&gt;Node5 -->
<g id="edge4_Node000004_Node000005" class="edge">
<title>Node4&#45;&gt;Node5</title>
<g id="a_edge4_Node000004_Node000005"><a xlink:title=" ">
<path fill="none" stroke="#63b8ff" d="M137.87,-158.93C113.89,-140.08 57.63,-89.94 85,-53 110.58,-18.48 162.9,-10.42 196.66,-9.03"/>
<polygon fill="#63b8ff" stroke="#63b8ff" points="197,-12.52 206.91,-8.79 196.83,-5.52 197,-12.52"/>
</a>
</g>
</g>
<!-- Node6 -->
<g id="Node000006" class="node">
<title>Node6</title>
<g id="a_Node000006"><a xlink:title=" ">
<polygon fill="#e0e0e0" stroke="#999999" points="128,-70 94,-70 94,-53 128,-53 128,-70"/>
<text text-anchor="middle" x="111" y="-59.6" font-family="Helvetica,sans-Serif" font-size="8.00">limits</text>
</a>
</g>
</g>
<!-- Node4&#45;&gt;Node6 -->
<g id="edge5_Node000004_Node000006" class="edge">
<title>Node4&#45;&gt;Node6</title>
<g id="a_edge5_Node000004_Node000006"><a xlink:title=" ">
<path fill="none" stroke="#63b8ff" d="M145.22,-158.68C139.27,-141.96 125.19,-102.39 117.07,-79.56"/>
<polygon fill="#63b8ff" stroke="#63b8ff" points="120.36,-78.37 113.71,-70.12 113.77,-80.72 120.36,-78.37"/>
</a>
</g>
</g>
<!-- Node7 -->
<g id="Node000007" class="node">
<title>Node7</title>
<g id="a_Node000007"><a xlink:title=" ">
<polygon fill="#e0e0e0" stroke="#999999" points="199.5,-70 146.5,-70 146.5,-53 199.5,-53 199.5,-70"/>
<text text-anchor="middle" x="173" y="-59.6" font-family="Helvetica,sans-Serif" font-size="8.00">type_traits</text>
</a>
</g>
</g>
<!-- Node4&#45;&gt;Node7 -->
<g id="edge6_Node000004_Node000007" class="edge">
<title>Node4&#45;&gt;Node7</title>
<g id="a_edge6_Node000004_Node000007"><a xlink:title=" ">
<path fill="none" stroke="#63b8ff" d="M149.88,-158.68C153.88,-142.04 163.32,-102.75 168.82,-79.87"/>
<polygon fill="#63b8ff" stroke="#63b8ff" points="172.23,-80.67 171.17,-70.12 165.43,-79.03 172.23,-80.67"/>
</a>
</g>
</g>
<!-- Node8 -->
<g id="Node000008" class="node">
<title>Node8</title>
<g id="a_Node000008"><a xlink:href="../../df/d93/utils_8hpp.html" target="_top" xlink:title=" ">
<polygon fill="white" stroke="#666666" points="311.5,-123 236.5,-123 236.5,-106 311.5,-106 311.5,-123"/>
<text text-anchor="middle" x="274" y="-112.6" font-family="Helvetica,sans-Serif" font-size="8.00">../../utils/utils.hpp</text>
</a>
</g>
</g>
<!-- Node4&#45;&gt;Node8 -->
<g id="edge8_Node000004_Node000008" class="edge">
<title>Node4&#45;&gt;Node8</title>
<g id="a_edge8_Node000004_Node000008"><a xlink:title=" ">
<path fill="none" stroke="#63b8ff" d="M166.59,-158.97C187.53,-150.5 221.78,-136.64 245.97,-126.85"/>
<polygon fill="#63b8ff" stroke="#63b8ff" points="247.38,-130.05 255.33,-123.06 244.75,-123.56 247.38,-130.05"/>
</a>
</g>
</g>
<!-- Node4&#45;&gt;Node13 -->
<g id="edge18_Node000004_Node000013" class="edge">
<title>Node4&#45;&gt;Node13</title>
<g id="a_edge18_Node000004_Node000013"><a xlink:title=" ">
<path fill="none" stroke="#63b8ff" d="M179.15,-158.94C213.66,-150.48 270.93,-136.24 320,-123 382.2,-106.22 454.27,-85.22 496.05,-72.89"/>
<polygon fill="#63b8ff" stroke="#63b8ff" points="497.14,-76.21 505.74,-70.02 495.16,-69.5 497.14,-76.21"/>
</a>
</g>
</g>
<!-- Node8&#45;&gt;Node5 -->
<g id="edge11_Node000008_Node000005" class="edge">
<title>Node8&#45;&gt;Node5</title>
<g id="a_edge11_Node000008_Node000005"><a xlink:title=" ">
<path fill="none" stroke="#63b8ff" d="M268.4,-105.82C262.45,-97.38 253.08,-83.25 247,-70 240.61,-56.06 235.54,-39.37 232.26,-27.05"/>
<polygon fill="#63b8ff" stroke="#63b8ff" points="235.6,-26.01 229.75,-17.18 228.82,-27.73 235.6,-26.01"/>
</a>
</g>
</g>
<!-- Node8&#45;&gt;Node6 -->
<g id="edge13_Node000008_Node000006" class="edge">
<title>Node8&#45;&gt;Node6</title>
<g id="a_edge13_Node000008_Node000006"><a xlink:title=" ">
<path fill="none" stroke="#63b8ff" d="M249.95,-105.97C220.03,-96.61 169.11,-80.68 137.92,-70.92"/>
<polygon fill="#63b8ff" stroke="#63b8ff" points="138.74,-67.51 128.15,-67.87 136.65,-74.19 138.74,-67.51"/>
</a>
</g>
</g>
<!-- Node8&#45;&gt;Node7 -->
<g id="edge15_Node000008_Node000007" class="edge">
<title>Node8&#45;&gt;Node7</title>
<g id="a_edge15_Node000008_Node000007"><a xlink:title=" ">
<path fill="none" stroke="#63b8ff" d="M259.1,-105.97C242.76,-97.73 216.31,-84.37 197.04,-74.64"/>
<polygon fill="#63b8ff" stroke="#63b8ff" points="198.47,-71.44 187.96,-70.06 195.31,-77.69 198.47,-71.44"/>
</a>
</g>
</g>
<!-- Node9 -->
<g id="Node000009" class="node">
<title>Node9</title>
<g id="a_Node000009"><a xlink:title=" ">
<polygon fill="#e0e0e0" stroke="#999999" points="291.5,-70 256.5,-70 256.5,-53 291.5,-53 291.5,-70"/>
<text text-anchor="middle" x="274" y="-59.6" font-family="Helvetica,sans-Serif" font-size="8.00">array</text>
</a>
</g>
</g>
<!-- Node8&#45;&gt;Node9 -->
<g id="edge9_Node000008_Node000009" class="edge">
<title>Node8&#45;&gt;Node9</title>
<g id="a_edge9_Node000008_Node000009"><a xlink:title=" ">
<path fill="none" stroke="#63b8ff" d="M274,-105.97C274,-99.19 274,-88.97 274,-80.13"/>
<polygon fill="#63b8ff" stroke="#63b8ff" points="277.5,-80.06 274,-70.06 270.5,-80.06 277.5,-80.06"/>
</a>
</g>
</g>
<!-- Node10 -->
<g id="Node000010" class="node">
<title>Node10</title>
<g id="a_Node000010"><a xlink:title=" ">
<polygon fill="#e0e0e0" stroke="#999999" points="348,-70 310,-70 310,-53 348,-53 348,-70"/>
<text text-anchor="middle" x="329" y="-59.6" font-family="Helvetica,sans-Serif" font-size="8.00">cmath</text>
</a>
</g>
</g>
<!-- Node8&#45;&gt;Node10 -->
<g id="edge10_Node000008_Node000010" class="edge">
<title>Node8&#45;&gt;Node10</title>
<g id="a_edge10_Node000008_Node000010"><a xlink:title=" ">
<path fill="none" stroke="#63b8ff" d="M282.12,-105.97C290.32,-98.37 303.21,-86.41 313.4,-76.97"/>
<polygon fill="#63b8ff" stroke="#63b8ff" points="315.9,-79.42 320.85,-70.06 311.14,-74.29 315.9,-79.42"/>
</a>
</g>
</g>
<!-- Node11 -->
<g id="Node000011" class="node">
<title>Node11</title>
<g id="a_Node000011"><a xlink:title=" ">
<polygon fill="#e0e0e0" stroke="#999999" points="416,-70 366,-70 366,-53 416,-53 416,-70"/>
<text text-anchor="middle" x="391" y="-59.6" font-family="Helvetica,sans-Serif" font-size="8.00">functional</text>
</a>
</g>
</g>
<!-- Node8&#45;&gt;Node11 -->
<g id="edge12_Node000008_Node000011" class="edge">
<title>Node8&#45;&gt;Node11</title>
<g id="a_edge12_Node000008_Node000011"><a xlink:title=" ">
<path fill="none" stroke="#63b8ff" d="M291.26,-105.97C310.53,-97.58 341.95,-83.88 364.37,-74.11"/>
<polygon fill="#63b8ff" stroke="#63b8ff" points="365.9,-77.26 373.67,-70.06 363.1,-70.84 365.9,-77.26"/>
</a>
</g>
</g>
<!-- Node12 -->
<g id="Node000012" class="node">
<title>Node12</title>
<g id="a_Node000012"><a xlink:title=" ">
<polygon fill="#e0e0e0" stroke="#999999" points="470,-70 434,-70 434,-53 470,-53 470,-70"/>
<text text-anchor="middle" x="452" y="-59.6" font-family="Helvetica,sans-Serif" font-size="8.00">string</text>
</a>
</g>
</g>
<!-- Node8&#45;&gt;Node12 -->
<g id="edge14_Node000008_Node000012" class="edge">
<title>Node8&#45;&gt;Node12</title>
<g id="a_edge14_Node000008_Node000012"><a xlink:title=" ">
<path fill="none" stroke="#63b8ff" d="M300.26,-105.97C333.39,-96.48 390.12,-80.23 424.03,-70.51"/>
<polygon fill="#63b8ff" stroke="#63b8ff" points="425.12,-73.84 433.77,-67.72 423.19,-67.11 425.12,-73.84"/>
</a>
</g>
</g>
<!-- Node8&#45;&gt;Node13 -->
<g id="edge16_Node000008_Node000013" class="edge">
<title>Node8&#45;&gt;Node13</title>
<g id="a_edge16_Node000008_Node000013"><a xlink:title=" ">
<path fill="none" stroke="#63b8ff" d="M311.65,-106.03C357.04,-97.02 433.4,-81.87 482.99,-72.03"/>
<polygon fill="#63b8ff" stroke="#63b8ff" points="483.71,-75.45 492.83,-70.07 482.34,-68.59 483.71,-75.45"/>
</a>
</g>
</g>
<!-- Node13&#45;&gt;Node5 -->
<g id="edge17_Node000013_Node000005" class="edge">
<title>Node13&#45;&gt;Node5</title>
<g id="a_edge17_Node000013_Node000005"><a xlink:title=" ">
<path fill="none" stroke="#63b8ff" d="M488.23,-53.3C426.44,-42.9 313.67,-23.92 259.15,-14.74"/>
<polygon fill="#63b8ff" stroke="#63b8ff" points="259.5,-11.25 249.05,-13.04 258.33,-18.16 259.5,-11.25"/>
</a>
</g>
</g>
</g>
</svg>
