<?xml version="1.0" encoding="UTF-8" standalone="no"?>
<!DOCTYPE svg PUBLIC "-//W3C//DTD SVG 1.1//EN"
 "http://www.w3.org/Graphics/SVG/1.1/DTD/svg11.dtd">
<!-- Generated by graphviz version 2.43.0 (0)
 -->
<!-- Title: monotonic_pool.hpp Pages: 1 -->
<svg width="589pt" height="184pt"
 viewBox="0.00 0.00 589.00 184.00" xmlns="http://www.w3.org/2000/svg" xmlns:xlink="http://www.w3.org/1999/xlink">
<g id="graph0" class="graph" transform="scale(1 1) rotate(0) translate(4 180)">
<title>monotonic_pool.hpp</title>
<!-- Node1 -->
<g id="Node000001" class="node">
<title>Node1</title>
<g id="a_Node000001"><a xlink:title=" ">
<polygon fill="#999999" stroke="#666666" points="223.5,-176 134.5,-176 134.5,-159 223.5,-159 223.5,-176"/>
<text text-anchor="middle" x="179" y="-165.6" font-family="Helvetica,sans-Serif" font-size="8.00">monotonic_pool.hpp</text>
</a>
</g>
</g>
<!-- Node2 -->
<g id="Node000002" class="node">
<title>Node2</title>
<g id="a_Node000002"><a xlink:title=" ">
<polygon fill="#e0e0e0" stroke="#999999" points="42,-123 0,-123 0,-106 42,-106 42,-123"/>
<text text-anchor="middle" x="21" y="-112.6" font-family="Helvetica,sans-Serif" font-size="8.00">cassert</text>
</a>
</g>
</g>
<!-- Node1&#45;&gt;Node2 -->
<g id="edge1_Node000001_Node000002" class="edge">
<title>Node1&#45;&gt;Node2</title>
<g id="a_edge1_Node000001_Node000002"><a xlink:title=" ">
<path fill="none" stroke="#63b8ff" d="M155.69,-158.97C128.23,-150.11 82.52,-135.36 52.07,-125.53"/>
<polygon fill="#63b8ff" stroke="#63b8ff" points="52.97,-122.14 42.38,-122.4 50.82,-128.8 52.97,-122.14"/>
</a>
</g>
</g>
<!-- Node3 -->
<g id="Node000003" class="node">
<title>Node3</title>
<g id="a_Node000003"><a xlink:title=" ">
<polygon fill="#e0e0e0" stroke="#999999" points="129,-17 87,-17 87,0 129,0 129,-17"/>
<text text-anchor="middle" x="108" y="-6.6" font-family="Helvetica,sans-Serif" font-size="8.00">cstddef</text>
</a>
</g>
</g>
<!-- Node1&#45;&gt;Node3 -->
<g id="edge2_Node000001_Node000003" class="edge">
<title>Node1&#45;&gt;Node3</title>
<g id="a_edge2_Node000001_Node000003"><a xlink:title=" ">
<path fill="none" stroke="#63b8ff" d="M142.85,-158.86C123.3,-152.69 100.8,-141.82 89,-123 70.04,-92.78 86.78,-49.49 98.63,-26.07"/>
<polygon fill="#63b8ff" stroke="#63b8ff" points="101.81,-27.56 103.45,-17.09 95.64,-24.25 101.81,-27.56"/>
</a>
</g>
</g>
<!-- Node4 -->
<g id="Node000004" class="node">
<title>Node4</title>
<g id="a_Node000004"><a xlink:title=" ">
<polygon fill="#e0e0e0" stroke="#999999" points="137.5,-123 98.5,-123 98.5,-106 137.5,-106 137.5,-123"/>
<text text-anchor="middle" x="118" y="-112.6" font-family="Helvetica,sans-Serif" font-size="8.00">cstdint</text>
</a>
</g>
</g>
<!-- Node1&#45;&gt;Node4 -->
<g id="edge3_Node000001_Node000004" class="edge">
<title>Node1&#45;&gt;Node4</title>
<g id="a_edge3_Node000001_Node000004"><a xlink:title=" ">
<path fill="none" stroke="#63b8ff" d="M170,-158.97C160.81,-151.29 146.32,-139.18 134.97,-129.69"/>
<polygon fill="#63b8ff" stroke="#63b8ff" points="136.95,-126.79 127.04,-123.06 132.46,-132.16 136.95,-126.79"/>
</a>
</g>
</g>
<!-- Node5 -->
<g id="Node000005" class="node">
<title>Node5</title>
<g id="a_Node000005"><a xlink:title=" ">
<polygon fill="#e0e0e0" stroke="#999999" points="202,-123 156,-123 156,-106 202,-106 202,-123"/>
<text text-anchor="middle" x="179" y="-112.6" font-family="Helvetica,sans-Serif" font-size="8.00">memory</text>
</a>
</g>
</g>
<!-- Node1&#45;&gt;Node5 -->
<g id="edge4_Node000001_Node000005" class="edge">
<title>Node1&#45;&gt;Node5</title>
<g id="a_edge4_Node000001_Node000005"><a xlink:title=" ">
<path fill="none" stroke="#63b8ff" d="M179,-158.97C179,-152.19 179,-141.97 179,-133.13"/>
<polygon fill="#63b8ff" stroke="#63b8ff" points="182.5,-133.06 179,-123.06 175.5,-133.06 182.5,-133.06"/>
</a>
</g>
</g>
<!-- Node6 -->
<g id="Node000006" class="node">
<title>Node6</title>
<g id="a_Node000006"><a xlink:title=" ">
<polygon fill="#e0e0e0" stroke="#999999" points="258,-123 220,-123 220,-106 258,-106 258,-123"/>
<text text-anchor="middle" x="239" y="-112.6" font-family="Helvetica,sans-Serif" font-size="8.00">vector</text>
</a>
</g>
</g>
<!-- Node1&#45;&gt;Node6 -->
<g id="edge5_Node000001_Node000006" class="edge">
<title>Node1&#45;&gt;Node6</title>
<g id="a_edge5_Node000001_Node000006"><a xlink:title=" ">
<path fill="none" stroke="#63b8ff" d="M187.85,-158.97C196.89,-151.29 211.14,-139.18 222.31,-129.69"/>
<polygon fill="#63b8ff" stroke="#63b8ff" points="224.76,-132.2 230.11,-123.06 220.22,-126.87 224.76,-132.2"/>
</a>
</g>
</g>
<!-- Node7 -->
<g id="Node000007" class="node">
<title>Node7</title>
<g id="a_Node000007"><a xlink:href="../../df/d93/utils_8hpp.html" target="_top" xlink:title=" ">
<polygon fill="white" stroke="#666666" points="351.5,-123 276.5,-123 276.5,-106 351.5,-106 351.5,-123"/>
<text text-anchor="middle" x="314" y="-112.6" font-family="Helvetica,sans-Serif" font-size="8.00">../../utils/utils.hpp</text>
</a>
</g>
</g>
<!-- Node1&#45;&gt;Node7 -->
<g id="edge6_Node000001_Node000007" class="edge">
<title>Node1&#45;&gt;Node7</title>
<g id="a_edge6_Node000001_Node000007"><a xlink:title=" ">
<path fill="none" stroke="#63b8ff" d="M198.92,-158.97C221.45,-150.46 258.38,-136.51 284.31,-126.72"/>
<polygon fill="#63b8ff" stroke="#63b8ff" points="285.88,-129.86 294,-123.06 283.41,-123.32 285.88,-129.86"/>
</a>
</g>
</g>
<!-- Node14 -->
<g id="Node000014" class="node">
<title>Node14</title>
<g id="a_Node000014"><a xlink:href="../../d7/d65/intrinsics_8hpp.html" target="_top" xlink:title=" ">
<polygon fill="white" stroke="#666666" points="576.5,-70 491.5,-70 491.5,-53 576.5,-53 576.5,-70"/>
<text text-anchor="middle" x="534" y="-59.6" font-family="Helvetica,sans-Serif" font-size="8.00">../utils/intrinsics.hpp</text>
</a>
</g>
</g>
<!-- Node1&#45;&gt;Node14 -->
<g id="edge18_Node000001_Node000014" class="edge">
<title>Node1&#45;&gt;Node14</title>
<g id="a_edge18_Node000001_Node000014"><a xlink:title=" ">
<path fill="none" stroke="#63b8ff" d="M215.2,-158.99C252.13,-151.06 310.97,-137.69 361,-123 412.41,-107.91 471.03,-86.5 505.14,-73.61"/>
<polygon fill="#63b8ff" stroke="#63b8ff" points="506.39,-76.88 514.49,-70.05 503.9,-70.33 506.39,-76.88"/>
</a>
</g>
</g>
<!-- Node7&#45;&gt;Node3 -->
<g id="edge9_Node000007_Node000003" class="edge">
<title>Node7&#45;&gt;Node3</title>
<g id="a_edge9_Node000007_Node000003"><a xlink:title=" ">
<path fill="none" stroke="#63b8ff" d="M276.39,-106.81C225.01,-97.37 137.94,-80.14 127,-70 115.14,-59.01 110.64,-40.71 108.95,-27.12"/>
<polygon fill="#63b8ff" stroke="#63b8ff" points="112.43,-26.73 108.1,-17.06 105.45,-27.32 112.43,-26.73"/>
</a>
</g>
</g>
<!-- Node8 -->
<g id="Node000008" class="node">
<title>Node8</title>
<g id="a_Node000008"><a xlink:title=" ">
<polygon fill="#e0e0e0" stroke="#999999" points="171.5,-70 136.5,-70 136.5,-53 171.5,-53 171.5,-70"/>
<text text-anchor="middle" x="154" y="-59.6" font-family="Helvetica,sans-Serif" font-size="8.00">array</text>
</a>
</g>
</g>
<!-- Node7&#45;&gt;Node8 -->
<g id="edge7_Node000007_Node000008" class="edge">
<title>Node7&#45;&gt;Node8</title>
<g id="a_edge7_Node000007_Node000008"><a xlink:title=" ">
<path fill="none" stroke="#63b8ff" d="M290.39,-105.97C261.34,-96.71 212.1,-81.02 181.4,-71.24"/>
<polygon fill="#63b8ff" stroke="#63b8ff" points="182.35,-67.86 171.76,-68.16 180.23,-74.53 182.35,-67.86"/>
</a>
</g>
</g>
<!-- Node9 -->
<g id="Node000009" class="node">
<title>Node9</title>
<g id="a_Node000009"><a xlink:title=" ">
<polygon fill="#e0e0e0" stroke="#999999" points="228,-70 190,-70 190,-53 228,-53 228,-70"/>
<text text-anchor="middle" x="209" y="-59.6" font-family="Helvetica,sans-Serif" font-size="8.00">cmath</text>
</a>
</g>
</g>
<!-- Node7&#45;&gt;Node9 -->
<g id="edge8_Node000007_Node000009" class="edge">
<title>Node7&#45;&gt;Node9</title>
<g id="a_edge8_Node000007_Node000009"><a xlink:title=" ">
<path fill="none" stroke="#63b8ff" d="M298.51,-105.97C281.45,-97.69 253.78,-84.25 233.72,-74.5"/>
<polygon fill="#63b8ff" stroke="#63b8ff" points="235.08,-71.28 224.56,-70.06 232.02,-77.57 235.08,-71.28"/>
</a>
</g>
</g>
<!-- Node10 -->
<g id="Node000010" class="node">
<title>Node10</title>
<g id="a_Node000010"><a xlink:title=" ">
<polygon fill="#e0e0e0" stroke="#999999" points="296,-70 246,-70 246,-53 296,-53 296,-70"/>
<text text-anchor="middle" x="271" y="-59.6" font-family="Helvetica,sans-Serif" font-size="8.00">functional</text>
</a>
</g>
</g>
<!-- Node7&#45;&gt;Node10 -->
<g id="edge10_Node000007_Node000010" class="edge">
<title>Node7&#45;&gt;Node10</title>
<g id="a_edge10_Node000007_Node000010"><a xlink:title=" ">
<path fill="none" stroke="#63b8ff" d="M307.66,-105.97C301.43,-98.59 291.76,-87.12 283.91,-77.81"/>
<polygon fill="#63b8ff" stroke="#63b8ff" points="286.49,-75.45 277.37,-70.06 281.14,-79.96 286.49,-75.45"/>
</a>
</g>
</g>
<!-- Node11 -->
<g id="Node000011" class="node">
<title>Node11</title>
<g id="a_Node000011"><a xlink:title=" ">
<polygon fill="#e0e0e0" stroke="#999999" points="348,-70 314,-70 314,-53 348,-53 348,-70"/>
<text text-anchor="middle" x="331" y="-59.6" font-family="Helvetica,sans-Serif" font-size="8.00">limits</text>
</a>
</g>
</g>
<!-- Node7&#45;&gt;Node11 -->
<g id="edge11_Node000007_Node000011" class="edge">
<title>Node7&#45;&gt;Node11</title>
<g id="a_edge11_Node000007_Node000011"><a xlink:title=" ">
<path fill="none" stroke="#63b8ff" d="M316.51,-105.97C318.82,-99.04 322.33,-88.51 325.32,-79.55"/>
<polygon fill="#63b8ff" stroke="#63b8ff" points="328.64,-80.65 328.48,-70.06 322,-78.44 328.64,-80.65"/>
</a>
</g>
</g>
<!-- Node12 -->
<g id="Node000012" class="node">
<title>Node12</title>
<g id="a_Node000012"><a xlink:title=" ">
<polygon fill="#e0e0e0" stroke="#999999" points="402,-70 366,-70 366,-53 402,-53 402,-70"/>
<text text-anchor="middle" x="384" y="-59.6" font-family="Helvetica,sans-Serif" font-size="8.00">string</text>
</a>
</g>
</g>
<!-- Node7&#45;&gt;Node12 -->
<g id="edge12_Node000007_Node000012" class="edge">
<title>Node7&#45;&gt;Node12</title>
<g id="a_edge12_Node000007_Node000012"><a xlink:title=" ">
<path fill="none" stroke="#63b8ff" d="M324.33,-105.97C335.08,-98.14 352.16,-85.7 365.29,-76.13"/>
<polygon fill="#63b8ff" stroke="#63b8ff" points="367.61,-78.77 373.63,-70.06 363.49,-73.12 367.61,-78.77"/>
</a>
</g>
</g>
<!-- Node13 -->
<g id="Node000013" class="node">
<title>Node13</title>
<g id="a_Node000013"><a xlink:title=" ">
<polygon fill="#e0e0e0" stroke="#999999" points="473.5,-70 420.5,-70 420.5,-53 473.5,-53 473.5,-70"/>
<text text-anchor="middle" x="447" y="-59.6" font-family="Helvetica,sans-Serif" font-size="8.00">type_traits</text>
</a>
</g>
</g>
<!-- Node7&#45;&gt;Node13 -->
<g id="edge13_Node000007_Node000013" class="edge">
<title>Node7&#45;&gt;Node13</title>
<g id="a_edge13_Node000007_Node000013"><a xlink:title=" ">
<path fill="none" stroke="#63b8ff" d="M333.62,-105.97C355.82,-97.46 392.2,-83.51 417.75,-73.72"/>
<polygon fill="#63b8ff" stroke="#63b8ff" points="419.21,-76.9 427.29,-70.06 416.7,-70.37 419.21,-76.9"/>
</a>
</g>
</g>
<!-- Node7&#45;&gt;Node14 -->
<g id="edge14_Node000007_Node000014" class="edge">
<title>Node7&#45;&gt;Node14</title>
<g id="a_edge14_Node000007_Node000014"><a xlink:title=" ">
<path fill="none" stroke="#63b8ff" d="M346.46,-105.97C384.97,-97.05 449.27,-82.14 491.66,-72.32"/>
<polygon fill="#63b8ff" stroke="#63b8ff" points="492.45,-75.72 501.41,-70.06 490.87,-68.9 492.45,-75.72"/>
</a>
</g>
</g>
<!-- Node14&#45;&gt;Node3 -->
<g id="edge16_Node000014_Node000003" class="edge">
<title>Node14&#45;&gt;Node3</title>
<g id="a_edge16_Node000014_Node000003"><a xlink:title=" ">
<path fill="none" stroke="#63b8ff" d="M491.44,-54.14C488.58,-53.75 485.75,-53.36 483,-53 355.84,-36.28 203.98,-19.7 139.47,-12.82"/>
<polygon fill="#63b8ff" stroke="#63b8ff" points="139.49,-9.3 129.17,-11.73 138.75,-16.27 139.49,-9.3"/>
</a>
</g>
</g>
<!-- Node15 -->
<g id="Node000015" class="node">
<title>Node15</title>
<g id="a_Node000015"><a xlink:title=" ">
<polygon fill="#e0e0e0" stroke="#999999" points="525,-17 485,-17 485,0 525,0 525,-17"/>
<text text-anchor="middle" x="505" y="-6.6" font-family="Helvetica,sans-Serif" font-size="8.00">atomic</text>
</a>
</g>
</g>
<!-- Node14&#45;&gt;Node15 -->
<g id="edge15_Node000014_Node000015" class="edge">
<title>Node14&#45;&gt;Node15</title>
<g id="a_edge15_Node000014_Node000015"><a xlink:title=" ">
<path fill="none" stroke="#63b8ff" d="M529.72,-52.97C525.69,-45.89 519.53,-35.05 514.36,-25.96"/>
<polygon fill="#63b8ff" stroke="#63b8ff" points="517.28,-24.02 509.3,-17.06 511.2,-27.48 517.28,-24.02"/>
</a>
</g>
</g>
<!-- Node16 -->
<g id="Node000016" class="node">
<title>Node16</title>
<g id="a_Node000016"><a xlink:title=" ">
<polygon fill="#e0e0e0" stroke="#999999" points="581,-17 543,-17 543,0 581,0 581,-17"/>
<text text-anchor="middle" x="562" y="-6.6" font-family="Helvetica,sans-Serif" font-size="8.00">cstdlib</text>
</a>
</g>
</g>
<!-- Node14&#45;&gt;Node16 -->
<g id="edge17_Node000014_Node000016" class="edge">
<title>Node14&#45;&gt;Node16</title>
<g id="a_edge17_Node000014_Node000016"><a xlink:title=" ">
<path fill="none" stroke="#63b8ff" d="M538.13,-52.97C542.02,-45.89 547.97,-35.05 552.96,-25.96"/>
<polygon fill="#63b8ff" stroke="#63b8ff" points="556.11,-27.51 557.85,-17.06 549.97,-24.14 556.11,-27.51"/>
</a>
</g>
</g>
</g>
</svg>
