<?xml version="1.0" encoding="UTF-8" standalone="no"?>
<!DOCTYPE svg PUBLIC "-//W3C//DTD SVG 1.1//EN"
 "http://www.w3.org/Graphics/SVG/1.1/DTD/svg11.dtd">
<!-- Generated by graphviz version 2.43.0 (0)
 -->
<!-- Title: monotonic_pool.hpp Pages: 1 -->
<svg width="604pt" height="184pt"
 viewBox="0.00 0.00 604.00 184.00" xmlns="http://www.w3.org/2000/svg" xmlns:xlink="http://www.w3.org/1999/xlink">
<g id="graph0" class="graph" transform="scale(1 1) rotate(0) translate(4 180)">
<title>monotonic_pool.hpp</title>
<!-- Node1 -->
<g id="Node000001" class="node">
<title>Node1</title>
<g id="a_Node000001"><a xlink:title=" ">
<polygon fill="#999999" stroke="#666666" points="232.5,-176 143.5,-176 143.5,-159 232.5,-159 232.5,-176"/>
<text text-anchor="middle" x="188" y="-165.6" font-family="Helvetica,sans-Serif" font-size="8.00">monotonic_pool.hpp</text>
</a>
</g>
</g>
<!-- Node2 -->
<g id="Node000002" class="node">
<title>Node2</title>
<g id="a_Node000002"><a xlink:title=" ">
<polygon fill="#e0e0e0" stroke="#999999" points="42,-123 0,-123 0,-106 42,-106 42,-123"/>
<text text-anchor="middle" x="21" y="-112.6" font-family="Helvetica,sans-Serif" font-size="8.00">cassert</text>
</a>
</g>
</g>
<!-- Node1&#45;&gt;Node2 -->
<g id="edge1_Node000001_Node000002" class="edge">
<title>Node1&#45;&gt;Node2</title>
<g id="a_edge1_Node000001_Node000002"><a xlink:title=" ">
<path fill="none" stroke="#63b8ff" d="M163.36,-158.97C133.72,-149.92 83.96,-134.73 51.81,-124.91"/>
<polygon fill="#63b8ff" stroke="#63b8ff" points="52.63,-121.5 42.04,-121.93 50.58,-128.19 52.63,-121.5"/>
</a>
</g>
</g>
<!-- Node3 -->
<g id="Node000003" class="node">
<title>Node3</title>
<g id="a_Node000003"><a xlink:title=" ">
<polygon fill="#e0e0e0" stroke="#999999" points="196,-17 154,-17 154,0 196,0 196,-17"/>
<text text-anchor="middle" x="175" y="-6.6" font-family="Helvetica,sans-Serif" font-size="8.00">cstddef</text>
</a>
</g>
</g>
<!-- Node1&#45;&gt;Node3 -->
<g id="edge2_Node000001_Node000003" class="edge">
<title>Node1&#45;&gt;Node3</title>
<g id="a_edge2_Node000001_Node000003"><a xlink:title=" ">
<path fill="none" stroke="#63b8ff" d="M145.31,-158.99C124.59,-152.96 101.52,-142.18 89,-123 77.75,-105.77 89.61,-71.99 104,-53 114.6,-39.01 131.11,-28.51 145.55,-21.33"/>
<polygon fill="#63b8ff" stroke="#63b8ff" points="147.07,-24.48 154.65,-17.09 144.11,-18.14 147.07,-24.48"/>
</a>
</g>
</g>
<!-- Node4 -->
<g id="Node000004" class="node">
<title>Node4</title>
<g id="a_Node000004"><a xlink:title=" ">
<polygon fill="#e0e0e0" stroke="#999999" points="137.5,-123 98.5,-123 98.5,-106 137.5,-106 137.5,-123"/>
<text text-anchor="middle" x="118" y="-112.6" font-family="Helvetica,sans-Serif" font-size="8.00">cstdint</text>
</a>
</g>
</g>
<!-- Node1&#45;&gt;Node4 -->
<g id="edge3_Node000001_Node000004" class="edge">
<title>Node1&#45;&gt;Node4</title>
<g id="a_edge3_Node000001_Node000004"><a xlink:title=" ">
<path fill="none" stroke="#63b8ff" d="M177.67,-158.97C166.92,-151.14 149.84,-138.7 136.71,-129.13"/>
<polygon fill="#63b8ff" stroke="#63b8ff" points="138.51,-126.12 128.37,-123.06 134.39,-131.77 138.51,-126.12"/>
</a>
</g>
</g>
<!-- Node5 -->
<g id="Node000005" class="node">
<title>Node5</title>
<g id="a_Node000005"><a xlink:title=" ">
<polygon fill="#e0e0e0" stroke="#999999" points="147,-70 113,-70 113,-53 147,-53 147,-70"/>
<text text-anchor="middle" x="130" y="-59.6" font-family="Helvetica,sans-Serif" font-size="8.00">limits</text>
</a>
</g>
</g>
<!-- Node1&#45;&gt;Node5 -->
<g id="edge4_Node000001_Node000005" class="edge">
<title>Node1&#45;&gt;Node5</title>
<g id="a_edge4_Node000001_Node000005"><a xlink:title=" ">
<path fill="none" stroke="#63b8ff" d="M183.64,-158.68C174.23,-141.81 151.85,-101.68 139.17,-78.94"/>
<polygon fill="#63b8ff" stroke="#63b8ff" points="142.18,-77.15 134.25,-70.12 136.07,-80.56 142.18,-77.15"/>
</a>
</g>
</g>
<!-- Node6 -->
<g id="Node000006" class="node">
<title>Node6</title>
<g id="a_Node000006"><a xlink:title=" ">
<polygon fill="#e0e0e0" stroke="#999999" points="226,-123 194,-123 194,-106 226,-106 226,-123"/>
<text text-anchor="middle" x="210" y="-112.6" font-family="Helvetica,sans-Serif" font-size="8.00">new</text>
</a>
</g>
</g>
<!-- Node1&#45;&gt;Node6 -->
<g id="edge5_Node000001_Node000006" class="edge">
<title>Node1&#45;&gt;Node6</title>
<g id="a_edge5_Node000001_Node000006"><a xlink:title=" ">
<path fill="none" stroke="#63b8ff" d="M191.25,-158.97C194.27,-151.97 198.88,-141.28 202.77,-132.25"/>
<polygon fill="#63b8ff" stroke="#63b8ff" points="205.99,-133.62 206.74,-123.06 199.57,-130.85 205.99,-133.62"/>
</a>
</g>
</g>
<!-- Node7 -->
<g id="Node000007" class="node">
<title>Node7</title>
<g id="a_Node000007"><a xlink:title=" ">
<polygon fill="#e0e0e0" stroke="#999999" points="282,-123 244,-123 244,-106 282,-106 282,-123"/>
<text text-anchor="middle" x="263" y="-112.6" font-family="Helvetica,sans-Serif" font-size="8.00">vector</text>
</a>
</g>
</g>
<!-- Node1&#45;&gt;Node7 -->
<g id="edge6_Node000001_Node000007" class="edge">
<title>Node1&#45;&gt;Node7</title>
<g id="a_edge6_Node000001_Node000007"><a xlink:title=" ">
<path fill="none" stroke="#63b8ff" d="M199.07,-158.97C210.7,-151.07 229.23,-138.46 243.36,-128.86"/>
<polygon fill="#63b8ff" stroke="#63b8ff" points="245.59,-131.57 251.89,-123.06 241.65,-125.78 245.59,-131.57"/>
</a>
</g>
</g>
<!-- Node8 -->
<g id="Node000008" class="node">
<title>Node8</title>
<g id="a_Node000008"><a xlink:href="../../df/d93/utils_8hpp.html" target="_top" xlink:title=" ">
<polygon fill="white" stroke="#666666" points="375.5,-123 300.5,-123 300.5,-106 375.5,-106 375.5,-123"/>
<text text-anchor="middle" x="338" y="-112.6" font-family="Helvetica,sans-Serif" font-size="8.00">../../utils/utils.hpp</text>
</a>
</g>
</g>
<!-- Node1&#45;&gt;Node8 -->
<g id="edge7_Node000001_Node000008" class="edge">
<title>Node1&#45;&gt;Node8</title>
<g id="a_edge7_Node000001_Node000008"><a xlink:title=" ">
<path fill="none" stroke="#63b8ff" d="M210.13,-158.97C235.5,-150.35 277.29,-136.14 306.15,-126.33"/>
<polygon fill="#63b8ff" stroke="#63b8ff" points="307.44,-129.59 315.78,-123.06 305.18,-122.96 307.44,-129.59"/>
</a>
</g>
</g>
<!-- Node14 -->
<g id="Node000014" class="node">
<title>Node14</title>
<g id="a_Node000014"><a xlink:href="../../d7/d65/intrinsics_8hpp.html" target="_top" xlink:title=" ">
<polygon fill="white" stroke="#666666" points="591.5,-70 506.5,-70 506.5,-53 591.5,-53 591.5,-70"/>
<text text-anchor="middle" x="549" y="-59.6" font-family="Helvetica,sans-Serif" font-size="8.00">../utils/intrinsics.hpp</text>
</a>
</g>
</g>
<!-- Node1&#45;&gt;Node14 -->
<g id="edge19_Node000001_Node000014" class="edge">
<title>Node1&#45;&gt;Node14</title>
<g id="a_edge19_Node000001_Node000014"><a xlink:title=" ">
<path fill="none" stroke="#63b8ff" d="M229.92,-158.96C270.09,-151.33 332.23,-138.48 385,-123 433.87,-108.66 489.15,-87.12 521.43,-73.98"/>
<polygon fill="#63b8ff" stroke="#63b8ff" points="523.14,-77.06 531.07,-70.03 520.49,-70.59 523.14,-77.06"/>
</a>
</g>
</g>
<!-- Node8&#45;&gt;Node3 -->
<g id="edge10_Node000008_Node000003" class="edge">
<title>Node8&#45;&gt;Node3</title>
<g id="a_edge10_Node000008_Node000003"><a xlink:title=" ">
<path fill="none" stroke="#63b8ff" d="M300.44,-106.3C263.04,-98.43 209.09,-84.92 194,-70 182.63,-58.75 178.04,-40.78 176.21,-27.34"/>
<polygon fill="#63b8ff" stroke="#63b8ff" points="179.69,-26.97 175.22,-17.37 172.72,-27.66 179.69,-26.97"/>
</a>
</g>
</g>
<!-- Node8&#45;&gt;Node5 -->
<g id="edge12_Node000008_Node000005" class="edge">
<title>Node8&#45;&gt;Node5</title>
<g id="a_edge12_Node000008_Node000005"><a xlink:title=" ">
<path fill="none" stroke="#63b8ff" d="M307.31,-105.97C266.71,-96.02 195.8,-78.63 157.1,-69.14"/>
<polygon fill="#63b8ff" stroke="#63b8ff" points="157.63,-65.67 147.09,-66.69 155.96,-72.47 157.63,-65.67"/>
</a>
</g>
</g>
<!-- Node9 -->
<g id="Node000009" class="node">
<title>Node9</title>
<g id="a_Node000009"><a xlink:title=" ">
<polygon fill="#e0e0e0" stroke="#999999" points="238.5,-70 203.5,-70 203.5,-53 238.5,-53 238.5,-70"/>
<text text-anchor="middle" x="221" y="-59.6" font-family="Helvetica,sans-Serif" font-size="8.00">array</text>
</a>
</g>
</g>
<!-- Node8&#45;&gt;Node9 -->
<g id="edge8_Node000008_Node000009" class="edge">
<title>Node8&#45;&gt;Node9</title>
<g id="a_edge8_Node000008_Node000009"><a xlink:title=" ">
<path fill="none" stroke="#63b8ff" d="M320.74,-105.97C301.47,-97.58 270.05,-83.88 247.63,-74.11"/>
<polygon fill="#63b8ff" stroke="#63b8ff" points="248.9,-70.84 238.33,-70.06 246.1,-77.26 248.9,-70.84"/>
</a>
</g>
</g>
<!-- Node10 -->
<g id="Node000010" class="node">
<title>Node10</title>
<g id="a_Node000010"><a xlink:title=" ">
<polygon fill="#e0e0e0" stroke="#999999" points="295,-70 257,-70 257,-53 295,-53 295,-70"/>
<text text-anchor="middle" x="276" y="-59.6" font-family="Helvetica,sans-Serif" font-size="8.00">cmath</text>
</a>
</g>
</g>
<!-- Node8&#45;&gt;Node10 -->
<g id="edge9_Node000008_Node000010" class="edge">
<title>Node8&#45;&gt;Node10</title>
<g id="a_edge9_Node000008_Node000010"><a xlink:title=" ">
<path fill="none" stroke="#63b8ff" d="M328.85,-105.97C319.51,-98.29 304.78,-86.18 293.25,-76.69"/>
<polygon fill="#63b8ff" stroke="#63b8ff" points="295.13,-73.71 285.19,-70.06 290.69,-79.11 295.13,-73.71"/>
</a>
</g>
</g>
<!-- Node11 -->
<g id="Node000011" class="node">
<title>Node11</title>
<g id="a_Node000011"><a xlink:title=" ">
<polygon fill="#e0e0e0" stroke="#999999" points="363,-70 313,-70 313,-53 363,-53 363,-70"/>
<text text-anchor="middle" x="338" y="-59.6" font-family="Helvetica,sans-Serif" font-size="8.00">functional</text>
</a>
</g>
</g>
<!-- Node8&#45;&gt;Node11 -->
<g id="edge11_Node000008_Node000011" class="edge">
<title>Node8&#45;&gt;Node11</title>
<g id="a_edge11_Node000008_Node000011"><a xlink:title=" ">
<path fill="none" stroke="#63b8ff" d="M338,-105.97C338,-99.19 338,-88.97 338,-80.13"/>
<polygon fill="#63b8ff" stroke="#63b8ff" points="341.5,-80.06 338,-70.06 334.5,-80.06 341.5,-80.06"/>
</a>
</g>
</g>
<!-- Node12 -->
<g id="Node000012" class="node">
<title>Node12</title>
<g id="a_Node000012"><a xlink:title=" ">
<polygon fill="#e0e0e0" stroke="#999999" points="417,-70 381,-70 381,-53 417,-53 417,-70"/>
<text text-anchor="middle" x="399" y="-59.6" font-family="Helvetica,sans-Serif" font-size="8.00">string</text>
</a>
</g>
</g>
<!-- Node8&#45;&gt;Node12 -->
<g id="edge13_Node000008_Node000012" class="edge">
<title>Node8&#45;&gt;Node12</title>
<g id="a_edge13_Node000008_Node000012"><a xlink:title=" ">
<path fill="none" stroke="#63b8ff" d="M347,-105.97C356.19,-98.29 370.68,-86.18 382.03,-76.69"/>
<polygon fill="#63b8ff" stroke="#63b8ff" points="384.54,-79.16 389.96,-70.06 380.05,-73.79 384.54,-79.16"/>
</a>
</g>
</g>
<!-- Node13 -->
<g id="Node000013" class="node">
<title>Node13</title>
<g id="a_Node000013"><a xlink:title=" ">
<polygon fill="#e0e0e0" stroke="#999999" points="488.5,-70 435.5,-70 435.5,-53 488.5,-53 488.5,-70"/>
<text text-anchor="middle" x="462" y="-59.6" font-family="Helvetica,sans-Serif" font-size="8.00">type_traits</text>
</a>
</g>
</g>
<!-- Node8&#45;&gt;Node13 -->
<g id="edge14_Node000008_Node000013" class="edge">
<title>Node8&#45;&gt;Node13</title>
<g id="a_edge14_Node000008_Node000013"><a xlink:title=" ">
<path fill="none" stroke="#63b8ff" d="M356.3,-105.97C376.81,-97.54 410.31,-83.76 434.1,-73.98"/>
<polygon fill="#63b8ff" stroke="#63b8ff" points="435.71,-77.1 443.63,-70.06 433.05,-70.62 435.71,-77.1"/>
</a>
</g>
</g>
<!-- Node8&#45;&gt;Node14 -->
<g id="edge15_Node000008_Node000014" class="edge">
<title>Node8&#45;&gt;Node14</title>
<g id="a_edge15_Node000008_Node000014"><a xlink:title=" ">
<path fill="none" stroke="#63b8ff" d="M369.13,-105.97C405.91,-97.09 467.22,-82.27 507.87,-72.44"/>
<polygon fill="#63b8ff" stroke="#63b8ff" points="508.84,-75.81 517.74,-70.06 507.2,-69 508.84,-75.81"/>
</a>
</g>
</g>
<!-- Node14&#45;&gt;Node3 -->
<g id="edge17_Node000014_Node000003" class="edge">
<title>Node14&#45;&gt;Node3</title>
<g id="a_edge17_Node000014_Node000003"><a xlink:title=" ">
<path fill="none" stroke="#63b8ff" d="M506.43,-54.2C503.58,-53.79 500.75,-53.39 498,-53 390.92,-37.92 263.72,-21.11 206.1,-13.56"/>
<polygon fill="#63b8ff" stroke="#63b8ff" points="206.55,-10.09 196.18,-12.26 205.64,-17.03 206.55,-10.09"/>
</a>
</g>
</g>
<!-- Node15 -->
<g id="Node000015" class="node">
<title>Node15</title>
<g id="a_Node000015"><a xlink:title=" ">
<polygon fill="#e0e0e0" stroke="#999999" points="540,-17 500,-17 500,0 540,0 540,-17"/>
<text text-anchor="middle" x="520" y="-6.6" font-family="Helvetica,sans-Serif" font-size="8.00">atomic</text>
</a>
</g>
</g>
<!-- Node14&#45;&gt;Node15 -->
<g id="edge16_Node000014_Node000015" class="edge">
<title>Node14&#45;&gt;Node15</title>
<g id="a_edge16_Node000014_Node000015"><a xlink:title=" ">
<path fill="none" stroke="#63b8ff" d="M544.72,-52.97C540.69,-45.89 534.53,-35.05 529.36,-25.96"/>
<polygon fill="#63b8ff" stroke="#63b8ff" points="532.28,-24.02 524.3,-17.06 526.2,-27.48 532.28,-24.02"/>
</a>
</g>
</g>
<!-- Node16 -->
<g id="Node000016" class="node">
<title>Node16</title>
<g id="a_Node000016"><a xlink:title=" ">
<polygon fill="#e0e0e0" stroke="#999999" points="596,-17 558,-17 558,0 596,0 596,-17"/>
<text text-anchor="middle" x="577" y="-6.6" font-family="Helvetica,sans-Serif" font-size="8.00">cstdlib</text>
</a>
</g>
</g>
<!-- Node14&#45;&gt;Node16 -->
<g id="edge18_Node000014_Node000016" class="edge">
<title>Node14&#45;&gt;Node16</title>
<g id="a_edge18_Node000014_Node000016"><a xlink:title=" ">
<path fill="none" stroke="#63b8ff" d="M553.13,-52.97C557.02,-45.89 562.97,-35.05 567.96,-25.96"/>
<polygon fill="#63b8ff" stroke="#63b8ff" points="571.11,-27.51 572.85,-17.06 564.97,-24.14 571.11,-27.51"/>
</a>
</g>
</g>
</g>
</svg>
