<?xml version="1.0" encoding="UTF-8" standalone="no"?>
<!DOCTYPE svg PUBLIC "-//W3C//DTD SVG 1.1//EN"
 "http://www.w3.org/Graphics/SVG/1.1/DTD/svg11.dtd">
<!-- Generated by graphviz version 2.43.0 (0)
 -->
<!-- Title: monotonic_pool.hpp Pages: 1 -->
<svg width="707pt" height="184pt"
 viewBox="0.00 0.00 707.00 184.00" xmlns="http://www.w3.org/2000/svg" xmlns:xlink="http://www.w3.org/1999/xlink">
<g id="graph0" class="graph" transform="scale(1 1) rotate(0) translate(4 180)">
<title>monotonic_pool.hpp</title>
<!-- Node1 -->
<g id="Node000001" class="node">
<title>Node1</title>
<g id="a_Node000001"><a xlink:title=" ">
<polygon fill="#999999" stroke="#666666" points="289.5,-176 200.5,-176 200.5,-159 289.5,-159 289.5,-176"/>
<text text-anchor="middle" x="245" y="-165.6" font-family="Helvetica,sans-Serif" font-size="8.00">monotonic_pool.hpp</text>
</a>
</g>
</g>
<!-- Node2 -->
<g id="Node000002" class="node">
<title>Node2</title>
<g id="a_Node000002"><a xlink:title=" ">
<polygon fill="#e0e0e0" stroke="#999999" points="42,-123 0,-123 0,-106 42,-106 42,-123"/>
<text text-anchor="middle" x="21" y="-112.6" font-family="Helvetica,sans-Serif" font-size="8.00">cassert</text>
</a>
</g>
</g>
<!-- Node1&#45;&gt;Node2 -->
<g id="edge1_Node000001_Node000002" class="edge">
<title>Node1&#45;&gt;Node2</title>
<g id="a_edge1_Node000001_Node000002"><a xlink:title=" ">
<path fill="none" stroke="#63b8ff" d="M211.95,-158.97C168.87,-149.17 94.08,-132.14 52.02,-122.56"/>
<polygon fill="#63b8ff" stroke="#63b8ff" points="52.6,-119.11 42.07,-120.3 51.05,-125.93 52.6,-119.11"/>
</a>
</g>
</g>
<!-- Node3 -->
<g id="Node000003" class="node">
<title>Node3</title>
<g id="a_Node000003"><a xlink:title=" ">
<polygon fill="#e0e0e0" stroke="#999999" points="299,-17 257,-17 257,0 299,0 299,-17"/>
<text text-anchor="middle" x="278" y="-6.6" font-family="Helvetica,sans-Serif" font-size="8.00">cstddef</text>
</a>
</g>
</g>
<!-- Node1&#45;&gt;Node3 -->
<g id="edge2_Node000001_Node000003" class="edge">
<title>Node1&#45;&gt;Node3</title>
<g id="a_edge2_Node000001_Node000003"><a xlink:title=" ">
<path fill="none" stroke="#63b8ff" d="M200.19,-165.51C145.9,-162.37 64.52,-150.39 89,-106 121.12,-47.76 201.92,-23.67 246.78,-14.53"/>
<polygon fill="#63b8ff" stroke="#63b8ff" points="247.66,-17.92 256.83,-12.61 246.35,-11.05 247.66,-17.92"/>
</a>
</g>
</g>
<!-- Node4 -->
<g id="Node000004" class="node">
<title>Node4</title>
<g id="a_Node000004"><a xlink:title=" ">
<polygon fill="#e0e0e0" stroke="#999999" points="137.5,-123 98.5,-123 98.5,-106 137.5,-106 137.5,-123"/>
<text text-anchor="middle" x="118" y="-112.6" font-family="Helvetica,sans-Serif" font-size="8.00">cstdint</text>
</a>
</g>
</g>
<!-- Node1&#45;&gt;Node4 -->
<g id="edge3_Node000001_Node000004" class="edge">
<title>Node1&#45;&gt;Node4</title>
<g id="a_edge3_Node000001_Node000004"><a xlink:title=" ">
<path fill="none" stroke="#63b8ff" d="M226.26,-158.97C205.16,-150.5 170.63,-136.64 146.25,-126.85"/>
<polygon fill="#63b8ff" stroke="#63b8ff" points="147.4,-123.53 136.82,-123.06 144.79,-130.03 147.4,-123.53"/>
</a>
</g>
</g>
<!-- Node5 -->
<g id="Node000005" class="node">
<title>Node5</title>
<g id="a_Node000005"><a xlink:title=" ">
<polygon fill="#e0e0e0" stroke="#999999" points="216,-70 182,-70 182,-53 216,-53 216,-70"/>
<text text-anchor="middle" x="199" y="-59.6" font-family="Helvetica,sans-Serif" font-size="8.00">limits</text>
</a>
</g>
</g>
<!-- Node1&#45;&gt;Node5 -->
<g id="edge4_Node000001_Node000005" class="edge">
<title>Node1&#45;&gt;Node5</title>
<g id="a_edge4_Node000001_Node000005"><a xlink:title=" ">
<path fill="none" stroke="#63b8ff" d="M226.59,-158.86C212.36,-151.85 193.65,-139.96 185,-123 177.96,-109.21 183.23,-91.85 189.21,-79.27"/>
<polygon fill="#63b8ff" stroke="#63b8ff" points="192.34,-80.84 193.93,-70.36 186.15,-77.56 192.34,-80.84"/>
</a>
</g>
</g>
<!-- Node6 -->
<g id="Node000006" class="node">
<title>Node6</title>
<g id="a_Node000006"><a xlink:title=" ">
<polygon fill="#e0e0e0" stroke="#999999" points="240,-123 194,-123 194,-106 240,-106 240,-123"/>
<text text-anchor="middle" x="217" y="-112.6" font-family="Helvetica,sans-Serif" font-size="8.00">memory</text>
</a>
</g>
</g>
<!-- Node1&#45;&gt;Node6 -->
<g id="edge5_Node000001_Node000006" class="edge">
<title>Node1&#45;&gt;Node6</title>
<g id="a_edge5_Node000001_Node000006"><a xlink:title=" ">
<path fill="none" stroke="#63b8ff" d="M240.87,-158.97C236.98,-151.89 231.03,-141.05 226.04,-131.96"/>
<polygon fill="#63b8ff" stroke="#63b8ff" points="229.03,-130.14 221.15,-123.06 222.89,-133.51 229.03,-130.14"/>
</a>
</g>
</g>
<!-- Node7 -->
<g id="Node000007" class="node">
<title>Node7</title>
<g id="a_Node000007"><a xlink:title=" ">
<polygon fill="#e0e0e0" stroke="#999999" points="290,-123 258,-123 258,-106 290,-106 290,-123"/>
<text text-anchor="middle" x="274" y="-112.6" font-family="Helvetica,sans-Serif" font-size="8.00">new</text>
</a>
</g>
</g>
<!-- Node1&#45;&gt;Node7 -->
<g id="edge6_Node000001_Node000007" class="edge">
<title>Node1&#45;&gt;Node7</title>
<g id="a_edge6_Node000001_Node000007"><a xlink:title=" ">
<path fill="none" stroke="#63b8ff" d="M249.28,-158.97C253.31,-151.89 259.47,-141.05 264.64,-131.96"/>
<polygon fill="#63b8ff" stroke="#63b8ff" points="267.8,-133.48 269.7,-123.06 261.72,-130.02 267.8,-133.48"/>
</a>
</g>
</g>
<!-- Node8 -->
<g id="Node000008" class="node">
<title>Node8</title>
<g id="a_Node000008"><a xlink:title=" ">
<polygon fill="#e0e0e0" stroke="#999999" points="346,-123 308,-123 308,-106 346,-106 346,-123"/>
<text text-anchor="middle" x="327" y="-112.6" font-family="Helvetica,sans-Serif" font-size="8.00">vector</text>
</a>
</g>
</g>
<!-- Node1&#45;&gt;Node8 -->
<g id="edge7_Node000001_Node000008" class="edge">
<title>Node1&#45;&gt;Node8</title>
<g id="a_edge7_Node000001_Node000008"><a xlink:title=" ">
<path fill="none" stroke="#63b8ff" d="M257.1,-158.97C269.94,-150.99 290.47,-138.22 305.97,-128.58"/>
<polygon fill="#63b8ff" stroke="#63b8ff" points="308.21,-131.31 314.85,-123.06 304.51,-125.37 308.21,-131.31"/>
</a>
</g>
</g>
<!-- Node9 -->
<g id="Node000009" class="node">
<title>Node9</title>
<g id="a_Node000009"><a xlink:title=" ">
<polygon fill="#e0e0e0" stroke="#999999" points="446,-123 364,-123 364,-106 446,-106 446,-123"/>
<text text-anchor="middle" x="405" y="-112.6" font-family="Helvetica,sans-Serif" font-size="8.00">memory_resource</text>
</a>
</g>
</g>
<!-- Node1&#45;&gt;Node9 -->
<g id="edge8_Node000001_Node000009" class="edge">
<title>Node1&#45;&gt;Node9</title>
<g id="a_edge8_Node000001_Node000009"><a xlink:title=" ">
<path fill="none" stroke="#63b8ff" d="M268.61,-158.97C295.79,-150.31 340.63,-136.02 371.43,-126.2"/>
<polygon fill="#63b8ff" stroke="#63b8ff" points="372.83,-129.43 381.29,-123.06 370.7,-122.76 372.83,-129.43"/>
</a>
</g>
</g>
<!-- Node10 -->
<g id="Node000010" class="node">
<title>Node10</title>
<g id="a_Node000010"><a xlink:href="../../df/d93/utils_8hpp.html" target="_top" xlink:title=" ">
<polygon fill="white" stroke="#666666" points="539.5,-123 464.5,-123 464.5,-106 539.5,-106 539.5,-123"/>
<text text-anchor="middle" x="502" y="-112.6" font-family="Helvetica,sans-Serif" font-size="8.00">../../utils/utils.hpp</text>
</a>
</g>
</g>
<!-- Node1&#45;&gt;Node10 -->
<g id="edge9_Node000001_Node000010" class="edge">
<title>Node1&#45;&gt;Node10</title>
<g id="a_edge9_Node000001_Node000010"><a xlink:title=" ">
<path fill="none" stroke="#63b8ff" d="M282.92,-158.97C328.51,-149.93 405.05,-134.74 454.52,-124.92"/>
<polygon fill="#63b8ff" stroke="#63b8ff" points="455.21,-128.35 464.34,-122.97 453.85,-121.49 455.21,-128.35"/>
</a>
</g>
</g>
<!-- Node16 -->
<g id="Node000016" class="node">
<title>Node16</title>
<g id="a_Node000016"><a xlink:href="../../d7/d65/intrinsics_8hpp.html" target="_top" xlink:title=" ">
<polygon fill="white" stroke="#666666" points="694.5,-70 609.5,-70 609.5,-53 694.5,-53 694.5,-70"/>
<text text-anchor="middle" x="652" y="-59.6" font-family="Helvetica,sans-Serif" font-size="8.00">../utils/intrinsics.hpp</text>
</a>
</g>
</g>
<!-- Node1&#45;&gt;Node16 -->
<g id="edge21_Node000001_Node000016" class="edge">
<title>Node1&#45;&gt;Node16</title>
<g id="a_edge21_Node000001_Node000016"><a xlink:title=" ">
<path fill="none" stroke="#63b8ff" d="M289.56,-165.49C349.96,-162.93 460.43,-153.99 549,-123 580.94,-111.82 614,-90.32 633.79,-76.19"/>
<polygon fill="#63b8ff" stroke="#63b8ff" points="636.11,-78.82 642.13,-70.1 631.99,-73.17 636.11,-78.82"/>
</a>
</g>
</g>
<!-- Node10&#45;&gt;Node3 -->
<g id="edge12_Node000010_Node000003" class="edge">
<title>Node10&#45;&gt;Node3</title>
<g id="a_edge12_Node000010_Node000003"><a xlink:title=" ">
<path fill="none" stroke="#63b8ff" d="M464.25,-107.53C408.74,-98.44 310.3,-81.03 298,-70 285.9,-59.15 281.1,-40.84 279.21,-27.2"/>
<polygon fill="#63b8ff" stroke="#63b8ff" points="282.68,-26.7 278.21,-17.1 275.71,-27.4 282.68,-26.7"/>
</a>
</g>
</g>
<!-- Node10&#45;&gt;Node5 -->
<g id="edge14_Node000010_Node000005" class="edge">
<title>Node10&#45;&gt;Node5</title>
<g id="a_edge14_Node000010_Node000005"><a xlink:title=" ">
<path fill="none" stroke="#63b8ff" d="M464.24,-107.14C402.22,-96.71 280.27,-76.18 226.07,-67.06"/>
<polygon fill="#63b8ff" stroke="#63b8ff" points="226.62,-63.6 216.17,-65.39 225.45,-70.5 226.62,-63.6"/>
</a>
</g>
</g>
<!-- Node11 -->
<g id="Node000011" class="node">
<title>Node11</title>
<g id="a_Node000011"><a xlink:title=" ">
<polygon fill="#e0e0e0" stroke="#999999" points="341.5,-70 306.5,-70 306.5,-53 341.5,-53 341.5,-70"/>
<text text-anchor="middle" x="324" y="-59.6" font-family="Helvetica,sans-Serif" font-size="8.00">array</text>
</a>
</g>
</g>
<!-- Node10&#45;&gt;Node11 -->
<g id="edge10_Node000010_Node000011" class="edge">
<title>Node10&#45;&gt;Node11</title>
<g id="a_edge10_Node000010_Node000011"><a xlink:title=" ">
<path fill="none" stroke="#63b8ff" d="M475.74,-105.97C442.43,-96.43 385.28,-80.06 351.43,-70.36"/>
<polygon fill="#63b8ff" stroke="#63b8ff" points="352.31,-66.97 341.73,-67.58 350.38,-73.7 352.31,-66.97"/>
</a>
</g>
</g>
<!-- Node12 -->
<g id="Node000012" class="node">
<title>Node12</title>
<g id="a_Node000012"><a xlink:title=" ">
<polygon fill="#e0e0e0" stroke="#999999" points="398,-70 360,-70 360,-53 398,-53 398,-70"/>
<text text-anchor="middle" x="379" y="-59.6" font-family="Helvetica,sans-Serif" font-size="8.00">cmath</text>
</a>
</g>
</g>
<!-- Node10&#45;&gt;Node12 -->
<g id="edge11_Node000010_Node000012" class="edge">
<title>Node10&#45;&gt;Node12</title>
<g id="a_edge11_Node000010_Node000012"><a xlink:title=" ">
<path fill="none" stroke="#63b8ff" d="M483.85,-105.97C463.5,-97.54 430.27,-83.76 406.68,-73.98"/>
<polygon fill="#63b8ff" stroke="#63b8ff" points="407.8,-70.65 397.22,-70.06 405.12,-77.12 407.8,-70.65"/>
</a>
</g>
</g>
<!-- Node13 -->
<g id="Node000013" class="node">
<title>Node13</title>
<g id="a_Node000013"><a xlink:title=" ">
<polygon fill="#e0e0e0" stroke="#999999" points="466,-70 416,-70 416,-53 466,-53 466,-70"/>
<text text-anchor="middle" x="441" y="-59.6" font-family="Helvetica,sans-Serif" font-size="8.00">functional</text>
</a>
</g>
</g>
<!-- Node10&#45;&gt;Node13 -->
<g id="edge13_Node000010_Node000013" class="edge">
<title>Node10&#45;&gt;Node13</title>
<g id="a_edge13_Node000010_Node000013"><a xlink:title=" ">
<path fill="none" stroke="#63b8ff" d="M493,-105.97C483.81,-98.29 469.32,-86.18 457.97,-76.69"/>
<polygon fill="#63b8ff" stroke="#63b8ff" points="459.95,-73.79 450.04,-70.06 455.46,-79.16 459.95,-73.79"/>
</a>
</g>
</g>
<!-- Node14 -->
<g id="Node000014" class="node">
<title>Node14</title>
<g id="a_Node000014"><a xlink:title=" ">
<polygon fill="#e0e0e0" stroke="#999999" points="520,-70 484,-70 484,-53 520,-53 520,-70"/>
<text text-anchor="middle" x="502" y="-59.6" font-family="Helvetica,sans-Serif" font-size="8.00">string</text>
</a>
</g>
</g>
<!-- Node10&#45;&gt;Node14 -->
<g id="edge15_Node000010_Node000014" class="edge">
<title>Node10&#45;&gt;Node14</title>
<g id="a_edge15_Node000010_Node000014"><a xlink:title=" ">
<path fill="none" stroke="#63b8ff" d="M502,-105.97C502,-99.19 502,-88.97 502,-80.13"/>
<polygon fill="#63b8ff" stroke="#63b8ff" points="505.5,-80.06 502,-70.06 498.5,-80.06 505.5,-80.06"/>
</a>
</g>
</g>
<!-- Node15 -->
<g id="Node000015" class="node">
<title>Node15</title>
<g id="a_Node000015"><a xlink:title=" ">
<polygon fill="#e0e0e0" stroke="#999999" points="591.5,-70 538.5,-70 538.5,-53 591.5,-53 591.5,-70"/>
<text text-anchor="middle" x="565" y="-59.6" font-family="Helvetica,sans-Serif" font-size="8.00">type_traits</text>
</a>
</g>
</g>
<!-- Node10&#45;&gt;Node15 -->
<g id="edge16_Node000010_Node000015" class="edge">
<title>Node10&#45;&gt;Node15</title>
<g id="a_edge16_Node000010_Node000015"><a xlink:title=" ">
<path fill="none" stroke="#63b8ff" d="M511.3,-105.97C520.88,-98.22 536.05,-85.94 547.82,-76.41"/>
<polygon fill="#63b8ff" stroke="#63b8ff" points="550.1,-79.07 555.67,-70.06 545.69,-73.63 550.1,-79.07"/>
</a>
</g>
</g>
<!-- Node10&#45;&gt;Node16 -->
<g id="edge17_Node000010_Node000016" class="edge">
<title>Node10&#45;&gt;Node16</title>
<g id="a_edge17_Node000010_Node000016"><a xlink:title=" ">
<path fill="none" stroke="#63b8ff" d="M524.13,-105.97C549.5,-97.35 591.29,-83.14 620.15,-73.33"/>
<polygon fill="#63b8ff" stroke="#63b8ff" points="621.44,-76.59 629.78,-70.06 619.18,-69.96 621.44,-76.59"/>
</a>
</g>
</g>
<!-- Node16&#45;&gt;Node3 -->
<g id="edge19_Node000016_Node000003" class="edge">
<title>Node16&#45;&gt;Node3</title>
<g id="a_edge19_Node000016_Node000003"><a xlink:title=" ">
<path fill="none" stroke="#63b8ff" d="M609.43,-54.2C606.58,-53.79 603.75,-53.39 601,-53 493.92,-37.92 366.72,-21.11 309.1,-13.56"/>
<polygon fill="#63b8ff" stroke="#63b8ff" points="309.55,-10.09 299.18,-12.26 308.64,-17.03 309.55,-10.09"/>
</a>
</g>
</g>
<!-- Node17 -->
<g id="Node000017" class="node">
<title>Node17</title>
<g id="a_Node000017"><a xlink:title=" ">
<polygon fill="#e0e0e0" stroke="#999999" points="643,-17 603,-17 603,0 643,0 643,-17"/>
<text text-anchor="middle" x="623" y="-6.6" font-family="Helvetica,sans-Serif" font-size="8.00">atomic</text>
</a>
</g>
</g>
<!-- Node16&#45;&gt;Node17 -->
<g id="edge18_Node000016_Node000017" class="edge">
<title>Node16&#45;&gt;Node17</title>
<g id="a_edge18_Node000016_Node000017"><a xlink:title=" ">
<path fill="none" stroke="#63b8ff" d="M647.72,-52.97C643.69,-45.89 637.53,-35.05 632.36,-25.96"/>
<polygon fill="#63b8ff" stroke="#63b8ff" points="635.28,-24.02 627.3,-17.06 629.2,-27.48 635.28,-24.02"/>
</a>
</g>
</g>
<!-- Node18 -->
<g id="Node000018" class="node">
<title>Node18</title>
<g id="a_Node000018"><a xlink:title=" ">
<polygon fill="#e0e0e0" stroke="#999999" points="699,-17 661,-17 661,0 699,0 699,-17"/>
<text text-anchor="middle" x="680" y="-6.6" font-family="Helvetica,sans-Serif" font-size="8.00">cstdlib</text>
</a>
</g>
</g>
<!-- Node16&#45;&gt;Node18 -->
<g id="edge20_Node000016_Node000018" class="edge">
<title>Node16&#45;&gt;Node18</title>
<g id="a_edge20_Node000016_Node000018"><a xlink:title=" ">
<path fill="none" stroke="#63b8ff" d="M656.13,-52.97C660.02,-45.89 665.97,-35.05 670.96,-25.96"/>
<polygon fill="#63b8ff" stroke="#63b8ff" points="674.11,-27.51 675.85,-17.06 667.97,-24.14 674.11,-27.51"/>
</a>
</g>
</g>
</g>
</svg>
