<?xml version="1.0" encoding="UTF-8" standalone="no"?>
<!DOCTYPE svg PUBLIC "-//W3C//DTD SVG 1.1//EN"
 "http://www.w3.org/Graphics/SVG/1.1/DTD/svg11.dtd">
<!-- Generated by graphviz version 2.43.0 (0)
 -->
<!-- Title: monotonic_pool.hpp Pages: 1 -->
<svg width="761pt" height="184pt"
 viewBox="0.00 0.00 760.50 184.00" xmlns="http://www.w3.org/2000/svg" xmlns:xlink="http://www.w3.org/1999/xlink">
<g id="graph0" class="graph" transform="scale(1 1) rotate(0) translate(4 180)">
<title>monotonic_pool.hpp</title>
<!-- Node1 -->
<g id="Node000001" class="node">
<title>Node1</title>
<g id="a_Node000001"><a xlink:title=" ">
<polygon fill="#999999" stroke="#666666" points="308.5,-176 208.5,-176 208.5,-159 308.5,-159 308.5,-176"/>
<text text-anchor="middle" x="258.5" y="-165.6" font-family="Helvetica,sans-Serif" font-size="8.00">monotonic_pool.hpp</text>
</a>
</g>
</g>
<!-- Node2 -->
<g id="Node000002" class="node">
<title>Node2</title>
<g id="a_Node000002"><a xlink:title=" ">
<polygon fill="#e0e0e0" stroke="#999999" points="47,-123 0,-123 0,-106 47,-106 47,-123"/>
<text text-anchor="middle" x="23.5" y="-112.6" font-family="Helvetica,sans-Serif" font-size="8.00">cassert</text>
</a>
</g>
</g>
<!-- Node1&#45;&gt;Node2 -->
<g id="edge1_Node000001_Node000002" class="edge">
<title>Node1&#45;&gt;Node2</title>
<g id="a_edge1_Node000001_Node000002"><a xlink:title=" ">
<path fill="none" stroke="#63b8ff" d="M223.82,-158.97C179.03,-149.25 101.55,-132.44 57.22,-122.82"/>
<polygon fill="#63b8ff" stroke="#63b8ff" points="57.75,-119.35 47.23,-120.65 56.26,-126.19 57.75,-119.35"/>
</a>
</g>
</g>
<!-- Node3 -->
<g id="Node000003" class="node">
<title>Node3</title>
<g id="a_Node000003"><a xlink:title=" ">
<polygon fill="#e0e0e0" stroke="#999999" points="318,-17 271,-17 271,0 318,0 318,-17"/>
<text text-anchor="middle" x="294.5" y="-6.6" font-family="Helvetica,sans-Serif" font-size="8.00">cstddef</text>
</a>
</g>
</g>
<!-- Node1&#45;&gt;Node3 -->
<g id="edge2_Node000001_Node000003" class="edge">
<title>Node1&#45;&gt;Node3</title>
<g id="a_edge2_Node000001_Node000003"><a xlink:title=" ">
<path fill="none" stroke="#63b8ff" d="M208.29,-165.87C151.12,-163.02 68.78,-151.25 94.5,-106 128.68,-45.86 213.2,-22.62 260.7,-14.09"/>
<polygon fill="#63b8ff" stroke="#63b8ff" points="261.52,-17.51 270.8,-12.4 260.36,-10.6 261.52,-17.51"/>
</a>
</g>
</g>
<!-- Node4 -->
<g id="Node000004" class="node">
<title>Node4</title>
<g id="a_Node000004"><a xlink:title=" ">
<polygon fill="#e0e0e0" stroke="#999999" points="147.5,-123 103.5,-123 103.5,-106 147.5,-106 147.5,-123"/>
<text text-anchor="middle" x="125.5" y="-112.6" font-family="Helvetica,sans-Serif" font-size="8.00">cstdint</text>
</a>
</g>
</g>
<!-- Node1&#45;&gt;Node4 -->
<g id="edge3_Node000001_Node000004" class="edge">
<title>Node1&#45;&gt;Node4</title>
<g id="a_edge3_Node000001_Node000004"><a xlink:title=" ">
<path fill="none" stroke="#63b8ff" d="M238.88,-158.97C216.68,-150.46 180.3,-136.51 154.75,-126.72"/>
<polygon fill="#63b8ff" stroke="#63b8ff" points="155.8,-123.37 145.21,-123.06 153.29,-129.9 155.8,-123.37"/>
</a>
</g>
</g>
<!-- Node5 -->
<g id="Node000005" class="node">
<title>Node5</title>
<g id="a_Node000005"><a xlink:title=" ">
<polygon fill="#e0e0e0" stroke="#999999" points="230.5,-70 192.5,-70 192.5,-53 230.5,-53 230.5,-70"/>
<text text-anchor="middle" x="211.5" y="-59.6" font-family="Helvetica,sans-Serif" font-size="8.00">limits</text>
</a>
</g>
</g>
<!-- Node1&#45;&gt;Node5 -->
<g id="edge4_Node000001_Node000005" class="edge">
<title>Node1&#45;&gt;Node5</title>
<g id="a_edge4_Node000001_Node000005"><a xlink:title=" ">
<path fill="none" stroke="#63b8ff" d="M238.29,-158.91C223.2,-152.05 203.68,-140.34 194.5,-123 187.17,-109.15 193.41,-91.8 200.31,-79.24"/>
<polygon fill="#63b8ff" stroke="#63b8ff" points="203.51,-80.7 205.73,-70.34 197.54,-77.06 203.51,-80.7"/>
</a>
</g>
</g>
<!-- Node6 -->
<g id="Node000006" class="node">
<title>Node6</title>
<g id="a_Node000006"><a xlink:title=" ">
<polygon fill="#e0e0e0" stroke="#999999" points="253.5,-123 203.5,-123 203.5,-106 253.5,-106 253.5,-123"/>
<text text-anchor="middle" x="228.5" y="-112.6" font-family="Helvetica,sans-Serif" font-size="8.00">memory</text>
</a>
</g>
</g>
<!-- Node1&#45;&gt;Node6 -->
<g id="edge5_Node000001_Node000006" class="edge">
<title>Node1&#45;&gt;Node6</title>
<g id="a_edge5_Node000001_Node000006"><a xlink:title=" ">
<path fill="none" stroke="#63b8ff" d="M254.07,-158.97C249.91,-151.89 243.53,-141.05 238.18,-131.96"/>
<polygon fill="#63b8ff" stroke="#63b8ff" points="241.03,-129.9 232.94,-123.06 235,-133.45 241.03,-129.9"/>
</a>
</g>
</g>
<!-- Node7 -->
<g id="Node000007" class="node">
<title>Node7</title>
<g id="a_Node000007"><a xlink:title=" ">
<polygon fill="#e0e0e0" stroke="#999999" points="305.5,-123 271.5,-123 271.5,-106 305.5,-106 305.5,-123"/>
<text text-anchor="middle" x="288.5" y="-112.6" font-family="Helvetica,sans-Serif" font-size="8.00">new</text>
</a>
</g>
</g>
<!-- Node1&#45;&gt;Node7 -->
<g id="edge6_Node000001_Node000007" class="edge">
<title>Node1&#45;&gt;Node7</title>
<g id="a_edge6_Node000001_Node000007"><a xlink:title=" ">
<path fill="none" stroke="#63b8ff" d="M262.93,-158.97C267.09,-151.89 273.47,-141.05 278.82,-131.96"/>
<polygon fill="#63b8ff" stroke="#63b8ff" points="282,-133.45 284.06,-123.06 275.97,-129.9 282,-133.45"/>
</a>
</g>
</g>
<!-- Node8 -->
<g id="Node000008" class="node">
<title>Node8</title>
<g id="a_Node000008"><a xlink:title=" ">
<polygon fill="#e0e0e0" stroke="#999999" points="365.5,-123 323.5,-123 323.5,-106 365.5,-106 365.5,-123"/>
<text text-anchor="middle" x="344.5" y="-112.6" font-family="Helvetica,sans-Serif" font-size="8.00">vector</text>
</a>
</g>
</g>
<!-- Node1&#45;&gt;Node8 -->
<g id="edge7_Node000001_Node000008" class="edge">
<title>Node1&#45;&gt;Node8</title>
<g id="a_edge7_Node000001_Node000008"><a xlink:title=" ">
<path fill="none" stroke="#63b8ff" d="M271.19,-158.97C284.78,-150.91 306.59,-137.98 322.9,-128.31"/>
<polygon fill="#63b8ff" stroke="#63b8ff" points="324.94,-131.17 331.76,-123.06 321.37,-125.15 324.94,-131.17"/>
</a>
</g>
</g>
<!-- Node9 -->
<g id="Node000009" class="node">
<title>Node9</title>
<g id="a_Node000009"><a xlink:title=" ">
<polygon fill="#e0e0e0" stroke="#999999" points="473,-123 384,-123 384,-106 473,-106 473,-123"/>
<text text-anchor="middle" x="428.5" y="-112.6" font-family="Helvetica,sans-Serif" font-size="8.00">memory_resource</text>
</a>
</g>
</g>
<!-- Node1&#45;&gt;Node9 -->
<g id="edge8_Node000001_Node000009" class="edge">
<title>Node1&#45;&gt;Node9</title>
<g id="a_edge8_Node000001_Node000009"><a xlink:title=" ">
<path fill="none" stroke="#63b8ff" d="M283.58,-158.97C312.71,-150.24 360.94,-135.77 393.69,-125.94"/>
<polygon fill="#63b8ff" stroke="#63b8ff" points="394.74,-129.28 403.31,-123.06 392.73,-122.58 394.74,-129.28"/>
</a>
</g>
</g>
<!-- Node10 -->
<g id="Node000010" class="node">
<title>Node10</title>
<g id="a_Node000010"><a xlink:href="../../df/d93/utils_8hpp.html" target="_top" xlink:title=" ">
<polygon fill="white" stroke="#666666" points="578,-123 491,-123 491,-106 578,-106 578,-123"/>
<text text-anchor="middle" x="534.5" y="-112.6" font-family="Helvetica,sans-Serif" font-size="8.00">../../utils/utils.hpp</text>
</a>
</g>
</g>
<!-- Node1&#45;&gt;Node10 -->
<g id="edge9_Node000001_Node000010" class="edge">
<title>Node1&#45;&gt;Node10</title>
<g id="a_edge9_Node000001_Node000010"><a xlink:title=" ">
<path fill="none" stroke="#63b8ff" d="M299.22,-158.97C348.25,-149.92 430.59,-134.7 483.72,-124.88"/>
<polygon fill="#63b8ff" stroke="#63b8ff" points="484.41,-128.31 493.61,-123.06 483.14,-121.43 484.41,-128.31"/>
</a>
</g>
</g>
<!-- Node16 -->
<g id="Node000016" class="node">
<title>Node16</title>
<g id="a_Node000016"><a xlink:href="../../d7/d65/intrinsics_8hpp.html" target="_top" xlink:title=" ">
<polygon fill="white" stroke="#666666" points="749,-70 650,-70 650,-53 749,-53 749,-70"/>
<text text-anchor="middle" x="699.5" y="-59.6" font-family="Helvetica,sans-Serif" font-size="8.00">../utils/intrinsics.hpp</text>
</a>
</g>
</g>
<!-- Node1&#45;&gt;Node16 -->
<g id="edge21_Node000001_Node000016" class="edge">
<title>Node1&#45;&gt;Node16</title>
<g id="a_edge21_Node000001_Node000016"><a xlink:title=" ">
<path fill="none" stroke="#63b8ff" d="M308.5,-165.49C374.08,-162.92 491.99,-153.95 587.5,-123 622.11,-111.78 658.53,-89.97 680.11,-75.83"/>
<polygon fill="#63b8ff" stroke="#63b8ff" points="682.29,-78.58 688.67,-70.12 678.41,-72.76 682.29,-78.58"/>
</a>
</g>
</g>
<!-- Node10&#45;&gt;Node3 -->
<g id="edge12_Node000010_Node000003" class="edge">
<title>Node10&#45;&gt;Node3</title>
<g id="a_edge12_Node000010_Node000003"><a xlink:title=" ">
<path fill="none" stroke="#63b8ff" d="M490.92,-106.1C428.43,-95.31 320.11,-75.92 313.5,-70 301.46,-59.21 296.98,-40.89 295.35,-27.23"/>
<polygon fill="#63b8ff" stroke="#63b8ff" points="298.83,-26.81 294.55,-17.12 291.85,-27.36 298.83,-26.81"/>
</a>
</g>
</g>
<!-- Node10&#45;&gt;Node5 -->
<g id="edge14_Node000010_Node000005" class="edge">
<title>Node10&#45;&gt;Node5</title>
<g id="a_edge14_Node000010_Node000005"><a xlink:title=" ">
<path fill="none" stroke="#63b8ff" d="M490.94,-106.62C424.13,-96.07 298.1,-76.17 240.98,-67.15"/>
<polygon fill="#63b8ff" stroke="#63b8ff" points="241.25,-63.65 230.83,-65.55 240.16,-70.57 241.25,-63.65"/>
</a>
</g>
</g>
<!-- Node11 -->
<g id="Node000011" class="node">
<title>Node11</title>
<g id="a_Node000011"><a xlink:title=" ">
<polygon fill="#e0e0e0" stroke="#999999" points="360.5,-70 322.5,-70 322.5,-53 360.5,-53 360.5,-70"/>
<text text-anchor="middle" x="341.5" y="-59.6" font-family="Helvetica,sans-Serif" font-size="8.00">array</text>
</a>
</g>
</g>
<!-- Node10&#45;&gt;Node11 -->
<g id="edge10_Node000010_Node000011" class="edge">
<title>Node10&#45;&gt;Node11</title>
<g id="a_edge10_Node000010_Node000011"><a xlink:title=" ">
<path fill="none" stroke="#63b8ff" d="M505.88,-105.99C474.89,-97.85 423.76,-84.4 370.7,-70.31"/>
<polygon fill="#63b8ff" stroke="#63b8ff" points="371.34,-66.86 360.78,-67.67 369.54,-73.62 371.34,-66.86"/>
</a>
</g>
</g>
<!-- Node12 -->
<g id="Node000012" class="node">
<title>Node12</title>
<g id="a_Node000012"><a xlink:title=" ">
<polygon fill="#e0e0e0" stroke="#999999" points="420.5,-70 378.5,-70 378.5,-53 420.5,-53 420.5,-70"/>
<text text-anchor="middle" x="399.5" y="-59.6" font-family="Helvetica,sans-Serif" font-size="8.00">cmath</text>
</a>
</g>
</g>
<!-- Node10&#45;&gt;Node12 -->
<g id="edge11_Node000010_Node000012" class="edge">
<title>Node10&#45;&gt;Node12</title>
<g id="a_edge11_Node000010_Node000012"><a xlink:title=" ">
<path fill="none" stroke="#63b8ff" d="M514.58,-105.97C492.05,-97.46 455.12,-83.51 429.19,-73.72"/>
<polygon fill="#63b8ff" stroke="#63b8ff" points="430.09,-70.32 419.5,-70.06 427.62,-76.86 430.09,-70.32"/>
</a>
</g>
</g>
<!-- Node13 -->
<g id="Node000013" class="node">
<title>Node13</title>
<g id="a_Node000013"><a xlink:title=" ">
<polygon fill="#e0e0e0" stroke="#999999" points="496.5,-70 438.5,-70 438.5,-53 496.5,-53 496.5,-70"/>
<text text-anchor="middle" x="467.5" y="-59.6" font-family="Helvetica,sans-Serif" font-size="8.00">functional</text>
</a>
</g>
</g>
<!-- Node10&#45;&gt;Node13 -->
<g id="edge13_Node000010_Node000013" class="edge">
<title>Node10&#45;&gt;Node13</title>
<g id="a_edge13_Node000010_Node000013"><a xlink:title=" ">
<path fill="none" stroke="#63b8ff" d="M524.61,-105.97C514.32,-98.14 497.98,-85.7 485.41,-76.13"/>
<polygon fill="#63b8ff" stroke="#63b8ff" points="487.5,-73.33 477.43,-70.06 483.26,-78.9 487.5,-73.33"/>
</a>
</g>
</g>
<!-- Node14 -->
<g id="Node000014" class="node">
<title>Node14</title>
<g id="a_Node000014"><a xlink:title=" ">
<polygon fill="#e0e0e0" stroke="#999999" points="554.5,-70 514.5,-70 514.5,-53 554.5,-53 554.5,-70"/>
<text text-anchor="middle" x="534.5" y="-59.6" font-family="Helvetica,sans-Serif" font-size="8.00">string</text>
</a>
</g>
</g>
<!-- Node10&#45;&gt;Node14 -->
<g id="edge15_Node000010_Node000014" class="edge">
<title>Node10&#45;&gt;Node14</title>
<g id="a_edge15_Node000010_Node000014"><a xlink:title=" ">
<path fill="none" stroke="#63b8ff" d="M534.5,-105.97C534.5,-99.19 534.5,-88.97 534.5,-80.13"/>
<polygon fill="#63b8ff" stroke="#63b8ff" points="538,-80.06 534.5,-70.06 531,-80.06 538,-80.06"/>
</a>
</g>
</g>
<!-- Node15 -->
<g id="Node000015" class="node">
<title>Node15</title>
<g id="a_Node000015"><a xlink:title=" ">
<polygon fill="#e0e0e0" stroke="#999999" points="632,-70 573,-70 573,-53 632,-53 632,-70"/>
<text text-anchor="middle" x="602.5" y="-59.6" font-family="Helvetica,sans-Serif" font-size="8.00">type_traits</text>
</a>
</g>
</g>
<!-- Node10&#45;&gt;Node15 -->
<g id="edge16_Node000010_Node000015" class="edge">
<title>Node10&#45;&gt;Node15</title>
<g id="a_edge16_Node000010_Node000015"><a xlink:title=" ">
<path fill="none" stroke="#63b8ff" d="M544.53,-105.97C554.98,-98.14 571.57,-85.7 584.33,-76.13"/>
<polygon fill="#63b8ff" stroke="#63b8ff" points="586.53,-78.86 592.43,-70.06 582.33,-73.26 586.53,-78.86"/>
</a>
</g>
</g>
<!-- Node10&#45;&gt;Node16 -->
<g id="edge17_Node000010_Node000016" class="edge">
<title>Node10&#45;&gt;Node16</title>
<g id="a_edge17_Node000010_Node000016"><a xlink:title=" ">
<path fill="none" stroke="#63b8ff" d="M558.85,-105.97C587,-97.27 633.52,-82.89 665.3,-73.07"/>
<polygon fill="#63b8ff" stroke="#63b8ff" points="666.53,-76.35 675.05,-70.06 664.47,-69.67 666.53,-76.35"/>
</a>
</g>
</g>
<!-- Node16&#45;&gt;Node3 -->
<g id="edge19_Node000016_Node000003" class="edge">
<title>Node16&#45;&gt;Node3</title>
<g id="a_edge19_Node000016_Node000003"><a xlink:title=" ">
<path fill="none" stroke="#63b8ff" d="M649.83,-54.06C647.01,-53.7 644.22,-53.35 641.5,-53 526.49,-38.36 389.99,-21.36 328.05,-13.66"/>
<polygon fill="#63b8ff" stroke="#63b8ff" points="328.42,-10.18 318.07,-12.42 327.56,-17.13 328.42,-10.18"/>
</a>
</g>
</g>
<!-- Node17 -->
<g id="Node000017" class="node">
<title>Node17</title>
<g id="a_Node000017"><a xlink:title=" ">
<polygon fill="#e0e0e0" stroke="#999999" points="690.5,-17 646.5,-17 646.5,0 690.5,0 690.5,-17"/>
<text text-anchor="middle" x="668.5" y="-6.6" font-family="Helvetica,sans-Serif" font-size="8.00">atomic</text>
</a>
</g>
</g>
<!-- Node16&#45;&gt;Node17 -->
<g id="edge18_Node000016_Node000017" class="edge">
<title>Node16&#45;&gt;Node17</title>
<g id="a_edge18_Node000016_Node000017"><a xlink:title=" ">
<path fill="none" stroke="#63b8ff" d="M694.93,-52.97C690.58,-45.82 683.89,-34.82 678.33,-25.67"/>
<polygon fill="#63b8ff" stroke="#63b8ff" points="681.28,-23.78 673.09,-17.06 675.3,-27.42 681.28,-23.78"/>
</a>
</g>
</g>
<!-- Node18 -->
<g id="Node000018" class="node">
<title>Node18</title>
<g id="a_Node000018"><a xlink:title=" ">
<polygon fill="#e0e0e0" stroke="#999999" points="752.5,-17 708.5,-17 708.5,0 752.5,0 752.5,-17"/>
<text text-anchor="middle" x="730.5" y="-6.6" font-family="Helvetica,sans-Serif" font-size="8.00">cstdlib</text>
</a>
</g>
</g>
<!-- Node16&#45;&gt;Node18 -->
<g id="edge20_Node000016_Node000018" class="edge">
<title>Node16&#45;&gt;Node18</title>
<g id="a_edge20_Node000016_Node000018"><a xlink:title=" ">
<path fill="none" stroke="#63b8ff" d="M704.07,-52.97C708.42,-45.82 715.11,-34.82 720.67,-25.67"/>
<polygon fill="#63b8ff" stroke="#63b8ff" points="723.7,-27.42 725.91,-17.06 717.72,-23.78 723.7,-27.42"/>
</a>
</g>
</g>
</g>
</svg>
