<?xml version="1.0" encoding="UTF-8" standalone="no"?>
<!DOCTYPE svg PUBLIC "-//W3C//DTD SVG 1.1//EN"
 "http://www.w3.org/Graphics/SVG/1.1/DTD/svg11.dtd">
<!-- Generated by graphviz version 2.43.0 (0)
 -->
<!-- Title: monotonic_pool.hpp Pages: 1 -->
<svg width="517pt" height="184pt"
 viewBox="0.00 0.00 516.50 184.00" xmlns="http://www.w3.org/2000/svg" xmlns:xlink="http://www.w3.org/1999/xlink">
<g id="graph0" class="graph" transform="scale(1 1) rotate(0) translate(4 180)">
<title>monotonic_pool.hpp</title>
<!-- Node1 -->
<g id="Node000001" class="node">
<title>Node1</title>
<g id="a_Node000001"><a xlink:title=" ">
<polygon fill="#999999" stroke="#666666" points="165.5,-176 76.5,-176 76.5,-159 165.5,-159 165.5,-176"/>
<text text-anchor="middle" x="121" y="-165.6" font-family="Helvetica,sans-Serif" font-size="8.00">monotonic_pool.hpp</text>
</a>
</g>
</g>
<!-- Node2 -->
<g id="Node000002" class="node">
<title>Node2</title>
<g id="a_Node000002"><a xlink:title=" ">
<polygon fill="#e0e0e0" stroke="#999999" points="42,-123 0,-123 0,-106 42,-106 42,-123"/>
<text text-anchor="middle" x="21" y="-112.6" font-family="Helvetica,sans-Serif" font-size="8.00">cassert</text>
</a>
</g>
</g>
<!-- Node1&#45;&gt;Node2 -->
<g id="edge1_Node000001_Node000002" class="edge">
<title>Node1&#45;&gt;Node2</title>
<g id="a_edge1_Node000001_Node000002"><a xlink:title=" ">
<path fill="none" stroke="#63b8ff" d="M106.24,-158.97C90.07,-150.73 63.89,-137.37 44.8,-127.64"/>
<polygon fill="#63b8ff" stroke="#63b8ff" points="46.31,-124.48 35.82,-123.06 43.13,-130.72 46.31,-124.48"/>
</a>
</g>
</g>
<!-- Node3 -->
<g id="Node000003" class="node">
<title>Node3</title>
<g id="a_Node000003"><a xlink:title=" ">
<polygon fill="#e0e0e0" stroke="#999999" points="129,-17 87,-17 87,0 129,0 129,-17"/>
<text text-anchor="middle" x="108" y="-6.6" font-family="Helvetica,sans-Serif" font-size="8.00">cstddef</text>
</a>
</g>
</g>
<!-- Node1&#45;&gt;Node3 -->
<g id="edge2_Node000001_Node000003" class="edge">
<title>Node1&#45;&gt;Node3</title>
<g id="a_edge2_Node000001_Node000003"><a xlink:title=" ">
<path fill="none" stroke="#63b8ff" d="M112.85,-158.75C105.01,-150.68 93.68,-137.25 89,-123 78.08,-89.73 91.02,-48.82 100.26,-26.33"/>
<polygon fill="#63b8ff" stroke="#63b8ff" points="103.48,-27.69 104.27,-17.13 97.07,-24.9 103.48,-27.69"/>
</a>
</g>
</g>
<!-- Node4 -->
<g id="Node000004" class="node">
<title>Node4</title>
<g id="a_Node000004"><a xlink:title=" ">
<polygon fill="#e0e0e0" stroke="#999999" points="144,-123 98,-123 98,-106 144,-106 144,-123"/>
<text text-anchor="middle" x="121" y="-112.6" font-family="Helvetica,sans-Serif" font-size="8.00">memory</text>
</a>
</g>
</g>
<!-- Node1&#45;&gt;Node4 -->
<g id="edge3_Node000001_Node000004" class="edge">
<title>Node1&#45;&gt;Node4</title>
<g id="a_edge3_Node000001_Node000004"><a xlink:title=" ">
<path fill="none" stroke="#63b8ff" d="M121,-158.97C121,-152.19 121,-141.97 121,-133.13"/>
<polygon fill="#63b8ff" stroke="#63b8ff" points="124.5,-133.06 121,-123.06 117.5,-133.06 124.5,-133.06"/>
</a>
</g>
</g>
<!-- Node5 -->
<g id="Node000005" class="node">
<title>Node5</title>
<g id="a_Node000005"><a xlink:title=" ">
<polygon fill="#e0e0e0" stroke="#999999" points="200,-123 162,-123 162,-106 200,-106 200,-123"/>
<text text-anchor="middle" x="181" y="-112.6" font-family="Helvetica,sans-Serif" font-size="8.00">vector</text>
</a>
</g>
</g>
<!-- Node1&#45;&gt;Node5 -->
<g id="edge4_Node000001_Node000005" class="edge">
<title>Node1&#45;&gt;Node5</title>
<g id="a_edge4_Node000001_Node000005"><a xlink:title=" ">
<path fill="none" stroke="#63b8ff" d="M129.85,-158.97C138.89,-151.29 153.14,-139.18 164.31,-129.69"/>
<polygon fill="#63b8ff" stroke="#63b8ff" points="166.76,-132.2 172.11,-123.06 162.22,-126.87 166.76,-132.2"/>
</a>
</g>
</g>
<!-- Node6 -->
<g id="Node000006" class="node">
<title>Node6</title>
<g id="a_Node000006"><a xlink:href="../../df/d93/utils_8hpp.html" target="_top" xlink:title=" ">
<polygon fill="white" stroke="#666666" points="297.5,-123 222.5,-123 222.5,-106 297.5,-106 297.5,-123"/>
<text text-anchor="middle" x="260" y="-112.6" font-family="Helvetica,sans-Serif" font-size="8.00">../../utils/utils.hpp</text>
</a>
</g>
</g>
<!-- Node1&#45;&gt;Node6 -->
<g id="edge5_Node000001_Node000006" class="edge">
<title>Node1&#45;&gt;Node6</title>
<g id="a_edge5_Node000001_Node000006"><a xlink:title=" ">
<path fill="none" stroke="#63b8ff" d="M141.51,-158.97C164.81,-150.42 203.07,-136.39 229.79,-126.59"/>
<polygon fill="#63b8ff" stroke="#63b8ff" points="231.22,-129.79 239.41,-123.06 228.81,-123.21 231.22,-129.79"/>
</a>
</g>
</g>
<!-- Node6&#45;&gt;Node3 -->
<g id="edge8_Node000006_Node000003" class="edge">
<title>Node6&#45;&gt;Node3</title>
<g id="a_edge8_Node000006_Node000003"><a xlink:title=" ">
<path fill="none" stroke="#63b8ff" d="M225.29,-105.95C190.72,-97.78 140.87,-84.04 127,-70 115.87,-58.74 111.25,-41.03 109.33,-27.67"/>
<polygon fill="#63b8ff" stroke="#63b8ff" points="112.77,-26.91 108.26,-17.33 105.81,-27.64 112.77,-26.91"/>
</a>
</g>
</g>
<!-- Node7 -->
<g id="Node000007" class="node">
<title>Node7</title>
<g id="a_Node000007"><a xlink:title=" ">
<polygon fill="#e0e0e0" stroke="#999999" points="171.5,-70 136.5,-70 136.5,-53 171.5,-53 171.5,-70"/>
<text text-anchor="middle" x="154" y="-59.6" font-family="Helvetica,sans-Serif" font-size="8.00">array</text>
</a>
</g>
</g>
<!-- Node6&#45;&gt;Node7 -->
<g id="edge6_Node000006_Node000007" class="edge">
<title>Node6&#45;&gt;Node7</title>
<g id="a_edge6_Node000006_Node000007"><a xlink:title=" ">
<path fill="none" stroke="#63b8ff" d="M244.36,-105.97C227.14,-97.69 199.2,-84.25 178.95,-74.5"/>
<polygon fill="#63b8ff" stroke="#63b8ff" points="180.23,-71.24 169.7,-70.06 177.2,-77.55 180.23,-71.24"/>
</a>
</g>
</g>
<!-- Node8 -->
<g id="Node000008" class="node">
<title>Node8</title>
<g id="a_Node000008"><a xlink:title=" ">
<polygon fill="#e0e0e0" stroke="#999999" points="228,-70 190,-70 190,-53 228,-53 228,-70"/>
<text text-anchor="middle" x="209" y="-59.6" font-family="Helvetica,sans-Serif" font-size="8.00">cmath</text>
</a>
</g>
</g>
<!-- Node6&#45;&gt;Node8 -->
<g id="edge7_Node000006_Node000008" class="edge">
<title>Node6&#45;&gt;Node8</title>
<g id="a_edge7_Node000006_Node000008"><a xlink:title=" ">
<path fill="none" stroke="#63b8ff" d="M252.47,-105.97C244.94,-98.44 233.15,-86.65 223.75,-77.25"/>
<polygon fill="#63b8ff" stroke="#63b8ff" points="226.1,-74.65 216.56,-70.06 221.15,-79.6 226.1,-74.65"/>
</a>
</g>
</g>
<!-- Node9 -->
<g id="Node000009" class="node">
<title>Node9</title>
<g id="a_Node000009"><a xlink:title=" ">
<polygon fill="#e0e0e0" stroke="#999999" points="280,-70 246,-70 246,-53 280,-53 280,-70"/>
<text text-anchor="middle" x="263" y="-59.6" font-family="Helvetica,sans-Serif" font-size="8.00">limits</text>
</a>
</g>
</g>
<!-- Node6&#45;&gt;Node9 -->
<g id="edge9_Node000006_Node000009" class="edge">
<title>Node6&#45;&gt;Node9</title>
<g id="a_edge9_Node000006_Node000009"><a xlink:title=" ">
<path fill="none" stroke="#63b8ff" d="M260.44,-105.97C260.84,-99.19 261.44,-88.97 261.96,-80.13"/>
<polygon fill="#63b8ff" stroke="#63b8ff" points="265.46,-80.24 262.56,-70.06 258.47,-79.83 265.46,-80.24"/>
</a>
</g>
</g>
<!-- Node10 -->
<g id="Node000010" class="node">
<title>Node10</title>
<g id="a_Node000010"><a xlink:title=" ">
<polygon fill="#e0e0e0" stroke="#999999" points="334,-70 298,-70 298,-53 334,-53 334,-70"/>
<text text-anchor="middle" x="316" y="-59.6" font-family="Helvetica,sans-Serif" font-size="8.00">string</text>
</a>
</g>
</g>
<!-- Node6&#45;&gt;Node10 -->
<g id="edge10_Node000006_Node000010" class="edge">
<title>Node6&#45;&gt;Node10</title>
<g id="a_edge10_Node000006_Node000010"><a xlink:title=" ">
<path fill="none" stroke="#63b8ff" d="M268.26,-105.97C276.62,-98.37 289.74,-86.41 300.12,-76.97"/>
<polygon fill="#63b8ff" stroke="#63b8ff" points="302.67,-79.38 307.7,-70.06 297.95,-74.2 302.67,-79.38"/>
</a>
</g>
</g>
<!-- Node11 -->
<g id="Node000011" class="node">
<title>Node11</title>
<g id="a_Node000011"><a xlink:title=" ">
<polygon fill="#e0e0e0" stroke="#999999" points="405.5,-70 352.5,-70 352.5,-53 405.5,-53 405.5,-70"/>
<text text-anchor="middle" x="379" y="-59.6" font-family="Helvetica,sans-Serif" font-size="8.00">type_traits</text>
</a>
</g>
</g>
<!-- Node6&#45;&gt;Node11 -->
<g id="edge11_Node000006_Node000011" class="edge">
<title>Node6&#45;&gt;Node11</title>
<g id="a_edge11_Node000006_Node000011"><a xlink:title=" ">
<path fill="none" stroke="#63b8ff" d="M277.56,-105.97C297.16,-97.58 329.11,-83.88 351.91,-74.11"/>
<polygon fill="#63b8ff" stroke="#63b8ff" points="353.56,-77.21 361.37,-70.06 350.8,-70.78 353.56,-77.21"/>
</a>
</g>
</g>
<!-- Node12 -->
<g id="Node000012" class="node">
<title>Node12</title>
<g id="a_Node000012"><a xlink:href="../../d7/d65/intrinsics_8hpp.html" target="_top" xlink:title=" ">
<polygon fill="white" stroke="#666666" points="508.5,-70 423.5,-70 423.5,-53 508.5,-53 508.5,-70"/>
<text text-anchor="middle" x="466" y="-59.6" font-family="Helvetica,sans-Serif" font-size="8.00">../utils/intrinsics.hpp</text>
</a>
</g>
</g>
<!-- Node6&#45;&gt;Node12 -->
<g id="edge12_Node000006_Node000012" class="edge">
<title>Node6&#45;&gt;Node12</title>
<g id="a_edge12_Node000006_Node000012"><a xlink:title=" ">
<path fill="none" stroke="#63b8ff" d="M290.4,-105.97C326.22,-97.1 385.9,-82.33 425.6,-72.5"/>
<polygon fill="#63b8ff" stroke="#63b8ff" points="426.61,-75.86 435.48,-70.06 424.93,-69.06 426.61,-75.86"/>
</a>
</g>
</g>
<!-- Node12&#45;&gt;Node3 -->
<g id="edge13_Node000012_Node000003" class="edge">
<title>Node12&#45;&gt;Node3</title>
<g id="a_edge13_Node000012_Node000003"><a xlink:title=" ">
<path fill="none" stroke="#63b8ff" d="M423.43,-54.35C420.24,-53.89 417.07,-53.44 414,-53 313.66,-38.63 194.78,-21.78 139.36,-13.94"/>
<polygon fill="#63b8ff" stroke="#63b8ff" points="139.54,-10.43 129.15,-12.49 138.56,-17.36 139.54,-10.43"/>
</a>
</g>
</g>
<!-- Node13 -->
<g id="Node000013" class="node">
<title>Node13</title>
<g id="a_Node000013"><a xlink:title=" ">
<polygon fill="#e0e0e0" stroke="#999999" points="485,-17 447,-17 447,0 485,0 485,-17"/>
<text text-anchor="middle" x="466" y="-6.6" font-family="Helvetica,sans-Serif" font-size="8.00">cstdlib</text>
</a>
</g>
</g>
<!-- Node12&#45;&gt;Node13 -->
<g id="edge14_Node000012_Node000013" class="edge">
<title>Node12&#45;&gt;Node13</title>
<g id="a_edge14_Node000012_Node000013"><a xlink:title=" ">
<path fill="none" stroke="#63b8ff" d="M466,-52.97C466,-46.19 466,-35.97 466,-27.13"/>
<polygon fill="#63b8ff" stroke="#63b8ff" points="469.5,-27.06 466,-17.06 462.5,-27.06 469.5,-27.06"/>
</a>
</g>
</g>
</g>
</svg>
