<?xml version="1.0" encoding="UTF-8" standalone="no"?>
<!DOCTYPE svg PUBLIC "-//W3C//DTD SVG 1.1//EN"
 "http://www.w3.org/Graphics/SVG/1.1/DTD/svg11.dtd">
<!-- Generated by graphviz version 2.42.4 (0)
 -->
<!-- Title: expunge Pages: 1 -->
<svg width="207pt" height="60pt"
 viewBox="0.00 0.00 207.00 60.00" xmlns="http://www.w3.org/2000/svg" xmlns:xlink="http://www.w3.org/1999/xlink">
<g id="graph0" class="graph" transform="scale(1 1) rotate(0) translate(4 56)">
<title>expunge</title>
<!-- Node1 -->
<g id="Node000001" class="node">
<title>Node1</title>
<g id="a_Node000001"><a xlink:title="Recursively releases dead nodes from the parent hierarchy.">
<polygon fill="#999999" stroke="#666666" points="47,-34 0,-34 0,-17 47,-17 47,-34"/>
<text text-anchor="middle" x="23.5" y="-23.6" font-family="Helvetica,sans-Serif" font-size="8.00">expunge</text>
</a>
</g>
</g>
<!-- Node2 -->
<g id="Node000002" class="node">
<title>Node2</title>
<g id="a_Node000002"><a xlink:href="../../da/d98/structchdr_1_1solvers_1_1bnode_a7bc8e5ab7555f3803cacfde2b0866b44.html#a7bc8e5ab7555f3803cacfde2b0866b44" target="_top" xlink:title="Constructs an uninitialized BNode.">
<polygon fill="white" stroke="#666666" points="199,-52 83,-52 83,-35 199,-35 199,-52"/>
<text text-anchor="middle" x="141" y="-41.6" font-family="Helvetica,sans-Serif" font-size="8.00">chdr::solvers::bnode::bnode</text>
</a>
</g>
</g>
<!-- Node1&#45;&gt;Node2 -->
<g id="edge1_Node000001_Node000002" class="edge">
<title>Node1&#45;&gt;Node2</title>
<g id="a_edge1_Node000001_Node000002"><a xlink:title=" ">
<path fill="none" stroke="#63b8ff" d="M47.04,-29.01C55.32,-30.3 65.15,-31.83 75.27,-33.41"/>
<polygon fill="#63b8ff" stroke="#63b8ff" points="75.02,-36.91 85.44,-35 76.09,-30 75.02,-36.91"/>
</a>
</g>
</g>
<!-- Node3 -->
<g id="Node000003" class="node">
<title>Node3</title>
<g id="a_Node000003"><a xlink:href="../../df/d64/structchdr_1_1solvers_1_1managed__node_acda8e1a76bed4a71e36efa61a9f3c59e.html#acda8e1a76bed4a71e36efa61a9f3c59e" target="_top" xlink:title="Returns the current successor count.">
<polygon fill="white" stroke="#666666" points="159,-17 123,-17 123,0 159,0 159,-17"/>
<text text-anchor="middle" x="141" y="-6.6" font-family="Helvetica,sans-Serif" font-size="8.00">count</text>
</a>
</g>
</g>
<!-- Node1&#45;&gt;Node3 -->
<g id="edge2_Node000001_Node000003" class="edge">
<title>Node1&#45;&gt;Node3</title>
<g id="a_edge2_Node000001_Node000003"><a xlink:title=" ">
<path fill="none" stroke="#63b8ff" d="M47.04,-22.18C65.85,-19.41 92.72,-15.46 112.74,-12.51"/>
<polygon fill="#63b8ff" stroke="#63b8ff" points="113.39,-15.95 122.78,-11.03 112.37,-9.03 113.39,-15.95"/>
</a>
</g>
</g>
</g>
</svg>
