<?xml version="1.0" encoding="UTF-8" standalone="no"?>
<!DOCTYPE svg PUBLIC "-//W3C//DTD SVG 1.1//EN"
 "http://www.w3.org/Graphics/SVG/1.1/DTD/svg11.dtd">
<!-- Generated by graphviz version 2.42.4 (0)
 -->
<!-- Title: expunge Pages: 1 -->
<svg width="230pt" height="60pt"
 viewBox="0.00 0.00 230.00 60.00" xmlns="http://www.w3.org/2000/svg" xmlns:xlink="http://www.w3.org/1999/xlink">
<g id="graph0" class="graph" transform="scale(1 1) rotate(0) translate(4 56)">
<title>expunge</title>
<!-- Node1 -->
<g id="Node000001" class="node">
<title>Node1</title>
<g id="a_Node000001"><a xlink:title="Recursively releases dead nodes from the parent hierarchy.">
<polygon fill="#999999" stroke="#666666" points="52,-34 0,-34 0,-17 52,-17 52,-34"/>
<text text-anchor="middle" x="26" y="-23.6" font-family="Helvetica,sans-Serif" font-size="8.00">expunge</text>
</a>
</g>
</g>
<!-- Node2 -->
<g id="Node000002" class="node">
<title>Node2</title>
<g id="a_Node000002"><a xlink:href="../../da/d98/structchdr_1_1solvers_1_1bnode_a7bc8e5ab7555f3803cacfde2b0866b44.html#a7bc8e5ab7555f3803cacfde2b0866b44" target="_top" xlink:title="Constructs an uninitialized BNode.">
<polygon fill="white" stroke="#666666" points="222,-52 88,-52 88,-35 222,-35 222,-52"/>
<text text-anchor="middle" x="155" y="-41.6" font-family="Helvetica,sans-Serif" font-size="8.00">chdr::solvers::bnode::bnode</text>
</a>
</g>
</g>
<!-- Node1&#45;&gt;Node2 -->
<g id="edge1_Node000001_Node000002" class="edge">
<title>Node1&#45;&gt;Node2</title>
<g id="a_edge1_Node000001_Node000002"><a xlink:title=" ">
<path fill="none" stroke="#63b8ff" d="M52.09,-29.06C61.43,-30.38 72.54,-31.95 83.94,-33.57"/>
<polygon fill="#63b8ff" stroke="#63b8ff" points="83.6,-37.06 93.99,-34.99 84.58,-30.13 83.6,-37.06"/>
</a>
</g>
</g>
<!-- Node3 -->
<g id="Node000003" class="node">
<title>Node3</title>
<g id="a_Node000003"><a xlink:href="../../df/d64/structchdr_1_1solvers_1_1managed__node_acda8e1a76bed4a71e36efa61a9f3c59e.html#acda8e1a76bed4a71e36efa61a9f3c59e" target="_top" xlink:title="Returns the current successor count.">
<polygon fill="white" stroke="#666666" points="175,-17 135,-17 135,0 175,0 175,-17"/>
<text text-anchor="middle" x="155" y="-6.6" font-family="Helvetica,sans-Serif" font-size="8.00">count</text>
</a>
</g>
</g>
<!-- Node1&#45;&gt;Node3 -->
<g id="edge2_Node000001_Node000003" class="edge">
<title>Node1&#45;&gt;Node3</title>
<g id="a_edge2_Node000001_Node000003"><a xlink:title=" ">
<path fill="none" stroke="#63b8ff" d="M52.09,-22.14C72.96,-19.35 102.71,-15.37 124.68,-12.43"/>
<polygon fill="#63b8ff" stroke="#63b8ff" points="125.32,-15.87 134.76,-11.08 124.39,-8.93 125.32,-15.87"/>
</a>
</g>
</g>
</g>
</svg>
