<?xml version="1.0" encoding="UTF-8" standalone="no"?>
<!DOCTYPE svg PUBLIC "-//W3C//DTD SVG 1.1//EN"
 "http://www.w3.org/Graphics/SVG/1.1/DTD/svg11.dtd">
<!-- Generated by graphviz version 2.43.0 (0)
 -->
<!-- Title: count Pages: 1 -->
<svg width="155pt" height="60pt"
 viewBox="0.00 0.00 155.00 60.00" xmlns="http://www.w3.org/2000/svg" xmlns:xlink="http://www.w3.org/1999/xlink">
<g id="graph0" class="graph" transform="scale(1 1) rotate(0) translate(4 56)">
<title>count</title>
<!-- Node1 -->
<g id="Node000001" class="node">
<title>Node1</title>
<g id="a_Node000001"><a xlink:title="Returns the current successor count.">
<polygon fill="#999999" stroke="#666666" points="147,-34 107,-34 107,-17 147,-17 147,-34"/>
<text text-anchor="middle" x="127" y="-23.6" font-family="Helvetica,sans-Serif" font-size="8.00">count</text>
</a>
</g>
</g>
<!-- Node2 -->
<g id="Node000002" class="node">
<title>Node2</title>
<g id="a_Node000002"><a xlink:href="../../df/d64/structchdr_1_1solvers_1_1managed__node_a347b686b64792776a7fe77145d90f928.html#a347b686b64792776a7fe77145d90f928" target="_top" xlink:title="Recursively releases dead nodes from the parent hierarchy.">
<polygon fill="white" stroke="#666666" points="61.5,-52 9.5,-52 9.5,-35 61.5,-35 61.5,-52"/>
<text text-anchor="middle" x="35.5" y="-41.6" font-family="Helvetica,sans-Serif" font-size="8.00">expunge</text>
</a>
</g>
</g>
<!-- Node1&#45;&gt;Node2 -->
<g id="edge1_Node000001_Node000002" class="edge">
<title>Node1&#45;&gt;Node2</title>
<g id="a_edge1_Node000001_Node000002"><a xlink:title=" ">
<path fill="none" stroke="#63b8ff" d="M96.71,-31.39C85.39,-33.67 72.56,-36.25 61.67,-38.44"/>
<polygon fill="#63b8ff" stroke="#63b8ff" points="97.47,-34.81 106.58,-29.41 96.09,-27.95 97.47,-34.81"/>
</a>
</g>
</g>
<!-- Node3 -->
<g id="Node000003" class="node">
<title>Node3</title>
<g id="a_Node000003"><a xlink:href="../../df/d64/structchdr_1_1solvers_1_1managed__node_af042ef493f0f7f37852f2ac61c6292f7.html#af042ef493f0f7f37852f2ac61c6292f7" target="_top" xlink:title="Decrements parent&#39;s successor count and checks if it can be released.">
<polygon fill="white" stroke="#666666" points="71,-17 0,-17 0,0 71,0 71,-17"/>
<text text-anchor="middle" x="35.5" y="-6.6" font-family="Helvetica,sans-Serif" font-size="8.00">expunge_one</text>
</a>
</g>
</g>
<!-- Node1&#45;&gt;Node3 -->
<g id="edge2_Node000001_Node000003" class="edge">
<title>Node1&#45;&gt;Node3</title>
<g id="a_edge2_Node000001_Node000003"><a xlink:title=" ">
<path fill="none" stroke="#63b8ff" d="M96.71,-19.94C88.51,-18.38 79.52,-16.67 71.04,-15.06"/>
<polygon fill="#63b8ff" stroke="#63b8ff" points="96.1,-23.38 106.58,-21.81 97.41,-16.51 96.1,-23.38"/>
</a>
</g>
</g>
</g>
</svg>
