<?xml version="1.0" encoding="UTF-8" standalone="no"?>
<!DOCTYPE svg PUBLIC "-//W3C//DTD SVG 1.1//EN"
 "http://www.w3.org/Graphics/SVG/1.1/DTD/svg11.dtd">
<!-- Generated by graphviz version 2.43.0 (0)
 -->
<!-- Title: count Pages: 1 -->
<svg width="145pt" height="60pt"
 viewBox="0.00 0.00 145.00 60.00" xmlns="http://www.w3.org/2000/svg" xmlns:xlink="http://www.w3.org/1999/xlink">
<g id="graph0" class="graph" transform="scale(1 1) rotate(0) translate(4 56)">
<title>count</title>
<!-- Node1 -->
<g id="Node000001" class="node">
<title>Node1</title>
<g id="a_Node000001"><a xlink:title="Returns the current successor count.">
<polygon fill="#999999" stroke="#666666" points="137,-34 97,-34 97,-17 137,-17 137,-34"/>
<text text-anchor="middle" x="117" y="-23.6" font-family="Helvetica,sans-Serif" font-size="8.00">count</text>
</a>
</g>
</g>
<!-- Node2 -->
<g id="Node000002" class="node">
<title>Node2</title>
<g id="a_Node000002"><a xlink:href="../../df/d64/structchdr_1_1solvers_1_1managed__node_a347b686b64792776a7fe77145d90f928.html#a347b686b64792776a7fe77145d90f928" target="_top" xlink:title="Recursively releases dead nodes from the parent hierarchy.">
<polygon fill="white" stroke="#666666" points="56.5,-52 4.5,-52 4.5,-35 56.5,-35 56.5,-52"/>
<text text-anchor="middle" x="30.5" y="-41.6" font-family="Helvetica,sans-Serif" font-size="8.00">expunge</text>
</a>
</g>
</g>
<!-- Node1&#45;&gt;Node2 -->
<g id="edge1_Node000001_Node000002" class="edge">
<title>Node1&#45;&gt;Node2</title>
<g id="a_edge1_Node000001_Node000002"><a xlink:title=" ">
<path fill="none" stroke="#63b8ff" d="M87.04,-31.67C77.18,-33.77 66.24,-36.1 56.69,-38.13"/>
<polygon fill="#63b8ff" stroke="#63b8ff" points="87.77,-35.09 96.83,-29.58 86.32,-28.24 87.77,-35.09"/>
</a>
</g>
</g>
<!-- Node3 -->
<g id="Node000003" class="node">
<title>Node3</title>
<g id="a_Node000003"><a xlink:href="../../df/d64/structchdr_1_1solvers_1_1managed__node_a90c8d052d768b663cd0b13d5556b8705.html#a90c8d052d768b663cd0b13d5556b8705" target="_top" xlink:title="Decrements parent&#39;s successor count and checks if it can be released.">
<polygon fill="white" stroke="#666666" points="61,-17 0,-17 0,0 61,0 61,-17"/>
<text text-anchor="middle" x="30.5" y="-6.6" font-family="Helvetica,sans-Serif" font-size="8.00">forget_one</text>
</a>
</g>
</g>
<!-- Node1&#45;&gt;Node3 -->
<g id="edge2_Node000001_Node000003" class="edge">
<title>Node1&#45;&gt;Node3</title>
<g id="a_edge2_Node000001_Node000003"><a xlink:title=" ">
<path fill="none" stroke="#63b8ff" d="M86.84,-19.63C78.56,-17.97 69.53,-16.15 61.21,-14.48"/>
<polygon fill="#63b8ff" stroke="#63b8ff" points="86.33,-23.1 96.83,-21.64 87.71,-16.24 86.33,-23.1"/>
</a>
</g>
</g>
</g>
</svg>
