<?xml version="1.0" encoding="UTF-8" standalone="no"?>
<!DOCTYPE svg PUBLIC "-//W3C//DTD SVG 1.1//EN"
 "http://www.w3.org/Graphics/SVG/1.1/DTD/svg11.dtd">
<!-- Generated by graphviz version 2.43.0 (0)
 -->
<!-- Title: Standard Pages: 1 -->
<svg width="158pt" height="60pt"
 viewBox="0.00 0.00 158.00 60.00" xmlns="http://www.w3.org/2000/svg" xmlns:xlink="http://www.w3.org/1999/xlink">
<g id="graph0" class="graph" transform="scale(1 1) rotate(0) translate(4 56)">
<title>Standard</title>
<!-- Node3 -->
<g id="Node000003" class="node">
<title>Node3</title>
<g id="a_Node000003"><a xlink:href="../../d9/d71/group__Multi-Target.html" target="_top" xlink:title=" ">
<polygon fill="white" stroke="#666666" points="61.5,-52 2.5,-52 2.5,-35 61.5,-35 61.5,-52"/>
<text text-anchor="middle" x="32" y="-41.6" font-family="Helvetica,sans-Serif" font-size="8.00">Multi&#45;Target</text>
</a>
</g>
</g>
<!-- Node1 -->
<g id="Node000001" class="node">
<title>Node1</title>
<g id="a_Node000001"><a xlink:title=" ">
<polygon fill="#999999" stroke="#666666" points="150,-34 100,-34 100,-17 150,-17 150,-34"/>
<text text-anchor="middle" x="125" y="-23.6" font-family="Helvetica,sans-Serif" font-size="8.00">Standard</text>
</a>
</g>
</g>
<!-- Node3&#45;&gt;Node1 -->
<g id="edge2" class="edge">
<title>Node3&#45;&gt;Node1</title>
<path fill="none" stroke="black" d="M71.9,-35.8C81.44,-33.92 91.37,-31.95 99.97,-30.25"/>
<polygon fill="black" stroke="black" points="70.92,-32.43 61.79,-37.8 72.28,-39.3 70.92,-32.43"/>
</g>
<!-- Node2 -->
<g id="Node000002" class="node">
<title>Node2</title>
<g id="a_Node000002"><a xlink:href="../../d5/d91/group__Single-Target.html" target="_top" xlink:title=" ">
<polygon fill="white" stroke="#666666" points="64,-17 0,-17 0,0 64,0 64,-17"/>
<text text-anchor="middle" x="32" y="-6.6" font-family="Helvetica,sans-Serif" font-size="8.00">Single&#45;Target</text>
</a>
</g>
</g>
<!-- Node2&#45;&gt;Node1 -->
<g id="edge1" class="edge">
<title>Node2&#45;&gt;Node1</title>
<path fill="none" stroke="black" d="M73.94,-16.15C82.84,-17.81 91.98,-19.52 99.97,-21.01"/>
<polygon fill="black" stroke="black" points="74.54,-12.7 64.06,-14.3 73.25,-19.58 74.54,-12.7"/>
</g>
</g>
</svg>
