<?xml version="1.0" encoding="UTF-8" standalone="no"?>
<!DOCTYPE svg PUBLIC "-//W3C//DTD SVG 1.1//EN"
 "http://www.w3.org/Graphics/SVG/1.1/DTD/svg11.dtd">
<!-- Generated by graphviz version 2.43.0 (0)
 -->
<!-- Title: grid.hpp Pages: 1 -->
<svg width="199pt" height="131pt"
 viewBox="0.00 0.00 198.95 131.00" xmlns="http://www.w3.org/2000/svg" xmlns:xlink="http://www.w3.org/1999/xlink">
<g id="graph0" class="graph" transform="scale(1 1) rotate(0) translate(4 127)">
<title>grid.hpp</title>
<!-- Node1 -->
<g id="Node000001" class="node">
<title>Node1</title>
<g id="a_Node000001"><a xlink:title=" ">
<polygon fill="#999999" stroke="#666666" points="92.95,-123 46.95,-123 46.95,-106 92.95,-106 92.95,-123"/>
<text text-anchor="middle" x="69.95" y="-112.6" font-family="Helvetica,sans-Serif" font-size="8.00">grid.hpp</text>
</a>
</g>
</g>
<!-- Node2 -->
<g id="Node000002" class="node">
<title>Node2</title>
<g id="a_Node000002"><a xlink:href="../../d9/d96/chdr_8hpp.html" target="_top" xlink:title=" ">
<polygon fill="white" stroke="#666666" points="93.45,-17 46.45,-17 46.45,0 93.45,0 93.45,-17"/>
<text text-anchor="middle" x="69.95" y="-6.6" font-family="Helvetica,sans-Serif" font-size="8.00">chdr.hpp</text>
</a>
</g>
</g>
<!-- Node1&#45;&gt;Node2 -->
<g id="edge1_Node000001_Node000002" class="edge">
<title>Node1&#45;&gt;Node2</title>
<g id="a_edge1_Node000001_Node000002"><a xlink:title=" ">
<path fill="none" stroke="#63b8ff" d="M38.99,-101.56C25.35,-94.57 10.69,-84.26 2.95,-70 -9.92,-46.31 24.75,-27.14 48.88,-17.12"/>
<polygon fill="#63b8ff" stroke="#63b8ff" points="37.63,-104.79 48.17,-105.88 40.61,-98.46 37.63,-104.79"/>
</a>
</g>
</g>
<!-- Node3 -->
<g id="Node000003" class="node">
<title>Node3</title>
<g id="a_Node000003"><a xlink:href="../../d3/d3e/gjps_8hpp_source.html" target="_top" xlink:title=" ">
<polygon fill="white" stroke="#666666" points="59.45,-70 12.45,-70 12.45,-53 59.45,-53 59.45,-70"/>
<text text-anchor="middle" x="35.95" y="-59.6" font-family="Helvetica,sans-Serif" font-size="8.00">gjps.hpp</text>
</a>
</g>
</g>
<!-- Node1&#45;&gt;Node3 -->
<g id="edge2_Node000001_Node000003" class="edge">
<title>Node1&#45;&gt;Node3</title>
<g id="a_edge2_Node000001_Node000003"><a xlink:title=" ">
<path fill="none" stroke="#63b8ff" d="M59.38,-97.65C53.25,-88.46 45.81,-77.3 40.98,-70.06"/>
<polygon fill="#63b8ff" stroke="#63b8ff" points="56.47,-99.6 64.93,-105.97 62.29,-95.71 56.47,-99.6"/>
</a>
</g>
</g>
<!-- Node4 -->
<g id="Node000004" class="node">
<title>Node4</title>
<g id="a_Node000004"><a xlink:href="../../d9/de9/graph_8hpp.html" target="_top" xlink:title=" ">
<polygon fill="white" stroke="#666666" points="130.45,-70 77.45,-70 77.45,-53 130.45,-53 130.45,-70"/>
<text text-anchor="middle" x="103.95" y="-59.6" font-family="Helvetica,sans-Serif" font-size="8.00">graph.hpp</text>
</a>
</g>
</g>
<!-- Node1&#45;&gt;Node4 -->
<g id="edge4_Node000001_Node000004" class="edge">
<title>Node1&#45;&gt;Node4</title>
<g id="a_edge4_Node000001_Node000004"><a xlink:title=" ">
<path fill="none" stroke="#63b8ff" d="M80.51,-97.65C86.64,-88.46 94.08,-77.3 98.91,-70.06"/>
<polygon fill="#63b8ff" stroke="#63b8ff" points="77.6,-95.71 74.96,-105.97 83.42,-99.6 77.6,-95.71"/>
</a>
</g>
</g>
<!-- Node5 -->
<g id="Node000005" class="node">
<title>Node5</title>
<g id="a_Node000005"><a xlink:href="../../d9/de6/jps_8hpp_source.html" target="_top" xlink:title=" ">
<polygon fill="white" stroke="#666666" points="190.95,-70 148.95,-70 148.95,-53 190.95,-53 190.95,-70"/>
<text text-anchor="middle" x="169.95" y="-59.6" font-family="Helvetica,sans-Serif" font-size="8.00">jps.hpp</text>
</a>
</g>
</g>
<!-- Node1&#45;&gt;Node5 -->
<g id="edge6_Node000001_Node000005" class="edge">
<title>Node1&#45;&gt;Node5</title>
<g id="a_edge6_Node000001_Node000005"><a xlink:title=" ">
<path fill="none" stroke="#63b8ff" d="M93.67,-101.4C112.74,-91.67 138.93,-78.32 155.13,-70.06"/>
<polygon fill="#63b8ff" stroke="#63b8ff" points="92.02,-98.31 84.7,-105.97 95.2,-104.55 92.02,-98.31"/>
</a>
</g>
</g>
<!-- Node3&#45;&gt;Node2 -->
<g id="edge3_Node000003_Node000002" class="edge">
<title>Node3&#45;&gt;Node2</title>
<g id="a_edge3_Node000003_Node000002"><a xlink:title=" ">
<path fill="none" stroke="#63b8ff" d="M46.51,-44.65C52.64,-35.46 60.08,-24.3 64.91,-17.06"/>
<polygon fill="#63b8ff" stroke="#63b8ff" points="43.6,-42.71 40.96,-52.97 49.42,-46.6 43.6,-42.71"/>
</a>
</g>
</g>
<!-- Node4&#45;&gt;Node2 -->
<g id="edge5_Node000004_Node000002" class="edge">
<title>Node4&#45;&gt;Node2</title>
<g id="a_edge5_Node000004_Node000002"><a xlink:title=" ">
<path fill="none" stroke="#63b8ff" d="M93.38,-44.65C87.25,-35.46 79.81,-24.3 74.98,-17.06"/>
<polygon fill="#63b8ff" stroke="#63b8ff" points="90.47,-46.6 98.93,-52.97 96.29,-42.71 90.47,-46.6"/>
</a>
</g>
</g>
<!-- Node5&#45;&gt;Node2 -->
<g id="edge7_Node000005_Node000002" class="edge">
<title>Node5&#45;&gt;Node2</title>
<g id="a_edge7_Node000005_Node000002"><a xlink:title=" ">
<path fill="none" stroke="#63b8ff" d="M146.22,-48.4C127.15,-38.67 100.96,-25.32 84.76,-17.06"/>
<polygon fill="#63b8ff" stroke="#63b8ff" points="144.69,-51.55 155.19,-52.97 147.87,-45.31 144.69,-51.55"/>
</a>
</g>
</g>
</g>
</svg>
