<?xml version="1.0" encoding="UTF-8" standalone="no"?>
<!DOCTYPE svg PUBLIC "-//W3C//DTD SVG 1.1//EN"
 "http://www.w3.org/Graphics/SVG/1.1/DTD/svg11.dtd">
<!-- Generated by graphviz version 2.43.0 (0)
 -->
<!-- Title: grid.hpp Pages: 1 -->
<svg width="215pt" height="131pt"
 viewBox="0.00 0.00 214.65 131.00" xmlns="http://www.w3.org/2000/svg" xmlns:xlink="http://www.w3.org/1999/xlink">
<g id="graph0" class="graph" transform="scale(1 1) rotate(0) translate(4 127)">
<title>grid.hpp</title>
<!-- Node1 -->
<g id="Node000001" class="node">
<title>Node1</title>
<g id="a_Node000001"><a xlink:title=" ">
<polygon fill="#999999" stroke="#666666" points="100.15,-123 50.15,-123 50.15,-106 100.15,-106 100.15,-123"/>
<text text-anchor="middle" x="75.15" y="-112.6" font-family="Helvetica,sans-Serif" font-size="8.00">grid.hpp</text>
</a>
</g>
</g>
<!-- Node2 -->
<g id="Node000002" class="node">
<title>Node2</title>
<g id="a_Node000002"><a xlink:href="../../d9/d96/chdr_8hpp.html" target="_top" xlink:title=" ">
<polygon fill="white" stroke="#666666" points="101.15,-17 49.15,-17 49.15,0 101.15,0 101.15,-17"/>
<text text-anchor="middle" x="75.15" y="-6.6" font-family="Helvetica,sans-Serif" font-size="8.00">chdr.hpp</text>
</a>
</g>
</g>
<!-- Node1&#45;&gt;Node2 -->
<g id="edge1_Node000001_Node000002" class="edge">
<title>Node1&#45;&gt;Node2</title>
<g id="a_edge1_Node000001_Node000002"><a xlink:title=" ">
<path fill="none" stroke="#63b8ff" d="M42.61,-102.14C18.25,-91.65 -8.96,-74.47 3.15,-53 13.27,-35.07 34.08,-23.69 50.74,-17.09"/>
<polygon fill="#63b8ff" stroke="#63b8ff" points="41.49,-105.46 52.07,-105.96 44.11,-98.97 41.49,-105.46"/>
</a>
</g>
</g>
<!-- Node3 -->
<g id="Node000003" class="node">
<title>Node3</title>
<g id="a_Node000003"><a xlink:href="../../d3/d3e/gjps_8hpp.html" target="_top" xlink:title=" ">
<polygon fill="white" stroke="#666666" points="64.15,-70 12.15,-70 12.15,-53 64.15,-53 64.15,-70"/>
<text text-anchor="middle" x="38.15" y="-59.6" font-family="Helvetica,sans-Serif" font-size="8.00">gjps.hpp</text>
</a>
</g>
</g>
<!-- Node1&#45;&gt;Node3 -->
<g id="edge2_Node000001_Node000003" class="edge">
<title>Node1&#45;&gt;Node3</title>
<g id="a_edge2_Node000001_Node000003"><a xlink:title=" ">
<path fill="none" stroke="#63b8ff" d="M63.65,-97.65C56.98,-88.46 48.88,-77.3 43.63,-70.06"/>
<polygon fill="#63b8ff" stroke="#63b8ff" points="60.98,-99.94 69.69,-105.97 66.65,-95.83 60.98,-99.94"/>
</a>
</g>
</g>
<!-- Node4 -->
<g id="Node000004" class="node">
<title>Node4</title>
<g id="a_Node000004"><a xlink:href="../../d9/de9/graph_8hpp.html" target="_top" xlink:title=" ">
<polygon fill="white" stroke="#666666" points="141.65,-70 82.65,-70 82.65,-53 141.65,-53 141.65,-70"/>
<text text-anchor="middle" x="112.15" y="-59.6" font-family="Helvetica,sans-Serif" font-size="8.00">graph.hpp</text>
</a>
</g>
</g>
<!-- Node1&#45;&gt;Node4 -->
<g id="edge4_Node000001_Node000004" class="edge">
<title>Node1&#45;&gt;Node4</title>
<g id="a_edge4_Node000001_Node000004"><a xlink:title=" ">
<path fill="none" stroke="#63b8ff" d="M86.65,-97.65C93.32,-88.46 101.41,-77.3 106.67,-70.06"/>
<polygon fill="#63b8ff" stroke="#63b8ff" points="83.65,-95.83 80.61,-105.97 89.31,-99.94 83.65,-95.83"/>
</a>
</g>
</g>
<!-- Node5 -->
<g id="Node000005" class="node">
<title>Node5</title>
<g id="a_Node000005"><a xlink:href="../../d9/de6/jps_8hpp.html" target="_top" xlink:title=" ">
<polygon fill="white" stroke="#666666" points="206.65,-70 159.65,-70 159.65,-53 206.65,-53 206.65,-70"/>
<text text-anchor="middle" x="183.15" y="-59.6" font-family="Helvetica,sans-Serif" font-size="8.00">jps.hpp</text>
</a>
</g>
</g>
<!-- Node1&#45;&gt;Node5 -->
<g id="edge6_Node000001_Node000005" class="edge">
<title>Node1&#45;&gt;Node5</title>
<g id="a_edge6_Node000001_Node000005"><a xlink:title=" ">
<path fill="none" stroke="#63b8ff" d="M100.21,-101.66C120.85,-91.92 149.49,-78.39 167.15,-70.06"/>
<polygon fill="#63b8ff" stroke="#63b8ff" points="98.63,-98.54 91.08,-105.97 101.62,-104.87 98.63,-98.54"/>
</a>
</g>
</g>
<!-- Node3&#45;&gt;Node2 -->
<g id="edge3_Node000003_Node000002" class="edge">
<title>Node3&#45;&gt;Node2</title>
<g id="a_edge3_Node000003_Node000002"><a xlink:title=" ">
<path fill="none" stroke="#63b8ff" d="M49.65,-44.65C56.32,-35.46 64.41,-24.3 69.67,-17.06"/>
<polygon fill="#63b8ff" stroke="#63b8ff" points="46.65,-42.83 43.61,-52.97 52.31,-46.94 46.65,-42.83"/>
</a>
</g>
</g>
<!-- Node4&#45;&gt;Node2 -->
<g id="edge5_Node000004_Node000002" class="edge">
<title>Node4&#45;&gt;Node2</title>
<g id="a_edge5_Node000004_Node000002"><a xlink:title=" ">
<path fill="none" stroke="#63b8ff" d="M100.65,-44.65C93.98,-35.46 85.88,-24.3 80.63,-17.06"/>
<polygon fill="#63b8ff" stroke="#63b8ff" points="97.98,-46.94 106.69,-52.97 103.65,-42.83 97.98,-46.94"/>
</a>
</g>
</g>
<!-- Node5&#45;&gt;Node2 -->
<g id="edge7_Node000005_Node000002" class="edge">
<title>Node5&#45;&gt;Node2</title>
<g id="a_edge7_Node000005_Node000002"><a xlink:title=" ">
<path fill="none" stroke="#63b8ff" d="M158.08,-48.66C137.45,-38.92 108.8,-25.39 91.15,-17.06"/>
<polygon fill="#63b8ff" stroke="#63b8ff" points="156.68,-51.87 167.21,-52.97 159.66,-45.54 156.68,-51.87"/>
</a>
</g>
</g>
</g>
</svg>
