<?xml version="1.0" encoding="UTF-8" standalone="no"?>
<!DOCTYPE svg PUBLIC "-//W3C//DTD SVG 1.1//EN"
 "http://www.w3.org/Graphics/SVG/1.1/DTD/svg11.dtd">
<!-- Generated by graphviz version 2.43.0 (0)
 -->
<!-- Title: Graveyard&#45;Optimised Pages: 1 -->
<svg width="355pt" height="26pt"
 viewBox="0.00 0.00 355.00 25.50" xmlns="http://www.w3.org/2000/svg" xmlns:xlink="http://www.w3.org/1999/xlink">
<g id="graph0" class="graph" transform="scale(1 1) rotate(0) translate(4 21.5)">
<title>Graveyard&#45;Optimised</title>
<!-- Node2 -->
<g id="Node000002" class="node">
<title>Node2</title>
<g id="a_Node000002"><a xlink:href="../../d5/d91/group__Single-Target.html" target="_top" xlink:title="Solvers which route to a single destination.">
<polygon fill="white" stroke="#666666" points="64,-17 0,-17 0,0 64,0 64,-17"/>
<text text-anchor="middle" x="32" y="-6.6" font-family="Helvetica,sans-Serif" font-size="8.00">Single&#45;Target</text>
</a>
</g>
</g>
<!-- Node1 -->
<g id="Node000001" class="node">
<title>Node1</title>
<g id="a_Node000001"><a xlink:title="Graveyard solvers, which dynamically prune the search tree.">
<polygon fill="#999999" stroke="#666666" points="193,-17 101,-17 101,0 193,0 193,-17"/>
<text text-anchor="middle" x="147" y="-6.6" font-family="Helvetica,sans-Serif" font-size="8.00">Graveyard&#45;Optimised</text>
</a>
</g>
</g>
<!-- Node2&#45;&gt;Node1 -->
<g id="edge1" class="edge">
<title>Node2&#45;&gt;Node1</title>
<path fill="none" stroke="black" d="M74.41,-8.5C83.05,-8.5 92.2,-8.5 100.97,-8.5"/>
<polygon fill="black" stroke="black" points="74.18,-5 64.18,-8.5 74.18,-12 74.18,-5"/>
</g>
<!-- Node3 -->
<g id="Node000003" class="node">
<title>Node3</title>
<g id="a_Node000003"><a xlink:href="../../db/d80/group__SingleTargetCommon.html" target="_top" xlink:title="General&#45;purpose solvers.">
<polygon fill="white" stroke="#666666" points="347,-17 297,-17 297,0 347,0 347,-17"/>
<text text-anchor="middle" x="322" y="-6.6" font-family="Helvetica,sans-Serif" font-size="8.00">Common</text>
</a>
</g>
</g>
<!-- Node1&#45;&gt;Node3 -->
<g id="edge2" class="edge">
<title>Node1&#45;&gt;Node3</title>
<path fill="none" stroke="orange" stroke-dasharray="5,2" d="M193,-8.5C226.24,-8.5 270.19,-8.5 296.99,-8.5"/>
<text text-anchor="middle" x="245" y="-11.1" font-family="Helvetica,sans-Serif" font-size="8.00">chdr::solvers::gstar</text>
</g>
</g>
</svg>
