<?xml version="1.0" encoding="UTF-8" standalone="no"?>
<!DOCTYPE svg PUBLIC "-//W3C//DTD SVG 1.1//EN"
 "http://www.w3.org/Graphics/SVG/1.1/DTD/svg11.dtd">
<!-- Generated by graphviz version 2.43.0 (0)
 -->
<!-- Title: Graveyard&#45;Optimised Pages: 1 -->
<svg width="388pt" height="26pt"
 viewBox="0.00 0.00 388.00 25.50" xmlns="http://www.w3.org/2000/svg" xmlns:xlink="http://www.w3.org/1999/xlink">
<g id="graph0" class="graph" transform="scale(1 1) rotate(0) translate(4 21.5)">
<title>Graveyard&#45;Optimised</title>
<!-- Node2 -->
<g id="Node000002" class="node">
<title>Node2</title>
<g id="a_Node000002"><a xlink:href="../../d5/d91/group__Single-Target.html" target="_top" xlink:title="Solvers which route to a single destination.">
<polygon fill="white" stroke="#666666" points="70,-17 0,-17 0,0 70,0 70,-17"/>
<text text-anchor="middle" x="35" y="-6.6" font-family="Helvetica,sans-Serif" font-size="8.00">Single&#45;Target</text>
</a>
</g>
</g>
<!-- Node1 -->
<g id="Node000001" class="node">
<title>Node1</title>
<g id="a_Node000001"><a xlink:title="Graveyard solvers, which dynamically prune the search tree.">
<polygon fill="#999999" stroke="#666666" points="210,-17 107,-17 107,0 210,0 210,-17"/>
<text text-anchor="middle" x="158.5" y="-6.6" font-family="Helvetica,sans-Serif" font-size="8.00">Graveyard&#45;Optimised</text>
</a>
</g>
</g>
<!-- Node2&#45;&gt;Node1 -->
<g id="edge1" class="edge">
<title>Node2&#45;&gt;Node1</title>
<path fill="none" stroke="black" d="M80.37,-8.5C88.96,-8.5 98.03,-8.5 106.8,-8.5"/>
<polygon fill="black" stroke="black" points="80.17,-5 70.17,-8.5 80.17,-12 80.17,-5"/>
</g>
<!-- Node3 -->
<g id="Node000003" class="node">
<title>Node3</title>
<g id="a_Node000003"><a xlink:href="../../db/d80/group__SingleTargetCommon.html" target="_top" xlink:title="General&#45;purpose solvers.">
<polygon fill="white" stroke="#666666" points="380,-17 327,-17 327,0 380,0 380,-17"/>
<text text-anchor="middle" x="353.5" y="-6.6" font-family="Helvetica,sans-Serif" font-size="8.00">Common</text>
</a>
</g>
</g>
<!-- Node1&#45;&gt;Node3 -->
<g id="edge2" class="edge">
<title>Node1&#45;&gt;Node3</title>
<path fill="none" stroke="orange" stroke-dasharray="5,2" d="M210.21,-8.5C247.73,-8.5 297.29,-8.5 326.92,-8.5"/>
<text text-anchor="middle" x="268.5" y="-11.1" font-family="Helvetica,sans-Serif" font-size="8.00">chdr::solvers::gstar</text>
</g>
</g>
</svg>
