<?xml version="1.0" encoding="UTF-8" standalone="no"?>
<!DOCTYPE svg PUBLIC "-//W3C//DTD SVG 1.1//EN"
 "http://www.w3.org/Graphics/SVG/1.1/DTD/svg11.dtd">
<!-- Generated by graphviz version 2.43.0 (0)
 -->
<!-- Title: astar.hpp Pages: 1 -->
<svg width="869pt" height="237pt"
 viewBox="0.00 0.00 869.28 237.00" xmlns="http://www.w3.org/2000/svg" xmlns:xlink="http://www.w3.org/1999/xlink">
<g id="graph0" class="graph" transform="scale(1 1) rotate(0) translate(4 233)">
<title>astar.hpp</title>
<!-- Node1 -->
<g id="Node000001" class="node">
<title>Node1</title>
<g id="a_Node000001"><a xlink:title=" ">
<polygon fill="#999999" stroke="#666666" points="380.78,-229 330.78,-229 330.78,-212 380.78,-212 380.78,-229"/>
<text text-anchor="middle" x="355.78" y="-218.6" font-family="Helvetica,sans-Serif" font-size="8.00">astar.hpp</text>
</a>
</g>
</g>
<!-- Node2 -->
<g id="Node000002" class="node">
<title>Node2</title>
<g id="a_Node000002"><a xlink:title=" ">
<polygon fill="#e0e0e0" stroke="#999999" points="340.78,-17 298.78,-17 298.78,0 340.78,0 340.78,-17"/>
<text text-anchor="middle" x="319.78" y="-6.6" font-family="Helvetica,sans-Serif" font-size="8.00">cstddef</text>
</a>
</g>
</g>
<!-- Node1&#45;&gt;Node2 -->
<g id="edge1_Node000001_Node000002" class="edge">
<title>Node1&#45;&gt;Node2</title>
<g id="a_edge1_Node000001_Node000002"><a xlink:title=" ">
<path fill="none" stroke="#63b8ff" d="M330.45,-218.06C284.82,-214.82 186.33,-204.81 108.78,-176 65.62,-159.97 48.44,-159.03 19.78,-123 4.37,-103.64 6.6,-94.44 2.78,-70 1.61,-62.54 -2.19,-58.69 2.78,-53 39.59,-10.79 215.09,-8.09 287.95,-8.84"/>
<polygon fill="#63b8ff" stroke="#63b8ff" points="288.28,-12.35 298.33,-8.98 288.38,-5.35 288.28,-12.35"/>
</a>
</g>
</g>
<!-- Node3 -->
<g id="Node000003" class="node">
<title>Node3</title>
<g id="a_Node000003"><a xlink:title=" ">
<polygon fill="#e0e0e0" stroke="#999999" points="77.28,-70 24.28,-70 24.28,-53 77.28,-53 77.28,-70"/>
<text text-anchor="middle" x="50.78" y="-59.6" font-family="Helvetica,sans-Serif" font-size="8.00">type_traits</text>
</a>
</g>
</g>
<!-- Node1&#45;&gt;Node3 -->
<g id="edge2_Node000001_Node000003" class="edge">
<title>Node1&#45;&gt;Node3</title>
<g id="a_edge2_Node000001_Node000003"><a xlink:title=" ">
<path fill="none" stroke="#63b8ff" d="M330.61,-217.96C289.87,-214.69 207.69,-204.79 144.78,-176 109.61,-159.91 99.29,-153.69 75.78,-123 65.94,-110.16 59.31,-92.9 55.37,-80.1"/>
<polygon fill="#63b8ff" stroke="#63b8ff" points="58.66,-78.9 52.58,-70.23 51.93,-80.8 58.66,-78.9"/>
</a>
</g>
</g>
<!-- Node4 -->
<g id="Node000004" class="node">
<title>Node4</title>
<g id="a_Node000004"><a xlink:title=" ">
<polygon fill="#e0e0e0" stroke="#999999" points="497.78,-123 459.78,-123 459.78,-106 497.78,-106 497.78,-123"/>
<text text-anchor="middle" x="478.78" y="-112.6" font-family="Helvetica,sans-Serif" font-size="8.00">vector</text>
</a>
</g>
</g>
<!-- Node1&#45;&gt;Node4 -->
<g id="edge3_Node000001_Node000004" class="edge">
<title>Node1&#45;&gt;Node4</title>
<g id="a_edge3_Node000001_Node000004"><a xlink:title=" ">
<path fill="none" stroke="#63b8ff" d="M376.35,-211.9C394.06,-204.63 419.55,-192.36 437.78,-176 451.77,-163.44 463.3,-145.14 470.53,-131.96"/>
<polygon fill="#63b8ff" stroke="#63b8ff" points="473.66,-133.54 475.19,-123.06 467.46,-130.3 473.66,-133.54"/>
</a>
</g>
</g>
<!-- Node5 -->
<g id="Node000005" class="node">
<title>Node5</title>
<g id="a_Node000005"><a xlink:href="../../d8/d62/existence__set_8hpp.html" target="_top" xlink:title=" ">
<polygon fill="white" stroke="#666666" points="429.28,-176 282.28,-176 282.28,-159 429.28,-159 429.28,-176"/>
<text text-anchor="middle" x="355.78" y="-165.6" font-family="Helvetica,sans-Serif" font-size="8.00">../types/containers/existence_set.hpp</text>
</a>
</g>
</g>
<!-- Node1&#45;&gt;Node5 -->
<g id="edge4_Node000001_Node000005" class="edge">
<title>Node1&#45;&gt;Node5</title>
<g id="a_edge4_Node000001_Node000005"><a xlink:title=" ">
<path fill="none" stroke="#63b8ff" d="M355.78,-211.97C355.78,-205.19 355.78,-194.97 355.78,-186.13"/>
<polygon fill="#63b8ff" stroke="#63b8ff" points="359.28,-186.06 355.78,-176.06 352.28,-186.06 359.28,-186.06"/>
</a>
</g>
</g>
<!-- Node9 -->
<g id="Node000009" class="node">
<title>Node9</title>
<g id="a_Node000009"><a xlink:href="../../df/d93/utils_8hpp.html" target="_top" xlink:title=" ">
<polygon fill="white" stroke="#666666" points="289.28,-123 214.28,-123 214.28,-106 289.28,-106 289.28,-123"/>
<text text-anchor="middle" x="251.78" y="-112.6" font-family="Helvetica,sans-Serif" font-size="8.00">../../utils/utils.hpp</text>
</a>
</g>
</g>
<!-- Node1&#45;&gt;Node9 -->
<g id="edge28_Node000001_Node000009" class="edge">
<title>Node1&#45;&gt;Node9</title>
<g id="a_edge28_Node000001_Node000009"><a xlink:title=" ">
<path fill="none" stroke="#63b8ff" d="M330.8,-212C312.42,-205.29 288.06,-193.75 272.78,-176 262.34,-163.88 257,-146.28 254.32,-133.18"/>
<polygon fill="#63b8ff" stroke="#63b8ff" points="257.73,-132.35 252.6,-123.08 250.83,-133.53 257.73,-132.35"/>
</a>
</g>
</g>
<!-- Node13 -->
<g id="Node000013" class="node">
<title>Node13</title>
<g id="a_Node000013"><a xlink:href="../../d7/d65/intrinsics_8hpp.html" target="_top" xlink:title=" ">
<polygon fill="#fff0f0" stroke="red" points="541.28,-70 456.28,-70 456.28,-53 541.28,-53 541.28,-70"/>
<text text-anchor="middle" x="498.78" y="-59.6" font-family="Helvetica,sans-Serif" font-size="8.00">../utils/intrinsics.hpp</text>
</a>
</g>
</g>
<!-- Node1&#45;&gt;Node13 -->
<g id="edge39_Node000001_Node000013" class="edge">
<title>Node1&#45;&gt;Node13</title>
<g id="a_edge39_Node000001_Node000013"><a xlink:title=" ">
<path fill="none" stroke="#63b8ff" d="M381.18,-218.42C441.51,-215.42 591.3,-205.13 630.78,-176 657.48,-156.29 676.89,-132.4 656.78,-106 643.9,-89.1 592.28,-77.11 551.49,-70.06"/>
<polygon fill="#63b8ff" stroke="#63b8ff" points="551.83,-66.57 541.39,-68.37 550.68,-73.47 551.83,-66.57"/>
</a>
</g>
</g>
<!-- Node16 -->
<g id="Node000016" class="node">
<title>Node16</title>
<g id="a_Node000016"><a xlink:href="../../da/d45/heap_8hpp.html" target="_top" xlink:title=" ">
<polygon fill="white" stroke="#666666" points="622.28,-176 505.28,-176 505.28,-159 622.28,-159 622.28,-176"/>
<text text-anchor="middle" x="563.78" y="-165.6" font-family="Helvetica,sans-Serif" font-size="8.00">../types/containers/heap.hpp</text>
</a>
</g>
</g>
<!-- Node1&#45;&gt;Node16 -->
<g id="edge22_Node000001_Node000016" class="edge">
<title>Node1&#45;&gt;Node16</title>
<g id="a_edge22_Node000001_Node000016"><a xlink:title=" ">
<path fill="none" stroke="#63b8ff" d="M380.86,-213.35C416.1,-204.71 480.66,-188.88 522.89,-178.53"/>
<polygon fill="#63b8ff" stroke="#63b8ff" points="523.97,-181.86 532.85,-176.08 522.3,-175.07 523.97,-181.86"/>
</a>
</g>
</g>
<!-- Node17 -->
<g id="Node000017" class="node">
<title>Node17</title>
<g id="a_Node000017"><a xlink:href="../../d2/d1c/solver_8hpp.html" target="_top" xlink:title=" ">
<polygon fill="white" stroke="#666666" points="225.78,-176 153.78,-176 153.78,-159 225.78,-159 225.78,-176"/>
<text text-anchor="middle" x="189.78" y="-165.6" font-family="Helvetica,sans-Serif" font-size="8.00">base/solver.hpp</text>
</a>
</g>
</g>
<!-- Node1&#45;&gt;Node17 -->
<g id="edge29_Node000001_Node000017" class="edge">
<title>Node1&#45;&gt;Node17</title>
<g id="a_edge29_Node000001_Node000017"><a xlink:title=" ">
<path fill="none" stroke="#63b8ff" d="M331.28,-211.97C302.96,-203.27 256.15,-188.89 224.18,-179.07"/>
<polygon fill="#63b8ff" stroke="#63b8ff" points="224.96,-175.65 214.37,-176.06 222.9,-182.34 224.96,-175.65"/>
</a>
</g>
</g>
<!-- Node18 -->
<g id="Node000018" class="node">
<title>Node18</title>
<g id="a_Node000018"><a xlink:href="../../d0/def/unmanaged__node_8hpp.html" target="_top" xlink:title=" ">
<polygon fill="white" stroke="#666666" points="847.28,-176 730.28,-176 730.28,-159 847.28,-159 847.28,-176"/>
<text text-anchor="middle" x="788.78" y="-165.6" font-family="Helvetica,sans-Serif" font-size="8.00">base/unmanaged_node.hpp</text>
</a>
</g>
</g>
<!-- Node1&#45;&gt;Node18 -->
<g id="edge36_Node000001_Node000018" class="edge">
<title>Node1&#45;&gt;Node18</title>
<g id="a_edge36_Node000001_Node000018"><a xlink:title=" ">
<path fill="none" stroke="#63b8ff" d="M380.93,-216.54C446.04,-208.87 621.86,-188.16 720.06,-176.59"/>
<polygon fill="#63b8ff" stroke="#63b8ff" points="720.67,-180.05 730.19,-175.4 719.85,-173.09 720.67,-180.05"/>
</a>
</g>
</g>
<!-- Node5&#45;&gt;Node2 -->
<g id="edge5_Node000005_Node000002" class="edge">
<title>Node5&#45;&gt;Node2</title>
<g id="a_edge5_Node000005_Node000002"><a xlink:title=" ">
<path fill="none" stroke="#63b8ff" d="M364.66,-158.74C385.13,-139.87 432.15,-90.45 408.78,-53 396.15,-32.78 371.11,-21.71 350.8,-15.8"/>
<polygon fill="#63b8ff" stroke="#63b8ff" points="351.55,-12.38 340.99,-13.23 349.78,-19.15 351.55,-12.38"/>
</a>
</g>
</g>
<!-- Node5&#45;&gt;Node3 -->
<g id="edge9_Node000005_Node000003" class="edge">
<title>Node5&#45;&gt;Node3</title>
<g id="a_edge9_Node000005_Node000003"><a xlink:title=" ">
<path fill="none" stroke="#63b8ff" d="M311.07,-158.94C273.28,-151.84 218.06,-139.79 171.78,-123 135.49,-109.84 95.92,-88.64 72.24,-75.15"/>
<polygon fill="#63b8ff" stroke="#63b8ff" points="73.82,-72.02 63.41,-70.05 70.32,-78.08 73.82,-72.02"/>
</a>
</g>
</g>
<!-- Node5&#45;&gt;Node4 -->
<g id="edge10_Node000005_Node000004" class="edge">
<title>Node5&#45;&gt;Node4</title>
<g id="a_edge10_Node000005_Node000004"><a xlink:title=" ">
<path fill="none" stroke="#63b8ff" d="M373.92,-158.97C394.27,-150.54 427.5,-136.76 451.1,-126.98"/>
<polygon fill="#63b8ff" stroke="#63b8ff" points="452.65,-130.12 460.55,-123.06 449.97,-123.65 452.65,-130.12"/>
</a>
</g>
</g>
<!-- Node6 -->
<g id="Node000006" class="node">
<title>Node6</title>
<g id="a_Node000006"><a xlink:title=" ">
<polygon fill="#e0e0e0" stroke="#999999" points="399.78,-70 349.78,-70 349.78,-53 399.78,-53 399.78,-70"/>
<text text-anchor="middle" x="374.78" y="-59.6" font-family="Helvetica,sans-Serif" font-size="8.00">functional</text>
</a>
</g>
</g>
<!-- Node5&#45;&gt;Node6 -->
<g id="edge6_Node000005_Node000006" class="edge">
<title>Node5&#45;&gt;Node6</title>
<g id="a_edge6_Node000005_Node000006"><a xlink:title=" ">
<path fill="none" stroke="#63b8ff" d="M351.37,-158.92C345.23,-147.33 335.52,-124.6 341.78,-106 345.33,-95.44 352.57,-85.41 359.37,-77.65"/>
<polygon fill="#63b8ff" stroke="#63b8ff" points="362.07,-79.88 366.37,-70.2 356.97,-75.09 362.07,-79.88"/>
</a>
</g>
</g>
<!-- Node7 -->
<g id="Node000007" class="node">
<title>Node7</title>
<g id="a_Node000007"><a xlink:title=" ">
<polygon fill="#e0e0e0" stroke="#999999" points="129.78,-70 95.78,-70 95.78,-53 129.78,-53 129.78,-70"/>
<text text-anchor="middle" x="112.78" y="-59.6" font-family="Helvetica,sans-Serif" font-size="8.00">limits</text>
</a>
</g>
</g>
<!-- Node5&#45;&gt;Node7 -->
<g id="edge7_Node000005_Node000007" class="edge">
<title>Node5&#45;&gt;Node7</title>
<g id="a_edge7_Node000005_Node000007"><a xlink:title=" ">
<path fill="none" stroke="#63b8ff" d="M318.04,-158.96C286.8,-151.94 241.71,-139.99 204.78,-123 177.12,-110.28 148.27,-89.97 130.42,-76.44"/>
<polygon fill="#63b8ff" stroke="#63b8ff" points="132.2,-73.4 122.14,-70.06 127.92,-78.94 132.2,-73.4"/>
</a>
</g>
</g>
<!-- Node8 -->
<g id="Node000008" class="node">
<title>Node8</title>
<g id="a_Node000008"><a xlink:title=" ">
<polygon fill="#e0e0e0" stroke="#999999" points="597.78,-123 515.78,-123 515.78,-106 597.78,-106 597.78,-123"/>
<text text-anchor="middle" x="556.78" y="-112.6" font-family="Helvetica,sans-Serif" font-size="8.00">memory_resource</text>
</a>
</g>
</g>
<!-- Node5&#45;&gt;Node8 -->
<g id="edge8_Node000005_Node000008" class="edge">
<title>Node5&#45;&gt;Node8</title>
<g id="a_edge8_Node000005_Node000008"><a xlink:title=" ">
<path fill="none" stroke="#63b8ff" d="M385.43,-158.97C420.32,-150.12 478.37,-135.39 517.1,-125.57"/>
<polygon fill="#63b8ff" stroke="#63b8ff" points="518.16,-128.91 527,-123.06 516.44,-122.12 518.16,-128.91"/>
</a>
</g>
</g>
<!-- Node5&#45;&gt;Node9 -->
<g id="edge11_Node000005_Node000009" class="edge">
<title>Node5&#45;&gt;Node9</title>
<g id="a_edge11_Node000005_Node000009"><a xlink:title=" ">
<path fill="none" stroke="#63b8ff" d="M340.43,-158.97C323.53,-150.69 296.13,-137.25 276.25,-127.5"/>
<polygon fill="#63b8ff" stroke="#63b8ff" points="277.7,-124.32 267.18,-123.06 274.62,-130.6 277.7,-124.32"/>
</a>
</g>
</g>
<!-- Node5&#45;&gt;Node13 -->
<g id="edge21_Node000005_Node000013" class="edge">
<title>Node5&#45;&gt;Node13</title>
<g id="a_edge21_Node000005_Node000013"><a xlink:title=" ">
<path fill="none" stroke="#63b8ff" d="M366.52,-158.68C390.66,-141.13 449.41,-98.4 479.83,-76.28"/>
<polygon fill="#63b8ff" stroke="#63b8ff" points="482.26,-78.84 488.29,-70.12 478.14,-73.18 482.26,-78.84"/>
</a>
</g>
</g>
<!-- Node9&#45;&gt;Node2 -->
<g id="edge14_Node000009_Node000002" class="edge">
<title>Node9&#45;&gt;Node2</title>
<g id="a_edge14_Node000009_Node000002"><a xlink:title=" ">
<path fill="none" stroke="#63b8ff" d="M245.16,-105.95C235.53,-94.02 219.94,-70.35 230.78,-53 243.4,-32.78 268.44,-21.71 288.75,-15.8"/>
<polygon fill="#63b8ff" stroke="#63b8ff" points="289.77,-19.15 298.56,-13.23 288,-12.38 289.77,-19.15"/>
</a>
</g>
</g>
<!-- Node9&#45;&gt;Node3 -->
<g id="edge18_Node000009_Node000003" class="edge">
<title>Node9&#45;&gt;Node3</title>
<g id="a_edge18_Node000009_Node000003"><a xlink:title=" ">
<path fill="none" stroke="#63b8ff" d="M222.12,-105.97C186.23,-96.87 125.82,-81.54 87.16,-71.73"/>
<polygon fill="#63b8ff" stroke="#63b8ff" points="87.9,-68.31 77.34,-69.24 86.18,-75.09 87.9,-68.31"/>
</a>
</g>
</g>
<!-- Node9&#45;&gt;Node6 -->
<g id="edge15_Node000009_Node000006" class="edge">
<title>Node9&#45;&gt;Node6</title>
<g id="a_edge15_Node000009_Node000006"><a xlink:title=" ">
<path fill="none" stroke="#63b8ff" d="M269.92,-105.97C290.27,-97.54 323.5,-83.76 347.1,-73.98"/>
<polygon fill="#63b8ff" stroke="#63b8ff" points="348.65,-77.12 356.55,-70.06 345.97,-70.65 348.65,-77.12"/>
</a>
</g>
</g>
<!-- Node9&#45;&gt;Node7 -->
<g id="edge16_Node000009_Node000007" class="edge">
<title>Node9&#45;&gt;Node7</title>
<g id="a_edge16_Node000009_Node000007"><a xlink:title=" ">
<path fill="none" stroke="#63b8ff" d="M231.27,-105.97C206.89,-97.03 166.16,-82.09 139.38,-72.26"/>
<polygon fill="#63b8ff" stroke="#63b8ff" points="140.46,-68.93 129.86,-68.77 138.05,-75.5 140.46,-68.93"/>
</a>
</g>
</g>
<!-- Node10 -->
<g id="Node000010" class="node">
<title>Node10</title>
<g id="a_Node000010"><a xlink:title=" ">
<polygon fill="#e0e0e0" stroke="#999999" points="275.28,-70 240.28,-70 240.28,-53 275.28,-53 275.28,-70"/>
<text text-anchor="middle" x="257.78" y="-59.6" font-family="Helvetica,sans-Serif" font-size="8.00">array</text>
</a>
</g>
</g>
<!-- Node9&#45;&gt;Node10 -->
<g id="edge12_Node000009_Node000010" class="edge">
<title>Node9&#45;&gt;Node10</title>
<g id="a_edge12_Node000009_Node000010"><a xlink:title=" ">
<path fill="none" stroke="#63b8ff" d="M252.66,-105.97C253.46,-99.19 254.66,-88.97 255.7,-80.13"/>
<polygon fill="#63b8ff" stroke="#63b8ff" points="259.19,-80.4 256.89,-70.06 252.24,-79.58 259.19,-80.4"/>
</a>
</g>
</g>
<!-- Node11 -->
<g id="Node000011" class="node">
<title>Node11</title>
<g id="a_Node000011"><a xlink:title=" ">
<polygon fill="#e0e0e0" stroke="#999999" points="331.78,-70 293.78,-70 293.78,-53 331.78,-53 331.78,-70"/>
<text text-anchor="middle" x="312.78" y="-59.6" font-family="Helvetica,sans-Serif" font-size="8.00">cmath</text>
</a>
</g>
</g>
<!-- Node9&#45;&gt;Node11 -->
<g id="edge13_Node000009_Node000011" class="edge">
<title>Node9&#45;&gt;Node11</title>
<g id="a_edge13_Node000009_Node000011"><a xlink:title=" ">
<path fill="none" stroke="#63b8ff" d="M260.78,-105.97C269.97,-98.29 284.46,-86.18 295.81,-76.69"/>
<polygon fill="#63b8ff" stroke="#63b8ff" points="298.31,-79.16 303.74,-70.06 293.82,-73.79 298.31,-79.16"/>
</a>
</g>
</g>
<!-- Node12 -->
<g id="Node000012" class="node">
<title>Node12</title>
<g id="a_Node000012"><a xlink:title=" ">
<polygon fill="#e0e0e0" stroke="#999999" points="183.78,-70 147.78,-70 147.78,-53 183.78,-53 183.78,-70"/>
<text text-anchor="middle" x="165.78" y="-59.6" font-family="Helvetica,sans-Serif" font-size="8.00">string</text>
</a>
</g>
</g>
<!-- Node9&#45;&gt;Node12 -->
<g id="edge17_Node000009_Node000012" class="edge">
<title>Node9&#45;&gt;Node12</title>
<g id="a_edge17_Node000009_Node000012"><a xlink:title=" ">
<path fill="none" stroke="#63b8ff" d="M239.09,-105.97C225.49,-97.91 203.68,-84.98 187.38,-75.31"/>
<polygon fill="#63b8ff" stroke="#63b8ff" points="188.9,-72.15 178.52,-70.06 185.33,-78.17 188.9,-72.15"/>
</a>
</g>
</g>
<!-- Node9&#45;&gt;Node13 -->
<g id="edge19_Node000009_Node000013" class="edge">
<title>Node9&#45;&gt;Node13</title>
<g id="a_edge19_Node000009_Node000013"><a xlink:title=" ">
<path fill="none" stroke="#63b8ff" d="M288.22,-105.97C331.73,-96.99 404.56,-81.95 452.14,-72.13"/>
<polygon fill="#63b8ff" stroke="#63b8ff" points="453.09,-75.51 462.18,-70.06 451.68,-68.65 453.09,-75.51"/>
</a>
</g>
</g>
<!-- Node13&#45;&gt;Node2 -->
<g id="edge20_Node000013_Node000002" class="edge">
<title>Node13&#45;&gt;Node2</title>
<g id="a_edge20_Node000013_Node000002"><a xlink:title=" ">
<path fill="none" stroke="#63b8ff" d="M472.36,-52.97C440.02,-43.76 385.31,-28.17 350.94,-18.38"/>
<polygon fill="#63b8ff" stroke="#63b8ff" points="351.55,-14.91 340.97,-15.54 349.63,-21.65 351.55,-14.91"/>
</a>
</g>
</g>
<!-- Node16&#45;&gt;Node2 -->
<g id="edge23_Node000016_Node000002" class="edge">
<title>Node16&#45;&gt;Node2</title>
<g id="a_edge23_Node000016_Node000002"><a xlink:title=" ">
<path fill="none" stroke="#63b8ff" d="M597.93,-158.99C630.84,-150.02 673.38,-132.76 656.78,-106 623.98,-53.16 428.74,-23.18 351.35,-13.24"/>
<polygon fill="#63b8ff" stroke="#63b8ff" points="351.6,-9.75 341.24,-11.97 350.72,-16.69 351.6,-9.75"/>
</a>
</g>
</g>
<!-- Node16&#45;&gt;Node4 -->
<g id="edge25_Node000016_Node000004" class="edge">
<title>Node16&#45;&gt;Node4</title>
<g id="a_edge25_Node000016_Node000004"><a xlink:title=" ">
<path fill="none" stroke="#63b8ff" d="M551.23,-158.97C537.8,-150.91 516.24,-137.98 500.12,-128.31"/>
<polygon fill="#63b8ff" stroke="#63b8ff" points="501.74,-125.2 491.37,-123.06 498.14,-131.2 501.74,-125.2"/>
</a>
</g>
</g>
<!-- Node16&#45;&gt;Node6 -->
<g id="edge24_Node000016_Node000006" class="edge">
<title>Node16&#45;&gt;Node6</title>
<g id="a_edge24_Node000016_Node000006"><a xlink:title=" ">
<path fill="none" stroke="#63b8ff" d="M575.94,-158.97C593.39,-147.26 621.84,-124.15 606.78,-106 594.31,-90.98 471.95,-74.23 410.14,-66.64"/>
<polygon fill="#63b8ff" stroke="#63b8ff" points="410.4,-63.14 400.05,-65.42 409.56,-70.09 410.4,-63.14"/>
</a>
</g>
</g>
<!-- Node16&#45;&gt;Node8 -->
<g id="edge26_Node000016_Node000008" class="edge">
<title>Node16&#45;&gt;Node8</title>
<g id="a_edge26_Node000016_Node000008"><a xlink:title=" ">
<path fill="none" stroke="#63b8ff" d="M562.74,-158.97C561.81,-152.19 560.41,-141.97 559.2,-133.13"/>
<polygon fill="#63b8ff" stroke="#63b8ff" points="562.64,-132.49 557.81,-123.06 555.7,-133.44 562.64,-132.49"/>
</a>
</g>
</g>
<!-- Node16&#45;&gt;Node13 -->
<g id="edge27_Node000016_Node000013" class="edge">
<title>Node16&#45;&gt;Node13</title>
<g id="a_edge27_Node000016_Node000013"><a xlink:title=" ">
<path fill="none" stroke="#63b8ff" d="M588.02,-158.95C616.3,-148.85 657.1,-129.48 639.78,-106 619.68,-78.78 582.8,-68.07 551.79,-64.07"/>
<polygon fill="#63b8ff" stroke="#63b8ff" points="551.85,-60.56 541.53,-62.96 551.1,-67.52 551.85,-60.56"/>
</a>
</g>
</g>
<!-- Node17&#45;&gt;Node2 -->
<g id="edge30_Node000017_Node000002" class="edge">
<title>Node17&#45;&gt;Node2</title>
<g id="a_edge30_Node000017_Node000002"><a xlink:title=" ">
<path fill="none" stroke="#63b8ff" d="M155.37,-158.97C92.34,-143.69 -31.14,-105.93 14.78,-53 50.03,-12.36 218.22,-8.73 288.65,-9.04"/>
<polygon fill="#63b8ff" stroke="#63b8ff" points="288.67,-12.54 298.69,-9.11 288.72,-5.54 288.67,-12.54"/>
</a>
</g>
</g>
<!-- Node17&#45;&gt;Node3 -->
<g id="edge32_Node000017_Node000003" class="edge">
<title>Node17&#45;&gt;Node3</title>
<g id="a_edge32_Node000017_Node000003"><a xlink:title=" ">
<path fill="none" stroke="#63b8ff" d="M165.14,-158.91C145,-151.86 116.57,-139.9 95.78,-123 80.72,-110.76 68.01,-92.42 59.98,-79.14"/>
<polygon fill="#63b8ff" stroke="#63b8ff" points="62.82,-77.06 54.79,-70.15 56.76,-80.56 62.82,-77.06"/>
</a>
</g>
</g>
<!-- Node17&#45;&gt;Node4 -->
<g id="edge33_Node000017_Node000004" class="edge">
<title>Node17&#45;&gt;Node4</title>
<g id="a_edge33_Node000017_Node000004"><a xlink:title=" ">
<path fill="none" stroke="#63b8ff" d="M225.79,-160.14C283.69,-149.93 396.34,-130.05 449.58,-120.65"/>
<polygon fill="#63b8ff" stroke="#63b8ff" points="450.45,-124.05 459.69,-118.87 449.24,-117.16 450.45,-124.05"/>
</a>
</g>
</g>
<!-- Node17&#45;&gt;Node7 -->
<g id="edge31_Node000017_Node000007" class="edge">
<title>Node17&#45;&gt;Node7</title>
<g id="a_edge31_Node000017_Node000007"><a xlink:title=" ">
<path fill="none" stroke="#63b8ff" d="M183.99,-158.68C171.38,-141.66 141.25,-100.95 124.5,-78.34"/>
<polygon fill="#63b8ff" stroke="#63b8ff" points="127.18,-76.08 118.42,-70.12 121.56,-80.24 127.18,-76.08"/>
</a>
</g>
</g>
<!-- Node17&#45;&gt;Node9 -->
<g id="edge34_Node000017_Node000009" class="edge">
<title>Node17&#45;&gt;Node9</title>
<g id="a_edge34_Node000017_Node000009"><a xlink:title=" ">
<path fill="none" stroke="#63b8ff" d="M198.92,-158.97C208.26,-151.29 222.99,-139.18 234.53,-129.69"/>
<polygon fill="#63b8ff" stroke="#63b8ff" points="237.09,-132.11 242.59,-123.06 232.64,-126.71 237.09,-132.11"/>
</a>
</g>
</g>
<!-- Node17&#45;&gt;Node13 -->
<g id="edge35_Node000017_Node000013" class="edge">
<title>Node17&#45;&gt;Node13</title>
<g id="a_edge35_Node000017_Node000013"><a xlink:title=" ">
<path fill="none" stroke="#63b8ff" d="M212.25,-158.94C266.32,-140.74 403.83,-94.46 466.62,-73.32"/>
<polygon fill="#63b8ff" stroke="#63b8ff" points="468.03,-76.54 476.39,-70.03 465.79,-69.91 468.03,-76.54"/>
</a>
</g>
</g>
<!-- Node18&#45;&gt;Node13 -->
<g id="edge38_Node000018_Node000013" class="edge">
<title>Node18&#45;&gt;Node13</title>
<g id="a_edge38_Node000018_Node000013"><a xlink:title=" ">
<path fill="none" stroke="#63b8ff" d="M781.97,-158.78C769.98,-145.7 743.71,-119.32 715.78,-106 663.33,-80.99 597.12,-70.35 551.72,-65.83"/>
<polygon fill="#63b8ff" stroke="#63b8ff" points="551.78,-62.32 541.5,-64.88 551.13,-69.29 551.78,-62.32"/>
</a>
</g>
</g>
<!-- Node19 -->
<g id="Node000019" class="node">
<title>Node19</title>
<g id="a_Node000019"><a xlink:href="../../dc/d3c/bnode_8hpp.html" target="_top" xlink:title=" ">
<polygon fill="white" stroke="#666666" points="861.28,-123 806.28,-123 806.28,-106 861.28,-106 861.28,-123"/>
<text text-anchor="middle" x="833.78" y="-112.6" font-family="Helvetica,sans-Serif" font-size="8.00">bnode.hpp</text>
</a>
</g>
</g>
<!-- Node18&#45;&gt;Node19 -->
<g id="edge37_Node000018_Node000019" class="edge">
<title>Node18&#45;&gt;Node19</title>
<g id="a_edge37_Node000018_Node000019"><a xlink:title=" ">
<path fill="none" stroke="#63b8ff" d="M795.41,-158.97C801.93,-151.59 812.05,-140.12 820.26,-130.81"/>
<polygon fill="#63b8ff" stroke="#63b8ff" points="823.12,-132.87 827.11,-123.06 817.87,-128.24 823.12,-132.87"/>
</a>
</g>
</g>
</g>
</svg>
