<?xml version="1.0" encoding="UTF-8" standalone="no"?>
<!DOCTYPE svg PUBLIC "-//W3C//DTD SVG 1.1//EN"
 "http://www.w3.org/Graphics/SVG/1.1/DTD/svg11.dtd">
<!-- Generated by graphviz version 2.43.0 (0)
 -->
<!-- Title: astar.hpp Pages: 1 -->
<svg width="853pt" height="290pt"
 viewBox="0.00 0.00 853.00 290.00" xmlns="http://www.w3.org/2000/svg" xmlns:xlink="http://www.w3.org/1999/xlink">
<g id="graph0" class="graph" transform="scale(1 1) rotate(0) translate(4 286)">
<title>astar.hpp</title>
<!-- Node1 -->
<g id="Node000001" class="node">
<title>Node1</title>
<g id="a_Node000001"><a xlink:title=" ">
<polygon fill="#999999" stroke="#666666" points="384,-282 334,-282 334,-265 384,-265 384,-282"/>
<text text-anchor="middle" x="359" y="-271.6" font-family="Helvetica,sans-Serif" font-size="8.00">astar.hpp</text>
</a>
</g>
</g>
<!-- Node2 -->
<g id="Node000002" class="node">
<title>Node2</title>
<g id="a_Node000002"><a xlink:title=" ">
<polygon fill="#e0e0e0" stroke="#999999" points="420,-17 378,-17 378,0 420,0 420,-17"/>
<text text-anchor="middle" x="399" y="-6.6" font-family="Helvetica,sans-Serif" font-size="8.00">cstddef</text>
</a>
</g>
</g>
<!-- Node1&#45;&gt;Node2 -->
<g id="edge1_Node000001_Node000002" class="edge">
<title>Node1&#45;&gt;Node2</title>
<g id="a_edge1_Node000001_Node000002"><a xlink:title=" ">
<path fill="none" stroke="#63b8ff" d="M333.76,-270.67C252.04,-264.08 0,-238.09 0,-168.5 0,-168.5 0,-168.5 0,-113.5 0,-80.25 15.35,-69.86 44,-53 98.45,-20.95 290.64,-12.37 367.19,-10.19"/>
<polygon fill="#63b8ff" stroke="#63b8ff" points="367.72,-13.68 377.62,-9.92 367.53,-6.68 367.72,-13.68"/>
</a>
</g>
</g>
<!-- Node3 -->
<g id="Node000003" class="node">
<title>Node3</title>
<g id="a_Node000003"><a xlink:title=" ">
<polygon fill="#e0e0e0" stroke="#999999" points="671,-123 633,-123 633,-106 671,-106 671,-123"/>
<text text-anchor="middle" x="652" y="-112.6" font-family="Helvetica,sans-Serif" font-size="8.00">vector</text>
</a>
</g>
</g>
<!-- Node1&#45;&gt;Node3 -->
<g id="edge2_Node000001_Node000003" class="edge">
<title>Node1&#45;&gt;Node3</title>
<g id="a_edge2_Node000001_Node000003"><a xlink:title=" ">
<path fill="none" stroke="#63b8ff" d="M384.17,-272.79C425.55,-272.12 509.12,-265.86 567,-229 604.79,-204.93 631.81,-157.72 644.27,-132.44"/>
<polygon fill="#63b8ff" stroke="#63b8ff" points="647.59,-133.61 648.71,-123.07 641.26,-130.61 647.59,-133.61"/>
</a>
</g>
</g>
<!-- Node4 -->
<g id="Node000004" class="node">
<title>Node4</title>
<g id="a_Node000004"><a xlink:href="../../d8/d62/existence__set_8hpp.html" target="_top" xlink:title=" ">
<polygon fill="white" stroke="#666666" points="432.5,-176 285.5,-176 285.5,-159 432.5,-159 432.5,-176"/>
<text text-anchor="middle" x="359" y="-165.6" font-family="Helvetica,sans-Serif" font-size="8.00">../types/containers/existence_set.hpp</text>
</a>
</g>
</g>
<!-- Node1&#45;&gt;Node4 -->
<g id="edge3_Node000001_Node000004" class="edge">
<title>Node1&#45;&gt;Node4</title>
<g id="a_edge3_Node000001_Node000004"><a xlink:title=" ">
<path fill="none" stroke="#63b8ff" d="M359,-264.68C359,-248.11 359,-209.11 359,-186.18"/>
<polygon fill="#63b8ff" stroke="#63b8ff" points="362.5,-186.12 359,-176.12 355.5,-186.13 362.5,-186.12"/>
</a>
</g>
</g>
<!-- Node8 -->
<g id="Node000008" class="node">
<title>Node8</title>
<g id="a_Node000008"><a xlink:href="../../df/d93/utils_8hpp.html" target="_top" xlink:title=" ">
<polygon fill="white" stroke="#666666" points="256.5,-123 181.5,-123 181.5,-106 256.5,-106 256.5,-123"/>
<text text-anchor="middle" x="219" y="-112.6" font-family="Helvetica,sans-Serif" font-size="8.00">../../utils/utils.hpp</text>
</a>
</g>
</g>
<!-- Node1&#45;&gt;Node8 -->
<g id="edge24_Node000001_Node000008" class="edge">
<title>Node1&#45;&gt;Node8</title>
<g id="a_edge24_Node000001_Node000008"><a xlink:title=" ">
<path fill="none" stroke="#63b8ff" d="M333.99,-273.41C300.01,-273.12 240.27,-266.85 212,-229 190.89,-200.74 202.65,-156.65 211.69,-132.59"/>
<polygon fill="#63b8ff" stroke="#63b8ff" points="215.03,-133.65 215.52,-123.07 208.54,-131.04 215.03,-133.65"/>
</a>
</g>
</g>
<!-- Node15 -->
<g id="Node000015" class="node">
<title>Node15</title>
<g id="a_Node000015"><a xlink:href="../../da/d45/heap_8hpp_source.html" target="_top" xlink:title=" ">
<polygon fill="white" stroke="#666666" points="757.5,-176 640.5,-176 640.5,-159 757.5,-159 757.5,-176"/>
<text text-anchor="middle" x="699" y="-165.6" font-family="Helvetica,sans-Serif" font-size="8.00">../types/containers/heap.hpp</text>
</a>
</g>
</g>
<!-- Node1&#45;&gt;Node15 -->
<g id="edge18_Node000001_Node000015" class="edge">
<title>Node1&#45;&gt;Node15</title>
<g id="a_edge18_Node000001_Node000015"><a xlink:title=" ">
<path fill="none" stroke="#63b8ff" d="M384.18,-272.71C433.06,-272.22 543.27,-266.62 626,-229 649.55,-218.29 671.7,-197.93 685.29,-183.8"/>
<polygon fill="#63b8ff" stroke="#63b8ff" points="688,-186.03 692.25,-176.33 682.87,-181.26 688,-186.03"/>
</a>
</g>
</g>
<!-- Node18 -->
<g id="Node000018" class="node">
<title>Node18</title>
<g id="a_Node000018"><a xlink:href="../../d2/d1c/solver_8hpp.html" target="_top" xlink:title=" ">
<polygon fill="white" stroke="#666666" points="293,-229 221,-229 221,-212 293,-212 293,-229"/>
<text text-anchor="middle" x="257" y="-218.6" font-family="Helvetica,sans-Serif" font-size="8.00">base/solver.hpp</text>
</a>
</g>
</g>
<!-- Node1&#45;&gt;Node18 -->
<g id="edge25_Node000001_Node000018" class="edge">
<title>Node1&#45;&gt;Node18</title>
<g id="a_edge25_Node000001_Node000018"><a xlink:title=" ">
<path fill="none" stroke="#63b8ff" d="M343.95,-264.97C327.45,-256.73 300.74,-243.37 281.28,-233.64"/>
<polygon fill="#63b8ff" stroke="#63b8ff" points="282.62,-230.4 272.11,-229.06 279.49,-236.66 282.62,-230.4"/>
</a>
</g>
</g>
<!-- Node19 -->
<g id="Node000019" class="node">
<title>Node19</title>
<g id="a_Node000019"><a xlink:href="../../d0/def/unmanaged__node_8hpp.html" target="_top" xlink:title=" ">
<polygon fill="white" stroke="#666666" points="557.5,-229 440.5,-229 440.5,-212 557.5,-212 557.5,-229"/>
<text text-anchor="middle" x="499" y="-218.6" font-family="Helvetica,sans-Serif" font-size="8.00">base/unmanaged_node.hpp</text>
</a>
</g>
</g>
<!-- Node1&#45;&gt;Node19 -->
<g id="edge32_Node000001_Node000019" class="edge">
<title>Node1&#45;&gt;Node19</title>
<g id="a_edge32_Node000001_Node000019"><a xlink:title=" ">
<path fill="none" stroke="#63b8ff" d="M379.66,-264.97C403.13,-256.42 441.66,-242.39 468.57,-232.59"/>
<polygon fill="#63b8ff" stroke="#63b8ff" points="470.06,-235.77 478.26,-229.06 467.66,-229.19 470.06,-235.77"/>
</a>
</g>
</g>
<!-- Node4&#45;&gt;Node2 -->
<g id="edge4_Node000004_Node000002" class="edge">
<title>Node4&#45;&gt;Node2</title>
<g id="a_edge4_Node000004_Node000002"><a xlink:title=" ">
<path fill="none" stroke="#63b8ff" d="M377.78,-158.98C407.41,-145.95 464.03,-116.08 487,-70 500.6,-42.72 460.43,-25.53 429.95,-16.71"/>
<polygon fill="#63b8ff" stroke="#63b8ff" points="430.64,-13.28 420.08,-14.05 428.82,-20.03 430.64,-13.28"/>
</a>
</g>
</g>
<!-- Node4&#45;&gt;Node3 -->
<g id="edge8_Node000004_Node000003" class="edge">
<title>Node4&#45;&gt;Node3</title>
<g id="a_edge8_Node000004_Node000003"><a xlink:title=" ">
<path fill="none" stroke="#63b8ff" d="M414.88,-158.97C466.51,-151.64 545.52,-139.49 622.87,-123.05"/>
<polygon fill="#63b8ff" stroke="#63b8ff" points="623.74,-126.44 632.78,-120.92 622.27,-119.6 623.74,-126.44"/>
</a>
</g>
</g>
<!-- Node5 -->
<g id="Node000005" class="node">
<title>Node5</title>
<g id="a_Node000005"><a xlink:title=" ">
<polygon fill="#e0e0e0" stroke="#999999" points="389,-123 329,-123 329,-106 389,-106 389,-123"/>
<text text-anchor="middle" x="359" y="-112.6" font-family="Helvetica,sans-Serif" font-size="8.00">initializer_list</text>
</a>
</g>
</g>
<!-- Node4&#45;&gt;Node5 -->
<g id="edge5_Node000004_Node000005" class="edge">
<title>Node4&#45;&gt;Node5</title>
<g id="a_edge5_Node000004_Node000005"><a xlink:title=" ">
<path fill="none" stroke="#63b8ff" d="M359,-158.97C359,-152.19 359,-141.97 359,-133.13"/>
<polygon fill="#63b8ff" stroke="#63b8ff" points="362.5,-133.06 359,-123.06 355.5,-133.06 362.5,-133.06"/>
</a>
</g>
</g>
<!-- Node6 -->
<g id="Node000006" class="node">
<title>Node6</title>
<g id="a_Node000006"><a xlink:title=" ">
<polygon fill="#e0e0e0" stroke="#999999" points="615,-123 533,-123 533,-106 615,-106 615,-123"/>
<text text-anchor="middle" x="574" y="-112.6" font-family="Helvetica,sans-Serif" font-size="8.00">memory_resource</text>
</a>
</g>
</g>
<!-- Node4&#45;&gt;Node6 -->
<g id="edge6_Node000004_Node000006" class="edge">
<title>Node4&#45;&gt;Node6</title>
<g id="a_edge6_Node000004_Node000006"><a xlink:title=" ">
<path fill="none" stroke="#63b8ff" d="M390.72,-158.97C428.28,-150.07 490.93,-135.2 532.36,-125.38"/>
<polygon fill="#63b8ff" stroke="#63b8ff" points="533.22,-128.77 542.15,-123.06 531.61,-121.96 533.22,-128.77"/>
</a>
</g>
</g>
<!-- Node7 -->
<g id="Node000007" class="node">
<title>Node7</title>
<g id="a_Node000007"><a xlink:title=" ">
<polygon fill="#e0e0e0" stroke="#999999" points="119.5,-70 66.5,-70 66.5,-53 119.5,-53 119.5,-70"/>
<text text-anchor="middle" x="93" y="-59.6" font-family="Helvetica,sans-Serif" font-size="8.00">type_traits</text>
</a>
</g>
</g>
<!-- Node4&#45;&gt;Node7 -->
<g id="edge7_Node000004_Node000007" class="edge">
<title>Node4&#45;&gt;Node7</title>
<g id="a_edge7_Node000004_Node000007"><a xlink:title=" ">
<path fill="none" stroke="#63b8ff" d="M297.89,-158.99C260.26,-152.76 211.79,-141.78 172,-123 147.22,-111.3 122.82,-90.87 107.84,-77.02"/>
<polygon fill="#63b8ff" stroke="#63b8ff" points="110.21,-74.45 100.54,-70.1 105.39,-79.53 110.21,-74.45"/>
</a>
</g>
</g>
<!-- Node4&#45;&gt;Node8 -->
<g id="edge9_Node000004_Node000008" class="edge">
<title>Node4&#45;&gt;Node8</title>
<g id="a_edge9_Node000004_Node000008"><a xlink:title=" ">
<path fill="none" stroke="#63b8ff" d="M338.34,-158.97C314.87,-150.42 276.34,-136.39 249.43,-126.59"/>
<polygon fill="#63b8ff" stroke="#63b8ff" points="250.34,-123.19 239.74,-123.06 247.94,-129.77 250.34,-123.19"/>
</a>
</g>
</g>
<!-- Node8&#45;&gt;Node2 -->
<g id="edge12_Node000008_Node000002" class="edge">
<title>Node8&#45;&gt;Node2</title>
<g id="a_edge12_Node000008_Node000002"><a xlink:title=" ">
<path fill="none" stroke="#63b8ff" d="M255.99,-106C282.37,-99.44 317.84,-88.08 345,-70 362.71,-58.21 378.33,-39.26 388.15,-25.71"/>
<polygon fill="#63b8ff" stroke="#63b8ff" points="391.14,-27.55 393.99,-17.34 385.4,-23.54 391.14,-27.55"/>
</a>
</g>
</g>
<!-- Node8&#45;&gt;Node7 -->
<g id="edge15_Node000008_Node000007" class="edge">
<title>Node8&#45;&gt;Node7</title>
<g id="a_edge15_Node000008_Node000007"><a xlink:title=" ">
<path fill="none" stroke="#63b8ff" d="M200.41,-105.97C179.47,-97.5 145.22,-83.64 121.03,-73.85"/>
<polygon fill="#63b8ff" stroke="#63b8ff" points="122.25,-70.56 111.67,-70.06 119.62,-77.05 122.25,-70.56"/>
</a>
</g>
</g>
<!-- Node9 -->
<g id="Node000009" class="node">
<title>Node9</title>
<g id="a_Node000009"><a xlink:title=" ">
<polygon fill="#e0e0e0" stroke="#999999" points="335.5,-70 300.5,-70 300.5,-53 335.5,-53 335.5,-70"/>
<text text-anchor="middle" x="318" y="-59.6" font-family="Helvetica,sans-Serif" font-size="8.00">array</text>
</a>
</g>
</g>
<!-- Node8&#45;&gt;Node9 -->
<g id="edge10_Node000008_Node000009" class="edge">
<title>Node8&#45;&gt;Node9</title>
<g id="a_edge10_Node000008_Node000009"><a xlink:title=" ">
<path fill="none" stroke="#63b8ff" d="M233.61,-105.97C249.62,-97.73 275.54,-84.37 294.44,-74.64"/>
<polygon fill="#63b8ff" stroke="#63b8ff" points="296.05,-77.75 303.33,-70.06 292.84,-71.52 296.05,-77.75"/>
</a>
</g>
</g>
<!-- Node10 -->
<g id="Node000010" class="node">
<title>Node10</title>
<g id="a_Node000010"><a xlink:title=" ">
<polygon fill="#e0e0e0" stroke="#999999" points="176,-70 138,-70 138,-53 176,-53 176,-70"/>
<text text-anchor="middle" x="157" y="-59.6" font-family="Helvetica,sans-Serif" font-size="8.00">cmath</text>
</a>
</g>
</g>
<!-- Node8&#45;&gt;Node10 -->
<g id="edge11_Node000008_Node000010" class="edge">
<title>Node8&#45;&gt;Node10</title>
<g id="a_edge11_Node000008_Node000010"><a xlink:title=" ">
<path fill="none" stroke="#63b8ff" d="M209.85,-105.97C200.51,-98.29 185.78,-86.18 174.25,-76.69"/>
<polygon fill="#63b8ff" stroke="#63b8ff" points="176.13,-73.71 166.19,-70.06 171.69,-79.11 176.13,-73.71"/>
</a>
</g>
</g>
<!-- Node11 -->
<g id="Node000011" class="node">
<title>Node11</title>
<g id="a_Node000011"><a xlink:title=" ">
<polygon fill="#e0e0e0" stroke="#999999" points="228,-70 194,-70 194,-53 228,-53 228,-70"/>
<text text-anchor="middle" x="211" y="-59.6" font-family="Helvetica,sans-Serif" font-size="8.00">limits</text>
</a>
</g>
</g>
<!-- Node8&#45;&gt;Node11 -->
<g id="edge13_Node000008_Node000011" class="edge">
<title>Node8&#45;&gt;Node11</title>
<g id="a_edge13_Node000008_Node000011"><a xlink:title=" ">
<path fill="none" stroke="#63b8ff" d="M217.82,-105.97C216.76,-99.19 215.15,-88.97 213.77,-80.13"/>
<polygon fill="#63b8ff" stroke="#63b8ff" points="217.19,-79.39 212.19,-70.06 210.28,-80.48 217.19,-79.39"/>
</a>
</g>
</g>
<!-- Node12 -->
<g id="Node000012" class="node">
<title>Node12</title>
<g id="a_Node000012"><a xlink:title=" ">
<polygon fill="#e0e0e0" stroke="#999999" points="282,-70 246,-70 246,-53 282,-53 282,-70"/>
<text text-anchor="middle" x="264" y="-59.6" font-family="Helvetica,sans-Serif" font-size="8.00">string</text>
</a>
</g>
</g>
<!-- Node8&#45;&gt;Node12 -->
<g id="edge14_Node000008_Node000012" class="edge">
<title>Node8&#45;&gt;Node12</title>
<g id="a_edge14_Node000008_Node000012"><a xlink:title=" ">
<path fill="none" stroke="#63b8ff" d="M225.64,-105.97C232.15,-98.59 242.28,-87.12 250.49,-77.81"/>
<polygon fill="#63b8ff" stroke="#63b8ff" points="253.34,-79.87 257.33,-70.06 248.09,-75.24 253.34,-79.87"/>
</a>
</g>
</g>
<!-- Node13 -->
<g id="Node000013" class="node">
<title>Node13</title>
<g id="a_Node000013"><a xlink:href="../../d7/d65/intrinsics_8hpp.html" target="_top" xlink:title=" ">
<polygon fill="#fff0f0" stroke="red" points="477.5,-70 392.5,-70 392.5,-53 477.5,-53 477.5,-70"/>
<text text-anchor="middle" x="435" y="-59.6" font-family="Helvetica,sans-Serif" font-size="8.00">../utils/intrinsics.hpp</text>
</a>
</g>
</g>
<!-- Node8&#45;&gt;Node13 -->
<g id="edge16_Node000008_Node000013" class="edge">
<title>Node8&#45;&gt;Node13</title>
<g id="a_edge16_Node000008_Node000013"><a xlink:title=" ">
<path fill="none" stroke="#63b8ff" d="M250.87,-105.97C288.6,-97.07 351.54,-82.2 393.16,-72.38"/>
<polygon fill="#63b8ff" stroke="#63b8ff" points="394.07,-75.76 403,-70.06 392.46,-68.95 394.07,-75.76"/>
</a>
</g>
</g>
<!-- Node13&#45;&gt;Node2 -->
<g id="edge17_Node000013_Node000002" class="edge">
<title>Node13&#45;&gt;Node2</title>
<g id="a_edge17_Node000013_Node000002"><a xlink:title=" ">
<path fill="none" stroke="#63b8ff" d="M429.69,-52.97C424.58,-45.74 416.71,-34.59 410.21,-25.39"/>
<polygon fill="#63b8ff" stroke="#63b8ff" points="412.96,-23.21 404.33,-17.06 407.24,-27.24 412.96,-23.21"/>
</a>
</g>
</g>
<!-- Node15&#45;&gt;Node2 -->
<g id="edge19_Node000015_Node000002" class="edge">
<title>Node15&#45;&gt;Node2</title>
<g id="a_edge19_Node000015_Node000002"><a xlink:title=" ">
<path fill="none" stroke="#63b8ff" d="M698.72,-158.69C697.84,-145.96 694.29,-120.67 680,-106 611.2,-35.35 488.45,-16.41 430.69,-11.34"/>
<polygon fill="#63b8ff" stroke="#63b8ff" points="430.61,-7.82 420.37,-10.52 430.06,-14.8 430.61,-7.82"/>
</a>
</g>
</g>
<!-- Node15&#45;&gt;Node3 -->
<g id="edge23_Node000015_Node000003" class="edge">
<title>Node15&#45;&gt;Node3</title>
<g id="a_edge23_Node000015_Node000003"><a xlink:title=" ">
<path fill="none" stroke="#63b8ff" d="M692.06,-158.97C685.19,-151.52 674.47,-139.89 665.85,-130.53"/>
<polygon fill="#63b8ff" stroke="#63b8ff" points="668.31,-128.04 658.96,-123.06 663.17,-132.78 668.31,-128.04"/>
</a>
</g>
</g>
<!-- Node15&#45;&gt;Node6 -->
<g id="edge21_Node000015_Node000006" class="edge">
<title>Node15&#45;&gt;Node6</title>
<g id="a_edge21_Node000015_Node000006"><a xlink:title=" ">
<path fill="none" stroke="#63b8ff" d="M680.56,-158.97C659.78,-150.5 625.8,-136.64 601.81,-126.85"/>
<polygon fill="#63b8ff" stroke="#63b8ff" points="603.1,-123.59 592.52,-123.06 600.46,-130.07 603.1,-123.59"/>
</a>
</g>
</g>
<!-- Node16 -->
<g id="Node000016" class="node">
<title>Node16</title>
<g id="a_Node000016"><a xlink:title=" ">
<polygon fill="#e0e0e0" stroke="#999999" points="845,-123 795,-123 795,-106 845,-106 845,-123"/>
<text text-anchor="middle" x="820" y="-112.6" font-family="Helvetica,sans-Serif" font-size="8.00">functional</text>
</a>
</g>
</g>
<!-- Node15&#45;&gt;Node16 -->
<g id="edge20_Node000015_Node000016" class="edge">
<title>Node15&#45;&gt;Node16</title>
<g id="a_edge20_Node000015_Node000016"><a xlink:title=" ">
<path fill="none" stroke="#63b8ff" d="M716.85,-158.97C736.87,-150.54 769.56,-136.76 792.77,-126.98"/>
<polygon fill="#63b8ff" stroke="#63b8ff" points="794.22,-130.17 802.07,-123.06 791.5,-123.71 794.22,-130.17"/>
</a>
</g>
</g>
<!-- Node17 -->
<g id="Node000017" class="node">
<title>Node17</title>
<g id="a_Node000017"><a xlink:title=" ">
<polygon fill="#e0e0e0" stroke="#999999" points="777,-123 727,-123 727,-106 777,-106 777,-123"/>
<text text-anchor="middle" x="752" y="-112.6" font-family="Helvetica,sans-Serif" font-size="8.00">stdexcept</text>
</a>
</g>
</g>
<!-- Node15&#45;&gt;Node17 -->
<g id="edge22_Node000015_Node000017" class="edge">
<title>Node15&#45;&gt;Node17</title>
<g id="a_edge22_Node000015_Node000017"><a xlink:title=" ">
<path fill="none" stroke="#63b8ff" d="M706.82,-158.97C714.65,-151.44 726.9,-139.65 736.67,-130.25"/>
<polygon fill="#63b8ff" stroke="#63b8ff" points="739.37,-132.51 744.15,-123.06 734.51,-127.47 739.37,-132.51"/>
</a>
</g>
</g>
<!-- Node18&#45;&gt;Node2 -->
<g id="edge26_Node000018_Node000002" class="edge">
<title>Node18&#45;&gt;Node2</title>
<g id="a_edge26_Node000018_Node000002"><a xlink:title=" ">
<path fill="none" stroke="#63b8ff" d="M232.94,-211.89C167.39,-189.99 -5.41,-123.86 57,-53 77.42,-29.82 287.39,-15.73 367.85,-11.15"/>
<polygon fill="#63b8ff" stroke="#63b8ff" points="368.09,-14.64 377.88,-10.59 367.7,-7.65 368.09,-14.64"/>
</a>
</g>
</g>
<!-- Node18&#45;&gt;Node3 -->
<g id="edge28_Node000018_Node000003" class="edge">
<title>Node18&#45;&gt;Node3</title>
<g id="a_edge28_Node000018_Node000003"><a xlink:title=" ">
<path fill="none" stroke="#63b8ff" d="M291.22,-211.99C328.45,-203.69 389.65,-189.69 442,-176 507.17,-158.96 582.95,-136.46 623.28,-124.26"/>
<polygon fill="#63b8ff" stroke="#63b8ff" points="624.42,-127.57 632.98,-121.32 622.39,-120.88 624.42,-127.57"/>
</a>
</g>
</g>
<!-- Node18&#45;&gt;Node4 -->
<g id="edge29_Node000018_Node000004" class="edge">
<title>Node18&#45;&gt;Node4</title>
<g id="a_edge29_Node000018_Node000004"><a xlink:title=" ">
<path fill="none" stroke="#63b8ff" d="M272.05,-211.97C288.55,-203.73 315.26,-190.37 334.72,-180.64"/>
<polygon fill="#63b8ff" stroke="#63b8ff" points="336.51,-183.66 343.89,-176.06 333.38,-177.4 336.51,-183.66"/>
</a>
</g>
</g>
<!-- Node18&#45;&gt;Node7 -->
<g id="edge27_Node000018_Node000007" class="edge">
<title>Node18&#45;&gt;Node7</title>
<g id="a_edge27_Node000018_Node000007"><a xlink:title=" ">
<path fill="none" stroke="#63b8ff" d="M246.33,-211.95C224.93,-196.54 175.77,-159.83 140,-123 126.56,-109.16 113.26,-91.59 104.26,-78.95"/>
<polygon fill="#63b8ff" stroke="#63b8ff" points="106.88,-76.58 98.28,-70.39 101.14,-80.59 106.88,-76.58"/>
</a>
</g>
</g>
<!-- Node18&#45;&gt;Node8 -->
<g id="edge30_Node000018_Node000008" class="edge">
<title>Node18&#45;&gt;Node8</title>
<g id="a_edge30_Node000018_Node000008"><a xlink:title=" ">
<path fill="none" stroke="#63b8ff" d="M254.14,-211.68C248.03,-194.96 233.58,-155.39 225.23,-132.56"/>
<polygon fill="#63b8ff" stroke="#63b8ff" points="228.51,-131.32 221.79,-123.12 221.93,-133.72 228.51,-131.32"/>
</a>
</g>
</g>
<!-- Node18&#45;&gt;Node13 -->
<g id="edge31_Node000018_Node000013" class="edge">
<title>Node18&#45;&gt;Node13</title>
<g id="a_edge31_Node000018_Node000013"><a xlink:title=" ">
<path fill="none" stroke="#63b8ff" d="M258.44,-211.67C260.86,-199.75 266.42,-176.6 276,-159 290.64,-132.11 295.08,-123.78 320,-106 341.72,-90.5 369.65,-79.77 392.54,-72.84"/>
<polygon fill="#63b8ff" stroke="#63b8ff" points="393.7,-76.15 402.34,-70.01 391.76,-69.42 393.7,-76.15"/>
</a>
</g>
</g>
<!-- Node19&#45;&gt;Node13 -->
<g id="edge34_Node000019_Node000013" class="edge">
<title>Node19&#45;&gt;Node13</title>
<g id="a_edge34_Node000019_Node000013"><a xlink:title=" ">
<path fill="none" stroke="#63b8ff" d="M495.91,-211.93C486.18,-188.05 455.96,-113.91 442.09,-79.89"/>
<polygon fill="#63b8ff" stroke="#63b8ff" points="445.22,-78.31 438.21,-70.37 438.74,-80.95 445.22,-78.31"/>
</a>
</g>
</g>
<!-- Node20 -->
<g id="Node000020" class="node">
<title>Node20</title>
<g id="a_Node000020"><a xlink:href="../../dc/d3c/bnode_8hpp.html" target="_top" xlink:title=" ">
<polygon fill="white" stroke="#666666" points="582.5,-176 527.5,-176 527.5,-159 582.5,-159 582.5,-176"/>
<text text-anchor="middle" x="555" y="-165.6" font-family="Helvetica,sans-Serif" font-size="8.00">bnode.hpp</text>
</a>
</g>
</g>
<!-- Node19&#45;&gt;Node20 -->
<g id="edge33_Node000019_Node000020" class="edge">
<title>Node19&#45;&gt;Node20</title>
<g id="a_edge33_Node000019_Node000020"><a xlink:title=" ">
<path fill="none" stroke="#63b8ff" d="M507.26,-211.97C515.62,-204.37 528.74,-192.41 539.12,-182.97"/>
<polygon fill="#63b8ff" stroke="#63b8ff" points="541.67,-185.38 546.7,-176.06 536.95,-180.2 541.67,-185.38"/>
</a>
</g>
</g>
</g>
</svg>
