<?xml version="1.0" encoding="UTF-8" standalone="no"?>
<!DOCTYPE svg PUBLIC "-//W3C//DTD SVG 1.1//EN"
 "http://www.w3.org/Graphics/SVG/1.1/DTD/svg11.dtd">
<!-- Generated by graphviz version 2.43.0 (0)
 -->
<!-- Title: astar.hpp Pages: 1 -->
<svg width="999pt" height="237pt"
 viewBox="0.00 0.00 998.77 237.00" xmlns="http://www.w3.org/2000/svg" xmlns:xlink="http://www.w3.org/1999/xlink">
<g id="graph0" class="graph" transform="scale(1 1) rotate(0) translate(4 233)">
<title>astar.hpp</title>
<!-- Node1 -->
<g id="Node000001" class="node">
<title>Node1</title>
<g id="a_Node000001"><a xlink:title=" ">
<polygon fill="#999999" stroke="#666666" points="341.27,-229 291.27,-229 291.27,-212 341.27,-212 341.27,-229"/>
<text text-anchor="middle" x="316.27" y="-218.6" font-family="Helvetica,sans-Serif" font-size="8.00">astar.hpp</text>
</a>
</g>
</g>
<!-- Node2 -->
<g id="Node000002" class="node">
<title>Node2</title>
<g id="a_Node000002"><a xlink:title=" ">
<polygon fill="#e0e0e0" stroke="#999999" points="349.27,-17 307.27,-17 307.27,0 349.27,0 349.27,-17"/>
<text text-anchor="middle" x="328.27" y="-6.6" font-family="Helvetica,sans-Serif" font-size="8.00">cstddef</text>
</a>
</g>
</g>
<!-- Node1&#45;&gt;Node2 -->
<g id="edge1_Node000001_Node000002" class="edge">
<title>Node1&#45;&gt;Node2</title>
<g id="a_edge1_Node000001_Node000002"><a xlink:title=" ">
<path fill="none" stroke="#63b8ff" d="M291.01,-215.78C204.71,-202.1 -68.39,-150.28 16.27,-53 52.47,-11.4 225.23,-8.35 296.95,-8.92"/>
<polygon fill="#63b8ff" stroke="#63b8ff" points="297.13,-12.43 307.17,-9.04 297.2,-5.43 297.13,-12.43"/>
</a>
</g>
</g>
<!-- Node3 -->
<g id="Node000003" class="node">
<title>Node3</title>
<g id="a_Node000003"><a xlink:title=" ">
<polygon fill="#e0e0e0" stroke="#999999" points="345.77,-70 292.77,-70 292.77,-53 345.77,-53 345.77,-70"/>
<text text-anchor="middle" x="319.27" y="-59.6" font-family="Helvetica,sans-Serif" font-size="8.00">type_traits</text>
</a>
</g>
</g>
<!-- Node1&#45;&gt;Node3 -->
<g id="edge2_Node000001_Node000003" class="edge">
<title>Node1&#45;&gt;Node3</title>
<g id="a_edge2_Node000001_Node000003"><a xlink:title=" ">
<path fill="none" stroke="#63b8ff" d="M311.56,-211.97C300.68,-193.62 275.72,-145.24 288.27,-106 291.64,-95.49 298.57,-85.36 305.03,-77.52"/>
<polygon fill="#63b8ff" stroke="#63b8ff" points="307.67,-79.81 311.66,-70 302.42,-75.18 307.67,-79.81"/>
</a>
</g>
</g>
<!-- Node4 -->
<g id="Node000004" class="node">
<title>Node4</title>
<g id="a_Node000004"><a xlink:title=" ">
<polygon fill="#e0e0e0" stroke="#999999" points="335.27,-123 297.27,-123 297.27,-106 335.27,-106 335.27,-123"/>
<text text-anchor="middle" x="316.27" y="-112.6" font-family="Helvetica,sans-Serif" font-size="8.00">vector</text>
</a>
</g>
</g>
<!-- Node1&#45;&gt;Node4 -->
<g id="edge3_Node000001_Node000004" class="edge">
<title>Node1&#45;&gt;Node4</title>
<g id="a_edge3_Node000001_Node000004"><a xlink:title=" ">
<path fill="none" stroke="#63b8ff" d="M316.27,-211.68C316.27,-195.11 316.27,-156.11 316.27,-133.18"/>
<polygon fill="#63b8ff" stroke="#63b8ff" points="319.77,-133.12 316.27,-123.12 312.77,-133.13 319.77,-133.12"/>
</a>
</g>
</g>
<!-- Node5 -->
<g id="Node000005" class="node">
<title>Node5</title>
<g id="a_Node000005"><a xlink:href="../../d8/d62/existence__set_8hpp.html" target="_top" xlink:title=" ">
<polygon fill="white" stroke="#666666" points="533.77,-176 386.77,-176 386.77,-159 533.77,-159 533.77,-176"/>
<text text-anchor="middle" x="460.27" y="-165.6" font-family="Helvetica,sans-Serif" font-size="8.00">../types/containers/existence_set.hpp</text>
</a>
</g>
</g>
<!-- Node1&#45;&gt;Node5 -->
<g id="edge4_Node000001_Node000005" class="edge">
<title>Node1&#45;&gt;Node5</title>
<g id="a_edge4_Node000001_Node000005"><a xlink:title=" ">
<path fill="none" stroke="#63b8ff" d="M337.52,-211.97C361.77,-203.39 401.64,-189.27 429.34,-179.46"/>
<polygon fill="#63b8ff" stroke="#63b8ff" points="430.68,-182.69 438.94,-176.06 428.34,-176.1 430.68,-182.69"/>
</a>
</g>
</g>
<!-- Node10 -->
<g id="Node000010" class="node">
<title>Node10</title>
<g id="a_Node000010"><a xlink:href="../../df/d93/utils_8hpp.html" target="_top" xlink:title=" ">
<polygon fill="white" stroke="#666666" points="126.77,-123 51.77,-123 51.77,-106 126.77,-106 126.77,-123"/>
<text text-anchor="middle" x="89.27" y="-112.6" font-family="Helvetica,sans-Serif" font-size="8.00">../../utils/utils.hpp</text>
</a>
</g>
</g>
<!-- Node1&#45;&gt;Node10 -->
<g id="edge29_Node000001_Node000010" class="edge">
<title>Node1&#45;&gt;Node10</title>
<g id="a_edge29_Node000001_Node000010"><a xlink:title=" ">
<path fill="none" stroke="#63b8ff" d="M291.04,-217.24C256.7,-213.25 194.27,-202.68 148.27,-176 128.7,-164.65 111.3,-145.02 100.56,-131.2"/>
<polygon fill="#63b8ff" stroke="#63b8ff" points="103.29,-129.02 94.5,-123.11 97.69,-133.21 103.29,-129.02"/>
</a>
</g>
</g>
<!-- Node14 -->
<g id="Node000014" class="node">
<title>Node14</title>
<g id="a_Node000014"><a xlink:href="../../d7/d65/intrinsics_8hpp.html" target="_top" xlink:title=" ">
<polygon fill="#fff0f0" stroke="red" points="668.77,-70 583.77,-70 583.77,-53 668.77,-53 668.77,-70"/>
<text text-anchor="middle" x="626.27" y="-59.6" font-family="Helvetica,sans-Serif" font-size="8.00">../utils/intrinsics.hpp</text>
</a>
</g>
</g>
<!-- Node1&#45;&gt;Node14 -->
<g id="edge40_Node000001_Node000014" class="edge">
<title>Node1&#45;&gt;Node14</title>
<g id="a_edge40_Node000001_Node000014"><a xlink:title=" ">
<path fill="none" stroke="#63b8ff" d="M341.38,-218.99C431.6,-216.89 735.68,-207.5 764.27,-176 774.25,-165.01 785.56,-138.17 760.27,-106 740.94,-81.4 707.47,-70.52 678.82,-65.8"/>
<polygon fill="#63b8ff" stroke="#63b8ff" points="679.31,-62.33 668.92,-64.37 678.32,-69.26 679.31,-62.33"/>
</a>
</g>
</g>
<!-- Node17 -->
<g id="Node000017" class="node">
<title>Node17</title>
<g id="a_Node000017"><a xlink:href="../../da/d45/heap_8hpp.html" target="_top" xlink:title=" ">
<polygon fill="white" stroke="#666666" points="754.77,-176 637.77,-176 637.77,-159 754.77,-159 754.77,-176"/>
<text text-anchor="middle" x="696.27" y="-165.6" font-family="Helvetica,sans-Serif" font-size="8.00">../types/containers/heap.hpp</text>
</a>
</g>
</g>
<!-- Node1&#45;&gt;Node17 -->
<g id="edge23_Node000001_Node000017" class="edge">
<title>Node1&#45;&gt;Node17</title>
<g id="a_edge23_Node000001_Node000017"><a xlink:title=" ">
<path fill="none" stroke="#63b8ff" d="M341.5,-216.11C399.64,-208.31 544.61,-188.85 630.17,-177.37"/>
<polygon fill="#63b8ff" stroke="#63b8ff" points="630.85,-180.81 640.3,-176.01 629.92,-173.87 630.85,-180.81"/>
</a>
</g>
</g>
<!-- Node18 -->
<g id="Node000018" class="node">
<title>Node18</title>
<g id="a_Node000018"><a xlink:href="../../d2/d1c/solver_8hpp.html" target="_top" xlink:title=" ">
<polygon fill="white" stroke="#666666" points="229.27,-176 157.27,-176 157.27,-159 229.27,-159 229.27,-176"/>
<text text-anchor="middle" x="193.27" y="-165.6" font-family="Helvetica,sans-Serif" font-size="8.00">base/solver.hpp</text>
</a>
</g>
</g>
<!-- Node1&#45;&gt;Node18 -->
<g id="edge30_Node000001_Node000018" class="edge">
<title>Node1&#45;&gt;Node18</title>
<g id="a_edge30_Node000001_Node000018"><a xlink:title=" ">
<path fill="none" stroke="#63b8ff" d="M298.13,-211.97C277.78,-203.54 244.55,-189.76 220.95,-179.98"/>
<polygon fill="#63b8ff" stroke="#63b8ff" points="222.08,-176.65 211.5,-176.06 219.39,-183.12 222.08,-176.65"/>
</a>
</g>
</g>
<!-- Node19 -->
<g id="Node000019" class="node">
<title>Node19</title>
<g id="a_Node000019"><a xlink:href="../../d0/def/unmanaged__node_8hpp.html" target="_top" xlink:title=" ">
<polygon fill="white" stroke="#666666" points="990.77,-176 873.77,-176 873.77,-159 990.77,-159 990.77,-176"/>
<text text-anchor="middle" x="932.27" y="-165.6" font-family="Helvetica,sans-Serif" font-size="8.00">base/unmanaged_node.hpp</text>
</a>
</g>
</g>
<!-- Node1&#45;&gt;Node19 -->
<g id="edge37_Node000001_Node000019" class="edge">
<title>Node1&#45;&gt;Node19</title>
<g id="a_edge37_Node000001_Node000019"><a xlink:title=" ">
<path fill="none" stroke="#63b8ff" d="M341.46,-217.68C418.83,-212.06 659.85,-194.23 859.27,-176 860.74,-175.87 862.22,-175.73 863.72,-175.59"/>
<polygon fill="#63b8ff" stroke="#63b8ff" points="864.09,-179.07 873.71,-174.63 863.43,-172.1 864.09,-179.07"/>
</a>
</g>
</g>
<!-- Node5&#45;&gt;Node2 -->
<g id="edge5_Node000005_Node000002" class="edge">
<title>Node5&#45;&gt;Node2</title>
<g id="a_edge5_Node000005_Node000002"><a xlink:title=" ">
<path fill="none" stroke="#63b8ff" d="M472.6,-158.72C501.06,-139.84 566.63,-90.36 536.27,-53 514.35,-26.01 411.92,-15.18 359.45,-11.35"/>
<polygon fill="#63b8ff" stroke="#63b8ff" points="359.57,-7.85 349.35,-10.65 359.09,-14.83 359.57,-7.85"/>
</a>
</g>
</g>
<!-- Node5&#45;&gt;Node3 -->
<g id="edge10_Node000005_Node000003" class="edge">
<title>Node5&#45;&gt;Node3</title>
<g id="a_edge10_Node000005_Node000003"><a xlink:title=" ">
<path fill="none" stroke="#63b8ff" d="M462.09,-158.84C464.59,-146.33 467.48,-121.34 455.27,-106 431.64,-76.28 387.59,-66.55 356.03,-63.53"/>
<polygon fill="#63b8ff" stroke="#63b8ff" points="356.09,-60.03 345.85,-62.75 355.55,-67.01 356.09,-60.03"/>
</a>
</g>
</g>
<!-- Node5&#45;&gt;Node4 -->
<g id="edge11_Node000005_Node000004" class="edge">
<title>Node5&#45;&gt;Node4</title>
<g id="a_edge11_Node000005_Node000004"><a xlink:title=" ">
<path fill="none" stroke="#63b8ff" d="M439.03,-158.97C414.08,-150.14 372.6,-135.45 344.85,-125.62"/>
<polygon fill="#63b8ff" stroke="#63b8ff" points="345.9,-122.28 335.31,-122.24 343.57,-128.88 345.9,-122.28"/>
</a>
</g>
</g>
<!-- Node6 -->
<g id="Node000006" class="node">
<title>Node6</title>
<g id="a_Node000006"><a xlink:title=" ">
<polygon fill="#e0e0e0" stroke="#999999" points="527.27,-70 477.27,-70 477.27,-53 527.27,-53 527.27,-70"/>
<text text-anchor="middle" x="502.27" y="-59.6" font-family="Helvetica,sans-Serif" font-size="8.00">functional</text>
</a>
</g>
</g>
<!-- Node5&#45;&gt;Node6 -->
<g id="edge6_Node000005_Node000006" class="edge">
<title>Node5&#45;&gt;Node6</title>
<g id="a_edge6_Node000005_Node000006"><a xlink:title=" ">
<path fill="none" stroke="#63b8ff" d="M467.95,-158.94C475.69,-150.81 487.32,-137.15 493.27,-123 498.96,-109.5 501.13,-92.99 501.92,-80.62"/>
<polygon fill="#63b8ff" stroke="#63b8ff" points="505.43,-80.41 502.33,-70.28 498.44,-80.13 505.43,-80.41"/>
</a>
</g>
</g>
<!-- Node7 -->
<g id="Node000007" class="node">
<title>Node7</title>
<g id="a_Node000007"><a xlink:title=" ">
<polygon fill="#e0e0e0" stroke="#999999" points="413.27,-123 353.27,-123 353.27,-106 413.27,-106 413.27,-123"/>
<text text-anchor="middle" x="383.27" y="-112.6" font-family="Helvetica,sans-Serif" font-size="8.00">initializer_list</text>
</a>
</g>
</g>
<!-- Node5&#45;&gt;Node7 -->
<g id="edge7_Node000005_Node000007" class="edge">
<title>Node5&#45;&gt;Node7</title>
<g id="a_edge7_Node000005_Node000007"><a xlink:title=" ">
<path fill="none" stroke="#63b8ff" d="M448.91,-158.97C436.86,-150.99 417.58,-138.22 403.03,-128.58"/>
<polygon fill="#63b8ff" stroke="#63b8ff" points="404.95,-125.66 394.68,-123.06 401.09,-131.5 404.95,-125.66"/>
</a>
</g>
</g>
<!-- Node8 -->
<g id="Node000008" class="node">
<title>Node8</title>
<g id="a_Node000008"><a xlink:title=" ">
<polygon fill="#e0e0e0" stroke="#999999" points="274.27,-70 240.27,-70 240.27,-53 274.27,-53 274.27,-70"/>
<text text-anchor="middle" x="257.27" y="-59.6" font-family="Helvetica,sans-Serif" font-size="8.00">limits</text>
</a>
</g>
</g>
<!-- Node5&#45;&gt;Node8 -->
<g id="edge8_Node000005_Node000008" class="edge">
<title>Node5&#45;&gt;Node8</title>
<g id="a_edge8_Node000005_Node000008"><a xlink:title=" ">
<path fill="none" stroke="#63b8ff" d="M457.64,-158.88C452.77,-145.94 441.09,-119.77 422.27,-106 373.29,-70.16 347.42,-85.17 284.34,-70.06"/>
<polygon fill="#63b8ff" stroke="#63b8ff" points="284.87,-66.59 274.32,-67.49 283.13,-73.37 284.87,-66.59"/>
</a>
</g>
</g>
<!-- Node9 -->
<g id="Node000009" class="node">
<title>Node9</title>
<g id="a_Node000009"><a xlink:title=" ">
<polygon fill="#e0e0e0" stroke="#999999" points="703.27,-123 621.27,-123 621.27,-106 703.27,-106 703.27,-123"/>
<text text-anchor="middle" x="662.27" y="-112.6" font-family="Helvetica,sans-Serif" font-size="8.00">memory_resource</text>
</a>
</g>
</g>
<!-- Node5&#45;&gt;Node9 -->
<g id="edge9_Node000005_Node000009" class="edge">
<title>Node5&#45;&gt;Node9</title>
<g id="a_edge9_Node000005_Node000009"><a xlink:title=" ">
<path fill="none" stroke="#63b8ff" d="M490.08,-158.97C525.14,-150.12 583.48,-135.39 622.41,-125.57"/>
<polygon fill="#63b8ff" stroke="#63b8ff" points="623.51,-128.9 632.35,-123.06 621.79,-122.11 623.51,-128.9"/>
</a>
</g>
</g>
<!-- Node5&#45;&gt;Node10 -->
<g id="edge12_Node000005_Node000010" class="edge">
<title>Node5&#45;&gt;Node10</title>
<g id="a_edge12_Node000005_Node000010"><a xlink:title=" ">
<path fill="none" stroke="#63b8ff" d="M405.53,-158.97C332.97,-149 206.08,-131.56 137.15,-122.08"/>
<polygon fill="#63b8ff" stroke="#63b8ff" points="137.39,-118.58 127.01,-120.69 136.44,-125.52 137.39,-118.58"/>
</a>
</g>
</g>
<!-- Node5&#45;&gt;Node14 -->
<g id="edge22_Node000005_Node000014" class="edge">
<title>Node5&#45;&gt;Node14</title>
<g id="a_edge22_Node000005_Node000014"><a xlink:title=" ">
<path fill="none" stroke="#63b8ff" d="M488.79,-158.86C511.81,-151.85 544.34,-139.96 569.27,-123 587.31,-110.73 603.91,-91.86 614.49,-78.46"/>
<polygon fill="#63b8ff" stroke="#63b8ff" points="617.51,-80.28 620.8,-70.21 611.95,-76.03 617.51,-80.28"/>
</a>
</g>
</g>
<!-- Node10&#45;&gt;Node2 -->
<g id="edge15_Node000010_Node000002" class="edge">
<title>Node10&#45;&gt;Node2</title>
<g id="a_edge15_Node000010_Node000002"><a xlink:title=" ">
<path fill="none" stroke="#63b8ff" d="M91.07,-105.81C94.54,-92.77 103.43,-66.44 121.27,-53 148.66,-32.37 246.22,-18.69 297.01,-12.8"/>
<polygon fill="#63b8ff" stroke="#63b8ff" points="297.56,-16.26 307.1,-11.66 296.77,-9.31 297.56,-16.26"/>
</a>
</g>
</g>
<!-- Node10&#45;&gt;Node3 -->
<g id="edge19_Node000010_Node000003" class="edge">
<title>Node10&#45;&gt;Node3</title>
<g id="a_edge19_Node000010_Node000003"><a xlink:title=" ">
<path fill="none" stroke="#63b8ff" d="M123.21,-105.97C165.9,-96.51 238.91,-80.32 282.77,-70.59"/>
<polygon fill="#63b8ff" stroke="#63b8ff" points="283.72,-73.97 292.73,-68.39 282.21,-67.13 283.72,-73.97"/>
</a>
</g>
</g>
<!-- Node10&#45;&gt;Node6 -->
<g id="edge16_Node000010_Node000006" class="edge">
<title>Node10&#45;&gt;Node6</title>
<g id="a_edge16_Node000010_Node000006"><a xlink:title=" ">
<path fill="none" stroke="#63b8ff" d="M127.02,-108.84C206.42,-99.03 389.75,-76.4 466.97,-66.86"/>
<polygon fill="#63b8ff" stroke="#63b8ff" points="467.64,-70.3 477.14,-65.6 466.79,-63.36 467.64,-70.3"/>
</a>
</g>
</g>
<!-- Node10&#45;&gt;Node8 -->
<g id="edge17_Node000010_Node000008" class="edge">
<title>Node10&#45;&gt;Node8</title>
<g id="a_edge17_Node000010_Node000008"><a xlink:title=" ">
<path fill="none" stroke="#63b8ff" d="M114.06,-105.97C145.2,-96.52 198.41,-80.37 230.46,-70.64"/>
<polygon fill="#63b8ff" stroke="#63b8ff" points="231.52,-73.98 240.07,-67.72 229.48,-67.28 231.52,-73.98"/>
</a>
</g>
</g>
<!-- Node11 -->
<g id="Node000011" class="node">
<title>Node11</title>
<g id="a_Node000011"><a xlink:title=" ">
<polygon fill="#e0e0e0" stroke="#999999" points="165.77,-70 130.77,-70 130.77,-53 165.77,-53 165.77,-70"/>
<text text-anchor="middle" x="148.27" y="-59.6" font-family="Helvetica,sans-Serif" font-size="8.00">array</text>
</a>
</g>
</g>
<!-- Node10&#45;&gt;Node11 -->
<g id="edge13_Node000010_Node000011" class="edge">
<title>Node10&#45;&gt;Node11</title>
<g id="a_edge13_Node000010_Node000011"><a xlink:title=" ">
<path fill="none" stroke="#63b8ff" d="M97.98,-105.97C106.87,-98.29 120.88,-86.18 131.86,-76.69"/>
<polygon fill="#63b8ff" stroke="#63b8ff" points="134.26,-79.24 139.53,-70.06 129.68,-73.95 134.26,-79.24"/>
</a>
</g>
</g>
<!-- Node12 -->
<g id="Node000012" class="node">
<title>Node12</title>
<g id="a_Node000012"><a xlink:title=" ">
<polygon fill="#e0e0e0" stroke="#999999" points="222.27,-70 184.27,-70 184.27,-53 222.27,-53 222.27,-70"/>
<text text-anchor="middle" x="203.27" y="-59.6" font-family="Helvetica,sans-Serif" font-size="8.00">cmath</text>
</a>
</g>
</g>
<!-- Node10&#45;&gt;Node12 -->
<g id="edge14_Node000010_Node000012" class="edge">
<title>Node10&#45;&gt;Node12</title>
<g id="a_edge14_Node000010_Node000012"><a xlink:title=" ">
<path fill="none" stroke="#63b8ff" d="M106.1,-105.97C124.79,-97.61 155.21,-84 177.03,-74.24"/>
<polygon fill="#63b8ff" stroke="#63b8ff" points="178.69,-77.33 186.38,-70.06 175.83,-70.94 178.69,-77.33"/>
</a>
</g>
</g>
<!-- Node13 -->
<g id="Node000013" class="node">
<title>Node13</title>
<g id="a_Node000013"><a xlink:title=" ">
<polygon fill="#e0e0e0" stroke="#999999" points="74.27,-70 38.27,-70 38.27,-53 74.27,-53 74.27,-70"/>
<text text-anchor="middle" x="56.27" y="-59.6" font-family="Helvetica,sans-Serif" font-size="8.00">string</text>
</a>
</g>
</g>
<!-- Node10&#45;&gt;Node13 -->
<g id="edge18_Node000010_Node000013" class="edge">
<title>Node10&#45;&gt;Node13</title>
<g id="a_edge18_Node000010_Node000013"><a xlink:title=" ">
<path fill="none" stroke="#63b8ff" d="M84.41,-105.97C79.77,-98.82 72.66,-87.82 66.74,-78.67"/>
<polygon fill="#63b8ff" stroke="#63b8ff" points="69.53,-76.55 61.16,-70.06 63.66,-80.35 69.53,-76.55"/>
</a>
</g>
</g>
<!-- Node10&#45;&gt;Node14 -->
<g id="edge20_Node000010_Node000014" class="edge">
<title>Node10&#45;&gt;Node14</title>
<g id="a_edge20_Node000010_Node000014"><a xlink:title=" ">
<path fill="none" stroke="#63b8ff" d="M127.04,-109.91C220.93,-101 465.18,-77.8 573.37,-67.52"/>
<polygon fill="#63b8ff" stroke="#63b8ff" points="573.78,-71 583.4,-66.57 573.12,-64.03 573.78,-71"/>
</a>
</g>
</g>
<!-- Node14&#45;&gt;Node2 -->
<g id="edge21_Node000014_Node000002" class="edge">
<title>Node14&#45;&gt;Node2</title>
<g id="a_edge21_Node000014_Node000002"><a xlink:title=" ">
<path fill="none" stroke="#63b8ff" d="M583.58,-53.19C522.93,-42.81 413.24,-24.04 359.56,-14.85"/>
<polygon fill="#63b8ff" stroke="#63b8ff" points="360.05,-11.39 349.6,-13.15 358.87,-18.29 360.05,-11.39"/>
</a>
</g>
</g>
<!-- Node17&#45;&gt;Node2 -->
<g id="edge24_Node000017_Node000002" class="edge">
<title>Node17&#45;&gt;Node2</title>
<g id="a_edge24_Node000017_Node000002"><a xlink:title=" ">
<path fill="none" stroke="#63b8ff" d="M716.1,-158.86C739.29,-148.67 772.99,-129.2 760.27,-106 739.24,-67.62 718.45,-67.85 677.27,-53 565.65,-12.74 422.39,-8.54 359.84,-8.85"/>
<polygon fill="#63b8ff" stroke="#63b8ff" points="359.44,-5.35 349.47,-8.95 359.51,-12.35 359.44,-5.35"/>
</a>
</g>
</g>
<!-- Node17&#45;&gt;Node4 -->
<g id="edge26_Node000017_Node000004" class="edge">
<title>Node17&#45;&gt;Node4</title>
<g id="a_edge26_Node000017_Node000004"><a xlink:title=" ">
<path fill="none" stroke="#63b8ff" d="M637.65,-161.76C569.59,-155.7 453.84,-143.68 345.59,-122.98"/>
<polygon fill="#63b8ff" stroke="#63b8ff" points="345.96,-119.49 335.47,-121.02 344.62,-126.36 345.96,-119.49"/>
</a>
</g>
</g>
<!-- Node17&#45;&gt;Node6 -->
<g id="edge25_Node000017_Node000006" class="edge">
<title>Node17&#45;&gt;Node6</title>
<g id="a_edge25_Node000017_Node000006"><a xlink:title=" ">
<path fill="none" stroke="#63b8ff" d="M702.07,-158.92C710.81,-146.51 725.03,-121.67 712.27,-106 701.29,-92.51 594.45,-75.54 537.54,-67.35"/>
<polygon fill="#63b8ff" stroke="#63b8ff" points="537.93,-63.87 527.53,-65.93 536.94,-70.8 537.93,-63.87"/>
</a>
</g>
</g>
<!-- Node17&#45;&gt;Node9 -->
<g id="edge27_Node000017_Node000009" class="edge">
<title>Node17&#45;&gt;Node9</title>
<g id="a_edge27_Node000017_Node000009"><a xlink:title=" ">
<path fill="none" stroke="#63b8ff" d="M691.26,-158.97C686.44,-151.74 679,-140.59 672.87,-131.39"/>
<polygon fill="#63b8ff" stroke="#63b8ff" points="675.77,-129.44 667.31,-123.06 669.95,-133.32 675.77,-129.44"/>
</a>
</g>
</g>
<!-- Node17&#45;&gt;Node14 -->
<g id="edge28_Node000017_Node000014" class="edge">
<title>Node17&#45;&gt;Node14</title>
<g id="a_edge28_Node000017_Node000014"><a xlink:title=" ">
<path fill="none" stroke="#63b8ff" d="M710.35,-158.94C729.33,-147.75 759.22,-125.94 745.27,-106 730.21,-84.45 703.27,-73.54 678.83,-68.03"/>
<polygon fill="#63b8ff" stroke="#63b8ff" points="679.4,-64.58 668.9,-66.05 678.02,-71.44 679.4,-64.58"/>
</a>
</g>
</g>
<!-- Node18&#45;&gt;Node2 -->
<g id="edge31_Node000018_Node000002" class="edge">
<title>Node18&#45;&gt;Node2</title>
<g id="a_edge31_Node000018_Node000002"><a xlink:title=" ">
<path fill="none" stroke="#63b8ff" d="M156.96,-165.92C122.66,-163.37 72.14,-154.08 42.27,-123 20.35,-100.18 8.57,-76.93 29.27,-53 63.64,-13.27 227.25,-9.08 296.84,-9.14"/>
<polygon fill="#63b8ff" stroke="#63b8ff" points="297.15,-12.64 307.16,-9.18 297.18,-5.64 297.15,-12.64"/>
</a>
</g>
</g>
<!-- Node18&#45;&gt;Node3 -->
<g id="edge33_Node000018_Node000003" class="edge">
<title>Node18&#45;&gt;Node3</title>
<g id="a_edge33_Node000018_Node000003"><a xlink:title=" ">
<path fill="none" stroke="#63b8ff" d="M194.39,-158.78C196.58,-146.17 202.6,-121.05 217.27,-106 234.91,-87.91 261.26,-76.94 282.77,-70.54"/>
<polygon fill="#63b8ff" stroke="#63b8ff" points="283.86,-73.87 292.56,-67.83 281.99,-67.12 283.86,-73.87"/>
</a>
</g>
</g>
<!-- Node18&#45;&gt;Node4 -->
<g id="edge34_Node000018_Node000004" class="edge">
<title>Node18&#45;&gt;Node4</title>
<g id="a_edge34_Node000018_Node000004"><a xlink:title=" ">
<path fill="none" stroke="#63b8ff" d="M211.42,-158.97C231.77,-150.54 265,-136.76 288.6,-126.98"/>
<polygon fill="#63b8ff" stroke="#63b8ff" points="290.15,-130.12 298.05,-123.06 287.47,-123.65 290.15,-130.12"/>
</a>
</g>
</g>
<!-- Node18&#45;&gt;Node8 -->
<g id="edge32_Node000018_Node000008" class="edge">
<title>Node18&#45;&gt;Node8</title>
<g id="a_edge32_Node000018_Node000008"><a xlink:title=" ">
<path fill="none" stroke="#63b8ff" d="M188.19,-158.89C180.86,-146.88 169.23,-123.11 179.27,-106 185.14,-96.02 210.71,-82.88 230.99,-73.66"/>
<polygon fill="#63b8ff" stroke="#63b8ff" points="232.41,-76.86 240.14,-69.61 229.58,-70.46 232.41,-76.86"/>
</a>
</g>
</g>
<!-- Node18&#45;&gt;Node10 -->
<g id="edge35_Node000018_Node000010" class="edge">
<title>Node18&#45;&gt;Node10</title>
<g id="a_edge35_Node000018_Node000010"><a xlink:title=" ">
<path fill="none" stroke="#63b8ff" d="M177.93,-158.97C161.03,-150.69 133.63,-137.25 113.75,-127.5"/>
<polygon fill="#63b8ff" stroke="#63b8ff" points="115.2,-124.32 104.68,-123.06 112.12,-130.6 115.2,-124.32"/>
</a>
</g>
</g>
<!-- Node18&#45;&gt;Node14 -->
<g id="edge36_Node000018_Node000014" class="edge">
<title>Node18&#45;&gt;Node14</title>
<g id="a_edge36_Node000018_Node000014"><a xlink:title=" ">
<path fill="none" stroke="#63b8ff" d="M202.25,-158.82C218.31,-145.56 253.53,-118.59 288.27,-106 314.49,-96.5 485.42,-77.4 573.69,-67.99"/>
<polygon fill="#63b8ff" stroke="#63b8ff" points="574.19,-71.46 583.77,-66.92 573.46,-64.5 574.19,-71.46"/>
</a>
</g>
</g>
<!-- Node19&#45;&gt;Node14 -->
<g id="edge39_Node000019_Node000014" class="edge">
<title>Node19&#45;&gt;Node14</title>
<g id="a_edge39_Node000019_Node000014"><a xlink:title=" ">
<path fill="none" stroke="#63b8ff" d="M936.27,-158.73C942.16,-146.04 951.16,-120.81 938.27,-106 905.33,-68.15 759.29,-62.21 679.23,-61.88"/>
<polygon fill="#63b8ff" stroke="#63b8ff" points="678.87,-58.38 668.86,-61.87 678.86,-65.38 678.87,-58.38"/>
</a>
</g>
</g>
<!-- Node20 -->
<g id="Node000020" class="node">
<title>Node20</title>
<g id="a_Node000020"><a xlink:href="../../dc/d3c/bnode_8hpp.html" target="_top" xlink:title=" ">
<polygon fill="white" stroke="#666666" points="928.77,-123 873.77,-123 873.77,-106 928.77,-106 928.77,-123"/>
<text text-anchor="middle" x="901.27" y="-112.6" font-family="Helvetica,sans-Serif" font-size="8.00">bnode.hpp</text>
</a>
</g>
</g>
<!-- Node19&#45;&gt;Node20 -->
<g id="edge38_Node000019_Node000020" class="edge">
<title>Node19&#45;&gt;Node20</title>
<g id="a_edge38_Node000019_Node000020"><a xlink:title=" ">
<path fill="none" stroke="#63b8ff" d="M927.7,-158.97C923.35,-151.82 916.66,-140.82 911.11,-131.67"/>
<polygon fill="#63b8ff" stroke="#63b8ff" points="914.05,-129.78 905.87,-123.06 908.07,-133.42 914.05,-129.78"/>
</a>
</g>
</g>
</g>
</svg>
