<?xml version="1.0" encoding="UTF-8" standalone="no"?>
<!DOCTYPE svg PUBLIC "-//W3C//DTD SVG 1.1//EN"
 "http://www.w3.org/Graphics/SVG/1.1/DTD/svg11.dtd">
<!-- Generated by graphviz version 2.43.0 (0)
 -->
<!-- Title: astar.hpp Pages: 1 -->
<svg width="904pt" height="237pt"
 viewBox="0.00 0.00 904.36 237.00" xmlns="http://www.w3.org/2000/svg" xmlns:xlink="http://www.w3.org/1999/xlink">
<g id="graph0" class="graph" transform="scale(1 1) rotate(0) translate(4 233)">
<title>astar.hpp</title>
<!-- Node1 -->
<g id="Node000001" class="node">
<title>Node1</title>
<g id="a_Node000001"><a xlink:title=" ">
<polygon fill="#999999" stroke="#666666" points="424.36,-229 369.36,-229 369.36,-212 424.36,-212 424.36,-229"/>
<text text-anchor="middle" x="396.86" y="-218.6" font-family="Helvetica,sans-Serif" font-size="8.00">astar.hpp</text>
</a>
</g>
</g>
<!-- Node2 -->
<g id="Node000002" class="node">
<title>Node2</title>
<g id="a_Node000002"><a xlink:title=" ">
<polygon fill="#e0e0e0" stroke="#999999" points="327.36,-17 280.36,-17 280.36,0 327.36,0 327.36,-17"/>
<text text-anchor="middle" x="303.86" y="-6.6" font-family="Helvetica,sans-Serif" font-size="8.00">cstddef</text>
</a>
</g>
</g>
<!-- Node1&#45;&gt;Node2 -->
<g id="edge1_Node000001_Node000002" class="edge">
<title>Node1&#45;&gt;Node2</title>
<g id="a_edge1_Node000001_Node000002"><a xlink:title=" ">
<path fill="none" stroke="#63b8ff" d="M369.26,-218.24C286.68,-214.2 45.65,-200.4 20.86,-176 -19.25,-136.53 3.36,-83.17 50.86,-53 86.79,-30.18 209.98,-17.19 270.19,-12.07"/>
<polygon fill="#63b8ff" stroke="#63b8ff" points="270.64,-15.55 280.32,-11.24 270.07,-8.57 270.64,-15.55"/>
</a>
</g>
</g>
<!-- Node3 -->
<g id="Node000003" class="node">
<title>Node3</title>
<g id="a_Node000003"><a xlink:title=" ">
<polygon fill="#e0e0e0" stroke="#999999" points="314.36,-70 255.36,-70 255.36,-53 314.36,-53 314.36,-70"/>
<text text-anchor="middle" x="284.86" y="-59.6" font-family="Helvetica,sans-Serif" font-size="8.00">type_traits</text>
</a>
</g>
</g>
<!-- Node1&#45;&gt;Node3 -->
<g id="edge2_Node000001_Node000003" class="edge">
<title>Node1&#45;&gt;Node3</title>
<g id="a_edge2_Node000001_Node000003"><a xlink:title=" ">
<path fill="none" stroke="#63b8ff" d="M369.35,-218.29C288.23,-214.43 54.24,-201.2 31.86,-176 14.87,-156.87 28.75,-126.38 53.86,-106 68.54,-94.09 182.97,-76.63 245.07,-67.9"/>
<polygon fill="#63b8ff" stroke="#63b8ff" points="245.88,-71.32 255.3,-66.47 244.91,-64.39 245.88,-71.32"/>
</a>
</g>
</g>
<!-- Node4 -->
<g id="Node000004" class="node">
<title>Node4</title>
<g id="a_Node000004"><a xlink:title=" ">
<polygon fill="#e0e0e0" stroke="#999999" points="372.86,-123 330.86,-123 330.86,-106 372.86,-106 372.86,-123"/>
<text text-anchor="middle" x="351.86" y="-112.6" font-family="Helvetica,sans-Serif" font-size="8.00">vector</text>
</a>
</g>
</g>
<!-- Node1&#45;&gt;Node4 -->
<g id="edge3_Node000001_Node000004" class="edge">
<title>Node1&#45;&gt;Node4</title>
<g id="a_edge3_Node000001_Node000004"><a xlink:title=" ">
<path fill="none" stroke="#63b8ff" d="M395.07,-211.84C392.2,-200.15 386.06,-177.28 377.86,-159 373.66,-149.64 367.89,-139.78 362.86,-131.82"/>
<polygon fill="#63b8ff" stroke="#63b8ff" points="365.63,-129.67 357.23,-123.21 359.77,-133.5 365.63,-129.67"/>
</a>
</g>
</g>
<!-- Node5 -->
<g id="Node000005" class="node">
<title>Node5</title>
<g id="a_Node000005"><a xlink:href="../../d8/d62/existence__set_8hpp.html" target="_top" xlink:title=" ">
<polygon fill="white" stroke="#666666" points="368.86,-176 198.86,-176 198.86,-159 368.86,-159 368.86,-176"/>
<text text-anchor="middle" x="283.86" y="-165.6" font-family="Helvetica,sans-Serif" font-size="8.00">../types/containers/existence_set.hpp</text>
</a>
</g>
</g>
<!-- Node1&#45;&gt;Node5 -->
<g id="edge4_Node000001_Node000005" class="edge">
<title>Node1&#45;&gt;Node5</title>
<g id="a_edge4_Node000001_Node000005"><a xlink:title=" ">
<path fill="none" stroke="#63b8ff" d="M380.19,-211.97C361.66,-203.61 331.51,-190 309.87,-180.24"/>
<polygon fill="#63b8ff" stroke="#63b8ff" points="311.16,-176.98 300.6,-176.06 308.28,-183.36 311.16,-176.98"/>
</a>
</g>
</g>
<!-- Node9 -->
<g id="Node000009" class="node">
<title>Node9</title>
<g id="a_Node000009"><a xlink:href="../../df/d93/utils_8hpp.html" target="_top" xlink:title=" ">
<polygon fill="white" stroke="#666666" points="592.36,-123 505.36,-123 505.36,-106 592.36,-106 592.36,-123"/>
<text text-anchor="middle" x="548.86" y="-112.6" font-family="Helvetica,sans-Serif" font-size="8.00">../../utils/utils.hpp</text>
</a>
</g>
</g>
<!-- Node1&#45;&gt;Node9 -->
<g id="edge28_Node000001_Node000009" class="edge">
<title>Node1&#45;&gt;Node9</title>
<g id="a_edge28_Node000001_Node000009"><a xlink:title=" ">
<path fill="none" stroke="#63b8ff" d="M408.28,-211.68C434.05,-194.06 496.93,-151.03 529.14,-128.99"/>
<polygon fill="#63b8ff" stroke="#63b8ff" points="531.44,-131.66 537.71,-123.12 527.49,-125.88 531.44,-131.66"/>
</a>
</g>
</g>
<!-- Node13 -->
<g id="Node000013" class="node">
<title>Node13</title>
<g id="a_Node000013"><a xlink:href="../../d7/d65/intrinsics_8hpp.html" target="_top" xlink:title=" ">
<polygon fill="#fff0f0" stroke="red" points="431.36,-70 332.36,-70 332.36,-53 431.36,-53 431.36,-70"/>
<text text-anchor="middle" x="381.86" y="-59.6" font-family="Helvetica,sans-Serif" font-size="8.00">../utils/intrinsics.hpp</text>
</a>
</g>
</g>
<!-- Node1&#45;&gt;Node13 -->
<g id="edge40_Node000001_Node000013" class="edge">
<title>Node1&#45;&gt;Node13</title>
<g id="a_edge40_Node000001_Node000013"><a xlink:title=" ">
<path fill="none" stroke="#63b8ff" d="M397.05,-211.65C397.25,-200.1 397.38,-177.85 395.86,-159 393.64,-131.48 388.57,-99.86 385.18,-80.54"/>
<polygon fill="#63b8ff" stroke="#63b8ff" points="388.58,-79.69 383.37,-70.47 381.69,-80.93 388.58,-79.69"/>
</a>
</g>
</g>
<!-- Node16 -->
<g id="Node000016" class="node">
<title>Node16</title>
<g id="a_Node000016"><a xlink:href="../../da/d45/heap_8hpp.html" target="_top" xlink:title=" ">
<polygon fill="white" stroke="#666666" points="176.36,-176 41.36,-176 41.36,-159 176.36,-159 176.36,-176"/>
<text text-anchor="middle" x="108.86" y="-165.6" font-family="Helvetica,sans-Serif" font-size="8.00">../types/containers/heap.hpp</text>
</a>
</g>
</g>
<!-- Node1&#45;&gt;Node16 -->
<g id="edge22_Node000001_Node000016" class="edge">
<title>Node1&#45;&gt;Node16</title>
<g id="a_edge22_Node000001_Node000016"><a xlink:title=" ">
<path fill="none" stroke="#63b8ff" d="M369.24,-214.61C321.43,-206.14 222.49,-188.62 161.28,-177.78"/>
<polygon fill="#63b8ff" stroke="#63b8ff" points="161.89,-174.34 151.43,-176.04 160.66,-181.23 161.89,-174.34"/>
</a>
</g>
</g>
<!-- Node17 -->
<g id="Node000017" class="node">
<title>Node17</title>
<g id="a_Node000017"><a xlink:href="../../d2/d1c/solver_8hpp.html" target="_top" xlink:title=" ">
<polygon fill="white" stroke="#666666" points="588.86,-176 506.86,-176 506.86,-159 588.86,-159 588.86,-176"/>
<text text-anchor="middle" x="547.86" y="-165.6" font-family="Helvetica,sans-Serif" font-size="8.00">base/solver.hpp</text>
</a>
</g>
</g>
<!-- Node1&#45;&gt;Node17 -->
<g id="edge29_Node000001_Node000017" class="edge">
<title>Node1&#45;&gt;Node17</title>
<g id="a_edge29_Node000001_Node000017"><a xlink:title=" ">
<path fill="none" stroke="#63b8ff" d="M419.14,-211.97C444.68,-203.35 486.74,-189.14 515.8,-179.33"/>
<polygon fill="#63b8ff" stroke="#63b8ff" points="517.13,-182.57 525.49,-176.06 514.89,-175.94 517.13,-182.57"/>
</a>
</g>
</g>
<!-- Node19 -->
<g id="Node000019" class="node">
<title>Node19</title>
<g id="a_Node000019"><a xlink:href="../../d0/def/unmanaged__node_8hpp.html" target="_top" xlink:title=" ">
<polygon fill="white" stroke="#666666" points="834.86,-176 702.86,-176 702.86,-159 834.86,-159 834.86,-176"/>
<text text-anchor="middle" x="768.86" y="-165.6" font-family="Helvetica,sans-Serif" font-size="8.00">base/unmanaged_node.hpp</text>
</a>
</g>
</g>
<!-- Node1&#45;&gt;Node19 -->
<g id="edge37_Node000001_Node000019" class="edge">
<title>Node1&#45;&gt;Node19</title>
<g id="a_edge37_Node000001_Node000019"><a xlink:title=" ">
<path fill="none" stroke="#63b8ff" d="M424.52,-215.71C483.19,-207.66 621.5,-188.7 703.87,-177.41"/>
<polygon fill="#63b8ff" stroke="#63b8ff" points="704.44,-180.86 713.87,-176.04 703.49,-173.93 704.44,-180.86"/>
</a>
</g>
</g>
<!-- Node5&#45;&gt;Node2 -->
<g id="edge5_Node000005_Node000002" class="edge">
<title>Node5&#45;&gt;Node2</title>
<g id="a_edge5_Node000005_Node000002"><a xlink:title=" ">
<path fill="none" stroke="#63b8ff" d="M277.22,-158.77C261.94,-139.99 226.99,-90.73 245.86,-53 252.59,-39.54 265.68,-29.17 277.72,-21.93"/>
<polygon fill="#63b8ff" stroke="#63b8ff" points="279.55,-24.92 286.6,-17.01 276.16,-18.8 279.55,-24.92"/>
</a>
</g>
</g>
<!-- Node5&#45;&gt;Node3 -->
<g id="edge9_Node000005_Node000003" class="edge">
<title>Node5&#45;&gt;Node3</title>
<g id="a_edge9_Node000005_Node000003"><a xlink:title=" ">
<path fill="none" stroke="#63b8ff" d="M283.93,-158.68C284.09,-142.11 284.47,-103.11 284.69,-80.18"/>
<polygon fill="#63b8ff" stroke="#63b8ff" points="288.19,-80.16 284.79,-70.12 281.19,-80.09 288.19,-80.16"/>
</a>
</g>
</g>
<!-- Node5&#45;&gt;Node4 -->
<g id="edge10_Node000005_Node000004" class="edge">
<title>Node5&#45;&gt;Node4</title>
<g id="a_edge10_Node000005_Node000004"><a xlink:title=" ">
<path fill="none" stroke="#63b8ff" d="M293.89,-158.97C304.34,-151.14 320.93,-138.7 333.68,-129.13"/>
<polygon fill="#63b8ff" stroke="#63b8ff" points="335.88,-131.86 341.78,-123.06 331.68,-126.26 335.88,-131.86"/>
</a>
</g>
</g>
<!-- Node6 -->
<g id="Node000006" class="node">
<title>Node6</title>
<g id="a_Node000006"><a xlink:title=" ">
<polygon fill="#e0e0e0" stroke="#999999" points="198.86,-70 140.86,-70 140.86,-53 198.86,-53 198.86,-70"/>
<text text-anchor="middle" x="169.86" y="-59.6" font-family="Helvetica,sans-Serif" font-size="8.00">functional</text>
</a>
</g>
</g>
<!-- Node5&#45;&gt;Node6 -->
<g id="edge6_Node000005_Node000006" class="edge">
<title>Node5&#45;&gt;Node6</title>
<g id="a_edge6_Node000005_Node000006"><a xlink:title=" ">
<path fill="none" stroke="#63b8ff" d="M267.66,-158.97C252.39,-151.34 229.45,-138.49 212.86,-123 199.05,-110.1 186.95,-92.13 179.14,-79.13"/>
<polygon fill="#63b8ff" stroke="#63b8ff" points="182.08,-77.22 174.04,-70.32 176.02,-80.73 182.08,-77.22"/>
</a>
</g>
</g>
<!-- Node7 -->
<g id="Node000007" class="node">
<title>Node7</title>
<g id="a_Node000007"><a xlink:title=" ">
<polygon fill="#e0e0e0" stroke="#999999" points="699.86,-70 661.86,-70 661.86,-53 699.86,-53 699.86,-70"/>
<text text-anchor="middle" x="680.86" y="-59.6" font-family="Helvetica,sans-Serif" font-size="8.00">limits</text>
</a>
</g>
</g>
<!-- Node5&#45;&gt;Node7 -->
<g id="edge7_Node000005_Node000007" class="edge">
<title>Node5&#45;&gt;Node7</title>
<g id="a_edge7_Node000005_Node000007"><a xlink:title=" ">
<path fill="none" stroke="#63b8ff" d="M368.98,-166.41C434.61,-163.64 526.42,-153.77 600.86,-123 626.39,-112.45 650.99,-91.75 666.02,-77.52"/>
<polygon fill="#63b8ff" stroke="#63b8ff" points="668.61,-79.88 673.33,-70.39 663.73,-74.87 668.61,-79.88"/>
</a>
</g>
</g>
<!-- Node8 -->
<g id="Node000008" class="node">
<title>Node8</title>
<g id="a_Node000008"><a xlink:title=" ">
<polygon fill="#e0e0e0" stroke="#999999" points="160.36,-123 71.36,-123 71.36,-106 160.36,-106 160.36,-123"/>
<text text-anchor="middle" x="115.86" y="-112.6" font-family="Helvetica,sans-Serif" font-size="8.00">memory_resource</text>
</a>
</g>
</g>
<!-- Node5&#45;&gt;Node8 -->
<g id="edge8_Node000005_Node000008" class="edge">
<title>Node5&#45;&gt;Node8</title>
<g id="a_edge8_Node000005_Node000008"><a xlink:title=" ">
<path fill="none" stroke="#63b8ff" d="M259.07,-158.97C230.41,-150.27 183.04,-135.89 150.68,-126.07"/>
<polygon fill="#63b8ff" stroke="#63b8ff" points="151.34,-122.61 140.75,-123.06 149.3,-129.31 151.34,-122.61"/>
</a>
</g>
</g>
<!-- Node5&#45;&gt;Node9 -->
<g id="edge11_Node000005_Node000009" class="edge">
<title>Node5&#45;&gt;Node9</title>
<g id="a_edge11_Node000005_Node000009"><a xlink:title=" ">
<path fill="none" stroke="#63b8ff" d="M322.96,-158.97C369.83,-149.95 448.44,-134.83 499.46,-125.01"/>
<polygon fill="#63b8ff" stroke="#63b8ff" points="500.44,-128.38 509.6,-123.06 499.12,-121.51 500.44,-128.38"/>
</a>
</g>
</g>
<!-- Node5&#45;&gt;Node13 -->
<g id="edge21_Node000005_Node000013" class="edge">
<title>Node5&#45;&gt;Node13</title>
<g id="a_edge21_Node000005_Node000013"><a xlink:title=" ">
<path fill="none" stroke="#63b8ff" d="M287.49,-158.79C293.46,-146.63 306.27,-122.67 321.86,-106 332.93,-94.17 347.62,-83.46 359.7,-75.62"/>
<polygon fill="#63b8ff" stroke="#63b8ff" points="361.7,-78.49 368.32,-70.22 357.99,-72.56 361.7,-78.49"/>
</a>
</g>
</g>
<!-- Node9&#45;&gt;Node2 -->
<g id="edge14_Node000009_Node000002" class="edge">
<title>Node9&#45;&gt;Node2</title>
<g id="a_edge14_Node000009_Node000002"><a xlink:title=" ">
<path fill="none" stroke="#63b8ff" d="M537.15,-105.99C517.61,-93.68 476.81,-68.98 439.86,-53 405.81,-38.28 365.11,-25.91 337.16,-18.16"/>
<polygon fill="#63b8ff" stroke="#63b8ff" points="338.04,-14.78 327.47,-15.53 336.2,-21.53 338.04,-14.78"/>
</a>
</g>
</g>
<!-- Node9&#45;&gt;Node3 -->
<g id="edge18_Node000009_Node000003" class="edge">
<title>Node9&#45;&gt;Node3</title>
<g id="a_edge18_Node000009_Node000003"><a xlink:title=" ">
<path fill="none" stroke="#63b8ff" d="M509.25,-105.93C466.14,-97.69 394.92,-84.03 324.64,-70.34"/>
<polygon fill="#63b8ff" stroke="#63b8ff" points="325.21,-66.89 314.73,-68.41 323.87,-73.76 325.21,-66.89"/>
</a>
</g>
</g>
<!-- Node9&#45;&gt;Node6 -->
<g id="edge15_Node000009_Node000006" class="edge">
<title>Node9&#45;&gt;Node6</title>
<g id="a_edge15_Node000009_Node000006"><a xlink:title=" ">
<path fill="none" stroke="#63b8ff" d="M505.01,-107.6C430.54,-97.58 280.49,-77.39 209.2,-67.79"/>
<polygon fill="#63b8ff" stroke="#63b8ff" points="209.65,-64.32 199.27,-66.46 208.71,-71.26 209.65,-64.32"/>
</a>
</g>
</g>
<!-- Node9&#45;&gt;Node7 -->
<g id="edge16_Node000009_Node000007" class="edge">
<title>Node9&#45;&gt;Node7</title>
<g id="a_edge16_Node000009_Node000007"><a xlink:title=" ">
<path fill="none" stroke="#63b8ff" d="M568.34,-105.97C590.49,-97.41 626.89,-83.35 652.27,-73.55"/>
<polygon fill="#63b8ff" stroke="#63b8ff" points="653.66,-76.76 661.73,-69.89 651.14,-70.23 653.66,-76.76"/>
</a>
</g>
</g>
<!-- Node10 -->
<g id="Node000010" class="node">
<title>Node10</title>
<g id="a_Node000010"><a xlink:title=" ">
<polygon fill="#e0e0e0" stroke="#999999" points="525.86,-70 487.86,-70 487.86,-53 525.86,-53 525.86,-70"/>
<text text-anchor="middle" x="506.86" y="-59.6" font-family="Helvetica,sans-Serif" font-size="8.00">array</text>
</a>
</g>
</g>
<!-- Node9&#45;&gt;Node10 -->
<g id="edge12_Node000009_Node000010" class="edge">
<title>Node9&#45;&gt;Node10</title>
<g id="a_edge12_Node000009_Node000010"><a xlink:title=" ">
<path fill="none" stroke="#63b8ff" d="M542.66,-105.97C536.58,-98.59 527.13,-87.12 519.47,-77.81"/>
<polygon fill="#63b8ff" stroke="#63b8ff" points="522.14,-75.55 513.08,-70.06 516.74,-80 522.14,-75.55"/>
</a>
</g>
</g>
<!-- Node11 -->
<g id="Node000011" class="node">
<title>Node11</title>
<g id="a_Node000011"><a xlink:title=" ">
<polygon fill="#e0e0e0" stroke="#999999" points="585.86,-70 543.86,-70 543.86,-53 585.86,-53 585.86,-70"/>
<text text-anchor="middle" x="564.86" y="-59.6" font-family="Helvetica,sans-Serif" font-size="8.00">cmath</text>
</a>
</g>
</g>
<!-- Node9&#45;&gt;Node11 -->
<g id="edge13_Node000009_Node000011" class="edge">
<title>Node9&#45;&gt;Node11</title>
<g id="a_edge13_Node000009_Node000011"><a xlink:title=" ">
<path fill="none" stroke="#63b8ff" d="M551.22,-105.97C553.37,-99.12 556.63,-88.74 559.42,-79.84"/>
<polygon fill="#63b8ff" stroke="#63b8ff" points="562.83,-80.65 562.49,-70.06 556.16,-78.55 562.83,-80.65"/>
</a>
</g>
</g>
<!-- Node12 -->
<g id="Node000012" class="node">
<title>Node12</title>
<g id="a_Node000012"><a xlink:title=" ">
<polygon fill="#e0e0e0" stroke="#999999" points="643.86,-70 603.86,-70 603.86,-53 643.86,-53 643.86,-70"/>
<text text-anchor="middle" x="623.86" y="-59.6" font-family="Helvetica,sans-Serif" font-size="8.00">string</text>
</a>
</g>
</g>
<!-- Node9&#45;&gt;Node12 -->
<g id="edge17_Node000009_Node000012" class="edge">
<title>Node9&#45;&gt;Node12</title>
<g id="a_edge17_Node000009_Node000012"><a xlink:title=" ">
<path fill="none" stroke="#63b8ff" d="M559.93,-105.97C571.56,-98.07 590.09,-85.46 604.22,-75.86"/>
<polygon fill="#63b8ff" stroke="#63b8ff" points="606.45,-78.57 612.75,-70.06 602.51,-72.78 606.45,-78.57"/>
</a>
</g>
</g>
<!-- Node9&#45;&gt;Node13 -->
<g id="edge19_Node000009_Node000013" class="edge">
<title>Node9&#45;&gt;Node13</title>
<g id="a_edge19_Node000009_Node000013"><a xlink:title=" ">
<path fill="none" stroke="#63b8ff" d="M524.22,-105.97C495.73,-97.27 448.64,-82.89 416.48,-73.07"/>
<polygon fill="#63b8ff" stroke="#63b8ff" points="417.19,-69.63 406.6,-70.06 415.14,-76.32 417.19,-69.63"/>
</a>
</g>
</g>
<!-- Node13&#45;&gt;Node2 -->
<g id="edge20_Node000013_Node000002" class="edge">
<title>Node13&#45;&gt;Node2</title>
<g id="a_edge20_Node000013_Node000002"><a xlink:title=" ">
<path fill="none" stroke="#63b8ff" d="M370.35,-52.97C358.14,-44.99 338.61,-32.22 323.87,-22.58"/>
<polygon fill="#63b8ff" stroke="#63b8ff" points="325.7,-19.6 315.42,-17.06 321.87,-25.46 325.7,-19.6"/>
</a>
</g>
</g>
<!-- Node16&#45;&gt;Node2 -->
<g id="edge23_Node000016_Node000002" class="edge">
<title>Node16&#45;&gt;Node2</title>
<g id="a_edge23_Node000016_Node000002"><a xlink:title=" ">
<path fill="none" stroke="#63b8ff" d="M77.79,-158.98C46.32,-149.74 4.44,-132.03 20.86,-106 74.13,-21.54 207.14,-9.52 269.97,-8.77"/>
<polygon fill="#63b8ff" stroke="#63b8ff" points="270.15,-12.27 280.14,-8.74 270.13,-5.27 270.15,-12.27"/>
</a>
</g>
</g>
<!-- Node16&#45;&gt;Node4 -->
<g id="edge25_Node000016_Node000004" class="edge">
<title>Node16&#45;&gt;Node4</title>
<g id="a_edge25_Node000016_Node000004"><a xlink:title=" ">
<path fill="none" stroke="#63b8ff" d="M144.71,-158.97C192.36,-148.98 275.75,-131.47 320.83,-122.01"/>
<polygon fill="#63b8ff" stroke="#63b8ff" points="321.56,-125.43 330.63,-119.96 320.12,-118.58 321.56,-125.43"/>
</a>
</g>
</g>
<!-- Node16&#45;&gt;Node6 -->
<g id="edge24_Node000016_Node000006" class="edge">
<title>Node16&#45;&gt;Node6</title>
<g id="a_edge24_Node000016_Node000006"><a xlink:title=" ">
<path fill="none" stroke="#63b8ff" d="M82.67,-158.93C53.06,-149.01 11.13,-130.03 28.86,-106 51.99,-74.66 97.38,-65.2 130.43,-62.69"/>
<polygon fill="#63b8ff" stroke="#63b8ff" points="130.9,-66.17 140.69,-62.1 130.5,-59.18 130.9,-66.17"/>
</a>
</g>
</g>
<!-- Node16&#45;&gt;Node8 -->
<g id="edge26_Node000016_Node000008" class="edge">
<title>Node16&#45;&gt;Node8</title>
<g id="a_edge26_Node000016_Node000008"><a xlink:title=" ">
<path fill="none" stroke="#63b8ff" d="M109.89,-158.97C110.82,-152.19 112.23,-141.97 113.44,-133.13"/>
<polygon fill="#63b8ff" stroke="#63b8ff" points="116.93,-133.44 114.82,-123.06 109.99,-132.49 116.93,-133.44"/>
</a>
</g>
</g>
<!-- Node16&#45;&gt;Node13 -->
<g id="edge27_Node000016_Node000013" class="edge">
<title>Node16&#45;&gt;Node13</title>
<g id="a_edge27_Node000016_Node000013"><a xlink:title=" ">
<path fill="none" stroke="#63b8ff" d="M95.36,-158.83C76.41,-147.12 45.94,-124.23 61.86,-106 63.99,-103.56 230.27,-81.91 322.25,-70.11"/>
<polygon fill="#63b8ff" stroke="#63b8ff" points="322.8,-73.57 332.27,-68.82 321.91,-66.62 322.8,-73.57"/>
</a>
</g>
</g>
<!-- Node17&#45;&gt;Node2 -->
<g id="edge30_Node000017_Node000002" class="edge">
<title>Node17&#45;&gt;Node2</title>
<g id="a_edge30_Node000017_Node000002"><a xlink:title=" ">
<path fill="none" stroke="#63b8ff" d="M589.01,-162.39C636.69,-156.68 710.91,-144.54 727.86,-123 742.84,-103.96 730.61,-70.12 708.86,-53 679.89,-30.2 429.47,-15.69 337.53,-11.08"/>
<polygon fill="#63b8ff" stroke="#63b8ff" points="337.54,-7.58 327.38,-10.58 337.19,-14.57 337.54,-7.58"/>
</a>
</g>
</g>
<!-- Node17&#45;&gt;Node3 -->
<g id="edge32_Node000017_Node000003" class="edge">
<title>Node17&#45;&gt;Node3</title>
<g id="a_edge32_Node000017_Node000003"><a xlink:title=" ">
<path fill="none" stroke="#63b8ff" d="M528.52,-158.85C482.72,-140.74 367.42,-95.15 313.5,-73.83"/>
<polygon fill="#63b8ff" stroke="#63b8ff" points="314.46,-70.44 303.87,-70.02 311.88,-76.95 314.46,-70.44"/>
</a>
</g>
</g>
<!-- Node17&#45;&gt;Node4 -->
<g id="edge33_Node000017_Node000004" class="edge">
<title>Node17&#45;&gt;Node4</title>
<g id="a_edge33_Node000017_Node000004"><a xlink:title=" ">
<path fill="none" stroke="#63b8ff" d="M518.94,-158.97C482.54,-149.5 420.26,-133.3 382.89,-123.57"/>
<polygon fill="#63b8ff" stroke="#63b8ff" points="383.61,-120.14 373.05,-121.01 381.85,-126.92 383.61,-120.14"/>
</a>
</g>
</g>
<!-- Node17&#45;&gt;Node7 -->
<g id="edge31_Node000017_Node000007" class="edge">
<title>Node17&#45;&gt;Node7</title>
<g id="a_edge31_Node000017_Node000007"><a xlink:title=" ">
<path fill="none" stroke="#63b8ff" d="M588.89,-161.34C632.42,-154.92 696.95,-142.38 711.86,-123 722.82,-108.75 709.75,-90.03 697.38,-77.21"/>
<polygon fill="#63b8ff" stroke="#63b8ff" points="699.61,-74.5 689.98,-70.08 694.75,-79.54 699.61,-74.5"/>
</a>
</g>
</g>
<!-- Node17&#45;&gt;Node9 -->
<g id="edge34_Node000017_Node000009" class="edge">
<title>Node17&#45;&gt;Node9</title>
<g id="a_edge34_Node000017_Node000009"><a xlink:title=" ">
<path fill="none" stroke="#63b8ff" d="M548.01,-158.97C548.14,-152.19 548.34,-141.97 548.51,-133.13"/>
<polygon fill="#63b8ff" stroke="#63b8ff" points="552.01,-133.12 548.71,-123.06 545.02,-132.99 552.01,-133.12"/>
</a>
</g>
</g>
<!-- Node17&#45;&gt;Node13 -->
<g id="edge36_Node000017_Node000013" class="edge">
<title>Node17&#45;&gt;Node13</title>
<g id="a_edge36_Node000017_Node000013"><a xlink:title=" ">
<path fill="none" stroke="#63b8ff" d="M536.2,-158.98C518.32,-147.48 483.04,-124.85 452.86,-106 436.32,-95.67 417.5,-84.15 403.4,-75.56"/>
<polygon fill="#63b8ff" stroke="#63b8ff" points="404.83,-72.34 394.47,-70.13 401.2,-78.32 404.83,-72.34"/>
</a>
</g>
</g>
<!-- Node18 -->
<g id="Node000018" class="node">
<title>Node18</title>
<g id="a_Node000018"><a xlink:title=" ">
<polygon fill="#e0e0e0" stroke="#999999" points="702.36,-123 649.36,-123 649.36,-106 702.36,-106 702.36,-123"/>
<text text-anchor="middle" x="675.86" y="-112.6" font-family="Helvetica,sans-Serif" font-size="8.00">iostream</text>
</a>
</g>
</g>
<!-- Node17&#45;&gt;Node18 -->
<g id="edge35_Node000017_Node000018" class="edge">
<title>Node17&#45;&gt;Node18</title>
<g id="a_edge35_Node000017_Node000018"><a xlink:title=" ">
<path fill="none" stroke="#63b8ff" d="M566.75,-158.97C588.02,-150.5 622.81,-136.64 647.38,-126.85"/>
<polygon fill="#63b8ff" stroke="#63b8ff" points="648.9,-130.01 656.89,-123.06 646.31,-123.51 648.9,-130.01"/>
</a>
</g>
</g>
<!-- Node19&#45;&gt;Node13 -->
<g id="edge39_Node000019_Node000013" class="edge">
<title>Node19&#45;&gt;Node13</title>
<g id="a_edge39_Node000019_Node000013"><a xlink:title=" ">
<path fill="none" stroke="#63b8ff" d="M764.04,-158.58C755.43,-145.2 736.01,-118.36 711.86,-106 688.36,-93.97 530.22,-76.95 441.66,-68.19"/>
<polygon fill="#63b8ff" stroke="#63b8ff" points="441.77,-64.68 431.48,-67.19 441.09,-71.65 441.77,-64.68"/>
</a>
</g>
</g>
<!-- Node20 -->
<g id="Node000020" class="node">
<title>Node20</title>
<g id="a_Node000020"><a xlink:href="../../dc/d3c/bnode_8hpp.html" target="_top" xlink:title=" ">
<polygon fill="white" stroke="#666666" points="896.36,-123 835.36,-123 835.36,-106 896.36,-106 896.36,-123"/>
<text text-anchor="middle" x="865.86" y="-112.6" font-family="Helvetica,sans-Serif" font-size="8.00">bnode.hpp</text>
</a>
</g>
</g>
<!-- Node19&#45;&gt;Node20 -->
<g id="edge38_Node000019_Node000020" class="edge">
<title>Node19&#45;&gt;Node20</title>
<g id="a_edge38_Node000019_Node000020"><a xlink:title=" ">
<path fill="none" stroke="#63b8ff" d="M783.17,-158.97C798.79,-150.76 824.03,-137.49 842.52,-127.77"/>
<polygon fill="#63b8ff" stroke="#63b8ff" points="844.27,-130.81 851.49,-123.06 841.01,-124.61 844.27,-130.81"/>
</a>
</g>
</g>
</g>
</svg>
