<?xml version="1.0" encoding="UTF-8" standalone="no"?>
<!DOCTYPE svg PUBLIC "-//W3C//DTD SVG 1.1//EN"
 "http://www.w3.org/Graphics/SVG/1.1/DTD/svg11.dtd">
<!-- Generated by graphviz version 2.43.0 (0)
 -->
<!-- Title: Standard Pages: 1 -->
<svg width="355pt" height="26pt"
 viewBox="0.00 0.00 355.00 25.50" xmlns="http://www.w3.org/2000/svg" xmlns:xlink="http://www.w3.org/1999/xlink">
<g id="graph0" class="graph" transform="scale(1 1) rotate(0) translate(4 21.5)">
<title>Standard</title>
<!-- Node2 -->
<g id="Node000002" class="node">
<title>Node2</title>
<g id="a_Node000002"><a xlink:href="../../d5/d91/group__Single-Target.html" target="_top" xlink:title="Solvers which route to a single destination.">
<polygon fill="white" stroke="#666666" points="64,-17 0,-17 0,0 64,0 64,-17"/>
<text text-anchor="middle" x="32" y="-6.6" font-family="Helvetica,sans-Serif" font-size="8.00">Single&#45;Target</text>
</a>
</g>
</g>
<!-- Node1 -->
<g id="Node000001" class="node">
<title>Node1</title>
<g id="a_Node000001"><a xlink:title="Standard solver variants.">
<polygon fill="#999999" stroke="#666666" points="151,-17 101,-17 101,0 151,0 151,-17"/>
<text text-anchor="middle" x="126" y="-6.6" font-family="Helvetica,sans-Serif" font-size="8.00">Standard</text>
</a>
</g>
</g>
<!-- Node2&#45;&gt;Node1 -->
<g id="edge1" class="edge">
<title>Node2&#45;&gt;Node1</title>
<path fill="none" stroke="black" d="M74.24,-8.5C83.35,-8.5 92.71,-8.5 100.87,-8.5"/>
<polygon fill="black" stroke="black" points="74.15,-5 64.15,-8.5 74.15,-12 74.15,-5"/>
</g>
<!-- Node3 -->
<g id="Node000003" class="node">
<title>Node3</title>
<g id="a_Node000003"><a xlink:href="../../d1/d47/group__SingleTargetGraveyardOptimised.html" target="_top" xlink:title="Graveyard solvers, which dynamically prune the search tree.">
<polygon fill="white" stroke="#666666" points="347,-17 255,-17 255,0 347,0 347,-17"/>
<text text-anchor="middle" x="301" y="-6.6" font-family="Helvetica,sans-Serif" font-size="8.00">Graveyard&#45;Optimised</text>
</a>
</g>
</g>
<!-- Node1&#45;&gt;Node3 -->
<g id="edge2" class="edge">
<title>Node1&#45;&gt;Node3</title>
<path fill="none" stroke="orange" stroke-dasharray="5,2" d="M151.05,-8.5C177.79,-8.5 221.58,-8.5 254.77,-8.5"/>
<text text-anchor="middle" x="203" y="-11.1" font-family="Helvetica,sans-Serif" font-size="8.00">chdr::solvers::gstar</text>
</g>
</g>
</svg>
