<?xml version="1.0" encoding="UTF-8" standalone="no"?>
<!DOCTYPE svg PUBLIC "-//W3C//DTD SVG 1.1//EN"
 "http://www.w3.org/Graphics/SVG/1.1/DTD/svg11.dtd">
<!-- Generated by graphviz version 2.43.0 (0)
 -->
<!-- Title: heterogeneous_pool.hpp Pages: 1 -->
<svg width="682pt" height="184pt"
 viewBox="0.00 0.00 682.00 184.00" xmlns="http://www.w3.org/2000/svg" xmlns:xlink="http://www.w3.org/1999/xlink">
<g id="graph0" class="graph" transform="scale(1 1) rotate(0) translate(4 180)">
<title>heterogeneous_pool.hpp</title>
<!-- Node1 -->
<g id="Node000001" class="node">
<title>Node1</title>
<g id="a_Node000001"><a xlink:title=" ">
<polygon fill="#999999" stroke="#666666" points="276,-176 170,-176 170,-159 276,-159 276,-176"/>
<text text-anchor="middle" x="223" y="-165.6" font-family="Helvetica,sans-Serif" font-size="8.00">heterogeneous_pool.hpp</text>
</a>
</g>
</g>
<!-- Node2 -->
<g id="Node000002" class="node">
<title>Node2</title>
<g id="a_Node000002"><a xlink:title=" ">
<polygon fill="#e0e0e0" stroke="#999999" points="42,-123 0,-123 0,-106 42,-106 42,-123"/>
<text text-anchor="middle" x="21" y="-112.6" font-family="Helvetica,sans-Serif" font-size="8.00">cassert</text>
</a>
</g>
</g>
<!-- Node1&#45;&gt;Node2 -->
<g id="edge1_Node000001_Node000002" class="edge">
<title>Node1&#45;&gt;Node2</title>
<g id="a_edge1_Node000001_Node000002"><a xlink:title=" ">
<path fill="none" stroke="#63b8ff" d="M193.19,-158.97C155.48,-149.45 90.81,-133.12 52.36,-123.42"/>
<polygon fill="#63b8ff" stroke="#63b8ff" points="52.81,-119.92 42.26,-120.87 51.1,-126.71 52.81,-119.92"/>
</a>
</g>
</g>
<!-- Node3 -->
<g id="Node000003" class="node">
<title>Node3</title>
<g id="a_Node000003"><a xlink:title=" ">
<polygon fill="#e0e0e0" stroke="#999999" points="219,-17 177,-17 177,0 219,0 219,-17"/>
<text text-anchor="middle" x="198" y="-6.6" font-family="Helvetica,sans-Serif" font-size="8.00">cstddef</text>
</a>
</g>
</g>
<!-- Node1&#45;&gt;Node3 -->
<g id="edge2_Node000001_Node000003" class="edge">
<title>Node1&#45;&gt;Node3</title>
<g id="a_edge2_Node000001_Node000003"><a xlink:title=" ">
<path fill="none" stroke="#63b8ff" d="M169.8,-163.74C140.91,-159.2 107.41,-148.33 89,-123 59.26,-82.08 129.56,-40.98 170.75,-21.36"/>
<polygon fill="#63b8ff" stroke="#63b8ff" points="172.42,-24.45 180.02,-17.07 169.48,-18.09 172.42,-24.45"/>
</a>
</g>
</g>
<!-- Node4 -->
<g id="Node000004" class="node">
<title>Node4</title>
<g id="a_Node000004"><a xlink:title=" ">
<polygon fill="#e0e0e0" stroke="#999999" points="137.5,-123 98.5,-123 98.5,-106 137.5,-106 137.5,-123"/>
<text text-anchor="middle" x="118" y="-112.6" font-family="Helvetica,sans-Serif" font-size="8.00">cstdint</text>
</a>
</g>
</g>
<!-- Node1&#45;&gt;Node4 -->
<g id="edge3_Node000001_Node000004" class="edge">
<title>Node1&#45;&gt;Node4</title>
<g id="a_edge3_Node000001_Node000004"><a xlink:title=" ">
<path fill="none" stroke="#63b8ff" d="M207.51,-158.97C190.45,-150.69 162.78,-137.25 142.72,-127.5"/>
<polygon fill="#63b8ff" stroke="#63b8ff" points="144.08,-124.28 133.56,-123.06 141.02,-130.57 144.08,-124.28"/>
</a>
</g>
</g>
<!-- Node5 -->
<g id="Node000005" class="node">
<title>Node5</title>
<g id="a_Node000005"><a xlink:title=" ">
<polygon fill="#e0e0e0" stroke="#999999" points="188,-123 156,-123 156,-106 188,-106 188,-123"/>
<text text-anchor="middle" x="172" y="-112.6" font-family="Helvetica,sans-Serif" font-size="8.00">map</text>
</a>
</g>
</g>
<!-- Node1&#45;&gt;Node5 -->
<g id="edge4_Node000001_Node000005" class="edge">
<title>Node1&#45;&gt;Node5</title>
<g id="a_edge4_Node000001_Node000005"><a xlink:title=" ">
<path fill="none" stroke="#63b8ff" d="M215.47,-158.97C207.94,-151.44 196.15,-139.65 186.75,-130.25"/>
<polygon fill="#63b8ff" stroke="#63b8ff" points="189.1,-127.65 179.56,-123.06 184.15,-132.6 189.1,-127.65"/>
</a>
</g>
</g>
<!-- Node6 -->
<g id="Node000006" class="node">
<title>Node6</title>
<g id="a_Node000006"><a xlink:title=" ">
<polygon fill="#e0e0e0" stroke="#999999" points="240,-123 206,-123 206,-106 240,-106 240,-123"/>
<text text-anchor="middle" x="223" y="-112.6" font-family="Helvetica,sans-Serif" font-size="8.00">utility</text>
</a>
</g>
</g>
<!-- Node1&#45;&gt;Node6 -->
<g id="edge5_Node000001_Node000006" class="edge">
<title>Node1&#45;&gt;Node6</title>
<g id="a_edge5_Node000001_Node000006"><a xlink:title=" ">
<path fill="none" stroke="#63b8ff" d="M223,-158.97C223,-152.19 223,-141.97 223,-133.13"/>
<polygon fill="#63b8ff" stroke="#63b8ff" points="226.5,-133.06 223,-123.06 219.5,-133.06 226.5,-133.06"/>
</a>
</g>
</g>
<!-- Node7 -->
<g id="Node000007" class="node">
<title>Node7</title>
<g id="a_Node000007"><a xlink:title=" ">
<polygon fill="#e0e0e0" stroke="#999999" points="296,-123 258,-123 258,-106 296,-106 296,-123"/>
<text text-anchor="middle" x="277" y="-112.6" font-family="Helvetica,sans-Serif" font-size="8.00">vector</text>
</a>
</g>
</g>
<!-- Node1&#45;&gt;Node7 -->
<g id="edge6_Node000001_Node000007" class="edge">
<title>Node1&#45;&gt;Node7</title>
<g id="a_edge6_Node000001_Node000007"><a xlink:title=" ">
<path fill="none" stroke="#63b8ff" d="M230.97,-158.97C239.02,-151.37 251.68,-139.41 261.68,-129.97"/>
<polygon fill="#63b8ff" stroke="#63b8ff" points="264.13,-132.47 269,-123.06 259.33,-127.38 264.13,-132.47"/>
</a>
</g>
</g>
<!-- Node8 -->
<g id="Node000008" class="node">
<title>Node8</title>
<g id="a_Node000008"><a xlink:title=" ">
<polygon fill="#e0e0e0" stroke="#999999" points="396,-123 314,-123 314,-106 396,-106 396,-123"/>
<text text-anchor="middle" x="355" y="-112.6" font-family="Helvetica,sans-Serif" font-size="8.00">memory_resource</text>
</a>
</g>
</g>
<!-- Node1&#45;&gt;Node8 -->
<g id="edge7_Node000001_Node000008" class="edge">
<title>Node1&#45;&gt;Node8</title>
<g id="a_edge7_Node000001_Node000008"><a xlink:title=" ">
<path fill="none" stroke="#63b8ff" d="M242.48,-158.97C264.51,-150.46 300.61,-136.51 325.97,-126.72"/>
<polygon fill="#63b8ff" stroke="#63b8ff" points="327.38,-129.92 335.44,-123.06 324.85,-123.4 327.38,-129.92"/>
</a>
</g>
</g>
<!-- Node9 -->
<g id="Node000009" class="node">
<title>Node9</title>
<g id="a_Node000009"><a xlink:href="../../d7/d65/intrinsics_8hpp.html" target="_top" xlink:title=" ">
<polygon fill="white" stroke="#666666" points="673,-70 581,-70 581,-53 673,-53 673,-70"/>
<text text-anchor="middle" x="627" y="-59.6" font-family="Helvetica,sans-Serif" font-size="8.00">../../utils/intrinsics.hpp</text>
</a>
</g>
</g>
<!-- Node1&#45;&gt;Node9 -->
<g id="edge8_Node000001_Node000009" class="edge">
<title>Node1&#45;&gt;Node9</title>
<g id="a_edge8_Node000001_Node000009"><a xlink:title=" ">
<path fill="none" stroke="#63b8ff" d="M276.2,-162.55C332.34,-157.36 422.91,-146.04 498,-123 537.25,-110.96 579.83,-89.1 604.92,-75.22"/>
<polygon fill="#63b8ff" stroke="#63b8ff" points="606.94,-78.1 613.94,-70.15 603.51,-72 606.94,-78.1"/>
</a>
</g>
</g>
<!-- Node12 -->
<g id="Node000012" class="node">
<title>Node12</title>
<g id="a_Node000012"><a xlink:href="../../df/d93/utils_8hpp.html" target="_top" xlink:title=" ">
<polygon fill="white" stroke="#666666" points="489.5,-123 414.5,-123 414.5,-106 489.5,-106 489.5,-123"/>
<text text-anchor="middle" x="452" y="-112.6" font-family="Helvetica,sans-Serif" font-size="8.00">../../utils/utils.hpp</text>
</a>
</g>
</g>
<!-- Node1&#45;&gt;Node12 -->
<g id="edge12_Node000001_Node000012" class="edge">
<title>Node1&#45;&gt;Node12</title>
<g id="a_edge12_Node000001_Node000012"><a xlink:title=" ">
<path fill="none" stroke="#63b8ff" d="M256.79,-158.97C296.96,-150.03 364.09,-135.08 408.2,-125.25"/>
<polygon fill="#63b8ff" stroke="#63b8ff" points="409.07,-128.65 418.07,-123.06 407.55,-121.81 409.07,-128.65"/>
</a>
</g>
</g>
<!-- Node9&#45;&gt;Node3 -->
<g id="edge10_Node000009_Node000003" class="edge">
<title>Node9&#45;&gt;Node3</title>
<g id="a_edge10_Node000009_Node000003"><a xlink:title=" ">
<path fill="none" stroke="#63b8ff" d="M580.8,-54.13C577.82,-53.74 574.87,-53.36 572,-53 445.1,-36.97 293.68,-20.03 229.37,-12.94"/>
<polygon fill="#63b8ff" stroke="#63b8ff" points="229.43,-9.42 219.11,-11.81 228.66,-16.38 229.43,-9.42"/>
</a>
</g>
</g>
<!-- Node10 -->
<g id="Node000010" class="node">
<title>Node10</title>
<g id="a_Node000010"><a xlink:title=" ">
<polygon fill="#e0e0e0" stroke="#999999" points="618,-17 578,-17 578,0 618,0 618,-17"/>
<text text-anchor="middle" x="598" y="-6.6" font-family="Helvetica,sans-Serif" font-size="8.00">atomic</text>
</a>
</g>
</g>
<!-- Node9&#45;&gt;Node10 -->
<g id="edge9_Node000009_Node000010" class="edge">
<title>Node9&#45;&gt;Node10</title>
<g id="a_edge9_Node000009_Node000010"><a xlink:title=" ">
<path fill="none" stroke="#63b8ff" d="M622.72,-52.97C618.69,-45.89 612.53,-35.05 607.36,-25.96"/>
<polygon fill="#63b8ff" stroke="#63b8ff" points="610.28,-24.02 602.3,-17.06 604.2,-27.48 610.28,-24.02"/>
</a>
</g>
</g>
<!-- Node11 -->
<g id="Node000011" class="node">
<title>Node11</title>
<g id="a_Node000011"><a xlink:title=" ">
<polygon fill="#e0e0e0" stroke="#999999" points="674,-17 636,-17 636,0 674,0 674,-17"/>
<text text-anchor="middle" x="655" y="-6.6" font-family="Helvetica,sans-Serif" font-size="8.00">cstdlib</text>
</a>
</g>
</g>
<!-- Node9&#45;&gt;Node11 -->
<g id="edge11_Node000009_Node000011" class="edge">
<title>Node9&#45;&gt;Node11</title>
<g id="a_edge11_Node000009_Node000011"><a xlink:title=" ">
<path fill="none" stroke="#63b8ff" d="M631.13,-52.97C635.02,-45.89 640.97,-35.05 645.96,-25.96"/>
<polygon fill="#63b8ff" stroke="#63b8ff" points="649.11,-27.51 650.85,-17.06 642.97,-24.14 649.11,-27.51"/>
</a>
</g>
</g>
<!-- Node12&#45;&gt;Node3 -->
<g id="edge15_Node000012_Node000003" class="edge">
<title>Node12&#45;&gt;Node3</title>
<g id="a_edge15_Node000012_Node000003"><a xlink:title=" ">
<path fill="none" stroke="#63b8ff" d="M414.45,-107.06C349.02,-95.76 220.7,-73.28 217,-70 204.89,-59.28 200.43,-40.95 198.81,-27.26"/>
<polygon fill="#63b8ff" stroke="#63b8ff" points="202.29,-26.83 198.03,-17.13 195.31,-27.37 202.29,-26.83"/>
</a>
</g>
</g>
<!-- Node12&#45;&gt;Node9 -->
<g id="edge20_Node000012_Node000009" class="edge">
<title>Node12&#45;&gt;Node9</title>
<g id="a_edge20_Node000012_Node000009"><a xlink:title=" ">
<path fill="none" stroke="#63b8ff" d="M477.82,-105.97C507.81,-97.24 557.45,-82.77 591.16,-72.94"/>
<polygon fill="#63b8ff" stroke="#63b8ff" points="592.45,-76.21 601.07,-70.06 590.49,-69.49 592.45,-76.21"/>
</a>
</g>
</g>
<!-- Node13 -->
<g id="Node000013" class="node">
<title>Node13</title>
<g id="a_Node000013"><a xlink:title=" ">
<polygon fill="#e0e0e0" stroke="#999999" points="562.5,-70 527.5,-70 527.5,-53 562.5,-53 562.5,-70"/>
<text text-anchor="middle" x="545" y="-59.6" font-family="Helvetica,sans-Serif" font-size="8.00">array</text>
</a>
</g>
</g>
<!-- Node12&#45;&gt;Node13 -->
<g id="edge13_Node000012_Node000013" class="edge">
<title>Node12&#45;&gt;Node13</title>
<g id="a_edge13_Node000012_Node000013"><a xlink:title=" ">
<path fill="none" stroke="#63b8ff" d="M465.72,-105.97C480.56,-97.84 504.45,-84.74 522.13,-75.04"/>
<polygon fill="#63b8ff" stroke="#63b8ff" points="524.14,-77.93 531.22,-70.06 520.77,-71.8 524.14,-77.93"/>
</a>
</g>
</g>
<!-- Node14 -->
<g id="Node000014" class="node">
<title>Node14</title>
<g id="a_Node000014"><a xlink:title=" ">
<polygon fill="#e0e0e0" stroke="#999999" points="264,-70 226,-70 226,-53 264,-53 264,-70"/>
<text text-anchor="middle" x="245" y="-59.6" font-family="Helvetica,sans-Serif" font-size="8.00">cmath</text>
</a>
</g>
</g>
<!-- Node12&#45;&gt;Node14 -->
<g id="edge14_Node000012_Node000014" class="edge">
<title>Node12&#45;&gt;Node14</title>
<g id="a_edge14_Node000012_Node000014"><a xlink:title=" ">
<path fill="none" stroke="#63b8ff" d="M419.93,-105.95C386.03,-97.91 330.75,-84.65 274.1,-70.24"/>
<polygon fill="#63b8ff" stroke="#63b8ff" points="274.82,-66.81 264.26,-67.72 273.09,-73.59 274.82,-66.81"/>
</a>
</g>
</g>
<!-- Node15 -->
<g id="Node000015" class="node">
<title>Node15</title>
<g id="a_Node000015"><a xlink:title=" ">
<polygon fill="#e0e0e0" stroke="#999999" points="332,-70 282,-70 282,-53 332,-53 332,-70"/>
<text text-anchor="middle" x="307" y="-59.6" font-family="Helvetica,sans-Serif" font-size="8.00">functional</text>
</a>
</g>
</g>
<!-- Node12&#45;&gt;Node15 -->
<g id="edge16_Node000012_Node000015" class="edge">
<title>Node12&#45;&gt;Node15</title>
<g id="a_edge16_Node000012_Node000015"><a xlink:title=" ">
<path fill="none" stroke="#63b8ff" d="M430.6,-105.97C406.19,-97.39 366.04,-83.27 338.15,-73.46"/>
<polygon fill="#63b8ff" stroke="#63b8ff" points="339.08,-70.07 328.48,-70.06 336.76,-76.68 339.08,-70.07"/>
</a>
</g>
</g>
<!-- Node16 -->
<g id="Node000016" class="node">
<title>Node16</title>
<g id="a_Node000016"><a xlink:title=" ">
<polygon fill="#e0e0e0" stroke="#999999" points="384,-70 350,-70 350,-53 384,-53 384,-70"/>
<text text-anchor="middle" x="367" y="-59.6" font-family="Helvetica,sans-Serif" font-size="8.00">limits</text>
</a>
</g>
</g>
<!-- Node12&#45;&gt;Node16 -->
<g id="edge17_Node000012_Node000016" class="edge">
<title>Node12&#45;&gt;Node16</title>
<g id="a_edge17_Node000012_Node000016"><a xlink:title=" ">
<path fill="none" stroke="#63b8ff" d="M439.46,-105.97C426.02,-97.91 404.46,-84.98 388.35,-75.31"/>
<polygon fill="#63b8ff" stroke="#63b8ff" points="389.97,-72.2 379.59,-70.06 386.37,-78.2 389.97,-72.2"/>
</a>
</g>
</g>
<!-- Node17 -->
<g id="Node000017" class="node">
<title>Node17</title>
<g id="a_Node000017"><a xlink:title=" ">
<polygon fill="#e0e0e0" stroke="#999999" points="438,-70 402,-70 402,-53 438,-53 438,-70"/>
<text text-anchor="middle" x="420" y="-59.6" font-family="Helvetica,sans-Serif" font-size="8.00">string</text>
</a>
</g>
</g>
<!-- Node12&#45;&gt;Node17 -->
<g id="edge18_Node000012_Node000017" class="edge">
<title>Node12&#45;&gt;Node17</title>
<g id="a_edge18_Node000012_Node000017"><a xlink:title=" ">
<path fill="none" stroke="#63b8ff" d="M447.28,-105.97C442.79,-98.82 435.89,-87.82 430.15,-78.67"/>
<polygon fill="#63b8ff" stroke="#63b8ff" points="433.02,-76.67 424.74,-70.06 427.09,-80.39 433.02,-76.67"/>
</a>
</g>
</g>
<!-- Node18 -->
<g id="Node000018" class="node">
<title>Node18</title>
<g id="a_Node000018"><a xlink:title=" ">
<polygon fill="#e0e0e0" stroke="#999999" points="509.5,-70 456.5,-70 456.5,-53 509.5,-53 509.5,-70"/>
<text text-anchor="middle" x="483" y="-59.6" font-family="Helvetica,sans-Serif" font-size="8.00">type_traits</text>
</a>
</g>
</g>
<!-- Node12&#45;&gt;Node18 -->
<g id="edge19_Node000012_Node000018" class="edge">
<title>Node12&#45;&gt;Node18</title>
<g id="a_edge19_Node000012_Node000018"><a xlink:title=" ">
<path fill="none" stroke="#63b8ff" d="M456.57,-105.97C460.92,-98.82 467.61,-87.82 473.17,-78.67"/>
<polygon fill="#63b8ff" stroke="#63b8ff" points="476.2,-80.42 478.41,-70.06 470.22,-76.78 476.2,-80.42"/>
</a>
</g>
</g>
</g>
</svg>
