<?xml version="1.0" encoding="UTF-8" standalone="no"?>
<!DOCTYPE svg PUBLIC "-//W3C//DTD SVG 1.1//EN"
 "http://www.w3.org/Graphics/SVG/1.1/DTD/svg11.dtd">
<!-- Generated by graphviz version 2.43.0 (0)
 -->
<!-- Title: heterogeneous_pool.hpp Pages: 1 -->
<svg width="733pt" height="184pt"
 viewBox="0.00 0.00 733.00 184.00" xmlns="http://www.w3.org/2000/svg" xmlns:xlink="http://www.w3.org/1999/xlink">
<g id="graph0" class="graph" transform="scale(1 1) rotate(0) translate(4 180)">
<title>heterogeneous_pool.hpp</title>
<!-- Node1 -->
<g id="Node000001" class="node">
<title>Node1</title>
<g id="a_Node000001"><a xlink:title=" ">
<polygon fill="#999999" stroke="#666666" points="313,-176 207,-176 207,-159 313,-159 313,-176"/>
<text text-anchor="middle" x="260" y="-165.6" font-family="Helvetica,sans-Serif" font-size="8.00">heterogeneous_pool.hpp</text>
</a>
</g>
</g>
<!-- Node2 -->
<g id="Node000002" class="node">
<title>Node2</title>
<g id="a_Node000002"><a xlink:title=" ">
<polygon fill="#e0e0e0" stroke="#999999" points="42,-123 0,-123 0,-106 42,-106 42,-123"/>
<text text-anchor="middle" x="21" y="-112.6" font-family="Helvetica,sans-Serif" font-size="8.00">cassert</text>
</a>
</g>
</g>
<!-- Node1&#45;&gt;Node2 -->
<g id="edge1_Node000001_Node000002" class="edge">
<title>Node1&#45;&gt;Node2</title>
<g id="a_edge1_Node000001_Node000002"><a xlink:title=" ">
<path fill="none" stroke="#63b8ff" d="M224.62,-158.97C183.93,-150.3 115.14,-135.64 56,-123 54.74,-122.73 53.44,-122.45 52.14,-122.17"/>
<polygon fill="#63b8ff" stroke="#63b8ff" points="52.61,-118.7 42.1,-120.02 51.14,-125.54 52.61,-118.7"/>
</a>
</g>
</g>
<!-- Node3 -->
<g id="Node000003" class="node">
<title>Node3</title>
<g id="a_Node000003"><a xlink:title=" ">
<polygon fill="#e0e0e0" stroke="#999999" points="322,-17 280,-17 280,0 322,0 322,-17"/>
<text text-anchor="middle" x="301" y="-6.6" font-family="Helvetica,sans-Serif" font-size="8.00">cstddef</text>
</a>
</g>
</g>
<!-- Node1&#45;&gt;Node3 -->
<g id="edge2_Node000001_Node000003" class="edge">
<title>Node1&#45;&gt;Node3</title>
<g id="a_edge2_Node000001_Node000003"><a xlink:title=" ">
<path fill="none" stroke="#63b8ff" d="M206.91,-166.26C147.12,-163.79 61.63,-152.37 89,-106 127.01,-41.6 220.73,-19.88 269.84,-12.79"/>
<polygon fill="#63b8ff" stroke="#63b8ff" points="270.44,-16.24 279.89,-11.46 269.52,-9.3 270.44,-16.24"/>
</a>
</g>
</g>
<!-- Node4 -->
<g id="Node000004" class="node">
<title>Node4</title>
<g id="a_Node000004"><a xlink:title=" ">
<polygon fill="#e0e0e0" stroke="#999999" points="137.5,-123 98.5,-123 98.5,-106 137.5,-106 137.5,-123"/>
<text text-anchor="middle" x="118" y="-112.6" font-family="Helvetica,sans-Serif" font-size="8.00">cstdint</text>
</a>
</g>
</g>
<!-- Node1&#45;&gt;Node4 -->
<g id="edge3_Node000001_Node000004" class="edge">
<title>Node1&#45;&gt;Node4</title>
<g id="a_edge3_Node000001_Node000004"><a xlink:title=" ">
<path fill="none" stroke="#63b8ff" d="M239.05,-158.97C214.72,-150.24 174.46,-135.78 147.1,-125.95"/>
<polygon fill="#63b8ff" stroke="#63b8ff" points="148.26,-122.65 137.67,-122.56 145.89,-129.24 148.26,-122.65"/>
</a>
</g>
</g>
<!-- Node5 -->
<g id="Node000005" class="node">
<title>Node5</title>
<g id="a_Node000005"><a xlink:title=" ">
<polygon fill="#e0e0e0" stroke="#999999" points="228,-70 194,-70 194,-53 228,-53 228,-70"/>
<text text-anchor="middle" x="211" y="-59.6" font-family="Helvetica,sans-Serif" font-size="8.00">limits</text>
</a>
</g>
</g>
<!-- Node1&#45;&gt;Node5 -->
<g id="edge4_Node000001_Node000005" class="edge">
<title>Node1&#45;&gt;Node5</title>
<g id="a_edge4_Node000001_Node000005"><a xlink:title=" ">
<path fill="none" stroke="#63b8ff" d="M233.87,-158.91C216.66,-152.4 195.44,-141.13 185,-123 176.56,-108.35 186.55,-90.44 196.49,-77.92"/>
<polygon fill="#63b8ff" stroke="#63b8ff" points="199.25,-80.08 203.14,-70.22 193.95,-75.5 199.25,-80.08"/>
</a>
</g>
</g>
<!-- Node6 -->
<g id="Node000006" class="node">
<title>Node6</title>
<g id="a_Node000006"><a xlink:title=" ">
<polygon fill="#e0e0e0" stroke="#999999" points="226,-123 194,-123 194,-106 226,-106 226,-123"/>
<text text-anchor="middle" x="210" y="-112.6" font-family="Helvetica,sans-Serif" font-size="8.00">map</text>
</a>
</g>
</g>
<!-- Node1&#45;&gt;Node6 -->
<g id="edge5_Node000001_Node000006" class="edge">
<title>Node1&#45;&gt;Node6</title>
<g id="a_edge5_Node000001_Node000006"><a xlink:title=" ">
<path fill="none" stroke="#63b8ff" d="M252.62,-158.97C245.24,-151.44 233.68,-139.65 224.46,-130.25"/>
<polygon fill="#63b8ff" stroke="#63b8ff" points="226.91,-127.75 217.41,-123.06 221.91,-132.65 226.91,-127.75"/>
</a>
</g>
</g>
<!-- Node7 -->
<g id="Node000007" class="node">
<title>Node7</title>
<g id="a_Node000007"><a xlink:title=" ">
<polygon fill="#e0e0e0" stroke="#999999" points="276,-123 244,-123 244,-106 276,-106 276,-123"/>
<text text-anchor="middle" x="260" y="-112.6" font-family="Helvetica,sans-Serif" font-size="8.00">new</text>
</a>
</g>
</g>
<!-- Node1&#45;&gt;Node7 -->
<g id="edge6_Node000001_Node000007" class="edge">
<title>Node1&#45;&gt;Node7</title>
<g id="a_edge6_Node000001_Node000007"><a xlink:title=" ">
<path fill="none" stroke="#63b8ff" d="M260,-158.97C260,-152.19 260,-141.97 260,-133.13"/>
<polygon fill="#63b8ff" stroke="#63b8ff" points="263.5,-133.06 260,-123.06 256.5,-133.06 263.5,-133.06"/>
</a>
</g>
</g>
<!-- Node8 -->
<g id="Node000008" class="node">
<title>Node8</title>
<g id="a_Node000008"><a xlink:title=" ">
<polygon fill="#e0e0e0" stroke="#999999" points="328,-123 294,-123 294,-106 328,-106 328,-123"/>
<text text-anchor="middle" x="311" y="-112.6" font-family="Helvetica,sans-Serif" font-size="8.00">utility</text>
</a>
</g>
</g>
<!-- Node1&#45;&gt;Node8 -->
<g id="edge7_Node000001_Node000008" class="edge">
<title>Node1&#45;&gt;Node8</title>
<g id="a_edge7_Node000001_Node000008"><a xlink:title=" ">
<path fill="none" stroke="#63b8ff" d="M267.53,-158.97C275.06,-151.44 286.85,-139.65 296.25,-130.25"/>
<polygon fill="#63b8ff" stroke="#63b8ff" points="298.85,-132.6 303.44,-123.06 293.9,-127.65 298.85,-132.6"/>
</a>
</g>
</g>
<!-- Node9 -->
<g id="Node000009" class="node">
<title>Node9</title>
<g id="a_Node000009"><a xlink:title=" ">
<polygon fill="#e0e0e0" stroke="#999999" points="384,-123 346,-123 346,-106 384,-106 384,-123"/>
<text text-anchor="middle" x="365" y="-112.6" font-family="Helvetica,sans-Serif" font-size="8.00">vector</text>
</a>
</g>
</g>
<!-- Node1&#45;&gt;Node9 -->
<g id="edge8_Node000001_Node000009" class="edge">
<title>Node1&#45;&gt;Node9</title>
<g id="a_edge8_Node000001_Node000009"><a xlink:title=" ">
<path fill="none" stroke="#63b8ff" d="M275.49,-158.97C292.55,-150.69 320.22,-137.25 340.28,-127.5"/>
<polygon fill="#63b8ff" stroke="#63b8ff" points="341.98,-130.57 349.44,-123.06 338.92,-124.28 341.98,-130.57"/>
</a>
</g>
</g>
<!-- Node10 -->
<g id="Node000010" class="node">
<title>Node10</title>
<g id="a_Node000010"><a xlink:title=" ">
<polygon fill="#e0e0e0" stroke="#999999" points="484,-123 402,-123 402,-106 484,-106 484,-123"/>
<text text-anchor="middle" x="443" y="-112.6" font-family="Helvetica,sans-Serif" font-size="8.00">memory_resource</text>
</a>
</g>
</g>
<!-- Node1&#45;&gt;Node10 -->
<g id="edge9_Node000001_Node000010" class="edge">
<title>Node1&#45;&gt;Node10</title>
<g id="a_edge9_Node000001_Node000010"><a xlink:title=" ">
<path fill="none" stroke="#63b8ff" d="M287,-158.97C318.49,-150.2 370.72,-135.64 405.98,-125.82"/>
<polygon fill="#63b8ff" stroke="#63b8ff" points="407.19,-129.11 415.89,-123.06 405.31,-122.37 407.19,-129.11"/>
</a>
</g>
</g>
<!-- Node11 -->
<g id="Node000011" class="node">
<title>Node11</title>
<g id="a_Node000011"><a xlink:href="../../d7/d65/intrinsics_8hpp.html" target="_top" xlink:title=" ">
<polygon fill="white" stroke="#666666" points="724,-70 632,-70 632,-53 724,-53 724,-70"/>
<text text-anchor="middle" x="678" y="-59.6" font-family="Helvetica,sans-Serif" font-size="8.00">../../utils/intrinsics.hpp</text>
</a>
</g>
</g>
<!-- Node1&#45;&gt;Node11 -->
<g id="edge10_Node000001_Node000011" class="edge">
<title>Node1&#45;&gt;Node11</title>
<g id="a_edge10_Node000001_Node000011"><a xlink:title=" ">
<path fill="none" stroke="#63b8ff" d="M313.02,-166.71C379.21,-165.36 494.92,-157.6 587,-123 615.43,-112.32 643.89,-91.33 661.22,-77.11"/>
<polygon fill="#63b8ff" stroke="#63b8ff" points="663.82,-79.5 669.22,-70.38 659.31,-74.15 663.82,-79.5"/>
</a>
</g>
</g>
<!-- Node14 -->
<g id="Node000014" class="node">
<title>Node14</title>
<g id="a_Node000014"><a xlink:href="../../df/d93/utils_8hpp.html" target="_top" xlink:title=" ">
<polygon fill="white" stroke="#666666" points="577.5,-123 502.5,-123 502.5,-106 577.5,-106 577.5,-123"/>
<text text-anchor="middle" x="540" y="-112.6" font-family="Helvetica,sans-Serif" font-size="8.00">../../utils/utils.hpp</text>
</a>
</g>
</g>
<!-- Node1&#45;&gt;Node14 -->
<g id="edge14_Node000001_Node000014" class="edge">
<title>Node1&#45;&gt;Node14</title>
<g id="a_edge14_Node000001_Node000014"><a xlink:title=" ">
<path fill="none" stroke="#63b8ff" d="M301.31,-158.97C352.19,-149.71 438.45,-134 492.15,-124.22"/>
<polygon fill="#63b8ff" stroke="#63b8ff" points="492.9,-127.64 502.11,-122.4 491.65,-120.75 492.9,-127.64"/>
</a>
</g>
</g>
<!-- Node11&#45;&gt;Node3 -->
<g id="edge12_Node000011_Node000003" class="edge">
<title>Node11&#45;&gt;Node3</title>
<g id="a_edge12_Node000011_Node000003"><a xlink:title=" ">
<path fill="none" stroke="#63b8ff" d="M631.79,-54.19C628.81,-53.79 625.86,-53.39 623,-53 516.4,-38.53 389.93,-21.48 332.35,-13.72"/>
<polygon fill="#63b8ff" stroke="#63b8ff" points="332.48,-10.21 322.1,-12.34 331.54,-17.14 332.48,-10.21"/>
</a>
</g>
</g>
<!-- Node12 -->
<g id="Node000012" class="node">
<title>Node12</title>
<g id="a_Node000012"><a xlink:title=" ">
<polygon fill="#e0e0e0" stroke="#999999" points="669,-17 629,-17 629,0 669,0 669,-17"/>
<text text-anchor="middle" x="649" y="-6.6" font-family="Helvetica,sans-Serif" font-size="8.00">atomic</text>
</a>
</g>
</g>
<!-- Node11&#45;&gt;Node12 -->
<g id="edge11_Node000011_Node000012" class="edge">
<title>Node11&#45;&gt;Node12</title>
<g id="a_edge11_Node000011_Node000012"><a xlink:title=" ">
<path fill="none" stroke="#63b8ff" d="M673.72,-52.97C669.69,-45.89 663.53,-35.05 658.36,-25.96"/>
<polygon fill="#63b8ff" stroke="#63b8ff" points="661.28,-24.02 653.3,-17.06 655.2,-27.48 661.28,-24.02"/>
</a>
</g>
</g>
<!-- Node13 -->
<g id="Node000013" class="node">
<title>Node13</title>
<g id="a_Node000013"><a xlink:title=" ">
<polygon fill="#e0e0e0" stroke="#999999" points="725,-17 687,-17 687,0 725,0 725,-17"/>
<text text-anchor="middle" x="706" y="-6.6" font-family="Helvetica,sans-Serif" font-size="8.00">cstdlib</text>
</a>
</g>
</g>
<!-- Node11&#45;&gt;Node13 -->
<g id="edge13_Node000011_Node000013" class="edge">
<title>Node11&#45;&gt;Node13</title>
<g id="a_edge13_Node000011_Node000013"><a xlink:title=" ">
<path fill="none" stroke="#63b8ff" d="M682.13,-52.97C686.02,-45.89 691.97,-35.05 696.96,-25.96"/>
<polygon fill="#63b8ff" stroke="#63b8ff" points="700.11,-27.51 701.85,-17.06 693.97,-24.14 700.11,-27.51"/>
</a>
</g>
</g>
<!-- Node14&#45;&gt;Node3 -->
<g id="edge17_Node000014_Node000003" class="edge">
<title>Node14&#45;&gt;Node3</title>
<g id="a_edge17_Node000014_Node000003"><a xlink:title=" ">
<path fill="none" stroke="#63b8ff" d="M502.15,-107.05C441.04,-96.49 326.78,-76.07 320,-70 307.96,-59.21 303.48,-40.88 301.85,-27.22"/>
<polygon fill="#63b8ff" stroke="#63b8ff" points="305.33,-26.81 301.05,-17.11 298.35,-27.36 305.33,-26.81"/>
</a>
</g>
</g>
<!-- Node14&#45;&gt;Node5 -->
<g id="edge19_Node000014_Node000005" class="edge">
<title>Node14&#45;&gt;Node5</title>
<g id="a_edge19_Node000014_Node000005"><a xlink:title=" ">
<path fill="none" stroke="#63b8ff" d="M502.29,-107.47C499.15,-106.97 496.02,-106.47 493,-106 399.53,-91.33 288.57,-74.34 238.24,-66.65"/>
<polygon fill="#63b8ff" stroke="#63b8ff" points="238.59,-63.17 228.17,-65.12 237.53,-70.09 238.59,-63.17"/>
</a>
</g>
</g>
<!-- Node14&#45;&gt;Node11 -->
<g id="edge22_Node000014_Node000011" class="edge">
<title>Node14&#45;&gt;Node11</title>
<g id="a_edge22_Node000014_Node000011"><a xlink:title=" ">
<path fill="none" stroke="#63b8ff" d="M560.36,-105.97C583.5,-97.42 621.48,-83.39 648,-73.59"/>
<polygon fill="#63b8ff" stroke="#63b8ff" points="649.39,-76.81 657.55,-70.06 646.96,-70.24 649.39,-76.81"/>
</a>
</g>
</g>
<!-- Node15 -->
<g id="Node000015" class="node">
<title>Node15</title>
<g id="a_Node000015"><a xlink:title=" ">
<polygon fill="#e0e0e0" stroke="#999999" points="557.5,-70 522.5,-70 522.5,-53 557.5,-53 557.5,-70"/>
<text text-anchor="middle" x="540" y="-59.6" font-family="Helvetica,sans-Serif" font-size="8.00">array</text>
</a>
</g>
</g>
<!-- Node14&#45;&gt;Node15 -->
<g id="edge15_Node000014_Node000015" class="edge">
<title>Node14&#45;&gt;Node15</title>
<g id="a_edge15_Node000014_Node000015"><a xlink:title=" ">
<path fill="none" stroke="#63b8ff" d="M540,-105.97C540,-99.19 540,-88.97 540,-80.13"/>
<polygon fill="#63b8ff" stroke="#63b8ff" points="543.5,-80.06 540,-70.06 536.5,-80.06 543.5,-80.06"/>
</a>
</g>
</g>
<!-- Node16 -->
<g id="Node000016" class="node">
<title>Node16</title>
<g id="a_Node000016"><a xlink:title=" ">
<polygon fill="#e0e0e0" stroke="#999999" points="614,-70 576,-70 576,-53 614,-53 614,-70"/>
<text text-anchor="middle" x="595" y="-59.6" font-family="Helvetica,sans-Serif" font-size="8.00">cmath</text>
</a>
</g>
</g>
<!-- Node14&#45;&gt;Node16 -->
<g id="edge16_Node000014_Node000016" class="edge">
<title>Node14&#45;&gt;Node16</title>
<g id="a_edge16_Node000014_Node000016"><a xlink:title=" ">
<path fill="none" stroke="#63b8ff" d="M548.12,-105.97C556.32,-98.37 569.21,-86.41 579.4,-76.97"/>
<polygon fill="#63b8ff" stroke="#63b8ff" points="581.9,-79.42 586.85,-70.06 577.14,-74.29 581.9,-79.42"/>
</a>
</g>
</g>
<!-- Node17 -->
<g id="Node000017" class="node">
<title>Node17</title>
<g id="a_Node000017"><a xlink:title=" ">
<polygon fill="#e0e0e0" stroke="#999999" points="379,-70 329,-70 329,-53 379,-53 379,-70"/>
<text text-anchor="middle" x="354" y="-59.6" font-family="Helvetica,sans-Serif" font-size="8.00">functional</text>
</a>
</g>
</g>
<!-- Node14&#45;&gt;Node17 -->
<g id="edge18_Node000014_Node000017" class="edge">
<title>Node14&#45;&gt;Node17</title>
<g id="a_edge18_Node000014_Node000017"><a xlink:title=" ">
<path fill="none" stroke="#63b8ff" d="M512.56,-105.97C479.81,-97 425.01,-81.97 389.18,-72.15"/>
<polygon fill="#63b8ff" stroke="#63b8ff" points="389.74,-68.67 379.17,-69.4 387.89,-75.42 389.74,-68.67"/>
</a>
</g>
</g>
<!-- Node18 -->
<g id="Node000018" class="node">
<title>Node18</title>
<g id="a_Node000018"><a xlink:title=" ">
<polygon fill="#e0e0e0" stroke="#999999" points="433,-70 397,-70 397,-53 433,-53 433,-70"/>
<text text-anchor="middle" x="415" y="-59.6" font-family="Helvetica,sans-Serif" font-size="8.00">string</text>
</a>
</g>
</g>
<!-- Node14&#45;&gt;Node18 -->
<g id="edge20_Node000014_Node000018" class="edge">
<title>Node14&#45;&gt;Node18</title>
<g id="a_edge20_Node000014_Node000018"><a xlink:title=" ">
<path fill="none" stroke="#63b8ff" d="M521.56,-105.97C500.66,-97.45 466.41,-83.48 442.4,-73.68"/>
<polygon fill="#63b8ff" stroke="#63b8ff" points="443.69,-70.43 433.11,-69.89 441.05,-76.91 443.69,-70.43"/>
</a>
</g>
</g>
<!-- Node19 -->
<g id="Node000019" class="node">
<title>Node19</title>
<g id="a_Node000019"><a xlink:title=" ">
<polygon fill="#e0e0e0" stroke="#999999" points="504.5,-70 451.5,-70 451.5,-53 504.5,-53 504.5,-70"/>
<text text-anchor="middle" x="478" y="-59.6" font-family="Helvetica,sans-Serif" font-size="8.00">type_traits</text>
</a>
</g>
</g>
<!-- Node14&#45;&gt;Node19 -->
<g id="edge21_Node000014_Node000019" class="edge">
<title>Node14&#45;&gt;Node19</title>
<g id="a_edge21_Node000014_Node000019"><a xlink:title=" ">
<path fill="none" stroke="#63b8ff" d="M530.85,-105.97C521.51,-98.29 506.78,-86.18 495.25,-76.69"/>
<polygon fill="#63b8ff" stroke="#63b8ff" points="497.13,-73.71 487.19,-70.06 492.69,-79.11 497.13,-73.71"/>
</a>
</g>
</g>
</g>
</svg>
