<?xml version="1.0" encoding="UTF-8" standalone="no"?>
<!DOCTYPE svg PUBLIC "-//W3C//DTD SVG 1.1//EN"
 "http://www.w3.org/Graphics/SVG/1.1/DTD/svg11.dtd">
<!-- Generated by graphviz version 2.43.0 (0)
 -->
<!-- Title: heterogeneous_pool.hpp Pages: 1 -->
<svg width="791pt" height="184pt"
 viewBox="0.00 0.00 791.00 184.00" xmlns="http://www.w3.org/2000/svg" xmlns:xlink="http://www.w3.org/1999/xlink">
<g id="graph0" class="graph" transform="scale(1 1) rotate(0) translate(4 180)">
<title>heterogeneous_pool.hpp</title>
<!-- Node1 -->
<g id="Node000001" class="node">
<title>Node1</title>
<g id="a_Node000001"><a xlink:title=" ">
<polygon fill="#999999" stroke="#666666" points="334,-176 215,-176 215,-159 334,-159 334,-176"/>
<text text-anchor="middle" x="274.5" y="-165.6" font-family="Helvetica,sans-Serif" font-size="8.00">heterogeneous_pool.hpp</text>
</a>
</g>
</g>
<!-- Node2 -->
<g id="Node000002" class="node">
<title>Node2</title>
<g id="a_Node000002"><a xlink:title=" ">
<polygon fill="#e0e0e0" stroke="#999999" points="47,-123 0,-123 0,-106 47,-106 47,-123"/>
<text text-anchor="middle" x="23.5" y="-112.6" font-family="Helvetica,sans-Serif" font-size="8.00">cassert</text>
</a>
</g>
</g>
<!-- Node1&#45;&gt;Node2 -->
<g id="edge1_Node000001_Node000002" class="edge">
<title>Node1&#45;&gt;Node2</title>
<g id="a_edge1_Node000001_Node000002"><a xlink:title=" ">
<path fill="none" stroke="#63b8ff" d="M237.46,-158.97C188.78,-149.08 103.96,-131.85 57.07,-122.32"/>
<polygon fill="#63b8ff" stroke="#63b8ff" points="57.61,-118.86 47.11,-120.3 56.22,-125.72 57.61,-118.86"/>
</a>
</g>
</g>
<!-- Node3 -->
<g id="Node000003" class="node">
<title>Node3</title>
<g id="a_Node000003"><a xlink:title=" ">
<polygon fill="#e0e0e0" stroke="#999999" points="343,-17 296,-17 296,0 343,0 343,-17"/>
<text text-anchor="middle" x="319.5" y="-6.6" font-family="Helvetica,sans-Serif" font-size="8.00">cstddef</text>
</a>
</g>
</g>
<!-- Node1&#45;&gt;Node3 -->
<g id="edge2_Node000001_Node000003" class="edge">
<title>Node1&#45;&gt;Node3</title>
<g id="a_edge2_Node000001_Node000003"><a xlink:title=" ">
<path fill="none" stroke="#63b8ff" d="M214.88,-166.76C152.06,-164.61 65.89,-153.33 94.5,-106 134.93,-39.13 233.32,-18.54 285.58,-12.24"/>
<polygon fill="#63b8ff" stroke="#63b8ff" points="286.13,-15.7 295.69,-11.13 285.37,-8.74 286.13,-15.7"/>
</a>
</g>
</g>
<!-- Node4 -->
<g id="Node000004" class="node">
<title>Node4</title>
<g id="a_Node000004"><a xlink:title=" ">
<polygon fill="#e0e0e0" stroke="#999999" points="147.5,-123 103.5,-123 103.5,-106 147.5,-106 147.5,-123"/>
<text text-anchor="middle" x="125.5" y="-112.6" font-family="Helvetica,sans-Serif" font-size="8.00">cstdint</text>
</a>
</g>
</g>
<!-- Node1&#45;&gt;Node4 -->
<g id="edge3_Node000001_Node000004" class="edge">
<title>Node1&#45;&gt;Node4</title>
<g id="a_edge3_Node000001_Node000004"><a xlink:title=" ">
<path fill="none" stroke="#63b8ff" d="M252.51,-158.97C227.31,-150.35 185.81,-136.14 157.13,-126.33"/>
<polygon fill="#63b8ff" stroke="#63b8ff" points="158.17,-122.98 147.58,-123.06 155.9,-129.61 158.17,-122.98"/>
</a>
</g>
</g>
<!-- Node5 -->
<g id="Node000005" class="node">
<title>Node5</title>
<g id="a_Node000005"><a xlink:title=" ">
<polygon fill="#e0e0e0" stroke="#999999" points="242.5,-70 204.5,-70 204.5,-53 242.5,-53 242.5,-70"/>
<text text-anchor="middle" x="223.5" y="-59.6" font-family="Helvetica,sans-Serif" font-size="8.00">limits</text>
</a>
</g>
</g>
<!-- Node1&#45;&gt;Node5 -->
<g id="edge4_Node000001_Node000005" class="edge">
<title>Node1&#45;&gt;Node5</title>
<g id="a_edge4_Node000001_Node000005"><a xlink:title=" ">
<path fill="none" stroke="#63b8ff" d="M245.84,-158.87C227.95,-152.46 206.33,-141.33 195.5,-123 186.79,-108.27 197.49,-90.37 208.07,-77.88"/>
<polygon fill="#63b8ff" stroke="#63b8ff" points="210.95,-79.92 215.15,-70.2 205.8,-75.18 210.95,-79.92"/>
</a>
</g>
</g>
<!-- Node6 -->
<g id="Node000006" class="node">
<title>Node6</title>
<g id="a_Node000006"><a xlink:title=" ">
<polygon fill="#e0e0e0" stroke="#999999" points="239,-123 204,-123 204,-106 239,-106 239,-123"/>
<text text-anchor="middle" x="221.5" y="-112.6" font-family="Helvetica,sans-Serif" font-size="8.00">map</text>
</a>
</g>
</g>
<!-- Node1&#45;&gt;Node6 -->
<g id="edge5_Node000001_Node000006" class="edge">
<title>Node1&#45;&gt;Node6</title>
<g id="a_edge5_Node000001_Node000006"><a xlink:title=" ">
<path fill="none" stroke="#63b8ff" d="M266.68,-158.97C258.85,-151.44 246.6,-139.65 236.83,-130.25"/>
<polygon fill="#63b8ff" stroke="#63b8ff" points="238.99,-127.47 229.35,-123.06 234.13,-132.51 238.99,-127.47"/>
</a>
</g>
</g>
<!-- Node7 -->
<g id="Node000007" class="node">
<title>Node7</title>
<g id="a_Node000007"><a xlink:title=" ">
<polygon fill="#e0e0e0" stroke="#999999" points="291.5,-123 257.5,-123 257.5,-106 291.5,-106 291.5,-123"/>
<text text-anchor="middle" x="274.5" y="-112.6" font-family="Helvetica,sans-Serif" font-size="8.00">new</text>
</a>
</g>
</g>
<!-- Node1&#45;&gt;Node7 -->
<g id="edge6_Node000001_Node000007" class="edge">
<title>Node1&#45;&gt;Node7</title>
<g id="a_edge6_Node000001_Node000007"><a xlink:title=" ">
<path fill="none" stroke="#63b8ff" d="M274.5,-158.97C274.5,-152.19 274.5,-141.97 274.5,-133.13"/>
<polygon fill="#63b8ff" stroke="#63b8ff" points="278,-133.06 274.5,-123.06 271,-133.06 278,-133.06"/>
</a>
</g>
</g>
<!-- Node8 -->
<g id="Node000008" class="node">
<title>Node8</title>
<g id="a_Node000008"><a xlink:title=" ">
<polygon fill="#e0e0e0" stroke="#999999" points="349,-123 310,-123 310,-106 349,-106 349,-123"/>
<text text-anchor="middle" x="329.5" y="-112.6" font-family="Helvetica,sans-Serif" font-size="8.00">utility</text>
</a>
</g>
</g>
<!-- Node1&#45;&gt;Node8 -->
<g id="edge7_Node000001_Node000008" class="edge">
<title>Node1&#45;&gt;Node8</title>
<g id="a_edge7_Node000001_Node000008"><a xlink:title=" ">
<path fill="none" stroke="#63b8ff" d="M282.62,-158.97C290.82,-151.37 303.71,-139.41 313.9,-129.97"/>
<polygon fill="#63b8ff" stroke="#63b8ff" points="316.4,-132.42 321.35,-123.06 311.64,-127.29 316.4,-132.42"/>
</a>
</g>
</g>
<!-- Node9 -->
<g id="Node000009" class="node">
<title>Node9</title>
<g id="a_Node000009"><a xlink:title=" ">
<polygon fill="#e0e0e0" stroke="#999999" points="409.5,-123 367.5,-123 367.5,-106 409.5,-106 409.5,-123"/>
<text text-anchor="middle" x="388.5" y="-112.6" font-family="Helvetica,sans-Serif" font-size="8.00">vector</text>
</a>
</g>
</g>
<!-- Node1&#45;&gt;Node9 -->
<g id="edge8_Node000001_Node000009" class="edge">
<title>Node1&#45;&gt;Node9</title>
<g id="a_edge8_Node000001_Node000009"><a xlink:title=" ">
<path fill="none" stroke="#63b8ff" d="M291.32,-158.97C310.01,-150.61 340.43,-137 362.26,-127.24"/>
<polygon fill="#63b8ff" stroke="#63b8ff" points="363.91,-130.33 371.61,-123.06 361.05,-123.94 363.91,-130.33"/>
</a>
</g>
</g>
<!-- Node10 -->
<g id="Node000010" class="node">
<title>Node10</title>
<g id="a_Node000010"><a xlink:title=" ">
<polygon fill="#e0e0e0" stroke="#999999" points="517,-123 428,-123 428,-106 517,-106 517,-123"/>
<text text-anchor="middle" x="472.5" y="-112.6" font-family="Helvetica,sans-Serif" font-size="8.00">memory_resource</text>
</a>
</g>
</g>
<!-- Node1&#45;&gt;Node10 -->
<g id="edge9_Node000001_Node000010" class="edge">
<title>Node1&#45;&gt;Node10</title>
<g id="a_edge9_Node000001_Node000010"><a xlink:title=" ">
<path fill="none" stroke="#63b8ff" d="M303.72,-158.97C338.08,-150.12 395.27,-135.39 433.42,-125.57"/>
<polygon fill="#63b8ff" stroke="#63b8ff" points="434.35,-128.94 443.16,-123.06 432.61,-122.16 434.35,-128.94"/>
</a>
</g>
</g>
<!-- Node11 -->
<g id="Node000011" class="node">
<title>Node11</title>
<g id="a_Node000011"><a xlink:href="../../d7/d65/intrinsics_8hpp.html" target="_top" xlink:title=" ">
<polygon fill="white" stroke="#666666" points="783,-70 676,-70 676,-53 783,-53 783,-70"/>
<text text-anchor="middle" x="729.5" y="-59.6" font-family="Helvetica,sans-Serif" font-size="8.00">../../utils/intrinsics.hpp</text>
</a>
</g>
</g>
<!-- Node1&#45;&gt;Node11 -->
<g id="edge10_Node000001_Node000011" class="edge">
<title>Node1&#45;&gt;Node11</title>
<g id="a_edge10_Node000001_Node000011"><a xlink:title=" ">
<path fill="none" stroke="#63b8ff" d="M334.07,-166.96C406.4,-165.8 531.19,-158.17 631.5,-123 662.15,-112.26 693.35,-90.79 712.07,-76.54"/>
<polygon fill="#63b8ff" stroke="#63b8ff" points="714.47,-79.1 720.2,-70.19 710.17,-73.58 714.47,-79.1"/>
</a>
</g>
</g>
<!-- Node14 -->
<g id="Node000014" class="node">
<title>Node14</title>
<g id="a_Node000014"><a xlink:href="../../df/d93/utils_8hpp.html" target="_top" xlink:title=" ">
<polygon fill="white" stroke="#666666" points="622,-123 535,-123 535,-106 622,-106 622,-123"/>
<text text-anchor="middle" x="578.5" y="-112.6" font-family="Helvetica,sans-Serif" font-size="8.00">../../utils/utils.hpp</text>
</a>
</g>
</g>
<!-- Node1&#45;&gt;Node14 -->
<g id="edge14_Node000001_Node000014" class="edge">
<title>Node1&#45;&gt;Node14</title>
<g id="a_edge14_Node000001_Node000014"><a xlink:title=" ">
<path fill="none" stroke="#63b8ff" d="M319.36,-158.97C374.04,-149.8 466.38,-134.31 524.8,-124.51"/>
<polygon fill="#63b8ff" stroke="#63b8ff" points="525.66,-127.91 534.94,-122.81 524.5,-121.01 525.66,-127.91"/>
</a>
</g>
</g>
<!-- Node11&#45;&gt;Node3 -->
<g id="edge12_Node000011_Node000003" class="edge">
<title>Node11&#45;&gt;Node3</title>
<g id="a_edge12_Node000011_Node000003"><a xlink:title=" ">
<path fill="none" stroke="#63b8ff" d="M675.9,-53.83C590.22,-43.17 424.81,-22.6 353.54,-13.73"/>
<polygon fill="#63b8ff" stroke="#63b8ff" points="353.69,-10.23 343.33,-12.46 352.82,-17.17 353.69,-10.23"/>
</a>
</g>
</g>
<!-- Node12 -->
<g id="Node000012" class="node">
<title>Node12</title>
<g id="a_Node000012"><a xlink:title=" ">
<polygon fill="#e0e0e0" stroke="#999999" points="720.5,-17 676.5,-17 676.5,0 720.5,0 720.5,-17"/>
<text text-anchor="middle" x="698.5" y="-6.6" font-family="Helvetica,sans-Serif" font-size="8.00">atomic</text>
</a>
</g>
</g>
<!-- Node11&#45;&gt;Node12 -->
<g id="edge11_Node000011_Node000012" class="edge">
<title>Node11&#45;&gt;Node12</title>
<g id="a_edge11_Node000011_Node000012"><a xlink:title=" ">
<path fill="none" stroke="#63b8ff" d="M724.93,-52.97C720.58,-45.82 713.89,-34.82 708.33,-25.67"/>
<polygon fill="#63b8ff" stroke="#63b8ff" points="711.28,-23.78 703.09,-17.06 705.3,-27.42 711.28,-23.78"/>
</a>
</g>
</g>
<!-- Node13 -->
<g id="Node000013" class="node">
<title>Node13</title>
<g id="a_Node000013"><a xlink:title=" ">
<polygon fill="#e0e0e0" stroke="#999999" points="782.5,-17 738.5,-17 738.5,0 782.5,0 782.5,-17"/>
<text text-anchor="middle" x="760.5" y="-6.6" font-family="Helvetica,sans-Serif" font-size="8.00">cstdlib</text>
</a>
</g>
</g>
<!-- Node11&#45;&gt;Node13 -->
<g id="edge13_Node000011_Node000013" class="edge">
<title>Node11&#45;&gt;Node13</title>
<g id="a_edge13_Node000011_Node000013"><a xlink:title=" ">
<path fill="none" stroke="#63b8ff" d="M734.07,-52.97C738.42,-45.82 745.11,-34.82 750.67,-25.67"/>
<polygon fill="#63b8ff" stroke="#63b8ff" points="753.7,-27.42 755.91,-17.06 747.72,-23.78 753.7,-27.42"/>
</a>
</g>
</g>
<!-- Node14&#45;&gt;Node3 -->
<g id="edge17_Node000014_Node000003" class="edge">
<title>Node14&#45;&gt;Node3</title>
<g id="a_edge17_Node000014_Node000003"><a xlink:title=" ">
<path fill="none" stroke="#63b8ff" d="M534.78,-106.77C467.58,-96.26 345.83,-76.47 338.5,-70 326.37,-59.3 321.91,-40.97 320.3,-27.28"/>
<polygon fill="#63b8ff" stroke="#63b8ff" points="323.78,-26.84 319.52,-17.14 316.8,-27.38 323.78,-26.84"/>
</a>
</g>
</g>
<!-- Node14&#45;&gt;Node5 -->
<g id="edge19_Node000014_Node000005" class="edge">
<title>Node14&#45;&gt;Node5</title>
<g id="a_edge19_Node000014_Node000005"><a xlink:title=" ">
<path fill="none" stroke="#63b8ff" d="M534.81,-107.2C532,-106.79 529.21,-106.39 526.5,-106 426.11,-91.55 307,-74.47 252.88,-66.71"/>
<polygon fill="#63b8ff" stroke="#63b8ff" points="253.04,-63.2 242.64,-65.24 252.05,-70.13 253.04,-63.2"/>
</a>
</g>
</g>
<!-- Node14&#45;&gt;Node11 -->
<g id="edge22_Node000014_Node000011" class="edge">
<title>Node14&#45;&gt;Node11</title>
<g id="a_edge22_Node000014_Node000011"><a xlink:title=" ">
<path fill="none" stroke="#63b8ff" d="M600.78,-105.97C626.32,-97.35 668.39,-83.14 697.44,-73.33"/>
<polygon fill="#63b8ff" stroke="#63b8ff" points="698.77,-76.57 707.13,-70.06 696.53,-69.94 698.77,-76.57"/>
</a>
</g>
</g>
<!-- Node15 -->
<g id="Node000015" class="node">
<title>Node15</title>
<g id="a_Node000015"><a xlink:title=" ">
<polygon fill="#e0e0e0" stroke="#999999" points="597.5,-70 559.5,-70 559.5,-53 597.5,-53 597.5,-70"/>
<text text-anchor="middle" x="578.5" y="-59.6" font-family="Helvetica,sans-Serif" font-size="8.00">array</text>
</a>
</g>
</g>
<!-- Node14&#45;&gt;Node15 -->
<g id="edge15_Node000014_Node000015" class="edge">
<title>Node14&#45;&gt;Node15</title>
<g id="a_edge15_Node000014_Node000015"><a xlink:title=" ">
<path fill="none" stroke="#63b8ff" d="M578.5,-105.97C578.5,-99.19 578.5,-88.97 578.5,-80.13"/>
<polygon fill="#63b8ff" stroke="#63b8ff" points="582,-80.06 578.5,-70.06 575,-80.06 582,-80.06"/>
</a>
</g>
</g>
<!-- Node16 -->
<g id="Node000016" class="node">
<title>Node16</title>
<g id="a_Node000016"><a xlink:title=" ">
<polygon fill="#e0e0e0" stroke="#999999" points="657.5,-70 615.5,-70 615.5,-53 657.5,-53 657.5,-70"/>
<text text-anchor="middle" x="636.5" y="-59.6" font-family="Helvetica,sans-Serif" font-size="8.00">cmath</text>
</a>
</g>
</g>
<!-- Node14&#45;&gt;Node16 -->
<g id="edge16_Node000014_Node000016" class="edge">
<title>Node14&#45;&gt;Node16</title>
<g id="a_edge16_Node000014_Node000016"><a xlink:title=" ">
<path fill="none" stroke="#63b8ff" d="M587.06,-105.97C595.8,-98.29 609.57,-86.18 620.37,-76.69"/>
<polygon fill="#63b8ff" stroke="#63b8ff" points="622.71,-79.29 627.91,-70.06 618.09,-74.03 622.71,-79.29"/>
</a>
</g>
</g>
<!-- Node17 -->
<g id="Node000017" class="node">
<title>Node17</title>
<g id="a_Node000017"><a xlink:title=" ">
<polygon fill="#e0e0e0" stroke="#999999" points="405.5,-70 347.5,-70 347.5,-53 405.5,-53 405.5,-70"/>
<text text-anchor="middle" x="376.5" y="-59.6" font-family="Helvetica,sans-Serif" font-size="8.00">functional</text>
</a>
</g>
</g>
<!-- Node14&#45;&gt;Node17 -->
<g id="edge18_Node000014_Node000017" class="edge">
<title>Node14&#45;&gt;Node17</title>
<g id="a_edge18_Node000014_Node000017"><a xlink:title=" ">
<path fill="none" stroke="#63b8ff" d="M548.69,-105.97C513.43,-97.07 454.62,-82.22 415.7,-72.4"/>
<polygon fill="#63b8ff" stroke="#63b8ff" points="416.32,-68.94 405.77,-69.89 414.61,-75.73 416.32,-68.94"/>
</a>
</g>
</g>
<!-- Node18 -->
<g id="Node000018" class="node">
<title>Node18</title>
<g id="a_Node000018"><a xlink:title=" ">
<polygon fill="#e0e0e0" stroke="#999999" points="463.5,-70 423.5,-70 423.5,-53 463.5,-53 463.5,-70"/>
<text text-anchor="middle" x="443.5" y="-59.6" font-family="Helvetica,sans-Serif" font-size="8.00">string</text>
</a>
</g>
</g>
<!-- Node14&#45;&gt;Node18 -->
<g id="edge20_Node000014_Node000018" class="edge">
<title>Node14&#45;&gt;Node18</title>
<g id="a_edge20_Node000014_Node000018"><a xlink:title=" ">
<path fill="none" stroke="#63b8ff" d="M558.58,-105.97C536.05,-97.46 499.12,-83.51 473.19,-73.72"/>
<polygon fill="#63b8ff" stroke="#63b8ff" points="474.09,-70.32 463.5,-70.06 471.62,-76.86 474.09,-70.32"/>
</a>
</g>
</g>
<!-- Node19 -->
<g id="Node000019" class="node">
<title>Node19</title>
<g id="a_Node000019"><a xlink:title=" ">
<polygon fill="#e0e0e0" stroke="#999999" points="541,-70 482,-70 482,-53 541,-53 541,-70"/>
<text text-anchor="middle" x="511.5" y="-59.6" font-family="Helvetica,sans-Serif" font-size="8.00">type_traits</text>
</a>
</g>
</g>
<!-- Node14&#45;&gt;Node19 -->
<g id="edge21_Node000014_Node000019" class="edge">
<title>Node14&#45;&gt;Node19</title>
<g id="a_edge21_Node000014_Node000019"><a xlink:title=" ">
<path fill="none" stroke="#63b8ff" d="M568.61,-105.97C558.32,-98.14 541.98,-85.7 529.41,-76.13"/>
<polygon fill="#63b8ff" stroke="#63b8ff" points="531.5,-73.33 521.43,-70.06 527.26,-78.9 531.5,-73.33"/>
</a>
</g>
</g>
</g>
</svg>
