<?xml version="1.0" encoding="UTF-8" standalone="no"?>
<!DOCTYPE svg PUBLIC "-//W3C//DTD SVG 1.1//EN"
 "http://www.w3.org/Graphics/SVG/1.1/DTD/svg11.dtd">
<!-- Generated by graphviz version 2.43.0 (0)
 -->
<!-- Title: heterogeneous_pool.hpp Pages: 1 -->
<svg width="650pt" height="184pt"
 viewBox="0.00 0.00 650.00 184.00" xmlns="http://www.w3.org/2000/svg" xmlns:xlink="http://www.w3.org/1999/xlink">
<g id="graph0" class="graph" transform="scale(1 1) rotate(0) translate(4 180)">
<title>heterogeneous_pool.hpp</title>
<!-- Node1 -->
<g id="Node000001" class="node">
<title>Node1</title>
<g id="a_Node000001"><a xlink:title=" ">
<polygon fill="#999999" stroke="#666666" points="300,-176 194,-176 194,-159 300,-159 300,-176"/>
<text text-anchor="middle" x="247" y="-165.6" font-family="Helvetica,sans-Serif" font-size="8.00">heterogeneous_pool.hpp</text>
</a>
</g>
</g>
<!-- Node2 -->
<g id="Node000002" class="node">
<title>Node2</title>
<g id="a_Node000002"><a xlink:title=" ">
<polygon fill="#e0e0e0" stroke="#999999" points="42,-123 0,-123 0,-106 42,-106 42,-123"/>
<text text-anchor="middle" x="21" y="-112.6" font-family="Helvetica,sans-Serif" font-size="8.00">cassert</text>
</a>
</g>
</g>
<!-- Node1&#45;&gt;Node2 -->
<g id="edge1_Node000001_Node000002" class="edge">
<title>Node1&#45;&gt;Node2</title>
<g id="a_edge1_Node000001_Node000002"><a xlink:title=" ">
<path fill="none" stroke="#63b8ff" d="M213.65,-158.97C170.1,-149.15 94.41,-132.07 52.03,-122.5"/>
<polygon fill="#63b8ff" stroke="#63b8ff" points="52.79,-119.09 42.26,-120.3 51.25,-125.91 52.79,-119.09"/>
</a>
</g>
</g>
<!-- Node3 -->
<g id="Node000003" class="node">
<title>Node3</title>
<g id="a_Node000003"><a xlink:title=" ">
<polygon fill="#e0e0e0" stroke="#999999" points="256,-17 214,-17 214,0 256,0 256,-17"/>
<text text-anchor="middle" x="235" y="-6.6" font-family="Helvetica,sans-Serif" font-size="8.00">cstddef</text>
</a>
</g>
</g>
<!-- Node1&#45;&gt;Node3 -->
<g id="edge2_Node000001_Node000003" class="edge">
<title>Node1&#45;&gt;Node3</title>
<g id="a_edge2_Node000001_Node000003"><a xlink:title=" ">
<path fill="none" stroke="#63b8ff" d="M194.41,-158.96C153.61,-151.91 101.89,-139.92 89,-123 51.89,-74.3 151.1,-35.17 204.11,-18.38"/>
<polygon fill="#63b8ff" stroke="#63b8ff" points="205.21,-21.7 213.74,-15.41 203.15,-15.01 205.21,-21.7"/>
</a>
</g>
</g>
<!-- Node4 -->
<g id="Node000004" class="node">
<title>Node4</title>
<g id="a_Node000004"><a xlink:title=" ">
<polygon fill="#e0e0e0" stroke="#999999" points="137.5,-123 98.5,-123 98.5,-106 137.5,-106 137.5,-123"/>
<text text-anchor="middle" x="118" y="-112.6" font-family="Helvetica,sans-Serif" font-size="8.00">cstdint</text>
</a>
</g>
</g>
<!-- Node1&#45;&gt;Node4 -->
<g id="edge3_Node000001_Node000004" class="edge">
<title>Node1&#45;&gt;Node4</title>
<g id="a_edge3_Node000001_Node000004"><a xlink:title=" ">
<path fill="none" stroke="#63b8ff" d="M227.97,-158.97C206.53,-150.5 171.46,-136.64 146.7,-126.85"/>
<polygon fill="#63b8ff" stroke="#63b8ff" points="147.7,-123.48 137.11,-123.06 145.13,-129.99 147.7,-123.48"/>
</a>
</g>
</g>
<!-- Node5 -->
<g id="Node000005" class="node">
<title>Node5</title>
<g id="a_Node000005"><a xlink:title=" ">
<polygon fill="#e0e0e0" stroke="#999999" points="188,-123 156,-123 156,-106 188,-106 188,-123"/>
<text text-anchor="middle" x="172" y="-112.6" font-family="Helvetica,sans-Serif" font-size="8.00">map</text>
</a>
</g>
</g>
<!-- Node1&#45;&gt;Node5 -->
<g id="edge4_Node000001_Node000005" class="edge">
<title>Node1&#45;&gt;Node5</title>
<g id="a_edge4_Node000001_Node000005"><a xlink:title=" ">
<path fill="none" stroke="#63b8ff" d="M235.93,-158.97C224.3,-151.07 205.77,-138.46 191.64,-128.86"/>
<polygon fill="#63b8ff" stroke="#63b8ff" points="193.35,-125.78 183.11,-123.06 189.41,-131.57 193.35,-125.78"/>
</a>
</g>
</g>
<!-- Node6 -->
<g id="Node000006" class="node">
<title>Node6</title>
<g id="a_Node000006"><a xlink:title=" ">
<polygon fill="#e0e0e0" stroke="#999999" points="288,-123 206,-123 206,-106 288,-106 288,-123"/>
<text text-anchor="middle" x="247" y="-112.6" font-family="Helvetica,sans-Serif" font-size="8.00">memory_resource</text>
</a>
</g>
</g>
<!-- Node1&#45;&gt;Node6 -->
<g id="edge5_Node000001_Node000006" class="edge">
<title>Node1&#45;&gt;Node6</title>
<g id="a_edge5_Node000001_Node000006"><a xlink:title=" ">
<path fill="none" stroke="#63b8ff" d="M247,-158.97C247,-152.19 247,-141.97 247,-133.13"/>
<polygon fill="#63b8ff" stroke="#63b8ff" points="250.5,-133.06 247,-123.06 243.5,-133.06 250.5,-133.06"/>
</a>
</g>
</g>
<!-- Node7 -->
<g id="Node000007" class="node">
<title>Node7</title>
<g id="a_Node000007"><a xlink:title=" ">
<polygon fill="#e0e0e0" stroke="#999999" points="340,-123 306,-123 306,-106 340,-106 340,-123"/>
<text text-anchor="middle" x="323" y="-112.6" font-family="Helvetica,sans-Serif" font-size="8.00">utility</text>
</a>
</g>
</g>
<!-- Node1&#45;&gt;Node7 -->
<g id="edge6_Node000001_Node000007" class="edge">
<title>Node1&#45;&gt;Node7</title>
<g id="a_edge6_Node000001_Node000007"><a xlink:title=" ">
<path fill="none" stroke="#63b8ff" d="M258.21,-158.97C270,-151.07 288.78,-138.46 303.1,-128.86"/>
<polygon fill="#63b8ff" stroke="#63b8ff" points="305.39,-131.53 311.74,-123.06 301.49,-125.72 305.39,-131.53"/>
</a>
</g>
</g>
<!-- Node8 -->
<g id="Node000008" class="node">
<title>Node8</title>
<g id="a_Node000008"><a xlink:title=" ">
<polygon fill="#e0e0e0" stroke="#999999" points="396,-123 358,-123 358,-106 396,-106 396,-123"/>
<text text-anchor="middle" x="377" y="-112.6" font-family="Helvetica,sans-Serif" font-size="8.00">vector</text>
</a>
</g>
</g>
<!-- Node1&#45;&gt;Node8 -->
<g id="edge7_Node000001_Node000008" class="edge">
<title>Node1&#45;&gt;Node8</title>
<g id="a_edge7_Node000001_Node000008"><a xlink:title=" ">
<path fill="none" stroke="#63b8ff" d="M266.18,-158.97C287.88,-150.46 323.44,-136.51 348.41,-126.72"/>
<polygon fill="#63b8ff" stroke="#63b8ff" points="349.71,-129.97 357.74,-123.06 347.15,-123.45 349.71,-129.97"/>
</a>
</g>
</g>
<!-- Node9 -->
<g id="Node000009" class="node">
<title>Node9</title>
<g id="a_Node000009"><a xlink:href="../../d7/d65/intrinsics_8hpp.html" target="_top" xlink:title=" ">
<polygon fill="white" stroke="#666666" points="642,-70 550,-70 550,-53 642,-53 642,-70"/>
<text text-anchor="middle" x="596" y="-59.6" font-family="Helvetica,sans-Serif" font-size="8.00">../../utils/intrinsics.hpp</text>
</a>
</g>
</g>
<!-- Node1&#45;&gt;Node9 -->
<g id="edge8_Node000001_Node000009" class="edge">
<title>Node1&#45;&gt;Node9</title>
<g id="a_edge8_Node000001_Node000009"><a xlink:title=" ">
<path fill="none" stroke="#63b8ff" d="M300.46,-163.15C352.36,-158.53 432.66,-147.77 498,-123 528.37,-111.49 559.65,-90.23 578.46,-76.23"/>
<polygon fill="#63b8ff" stroke="#63b8ff" points="580.8,-78.85 586.64,-70.01 576.56,-73.28 580.8,-78.85"/>
</a>
</g>
</g>
<!-- Node11 -->
<g id="Node000011" class="node">
<title>Node11</title>
<g id="a_Node000011"><a xlink:href="../../df/d93/utils_8hpp.html" target="_top" xlink:title=" ">
<polygon fill="white" stroke="#666666" points="489.5,-123 414.5,-123 414.5,-106 489.5,-106 489.5,-123"/>
<text text-anchor="middle" x="452" y="-112.6" font-family="Helvetica,sans-Serif" font-size="8.00">../../utils/utils.hpp</text>
</a>
</g>
</g>
<!-- Node1&#45;&gt;Node11 -->
<g id="edge11_Node000001_Node000011" class="edge">
<title>Node1&#45;&gt;Node11</title>
<g id="a_edge11_Node000001_Node000011"><a xlink:title=" ">
<path fill="none" stroke="#63b8ff" d="M277.25,-158.97C312.9,-150.1 372.29,-135.33 411.79,-125.5"/>
<polygon fill="#63b8ff" stroke="#63b8ff" points="412.77,-128.87 421.63,-123.06 411.08,-122.07 412.77,-128.87"/>
</a>
</g>
</g>
<!-- Node9&#45;&gt;Node3 -->
<g id="edge9_Node000009_Node000003" class="edge">
<title>Node9&#45;&gt;Node3</title>
<g id="a_edge9_Node000009_Node000003"><a xlink:title=" ">
<path fill="none" stroke="#63b8ff" d="M549.91,-53.99C475.34,-43.45 330.16,-22.94 266.36,-13.93"/>
<polygon fill="#63b8ff" stroke="#63b8ff" points="266.52,-10.42 256.13,-12.49 265.54,-17.35 266.52,-10.42"/>
</a>
</g>
</g>
<!-- Node10 -->
<g id="Node000010" class="node">
<title>Node10</title>
<g id="a_Node000010"><a xlink:title=" ">
<polygon fill="#e0e0e0" stroke="#999999" points="615,-17 577,-17 577,0 615,0 615,-17"/>
<text text-anchor="middle" x="596" y="-6.6" font-family="Helvetica,sans-Serif" font-size="8.00">cstdlib</text>
</a>
</g>
</g>
<!-- Node9&#45;&gt;Node10 -->
<g id="edge10_Node000009_Node000010" class="edge">
<title>Node9&#45;&gt;Node10</title>
<g id="a_edge10_Node000009_Node000010"><a xlink:title=" ">
<path fill="none" stroke="#63b8ff" d="M596,-52.97C596,-46.19 596,-35.97 596,-27.13"/>
<polygon fill="#63b8ff" stroke="#63b8ff" points="599.5,-27.06 596,-17.06 592.5,-27.06 599.5,-27.06"/>
</a>
</g>
</g>
<!-- Node11&#45;&gt;Node3 -->
<g id="edge14_Node000011_Node000003" class="edge">
<title>Node11&#45;&gt;Node3</title>
<g id="a_edge14_Node000011_Node000003"><a xlink:title=" ">
<path fill="none" stroke="#63b8ff" d="M414.45,-107.33C360.38,-98.14 265.78,-80.78 254,-70 242.07,-59.08 237.58,-40.78 235.91,-27.15"/>
<polygon fill="#63b8ff" stroke="#63b8ff" points="239.39,-26.76 235.08,-17.08 232.42,-27.33 239.39,-26.76"/>
</a>
</g>
</g>
<!-- Node11&#45;&gt;Node9 -->
<g id="edge18_Node000011_Node000009" class="edge">
<title>Node11&#45;&gt;Node9</title>
<g id="a_edge18_Node000011_Node000009"><a xlink:title=" ">
<path fill="none" stroke="#63b8ff" d="M473.25,-105.97C497.5,-97.39 537.37,-83.27 565.06,-73.46"/>
<polygon fill="#63b8ff" stroke="#63b8ff" points="566.41,-76.69 574.67,-70.06 564.07,-70.1 566.41,-76.69"/>
</a>
</g>
</g>
<!-- Node12 -->
<g id="Node000012" class="node">
<title>Node12</title>
<g id="a_Node000012"><a xlink:title=" ">
<polygon fill="#e0e0e0" stroke="#999999" points="531.5,-70 496.5,-70 496.5,-53 531.5,-53 531.5,-70"/>
<text text-anchor="middle" x="514" y="-59.6" font-family="Helvetica,sans-Serif" font-size="8.00">array</text>
</a>
</g>
</g>
<!-- Node11&#45;&gt;Node12 -->
<g id="edge12_Node000011_Node000012" class="edge">
<title>Node11&#45;&gt;Node12</title>
<g id="a_edge12_Node000011_Node000012"><a xlink:title=" ">
<path fill="none" stroke="#63b8ff" d="M461.15,-105.97C470.49,-98.29 485.22,-86.18 496.75,-76.69"/>
<polygon fill="#63b8ff" stroke="#63b8ff" points="499.31,-79.11 504.81,-70.06 494.87,-73.71 499.31,-79.11"/>
</a>
</g>
</g>
<!-- Node13 -->
<g id="Node000013" class="node">
<title>Node13</title>
<g id="a_Node000013"><a xlink:title=" ">
<polygon fill="#e0e0e0" stroke="#999999" points="301,-70 263,-70 263,-53 301,-53 301,-70"/>
<text text-anchor="middle" x="282" y="-59.6" font-family="Helvetica,sans-Serif" font-size="8.00">cmath</text>
</a>
</g>
</g>
<!-- Node11&#45;&gt;Node13 -->
<g id="edge13_Node000011_Node000013" class="edge">
<title>Node11&#45;&gt;Node13</title>
<g id="a_edge13_Node000011_Node000013"><a xlink:title=" ">
<path fill="none" stroke="#63b8ff" d="M426.92,-105.97C396.08,-96.72 343.84,-81.05 311.22,-71.27"/>
<polygon fill="#63b8ff" stroke="#63b8ff" points="311.96,-67.83 301.37,-68.31 309.94,-74.54 311.96,-67.83"/>
</a>
</g>
</g>
<!-- Node14 -->
<g id="Node000014" class="node">
<title>Node14</title>
<g id="a_Node000014"><a xlink:title=" ">
<polygon fill="#e0e0e0" stroke="#999999" points="353,-70 319,-70 319,-53 353,-53 353,-70"/>
<text text-anchor="middle" x="336" y="-59.6" font-family="Helvetica,sans-Serif" font-size="8.00">limits</text>
</a>
</g>
</g>
<!-- Node11&#45;&gt;Node14 -->
<g id="edge15_Node000011_Node000014" class="edge">
<title>Node11&#45;&gt;Node14</title>
<g id="a_edge15_Node000011_Node000014"><a xlink:title=" ">
<path fill="none" stroke="#63b8ff" d="M434.88,-105.97C415.78,-97.58 384.63,-83.88 362.4,-74.11"/>
<polygon fill="#63b8ff" stroke="#63b8ff" points="363.75,-70.88 353.19,-70.06 360.93,-77.28 363.75,-70.88"/>
</a>
</g>
</g>
<!-- Node15 -->
<g id="Node000015" class="node">
<title>Node15</title>
<g id="a_Node000015"><a xlink:title=" ">
<polygon fill="#e0e0e0" stroke="#999999" points="407,-70 371,-70 371,-53 407,-53 407,-70"/>
<text text-anchor="middle" x="389" y="-59.6" font-family="Helvetica,sans-Serif" font-size="8.00">string</text>
</a>
</g>
</g>
<!-- Node11&#45;&gt;Node15 -->
<g id="edge16_Node000011_Node000015" class="edge">
<title>Node11&#45;&gt;Node15</title>
<g id="a_edge16_Node000011_Node000015"><a xlink:title=" ">
<path fill="none" stroke="#63b8ff" d="M442.7,-105.97C433.12,-98.22 417.95,-85.94 406.18,-76.41"/>
<polygon fill="#63b8ff" stroke="#63b8ff" points="408.31,-73.63 398.33,-70.06 403.9,-79.07 408.31,-73.63"/>
</a>
</g>
</g>
<!-- Node16 -->
<g id="Node000016" class="node">
<title>Node16</title>
<g id="a_Node000016"><a xlink:title=" ">
<polygon fill="#e0e0e0" stroke="#999999" points="478.5,-70 425.5,-70 425.5,-53 478.5,-53 478.5,-70"/>
<text text-anchor="middle" x="452" y="-59.6" font-family="Helvetica,sans-Serif" font-size="8.00">type_traits</text>
</a>
</g>
</g>
<!-- Node11&#45;&gt;Node16 -->
<g id="edge17_Node000011_Node000016" class="edge">
<title>Node11&#45;&gt;Node16</title>
<g id="a_edge17_Node000011_Node000016"><a xlink:title=" ">
<path fill="none" stroke="#63b8ff" d="M452,-105.97C452,-99.19 452,-88.97 452,-80.13"/>
<polygon fill="#63b8ff" stroke="#63b8ff" points="455.5,-80.06 452,-70.06 448.5,-80.06 455.5,-80.06"/>
</a>
</g>
</g>
</g>
</svg>
