<?xml version="1.0" encoding="UTF-8" standalone="no"?>
<!DOCTYPE svg PUBLIC "-//W3C//DTD SVG 1.1//EN"
 "http://www.w3.org/Graphics/SVG/1.1/DTD/svg11.dtd">
<!-- Generated by graphviz version 2.43.0 (0)
 -->
<!-- Title: eiddfs.hpp Pages: 1 -->
<svg width="752pt" height="237pt"
 viewBox="0.00 0.00 752.44 237.00" xmlns="http://www.w3.org/2000/svg" xmlns:xlink="http://www.w3.org/1999/xlink">
<g id="graph0" class="graph" transform="scale(1 1) rotate(0) translate(4 233)">
<title>eiddfs.hpp</title>
<!-- Node1 -->
<g id="Node000001" class="node">
<title>Node1</title>
<g id="a_Node000001"><a xlink:title=" ">
<polygon fill="#999999" stroke="#666666" points="417.44,-229 357.44,-229 357.44,-212 417.44,-212 417.44,-229"/>
<text text-anchor="middle" x="387.44" y="-218.6" font-family="Helvetica,sans-Serif" font-size="8.00">eiddfs.hpp</text>
</a>
</g>
</g>
<!-- Node2 -->
<g id="Node000002" class="node">
<title>Node2</title>
<g id="a_Node000002"><a xlink:title=" ">
<polygon fill="#e0e0e0" stroke="#999999" points="297.94,-17 250.94,-17 250.94,0 297.94,0 297.94,-17"/>
<text text-anchor="middle" x="274.44" y="-6.6" font-family="Helvetica,sans-Serif" font-size="8.00">cstddef</text>
</a>
</g>
</g>
<!-- Node1&#45;&gt;Node2 -->
<g id="edge1_Node000001_Node000002" class="edge">
<title>Node1&#45;&gt;Node2</title>
<g id="a_edge1_Node000001_Node000002"><a xlink:title=" ">
<path fill="none" stroke="#63b8ff" d="M389.31,-211.83C395.11,-186.14 410.1,-102.02 371.44,-53 355.85,-33.23 329.33,-22.18 307.96,-16.17"/>
<polygon fill="#63b8ff" stroke="#63b8ff" points="308.82,-12.78 298.26,-13.68 307.08,-19.56 308.82,-12.78"/>
</a>
</g>
</g>
<!-- Node3 -->
<g id="Node000003" class="node">
<title>Node3</title>
<g id="a_Node000003"><a xlink:title=" ">
<polygon fill="#e0e0e0" stroke="#999999" points="744.44,-70 706.44,-70 706.44,-53 744.44,-53 744.44,-70"/>
<text text-anchor="middle" x="725.44" y="-59.6" font-family="Helvetica,sans-Serif" font-size="8.00">limits</text>
</a>
</g>
</g>
<!-- Node1&#45;&gt;Node3 -->
<g id="edge2_Node000001_Node000003" class="edge">
<title>Node1&#45;&gt;Node3</title>
<g id="a_edge2_Node000001_Node000003"><a xlink:title=" ">
<path fill="none" stroke="#63b8ff" d="M403.74,-211.93C458.05,-186.7 633.15,-105.37 699.57,-74.52"/>
<polygon fill="#63b8ff" stroke="#63b8ff" points="701.31,-77.57 708.9,-70.18 698.36,-71.22 701.31,-77.57"/>
</a>
</g>
</g>
<!-- Node4 -->
<g id="Node000004" class="node">
<title>Node4</title>
<g id="a_Node000004"><a xlink:title=" ">
<polygon fill="#e0e0e0" stroke="#999999" points="208.44,-123 166.44,-123 166.44,-106 208.44,-106 208.44,-123"/>
<text text-anchor="middle" x="187.44" y="-112.6" font-family="Helvetica,sans-Serif" font-size="8.00">vector</text>
</a>
</g>
</g>
<!-- Node1&#45;&gt;Node4 -->
<g id="edge3_Node000001_Node000004" class="edge">
<title>Node1&#45;&gt;Node4</title>
<g id="a_edge3_Node000001_Node000004"><a xlink:title=" ">
<path fill="none" stroke="#63b8ff" d="M369.13,-211.86C349.62,-203.57 317.95,-189.67 291.44,-176 261.98,-160.81 229.08,-141.2 208.32,-128.49"/>
<polygon fill="#63b8ff" stroke="#63b8ff" points="210.05,-125.44 199.7,-123.18 206.38,-131.4 210.05,-125.44"/>
</a>
</g>
</g>
<!-- Node5 -->
<g id="Node000005" class="node">
<title>Node5</title>
<g id="a_Node000005"><a xlink:href="../../df/d47/stack_8hpp.html" target="_top" xlink:title=" ">
<polygon fill="white" stroke="#666666" points="206.44,-176 70.44,-176 70.44,-159 206.44,-159 206.44,-176"/>
<text text-anchor="middle" x="138.44" y="-165.6" font-family="Helvetica,sans-Serif" font-size="8.00">../types/containers/stack.hpp</text>
</a>
</g>
</g>
<!-- Node1&#45;&gt;Node5 -->
<g id="edge4_Node000001_Node000005" class="edge">
<title>Node1&#45;&gt;Node5</title>
<g id="a_edge4_Node000001_Node000005"><a xlink:title=" ">
<path fill="none" stroke="#63b8ff" d="M357.4,-213.35C314.69,-204.6 235.98,-188.48 185.48,-178.13"/>
<polygon fill="#63b8ff" stroke="#63b8ff" points="185.96,-174.66 175.46,-176.08 184.56,-181.52 185.96,-174.66"/>
</a>
</g>
</g>
<!-- Node7 -->
<g id="Node000007" class="node">
<title>Node7</title>
<g id="a_Node000007"><a xlink:href="../../d7/d65/intrinsics_8hpp.html" target="_top" xlink:title=" ">
<polygon fill="white" stroke="#666666" points="109.94,-70 2.94,-70 2.94,-53 109.94,-53 109.94,-70"/>
<text text-anchor="middle" x="56.44" y="-59.6" font-family="Helvetica,sans-Serif" font-size="8.00">../../utils/intrinsics.hpp</text>
</a>
</g>
</g>
<!-- Node1&#45;&gt;Node7 -->
<g id="edge30_Node000001_Node000007" class="edge">
<title>Node1&#45;&gt;Node7</title>
<g id="a_edge30_Node000001_Node000007"><a xlink:title=" ">
<path fill="none" stroke="#63b8ff" d="M357.27,-217.81C286.84,-213.5 113.66,-200.64 61.44,-176 25.15,-158.88 -12.54,-142.35 4.44,-106 10.36,-93.34 21.97,-83.06 32.73,-75.68"/>
<polygon fill="#63b8ff" stroke="#63b8ff" points="34.84,-78.49 41.42,-70.18 31.09,-72.58 34.84,-78.49"/>
</a>
</g>
</g>
<!-- Node10 -->
<g id="Node000010" class="node">
<title>Node10</title>
<g id="a_Node000010"><a xlink:href="../../df/d93/utils_8hpp.html" target="_top" xlink:title=" ">
<polygon fill="white" stroke="#666666" points="530.44,-123 450.44,-123 450.44,-106 530.44,-106 530.44,-123"/>
<text text-anchor="middle" x="490.44" y="-112.6" font-family="Helvetica,sans-Serif" font-size="8.00">../utils/utils.hpp</text>
</a>
</g>
</g>
<!-- Node1&#45;&gt;Node10 -->
<g id="edge12_Node000001_Node000010" class="edge">
<title>Node1&#45;&gt;Node10</title>
<g id="a_edge12_Node000001_Node000010"><a xlink:title=" ">
<path fill="none" stroke="#63b8ff" d="M396.76,-211.79C406.83,-203.32 423.23,-189.17 436.44,-176 451.18,-161.3 466.91,-143.39 477.57,-130.89"/>
<polygon fill="#63b8ff" stroke="#63b8ff" points="480.28,-133.11 484.06,-123.21 474.93,-128.59 480.28,-133.11"/>
</a>
</g>
</g>
<!-- Node16 -->
<g id="Node000016" class="node">
<title>Node16</title>
<g id="a_Node000016"><a xlink:href="../../dc/d3c/bnode_8hpp.html" target="_top" xlink:title=" ">
<polygon fill="white" stroke="#666666" points="708.44,-176 624.44,-176 624.44,-159 708.44,-159 708.44,-176"/>
<text text-anchor="middle" x="666.44" y="-165.6" font-family="Helvetica,sans-Serif" font-size="8.00">base/bnode.hpp</text>
</a>
</g>
</g>
<!-- Node1&#45;&gt;Node16 -->
<g id="edge21_Node000001_Node000016" class="edge">
<title>Node1&#45;&gt;Node16</title>
<g id="a_edge21_Node000001_Node000016"><a xlink:title=" ">
<path fill="none" stroke="#63b8ff" d="M417.56,-213.99C464.88,-205.34 557.2,-188.47 615.13,-177.88"/>
<polygon fill="#63b8ff" stroke="#63b8ff" points="615.97,-181.28 625.18,-176.04 614.71,-174.4 615.97,-181.28"/>
</a>
</g>
</g>
<!-- Node17 -->
<g id="Node000017" class="node">
<title>Node17</title>
<g id="a_Node000017"><a xlink:href="../../d2/d1c/solver_8hpp.html" target="_top" xlink:title=" ">
<polygon fill="white" stroke="#666666" points="382.44,-176 300.44,-176 300.44,-159 382.44,-159 382.44,-176"/>
<text text-anchor="middle" x="341.44" y="-165.6" font-family="Helvetica,sans-Serif" font-size="8.00">base/solver.hpp</text>
</a>
</g>
</g>
<!-- Node1&#45;&gt;Node17 -->
<g id="edge22_Node000001_Node000017" class="edge">
<title>Node1&#45;&gt;Node17</title>
<g id="a_edge22_Node000001_Node000017"><a xlink:title=" ">
<path fill="none" stroke="#63b8ff" d="M380.65,-211.97C373.92,-204.52 363.43,-192.89 355,-183.53"/>
<polygon fill="#63b8ff" stroke="#63b8ff" points="357.55,-181.14 348.25,-176.06 352.35,-185.83 357.55,-181.14"/>
</a>
</g>
</g>
<!-- Node5&#45;&gt;Node2 -->
<g id="edge5_Node000005_Node000002" class="edge">
<title>Node5&#45;&gt;Node2</title>
<g id="a_edge5_Node000005_Node000002"><a xlink:title=" ">
<path fill="none" stroke="#63b8ff" d="M139.42,-158.82C141.26,-146.71 146.12,-122.8 157.44,-106 182.33,-69.04 225.43,-38.78 251.8,-22.51"/>
<polygon fill="#63b8ff" stroke="#63b8ff" points="253.93,-25.31 260.69,-17.16 250.32,-19.32 253.93,-25.31"/>
</a>
</g>
</g>
<!-- Node5&#45;&gt;Node4 -->
<g id="edge7_Node000005_Node000004" class="edge">
<title>Node5&#45;&gt;Node4</title>
<g id="a_edge7_Node000005_Node000004"><a xlink:title=" ">
<path fill="none" stroke="#63b8ff" d="M145.67,-158.97C152.83,-151.52 164.01,-139.89 173,-130.53"/>
<polygon fill="#63b8ff" stroke="#63b8ff" points="175.77,-132.69 180.18,-123.06 170.73,-127.84 175.77,-132.69"/>
</a>
</g>
</g>
<!-- Node6 -->
<g id="Node000006" class="node">
<title>Node6</title>
<g id="a_Node000006"><a xlink:title=" ">
<polygon fill="#e0e0e0" stroke="#999999" points="109.94,-123 20.94,-123 20.94,-106 109.94,-106 109.94,-123"/>
<text text-anchor="middle" x="65.44" y="-112.6" font-family="Helvetica,sans-Serif" font-size="8.00">memory_resource</text>
</a>
</g>
</g>
<!-- Node5&#45;&gt;Node6 -->
<g id="edge6_Node000005_Node000006" class="edge">
<title>Node5&#45;&gt;Node6</title>
<g id="a_edge6_Node000005_Node000006"><a xlink:title=" ">
<path fill="none" stroke="#63b8ff" d="M127.67,-158.97C116.35,-151.07 98.3,-138.46 84.56,-128.86"/>
<polygon fill="#63b8ff" stroke="#63b8ff" points="86.46,-125.91 76.25,-123.06 82.45,-131.65 86.46,-125.91"/>
</a>
</g>
</g>
<!-- Node5&#45;&gt;Node7 -->
<g id="edge8_Node000005_Node000007" class="edge">
<title>Node5&#45;&gt;Node7</title>
<g id="a_edge8_Node000005_Node000007"><a xlink:title=" ">
<path fill="none" stroke="#63b8ff" d="M70.2,-159.03C47.78,-152.96 25.12,-142.15 11.44,-123 -0.29,-106.58 18.42,-88 35.16,-75.82"/>
<polygon fill="#63b8ff" stroke="#63b8ff" points="37.29,-78.6 43.57,-70.07 33.34,-72.82 37.29,-78.6"/>
</a>
</g>
</g>
<!-- Node7&#45;&gt;Node2 -->
<g id="edge10_Node000007_Node000002" class="edge">
<title>Node7&#45;&gt;Node2</title>
<g id="a_edge10_Node000007_Node000002"><a xlink:title=" ">
<path fill="none" stroke="#63b8ff" d="M88.61,-52.97C129.44,-43.42 199.55,-27.02 240.99,-17.33"/>
<polygon fill="#63b8ff" stroke="#63b8ff" points="241.93,-20.7 250.87,-15.01 240.33,-13.88 241.93,-20.7"/>
</a>
</g>
</g>
<!-- Node8 -->
<g id="Node000008" class="node">
<title>Node8</title>
<g id="a_Node000008"><a xlink:title=" ">
<polygon fill="#e0e0e0" stroke="#999999" points="109.44,-17 65.44,-17 65.44,0 109.44,0 109.44,-17"/>
<text text-anchor="middle" x="87.44" y="-6.6" font-family="Helvetica,sans-Serif" font-size="8.00">atomic</text>
</a>
</g>
</g>
<!-- Node7&#45;&gt;Node8 -->
<g id="edge9_Node000007_Node000008" class="edge">
<title>Node7&#45;&gt;Node8</title>
<g id="a_edge9_Node000007_Node000008"><a xlink:title=" ">
<path fill="none" stroke="#63b8ff" d="M61.01,-52.97C65.36,-45.82 72.05,-34.82 77.61,-25.67"/>
<polygon fill="#63b8ff" stroke="#63b8ff" points="80.64,-27.42 82.85,-17.06 74.66,-23.78 80.64,-27.42"/>
</a>
</g>
</g>
<!-- Node9 -->
<g id="Node000009" class="node">
<title>Node9</title>
<g id="a_Node000009"><a xlink:title=" ">
<polygon fill="#e0e0e0" stroke="#999999" points="47.44,-17 3.44,-17 3.44,0 47.44,0 47.44,-17"/>
<text text-anchor="middle" x="25.44" y="-6.6" font-family="Helvetica,sans-Serif" font-size="8.00">cstdlib</text>
</a>
</g>
</g>
<!-- Node7&#45;&gt;Node9 -->
<g id="edge11_Node000007_Node000009" class="edge">
<title>Node7&#45;&gt;Node9</title>
<g id="a_edge11_Node000007_Node000009"><a xlink:title=" ">
<path fill="none" stroke="#63b8ff" d="M51.86,-52.97C47.51,-45.82 40.83,-34.82 35.27,-25.67"/>
<polygon fill="#63b8ff" stroke="#63b8ff" points="38.22,-23.78 30.03,-17.06 32.23,-27.42 38.22,-23.78"/>
</a>
</g>
</g>
<!-- Node10&#45;&gt;Node2 -->
<g id="edge15_Node000010_Node000002" class="edge">
<title>Node10&#45;&gt;Node2</title>
<g id="a_edge15_Node000010_Node000002"><a xlink:title=" ">
<path fill="none" stroke="#63b8ff" d="M530.09,-105.93C577.48,-96.49 651.43,-80.33 659.44,-70 664.07,-64.03 664.47,-58.63 659.44,-53 636.21,-27 398.1,-14.58 308.39,-10.8"/>
<polygon fill="#63b8ff" stroke="#63b8ff" points="308.34,-7.3 298.21,-10.38 308.05,-14.29 308.34,-7.3"/>
</a>
</g>
</g>
<!-- Node10&#45;&gt;Node3 -->
<g id="edge17_Node000010_Node000003" class="edge">
<title>Node10&#45;&gt;Node3</title>
<g id="a_edge17_Node000010_Node000003"><a xlink:title=" ">
<path fill="none" stroke="#63b8ff" d="M525.86,-106C566.21,-97.42 634.12,-82.91 692.44,-70 693.7,-69.72 694.98,-69.44 696.28,-69.15"/>
<polygon fill="#63b8ff" stroke="#63b8ff" points="697.27,-72.51 706.25,-66.9 695.73,-65.68 697.27,-72.51"/>
</a>
</g>
</g>
<!-- Node10&#45;&gt;Node7 -->
<g id="edge20_Node000010_Node000007" class="edge">
<title>Node10&#45;&gt;Node7</title>
<g id="a_edge20_Node000010_Node000007"><a xlink:title=" ">
<path fill="none" stroke="#63b8ff" d="M450.39,-108.79C374.92,-99.93 211.1,-80.67 120.28,-70"/>
<polygon fill="#63b8ff" stroke="#63b8ff" points="120.46,-66.5 110.12,-68.81 119.64,-73.45 120.46,-66.5"/>
</a>
</g>
</g>
<!-- Node11 -->
<g id="Node000011" class="node">
<title>Node11</title>
<g id="a_Node000011"><a xlink:title=" ">
<polygon fill="#e0e0e0" stroke="#999999" points="650.44,-70 612.44,-70 612.44,-53 650.44,-53 650.44,-70"/>
<text text-anchor="middle" x="631.44" y="-59.6" font-family="Helvetica,sans-Serif" font-size="8.00">array</text>
</a>
</g>
</g>
<!-- Node10&#45;&gt;Node11 -->
<g id="edge13_Node000010_Node000011" class="edge">
<title>Node10&#45;&gt;Node11</title>
<g id="a_edge13_Node000010_Node000011"><a xlink:title=" ">
<path fill="none" stroke="#63b8ff" d="M511.24,-105.97C535.43,-97.23 575.48,-82.74 602.64,-72.92"/>
<polygon fill="#63b8ff" stroke="#63b8ff" points="604.15,-76.09 612.36,-69.4 601.76,-69.51 604.15,-76.09"/>
</a>
</g>
</g>
<!-- Node12 -->
<g id="Node000012" class="node">
<title>Node12</title>
<g id="a_Node000012"><a xlink:title=" ">
<polygon fill="#e0e0e0" stroke="#999999" points="460.44,-70 418.44,-70 418.44,-53 460.44,-53 460.44,-70"/>
<text text-anchor="middle" x="439.44" y="-59.6" font-family="Helvetica,sans-Serif" font-size="8.00">cmath</text>
</a>
</g>
</g>
<!-- Node10&#45;&gt;Node12 -->
<g id="edge14_Node000010_Node000012" class="edge">
<title>Node10&#45;&gt;Node12</title>
<g id="a_edge14_Node000010_Node000012"><a xlink:title=" ">
<path fill="none" stroke="#63b8ff" d="M482.91,-105.97C475.38,-98.44 463.59,-86.65 454.19,-77.25"/>
<polygon fill="#63b8ff" stroke="#63b8ff" points="456.54,-74.65 446.99,-70.06 451.59,-79.6 456.54,-74.65"/>
</a>
</g>
</g>
<!-- Node13 -->
<g id="Node000013" class="node">
<title>Node13</title>
<g id="a_Node000013"><a xlink:title=" ">
<polygon fill="#e0e0e0" stroke="#999999" points="536.44,-70 478.44,-70 478.44,-53 536.44,-53 536.44,-70"/>
<text text-anchor="middle" x="507.44" y="-59.6" font-family="Helvetica,sans-Serif" font-size="8.00">functional</text>
</a>
</g>
</g>
<!-- Node10&#45;&gt;Node13 -->
<g id="edge16_Node000010_Node000013" class="edge">
<title>Node10&#45;&gt;Node13</title>
<g id="a_edge16_Node000010_Node000013"><a xlink:title=" ">
<path fill="none" stroke="#63b8ff" d="M492.95,-105.97C495.26,-99.04 498.77,-88.51 501.76,-79.55"/>
<polygon fill="#63b8ff" stroke="#63b8ff" points="505.08,-80.65 504.92,-70.06 498.44,-78.44 505.08,-80.65"/>
</a>
</g>
</g>
<!-- Node14 -->
<g id="Node000014" class="node">
<title>Node14</title>
<g id="a_Node000014"><a xlink:title=" ">
<polygon fill="#e0e0e0" stroke="#999999" points="594.44,-70 554.44,-70 554.44,-53 594.44,-53 594.44,-70"/>
<text text-anchor="middle" x="574.44" y="-59.6" font-family="Helvetica,sans-Serif" font-size="8.00">string</text>
</a>
</g>
</g>
<!-- Node10&#45;&gt;Node14 -->
<g id="edge18_Node000010_Node000014" class="edge">
<title>Node10&#45;&gt;Node14</title>
<g id="a_edge18_Node000010_Node000014"><a xlink:title=" ">
<path fill="none" stroke="#63b8ff" d="M502.83,-105.97C516.11,-97.91 537.41,-84.98 553.34,-75.31"/>
<polygon fill="#63b8ff" stroke="#63b8ff" points="555.26,-78.24 561.99,-70.06 551.63,-72.25 555.26,-78.24"/>
</a>
</g>
</g>
<!-- Node15 -->
<g id="Node000015" class="node">
<title>Node15</title>
<g id="a_Node000015"><a xlink:title=" ">
<polygon fill="#e0e0e0" stroke="#999999" points="361.94,-70 302.94,-70 302.94,-53 361.94,-53 361.94,-70"/>
<text text-anchor="middle" x="332.44" y="-59.6" font-family="Helvetica,sans-Serif" font-size="8.00">type_traits</text>
</a>
</g>
</g>
<!-- Node10&#45;&gt;Node15 -->
<g id="edge19_Node000010_Node000015" class="edge">
<title>Node10&#45;&gt;Node15</title>
<g id="a_edge19_Node000010_Node000015"><a xlink:title=" ">
<path fill="none" stroke="#63b8ff" d="M467.13,-105.97C440.29,-97.31 396,-83.02 365.59,-73.2"/>
<polygon fill="#63b8ff" stroke="#63b8ff" points="366.44,-69.8 355.85,-70.06 364.29,-76.46 366.44,-69.8"/>
</a>
</g>
</g>
<!-- Node17&#45;&gt;Node2 -->
<g id="edge23_Node000017_Node000002" class="edge">
<title>Node17&#45;&gt;Node2</title>
<g id="a_edge23_Node000017_Node000002"><a xlink:title=" ">
<path fill="none" stroke="#63b8ff" d="M329.33,-158.74C318.38,-151.05 302.74,-138.23 294.44,-123 277.72,-92.34 274.5,-50.74 274.15,-27.36"/>
<polygon fill="#63b8ff" stroke="#63b8ff" points="277.65,-27.22 274.16,-17.21 270.65,-27.21 277.65,-27.22"/>
</a>
</g>
</g>
<!-- Node17&#45;&gt;Node3 -->
<g id="edge24_Node000017_Node000003" class="edge">
<title>Node17&#45;&gt;Node3</title>
<g id="a_edge24_Node000017_Node000003"><a xlink:title=" ">
<path fill="none" stroke="#63b8ff" d="M382.51,-159.47C422.9,-152.08 486.09,-139.29 539.44,-123 559.09,-117 563.04,-112.77 582.44,-106 621.5,-92.36 667.36,-78.84 696.41,-70.58"/>
<polygon fill="#63b8ff" stroke="#63b8ff" points="697.64,-73.87 706.31,-67.78 695.74,-67.13 697.64,-73.87"/>
</a>
</g>
</g>
<!-- Node17&#45;&gt;Node4 -->
<g id="edge26_Node000017_Node000004" class="edge">
<title>Node17&#45;&gt;Node4</title>
<g id="a_edge26_Node000017_Node000004"><a xlink:title=" ">
<path fill="none" stroke="#63b8ff" d="M318.72,-158.97C292.22,-150.2 248.28,-135.65 218.61,-125.82"/>
<polygon fill="#63b8ff" stroke="#63b8ff" points="219.36,-122.38 208.77,-122.56 217.16,-129.03 219.36,-122.38"/>
</a>
</g>
</g>
<!-- Node17&#45;&gt;Node7 -->
<g id="edge29_Node000017_Node000007" class="edge">
<title>Node17&#45;&gt;Node7</title>
<g id="a_edge29_Node000017_Node000007"><a xlink:title=" ">
<path fill="none" stroke="#63b8ff" d="M328.05,-158.91C305.71,-146.5 259.15,-121.65 217.44,-106 179.4,-91.73 134.69,-80.03 102.05,-72.38"/>
<polygon fill="#63b8ff" stroke="#63b8ff" points="102.44,-68.87 91.91,-70.04 100.86,-75.7 102.44,-68.87"/>
</a>
</g>
</g>
<!-- Node17&#45;&gt;Node10 -->
<g id="edge27_Node000017_Node000010" class="edge">
<title>Node17&#45;&gt;Node10</title>
<g id="a_edge27_Node000017_Node000010"><a xlink:title=" ">
<path fill="none" stroke="#63b8ff" d="M363.42,-158.97C388.62,-150.35 430.13,-136.14 458.8,-126.33"/>
<polygon fill="#63b8ff" stroke="#63b8ff" points="460.04,-129.61 468.36,-123.06 457.77,-122.98 460.04,-129.61"/>
</a>
</g>
</g>
<!-- Node17&#45;&gt;Node15 -->
<g id="edge25_Node000017_Node000015" class="edge">
<title>Node17&#45;&gt;Node15</title>
<g id="a_edge25_Node000017_Node000015"><a xlink:title=" ">
<path fill="none" stroke="#63b8ff" d="M348.24,-158.77C357.42,-147.36 371.92,-125.28 365.44,-106 361.89,-95.44 354.64,-85.41 347.85,-77.65"/>
<polygon fill="#63b8ff" stroke="#63b8ff" points="350.24,-75.09 340.84,-70.2 345.14,-79.88 350.24,-75.09"/>
</a>
</g>
</g>
<!-- Node18 -->
<g id="Node000018" class="node">
<title>Node18</title>
<g id="a_Node000018"><a xlink:title=" ">
<polygon fill="#e0e0e0" stroke="#999999" points="355.94,-123 302.94,-123 302.94,-106 355.94,-106 355.94,-123"/>
<text text-anchor="middle" x="329.44" y="-112.6" font-family="Helvetica,sans-Serif" font-size="8.00">iostream</text>
</a>
</g>
</g>
<!-- Node17&#45;&gt;Node18 -->
<g id="edge28_Node000017_Node000018" class="edge">
<title>Node17&#45;&gt;Node18</title>
<g id="a_edge28_Node000017_Node000018"><a xlink:title=" ">
<path fill="none" stroke="#63b8ff" d="M339.67,-158.97C338.06,-152.12 335.61,-141.74 333.52,-132.84"/>
<polygon fill="#63b8ff" stroke="#63b8ff" points="336.91,-131.99 331.22,-123.06 330.1,-133.59 336.91,-131.99"/>
</a>
</g>
</g>
</g>
</svg>
