<?xml version="1.0" encoding="UTF-8" standalone="no"?>
<!DOCTYPE svg PUBLIC "-//W3C//DTD SVG 1.1//EN"
 "http://www.w3.org/Graphics/SVG/1.1/DTD/svg11.dtd">
<!-- Generated by graphviz version 2.43.0 (0)
 -->
<!-- Title: eiddfs.hpp Pages: 1 -->
<svg width="681pt" height="237pt"
 viewBox="0.00 0.00 681.00 237.00" xmlns="http://www.w3.org/2000/svg" xmlns:xlink="http://www.w3.org/1999/xlink">
<g id="graph0" class="graph" transform="scale(1 1) rotate(0) translate(4 233)">
<title>eiddfs.hpp</title>
<!-- Node1 -->
<g id="Node000001" class="node">
<title>Node1</title>
<g id="a_Node000001"><a xlink:title=" ">
<polygon fill="#999999" stroke="#666666" points="283.5,-229 230.5,-229 230.5,-212 283.5,-212 283.5,-229"/>
<text text-anchor="middle" x="257" y="-218.6" font-family="Helvetica,sans-Serif" font-size="8.00">eiddfs.hpp</text>
</a>
</g>
</g>
<!-- Node2 -->
<g id="Node000002" class="node">
<title>Node2</title>
<g id="a_Node000002"><a xlink:title=" ">
<polygon fill="#e0e0e0" stroke="#999999" points="42,-17 0,-17 0,0 42,0 42,-17"/>
<text text-anchor="middle" x="21" y="-6.6" font-family="Helvetica,sans-Serif" font-size="8.00">cstddef</text>
</a>
</g>
</g>
<!-- Node1&#45;&gt;Node2 -->
<g id="edge1_Node000001_Node000002" class="edge">
<title>Node1&#45;&gt;Node2</title>
<g id="a_edge1_Node000001_Node000002"><a xlink:title=" ">
<path fill="none" stroke="#63b8ff" d="M230.49,-220.06C191.32,-219.53 117.51,-213.18 70,-176 28.36,-143.41 28.34,-121.41 16,-70 12.57,-55.72 14.36,-39.06 16.7,-26.84"/>
<polygon fill="#63b8ff" stroke="#63b8ff" points="20.12,-27.59 18.87,-17.07 13.28,-26.07 20.12,-27.59"/>
</a>
</g>
</g>
<!-- Node3 -->
<g id="Node000003" class="node">
<title>Node3</title>
<g id="a_Node000003"><a xlink:title=" ">
<polygon fill="#e0e0e0" stroke="#999999" points="520,-70 486,-70 486,-53 520,-53 520,-70"/>
<text text-anchor="middle" x="503" y="-59.6" font-family="Helvetica,sans-Serif" font-size="8.00">limits</text>
</a>
</g>
</g>
<!-- Node1&#45;&gt;Node3 -->
<g id="edge2_Node000001_Node000003" class="edge">
<title>Node1&#45;&gt;Node3</title>
<g id="a_edge2_Node000001_Node000003"><a xlink:title=" ">
<path fill="none" stroke="#63b8ff" d="M283.71,-214.03C310.68,-207.71 352.82,-195.59 385,-176 429.57,-148.87 470.89,-102.3 490.71,-78.11"/>
<polygon fill="#63b8ff" stroke="#63b8ff" points="493.67,-80.01 497.21,-70.02 488.22,-75.62 493.67,-80.01"/>
</a>
</g>
</g>
<!-- Node4 -->
<g id="Node000004" class="node">
<title>Node4</title>
<g id="a_Node000004"><a xlink:title=" ">
<polygon fill="#e0e0e0" stroke="#999999" points="250,-123 212,-123 212,-106 250,-106 250,-123"/>
<text text-anchor="middle" x="231" y="-112.6" font-family="Helvetica,sans-Serif" font-size="8.00">vector</text>
</a>
</g>
</g>
<!-- Node1&#45;&gt;Node4 -->
<g id="edge3_Node000001_Node000004" class="edge">
<title>Node1&#45;&gt;Node4</title>
<g id="a_edge3_Node000001_Node000004"><a xlink:title=" ">
<path fill="none" stroke="#63b8ff" d="M255.05,-211.68C250.88,-195.04 241.06,-155.75 235.34,-132.87"/>
<polygon fill="#63b8ff" stroke="#63b8ff" points="238.73,-131.98 232.91,-123.12 231.94,-133.68 238.73,-131.98"/>
</a>
</g>
</g>
<!-- Node5 -->
<g id="Node000005" class="node">
<title>Node5</title>
<g id="a_Node000005"><a xlink:href="../../df/d47/stack_8hpp.html" target="_top" xlink:title=" ">
<polygon fill="white" stroke="#666666" points="209.5,-176 92.5,-176 92.5,-159 209.5,-159 209.5,-176"/>
<text text-anchor="middle" x="151" y="-165.6" font-family="Helvetica,sans-Serif" font-size="8.00">../types/containers/stack.hpp</text>
</a>
</g>
</g>
<!-- Node1&#45;&gt;Node5 -->
<g id="edge4_Node000001_Node000005" class="edge">
<title>Node1&#45;&gt;Node5</title>
<g id="a_edge4_Node000001_Node000005"><a xlink:title=" ">
<path fill="none" stroke="#63b8ff" d="M241.36,-211.97C224.14,-203.69 196.2,-190.25 175.95,-180.5"/>
<polygon fill="#63b8ff" stroke="#63b8ff" points="177.23,-177.24 166.7,-176.06 174.2,-183.55 177.23,-177.24"/>
</a>
</g>
</g>
<!-- Node7 -->
<g id="Node000007" class="node">
<title>Node7</title>
<g id="a_Node000007"><a xlink:href="../../d7/d65/intrinsics_8hpp.html" target="_top" xlink:title=" ">
<polygon fill="white" stroke="#666666" points="126,-70 34,-70 34,-53 126,-53 126,-70"/>
<text text-anchor="middle" x="80" y="-59.6" font-family="Helvetica,sans-Serif" font-size="8.00">../../utils/intrinsics.hpp</text>
</a>
</g>
</g>
<!-- Node1&#45;&gt;Node7 -->
<g id="edge29_Node000001_Node000007" class="edge">
<title>Node1&#45;&gt;Node7</title>
<g id="a_edge29_Node000001_Node000007"><a xlink:title=" ">
<path fill="none" stroke="#63b8ff" d="M230.22,-216.71C186.12,-211.52 101.27,-198.77 83,-176 60.96,-148.53 68.22,-104.13 74.62,-79.8"/>
<polygon fill="#63b8ff" stroke="#63b8ff" points="77.99,-80.75 77.39,-70.17 71.26,-78.82 77.99,-80.75"/>
</a>
</g>
</g>
<!-- Node10 -->
<g id="Node000010" class="node">
<title>Node10</title>
<g id="a_Node000010"><a xlink:href="../../df/d93/utils_8hpp.html" target="_top" xlink:title=" ">
<polygon fill="white" stroke="#666666" points="374,-123 306,-123 306,-106 374,-106 374,-123"/>
<text text-anchor="middle" x="340" y="-112.6" font-family="Helvetica,sans-Serif" font-size="8.00">../utils/utils.hpp</text>
</a>
</g>
</g>
<!-- Node1&#45;&gt;Node10 -->
<g id="edge12_Node000001_Node000010" class="edge">
<title>Node1&#45;&gt;Node10</title>
<g id="a_edge12_Node000001_Node000010"><a xlink:title=" ">
<path fill="none" stroke="#63b8ff" d="M261.12,-211.65C267.57,-199.71 280.78,-176.53 295,-159 303.49,-148.53 314.32,-138 323.22,-129.92"/>
<polygon fill="#63b8ff" stroke="#63b8ff" points="325.58,-132.51 330.74,-123.26 320.93,-127.27 325.58,-132.51"/>
</a>
</g>
</g>
<!-- Node16 -->
<g id="Node000016" class="node">
<title>Node16</title>
<g id="a_Node000016"><a xlink:href="../../dc/d3c/bnode_8hpp.html" target="_top" xlink:title=" ">
<polygon fill="white" stroke="#666666" points="673,-176 599,-176 599,-159 673,-159 673,-176"/>
<text text-anchor="middle" x="636" y="-165.6" font-family="Helvetica,sans-Serif" font-size="8.00">base/bnode.hpp</text>
</a>
</g>
</g>
<!-- Node1&#45;&gt;Node16 -->
<g id="edge21_Node000001_Node000016" class="edge">
<title>Node1&#45;&gt;Node16</title>
<g id="a_edge21_Node000001_Node000016"><a xlink:title=" ">
<path fill="none" stroke="#63b8ff" d="M283.8,-216.08C339.79,-208.9 473.21,-191.63 585,-176 586.27,-175.82 587.56,-175.64 588.86,-175.46"/>
<polygon fill="#63b8ff" stroke="#63b8ff" points="589.56,-178.89 598.96,-174.01 588.57,-171.96 589.56,-178.89"/>
</a>
</g>
</g>
<!-- Node17 -->
<g id="Node000017" class="node">
<title>Node17</title>
<g id="a_Node000017"><a xlink:href="../../d2/d1c/solver_8hpp.html" target="_top" xlink:title=" ">
<polygon fill="white" stroke="#666666" points="376,-176 304,-176 304,-159 376,-159 376,-176"/>
<text text-anchor="middle" x="340" y="-165.6" font-family="Helvetica,sans-Serif" font-size="8.00">base/solver.hpp</text>
</a>
</g>
</g>
<!-- Node1&#45;&gt;Node17 -->
<g id="edge22_Node000001_Node000017" class="edge">
<title>Node1&#45;&gt;Node17</title>
<g id="a_edge22_Node000001_Node000017"><a xlink:title=" ">
<path fill="none" stroke="#63b8ff" d="M269.25,-211.97C282.36,-203.91 303.42,-190.98 319.15,-181.31"/>
<polygon fill="#63b8ff" stroke="#63b8ff" points="321.02,-184.27 327.7,-176.06 317.35,-178.31 321.02,-184.27"/>
</a>
</g>
</g>
<!-- Node5&#45;&gt;Node2 -->
<g id="edge5_Node000005_Node000002" class="edge">
<title>Node5&#45;&gt;Node2</title>
<g id="a_edge5_Node000005_Node000002"><a xlink:title=" ">
<path fill="none" stroke="#63b8ff" d="M132.61,-158.84C103.57,-145.62 48.03,-115.48 25,-70 18.3,-56.77 17.76,-39.78 18.64,-27.17"/>
<polygon fill="#63b8ff" stroke="#63b8ff" points="22.13,-27.37 19.69,-17.06 15.17,-26.64 22.13,-27.37"/>
</a>
</g>
</g>
<!-- Node5&#45;&gt;Node4 -->
<g id="edge7_Node000005_Node000004" class="edge">
<title>Node5&#45;&gt;Node4</title>
<g id="a_edge7_Node000005_Node000004"><a xlink:title=" ">
<path fill="none" stroke="#63b8ff" d="M162.8,-158.97C175.33,-150.99 195.36,-138.22 210.48,-128.58"/>
<polygon fill="#63b8ff" stroke="#63b8ff" points="212.6,-131.38 219.15,-123.06 208.83,-125.48 212.6,-131.38"/>
</a>
</g>
</g>
<!-- Node6 -->
<g id="Node000006" class="node">
<title>Node6</title>
<g id="a_Node000006"><a xlink:title=" ">
<polygon fill="#e0e0e0" stroke="#999999" points="192,-123 110,-123 110,-106 192,-106 192,-123"/>
<text text-anchor="middle" x="151" y="-112.6" font-family="Helvetica,sans-Serif" font-size="8.00">memory_resource</text>
</a>
</g>
</g>
<!-- Node5&#45;&gt;Node6 -->
<g id="edge6_Node000005_Node000006" class="edge">
<title>Node5&#45;&gt;Node6</title>
<g id="a_edge6_Node000005_Node000006"><a xlink:title=" ">
<path fill="none" stroke="#63b8ff" d="M151,-158.97C151,-152.19 151,-141.97 151,-133.13"/>
<polygon fill="#63b8ff" stroke="#63b8ff" points="154.5,-133.06 151,-123.06 147.5,-133.06 154.5,-133.06"/>
</a>
</g>
</g>
<!-- Node5&#45;&gt;Node7 -->
<g id="edge8_Node000005_Node000007" class="edge">
<title>Node5&#45;&gt;Node7</title>
<g id="a_edge8_Node000005_Node000007"><a xlink:title=" ">
<path fill="none" stroke="#63b8ff" d="M139.1,-158.88C127.84,-151.1 111.18,-138.06 101,-123 92.14,-109.89 86.64,-92.66 83.5,-79.94"/>
<polygon fill="#63b8ff" stroke="#63b8ff" points="86.91,-79.15 81.33,-70.14 80.08,-80.66 86.91,-79.15"/>
</a>
</g>
</g>
<!-- Node7&#45;&gt;Node2 -->
<g id="edge10_Node000007_Node000002" class="edge">
<title>Node7&#45;&gt;Node2</title>
<g id="a_edge10_Node000007_Node000002"><a xlink:title=" ">
<path fill="none" stroke="#63b8ff" d="M71.29,-52.97C62.41,-45.29 48.39,-33.18 37.41,-23.69"/>
<polygon fill="#63b8ff" stroke="#63b8ff" points="39.6,-20.95 29.74,-17.06 35.02,-26.24 39.6,-20.95"/>
</a>
</g>
</g>
<!-- Node8 -->
<g id="Node000008" class="node">
<title>Node8</title>
<g id="a_Node000008"><a xlink:title=" ">
<polygon fill="#e0e0e0" stroke="#999999" points="100,-17 60,-17 60,0 100,0 100,-17"/>
<text text-anchor="middle" x="80" y="-6.6" font-family="Helvetica,sans-Serif" font-size="8.00">atomic</text>
</a>
</g>
</g>
<!-- Node7&#45;&gt;Node8 -->
<g id="edge9_Node000007_Node000008" class="edge">
<title>Node7&#45;&gt;Node8</title>
<g id="a_edge9_Node000007_Node000008"><a xlink:title=" ">
<path fill="none" stroke="#63b8ff" d="M80,-52.97C80,-46.19 80,-35.97 80,-27.13"/>
<polygon fill="#63b8ff" stroke="#63b8ff" points="83.5,-27.06 80,-17.06 76.5,-27.06 83.5,-27.06"/>
</a>
</g>
</g>
<!-- Node9 -->
<g id="Node000009" class="node">
<title>Node9</title>
<g id="a_Node000009"><a xlink:title=" ">
<polygon fill="#e0e0e0" stroke="#999999" points="156,-17 118,-17 118,0 156,0 156,-17"/>
<text text-anchor="middle" x="137" y="-6.6" font-family="Helvetica,sans-Serif" font-size="8.00">cstdlib</text>
</a>
</g>
</g>
<!-- Node7&#45;&gt;Node9 -->
<g id="edge11_Node000007_Node000009" class="edge">
<title>Node7&#45;&gt;Node9</title>
<g id="a_edge11_Node000007_Node000009"><a xlink:title=" ">
<path fill="none" stroke="#63b8ff" d="M88.41,-52.97C96.91,-45.37 110.27,-33.41 120.83,-23.97"/>
<polygon fill="#63b8ff" stroke="#63b8ff" points="123.44,-26.33 128.55,-17.06 118.77,-21.12 123.44,-26.33"/>
</a>
</g>
</g>
<!-- Node10&#45;&gt;Node2 -->
<g id="edge15_Node000010_Node000002" class="edge">
<title>Node10&#45;&gt;Node2</title>
<g id="a_edge15_Node000010_Node000002"><a xlink:title=" ">
<path fill="none" stroke="#63b8ff" d="M348.15,-105.98C360.54,-93.67 381.25,-68.96 367,-53 321.82,-2.38 136.27,-27.38 52.2,-16.7"/>
<polygon fill="#63b8ff" stroke="#63b8ff" points="52.65,-13.23 42.23,-15.17 51.58,-20.15 52.65,-13.23"/>
</a>
</g>
</g>
<!-- Node10&#45;&gt;Node3 -->
<g id="edge17_Node000010_Node000003" class="edge">
<title>Node10&#45;&gt;Node3</title>
<g id="a_edge17_Node000010_Node000003"><a xlink:title=" ">
<path fill="none" stroke="#63b8ff" d="M364.05,-105.97C393.97,-96.61 444.89,-80.68 476.08,-70.92"/>
<polygon fill="#63b8ff" stroke="#63b8ff" points="477.35,-74.19 485.85,-67.87 475.26,-67.51 477.35,-74.19"/>
</a>
</g>
</g>
<!-- Node10&#45;&gt;Node7 -->
<g id="edge20_Node000010_Node000007" class="edge">
<title>Node10&#45;&gt;Node7</title>
<g id="a_edge20_Node000010_Node000007"><a xlink:title=" ">
<path fill="none" stroke="#63b8ff" d="M305.74,-106.78C260.37,-97.88 180.07,-82.13 128.48,-72.01"/>
<polygon fill="#63b8ff" stroke="#63b8ff" points="129.06,-68.56 118.57,-70.07 127.71,-75.42 129.06,-68.56"/>
</a>
</g>
</g>
<!-- Node11 -->
<g id="Node000011" class="node">
<title>Node11</title>
<g id="a_Node000011"><a xlink:title=" ">
<polygon fill="#e0e0e0" stroke="#999999" points="179.5,-70 144.5,-70 144.5,-53 179.5,-53 179.5,-70"/>
<text text-anchor="middle" x="162" y="-59.6" font-family="Helvetica,sans-Serif" font-size="8.00">array</text>
</a>
</g>
</g>
<!-- Node10&#45;&gt;Node11 -->
<g id="edge13_Node000010_Node000011" class="edge">
<title>Node10&#45;&gt;Node11</title>
<g id="a_edge13_Node000010_Node000011"><a xlink:title=" ">
<path fill="none" stroke="#63b8ff" d="M313.74,-105.97C280.43,-96.43 223.28,-80.06 189.43,-70.36"/>
<polygon fill="#63b8ff" stroke="#63b8ff" points="190.31,-66.97 179.73,-67.58 188.38,-73.7 190.31,-66.97"/>
</a>
</g>
</g>
<!-- Node12 -->
<g id="Node000012" class="node">
<title>Node12</title>
<g id="a_Node000012"><a xlink:title=" ">
<polygon fill="#e0e0e0" stroke="#999999" points="236,-70 198,-70 198,-53 236,-53 236,-70"/>
<text text-anchor="middle" x="217" y="-59.6" font-family="Helvetica,sans-Serif" font-size="8.00">cmath</text>
</a>
</g>
</g>
<!-- Node10&#45;&gt;Node12 -->
<g id="edge14_Node000010_Node000012" class="edge">
<title>Node10&#45;&gt;Node12</title>
<g id="a_edge14_Node000010_Node000012"><a xlink:title=" ">
<path fill="none" stroke="#63b8ff" d="M321.85,-105.97C301.5,-97.54 268.27,-83.76 244.68,-73.98"/>
<polygon fill="#63b8ff" stroke="#63b8ff" points="245.8,-70.65 235.22,-70.06 243.12,-77.12 245.8,-70.65"/>
</a>
</g>
</g>
<!-- Node13 -->
<g id="Node000013" class="node">
<title>Node13</title>
<g id="a_Node000013"><a xlink:title=" ">
<polygon fill="#e0e0e0" stroke="#999999" points="304,-70 254,-70 254,-53 304,-53 304,-70"/>
<text text-anchor="middle" x="279" y="-59.6" font-family="Helvetica,sans-Serif" font-size="8.00">functional</text>
</a>
</g>
</g>
<!-- Node10&#45;&gt;Node13 -->
<g id="edge16_Node000010_Node000013" class="edge">
<title>Node10&#45;&gt;Node13</title>
<g id="a_edge16_Node000010_Node000013"><a xlink:title=" ">
<path fill="none" stroke="#63b8ff" d="M331,-105.97C321.81,-98.29 307.32,-86.18 295.97,-76.69"/>
<polygon fill="#63b8ff" stroke="#63b8ff" points="297.95,-73.79 288.04,-70.06 293.46,-79.16 297.95,-73.79"/>
</a>
</g>
</g>
<!-- Node14 -->
<g id="Node000014" class="node">
<title>Node14</title>
<g id="a_Node000014"><a xlink:title=" ">
<polygon fill="#e0e0e0" stroke="#999999" points="358,-70 322,-70 322,-53 358,-53 358,-70"/>
<text text-anchor="middle" x="340" y="-59.6" font-family="Helvetica,sans-Serif" font-size="8.00">string</text>
</a>
</g>
</g>
<!-- Node10&#45;&gt;Node14 -->
<g id="edge18_Node000010_Node000014" class="edge">
<title>Node10&#45;&gt;Node14</title>
<g id="a_edge18_Node000010_Node000014"><a xlink:title=" ">
<path fill="none" stroke="#63b8ff" d="M340,-105.97C340,-99.19 340,-88.97 340,-80.13"/>
<polygon fill="#63b8ff" stroke="#63b8ff" points="343.5,-80.06 340,-70.06 336.5,-80.06 343.5,-80.06"/>
</a>
</g>
</g>
<!-- Node15 -->
<g id="Node000015" class="node">
<title>Node15</title>
<g id="a_Node000015"><a xlink:title=" ">
<polygon fill="#e0e0e0" stroke="#999999" points="467.5,-70 414.5,-70 414.5,-53 467.5,-53 467.5,-70"/>
<text text-anchor="middle" x="441" y="-59.6" font-family="Helvetica,sans-Serif" font-size="8.00">type_traits</text>
</a>
</g>
</g>
<!-- Node10&#45;&gt;Node15 -->
<g id="edge19_Node000010_Node000015" class="edge">
<title>Node10&#45;&gt;Node15</title>
<g id="a_edge19_Node000010_Node000015"><a xlink:title=" ">
<path fill="none" stroke="#63b8ff" d="M354.9,-105.97C371.24,-97.73 397.69,-84.37 416.96,-74.64"/>
<polygon fill="#63b8ff" stroke="#63b8ff" points="418.69,-77.69 426.04,-70.06 415.53,-71.44 418.69,-77.69"/>
</a>
</g>
</g>
<!-- Node17&#45;&gt;Node2 -->
<g id="edge23_Node000017_Node000002" class="edge">
<title>Node17&#45;&gt;Node2</title>
<g id="a_edge23_Node000017_Node000002"><a xlink:title=" ">
<path fill="none" stroke="#63b8ff" d="M376.25,-159.45C444.22,-144.74 579.62,-107.58 529,-53 494.37,-15.67 137.11,-24.57 52.14,-16.5"/>
<polygon fill="#63b8ff" stroke="#63b8ff" points="52.57,-13.03 42.21,-15.28 51.71,-19.98 52.57,-13.03"/>
</a>
</g>
</g>
<!-- Node17&#45;&gt;Node3 -->
<g id="edge24_Node000017_Node000003" class="edge">
<title>Node17&#45;&gt;Node3</title>
<g id="a_edge24_Node000017_Node000003"><a xlink:title=" ">
<path fill="none" stroke="#63b8ff" d="M351.99,-158.85C379.54,-141.27 447.67,-97.81 482.21,-75.77"/>
<polygon fill="#63b8ff" stroke="#63b8ff" points="484.45,-78.49 491,-70.16 480.68,-72.59 484.45,-78.49"/>
</a>
</g>
</g>
<!-- Node17&#45;&gt;Node4 -->
<g id="edge26_Node000017_Node000004" class="edge">
<title>Node17&#45;&gt;Node4</title>
<g id="a_edge26_Node000017_Node000004"><a xlink:title=" ">
<path fill="none" stroke="#63b8ff" d="M323.92,-158.97C306.13,-150.65 277.22,-137.13 256.37,-127.37"/>
<polygon fill="#63b8ff" stroke="#63b8ff" points="257.69,-124.12 247.15,-123.06 254.72,-130.46 257.69,-124.12"/>
</a>
</g>
</g>
<!-- Node17&#45;&gt;Node7 -->
<g id="edge28_Node000017_Node000007" class="edge">
<title>Node17&#45;&gt;Node7</title>
<g id="a_edge28_Node000017_Node000007"><a xlink:title=" ">
<path fill="none" stroke="#63b8ff" d="M332.21,-158.94C318.54,-146.09 288.86,-120.05 259,-106 236.13,-95.24 173.28,-81.18 128.52,-72"/>
<polygon fill="#63b8ff" stroke="#63b8ff" points="129.2,-68.57 118.7,-70.01 127.81,-75.43 129.2,-68.57"/>
</a>
</g>
</g>
<!-- Node17&#45;&gt;Node10 -->
<g id="edge27_Node000017_Node000010" class="edge">
<title>Node17&#45;&gt;Node10</title>
<g id="a_edge27_Node000017_Node000010"><a xlink:title=" ">
<path fill="none" stroke="#63b8ff" d="M340,-158.97C340,-152.19 340,-141.97 340,-133.13"/>
<polygon fill="#63b8ff" stroke="#63b8ff" points="343.5,-133.06 340,-123.06 336.5,-133.06 343.5,-133.06"/>
</a>
</g>
</g>
<!-- Node17&#45;&gt;Node15 -->
<g id="edge25_Node000017_Node000015" class="edge">
<title>Node17&#45;&gt;Node15</title>
<g id="a_edge25_Node000017_Node000015"><a xlink:title=" ">
<path fill="none" stroke="#63b8ff" d="M347.65,-158.83C356.27,-150.17 370.7,-135.63 383,-123 397.84,-107.75 414.66,-90.18 426.34,-77.92"/>
<polygon fill="#63b8ff" stroke="#63b8ff" points="429.17,-80.02 433.53,-70.37 424.1,-75.2 429.17,-80.02"/>
</a>
</g>
</g>
</g>
</svg>
