<?xml version="1.0" encoding="UTF-8" standalone="no"?>
<!DOCTYPE svg PUBLIC "-//W3C//DTD SVG 1.1//EN"
 "http://www.w3.org/Graphics/SVG/1.1/DTD/svg11.dtd">
<!-- Generated by graphviz version 2.43.0 (0)
 -->
<!-- Title: weighted_node&lt; weight_t &gt; Pages: 1 -->
<svg width="176pt" height="90pt"
 viewBox="0.00 0.00 176.00 90.00" xmlns="http://www.w3.org/2000/svg" xmlns:xlink="http://www.w3.org/1999/xlink">
<g id="graph0" class="graph" transform="scale(1 1) rotate(0) translate(4 86)">
<title>weighted_node&lt; weight_t &gt;</title>
<!-- Node1 -->
<g id="Node000001" class="node">
<title>Node1</title>
<g id="a_Node000001"><a xlink:title="Represents a node with customisable weight.">
<polygon fill="#999999" stroke="transparent" points="168,-82 0,-82 0,0 168,0 168,-82"/>
<text text-anchor="start" x="34.5" y="-71.6" font-family="Helvetica,sans-Serif" font-size="8.00">weighted_node&lt; weight_t &gt;</text>
<text text-anchor="start" x="82.5" y="-58.6" font-family="Helvetica,sans-Serif" font-size="8.00"> </text>
<text text-anchor="start" x="4" y="-45.6" font-family="Helvetica,sans-Serif" font-size="8.00">+</text>
<text text-anchor="start" x="13" y="-45.6" font-family="Helvetica,sans-Serif" font-size="8.00">bool is_active() const noexcept</text>
<text text-anchor="start" x="4" y="-32.6" font-family="Helvetica,sans-Serif" font-size="8.00">+</text>
<text text-anchor="start" x="13" y="-32.6" font-family="Helvetica,sans-Serif" font-size="8.00">weight_t value() const noexcept</text>
<text text-anchor="start" x="4" y="-19.6" font-family="Helvetica,sans-Serif" font-size="8.00">+</text>
<text text-anchor="start" x="13" y="-19.6" font-family="Helvetica,sans-Serif" font-size="8.00">void value(weight_t _value) noexcept</text>
<text text-anchor="start" x="4.5" y="-6.6" font-family="Helvetica,sans-Serif" font-size="8.00">*</text>
<text text-anchor="start" x="13" y="-6.6" font-family="Helvetica,sans-Serif" font-size="8.00">weighted_node(weight_t _value) noexcept</text>
<polygon fill="#666666" stroke="#666666" points="0,-67 0,-67 168,-67 168,-67 0,-67"/>
<polygon fill="#666666" stroke="#666666" points="0,-54 0,-54 168,-54 168,-54 0,-54"/>
<polygon fill="none" stroke="#666666" points="0,0 0,-82 168,-82 168,0 0,0"/>
</a>
</g>
</g>
</g>
</svg>
