<?xml version="1.0" encoding="UTF-8" standalone="no"?>
<!DOCTYPE svg PUBLIC "-//W3C//DTD SVG 1.1//EN"
 "http://www.w3.org/Graphics/SVG/1.1/DTD/svg11.dtd">
<!-- Generated by graphviz version 2.43.0 (0)
 -->
<!-- Title: unmanaged_node.hpp Pages: 1 -->
<svg width="205pt" height="131pt"
 viewBox="0.00 0.00 204.50 131.00" xmlns="http://www.w3.org/2000/svg" xmlns:xlink="http://www.w3.org/1999/xlink">
<g id="graph0" class="graph" transform="scale(1 1) rotate(0) translate(4 127)">
<title>unmanaged_node.hpp</title>
<!-- Node1 -->
<g id="Node000001" class="node">
<title>Node1</title>
<g id="a_Node000001"><a xlink:title=" ">
<polygon fill="#999999" stroke="#666666" points="122.5,-123 24.5,-123 24.5,-106 122.5,-106 122.5,-123"/>
<text text-anchor="middle" x="73.5" y="-112.6" font-family="Helvetica,sans-Serif" font-size="8.00">unmanaged_node.hpp</text>
</a>
</g>
</g>
<!-- Node2 -->
<g id="Node000002" class="node">
<title>Node2</title>
<g id="a_Node000002"><a xlink:href="../../dc/d3c/bnode_8hpp.html" target="_top" xlink:title=" ">
<polygon fill="white" stroke="#666666" points="55,-70 0,-70 0,-53 55,-53 55,-70"/>
<text text-anchor="middle" x="27.5" y="-59.6" font-family="Helvetica,sans-Serif" font-size="8.00">bnode.hpp</text>
</a>
</g>
</g>
<!-- Node1&#45;&gt;Node2 -->
<g id="edge1_Node000001_Node000002" class="edge">
<title>Node1&#45;&gt;Node2</title>
<g id="a_edge1_Node000001_Node000002"><a xlink:title=" ">
<path fill="none" stroke="#63b8ff" d="M66.71,-105.97C59.99,-98.52 49.49,-86.89 41.06,-77.53"/>
<polygon fill="#63b8ff" stroke="#63b8ff" points="43.61,-75.14 34.32,-70.06 38.41,-79.83 43.61,-75.14"/>
</a>
</g>
</g>
<!-- Node3 -->
<g id="Node000003" class="node">
<title>Node3</title>
<g id="a_Node000003"><a xlink:href="../../d7/d65/intrinsics_8hpp.html" target="_top" xlink:title=" ">
<polygon fill="white" stroke="#666666" points="165.5,-70 73.5,-70 73.5,-53 165.5,-53 165.5,-70"/>
<text text-anchor="middle" x="119.5" y="-59.6" font-family="Helvetica,sans-Serif" font-size="8.00">../../utils/intrinsics.hpp</text>
</a>
</g>
</g>
<!-- Node1&#45;&gt;Node3 -->
<g id="edge2_Node000001_Node000003" class="edge">
<title>Node1&#45;&gt;Node3</title>
<g id="a_edge2_Node000001_Node000003"><a xlink:title=" ">
<path fill="none" stroke="#63b8ff" d="M80.29,-105.97C87.01,-98.52 97.51,-86.89 105.94,-77.53"/>
<polygon fill="#63b8ff" stroke="#63b8ff" points="108.59,-79.83 112.68,-70.06 103.39,-75.14 108.59,-79.83"/>
</a>
</g>
</g>
<!-- Node4 -->
<g id="Node000004" class="node">
<title>Node4</title>
<g id="a_Node000004"><a xlink:title=" ">
<polygon fill="#e0e0e0" stroke="#999999" points="80.5,-17 40.5,-17 40.5,0 80.5,0 80.5,-17"/>
<text text-anchor="middle" x="60.5" y="-6.6" font-family="Helvetica,sans-Serif" font-size="8.00">atomic</text>
</a>
</g>
</g>
<!-- Node3&#45;&gt;Node4 -->
<g id="edge3_Node000003_Node000004" class="edge">
<title>Node3&#45;&gt;Node4</title>
<g id="a_edge3_Node000003_Node000004"><a xlink:title=" ">
<path fill="none" stroke="#63b8ff" d="M110.79,-52.97C101.91,-45.29 87.89,-33.18 76.91,-23.69"/>
<polygon fill="#63b8ff" stroke="#63b8ff" points="79.1,-20.95 69.24,-17.06 74.52,-26.24 79.1,-20.95"/>
</a>
</g>
</g>
<!-- Node5 -->
<g id="Node000005" class="node">
<title>Node5</title>
<g id="a_Node000005"><a xlink:title=" ">
<polygon fill="#e0e0e0" stroke="#999999" points="140.5,-17 98.5,-17 98.5,0 140.5,0 140.5,-17"/>
<text text-anchor="middle" x="119.5" y="-6.6" font-family="Helvetica,sans-Serif" font-size="8.00">cstddef</text>
</a>
</g>
</g>
<!-- Node3&#45;&gt;Node5 -->
<g id="edge4_Node000003_Node000005" class="edge">
<title>Node3&#45;&gt;Node5</title>
<g id="a_edge4_Node000003_Node000005"><a xlink:title=" ">
<path fill="none" stroke="#63b8ff" d="M119.5,-52.97C119.5,-46.19 119.5,-35.97 119.5,-27.13"/>
<polygon fill="#63b8ff" stroke="#63b8ff" points="123,-27.06 119.5,-17.06 116,-27.06 123,-27.06"/>
</a>
</g>
</g>
<!-- Node6 -->
<g id="Node000006" class="node">
<title>Node6</title>
<g id="a_Node000006"><a xlink:title=" ">
<polygon fill="#e0e0e0" stroke="#999999" points="196.5,-17 158.5,-17 158.5,0 196.5,0 196.5,-17"/>
<text text-anchor="middle" x="177.5" y="-6.6" font-family="Helvetica,sans-Serif" font-size="8.00">cstdlib</text>
</a>
</g>
</g>
<!-- Node3&#45;&gt;Node6 -->
<g id="edge5_Node000003_Node000006" class="edge">
<title>Node3&#45;&gt;Node6</title>
<g id="a_edge5_Node000003_Node000006"><a xlink:title=" ">
<path fill="none" stroke="#63b8ff" d="M128.06,-52.97C136.8,-45.29 150.57,-33.18 161.37,-23.69"/>
<polygon fill="#63b8ff" stroke="#63b8ff" points="163.71,-26.29 168.91,-17.06 159.09,-21.03 163.71,-26.29"/>
</a>
</g>
</g>
</g>
</svg>
