<?xml version="1.0" encoding="UTF-8" standalone="no"?>
<!DOCTYPE svg PUBLIC "-//W3C//DTD SVG 1.1//EN"
 "http://www.w3.org/Graphics/SVG/1.1/DTD/svg11.dtd">
<!-- Generated by graphviz version 2.43.0 (0)
 -->
<!-- Title: mgstar.hpp Pages: 1 -->
<svg width="1301pt" height="290pt"
 viewBox="0.00 0.00 1301.00 290.00" xmlns="http://www.w3.org/2000/svg" xmlns:xlink="http://www.w3.org/1999/xlink">
<g id="graph0" class="graph" transform="scale(1 1) rotate(0) translate(4 286)">
<title>mgstar.hpp</title>
<!-- Node1 -->
<g id="Node000001" class="node">
<title>Node1</title>
<g id="a_Node000001"><a xlink:title=" ">
<polygon fill="#999999" stroke="#666666" points="633,-282 571,-282 571,-265 633,-265 633,-282"/>
<text text-anchor="middle" x="602" y="-271.6" font-family="Helvetica,sans-Serif" font-size="8.00">mgstar.hpp</text>
</a>
</g>
</g>
<!-- Node2 -->
<g id="Node000002" class="node">
<title>Node2</title>
<g id="a_Node000002"><a xlink:title=" ">
<polygon fill="#e0e0e0" stroke="#999999" points="920.5,-17 873.5,-17 873.5,0 920.5,0 920.5,-17"/>
<text text-anchor="middle" x="897" y="-6.6" font-family="Helvetica,sans-Serif" font-size="8.00">cstddef</text>
</a>
</g>
</g>
<!-- Node1&#45;&gt;Node2 -->
<g id="edge1_Node000001_Node000002" class="edge">
<title>Node1&#45;&gt;Node2</title>
<g id="a_edge1_Node000001_Node000002"><a xlink:title=" ">
<path fill="none" stroke="#63b8ff" d="M633.03,-271.15C767.49,-264.92 1293,-236.21 1293,-168.5 1293,-168.5 1293,-168.5 1293,-113.5 1293,-38.82 1026.21,-16.67 930.59,-11.13"/>
<polygon fill="#63b8ff" stroke="#63b8ff" points="930.76,-7.63 920.59,-10.57 930.38,-14.62 930.76,-7.63"/>
</a>
</g>
</g>
<!-- Node3 -->
<g id="Node000003" class="node">
<title>Node3</title>
<g id="a_Node000003"><a xlink:title=" ">
<polygon fill="#e0e0e0" stroke="#999999" points="318.5,-229 289.5,-229 289.5,-212 318.5,-212 318.5,-229"/>
<text text-anchor="middle" x="304" y="-218.6" font-family="Helvetica,sans-Serif" font-size="8.00">set</text>
</a>
</g>
</g>
<!-- Node1&#45;&gt;Node3 -->
<g id="edge2_Node000001_Node000003" class="edge">
<title>Node1&#45;&gt;Node3</title>
<g id="a_edge2_Node000001_Node000003"><a xlink:title=" ">
<path fill="none" stroke="#63b8ff" d="M570.9,-269.06C521.53,-263.27 422.09,-250.31 328.54,-228.76"/>
<polygon fill="#63b8ff" stroke="#63b8ff" points="329.16,-225.31 318.63,-226.44 327.57,-232.13 329.16,-225.31"/>
</a>
</g>
</g>
<!-- Node4 -->
<g id="Node000004" class="node">
<title>Node4</title>
<g id="a_Node000004"><a xlink:title=" ">
<polygon fill="#e0e0e0" stroke="#999999" points="387,-229 337,-229 337,-212 387,-212 387,-229"/>
<text text-anchor="middle" x="362" y="-218.6" font-family="Helvetica,sans-Serif" font-size="8.00">optional</text>
</a>
</g>
</g>
<!-- Node1&#45;&gt;Node4 -->
<g id="edge3_Node000001_Node000004" class="edge">
<title>Node1&#45;&gt;Node4</title>
<g id="a_edge3_Node000001_Node000004"><a xlink:title=" ">
<path fill="none" stroke="#63b8ff" d="M570.62,-265.83C525.85,-256.32 443.9,-238.9 397.14,-228.97"/>
<polygon fill="#63b8ff" stroke="#63b8ff" points="397.68,-225.5 387.17,-226.85 396.22,-232.35 397.68,-225.5"/>
</a>
</g>
</g>
<!-- Node5 -->
<g id="Node000005" class="node">
<title>Node5</title>
<g id="a_Node000005"><a xlink:href="../../da/deb/managed__node_8hpp.html" target="_top" xlink:title=" ">
<polygon fill="white" stroke="#666666" points="246.5,-229 85.5,-229 85.5,-212 246.5,-212 246.5,-229"/>
<text text-anchor="middle" x="166" y="-218.6" font-family="Helvetica,sans-Serif" font-size="8.00">../solvers/base/managed_node.hpp</text>
</a>
</g>
</g>
<!-- Node1&#45;&gt;Node5 -->
<g id="edge4_Node000001_Node000005" class="edge">
<title>Node1&#45;&gt;Node5</title>
<g id="a_edge4_Node000001_Node000005"><a xlink:title=" ">
<path fill="none" stroke="#63b8ff" d="M570.99,-268.87C502.6,-260.87 337.19,-241.52 240.23,-230.18"/>
<polygon fill="#63b8ff" stroke="#63b8ff" points="240.54,-226.7 230.21,-229.01 239.73,-233.65 240.54,-226.7"/>
</a>
</g>
</g>
<!-- Node16 -->
<g id="Node000016" class="node">
<title>Node16</title>
<g id="a_Node000016"><a xlink:href="../../d7/d65/intrinsics_8hpp.html" target="_top" xlink:title=" ">
<polygon fill="#fff0f0" stroke="red" points="468.5,-70 361.5,-70 361.5,-53 468.5,-53 468.5,-70"/>
<text text-anchor="middle" x="415" y="-59.6" font-family="Helvetica,sans-Serif" font-size="8.00">../../utils/intrinsics.hpp</text>
</a>
</g>
</g>
<!-- Node1&#45;&gt;Node16 -->
<g id="edge51_Node000001_Node000016" class="edge">
<title>Node1&#45;&gt;Node16</title>
<g id="a_edge51_Node000001_Node000016"><a xlink:title=" ">
<path fill="none" stroke="#63b8ff" d="M593.26,-264.99C569.16,-244.06 500.47,-182.64 453,-123 441.91,-109.06 431.3,-91.72 424.13,-79.19"/>
<polygon fill="#63b8ff" stroke="#63b8ff" points="427.1,-77.33 419.17,-70.32 420.99,-80.75 427.1,-77.33"/>
</a>
</g>
</g>
<!-- Node19 -->
<g id="Node000019" class="node">
<title>Node19</title>
<g id="a_Node000019"><a xlink:href="../../df/d93/utils_8hpp.html" target="_top" xlink:title=" ">
<polygon fill="#fff0f0" stroke="red" points="964.5,-123 877.5,-123 877.5,-106 964.5,-106 964.5,-123"/>
<text text-anchor="middle" x="921" y="-112.6" font-family="Helvetica,sans-Serif" font-size="8.00">../../utils/utils.hpp</text>
</a>
</g>
</g>
<!-- Node1&#45;&gt;Node19 -->
<g id="edge42_Node000001_Node000019" class="edge">
<title>Node1&#45;&gt;Node19</title>
<g id="a_edge42_Node000001_Node000019"><a xlink:title=" ">
<path fill="none" stroke="#63b8ff" d="M633.11,-271.51C693.49,-267.9 827.21,-251.31 902,-176 913.16,-164.76 917.78,-147.05 919.68,-133.69"/>
<polygon fill="#63b8ff" stroke="#63b8ff" points="923.2,-133.64 920.75,-123.34 916.24,-132.92 923.2,-133.64"/>
</a>
</g>
</g>
<!-- Node25 -->
<g id="Node000025" class="node">
<title>Node25</title>
<g id="a_Node000025"><a xlink:href="../../d8/d62/existence__set_8hpp.html" target="_top" xlink:title=" ">
<polygon fill="white" stroke="#666666" points="893,-176 723,-176 723,-159 893,-159 893,-176"/>
<text text-anchor="middle" x="808" y="-165.6" font-family="Helvetica,sans-Serif" font-size="8.00">../types/containers/existence_set.hpp</text>
</a>
</g>
</g>
<!-- Node1&#45;&gt;Node25 -->
<g id="edge27_Node000001_Node000025" class="edge">
<title>Node1&#45;&gt;Node25</title>
<g id="a_edge27_Node000001_Node000025"><a xlink:title=" ">
<path fill="none" stroke="#63b8ff" d="M617.15,-264.85C652.58,-246.97 741.09,-202.28 783.96,-180.63"/>
<polygon fill="#63b8ff" stroke="#63b8ff" points="785.76,-183.65 793.11,-176.02 782.6,-177.4 785.76,-183.65"/>
</a>
</g>
</g>
<!-- Node26 -->
<g id="Node000026" class="node">
<title>Node26</title>
<g id="a_Node000026"><a xlink:href="../../da/d45/heap_8hpp.html" target="_top" xlink:title=" ">
<polygon fill="white" stroke="#666666" points="669.5,-176 534.5,-176 534.5,-159 669.5,-159 669.5,-176"/>
<text text-anchor="middle" x="602" y="-165.6" font-family="Helvetica,sans-Serif" font-size="8.00">../types/containers/heap.hpp</text>
</a>
</g>
</g>
<!-- Node1&#45;&gt;Node26 -->
<g id="edge36_Node000001_Node000026" class="edge">
<title>Node1&#45;&gt;Node26</title>
<g id="a_edge36_Node000001_Node000026"><a xlink:title=" ">
<path fill="none" stroke="#63b8ff" d="M602,-264.68C602,-248.11 602,-209.11 602,-186.18"/>
<polygon fill="#63b8ff" stroke="#63b8ff" points="605.5,-186.12 602,-176.12 598.5,-186.13 605.5,-186.12"/>
</a>
</g>
</g>
<!-- Node27 -->
<g id="Node000027" class="node">
<title>Node27</title>
<g id="a_Node000027"><a xlink:href="../../d2/d1c/solver_8hpp.html" target="_top" xlink:title=" ">
<polygon fill="white" stroke="#666666" points="1098,-176 1016,-176 1016,-159 1098,-159 1098,-176"/>
<text text-anchor="middle" x="1057" y="-165.6" font-family="Helvetica,sans-Serif" font-size="8.00">base/solver.hpp</text>
</a>
</g>
</g>
<!-- Node1&#45;&gt;Node27 -->
<g id="edge43_Node000001_Node000027" class="edge">
<title>Node1&#45;&gt;Node27</title>
<g id="a_edge43_Node000001_Node000027"><a xlink:title=" ">
<path fill="none" stroke="#63b8ff" d="M633.01,-271.84C692.74,-269.83 827.34,-261.73 935,-229 972.57,-217.58 1012.75,-195.51 1036.34,-181.41"/>
<polygon fill="#63b8ff" stroke="#63b8ff" points="1038.36,-184.28 1045.09,-176.09 1034.73,-178.3 1038.36,-184.28"/>
</a>
</g>
</g>
<!-- Node6 -->
<g id="Node000006" class="node">
<title>Node6</title>
<g id="a_Node000006"><a xlink:title=" ">
<polygon fill="#e0e0e0" stroke="#999999" points="109.5,-123 62.5,-123 62.5,-106 109.5,-106 109.5,-123"/>
<text text-anchor="middle" x="86" y="-112.6" font-family="Helvetica,sans-Serif" font-size="8.00">cassert</text>
</a>
</g>
</g>
<!-- Node5&#45;&gt;Node6 -->
<g id="edge5_Node000005_Node000006" class="edge">
<title>Node5&#45;&gt;Node6</title>
<g id="a_edge5_Node000005_Node000006"><a xlink:title=" ">
<path fill="none" stroke="#63b8ff" d="M159.99,-211.68C146.89,-194.66 115.58,-153.95 98.18,-131.34"/>
<polygon fill="#63b8ff" stroke="#63b8ff" points="100.74,-128.92 91.87,-123.12 95.19,-133.19 100.74,-128.92"/>
</a>
</g>
</g>
<!-- Node7 -->
<g id="Node000007" class="node">
<title>Node7</title>
<g id="a_Node000007"><a xlink:title=" ">
<polygon fill="#e0e0e0" stroke="#999999" points="44,-123 0,-123 0,-106 44,-106 44,-123"/>
<text text-anchor="middle" x="22" y="-112.6" font-family="Helvetica,sans-Serif" font-size="8.00">cstdint</text>
</a>
</g>
</g>
<!-- Node5&#45;&gt;Node7 -->
<g id="edge6_Node000005_Node000007" class="edge">
<title>Node5&#45;&gt;Node7</title>
<g id="a_edge6_Node000005_Node000007"><a xlink:title=" ">
<path fill="none" stroke="#63b8ff" d="M155.54,-211.82C139.83,-200.3 109.18,-177.88 83,-159 69.04,-148.94 53.22,-137.66 41.19,-129.11"/>
<polygon fill="#63b8ff" stroke="#63b8ff" points="43,-126.1 32.82,-123.17 38.95,-131.81 43,-126.1"/>
</a>
</g>
</g>
<!-- Node8 -->
<g id="Node000008" class="node">
<title>Node8</title>
<g id="a_Node000008"><a xlink:href="../../dc/d3c/bnode_8hpp.html" target="_top" xlink:title=" ">
<polygon fill="white" stroke="#666666" points="74.5,-176 13.5,-176 13.5,-159 74.5,-159 74.5,-176"/>
<text text-anchor="middle" x="44" y="-165.6" font-family="Helvetica,sans-Serif" font-size="8.00">bnode.hpp</text>
</a>
</g>
</g>
<!-- Node5&#45;&gt;Node8 -->
<g id="edge7_Node000005_Node000008" class="edge">
<title>Node5&#45;&gt;Node8</title>
<g id="a_edge7_Node000005_Node000008"><a xlink:title=" ">
<path fill="none" stroke="#63b8ff" d="M148,-211.97C127.82,-203.54 94.86,-189.76 71.45,-179.98"/>
<polygon fill="#63b8ff" stroke="#63b8ff" points="72.65,-176.68 62.08,-176.06 69.95,-183.14 72.65,-176.68"/>
</a>
</g>
</g>
<!-- Node9 -->
<g id="Node000009" class="node">
<title>Node9</title>
<g id="a_Node000009"><a xlink:href="../../d9/df8/heterogeneous__pool_8hpp.html" target="_top" xlink:title=" ">
<polygon fill="white" stroke="#666666" points="348.5,-176 169.5,-176 169.5,-159 348.5,-159 348.5,-176"/>
<text text-anchor="middle" x="259" y="-165.6" font-family="Helvetica,sans-Serif" font-size="8.00">../../types/pmr/heterogeneous_pool.hpp</text>
</a>
</g>
</g>
<!-- Node5&#45;&gt;Node9 -->
<g id="edge8_Node000005_Node000009" class="edge">
<title>Node5&#45;&gt;Node9</title>
<g id="a_edge8_Node000005_Node000009"><a xlink:title=" ">
<path fill="none" stroke="#63b8ff" d="M179.72,-211.97C194.56,-203.84 218.45,-190.74 236.13,-181.04"/>
<polygon fill="#63b8ff" stroke="#63b8ff" points="238.14,-183.93 245.22,-176.06 234.77,-177.8 238.14,-183.93"/>
</a>
</g>
</g>
<!-- Node5&#45;&gt;Node16 -->
<g id="edge26_Node000005_Node000016" class="edge">
<title>Node5&#45;&gt;Node16</title>
<g id="a_edge26_Node000005_Node000016"><a xlink:title=" ">
<path fill="none" stroke="#63b8ff" d="M246.95,-216.43C283.73,-211.43 325.86,-200.22 357,-176 373.42,-163.23 397,-108.01 408.37,-79.57"/>
<polygon fill="#63b8ff" stroke="#63b8ff" points="411.68,-80.72 412.09,-70.13 405.17,-78.15 411.68,-80.72"/>
</a>
</g>
</g>
<!-- Node9&#45;&gt;Node2 -->
<g id="edge10_Node000009_Node000002" class="edge">
<title>Node9&#45;&gt;Node2</title>
<g id="a_edge10_Node000009_Node000002"><a xlink:title=" ">
<path fill="none" stroke="#63b8ff" d="M220.67,-158.99C183.83,-150 136.56,-132.74 157,-106 211.55,-34.65 263.52,-68.42 352,-53 543.46,-19.64 777.27,-11.82 863.23,-10.02"/>
<polygon fill="#63b8ff" stroke="#63b8ff" points="863.5,-13.52 873.43,-9.82 863.37,-6.52 863.5,-13.52"/>
</a>
</g>
</g>
<!-- Node9&#45;&gt;Node6 -->
<g id="edge9_Node000009_Node000006" class="edge">
<title>Node9&#45;&gt;Node6</title>
<g id="a_edge9_Node000009_Node000006"><a xlink:title=" ">
<path fill="none" stroke="#63b8ff" d="M233.47,-158.97C203.23,-150.06 152.77,-135.18 119.44,-125.36"/>
<polygon fill="#63b8ff" stroke="#63b8ff" points="120.27,-121.95 109.68,-122.48 118.29,-128.67 120.27,-121.95"/>
</a>
</g>
</g>
<!-- Node9&#45;&gt;Node7 -->
<g id="edge11_Node000009_Node000007" class="edge">
<title>Node9&#45;&gt;Node7</title>
<g id="a_edge11_Node000009_Node000007"><a xlink:title=" ">
<path fill="none" stroke="#63b8ff" d="M221.71,-158.97C182.41,-150.95 118.45,-137.7 54.22,-123.22"/>
<polygon fill="#63b8ff" stroke="#63b8ff" points="54.86,-119.78 44.33,-120.99 53.31,-126.61 54.86,-119.78"/>
</a>
</g>
</g>
<!-- Node10 -->
<g id="Node000010" class="node">
<title>Node10</title>
<g id="a_Node000010"><a xlink:title=" ">
<polygon fill="#e0e0e0" stroke="#999999" points="963,-70 925,-70 925,-53 963,-53 963,-70"/>
<text text-anchor="middle" x="944" y="-59.6" font-family="Helvetica,sans-Serif" font-size="8.00">limits</text>
</a>
</g>
</g>
<!-- Node9&#45;&gt;Node10 -->
<g id="edge12_Node000009_Node000010" class="edge">
<title>Node9&#45;&gt;Node10</title>
<g id="a_edge12_Node000009_Node000010"><a xlink:title=" ">
<path fill="none" stroke="#63b8ff" d="M290.04,-158.97C342.76,-146.41 453.33,-121.07 548,-106 684.52,-84.26 849.26,-69.95 914.93,-64.72"/>
<polygon fill="#63b8ff" stroke="#63b8ff" points="915.26,-68.21 924.95,-63.93 914.71,-61.23 915.26,-68.21"/>
</a>
</g>
</g>
<!-- Node11 -->
<g id="Node000011" class="node">
<title>Node11</title>
<g id="a_Node000011"><a xlink:title=" ">
<polygon fill="#e0e0e0" stroke="#999999" points="258.5,-123 223.5,-123 223.5,-106 258.5,-106 258.5,-123"/>
<text text-anchor="middle" x="241" y="-112.6" font-family="Helvetica,sans-Serif" font-size="8.00">map</text>
</a>
</g>
</g>
<!-- Node9&#45;&gt;Node11 -->
<g id="edge13_Node000009_Node000011" class="edge">
<title>Node9&#45;&gt;Node11</title>
<g id="a_edge13_Node000009_Node000011"><a xlink:title=" ">
<path fill="none" stroke="#63b8ff" d="M256.34,-158.97C253.9,-152.04 250.18,-141.51 247.02,-132.55"/>
<polygon fill="#63b8ff" stroke="#63b8ff" points="250.3,-131.32 243.67,-123.06 243.69,-133.65 250.3,-131.32"/>
</a>
</g>
</g>
<!-- Node12 -->
<g id="Node000012" class="node">
<title>Node12</title>
<g id="a_Node000012"><a xlink:title=" ">
<polygon fill="#e0e0e0" stroke="#999999" points="311,-123 277,-123 277,-106 311,-106 311,-123"/>
<text text-anchor="middle" x="294" y="-112.6" font-family="Helvetica,sans-Serif" font-size="8.00">new</text>
</a>
</g>
</g>
<!-- Node9&#45;&gt;Node12 -->
<g id="edge14_Node000009_Node000012" class="edge">
<title>Node9&#45;&gt;Node12</title>
<g id="a_edge14_Node000009_Node000012"><a xlink:title=" ">
<path fill="none" stroke="#63b8ff" d="M264.16,-158.97C269.13,-151.74 276.78,-140.59 283.1,-131.39"/>
<polygon fill="#63b8ff" stroke="#63b8ff" points="286.04,-133.28 288.81,-123.06 280.27,-129.32 286.04,-133.28"/>
</a>
</g>
</g>
<!-- Node13 -->
<g id="Node000013" class="node">
<title>Node13</title>
<g id="a_Node000013"><a xlink:title=" ">
<polygon fill="#e0e0e0" stroke="#999999" points="205.5,-123 166.5,-123 166.5,-106 205.5,-106 205.5,-123"/>
<text text-anchor="middle" x="186" y="-112.6" font-family="Helvetica,sans-Serif" font-size="8.00">utility</text>
</a>
</g>
</g>
<!-- Node9&#45;&gt;Node13 -->
<g id="edge15_Node000009_Node000013" class="edge">
<title>Node9&#45;&gt;Node13</title>
<g id="a_edge15_Node000009_Node000013"><a xlink:title=" ">
<path fill="none" stroke="#63b8ff" d="M248.23,-158.97C236.91,-151.07 218.87,-138.46 205.12,-128.86"/>
<polygon fill="#63b8ff" stroke="#63b8ff" points="207.02,-125.91 196.82,-123.06 203.01,-131.65 207.02,-125.91"/>
</a>
</g>
</g>
<!-- Node14 -->
<g id="Node000014" class="node">
<title>Node14</title>
<g id="a_Node000014"><a xlink:title=" ">
<polygon fill="#e0e0e0" stroke="#999999" points="745,-123 703,-123 703,-106 745,-106 745,-123"/>
<text text-anchor="middle" x="724" y="-112.6" font-family="Helvetica,sans-Serif" font-size="8.00">vector</text>
</a>
</g>
</g>
<!-- Node9&#45;&gt;Node14 -->
<g id="edge16_Node000009_Node000014" class="edge">
<title>Node9&#45;&gt;Node14</title>
<g id="a_edge16_Node000009_Node000014"><a xlink:title=" ">
<path fill="none" stroke="#63b8ff" d="M327.61,-158.97C429.95,-147.75 618.47,-127.07 692.75,-118.93"/>
<polygon fill="#63b8ff" stroke="#63b8ff" points="693.3,-122.39 702.85,-117.82 692.53,-115.43 693.3,-122.39"/>
</a>
</g>
</g>
<!-- Node15 -->
<g id="Node000015" class="node">
<title>Node15</title>
<g id="a_Node000015"><a xlink:title=" ">
<polygon fill="#e0e0e0" stroke="#999999" points="646.5,-123 557.5,-123 557.5,-106 646.5,-106 646.5,-123"/>
<text text-anchor="middle" x="602" y="-112.6" font-family="Helvetica,sans-Serif" font-size="8.00">memory_resource</text>
</a>
</g>
</g>
<!-- Node9&#45;&gt;Node15 -->
<g id="edge17_Node000009_Node000015" class="edge">
<title>Node9&#45;&gt;Node15</title>
<g id="a_edge17_Node000009_Node000015"><a xlink:title=" ">
<path fill="none" stroke="#63b8ff" d="M309.61,-158.97C373.2,-149.52 481.91,-133.36 547.35,-123.63"/>
<polygon fill="#63b8ff" stroke="#63b8ff" points="548.09,-127.05 557.46,-122.12 547.06,-120.13 548.09,-127.05"/>
</a>
</g>
</g>
<!-- Node9&#45;&gt;Node16 -->
<g id="edge18_Node000009_Node000016" class="edge">
<title>Node9&#45;&gt;Node16</title>
<g id="a_edge18_Node000009_Node000016"><a xlink:title=" ">
<path fill="none" stroke="#63b8ff" d="M270.47,-158.85C296.84,-141.27 362.04,-97.81 395.1,-75.77"/>
<polygon fill="#63b8ff" stroke="#63b8ff" points="397.13,-78.62 403.51,-70.16 393.25,-72.79 397.13,-78.62"/>
</a>
</g>
</g>
<!-- Node9&#45;&gt;Node19 -->
<g id="edge20_Node000009_Node000019" class="edge">
<title>Node9&#45;&gt;Node19</title>
<g id="a_edge20_Node000009_Node000019"><a xlink:title=" ">
<path fill="none" stroke="#63b8ff" d="M348.62,-159.6C488.21,-148.84 753.28,-128.42 866.99,-119.66"/>
<polygon fill="#63b8ff" stroke="#63b8ff" points="867.49,-123.13 877.19,-118.88 866.95,-116.15 867.49,-123.13"/>
</a>
</g>
</g>
<!-- Node16&#45;&gt;Node2 -->
<g id="edge19_Node000016_Node000002" class="edge">
<title>Node16&#45;&gt;Node2</title>
<g id="a_edge19_Node000016_Node000002"><a xlink:title=" ">
<path fill="none" stroke="#63b8ff" d="M468.82,-54.54C473.61,-54.01 478.39,-53.5 483,-53 624.14,-37.8 792.41,-20.32 863.1,-13"/>
<polygon fill="#63b8ff" stroke="#63b8ff" points="863.61,-16.47 873.19,-11.96 862.89,-9.51 863.61,-16.47"/>
</a>
</g>
</g>
<!-- Node19&#45;&gt;Node2 -->
<g id="edge21_Node000019_Node000002" class="edge">
<title>Node19&#45;&gt;Node2</title>
<g id="a_edge21_Node000019_Node000002"><a xlink:title=" ">
<path fill="none" stroke="#63b8ff" d="M919.2,-105.68C915.36,-89.04 906.29,-49.75 901.01,-26.87"/>
<polygon fill="#63b8ff" stroke="#63b8ff" points="904.42,-26.08 898.76,-17.12 897.6,-27.66 904.42,-26.08"/>
</a>
</g>
</g>
<!-- Node19&#45;&gt;Node10 -->
<g id="edge23_Node000019_Node000010" class="edge">
<title>Node19&#45;&gt;Node10</title>
<g id="a_edge23_Node000019_Node000010"><a xlink:title=" ">
<path fill="none" stroke="#63b8ff" d="M924.39,-105.97C927.55,-98.97 932.37,-88.28 936.44,-79.25"/>
<polygon fill="#63b8ff" stroke="#63b8ff" points="939.67,-80.61 940.59,-70.06 933.29,-77.73 939.67,-80.61"/>
</a>
</g>
</g>
<!-- Node19&#45;&gt;Node16 -->
<g id="edge25_Node000019_Node000016" class="edge">
<title>Node19&#45;&gt;Node16</title>
<g id="a_edge25_Node000019_Node000016"><a xlink:title=" ">
<path fill="none" stroke="#63b8ff" d="M877.31,-107.7C872.49,-107.1 867.64,-106.53 863,-106 726.13,-90.51 565.34,-75.73 478.47,-68.02"/>
<polygon fill="#63b8ff" stroke="#63b8ff" points="478.77,-64.54 468.5,-67.14 478.16,-71.51 478.77,-64.54"/>
</a>
</g>
</g>
<!-- Node22 -->
<g id="Node000022" class="node">
<title>Node22</title>
<g id="a_Node000022"><a xlink:title=" ">
<polygon fill="#e0e0e0" stroke="#999999" points="840,-70 782,-70 782,-53 840,-53 840,-70"/>
<text text-anchor="middle" x="811" y="-59.6" font-family="Helvetica,sans-Serif" font-size="8.00">functional</text>
</a>
</g>
</g>
<!-- Node19&#45;&gt;Node22 -->
<g id="edge22_Node000019_Node000022" class="edge">
<title>Node19&#45;&gt;Node22</title>
<g id="a_edge22_Node000019_Node000022"><a xlink:title=" ">
<path fill="none" stroke="#63b8ff" d="M904.77,-105.97C886.82,-97.65 857.65,-84.13 836.61,-74.37"/>
<polygon fill="#63b8ff" stroke="#63b8ff" points="837.84,-71.09 827.3,-70.06 834.9,-77.44 837.84,-71.09"/>
</a>
</g>
</g>
<!-- Node24 -->
<g id="Node000024" class="node">
<title>Node24</title>
<g id="a_Node000024"><a xlink:title=" ">
<polygon fill="#e0e0e0" stroke="#999999" points="1040.5,-70 981.5,-70 981.5,-53 1040.5,-53 1040.5,-70"/>
<text text-anchor="middle" x="1011" y="-59.6" font-family="Helvetica,sans-Serif" font-size="8.00">type_traits</text>
</a>
</g>
</g>
<!-- Node19&#45;&gt;Node24 -->
<g id="edge24_Node000019_Node000024" class="edge">
<title>Node19&#45;&gt;Node24</title>
<g id="a_edge24_Node000019_Node000024"><a xlink:title=" ">
<path fill="none" stroke="#63b8ff" d="M934.28,-105.97C948.64,-97.84 971.76,-84.74 988.87,-75.04"/>
<polygon fill="#63b8ff" stroke="#63b8ff" points="990.69,-78.03 997.67,-70.06 987.24,-71.94 990.69,-78.03"/>
</a>
</g>
</g>
<!-- Node25&#45;&gt;Node2 -->
<g id="edge28_Node000025_Node000002" class="edge">
<title>Node25&#45;&gt;Node2</title>
<g id="a_edge28_Node000025_Node000002"><a xlink:title=" ">
<path fill="none" stroke="#63b8ff" d="M893.31,-161.77C931.47,-156.37 975.51,-145.31 1010,-123 1034.55,-107.11 1039.88,-97.79 1049,-70 1065.22,-20.6 980.51,-10.91 930.93,-9.4"/>
<polygon fill="#63b8ff" stroke="#63b8ff" points="930.71,-5.9 920.64,-9.19 930.56,-12.9 930.71,-5.9"/>
</a>
</g>
</g>
<!-- Node25&#45;&gt;Node10 -->
<g id="edge30_Node000025_Node000010" class="edge">
<title>Node25&#45;&gt;Node10</title>
<g id="a_edge30_Node000025_Node000010"><a xlink:title=" ">
<path fill="none" stroke="#63b8ff" d="M865.04,-158.94C907.28,-152.03 959.71,-140.25 973,-123 983.83,-108.94 971.5,-90.18 959.73,-77.3"/>
<polygon fill="#63b8ff" stroke="#63b8ff" points="962.2,-74.82 952.7,-70.14 957.2,-79.72 962.2,-74.82"/>
</a>
</g>
</g>
<!-- Node25&#45;&gt;Node14 -->
<g id="edge33_Node000025_Node000014" class="edge">
<title>Node25&#45;&gt;Node14</title>
<g id="a_edge33_Node000025_Node000014"><a xlink:title=" ">
<path fill="none" stroke="#63b8ff" d="M795.61,-158.97C782.33,-150.91 761.02,-137.98 745.1,-128.31"/>
<polygon fill="#63b8ff" stroke="#63b8ff" points="746.81,-125.25 736.45,-123.06 743.18,-131.24 746.81,-125.25"/>
</a>
</g>
</g>
<!-- Node25&#45;&gt;Node15 -->
<g id="edge31_Node000025_Node000015" class="edge">
<title>Node25&#45;&gt;Node15</title>
<g id="a_edge31_Node000025_Node000015"><a xlink:title=" ">
<path fill="none" stroke="#63b8ff" d="M777.6,-158.97C741.78,-150.1 682.1,-135.33 642.4,-125.5"/>
<polygon fill="#63b8ff" stroke="#63b8ff" points="643.07,-122.06 632.52,-123.06 641.39,-128.86 643.07,-122.06"/>
</a>
</g>
</g>
<!-- Node25&#45;&gt;Node16 -->
<g id="edge35_Node000025_Node000016" class="edge">
<title>Node25&#45;&gt;Node16</title>
<g id="a_edge35_Node000025_Node000016"><a xlink:title=" ">
<path fill="none" stroke="#63b8ff" d="M803.8,-159C795.95,-145.75 777.67,-118.47 754,-106 707.53,-81.52 563.18,-70.09 478.58,-65.37"/>
<polygon fill="#63b8ff" stroke="#63b8ff" points="478.74,-61.88 468.56,-64.83 478.36,-68.87 478.74,-61.88"/>
</a>
</g>
</g>
<!-- Node25&#45;&gt;Node19 -->
<g id="edge34_Node000025_Node000019" class="edge">
<title>Node25&#45;&gt;Node19</title>
<g id="a_edge34_Node000025_Node000019"><a xlink:title=" ">
<path fill="none" stroke="#63b8ff" d="M824.67,-158.97C843.2,-150.61 873.35,-137 894.99,-127.24"/>
<polygon fill="#63b8ff" stroke="#63b8ff" points="896.58,-130.36 904.26,-123.06 893.7,-123.98 896.58,-130.36"/>
</a>
</g>
</g>
<!-- Node25&#45;&gt;Node22 -->
<g id="edge29_Node000025_Node000022" class="edge">
<title>Node25&#45;&gt;Node22</title>
<g id="a_edge29_Node000025_Node000022"><a xlink:title=" ">
<path fill="none" stroke="#63b8ff" d="M808.23,-158.68C808.7,-142.11 809.83,-103.11 810.49,-80.18"/>
<polygon fill="#63b8ff" stroke="#63b8ff" points="813.99,-80.22 810.78,-70.12 806.99,-80.02 813.99,-80.22"/>
</a>
</g>
</g>
<!-- Node25&#45;&gt;Node24 -->
<g id="edge32_Node000025_Node000024" class="edge">
<title>Node25&#45;&gt;Node24</title>
<g id="a_edge32_Node000025_Node000024"><a xlink:title=" ">
<path fill="none" stroke="#63b8ff" d="M864.64,-159C910.96,-151.8 971.69,-139.57 990,-123 1002.11,-112.04 1007.23,-93.74 1009.41,-80.13"/>
<polygon fill="#63b8ff" stroke="#63b8ff" points="1012.9,-80.42 1010.62,-70.07 1005.95,-79.58 1012.9,-80.42"/>
</a>
</g>
</g>
<!-- Node26&#45;&gt;Node2 -->
<g id="edge37_Node000026_Node000002" class="edge">
<title>Node26&#45;&gt;Node2</title>
<g id="a_edge37_Node000026_Node000002"><a xlink:title=" ">
<path fill="none" stroke="#63b8ff" d="M586.14,-158.82C565.22,-147.64 532.74,-126.05 548,-106 586.67,-55.19 783.7,-24.26 863.44,-13.65"/>
<polygon fill="#63b8ff" stroke="#63b8ff" points="863.98,-17.11 873.44,-12.34 863.08,-10.16 863.98,-17.11"/>
</a>
</g>
</g>
<!-- Node26&#45;&gt;Node14 -->
<g id="edge39_Node000026_Node000014" class="edge">
<title>Node26&#45;&gt;Node14</title>
<g id="a_edge39_Node000026_Node000014"><a xlink:title=" ">
<path fill="none" stroke="#63b8ff" d="M620,-158.97C640.18,-150.54 673.14,-136.76 696.55,-126.98"/>
<polygon fill="#63b8ff" stroke="#63b8ff" points="698.05,-130.14 705.92,-123.06 695.35,-123.68 698.05,-130.14"/>
</a>
</g>
</g>
<!-- Node26&#45;&gt;Node15 -->
<g id="edge40_Node000026_Node000015" class="edge">
<title>Node26&#45;&gt;Node15</title>
<g id="a_edge40_Node000026_Node000015"><a xlink:title=" ">
<path fill="none" stroke="#63b8ff" d="M602,-158.97C602,-152.19 602,-141.97 602,-133.13"/>
<polygon fill="#63b8ff" stroke="#63b8ff" points="605.5,-133.06 602,-123.06 598.5,-133.06 605.5,-133.06"/>
</a>
</g>
</g>
<!-- Node26&#45;&gt;Node16 -->
<g id="edge41_Node000026_Node000016" class="edge">
<title>Node26&#45;&gt;Node16</title>
<g id="a_edge41_Node000026_Node000016"><a xlink:title=" ">
<path fill="none" stroke="#63b8ff" d="M567.86,-158.94C541.67,-152.16 505.33,-140.53 477,-123 457.49,-110.93 439.21,-91.75 427.63,-78.23"/>
<polygon fill="#63b8ff" stroke="#63b8ff" points="430.12,-75.75 421.04,-70.3 424.73,-80.23 430.12,-75.75"/>
</a>
</g>
</g>
<!-- Node26&#45;&gt;Node22 -->
<g id="edge38_Node000026_Node000022" class="edge">
<title>Node26&#45;&gt;Node22</title>
<g id="a_edge38_Node000026_Node000022"><a xlink:title=" ">
<path fill="none" stroke="#63b8ff" d="M612.02,-158.81C628.45,-146.46 662.45,-121.98 694,-106 720.56,-92.55 752.3,-81.01 776.02,-73.2"/>
<polygon fill="#63b8ff" stroke="#63b8ff" points="777.22,-76.49 785.66,-70.09 775.07,-69.83 777.22,-76.49"/>
</a>
</g>
</g>
<!-- Node27&#45;&gt;Node2 -->
<g id="edge44_Node000027_Node000002" class="edge">
<title>Node27&#45;&gt;Node2</title>
<g id="a_edge44_Node000027_Node000002"><a xlink:title=" ">
<path fill="none" stroke="#63b8ff" d="M1098.42,-164.8C1153.46,-160.91 1240.51,-148.11 1211,-106 1178.32,-59.37 1005.58,-26.77 931.16,-14.69"/>
<polygon fill="#63b8ff" stroke="#63b8ff" points="931.35,-11.17 920.92,-13.05 930.25,-18.08 931.35,-11.17"/>
</a>
</g>
</g>
<!-- Node27&#45;&gt;Node10 -->
<g id="edge45_Node000027_Node000010" class="edge">
<title>Node27&#45;&gt;Node10</title>
<g id="a_edge45_Node000027_Node000010"><a xlink:title=" ">
<path fill="none" stroke="#63b8ff" d="M1094.7,-158.93C1132.01,-149.76 1180.63,-132.19 1159,-106 1107.11,-43.16 1058.25,-85.54 973.23,-69.92"/>
<polygon fill="#63b8ff" stroke="#63b8ff" points="973.74,-66.45 963.23,-67.85 972.31,-73.3 973.74,-66.45"/>
</a>
</g>
</g>
<!-- Node27&#45;&gt;Node14 -->
<g id="edge47_Node000027_Node000014" class="edge">
<title>Node27&#45;&gt;Node14</title>
<g id="a_edge47_Node000027_Node000014"><a xlink:title=" ">
<path fill="none" stroke="#63b8ff" d="M1015.83,-160.2C948.37,-149.86 815.73,-129.55 755.31,-120.3"/>
<polygon fill="#63b8ff" stroke="#63b8ff" points="755.65,-116.81 745.24,-118.75 754.59,-123.73 755.65,-116.81"/>
</a>
</g>
</g>
<!-- Node27&#45;&gt;Node16 -->
<g id="edge50_Node000027_Node000016" class="edge">
<title>Node27&#45;&gt;Node16</title>
<g id="a_edge50_Node000027_Node000016"><a xlink:title=" ">
<path fill="none" stroke="#63b8ff" d="M1024.29,-158.97C961.54,-144.59 826.25,-113.95 779,-106 674.46,-88.42 551.87,-75.3 478.97,-68.28"/>
<polygon fill="#63b8ff" stroke="#63b8ff" points="478.87,-64.76 468.58,-67.29 478.2,-71.72 478.87,-64.76"/>
</a>
</g>
</g>
<!-- Node27&#45;&gt;Node19 -->
<g id="edge48_Node000027_Node000019" class="edge">
<title>Node27&#45;&gt;Node19</title>
<g id="a_edge48_Node000027_Node000019"><a xlink:title=" ">
<path fill="none" stroke="#63b8ff" d="M1036.93,-158.97C1014.13,-150.42 976.7,-136.39 950.56,-126.59"/>
<polygon fill="#63b8ff" stroke="#63b8ff" points="951.74,-123.29 941.15,-123.06 949.28,-129.84 951.74,-123.29"/>
</a>
</g>
</g>
<!-- Node27&#45;&gt;Node24 -->
<g id="edge46_Node000027_Node000024" class="edge">
<title>Node27&#45;&gt;Node24</title>
<g id="a_edge46_Node000027_Node000024"><a xlink:title=" ">
<path fill="none" stroke="#63b8ff" d="M1098.07,-162.77C1147.6,-156.65 1220.94,-141.4 1193,-106 1175.61,-83.96 1098.76,-71.86 1050.65,-66.31"/>
<polygon fill="#63b8ff" stroke="#63b8ff" points="1050.88,-62.82 1040.56,-65.2 1050.11,-69.78 1050.88,-62.82"/>
</a>
</g>
</g>
<!-- Node28 -->
<g id="Node000028" class="node">
<title>Node28</title>
<g id="a_Node000028"><a xlink:title=" ">
<polygon fill="#e0e0e0" stroke="#999999" points="1150.5,-123 1097.5,-123 1097.5,-106 1150.5,-106 1150.5,-123"/>
<text text-anchor="middle" x="1124" y="-112.6" font-family="Helvetica,sans-Serif" font-size="8.00">iostream</text>
</a>
</g>
</g>
<!-- Node27&#45;&gt;Node28 -->
<g id="edge49_Node000027_Node000028" class="edge">
<title>Node27&#45;&gt;Node28</title>
<g id="a_edge49_Node000027_Node000028"><a xlink:title=" ">
<path fill="none" stroke="#63b8ff" d="M1066.89,-158.97C1077.18,-151.14 1093.52,-138.7 1106.09,-129.13"/>
<polygon fill="#63b8ff" stroke="#63b8ff" points="1108.24,-131.9 1114.07,-123.06 1104,-126.33 1108.24,-131.9"/>
</a>
</g>
</g>
</g>
</svg>
