<?xml version="1.0" encoding="UTF-8" standalone="no"?>
<!DOCTYPE svg PUBLIC "-//W3C//DTD SVG 1.1//EN"
 "http://www.w3.org/Graphics/SVG/1.1/DTD/svg11.dtd">
<!-- Generated by graphviz version 2.43.0 (0)
 -->
<!-- Title: existence_set.hpp Pages: 1 -->
<svg width="1312pt" height="184pt"
 viewBox="0.00 0.00 1311.95 184.00" xmlns="http://www.w3.org/2000/svg" xmlns:xlink="http://www.w3.org/1999/xlink">
<g id="graph0" class="graph" transform="scale(1 1) rotate(0) translate(4 180)">
<title>existence_set.hpp</title>
<!-- Node1 -->
<g id="Node000001" class="node">
<title>Node1</title>
<g id="a_Node000001"><a xlink:title=" ">
<polygon fill="#999999" stroke="#666666" points="439.95,-176 359.95,-176 359.95,-159 439.95,-159 439.95,-176"/>
<text text-anchor="middle" x="399.95" y="-165.6" font-family="Helvetica,sans-Serif" font-size="8.00">existence_set.hpp</text>
</a>
</g>
</g>
<!-- Node2 -->
<g id="Node000002" class="node">
<title>Node2</title>
<g id="a_Node000002"><a xlink:href="../../dc/da9/astar_8hpp.html" target="_top" xlink:title=" ">
<polygon fill="white" stroke="#666666" points="77.95,-70 27.95,-70 27.95,-53 77.95,-53 77.95,-70"/>
<text text-anchor="middle" x="52.95" y="-59.6" font-family="Helvetica,sans-Serif" font-size="8.00">astar.hpp</text>
</a>
</g>
</g>
<!-- Node1&#45;&gt;Node2 -->
<g id="edge1_Node000001_Node000002" class="edge">
<title>Node1&#45;&gt;Node2</title>
<g id="a_edge1_Node000001_Node000002"><a xlink:title=" ">
<path fill="none" stroke="#63b8ff" d="M360.08,-156.33C327.41,-147.85 280.02,-135.22 238.95,-123 179.23,-105.23 109.56,-81.85 74.88,-70.03"/>
<polygon fill="#63b8ff" stroke="#63b8ff" points="359.59,-159.82 370.15,-158.93 361.34,-153.04 359.59,-159.82"/>
</a>
</g>
</g>
<!-- Node3 -->
<g id="Node000003" class="node">
<title>Node3</title>
<g id="a_Node000003"><a xlink:href="../../d9/d96/chdr_8hpp_source.html" target="_top" xlink:title=" ">
<polygon fill="white" stroke="#666666" points="652.45,-17 605.45,-17 605.45,0 652.45,0 652.45,-17"/>
<text text-anchor="middle" x="628.95" y="-6.6" font-family="Helvetica,sans-Serif" font-size="8.00">chdr.hpp</text>
</a>
</g>
</g>
<!-- Node1&#45;&gt;Node3 -->
<g id="edge7_Node000001_Node000003" class="edge">
<title>Node1&#45;&gt;Node3</title>
<g id="a_edge7_Node000001_Node000003"><a xlink:title=" ">
<path fill="none" stroke="#63b8ff" d="M349.55,-167.11C225.53,-167.06 -77.58,-156.66 18.95,-53 59.56,-9.39 498.06,-8.81 605.36,-9.33"/>
<polygon fill="#63b8ff" stroke="#63b8ff" points="349.58,-170.61 359.57,-167.09 349.57,-163.61 349.58,-170.61"/>
</a>
</g>
</g>
<!-- Node4 -->
<g id="Node000004" class="node">
<title>Node4</title>
<g id="a_Node000004"><a xlink:href="../../d3/d77/best__first_8hpp_source.html" target="_top" xlink:title=" ">
<polygon fill="white" stroke="#666666" points="161.45,-70 96.45,-70 96.45,-53 161.45,-53 161.45,-70"/>
<text text-anchor="middle" x="128.95" y="-59.6" font-family="Helvetica,sans-Serif" font-size="8.00">best_first.hpp</text>
</a>
</g>
</g>
<!-- Node1&#45;&gt;Node4 -->
<g id="edge3_Node000001_Node000004" class="edge">
<title>Node1&#45;&gt;Node4</title>
<g id="a_edge3_Node000001_Node000004"><a xlink:title=" ">
<path fill="none" stroke="#63b8ff" d="M369.95,-155.23C346.73,-146.49 313.77,-134.04 284.95,-123 235.58,-104.09 177.56,-81.49 148.14,-70"/>
<polygon fill="#63b8ff" stroke="#63b8ff" points="368.98,-158.61 379.57,-158.85 371.45,-152.05 368.98,-158.61"/>
</a>
</g>
</g>
<!-- Node5 -->
<g id="Node000005" class="node">
<title>Node5</title>
<g id="a_Node000005"><a xlink:href="../../da/d36/bfs_8hpp_source.html" target="_top" xlink:title=" ">
<polygon fill="white" stroke="#666666" points="222.45,-70 179.45,-70 179.45,-53 222.45,-53 222.45,-70"/>
<text text-anchor="middle" x="200.95" y="-59.6" font-family="Helvetica,sans-Serif" font-size="8.00">bfs.hpp</text>
</a>
</g>
</g>
<!-- Node1&#45;&gt;Node5 -->
<g id="edge5_Node000001_Node000005" class="edge">
<title>Node1&#45;&gt;Node5</title>
<g id="a_edge5_Node000001_Node000005"><a xlink:title=" ">
<path fill="none" stroke="#63b8ff" d="M376.43,-154.21C334.8,-132.45 249.31,-87.78 215.34,-70.02"/>
<polygon fill="#63b8ff" stroke="#63b8ff" points="374.83,-157.32 385.32,-158.85 378.08,-151.12 374.83,-157.32"/>
</a>
</g>
</g>
<!-- Node6 -->
<g id="Node000006" class="node">
<title>Node6</title>
<g id="a_Node000006"><a xlink:href="../../d3/dec/dfs_8hpp_source.html" target="_top" xlink:title=" ">
<polygon fill="white" stroke="#666666" points="283.45,-70 240.45,-70 240.45,-53 283.45,-53 283.45,-70"/>
<text text-anchor="middle" x="261.95" y="-59.6" font-family="Helvetica,sans-Serif" font-size="8.00">dfs.hpp</text>
</a>
</g>
</g>
<!-- Node1&#45;&gt;Node6 -->
<g id="edge8_Node000001_Node000006" class="edge">
<title>Node1&#45;&gt;Node6</title>
<g id="a_edge8_Node000001_Node000006"><a xlink:title=" ">
<path fill="none" stroke="#63b8ff" d="M381.34,-152.48C351.79,-130.21 295.11,-87.49 272.07,-70.12"/>
<polygon fill="#63b8ff" stroke="#63b8ff" points="379.49,-155.46 389.58,-158.68 383.7,-149.87 379.49,-155.46"/>
</a>
</g>
</g>
<!-- Node7 -->
<g id="Node000007" class="node">
<title>Node7</title>
<g id="a_Node000007"><a xlink:href="../../da/dc2/floodfill_8hpp_source.html" target="_top" xlink:title=" ">
<polygon fill="white" stroke="#666666" points="357.95,-70 301.95,-70 301.95,-53 357.95,-53 357.95,-70"/>
<text text-anchor="middle" x="329.95" y="-59.6" font-family="Helvetica,sans-Serif" font-size="8.00">floodfill.hpp</text>
</a>
</g>
</g>
<!-- Node1&#45;&gt;Node7 -->
<g id="edge10_Node000001_Node000007" class="edge">
<title>Node1&#45;&gt;Node7</title>
<g id="a_edge10_Node000001_Node000007"><a xlink:title=" ">
<path fill="none" stroke="#63b8ff" d="M388.91,-150.1C373.56,-127.29 346.37,-86.89 335.08,-70.12"/>
<polygon fill="#63b8ff" stroke="#63b8ff" points="386.2,-152.34 394.69,-158.68 392.01,-148.43 386.2,-152.34"/>
</a>
</g>
</g>
<!-- Node8 -->
<g id="Node000008" class="node">
<title>Node8</title>
<g id="a_Node000008"><a xlink:href="../../d1/d5a/fstar_8hpp_source.html" target="_top" xlink:title=" ">
<polygon fill="white" stroke="#666666" points="423.45,-70 376.45,-70 376.45,-53 423.45,-53 423.45,-70"/>
<text text-anchor="middle" x="399.95" y="-59.6" font-family="Helvetica,sans-Serif" font-size="8.00">fstar.hpp</text>
</a>
</g>
</g>
<!-- Node1&#45;&gt;Node8 -->
<g id="edge12_Node000001_Node000008" class="edge">
<title>Node1&#45;&gt;Node8</title>
<g id="a_edge12_Node000001_Node000008"><a xlink:title=" ">
<path fill="none" stroke="#63b8ff" d="M399.95,-148.55C399.95,-125.5 399.95,-86.52 399.95,-70.12"/>
<polygon fill="#63b8ff" stroke="#63b8ff" points="396.45,-148.68 399.95,-158.68 403.45,-148.68 396.45,-148.68"/>
</a>
</g>
</g>
<!-- Node9 -->
<g id="Node000009" class="node">
<title>Node9</title>
<g id="a_Node000009"><a xlink:href="../../de/d94/gbfs_8hpp_source.html" target="_top" xlink:title=" ">
<polygon fill="white" stroke="#666666" points="488.45,-70 441.45,-70 441.45,-53 488.45,-53 488.45,-70"/>
<text text-anchor="middle" x="464.95" y="-59.6" font-family="Helvetica,sans-Serif" font-size="8.00">gbfs.hpp</text>
</a>
</g>
</g>
<!-- Node1&#45;&gt;Node9 -->
<g id="edge14_Node000001_Node000009" class="edge">
<title>Node1&#45;&gt;Node9</title>
<g id="a_edge14_Node000001_Node000009"><a xlink:title=" ">
<path fill="none" stroke="#63b8ff" d="M410.2,-150.1C424.46,-127.29 449.7,-86.89 460.18,-70.12"/>
<polygon fill="#63b8ff" stroke="#63b8ff" points="407.17,-148.35 404.84,-158.68 413.1,-152.06 407.17,-148.35"/>
</a>
</g>
</g>
<!-- Node10 -->
<g id="Node000010" class="node">
<title>Node10</title>
<g id="a_Node000010"><a xlink:href="../../d4/df2/gdfs_8hpp_source.html" target="_top" xlink:title=" ">
<polygon fill="white" stroke="#666666" points="553.45,-70 506.45,-70 506.45,-53 553.45,-53 553.45,-70"/>
<text text-anchor="middle" x="529.95" y="-59.6" font-family="Helvetica,sans-Serif" font-size="8.00">gdfs.hpp</text>
</a>
</g>
</g>
<!-- Node1&#45;&gt;Node10 -->
<g id="edge16_Node000001_Node000010" class="edge">
<title>Node1&#45;&gt;Node10</title>
<g id="a_edge16_Node000001_Node000010"><a xlink:title=" ">
<path fill="none" stroke="#63b8ff" d="M417.84,-152.19C445.78,-129.84 498.8,-87.42 520.42,-70.12"/>
<polygon fill="#63b8ff" stroke="#63b8ff" points="415.34,-149.7 409.72,-158.68 419.72,-155.17 415.34,-149.7"/>
</a>
</g>
</g>
<!-- Node11 -->
<g id="Node000011" class="node">
<title>Node11</title>
<g id="a_Node000011"><a xlink:href="../../d3/d3e/gjps_8hpp_source.html" target="_top" xlink:title=" ">
<polygon fill="white" stroke="#666666" points="618.45,-70 571.45,-70 571.45,-53 618.45,-53 618.45,-70"/>
<text text-anchor="middle" x="594.95" y="-59.6" font-family="Helvetica,sans-Serif" font-size="8.00">gjps.hpp</text>
</a>
</g>
</g>
<!-- Node1&#45;&gt;Node11 -->
<g id="edge18_Node000001_Node000011" class="edge">
<title>Node1&#45;&gt;Node11</title>
<g id="a_edge18_Node000001_Node000011"><a xlink:title=" ">
<path fill="none" stroke="#63b8ff" d="M423.26,-154.07C464.15,-132.26 547.63,-87.74 580.85,-70.02"/>
<polygon fill="#63b8ff" stroke="#63b8ff" points="421.47,-151.06 414.29,-158.85 424.76,-157.23 421.47,-151.06"/>
</a>
</g>
</g>
<!-- Node12 -->
<g id="Node000012" class="node">
<title>Node12</title>
<g id="a_Node000012"><a xlink:href="../../d1/def/gstar_8hpp_source.html" target="_top" xlink:title=" ">
<polygon fill="white" stroke="#666666" points="1243.95,-70 1193.95,-70 1193.95,-53 1243.95,-53 1243.95,-70"/>
<text text-anchor="middle" x="1218.95" y="-59.6" font-family="Helvetica,sans-Serif" font-size="8.00">gstar.hpp</text>
</a>
</g>
</g>
<!-- Node1&#45;&gt;Node12 -->
<g id="edge20_Node000001_Node000012" class="edge">
<title>Node1&#45;&gt;Node12</title>
<g id="a_edge20_Node000001_Node000012"><a xlink:title=" ">
<path fill="none" stroke="#63b8ff" d="M450.2,-161.99C575.06,-150.42 909.17,-117.26 1184.95,-70 1187.81,-69.51 1190.79,-68.94 1193.75,-68.34"/>
<polygon fill="#63b8ff" stroke="#63b8ff" points="449.81,-158.51 440.18,-162.91 450.46,-165.48 449.81,-158.51"/>
</a>
</g>
</g>
<!-- Node13 -->
<g id="Node000013" class="node">
<title>Node13</title>
<g id="a_Node000013"><a xlink:href="../../d9/de6/jps_8hpp_source.html" target="_top" xlink:title=" ">
<polygon fill="white" stroke="#666666" points="1303.95,-70 1261.95,-70 1261.95,-53 1303.95,-53 1303.95,-70"/>
<text text-anchor="middle" x="1282.95" y="-59.6" font-family="Helvetica,sans-Serif" font-size="8.00">jps.hpp</text>
</a>
</g>
</g>
<!-- Node1&#45;&gt;Node13 -->
<g id="edge22_Node000001_Node000013" class="edge">
<title>Node1&#45;&gt;Node13</title>
<g id="a_edge22_Node000001_Node000013"><a xlink:title=" ">
<path fill="none" stroke="#63b8ff" d="M450.53,-163.68C583.23,-155.66 951.84,-129.34 1252.95,-70 1255.79,-69.44 1258.77,-68.78 1261.7,-68.09"/>
<polygon fill="#63b8ff" stroke="#63b8ff" points="450.05,-160.2 440.28,-164.29 450.47,-167.19 450.05,-160.2"/>
</a>
</g>
</g>
<!-- Node14 -->
<g id="Node000014" class="node">
<title>Node14</title>
<g id="a_Node000014"><a xlink:href="../../d2/d1c/solver_8hpp.html" target="_top" xlink:title=" ">
<polygon fill="white" stroke="#666666" points="632.45,-123 579.45,-123 579.45,-106 632.45,-106 632.45,-123"/>
<text text-anchor="middle" x="605.95" y="-112.6" font-family="Helvetica,sans-Serif" font-size="8.00">solver.hpp</text>
</a>
</g>
</g>
<!-- Node1&#45;&gt;Node14 -->
<g id="edge24_Node000001_Node000014" class="edge">
<title>Node1&#45;&gt;Node14</title>
<g id="a_edge24_Node000001_Node000014"><a xlink:title=" ">
<path fill="none" stroke="#63b8ff" d="M440.31,-156.51C481.45,-146.32 544.08,-130.82 579.36,-122.08"/>
<polygon fill="#63b8ff" stroke="#63b8ff" points="439.21,-153.17 430.35,-158.97 440.89,-159.97 439.21,-153.17"/>
</a>
</g>
</g>
<!-- Node2&#45;&gt;Node3 -->
<g id="edge2_Node000002_Node000003" class="edge">
<title>Node2&#45;&gt;Node3</title>
<g id="a_edge2_Node000002_Node000003"><a xlink:title=" ">
<path fill="none" stroke="#63b8ff" d="M88.21,-53.04C293.84,-22.86 530.76,-12.82 605.31,-10.24"/>
<polygon fill="#63b8ff" stroke="#63b8ff" points="87.51,-49.61 78.13,-54.54 88.54,-56.53 87.51,-49.61"/>
</a>
</g>
</g>
<!-- Node4&#45;&gt;Node3 -->
<g id="edge4_Node000004_Node000003" class="edge">
<title>Node4&#45;&gt;Node3</title>
<g id="a_edge4_Node000004_Node000003"><a xlink:title=" ">
<path fill="none" stroke="#63b8ff" d="M171.56,-52.89C343.27,-29.49 538.03,-15.49 604.97,-11.04"/>
<polygon fill="#63b8ff" stroke="#63b8ff" points="171.01,-49.44 161.58,-54.27 171.97,-56.37 171.01,-49.44"/>
</a>
</g>
</g>
<!-- Node5&#45;&gt;Node3 -->
<g id="edge6_Node000005_Node000003" class="edge">
<title>Node5&#45;&gt;Node3</title>
<g id="a_edge6_Node000005_Node000003"><a xlink:title=" ">
<path fill="none" stroke="#63b8ff" d="M232.58,-52.95C379.2,-27.29 544.29,-14.96 605.01,-10.98"/>
<polygon fill="#63b8ff" stroke="#63b8ff" points="231.74,-49.54 222.5,-54.74 232.96,-56.44 231.74,-49.54"/>
</a>
</g>
</g>
<!-- Node6&#45;&gt;Node3 -->
<g id="edge9_Node000006_Node000003" class="edge">
<title>Node6&#45;&gt;Node3</title>
<g id="a_edge9_Node000006_Node000003"><a xlink:title=" ">
<path fill="none" stroke="#63b8ff" d="M293.53,-53.11C416.57,-30.72 551.49,-16.8 605.19,-11.68"/>
<polygon fill="#63b8ff" stroke="#63b8ff" points="292.77,-49.7 283.57,-54.95 294.04,-56.58 292.77,-49.7"/>
</a>
</g>
</g>
<!-- Node7&#45;&gt;Node3 -->
<g id="edge11_Node000007_Node000003" class="edge">
<title>Node7&#45;&gt;Node3</title>
<g id="a_edge11_Node000007_Node000003"><a xlink:title=" ">
<path fill="none" stroke="#63b8ff" d="M368.13,-52.84C461.79,-35.71 561.05,-20.01 605.42,-13.12"/>
<polygon fill="#63b8ff" stroke="#63b8ff" points="367.41,-49.41 358.21,-54.66 368.68,-56.3 367.41,-49.41"/>
</a>
</g>
</g>
<!-- Node8&#45;&gt;Node3 -->
<g id="edge13_Node000008_Node000003" class="edge">
<title>Node8&#45;&gt;Node3</title>
<g id="a_edge13_Node000008_Node000003"><a xlink:title=" ">
<path fill="none" stroke="#63b8ff" d="M433.67,-52.63C501.29,-37.28 570,-22.28 605.28,-14.62"/>
<polygon fill="#63b8ff" stroke="#63b8ff" points="432.68,-49.27 423.71,-54.9 434.24,-56.09 432.68,-49.27"/>
</a>
</g>
</g>
<!-- Node9&#45;&gt;Node3 -->
<g id="edge15_Node000009_Node000003" class="edge">
<title>Node9&#45;&gt;Node3</title>
<g id="a_edge15_Node000009_Node000003"><a xlink:title=" ">
<path fill="none" stroke="#63b8ff" d="M498.55,-50.05C530.36,-40.16 577.31,-25.56 605.34,-16.84"/>
<polygon fill="#63b8ff" stroke="#63b8ff" points="497.31,-46.77 488.8,-53.08 499.39,-53.46 497.31,-46.77"/>
</a>
</g>
</g>
<!-- Node10&#45;&gt;Node3 -->
<g id="edge17_Node000010_Node000003" class="edge">
<title>Node10&#45;&gt;Node3</title>
<g id="a_edge17_Node000010_Node000003"><a xlink:title=" ">
<path fill="none" stroke="#63b8ff" d="M553.7,-48.27C572.56,-38.55 598.32,-25.28 614.28,-17.06"/>
<polygon fill="#63b8ff" stroke="#63b8ff" points="551.85,-45.28 544.56,-52.97 555.05,-51.51 551.85,-45.28"/>
</a>
</g>
</g>
<!-- Node11&#45;&gt;Node3 -->
<g id="edge19_Node000011_Node000003" class="edge">
<title>Node11&#45;&gt;Node3</title>
<g id="a_edge19_Node000011_Node000003"><a xlink:title=" ">
<path fill="none" stroke="#63b8ff" d="M605.52,-44.65C611.65,-35.46 619.08,-24.3 623.91,-17.06"/>
<polygon fill="#63b8ff" stroke="#63b8ff" points="602.6,-42.71 599.97,-52.97 608.43,-46.6 602.6,-42.71"/>
</a>
</g>
</g>
<!-- Node12&#45;&gt;Node3 -->
<g id="edge21_Node000012_Node000003" class="edge">
<title>Node12&#45;&gt;Node3</title>
<g id="a_edge21_Node000012_Node000003"><a xlink:title=" ">
<path fill="none" stroke="#63b8ff" d="M1183.74,-53.05C972.46,-22.26 728.56,-12.59 652.66,-10.18"/>
<polygon fill="#63b8ff" stroke="#63b8ff" points="1183.37,-56.54 1193.77,-54.54 1184.39,-49.61 1183.37,-56.54"/>
</a>
</g>
</g>
<!-- Node13&#45;&gt;Node3 -->
<g id="edge23_Node000013_Node000003" class="edge">
<title>Node13&#45;&gt;Node3</title>
<g id="a_edge23_Node000013_Node000003"><a xlink:title=" ">
<path fill="none" stroke="#63b8ff" d="M1251.84,-53.15C1013.25,-16.06 734.52,-10.52 652.64,-9.66"/>
<polygon fill="#63b8ff" stroke="#63b8ff" points="1251.32,-56.61 1261.74,-54.71 1252.41,-49.69 1251.32,-56.61"/>
</a>
</g>
</g>
<!-- Node14&#45;&gt;Node2 -->
<g id="edge25_Node000014_Node000002" class="edge">
<title>Node14&#45;&gt;Node2</title>
<g id="a_edge25_Node000014_Node000002"><a xlink:title=" ">
<path fill="none" stroke="#63b8ff" d="M569.14,-112.1C483.91,-108.5 266.56,-97.21 86.95,-70 84.08,-69.57 81.09,-69.03 78.13,-68.45"/>
<polygon fill="#63b8ff" stroke="#63b8ff" points="569.2,-115.61 579.34,-112.52 569.49,-108.62 569.2,-115.61"/>
</a>
</g>
</g>
<!-- Node14&#45;&gt;Node3 -->
<g id="edge28_Node000014_Node000003" class="edge">
<title>Node14&#45;&gt;Node3</title>
<g id="a_edge28_Node000014_Node000003"><a xlink:title=" ">
<path fill="none" stroke="#63b8ff" d="M643.21,-114.04C717.36,-114.22 879.27,-109.93 913.95,-70 918.91,-64.3 918.87,-58.73 913.95,-53 880.2,-13.7 714.69,-9.52 652.57,-9.35"/>
<polygon fill="#63b8ff" stroke="#63b8ff" points="642.95,-110.53 632.93,-113.98 642.91,-117.53 642.95,-110.53"/>
</a>
</g>
</g>
<!-- Node14&#45;&gt;Node4 -->
<g id="edge26_Node000014_Node000004" class="edge">
<title>Node14&#45;&gt;Node4</title>
<g id="a_edge26_Node000014_Node000004"><a xlink:title=" ">
<path fill="none" stroke="#63b8ff" d="M568.95,-110.83C493.63,-105.17 317.13,-90.77 169.95,-70 167.23,-69.62 164.41,-69.18 161.59,-68.72"/>
<polygon fill="#63b8ff" stroke="#63b8ff" points="569.09,-114.35 579.32,-111.6 569.61,-107.37 569.09,-114.35"/>
</a>
</g>
</g>
<!-- Node14&#45;&gt;Node5 -->
<g id="edge27_Node000014_Node000005" class="edge">
<title>Node14&#45;&gt;Node5</title>
<g id="a_edge27_Node000014_Node000005"><a xlink:title=" ">
<path fill="none" stroke="#63b8ff" d="M569.3,-110.83C501.92,-105.58 353.97,-92.42 230.95,-70 228.2,-69.5 225.34,-68.89 222.51,-68.24"/>
<polygon fill="#63b8ff" stroke="#63b8ff" points="569.17,-114.33 579.41,-111.61 569.7,-107.35 569.17,-114.33"/>
</a>
</g>
</g>
<!-- Node14&#45;&gt;Node6 -->
<g id="edge29_Node000014_Node000006" class="edge">
<title>Node14&#45;&gt;Node6</title>
<g id="a_edge29_Node000014_Node000006"><a xlink:title=" ">
<path fill="none" stroke="#63b8ff" d="M569.18,-109.59C510.49,-103.08 392.15,-88.84 292.95,-70 289.9,-69.42 286.71,-68.74 283.57,-68.02"/>
<polygon fill="#63b8ff" stroke="#63b8ff" points="569.1,-113.1 579.42,-110.71 569.87,-106.14 569.1,-113.1"/>
</a>
</g>
</g>
<!-- Node14&#45;&gt;Node7 -->
<g id="edge38_Node000014_Node000007" class="edge">
<title>Node14&#45;&gt;Node7</title>
<g id="a_edge38_Node000014_Node000007"><a xlink:title=" ">
<path fill="none" stroke="#63b8ff" d="M569.4,-107.08C522.48,-98.79 438.57,-83.77 366.95,-70 364.12,-69.46 361.17,-68.88 358.22,-68.29"/>
<polygon fill="#63b8ff" stroke="#63b8ff" points="568.94,-110.55 579.39,-108.84 570.15,-103.66 568.94,-110.55"/>
</a>
</g>
</g>
<!-- Node14&#45;&gt;Node8 -->
<g id="edge39_Node000014_Node000008" class="edge">
<title>Node14&#45;&gt;Node8</title>
<g id="a_edge39_Node000014_Node000008"><a xlink:title=" ">
<path fill="none" stroke="#63b8ff" d="M569.58,-104.5C527.44,-94.06 459.23,-77.17 423.49,-68.33"/>
<polygon fill="#63b8ff" stroke="#63b8ff" points="568.89,-107.93 579.44,-106.94 570.58,-101.14 568.89,-107.93"/>
</a>
</g>
</g>
<!-- Node14&#45;&gt;Node9 -->
<g id="edge40_Node000014_Node000009" class="edge">
<title>Node14&#45;&gt;Node9</title>
<g id="a_edge40_Node000014_Node000009"><a xlink:title=" ">
<path fill="none" stroke="#63b8ff" d="M575.4,-102.45C548.32,-92.66 509.52,-78.62 485.84,-70.06"/>
<polygon fill="#63b8ff" stroke="#63b8ff" points="574.55,-105.86 585.15,-105.97 576.93,-99.28 574.55,-105.86"/>
</a>
</g>
</g>
<!-- Node14&#45;&gt;Node10 -->
<g id="edge41_Node000014_Node000010" class="edge">
<title>Node14&#45;&gt;Node10</title>
<g id="a_edge41_Node000014_Node000010"><a xlink:title=" ">
<path fill="none" stroke="#63b8ff" d="M586.1,-100.18C571.8,-90.58 553.02,-77.98 541.21,-70.06"/>
<polygon fill="#63b8ff" stroke="#63b8ff" points="584.48,-103.31 594.74,-105.97 588.38,-97.5 584.48,-103.31"/>
</a>
</g>
</g>
<!-- Node14&#45;&gt;Node11 -->
<g id="edge42_Node000014_Node000011" class="edge">
<title>Node14&#45;&gt;Node11</title>
<g id="a_edge42_Node000014_Node000011"><a xlink:title=" ">
<path fill="none" stroke="#63b8ff" d="M602.16,-95.91C600.25,-87.08 598.04,-76.85 596.58,-70.06"/>
<polygon fill="#63b8ff" stroke="#63b8ff" points="598.8,-96.94 604.33,-105.97 605.64,-95.46 598.8,-96.94"/>
</a>
</g>
</g>
<!-- Node14&#45;&gt;Node12 -->
<g id="edge43_Node000014_Node000012" class="edge">
<title>Node14&#45;&gt;Node12</title>
<g id="a_edge43_Node000014_Node000012"><a xlink:title=" ">
<path fill="none" stroke="#63b8ff" d="M642.83,-112.55C734.81,-109.77 981.57,-99.92 1184.95,-70 1187.82,-69.58 1190.81,-69.05 1193.77,-68.47"/>
<polygon fill="#63b8ff" stroke="#63b8ff" points="642.54,-109.05 632.65,-112.84 642.74,-116.05 642.54,-109.05"/>
</a>
</g>
</g>
<!-- Node14&#45;&gt;Node13 -->
<g id="edge50_Node000014_Node000013" class="edge">
<title>Node14&#45;&gt;Node13</title>
<g id="a_edge50_Node000014_Node000013"><a xlink:title=" ">
<path fill="none" stroke="#63b8ff" d="M642.74,-113.31C741.91,-112.3 1022.79,-106.21 1252.95,-70 1255.81,-69.55 1258.8,-68.96 1261.74,-68.3"/>
<polygon fill="#63b8ff" stroke="#63b8ff" points="642.61,-109.81 632.64,-113.4 642.67,-116.81 642.61,-109.81"/>
</a>
</g>
</g>
<!-- Node15 -->
<g id="Node000015" class="node">
<title>Node15</title>
<g id="a_Node000015"><a xlink:href="../../d3/d11/dijkstra_8hpp_source.html" target="_top" xlink:title=" ">
<polygon fill="white" stroke="#666666" points="1019.45,-70 962.45,-70 962.45,-53 1019.45,-53 1019.45,-70"/>
<text text-anchor="middle" x="990.95" y="-59.6" font-family="Helvetica,sans-Serif" font-size="8.00">dijkstra.hpp</text>
</a>
</g>
</g>
<!-- Node14&#45;&gt;Node15 -->
<g id="edge30_Node000014_Node000015" class="edge">
<title>Node14&#45;&gt;Node15</title>
<g id="a_edge30_Node000014_Node000015"><a xlink:title=" ">
<path fill="none" stroke="#63b8ff" d="M642.8,-109.38C705.56,-102.23 837.17,-86.7 947.95,-70 952.6,-69.3 957.51,-68.5 962.3,-67.69"/>
<polygon fill="#63b8ff" stroke="#63b8ff" points="642.16,-105.93 632.62,-110.53 642.95,-112.88 642.16,-105.93"/>
</a>
</g>
</g>
<!-- Node16 -->
<g id="Node000016" class="node">
<title>Node16</title>
<g id="a_Node000016"><a xlink:href="../../d6/ded/eidastar_8hpp_source.html" target="_top" xlink:title=" ">
<polygon fill="white" stroke="#666666" points="1097.95,-70 1037.95,-70 1037.95,-53 1097.95,-53 1097.95,-70"/>
<text text-anchor="middle" x="1067.95" y="-59.6" font-family="Helvetica,sans-Serif" font-size="8.00">eidastar.hpp</text>
</a>
</g>
</g>
<!-- Node14&#45;&gt;Node16 -->
<g id="edge32_Node000014_Node000016" class="edge">
<title>Node14&#45;&gt;Node16</title>
<g id="a_edge32_Node000014_Node000016"><a xlink:title=" ">
<path fill="none" stroke="#63b8ff" d="M642.84,-110.73C716.35,-104.98 886.23,-90.56 1027.95,-70 1031.17,-69.53 1034.52,-68.99 1037.85,-68.42"/>
<polygon fill="#63b8ff" stroke="#63b8ff" points="642.41,-107.25 632.71,-111.51 642.95,-114.23 642.41,-107.25"/>
</a>
</g>
</g>
<!-- Node17 -->
<g id="Node000017" class="node">
<title>Node17</title>
<g id="a_Node000017"><a xlink:href="../../dd/d67/eidbstar_8hpp_source.html" target="_top" xlink:title=" ">
<polygon fill="white" stroke="#666666" points="1175.95,-70 1115.95,-70 1115.95,-53 1175.95,-53 1175.95,-70"/>
<text text-anchor="middle" x="1145.95" y="-59.6" font-family="Helvetica,sans-Serif" font-size="8.00">eidbstar.hpp</text>
</a>
</g>
</g>
<!-- Node14&#45;&gt;Node17 -->
<g id="edge34_Node000014_Node000017" class="edge">
<title>Node14&#45;&gt;Node17</title>
<g id="a_edge34_Node000014_Node000017"><a xlink:title=" ">
<path fill="none" stroke="#63b8ff" d="M642.87,-111.6C726.03,-107.05 934.23,-94.04 1106.95,-70 1109.82,-69.6 1112.8,-69.13 1115.77,-68.62"/>
<polygon fill="#63b8ff" stroke="#63b8ff" points="642.47,-108.12 632.67,-112.15 642.85,-115.11 642.47,-108.12"/>
</a>
</g>
</g>
<!-- Node18 -->
<g id="Node000018" class="node">
<title>Node18</title>
<g id="a_Node000018"><a xlink:href="../../dd/d95/eiddfs_8hpp_source.html" target="_top" xlink:title=" ">
<polygon fill="white" stroke="#666666" points="689.45,-70 636.45,-70 636.45,-53 689.45,-53 689.45,-70"/>
<text text-anchor="middle" x="662.95" y="-59.6" font-family="Helvetica,sans-Serif" font-size="8.00">eiddfs.hpp</text>
</a>
</g>
</g>
<!-- Node14&#45;&gt;Node18 -->
<g id="edge36_Node000014_Node000018" class="edge">
<title>Node14&#45;&gt;Node18</title>
<g id="a_edge36_Node000014_Node000018"><a xlink:title=" ">
<path fill="none" stroke="#63b8ff" d="M622.08,-99.07C632.63,-89.63 645.99,-77.68 654.51,-70.06"/>
<polygon fill="#63b8ff" stroke="#63b8ff" points="619.48,-96.7 614.36,-105.97 624.15,-101.92 619.48,-96.7"/>
</a>
</g>
</g>
<!-- Node19 -->
<g id="Node000019" class="node">
<title>Node19</title>
<g id="a_Node000019"><a xlink:href="../../db/df9/idastar_8hpp_source.html" target="_top" xlink:title=" ">
<polygon fill="white" stroke="#666666" points="763.95,-70 707.95,-70 707.95,-53 763.95,-53 763.95,-70"/>
<text text-anchor="middle" x="735.95" y="-59.6" font-family="Helvetica,sans-Serif" font-size="8.00">idastar.hpp</text>
</a>
</g>
</g>
<!-- Node14&#45;&gt;Node19 -->
<g id="edge44_Node000014_Node000019" class="edge">
<title>Node14&#45;&gt;Node19</title>
<g id="a_edge44_Node000014_Node000019"><a xlink:title=" ">
<path fill="none" stroke="#63b8ff" d="M634.45,-102.32C659.4,-92.53 694.96,-78.58 716.69,-70.06"/>
<polygon fill="#63b8ff" stroke="#63b8ff" points="633.16,-99.06 625.13,-105.97 635.72,-105.58 633.16,-99.06"/>
</a>
</g>
</g>
<!-- Node20 -->
<g id="Node000020" class="node">
<title>Node20</title>
<g id="a_Node000020"><a xlink:href="../../d1/d24/idbstar_8hpp_source.html" target="_top" xlink:title=" ">
<polygon fill="white" stroke="#666666" points="837.95,-70 781.95,-70 781.95,-53 837.95,-53 837.95,-70"/>
<text text-anchor="middle" x="809.95" y="-59.6" font-family="Helvetica,sans-Serif" font-size="8.00">idbstar.hpp</text>
</a>
</g>
</g>
<!-- Node14&#45;&gt;Node20 -->
<g id="edge46_Node000014_Node000020" class="edge">
<title>Node14&#45;&gt;Node20</title>
<g id="a_edge46_Node000014_Node000020"><a xlink:title=" ">
<path fill="none" stroke="#63b8ff" d="M642.47,-104.37C682.35,-94.4 745.34,-78.65 781.64,-69.58"/>
<polygon fill="#63b8ff" stroke="#63b8ff" points="641.47,-101.01 632.62,-106.83 643.17,-107.8 641.47,-101.01"/>
</a>
</g>
</g>
<!-- Node21 -->
<g id="Node000021" class="node">
<title>Node21</title>
<g id="a_Node000021"><a xlink:href="../../df/d71/iddfs_8hpp_source.html" target="_top" xlink:title=" ">
<polygon fill="white" stroke="#666666" points="905.45,-70 856.45,-70 856.45,-53 905.45,-53 905.45,-70"/>
<text text-anchor="middle" x="880.95" y="-59.6" font-family="Helvetica,sans-Serif" font-size="8.00">iddfs.hpp</text>
</a>
</g>
</g>
<!-- Node14&#45;&gt;Node21 -->
<g id="edge48_Node000014_Node000021" class="edge">
<title>Node14&#45;&gt;Node21</title>
<g id="a_edge48_Node000014_Node000021"><a xlink:title=" ">
<path fill="none" stroke="#63b8ff" d="M642.84,-107.3C690.2,-99.23 774.86,-84.45 846.95,-70 849.91,-69.41 853.02,-68.76 856.09,-68.1"/>
<polygon fill="#63b8ff" stroke="#63b8ff" points="642.03,-103.88 632.76,-109.01 643.21,-110.78 642.03,-103.88"/>
</a>
</g>
</g>
<!-- Node15&#45;&gt;Node3 -->
<g id="edge31_Node000015_Node000003" class="edge">
<title>Node15&#45;&gt;Node3</title>
<g id="a_edge31_Node000015_Node000003"><a xlink:title=" ">
<path fill="none" stroke="#63b8ff" d="M952.37,-53.7C950.88,-53.46 949.4,-53.23 947.95,-53 837.76,-35.88 705.58,-19.03 652.61,-12.42"/>
<polygon fill="#63b8ff" stroke="#63b8ff" points="951.86,-57.16 962.29,-55.35 953,-50.26 951.86,-57.16"/>
</a>
</g>
</g>
<!-- Node16&#45;&gt;Node3 -->
<g id="edge33_Node000016_Node000003" class="edge">
<title>Node16&#45;&gt;Node3</title>
<g id="a_edge33_Node000016_Node000003"><a xlink:title=" ">
<path fill="none" stroke="#63b8ff" d="M1028.25,-53.04C1028.15,-53.03 1028.05,-53.01 1027.95,-53 886.3,-32.03 714.96,-16.7 652.87,-11.46"/>
<polygon fill="#63b8ff" stroke="#63b8ff" points="1027.42,-56.46 1037.85,-54.6 1028.54,-49.55 1027.42,-56.46"/>
</a>
</g>
</g>
<!-- Node17&#45;&gt;Node3 -->
<g id="edge35_Node000017_Node000003" class="edge">
<title>Node17&#45;&gt;Node3</title>
<g id="a_edge35_Node000017_Node000003"><a xlink:title=" ">
<path fill="none" stroke="#63b8ff" d="M1105.6,-52.96C925.91,-28.02 721.73,-14.85 652.92,-10.84"/>
<polygon fill="#63b8ff" stroke="#63b8ff" points="1105.38,-56.46 1115.77,-54.39 1106.35,-49.53 1105.38,-56.46"/>
</a>
</g>
</g>
<!-- Node18&#45;&gt;Node3 -->
<g id="edge37_Node000018_Node000003" class="edge">
<title>Node18&#45;&gt;Node3</title>
<g id="a_edge37_Node000018_Node000003"><a xlink:title=" ">
<path fill="none" stroke="#63b8ff" d="M652.39,-44.65C646.26,-35.46 638.82,-24.3 633.99,-17.06"/>
<polygon fill="#63b8ff" stroke="#63b8ff" points="649.47,-46.6 657.93,-52.97 655.3,-42.71 649.47,-46.6"/>
</a>
</g>
</g>
<!-- Node19&#45;&gt;Node3 -->
<g id="edge45_Node000019_Node000003" class="edge">
<title>Node19&#45;&gt;Node3</title>
<g id="a_edge45_Node000019_Node000003"><a xlink:title=" ">
<path fill="none" stroke="#63b8ff" d="M711.12,-48.66C690.67,-38.92 662.29,-25.39 644.8,-17.06"/>
<polygon fill="#63b8ff" stroke="#63b8ff" points="709.63,-51.83 720.16,-52.97 712.64,-45.51 709.63,-51.83"/>
</a>
</g>
</g>
<!-- Node20&#45;&gt;Node3 -->
<g id="edge47_Node000020_Node000003" class="edge">
<title>Node20&#45;&gt;Node3</title>
<g id="a_edge47_Node000020_Node000003"><a xlink:title=" ">
<path fill="none" stroke="#63b8ff" d="M773.59,-50.26C737.55,-40.1 683.39,-24.84 652.59,-16.16"/>
<polygon fill="#63b8ff" stroke="#63b8ff" points="772.67,-53.63 783.24,-52.97 774.57,-46.89 772.67,-53.63"/>
</a>
</g>
</g>
<!-- Node21&#45;&gt;Node3 -->
<g id="edge49_Node000021_Node000003" class="edge">
<title>Node21&#45;&gt;Node3</title>
<g id="a_edge49_Node000021_Node000003"><a xlink:title=" ">
<path fill="none" stroke="#63b8ff" d="M846.57,-52.96C769.52,-36.84 690.91,-21.47 652.53,-14.04"/>
<polygon fill="#63b8ff" stroke="#63b8ff" points="845.94,-56.4 856.45,-55.03 847.38,-49.55 845.94,-56.4"/>
</a>
</g>
</g>
</g>
</svg>
