<?xml version="1.0" encoding="UTF-8" standalone="no"?>
<!DOCTYPE svg PUBLIC "-//W3C//DTD SVG 1.1//EN"
 "http://www.w3.org/Graphics/SVG/1.1/DTD/svg11.dtd">
<!-- Generated by graphviz version 2.43.0 (0)
 -->
<!-- Title: existence_set.hpp Pages: 1 -->
<svg width="920pt" height="131pt"
 viewBox="0.00 0.00 920.00 131.00" xmlns="http://www.w3.org/2000/svg" xmlns:xlink="http://www.w3.org/1999/xlink">
<g id="graph0" class="graph" transform="scale(1 1) rotate(0) translate(4 127)">
<title>existence_set.hpp</title>
<!-- Node1 -->
<g id="Node000001" class="node">
<title>Node1</title>
<g id="a_Node000001"><a xlink:title=" ">
<polygon fill="#999999" stroke="#666666" points="481.5,-123 391.5,-123 391.5,-106 481.5,-106 481.5,-123"/>
<text text-anchor="middle" x="436.5" y="-112.6" font-family="Helvetica,sans-Serif" font-size="8.00">existence_set.hpp</text>
</a>
</g>
</g>
<!-- Node2 -->
<g id="Node000002" class="node">
<title>Node2</title>
<g id="a_Node000002"><a xlink:href="../../dc/da9/astar_8hpp.html" target="_top" xlink:title=" ">
<polygon fill="white" stroke="#666666" points="55,-70 0,-70 0,-53 55,-53 55,-70"/>
<text text-anchor="middle" x="27.5" y="-59.6" font-family="Helvetica,sans-Serif" font-size="8.00">astar.hpp</text>
</a>
</g>
</g>
<!-- Node1&#45;&gt;Node2 -->
<g id="edge1_Node000001_Node000002" class="edge">
<title>Node1&#45;&gt;Node2</title>
<g id="a_edge1_Node000001_Node000002"><a xlink:title=" ">
<path fill="none" stroke="#63b8ff" d="M381.29,-107.98C309.35,-100.55 179.75,-86.36 69.5,-70 64.81,-69.3 59.84,-68.49 55.02,-67.65"/>
<polygon fill="#63b8ff" stroke="#63b8ff" points="381.17,-111.48 391.47,-109.02 381.88,-104.52 381.17,-111.48"/>
</a>
</g>
</g>
<!-- Node3 -->
<g id="Node000003" class="node">
<title>Node3</title>
<g id="a_Node000003"><a xlink:href="../../d9/d96/chdr_8hpp.html" target="_top" xlink:title=" ">
<polygon fill="white" stroke="#666666" points="462.5,-17 410.5,-17 410.5,0 462.5,0 462.5,-17"/>
<text text-anchor="middle" x="436.5" y="-6.6" font-family="Helvetica,sans-Serif" font-size="8.00">chdr.hpp</text>
</a>
</g>
</g>
<!-- Node1&#45;&gt;Node3 -->
<g id="edge7_Node000001_Node000003" class="edge">
<title>Node1&#45;&gt;Node3</title>
<g id="a_edge7_Node000001_Node000003"><a xlink:title=" ">
<path fill="none" stroke="#63b8ff" d="M381.13,-110.23C290.95,-104.33 120.57,-90.57 102.5,-70 60.7,-22.4 324.69,-12.08 410.33,-10"/>
<polygon fill="#63b8ff" stroke="#63b8ff" points="380.98,-113.72 391.18,-110.87 381.43,-106.74 380.98,-113.72"/>
</a>
</g>
</g>
<!-- Node4 -->
<g id="Node000004" class="node">
<title>Node4</title>
<g id="a_Node000004"><a xlink:href="../../d3/d77/best__first_8hpp.html" target="_top" xlink:title=" ">
<polygon fill="white" stroke="#666666" points="183.5,-70 111.5,-70 111.5,-53 183.5,-53 183.5,-70"/>
<text text-anchor="middle" x="147.5" y="-59.6" font-family="Helvetica,sans-Serif" font-size="8.00">best_first.hpp</text>
</a>
</g>
</g>
<!-- Node1&#45;&gt;Node4 -->
<g id="edge3_Node000001_Node000004" class="edge">
<title>Node1&#45;&gt;Node4</title>
<g id="a_edge3_Node000001_Node000004"><a xlink:title=" ">
<path fill="none" stroke="#63b8ff" d="M383.8,-104.2C325.88,-93.98 234.37,-77.83 183.91,-68.93"/>
<polygon fill="#63b8ff" stroke="#63b8ff" points="383.4,-107.68 393.86,-105.97 384.62,-100.79 383.4,-107.68"/>
</a>
</g>
</g>
<!-- Node5 -->
<g id="Node000005" class="node">
<title>Node5</title>
<g id="a_Node000005"><a xlink:href="../../da/d36/bfs_8hpp.html" target="_top" xlink:title=" ">
<polygon fill="white" stroke="#666666" points="249,-70 202,-70 202,-53 249,-53 249,-70"/>
<text text-anchor="middle" x="225.5" y="-59.6" font-family="Helvetica,sans-Serif" font-size="8.00">bfs.hpp</text>
</a>
</g>
</g>
<!-- Node1&#45;&gt;Node5 -->
<g id="edge5_Node000001_Node000005" class="edge">
<title>Node1&#45;&gt;Node5</title>
<g id="a_edge5_Node000001_Node000005"><a xlink:title=" ">
<path fill="none" stroke="#63b8ff" d="M395.38,-103.56C351.86,-93.04 284.66,-76.8 249.23,-68.24"/>
<polygon fill="#63b8ff" stroke="#63b8ff" points="394.82,-107.03 405.37,-105.97 396.47,-100.22 394.82,-107.03"/>
</a>
</g>
</g>
<!-- Node6 -->
<g id="Node000006" class="node">
<title>Node6</title>
<g id="a_Node000006"><a xlink:href="../../d3/dec/dfs_8hpp.html" target="_top" xlink:title=" ">
<polygon fill="white" stroke="#666666" points="314,-70 267,-70 267,-53 314,-53 314,-70"/>
<text text-anchor="middle" x="290.5" y="-59.6" font-family="Helvetica,sans-Serif" font-size="8.00">dfs.hpp</text>
</a>
</g>
</g>
<!-- Node1&#45;&gt;Node6 -->
<g id="edge8_Node000001_Node000006" class="edge">
<title>Node1&#45;&gt;Node6</title>
<g id="a_edge8_Node000001_Node000006"><a xlink:title=" ">
<path fill="none" stroke="#63b8ff" d="M405.24,-102.58C377.18,-92.78 336.75,-78.66 312.13,-70.06"/>
<polygon fill="#63b8ff" stroke="#63b8ff" points="404.36,-105.98 414.96,-105.97 406.67,-99.37 404.36,-105.98"/>
</a>
</g>
</g>
<!-- Node7 -->
<g id="Node000007" class="node">
<title>Node7</title>
<g id="a_Node000007"><a xlink:href="../../d8/d12/flood_8hpp.html" target="_top" xlink:title=" ">
<polygon fill="white" stroke="#666666" points="388.5,-70 332.5,-70 332.5,-53 388.5,-53 388.5,-70"/>
<text text-anchor="middle" x="360.5" y="-59.6" font-family="Helvetica,sans-Serif" font-size="8.00">flood.hpp</text>
</a>
</g>
</g>
<!-- Node1&#45;&gt;Node7 -->
<g id="edge10_Node000001_Node000007" class="edge">
<title>Node1&#45;&gt;Node7</title>
<g id="a_edge10_Node000001_Node000007"><a xlink:title=" ">
<path fill="none" stroke="#63b8ff" d="M416.65,-100.18C402.35,-90.58 383.57,-77.98 371.76,-70.06"/>
<polygon fill="#63b8ff" stroke="#63b8ff" points="415.03,-103.31 425.29,-105.97 418.93,-97.5 415.03,-103.31"/>
</a>
</g>
</g>
<!-- Node8 -->
<g id="Node000008" class="node">
<title>Node8</title>
<g id="a_Node000008"><a xlink:href="../../d8/dd5/fringe_8hpp.html" target="_top" xlink:title=" ">
<polygon fill="white" stroke="#666666" points="466,-70 407,-70 407,-53 466,-53 466,-70"/>
<text text-anchor="middle" x="436.5" y="-59.6" font-family="Helvetica,sans-Serif" font-size="8.00">fringe.hpp</text>
</a>
</g>
</g>
<!-- Node1&#45;&gt;Node8 -->
<g id="edge12_Node000001_Node000008" class="edge">
<title>Node1&#45;&gt;Node8</title>
<g id="a_edge12_Node000001_Node000008"><a xlink:title=" ">
<path fill="none" stroke="#63b8ff" d="M436.5,-95.91C436.5,-87.08 436.5,-76.85 436.5,-70.06"/>
<polygon fill="#63b8ff" stroke="#63b8ff" points="433,-95.97 436.5,-105.97 440,-95.97 433,-95.97"/>
</a>
</g>
</g>
<!-- Node9 -->
<g id="Node000009" class="node">
<title>Node9</title>
<g id="a_Node000009"><a xlink:href="../../d3/d3e/gbest__first_8hpp.html" target="_top" xlink:title=" ">
<polygon fill="white" stroke="#666666" points="561,-70 484,-70 484,-53 561,-53 561,-70"/>
<text text-anchor="middle" x="522.5" y="-59.6" font-family="Helvetica,sans-Serif" font-size="8.00">gbest_first.hpp</text>
</a>
</g>
</g>
<!-- Node1&#45;&gt;Node9 -->
<g id="edge14_Node000001_Node000009" class="edge">
<title>Node1&#45;&gt;Node9</title>
<g id="a_edge14_Node000001_Node000009"><a xlink:title=" ">
<path fill="none" stroke="#63b8ff" d="M458.04,-100.73C474.33,-91.07 496.15,-78.13 509.76,-70.06"/>
<polygon fill="#63b8ff" stroke="#63b8ff" points="456.01,-97.86 449.19,-105.97 459.58,-103.88 456.01,-97.86"/>
</a>
</g>
</g>
<!-- Node10 -->
<g id="Node000010" class="node">
<title>Node10</title>
<g id="a_Node000010"><a xlink:href="../../de/d94/gbfs_8hpp.html" target="_top" xlink:title=" ">
<polygon fill="white" stroke="#666666" points="632,-70 579,-70 579,-53 632,-53 632,-70"/>
<text text-anchor="middle" x="605.5" y="-59.6" font-family="Helvetica,sans-Serif" font-size="8.00">gbfs.hpp</text>
</a>
</g>
</g>
<!-- Node1&#45;&gt;Node10 -->
<g id="edge16_Node000001_Node000010" class="edge">
<title>Node1&#45;&gt;Node10</title>
<g id="a_edge16_Node000001_Node000010"><a xlink:title=" ">
<path fill="none" stroke="#63b8ff" d="M471.42,-102.96C503.92,-93.15 551.58,-78.77 580.46,-70.06"/>
<polygon fill="#63b8ff" stroke="#63b8ff" points="470,-99.73 461.44,-105.97 472.02,-106.44 470,-99.73"/>
</a>
</g>
</g>
<!-- Node11 -->
<g id="Node000011" class="node">
<title>Node11</title>
<g id="a_Node000011"><a xlink:href="../../d4/df2/gdfs_8hpp.html" target="_top" xlink:title=" ">
<polygon fill="white" stroke="#666666" points="703,-70 650,-70 650,-53 703,-53 703,-70"/>
<text text-anchor="middle" x="676.5" y="-59.6" font-family="Helvetica,sans-Serif" font-size="8.00">gdfs.hpp</text>
</a>
</g>
</g>
<!-- Node1&#45;&gt;Node11 -->
<g id="edge18_Node000001_Node000011" class="edge">
<title>Node1&#45;&gt;Node11</title>
<g id="a_edge18_Node000001_Node000011"><a xlink:title=" ">
<path fill="none" stroke="#63b8ff" d="M481.88,-103.9C523.42,-95.1 586.6,-81.71 641.5,-70 644.17,-69.43 646.96,-68.83 649.75,-68.24"/>
<polygon fill="#63b8ff" stroke="#63b8ff" points="481.12,-100.48 472.06,-105.98 482.57,-107.33 481.12,-100.48"/>
</a>
</g>
</g>
<!-- Node12 -->
<g id="Node000012" class="node">
<title>Node12</title>
<g id="a_Node000012"><a xlink:href="../../d3/d3e/gjps_8hpp.html" target="_top" xlink:title=" ">
<polygon fill="white" stroke="#666666" points="773.5,-70 721.5,-70 721.5,-53 773.5,-53 773.5,-70"/>
<text text-anchor="middle" x="747.5" y="-59.6" font-family="Helvetica,sans-Serif" font-size="8.00">gjps.hpp</text>
</a>
</g>
</g>
<!-- Node1&#45;&gt;Node12 -->
<g id="edge20_Node000001_Node000012" class="edge">
<title>Node1&#45;&gt;Node12</title>
<g id="a_edge20_Node000001_Node000012"><a xlink:title=" ">
<path fill="none" stroke="#63b8ff" d="M491.6,-105.72C547.41,-97.63 636.17,-84.18 712.5,-70 715.31,-69.48 718.24,-68.9 721.16,-68.31"/>
<polygon fill="#63b8ff" stroke="#63b8ff" points="490.96,-102.28 481.57,-107.17 491.96,-109.21 490.96,-102.28"/>
</a>
</g>
</g>
<!-- Node13 -->
<g id="Node000013" class="node">
<title>Node13</title>
<g id="a_Node000013"><a xlink:href="../../d1/def/gstar_8hpp.html" target="_top" xlink:title=" ">
<polygon fill="white" stroke="#666666" points="847,-70 792,-70 792,-53 847,-53 847,-70"/>
<text text-anchor="middle" x="819.5" y="-59.6" font-family="Helvetica,sans-Serif" font-size="8.00">gstar.hpp</text>
</a>
</g>
</g>
<!-- Node1&#45;&gt;Node13 -->
<g id="edge22_Node000001_Node000013" class="edge">
<title>Node1&#45;&gt;Node13</title>
<g id="a_edge22_Node000001_Node000013"><a xlink:title=" ">
<path fill="none" stroke="#63b8ff" d="M491.85,-107.83C560.32,-100.53 680.35,-86.75 782.5,-70 785.48,-69.51 788.58,-68.96 791.66,-68.38"/>
<polygon fill="#63b8ff" stroke="#63b8ff" points="491.29,-104.37 481.72,-108.91 492.03,-111.33 491.29,-104.37"/>
</a>
</g>
</g>
<!-- Node14 -->
<g id="Node000014" class="node">
<title>Node14</title>
<g id="a_Node000014"><a xlink:href="../../d9/de6/jps_8hpp.html" target="_top" xlink:title=" ">
<polygon fill="white" stroke="#666666" points="912,-70 865,-70 865,-53 912,-53 912,-70"/>
<text text-anchor="middle" x="888.5" y="-59.6" font-family="Helvetica,sans-Serif" font-size="8.00">jps.hpp</text>
</a>
</g>
</g>
<!-- Node1&#45;&gt;Node14 -->
<g id="edge24_Node000001_Node000014" class="edge">
<title>Node1&#45;&gt;Node14</title>
<g id="a_edge24_Node000001_Node000014"><a xlink:title=" ">
<path fill="none" stroke="#63b8ff" d="M491.91,-110.01C572.56,-104.43 726.78,-91.83 856.5,-70 859.2,-69.55 862.01,-69 864.8,-68.41"/>
<polygon fill="#63b8ff" stroke="#63b8ff" points="491.25,-106.55 481.51,-110.72 491.72,-113.53 491.25,-106.55"/>
</a>
</g>
</g>
<!-- Node2&#45;&gt;Node3 -->
<g id="edge2_Node000002_Node000003" class="edge">
<title>Node2&#45;&gt;Node3</title>
<g id="a_edge2_Node000002_Node000003"><a xlink:title=" ">
<path fill="none" stroke="#63b8ff" d="M65.04,-53.68C66.54,-53.45 68.03,-53.22 69.5,-53 196.75,-34.11 349.79,-18.13 410.17,-12.08"/>
<polygon fill="#63b8ff" stroke="#63b8ff" points="64.32,-50.26 55.02,-55.35 65.46,-57.16 64.32,-50.26"/>
</a>
</g>
</g>
<!-- Node4&#45;&gt;Node3 -->
<g id="edge4_Node000004_Node000003" class="edge">
<title>Node4&#45;&gt;Node3</title>
<g id="a_edge4_Node000004_Node000003"><a xlink:title=" ">
<path fill="none" stroke="#63b8ff" d="M193.69,-52.35C255.01,-41.53 361.26,-22.78 410.31,-14.12"/>
<polygon fill="#63b8ff" stroke="#63b8ff" points="192.76,-48.96 183.52,-54.14 193.97,-55.85 192.76,-48.96"/>
</a>
</g>
</g>
<!-- Node5&#45;&gt;Node3 -->
<g id="edge6_Node000005_Node000003" class="edge">
<title>Node5&#45;&gt;Node3</title>
<g id="a_edge6_Node000005_Node000003"><a xlink:title=" ">
<path fill="none" stroke="#63b8ff" d="M259.07,-52.39C301.14,-42.22 372.33,-25.01 410.49,-15.79"/>
<polygon fill="#63b8ff" stroke="#63b8ff" points="258.19,-49 249.29,-54.75 259.84,-55.8 258.19,-49"/>
</a>
</g>
</g>
<!-- Node6&#45;&gt;Node3 -->
<g id="edge9_Node000006_Node000003" class="edge">
<title>Node6&#45;&gt;Node3</title>
<g id="a_edge9_Node000006_Node000003"><a xlink:title=" ">
<path fill="none" stroke="#63b8ff" d="M321.76,-49.58C349.82,-39.78 390.25,-25.66 414.87,-17.06"/>
<polygon fill="#63b8ff" stroke="#63b8ff" points="320.33,-46.37 312.04,-52.97 322.64,-52.98 320.33,-46.37"/>
</a>
</g>
</g>
<!-- Node7&#45;&gt;Node3 -->
<g id="edge11_Node000007_Node000003" class="edge">
<title>Node7&#45;&gt;Node3</title>
<g id="a_edge11_Node000007_Node000003"><a xlink:title=" ">
<path fill="none" stroke="#63b8ff" d="M380.35,-47.18C394.65,-37.58 413.43,-24.98 425.24,-17.06"/>
<polygon fill="#63b8ff" stroke="#63b8ff" points="378.07,-44.5 371.71,-52.97 381.97,-50.31 378.07,-44.5"/>
</a>
</g>
</g>
<!-- Node8&#45;&gt;Node3 -->
<g id="edge13_Node000008_Node000003" class="edge">
<title>Node8&#45;&gt;Node3</title>
<g id="a_edge13_Node000008_Node000003"><a xlink:title=" ">
<path fill="none" stroke="#63b8ff" d="M436.5,-42.91C436.5,-34.08 436.5,-23.85 436.5,-17.06"/>
<polygon fill="#63b8ff" stroke="#63b8ff" points="433,-42.97 436.5,-52.97 440,-42.97 433,-42.97"/>
</a>
</g>
</g>
<!-- Node9&#45;&gt;Node3 -->
<g id="edge15_Node000009_Node000003" class="edge">
<title>Node9&#45;&gt;Node3</title>
<g id="a_edge15_Node000009_Node000003"><a xlink:title=" ">
<path fill="none" stroke="#63b8ff" d="M500.96,-47.73C484.67,-38.07 462.85,-25.13 449.24,-17.06"/>
<polygon fill="#63b8ff" stroke="#63b8ff" points="499.42,-50.88 509.81,-52.97 502.99,-44.86 499.42,-50.88"/>
</a>
</g>
</g>
<!-- Node10&#45;&gt;Node3 -->
<g id="edge17_Node000010_Node000003" class="edge">
<title>Node10&#45;&gt;Node3</title>
<g id="a_edge17_Node000010_Node000003"><a xlink:title=" ">
<path fill="none" stroke="#63b8ff" d="M570.58,-49.96C538.08,-40.15 490.42,-25.77 461.54,-17.06"/>
<polygon fill="#63b8ff" stroke="#63b8ff" points="569.98,-53.44 580.56,-52.97 572,-46.73 569.98,-53.44"/>
</a>
</g>
</g>
<!-- Node11&#45;&gt;Node3 -->
<g id="edge19_Node000011_Node000003" class="edge">
<title>Node11&#45;&gt;Node3</title>
<g id="a_edge19_Node000011_Node000003"><a xlink:title=" ">
<path fill="none" stroke="#63b8ff" d="M639.97,-52.68C570.56,-37.88 499.95,-22.93 462.72,-15.05"/>
<polygon fill="#63b8ff" stroke="#63b8ff" points="639.24,-56.1 649.75,-54.76 640.7,-49.25 639.24,-56.1"/>
</a>
</g>
</g>
<!-- Node12&#45;&gt;Node3 -->
<g id="edge21_Node000012_Node000003" class="edge">
<title>Node12&#45;&gt;Node3</title>
<g id="a_edge21_Node000012_Node000003"><a xlink:title=" ">
<path fill="none" stroke="#63b8ff" d="M711.17,-52.84C613.99,-34.98 510.4,-19.88 462.84,-13.16"/>
<polygon fill="#63b8ff" stroke="#63b8ff" points="710.69,-56.31 721.16,-54.69 711.96,-49.43 710.69,-56.31"/>
</a>
</g>
</g>
<!-- Node13&#45;&gt;Node3 -->
<g id="edge23_Node000013_Node000003" class="edge">
<title>Node13&#45;&gt;Node3</title>
<g id="a_edge23_Node000013_Node000003"><a xlink:title=" ">
<path fill="none" stroke="#63b8ff" d="M781.5,-52.97C656.12,-32.7 518.96,-17.88 462.64,-12.11"/>
<polygon fill="#63b8ff" stroke="#63b8ff" points="781.23,-56.47 791.66,-54.62 782.36,-49.56 781.23,-56.47"/>
</a>
</g>
</g>
<!-- Node14&#45;&gt;Node3 -->
<g id="edge25_Node000014_Node000003" class="edge">
<title>Node14&#45;&gt;Node3</title>
<g id="a_edge25_Node000014_Node000003"><a xlink:title=" ">
<path fill="none" stroke="#63b8ff" d="M854.71,-52.91C701,-27.57 527.58,-15.14 462.7,-11.05"/>
<polygon fill="#63b8ff" stroke="#63b8ff" points="854.36,-56.4 864.8,-54.59 855.52,-49.49 854.36,-56.4"/>
</a>
</g>
</g>
</g>
</svg>
