<?xml version="1.0" encoding="UTF-8" standalone="no"?>
<!DOCTYPE svg PUBLIC "-//W3C//DTD SVG 1.1//EN"
 "http://www.w3.org/Graphics/SVG/1.1/DTD/svg11.dtd">
<!-- Generated by graphviz version 2.43.0 (0)
 -->
<!-- Title: existence_set.hpp Pages: 1 -->
<svg width="1297pt" height="184pt"
 viewBox="0.00 0.00 1297.34 184.00" xmlns="http://www.w3.org/2000/svg" xmlns:xlink="http://www.w3.org/1999/xlink">
<g id="graph0" class="graph" transform="scale(1 1) rotate(0) translate(4 180)">
<title>existence_set.hpp</title>
<!-- Node1 -->
<g id="Node000001" class="node">
<title>Node1</title>
<g id="a_Node000001"><a xlink:title=" ">
<polygon fill="#999999" stroke="#666666" points="425.34,-176 345.34,-176 345.34,-159 425.34,-159 425.34,-176"/>
<text text-anchor="middle" x="385.34" y="-165.6" font-family="Helvetica,sans-Serif" font-size="8.00">existence_set.hpp</text>
</a>
</g>
</g>
<!-- Node2 -->
<g id="Node000002" class="node">
<title>Node2</title>
<g id="a_Node000002"><a xlink:href="../../dc/da9/astar_8hpp_source.html" target="_top" xlink:title=" ">
<polygon fill="white" stroke="#666666" points="77.34,-70 27.34,-70 27.34,-53 77.34,-53 77.34,-70"/>
<text text-anchor="middle" x="52.34" y="-59.6" font-family="Helvetica,sans-Serif" font-size="8.00">astar.hpp</text>
</a>
</g>
</g>
<!-- Node1&#45;&gt;Node2 -->
<g id="edge1_Node000001_Node000002" class="edge">
<title>Node1&#45;&gt;Node2</title>
<g id="a_edge1_Node000001_Node000002"><a xlink:title=" ">
<path fill="none" stroke="#63b8ff" d="M344.65,-156.51C311.74,-148.2 264.29,-135.72 223.34,-123 168,-105.81 103.87,-82.08 72.18,-70.09"/>
<polygon fill="#63b8ff" stroke="#63b8ff" points="343.83,-159.91 354.38,-158.95 345.53,-153.12 343.83,-159.91"/>
</a>
</g>
</g>
<!-- Node3 -->
<g id="Node000003" class="node">
<title>Node3</title>
<g id="a_Node000003"><a xlink:href="../../d9/d96/chdr_8hpp_source.html" target="_top" xlink:title=" ">
<polygon fill="white" stroke="#666666" points="637.84,-17 590.84,-17 590.84,0 637.84,0 637.84,-17"/>
<text text-anchor="middle" x="614.34" y="-6.6" font-family="Helvetica,sans-Serif" font-size="8.00">chdr.hpp</text>
</a>
</g>
</g>
<!-- Node1&#45;&gt;Node3 -->
<g id="edge7_Node000001_Node000003" class="edge">
<title>Node1&#45;&gt;Node3</title>
<g id="a_edge7_Node000001_Node000003"><a xlink:title=" ">
<path fill="none" stroke="#63b8ff" d="M335.12,-166.69C214.59,-165.59 -74.43,-152.79 18.34,-53 57.9,-10.45 484.54,-9.06 590.58,-9.37"/>
<polygon fill="#63b8ff" stroke="#63b8ff" points="335.19,-170.19 345.22,-166.76 335.24,-163.19 335.19,-170.19"/>
</a>
</g>
</g>
<!-- Node4 -->
<g id="Node000004" class="node">
<title>Node4</title>
<g id="a_Node000004"><a xlink:href="../../da/d36/bfs_8hpp_source.html" target="_top" xlink:title=" ">
<polygon fill="white" stroke="#666666" points="138.84,-70 95.84,-70 95.84,-53 138.84,-53 138.84,-70"/>
<text text-anchor="middle" x="117.34" y="-59.6" font-family="Helvetica,sans-Serif" font-size="8.00">bfs.hpp</text>
</a>
</g>
</g>
<!-- Node1&#45;&gt;Node4 -->
<g id="edge3_Node000001_Node000004" class="edge">
<title>Node1&#45;&gt;Node4</title>
<g id="a_edge3_Node000001_Node000004"><a xlink:title=" ">
<path fill="none" stroke="#63b8ff" d="M355.08,-155.49C331.41,-146.81 297.7,-134.34 268.34,-123 220.39,-104.48 164.3,-81.72 135.88,-70.1"/>
<polygon fill="#63b8ff" stroke="#63b8ff" points="353.97,-158.81 364.57,-158.96 356.38,-152.23 353.97,-158.81"/>
</a>
</g>
</g>
<!-- Node5 -->
<g id="Node000005" class="node">
<title>Node5</title>
<g id="a_Node000005"><a xlink:href="../../db/d14/bstar_8hpp_source.html" target="_top" xlink:title=" ">
<polygon fill="white" stroke="#666666" points="207.34,-70 157.34,-70 157.34,-53 207.34,-53 207.34,-70"/>
<text text-anchor="middle" x="182.34" y="-59.6" font-family="Helvetica,sans-Serif" font-size="8.00">bstar.hpp</text>
</a>
</g>
</g>
<!-- Node1&#45;&gt;Node5 -->
<g id="edge5_Node000001_Node000005" class="edge">
<title>Node1&#45;&gt;Node5</title>
<g id="a_edge5_Node000001_Node000005"><a xlink:title=" ">
<path fill="none" stroke="#63b8ff" d="M361.35,-154.21C318.87,-132.45 231.67,-87.78 197.01,-70.02"/>
<polygon fill="#63b8ff" stroke="#63b8ff" points="359.91,-157.41 370.41,-158.85 363.11,-151.18 359.91,-157.41"/>
</a>
</g>
</g>
<!-- Node6 -->
<g id="Node000006" class="node">
<title>Node6</title>
<g id="a_Node000006"><a xlink:href="../../d3/dec/dfs_8hpp_source.html" target="_top" xlink:title=" ">
<polygon fill="white" stroke="#666666" points="268.84,-70 225.84,-70 225.84,-53 268.84,-53 268.84,-70"/>
<text text-anchor="middle" x="247.34" y="-59.6" font-family="Helvetica,sans-Serif" font-size="8.00">dfs.hpp</text>
</a>
</g>
</g>
<!-- Node1&#45;&gt;Node6 -->
<g id="edge8_Node000001_Node000006" class="edge">
<title>Node1&#45;&gt;Node6</title>
<g id="a_edge8_Node000001_Node000006"><a xlink:title=" ">
<path fill="none" stroke="#63b8ff" d="M366.73,-152.48C337.18,-130.21 280.5,-87.49 257.46,-70.12"/>
<polygon fill="#63b8ff" stroke="#63b8ff" points="364.87,-155.46 374.96,-158.68 369.09,-149.87 364.87,-155.46"/>
</a>
</g>
</g>
<!-- Node7 -->
<g id="Node000007" class="node">
<title>Node7</title>
<g id="a_Node000007"><a xlink:href="../../da/dc2/floodfill_8hpp_source.html" target="_top" xlink:title=" ">
<polygon fill="white" stroke="#666666" points="343.34,-70 287.34,-70 287.34,-53 343.34,-53 343.34,-70"/>
<text text-anchor="middle" x="315.34" y="-59.6" font-family="Helvetica,sans-Serif" font-size="8.00">floodfill.hpp</text>
</a>
</g>
</g>
<!-- Node1&#45;&gt;Node7 -->
<g id="edge10_Node000001_Node000007" class="edge">
<title>Node1&#45;&gt;Node7</title>
<g id="a_edge10_Node000001_Node000007"><a xlink:title=" ">
<path fill="none" stroke="#63b8ff" d="M374.3,-150.1C358.95,-127.29 331.76,-86.89 320.47,-70.12"/>
<polygon fill="#63b8ff" stroke="#63b8ff" points="371.59,-152.34 380.08,-158.68 377.4,-148.43 371.59,-152.34"/>
</a>
</g>
</g>
<!-- Node8 -->
<g id="Node000008" class="node">
<title>Node8</title>
<g id="a_Node000008"><a xlink:href="../../d1/d5a/fstar_8hpp_source.html" target="_top" xlink:title=" ">
<polygon fill="white" stroke="#666666" points="408.84,-70 361.84,-70 361.84,-53 408.84,-53 408.84,-70"/>
<text text-anchor="middle" x="385.34" y="-59.6" font-family="Helvetica,sans-Serif" font-size="8.00">fstar.hpp</text>
</a>
</g>
</g>
<!-- Node1&#45;&gt;Node8 -->
<g id="edge12_Node000001_Node000008" class="edge">
<title>Node1&#45;&gt;Node8</title>
<g id="a_edge12_Node000001_Node000008"><a xlink:title=" ">
<path fill="none" stroke="#63b8ff" d="M385.34,-148.55C385.34,-125.5 385.34,-86.52 385.34,-70.12"/>
<polygon fill="#63b8ff" stroke="#63b8ff" points="381.84,-148.68 385.34,-158.68 388.84,-148.68 381.84,-148.68"/>
</a>
</g>
</g>
<!-- Node9 -->
<g id="Node000009" class="node">
<title>Node9</title>
<g id="a_Node000009"><a xlink:href="../../de/d94/gbfs_8hpp_source.html" target="_top" xlink:title=" ">
<polygon fill="white" stroke="#666666" points="473.84,-70 426.84,-70 426.84,-53 473.84,-53 473.84,-70"/>
<text text-anchor="middle" x="450.34" y="-59.6" font-family="Helvetica,sans-Serif" font-size="8.00">gbfs.hpp</text>
</a>
</g>
</g>
<!-- Node1&#45;&gt;Node9 -->
<g id="edge14_Node000001_Node000009" class="edge">
<title>Node1&#45;&gt;Node9</title>
<g id="a_edge14_Node000001_Node000009"><a xlink:title=" ">
<path fill="none" stroke="#63b8ff" d="M395.59,-150.1C409.84,-127.29 435.09,-86.89 445.57,-70.12"/>
<polygon fill="#63b8ff" stroke="#63b8ff" points="392.55,-148.35 390.22,-158.68 398.49,-152.06 392.55,-148.35"/>
</a>
</g>
</g>
<!-- Node10 -->
<g id="Node000010" class="node">
<title>Node10</title>
<g id="a_Node000010"><a xlink:href="../../d4/df2/gdfs_8hpp_source.html" target="_top" xlink:title=" ">
<polygon fill="white" stroke="#666666" points="538.84,-70 491.84,-70 491.84,-53 538.84,-53 538.84,-70"/>
<text text-anchor="middle" x="515.34" y="-59.6" font-family="Helvetica,sans-Serif" font-size="8.00">gdfs.hpp</text>
</a>
</g>
</g>
<!-- Node1&#45;&gt;Node10 -->
<g id="edge16_Node000001_Node000010" class="edge">
<title>Node1&#45;&gt;Node10</title>
<g id="a_edge16_Node000001_Node000010"><a xlink:title=" ">
<path fill="none" stroke="#63b8ff" d="M403.23,-152.19C431.16,-129.84 484.19,-87.42 505.81,-70.12"/>
<polygon fill="#63b8ff" stroke="#63b8ff" points="400.73,-149.7 395.11,-158.68 405.1,-155.17 400.73,-149.7"/>
</a>
</g>
</g>
<!-- Node11 -->
<g id="Node000011" class="node">
<title>Node11</title>
<g id="a_Node000011"><a xlink:href="../../d3/d3e/gjps_8hpp_source.html" target="_top" xlink:title=" ">
<polygon fill="white" stroke="#666666" points="603.84,-70 556.84,-70 556.84,-53 603.84,-53 603.84,-70"/>
<text text-anchor="middle" x="580.34" y="-59.6" font-family="Helvetica,sans-Serif" font-size="8.00">gjps.hpp</text>
</a>
</g>
</g>
<!-- Node1&#45;&gt;Node11 -->
<g id="edge18_Node000001_Node000011" class="edge">
<title>Node1&#45;&gt;Node11</title>
<g id="a_edge18_Node000001_Node000011"><a xlink:title=" ">
<path fill="none" stroke="#63b8ff" d="M408.64,-154.07C449.53,-132.26 533.02,-87.74 566.24,-70.02"/>
<polygon fill="#63b8ff" stroke="#63b8ff" points="406.85,-151.06 399.68,-158.85 410.15,-157.23 406.85,-151.06"/>
</a>
</g>
</g>
<!-- Node12 -->
<g id="Node000012" class="node">
<title>Node12</title>
<g id="a_Node000012"><a xlink:href="../../d1/def/gstar_8hpp_source.html" target="_top" xlink:title=" ">
<polygon fill="white" stroke="#666666" points="1229.34,-70 1179.34,-70 1179.34,-53 1229.34,-53 1229.34,-70"/>
<text text-anchor="middle" x="1204.34" y="-59.6" font-family="Helvetica,sans-Serif" font-size="8.00">gstar.hpp</text>
</a>
</g>
</g>
<!-- Node1&#45;&gt;Node12 -->
<g id="edge20_Node000001_Node000012" class="edge">
<title>Node1&#45;&gt;Node12</title>
<g id="a_edge20_Node000001_Node000012"><a xlink:title=" ">
<path fill="none" stroke="#63b8ff" d="M435.59,-161.99C560.44,-150.42 894.56,-117.26 1170.34,-70 1173.2,-69.51 1176.18,-68.94 1179.14,-68.34"/>
<polygon fill="#63b8ff" stroke="#63b8ff" points="435.2,-158.51 425.56,-162.91 435.84,-165.48 435.2,-158.51"/>
</a>
</g>
</g>
<!-- Node13 -->
<g id="Node000013" class="node">
<title>Node13</title>
<g id="a_Node000013"><a xlink:href="../../d9/de6/jps_8hpp_source.html" target="_top" xlink:title=" ">
<polygon fill="white" stroke="#666666" points="1289.34,-70 1247.34,-70 1247.34,-53 1289.34,-53 1289.34,-70"/>
<text text-anchor="middle" x="1268.34" y="-59.6" font-family="Helvetica,sans-Serif" font-size="8.00">jps.hpp</text>
</a>
</g>
</g>
<!-- Node1&#45;&gt;Node13 -->
<g id="edge22_Node000001_Node000013" class="edge">
<title>Node1&#45;&gt;Node13</title>
<g id="a_edge22_Node000001_Node000013"><a xlink:title=" ">
<path fill="none" stroke="#63b8ff" d="M435.92,-163.68C568.61,-155.66 937.23,-129.34 1238.34,-70 1241.18,-69.44 1244.16,-68.78 1247.09,-68.09"/>
<polygon fill="#63b8ff" stroke="#63b8ff" points="435.44,-160.2 425.67,-164.29 435.86,-167.19 435.44,-160.2"/>
</a>
</g>
</g>
<!-- Node14 -->
<g id="Node000014" class="node">
<title>Node14</title>
<g id="a_Node000014"><a xlink:href="../../d2/d1c/solver_8hpp.html" target="_top" xlink:title=" ">
<polygon fill="white" stroke="#666666" points="617.84,-123 564.84,-123 564.84,-106 617.84,-106 617.84,-123"/>
<text text-anchor="middle" x="591.34" y="-112.6" font-family="Helvetica,sans-Serif" font-size="8.00">solver.hpp</text>
</a>
</g>
</g>
<!-- Node1&#45;&gt;Node14 -->
<g id="edge24_Node000001_Node000014" class="edge">
<title>Node1&#45;&gt;Node14</title>
<g id="a_edge24_Node000001_Node000014"><a xlink:title=" ">
<path fill="none" stroke="#63b8ff" d="M425.7,-156.51C466.84,-146.32 529.46,-130.82 564.75,-122.08"/>
<polygon fill="#63b8ff" stroke="#63b8ff" points="424.6,-153.17 415.73,-158.97 426.28,-159.97 424.6,-153.17"/>
</a>
</g>
</g>
<!-- Node2&#45;&gt;Node3 -->
<g id="edge2_Node000002_Node000003" class="edge">
<title>Node2&#45;&gt;Node3</title>
<g id="a_edge2_Node000002_Node000003"><a xlink:title=" ">
<path fill="none" stroke="#63b8ff" d="M87.62,-53.04C287.64,-23.47 517.62,-13.05 590.79,-10.31"/>
<polygon fill="#63b8ff" stroke="#63b8ff" points="86.89,-49.61 77.52,-54.55 87.93,-56.53 86.89,-49.61"/>
</a>
</g>
</g>
<!-- Node4&#45;&gt;Node3 -->
<g id="edge4_Node000004_Node000003" class="edge">
<title>Node4&#45;&gt;Node3</title>
<g id="a_edge4_Node000004_Node000003"><a xlink:title=" ">
<path fill="none" stroke="#63b8ff" d="M148.83,-53.21C323.81,-24.58 522.7,-13.64 590.42,-10.51"/>
<polygon fill="#63b8ff" stroke="#63b8ff" points="148.23,-49.76 138.94,-54.85 149.37,-56.67 148.23,-49.76"/>
</a>
</g>
</g>
<!-- Node5&#45;&gt;Node3 -->
<g id="edge6_Node000005_Node000003" class="edge">
<title>Node5&#45;&gt;Node3</title>
<g id="a_edge6_Node000005_Node000003"><a xlink:title=" ">
<path fill="none" stroke="#63b8ff" d="M217.65,-52.97C364.92,-29.2 529.8,-15.72 590.44,-11.2"/>
<polygon fill="#63b8ff" stroke="#63b8ff" points="216.83,-49.56 207.53,-54.62 217.96,-56.47 216.83,-49.56"/>
</a>
</g>
</g>
<!-- Node6&#45;&gt;Node3 -->
<g id="edge9_Node000006_Node000003" class="edge">
<title>Node6&#45;&gt;Node3</title>
<g id="a_edge9_Node000006_Node000003"><a xlink:title=" ">
<path fill="none" stroke="#63b8ff" d="M278.92,-53.11C401.96,-30.72 536.88,-16.8 590.57,-11.68"/>
<polygon fill="#63b8ff" stroke="#63b8ff" points="278.15,-49.7 268.95,-54.95 279.42,-56.58 278.15,-49.7"/>
</a>
</g>
</g>
<!-- Node7&#45;&gt;Node3 -->
<g id="edge11_Node000007_Node000003" class="edge">
<title>Node7&#45;&gt;Node3</title>
<g id="a_edge11_Node000007_Node000003"><a xlink:title=" ">
<path fill="none" stroke="#63b8ff" d="M353.52,-52.84C447.17,-35.71 546.44,-20.01 590.8,-13.12"/>
<polygon fill="#63b8ff" stroke="#63b8ff" points="352.8,-49.41 343.6,-54.66 354.07,-56.3 352.8,-49.41"/>
</a>
</g>
</g>
<!-- Node8&#45;&gt;Node3 -->
<g id="edge13_Node000008_Node000003" class="edge">
<title>Node8&#45;&gt;Node3</title>
<g id="a_edge13_Node000008_Node000003"><a xlink:title=" ">
<path fill="none" stroke="#63b8ff" d="M419.06,-52.63C486.67,-37.28 555.38,-22.28 590.66,-14.62"/>
<polygon fill="#63b8ff" stroke="#63b8ff" points="418.07,-49.27 409.1,-54.9 419.62,-56.09 418.07,-49.27"/>
</a>
</g>
</g>
<!-- Node9&#45;&gt;Node3 -->
<g id="edge15_Node000009_Node000003" class="edge">
<title>Node9&#45;&gt;Node3</title>
<g id="a_edge15_Node000009_Node000003"><a xlink:title=" ">
<path fill="none" stroke="#63b8ff" d="M483.94,-50.05C515.75,-40.16 562.7,-25.56 590.73,-16.84"/>
<polygon fill="#63b8ff" stroke="#63b8ff" points="482.69,-46.77 474.18,-53.08 484.77,-53.46 482.69,-46.77"/>
</a>
</g>
</g>
<!-- Node10&#45;&gt;Node3 -->
<g id="edge17_Node000010_Node000003" class="edge">
<title>Node10&#45;&gt;Node3</title>
<g id="a_edge17_Node000010_Node000003"><a xlink:title=" ">
<path fill="none" stroke="#63b8ff" d="M539.09,-48.27C557.94,-38.55 583.71,-25.28 599.67,-17.06"/>
<polygon fill="#63b8ff" stroke="#63b8ff" points="537.23,-45.28 529.95,-52.97 540.44,-51.51 537.23,-45.28"/>
</a>
</g>
</g>
<!-- Node11&#45;&gt;Node3 -->
<g id="edge19_Node000011_Node000003" class="edge">
<title>Node11&#45;&gt;Node3</title>
<g id="a_edge19_Node000011_Node000003"><a xlink:title=" ">
<path fill="none" stroke="#63b8ff" d="M590.9,-44.65C597.03,-35.46 604.47,-24.3 609.3,-17.06"/>
<polygon fill="#63b8ff" stroke="#63b8ff" points="587.99,-42.71 585.35,-52.97 593.81,-46.6 587.99,-42.71"/>
</a>
</g>
</g>
<!-- Node12&#45;&gt;Node3 -->
<g id="edge21_Node000012_Node000003" class="edge">
<title>Node12&#45;&gt;Node3</title>
<g id="a_edge21_Node000012_Node000003"><a xlink:title=" ">
<path fill="none" stroke="#63b8ff" d="M1169.12,-53.05C957.84,-22.26 713.94,-12.59 638.04,-10.18"/>
<polygon fill="#63b8ff" stroke="#63b8ff" points="1168.75,-56.54 1179.16,-54.54 1169.78,-49.61 1168.75,-56.54"/>
</a>
</g>
</g>
<!-- Node13&#45;&gt;Node3 -->
<g id="edge23_Node000013_Node000003" class="edge">
<title>Node13&#45;&gt;Node3</title>
<g id="a_edge23_Node000013_Node000003"><a xlink:title=" ">
<path fill="none" stroke="#63b8ff" d="M1237.23,-53.15C998.63,-16.06 719.91,-10.52 638.02,-9.66"/>
<polygon fill="#63b8ff" stroke="#63b8ff" points="1236.7,-56.61 1247.13,-54.71 1237.79,-49.69 1236.7,-56.61"/>
</a>
</g>
</g>
<!-- Node14&#45;&gt;Node2 -->
<g id="edge25_Node000014_Node000002" class="edge">
<title>Node14&#45;&gt;Node2</title>
<g id="a_edge25_Node000014_Node000002"><a xlink:title=" ">
<path fill="none" stroke="#63b8ff" d="M554.63,-111.99C471.08,-108.19 260.48,-96.59 86.34,-70 83.47,-69.56 80.48,-69.02 77.52,-68.44"/>
<polygon fill="#63b8ff" stroke="#63b8ff" points="554.49,-115.49 564.64,-112.44 554.8,-108.49 554.49,-115.49"/>
</a>
</g>
</g>
<!-- Node14&#45;&gt;Node3 -->
<g id="edge28_Node000014_Node000003" class="edge">
<title>Node14&#45;&gt;Node3</title>
<g id="a_edge28_Node000014_Node000003"><a xlink:title=" ">
<path fill="none" stroke="#63b8ff" d="M628.59,-114.04C702.74,-114.22 864.65,-109.93 899.34,-70 904.29,-64.3 904.26,-58.73 899.34,-53 865.58,-13.7 700.08,-9.52 637.95,-9.35"/>
<polygon fill="#63b8ff" stroke="#63b8ff" points="628.34,-110.53 618.32,-113.98 628.3,-117.53 628.34,-110.53"/>
</a>
</g>
</g>
<!-- Node14&#45;&gt;Node4 -->
<g id="edge26_Node000014_Node000004" class="edge">
<title>Node14&#45;&gt;Node4</title>
<g id="a_edge26_Node000014_Node000004"><a xlink:title=" ">
<path fill="none" stroke="#63b8ff" d="M554.66,-111.63C478.52,-107.38 297.89,-95.31 148.34,-70 145.28,-69.48 142.08,-68.83 138.94,-68.13"/>
<polygon fill="#63b8ff" stroke="#63b8ff" points="554.53,-115.13 564.7,-112.18 554.91,-108.14 554.53,-115.13"/>
</a>
</g>
</g>
<!-- Node14&#45;&gt;Node5 -->
<g id="edge27_Node000014_Node000005" class="edge">
<title>Node14&#45;&gt;Node5</title>
<g id="a_edge27_Node000014_Node000005"><a xlink:title=" ">
<path fill="none" stroke="#63b8ff" d="M554.24,-110.46C486.72,-104.64 339.35,-90.65 216.34,-70 213.48,-69.52 210.49,-68.96 207.53,-68.36"/>
<polygon fill="#63b8ff" stroke="#63b8ff" points="554.12,-113.96 564.38,-111.32 554.71,-106.98 554.12,-113.96"/>
</a>
</g>
</g>
<!-- Node14&#45;&gt;Node6 -->
<g id="edge29_Node000014_Node000006" class="edge">
<title>Node14&#45;&gt;Node6</title>
<g id="a_edge29_Node000014_Node000006"><a xlink:title=" ">
<path fill="none" stroke="#63b8ff" d="M554.57,-109.59C495.88,-103.08 377.53,-88.84 278.34,-70 275.29,-69.42 272.09,-68.74 268.96,-68.02"/>
<polygon fill="#63b8ff" stroke="#63b8ff" points="554.49,-113.1 564.81,-110.71 555.25,-106.14 554.49,-113.1"/>
</a>
</g>
</g>
<!-- Node14&#45;&gt;Node7 -->
<g id="edge38_Node000014_Node000007" class="edge">
<title>Node14&#45;&gt;Node7</title>
<g id="a_edge38_Node000014_Node000007"><a xlink:title=" ">
<path fill="none" stroke="#63b8ff" d="M554.79,-107.08C507.87,-98.79 423.95,-83.77 352.34,-70 349.51,-69.46 346.55,-68.88 343.61,-68.29"/>
<polygon fill="#63b8ff" stroke="#63b8ff" points="554.32,-110.55 564.78,-108.84 555.54,-103.66 554.32,-110.55"/>
</a>
</g>
</g>
<!-- Node14&#45;&gt;Node8 -->
<g id="edge39_Node000014_Node000008" class="edge">
<title>Node14&#45;&gt;Node8</title>
<g id="a_edge39_Node000014_Node000008"><a xlink:title=" ">
<path fill="none" stroke="#63b8ff" d="M554.97,-104.5C512.83,-94.06 444.61,-77.17 408.88,-68.33"/>
<polygon fill="#63b8ff" stroke="#63b8ff" points="554.28,-107.93 564.83,-106.94 555.96,-101.14 554.28,-107.93"/>
</a>
</g>
</g>
<!-- Node14&#45;&gt;Node9 -->
<g id="edge40_Node000014_Node000009" class="edge">
<title>Node14&#45;&gt;Node9</title>
<g id="a_edge40_Node000014_Node000009"><a xlink:title=" ">
<path fill="none" stroke="#63b8ff" d="M560.79,-102.45C533.71,-92.66 494.9,-78.62 471.23,-70.06"/>
<polygon fill="#63b8ff" stroke="#63b8ff" points="559.94,-105.86 570.53,-105.97 562.32,-99.28 559.94,-105.86"/>
</a>
</g>
</g>
<!-- Node14&#45;&gt;Node10 -->
<g id="edge41_Node000014_Node000010" class="edge">
<title>Node14&#45;&gt;Node10</title>
<g id="a_edge41_Node000014_Node000010"><a xlink:title=" ">
<path fill="none" stroke="#63b8ff" d="M571.49,-100.18C557.19,-90.58 538.4,-77.98 526.6,-70.06"/>
<polygon fill="#63b8ff" stroke="#63b8ff" points="569.87,-103.31 580.12,-105.97 573.77,-97.5 569.87,-103.31"/>
</a>
</g>
</g>
<!-- Node14&#45;&gt;Node11 -->
<g id="edge42_Node000014_Node000011" class="edge">
<title>Node14&#45;&gt;Node11</title>
<g id="a_edge42_Node000014_Node000011"><a xlink:title=" ">
<path fill="none" stroke="#63b8ff" d="M587.54,-95.91C585.64,-87.08 583.43,-76.85 581.97,-70.06"/>
<polygon fill="#63b8ff" stroke="#63b8ff" points="584.18,-96.94 589.71,-105.97 591.03,-95.46 584.18,-96.94"/>
</a>
</g>
</g>
<!-- Node14&#45;&gt;Node12 -->
<g id="edge43_Node000014_Node000012" class="edge">
<title>Node14&#45;&gt;Node12</title>
<g id="a_edge43_Node000014_Node000012"><a xlink:title=" ">
<path fill="none" stroke="#63b8ff" d="M628.22,-112.55C720.19,-109.77 966.96,-99.92 1170.34,-70 1173.21,-69.58 1176.2,-69.05 1179.16,-68.47"/>
<polygon fill="#63b8ff" stroke="#63b8ff" points="627.93,-109.05 618.03,-112.84 628.13,-116.05 627.93,-109.05"/>
</a>
</g>
</g>
<!-- Node14&#45;&gt;Node13 -->
<g id="edge50_Node000014_Node000013" class="edge">
<title>Node14&#45;&gt;Node13</title>
<g id="a_edge50_Node000014_Node000013"><a xlink:title=" ">
<path fill="none" stroke="#63b8ff" d="M628.13,-113.31C727.3,-112.3 1008.17,-106.21 1238.34,-70 1241.2,-69.55 1244.19,-68.96 1247.13,-68.3"/>
<polygon fill="#63b8ff" stroke="#63b8ff" points="627.99,-109.81 618.03,-113.4 628.06,-116.81 627.99,-109.81"/>
</a>
</g>
</g>
<!-- Node15 -->
<g id="Node000015" class="node">
<title>Node15</title>
<g id="a_Node000015"><a xlink:href="../../d3/d11/dijkstra_8hpp_source.html" target="_top" xlink:title=" ">
<polygon fill="white" stroke="#666666" points="1004.84,-70 947.84,-70 947.84,-53 1004.84,-53 1004.84,-70"/>
<text text-anchor="middle" x="976.34" y="-59.6" font-family="Helvetica,sans-Serif" font-size="8.00">dijkstra.hpp</text>
</a>
</g>
</g>
<!-- Node14&#45;&gt;Node15 -->
<g id="edge30_Node000014_Node000015" class="edge">
<title>Node14&#45;&gt;Node15</title>
<g id="a_edge30_Node000014_Node000015"><a xlink:title=" ">
<path fill="none" stroke="#63b8ff" d="M628.19,-109.38C690.95,-102.23 822.56,-86.7 933.34,-70 937.98,-69.3 942.9,-68.5 947.69,-67.69"/>
<polygon fill="#63b8ff" stroke="#63b8ff" points="627.54,-105.93 618,-110.53 628.33,-112.88 627.54,-105.93"/>
</a>
</g>
</g>
<!-- Node16 -->
<g id="Node000016" class="node">
<title>Node16</title>
<g id="a_Node000016"><a xlink:href="../../d6/ded/eidastar_8hpp_source.html" target="_top" xlink:title=" ">
<polygon fill="white" stroke="#666666" points="1083.34,-70 1023.34,-70 1023.34,-53 1083.34,-53 1083.34,-70"/>
<text text-anchor="middle" x="1053.34" y="-59.6" font-family="Helvetica,sans-Serif" font-size="8.00">eidastar.hpp</text>
</a>
</g>
</g>
<!-- Node14&#45;&gt;Node16 -->
<g id="edge32_Node000014_Node000016" class="edge">
<title>Node14&#45;&gt;Node16</title>
<g id="a_edge32_Node000014_Node000016"><a xlink:title=" ">
<path fill="none" stroke="#63b8ff" d="M628.22,-110.73C701.73,-104.98 871.61,-90.56 1013.34,-70 1016.55,-69.53 1019.91,-68.99 1023.24,-68.42"/>
<polygon fill="#63b8ff" stroke="#63b8ff" points="627.79,-107.25 618.09,-111.51 628.33,-114.23 627.79,-107.25"/>
</a>
</g>
</g>
<!-- Node17 -->
<g id="Node000017" class="node">
<title>Node17</title>
<g id="a_Node000017"><a xlink:href="../../dd/d67/eidbstar_8hpp_source.html" target="_top" xlink:title=" ">
<polygon fill="white" stroke="#666666" points="1161.34,-70 1101.34,-70 1101.34,-53 1161.34,-53 1161.34,-70"/>
<text text-anchor="middle" x="1131.34" y="-59.6" font-family="Helvetica,sans-Serif" font-size="8.00">eidbstar.hpp</text>
</a>
</g>
</g>
<!-- Node14&#45;&gt;Node17 -->
<g id="edge34_Node000014_Node000017" class="edge">
<title>Node14&#45;&gt;Node17</title>
<g id="a_edge34_Node000014_Node000017"><a xlink:title=" ">
<path fill="none" stroke="#63b8ff" d="M628.26,-111.6C711.42,-107.05 919.61,-94.04 1092.34,-70 1095.21,-69.6 1098.18,-69.13 1101.15,-68.62"/>
<polygon fill="#63b8ff" stroke="#63b8ff" points="627.86,-108.12 618.06,-112.15 628.23,-115.11 627.86,-108.12"/>
</a>
</g>
</g>
<!-- Node18 -->
<g id="Node000018" class="node">
<title>Node18</title>
<g id="a_Node000018"><a xlink:href="../../dd/d95/eiddfs_8hpp_source.html" target="_top" xlink:title=" ">
<polygon fill="white" stroke="#666666" points="674.84,-70 621.84,-70 621.84,-53 674.84,-53 674.84,-70"/>
<text text-anchor="middle" x="648.34" y="-59.6" font-family="Helvetica,sans-Serif" font-size="8.00">eiddfs.hpp</text>
</a>
</g>
</g>
<!-- Node14&#45;&gt;Node18 -->
<g id="edge36_Node000014_Node000018" class="edge">
<title>Node14&#45;&gt;Node18</title>
<g id="a_edge36_Node000014_Node000018"><a xlink:title=" ">
<path fill="none" stroke="#63b8ff" d="M607.46,-99.07C618.01,-89.63 631.38,-77.68 639.89,-70.06"/>
<polygon fill="#63b8ff" stroke="#63b8ff" points="604.87,-96.7 599.75,-105.97 609.53,-101.92 604.87,-96.7"/>
</a>
</g>
</g>
<!-- Node19 -->
<g id="Node000019" class="node">
<title>Node19</title>
<g id="a_Node000019"><a xlink:href="../../db/df9/idastar_8hpp_source.html" target="_top" xlink:title=" ">
<polygon fill="white" stroke="#666666" points="749.34,-70 693.34,-70 693.34,-53 749.34,-53 749.34,-70"/>
<text text-anchor="middle" x="721.34" y="-59.6" font-family="Helvetica,sans-Serif" font-size="8.00">idastar.hpp</text>
</a>
</g>
</g>
<!-- Node14&#45;&gt;Node19 -->
<g id="edge44_Node000014_Node000019" class="edge">
<title>Node14&#45;&gt;Node19</title>
<g id="a_edge44_Node000014_Node000019"><a xlink:title=" ">
<path fill="none" stroke="#63b8ff" d="M619.84,-102.32C644.78,-92.53 680.34,-78.58 702.08,-70.06"/>
<polygon fill="#63b8ff" stroke="#63b8ff" points="618.55,-99.06 610.52,-105.97 621.11,-105.58 618.55,-99.06"/>
</a>
</g>
</g>
<!-- Node20 -->
<g id="Node000020" class="node">
<title>Node20</title>
<g id="a_Node000020"><a xlink:href="../../d1/d24/idbstar_8hpp_source.html" target="_top" xlink:title=" ">
<polygon fill="white" stroke="#666666" points="823.34,-70 767.34,-70 767.34,-53 823.34,-53 823.34,-70"/>
<text text-anchor="middle" x="795.34" y="-59.6" font-family="Helvetica,sans-Serif" font-size="8.00">idbstar.hpp</text>
</a>
</g>
</g>
<!-- Node14&#45;&gt;Node20 -->
<g id="edge46_Node000014_Node000020" class="edge">
<title>Node14&#45;&gt;Node20</title>
<g id="a_edge46_Node000014_Node000020"><a xlink:title=" ">
<path fill="none" stroke="#63b8ff" d="M627.86,-104.37C667.73,-94.4 730.73,-78.65 767.02,-69.58"/>
<polygon fill="#63b8ff" stroke="#63b8ff" points="626.86,-101.01 618.01,-106.83 628.56,-107.8 626.86,-101.01"/>
</a>
</g>
</g>
<!-- Node21 -->
<g id="Node000021" class="node">
<title>Node21</title>
<g id="a_Node000021"><a xlink:href="../../df/d71/iddfs_8hpp_source.html" target="_top" xlink:title=" ">
<polygon fill="white" stroke="#666666" points="890.84,-70 841.84,-70 841.84,-53 890.84,-53 890.84,-70"/>
<text text-anchor="middle" x="866.34" y="-59.6" font-family="Helvetica,sans-Serif" font-size="8.00">iddfs.hpp</text>
</a>
</g>
</g>
<!-- Node14&#45;&gt;Node21 -->
<g id="edge48_Node000014_Node000021" class="edge">
<title>Node14&#45;&gt;Node21</title>
<g id="a_edge48_Node000014_Node000021"><a xlink:title=" ">
<path fill="none" stroke="#63b8ff" d="M628.23,-107.3C675.59,-99.23 760.25,-84.45 832.34,-70 835.3,-69.41 838.4,-68.76 841.48,-68.1"/>
<polygon fill="#63b8ff" stroke="#63b8ff" points="627.42,-103.88 618.15,-109.01 628.59,-110.78 627.42,-103.88"/>
</a>
</g>
</g>
<!-- Node15&#45;&gt;Node3 -->
<g id="edge31_Node000015_Node000003" class="edge">
<title>Node15&#45;&gt;Node3</title>
<g id="a_edge31_Node000015_Node000003"><a xlink:title=" ">
<path fill="none" stroke="#63b8ff" d="M937.76,-53.7C936.27,-53.46 934.79,-53.23 933.34,-53 823.15,-35.88 690.97,-19.03 637.99,-12.42"/>
<polygon fill="#63b8ff" stroke="#63b8ff" points="937.24,-57.16 947.68,-55.35 938.39,-50.26 937.24,-57.16"/>
</a>
</g>
</g>
<!-- Node16&#45;&gt;Node3 -->
<g id="edge33_Node000016_Node000003" class="edge">
<title>Node16&#45;&gt;Node3</title>
<g id="a_edge33_Node000016_Node000003"><a xlink:title=" ">
<path fill="none" stroke="#63b8ff" d="M1013.64,-53.04C1013.54,-53.03 1013.44,-53.01 1013.34,-53 871.69,-32.03 700.34,-16.7 638.25,-11.46"/>
<polygon fill="#63b8ff" stroke="#63b8ff" points="1012.81,-56.46 1023.24,-54.6 1013.93,-49.55 1012.81,-56.46"/>
</a>
</g>
</g>
<!-- Node17&#45;&gt;Node3 -->
<g id="edge35_Node000017_Node000003" class="edge">
<title>Node17&#45;&gt;Node3</title>
<g id="a_edge35_Node000017_Node000003"><a xlink:title=" ">
<path fill="none" stroke="#63b8ff" d="M1090.99,-52.96C911.3,-28.02 707.12,-14.85 638.31,-10.84"/>
<polygon fill="#63b8ff" stroke="#63b8ff" points="1090.76,-56.46 1101.15,-54.39 1091.74,-49.53 1090.76,-56.46"/>
</a>
</g>
</g>
<!-- Node18&#45;&gt;Node3 -->
<g id="edge37_Node000018_Node000003" class="edge">
<title>Node18&#45;&gt;Node3</title>
<g id="a_edge37_Node000018_Node000003"><a xlink:title=" ">
<path fill="none" stroke="#63b8ff" d="M637.77,-44.65C631.64,-35.46 624.2,-24.3 619.37,-17.06"/>
<polygon fill="#63b8ff" stroke="#63b8ff" points="634.86,-46.6 643.32,-52.97 640.69,-42.71 634.86,-46.6"/>
</a>
</g>
</g>
<!-- Node19&#45;&gt;Node3 -->
<g id="edge45_Node000019_Node000003" class="edge">
<title>Node19&#45;&gt;Node3</title>
<g id="a_edge45_Node000019_Node000003"><a xlink:title=" ">
<path fill="none" stroke="#63b8ff" d="M696.51,-48.66C676.06,-38.92 647.68,-25.39 630.19,-17.06"/>
<polygon fill="#63b8ff" stroke="#63b8ff" points="695.02,-51.83 705.55,-52.97 698.03,-45.51 695.02,-51.83"/>
</a>
</g>
</g>
<!-- Node20&#45;&gt;Node3 -->
<g id="edge47_Node000020_Node000003" class="edge">
<title>Node20&#45;&gt;Node3</title>
<g id="a_edge47_Node000020_Node000003"><a xlink:title=" ">
<path fill="none" stroke="#63b8ff" d="M758.98,-50.26C722.94,-40.1 668.78,-24.84 637.98,-16.16"/>
<polygon fill="#63b8ff" stroke="#63b8ff" points="758.06,-53.63 768.63,-52.97 759.95,-46.89 758.06,-53.63"/>
</a>
</g>
</g>
<!-- Node21&#45;&gt;Node3 -->
<g id="edge49_Node000021_Node000003" class="edge">
<title>Node21&#45;&gt;Node3</title>
<g id="a_edge49_Node000021_Node000003"><a xlink:title=" ">
<path fill="none" stroke="#63b8ff" d="M831.96,-52.96C754.91,-36.84 676.3,-21.47 637.92,-14.04"/>
<polygon fill="#63b8ff" stroke="#63b8ff" points="831.33,-56.4 841.84,-55.03 832.77,-49.55 831.33,-56.4"/>
</a>
</g>
</g>
</g>
</svg>
