<?xml version="1.0" encoding="UTF-8" standalone="no"?>
<!DOCTYPE svg PUBLIC "-//W3C//DTD SVG 1.1//EN"
 "http://www.w3.org/Graphics/SVG/1.1/DTD/svg11.dtd">
<!-- Generated by graphviz version 2.43.0 (0)
 -->
<!-- Title: existence_set.hpp Pages: 1 -->
<svg width="759pt" height="131pt"
 viewBox="0.00 0.00 759.00 131.00" xmlns="http://www.w3.org/2000/svg" xmlns:xlink="http://www.w3.org/1999/xlink">
<g id="graph0" class="graph" transform="scale(1 1) rotate(0) translate(4 127)">
<title>existence_set.hpp</title>
<!-- Node1 -->
<g id="Node000001" class="node">
<title>Node1</title>
<g id="a_Node000001"><a xlink:title=" ">
<polygon fill="#999999" stroke="#666666" points="410,-123 330,-123 330,-106 410,-106 410,-123"/>
<text text-anchor="middle" x="370" y="-112.6" font-family="Helvetica,sans-Serif" font-size="8.00">existence_set.hpp</text>
</a>
</g>
</g>
<!-- Node2 -->
<g id="Node000002" class="node">
<title>Node2</title>
<g id="a_Node000002"><a xlink:href="../../dc/da9/astar_8hpp.html" target="_top" xlink:title=" ">
<polygon fill="white" stroke="#666666" points="50,-70 0,-70 0,-53 50,-53 50,-70"/>
<text text-anchor="middle" x="25" y="-59.6" font-family="Helvetica,sans-Serif" font-size="8.00">astar.hpp</text>
</a>
</g>
</g>
<!-- Node1&#45;&gt;Node2 -->
<g id="edge1_Node000001_Node000002" class="edge">
<title>Node1&#45;&gt;Node2</title>
<g id="a_edge1_Node000001_Node000002"><a xlink:title=" ">
<path fill="none" stroke="#63b8ff" d="M319.72,-107.12C259,-99.23 153.81,-85.01 64,-70 59.51,-69.25 54.75,-68.39 50.14,-67.52"/>
<polygon fill="#63b8ff" stroke="#63b8ff" points="319.44,-110.61 329.81,-108.42 320.34,-103.67 319.44,-110.61"/>
</a>
</g>
</g>
<!-- Node3 -->
<g id="Node000003" class="node">
<title>Node3</title>
<g id="a_Node000003"><a xlink:href="../../d9/d96/chdr_8hpp.html" target="_top" xlink:title=" ">
<polygon fill="white" stroke="#666666" points="393.5,-17 346.5,-17 346.5,0 393.5,0 393.5,-17"/>
<text text-anchor="middle" x="370" y="-6.6" font-family="Helvetica,sans-Serif" font-size="8.00">chdr.hpp</text>
</a>
</g>
</g>
<!-- Node1&#45;&gt;Node3 -->
<g id="edge7_Node000001_Node000003" class="edge">
<title>Node1&#45;&gt;Node3</title>
<g id="a_edge7_Node000001_Node000003"><a xlink:title=" ">
<path fill="none" stroke="#63b8ff" d="M319.68,-112.97C248.81,-111.03 125.06,-102.88 97,-70 92.1,-64.25 92.1,-58.75 97,-53 129.09,-15.4 286.31,-10.14 346.5,-9.53"/>
<polygon fill="#63b8ff" stroke="#63b8ff" points="319.66,-116.47 329.74,-113.21 319.83,-109.47 319.66,-116.47"/>
</a>
</g>
</g>
<!-- Node4 -->
<g id="Node000004" class="node">
<title>Node4</title>
<g id="a_Node000004"><a xlink:href="../../d3/d77/best__first_8hpp.html" target="_top" xlink:title=" ">
<polygon fill="white" stroke="#666666" points="171.5,-70 106.5,-70 106.5,-53 171.5,-53 171.5,-70"/>
<text text-anchor="middle" x="139" y="-59.6" font-family="Helvetica,sans-Serif" font-size="8.00">best_first.hpp</text>
</a>
</g>
</g>
<!-- Node1&#45;&gt;Node4 -->
<g id="edge3_Node000001_Node000004" class="edge">
<title>Node1&#45;&gt;Node4</title>
<g id="a_edge3_Node000001_Node000004"><a xlink:title=" ">
<path fill="none" stroke="#63b8ff" d="M326.14,-103.82C281.14,-93.88 212.17,-78.66 171.73,-69.73"/>
<polygon fill="#63b8ff" stroke="#63b8ff" points="325.4,-107.24 335.92,-105.97 326.9,-100.4 325.4,-107.24"/>
</a>
</g>
</g>
<!-- Node5 -->
<g id="Node000005" class="node">
<title>Node5</title>
<g id="a_Node000005"><a xlink:href="../../da/d36/bfs_8hpp.html" target="_top" xlink:title=" ">
<polygon fill="white" stroke="#666666" points="232.5,-70 189.5,-70 189.5,-53 232.5,-53 232.5,-70"/>
<text text-anchor="middle" x="211" y="-59.6" font-family="Helvetica,sans-Serif" font-size="8.00">bfs.hpp</text>
</a>
</g>
</g>
<!-- Node1&#45;&gt;Node5 -->
<g id="edge5_Node000001_Node000005" class="edge">
<title>Node1&#45;&gt;Node5</title>
<g id="a_edge5_Node000001_Node000005"><a xlink:title=" ">
<path fill="none" stroke="#63b8ff" d="M336.92,-102.89C305.56,-92.83 259.37,-78.01 232.52,-69.4"/>
<polygon fill="#63b8ff" stroke="#63b8ff" points="335.95,-106.25 346.54,-105.97 338.09,-99.59 335.95,-106.25"/>
</a>
</g>
</g>
<!-- Node6 -->
<g id="Node000006" class="node">
<title>Node6</title>
<g id="a_Node000006"><a xlink:href="../../d3/dec/dfs_8hpp.html" target="_top" xlink:title=" ">
<polygon fill="white" stroke="#666666" points="293.5,-70 250.5,-70 250.5,-53 293.5,-53 293.5,-70"/>
<text text-anchor="middle" x="272" y="-59.6" font-family="Helvetica,sans-Serif" font-size="8.00">dfs.hpp</text>
</a>
</g>
</g>
<!-- Node1&#45;&gt;Node6 -->
<g id="edge8_Node000001_Node000006" class="edge">
<title>Node1&#45;&gt;Node6</title>
<g id="a_edge8_Node000001_Node000006"><a xlink:title=" ">
<path fill="none" stroke="#63b8ff" d="M346.49,-101.27C327.83,-91.55 302.32,-78.28 286.52,-70.06"/>
<polygon fill="#63b8ff" stroke="#63b8ff" points="345.05,-104.46 355.54,-105.97 348.28,-98.25 345.05,-104.46"/>
</a>
</g>
</g>
<!-- Node7 -->
<g id="Node000007" class="node">
<title>Node7</title>
<g id="a_Node000007"><a xlink:href="../../d8/d12/flood_8hpp.html" target="_top" xlink:title=" ">
<polygon fill="white" stroke="#666666" points="362,-70 312,-70 312,-53 362,-53 362,-70"/>
<text text-anchor="middle" x="337" y="-59.6" font-family="Helvetica,sans-Serif" font-size="8.00">flood.hpp</text>
</a>
</g>
</g>
<!-- Node1&#45;&gt;Node7 -->
<g id="edge10_Node000001_Node000007" class="edge">
<title>Node1&#45;&gt;Node7</title>
<g id="a_edge10_Node000001_Node000007"><a xlink:title=" ">
<path fill="none" stroke="#63b8ff" d="M359.56,-97.36C353.65,-88.23 346.53,-77.22 341.89,-70.06"/>
<polygon fill="#63b8ff" stroke="#63b8ff" points="356.76,-99.48 365.13,-105.97 362.64,-95.68 356.76,-99.48"/>
</a>
</g>
</g>
<!-- Node8 -->
<g id="Node000008" class="node">
<title>Node8</title>
<g id="a_Node000008"><a xlink:href="../../d1/d5a/fstar_8hpp.html" target="_top" xlink:title=" ">
<polygon fill="white" stroke="#666666" points="427.5,-70 380.5,-70 380.5,-53 427.5,-53 427.5,-70"/>
<text text-anchor="middle" x="404" y="-59.6" font-family="Helvetica,sans-Serif" font-size="8.00">fstar.hpp</text>
</a>
</g>
</g>
<!-- Node1&#45;&gt;Node8 -->
<g id="edge12_Node000001_Node000008" class="edge">
<title>Node1&#45;&gt;Node8</title>
<g id="a_edge12_Node000001_Node000008"><a xlink:title=" ">
<path fill="none" stroke="#63b8ff" d="M380.56,-97.65C386.69,-88.46 394.13,-77.3 398.96,-70.06"/>
<polygon fill="#63b8ff" stroke="#63b8ff" points="377.65,-95.71 375.02,-105.97 383.48,-99.6 377.65,-95.71"/>
</a>
</g>
</g>
<!-- Node9 -->
<g id="Node000009" class="node">
<title>Node9</title>
<g id="a_Node000009"><a xlink:href="../../de/d94/gbfs_8hpp.html" target="_top" xlink:title=" ">
<polygon fill="white" stroke="#666666" points="492.5,-70 445.5,-70 445.5,-53 492.5,-53 492.5,-70"/>
<text text-anchor="middle" x="469" y="-59.6" font-family="Helvetica,sans-Serif" font-size="8.00">gbfs.hpp</text>
</a>
</g>
</g>
<!-- Node1&#45;&gt;Node9 -->
<g id="edge14_Node000001_Node000009" class="edge">
<title>Node1&#45;&gt;Node9</title>
<g id="a_edge14_Node000001_Node000009"><a xlink:title=" ">
<path fill="none" stroke="#63b8ff" d="M393.75,-101.27C412.6,-91.55 438.37,-78.28 454.33,-70.06"/>
<polygon fill="#63b8ff" stroke="#63b8ff" points="391.89,-98.28 384.61,-105.97 395.1,-104.51 391.89,-98.28"/>
</a>
</g>
</g>
<!-- Node10 -->
<g id="Node000010" class="node">
<title>Node10</title>
<g id="a_Node000010"><a xlink:href="../../d4/df2/gdfs_8hpp.html" target="_top" xlink:title=" ">
<polygon fill="white" stroke="#666666" points="557.5,-70 510.5,-70 510.5,-53 557.5,-53 557.5,-70"/>
<text text-anchor="middle" x="534" y="-59.6" font-family="Helvetica,sans-Serif" font-size="8.00">gdfs.hpp</text>
</a>
</g>
</g>
<!-- Node1&#45;&gt;Node10 -->
<g id="edge16_Node000001_Node000010" class="edge">
<title>Node1&#45;&gt;Node10</title>
<g id="a_edge16_Node000001_Node000010"><a xlink:title=" ">
<path fill="none" stroke="#63b8ff" d="M403.94,-102.94C435.69,-93.07 482.29,-78.58 510.24,-69.89"/>
<polygon fill="#63b8ff" stroke="#63b8ff" points="402.71,-99.66 394.2,-105.97 404.79,-106.35 402.71,-99.66"/>
</a>
</g>
</g>
<!-- Node11 -->
<g id="Node000011" class="node">
<title>Node11</title>
<g id="a_Node000011"><a xlink:href="../../d3/d3e/gjps_8hpp.html" target="_top" xlink:title=" ">
<polygon fill="white" stroke="#666666" points="622.5,-70 575.5,-70 575.5,-53 622.5,-53 622.5,-70"/>
<text text-anchor="middle" x="599" y="-59.6" font-family="Helvetica,sans-Serif" font-size="8.00">gjps.hpp</text>
</a>
</g>
</g>
<!-- Node1&#45;&gt;Node11 -->
<g id="edge18_Node000001_Node000011" class="edge">
<title>Node1&#45;&gt;Node11</title>
<g id="a_edge18_Node000001_Node000011"><a xlink:title=" ">
<path fill="none" stroke="#63b8ff" d="M414.86,-103.77C454.82,-95.06 514.85,-81.87 567,-70 569.67,-69.39 572.46,-68.75 575.24,-68.1"/>
<polygon fill="#63b8ff" stroke="#63b8ff" points="413.93,-100.39 404.9,-105.94 415.42,-107.23 413.93,-100.39"/>
</a>
</g>
</g>
<!-- Node12 -->
<g id="Node000012" class="node">
<title>Node12</title>
<g id="a_Node000012"><a xlink:href="../../d1/def/gstar_8hpp.html" target="_top" xlink:title=" ">
<polygon fill="white" stroke="#666666" points="691,-70 641,-70 641,-53 691,-53 691,-70"/>
<text text-anchor="middle" x="666" y="-59.6" font-family="Helvetica,sans-Serif" font-size="8.00">gstar.hpp</text>
</a>
</g>
</g>
<!-- Node1&#45;&gt;Node12 -->
<g id="edge20_Node000001_Node000012" class="edge">
<title>Node1&#45;&gt;Node12</title>
<g id="a_edge20_Node000001_Node000012"><a xlink:title=" ">
<path fill="none" stroke="#63b8ff" d="M420.18,-105.97C473.02,-97.86 558.57,-84.18 632,-70 634.85,-69.45 637.82,-68.84 640.78,-68.22"/>
<polygon fill="#63b8ff" stroke="#63b8ff" points="419.42,-102.55 410.07,-107.52 420.48,-109.47 419.42,-102.55"/>
</a>
</g>
</g>
<!-- Node13 -->
<g id="Node000013" class="node">
<title>Node13</title>
<g id="a_Node000013"><a xlink:href="../../d9/de6/jps_8hpp.html" target="_top" xlink:title=" ">
<polygon fill="white" stroke="#666666" points="751,-70 709,-70 709,-53 751,-53 751,-70"/>
<text text-anchor="middle" x="730" y="-59.6" font-family="Helvetica,sans-Serif" font-size="8.00">jps.hpp</text>
</a>
</g>
</g>
<!-- Node1&#45;&gt;Node13 -->
<g id="edge22_Node000001_Node000013" class="edge">
<title>Node1&#45;&gt;Node13</title>
<g id="a_edge22_Node000001_Node000013"><a xlink:title=" ">
<path fill="none" stroke="#63b8ff" d="M420.07,-108.69C484.98,-102.05 601.52,-88.74 700,-70 702.85,-69.46 705.83,-68.81 708.76,-68.13"/>
<polygon fill="#63b8ff" stroke="#63b8ff" points="419.71,-105.21 410.11,-109.7 420.41,-112.18 419.71,-105.21"/>
</a>
</g>
</g>
<!-- Node2&#45;&gt;Node3 -->
<g id="edge2_Node000002_Node000003" class="edge">
<title>Node2&#45;&gt;Node3</title>
<g id="a_edge2_Node000002_Node000003"><a xlink:title=" ">
<path fill="none" stroke="#63b8ff" d="M60.16,-53.66C61.45,-53.43 62.74,-53.21 64,-53 168.79,-35.49 294.53,-19.04 346.13,-12.49"/>
<polygon fill="#63b8ff" stroke="#63b8ff" points="59.36,-50.25 50.14,-55.48 60.61,-57.13 59.36,-50.25"/>
</a>
</g>
</g>
<!-- Node4&#45;&gt;Node3 -->
<g id="edge4_Node000004_Node000003" class="edge">
<title>Node4&#45;&gt;Node3</title>
<g id="a_edge4_Node000004_Node000003"><a xlink:title=" ">
<path fill="none" stroke="#63b8ff" d="M181.49,-51.12C229.98,-40.41 307.56,-23.29 346.34,-14.72"/>
<polygon fill="#63b8ff" stroke="#63b8ff" points="180.62,-47.73 171.61,-53.3 182.13,-54.56 180.62,-47.73"/>
</a>
</g>
</g>
<!-- Node5&#45;&gt;Node3 -->
<g id="edge6_Node000005_Node000003" class="edge">
<title>Node5&#45;&gt;Node3</title>
<g id="a_edge6_Node000005_Node000003"><a xlink:title=" ">
<path fill="none" stroke="#63b8ff" d="M242.52,-50.39C273.12,-40.58 318.85,-25.91 346.42,-17.06"/>
<polygon fill="#63b8ff" stroke="#63b8ff" points="241.23,-47.13 232.77,-53.52 243.37,-53.79 241.23,-47.13"/>
</a>
</g>
</g>
<!-- Node6&#45;&gt;Node3 -->
<g id="edge9_Node000006_Node000003" class="edge">
<title>Node6&#45;&gt;Node3</title>
<g id="a_edge9_Node000006_Node000003"><a xlink:title=" ">
<path fill="none" stroke="#63b8ff" d="M295.51,-48.27C314.17,-38.55 339.68,-25.28 355.48,-17.06"/>
<polygon fill="#63b8ff" stroke="#63b8ff" points="293.72,-45.25 286.46,-52.97 296.95,-51.46 293.72,-45.25"/>
</a>
</g>
</g>
<!-- Node7&#45;&gt;Node3 -->
<g id="edge11_Node000007_Node000003" class="edge">
<title>Node7&#45;&gt;Node3</title>
<g id="a_edge11_Node000007_Node000003"><a xlink:title=" ">
<path fill="none" stroke="#63b8ff" d="M347.44,-44.36C353.35,-35.23 360.47,-24.22 365.11,-17.06"/>
<polygon fill="#63b8ff" stroke="#63b8ff" points="344.36,-42.68 341.87,-52.97 350.24,-46.48 344.36,-42.68"/>
</a>
</g>
</g>
<!-- Node8&#45;&gt;Node3 -->
<g id="edge13_Node000008_Node000003" class="edge">
<title>Node8&#45;&gt;Node3</title>
<g id="a_edge13_Node000008_Node000003"><a xlink:title=" ">
<path fill="none" stroke="#63b8ff" d="M393.44,-44.65C387.31,-35.46 379.87,-24.3 375.04,-17.06"/>
<polygon fill="#63b8ff" stroke="#63b8ff" points="390.52,-46.6 398.98,-52.97 396.35,-42.71 390.52,-46.6"/>
</a>
</g>
</g>
<!-- Node9&#45;&gt;Node3 -->
<g id="edge15_Node000009_Node000003" class="edge">
<title>Node9&#45;&gt;Node3</title>
<g id="a_edge15_Node000009_Node000003"><a xlink:title=" ">
<path fill="none" stroke="#63b8ff" d="M445.25,-48.27C426.4,-38.55 400.63,-25.28 384.67,-17.06"/>
<polygon fill="#63b8ff" stroke="#63b8ff" points="443.9,-51.51 454.39,-52.97 447.11,-45.28 443.9,-51.51"/>
</a>
</g>
</g>
<!-- Node10&#45;&gt;Node3 -->
<g id="edge17_Node000010_Node000003" class="edge">
<title>Node10&#45;&gt;Node3</title>
<g id="a_edge17_Node000010_Node000003"><a xlink:title=" ">
<path fill="none" stroke="#63b8ff" d="M500.4,-50.05C468.59,-40.16 421.64,-25.56 393.61,-16.84"/>
<polygon fill="#63b8ff" stroke="#63b8ff" points="499.56,-53.46 510.15,-53.08 501.64,-46.77 499.56,-53.46"/>
</a>
</g>
</g>
<!-- Node11&#45;&gt;Node3 -->
<g id="edge19_Node000011_Node000003" class="edge">
<title>Node11&#45;&gt;Node3</title>
<g id="a_edge19_Node000011_Node000003"><a xlink:title=" ">
<path fill="none" stroke="#63b8ff" d="M565.28,-52.63C497.66,-37.28 428.95,-22.28 393.67,-14.62"/>
<polygon fill="#63b8ff" stroke="#63b8ff" points="564.72,-56.09 575.24,-54.9 566.27,-49.27 564.72,-56.09"/>
</a>
</g>
</g>
<!-- Node12&#45;&gt;Node3 -->
<g id="edge21_Node000012_Node000003" class="edge">
<title>Node12&#45;&gt;Node3</title>
<g id="a_edge21_Node000012_Node000003"><a xlink:title=" ">
<path fill="none" stroke="#63b8ff" d="M630.87,-52.87C537.3,-34.98 437.97,-19.65 393.56,-12.99"/>
<polygon fill="#63b8ff" stroke="#63b8ff" points="630.3,-56.33 640.78,-54.78 631.62,-49.45 630.3,-56.33"/>
</a>
</g>
</g>
<!-- Node13&#45;&gt;Node3 -->
<g id="edge23_Node000013_Node000003" class="edge">
<title>Node13&#45;&gt;Node3</title>
<g id="a_edge23_Node000013_Node000003"><a xlink:title=" ">
<path fill="none" stroke="#63b8ff" d="M698.67,-52.96C578.7,-30.56 446.73,-16.78 393.76,-11.69"/>
<polygon fill="#63b8ff" stroke="#63b8ff" points="698.28,-56.45 708.76,-54.87 699.59,-49.57 698.28,-56.45"/>
</a>
</g>
</g>
</g>
</svg>
