<?xml version="1.0" encoding="UTF-8" standalone="no"?>
<!DOCTYPE svg PUBLIC "-//W3C//DTD SVG 1.1//EN"
 "http://www.w3.org/Graphics/SVG/1.1/DTD/svg11.dtd">
<!-- Generated by graphviz version 2.43.0 (0)
 -->
<!-- Title: existence_set.hpp Pages: 1 -->
<svg width="1306pt" height="184pt"
 viewBox="0.00 0.00 1305.69 184.00" xmlns="http://www.w3.org/2000/svg" xmlns:xlink="http://www.w3.org/1999/xlink">
<g id="graph0" class="graph" transform="scale(1 1) rotate(0) translate(4 180)">
<title>existence_set.hpp</title>
<!-- Node1 -->
<g id="Node000001" class="node">
<title>Node1</title>
<g id="a_Node000001"><a xlink:title=" ">
<polygon fill="#999999" stroke="#666666" points="433.69,-176 353.69,-176 353.69,-159 433.69,-159 433.69,-176"/>
<text text-anchor="middle" x="393.69" y="-165.6" font-family="Helvetica,sans-Serif" font-size="8.00">existence_set.hpp</text>
</a>
</g>
</g>
<!-- Node2 -->
<g id="Node000002" class="node">
<title>Node2</title>
<g id="a_Node000002"><a xlink:href="../../dc/da9/astar_8hpp.html" target="_top" xlink:title=" ">
<polygon fill="white" stroke="#666666" points="77.69,-70 27.69,-70 27.69,-53 77.69,-53 77.69,-70"/>
<text text-anchor="middle" x="52.69" y="-59.6" font-family="Helvetica,sans-Serif" font-size="8.00">astar.hpp</text>
</a>
</g>
</g>
<!-- Node1&#45;&gt;Node2 -->
<g id="edge1_Node000001_Node000002" class="edge">
<title>Node1&#45;&gt;Node2</title>
<g id="a_edge1_Node000001_Node000002"><a xlink:title=" ">
<path fill="none" stroke="#63b8ff" d="M354.85,-156.4C322.77,-147.91 276.11,-135.24 235.69,-123 176.92,-105.21 108.38,-81.84 74.27,-70.03"/>
<polygon fill="#63b8ff" stroke="#63b8ff" points="354.17,-159.83 364.73,-159 355.95,-153.07 354.17,-159.83"/>
</a>
</g>
</g>
<!-- Node3 -->
<g id="Node000003" class="node">
<title>Node3</title>
<g id="a_Node000003"><a xlink:href="../../d9/d96/chdr_8hpp.html" target="_top" xlink:title=" ">
<polygon fill="white" stroke="#666666" points="646.19,-17 599.19,-17 599.19,0 646.19,0 646.19,-17"/>
<text text-anchor="middle" x="622.69" y="-6.6" font-family="Helvetica,sans-Serif" font-size="8.00">chdr.hpp</text>
</a>
</g>
</g>
<!-- Node1&#45;&gt;Node3 -->
<g id="edge7_Node000001_Node000003" class="edge">
<title>Node1&#45;&gt;Node3</title>
<g id="a_edge7_Node000001_Node000003"><a xlink:title=" ">
<path fill="none" stroke="#63b8ff" d="M343.27,-166.93C220.67,-166.43 -76.2,-154.97 18.69,-53 58.84,-9.85 492.12,-8.92 598.97,-9.35"/>
<polygon fill="#63b8ff" stroke="#63b8ff" points="343.52,-170.43 353.53,-166.95 343.53,-163.43 343.52,-170.43"/>
</a>
</g>
</g>
<!-- Node4 -->
<g id="Node000004" class="node">
<title>Node4</title>
<g id="a_Node000004"><a xlink:href="../../d3/d77/best__first_8hpp.html" target="_top" xlink:title=" ">
<polygon fill="white" stroke="#666666" points="161.19,-70 96.19,-70 96.19,-53 161.19,-53 161.19,-70"/>
<text text-anchor="middle" x="128.69" y="-59.6" font-family="Helvetica,sans-Serif" font-size="8.00">best_first.hpp</text>
</a>
</g>
</g>
<!-- Node1&#45;&gt;Node4 -->
<g id="edge3_Node000001_Node000004" class="edge">
<title>Node1&#45;&gt;Node4</title>
<g id="a_edge3_Node000001_Node000004"><a xlink:title=" ">
<path fill="none" stroke="#63b8ff" d="M364.88,-155.37C342.25,-146.61 309.94,-134.07 281.69,-123 233.55,-104.14 177,-81.7 148,-70.18"/>
<polygon fill="#63b8ff" stroke="#63b8ff" points="363.66,-158.65 374.25,-158.99 366.19,-152.12 363.66,-158.65"/>
</a>
</g>
</g>
<!-- Node5 -->
<g id="Node000005" class="node">
<title>Node5</title>
<g id="a_Node000005"><a xlink:href="../../da/d36/bfs_8hpp.html" target="_top" xlink:title=" ">
<polygon fill="white" stroke="#666666" points="222.19,-70 179.19,-70 179.19,-53 222.19,-53 222.19,-70"/>
<text text-anchor="middle" x="200.69" y="-59.6" font-family="Helvetica,sans-Serif" font-size="8.00">bfs.hpp</text>
</a>
</g>
</g>
<!-- Node1&#45;&gt;Node5 -->
<g id="edge5_Node000001_Node000005" class="edge">
<title>Node1&#45;&gt;Node5</title>
<g id="a_edge5_Node000001_Node000005"><a xlink:title=" ">
<path fill="none" stroke="#63b8ff" d="M370.62,-154.07C330.15,-132.26 247.52,-87.74 214.64,-70.02"/>
<polygon fill="#63b8ff" stroke="#63b8ff" points="369.03,-157.19 379.5,-158.85 372.35,-151.03 369.03,-157.19"/>
</a>
</g>
</g>
<!-- Node6 -->
<g id="Node000006" class="node">
<title>Node6</title>
<g id="a_Node000006"><a xlink:href="../../d3/dec/dfs_8hpp.html" target="_top" xlink:title=" ">
<polygon fill="white" stroke="#666666" points="283.19,-70 240.19,-70 240.19,-53 283.19,-53 283.19,-70"/>
<text text-anchor="middle" x="261.69" y="-59.6" font-family="Helvetica,sans-Serif" font-size="8.00">dfs.hpp</text>
</a>
</g>
</g>
<!-- Node1&#45;&gt;Node6 -->
<g id="edge8_Node000001_Node000006" class="edge">
<title>Node1&#45;&gt;Node6</title>
<g id="a_edge8_Node000001_Node000006"><a xlink:title=" ">
<path fill="none" stroke="#63b8ff" d="M375.89,-152.48C347.62,-130.21 293.41,-87.49 271.37,-70.12"/>
<polygon fill="#63b8ff" stroke="#63b8ff" points="373.75,-155.24 383.77,-158.68 378.08,-149.75 373.75,-155.24"/>
</a>
</g>
</g>
<!-- Node7 -->
<g id="Node000007" class="node">
<title>Node7</title>
<g id="a_Node000007"><a xlink:href="../../d8/d12/flood_8hpp.html" target="_top" xlink:title=" ">
<polygon fill="white" stroke="#666666" points="351.69,-70 301.69,-70 301.69,-53 351.69,-53 351.69,-70"/>
<text text-anchor="middle" x="326.69" y="-59.6" font-family="Helvetica,sans-Serif" font-size="8.00">flood.hpp</text>
</a>
</g>
</g>
<!-- Node1&#45;&gt;Node7 -->
<g id="edge10_Node000001_Node000007" class="edge">
<title>Node1&#45;&gt;Node7</title>
<g id="a_edge10_Node000001_Node000007"><a xlink:title=" ">
<path fill="none" stroke="#63b8ff" d="M383.12,-150.1C368.43,-127.29 342.4,-86.89 331.6,-70.12"/>
<polygon fill="#63b8ff" stroke="#63b8ff" points="380.29,-152.17 388.65,-158.68 386.18,-148.38 380.29,-152.17"/>
</a>
</g>
</g>
<!-- Node8 -->
<g id="Node000008" class="node">
<title>Node8</title>
<g id="a_Node000008"><a xlink:href="../../d1/d5a/fstar_8hpp.html" target="_top" xlink:title=" ">
<polygon fill="white" stroke="#666666" points="417.19,-70 370.19,-70 370.19,-53 417.19,-53 417.19,-70"/>
<text text-anchor="middle" x="393.69" y="-59.6" font-family="Helvetica,sans-Serif" font-size="8.00">fstar.hpp</text>
</a>
</g>
</g>
<!-- Node1&#45;&gt;Node8 -->
<g id="edge12_Node000001_Node000008" class="edge">
<title>Node1&#45;&gt;Node8</title>
<g id="a_edge12_Node000001_Node000008"><a xlink:title=" ">
<path fill="none" stroke="#63b8ff" d="M393.69,-148.55C393.69,-125.5 393.69,-86.52 393.69,-70.12"/>
<polygon fill="#63b8ff" stroke="#63b8ff" points="390.19,-148.68 393.69,-158.68 397.19,-148.68 390.19,-148.68"/>
</a>
</g>
</g>
<!-- Node9 -->
<g id="Node000009" class="node">
<title>Node9</title>
<g id="a_Node000009"><a xlink:href="../../de/d94/gbfs_8hpp.html" target="_top" xlink:title=" ">
<polygon fill="white" stroke="#666666" points="482.19,-70 435.19,-70 435.19,-53 482.19,-53 482.19,-70"/>
<text text-anchor="middle" x="458.69" y="-59.6" font-family="Helvetica,sans-Serif" font-size="8.00">gbfs.hpp</text>
</a>
</g>
</g>
<!-- Node1&#45;&gt;Node9 -->
<g id="edge14_Node000001_Node000009" class="edge">
<title>Node1&#45;&gt;Node9</title>
<g id="a_edge14_Node000001_Node000009"><a xlink:title=" ">
<path fill="none" stroke="#63b8ff" d="M403.94,-150.1C418.19,-127.29 443.44,-86.89 453.92,-70.12"/>
<polygon fill="#63b8ff" stroke="#63b8ff" points="400.91,-148.35 398.57,-158.68 406.84,-152.06 400.91,-148.35"/>
</a>
</g>
</g>
<!-- Node10 -->
<g id="Node000010" class="node">
<title>Node10</title>
<g id="a_Node000010"><a xlink:href="../../d4/df2/gdfs_8hpp.html" target="_top" xlink:title=" ">
<polygon fill="white" stroke="#666666" points="547.19,-70 500.19,-70 500.19,-53 547.19,-53 547.19,-70"/>
<text text-anchor="middle" x="523.69" y="-59.6" font-family="Helvetica,sans-Serif" font-size="8.00">gdfs.hpp</text>
</a>
</g>
</g>
<!-- Node1&#45;&gt;Node10 -->
<g id="edge16_Node000001_Node000010" class="edge">
<title>Node1&#45;&gt;Node10</title>
<g id="a_edge16_Node000001_Node000010"><a xlink:title=" ">
<path fill="none" stroke="#63b8ff" d="M411.58,-152.19C439.51,-129.84 492.54,-87.42 514.16,-70.12"/>
<polygon fill="#63b8ff" stroke="#63b8ff" points="409.08,-149.7 403.46,-158.68 413.45,-155.17 409.08,-149.7"/>
</a>
</g>
</g>
<!-- Node11 -->
<g id="Node000011" class="node">
<title>Node11</title>
<g id="a_Node000011"><a xlink:href="../../d3/d3e/gjps_8hpp_source.html" target="_top" xlink:title=" ">
<polygon fill="white" stroke="#666666" points="612.19,-70 565.19,-70 565.19,-53 612.19,-53 612.19,-70"/>
<text text-anchor="middle" x="588.69" y="-59.6" font-family="Helvetica,sans-Serif" font-size="8.00">gjps.hpp</text>
</a>
</g>
</g>
<!-- Node1&#45;&gt;Node11 -->
<g id="edge18_Node000001_Node000011" class="edge">
<title>Node1&#45;&gt;Node11</title>
<g id="a_edge18_Node000001_Node000011"><a xlink:title=" ">
<path fill="none" stroke="#63b8ff" d="M416.99,-154.07C457.88,-132.26 541.37,-87.74 574.59,-70.02"/>
<polygon fill="#63b8ff" stroke="#63b8ff" points="415.2,-151.06 408.03,-158.85 418.5,-157.23 415.2,-151.06"/>
</a>
</g>
</g>
<!-- Node12 -->
<g id="Node000012" class="node">
<title>Node12</title>
<g id="a_Node000012"><a xlink:href="../../d1/def/gstar_8hpp.html" target="_top" xlink:title=" ">
<polygon fill="white" stroke="#666666" points="1237.69,-70 1187.69,-70 1187.69,-53 1237.69,-53 1237.69,-70"/>
<text text-anchor="middle" x="1212.69" y="-59.6" font-family="Helvetica,sans-Serif" font-size="8.00">gstar.hpp</text>
</a>
</g>
</g>
<!-- Node1&#45;&gt;Node12 -->
<g id="edge20_Node000001_Node000012" class="edge">
<title>Node1&#45;&gt;Node12</title>
<g id="a_edge20_Node000001_Node000012"><a xlink:title=" ">
<path fill="none" stroke="#63b8ff" d="M443.94,-161.99C568.79,-150.42 902.91,-117.26 1178.69,-70 1181.55,-69.51 1184.53,-68.94 1187.49,-68.34"/>
<polygon fill="#63b8ff" stroke="#63b8ff" points="443.55,-158.51 433.91,-162.91 444.19,-165.48 443.55,-158.51"/>
</a>
</g>
</g>
<!-- Node13 -->
<g id="Node000013" class="node">
<title>Node13</title>
<g id="a_Node000013"><a xlink:href="../../d9/de6/jps_8hpp_source.html" target="_top" xlink:title=" ">
<polygon fill="white" stroke="#666666" points="1297.69,-70 1255.69,-70 1255.69,-53 1297.69,-53 1297.69,-70"/>
<text text-anchor="middle" x="1276.69" y="-59.6" font-family="Helvetica,sans-Serif" font-size="8.00">jps.hpp</text>
</a>
</g>
</g>
<!-- Node1&#45;&gt;Node13 -->
<g id="edge22_Node000001_Node000013" class="edge">
<title>Node1&#45;&gt;Node13</title>
<g id="a_edge22_Node000001_Node000013"><a xlink:title=" ">
<path fill="none" stroke="#63b8ff" d="M444.27,-163.68C576.96,-155.66 945.58,-129.34 1246.69,-70 1249.53,-69.44 1252.51,-68.78 1255.44,-68.09"/>
<polygon fill="#63b8ff" stroke="#63b8ff" points="443.79,-160.2 434.02,-164.29 444.21,-167.19 443.79,-160.2"/>
</a>
</g>
</g>
<!-- Node14 -->
<g id="Node000014" class="node">
<title>Node14</title>
<g id="a_Node000014"><a xlink:href="../../d2/d1c/solver_8hpp.html" target="_top" xlink:title=" ">
<polygon fill="white" stroke="#666666" points="626.19,-123 573.19,-123 573.19,-106 626.19,-106 626.19,-123"/>
<text text-anchor="middle" x="599.69" y="-112.6" font-family="Helvetica,sans-Serif" font-size="8.00">solver.hpp</text>
</a>
</g>
</g>
<!-- Node1&#45;&gt;Node14 -->
<g id="edge24_Node000001_Node000014" class="edge">
<title>Node1&#45;&gt;Node14</title>
<g id="a_edge24_Node000001_Node000014"><a xlink:title=" ">
<path fill="none" stroke="#63b8ff" d="M434.05,-156.51C475.19,-146.32 537.81,-130.82 573.1,-122.08"/>
<polygon fill="#63b8ff" stroke="#63b8ff" points="432.95,-153.17 424.08,-158.97 434.63,-159.97 432.95,-153.17"/>
</a>
</g>
</g>
<!-- Node2&#45;&gt;Node3 -->
<g id="edge2_Node000002_Node000003" class="edge">
<title>Node2&#45;&gt;Node3</title>
<g id="a_edge2_Node000002_Node000003"><a xlink:title=" ">
<path fill="none" stroke="#63b8ff" d="M87.83,-53.06C291.05,-23.13 525.02,-12.92 599.05,-10.27"/>
<polygon fill="#63b8ff" stroke="#63b8ff" points="87.24,-49.61 77.87,-54.55 88.27,-56.53 87.24,-49.61"/>
</a>
</g>
</g>
<!-- Node4&#45;&gt;Node3 -->
<g id="edge4_Node000004_Node000003" class="edge">
<title>Node4&#45;&gt;Node3</title>
<g id="a_edge4_Node000004_Node000003"><a xlink:title=" ">
<path fill="none" stroke="#63b8ff" d="M171.42,-52.87C340.94,-29.67 532.99,-15.56 599.03,-11.06"/>
<polygon fill="#63b8ff" stroke="#63b8ff" points="170.75,-49.43 161.32,-54.27 171.71,-56.37 170.75,-49.43"/>
</a>
</g>
</g>
<!-- Node5&#45;&gt;Node3 -->
<g id="edge6_Node000005_Node000003" class="edge">
<title>Node5&#45;&gt;Node3</title>
<g id="a_edge6_Node000005_Node000003"><a xlink:title=" ">
<path fill="none" stroke="#63b8ff" d="M232.18,-52.97C376.71,-27.54 539.3,-15.06 599.11,-11.01"/>
<polygon fill="#63b8ff" stroke="#63b8ff" points="231.47,-49.54 222.24,-54.74 232.7,-56.43 231.47,-49.54"/>
</a>
</g>
</g>
<!-- Node6&#45;&gt;Node3 -->
<g id="edge9_Node000006_Node000003" class="edge">
<title>Node6&#45;&gt;Node3</title>
<g id="a_edge9_Node000006_Node000003"><a xlink:title=" ">
<path fill="none" stroke="#63b8ff" d="M293.45,-53.08C414.07,-30.98 545.99,-16.97 598.94,-11.75"/>
<polygon fill="#63b8ff" stroke="#63b8ff" points="292.5,-49.69 283.31,-54.96 293.78,-56.58 292.5,-49.69"/>
</a>
</g>
</g>
<!-- Node7&#45;&gt;Node3 -->
<g id="edge11_Node000007_Node000003" class="edge">
<title>Node7&#45;&gt;Node3</title>
<g id="a_edge11_Node000007_Node000003"><a xlink:title=" ">
<path fill="none" stroke="#63b8ff" d="M361.82,-52.87C455.39,-34.98 554.72,-19.65 599.13,-12.99"/>
<polygon fill="#63b8ff" stroke="#63b8ff" points="361.07,-49.45 351.91,-54.78 362.39,-56.33 361.07,-49.45"/>
</a>
</g>
</g>
<!-- Node8&#45;&gt;Node3 -->
<g id="edge13_Node000008_Node000003" class="edge">
<title>Node8&#45;&gt;Node3</title>
<g id="a_edge13_Node000008_Node000003"><a xlink:title=" ">
<path fill="none" stroke="#63b8ff" d="M427.41,-52.63C495.03,-37.28 563.73,-22.28 599.01,-14.62"/>
<polygon fill="#63b8ff" stroke="#63b8ff" points="426.42,-49.27 417.45,-54.9 427.97,-56.09 426.42,-49.27"/>
</a>
</g>
</g>
<!-- Node9&#45;&gt;Node3 -->
<g id="edge15_Node000009_Node000003" class="edge">
<title>Node9&#45;&gt;Node3</title>
<g id="a_edge15_Node000009_Node000003"><a xlink:title=" ">
<path fill="none" stroke="#63b8ff" d="M492.29,-50.05C524.1,-40.16 571.05,-25.56 599.08,-16.84"/>
<polygon fill="#63b8ff" stroke="#63b8ff" points="491.04,-46.77 482.54,-53.08 493.12,-53.46 491.04,-46.77"/>
</a>
</g>
</g>
<!-- Node10&#45;&gt;Node3 -->
<g id="edge17_Node000010_Node000003" class="edge">
<title>Node10&#45;&gt;Node3</title>
<g id="a_edge17_Node000010_Node000003"><a xlink:title=" ">
<path fill="none" stroke="#63b8ff" d="M547.44,-48.27C566.29,-38.55 592.06,-25.28 608.02,-17.06"/>
<polygon fill="#63b8ff" stroke="#63b8ff" points="545.58,-45.28 538.3,-52.97 548.79,-51.51 545.58,-45.28"/>
</a>
</g>
</g>
<!-- Node11&#45;&gt;Node3 -->
<g id="edge19_Node000011_Node000003" class="edge">
<title>Node11&#45;&gt;Node3</title>
<g id="a_edge19_Node000011_Node000003"><a xlink:title=" ">
<path fill="none" stroke="#63b8ff" d="M599.25,-44.65C605.38,-35.46 612.82,-24.3 617.65,-17.06"/>
<polygon fill="#63b8ff" stroke="#63b8ff" points="596.34,-42.71 593.7,-52.97 602.16,-46.6 596.34,-42.71"/>
</a>
</g>
</g>
<!-- Node12&#45;&gt;Node3 -->
<g id="edge21_Node000012_Node000003" class="edge">
<title>Node12&#45;&gt;Node3</title>
<g id="a_edge21_Node000012_Node000003"><a xlink:title=" ">
<path fill="none" stroke="#63b8ff" d="M1177.47,-53.05C966.19,-22.26 722.29,-12.59 646.39,-10.18"/>
<polygon fill="#63b8ff" stroke="#63b8ff" points="1177.11,-56.54 1187.51,-54.54 1178.13,-49.61 1177.11,-56.54"/>
</a>
</g>
</g>
<!-- Node13&#45;&gt;Node3 -->
<g id="edge23_Node000013_Node000003" class="edge">
<title>Node13&#45;&gt;Node3</title>
<g id="a_edge23_Node000013_Node000003"><a xlink:title=" ">
<path fill="none" stroke="#63b8ff" d="M1245.58,-53.15C1006.98,-16.06 728.26,-10.52 646.37,-9.66"/>
<polygon fill="#63b8ff" stroke="#63b8ff" points="1245.05,-56.61 1255.48,-54.71 1246.14,-49.69 1245.05,-56.61"/>
</a>
</g>
</g>
<!-- Node14&#45;&gt;Node2 -->
<g id="edge25_Node000014_Node000002" class="edge">
<title>Node14&#45;&gt;Node2</title>
<g id="a_edge25_Node000014_Node000002"><a xlink:title=" ">
<path fill="none" stroke="#63b8ff" d="M563,-112.06C478.55,-108.38 264.01,-96.95 86.69,-70 83.82,-69.56 80.83,-69.03 77.87,-68.44"/>
<polygon fill="#63b8ff" stroke="#63b8ff" points="562.97,-115.56 573.11,-112.49 563.27,-108.57 562.97,-115.56"/>
</a>
</g>
</g>
<!-- Node14&#45;&gt;Node3 -->
<g id="edge28_Node000014_Node000003" class="edge">
<title>Node14&#45;&gt;Node3</title>
<g id="a_edge28_Node000014_Node000003"><a xlink:title=" ">
<path fill="none" stroke="#63b8ff" d="M636.95,-114.04C711.09,-114.22 873,-109.93 907.69,-70 912.64,-64.3 912.61,-58.73 907.69,-53 873.93,-13.7 708.43,-9.52 646.31,-9.35"/>
<polygon fill="#63b8ff" stroke="#63b8ff" points="636.69,-110.53 626.67,-113.98 636.65,-117.53 636.69,-110.53"/>
</a>
</g>
</g>
<!-- Node14&#45;&gt;Node4 -->
<g id="edge26_Node000014_Node000004" class="edge">
<title>Node14&#45;&gt;Node4</title>
<g id="a_edge26_Node000014_Node000004"><a xlink:title=" ">
<path fill="none" stroke="#63b8ff" d="M562.66,-110.76C488.07,-105.02 314.49,-90.53 169.69,-70 166.97,-69.61 164.15,-69.18 161.32,-68.71"/>
<polygon fill="#63b8ff" stroke="#63b8ff" points="562.69,-114.27 572.93,-111.54 563.22,-107.29 562.69,-114.27"/>
</a>
</g>
</g>
<!-- Node14&#45;&gt;Node5 -->
<g id="edge27_Node000014_Node000005" class="edge">
<title>Node14&#45;&gt;Node5</title>
<g id="a_edge27_Node000014_Node000005"><a xlink:title=" ">
<path fill="none" stroke="#63b8ff" d="M563.13,-110.75C496.6,-105.39 351.45,-92.12 230.69,-70 227.94,-69.5 225.07,-68.89 222.25,-68.24"/>
<polygon fill="#63b8ff" stroke="#63b8ff" points="562.87,-114.24 573.12,-111.54 563.42,-107.26 562.87,-114.24"/>
</a>
</g>
</g>
<!-- Node14&#45;&gt;Node6 -->
<g id="edge29_Node000014_Node000006" class="edge">
<title>Node14&#45;&gt;Node6</title>
<g id="a_edge29_Node000014_Node000006"><a xlink:title=" ">
<path fill="none" stroke="#63b8ff" d="M562.74,-109.43C504.88,-102.8 389.5,-88.52 292.69,-70 289.64,-69.42 286.45,-68.73 283.31,-68.01"/>
<polygon fill="#63b8ff" stroke="#63b8ff" points="562.52,-112.93 572.85,-110.58 563.31,-105.98 562.52,-112.93"/>
</a>
</g>
</g>
<!-- Node14&#45;&gt;Node7 -->
<g id="edge38_Node000014_Node000007" class="edge">
<title>Node14&#45;&gt;Node7</title>
<g id="a_edge38_Node000014_Node000007"><a xlink:title=" ">
<path fill="none" stroke="#63b8ff" d="M563.1,-107.28C516.14,-99.19 432.18,-84.39 360.69,-70 357.84,-69.43 354.87,-68.81 351.92,-68.17"/>
<polygon fill="#63b8ff" stroke="#63b8ff" points="562.65,-110.75 573.1,-108.99 563.84,-103.85 562.65,-110.75"/>
</a>
</g>
</g>
<!-- Node14&#45;&gt;Node8 -->
<g id="edge39_Node000014_Node000008" class="edge">
<title>Node14&#45;&gt;Node8</title>
<g id="a_edge39_Node000014_Node000008"><a xlink:title=" ">
<path fill="none" stroke="#63b8ff" d="M563.32,-104.5C521.18,-94.06 452.96,-77.17 417.23,-68.33"/>
<polygon fill="#63b8ff" stroke="#63b8ff" points="562.63,-107.93 573.18,-106.94 564.31,-101.14 562.63,-107.93"/>
</a>
</g>
</g>
<!-- Node14&#45;&gt;Node9 -->
<g id="edge40_Node000014_Node000009" class="edge">
<title>Node14&#45;&gt;Node9</title>
<g id="a_edge40_Node000014_Node000009"><a xlink:title=" ">
<path fill="none" stroke="#63b8ff" d="M569.14,-102.45C542.06,-92.66 503.25,-78.62 479.58,-70.06"/>
<polygon fill="#63b8ff" stroke="#63b8ff" points="568.29,-105.86 578.88,-105.97 570.67,-99.28 568.29,-105.86"/>
</a>
</g>
</g>
<!-- Node14&#45;&gt;Node10 -->
<g id="edge41_Node000014_Node000010" class="edge">
<title>Node14&#45;&gt;Node10</title>
<g id="a_edge41_Node000014_Node000010"><a xlink:title=" ">
<path fill="none" stroke="#63b8ff" d="M579.84,-100.18C565.54,-90.58 546.75,-77.98 534.95,-70.06"/>
<polygon fill="#63b8ff" stroke="#63b8ff" points="578.22,-103.31 588.47,-105.97 582.12,-97.5 578.22,-103.31"/>
</a>
</g>
</g>
<!-- Node14&#45;&gt;Node11 -->
<g id="edge42_Node000014_Node000011" class="edge">
<title>Node14&#45;&gt;Node11</title>
<g id="a_edge42_Node000014_Node000011"><a xlink:title=" ">
<path fill="none" stroke="#63b8ff" d="M595.89,-95.91C593.99,-87.08 591.78,-76.85 590.32,-70.06"/>
<polygon fill="#63b8ff" stroke="#63b8ff" points="592.54,-96.94 598.06,-105.97 599.38,-95.46 592.54,-96.94"/>
</a>
</g>
</g>
<!-- Node14&#45;&gt;Node12 -->
<g id="edge43_Node000014_Node000012" class="edge">
<title>Node14&#45;&gt;Node12</title>
<g id="a_edge43_Node000014_Node000012"><a xlink:title=" ">
<path fill="none" stroke="#63b8ff" d="M636.57,-112.55C728.55,-109.77 975.31,-99.92 1178.69,-70 1181.56,-69.58 1184.55,-69.05 1187.51,-68.47"/>
<polygon fill="#63b8ff" stroke="#63b8ff" points="636.28,-109.05 626.38,-112.84 636.48,-116.05 636.28,-109.05"/>
</a>
</g>
</g>
<!-- Node14&#45;&gt;Node13 -->
<g id="edge50_Node000014_Node000013" class="edge">
<title>Node14&#45;&gt;Node13</title>
<g id="a_edge50_Node000014_Node000013"><a xlink:title=" ">
<path fill="none" stroke="#63b8ff" d="M636.48,-113.31C735.65,-112.3 1016.53,-106.21 1246.69,-70 1249.55,-69.55 1252.54,-68.96 1255.48,-68.3"/>
<polygon fill="#63b8ff" stroke="#63b8ff" points="636.35,-109.81 626.38,-113.4 636.41,-116.81 636.35,-109.81"/>
</a>
</g>
</g>
<!-- Node15 -->
<g id="Node000015" class="node">
<title>Node15</title>
<g id="a_Node000015"><a xlink:href="../../d3/d11/dijkstra_8hpp_source.html" target="_top" xlink:title=" ">
<polygon fill="white" stroke="#666666" points="1013.19,-70 956.19,-70 956.19,-53 1013.19,-53 1013.19,-70"/>
<text text-anchor="middle" x="984.69" y="-59.6" font-family="Helvetica,sans-Serif" font-size="8.00">dijkstra.hpp</text>
</a>
</g>
</g>
<!-- Node14&#45;&gt;Node15 -->
<g id="edge30_Node000014_Node000015" class="edge">
<title>Node14&#45;&gt;Node15</title>
<g id="a_edge30_Node000014_Node000015"><a xlink:title=" ">
<path fill="none" stroke="#63b8ff" d="M636.54,-109.38C699.3,-102.23 830.91,-86.7 941.69,-70 946.33,-69.3 951.25,-68.5 956.04,-67.69"/>
<polygon fill="#63b8ff" stroke="#63b8ff" points="635.89,-105.93 626.35,-110.53 636.68,-112.88 635.89,-105.93"/>
</a>
</g>
</g>
<!-- Node16 -->
<g id="Node000016" class="node">
<title>Node16</title>
<g id="a_Node000016"><a xlink:href="../../d6/ded/eidastar_8hpp_source.html" target="_top" xlink:title=" ">
<polygon fill="white" stroke="#666666" points="1091.69,-70 1031.69,-70 1031.69,-53 1091.69,-53 1091.69,-70"/>
<text text-anchor="middle" x="1061.69" y="-59.6" font-family="Helvetica,sans-Serif" font-size="8.00">eidastar.hpp</text>
</a>
</g>
</g>
<!-- Node14&#45;&gt;Node16 -->
<g id="edge32_Node000014_Node000016" class="edge">
<title>Node14&#45;&gt;Node16</title>
<g id="a_edge32_Node000014_Node000016"><a xlink:title=" ">
<path fill="none" stroke="#63b8ff" d="M636.58,-110.73C710.08,-104.98 879.96,-90.56 1021.69,-70 1024.9,-69.53 1028.26,-68.99 1031.59,-68.42"/>
<polygon fill="#63b8ff" stroke="#63b8ff" points="636.14,-107.25 626.44,-111.51 636.68,-114.23 636.14,-107.25"/>
</a>
</g>
</g>
<!-- Node17 -->
<g id="Node000017" class="node">
<title>Node17</title>
<g id="a_Node000017"><a xlink:href="../../dd/d67/eidbstar_8hpp_source.html" target="_top" xlink:title=" ">
<polygon fill="white" stroke="#666666" points="1169.69,-70 1109.69,-70 1109.69,-53 1169.69,-53 1169.69,-70"/>
<text text-anchor="middle" x="1139.69" y="-59.6" font-family="Helvetica,sans-Serif" font-size="8.00">eidbstar.hpp</text>
</a>
</g>
</g>
<!-- Node14&#45;&gt;Node17 -->
<g id="edge34_Node000014_Node000017" class="edge">
<title>Node14&#45;&gt;Node17</title>
<g id="a_edge34_Node000014_Node000017"><a xlink:title=" ">
<path fill="none" stroke="#63b8ff" d="M636.61,-111.6C719.77,-107.05 927.96,-94.04 1100.69,-70 1103.56,-69.6 1106.53,-69.13 1109.51,-68.62"/>
<polygon fill="#63b8ff" stroke="#63b8ff" points="636.21,-108.12 626.41,-112.15 636.58,-115.11 636.21,-108.12"/>
</a>
</g>
</g>
<!-- Node18 -->
<g id="Node000018" class="node">
<title>Node18</title>
<g id="a_Node000018"><a xlink:href="../../dd/d95/eiddfs_8hpp_source.html" target="_top" xlink:title=" ">
<polygon fill="white" stroke="#666666" points="683.19,-70 630.19,-70 630.19,-53 683.19,-53 683.19,-70"/>
<text text-anchor="middle" x="656.69" y="-59.6" font-family="Helvetica,sans-Serif" font-size="8.00">eiddfs.hpp</text>
</a>
</g>
</g>
<!-- Node14&#45;&gt;Node18 -->
<g id="edge36_Node000014_Node000018" class="edge">
<title>Node14&#45;&gt;Node18</title>
<g id="a_edge36_Node000014_Node000018"><a xlink:title=" ">
<path fill="none" stroke="#63b8ff" d="M615.81,-99.07C626.37,-89.63 639.73,-77.68 648.24,-70.06"/>
<polygon fill="#63b8ff" stroke="#63b8ff" points="613.22,-96.7 608.1,-105.97 617.88,-101.92 613.22,-96.7"/>
</a>
</g>
</g>
<!-- Node19 -->
<g id="Node000019" class="node">
<title>Node19</title>
<g id="a_Node000019"><a xlink:href="../../db/df9/idastar_8hpp_source.html" target="_top" xlink:title=" ">
<polygon fill="white" stroke="#666666" points="757.69,-70 701.69,-70 701.69,-53 757.69,-53 757.69,-70"/>
<text text-anchor="middle" x="729.69" y="-59.6" font-family="Helvetica,sans-Serif" font-size="8.00">idastar.hpp</text>
</a>
</g>
</g>
<!-- Node14&#45;&gt;Node19 -->
<g id="edge44_Node000014_Node000019" class="edge">
<title>Node14&#45;&gt;Node19</title>
<g id="a_edge44_Node000014_Node000019"><a xlink:title=" ">
<path fill="none" stroke="#63b8ff" d="M628.19,-102.32C653.13,-92.53 688.7,-78.58 710.43,-70.06"/>
<polygon fill="#63b8ff" stroke="#63b8ff" points="626.9,-99.06 618.87,-105.97 629.46,-105.58 626.9,-99.06"/>
</a>
</g>
</g>
<!-- Node20 -->
<g id="Node000020" class="node">
<title>Node20</title>
<g id="a_Node000020"><a xlink:href="../../d1/d24/idbstar_8hpp_source.html" target="_top" xlink:title=" ">
<polygon fill="white" stroke="#666666" points="831.69,-70 775.69,-70 775.69,-53 831.69,-53 831.69,-70"/>
<text text-anchor="middle" x="803.69" y="-59.6" font-family="Helvetica,sans-Serif" font-size="8.00">idbstar.hpp</text>
</a>
</g>
</g>
<!-- Node14&#45;&gt;Node20 -->
<g id="edge46_Node000014_Node000020" class="edge">
<title>Node14&#45;&gt;Node20</title>
<g id="a_edge46_Node000014_Node000020"><a xlink:title=" ">
<path fill="none" stroke="#63b8ff" d="M636.21,-104.37C676.08,-94.4 739.08,-78.65 775.37,-69.58"/>
<polygon fill="#63b8ff" stroke="#63b8ff" points="635.21,-101.01 626.36,-106.83 636.91,-107.8 635.21,-101.01"/>
</a>
</g>
</g>
<!-- Node21 -->
<g id="Node000021" class="node">
<title>Node21</title>
<g id="a_Node000021"><a xlink:href="../../df/d71/iddfs_8hpp_source.html" target="_top" xlink:title=" ">
<polygon fill="white" stroke="#666666" points="899.19,-70 850.19,-70 850.19,-53 899.19,-53 899.19,-70"/>
<text text-anchor="middle" x="874.69" y="-59.6" font-family="Helvetica,sans-Serif" font-size="8.00">iddfs.hpp</text>
</a>
</g>
</g>
<!-- Node14&#45;&gt;Node21 -->
<g id="edge48_Node000014_Node000021" class="edge">
<title>Node14&#45;&gt;Node21</title>
<g id="a_edge48_Node000014_Node000021"><a xlink:title=" ">
<path fill="none" stroke="#63b8ff" d="M636.58,-107.3C683.94,-99.23 768.6,-84.45 840.69,-70 843.65,-69.41 846.75,-68.76 849.83,-68.1"/>
<polygon fill="#63b8ff" stroke="#63b8ff" points="635.77,-103.88 626.5,-109.01 636.94,-110.78 635.77,-103.88"/>
</a>
</g>
</g>
<!-- Node15&#45;&gt;Node3 -->
<g id="edge31_Node000015_Node000003" class="edge">
<title>Node15&#45;&gt;Node3</title>
<g id="a_edge31_Node000015_Node000003"><a xlink:title=" ">
<path fill="none" stroke="#63b8ff" d="M946.11,-53.7C944.62,-53.46 943.14,-53.23 941.69,-53 831.5,-35.88 699.32,-19.03 646.34,-12.42"/>
<polygon fill="#63b8ff" stroke="#63b8ff" points="945.59,-57.16 956.03,-55.35 946.74,-50.26 945.59,-57.16"/>
</a>
</g>
</g>
<!-- Node16&#45;&gt;Node3 -->
<g id="edge33_Node000016_Node000003" class="edge">
<title>Node16&#45;&gt;Node3</title>
<g id="a_edge33_Node000016_Node000003"><a xlink:title=" ">
<path fill="none" stroke="#63b8ff" d="M1021.99,-53.04C1021.89,-53.03 1021.79,-53.01 1021.69,-53 880.04,-32.03 708.69,-16.7 646.61,-11.46"/>
<polygon fill="#63b8ff" stroke="#63b8ff" points="1021.16,-56.46 1031.59,-54.6 1022.28,-49.55 1021.16,-56.46"/>
</a>
</g>
</g>
<!-- Node17&#45;&gt;Node3 -->
<g id="edge35_Node000017_Node000003" class="edge">
<title>Node17&#45;&gt;Node3</title>
<g id="a_edge35_Node000017_Node000003"><a xlink:title=" ">
<path fill="none" stroke="#63b8ff" d="M1099.34,-52.96C919.65,-28.02 715.47,-14.85 646.66,-10.84"/>
<polygon fill="#63b8ff" stroke="#63b8ff" points="1099.11,-56.46 1109.5,-54.39 1100.09,-49.53 1099.11,-56.46"/>
</a>
</g>
</g>
<!-- Node18&#45;&gt;Node3 -->
<g id="edge37_Node000018_Node000003" class="edge">
<title>Node18&#45;&gt;Node3</title>
<g id="a_edge37_Node000018_Node000003"><a xlink:title=" ">
<path fill="none" stroke="#63b8ff" d="M646.12,-44.65C639.99,-35.46 632.55,-24.3 627.73,-17.06"/>
<polygon fill="#63b8ff" stroke="#63b8ff" points="643.21,-46.6 651.67,-52.97 649.04,-42.71 643.21,-46.6"/>
</a>
</g>
</g>
<!-- Node19&#45;&gt;Node3 -->
<g id="edge45_Node000019_Node000003" class="edge">
<title>Node19&#45;&gt;Node3</title>
<g id="a_edge45_Node000019_Node000003"><a xlink:title=" ">
<path fill="none" stroke="#63b8ff" d="M704.86,-48.66C684.41,-38.92 656.03,-25.39 638.54,-17.06"/>
<polygon fill="#63b8ff" stroke="#63b8ff" points="703.37,-51.83 713.9,-52.97 706.38,-45.51 703.37,-51.83"/>
</a>
</g>
</g>
<!-- Node20&#45;&gt;Node3 -->
<g id="edge47_Node000020_Node000003" class="edge">
<title>Node20&#45;&gt;Node3</title>
<g id="a_edge47_Node000020_Node000003"><a xlink:title=" ">
<path fill="none" stroke="#63b8ff" d="M767.33,-50.26C731.29,-40.1 677.13,-24.84 646.33,-16.16"/>
<polygon fill="#63b8ff" stroke="#63b8ff" points="766.41,-53.63 776.98,-52.97 768.3,-46.89 766.41,-53.63"/>
</a>
</g>
</g>
<!-- Node21&#45;&gt;Node3 -->
<g id="edge49_Node000021_Node000003" class="edge">
<title>Node21&#45;&gt;Node3</title>
<g id="a_edge49_Node000021_Node000003"><a xlink:title=" ">
<path fill="none" stroke="#63b8ff" d="M840.31,-52.96C763.26,-36.84 684.65,-21.47 646.27,-14.04"/>
<polygon fill="#63b8ff" stroke="#63b8ff" points="839.68,-56.4 850.19,-55.03 841.12,-49.55 839.68,-56.4"/>
</a>
</g>
</g>
</g>
</svg>
