<?xml version="1.0" encoding="UTF-8" standalone="no"?>
<!DOCTYPE svg PUBLIC "-//W3C//DTD SVG 1.1//EN"
 "http://www.w3.org/Graphics/SVG/1.1/DTD/svg11.dtd">
<!-- Generated by graphviz version 2.43.0 (0)
 -->
<!-- Title: existence_set.hpp Pages: 1 -->
<svg width="1001pt" height="131pt"
 viewBox="0.00 0.00 1000.50 131.00" xmlns="http://www.w3.org/2000/svg" xmlns:xlink="http://www.w3.org/1999/xlink">
<g id="graph0" class="graph" transform="scale(1 1) rotate(0) translate(4 127)">
<title>existence_set.hpp</title>
<!-- Node1 -->
<g id="Node000001" class="node">
<title>Node1</title>
<g id="a_Node000001"><a xlink:title=" ">
<polygon fill="#999999" stroke="#666666" points="524.5,-123 434.5,-123 434.5,-106 524.5,-106 524.5,-123"/>
<text text-anchor="middle" x="479.5" y="-112.6" font-family="Helvetica,sans-Serif" font-size="8.00">existence_set.hpp</text>
</a>
</g>
</g>
<!-- Node2 -->
<g id="Node000002" class="node">
<title>Node2</title>
<g id="a_Node000002"><a xlink:href="../../dc/da9/astar_8hpp.html" target="_top" xlink:title=" ">
<polygon fill="white" stroke="#666666" points="55,-70 0,-70 0,-53 55,-53 55,-70"/>
<text text-anchor="middle" x="27.5" y="-59.6" font-family="Helvetica,sans-Serif" font-size="8.00">astar.hpp</text>
</a>
</g>
</g>
<!-- Node1&#45;&gt;Node2 -->
<g id="edge1_Node000001_Node000002" class="edge">
<title>Node1&#45;&gt;Node2</title>
<g id="a_edge1_Node000001_Node000002"><a xlink:title=" ">
<path fill="none" stroke="#63b8ff" d="M424.29,-108.9C345.4,-102.03 195.99,-87.98 69.5,-70 64.81,-69.33 59.84,-68.53 55.02,-67.7"/>
<polygon fill="#63b8ff" stroke="#63b8ff" points="424.21,-112.4 434.48,-109.78 424.81,-105.43 424.21,-112.4"/>
</a>
</g>
</g>
<!-- Node3 -->
<g id="Node000003" class="node">
<title>Node3</title>
<g id="a_Node000003"><a xlink:href="../../d9/d96/chdr_8hpp.html" target="_top" xlink:title=" ">
<polygon fill="white" stroke="#666666" points="505.5,-17 453.5,-17 453.5,0 505.5,0 505.5,-17"/>
<text text-anchor="middle" x="479.5" y="-6.6" font-family="Helvetica,sans-Serif" font-size="8.00">chdr.hpp</text>
</a>
</g>
</g>
<!-- Node1&#45;&gt;Node3 -->
<g id="edge7_Node000001_Node000003" class="edge">
<title>Node1&#45;&gt;Node3</title>
<g id="a_edge7_Node000001_Node000003"><a xlink:title=" ">
<path fill="none" stroke="#63b8ff" d="M424.1,-111.11C324.49,-106.24 123.51,-93.57 102.5,-70 54.54,-16.18 360.21,-10.14 453.23,-9.54"/>
<polygon fill="#63b8ff" stroke="#63b8ff" points="424.12,-114.61 434.28,-111.6 424.46,-107.62 424.12,-114.61"/>
</a>
</g>
</g>
<!-- Node4 -->
<g id="Node000004" class="node">
<title>Node4</title>
<g id="a_Node000004"><a xlink:href="../../d3/d77/best__first_8hpp.html" target="_top" xlink:title=" ">
<polygon fill="white" stroke="#666666" points="183.5,-70 111.5,-70 111.5,-53 183.5,-53 183.5,-70"/>
<text text-anchor="middle" x="147.5" y="-59.6" font-family="Helvetica,sans-Serif" font-size="8.00">best_first.hpp</text>
</a>
</g>
</g>
<!-- Node1&#45;&gt;Node4 -->
<g id="edge3_Node000001_Node000004" class="edge">
<title>Node1&#45;&gt;Node4</title>
<g id="a_edge3_Node000001_Node000004"><a xlink:title=" ">
<path fill="none" stroke="#63b8ff" d="M424.21,-105.37C366.39,-96.8 273.02,-82.81 192.5,-70 189.68,-69.55 186.77,-69.08 183.84,-68.6"/>
<polygon fill="#63b8ff" stroke="#63b8ff" points="423.83,-108.85 434.23,-106.85 424.85,-101.92 423.83,-108.85"/>
</a>
</g>
</g>
<!-- Node5 -->
<g id="Node000005" class="node">
<title>Node5</title>
<g id="a_Node000005"><a xlink:href="../../da/d36/bfs_8hpp.html" target="_top" xlink:title=" ">
<polygon fill="white" stroke="#666666" points="249,-70 202,-70 202,-53 249,-53 249,-70"/>
<text text-anchor="middle" x="225.5" y="-59.6" font-family="Helvetica,sans-Serif" font-size="8.00">bfs.hpp</text>
</a>
</g>
</g>
<!-- Node1&#45;&gt;Node5 -->
<g id="edge5_Node000001_Node000005" class="edge">
<title>Node1&#45;&gt;Node5</title>
<g id="a_edge5_Node000001_Node000005"><a xlink:title=" ">
<path fill="none" stroke="#63b8ff" d="M428.38,-104.04C383.31,-95.56 315.92,-82.57 257.5,-70 254.82,-69.42 252.02,-68.8 249.24,-68.17"/>
<polygon fill="#63b8ff" stroke="#63b8ff" points="428.02,-107.53 438.49,-105.93 429.31,-100.65 428.02,-107.53"/>
</a>
</g>
</g>
<!-- Node6 -->
<g id="Node000006" class="node">
<title>Node6</title>
<g id="a_Node000006"><a xlink:href="../../d3/dec/dfs_8hpp.html" target="_top" xlink:title=" ">
<polygon fill="white" stroke="#666666" points="314,-70 267,-70 267,-53 314,-53 314,-70"/>
<text text-anchor="middle" x="290.5" y="-59.6" font-family="Helvetica,sans-Serif" font-size="8.00">dfs.hpp</text>
</a>
</g>
</g>
<!-- Node1&#45;&gt;Node6 -->
<g id="edge8_Node000001_Node000006" class="edge">
<title>Node1&#45;&gt;Node6</title>
<g id="a_edge8_Node000001_Node000006"><a xlink:title=" ">
<path fill="none" stroke="#63b8ff" d="M441.9,-103.36C403.81,-93.08 346.07,-77.49 314.02,-68.85"/>
<polygon fill="#63b8ff" stroke="#63b8ff" points="441.05,-106.75 451.61,-105.97 442.87,-99.99 441.05,-106.75"/>
</a>
</g>
</g>
<!-- Node7 -->
<g id="Node000007" class="node">
<title>Node7</title>
<g id="a_Node000007"><a xlink:href="../../d8/d12/flood_8hpp.html" target="_top" xlink:title=" ">
<polygon fill="white" stroke="#666666" points="388.5,-70 332.5,-70 332.5,-53 388.5,-53 388.5,-70"/>
<text text-anchor="middle" x="360.5" y="-59.6" font-family="Helvetica,sans-Serif" font-size="8.00">flood.hpp</text>
</a>
</g>
</g>
<!-- Node1&#45;&gt;Node7 -->
<g id="edge10_Node000001_Node000007" class="edge">
<title>Node1&#45;&gt;Node7</title>
<g id="a_edge10_Node000001_Node000007"><a xlink:title=" ">
<path fill="none" stroke="#63b8ff" d="M452.5,-101.93C429.71,-92.16 397.76,-78.47 378.13,-70.06"/>
<polygon fill="#63b8ff" stroke="#63b8ff" points="451.37,-105.25 461.94,-105.97 454.13,-98.82 451.37,-105.25"/>
</a>
</g>
</g>
<!-- Node8 -->
<g id="Node000008" class="node">
<title>Node8</title>
<g id="a_Node000008"><a xlink:href="../../d8/dd5/fringe_8hpp.html" target="_top" xlink:title=" ">
<polygon fill="white" stroke="#666666" points="466,-70 407,-70 407,-53 466,-53 466,-70"/>
<text text-anchor="middle" x="436.5" y="-59.6" font-family="Helvetica,sans-Serif" font-size="8.00">fringe.hpp</text>
</a>
</g>
</g>
<!-- Node1&#45;&gt;Node8 -->
<g id="edge12_Node000001_Node000008" class="edge">
<title>Node1&#45;&gt;Node8</title>
<g id="a_edge12_Node000001_Node000008"><a xlink:title=" ">
<path fill="none" stroke="#63b8ff" d="M466.62,-98.22C458.78,-88.92 449.1,-77.45 442.87,-70.06"/>
<polygon fill="#63b8ff" stroke="#63b8ff" points="464.03,-100.59 473.16,-105.97 469.39,-96.07 464.03,-100.59"/>
</a>
</g>
</g>
<!-- Node9 -->
<g id="Node000009" class="node">
<title>Node9</title>
<g id="a_Node000009"><a xlink:href="../../d3/d3e/gbest__first_8hpp.html" target="_top" xlink:title=" ">
<polygon fill="white" stroke="#666666" points="561,-70 484,-70 484,-53 561,-53 561,-70"/>
<text text-anchor="middle" x="522.5" y="-59.6" font-family="Helvetica,sans-Serif" font-size="8.00">gbest_first.hpp</text>
</a>
</g>
</g>
<!-- Node1&#45;&gt;Node9 -->
<g id="edge14_Node000001_Node000009" class="edge">
<title>Node1&#45;&gt;Node9</title>
<g id="a_edge14_Node000001_Node000009"><a xlink:title=" ">
<path fill="none" stroke="#63b8ff" d="M492.38,-98.22C500.22,-88.92 509.9,-77.45 516.13,-70.06"/>
<polygon fill="#63b8ff" stroke="#63b8ff" points="489.61,-96.07 485.84,-105.97 494.97,-100.59 489.61,-96.07"/>
</a>
</g>
</g>
<!-- Node10 -->
<g id="Node000010" class="node">
<title>Node10</title>
<g id="a_Node000010"><a xlink:href="../../de/d94/gbfs_8hpp.html" target="_top" xlink:title=" ">
<polygon fill="white" stroke="#666666" points="632,-70 579,-70 579,-53 632,-53 632,-70"/>
<text text-anchor="middle" x="605.5" y="-59.6" font-family="Helvetica,sans-Serif" font-size="8.00">gbfs.hpp</text>
</a>
</g>
</g>
<!-- Node1&#45;&gt;Node10 -->
<g id="edge16_Node000001_Node000010" class="edge">
<title>Node1&#45;&gt;Node10</title>
<g id="a_edge16_Node000001_Node000010"><a xlink:title=" ">
<path fill="none" stroke="#63b8ff" d="M507.44,-102.19C531.61,-92.41 565.86,-78.54 586.83,-70.06"/>
<polygon fill="#63b8ff" stroke="#63b8ff" points="506.05,-98.98 498.09,-105.97 508.67,-105.47 506.05,-98.98"/>
</a>
</g>
</g>
<!-- Node11 -->
<g id="Node000011" class="node">
<title>Node11</title>
<g id="a_Node000011"><a xlink:href="../../d4/df2/gdfs_8hpp.html" target="_top" xlink:title=" ">
<polygon fill="white" stroke="#666666" points="703,-70 650,-70 650,-53 703,-53 703,-70"/>
<text text-anchor="middle" x="676.5" y="-59.6" font-family="Helvetica,sans-Serif" font-size="8.00">gdfs.hpp</text>
</a>
</g>
</g>
<!-- Node1&#45;&gt;Node11 -->
<g id="edge18_Node000001_Node000011" class="edge">
<title>Node1&#45;&gt;Node11</title>
<g id="a_edge18_Node000001_Node000011"><a xlink:title=" ">
<path fill="none" stroke="#63b8ff" d="M518.48,-103.41C557.35,-93.35 616,-78.16 649.84,-69.4"/>
<polygon fill="#63b8ff" stroke="#63b8ff" points="517.37,-100.08 508.57,-105.97 519.13,-106.86 517.37,-100.08"/>
</a>
</g>
</g>
<!-- Node12 -->
<g id="Node000012" class="node">
<title>Node12</title>
<g id="a_Node000012"><a xlink:href="../../d3/d3e/gjps_8hpp.html" target="_top" xlink:title=" ">
<polygon fill="white" stroke="#666666" points="773.5,-70 721.5,-70 721.5,-53 773.5,-53 773.5,-70"/>
<text text-anchor="middle" x="747.5" y="-59.6" font-family="Helvetica,sans-Serif" font-size="8.00">gjps.hpp</text>
</a>
</g>
</g>
<!-- Node1&#45;&gt;Node12 -->
<g id="edge20_Node000001_Node000012" class="edge">
<title>Node1&#45;&gt;Node12</title>
<g id="a_edge20_Node000001_Node000012"><a xlink:title=" ">
<path fill="none" stroke="#63b8ff" d="M531.66,-104.17C578.93,-95.62 650.48,-82.43 712.5,-70 715.3,-69.44 718.23,-68.84 721.14,-68.23"/>
<polygon fill="#63b8ff" stroke="#63b8ff" points="530.88,-100.76 521.66,-105.98 532.12,-107.64 530.88,-100.76"/>
</a>
</g>
</g>
<!-- Node13 -->
<g id="Node000013" class="node">
<title>Node13</title>
<g id="a_Node000013"><a xlink:href="../../d1/def/gstar_8hpp.html" target="_top" xlink:title=" ">
<polygon fill="white" stroke="#666666" points="847,-70 792,-70 792,-53 847,-53 847,-70"/>
<text text-anchor="middle" x="819.5" y="-59.6" font-family="Helvetica,sans-Serif" font-size="8.00">gstar.hpp</text>
</a>
</g>
</g>
<!-- Node1&#45;&gt;Node13 -->
<g id="edge22_Node000001_Node000013" class="edge">
<title>Node1&#45;&gt;Node13</title>
<g id="a_edge22_Node000001_Node000013"><a xlink:title=" ">
<path fill="none" stroke="#63b8ff" d="M534.7,-106.54C595.54,-98.65 696.24,-84.92 782.5,-70 785.47,-69.49 788.57,-68.91 791.65,-68.32"/>
<polygon fill="#63b8ff" stroke="#63b8ff" points="534.02,-103.1 524.55,-107.85 534.91,-110.04 534.02,-103.1"/>
</a>
</g>
</g>
<!-- Node14 -->
<g id="Node000014" class="node">
<title>Node14</title>
<g id="a_Node000014"><a xlink:href="../../d9/de6/jps_8hpp.html" target="_top" xlink:title=" ">
<polygon fill="white" stroke="#666666" points="912,-70 865,-70 865,-53 912,-53 912,-70"/>
<text text-anchor="middle" x="888.5" y="-59.6" font-family="Helvetica,sans-Serif" font-size="8.00">jps.hpp</text>
</a>
</g>
</g>
<!-- Node1&#45;&gt;Node14 -->
<g id="edge24_Node000001_Node000014" class="edge">
<title>Node1&#45;&gt;Node14</title>
<g id="a_edge24_Node000001_Node000014"><a xlink:title=" ">
<path fill="none" stroke="#63b8ff" d="M534.71,-109.14C608.42,-102.86 742.9,-89.8 856.5,-70 859.2,-69.53 862.01,-68.97 864.8,-68.38"/>
<polygon fill="#63b8ff" stroke="#63b8ff" points="534.39,-105.65 524.72,-109.98 534.97,-112.63 534.39,-105.65"/>
</a>
</g>
</g>
<!-- Node15 -->
<g id="Node000015" class="node">
<title>Node15</title>
<g id="a_Node000015"><a xlink:href="../../d8/ddf/mgstar_8hpp.html" target="_top" xlink:title=" ">
<polygon fill="white" stroke="#666666" points="992.5,-70 930.5,-70 930.5,-53 992.5,-53 992.5,-70"/>
<text text-anchor="middle" x="961.5" y="-59.6" font-family="Helvetica,sans-Serif" font-size="8.00">mgstar.hpp</text>
</a>
</g>
</g>
<!-- Node1&#45;&gt;Node15 -->
<g id="edge26_Node000001_Node000015" class="edge">
<title>Node1&#45;&gt;Node15</title>
<g id="a_edge26_Node000001_Node000015"><a xlink:title=" ">
<path fill="none" stroke="#63b8ff" d="M534.57,-109.63C618.37,-103.4 782.82,-89.79 921.5,-70 924.3,-69.6 927.2,-69.14 930.1,-68.66"/>
<polygon fill="#63b8ff" stroke="#63b8ff" points="534.23,-106.15 524.52,-110.37 534.75,-113.13 534.23,-106.15"/>
</a>
</g>
</g>
<!-- Node2&#45;&gt;Node3 -->
<g id="edge2_Node000002_Node000003" class="edge">
<title>Node2&#45;&gt;Node3</title>
<g id="a_edge2_Node000002_Node000003"><a xlink:title=" ">
<path fill="none" stroke="#63b8ff" d="M65.03,-53.66C66.54,-53.43 68.03,-53.21 69.5,-53 213.72,-32.5 387.73,-17.1 453.04,-11.65"/>
<polygon fill="#63b8ff" stroke="#63b8ff" points="64.32,-50.23 55.02,-55.3 65.45,-57.14 64.32,-50.23"/>
</a>
</g>
</g>
<!-- Node4&#45;&gt;Node3 -->
<g id="edge4_Node000004_Node000003" class="edge">
<title>Node4&#45;&gt;Node3</title>
<g id="a_edge4_Node000004_Node000003"><a xlink:title=" ">
<path fill="none" stroke="#63b8ff" d="M193.99,-52.78C295.86,-36.63 404.53,-20.51 453.36,-13.33"/>
<polygon fill="#63b8ff" stroke="#63b8ff" points="193.17,-49.37 183.84,-54.4 194.27,-56.28 193.17,-49.37"/>
</a>
</g>
</g>
<!-- Node5&#45;&gt;Node3 -->
<g id="edge6_Node000005_Node000003" class="edge">
<title>Node5&#45;&gt;Node3</title>
<g id="a_edge6_Node000005_Node000003"><a xlink:title=" ">
<path fill="none" stroke="#63b8ff" d="M259.44,-52.64C335.27,-36.46 413.71,-21.65 453.46,-14.28"/>
<polygon fill="#63b8ff" stroke="#63b8ff" points="258.29,-49.31 249.24,-54.83 259.76,-56.16 258.29,-49.31"/>
</a>
</g>
</g>
<!-- Node6&#45;&gt;Node3 -->
<g id="edge9_Node000006_Node000003" class="edge">
<title>Node6&#45;&gt;Node3</title>
<g id="a_edge9_Node000006_Node000003"><a xlink:title=" ">
<path fill="none" stroke="#63b8ff" d="M323.84,-51.5C360.74,-41.55 419.43,-25.71 453.22,-16.59"/>
<polygon fill="#63b8ff" stroke="#63b8ff" points="322.8,-48.16 314.05,-54.14 324.62,-54.92 322.8,-48.16"/>
</a>
</g>
</g>
<!-- Node7&#45;&gt;Node3 -->
<g id="edge11_Node000007_Node000003" class="edge">
<title>Node7&#45;&gt;Node3</title>
<g id="a_edge11_Node000007_Node000003"><a xlink:title=" ">
<path fill="none" stroke="#63b8ff" d="M387.5,-48.93C410.29,-39.16 442.24,-25.47 461.87,-17.06"/>
<polygon fill="#63b8ff" stroke="#63b8ff" points="385.87,-45.82 378.06,-52.97 388.63,-52.25 385.87,-45.82"/>
</a>
</g>
</g>
<!-- Node8&#45;&gt;Node3 -->
<g id="edge13_Node000008_Node000003" class="edge">
<title>Node8&#45;&gt;Node3</title>
<g id="a_edge13_Node000008_Node000003"><a xlink:title=" ">
<path fill="none" stroke="#63b8ff" d="M449.38,-45.22C457.22,-35.92 466.9,-24.45 473.13,-17.06"/>
<polygon fill="#63b8ff" stroke="#63b8ff" points="446.61,-43.07 442.84,-52.97 451.97,-47.59 446.61,-43.07"/>
</a>
</g>
</g>
<!-- Node9&#45;&gt;Node3 -->
<g id="edge15_Node000009_Node000003" class="edge">
<title>Node9&#45;&gt;Node3</title>
<g id="a_edge15_Node000009_Node000003"><a xlink:title=" ">
<path fill="none" stroke="#63b8ff" d="M509.62,-45.22C501.78,-35.92 492.1,-24.45 485.87,-17.06"/>
<polygon fill="#63b8ff" stroke="#63b8ff" points="507.03,-47.59 516.16,-52.97 512.39,-43.07 507.03,-47.59"/>
</a>
</g>
</g>
<!-- Node10&#45;&gt;Node3 -->
<g id="edge17_Node000010_Node000003" class="edge">
<title>Node10&#45;&gt;Node3</title>
<g id="a_edge17_Node000010_Node000003"><a xlink:title=" ">
<path fill="none" stroke="#63b8ff" d="M577.56,-49.19C553.39,-39.41 519.14,-25.54 498.17,-17.06"/>
<polygon fill="#63b8ff" stroke="#63b8ff" points="576.33,-52.47 586.91,-52.97 578.95,-45.98 576.33,-52.47"/>
</a>
</g>
</g>
<!-- Node11&#45;&gt;Node3 -->
<g id="edge19_Node000011_Node000003" class="edge">
<title>Node11&#45;&gt;Node3</title>
<g id="a_edge19_Node000011_Node000003"><a xlink:title=" ">
<path fill="none" stroke="#63b8ff" d="M640.03,-51.06C601.03,-40.96 540.14,-25.2 505.65,-16.27"/>
<polygon fill="#63b8ff" stroke="#63b8ff" points="639.37,-54.5 649.93,-53.62 641.13,-47.73 639.37,-54.5"/>
</a>
</g>
</g>
<!-- Node12&#45;&gt;Node3 -->
<g id="edge21_Node000012_Node000003" class="edge">
<title>Node12&#45;&gt;Node3</title>
<g id="a_edge21_Node000012_Node000003"><a xlink:title=" ">
<path fill="none" stroke="#63b8ff" d="M710.85,-52.71C630.45,-36.69 547.17,-21.58 505.75,-14.17"/>
<polygon fill="#63b8ff" stroke="#63b8ff" points="710.65,-56.24 721.14,-54.77 712.02,-49.38 710.65,-56.24"/>
</a>
</g>
</g>
<!-- Node13&#45;&gt;Node3 -->
<g id="edge23_Node000013_Node000003" class="edge">
<title>Node13&#45;&gt;Node3</title>
<g id="a_edge23_Node000013_Node000003"><a xlink:title=" ">
<path fill="none" stroke="#63b8ff" d="M781.52,-52.93C673.04,-34.38 556.44,-19.14 505.52,-12.72"/>
<polygon fill="#63b8ff" stroke="#63b8ff" points="781.2,-56.43 791.65,-54.68 782.39,-49.53 781.2,-56.43"/>
</a>
</g>
</g>
<!-- Node14&#45;&gt;Node3 -->
<g id="edge25_Node000014_Node000003" class="edge">
<title>Node14&#45;&gt;Node3</title>
<g id="a_edge25_Node000014_Node000003"><a xlink:title=" ">
<path fill="none" stroke="#63b8ff" d="M854.58,-52.85C718.03,-29.53 565.74,-16.23 505.7,-11.48"/>
<polygon fill="#63b8ff" stroke="#63b8ff" points="854.35,-56.37 864.8,-54.62 855.54,-49.47 854.35,-56.37"/>
</a>
</g>
</g>
<!-- Node15&#45;&gt;Node3 -->
<g id="edge27_Node000015_Node000003" class="edge">
<title>Node15&#45;&gt;Node3</title>
<g id="a_edge27_Node000015_Node000003"><a xlink:title=" ">
<path fill="none" stroke="#63b8ff" d="M919.87,-52.89C756.5,-29.97 572.47,-15.97 505.5,-11.26"/>
<polygon fill="#63b8ff" stroke="#63b8ff" points="919.71,-56.41 930.1,-54.34 920.69,-49.48 919.71,-56.41"/>
</a>
</g>
</g>
</g>
</svg>
