<?xml version="1.0" encoding="UTF-8" standalone="no"?>
<!DOCTYPE svg PUBLIC "-//W3C//DTD SVG 1.1//EN"
 "http://www.w3.org/Graphics/SVG/1.1/DTD/svg11.dtd">
<!-- Generated by graphviz version 2.43.0 (0)
 -->
<!-- Title: existence_set.hpp Pages: 1 -->
<svg width="846pt" height="131pt"
 viewBox="0.00 0.00 846.00 131.00" xmlns="http://www.w3.org/2000/svg" xmlns:xlink="http://www.w3.org/1999/xlink">
<g id="graph0" class="graph" transform="scale(1 1) rotate(0) translate(4 127)">
<title>existence_set.hpp</title>
<!-- Node1 -->
<g id="Node000001" class="node">
<title>Node1</title>
<g id="a_Node000001"><a xlink:title=" ">
<polygon fill="#999999" stroke="#666666" points="444,-123 364,-123 364,-106 444,-106 444,-123"/>
<text text-anchor="middle" x="404" y="-112.6" font-family="Helvetica,sans-Serif" font-size="8.00">existence_set.hpp</text>
</a>
</g>
</g>
<!-- Node2 -->
<g id="Node000002" class="node">
<title>Node2</title>
<g id="a_Node000002"><a xlink:href="../../dc/da9/astar_8hpp.html" target="_top" xlink:title=" ">
<polygon fill="white" stroke="#666666" points="50,-70 0,-70 0,-53 50,-53 50,-70"/>
<text text-anchor="middle" x="25" y="-59.6" font-family="Helvetica,sans-Serif" font-size="8.00">astar.hpp</text>
</a>
</g>
</g>
<!-- Node1&#45;&gt;Node2 -->
<g id="edge1_Node000001_Node000002" class="edge">
<title>Node1&#45;&gt;Node2</title>
<g id="a_edge1_Node000001_Node000002"><a xlink:title=" ">
<path fill="none" stroke="#63b8ff" d="M353.65,-108.06C287.15,-100.64 166.49,-86.39 64,-70 59.51,-69.28 54.74,-68.43 50.13,-67.57"/>
<polygon fill="#63b8ff" stroke="#63b8ff" points="353.52,-111.56 363.84,-109.19 354.29,-104.61 353.52,-111.56"/>
</a>
</g>
</g>
<!-- Node3 -->
<g id="Node000003" class="node">
<title>Node3</title>
<g id="a_Node000003"><a xlink:href="../../d9/d96/chdr_8hpp.html" target="_top" xlink:title=" ">
<polygon fill="white" stroke="#666666" points="427.5,-17 380.5,-17 380.5,0 427.5,0 427.5,-17"/>
<text text-anchor="middle" x="404" y="-6.6" font-family="Helvetica,sans-Serif" font-size="8.00">chdr.hpp</text>
</a>
</g>
</g>
<!-- Node1&#45;&gt;Node3 -->
<g id="edge7_Node000001_Node000003" class="edge">
<title>Node1&#45;&gt;Node3</title>
<g id="a_edge7_Node000001_Node000003"><a xlink:title=" ">
<path fill="none" stroke="#63b8ff" d="M353.72,-113.99C275.35,-113.57 129.64,-107.59 97,-70 58.62,-25.8 302.4,-13.14 380.5,-10.24"/>
<polygon fill="#63b8ff" stroke="#63b8ff" points="353.84,-117.49 363.85,-114.02 353.86,-110.49 353.84,-117.49"/>
</a>
</g>
</g>
<!-- Node4 -->
<g id="Node000004" class="node">
<title>Node4</title>
<g id="a_Node000004"><a xlink:href="../../d3/d77/best__first_8hpp.html" target="_top" xlink:title=" ">
<polygon fill="white" stroke="#666666" points="171.5,-70 106.5,-70 106.5,-53 171.5,-53 171.5,-70"/>
<text text-anchor="middle" x="139" y="-59.6" font-family="Helvetica,sans-Serif" font-size="8.00">best_first.hpp</text>
</a>
</g>
</g>
<!-- Node1&#45;&gt;Node4 -->
<g id="edge3_Node000001_Node000004" class="edge">
<title>Node1&#45;&gt;Node4</title>
<g id="a_edge3_Node000001_Node000004"><a xlink:title=" ">
<path fill="none" stroke="#63b8ff" d="M354.96,-104.06C301.5,-93.77 217.47,-77.6 171.58,-68.77"/>
<polygon fill="#63b8ff" stroke="#63b8ff" points="354.42,-107.52 364.9,-105.97 355.74,-100.65 354.42,-107.52"/>
</a>
</g>
</g>
<!-- Node5 -->
<g id="Node000005" class="node">
<title>Node5</title>
<g id="a_Node000005"><a xlink:href="../../da/d36/bfs_8hpp.html" target="_top" xlink:title=" ">
<polygon fill="white" stroke="#666666" points="232.5,-70 189.5,-70 189.5,-53 232.5,-53 232.5,-70"/>
<text text-anchor="middle" x="211" y="-59.6" font-family="Helvetica,sans-Serif" font-size="8.00">bfs.hpp</text>
</a>
</g>
</g>
<!-- Node1&#45;&gt;Node5 -->
<g id="edge5_Node000001_Node000005" class="edge">
<title>Node1&#45;&gt;Node5</title>
<g id="a_edge5_Node000001_Node000005"><a xlink:title=" ">
<path fill="none" stroke="#63b8ff" d="M365.63,-103.36C325.8,-92.84 264.91,-76.75 232.71,-68.24"/>
<polygon fill="#63b8ff" stroke="#63b8ff" points="364.96,-106.8 375.52,-105.97 366.75,-100.04 364.96,-106.8"/>
</a>
</g>
</g>
<!-- Node6 -->
<g id="Node000006" class="node">
<title>Node6</title>
<g id="a_Node000006"><a xlink:href="../../d3/dec/dfs_8hpp.html" target="_top" xlink:title=" ">
<polygon fill="white" stroke="#666666" points="293.5,-70 250.5,-70 250.5,-53 293.5,-53 293.5,-70"/>
<text text-anchor="middle" x="272" y="-59.6" font-family="Helvetica,sans-Serif" font-size="8.00">dfs.hpp</text>
</a>
</g>
</g>
<!-- Node1&#45;&gt;Node6 -->
<g id="edge8_Node000001_Node000006" class="edge">
<title>Node1&#45;&gt;Node6</title>
<g id="a_edge8_Node000001_Node000006"><a xlink:title=" ">
<path fill="none" stroke="#63b8ff" d="M375.06,-102.32C349.73,-92.53 313.62,-78.58 291.56,-70.06"/>
<polygon fill="#63b8ff" stroke="#63b8ff" points="373.93,-105.64 384.52,-105.97 376.46,-99.11 373.93,-105.64"/>
</a>
</g>
</g>
<!-- Node7 -->
<g id="Node000007" class="node">
<title>Node7</title>
<g id="a_Node000007"><a xlink:href="../../d8/d12/flood_8hpp.html" target="_top" xlink:title=" ">
<polygon fill="white" stroke="#666666" points="362,-70 312,-70 312,-53 362,-53 362,-70"/>
<text text-anchor="middle" x="337" y="-59.6" font-family="Helvetica,sans-Serif" font-size="8.00">flood.hpp</text>
</a>
</g>
</g>
<!-- Node1&#45;&gt;Node7 -->
<g id="edge10_Node000001_Node000007" class="edge">
<title>Node1&#45;&gt;Node7</title>
<g id="a_edge10_Node000001_Node000007"><a xlink:title=" ">
<path fill="none" stroke="#63b8ff" d="M386.14,-99.91C373.58,-90.34 357.23,-77.9 346.93,-70.06"/>
<polygon fill="#63b8ff" stroke="#63b8ff" points="384.04,-102.7 394.11,-105.97 388.28,-97.13 384.04,-102.7"/>
</a>
</g>
</g>
<!-- Node8 -->
<g id="Node000008" class="node">
<title>Node8</title>
<g id="a_Node000008"><a xlink:href="../../d1/d5a/fstar_8hpp.html" target="_top" xlink:title=" ">
<polygon fill="white" stroke="#666666" points="427.5,-70 380.5,-70 380.5,-53 427.5,-53 427.5,-70"/>
<text text-anchor="middle" x="404" y="-59.6" font-family="Helvetica,sans-Serif" font-size="8.00">fstar.hpp</text>
</a>
</g>
</g>
<!-- Node1&#45;&gt;Node8 -->
<g id="edge12_Node000001_Node000008" class="edge">
<title>Node1&#45;&gt;Node8</title>
<g id="a_edge12_Node000001_Node000008"><a xlink:title=" ">
<path fill="none" stroke="#63b8ff" d="M404,-95.91C404,-87.08 404,-76.85 404,-70.06"/>
<polygon fill="#63b8ff" stroke="#63b8ff" points="400.5,-95.97 404,-105.97 407.5,-95.97 400.5,-95.97"/>
</a>
</g>
</g>
<!-- Node9 -->
<g id="Node000009" class="node">
<title>Node9</title>
<g id="a_Node000009"><a xlink:href="../../d3/d3e/gbest__first_8hpp.html" target="_top" xlink:title=" ">
<polygon fill="white" stroke="#666666" points="514.5,-70 445.5,-70 445.5,-53 514.5,-53 514.5,-70"/>
<text text-anchor="middle" x="480" y="-59.6" font-family="Helvetica,sans-Serif" font-size="8.00">gbest_first.hpp</text>
</a>
</g>
</g>
<!-- Node1&#45;&gt;Node9 -->
<g id="edge14_Node000001_Node000009" class="edge">
<title>Node1&#45;&gt;Node9</title>
<g id="a_edge14_Node000001_Node000009"><a xlink:title=" ">
<path fill="none" stroke="#63b8ff" d="M423.85,-100.18C438.15,-90.58 456.93,-77.98 468.74,-70.06"/>
<polygon fill="#63b8ff" stroke="#63b8ff" points="421.57,-97.5 415.21,-105.97 425.47,-103.31 421.57,-97.5"/>
</a>
</g>
</g>
<!-- Node10 -->
<g id="Node000010" class="node">
<title>Node10</title>
<g id="a_Node000010"><a xlink:href="../../de/d94/gbfs_8hpp.html" target="_top" xlink:title=" ">
<polygon fill="white" stroke="#666666" points="579.5,-70 532.5,-70 532.5,-53 579.5,-53 579.5,-70"/>
<text text-anchor="middle" x="556" y="-59.6" font-family="Helvetica,sans-Serif" font-size="8.00">gbfs.hpp</text>
</a>
</g>
</g>
<!-- Node1&#45;&gt;Node10 -->
<g id="edge16_Node000001_Node000010" class="edge">
<title>Node1&#45;&gt;Node10</title>
<g id="a_edge16_Node000001_Node000010"><a xlink:title=" ">
<path fill="none" stroke="#63b8ff" d="M436.17,-102.71C465.38,-92.9 507.73,-78.69 533.48,-70.06"/>
<polygon fill="#63b8ff" stroke="#63b8ff" points="434.8,-99.48 426.43,-105.97 437.02,-106.11 434.8,-99.48"/>
</a>
</g>
</g>
<!-- Node11 -->
<g id="Node000011" class="node">
<title>Node11</title>
<g id="a_Node000011"><a xlink:href="../../d4/df2/gdfs_8hpp.html" target="_top" xlink:title=" ">
<polygon fill="white" stroke="#666666" points="644.5,-70 597.5,-70 597.5,-53 644.5,-53 644.5,-70"/>
<text text-anchor="middle" x="621" y="-59.6" font-family="Helvetica,sans-Serif" font-size="8.00">gdfs.hpp</text>
</a>
</g>
</g>
<!-- Node1&#45;&gt;Node11 -->
<g id="edge18_Node000001_Node000011" class="edge">
<title>Node1&#45;&gt;Node11</title>
<g id="a_edge18_Node000001_Node000011"><a xlink:title=" ">
<path fill="none" stroke="#63b8ff" d="M445.78,-103.68C490.78,-93.1 560.82,-76.64 597.22,-68.09"/>
<polygon fill="#63b8ff" stroke="#63b8ff" points="444.95,-100.28 436.02,-105.97 446.55,-107.09 444.95,-100.28"/>
</a>
</g>
</g>
<!-- Node12 -->
<g id="Node000012" class="node">
<title>Node12</title>
<g id="a_Node000012"><a xlink:href="../../d3/d3e/gjps_8hpp.html" target="_top" xlink:title=" ">
<polygon fill="white" stroke="#666666" points="709.5,-70 662.5,-70 662.5,-53 709.5,-53 709.5,-70"/>
<text text-anchor="middle" x="686" y="-59.6" font-family="Helvetica,sans-Serif" font-size="8.00">gjps.hpp</text>
</a>
</g>
</g>
<!-- Node1&#45;&gt;Node12 -->
<g id="edge20_Node000001_Node000012" class="edge">
<title>Node1&#45;&gt;Node12</title>
<g id="a_edge20_Node000001_Node000012"><a xlink:title=" ">
<path fill="none" stroke="#63b8ff" d="M454.43,-105.61C505.04,-97.48 585.15,-84.05 654,-70 656.68,-69.45 659.49,-68.85 662.27,-68.22"/>
<polygon fill="#63b8ff" stroke="#63b8ff" points="453.73,-102.17 444.4,-107.21 454.83,-109.09 453.73,-102.17"/>
</a>
</g>
</g>
<!-- Node13 -->
<g id="Node000013" class="node">
<title>Node13</title>
<g id="a_Node000013"><a xlink:href="../../d1/def/gstar_8hpp.html" target="_top" xlink:title=" ">
<polygon fill="white" stroke="#666666" points="778,-70 728,-70 728,-53 778,-53 778,-70"/>
<text text-anchor="middle" x="753" y="-59.6" font-family="Helvetica,sans-Serif" font-size="8.00">gstar.hpp</text>
</a>
</g>
</g>
<!-- Node1&#45;&gt;Node13 -->
<g id="edge22_Node000001_Node000013" class="edge">
<title>Node1&#45;&gt;Node13</title>
<g id="a_edge22_Node000001_Node000013"><a xlink:title=" ">
<path fill="none" stroke="#63b8ff" d="M454.41,-107.8C516.77,-100.45 626.08,-86.64 719,-70 721.86,-69.49 724.84,-68.91 727.79,-68.3"/>
<polygon fill="#63b8ff" stroke="#63b8ff" points="453.97,-104.33 444.44,-108.96 454.78,-111.28 453.97,-104.33"/>
</a>
</g>
</g>
<!-- Node14 -->
<g id="Node000014" class="node">
<title>Node14</title>
<g id="a_Node000014"><a xlink:href="../../d9/de6/jps_8hpp.html" target="_top" xlink:title=" ">
<polygon fill="white" stroke="#666666" points="838,-70 796,-70 796,-53 838,-53 838,-70"/>
<text text-anchor="middle" x="817" y="-59.6" font-family="Helvetica,sans-Serif" font-size="8.00">jps.hpp</text>
</a>
</g>
</g>
<!-- Node1&#45;&gt;Node14 -->
<g id="edge24_Node000001_Node000014" class="edge">
<title>Node1&#45;&gt;Node14</title>
<g id="a_edge24_Node000001_Node000014"><a xlink:title=" ">
<path fill="none" stroke="#63b8ff" d="M454.59,-109.89C528.17,-104.16 668.85,-91.38 787,-70 789.85,-69.48 792.84,-68.85 795.77,-68.18"/>
<polygon fill="#63b8ff" stroke="#63b8ff" points="453.93,-106.43 444.23,-110.69 454.47,-113.41 453.93,-106.43"/>
</a>
</g>
</g>
<!-- Node2&#45;&gt;Node3 -->
<g id="edge2_Node000002_Node000003" class="edge">
<title>Node2&#45;&gt;Node3</title>
<g id="a_edge2_Node000002_Node000003"><a xlink:title=" ">
<path fill="none" stroke="#63b8ff" d="M60.15,-53.63C61.45,-53.41 62.74,-53.2 64,-53 182.41,-34.06 325.06,-17.99 380.43,-12"/>
<polygon fill="#63b8ff" stroke="#63b8ff" points="59.36,-50.22 50.13,-55.43 60.59,-57.11 59.36,-50.22"/>
</a>
</g>
</g>
<!-- Node4&#45;&gt;Node3 -->
<g id="edge4_Node000004_Node000003" class="edge">
<title>Node4&#45;&gt;Node3</title>
<g id="a_edge4_Node000004_Node000003"><a xlink:title=" ">
<path fill="none" stroke="#63b8ff" d="M181.8,-52.26C238.23,-41.4 335.58,-22.67 380.29,-14.06"/>
<polygon fill="#63b8ff" stroke="#63b8ff" points="180.92,-48.87 171.76,-54.2 182.24,-55.74 180.92,-48.87"/>
</a>
</g>
</g>
<!-- Node5&#45;&gt;Node3 -->
<g id="edge6_Node000005_Node000003" class="edge">
<title>Node5&#45;&gt;Node3</title>
<g id="a_edge6_Node000005_Node000003"><a xlink:title=" ">
<path fill="none" stroke="#63b8ff" d="M242.44,-52.19C281.01,-42 345.52,-24.95 380.21,-15.79"/>
<polygon fill="#63b8ff" stroke="#63b8ff" points="241.54,-48.81 232.76,-54.75 243.33,-55.58 241.54,-48.81"/>
</a>
</g>
</g>
<!-- Node6&#45;&gt;Node3 -->
<g id="edge9_Node000006_Node000003" class="edge">
<title>Node6&#45;&gt;Node3</title>
<g id="a_edge9_Node000006_Node000003"><a xlink:title=" ">
<path fill="none" stroke="#63b8ff" d="M300.94,-49.32C326.27,-39.53 362.38,-25.58 384.44,-17.06"/>
<polygon fill="#63b8ff" stroke="#63b8ff" points="299.54,-46.11 291.48,-52.97 302.07,-52.64 299.54,-46.11"/>
</a>
</g>
</g>
<!-- Node7&#45;&gt;Node3 -->
<g id="edge11_Node000007_Node000003" class="edge">
<title>Node7&#45;&gt;Node3</title>
<g id="a_edge11_Node000007_Node000003"><a xlink:title=" ">
<path fill="none" stroke="#63b8ff" d="M354.86,-46.91C367.42,-37.34 383.77,-24.9 394.07,-17.06"/>
<polygon fill="#63b8ff" stroke="#63b8ff" points="352.72,-44.13 346.89,-52.97 356.96,-49.7 352.72,-44.13"/>
</a>
</g>
</g>
<!-- Node8&#45;&gt;Node3 -->
<g id="edge13_Node000008_Node000003" class="edge">
<title>Node8&#45;&gt;Node3</title>
<g id="a_edge13_Node000008_Node000003"><a xlink:title=" ">
<path fill="none" stroke="#63b8ff" d="M404,-42.91C404,-34.08 404,-23.85 404,-17.06"/>
<polygon fill="#63b8ff" stroke="#63b8ff" points="400.5,-42.97 404,-52.97 407.5,-42.97 400.5,-42.97"/>
</a>
</g>
</g>
<!-- Node9&#45;&gt;Node3 -->
<g id="edge15_Node000009_Node000003" class="edge">
<title>Node9&#45;&gt;Node3</title>
<g id="a_edge15_Node000009_Node000003"><a xlink:title=" ">
<path fill="none" stroke="#63b8ff" d="M460.15,-47.18C445.85,-37.58 427.07,-24.98 415.26,-17.06"/>
<polygon fill="#63b8ff" stroke="#63b8ff" points="458.53,-50.31 468.79,-52.97 462.43,-44.5 458.53,-50.31"/>
</a>
</g>
</g>
<!-- Node10&#45;&gt;Node3 -->
<g id="edge17_Node000010_Node000003" class="edge">
<title>Node10&#45;&gt;Node3</title>
<g id="a_edge17_Node000010_Node000003"><a xlink:title=" ">
<path fill="none" stroke="#63b8ff" d="M523.83,-49.71C494.62,-39.9 452.27,-25.69 426.52,-17.06"/>
<polygon fill="#63b8ff" stroke="#63b8ff" points="522.98,-53.11 533.57,-52.97 525.2,-46.48 522.98,-53.11"/>
</a>
</g>
</g>
<!-- Node11&#45;&gt;Node3 -->
<g id="edge19_Node000011_Node000003" class="edge">
<title>Node11&#45;&gt;Node3</title>
<g id="a_edge19_Node000011_Node000003"><a xlink:title=" ">
<path fill="none" stroke="#63b8ff" d="M587.37,-52.6C543.06,-42.18 466.23,-24.13 427.61,-15.05"/>
<polygon fill="#63b8ff" stroke="#63b8ff" points="586.83,-56.06 597.36,-54.95 588.43,-49.25 586.83,-56.06"/>
</a>
</g>
</g>
<!-- Node12&#45;&gt;Node3 -->
<g id="edge21_Node000012_Node000003" class="edge">
<title>Node12&#45;&gt;Node3</title>
<g id="a_edge21_Node000012_Node000003"><a xlink:title=" ">
<path fill="none" stroke="#63b8ff" d="M652.36,-52.76C564.03,-34.95 470.33,-19.83 427.52,-13.13"/>
<polygon fill="#63b8ff" stroke="#63b8ff" points="651.77,-56.21 662.27,-54.78 653.17,-49.35 651.77,-56.21"/>
</a>
</g>
</g>
<!-- Node13&#45;&gt;Node3 -->
<g id="edge23_Node000013_Node000003" class="edge">
<title>Node13&#45;&gt;Node3</title>
<g id="a_edge23_Node000013_Node000003"><a xlink:title=" ">
<path fill="none" stroke="#63b8ff" d="M717.83,-52.93C603.54,-32.76 479.01,-17.92 427.81,-12.13"/>
<polygon fill="#63b8ff" stroke="#63b8ff" points="717.33,-56.4 727.79,-54.7 718.56,-49.5 717.33,-56.4"/>
</a>
</g>
</g>
<!-- Node14&#45;&gt;Node3 -->
<g id="edge25_Node000014_Node000003" class="edge">
<title>Node14&#45;&gt;Node3</title>
<g id="a_edge25_Node000014_Node000003"><a xlink:title=" ">
<path fill="none" stroke="#63b8ff" d="M785.65,-53C644.71,-28.02 487,-15.33 427.91,-11.11"/>
<polygon fill="#63b8ff" stroke="#63b8ff" points="785.31,-56.5 795.77,-54.82 786.55,-49.61 785.31,-56.5"/>
</a>
</g>
</g>
</g>
</svg>
