<?xml version="1.0" encoding="UTF-8" standalone="no"?>
<!DOCTYPE svg PUBLIC "-//W3C//DTD SVG 1.1//EN"
 "http://www.w3.org/Graphics/SVG/1.1/DTD/svg11.dtd">
<!-- Generated by graphviz version 2.43.0 (0)
 -->
<!-- Title: existence_set.hpp Pages: 1 -->
<svg width="1240pt" height="131pt"
 viewBox="0.00 0.00 1240.00 131.00" xmlns="http://www.w3.org/2000/svg" xmlns:xlink="http://www.w3.org/1999/xlink">
<g id="graph0" class="graph" transform="scale(1 1) rotate(0) translate(4 127)">
<title>existence_set.hpp</title>
<!-- Node1 -->
<g id="Node000001" class="node">
<title>Node1</title>
<g id="a_Node000001"><a xlink:title=" ">
<polygon fill="#999999" stroke="#666666" points="440,-123 360,-123 360,-106 440,-106 440,-123"/>
<text text-anchor="middle" x="400" y="-112.6" font-family="Helvetica,sans-Serif" font-size="8.00">existence_set.hpp</text>
</a>
</g>
</g>
<!-- Node2 -->
<g id="Node000002" class="node">
<title>Node2</title>
<g id="a_Node000002"><a xlink:href="../../dc/da9/astar_8hpp.html" target="_top" xlink:title=" ">
<polygon fill="white" stroke="#666666" points="50,-17 0,-17 0,0 50,0 50,-17"/>
<text text-anchor="middle" x="25" y="-6.6" font-family="Helvetica,sans-Serif" font-size="8.00">astar.hpp</text>
</a>
</g>
</g>
<!-- Node1&#45;&gt;Node2 -->
<g id="edge1_Node000001_Node000002" class="edge">
<title>Node1&#45;&gt;Node2</title>
<g id="a_edge1_Node000001_Node000002"><a xlink:title=" ">
<path fill="none" stroke="#63b8ff" d="M354.45,-103.72C317.07,-95.46 262.85,-82.94 216,-70 154.14,-52.92 82.24,-29.03 46.9,-17.02"/>
<polygon fill="#63b8ff" stroke="#63b8ff" points="354.01,-107.21 364.53,-105.94 355.51,-100.37 354.01,-107.21"/>
</a>
</g>
</g>
<!-- Node3 -->
<g id="Node000003" class="node">
<title>Node3</title>
<g id="a_Node000003"><a xlink:href="../../d3/d77/best__first_8hpp.html" target="_top" xlink:title=" ">
<polygon fill="white" stroke="#666666" points="133.5,-17 68.5,-17 68.5,0 133.5,0 133.5,-17"/>
<text text-anchor="middle" x="101" y="-6.6" font-family="Helvetica,sans-Serif" font-size="8.00">best_first.hpp</text>
</a>
</g>
</g>
<!-- Node1&#45;&gt;Node3 -->
<g id="edge2_Node000001_Node000003" class="edge">
<title>Node1&#45;&gt;Node3</title>
<g id="a_edge2_Node000001_Node000003"><a xlink:title=" ">
<path fill="none" stroke="#63b8ff" d="M365.74,-103.02C338.15,-94.46 298.43,-81.89 264,-70 211.79,-51.97 150.93,-28.8 120.47,-17.05"/>
<polygon fill="#63b8ff" stroke="#63b8ff" points="364.73,-106.37 375.32,-105.98 366.8,-99.68 364.73,-106.37"/>
</a>
</g>
</g>
<!-- Node4 -->
<g id="Node000004" class="node">
<title>Node4</title>
<g id="a_Node000004"><a xlink:href="../../da/d36/bfs_8hpp.html" target="_top" xlink:title=" ">
<polygon fill="white" stroke="#666666" points="194.5,-17 151.5,-17 151.5,0 194.5,0 194.5,-17"/>
<text text-anchor="middle" x="173" y="-6.6" font-family="Helvetica,sans-Serif" font-size="8.00">bfs.hpp</text>
</a>
</g>
</g>
<!-- Node1&#45;&gt;Node4 -->
<g id="edge3_Node000001_Node000004" class="edge">
<title>Node1&#45;&gt;Node4</title>
<g id="a_edge3_Node000001_Node000004"><a xlink:title=" ">
<path fill="none" stroke="#63b8ff" d="M373.99,-101.77C354.66,-93.05 327.66,-80.83 304,-70 262.77,-51.14 214.35,-28.7 189.53,-17.18"/>
<polygon fill="#63b8ff" stroke="#63b8ff" points="372.78,-105.07 383.33,-105.99 375.66,-98.69 372.78,-105.07"/>
</a>
</g>
</g>
<!-- Node5 -->
<g id="Node000005" class="node">
<title>Node5</title>
<g id="a_Node000005"><a xlink:href="../../d3/dec/dfs_8hpp.html" target="_top" xlink:title=" ">
<polygon fill="white" stroke="#666666" points="255.5,-17 212.5,-17 212.5,0 255.5,0 255.5,-17"/>
<text text-anchor="middle" x="234" y="-6.6" font-family="Helvetica,sans-Serif" font-size="8.00">dfs.hpp</text>
</a>
</g>
</g>
<!-- Node1&#45;&gt;Node5 -->
<g id="edge4_Node000001_Node000005" class="edge">
<title>Node1&#45;&gt;Node5</title>
<g id="a_edge4_Node000001_Node000005"><a xlink:title=" ">
<path fill="none" stroke="#63b8ff" d="M379.3,-100.53C344.28,-78.59 274.42,-34.82 246.22,-17.16"/>
<polygon fill="#63b8ff" stroke="#63b8ff" points="377.46,-103.51 387.79,-105.85 381.18,-97.58 377.46,-103.51"/>
</a>
</g>
</g>
<!-- Node6 -->
<g id="Node000006" class="node">
<title>Node6</title>
<g id="a_Node000006"><a xlink:href="../../d8/d12/flood_8hpp.html" target="_top" xlink:title=" ">
<polygon fill="white" stroke="#666666" points="324,-17 274,-17 274,0 324,0 324,-17"/>
<text text-anchor="middle" x="299" y="-6.6" font-family="Helvetica,sans-Serif" font-size="8.00">flood.hpp</text>
</a>
</g>
</g>
<!-- Node1&#45;&gt;Node6 -->
<g id="edge5_Node000001_Node000006" class="edge">
<title>Node1&#45;&gt;Node6</title>
<g id="a_edge5_Node000001_Node000006"><a xlink:title=" ">
<path fill="none" stroke="#63b8ff" d="M385.25,-98.31C363.33,-75.74 322.98,-34.19 306.41,-17.12"/>
<polygon fill="#63b8ff" stroke="#63b8ff" points="382.93,-100.95 392.41,-105.68 387.95,-96.07 382.93,-100.95"/>
</a>
</g>
</g>
<!-- Node7 -->
<g id="Node000007" class="node">
<title>Node7</title>
<g id="a_Node000007"><a xlink:href="../../d1/d5a/fstar_8hpp.html" target="_top" xlink:title=" ">
<polygon fill="white" stroke="#666666" points="389.5,-17 342.5,-17 342.5,0 389.5,0 389.5,-17"/>
<text text-anchor="middle" x="366" y="-6.6" font-family="Helvetica,sans-Serif" font-size="8.00">fstar.hpp</text>
</a>
</g>
</g>
<!-- Node1&#45;&gt;Node7 -->
<g id="edge6_Node000001_Node000007" class="edge">
<title>Node1&#45;&gt;Node7</title>
<g id="a_edge6_Node000001_Node000007"><a xlink:title=" ">
<path fill="none" stroke="#63b8ff" d="M394.34,-96.18C386.83,-73.21 373.9,-33.67 368.49,-17.12"/>
<polygon fill="#63b8ff" stroke="#63b8ff" points="391.01,-97.27 397.44,-105.68 397.66,-95.09 391.01,-97.27"/>
</a>
</g>
</g>
<!-- Node8 -->
<g id="Node000008" class="node">
<title>Node8</title>
<g id="a_Node000008"><a xlink:href="../../de/d94/gbfs_8hpp_source.html" target="_top" xlink:title=" ">
<polygon fill="white" stroke="#666666" points="454.5,-17 407.5,-17 407.5,0 454.5,0 454.5,-17"/>
<text text-anchor="middle" x="431" y="-6.6" font-family="Helvetica,sans-Serif" font-size="8.00">gbfs.hpp</text>
</a>
</g>
</g>
<!-- Node1&#45;&gt;Node8 -->
<g id="edge7_Node000001_Node000008" class="edge">
<title>Node1&#45;&gt;Node8</title>
<g id="a_edge7_Node000001_Node000008"><a xlink:title=" ">
<path fill="none" stroke="#63b8ff" d="M405.26,-95.86C412.12,-72.86 423.82,-33.59 428.73,-17.12"/>
<polygon fill="#63b8ff" stroke="#63b8ff" points="401.83,-95.1 402.33,-105.68 408.54,-97.1 401.83,-95.1"/>
</a>
</g>
</g>
<!-- Node9 -->
<g id="Node000009" class="node">
<title>Node9</title>
<g id="a_Node000009"><a xlink:href="../../d4/df2/gdfs_8hpp_source.html" target="_top" xlink:title=" ">
<polygon fill="white" stroke="#666666" points="519.5,-17 472.5,-17 472.5,0 519.5,0 519.5,-17"/>
<text text-anchor="middle" x="496" y="-6.6" font-family="Helvetica,sans-Serif" font-size="8.00">gdfs.hpp</text>
</a>
</g>
</g>
<!-- Node1&#45;&gt;Node9 -->
<g id="edge8_Node000001_Node000009" class="edge">
<title>Node1&#45;&gt;Node9</title>
<g id="a_edge8_Node000001_Node000009"><a xlink:title=" ">
<path fill="none" stroke="#63b8ff" d="M414.02,-98.31C434.85,-75.74 473.21,-34.19 488.96,-17.12"/>
<polygon fill="#63b8ff" stroke="#63b8ff" points="411.43,-95.96 407.22,-105.68 416.57,-100.71 411.43,-95.96"/>
</a>
</g>
</g>
<!-- Node10 -->
<g id="Node000010" class="node">
<title>Node10</title>
<g id="a_Node000010"><a xlink:href="../../d3/d3e/gjps_8hpp_source.html" target="_top" xlink:title=" ">
<polygon fill="white" stroke="#666666" points="584.5,-17 537.5,-17 537.5,0 584.5,0 584.5,-17"/>
<text text-anchor="middle" x="561" y="-6.6" font-family="Helvetica,sans-Serif" font-size="8.00">gjps.hpp</text>
</a>
</g>
</g>
<!-- Node1&#45;&gt;Node10 -->
<g id="edge9_Node000001_Node000010" class="edge">
<title>Node1&#45;&gt;Node10</title>
<g id="a_edge9_Node000001_Node000010"><a xlink:title=" ">
<path fill="none" stroke="#63b8ff" d="M420.52,-100.25C454.62,-78.22 521.91,-34.75 549.14,-17.16"/>
<polygon fill="#63b8ff" stroke="#63b8ff" points="418.34,-97.49 411.84,-105.85 422.14,-103.37 418.34,-97.49"/>
</a>
</g>
</g>
<!-- Node11 -->
<g id="Node000011" class="node">
<title>Node11</title>
<g id="a_Node000011"><a xlink:href="../../d1/def/gstar_8hpp_source.html" target="_top" xlink:title=" ">
<polygon fill="white" stroke="#666666" points="1172,-17 1122,-17 1122,0 1172,0 1172,-17"/>
<text text-anchor="middle" x="1147" y="-6.6" font-family="Helvetica,sans-Serif" font-size="8.00">gstar.hpp</text>
</a>
</g>
</g>
<!-- Node1&#45;&gt;Node11 -->
<g id="edge10_Node000001_Node000011" class="edge">
<title>Node1&#45;&gt;Node11</title>
<g id="a_edge10_Node000001_Node000011"><a xlink:title=" ">
<path fill="none" stroke="#63b8ff" d="M450.47,-108.12C567.43,-95.34 865.87,-60.9 1113,-17 1115.86,-16.49 1118.84,-15.91 1121.8,-15.3"/>
<polygon fill="#63b8ff" stroke="#63b8ff" points="449.95,-104.66 440.38,-109.22 450.7,-111.62 449.95,-104.66"/>
</a>
</g>
</g>
<!-- Node12 -->
<g id="Node000012" class="node">
<title>Node12</title>
<g id="a_Node000012"><a xlink:href="../../d9/de6/jps_8hpp_source.html" target="_top" xlink:title=" ">
<polygon fill="white" stroke="#666666" points="1232,-17 1190,-17 1190,0 1232,0 1232,-17"/>
<text text-anchor="middle" x="1211" y="-6.6" font-family="Helvetica,sans-Serif" font-size="8.00">jps.hpp</text>
</a>
</g>
</g>
<!-- Node1&#45;&gt;Node12 -->
<g id="edge11_Node000001_Node000012" class="edge">
<title>Node1&#45;&gt;Node12</title>
<g id="a_edge11_Node000001_Node000012"><a xlink:title=" ">
<path fill="none" stroke="#63b8ff" d="M450.19,-110.02C574.85,-100.79 908.19,-72.5 1181,-17 1183.84,-16.42 1186.82,-15.75 1189.75,-15.06"/>
<polygon fill="#63b8ff" stroke="#63b8ff" points="449.9,-106.53 440.18,-110.75 450.41,-113.51 449.9,-106.53"/>
</a>
</g>
</g>
<!-- Node13 -->
<g id="Node000013" class="node">
<title>Node13</title>
<g id="a_Node000013"><a xlink:href="../../d2/d1c/solver_8hpp.html" target="_top" xlink:title=" ">
<polygon fill="white" stroke="#666666" points="587.5,-70 534.5,-70 534.5,-53 587.5,-53 587.5,-70"/>
<text text-anchor="middle" x="561" y="-59.6" font-family="Helvetica,sans-Serif" font-size="8.00">solver.hpp</text>
</a>
</g>
</g>
<!-- Node1&#45;&gt;Node13 -->
<g id="edge12_Node000001_Node000013" class="edge">
<title>Node1&#45;&gt;Node13</title>
<g id="a_edge12_Node000001_Node000013"><a xlink:title=" ">
<path fill="none" stroke="#63b8ff" d="M433.67,-102.84C464.63,-93.03 509.76,-78.73 537.15,-70.06"/>
<polygon fill="#63b8ff" stroke="#63b8ff" points="432.23,-99.62 423.76,-105.97 434.35,-106.29 432.23,-99.62"/>
</a>
</g>
</g>
<!-- Node13&#45;&gt;Node2 -->
<g id="edge13_Node000013_Node000002" class="edge">
<title>Node13&#45;&gt;Node2</title>
<g id="a_edge13_Node000013_Node000002"><a xlink:title=" ">
<path fill="none" stroke="#63b8ff" d="M524.25,-58.96C441.03,-55.12 231.93,-43.45 59,-17 56.13,-16.56 53.14,-16.02 50.18,-15.44"/>
<polygon fill="#63b8ff" stroke="#63b8ff" points="524.31,-62.47 534.46,-59.42 524.63,-55.48 524.31,-62.47"/>
</a>
</g>
</g>
<!-- Node13&#45;&gt;Node3 -->
<g id="edge14_Node000013_Node000003" class="edge">
<title>Node13&#45;&gt;Node3</title>
<g id="a_edge14_Node000013_Node000003"><a xlink:title=" ">
<path fill="none" stroke="#63b8ff" d="M524.38,-57.66C451.41,-51.79 282.76,-37.15 142,-17 139.28,-16.61 136.46,-16.17 133.64,-15.71"/>
<polygon fill="#63b8ff" stroke="#63b8ff" points="524.19,-61.15 534.44,-58.46 524.75,-54.18 524.19,-61.15"/>
</a>
</g>
</g>
<!-- Node13&#45;&gt;Node4 -->
<g id="edge15_Node000013_Node000004" class="edge">
<title>Node13&#45;&gt;Node4</title>
<g id="a_edge15_Node000013_Node000004"><a xlink:title=" ">
<path fill="none" stroke="#63b8ff" d="M524.16,-57.54C459.01,-51.98 319.35,-38.53 203,-17 200.25,-16.49 197.39,-15.88 194.56,-15.23"/>
<polygon fill="#63b8ff" stroke="#63b8ff" points="524.07,-61.05 534.33,-58.4 524.66,-54.07 524.07,-61.05"/>
</a>
</g>
</g>
<!-- Node13&#45;&gt;Node5 -->
<g id="edge16_Node000013_Node000005" class="edge">
<title>Node13&#45;&gt;Node5</title>
<g id="a_edge16_Node000013_Node000005"><a xlink:title=" ">
<path fill="none" stroke="#63b8ff" d="M524.16,-56.19C468,-49.36 357.69,-34.98 265,-17 261.96,-16.41 258.76,-15.72 255.62,-15"/>
<polygon fill="#63b8ff" stroke="#63b8ff" points="523.98,-59.69 534.33,-57.41 524.82,-52.74 523.98,-59.69"/>
</a>
</g>
</g>
<!-- Node13&#45;&gt;Node6 -->
<g id="edge21_Node000013_Node000006" class="edge">
<title>Node13&#45;&gt;Node6</title>
<g id="a_edge21_Node000013_Node000006"><a xlink:title=" ">
<path fill="none" stroke="#63b8ff" d="M524.37,-53.85C479.28,-45.58 400.38,-30.86 333,-17 330.16,-16.42 327.19,-15.79 324.23,-15.15"/>
<polygon fill="#63b8ff" stroke="#63b8ff" points="523.81,-57.3 534.27,-55.66 525.07,-50.41 523.81,-57.3"/>
</a>
</g>
</g>
<!-- Node13&#45;&gt;Node7 -->
<g id="edge22_Node000013_Node000007" class="edge">
<title>Node13&#45;&gt;Node7</title>
<g id="a_edge22_Node000013_Node000007"><a xlink:title=" ">
<path fill="none" stroke="#63b8ff" d="M524.52,-50.96C485.04,-40.63 423.22,-24.47 389.64,-15.68"/>
<polygon fill="#63b8ff" stroke="#63b8ff" points="523.73,-54.37 534.29,-53.52 525.51,-47.6 523.73,-54.37"/>
</a>
</g>
</g>
<!-- Node13&#45;&gt;Node8 -->
<g id="edge23_Node000013_Node000008" class="edge">
<title>Node13&#45;&gt;Node8</title>
<g id="a_edge23_Node000013_Node000008"><a xlink:title=" ">
<path fill="none" stroke="#63b8ff" d="M532.5,-49.32C507.55,-39.53 471.99,-25.58 450.26,-17.06"/>
<polygon fill="#63b8ff" stroke="#63b8ff" points="531.23,-52.58 541.82,-52.97 533.79,-46.06 531.23,-52.58"/>
</a>
</g>
</g>
<!-- Node13&#45;&gt;Node9 -->
<g id="edge24_Node000013_Node000009" class="edge">
<title>Node13&#45;&gt;Node9</title>
<g id="a_edge24_Node000013_Node000009"><a xlink:title=" ">
<path fill="none" stroke="#63b8ff" d="M543.32,-46.63C531.18,-37.11 515.53,-24.83 505.63,-17.06"/>
<polygon fill="#63b8ff" stroke="#63b8ff" points="541.38,-49.56 551.41,-52.97 545.7,-44.05 541.38,-49.56"/>
</a>
</g>
</g>
<!-- Node13&#45;&gt;Node10 -->
<g id="edge25_Node000013_Node000010" class="edge">
<title>Node13&#45;&gt;Node10</title>
<g id="a_edge25_Node000013_Node000010"><a xlink:title=" ">
<path fill="none" stroke="#63b8ff" d="M561,-42.91C561,-34.08 561,-23.85 561,-17.06"/>
<polygon fill="#63b8ff" stroke="#63b8ff" points="557.5,-42.97 561,-52.97 564.5,-42.97 557.5,-42.97"/>
</a>
</g>
</g>
<!-- Node13&#45;&gt;Node11 -->
<g id="edge26_Node000013_Node000011" class="edge">
<title>Node13&#45;&gt;Node11</title>
<g id="a_edge26_Node000013_Node000011"><a xlink:title=" ">
<path fill="none" stroke="#63b8ff" d="M597.68,-59.36C686.54,-56.23 920.22,-45.72 1113,-17 1115.87,-16.57 1118.86,-16.04 1121.82,-15.46"/>
<polygon fill="#63b8ff" stroke="#63b8ff" points="597.45,-55.87 587.58,-59.71 597.69,-62.87 597.45,-55.87"/>
</a>
</g>
</g>
<!-- Node13&#45;&gt;Node12 -->
<g id="edge30_Node000013_Node000012" class="edge">
<title>Node13&#45;&gt;Node12</title>
<g id="a_edge30_Node000013_Node000012"><a xlink:title=" ">
<path fill="none" stroke="#63b8ff" d="M597.89,-60.16C694.34,-58.77 961.7,-51.83 1181,-17 1183.86,-16.55 1186.85,-15.95 1189.79,-15.29"/>
<polygon fill="#63b8ff" stroke="#63b8ff" points="597.73,-56.66 587.78,-60.29 597.82,-63.66 597.73,-56.66"/>
</a>
</g>
</g>
<!-- Node14 -->
<g id="Node000014" class="node">
<title>Node14</title>
<g id="a_Node000014"><a xlink:href="../../d3/d11/dijkstra_8hpp_source.html" target="_top" xlink:title=" ">
<polygon fill="white" stroke="#666666" points="801.5,-17 744.5,-17 744.5,0 801.5,0 801.5,-17"/>
<text text-anchor="middle" x="773" y="-6.6" font-family="Helvetica,sans-Serif" font-size="8.00">dijkstra.hpp</text>
</a>
</g>
</g>
<!-- Node13&#45;&gt;Node14 -->
<g id="edge17_Node000013_Node000014" class="edge">
<title>Node13&#45;&gt;Node14</title>
<g id="a_edge17_Node000013_Node000014"><a xlink:title=" ">
<path fill="none" stroke="#63b8ff" d="M597.6,-51.7C639.23,-41.68 706.33,-25.54 744.34,-16.39"/>
<polygon fill="#63b8ff" stroke="#63b8ff" points="596.75,-48.3 587.85,-54.04 598.39,-55.1 596.75,-48.3"/>
</a>
</g>
</g>
<!-- Node15 -->
<g id="Node000015" class="node">
<title>Node15</title>
<g id="a_Node000015"><a xlink:href="../../d6/ded/eidastar_8hpp_source.html" target="_top" xlink:title=" ">
<polygon fill="white" stroke="#666666" points="880,-17 820,-17 820,0 880,0 880,-17"/>
<text text-anchor="middle" x="850" y="-6.6" font-family="Helvetica,sans-Serif" font-size="8.00">eidastar.hpp</text>
</a>
</g>
</g>
<!-- Node13&#45;&gt;Node15 -->
<g id="edge18_Node000013_Node000015" class="edge">
<title>Node13&#45;&gt;Node15</title>
<g id="a_edge18_Node000013_Node000015"><a xlink:title=" ">
<path fill="none" stroke="#63b8ff" d="M597.58,-54.26C646.14,-45.93 734.57,-30.66 810,-17 813.2,-16.42 816.54,-15.81 819.87,-15.19"/>
<polygon fill="#63b8ff" stroke="#63b8ff" points="596.82,-50.83 587.55,-55.97 598,-57.73 596.82,-50.83"/>
</a>
</g>
</g>
<!-- Node16 -->
<g id="Node000016" class="node">
<title>Node16</title>
<g id="a_Node000016"><a xlink:href="../../dd/d67/eidbstar_8hpp_source.html" target="_top" xlink:title=" ">
<polygon fill="white" stroke="#666666" points="958,-17 898,-17 898,0 958,0 958,-17"/>
<text text-anchor="middle" x="928" y="-6.6" font-family="Helvetica,sans-Serif" font-size="8.00">eidbstar.hpp</text>
</a>
</g>
</g>
<!-- Node13&#45;&gt;Node16 -->
<g id="edge19_Node000013_Node000016" class="edge">
<title>Node13&#45;&gt;Node16</title>
<g id="a_edge19_Node000013_Node000016"><a xlink:title=" ">
<path fill="none" stroke="#63b8ff" d="M598.12,-56.29C659.02,-49.22 783.89,-34.06 889,-17 891.86,-16.54 894.83,-16.02 897.8,-15.49"/>
<polygon fill="#63b8ff" stroke="#63b8ff" points="597.4,-52.85 587.86,-57.47 598.2,-59.8 597.4,-52.85"/>
</a>
</g>
</g>
<!-- Node17 -->
<g id="Node000017" class="node">
<title>Node17</title>
<g id="a_Node000017"><a xlink:href="../../dd/d95/eiddfs_8hpp_source.html" target="_top" xlink:title=" ">
<polygon fill="white" stroke="#666666" points="1029.5,-17 976.5,-17 976.5,0 1029.5,0 1029.5,-17"/>
<text text-anchor="middle" x="1003" y="-6.6" font-family="Helvetica,sans-Serif" font-size="8.00">eiddfs.hpp</text>
</a>
</g>
</g>
<!-- Node13&#45;&gt;Node17 -->
<g id="edge20_Node000013_Node000017" class="edge">
<title>Node13&#45;&gt;Node17</title>
<g id="a_edge20_Node000013_Node000017"><a xlink:title=" ">
<path fill="none" stroke="#63b8ff" d="M598.01,-57.76C669.57,-52.2 831.78,-38.28 967,-17 970.03,-16.52 973.18,-15.96 976.32,-15.36"/>
<polygon fill="#63b8ff" stroke="#63b8ff" points="597.42,-54.3 587.72,-58.55 597.96,-61.28 597.42,-54.3"/>
</a>
</g>
</g>
<!-- Node18 -->
<g id="Node000018" class="node">
<title>Node18</title>
<g id="a_Node000018"><a xlink:href="../../db/df9/idastar_8hpp_source.html" target="_top" xlink:title=" ">
<polygon fill="white" stroke="#666666" points="1104,-17 1048,-17 1048,0 1104,0 1104,-17"/>
<text text-anchor="middle" x="1076" y="-6.6" font-family="Helvetica,sans-Serif" font-size="8.00">idastar.hpp</text>
</a>
</g>
</g>
<!-- Node13&#45;&gt;Node18 -->
<g id="edge27_Node000013_Node000018" class="edge">
<title>Node13&#45;&gt;Node18</title>
<g id="a_edge27_Node000013_Node000018"><a xlink:title=" ">
<path fill="none" stroke="#63b8ff" d="M597.84,-58.45C678.13,-53.69 874.75,-40.49 1038,-17 1041.19,-16.54 1044.53,-15.99 1047.83,-15.4"/>
<polygon fill="#63b8ff" stroke="#63b8ff" points="597.53,-54.96 587.75,-59.04 597.93,-61.95 597.53,-54.96"/>
</a>
</g>
</g>
<!-- Node19 -->
<g id="Node000019" class="node">
<title>Node19</title>
<g id="a_Node000019"><a xlink:href="../../d1/d24/idbstar_8hpp_source.html" target="_top" xlink:title=" ">
<polygon fill="white" stroke="#666666" points="659,-17 603,-17 603,0 659,0 659,-17"/>
<text text-anchor="middle" x="631" y="-6.6" font-family="Helvetica,sans-Serif" font-size="8.00">idbstar.hpp</text>
</a>
</g>
</g>
<!-- Node13&#45;&gt;Node19 -->
<g id="edge28_Node000013_Node000019" class="edge">
<title>Node13&#45;&gt;Node19</title>
<g id="a_edge28_Node000013_Node000019"><a xlink:title=" ">
<path fill="none" stroke="#63b8ff" d="M579.66,-46.91C592.78,-37.34 609.86,-24.9 620.63,-17.06"/>
<polygon fill="#63b8ff" stroke="#63b8ff" points="577.35,-44.26 571.33,-52.97 581.47,-49.91 577.35,-44.26"/>
</a>
</g>
</g>
<!-- Node20 -->
<g id="Node000020" class="node">
<title>Node20</title>
<g id="a_Node000020"><a xlink:href="../../df/d71/iddfs_8hpp_source.html" target="_top" xlink:title=" ">
<polygon fill="white" stroke="#666666" points="726.5,-17 677.5,-17 677.5,0 726.5,0 726.5,-17"/>
<text text-anchor="middle" x="702" y="-6.6" font-family="Helvetica,sans-Serif" font-size="8.00">iddfs.hpp</text>
</a>
</g>
</g>
<!-- Node13&#45;&gt;Node20 -->
<g id="edge29_Node000013_Node000020" class="edge">
<title>Node13&#45;&gt;Node20</title>
<g id="a_edge29_Node000013_Node000020"><a xlink:title=" ">
<path fill="none" stroke="#63b8ff" d="M591.55,-49.45C618.63,-39.66 657.43,-25.62 681.11,-17.06"/>
<polygon fill="#63b8ff" stroke="#63b8ff" points="590.02,-46.28 581.81,-52.97 592.4,-52.86 590.02,-46.28"/>
</a>
</g>
</g>
</g>
</svg>
