<?xml version="1.0" encoding="UTF-8" standalone="no"?>
<!DOCTYPE svg PUBLIC "-//W3C//DTD SVG 1.1//EN"
 "http://www.w3.org/Graphics/SVG/1.1/DTD/svg11.dtd">
<!-- Generated by graphviz version 2.43.0 (0)
 -->
<!-- Title: osmastar.hpp Pages: 1 -->
<svg width="683pt" height="237pt"
 viewBox="0.00 0.00 683.50 237.00" xmlns="http://www.w3.org/2000/svg" xmlns:xlink="http://www.w3.org/1999/xlink">
<g id="graph0" class="graph" transform="scale(1 1) rotate(0) translate(4 233)">
<title>osmastar.hpp</title>
<!-- Node1 -->
<g id="Node000001" class="node">
<title>Node1</title>
<g id="a_Node000001"><a xlink:title=" ">
<polygon fill="#999999" stroke="#666666" points="567,-229 495,-229 495,-212 567,-212 567,-229"/>
<text text-anchor="middle" x="531" y="-218.6" font-family="Helvetica,sans-Serif" font-size="8.00">osmastar.hpp</text>
</a>
</g>
</g>
<!-- Node2 -->
<g id="Node000002" class="node">
<title>Node2</title>
<g id="a_Node000002"><a xlink:title=" ">
<polygon fill="#e0e0e0" stroke="#999999" points="306,-70 268,-70 268,-53 306,-53 306,-70"/>
<text text-anchor="middle" x="287" y="-59.6" font-family="Helvetica,sans-Serif" font-size="8.00">limits</text>
</a>
</g>
</g>
<!-- Node1&#45;&gt;Node2 -->
<g id="edge1_Node000001_Node000002" class="edge">
<title>Node1&#45;&gt;Node2</title>
<g id="a_edge1_Node000001_Node000002"><a xlink:title=" ">
<path fill="none" stroke="#63b8ff" d="M494.91,-214.68C460.32,-209 407.41,-197.49 366,-176 333.52,-159.15 322.59,-153.9 303,-123 294.8,-110.07 290.78,-93.05 288.82,-80.36"/>
<polygon fill="#63b8ff" stroke="#63b8ff" points="292.26,-79.64 287.54,-70.16 285.31,-80.52 292.26,-79.64"/>
</a>
</g>
</g>
<!-- Node3 -->
<g id="Node000003" class="node">
<title>Node3</title>
<g id="a_Node000003"><a xlink:title=" ">
<polygon fill="#e0e0e0" stroke="#999999" points="675.5,-176 646.5,-176 646.5,-159 675.5,-159 675.5,-176"/>
<text text-anchor="middle" x="661" y="-165.6" font-family="Helvetica,sans-Serif" font-size="8.00">set</text>
</a>
</g>
</g>
<!-- Node1&#45;&gt;Node3 -->
<g id="edge2_Node000001_Node000003" class="edge">
<title>Node1&#45;&gt;Node3</title>
<g id="a_edge2_Node000001_Node000003"><a xlink:title=" ">
<path fill="none" stroke="#63b8ff" d="M550.18,-211.97C573.15,-202.96 611.64,-187.86 636.68,-178.04"/>
<polygon fill="#63b8ff" stroke="#63b8ff" points="638.15,-181.22 646.18,-174.31 635.59,-174.71 638.15,-181.22"/>
</a>
</g>
</g>
<!-- Node4 -->
<g id="Node000004" class="node">
<title>Node4</title>
<g id="a_Node000004"><a xlink:title=" ">
<polygon fill="#e0e0e0" stroke="#999999" points="421.5,-70 362.5,-70 362.5,-53 421.5,-53 421.5,-70"/>
<text text-anchor="middle" x="392" y="-59.6" font-family="Helvetica,sans-Serif" font-size="8.00">type_traits</text>
</a>
</g>
</g>
<!-- Node1&#45;&gt;Node4 -->
<g id="edge3_Node000001_Node000004" class="edge">
<title>Node1&#45;&gt;Node4</title>
<g id="a_edge3_Node000001_Node000004"><a xlink:title=" ">
<path fill="none" stroke="#63b8ff" d="M536.93,-212C551.62,-192.46 586.72,-139.18 561,-106 556.96,-100.79 480.23,-82.54 431.57,-71.41"/>
<polygon fill="#63b8ff" stroke="#63b8ff" points="432.17,-67.95 421.64,-69.14 430.62,-74.78 432.17,-67.95"/>
</a>
</g>
</g>
<!-- Node5 -->
<g id="Node000005" class="node">
<title>Node5</title>
<g id="a_Node000005"><a xlink:title=" ">
<polygon fill="#e0e0e0" stroke="#999999" points="552,-123 510,-123 510,-106 552,-106 552,-123"/>
<text text-anchor="middle" x="531" y="-112.6" font-family="Helvetica,sans-Serif" font-size="8.00">vector</text>
</a>
</g>
</g>
<!-- Node1&#45;&gt;Node5 -->
<g id="edge4_Node000001_Node000005" class="edge">
<title>Node1&#45;&gt;Node5</title>
<g id="a_edge4_Node000001_Node000005"><a xlink:title=" ">
<path fill="none" stroke="#63b8ff" d="M531,-211.68C531,-195.11 531,-156.11 531,-133.18"/>
<polygon fill="#63b8ff" stroke="#63b8ff" points="534.5,-133.12 531,-123.12 527.5,-133.13 534.5,-133.12"/>
</a>
</g>
</g>
<!-- Node6 -->
<g id="Node000006" class="node">
<title>Node6</title>
<g id="a_Node000006"><a xlink:href="../../df/d93/utils_8hpp.html" target="_top" xlink:title=" ">
<polygon fill="white" stroke="#666666" points="230,-123 150,-123 150,-106 230,-106 230,-123"/>
<text text-anchor="middle" x="190" y="-112.6" font-family="Helvetica,sans-Serif" font-size="8.00">../utils/utils.hpp</text>
</a>
</g>
</g>
<!-- Node1&#45;&gt;Node6 -->
<g id="edge5_Node000001_Node000006" class="edge">
<title>Node1&#45;&gt;Node6</title>
<g id="a_edge5_Node000001_Node000006"><a xlink:title=" ">
<path fill="none" stroke="#63b8ff" d="M494.92,-217.08C427.8,-212.09 286.71,-199.13 244,-176 225.08,-165.76 209.52,-146.2 200.03,-132.09"/>
<polygon fill="#63b8ff" stroke="#63b8ff" points="202.8,-129.92 194.48,-123.37 196.9,-133.68 202.8,-129.92"/>
</a>
</g>
</g>
<!-- Node12 -->
<g id="Node000012" class="node">
<title>Node12</title>
<g id="a_Node000012"><a xlink:href="../../d7/d65/intrinsics_8hpp.html" target="_top" xlink:title=" ">
<polygon fill="white" stroke="#666666" points="538.5,-70 439.5,-70 439.5,-53 538.5,-53 538.5,-70"/>
<text text-anchor="middle" x="489" y="-59.6" font-family="Helvetica,sans-Serif" font-size="8.00">../utils/intrinsics.hpp</text>
</a>
</g>
</g>
<!-- Node1&#45;&gt;Node12 -->
<g id="edge25_Node000001_Node000012" class="edge">
<title>Node1&#45;&gt;Node12</title>
<g id="a_edge25_Node000001_Node000012"><a xlink:title=" ">
<path fill="none" stroke="#63b8ff" d="M550.6,-211.97C565.49,-205.08 584.92,-193.3 594,-176 608.45,-148.45 611.28,-131.87 594,-106 583.12,-89.73 564.92,-79.54 546.69,-73.15"/>
<polygon fill="#63b8ff" stroke="#63b8ff" points="547.49,-69.74 536.9,-70.07 545.39,-76.41 547.49,-69.74"/>
</a>
</g>
</g>
<!-- Node15 -->
<g id="Node000015" class="node">
<title>Node15</title>
<g id="a_Node000015"><a xlink:href="../../d2/d1c/solver_8hpp.html" target="_top" xlink:title=" ">
<polygon fill="white" stroke="#666666" points="457,-176 375,-176 375,-159 457,-159 457,-176"/>
<text text-anchor="middle" x="416" y="-165.6" font-family="Helvetica,sans-Serif" font-size="8.00">base/solver.hpp</text>
</a>
</g>
</g>
<!-- Node1&#45;&gt;Node15 -->
<g id="edge17_Node000001_Node000015" class="edge">
<title>Node1&#45;&gt;Node15</title>
<g id="a_edge17_Node000001_Node000015"><a xlink:title=" ">
<path fill="none" stroke="#63b8ff" d="M514.03,-211.97C495.17,-203.61 464.49,-190 442.47,-180.24"/>
<polygon fill="#63b8ff" stroke="#63b8ff" points="443.59,-176.91 433.03,-176.06 440.76,-183.31 443.59,-176.91"/>
</a>
</g>
</g>
<!-- Node6&#45;&gt;Node2 -->
<g id="edge10_Node000006_Node000002" class="edge">
<title>Node6&#45;&gt;Node2</title>
<g id="a_edge10_Node000006_Node000002"><a xlink:title=" ">
<path fill="none" stroke="#63b8ff" d="M204.31,-105.97C219.93,-97.76 245.17,-84.49 263.66,-74.77"/>
<polygon fill="#63b8ff" stroke="#63b8ff" points="265.4,-77.81 272.62,-70.06 262.14,-71.61 265.4,-77.81"/>
</a>
</g>
</g>
<!-- Node6&#45;&gt;Node4 -->
<g id="edge12_Node000006_Node000004" class="edge">
<title>Node6&#45;&gt;Node4</title>
<g id="a_edge12_Node000006_Node000004"><a xlink:title=" ">
<path fill="none" stroke="#63b8ff" d="M219.8,-105.97C254.96,-97.1 313.54,-82.31 352.46,-72.48"/>
<polygon fill="#63b8ff" stroke="#63b8ff" points="353.56,-75.81 362.4,-69.97 351.84,-69.03 353.56,-75.81"/>
</a>
</g>
</g>
<!-- Node7 -->
<g id="Node000007" class="node">
<title>Node7</title>
<g id="a_Node000007"><a xlink:title=" ">
<polygon fill="#e0e0e0" stroke="#999999" points="56,-70 18,-70 18,-53 56,-53 56,-70"/>
<text text-anchor="middle" x="37" y="-59.6" font-family="Helvetica,sans-Serif" font-size="8.00">array</text>
</a>
</g>
</g>
<!-- Node6&#45;&gt;Node7 -->
<g id="edge6_Node000006_Node000007" class="edge">
<title>Node6&#45;&gt;Node7</title>
<g id="a_edge6_Node000006_Node000007"><a xlink:title=" ">
<path fill="none" stroke="#63b8ff" d="M167.42,-105.97C140.5,-97 95.46,-81.99 65.99,-72.17"/>
<polygon fill="#63b8ff" stroke="#63b8ff" points="66.87,-68.77 56.27,-68.93 64.65,-75.41 66.87,-68.77"/>
</a>
</g>
</g>
<!-- Node8 -->
<g id="Node000008" class="node">
<title>Node8</title>
<g id="a_Node000008"><a xlink:title=" ">
<polygon fill="#e0e0e0" stroke="#999999" points="116,-70 74,-70 74,-53 116,-53 116,-70"/>
<text text-anchor="middle" x="95" y="-59.6" font-family="Helvetica,sans-Serif" font-size="8.00">cmath</text>
</a>
</g>
</g>
<!-- Node6&#45;&gt;Node8 -->
<g id="edge7_Node000006_Node000008" class="edge">
<title>Node6&#45;&gt;Node8</title>
<g id="a_edge7_Node000006_Node000008"><a xlink:title=" ">
<path fill="none" stroke="#63b8ff" d="M175.98,-105.97C160.82,-97.84 136.42,-84.74 118.35,-75.04"/>
<polygon fill="#63b8ff" stroke="#63b8ff" points="119.54,-71.7 109.07,-70.06 116.23,-77.87 119.54,-71.7"/>
</a>
</g>
</g>
<!-- Node9 -->
<g id="Node000009" class="node">
<title>Node9</title>
<g id="a_Node000009"><a xlink:title=" ">
<polygon fill="#e0e0e0" stroke="#999999" points="357.5,-17 310.5,-17 310.5,0 357.5,0 357.5,-17"/>
<text text-anchor="middle" x="334" y="-6.6" font-family="Helvetica,sans-Serif" font-size="8.00">cstddef</text>
</a>
</g>
</g>
<!-- Node6&#45;&gt;Node9 -->
<g id="edge8_Node000006_Node000009" class="edge">
<title>Node6&#45;&gt;Node9</title>
<g id="a_edge8_Node000006_Node000009"><a xlink:title=" ">
<path fill="none" stroke="#63b8ff" d="M149.79,-112.88C84.82,-110.53 -32.02,-99.88 9,-53 46.51,-10.13 224.04,-7.7 299.7,-8.69"/>
<polygon fill="#63b8ff" stroke="#63b8ff" points="300.05,-12.19 310.1,-8.85 300.16,-5.19 300.05,-12.19"/>
</a>
</g>
</g>
<!-- Node10 -->
<g id="Node000010" class="node">
<title>Node10</title>
<g id="a_Node000010"><a xlink:title=" ">
<polygon fill="#e0e0e0" stroke="#999999" points="192,-70 134,-70 134,-53 192,-53 192,-70"/>
<text text-anchor="middle" x="163" y="-59.6" font-family="Helvetica,sans-Serif" font-size="8.00">functional</text>
</a>
</g>
</g>
<!-- Node6&#45;&gt;Node10 -->
<g id="edge9_Node000006_Node000010" class="edge">
<title>Node6&#45;&gt;Node10</title>
<g id="a_edge9_Node000006_Node000010"><a xlink:title=" ">
<path fill="none" stroke="#63b8ff" d="M186.01,-105.97C182.26,-98.89 176.52,-88.05 171.71,-78.96"/>
<polygon fill="#63b8ff" stroke="#63b8ff" points="174.77,-77.26 167,-70.06 168.58,-80.53 174.77,-77.26"/>
</a>
</g>
</g>
<!-- Node11 -->
<g id="Node000011" class="node">
<title>Node11</title>
<g id="a_Node000011"><a xlink:title=" ">
<polygon fill="#e0e0e0" stroke="#999999" points="250,-70 210,-70 210,-53 250,-53 250,-70"/>
<text text-anchor="middle" x="230" y="-59.6" font-family="Helvetica,sans-Serif" font-size="8.00">string</text>
</a>
</g>
</g>
<!-- Node6&#45;&gt;Node11 -->
<g id="edge11_Node000006_Node000011" class="edge">
<title>Node6&#45;&gt;Node11</title>
<g id="a_edge11_Node000006_Node000011"><a xlink:title=" ">
<path fill="none" stroke="#63b8ff" d="M195.9,-105.97C201.63,-98.67 210.5,-87.35 217.76,-78.1"/>
<polygon fill="#63b8ff" stroke="#63b8ff" points="220.65,-80.08 224.07,-70.06 215.14,-75.76 220.65,-80.08"/>
</a>
</g>
</g>
<!-- Node6&#45;&gt;Node12 -->
<g id="edge13_Node000006_Node000012" class="edge">
<title>Node6&#45;&gt;Node12</title>
<g id="a_edge13_Node000006_Node000012"><a xlink:title=" ">
<path fill="none" stroke="#63b8ff" d="M230.01,-106.67C282.81,-97.67 375.94,-81.78 434.96,-71.72"/>
<polygon fill="#63b8ff" stroke="#63b8ff" points="435.58,-75.16 444.84,-70.03 434.4,-68.26 435.58,-75.16"/>
</a>
</g>
</g>
<!-- Node12&#45;&gt;Node9 -->
<g id="edge15_Node000012_Node000009" class="edge">
<title>Node12&#45;&gt;Node9</title>
<g id="a_edge15_Node000012_Node000009"><a xlink:title=" ">
<path fill="none" stroke="#63b8ff" d="M466.13,-52.97C439.8,-44.31 396.35,-30.02 366.51,-20.2"/>
<polygon fill="#63b8ff" stroke="#63b8ff" points="367.55,-16.86 356.96,-17.06 365.37,-23.51 367.55,-16.86"/>
</a>
</g>
</g>
<!-- Node13 -->
<g id="Node000013" class="node">
<title>Node13</title>
<g id="a_Node000013"><a xlink:title=" ">
<polygon fill="#e0e0e0" stroke="#999999" points="480,-17 436,-17 436,0 480,0 480,-17"/>
<text text-anchor="middle" x="458" y="-6.6" font-family="Helvetica,sans-Serif" font-size="8.00">atomic</text>
</a>
</g>
</g>
<!-- Node12&#45;&gt;Node13 -->
<g id="edge14_Node000012_Node000013" class="edge">
<title>Node12&#45;&gt;Node13</title>
<g id="a_edge14_Node000012_Node000013"><a xlink:title=" ">
<path fill="none" stroke="#63b8ff" d="M484.42,-52.97C480.07,-45.82 473.39,-34.82 467.83,-25.67"/>
<polygon fill="#63b8ff" stroke="#63b8ff" points="470.77,-23.78 462.59,-17.06 464.79,-27.42 470.77,-23.78"/>
</a>
</g>
</g>
<!-- Node14 -->
<g id="Node000014" class="node">
<title>Node14</title>
<g id="a_Node000014"><a xlink:title=" ">
<polygon fill="#e0e0e0" stroke="#999999" points="542,-17 498,-17 498,0 542,0 542,-17"/>
<text text-anchor="middle" x="520" y="-6.6" font-family="Helvetica,sans-Serif" font-size="8.00">cstdlib</text>
</a>
</g>
</g>
<!-- Node12&#45;&gt;Node14 -->
<g id="edge16_Node000012_Node000014" class="edge">
<title>Node12&#45;&gt;Node14</title>
<g id="a_edge16_Node000012_Node000014"><a xlink:title=" ">
<path fill="none" stroke="#63b8ff" d="M493.57,-52.97C497.92,-45.82 504.61,-34.82 510.16,-25.67"/>
<polygon fill="#63b8ff" stroke="#63b8ff" points="513.2,-27.42 515.4,-17.06 507.22,-23.78 513.2,-27.42"/>
</a>
</g>
</g>
<!-- Node15&#45;&gt;Node2 -->
<g id="edge19_Node000015_Node000002" class="edge">
<title>Node15&#45;&gt;Node2</title>
<g id="a_edge19_Node000015_Node000002"><a xlink:title=" ">
<path fill="none" stroke="#63b8ff" d="M387.6,-158.96C366.88,-152.29 339.17,-140.81 320,-123 307.13,-111.05 298.17,-92.92 292.87,-79.62"/>
<polygon fill="#63b8ff" stroke="#63b8ff" points="296.14,-78.37 289.39,-70.2 289.57,-80.79 296.14,-78.37"/>
</a>
</g>
</g>
<!-- Node15&#45;&gt;Node4 -->
<g id="edge20_Node000015_Node000004" class="edge">
<title>Node15&#45;&gt;Node4</title>
<g id="a_edge20_Node000015_Node000004"><a xlink:title=" ">
<path fill="none" stroke="#63b8ff" d="M419.12,-158.85C423.43,-147.17 430.01,-124.32 424,-106 420.56,-95.53 413.54,-85.51 406.94,-77.73"/>
<polygon fill="#63b8ff" stroke="#63b8ff" points="409.46,-75.3 400.15,-70.25 404.28,-80.01 409.46,-75.3"/>
</a>
</g>
</g>
<!-- Node15&#45;&gt;Node5 -->
<g id="edge21_Node000015_Node000005" class="edge">
<title>Node15&#45;&gt;Node5</title>
<g id="a_edge21_Node000015_Node000005"><a xlink:title=" ">
<path fill="none" stroke="#63b8ff" d="M432.96,-158.97C451.82,-150.61 482.51,-137 504.52,-127.24"/>
<polygon fill="#63b8ff" stroke="#63b8ff" points="506.24,-130.31 513.96,-123.06 503.4,-123.91 506.24,-130.31"/>
</a>
</g>
</g>
<!-- Node15&#45;&gt;Node6 -->
<g id="edge22_Node000015_Node000006" class="edge">
<title>Node15&#45;&gt;Node6</title>
<g id="a_edge22_Node000015_Node000006"><a xlink:title=" ">
<path fill="none" stroke="#63b8ff" d="M382.65,-158.97C343.09,-150.05 277.04,-135.14 233.49,-125.32"/>
<polygon fill="#63b8ff" stroke="#63b8ff" points="234.01,-121.84 223.48,-123.06 232.46,-128.67 234.01,-121.84"/>
</a>
</g>
</g>
<!-- Node15&#45;&gt;Node9 -->
<g id="edge18_Node000015_Node000009" class="edge">
<title>Node15&#45;&gt;Node9</title>
<g id="a_edge18_Node000015_Node000009"><a xlink:title=" ">
<path fill="none" stroke="#63b8ff" d="M398.04,-158.96C383.48,-151.87 363.69,-139.83 353,-123 334.2,-93.43 332.24,-51.11 332.87,-27.38"/>
<polygon fill="#63b8ff" stroke="#63b8ff" points="336.38,-27.25 333.34,-17.1 329.39,-26.93 336.38,-27.25"/>
</a>
</g>
</g>
<!-- Node15&#45;&gt;Node12 -->
<g id="edge24_Node000015_Node000012" class="edge">
<title>Node15&#45;&gt;Node12</title>
<g id="a_edge24_Node000015_Node000012"><a xlink:title=" ">
<path fill="none" stroke="#63b8ff" d="M421.48,-158.68C433.43,-141.66 462,-100.95 477.88,-78.34"/>
<polygon fill="#63b8ff" stroke="#63b8ff" points="480.76,-80.32 483.64,-70.12 475.03,-76.3 480.76,-80.32"/>
</a>
</g>
</g>
<!-- Node16 -->
<g id="Node000016" class="node">
<title>Node16</title>
<g id="a_Node000016"><a xlink:title=" ">
<polygon fill="#e0e0e0" stroke="#999999" points="415.5,-123 362.5,-123 362.5,-106 415.5,-106 415.5,-123"/>
<text text-anchor="middle" x="389" y="-112.6" font-family="Helvetica,sans-Serif" font-size="8.00">iostream</text>
</a>
</g>
</g>
<!-- Node15&#45;&gt;Node16 -->
<g id="edge23_Node000015_Node000016" class="edge">
<title>Node15&#45;&gt;Node16</title>
<g id="a_edge23_Node000015_Node000016"><a xlink:title=" ">
<path fill="none" stroke="#63b8ff" d="M412.01,-158.97C408.26,-151.89 402.52,-141.05 397.71,-131.96"/>
<polygon fill="#63b8ff" stroke="#63b8ff" points="400.77,-130.26 393,-123.06 394.58,-133.53 400.77,-130.26"/>
</a>
</g>
</g>
</g>
</svg>
