<?xml version="1.0" encoding="UTF-8" standalone="no"?>
<!DOCTYPE svg PUBLIC "-//W3C//DTD SVG 1.1//EN"
 "http://www.w3.org/Graphics/SVG/1.1/DTD/svg11.dtd">
<!-- Generated by graphviz version 2.43.0 (0)
 -->
<!-- Title: get_neighbours Pages: 1 -->
<svg width="212pt" height="60pt"
 viewBox="0.00 0.00 212.00 60.00" xmlns="http://www.w3.org/2000/svg" xmlns:xlink="http://www.w3.org/1999/xlink">
<g id="graph0" class="graph" transform="scale(1 1) rotate(0) translate(4 56)">
<title>get_neighbours</title>
<!-- Node1 -->
<g id="Node000001" class="node">
<title>Node1</title>
<g id="a_Node000001"><a xlink:title="Retrieves the neighbours of a node within the grid.">
<polygon fill="#999999" stroke="#666666" points="72,-34 0,-34 0,-17 72,-17 72,-34"/>
<text text-anchor="middle" x="36" y="-23.6" font-family="Helvetica,sans-Serif" font-size="8.00">get_neighbours</text>
</a>
</g>
</g>
<!-- Node2 -->
<g id="Node000002" class="node">
<title>Node2</title>
<g id="a_Node000002"><a xlink:href="../../dd/de3/classchdr_1_1mazes_1_1grid_a32d34adb7833cb15aa705c6c7ada57a8.html#a32d34adb7833cb15aa705c6c7ada57a8" target="_top" xlink:title="Retrieves the size of the grid.">
<polygon fill="white" stroke="#666666" points="204,-52 108,-52 108,-35 204,-35 204,-52"/>
<text text-anchor="middle" x="156" y="-41.6" font-family="Helvetica,sans-Serif" font-size="8.00">chdr::mazes::grid::size</text>
</a>
</g>
</g>
<!-- Node1&#45;&gt;Node2 -->
<g id="edge1_Node000001_Node000002" class="edge">
<title>Node1&#45;&gt;Node2</title>
<g id="a_edge1_Node000001_Node000002"><a xlink:title=" ">
<path fill="none" stroke="#63b8ff" d="M72.08,-30.85C80.09,-32.07 88.81,-33.4 97.48,-34.73"/>
<polygon fill="#63b8ff" stroke="#63b8ff" points="97.18,-38.22 107.6,-36.27 98.24,-31.3 97.18,-38.22"/>
</a>
</g>
</g>
<!-- Node3 -->
<g id="Node000003" class="node">
<title>Node3</title>
<g id="a_Node000003"><a xlink:href="../../d2/dcb/structchdr_1_1utils_aa56b3789fceb847816a4fef606f80dfb.html#aa56b3789fceb847816a4fef606f80dfb" target="_top" xlink:title="Maps a one&#45;dimensional index to a multi&#45;dimensional coordinate representation.">
<polygon fill="white" stroke="#666666" points="193.5,-17 118.5,-17 118.5,0 193.5,0 193.5,-17"/>
<text text-anchor="middle" x="156" y="-6.6" font-family="Helvetica,sans-Serif" font-size="8.00">chdr::utils::to_nd</text>
</a>
</g>
</g>
<!-- Node1&#45;&gt;Node3 -->
<g id="edge2_Node000001_Node000003" class="edge">
<title>Node1&#45;&gt;Node3</title>
<g id="a_edge2_Node000001_Node000003"><a xlink:title=" ">
<path fill="none" stroke="#63b8ff" d="M72.08,-20.45C83.44,-18.81 96.22,-16.97 108.29,-15.23"/>
<polygon fill="#63b8ff" stroke="#63b8ff" points="108.81,-18.69 118.21,-13.8 107.81,-11.76 108.81,-18.69"/>
</a>
</g>
</g>
</g>
</svg>
