<?xml version="1.0" encoding="UTF-8" standalone="no"?>
<!DOCTYPE svg PUBLIC "-//W3C//DTD SVG 1.1//EN"
 "http://www.w3.org/Graphics/SVG/1.1/DTD/svg11.dtd">
<!-- Generated by graphviz version 2.42.4 (0)
 -->
<!-- Title: is_transitory Pages: 1 -->
<svg width="241pt" height="60pt"
 viewBox="0.00 0.00 241.00 60.00" xmlns="http://www.w3.org/2000/svg" xmlns:xlink="http://www.w3.org/1999/xlink">
<g id="graph0" class="graph" transform="scale(1 1) rotate(0) translate(4 56)">
<title>is_transitory</title>
<!-- Node1 -->
<g id="Node000001" class="node">
<title>Node1</title>
<g id="a_Node000001"><a xlink:title="Determines whether a cell at the given index is transitory.">
<polygon fill="#999999" stroke="#666666" points="59,-34 0,-34 0,-17 59,-17 59,-34"/>
<text text-anchor="middle" x="29.5" y="-23.6" font-family="Helvetica,sans-Serif" font-size="8.00">is_transitory</text>
</a>
</g>
</g>
<!-- Node2 -->
<g id="Node000002" class="node">
<title>Node2</title>
<g id="a_Node000002"><a xlink:href="../../dd/de3/classchdr_1_1mazes_1_1grid_ad6077e456dd6abb62d82087b55dc2331.html#ad6077e456dd6abb62d82087b55dc2331" target="_top" xlink:title="Retrieves the total count of elements in the grid.">
<polygon fill="white" stroke="#666666" points="215,-52 113,-52 113,-35 215,-35 215,-52"/>
<text text-anchor="middle" x="164" y="-41.6" font-family="Helvetica,sans-Serif" font-size="8.00">chdr::mazes::grid::count</text>
</a>
</g>
</g>
<!-- Node1&#45;&gt;Node2 -->
<g id="edge1_Node000001_Node000002" class="edge">
<title>Node1&#45;&gt;Node2</title>
<g id="a_edge1_Node000001_Node000002"><a xlink:title=" ">
<path fill="none" stroke="#63b8ff" d="M59.25,-29.41C71.99,-31.14 87.49,-33.24 102.58,-35.29"/>
<polygon fill="#63b8ff" stroke="#63b8ff" points="102.54,-38.82 112.92,-36.7 103.48,-31.88 102.54,-38.82"/>
</a>
</g>
</g>
<!-- Node3 -->
<g id="Node000003" class="node">
<title>Node3</title>
<g id="a_Node000003"><a xlink:href="../../dd/de3/classchdr_1_1mazes_1_1grid_a0abdfb4af71cccf812fb2b7150f0cc72.html#a0abdfb4af71cccf812fb2b7150f0cc72" target="_top" xlink:title="Retrieves the neighbours of a node within the grid.">
<polygon fill="white" stroke="#666666" points="233,-17 95,-17 95,0 233,0 233,-17"/>
<text text-anchor="middle" x="164" y="-6.6" font-family="Helvetica,sans-Serif" font-size="8.00">chdr::mazes::grid::get_neighbours</text>
</a>
</g>
</g>
<!-- Node1&#45;&gt;Node3 -->
<g id="edge2_Node000001_Node000003" class="edge">
<title>Node1&#45;&gt;Node3</title>
<g id="a_edge2_Node000001_Node000003"><a xlink:title=" ">
<path fill="none" stroke="#63b8ff" d="M59.25,-21.81C67.44,-20.76 76.77,-19.56 86.4,-18.33"/>
<polygon fill="#63b8ff" stroke="#63b8ff" points="87.04,-21.77 96.51,-17.03 86.15,-14.83 87.04,-21.77"/>
</a>
</g>
</g>
</g>
</svg>
