<?xml version="1.0" encoding="UTF-8" standalone="no"?>
<!DOCTYPE svg PUBLIC "-//W3C//DTD SVG 1.1//EN"
 "http://www.w3.org/Graphics/SVG/1.1/DTD/svg11.dtd">
<!-- Generated by graphviz version 2.42.4 (0)
 -->
<!-- Title: get_neighbours Pages: 1 -->
<svg width="254pt" height="43pt"
 viewBox="0.00 0.00 254.00 43.00" xmlns="http://www.w3.org/2000/svg" xmlns:xlink="http://www.w3.org/1999/xlink">
<g id="graph0" class="graph" transform="scale(1 1) rotate(0) translate(4 39)">
<title>get_neighbours</title>
<!-- Node1 -->
<g id="Node000001" class="node">
<title>Node1</title>
<g id="a_Node000001"><a xlink:title="Retrieves the neighbours of a node within the grid.">
<polygon fill="#999999" stroke="#666666" points="72,-17 0,-17 0,0 72,0 72,-17"/>
<text text-anchor="middle" x="36" y="-6.6" font-family="Helvetica,sans-Serif" font-size="8.00">get_neighbours</text>
</a>
</g>
</g>
<!-- Node2 -->
<g id="Node000002" class="node">
<title>Node2</title>
<g id="a_Node000002"><a xlink:href="../../dd/de3/classchdr_1_1mazes_1_1grid_a0abdfb4af71cccf812fb2b7150f0cc72.html#a0abdfb4af71cccf812fb2b7150f0cc72" target="_top" xlink:title="Retrieves the neighbours of a node within the grid.">
<polygon fill="white" stroke="#666666" points="246,-17 108,-17 108,0 246,0 246,-17"/>
<text text-anchor="middle" x="177" y="-6.6" font-family="Helvetica,sans-Serif" font-size="8.00">chdr::mazes::grid::get_neighbours</text>
</a>
</g>
</g>
<!-- Node1&#45;&gt;Node2 -->
<g id="edge1_Node000001_Node000002" class="edge">
<title>Node1&#45;&gt;Node2</title>
<g id="a_edge1_Node000001_Node000002"><a xlink:title=" ">
<path fill="none" stroke="#63b8ff" d="M72.08,-8.5C80.02,-8.5 88.77,-8.5 97.72,-8.5"/>
<polygon fill="#63b8ff" stroke="#63b8ff" points="97.87,-12 107.87,-8.5 97.87,-5 97.87,-12"/>
</a>
</g>
</g>
<!-- Node2&#45;&gt;Node2 -->
<g id="edge2_Node000002_Node000002" class="edge">
<title>Node2&#45;&gt;Node2</title>
<g id="a_edge2_Node000002_Node000002"><a xlink:title=" ">
<path fill="none" stroke="#63b8ff" d="M156.14,-17.19C144.62,-25.67 151.57,-35 177,-35 193.69,-35 202.42,-30.98 203.19,-25.82"/>
<polygon fill="#63b8ff" stroke="#63b8ff" points="206.09,-23.86 197.86,-17.19 200.14,-27.53 206.09,-23.86"/>
</a>
</g>
</g>
</g>
</svg>
