<?xml version="1.0" encoding="UTF-8" standalone="no"?>
<!DOCTYPE svg PUBLIC "-//W3C//DTD SVG 1.1//EN"
 "http://www.w3.org/Graphics/SVG/1.1/DTD/svg11.dtd">
<!-- Generated by graphviz version 2.43.0 (0)
 -->
<!-- Title: get_neighbours Pages: 1 -->
<svg width="236pt" height="60pt"
 viewBox="0.00 0.00 236.00 60.00" xmlns="http://www.w3.org/2000/svg" xmlns:xlink="http://www.w3.org/1999/xlink">
<g id="graph0" class="graph" transform="scale(1 1) rotate(0) translate(4 56)">
<title>get_neighbours</title>
<!-- Node1 -->
<g id="Node000001" class="node">
<title>Node1</title>
<g id="a_Node000001"><a xlink:title="Retrieves the neighbours of a node within the grid.">
<polygon fill="#999999" stroke="#666666" points="80,-34 0,-34 0,-17 80,-17 80,-34"/>
<text text-anchor="middle" x="40" y="-23.6" font-family="Helvetica,sans-Serif" font-size="8.00">get_neighbours</text>
</a>
</g>
</g>
<!-- Node2 -->
<g id="Node000002" class="node">
<title>Node2</title>
<g id="a_Node000002"><a xlink:href="../../dd/de3/classchdr_1_1mazes_1_1grid_a32d34adb7833cb15aa705c6c7ada57a8.html#a32d34adb7833cb15aa705c6c7ada57a8" target="_top" xlink:title="Retrieves the size of the grid.">
<polygon fill="white" stroke="#666666" points="228,-52 116,-52 116,-35 228,-35 228,-52"/>
<text text-anchor="middle" x="172" y="-41.6" font-family="Helvetica,sans-Serif" font-size="8.00">chdr::mazes::grid::size</text>
</a>
</g>
</g>
<!-- Node1&#45;&gt;Node2 -->
<g id="edge1_Node000001_Node000002" class="edge">
<title>Node1&#45;&gt;Node2</title>
<g id="a_edge1_Node000001_Node000002"><a xlink:title=" ">
<path fill="none" stroke="#63b8ff" d="M80,-30.9C88.16,-32.03 96.96,-33.25 105.77,-34.47"/>
<polygon fill="#63b8ff" stroke="#63b8ff" points="105.3,-37.94 115.68,-35.84 106.26,-31 105.3,-37.94"/>
</a>
</g>
</g>
<!-- Node3 -->
<g id="Node000003" class="node">
<title>Node3</title>
<g id="a_Node000003"><a xlink:href="../../d2/dcb/structchdr_1_1utils_aa56b3789fceb847816a4fef606f80dfb.html#aa56b3789fceb847816a4fef606f80dfb" target="_top" xlink:title="Maps a one&#45;dimensional index to a multidimensional coordinate representation.">
<polygon fill="white" stroke="#666666" points="215,-17 129,-17 129,0 215,0 215,-17"/>
<text text-anchor="middle" x="172" y="-6.6" font-family="Helvetica,sans-Serif" font-size="8.00">chdr::utils::to_nd</text>
</a>
</g>
</g>
<!-- Node1&#45;&gt;Node3 -->
<g id="edge2_Node000001_Node000003" class="edge">
<title>Node1&#45;&gt;Node3</title>
<g id="a_edge2_Node000001_Node000003"><a xlink:title=" ">
<path fill="none" stroke="#63b8ff" d="M80,-20.4C92.16,-18.81 105.77,-17.03 118.68,-15.34"/>
<polygon fill="#63b8ff" stroke="#63b8ff" points="119.39,-18.78 128.85,-14.01 118.48,-11.84 119.39,-18.78"/>
</a>
</g>
</g>
</g>
</svg>
