<?xml version="1.0" encoding="UTF-8" standalone="no"?>
<!DOCTYPE svg PUBLIC "-//W3C//DTD SVG 1.1//EN"
 "http://www.w3.org/Graphics/SVG/1.1/DTD/svg11.dtd">
<!-- Generated by graphviz version 2.42.4 (0)
 -->
<!-- Title: contains Pages: 1 -->
<svg width="228pt" height="43pt"
 viewBox="0.00 0.00 228.00 43.00" xmlns="http://www.w3.org/2000/svg" xmlns:xlink="http://www.w3.org/1999/xlink">
<g id="graph0" class="graph" transform="scale(1 1) rotate(0) translate(4 39)">
<title>contains</title>
<!-- Node1 -->
<g id="Node000001" class="node">
<title>Node1</title>
<g id="a_Node000001"><a xlink:title="Determines whether the provided coordinate is within the bounds of the grid.">
<polygon fill="#999999" stroke="#666666" points="46,-17 0,-17 0,0 46,0 46,-17"/>
<text text-anchor="middle" x="23" y="-6.6" font-family="Helvetica,sans-Serif" font-size="8.00">contains</text>
</a>
</g>
</g>
<!-- Node2 -->
<g id="Node000002" class="node">
<title>Node2</title>
<g id="a_Node000002"><a xlink:href="../../dd/de3/classchdr_1_1mazes_1_1grid_a0abdfb4af71cccf812fb2b7150f0cc72.html#a0abdfb4af71cccf812fb2b7150f0cc72" target="_top" xlink:title="Retrieves the neighbours of a node within the grid.">
<polygon fill="white" stroke="#666666" points="220,-17 82,-17 82,0 220,0 220,-17"/>
<text text-anchor="middle" x="151" y="-6.6" font-family="Helvetica,sans-Serif" font-size="8.00">chdr::mazes::grid::get_neighbours</text>
</a>
</g>
</g>
<!-- Node1&#45;&gt;Node2 -->
<g id="edge1_Node000001_Node000002" class="edge">
<title>Node1&#45;&gt;Node2</title>
<g id="a_edge1_Node000001_Node000002"><a xlink:title=" ">
<path fill="none" stroke="#63b8ff" d="M46.24,-8.5C53.66,-8.5 62.4,-8.5 71.6,-8.5"/>
<polygon fill="#63b8ff" stroke="#63b8ff" points="71.74,-12 81.74,-8.5 71.74,-5 71.74,-12"/>
</a>
</g>
</g>
<!-- Node2&#45;&gt;Node2 -->
<g id="edge2_Node000002_Node000002" class="edge">
<title>Node2&#45;&gt;Node2</title>
<g id="a_edge2_Node000002_Node000002"><a xlink:title=" ">
<path fill="none" stroke="#63b8ff" d="M131.93,-17.19C121.39,-25.67 127.75,-35 151,-35 165.89,-35 173.86,-31.17 174.89,-26.19"/>
<polygon fill="#63b8ff" stroke="#63b8ff" points="177.87,-24.35 170.07,-17.19 171.7,-27.65 177.87,-24.35"/>
</a>
</g>
</g>
</g>
</svg>
