<?xml version="1.0" encoding="UTF-8" standalone="no"?>
<!DOCTYPE svg PUBLIC "-//W3C//DTD SVG 1.1//EN"
 "http://www.w3.org/Graphics/SVG/1.1/DTD/svg11.dtd">
<!-- Generated by graphviz version 2.42.4 (0)
 -->
<!-- Title: operator[] Pages: 1 -->
<svg width="361pt" height="43pt"
 viewBox="0.00 0.00 361.00 43.00" xmlns="http://www.w3.org/2000/svg" xmlns:xlink="http://www.w3.org/1999/xlink">
<g id="graph0" class="graph" transform="scale(1 1) rotate(0) translate(4 39)">
<title>operator[]</title>
<!-- Node1 -->
<g id="Node000001" class="node">
<title>Node1</title>
<g id="a_Node000001"><a xlink:title="Retrieves the node at a specified index.">
<polygon fill="#999999" stroke="#666666" points="58,-17 0,-17 0,0 58,0 58,-17"/>
<text text-anchor="middle" x="29" y="-6.6" font-family="Helvetica,sans-Serif" font-size="8.00">operator[]</text>
</a>
</g>
</g>
<!-- Node2 -->
<g id="Node000002" class="node">
<title>Node2</title>
<g id="a_Node000002"><a xlink:href="../../dd/de3/classchdr_1_1mazes_1_1grid_ad8b85d86fc073f5557471a856975a9a2.html#ad8b85d86fc073f5557471a856975a9a2" target="_top" xlink:title="Retrieves the node at a specified coordinate.">
<polygon fill="white" stroke="#666666" points="231,-17 94,-17 94,0 231,0 231,-17"/>
<text text-anchor="middle" x="162.5" y="-6.6" font-family="Helvetica,sans-Serif" font-size="8.00">chdr::mazes::grid::operator[]</text>
</a>
</g>
</g>
<!-- Node1&#45;&gt;Node2 -->
<g id="edge1_Node000001_Node000002" class="edge">
<title>Node1&#45;&gt;Node2</title>
<g id="a_edge1_Node000001_Node000002"><a xlink:title=" ">
<path fill="none" stroke="#63b8ff" d="M58.21,-8.5C65.89,-8.5 74.59,-8.5 83.61,-8.5"/>
<polygon fill="#63b8ff" stroke="#63b8ff" points="83.89,-12 93.89,-8.5 83.89,-5 83.89,-12"/>
</a>
</g>
</g>
<!-- Node2&#45;&gt;Node2 -->
<g id="edge2_Node000002_Node000002" class="edge">
<title>Node2&#45;&gt;Node2</title>
<g id="a_edge2_Node000002_Node000002"><a xlink:title=" ">
<path fill="none" stroke="#63b8ff" d="M142.83,-17.19C131.97,-25.67 138.52,-35 162.5,-35 177.86,-35 186.07,-31.17 187.13,-26.19"/>
<polygon fill="#63b8ff" stroke="#63b8ff" points="190.06,-24.25 182.17,-17.19 183.93,-27.63 190.06,-24.25"/>
</a>
</g>
</g>
<!-- Node3 -->
<g id="Node000003" class="node">
<title>Node3</title>
<g id="a_Node000003"><a xlink:href="../../d2/dcb/structchdr_1_1utils_a5741e93a4c4f5630e7c86bda862cf611.html#a5741e93a4c4f5630e7c86bda862cf611" target="_top" xlink:title="Maps a multidimensional index to a one&#45;dimensional array index.">
<polygon fill="white" stroke="#666666" points="353,-17 267,-17 267,0 353,0 353,-17"/>
<text text-anchor="middle" x="310" y="-6.6" font-family="Helvetica,sans-Serif" font-size="8.00">chdr::utils::to_1d</text>
</a>
</g>
</g>
<!-- Node2&#45;&gt;Node3 -->
<g id="edge3_Node000002_Node000003" class="edge">
<title>Node2&#45;&gt;Node3</title>
<g id="a_edge3_Node000002_Node000003"><a xlink:title=" ">
<path fill="none" stroke="#63b8ff" d="M231.14,-8.5C239.7,-8.5 248.35,-8.5 256.62,-8.5"/>
<polygon fill="#63b8ff" stroke="#63b8ff" points="256.85,-12 266.85,-8.5 256.85,-5 256.85,-12"/>
</a>
</g>
</g>
</g>
</svg>
