<?xml version="1.0" encoding="UTF-8" standalone="no"?>
<!DOCTYPE svg PUBLIC "-//W3C//DTD SVG 1.1//EN"
 "http://www.w3.org/Graphics/SVG/1.1/DTD/svg11.dtd">
<!-- Generated by graphviz version 2.42.4 (0)
 -->
<!-- Title: is_transitory Pages: 1 -->
<svg width="241pt" height="78pt"
 viewBox="0.00 0.00 241.00 78.00" xmlns="http://www.w3.org/2000/svg" xmlns:xlink="http://www.w3.org/1999/xlink">
<g id="graph0" class="graph" transform="scale(1 1) rotate(0) translate(4 74)">
<title>is_transitory</title>
<!-- Node1 -->
<g id="Node000001" class="node">
<title>Node1</title>
<g id="a_Node000001"><a xlink:title="Determines whether a cell is transitory based on its neighbours.">
<polygon fill="#999999" stroke="#666666" points="59,-43 0,-43 0,-26 59,-26 59,-43"/>
<text text-anchor="middle" x="29.5" y="-32.6" font-family="Helvetica,sans-Serif" font-size="8.00">is_transitory</text>
</a>
</g>
</g>
<!-- Node2 -->
<g id="Node000002" class="node">
<title>Node2</title>
<g id="a_Node000002"><a xlink:href="../../dd/de3/classchdr_1_1mazes_1_1grid_ad6077e456dd6abb62d82087b55dc2331.html#ad6077e456dd6abb62d82087b55dc2331" target="_top" xlink:title="Retrieves the total count of elements in the grid.">
<polygon fill="white" stroke="#666666" points="215,-70 113,-70 113,-53 215,-53 215,-70"/>
<text text-anchor="middle" x="164" y="-59.6" font-family="Helvetica,sans-Serif" font-size="8.00">chdr::mazes::grid::count</text>
</a>
</g>
</g>
<!-- Node1&#45;&gt;Node2 -->
<g id="edge1_Node000001_Node000002" class="edge">
<title>Node1&#45;&gt;Node2</title>
<g id="a_edge1_Node000001_Node000002"><a xlink:title=" ">
<path fill="none" stroke="#63b8ff" d="M59.25,-40.36C74.39,-43.44 93.43,-47.32 111.06,-50.92"/>
<polygon fill="#63b8ff" stroke="#63b8ff" points="110.73,-54.42 121.23,-52.99 112.13,-47.56 110.73,-54.42"/>
</a>
</g>
</g>
<!-- Node3 -->
<g id="Node000003" class="node">
<title>Node3</title>
<g id="a_Node000003"><a xlink:href="../../dd/de3/classchdr_1_1mazes_1_1grid_a0abdfb4af71cccf812fb2b7150f0cc72.html#a0abdfb4af71cccf812fb2b7150f0cc72" target="_top" xlink:title="Retrieves the neighbours of a node within the grid.">
<polygon fill="white" stroke="#666666" points="233,-17 95,-17 95,0 233,0 233,-17"/>
<text text-anchor="middle" x="164" y="-6.6" font-family="Helvetica,sans-Serif" font-size="8.00">chdr::mazes::grid::get_neighbours</text>
</a>
</g>
</g>
<!-- Node1&#45;&gt;Node3 -->
<g id="edge2_Node000001_Node000003" class="edge">
<title>Node1&#45;&gt;Node3</title>
<g id="a_edge2_Node000001_Node000003"><a xlink:title=" ">
<path fill="none" stroke="#63b8ff" d="M59.25,-28.86C73.95,-25.97 92.32,-22.37 109.5,-19"/>
<polygon fill="#63b8ff" stroke="#63b8ff" points="110.3,-22.41 119.44,-17.05 108.95,-15.54 110.3,-22.41"/>
</a>
</g>
</g>
<!-- Node3&#45;&gt;Node3 -->
<g id="edge3_Node000003_Node000003" class="edge">
<title>Node3&#45;&gt;Node3</title>
<g id="a_edge3_Node000003_Node000003"><a xlink:title=" ">
<path fill="none" stroke="#63b8ff" d="M144.03,-17.19C133,-25.67 139.66,-35 164,-35 179.97,-35 188.33,-30.98 189.07,-25.82"/>
<polygon fill="#63b8ff" stroke="#63b8ff" points="192.07,-24.01 183.97,-17.19 186.04,-27.58 192.07,-24.01"/>
</a>
</g>
</g>
</g>
</svg>
