<?xml version="1.0" encoding="UTF-8" standalone="no"?>
<!DOCTYPE svg PUBLIC "-//W3C//DTD SVG 1.1//EN"
 "http://www.w3.org/Graphics/SVG/1.1/DTD/svg11.dtd">
<!-- Generated by graphviz version 2.42.4 (0)
 -->
<!-- Title: get_neighbours Pages: 1 -->
<svg width="254pt" height="113pt"
 viewBox="0.00 0.00 254.00 113.00" xmlns="http://www.w3.org/2000/svg" xmlns:xlink="http://www.w3.org/1999/xlink">
<g id="graph0" class="graph" transform="scale(1 1) rotate(0) translate(4 109)">
<title>get_neighbours</title>
<!-- Node1 -->
<g id="Node000001" class="node">
<title>Node1</title>
<g id="a_Node000001"><a xlink:title="Retrieves the neighbours of a node within the grid.">
<polygon fill="#999999" stroke="#666666" points="72,-52 0,-52 0,-35 72,-35 72,-52"/>
<text text-anchor="middle" x="36" y="-41.6" font-family="Helvetica,sans-Serif" font-size="8.00">get_neighbours</text>
</a>
</g>
</g>
<!-- Node2 -->
<g id="Node000002" class="node">
<title>Node2</title>
<g id="a_Node000002"><a xlink:href="../../dd/de3/classchdr_1_1mazes_1_1grid_a0abdfb4af71cccf812fb2b7150f0cc72.html#a0abdfb4af71cccf812fb2b7150f0cc72" target="_top" xlink:title="Retrieves the neighbours of a node within the grid.">
<polygon fill="white" stroke="#666666" points="246,-87 108,-87 108,-70 246,-70 246,-87"/>
<text text-anchor="middle" x="177" y="-76.6" font-family="Helvetica,sans-Serif" font-size="8.00">chdr::mazes::grid::get_neighbours</text>
</a>
</g>
</g>
<!-- Node1&#45;&gt;Node2 -->
<g id="edge1_Node000001_Node000002" class="edge">
<title>Node1&#45;&gt;Node2</title>
<g id="a_edge1_Node000001_Node000002"><a xlink:title=" ">
<path fill="none" stroke="#63b8ff" d="M70.58,-52.04C82.41,-55.04 95.79,-58.43 108,-61.5 115.72,-63.44 123.93,-65.5 131.88,-67.49"/>
<polygon fill="#63b8ff" stroke="#63b8ff" points="131.2,-70.93 141.75,-69.96 132.9,-64.14 131.2,-70.93"/>
</a>
</g>
</g>
<!-- Node3 -->
<g id="Node000003" class="node">
<title>Node3</title>
<g id="a_Node000003"><a xlink:href="../../dd/de3/classchdr_1_1mazes_1_1grid_a32d34adb7833cb15aa705c6c7ada57a8.html#a32d34adb7833cb15aa705c6c7ada57a8" target="_top" xlink:title="Retrieves the size of the grid.">
<polygon fill="white" stroke="#666666" points="225,-52 129,-52 129,-35 225,-35 225,-52"/>
<text text-anchor="middle" x="177" y="-41.6" font-family="Helvetica,sans-Serif" font-size="8.00">chdr::mazes::grid::size</text>
</a>
</g>
</g>
<!-- Node1&#45;&gt;Node3 -->
<g id="edge3_Node000001_Node000003" class="edge">
<title>Node1&#45;&gt;Node3</title>
<g id="a_edge3_Node000001_Node000003"><a xlink:title=" ">
<path fill="none" stroke="#63b8ff" d="M72.08,-43.5C86.19,-43.5 102.85,-43.5 118.64,-43.5"/>
<polygon fill="#63b8ff" stroke="#63b8ff" points="118.86,-47 128.86,-43.5 118.86,-40 118.86,-47"/>
</a>
</g>
</g>
<!-- Node4 -->
<g id="Node000004" class="node">
<title>Node4</title>
<g id="a_Node000004"><a xlink:href="../../d2/dcb/structchdr_1_1utils_aa56b3789fceb847816a4fef606f80dfb.html#aa56b3789fceb847816a4fef606f80dfb" target="_top" xlink:title="Maps a one&#45;dimensional index to a multidimensional coordinate representation.">
<polygon fill="white" stroke="#666666" points="214.5,-17 139.5,-17 139.5,0 214.5,0 214.5,-17"/>
<text text-anchor="middle" x="177" y="-6.6" font-family="Helvetica,sans-Serif" font-size="8.00">chdr::utils::to_nd</text>
</a>
</g>
</g>
<!-- Node1&#45;&gt;Node4 -->
<g id="edge4_Node000001_Node000004" class="edge">
<title>Node1&#45;&gt;Node4</title>
<g id="a_edge4_Node000001_Node000004"><a xlink:title=" ">
<path fill="none" stroke="#63b8ff" d="M71,-34.94C89.43,-30.3 112.41,-24.51 132.17,-19.54"/>
<polygon fill="#63b8ff" stroke="#63b8ff" points="133.02,-22.93 141.87,-17.09 131.31,-16.14 133.02,-22.93"/>
</a>
</g>
</g>
<!-- Node2&#45;&gt;Node2 -->
<g id="edge2_Node000002_Node000002" class="edge">
<title>Node2&#45;&gt;Node2</title>
<g id="a_edge2_Node000002_Node000002"><a xlink:title=" ">
<path fill="none" stroke="#63b8ff" d="M156.14,-87.19C144.62,-95.67 151.57,-105 177,-105 193.69,-105 202.42,-100.98 203.19,-95.82"/>
<polygon fill="#63b8ff" stroke="#63b8ff" points="206.09,-93.86 197.86,-87.19 200.14,-97.53 206.09,-93.86"/>
</a>
</g>
</g>
</g>
</svg>
