<?xml version="1.0" encoding="UTF-8" standalone="no"?>
<!DOCTYPE svg PUBLIC "-//W3C//DTD SVG 1.1//EN"
 "http://www.w3.org/Graphics/SVG/1.1/DTD/svg11.dtd">
<!-- Generated by graphviz version 2.42.4 (0)
 -->
<!-- Title: operator[] Pages: 1 -->
<svg width="382pt" height="44pt"
 viewBox="0.00 0.00 382.00 44.00" xmlns="http://www.w3.org/2000/svg" xmlns:xlink="http://www.w3.org/1999/xlink">
<g id="graph0" class="graph" transform="scale(1 1) rotate(0) translate(4 40)">
<title>operator[]</title>
<!-- Node1 -->
<g id="Node000001" class="node">
<title>Node1</title>
<g id="a_Node000001"><a xlink:title="Retrieves the node at a specified index.">
<polygon fill="#999999" stroke="#666666" points="52,-17 0,-17 0,0 52,0 52,-17"/>
<text text-anchor="middle" x="26" y="-6.6" font-family="Helvetica,sans-Serif" font-size="8.00">operator[]</text>
</a>
</g>
</g>
<!-- Node2 -->
<g id="Node000002" class="node">
<title>Node2</title>
<g id="a_Node000002"><a xlink:href="../../dd/de3/classchdr_1_1mazes_1_1grid_a46e18201c09becda23eeaa0290ff1a21.html#a46e18201c09becda23eeaa0290ff1a21" target="_top" xlink:title="Determines whether the provided coordinate is within the bounds of the grid.">
<polygon fill="white" stroke="#666666" points="200,-36 88,-36 88,-19 200,-19 200,-36"/>
<text text-anchor="middle" x="144" y="-25.6" font-family="Helvetica,sans-Serif" font-size="8.00">chdr::mazes::grid::contains</text>
</a>
</g>
</g>
<!-- Node1&#45;&gt;Node2 -->
<g id="edge1_Node000001_Node000002" class="edge">
<title>Node1&#45;&gt;Node2</title>
<g id="a_edge1_Node000001_Node000002"><a xlink:title=" ">
<path fill="none" stroke="#63b8ff" d="M52.17,-12.62C60.67,-14.01 70.56,-15.64 80.64,-17.29"/>
<polygon fill="#63b8ff" stroke="#63b8ff" points="80.29,-20.78 90.72,-18.94 81.42,-13.87 80.29,-20.78"/>
</a>
</g>
</g>
<!-- Node3 -->
<g id="Node000003" class="node">
<title>Node3</title>
<g id="a_Node000003"><a xlink:href="../../dd/de3/classchdr_1_1mazes_1_1grid_a0abdfb4af71cccf812fb2b7150f0cc72.html#a0abdfb4af71cccf812fb2b7150f0cc72" target="_top" xlink:title="Retrieves the neighbours of a node within the grid.">
<polygon fill="white" stroke="#666666" points="374,-17 236,-17 236,0 374,0 374,-17"/>
<text text-anchor="middle" x="305" y="-6.6" font-family="Helvetica,sans-Serif" font-size="8.00">chdr::mazes::grid::get_neighbours</text>
</a>
</g>
</g>
<!-- Node1&#45;&gt;Node3 -->
<g id="edge4_Node000001_Node000003" class="edge">
<title>Node1&#45;&gt;Node3</title>
<g id="a_edge4_Node000001_Node000003"><a xlink:title=" ">
<path fill="none" stroke="#63b8ff" d="M52.07,-8.5C90.83,-8.5 166.92,-8.5 225.38,-8.5"/>
<polygon fill="#63b8ff" stroke="#63b8ff" points="225.71,-12 235.71,-8.5 225.71,-5 225.71,-12"/>
</a>
</g>
</g>
<!-- Node2&#45;&gt;Node3 -->
<g id="edge2_Node000002_Node000003" class="edge">
<title>Node2&#45;&gt;Node3</title>
<g id="a_edge2_Node000002_Node000003"><a xlink:title=" ">
<path fill="none" stroke="#63b8ff" d="M200.16,-20.91C208.42,-19.92 217.05,-18.89 225.68,-17.86"/>
<polygon fill="#63b8ff" stroke="#63b8ff" points="226.25,-21.32 235.76,-16.65 225.42,-14.37 226.25,-21.32"/>
</a>
</g>
</g>
<!-- Node3&#45;&gt;Node3 -->
<g id="edge3_Node000003_Node000003" class="edge">
<title>Node3&#45;&gt;Node3</title>
<g id="a_edge3_Node000003_Node000003"><a xlink:title=" ">
<path fill="none" stroke="#63b8ff" d="M281.16,-17.19C267.99,-25.67 275.94,-35 305,-35 324.98,-35 334.98,-30.59 335,-25.08"/>
<polygon fill="#63b8ff" stroke="#63b8ff" points="337.75,-22.92 328.84,-17.19 332.23,-27.22 337.75,-22.92"/>
</a>
</g>
</g>
</g>
</svg>
