<?xml version="1.0" encoding="UTF-8" standalone="no"?>
<!DOCTYPE svg PUBLIC "-//W3C//DTD SVG 1.1//EN"
 "http://www.w3.org/Graphics/SVG/1.1/DTD/svg11.dtd">
<!-- Generated by graphviz version 2.42.4 (0)
 -->
<!-- Title: operator[] Pages: 1 -->
<svg width="388pt" height="88pt"
 viewBox="0.00 0.00 388.00 88.00" xmlns="http://www.w3.org/2000/svg" xmlns:xlink="http://www.w3.org/1999/xlink">
<g id="graph0" class="graph" transform="scale(1 1) rotate(0) translate(4 84)">
<title>operator[]</title>
<!-- Node1 -->
<g id="Node000001" class="node">
<title>Node1</title>
<g id="a_Node000001"><a xlink:title="Retrieves the node at a specified index.">
<polygon fill="#999999" stroke="#666666" points="52,-44 0,-44 0,-27 52,-27 52,-44"/>
<text text-anchor="middle" x="26" y="-33.6" font-family="Helvetica,sans-Serif" font-size="8.00">operator[]</text>
</a>
</g>
</g>
<!-- Node2 -->
<g id="Node000002" class="node">
<title>Node2</title>
<g id="a_Node000002"><a xlink:href="../../dd/de3/classchdr_1_1mazes_1_1grid_a0abdfb4af71cccf812fb2b7150f0cc72.html#a0abdfb4af71cccf812fb2b7150f0cc72" target="_top" xlink:title="Retrieves the neighbours of a node within the grid.">
<polygon fill="white" stroke="#666666" points="380,-62 242,-62 242,-45 380,-45 380,-62"/>
<text text-anchor="middle" x="311" y="-51.6" font-family="Helvetica,sans-Serif" font-size="8.00">chdr::mazes::grid::get_neighbours</text>
</a>
</g>
</g>
<!-- Node1&#45;&gt;Node2 -->
<g id="edge1_Node000001_Node000002" class="edge">
<title>Node1&#45;&gt;Node2</title>
<g id="a_edge1_Node000001_Node000002"><a xlink:title=" ">
<path fill="none" stroke="#63b8ff" d="M52.15,-39.82C63.13,-41.55 76.17,-43.39 88,-44.5 135.64,-48.97 189.24,-51.22 231.84,-52.35"/>
<polygon fill="#63b8ff" stroke="#63b8ff" points="231.78,-55.85 241.86,-52.6 231.95,-48.85 231.78,-55.85"/>
</a>
</g>
</g>
<!-- Node3 -->
<g id="Node000003" class="node">
<title>Node3</title>
<g id="a_Node000003"><a xlink:href="../../dd/de3/classchdr_1_1mazes_1_1grid_ad8b85d86fc073f5557471a856975a9a2.html#ad8b85d86fc073f5557471a856975a9a2" target="_top" xlink:title="Retrieves the node at a specified coordinate.">
<polygon fill="white" stroke="#666666" points="206,-17 88,-17 88,0 206,0 206,-17"/>
<text text-anchor="middle" x="147" y="-6.6" font-family="Helvetica,sans-Serif" font-size="8.00">chdr::mazes::grid::operator[]</text>
</a>
</g>
</g>
<!-- Node1&#45;&gt;Node3 -->
<g id="edge3_Node000001_Node000003" class="edge">
<title>Node1&#45;&gt;Node3</title>
<g id="a_edge3_Node000001_Node000003"><a xlink:title=" ">
<path fill="none" stroke="#63b8ff" d="M52.24,-29.77C65.56,-26.75 82.35,-22.94 98.04,-19.38"/>
<polygon fill="#63b8ff" stroke="#63b8ff" points="99.16,-22.72 108.13,-17.09 97.61,-15.89 99.16,-22.72"/>
</a>
</g>
</g>
<!-- Node2&#45;&gt;Node2 -->
<g id="edge2_Node000002_Node000002" class="edge">
<title>Node2&#45;&gt;Node2</title>
<g id="a_edge2_Node000002_Node000002"><a xlink:title=" ">
<path fill="none" stroke="#63b8ff" d="M286.56,-62.19C273.07,-70.67 281.21,-80 311,-80 331.48,-80 341.73,-75.59 341.75,-70.08"/>
<polygon fill="#63b8ff" stroke="#63b8ff" points="344.42,-67.81 335.44,-62.19 338.95,-72.18 344.42,-67.81"/>
</a>
</g>
</g>
<!-- Node3&#45;&gt;Node2 -->
<g id="edge4_Node000003_Node000002" class="edge">
<title>Node3&#45;&gt;Node2</title>
<g id="a_edge4_Node000003_Node000002"><a xlink:title=" ">
<path fill="none" stroke="#63b8ff" d="M178.85,-17.07C204.53,-24.2 241.28,-34.41 269.35,-42.21"/>
<polygon fill="#63b8ff" stroke="#63b8ff" points="268.69,-45.66 279.26,-44.96 270.56,-38.91 268.69,-45.66"/>
</a>
</g>
</g>
<!-- Node3&#45;&gt;Node3 -->
<g id="edge5_Node000003_Node000003" class="edge">
<title>Node3&#45;&gt;Node3</title>
<g id="a_edge5_Node000003_Node000003"><a xlink:title=" ">
<path fill="none" stroke="#63b8ff" d="M129.12,-17.19C119.24,-25.67 125.2,-35 147,-35 160.96,-35 168.43,-31.17 169.39,-26.19"/>
<polygon fill="#63b8ff" stroke="#63b8ff" points="172.49,-24.56 164.88,-17.19 166.23,-27.69 172.49,-24.56"/>
</a>
</g>
</g>
<!-- Node4 -->
<g id="Node000004" class="node">
<title>Node4</title>
<g id="a_Node000004"><a xlink:href="../../d2/dcb/structchdr_1_1utils_a5741e93a4c4f5630e7c86bda862cf611.html#a5741e93a4c4f5630e7c86bda862cf611" target="_top" xlink:title="Maps a multidimensional index to a one&#45;dimensional array index.">
<polygon fill="white" stroke="#666666" points="348.5,-17 273.5,-17 273.5,0 348.5,0 348.5,-17"/>
<text text-anchor="middle" x="311" y="-6.6" font-family="Helvetica,sans-Serif" font-size="8.00">chdr::utils::to_1d</text>
</a>
</g>
</g>
<!-- Node3&#45;&gt;Node4 -->
<g id="edge6_Node000003_Node000004" class="edge">
<title>Node3&#45;&gt;Node4</title>
<g id="a_edge6_Node000003_Node000004"><a xlink:title=" ">
<path fill="none" stroke="#63b8ff" d="M206.03,-8.5C224.7,-8.5 245.14,-8.5 262.93,-8.5"/>
<polygon fill="#63b8ff" stroke="#63b8ff" points="263.05,-12 273.05,-8.5 263.05,-5 263.05,-12"/>
</a>
</g>
</g>
</g>
</svg>
