<?xml version="1.0" encoding="UTF-8" standalone="no"?>
<!DOCTYPE svg PUBLIC "-//W3C//DTD SVG 1.1//EN"
 "http://www.w3.org/Graphics/SVG/1.1/DTD/svg11.dtd">
<!-- Generated by graphviz version 2.42.4 (0)
 -->
<!-- Title: operator[] Pages: 1 -->
<svg width="388pt" height="79pt"
 viewBox="0.00 0.00 388.00 79.18" xmlns="http://www.w3.org/2000/svg" xmlns:xlink="http://www.w3.org/1999/xlink">
<g id="graph0" class="graph" transform="scale(1 1) rotate(0) translate(4 75.18)">
<title>operator[]</title>
<!-- Node1 -->
<g id="Node000001" class="node">
<title>Node1</title>
<g id="a_Node000001"><a xlink:title="Retrieves the node at a specified coordinate.">
<polygon fill="#999999" stroke="#666666" points="52,-35 0,-35 0,-18 52,-18 52,-35"/>
<text text-anchor="middle" x="26" y="-24.6" font-family="Helvetica,sans-Serif" font-size="8.00">operator[]</text>
</a>
</g>
</g>
<!-- Node2 -->
<g id="Node000002" class="node">
<title>Node2</title>
<g id="a_Node000002"><a xlink:href="../../dd/de3/classchdr_1_1mazes_1_1grid_a0abdfb4af71cccf812fb2b7150f0cc72.html#a0abdfb4af71cccf812fb2b7150f0cc72" target="_top" xlink:title="Retrieves the neighbours of a node within the grid.">
<polygon fill="white" stroke="#666666" points="380,-53 242,-53 242,-36 380,-36 380,-53"/>
<text text-anchor="middle" x="311" y="-42.6" font-family="Helvetica,sans-Serif" font-size="8.00">chdr::mazes::grid::get_neighbours</text>
</a>
</g>
</g>
<!-- Node1&#45;&gt;Node2 -->
<g id="edge1_Node000001_Node000002" class="edge">
<title>Node1&#45;&gt;Node2</title>
<g id="a_edge1_Node000001_Node000002"><a xlink:title=" ">
<path fill="none" stroke="#63b8ff" d="M37.43,-35.05C48.98,-43.91 68.55,-57.19 88,-62.5 150.46,-79.56 226.2,-66.6 271.12,-55.59"/>
<polygon fill="#63b8ff" stroke="#63b8ff" points="272.2,-58.93 281.03,-53.07 270.48,-52.14 272.2,-58.93"/>
</a>
</g>
</g>
<!-- Node3 -->
<g id="Node000003" class="node">
<title>Node3</title>
<g id="a_Node000003"><a xlink:href="../../dd/de3/classchdr_1_1mazes_1_1grid_ad8b85d86fc073f5557471a856975a9a2.html#ad8b85d86fc073f5557471a856975a9a2" target="_top" xlink:title="Retrieves the node at a specified coordinate.">
<polygon fill="white" stroke="#666666" points="206,-35 88,-35 88,-18 206,-18 206,-35"/>
<text text-anchor="middle" x="147" y="-24.6" font-family="Helvetica,sans-Serif" font-size="8.00">chdr::mazes::grid::operator[]</text>
</a>
</g>
</g>
<!-- Node1&#45;&gt;Node3 -->
<g id="edge3_Node000001_Node000003" class="edge">
<title>Node1&#45;&gt;Node3</title>
<g id="a_edge3_Node000001_Node000003"><a xlink:title=" ">
<path fill="none" stroke="#63b8ff" d="M52.24,-26.5C59.95,-26.5 68.83,-26.5 77.99,-26.5"/>
<polygon fill="#63b8ff" stroke="#63b8ff" points="77.99,-30 87.99,-26.5 77.99,-23 77.99,-30"/>
</a>
</g>
</g>
<!-- Node4 -->
<g id="Node000004" class="node">
<title>Node4</title>
<g id="a_Node000004"><a xlink:href="../../d2/dcb/structchdr_1_1utils_a5741e93a4c4f5630e7c86bda862cf611.html#a5741e93a4c4f5630e7c86bda862cf611" target="_top" xlink:title="Maps a multidimensional index to a one&#45;dimensional array index.">
<polygon fill="white" stroke="#666666" points="348.5,-17 273.5,-17 273.5,0 348.5,0 348.5,-17"/>
<text text-anchor="middle" x="311" y="-6.6" font-family="Helvetica,sans-Serif" font-size="8.00">chdr::utils::to_1d</text>
</a>
</g>
</g>
<!-- Node1&#45;&gt;Node4 -->
<g id="edge7_Node000001_Node000004" class="edge">
<title>Node1&#45;&gt;Node4</title>
<g id="a_edge7_Node000001_Node000004"><a xlink:title=" ">
<path fill="none" stroke="#63b8ff" d="M50.11,-17.98C61.37,-14.27 75.21,-10.35 88,-8.5 147.98,0.17 218.04,-1.81 263.16,-4.63"/>
<polygon fill="#63b8ff" stroke="#63b8ff" points="263.03,-8.13 273.24,-5.3 263.49,-1.15 263.03,-8.13"/>
</a>
</g>
</g>
<!-- Node2&#45;&gt;Node2 -->
<g id="edge2_Node000002_Node000002" class="edge">
<title>Node2&#45;&gt;Node2</title>
<g id="a_edge2_Node000002_Node000002"><a xlink:title=" ">
<path fill="none" stroke="#63b8ff" d="M286.56,-53.19C273.07,-61.67 281.21,-71 311,-71 331.48,-71 341.73,-66.59 341.75,-61.08"/>
<polygon fill="#63b8ff" stroke="#63b8ff" points="344.42,-58.81 335.44,-53.19 338.95,-63.18 344.42,-58.81"/>
</a>
</g>
</g>
<!-- Node3&#45;&gt;Node2 -->
<g id="edge4_Node000003_Node000002" class="edge">
<title>Node3&#45;&gt;Node2</title>
<g id="a_edge4_Node000003_Node000002"><a xlink:title=" ">
<path fill="none" stroke="#63b8ff" d="M206.03,-32.95C214.38,-33.88 223.09,-34.84 231.75,-35.81"/>
<polygon fill="#63b8ff" stroke="#63b8ff" points="231.56,-39.31 241.88,-36.93 232.33,-32.35 231.56,-39.31"/>
</a>
</g>
</g>
<!-- Node3&#45;&gt;Node3 -->
<g id="edge5_Node000003_Node000003" class="edge">
<title>Node3&#45;&gt;Node3</title>
<g id="a_edge5_Node000003_Node000003"><a xlink:title=" ">
<path fill="none" stroke="#63b8ff" d="M129.12,-35.19C119.24,-43.67 125.2,-53 147,-53 160.96,-53 168.43,-49.17 169.39,-44.19"/>
<polygon fill="#63b8ff" stroke="#63b8ff" points="172.49,-42.56 164.88,-35.19 166.23,-45.69 172.49,-42.56"/>
</a>
</g>
</g>
<!-- Node3&#45;&gt;Node4 -->
<g id="edge6_Node000003_Node000004" class="edge">
<title>Node3&#45;&gt;Node4</title>
<g id="a_edge6_Node000003_Node000004"><a xlink:title=" ">
<path fill="none" stroke="#63b8ff" d="M206.03,-20.05C224.7,-17.98 245.14,-15.71 262.93,-13.73"/>
<polygon fill="#63b8ff" stroke="#63b8ff" points="263.5,-17.19 273.05,-12.61 262.73,-10.23 263.5,-17.19"/>
</a>
</g>
</g>
</g>
</svg>
