<?xml version="1.0" encoding="UTF-8" standalone="no"?>
<!DOCTYPE svg PUBLIC "-//W3C//DTD SVG 1.1//EN"
 "http://www.w3.org/Graphics/SVG/1.1/DTD/svg11.dtd">
<!-- Generated by graphviz version 2.43.0 (0)
 -->
<!-- Title: at Pages: 1 -->
<svg width="150pt" height="43pt"
 viewBox="0.00 0.00 150.23 43.00" xmlns="http://www.w3.org/2000/svg" xmlns:xlink="http://www.w3.org/1999/xlink">
<g id="graph0" class="graph" transform="scale(1 1) rotate(0) translate(4 39)">
<title>at</title>
<!-- Node1 -->
<g id="Node000001" class="node">
<title>Node1</title>
<g id="a_Node000001"><a xlink:title="Retrieves the node at a specified coordinate.">
<polygon fill="#999999" stroke="#666666" points="31.23,-17 2.23,-17 2.23,0 31.23,0 31.23,-17"/>
<text text-anchor="middle" x="16.73" y="-6.6" font-family="Helvetica,sans-Serif" font-size="8.00">at</text>
</a>
</g>
</g>
<!-- Node1&#45;&gt;Node1 -->
<g id="edge1_Node000001_Node000001" class="edge">
<title>Node1&#45;&gt;Node1</title>
<g id="a_edge1_Node000001_Node000001"><a xlink:title=" ">
<path fill="none" stroke="#63b8ff" d="M3.61,-17.19C-3.63,-25.67 0.74,-35 16.73,-35 26.47,-35 31.89,-31.54 33.01,-26.91"/>
<polygon fill="#63b8ff" stroke="#63b8ff" points="36.27,-25.61 29.84,-17.19 29.61,-27.78 36.27,-25.61"/>
</a>
</g>
</g>
<!-- Node2 -->
<g id="Node000002" class="node">
<title>Node2</title>
<g id="a_Node000002"><a xlink:href="../../d2/dcb/structchdr_1_1utils_a5741e93a4c4f5630e7c86bda862cf611.html#a5741e93a4c4f5630e7c86bda862cf611" target="_top" xlink:title="Maps a multidimensional index to a one&#45;dimensional array index.">
<polygon fill="white" stroke="#666666" points="142.23,-17 67.23,-17 67.23,0 142.23,0 142.23,-17"/>
<text text-anchor="middle" x="104.73" y="-6.6" font-family="Helvetica,sans-Serif" font-size="8.00">chdr::utils::to_1d</text>
</a>
</g>
</g>
<!-- Node1&#45;&gt;Node2 -->
<g id="edge2_Node000001_Node000002" class="edge">
<title>Node1&#45;&gt;Node2</title>
<g id="a_edge2_Node000001_Node000002"><a xlink:title=" ">
<path fill="none" stroke="#63b8ff" d="M31.54,-8.5C38.59,-8.5 47.61,-8.5 56.87,-8.5"/>
<polygon fill="#63b8ff" stroke="#63b8ff" points="56.93,-12 66.93,-8.5 56.93,-5 56.93,-12"/>
</a>
</g>
</g>
</g>
</svg>
