<?xml version="1.0" encoding="UTF-8" standalone="no"?>
<!DOCTYPE svg PUBLIC "-//W3C//DTD SVG 1.1//EN"
 "http://www.w3.org/Graphics/SVG/1.1/DTD/svg11.dtd">
<!-- Generated by graphviz version 2.43.0 (0)
 -->
<!-- Title: eidbest_first.hpp Pages: 1 -->
<svg width="595pt" height="237pt"
 viewBox="0.00 0.00 595.48 237.00" xmlns="http://www.w3.org/2000/svg" xmlns:xlink="http://www.w3.org/1999/xlink">
<g id="graph0" class="graph" transform="scale(1 1) rotate(0) translate(4 233)">
<title>eidbest_first.hpp</title>
<!-- Node1 -->
<g id="Node000001" class="node">
<title>Node1</title>
<g id="a_Node000001"><a xlink:title=" ">
<polygon fill="#999999" stroke="#666666" points="308.98,-229 233.98,-229 233.98,-212 308.98,-212 308.98,-229"/>
<text text-anchor="middle" x="271.48" y="-218.6" font-family="Helvetica,sans-Serif" font-size="8.00">eidbest_first.hpp</text>
</a>
</g>
</g>
<!-- Node2 -->
<g id="Node000002" class="node">
<title>Node2</title>
<g id="a_Node000002"><a xlink:title=" ">
<polygon fill="#e0e0e0" stroke="#999999" points="587.48,-70 553.48,-70 553.48,-53 587.48,-53 587.48,-70"/>
<text text-anchor="middle" x="570.48" y="-59.6" font-family="Helvetica,sans-Serif" font-size="8.00">limits</text>
</a>
</g>
</g>
<!-- Node1&#45;&gt;Node2 -->
<g id="edge1_Node000001_Node000002" class="edge">
<title>Node1&#45;&gt;Node2</title>
<g id="a_edge1_Node000001_Node000002"><a xlink:title=" ">
<path fill="none" stroke="#63b8ff" d="M309.27,-215.59C346.09,-210.54 402.76,-199.46 446.48,-176 493.89,-150.56 537.33,-102.9 557.92,-78.21"/>
<polygon fill="#63b8ff" stroke="#63b8ff" points="560.82,-80.2 564.44,-70.24 555.4,-75.77 560.82,-80.2"/>
</a>
</g>
</g>
<!-- Node3 -->
<g id="Node000003" class="node">
<title>Node3</title>
<g id="a_Node000003"><a xlink:title=" ">
<polygon fill="#e0e0e0" stroke="#999999" points="196.48,-123 158.48,-123 158.48,-106 196.48,-106 196.48,-123"/>
<text text-anchor="middle" x="177.48" y="-112.6" font-family="Helvetica,sans-Serif" font-size="8.00">vector</text>
</a>
</g>
</g>
<!-- Node1&#45;&gt;Node3 -->
<g id="edge2_Node000001_Node000003" class="edge">
<title>Node1&#45;&gt;Node3</title>
<g id="a_edge2_Node000001_Node000003"><a xlink:title=" ">
<path fill="none" stroke="#63b8ff" d="M262.89,-211.78C253.6,-203.3 238.52,-189.14 226.48,-176 213.11,-161.4 199,-143.71 189.37,-131.23"/>
<polygon fill="#63b8ff" stroke="#63b8ff" points="192.08,-129.02 183.23,-123.2 186.52,-133.27 192.08,-129.02"/>
</a>
</g>
</g>
<!-- Node4 -->
<g id="Node000004" class="node">
<title>Node4</title>
<g id="a_Node000004"><a xlink:href="../../df/d47/stack_8hpp.html" target="_top" xlink:title=" ">
<polygon fill="white" stroke="#666666" points="178.98,-176 61.98,-176 61.98,-159 178.98,-159 178.98,-176"/>
<text text-anchor="middle" x="120.48" y="-165.6" font-family="Helvetica,sans-Serif" font-size="8.00">../types/containers/stack.hpp</text>
</a>
</g>
</g>
<!-- Node1&#45;&gt;Node4 -->
<g id="edge3_Node000001_Node000004" class="edge">
<title>Node1&#45;&gt;Node4</title>
<g id="a_edge3_Node000001_Node000004"><a xlink:title=" ">
<path fill="none" stroke="#63b8ff" d="M249.2,-211.97C223.66,-203.35 181.6,-189.14 152.54,-179.33"/>
<polygon fill="#63b8ff" stroke="#63b8ff" points="153.45,-175.94 142.85,-176.06 151.21,-182.57 153.45,-175.94"/>
</a>
</g>
</g>
<!-- Node7 -->
<g id="Node000007" class="node">
<title>Node7</title>
<g id="a_Node000007"><a xlink:href="../../d7/d65/intrinsics_8hpp.html" target="_top" xlink:title=" ">
<polygon fill="white" stroke="#666666" points="102.48,-70 10.48,-70 10.48,-53 102.48,-53 102.48,-70"/>
<text text-anchor="middle" x="56.48" y="-59.6" font-family="Helvetica,sans-Serif" font-size="8.00">../../utils/intrinsics.hpp</text>
</a>
</g>
</g>
<!-- Node1&#45;&gt;Node7 -->
<g id="edge28_Node000001_Node000007" class="edge">
<title>Node1&#45;&gt;Node7</title>
<g id="a_edge28_Node000001_Node000007"><a xlink:title=" ">
<path fill="none" stroke="#63b8ff" d="M233.76,-219.09C188.03,-217.06 109.98,-208.58 52.48,-176 19.66,-157.4 -11.49,-140.18 4.48,-106 10.4,-93.34 22.01,-83.06 32.77,-75.68"/>
<polygon fill="#63b8ff" stroke="#63b8ff" points="34.88,-78.49 41.46,-70.18 31.14,-72.58 34.88,-78.49"/>
</a>
</g>
</g>
<!-- Node10 -->
<g id="Node000010" class="node">
<title>Node10</title>
<g id="a_Node000010"><a xlink:href="../../df/d93/utils_8hpp.html" target="_top" xlink:title=" ">
<polygon fill="white" stroke="#666666" points="396.48,-123 328.48,-123 328.48,-106 396.48,-106 396.48,-123"/>
<text text-anchor="middle" x="362.48" y="-112.6" font-family="Helvetica,sans-Serif" font-size="8.00">../utils/utils.hpp</text>
</a>
</g>
</g>
<!-- Node1&#45;&gt;Node10 -->
<g id="edge11_Node000001_Node000010" class="edge">
<title>Node1&#45;&gt;Node10</title>
<g id="a_edge11_Node000001_Node000010"><a xlink:title=" ">
<path fill="none" stroke="#63b8ff" d="M280.15,-211.85C289.51,-203.43 304.65,-189.32 316.48,-176 329.19,-161.69 342.26,-144.18 351.21,-131.68"/>
<polygon fill="#63b8ff" stroke="#63b8ff" points="354.26,-133.43 357.17,-123.24 348.54,-129.39 354.26,-133.43"/>
</a>
</g>
</g>
<!-- Node16 -->
<g id="Node000016" class="node">
<title>Node16</title>
<g id="a_Node000016"><a xlink:href="../../dc/d3c/bnode_8hpp.html" target="_top" xlink:title=" ">
<polygon fill="white" stroke="#666666" points="437.48,-176 363.48,-176 363.48,-159 437.48,-159 437.48,-176"/>
<text text-anchor="middle" x="400.48" y="-165.6" font-family="Helvetica,sans-Serif" font-size="8.00">base/bnode.hpp</text>
</a>
</g>
</g>
<!-- Node1&#45;&gt;Node16 -->
<g id="edge20_Node000001_Node000016" class="edge">
<title>Node1&#45;&gt;Node16</title>
<g id="a_edge20_Node000001_Node000016"><a xlink:title=" ">
<path fill="none" stroke="#63b8ff" d="M290.52,-211.97C311.95,-203.5 347.02,-189.64 371.78,-179.85"/>
<polygon fill="#63b8ff" stroke="#63b8ff" points="373.36,-182.99 381.37,-176.06 370.78,-176.48 373.36,-182.99"/>
</a>
</g>
</g>
<!-- Node17 -->
<g id="Node000017" class="node">
<title>Node17</title>
<g id="a_Node000017"><a xlink:href="../../d2/d1c/solver_8hpp.html" target="_top" xlink:title=" ">
<polygon fill="white" stroke="#666666" points="307.48,-176 235.48,-176 235.48,-159 307.48,-159 307.48,-176"/>
<text text-anchor="middle" x="271.48" y="-165.6" font-family="Helvetica,sans-Serif" font-size="8.00">base/solver.hpp</text>
</a>
</g>
</g>
<!-- Node1&#45;&gt;Node17 -->
<g id="edge21_Node000001_Node000017" class="edge">
<title>Node1&#45;&gt;Node17</title>
<g id="a_edge21_Node000001_Node000017"><a xlink:title=" ">
<path fill="none" stroke="#63b8ff" d="M271.48,-211.97C271.48,-205.19 271.48,-194.97 271.48,-186.13"/>
<polygon fill="#63b8ff" stroke="#63b8ff" points="274.98,-186.06 271.48,-176.06 267.98,-186.06 274.98,-186.06"/>
</a>
</g>
</g>
<!-- Node4&#45;&gt;Node3 -->
<g id="edge6_Node000004_Node000003" class="edge">
<title>Node4&#45;&gt;Node3</title>
<g id="a_edge6_Node000004_Node000003"><a xlink:title=" ">
<path fill="none" stroke="#63b8ff" d="M128.89,-158.97C137.39,-151.37 150.75,-139.41 161.31,-129.97"/>
<polygon fill="#63b8ff" stroke="#63b8ff" points="163.92,-132.33 169.04,-123.06 159.25,-127.12 163.92,-132.33"/>
</a>
</g>
</g>
<!-- Node5 -->
<g id="Node000005" class="node">
<title>Node5</title>
<g id="a_Node000005"><a xlink:title=" ">
<polygon fill="#e0e0e0" stroke="#999999" points="183.48,-17 141.48,-17 141.48,0 183.48,0 183.48,-17"/>
<text text-anchor="middle" x="162.48" y="-6.6" font-family="Helvetica,sans-Serif" font-size="8.00">cstddef</text>
</a>
</g>
</g>
<!-- Node4&#45;&gt;Node5 -->
<g id="edge4_Node000004_Node000005" class="edge">
<title>Node4&#45;&gt;Node5</title>
<g id="a_edge4_Node000004_Node000005"><a xlink:title=" ">
<path fill="none" stroke="#63b8ff" d="M122.51,-158.93C128.87,-135.15 148.56,-61.56 157.71,-27.33"/>
<polygon fill="#63b8ff" stroke="#63b8ff" points="161.17,-27.93 160.38,-17.37 154.41,-26.12 161.17,-27.93"/>
</a>
</g>
</g>
<!-- Node6 -->
<g id="Node000006" class="node">
<title>Node6</title>
<g id="a_Node000006"><a xlink:title=" ">
<polygon fill="#e0e0e0" stroke="#999999" points="102.48,-123 20.48,-123 20.48,-106 102.48,-106 102.48,-123"/>
<text text-anchor="middle" x="61.48" y="-112.6" font-family="Helvetica,sans-Serif" font-size="8.00">memory_resource</text>
</a>
</g>
</g>
<!-- Node4&#45;&gt;Node6 -->
<g id="edge5_Node000004_Node000006" class="edge">
<title>Node4&#45;&gt;Node6</title>
<g id="a_edge5_Node000004_Node000006"><a xlink:title=" ">
<path fill="none" stroke="#63b8ff" d="M111.78,-158.97C102.89,-151.29 88.87,-139.18 77.89,-129.69"/>
<polygon fill="#63b8ff" stroke="#63b8ff" points="80.08,-126.95 70.22,-123.06 75.5,-132.24 80.08,-126.95"/>
</a>
</g>
</g>
<!-- Node4&#45;&gt;Node7 -->
<g id="edge7_Node000004_Node000007" class="edge">
<title>Node4&#45;&gt;Node7</title>
<g id="a_edge7_Node000004_Node000007"><a xlink:title=" ">
<path fill="none" stroke="#63b8ff" d="M69.1,-158.94C47.55,-152.96 24.51,-142.23 11.48,-123 0.23,-106.39 18.58,-87.98 35.12,-75.88"/>
<polygon fill="#63b8ff" stroke="#63b8ff" points="37.18,-78.72 43.44,-70.17 33.22,-72.95 37.18,-78.72"/>
</a>
</g>
</g>
<!-- Node7&#45;&gt;Node5 -->
<g id="edge9_Node000007_Node000005" class="edge">
<title>Node7&#45;&gt;Node5</title>
<g id="a_edge9_Node000007_Node000005"><a xlink:title=" ">
<path fill="none" stroke="#63b8ff" d="M72.12,-52.97C89.34,-44.69 117.28,-31.25 137.53,-21.5"/>
<polygon fill="#63b8ff" stroke="#63b8ff" points="139.28,-24.55 146.78,-17.06 136.25,-18.24 139.28,-24.55"/>
</a>
</g>
</g>
<!-- Node8 -->
<g id="Node000008" class="node">
<title>Node8</title>
<g id="a_Node000008"><a xlink:title=" ">
<polygon fill="#e0e0e0" stroke="#999999" points="40.48,-17 0.48,-17 0.48,0 40.48,0 40.48,-17"/>
<text text-anchor="middle" x="20.48" y="-6.6" font-family="Helvetica,sans-Serif" font-size="8.00">atomic</text>
</a>
</g>
</g>
<!-- Node7&#45;&gt;Node8 -->
<g id="edge8_Node000007_Node000008" class="edge">
<title>Node7&#45;&gt;Node8</title>
<g id="a_edge8_Node000007_Node000008"><a xlink:title=" ">
<path fill="none" stroke="#63b8ff" d="M51.17,-52.97C46.06,-45.74 38.19,-34.59 31.69,-25.39"/>
<polygon fill="#63b8ff" stroke="#63b8ff" points="34.44,-23.21 25.81,-17.06 28.72,-27.24 34.44,-23.21"/>
</a>
</g>
</g>
<!-- Node9 -->
<g id="Node000009" class="node">
<title>Node9</title>
<g id="a_Node000009"><a xlink:title=" ">
<polygon fill="#e0e0e0" stroke="#999999" points="96.48,-17 58.48,-17 58.48,0 96.48,0 96.48,-17"/>
<text text-anchor="middle" x="77.48" y="-6.6" font-family="Helvetica,sans-Serif" font-size="8.00">cstdlib</text>
</a>
</g>
</g>
<!-- Node7&#45;&gt;Node9 -->
<g id="edge10_Node000007_Node000009" class="edge">
<title>Node7&#45;&gt;Node9</title>
<g id="a_edge10_Node000007_Node000009"><a xlink:title=" ">
<path fill="none" stroke="#63b8ff" d="M59.58,-52.97C62.43,-46.04 66.77,-35.51 70.46,-26.55"/>
<polygon fill="#63b8ff" stroke="#63b8ff" points="73.8,-27.64 74.37,-17.06 67.33,-24.97 73.8,-27.64"/>
</a>
</g>
</g>
<!-- Node10&#45;&gt;Node2 -->
<g id="edge16_Node000010_Node000002" class="edge">
<title>Node10&#45;&gt;Node2</title>
<g id="a_edge16_Node000010_Node000002"><a xlink:title=" ">
<path fill="none" stroke="#63b8ff" d="M396.14,-105.95C430.76,-98.07 486.45,-85.1 543.53,-70.15"/>
<polygon fill="#63b8ff" stroke="#63b8ff" points="544.67,-73.47 553.45,-67.53 542.89,-66.7 544.67,-73.47"/>
</a>
</g>
</g>
<!-- Node10&#45;&gt;Node5 -->
<g id="edge14_Node000010_Node000005" class="edge">
<title>Node10&#45;&gt;Node5</title>
<g id="a_edge14_Node000010_Node000005"><a xlink:title=" ">
<path fill="none" stroke="#63b8ff" d="M352.67,-105.62C336.91,-93.22 304.64,-68.95 274.48,-53 248.14,-39.07 216.32,-27.14 193.34,-19.32"/>
<polygon fill="#63b8ff" stroke="#63b8ff" points="194.35,-15.97 183.76,-16.12 192.14,-22.61 194.35,-15.97"/>
</a>
</g>
</g>
<!-- Node10&#45;&gt;Node7 -->
<g id="edge19_Node000010_Node000007" class="edge">
<title>Node10&#45;&gt;Node7</title>
<g id="a_edge19_Node000010_Node000007"><a xlink:title=" ">
<path fill="none" stroke="#63b8ff" d="M328.27,-107.8C275.75,-99.04 174.74,-82.21 111.75,-71.71"/>
<polygon fill="#63b8ff" stroke="#63b8ff" points="112.04,-68.21 101.6,-70.02 110.89,-75.12 112.04,-68.21"/>
</a>
</g>
</g>
<!-- Node11 -->
<g id="Node000011" class="node">
<title>Node11</title>
<g id="a_Node000011"><a xlink:title=" ">
<polygon fill="#e0e0e0" stroke="#999999" points="356.98,-70 321.98,-70 321.98,-53 356.98,-53 356.98,-70"/>
<text text-anchor="middle" x="339.48" y="-59.6" font-family="Helvetica,sans-Serif" font-size="8.00">array</text>
</a>
</g>
</g>
<!-- Node10&#45;&gt;Node11 -->
<g id="edge12_Node000010_Node000011" class="edge">
<title>Node10&#45;&gt;Node11</title>
<g id="a_edge12_Node000010_Node000011"><a xlink:title=" ">
<path fill="none" stroke="#63b8ff" d="M359.09,-105.97C355.93,-98.97 351.11,-88.28 347.04,-79.25"/>
<polygon fill="#63b8ff" stroke="#63b8ff" points="350.19,-77.73 342.89,-70.06 343.81,-80.61 350.19,-77.73"/>
</a>
</g>
</g>
<!-- Node12 -->
<g id="Node000012" class="node">
<title>Node12</title>
<g id="a_Node000012"><a xlink:title=" ">
<polygon fill="#e0e0e0" stroke="#999999" points="413.48,-70 375.48,-70 375.48,-53 413.48,-53 413.48,-70"/>
<text text-anchor="middle" x="394.48" y="-59.6" font-family="Helvetica,sans-Serif" font-size="8.00">cmath</text>
</a>
</g>
</g>
<!-- Node10&#45;&gt;Node12 -->
<g id="edge13_Node000010_Node000012" class="edge">
<title>Node10&#45;&gt;Node12</title>
<g id="a_edge13_Node000010_Node000012"><a xlink:title=" ">
<path fill="none" stroke="#63b8ff" d="M367.2,-105.97C371.69,-98.82 378.59,-87.82 384.33,-78.67"/>
<polygon fill="#63b8ff" stroke="#63b8ff" points="387.39,-80.39 389.74,-70.06 381.46,-76.67 387.39,-80.39"/>
</a>
</g>
</g>
<!-- Node13 -->
<g id="Node000013" class="node">
<title>Node13</title>
<g id="a_Node000013"><a xlink:title=" ">
<polygon fill="#e0e0e0" stroke="#999999" points="481.48,-70 431.48,-70 431.48,-53 481.48,-53 481.48,-70"/>
<text text-anchor="middle" x="456.48" y="-59.6" font-family="Helvetica,sans-Serif" font-size="8.00">functional</text>
</a>
</g>
</g>
<!-- Node10&#45;&gt;Node13 -->
<g id="edge15_Node000010_Node000013" class="edge">
<title>Node10&#45;&gt;Node13</title>
<g id="a_edge15_Node000010_Node000013"><a xlink:title=" ">
<path fill="none" stroke="#63b8ff" d="M376.35,-105.97C391.35,-97.84 415.5,-84.74 433.37,-75.04"/>
<polygon fill="#63b8ff" stroke="#63b8ff" points="435.43,-77.9 442.55,-70.06 432.09,-71.75 435.43,-77.9"/>
</a>
</g>
</g>
<!-- Node14 -->
<g id="Node000014" class="node">
<title>Node14</title>
<g id="a_Node000014"><a xlink:title=" ">
<polygon fill="#e0e0e0" stroke="#999999" points="535.48,-70 499.48,-70 499.48,-53 535.48,-53 535.48,-70"/>
<text text-anchor="middle" x="517.48" y="-59.6" font-family="Helvetica,sans-Serif" font-size="8.00">string</text>
</a>
</g>
</g>
<!-- Node10&#45;&gt;Node14 -->
<g id="edge17_Node000010_Node000014" class="edge">
<title>Node10&#45;&gt;Node14</title>
<g id="a_edge17_Node000010_Node000014"><a xlink:title=" ">
<path fill="none" stroke="#63b8ff" d="M385.35,-105.97C413.07,-96.85 459.77,-81.49 489.58,-71.68"/>
<polygon fill="#63b8ff" stroke="#63b8ff" points="490.95,-74.91 499.36,-68.46 488.77,-68.26 490.95,-74.91"/>
</a>
</g>
</g>
<!-- Node15 -->
<g id="Node000015" class="node">
<title>Node15</title>
<g id="a_Node000015"><a xlink:title=" ">
<polygon fill="#e0e0e0" stroke="#999999" points="264.98,-70 211.98,-70 211.98,-53 264.98,-53 264.98,-70"/>
<text text-anchor="middle" x="238.48" y="-59.6" font-family="Helvetica,sans-Serif" font-size="8.00">type_traits</text>
</a>
</g>
</g>
<!-- Node10&#45;&gt;Node15 -->
<g id="edge18_Node000010_Node000015" class="edge">
<title>Node10&#45;&gt;Node15</title>
<g id="a_edge18_Node000010_Node000015"><a xlink:title=" ">
<path fill="none" stroke="#63b8ff" d="M344.18,-105.97C323.67,-97.54 290.17,-83.76 266.38,-73.98"/>
<polygon fill="#63b8ff" stroke="#63b8ff" points="267.43,-70.62 256.85,-70.06 264.77,-77.1 267.43,-70.62"/>
</a>
</g>
</g>
<!-- Node17&#45;&gt;Node2 -->
<g id="edge23_Node000017_Node000002" class="edge">
<title>Node17&#45;&gt;Node2</title>
<g id="a_edge23_Node000017_Node000002"><a xlink:title=" ">
<path fill="none" stroke="#63b8ff" d="M295.78,-158.91C322.7,-150.44 367.34,-136.18 405.48,-123 454.4,-106.1 510.94,-85.03 543.52,-72.74"/>
<polygon fill="#63b8ff" stroke="#63b8ff" points="545.1,-75.88 553.22,-69.07 542.62,-69.34 545.1,-75.88"/>
</a>
</g>
</g>
<!-- Node17&#45;&gt;Node3 -->
<g id="edge25_Node000017_Node000003" class="edge">
<title>Node17&#45;&gt;Node3</title>
<g id="a_edge25_Node000017_Node000003"><a xlink:title=" ">
<path fill="none" stroke="#63b8ff" d="M257.61,-158.97C242.62,-150.84 218.47,-137.74 200.59,-128.04"/>
<polygon fill="#63b8ff" stroke="#63b8ff" points="201.87,-124.75 191.41,-123.06 198.53,-130.9 201.87,-124.75"/>
</a>
</g>
</g>
<!-- Node17&#45;&gt;Node5 -->
<g id="edge22_Node000017_Node000005" class="edge">
<title>Node17&#45;&gt;Node5</title>
<g id="a_edge22_Node000017_Node000005"><a xlink:title=" ">
<path fill="none" stroke="#63b8ff" d="M266.54,-158.97C258.96,-147.45 243.89,-124.8 230.48,-106 218.87,-89.72 215.09,-86.28 203.48,-70 192.9,-55.17 181.29,-37.94 173.13,-25.67"/>
<polygon fill="#63b8ff" stroke="#63b8ff" points="175.85,-23.44 167.42,-17.03 170.02,-27.3 175.85,-23.44"/>
</a>
</g>
</g>
<!-- Node17&#45;&gt;Node7 -->
<g id="edge27_Node000017_Node000007" class="edge">
<title>Node17&#45;&gt;Node7</title>
<g id="a_edge27_Node000017_Node000007"><a xlink:title=" ">
<path fill="none" stroke="#63b8ff" d="M265.37,-159C254.6,-146.25 230.94,-120.34 205.48,-106 176.39,-89.61 140.56,-78.9 111.33,-72.21"/>
<polygon fill="#63b8ff" stroke="#63b8ff" points="111.8,-68.73 101.28,-70 110.3,-75.56 111.8,-68.73"/>
</a>
</g>
</g>
<!-- Node17&#45;&gt;Node10 -->
<g id="edge26_Node000017_Node000010" class="edge">
<title>Node17&#45;&gt;Node10</title>
<g id="a_edge26_Node000017_Node000010"><a xlink:title=" ">
<path fill="none" stroke="#63b8ff" d="M284.91,-158.97C299.42,-150.84 322.8,-137.74 340.11,-128.04"/>
<polygon fill="#63b8ff" stroke="#63b8ff" points="341.99,-131 349,-123.06 338.56,-124.89 341.99,-131"/>
</a>
</g>
</g>
<!-- Node17&#45;&gt;Node15 -->
<g id="edge24_Node000017_Node000015" class="edge">
<title>Node17&#45;&gt;Node15</title>
<g id="a_edge24_Node000017_Node000015"><a xlink:title=" ">
<path fill="none" stroke="#63b8ff" d="M274.18,-158.76C277.85,-146.96 283.22,-123.96 276.48,-106 272.31,-94.87 263.85,-84.73 255.98,-77.04"/>
<polygon fill="#63b8ff" stroke="#63b8ff" points="258.23,-74.36 248.48,-70.22 253.52,-79.54 258.23,-74.36"/>
</a>
</g>
</g>
</g>
</svg>
