<?xml version="1.0" encoding="UTF-8" standalone="no"?>
<!DOCTYPE svg PUBLIC "-//W3C//DTD SVG 1.1//EN"
 "http://www.w3.org/Graphics/SVG/1.1/DTD/svg11.dtd">
<!-- Generated by graphviz version 2.43.0 (0)
 -->
<!-- Title: top Pages: 1 -->
<svg width="184pt" height="95pt"
 viewBox="0.00 0.00 184.00 95.00" xmlns="http://www.w3.org/2000/svg" xmlns:xlink="http://www.w3.org/1999/xlink">
<g id="graph0" class="graph" transform="scale(1 1) rotate(0) translate(4 91)">
<title>top</title>
<!-- Node1 -->
<g id="Node000001" class="node">
<title>Node1</title>
<g id="a_Node000001"><a xlink:title="Provides access to the top element of the stack.">
<polygon fill="#999999" stroke="#666666" points="176,-52 147,-52 147,-35 176,-35 176,-52"/>
<text text-anchor="middle" x="161.5" y="-41.6" font-family="Helvetica,sans-Serif" font-size="8.00">top</text>
</a>
</g>
</g>
<!-- Node2 -->
<g id="Node000002" class="node">
<title>Node2</title>
<g id="a_Node000002"><a xlink:href="../../d9/dcb/classchdr_1_1mazes_1_1graph_a5ca1351a03df5ff49f85cc4b5669cefc.html#a5ca1351a03df5ff49f85cc4b5669cefc" target="_top" xlink:title="Constructs a graph instance from a grid structure.">
<polygon fill="white" stroke="#666666" points="111,-87 0,-87 0,-70 111,-70 111,-87"/>
<text text-anchor="middle" x="55.5" y="-76.6" font-family="Helvetica,sans-Serif" font-size="8.00">chdr::mazes::graph::graph</text>
</a>
</g>
</g>
<!-- Node1&#45;&gt;Node2 -->
<g id="edge1_Node000001_Node000002" class="edge">
<title>Node1&#45;&gt;Node2</title>
<g id="a_edge1_Node000001_Node000002"><a xlink:title=" ">
<path fill="none" stroke="#63b8ff" d="M137.29,-52.19C129.02,-55.22 119.62,-58.59 111,-61.5 102.55,-64.35 93.3,-67.3 84.87,-69.93"/>
<polygon fill="#63b8ff" stroke="#63b8ff" points="138.53,-55.47 146.69,-48.72 136.1,-48.9 138.53,-55.47"/>
</a>
</g>
</g>
<!-- Node3 -->
<g id="Node000003" class="node">
<title>Node3</title>
<g id="a_Node000003"><a xlink:href="../../db/dc9/classchdr_1_1stack_a66ae5a391f699d2e564c2545ab9c6d82.html#a66ae5a391f699d2e564c2545ab9c6d82" target="_top" xlink:title="Provides access to the top element of the stack.">
<polygon fill="white" stroke="#666666" points="72,-52 39,-52 39,-35 72,-35 72,-52"/>
<text text-anchor="middle" x="55.5" y="-41.6" font-family="Helvetica,sans-Serif" font-size="8.00">front</text>
</a>
</g>
</g>
<!-- Node1&#45;&gt;Node3 -->
<g id="edge2_Node000001_Node000003" class="edge">
<title>Node1&#45;&gt;Node3</title>
<g id="a_edge2_Node000001_Node000003"><a xlink:title=" ">
<path fill="none" stroke="#63b8ff" d="M136.82,-43.5C117,-43.5 89.29,-43.5 72.14,-43.5"/>
<polygon fill="#63b8ff" stroke="#63b8ff" points="136.9,-47 146.9,-43.5 136.9,-40 136.9,-47"/>
</a>
</g>
</g>
<!-- Node4 -->
<g id="Node000004" class="node">
<title>Node4</title>
<g id="a_Node000004"><a xlink:href="../../db/dc9/classchdr_1_1stack_acbf9b62bac7333654c7862dc8cfd1e48.html#acbf9b62bac7333654c7862dc8cfd1e48" target="_top" xlink:title="Provides access to the top element of the stack.">
<polygon fill="white" stroke="#666666" points="72,-17 39,-17 39,0 72,0 72,-17"/>
<text text-anchor="middle" x="55.5" y="-6.6" font-family="Helvetica,sans-Serif" font-size="8.00">front</text>
</a>
</g>
</g>
<!-- Node1&#45;&gt;Node4 -->
<g id="edge3_Node000001_Node000004" class="edge">
<title>Node1&#45;&gt;Node4</title>
<g id="a_edge3_Node000001_Node000004"><a xlink:title=" ">
<path fill="none" stroke="#63b8ff" d="M136.96,-35.35C128.75,-32.53 119.48,-29.36 111,-26.5 97.97,-22.11 83.15,-17.22 72.26,-13.65"/>
<polygon fill="#63b8ff" stroke="#63b8ff" points="136.05,-38.74 146.65,-38.69 138.33,-32.12 136.05,-38.74"/>
</a>
</g>
</g>
</g>
</svg>
