<?xml version="1.0" encoding="UTF-8" standalone="no"?>
<!DOCTYPE svg PUBLIC "-//W3C//DTD SVG 1.1//EN"
 "http://www.w3.org/Graphics/SVG/1.1/DTD/svg11.dtd">
<!-- Generated by graphviz version 2.43.0 (0)
 -->
<!-- Title: empty Pages: 1 -->
<svg width="259pt" height="189pt"
 viewBox="0.00 0.00 259.00 189.44" xmlns="http://www.w3.org/2000/svg" xmlns:xlink="http://www.w3.org/1999/xlink">
<g id="graph0" class="graph" transform="scale(1 1) rotate(0) translate(4 185.44)">
<title>empty</title>
<!-- Node1 -->
<g id="Node000001" class="node">
<title>Node1</title>
<g id="a_Node000001"><a xlink:title="Checks if the stack is empty.">
<polygon fill="#999999" stroke="#666666" points="251,-110 213,-110 213,-93 251,-93 251,-110"/>
<text text-anchor="middle" x="232" y="-99.6" font-family="Helvetica,sans-Serif" font-size="8.00">empty</text>
</a>
</g>
</g>
<!-- Node2 -->
<g id="Node000002" class="node">
<title>Node2</title>
<g id="a_Node000002"><a xlink:href="../../d9/dcb/classchdr_1_1mazes_1_1graph_a5ca1351a03df5ff49f85cc4b5669cefc.html#a5ca1351a03df5ff49f85cc4b5669cefc" target="_top" xlink:title="Constructs a graph instance from a grid structure.">
<polygon fill="white" stroke="#666666" points="111,-164 0,-164 0,-147 111,-147 111,-164"/>
<text text-anchor="middle" x="55.5" y="-153.6" font-family="Helvetica,sans-Serif" font-size="8.00">chdr::mazes::graph::graph</text>
</a>
</g>
</g>
<!-- Node1&#45;&gt;Node2 -->
<g id="edge1_Node000001_Node000002" class="edge">
<title>Node1&#45;&gt;Node2</title>
<g id="a_edge1_Node000001_Node000002"><a xlink:title=" ">
<path fill="none" stroke="#63b8ff" d="M223.43,-119.4C214.96,-136.83 199.43,-162.28 177,-173.5 143.13,-190.43 97.71,-174.89 73.46,-164"/>
<polygon fill="#63b8ff" stroke="#63b8ff" points="226.64,-120.79 227.59,-110.23 220.27,-117.89 226.64,-120.79"/>
</a>
</g>
</g>
<!-- Node3 -->
<g id="Node000003" class="node">
<title>Node3</title>
<g id="a_Node000003"><a xlink:href="../../db/dc9/classchdr_1_1stack_a66ae5a391f699d2e564c2545ab9c6d82.html#a66ae5a391f699d2e564c2545ab9c6d82" target="_top" xlink:title="Provides access to the top element of the stack.">
<polygon fill="white" stroke="#666666" points="72,-110 39,-110 39,-93 72,-93 72,-110"/>
<text text-anchor="middle" x="55.5" y="-99.6" font-family="Helvetica,sans-Serif" font-size="8.00">front</text>
</a>
</g>
</g>
<!-- Node1&#45;&gt;Node3 -->
<g id="edge2_Node000001_Node000003" class="edge">
<title>Node1&#45;&gt;Node3</title>
<g id="a_edge2_Node000001_Node000003"><a xlink:title=" ">
<path fill="none" stroke="#63b8ff" d="M202.83,-101.5C165.68,-101.5 101.59,-101.5 72.14,-101.5"/>
<polygon fill="#63b8ff" stroke="#63b8ff" points="202.98,-105 212.98,-101.5 202.98,-98 202.98,-105"/>
</a>
</g>
</g>
<!-- Node4 -->
<g id="Node000004" class="node">
<title>Node4</title>
<g id="a_Node000004"><a xlink:href="../../db/dc9/classchdr_1_1stack_acbf9b62bac7333654c7862dc8cfd1e48.html#acbf9b62bac7333654c7862dc8cfd1e48" target="_top" xlink:title="Provides access to the top element of the stack.">
<polygon fill="white" stroke="#666666" points="72,-74 39,-74 39,-57 72,-57 72,-74"/>
<text text-anchor="middle" x="55.5" y="-63.6" font-family="Helvetica,sans-Serif" font-size="8.00">front</text>
</a>
</g>
</g>
<!-- Node1&#45;&gt;Node4 -->
<g id="edge3_Node000001_Node000004" class="edge">
<title>Node1&#45;&gt;Node4</title>
<g id="a_edge3_Node000001_Node000004"><a xlink:title=" ">
<path fill="none" stroke="#63b8ff" d="M202.83,-95.69C165.68,-88.02 101.59,-74.8 72.14,-68.73"/>
<polygon fill="#63b8ff" stroke="#63b8ff" points="202.48,-99.19 212.98,-97.78 203.9,-92.33 202.48,-99.19"/>
</a>
</g>
</g>
<!-- Node5 -->
<g id="Node000005" class="node">
<title>Node5</title>
<g id="a_Node000005"><a xlink:href="../../db/dc9/classchdr_1_1stack_a312e7f6c761a199c1369fbe651e084f0.html#a312e7f6c761a199c1369fbe651e084f0" target="_top" xlink:title="Pops an element from the stack.">
<polygon fill="white" stroke="#666666" points="177,-164 147,-164 147,-147 177,-147 177,-164"/>
<text text-anchor="middle" x="162" y="-153.6" font-family="Helvetica,sans-Serif" font-size="8.00">pop</text>
</a>
</g>
</g>
<!-- Node1&#45;&gt;Node5 -->
<g id="edge4_Node000001_Node000005" class="edge">
<title>Node1&#45;&gt;Node5</title>
<g id="a_edge4_Node000001_Node000005"><a xlink:title=" ">
<path fill="none" stroke="#63b8ff" d="M212.24,-116.4C200,-126.12 184.44,-138.47 174.12,-146.67"/>
<polygon fill="#63b8ff" stroke="#63b8ff" points="214.42,-119.14 220.07,-110.18 210.07,-113.65 214.42,-119.14"/>
</a>
</g>
</g>
<!-- Node6 -->
<g id="Node000006" class="node">
<title>Node6</title>
<g id="a_Node000006"><a xlink:href="../../db/dc9/classchdr_1_1stack_a39b39a0753d600546b92d146681c30f5.html#a39b39a0753d600546b92d146681c30f5" target="_top" xlink:title="Provides access to the top element of the stack.">
<polygon fill="white" stroke="#666666" points="176.5,-17 147.5,-17 147.5,0 176.5,0 176.5,-17"/>
<text text-anchor="middle" x="162" y="-6.6" font-family="Helvetica,sans-Serif" font-size="8.00">top</text>
</a>
</g>
</g>
<!-- Node1&#45;&gt;Node6 -->
<g id="edge6_Node000001_Node000006" class="edge">
<title>Node1&#45;&gt;Node6</title>
<g id="a_edge6_Node000001_Node000006"><a xlink:title=" ">
<path fill="none" stroke="#63b8ff" d="M218.76,-84.76C204.21,-64.86 180.48,-32.41 169.26,-17.06"/>
<polygon fill="#63b8ff" stroke="#63b8ff" points="216,-86.91 224.72,-92.92 221.65,-82.78 216,-86.91"/>
</a>
</g>
</g>
<!-- Node7 -->
<g id="Node000007" class="node">
<title>Node7</title>
<g id="a_Node000007"><a xlink:href="../../db/dc9/classchdr_1_1stack_a20a753362275d34a67d855ce0105fab7.html#a20a753362275d34a67d855ce0105fab7" target="_top" xlink:title="Provides access to the top element of the stack.">
<polygon fill="white" stroke="#666666" points="176.5,-129 147.5,-129 147.5,-112 176.5,-112 176.5,-129"/>
<text text-anchor="middle" x="162" y="-118.6" font-family="Helvetica,sans-Serif" font-size="8.00">top</text>
</a>
</g>
</g>
<!-- Node1&#45;&gt;Node7 -->
<g id="edge7_Node000001_Node000007" class="edge">
<title>Node1&#45;&gt;Node7</title>
<g id="a_edge7_Node000001_Node000007"><a xlink:title=" ">
<path fill="none" stroke="#63b8ff" d="M202.95,-109.34C193.9,-111.86 184.28,-114.55 176.74,-116.66"/>
<polygon fill="#63b8ff" stroke="#63b8ff" points="204.09,-112.65 212.78,-106.59 202.2,-105.91 204.09,-112.65"/>
</a>
</g>
</g>
<!-- Node5&#45;&gt;Node2 -->
<g id="edge5_Node000005_Node000002" class="edge">
<title>Node5&#45;&gt;Node2</title>
<g id="a_edge5_Node000005_Node000002"><a xlink:title=" ">
<path fill="none" stroke="#63b8ff" d="M136.65,-155.5C129.02,-155.5 120.27,-155.5 111.42,-155.5"/>
<polygon fill="#63b8ff" stroke="#63b8ff" points="136.91,-159 146.91,-155.5 136.91,-152 136.91,-159"/>
</a>
</g>
</g>
<!-- Node7&#45;&gt;Node2 -->
<g id="edge8_Node000007_Node000002" class="edge">
<title>Node7&#45;&gt;Node2</title>
<g id="a_edge8_Node000007_Node000002"><a xlink:title=" ">
<path fill="none" stroke="#63b8ff" d="M137.44,-128.39C121.01,-133.89 99.09,-141.24 82.2,-146.89"/>
<polygon fill="#63b8ff" stroke="#63b8ff" points="138.97,-131.57 147.34,-125.08 136.74,-124.93 138.97,-131.57"/>
</a>
</g>
</g>
<!-- Node7&#45;&gt;Node3 -->
<g id="edge9_Node000007_Node000003" class="edge">
<title>Node7&#45;&gt;Node3</title>
<g id="a_edge9_Node000007_Node000003"><a xlink:title=" ">
<path fill="none" stroke="#63b8ff" d="M137.49,-116.22C117.55,-112.6 89.52,-107.5 72.21,-104.36"/>
<polygon fill="#63b8ff" stroke="#63b8ff" points="136.87,-119.67 147.34,-118.02 138.13,-112.78 136.87,-119.67"/>
</a>
</g>
</g>
<!-- Node7&#45;&gt;Node4 -->
<g id="edge10_Node000007_Node000004" class="edge">
<title>Node7&#45;&gt;Node4</title>
<g id="a_edge10_Node000007_Node000004"><a xlink:title=" ">
<path fill="none" stroke="#63b8ff" d="M142.89,-105.51C133.74,-98.46 122.22,-90.34 111,-84.5 98.56,-78.03 83.42,-72.95 72.26,-69.68"/>
<polygon fill="#63b8ff" stroke="#63b8ff" points="140.84,-108.36 150.85,-111.84 145.2,-102.88 140.84,-108.36"/>
</a>
</g>
</g>
</g>
</svg>
