<?xml version="1.0" encoding="UTF-8" standalone="no"?>
<!DOCTYPE svg PUBLIC "-//W3C//DTD SVG 1.1//EN"
 "http://www.w3.org/Graphics/SVG/1.1/DTD/svg11.dtd">
<!-- Generated by graphviz version 2.43.0 (0)
 -->
<!-- Title: Common Pages: 1 -->
<svg width="388pt" height="26pt"
 viewBox="0.00 0.00 388.00 25.50" xmlns="http://www.w3.org/2000/svg" xmlns:xlink="http://www.w3.org/1999/xlink">
<g id="graph0" class="graph" transform="scale(1 1) rotate(0) translate(4 21.5)">
<title>Common</title>
<!-- Node2 -->
<g id="Node000002" class="node">
<title>Node2</title>
<g id="a_Node000002"><a xlink:href="../../d5/d91/group__Single-Target.html" target="_top" xlink:title="Solvers which route to a single destination.">
<polygon fill="white" stroke="#666666" points="70,-17 0,-17 0,0 70,0 70,-17"/>
<text text-anchor="middle" x="35" y="-6.6" font-family="Helvetica,sans-Serif" font-size="8.00">Single&#45;Target</text>
</a>
</g>
</g>
<!-- Node1 -->
<g id="Node000001" class="node">
<title>Node1</title>
<g id="a_Node000001"><a xlink:title="General&#45;purpose solvers.">
<polygon fill="#999999" stroke="#666666" points="160,-17 107,-17 107,0 160,0 160,-17"/>
<text text-anchor="middle" x="133.5" y="-6.6" font-family="Helvetica,sans-Serif" font-size="8.00">Common</text>
</a>
</g>
</g>
<!-- Node2&#45;&gt;Node1 -->
<g id="edge1" class="edge">
<title>Node2&#45;&gt;Node1</title>
<path fill="none" stroke="black" d="M80.22,-8.5C89.39,-8.5 98.75,-8.5 106.97,-8.5"/>
<polygon fill="black" stroke="black" points="80.02,-5 70.02,-8.5 80.02,-12 80.02,-5"/>
</g>
<!-- Node3 -->
<g id="Node000003" class="node">
<title>Node3</title>
<g id="a_Node000003"><a xlink:href="../../d1/d47/group__SingleTargetGraveyardOptimised.html" target="_top" xlink:title="Graveyard solvers, which dynamically prune the search tree.">
<polygon fill="white" stroke="#666666" points="380,-17 277,-17 277,0 380,0 380,-17"/>
<text text-anchor="middle" x="328.5" y="-6.6" font-family="Helvetica,sans-Serif" font-size="8.00">Graveyard&#45;Optimised</text>
</a>
</g>
</g>
<!-- Node1&#45;&gt;Node3 -->
<g id="edge2" class="edge">
<title>Node1&#45;&gt;Node3</title>
<path fill="none" stroke="orange" stroke-dasharray="5,2" d="M160.13,-8.5C189.76,-8.5 239.27,-8.5 276.77,-8.5"/>
<text text-anchor="middle" x="218.5" y="-11.1" font-family="Helvetica,sans-Serif" font-size="8.00">chdr::solvers::gstar</text>
</g>
</g>
</svg>
