<?xml version="1.0" encoding="UTF-8" standalone="no"?>
<!DOCTYPE svg PUBLIC "-//W3C//DTD SVG 1.1//EN"
 "http://www.w3.org/Graphics/SVG/1.1/DTD/svg11.dtd">
<!-- Generated by graphviz version 2.43.0 (0)
 -->
<!-- Title: heuristics.hpp Pages: 1 -->
<svg width="504pt" height="184pt"
 viewBox="0.00 0.00 504.34 184.00" xmlns="http://www.w3.org/2000/svg" xmlns:xlink="http://www.w3.org/1999/xlink">
<g id="graph0" class="graph" transform="scale(1 1) rotate(0) translate(4 180)">
<title>heuristics.hpp</title>
<!-- Node1 -->
<g id="Node000001" class="node">
<title>Node1</title>
<g id="a_Node000001"><a xlink:title=" ">
<polygon fill="#999999" stroke="#666666" points="188.84,-176 123.84,-176 123.84,-159 188.84,-159 188.84,-176"/>
<text text-anchor="middle" x="156.34" y="-165.6" font-family="Helvetica,sans-Serif" font-size="8.00">heuristics.hpp</text>
</a>
</g>
</g>
<!-- Node2 -->
<g id="Node000002" class="node">
<title>Node2</title>
<g id="a_Node000002"><a xlink:title=" ">
<polygon fill="#e0e0e0" stroke="#999999" points="115.34,-17 73.34,-17 73.34,0 115.34,0 115.34,-17"/>
<text text-anchor="middle" x="94.34" y="-6.6" font-family="Helvetica,sans-Serif" font-size="8.00">cstddef</text>
</a>
</g>
</g>
<!-- Node1&#45;&gt;Node2 -->
<g id="edge1_Node000001_Node000002" class="edge">
<title>Node1&#45;&gt;Node2</title>
<g id="a_edge1_Node000001_Node000002"><a xlink:title=" ">
<path fill="none" stroke="#63b8ff" d="M130.51,-158.92C94.47,-146.79 30.48,-119.23 3.34,-70 -11.95,-42.27 31.39,-24.98 63.4,-16.3"/>
<polygon fill="#63b8ff" stroke="#63b8ff" points="64.48,-19.64 73.31,-13.79 62.76,-12.86 64.48,-19.64"/>
</a>
</g>
</g>
<!-- Node3 -->
<g id="Node000003" class="node">
<title>Node3</title>
<g id="a_Node000003"><a xlink:title=" ">
<polygon fill="#e0e0e0" stroke="#999999" points="65.84,-70 12.84,-70 12.84,-53 65.84,-53 65.84,-70"/>
<text text-anchor="middle" x="39.34" y="-59.6" font-family="Helvetica,sans-Serif" font-size="8.00">type_traits</text>
</a>
</g>
</g>
<!-- Node1&#45;&gt;Node3 -->
<g id="edge2_Node000001_Node000003" class="edge">
<title>Node1&#45;&gt;Node3</title>
<g id="a_edge2_Node000001_Node000003"><a xlink:title=" ">
<path fill="none" stroke="#63b8ff" d="M147.54,-158.68C127.97,-141.28 80.55,-99.13 55.49,-76.85"/>
<polygon fill="#63b8ff" stroke="#63b8ff" points="57.72,-74.15 47.92,-70.12 53.07,-79.38 57.72,-74.15"/>
</a>
</g>
</g>
<!-- Node4 -->
<g id="Node000004" class="node">
<title>Node4</title>
<g id="a_Node000004"><a xlink:href="../../df/d93/utils_8hpp.html" target="_top" xlink:title=" ">
<polygon fill="white" stroke="#666666" points="229.34,-123 161.34,-123 161.34,-106 229.34,-106 229.34,-123"/>
<text text-anchor="middle" x="195.34" y="-112.6" font-family="Helvetica,sans-Serif" font-size="8.00">../utils/utils.hpp</text>
</a>
</g>
</g>
<!-- Node1&#45;&gt;Node4 -->
<g id="edge3_Node000001_Node000004" class="edge">
<title>Node1&#45;&gt;Node4</title>
<g id="a_edge3_Node000001_Node000004"><a xlink:title=" ">
<path fill="none" stroke="#63b8ff" d="M162.09,-158.97C167.68,-151.67 176.33,-140.35 183.41,-131.1"/>
<polygon fill="#63b8ff" stroke="#63b8ff" points="186.27,-133.13 189.56,-123.06 180.71,-128.87 186.27,-133.13"/>
</a>
</g>
</g>
<!-- Node10 -->
<g id="Node000010" class="node">
<title>Node10</title>
<g id="a_Node000010"><a xlink:href="../../d7/d65/intrinsics_8hpp.html" target="_top" xlink:title=" ">
<polygon fill="white" stroke="#666666" points="491.84,-70 406.84,-70 406.84,-53 491.84,-53 491.84,-70"/>
<text text-anchor="middle" x="449.34" y="-59.6" font-family="Helvetica,sans-Serif" font-size="8.00">../utils/intrinsics.hpp</text>
</a>
</g>
</g>
<!-- Node1&#45;&gt;Node10 -->
<g id="edge15_Node000001_Node000010" class="edge">
<title>Node1&#45;&gt;Node10</title>
<g id="a_edge15_Node000001_Node000010"><a xlink:title=" ">
<path fill="none" stroke="#63b8ff" d="M177.88,-158.85C229.23,-140.63 358.96,-94.58 418.55,-73.43"/>
<polygon fill="#63b8ff" stroke="#63b8ff" points="419.9,-76.66 428.16,-70.02 417.56,-70.07 419.9,-76.66"/>
</a>
</g>
</g>
<!-- Node4&#45;&gt;Node2 -->
<g id="edge6_Node000004_Node000002" class="edge">
<title>Node4&#45;&gt;Node2</title>
<g id="a_edge6_Node000004_Node000002"><a xlink:title=" ">
<path fill="none" stroke="#63b8ff" d="M170.13,-105.91C151.93,-99.22 128.07,-87.72 113.34,-70 103.21,-57.82 98.47,-40.23 96.25,-27.15"/>
<polygon fill="#63b8ff" stroke="#63b8ff" points="99.7,-26.5 94.89,-17.06 92.76,-27.44 99.7,-26.5"/>
</a>
</g>
</g>
<!-- Node4&#45;&gt;Node3 -->
<g id="edge10_Node000004_Node000003" class="edge">
<title>Node4&#45;&gt;Node3</title>
<g id="a_edge10_Node000004_Node000003"><a xlink:title=" ">
<path fill="none" stroke="#63b8ff" d="M172.32,-105.97C145.82,-97.31 102.1,-83.02 72.07,-73.2"/>
<polygon fill="#63b8ff" stroke="#63b8ff" points="73.04,-69.84 62.45,-70.06 70.87,-76.49 73.04,-69.84"/>
</a>
</g>
</g>
<!-- Node5 -->
<g id="Node000005" class="node">
<title>Node5</title>
<g id="a_Node000005"><a xlink:title=" ">
<polygon fill="#e0e0e0" stroke="#999999" points="157.84,-70 122.84,-70 122.84,-53 157.84,-53 157.84,-70"/>
<text text-anchor="middle" x="140.34" y="-59.6" font-family="Helvetica,sans-Serif" font-size="8.00">array</text>
</a>
</g>
</g>
<!-- Node4&#45;&gt;Node5 -->
<g id="edge4_Node000004_Node000005" class="edge">
<title>Node4&#45;&gt;Node5</title>
<g id="a_edge4_Node000004_Node000005"><a xlink:title=" ">
<path fill="none" stroke="#63b8ff" d="M187.22,-105.97C179.02,-98.37 166.13,-86.41 155.94,-76.97"/>
<polygon fill="#63b8ff" stroke="#63b8ff" points="158.2,-74.29 148.49,-70.06 153.44,-79.42 158.2,-74.29"/>
</a>
</g>
</g>
<!-- Node6 -->
<g id="Node000006" class="node">
<title>Node6</title>
<g id="a_Node000006"><a xlink:title=" ">
<polygon fill="#e0e0e0" stroke="#999999" points="214.34,-70 176.34,-70 176.34,-53 214.34,-53 214.34,-70"/>
<text text-anchor="middle" x="195.34" y="-59.6" font-family="Helvetica,sans-Serif" font-size="8.00">cmath</text>
</a>
</g>
</g>
<!-- Node4&#45;&gt;Node6 -->
<g id="edge5_Node000004_Node000006" class="edge">
<title>Node4&#45;&gt;Node6</title>
<g id="a_edge5_Node000004_Node000006"><a xlink:title=" ">
<path fill="none" stroke="#63b8ff" d="M195.34,-105.97C195.34,-99.19 195.34,-88.97 195.34,-80.13"/>
<polygon fill="#63b8ff" stroke="#63b8ff" points="198.84,-80.06 195.34,-70.06 191.84,-80.06 198.84,-80.06"/>
</a>
</g>
</g>
<!-- Node7 -->
<g id="Node000007" class="node">
<title>Node7</title>
<g id="a_Node000007"><a xlink:title=" ">
<polygon fill="#e0e0e0" stroke="#999999" points="282.34,-70 232.34,-70 232.34,-53 282.34,-53 282.34,-70"/>
<text text-anchor="middle" x="257.34" y="-59.6" font-family="Helvetica,sans-Serif" font-size="8.00">functional</text>
</a>
</g>
</g>
<!-- Node4&#45;&gt;Node7 -->
<g id="edge7_Node000004_Node000007" class="edge">
<title>Node4&#45;&gt;Node7</title>
<g id="a_edge7_Node000004_Node000007"><a xlink:title=" ">
<path fill="none" stroke="#63b8ff" d="M204.49,-105.97C213.83,-98.29 228.56,-86.18 240.09,-76.69"/>
<polygon fill="#63b8ff" stroke="#63b8ff" points="242.65,-79.11 248.15,-70.06 238.21,-73.71 242.65,-79.11"/>
</a>
</g>
</g>
<!-- Node8 -->
<g id="Node000008" class="node">
<title>Node8</title>
<g id="a_Node000008"><a xlink:title=" ">
<polygon fill="#e0e0e0" stroke="#999999" points="334.34,-70 300.34,-70 300.34,-53 334.34,-53 334.34,-70"/>
<text text-anchor="middle" x="317.34" y="-59.6" font-family="Helvetica,sans-Serif" font-size="8.00">limits</text>
</a>
</g>
</g>
<!-- Node4&#45;&gt;Node8 -->
<g id="edge8_Node000004_Node000008" class="edge">
<title>Node4&#45;&gt;Node8</title>
<g id="a_edge8_Node000004_Node000008"><a xlink:title=" ">
<path fill="none" stroke="#63b8ff" d="M213.34,-105.97C233.76,-97.44 267.24,-83.44 290.69,-73.64"/>
<polygon fill="#63b8ff" stroke="#63b8ff" points="292.18,-76.81 300.05,-69.73 289.48,-70.35 292.18,-76.81"/>
</a>
</g>
</g>
<!-- Node9 -->
<g id="Node000009" class="node">
<title>Node9</title>
<g id="a_Node000009"><a xlink:title=" ">
<polygon fill="#e0e0e0" stroke="#999999" points="388.34,-70 352.34,-70 352.34,-53 388.34,-53 388.34,-70"/>
<text text-anchor="middle" x="370.34" y="-59.6" font-family="Helvetica,sans-Serif" font-size="8.00">string</text>
</a>
</g>
</g>
<!-- Node4&#45;&gt;Node9 -->
<g id="edge9_Node000004_Node000009" class="edge">
<title>Node4&#45;&gt;Node9</title>
<g id="a_edge9_Node000004_Node000009"><a xlink:title=" ">
<path fill="none" stroke="#63b8ff" d="M221.16,-105.97C253.56,-96.53 308.91,-80.4 342.31,-70.67"/>
<polygon fill="#63b8ff" stroke="#63b8ff" points="343.3,-74.03 351.92,-67.87 341.34,-67.31 343.3,-74.03"/>
</a>
</g>
</g>
<!-- Node4&#45;&gt;Node10 -->
<g id="edge11_Node000004_Node000010" class="edge">
<title>Node4&#45;&gt;Node10</title>
<g id="a_edge11_Node000004_Node000010"><a xlink:title=" ">
<path fill="none" stroke="#63b8ff" d="M229.59,-106.62C274.06,-97.69 351.88,-82.07 401.98,-72.01"/>
<polygon fill="#63b8ff" stroke="#63b8ff" points="402.8,-75.41 411.92,-70.01 401.42,-68.55 402.8,-75.41"/>
</a>
</g>
</g>
<!-- Node10&#45;&gt;Node2 -->
<g id="edge13_Node000010_Node000002" class="edge">
<title>Node10&#45;&gt;Node2</title>
<g id="a_edge13_Node000010_Node000002"><a xlink:title=" ">
<path fill="none" stroke="#63b8ff" d="M406.77,-54.36C403.58,-53.9 400.41,-53.44 397.34,-53 298.22,-38.74 180.85,-21.9 125.8,-14.01"/>
<polygon fill="#63b8ff" stroke="#63b8ff" points="126.04,-10.51 115.65,-12.55 125.05,-17.44 126.04,-10.51"/>
</a>
</g>
</g>
<!-- Node11 -->
<g id="Node000011" class="node">
<title>Node11</title>
<g id="a_Node000011"><a xlink:title=" ">
<polygon fill="#e0e0e0" stroke="#999999" points="440.34,-17 400.34,-17 400.34,0 440.34,0 440.34,-17"/>
<text text-anchor="middle" x="420.34" y="-6.6" font-family="Helvetica,sans-Serif" font-size="8.00">atomic</text>
</a>
</g>
</g>
<!-- Node10&#45;&gt;Node11 -->
<g id="edge12_Node000010_Node000011" class="edge">
<title>Node10&#45;&gt;Node11</title>
<g id="a_edge12_Node000010_Node000011"><a xlink:title=" ">
<path fill="none" stroke="#63b8ff" d="M445.06,-52.97C441.03,-45.89 434.87,-35.05 429.7,-25.96"/>
<polygon fill="#63b8ff" stroke="#63b8ff" points="432.62,-24.02 424.64,-17.06 426.54,-27.48 432.62,-24.02"/>
</a>
</g>
</g>
<!-- Node12 -->
<g id="Node000012" class="node">
<title>Node12</title>
<g id="a_Node000012"><a xlink:title=" ">
<polygon fill="#e0e0e0" stroke="#999999" points="496.34,-17 458.34,-17 458.34,0 496.34,0 496.34,-17"/>
<text text-anchor="middle" x="477.34" y="-6.6" font-family="Helvetica,sans-Serif" font-size="8.00">cstdlib</text>
</a>
</g>
</g>
<!-- Node10&#45;&gt;Node12 -->
<g id="edge14_Node000010_Node000012" class="edge">
<title>Node10&#45;&gt;Node12</title>
<g id="a_edge14_Node000010_Node000012"><a xlink:title=" ">
<path fill="none" stroke="#63b8ff" d="M453.47,-52.97C457.36,-45.89 463.31,-35.05 468.3,-25.96"/>
<polygon fill="#63b8ff" stroke="#63b8ff" points="471.45,-27.51 473.19,-17.06 465.31,-24.14 471.45,-27.51"/>
</a>
</g>
</g>
</g>
</svg>
