<?xml version="1.0" encoding="UTF-8" standalone="no"?>
<!DOCTYPE svg PUBLIC "-//W3C//DTD SVG 1.1//EN"
 "http://www.w3.org/Graphics/SVG/1.1/DTD/svg11.dtd">
<!-- Generated by graphviz version 2.43.0 (0)
 -->
<!-- Title: heuristics.hpp Pages: 1 -->
<svg width="430pt" height="184pt"
 viewBox="0.00 0.00 429.50 184.00" xmlns="http://www.w3.org/2000/svg" xmlns:xlink="http://www.w3.org/1999/xlink">
<g id="graph0" class="graph" transform="scale(1 1) rotate(0) translate(4 180)">
<title>heuristics.hpp</title>
<!-- Node1 -->
<g id="Node000001" class="node">
<title>Node1</title>
<g id="a_Node000001"><a xlink:title=" ">
<polygon fill="#999999" stroke="#666666" points="208.5,-176 143.5,-176 143.5,-159 208.5,-159 208.5,-176"/>
<text text-anchor="middle" x="176" y="-165.6" font-family="Helvetica,sans-Serif" font-size="8.00">heuristics.hpp</text>
</a>
</g>
</g>
<!-- Node2 -->
<g id="Node000002" class="node">
<title>Node2</title>
<g id="a_Node000002"><a xlink:title=" ">
<polygon fill="#e0e0e0" stroke="#999999" points="42,-17 0,-17 0,0 42,0 42,-17"/>
<text text-anchor="middle" x="21" y="-6.6" font-family="Helvetica,sans-Serif" font-size="8.00">cstddef</text>
</a>
</g>
</g>
<!-- Node1&#45;&gt;Node2 -->
<g id="edge1_Node000001_Node000002" class="edge">
<title>Node1&#45;&gt;Node2</title>
<g id="a_edge1_Node000001_Node000002"><a xlink:title=" ">
<path fill="none" stroke="#63b8ff" d="M152.63,-158.98C118.24,-146.55 54.93,-118.18 26,-70 18.36,-57.27 17.61,-40.23 18.49,-27.48"/>
<polygon fill="#63b8ff" stroke="#63b8ff" points="22,-27.54 19.59,-17.22 15.04,-26.79 22,-27.54"/>
</a>
</g>
</g>
<!-- Node3 -->
<g id="Node000003" class="node">
<title>Node3</title>
<g id="a_Node000003"><a xlink:href="../../df/d93/utils_8hpp.html" target="_top" xlink:title=" ">
<polygon fill="white" stroke="#666666" points="210,-123 142,-123 142,-106 210,-106 210,-123"/>
<text text-anchor="middle" x="176" y="-112.6" font-family="Helvetica,sans-Serif" font-size="8.00">../utils/utils.hpp</text>
</a>
</g>
</g>
<!-- Node1&#45;&gt;Node3 -->
<g id="edge2_Node000001_Node000003" class="edge">
<title>Node1&#45;&gt;Node3</title>
<g id="a_edge2_Node000001_Node000003"><a xlink:title=" ">
<path fill="none" stroke="#63b8ff" d="M176,-158.97C176,-152.19 176,-141.97 176,-133.13"/>
<polygon fill="#63b8ff" stroke="#63b8ff" points="179.5,-133.06 176,-123.06 172.5,-133.06 179.5,-133.06"/>
</a>
</g>
</g>
<!-- Node9 -->
<g id="Node000009" class="node">
<title>Node9</title>
<g id="a_Node000009"><a xlink:href="../../d7/d65/intrinsics_8hpp.html" target="_top" xlink:title=" ">
<polygon fill="white" stroke="#666666" points="421.5,-70 336.5,-70 336.5,-53 421.5,-53 421.5,-70"/>
<text text-anchor="middle" x="379" y="-59.6" font-family="Helvetica,sans-Serif" font-size="8.00">../utils/intrinsics.hpp</text>
</a>
</g>
</g>
<!-- Node1&#45;&gt;Node9 -->
<g id="edge12_Node000001_Node000009" class="edge">
<title>Node1&#45;&gt;Node9</title>
<g id="a_edge12_Node000001_Node000009"><a xlink:title=" ">
<path fill="none" stroke="#63b8ff" d="M190.93,-158.85C225.84,-140.97 313.06,-96.28 355.31,-74.63"/>
<polygon fill="#63b8ff" stroke="#63b8ff" points="357.02,-77.69 364.32,-70.02 353.83,-71.46 357.02,-77.69"/>
</a>
</g>
</g>
<!-- Node3&#45;&gt;Node2 -->
<g id="edge5_Node000003_Node000002" class="edge">
<title>Node3&#45;&gt;Node2</title>
<g id="a_edge5_Node000003_Node000002"><a xlink:title=" ">
<path fill="none" stroke="#63b8ff" d="M141.85,-111.25C111.24,-107.44 67.1,-97.24 40,-70 28.72,-58.66 24.12,-40.7 22.26,-27.29"/>
<polygon fill="#63b8ff" stroke="#63b8ff" points="25.74,-26.94 21.25,-17.34 18.77,-27.64 25.74,-26.94"/>
</a>
</g>
</g>
<!-- Node4 -->
<g id="Node000004" class="node">
<title>Node4</title>
<g id="a_Node000004"><a xlink:title=" ">
<polygon fill="#e0e0e0" stroke="#999999" points="84.5,-70 49.5,-70 49.5,-53 84.5,-53 84.5,-70"/>
<text text-anchor="middle" x="67" y="-59.6" font-family="Helvetica,sans-Serif" font-size="8.00">array</text>
</a>
</g>
</g>
<!-- Node3&#45;&gt;Node4 -->
<g id="edge3_Node000003_Node000004" class="edge">
<title>Node3&#45;&gt;Node4</title>
<g id="a_edge3_Node000003_Node000004"><a xlink:title=" ">
<path fill="none" stroke="#63b8ff" d="M159.92,-105.97C142.13,-97.65 113.22,-84.13 92.37,-74.37"/>
<polygon fill="#63b8ff" stroke="#63b8ff" points="93.69,-71.12 83.15,-70.06 90.72,-77.46 93.69,-71.12"/>
</a>
</g>
</g>
<!-- Node5 -->
<g id="Node000005" class="node">
<title>Node5</title>
<g id="a_Node000005"><a xlink:title=" ">
<polygon fill="#e0e0e0" stroke="#999999" points="141,-70 103,-70 103,-53 141,-53 141,-70"/>
<text text-anchor="middle" x="122" y="-59.6" font-family="Helvetica,sans-Serif" font-size="8.00">cmath</text>
</a>
</g>
</g>
<!-- Node3&#45;&gt;Node5 -->
<g id="edge4_Node000003_Node000005" class="edge">
<title>Node3&#45;&gt;Node5</title>
<g id="a_edge4_Node000003_Node000005"><a xlink:title=" ">
<path fill="none" stroke="#63b8ff" d="M168.03,-105.97C159.98,-98.37 147.32,-86.41 137.32,-76.97"/>
<polygon fill="#63b8ff" stroke="#63b8ff" points="139.67,-74.38 130,-70.06 134.87,-79.47 139.67,-74.38"/>
</a>
</g>
</g>
<!-- Node6 -->
<g id="Node000006" class="node">
<title>Node6</title>
<g id="a_Node000006"><a xlink:title=" ">
<polygon fill="#e0e0e0" stroke="#999999" points="193,-70 159,-70 159,-53 193,-53 193,-70"/>
<text text-anchor="middle" x="176" y="-59.6" font-family="Helvetica,sans-Serif" font-size="8.00">limits</text>
</a>
</g>
</g>
<!-- Node3&#45;&gt;Node6 -->
<g id="edge6_Node000003_Node000006" class="edge">
<title>Node3&#45;&gt;Node6</title>
<g id="a_edge6_Node000003_Node000006"><a xlink:title=" ">
<path fill="none" stroke="#63b8ff" d="M176,-105.97C176,-99.19 176,-88.97 176,-80.13"/>
<polygon fill="#63b8ff" stroke="#63b8ff" points="179.5,-80.06 176,-70.06 172.5,-80.06 179.5,-80.06"/>
</a>
</g>
</g>
<!-- Node7 -->
<g id="Node000007" class="node">
<title>Node7</title>
<g id="a_Node000007"><a xlink:title=" ">
<polygon fill="#e0e0e0" stroke="#999999" points="247,-70 211,-70 211,-53 247,-53 247,-70"/>
<text text-anchor="middle" x="229" y="-59.6" font-family="Helvetica,sans-Serif" font-size="8.00">string</text>
</a>
</g>
</g>
<!-- Node3&#45;&gt;Node7 -->
<g id="edge7_Node000003_Node000007" class="edge">
<title>Node3&#45;&gt;Node7</title>
<g id="a_edge7_Node000003_Node000007"><a xlink:title=" ">
<path fill="none" stroke="#63b8ff" d="M183.82,-105.97C191.65,-98.44 203.9,-86.65 213.67,-77.25"/>
<polygon fill="#63b8ff" stroke="#63b8ff" points="216.37,-79.51 221.15,-70.06 211.51,-74.47 216.37,-79.51"/>
</a>
</g>
</g>
<!-- Node8 -->
<g id="Node000008" class="node">
<title>Node8</title>
<g id="a_Node000008"><a xlink:title=" ">
<polygon fill="#e0e0e0" stroke="#999999" points="318.5,-70 265.5,-70 265.5,-53 318.5,-53 318.5,-70"/>
<text text-anchor="middle" x="292" y="-59.6" font-family="Helvetica,sans-Serif" font-size="8.00">type_traits</text>
</a>
</g>
</g>
<!-- Node3&#45;&gt;Node8 -->
<g id="edge8_Node000003_Node000008" class="edge">
<title>Node3&#45;&gt;Node8</title>
<g id="a_edge8_Node000003_Node000008"><a xlink:title=" ">
<path fill="none" stroke="#63b8ff" d="M193.12,-105.97C212.22,-97.58 243.37,-83.88 265.6,-74.11"/>
<polygon fill="#63b8ff" stroke="#63b8ff" points="267.07,-77.28 274.81,-70.06 264.25,-70.88 267.07,-77.28"/>
</a>
</g>
</g>
<!-- Node3&#45;&gt;Node9 -->
<g id="edge9_Node000003_Node000009" class="edge">
<title>Node3&#45;&gt;Node9</title>
<g id="a_edge9_Node000003_Node000009"><a xlink:title=" ">
<path fill="none" stroke="#63b8ff" d="M205.95,-105.97C241.26,-97.1 300.07,-82.33 339.18,-72.5"/>
<polygon fill="#63b8ff" stroke="#63b8ff" points="340.08,-75.89 348.92,-70.06 338.37,-69.1 340.08,-75.89"/>
</a>
</g>
</g>
<!-- Node9&#45;&gt;Node2 -->
<g id="edge10_Node000009_Node000002" class="edge">
<title>Node9&#45;&gt;Node2</title>
<g id="a_edge10_Node000009_Node000002"><a xlink:title=" ">
<path fill="none" stroke="#63b8ff" d="M336.43,-54.22C333.57,-53.81 330.75,-53.4 328,-53 227.35,-38.47 108.08,-21.7 52.47,-13.9"/>
<polygon fill="#63b8ff" stroke="#63b8ff" points="52.61,-10.39 42.22,-12.47 51.64,-17.32 52.61,-10.39"/>
</a>
</g>
</g>
<!-- Node10 -->
<g id="Node000010" class="node">
<title>Node10</title>
<g id="a_Node000010"><a xlink:title=" ">
<polygon fill="#e0e0e0" stroke="#999999" points="398,-17 360,-17 360,0 398,0 398,-17"/>
<text text-anchor="middle" x="379" y="-6.6" font-family="Helvetica,sans-Serif" font-size="8.00">cstdlib</text>
</a>
</g>
</g>
<!-- Node9&#45;&gt;Node10 -->
<g id="edge11_Node000009_Node000010" class="edge">
<title>Node9&#45;&gt;Node10</title>
<g id="a_edge11_Node000009_Node000010"><a xlink:title=" ">
<path fill="none" stroke="#63b8ff" d="M379,-52.97C379,-46.19 379,-35.97 379,-27.13"/>
<polygon fill="#63b8ff" stroke="#63b8ff" points="382.5,-27.06 379,-17.06 375.5,-27.06 382.5,-27.06"/>
</a>
</g>
</g>
</g>
</svg>
