<?xml version="1.0" encoding="UTF-8" standalone="no"?>
<!DOCTYPE svg PUBLIC "-//W3C//DTD SVG 1.1//EN"
 "http://www.w3.org/Graphics/SVG/1.1/DTD/svg11.dtd">
<!-- Generated by graphviz version 2.43.0 (0)
 -->
<!-- Title: heuristics.hpp Pages: 1 -->
<svg width="546pt" height="184pt"
 viewBox="0.00 0.00 545.58 184.00" xmlns="http://www.w3.org/2000/svg" xmlns:xlink="http://www.w3.org/1999/xlink">
<g id="graph0" class="graph" transform="scale(1 1) rotate(0) translate(4 180)">
<title>heuristics.hpp</title>
<!-- Node1 -->
<g id="Node000001" class="node">
<title>Node1</title>
<g id="a_Node000001"><a xlink:title=" ">
<polygon fill="#999999" stroke="#666666" points="201.58,-176 127.58,-176 127.58,-159 201.58,-159 201.58,-176"/>
<text text-anchor="middle" x="164.58" y="-165.6" font-family="Helvetica,sans-Serif" font-size="8.00">heuristics.hpp</text>
</a>
</g>
</g>
<!-- Node2 -->
<g id="Node000002" class="node">
<title>Node2</title>
<g id="a_Node000002"><a xlink:title=" ">
<polygon fill="#e0e0e0" stroke="#999999" points="124.08,-17 77.08,-17 77.08,0 124.08,0 124.08,-17"/>
<text text-anchor="middle" x="100.58" y="-6.6" font-family="Helvetica,sans-Serif" font-size="8.00">cstddef</text>
</a>
</g>
</g>
<!-- Node1&#45;&gt;Node2 -->
<g id="edge1_Node000001_Node000002" class="edge">
<title>Node1&#45;&gt;Node2</title>
<g id="a_edge1_Node000001_Node000002"><a xlink:title=" ">
<path fill="none" stroke="#63b8ff" d="M136.16,-158.94C98.09,-147.11 32.01,-120.19 3.58,-70 -12.65,-41.36 32.86,-24.44 66.92,-16.07"/>
<polygon fill="#63b8ff" stroke="#63b8ff" points="68.08,-19.39 77.04,-13.74 66.51,-12.57 68.08,-19.39"/>
</a>
</g>
</g>
<!-- Node3 -->
<g id="Node000003" class="node">
<title>Node3</title>
<g id="a_Node000003"><a xlink:title=" ">
<polygon fill="#e0e0e0" stroke="#999999" points="72.08,-70 13.08,-70 13.08,-53 72.08,-53 72.08,-70"/>
<text text-anchor="middle" x="42.58" y="-59.6" font-family="Helvetica,sans-Serif" font-size="8.00">type_traits</text>
</a>
</g>
</g>
<!-- Node1&#45;&gt;Node3 -->
<g id="edge2_Node000001_Node000003" class="edge">
<title>Node1&#45;&gt;Node3</title>
<g id="a_edge2_Node000001_Node000003"><a xlink:title=" ">
<path fill="none" stroke="#63b8ff" d="M155.41,-158.68C134.99,-141.28 85.55,-99.13 59.41,-76.85"/>
<polygon fill="#63b8ff" stroke="#63b8ff" points="61.4,-73.95 51.52,-70.12 56.86,-79.28 61.4,-73.95"/>
</a>
</g>
</g>
<!-- Node4 -->
<g id="Node000004" class="node">
<title>Node4</title>
<g id="a_Node000004"><a xlink:href="../../df/d93/utils_8hpp.html" target="_top" xlink:title=" ">
<polygon fill="white" stroke="#666666" points="245.58,-123 165.58,-123 165.58,-106 245.58,-106 245.58,-123"/>
<text text-anchor="middle" x="205.58" y="-112.6" font-family="Helvetica,sans-Serif" font-size="8.00">../utils/utils.hpp</text>
</a>
</g>
</g>
<!-- Node1&#45;&gt;Node4 -->
<g id="edge3_Node000001_Node000004" class="edge">
<title>Node1&#45;&gt;Node4</title>
<g id="a_edge3_Node000001_Node000004"><a xlink:title=" ">
<path fill="none" stroke="#63b8ff" d="M170.62,-158.97C176.5,-151.67 185.59,-140.35 193.03,-131.1"/>
<polygon fill="#63b8ff" stroke="#63b8ff" points="195.96,-133.04 199.5,-123.06 190.51,-128.66 195.96,-133.04"/>
</a>
</g>
</g>
<!-- Node10 -->
<g id="Node000010" class="node">
<title>Node10</title>
<g id="a_Node000010"><a xlink:href="../../d7/d65/intrinsics_8hpp.html" target="_top" xlink:title=" ">
<polygon fill="white" stroke="#666666" points="534.08,-70 435.08,-70 435.08,-53 534.08,-53 534.08,-70"/>
<text text-anchor="middle" x="484.58" y="-59.6" font-family="Helvetica,sans-Serif" font-size="8.00">../utils/intrinsics.hpp</text>
</a>
</g>
</g>
<!-- Node1&#45;&gt;Node10 -->
<g id="edge15_Node000001_Node000010" class="edge">
<title>Node1&#45;&gt;Node10</title>
<g id="a_edge15_Node000001_Node000010"><a xlink:title=" ">
<path fill="none" stroke="#63b8ff" d="M187.85,-158.94C243.96,-140.7 386.84,-94.26 451.68,-73.19"/>
<polygon fill="#63b8ff" stroke="#63b8ff" points="452.96,-76.45 461.39,-70.03 450.8,-69.8 452.96,-76.45"/>
</a>
</g>
</g>
<!-- Node4&#45;&gt;Node2 -->
<g id="edge6_Node000004_Node000002" class="edge">
<title>Node4&#45;&gt;Node2</title>
<g id="a_edge6_Node000004_Node000002"><a xlink:title=" ">
<path fill="none" stroke="#63b8ff" d="M178.34,-105.94C159.37,-99.36 134.83,-87.99 119.58,-70 109.33,-57.92 104.6,-40.31 102.42,-27.2"/>
<polygon fill="#63b8ff" stroke="#63b8ff" points="105.87,-26.55 101.09,-17.09 98.93,-27.47 105.87,-26.55"/>
</a>
</g>
</g>
<!-- Node4&#45;&gt;Node3 -->
<g id="edge10_Node000004_Node000003" class="edge">
<title>Node4&#45;&gt;Node3</title>
<g id="a_edge10_Node000004_Node000003"><a xlink:title=" ">
<path fill="none" stroke="#63b8ff" d="M181.52,-105.97C153.72,-97.27 107.75,-82.89 76.36,-73.07"/>
<polygon fill="#63b8ff" stroke="#63b8ff" points="77.31,-69.7 66.73,-70.06 75.22,-76.38 77.31,-69.7"/>
</a>
</g>
</g>
<!-- Node5 -->
<g id="Node000005" class="node">
<title>Node5</title>
<g id="a_Node000005"><a xlink:title=" ">
<polygon fill="#e0e0e0" stroke="#999999" points="166.58,-70 128.58,-70 128.58,-53 166.58,-53 166.58,-70"/>
<text text-anchor="middle" x="147.58" y="-59.6" font-family="Helvetica,sans-Serif" font-size="8.00">array</text>
</a>
</g>
</g>
<!-- Node4&#45;&gt;Node5 -->
<g id="edge4_Node000004_Node000005" class="edge">
<title>Node4&#45;&gt;Node5</title>
<g id="a_edge4_Node000004_Node000005"><a xlink:title=" ">
<path fill="none" stroke="#63b8ff" d="M197.02,-105.97C188.28,-98.29 174.5,-86.18 163.71,-76.69"/>
<polygon fill="#63b8ff" stroke="#63b8ff" points="165.99,-74.03 156.17,-70.06 161.37,-79.29 165.99,-74.03"/>
</a>
</g>
</g>
<!-- Node6 -->
<g id="Node000006" class="node">
<title>Node6</title>
<g id="a_Node000006"><a xlink:title=" ">
<polygon fill="#e0e0e0" stroke="#999999" points="226.58,-70 184.58,-70 184.58,-53 226.58,-53 226.58,-70"/>
<text text-anchor="middle" x="205.58" y="-59.6" font-family="Helvetica,sans-Serif" font-size="8.00">cmath</text>
</a>
</g>
</g>
<!-- Node4&#45;&gt;Node6 -->
<g id="edge5_Node000004_Node000006" class="edge">
<title>Node4&#45;&gt;Node6</title>
<g id="a_edge5_Node000004_Node000006"><a xlink:title=" ">
<path fill="none" stroke="#63b8ff" d="M205.58,-105.97C205.58,-99.19 205.58,-88.97 205.58,-80.13"/>
<polygon fill="#63b8ff" stroke="#63b8ff" points="209.08,-80.06 205.58,-70.06 202.08,-80.06 209.08,-80.06"/>
</a>
</g>
</g>
<!-- Node7 -->
<g id="Node000007" class="node">
<title>Node7</title>
<g id="a_Node000007"><a xlink:title=" ">
<polygon fill="#e0e0e0" stroke="#999999" points="302.58,-70 244.58,-70 244.58,-53 302.58,-53 302.58,-70"/>
<text text-anchor="middle" x="273.58" y="-59.6" font-family="Helvetica,sans-Serif" font-size="8.00">functional</text>
</a>
</g>
</g>
<!-- Node4&#45;&gt;Node7 -->
<g id="edge7_Node000004_Node000007" class="edge">
<title>Node4&#45;&gt;Node7</title>
<g id="a_edge7_Node000004_Node000007"><a xlink:title=" ">
<path fill="none" stroke="#63b8ff" d="M215.61,-105.97C226.05,-98.14 242.64,-85.7 255.4,-76.13"/>
<polygon fill="#63b8ff" stroke="#63b8ff" points="257.6,-78.86 263.5,-70.06 253.4,-73.26 257.6,-78.86"/>
</a>
</g>
</g>
<!-- Node8 -->
<g id="Node000008" class="node">
<title>Node8</title>
<g id="a_Node000008"><a xlink:title=" ">
<polygon fill="#e0e0e0" stroke="#999999" points="358.58,-70 320.58,-70 320.58,-53 358.58,-53 358.58,-70"/>
<text text-anchor="middle" x="339.58" y="-59.6" font-family="Helvetica,sans-Serif" font-size="8.00">limits</text>
</a>
</g>
</g>
<!-- Node4&#45;&gt;Node8 -->
<g id="edge8_Node000004_Node000008" class="edge">
<title>Node4&#45;&gt;Node8</title>
<g id="a_edge8_Node000004_Node000008"><a xlink:title=" ">
<path fill="none" stroke="#63b8ff" d="M225.35,-105.97C247.84,-97.41 284.79,-83.35 310.55,-73.55"/>
<polygon fill="#63b8ff" stroke="#63b8ff" points="312.06,-76.72 320.16,-69.89 309.57,-70.18 312.06,-76.72"/>
</a>
</g>
</g>
<!-- Node9 -->
<g id="Node000009" class="node">
<title>Node9</title>
<g id="a_Node000009"><a xlink:title=" ">
<polygon fill="#e0e0e0" stroke="#999999" points="416.58,-70 376.58,-70 376.58,-53 416.58,-53 416.58,-70"/>
<text text-anchor="middle" x="396.58" y="-59.6" font-family="Helvetica,sans-Serif" font-size="8.00">string</text>
</a>
</g>
</g>
<!-- Node4&#45;&gt;Node9 -->
<g id="edge9_Node000004_Node000009" class="edge">
<title>Node4&#45;&gt;Node9</title>
<g id="a_edge9_Node000004_Node000009"><a xlink:title=" ">
<path fill="none" stroke="#63b8ff" d="M233.76,-105.97C269.27,-96.49 330.05,-80.26 366.45,-70.54"/>
<polygon fill="#63b8ff" stroke="#63b8ff" points="367.71,-73.83 376.47,-67.87 365.91,-67.07 367.71,-73.83"/>
</a>
</g>
</g>
<!-- Node4&#45;&gt;Node10 -->
<g id="edge11_Node000004_Node000010" class="edge">
<title>Node4&#45;&gt;Node10</title>
<g id="a_edge11_Node000004_Node000010"><a xlink:title=" ">
<path fill="none" stroke="#63b8ff" d="M245.85,-106.14C295.32,-97.09 379.33,-81.74 433.35,-71.86"/>
<polygon fill="#63b8ff" stroke="#63b8ff" points="434.2,-75.27 443.41,-70.03 432.94,-68.38 434.2,-75.27"/>
</a>
</g>
</g>
<!-- Node10&#45;&gt;Node2 -->
<g id="edge13_Node000010_Node000002" class="edge">
<title>Node10&#45;&gt;Node2</title>
<g id="a_edge13_Node000010_Node000002"><a xlink:title=" ">
<path fill="none" stroke="#63b8ff" d="M434.77,-53.88C355.41,-43.34 202.3,-23.01 134.41,-13.99"/>
<polygon fill="#63b8ff" stroke="#63b8ff" points="134.65,-10.49 124.27,-12.65 133.72,-17.43 134.65,-10.49"/>
</a>
</g>
</g>
<!-- Node11 -->
<g id="Node000011" class="node">
<title>Node11</title>
<g id="a_Node000011"><a xlink:title=" ">
<polygon fill="#e0e0e0" stroke="#999999" points="475.58,-17 431.58,-17 431.58,0 475.58,0 475.58,-17"/>
<text text-anchor="middle" x="453.58" y="-6.6" font-family="Helvetica,sans-Serif" font-size="8.00">atomic</text>
</a>
</g>
</g>
<!-- Node10&#45;&gt;Node11 -->
<g id="edge12_Node000010_Node000011" class="edge">
<title>Node10&#45;&gt;Node11</title>
<g id="a_edge12_Node000010_Node000011"><a xlink:title=" ">
<path fill="none" stroke="#63b8ff" d="M480,-52.97C475.65,-45.82 468.97,-34.82 463.41,-25.67"/>
<polygon fill="#63b8ff" stroke="#63b8ff" points="466.35,-23.78 458.17,-17.06 460.37,-27.42 466.35,-23.78"/>
</a>
</g>
</g>
<!-- Node12 -->
<g id="Node000012" class="node">
<title>Node12</title>
<g id="a_Node000012"><a xlink:title=" ">
<polygon fill="#e0e0e0" stroke="#999999" points="537.58,-17 493.58,-17 493.58,0 537.58,0 537.58,-17"/>
<text text-anchor="middle" x="515.58" y="-6.6" font-family="Helvetica,sans-Serif" font-size="8.00">cstdlib</text>
</a>
</g>
</g>
<!-- Node10&#45;&gt;Node12 -->
<g id="edge14_Node000010_Node000012" class="edge">
<title>Node10&#45;&gt;Node12</title>
<g id="a_edge14_Node000010_Node000012"><a xlink:title=" ">
<path fill="none" stroke="#63b8ff" d="M489.15,-52.97C493.5,-45.82 500.19,-34.82 505.74,-25.67"/>
<polygon fill="#63b8ff" stroke="#63b8ff" points="508.78,-27.42 510.98,-17.06 502.8,-23.78 508.78,-27.42"/>
</a>
</g>
</g>
</g>
</svg>
