<?xml version="1.0" encoding="UTF-8" standalone="no"?>
<!DOCTYPE svg PUBLIC "-//W3C//DTD SVG 1.1//EN"
 "http://www.w3.org/Graphics/SVG/1.1/DTD/svg11.dtd">
<!-- Generated by graphviz version 2.43.0 (0)
 -->
<!-- Title: mutable_node.hpp Pages: 1 -->
<svg width="227pt" height="131pt"
 viewBox="0.00 0.00 226.50 131.00" xmlns="http://www.w3.org/2000/svg" xmlns:xlink="http://www.w3.org/1999/xlink">
<g id="graph0" class="graph" transform="scale(1 1) rotate(0) translate(4 127)">
<title>mutable_node.hpp</title>
<!-- Node1 -->
<g id="Node000001" class="node">
<title>Node1</title>
<g id="a_Node000001"><a xlink:title=" ">
<polygon fill="#999999" stroke="#666666" points="128,-123 35,-123 35,-106 128,-106 128,-123"/>
<text text-anchor="middle" x="81.5" y="-112.6" font-family="Helvetica,sans-Serif" font-size="8.00">mutable_node.hpp</text>
</a>
</g>
</g>
<!-- Node2 -->
<g id="Node000002" class="node">
<title>Node2</title>
<g id="a_Node000002"><a xlink:href="../../dc/d3c/bnode_8hpp.html" target="_top" xlink:title=" ">
<polygon fill="white" stroke="#666666" points="61,-70 0,-70 0,-53 61,-53 61,-70"/>
<text text-anchor="middle" x="30.5" y="-59.6" font-family="Helvetica,sans-Serif" font-size="8.00">bnode.hpp</text>
</a>
</g>
</g>
<!-- Node1&#45;&gt;Node2 -->
<g id="edge1_Node000001_Node000002" class="edge">
<title>Node1&#45;&gt;Node2</title>
<g id="a_edge1_Node000001_Node000002"><a xlink:title=" ">
<path fill="none" stroke="#63b8ff" d="M73.97,-105.97C66.44,-98.44 54.65,-86.65 45.25,-77.25"/>
<polygon fill="#63b8ff" stroke="#63b8ff" points="47.6,-74.65 38.06,-70.06 42.65,-79.6 47.6,-74.65"/>
</a>
</g>
</g>
<!-- Node3 -->
<g id="Node000003" class="node">
<title>Node3</title>
<g id="a_Node000003"><a xlink:href="../../d7/d65/intrinsics_8hpp.html" target="_top" xlink:title=" ">
<polygon fill="white" stroke="#666666" points="186,-70 79,-70 79,-53 186,-53 186,-70"/>
<text text-anchor="middle" x="132.5" y="-59.6" font-family="Helvetica,sans-Serif" font-size="8.00">../../utils/intrinsics.hpp</text>
</a>
</g>
</g>
<!-- Node1&#45;&gt;Node3 -->
<g id="edge2_Node000001_Node000003" class="edge">
<title>Node1&#45;&gt;Node3</title>
<g id="a_edge2_Node000001_Node000003"><a xlink:title=" ">
<path fill="none" stroke="#63b8ff" d="M89.03,-105.97C96.56,-98.44 108.35,-86.65 117.75,-77.25"/>
<polygon fill="#63b8ff" stroke="#63b8ff" points="120.35,-79.6 124.94,-70.06 115.4,-74.65 120.35,-79.6"/>
</a>
</g>
</g>
<!-- Node4 -->
<g id="Node000004" class="node">
<title>Node4</title>
<g id="a_Node000004"><a xlink:title=" ">
<polygon fill="#e0e0e0" stroke="#999999" points="90.5,-17 46.5,-17 46.5,0 90.5,0 90.5,-17"/>
<text text-anchor="middle" x="68.5" y="-6.6" font-family="Helvetica,sans-Serif" font-size="8.00">atomic</text>
</a>
</g>
</g>
<!-- Node3&#45;&gt;Node4 -->
<g id="edge3_Node000003_Node000004" class="edge">
<title>Node3&#45;&gt;Node4</title>
<g id="a_edge3_Node000003_Node000004"><a xlink:title=" ">
<path fill="none" stroke="#63b8ff" d="M123.06,-52.97C113.32,-45.22 97.91,-32.94 85.95,-23.41"/>
<polygon fill="#63b8ff" stroke="#63b8ff" points="87.98,-20.55 77.98,-17.06 83.62,-26.03 87.98,-20.55"/>
</a>
</g>
</g>
<!-- Node5 -->
<g id="Node000005" class="node">
<title>Node5</title>
<g id="a_Node000005"><a xlink:title=" ">
<polygon fill="#e0e0e0" stroke="#999999" points="156,-17 109,-17 109,0 156,0 156,-17"/>
<text text-anchor="middle" x="132.5" y="-6.6" font-family="Helvetica,sans-Serif" font-size="8.00">cstddef</text>
</a>
</g>
</g>
<!-- Node3&#45;&gt;Node5 -->
<g id="edge4_Node000003_Node000005" class="edge">
<title>Node3&#45;&gt;Node5</title>
<g id="a_edge4_Node000003_Node000005"><a xlink:title=" ">
<path fill="none" stroke="#63b8ff" d="M132.5,-52.97C132.5,-46.19 132.5,-35.97 132.5,-27.13"/>
<polygon fill="#63b8ff" stroke="#63b8ff" points="136,-27.06 132.5,-17.06 129,-27.06 136,-27.06"/>
</a>
</g>
</g>
<!-- Node6 -->
<g id="Node000006" class="node">
<title>Node6</title>
<g id="a_Node000006"><a xlink:title=" ">
<polygon fill="#e0e0e0" stroke="#999999" points="218.5,-17 174.5,-17 174.5,0 218.5,0 218.5,-17"/>
<text text-anchor="middle" x="196.5" y="-6.6" font-family="Helvetica,sans-Serif" font-size="8.00">cstdlib</text>
</a>
</g>
</g>
<!-- Node3&#45;&gt;Node6 -->
<g id="edge5_Node000003_Node000006" class="edge">
<title>Node3&#45;&gt;Node6</title>
<g id="a_edge5_Node000003_Node000006"><a xlink:title=" ">
<path fill="none" stroke="#63b8ff" d="M141.94,-52.97C151.68,-45.22 167.09,-32.94 179.05,-23.41"/>
<polygon fill="#63b8ff" stroke="#63b8ff" points="181.38,-26.03 187.02,-17.06 177.02,-20.55 181.38,-26.03"/>
</a>
</g>
</g>
</g>
</svg>
