<?xml version="1.0" encoding="UTF-8" standalone="no"?>
<!DOCTYPE svg PUBLIC "-//W3C//DTD SVG 1.1//EN"
 "http://www.w3.org/Graphics/SVG/1.1/DTD/svg11.dtd">
<!-- Generated by graphviz version 2.43.0 (0)
 -->
<!-- Title: fringe.hpp Pages: 1 -->
<svg width="884pt" height="237pt"
 viewBox="0.00 0.00 883.82 237.00" xmlns="http://www.w3.org/2000/svg" xmlns:xlink="http://www.w3.org/1999/xlink">
<g id="graph0" class="graph" transform="scale(1 1) rotate(0) translate(4 233)">
<title>fringe.hpp</title>
<!-- Node1 -->
<g id="Node000001" class="node">
<title>Node1</title>
<g id="a_Node000001"><a xlink:title=" ">
<polygon fill="#999999" stroke="#666666" points="451.5,-229 392.5,-229 392.5,-212 451.5,-212 451.5,-229"/>
<text text-anchor="middle" x="422" y="-218.6" font-family="Helvetica,sans-Serif" font-size="8.00">fringe.hpp</text>
</a>
</g>
</g>
<!-- Node2 -->
<g id="Node000002" class="node">
<title>Node2</title>
<g id="a_Node000002"><a xlink:title=" ">
<polygon fill="#e0e0e0" stroke="#999999" points="507.5,-17 460.5,-17 460.5,0 507.5,0 507.5,-17"/>
<text text-anchor="middle" x="484" y="-6.6" font-family="Helvetica,sans-Serif" font-size="8.00">cstddef</text>
</a>
</g>
</g>
<!-- Node1&#45;&gt;Node2 -->
<g id="edge1_Node000001_Node000002" class="edge">
<title>Node1&#45;&gt;Node2</title>
<g id="a_edge1_Node000001_Node000002"><a xlink:title=" ">
<path fill="none" stroke="#63b8ff" d="M451.77,-220.01C513.75,-220.17 660.4,-215.88 775,-176 817.76,-161.12 839.83,-162.47 862,-123 877.24,-95.88 882.7,-76.22 862,-53 839.24,-27.47 605.96,-14.78 517.64,-10.86"/>
<polygon fill="#63b8ff" stroke="#63b8ff" points="517.75,-7.36 507.61,-10.43 517.45,-14.36 517.75,-7.36"/>
</a>
</g>
</g>
<!-- Node3 -->
<g id="Node000003" class="node">
<title>Node3</title>
<g id="a_Node000003"><a xlink:title=" ">
<polygon fill="#e0e0e0" stroke="#999999" points="853,-70 815,-70 815,-53 853,-53 853,-70"/>
<text text-anchor="middle" x="834" y="-59.6" font-family="Helvetica,sans-Serif" font-size="8.00">limits</text>
</a>
</g>
</g>
<!-- Node1&#45;&gt;Node3 -->
<g id="edge2_Node000001_Node000003" class="edge">
<title>Node1&#45;&gt;Node3</title>
<g id="a_edge2_Node000001_Node000003"><a xlink:title=" ">
<path fill="none" stroke="#63b8ff" d="M451.64,-217.55C539.94,-211.07 798.09,-186.86 846,-123 855.53,-110.3 850,-92.03 843.66,-78.89"/>
<polygon fill="#63b8ff" stroke="#63b8ff" points="846.7,-77.17 838.88,-70.02 840.54,-80.49 846.7,-77.17"/>
</a>
</g>
</g>
<!-- Node4 -->
<g id="Node000004" class="node">
<title>Node4</title>
<g id="a_Node000004"><a xlink:title=" ">
<polygon fill="#e0e0e0" stroke="#999999" points="340,-123 298,-123 298,-106 340,-106 340,-123"/>
<text text-anchor="middle" x="319" y="-112.6" font-family="Helvetica,sans-Serif" font-size="8.00">vector</text>
</a>
</g>
</g>
<!-- Node1&#45;&gt;Node4 -->
<g id="edge3_Node000001_Node000004" class="edge">
<title>Node1&#45;&gt;Node4</title>
<g id="a_edge3_Node000001_Node000004"><a xlink:title=" ">
<path fill="none" stroke="#63b8ff" d="M395.79,-211.93C377.2,-205.29 353,-193.86 338,-176 327.81,-163.87 323.08,-146.27 320.88,-133.18"/>
<polygon fill="#63b8ff" stroke="#63b8ff" points="324.32,-132.53 319.53,-123.08 317.39,-133.46 324.32,-132.53"/>
</a>
</g>
</g>
<!-- Node5 -->
<g id="Node000005" class="node">
<title>Node5</title>
<g id="a_Node000005"><a xlink:href="../../d8/d62/existence__set_8hpp.html" target="_top" xlink:title=" ">
<polygon fill="white" stroke="#666666" points="655,-176 485,-176 485,-159 655,-159 655,-176"/>
<text text-anchor="middle" x="570" y="-165.6" font-family="Helvetica,sans-Serif" font-size="8.00">../types/containers/existence_set.hpp</text>
</a>
</g>
</g>
<!-- Node1&#45;&gt;Node5 -->
<g id="edge4_Node000001_Node000005" class="edge">
<title>Node1&#45;&gt;Node5</title>
<g id="a_edge4_Node000001_Node000005"><a xlink:title=" ">
<path fill="none" stroke="#63b8ff" d="M443.84,-211.97C468.87,-203.35 510.1,-189.14 538.58,-179.33"/>
<polygon fill="#63b8ff" stroke="#63b8ff" points="539.76,-182.62 548.07,-176.06 537.48,-176.01 539.76,-182.62"/>
</a>
</g>
</g>
<!-- Node9 -->
<g id="Node000009" class="node">
<title>Node9</title>
<g id="a_Node000009"><a xlink:href="../../df/d93/utils_8hpp.html" target="_top" xlink:title=" ">
<polygon fill="white" stroke="#666666" points="597.5,-123 510.5,-123 510.5,-106 597.5,-106 597.5,-123"/>
<text text-anchor="middle" x="554" y="-112.6" font-family="Helvetica,sans-Serif" font-size="8.00">../../utils/utils.hpp</text>
</a>
</g>
</g>
<!-- Node1&#45;&gt;Node9 -->
<g id="edge22_Node000001_Node000009" class="edge">
<title>Node1&#45;&gt;Node9</title>
<g id="a_edge22_Node000001_Node000009"><a xlink:title=" ">
<path fill="none" stroke="#63b8ff" d="M427.61,-211.68C436.73,-199.36 455.78,-175.2 476,-159 491.83,-146.32 511.86,-135.23 527.65,-127.43"/>
<polygon fill="#63b8ff" stroke="#63b8ff" points="529.36,-130.49 536.87,-123.01 526.34,-124.18 529.36,-130.49"/>
</a>
</g>
</g>
<!-- Node13 -->
<g id="Node000013" class="node">
<title>Node13</title>
<g id="a_Node000013"><a xlink:href="../../d7/d65/intrinsics_8hpp.html" target="_top" xlink:title=" ">
<polygon fill="#fff0f0" stroke="red" points="293.5,-70 194.5,-70 194.5,-53 293.5,-53 293.5,-70"/>
<text text-anchor="middle" x="244" y="-59.6" font-family="Helvetica,sans-Serif" font-size="8.00">../utils/intrinsics.hpp</text>
</a>
</g>
</g>
<!-- Node1&#45;&gt;Node13 -->
<g id="edge34_Node000001_Node000013" class="edge">
<title>Node1&#45;&gt;Node13</title>
<g id="a_edge34_Node000001_Node000013"><a xlink:title=" ">
<path fill="none" stroke="#63b8ff" d="M392.45,-216.12C344.21,-208.84 249.82,-186.77 209,-123 199.14,-107.6 213.02,-89.36 226.11,-76.97"/>
<polygon fill="#63b8ff" stroke="#63b8ff" points="228.74,-79.31 233.93,-70.08 224.11,-74.06 228.74,-79.31"/>
</a>
</g>
</g>
<!-- Node16 -->
<g id="Node000016" class="node">
<title>Node16</title>
<g id="a_Node000016"><a xlink:href="../../d2/d1c/solver_8hpp.html" target="_top" xlink:title=" ">
<polygon fill="white" stroke="#666666" points="429,-176 347,-176 347,-159 429,-159 429,-176"/>
<text text-anchor="middle" x="388" y="-165.6" font-family="Helvetica,sans-Serif" font-size="8.00">base/solver.hpp</text>
</a>
</g>
</g>
<!-- Node1&#45;&gt;Node16 -->
<g id="edge23_Node000001_Node000016" class="edge">
<title>Node1&#45;&gt;Node16</title>
<g id="a_edge23_Node000001_Node000016"><a xlink:title=" ">
<path fill="none" stroke="#63b8ff" d="M416.98,-211.97C412.16,-204.74 404.72,-193.59 398.59,-184.39"/>
<polygon fill="#63b8ff" stroke="#63b8ff" points="401.5,-182.44 393.04,-176.06 395.67,-186.32 401.5,-182.44"/>
</a>
</g>
</g>
<!-- Node18 -->
<g id="Node000018" class="node">
<title>Node18</title>
<g id="a_Node000018"><a xlink:href="../../d0/def/unmanaged__node_8hpp.html" target="_top" xlink:title=" ">
<polygon fill="white" stroke="#666666" points="132,-176 0,-176 0,-159 132,-159 132,-176"/>
<text text-anchor="middle" x="66" y="-165.6" font-family="Helvetica,sans-Serif" font-size="8.00">base/unmanaged_node.hpp</text>
</a>
</g>
</g>
<!-- Node1&#45;&gt;Node18 -->
<g id="edge31_Node000001_Node000018" class="edge">
<title>Node1&#45;&gt;Node18</title>
<g id="a_edge31_Node000001_Node000018"><a xlink:title=" ">
<path fill="none" stroke="#63b8ff" d="M392.26,-215.24C334.52,-206.97 206.15,-188.58 128.76,-177.49"/>
<polygon fill="#63b8ff" stroke="#63b8ff" points="129.05,-174 118.65,-176.04 128.06,-180.93 129.05,-174"/>
</a>
</g>
</g>
<!-- Node5&#45;&gt;Node2 -->
<g id="edge5_Node000005_Node000002" class="edge">
<title>Node5&#45;&gt;Node2</title>
<g id="a_edge5_Node000005_Node000002"><a xlink:title=" ">
<path fill="none" stroke="#63b8ff" d="M590.3,-158.86C642.95,-138.49 778.08,-82.46 753,-53 723.15,-17.94 583.16,-11.05 517.79,-9.76"/>
<polygon fill="#63b8ff" stroke="#63b8ff" points="517.65,-6.25 507.6,-9.59 517.54,-13.25 517.65,-6.25"/>
</a>
</g>
</g>
<!-- Node5&#45;&gt;Node3 -->
<g id="edge7_Node000005_Node000003" class="edge">
<title>Node5&#45;&gt;Node3</title>
<g id="a_edge7_Node000005_Node000003"><a xlink:title=" ">
<path fill="none" stroke="#63b8ff" d="M655.2,-163.21C721.48,-158.71 805.93,-148.09 829,-123 839.37,-111.73 839.57,-93.76 837.82,-80.33"/>
<polygon fill="#63b8ff" stroke="#63b8ff" points="841.24,-79.6 836.06,-70.36 834.35,-80.82 841.24,-79.6"/>
</a>
</g>
</g>
<!-- Node5&#45;&gt;Node4 -->
<g id="edge10_Node000005_Node000004" class="edge">
<title>Node5&#45;&gt;Node4</title>
<g id="a_edge10_Node000005_Node000004"><a xlink:title=" ">
<path fill="none" stroke="#63b8ff" d="M532.96,-158.97C483.5,-148.92 396.72,-131.29 350.34,-121.87"/>
<polygon fill="#63b8ff" stroke="#63b8ff" points="350.76,-118.38 340.27,-119.82 349.37,-125.24 350.76,-118.38"/>
</a>
</g>
</g>
<!-- Node6 -->
<g id="Node000006" class="node">
<title>Node6</title>
<g id="a_Node000006"><a xlink:title=" ">
<polygon fill="#e0e0e0" stroke="#999999" points="744,-70 686,-70 686,-53 744,-53 744,-70"/>
<text text-anchor="middle" x="715" y="-59.6" font-family="Helvetica,sans-Serif" font-size="8.00">functional</text>
</a>
</g>
</g>
<!-- Node5&#45;&gt;Node6 -->
<g id="edge6_Node000005_Node000006" class="edge">
<title>Node5&#45;&gt;Node6</title>
<g id="a_edge6_Node000005_Node000006"><a xlink:title=" ">
<path fill="none" stroke="#63b8ff" d="M580.9,-158.68C605.48,-141.06 665.46,-98.03 696.19,-75.99"/>
<polygon fill="#63b8ff" stroke="#63b8ff" points="698.28,-78.8 704.37,-70.12 694.2,-73.11 698.28,-78.8"/>
</a>
</g>
</g>
<!-- Node7 -->
<g id="Node000007" class="node">
<title>Node7</title>
<g id="a_Node000007"><a xlink:title=" ">
<polygon fill="#e0e0e0" stroke="#999999" points="819.5,-123 730.5,-123 730.5,-106 819.5,-106 819.5,-123"/>
<text text-anchor="middle" x="775" y="-112.6" font-family="Helvetica,sans-Serif" font-size="8.00">memory_resource</text>
</a>
</g>
</g>
<!-- Node5&#45;&gt;Node7 -->
<g id="edge8_Node000005_Node000007" class="edge">
<title>Node5&#45;&gt;Node7</title>
<g id="a_edge8_Node000005_Node000007"><a xlink:title=" ">
<path fill="none" stroke="#63b8ff" d="M600.25,-158.97C635.9,-150.1 695.29,-135.33 734.79,-125.5"/>
<polygon fill="#63b8ff" stroke="#63b8ff" points="735.77,-128.87 744.63,-123.06 734.08,-122.07 735.77,-128.87"/>
</a>
</g>
</g>
<!-- Node8 -->
<g id="Node000008" class="node">
<title>Node8</title>
<g id="a_Node000008"><a xlink:title=" ">
<polygon fill="#e0e0e0" stroke="#999999" points="455.5,-70 396.5,-70 396.5,-53 455.5,-53 455.5,-70"/>
<text text-anchor="middle" x="426" y="-59.6" font-family="Helvetica,sans-Serif" font-size="8.00">type_traits</text>
</a>
</g>
</g>
<!-- Node5&#45;&gt;Node8 -->
<g id="edge9_Node000005_Node000008" class="edge">
<title>Node5&#45;&gt;Node8</title>
<g id="a_edge9_Node000005_Node000008"><a xlink:title=" ">
<path fill="none" stroke="#63b8ff" d="M557.21,-158.86C543.35,-150.46 520.7,-136.37 502,-123 481.13,-108.08 458.22,-89.52 443.07,-76.93"/>
<polygon fill="#63b8ff" stroke="#63b8ff" points="445.04,-74 435.12,-70.27 440.54,-79.37 445.04,-74"/>
</a>
</g>
</g>
<!-- Node5&#45;&gt;Node9 -->
<g id="edge11_Node000005_Node000009" class="edge">
<title>Node5&#45;&gt;Node9</title>
<g id="a_edge11_Node000005_Node000009"><a xlink:title=" ">
<path fill="none" stroke="#63b8ff" d="M567.64,-158.97C565.49,-152.12 562.23,-141.74 559.44,-132.84"/>
<polygon fill="#63b8ff" stroke="#63b8ff" points="562.7,-131.55 556.37,-123.06 556.02,-133.65 562.7,-131.55"/>
</a>
</g>
</g>
<!-- Node5&#45;&gt;Node13 -->
<g id="edge21_Node000005_Node000013" class="edge">
<title>Node5&#45;&gt;Node13</title>
<g id="a_edge21_Node000005_Node000013"><a xlink:title=" ">
<path fill="none" stroke="#63b8ff" d="M546.29,-158.94C489.13,-140.7 343.57,-94.26 277.51,-73.19"/>
<polygon fill="#63b8ff" stroke="#63b8ff" points="278.21,-69.74 267.62,-70.03 276.08,-76.41 278.21,-69.74"/>
</a>
</g>
</g>
<!-- Node9&#45;&gt;Node2 -->
<g id="edge14_Node000009_Node000002" class="edge">
<title>Node9&#45;&gt;Node2</title>
<g id="a_edge14_Node000009_Node000002"><a xlink:title=" ">
<path fill="none" stroke="#63b8ff" d="M541.76,-106C530.19,-98.31 513.14,-85.34 503,-70 494.44,-57.06 489.55,-40.05 486.88,-27.35"/>
<polygon fill="#63b8ff" stroke="#63b8ff" points="490.26,-26.36 485.01,-17.16 483.37,-27.62 490.26,-26.36"/>
</a>
</g>
</g>
<!-- Node9&#45;&gt;Node3 -->
<g id="edge16_Node000009_Node000003" class="edge">
<title>Node9&#45;&gt;Node3</title>
<g id="a_edge16_Node000009_Node000003"><a xlink:title=" ">
<path fill="none" stroke="#63b8ff" d="M595.31,-105.97C652.57,-95.55 754.63,-76.96 804.68,-67.84"/>
<polygon fill="#63b8ff" stroke="#63b8ff" points="805.61,-71.23 814.82,-65.99 804.36,-64.34 805.61,-71.23"/>
</a>
</g>
</g>
<!-- Node9&#45;&gt;Node6 -->
<g id="edge15_Node000009_Node000006" class="edge">
<title>Node9&#45;&gt;Node6</title>
<g id="a_edge15_Node000009_Node000006"><a xlink:title=" ">
<path fill="none" stroke="#63b8ff" d="M577.76,-105.97C605.1,-97.31 650.23,-83.02 681.22,-73.2"/>
<polygon fill="#63b8ff" stroke="#63b8ff" points="682.67,-76.41 691.15,-70.06 680.56,-69.74 682.67,-76.41"/>
</a>
</g>
</g>
<!-- Node9&#45;&gt;Node8 -->
<g id="edge18_Node000009_Node000008" class="edge">
<title>Node9&#45;&gt;Node8</title>
<g id="a_edge18_Node000009_Node000008"><a xlink:title=" ">
<path fill="none" stroke="#63b8ff" d="M535.11,-105.97C513.84,-97.5 479.05,-83.64 454.48,-73.85"/>
<polygon fill="#63b8ff" stroke="#63b8ff" points="455.55,-70.51 444.96,-70.06 452.96,-77.01 455.55,-70.51"/>
</a>
</g>
</g>
<!-- Node10 -->
<g id="Node000010" class="node">
<title>Node10</title>
<g id="a_Node000010"><a xlink:title=" ">
<polygon fill="#e0e0e0" stroke="#999999" points="550,-70 512,-70 512,-53 550,-53 550,-70"/>
<text text-anchor="middle" x="531" y="-59.6" font-family="Helvetica,sans-Serif" font-size="8.00">array</text>
</a>
</g>
</g>
<!-- Node9&#45;&gt;Node10 -->
<g id="edge12_Node000009_Node000010" class="edge">
<title>Node9&#45;&gt;Node10</title>
<g id="a_edge12_Node000009_Node000010"><a xlink:title=" ">
<path fill="none" stroke="#63b8ff" d="M550.61,-105.97C547.45,-98.97 542.63,-88.28 538.56,-79.25"/>
<polygon fill="#63b8ff" stroke="#63b8ff" points="541.71,-77.73 534.41,-70.06 535.33,-80.61 541.71,-77.73"/>
</a>
</g>
</g>
<!-- Node11 -->
<g id="Node000011" class="node">
<title>Node11</title>
<g id="a_Node000011"><a xlink:title=" ">
<polygon fill="#e0e0e0" stroke="#999999" points="610,-70 568,-70 568,-53 610,-53 610,-70"/>
<text text-anchor="middle" x="589" y="-59.6" font-family="Helvetica,sans-Serif" font-size="8.00">cmath</text>
</a>
</g>
</g>
<!-- Node9&#45;&gt;Node11 -->
<g id="edge13_Node000009_Node000011" class="edge">
<title>Node9&#45;&gt;Node11</title>
<g id="a_edge13_Node000009_Node000011"><a xlink:title=" ">
<path fill="none" stroke="#63b8ff" d="M559.16,-105.97C564.13,-98.74 571.78,-87.59 578.1,-78.39"/>
<polygon fill="#63b8ff" stroke="#63b8ff" points="581.04,-80.28 583.81,-70.06 575.27,-76.32 581.04,-80.28"/>
</a>
</g>
</g>
<!-- Node12 -->
<g id="Node000012" class="node">
<title>Node12</title>
<g id="a_Node000012"><a xlink:title=" ">
<polygon fill="#e0e0e0" stroke="#999999" points="668,-70 628,-70 628,-53 668,-53 668,-70"/>
<text text-anchor="middle" x="648" y="-59.6" font-family="Helvetica,sans-Serif" font-size="8.00">string</text>
</a>
</g>
</g>
<!-- Node9&#45;&gt;Node12 -->
<g id="edge17_Node000009_Node000012" class="edge">
<title>Node9&#45;&gt;Node12</title>
<g id="a_edge17_Node000009_Node000012"><a xlink:title=" ">
<path fill="none" stroke="#63b8ff" d="M567.87,-105.97C582.87,-97.84 607.02,-84.74 624.89,-75.04"/>
<polygon fill="#63b8ff" stroke="#63b8ff" points="626.95,-77.9 634.07,-70.06 623.61,-71.75 626.95,-77.9"/>
</a>
</g>
</g>
<!-- Node9&#45;&gt;Node13 -->
<g id="edge19_Node000009_Node000013" class="edge">
<title>Node9&#45;&gt;Node13</title>
<g id="a_edge19_Node000009_Node000013"><a xlink:title=" ">
<path fill="none" stroke="#63b8ff" d="M510.24,-106.3C455.1,-97.23 360.26,-81.63 299.92,-71.7"/>
<polygon fill="#63b8ff" stroke="#63b8ff" points="300.24,-68.21 289.81,-70.04 299.11,-75.11 300.24,-68.21"/>
</a>
</g>
</g>
<!-- Node13&#45;&gt;Node2 -->
<g id="edge20_Node000013_Node000002" class="edge">
<title>Node13&#45;&gt;Node2</title>
<g id="a_edge20_Node000013_Node000002"><a xlink:title=" ">
<path fill="none" stroke="#63b8ff" d="M279.41,-52.97C325.5,-43.18 405.46,-26.19 450.56,-16.61"/>
<polygon fill="#63b8ff" stroke="#63b8ff" points="451.38,-20.01 460.43,-14.51 449.92,-13.16 451.38,-20.01"/>
</a>
</g>
</g>
<!-- Node16&#45;&gt;Node2 -->
<g id="edge24_Node000016_Node000002" class="edge">
<title>Node16&#45;&gt;Node2</title>
<g id="a_edge24_Node000016_Node000002"><a xlink:title=" ">
<path fill="none" stroke="#63b8ff" d="M385.39,-158.82C379.28,-139.31 366.11,-86.95 388,-53 401.7,-31.76 428.56,-20.78 450.39,-15.16"/>
<polygon fill="#63b8ff" stroke="#63b8ff" points="451.36,-18.53 460.32,-12.88 449.79,-11.71 451.36,-18.53"/>
</a>
</g>
</g>
<!-- Node16&#45;&gt;Node3 -->
<g id="edge25_Node000016_Node000003" class="edge">
<title>Node16&#45;&gt;Node3</title>
<g id="a_edge25_Node000016_Node000003"><a xlink:title=" ">
<path fill="none" stroke="#63b8ff" d="M429.34,-159.11C473.5,-151.02 545.45,-137.3 607,-123 678.75,-106.33 762.25,-83.07 805.2,-70.81"/>
<polygon fill="#63b8ff" stroke="#63b8ff" points="806.32,-74.13 814.97,-68.02 804.39,-67.4 806.32,-74.13"/>
</a>
</g>
</g>
<!-- Node16&#45;&gt;Node4 -->
<g id="edge27_Node000016_Node000004" class="edge">
<title>Node16&#45;&gt;Node4</title>
<g id="a_edge27_Node000016_Node000004"><a xlink:title=" ">
<path fill="none" stroke="#63b8ff" d="M377.82,-158.97C367.22,-151.14 350.39,-138.7 337.44,-129.13"/>
<polygon fill="#63b8ff" stroke="#63b8ff" points="339.35,-126.19 329.22,-123.06 335.18,-131.81 339.35,-126.19"/>
</a>
</g>
</g>
<!-- Node16&#45;&gt;Node8 -->
<g id="edge26_Node000016_Node000008" class="edge">
<title>Node16&#45;&gt;Node8</title>
<g id="a_edge26_Node000016_Node000008"><a xlink:title=" ">
<path fill="none" stroke="#63b8ff" d="M390.86,-158.68C396.97,-141.96 411.42,-102.39 419.77,-79.56"/>
<polygon fill="#63b8ff" stroke="#63b8ff" points="423.07,-80.72 423.21,-70.12 416.49,-78.32 423.07,-80.72"/>
</a>
</g>
</g>
<!-- Node16&#45;&gt;Node9 -->
<g id="edge28_Node000016_Node000009" class="edge">
<title>Node16&#45;&gt;Node9</title>
<g id="a_edge28_Node000016_Node000009"><a xlink:title=" ">
<path fill="none" stroke="#63b8ff" d="M412.49,-158.97C440.81,-150.27 487.62,-135.89 519.59,-126.07"/>
<polygon fill="#63b8ff" stroke="#63b8ff" points="520.87,-129.34 529.41,-123.06 518.82,-122.65 520.87,-129.34"/>
</a>
</g>
</g>
<!-- Node16&#45;&gt;Node13 -->
<g id="edge30_Node000016_Node000013" class="edge">
<title>Node16&#45;&gt;Node13</title>
<g id="a_edge30_Node000016_Node000013"><a xlink:title=" ">
<path fill="none" stroke="#63b8ff" d="M346.71,-161.72C301.6,-155.56 233.65,-143.15 218,-123 207.42,-109.37 218.35,-90.78 229.11,-77.82"/>
<polygon fill="#63b8ff" stroke="#63b8ff" points="231.85,-80 235.93,-70.22 226.64,-75.33 231.85,-80"/>
</a>
</g>
</g>
<!-- Node17 -->
<g id="Node000017" class="node">
<title>Node17</title>
<g id="a_Node000017"><a xlink:title=" ">
<polygon fill="#e0e0e0" stroke="#999999" points="279.5,-123 226.5,-123 226.5,-106 279.5,-106 279.5,-123"/>
<text text-anchor="middle" x="253" y="-112.6" font-family="Helvetica,sans-Serif" font-size="8.00">iostream</text>
</a>
</g>
</g>
<!-- Node16&#45;&gt;Node17 -->
<g id="edge29_Node000016_Node000017" class="edge">
<title>Node16&#45;&gt;Node17</title>
<g id="a_edge29_Node000016_Node000017"><a xlink:title=" ">
<path fill="none" stroke="#63b8ff" d="M368.08,-158.97C345.55,-150.46 308.62,-136.51 282.69,-126.72"/>
<polygon fill="#63b8ff" stroke="#63b8ff" points="283.59,-123.32 273,-123.06 281.12,-129.86 283.59,-123.32"/>
</a>
</g>
</g>
<!-- Node18&#45;&gt;Node13 -->
<g id="edge33_Node000018_Node000013" class="edge">
<title>Node18&#45;&gt;Node13</title>
<g id="a_edge33_Node000018_Node000013"><a xlink:title=" ">
<path fill="none" stroke="#63b8ff" d="M74.87,-158.7C89.15,-146.41 118.4,-122.27 146,-106 167.81,-93.14 194.11,-81.67 213.97,-73.74"/>
<polygon fill="#63b8ff" stroke="#63b8ff" points="215.4,-76.94 223.43,-70.03 212.85,-70.42 215.4,-76.94"/>
</a>
</g>
</g>
<!-- Node19 -->
<g id="Node000019" class="node">
<title>Node19</title>
<g id="a_Node000019"><a xlink:href="../../dc/d3c/bnode_8hpp.html" target="_top" xlink:title=" ">
<polygon fill="white" stroke="#666666" points="93.5,-123 32.5,-123 32.5,-106 93.5,-106 93.5,-123"/>
<text text-anchor="middle" x="63" y="-112.6" font-family="Helvetica,sans-Serif" font-size="8.00">bnode.hpp</text>
</a>
</g>
</g>
<!-- Node18&#45;&gt;Node19 -->
<g id="edge32_Node000018_Node000019" class="edge">
<title>Node18&#45;&gt;Node19</title>
<g id="a_edge32_Node000018_Node000019"><a xlink:title=" ">
<path fill="none" stroke="#63b8ff" d="M65.56,-158.97C65.16,-152.19 64.56,-141.97 64.04,-133.13"/>
<polygon fill="#63b8ff" stroke="#63b8ff" points="67.53,-132.83 63.44,-123.06 60.54,-133.24 67.53,-132.83"/>
</a>
</g>
</g>
</g>
</svg>
