<?xml version="1.0" encoding="UTF-8" standalone="no"?>
<!DOCTYPE svg PUBLIC "-//W3C//DTD SVG 1.1//EN"
 "http://www.w3.org/Graphics/SVG/1.1/DTD/svg11.dtd">
<!-- Generated by graphviz version 2.43.0 (0)
 -->
<!-- Title: homogeneous_pool.hpp Pages: 1 -->
<svg width="812pt" height="184pt"
 viewBox="0.00 0.00 811.50 184.00" xmlns="http://www.w3.org/2000/svg" xmlns:xlink="http://www.w3.org/1999/xlink">
<g id="graph0" class="graph" transform="scale(1 1) rotate(0) translate(4 180)">
<title>homogeneous_pool.hpp</title>
<!-- Node1 -->
<g id="Node000001" class="node">
<title>Node1</title>
<g id="a_Node000001"><a xlink:title=" ">
<polygon fill="#999999" stroke="#666666" points="353,-176 237,-176 237,-159 353,-159 353,-176"/>
<text text-anchor="middle" x="295" y="-165.6" font-family="Helvetica,sans-Serif" font-size="8.00">homogeneous_pool.hpp</text>
</a>
</g>
</g>
<!-- Node2 -->
<g id="Node000002" class="node">
<title>Node2</title>
<g id="a_Node000002"><a xlink:title=" ">
<polygon fill="#e0e0e0" stroke="#999999" points="56,-123 0,-123 0,-106 56,-106 56,-123"/>
<text text-anchor="middle" x="28" y="-112.6" font-family="Helvetica,sans-Serif" font-size="8.00">algorithm</text>
</a>
</g>
</g>
<!-- Node1&#45;&gt;Node2 -->
<g id="edge1_Node000001_Node000002" class="edge">
<title>Node1&#45;&gt;Node2</title>
<g id="a_edge1_Node000001_Node000002"><a xlink:title=" ">
<path fill="none" stroke="#63b8ff" d="M254.25,-158.96C210.32,-150.79 138.06,-137.25 66.38,-123.25"/>
<polygon fill="#63b8ff" stroke="#63b8ff" points="66.76,-119.76 56.27,-121.27 65.42,-126.63 66.76,-119.76"/>
</a>
</g>
</g>
<!-- Node3 -->
<g id="Node000003" class="node">
<title>Node3</title>
<g id="a_Node000003"><a xlink:title=" ">
<polygon fill="#e0e0e0" stroke="#999999" points="121.5,-123 74.5,-123 74.5,-106 121.5,-106 121.5,-123"/>
<text text-anchor="middle" x="98" y="-112.6" font-family="Helvetica,sans-Serif" font-size="8.00">cassert</text>
</a>
</g>
</g>
<!-- Node1&#45;&gt;Node3 -->
<g id="edge2_Node000001_Node000003" class="edge">
<title>Node1&#45;&gt;Node3</title>
<g id="a_edge2_Node000001_Node000003"><a xlink:title=" ">
<path fill="none" stroke="#63b8ff" d="M265.93,-158.97C230.13,-149.71 169.41,-133.99 131.63,-124.21"/>
<polygon fill="#63b8ff" stroke="#63b8ff" points="132.18,-120.73 121.62,-121.62 130.43,-127.51 132.18,-120.73"/>
</a>
</g>
</g>
<!-- Node4 -->
<g id="Node000004" class="node">
<title>Node4</title>
<g id="a_Node000004"><a xlink:title=" ">
<polygon fill="#e0e0e0" stroke="#999999" points="363.5,-17 316.5,-17 316.5,0 363.5,0 363.5,-17"/>
<text text-anchor="middle" x="340" y="-6.6" font-family="Helvetica,sans-Serif" font-size="8.00">cstddef</text>
</a>
</g>
</g>
<!-- Node1&#45;&gt;Node4 -->
<g id="edge3_Node000001_Node000004" class="edge">
<title>Node1&#45;&gt;Node4</title>
<g id="a_edge3_Node000001_Node000004"><a xlink:title=" ">
<path fill="none" stroke="#63b8ff" d="M236.65,-160.12C196.36,-152.86 152.75,-137.62 169,-106 196,-53.45 264.82,-27.82 306.46,-16.75"/>
<polygon fill="#63b8ff" stroke="#63b8ff" points="307.57,-20.08 316.41,-14.24 305.86,-13.29 307.57,-20.08"/>
</a>
</g>
</g>
<!-- Node5 -->
<g id="Node000005" class="node">
<title>Node5</title>
<g id="a_Node000005"><a xlink:title=" ">
<polygon fill="#e0e0e0" stroke="#999999" points="222,-123 178,-123 178,-106 222,-106 222,-123"/>
<text text-anchor="middle" x="200" y="-112.6" font-family="Helvetica,sans-Serif" font-size="8.00">cstdint</text>
</a>
</g>
</g>
<!-- Node1&#45;&gt;Node5 -->
<g id="edge4_Node000001_Node000005" class="edge">
<title>Node1&#45;&gt;Node5</title>
<g id="a_edge4_Node000001_Node000005"><a xlink:title=" ">
<path fill="none" stroke="#63b8ff" d="M280.98,-158.97C265.83,-150.84 241.42,-137.74 223.36,-128.04"/>
<polygon fill="#63b8ff" stroke="#63b8ff" points="224.54,-124.7 214.08,-123.06 221.23,-130.87 224.54,-124.7"/>
</a>
</g>
</g>
<!-- Node6 -->
<g id="Node000006" class="node">
<title>Node6</title>
<g id="a_Node000006"><a xlink:title=" ">
<polygon fill="#e0e0e0" stroke="#999999" points="290,-70 252,-70 252,-53 290,-53 290,-70"/>
<text text-anchor="middle" x="271" y="-59.6" font-family="Helvetica,sans-Serif" font-size="8.00">limits</text>
</a>
</g>
</g>
<!-- Node1&#45;&gt;Node6 -->
<g id="edge5_Node000001_Node000006" class="edge">
<title>Node1&#45;&gt;Node6</title>
<g id="a_edge5_Node000001_Node000006"><a xlink:title=" ">
<path fill="none" stroke="#63b8ff" d="M288.59,-158.77C282.2,-150.51 272.79,-136.74 269,-123 265.14,-109.03 266.02,-92.55 267.65,-80.32"/>
<polygon fill="#63b8ff" stroke="#63b8ff" points="271.16,-80.55 269.32,-70.12 264.25,-79.43 271.16,-80.55"/>
</a>
</g>
</g>
<!-- Node7 -->
<g id="Node000007" class="node">
<title>Node7</title>
<g id="a_Node000007"><a xlink:title=" ">
<polygon fill="#e0e0e0" stroke="#999999" points="312,-123 278,-123 278,-106 312,-106 312,-123"/>
<text text-anchor="middle" x="295" y="-112.6" font-family="Helvetica,sans-Serif" font-size="8.00">new</text>
</a>
</g>
</g>
<!-- Node1&#45;&gt;Node7 -->
<g id="edge6_Node000001_Node000007" class="edge">
<title>Node1&#45;&gt;Node7</title>
<g id="a_edge6_Node000001_Node000007"><a xlink:title=" ">
<path fill="none" stroke="#63b8ff" d="M295,-158.97C295,-152.19 295,-141.97 295,-133.13"/>
<polygon fill="#63b8ff" stroke="#63b8ff" points="298.5,-133.06 295,-123.06 291.5,-133.06 298.5,-133.06"/>
</a>
</g>
</g>
<!-- Node8 -->
<g id="Node000008" class="node">
<title>Node8</title>
<g id="a_Node000008"><a xlink:title=" ">
<polygon fill="#e0e0e0" stroke="#999999" points="369.5,-123 330.5,-123 330.5,-106 369.5,-106 369.5,-123"/>
<text text-anchor="middle" x="350" y="-112.6" font-family="Helvetica,sans-Serif" font-size="8.00">utility</text>
</a>
</g>
</g>
<!-- Node1&#45;&gt;Node8 -->
<g id="edge7_Node000001_Node000008" class="edge">
<title>Node1&#45;&gt;Node8</title>
<g id="a_edge7_Node000001_Node000008"><a xlink:title=" ">
<path fill="none" stroke="#63b8ff" d="M303.12,-158.97C311.32,-151.37 324.21,-139.41 334.4,-129.97"/>
<polygon fill="#63b8ff" stroke="#63b8ff" points="336.9,-132.42 341.85,-123.06 332.14,-127.29 336.9,-132.42"/>
</a>
</g>
</g>
<!-- Node9 -->
<g id="Node000009" class="node">
<title>Node9</title>
<g id="a_Node000009"><a xlink:title=" ">
<polygon fill="#e0e0e0" stroke="#999999" points="430,-123 388,-123 388,-106 430,-106 430,-123"/>
<text text-anchor="middle" x="409" y="-112.6" font-family="Helvetica,sans-Serif" font-size="8.00">vector</text>
</a>
</g>
</g>
<!-- Node1&#45;&gt;Node9 -->
<g id="edge8_Node000001_Node000009" class="edge">
<title>Node1&#45;&gt;Node9</title>
<g id="a_edge8_Node000001_Node000009"><a xlink:title=" ">
<path fill="none" stroke="#63b8ff" d="M311.82,-158.97C330.51,-150.61 360.93,-137 382.76,-127.24"/>
<polygon fill="#63b8ff" stroke="#63b8ff" points="384.41,-130.33 392.11,-123.06 381.55,-123.94 384.41,-130.33"/>
</a>
</g>
</g>
<!-- Node10 -->
<g id="Node000010" class="node">
<title>Node10</title>
<g id="a_Node000010"><a xlink:title=" ">
<polygon fill="#e0e0e0" stroke="#999999" points="537.5,-123 448.5,-123 448.5,-106 537.5,-106 537.5,-123"/>
<text text-anchor="middle" x="493" y="-112.6" font-family="Helvetica,sans-Serif" font-size="8.00">memory_resource</text>
</a>
</g>
</g>
<!-- Node1&#45;&gt;Node10 -->
<g id="edge9_Node000001_Node000010" class="edge">
<title>Node1&#45;&gt;Node10</title>
<g id="a_edge9_Node000001_Node000010"><a xlink:title=" ">
<path fill="none" stroke="#63b8ff" d="M324.22,-158.97C358.58,-150.12 415.77,-135.39 453.92,-125.57"/>
<polygon fill="#63b8ff" stroke="#63b8ff" points="454.85,-128.94 463.66,-123.06 453.11,-122.16 454.85,-128.94"/>
</a>
</g>
</g>
<!-- Node11 -->
<g id="Node000011" class="node">
<title>Node11</title>
<g id="a_Node000011"><a xlink:href="../../d7/d65/intrinsics_8hpp.html" target="_top" xlink:title=" ">
<polygon fill="white" stroke="#666666" points="803.5,-70 696.5,-70 696.5,-53 803.5,-53 803.5,-70"/>
<text text-anchor="middle" x="750" y="-59.6" font-family="Helvetica,sans-Serif" font-size="8.00">../../utils/intrinsics.hpp</text>
</a>
</g>
</g>
<!-- Node1&#45;&gt;Node11 -->
<g id="edge10_Node000001_Node000011" class="edge">
<title>Node1&#45;&gt;Node11</title>
<g id="a_edge10_Node000001_Node000011"><a xlink:title=" ">
<path fill="none" stroke="#63b8ff" d="M353.3,-166.98C425.44,-165.89 551.1,-158.37 652,-123 682.65,-112.26 713.85,-90.79 732.57,-76.54"/>
<polygon fill="#63b8ff" stroke="#63b8ff" points="734.97,-79.1 740.7,-70.19 730.67,-73.58 734.97,-79.1"/>
</a>
</g>
</g>
<!-- Node14 -->
<g id="Node000014" class="node">
<title>Node14</title>
<g id="a_Node000014"><a xlink:href="../../df/d93/utils_8hpp.html" target="_top" xlink:title=" ">
<polygon fill="white" stroke="#666666" points="642.5,-123 555.5,-123 555.5,-106 642.5,-106 642.5,-123"/>
<text text-anchor="middle" x="599" y="-112.6" font-family="Helvetica,sans-Serif" font-size="8.00">../../utils/utils.hpp</text>
</a>
</g>
</g>
<!-- Node1&#45;&gt;Node14 -->
<g id="edge14_Node000001_Node000014" class="edge">
<title>Node1&#45;&gt;Node14</title>
<g id="a_edge14_Node000001_Node000014"><a xlink:title=" ">
<path fill="none" stroke="#63b8ff" d="M339.86,-158.97C394.54,-149.8 486.88,-134.31 545.3,-124.51"/>
<polygon fill="#63b8ff" stroke="#63b8ff" points="546.16,-127.91 555.44,-122.81 545,-121.01 546.16,-127.91"/>
</a>
</g>
</g>
<!-- Node11&#45;&gt;Node4 -->
<g id="edge12_Node000011_Node000004" class="edge">
<title>Node11&#45;&gt;Node4</title>
<g id="a_edge12_Node000011_Node000004"><a xlink:title=" ">
<path fill="none" stroke="#63b8ff" d="M696.4,-53.83C610.72,-43.17 445.31,-22.6 374.04,-13.73"/>
<polygon fill="#63b8ff" stroke="#63b8ff" points="374.19,-10.23 363.83,-12.46 373.32,-17.17 374.19,-10.23"/>
</a>
</g>
</g>
<!-- Node12 -->
<g id="Node000012" class="node">
<title>Node12</title>
<g id="a_Node000012"><a xlink:title=" ">
<polygon fill="#e0e0e0" stroke="#999999" points="741,-17 697,-17 697,0 741,0 741,-17"/>
<text text-anchor="middle" x="719" y="-6.6" font-family="Helvetica,sans-Serif" font-size="8.00">atomic</text>
</a>
</g>
</g>
<!-- Node11&#45;&gt;Node12 -->
<g id="edge11_Node000011_Node000012" class="edge">
<title>Node11&#45;&gt;Node12</title>
<g id="a_edge11_Node000011_Node000012"><a xlink:title=" ">
<path fill="none" stroke="#63b8ff" d="M745.43,-52.97C741.08,-45.82 734.39,-34.82 728.83,-25.67"/>
<polygon fill="#63b8ff" stroke="#63b8ff" points="731.78,-23.78 723.59,-17.06 725.8,-27.42 731.78,-23.78"/>
</a>
</g>
</g>
<!-- Node13 -->
<g id="Node000013" class="node">
<title>Node13</title>
<g id="a_Node000013"><a xlink:title=" ">
<polygon fill="#e0e0e0" stroke="#999999" points="803,-17 759,-17 759,0 803,0 803,-17"/>
<text text-anchor="middle" x="781" y="-6.6" font-family="Helvetica,sans-Serif" font-size="8.00">cstdlib</text>
</a>
</g>
</g>
<!-- Node11&#45;&gt;Node13 -->
<g id="edge13_Node000011_Node000013" class="edge">
<title>Node11&#45;&gt;Node13</title>
<g id="a_edge13_Node000011_Node000013"><a xlink:title=" ">
<path fill="none" stroke="#63b8ff" d="M754.57,-52.97C758.92,-45.82 765.61,-34.82 771.17,-25.67"/>
<polygon fill="#63b8ff" stroke="#63b8ff" points="774.2,-27.42 776.41,-17.06 768.22,-23.78 774.2,-27.42"/>
</a>
</g>
</g>
<!-- Node14&#45;&gt;Node4 -->
<g id="edge17_Node000014_Node000004" class="edge">
<title>Node14&#45;&gt;Node4</title>
<g id="a_edge17_Node000014_Node000004"><a xlink:title=" ">
<path fill="none" stroke="#63b8ff" d="M555.28,-106.77C488.08,-96.26 366.33,-76.47 359,-70 346.87,-59.3 342.41,-40.97 340.8,-27.28"/>
<polygon fill="#63b8ff" stroke="#63b8ff" points="344.28,-26.84 340.02,-17.14 337.3,-27.38 344.28,-26.84"/>
</a>
</g>
</g>
<!-- Node14&#45;&gt;Node6 -->
<g id="edge19_Node000014_Node000006" class="edge">
<title>Node14&#45;&gt;Node6</title>
<g id="a_edge19_Node000014_Node000006"><a xlink:title=" ">
<path fill="none" stroke="#63b8ff" d="M555.44,-106.73C487.53,-96.17 358.19,-76.06 300.29,-67.05"/>
<polygon fill="#63b8ff" stroke="#63b8ff" points="300.76,-63.59 290.34,-65.51 299.69,-70.5 300.76,-63.59"/>
</a>
</g>
</g>
<!-- Node14&#45;&gt;Node11 -->
<g id="edge22_Node000014_Node000011" class="edge">
<title>Node14&#45;&gt;Node11</title>
<g id="a_edge22_Node000014_Node000011"><a xlink:title=" ">
<path fill="none" stroke="#63b8ff" d="M621.28,-105.97C646.82,-97.35 688.89,-83.14 717.94,-73.33"/>
<polygon fill="#63b8ff" stroke="#63b8ff" points="719.27,-76.57 727.63,-70.06 717.03,-69.94 719.27,-76.57"/>
</a>
</g>
</g>
<!-- Node15 -->
<g id="Node000015" class="node">
<title>Node15</title>
<g id="a_Node000015"><a xlink:title=" ">
<polygon fill="#e0e0e0" stroke="#999999" points="618,-70 580,-70 580,-53 618,-53 618,-70"/>
<text text-anchor="middle" x="599" y="-59.6" font-family="Helvetica,sans-Serif" font-size="8.00">array</text>
</a>
</g>
</g>
<!-- Node14&#45;&gt;Node15 -->
<g id="edge15_Node000014_Node000015" class="edge">
<title>Node14&#45;&gt;Node15</title>
<g id="a_edge15_Node000014_Node000015"><a xlink:title=" ">
<path fill="none" stroke="#63b8ff" d="M599,-105.97C599,-99.19 599,-88.97 599,-80.13"/>
<polygon fill="#63b8ff" stroke="#63b8ff" points="602.5,-80.06 599,-70.06 595.5,-80.06 602.5,-80.06"/>
</a>
</g>
</g>
<!-- Node16 -->
<g id="Node000016" class="node">
<title>Node16</title>
<g id="a_Node000016"><a xlink:title=" ">
<polygon fill="#e0e0e0" stroke="#999999" points="678,-70 636,-70 636,-53 678,-53 678,-70"/>
<text text-anchor="middle" x="657" y="-59.6" font-family="Helvetica,sans-Serif" font-size="8.00">cmath</text>
</a>
</g>
</g>
<!-- Node14&#45;&gt;Node16 -->
<g id="edge16_Node000014_Node000016" class="edge">
<title>Node14&#45;&gt;Node16</title>
<g id="a_edge16_Node000014_Node000016"><a xlink:title=" ">
<path fill="none" stroke="#63b8ff" d="M607.56,-105.97C616.3,-98.29 630.07,-86.18 640.87,-76.69"/>
<polygon fill="#63b8ff" stroke="#63b8ff" points="643.21,-79.29 648.41,-70.06 638.59,-74.03 643.21,-79.29"/>
</a>
</g>
</g>
<!-- Node17 -->
<g id="Node000017" class="node">
<title>Node17</title>
<g id="a_Node000017"><a xlink:title=" ">
<polygon fill="#e0e0e0" stroke="#999999" points="426,-70 368,-70 368,-53 426,-53 426,-70"/>
<text text-anchor="middle" x="397" y="-59.6" font-family="Helvetica,sans-Serif" font-size="8.00">functional</text>
</a>
</g>
</g>
<!-- Node14&#45;&gt;Node17 -->
<g id="edge18_Node000014_Node000017" class="edge">
<title>Node14&#45;&gt;Node17</title>
<g id="a_edge18_Node000014_Node000017"><a xlink:title=" ">
<path fill="none" stroke="#63b8ff" d="M569.19,-105.97C533.93,-97.07 475.12,-82.22 436.2,-72.4"/>
<polygon fill="#63b8ff" stroke="#63b8ff" points="436.82,-68.94 426.27,-69.89 435.11,-75.73 436.82,-68.94"/>
</a>
</g>
</g>
<!-- Node18 -->
<g id="Node000018" class="node">
<title>Node18</title>
<g id="a_Node000018"><a xlink:title=" ">
<polygon fill="#e0e0e0" stroke="#999999" points="484,-70 444,-70 444,-53 484,-53 484,-70"/>
<text text-anchor="middle" x="464" y="-59.6" font-family="Helvetica,sans-Serif" font-size="8.00">string</text>
</a>
</g>
</g>
<!-- Node14&#45;&gt;Node18 -->
<g id="edge20_Node000014_Node000018" class="edge">
<title>Node14&#45;&gt;Node18</title>
<g id="a_edge20_Node000014_Node000018"><a xlink:title=" ">
<path fill="none" stroke="#63b8ff" d="M579.08,-105.97C556.55,-97.46 519.62,-83.51 493.69,-73.72"/>
<polygon fill="#63b8ff" stroke="#63b8ff" points="494.59,-70.32 484,-70.06 492.12,-76.86 494.59,-70.32"/>
</a>
</g>
</g>
<!-- Node19 -->
<g id="Node000019" class="node">
<title>Node19</title>
<g id="a_Node000019"><a xlink:title=" ">
<polygon fill="#e0e0e0" stroke="#999999" points="561.5,-70 502.5,-70 502.5,-53 561.5,-53 561.5,-70"/>
<text text-anchor="middle" x="532" y="-59.6" font-family="Helvetica,sans-Serif" font-size="8.00">type_traits</text>
</a>
</g>
</g>
<!-- Node14&#45;&gt;Node19 -->
<g id="edge21_Node000014_Node000019" class="edge">
<title>Node14&#45;&gt;Node19</title>
<g id="a_edge21_Node000014_Node000019"><a xlink:title=" ">
<path fill="none" stroke="#63b8ff" d="M589.11,-105.97C578.82,-98.14 562.48,-85.7 549.91,-76.13"/>
<polygon fill="#63b8ff" stroke="#63b8ff" points="552,-73.33 541.93,-70.06 547.76,-78.9 552,-73.33"/>
</a>
</g>
</g>
</g>
</svg>
