<?xml version="1.0" encoding="UTF-8" standalone="no"?>
<!DOCTYPE svg PUBLIC "-//W3C//DTD SVG 1.1//EN"
 "http://www.w3.org/Graphics/SVG/1.1/DTD/svg11.dtd">
<!-- Generated by graphviz version 2.43.0 (0)
 -->
<!-- Title: homogeneous_pool.hpp Pages: 1 -->
<svg width="700pt" height="184pt"
 viewBox="0.00 0.00 700.00 184.00" xmlns="http://www.w3.org/2000/svg" xmlns:xlink="http://www.w3.org/1999/xlink">
<g id="graph0" class="graph" transform="scale(1 1) rotate(0) translate(4 180)">
<title>homogeneous_pool.hpp</title>
<!-- Node1 -->
<g id="Node000001" class="node">
<title>Node1</title>
<g id="a_Node000001"><a xlink:title=" ">
<polygon fill="#999999" stroke="#666666" points="292.5,-176 189.5,-176 189.5,-159 292.5,-159 292.5,-176"/>
<text text-anchor="middle" x="241" y="-165.6" font-family="Helvetica,sans-Serif" font-size="8.00">homogeneous_pool.hpp</text>
</a>
</g>
</g>
<!-- Node2 -->
<g id="Node000002" class="node">
<title>Node2</title>
<g id="a_Node000002"><a xlink:title=" ">
<polygon fill="#e0e0e0" stroke="#999999" points="50,-123 0,-123 0,-106 50,-106 50,-123"/>
<text text-anchor="middle" x="25" y="-112.6" font-family="Helvetica,sans-Serif" font-size="8.00">algorithm</text>
</a>
</g>
</g>
<!-- Node1&#45;&gt;Node2 -->
<g id="edge1_Node000001_Node000002" class="edge">
<title>Node1&#45;&gt;Node2</title>
<g id="a_edge1_Node000001_Node000002"><a xlink:title=" ">
<path fill="none" stroke="#63b8ff" d="M209.13,-158.97C169.32,-149.57 101.42,-133.54 60.14,-123.8"/>
<polygon fill="#63b8ff" stroke="#63b8ff" points="60.79,-120.35 50.25,-121.46 59.18,-127.17 60.79,-120.35"/>
</a>
</g>
</g>
<!-- Node3 -->
<g id="Node000003" class="node">
<title>Node3</title>
<g id="a_Node000003"><a xlink:title=" ">
<polygon fill="#e0e0e0" stroke="#999999" points="110,-123 68,-123 68,-106 110,-106 110,-123"/>
<text text-anchor="middle" x="89" y="-112.6" font-family="Helvetica,sans-Serif" font-size="8.00">cassert</text>
</a>
</g>
</g>
<!-- Node1&#45;&gt;Node3 -->
<g id="edge2_Node000001_Node000003" class="edge">
<title>Node1&#45;&gt;Node3</title>
<g id="a_edge2_Node000001_Node000003"><a xlink:title=" ">
<path fill="none" stroke="#63b8ff" d="M218.57,-158.97C192.42,-150.2 149.05,-135.65 119.77,-125.82"/>
<polygon fill="#63b8ff" stroke="#63b8ff" points="120.64,-122.43 110.05,-122.56 118.42,-129.06 120.64,-122.43"/>
</a>
</g>
</g>
<!-- Node4 -->
<g id="Node000004" class="node">
<title>Node4</title>
<g id="a_Node000004"><a xlink:title=" ">
<polygon fill="#e0e0e0" stroke="#999999" points="237,-17 195,-17 195,0 237,0 237,-17"/>
<text text-anchor="middle" x="216" y="-6.6" font-family="Helvetica,sans-Serif" font-size="8.00">cstddef</text>
</a>
</g>
</g>
<!-- Node1&#45;&gt;Node4 -->
<g id="edge3_Node000001_Node000004" class="edge">
<title>Node1&#45;&gt;Node4</title>
<g id="a_edge3_Node000001_Node000004"><a xlink:title=" ">
<path fill="none" stroke="#63b8ff" d="M209.32,-158.95C190.58,-152.67 168.35,-141.66 157,-123 136.04,-88.55 174.5,-45.86 198.63,-23.96"/>
<polygon fill="#63b8ff" stroke="#63b8ff" points="201.22,-26.34 206.45,-17.13 196.62,-21.07 201.22,-26.34"/>
</a>
</g>
</g>
<!-- Node5 -->
<g id="Node000005" class="node">
<title>Node5</title>
<g id="a_Node000005"><a xlink:title=" ">
<polygon fill="#e0e0e0" stroke="#999999" points="205.5,-123 166.5,-123 166.5,-106 205.5,-106 205.5,-123"/>
<text text-anchor="middle" x="186" y="-112.6" font-family="Helvetica,sans-Serif" font-size="8.00">cstdint</text>
</a>
</g>
</g>
<!-- Node1&#45;&gt;Node5 -->
<g id="edge4_Node000001_Node000005" class="edge">
<title>Node1&#45;&gt;Node5</title>
<g id="a_edge4_Node000001_Node000005"><a xlink:title=" ">
<path fill="none" stroke="#63b8ff" d="M232.88,-158.97C224.68,-151.37 211.79,-139.41 201.6,-129.97"/>
<polygon fill="#63b8ff" stroke="#63b8ff" points="203.86,-127.29 194.15,-123.06 199.1,-132.42 203.86,-127.29"/>
</a>
</g>
</g>
<!-- Node6 -->
<g id="Node000006" class="node">
<title>Node6</title>
<g id="a_Node000006"><a xlink:title=" ">
<polygon fill="#e0e0e0" stroke="#999999" points="258,-123 224,-123 224,-106 258,-106 258,-123"/>
<text text-anchor="middle" x="241" y="-112.6" font-family="Helvetica,sans-Serif" font-size="8.00">utility</text>
</a>
</g>
</g>
<!-- Node1&#45;&gt;Node6 -->
<g id="edge5_Node000001_Node000006" class="edge">
<title>Node1&#45;&gt;Node6</title>
<g id="a_edge5_Node000001_Node000006"><a xlink:title=" ">
<path fill="none" stroke="#63b8ff" d="M241,-158.97C241,-152.19 241,-141.97 241,-133.13"/>
<polygon fill="#63b8ff" stroke="#63b8ff" points="244.5,-133.06 241,-123.06 237.5,-133.06 244.5,-133.06"/>
</a>
</g>
</g>
<!-- Node7 -->
<g id="Node000007" class="node">
<title>Node7</title>
<g id="a_Node000007"><a xlink:title=" ">
<polygon fill="#e0e0e0" stroke="#999999" points="314,-123 276,-123 276,-106 314,-106 314,-123"/>
<text text-anchor="middle" x="295" y="-112.6" font-family="Helvetica,sans-Serif" font-size="8.00">vector</text>
</a>
</g>
</g>
<!-- Node1&#45;&gt;Node7 -->
<g id="edge6_Node000001_Node000007" class="edge">
<title>Node1&#45;&gt;Node7</title>
<g id="a_edge6_Node000001_Node000007"><a xlink:title=" ">
<path fill="none" stroke="#63b8ff" d="M248.97,-158.97C257.02,-151.37 269.68,-139.41 279.68,-129.97"/>
<polygon fill="#63b8ff" stroke="#63b8ff" points="282.13,-132.47 287,-123.06 277.33,-127.38 282.13,-132.47"/>
</a>
</g>
</g>
<!-- Node8 -->
<g id="Node000008" class="node">
<title>Node8</title>
<g id="a_Node000008"><a xlink:title=" ">
<polygon fill="#e0e0e0" stroke="#999999" points="414,-123 332,-123 332,-106 414,-106 414,-123"/>
<text text-anchor="middle" x="373" y="-112.6" font-family="Helvetica,sans-Serif" font-size="8.00">memory_resource</text>
</a>
</g>
</g>
<!-- Node1&#45;&gt;Node8 -->
<g id="edge7_Node000001_Node000008" class="edge">
<title>Node1&#45;&gt;Node8</title>
<g id="a_edge7_Node000001_Node000008"><a xlink:title=" ">
<path fill="none" stroke="#63b8ff" d="M260.48,-158.97C282.51,-150.46 318.61,-136.51 343.97,-126.72"/>
<polygon fill="#63b8ff" stroke="#63b8ff" points="345.38,-129.92 353.44,-123.06 342.85,-123.4 345.38,-129.92"/>
</a>
</g>
</g>
<!-- Node9 -->
<g id="Node000009" class="node">
<title>Node9</title>
<g id="a_Node000009"><a xlink:href="../../d7/d65/intrinsics_8hpp.html" target="_top" xlink:title=" ">
<polygon fill="white" stroke="#666666" points="691,-70 599,-70 599,-53 691,-53 691,-70"/>
<text text-anchor="middle" x="645" y="-59.6" font-family="Helvetica,sans-Serif" font-size="8.00">../../utils/intrinsics.hpp</text>
</a>
</g>
</g>
<!-- Node1&#45;&gt;Node9 -->
<g id="edge8_Node000001_Node000009" class="edge">
<title>Node1&#45;&gt;Node9</title>
<g id="a_edge8_Node000001_Node000009"><a xlink:title=" ">
<path fill="none" stroke="#63b8ff" d="M292.66,-162.69C348.67,-157.57 440.21,-146.25 516,-123 555.25,-110.96 597.83,-89.1 622.92,-75.22"/>
<polygon fill="#63b8ff" stroke="#63b8ff" points="624.94,-78.1 631.94,-70.15 621.51,-72 624.94,-78.1"/>
</a>
</g>
</g>
<!-- Node12 -->
<g id="Node000012" class="node">
<title>Node12</title>
<g id="a_Node000012"><a xlink:href="../../df/d93/utils_8hpp.html" target="_top" xlink:title=" ">
<polygon fill="white" stroke="#666666" points="507.5,-123 432.5,-123 432.5,-106 507.5,-106 507.5,-123"/>
<text text-anchor="middle" x="470" y="-112.6" font-family="Helvetica,sans-Serif" font-size="8.00">../../utils/utils.hpp</text>
</a>
</g>
</g>
<!-- Node1&#45;&gt;Node12 -->
<g id="edge12_Node000001_Node000012" class="edge">
<title>Node1&#45;&gt;Node12</title>
<g id="a_edge12_Node000001_Node000012"><a xlink:title=" ">
<path fill="none" stroke="#63b8ff" d="M274.79,-158.97C314.96,-150.03 382.09,-135.08 426.2,-125.25"/>
<polygon fill="#63b8ff" stroke="#63b8ff" points="427.07,-128.65 436.07,-123.06 425.55,-121.81 427.07,-128.65"/>
</a>
</g>
</g>
<!-- Node9&#45;&gt;Node4 -->
<g id="edge10_Node000009_Node000004" class="edge">
<title>Node9&#45;&gt;Node4</title>
<g id="a_edge10_Node000009_Node000004"><a xlink:title=" ">
<path fill="none" stroke="#63b8ff" d="M598.8,-54.13C595.82,-53.74 592.87,-53.36 590,-53 463.1,-36.97 311.68,-20.03 247.37,-12.94"/>
<polygon fill="#63b8ff" stroke="#63b8ff" points="247.43,-9.42 237.11,-11.81 246.66,-16.38 247.43,-9.42"/>
</a>
</g>
</g>
<!-- Node10 -->
<g id="Node000010" class="node">
<title>Node10</title>
<g id="a_Node000010"><a xlink:title=" ">
<polygon fill="#e0e0e0" stroke="#999999" points="636,-17 596,-17 596,0 636,0 636,-17"/>
<text text-anchor="middle" x="616" y="-6.6" font-family="Helvetica,sans-Serif" font-size="8.00">atomic</text>
</a>
</g>
</g>
<!-- Node9&#45;&gt;Node10 -->
<g id="edge9_Node000009_Node000010" class="edge">
<title>Node9&#45;&gt;Node10</title>
<g id="a_edge9_Node000009_Node000010"><a xlink:title=" ">
<path fill="none" stroke="#63b8ff" d="M640.72,-52.97C636.69,-45.89 630.53,-35.05 625.36,-25.96"/>
<polygon fill="#63b8ff" stroke="#63b8ff" points="628.28,-24.02 620.3,-17.06 622.2,-27.48 628.28,-24.02"/>
</a>
</g>
</g>
<!-- Node11 -->
<g id="Node000011" class="node">
<title>Node11</title>
<g id="a_Node000011"><a xlink:title=" ">
<polygon fill="#e0e0e0" stroke="#999999" points="692,-17 654,-17 654,0 692,0 692,-17"/>
<text text-anchor="middle" x="673" y="-6.6" font-family="Helvetica,sans-Serif" font-size="8.00">cstdlib</text>
</a>
</g>
</g>
<!-- Node9&#45;&gt;Node11 -->
<g id="edge11_Node000009_Node000011" class="edge">
<title>Node9&#45;&gt;Node11</title>
<g id="a_edge11_Node000009_Node000011"><a xlink:title=" ">
<path fill="none" stroke="#63b8ff" d="M649.13,-52.97C653.02,-45.89 658.97,-35.05 663.96,-25.96"/>
<polygon fill="#63b8ff" stroke="#63b8ff" points="667.11,-27.51 668.85,-17.06 660.97,-24.14 667.11,-27.51"/>
</a>
</g>
</g>
<!-- Node12&#45;&gt;Node4 -->
<g id="edge15_Node000012_Node000004" class="edge">
<title>Node12&#45;&gt;Node4</title>
<g id="a_edge15_Node000012_Node000004"><a xlink:title=" ">
<path fill="none" stroke="#63b8ff" d="M432.45,-107.06C367.02,-95.76 238.7,-73.28 235,-70 222.89,-59.28 218.43,-40.95 216.81,-27.26"/>
<polygon fill="#63b8ff" stroke="#63b8ff" points="220.29,-26.83 216.03,-17.13 213.31,-27.37 220.29,-26.83"/>
</a>
</g>
</g>
<!-- Node12&#45;&gt;Node9 -->
<g id="edge20_Node000012_Node000009" class="edge">
<title>Node12&#45;&gt;Node9</title>
<g id="a_edge20_Node000012_Node000009"><a xlink:title=" ">
<path fill="none" stroke="#63b8ff" d="M495.82,-105.97C525.81,-97.24 575.45,-82.77 609.16,-72.94"/>
<polygon fill="#63b8ff" stroke="#63b8ff" points="610.45,-76.21 619.07,-70.06 608.49,-69.49 610.45,-76.21"/>
</a>
</g>
</g>
<!-- Node13 -->
<g id="Node000013" class="node">
<title>Node13</title>
<g id="a_Node000013"><a xlink:title=" ">
<polygon fill="#e0e0e0" stroke="#999999" points="580.5,-70 545.5,-70 545.5,-53 580.5,-53 580.5,-70"/>
<text text-anchor="middle" x="563" y="-59.6" font-family="Helvetica,sans-Serif" font-size="8.00">array</text>
</a>
</g>
</g>
<!-- Node12&#45;&gt;Node13 -->
<g id="edge13_Node000012_Node000013" class="edge">
<title>Node12&#45;&gt;Node13</title>
<g id="a_edge13_Node000012_Node000013"><a xlink:title=" ">
<path fill="none" stroke="#63b8ff" d="M483.72,-105.97C498.56,-97.84 522.45,-84.74 540.13,-75.04"/>
<polygon fill="#63b8ff" stroke="#63b8ff" points="542.14,-77.93 549.22,-70.06 538.77,-71.8 542.14,-77.93"/>
</a>
</g>
</g>
<!-- Node14 -->
<g id="Node000014" class="node">
<title>Node14</title>
<g id="a_Node000014"><a xlink:title=" ">
<polygon fill="#e0e0e0" stroke="#999999" points="282,-70 244,-70 244,-53 282,-53 282,-70"/>
<text text-anchor="middle" x="263" y="-59.6" font-family="Helvetica,sans-Serif" font-size="8.00">cmath</text>
</a>
</g>
</g>
<!-- Node12&#45;&gt;Node14 -->
<g id="edge14_Node000012_Node000014" class="edge">
<title>Node12&#45;&gt;Node14</title>
<g id="a_edge14_Node000012_Node000014"><a xlink:title=" ">
<path fill="none" stroke="#63b8ff" d="M437.93,-105.95C404.03,-97.91 348.75,-84.65 292.1,-70.24"/>
<polygon fill="#63b8ff" stroke="#63b8ff" points="292.82,-66.81 282.26,-67.72 291.09,-73.59 292.82,-66.81"/>
</a>
</g>
</g>
<!-- Node15 -->
<g id="Node000015" class="node">
<title>Node15</title>
<g id="a_Node000015"><a xlink:title=" ">
<polygon fill="#e0e0e0" stroke="#999999" points="350,-70 300,-70 300,-53 350,-53 350,-70"/>
<text text-anchor="middle" x="325" y="-59.6" font-family="Helvetica,sans-Serif" font-size="8.00">functional</text>
</a>
</g>
</g>
<!-- Node12&#45;&gt;Node15 -->
<g id="edge16_Node000012_Node000015" class="edge">
<title>Node12&#45;&gt;Node15</title>
<g id="a_edge16_Node000012_Node000015"><a xlink:title=" ">
<path fill="none" stroke="#63b8ff" d="M448.6,-105.97C424.19,-97.39 384.04,-83.27 356.15,-73.46"/>
<polygon fill="#63b8ff" stroke="#63b8ff" points="357.08,-70.07 346.48,-70.06 354.76,-76.68 357.08,-70.07"/>
</a>
</g>
</g>
<!-- Node16 -->
<g id="Node000016" class="node">
<title>Node16</title>
<g id="a_Node000016"><a xlink:title=" ">
<polygon fill="#e0e0e0" stroke="#999999" points="402,-70 368,-70 368,-53 402,-53 402,-70"/>
<text text-anchor="middle" x="385" y="-59.6" font-family="Helvetica,sans-Serif" font-size="8.00">limits</text>
</a>
</g>
</g>
<!-- Node12&#45;&gt;Node16 -->
<g id="edge17_Node000012_Node000016" class="edge">
<title>Node12&#45;&gt;Node16</title>
<g id="a_edge17_Node000012_Node000016"><a xlink:title=" ">
<path fill="none" stroke="#63b8ff" d="M457.46,-105.97C444.02,-97.91 422.46,-84.98 406.35,-75.31"/>
<polygon fill="#63b8ff" stroke="#63b8ff" points="407.97,-72.2 397.59,-70.06 404.37,-78.2 407.97,-72.2"/>
</a>
</g>
</g>
<!-- Node17 -->
<g id="Node000017" class="node">
<title>Node17</title>
<g id="a_Node000017"><a xlink:title=" ">
<polygon fill="#e0e0e0" stroke="#999999" points="456,-70 420,-70 420,-53 456,-53 456,-70"/>
<text text-anchor="middle" x="438" y="-59.6" font-family="Helvetica,sans-Serif" font-size="8.00">string</text>
</a>
</g>
</g>
<!-- Node12&#45;&gt;Node17 -->
<g id="edge18_Node000012_Node000017" class="edge">
<title>Node12&#45;&gt;Node17</title>
<g id="a_edge18_Node000012_Node000017"><a xlink:title=" ">
<path fill="none" stroke="#63b8ff" d="M465.28,-105.97C460.79,-98.82 453.89,-87.82 448.15,-78.67"/>
<polygon fill="#63b8ff" stroke="#63b8ff" points="451.02,-76.67 442.74,-70.06 445.09,-80.39 451.02,-76.67"/>
</a>
</g>
</g>
<!-- Node18 -->
<g id="Node000018" class="node">
<title>Node18</title>
<g id="a_Node000018"><a xlink:title=" ">
<polygon fill="#e0e0e0" stroke="#999999" points="527.5,-70 474.5,-70 474.5,-53 527.5,-53 527.5,-70"/>
<text text-anchor="middle" x="501" y="-59.6" font-family="Helvetica,sans-Serif" font-size="8.00">type_traits</text>
</a>
</g>
</g>
<!-- Node12&#45;&gt;Node18 -->
<g id="edge19_Node000012_Node000018" class="edge">
<title>Node12&#45;&gt;Node18</title>
<g id="a_edge19_Node000012_Node000018"><a xlink:title=" ">
<path fill="none" stroke="#63b8ff" d="M474.57,-105.97C478.92,-98.82 485.61,-87.82 491.17,-78.67"/>
<polygon fill="#63b8ff" stroke="#63b8ff" points="494.2,-80.42 496.41,-70.06 488.22,-76.78 494.2,-80.42"/>
</a>
</g>
</g>
</g>
</svg>
