<?xml version="1.0" encoding="UTF-8" standalone="no"?>
<!DOCTYPE svg PUBLIC "-//W3C//DTD SVG 1.1//EN"
 "http://www.w3.org/Graphics/SVG/1.1/DTD/svg11.dtd">
<!-- Generated by graphviz version 2.43.0 (0)
 -->
<!-- Title: homogeneous_pool.hpp Pages: 1 -->
<svg width="751pt" height="184pt"
 viewBox="0.00 0.00 751.00 184.00" xmlns="http://www.w3.org/2000/svg" xmlns:xlink="http://www.w3.org/1999/xlink">
<g id="graph0" class="graph" transform="scale(1 1) rotate(0) translate(4 180)">
<title>homogeneous_pool.hpp</title>
<!-- Node1 -->
<g id="Node000001" class="node">
<title>Node1</title>
<g id="a_Node000001"><a xlink:title=" ">
<polygon fill="#999999" stroke="#666666" points="329.5,-176 226.5,-176 226.5,-159 329.5,-159 329.5,-176"/>
<text text-anchor="middle" x="278" y="-165.6" font-family="Helvetica,sans-Serif" font-size="8.00">homogeneous_pool.hpp</text>
</a>
</g>
</g>
<!-- Node2 -->
<g id="Node000002" class="node">
<title>Node2</title>
<g id="a_Node000002"><a xlink:title=" ">
<polygon fill="#e0e0e0" stroke="#999999" points="50,-123 0,-123 0,-106 50,-106 50,-123"/>
<text text-anchor="middle" x="25" y="-112.6" font-family="Helvetica,sans-Serif" font-size="8.00">algorithm</text>
</a>
</g>
</g>
<!-- Node1&#45;&gt;Node2 -->
<g id="edge1_Node000001_Node000002" class="edge">
<title>Node1&#45;&gt;Node2</title>
<g id="a_edge1_Node000001_Node000002"><a xlink:title=" ">
<path fill="none" stroke="#63b8ff" d="M238.78,-158.97C196.98,-150.88 128.58,-137.49 60.31,-123.24"/>
<polygon fill="#63b8ff" stroke="#63b8ff" points="60.74,-119.75 50.24,-121.13 59.31,-126.6 60.74,-119.75"/>
</a>
</g>
</g>
<!-- Node3 -->
<g id="Node000003" class="node">
<title>Node3</title>
<g id="a_Node000003"><a xlink:title=" ">
<polygon fill="#e0e0e0" stroke="#999999" points="110,-123 68,-123 68,-106 110,-106 110,-123"/>
<text text-anchor="middle" x="89" y="-112.6" font-family="Helvetica,sans-Serif" font-size="8.00">cassert</text>
</a>
</g>
</g>
<!-- Node1&#45;&gt;Node3 -->
<g id="edge2_Node000001_Node000003" class="edge">
<title>Node1&#45;&gt;Node3</title>
<g id="a_edge2_Node000001_Node000003"><a xlink:title=" ">
<path fill="none" stroke="#63b8ff" d="M250.11,-158.97C215.44,-149.62 156.42,-133.69 120.26,-123.93"/>
<polygon fill="#63b8ff" stroke="#63b8ff" points="120.83,-120.46 110.26,-121.24 119,-127.22 120.83,-120.46"/>
</a>
</g>
</g>
<!-- Node4 -->
<g id="Node000004" class="node">
<title>Node4</title>
<g id="a_Node000004"><a xlink:title=" ">
<polygon fill="#e0e0e0" stroke="#999999" points="340,-17 298,-17 298,0 340,0 340,-17"/>
<text text-anchor="middle" x="319" y="-6.6" font-family="Helvetica,sans-Serif" font-size="8.00">cstddef</text>
</a>
</g>
</g>
<!-- Node1&#45;&gt;Node4 -->
<g id="edge3_Node000001_Node000004" class="edge">
<title>Node1&#45;&gt;Node4</title>
<g id="a_edge3_Node000001_Node000004"><a xlink:title=" ">
<path fill="none" stroke="#63b8ff" d="M226.39,-160.46C186.66,-153.26 141,-137.91 157,-106 182.59,-54.96 248.51,-28.67 287.92,-17.1"/>
<polygon fill="#63b8ff" stroke="#63b8ff" points="289.12,-20.41 297.81,-14.35 287.24,-13.66 289.12,-20.41"/>
</a>
</g>
</g>
<!-- Node5 -->
<g id="Node000005" class="node">
<title>Node5</title>
<g id="a_Node000005"><a xlink:title=" ">
<polygon fill="#e0e0e0" stroke="#999999" points="205.5,-123 166.5,-123 166.5,-106 205.5,-106 205.5,-123"/>
<text text-anchor="middle" x="186" y="-112.6" font-family="Helvetica,sans-Serif" font-size="8.00">cstdint</text>
</a>
</g>
</g>
<!-- Node1&#45;&gt;Node5 -->
<g id="edge4_Node000001_Node000005" class="edge">
<title>Node1&#45;&gt;Node5</title>
<g id="a_edge4_Node000001_Node000005"><a xlink:title=" ">
<path fill="none" stroke="#63b8ff" d="M264.43,-158.97C249.75,-150.84 226.11,-137.74 208.62,-128.04"/>
<polygon fill="#63b8ff" stroke="#63b8ff" points="210.07,-124.84 199.63,-123.06 206.68,-130.97 210.07,-124.84"/>
</a>
</g>
</g>
<!-- Node6 -->
<g id="Node000006" class="node">
<title>Node6</title>
<g id="a_Node000006"><a xlink:title=" ">
<polygon fill="#e0e0e0" stroke="#999999" points="271,-70 237,-70 237,-53 271,-53 271,-70"/>
<text text-anchor="middle" x="254" y="-59.6" font-family="Helvetica,sans-Serif" font-size="8.00">limits</text>
</a>
</g>
</g>
<!-- Node1&#45;&gt;Node6 -->
<g id="edge5_Node000001_Node000006" class="edge">
<title>Node1&#45;&gt;Node6</title>
<g id="a_edge5_Node000001_Node000006"><a xlink:title=" ">
<path fill="none" stroke="#63b8ff" d="M271.84,-158.73C265.68,-150.43 256.64,-136.63 253,-123 249.26,-109 249.84,-92.53 251.17,-80.31"/>
<polygon fill="#63b8ff" stroke="#63b8ff" points="254.68,-80.49 252.56,-70.11 247.74,-79.55 254.68,-80.49"/>
</a>
</g>
</g>
<!-- Node7 -->
<g id="Node000007" class="node">
<title>Node7</title>
<g id="a_Node000007"><a xlink:title=" ">
<polygon fill="#e0e0e0" stroke="#999999" points="294,-123 262,-123 262,-106 294,-106 294,-123"/>
<text text-anchor="middle" x="278" y="-112.6" font-family="Helvetica,sans-Serif" font-size="8.00">new</text>
</a>
</g>
</g>
<!-- Node1&#45;&gt;Node7 -->
<g id="edge6_Node000001_Node000007" class="edge">
<title>Node1&#45;&gt;Node7</title>
<g id="a_edge6_Node000001_Node000007"><a xlink:title=" ">
<path fill="none" stroke="#63b8ff" d="M278,-158.97C278,-152.19 278,-141.97 278,-133.13"/>
<polygon fill="#63b8ff" stroke="#63b8ff" points="281.5,-133.06 278,-123.06 274.5,-133.06 281.5,-133.06"/>
</a>
</g>
</g>
<!-- Node8 -->
<g id="Node000008" class="node">
<title>Node8</title>
<g id="a_Node000008"><a xlink:title=" ">
<polygon fill="#e0e0e0" stroke="#999999" points="346,-123 312,-123 312,-106 346,-106 346,-123"/>
<text text-anchor="middle" x="329" y="-112.6" font-family="Helvetica,sans-Serif" font-size="8.00">utility</text>
</a>
</g>
</g>
<!-- Node1&#45;&gt;Node8 -->
<g id="edge7_Node000001_Node000008" class="edge">
<title>Node1&#45;&gt;Node8</title>
<g id="a_edge7_Node000001_Node000008"><a xlink:title=" ">
<path fill="none" stroke="#63b8ff" d="M285.53,-158.97C293.06,-151.44 304.85,-139.65 314.25,-130.25"/>
<polygon fill="#63b8ff" stroke="#63b8ff" points="316.85,-132.6 321.44,-123.06 311.9,-127.65 316.85,-132.6"/>
</a>
</g>
</g>
<!-- Node9 -->
<g id="Node000009" class="node">
<title>Node9</title>
<g id="a_Node000009"><a xlink:title=" ">
<polygon fill="#e0e0e0" stroke="#999999" points="402,-123 364,-123 364,-106 402,-106 402,-123"/>
<text text-anchor="middle" x="383" y="-112.6" font-family="Helvetica,sans-Serif" font-size="8.00">vector</text>
</a>
</g>
</g>
<!-- Node1&#45;&gt;Node9 -->
<g id="edge8_Node000001_Node000009" class="edge">
<title>Node1&#45;&gt;Node9</title>
<g id="a_edge8_Node000001_Node000009"><a xlink:title=" ">
<path fill="none" stroke="#63b8ff" d="M293.49,-158.97C310.55,-150.69 338.22,-137.25 358.28,-127.5"/>
<polygon fill="#63b8ff" stroke="#63b8ff" points="359.98,-130.57 367.44,-123.06 356.92,-124.28 359.98,-130.57"/>
</a>
</g>
</g>
<!-- Node10 -->
<g id="Node000010" class="node">
<title>Node10</title>
<g id="a_Node000010"><a xlink:title=" ">
<polygon fill="#e0e0e0" stroke="#999999" points="502,-123 420,-123 420,-106 502,-106 502,-123"/>
<text text-anchor="middle" x="461" y="-112.6" font-family="Helvetica,sans-Serif" font-size="8.00">memory_resource</text>
</a>
</g>
</g>
<!-- Node1&#45;&gt;Node10 -->
<g id="edge9_Node000001_Node000010" class="edge">
<title>Node1&#45;&gt;Node10</title>
<g id="a_edge9_Node000001_Node000010"><a xlink:title=" ">
<path fill="none" stroke="#63b8ff" d="M305,-158.97C336.49,-150.2 388.72,-135.64 423.98,-125.82"/>
<polygon fill="#63b8ff" stroke="#63b8ff" points="425.19,-129.11 433.89,-123.06 423.31,-122.37 425.19,-129.11"/>
</a>
</g>
</g>
<!-- Node11 -->
<g id="Node000011" class="node">
<title>Node11</title>
<g id="a_Node000011"><a xlink:href="../../d7/d65/intrinsics_8hpp.html" target="_top" xlink:title=" ">
<polygon fill="white" stroke="#666666" points="742,-70 650,-70 650,-53 742,-53 742,-70"/>
<text text-anchor="middle" x="696" y="-59.6" font-family="Helvetica,sans-Serif" font-size="8.00">../../utils/intrinsics.hpp</text>
</a>
</g>
</g>
<!-- Node1&#45;&gt;Node11 -->
<g id="edge10_Node000001_Node000011" class="edge">
<title>Node1&#45;&gt;Node11</title>
<g id="a_edge10_Node000001_Node000011"><a xlink:title=" ">
<path fill="none" stroke="#63b8ff" d="M329.58,-166.74C395.53,-165.47 512.25,-157.86 605,-123 633.43,-112.32 661.89,-91.33 679.22,-77.11"/>
<polygon fill="#63b8ff" stroke="#63b8ff" points="681.82,-79.5 687.22,-70.38 677.31,-74.15 681.82,-79.5"/>
</a>
</g>
</g>
<!-- Node14 -->
<g id="Node000014" class="node">
<title>Node14</title>
<g id="a_Node000014"><a xlink:href="../../df/d93/utils_8hpp.html" target="_top" xlink:title=" ">
<polygon fill="white" stroke="#666666" points="595.5,-123 520.5,-123 520.5,-106 595.5,-106 595.5,-123"/>
<text text-anchor="middle" x="558" y="-112.6" font-family="Helvetica,sans-Serif" font-size="8.00">../../utils/utils.hpp</text>
</a>
</g>
</g>
<!-- Node1&#45;&gt;Node14 -->
<g id="edge14_Node000001_Node000014" class="edge">
<title>Node1&#45;&gt;Node14</title>
<g id="a_edge14_Node000001_Node000014"><a xlink:title=" ">
<path fill="none" stroke="#63b8ff" d="M319.31,-158.97C370.19,-149.71 456.45,-134 510.15,-124.22"/>
<polygon fill="#63b8ff" stroke="#63b8ff" points="510.9,-127.64 520.11,-122.4 509.65,-120.75 510.9,-127.64"/>
</a>
</g>
</g>
<!-- Node11&#45;&gt;Node4 -->
<g id="edge12_Node000011_Node000004" class="edge">
<title>Node11&#45;&gt;Node4</title>
<g id="a_edge12_Node000011_Node000004"><a xlink:title=" ">
<path fill="none" stroke="#63b8ff" d="M649.79,-54.19C646.81,-53.79 643.86,-53.39 641,-53 534.4,-38.53 407.93,-21.48 350.35,-13.72"/>
<polygon fill="#63b8ff" stroke="#63b8ff" points="350.48,-10.21 340.1,-12.34 349.54,-17.14 350.48,-10.21"/>
</a>
</g>
</g>
<!-- Node12 -->
<g id="Node000012" class="node">
<title>Node12</title>
<g id="a_Node000012"><a xlink:title=" ">
<polygon fill="#e0e0e0" stroke="#999999" points="687,-17 647,-17 647,0 687,0 687,-17"/>
<text text-anchor="middle" x="667" y="-6.6" font-family="Helvetica,sans-Serif" font-size="8.00">atomic</text>
</a>
</g>
</g>
<!-- Node11&#45;&gt;Node12 -->
<g id="edge11_Node000011_Node000012" class="edge">
<title>Node11&#45;&gt;Node12</title>
<g id="a_edge11_Node000011_Node000012"><a xlink:title=" ">
<path fill="none" stroke="#63b8ff" d="M691.72,-52.97C687.69,-45.89 681.53,-35.05 676.36,-25.96"/>
<polygon fill="#63b8ff" stroke="#63b8ff" points="679.28,-24.02 671.3,-17.06 673.2,-27.48 679.28,-24.02"/>
</a>
</g>
</g>
<!-- Node13 -->
<g id="Node000013" class="node">
<title>Node13</title>
<g id="a_Node000013"><a xlink:title=" ">
<polygon fill="#e0e0e0" stroke="#999999" points="743,-17 705,-17 705,0 743,0 743,-17"/>
<text text-anchor="middle" x="724" y="-6.6" font-family="Helvetica,sans-Serif" font-size="8.00">cstdlib</text>
</a>
</g>
</g>
<!-- Node11&#45;&gt;Node13 -->
<g id="edge13_Node000011_Node000013" class="edge">
<title>Node11&#45;&gt;Node13</title>
<g id="a_edge13_Node000011_Node000013"><a xlink:title=" ">
<path fill="none" stroke="#63b8ff" d="M700.13,-52.97C704.02,-45.89 709.97,-35.05 714.96,-25.96"/>
<polygon fill="#63b8ff" stroke="#63b8ff" points="718.11,-27.51 719.85,-17.06 711.97,-24.14 718.11,-27.51"/>
</a>
</g>
</g>
<!-- Node14&#45;&gt;Node4 -->
<g id="edge17_Node000014_Node000004" class="edge">
<title>Node14&#45;&gt;Node4</title>
<g id="a_edge17_Node000014_Node000004"><a xlink:title=" ">
<path fill="none" stroke="#63b8ff" d="M520.15,-107.05C459.04,-96.49 344.78,-76.07 338,-70 325.96,-59.21 321.48,-40.88 319.85,-27.22"/>
<polygon fill="#63b8ff" stroke="#63b8ff" points="323.33,-26.81 319.05,-17.11 316.35,-27.36 323.33,-26.81"/>
</a>
</g>
</g>
<!-- Node14&#45;&gt;Node6 -->
<g id="edge19_Node000014_Node000006" class="edge">
<title>Node14&#45;&gt;Node6</title>
<g id="a_edge19_Node000014_Node000006"><a xlink:title=" ">
<path fill="none" stroke="#63b8ff" d="M520.42,-107.2C458.32,-96.78 335.73,-76.21 281.23,-67.07"/>
<polygon fill="#63b8ff" stroke="#63b8ff" points="281.71,-63.6 271.27,-65.4 280.55,-70.5 281.71,-63.6"/>
</a>
</g>
</g>
<!-- Node14&#45;&gt;Node11 -->
<g id="edge22_Node000014_Node000011" class="edge">
<title>Node14&#45;&gt;Node11</title>
<g id="a_edge22_Node000014_Node000011"><a xlink:title=" ">
<path fill="none" stroke="#63b8ff" d="M578.36,-105.97C601.5,-97.42 639.48,-83.39 666,-73.59"/>
<polygon fill="#63b8ff" stroke="#63b8ff" points="667.39,-76.81 675.55,-70.06 664.96,-70.24 667.39,-76.81"/>
</a>
</g>
</g>
<!-- Node15 -->
<g id="Node000015" class="node">
<title>Node15</title>
<g id="a_Node000015"><a xlink:title=" ">
<polygon fill="#e0e0e0" stroke="#999999" points="575.5,-70 540.5,-70 540.5,-53 575.5,-53 575.5,-70"/>
<text text-anchor="middle" x="558" y="-59.6" font-family="Helvetica,sans-Serif" font-size="8.00">array</text>
</a>
</g>
</g>
<!-- Node14&#45;&gt;Node15 -->
<g id="edge15_Node000014_Node000015" class="edge">
<title>Node14&#45;&gt;Node15</title>
<g id="a_edge15_Node000014_Node000015"><a xlink:title=" ">
<path fill="none" stroke="#63b8ff" d="M558,-105.97C558,-99.19 558,-88.97 558,-80.13"/>
<polygon fill="#63b8ff" stroke="#63b8ff" points="561.5,-80.06 558,-70.06 554.5,-80.06 561.5,-80.06"/>
</a>
</g>
</g>
<!-- Node16 -->
<g id="Node000016" class="node">
<title>Node16</title>
<g id="a_Node000016"><a xlink:title=" ">
<polygon fill="#e0e0e0" stroke="#999999" points="632,-70 594,-70 594,-53 632,-53 632,-70"/>
<text text-anchor="middle" x="613" y="-59.6" font-family="Helvetica,sans-Serif" font-size="8.00">cmath</text>
</a>
</g>
</g>
<!-- Node14&#45;&gt;Node16 -->
<g id="edge16_Node000014_Node000016" class="edge">
<title>Node14&#45;&gt;Node16</title>
<g id="a_edge16_Node000014_Node000016"><a xlink:title=" ">
<path fill="none" stroke="#63b8ff" d="M566.12,-105.97C574.32,-98.37 587.21,-86.41 597.4,-76.97"/>
<polygon fill="#63b8ff" stroke="#63b8ff" points="599.9,-79.42 604.85,-70.06 595.14,-74.29 599.9,-79.42"/>
</a>
</g>
</g>
<!-- Node17 -->
<g id="Node000017" class="node">
<title>Node17</title>
<g id="a_Node000017"><a xlink:title=" ">
<polygon fill="#e0e0e0" stroke="#999999" points="397,-70 347,-70 347,-53 397,-53 397,-70"/>
<text text-anchor="middle" x="372" y="-59.6" font-family="Helvetica,sans-Serif" font-size="8.00">functional</text>
</a>
</g>
</g>
<!-- Node14&#45;&gt;Node17 -->
<g id="edge18_Node000014_Node000017" class="edge">
<title>Node14&#45;&gt;Node17</title>
<g id="a_edge18_Node000014_Node000017"><a xlink:title=" ">
<path fill="none" stroke="#63b8ff" d="M530.56,-105.97C497.81,-97 443.01,-81.97 407.18,-72.15"/>
<polygon fill="#63b8ff" stroke="#63b8ff" points="407.74,-68.67 397.17,-69.4 405.89,-75.42 407.74,-68.67"/>
</a>
</g>
</g>
<!-- Node18 -->
<g id="Node000018" class="node">
<title>Node18</title>
<g id="a_Node000018"><a xlink:title=" ">
<polygon fill="#e0e0e0" stroke="#999999" points="451,-70 415,-70 415,-53 451,-53 451,-70"/>
<text text-anchor="middle" x="433" y="-59.6" font-family="Helvetica,sans-Serif" font-size="8.00">string</text>
</a>
</g>
</g>
<!-- Node14&#45;&gt;Node18 -->
<g id="edge20_Node000014_Node000018" class="edge">
<title>Node14&#45;&gt;Node18</title>
<g id="a_edge20_Node000014_Node000018"><a xlink:title=" ">
<path fill="none" stroke="#63b8ff" d="M539.56,-105.97C518.66,-97.45 484.41,-83.48 460.4,-73.68"/>
<polygon fill="#63b8ff" stroke="#63b8ff" points="461.69,-70.43 451.11,-69.89 459.05,-76.91 461.69,-70.43"/>
</a>
</g>
</g>
<!-- Node19 -->
<g id="Node000019" class="node">
<title>Node19</title>
<g id="a_Node000019"><a xlink:title=" ">
<polygon fill="#e0e0e0" stroke="#999999" points="522.5,-70 469.5,-70 469.5,-53 522.5,-53 522.5,-70"/>
<text text-anchor="middle" x="496" y="-59.6" font-family="Helvetica,sans-Serif" font-size="8.00">type_traits</text>
</a>
</g>
</g>
<!-- Node14&#45;&gt;Node19 -->
<g id="edge21_Node000014_Node000019" class="edge">
<title>Node14&#45;&gt;Node19</title>
<g id="a_edge21_Node000014_Node000019"><a xlink:title=" ">
<path fill="none" stroke="#63b8ff" d="M548.85,-105.97C539.51,-98.29 524.78,-86.18 513.25,-76.69"/>
<polygon fill="#63b8ff" stroke="#63b8ff" points="515.13,-73.71 505.19,-70.06 510.69,-79.11 515.13,-73.71"/>
</a>
</g>
</g>
</g>
</svg>
