<?xml version="1.0" encoding="UTF-8" standalone="no"?>
<!DOCTYPE svg PUBLIC "-//W3C//DTD SVG 1.1//EN"
 "http://www.w3.org/Graphics/SVG/1.1/DTD/svg11.dtd">
<!-- Generated by graphviz version 2.43.0 (0)
 -->
<!-- Title: homogeneous_pool.hpp Pages: 1 -->
<svg width="668pt" height="184pt"
 viewBox="0.00 0.00 668.00 184.00" xmlns="http://www.w3.org/2000/svg" xmlns:xlink="http://www.w3.org/1999/xlink">
<g id="graph0" class="graph" transform="scale(1 1) rotate(0) translate(4 180)">
<title>homogeneous_pool.hpp</title>
<!-- Node1 -->
<g id="Node000001" class="node">
<title>Node1</title>
<g id="a_Node000001"><a xlink:title=" ">
<polygon fill="#999999" stroke="#666666" points="324.5,-176 221.5,-176 221.5,-159 324.5,-159 324.5,-176"/>
<text text-anchor="middle" x="273" y="-165.6" font-family="Helvetica,sans-Serif" font-size="8.00">homogeneous_pool.hpp</text>
</a>
</g>
</g>
<!-- Node2 -->
<g id="Node000002" class="node">
<title>Node2</title>
<g id="a_Node000002"><a xlink:title=" ">
<polygon fill="#e0e0e0" stroke="#999999" points="42,-123 0,-123 0,-106 42,-106 42,-123"/>
<text text-anchor="middle" x="21" y="-112.6" font-family="Helvetica,sans-Serif" font-size="8.00">cassert</text>
</a>
</g>
</g>
<!-- Node1&#45;&gt;Node2 -->
<g id="edge1_Node000001_Node000002" class="edge">
<title>Node1&#45;&gt;Node2</title>
<g id="a_edge1_Node000001_Node000002"><a xlink:title=" ">
<path fill="none" stroke="#63b8ff" d="M234.55,-158.95C191.16,-150.4 118.45,-135.95 56,-123 54.73,-122.74 53.44,-122.47 52.14,-122.19"/>
<polygon fill="#63b8ff" stroke="#63b8ff" points="52.6,-118.71 42.09,-120.07 51.15,-125.56 52.6,-118.71"/>
</a>
</g>
</g>
<!-- Node3 -->
<g id="Node000003" class="node">
<title>Node3</title>
<g id="a_Node000003"><a xlink:title=" ">
<polygon fill="#e0e0e0" stroke="#999999" points="274,-17 232,-17 232,0 274,0 274,-17"/>
<text text-anchor="middle" x="253" y="-6.6" font-family="Helvetica,sans-Serif" font-size="8.00">cstddef</text>
</a>
</g>
</g>
<!-- Node1&#45;&gt;Node3 -->
<g id="edge2_Node000001_Node000003" class="edge">
<title>Node1&#45;&gt;Node3</title>
<g id="a_edge2_Node000001_Node000003"><a xlink:title=" ">
<path fill="none" stroke="#63b8ff" d="M221.2,-161.37C172.67,-155.36 105.24,-143.53 89,-123 47.25,-70.23 163.39,-32.17 221.77,-16.9"/>
<polygon fill="#63b8ff" stroke="#63b8ff" points="222.78,-20.25 231.61,-14.4 221.06,-13.47 222.78,-20.25"/>
</a>
</g>
</g>
<!-- Node4 -->
<g id="Node000004" class="node">
<title>Node4</title>
<g id="a_Node000004"><a xlink:title=" ">
<polygon fill="#e0e0e0" stroke="#999999" points="137.5,-123 98.5,-123 98.5,-106 137.5,-106 137.5,-123"/>
<text text-anchor="middle" x="118" y="-112.6" font-family="Helvetica,sans-Serif" font-size="8.00">cstdint</text>
</a>
</g>
</g>
<!-- Node1&#45;&gt;Node4 -->
<g id="edge3_Node000001_Node000004" class="edge">
<title>Node1&#45;&gt;Node4</title>
<g id="a_edge3_Node000001_Node000004"><a xlink:title=" ">
<path fill="none" stroke="#63b8ff" d="M250.13,-158.97C222.86,-150 177.23,-134.99 147.37,-125.17"/>
<polygon fill="#63b8ff" stroke="#63b8ff" points="148.12,-121.73 137.53,-121.93 145.93,-128.38 148.12,-121.73"/>
</a>
</g>
</g>
<!-- Node5 -->
<g id="Node000005" class="node">
<title>Node5</title>
<g id="a_Node000005"><a xlink:title=" ">
<polygon fill="#e0e0e0" stroke="#999999" points="238,-123 156,-123 156,-106 238,-106 238,-123"/>
<text text-anchor="middle" x="197" y="-112.6" font-family="Helvetica,sans-Serif" font-size="8.00">memory_resource</text>
</a>
</g>
</g>
<!-- Node1&#45;&gt;Node5 -->
<g id="edge4_Node000001_Node000005" class="edge">
<title>Node1&#45;&gt;Node5</title>
<g id="a_edge4_Node000001_Node000005"><a xlink:title=" ">
<path fill="none" stroke="#63b8ff" d="M261.79,-158.97C250,-151.07 231.22,-138.46 216.9,-128.86"/>
<polygon fill="#63b8ff" stroke="#63b8ff" points="218.51,-125.72 208.26,-123.06 214.61,-131.53 218.51,-125.72"/>
</a>
</g>
</g>
<!-- Node6 -->
<g id="Node000006" class="node">
<title>Node6</title>
<g id="a_Node000006"><a xlink:title=" ">
<polygon fill="#e0e0e0" stroke="#999999" points="290,-123 256,-123 256,-106 290,-106 290,-123"/>
<text text-anchor="middle" x="273" y="-112.6" font-family="Helvetica,sans-Serif" font-size="8.00">utility</text>
</a>
</g>
</g>
<!-- Node1&#45;&gt;Node6 -->
<g id="edge5_Node000001_Node000006" class="edge">
<title>Node1&#45;&gt;Node6</title>
<g id="a_edge5_Node000001_Node000006"><a xlink:title=" ">
<path fill="none" stroke="#63b8ff" d="M273,-158.97C273,-152.19 273,-141.97 273,-133.13"/>
<polygon fill="#63b8ff" stroke="#63b8ff" points="276.5,-133.06 273,-123.06 269.5,-133.06 276.5,-133.06"/>
</a>
</g>
</g>
<!-- Node7 -->
<g id="Node000007" class="node">
<title>Node7</title>
<g id="a_Node000007"><a xlink:title=" ">
<polygon fill="#e0e0e0" stroke="#999999" points="346,-123 308,-123 308,-106 346,-106 346,-123"/>
<text text-anchor="middle" x="327" y="-112.6" font-family="Helvetica,sans-Serif" font-size="8.00">vector</text>
</a>
</g>
</g>
<!-- Node1&#45;&gt;Node7 -->
<g id="edge6_Node000001_Node000007" class="edge">
<title>Node1&#45;&gt;Node7</title>
<g id="a_edge6_Node000001_Node000007"><a xlink:title=" ">
<path fill="none" stroke="#63b8ff" d="M280.97,-158.97C289.02,-151.37 301.68,-139.41 311.68,-129.97"/>
<polygon fill="#63b8ff" stroke="#63b8ff" points="314.13,-132.47 319,-123.06 309.33,-127.38 314.13,-132.47"/>
</a>
</g>
</g>
<!-- Node8 -->
<g id="Node000008" class="node">
<title>Node8</title>
<g id="a_Node000008"><a xlink:title=" ">
<polygon fill="#e0e0e0" stroke="#999999" points="414,-123 364,-123 364,-106 414,-106 414,-123"/>
<text text-anchor="middle" x="389" y="-112.6" font-family="Helvetica,sans-Serif" font-size="8.00">algorithm</text>
</a>
</g>
</g>
<!-- Node1&#45;&gt;Node8 -->
<g id="edge7_Node000001_Node000008" class="edge">
<title>Node1&#45;&gt;Node8</title>
<g id="a_edge7_Node000001_Node000008"><a xlink:title=" ">
<path fill="none" stroke="#63b8ff" d="M290.12,-158.97C309.22,-150.58 340.37,-136.88 362.6,-127.11"/>
<polygon fill="#63b8ff" stroke="#63b8ff" points="364.07,-130.28 371.81,-123.06 361.25,-123.88 364.07,-130.28"/>
</a>
</g>
</g>
<!-- Node9 -->
<g id="Node000009" class="node">
<title>Node9</title>
<g id="a_Node000009"><a xlink:href="../../d7/d65/intrinsics_8hpp.html" target="_top" xlink:title=" ">
<polygon fill="white" stroke="#666666" points="660,-70 568,-70 568,-53 660,-53 660,-70"/>
<text text-anchor="middle" x="614" y="-59.6" font-family="Helvetica,sans-Serif" font-size="8.00">../../utils/intrinsics.hpp</text>
</a>
</g>
</g>
<!-- Node1&#45;&gt;Node9 -->
<g id="edge8_Node000001_Node000009" class="edge">
<title>Node1&#45;&gt;Node9</title>
<g id="a_edge8_Node000001_Node000009"><a xlink:title=" ">
<path fill="none" stroke="#63b8ff" d="M324.76,-162.89C375.01,-158.08 452.75,-147.18 516,-123 546.17,-111.47 577.3,-90.39 596.15,-76.42"/>
<polygon fill="#63b8ff" stroke="#63b8ff" points="598.5,-79.02 604.36,-70.2 594.28,-73.44 598.5,-79.02"/>
</a>
</g>
</g>
<!-- Node11 -->
<g id="Node000011" class="node">
<title>Node11</title>
<g id="a_Node000011"><a xlink:href="../../df/d93/utils_8hpp.html" target="_top" xlink:title=" ">
<polygon fill="white" stroke="#666666" points="507.5,-123 432.5,-123 432.5,-106 507.5,-106 507.5,-123"/>
<text text-anchor="middle" x="470" y="-112.6" font-family="Helvetica,sans-Serif" font-size="8.00">../../utils/utils.hpp</text>
</a>
</g>
</g>
<!-- Node1&#45;&gt;Node11 -->
<g id="edge11_Node000001_Node000011" class="edge">
<title>Node1&#45;&gt;Node11</title>
<g id="a_edge11_Node000001_Node000011"><a xlink:title=" ">
<path fill="none" stroke="#63b8ff" d="M302.07,-158.97C336.26,-150.12 393.16,-135.39 431.12,-125.57"/>
<polygon fill="#63b8ff" stroke="#63b8ff" points="432.01,-128.95 440.81,-123.06 430.25,-122.17 432.01,-128.95"/>
</a>
</g>
</g>
<!-- Node9&#45;&gt;Node3 -->
<g id="edge9_Node000009_Node000003" class="edge">
<title>Node9&#45;&gt;Node3</title>
<g id="a_edge9_Node000009_Node000003"><a xlink:title=" ">
<path fill="none" stroke="#63b8ff" d="M567.91,-53.99C493.34,-43.45 348.16,-22.94 284.36,-13.93"/>
<polygon fill="#63b8ff" stroke="#63b8ff" points="284.52,-10.42 274.13,-12.49 283.54,-17.35 284.52,-10.42"/>
</a>
</g>
</g>
<!-- Node10 -->
<g id="Node000010" class="node">
<title>Node10</title>
<g id="a_Node000010"><a xlink:title=" ">
<polygon fill="#e0e0e0" stroke="#999999" points="633,-17 595,-17 595,0 633,0 633,-17"/>
<text text-anchor="middle" x="614" y="-6.6" font-family="Helvetica,sans-Serif" font-size="8.00">cstdlib</text>
</a>
</g>
</g>
<!-- Node9&#45;&gt;Node10 -->
<g id="edge10_Node000009_Node000010" class="edge">
<title>Node9&#45;&gt;Node10</title>
<g id="a_edge10_Node000009_Node000010"><a xlink:title=" ">
<path fill="none" stroke="#63b8ff" d="M614,-52.97C614,-46.19 614,-35.97 614,-27.13"/>
<polygon fill="#63b8ff" stroke="#63b8ff" points="617.5,-27.06 614,-17.06 610.5,-27.06 617.5,-27.06"/>
</a>
</g>
</g>
<!-- Node11&#45;&gt;Node3 -->
<g id="edge14_Node000011_Node000003" class="edge">
<title>Node11&#45;&gt;Node3</title>
<g id="a_edge14_Node000011_Node000003"><a xlink:title=" ">
<path fill="none" stroke="#63b8ff" d="M432.45,-107.33C378.38,-98.14 283.78,-80.78 272,-70 260.07,-59.08 255.58,-40.78 253.91,-27.15"/>
<polygon fill="#63b8ff" stroke="#63b8ff" points="257.39,-26.76 253.08,-17.08 250.42,-27.33 257.39,-26.76"/>
</a>
</g>
</g>
<!-- Node11&#45;&gt;Node9 -->
<g id="edge18_Node000011_Node000009" class="edge">
<title>Node11&#45;&gt;Node9</title>
<g id="a_edge18_Node000011_Node000009"><a xlink:title=" ">
<path fill="none" stroke="#63b8ff" d="M491.25,-105.97C515.5,-97.39 555.37,-83.27 583.06,-73.46"/>
<polygon fill="#63b8ff" stroke="#63b8ff" points="584.41,-76.69 592.67,-70.06 582.07,-70.1 584.41,-76.69"/>
</a>
</g>
</g>
<!-- Node12 -->
<g id="Node000012" class="node">
<title>Node12</title>
<g id="a_Node000012"><a xlink:title=" ">
<polygon fill="#e0e0e0" stroke="#999999" points="549.5,-70 514.5,-70 514.5,-53 549.5,-53 549.5,-70"/>
<text text-anchor="middle" x="532" y="-59.6" font-family="Helvetica,sans-Serif" font-size="8.00">array</text>
</a>
</g>
</g>
<!-- Node11&#45;&gt;Node12 -->
<g id="edge12_Node000011_Node000012" class="edge">
<title>Node11&#45;&gt;Node12</title>
<g id="a_edge12_Node000011_Node000012"><a xlink:title=" ">
<path fill="none" stroke="#63b8ff" d="M479.15,-105.97C488.49,-98.29 503.22,-86.18 514.75,-76.69"/>
<polygon fill="#63b8ff" stroke="#63b8ff" points="517.31,-79.11 522.81,-70.06 512.87,-73.71 517.31,-79.11"/>
</a>
</g>
</g>
<!-- Node13 -->
<g id="Node000013" class="node">
<title>Node13</title>
<g id="a_Node000013"><a xlink:title=" ">
<polygon fill="#e0e0e0" stroke="#999999" points="319,-70 281,-70 281,-53 319,-53 319,-70"/>
<text text-anchor="middle" x="300" y="-59.6" font-family="Helvetica,sans-Serif" font-size="8.00">cmath</text>
</a>
</g>
</g>
<!-- Node11&#45;&gt;Node13 -->
<g id="edge13_Node000011_Node000013" class="edge">
<title>Node11&#45;&gt;Node13</title>
<g id="a_edge13_Node000011_Node000013"><a xlink:title=" ">
<path fill="none" stroke="#63b8ff" d="M444.92,-105.97C414.08,-96.72 361.84,-81.05 329.22,-71.27"/>
<polygon fill="#63b8ff" stroke="#63b8ff" points="329.96,-67.83 319.37,-68.31 327.94,-74.54 329.96,-67.83"/>
</a>
</g>
</g>
<!-- Node14 -->
<g id="Node000014" class="node">
<title>Node14</title>
<g id="a_Node000014"><a xlink:title=" ">
<polygon fill="#e0e0e0" stroke="#999999" points="371,-70 337,-70 337,-53 371,-53 371,-70"/>
<text text-anchor="middle" x="354" y="-59.6" font-family="Helvetica,sans-Serif" font-size="8.00">limits</text>
</a>
</g>
</g>
<!-- Node11&#45;&gt;Node14 -->
<g id="edge15_Node000011_Node000014" class="edge">
<title>Node11&#45;&gt;Node14</title>
<g id="a_edge15_Node000011_Node000014"><a xlink:title=" ">
<path fill="none" stroke="#63b8ff" d="M452.88,-105.97C433.78,-97.58 402.63,-83.88 380.4,-74.11"/>
<polygon fill="#63b8ff" stroke="#63b8ff" points="381.75,-70.88 371.19,-70.06 378.93,-77.28 381.75,-70.88"/>
</a>
</g>
</g>
<!-- Node15 -->
<g id="Node000015" class="node">
<title>Node15</title>
<g id="a_Node000015"><a xlink:title=" ">
<polygon fill="#e0e0e0" stroke="#999999" points="425,-70 389,-70 389,-53 425,-53 425,-70"/>
<text text-anchor="middle" x="407" y="-59.6" font-family="Helvetica,sans-Serif" font-size="8.00">string</text>
</a>
</g>
</g>
<!-- Node11&#45;&gt;Node15 -->
<g id="edge16_Node000011_Node000015" class="edge">
<title>Node11&#45;&gt;Node15</title>
<g id="a_edge16_Node000011_Node000015"><a xlink:title=" ">
<path fill="none" stroke="#63b8ff" d="M460.7,-105.97C451.12,-98.22 435.95,-85.94 424.18,-76.41"/>
<polygon fill="#63b8ff" stroke="#63b8ff" points="426.31,-73.63 416.33,-70.06 421.9,-79.07 426.31,-73.63"/>
</a>
</g>
</g>
<!-- Node16 -->
<g id="Node000016" class="node">
<title>Node16</title>
<g id="a_Node000016"><a xlink:title=" ">
<polygon fill="#e0e0e0" stroke="#999999" points="496.5,-70 443.5,-70 443.5,-53 496.5,-53 496.5,-70"/>
<text text-anchor="middle" x="470" y="-59.6" font-family="Helvetica,sans-Serif" font-size="8.00">type_traits</text>
</a>
</g>
</g>
<!-- Node11&#45;&gt;Node16 -->
<g id="edge17_Node000011_Node000016" class="edge">
<title>Node11&#45;&gt;Node16</title>
<g id="a_edge17_Node000011_Node000016"><a xlink:title=" ">
<path fill="none" stroke="#63b8ff" d="M470,-105.97C470,-99.19 470,-88.97 470,-80.13"/>
<polygon fill="#63b8ff" stroke="#63b8ff" points="473.5,-80.06 470,-70.06 466.5,-80.06 473.5,-80.06"/>
</a>
</g>
</g>
</g>
</svg>
