<?xml version="1.0" encoding="UTF-8" standalone="no"?>
<!DOCTYPE svg PUBLIC "-//W3C//DTD SVG 1.1//EN"
 "http://www.w3.org/Graphics/SVG/1.1/DTD/svg11.dtd">
<!-- Generated by graphviz version 2.43.0 (0)
 -->
<!-- Title: jps.hpp Pages: 1 -->
<svg width="1078pt" height="237pt"
 viewBox="0.00 0.00 1078.25 237.00" xmlns="http://www.w3.org/2000/svg" xmlns:xlink="http://www.w3.org/1999/xlink">
<g id="graph0" class="graph" transform="scale(1 1) rotate(0) translate(4 233)">
<title>jps.hpp</title>
<!-- Node1 -->
<g id="Node000001" class="node">
<title>Node1</title>
<g id="a_Node000001"><a xlink:title=" ">
<polygon fill="#999999" stroke="#666666" points="245.68,-229 203.68,-229 203.68,-212 245.68,-212 245.68,-229"/>
<text text-anchor="middle" x="224.68" y="-218.6" font-family="Helvetica,sans-Serif" font-size="8.00">jps.hpp</text>
</a>
</g>
</g>
<!-- Node2 -->
<g id="Node000002" class="node">
<title>Node2</title>
<g id="a_Node000002"><a xlink:title=" ">
<polygon fill="#e0e0e0" stroke="#999999" points="139.18,-70 104.18,-70 104.18,-53 139.18,-53 139.18,-70"/>
<text text-anchor="middle" x="121.68" y="-59.6" font-family="Helvetica,sans-Serif" font-size="8.00">array</text>
</a>
</g>
</g>
<!-- Node1&#45;&gt;Node2 -->
<g id="edge1_Node000001_Node000002" class="edge">
<title>Node1&#45;&gt;Node2</title>
<g id="a_edge1_Node000001_Node000002"><a xlink:title=" ">
<path fill="none" stroke="#63b8ff" d="M203.65,-218.26C156.28,-214.97 43.58,-204.29 20.68,-176 11.33,-164.45 3.78,-136.7 25.68,-106 41.65,-83.63 71.93,-72.53 94.23,-67.18"/>
<polygon fill="#63b8ff" stroke="#63b8ff" points="95.1,-70.58 104.14,-65.05 93.62,-63.73 95.1,-70.58"/>
</a>
</g>
</g>
<!-- Node3 -->
<g id="Node000003" class="node">
<title>Node3</title>
<g id="a_Node000003"><a xlink:title=" ">
<polygon fill="#e0e0e0" stroke="#999999" points="658.68,-17 616.68,-17 616.68,0 658.68,0 658.68,-17"/>
<text text-anchor="middle" x="637.68" y="-6.6" font-family="Helvetica,sans-Serif" font-size="8.00">cstddef</text>
</a>
</g>
</g>
<!-- Node1&#45;&gt;Node3 -->
<g id="edge2_Node000001_Node000003" class="edge">
<title>Node1&#45;&gt;Node3</title>
<g id="a_edge2_Node000001_Node000003"><a xlink:title=" ">
<path fill="none" stroke="#63b8ff" d="M203.64,-218.51C154.41,-215.69 34.1,-205.85 9.68,-176 1.64,-166.17 -7.99,-141.55 12.68,-106 34.5,-68.49 53.59,-66.93 94.68,-53 190.5,-20.52 505.44,-11.95 606.31,-10.01"/>
<polygon fill="#63b8ff" stroke="#63b8ff" points="606.52,-13.5 616.46,-9.82 606.4,-6.5 606.52,-13.5"/>
</a>
</g>
</g>
<!-- Node4 -->
<g id="Node000004" class="node">
<title>Node4</title>
<g id="a_Node000004"><a xlink:title=" ">
<polygon fill="#e0e0e0" stroke="#999999" points="69.18,-176 30.18,-176 30.18,-159 69.18,-159 69.18,-176"/>
<text text-anchor="middle" x="49.68" y="-165.6" font-family="Helvetica,sans-Serif" font-size="8.00">cstdint</text>
</a>
</g>
</g>
<!-- Node1&#45;&gt;Node4 -->
<g id="edge3_Node000001_Node000004" class="edge">
<title>Node1&#45;&gt;Node4</title>
<g id="a_edge3_Node000001_Node000004"><a xlink:title=" ">
<path fill="none" stroke="#63b8ff" d="M203.57,-213.35C172.46,-204.28 114.19,-187.3 78.96,-177.03"/>
<polygon fill="#63b8ff" stroke="#63b8ff" points="79.83,-173.64 69.25,-174.2 77.88,-180.36 79.83,-173.64"/>
</a>
</g>
</g>
<!-- Node5 -->
<g id="Node000005" class="node">
<title>Node5</title>
<g id="a_Node000005"><a xlink:title=" ">
<polygon fill="#e0e0e0" stroke="#999999" points="445.18,-70 392.18,-70 392.18,-53 445.18,-53 445.18,-70"/>
<text text-anchor="middle" x="418.68" y="-59.6" font-family="Helvetica,sans-Serif" font-size="8.00">type_traits</text>
</a>
</g>
</g>
<!-- Node1&#45;&gt;Node5 -->
<g id="edge4_Node000001_Node000005" class="edge">
<title>Node1&#45;&gt;Node5</title>
<g id="a_edge4_Node000001_Node000005"><a xlink:title=" ">
<path fill="none" stroke="#63b8ff" d="M206.82,-211.89C159.24,-191.12 34.6,-133.17 58.68,-106 79.93,-82.04 294.84,-68.68 382.12,-64.22"/>
<polygon fill="#63b8ff" stroke="#63b8ff" points="382.3,-67.71 392.12,-63.71 381.95,-60.72 382.3,-67.71"/>
</a>
</g>
</g>
<!-- Node6 -->
<g id="Node000006" class="node">
<title>Node6</title>
<g id="a_Node000006"><a xlink:title=" ">
<polygon fill="#e0e0e0" stroke="#999999" points="101.68,-123 67.68,-123 67.68,-106 101.68,-106 101.68,-123"/>
<text text-anchor="middle" x="84.68" y="-112.6" font-family="Helvetica,sans-Serif" font-size="8.00">utility</text>
</a>
</g>
</g>
<!-- Node1&#45;&gt;Node6 -->
<g id="edge5_Node000001_Node000006" class="edge">
<title>Node1&#45;&gt;Node6</title>
<g id="a_edge5_Node000001_Node000006"><a xlink:title=" ">
<path fill="none" stroke="#63b8ff" d="M214.16,-211.68C190.53,-194.13 133.01,-151.4 103.23,-129.28"/>
<polygon fill="#63b8ff" stroke="#63b8ff" points="105.06,-126.28 94.95,-123.12 100.89,-131.9 105.06,-126.28"/>
</a>
</g>
</g>
<!-- Node7 -->
<g id="Node000007" class="node">
<title>Node7</title>
<g id="a_Node000007"><a xlink:href="../../dc/d8a/grid_8hpp.html" target="_top" xlink:title=" ">
<polygon fill="white" stroke="#666666" points="297.68,-176 219.68,-176 219.68,-159 297.68,-159 297.68,-176"/>
<text text-anchor="middle" x="258.68" y="-165.6" font-family="Helvetica,sans-Serif" font-size="8.00">../mazes/grid.hpp</text>
</a>
</g>
</g>
<!-- Node1&#45;&gt;Node7 -->
<g id="edge6_Node000001_Node000007" class="edge">
<title>Node1&#45;&gt;Node7</title>
<g id="a_edge6_Node000001_Node000007"><a xlink:title=" ">
<path fill="none" stroke="#63b8ff" d="M229.7,-211.97C234.52,-204.74 241.96,-193.59 248.09,-184.39"/>
<polygon fill="#63b8ff" stroke="#63b8ff" points="251.01,-186.32 253.65,-176.06 245.19,-182.44 251.01,-186.32"/>
</a>
</g>
</g>
<!-- Node11 -->
<g id="Node000011" class="node">
<title>Node11</title>
<g id="a_Node000011"><a xlink:href="../../df/d93/utils_8hpp.html" target="_top" xlink:title=" ">
<polygon fill="white" stroke="#666666" points="597.68,-123 529.68,-123 529.68,-106 597.68,-106 597.68,-123"/>
<text text-anchor="middle" x="563.68" y="-112.6" font-family="Helvetica,sans-Serif" font-size="8.00">../utils/utils.hpp</text>
</a>
</g>
</g>
<!-- Node1&#45;&gt;Node11 -->
<g id="edge37_Node000001_Node000011" class="edge">
<title>Node1&#45;&gt;Node11</title>
<g id="a_edge37_Node000001_Node000011"><a xlink:title=" ">
<path fill="none" stroke="#63b8ff" d="M245.89,-212.99C302.81,-195.53 459.36,-147.51 529.23,-126.07"/>
<polygon fill="#63b8ff" stroke="#63b8ff" points="530.35,-129.39 538.88,-123.11 528.3,-122.69 530.35,-129.39"/>
</a>
</g>
</g>
<!-- Node16 -->
<g id="Node000016" class="node">
<title>Node16</title>
<g id="a_Node000016"><a xlink:href="../../d7/d65/intrinsics_8hpp.html" target="_top" xlink:title=" ">
<polygon fill="#fff0f0" stroke="red" points="833.18,-70 748.18,-70 748.18,-53 833.18,-53 833.18,-70"/>
<text text-anchor="middle" x="790.68" y="-59.6" font-family="Helvetica,sans-Serif" font-size="8.00">../utils/intrinsics.hpp</text>
</a>
</g>
</g>
<!-- Node1&#45;&gt;Node16 -->
<g id="edge45_Node000001_Node000016" class="edge">
<title>Node1&#45;&gt;Node16</title>
<g id="a_edge45_Node000001_Node000016"><a xlink:title=" ">
<path fill="none" stroke="#63b8ff" d="M245.81,-218.96C347.1,-216.24 783.55,-203.16 916.68,-176 985.96,-161.87 1025.86,-180.73 1066.68,-123 1071.05,-116.83 1071.59,-111.74 1066.68,-106 1038.56,-73.1 915.5,-64.93 843.55,-63"/>
<polygon fill="#63b8ff" stroke="#63b8ff" points="843.4,-59.49 833.32,-62.76 843.24,-66.49 843.4,-59.49"/>
</a>
</g>
</g>
<!-- Node20 -->
<g id="Node000020" class="node">
<title>Node20</title>
<g id="a_Node000020"><a xlink:href="../../d8/d62/existence__set_8hpp.html" target="_top" xlink:title=" ">
<polygon fill="white" stroke="#666666" points="907.18,-176 760.18,-176 760.18,-159 907.18,-159 907.18,-176"/>
<text text-anchor="middle" x="833.68" y="-165.6" font-family="Helvetica,sans-Serif" font-size="8.00">../types/containers/existence_set.hpp</text>
</a>
</g>
</g>
<!-- Node1&#45;&gt;Node20 -->
<g id="edge28_Node000001_Node000020" class="edge">
<title>Node1&#45;&gt;Node20</title>
<g id="a_edge28_Node000001_Node000020"><a xlink:title=" ">
<path fill="none" stroke="#63b8ff" d="M246,-217.71C325.51,-211.06 607.51,-187.44 749.99,-175.51"/>
<polygon fill="#63b8ff" stroke="#63b8ff" points="750.33,-178.99 760,-174.67 749.74,-172.02 750.33,-178.99"/>
</a>
</g>
</g>
<!-- Node22 -->
<g id="Node000022" class="node">
<title>Node22</title>
<g id="a_Node000022"><a xlink:href="../../d2/d1c/solver_8hpp.html" target="_top" xlink:title=" ">
<polygon fill="white" stroke="#666666" points="661.68,-176 589.68,-176 589.68,-159 661.68,-159 661.68,-176"/>
<text text-anchor="middle" x="625.68" y="-165.6" font-family="Helvetica,sans-Serif" font-size="8.00">base/solver.hpp</text>
</a>
</g>
</g>
<!-- Node1&#45;&gt;Node22 -->
<g id="edge38_Node000001_Node000022" class="edge">
<title>Node1&#45;&gt;Node22</title>
<g id="a_edge38_Node000001_Node000022"><a xlink:title=" ">
<path fill="none" stroke="#63b8ff" d="M245.96,-216.79C308.51,-208.84 492.83,-185.4 579.57,-174.37"/>
<polygon fill="#63b8ff" stroke="#63b8ff" points="580.17,-177.82 589.65,-173.08 579.28,-170.87 580.17,-177.82"/>
</a>
</g>
</g>
<!-- Node7&#45;&gt;Node2 -->
<g id="edge8_Node000007_Node000002" class="edge">
<title>Node7&#45;&gt;Node2</title>
<g id="a_edge8_Node000007_Node000002"><a xlink:title=" ">
<path fill="none" stroke="#63b8ff" d="M225.16,-158.98C202.76,-152.54 173.82,-141.33 153.68,-123 140.79,-111.26 132.16,-93.1 127.15,-79.73"/>
<polygon fill="#63b8ff" stroke="#63b8ff" points="130.45,-78.58 123.89,-70.26 123.83,-80.85 130.45,-78.58"/>
</a>
</g>
</g>
<!-- Node7&#45;&gt;Node3 -->
<g id="edge10_Node000007_Node000003" class="edge">
<title>Node7&#45;&gt;Node3</title>
<g id="a_edge10_Node000007_Node000003"><a xlink:title=" ">
<path fill="none" stroke="#63b8ff" d="M246.74,-158.96C229.97,-147.44 202.94,-124.78 216.68,-106 263.23,-42.4 517.18,-18.18 606.55,-11.55"/>
<polygon fill="#63b8ff" stroke="#63b8ff" points="606.89,-15.04 616.61,-10.83 606.39,-8.06 606.89,-15.04"/>
</a>
</g>
</g>
<!-- Node7&#45;&gt;Node5 -->
<g id="edge11_Node000007_Node000005" class="edge">
<title>Node7&#45;&gt;Node5</title>
<g id="a_edge11_Node000007_Node000005"><a xlink:title=" ">
<path fill="none" stroke="#63b8ff" d="M248.84,-158.94C234.45,-146.99 210.83,-123.31 224.68,-106 243.97,-81.91 330.93,-70.25 381.64,-65.41"/>
<polygon fill="#63b8ff" stroke="#63b8ff" points="382.24,-68.87 391.88,-64.48 381.6,-61.9 382.24,-68.87"/>
</a>
</g>
</g>
<!-- Node7&#45;&gt;Node6 -->
<g id="edge12_Node000007_Node000006" class="edge">
<title>Node7&#45;&gt;Node6</title>
<g id="a_edge12_Node000007_Node000006"><a xlink:title=" ">
<path fill="none" stroke="#63b8ff" d="M233.01,-158.97C200.59,-149.47 145.07,-133.2 111.93,-123.49"/>
<polygon fill="#63b8ff" stroke="#63b8ff" points="112.59,-120.03 102.01,-120.58 110.62,-126.75 112.59,-120.03"/>
</a>
</g>
</g>
<!-- Node8 -->
<g id="Node000008" class="node">
<title>Node8</title>
<g id="a_Node000008"><a xlink:title=" ">
<polygon fill="#e0e0e0" stroke="#999999" points="283.68,-123 233.68,-123 233.68,-106 283.68,-106 283.68,-123"/>
<text text-anchor="middle" x="258.68" y="-112.6" font-family="Helvetica,sans-Serif" font-size="8.00">algorithm</text>
</a>
</g>
</g>
<!-- Node7&#45;&gt;Node8 -->
<g id="edge7_Node000007_Node000008" class="edge">
<title>Node7&#45;&gt;Node8</title>
<g id="a_edge7_Node000007_Node000008"><a xlink:title=" ">
<path fill="none" stroke="#63b8ff" d="M258.68,-158.97C258.68,-152.19 258.68,-141.97 258.68,-133.13"/>
<polygon fill="#63b8ff" stroke="#63b8ff" points="262.18,-133.06 258.68,-123.06 255.18,-133.06 262.18,-133.06"/>
</a>
</g>
</g>
<!-- Node9 -->
<g id="Node000009" class="node">
<title>Node9</title>
<g id="a_Node000009"><a xlink:title=" ">
<polygon fill="#e0e0e0" stroke="#999999" points="343.68,-123 301.68,-123 301.68,-106 343.68,-106 343.68,-123"/>
<text text-anchor="middle" x="322.68" y="-112.6" font-family="Helvetica,sans-Serif" font-size="8.00">cassert</text>
</a>
</g>
</g>
<!-- Node7&#45;&gt;Node9 -->
<g id="edge9_Node000007_Node000009" class="edge">
<title>Node7&#45;&gt;Node9</title>
<g id="a_edge9_Node000007_Node000009"><a xlink:title=" ">
<path fill="none" stroke="#63b8ff" d="M268.13,-158.97C277.86,-151.22 293.27,-138.94 305.23,-129.41"/>
<polygon fill="#63b8ff" stroke="#63b8ff" points="307.56,-132.03 313.2,-123.06 303.2,-126.55 307.56,-132.03"/>
</a>
</g>
</g>
<!-- Node10 -->
<g id="Node000010" class="node">
<title>Node10</title>
<g id="a_Node000010"><a xlink:title=" ">
<polygon fill="#e0e0e0" stroke="#999999" points="729.68,-123 691.68,-123 691.68,-106 729.68,-106 729.68,-123"/>
<text text-anchor="middle" x="710.68" y="-112.6" font-family="Helvetica,sans-Serif" font-size="8.00">vector</text>
</a>
</g>
</g>
<!-- Node7&#45;&gt;Node10 -->
<g id="edge13_Node000007_Node000010" class="edge">
<title>Node7&#45;&gt;Node10</title>
<g id="a_edge13_Node000007_Node000010"><a xlink:title=" ">
<path fill="none" stroke="#63b8ff" d="M297.88,-164.01C372.29,-158.93 538.96,-145.88 677.68,-123 678.95,-122.79 680.25,-122.56 681.56,-122.32"/>
<polygon fill="#63b8ff" stroke="#63b8ff" points="682.48,-125.7 691.56,-120.25 681.06,-118.85 682.48,-125.7"/>
</a>
</g>
</g>
<!-- Node7&#45;&gt;Node11 -->
<g id="edge14_Node000007_Node000011" class="edge">
<title>Node7&#45;&gt;Node11</title>
<g id="a_edge14_Node000007_Node000011"><a xlink:title=" ">
<path fill="none" stroke="#63b8ff" d="M297.93,-159.94C354.81,-150.43 459.86,-132.86 519.42,-122.9"/>
<polygon fill="#63b8ff" stroke="#63b8ff" points="520,-126.35 529.29,-121.25 518.85,-119.45 520,-126.35"/>
</a>
</g>
</g>
<!-- Node7&#45;&gt;Node16 -->
<g id="edge27_Node000007_Node000016" class="edge">
<title>Node7&#45;&gt;Node16</title>
<g id="a_edge27_Node000007_Node000016"><a xlink:title=" ">
<path fill="none" stroke="#63b8ff" d="M297.73,-164.09C362.55,-159.54 496.19,-147.83 606.68,-123 662.97,-110.35 726.45,-87.48 762.21,-73.78"/>
<polygon fill="#63b8ff" stroke="#63b8ff" points="763.89,-76.88 771.95,-70 761.36,-70.35 763.89,-76.88"/>
</a>
</g>
</g>
<!-- Node19 -->
<g id="Node000019" class="node">
<title>Node19</title>
<g id="a_Node000019"><a xlink:href="../../d1/d2d/weighted__node_8hpp.html" target="_top" xlink:title=" ">
<polygon fill="white" stroke="#666666" points="473.18,-123 362.18,-123 362.18,-106 473.18,-106 473.18,-123"/>
<text text-anchor="middle" x="417.68" y="-112.6" font-family="Helvetica,sans-Serif" font-size="8.00">nodes/weighted_node.hpp</text>
</a>
</g>
</g>
<!-- Node7&#45;&gt;Node19 -->
<g id="edge24_Node000007_Node000019" class="edge">
<title>Node7&#45;&gt;Node19</title>
<g id="a_edge24_Node000007_Node000019"><a xlink:title=" ">
<path fill="none" stroke="#63b8ff" d="M282.14,-158.97C309.15,-150.31 353.72,-136.02 384.33,-126.2"/>
<polygon fill="#63b8ff" stroke="#63b8ff" points="385.67,-129.44 394.13,-123.06 383.53,-122.78 385.67,-129.44"/>
</a>
</g>
</g>
<!-- Node11&#45;&gt;Node2 -->
<g id="edge15_Node000011_Node000002" class="edge">
<title>Node11&#45;&gt;Node2</title>
<g id="a_edge15_Node000011_Node000002"><a xlink:title=" ">
<path fill="none" stroke="#63b8ff" d="M529.37,-109.54C444.69,-99.77 227.06,-74.66 149.58,-65.72"/>
<polygon fill="#63b8ff" stroke="#63b8ff" points="149.54,-62.19 139.2,-64.52 148.74,-69.14 149.54,-62.19"/>
</a>
</g>
</g>
<!-- Node11&#45;&gt;Node3 -->
<g id="edge17_Node000011_Node000003" class="edge">
<title>Node11&#45;&gt;Node3</title>
<g id="a_edge17_Node000011_Node000003"><a xlink:title=" ">
<path fill="none" stroke="#63b8ff" d="M545.67,-105.82C522.87,-94.99 488.29,-74.18 503.68,-53 527.07,-20.82 574.81,-11.97 606.53,-9.8"/>
<polygon fill="#63b8ff" stroke="#63b8ff" points="606.81,-13.29 616.62,-9.29 606.46,-6.3 606.81,-13.29"/>
</a>
</g>
</g>
<!-- Node11&#45;&gt;Node5 -->
<g id="edge21_Node000011_Node000005" class="edge">
<title>Node11&#45;&gt;Node5</title>
<g id="a_edge21_Node000011_Node000005"><a xlink:title=" ">
<path fill="none" stroke="#63b8ff" d="M542.29,-105.97C517.87,-97.39 477.72,-83.27 449.83,-73.46"/>
<polygon fill="#63b8ff" stroke="#63b8ff" points="450.76,-70.07 440.17,-70.06 448.44,-76.68 450.76,-70.07"/>
</a>
</g>
</g>
<!-- Node12 -->
<g id="Node000012" class="node">
<title>Node12</title>
<g id="a_Node000012"><a xlink:title=" ">
<polygon fill="#e0e0e0" stroke="#999999" points="550.68,-70 512.68,-70 512.68,-53 550.68,-53 550.68,-70"/>
<text text-anchor="middle" x="531.68" y="-59.6" font-family="Helvetica,sans-Serif" font-size="8.00">cmath</text>
</a>
</g>
</g>
<!-- Node11&#45;&gt;Node12 -->
<g id="edge16_Node000011_Node000012" class="edge">
<title>Node11&#45;&gt;Node12</title>
<g id="a_edge16_Node000011_Node000012"><a xlink:title=" ">
<path fill="none" stroke="#63b8ff" d="M558.96,-105.97C554.47,-98.82 547.57,-87.82 541.83,-78.67"/>
<polygon fill="#63b8ff" stroke="#63b8ff" points="544.7,-76.67 536.42,-70.06 538.77,-80.39 544.7,-76.67"/>
</a>
</g>
</g>
<!-- Node13 -->
<g id="Node000013" class="node">
<title>Node13</title>
<g id="a_Node000013"><a xlink:title=" ">
<polygon fill="#e0e0e0" stroke="#999999" points="726.68,-70 676.68,-70 676.68,-53 726.68,-53 726.68,-70"/>
<text text-anchor="middle" x="701.68" y="-59.6" font-family="Helvetica,sans-Serif" font-size="8.00">functional</text>
</a>
</g>
</g>
<!-- Node11&#45;&gt;Node13 -->
<g id="edge18_Node000011_Node000013" class="edge">
<title>Node11&#45;&gt;Node13</title>
<g id="a_edge18_Node000011_Node000013"><a xlink:title=" ">
<path fill="none" stroke="#63b8ff" d="M584.05,-105.97C607.18,-97.42 645.16,-83.39 671.69,-73.59"/>
<polygon fill="#63b8ff" stroke="#63b8ff" points="673.07,-76.81 681.24,-70.06 670.64,-70.24 673.07,-76.81"/>
</a>
</g>
</g>
<!-- Node14 -->
<g id="Node000014" class="node">
<title>Node14</title>
<g id="a_Node000014"><a xlink:title=" ">
<polygon fill="#e0e0e0" stroke="#999999" points="656.68,-70 622.68,-70 622.68,-53 656.68,-53 656.68,-70"/>
<text text-anchor="middle" x="639.68" y="-59.6" font-family="Helvetica,sans-Serif" font-size="8.00">limits</text>
</a>
</g>
</g>
<!-- Node11&#45;&gt;Node14 -->
<g id="edge19_Node000011_Node000014" class="edge">
<title>Node11&#45;&gt;Node14</title>
<g id="a_edge19_Node000011_Node000014"><a xlink:title=" ">
<path fill="none" stroke="#63b8ff" d="M574.9,-105.97C586.68,-98.07 605.47,-85.46 619.78,-75.86"/>
<polygon fill="#63b8ff" stroke="#63b8ff" points="622.07,-78.53 628.42,-70.06 618.17,-72.72 622.07,-78.53"/>
</a>
</g>
</g>
<!-- Node15 -->
<g id="Node000015" class="node">
<title>Node15</title>
<g id="a_Node000015"><a xlink:title=" ">
<polygon fill="#e0e0e0" stroke="#999999" points="604.68,-70 568.68,-70 568.68,-53 604.68,-53 604.68,-70"/>
<text text-anchor="middle" x="586.68" y="-59.6" font-family="Helvetica,sans-Serif" font-size="8.00">string</text>
</a>
</g>
</g>
<!-- Node11&#45;&gt;Node15 -->
<g id="edge20_Node000011_Node000015" class="edge">
<title>Node11&#45;&gt;Node15</title>
<g id="a_edge20_Node000011_Node000015"><a xlink:title=" ">
<path fill="none" stroke="#63b8ff" d="M567.08,-105.97C570.24,-98.97 575.06,-88.28 579.13,-79.25"/>
<polygon fill="#63b8ff" stroke="#63b8ff" points="582.35,-80.61 583.28,-70.06 575.97,-77.73 582.35,-80.61"/>
</a>
</g>
</g>
<!-- Node11&#45;&gt;Node16 -->
<g id="edge22_Node000011_Node000016" class="edge">
<title>Node11&#45;&gt;Node16</title>
<g id="a_edge22_Node000011_Node000016"><a xlink:title=" ">
<path fill="none" stroke="#63b8ff" d="M597.18,-105.97C636.99,-97.03 703.54,-82.08 747.27,-72.25"/>
<polygon fill="#63b8ff" stroke="#63b8ff" points="748.06,-75.66 757.05,-70.06 746.53,-68.83 748.06,-75.66"/>
</a>
</g>
</g>
<!-- Node16&#45;&gt;Node3 -->
<g id="edge23_Node000016_Node000003" class="edge">
<title>Node16&#45;&gt;Node3</title>
<g id="a_edge23_Node000016_Node000003"><a xlink:title=" ">
<path fill="none" stroke="#63b8ff" d="M768.11,-52.97C741.79,-44.2 698.13,-29.65 668.66,-19.82"/>
<polygon fill="#63b8ff" stroke="#63b8ff" points="669.47,-16.4 658.87,-16.56 667.25,-23.05 669.47,-16.4"/>
</a>
</g>
</g>
<!-- Node19&#45;&gt;Node5 -->
<g id="edge26_Node000019_Node000005" class="edge">
<title>Node19&#45;&gt;Node5</title>
<g id="a_edge26_Node000019_Node000005"><a xlink:title=" ">
<path fill="none" stroke="#63b8ff" d="M417.83,-105.97C417.96,-99.19 418.16,-88.97 418.34,-80.13"/>
<polygon fill="#63b8ff" stroke="#63b8ff" points="421.84,-80.12 418.54,-70.06 414.84,-79.99 421.84,-80.12"/>
</a>
</g>
</g>
<!-- Node19&#45;&gt;Node14 -->
<g id="edge25_Node000019_Node000014" class="edge">
<title>Node19&#45;&gt;Node14</title>
<g id="a_edge25_Node000019_Node000014"><a xlink:title=" ">
<path fill="none" stroke="#63b8ff" d="M455.06,-105.93C492.61,-98.16 552.34,-85.37 612.93,-70.05"/>
<polygon fill="#63b8ff" stroke="#63b8ff" points="613.84,-73.44 622.66,-67.57 612.11,-66.65 613.84,-73.44"/>
</a>
</g>
</g>
<!-- Node20&#45;&gt;Node3 -->
<g id="edge29_Node000020_Node000003" class="edge">
<title>Node20&#45;&gt;Node3</title>
<g id="a_edge29_Node000020_Node000003"><a xlink:title=" ">
<path fill="none" stroke="#63b8ff" d="M907.31,-162.75C967.79,-157.95 1046.64,-147.14 1066.68,-123 1071.51,-117.19 1071.31,-111.97 1066.68,-106 1017.47,-42.52 759.26,-18.19 668.93,-11.55"/>
<polygon fill="#63b8ff" stroke="#63b8ff" points="668.99,-8.04 658.77,-10.82 668.49,-15.03 668.99,-8.04"/>
</a>
</g>
</g>
<!-- Node20&#45;&gt;Node5 -->
<g id="edge33_Node000020_Node000005" class="edge">
<title>Node20&#45;&gt;Node5</title>
<g id="a_edge33_Node000020_Node000005"><a xlink:title=" ">
<path fill="none" stroke="#63b8ff" d="M823.12,-158.95C802.33,-144.23 756.58,-112.56 738.68,-106 712.54,-96.42 534.27,-75.52 455.72,-66.63"/>
<polygon fill="#63b8ff" stroke="#63b8ff" points="455.66,-63.1 445.33,-65.46 454.87,-70.05 455.66,-63.1"/>
</a>
</g>
</g>
<!-- Node20&#45;&gt;Node10 -->
<g id="edge34_Node000020_Node000010" class="edge">
<title>Node20&#45;&gt;Node10</title>
<g id="a_edge34_Node000020_Node000010"><a xlink:title=" ">
<path fill="none" stroke="#63b8ff" d="M815.53,-158.97C795.19,-150.54 761.96,-136.76 738.36,-126.98"/>
<polygon fill="#63b8ff" stroke="#63b8ff" points="739.48,-123.65 728.91,-123.06 736.8,-130.12 739.48,-123.65"/>
</a>
</g>
</g>
<!-- Node20&#45;&gt;Node11 -->
<g id="edge35_Node000020_Node000011" class="edge">
<title>Node20&#45;&gt;Node11</title>
<g id="a_edge35_Node000020_Node000011"><a xlink:title=" ">
<path fill="none" stroke="#63b8ff" d="M793.84,-158.97C744.06,-149.57 659.15,-133.53 607.55,-123.79"/>
<polygon fill="#63b8ff" stroke="#63b8ff" points="608.18,-120.34 597.7,-121.93 606.88,-127.22 608.18,-120.34"/>
</a>
</g>
</g>
<!-- Node20&#45;&gt;Node13 -->
<g id="edge30_Node000020_Node000013" class="edge">
<title>Node20&#45;&gt;Node13</title>
<g id="a_edge30_Node000020_Node000013"><a xlink:title=" ">
<path fill="none" stroke="#63b8ff" d="M839.2,-158.61C847.12,-146.2 859.54,-121.9 847.68,-106 840.91,-96.91 777.71,-80.48 736.71,-70.62"/>
<polygon fill="#63b8ff" stroke="#63b8ff" points="737.35,-67.18 726.81,-68.27 735.73,-73.99 737.35,-67.18"/>
</a>
</g>
</g>
<!-- Node20&#45;&gt;Node14 -->
<g id="edge31_Node000020_Node000014" class="edge">
<title>Node20&#45;&gt;Node14</title>
<g id="a_edge31_Node000020_Node000014"><a xlink:title=" ">
<path fill="none" stroke="#63b8ff" d="M827.67,-158.66C817.49,-145.88 795.59,-120.52 771.68,-106 753.91,-95.21 700.24,-79.23 667.06,-69.94"/>
<polygon fill="#63b8ff" stroke="#63b8ff" points="667.65,-66.47 657.08,-67.18 665.78,-73.22 667.65,-66.47"/>
</a>
</g>
</g>
<!-- Node20&#45;&gt;Node16 -->
<g id="edge36_Node000020_Node000016" class="edge">
<title>Node20&#45;&gt;Node16</title>
<g id="a_edge36_Node000020_Node000016"><a xlink:title=" ">
<path fill="none" stroke="#63b8ff" d="M865.15,-158.96C897.95,-149.55 942.19,-131.53 923.68,-106 905.38,-80.75 871.99,-69.89 843.25,-65.33"/>
<polygon fill="#63b8ff" stroke="#63b8ff" points="843.69,-61.86 833.31,-63.97 842.74,-68.79 843.69,-61.86"/>
</a>
</g>
</g>
<!-- Node21 -->
<g id="Node000021" class="node">
<title>Node21</title>
<g id="a_Node000021"><a xlink:title=" ">
<polygon fill="#e0e0e0" stroke="#999999" points="1057.68,-123 975.68,-123 975.68,-106 1057.68,-106 1057.68,-123"/>
<text text-anchor="middle" x="1016.68" y="-112.6" font-family="Helvetica,sans-Serif" font-size="8.00">memory_resource</text>
</a>
</g>
</g>
<!-- Node20&#45;&gt;Node21 -->
<g id="edge32_Node000020_Node000021" class="edge">
<title>Node20&#45;&gt;Node21</title>
<g id="a_edge32_Node000020_Node000021"><a xlink:title=" ">
<path fill="none" stroke="#63b8ff" d="M860.69,-158.97C892.18,-150.2 944.4,-135.64 979.66,-125.82"/>
<polygon fill="#63b8ff" stroke="#63b8ff" points="980.88,-129.11 989.57,-123.06 979,-122.37 980.88,-129.11"/>
</a>
</g>
</g>
<!-- Node22&#45;&gt;Node3 -->
<g id="edge39_Node000022_Node000003" class="edge">
<title>Node22&#45;&gt;Node3</title>
<g id="a_edge39_Node000022_Node000003"><a xlink:title=" ">
<path fill="none" stroke="#63b8ff" d="M661.93,-161.78C736.48,-150.62 895.74,-118.49 842.68,-53 821.15,-26.42 720.64,-15.42 668.8,-11.45"/>
<polygon fill="#63b8ff" stroke="#63b8ff" points="669.04,-7.96 658.82,-10.73 668.54,-14.94 669.04,-7.96"/>
</a>
</g>
</g>
<!-- Node22&#45;&gt;Node5 -->
<g id="edge41_Node000022_Node000005" class="edge">
<title>Node22&#45;&gt;Node5</title>
<g id="a_edge41_Node000022_Node000005"><a xlink:title=" ">
<path fill="none" stroke="#63b8ff" d="M605.17,-159C583.72,-150.93 549.27,-137.31 520.68,-123 491.44,-108.36 459.21,-88.6 438.97,-75.7"/>
<polygon fill="#63b8ff" stroke="#63b8ff" points="440.62,-72.6 430.31,-70.14 436.83,-78.49 440.62,-72.6"/>
</a>
</g>
</g>
<!-- Node22&#45;&gt;Node10 -->
<g id="edge42_Node000022_Node000010" class="edge">
<title>Node22&#45;&gt;Node10</title>
<g id="a_edge42_Node000022_Node000010"><a xlink:title=" ">
<path fill="none" stroke="#63b8ff" d="M638.23,-158.97C651.66,-150.91 673.22,-137.98 689.33,-128.31"/>
<polygon fill="#63b8ff" stroke="#63b8ff" points="691.32,-131.2 698.09,-123.06 687.71,-125.2 691.32,-131.2"/>
</a>
</g>
</g>
<!-- Node22&#45;&gt;Node11 -->
<g id="edge43_Node000022_Node000011" class="edge">
<title>Node22&#45;&gt;Node11</title>
<g id="a_edge43_Node000022_Node000011"><a xlink:title=" ">
<path fill="none" stroke="#63b8ff" d="M616.53,-158.97C607.19,-151.29 592.47,-139.18 580.93,-129.69"/>
<polygon fill="#63b8ff" stroke="#63b8ff" points="582.82,-126.71 572.87,-123.06 578.37,-132.11 582.82,-126.71"/>
</a>
</g>
</g>
<!-- Node22&#45;&gt;Node14 -->
<g id="edge40_Node000022_Node000014" class="edge">
<title>Node22&#45;&gt;Node14</title>
<g id="a_edge40_Node000022_Node000014"><a xlink:title=" ">
<path fill="none" stroke="#63b8ff" d="M626.74,-158.68C628.97,-142.11 634.22,-103.11 637.3,-80.18"/>
<polygon fill="#63b8ff" stroke="#63b8ff" points="640.79,-80.5 638.66,-70.12 633.85,-79.57 640.79,-80.5"/>
</a>
</g>
</g>
<!-- Node22&#45;&gt;Node16 -->
<g id="edge44_Node000022_Node000016" class="edge">
<title>Node22&#45;&gt;Node16</title>
<g id="a_edge44_Node000022_Node000016"><a xlink:title=" ">
<path fill="none" stroke="#63b8ff" d="M656.94,-158.96C680.83,-152.19 713.77,-140.56 738.68,-123 755.79,-110.94 770.82,-92.03 780.27,-78.57"/>
<polygon fill="#63b8ff" stroke="#63b8ff" points="783.17,-80.51 785.87,-70.27 777.37,-76.6 783.17,-80.51"/>
</a>
</g>
</g>
</g>
</svg>
