<?xml version="1.0" encoding="UTF-8" standalone="no"?>
<!DOCTYPE svg PUBLIC "-//W3C//DTD SVG 1.1//EN"
 "http://www.w3.org/Graphics/SVG/1.1/DTD/svg11.dtd">
<!-- Generated by graphviz version 2.43.0 (0)
 -->
<!-- Title: jps.hpp Pages: 1 -->
<svg width="1597pt" height="237pt"
 viewBox="0.00 0.00 1597.44 237.00" xmlns="http://www.w3.org/2000/svg" xmlns:xlink="http://www.w3.org/1999/xlink">
<g id="graph0" class="graph" transform="scale(1 1) rotate(0) translate(4 233)">
<title>jps.hpp</title>
<!-- Node1 -->
<g id="Node000001" class="node">
<title>Node1</title>
<g id="a_Node000001"><a xlink:title=" ">
<polygon fill="#999999" stroke="#666666" points="648.94,-229 601.94,-229 601.94,-212 648.94,-212 648.94,-229"/>
<text text-anchor="middle" x="625.44" y="-218.6" font-family="Helvetica,sans-Serif" font-size="8.00">jps.hpp</text>
</a>
</g>
</g>
<!-- Node2 -->
<g id="Node000002" class="node">
<title>Node2</title>
<g id="a_Node000002"><a xlink:title=" ">
<polygon fill="#e0e0e0" stroke="#999999" points="180.44,-70 142.44,-70 142.44,-53 180.44,-53 180.44,-70"/>
<text text-anchor="middle" x="161.44" y="-59.6" font-family="Helvetica,sans-Serif" font-size="8.00">array</text>
</a>
</g>
</g>
<!-- Node1&#45;&gt;Node2 -->
<g id="edge1_Node000001_Node000002" class="edge">
<title>Node1&#45;&gt;Node2</title>
<g id="a_edge1_Node000001_Node000002"><a xlink:title=" ">
<path fill="none" stroke="#63b8ff" d="M601.84,-219.67C499.15,-219.88 92.91,-214.82 16.44,-123 -16.97,-82.88 80.62,-68.94 132.01,-64.45"/>
<polygon fill="#63b8ff" stroke="#63b8ff" points="132.52,-67.92 142.21,-63.63 131.96,-60.94 132.52,-67.92"/>
</a>
</g>
</g>
<!-- Node3 -->
<g id="Node000003" class="node">
<title>Node3</title>
<g id="a_Node000003"><a xlink:title=" ">
<polygon fill="#e0e0e0" stroke="#999999" points="948.94,-17 901.94,-17 901.94,0 948.94,0 948.94,-17"/>
<text text-anchor="middle" x="925.44" y="-6.6" font-family="Helvetica,sans-Serif" font-size="8.00">cstddef</text>
</a>
</g>
</g>
<!-- Node1&#45;&gt;Node3 -->
<g id="edge2_Node000001_Node000003" class="edge">
<title>Node1&#45;&gt;Node3</title>
<g id="a_edge2_Node000001_Node000003"><a xlink:title=" ">
<path fill="none" stroke="#63b8ff" d="M601.92,-219.45C509.56,-219 171.99,-214.67 73.44,-176 33.35,-160.27 -17.44,-141.84 6.44,-106 40.35,-55.1 73.82,-66.65 133.44,-53 280.97,-19.22 759.1,-11.38 891.29,-9.84"/>
<polygon fill="#63b8ff" stroke="#63b8ff" points="891.65,-13.33 901.61,-9.72 891.57,-6.33 891.65,-13.33"/>
</a>
</g>
</g>
<!-- Node4 -->
<g id="Node000004" class="node">
<title>Node4</title>
<g id="a_Node000004"><a xlink:title=" ">
<polygon fill="#e0e0e0" stroke="#999999" points="357.44,-176 313.44,-176 313.44,-159 357.44,-159 357.44,-176"/>
<text text-anchor="middle" x="335.44" y="-165.6" font-family="Helvetica,sans-Serif" font-size="8.00">cstdint</text>
</a>
</g>
</g>
<!-- Node1&#45;&gt;Node4 -->
<g id="edge3_Node000001_Node000004" class="edge">
<title>Node1&#45;&gt;Node4</title>
<g id="a_edge3_Node000001_Node000004"><a xlink:title=" ">
<path fill="none" stroke="#63b8ff" d="M601.93,-215.76C557.04,-208.56 456.05,-192.05 371.44,-176 370.17,-175.76 368.87,-175.51 367.57,-175.25"/>
<polygon fill="#63b8ff" stroke="#63b8ff" points="367.99,-171.77 357.5,-173.23 366.61,-178.63 367.99,-171.77"/>
</a>
</g>
</g>
<!-- Node5 -->
<g id="Node000005" class="node">
<title>Node5</title>
<g id="a_Node000005"><a xlink:title=" ">
<polygon fill="#e0e0e0" stroke="#999999" points="713.94,-70 654.94,-70 654.94,-53 713.94,-53 713.94,-70"/>
<text text-anchor="middle" x="684.44" y="-59.6" font-family="Helvetica,sans-Serif" font-size="8.00">type_traits</text>
</a>
</g>
</g>
<!-- Node1&#45;&gt;Node5 -->
<g id="edge4_Node000001_Node000005" class="edge">
<title>Node1&#45;&gt;Node5</title>
<g id="a_edge4_Node000001_Node000005"><a xlink:title=" ">
<path fill="none" stroke="#63b8ff" d="M613.24,-211.94C585.06,-193.53 519.94,-145.04 548.44,-106 570.24,-76.14 612.8,-66.31 644.53,-63.3"/>
<polygon fill="#63b8ff" stroke="#63b8ff" points="645.12,-66.77 654.83,-62.53 644.59,-59.79 645.12,-66.77"/>
</a>
</g>
</g>
<!-- Node6 -->
<g id="Node000006" class="node">
<title>Node6</title>
<g id="a_Node000006"><a xlink:title=" ">
<polygon fill="#e0e0e0" stroke="#999999" points="64.94,-123 25.94,-123 25.94,-106 64.94,-106 64.94,-123"/>
<text text-anchor="middle" x="45.44" y="-112.6" font-family="Helvetica,sans-Serif" font-size="8.00">utility</text>
</a>
</g>
</g>
<!-- Node1&#45;&gt;Node6 -->
<g id="edge5_Node000001_Node000006" class="edge">
<title>Node1&#45;&gt;Node6</title>
<g id="a_edge5_Node000001_Node000006"><a xlink:title=" ">
<path fill="none" stroke="#63b8ff" d="M601.78,-216.63C560.85,-211.28 474.51,-198.25 404.44,-176 386.81,-170.4 384.23,-164.07 366.44,-159 352.46,-155.02 151.64,-129.09 74.93,-119.26"/>
<polygon fill="#63b8ff" stroke="#63b8ff" points="75.33,-115.79 64.96,-117.99 74.44,-122.73 75.33,-115.79"/>
</a>
</g>
</g>
<!-- Node7 -->
<g id="Node000007" class="node">
<title>Node7</title>
<g id="a_Node000007"><a xlink:title=" ">
<polygon fill="#e0e0e0" stroke="#999999" points="743.44,-123 701.44,-123 701.44,-106 743.44,-106 743.44,-123"/>
<text text-anchor="middle" x="722.44" y="-112.6" font-family="Helvetica,sans-Serif" font-size="8.00">vector</text>
</a>
</g>
</g>
<!-- Node1&#45;&gt;Node7 -->
<g id="edge6_Node000001_Node000007" class="edge">
<title>Node1&#45;&gt;Node7</title>
<g id="a_edge6_Node000001_Node000007"><a xlink:title=" ">
<path fill="none" stroke="#63b8ff" d="M632.73,-211.68C648.82,-194.43 687.59,-152.87 708.5,-130.44"/>
<polygon fill="#63b8ff" stroke="#63b8ff" points="711.07,-132.83 715.33,-123.12 705.95,-128.05 711.07,-132.83"/>
</a>
</g>
</g>
<!-- Node8 -->
<g id="Node000008" class="node">
<title>Node8</title>
<g id="a_Node000008"><a xlink:href="../../dc/d8a/grid_8hpp.html" target="_top" xlink:title=" ">
<polygon fill="white" stroke="#666666" points="501.44,-176 413.44,-176 413.44,-159 501.44,-159 501.44,-176"/>
<text text-anchor="middle" x="457.44" y="-165.6" font-family="Helvetica,sans-Serif" font-size="8.00">../mazes/grid.hpp</text>
</a>
</g>
</g>
<!-- Node1&#45;&gt;Node8 -->
<g id="edge7_Node000001_Node000008" class="edge">
<title>Node1&#45;&gt;Node8</title>
<g id="a_edge7_Node000001_Node000008"><a xlink:title=" ">
<path fill="none" stroke="#63b8ff" d="M601.73,-212.3C573.12,-203.62 524.8,-188.95 492.03,-179"/>
<polygon fill="#63b8ff" stroke="#63b8ff" points="492.99,-175.63 482.4,-176.08 490.95,-182.33 492.99,-175.63"/>
</a>
</g>
</g>
<!-- Node11 -->
<g id="Node000011" class="node">
<title>Node11</title>
<g id="a_Node000011"><a xlink:href="../../df/d93/utils_8hpp.html" target="_top" xlink:title=" ">
<polygon fill="white" stroke="#666666" points="917.44,-123 837.44,-123 837.44,-106 917.44,-106 917.44,-123"/>
<text text-anchor="middle" x="877.44" y="-112.6" font-family="Helvetica,sans-Serif" font-size="8.00">../utils/utils.hpp</text>
</a>
</g>
</g>
<!-- Node1&#45;&gt;Node11 -->
<g id="edge41_Node000001_Node000011" class="edge">
<title>Node1&#45;&gt;Node11</title>
<g id="a_edge41_Node000001_Node000011"><a xlink:title=" ">
<path fill="none" stroke="#63b8ff" d="M643.97,-211.85C687.77,-193.78 797.87,-148.34 849.67,-126.96"/>
<polygon fill="#63b8ff" stroke="#63b8ff" points="851.31,-130.07 859.22,-123.02 848.64,-123.6 851.31,-130.07"/>
</a>
</g>
</g>
<!-- Node16 -->
<g id="Node000016" class="node">
<title>Node16</title>
<g id="a_Node000016"><a xlink:href="../../d7/d65/intrinsics_8hpp.html" target="_top" xlink:title=" ">
<polygon fill="#fff0f0" stroke="red" points="1294.94,-70 1195.94,-70 1195.94,-53 1294.94,-53 1294.94,-70"/>
<text text-anchor="middle" x="1245.44" y="-59.6" font-family="Helvetica,sans-Serif" font-size="8.00">../utils/intrinsics.hpp</text>
</a>
</g>
</g>
<!-- Node1&#45;&gt;Node16 -->
<g id="edge53_Node000001_Node000016" class="edge">
<title>Node1&#45;&gt;Node16</title>
<g id="a_edge53_Node000001_Node000016"><a xlink:title=" ">
<path fill="none" stroke="#63b8ff" d="M649.02,-218.72C744.88,-215.39 1105.5,-201.4 1216.44,-176 1278.87,-161.71 1314.43,-175.96 1350.44,-123 1367.56,-97.82 1331.77,-81.78 1297.42,-72.58"/>
<polygon fill="#63b8ff" stroke="#63b8ff" points="1297.89,-69.09 1287.34,-70.06 1296.19,-75.89 1297.89,-69.09"/>
</a>
</g>
</g>
<!-- Node21 -->
<g id="Node000021" class="node">
<title>Node21</title>
<g id="a_Node000021"><a xlink:href="../../d8/d62/existence__set_8hpp.html" target="_top" xlink:title=" ">
<polygon fill="white" stroke="#666666" points="1068.44,-176 898.44,-176 898.44,-159 1068.44,-159 1068.44,-176"/>
<text text-anchor="middle" x="983.44" y="-165.6" font-family="Helvetica,sans-Serif" font-size="8.00">../types/containers/existence_set.hpp</text>
</a>
</g>
</g>
<!-- Node1&#45;&gt;Node21 -->
<g id="edge32_Node000001_Node000021" class="edge">
<title>Node1&#45;&gt;Node21</title>
<g id="a_edge32_Node000001_Node000021"><a xlink:title=" ">
<path fill="none" stroke="#63b8ff" d="M649.21,-216.11C703.87,-208.33 840,-188.93 920.67,-177.44"/>
<polygon fill="#63b8ff" stroke="#63b8ff" points="921.3,-180.89 930.7,-176.01 920.31,-173.96 921.3,-180.89"/>
</a>
</g>
</g>
<!-- Node23 -->
<g id="Node000023" class="node">
<title>Node23</title>
<g id="a_Node000023"><a xlink:href="../../d2/d1c/solver_8hpp.html" target="_top" xlink:title=" ">
<polygon fill="white" stroke="#666666" points="1207.44,-176 1125.44,-176 1125.44,-159 1207.44,-159 1207.44,-176"/>
<text text-anchor="middle" x="1166.44" y="-165.6" font-family="Helvetica,sans-Serif" font-size="8.00">base/solver.hpp</text>
</a>
</g>
</g>
<!-- Node1&#45;&gt;Node23 -->
<g id="edge42_Node000001_Node000023" class="edge">
<title>Node1&#45;&gt;Node23</title>
<g id="a_edge42_Node000001_Node000023"><a xlink:title=" ">
<path fill="none" stroke="#63b8ff" d="M649.03,-217.28C730.48,-209.6 1001.09,-184.09 1115.1,-173.34"/>
<polygon fill="#63b8ff" stroke="#63b8ff" points="1115.68,-176.8 1125.31,-172.38 1115.02,-169.83 1115.68,-176.8"/>
</a>
</g>
</g>
<!-- Node25 -->
<g id="Node000025" class="node">
<title>Node25</title>
<g id="a_Node000025"><a xlink:href="../../d0/def/unmanaged__node_8hpp.html" target="_top" xlink:title=" ">
<polygon fill="white" stroke="#666666" points="1589.44,-176 1457.44,-176 1457.44,-159 1589.44,-159 1589.44,-176"/>
<text text-anchor="middle" x="1523.44" y="-165.6" font-family="Helvetica,sans-Serif" font-size="8.00">base/unmanaged_node.hpp</text>
</a>
</g>
</g>
<!-- Node1&#45;&gt;Node25 -->
<g id="edge50_Node000001_Node000025" class="edge">
<title>Node1&#45;&gt;Node25</title>
<g id="a_edge50_Node000001_Node000025"><a xlink:title=" ">
<path fill="none" stroke="#63b8ff" d="M649.22,-218.59C747.25,-214.75 1129.63,-199.04 1443.44,-176 1444.55,-175.92 1445.67,-175.83 1446.8,-175.75"/>
<polygon fill="#63b8ff" stroke="#63b8ff" points="1447.41,-179.21 1457.1,-174.93 1446.86,-172.23 1447.41,-179.21"/>
</a>
</g>
</g>
<!-- Node8&#45;&gt;Node2 -->
<g id="edge9_Node000008_Node000002" class="edge">
<title>Node8&#45;&gt;Node2</title>
<g id="a_edge9_Node000008_Node000002"><a xlink:title=" ">
<path fill="none" stroke="#63b8ff" d="M413.42,-160.79C408.7,-160.18 403.97,-159.58 399.44,-159 335.9,-150.89 155.81,-171.04 113.44,-123 99.57,-107.27 120.56,-88.18 139,-75.7"/>
<polygon fill="#63b8ff" stroke="#63b8ff" points="141.14,-78.49 147.68,-70.16 137.37,-72.59 141.14,-78.49"/>
</a>
</g>
</g>
<!-- Node8&#45;&gt;Node3 -->
<g id="edge11_Node000008_Node000003" class="edge">
<title>Node8&#45;&gt;Node3</title>
<g id="a_edge11_Node000008_Node000003"><a xlink:title=" ">
<path fill="none" stroke="#63b8ff" d="M423.71,-158.99C388.24,-149.55 340.28,-131.45 361.44,-106 429.57,-24.03 779.82,-11.67 891.31,-9.82"/>
<polygon fill="#63b8ff" stroke="#63b8ff" points="891.69,-13.32 901.64,-9.67 891.58,-6.32 891.69,-13.32"/>
</a>
</g>
</g>
<!-- Node8&#45;&gt;Node5 -->
<g id="edge12_Node000008_Node000005" class="edge">
<title>Node8&#45;&gt;Node5</title>
<g id="a_edge12_Node000008_Node000005"><a xlink:title=" ">
<path fill="none" stroke="#63b8ff" d="M429.36,-158.97C397,-148.96 350.76,-129.75 371.44,-106 406.4,-65.84 568.31,-61.57 644.54,-61.86"/>
<polygon fill="#63b8ff" stroke="#63b8ff" points="644.69,-65.36 654.71,-61.92 644.73,-58.36 644.69,-65.36"/>
</a>
</g>
</g>
<!-- Node8&#45;&gt;Node6 -->
<g id="edge13_Node000008_Node000006" class="edge">
<title>Node8&#45;&gt;Node6</title>
<g id="a_edge13_Node000008_Node000006"><a xlink:title=" ">
<path fill="none" stroke="#63b8ff" d="M413.43,-160.73C408.71,-160.14 403.98,-159.55 399.44,-159 257.35,-141.82 220.62,-146.45 79.44,-123 77.99,-122.76 76.5,-122.5 75,-122.22"/>
<polygon fill="#63b8ff" stroke="#63b8ff" points="75.64,-118.77 65.15,-120.22 74.25,-125.63 75.64,-118.77"/>
</a>
</g>
</g>
<!-- Node8&#45;&gt;Node7 -->
<g id="edge14_Node000008_Node000007" class="edge">
<title>Node8&#45;&gt;Node7</title>
<g id="a_edge14_Node000008_Node000007"><a xlink:title=" ">
<path fill="none" stroke="#63b8ff" d="M501.78,-159.14C547.02,-151.43 619.47,-138.58 691.08,-123.18"/>
<polygon fill="#63b8ff" stroke="#63b8ff" points="692.14,-126.53 701.17,-120.99 690.66,-119.69 692.14,-126.53"/>
</a>
</g>
</g>
<!-- Node9 -->
<g id="Node000009" class="node">
<title>Node9</title>
<g id="a_Node000009"><a xlink:title=" ">
<polygon fill="#e0e0e0" stroke="#999999" points="501.44,-123 445.44,-123 445.44,-106 501.44,-106 501.44,-123"/>
<text text-anchor="middle" x="473.44" y="-112.6" font-family="Helvetica,sans-Serif" font-size="8.00">algorithm</text>
</a>
</g>
</g>
<!-- Node8&#45;&gt;Node9 -->
<g id="edge8_Node000008_Node000009" class="edge">
<title>Node8&#45;&gt;Node9</title>
<g id="a_edge8_Node000008_Node000009"><a xlink:title=" ">
<path fill="none" stroke="#63b8ff" d="M459.8,-158.97C461.95,-152.12 465.21,-141.74 468,-132.84"/>
<polygon fill="#63b8ff" stroke="#63b8ff" points="471.41,-133.65 471.07,-123.06 464.74,-131.55 471.41,-133.65"/>
</a>
</g>
</g>
<!-- Node10 -->
<g id="Node000010" class="node">
<title>Node10</title>
<g id="a_Node000010"><a xlink:title=" ">
<polygon fill="#e0e0e0" stroke="#999999" points="426.94,-123 379.94,-123 379.94,-106 426.94,-106 426.94,-123"/>
<text text-anchor="middle" x="403.44" y="-112.6" font-family="Helvetica,sans-Serif" font-size="8.00">cassert</text>
</a>
</g>
</g>
<!-- Node8&#45;&gt;Node10 -->
<g id="edge10_Node000008_Node000010" class="edge">
<title>Node8&#45;&gt;Node10</title>
<g id="a_edge10_Node000008_Node000010"><a xlink:title=" ">
<path fill="none" stroke="#63b8ff" d="M449.47,-158.97C441.42,-151.37 428.76,-139.41 418.76,-129.97"/>
<polygon fill="#63b8ff" stroke="#63b8ff" points="421.11,-127.38 411.44,-123.06 416.31,-132.47 421.11,-127.38"/>
</a>
</g>
</g>
<!-- Node8&#45;&gt;Node11 -->
<g id="edge15_Node000008_Node000011" class="edge">
<title>Node8&#45;&gt;Node11</title>
<g id="a_edge15_Node000008_Node000011"><a xlink:title=" ">
<path fill="none" stroke="#63b8ff" d="M501.59,-161.14C580.34,-151.58 744.52,-131.64 827.35,-121.58"/>
<polygon fill="#63b8ff" stroke="#63b8ff" points="827.77,-125.06 837.28,-120.38 826.93,-118.11 827.77,-125.06"/>
</a>
</g>
</g>
<!-- Node8&#45;&gt;Node16 -->
<g id="edge28_Node000008_Node000016" class="edge">
<title>Node8&#45;&gt;Node16</title>
<g id="a_edge28_Node000008_Node000016"><a xlink:title=" ">
<path fill="none" stroke="#63b8ff" d="M501.63,-164.24C585.06,-159.58 771.31,-147.22 926.44,-123 961.07,-117.59 969.07,-112.88 1003.44,-106 1067.33,-93.21 1141.07,-80.21 1190.19,-71.79"/>
<polygon fill="#63b8ff" stroke="#63b8ff" points="1191.02,-75.2 1200.29,-70.07 1189.84,-68.3 1191.02,-75.2"/>
</a>
</g>
</g>
<!-- Node19 -->
<g id="Node000019" class="node">
<title>Node19</title>
<g id="a_Node000019"><a xlink:href="../../d1/d2d/weighted__node_8hpp.html" target="_top" xlink:title=" ">
<polygon fill="white" stroke="#666666" points="683.44,-123 557.44,-123 557.44,-106 683.44,-106 683.44,-123"/>
<text text-anchor="middle" x="620.44" y="-112.6" font-family="Helvetica,sans-Serif" font-size="8.00">nodes/weighted_node.hpp</text>
</a>
</g>
</g>
<!-- Node8&#45;&gt;Node19 -->
<g id="edge25_Node000008_Node000019" class="edge">
<title>Node8&#45;&gt;Node19</title>
<g id="a_edge25_Node000008_Node000019"><a xlink:title=" ">
<path fill="none" stroke="#63b8ff" d="M481.49,-158.97C509.3,-150.27 555.26,-135.89 586.65,-126.07"/>
<polygon fill="#63b8ff" stroke="#63b8ff" points="587.79,-129.38 596.29,-123.06 585.7,-122.7 587.79,-129.38"/>
</a>
</g>
</g>
<!-- Node20 -->
<g id="Node000020" class="node">
<title>Node20</title>
<g id="a_Node000020"><a xlink:href="../../d9/dfc/coord_8hpp.html" target="_top" xlink:title=" ">
<polygon fill="white" stroke="#666666" points="284.94,-123 121.94,-123 121.94,-106 284.94,-106 284.94,-123"/>
<text text-anchor="middle" x="203.44" y="-112.6" font-family="Helvetica,sans-Serif" font-size="8.00">include/types/containers/coord.hpp</text>
</a>
</g>
</g>
<!-- Node8&#45;&gt;Node20 -->
<g id="edge29_Node000008_Node000020" class="edge">
<title>Node8&#45;&gt;Node20</title>
<g id="a_edge29_Node000008_Node000020"><a xlink:title=" ">
<path fill="none" stroke="#63b8ff" d="M419.96,-158.97C375.13,-149.97 300.01,-134.89 251.09,-125.07"/>
<polygon fill="#63b8ff" stroke="#63b8ff" points="251.56,-121.59 241.07,-123.06 250.19,-128.46 251.56,-121.59"/>
</a>
</g>
</g>
<!-- Node11&#45;&gt;Node2 -->
<g id="edge16_Node000011_Node000002" class="edge">
<title>Node11&#45;&gt;Node2</title>
<g id="a_edge16_Node000011_Node000002"><a xlink:title=" ">
<path fill="none" stroke="#63b8ff" d="M837.41,-110.65C708.16,-101.44 303.8,-72.64 190.95,-64.6"/>
<polygon fill="#63b8ff" stroke="#63b8ff" points="190.89,-61.09 180.67,-63.87 190.39,-68.07 190.89,-61.09"/>
</a>
</g>
</g>
<!-- Node11&#45;&gt;Node3 -->
<g id="edge18_Node000011_Node000003" class="edge">
<title>Node11&#45;&gt;Node3</title>
<g id="a_edge18_Node000011_Node000003"><a xlink:title=" ">
<path fill="none" stroke="#63b8ff" d="M883.49,-105.89C889.92,-97.5 900.02,-83.43 906.44,-70 913.06,-56.16 918.1,-39.46 921.32,-27.12"/>
<polygon fill="#63b8ff" stroke="#63b8ff" points="924.77,-27.76 923.76,-17.21 917.97,-26.09 924.77,-27.76"/>
</a>
</g>
</g>
<!-- Node11&#45;&gt;Node5 -->
<g id="edge22_Node000011_Node000005" class="edge">
<title>Node11&#45;&gt;Node5</title>
<g id="a_edge22_Node000011_Node000005"><a xlink:title=" ">
<path fill="none" stroke="#63b8ff" d="M848.96,-105.97C815.61,-97.16 760.19,-82.52 723.01,-72.69"/>
<polygon fill="#63b8ff" stroke="#63b8ff" points="723.6,-69.23 713.03,-70.06 721.81,-75.99 723.6,-69.23"/>
</a>
</g>
</g>
<!-- Node12 -->
<g id="Node000012" class="node">
<title>Node12</title>
<g id="a_Node000012"><a xlink:title=" ">
<polygon fill="#e0e0e0" stroke="#999999" points="839.44,-70 797.44,-70 797.44,-53 839.44,-53 839.44,-70"/>
<text text-anchor="middle" x="818.44" y="-59.6" font-family="Helvetica,sans-Serif" font-size="8.00">cmath</text>
</a>
</g>
</g>
<!-- Node11&#45;&gt;Node12 -->
<g id="edge17_Node000011_Node000012" class="edge">
<title>Node11&#45;&gt;Node12</title>
<g id="a_edge17_Node000011_Node000012"><a xlink:title=" ">
<path fill="none" stroke="#63b8ff" d="M868.73,-105.97C859.84,-98.29 845.83,-86.18 834.85,-76.69"/>
<polygon fill="#63b8ff" stroke="#63b8ff" points="837.03,-73.95 827.18,-70.06 832.46,-79.24 837.03,-73.95"/>
</a>
</g>
</g>
<!-- Node13 -->
<g id="Node000013" class="node">
<title>Node13</title>
<g id="a_Node000013"><a xlink:title=" ">
<polygon fill="#e0e0e0" stroke="#999999" points="1106.44,-70 1048.44,-70 1048.44,-53 1106.44,-53 1106.44,-70"/>
<text text-anchor="middle" x="1077.44" y="-59.6" font-family="Helvetica,sans-Serif" font-size="8.00">functional</text>
</a>
</g>
</g>
<!-- Node11&#45;&gt;Node13 -->
<g id="edge19_Node000011_Node000013" class="edge">
<title>Node11&#45;&gt;Node13</title>
<g id="a_edge19_Node000011_Node000013"><a xlink:title=" ">
<path fill="none" stroke="#63b8ff" d="M906.95,-105.97C941.76,-97.1 999.76,-82.31 1038.3,-72.48"/>
<polygon fill="#63b8ff" stroke="#63b8ff" points="1039.31,-75.84 1048.13,-69.97 1037.58,-69.05 1039.31,-75.84"/>
</a>
</g>
</g>
<!-- Node14 -->
<g id="Node000014" class="node">
<title>Node14</title>
<g id="a_Node000014"><a xlink:title=" ">
<polygon fill="#e0e0e0" stroke="#999999" points="997.44,-70 959.44,-70 959.44,-53 997.44,-53 997.44,-70"/>
<text text-anchor="middle" x="978.44" y="-59.6" font-family="Helvetica,sans-Serif" font-size="8.00">limits</text>
</a>
</g>
</g>
<!-- Node11&#45;&gt;Node14 -->
<g id="edge20_Node000011_Node000014" class="edge">
<title>Node11&#45;&gt;Node14</title>
<g id="a_edge20_Node000011_Node000014"><a xlink:title=" ">
<path fill="none" stroke="#63b8ff" d="M892.34,-105.97C908.68,-97.73 935.12,-84.37 954.4,-74.64"/>
<polygon fill="#63b8ff" stroke="#63b8ff" points="956.13,-77.69 963.48,-70.06 952.97,-71.44 956.13,-77.69"/>
</a>
</g>
</g>
<!-- Node15 -->
<g id="Node000015" class="node">
<title>Node15</title>
<g id="a_Node000015"><a xlink:title=" ">
<polygon fill="#e0e0e0" stroke="#999999" points="897.44,-70 857.44,-70 857.44,-53 897.44,-53 897.44,-70"/>
<text text-anchor="middle" x="877.44" y="-59.6" font-family="Helvetica,sans-Serif" font-size="8.00">string</text>
</a>
</g>
</g>
<!-- Node11&#45;&gt;Node15 -->
<g id="edge21_Node000011_Node000015" class="edge">
<title>Node11&#45;&gt;Node15</title>
<g id="a_edge21_Node000011_Node000015"><a xlink:title=" ">
<path fill="none" stroke="#63b8ff" d="M877.44,-105.97C877.44,-99.19 877.44,-88.97 877.44,-80.13"/>
<polygon fill="#63b8ff" stroke="#63b8ff" points="880.94,-80.06 877.44,-70.06 873.94,-80.06 880.94,-80.06"/>
</a>
</g>
</g>
<!-- Node11&#45;&gt;Node16 -->
<g id="edge23_Node000011_Node000016" class="edge">
<title>Node11&#45;&gt;Node16</title>
<g id="a_edge23_Node000011_Node000016"><a xlink:title=" ">
<path fill="none" stroke="#63b8ff" d="M917.54,-107.93C922.23,-107.28 926.94,-106.62 931.44,-106 1019.87,-93.73 1122.31,-79.55 1185.5,-70.8"/>
<polygon fill="#63b8ff" stroke="#63b8ff" points="1186.25,-74.23 1195.68,-69.39 1185.29,-67.29 1186.25,-74.23"/>
</a>
</g>
</g>
<!-- Node16&#45;&gt;Node3 -->
<g id="edge24_Node000016_Node000003" class="edge">
<title>Node16&#45;&gt;Node3</title>
<g id="a_edge24_Node000016_Node000003"><a xlink:title=" ">
<path fill="none" stroke="#63b8ff" d="M1198.22,-52.97C1132.92,-42.57 1016.62,-24.03 959.29,-14.9"/>
<polygon fill="#63b8ff" stroke="#63b8ff" points="959.73,-11.42 949.3,-13.3 958.62,-18.33 959.73,-11.42"/>
</a>
</g>
</g>
<!-- Node19&#45;&gt;Node5 -->
<g id="edge27_Node000019_Node000005" class="edge">
<title>Node19&#45;&gt;Node5</title>
<g id="a_edge27_Node000019_Node000005"><a xlink:title=" ">
<path fill="none" stroke="#63b8ff" d="M629.88,-105.97C639.62,-98.22 655.03,-85.94 666.99,-76.41"/>
<polygon fill="#63b8ff" stroke="#63b8ff" points="669.32,-79.03 674.96,-70.06 664.96,-73.55 669.32,-79.03"/>
</a>
</g>
</g>
<!-- Node19&#45;&gt;Node14 -->
<g id="edge26_Node000019_Node000014" class="edge">
<title>Node19&#45;&gt;Node14</title>
<g id="a_edge26_Node000019_Node000014"><a xlink:title=" ">
<path fill="none" stroke="#63b8ff" d="M673.26,-105.97C749.78,-95.07 888.87,-75.26 949.21,-66.66"/>
<polygon fill="#63b8ff" stroke="#63b8ff" points="949.79,-70.12 959.2,-65.24 948.8,-63.19 949.79,-70.12"/>
</a>
</g>
</g>
<!-- Node20&#45;&gt;Node2 -->
<g id="edge30_Node000020_Node000002" class="edge">
<title>Node20&#45;&gt;Node2</title>
<g id="a_edge30_Node000020_Node000002"><a xlink:title=" ">
<path fill="none" stroke="#63b8ff" d="M197.24,-105.97C191.16,-98.59 181.71,-87.12 174.05,-77.81"/>
<polygon fill="#63b8ff" stroke="#63b8ff" points="176.72,-75.55 167.66,-70.06 171.32,-80 176.72,-75.55"/>
</a>
</g>
</g>
<!-- Node20&#45;&gt;Node3 -->
<g id="edge31_Node000020_Node000003" class="edge">
<title>Node20&#45;&gt;Node3</title>
<g id="a_edge31_Node000020_Node000003"><a xlink:title=" ">
<path fill="none" stroke="#63b8ff" d="M212.2,-105.83C228.21,-92.32 263.86,-64.63 299.44,-53 410.92,-16.57 777.68,-10.65 891.46,-9.69"/>
<polygon fill="#63b8ff" stroke="#63b8ff" points="891.69,-13.18 901.67,-9.61 891.64,-6.19 891.69,-13.18"/>
</a>
</g>
</g>
<!-- Node21&#45;&gt;Node3 -->
<g id="edge33_Node000021_Node000003" class="edge">
<title>Node21&#45;&gt;Node3</title>
<g id="a_edge33_Node000021_Node000003"><a xlink:title=" ">
<path fill="none" stroke="#63b8ff" d="M1067.35,-158.99C1089.75,-152.69 1111.56,-141.76 1125.44,-123 1136.67,-107.82 1136.33,-74.71 1115.44,-53 1094.18,-30.91 1007.82,-18.3 959.18,-12.81"/>
<polygon fill="#63b8ff" stroke="#63b8ff" points="959.44,-9.32 949.12,-11.72 958.68,-16.28 959.44,-9.32"/>
</a>
</g>
</g>
<!-- Node21&#45;&gt;Node5 -->
<g id="edge37_Node000021_Node000005" class="edge">
<title>Node21&#45;&gt;Node5</title>
<g id="a_edge37_Node000021_Node000005"><a xlink:title=" ">
<path fill="none" stroke="#63b8ff" d="M934.46,-158.93C895.88,-152.08 841.16,-140.38 795.44,-123 762.02,-110.3 726.19,-89.27 704.55,-75.65"/>
<polygon fill="#63b8ff" stroke="#63b8ff" points="706.23,-72.57 695.92,-70.14 702.47,-78.47 706.23,-72.57"/>
</a>
</g>
</g>
<!-- Node21&#45;&gt;Node7 -->
<g id="edge38_Node000021_Node000007" class="edge">
<title>Node21&#45;&gt;Node7</title>
<g id="a_edge38_Node000021_Node000007"><a xlink:title=" ">
<path fill="none" stroke="#63b8ff" d="M942.97,-158.98C897.71,-150.5 822.24,-136.18 757.44,-123 756.17,-122.74 754.88,-122.48 753.57,-122.21"/>
<polygon fill="#63b8ff" stroke="#63b8ff" points="754.03,-118.73 743.52,-120.09 752.59,-125.58 754.03,-118.73"/>
</a>
</g>
</g>
<!-- Node21&#45;&gt;Node11 -->
<g id="edge39_Node000021_Node000011" class="edge">
<title>Node21&#45;&gt;Node11</title>
<g id="a_edge39_Node000021_Node000011"><a xlink:title=" ">
<path fill="none" stroke="#63b8ff" d="M967.8,-158.97C950.58,-150.69 922.64,-137.25 902.39,-127.5"/>
<polygon fill="#63b8ff" stroke="#63b8ff" points="903.67,-124.24 893.14,-123.06 900.64,-130.55 903.67,-124.24"/>
</a>
</g>
</g>
<!-- Node21&#45;&gt;Node13 -->
<g id="edge34_Node000021_Node000013" class="edge">
<title>Node21&#45;&gt;Node13</title>
<g id="a_edge34_Node000021_Node000013"><a xlink:title=" ">
<path fill="none" stroke="#63b8ff" d="M1052.02,-158.94C1074.32,-152.86 1096.82,-142.06 1110.44,-123 1120.92,-108.33 1107.62,-89.96 1094.91,-77.34"/>
<polygon fill="#63b8ff" stroke="#63b8ff" points="1097.01,-74.51 1087.29,-70.3 1092.26,-79.66 1097.01,-74.51"/>
</a>
</g>
</g>
<!-- Node21&#45;&gt;Node14 -->
<g id="edge35_Node000021_Node000014" class="edge">
<title>Node21&#45;&gt;Node14</title>
<g id="a_edge35_Node000021_Node000014"><a xlink:title=" ">
<path fill="none" stroke="#63b8ff" d="M983.06,-158.68C982.27,-142.11 980.39,-103.11 979.29,-80.18"/>
<polygon fill="#63b8ff" stroke="#63b8ff" points="982.78,-79.95 978.81,-70.12 975.79,-80.28 982.78,-79.95"/>
</a>
</g>
</g>
<!-- Node21&#45;&gt;Node16 -->
<g id="edge40_Node000021_Node000016" class="edge">
<title>Node21&#45;&gt;Node16</title>
<g id="a_edge40_Node000021_Node000016"><a xlink:title=" ">
<path fill="none" stroke="#63b8ff" d="M1062.98,-158.99C1100.56,-153 1145.04,-142.26 1181.44,-123 1202.48,-111.86 1221.6,-91.9 1233.35,-77.96"/>
<polygon fill="#63b8ff" stroke="#63b8ff" points="1236.07,-80.16 1239.67,-70.19 1230.64,-75.74 1236.07,-80.16"/>
</a>
</g>
</g>
<!-- Node22 -->
<g id="Node000022" class="node">
<title>Node22</title>
<g id="a_Node000022"><a xlink:title=" ">
<polygon fill="#e0e0e0" stroke="#999999" points="1100.94,-123 1011.94,-123 1011.94,-106 1100.94,-106 1100.94,-123"/>
<text text-anchor="middle" x="1056.44" y="-112.6" font-family="Helvetica,sans-Serif" font-size="8.00">memory_resource</text>
</a>
</g>
</g>
<!-- Node21&#45;&gt;Node22 -->
<g id="edge36_Node000021_Node000022" class="edge">
<title>Node21&#45;&gt;Node22</title>
<g id="a_edge36_Node000021_Node000022"><a xlink:title=" ">
<path fill="none" stroke="#63b8ff" d="M994.21,-158.97C1005.53,-151.07 1023.57,-138.46 1037.32,-128.86"/>
<polygon fill="#63b8ff" stroke="#63b8ff" points="1039.43,-131.65 1045.62,-123.06 1035.42,-125.91 1039.43,-131.65"/>
</a>
</g>
</g>
<!-- Node23&#45;&gt;Node3 -->
<g id="edge43_Node000023_Node000003" class="edge">
<title>Node23&#45;&gt;Node3</title>
<g id="a_edge43_Node000023_Node000003"><a xlink:title=" ">
<path fill="none" stroke="#63b8ff" d="M1207.64,-162.63C1256.33,-157.1 1332.97,-145.07 1350.44,-123 1355.13,-117.07 1353.08,-113.08 1350.44,-106 1339.53,-76.78 1332.03,-67.54 1304.44,-53 1244.86,-21.59 1040.76,-12.63 959.36,-10.28"/>
<polygon fill="#63b8ff" stroke="#63b8ff" points="959.25,-6.77 949.16,-10 959.06,-13.77 959.25,-6.77"/>
</a>
</g>
</g>
<!-- Node23&#45;&gt;Node5 -->
<g id="edge45_Node000023_Node000005" class="edge">
<title>Node23&#45;&gt;Node5</title>
<g id="a_edge45_Node000023_Node000005"><a xlink:title=" ">
<path fill="none" stroke="#63b8ff" d="M1125.38,-162.78C1047.99,-155.52 883.39,-138.76 828.44,-123 811.04,-118.01 808.05,-113.19 791.44,-106 765.22,-94.66 735.06,-82.47 713.45,-73.89"/>
<polygon fill="#63b8ff" stroke="#63b8ff" points="714.46,-70.53 703.88,-70.1 711.89,-77.03 714.46,-70.53"/>
</a>
</g>
</g>
<!-- Node23&#45;&gt;Node7 -->
<g id="edge46_Node000023_Node000007" class="edge">
<title>Node23&#45;&gt;Node7</title>
<g id="a_edge46_Node000023_Node000007"><a xlink:title=" ">
<path fill="none" stroke="#63b8ff" d="M1125.07,-161.75C1036.86,-151.62 831.99,-128.08 753.66,-119.09"/>
<polygon fill="#63b8ff" stroke="#63b8ff" points="753.8,-115.58 743.47,-117.92 753.01,-122.53 753.8,-115.58"/>
</a>
</g>
</g>
<!-- Node23&#45;&gt;Node11 -->
<g id="edge47_Node000023_Node000011" class="edge">
<title>Node23&#45;&gt;Node11</title>
<g id="a_edge47_Node000023_Node000011"><a xlink:title=" ">
<path fill="none" stroke="#63b8ff" d="M1125.34,-159.25C1073.26,-150.06 983.55,-134.23 927.52,-124.34"/>
<polygon fill="#63b8ff" stroke="#63b8ff" points="927.92,-120.85 917.47,-122.56 926.71,-127.75 927.92,-120.85"/>
</a>
</g>
</g>
<!-- Node23&#45;&gt;Node14 -->
<g id="edge44_Node000023_Node000014" class="edge">
<title>Node23&#45;&gt;Node14</title>
<g id="a_edge44_Node000023_Node000014"><a xlink:title=" ">
<path fill="none" stroke="#63b8ff" d="M1161.19,-158.63C1152.25,-145.81 1132.83,-120.39 1110.44,-106 1078.4,-85.41 1035.69,-73.67 1007.65,-67.7"/>
<polygon fill="#63b8ff" stroke="#63b8ff" points="1008.17,-64.24 997.67,-65.69 1006.78,-71.1 1008.17,-64.24"/>
</a>
</g>
</g>
<!-- Node23&#45;&gt;Node16 -->
<g id="edge49_Node000023_Node000016" class="edge">
<title>Node23&#45;&gt;Node16</title>
<g id="a_edge49_Node000023_Node000016"><a xlink:title=" ">
<path fill="none" stroke="#63b8ff" d="M1207.65,-161.6C1252.24,-155.34 1319.04,-142.89 1334.44,-123 1351.88,-100.47 1316.96,-83.31 1285.87,-73.12"/>
<polygon fill="#63b8ff" stroke="#63b8ff" points="1286.57,-69.68 1275.99,-70.06 1284.5,-76.36 1286.57,-69.68"/>
</a>
</g>
</g>
<!-- Node24 -->
<g id="Node000024" class="node">
<title>Node24</title>
<g id="a_Node000024"><a xlink:title=" ">
<polygon fill="#e0e0e0" stroke="#999999" points="1324.94,-123 1271.94,-123 1271.94,-106 1324.94,-106 1324.94,-123"/>
<text text-anchor="middle" x="1298.44" y="-112.6" font-family="Helvetica,sans-Serif" font-size="8.00">iostream</text>
</a>
</g>
</g>
<!-- Node23&#45;&gt;Node24 -->
<g id="edge48_Node000023_Node000024" class="edge">
<title>Node23&#45;&gt;Node24</title>
<g id="a_edge48_Node000023_Node000024"><a xlink:title=" ">
<path fill="none" stroke="#63b8ff" d="M1185.92,-158.97C1207.95,-150.46 1244.05,-136.51 1269.41,-126.72"/>
<polygon fill="#63b8ff" stroke="#63b8ff" points="1270.82,-129.92 1278.88,-123.06 1268.29,-123.4 1270.82,-129.92"/>
</a>
</g>
</g>
<!-- Node25&#45;&gt;Node16 -->
<g id="edge52_Node000025_Node000016" class="edge">
<title>Node25&#45;&gt;Node16</title>
<g id="a_edge52_Node000025_Node000016"><a xlink:title=" ">
<path fill="none" stroke="#63b8ff" d="M1515.8,-158.86C1502.38,-145.91 1473.17,-119.7 1443.44,-106 1399.53,-85.76 1345.74,-74.72 1305.31,-68.83"/>
<polygon fill="#63b8ff" stroke="#63b8ff" points="1305.72,-65.35 1295.33,-67.44 1304.76,-72.29 1305.72,-65.35"/>
</a>
</g>
</g>
<!-- Node26 -->
<g id="Node000026" class="node">
<title>Node26</title>
<g id="a_Node000026"><a xlink:href="../../dc/d3c/bnode_8hpp.html" target="_top" xlink:title=" ">
<polygon fill="white" stroke="#666666" points="1556.94,-123 1495.94,-123 1495.94,-106 1556.94,-106 1556.94,-123"/>
<text text-anchor="middle" x="1526.44" y="-112.6" font-family="Helvetica,sans-Serif" font-size="8.00">bnode.hpp</text>
</a>
</g>
</g>
<!-- Node25&#45;&gt;Node26 -->
<g id="edge51_Node000025_Node000026" class="edge">
<title>Node25&#45;&gt;Node26</title>
<g id="a_edge51_Node000025_Node000026"><a xlink:title=" ">
<path fill="none" stroke="#63b8ff" d="M1523.88,-158.97C1524.28,-152.19 1524.88,-141.97 1525.4,-133.13"/>
<polygon fill="#63b8ff" stroke="#63b8ff" points="1528.9,-133.24 1525.99,-123.06 1521.91,-132.83 1528.9,-133.24"/>
</a>
</g>
</g>
</g>
</svg>
