<?xml version="1.0" encoding="UTF-8" standalone="no"?>
<!DOCTYPE svg PUBLIC "-//W3C//DTD SVG 1.1//EN"
 "http://www.w3.org/Graphics/SVG/1.1/DTD/svg11.dtd">
<!-- Generated by graphviz version 2.43.0 (0)
 -->
<!-- Title: jps.hpp Pages: 1 -->
<svg width="1220pt" height="237pt"
 viewBox="0.00 0.00 1220.03 237.00" xmlns="http://www.w3.org/2000/svg" xmlns:xlink="http://www.w3.org/1999/xlink">
<g id="graph0" class="graph" transform="scale(1 1) rotate(0) translate(4 233)">
<title>jps.hpp</title>
<!-- Node1 -->
<g id="Node000001" class="node">
<title>Node1</title>
<g id="a_Node000001"><a xlink:title=" ">
<polygon fill="#999999" stroke="#666666" points="253.03,-229 211.03,-229 211.03,-212 253.03,-212 253.03,-229"/>
<text text-anchor="middle" x="232.03" y="-218.6" font-family="Helvetica,sans-Serif" font-size="8.00">jps.hpp</text>
</a>
</g>
</g>
<!-- Node2 -->
<g id="Node000002" class="node">
<title>Node2</title>
<g id="a_Node000002"><a xlink:title=" ">
<polygon fill="#e0e0e0" stroke="#999999" points="147.53,-70 112.53,-70 112.53,-53 147.53,-53 147.53,-70"/>
<text text-anchor="middle" x="130.03" y="-59.6" font-family="Helvetica,sans-Serif" font-size="8.00">array</text>
</a>
</g>
</g>
<!-- Node1&#45;&gt;Node2 -->
<g id="edge1_Node000001_Node000002" class="edge">
<title>Node1&#45;&gt;Node2</title>
<g id="a_edge1_Node000001_Node000002"><a xlink:title=" ">
<path fill="none" stroke="#63b8ff" d="M211.01,-218.42C162.47,-215.44 44.89,-205.28 21.03,-176 11.53,-164.35 3.67,-136.39 26.03,-106 43.91,-81.69 77.98,-70.89 102.25,-66.14"/>
<polygon fill="#63b8ff" stroke="#63b8ff" points="103.04,-69.55 112.29,-64.4 101.84,-62.65 103.04,-69.55"/>
</a>
</g>
</g>
<!-- Node3 -->
<g id="Node000003" class="node">
<title>Node3</title>
<g id="a_Node000003"><a xlink:title=" ">
<polygon fill="#e0e0e0" stroke="#999999" points="733.03,-17 691.03,-17 691.03,0 733.03,0 733.03,-17"/>
<text text-anchor="middle" x="712.03" y="-6.6" font-family="Helvetica,sans-Serif" font-size="8.00">cstddef</text>
</a>
</g>
</g>
<!-- Node1&#45;&gt;Node3 -->
<g id="edge2_Node000001_Node000003" class="edge">
<title>Node1&#45;&gt;Node3</title>
<g id="a_edge2_Node000001_Node000003"><a xlink:title=" ">
<path fill="none" stroke="#63b8ff" d="M210.68,-218.64C160.11,-216.1 35.36,-206.78 10.03,-176 1.78,-165.98 -8.29,-140.96 13.03,-106 37.2,-66.37 58.71,-66.8 103.03,-53 212.5,-18.93 571.81,-11.38 680.56,-9.86"/>
<polygon fill="#63b8ff" stroke="#63b8ff" points="680.91,-13.35 690.86,-9.72 680.81,-6.35 680.91,-13.35"/>
</a>
</g>
</g>
<!-- Node4 -->
<g id="Node000004" class="node">
<title>Node4</title>
<g id="a_Node000004"><a xlink:title=" ">
<polygon fill="#e0e0e0" stroke="#999999" points="69.53,-176 30.53,-176 30.53,-159 69.53,-159 69.53,-176"/>
<text text-anchor="middle" x="50.03" y="-165.6" font-family="Helvetica,sans-Serif" font-size="8.00">cstdint</text>
</a>
</g>
</g>
<!-- Node1&#45;&gt;Node4 -->
<g id="edge3_Node000001_Node000004" class="edge">
<title>Node1&#45;&gt;Node4</title>
<g id="a_edge3_Node000001_Node000004"><a xlink:title=" ">
<path fill="none" stroke="#63b8ff" d="M210.79,-213.55C178.31,-204.45 116.18,-187.04 79.4,-176.73"/>
<polygon fill="#63b8ff" stroke="#63b8ff" points="80.32,-173.35 69.74,-174.02 78.43,-180.09 80.32,-173.35"/>
</a>
</g>
</g>
<!-- Node5 -->
<g id="Node000005" class="node">
<title>Node5</title>
<g id="a_Node000005"><a xlink:title=" ">
<polygon fill="#e0e0e0" stroke="#999999" points="524.53,-70 471.53,-70 471.53,-53 524.53,-53 524.53,-70"/>
<text text-anchor="middle" x="498.03" y="-59.6" font-family="Helvetica,sans-Serif" font-size="8.00">type_traits</text>
</a>
</g>
</g>
<!-- Node1&#45;&gt;Node5 -->
<g id="edge4_Node000001_Node000005" class="edge">
<title>Node1&#45;&gt;Node5</title>
<g id="a_edge4_Node000001_Node000005"><a xlink:title=" ">
<path fill="none" stroke="#63b8ff" d="M213.42,-211.95C163.83,-191.31 33.95,-133.69 59.03,-106 85.84,-76.4 360.49,-66.15 461.23,-63.38"/>
<polygon fill="#63b8ff" stroke="#63b8ff" points="461.35,-66.87 471.26,-63.11 461.17,-59.88 461.35,-66.87"/>
</a>
</g>
</g>
<!-- Node6 -->
<g id="Node000006" class="node">
<title>Node6</title>
<g id="a_Node000006"><a xlink:title=" ">
<polygon fill="#e0e0e0" stroke="#999999" points="102.03,-123 68.03,-123 68.03,-106 102.03,-106 102.03,-123"/>
<text text-anchor="middle" x="85.03" y="-112.6" font-family="Helvetica,sans-Serif" font-size="8.00">utility</text>
</a>
</g>
</g>
<!-- Node1&#45;&gt;Node6 -->
<g id="edge5_Node000001_Node000006" class="edge">
<title>Node1&#45;&gt;Node6</title>
<g id="a_edge5_Node000001_Node000006"><a xlink:title=" ">
<path fill="none" stroke="#63b8ff" d="M220.98,-211.68C196.06,-194.06 135.25,-151.03 104.1,-128.99"/>
<polygon fill="#63b8ff" stroke="#63b8ff" points="105.99,-126.04 95.81,-123.12 101.95,-131.76 105.99,-126.04"/>
</a>
</g>
</g>
<!-- Node7 -->
<g id="Node000007" class="node">
<title>Node7</title>
<g id="a_Node000007"><a xlink:href="../../dc/d8a/grid_8hpp.html" target="_top" xlink:title=" ">
<polygon fill="white" stroke="#666666" points="305.03,-176 227.03,-176 227.03,-159 305.03,-159 305.03,-176"/>
<text text-anchor="middle" x="266.03" y="-165.6" font-family="Helvetica,sans-Serif" font-size="8.00">../mazes/grid.hpp</text>
</a>
</g>
</g>
<!-- Node1&#45;&gt;Node7 -->
<g id="edge6_Node000001_Node000007" class="edge">
<title>Node1&#45;&gt;Node7</title>
<g id="a_edge6_Node000001_Node000007"><a xlink:title=" ">
<path fill="none" stroke="#63b8ff" d="M237.05,-211.97C241.87,-204.74 249.3,-193.59 255.44,-184.39"/>
<polygon fill="#63b8ff" stroke="#63b8ff" points="258.36,-186.32 260.99,-176.06 252.53,-182.44 258.36,-186.32"/>
</a>
</g>
</g>
<!-- Node11 -->
<g id="Node000011" class="node">
<title>Node11</title>
<g id="a_Node000011"><a xlink:href="../../df/d93/utils_8hpp.html" target="_top" xlink:title=" ">
<polygon fill="white" stroke="#666666" points="882.03,-123 814.03,-123 814.03,-106 882.03,-106 882.03,-123"/>
<text text-anchor="middle" x="848.03" y="-112.6" font-family="Helvetica,sans-Serif" font-size="8.00">../utils/utils.hpp</text>
</a>
</g>
</g>
<!-- Node1&#45;&gt;Node11 -->
<g id="edge38_Node000001_Node000011" class="edge">
<title>Node1&#45;&gt;Node11</title>
<g id="a_edge38_Node000001_Node000011"><a xlink:title=" ">
<path fill="none" stroke="#63b8ff" d="M253.05,-219.12C338.49,-217.36 659.67,-208.65 755.03,-176 784.51,-165.91 813.88,-144.4 831.49,-129.95"/>
<polygon fill="#63b8ff" stroke="#63b8ff" points="834.19,-132.25 839.58,-123.13 829.68,-126.9 834.19,-132.25"/>
</a>
</g>
</g>
<!-- Node16 -->
<g id="Node000016" class="node">
<title>Node16</title>
<g id="a_Node000016"><a xlink:href="../../d7/d65/intrinsics_8hpp.html" target="_top" xlink:title=" ">
<polygon fill="#fff0f0" stroke="red" points="719.53,-70 634.53,-70 634.53,-53 719.53,-53 719.53,-70"/>
<text text-anchor="middle" x="677.03" y="-59.6" font-family="Helvetica,sans-Serif" font-size="8.00">../utils/intrinsics.hpp</text>
</a>
</g>
</g>
<!-- Node1&#45;&gt;Node16 -->
<g id="edge46_Node000001_Node000016" class="edge">
<title>Node1&#45;&gt;Node16</title>
<g id="a_edge46_Node000001_Node000016"><a xlink:title=" ">
<path fill="none" stroke="#63b8ff" d="M253.29,-212.63C300.9,-197.19 419.63,-158.31 518.03,-123 563.68,-106.62 616.2,-86.36 647.98,-73.94"/>
<polygon fill="#63b8ff" stroke="#63b8ff" points="649.5,-77.1 657.54,-70.19 646.95,-70.58 649.5,-77.1"/>
</a>
</g>
</g>
<!-- Node20 -->
<g id="Node000020" class="node">
<title>Node20</title>
<g id="a_Node000020"><a xlink:href="../../d8/d62/existence__set_8hpp.html" target="_top" xlink:title=" ">
<polygon fill="white" stroke="#666666" points="1002.53,-176 855.53,-176 855.53,-159 1002.53,-159 1002.53,-176"/>
<text text-anchor="middle" x="929.03" y="-165.6" font-family="Helvetica,sans-Serif" font-size="8.00">../types/containers/existence_set.hpp</text>
</a>
</g>
</g>
<!-- Node1&#45;&gt;Node20 -->
<g id="edge28_Node000001_Node000020" class="edge">
<title>Node1&#45;&gt;Node20</title>
<g id="a_edge28_Node000001_Node000020"><a xlink:title=" ">
<path fill="none" stroke="#63b8ff" d="M253.27,-217.95C341.84,-211.46 684.62,-186.38 845.18,-174.64"/>
<polygon fill="#63b8ff" stroke="#63b8ff" points="845.76,-178.1 855.48,-173.88 845.25,-171.12 845.76,-178.1"/>
</a>
</g>
</g>
<!-- Node23 -->
<g id="Node000023" class="node">
<title>Node23</title>
<g id="a_Node000023"><a xlink:href="../../d2/d1c/solver_8hpp.html" target="_top" xlink:title=" ">
<polygon fill="white" stroke="#666666" points="746.03,-176 674.03,-176 674.03,-159 746.03,-159 746.03,-176"/>
<text text-anchor="middle" x="710.03" y="-165.6" font-family="Helvetica,sans-Serif" font-size="8.00">base/solver.hpp</text>
</a>
</g>
</g>
<!-- Node1&#45;&gt;Node23 -->
<g id="edge39_Node000001_Node000023" class="edge">
<title>Node1&#45;&gt;Node23</title>
<g id="a_edge39_Node000001_Node000023"><a xlink:title=" ">
<path fill="none" stroke="#63b8ff" d="M253.18,-217.24C325.25,-209.55 562.31,-184.26 663.54,-173.46"/>
<polygon fill="#63b8ff" stroke="#63b8ff" points="664.19,-176.91 673.76,-172.37 663.45,-169.95 664.19,-176.91"/>
</a>
</g>
</g>
<!-- Node7&#45;&gt;Node2 -->
<g id="edge8_Node000007_Node000002" class="edge">
<title>Node7&#45;&gt;Node2</title>
<g id="a_edge8_Node000007_Node000002"><a xlink:title=" ">
<path fill="none" stroke="#63b8ff" d="M226.94,-161C201.54,-155.47 169.47,-144.53 149.03,-123 138.12,-111.52 133.47,-93.83 131.49,-80.55"/>
<polygon fill="#63b8ff" stroke="#63b8ff" points="134.93,-79.82 130.35,-70.27 127.98,-80.59 134.93,-79.82"/>
</a>
</g>
</g>
<!-- Node7&#45;&gt;Node3 -->
<g id="edge10_Node000007_Node000003" class="edge">
<title>Node7&#45;&gt;Node3</title>
<g id="a_edge10_Node000007_Node000003"><a xlink:title=" ">
<path fill="none" stroke="#63b8ff" d="M263.99,-158.81C261.15,-146.23 257.65,-121.17 270.03,-106 322.45,-41.76 589.07,-17.84 680.9,-11.43"/>
<polygon fill="#63b8ff" stroke="#63b8ff" points="681.22,-14.92 690.96,-10.75 680.75,-7.94 681.22,-14.92"/>
</a>
</g>
</g>
<!-- Node7&#45;&gt;Node5 -->
<g id="edge11_Node000007_Node000005" class="edge">
<title>Node7&#45;&gt;Node5</title>
<g id="a_edge11_Node000007_Node000005"><a xlink:title=" ">
<path fill="none" stroke="#63b8ff" d="M266.09,-158.9C266.62,-145.99 269.66,-119.86 285.03,-106 310.51,-83.01 407.3,-70.73 461.21,-65.55"/>
<polygon fill="#63b8ff" stroke="#63b8ff" points="461.75,-69.01 471.38,-64.6 461.1,-62.04 461.75,-69.01"/>
</a>
</g>
</g>
<!-- Node7&#45;&gt;Node6 -->
<g id="edge12_Node000007_Node000006" class="edge">
<title>Node7&#45;&gt;Node6</title>
<g id="a_edge12_Node000007_Node000006"><a xlink:title=" ">
<path fill="none" stroke="#63b8ff" d="M239.32,-158.97C205.1,-149.33 146.12,-132.71 111.85,-123.06"/>
<polygon fill="#63b8ff" stroke="#63b8ff" points="112.63,-119.64 102.06,-120.3 110.73,-126.38 112.63,-119.64"/>
</a>
</g>
</g>
<!-- Node8 -->
<g id="Node000008" class="node">
<title>Node8</title>
<g id="a_Node000008"><a xlink:title=" ">
<polygon fill="#e0e0e0" stroke="#999999" points="344.03,-123 294.03,-123 294.03,-106 344.03,-106 344.03,-123"/>
<text text-anchor="middle" x="319.03" y="-112.6" font-family="Helvetica,sans-Serif" font-size="8.00">algorithm</text>
</a>
</g>
</g>
<!-- Node7&#45;&gt;Node8 -->
<g id="edge7_Node000007_Node000008" class="edge">
<title>Node7&#45;&gt;Node8</title>
<g id="a_edge7_Node000007_Node000008"><a xlink:title=" ">
<path fill="none" stroke="#63b8ff" d="M273.85,-158.97C281.68,-151.44 293.93,-139.65 303.7,-130.25"/>
<polygon fill="#63b8ff" stroke="#63b8ff" points="306.4,-132.51 311.18,-123.06 301.54,-127.47 306.4,-132.51"/>
</a>
</g>
</g>
<!-- Node9 -->
<g id="Node000009" class="node">
<title>Node9</title>
<g id="a_Node000009"><a xlink:title=" ">
<polygon fill="#e0e0e0" stroke="#999999" points="200.03,-123 158.03,-123 158.03,-106 200.03,-106 200.03,-123"/>
<text text-anchor="middle" x="179.03" y="-112.6" font-family="Helvetica,sans-Serif" font-size="8.00">cassert</text>
</a>
</g>
</g>
<!-- Node7&#45;&gt;Node9 -->
<g id="edge9_Node000007_Node000009" class="edge">
<title>Node7&#45;&gt;Node9</title>
<g id="a_edge9_Node000007_Node000009"><a xlink:title=" ">
<path fill="none" stroke="#63b8ff" d="M253.19,-158.97C239.44,-150.91 217.37,-137.98 200.88,-128.31"/>
<polygon fill="#63b8ff" stroke="#63b8ff" points="202.32,-125.09 191.92,-123.06 198.78,-131.13 202.32,-125.09"/>
</a>
</g>
</g>
<!-- Node10 -->
<g id="Node000010" class="node">
<title>Node10</title>
<g id="a_Node000010"><a xlink:title=" ">
<polygon fill="#e0e0e0" stroke="#999999" points="644.03,-123 606.03,-123 606.03,-106 644.03,-106 644.03,-123"/>
<text text-anchor="middle" x="625.03" y="-112.6" font-family="Helvetica,sans-Serif" font-size="8.00">vector</text>
</a>
</g>
</g>
<!-- Node7&#45;&gt;Node10 -->
<g id="edge13_Node000007_Node000010" class="edge">
<title>Node7&#45;&gt;Node10</title>
<g id="a_edge13_Node000007_Node000010"><a xlink:title=" ">
<path fill="none" stroke="#63b8ff" d="M305.13,-160.95C377.63,-150.65 531.35,-128.81 595.72,-119.66"/>
<polygon fill="#63b8ff" stroke="#63b8ff" points="596.55,-123.08 605.96,-118.21 595.57,-116.15 596.55,-123.08"/>
</a>
</g>
</g>
<!-- Node7&#45;&gt;Node11 -->
<g id="edge14_Node000007_Node000011" class="edge">
<title>Node7&#45;&gt;Node11</title>
<g id="a_edge14_Node000007_Node000011"><a xlink:title=" ">
<path fill="none" stroke="#63b8ff" d="M305.12,-163.07C409.43,-153.93 693.92,-129 803.85,-119.37"/>
<polygon fill="#63b8ff" stroke="#63b8ff" points="804.27,-122.85 813.93,-118.49 803.66,-115.87 804.27,-122.85"/>
</a>
</g>
</g>
<!-- Node7&#45;&gt;Node16 -->
<g id="edge27_Node000007_Node000016" class="edge">
<title>Node7&#45;&gt;Node16</title>
<g id="a_edge27_Node000007_Node000016"><a xlink:title=" ">
<path fill="none" stroke="#63b8ff" d="M305.35,-160.79C349.22,-153.91 422.04,-141.01 483.03,-123 502.74,-117.18 506.58,-112.63 526.03,-106 563.61,-93.19 607.27,-80.89 637.95,-72.65"/>
<polygon fill="#63b8ff" stroke="#63b8ff" points="639.06,-75.98 647.82,-70.02 637.26,-69.21 639.06,-75.98"/>
</a>
</g>
</g>
<!-- Node19 -->
<g id="Node000019" class="node">
<title>Node19</title>
<g id="a_Node000019"><a xlink:href="../../d1/d2d/weighted__node_8hpp.html" target="_top" xlink:title=" ">
<polygon fill="white" stroke="#666666" points="473.53,-123 362.53,-123 362.53,-106 473.53,-106 473.53,-123"/>
<text text-anchor="middle" x="418.03" y="-112.6" font-family="Helvetica,sans-Serif" font-size="8.00">nodes/weighted_node.hpp</text>
</a>
</g>
</g>
<!-- Node7&#45;&gt;Node19 -->
<g id="edge24_Node000007_Node000019" class="edge">
<title>Node7&#45;&gt;Node19</title>
<g id="a_edge24_Node000007_Node000019"><a xlink:title=" ">
<path fill="none" stroke="#63b8ff" d="M288.46,-158.97C314.16,-150.35 356.51,-136.14 385.76,-126.33"/>
<polygon fill="#63b8ff" stroke="#63b8ff" points="387.14,-129.56 395.51,-123.06 384.91,-122.92 387.14,-129.56"/>
</a>
</g>
</g>
<!-- Node11&#45;&gt;Node2 -->
<g id="edge15_Node000011_Node000002" class="edge">
<title>Node11&#45;&gt;Node2</title>
<g id="a_edge15_Node000011_Node000002"><a xlink:title=" ">
<path fill="none" stroke="#63b8ff" d="M813.88,-111.07C690.62,-102.32 270.04,-72.44 157.77,-64.47"/>
<polygon fill="#63b8ff" stroke="#63b8ff" points="157.82,-60.97 147.6,-63.75 157.32,-67.95 157.82,-60.97"/>
</a>
</g>
</g>
<!-- Node11&#45;&gt;Node3 -->
<g id="edge17_Node000011_Node000003" class="edge">
<title>Node11&#45;&gt;Node3</title>
<g id="a_edge17_Node000011_Node000003"><a xlink:title=" ">
<path fill="none" stroke="#63b8ff" d="M874.12,-105.95C904.52,-95.86 948.27,-76.49 929.03,-53 905.91,-24.79 797.74,-14.5 743.38,-11.06"/>
<polygon fill="#63b8ff" stroke="#63b8ff" points="743.46,-7.56 733.27,-10.46 743.04,-14.55 743.46,-7.56"/>
</a>
</g>
</g>
<!-- Node11&#45;&gt;Node5 -->
<g id="edge21_Node000011_Node000005" class="edge">
<title>Node11&#45;&gt;Node5</title>
<g id="a_edge21_Node000011_Node000005"><a xlink:title=" ">
<path fill="none" stroke="#63b8ff" d="M813.83,-108.52C747.87,-98.91 603.55,-77.88 535.26,-67.93"/>
<polygon fill="#63b8ff" stroke="#63b8ff" points="535.38,-64.41 524.98,-66.43 534.37,-71.33 535.38,-64.41"/>
</a>
</g>
</g>
<!-- Node12 -->
<g id="Node000012" class="node">
<title>Node12</title>
<g id="a_Node000012"><a xlink:title=" ">
<polygon fill="#e0e0e0" stroke="#999999" points="866.03,-70 828.03,-70 828.03,-53 866.03,-53 866.03,-70"/>
<text text-anchor="middle" x="847.03" y="-59.6" font-family="Helvetica,sans-Serif" font-size="8.00">cmath</text>
</a>
</g>
</g>
<!-- Node11&#45;&gt;Node12 -->
<g id="edge16_Node000011_Node000012" class="edge">
<title>Node11&#45;&gt;Node12</title>
<g id="a_edge16_Node000011_Node000012"><a xlink:title=" ">
<path fill="none" stroke="#63b8ff" d="M847.88,-105.97C847.75,-99.19 847.55,-88.97 847.37,-80.13"/>
<polygon fill="#63b8ff" stroke="#63b8ff" points="850.87,-79.99 847.18,-70.06 843.87,-80.12 850.87,-79.99"/>
</a>
</g>
</g>
<!-- Node13 -->
<g id="Node000013" class="node">
<title>Node13</title>
<g id="a_Node000013"><a xlink:title=" ">
<polygon fill="#e0e0e0" stroke="#999999" points="1061.03,-70 1011.03,-70 1011.03,-53 1061.03,-53 1061.03,-70"/>
<text text-anchor="middle" x="1036.03" y="-59.6" font-family="Helvetica,sans-Serif" font-size="8.00">functional</text>
</a>
</g>
</g>
<!-- Node11&#45;&gt;Node13 -->
<g id="edge18_Node000011_Node000013" class="edge">
<title>Node11&#45;&gt;Node13</title>
<g id="a_edge18_Node000011_Node000013"><a xlink:title=" ">
<path fill="none" stroke="#63b8ff" d="M875.77,-105.97C908.96,-96.97 964.56,-81.89 1000.77,-72.06"/>
<polygon fill="#63b8ff" stroke="#63b8ff" points="1002.15,-75.32 1010.88,-69.32 1000.32,-68.56 1002.15,-75.32"/>
</a>
</g>
</g>
<!-- Node14 -->
<g id="Node000014" class="node">
<title>Node14</title>
<g id="a_Node000014"><a xlink:title=" ">
<polygon fill="#e0e0e0" stroke="#999999" points="810.03,-70 776.03,-70 776.03,-53 810.03,-53 810.03,-70"/>
<text text-anchor="middle" x="793.03" y="-59.6" font-family="Helvetica,sans-Serif" font-size="8.00">limits</text>
</a>
</g>
</g>
<!-- Node11&#45;&gt;Node14 -->
<g id="edge19_Node000011_Node000014" class="edge">
<title>Node11&#45;&gt;Node14</title>
<g id="a_edge19_Node000011_Node000014"><a xlink:title=" ">
<path fill="none" stroke="#63b8ff" d="M839.91,-105.97C831.71,-98.37 818.82,-86.41 808.63,-76.97"/>
<polygon fill="#63b8ff" stroke="#63b8ff" points="810.89,-74.29 801.18,-70.06 806.13,-79.42 810.89,-74.29"/>
</a>
</g>
</g>
<!-- Node15 -->
<g id="Node000015" class="node">
<title>Node15</title>
<g id="a_Node000015"><a xlink:title=" ">
<polygon fill="#e0e0e0" stroke="#999999" points="920.03,-70 884.03,-70 884.03,-53 920.03,-53 920.03,-70"/>
<text text-anchor="middle" x="902.03" y="-59.6" font-family="Helvetica,sans-Serif" font-size="8.00">string</text>
</a>
</g>
</g>
<!-- Node11&#45;&gt;Node15 -->
<g id="edge20_Node000011_Node000015" class="edge">
<title>Node11&#45;&gt;Node15</title>
<g id="a_edge20_Node000011_Node000015"><a xlink:title=" ">
<path fill="none" stroke="#63b8ff" d="M856,-105.97C864.05,-98.37 876.71,-86.41 886.71,-76.97"/>
<polygon fill="#63b8ff" stroke="#63b8ff" points="889.16,-79.47 894.03,-70.06 884.35,-74.38 889.16,-79.47"/>
</a>
</g>
</g>
<!-- Node11&#45;&gt;Node16 -->
<g id="edge22_Node000011_Node000016" class="edge">
<title>Node11&#45;&gt;Node16</title>
<g id="a_edge22_Node000011_Node000016"><a xlink:title=" ">
<path fill="none" stroke="#63b8ff" d="M822.8,-105.97C793.5,-97.24 744.99,-82.77 712.05,-72.94"/>
<polygon fill="#63b8ff" stroke="#63b8ff" points="712.95,-69.56 702.36,-70.06 710.95,-76.27 712.95,-69.56"/>
</a>
</g>
</g>
<!-- Node16&#45;&gt;Node3 -->
<g id="edge23_Node000016_Node000003" class="edge">
<title>Node16&#45;&gt;Node3</title>
<g id="a_edge23_Node000016_Node000003"><a xlink:title=" ">
<path fill="none" stroke="#63b8ff" d="M682.19,-52.97C687.16,-45.74 694.81,-34.59 701.13,-25.39"/>
<polygon fill="#63b8ff" stroke="#63b8ff" points="704.07,-27.28 706.84,-17.06 698.3,-23.32 704.07,-27.28"/>
</a>
</g>
</g>
<!-- Node19&#45;&gt;Node5 -->
<g id="edge26_Node000019_Node000005" class="edge">
<title>Node19&#45;&gt;Node5</title>
<g id="a_edge26_Node000019_Node000005"><a xlink:title=" ">
<path fill="none" stroke="#63b8ff" d="M429.83,-105.97C442.36,-97.99 462.39,-85.22 477.51,-75.58"/>
<polygon fill="#63b8ff" stroke="#63b8ff" points="479.62,-78.38 486.18,-70.06 475.86,-72.48 479.62,-78.38"/>
</a>
</g>
</g>
<!-- Node19&#45;&gt;Node14 -->
<g id="edge25_Node000019_Node000014" class="edge">
<title>Node19&#45;&gt;Node14</title>
<g id="a_edge25_Node000019_Node000014"><a xlink:title=" ">
<path fill="none" stroke="#63b8ff" d="M473.36,-105.97C555.04,-94.87 704.82,-74.5 765.96,-66.18"/>
<polygon fill="#63b8ff" stroke="#63b8ff" points="766.54,-69.63 775.98,-64.82 765.6,-62.7 766.54,-69.63"/>
</a>
</g>
</g>
<!-- Node20&#45;&gt;Node3 -->
<g id="edge29_Node000020_Node000003" class="edge">
<title>Node20&#45;&gt;Node3</title>
<g id="a_edge29_Node000020_Node000003"><a xlink:title=" ">
<path fill="none" stroke="#63b8ff" d="M978.79,-158.95C1018.49,-151.78 1069.46,-139.64 1082.03,-123 1094.33,-106.71 1091.69,-72.56 1070.03,-53 1022.43,-10.02 821.75,-7.97 743.48,-8.87"/>
<polygon fill="#63b8ff" stroke="#63b8ff" points="743.22,-5.37 733.27,-9.01 743.32,-12.37 743.22,-5.37"/>
</a>
</g>
</g>
<!-- Node20&#45;&gt;Node5 -->
<g id="edge34_Node000020_Node000005" class="edge">
<title>Node20&#45;&gt;Node5</title>
<g id="a_edge34_Node000020_Node000005"><a xlink:title=" ">
<path fill="none" stroke="#63b8ff" d="M897.68,-158.94C819.77,-140.14 617.62,-91.36 534.52,-71.31"/>
<polygon fill="#63b8ff" stroke="#63b8ff" points="535.3,-67.89 524.76,-68.95 533.66,-74.7 535.3,-67.89"/>
</a>
</g>
</g>
<!-- Node20&#45;&gt;Node10 -->
<g id="edge35_Node000020_Node000010" class="edge">
<title>Node20&#45;&gt;Node10</title>
<g id="a_edge35_Node000020_Node000010"><a xlink:title=" ">
<path fill="none" stroke="#63b8ff" d="M875.63,-158.96C820.84,-150.99 733.23,-137.57 658.03,-123 656.76,-122.75 655.47,-122.5 654.17,-122.23"/>
<polygon fill="#63b8ff" stroke="#63b8ff" points="654.69,-118.76 644.18,-120.07 653.21,-125.6 654.69,-118.76"/>
</a>
</g>
</g>
<!-- Node20&#45;&gt;Node11 -->
<g id="edge36_Node000020_Node000011" class="edge">
<title>Node20&#45;&gt;Node11</title>
<g id="a_edge36_Node000020_Node000011"><a xlink:title=" ">
<path fill="none" stroke="#63b8ff" d="M917.08,-158.97C904.39,-150.99 884.11,-138.22 868.81,-128.58"/>
<polygon fill="#63b8ff" stroke="#63b8ff" points="870.36,-125.42 860.03,-123.06 866.63,-131.35 870.36,-125.42"/>
</a>
</g>
</g>
<!-- Node20&#45;&gt;Node13 -->
<g id="edge30_Node000020_Node000013" class="edge">
<title>Node20&#45;&gt;Node13</title>
<g id="a_edge30_Node000020_Node000013"><a xlink:title=" ">
<path fill="none" stroke="#63b8ff" d="M1002.67,-160.56C1027.14,-154.66 1051.95,-143.56 1067.03,-123 1077.66,-108.5 1064.66,-89.83 1052.38,-77.09"/>
<polygon fill="#63b8ff" stroke="#63b8ff" points="1054.68,-74.44 1045.05,-70.01 1049.82,-79.47 1054.68,-74.44"/>
</a>
</g>
</g>
<!-- Node20&#45;&gt;Node14 -->
<g id="edge32_Node000020_Node000014" class="edge">
<title>Node20&#45;&gt;Node14</title>
<g id="a_edge32_Node000020_Node000014"><a xlink:title=" ">
<path fill="none" stroke="#63b8ff" d="M930.83,-158.86C933.29,-146.36 936.15,-121.41 924.03,-106 920.69,-101.76 857.24,-81.96 819.89,-70.59"/>
<polygon fill="#63b8ff" stroke="#63b8ff" points="820.7,-67.18 810.11,-67.63 818.67,-73.88 820.7,-67.18"/>
</a>
</g>
</g>
<!-- Node20&#45;&gt;Node16 -->
<g id="edge37_Node000020_Node000016" class="edge">
<title>Node20&#45;&gt;Node16</title>
<g id="a_edge37_Node000020_Node000016"><a xlink:title=" ">
<path fill="none" stroke="#63b8ff" d="M926.47,-158.77C921.71,-145.68 910.2,-119.27 891.03,-106 865.4,-88.27 784.43,-75.37 729.77,-68.41"/>
<polygon fill="#63b8ff" stroke="#63b8ff" points="729.91,-64.9 719.55,-67.14 729.04,-71.85 729.91,-64.9"/>
</a>
</g>
</g>
<!-- Node21 -->
<g id="Node000021" class="node">
<title>Node21</title>
<g id="a_Node000021"><a xlink:title=" ">
<polygon fill="#e0e0e0" stroke="#999999" points="1212.03,-123 1152.03,-123 1152.03,-106 1212.03,-106 1212.03,-123"/>
<text text-anchor="middle" x="1182.03" y="-112.6" font-family="Helvetica,sans-Serif" font-size="8.00">initializer_list</text>
</a>
</g>
</g>
<!-- Node20&#45;&gt;Node21 -->
<g id="edge31_Node000020_Node000021" class="edge">
<title>Node20&#45;&gt;Node21</title>
<g id="a_edge31_Node000020_Node000021"><a xlink:title=" ">
<path fill="none" stroke="#63b8ff" d="M966.36,-158.97C1013.23,-149.53 1093.32,-133.38 1141.6,-123.65"/>
<polygon fill="#63b8ff" stroke="#63b8ff" points="1142.58,-127.02 1151.69,-121.62 1141.2,-120.16 1142.58,-127.02"/>
</a>
</g>
</g>
<!-- Node22 -->
<g id="Node000022" class="node">
<title>Node22</title>
<g id="a_Node000022"><a xlink:title=" ">
<polygon fill="#e0e0e0" stroke="#999999" points="1058.03,-123 976.03,-123 976.03,-106 1058.03,-106 1058.03,-123"/>
<text text-anchor="middle" x="1017.03" y="-112.6" font-family="Helvetica,sans-Serif" font-size="8.00">memory_resource</text>
</a>
</g>
</g>
<!-- Node20&#45;&gt;Node22 -->
<g id="edge33_Node000020_Node000022" class="edge">
<title>Node20&#45;&gt;Node22</title>
<g id="a_edge33_Node000020_Node000022"><a xlink:title=" ">
<path fill="none" stroke="#63b8ff" d="M942.01,-158.97C955.92,-150.91 978.24,-137.98 994.93,-128.31"/>
<polygon fill="#63b8ff" stroke="#63b8ff" points="997.09,-131.1 1003.99,-123.06 993.58,-125.04 997.09,-131.1"/>
</a>
</g>
</g>
<!-- Node23&#45;&gt;Node3 -->
<g id="edge40_Node000023_Node000003" class="edge">
<title>Node23&#45;&gt;Node3</title>
<g id="a_edge40_Node000023_Node000003"><a xlink:title=" ">
<path fill="none" stroke="#63b8ff" d="M713.21,-158.77C720.35,-140.4 736.5,-92.66 729.03,-53 727.32,-43.91 723.76,-34.29 720.33,-26.41"/>
<polygon fill="#63b8ff" stroke="#63b8ff" points="723.47,-24.85 716.08,-17.25 717.12,-27.8 723.47,-24.85"/>
</a>
</g>
</g>
<!-- Node23&#45;&gt;Node5 -->
<g id="edge42_Node000023_Node000005" class="edge">
<title>Node23&#45;&gt;Node5</title>
<g id="a_edge42_Node000023_Node000005"><a xlink:title=" ">
<path fill="none" stroke="#63b8ff" d="M686.56,-158.86C663.34,-150.98 627.01,-137.78 597.03,-123 568.17,-108.78 536.79,-88.75 517.26,-75.7"/>
<polygon fill="#63b8ff" stroke="#63b8ff" points="519.18,-72.77 508.94,-70.08 515.26,-78.58 519.18,-72.77"/>
</a>
</g>
</g>
<!-- Node23&#45;&gt;Node10 -->
<g id="edge43_Node000023_Node000010" class="edge">
<title>Node23&#45;&gt;Node10</title>
<g id="a_edge43_Node000023_Node000010"><a xlink:title=" ">
<path fill="none" stroke="#63b8ff" d="M697.49,-158.97C684.05,-150.91 662.49,-137.98 646.38,-128.31"/>
<polygon fill="#63b8ff" stroke="#63b8ff" points="648,-125.2 637.62,-123.06 644.4,-131.2 648,-125.2"/>
</a>
</g>
</g>
<!-- Node23&#45;&gt;Node11 -->
<g id="edge44_Node000023_Node000011" class="edge">
<title>Node23&#45;&gt;Node11</title>
<g id="a_edge44_Node000023_Node000011"><a xlink:title=" ">
<path fill="none" stroke="#63b8ff" d="M730.39,-158.97C753.53,-150.42 791.51,-136.39 818.03,-126.59"/>
<polygon fill="#63b8ff" stroke="#63b8ff" points="819.42,-129.81 827.58,-123.06 816.99,-123.24 819.42,-129.81"/>
</a>
</g>
</g>
<!-- Node23&#45;&gt;Node14 -->
<g id="edge41_Node000023_Node000014" class="edge">
<title>Node23&#45;&gt;Node14</title>
<g id="a_edge41_Node000023_Node000014"><a xlink:title=" ">
<path fill="none" stroke="#63b8ff" d="M721.52,-158.94C732.9,-151.03 750.28,-137.72 762.03,-123 772.61,-109.74 781.09,-92.3 786.48,-79.55"/>
<polygon fill="#63b8ff" stroke="#63b8ff" points="789.78,-80.72 790.27,-70.14 783.29,-78.11 789.78,-80.72"/>
</a>
</g>
</g>
<!-- Node23&#45;&gt;Node16 -->
<g id="edge45_Node000023_Node000016" class="edge">
<title>Node23&#45;&gt;Node16</title>
<g id="a_edge45_Node000023_Node000016"><a xlink:title=" ">
<path fill="none" stroke="#63b8ff" d="M707.55,-158.68C702.27,-142.04 689.8,-102.75 682.54,-79.87"/>
<polygon fill="#63b8ff" stroke="#63b8ff" points="685.81,-78.6 679.45,-70.12 679.14,-80.72 685.81,-78.6"/>
</a>
</g>
</g>
</g>
</svg>
