<?xml version="1.0" encoding="UTF-8" standalone="no"?>
<!DOCTYPE svg PUBLIC "-//W3C//DTD SVG 1.1//EN"
 "http://www.w3.org/Graphics/SVG/1.1/DTD/svg11.dtd">
<!-- Generated by graphviz version 2.43.0 (0)
 -->
<!-- Title: jps.hpp Pages: 1 -->
<svg width="1738pt" height="237pt"
 viewBox="0.00 0.00 1738.25 237.00" xmlns="http://www.w3.org/2000/svg" xmlns:xlink="http://www.w3.org/1999/xlink">
<g id="graph0" class="graph" transform="scale(1 1) rotate(0) translate(4 233)">
<title>jps.hpp</title>
<!-- Node1 -->
<g id="Node000001" class="node">
<title>Node1</title>
<g id="a_Node000001"><a xlink:title=" ">
<polygon fill="#999999" stroke="#666666" points="953.75,-229 906.75,-229 906.75,-212 953.75,-212 953.75,-229"/>
<text text-anchor="middle" x="930.25" y="-218.6" font-family="Helvetica,sans-Serif" font-size="8.00">jps.hpp</text>
</a>
</g>
</g>
<!-- Node2 -->
<g id="Node000002" class="node">
<title>Node2</title>
<g id="a_Node000002"><a xlink:title=" ">
<polygon fill="#e0e0e0" stroke="#999999" points="330.25,-70 292.25,-70 292.25,-53 330.25,-53 330.25,-70"/>
<text text-anchor="middle" x="311.25" y="-59.6" font-family="Helvetica,sans-Serif" font-size="8.00">array</text>
</a>
</g>
</g>
<!-- Node1&#45;&gt;Node2 -->
<g id="edge1_Node000001_Node000002" class="edge">
<title>Node1&#45;&gt;Node2</title>
<g id="a_edge1_Node000001_Node000002"><a xlink:title=" ">
<path fill="none" stroke="#63b8ff" d="M906.51,-218.94C768.3,-215.46 71.63,-194.42 13.25,-123 -21.76,-80.16 200.3,-66.92 281.97,-63.52"/>
<polygon fill="#63b8ff" stroke="#63b8ff" points="282.23,-67.01 292.09,-63.12 281.95,-60.02 282.23,-67.01"/>
</a>
</g>
</g>
<!-- Node3 -->
<g id="Node000003" class="node">
<title>Node3</title>
<g id="a_Node000003"><a xlink:title=" ">
<polygon fill="#e0e0e0" stroke="#999999" points="712.75,-17 665.75,-17 665.75,0 712.75,0 712.75,-17"/>
<text text-anchor="middle" x="689.25" y="-6.6" font-family="Helvetica,sans-Serif" font-size="8.00">cstddef</text>
</a>
</g>
</g>
<!-- Node1&#45;&gt;Node3 -->
<g id="edge2_Node000001_Node000003" class="edge">
<title>Node1&#45;&gt;Node3</title>
<g id="a_edge2_Node000001_Node000003"><a xlink:title=" ">
<path fill="none" stroke="#63b8ff" d="M906.5,-219.49C789.24,-219.23 271.5,-215.84 116.25,-176 63.69,-162.51 35.12,-168.95 6.25,-123 -65.17,-9.3 508.23,-7.61 655.39,-9.02"/>
<polygon fill="#63b8ff" stroke="#63b8ff" points="655.58,-12.52 665.62,-9.13 655.66,-5.52 655.58,-12.52"/>
</a>
</g>
</g>
<!-- Node4 -->
<g id="Node000004" class="node">
<title>Node4</title>
<g id="a_Node000004"><a xlink:title=" ">
<polygon fill="#e0e0e0" stroke="#999999" points="1730.25,-176 1686.25,-176 1686.25,-159 1730.25,-159 1730.25,-176"/>
<text text-anchor="middle" x="1708.25" y="-165.6" font-family="Helvetica,sans-Serif" font-size="8.00">cstdint</text>
</a>
</g>
</g>
<!-- Node1&#45;&gt;Node4 -->
<g id="edge3_Node000001_Node000004" class="edge">
<title>Node1&#45;&gt;Node4</title>
<g id="a_edge3_Node000001_Node000004"><a xlink:title=" ">
<path fill="none" stroke="#63b8ff" d="M953.76,-219.38C1045.9,-218.62 1391.15,-213.32 1672.25,-176 1673.36,-175.85 1674.49,-175.69 1675.62,-175.52"/>
<polygon fill="#63b8ff" stroke="#63b8ff" points="1676.64,-178.89 1685.87,-173.69 1675.41,-172 1676.64,-178.89"/>
</a>
</g>
</g>
<!-- Node5 -->
<g id="Node000005" class="node">
<title>Node5</title>
<g id="a_Node000005"><a xlink:title=" ">
<polygon fill="#e0e0e0" stroke="#999999" points="722.75,-70 663.75,-70 663.75,-53 722.75,-53 722.75,-70"/>
<text text-anchor="middle" x="693.25" y="-59.6" font-family="Helvetica,sans-Serif" font-size="8.00">type_traits</text>
</a>
</g>
</g>
<!-- Node1&#45;&gt;Node5 -->
<g id="edge4_Node000001_Node000005" class="edge">
<title>Node1&#45;&gt;Node5</title>
<g id="a_edge4_Node000001_Node000005"><a xlink:title=" ">
<path fill="none" stroke="#63b8ff" d="M906.54,-216.05C838.87,-205.67 647.39,-172.35 612.25,-123 596.73,-101.19 628.45,-83.89 656.64,-73.47"/>
<polygon fill="#63b8ff" stroke="#63b8ff" points="658.08,-76.68 666.38,-70.08 655.78,-70.07 658.08,-76.68"/>
</a>
</g>
</g>
<!-- Node6 -->
<g id="Node000006" class="node">
<title>Node6</title>
<g id="a_Node000006"><a xlink:title=" ">
<polygon fill="#e0e0e0" stroke="#999999" points="61.75,-123 22.75,-123 22.75,-106 61.75,-106 61.75,-123"/>
<text text-anchor="middle" x="42.25" y="-112.6" font-family="Helvetica,sans-Serif" font-size="8.00">utility</text>
</a>
</g>
</g>
<!-- Node1&#45;&gt;Node6 -->
<g id="edge5_Node000001_Node000006" class="edge">
<title>Node1&#45;&gt;Node6</title>
<g id="a_edge5_Node000001_Node000006"><a xlink:title=" ">
<path fill="none" stroke="#63b8ff" d="M906.72,-218.06C833.94,-213.5 606.06,-198.3 418.25,-176 266.51,-157.99 225.74,-154.49 71.67,-122.88"/>
<polygon fill="#63b8ff" stroke="#63b8ff" points="72.35,-119.44 61.85,-120.85 70.93,-126.3 72.35,-119.44"/>
</a>
</g>
</g>
<!-- Node7 -->
<g id="Node000007" class="node">
<title>Node7</title>
<g id="a_Node000007"><a xlink:title=" ">
<polygon fill="#e0e0e0" stroke="#999999" points="1214.25,-123 1172.25,-123 1172.25,-106 1214.25,-106 1214.25,-123"/>
<text text-anchor="middle" x="1193.25" y="-112.6" font-family="Helvetica,sans-Serif" font-size="8.00">vector</text>
</a>
</g>
</g>
<!-- Node1&#45;&gt;Node7 -->
<g id="edge6_Node000001_Node000007" class="edge">
<title>Node1&#45;&gt;Node7</title>
<g id="a_edge6_Node000001_Node000007"><a xlink:title=" ">
<path fill="none" stroke="#63b8ff" d="M953.95,-215.11C985.77,-208.77 1043.69,-195.59 1090.25,-176 1121.11,-163.02 1154.01,-142.35 1174.1,-128.85"/>
<polygon fill="#63b8ff" stroke="#63b8ff" points="1176.34,-131.56 1182.63,-123.04 1172.4,-125.78 1176.34,-131.56"/>
</a>
</g>
</g>
<!-- Node8 -->
<g id="Node000008" class="node">
<title>Node8</title>
<g id="a_Node000008"><a xlink:href="../../dc/d8a/grid_8hpp.html" target="_top" xlink:title=" ">
<polygon fill="white" stroke="#666666" points="515.25,-176 427.25,-176 427.25,-159 515.25,-159 515.25,-176"/>
<text text-anchor="middle" x="471.25" y="-165.6" font-family="Helvetica,sans-Serif" font-size="8.00">../mazes/grid.hpp</text>
</a>
</g>
</g>
<!-- Node1&#45;&gt;Node8 -->
<g id="edge7_Node000001_Node000008" class="edge">
<title>Node1&#45;&gt;Node8</title>
<g id="a_edge7_Node000001_Node000008"><a xlink:title=" ">
<path fill="none" stroke="#63b8ff" d="M906.54,-216.87C835.98,-209.02 626.01,-185.7 525.74,-174.55"/>
<polygon fill="#63b8ff" stroke="#63b8ff" points="525.84,-171.04 515.52,-173.42 525.07,-178 525.84,-171.04"/>
</a>
</g>
</g>
<!-- Node11 -->
<g id="Node000011" class="node">
<title>Node11</title>
<g id="a_Node000011"><a xlink:href="../../df/d93/utils_8hpp.html" target="_top" xlink:title=" ">
<polygon fill="white" stroke="#666666" points="930.25,-123 850.25,-123 850.25,-106 930.25,-106 930.25,-123"/>
<text text-anchor="middle" x="890.25" y="-112.6" font-family="Helvetica,sans-Serif" font-size="8.00">../utils/utils.hpp</text>
</a>
</g>
</g>
<!-- Node1&#45;&gt;Node11 -->
<g id="edge41_Node000001_Node000011" class="edge">
<title>Node1&#45;&gt;Node11</title>
<g id="a_edge41_Node000001_Node000011"><a xlink:title=" ">
<path fill="none" stroke="#63b8ff" d="M928.26,-211.93C925.12,-200.35 918.63,-177.63 911.25,-159 907.65,-149.9 902.97,-140.05 898.94,-132.04"/>
<polygon fill="#63b8ff" stroke="#63b8ff" points="902,-130.34 894.31,-123.05 895.78,-133.54 902,-130.34"/>
</a>
</g>
</g>
<!-- Node16 -->
<g id="Node000016" class="node">
<title>Node16</title>
<g id="a_Node000016"><a xlink:href="../../d7/d65/intrinsics_8hpp.html" target="_top" xlink:title=" ">
<polygon fill="#fff0f0" stroke="red" points="1171.75,-70 1072.75,-70 1072.75,-53 1171.75,-53 1171.75,-70"/>
<text text-anchor="middle" x="1122.25" y="-59.6" font-family="Helvetica,sans-Serif" font-size="8.00">../utils/intrinsics.hpp</text>
</a>
</g>
</g>
<!-- Node1&#45;&gt;Node16 -->
<g id="edge58_Node000001_Node000016" class="edge">
<title>Node1&#45;&gt;Node16</title>
<g id="a_edge58_Node000001_Node000016"><a xlink:title=" ">
<path fill="none" stroke="#63b8ff" d="M954.06,-218.94C1074.56,-215.99 1612.36,-201.41 1636.25,-176 1652.98,-158.21 1644.78,-127.24 1617.25,-106 1583.45,-79.92 1306,-68.17 1181.88,-64.17"/>
<polygon fill="#63b8ff" stroke="#63b8ff" points="1181.89,-60.67 1171.78,-63.86 1181.67,-67.67 1181.89,-60.67"/>
</a>
</g>
</g>
<!-- Node21 -->
<g id="Node000021" class="node">
<title>Node21</title>
<g id="a_Node000021"><a xlink:href="../../d8/d62/existence__set_8hpp.html" target="_top" xlink:title=" ">
<polygon fill="white" stroke="#666666" points="1327.25,-176 1157.25,-176 1157.25,-159 1327.25,-159 1327.25,-176"/>
<text text-anchor="middle" x="1242.25" y="-165.6" font-family="Helvetica,sans-Serif" font-size="8.00">../types/containers/existence_set.hpp</text>
</a>
</g>
</g>
<!-- Node1&#45;&gt;Node21 -->
<g id="edge32_Node000001_Node000021" class="edge">
<title>Node1&#45;&gt;Node21</title>
<g id="a_edge32_Node000001_Node000021"><a xlink:title=" ">
<path fill="none" stroke="#63b8ff" d="M953.96,-215.62C1003.06,-207.6 1117.04,-188.97 1186.07,-177.68"/>
<polygon fill="#63b8ff" stroke="#63b8ff" points="1187.03,-181.07 1196.33,-176.01 1185.9,-174.17 1187.03,-181.07"/>
</a>
</g>
</g>
<!-- Node23 -->
<g id="Node000023" class="node">
<title>Node23</title>
<g id="a_Node000023"><a xlink:href="../../d2/d1c/solver_8hpp.html" target="_top" xlink:title=" ">
<polygon fill="white" stroke="#666666" points="1081.25,-176 999.25,-176 999.25,-159 1081.25,-159 1081.25,-176"/>
<text text-anchor="middle" x="1040.25" y="-165.6" font-family="Helvetica,sans-Serif" font-size="8.00">base/solver.hpp</text>
</a>
</g>
</g>
<!-- Node1&#45;&gt;Node23 -->
<g id="edge42_Node000001_Node000023" class="edge">
<title>Node1&#45;&gt;Node23</title>
<g id="a_edge42_Node000001_Node000023"><a xlink:title=" ">
<path fill="none" stroke="#63b8ff" d="M946.48,-211.97C964.44,-203.65 993.61,-190.13 1014.65,-180.37"/>
<polygon fill="#63b8ff" stroke="#63b8ff" points="1016.36,-183.44 1023.96,-176.06 1013.41,-177.09 1016.36,-183.44"/>
</a>
</g>
</g>
<!-- Node25 -->
<g id="Node000025" class="node">
<title>Node25</title>
<g id="a_Node000025"><a xlink:href="../../d0/def/unmanaged__node_8hpp.html" target="_top" xlink:title=" ">
<polygon fill="white" stroke="#666666" points="1627.25,-176 1495.25,-176 1495.25,-159 1627.25,-159 1627.25,-176"/>
<text text-anchor="middle" x="1561.25" y="-165.6" font-family="Helvetica,sans-Serif" font-size="8.00">base/unmanaged_node.hpp</text>
</a>
</g>
</g>
<!-- Node1&#45;&gt;Node25 -->
<g id="edge50_Node000001_Node000025" class="edge">
<title>Node1&#45;&gt;Node25</title>
<g id="a_edge50_Node000001_Node000025"><a xlink:title=" ">
<path fill="none" stroke="#63b8ff" d="M953.84,-217.59C1040.31,-210.61 1342.32,-186.19 1485.22,-174.65"/>
<polygon fill="#63b8ff" stroke="#63b8ff" points="1485.54,-178.13 1495.23,-173.84 1484.98,-171.15 1485.54,-178.13"/>
</a>
</g>
</g>
<!-- Node27 -->
<g id="Node000027" class="node">
<title>Node27</title>
<g id="a_Node000027"><a xlink:href="../../df/d24/heuristics_8hpp.html" target="_top" xlink:title=" ">
<polygon fill="white" stroke="#666666" points="902.25,-176 774.25,-176 774.25,-159 902.25,-159 902.25,-176"/>
<text text-anchor="middle" x="838.25" y="-165.6" font-family="Helvetica,sans-Serif" font-size="8.00">include/utils/heuristics.hpp</text>
</a>
</g>
</g>
<!-- Node1&#45;&gt;Node27 -->
<g id="edge53_Node000001_Node000027" class="edge">
<title>Node1&#45;&gt;Node27</title>
<g id="a_edge53_Node000001_Node000027"><a xlink:title=" ">
<path fill="none" stroke="#63b8ff" d="M916.68,-211.97C902,-203.84 878.37,-190.74 860.87,-181.04"/>
<polygon fill="#63b8ff" stroke="#63b8ff" points="862.33,-177.84 851.88,-176.06 858.93,-183.97 862.33,-177.84"/>
</a>
</g>
</g>
<!-- Node8&#45;&gt;Node2 -->
<g id="edge9_Node000008_Node000002" class="edge">
<title>Node8&#45;&gt;Node2</title>
<g id="a_edge9_Node000008_Node000002"><a xlink:title=" ">
<path fill="none" stroke="#63b8ff" d="M426.89,-164.23C368.92,-160.23 272.17,-149.65 250.25,-123 235.35,-104.88 261.8,-86.18 284.41,-74.46"/>
<polygon fill="#63b8ff" stroke="#63b8ff" points="285.98,-77.58 293.41,-70.03 282.9,-71.3 285.98,-77.58"/>
</a>
</g>
</g>
<!-- Node8&#45;&gt;Node3 -->
<g id="edge11_Node000008_Node000003" class="edge">
<title>Node8&#45;&gt;Node3</title>
<g id="a_edge11_Node000008_Node000003"><a xlink:title=" ">
<path fill="none" stroke="#63b8ff" d="M479.86,-158.83C501.45,-139.78 560.01,-89.2 613.25,-53 630.22,-41.46 650.43,-30 665.74,-21.74"/>
<polygon fill="#63b8ff" stroke="#63b8ff" points="667.38,-24.83 674.56,-17.04 664.09,-18.65 667.38,-24.83"/>
</a>
</g>
</g>
<!-- Node8&#45;&gt;Node5 -->
<g id="edge12_Node000008_Node000005" class="edge">
<title>Node8&#45;&gt;Node5</title>
<g id="a_edge12_Node000008_Node000005"><a xlink:title=" ">
<path fill="none" stroke="#63b8ff" d="M479.33,-158.7C492.92,-145.96 521.67,-120.68 550.25,-106 583.29,-89.03 624.09,-77.44 653.64,-70.52"/>
<polygon fill="#63b8ff" stroke="#63b8ff" points="654.61,-73.89 663.59,-68.26 653.06,-67.06 654.61,-73.89"/>
</a>
</g>
</g>
<!-- Node8&#45;&gt;Node6 -->
<g id="edge13_Node000008_Node000006" class="edge">
<title>Node8&#45;&gt;Node6</title>
<g id="a_edge13_Node000008_Node000006"><a xlink:title=" ">
<path fill="none" stroke="#63b8ff" d="M427.15,-163.8C354.94,-158.92 206.87,-147.01 71.93,-122.81"/>
<polygon fill="#63b8ff" stroke="#63b8ff" points="72.29,-119.32 61.82,-120.97 71.03,-126.21 72.29,-119.32"/>
</a>
</g>
</g>
<!-- Node8&#45;&gt;Node7 -->
<g id="edge14_Node000008_Node000007" class="edge">
<title>Node8&#45;&gt;Node7</title>
<g id="a_edge14_Node000008_Node000007"><a xlink:title=" ">
<path fill="none" stroke="#63b8ff" d="M515.32,-164.23C620.78,-158.66 896,-143.26 1125.25,-123 1137.3,-121.94 1150.52,-120.53 1162.08,-119.23"/>
<polygon fill="#63b8ff" stroke="#63b8ff" points="1162.61,-122.69 1172.14,-118.07 1161.81,-115.73 1162.61,-122.69"/>
</a>
</g>
</g>
<!-- Node9 -->
<g id="Node000009" class="node">
<title>Node9</title>
<g id="a_Node000009"><a xlink:title=" ">
<polygon fill="#e0e0e0" stroke="#999999" points="136.25,-123 80.25,-123 80.25,-106 136.25,-106 136.25,-123"/>
<text text-anchor="middle" x="108.25" y="-112.6" font-family="Helvetica,sans-Serif" font-size="8.00">algorithm</text>
</a>
</g>
</g>
<!-- Node8&#45;&gt;Node9 -->
<g id="edge8_Node000008_Node000009" class="edge">
<title>Node8&#45;&gt;Node9</title>
<g id="a_edge8_Node000008_Node000009"><a xlink:title=" ">
<path fill="none" stroke="#63b8ff" d="M427.23,-161.48C366.52,-154.37 253.47,-140.44 146.44,-122.92"/>
<polygon fill="#63b8ff" stroke="#63b8ff" points="146.88,-119.44 136.44,-121.26 145.74,-126.35 146.88,-119.44"/>
</a>
</g>
</g>
<!-- Node10 -->
<g id="Node000010" class="node">
<title>Node10</title>
<g id="a_Node000010"><a xlink:title=" ">
<polygon fill="#e0e0e0" stroke="#999999" points="201.75,-123 154.75,-123 154.75,-106 201.75,-106 201.75,-123"/>
<text text-anchor="middle" x="178.25" y="-112.6" font-family="Helvetica,sans-Serif" font-size="8.00">cassert</text>
</a>
</g>
</g>
<!-- Node8&#45;&gt;Node10 -->
<g id="edge10_Node000008_Node000010" class="edge">
<title>Node8&#45;&gt;Node10</title>
<g id="a_edge10_Node000008_Node000010"><a xlink:title=" ">
<path fill="none" stroke="#63b8ff" d="M426.97,-159.3C376.06,-150.95 290.02,-136.57 216.25,-123 214.81,-122.73 213.33,-122.46 211.84,-122.18"/>
<polygon fill="#63b8ff" stroke="#63b8ff" points="212.43,-118.73 201.95,-120.28 211.11,-125.6 212.43,-118.73"/>
</a>
</g>
</g>
<!-- Node8&#45;&gt;Node11 -->
<g id="edge15_Node000008_Node000011" class="edge">
<title>Node8&#45;&gt;Node11</title>
<g id="a_edge15_Node000008_Node000011"><a xlink:title=" ">
<path fill="none" stroke="#63b8ff" d="M515.3,-161.14C593.78,-151.59 757.31,-131.68 840.03,-121.61"/>
<polygon fill="#63b8ff" stroke="#63b8ff" points="840.68,-125.06 850.19,-120.38 839.84,-118.11 840.68,-125.06"/>
</a>
</g>
</g>
<!-- Node8&#45;&gt;Node16 -->
<g id="edge28_Node000008_Node000016" class="edge">
<title>Node8&#45;&gt;Node16</title>
<g id="a_edge28_Node000008_Node000016"><a xlink:title=" ">
<path fill="none" stroke="#63b8ff" d="M515.5,-164.54C616.31,-159.73 860.44,-146.02 939.25,-123 955.09,-118.37 956.93,-112.1 972.25,-106 1007.56,-91.94 1049.17,-80.24 1079.59,-72.52"/>
<polygon fill="#63b8ff" stroke="#63b8ff" points="1080.6,-75.88 1089.46,-70.06 1078.91,-69.09 1080.6,-75.88"/>
</a>
</g>
</g>
<!-- Node19 -->
<g id="Node000019" class="node">
<title>Node19</title>
<g id="a_Node000019"><a xlink:href="../../d1/d2d/weighted__node_8hpp.html" target="_top" xlink:title=" ">
<polygon fill="white" stroke="#666666" points="756.25,-123 630.25,-123 630.25,-106 756.25,-106 756.25,-123"/>
<text text-anchor="middle" x="693.25" y="-112.6" font-family="Helvetica,sans-Serif" font-size="8.00">nodes/weighted_node.hpp</text>
</a>
</g>
</g>
<!-- Node8&#45;&gt;Node19 -->
<g id="edge25_Node000008_Node000019" class="edge">
<title>Node8&#45;&gt;Node19</title>
<g id="a_edge25_Node000008_Node000019"><a xlink:title=" ">
<path fill="none" stroke="#63b8ff" d="M504.01,-158.97C542.87,-150.05 607.75,-135.14 650.53,-125.32"/>
<polygon fill="#63b8ff" stroke="#63b8ff" points="651.4,-128.71 660.36,-123.06 649.83,-121.88 651.4,-128.71"/>
</a>
</g>
</g>
<!-- Node20 -->
<g id="Node000020" class="node">
<title>Node20</title>
<g id="a_Node000020"><a xlink:href="../../d9/dfc/coord_8hpp.html" target="_top" xlink:title=" ">
<polygon fill="white" stroke="#666666" points="421.75,-123 258.75,-123 258.75,-106 421.75,-106 421.75,-123"/>
<text text-anchor="middle" x="340.25" y="-112.6" font-family="Helvetica,sans-Serif" font-size="8.00">include/types/containers/coord.hpp</text>
</a>
</g>
</g>
<!-- Node8&#45;&gt;Node20 -->
<g id="edge29_Node000008_Node000020" class="edge">
<title>Node8&#45;&gt;Node20</title>
<g id="a_edge29_Node000008_Node000020"><a xlink:title=" ">
<path fill="none" stroke="#63b8ff" d="M451.92,-158.97C430.06,-150.46 394.23,-136.51 369.06,-126.72"/>
<polygon fill="#63b8ff" stroke="#63b8ff" points="370.25,-123.42 359.66,-123.06 367.71,-129.95 370.25,-123.42"/>
</a>
</g>
</g>
<!-- Node11&#45;&gt;Node2 -->
<g id="edge16_Node000011_Node000002" class="edge">
<title>Node11&#45;&gt;Node2</title>
<g id="a_edge16_Node000011_Node000002"><a xlink:title=" ">
<path fill="none" stroke="#63b8ff" d="M850,-109.95C739.99,-100.26 436.14,-73.5 340.48,-65.07"/>
<polygon fill="#63b8ff" stroke="#63b8ff" points="340.64,-61.58 330.38,-64.18 340.03,-68.55 340.64,-61.58"/>
</a>
</g>
</g>
<!-- Node11&#45;&gt;Node3 -->
<g id="edge18_Node000011_Node000003" class="edge">
<title>Node11&#45;&gt;Node3</title>
<g id="a_edge18_Node000011_Node000003"><a xlink:title=" ">
<path fill="none" stroke="#63b8ff" d="M890.57,-105.98C890.66,-93.19 888.89,-67.24 874.25,-53 852.98,-32.31 770.25,-19.22 722.94,-13.26"/>
<polygon fill="#63b8ff" stroke="#63b8ff" points="723.21,-9.77 712.86,-12.03 722.36,-16.72 723.21,-9.77"/>
</a>
</g>
</g>
<!-- Node11&#45;&gt;Node5 -->
<g id="edge22_Node000011_Node000005" class="edge">
<title>Node11&#45;&gt;Node5</title>
<g id="a_edge22_Node000011_Node000005"><a xlink:title=" ">
<path fill="none" stroke="#63b8ff" d="M861.19,-105.97C826.99,-97.12 770.09,-82.39 732.13,-72.57"/>
<polygon fill="#63b8ff" stroke="#63b8ff" points="733,-69.17 722.44,-70.06 731.24,-75.95 733,-69.17"/>
</a>
</g>
</g>
<!-- Node12 -->
<g id="Node000012" class="node">
<title>Node12</title>
<g id="a_Node000012"><a xlink:title=" ">
<polygon fill="#e0e0e0" stroke="#999999" points="807.25,-70 765.25,-70 765.25,-53 807.25,-53 807.25,-70"/>
<text text-anchor="middle" x="786.25" y="-59.6" font-family="Helvetica,sans-Serif" font-size="8.00">cmath</text>
</a>
</g>
</g>
<!-- Node11&#45;&gt;Node12 -->
<g id="edge17_Node000011_Node000012" class="edge">
<title>Node11&#45;&gt;Node12</title>
<g id="a_edge17_Node000011_Node000012"><a xlink:title=" ">
<path fill="none" stroke="#63b8ff" d="M874.91,-105.97C858.01,-97.69 830.61,-84.25 810.73,-74.5"/>
<polygon fill="#63b8ff" stroke="#63b8ff" points="812.18,-71.32 801.66,-70.06 809.1,-77.6 812.18,-71.32"/>
</a>
</g>
</g>
<!-- Node13 -->
<g id="Node000013" class="node">
<title>Node13</title>
<g id="a_Node000013"><a xlink:title=" ">
<polygon fill="#e0e0e0" stroke="#999999" points="1049.25,-70 991.25,-70 991.25,-53 1049.25,-53 1049.25,-70"/>
<text text-anchor="middle" x="1020.25" y="-59.6" font-family="Helvetica,sans-Serif" font-size="8.00">functional</text>
</a>
</g>
</g>
<!-- Node11&#45;&gt;Node13 -->
<g id="edge19_Node000011_Node000013" class="edge">
<title>Node11&#45;&gt;Node13</title>
<g id="a_edge19_Node000011_Node000013"><a xlink:title=" ">
<path fill="none" stroke="#63b8ff" d="M909.44,-105.97C931.13,-97.46 966.69,-83.51 991.66,-73.72"/>
<polygon fill="#63b8ff" stroke="#63b8ff" points="992.96,-76.97 1000.99,-70.06 990.41,-70.45 992.96,-76.97"/>
</a>
</g>
</g>
<!-- Node14 -->
<g id="Node000014" class="node">
<title>Node14</title>
<g id="a_Node000014"><a xlink:title=" ">
<polygon fill="#e0e0e0" stroke="#999999" points="962.25,-70 924.25,-70 924.25,-53 962.25,-53 962.25,-70"/>
<text text-anchor="middle" x="943.25" y="-59.6" font-family="Helvetica,sans-Serif" font-size="8.00">limits</text>
</a>
</g>
</g>
<!-- Node11&#45;&gt;Node14 -->
<g id="edge20_Node000011_Node000014" class="edge">
<title>Node11&#45;&gt;Node14</title>
<g id="a_edge20_Node000011_Node000014"><a xlink:title=" ">
<path fill="none" stroke="#63b8ff" d="M898.07,-105.97C905.9,-98.44 918.16,-86.65 927.93,-77.25"/>
<polygon fill="#63b8ff" stroke="#63b8ff" points="930.62,-79.51 935.4,-70.06 925.77,-74.47 930.62,-79.51"/>
</a>
</g>
</g>
<!-- Node15 -->
<g id="Node000015" class="node">
<title>Node15</title>
<g id="a_Node000015"><a xlink:title=" ">
<polygon fill="#e0e0e0" stroke="#999999" points="865.25,-70 825.25,-70 825.25,-53 865.25,-53 865.25,-70"/>
<text text-anchor="middle" x="845.25" y="-59.6" font-family="Helvetica,sans-Serif" font-size="8.00">string</text>
</a>
</g>
</g>
<!-- Node11&#45;&gt;Node15 -->
<g id="edge21_Node000011_Node000015" class="edge">
<title>Node11&#45;&gt;Node15</title>
<g id="a_edge21_Node000011_Node000015"><a xlink:title=" ">
<path fill="none" stroke="#63b8ff" d="M883.61,-105.97C877.1,-98.59 866.98,-87.12 858.77,-77.81"/>
<polygon fill="#63b8ff" stroke="#63b8ff" points="861.16,-75.24 851.92,-70.06 855.91,-79.87 861.16,-75.24"/>
</a>
</g>
</g>
<!-- Node11&#45;&gt;Node16 -->
<g id="edge23_Node000011_Node000016" class="edge">
<title>Node11&#45;&gt;Node16</title>
<g id="a_edge23_Node000011_Node000016"><a xlink:title=" ">
<path fill="none" stroke="#63b8ff" d="M924.49,-105.97C965.18,-97.03 1033.19,-82.08 1077.88,-72.25"/>
<polygon fill="#63b8ff" stroke="#63b8ff" points="1078.87,-75.62 1087.88,-70.06 1077.36,-68.78 1078.87,-75.62"/>
</a>
</g>
</g>
<!-- Node16&#45;&gt;Node3 -->
<g id="edge24_Node000016_Node000003" class="edge">
<title>Node16&#45;&gt;Node3</title>
<g id="a_edge24_Node000016_Node000003"><a xlink:title=" ">
<path fill="none" stroke="#63b8ff" d="M1072.58,-54.65C983.48,-44.15 798.7,-22.39 722.86,-13.46"/>
<polygon fill="#63b8ff" stroke="#63b8ff" points="723.24,-9.98 712.9,-12.29 722.42,-16.93 723.24,-9.98"/>
</a>
</g>
</g>
<!-- Node19&#45;&gt;Node5 -->
<g id="edge27_Node000019_Node000005" class="edge">
<title>Node19&#45;&gt;Node5</title>
<g id="a_edge27_Node000019_Node000005"><a xlink:title=" ">
<path fill="none" stroke="#63b8ff" d="M693.25,-105.97C693.25,-99.19 693.25,-88.97 693.25,-80.13"/>
<polygon fill="#63b8ff" stroke="#63b8ff" points="696.75,-80.06 693.25,-70.06 689.75,-80.06 696.75,-80.06"/>
</a>
</g>
</g>
<!-- Node19&#45;&gt;Node14 -->
<g id="edge26_Node000019_Node000014" class="edge">
<title>Node19&#45;&gt;Node14</title>
<g id="a_edge26_Node000019_Node000014"><a xlink:title=" ">
<path fill="none" stroke="#63b8ff" d="M730.14,-105.97C780.17,-95.77 868.5,-77.75 914.14,-68.44"/>
<polygon fill="#63b8ff" stroke="#63b8ff" points="914.89,-71.86 923.99,-66.43 913.49,-65 914.89,-71.86"/>
</a>
</g>
</g>
<!-- Node20&#45;&gt;Node2 -->
<g id="edge30_Node000020_Node000002" class="edge">
<title>Node20&#45;&gt;Node2</title>
<g id="a_edge30_Node000020_Node000002"><a xlink:title=" ">
<path fill="none" stroke="#63b8ff" d="M335.97,-105.97C331.95,-98.89 325.78,-88.05 320.62,-78.96"/>
<polygon fill="#63b8ff" stroke="#63b8ff" points="323.54,-77.02 315.55,-70.06 317.45,-80.48 323.54,-77.02"/>
</a>
</g>
</g>
<!-- Node20&#45;&gt;Node3 -->
<g id="edge31_Node000020_Node000003" class="edge">
<title>Node20&#45;&gt;Node3</title>
<g id="a_edge31_Node000020_Node000003"><a xlink:title=" ">
<path fill="none" stroke="#63b8ff" d="M349.39,-105.98C365.73,-92.96 401.49,-66.34 436.25,-53 511.07,-24.3 605.6,-14.46 655.24,-11.14"/>
<polygon fill="#63b8ff" stroke="#63b8ff" points="655.65,-14.62 665.42,-10.51 655.22,-7.63 655.65,-14.62"/>
</a>
</g>
</g>
<!-- Node21&#45;&gt;Node3 -->
<g id="edge33_Node000021_Node000003" class="edge">
<title>Node21&#45;&gt;Node3</title>
<g id="a_edge33_Node000021_Node000003"><a xlink:title=" ">
<path fill="none" stroke="#63b8ff" d="M1327.42,-162.42C1388.54,-157.5 1463.45,-146.69 1483.25,-123 1488.1,-117.2 1488.06,-111.83 1483.25,-106 1433.98,-46.32 868.45,-17.41 723.13,-10.93"/>
<polygon fill="#63b8ff" stroke="#63b8ff" points="723.17,-7.43 713.02,-10.48 722.86,-14.42 723.17,-7.43"/>
</a>
</g>
</g>
<!-- Node21&#45;&gt;Node5 -->
<g id="edge37_Node000021_Node000005" class="edge">
<title>Node21&#45;&gt;Node5</title>
<g id="a_edge37_Node000021_Node000005"><a xlink:title=" ">
<path fill="none" stroke="#63b8ff" d="M1157.25,-160.31C1057.67,-152.53 898.95,-138.32 841.25,-123 822.98,-118.15 819.7,-113.28 802.25,-106 775.19,-94.7 744.09,-82.36 722.06,-73.71"/>
<polygon fill="#63b8ff" stroke="#63b8ff" points="723.21,-70.4 712.62,-70.02 720.66,-76.92 723.21,-70.4"/>
</a>
</g>
</g>
<!-- Node21&#45;&gt;Node7 -->
<g id="edge38_Node000021_Node000007" class="edge">
<title>Node21&#45;&gt;Node7</title>
<g id="a_edge38_Node000021_Node000007"><a xlink:title=" ">
<path fill="none" stroke="#63b8ff" d="M1235.02,-158.97C1227.86,-151.52 1216.68,-139.89 1207.69,-130.53"/>
<polygon fill="#63b8ff" stroke="#63b8ff" points="1209.97,-127.84 1200.51,-123.06 1204.92,-132.69 1209.97,-127.84"/>
</a>
</g>
</g>
<!-- Node21&#45;&gt;Node11 -->
<g id="edge39_Node000021_Node000011" class="edge">
<title>Node21&#45;&gt;Node11</title>
<g id="a_edge39_Node000021_Node000011"><a xlink:title=" ">
<path fill="none" stroke="#63b8ff" d="M1190.31,-158.97C1123.15,-149.24 1006.94,-132.41 940.57,-122.79"/>
<polygon fill="#63b8ff" stroke="#63b8ff" points="940.76,-119.28 930.36,-121.31 939.76,-126.21 940.76,-119.28"/>
</a>
</g>
</g>
<!-- Node21&#45;&gt;Node13 -->
<g id="edge34_Node000021_Node000013" class="edge">
<title>Node21&#45;&gt;Node13</title>
<g id="a_edge34_Node000021_Node000013"><a xlink:title=" ">
<path fill="none" stroke="#63b8ff" d="M1247.7,-158.86C1255.88,-146.37 1269.08,-121.41 1256.25,-106 1254.68,-104.11 1126.3,-81.21 1059.57,-69.42"/>
<polygon fill="#63b8ff" stroke="#63b8ff" points="1059.88,-65.92 1049.42,-67.63 1058.66,-72.81 1059.88,-65.92"/>
</a>
</g>
</g>
<!-- Node21&#45;&gt;Node14 -->
<g id="edge35_Node000021_Node000014" class="edge">
<title>Node21&#45;&gt;Node14</title>
<g id="a_edge35_Node000021_Node000014"><a xlink:title=" ">
<path fill="none" stroke="#63b8ff" d="M1242.27,-158.81C1241.86,-145.77 1238.98,-119.45 1223.25,-106 1182.1,-70.81 1035.63,-79.12 982.25,-70 978.99,-69.44 975.58,-68.83 972.19,-68.2"/>
<polygon fill="#63b8ff" stroke="#63b8ff" points="972.74,-64.75 962.27,-66.32 971.44,-71.62 972.74,-64.75"/>
</a>
</g>
</g>
<!-- Node21&#45;&gt;Node16 -->
<g id="edge40_Node000021_Node000016" class="edge">
<title>Node21&#45;&gt;Node16</title>
<g id="a_edge40_Node000021_Node000016"><a xlink:title=" ">
<path fill="none" stroke="#63b8ff" d="M1273.04,-158.92C1306.41,-149.25 1352.4,-130.75 1332.25,-106 1313.61,-83.1 1237.44,-71.88 1182.2,-66.65"/>
<polygon fill="#63b8ff" stroke="#63b8ff" points="1182.42,-63.16 1172.14,-65.75 1181.79,-70.13 1182.42,-63.16"/>
</a>
</g>
</g>
<!-- Node22 -->
<g id="Node000022" class="node">
<title>Node22</title>
<g id="a_Node000022"><a xlink:title=" ">
<polygon fill="#e0e0e0" stroke="#999999" points="1473.75,-123 1384.75,-123 1384.75,-106 1473.75,-106 1473.75,-123"/>
<text text-anchor="middle" x="1429.25" y="-112.6" font-family="Helvetica,sans-Serif" font-size="8.00">memory_resource</text>
</a>
</g>
</g>
<!-- Node21&#45;&gt;Node22 -->
<g id="edge36_Node000021_Node000022" class="edge">
<title>Node21&#45;&gt;Node22</title>
<g id="a_edge36_Node000021_Node000022"><a xlink:title=" ">
<path fill="none" stroke="#63b8ff" d="M1269.85,-158.97C1302.16,-150.16 1355.85,-135.52 1391.89,-125.69"/>
<polygon fill="#63b8ff" stroke="#63b8ff" points="1392.82,-129.06 1401.55,-123.06 1390.98,-122.31 1392.82,-129.06"/>
</a>
</g>
</g>
<!-- Node23&#45;&gt;Node3 -->
<g id="edge43_Node000023_Node000003" class="edge">
<title>Node23&#45;&gt;Node3</title>
<g id="a_edge43_Node000023_Node000003"><a xlink:title=" ">
<path fill="none" stroke="#63b8ff" d="M1081.66,-162.54C1130.11,-156.96 1205.94,-144.91 1223.25,-123 1246.36,-93.76 1212.46,-69.82 1181.25,-53 1101.86,-10.2 820.73,-8.37 723.02,-9.07"/>
<polygon fill="#63b8ff" stroke="#63b8ff" points="722.79,-5.58 712.82,-9.16 722.85,-12.58 722.79,-5.58"/>
</a>
</g>
</g>
<!-- Node23&#45;&gt;Node5 -->
<g id="edge45_Node000023_Node000005" class="edge">
<title>Node23&#45;&gt;Node5</title>
<g id="a_edge45_Node000023_Node000005"><a xlink:title=" ">
<path fill="none" stroke="#63b8ff" d="M999.06,-162.54C951.92,-157.15 872.89,-145.49 808.25,-123 773.2,-110.81 735.71,-89.3 713.39,-75.49"/>
<polygon fill="#63b8ff" stroke="#63b8ff" points="715.13,-72.45 704.81,-70.09 711.41,-78.37 715.13,-72.45"/>
</a>
</g>
</g>
<!-- Node23&#45;&gt;Node7 -->
<g id="edge46_Node000023_Node000007" class="edge">
<title>Node23&#45;&gt;Node7</title>
<g id="a_edge46_Node000023_Node000007"><a xlink:title=" ">
<path fill="none" stroke="#63b8ff" d="M1062.83,-158.97C1089.15,-150.2 1132.8,-135.65 1162.28,-125.82"/>
<polygon fill="#63b8ff" stroke="#63b8ff" points="1163.68,-129.05 1172.06,-122.56 1161.47,-122.4 1163.68,-129.05"/>
</a>
</g>
</g>
<!-- Node23&#45;&gt;Node11 -->
<g id="edge47_Node000023_Node000011" class="edge">
<title>Node23&#45;&gt;Node11</title>
<g id="a_edge47_Node000023_Node000011"><a xlink:title=" ">
<path fill="none" stroke="#63b8ff" d="M1018.12,-158.97C992.75,-150.35 950.96,-136.14 922.1,-126.33"/>
<polygon fill="#63b8ff" stroke="#63b8ff" points="923.07,-122.96 912.48,-123.06 920.82,-129.59 923.07,-122.96"/>
</a>
</g>
</g>
<!-- Node23&#45;&gt;Node14 -->
<g id="edge44_Node000023_Node000014" class="edge">
<title>Node23&#45;&gt;Node14</title>
<g id="a_edge44_Node000023_Node000014"><a xlink:title=" ">
<path fill="none" stroke="#63b8ff" d="M1032.96,-158.68C1016.87,-141.43 978.1,-99.87 957.19,-77.44"/>
<polygon fill="#63b8ff" stroke="#63b8ff" points="959.75,-75.05 950.37,-70.12 954.63,-79.83 959.75,-75.05"/>
</a>
</g>
</g>
<!-- Node23&#45;&gt;Node16 -->
<g id="edge49_Node000023_Node000016" class="edge">
<title>Node23&#45;&gt;Node16</title>
<g id="a_edge49_Node000023_Node000016"><a xlink:title=" ">
<path fill="none" stroke="#63b8ff" d="M1072.73,-158.91C1091.59,-152.65 1113.84,-141.67 1125.25,-123 1133.06,-110.23 1131.26,-92.96 1128.12,-80.14"/>
<polygon fill="#63b8ff" stroke="#63b8ff" points="1131.39,-78.86 1125.23,-70.25 1124.68,-80.83 1131.39,-78.86"/>
</a>
</g>
</g>
<!-- Node24 -->
<g id="Node000024" class="node">
<title>Node24</title>
<g id="a_Node000024"><a xlink:title=" ">
<polygon fill="#e0e0e0" stroke="#999999" points="1115.75,-123 1062.75,-123 1062.75,-106 1115.75,-106 1115.75,-123"/>
<text text-anchor="middle" x="1089.25" y="-112.6" font-family="Helvetica,sans-Serif" font-size="8.00">iostream</text>
</a>
</g>
</g>
<!-- Node23&#45;&gt;Node24 -->
<g id="edge48_Node000023_Node000024" class="edge">
<title>Node23&#45;&gt;Node24</title>
<g id="a_edge48_Node000023_Node000024"><a xlink:title=" ">
<path fill="none" stroke="#63b8ff" d="M1047.48,-158.97C1054.65,-151.52 1065.82,-139.89 1074.81,-130.53"/>
<polygon fill="#63b8ff" stroke="#63b8ff" points="1077.59,-132.69 1081.99,-123.06 1072.54,-127.84 1077.59,-132.69"/>
</a>
</g>
</g>
<!-- Node25&#45;&gt;Node16 -->
<g id="edge52_Node000025_Node000016" class="edge">
<title>Node25&#45;&gt;Node16</title>
<g id="a_edge52_Node000025_Node000016"><a xlink:title=" ">
<path fill="none" stroke="#63b8ff" d="M1572.67,-158.89C1589.38,-146.88 1616.88,-123.11 1601.25,-106 1573.52,-75.63 1304.79,-66.24 1182.42,-63.53"/>
<polygon fill="#63b8ff" stroke="#63b8ff" points="1182.17,-60.02 1172.1,-63.31 1182.02,-67.02 1182.17,-60.02"/>
</a>
</g>
</g>
<!-- Node26 -->
<g id="Node000026" class="node">
<title>Node26</title>
<g id="a_Node000026"><a xlink:href="../../dc/d3c/bnode_8hpp.html" target="_top" xlink:title=" ">
<polygon fill="white" stroke="#666666" points="1591.75,-123 1530.75,-123 1530.75,-106 1591.75,-106 1591.75,-123"/>
<text text-anchor="middle" x="1561.25" y="-112.6" font-family="Helvetica,sans-Serif" font-size="8.00">bnode.hpp</text>
</a>
</g>
</g>
<!-- Node25&#45;&gt;Node26 -->
<g id="edge51_Node000025_Node000026" class="edge">
<title>Node25&#45;&gt;Node26</title>
<g id="a_edge51_Node000025_Node000026"><a xlink:title=" ">
<path fill="none" stroke="#63b8ff" d="M1561.25,-158.97C1561.25,-152.19 1561.25,-141.97 1561.25,-133.13"/>
<polygon fill="#63b8ff" stroke="#63b8ff" points="1564.75,-133.06 1561.25,-123.06 1557.75,-133.06 1564.75,-133.06"/>
</a>
</g>
</g>
<!-- Node27&#45;&gt;Node3 -->
<g id="edge54_Node000027_Node000003" class="edge">
<title>Node27&#45;&gt;Node3</title>
<g id="a_edge54_Node000027_Node000003"><a xlink:title=" ">
<path fill="none" stroke="#63b8ff" d="M774.21,-163.05C714.76,-158.34 632.48,-147.49 612.25,-123 584.1,-88.91 637.29,-44.57 668.64,-22.77"/>
<polygon fill="#63b8ff" stroke="#63b8ff" points="670.85,-25.5 677.18,-17.01 666.94,-19.7 670.85,-25.5"/>
</a>
</g>
</g>
<!-- Node27&#45;&gt;Node5 -->
<g id="edge55_Node000027_Node000005" class="edge">
<title>Node27&#45;&gt;Node5</title>
<g id="a_edge55_Node000027_Node000005"><a xlink:title=" ">
<path fill="none" stroke="#63b8ff" d="M774.03,-162.43C717.16,-157.33 640.31,-146.26 621.25,-123 605.03,-103.2 635.67,-84.97 661.86,-73.8"/>
<polygon fill="#63b8ff" stroke="#63b8ff" points="663.26,-77.01 671.22,-70.02 660.64,-70.52 663.26,-77.01"/>
</a>
</g>
</g>
<!-- Node27&#45;&gt;Node11 -->
<g id="edge56_Node000027_Node000011" class="edge">
<title>Node27&#45;&gt;Node11</title>
<g id="a_edge56_Node000027_Node000011"><a xlink:title=" ">
<path fill="none" stroke="#63b8ff" d="M845.93,-158.97C853.61,-151.44 865.63,-139.65 875.22,-130.25"/>
<polygon fill="#63b8ff" stroke="#63b8ff" points="877.86,-132.56 882.55,-123.06 872.96,-127.56 877.86,-132.56"/>
</a>
</g>
</g>
<!-- Node27&#45;&gt;Node16 -->
<g id="edge57_Node000027_Node000016" class="edge">
<title>Node27&#45;&gt;Node16</title>
<g id="a_edge57_Node000027_Node000016"><a xlink:title=" ">
<path fill="none" stroke="#63b8ff" d="M863.13,-158.99C890.16,-150.7 934.55,-136.7 972.25,-123 1015.64,-107.23 1065.17,-86.76 1095.05,-74.13"/>
<polygon fill="#63b8ff" stroke="#63b8ff" points="1096.56,-77.3 1104.4,-70.17 1093.83,-70.85 1096.56,-77.3"/>
</a>
</g>
</g>
</g>
</svg>
