<?xml version="1.0" encoding="UTF-8" standalone="no"?>
<!DOCTYPE svg PUBLIC "-//W3C//DTD SVG 1.1//EN"
 "http://www.w3.org/Graphics/SVG/1.1/DTD/svg11.dtd">
<!-- Generated by graphviz version 2.43.0 (0)
 -->
<!-- Title: jps.hpp Pages: 1 -->
<svg width="1410pt" height="237pt"
 viewBox="0.00 0.00 1409.65 237.00" xmlns="http://www.w3.org/2000/svg" xmlns:xlink="http://www.w3.org/1999/xlink">
<g id="graph0" class="graph" transform="scale(1 1) rotate(0) translate(4 233)">
<title>jps.hpp</title>
<!-- Node1 -->
<g id="Node000001" class="node">
<title>Node1</title>
<g id="a_Node000001"><a xlink:title=" ">
<polygon fill="#999999" stroke="#666666" points="664.15,-229 622.15,-229 622.15,-212 664.15,-212 664.15,-229"/>
<text text-anchor="middle" x="643.15" y="-218.6" font-family="Helvetica,sans-Serif" font-size="8.00">jps.hpp</text>
</a>
</g>
</g>
<!-- Node2 -->
<g id="Node000002" class="node">
<title>Node2</title>
<g id="a_Node000002"><a xlink:title=" ">
<polygon fill="#e0e0e0" stroke="#999999" points="227.65,-70 192.65,-70 192.65,-53 227.65,-53 227.65,-70"/>
<text text-anchor="middle" x="210.15" y="-59.6" font-family="Helvetica,sans-Serif" font-size="8.00">array</text>
</a>
</g>
</g>
<!-- Node1&#45;&gt;Node2 -->
<g id="edge1_Node000001_Node000002" class="edge">
<title>Node1&#45;&gt;Node2</title>
<g id="a_edge1_Node000001_Node000002"><a xlink:title=" ">
<path fill="none" stroke="#63b8ff" d="M622.06,-219.76C522.18,-220.5 98.3,-217.93 19.15,-123 -25.91,-68.96 119.51,-62.55 182.51,-62.24"/>
<polygon fill="#63b8ff" stroke="#63b8ff" points="182.56,-65.74 192.56,-62.23 182.56,-58.74 182.56,-65.74"/>
</a>
</g>
</g>
<!-- Node3 -->
<g id="Node000003" class="node">
<title>Node3</title>
<g id="a_Node000003"><a xlink:title=" ">
<polygon fill="#e0e0e0" stroke="#999999" points="773.15,-17 731.15,-17 731.15,0 773.15,0 773.15,-17"/>
<text text-anchor="middle" x="752.15" y="-6.6" font-family="Helvetica,sans-Serif" font-size="8.00">cstddef</text>
</a>
</g>
</g>
<!-- Node1&#45;&gt;Node3 -->
<g id="edge2_Node000001_Node000003" class="edge">
<title>Node1&#45;&gt;Node3</title>
<g id="a_edge2_Node000001_Node000003"><a xlink:title=" ">
<path fill="none" stroke="#63b8ff" d="M621.88,-219.46C531.54,-219.03 179.67,-214.87 77.15,-176 36.01,-160.4 -19.12,-141.29 7.15,-106 56.18,-40.13 103.41,-68 184.15,-53 386.26,-15.45 634.63,-10.2 720.89,-9.55"/>
<polygon fill="#63b8ff" stroke="#63b8ff" points="721.07,-13.05 731.05,-9.49 721.03,-6.05 721.07,-13.05"/>
</a>
</g>
</g>
<!-- Node4 -->
<g id="Node000004" class="node">
<title>Node4</title>
<g id="a_Node000004"><a xlink:title=" ">
<polygon fill="#e0e0e0" stroke="#999999" points="356.65,-176 317.65,-176 317.65,-159 356.65,-159 356.65,-176"/>
<text text-anchor="middle" x="337.15" y="-165.6" font-family="Helvetica,sans-Serif" font-size="8.00">cstdint</text>
</a>
</g>
</g>
<!-- Node1&#45;&gt;Node4 -->
<g id="edge3_Node000001_Node000004" class="edge">
<title>Node1&#45;&gt;Node4</title>
<g id="a_edge3_Node000001_Node000004"><a xlink:title=" ">
<path fill="none" stroke="#63b8ff" d="M621.91,-216.54C576.01,-210.03 464.17,-193.68 371.15,-176 369.7,-175.72 368.22,-175.43 366.73,-175.13"/>
<polygon fill="#63b8ff" stroke="#63b8ff" points="367.39,-171.7 356.89,-173.06 365.95,-178.55 367.39,-171.7"/>
</a>
</g>
</g>
<!-- Node5 -->
<g id="Node000005" class="node">
<title>Node5</title>
<g id="a_Node000005"><a xlink:title=" ">
<polygon fill="#e0e0e0" stroke="#999999" points="684.65,-70 631.65,-70 631.65,-53 684.65,-53 684.65,-70"/>
<text text-anchor="middle" x="658.15" y="-59.6" font-family="Helvetica,sans-Serif" font-size="8.00">type_traits</text>
</a>
</g>
</g>
<!-- Node1&#45;&gt;Node5 -->
<g id="edge4_Node000001_Node000005" class="edge">
<title>Node1&#45;&gt;Node5</title>
<g id="a_edge4_Node000001_Node000005"><a xlink:title=" ">
<path fill="none" stroke="#63b8ff" d="M641.65,-211.96C638.28,-193.59 630.97,-145.18 639.15,-106 641.07,-96.8 645.05,-87.17 648.87,-79.31"/>
<polygon fill="#63b8ff" stroke="#63b8ff" points="652.11,-80.68 653.62,-70.19 645.9,-77.44 652.11,-80.68"/>
</a>
</g>
</g>
<!-- Node6 -->
<g id="Node000006" class="node">
<title>Node6</title>
<g id="a_Node000006"><a xlink:title=" ">
<polygon fill="#e0e0e0" stroke="#999999" points="62.15,-123 28.15,-123 28.15,-106 62.15,-106 62.15,-123"/>
<text text-anchor="middle" x="45.15" y="-112.6" font-family="Helvetica,sans-Serif" font-size="8.00">utility</text>
</a>
</g>
</g>
<!-- Node1&#45;&gt;Node6 -->
<g id="edge5_Node000001_Node000006" class="edge">
<title>Node1&#45;&gt;Node6</title>
<g id="a_edge5_Node000001_Node000006"><a xlink:title=" ">
<path fill="none" stroke="#63b8ff" d="M621.96,-217.38C579.76,-212.77 482.51,-200.27 404.15,-176 386.48,-170.53 383.94,-164.07 366.15,-159 250.98,-126.21 217.78,-139.24 99.15,-123 90.35,-121.8 80.74,-120.47 72.11,-119.27"/>
<polygon fill="#63b8ff" stroke="#63b8ff" points="72.56,-115.79 62.17,-117.88 71.59,-122.73 72.56,-115.79"/>
</a>
</g>
</g>
<!-- Node7 -->
<g id="Node000007" class="node">
<title>Node7</title>
<g id="a_Node000007"><a xlink:title=" ">
<polygon fill="#e0e0e0" stroke="#999999" points="686.15,-123 648.15,-123 648.15,-106 686.15,-106 686.15,-123"/>
<text text-anchor="middle" x="667.15" y="-112.6" font-family="Helvetica,sans-Serif" font-size="8.00">vector</text>
</a>
</g>
</g>
<!-- Node1&#45;&gt;Node7 -->
<g id="edge6_Node000001_Node000007" class="edge">
<title>Node1&#45;&gt;Node7</title>
<g id="a_edge6_Node000001_Node000007"><a xlink:title=" ">
<path fill="none" stroke="#63b8ff" d="M644.95,-211.68C648.79,-195.04 657.86,-155.75 663.14,-132.87"/>
<polygon fill="#63b8ff" stroke="#63b8ff" points="666.55,-133.66 665.39,-123.12 659.73,-132.08 666.55,-133.66"/>
</a>
</g>
</g>
<!-- Node8 -->
<g id="Node000008" class="node">
<title>Node8</title>
<g id="a_Node000008"><a xlink:href="../../dc/d8a/grid_8hpp.html" target="_top" xlink:title=" ">
<polygon fill="white" stroke="#666666" points="491.15,-176 413.15,-176 413.15,-159 491.15,-159 491.15,-176"/>
<text text-anchor="middle" x="452.15" y="-165.6" font-family="Helvetica,sans-Serif" font-size="8.00">../mazes/grid.hpp</text>
</a>
</g>
</g>
<!-- Node1&#45;&gt;Node8 -->
<g id="edge7_Node000001_Node000008" class="edge">
<title>Node1&#45;&gt;Node8</title>
<g id="a_edge7_Node000001_Node000008"><a xlink:title=" ">
<path fill="none" stroke="#63b8ff" d="M621.98,-213.85C590.26,-205.38 529.91,-189.26 490.36,-178.7"/>
<polygon fill="#63b8ff" stroke="#63b8ff" points="491.1,-175.28 480.54,-176.08 489.29,-182.04 491.1,-175.28"/>
</a>
</g>
</g>
<!-- Node11 -->
<g id="Node000011" class="node">
<title>Node11</title>
<g id="a_Node000011"><a xlink:href="../../df/d93/utils_8hpp.html" target="_top" xlink:title=" ">
<polygon fill="white" stroke="#666666" points="924.15,-123 856.15,-123 856.15,-106 924.15,-106 924.15,-123"/>
<text text-anchor="middle" x="890.15" y="-112.6" font-family="Helvetica,sans-Serif" font-size="8.00">../utils/utils.hpp</text>
</a>
</g>
</g>
<!-- Node1&#45;&gt;Node11 -->
<g id="edge41_Node000001_Node000011" class="edge">
<title>Node1&#45;&gt;Node11</title>
<g id="a_edge41_Node000001_Node000011"><a xlink:title=" ">
<path fill="none" stroke="#63b8ff" d="M664.27,-215.64C694.62,-209.63 751.86,-196.55 797.15,-176 825.08,-163.32 854.25,-143.01 872.31,-129.46"/>
<polygon fill="#63b8ff" stroke="#63b8ff" points="874.85,-131.92 880.67,-123.07 870.6,-126.36 874.85,-131.92"/>
</a>
</g>
</g>
<!-- Node16 -->
<g id="Node000016" class="node">
<title>Node16</title>
<g id="a_Node000016"><a xlink:href="../../d7/d65/intrinsics_8hpp.html" target="_top" xlink:title=" ">
<polygon fill="#fff0f0" stroke="red" points="1133.65,-70 1048.65,-70 1048.65,-53 1133.65,-53 1133.65,-70"/>
<text text-anchor="middle" x="1091.15" y="-59.6" font-family="Helvetica,sans-Serif" font-size="8.00">../utils/intrinsics.hpp</text>
</a>
</g>
</g>
<!-- Node1&#45;&gt;Node16 -->
<g id="edge52_Node000001_Node000016" class="edge">
<title>Node1&#45;&gt;Node16</title>
<g id="a_edge52_Node000001_Node000016"><a xlink:title=" ">
<path fill="none" stroke="#63b8ff" d="M664.26,-219.64C758.64,-219.77 1139.97,-214.55 1201.15,-123 1218.92,-96.41 1180.19,-80.43 1143.89,-71.63"/>
<polygon fill="#63b8ff" stroke="#63b8ff" points="1144.29,-68.13 1133.77,-69.33 1142.75,-74.96 1144.29,-68.13"/>
</a>
</g>
</g>
<!-- Node21 -->
<g id="Node000021" class="node">
<title>Node21</title>
<g id="a_Node000021"><a xlink:href="../../d8/d62/existence__set_8hpp.html" target="_top" xlink:title=" ">
<polygon fill="white" stroke="#666666" points="1063.65,-176 916.65,-176 916.65,-159 1063.65,-159 1063.65,-176"/>
<text text-anchor="middle" x="990.15" y="-165.6" font-family="Helvetica,sans-Serif" font-size="8.00">../types/containers/existence_set.hpp</text>
</a>
</g>
</g>
<!-- Node1&#45;&gt;Node21 -->
<g id="edge32_Node000001_Node000021" class="edge">
<title>Node1&#45;&gt;Node21</title>
<g id="a_edge32_Node000001_Node000021"><a xlink:title=" ">
<path fill="none" stroke="#63b8ff" d="M664.33,-216.39C715.87,-208.81 849.39,-189.19 928.59,-177.55"/>
<polygon fill="#63b8ff" stroke="#63b8ff" points="929.53,-180.95 938.92,-176.03 928.51,-174.02 929.53,-180.95"/>
</a>
</g>
</g>
<!-- Node23 -->
<g id="Node000023" class="node">
<title>Node23</title>
<g id="a_Node000023"><a xlink:href="../../d2/d1c/solver_8hpp.html" target="_top" xlink:title=" ">
<polygon fill="white" stroke="#666666" points="788.15,-176 716.15,-176 716.15,-159 788.15,-159 788.15,-176"/>
<text text-anchor="middle" x="752.15" y="-165.6" font-family="Helvetica,sans-Serif" font-size="8.00">base/solver.hpp</text>
</a>
</g>
</g>
<!-- Node1&#45;&gt;Node23 -->
<g id="edge42_Node000001_Node000023" class="edge">
<title>Node1&#45;&gt;Node23</title>
<g id="a_edge42_Node000001_Node000023"><a xlink:title=" ">
<path fill="none" stroke="#63b8ff" d="M659.23,-211.97C677.02,-203.65 705.93,-190.13 726.78,-180.37"/>
<polygon fill="#63b8ff" stroke="#63b8ff" points="728.43,-183.46 736,-176.06 725.46,-177.12 728.43,-183.46"/>
</a>
</g>
</g>
<!-- Node24 -->
<g id="Node000024" class="node">
<title>Node24</title>
<g id="a_Node000024"><a xlink:href="../../d0/def/unmanaged__node_8hpp.html" target="_top" xlink:title=" ">
<polygon fill="white" stroke="#666666" points="1387.65,-176 1270.65,-176 1270.65,-159 1387.65,-159 1387.65,-176"/>
<text text-anchor="middle" x="1329.15" y="-165.6" font-family="Helvetica,sans-Serif" font-size="8.00">base/unmanaged_node.hpp</text>
</a>
</g>
</g>
<!-- Node1&#45;&gt;Node24 -->
<g id="edge49_Node000001_Node000024" class="edge">
<title>Node1&#45;&gt;Node24</title>
<g id="a_edge49_Node000001_Node000024"><a xlink:title=" ">
<path fill="none" stroke="#63b8ff" d="M664.34,-218.24C742.84,-213.52 1024.43,-196.12 1256.15,-176 1257.62,-175.87 1259.1,-175.74 1260.6,-175.61"/>
<polygon fill="#63b8ff" stroke="#63b8ff" points="1260.96,-179.09 1270.59,-174.68 1260.31,-172.12 1260.96,-179.09"/>
</a>
</g>
</g>
<!-- Node8&#45;&gt;Node2 -->
<g id="edge9_Node000008_Node000002" class="edge">
<title>Node8&#45;&gt;Node2</title>
<g id="a_edge9_Node000008_Node000002"><a xlink:title=" ">
<path fill="none" stroke="#63b8ff" d="M413.09,-160.9C408.39,-160.24 403.66,-159.6 399.15,-159 334.78,-150.45 152.15,-171.67 109.15,-123 84.72,-95.35 144.97,-76.61 182.62,-67.96"/>
<polygon fill="#63b8ff" stroke="#63b8ff" points="183.53,-71.35 192.55,-65.79 182.03,-64.51 183.53,-71.35"/>
</a>
</g>
</g>
<!-- Node8&#45;&gt;Node3 -->
<g id="edge11_Node000008_Node000003" class="edge">
<title>Node8&#45;&gt;Node3</title>
<g id="a_edge11_Node000008_Node000003"><a xlink:title=" ">
<path fill="none" stroke="#63b8ff" d="M450.19,-158.87C447.47,-146.39 444.13,-121.46 456.15,-106 520.78,-22.87 658.45,-10.38 720.57,-9.16"/>
<polygon fill="#63b8ff" stroke="#63b8ff" points="720.95,-12.65 730.91,-9.04 720.88,-5.65 720.95,-12.65"/>
</a>
</g>
</g>
<!-- Node8&#45;&gt;Node5 -->
<g id="edge12_Node000008_Node000005" class="edge">
<title>Node8&#45;&gt;Node5</title>
<g id="a_edge12_Node000008_Node000005"><a xlink:title=" ">
<path fill="none" stroke="#63b8ff" d="M452.38,-158.93C453.21,-146.08 456.8,-120.03 472.15,-106 493.7,-86.3 573.6,-73.12 621.38,-66.81"/>
<polygon fill="#63b8ff" stroke="#63b8ff" points="621.88,-70.28 631.35,-65.53 620.99,-63.33 621.88,-70.28"/>
</a>
</g>
</g>
<!-- Node8&#45;&gt;Node6 -->
<g id="edge13_Node000008_Node000006" class="edge">
<title>Node8&#45;&gt;Node6</title>
<g id="a_edge13_Node000008_Node000006"><a xlink:title=" ">
<path fill="none" stroke="#63b8ff" d="M413.09,-160.84C408.4,-160.2 403.67,-159.57 399.15,-159 255.85,-140.88 218.41,-148.03 76.15,-123 74.89,-122.78 73.61,-122.54 72.32,-122.28"/>
<polygon fill="#63b8ff" stroke="#63b8ff" points="72.97,-118.84 62.45,-120.09 71.45,-125.67 72.97,-118.84"/>
</a>
</g>
</g>
<!-- Node8&#45;&gt;Node7 -->
<g id="edge14_Node000008_Node000007" class="edge">
<title>Node8&#45;&gt;Node7</title>
<g id="a_edge14_Node000008_Node000007"><a xlink:title=" ">
<path fill="none" stroke="#63b8ff" d="M483.87,-158.97C525.48,-149.11 597.89,-131.93 638.11,-122.39"/>
<polygon fill="#63b8ff" stroke="#63b8ff" points="639.16,-125.74 648.08,-120.02 637.54,-118.93 639.16,-125.74"/>
</a>
</g>
</g>
<!-- Node9 -->
<g id="Node000009" class="node">
<title>Node9</title>
<g id="a_Node000009"><a xlink:title=" ">
<polygon fill="#e0e0e0" stroke="#999999" points="168.15,-123 118.15,-123 118.15,-106 168.15,-106 168.15,-123"/>
<text text-anchor="middle" x="143.15" y="-112.6" font-family="Helvetica,sans-Serif" font-size="8.00">algorithm</text>
</a>
</g>
</g>
<!-- Node8&#45;&gt;Node9 -->
<g id="edge8_Node000008_Node000009" class="edge">
<title>Node8&#45;&gt;Node9</title>
<g id="a_edge8_Node000008_Node000009"><a xlink:title=" ">
<path fill="none" stroke="#63b8ff" d="M412.92,-160.59C351.96,-151.37 236.23,-133.65 178.45,-123.12"/>
<polygon fill="#63b8ff" stroke="#63b8ff" points="178.84,-119.63 168.37,-121.24 177.56,-126.51 178.84,-119.63"/>
</a>
</g>
</g>
<!-- Node10 -->
<g id="Node000010" class="node">
<title>Node10</title>
<g id="a_Node000010"><a xlink:title=" ">
<polygon fill="#e0e0e0" stroke="#999999" points="228.15,-123 186.15,-123 186.15,-106 228.15,-106 228.15,-123"/>
<text text-anchor="middle" x="207.15" y="-112.6" font-family="Helvetica,sans-Serif" font-size="8.00">cassert</text>
</a>
</g>
</g>
<!-- Node8&#45;&gt;Node10 -->
<g id="edge10_Node000008_Node000010" class="edge">
<title>Node8&#45;&gt;Node10</title>
<g id="a_edge10_Node000008_Node000010"><a xlink:title=" ">
<path fill="none" stroke="#63b8ff" d="M412.8,-159.09C371.63,-151.22 304.88,-138.11 238.25,-123.16"/>
<polygon fill="#63b8ff" stroke="#63b8ff" points="238.95,-119.73 228.43,-120.95 237.41,-126.56 238.95,-119.73"/>
</a>
</g>
</g>
<!-- Node8&#45;&gt;Node11 -->
<g id="edge15_Node000008_Node000011" class="edge">
<title>Node8&#45;&gt;Node11</title>
<g id="a_edge15_Node000008_Node000011"><a xlink:title=" ">
<path fill="none" stroke="#63b8ff" d="M491.4,-161.93C572.94,-152.44 760.15,-130.64 845.85,-120.66"/>
<polygon fill="#63b8ff" stroke="#63b8ff" points="846.5,-124.11 856.03,-119.47 845.69,-117.15 846.5,-124.11"/>
</a>
</g>
</g>
<!-- Node8&#45;&gt;Node16 -->
<g id="edge28_Node000008_Node000016" class="edge">
<title>Node8&#45;&gt;Node16</title>
<g id="a_edge28_Node000008_Node000016"><a xlink:title=" ">
<path fill="none" stroke="#63b8ff" d="M491.26,-164.9C590.56,-160.52 850.42,-147.05 933.15,-123 948.99,-118.39 950.99,-112.51 966.15,-106 995.98,-93.2 1030.94,-81.28 1056.3,-73.17"/>
<polygon fill="#63b8ff" stroke="#63b8ff" points="1057.37,-76.5 1065.85,-70.15 1055.26,-69.83 1057.37,-76.5"/>
</a>
</g>
</g>
<!-- Node19 -->
<g id="Node000019" class="node">
<title>Node19</title>
<g id="a_Node000019"><a xlink:href="../../d1/d2d/weighted__node_8hpp.html" target="_top" xlink:title=" ">
<polygon fill="white" stroke="#666666" points="591.65,-123 480.65,-123 480.65,-106 591.65,-106 591.65,-123"/>
<text text-anchor="middle" x="536.15" y="-112.6" font-family="Helvetica,sans-Serif" font-size="8.00">nodes/weighted_node.hpp</text>
</a>
</g>
</g>
<!-- Node8&#45;&gt;Node19 -->
<g id="edge25_Node000008_Node000019" class="edge">
<title>Node8&#45;&gt;Node19</title>
<g id="a_edge25_Node000008_Node000019"><a xlink:title=" ">
<path fill="none" stroke="#63b8ff" d="M464.54,-158.97C477.82,-150.91 499.13,-137.98 515.05,-128.31"/>
<polygon fill="#63b8ff" stroke="#63b8ff" points="516.97,-131.24 523.7,-123.06 513.34,-125.25 516.97,-131.24"/>
</a>
</g>
</g>
<!-- Node20 -->
<g id="Node000020" class="node">
<title>Node20</title>
<g id="a_Node000020"><a xlink:href="../../d9/dfc/coord_8hpp.html" target="_top" xlink:title=" ">
<polygon fill="white" stroke="#666666" points="386.15,-123 246.15,-123 246.15,-106 386.15,-106 386.15,-123"/>
<text text-anchor="middle" x="316.15" y="-112.6" font-family="Helvetica,sans-Serif" font-size="8.00">include/types/containers/coord.hpp</text>
</a>
</g>
</g>
<!-- Node8&#45;&gt;Node20 -->
<g id="edge29_Node000008_Node000020" class="edge">
<title>Node8&#45;&gt;Node20</title>
<g id="a_edge29_Node000008_Node000020"><a xlink:title=" ">
<path fill="none" stroke="#63b8ff" d="M432.08,-158.97C409.28,-150.42 371.85,-136.39 345.71,-126.59"/>
<polygon fill="#63b8ff" stroke="#63b8ff" points="346.89,-123.29 336.3,-123.06 344.43,-129.84 346.89,-123.29"/>
</a>
</g>
</g>
<!-- Node11&#45;&gt;Node2 -->
<g id="edge16_Node000011_Node000002" class="edge">
<title>Node11&#45;&gt;Node2</title>
<g id="a_edge16_Node000011_Node000002"><a xlink:title=" ">
<path fill="none" stroke="#63b8ff" d="M855.96,-110.94C737.49,-102.05 345.88,-72.68 237.92,-64.58"/>
<polygon fill="#63b8ff" stroke="#63b8ff" points="238.06,-61.08 227.82,-63.83 237.53,-68.06 238.06,-61.08"/>
</a>
</g>
</g>
<!-- Node11&#45;&gt;Node3 -->
<g id="edge18_Node000011_Node000003" class="edge">
<title>Node11&#45;&gt;Node3</title>
<g id="a_edge18_Node000011_Node000003"><a xlink:title=" ">
<path fill="none" stroke="#63b8ff" d="M902.49,-105.87C919.81,-94.23 947.67,-71.42 933.15,-53 914.87,-29.8 830.44,-17.56 783.63,-12.45"/>
<polygon fill="#63b8ff" stroke="#63b8ff" points="783.73,-8.94 773.42,-11.38 783,-15.9 783.73,-8.94"/>
</a>
</g>
</g>
<!-- Node11&#45;&gt;Node5 -->
<g id="edge22_Node000011_Node000005" class="edge">
<title>Node11&#45;&gt;Node5</title>
<g id="a_edge22_Node000011_Node000005"><a xlink:title=" ">
<path fill="none" stroke="#63b8ff" d="M855.92,-105.97C812.86,-96.51 739.22,-80.32 694.97,-70.59"/>
<polygon fill="#63b8ff" stroke="#63b8ff" points="695.45,-67.12 684.93,-68.39 693.94,-73.95 695.45,-67.12"/>
</a>
</g>
</g>
<!-- Node12 -->
<g id="Node000012" class="node">
<title>Node12</title>
<g id="a_Node000012"><a xlink:title=" ">
<polygon fill="#e0e0e0" stroke="#999999" points="870.15,-70 832.15,-70 832.15,-53 870.15,-53 870.15,-70"/>
<text text-anchor="middle" x="851.15" y="-59.6" font-family="Helvetica,sans-Serif" font-size="8.00">cmath</text>
</a>
</g>
</g>
<!-- Node11&#45;&gt;Node12 -->
<g id="edge17_Node000011_Node000012" class="edge">
<title>Node11&#45;&gt;Node12</title>
<g id="a_edge17_Node000011_Node000012"><a xlink:title=" ">
<path fill="none" stroke="#63b8ff" d="M884.39,-105.97C878.81,-98.67 870.16,-87.35 863.08,-78.1"/>
<polygon fill="#63b8ff" stroke="#63b8ff" points="865.78,-75.87 856.93,-70.06 860.22,-80.13 865.78,-75.87"/>
</a>
</g>
</g>
<!-- Node13 -->
<g id="Node000013" class="node">
<title>Node13</title>
<g id="a_Node000013"><a xlink:title=" ">
<polygon fill="#e0e0e0" stroke="#999999" points="1030.15,-70 980.15,-70 980.15,-53 1030.15,-53 1030.15,-70"/>
<text text-anchor="middle" x="1005.15" y="-59.6" font-family="Helvetica,sans-Serif" font-size="8.00">functional</text>
</a>
</g>
</g>
<!-- Node11&#45;&gt;Node13 -->
<g id="edge19_Node000011_Node000013" class="edge">
<title>Node11&#45;&gt;Node13</title>
<g id="a_edge19_Node000011_Node000013"><a xlink:title=" ">
<path fill="none" stroke="#63b8ff" d="M907.12,-105.97C925.97,-97.61 956.66,-84 978.68,-74.24"/>
<polygon fill="#63b8ff" stroke="#63b8ff" points="980.39,-77.31 988.11,-70.06 977.55,-70.91 980.39,-77.31"/>
</a>
</g>
</g>
<!-- Node14 -->
<g id="Node000014" class="node">
<title>Node14</title>
<g id="a_Node000014"><a xlink:title=" ">
<polygon fill="#e0e0e0" stroke="#999999" points="814.15,-70 780.15,-70 780.15,-53 814.15,-53 814.15,-70"/>
<text text-anchor="middle" x="797.15" y="-59.6" font-family="Helvetica,sans-Serif" font-size="8.00">limits</text>
</a>
</g>
</g>
<!-- Node11&#45;&gt;Node14 -->
<g id="edge20_Node000011_Node000014" class="edge">
<title>Node11&#45;&gt;Node14</title>
<g id="a_edge20_Node000011_Node000014"><a xlink:title=" ">
<path fill="none" stroke="#63b8ff" d="M876.43,-105.97C861.59,-97.84 837.7,-84.74 820.02,-75.04"/>
<polygon fill="#63b8ff" stroke="#63b8ff" points="821.38,-71.8 810.93,-70.06 818.01,-77.93 821.38,-71.8"/>
</a>
</g>
</g>
<!-- Node15 -->
<g id="Node000015" class="node">
<title>Node15</title>
<g id="a_Node000015"><a xlink:title=" ">
<polygon fill="#e0e0e0" stroke="#999999" points="924.15,-70 888.15,-70 888.15,-53 924.15,-53 924.15,-70"/>
<text text-anchor="middle" x="906.15" y="-59.6" font-family="Helvetica,sans-Serif" font-size="8.00">string</text>
</a>
</g>
</g>
<!-- Node11&#45;&gt;Node15 -->
<g id="edge21_Node000011_Node000015" class="edge">
<title>Node11&#45;&gt;Node15</title>
<g id="a_edge21_Node000011_Node000015"><a xlink:title=" ">
<path fill="none" stroke="#63b8ff" d="M892.51,-105.97C894.66,-99.12 897.92,-88.74 900.71,-79.84"/>
<polygon fill="#63b8ff" stroke="#63b8ff" points="904.12,-80.65 903.78,-70.06 897.45,-78.55 904.12,-80.65"/>
</a>
</g>
</g>
<!-- Node11&#45;&gt;Node16 -->
<g id="edge23_Node000011_Node000016" class="edge">
<title>Node11&#45;&gt;Node16</title>
<g id="a_edge23_Node000011_Node000016"><a xlink:title=" ">
<path fill="none" stroke="#63b8ff" d="M919.81,-105.97C954.69,-97.12 1012.75,-82.39 1051.48,-72.57"/>
<polygon fill="#63b8ff" stroke="#63b8ff" points="1052.54,-75.91 1061.37,-70.06 1050.82,-69.12 1052.54,-75.91"/>
</a>
</g>
</g>
<!-- Node16&#45;&gt;Node3 -->
<g id="edge24_Node000016_Node000003" class="edge">
<title>Node16&#45;&gt;Node3</title>
<g id="a_edge24_Node000016_Node000003"><a xlink:title=" ">
<path fill="none" stroke="#63b8ff" d="M1048.56,-54.09C979.44,-43.69 844.45,-23.39 783.43,-14.21"/>
<polygon fill="#63b8ff" stroke="#63b8ff" points="783.68,-10.7 773.27,-12.68 782.64,-17.63 783.68,-10.7"/>
</a>
</g>
</g>
<!-- Node19&#45;&gt;Node5 -->
<g id="edge27_Node000019_Node000005" class="edge">
<title>Node19&#45;&gt;Node5</title>
<g id="a_edge27_Node000019_Node000005"><a xlink:title=" ">
<path fill="none" stroke="#63b8ff" d="M554.15,-105.97C574.33,-97.54 607.29,-83.76 630.7,-73.98"/>
<polygon fill="#63b8ff" stroke="#63b8ff" points="632.2,-77.14 640.07,-70.06 629.5,-70.68 632.2,-77.14"/>
</a>
</g>
</g>
<!-- Node19&#45;&gt;Node14 -->
<g id="edge26_Node000019_Node000014" class="edge">
<title>Node19&#45;&gt;Node14</title>
<g id="a_edge26_Node000019_Node000014"><a xlink:title=" ">
<path fill="none" stroke="#63b8ff" d="M574.66,-105.97C628.07,-95.54 723.31,-76.93 769.93,-67.82"/>
<polygon fill="#63b8ff" stroke="#63b8ff" points="770.75,-71.23 779.89,-65.87 769.41,-64.35 770.75,-71.23"/>
</a>
</g>
</g>
<!-- Node20&#45;&gt;Node2 -->
<g id="edge30_Node000020_Node000002" class="edge">
<title>Node20&#45;&gt;Node2</title>
<g id="a_edge30_Node000020_Node000002"><a xlink:title=" ">
<path fill="none" stroke="#63b8ff" d="M300.51,-105.97C283.29,-97.69 255.35,-84.25 235.1,-74.5"/>
<polygon fill="#63b8ff" stroke="#63b8ff" points="236.38,-71.24 225.85,-70.06 233.35,-77.55 236.38,-71.24"/>
</a>
</g>
</g>
<!-- Node20&#45;&gt;Node3 -->
<g id="edge31_Node000020_Node000003" class="edge">
<title>Node20&#45;&gt;Node3</title>
<g id="a_edge31_Node000020_Node000003"><a xlink:title=" ">
<path fill="none" stroke="#63b8ff" d="M323.68,-105.99C337.49,-92.75 368.36,-65.46 400.15,-53 458.34,-30.19 645.61,-16.2 720.63,-11.39"/>
<polygon fill="#63b8ff" stroke="#63b8ff" points="721.1,-14.87 730.86,-10.74 720.66,-7.88 721.1,-14.87"/>
</a>
</g>
</g>
<!-- Node21&#45;&gt;Node3 -->
<g id="edge33_Node000021_Node000003" class="edge">
<title>Node21&#45;&gt;Node3</title>
<g id="a_edge33_Node000021_Node000003"><a xlink:title=" ">
<path fill="none" stroke="#63b8ff" d="M1063.71,-161.06C1117.47,-155.38 1183.87,-144.2 1201.15,-123 1205.92,-117.14 1204.2,-112.91 1201.15,-106 1187.06,-74.05 1174.95,-67.42 1143.15,-53 1079,-23.92 864.44,-13.46 783.45,-10.5"/>
<polygon fill="#63b8ff" stroke="#63b8ff" points="783.5,-7 773.38,-10.14 783.25,-13.99 783.5,-7"/>
</a>
</g>
</g>
<!-- Node21&#45;&gt;Node5 -->
<g id="edge37_Node000021_Node000005" class="edge">
<title>Node21&#45;&gt;Node5</title>
<g id="a_edge37_Node000021_Node000005"><a xlink:title=" ">
<path fill="none" stroke="#63b8ff" d="M965.06,-158.99C936.48,-150.4 888.39,-135.87 847.15,-123 792.44,-105.92 729.02,-85.49 691.32,-73.28"/>
<polygon fill="#63b8ff" stroke="#63b8ff" points="691.98,-69.81 681.39,-70.06 689.83,-76.47 691.98,-69.81"/>
</a>
</g>
</g>
<!-- Node21&#45;&gt;Node7 -->
<g id="edge38_Node000021_Node000007" class="edge">
<title>Node21&#45;&gt;Node7</title>
<g id="a_edge38_Node000021_Node000007"><a xlink:title=" ">
<path fill="none" stroke="#63b8ff" d="M942.49,-158.97C874.57,-148.25 751.99,-128.9 696.2,-120.09"/>
<polygon fill="#63b8ff" stroke="#63b8ff" points="696.71,-116.62 686.28,-118.52 695.61,-123.54 696.71,-116.62"/>
</a>
</g>
</g>
<!-- Node21&#45;&gt;Node11 -->
<g id="edge39_Node000021_Node000011" class="edge">
<title>Node21&#45;&gt;Node11</title>
<g id="a_edge39_Node000021_Node000011"><a xlink:title=" ">
<path fill="none" stroke="#63b8ff" d="M975.39,-158.97C959.22,-150.73 933.03,-137.37 913.95,-127.64"/>
<polygon fill="#63b8ff" stroke="#63b8ff" points="915.46,-124.48 904.97,-123.06 912.28,-130.72 915.46,-124.48"/>
</a>
</g>
</g>
<!-- Node21&#45;&gt;Node13 -->
<g id="edge34_Node000021_Node000013" class="edge">
<title>Node21&#45;&gt;Node13</title>
<g id="a_edge34_Node000021_Node000013"><a xlink:title=" ">
<path fill="none" stroke="#63b8ff" d="M993.33,-158.97C996.75,-150.43 1002,-135.99 1004.15,-123 1006.51,-108.71 1006.62,-92.25 1006.22,-80.12"/>
<polygon fill="#63b8ff" stroke="#63b8ff" points="1009.71,-79.83 1005.73,-70.01 1002.72,-80.17 1009.71,-79.83"/>
</a>
</g>
</g>
<!-- Node21&#45;&gt;Node14 -->
<g id="edge35_Node000021_Node000014" class="edge">
<title>Node21&#45;&gt;Node14</title>
<g id="a_edge35_Node000021_Node000014"><a xlink:title=" ">
<path fill="none" stroke="#63b8ff" d="M984.79,-158.61C975.66,-145.76 955.86,-120.31 933.15,-106 923.76,-100.08 860.9,-81.14 824.02,-70.31"/>
<polygon fill="#63b8ff" stroke="#63b8ff" points="824.95,-66.93 814.37,-67.48 822.98,-73.65 824.95,-66.93"/>
</a>
</g>
</g>
<!-- Node21&#45;&gt;Node16 -->
<g id="edge40_Node000021_Node000016" class="edge">
<title>Node21&#45;&gt;Node16</title>
<g id="a_edge40_Node000021_Node000016"><a xlink:title=" ">
<path fill="none" stroke="#63b8ff" d="M1063.85,-159.57C1112.46,-153.3 1169.88,-142.05 1185.15,-123 1203.63,-99.94 1166.88,-82.91 1134.06,-72.9"/>
<polygon fill="#63b8ff" stroke="#63b8ff" points="1134.64,-69.42 1124.06,-70.01 1132.7,-76.15 1134.64,-69.42"/>
</a>
</g>
</g>
<!-- Node22 -->
<g id="Node000022" class="node">
<title>Node22</title>
<g id="a_Node000022"><a xlink:title=" ">
<polygon fill="#e0e0e0" stroke="#999999" points="1176.15,-123 1094.15,-123 1094.15,-106 1176.15,-106 1176.15,-123"/>
<text text-anchor="middle" x="1135.15" y="-112.6" font-family="Helvetica,sans-Serif" font-size="8.00">memory_resource</text>
</a>
</g>
</g>
<!-- Node21&#45;&gt;Node22 -->
<g id="edge36_Node000021_Node000022" class="edge">
<title>Node21&#45;&gt;Node22</title>
<g id="a_edge36_Node000021_Node000022"><a xlink:title=" ">
<path fill="none" stroke="#63b8ff" d="M1011.54,-158.97C1035.96,-150.39 1076.11,-136.27 1104,-126.46"/>
<polygon fill="#63b8ff" stroke="#63b8ff" points="1105.39,-129.68 1113.67,-123.06 1103.07,-123.07 1105.39,-129.68"/>
</a>
</g>
</g>
<!-- Node23&#45;&gt;Node3 -->
<g id="edge43_Node000023_Node000003" class="edge">
<title>Node23&#45;&gt;Node3</title>
<g id="a_edge43_Node000023_Node000003"><a xlink:title=" ">
<path fill="none" stroke="#63b8ff" d="M752.15,-158.93C752.15,-135.26 752.15,-62.19 752.15,-27.78"/>
<polygon fill="#63b8ff" stroke="#63b8ff" points="755.65,-27.37 752.15,-17.37 748.65,-27.37 755.65,-27.37"/>
</a>
</g>
</g>
<!-- Node23&#45;&gt;Node5 -->
<g id="edge45_Node000023_Node000005" class="edge">
<title>Node23&#45;&gt;Node5</title>
<g id="a_edge45_Node000023_Node000005"><a xlink:title=" ">
<path fill="none" stroke="#63b8ff" d="M745.08,-158.68C729.56,-141.51 692.25,-100.23 671.92,-77.74"/>
<polygon fill="#63b8ff" stroke="#63b8ff" points="674.34,-75.2 665.04,-70.12 669.15,-79.89 674.34,-75.2"/>
</a>
</g>
</g>
<!-- Node23&#45;&gt;Node7 -->
<g id="edge46_Node000023_Node000007" class="edge">
<title>Node23&#45;&gt;Node7</title>
<g id="a_edge46_Node000023_Node000007"><a xlink:title=" ">
<path fill="none" stroke="#63b8ff" d="M739.61,-158.97C726.17,-150.91 704.61,-137.98 688.5,-128.31"/>
<polygon fill="#63b8ff" stroke="#63b8ff" points="690.12,-125.2 679.74,-123.06 686.52,-131.2 690.12,-125.2"/>
</a>
</g>
</g>
<!-- Node23&#45;&gt;Node11 -->
<g id="edge47_Node000023_Node000011" class="edge">
<title>Node23&#45;&gt;Node11</title>
<g id="a_edge47_Node000023_Node000011"><a xlink:title=" ">
<path fill="none" stroke="#63b8ff" d="M772.51,-158.97C795.65,-150.42 833.63,-136.39 860.15,-126.59"/>
<polygon fill="#63b8ff" stroke="#63b8ff" points="861.54,-129.81 869.7,-123.06 859.11,-123.24 861.54,-129.81"/>
</a>
</g>
</g>
<!-- Node23&#45;&gt;Node14 -->
<g id="edge44_Node000023_Node000014" class="edge">
<title>Node23&#45;&gt;Node14</title>
<g id="a_edge44_Node000023_Node000014"><a xlink:title=" ">
<path fill="none" stroke="#63b8ff" d="M755.53,-158.68C762.77,-141.96 779.89,-102.39 789.77,-79.56"/>
<polygon fill="#63b8ff" stroke="#63b8ff" points="793.09,-80.69 793.85,-70.12 786.67,-77.91 793.09,-80.69"/>
</a>
</g>
</g>
<!-- Node23&#45;&gt;Node16 -->
<g id="edge48_Node000023_Node000016" class="edge">
<title>Node23&#45;&gt;Node16</title>
<g id="a_edge48_Node000023_Node000016"><a xlink:title=" ">
<path fill="none" stroke="#63b8ff" d="M788.46,-161.95C831.63,-155.89 905.44,-143.5 966.15,-123 1003.86,-110.27 1044.91,-88.8 1069.32,-75.15"/>
<polygon fill="#63b8ff" stroke="#63b8ff" points="1071.14,-78.15 1078.11,-70.17 1067.69,-72.06 1071.14,-78.15"/>
</a>
</g>
</g>
<!-- Node24&#45;&gt;Node16 -->
<g id="edge51_Node000024_Node000016" class="edge">
<title>Node24&#45;&gt;Node16</title>
<g id="a_edge51_Node000024_Node000016"><a xlink:title=" ">
<path fill="none" stroke="#63b8ff" d="M1322.26,-158.96C1310.14,-146.15 1283.67,-120.15 1256.15,-106 1220.81,-87.83 1177.21,-76.76 1143.71,-70.34"/>
<polygon fill="#63b8ff" stroke="#63b8ff" points="1144.12,-66.85 1133.65,-68.49 1142.85,-73.74 1144.12,-66.85"/>
</a>
</g>
</g>
<!-- Node25 -->
<g id="Node000025" class="node">
<title>Node25</title>
<g id="a_Node000025"><a xlink:href="../../dc/d3c/bnode_8hpp.html" target="_top" xlink:title=" ">
<polygon fill="white" stroke="#666666" points="1401.65,-123 1346.65,-123 1346.65,-106 1401.65,-106 1401.65,-123"/>
<text text-anchor="middle" x="1374.15" y="-112.6" font-family="Helvetica,sans-Serif" font-size="8.00">bnode.hpp</text>
</a>
</g>
</g>
<!-- Node24&#45;&gt;Node25 -->
<g id="edge50_Node000024_Node000025" class="edge">
<title>Node24&#45;&gt;Node25</title>
<g id="a_edge50_Node000024_Node000025"><a xlink:title=" ">
<path fill="none" stroke="#63b8ff" d="M1335.79,-158.97C1342.3,-151.59 1352.43,-140.12 1360.64,-130.81"/>
<polygon fill="#63b8ff" stroke="#63b8ff" points="1363.49,-132.87 1367.48,-123.06 1358.24,-128.24 1363.49,-132.87"/>
</a>
</g>
</g>
</g>
</svg>