<?xml version="1.0" encoding="UTF-8" standalone="no"?>
<!DOCTYPE svg PUBLIC "-//W3C//DTD SVG 1.1//EN"
 "http://www.w3.org/Graphics/SVG/1.1/DTD/svg11.dtd">
<!-- Generated by graphviz version 2.43.0 (0)
 -->
<!-- Title: jps.hpp Pages: 1 -->
<svg width="1275pt" height="237pt"
 viewBox="0.00 0.00 1274.99 237.00" xmlns="http://www.w3.org/2000/svg" xmlns:xlink="http://www.w3.org/1999/xlink">
<g id="graph0" class="graph" transform="scale(1 1) rotate(0) translate(4 233)">
<title>jps.hpp</title>
<!-- Node1 -->
<g id="Node000001" class="node">
<title>Node1</title>
<g id="a_Node000001"><a xlink:title=" ">
<polygon fill="#999999" stroke="#666666" points="440.49,-229 398.49,-229 398.49,-212 440.49,-212 440.49,-229"/>
<text text-anchor="middle" x="419.49" y="-218.6" font-family="Helvetica,sans-Serif" font-size="8.00">jps.hpp</text>
</a>
</g>
</g>
<!-- Node2 -->
<g id="Node000002" class="node">
<title>Node2</title>
<g id="a_Node000002"><a xlink:title=" ">
<polygon fill="#e0e0e0" stroke="#999999" points="136.99,-70 101.99,-70 101.99,-53 136.99,-53 136.99,-70"/>
<text text-anchor="middle" x="119.49" y="-59.6" font-family="Helvetica,sans-Serif" font-size="8.00">array</text>
</a>
</g>
</g>
<!-- Node1&#45;&gt;Node2 -->
<g id="edge1_Node000001_Node000002" class="edge">
<title>Node1&#45;&gt;Node2</title>
<g id="a_edge1_Node000001_Node000002"><a xlink:title=" ">
<path fill="none" stroke="#63b8ff" d="M398.39,-218.82C319.36,-216.08 44.1,-204.53 18.49,-176 -14.4,-139.35 54.39,-95.8 94.05,-74.9"/>
<polygon fill="#63b8ff" stroke="#63b8ff" points="96.13,-77.77 103.43,-70.09 92.93,-71.54 96.13,-77.77"/>
</a>
</g>
</g>
<!-- Node3 -->
<g id="Node000003" class="node">
<title>Node3</title>
<g id="a_Node000003"><a xlink:title=" ">
<polygon fill="#e0e0e0" stroke="#999999" points="680.49,-17 638.49,-17 638.49,0 680.49,0 680.49,-17"/>
<text text-anchor="middle" x="659.49" y="-6.6" font-family="Helvetica,sans-Serif" font-size="8.00">cstddef</text>
</a>
</g>
</g>
<!-- Node1&#45;&gt;Node3 -->
<g id="edge2_Node000001_Node000003" class="edge">
<title>Node1&#45;&gt;Node3</title>
<g id="a_edge2_Node000001_Node000003"><a xlink:title=" ">
<path fill="none" stroke="#63b8ff" d="M398.31,-218.89C317.67,-216.36 32.96,-205.4 6.49,-176 -6.75,-161.29 2.9,-134.16 22.49,-106 44.78,-73.97 56,-66.83 92.49,-53 191.8,-15.36 524.63,-10.26 628.35,-9.59"/>
<polygon fill="#63b8ff" stroke="#63b8ff" points="628.5,-13.09 638.48,-9.54 628.47,-6.09 628.5,-13.09"/>
</a>
</g>
</g>
<!-- Node4 -->
<g id="Node000004" class="node">
<title>Node4</title>
<g id="a_Node000004"><a xlink:title=" ">
<polygon fill="#e0e0e0" stroke="#999999" points="66.99,-176 27.99,-176 27.99,-159 66.99,-159 66.99,-176"/>
<text text-anchor="middle" x="47.49" y="-165.6" font-family="Helvetica,sans-Serif" font-size="8.00">cstdint</text>
</a>
</g>
</g>
<!-- Node1&#45;&gt;Node4 -->
<g id="edge3_Node000001_Node000004" class="edge">
<title>Node1&#45;&gt;Node4</title>
<g id="a_edge3_Node000001_Node000004"><a xlink:title=" ">
<path fill="none" stroke="#63b8ff" d="M398.43,-217.45C345.14,-212.12 200.69,-196.77 81.49,-176 80.04,-175.75 78.56,-175.47 77.06,-175.19"/>
<polygon fill="#63b8ff" stroke="#63b8ff" points="77.71,-171.75 67.21,-173.16 76.3,-178.6 77.71,-171.75"/>
</a>
</g>
</g>
<!-- Node5 -->
<g id="Node000005" class="node">
<title>Node5</title>
<g id="a_Node000005"><a xlink:title=" ">
<polygon fill="#e0e0e0" stroke="#999999" points="468.99,-70 415.99,-70 415.99,-53 468.99,-53 468.99,-70"/>
<text text-anchor="middle" x="442.49" y="-59.6" font-family="Helvetica,sans-Serif" font-size="8.00">type_traits</text>
</a>
</g>
</g>
<!-- Node1&#45;&gt;Node5 -->
<g id="edge4_Node000001_Node000005" class="edge">
<title>Node1&#45;&gt;Node5</title>
<g id="a_edge4_Node000001_Node000005"><a xlink:title=" ">
<path fill="none" stroke="#63b8ff" d="M398.27,-216.77C313.73,-205.46 7.87,-160.4 56.49,-106 79.54,-80.21 313.48,-67.82 405.55,-63.92"/>
<polygon fill="#63b8ff" stroke="#63b8ff" points="405.95,-67.4 415.8,-63.49 405.66,-60.41 405.95,-67.4"/>
</a>
</g>
</g>
<!-- Node6 -->
<g id="Node000006" class="node">
<title>Node6</title>
<g id="a_Node000006"><a xlink:title=" ">
<polygon fill="#e0e0e0" stroke="#999999" points="99.49,-123 65.49,-123 65.49,-106 99.49,-106 99.49,-123"/>
<text text-anchor="middle" x="82.49" y="-112.6" font-family="Helvetica,sans-Serif" font-size="8.00">utility</text>
</a>
</g>
</g>
<!-- Node1&#45;&gt;Node6 -->
<g id="edge5_Node000001_Node000006" class="edge">
<title>Node1&#45;&gt;Node6</title>
<g id="a_edge5_Node000001_Node000006"><a xlink:title=" ">
<path fill="none" stroke="#63b8ff" d="M398.41,-212.99C339.73,-194.89 174.55,-143.91 109.4,-123.8"/>
<polygon fill="#63b8ff" stroke="#63b8ff" points="110.42,-120.46 99.83,-120.85 108.36,-127.14 110.42,-120.46"/>
</a>
</g>
</g>
<!-- Node7 -->
<g id="Node000007" class="node">
<title>Node7</title>
<g id="a_Node000007"><a xlink:title=" ">
<polygon fill="#e0e0e0" stroke="#999999" points="527.49,-123 489.49,-123 489.49,-106 527.49,-106 527.49,-123"/>
<text text-anchor="middle" x="508.49" y="-112.6" font-family="Helvetica,sans-Serif" font-size="8.00">vector</text>
</a>
</g>
</g>
<!-- Node1&#45;&gt;Node7 -->
<g id="edge6_Node000001_Node000007" class="edge">
<title>Node1&#45;&gt;Node7</title>
<g id="a_edge6_Node000001_Node000007"><a xlink:title=" ">
<path fill="none" stroke="#63b8ff" d="M426.18,-211.68C440.88,-194.51 476.2,-153.23 495.45,-130.74"/>
<polygon fill="#63b8ff" stroke="#63b8ff" points="498.12,-133 501.97,-123.12 492.81,-128.45 498.12,-133"/>
</a>
</g>
</g>
<!-- Node8 -->
<g id="Node000008" class="node">
<title>Node8</title>
<g id="a_Node000008"><a xlink:href="../../dc/d8a/grid_8hpp.html" target="_top" xlink:title=" ">
<polygon fill="white" stroke="#666666" points="370.49,-176 292.49,-176 292.49,-159 370.49,-159 370.49,-176"/>
<text text-anchor="middle" x="331.49" y="-165.6" font-family="Helvetica,sans-Serif" font-size="8.00">../mazes/grid.hpp</text>
</a>
</g>
</g>
<!-- Node1&#45;&gt;Node8 -->
<g id="edge7_Node000001_Node000008" class="edge">
<title>Node1&#45;&gt;Node8</title>
<g id="a_edge7_Node000001_Node000008"><a xlink:title=" ">
<path fill="none" stroke="#63b8ff" d="M406.51,-211.97C392.6,-203.91 370.28,-190.98 353.59,-181.31"/>
<polygon fill="#63b8ff" stroke="#63b8ff" points="354.94,-178.04 344.53,-176.06 351.43,-184.1 354.94,-178.04"/>
</a>
</g>
</g>
<!-- Node11 -->
<g id="Node000011" class="node">
<title>Node11</title>
<g id="a_Node000011"><a xlink:href="../../df/d93/utils_8hpp.html" target="_top" xlink:title=" ">
<polygon fill="white" stroke="#666666" points="689.49,-123 621.49,-123 621.49,-106 689.49,-106 689.49,-123"/>
<text text-anchor="middle" x="655.49" y="-112.6" font-family="Helvetica,sans-Serif" font-size="8.00">../utils/utils.hpp</text>
</a>
</g>
</g>
<!-- Node1&#45;&gt;Node11 -->
<g id="edge38_Node000001_Node000011" class="edge">
<title>Node1&#45;&gt;Node11</title>
<g id="a_edge38_Node000001_Node000011"><a xlink:title=" ">
<path fill="none" stroke="#63b8ff" d="M436.85,-211.85C477.78,-193.82 580.54,-148.53 629.19,-127.09"/>
<polygon fill="#63b8ff" stroke="#63b8ff" points="630.69,-130.25 638.43,-123.02 627.87,-123.85 630.69,-130.25"/>
</a>
</g>
</g>
<!-- Node16 -->
<g id="Node000016" class="node">
<title>Node16</title>
<g id="a_Node000016"><a xlink:href="../../d7/d65/intrinsics_8hpp.html" target="_top" xlink:title=" ">
<polygon fill="#fff0f0" stroke="red" points="949.99,-70 864.99,-70 864.99,-53 949.99,-53 949.99,-70"/>
<text text-anchor="middle" x="907.49" y="-59.6" font-family="Helvetica,sans-Serif" font-size="8.00">../utils/intrinsics.hpp</text>
</a>
</g>
</g>
<!-- Node1&#45;&gt;Node16 -->
<g id="edge49_Node000001_Node000016" class="edge">
<title>Node1&#45;&gt;Node16</title>
<g id="a_edge49_Node000001_Node000016"><a xlink:title=" ">
<path fill="none" stroke="#63b8ff" d="M440.74,-219.9C541.32,-221.3 967.87,-221.29 1042.49,-123 1067.43,-90.15 1007.97,-74.71 960.17,-67.76"/>
<polygon fill="#63b8ff" stroke="#63b8ff" points="960.57,-64.28 950.19,-66.4 959.62,-71.22 960.57,-64.28"/>
</a>
</g>
</g>
<!-- Node20 -->
<g id="Node000020" class="node">
<title>Node20</title>
<g id="a_Node000020"><a xlink:href="../../d8/d62/existence__set_8hpp.html" target="_top" xlink:title=" ">
<polygon fill="white" stroke="#666666" points="842.99,-176 695.99,-176 695.99,-159 842.99,-159 842.99,-176"/>
<text text-anchor="middle" x="769.49" y="-165.6" font-family="Helvetica,sans-Serif" font-size="8.00">../types/containers/existence_set.hpp</text>
</a>
</g>
</g>
<!-- Node1&#45;&gt;Node20 -->
<g id="edge29_Node000001_Node000020" class="edge">
<title>Node1&#45;&gt;Node20</title>
<g id="a_edge29_Node000001_Node000020"><a xlink:title=" ">
<path fill="none" stroke="#63b8ff" d="M440.6,-216.42C492.47,-208.87 627.79,-189.15 707.76,-177.5"/>
<polygon fill="#63b8ff" stroke="#63b8ff" points="708.32,-180.95 717.71,-176.05 707.31,-174.02 708.32,-180.95"/>
</a>
</g>
</g>
<!-- Node22 -->
<g id="Node000022" class="node">
<title>Node22</title>
<g id="a_Node000022"><a xlink:href="../../d2/d1c/solver_8hpp.html" target="_top" xlink:title=" ">
<polygon fill="white" stroke="#666666" points="677.49,-176 605.49,-176 605.49,-159 677.49,-159 677.49,-176"/>
<text text-anchor="middle" x="641.49" y="-165.6" font-family="Helvetica,sans-Serif" font-size="8.00">base/solver.hpp</text>
</a>
</g>
</g>
<!-- Node1&#45;&gt;Node22 -->
<g id="edge39_Node000001_Node000022" class="edge">
<title>Node1&#45;&gt;Node22</title>
<g id="a_edge39_Node000001_Node000022"><a xlink:title=" ">
<path fill="none" stroke="#63b8ff" d="M440.78,-214.61C476.97,-206.29 551.18,-189.25 598.52,-178.37"/>
<polygon fill="#63b8ff" stroke="#63b8ff" points="599.52,-181.73 608.48,-176.08 597.95,-174.91 599.52,-181.73"/>
</a>
</g>
</g>
<!-- Node23 -->
<g id="Node000023" class="node">
<title>Node23</title>
<g id="a_Node000023"><a xlink:href="../../d0/def/unmanaged__node_8hpp.html" target="_top" xlink:title=" ">
<polygon fill="white" stroke="#666666" points="1266.99,-176 1149.99,-176 1149.99,-159 1266.99,-159 1266.99,-176"/>
<text text-anchor="middle" x="1208.49" y="-165.6" font-family="Helvetica,sans-Serif" font-size="8.00">base/unmanaged_node.hpp</text>
</a>
</g>
</g>
<!-- Node1&#45;&gt;Node23 -->
<g id="edge46_Node000001_Node000023" class="edge">
<title>Node1&#45;&gt;Node23</title>
<g id="a_edge46_Node000001_Node000023"><a xlink:title=" ">
<path fill="none" stroke="#63b8ff" d="M440.6,-218.54C526.88,-214.55 861.18,-198.41 1135.49,-176 1136.96,-175.88 1138.44,-175.76 1139.94,-175.63"/>
<polygon fill="#63b8ff" stroke="#63b8ff" points="1140.29,-179.11 1149.94,-174.73 1139.67,-172.14 1140.29,-179.11"/>
</a>
</g>
</g>
<!-- Node8&#45;&gt;Node2 -->
<g id="edge9_Node000008_Node000002" class="edge">
<title>Node8&#45;&gt;Node2</title>
<g id="a_edge9_Node000008_Node000002"><a xlink:title=" ">
<path fill="none" stroke="#63b8ff" d="M292.41,-166.1C253.02,-163.78 192.36,-154.76 151.49,-123 137.57,-112.18 129.04,-93.59 124.33,-79.86"/>
<polygon fill="#63b8ff" stroke="#63b8ff" points="127.62,-78.66 121.33,-70.14 120.93,-80.72 127.62,-78.66"/>
</a>
</g>
</g>
<!-- Node8&#45;&gt;Node3 -->
<g id="edge11_Node000008_Node000003" class="edge">
<title>Node8&#45;&gt;Node3</title>
<g id="a_edge11_Node000008_Node000003"><a xlink:title=" ">
<path fill="none" stroke="#63b8ff" d="M292.17,-160.26C253.17,-153.18 197.43,-140.32 184.49,-123 179.97,-116.95 179.81,-111.93 184.49,-106 240,-35.76 531.37,-15.62 628.18,-10.82"/>
<polygon fill="#63b8ff" stroke="#63b8ff" points="628.41,-14.31 638.23,-10.34 628.07,-7.32 628.41,-14.31"/>
</a>
</g>
</g>
<!-- Node8&#45;&gt;Node5 -->
<g id="edge12_Node000008_Node000005" class="edge">
<title>Node8&#45;&gt;Node5</title>
<g id="a_edge12_Node000008_Node000005"><a xlink:title=" ">
<path fill="none" stroke="#63b8ff" d="M332.11,-158.87C333.5,-146.38 337.89,-121.44 351.49,-106 365.81,-89.74 387.56,-79.03 406.2,-72.31"/>
<polygon fill="#63b8ff" stroke="#63b8ff" points="407.52,-75.56 415.89,-69.07 405.29,-68.92 407.52,-75.56"/>
</a>
</g>
</g>
<!-- Node8&#45;&gt;Node6 -->
<g id="edge13_Node000008_Node000006" class="edge">
<title>Node8&#45;&gt;Node6</title>
<g id="a_edge13_Node000008_Node000006"><a xlink:title=" ">
<path fill="none" stroke="#63b8ff" d="M292.41,-159.19C248.7,-150.91 175.86,-136.76 113.49,-123 112.21,-122.72 110.91,-122.42 109.59,-122.12"/>
<polygon fill="#63b8ff" stroke="#63b8ff" points="110.05,-118.64 99.52,-119.75 108.45,-125.45 110.05,-118.64"/>
</a>
</g>
</g>
<!-- Node8&#45;&gt;Node7 -->
<g id="edge14_Node000008_Node000007" class="edge">
<title>Node8&#45;&gt;Node7</title>
<g id="a_edge14_Node000008_Node000007"><a xlink:title=" ">
<path fill="none" stroke="#63b8ff" d="M357.61,-158.97C390.2,-149.58 445.76,-133.57 479.6,-123.82"/>
<polygon fill="#63b8ff" stroke="#63b8ff" points="480.71,-127.15 489.35,-121.01 478.78,-120.42 480.71,-127.15"/>
</a>
</g>
</g>
<!-- Node9 -->
<g id="Node000009" class="node">
<title>Node9</title>
<g id="a_Node000009"><a xlink:title=" ">
<polygon fill="#e0e0e0" stroke="#999999" points="243.49,-123 193.49,-123 193.49,-106 243.49,-106 243.49,-123"/>
<text text-anchor="middle" x="218.49" y="-112.6" font-family="Helvetica,sans-Serif" font-size="8.00">algorithm</text>
</a>
</g>
</g>
<!-- Node8&#45;&gt;Node9 -->
<g id="edge8_Node000008_Node000009" class="edge">
<title>Node8&#45;&gt;Node9</title>
<g id="a_edge8_Node000008_Node000009"><a xlink:title=" ">
<path fill="none" stroke="#63b8ff" d="M314.82,-158.97C296.29,-150.61 266.14,-137 244.5,-127.24"/>
<polygon fill="#63b8ff" stroke="#63b8ff" points="245.79,-123.98 235.23,-123.06 242.91,-130.36 245.79,-123.98"/>
</a>
</g>
</g>
<!-- Node10 -->
<g id="Node000010" class="node">
<title>Node10</title>
<g id="a_Node000010"><a xlink:title=" ">
<polygon fill="#e0e0e0" stroke="#999999" points="303.49,-123 261.49,-123 261.49,-106 303.49,-106 303.49,-123"/>
<text text-anchor="middle" x="282.49" y="-112.6" font-family="Helvetica,sans-Serif" font-size="8.00">cassert</text>
</a>
</g>
</g>
<!-- Node8&#45;&gt;Node10 -->
<g id="edge10_Node000008_Node000010" class="edge">
<title>Node8&#45;&gt;Node10</title>
<g id="a_edge10_Node000008_Node000010"><a xlink:title=" ">
<path fill="none" stroke="#63b8ff" d="M324.26,-158.97C317.1,-151.52 305.92,-139.89 296.93,-130.53"/>
<polygon fill="#63b8ff" stroke="#63b8ff" points="299.2,-127.84 289.75,-123.06 294.16,-132.69 299.2,-127.84"/>
</a>
</g>
</g>
<!-- Node8&#45;&gt;Node11 -->
<g id="edge15_Node000008_Node000011" class="edge">
<title>Node8&#45;&gt;Node11</title>
<g id="a_edge15_Node000008_Node000011"><a xlink:title=" ">
<path fill="none" stroke="#63b8ff" d="M370.57,-160.35C431.16,-150.81 547.38,-132.52 611.07,-122.49"/>
<polygon fill="#63b8ff" stroke="#63b8ff" points="611.86,-125.91 621.2,-120.9 610.77,-119 611.86,-125.91"/>
</a>
</g>
</g>
<!-- Node8&#45;&gt;Node16 -->
<g id="edge28_Node000008_Node000016" class="edge">
<title>Node8&#45;&gt;Node16</title>
<g id="a_edge28_Node000008_Node000016"><a xlink:title=" ">
<path fill="none" stroke="#63b8ff" d="M370.66,-163.97C438.14,-159.15 580.43,-146.92 698.49,-123 762.66,-110 835.73,-86.87 876.25,-73.29"/>
<polygon fill="#63b8ff" stroke="#63b8ff" points="877.47,-76.57 885.82,-70.05 875.22,-69.94 877.47,-76.57"/>
</a>
</g>
</g>
<!-- Node19 -->
<g id="Node000019" class="node">
<title>Node19</title>
<g id="a_Node000019"><a xlink:href="../../d1/d2d/weighted__node_8hpp.html" target="_top" xlink:title=" ">
<polygon fill="white" stroke="#666666" points="470.99,-123 359.99,-123 359.99,-106 470.99,-106 470.99,-123"/>
<text text-anchor="middle" x="415.49" y="-112.6" font-family="Helvetica,sans-Serif" font-size="8.00">nodes/weighted_node.hpp</text>
</a>
</g>
</g>
<!-- Node8&#45;&gt;Node19 -->
<g id="edge25_Node000008_Node000019" class="edge">
<title>Node8&#45;&gt;Node19</title>
<g id="a_edge25_Node000008_Node000019"><a xlink:title=" ">
<path fill="none" stroke="#63b8ff" d="M343.89,-158.97C357.16,-150.91 378.47,-137.98 394.39,-128.31"/>
<polygon fill="#63b8ff" stroke="#63b8ff" points="396.31,-131.24 403.05,-123.06 392.68,-125.25 396.31,-131.24"/>
</a>
</g>
</g>
<!-- Node11&#45;&gt;Node2 -->
<g id="edge16_Node000011_Node000002" class="edge">
<title>Node11&#45;&gt;Node2</title>
<g id="a_edge16_Node000011_Node000002"><a xlink:title=" ">
<path fill="none" stroke="#63b8ff" d="M621.15,-110.23C522.12,-100.81 237.38,-73.72 147.22,-65.14"/>
<polygon fill="#63b8ff" stroke="#63b8ff" points="147.5,-61.65 137.21,-64.19 146.84,-68.62 147.5,-61.65"/>
</a>
</g>
</g>
<!-- Node11&#45;&gt;Node3 -->
<g id="edge18_Node000011_Node000003" class="edge">
<title>Node11&#45;&gt;Node3</title>
<g id="a_edge18_Node000011_Node000003"><a xlink:title=" ">
<path fill="none" stroke="#63b8ff" d="M621.25,-108.4C581.19,-100.89 522.91,-84.24 544.49,-53 563.13,-26.02 600.81,-15.76 627.96,-11.86"/>
<polygon fill="#63b8ff" stroke="#63b8ff" points="628.65,-15.31 638.15,-10.62 627.8,-8.36 628.65,-15.31"/>
</a>
</g>
</g>
<!-- Node11&#45;&gt;Node5 -->
<g id="edge22_Node000011_Node000005" class="edge">
<title>Node11&#45;&gt;Node5</title>
<g id="a_edge22_Node000011_Node000005"><a xlink:title=" ">
<path fill="none" stroke="#63b8ff" d="M624.06,-105.97C585.34,-96.7 519.67,-80.98 478.82,-71.2"/>
<polygon fill="#63b8ff" stroke="#63b8ff" points="479.54,-67.77 469,-68.85 477.91,-74.58 479.54,-67.77"/>
</a>
</g>
</g>
<!-- Node12 -->
<g id="Node000012" class="node">
<title>Node12</title>
<g id="a_Node000012"><a xlink:title=" ">
<polygon fill="#e0e0e0" stroke="#999999" points="591.49,-70 553.49,-70 553.49,-53 591.49,-53 591.49,-70"/>
<text text-anchor="middle" x="572.49" y="-59.6" font-family="Helvetica,sans-Serif" font-size="8.00">cmath</text>
</a>
</g>
</g>
<!-- Node11&#45;&gt;Node12 -->
<g id="edge17_Node000011_Node000012" class="edge">
<title>Node11&#45;&gt;Node12</title>
<g id="a_edge17_Node000011_Node000012"><a xlink:title=" ">
<path fill="none" stroke="#63b8ff" d="M643.24,-105.97C630.13,-97.91 609.07,-84.98 593.34,-75.31"/>
<polygon fill="#63b8ff" stroke="#63b8ff" points="595.14,-72.31 584.79,-70.06 591.48,-78.27 595.14,-72.31"/>
</a>
</g>
</g>
<!-- Node13 -->
<g id="Node000013" class="node">
<title>Node13</title>
<g id="a_Node000013"><a xlink:title=" ">
<polygon fill="#e0e0e0" stroke="#999999" points="765.49,-70 715.49,-70 715.49,-53 765.49,-53 765.49,-70"/>
<text text-anchor="middle" x="740.49" y="-59.6" font-family="Helvetica,sans-Serif" font-size="8.00">functional</text>
</a>
</g>
</g>
<!-- Node11&#45;&gt;Node13 -->
<g id="edge19_Node000011_Node000013" class="edge">
<title>Node11&#45;&gt;Node13</title>
<g id="a_edge19_Node000011_Node000013"><a xlink:title=" ">
<path fill="none" stroke="#63b8ff" d="M668.03,-105.97C681.47,-97.91 703.03,-84.98 719.14,-75.31"/>
<polygon fill="#63b8ff" stroke="#63b8ff" points="721.12,-78.2 727.9,-70.06 717.52,-72.2 721.12,-78.2"/>
</a>
</g>
</g>
<!-- Node14 -->
<g id="Node000014" class="node">
<title>Node14</title>
<g id="a_Node000014"><a xlink:title=" ">
<polygon fill="#e0e0e0" stroke="#999999" points="697.49,-70 663.49,-70 663.49,-53 697.49,-53 697.49,-70"/>
<text text-anchor="middle" x="680.49" y="-59.6" font-family="Helvetica,sans-Serif" font-size="8.00">limits</text>
</a>
</g>
</g>
<!-- Node11&#45;&gt;Node14 -->
<g id="edge20_Node000011_Node000014" class="edge">
<title>Node11&#45;&gt;Node14</title>
<g id="a_edge20_Node000011_Node000014"><a xlink:title=" ">
<path fill="none" stroke="#63b8ff" d="M659.18,-105.97C662.61,-98.97 667.85,-88.28 672.28,-79.25"/>
<polygon fill="#63b8ff" stroke="#63b8ff" points="675.53,-80.58 676.79,-70.06 669.24,-77.49 675.53,-80.58"/>
</a>
</g>
</g>
<!-- Node15 -->
<g id="Node000015" class="node">
<title>Node15</title>
<g id="a_Node000015"><a xlink:title=" ">
<polygon fill="#e0e0e0" stroke="#999999" points="645.49,-70 609.49,-70 609.49,-53 645.49,-53 645.49,-70"/>
<text text-anchor="middle" x="627.49" y="-59.6" font-family="Helvetica,sans-Serif" font-size="8.00">string</text>
</a>
</g>
</g>
<!-- Node11&#45;&gt;Node15 -->
<g id="edge21_Node000011_Node000015" class="edge">
<title>Node11&#45;&gt;Node15</title>
<g id="a_edge21_Node000011_Node000015"><a xlink:title=" ">
<path fill="none" stroke="#63b8ff" d="M651.36,-105.97C647.47,-98.89 641.52,-88.05 636.53,-78.96"/>
<polygon fill="#63b8ff" stroke="#63b8ff" points="639.52,-77.14 631.64,-70.06 633.38,-80.51 639.52,-77.14"/>
</a>
</g>
</g>
<!-- Node11&#45;&gt;Node16 -->
<g id="edge23_Node000011_Node000016" class="edge">
<title>Node11&#45;&gt;Node16</title>
<g id="a_edge23_Node000011_Node000016"><a xlink:title=" ">
<path fill="none" stroke="#63b8ff" d="M689.74,-106.57C733.8,-97.65 810.57,-82.12 860.18,-72.07"/>
<polygon fill="#63b8ff" stroke="#63b8ff" points="860.93,-75.49 870.03,-70.08 859.54,-68.63 860.93,-75.49"/>
</a>
</g>
</g>
<!-- Node16&#45;&gt;Node3 -->
<g id="edge24_Node000016_Node000003" class="edge">
<title>Node16&#45;&gt;Node3</title>
<g id="a_edge24_Node000016_Node000003"><a xlink:title=" ">
<path fill="none" stroke="#63b8ff" d="M870.9,-52.97C822.02,-42.92 736.29,-25.29 690.45,-15.87"/>
<polygon fill="#63b8ff" stroke="#63b8ff" points="691.01,-12.41 680.51,-13.82 689.6,-19.26 691.01,-12.41"/>
</a>
</g>
</g>
<!-- Node19&#45;&gt;Node5 -->
<g id="edge27_Node000019_Node000005" class="edge">
<title>Node19&#45;&gt;Node5</title>
<g id="a_edge27_Node000019_Node000005"><a xlink:title=" ">
<path fill="none" stroke="#63b8ff" d="M419.48,-105.97C423.22,-98.89 428.97,-88.05 433.78,-78.96"/>
<polygon fill="#63b8ff" stroke="#63b8ff" points="436.91,-80.53 438.49,-70.06 430.72,-77.26 436.91,-80.53"/>
</a>
</g>
</g>
<!-- Node19&#45;&gt;Node14 -->
<g id="edge26_Node000019_Node000014" class="edge">
<title>Node19&#45;&gt;Node14</title>
<g id="a_edge26_Node000019_Node000014"><a xlink:title=" ">
<path fill="none" stroke="#63b8ff" d="M465.23,-105.95C511.6,-98.57 582.86,-86.38 653.28,-70.07"/>
<polygon fill="#63b8ff" stroke="#63b8ff" points="654.28,-73.44 663.21,-67.75 652.68,-66.62 654.28,-73.44"/>
</a>
</g>
</g>
<!-- Node20&#45;&gt;Node3 -->
<g id="edge30_Node000020_Node000003" class="edge">
<title>Node20&#45;&gt;Node3</title>
<g id="a_edge30_Node000020_Node000003"><a xlink:title=" ">
<path fill="none" stroke="#63b8ff" d="M843.01,-165.16C914.95,-162.11 1017.3,-152.53 1042.49,-123 1047.4,-117.25 1046.12,-112.63 1042.49,-106 1021.46,-67.62 1000.51,-68.26 959.49,-53 866.08,-18.25 746.7,-11.11 690.89,-9.74"/>
<polygon fill="#63b8ff" stroke="#63b8ff" points="690.67,-6.24 680.61,-9.54 690.53,-13.24 690.67,-6.24"/>
</a>
</g>
</g>
<!-- Node20&#45;&gt;Node5 -->
<g id="edge34_Node000020_Node000005" class="edge">
<title>Node20&#45;&gt;Node5</title>
<g id="a_edge34_Node000020_Node000005"><a xlink:title=" ">
<path fill="none" stroke="#63b8ff" d="M739.79,-158.95C708.08,-150.73 656.45,-136.89 612.49,-123 609.03,-121.91 521.5,-90.69 473.42,-73.54"/>
<polygon fill="#63b8ff" stroke="#63b8ff" points="474.4,-70.17 463.81,-70.11 472.05,-76.77 474.4,-70.17"/>
</a>
</g>
</g>
<!-- Node20&#45;&gt;Node7 -->
<g id="edge35_Node000020_Node000007" class="edge">
<title>Node20&#45;&gt;Node7</title>
<g id="a_edge35_Node000020_Node000007"><a xlink:title=" ">
<path fill="none" stroke="#63b8ff" d="M730.98,-158.97C678.25,-148.67 584.75,-130.4 537.52,-121.17"/>
<polygon fill="#63b8ff" stroke="#63b8ff" points="538.12,-117.72 527.63,-119.24 536.77,-124.59 538.12,-117.72"/>
</a>
</g>
</g>
<!-- Node20&#45;&gt;Node11 -->
<g id="edge36_Node000020_Node000011" class="edge">
<title>Node20&#45;&gt;Node11</title>
<g id="a_edge36_Node000020_Node000011"><a xlink:title=" ">
<path fill="none" stroke="#63b8ff" d="M752.67,-158.97C733.98,-150.61 703.56,-137 681.73,-127.24"/>
<polygon fill="#63b8ff" stroke="#63b8ff" points="682.94,-123.94 672.38,-123.06 680.08,-130.33 682.94,-123.94"/>
</a>
</g>
</g>
<!-- Node20&#45;&gt;Node13 -->
<g id="edge31_Node000020_Node000013" class="edge">
<title>Node20&#45;&gt;Node13</title>
<g id="a_edge31_Node000020_Node000013"><a xlink:title=" ">
<path fill="none" stroke="#63b8ff" d="M770.88,-158.84C772.69,-147.16 775.03,-124.3 769.49,-106 766.4,-95.78 760.02,-85.76 754.03,-77.92"/>
<polygon fill="#63b8ff" stroke="#63b8ff" points="756.67,-75.62 747.63,-70.1 751.25,-80.05 756.67,-75.62"/>
</a>
</g>
</g>
<!-- Node20&#45;&gt;Node14 -->
<g id="edge32_Node000020_Node000014" class="edge">
<title>Node20&#45;&gt;Node14</title>
<g id="a_edge32_Node000020_Node000014"><a xlink:title=" ">
<path fill="none" stroke="#63b8ff" d="M762.8,-158.68C748.11,-141.51 712.78,-100.23 693.53,-77.74"/>
<polygon fill="#63b8ff" stroke="#63b8ff" points="696.18,-75.45 687.02,-70.12 690.86,-80 696.18,-75.45"/>
</a>
</g>
</g>
<!-- Node20&#45;&gt;Node16 -->
<g id="edge37_Node000020_Node000016" class="edge">
<title>Node20&#45;&gt;Node16</title>
<g id="a_edge37_Node000020_Node000016"><a xlink:title=" ">
<path fill="none" stroke="#63b8ff" d="M843.18,-164.28C910.64,-160.51 1003.38,-150.35 1026.49,-123 1049.55,-95.71 1001.7,-79.35 959.97,-70.65"/>
<polygon fill="#63b8ff" stroke="#63b8ff" points="960.58,-67.2 950.09,-68.71 959.22,-74.07 960.58,-67.2"/>
</a>
</g>
</g>
<!-- Node21 -->
<g id="Node000021" class="node">
<title>Node21</title>
<g id="a_Node000021"><a xlink:title=" ">
<polygon fill="#e0e0e0" stroke="#999999" points="1017.49,-123 935.49,-123 935.49,-106 1017.49,-106 1017.49,-123"/>
<text text-anchor="middle" x="976.49" y="-112.6" font-family="Helvetica,sans-Serif" font-size="8.00">memory_resource</text>
</a>
</g>
</g>
<!-- Node20&#45;&gt;Node21 -->
<g id="edge33_Node000020_Node000021" class="edge">
<title>Node20&#45;&gt;Node21</title>
<g id="a_edge33_Node000020_Node000021"><a xlink:title=" ">
<path fill="none" stroke="#63b8ff" d="M800.04,-158.97C836.04,-150.1 896,-135.33 935.89,-125.5"/>
<polygon fill="#63b8ff" stroke="#63b8ff" points="936.95,-128.85 945.82,-123.06 935.28,-122.05 936.95,-128.85"/>
</a>
</g>
</g>
<!-- Node22&#45;&gt;Node3 -->
<g id="edge40_Node000022_Node000003" class="edge">
<title>Node22&#45;&gt;Node3</title>
<g id="a_edge40_Node000022_Node000003"><a xlink:title=" ">
<path fill="none" stroke="#63b8ff" d="M662.75,-158.92C694.5,-146.25 752.9,-117.37 774.49,-70 791.03,-33.73 729.94,-18.7 690.51,-12.88"/>
<polygon fill="#63b8ff" stroke="#63b8ff" points="690.91,-9.4 680.53,-11.53 689.97,-16.34 690.91,-9.4"/>
</a>
</g>
</g>
<!-- Node22&#45;&gt;Node5 -->
<g id="edge42_Node000022_Node000005" class="edge">
<title>Node22&#45;&gt;Node5</title>
<g id="a_edge42_Node000022_Node000005"><a xlink:title=" ">
<path fill="none" stroke="#63b8ff" d="M629.09,-158.87C609.64,-147.02 570.68,-123.71 536.49,-106 514.19,-94.45 488.25,-82.55 469.27,-74.13"/>
<polygon fill="#63b8ff" stroke="#63b8ff" points="470.6,-70.89 460.04,-70.06 467.78,-77.3 470.6,-70.89"/>
</a>
</g>
</g>
<!-- Node22&#45;&gt;Node7 -->
<g id="edge43_Node000022_Node000007" class="edge">
<title>Node22&#45;&gt;Node7</title>
<g id="a_edge43_Node000022_Node000007"><a xlink:title=" ">
<path fill="none" stroke="#63b8ff" d="M621.87,-158.97C599.54,-150.41 562.87,-136.35 537.3,-126.55"/>
<polygon fill="#63b8ff" stroke="#63b8ff" points="538.35,-123.2 527.76,-122.89 535.85,-129.74 538.35,-123.2"/>
</a>
</g>
</g>
<!-- Node22&#45;&gt;Node11 -->
<g id="edge44_Node000022_Node000011" class="edge">
<title>Node22&#45;&gt;Node11</title>
<g id="a_edge44_Node000022_Node000011"><a xlink:title=" ">
<path fill="none" stroke="#63b8ff" d="M643.56,-158.97C645.44,-152.12 648.29,-141.74 650.73,-132.84"/>
<polygon fill="#63b8ff" stroke="#63b8ff" points="654.15,-133.63 653.42,-123.06 647.39,-131.77 654.15,-133.63"/>
</a>
</g>
</g>
<!-- Node22&#45;&gt;Node14 -->
<g id="edge41_Node000022_Node000014" class="edge">
<title>Node22&#45;&gt;Node14</title>
<g id="a_edge41_Node000022_Node000014"><a xlink:title=" ">
<path fill="none" stroke="#63b8ff" d="M658.46,-158.91C672.06,-151.79 690.21,-139.74 698.49,-123 705.47,-108.89 698.96,-91.58 691.89,-79.09"/>
<polygon fill="#63b8ff" stroke="#63b8ff" points="694.63,-76.87 686.35,-70.26 688.7,-80.59 694.63,-76.87"/>
</a>
</g>
</g>
<!-- Node22&#45;&gt;Node16 -->
<g id="edge45_Node000022_Node000016" class="edge">
<title>Node22&#45;&gt;Node16</title>
<g id="a_edge45_Node000022_Node000016"><a xlink:title=" ">
<path fill="none" stroke="#63b8ff" d="M677.52,-160.49C743.98,-149.33 879.51,-126.26 883.49,-123 896.34,-112.49 902.34,-94.13 905.13,-80.38"/>
<polygon fill="#63b8ff" stroke="#63b8ff" points="908.64,-80.62 906.79,-70.19 901.73,-79.5 908.64,-80.62"/>
</a>
</g>
</g>
<!-- Node23&#45;&gt;Node16 -->
<g id="edge48_Node000023_Node000016" class="edge">
<title>Node23&#45;&gt;Node16</title>
<g id="a_edge48_Node000023_Node000016"><a xlink:title=" ">
<path fill="none" stroke="#63b8ff" d="M1201.7,-158.75C1189.73,-145.63 1163.49,-119.19 1135.49,-106 1079.28,-79.52 1008.08,-69.16 960.32,-65.1"/>
<polygon fill="#63b8ff" stroke="#63b8ff" points="960.45,-61.6 950.21,-64.31 959.9,-68.58 960.45,-61.6"/>
</a>
</g>
</g>
<!-- Node24 -->
<g id="Node000024" class="node">
<title>Node24</title>
<g id="a_Node000024"><a xlink:href="../../dc/d3c/bnode_8hpp.html" target="_top" xlink:title=" ">
<polygon fill="white" stroke="#666666" points="1242.99,-123 1187.99,-123 1187.99,-106 1242.99,-106 1242.99,-123"/>
<text text-anchor="middle" x="1215.49" y="-112.6" font-family="Helvetica,sans-Serif" font-size="8.00">bnode.hpp</text>
</a>
</g>
</g>
<!-- Node23&#45;&gt;Node24 -->
<g id="edge47_Node000023_Node000024" class="edge">
<title>Node23&#45;&gt;Node24</title>
<g id="a_edge47_Node000023_Node000024"><a xlink:title=" ">
<path fill="none" stroke="#63b8ff" d="M1209.52,-158.97C1210.46,-152.19 1211.86,-141.97 1213.07,-133.13"/>
<polygon fill="#63b8ff" stroke="#63b8ff" points="1216.56,-133.44 1214.45,-123.06 1209.63,-132.49 1216.56,-133.44"/>
</a>
</g>
</g>
</g>
</svg>
