<?xml version="1.0" encoding="UTF-8" standalone="no"?>
<!DOCTYPE svg PUBLIC "-//W3C//DTD SVG 1.1//EN"
 "http://www.w3.org/Graphics/SVG/1.1/DTD/svg11.dtd">
<!-- Generated by graphviz version 2.43.0 (0)
 -->
<!-- Title: gbest_first.hpp Pages: 1 -->
<svg width="1226pt" height="290pt"
 viewBox="0.00 0.00 1225.86 290.00" xmlns="http://www.w3.org/2000/svg" xmlns:xlink="http://www.w3.org/1999/xlink">
<g id="graph0" class="graph" transform="scale(1 1) rotate(0) translate(4 286)">
<title>gbest_first.hpp</title>
<!-- Node1 -->
<g id="Node000001" class="node">
<title>Node1</title>
<g id="a_Node000001"><a xlink:title=" ">
<polygon fill="#999999" stroke="#666666" points="720.36,-282 651.36,-282 651.36,-265 720.36,-265 720.36,-282"/>
<text text-anchor="middle" x="685.86" y="-271.6" font-family="Helvetica,sans-Serif" font-size="8.00">gbest_first.hpp</text>
</a>
</g>
</g>
<!-- Node2 -->
<g id="Node000002" class="node">
<title>Node2</title>
<g id="a_Node000002"><a xlink:title=" ">
<polygon fill="#e0e0e0" stroke="#999999" points="674.86,-17 632.86,-17 632.86,0 674.86,0 674.86,-17"/>
<text text-anchor="middle" x="653.86" y="-6.6" font-family="Helvetica,sans-Serif" font-size="8.00">cstddef</text>
</a>
</g>
</g>
<!-- Node1&#45;&gt;Node2 -->
<g id="edge1_Node000001_Node000002" class="edge">
<title>Node1&#45;&gt;Node2</title>
<g id="a_edge1_Node000001_Node000002"><a xlink:title=" ">
<path fill="none" stroke="#63b8ff" d="M720.77,-273.12C839.13,-274.3 1217.86,-270.14 1217.86,-168.5 1217.86,-168.5 1217.86,-168.5 1217.86,-113.5 1217.86,-43.67 1140.53,-70.23 1072.86,-53 931.59,-17.02 756.28,-10.7 685.6,-9.66"/>
<polygon fill="#63b8ff" stroke="#63b8ff" points="685.21,-6.16 675.17,-9.54 685.13,-13.16 685.21,-6.16"/>
</a>
</g>
</g>
<!-- Node3 -->
<g id="Node000003" class="node">
<title>Node3</title>
<g id="a_Node000003"><a xlink:href="../../da/deb/managed__node_8hpp.html" target="_top" xlink:title=" ">
<polygon fill="white" stroke="#666666" points="209.86,-229 67.86,-229 67.86,-212 209.86,-212 209.86,-229"/>
<text text-anchor="middle" x="138.86" y="-218.6" font-family="Helvetica,sans-Serif" font-size="8.00">../solvers/base/managed_node.hpp</text>
</a>
</g>
</g>
<!-- Node1&#45;&gt;Node3 -->
<g id="edge2_Node000001_Node000003" class="edge">
<title>Node1&#45;&gt;Node3</title>
<g id="a_edge2_Node000001_Node000003"><a xlink:title=" ">
<path fill="none" stroke="#63b8ff" d="M651.23,-269.27C565.46,-261.27 341.33,-240.38 219.89,-229.05"/>
<polygon fill="#63b8ff" stroke="#63b8ff" points="220.18,-225.57 209.89,-228.12 219.53,-232.54 220.18,-225.57"/>
</a>
</g>
</g>
<!-- Node14 -->
<g id="Node000014" class="node">
<title>Node14</title>
<g id="a_Node000014"><a xlink:href="../../d7/d65/intrinsics_8hpp.html" target="_top" xlink:title=" ">
<polygon fill="#fff0f0" stroke="red" points="521.86,-70 429.86,-70 429.86,-53 521.86,-53 521.86,-70"/>
<text text-anchor="middle" x="475.86" y="-59.6" font-family="Helvetica,sans-Serif" font-size="8.00">../../utils/intrinsics.hpp</text>
</a>
</g>
</g>
<!-- Node1&#45;&gt;Node14 -->
<g id="edge47_Node000001_Node000014" class="edge">
<title>Node1&#45;&gt;Node14</title>
<g id="a_edge47_Node000001_Node000014"><a xlink:title=" ">
<path fill="none" stroke="#63b8ff" d="M651.27,-271.46C527.8,-267.57 113.19,-252.84 58.86,-229 27.49,-215.23 16.41,-207.48 2.86,-176 -31.02,-97.27 286.26,-72.03 419.09,-64.96"/>
<polygon fill="#63b8ff" stroke="#63b8ff" points="419.65,-68.43 429.46,-64.42 419.29,-61.44 419.65,-68.43"/>
</a>
</g>
</g>
<!-- Node17 -->
<g id="Node000017" class="node">
<title>Node17</title>
<g id="a_Node000017"><a xlink:href="../../df/d93/utils_8hpp.html" target="_top" xlink:title=" ">
<polygon fill="#fff0f0" stroke="red" points="691.36,-123 616.36,-123 616.36,-106 691.36,-106 691.36,-123"/>
<text text-anchor="middle" x="653.86" y="-112.6" font-family="Helvetica,sans-Serif" font-size="8.00">../../utils/utils.hpp</text>
</a>
</g>
</g>
<!-- Node1&#45;&gt;Node17 -->
<g id="edge39_Node000001_Node000017" class="edge">
<title>Node1&#45;&gt;Node17</title>
<g id="a_edge39_Node000001_Node000017"><a xlink:title=" ">
<path fill="none" stroke="#63b8ff" d="M684.94,-265C682.61,-246.73 676.04,-198.51 666.86,-159 664.83,-150.24 662.03,-140.64 659.54,-132.7"/>
<polygon fill="#63b8ff" stroke="#63b8ff" points="662.86,-131.57 656.46,-123.12 656.19,-133.71 662.86,-131.57"/>
</a>
</g>
</g>
<!-- Node23 -->
<g id="Node000023" class="node">
<title>Node23</title>
<g id="a_Node000023"><a xlink:href="../../d8/d62/existence__set_8hpp.html" target="_top" xlink:title=" ">
<polygon fill="white" stroke="#666666" points="925.36,-176 778.36,-176 778.36,-159 925.36,-159 925.36,-176"/>
<text text-anchor="middle" x="851.86" y="-165.6" font-family="Helvetica,sans-Serif" font-size="8.00">../types/containers/existence_set.hpp</text>
</a>
</g>
</g>
<!-- Node1&#45;&gt;Node23 -->
<g id="edge24_Node000001_Node000023" class="edge">
<title>Node1&#45;&gt;Node23</title>
<g id="a_edge24_Node000001_Node000023"><a xlink:title=" ">
<path fill="none" stroke="#63b8ff" d="M698.07,-264.85C726.25,-247.2 796.11,-203.43 831.14,-181.49"/>
<polygon fill="#63b8ff" stroke="#63b8ff" points="833.02,-184.43 839.64,-176.16 829.31,-178.5 833.02,-184.43"/>
</a>
</g>
</g>
<!-- Node24 -->
<g id="Node000024" class="node">
<title>Node24</title>
<g id="a_Node000024"><a xlink:href="../../da/d45/heap_8hpp.html" target="_top" xlink:title=" ">
<polygon fill="white" stroke="#666666" points="1127.36,-176 1010.36,-176 1010.36,-159 1127.36,-159 1127.36,-176"/>
<text text-anchor="middle" x="1068.86" y="-165.6" font-family="Helvetica,sans-Serif" font-size="8.00">../types/containers/heap.hpp</text>
</a>
</g>
</g>
<!-- Node1&#45;&gt;Node24 -->
<g id="edge33_Node000001_Node000024" class="edge">
<title>Node1&#45;&gt;Node24</title>
<g id="a_edge33_Node000001_Node000024"><a xlink:title=" ">
<path fill="none" stroke="#63b8ff" d="M713.72,-264.94C781.43,-246.55 954.71,-199.5 1031.39,-178.68"/>
<polygon fill="#63b8ff" stroke="#63b8ff" points="1032.38,-182.03 1041.12,-176.03 1030.55,-175.28 1032.38,-182.03"/>
</a>
</g>
</g>
<!-- Node25 -->
<g id="Node000025" class="node">
<title>Node25</title>
<g id="a_Node000025"><a xlink:href="../../d2/d1c/solver_8hpp.html" target="_top" xlink:title=" ">
<polygon fill="white" stroke="#666666" points="657.86,-176 585.86,-176 585.86,-159 657.86,-159 657.86,-176"/>
<text text-anchor="middle" x="621.86" y="-165.6" font-family="Helvetica,sans-Serif" font-size="8.00">base/solver.hpp</text>
</a>
</g>
</g>
<!-- Node1&#45;&gt;Node25 -->
<g id="edge40_Node000001_Node000025" class="edge">
<title>Node1&#45;&gt;Node25</title>
<g id="a_edge40_Node000001_Node000025"><a xlink:title=" ">
<path fill="none" stroke="#63b8ff" d="M681.05,-264.68C670.67,-247.81 645.97,-207.68 631.98,-184.94"/>
<polygon fill="#63b8ff" stroke="#63b8ff" points="634.78,-182.81 626.56,-176.12 628.82,-186.48 634.78,-182.81"/>
</a>
</g>
</g>
<!-- Node4 -->
<g id="Node000004" class="node">
<title>Node4</title>
<g id="a_Node000004"><a xlink:title=" ">
<polygon fill="#e0e0e0" stroke="#999999" points="159.86,-123 117.86,-123 117.86,-106 159.86,-106 159.86,-123"/>
<text text-anchor="middle" x="138.86" y="-112.6" font-family="Helvetica,sans-Serif" font-size="8.00">cassert</text>
</a>
</g>
</g>
<!-- Node3&#45;&gt;Node4 -->
<g id="edge3_Node000003_Node000004" class="edge">
<title>Node3&#45;&gt;Node4</title>
<g id="a_edge3_Node000003_Node000004"><a xlink:title=" ">
<path fill="none" stroke="#63b8ff" d="M138.86,-211.68C138.86,-195.11 138.86,-156.11 138.86,-133.18"/>
<polygon fill="#63b8ff" stroke="#63b8ff" points="142.36,-133.12 138.86,-123.12 135.36,-133.13 142.36,-133.12"/>
</a>
</g>
</g>
<!-- Node5 -->
<g id="Node000005" class="node">
<title>Node5</title>
<g id="a_Node000005"><a xlink:href="../../dc/d3c/bnode_8hpp.html" target="_top" xlink:title=" ">
<polygon fill="white" stroke="#666666" points="67.36,-176 12.36,-176 12.36,-159 67.36,-159 67.36,-176"/>
<text text-anchor="middle" x="39.86" y="-165.6" font-family="Helvetica,sans-Serif" font-size="8.00">bnode.hpp</text>
</a>
</g>
</g>
<!-- Node3&#45;&gt;Node5 -->
<g id="edge4_Node000003_Node000005" class="edge">
<title>Node3&#45;&gt;Node5</title>
<g id="a_edge4_Node000003_Node000005"><a xlink:title=" ">
<path fill="none" stroke="#63b8ff" d="M124.26,-211.97C108.24,-203.73 82.32,-190.37 63.43,-180.64"/>
<polygon fill="#63b8ff" stroke="#63b8ff" points="65.02,-177.52 54.53,-176.06 61.82,-183.75 65.02,-177.52"/>
</a>
</g>
</g>
<!-- Node6 -->
<g id="Node000006" class="node">
<title>Node6</title>
<g id="a_Node000006"><a xlink:href="../../d9/df8/heterogeneous__pool_8hpp.html" target="_top" xlink:title=" ">
<polygon fill="white" stroke="#666666" points="412.36,-176 255.36,-176 255.36,-159 412.36,-159 412.36,-176"/>
<text text-anchor="middle" x="333.86" y="-165.6" font-family="Helvetica,sans-Serif" font-size="8.00">../../types/pmr/heterogeneous_pool.hpp</text>
</a>
</g>
</g>
<!-- Node3&#45;&gt;Node6 -->
<g id="edge5_Node000003_Node000006" class="edge">
<title>Node3&#45;&gt;Node6</title>
<g id="a_edge5_Node000003_Node000006"><a xlink:title=" ">
<path fill="none" stroke="#63b8ff" d="M167.64,-211.97C201.34,-203.16 257.32,-188.52 294.9,-178.69"/>
<polygon fill="#63b8ff" stroke="#63b8ff" points="296.18,-181.97 304.97,-176.06 294.41,-175.2 296.18,-181.97"/>
</a>
</g>
</g>
<!-- Node3&#45;&gt;Node14 -->
<g id="edge23_Node000003_Node000014" class="edge">
<title>Node3&#45;&gt;Node14</title>
<g id="a_edge23_Node000003_Node000014"><a xlink:title=" ">
<path fill="none" stroke="#63b8ff" d="M132.69,-211.79C117.4,-191.75 80.98,-137.39 108.86,-106 129.13,-83.18 322,-70.25 419.71,-65.12"/>
<polygon fill="#63b8ff" stroke="#63b8ff" points="419.91,-68.61 429.71,-64.6 419.55,-61.62 419.91,-68.61"/>
</a>
</g>
</g>
<!-- Node6&#45;&gt;Node2 -->
<g id="edge7_Node000006_Node000002" class="edge">
<title>Node6&#45;&gt;Node2</title>
<g id="a_edge7_Node000006_Node000002"><a xlink:title=" ">
<path fill="none" stroke="#63b8ff" d="M301.31,-158.92C267.73,-149.53 222.76,-131.58 241.86,-106 287.91,-44.34 534.54,-18.97 622.59,-11.79"/>
<polygon fill="#63b8ff" stroke="#63b8ff" points="623.07,-15.26 632.76,-10.99 622.51,-8.29 623.07,-15.26"/>
</a>
</g>
</g>
<!-- Node6&#45;&gt;Node4 -->
<g id="edge6_Node000006_Node000004" class="edge">
<title>Node6&#45;&gt;Node4</title>
<g id="a_edge6_Node000006_Node000004"><a xlink:title=" ">
<path fill="none" stroke="#63b8ff" d="M305.09,-158.97C268.87,-149.5 206.91,-133.3 169.73,-123.57"/>
<polygon fill="#63b8ff" stroke="#63b8ff" points="170.51,-120.16 159.95,-121.01 168.74,-126.93 170.51,-120.16"/>
</a>
</g>
</g>
<!-- Node7 -->
<g id="Node000007" class="node">
<title>Node7</title>
<g id="a_Node000007"><a xlink:title=" ">
<polygon fill="#e0e0e0" stroke="#999999" points="433.36,-123 394.36,-123 394.36,-106 433.36,-106 433.36,-123"/>
<text text-anchor="middle" x="413.86" y="-112.6" font-family="Helvetica,sans-Serif" font-size="8.00">cstdint</text>
</a>
</g>
</g>
<!-- Node6&#45;&gt;Node7 -->
<g id="edge8_Node000006_Node000007" class="edge">
<title>Node6&#45;&gt;Node7</title>
<g id="a_edge8_Node000006_Node000007"><a xlink:title=" ">
<path fill="none" stroke="#63b8ff" d="M345.67,-158.97C358.19,-150.99 378.23,-138.22 393.34,-128.58"/>
<polygon fill="#63b8ff" stroke="#63b8ff" points="395.46,-131.38 402.01,-123.06 391.7,-125.48 395.46,-131.38"/>
</a>
</g>
</g>
<!-- Node8 -->
<g id="Node000008" class="node">
<title>Node8</title>
<g id="a_Node000008"><a xlink:title=" ">
<polygon fill="#e0e0e0" stroke="#999999" points="618.86,-70 584.86,-70 584.86,-53 618.86,-53 618.86,-70"/>
<text text-anchor="middle" x="601.86" y="-59.6" font-family="Helvetica,sans-Serif" font-size="8.00">limits</text>
</a>
</g>
</g>
<!-- Node6&#45;&gt;Node8 -->
<g id="edge9_Node000006_Node000008" class="edge">
<title>Node6&#45;&gt;Node8</title>
<g id="a_edge9_Node000006_Node000008"><a xlink:title=" ">
<path fill="none" stroke="#63b8ff" d="M319.42,-158.98C299.14,-147.47 266.42,-124.84 282.86,-106 287.67,-100.49 497.67,-74.94 574.27,-65.78"/>
<polygon fill="#63b8ff" stroke="#63b8ff" points="575.05,-69.21 584.57,-64.55 574.22,-62.26 575.05,-69.21"/>
</a>
</g>
</g>
<!-- Node9 -->
<g id="Node000009" class="node">
<title>Node9</title>
<g id="a_Node000009"><a xlink:title=" ">
<polygon fill="#e0e0e0" stroke="#999999" points="483.86,-123 451.86,-123 451.86,-106 483.86,-106 483.86,-123"/>
<text text-anchor="middle" x="467.86" y="-112.6" font-family="Helvetica,sans-Serif" font-size="8.00">map</text>
</a>
</g>
</g>
<!-- Node6&#45;&gt;Node9 -->
<g id="edge10_Node000006_Node000009" class="edge">
<title>Node6&#45;&gt;Node9</title>
<g id="a_edge10_Node000006_Node000009"><a xlink:title=" ">
<path fill="none" stroke="#63b8ff" d="M353.64,-158.97C377.16,-150.02 416.48,-135.06 442.3,-125.23"/>
<polygon fill="#63b8ff" stroke="#63b8ff" points="443.7,-128.44 451.8,-121.62 441.21,-121.9 443.7,-128.44"/>
</a>
</g>
</g>
<!-- Node10 -->
<g id="Node000010" class="node">
<title>Node10</title>
<g id="a_Node000010"><a xlink:title=" ">
<polygon fill="#e0e0e0" stroke="#999999" points="323.86,-123 291.86,-123 291.86,-106 323.86,-106 323.86,-123"/>
<text text-anchor="middle" x="307.86" y="-112.6" font-family="Helvetica,sans-Serif" font-size="8.00">new</text>
</a>
</g>
</g>
<!-- Node6&#45;&gt;Node10 -->
<g id="edge11_Node000006_Node000010" class="edge">
<title>Node6&#45;&gt;Node10</title>
<g id="a_edge11_Node000006_Node000010"><a xlink:title=" ">
<path fill="none" stroke="#63b8ff" d="M330.03,-158.97C326.46,-151.97 321.01,-141.28 316.41,-132.25"/>
<polygon fill="#63b8ff" stroke="#63b8ff" points="319.38,-130.38 311.72,-123.06 313.14,-133.55 319.38,-130.38"/>
</a>
</g>
</g>
<!-- Node11 -->
<g id="Node000011" class="node">
<title>Node11</title>
<g id="a_Node000011"><a xlink:title=" ">
<polygon fill="#e0e0e0" stroke="#999999" points="375.86,-123 341.86,-123 341.86,-106 375.86,-106 375.86,-123"/>
<text text-anchor="middle" x="358.86" y="-112.6" font-family="Helvetica,sans-Serif" font-size="8.00">utility</text>
</a>
</g>
</g>
<!-- Node6&#45;&gt;Node11 -->
<g id="edge12_Node000006_Node000011" class="edge">
<title>Node6&#45;&gt;Node11</title>
<g id="a_edge12_Node000006_Node000011"><a xlink:title=" ">
<path fill="none" stroke="#63b8ff" d="M337.55,-158.97C340.99,-151.97 346.23,-141.28 350.65,-132.25"/>
<polygon fill="#63b8ff" stroke="#63b8ff" points="353.9,-133.58 355.16,-123.06 347.62,-130.49 353.9,-133.58"/>
</a>
</g>
</g>
<!-- Node12 -->
<g id="Node000012" class="node">
<title>Node12</title>
<g id="a_Node000012"><a xlink:title=" ">
<polygon fill="#e0e0e0" stroke="#999999" points="785.86,-123 747.86,-123 747.86,-106 785.86,-106 785.86,-123"/>
<text text-anchor="middle" x="766.86" y="-112.6" font-family="Helvetica,sans-Serif" font-size="8.00">vector</text>
</a>
</g>
</g>
<!-- Node6&#45;&gt;Node12 -->
<g id="edge13_Node000006_Node000012" class="edge">
<title>Node6&#45;&gt;Node12</title>
<g id="a_edge13_Node000006_Node000012"><a xlink:title=" ">
<path fill="none" stroke="#63b8ff" d="M397.75,-158.97C492.88,-147.77 667.98,-127.15 737.4,-118.97"/>
<polygon fill="#63b8ff" stroke="#63b8ff" points="738.08,-122.41 747.6,-117.77 737.26,-115.46 738.08,-122.41"/>
</a>
</g>
</g>
<!-- Node13 -->
<g id="Node000013" class="node">
<title>Node13</title>
<g id="a_Node000013"><a xlink:title=" ">
<polygon fill="#e0e0e0" stroke="#999999" points="1075.86,-123 993.86,-123 993.86,-106 1075.86,-106 1075.86,-123"/>
<text text-anchor="middle" x="1034.86" y="-112.6" font-family="Helvetica,sans-Serif" font-size="8.00">memory_resource</text>
</a>
</g>
</g>
<!-- Node6&#45;&gt;Node13 -->
<g id="edge14_Node000006_Node000013" class="edge">
<title>Node6&#45;&gt;Node13</title>
<g id="a_edge14_Node000006_Node000013"><a xlink:title=" ">
<path fill="none" stroke="#63b8ff" d="M412.58,-160.77C557.33,-150.24 862.05,-128.07 983.4,-119.24"/>
<polygon fill="#63b8ff" stroke="#63b8ff" points="983.82,-122.72 993.54,-118.51 983.31,-115.74 983.82,-122.72"/>
</a>
</g>
</g>
<!-- Node6&#45;&gt;Node14 -->
<g id="edge15_Node000006_Node000014" class="edge">
<title>Node6&#45;&gt;Node14</title>
<g id="a_edge15_Node000006_Node000014"><a xlink:title=" ">
<path fill="none" stroke="#63b8ff" d="M306.31,-158.93C274.87,-148.95 230.18,-129.83 249.86,-106 271,-80.41 359.89,-69.71 419.69,-65.36"/>
<polygon fill="#63b8ff" stroke="#63b8ff" points="420.02,-68.84 429.75,-64.66 419.54,-61.86 420.02,-68.84"/>
</a>
</g>
</g>
<!-- Node6&#45;&gt;Node17 -->
<g id="edge17_Node000006_Node000017" class="edge">
<title>Node6&#45;&gt;Node17</title>
<g id="a_edge17_Node000006_Node000017"><a xlink:title=" ">
<path fill="none" stroke="#63b8ff" d="M381.08,-158.97C441.4,-149.36 545.22,-132.82 605.89,-123.15"/>
<polygon fill="#63b8ff" stroke="#63b8ff" points="606.65,-126.57 615.97,-121.54 605.55,-119.66 606.65,-126.57"/>
</a>
</g>
</g>
<!-- Node14&#45;&gt;Node2 -->
<g id="edge16_Node000014_Node000002" class="edge">
<title>Node14&#45;&gt;Node2</title>
<g id="a_edge16_Node000014_Node000002"><a xlink:title=" ">
<path fill="none" stroke="#63b8ff" d="M502.13,-52.97C534.29,-43.76 588.7,-28.17 622.88,-18.38"/>
<polygon fill="#63b8ff" stroke="#63b8ff" points="624.14,-21.66 632.79,-15.54 622.21,-14.93 624.14,-21.66"/>
</a>
</g>
</g>
<!-- Node17&#45;&gt;Node2 -->
<g id="edge18_Node000017_Node000002" class="edge">
<title>Node17&#45;&gt;Node2</title>
<g id="a_edge18_Node000017_Node000002"><a xlink:title=" ">
<path fill="none" stroke="#63b8ff" d="M653.86,-105.68C653.86,-89.11 653.86,-50.11 653.86,-27.18"/>
<polygon fill="#63b8ff" stroke="#63b8ff" points="657.36,-27.12 653.86,-17.12 650.36,-27.13 657.36,-27.12"/>
</a>
</g>
</g>
<!-- Node17&#45;&gt;Node8 -->
<g id="edge20_Node000017_Node000008" class="edge">
<title>Node17&#45;&gt;Node8</title>
<g id="a_edge20_Node000017_Node000008"><a xlink:title=" ">
<path fill="none" stroke="#63b8ff" d="M646.19,-105.97C638.51,-98.44 626.49,-86.65 616.9,-77.25"/>
<polygon fill="#63b8ff" stroke="#63b8ff" points="619.16,-74.56 609.57,-70.06 614.26,-79.56 619.16,-74.56"/>
</a>
</g>
</g>
<!-- Node17&#45;&gt;Node14 -->
<g id="edge22_Node000017_Node000014" class="edge">
<title>Node17&#45;&gt;Node14</title>
<g id="a_edge22_Node000017_Node000014"><a xlink:title=" ">
<path fill="none" stroke="#63b8ff" d="M627.6,-105.97C596.97,-97.2 546.17,-82.64 511.87,-72.82"/>
<polygon fill="#63b8ff" stroke="#63b8ff" points="512.81,-69.45 502.24,-70.06 510.89,-76.18 512.81,-69.45"/>
</a>
</g>
</g>
<!-- Node20 -->
<g id="Node000020" class="node">
<title>Node20</title>
<g id="a_Node000020"><a xlink:title=" ">
<polygon fill="#e0e0e0" stroke="#999999" points="1005.86,-70 955.86,-70 955.86,-53 1005.86,-53 1005.86,-70"/>
<text text-anchor="middle" x="980.86" y="-59.6" font-family="Helvetica,sans-Serif" font-size="8.00">functional</text>
</a>
</g>
</g>
<!-- Node17&#45;&gt;Node20 -->
<g id="edge19_Node000017_Node000020" class="edge">
<title>Node17&#45;&gt;Node20</title>
<g id="a_edge19_Node000017_Node000020"><a xlink:title=" ">
<path fill="none" stroke="#63b8ff" d="M691.38,-107.65C755.13,-97.71 883.72,-77.65 945.78,-67.97"/>
<polygon fill="#63b8ff" stroke="#63b8ff" points="946.52,-71.4 955.86,-66.4 945.44,-64.48 946.52,-71.4"/>
</a>
</g>
</g>
<!-- Node22 -->
<g id="Node000022" class="node">
<title>Node22</title>
<g id="a_Node000022"><a xlink:title=" ">
<polygon fill="#e0e0e0" stroke="#999999" points="746.36,-70 693.36,-70 693.36,-53 746.36,-53 746.36,-70"/>
<text text-anchor="middle" x="719.86" y="-59.6" font-family="Helvetica,sans-Serif" font-size="8.00">type_traits</text>
</a>
</g>
</g>
<!-- Node17&#45;&gt;Node22 -->
<g id="edge21_Node000017_Node000022" class="edge">
<title>Node17&#45;&gt;Node22</title>
<g id="a_edge21_Node000017_Node000022"><a xlink:title=" ">
<path fill="none" stroke="#63b8ff" d="M663.6,-105.97C673.64,-98.22 689.53,-85.94 701.87,-76.41"/>
<polygon fill="#63b8ff" stroke="#63b8ff" points="704.31,-78.94 710.09,-70.06 700.03,-73.4 704.31,-78.94"/>
</a>
</g>
</g>
<!-- Node23&#45;&gt;Node2 -->
<g id="edge25_Node000023_Node000002" class="edge">
<title>Node23&#45;&gt;Node2</title>
<g id="a_edge25_Node000023_Node000002"><a xlink:title=" ">
<path fill="none" stroke="#63b8ff" d="M861.12,-158.74C874.06,-146.92 894.74,-123.9 882.86,-106 838.32,-38.88 736.93,-18.34 685.31,-12.13"/>
<polygon fill="#63b8ff" stroke="#63b8ff" points="685.42,-8.62 675.09,-11.01 684.65,-15.58 685.42,-8.62"/>
</a>
</g>
</g>
<!-- Node23&#45;&gt;Node8 -->
<g id="edge27_Node000023_Node000008" class="edge">
<title>Node23&#45;&gt;Node8</title>
<g id="a_edge27_Node000023_Node000008"><a xlink:title=" ">
<path fill="none" stroke="#63b8ff" d="M851.15,-158.83C849.5,-145.83 844.23,-119.55 827.86,-106 812.65,-93.4 686.08,-74.31 629.27,-66.27"/>
<polygon fill="#63b8ff" stroke="#63b8ff" points="629.6,-62.79 619.21,-64.86 628.63,-69.72 629.6,-62.79"/>
</a>
</g>
</g>
<!-- Node23&#45;&gt;Node12 -->
<g id="edge30_Node000023_Node000012" class="edge">
<title>Node23&#45;&gt;Node12</title>
<g id="a_edge30_Node000023_Node000012"><a xlink:title=" ">
<path fill="none" stroke="#63b8ff" d="M839.32,-158.97C825.89,-150.91 804.33,-137.98 788.21,-128.31"/>
<polygon fill="#63b8ff" stroke="#63b8ff" points="789.83,-125.2 779.46,-123.06 786.23,-131.2 789.83,-125.2"/>
</a>
</g>
</g>
<!-- Node23&#45;&gt;Node13 -->
<g id="edge28_Node000023_Node000013" class="edge">
<title>Node23&#45;&gt;Node13</title>
<g id="a_edge28_Node000023_Node000013"><a xlink:title=" ">
<path fill="none" stroke="#63b8ff" d="M878.87,-158.97C910.36,-150.2 962.59,-135.64 997.84,-125.82"/>
<polygon fill="#63b8ff" stroke="#63b8ff" points="999.06,-129.11 1007.75,-123.06 997.18,-122.37 999.06,-129.11"/>
</a>
</g>
</g>
<!-- Node23&#45;&gt;Node14 -->
<g id="edge32_Node000023_Node000014" class="edge">
<title>Node23&#45;&gt;Node14</title>
<g id="a_edge32_Node000023_Node000014"><a xlink:title=" ">
<path fill="none" stroke="#63b8ff" d="M847.04,-158.59C838.42,-145.22 818.99,-118.42 794.86,-106 772,-94.23 617.18,-76.91 531.92,-68.09"/>
<polygon fill="#63b8ff" stroke="#63b8ff" points="532.19,-64.6 521.88,-67.06 531.47,-71.56 532.19,-64.6"/>
</a>
</g>
</g>
<!-- Node23&#45;&gt;Node17 -->
<g id="edge31_Node000023_Node000017" class="edge">
<title>Node23&#45;&gt;Node17</title>
<g id="a_edge31_Node000023_Node000017"><a xlink:title=" ">
<path fill="none" stroke="#63b8ff" d="M822.65,-158.97C788.28,-150.12 731.1,-135.39 692.94,-125.57"/>
<polygon fill="#63b8ff" stroke="#63b8ff" points="693.76,-122.16 683.2,-123.06 692.01,-128.94 693.76,-122.16"/>
</a>
</g>
</g>
<!-- Node23&#45;&gt;Node20 -->
<g id="edge26_Node000023_Node000020" class="edge">
<title>Node23&#45;&gt;Node20</title>
<g id="a_edge26_Node000023_Node000020"><a xlink:title=" ">
<path fill="none" stroke="#63b8ff" d="M876.13,-158.89C895.55,-151.9 922.63,-140.02 941.86,-123 955.6,-110.85 966.41,-92.74 973.13,-79.51"/>
<polygon fill="#63b8ff" stroke="#63b8ff" points="976.45,-80.67 977.62,-70.14 970.14,-77.65 976.45,-80.67"/>
</a>
</g>
</g>
<!-- Node23&#45;&gt;Node22 -->
<g id="edge29_Node000023_Node000022" class="edge">
<title>Node23&#45;&gt;Node22</title>
<g id="a_edge29_Node000023_Node000022"><a xlink:title=" ">
<path fill="none" stroke="#63b8ff" d="M857.38,-158.61C865.3,-146.2 877.72,-121.9 865.86,-106 840.87,-72.47 791.04,-63.76 756.6,-62.01"/>
<polygon fill="#63b8ff" stroke="#63b8ff" points="756.56,-58.51 746.45,-61.67 756.32,-65.5 756.56,-58.51"/>
</a>
</g>
</g>
<!-- Node24&#45;&gt;Node2 -->
<g id="edge34_Node000024_Node000002" class="edge">
<title>Node24&#45;&gt;Node2</title>
<g id="a_edge34_Node000024_Node000002"><a xlink:title=" ">
<path fill="none" stroke="#63b8ff" d="M1088.4,-158.91C1112.16,-148.49 1147.4,-128.46 1132.86,-106 1083.72,-30.06 784.06,-13.68 685.36,-10.32"/>
<polygon fill="#63b8ff" stroke="#63b8ff" points="685.23,-6.82 675.13,-10 685.01,-13.81 685.23,-6.82"/>
</a>
</g>
</g>
<!-- Node24&#45;&gt;Node12 -->
<g id="edge36_Node000024_Node000012" class="edge">
<title>Node24&#45;&gt;Node12</title>
<g id="a_edge36_Node000024_Node000012"><a xlink:title=" ">
<path fill="none" stroke="#63b8ff" d="M1024.3,-158.97C961.68,-148.4 849.35,-129.43 796.23,-120.46"/>
<polygon fill="#63b8ff" stroke="#63b8ff" points="796.57,-116.97 786.13,-118.75 795.41,-123.87 796.57,-116.97"/>
</a>
</g>
</g>
<!-- Node24&#45;&gt;Node13 -->
<g id="edge37_Node000024_Node000013" class="edge">
<title>Node24&#45;&gt;Node13</title>
<g id="a_edge37_Node000024_Node000013"><a xlink:title=" ">
<path fill="none" stroke="#63b8ff" d="M1063.85,-158.97C1059.03,-151.74 1051.59,-140.59 1045.46,-131.39"/>
<polygon fill="#63b8ff" stroke="#63b8ff" points="1048.36,-129.44 1039.9,-123.06 1042.54,-133.32 1048.36,-129.44"/>
</a>
</g>
</g>
<!-- Node24&#45;&gt;Node14 -->
<g id="edge38_Node000024_Node000014" class="edge">
<title>Node24&#45;&gt;Node14</title>
<g id="a_edge38_Node000024_Node000014"><a xlink:title=" ">
<path fill="none" stroke="#63b8ff" d="M1074.89,-158.72C1083.95,-146.02 1098.64,-120.78 1084.86,-106 1046.21,-64.52 632.41,-74.12 575.86,-70 561.68,-68.97 546.37,-67.83 532.09,-66.76"/>
<polygon fill="#63b8ff" stroke="#63b8ff" points="532.15,-63.25 521.91,-65.99 531.62,-70.23 532.15,-63.25"/>
</a>
</g>
</g>
<!-- Node24&#45;&gt;Node20 -->
<g id="edge35_Node000024_Node000020" class="edge">
<title>Node24&#45;&gt;Node20</title>
<g id="a_edge35_Node000024_Node000020"><a xlink:title=" ">
<path fill="none" stroke="#63b8ff" d="M1083.05,-158.86C1102.17,-147.57 1132.23,-125.63 1117.86,-106 1094.83,-74.52 1048.84,-65.26 1016.52,-62.83"/>
<polygon fill="#63b8ff" stroke="#63b8ff" points="1016.32,-59.31 1006.14,-62.24 1015.92,-66.3 1016.32,-59.31"/>
</a>
</g>
</g>
<!-- Node25&#45;&gt;Node2 -->
<g id="edge41_Node000025_Node000002" class="edge">
<title>Node25&#45;&gt;Node2</title>
<g id="a_edge41_Node000025_Node000002"><a xlink:title=" ">
<path fill="none" stroke="#63b8ff" d="M614.22,-158.98C596.15,-140.27 553.9,-90.4 575.86,-53 586.04,-35.68 605.9,-24.75 623.03,-18.17"/>
<polygon fill="#63b8ff" stroke="#63b8ff" points="624.42,-21.4 632.7,-14.79 622.11,-14.79 624.42,-21.4"/>
</a>
</g>
</g>
<!-- Node25&#45;&gt;Node8 -->
<g id="edge42_Node000025_Node000008" class="edge">
<title>Node25&#45;&gt;Node8</title>
<g id="a_edge42_Node000025_Node000008"><a xlink:title=" ">
<path fill="none" stroke="#63b8ff" d="M618.62,-158.96C615.09,-150.41 609.59,-135.98 606.86,-123 603.87,-108.78 602.65,-92.32 602.17,-80.16"/>
<polygon fill="#63b8ff" stroke="#63b8ff" points="605.66,-79.94 601.89,-70.04 598.66,-80.13 605.66,-79.94"/>
</a>
</g>
</g>
<!-- Node25&#45;&gt;Node12 -->
<g id="edge44_Node000025_Node000012" class="edge">
<title>Node25&#45;&gt;Node12</title>
<g id="a_edge44_Node000025_Node000012"><a xlink:title=" ">
<path fill="none" stroke="#63b8ff" d="M643.26,-158.97C668.38,-150.14 710.15,-135.45 738.09,-125.62"/>
<polygon fill="#63b8ff" stroke="#63b8ff" points="739.43,-128.86 747.7,-122.24 737.1,-122.26 739.43,-128.86"/>
</a>
</g>
</g>
<!-- Node25&#45;&gt;Node14 -->
<g id="edge46_Node000025_Node000014" class="edge">
<title>Node25&#45;&gt;Node14</title>
<g id="a_edge46_Node000025_Node000014"><a xlink:title=" ">
<path fill="none" stroke="#63b8ff" d="M602.76,-158.95C584.64,-151.31 557.11,-138.45 535.86,-123 517.81,-109.87 500.19,-91.19 488.76,-78.07"/>
<polygon fill="#63b8ff" stroke="#63b8ff" points="491.36,-75.71 482.21,-70.37 486.02,-80.25 491.36,-75.71"/>
</a>
</g>
</g>
<!-- Node25&#45;&gt;Node17 -->
<g id="edge45_Node000025_Node000017" class="edge">
<title>Node25&#45;&gt;Node17</title>
<g id="a_edge45_Node000025_Node000017"><a xlink:title=" ">
<path fill="none" stroke="#63b8ff" d="M626.59,-158.97C631.08,-151.82 637.98,-140.82 643.72,-131.67"/>
<polygon fill="#63b8ff" stroke="#63b8ff" points="646.77,-133.39 649.12,-123.06 640.84,-129.67 646.77,-133.39"/>
</a>
</g>
</g>
<!-- Node25&#45;&gt;Node22 -->
<g id="edge43_Node000025_Node000022" class="edge">
<title>Node25&#45;&gt;Node22</title>
<g id="a_edge43_Node000025_Node000022"><a xlink:title=" ">
<path fill="none" stroke="#63b8ff" d="M644.7,-158.97C662.1,-152.14 685.44,-140.45 699.86,-123 710,-110.73 715.06,-93.15 717.55,-80.09"/>
<polygon fill="#63b8ff" stroke="#63b8ff" points="721.03,-80.46 719.14,-70.04 714.12,-79.37 721.03,-80.46"/>
</a>
</g>
</g>
</g>
</svg>
