<?xml version="1.0" encoding="UTF-8" standalone="no"?>
<!DOCTYPE svg PUBLIC "-//W3C//DTD SVG 1.1//EN"
 "http://www.w3.org/Graphics/SVG/1.1/DTD/svg11.dtd">
<!-- Generated by graphviz version 2.43.0 (0)
 -->
<!-- Title: managed_node&lt; index_t, derived &gt; Pages: 1 -->
<svg width="654pt" height="349pt"
 viewBox="0.00 0.00 654.00 349.00" xmlns="http://www.w3.org/2000/svg" xmlns:xlink="http://www.w3.org/1999/xlink">
<g id="graph0" class="graph" transform="scale(1 1) rotate(0) translate(4 345)">
<title>managed_node&lt; index_t, derived &gt;</title>
<!-- Node1 -->
<g id="Node000001" class="node">
<title>Node1</title>
<g id="a_Node000001"><a xlink:title="A hierarchical node in a pathfinding context, with a clean&#45;up mechanism.">
<polygon fill="#999999" stroke="transparent" points="379,-108 0,-108 0,0 379,0 379,-108"/>
<text text-anchor="start" x="117" y="-97.6" font-family="Helvetica,sans-Serif" font-size="8.00">managed_node&lt; index_t, derived &gt;</text>
<text text-anchor="start" x="188.5" y="-84.6" font-family="Helvetica,sans-Serif" font-size="8.00"> </text>
<text text-anchor="start" x="4.5" y="-71.6" font-family="Helvetica,sans-Serif" font-size="8.00">+</text>
<text text-anchor="start" x="15.5" y="-71.6" font-family="Helvetica,sans-Serif" font-size="8.00">count_t count() const noexcept</text>
<text text-anchor="start" x="4.5" y="-58.6" font-family="Helvetica,sans-Serif" font-size="8.00">+</text>
<text text-anchor="start" x="15.5" y="-58.6" font-family="Helvetica,sans-Serif" font-size="8.00">void count(count_t _count) noexcept</text>
<text text-anchor="start" x="4.5" y="-45.6" font-family="Helvetica,sans-Serif" font-size="8.00">+</text>
<text text-anchor="start" x="15.5" y="-45.6" font-family="Helvetica,sans-Serif" font-size="8.00">void expunge(memory_resource_t *_resource)</text>
<text text-anchor="start" x="4.5" y="-32.6" font-family="Helvetica,sans-Serif" font-size="8.00">+</text>
<text text-anchor="start" x="15.5" y="-32.6" font-family="Helvetica,sans-Serif" font-size="8.00">auto * forget_one()</text>
<text text-anchor="start" x="6" y="-19.6" font-family="Helvetica,sans-Serif" font-size="8.00">*</text>
<text text-anchor="start" x="15.5" y="-19.6" font-family="Helvetica,sans-Serif" font-size="8.00">managed_node() noexcept</text>
<text text-anchor="start" x="6" y="-6.6" font-family="Helvetica,sans-Serif" font-size="8.00">*</text>
<text text-anchor="start" x="15.5" y="-6.6" font-family="Helvetica,sans-Serif" font-size="8.00">managed_node(index_t _index, managed_node *restrict const _parent=nullptr) noexcept</text>
<polygon fill="#666666" stroke="#666666" points="0.5,-93 0.5,-93 379.5,-93 379.5,-93 0.5,-93"/>
<polygon fill="#666666" stroke="#666666" points="0.5,-80 0.5,-80 379.5,-80 379.5,-80 0.5,-80"/>
<polygon fill="none" stroke="#666666" points="0,0 0,-108 379,-108 379,0 0,0"/>
</a>
</g>
</g>
<!-- Node2 -->
<g id="Node000002" class="node">
<title>Node2</title>
<g id="a_Node000002"><a xlink:href="../../da/d98/structchdr_1_1solvers_1_1bnode.html" target="_top" xlink:title="Base class for pathfinding nodes.">
<polygon fill="white" stroke="transparent" points="231.5,-341 139.5,-341 139.5,-298 231.5,-298 231.5,-341"/>
<text text-anchor="start" x="149" y="-330.1" font-family="Helvetica,sans-Serif" font-size="8.00">bnode&lt; index_t &gt;</text>
<text text-anchor="start" x="143.5" y="-317.1" font-family="Helvetica,sans-Serif" font-size="8.00">+</text>
<text text-anchor="start" x="154.5" y="-317.1" font-family="Helvetica,sans-Serif" font-size="8.00">index_t m_index</text>
<text text-anchor="start" x="145" y="-304.1" font-family="Helvetica,sans-Serif" font-size="8.00">*</text>
<text text-anchor="start" x="154.5" y="-304.1" font-family="Helvetica,sans-Serif" font-size="8.00">bnode() noexcept</text>
<polygon fill="#666666" stroke="#666666" points="139.5,-325.5 139.5,-325.5 231.5,-325.5 231.5,-325.5 139.5,-325.5"/>
<polygon fill="#666666" stroke="#666666" points="139.5,-312.5 139.5,-312.5 152.5,-312.5 152.5,-312.5 139.5,-312.5"/>
<polygon fill="#666666" stroke="#666666" points="152.5,-312.5 152.5,-312.5 231.5,-312.5 231.5,-312.5 152.5,-312.5"/>
<polygon fill="none" stroke="#666666" points="139.5,-298 139.5,-341 231.5,-341 231.5,-298 139.5,-298"/>
</a>
</g>
</g>
<!-- Node2&#45;&gt;Node1 -->
<g id="edge1_Node000001_Node000002" class="edge">
<title>Node2&#45;&gt;Node1</title>
<g id="a_edge1_Node000001_Node000002"><a xlink:title=" ">
<path fill="none" stroke="#63b8ff" d="M185.97,-287.74C186.64,-243.72 187.87,-162.14 188.69,-108.21"/>
<polygon fill="none" stroke="#63b8ff" points="182.47,-287.77 185.81,-297.82 189.47,-287.88 182.47,-287.77"/>
</a>
</g>
</g>
<!-- Node3 -->
<g id="Node000003" class="node">
<title>Node3</title>
<g id="a_Node000003"><a xlink:href="../../df/d64/structchdr_1_1solvers_1_1managed__node.html" target="_top" xlink:title="A hierarchical node in a pathfinding context, with a clean&#45;up mechanism.">
<polygon fill="white" stroke="transparent" points="580,-261 201,-261 201,-153 580,-153 580,-261"/>
<text text-anchor="start" x="318" y="-250.6" font-family="Helvetica,sans-Serif" font-size="8.00">managed_node&lt; index_t, derived &gt;</text>
<text text-anchor="start" x="389.5" y="-237.6" font-family="Helvetica,sans-Serif" font-size="8.00"> </text>
<text text-anchor="start" x="205.5" y="-224.6" font-family="Helvetica,sans-Serif" font-size="8.00">+</text>
<text text-anchor="start" x="216.5" y="-224.6" font-family="Helvetica,sans-Serif" font-size="8.00">count_t count() const noexcept</text>
<text text-anchor="start" x="205.5" y="-211.6" font-family="Helvetica,sans-Serif" font-size="8.00">+</text>
<text text-anchor="start" x="216.5" y="-211.6" font-family="Helvetica,sans-Serif" font-size="8.00">void count(count_t _count) noexcept</text>
<text text-anchor="start" x="205.5" y="-198.6" font-family="Helvetica,sans-Serif" font-size="8.00">+</text>
<text text-anchor="start" x="216.5" y="-198.6" font-family="Helvetica,sans-Serif" font-size="8.00">void expunge(memory_resource_t *_resource)</text>
<text text-anchor="start" x="205.5" y="-185.6" font-family="Helvetica,sans-Serif" font-size="8.00">+</text>
<text text-anchor="start" x="216.5" y="-185.6" font-family="Helvetica,sans-Serif" font-size="8.00">auto * forget_one()</text>
<text text-anchor="start" x="207" y="-172.6" font-family="Helvetica,sans-Serif" font-size="8.00">*</text>
<text text-anchor="start" x="216.5" y="-172.6" font-family="Helvetica,sans-Serif" font-size="8.00">managed_node() noexcept</text>
<text text-anchor="start" x="207" y="-159.6" font-family="Helvetica,sans-Serif" font-size="8.00">*</text>
<text text-anchor="start" x="216.5" y="-159.6" font-family="Helvetica,sans-Serif" font-size="8.00">managed_node(index_t _index, managed_node *restrict const _parent=nullptr) noexcept</text>
<polygon fill="#666666" stroke="#666666" points="201.5,-246 201.5,-246 580.5,-246 580.5,-246 201.5,-246"/>
<polygon fill="#666666" stroke="#666666" points="201.5,-233 201.5,-233 580.5,-233 580.5,-233 201.5,-233"/>
<polygon fill="none" stroke="#666666" points="201,-153 201,-261 580,-261 580,-153 201,-153"/>
</a>
</g>
</g>
<!-- Node2&#45;&gt;Node3 -->
<g id="edge3_Node000003_Node000002" class="edge">
<title>Node2&#45;&gt;Node3</title>
<g id="a_edge3_Node000003_Node000002"><a xlink:title=" ">
<path fill="none" stroke="#63b8ff" d="M232.57,-293.13C250.35,-283.55 271.3,-272.25 292.04,-261.07"/>
<polygon fill="none" stroke="#63b8ff" points="230.72,-290.15 223.58,-297.97 234.04,-296.31 230.72,-290.15"/>
</a>
</g>
</g>
<!-- Node3&#45;&gt;Node1 -->
<g id="edge2_Node000001_Node000003" class="edge">
<title>Node3&#45;&gt;Node1</title>
<g id="a_edge2_Node000001_Node000003"><a xlink:title=" ">
<path fill="none" stroke="#63b8ff" d="M319.92,-152.98C303.75,-140.83 286.44,-127.83 269.89,-115.39"/>
<polygon fill="none" stroke="#63b8ff" points="269.85,-115.36 262.65,-114.95 260.25,-108.15 267.45,-108.56 269.85,-115.36"/>
</a>
</g>
<text text-anchor="middle" x="313.5" y="-128.6" font-family="Helvetica,sans-Serif" font-size="8.00" fill="grey"> +m_parent</text>
</g>
<!-- Node3&#45;&gt;Node3 -->
<g id="edge4_Node000003_Node000003" class="edge">
<title>Node3&#45;&gt;Node3</title>
<g id="a_edge4_Node000003_Node000003"><a xlink:title=" ">
<path fill="none" stroke="#63b8ff" d="M580.02,-216.29C591.26,-214.07 598,-210.97 598,-207 598,-204.7 595.75,-202.7 591.67,-200.99"/>
<polygon fill="none" stroke="#63b8ff" points="591.57,-200.96 584.71,-203.19 580.02,-197.71 586.87,-195.49 591.57,-200.96"/>
</a>
</g>
<text text-anchor="middle" x="622" y="-205.1" font-family="Helvetica,sans-Serif" font-size="8.00" fill="grey"> +m_parent</text>
</g>
</g>
</svg>
