<?xml version="1.0" encoding="UTF-8" standalone="no"?>
<!DOCTYPE svg PUBLIC "-//W3C//DTD SVG 1.1//EN"
 "http://www.w3.org/Graphics/SVG/1.1/DTD/svg11.dtd">
<!-- Generated by graphviz version 2.43.0 (0)
 -->
<!-- Title: managed_node&lt; index_t, derived &gt; Pages: 1 -->
<svg width="654pt" height="297pt"
 viewBox="0.00 0.00 654.00 297.00" xmlns="http://www.w3.org/2000/svg" xmlns:xlink="http://www.w3.org/1999/xlink">
<g id="graph0" class="graph" transform="scale(1 1) rotate(0) translate(4 293)">
<title>managed_node&lt; index_t, derived &gt;</title>
<!-- Node1 -->
<g id="Node000001" class="node">
<title>Node1</title>
<g id="a_Node000001"><a xlink:title="A hierarchical node in a pathfinding context, with a clean&#45;up mechanism.">
<polygon fill="#999999" stroke="transparent" points="379,-82 0,-82 0,0 379,0 379,-82"/>
<text text-anchor="start" x="117" y="-71.6" font-family="Helvetica,sans-Serif" font-size="8.00">managed_node&lt; index_t, derived &gt;</text>
<text text-anchor="start" x="188.5" y="-58.6" font-family="Helvetica,sans-Serif" font-size="8.00"> </text>
<text text-anchor="start" x="4.5" y="-45.6" font-family="Helvetica,sans-Serif" font-size="8.00">+</text>
<text text-anchor="start" x="15.5" y="-45.6" font-family="Helvetica,sans-Serif" font-size="8.00">count_t count() const noexcept</text>
<text text-anchor="start" x="4.5" y="-32.6" font-family="Helvetica,sans-Serif" font-size="8.00">+</text>
<text text-anchor="start" x="15.5" y="-32.6" font-family="Helvetica,sans-Serif" font-size="8.00">void expunge(memory_resource_t *_resource)</text>
<text text-anchor="start" x="6" y="-19.6" font-family="Helvetica,sans-Serif" font-size="8.00">*</text>
<text text-anchor="start" x="15.5" y="-19.6" font-family="Helvetica,sans-Serif" font-size="8.00">managed_node() noexcept</text>
<text text-anchor="start" x="6" y="-6.6" font-family="Helvetica,sans-Serif" font-size="8.00">*</text>
<text text-anchor="start" x="15.5" y="-6.6" font-family="Helvetica,sans-Serif" font-size="8.00">managed_node(index_t _index, managed_node *restrict const _parent=nullptr) noexcept</text>
<polygon fill="#666666" stroke="#666666" points="0.5,-67 0.5,-67 379.5,-67 379.5,-67 0.5,-67"/>
<polygon fill="#666666" stroke="#666666" points="0.5,-54 0.5,-54 379.5,-54 379.5,-54 0.5,-54"/>
<polygon fill="none" stroke="#666666" points="0,0 0,-82 379,-82 379,0 0,0"/>
</a>
</g>
</g>
<!-- Node2 -->
<g id="Node000002" class="node">
<title>Node2</title>
<g id="a_Node000002"><a xlink:href="../../da/d98/structchdr_1_1solvers_1_1bnode.html" target="_top" xlink:title="Base class for pathfinding nodes.">
<polygon fill="white" stroke="transparent" points="231.5,-289 139.5,-289 139.5,-246 231.5,-246 231.5,-289"/>
<text text-anchor="start" x="149" y="-278.1" font-family="Helvetica,sans-Serif" font-size="8.00">bnode&lt; index_t &gt;</text>
<text text-anchor="start" x="143.5" y="-265.1" font-family="Helvetica,sans-Serif" font-size="8.00">+</text>
<text text-anchor="start" x="154.5" y="-265.1" font-family="Helvetica,sans-Serif" font-size="8.00">index_t m_index</text>
<text text-anchor="start" x="145" y="-252.1" font-family="Helvetica,sans-Serif" font-size="8.00">*</text>
<text text-anchor="start" x="154.5" y="-252.1" font-family="Helvetica,sans-Serif" font-size="8.00">bnode() noexcept</text>
<polygon fill="#666666" stroke="#666666" points="139.5,-273.5 139.5,-273.5 231.5,-273.5 231.5,-273.5 139.5,-273.5"/>
<polygon fill="#666666" stroke="#666666" points="139.5,-260.5 139.5,-260.5 152.5,-260.5 152.5,-260.5 139.5,-260.5"/>
<polygon fill="#666666" stroke="#666666" points="152.5,-260.5 152.5,-260.5 231.5,-260.5 231.5,-260.5 152.5,-260.5"/>
<polygon fill="none" stroke="#666666" points="139.5,-246 139.5,-289 231.5,-289 231.5,-246 139.5,-246"/>
</a>
</g>
</g>
<!-- Node2&#45;&gt;Node1 -->
<g id="edge1_Node000001_Node000002" class="edge">
<title>Node2&#45;&gt;Node1</title>
<g id="a_edge1_Node000001_Node000002"><a xlink:title=" ">
<path fill="none" stroke="#63b8ff" d="M186.05,-235.6C186.76,-195.7 188,-126.17 188.78,-82.2"/>
<polygon fill="none" stroke="#63b8ff" points="182.55,-235.72 185.87,-245.78 189.55,-235.85 182.55,-235.72"/>
</a>
</g>
</g>
<!-- Node3 -->
<g id="Node000003" class="node">
<title>Node3</title>
<g id="a_Node000003"><a xlink:href="../../df/d64/structchdr_1_1solvers_1_1managed__node.html" target="_top" xlink:title="A hierarchical node in a pathfinding context, with a clean&#45;up mechanism.">
<polygon fill="white" stroke="transparent" points="580,-209 201,-209 201,-127 580,-127 580,-209"/>
<text text-anchor="start" x="318" y="-198.6" font-family="Helvetica,sans-Serif" font-size="8.00">managed_node&lt; index_t, derived &gt;</text>
<text text-anchor="start" x="389.5" y="-185.6" font-family="Helvetica,sans-Serif" font-size="8.00"> </text>
<text text-anchor="start" x="205.5" y="-172.6" font-family="Helvetica,sans-Serif" font-size="8.00">+</text>
<text text-anchor="start" x="216.5" y="-172.6" font-family="Helvetica,sans-Serif" font-size="8.00">count_t count() const noexcept</text>
<text text-anchor="start" x="205.5" y="-159.6" font-family="Helvetica,sans-Serif" font-size="8.00">+</text>
<text text-anchor="start" x="216.5" y="-159.6" font-family="Helvetica,sans-Serif" font-size="8.00">void expunge(memory_resource_t *_resource)</text>
<text text-anchor="start" x="207" y="-146.6" font-family="Helvetica,sans-Serif" font-size="8.00">*</text>
<text text-anchor="start" x="216.5" y="-146.6" font-family="Helvetica,sans-Serif" font-size="8.00">managed_node() noexcept</text>
<text text-anchor="start" x="207" y="-133.6" font-family="Helvetica,sans-Serif" font-size="8.00">*</text>
<text text-anchor="start" x="216.5" y="-133.6" font-family="Helvetica,sans-Serif" font-size="8.00">managed_node(index_t _index, managed_node *restrict const _parent=nullptr) noexcept</text>
<polygon fill="#666666" stroke="#666666" points="201.5,-194 201.5,-194 580.5,-194 580.5,-194 201.5,-194"/>
<polygon fill="#666666" stroke="#666666" points="201.5,-181 201.5,-181 580.5,-181 580.5,-181 201.5,-181"/>
<polygon fill="none" stroke="#666666" points="201,-127 201,-209 580,-209 580,-127 201,-127"/>
</a>
</g>
</g>
<!-- Node2&#45;&gt;Node3 -->
<g id="edge3_Node000003_Node000002" class="edge">
<title>Node2&#45;&gt;Node3</title>
<g id="a_edge3_Node000003_Node000002"><a xlink:title=" ">
<path fill="none" stroke="#63b8ff" d="M238.21,-241.43C258.88,-231.6 283.12,-220.07 306.11,-209.14"/>
<polygon fill="none" stroke="#63b8ff" points="236.5,-238.37 228.98,-245.82 239.51,-244.69 236.5,-238.37"/>
</a>
</g>
</g>
<!-- Node3&#45;&gt;Node1 -->
<g id="edge2_Node000001_Node000003" class="edge">
<title>Node3&#45;&gt;Node1</title>
<g id="a_edge2_Node000001_Node000003"><a xlink:title=" ">
<path fill="none" stroke="#63b8ff" d="M326.07,-126.93C306.42,-114.71 284.64,-101.17 264.36,-88.55"/>
<polygon fill="none" stroke="#63b8ff" points="264.1,-88.39 256.89,-88.62 253.91,-82.05 261.11,-81.83 264.1,-88.39"/>
</a>
</g>
<text text-anchor="middle" x="319.5" y="-102.6" font-family="Helvetica,sans-Serif" font-size="8.00" fill="grey"> +m_parent</text>
</g>
<!-- Node3&#45;&gt;Node3 -->
<g id="edge4_Node000003_Node000003" class="edge">
<title>Node3&#45;&gt;Node3</title>
<g id="a_edge4_Node000003_Node000003"><a xlink:title=" ">
<path fill="none" stroke="#63b8ff" d="M580.02,-175.48C591.26,-173.69 598,-171.2 598,-168 598,-166.2 595.87,-164.62 592,-163.27"/>
<polygon fill="none" stroke="#63b8ff" points="591.71,-163.2 584.97,-165.76 580.02,-160.52 586.76,-157.96 591.71,-163.2"/>
</a>
</g>
<text text-anchor="middle" x="622" y="-166.1" font-family="Helvetica,sans-Serif" font-size="8.00" fill="grey"> +m_parent</text>
</g>
</g>
</svg>
