<?xml version="1.0" encoding="UTF-8" standalone="no"?>
<!DOCTYPE svg PUBLIC "-//W3C//DTD SVG 1.1//EN"
 "http://www.w3.org/Graphics/SVG/1.1/DTD/svg11.dtd">
<!-- Generated by graphviz version 2.43.0 (0)
 -->
<!-- Title: managed_node&lt; index_t, derived &gt; Pages: 1 -->
<svg width="654pt" height="323pt"
 viewBox="0.00 0.00 654.00 323.00" xmlns="http://www.w3.org/2000/svg" xmlns:xlink="http://www.w3.org/1999/xlink">
<g id="graph0" class="graph" transform="scale(1 1) rotate(0) translate(4 319)">
<title>managed_node&lt; index_t, derived &gt;</title>
<!-- Node1 -->
<g id="Node000001" class="node">
<title>Node1</title>
<g id="a_Node000001"><a xlink:title="A hierarchical node in a pathfinding context, with a clean&#45;up mechanism.">
<polygon fill="#999999" stroke="transparent" points="379,-95 0,-95 0,0 379,0 379,-95"/>
<text text-anchor="start" x="117" y="-84.1" font-family="Helvetica,sans-Serif" font-size="8.00">managed_node&lt; index_t, derived &gt;</text>
<text text-anchor="start" x="188.5" y="-71.1" font-family="Helvetica,sans-Serif" font-size="8.00"> </text>
<text text-anchor="start" x="4.5" y="-58.1" font-family="Helvetica,sans-Serif" font-size="8.00">+</text>
<text text-anchor="start" x="15.5" y="-58.1" font-family="Helvetica,sans-Serif" font-size="8.00">count_t count() const noexcept</text>
<text text-anchor="start" x="4.5" y="-45.1" font-family="Helvetica,sans-Serif" font-size="8.00">+</text>
<text text-anchor="start" x="15.5" y="-45.1" font-family="Helvetica,sans-Serif" font-size="8.00">void expunge(memory_resource_t *_resource)</text>
<text text-anchor="start" x="4.5" y="-32.1" font-family="Helvetica,sans-Serif" font-size="8.00">+</text>
<text text-anchor="start" x="15.5" y="-32.1" font-family="Helvetica,sans-Serif" font-size="8.00">auto * expunge_one()</text>
<text text-anchor="start" x="6" y="-19.1" font-family="Helvetica,sans-Serif" font-size="8.00">*</text>
<text text-anchor="start" x="15.5" y="-19.1" font-family="Helvetica,sans-Serif" font-size="8.00">managed_node() noexcept</text>
<text text-anchor="start" x="6" y="-6.1" font-family="Helvetica,sans-Serif" font-size="8.00">*</text>
<text text-anchor="start" x="15.5" y="-6.1" font-family="Helvetica,sans-Serif" font-size="8.00">managed_node(index_t _index, managed_node *restrict const _parent=nullptr) noexcept</text>
<polygon fill="#666666" stroke="#666666" points="0.5,-79.5 0.5,-79.5 379.5,-79.5 379.5,-79.5 0.5,-79.5"/>
<polygon fill="#666666" stroke="#666666" points="0.5,-66.5 0.5,-66.5 379.5,-66.5 379.5,-66.5 0.5,-66.5"/>
<polygon fill="none" stroke="#666666" points="0,0 0,-95 379,-95 379,0 0,0"/>
</a>
</g>
</g>
<!-- Node2 -->
<g id="Node000002" class="node">
<title>Node2</title>
<g id="a_Node000002"><a xlink:href="../../da/d98/structchdr_1_1solvers_1_1bnode.html" target="_top" xlink:title="Base class for pathfinding nodes.">
<polygon fill="white" stroke="transparent" points="231.5,-315 139.5,-315 139.5,-272 231.5,-272 231.5,-315"/>
<text text-anchor="start" x="149" y="-304.1" font-family="Helvetica,sans-Serif" font-size="8.00">bnode&lt; index_t &gt;</text>
<text text-anchor="start" x="143.5" y="-291.1" font-family="Helvetica,sans-Serif" font-size="8.00">+</text>
<text text-anchor="start" x="154.5" y="-291.1" font-family="Helvetica,sans-Serif" font-size="8.00">index_t m_index</text>
<text text-anchor="start" x="145" y="-278.1" font-family="Helvetica,sans-Serif" font-size="8.00">*</text>
<text text-anchor="start" x="154.5" y="-278.1" font-family="Helvetica,sans-Serif" font-size="8.00">bnode() noexcept</text>
<polygon fill="#666666" stroke="#666666" points="139.5,-299.5 139.5,-299.5 231.5,-299.5 231.5,-299.5 139.5,-299.5"/>
<polygon fill="#666666" stroke="#666666" points="139.5,-286.5 139.5,-286.5 152.5,-286.5 152.5,-286.5 139.5,-286.5"/>
<polygon fill="#666666" stroke="#666666" points="152.5,-286.5 152.5,-286.5 231.5,-286.5 231.5,-286.5 152.5,-286.5"/>
<polygon fill="none" stroke="#666666" points="139.5,-272 139.5,-315 231.5,-315 231.5,-272 139.5,-272"/>
</a>
</g>
</g>
<!-- Node2&#45;&gt;Node1 -->
<g id="edge1_Node000001_Node000002" class="edge">
<title>Node2&#45;&gt;Node1</title>
<g id="a_edge1_Node000001_Node000002"><a xlink:title=" ">
<path fill="none" stroke="#63b8ff" d="M186.01,-261.53C186.7,-219.54 187.93,-144.19 188.73,-95.29"/>
<polygon fill="none" stroke="#63b8ff" points="182.51,-261.64 185.84,-271.7 189.5,-261.76 182.51,-261.64"/>
</a>
</g>
</g>
<!-- Node3 -->
<g id="Node000003" class="node">
<title>Node3</title>
<g id="a_Node000003"><a xlink:href="../../df/d64/structchdr_1_1solvers_1_1managed__node.html" target="_top" xlink:title="A hierarchical node in a pathfinding context, with a clean&#45;up mechanism.">
<polygon fill="white" stroke="transparent" points="580,-235 201,-235 201,-140 580,-140 580,-235"/>
<text text-anchor="start" x="318" y="-224.1" font-family="Helvetica,sans-Serif" font-size="8.00">managed_node&lt; index_t, derived &gt;</text>
<text text-anchor="start" x="389.5" y="-211.1" font-family="Helvetica,sans-Serif" font-size="8.00"> </text>
<text text-anchor="start" x="205.5" y="-198.1" font-family="Helvetica,sans-Serif" font-size="8.00">+</text>
<text text-anchor="start" x="216.5" y="-198.1" font-family="Helvetica,sans-Serif" font-size="8.00">count_t count() const noexcept</text>
<text text-anchor="start" x="205.5" y="-185.1" font-family="Helvetica,sans-Serif" font-size="8.00">+</text>
<text text-anchor="start" x="216.5" y="-185.1" font-family="Helvetica,sans-Serif" font-size="8.00">void expunge(memory_resource_t *_resource)</text>
<text text-anchor="start" x="205.5" y="-172.1" font-family="Helvetica,sans-Serif" font-size="8.00">+</text>
<text text-anchor="start" x="216.5" y="-172.1" font-family="Helvetica,sans-Serif" font-size="8.00">auto * expunge_one()</text>
<text text-anchor="start" x="207" y="-159.1" font-family="Helvetica,sans-Serif" font-size="8.00">*</text>
<text text-anchor="start" x="216.5" y="-159.1" font-family="Helvetica,sans-Serif" font-size="8.00">managed_node() noexcept</text>
<text text-anchor="start" x="207" y="-146.1" font-family="Helvetica,sans-Serif" font-size="8.00">*</text>
<text text-anchor="start" x="216.5" y="-146.1" font-family="Helvetica,sans-Serif" font-size="8.00">managed_node(index_t _index, managed_node *restrict const _parent=nullptr) noexcept</text>
<polygon fill="#666666" stroke="#666666" points="201.5,-219.5 201.5,-219.5 580.5,-219.5 580.5,-219.5 201.5,-219.5"/>
<polygon fill="#666666" stroke="#666666" points="201.5,-206.5 201.5,-206.5 580.5,-206.5 580.5,-206.5 201.5,-206.5"/>
<polygon fill="none" stroke="#666666" points="201,-140 201,-235 580,-235 580,-140 201,-140"/>
</a>
</g>
</g>
<!-- Node2&#45;&gt;Node3 -->
<g id="edge3_Node000003_Node000002" class="edge">
<title>Node2&#45;&gt;Node3</title>
<g id="a_edge3_Node000003_Node000002"><a xlink:title=" ">
<path fill="none" stroke="#63b8ff" d="M235.12,-267.33C254.29,-257.6 276.86,-246.15 298.77,-235.04"/>
<polygon fill="none" stroke="#63b8ff" points="233.34,-264.31 226,-271.95 236.5,-270.55 233.34,-264.31"/>
</a>
</g>
</g>
<!-- Node3&#45;&gt;Node1 -->
<g id="edge2_Node000001_Node000003" class="edge">
<title>Node3&#45;&gt;Node1</title>
<g id="a_edge2_Node000001_Node000003"><a xlink:title=" ">
<path fill="none" stroke="#63b8ff" d="M322.73,-139.97C304.94,-127.76 285.61,-114.49 267.34,-101.94"/>
<polygon fill="none" stroke="#63b8ff" points="267.21,-101.85 260,-101.75 257.32,-95.06 264.53,-95.16 267.21,-101.85"/>
</a>
</g>
<text text-anchor="middle" x="319.5" y="-115.6" font-family="Helvetica,sans-Serif" font-size="8.00" fill="grey"> +m_parent</text>
</g>
<!-- Node3&#45;&gt;Node3 -->
<g id="edge4_Node000003_Node000003" class="edge">
<title>Node3&#45;&gt;Node3</title>
<g id="a_edge4_Node000003_Node000003"><a xlink:title=" ">
<path fill="none" stroke="#63b8ff" d="M580.02,-196.01C591.26,-193.98 598,-191.14 598,-187.5 598,-185.39 595.75,-183.56 591.67,-181.99"/>
<polygon fill="none" stroke="#63b8ff" points="591.64,-181.98 584.83,-184.36 580.02,-178.99 586.82,-176.61 591.64,-181.98"/>
</a>
</g>
<text text-anchor="middle" x="622" y="-185.6" font-family="Helvetica,sans-Serif" font-size="8.00" fill="grey"> +m_parent</text>
</g>
</g>
</svg>
