<?xml version="1.0" encoding="UTF-8" standalone="no"?>
<!DOCTYPE svg PUBLIC "-//W3C//DTD SVG 1.1//EN"
 "http://www.w3.org/Graphics/SVG/1.1/DTD/svg11.dtd">
<!-- Generated by graphviz version 2.43.0 (0)
 -->
<!-- Title: managed_node&lt; index_t, derived &gt; Pages: 1 -->
<svg width="580pt" height="375pt"
 viewBox="0.00 0.00 580.00 375.00" xmlns="http://www.w3.org/2000/svg" xmlns:xlink="http://www.w3.org/1999/xlink">
<g id="graph0" class="graph" transform="scale(1 1) rotate(0) translate(4 371)">
<title>managed_node&lt; index_t, derived &gt;</title>
<!-- Node1 -->
<g id="Node000001" class="node">
<title>Node1</title>
<g id="a_Node000001"><a xlink:title="A hierarchical node in a pathfinding context, with a clean&#45;up mechanism.">
<polygon fill="#999999" stroke="transparent" points="333,-121 0,-121 0,0 333,0 333,-121"/>
<text text-anchor="start" x="103.5" y="-110.1" font-family="Helvetica,sans-Serif" font-size="8.00">managed_node&lt; index_t, derived &gt;</text>
<text text-anchor="start" x="165.5" y="-97.1" font-family="Helvetica,sans-Serif" font-size="8.00"> </text>
<text text-anchor="start" x="4.5" y="-84.1" font-family="Helvetica,sans-Serif" font-size="8.00">+</text>
<text text-anchor="start" x="13.5" y="-84.1" font-family="Helvetica,sans-Serif" font-size="8.00">void decr() const noexcept</text>
<text text-anchor="start" x="4.5" y="-71.1" font-family="Helvetica,sans-Serif" font-size="8.00">+</text>
<text text-anchor="start" x="13.5" y="-71.1" font-family="Helvetica,sans-Serif" font-size="8.00">void expunge(pmr_t *_pmr) noexcept</text>
<text text-anchor="start" x="4.5" y="-58.1" font-family="Helvetica,sans-Serif" font-size="8.00">+</text>
<text text-anchor="start" x="13.5" y="-58.1" font-family="Helvetica,sans-Serif" font-size="8.00">void incr() const noexcept</text>
<text text-anchor="start" x="4.5" y="-45.1" font-family="Helvetica,sans-Serif" font-size="8.00">+</text>
<text text-anchor="start" x="13.5" y="-45.1" font-family="Helvetica,sans-Serif" font-size="8.00">managed_node() noexcept</text>
<text text-anchor="start" x="4.5" y="-32.1" font-family="Helvetica,sans-Serif" font-size="8.00">+</text>
<text text-anchor="start" x="13.5" y="-32.1" font-family="Helvetica,sans-Serif" font-size="8.00">managed_node(index_t _index, managed_node *restrict const _parent=nullptr) noexcept</text>
<text text-anchor="start" x="5" y="-19.1" font-family="Helvetica,sans-Serif" font-size="8.00">*</text>
<text text-anchor="start" x="13.5" y="-19.1" font-family="Helvetica,sans-Serif" font-size="8.00">managed_node() noexcept</text>
<text text-anchor="start" x="5" y="-6.1" font-family="Helvetica,sans-Serif" font-size="8.00">*</text>
<text text-anchor="start" x="13.5" y="-6.1" font-family="Helvetica,sans-Serif" font-size="8.00">managed_node(index_t _index, managed_node *restrict const _parent=nullptr) noexcept</text>
<polygon fill="#666666" stroke="#666666" points="0.5,-105.5 0.5,-105.5 333.5,-105.5 333.5,-105.5 0.5,-105.5"/>
<polygon fill="#666666" stroke="#666666" points="0.5,-92.5 0.5,-92.5 333.5,-92.5 333.5,-92.5 0.5,-92.5"/>
<polygon fill="none" stroke="#666666" points="0,0 0,-121 333,-121 333,0 0,0"/>
</a>
</g>
</g>
<!-- Node2 -->
<g id="Node000002" class="node">
<title>Node2</title>
<g id="a_Node000002"><a xlink:href="../../da/d98/structchdr_1_1solvers_1_1bnode.html" target="_top" xlink:title="Base class for pathfinding nodes.">
<polygon fill="white" stroke="transparent" points="203,-367 122,-367 122,-324 203,-324 203,-367"/>
<text text-anchor="start" x="132" y="-356.1" font-family="Helvetica,sans-Serif" font-size="8.00">bnode&lt; index_t &gt;</text>
<text text-anchor="start" x="126.5" y="-343.1" font-family="Helvetica,sans-Serif" font-size="8.00">+</text>
<text text-anchor="start" x="135.5" y="-343.1" font-family="Helvetica,sans-Serif" font-size="8.00">index_t m_index</text>
<text text-anchor="start" x="127" y="-330.1" font-family="Helvetica,sans-Serif" font-size="8.00">*</text>
<text text-anchor="start" x="135.5" y="-330.1" font-family="Helvetica,sans-Serif" font-size="8.00">bnode() noexcept</text>
<polygon fill="#666666" stroke="#666666" points="122.5,-351.5 122.5,-351.5 203.5,-351.5 203.5,-351.5 122.5,-351.5"/>
<polygon fill="#666666" stroke="#666666" points="122.5,-338.5 122.5,-338.5 133.5,-338.5 133.5,-338.5 122.5,-338.5"/>
<polygon fill="#666666" stroke="#666666" points="133.5,-338.5 133.5,-338.5 203.5,-338.5 203.5,-338.5 133.5,-338.5"/>
<polygon fill="none" stroke="#666666" points="122,-324 122,-367 203,-367 203,-324 122,-324"/>
</a>
</g>
</g>
<!-- Node2&#45;&gt;Node1 -->
<g id="edge1_Node000001_Node000002" class="edge">
<title>Node2&#45;&gt;Node1</title>
<g id="a_edge1_Node000001_Node000002"><a xlink:title=" ">
<path fill="none" stroke="#63b8ff" d="M162.94,-313.43C163.59,-267.29 164.83,-179.82 165.66,-121.08"/>
<polygon fill="none" stroke="#63b8ff" points="159.44,-313.64 162.79,-323.69 166.44,-313.74 159.44,-313.64"/>
</a>
</g>
</g>
<!-- Node3 -->
<g id="Node000003" class="node">
<title>Node3</title>
<g id="a_Node000003"><a xlink:href="../../df/d64/structchdr_1_1solvers_1_1managed__node.html" target="_top" xlink:title="A hierarchical node in a pathfinding context, with a clean&#45;up mechanism.">
<polygon fill="white" stroke="transparent" points="512,-287 179,-287 179,-166 512,-166 512,-287"/>
<text text-anchor="start" x="282.5" y="-276.1" font-family="Helvetica,sans-Serif" font-size="8.00">managed_node&lt; index_t, derived &gt;</text>
<text text-anchor="start" x="344.5" y="-263.1" font-family="Helvetica,sans-Serif" font-size="8.00"> </text>
<text text-anchor="start" x="183.5" y="-250.1" font-family="Helvetica,sans-Serif" font-size="8.00">+</text>
<text text-anchor="start" x="192.5" y="-250.1" font-family="Helvetica,sans-Serif" font-size="8.00">void decr() const noexcept</text>
<text text-anchor="start" x="183.5" y="-237.1" font-family="Helvetica,sans-Serif" font-size="8.00">+</text>
<text text-anchor="start" x="192.5" y="-237.1" font-family="Helvetica,sans-Serif" font-size="8.00">void expunge(pmr_t *_pmr) noexcept</text>
<text text-anchor="start" x="183.5" y="-224.1" font-family="Helvetica,sans-Serif" font-size="8.00">+</text>
<text text-anchor="start" x="192.5" y="-224.1" font-family="Helvetica,sans-Serif" font-size="8.00">void incr() const noexcept</text>
<text text-anchor="start" x="183.5" y="-211.1" font-family="Helvetica,sans-Serif" font-size="8.00">+</text>
<text text-anchor="start" x="192.5" y="-211.1" font-family="Helvetica,sans-Serif" font-size="8.00">managed_node() noexcept</text>
<text text-anchor="start" x="183.5" y="-198.1" font-family="Helvetica,sans-Serif" font-size="8.00">+</text>
<text text-anchor="start" x="192.5" y="-198.1" font-family="Helvetica,sans-Serif" font-size="8.00">managed_node(index_t _index, managed_node *restrict const _parent=nullptr) noexcept</text>
<text text-anchor="start" x="184" y="-185.1" font-family="Helvetica,sans-Serif" font-size="8.00">*</text>
<text text-anchor="start" x="192.5" y="-185.1" font-family="Helvetica,sans-Serif" font-size="8.00">managed_node() noexcept</text>
<text text-anchor="start" x="184" y="-172.1" font-family="Helvetica,sans-Serif" font-size="8.00">*</text>
<text text-anchor="start" x="192.5" y="-172.1" font-family="Helvetica,sans-Serif" font-size="8.00">managed_node(index_t _index, managed_node *restrict const _parent=nullptr) noexcept</text>
<polygon fill="#666666" stroke="#666666" points="179.5,-271.5 179.5,-271.5 512.5,-271.5 512.5,-271.5 179.5,-271.5"/>
<polygon fill="#666666" stroke="#666666" points="179.5,-258.5 179.5,-258.5 512.5,-258.5 512.5,-258.5 179.5,-258.5"/>
<polygon fill="none" stroke="#666666" points="179,-166 179,-287 512,-287 512,-166 179,-166"/>
</a>
</g>
</g>
<!-- Node2&#45;&gt;Node3 -->
<g id="edge3_Node000003_Node000002" class="edge">
<title>Node2&#45;&gt;Node3</title>
<g id="a_edge3_Node000003_Node000002"><a xlink:title=" ">
<path fill="none" stroke="#63b8ff" d="M203.52,-318.28C218.08,-308.97 235.12,-298.07 252.24,-287.12"/>
<polygon fill="none" stroke="#63b8ff" points="201.34,-315.52 194.8,-323.85 205.11,-321.41 201.34,-315.52"/>
</a>
</g>
</g>
<!-- Node3&#45;&gt;Node1 -->
<g id="edge2_Node000001_Node000003" class="edge">
<title>Node3&#45;&gt;Node1</title>
<g id="a_edge2_Node000001_Node000003"><a xlink:title=" ">
<path fill="none" stroke="#63b8ff" d="M280.37,-165.83C267.46,-154 253.81,-141.49 240.62,-129.41"/>
<polygon fill="none" stroke="#63b8ff" points="240.43,-129.23 233.3,-128.13 231.58,-121.13 238.71,-122.23 240.43,-129.23"/>
</a>
</g>
<text text-anchor="middle" x="276.5" y="-141.6" font-family="Helvetica,sans-Serif" font-size="8.00" fill="grey"> +m_parent</text>
</g>
<!-- Node3&#45;&gt;Node3 -->
<g id="edge4_Node000003_Node000003" class="edge">
<title>Node3&#45;&gt;Node3</title>
<g id="a_edge4_Node000003_Node000003"><a xlink:title=" ">
<path fill="none" stroke="#63b8ff" d="M512.11,-237C523.24,-234.57 530,-231.07 530,-226.5 530,-223.86 527.74,-221.57 523.68,-219.65"/>
<polygon fill="none" stroke="#63b8ff" points="523.55,-219.61 516.63,-221.62 512.11,-216 519.03,-213.99 523.55,-219.61"/>
</a>
</g>
<text text-anchor="middle" x="551" y="-224.6" font-family="Helvetica,sans-Serif" font-size="8.00" fill="grey"> +m_parent</text>
</g>
</g>
</svg>
