<?xml version="1.0" encoding="UTF-8" standalone="no"?>
<!DOCTYPE svg PUBLIC "-//W3C//DTD SVG 1.1//EN"
 "http://www.w3.org/Graphics/SVG/1.1/DTD/svg11.dtd">
<!-- Generated by graphviz version 2.43.0 (0)
 -->
<!-- Title: managed_node&lt; index_t, derived &gt; Pages: 1 -->
<svg width="580pt" height="297pt"
 viewBox="0.00 0.00 580.00 297.00" xmlns="http://www.w3.org/2000/svg" xmlns:xlink="http://www.w3.org/1999/xlink">
<g id="graph0" class="graph" transform="scale(1 1) rotate(0) translate(4 293)">
<title>managed_node&lt; index_t, derived &gt;</title>
<!-- Node1 -->
<g id="Node000001" class="node">
<title>Node1</title>
<g id="a_Node000001"><a xlink:title="A hierarchical node in a pathfinding context, with a clean&#45;up mechanism.">
<polygon fill="#999999" stroke="transparent" points="333,-82 0,-82 0,0 333,0 333,-82"/>
<text text-anchor="start" x="103.5" y="-71.6" font-family="Helvetica,sans-Serif" font-size="8.00">managed_node&lt; index_t, derived &gt;</text>
<text text-anchor="start" x="165.5" y="-58.6" font-family="Helvetica,sans-Serif" font-size="8.00"> </text>
<text text-anchor="start" x="4.5" y="-45.6" font-family="Helvetica,sans-Serif" font-size="8.00">+</text>
<text text-anchor="start" x="13.5" y="-45.6" font-family="Helvetica,sans-Serif" font-size="8.00">count_t count() const noexcept</text>
<text text-anchor="start" x="4.5" y="-32.6" font-family="Helvetica,sans-Serif" font-size="8.00">+</text>
<text text-anchor="start" x="13.5" y="-32.6" font-family="Helvetica,sans-Serif" font-size="8.00">void expunge(memory_resource_t *_resource)</text>
<text text-anchor="start" x="5" y="-19.6" font-family="Helvetica,sans-Serif" font-size="8.00">*</text>
<text text-anchor="start" x="13.5" y="-19.6" font-family="Helvetica,sans-Serif" font-size="8.00">managed_node() noexcept</text>
<text text-anchor="start" x="5" y="-6.6" font-family="Helvetica,sans-Serif" font-size="8.00">*</text>
<text text-anchor="start" x="13.5" y="-6.6" font-family="Helvetica,sans-Serif" font-size="8.00">managed_node(index_t _index, managed_node *restrict const _parent=nullptr) noexcept</text>
<polygon fill="#666666" stroke="#666666" points="0.5,-67 0.5,-67 333.5,-67 333.5,-67 0.5,-67"/>
<polygon fill="#666666" stroke="#666666" points="0.5,-54 0.5,-54 333.5,-54 333.5,-54 0.5,-54"/>
<polygon fill="none" stroke="#666666" points="0,0 0,-82 333,-82 333,0 0,0"/>
</a>
</g>
</g>
<!-- Node2 -->
<g id="Node000002" class="node">
<title>Node2</title>
<g id="a_Node000002"><a xlink:href="../../da/d98/structchdr_1_1solvers_1_1bnode.html" target="_top" xlink:title="Base class for pathfinding nodes.">
<polygon fill="white" stroke="transparent" points="203,-289 122,-289 122,-246 203,-246 203,-289"/>
<text text-anchor="start" x="132" y="-278.1" font-family="Helvetica,sans-Serif" font-size="8.00">bnode&lt; index_t &gt;</text>
<text text-anchor="start" x="126.5" y="-265.1" font-family="Helvetica,sans-Serif" font-size="8.00">+</text>
<text text-anchor="start" x="135.5" y="-265.1" font-family="Helvetica,sans-Serif" font-size="8.00">index_t m_index</text>
<text text-anchor="start" x="127" y="-252.1" font-family="Helvetica,sans-Serif" font-size="8.00">*</text>
<text text-anchor="start" x="135.5" y="-252.1" font-family="Helvetica,sans-Serif" font-size="8.00">bnode() noexcept</text>
<polygon fill="#666666" stroke="#666666" points="122.5,-273.5 122.5,-273.5 203.5,-273.5 203.5,-273.5 122.5,-273.5"/>
<polygon fill="#666666" stroke="#666666" points="122.5,-260.5 122.5,-260.5 133.5,-260.5 133.5,-260.5 122.5,-260.5"/>
<polygon fill="#666666" stroke="#666666" points="133.5,-260.5 133.5,-260.5 203.5,-260.5 203.5,-260.5 133.5,-260.5"/>
<polygon fill="none" stroke="#666666" points="122,-246 122,-289 203,-289 203,-246 122,-246"/>
</a>
</g>
</g>
<!-- Node2&#45;&gt;Node1 -->
<g id="edge1_Node000001_Node000002" class="edge">
<title>Node2&#45;&gt;Node1</title>
<g id="a_edge1_Node000001_Node000002"><a xlink:title=" ">
<path fill="none" stroke="#63b8ff" d="M163.05,-235.6C163.76,-195.7 165,-126.17 165.78,-82.2"/>
<polygon fill="none" stroke="#63b8ff" points="159.55,-235.72 162.87,-245.78 166.55,-235.85 159.55,-235.72"/>
</a>
</g>
</g>
<!-- Node3 -->
<g id="Node000003" class="node">
<title>Node3</title>
<g id="a_Node000003"><a xlink:href="../../df/d64/structchdr_1_1solvers_1_1managed__node.html" target="_top" xlink:title="A hierarchical node in a pathfinding context, with a clean&#45;up mechanism.">
<polygon fill="white" stroke="transparent" points="512,-209 179,-209 179,-127 512,-127 512,-209"/>
<text text-anchor="start" x="282.5" y="-198.6" font-family="Helvetica,sans-Serif" font-size="8.00">managed_node&lt; index_t, derived &gt;</text>
<text text-anchor="start" x="344.5" y="-185.6" font-family="Helvetica,sans-Serif" font-size="8.00"> </text>
<text text-anchor="start" x="183.5" y="-172.6" font-family="Helvetica,sans-Serif" font-size="8.00">+</text>
<text text-anchor="start" x="192.5" y="-172.6" font-family="Helvetica,sans-Serif" font-size="8.00">count_t count() const noexcept</text>
<text text-anchor="start" x="183.5" y="-159.6" font-family="Helvetica,sans-Serif" font-size="8.00">+</text>
<text text-anchor="start" x="192.5" y="-159.6" font-family="Helvetica,sans-Serif" font-size="8.00">void expunge(memory_resource_t *_resource)</text>
<text text-anchor="start" x="184" y="-146.6" font-family="Helvetica,sans-Serif" font-size="8.00">*</text>
<text text-anchor="start" x="192.5" y="-146.6" font-family="Helvetica,sans-Serif" font-size="8.00">managed_node() noexcept</text>
<text text-anchor="start" x="184" y="-133.6" font-family="Helvetica,sans-Serif" font-size="8.00">*</text>
<text text-anchor="start" x="192.5" y="-133.6" font-family="Helvetica,sans-Serif" font-size="8.00">managed_node(index_t _index, managed_node *restrict const _parent=nullptr) noexcept</text>
<polygon fill="#666666" stroke="#666666" points="179.5,-194 179.5,-194 512.5,-194 512.5,-194 179.5,-194"/>
<polygon fill="#666666" stroke="#666666" points="179.5,-181 179.5,-181 512.5,-181 512.5,-181 179.5,-181"/>
<polygon fill="none" stroke="#666666" points="179,-127 179,-209 512,-209 512,-127 179,-127"/>
</a>
</g>
</g>
<!-- Node2&#45;&gt;Node3 -->
<g id="edge3_Node000003_Node000002" class="edge">
<title>Node2&#45;&gt;Node3</title>
<g id="a_edge3_Node000003_Node000002"><a xlink:title=" ">
<path fill="none" stroke="#63b8ff" d="M210.3,-241.03C228.59,-231.29 249.92,-219.92 270.17,-209.14"/>
<polygon fill="none" stroke="#63b8ff" points="208.49,-238.03 201.31,-245.82 211.78,-244.21 208.49,-238.03"/>
</a>
</g>
</g>
<!-- Node3&#45;&gt;Node1 -->
<g id="edge2_Node000001_Node000003" class="edge">
<title>Node3&#45;&gt;Node1</title>
<g id="a_edge2_Node000001_Node000003"><a xlink:title=" ">
<path fill="none" stroke="#63b8ff" d="M287.88,-126.76C270.79,-114.83 251.92,-101.65 234.25,-89.31"/>
<polygon fill="none" stroke="#63b8ff" points="233.85,-89.03 226.64,-88.88 224.01,-82.16 231.22,-82.32 233.85,-89.03"/>
</a>
</g>
<text text-anchor="middle" x="281.5" y="-102.6" font-family="Helvetica,sans-Serif" font-size="8.00" fill="grey"> +m_parent</text>
</g>
<!-- Node3&#45;&gt;Node3 -->
<g id="edge4_Node000003_Node000003" class="edge">
<title>Node3&#45;&gt;Node3</title>
<g id="a_edge4_Node000003_Node000003"><a xlink:title=" ">
<path fill="none" stroke="#63b8ff" d="M512.11,-175.81C523.24,-174 530,-171.4 530,-168 530,-166.09 527.86,-164.43 524.01,-163.02"/>
<polygon fill="none" stroke="#63b8ff" points="523.78,-162.97 517.02,-165.47 512.11,-160.19 518.87,-157.69 523.78,-162.97"/>
</a>
</g>
<text text-anchor="middle" x="551" y="-166.1" font-family="Helvetica,sans-Serif" font-size="8.00" fill="grey"> +m_parent</text>
</g>
</g>
</svg>
