<?xml version="1.0" encoding="UTF-8" standalone="no"?>
<!DOCTYPE svg PUBLIC "-//W3C//DTD SVG 1.1//EN"
 "http://www.w3.org/Graphics/SVG/1.1/DTD/svg11.dtd">
<!-- Generated by graphviz version 2.43.0 (0)
 -->
<!-- Title: reserve Pages: 1 -->
<svg width="153pt" height="95pt"
 viewBox="0.00 0.00 153.00 95.00" xmlns="http://www.w3.org/2000/svg" xmlns:xlink="http://www.w3.org/1999/xlink">
<g id="graph0" class="graph" transform="scale(1 1) rotate(0) translate(4 91)">
<title>reserve</title>
<!-- Node1 -->
<g id="Node000001" class="node">
<title>Node1</title>
<g id="a_Node000001"><a xlink:title="Reserves memory for the set.">
<polygon fill="#999999" stroke="#666666" points="145,-52 101,-52 101,-35 145,-35 145,-52"/>
<text text-anchor="middle" x="123" y="-41.6" font-family="Helvetica,sans-Serif" font-size="8.00">reserve</text>
</a>
</g>
</g>
<!-- Node2 -->
<g id="Node000002" class="node">
<title>Node2</title>
<g id="a_Node000002"><a xlink:href="../../d6/db9/classchdr_1_1existence__set_a03e45ce97da7ec9580a33a375ac7d302.html#a03e45ce97da7ec9580a33a375ac7d302" target="_top" xlink:title="Constructs an existence_set with initial items.">
<polygon fill="white" stroke="#666666" points="65,-87 0,-87 0,-70 65,-70 65,-87"/>
<text text-anchor="middle" x="32.5" y="-76.6" font-family="Helvetica,sans-Serif" font-size="8.00">existence_set</text>
</a>
</g>
</g>
<!-- Node1&#45;&gt;Node2 -->
<g id="edge1_Node000001_Node000002" class="edge">
<title>Node1&#45;&gt;Node2</title>
<g id="a_edge1_Node000001_Node000002"><a xlink:title=" ">
<path fill="none" stroke="#63b8ff" d="M91.01,-55.76C79.13,-60.45 65.84,-65.71 55.03,-69.98"/>
<polygon fill="#63b8ff" stroke="#63b8ff" points="92.56,-58.9 100.58,-51.97 89.99,-52.4 92.56,-58.9"/>
</a>
</g>
</g>
<!-- Node3 -->
<g id="Node000003" class="node">
<title>Node3</title>
<g id="a_Node000003"><a xlink:href="../../d6/db9/classchdr_1_1existence__set_abc4b9f267e4a88a57f7dc97cf5aafc21.html#abc4b9f267e4a88a57f7dc97cf5aafc21" target="_top" xlink:title="Constructs an existence_set with the specified capacity.">
<polygon fill="white" stroke="#666666" points="65,-52 0,-52 0,-35 65,-35 65,-52"/>
<text text-anchor="middle" x="32.5" y="-41.6" font-family="Helvetica,sans-Serif" font-size="8.00">existence_set</text>
</a>
</g>
</g>
<!-- Node1&#45;&gt;Node3 -->
<g id="edge2_Node000001_Node000003" class="edge">
<title>Node1&#45;&gt;Node3</title>
<g id="a_edge2_Node000001_Node000003"><a xlink:title=" ">
<path fill="none" stroke="#63b8ff" d="M90.56,-43.5C82.29,-43.5 73.38,-43.5 65.11,-43.5"/>
<polygon fill="#63b8ff" stroke="#63b8ff" points="90.58,-47 100.58,-43.5 90.58,-40 90.58,-47"/>
</a>
</g>
</g>
<!-- Node4 -->
<g id="Node000004" class="node">
<title>Node4</title>
<g id="a_Node000004"><a xlink:href="../../d6/db9/classchdr_1_1existence__set_a30c34264336dae664d5b7942e3f16337.html#a30c34264336dae664d5b7942e3f16337" target="_top" xlink:title="Allocates additional capacity to accommodate the hash, ensuring an increase in storage is within the ...">
<polygon fill="white" stroke="#666666" points="54.5,-17 10.5,-17 10.5,0 54.5,0 54.5,-17"/>
<text text-anchor="middle" x="32.5" y="-6.6" font-family="Helvetica,sans-Serif" font-size="8.00">allocate</text>
</a>
</g>
</g>
<!-- Node1&#45;&gt;Node4 -->
<g id="edge3_Node000001_Node000004" class="edge">
<title>Node1&#45;&gt;Node4</title>
<g id="a_edge3_Node000001_Node000004"><a xlink:title=" ">
<path fill="none" stroke="#63b8ff" d="M90.94,-31.22C78.96,-26.48 65.57,-21.18 54.73,-16.89"/>
<polygon fill="#63b8ff" stroke="#63b8ff" points="89.99,-34.6 100.58,-35.03 92.56,-28.1 89.99,-34.6"/>
</a>
</g>
</g>
</g>
</svg>
