<?xml version="1.0" encoding="UTF-8" standalone="no"?>
<!DOCTYPE svg PUBLIC "-//W3C//DTD SVG 1.1//EN"
 "http://www.w3.org/Graphics/SVG/1.1/DTD/svg11.dtd">
<!-- Generated by graphviz version 2.43.0 (0)
 -->
<!-- Title: reserve Pages: 1 -->
<svg width="170pt" height="101pt"
 viewBox="0.00 0.00 170.00 101.00" xmlns="http://www.w3.org/2000/svg" xmlns:xlink="http://www.w3.org/1999/xlink">
<g id="graph0" class="graph" transform="scale(1 1) rotate(0) translate(4 97)">
<title>reserve</title>
<!-- Node1 -->
<g id="Node000001" class="node">
<title>Node1</title>
<g id="a_Node000001"><a xlink:title="Reserves memory for the set.">
<polygon fill="#999999" stroke="#666666" points="162,-56 113,-56 113,-37 162,-37 162,-56"/>
<text text-anchor="middle" x="137.5" y="-44" font-family="Helvetica,sans-Serif" font-size="10.00">reserve</text>
</a>
</g>
</g>
<!-- Node2 -->
<g id="Node000002" class="node">
<title>Node2</title>
<g id="a_Node000002"><a xlink:href="../../d6/db9/classchdr_1_1existence__set_a03e45ce97da7ec9580a33a375ac7d302.html#a03e45ce97da7ec9580a33a375ac7d302" target="_top" xlink:title="Constructs an existence_set with initial items.">
<polygon fill="white" stroke="#666666" points="77,-93 0,-93 0,-74 77,-74 77,-93"/>
<text text-anchor="middle" x="38.5" y="-81" font-family="Helvetica,sans-Serif" font-size="10.00">existence_set</text>
</a>
</g>
</g>
<!-- Node1&#45;&gt;Node2 -->
<g id="edge1_Node000001_Node000002" class="edge">
<title>Node1&#45;&gt;Node2</title>
<g id="a_edge1_Node000001_Node000002"><a xlink:title=" ">
<path fill="none" stroke="#63b8ff" d="M102.83,-59.34C90.26,-64.14 76.22,-69.49 64.55,-73.94"/>
<polygon fill="#63b8ff" stroke="#63b8ff" points="104.43,-62.48 112.52,-55.65 101.93,-55.94 104.43,-62.48"/>
</a>
</g>
</g>
<!-- Node3 -->
<g id="Node000003" class="node">
<title>Node3</title>
<g id="a_Node000003"><a xlink:href="../../d6/db9/classchdr_1_1existence__set_abc4b9f267e4a88a57f7dc97cf5aafc21.html#abc4b9f267e4a88a57f7dc97cf5aafc21" target="_top" xlink:title="Constructs an existence_set with the specified capacity.">
<polygon fill="white" stroke="#666666" points="77,-56 0,-56 0,-37 77,-37 77,-56"/>
<text text-anchor="middle" x="38.5" y="-44" font-family="Helvetica,sans-Serif" font-size="10.00">existence_set</text>
</a>
</g>
</g>
<!-- Node1&#45;&gt;Node3 -->
<g id="edge2_Node000001_Node000003" class="edge">
<title>Node1&#45;&gt;Node3</title>
<g id="a_edge2_Node000001_Node000003"><a xlink:title=" ">
<path fill="none" stroke="#63b8ff" d="M102.27,-46.5C94.15,-46.5 85.44,-46.5 77.17,-46.5"/>
<polygon fill="#63b8ff" stroke="#63b8ff" points="102.52,-50 112.52,-46.5 102.52,-43 102.52,-50"/>
</a>
</g>
</g>
<!-- Node4 -->
<g id="Node000004" class="node">
<title>Node4</title>
<g id="a_Node000004"><a xlink:href="../../d6/db9/classchdr_1_1existence__set_a30c34264336dae664d5b7942e3f16337.html#a30c34264336dae664d5b7942e3f16337" target="_top" xlink:title="Allocates additional capacity to accommodate the hash, ensuring an increase in storage is within the ...">
<polygon fill="white" stroke="#666666" points="63.5,-19 13.5,-19 13.5,0 63.5,0 63.5,-19"/>
<text text-anchor="middle" x="38.5" y="-7" font-family="Helvetica,sans-Serif" font-size="10.00">allocate</text>
</a>
</g>
</g>
<!-- Node1&#45;&gt;Node4 -->
<g id="edge3_Node000001_Node000004" class="edge">
<title>Node1&#45;&gt;Node4</title>
<g id="a_edge3_Node000001_Node000004"><a xlink:title=" ">
<path fill="none" stroke="#63b8ff" d="M102.98,-33.71C90,-28.76 75.44,-23.21 63.54,-18.67"/>
<polygon fill="#63b8ff" stroke="#63b8ff" points="101.93,-37.06 112.52,-37.35 104.43,-30.52 101.93,-37.06"/>
</a>
</g>
</g>
</g>
</svg>
