<?xml version="1.0" encoding="UTF-8" standalone="no"?>
<!DOCTYPE svg PUBLIC "-//W3C//DTD SVG 1.1//EN"
 "http://www.w3.org/Graphics/SVG/1.1/DTD/svg11.dtd">
<!-- Generated by graphviz version 2.43.0 (0)
 -->
<!-- Title: allocate Pages: 1 -->
<svg width="147pt" height="64pt"
 viewBox="0.00 0.00 147.00 64.00" xmlns="http://www.w3.org/2000/svg" xmlns:xlink="http://www.w3.org/1999/xlink">
<g id="graph0" class="graph" transform="scale(1 1) rotate(0) translate(4 60)">
<title>allocate</title>
<!-- Node1 -->
<g id="Node000001" class="node">
<title>Node1</title>
<g id="a_Node000001"><a xlink:title="Allocates additional capacity to accommodate the hash, ensuring an increase in storage is within the ...">
<polygon fill="#999999" stroke="#666666" points="50,-37 0,-37 0,-18 50,-18 50,-37"/>
<text text-anchor="middle" x="25" y="-25" font-family="Helvetica,sans-Serif" font-size="10.00">allocate</text>
</a>
</g>
</g>
<!-- Node2 -->
<g id="Node000002" class="node">
<title>Node2</title>
<g id="a_Node000002"><a xlink:href="../../d6/db9/classchdr_1_1existence__set_a4effe75935975bcddf86d9efd85776ef.html#a4effe75935975bcddf86d9efd85776ef" target="_top" xlink:title="Get the capacity of the set.">
<polygon fill="white" stroke="#666666" points="139,-56 86,-56 86,-37 139,-37 139,-56"/>
<text text-anchor="middle" x="112.5" y="-44" font-family="Helvetica,sans-Serif" font-size="10.00">capacity</text>
</a>
</g>
</g>
<!-- Node1&#45;&gt;Node2 -->
<g id="edge1_Node000001_Node000002" class="edge">
<title>Node1&#45;&gt;Node2</title>
<g id="a_edge1_Node000001_Node000002"><a xlink:title=" ">
<path fill="none" stroke="#63b8ff" d="M50.27,-32.89C58.29,-34.68 67.39,-36.7 76.06,-38.63"/>
<polygon fill="#63b8ff" stroke="#63b8ff" points="75.45,-42.07 85.97,-40.83 76.97,-35.24 75.45,-42.07"/>
</a>
</g>
</g>
<!-- Node3 -->
<g id="Node000003" class="node">
<title>Node3</title>
<g id="a_Node000003"><a xlink:href="../../d6/db9/classchdr_1_1existence__set_aa66b014d5c0a1d4eb03fa4c8bac415c3.html#aa66b014d5c0a1d4eb03fa4c8bac415c3" target="_top" xlink:title="Reserves memory for the set.">
<polygon fill="white" stroke="#666666" points="137,-19 88,-19 88,0 137,0 137,-19"/>
<text text-anchor="middle" x="112.5" y="-7" font-family="Helvetica,sans-Serif" font-size="10.00">reserve</text>
</a>
</g>
</g>
<!-- Node1&#45;&gt;Node3 -->
<g id="edge2_Node000001_Node000003" class="edge">
<title>Node1&#45;&gt;Node3</title>
<g id="a_edge2_Node000001_Node000003"><a xlink:title=" ">
<path fill="none" stroke="#63b8ff" d="M50.27,-22.39C58.81,-20.59 68.56,-18.54 77.74,-16.61"/>
<polygon fill="#63b8ff" stroke="#63b8ff" points="78.69,-19.98 87.76,-14.5 77.25,-13.13 78.69,-19.98"/>
</a>
</g>
</g>
</g>
</svg>
