<?xml version="1.0" encoding="UTF-8" standalone="no"?>
<!DOCTYPE svg PUBLIC "-//W3C//DTD SVG 1.1//EN"
 "http://www.w3.org/Graphics/SVG/1.1/DTD/svg11.dtd">
<!-- Generated by graphviz version 2.43.0 (0)
 -->
<!-- Title: existence_set Pages: 1 -->
<svg width="170pt" height="64pt"
 viewBox="0.00 0.00 170.00 64.00" xmlns="http://www.w3.org/2000/svg" xmlns:xlink="http://www.w3.org/1999/xlink">
<g id="graph0" class="graph" transform="scale(1 1) rotate(0) translate(4 60)">
<title>existence_set</title>
<!-- Node1 -->
<g id="Node000001" class="node">
<title>Node1</title>
<g id="a_Node000001"><a xlink:title="Constructs an existence_set with initial items.">
<polygon fill="#999999" stroke="#666666" points="77,-37 0,-37 0,-18 77,-18 77,-37"/>
<text text-anchor="middle" x="38.5" y="-25" font-family="Helvetica,sans-Serif" font-size="10.00">existence_set</text>
</a>
</g>
</g>
<!-- Node2 -->
<g id="Node000002" class="node">
<title>Node2</title>
<g id="a_Node000002"><a xlink:href="../../d6/db9/classchdr_1_1existence__set_a4846fe696d158cb562d6c4fa7778011a.html#a4846fe696d158cb562d6c4fa7778011a" target="_top" xlink:title="Add a hash to the set.">
<polygon fill="white" stroke="#666666" points="156.5,-56 118.5,-56 118.5,-37 156.5,-37 156.5,-56"/>
<text text-anchor="middle" x="137.5" y="-44" font-family="Helvetica,sans-Serif" font-size="10.00">push</text>
</a>
</g>
</g>
<!-- Node1&#45;&gt;Node2 -->
<g id="edge1_Node000001_Node000002" class="edge">
<title>Node1&#45;&gt;Node2</title>
<g id="a_edge1_Node000001_Node000002"><a xlink:title=" ">
<path fill="none" stroke="#63b8ff" d="M77,-34.85C87.42,-36.89 98.55,-39.07 108.33,-40.98"/>
<polygon fill="#63b8ff" stroke="#63b8ff" points="107.83,-44.45 118.31,-42.94 109.17,-37.58 107.83,-44.45"/>
</a>
</g>
</g>
<!-- Node3 -->
<g id="Node000003" class="node">
<title>Node3</title>
<g id="a_Node000003"><a xlink:href="../../d6/db9/classchdr_1_1existence__set_aa66b014d5c0a1d4eb03fa4c8bac415c3.html#aa66b014d5c0a1d4eb03fa4c8bac415c3" target="_top" xlink:title="Reserves memory for the set.">
<polygon fill="white" stroke="#666666" points="162,-19 113,-19 113,0 162,0 162,-19"/>
<text text-anchor="middle" x="137.5" y="-7" font-family="Helvetica,sans-Serif" font-size="10.00">reserve</text>
</a>
</g>
</g>
<!-- Node1&#45;&gt;Node3 -->
<g id="edge2_Node000001_Node000003" class="edge">
<title>Node1&#45;&gt;Node3</title>
<g id="a_edge2_Node000001_Node000003"><a xlink:title=" ">
<path fill="none" stroke="#63b8ff" d="M77,-20.54C85.47,-18.97 94.42,-17.31 102.73,-15.77"/>
<polygon fill="#63b8ff" stroke="#63b8ff" points="103.63,-19.16 112.82,-13.89 102.35,-12.28 103.63,-19.16"/>
</a>
</g>
</g>
</g>
</svg>
