<?xml version="1.0" encoding="UTF-8" standalone="no"?>
<!DOCTYPE svg PUBLIC "-//W3C//DTD SVG 1.1//EN"
 "http://www.w3.org/Graphics/SVG/1.1/DTD/svg11.dtd">
<!-- Generated by graphviz version 2.43.0 (0)
 -->
<!-- Title: existence_set Pages: 1 -->
<svg width="153pt" height="60pt"
 viewBox="0.00 0.00 153.00 60.00" xmlns="http://www.w3.org/2000/svg" xmlns:xlink="http://www.w3.org/1999/xlink">
<g id="graph0" class="graph" transform="scale(1 1) rotate(0) translate(4 56)">
<title>existence_set</title>
<!-- Node1 -->
<g id="Node000001" class="node">
<title>Node1</title>
<g id="a_Node000001"><a xlink:title="Constructs an existence_set with initial items.">
<polygon fill="#999999" stroke="#666666" points="65,-34 0,-34 0,-17 65,-17 65,-34"/>
<text text-anchor="middle" x="32.5" y="-23.6" font-family="Helvetica,sans-Serif" font-size="8.00">existence_set</text>
</a>
</g>
</g>
<!-- Node2 -->
<g id="Node000002" class="node">
<title>Node2</title>
<g id="a_Node000002"><a xlink:href="../../d6/db9/classchdr_1_1existence__set_a4846fe696d158cb562d6c4fa7778011a.html#a4846fe696d158cb562d6c4fa7778011a" target="_top" xlink:title="Add a hash to the set.">
<polygon fill="white" stroke="#666666" points="140,-52 106,-52 106,-35 140,-35 140,-52"/>
<text text-anchor="middle" x="123" y="-41.6" font-family="Helvetica,sans-Serif" font-size="8.00">push</text>
</a>
</g>
</g>
<!-- Node1&#45;&gt;Node2 -->
<g id="edge1_Node000001_Node000002" class="edge">
<title>Node1&#45;&gt;Node2</title>
<g id="a_edge1_Node000001_Node000002"><a xlink:title=" ">
<path fill="none" stroke="#63b8ff" d="M65.45,-32C75.38,-34.02 86.21,-36.22 95.7,-38.15"/>
<polygon fill="#63b8ff" stroke="#63b8ff" points="95.24,-41.63 105.74,-40.19 96.64,-34.77 95.24,-41.63"/>
</a>
</g>
</g>
<!-- Node3 -->
<g id="Node000003" class="node">
<title>Node3</title>
<g id="a_Node000003"><a xlink:href="../../d6/db9/classchdr_1_1existence__set_aa66b014d5c0a1d4eb03fa4c8bac415c3.html#aa66b014d5c0a1d4eb03fa4c8bac415c3" target="_top" xlink:title="Reserves memory for the set.">
<polygon fill="white" stroke="#666666" points="145,-17 101,-17 101,0 145,0 145,-17"/>
<text text-anchor="middle" x="123" y="-6.6" font-family="Helvetica,sans-Serif" font-size="8.00">reserve</text>
</a>
</g>
</g>
<!-- Node1&#45;&gt;Node3 -->
<g id="edge2_Node000001_Node000003" class="edge">
<title>Node1&#45;&gt;Node3</title>
<g id="a_edge2_Node000001_Node000003"><a xlink:title=" ">
<path fill="none" stroke="#63b8ff" d="M65.45,-19.36C73.74,-17.77 82.65,-16.06 90.89,-14.48"/>
<polygon fill="#63b8ff" stroke="#63b8ff" points="91.71,-17.88 100.87,-12.56 90.39,-11.01 91.71,-17.88"/>
</a>
</g>
</g>
</g>
</svg>
