<?xml version="1.0" encoding="UTF-8" standalone="no"?>
<!DOCTYPE svg PUBLIC "-//W3C//DTD SVG 1.1//EN"
 "http://www.w3.org/Graphics/SVG/1.1/DTD/svg11.dtd">
<!-- Generated by graphviz version 2.43.0 (0)
 -->
<!-- Title: reserve Pages: 1 -->
<svg width="153pt" height="60pt"
 viewBox="0.00 0.00 153.00 60.00" xmlns="http://www.w3.org/2000/svg" xmlns:xlink="http://www.w3.org/1999/xlink">
<g id="graph0" class="graph" transform="scale(1 1) rotate(0) translate(4 56)">
<title>reserve</title>
<!-- Node1 -->
<g id="Node000001" class="node">
<title>Node1</title>
<g id="a_Node000001"><a xlink:title="Reserves memory for the set.">
<polygon fill="#999999" stroke="#666666" points="145,-34 101,-34 101,-17 145,-17 145,-34"/>
<text text-anchor="middle" x="123" y="-23.6" font-family="Helvetica,sans-Serif" font-size="8.00">reserve</text>
</a>
</g>
</g>
<!-- Node2 -->
<g id="Node000002" class="node">
<title>Node2</title>
<g id="a_Node000002"><a xlink:href="../../d6/db9/classchdr_1_1existence__set_abc4b9f267e4a88a57f7dc97cf5aafc21.html#abc4b9f267e4a88a57f7dc97cf5aafc21" target="_top" xlink:title="Constructs an existence_set with the specified capacity.">
<polygon fill="white" stroke="#666666" points="65,-52 0,-52 0,-35 65,-35 65,-52"/>
<text text-anchor="middle" x="32.5" y="-41.6" font-family="Helvetica,sans-Serif" font-size="8.00">existence_set</text>
</a>
</g>
</g>
<!-- Node1&#45;&gt;Node2 -->
<g id="edge1_Node000001_Node000002" class="edge">
<title>Node1&#45;&gt;Node2</title>
<g id="a_edge1_Node000001_Node000002"><a xlink:title=" ">
<path fill="none" stroke="#63b8ff" d="M90.56,-31.9C82.29,-33.58 73.38,-35.39 65.11,-37.07"/>
<polygon fill="#63b8ff" stroke="#63b8ff" points="91.47,-35.28 100.58,-29.86 90.08,-28.42 91.47,-35.28"/>
</a>
</g>
</g>
<!-- Node3 -->
<g id="Node000003" class="node">
<title>Node3</title>
<g id="a_Node000003"><a xlink:href="../../d6/db9/classchdr_1_1existence__set_a30c34264336dae664d5b7942e3f16337.html#a30c34264336dae664d5b7942e3f16337" target="_top" xlink:title="Allocates additional capacity to accommodate the hash, ensuring an increase in storage is within the ...">
<polygon fill="white" stroke="#666666" points="54.5,-17 10.5,-17 10.5,0 54.5,0 54.5,-17"/>
<text text-anchor="middle" x="32.5" y="-6.6" font-family="Helvetica,sans-Serif" font-size="8.00">allocate</text>
</a>
</g>
</g>
<!-- Node1&#45;&gt;Node3 -->
<g id="edge2_Node000001_Node000003" class="edge">
<title>Node1&#45;&gt;Node3</title>
<g id="a_edge2_Node000001_Node000003"><a xlink:title=" ">
<path fill="none" stroke="#63b8ff" d="M90.58,-19.46C78.69,-17.18 65.46,-14.64 54.73,-12.58"/>
<polygon fill="#63b8ff" stroke="#63b8ff" points="90.1,-22.94 100.58,-21.38 91.42,-16.06 90.1,-22.94"/>
</a>
</g>
</g>
</g>
</svg>
