<?xml version="1.0" encoding="UTF-8" standalone="no"?>
<!DOCTYPE svg PUBLIC "-//W3C//DTD SVG 1.1//EN"
 "http://www.w3.org/Graphics/SVG/1.1/DTD/svg11.dtd">
<!-- Generated by graphviz version 2.43.0 (0)
 -->
<!-- Title: allocate Pages: 1 -->
<svg width="133pt" height="60pt"
 viewBox="0.00 0.00 133.00 60.00" xmlns="http://www.w3.org/2000/svg" xmlns:xlink="http://www.w3.org/1999/xlink">
<g id="graph0" class="graph" transform="scale(1 1) rotate(0) translate(4 56)">
<title>allocate</title>
<!-- Node1 -->
<g id="Node000001" class="node">
<title>Node1</title>
<g id="a_Node000001"><a xlink:title="Allocates additional capacity to accommodate the hash, ensuring an increase in storage is within the ...">
<polygon fill="#999999" stroke="#666666" points="44,-34 0,-34 0,-17 44,-17 44,-34"/>
<text text-anchor="middle" x="22" y="-23.6" font-family="Helvetica,sans-Serif" font-size="8.00">allocate</text>
</a>
</g>
</g>
<!-- Node2 -->
<g id="Node000002" class="node">
<title>Node2</title>
<g id="a_Node000002"><a xlink:href="../../d6/db9/classchdr_1_1existence__set_a4effe75935975bcddf86d9efd85776ef.html#a4effe75935975bcddf86d9efd85776ef" target="_top" xlink:title="Get the capacity of the set.">
<polygon fill="white" stroke="#666666" points="125,-52 80,-52 80,-35 125,-35 125,-52"/>
<text text-anchor="middle" x="102.5" y="-41.6" font-family="Helvetica,sans-Serif" font-size="8.00">capacity</text>
</a>
</g>
</g>
<!-- Node1&#45;&gt;Node2 -->
<g id="edge1_Node000001_Node000002" class="edge">
<title>Node1&#45;&gt;Node2</title>
<g id="a_edge1_Node000001_Node000002"><a xlink:title=" ">
<path fill="none" stroke="#63b8ff" d="M44.04,-30.32C52,-32.15 61.25,-34.27 69.97,-36.27"/>
<polygon fill="#63b8ff" stroke="#63b8ff" points="69.33,-39.71 79.86,-38.54 70.89,-32.89 69.33,-39.71"/>
</a>
</g>
</g>
<!-- Node3 -->
<g id="Node000003" class="node">
<title>Node3</title>
<g id="a_Node000003"><a xlink:href="../../d6/db9/classchdr_1_1existence__set_aa66b014d5c0a1d4eb03fa4c8bac415c3.html#aa66b014d5c0a1d4eb03fa4c8bac415c3" target="_top" xlink:title="Reserves memory for the set.">
<polygon fill="white" stroke="#666666" points="124.5,-17 80.5,-17 80.5,0 124.5,0 124.5,-17"/>
<text text-anchor="middle" x="102.5" y="-6.6" font-family="Helvetica,sans-Serif" font-size="8.00">reserve</text>
</a>
</g>
</g>
<!-- Node1&#45;&gt;Node3 -->
<g id="edge2_Node000001_Node000003" class="edge">
<title>Node1&#45;&gt;Node3</title>
<g id="a_edge2_Node000001_Node000003"><a xlink:title=" ">
<path fill="none" stroke="#63b8ff" d="M44.04,-20.94C52.13,-19.19 61.56,-17.15 70.4,-15.23"/>
<polygon fill="#63b8ff" stroke="#63b8ff" points="71.37,-18.61 80.41,-13.07 69.89,-11.76 71.37,-18.61"/>
</a>
</g>
</g>
</g>
</svg>
