<?xml version="1.0" encoding="UTF-8" standalone="no"?>
<!DOCTYPE svg PUBLIC "-//W3C//DTD SVG 1.1//EN"
 "http://www.w3.org/Graphics/SVG/1.1/DTD/svg11.dtd">
<!-- Generated by graphviz version 2.43.0 (0)
 -->
<!-- Title: allocate Pages: 1 -->
<svg width="156pt" height="95pt"
 viewBox="0.00 0.00 156.00 95.00" xmlns="http://www.w3.org/2000/svg" xmlns:xlink="http://www.w3.org/1999/xlink">
<g id="graph0" class="graph" transform="scale(1 1) rotate(0) translate(4 91)">
<title>allocate</title>
<!-- Node1 -->
<g id="Node000001" class="node">
<title>Node1</title>
<g id="a_Node000001"><a xlink:title="Allocates additional capacity to accommodate the hash, ensuring an increase in storage is within the ...">
<polygon fill="#999999" stroke="#666666" points="44,-52 0,-52 0,-35 44,-35 44,-52"/>
<text text-anchor="middle" x="22" y="-41.6" font-family="Helvetica,sans-Serif" font-size="8.00">allocate</text>
</a>
</g>
</g>
<!-- Node2 -->
<g id="Node000002" class="node">
<title>Node2</title>
<g id="a_Node000002"><a xlink:href="../../d6/db9/classchdr_1_1existence__set_a4effe75935975bcddf86d9efd85776ef.html#a4effe75935975bcddf86d9efd85776ef" target="_top" xlink:title="Get the capacity of the set.">
<polygon fill="white" stroke="#666666" points="136.5,-87 91.5,-87 91.5,-70 136.5,-70 136.5,-87"/>
<text text-anchor="middle" x="114" y="-76.6" font-family="Helvetica,sans-Serif" font-size="8.00">capacity</text>
</a>
</g>
</g>
<!-- Node1&#45;&gt;Node2 -->
<g id="edge1_Node000001_Node000002" class="edge">
<title>Node1&#45;&gt;Node2</title>
<g id="a_edge1_Node000001_Node000002"><a xlink:title=" ">
<path fill="none" stroke="#63b8ff" d="M44.33,-51.79C55.49,-56.13 69.36,-61.53 81.7,-66.33"/>
<polygon fill="#63b8ff" stroke="#63b8ff" points="80.61,-69.66 91.2,-70.02 83.15,-63.14 80.61,-69.66"/>
</a>
</g>
</g>
<!-- Node3 -->
<g id="Node000003" class="node">
<title>Node3</title>
<g id="a_Node000003"><a xlink:href="../../d2/dcb/structchdr_1_1utils_ac49e3cb9b2b007da03059d95020d8b49.html#ac49e3cb9b2b007da03059d95020d8b49" target="_top" xlink:title="Returns the smaller of two values.">
<polygon fill="white" stroke="#666666" points="148,-52 80,-52 80,-35 148,-35 148,-52"/>
<text text-anchor="middle" x="114" y="-41.6" font-family="Helvetica,sans-Serif" font-size="8.00">chdr::utils::min</text>
</a>
</g>
</g>
<!-- Node1&#45;&gt;Node3 -->
<g id="edge2_Node000001_Node000003" class="edge">
<title>Node1&#45;&gt;Node3</title>
<g id="a_edge2_Node000001_Node000003"><a xlink:title=" ">
<path fill="none" stroke="#63b8ff" d="M44.33,-43.5C51.95,-43.5 60.84,-43.5 69.64,-43.5"/>
<polygon fill="#63b8ff" stroke="#63b8ff" points="69.86,-47 79.86,-43.5 69.86,-40 69.86,-47"/>
</a>
</g>
</g>
<!-- Node4 -->
<g id="Node000004" class="node">
<title>Node4</title>
<g id="a_Node000004"><a xlink:href="../../d6/db9/classchdr_1_1existence__set_aa66b014d5c0a1d4eb03fa4c8bac415c3.html#aa66b014d5c0a1d4eb03fa4c8bac415c3" target="_top" xlink:title="Reserves memory for the set.">
<polygon fill="white" stroke="#666666" points="136,-17 92,-17 92,0 136,0 136,-17"/>
<text text-anchor="middle" x="114" y="-6.6" font-family="Helvetica,sans-Serif" font-size="8.00">reserve</text>
</a>
</g>
</g>
<!-- Node1&#45;&gt;Node4 -->
<g id="edge3_Node000001_Node000004" class="edge">
<title>Node1&#45;&gt;Node4</title>
<g id="a_edge3_Node000001_Node000004"><a xlink:title=" ">
<path fill="none" stroke="#63b8ff" d="M44.33,-35.21C55.65,-30.8 69.76,-25.31 82.25,-20.46"/>
<polygon fill="#63b8ff" stroke="#63b8ff" points="83.77,-23.62 91.82,-16.73 81.24,-17.1 83.77,-23.62"/>
</a>
</g>
</g>
</g>
</svg>
