<?xml version="1.0" encoding="UTF-8" standalone="no"?>
<!DOCTYPE svg PUBLIC "-//W3C//DTD SVG 1.1//EN"
 "http://www.w3.org/Graphics/SVG/1.1/DTD/svg11.dtd">
<!-- Generated by graphviz version 2.43.0 (0)
 -->
<!-- Title: unmanaged_node&lt; index_t &gt; Pages: 1 -->
<svg width="433pt" height="169pt"
 viewBox="0.00 0.00 433.00 169.00" xmlns="http://www.w3.org/2000/svg" xmlns:xlink="http://www.w3.org/1999/xlink">
<g id="graph0" class="graph" transform="scale(1 1) rotate(0) translate(4 165)">
<title>unmanaged_node&lt; index_t &gt;</title>
<!-- Node1 -->
<g id="Node000001" class="node">
<title>Node1</title>
<g id="a_Node000001"><a xlink:title="A hierarchical node in a pathfinding context, requires manual memory management.">
<polygon fill="#999999" stroke="transparent" points="425,-82 0,-82 0,0 425,0 425,-82"/>
<text text-anchor="start" x="152.5" y="-71.6" font-family="Helvetica,sans-Serif" font-size="8.00">unmanaged_node&lt; index_t &gt;</text>
<text text-anchor="start" x="4.5" y="-58.6" font-family="Helvetica,sans-Serif" font-size="8.00">+</text>
<text text-anchor="start" x="15.5" y="-58.6" font-family="Helvetica,sans-Serif" font-size="8.00">const unmanaged_node *restrict m_parent</text>
<text text-anchor="start" x="4.5" y="-45.6" font-family="Helvetica,sans-Serif" font-size="8.00">+</text>
<text text-anchor="start" x="15.5" y="-45.6" font-family="Helvetica,sans-Serif" font-size="8.00">unmanaged_node() noexcept</text>
<text text-anchor="start" x="4.5" y="-32.6" font-family="Helvetica,sans-Serif" font-size="8.00">+</text>
<text text-anchor="start" x="15.5" y="-32.6" font-family="Helvetica,sans-Serif" font-size="8.00">unmanaged_node(index_t _index, const unmanaged_node *restrict const _parent=nullptr) noexcept</text>
<text text-anchor="start" x="6" y="-19.6" font-family="Helvetica,sans-Serif" font-size="8.00">*</text>
<text text-anchor="start" x="15.5" y="-19.6" font-family="Helvetica,sans-Serif" font-size="8.00">unmanaged_node() noexcept</text>
<text text-anchor="start" x="6" y="-6.6" font-family="Helvetica,sans-Serif" font-size="8.00">*</text>
<text text-anchor="start" x="15.5" y="-6.6" font-family="Helvetica,sans-Serif" font-size="8.00">unmanaged_node(index_t _index, const unmanaged_node *restrict const _parent=nullptr) noexcept</text>
<polygon fill="#666666" stroke="#666666" points="0.5,-67 0.5,-67 425.5,-67 425.5,-67 0.5,-67"/>
<polygon fill="#666666" stroke="#666666" points="0.5,-54 0.5,-54 13.5,-54 13.5,-54 0.5,-54"/>
<polygon fill="#666666" stroke="#666666" points="13.5,-54 13.5,-54 425.5,-54 425.5,-54 13.5,-54"/>
<polygon fill="none" stroke="#666666" points="0,0 0,-82 425,-82 425,0 0,0"/>
</a>
</g>
</g>
<!-- Node2 -->
<g id="Node000002" class="node">
<title>Node2</title>
<g id="a_Node000002"><a xlink:href="../../da/d98/structchdr_1_1solvers_1_1bnode.html" target="_top" xlink:title="Base class for pathfinding nodes.">
<polygon fill="white" stroke="transparent" points="258.5,-161 166.5,-161 166.5,-118 258.5,-118 258.5,-161"/>
<text text-anchor="start" x="176" y="-150.1" font-family="Helvetica,sans-Serif" font-size="8.00">bnode&lt; index_t &gt;</text>
<text text-anchor="start" x="170.5" y="-137.1" font-family="Helvetica,sans-Serif" font-size="8.00">+</text>
<text text-anchor="start" x="181.5" y="-137.1" font-family="Helvetica,sans-Serif" font-size="8.00">index_t m_index</text>
<text text-anchor="start" x="172" y="-124.1" font-family="Helvetica,sans-Serif" font-size="8.00">*</text>
<text text-anchor="start" x="181.5" y="-124.1" font-family="Helvetica,sans-Serif" font-size="8.00">bnode() noexcept</text>
<polygon fill="#666666" stroke="#666666" points="166.5,-145.5 166.5,-145.5 258.5,-145.5 258.5,-145.5 166.5,-145.5"/>
<polygon fill="#666666" stroke="#666666" points="166.5,-132.5 166.5,-132.5 179.5,-132.5 179.5,-132.5 166.5,-132.5"/>
<polygon fill="#666666" stroke="#666666" points="179.5,-132.5 179.5,-132.5 258.5,-132.5 258.5,-132.5 179.5,-132.5"/>
<polygon fill="none" stroke="#666666" points="166.5,-118 166.5,-161 258.5,-161 258.5,-118 166.5,-118"/>
</a>
</g>
</g>
<!-- Node2&#45;&gt;Node1 -->
<g id="edge1_Node000001_Node000002" class="edge">
<title>Node2&#45;&gt;Node1</title>
<g id="a_edge1_Node000001_Node000002"><a xlink:title=" ">
<path fill="none" stroke="#63b8ff" d="M212.5,-107.54C212.5,-99.52 212.5,-90.77 212.5,-82.35"/>
<polygon fill="none" stroke="#63b8ff" points="209,-107.56 212.5,-117.56 216,-107.56 209,-107.56"/>
</a>
</g>
</g>
</g>
</svg>
