<?xml version="1.0" encoding="UTF-8" standalone="no"?>
<!DOCTYPE svg PUBLIC "-//W3C//DTD SVG 1.1//EN"
 "http://www.w3.org/Graphics/SVG/1.1/DTD/svg11.dtd">
<!-- Generated by graphviz version 2.43.0 (0)
 -->
<!-- Title: unmanaged_node&lt; index_t &gt; Pages: 1 -->
<svg width="380pt" height="169pt"
 viewBox="0.00 0.00 380.00 169.00" xmlns="http://www.w3.org/2000/svg" xmlns:xlink="http://www.w3.org/1999/xlink">
<g id="graph0" class="graph" transform="scale(1 1) rotate(0) translate(4 165)">
<title>unmanaged_node&lt; index_t &gt;</title>
<!-- Node1 -->
<g id="Node000001" class="node">
<title>Node1</title>
<g id="a_Node000001"><a xlink:title="A hierarchical node in a pathfinding context, requires manual memory management.">
<polygon fill="#999999" stroke="transparent" points="372,-82 0,-82 0,0 372,0 372,-82"/>
<text text-anchor="start" x="133.5" y="-71.6" font-family="Helvetica,sans-Serif" font-size="8.00">unmanaged_node&lt; index_t &gt;</text>
<text text-anchor="start" x="4" y="-58.6" font-family="Helvetica,sans-Serif" font-size="8.00">+</text>
<text text-anchor="start" x="13" y="-58.6" font-family="Helvetica,sans-Serif" font-size="8.00">const unmanaged_node *restrict m_parent</text>
<text text-anchor="start" x="4" y="-45.6" font-family="Helvetica,sans-Serif" font-size="8.00">+</text>
<text text-anchor="start" x="13" y="-45.6" font-family="Helvetica,sans-Serif" font-size="8.00">unmanaged_node() noexcept</text>
<text text-anchor="start" x="4" y="-32.6" font-family="Helvetica,sans-Serif" font-size="8.00">+</text>
<text text-anchor="start" x="13" y="-32.6" font-family="Helvetica,sans-Serif" font-size="8.00">unmanaged_node(index_t _index, const unmanaged_node *restrict const _parent=nullptr) noexcept</text>
<text text-anchor="start" x="4.5" y="-19.6" font-family="Helvetica,sans-Serif" font-size="8.00">*</text>
<text text-anchor="start" x="13" y="-19.6" font-family="Helvetica,sans-Serif" font-size="8.00">unmanaged_node() noexcept</text>
<text text-anchor="start" x="4.5" y="-6.6" font-family="Helvetica,sans-Serif" font-size="8.00">*</text>
<text text-anchor="start" x="13" y="-6.6" font-family="Helvetica,sans-Serif" font-size="8.00">unmanaged_node(index_t _index, const unmanaged_node *restrict const _parent=nullptr) noexcept</text>
<polygon fill="#666666" stroke="#666666" points="0,-67 0,-67 372,-67 372,-67 0,-67"/>
<polygon fill="#666666" stroke="#666666" points="0,-54 0,-54 11,-54 11,-54 0,-54"/>
<polygon fill="#666666" stroke="#666666" points="11,-54 11,-54 372,-54 372,-54 11,-54"/>
<polygon fill="none" stroke="#666666" points="0,0 0,-82 372,-82 372,0 0,0"/>
</a>
</g>
</g>
<!-- Node2 -->
<g id="Node000002" class="node">
<title>Node2</title>
<g id="a_Node000002"><a xlink:href="../../da/d98/structchdr_1_1solvers_1_1bnode.html" target="_top" xlink:title="Base class for pathfinding nodes.">
<polygon fill="white" stroke="transparent" points="226.5,-161 145.5,-161 145.5,-118 226.5,-118 226.5,-161"/>
<text text-anchor="start" x="155.5" y="-150.1" font-family="Helvetica,sans-Serif" font-size="8.00">bnode&lt; index_t &gt;</text>
<text text-anchor="start" x="150" y="-137.1" font-family="Helvetica,sans-Serif" font-size="8.00">+</text>
<text text-anchor="start" x="159" y="-137.1" font-family="Helvetica,sans-Serif" font-size="8.00">index_t m_index</text>
<text text-anchor="start" x="150.5" y="-124.1" font-family="Helvetica,sans-Serif" font-size="8.00">*</text>
<text text-anchor="start" x="159" y="-124.1" font-family="Helvetica,sans-Serif" font-size="8.00">bnode() noexcept</text>
<polygon fill="#666666" stroke="#666666" points="146,-145.5 146,-145.5 227,-145.5 227,-145.5 146,-145.5"/>
<polygon fill="#666666" stroke="#666666" points="146,-132.5 146,-132.5 157,-132.5 157,-132.5 146,-132.5"/>
<polygon fill="#666666" stroke="#666666" points="157,-132.5 157,-132.5 227,-132.5 227,-132.5 157,-132.5"/>
<polygon fill="none" stroke="#666666" points="145.5,-118 145.5,-161 226.5,-161 226.5,-118 145.5,-118"/>
</a>
</g>
</g>
<!-- Node2&#45;&gt;Node1 -->
<g id="edge1_Node000001_Node000002" class="edge">
<title>Node2&#45;&gt;Node1</title>
<g id="a_edge1_Node000001_Node000002"><a xlink:title=" ">
<path fill="none" stroke="#63b8ff" d="M186,-107.54C186,-99.52 186,-90.77 186,-82.35"/>
<polygon fill="none" stroke="#63b8ff" points="182.5,-107.56 186,-117.56 189.5,-107.56 182.5,-107.56"/>
</a>
</g>
</g>
</g>
</svg>
