<?xml version="1.0" encoding="UTF-8" standalone="no"?>
<!DOCTYPE svg PUBLIC "-//W3C//DTD SVG 1.1//EN"
 "http://www.w3.org/Graphics/SVG/1.1/DTD/svg11.dtd">
<!-- Generated by graphviz version 2.43.0 (0)
 -->
<!-- Title: monotonic_pool Pages: 1 -->
<svg width="296pt" height="116pt"
 viewBox="0.00 0.00 296.00 116.00" xmlns="http://www.w3.org/2000/svg" xmlns:xlink="http://www.w3.org/1999/xlink">
<g id="graph0" class="graph" transform="scale(1 1) rotate(0) translate(4 112)">
<title>monotonic_pool</title>
<!-- Node1 -->
<g id="Node000001" class="node">
<title>Node1</title>
<g id="a_Node000001"><a xlink:title="A pooled memory resource that manages memory blocks in a monotonic allocation scheme.">
<polygon fill="#999999" stroke="transparent" points="288,-108 0,-108 0,0 288,0 288,-108"/>
<text text-anchor="start" x="115.5" y="-97.6" font-family="Helvetica,sans-Serif" font-size="8.00">monotonic_pool</text>
<text text-anchor="start" x="142.5" y="-84.6" font-family="Helvetica,sans-Serif" font-size="8.00"> </text>
<text text-anchor="start" x="4" y="-71.6" font-family="Helvetica,sans-Serif" font-size="8.00">#</text>
<text text-anchor="start" x="13" y="-71.6" font-family="Helvetica,sans-Serif" font-size="8.00">void * do_allocate(const size_t _bytes, const size_t _alignment) override</text>
<text text-anchor="start" x="4" y="-58.6" font-family="Helvetica,sans-Serif" font-size="8.00">#</text>
<text text-anchor="start" x="13" y="-58.6" font-family="Helvetica,sans-Serif" font-size="8.00">void do_deallocate(void *, const size_t, size_t) override</text>
<text text-anchor="start" x="4" y="-45.6" font-family="Helvetica,sans-Serif" font-size="8.00">#</text>
<text text-anchor="start" x="13" y="-45.6" font-family="Helvetica,sans-Serif" font-size="8.00">bool do_is_equal(const memory_resource &amp;_other) const noexcept override</text>
<text text-anchor="start" x="4.5" y="-32.6" font-family="Helvetica,sans-Serif" font-size="8.00">*</text>
<text text-anchor="start" x="13" y="-32.6" font-family="Helvetica,sans-Serif" font-size="8.00">monotonic_pool() noexcept</text>
<text text-anchor="start" x="4.5" y="-19.6" font-family="Helvetica,sans-Serif" font-size="8.00">*</text>
<text text-anchor="start" x="13" y="-19.6" font-family="Helvetica,sans-Serif" font-size="8.00">void reset() noexcept</text>
<text text-anchor="start" x="4.5" y="-6.6" font-family="Helvetica,sans-Serif" font-size="8.00">*</text>
<text text-anchor="start" x="13" y="-6.6" font-family="Helvetica,sans-Serif" font-size="8.00">void release()</text>
<polygon fill="#666666" stroke="#666666" points="0,-93 0,-93 288,-93 288,-93 0,-93"/>
<polygon fill="#666666" stroke="#666666" points="0,-80 0,-80 288,-80 288,-80 0,-80"/>
<polygon fill="none" stroke="#666666" points="0,0 0,-108 288,-108 288,0 0,0"/>
</a>
</g>
</g>
</g>
</svg>
