<?xml version="1.0" encoding="UTF-8" standalone="no"?>
<!DOCTYPE svg PUBLIC "-//W3C//DTD SVG 1.1//EN"
 "http://www.w3.org/Graphics/SVG/1.1/DTD/svg11.dtd">
<!-- Generated by graphviz version 2.43.0 (0)
 -->
<!-- Title: managed_node&lt; index_t, derived &gt; Pages: 1 -->
<svg width="387pt" height="195pt"
 viewBox="0.00 0.00 387.00 195.00" xmlns="http://www.w3.org/2000/svg" xmlns:xlink="http://www.w3.org/1999/xlink">
<g id="graph0" class="graph" transform="scale(1 1) rotate(0) translate(4 191)">
<title>managed_node&lt; index_t, derived &gt;</title>
<!-- Node1 -->
<g id="Node000001" class="node">
<title>Node1</title>
<g id="a_Node000001"><a xlink:title="A hierarchical node in a pathfinding context, with a clean&#45;up mechanism.">
<polygon fill="#999999" stroke="transparent" points="379,-108 0,-108 0,0 379,0 379,-108"/>
<text text-anchor="start" x="117" y="-97.6" font-family="Helvetica,sans-Serif" font-size="8.00">managed_node&lt; index_t, derived &gt;</text>
<text text-anchor="start" x="4.5" y="-84.6" font-family="Helvetica,sans-Serif" font-size="8.00">+</text>
<text text-anchor="start" x="15.5" y="-84.6" font-family="Helvetica,sans-Serif" font-size="8.00">managed_node *restrict m_parent</text>
<text text-anchor="start" x="4.5" y="-71.6" font-family="Helvetica,sans-Serif" font-size="8.00">+</text>
<text text-anchor="start" x="15.5" y="-71.6" font-family="Helvetica,sans-Serif" font-size="8.00">count_t count() const noexcept</text>
<text text-anchor="start" x="4.5" y="-58.6" font-family="Helvetica,sans-Serif" font-size="8.00">+</text>
<text text-anchor="start" x="15.5" y="-58.6" font-family="Helvetica,sans-Serif" font-size="8.00">void count(count_t _count) noexcept</text>
<text text-anchor="start" x="4.5" y="-45.6" font-family="Helvetica,sans-Serif" font-size="8.00">+</text>
<text text-anchor="start" x="15.5" y="-45.6" font-family="Helvetica,sans-Serif" font-size="8.00">void expunge(memory_resource_t *_resource)</text>
<text text-anchor="start" x="4.5" y="-32.6" font-family="Helvetica,sans-Serif" font-size="8.00">+</text>
<text text-anchor="start" x="15.5" y="-32.6" font-family="Helvetica,sans-Serif" font-size="8.00">auto * forget_one()</text>
<text text-anchor="start" x="6" y="-19.6" font-family="Helvetica,sans-Serif" font-size="8.00">*</text>
<text text-anchor="start" x="15.5" y="-19.6" font-family="Helvetica,sans-Serif" font-size="8.00">managed_node() noexcept</text>
<text text-anchor="start" x="6" y="-6.6" font-family="Helvetica,sans-Serif" font-size="8.00">*</text>
<text text-anchor="start" x="15.5" y="-6.6" font-family="Helvetica,sans-Serif" font-size="8.00">managed_node(index_t _index, managed_node *restrict const _parent=nullptr) noexcept</text>
<polygon fill="#666666" stroke="#666666" points="0.5,-93 0.5,-93 379.5,-93 379.5,-93 0.5,-93"/>
<polygon fill="#666666" stroke="#666666" points="0.5,-80 0.5,-80 13.5,-80 13.5,-80 0.5,-80"/>
<polygon fill="#666666" stroke="#666666" points="13.5,-80 13.5,-80 379.5,-80 379.5,-80 13.5,-80"/>
<polygon fill="none" stroke="#666666" points="0,0 0,-108 379,-108 379,0 0,0"/>
</a>
</g>
</g>
<!-- Node2 -->
<g id="Node000002" class="node">
<title>Node2</title>
<g id="a_Node000002"><a xlink:href="../../da/d98/structchdr_1_1solvers_1_1bnode.html" target="_top" xlink:title="Base class for pathfinding nodes.">
<polygon fill="white" stroke="transparent" points="235.5,-187 143.5,-187 143.5,-144 235.5,-144 235.5,-187"/>
<text text-anchor="start" x="153" y="-176.1" font-family="Helvetica,sans-Serif" font-size="8.00">bnode&lt; index_t &gt;</text>
<text text-anchor="start" x="147.5" y="-163.1" font-family="Helvetica,sans-Serif" font-size="8.00">+</text>
<text text-anchor="start" x="158.5" y="-163.1" font-family="Helvetica,sans-Serif" font-size="8.00">index_t m_index</text>
<text text-anchor="start" x="149" y="-150.1" font-family="Helvetica,sans-Serif" font-size="8.00">*</text>
<text text-anchor="start" x="158.5" y="-150.1" font-family="Helvetica,sans-Serif" font-size="8.00">bnode() noexcept</text>
<polygon fill="#666666" stroke="#666666" points="143.5,-171.5 143.5,-171.5 235.5,-171.5 235.5,-171.5 143.5,-171.5"/>
<polygon fill="#666666" stroke="#666666" points="143.5,-158.5 143.5,-158.5 156.5,-158.5 156.5,-158.5 143.5,-158.5"/>
<polygon fill="#666666" stroke="#666666" points="156.5,-158.5 156.5,-158.5 235.5,-158.5 235.5,-158.5 156.5,-158.5"/>
<polygon fill="none" stroke="#666666" points="143.5,-144 143.5,-187 235.5,-187 235.5,-144 143.5,-144"/>
</a>
</g>
</g>
<!-- Node2&#45;&gt;Node1 -->
<g id="edge1_Node000001_Node000002" class="edge">
<title>Node2&#45;&gt;Node1</title>
<g id="a_edge1_Node000001_Node000002"><a xlink:title=" ">
<path fill="none" stroke="#63b8ff" d="M189.5,-133.7C189.5,-125.77 189.5,-117.01 189.5,-108.3"/>
<polygon fill="none" stroke="#63b8ff" points="186,-133.9 189.5,-143.9 193,-133.9 186,-133.9"/>
</a>
</g>
</g>
</g>
</svg>
