<?xml version="1.0" encoding="UTF-8" standalone="no"?>
<!DOCTYPE svg PUBLIC "-//W3C//DTD SVG 1.1//EN"
 "http://www.w3.org/Graphics/SVG/1.1/DTD/svg11.dtd">
<!-- Generated by graphviz version 2.43.0 (0)
 -->
<!-- Title: id_node.hpp Pages: 1 -->
<svg width="100pt" height="131pt"
 viewBox="0.00 0.00 100.00 131.00" xmlns="http://www.w3.org/2000/svg" xmlns:xlink="http://www.w3.org/1999/xlink">
<g id="graph0" class="graph" transform="scale(1 1) rotate(0) translate(4 127)">
<title>id_node.hpp</title>
<!-- Node1 -->
<g id="Node000001" class="node">
<title>Node1</title>
<g id="a_Node000001"><a xlink:title=" ">
<polygon fill="#999999" stroke="#666666" points="67,-123 0,-123 0,-106 67,-106 67,-123"/>
<text text-anchor="middle" x="33.5" y="-112.6" font-family="Helvetica,sans-Serif" font-size="8.00">id_node.hpp</text>
</a>
</g>
</g>
<!-- Node2 -->
<g id="Node000002" class="node">
<title>Node2</title>
<g id="a_Node000002"><a xlink:href="../../d9/d96/chdr_8hpp.html" target="_top" xlink:title=" ">
<polygon fill="white" stroke="#666666" points="59.5,-17 7.5,-17 7.5,0 59.5,0 59.5,-17"/>
<text text-anchor="middle" x="33.5" y="-6.6" font-family="Helvetica,sans-Serif" font-size="8.00">chdr.hpp</text>
</a>
</g>
</g>
<!-- Node1&#45;&gt;Node2 -->
<g id="edge1_Node000001_Node000002" class="edge">
<title>Node1&#45;&gt;Node2</title>
<g id="a_edge1_Node000001_Node000002"><a xlink:title=" ">
<path fill="none" stroke="#63b8ff" d="M28.54,-96.05C26.55,-88.17 24.49,-78.69 23.5,-70 21.34,-50.96 27.16,-28.78 30.81,-17.3"/>
<polygon fill="#63b8ff" stroke="#63b8ff" points="25.21,-97.15 31.2,-105.89 31.97,-95.32 25.21,-97.15"/>
</a>
</g>
</g>
<!-- Node3 -->
<g id="Node000003" class="node">
<title>Node3</title>
<g id="a_Node000003"><a xlink:href="../../d9/de9/graph_8hpp.html" target="_top" xlink:title=" ">
<polygon fill="white" stroke="#666666" points="92,-70 33,-70 33,-53 92,-53 92,-70"/>
<text text-anchor="middle" x="62.5" y="-59.6" font-family="Helvetica,sans-Serif" font-size="8.00">graph.hpp</text>
</a>
</g>
</g>
<!-- Node1&#45;&gt;Node3 -->
<g id="edge2_Node000001_Node000003" class="edge">
<title>Node1&#45;&gt;Node3</title>
<g id="a_edge2_Node000001_Node000003"><a xlink:title=" ">
<path fill="none" stroke="#63b8ff" d="M42.84,-97.08C48,-87.99 54.17,-77.15 58.2,-70.06"/>
<polygon fill="#63b8ff" stroke="#63b8ff" points="39.68,-95.55 37.78,-105.97 45.76,-99.01 39.68,-95.55"/>
</a>
</g>
</g>
<!-- Node3&#45;&gt;Node2 -->
<g id="edge3_Node000003_Node000002" class="edge">
<title>Node3&#45;&gt;Node2</title>
<g id="a_edge3_Node000003_Node000002"><a xlink:title=" ">
<path fill="none" stroke="#63b8ff" d="M53.16,-44.08C48,-34.99 41.83,-24.15 37.8,-17.06"/>
<polygon fill="#63b8ff" stroke="#63b8ff" points="50.24,-46.01 58.22,-52.97 56.32,-42.55 50.24,-46.01"/>
</a>
</g>
</g>
</g>
</svg>
