<?xml version="1.0" encoding="UTF-8" standalone="no"?>
<!DOCTYPE svg PUBLIC "-//W3C//DTD SVG 1.1//EN"
 "http://www.w3.org/Graphics/SVG/1.1/DTD/svg11.dtd">
<!-- Generated by graphviz version 2.43.0 (0)
 -->
<!-- Title: id_node.hpp Pages: 1 -->
<svg width="93pt" height="131pt"
 viewBox="0.00 0.00 93.00 131.00" xmlns="http://www.w3.org/2000/svg" xmlns:xlink="http://www.w3.org/1999/xlink">
<g id="graph0" class="graph" transform="scale(1 1) rotate(0) translate(4 127)">
<title>id_node.hpp</title>
<!-- Node1 -->
<g id="Node000001" class="node">
<title>Node1</title>
<g id="a_Node000001"><a xlink:title=" ">
<polygon fill="#999999" stroke="#666666" points="61,-123 0,-123 0,-106 61,-106 61,-123"/>
<text text-anchor="middle" x="30.5" y="-112.6" font-family="Helvetica,sans-Serif" font-size="8.00">id_node.hpp</text>
</a>
</g>
</g>
<!-- Node2 -->
<g id="Node000002" class="node">
<title>Node2</title>
<g id="a_Node000002"><a xlink:href="../../d9/d96/chdr_8hpp.html" target="_top" xlink:title=" ">
<polygon fill="white" stroke="#666666" points="54,-17 7,-17 7,0 54,0 54,-17"/>
<text text-anchor="middle" x="30.5" y="-6.6" font-family="Helvetica,sans-Serif" font-size="8.00">chdr.hpp</text>
</a>
</g>
</g>
<!-- Node1&#45;&gt;Node2 -->
<g id="edge1_Node000001_Node000002" class="edge">
<title>Node1&#45;&gt;Node2</title>
<g id="a_edge1_Node000001_Node000002"><a xlink:title=" ">
<path fill="none" stroke="#63b8ff" d="M26.59,-95.64C24.41,-83.61 22.35,-67.38 23.5,-53 24.51,-40.34 27.15,-25.81 28.89,-17.16"/>
<polygon fill="#63b8ff" stroke="#63b8ff" points="23.21,-96.57 28.61,-105.69 30.07,-95.19 23.21,-96.57"/>
</a>
</g>
</g>
<!-- Node3 -->
<g id="Node000003" class="node">
<title>Node3</title>
<g id="a_Node000003"><a xlink:href="../../d9/de9/graph_8hpp_source.html" target="_top" xlink:title=" ">
<polygon fill="white" stroke="#666666" points="85,-70 32,-70 32,-53 85,-53 85,-70"/>
<text text-anchor="middle" x="58.5" y="-59.6" font-family="Helvetica,sans-Serif" font-size="8.00">graph.hpp</text>
</a>
</g>
</g>
<!-- Node1&#45;&gt;Node3 -->
<g id="edge2_Node000001_Node000003" class="edge">
<title>Node1&#45;&gt;Node3</title>
<g id="a_edge2_Node000001_Node000003"><a xlink:title=" ">
<path fill="none" stroke="#63b8ff" d="M39.52,-97.08C44.5,-87.99 50.46,-77.15 54.35,-70.06"/>
<polygon fill="#63b8ff" stroke="#63b8ff" points="36.38,-95.52 34.63,-105.97 42.51,-98.89 36.38,-95.52"/>
</a>
</g>
</g>
<!-- Node3&#45;&gt;Node2 -->
<g id="edge3_Node000003_Node000002" class="edge">
<title>Node3&#45;&gt;Node2</title>
<g id="a_edge3_Node000003_Node000002"><a xlink:title=" ">
<path fill="none" stroke="#63b8ff" d="M49.48,-44.08C44.5,-34.99 38.54,-24.15 34.65,-17.06"/>
<polygon fill="#63b8ff" stroke="#63b8ff" points="46.49,-45.89 54.37,-52.97 52.62,-42.52 46.49,-45.89"/>
</a>
</g>
</g>
</g>
</svg>
