<?xml version="1.0" encoding="UTF-8" standalone="no"?>
<!DOCTYPE svg PUBLIC "-//W3C//DTD SVG 1.1//EN"
 "http://www.w3.org/Graphics/SVG/1.1/DTD/svg11.dtd">
<!-- Generated by graphviz version 2.43.0 (0)
 -->
<!-- Title: front Pages: 1 -->
<svg width="180pt" height="43pt"
 viewBox="0.00 0.00 180.00 43.00" xmlns="http://www.w3.org/2000/svg" xmlns:xlink="http://www.w3.org/1999/xlink">
<g id="graph0" class="graph" transform="scale(1 1) rotate(0) translate(4 39)">
<title>front</title>
<!-- Node1 -->
<g id="Node000001" class="node">
<title>Node1</title>
<g id="a_Node000001"><a xlink:title="Provides access to the first element in the container.">
<polygon fill="#999999" stroke="#666666" points="33,-35 0,-35 0,-18 33,-18 33,-35"/>
<text text-anchor="middle" x="16.5" y="-24.6" font-family="Helvetica,sans-Serif" font-size="8.00">front</text>
</a>
</g>
</g>
<!-- Node2 -->
<g id="Node000002" class="node">
<title>Node2</title>
<g id="a_Node000002"><a xlink:href="../../d7/de5/classchdr_1_1queue_a3f6fc5de06a318920d84f3c3742db07f.html#a3f6fc5de06a318920d84f3c3742db07f" target="_top" xlink:title="Checks if the queue is empty.">
<polygon fill="white" stroke="#666666" points="172,-35 134,-35 134,-18 172,-18 172,-35"/>
<text text-anchor="middle" x="153" y="-24.6" font-family="Helvetica,sans-Serif" font-size="8.00">empty</text>
</a>
</g>
</g>
<!-- Node1&#45;&gt;Node2 -->
<g id="edge1_Node000001_Node000002" class="edge">
<title>Node1&#45;&gt;Node2</title>
<g id="a_edge1_Node000001_Node000002"><a xlink:title=" ">
<path fill="none" stroke="#63b8ff" d="M33.19,-26.5C55.34,-26.5 96.12,-26.5 123.65,-26.5"/>
<polygon fill="#63b8ff" stroke="#63b8ff" points="123.84,-30 133.84,-26.5 123.84,-23 123.84,-30"/>
</a>
</g>
</g>
<!-- Node3 -->
<g id="Node000003" class="node">
<title>Node3</title>
<g id="a_Node000003"><a xlink:href="../../d7/de5/classchdr_1_1queue_a20a753362275d34a67d855ce0105fab7.html#a20a753362275d34a67d855ce0105fab7" target="_top" xlink:title="Provides access to the first element in the container.">
<polygon fill="white" stroke="#666666" points="98,-17 69,-17 69,0 98,0 98,-17"/>
<text text-anchor="middle" x="83.5" y="-6.6" font-family="Helvetica,sans-Serif" font-size="8.00">top</text>
</a>
</g>
</g>
<!-- Node1&#45;&gt;Node3 -->
<g id="edge2_Node000001_Node000003" class="edge">
<title>Node1&#45;&gt;Node3</title>
<g id="a_edge2_Node000001_Node000003"><a xlink:title=" ">
<path fill="none" stroke="#63b8ff" d="M33.23,-22.14C40.93,-20.01 50.35,-17.4 58.88,-15.04"/>
<polygon fill="#63b8ff" stroke="#63b8ff" points="59.97,-18.37 68.68,-12.33 58.1,-11.62 59.97,-18.37"/>
</a>
</g>
</g>
<!-- Node3&#45;&gt;Node2 -->
<g id="edge3_Node000003_Node000002" class="edge">
<title>Node3&#45;&gt;Node2</title>
<g id="a_edge3_Node000003_Node000002"><a xlink:title=" ">
<path fill="none" stroke="#63b8ff" d="M98.16,-12.14C105.6,-14.13 115.1,-16.66 124.04,-19.04"/>
<polygon fill="#63b8ff" stroke="#63b8ff" points="123.19,-22.44 133.75,-21.63 124.99,-15.68 123.19,-22.44"/>
</a>
</g>
</g>
</g>
</svg>
