<?xml version="1.0" encoding="UTF-8" standalone="no"?>
<!DOCTYPE svg PUBLIC "-//W3C//DTD SVG 1.1//EN"
 "http://www.w3.org/Graphics/SVG/1.1/DTD/svg11.dtd">
<!-- Generated by graphviz version 2.43.0 (0)
 -->
<!-- Title: top Pages: 1 -->
<svg width="106pt" height="60pt"
 viewBox="0.00 0.00 106.00 60.00" xmlns="http://www.w3.org/2000/svg" xmlns:xlink="http://www.w3.org/1999/xlink">
<g id="graph0" class="graph" transform="scale(1 1) rotate(0) translate(4 56)">
<title>top</title>
<!-- Node1 -->
<g id="Node000001" class="node">
<title>Node1</title>
<g id="a_Node000001"><a xlink:title="Provides access to the first element in the container.">
<polygon fill="#999999" stroke="#666666" points="98,-34 69,-34 69,-17 98,-17 98,-34"/>
<text text-anchor="middle" x="83.5" y="-23.6" font-family="Helvetica,sans-Serif" font-size="8.00">top</text>
</a>
</g>
</g>
<!-- Node2 -->
<g id="Node000002" class="node">
<title>Node2</title>
<g id="a_Node000002"><a xlink:href="../../d7/de5/classchdr_1_1queue_a66ae5a391f699d2e564c2545ab9c6d82.html#a66ae5a391f699d2e564c2545ab9c6d82" target="_top" xlink:title="Provides access to the first element in the container.">
<polygon fill="white" stroke="#666666" points="33,-52 0,-52 0,-35 33,-35 33,-52"/>
<text text-anchor="middle" x="16.5" y="-41.6" font-family="Helvetica,sans-Serif" font-size="8.00">front</text>
</a>
</g>
</g>
<!-- Node1&#45;&gt;Node2 -->
<g id="edge1_Node000001_Node000002" class="edge">
<title>Node1&#45;&gt;Node2</title>
<g id="a_edge1_Node000001_Node000002"><a xlink:title=" ">
<path fill="none" stroke="#63b8ff" d="M58.87,-32.04C50.28,-34.42 40.8,-37.05 33.09,-39.18"/>
<polygon fill="#63b8ff" stroke="#63b8ff" points="60.01,-35.36 68.72,-29.32 58.14,-28.61 60.01,-35.36"/>
</a>
</g>
</g>
<!-- Node3 -->
<g id="Node000003" class="node">
<title>Node3</title>
<g id="a_Node000003"><a xlink:href="../../d7/de5/classchdr_1_1queue_acbf9b62bac7333654c7862dc8cfd1e48.html#acbf9b62bac7333654c7862dc8cfd1e48" target="_top" xlink:title="Provides access to the first element in the container.">
<polygon fill="white" stroke="#666666" points="33,-17 0,-17 0,0 33,0 33,-17"/>
<text text-anchor="middle" x="16.5" y="-6.6" font-family="Helvetica,sans-Serif" font-size="8.00">front</text>
</a>
</g>
</g>
<!-- Node1&#45;&gt;Node3 -->
<g id="edge2_Node000001_Node000003" class="edge">
<title>Node1&#45;&gt;Node3</title>
<g id="a_edge2_Node000001_Node000003"><a xlink:title=" ">
<path fill="none" stroke="#63b8ff" d="M58.87,-19.32C50.28,-17.07 40.8,-14.6 33.09,-12.58"/>
<polygon fill="#63b8ff" stroke="#63b8ff" points="58.15,-22.75 68.72,-21.89 59.93,-15.98 58.15,-22.75"/>
</a>
</g>
</g>
</g>
</svg>
