<?xml version="1.0" encoding="UTF-8" standalone="no"?>
<!DOCTYPE svg PUBLIC "-//W3C//DTD SVG 1.1//EN"
 "http://www.w3.org/Graphics/SVG/1.1/DTD/svg11.dtd">
<!-- Generated by graphviz version 2.43.0 (0)
 -->
<!-- Title: empty Pages: 1 -->
<svg width="181pt" height="126pt"
 viewBox="0.00 0.00 181.00 125.78" xmlns="http://www.w3.org/2000/svg" xmlns:xlink="http://www.w3.org/1999/xlink">
<g id="graph0" class="graph" transform="scale(1 1) rotate(0) translate(4 121.78)">
<title>empty</title>
<!-- Node1 -->
<g id="Node000001" class="node">
<title>Node1</title>
<g id="a_Node000001"><a xlink:title="Checks if the queue is empty.">
<polygon fill="#999999" stroke="#666666" points="173,-64.78 135,-64.78 135,-47.78 173,-47.78 173,-64.78"/>
<text text-anchor="middle" x="154" y="-54.38" font-family="Helvetica,sans-Serif" font-size="8.00">empty</text>
</a>
</g>
</g>
<!-- Node2 -->
<g id="Node000002" class="node">
<title>Node2</title>
<g id="a_Node000002"><a xlink:href="../../d7/de5/classchdr_1_1queue_a66ae5a391f699d2e564c2545ab9c6d82.html#a66ae5a391f699d2e564c2545ab9c6d82" target="_top" xlink:title="Provides access to the first element in the container.">
<polygon fill="white" stroke="#666666" points="33,-117.78 0,-117.78 0,-100.78 33,-100.78 33,-117.78"/>
<text text-anchor="middle" x="16.5" y="-107.38" font-family="Helvetica,sans-Serif" font-size="8.00">front</text>
</a>
</g>
</g>
<!-- Node1&#45;&gt;Node2 -->
<g id="edge1_Node000001_Node000002" class="edge">
<title>Node1&#45;&gt;Node2</title>
<g id="a_edge1_Node000001_Node000002"><a xlink:title=" ">
<path fill="none" stroke="#63b8ff" d="M141.26,-73.51C131.58,-86.06 116.61,-102.08 99,-109.28 77.52,-118.06 50.11,-115.59 33.19,-112.68"/>
<polygon fill="#63b8ff" stroke="#63b8ff" points="144.28,-75.3 147.34,-65.15 138.62,-71.18 144.28,-75.3"/>
</a>
</g>
</g>
<!-- Node3 -->
<g id="Node000003" class="node">
<title>Node3</title>
<g id="a_Node000003"><a xlink:href="../../d7/de5/classchdr_1_1queue_acbf9b62bac7333654c7862dc8cfd1e48.html#acbf9b62bac7333654c7862dc8cfd1e48" target="_top" xlink:title="Provides access to the first element in the container.">
<polygon fill="white" stroke="#666666" points="33,-46.78 0,-46.78 0,-29.78 33,-29.78 33,-46.78"/>
<text text-anchor="middle" x="16.5" y="-36.38" font-family="Helvetica,sans-Serif" font-size="8.00">front</text>
</a>
</g>
</g>
<!-- Node1&#45;&gt;Node3 -->
<g id="edge2_Node000001_Node000003" class="edge">
<title>Node1&#45;&gt;Node3</title>
<g id="a_edge2_Node000001_Node000003"><a xlink:title=" ">
<path fill="none" stroke="#63b8ff" d="M141.26,-39.05C131.58,-26.5 116.61,-10.48 99,-3.28 72.49,7.56 41.48,-15.83 26.5,-29.43"/>
<polygon fill="#63b8ff" stroke="#63b8ff" points="138.62,-41.38 147.34,-47.41 144.28,-37.26 138.62,-41.38"/>
</a>
</g>
</g>
<!-- Node4 -->
<g id="Node000004" class="node">
<title>Node4</title>
<g id="a_Node000004"><a xlink:href="../../d7/de5/classchdr_1_1queue_a312e7f6c761a199c1369fbe651e084f0.html#a312e7f6c761a199c1369fbe651e084f0" target="_top" xlink:title="Pops an element from the queue.">
<polygon fill="white" stroke="#666666" points="99,-64.78 69,-64.78 69,-47.78 99,-47.78 99,-64.78"/>
<text text-anchor="middle" x="84" y="-54.38" font-family="Helvetica,sans-Serif" font-size="8.00">pop</text>
</a>
</g>
</g>
<!-- Node1&#45;&gt;Node4 -->
<g id="edge3_Node000001_Node000004" class="edge">
<title>Node1&#45;&gt;Node4</title>
<g id="a_edge3_Node000001_Node000004"><a xlink:title=" ">
<path fill="none" stroke="#63b8ff" d="M124.52,-56.28C115.77,-56.28 106.52,-56.28 99.17,-56.28"/>
<polygon fill="#63b8ff" stroke="#63b8ff" points="124.78,-59.78 134.78,-56.28 124.78,-52.78 124.78,-59.78"/>
</a>
</g>
</g>
<!-- Node5 -->
<g id="Node000005" class="node">
<title>Node5</title>
<g id="a_Node000005"><a xlink:href="../../d7/de5/classchdr_1_1queue_a39b39a0753d600546b92d146681c30f5.html#a39b39a0753d600546b92d146681c30f5" target="_top" xlink:title="Provides access to the first element in the container.">
<polygon fill="white" stroke="#666666" points="98.5,-29.78 69.5,-29.78 69.5,-12.78 98.5,-12.78 98.5,-29.78"/>
<text text-anchor="middle" x="84" y="-19.38" font-family="Helvetica,sans-Serif" font-size="8.00">top</text>
</a>
</g>
</g>
<!-- Node1&#45;&gt;Node5 -->
<g id="edge4_Node000001_Node000005" class="edge">
<title>Node1&#45;&gt;Node5</title>
<g id="a_edge4_Node000001_Node000005"><a xlink:title=" ">
<path fill="none" stroke="#63b8ff" d="M127.03,-42.91C117.45,-37.98 106.97,-32.59 98.87,-28.42"/>
<polygon fill="#63b8ff" stroke="#63b8ff" points="125.7,-46.16 136.19,-47.63 128.9,-39.94 125.7,-46.16"/>
</a>
</g>
</g>
<!-- Node6 -->
<g id="Node000006" class="node">
<title>Node6</title>
<g id="a_Node000006"><a xlink:href="../../d7/de5/classchdr_1_1queue_a20a753362275d34a67d855ce0105fab7.html#a20a753362275d34a67d855ce0105fab7" target="_top" xlink:title="Provides access to the first element in the container.">
<polygon fill="white" stroke="#666666" points="98.5,-99.78 69.5,-99.78 69.5,-82.78 98.5,-82.78 98.5,-99.78"/>
<text text-anchor="middle" x="84" y="-89.38" font-family="Helvetica,sans-Serif" font-size="8.00">top</text>
</a>
</g>
</g>
<!-- Node1&#45;&gt;Node6 -->
<g id="edge5_Node000001_Node000006" class="edge">
<title>Node1&#45;&gt;Node6</title>
<g id="a_edge5_Node000001_Node000006"><a xlink:title=" ">
<path fill="none" stroke="#63b8ff" d="M127.03,-69.64C117.45,-74.58 106.97,-79.97 98.87,-84.14"/>
<polygon fill="#63b8ff" stroke="#63b8ff" points="128.9,-72.62 136.19,-64.93 125.7,-66.4 128.9,-72.62"/>
</a>
</g>
</g>
<!-- Node6&#45;&gt;Node2 -->
<g id="edge6_Node000006_Node000002" class="edge">
<title>Node6&#45;&gt;Node2</title>
<g id="a_edge6_Node000006_Node000002"><a xlink:title=" ">
<path fill="none" stroke="#63b8ff" d="M59.78,-97.66C51.03,-100.06 41.29,-102.74 33.36,-104.92"/>
<polygon fill="#63b8ff" stroke="#63b8ff" points="60.71,-101.03 69.43,-95.01 58.86,-94.28 60.71,-101.03"/>
</a>
</g>
</g>
<!-- Node6&#45;&gt;Node3 -->
<g id="edge7_Node000006_Node000003" class="edge">
<title>Node6&#45;&gt;Node3</title>
<g id="a_edge7_Node000006_Node000003"><a xlink:title=" ">
<path fill="none" stroke="#63b8ff" d="M64.59,-76.38C52.85,-66.88 38.06,-54.91 28.22,-46.95"/>
<polygon fill="#63b8ff" stroke="#63b8ff" points="62.5,-79.19 72.48,-82.76 66.9,-73.75 62.5,-79.19"/>
</a>
</g>
</g>
</g>
</svg>
