<?xml version="1.0" encoding="UTF-8" standalone="no"?>
<!DOCTYPE svg PUBLIC "-//W3C//DTD SVG 1.1//EN"
 "http://www.w3.org/Graphics/SVG/1.1/DTD/svg11.dtd">
<!-- Generated by graphviz version 2.43.0 (0)
 -->
<!-- Title: include Pages: 1 -->
<svg width="152pt" height="216pt"
 viewBox="0.00 0.00 152.00 216.00" xmlns="http://www.w3.org/2000/svg" xmlns:xlink="http://www.w3.org/1999/xlink">
<g id="graph0" class="graph" transform="scale(1 1) rotate(0) translate(4 212)">
<title>include</title>
<g id="clust1" class="cluster">
<title>clusterdir_d44c64559bbebec7f509842c48db8b23</title>
<g id="a_clust1"><a xlink:href="dir_d44c64559bbebec7f509842c48db8b23.html" target="_top">
<polygon fill="#edf0f7" stroke="#404040" stroke-width="2" points="8,-8 8,-200 136,-200 136,-8 8,-8"/>
</a>
</g>
</g>
<!-- dir_d44c64559bbebec7f509842c48db8b23 -->
<g id="node1" class="node">
<title>dir_d44c64559bbebec7f509842c48db8b23</title>
<text text-anchor="middle" x="104" y="-181.6" font-family="Helvetica,sans-Serif" font-size="8.00">include</text>
</g>
<!-- dir_4d98151ebc14e036e8623fd77932f1bb -->
<g id="node2" class="node">
<title>dir_4d98151ebc14e036e8623fd77932f1bb</title>
<g id="a_node2"><a xlink:href="dir_4d98151ebc14e036e8623fd77932f1bb.html" target="_top" xlink:title="mazes">
<polygon fill="#a2b4d6" stroke="#404040" points="60,-139 16,-139 16,-122 60,-122 60,-139"/>
<text text-anchor="middle" x="38" y="-128.6" font-family="Helvetica,sans-Serif" font-size="8.00">mazes</text>
</a>
</g>
</g>
<!-- dir_0ad255a918b7fba820a1ddafed6fa637 -->
<g id="node4" class="node">
<title>dir_0ad255a918b7fba820a1ddafed6fa637</title>
<g id="a_node4"><a xlink:href="dir_0ad255a918b7fba820a1ddafed6fa637.html" target="_top" xlink:title="types">
<polygon fill="#a2b4d6" stroke="#404040" points="87.5,-86 48.5,-86 48.5,-69 87.5,-69 87.5,-86"/>
<text text-anchor="middle" x="68" y="-75.6" font-family="Helvetica,sans-Serif" font-size="8.00">types</text>
</a>
</g>
</g>
<!-- dir_4d98151ebc14e036e8623fd77932f1bb&#45;&gt;dir_0ad255a918b7fba820a1ddafed6fa637 -->
<g id="edge1" class="edge">
<title>dir_4d98151ebc14e036e8623fd77932f1bb&#45;&gt;dir_0ad255a918b7fba820a1ddafed6fa637</title>
<g id="a_edge1"><a xlink:href="dir_000005_000009.html" target="_top">
<path fill="none" stroke="#63b8ff" d="M42.43,-121.97C46.59,-114.89 52.97,-104.05 58.32,-94.96"/>
<polygon fill="#63b8ff" stroke="#63b8ff" points="61.5,-96.45 63.56,-86.06 55.47,-92.9 61.5,-96.45"/>
</a>
</g>
<g id="a_edge1&#45;headlabel"><a xlink:href="dir_000005_000009.html" target="_top" xlink:title="2">
<text text-anchor="middle" x="62.13" y="-99.09" font-family="Helvetica,sans-Serif" font-size="8.00" fill="#63b8ff">2</text>
</a>
</g>
</g>
<!-- dir_821002d4f10779a80d4fb17bc32f21f1 -->
<g id="node5" class="node">
<title>dir_821002d4f10779a80d4fb17bc32f21f1</title>
<g id="a_node5"><a xlink:href="dir_821002d4f10779a80d4fb17bc32f21f1.html" target="_top" xlink:title="utils">
<polygon fill="#a2b4d6" stroke="#404040" points="85,-33 51,-33 51,-16 85,-16 85,-33"/>
<text text-anchor="middle" x="68" y="-22.6" font-family="Helvetica,sans-Serif" font-size="8.00">utils</text>
</a>
</g>
</g>
<!-- dir_4d98151ebc14e036e8623fd77932f1bb&#45;&gt;dir_821002d4f10779a80d4fb17bc32f21f1 -->
<g id="edge2" class="edge">
<title>dir_4d98151ebc14e036e8623fd77932f1bb&#45;&gt;dir_821002d4f10779a80d4fb17bc32f21f1</title>
<g id="a_edge2"><a xlink:href="dir_000005_000010.html" target="_top">
<path fill="none" stroke="#63b8ff" d="M36.98,-121.83C35.7,-110.13 34.3,-87.26 40,-69 43.12,-59.02 49.19,-49.12 54.89,-41.29"/>
<polygon fill="#63b8ff" stroke="#63b8ff" points="57.82,-43.21 61.2,-33.17 52.3,-38.91 57.82,-43.21"/>
</a>
</g>
<g id="a_edge2&#45;headlabel"><a xlink:href="dir_000005_000010.html" target="_top" xlink:title="4">
<text text-anchor="middle" x="57.86" y="-45.89" font-family="Helvetica,sans-Serif" font-size="8.00" fill="#63b8ff">4</text>
</a>
</g>
</g>
<!-- dir_949292de90bec6ca0ef87cb838b26113 -->
<g id="node3" class="node">
<title>dir_949292de90bec6ca0ef87cb838b26113</title>
<g id="a_node3"><a xlink:href="dir_949292de90bec6ca0ef87cb838b26113.html" target="_top" xlink:title="solvers">
<polygon fill="#a2b4d6" stroke="#404040" points="62,-192 16,-192 16,-175 62,-175 62,-192"/>
<text text-anchor="middle" x="39" y="-181.6" font-family="Helvetica,sans-Serif" font-size="8.00">solvers</text>
</a>
</g>
</g>
<!-- dir_949292de90bec6ca0ef87cb838b26113&#45;&gt;dir_4d98151ebc14e036e8623fd77932f1bb -->
<g id="edge4" class="edge">
<title>dir_949292de90bec6ca0ef87cb838b26113&#45;&gt;dir_4d98151ebc14e036e8623fd77932f1bb</title>
<g id="a_edge4"><a xlink:href="dir_000008_000005.html" target="_top">
<path fill="none" stroke="#63b8ff" d="M38.85,-174.97C38.72,-168.19 38.52,-157.97 38.35,-149.13"/>
<polygon fill="#63b8ff" stroke="#63b8ff" points="41.84,-148.99 38.15,-139.06 34.84,-149.12 41.84,-148.99"/>
</a>
</g>
<g id="a_edge4&#45;headlabel"><a xlink:href="dir_000008_000005.html" target="_top" xlink:title="2">
<text text-anchor="middle" x="44.75" y="-150.62" font-family="Helvetica,sans-Serif" font-size="8.00" fill="#63b8ff">2</text>
</a>
</g>
</g>
<!-- dir_949292de90bec6ca0ef87cb838b26113&#45;&gt;dir_0ad255a918b7fba820a1ddafed6fa637 -->
<g id="edge3" class="edge">
<title>dir_949292de90bec6ca0ef87cb838b26113&#45;&gt;dir_0ad255a918b7fba820a1ddafed6fa637</title>
<g id="a_edge3"><a xlink:href="dir_000008_000009.html" target="_top">
<path fill="none" stroke="#63b8ff" d="M46.38,-174.95C53.74,-166.84 64.58,-153.19 69,-139 73.31,-125.17 72.68,-108.68 71.19,-96.41"/>
<polygon fill="#63b8ff" stroke="#63b8ff" points="74.6,-95.52 69.63,-86.17 67.68,-96.58 74.6,-95.52"/>
</a>
</g>
<g id="a_edge3&#45;headlabel"><a xlink:href="dir_000008_000009.html" target="_top" xlink:title="28">
<text text-anchor="middle" x="77.95" y="-96.75" font-family="Helvetica,sans-Serif" font-size="8.00" fill="#63b8ff">28</text>
</a>
</g>
</g>
<!-- dir_949292de90bec6ca0ef87cb838b26113&#45;&gt;dir_821002d4f10779a80d4fb17bc32f21f1 -->
<g id="edge5" class="edge">
<title>dir_949292de90bec6ca0ef87cb838b26113&#45;&gt;dir_821002d4f10779a80d4fb17bc32f21f1</title>
<g id="a_edge5"><a xlink:href="dir_000008_000010.html" target="_top">
<path fill="none" stroke="#63b8ff" d="M46.68,-174.71C54.56,-166.41 66.8,-152.6 75,-139 88.17,-117.16 92.01,-111.01 97,-86 98.48,-78.59 99.19,-76.23 97,-69 93.9,-58.78 87.52,-48.76 81.54,-40.92"/>
<polygon fill="#63b8ff" stroke="#63b8ff" points="84.18,-38.62 75.14,-33.1 78.76,-43.05 84.18,-38.62"/>
</a>
</g>
<g id="a_edge5&#45;headlabel"><a xlink:href="dir_000008_000010.html" target="_top" xlink:title="46">
<text text-anchor="middle" x="88.65" y="-37.7" font-family="Helvetica,sans-Serif" font-size="8.00" fill="#63b8ff">46</text>
</a>
</g>
</g>
<!-- dir_0ad255a918b7fba820a1ddafed6fa637&#45;&gt;dir_821002d4f10779a80d4fb17bc32f21f1 -->
<g id="edge6" class="edge">
<title>dir_0ad255a918b7fba820a1ddafed6fa637&#45;&gt;dir_821002d4f10779a80d4fb17bc32f21f1</title>
<g id="a_edge6"><a xlink:href="dir_000009_000010.html" target="_top">
<path fill="none" stroke="#63b8ff" d="M68,-68.97C68,-62.19 68,-51.97 68,-43.13"/>
<polygon fill="#63b8ff" stroke="#63b8ff" points="71.5,-43.06 68,-33.06 64.5,-43.06 71.5,-43.06"/>
</a>
</g>
<g id="a_edge6&#45;headlabel"><a xlink:href="dir_000009_000010.html" target="_top" xlink:title="11">
<text text-anchor="middle" x="74.34" y="-44.75" font-family="Helvetica,sans-Serif" font-size="8.00" fill="#63b8ff">11</text>
</a>
</g>
</g>
</g>
</svg>
