<?xml version="1.0" encoding="UTF-8" standalone="no"?>
<!DOCTYPE svg PUBLIC "-//W3C//DTD SVG 1.1//EN"
 "http://www.w3.org/Graphics/SVG/1.1/DTD/svg11.dtd">
<!-- Generated by graphviz version 2.43.0 (0)
 -->
<!-- Title: include Pages: 1 -->
<svg width="141pt" height="216pt"
 viewBox="0.00 0.00 141.00 216.00" xmlns="http://www.w3.org/2000/svg" xmlns:xlink="http://www.w3.org/1999/xlink">
<g id="graph0" class="graph" transform="scale(1 1) rotate(0) translate(4 212)">
<title>include</title>
<g id="clust1" class="cluster">
<title>clusterdir_d44c64559bbebec7f509842c48db8b23</title>
<g id="a_clust1"><a xlink:href="dir_d44c64559bbebec7f509842c48db8b23.html" target="_top">
<polygon fill="#edf0f7" stroke="#404040" stroke-width="2" points="8,-8 8,-200 125,-200 125,-8 8,-8"/>
</a>
</g>
</g>
<!-- dir_d44c64559bbebec7f509842c48db8b23 -->
<g id="node1" class="node">
<title>dir_d44c64559bbebec7f509842c48db8b23</title>
<text text-anchor="middle" x="96" y="-181.6" font-family="Helvetica,sans-Serif" font-size="8.00">include</text>
</g>
<!-- dir_4d98151ebc14e036e8623fd77932f1bb -->
<g id="node2" class="node">
<title>dir_4d98151ebc14e036e8623fd77932f1bb</title>
<g id="a_node2"><a xlink:href="dir_4d98151ebc14e036e8623fd77932f1bb.html" target="_top" xlink:title="mazes">
<polygon fill="#a2b4d6" stroke="#404040" points="56,-139 16,-139 16,-122 56,-122 56,-139"/>
<text text-anchor="middle" x="36" y="-128.6" font-family="Helvetica,sans-Serif" font-size="8.00">mazes</text>
</a>
</g>
</g>
<!-- dir_0ad255a918b7fba820a1ddafed6fa637 -->
<g id="node4" class="node">
<title>dir_0ad255a918b7fba820a1ddafed6fa637</title>
<g id="a_node4"><a xlink:href="dir_0ad255a918b7fba820a1ddafed6fa637.html" target="_top" xlink:title="types">
<polygon fill="#a2b4d6" stroke="#404040" points="82.5,-86 47.5,-86 47.5,-69 82.5,-69 82.5,-86"/>
<text text-anchor="middle" x="65" y="-75.6" font-family="Helvetica,sans-Serif" font-size="8.00">types</text>
</a>
</g>
</g>
<!-- dir_4d98151ebc14e036e8623fd77932f1bb&#45;&gt;dir_0ad255a918b7fba820a1ddafed6fa637 -->
<g id="edge1" class="edge">
<title>dir_4d98151ebc14e036e8623fd77932f1bb&#45;&gt;dir_0ad255a918b7fba820a1ddafed6fa637</title>
<g id="a_edge1"><a xlink:href="dir_000005_000009.html" target="_top">
<path fill="none" stroke="#63b8ff" d="M40.28,-121.97C44.31,-114.89 50.47,-104.05 55.64,-94.96"/>
<polygon fill="#63b8ff" stroke="#63b8ff" points="58.8,-96.48 60.7,-86.06 52.72,-93.02 58.8,-96.48"/>
</a>
</g>
<g id="a_edge1&#45;headlabel"><a xlink:href="dir_000005_000009.html" target="_top" xlink:title="1">
<text text-anchor="middle" x="59.49" y="-99.11" font-family="Helvetica,sans-Serif" font-size="8.00" fill="#63b8ff">1</text>
</a>
</g>
</g>
<!-- dir_821002d4f10779a80d4fb17bc32f21f1 -->
<g id="node5" class="node">
<title>dir_821002d4f10779a80d4fb17bc32f21f1</title>
<g id="a_node5"><a xlink:href="dir_821002d4f10779a80d4fb17bc32f21f1.html" target="_top" xlink:title="utils">
<polygon fill="#a2b4d6" stroke="#404040" points="80,-33 50,-33 50,-16 80,-16 80,-33"/>
<text text-anchor="middle" x="65" y="-22.6" font-family="Helvetica,sans-Serif" font-size="8.00">utils</text>
</a>
</g>
</g>
<!-- dir_4d98151ebc14e036e8623fd77932f1bb&#45;&gt;dir_821002d4f10779a80d4fb17bc32f21f1 -->
<g id="edge2" class="edge">
<title>dir_4d98151ebc14e036e8623fd77932f1bb&#45;&gt;dir_821002d4f10779a80d4fb17bc32f21f1</title>
<g id="a_edge2"><a xlink:href="dir_000005_000010.html" target="_top">
<path fill="none" stroke="#63b8ff" d="M35.22,-121.85C34.28,-110.17 33.45,-87.32 39,-69 41.97,-59.2 47.62,-49.31 52.89,-41.45"/>
<polygon fill="#63b8ff" stroke="#63b8ff" points="55.77,-43.44 58.73,-33.27 50.07,-39.38 55.77,-43.44"/>
</a>
</g>
<g id="a_edge2&#45;headlabel"><a xlink:href="dir_000005_000010.html" target="_top" xlink:title="4">
<text text-anchor="middle" x="55.99" y="-46.12" font-family="Helvetica,sans-Serif" font-size="8.00" fill="#63b8ff">4</text>
</a>
</g>
</g>
<!-- dir_949292de90bec6ca0ef87cb838b26113 -->
<g id="node3" class="node">
<title>dir_949292de90bec6ca0ef87cb838b26113</title>
<g id="a_node3"><a xlink:href="dir_949292de90bec6ca0ef87cb838b26113.html" target="_top" xlink:title="solvers">
<polygon fill="#a2b4d6" stroke="#404040" points="57.5,-192 16.5,-192 16.5,-175 57.5,-175 57.5,-192"/>
<text text-anchor="middle" x="37" y="-181.6" font-family="Helvetica,sans-Serif" font-size="8.00">solvers</text>
</a>
</g>
</g>
<!-- dir_949292de90bec6ca0ef87cb838b26113&#45;&gt;dir_4d98151ebc14e036e8623fd77932f1bb -->
<g id="edge4" class="edge">
<title>dir_949292de90bec6ca0ef87cb838b26113&#45;&gt;dir_4d98151ebc14e036e8623fd77932f1bb</title>
<g id="a_edge4"><a xlink:href="dir_000008_000005.html" target="_top">
<path fill="none" stroke="#63b8ff" d="M36.85,-174.97C36.72,-168.19 36.52,-157.97 36.35,-149.13"/>
<polygon fill="#63b8ff" stroke="#63b8ff" points="39.84,-148.99 36.15,-139.06 32.84,-149.12 39.84,-148.99"/>
</a>
</g>
<g id="a_edge4&#45;headlabel"><a xlink:href="dir_000008_000005.html" target="_top" xlink:title="2">
<text text-anchor="middle" x="42.75" y="-150.62" font-family="Helvetica,sans-Serif" font-size="8.00" fill="#63b8ff">2</text>
</a>
</g>
</g>
<!-- dir_949292de90bec6ca0ef87cb838b26113&#45;&gt;dir_0ad255a918b7fba820a1ddafed6fa637 -->
<g id="edge3" class="edge">
<title>dir_949292de90bec6ca0ef87cb838b26113&#45;&gt;dir_0ad255a918b7fba820a1ddafed6fa637</title>
<g id="a_edge3"><a xlink:href="dir_000008_000009.html" target="_top">
<path fill="none" stroke="#63b8ff" d="M43.89,-174.86C50.77,-166.67 60.9,-152.96 65,-139 69.09,-125.1 68.77,-108.62 67.61,-96.37"/>
<polygon fill="#63b8ff" stroke="#63b8ff" points="71.05,-95.64 66.35,-86.15 64.1,-96.5 71.05,-95.64"/>
</a>
</g>
<g id="a_edge3&#45;headlabel"><a xlink:href="dir_000008_000009.html" target="_top" xlink:title="26">
<text text-anchor="middle" x="74.3" y="-96.97" font-family="Helvetica,sans-Serif" font-size="8.00" fill="#63b8ff">26</text>
</a>
</g>
</g>
<!-- dir_949292de90bec6ca0ef87cb838b26113&#45;&gt;dir_821002d4f10779a80d4fb17bc32f21f1 -->
<g id="edge5" class="edge">
<title>dir_949292de90bec6ca0ef87cb838b26113&#45;&gt;dir_821002d4f10779a80d4fb17bc32f21f1</title>
<g id="a_edge5"><a xlink:href="dir_000008_000010.html" target="_top">
<path fill="none" stroke="#63b8ff" d="M43.99,-174.97C51.43,-166.66 63.18,-152.64 71,-139 83.6,-117.02 87.25,-110.89 92,-86 93.42,-78.58 94.07,-76.27 92,-69 89.16,-59.05 83.32,-49.15 77.79,-41.31"/>
<polygon fill="#63b8ff" stroke="#63b8ff" points="80.47,-39.05 71.65,-33.19 74.89,-43.27 80.47,-39.05"/>
</a>
</g>
<g id="a_edge5&#45;headlabel"><a xlink:href="dir_000008_000010.html" target="_top" xlink:title="39">
<text text-anchor="middle" x="84.91" y="-38.31" font-family="Helvetica,sans-Serif" font-size="8.00" fill="#63b8ff">39</text>
</a>
</g>
</g>
<!-- dir_0ad255a918b7fba820a1ddafed6fa637&#45;&gt;dir_821002d4f10779a80d4fb17bc32f21f1 -->
<g id="edge6" class="edge">
<title>dir_0ad255a918b7fba820a1ddafed6fa637&#45;&gt;dir_821002d4f10779a80d4fb17bc32f21f1</title>
<g id="a_edge6"><a xlink:href="dir_000009_000010.html" target="_top">
<path fill="none" stroke="#63b8ff" d="M65,-68.97C65,-62.19 65,-51.97 65,-43.13"/>
<polygon fill="#63b8ff" stroke="#63b8ff" points="68.5,-43.06 65,-33.06 61.5,-43.06 68.5,-43.06"/>
</a>
</g>
<g id="a_edge6&#45;headlabel"><a xlink:href="dir_000009_000010.html" target="_top" xlink:title="11">
<text text-anchor="middle" x="71.34" y="-44.75" font-family="Helvetica,sans-Serif" font-size="8.00" fill="#63b8ff">11</text>
</a>
</g>
</g>
</g>
</svg>
