<?xml version="1.0" encoding="UTF-8" standalone="no"?>
<!DOCTYPE svg PUBLIC "-//W3C//DTD SVG 1.1//EN"
 "http://www.w3.org/Graphics/SVG/1.1/DTD/svg11.dtd">
<!-- Generated by graphviz version 2.43.0 (0)
 -->
<!-- Title: solvers Pages: 1 -->
<svg width="172pt" height="188pt"
 viewBox="0.00 0.00 172.00 188.00" xmlns="http://www.w3.org/2000/svg" xmlns:xlink="http://www.w3.org/1999/xlink">
<g id="graph0" class="graph" transform="scale(1 1) rotate(0) translate(4 184)">
<title>solvers</title>
<g id="clust1" class="cluster">
<title>clusterdir_d44c64559bbebec7f509842c48db8b23</title>
<g id="a_clust1"><a xlink:href="dir_d44c64559bbebec7f509842c48db8b23.html" target="_top" xlink:title="include">
<polygon fill="#edf0f7" stroke="#404040" stroke-dasharray="5,2" points="8,-8 8,-172 156,-172 156,-8 8,-8"/>
<text text-anchor="middle" x="82" y="-161.6" font-family="Helvetica,sans-Serif" font-size="8.00">include</text>
</a>
</g>
</g>
<g id="clust2" class="cluster">
<title>clusterdir_949292de90bec6ca0ef87cb838b26113</title>
<g id="a_clust2"><a xlink:href="dir_949292de90bec6ca0ef87cb838b26113.html" target="_top">
<polygon fill="#edf0f7" stroke="#404040" stroke-width="2" points="22,-61 22,-147 80,-147 80,-61 22,-61"/>
</a>
</g>
</g>
<!-- dir_0ad255a918b7fba820a1ddafed6fa637 -->
<g id="node1" class="node">
<title>dir_0ad255a918b7fba820a1ddafed6fa637</title>
<g id="a_node1"><a xlink:href="dir_0ad255a918b7fba820a1ddafed6fa637.html" target="_top" xlink:title="types">
<polygon fill="#a2b4d6" stroke="red" points="60.5,-33 25.5,-33 25.5,-16 60.5,-16 60.5,-33"/>
<text text-anchor="middle" x="43" y="-22.6" font-family="Helvetica,sans-Serif" font-size="8.00">types</text>
</a>
</g>
</g>
<!-- dir_4d98151ebc14e036e8623fd77932f1bb -->
<g id="node2" class="node">
<title>dir_4d98151ebc14e036e8623fd77932f1bb</title>
<g id="a_node2"><a xlink:href="dir_4d98151ebc14e036e8623fd77932f1bb.html" target="_top" xlink:title="mazes">
<polygon fill="#a2b4d6" stroke="red" points="128,-86 88,-86 88,-69 128,-69 128,-86"/>
<text text-anchor="middle" x="108" y="-75.6" font-family="Helvetica,sans-Serif" font-size="8.00">mazes</text>
</a>
</g>
</g>
<!-- dir_821002d4f10779a80d4fb17bc32f21f1 -->
<g id="node3" class="node">
<title>dir_821002d4f10779a80d4fb17bc32f21f1</title>
<g id="a_node3"><a xlink:href="dir_821002d4f10779a80d4fb17bc32f21f1.html" target="_top" xlink:title="utils">
<polygon fill="#a2b4d6" stroke="#404040" points="128,-33 98,-33 98,-16 128,-16 128,-33"/>
<text text-anchor="middle" x="113" y="-22.6" font-family="Helvetica,sans-Serif" font-size="8.00">utils</text>
</a>
</g>
</g>
<!-- dir_949292de90bec6ca0ef87cb838b26113 -->
<g id="node4" class="node">
<title>dir_949292de90bec6ca0ef87cb838b26113</title>
<text text-anchor="middle" x="51" y="-128.6" font-family="Helvetica,sans-Serif" font-size="8.00">solvers</text>
</g>
<!-- dir_949292de90bec6ca0ef87cb838b26113&#45;&gt;dir_0ad255a918b7fba820a1ddafed6fa637 -->
<g id="edge1" class="edge">
<title>dir_949292de90bec6ca0ef87cb838b26113&#45;&gt;dir_0ad255a918b7fba820a1ddafed6fa637</title>
<g id="a_edge1"><a xlink:href="dir_000008_000009.html" target="_top">
<path fill="none" stroke="#63b8ff" d="M45.3,-121.99C39.39,-113.7 30.53,-99.7 27,-86 24.23,-75.24 24.67,-71.86 27,-61 28.37,-54.64 30.97,-48.04 33.68,-42.29"/>
<polygon fill="#63b8ff" stroke="#63b8ff" points="36.96,-43.56 38.45,-33.07 30.75,-40.35 36.96,-43.56"/>
</a>
</g>
<g id="a_edge1&#45;headlabel"><a xlink:href="dir_000008_000009.html" target="_top" xlink:title="16">
<text text-anchor="middle" x="37.84" y="-46.16" font-family="Helvetica,sans-Serif" font-size="8.00" fill="#63b8ff">16</text>
</a>
</g>
</g>
<!-- dir_949292de90bec6ca0ef87cb838b26113&#45;&gt;dir_4d98151ebc14e036e8623fd77932f1bb -->
<g id="edge2" class="edge">
<title>dir_949292de90bec6ca0ef87cb838b26113&#45;&gt;dir_4d98151ebc14e036e8623fd77932f1bb</title>
<g id="a_edge2"><a xlink:href="dir_000008_000005.html" target="_top">
<path fill="none" stroke="#63b8ff" d="M59.41,-121.97C67.91,-114.37 81.27,-102.41 91.83,-92.97"/>
<polygon fill="#63b8ff" stroke="#63b8ff" points="94.44,-95.33 99.55,-86.06 89.77,-90.12 94.44,-95.33"/>
</a>
</g>
<g id="a_edge2&#45;headlabel"><a xlink:href="dir_000008_000005.html" target="_top" xlink:title="2">
<text text-anchor="middle" x="93.65" y="-97.95" font-family="Helvetica,sans-Serif" font-size="8.00" fill="#63b8ff">2</text>
</a>
</g>
</g>
<!-- dir_949292de90bec6ca0ef87cb838b26113&#45;&gt;dir_821002d4f10779a80d4fb17bc32f21f1 -->
<g id="edge4" class="edge">
<title>dir_949292de90bec6ca0ef87cb838b26113&#45;&gt;dir_821002d4f10779a80d4fb17bc32f21f1</title>
<g id="a_edge4"><a xlink:href="dir_000008_000010.html" target="_top">
<path fill="none" stroke="#63b8ff" d="M71.53,-125.55C92.14,-120.38 122.8,-109.09 137,-86 145.75,-71.77 136.38,-53.79 126.91,-41.14"/>
<polygon fill="#63b8ff" stroke="#63b8ff" points="129.59,-38.89 120.56,-33.35 124.16,-43.31 129.59,-38.89"/>
</a>
</g>
<g id="a_edge4&#45;headlabel"><a xlink:href="dir_000008_000010.html" target="_top" xlink:title="21">
<text text-anchor="middle" x="134.06" y="-37.98" font-family="Helvetica,sans-Serif" font-size="8.00" fill="#63b8ff">21</text>
</a>
</g>
</g>
<!-- dir_6aece8b0ac0cfc4ca2933706f09f70a1 -->
<g id="node5" class="node">
<title>dir_6aece8b0ac0cfc4ca2933706f09f70a1</title>
<g id="a_node5"><a xlink:href="dir_6aece8b0ac0cfc4ca2933706f09f70a1.html" target="_top" xlink:title="base">
<polygon fill="#a2b4d6" stroke="#404040" points="70,-86 36,-86 36,-69 70,-69 70,-86"/>
<text text-anchor="middle" x="53" y="-75.6" font-family="Helvetica,sans-Serif" font-size="8.00">base</text>
</a>
</g>
</g>
<!-- dir_949292de90bec6ca0ef87cb838b26113&#45;&gt;dir_6aece8b0ac0cfc4ca2933706f09f70a1 -->
<g id="edge3" class="edge">
<title>dir_949292de90bec6ca0ef87cb838b26113&#45;&gt;dir_6aece8b0ac0cfc4ca2933706f09f70a1</title>
<g id="a_edge3"><a xlink:href="dir_000008_000000.html" target="_top">
<path fill="none" stroke="#63b8ff" d="M51.3,-121.97C51.56,-115.19 51.96,-104.97 52.31,-96.13"/>
<polygon fill="#63b8ff" stroke="#63b8ff" points="55.81,-96.19 52.7,-86.06 48.81,-95.91 55.81,-96.19"/>
</a>
</g>
<g id="a_edge3&#45;headlabel"><a xlink:href="dir_000008_000000.html" target="_top" xlink:title="33">
<text text-anchor="middle" x="58.51" y="-97.99" font-family="Helvetica,sans-Serif" font-size="8.00" fill="#63b8ff">33</text>
</a>
</g>
</g>
<!-- dir_6aece8b0ac0cfc4ca2933706f09f70a1&#45;&gt;dir_0ad255a918b7fba820a1ddafed6fa637 -->
<g id="edge5" class="edge">
<title>dir_6aece8b0ac0cfc4ca2933706f09f70a1&#45;&gt;dir_0ad255a918b7fba820a1ddafed6fa637</title>
<g id="a_edge5"><a xlink:href="dir_000000_000009.html" target="_top">
<path fill="none" stroke="#63b8ff" d="M51.52,-68.97C50.2,-62.19 48.19,-51.97 46.46,-43.13"/>
<polygon fill="#63b8ff" stroke="#63b8ff" points="49.84,-42.2 44.48,-33.06 42.97,-43.54 49.84,-42.2"/>
</a>
</g>
<g id="a_edge5&#45;headlabel"><a xlink:href="dir_000000_000009.html" target="_top" xlink:title="2">
<text text-anchor="middle" x="53.32" y="-43.28" font-family="Helvetica,sans-Serif" font-size="8.00" fill="#63b8ff">2</text>
</a>
</g>
</g>
<!-- dir_6aece8b0ac0cfc4ca2933706f09f70a1&#45;&gt;dir_821002d4f10779a80d4fb17bc32f21f1 -->
<g id="edge6" class="edge">
<title>dir_6aece8b0ac0cfc4ca2933706f09f70a1&#45;&gt;dir_821002d4f10779a80d4fb17bc32f21f1</title>
<g id="a_edge6"><a xlink:href="dir_000000_000010.html" target="_top">
<path fill="none" stroke="#63b8ff" d="M61.85,-68.97C70.89,-61.29 85.14,-49.18 96.31,-39.69"/>
<polygon fill="#63b8ff" stroke="#63b8ff" points="98.76,-42.2 104.11,-33.06 94.22,-36.87 98.76,-42.2"/>
</a>
</g>
<g id="a_edge6&#45;headlabel"><a xlink:href="dir_000000_000010.html" target="_top" xlink:title="4">
<text text-anchor="middle" x="97.86" y="-44.79" font-family="Helvetica,sans-Serif" font-size="8.00" fill="#63b8ff">4</text>
</a>
</g>
</g>
</g>
</svg>
