<?xml version="1.0" encoding="UTF-8" standalone="no"?>
<!DOCTYPE svg PUBLIC "-//W3C//DTD SVG 1.1//EN"
 "http://www.w3.org/Graphics/SVG/1.1/DTD/svg11.dtd">
<!-- Generated by graphviz version 2.43.0 (0)
 -->
<!-- Title: solvers Pages: 1 -->
<svg width="124pt" height="188pt"
 viewBox="0.00 0.00 124.00 188.00" xmlns="http://www.w3.org/2000/svg" xmlns:xlink="http://www.w3.org/1999/xlink">
<g id="graph0" class="graph" transform="scale(1 1) rotate(0) translate(4 184)">
<title>solvers</title>
<g id="clust1" class="cluster">
<title>clusterdir_d44c64559bbebec7f509842c48db8b23</title>
<g id="a_clust1"><a xlink:href="dir_d44c64559bbebec7f509842c48db8b23.html" target="_top" xlink:title="include">
<polygon fill="#edf0f7" stroke="#404040" stroke-dasharray="5,2" points="8,-8 8,-172 108,-172 108,-8 8,-8"/>
<text text-anchor="middle" x="58" y="-161.6" font-family="Helvetica,sans-Serif" font-size="8.00">include</text>
</a>
</g>
</g>
<g id="clust2" class="cluster">
<title>clusterdir_949292de90bec6ca0ef87cb838b26113</title>
<g id="a_clust2"><a xlink:href="dir_949292de90bec6ca0ef87cb838b26113.html" target="_top">
<polygon fill="#edf0f7" stroke="#404040" stroke-width="2" points="29,-61 29,-147 87,-147 87,-61 29,-61"/>
</a>
</g>
</g>
<!-- dir_0ad255a918b7fba820a1ddafed6fa637 -->
<g id="node1" class="node">
<title>dir_0ad255a918b7fba820a1ddafed6fa637</title>
<g id="a_node1"><a xlink:href="dir_0ad255a918b7fba820a1ddafed6fa637.html" target="_top" xlink:title="types">
<polygon fill="#a2b4d6" stroke="red" points="51.5,-33 16.5,-33 16.5,-16 51.5,-16 51.5,-33"/>
<text text-anchor="middle" x="34" y="-22.6" font-family="Helvetica,sans-Serif" font-size="8.00">types</text>
</a>
</g>
</g>
<!-- dir_821002d4f10779a80d4fb17bc32f21f1 -->
<g id="node2" class="node">
<title>dir_821002d4f10779a80d4fb17bc32f21f1</title>
<g id="a_node2"><a xlink:href="dir_821002d4f10779a80d4fb17bc32f21f1.html" target="_top" xlink:title="utils">
<polygon fill="#a2b4d6" stroke="#404040" points="100,-33 70,-33 70,-16 100,-16 100,-33"/>
<text text-anchor="middle" x="85" y="-22.6" font-family="Helvetica,sans-Serif" font-size="8.00">utils</text>
</a>
</g>
</g>
<!-- dir_949292de90bec6ca0ef87cb838b26113 -->
<g id="node3" class="node">
<title>dir_949292de90bec6ca0ef87cb838b26113</title>
<text text-anchor="middle" x="58" y="-128.6" font-family="Helvetica,sans-Serif" font-size="8.00">solvers</text>
</g>
<!-- dir_949292de90bec6ca0ef87cb838b26113&#45;&gt;dir_0ad255a918b7fba820a1ddafed6fa637 -->
<g id="edge1" class="edge">
<title>dir_949292de90bec6ca0ef87cb838b26113&#45;&gt;dir_0ad255a918b7fba820a1ddafed6fa637</title>
<g id="a_edge1"><a xlink:href="dir_000008_000009.html" target="_top">
<path fill="none" stroke="#63b8ff" d="M51.59,-121.77C45.2,-113.51 35.79,-99.74 32,-86 28.14,-72.03 29.02,-55.55 30.65,-43.32"/>
<polygon fill="#63b8ff" stroke="#63b8ff" points="34.16,-43.55 32.32,-33.12 27.25,-42.43 34.16,-43.55"/>
</a>
</g>
<g id="a_edge1&#45;headlabel"><a xlink:href="dir_000008_000009.html" target="_top" xlink:title="15">
<text text-anchor="middle" x="36.39" y="-45.66" font-family="Helvetica,sans-Serif" font-size="8.00" fill="#63b8ff">15</text>
</a>
</g>
</g>
<!-- dir_949292de90bec6ca0ef87cb838b26113&#45;&gt;dir_821002d4f10779a80d4fb17bc32f21f1 -->
<g id="edge3" class="edge">
<title>dir_949292de90bec6ca0ef87cb838b26113&#45;&gt;dir_821002d4f10779a80d4fb17bc32f21f1</title>
<g id="a_edge3"><a xlink:href="dir_000008_000010.html" target="_top">
<path fill="none" stroke="#63b8ff" d="M64.36,-121.76C70.72,-113.49 80.09,-99.71 84,-86 87.97,-72.07 87.95,-55.59 87.09,-43.35"/>
<polygon fill="#63b8ff" stroke="#63b8ff" points="90.55,-42.75 86.11,-33.13 83.58,-43.42 90.55,-42.75"/>
</a>
</g>
<g id="a_edge3&#45;headlabel"><a xlink:href="dir_000008_000010.html" target="_top" xlink:title="21">
<text text-anchor="middle" x="93.72" y="-44.16" font-family="Helvetica,sans-Serif" font-size="8.00" fill="#63b8ff">21</text>
</a>
</g>
</g>
<!-- dir_6aece8b0ac0cfc4ca2933706f09f70a1 -->
<g id="node4" class="node">
<title>dir_6aece8b0ac0cfc4ca2933706f09f70a1</title>
<g id="a_node4"><a xlink:href="dir_6aece8b0ac0cfc4ca2933706f09f70a1.html" target="_top" xlink:title="base">
<polygon fill="#a2b4d6" stroke="#404040" points="75,-86 41,-86 41,-69 75,-69 75,-86"/>
<text text-anchor="middle" x="58" y="-75.6" font-family="Helvetica,sans-Serif" font-size="8.00">base</text>
</a>
</g>
</g>
<!-- dir_949292de90bec6ca0ef87cb838b26113&#45;&gt;dir_6aece8b0ac0cfc4ca2933706f09f70a1 -->
<g id="edge2" class="edge">
<title>dir_949292de90bec6ca0ef87cb838b26113&#45;&gt;dir_6aece8b0ac0cfc4ca2933706f09f70a1</title>
<g id="a_edge2"><a xlink:href="dir_000008_000000.html" target="_top">
<path fill="none" stroke="#63b8ff" d="M58,-121.97C58,-115.19 58,-104.97 58,-96.13"/>
<polygon fill="#63b8ff" stroke="#63b8ff" points="61.5,-96.06 58,-86.06 54.5,-96.06 61.5,-96.06"/>
</a>
</g>
<g id="a_edge2&#45;headlabel"><a xlink:href="dir_000008_000000.html" target="_top" xlink:title="33">
<text text-anchor="middle" x="64.34" y="-97.75" font-family="Helvetica,sans-Serif" font-size="8.00" fill="#63b8ff">33</text>
</a>
</g>
</g>
<!-- dir_6aece8b0ac0cfc4ca2933706f09f70a1&#45;&gt;dir_0ad255a918b7fba820a1ddafed6fa637 -->
<g id="edge4" class="edge">
<title>dir_6aece8b0ac0cfc4ca2933706f09f70a1&#45;&gt;dir_0ad255a918b7fba820a1ddafed6fa637</title>
<g id="a_edge4"><a xlink:href="dir_000000_000009.html" target="_top">
<path fill="none" stroke="#63b8ff" d="M54.46,-68.97C51.16,-61.97 46.13,-51.28 41.88,-42.25"/>
<polygon fill="#63b8ff" stroke="#63b8ff" points="44.98,-40.61 37.56,-33.06 38.65,-43.59 44.98,-40.61"/>
</a>
</g>
<g id="a_edge4&#45;headlabel"><a xlink:href="dir_000000_000009.html" target="_top" xlink:title="1">
<text text-anchor="middle" x="49.08" y="-40.76" font-family="Helvetica,sans-Serif" font-size="8.00" fill="#63b8ff">1</text>
</a>
</g>
</g>
<!-- dir_6aece8b0ac0cfc4ca2933706f09f70a1&#45;&gt;dir_821002d4f10779a80d4fb17bc32f21f1 -->
<g id="edge5" class="edge">
<title>dir_6aece8b0ac0cfc4ca2933706f09f70a1&#45;&gt;dir_821002d4f10779a80d4fb17bc32f21f1</title>
<g id="a_edge5"><a xlink:href="dir_000000_000010.html" target="_top">
<path fill="none" stroke="#63b8ff" d="M61.98,-68.97C65.73,-61.89 71.47,-51.05 76.28,-41.96"/>
<polygon fill="#63b8ff" stroke="#63b8ff" points="79.41,-43.53 81,-33.06 73.23,-40.26 79.41,-43.53"/>
</a>
</g>
<g id="a_edge5&#45;headlabel"><a xlink:href="dir_000000_000010.html" target="_top" xlink:title="4">
<text text-anchor="middle" x="80.24" y="-46.14" font-family="Helvetica,sans-Serif" font-size="8.00" fill="#63b8ff">4</text>
</a>
</g>
</g>
</g>
</svg>
