<?xml version="1.0" encoding="UTF-8" standalone="no"?>
<!DOCTYPE svg PUBLIC "-//W3C//DTD SVG 1.1//EN"
 "http://www.w3.org/Graphics/SVG/1.1/DTD/svg11.dtd">
<!-- Generated by graphviz version 2.43.0 (0)
 -->
<!-- Title: solvers Pages: 1 -->
<svg width="180pt" height="188pt"
 viewBox="0.00 0.00 180.00 188.00" xmlns="http://www.w3.org/2000/svg" xmlns:xlink="http://www.w3.org/1999/xlink">
<g id="graph0" class="graph" transform="scale(1 1) rotate(0) translate(4 184)">
<title>solvers</title>
<g id="clust1" class="cluster">
<title>clusterdir_d44c64559bbebec7f509842c48db8b23</title>
<g id="a_clust1"><a xlink:href="dir_d44c64559bbebec7f509842c48db8b23.html" target="_top" xlink:title="include">
<polygon fill="#edf0f7" stroke="#404040" stroke-dasharray="5,2" points="8,-8 8,-172 164,-172 164,-8 8,-8"/>
<text text-anchor="middle" x="86" y="-161.6" font-family="Helvetica,sans-Serif" font-size="8.00">include</text>
</a>
</g>
</g>
<g id="clust2" class="cluster">
<title>clusterdir_949292de90bec6ca0ef87cb838b26113</title>
<g id="a_clust2"><a xlink:href="dir_949292de90bec6ca0ef87cb838b26113.html" target="_top">
<polygon fill="#edf0f7" stroke="#404040" stroke-width="2" points="22,-61 22,-147 84,-147 84,-61 22,-61"/>
</a>
</g>
</g>
<!-- dir_0ad255a918b7fba820a1ddafed6fa637 -->
<g id="node1" class="node">
<title>dir_0ad255a918b7fba820a1ddafed6fa637</title>
<g id="a_node1"><a xlink:href="dir_0ad255a918b7fba820a1ddafed6fa637.html" target="_top" xlink:title="types">
<polygon fill="#a2b4d6" stroke="red" points="64.5,-33 25.5,-33 25.5,-16 64.5,-16 64.5,-33"/>
<text text-anchor="middle" x="45" y="-22.6" font-family="Helvetica,sans-Serif" font-size="8.00">types</text>
</a>
</g>
</g>
<!-- dir_4d98151ebc14e036e8623fd77932f1bb -->
<g id="node2" class="node">
<title>dir_4d98151ebc14e036e8623fd77932f1bb</title>
<g id="a_node2"><a xlink:href="dir_4d98151ebc14e036e8623fd77932f1bb.html" target="_top" xlink:title="mazes">
<polygon fill="#a2b4d6" stroke="red" points="136,-86 92,-86 92,-69 136,-69 136,-86"/>
<text text-anchor="middle" x="114" y="-75.6" font-family="Helvetica,sans-Serif" font-size="8.00">mazes</text>
</a>
</g>
</g>
<!-- dir_821002d4f10779a80d4fb17bc32f21f1 -->
<g id="node3" class="node">
<title>dir_821002d4f10779a80d4fb17bc32f21f1</title>
<g id="a_node3"><a xlink:href="dir_821002d4f10779a80d4fb17bc32f21f1.html" target="_top" xlink:title="utils">
<polygon fill="#a2b4d6" stroke="#404040" points="136,-33 102,-33 102,-16 136,-16 136,-33"/>
<text text-anchor="middle" x="119" y="-22.6" font-family="Helvetica,sans-Serif" font-size="8.00">utils</text>
</a>
</g>
</g>
<!-- dir_949292de90bec6ca0ef87cb838b26113 -->
<g id="node4" class="node">
<title>dir_949292de90bec6ca0ef87cb838b26113</title>
<text text-anchor="middle" x="53" y="-128.6" font-family="Helvetica,sans-Serif" font-size="8.00">solvers</text>
</g>
<!-- dir_949292de90bec6ca0ef87cb838b26113&#45;&gt;dir_0ad255a918b7fba820a1ddafed6fa637 -->
<g id="edge1" class="edge">
<title>dir_949292de90bec6ca0ef87cb838b26113&#45;&gt;dir_0ad255a918b7fba820a1ddafed6fa637</title>
<g id="a_edge1"><a xlink:href="dir_000008_000009.html" target="_top">
<path fill="none" stroke="#63b8ff" d="M46.84,-121.73C40.68,-113.43 31.64,-99.63 28,-86 25.13,-75.26 25.54,-71.84 28,-61 29.49,-54.43 32.36,-47.65 35.32,-41.8"/>
<polygon fill="#63b8ff" stroke="#63b8ff" points="38.39,-43.47 40.16,-33.03 32.26,-40.09 38.39,-43.47"/>
</a>
</g>
<g id="a_edge1&#45;headlabel"><a xlink:href="dir_000008_000009.html" target="_top" xlink:title="30">
<text text-anchor="middle" x="39.14" y="-46.09" font-family="Helvetica,sans-Serif" font-size="8.00" fill="#63b8ff">30</text>
</a>
</g>
</g>
<!-- dir_949292de90bec6ca0ef87cb838b26113&#45;&gt;dir_4d98151ebc14e036e8623fd77932f1bb -->
<g id="edge2" class="edge">
<title>dir_949292de90bec6ca0ef87cb838b26113&#45;&gt;dir_4d98151ebc14e036e8623fd77932f1bb</title>
<g id="a_edge2"><a xlink:href="dir_000008_000005.html" target="_top">
<path fill="none" stroke="#63b8ff" d="M62,-121.97C71.19,-114.29 85.68,-102.18 97.03,-92.69"/>
<polygon fill="#63b8ff" stroke="#63b8ff" points="99.54,-95.16 104.96,-86.06 95.05,-89.79 99.54,-95.16"/>
</a>
</g>
<g id="a_edge2&#45;headlabel"><a xlink:href="dir_000008_000005.html" target="_top" xlink:title="2">
<text text-anchor="middle" x="98.6" y="-97.74" font-family="Helvetica,sans-Serif" font-size="8.00" fill="#63b8ff">2</text>
</a>
</g>
</g>
<!-- dir_949292de90bec6ca0ef87cb838b26113&#45;&gt;dir_821002d4f10779a80d4fb17bc32f21f1 -->
<g id="edge4" class="edge">
<title>dir_949292de90bec6ca0ef87cb838b26113&#45;&gt;dir_821002d4f10779a80d4fb17bc32f21f1</title>
<g id="a_edge4"><a xlink:href="dir_000008_000010.html" target="_top">
<path fill="none" stroke="#63b8ff" d="M76.14,-125.72C98.12,-120.77 129.97,-109.73 145,-86 154.05,-71.72 143.97,-53.75 133.84,-41.12"/>
<polygon fill="#63b8ff" stroke="#63b8ff" points="136.26,-38.57 127.05,-33.34 130.99,-43.17 136.26,-38.57"/>
</a>
</g>
<g id="a_edge4&#45;headlabel"><a xlink:href="dir_000008_000010.html" target="_top" xlink:title="48">
<text text-anchor="middle" x="140.76" y="-37.52" font-family="Helvetica,sans-Serif" font-size="8.00" fill="#63b8ff">48</text>
</a>
</g>
</g>
<!-- dir_6aece8b0ac0cfc4ca2933706f09f70a1 -->
<g id="node5" class="node">
<title>dir_6aece8b0ac0cfc4ca2933706f09f70a1</title>
<g id="a_node5"><a xlink:href="dir_6aece8b0ac0cfc4ca2933706f09f70a1.html" target="_top" xlink:title="base">
<polygon fill="#a2b4d6" stroke="#404040" points="73.5,-86 36.5,-86 36.5,-69 73.5,-69 73.5,-86"/>
<text text-anchor="middle" x="55" y="-75.6" font-family="Helvetica,sans-Serif" font-size="8.00">base</text>
</a>
</g>
</g>
<!-- dir_949292de90bec6ca0ef87cb838b26113&#45;&gt;dir_6aece8b0ac0cfc4ca2933706f09f70a1 -->
<g id="edge3" class="edge">
<title>dir_949292de90bec6ca0ef87cb838b26113&#45;&gt;dir_6aece8b0ac0cfc4ca2933706f09f70a1</title>
<g id="a_edge3"><a xlink:href="dir_000008_000000.html" target="_top">
<path fill="none" stroke="#63b8ff" d="M53.3,-121.97C53.56,-115.19 53.96,-104.97 54.31,-96.13"/>
<polygon fill="#63b8ff" stroke="#63b8ff" points="57.81,-96.19 54.7,-86.06 50.81,-95.91 57.81,-96.19"/>
</a>
</g>
<g id="a_edge3&#45;headlabel"><a xlink:href="dir_000008_000000.html" target="_top" xlink:title="39">
<text text-anchor="middle" x="60.51" y="-97.99" font-family="Helvetica,sans-Serif" font-size="8.00" fill="#63b8ff">39</text>
</a>
</g>
</g>
<!-- dir_6aece8b0ac0cfc4ca2933706f09f70a1&#45;&gt;dir_0ad255a918b7fba820a1ddafed6fa637 -->
<g id="edge5" class="edge">
<title>dir_6aece8b0ac0cfc4ca2933706f09f70a1&#45;&gt;dir_0ad255a918b7fba820a1ddafed6fa637</title>
<g id="a_edge5"><a xlink:href="dir_000000_000009.html" target="_top">
<path fill="none" stroke="#63b8ff" d="M53.52,-68.97C52.2,-62.19 50.19,-51.97 48.46,-43.13"/>
<polygon fill="#63b8ff" stroke="#63b8ff" points="51.84,-42.2 46.48,-33.06 44.97,-43.54 51.84,-42.2"/>
</a>
</g>
<g id="a_edge5&#45;headlabel"><a xlink:href="dir_000000_000009.html" target="_top" xlink:title="1">
<text text-anchor="middle" x="55.32" y="-43.28" font-family="Helvetica,sans-Serif" font-size="8.00" fill="#63b8ff">1</text>
</a>
</g>
</g>
<!-- dir_6aece8b0ac0cfc4ca2933706f09f70a1&#45;&gt;dir_821002d4f10779a80d4fb17bc32f21f1 -->
<g id="edge6" class="edge">
<title>dir_6aece8b0ac0cfc4ca2933706f09f70a1&#45;&gt;dir_821002d4f10779a80d4fb17bc32f21f1</title>
<g id="a_edge6"><a xlink:href="dir_000000_000010.html" target="_top">
<path fill="none" stroke="#63b8ff" d="M64.44,-68.97C74.18,-61.22 89.59,-48.94 101.55,-39.41"/>
<polygon fill="#63b8ff" stroke="#63b8ff" points="103.88,-42.03 109.52,-33.06 99.52,-36.55 103.88,-42.03"/>
</a>
</g>
<g id="a_edge6&#45;headlabel"><a xlink:href="dir_000000_000010.html" target="_top" xlink:title="5">
<text text-anchor="middle" x="102.84" y="-44.59" font-family="Helvetica,sans-Serif" font-size="8.00" fill="#63b8ff">5</text>
</a>
</g>
</g>
</g>
</svg>
