<?xml version="1.0" encoding="UTF-8" standalone="no"?>
<!DOCTYPE svg PUBLIC "-//W3C//DTD SVG 1.1//EN"
 "http://www.w3.org/Graphics/SVG/1.1/DTD/svg11.dtd">
<!-- Generated by graphviz version 2.43.0 (0)
 -->
<!-- Title: Graph Legend Pages: 1 -->
<svg width="448pt" height="149pt"
 viewBox="0.00 0.00 447.50 149.00" xmlns="http://www.w3.org/2000/svg" xmlns:xlink="http://www.w3.org/1999/xlink">
<g id="graph0" class="graph" transform="scale(1 1) rotate(0) translate(4 145)">
<title>Graph Legend</title>
<!-- Node9 -->
<g id="Node000009" class="node">
<title>Node9</title>
<g id="a_Node000009"><a xlink:title=" ">
<polygon fill="#999999" stroke="#666666" points="256,-17 208,-17 208,0 256,0 256,-17"/>
<text text-anchor="middle" x="232" y="-6.6" font-family="Helvetica,sans-Serif" font-size="8.00">Inherited</text>
</a>
</g>
</g>
<!-- Node10 -->
<g id="Node000010" class="node">
<title>Node10</title>
<g id="a_Node000010"><a xlink:title=" ">
<polygon fill="white" stroke="#666666" points="56,-79 0,-79 0,-62 56,-62 56,-79"/>
<text text-anchor="middle" x="28" y="-68.6" font-family="Helvetica,sans-Serif" font-size="8.00">PublicBase</text>
</a>
</g>
</g>
<!-- Node10&#45;&gt;Node9 -->
<g id="edge1" class="edge">
<title>Node10&#45;&gt;Node9</title>
<g id="a_edge1"><a xlink:title=" ">
<path fill="none" stroke="#63b8ff" d="M63.52,-59.05C104.93,-46.87 172.24,-27.08 207.96,-16.57"/>
<polygon fill="#63b8ff" stroke="#63b8ff" points="62.44,-55.72 53.84,-61.9 64.42,-62.44 62.44,-55.72"/>
</a>
</g>
</g>
<!-- Node11 -->
<g id="Node000011" class="node">
<title>Node11</title>
<g id="a_Node000011"><a xlink:title=" ">
<polygon fill="#fff0f0" stroke="red" points="54,-141 2,-141 2,-124 54,-124 54,-141"/>
<text text-anchor="middle" x="28" y="-130.6" font-family="Helvetica,sans-Serif" font-size="8.00">Truncated</text>
</a>
</g>
</g>
<!-- Node11&#45;&gt;Node10 -->
<g id="edge2" class="edge">
<title>Node11&#45;&gt;Node10</title>
<g id="a_edge2"><a xlink:title=" ">
<path fill="none" stroke="#63b8ff" d="M28,-113.44C28,-101.98 28,-87.75 28,-79.16"/>
<polygon fill="#63b8ff" stroke="#63b8ff" points="24.5,-113.66 28,-123.66 31.5,-113.66 24.5,-113.66"/>
</a>
</g>
</g>
<!-- Node13 -->
<g id="node4" class="node">
<title>Node13</title>
<g id="a_node4"><a xlink:title=" ">
<polygon fill="white" stroke="#666666" points="143.5,-79 74.5,-79 74.5,-62 143.5,-62 143.5,-79"/>
<text text-anchor="middle" x="109" y="-68.6" font-family="Helvetica,sans-Serif" font-size="8.00">ProtectedBase</text>
</a>
</g>
</g>
<!-- Node13&#45;&gt;Node9 -->
<g id="edge3" class="edge">
<title>Node13&#45;&gt;Node9</title>
<g id="a_edge3"><a xlink:title=" ">
<path fill="none" stroke="darkgreen" d="M133.7,-57.45C158.43,-45.39 195.73,-27.19 216.55,-17.04"/>
<polygon fill="darkgreen" stroke="darkgreen" points="132.03,-54.37 124.58,-61.9 135.1,-60.66 132.03,-54.37"/>
</a>
</g>
</g>
<!-- Node14 -->
<g id="node5" class="node">
<title>Node14</title>
<g id="a_node5"><a xlink:title=" ">
<polygon fill="white" stroke="#666666" points="220.5,-79 161.5,-79 161.5,-62 220.5,-62 220.5,-79"/>
<text text-anchor="middle" x="191" y="-68.6" font-family="Helvetica,sans-Serif" font-size="8.00">PrivateBase</text>
</a>
</g>
</g>
<!-- Node14&#45;&gt;Node9 -->
<g id="edge4" class="edge">
<title>Node14&#45;&gt;Node9</title>
<g id="a_edge4"><a xlink:title=" ">
<path fill="none" stroke="#8b1a1a" d="M202.14,-53.2C210.15,-41.48 220.59,-26.19 226.77,-17.16"/>
<polygon fill="#8b1a1a" stroke="#8b1a1a" points="199.11,-51.42 196.36,-61.66 204.89,-55.37 199.11,-51.42"/>
</a>
</g>
</g>
<!-- Node15 -->
<g id="Node000015" class="node">
<title>Node15</title>
<g id="a_Node000015"><a xlink:title=" ">
<polygon fill="#e0e0e0" stroke="#999999" points="309.5,-79 238.5,-79 238.5,-62 309.5,-62 309.5,-79"/>
<text text-anchor="middle" x="274" y="-68.6" font-family="Helvetica,sans-Serif" font-size="8.00">Undocumented</text>
</a>
</g>
</g>
<!-- Node15&#45;&gt;Node9 -->
<g id="edge5" class="edge">
<title>Node15&#45;&gt;Node9</title>
<g id="a_edge5"><a xlink:title=" ">
<path fill="none" stroke="#63b8ff" d="M262.59,-53.2C254.38,-41.48 243.69,-26.19 237.36,-17.16"/>
<polygon fill="#63b8ff" stroke="#63b8ff" points="259.91,-55.47 268.51,-61.66 265.64,-51.46 259.91,-55.47"/>
</a>
</g>
</g>
<!-- Node16 -->
<g id="node7" class="node">
<title>Node16</title>
<g id="a_node7"><a xlink:title=" ">
<polygon fill="white" stroke="#666666" points="386.5,-79 327.5,-79 327.5,-62 386.5,-62 386.5,-79"/>
<text text-anchor="middle" x="357" y="-68.6" font-family="Helvetica,sans-Serif" font-size="8.00">Templ&lt; int &gt;</text>
</a>
</g>
</g>
<!-- Node16&#45;&gt;Node9 -->
<g id="edge6" class="edge">
<title>Node16&#45;&gt;Node9</title>
<g id="a_edge6"><a xlink:title=" ">
<path fill="none" stroke="#63b8ff" d="M331.9,-57.45C306.77,-45.39 268.86,-27.19 247.7,-17.04"/>
<polygon fill="#63b8ff" stroke="#63b8ff" points="330.64,-60.73 341.17,-61.9 333.67,-54.42 330.64,-60.73"/>
</a>
</g>
</g>
<!-- Node17 -->
<g id="node8" class="node">
<title>Node17</title>
<g id="a_node8"><a xlink:title=" ">
<polygon fill="white" stroke="#666666" points="385,-141 329,-141 329,-124 385,-124 385,-141"/>
<text text-anchor="middle" x="357" y="-130.6" font-family="Helvetica,sans-Serif" font-size="8.00">Templ&lt; T &gt;</text>
</a>
</g>
</g>
<!-- Node17&#45;&gt;Node16 -->
<g id="edge7" class="edge">
<title>Node17&#45;&gt;Node16</title>
<g id="a_edge7"><a xlink:title=" ">
<path fill="none" stroke="orange" stroke-dasharray="5,2" d="M357,-113.44C357,-101.98 357,-87.75 357,-79.16"/>
<polygon fill="orange" stroke="orange" points="353.5,-113.66 357,-123.66 360.5,-113.66 353.5,-113.66"/>
</a>
</g>
<text text-anchor="middle" x="368" y="-99.6" font-family="Helvetica,sans-Serif" font-size="8.00" fill="grey">&lt; int &gt;</text>
</g>
<!-- Node18 -->
<g id="node9" class="node">
<title>Node18</title>
<g id="a_node9"><a xlink:title=" ">
<polygon fill="white" stroke="#666666" points="439.5,-79 404.5,-79 404.5,-62 439.5,-62 439.5,-79"/>
<text text-anchor="middle" x="422" y="-68.6" font-family="Helvetica,sans-Serif" font-size="8.00">Used</text>
</a>
</g>
</g>
<!-- Node18&#45;&gt;Node9 -->
<g id="edge8" class="edge">
<title>Node18&#45;&gt;Node9</title>
<g id="a_edge8"><a xlink:title=" ">
<path fill="none" stroke="#9a32cd" stroke-dasharray="5,2" d="M394.79,-60.91C357.58,-49.16 291.4,-28.26 255.97,-17.07"/>
<polygon fill="#9a32cd" stroke="#9a32cd" points="393.88,-64.29 404.47,-63.96 395.98,-57.61 393.88,-64.29"/>
</a>
</g>
<text text-anchor="middle" x="362.5" y="-37.6" font-family="Helvetica,sans-Serif" font-size="8.00" fill="grey">m_usedClass</text>
</g>
</g>
</svg>
