<?xml version="1.0" encoding="UTF-8" standalone="no"?>
<!DOCTYPE svg PUBLIC "-//W3C//DTD SVG 1.1//EN"
 "http://www.w3.org/Graphics/SVG/1.1/DTD/svg11.dtd">
<!-- Generated by graphviz version 2.43.0 (0)
 -->
<!-- Title: Graph Legend Pages: 1 -->
<svg width="490pt" height="149pt"
 viewBox="0.00 0.00 489.50 149.00" xmlns="http://www.w3.org/2000/svg" xmlns:xlink="http://www.w3.org/1999/xlink">
<g id="graph0" class="graph" transform="scale(1 1) rotate(0) translate(4 145)">
<title>Graph Legend</title>
<!-- Node9 -->
<g id="Node000009" class="node">
<title>Node9</title>
<g id="a_Node000009"><a xlink:title=" ">
<polygon fill="#999999" stroke="#666666" points="278,-17 225,-17 225,0 278,0 278,-17"/>
<text text-anchor="middle" x="251.5" y="-6.6" font-family="Helvetica,sans-Serif" font-size="8.00">Inherited</text>
</a>
</g>
</g>
<!-- Node10 -->
<g id="Node000010" class="node">
<title>Node10</title>
<g id="a_Node000010"><a xlink:title=" ">
<polygon fill="white" stroke="#666666" points="61,-79 0,-79 0,-62 61,-62 61,-79"/>
<text text-anchor="middle" x="30.5" y="-68.6" font-family="Helvetica,sans-Serif" font-size="8.00">PublicBase</text>
</a>
</g>
</g>
<!-- Node10&#45;&gt;Node9 -->
<g id="edge1" class="edge">
<title>Node10&#45;&gt;Node9</title>
<g id="a_edge1"><a xlink:title=" ">
<path fill="none" stroke="#63b8ff" d="M68.35,-59.22C112.9,-47.13 185.72,-27.36 224.77,-16.76"/>
<polygon fill="#63b8ff" stroke="#63b8ff" points="67.22,-55.9 58.49,-61.9 69.06,-62.66 67.22,-55.9"/>
</a>
</g>
</g>
<!-- Node11 -->
<g id="Node000011" class="node">
<title>Node11</title>
<g id="a_Node000011"><a xlink:title=" ">
<polygon fill="#fff0f0" stroke="red" points="59,-141 2,-141 2,-124 59,-124 59,-141"/>
<text text-anchor="middle" x="30.5" y="-130.6" font-family="Helvetica,sans-Serif" font-size="8.00">Truncated</text>
</a>
</g>
</g>
<!-- Node11&#45;&gt;Node10 -->
<g id="edge2" class="edge">
<title>Node11&#45;&gt;Node10</title>
<g id="a_edge2"><a xlink:title=" ">
<path fill="none" stroke="#63b8ff" d="M30.5,-113.44C30.5,-101.98 30.5,-87.75 30.5,-79.16"/>
<polygon fill="#63b8ff" stroke="#63b8ff" points="27,-113.66 30.5,-123.66 34,-113.66 27,-113.66"/>
</a>
</g>
</g>
<!-- Node13 -->
<g id="node4" class="node">
<title>Node13</title>
<g id="a_node4"><a xlink:title=" ">
<polygon fill="white" stroke="#666666" points="155.5,-79 79.5,-79 79.5,-62 155.5,-62 155.5,-79"/>
<text text-anchor="middle" x="117.5" y="-68.6" font-family="Helvetica,sans-Serif" font-size="8.00">ProtectedBase</text>
</a>
</g>
</g>
<!-- Node13&#45;&gt;Node9 -->
<g id="edge3" class="edge">
<title>Node13&#45;&gt;Node9</title>
<g id="a_edge3"><a xlink:title=" ">
<path fill="none" stroke="darkgreen" d="M143.69,-57.77C170.63,-45.71 211.78,-27.28 234.67,-17.04"/>
<polygon fill="darkgreen" stroke="darkgreen" points="142.17,-54.62 134.47,-61.9 145.03,-61.01 142.17,-54.62"/>
</a>
</g>
</g>
<!-- Node14 -->
<g id="node5" class="node">
<title>Node14</title>
<g id="a_node5"><a xlink:title=" ">
<polygon fill="white" stroke="#666666" points="239,-79 174,-79 174,-62 239,-62 239,-79"/>
<text text-anchor="middle" x="206.5" y="-68.6" font-family="Helvetica,sans-Serif" font-size="8.00">PrivateBase</text>
</a>
</g>
</g>
<!-- Node14&#45;&gt;Node9 -->
<g id="edge4" class="edge">
<title>Node14&#45;&gt;Node9</title>
<g id="a_edge4"><a xlink:title=" ">
<path fill="none" stroke="#8b1a1a" d="M218.46,-53.55C227.29,-41.78 238.91,-26.28 245.76,-17.16"/>
<polygon fill="#8b1a1a" stroke="#8b1a1a" points="215.58,-51.56 212.38,-61.66 221.18,-55.76 215.58,-51.56"/>
</a>
</g>
</g>
<!-- Node15 -->
<g id="Node000015" class="node">
<title>Node15</title>
<g id="a_Node000015"><a xlink:title=" ">
<polygon fill="#e0e0e0" stroke="#999999" points="337.5,-79 257.5,-79 257.5,-62 337.5,-62 337.5,-79"/>
<text text-anchor="middle" x="297.5" y="-68.6" font-family="Helvetica,sans-Serif" font-size="8.00">Undocumented</text>
</a>
</g>
</g>
<!-- Node15&#45;&gt;Node9 -->
<g id="edge5" class="edge">
<title>Node15&#45;&gt;Node9</title>
<g id="a_edge5"><a xlink:title=" ">
<path fill="none" stroke="#63b8ff" d="M285.27,-53.55C276.25,-41.78 264.37,-26.28 257.37,-17.16"/>
<polygon fill="#63b8ff" stroke="#63b8ff" points="282.62,-55.85 291.49,-61.66 288.18,-51.59 282.62,-55.85"/>
</a>
</g>
</g>
<!-- Node16 -->
<g id="node7" class="node">
<title>Node16</title>
<g id="a_node7"><a xlink:title=" ">
<polygon fill="white" stroke="#666666" points="425,-79 356,-79 356,-62 425,-62 425,-79"/>
<text text-anchor="middle" x="390.5" y="-68.6" font-family="Helvetica,sans-Serif" font-size="8.00">Templ&lt; int &gt;</text>
</a>
</g>
</g>
<!-- Node16&#45;&gt;Node9 -->
<g id="edge6" class="edge">
<title>Node16&#45;&gt;Node9</title>
<g id="a_edge6"><a xlink:title=" ">
<path fill="none" stroke="#63b8ff" d="M363.7,-57.93C335.76,-45.87 292.8,-27.33 268.96,-17.04"/>
<polygon fill="#63b8ff" stroke="#63b8ff" points="362.33,-61.15 372.9,-61.9 365.1,-54.72 362.33,-61.15"/>
</a>
</g>
</g>
<!-- Node17 -->
<g id="node8" class="node">
<title>Node17</title>
<g id="a_node8"><a xlink:title=" ">
<polygon fill="white" stroke="#666666" points="422.5,-141 358.5,-141 358.5,-124 422.5,-124 422.5,-141"/>
<text text-anchor="middle" x="390.5" y="-130.6" font-family="Helvetica,sans-Serif" font-size="8.00">Templ&lt; T &gt;</text>
</a>
</g>
</g>
<!-- Node17&#45;&gt;Node16 -->
<g id="edge7" class="edge">
<title>Node17&#45;&gt;Node16</title>
<g id="a_edge7"><a xlink:title=" ">
<path fill="none" stroke="orange" stroke-dasharray="5,2" d="M390.5,-113.44C390.5,-101.98 390.5,-87.75 390.5,-79.16"/>
<polygon fill="orange" stroke="orange" points="387,-113.66 390.5,-123.66 394,-113.66 387,-113.66"/>
</a>
</g>
<text text-anchor="middle" x="405" y="-99.6" font-family="Helvetica,sans-Serif" font-size="8.00" fill="grey">&lt; int &gt;</text>
</g>
<!-- Node18 -->
<g id="node9" class="node">
<title>Node18</title>
<g id="a_node9"><a xlink:title=" ">
<polygon fill="white" stroke="#666666" points="481.5,-79 443.5,-79 443.5,-62 481.5,-62 481.5,-79"/>
<text text-anchor="middle" x="462.5" y="-68.6" font-family="Helvetica,sans-Serif" font-size="8.00">Used</text>
</a>
</g>
</g>
<!-- Node18&#45;&gt;Node9 -->
<g id="edge8" class="edge">
<title>Node18&#45;&gt;Node9</title>
<g id="a_edge8"><a xlink:title=" ">
<path fill="none" stroke="#9a32cd" stroke-dasharray="5,2" d="M433.72,-61.32C392.61,-49.62 317.64,-28.31 277.89,-17"/>
<polygon fill="#9a32cd" stroke="#9a32cd" points="432.83,-64.7 443.4,-64.07 434.74,-57.97 432.83,-64.7"/>
</a>
</g>
<text text-anchor="middle" x="396.5" y="-37.6" font-family="Helvetica,sans-Serif" font-size="8.00" fill="grey">m_usedClass</text>
</g>
</g>
</svg>
