<?xml version="1.0" encoding="UTF-8" standalone="no"?>
<!DOCTYPE svg PUBLIC "-//W3C//DTD SVG 1.1//EN"
 "http://www.w3.org/Graphics/SVG/1.1/DTD/svg11.dtd">
<!-- Generated by graphviz version 2.43.0 (0)
 -->
<!-- Title: Graphical Class Hierarchy Pages: 1 -->
<svg width="265pt" height="95pt"
 viewBox="0.00 0.00 265.00 95.00" xmlns="http://www.w3.org/2000/svg" xmlns:xlink="http://www.w3.org/1999/xlink">
<g id="graph0" class="graph" transform="scale(1 1) rotate(0) translate(4 91)">
<title>Graphical Class Hierarchy</title>
<!-- Node0 -->
<g id="Node000000" class="node">
<title>Node0</title>
<g id="a_Node000000"><a xlink:href="da/d98/structchdr_1_1solvers_1_1bnode.html" target="_top" xlink:title="Base class for pathfinding nodes.">
<polygon fill="white" stroke="#666666" points="78,-52 0,-52 0,-35 78,-35 78,-52"/>
<text text-anchor="middle" x="39" y="-41.6" font-family="Helvetica,sans-Serif" font-size="8.00">bnode&lt; index_t &gt;</text>
</a>
</g>
</g>
<!-- Node1 -->
<g id="Node000001" class="node">
<title>Node1</title>
<g id="a_Node000001"><a xlink:href="df/d64/structchdr_1_1solvers_1_1managed__node.html" target="_top" xlink:title=" ">
<polygon fill="white" stroke="#666666" points="252.5,-87 118.5,-87 118.5,-70 252.5,-70 252.5,-87"/>
<text text-anchor="middle" x="185.5" y="-76.6" font-family="Helvetica,sans-Serif" font-size="8.00">managed_node&lt; index_t, node &gt;</text>
</a>
</g>
</g>
<!-- Node0&#45;&gt;Node1 -->
<g id="edge1_Node000000_Node000001" class="edge">
<title>Node0&#45;&gt;Node1</title>
<g id="a_edge1_Node000000_Node000001"><a xlink:title=" ">
<path fill="none" stroke="#63b8ff" d="M84.81,-54.42C94.44,-56.76 104.56,-59.21 114,-61.5 125.38,-64.26 137.8,-67.25 148.99,-69.95"/>
<polygon fill="#63b8ff" stroke="#63b8ff" points="85.55,-50.99 75,-52.03 83.89,-57.79 85.55,-50.99"/>
</a>
</g>
</g>
<!-- Node2 -->
<g id="Node000002" class="node">
<title>Node2</title>
<g id="a_Node000002"><a xlink:href="df/d64/structchdr_1_1solvers_1_1managed__node.html" target="_top" xlink:title="A hierarchical node in a pathfinding context, with a clean&#45;up mechanism.">
<polygon fill="white" stroke="#666666" points="257,-52 114,-52 114,-35 257,-35 257,-52"/>
<text text-anchor="middle" x="185.5" y="-41.6" font-family="Helvetica,sans-Serif" font-size="8.00">managed_node&lt; index_t, derived &gt;</text>
</a>
</g>
</g>
<!-- Node0&#45;&gt;Node2 -->
<g id="edge2_Node000000_Node000002" class="edge">
<title>Node0&#45;&gt;Node2</title>
<g id="a_edge2_Node000000_Node000002"><a xlink:title=" ">
<path fill="none" stroke="#63b8ff" d="M88.42,-43.5C96.59,-43.5 105.23,-43.5 113.83,-43.5"/>
<polygon fill="#63b8ff" stroke="#63b8ff" points="88.34,-40 78.34,-43.5 88.34,-47 88.34,-40"/>
</a>
</g>
</g>
<!-- Node3 -->
<g id="Node000003" class="node">
<title>Node3</title>
<g id="a_Node000003"><a xlink:href="d6/d3c/structchdr_1_1solvers_1_1unmanaged__node.html" target="_top" xlink:title="A hierarchical node in a pathfinding context, requires manual memory management.">
<polygon fill="white" stroke="#666666" points="246,-17 125,-17 125,0 246,0 246,-17"/>
<text text-anchor="middle" x="185.5" y="-6.6" font-family="Helvetica,sans-Serif" font-size="8.00">unmanaged_node&lt; index_t &gt;</text>
</a>
</g>
</g>
<!-- Node0&#45;&gt;Node3 -->
<g id="edge3_Node000000_Node000003" class="edge">
<title>Node0&#45;&gt;Node3</title>
<g id="a_edge3_Node000000_Node000003"><a xlink:title=" ">
<path fill="none" stroke="#63b8ff" d="M85.18,-32.56C105.85,-27.55 129.97,-21.71 149.27,-17.03"/>
<polygon fill="#63b8ff" stroke="#63b8ff" points="84.24,-29.18 75.35,-34.94 85.89,-35.99 84.24,-29.18"/>
</a>
</g>
</g>
</g>
</svg>
