<?xml version="1.0" encoding="UTF-8" standalone="no"?>
<!DOCTYPE svg PUBLIC "-//W3C//DTD SVG 1.1//EN"
 "http://www.w3.org/Graphics/SVG/1.1/DTD/svg11.dtd">
<!-- Generated by graphviz version 2.43.0 (0)
 -->
<!-- Title: Graphical Class Hierarchy Pages: 1 -->
<svg width="295pt" height="130pt"
 viewBox="0.00 0.00 295.00 130.00" xmlns="http://www.w3.org/2000/svg" xmlns:xlink="http://www.w3.org/1999/xlink">
<g id="graph0" class="graph" transform="scale(1 1) rotate(0) translate(4 126)">
<title>Graphical Class Hierarchy</title>
<!-- Node0 -->
<g id="Node000000" class="node">
<title>Node0</title>
<g id="a_Node000000"><a xlink:href="da/d98/structchdr_1_1solvers_1_1bnode.html" target="_top" xlink:title="Base class for pathfinding nodes.">
<polygon fill="white" stroke="#666666" points="89,-69 0,-69 0,-52 89,-52 89,-69"/>
<text text-anchor="middle" x="44.5" y="-58.6" font-family="Helvetica,sans-Serif" font-size="8.00">bnode&lt; index_t &gt;</text>
</a>
</g>
</g>
<!-- Node1 -->
<g id="Node000001" class="node">
<title>Node1</title>
<g id="a_Node000001"><a xlink:href="df/d64/structchdr_1_1solvers_1_1managed__node.html" target="_top" xlink:title=" ">
<polygon fill="white" stroke="#666666" points="282,-122 130,-122 130,-105 282,-105 282,-122"/>
<text text-anchor="middle" x="206" y="-111.6" font-family="Helvetica,sans-Serif" font-size="8.00">managed_node&lt; index_t, node &gt;</text>
</a>
</g>
</g>
<!-- Node0&#45;&gt;Node1 -->
<g id="edge1_Node000000_Node000001" class="edge">
<title>Node0&#45;&gt;Node1</title>
<g id="a_edge1_Node000000_Node000001"><a xlink:title=" ">
<path fill="none" stroke="#63b8ff" d="M70.86,-73.68C86.2,-81.22 106.34,-90.37 125,-96.5 134.98,-99.78 145.88,-102.58 156.33,-104.91"/>
<polygon fill="#63b8ff" stroke="#63b8ff" points="72.04,-70.36 61.53,-69 68.9,-76.62 72.04,-70.36"/>
</a>
</g>
</g>
<!-- Node2 -->
<g id="Node000002" class="node">
<title>Node2</title>
<g id="a_Node000002"><a xlink:href="df/d64/structchdr_1_1solvers_1_1managed__node.html" target="_top" xlink:title="A hierarchical node in a pathfinding context, with a clean&#45;up mechanism.">
<polygon fill="white" stroke="#666666" points="287,-87 125,-87 125,-70 287,-70 287,-87"/>
<text text-anchor="middle" x="206" y="-76.6" font-family="Helvetica,sans-Serif" font-size="8.00">managed_node&lt; index_t, derived &gt;</text>
</a>
</g>
</g>
<!-- Node0&#45;&gt;Node2 -->
<g id="edge2_Node000000_Node000002" class="edge">
<title>Node0&#45;&gt;Node2</title>
<g id="a_edge2_Node000000_Node000002"><a xlink:title=" ">
<path fill="none" stroke="#63b8ff" d="M99.06,-66.54C108.87,-67.65 119.27,-68.82 129.57,-69.99"/>
<polygon fill="#63b8ff" stroke="#63b8ff" points="99.41,-63.06 89.08,-65.42 98.63,-70.02 99.41,-63.06"/>
</a>
</g>
</g>
<!-- Node3 -->
<g id="Node000003" class="node">
<title>Node3</title>
<g id="a_Node000003"><a xlink:href="da/d36/structchdr_1_1solvers_1_1mutable__node.html" target="_top" xlink:title="A hierarchical node in a pathfinding context, requires manual memory management.">
<polygon fill="white" stroke="#666666" points="267,-52 145,-52 145,-35 267,-35 267,-52"/>
<text text-anchor="middle" x="206" y="-41.6" font-family="Helvetica,sans-Serif" font-size="8.00">mutable_node&lt; index_t &gt;</text>
</a>
</g>
</g>
<!-- Node0&#45;&gt;Node3 -->
<g id="edge3_Node000000_Node000003" class="edge">
<title>Node0&#45;&gt;Node3</title>
<g id="a_edge3_Node000000_Node000003"><a xlink:title=" ">
<path fill="none" stroke="#63b8ff" d="M99.43,-54.75C113.99,-53.2 129.84,-51.51 144.73,-49.92"/>
<polygon fill="#63b8ff" stroke="#63b8ff" points="98.66,-51.31 89.08,-55.85 99.4,-58.28 98.66,-51.31"/>
</a>
</g>
</g>
<!-- Node4 -->
<g id="Node000004" class="node">
<title>Node4</title>
<g id="a_Node000004"><a xlink:href="d6/d3c/structchdr_1_1solvers_1_1unmanaged__node.html" target="_top" xlink:title="A hierarchical node in a pathfinding context, requires manual memory management.">
<polygon fill="white" stroke="#666666" points="274.5,-17 137.5,-17 137.5,0 274.5,0 274.5,-17"/>
<text text-anchor="middle" x="206" y="-6.6" font-family="Helvetica,sans-Serif" font-size="8.00">unmanaged_node&lt; index_t &gt;</text>
</a>
</g>
</g>
<!-- Node0&#45;&gt;Node4 -->
<g id="edge4_Node000000_Node000004" class="edge">
<title>Node0&#45;&gt;Node4</title>
<g id="a_edge4_Node000000_Node000004"><a xlink:title=" ">
<path fill="none" stroke="#63b8ff" d="M72.14,-47.66C87.36,-40.69 106.96,-32.33 125,-26.5 136.24,-22.86 148.6,-19.69 160.18,-17.07"/>
<polygon fill="#63b8ff" stroke="#63b8ff" points="70.42,-44.6 62.83,-52 73.37,-50.94 70.42,-44.6"/>
</a>
</g>
</g>
</g>
</svg>
