<?xml version="1.0" encoding="UTF-8" standalone="no"?>
<!DOCTYPE svg PUBLIC "-//W3C//DTD SVG 1.1//EN"
 "http://www.w3.org/Graphics/SVG/1.1/DTD/svg11.dtd">
<!-- Generated by graphviz version 2.43.0 (0)
 -->
<!-- Title: bnode.hpp Pages: 1 -->
<svg width="1360pt" height="184pt"
 viewBox="0.00 0.00 1359.53 184.00" xmlns="http://www.w3.org/2000/svg" xmlns:xlink="http://www.w3.org/1999/xlink">
<g id="graph0" class="graph" transform="scale(1 1) rotate(0) translate(4 180)">
<title>bnode.hpp</title>
<!-- Node1 -->
<g id="Node000001" class="node">
<title>Node1</title>
<g id="a_Node000001"><a xlink:title=" ">
<polygon fill="#999999" stroke="#666666" points="386.53,-176 325.53,-176 325.53,-159 386.53,-159 386.53,-176"/>
<text text-anchor="middle" x="356.03" y="-165.6" font-family="Helvetica,sans-Serif" font-size="8.00">bnode.hpp</text>
</a>
</g>
</g>
<!-- Node2 -->
<g id="Node000002" class="node">
<title>Node2</title>
<g id="a_Node000002"><a xlink:href="../../d9/d96/chdr_8hpp.html" target="_top" xlink:title=" ">
<polygon fill="white" stroke="#666666" points="643.03,-17 591.03,-17 591.03,0 643.03,0 643.03,-17"/>
<text text-anchor="middle" x="617.03" y="-6.6" font-family="Helvetica,sans-Serif" font-size="8.00">chdr.hpp</text>
</a>
</g>
</g>
<!-- Node1&#45;&gt;Node2 -->
<g id="edge1_Node000001_Node000002" class="edge">
<title>Node1&#45;&gt;Node2</title>
<g id="a_edge1_Node000001_Node000002"><a xlink:title=" ">
<path fill="none" stroke="#63b8ff" d="M315.2,-166.35C214.75,-165.21 -33.59,-157.23 4.03,-106 74.74,-9.72 482.9,-7.83 590.85,-9.05"/>
<polygon fill="#63b8ff" stroke="#63b8ff" points="315.26,-169.85 325.29,-166.45 315.33,-162.85 315.26,-169.85"/>
</a>
</g>
</g>
<!-- Node3 -->
<g id="Node000003" class="node">
<title>Node3</title>
<g id="a_Node000003"><a xlink:href="../../d6/ded/eidastar_8hpp.html" target="_top" xlink:title=" ">
<polygon fill="white" stroke="#666666" points="81.03,-123 13.03,-123 13.03,-106 81.03,-106 81.03,-123"/>
<text text-anchor="middle" x="47.03" y="-112.6" font-family="Helvetica,sans-Serif" font-size="8.00">eidastar.hpp</text>
</a>
</g>
</g>
<!-- Node1&#45;&gt;Node3 -->
<g id="edge2_Node000001_Node000003" class="edge">
<title>Node1&#45;&gt;Node3</title>
<g id="a_edge2_Node000001_Node000003"><a xlink:title=" ">
<path fill="none" stroke="#63b8ff" d="M315.1,-159.94C262.85,-151.54 169.67,-136.46 90.03,-123 87.19,-122.52 84.25,-122.02 81.29,-121.51"/>
<polygon fill="#63b8ff" stroke="#63b8ff" points="314.87,-163.45 325.29,-161.58 315.98,-156.54 314.87,-163.45"/>
</a>
</g>
</g>
<!-- Node4 -->
<g id="Node000004" class="node">
<title>Node4</title>
<g id="a_Node000004"><a xlink:href="../../d8/d85/eidbest__first_8hpp.html" target="_top" xlink:title=" ">
<polygon fill="white" stroke="#666666" points="184.53,-123 99.53,-123 99.53,-106 184.53,-106 184.53,-123"/>
<text text-anchor="middle" x="142.03" y="-112.6" font-family="Helvetica,sans-Serif" font-size="8.00">eidbest_first.hpp</text>
</a>
</g>
</g>
<!-- Node1&#45;&gt;Node4 -->
<g id="edge4_Node000001_Node000004" class="edge">
<title>Node1&#45;&gt;Node4</title>
<g id="a_edge4_Node000001_Node000004"><a xlink:title=" ">
<path fill="none" stroke="#63b8ff" d="M315.39,-156.82C274.2,-147 211.31,-132.01 173.68,-123.04"/>
<polygon fill="#63b8ff" stroke="#63b8ff" points="314.83,-160.28 325.37,-159.19 316.45,-153.47 314.83,-160.28"/>
</a>
</g>
</g>
<!-- Node5 -->
<g id="Node000005" class="node">
<title>Node5</title>
<g id="a_Node000005"><a xlink:href="../../dd/d95/eiddfs_8hpp.html" target="_top" xlink:title=" ">
<polygon fill="white" stroke="#666666" points="263.03,-123 203.03,-123 203.03,-106 263.03,-106 263.03,-123"/>
<text text-anchor="middle" x="233.03" y="-112.6" font-family="Helvetica,sans-Serif" font-size="8.00">eiddfs.hpp</text>
</a>
</g>
</g>
<!-- Node1&#45;&gt;Node5 -->
<g id="edge6_Node000001_Node000005" class="edge">
<title>Node1&#45;&gt;Node5</title>
<g id="a_edge6_Node000001_Node000005"><a xlink:title=" ">
<path fill="none" stroke="#63b8ff" d="M328.44,-155.06C304.87,-145.29 271.64,-131.51 251.26,-123.06"/>
<polygon fill="#63b8ff" stroke="#63b8ff" points="327.3,-158.38 337.88,-158.97 329.99,-151.91 327.3,-158.38"/>
</a>
</g>
</g>
<!-- Node6 -->
<g id="Node000006" class="node">
<title>Node6</title>
<g id="a_Node000006"><a xlink:href="../../db/df9/idastar_8hpp.html" target="_top" xlink:title=" ">
<polygon fill="white" stroke="#666666" points="343.03,-123 281.03,-123 281.03,-106 343.03,-106 343.03,-123"/>
<text text-anchor="middle" x="312.03" y="-112.6" font-family="Helvetica,sans-Serif" font-size="8.00">idastar.hpp</text>
</a>
</g>
</g>
<!-- Node1&#45;&gt;Node6 -->
<g id="edge8_Node000001_Node000006" class="edge">
<title>Node1&#45;&gt;Node6</title>
<g id="a_edge8_Node000001_Node000006"><a xlink:title=" ">
<path fill="none" stroke="#63b8ff" d="M342.85,-151.22C334.83,-141.92 324.93,-130.45 318.55,-123.06"/>
<polygon fill="#63b8ff" stroke="#63b8ff" points="340.36,-153.69 349.54,-158.97 345.66,-149.12 340.36,-153.69"/>
</a>
</g>
</g>
<!-- Node7 -->
<g id="Node000007" class="node">
<title>Node7</title>
<g id="a_Node000007"><a xlink:href="../../d1/d3a/idbest__first_8hpp.html" target="_top" xlink:title=" ">
<polygon fill="white" stroke="#666666" points="441.03,-123 361.03,-123 361.03,-106 441.03,-106 441.03,-123"/>
<text text-anchor="middle" x="401.03" y="-112.6" font-family="Helvetica,sans-Serif" font-size="8.00">idbest_first.hpp</text>
</a>
</g>
</g>
<!-- Node1&#45;&gt;Node7 -->
<g id="edge10_Node000001_Node000007" class="edge">
<title>Node1&#45;&gt;Node7</title>
<g id="a_edge10_Node000001_Node000007"><a xlink:title=" ">
<path fill="none" stroke="#63b8ff" d="M369.51,-151.22C377.72,-141.92 387.84,-130.45 394.36,-123.06"/>
<polygon fill="#63b8ff" stroke="#63b8ff" points="366.66,-149.16 362.67,-158.97 371.91,-153.79 366.66,-149.16"/>
</a>
</g>
</g>
<!-- Node8 -->
<g id="Node000008" class="node">
<title>Node8</title>
<g id="a_Node000008"><a xlink:href="../../df/d71/iddfs_8hpp.html" target="_top" xlink:title=" ">
<polygon fill="white" stroke="#666666" points="514.53,-123 459.53,-123 459.53,-106 514.53,-106 514.53,-123"/>
<text text-anchor="middle" x="487.03" y="-112.6" font-family="Helvetica,sans-Serif" font-size="8.00">iddfs.hpp</text>
</a>
</g>
</g>
<!-- Node1&#45;&gt;Node8 -->
<g id="edge12_Node000001_Node000008" class="edge">
<title>Node1&#45;&gt;Node8</title>
<g id="a_edge12_Node000001_Node000008"><a xlink:title=" ">
<path fill="none" stroke="#63b8ff" d="M384.75,-155.32C409.89,-145.53 445.72,-131.58 467.62,-123.06"/>
<polygon fill="#63b8ff" stroke="#63b8ff" points="383.41,-152.09 375.36,-158.97 385.95,-158.61 383.41,-152.09"/>
</a>
</g>
</g>
<!-- Node9 -->
<g id="Node000009" class="node">
<title>Node9</title>
<g id="a_Node000009"><a xlink:href="../../da/deb/managed__node_8hpp.html" target="_top" xlink:title=" ">
<polygon fill="white" stroke="#666666" points="631.03,-123 533.03,-123 533.03,-106 631.03,-106 631.03,-123"/>
<text text-anchor="middle" x="582.03" y="-112.6" font-family="Helvetica,sans-Serif" font-size="8.00">managed_node.hpp</text>
</a>
</g>
</g>
<!-- Node1&#45;&gt;Node9 -->
<g id="edge14_Node000001_Node000009" class="edge">
<title>Node1&#45;&gt;Node9</title>
<g id="a_edge14_Node000001_Node000009"><a xlink:title=" ">
<path fill="none" stroke="#63b8ff" d="M396.93,-157.27C440.34,-147.47 508.14,-132.17 548.52,-123.06"/>
<polygon fill="#63b8ff" stroke="#63b8ff" points="395.97,-153.9 386.98,-159.52 397.51,-160.73 395.97,-153.9"/>
</a>
</g>
</g>
<!-- Node15 -->
<g id="Node000015" class="node">
<title>Node15</title>
<g id="a_Node000015"><a xlink:href="../../d5/d14/mutable__node_8hpp.html" target="_top" xlink:title=" ">
<polygon fill="white" stroke="#666666" points="827.53,-123 734.53,-123 734.53,-106 827.53,-106 827.53,-123"/>
<text text-anchor="middle" x="781.03" y="-112.6" font-family="Helvetica,sans-Serif" font-size="8.00">mutable_node.hpp</text>
</a>
</g>
</g>
<!-- Node1&#45;&gt;Node15 -->
<g id="edge26_Node000001_Node000015" class="edge">
<title>Node1&#45;&gt;Node15</title>
<g id="a_edge26_Node000001_Node000015"><a xlink:title=" ">
<path fill="none" stroke="#63b8ff" d="M396.68,-161.62C475.94,-152.11 650.7,-131.14 734.47,-121.09"/>
<polygon fill="#63b8ff" stroke="#63b8ff" points="396.11,-158.17 386.6,-162.83 396.94,-165.12 396.11,-158.17"/>
</a>
</g>
</g>
<!-- Node17 -->
<g id="Node000017" class="node">
<title>Node17</title>
<g id="a_Node000017"><a xlink:href="../../d0/def/unmanaged__node_8hpp.html" target="_top" xlink:title=" ">
<polygon fill="white" stroke="#666666" points="1136.53,-123 1027.53,-123 1027.53,-106 1136.53,-106 1136.53,-123"/>
<text text-anchor="middle" x="1082.03" y="-112.6" font-family="Helvetica,sans-Serif" font-size="8.00">unmanaged_node.hpp</text>
</a>
</g>
</g>
<!-- Node1&#45;&gt;Node17 -->
<g id="edge30_Node000001_Node000017" class="edge">
<title>Node1&#45;&gt;Node17</title>
<g id="a_edge30_Node000001_Node000017"><a xlink:title=" ">
<path fill="none" stroke="#63b8ff" d="M396.9,-163.63C520.06,-154.98 887.72,-129.15 1027.39,-119.34"/>
<polygon fill="#63b8ff" stroke="#63b8ff" points="396.49,-160.15 386.76,-164.34 396.98,-167.13 396.49,-160.15"/>
</a>
</g>
</g>
<!-- Node3&#45;&gt;Node2 -->
<g id="edge3_Node000003_Node000002" class="edge">
<title>Node3&#45;&gt;Node2</title>
<g id="a_edge3_Node000003_Node000002"><a xlink:title=" ">
<path fill="none" stroke="#63b8ff" d="M76.61,-102.37C114.26,-88.64 181.56,-65.6 241.03,-53 370.57,-25.56 529.13,-14.37 590.78,-10.84"/>
<polygon fill="#63b8ff" stroke="#63b8ff" points="74.99,-99.24 66.81,-105.97 77.41,-105.81 74.99,-99.24"/>
</a>
</g>
</g>
<!-- Node4&#45;&gt;Node2 -->
<g id="edge5_Node000004_Node000002" class="edge">
<title>Node4&#45;&gt;Node2</title>
<g id="a_edge5_Node000004_Node000002"><a xlink:title=" ">
<path fill="none" stroke="#63b8ff" d="M167.25,-101.51C197.42,-87.67 249.8,-65.24 297.03,-53 403.95,-25.29 535.81,-14.47 590.91,-10.95"/>
<polygon fill="#63b8ff" stroke="#63b8ff" points="165.5,-98.46 157.9,-105.85 168.45,-104.81 165.5,-98.46"/>
</a>
</g>
</g>
<!-- Node5&#45;&gt;Node2 -->
<g id="edge7_Node000005_Node000002" class="edge">
<title>Node5&#45;&gt;Node2</title>
<g id="a_edge7_Node000005_Node000002"><a xlink:title=" ">
<path fill="none" stroke="#63b8ff" d="M251.27,-99.88C271.07,-85.81 304.16,-64.36 336.03,-53 425.78,-21.02 539.92,-12.53 590.66,-10.3"/>
<polygon fill="#63b8ff" stroke="#63b8ff" points="248.96,-97.24 242.92,-105.94 253.07,-102.9 248.96,-97.24"/>
</a>
</g>
</g>
<!-- Node6&#45;&gt;Node2 -->
<g id="edge9_Node000006_Node000002" class="edge">
<title>Node6&#45;&gt;Node2</title>
<g id="a_edge9_Node000006_Node000002"><a xlink:title=" ">
<path fill="none" stroke="#63b8ff" d="M320.25,-96.59C327.99,-82.57 340.95,-63.32 358.03,-53 397.06,-29.42 533.19,-16.13 590.88,-11.45"/>
<polygon fill="#63b8ff" stroke="#63b8ff" points="317.04,-95.19 315.55,-105.68 323.25,-98.4 317.04,-95.19"/>
</a>
</g>
</g>
<!-- Node7&#45;&gt;Node2 -->
<g id="edge11_Node000007_Node000002" class="edge">
<title>Node7&#45;&gt;Node2</title>
<g id="a_edge11_Node000007_Node000002"><a xlink:title=" ">
<path fill="none" stroke="#63b8ff" d="M383.01,-99.1C369.07,-86.24 354.01,-67.28 366.03,-53 394.58,-19.08 532.38,-11.61 590.78,-9.96"/>
<polygon fill="#63b8ff" stroke="#63b8ff" points="381.01,-102 390.87,-105.89 385.59,-96.71 381.01,-102"/>
</a>
</g>
</g>
<!-- Node8&#45;&gt;Node2 -->
<g id="edge13_Node000008_Node000002" class="edge">
<title>Node8&#45;&gt;Node2</title>
<g id="a_edge13_Node000008_Node000002"><a xlink:title=" ">
<path fill="none" stroke="#63b8ff" d="M449.77,-104.19C420.1,-95.93 382.1,-83.17 373.03,-70 368.75,-63.78 368.18,-58.79 373.03,-53 400.59,-20.09 533.38,-12.06 590.65,-10.11"/>
<polygon fill="#63b8ff" stroke="#63b8ff" points="448.89,-107.57 459.46,-106.81 450.72,-100.82 448.89,-107.57"/>
</a>
</g>
</g>
<!-- Node9&#45;&gt;Node2 -->
<g id="edge15_Node000009_Node000002" class="edge">
<title>Node9&#45;&gt;Node2</title>
<g id="a_edge15_Node000009_Node000002"><a xlink:title=" ">
<path fill="none" stroke="#63b8ff" d="M522.81,-104.59C466.51,-95.51 389.09,-81.22 380.03,-70 375.28,-64.12 375.2,-58.8 380.03,-53 406.68,-21.02 535.11,-12.47 590.98,-10.25"/>
<polygon fill="#63b8ff" stroke="#63b8ff" points="522.27,-108.05 532.7,-106.17 523.38,-101.14 522.27,-108.05"/>
</a>
</g>
</g>
<!-- Node10 -->
<g id="Node000010" class="node">
<title>Node10</title>
<g id="a_Node000010"><a xlink:href="../../d3/d3e/gbest__first_8hpp.html" target="_top" xlink:title=" ">
<polygon fill="white" stroke="#666666" points="466.53,-70 389.53,-70 389.53,-53 466.53,-53 466.53,-70"/>
<text text-anchor="middle" x="428.03" y="-59.6" font-family="Helvetica,sans-Serif" font-size="8.00">gbest_first.hpp</text>
</a>
</g>
</g>
<!-- Node9&#45;&gt;Node10 -->
<g id="edge16_Node000009_Node000010" class="edge">
<title>Node9&#45;&gt;Node10</title>
<g id="a_edge16_Node000009_Node000010"><a xlink:title=" ">
<path fill="none" stroke="#63b8ff" d="M549.44,-102.71C519.84,-92.9 476.93,-78.69 450.85,-70.06"/>
<polygon fill="#63b8ff" stroke="#63b8ff" points="548.72,-106.15 559.31,-105.97 550.92,-99.51 548.72,-106.15"/>
</a>
</g>
</g>
<!-- Node11 -->
<g id="Node000011" class="node">
<title>Node11</title>
<g id="a_Node000011"><a xlink:href="../../de/d94/gbfs_8hpp.html" target="_top" xlink:title=" ">
<polygon fill="white" stroke="#666666" points="537.53,-70 484.53,-70 484.53,-53 537.53,-53 537.53,-70"/>
<text text-anchor="middle" x="511.03" y="-59.6" font-family="Helvetica,sans-Serif" font-size="8.00">gbfs.hpp</text>
</a>
</g>
</g>
<!-- Node9&#45;&gt;Node11 -->
<g id="edge18_Node000009_Node000011" class="edge">
<title>Node9&#45;&gt;Node11</title>
<g id="a_edge18_Node000009_Node000011"><a xlink:title=" ">
<path fill="none" stroke="#63b8ff" d="M563.11,-99.91C549.8,-90.34 532.47,-77.9 521.55,-70.06"/>
<polygon fill="#63b8ff" stroke="#63b8ff" points="561.39,-102.98 571.56,-105.97 565.48,-97.3 561.39,-102.98"/>
</a>
</g>
</g>
<!-- Node12 -->
<g id="Node000012" class="node">
<title>Node12</title>
<g id="a_Node000012"><a xlink:href="../../d4/df2/gdfs_8hpp.html" target="_top" xlink:title=" ">
<polygon fill="white" stroke="#666666" points="608.53,-70 555.53,-70 555.53,-53 608.53,-53 608.53,-70"/>
<text text-anchor="middle" x="582.03" y="-59.6" font-family="Helvetica,sans-Serif" font-size="8.00">gdfs.hpp</text>
</a>
</g>
</g>
<!-- Node9&#45;&gt;Node12 -->
<g id="edge20_Node000009_Node000012" class="edge">
<title>Node9&#45;&gt;Node12</title>
<g id="a_edge20_Node000009_Node000012"><a xlink:title=" ">
<path fill="none" stroke="#63b8ff" d="M582.03,-95.91C582.03,-87.08 582.03,-76.85 582.03,-70.06"/>
<polygon fill="#63b8ff" stroke="#63b8ff" points="578.53,-95.97 582.03,-105.97 585.53,-95.97 578.53,-95.97"/>
</a>
</g>
</g>
<!-- Node13 -->
<g id="Node000013" class="node">
<title>Node13</title>
<g id="a_Node000013"><a xlink:href="../../d3/d3e/gjps_8hpp.html" target="_top" xlink:title=" ">
<polygon fill="white" stroke="#666666" points="679.03,-70 627.03,-70 627.03,-53 679.03,-53 679.03,-70"/>
<text text-anchor="middle" x="653.03" y="-59.6" font-family="Helvetica,sans-Serif" font-size="8.00">gjps.hpp</text>
</a>
</g>
</g>
<!-- Node9&#45;&gt;Node13 -->
<g id="edge22_Node000009_Node000013" class="edge">
<title>Node9&#45;&gt;Node13</title>
<g id="a_edge22_Node000009_Node000013"><a xlink:title=" ">
<path fill="none" stroke="#63b8ff" d="M600.96,-99.91C614.27,-90.34 631.59,-77.9 642.51,-70.06"/>
<polygon fill="#63b8ff" stroke="#63b8ff" points="598.59,-97.3 592.51,-105.97 602.67,-102.98 598.59,-97.3"/>
</a>
</g>
</g>
<!-- Node14 -->
<g id="Node000014" class="node">
<title>Node14</title>
<g id="a_Node000014"><a xlink:href="../../d1/def/gstar_8hpp.html" target="_top" xlink:title=" ">
<polygon fill="white" stroke="#666666" points="752.53,-70 697.53,-70 697.53,-53 752.53,-53 752.53,-70"/>
<text text-anchor="middle" x="725.03" y="-59.6" font-family="Helvetica,sans-Serif" font-size="8.00">gstar.hpp</text>
</a>
</g>
</g>
<!-- Node9&#45;&gt;Node14 -->
<g id="edge24_Node000009_Node000014" class="edge">
<title>Node9&#45;&gt;Node14</title>
<g id="a_edge24_Node000009_Node000014"><a xlink:title=" ">
<path fill="none" stroke="#63b8ff" d="M612.65,-102.58C640.13,-92.78 679.73,-78.66 703.85,-70.06"/>
<polygon fill="#63b8ff" stroke="#63b8ff" points="611.38,-99.32 603.13,-105.97 613.73,-105.91 611.38,-99.32"/>
</a>
</g>
</g>
<!-- Node10&#45;&gt;Node2 -->
<g id="edge17_Node000010_Node000002" class="edge">
<title>Node10&#45;&gt;Node2</title>
<g id="a_edge17_Node000010_Node000002"><a xlink:title=" ">
<path fill="none" stroke="#63b8ff" d="M465.85,-50.3C502.91,-40.29 558.42,-25.32 590.86,-16.56"/>
<polygon fill="#63b8ff" stroke="#63b8ff" points="464.66,-46.99 455.92,-52.97 466.49,-53.75 464.66,-46.99"/>
</a>
</g>
</g>
<!-- Node11&#45;&gt;Node2 -->
<g id="edge19_Node000011_Node000002" class="edge">
<title>Node11&#45;&gt;Node2</title>
<g id="a_edge19_Node000011_Node000002"><a xlink:title=" ">
<path fill="none" stroke="#63b8ff" d="M535.91,-48.53C556.14,-38.8 584.08,-25.36 601.33,-17.06"/>
<polygon fill="#63b8ff" stroke="#63b8ff" points="534.17,-45.49 526.67,-52.97 537.2,-51.79 534.17,-45.49"/>
</a>
</g>
</g>
<!-- Node12&#45;&gt;Node2 -->
<g id="edge21_Node000012_Node000002" class="edge">
<title>Node12&#45;&gt;Node2</title>
<g id="a_edge21_Node000012_Node000002"><a xlink:title=" ">
<path fill="none" stroke="#63b8ff" d="M592.91,-44.65C599.22,-35.46 606.88,-24.3 611.85,-17.06"/>
<polygon fill="#63b8ff" stroke="#63b8ff" points="589.97,-42.75 587.2,-52.97 595.74,-46.71 589.97,-42.75"/>
</a>
</g>
</g>
<!-- Node13&#45;&gt;Node2 -->
<g id="edge23_Node000013_Node000002" class="edge">
<title>Node13&#45;&gt;Node2</title>
<g id="a_edge23_Node000013_Node000002"><a xlink:title=" ">
<path fill="none" stroke="#63b8ff" d="M641.85,-44.65C635.36,-35.46 627.48,-24.3 622.37,-17.06"/>
<polygon fill="#63b8ff" stroke="#63b8ff" points="639.09,-46.82 647.72,-52.97 644.81,-42.79 639.09,-46.82"/>
</a>
</g>
</g>
<!-- Node14&#45;&gt;Node2 -->
<g id="edge25_Node000014_Node000002" class="edge">
<title>Node14&#45;&gt;Node2</title>
<g id="a_edge25_Node000014_Node000002"><a xlink:title=" ">
<path fill="none" stroke="#63b8ff" d="M699.97,-48.66C679.33,-38.92 650.69,-25.39 633.03,-17.06"/>
<polygon fill="#63b8ff" stroke="#63b8ff" points="698.56,-51.87 709.1,-52.97 701.55,-45.54 698.56,-51.87"/>
</a>
</g>
</g>
<!-- Node15&#45;&gt;Node2 -->
<g id="edge27_Node000015_Node000002" class="edge">
<title>Node15&#45;&gt;Node2</title>
<g id="a_edge27_Node000015_Node000002"><a xlink:title=" ">
<path fill="none" stroke="#63b8ff" d="M779.51,-95.64C777.43,-82.19 772.54,-64.22 761.03,-53 728.95,-21.74 675.23,-12.84 643.26,-10.37"/>
<polygon fill="#63b8ff" stroke="#63b8ff" points="776.03,-96.1 780.67,-105.62 782.99,-95.29 776.03,-96.1"/>
</a>
</g>
</g>
<!-- Node16 -->
<g id="Node000016" class="node">
<title>Node16</title>
<g id="a_Node000016"><a xlink:href="../../dd/d57/smastar_8hpp.html" target="_top" xlink:title=" ">
<polygon fill="white" stroke="#666666" points="876.53,-70 809.53,-70 809.53,-53 876.53,-53 876.53,-70"/>
<text text-anchor="middle" x="843.03" y="-59.6" font-family="Helvetica,sans-Serif" font-size="8.00">smastar.hpp</text>
</a>
</g>
</g>
<!-- Node15&#45;&gt;Node16 -->
<g id="edge28_Node000015_Node000016" class="edge">
<title>Node15&#45;&gt;Node16</title>
<g id="a_edge28_Node000015_Node000016"><a xlink:title=" ">
<path fill="none" stroke="#63b8ff" d="M798.23,-99.35C809.76,-89.87 824.49,-77.75 833.85,-70.06"/>
<polygon fill="#63b8ff" stroke="#63b8ff" points="795.68,-96.92 790.18,-105.97 800.13,-102.33 795.68,-96.92"/>
</a>
</g>
</g>
<!-- Node16&#45;&gt;Node2 -->
<g id="edge29_Node000016_Node000002" class="edge">
<title>Node16&#45;&gt;Node2</title>
<g id="a_edge29_Node000016_Node000002"><a xlink:title=" ">
<path fill="none" stroke="#63b8ff" d="M799.93,-50.77C753.61,-40.32 681.49,-24.05 643.12,-15.39"/>
<polygon fill="#63b8ff" stroke="#63b8ff" points="799.16,-54.19 809.68,-52.97 800.7,-47.36 799.16,-54.19"/>
</a>
</g>
</g>
<!-- Node17&#45;&gt;Node2 -->
<g id="edge37_Node000017_Node000002" class="edge">
<title>Node17&#45;&gt;Node2</title>
<g id="a_edge37_Node000017_Node000002"><a xlink:title=" ">
<path fill="none" stroke="#63b8ff" d="M1039.59,-103.56C1007.49,-95.63 962.52,-83.61 924.03,-70 906.2,-63.7 903.17,-58.33 885.03,-53 798.66,-27.6 691.99,-15.89 643.39,-11.58"/>
<polygon fill="#63b8ff" stroke="#63b8ff" points="1038.99,-107.02 1049.54,-105.99 1040.66,-100.22 1038.99,-107.02"/>
</a>
</g>
</g>
<!-- Node18 -->
<g id="Node000018" class="node">
<title>Node18</title>
<g id="a_Node000018"><a xlink:href="../../dc/da9/astar_8hpp.html" target="_top" xlink:title=" ">
<polygon fill="white" stroke="#666666" points="988.53,-70 933.53,-70 933.53,-53 988.53,-53 988.53,-70"/>
<text text-anchor="middle" x="961.03" y="-59.6" font-family="Helvetica,sans-Serif" font-size="8.00">astar.hpp</text>
</a>
</g>
</g>
<!-- Node17&#45;&gt;Node18 -->
<g id="edge31_Node000017_Node000018" class="edge">
<title>Node17&#45;&gt;Node18</title>
<g id="a_edge31_Node000017_Node000018"><a xlink:title=" ">
<path fill="none" stroke="#63b8ff" d="M1054.89,-102.06C1031.7,-92.29 999.01,-78.51 978.96,-70.06"/>
<polygon fill="#63b8ff" stroke="#63b8ff" points="1053.6,-105.32 1064.18,-105.97 1056.32,-98.87 1053.6,-105.32"/>
</a>
</g>
</g>
<!-- Node19 -->
<g id="Node000019" class="node">
<title>Node19</title>
<g id="a_Node000019"><a xlink:href="../../d3/d77/best__first_8hpp.html" target="_top" xlink:title=" ">
<polygon fill="white" stroke="#666666" points="1079.03,-70 1007.03,-70 1007.03,-53 1079.03,-53 1079.03,-70"/>
<text text-anchor="middle" x="1043.03" y="-59.6" font-family="Helvetica,sans-Serif" font-size="8.00">best_first.hpp</text>
</a>
</g>
</g>
<!-- Node17&#45;&gt;Node19 -->
<g id="edge33_Node000017_Node000019" class="edge">
<title>Node17&#45;&gt;Node19</title>
<g id="a_edge33_Node000017_Node000019"><a xlink:title=" ">
<path fill="none" stroke="#63b8ff" d="M1070.13,-97.94C1063.06,-88.69 1054.41,-77.37 1048.81,-70.06"/>
<polygon fill="#63b8ff" stroke="#63b8ff" points="1067.42,-100.16 1076.28,-105.97 1072.98,-95.91 1067.42,-100.16"/>
</a>
</g>
</g>
<!-- Node20 -->
<g id="Node000020" class="node">
<title>Node20</title>
<g id="a_Node000020"><a xlink:href="../../da/d36/bfs_8hpp.html" target="_top" xlink:title=" ">
<polygon fill="white" stroke="#666666" points="1144.53,-70 1097.53,-70 1097.53,-53 1144.53,-53 1144.53,-70"/>
<text text-anchor="middle" x="1121.03" y="-59.6" font-family="Helvetica,sans-Serif" font-size="8.00">bfs.hpp</text>
</a>
</g>
</g>
<!-- Node17&#45;&gt;Node20 -->
<g id="edge35_Node000017_Node000020" class="edge">
<title>Node17&#45;&gt;Node20</title>
<g id="a_edge35_Node000017_Node000020"><a xlink:title=" ">
<path fill="none" stroke="#63b8ff" d="M1093.93,-97.94C1101,-88.69 1109.66,-77.37 1115.25,-70.06"/>
<polygon fill="#63b8ff" stroke="#63b8ff" points="1091.08,-95.91 1087.79,-105.97 1096.64,-100.16 1091.08,-95.91"/>
</a>
</g>
</g>
<!-- Node21 -->
<g id="Node000021" class="node">
<title>Node21</title>
<g id="a_Node000021"><a xlink:href="../../d3/dec/dfs_8hpp.html" target="_top" xlink:title=" ">
<polygon fill="white" stroke="#666666" points="1209.53,-70 1162.53,-70 1162.53,-53 1209.53,-53 1209.53,-70"/>
<text text-anchor="middle" x="1186.03" y="-59.6" font-family="Helvetica,sans-Serif" font-size="8.00">dfs.hpp</text>
</a>
</g>
</g>
<!-- Node17&#45;&gt;Node21 -->
<g id="edge38_Node000017_Node000021" class="edge">
<title>Node17&#45;&gt;Node21</title>
<g id="a_edge38_Node000017_Node000021"><a xlink:title=" ">
<path fill="none" stroke="#63b8ff" d="M1106.44,-101.53C1126.29,-91.8 1153.7,-78.36 1170.62,-70.06"/>
<polygon fill="#63b8ff" stroke="#63b8ff" points="1104.81,-98.43 1097.38,-105.97 1107.9,-104.71 1104.81,-98.43"/>
</a>
</g>
</g>
<!-- Node22 -->
<g id="Node000022" class="node">
<title>Node22</title>
<g id="a_Node000022"><a xlink:href="../../d8/dd5/fringe_8hpp.html" target="_top" xlink:title=" ">
<polygon fill="white" stroke="#666666" points="1286.53,-70 1227.53,-70 1227.53,-53 1286.53,-53 1286.53,-70"/>
<text text-anchor="middle" x="1257.03" y="-59.6" font-family="Helvetica,sans-Serif" font-size="8.00">fringe.hpp</text>
</a>
</g>
</g>
<!-- Node17&#45;&gt;Node22 -->
<g id="edge40_Node000017_Node000022" class="edge">
<title>Node17&#45;&gt;Node22</title>
<g id="a_edge40_Node000017_Node000022"><a xlink:title=" ">
<path fill="none" stroke="#63b8ff" d="M1117.75,-103.09C1151.42,-93.28 1201.07,-78.81 1231.1,-70.06"/>
<polygon fill="#63b8ff" stroke="#63b8ff" points="1116.48,-99.82 1107.85,-105.97 1118.43,-106.54 1116.48,-99.82"/>
</a>
</g>
</g>
<!-- Node23 -->
<g id="Node000023" class="node">
<title>Node23</title>
<g id="a_Node000023"><a xlink:href="../../d9/de6/jps_8hpp.html" target="_top" xlink:title=" ">
<polygon fill="white" stroke="#666666" points="1351.53,-70 1304.53,-70 1304.53,-53 1351.53,-53 1351.53,-70"/>
<text text-anchor="middle" x="1328.03" y="-59.6" font-family="Helvetica,sans-Serif" font-size="8.00">jps.hpp</text>
</a>
</g>
</g>
<!-- Node17&#45;&gt;Node23 -->
<g id="edge42_Node000017_Node000023" class="edge">
<title>Node17&#45;&gt;Node23</title>
<g id="a_edge42_Node000017_Node000023"><a xlink:title=" ">
<path fill="none" stroke="#63b8ff" d="M1130.13,-103.99C1173.34,-95.37 1238.5,-82.19 1295.03,-70 1298.02,-69.36 1301.15,-68.66 1304.25,-67.97"/>
<polygon fill="#63b8ff" stroke="#63b8ff" points="1129.3,-100.59 1120.18,-105.97 1130.67,-107.45 1129.3,-100.59"/>
</a>
</g>
</g>
<!-- Node18&#45;&gt;Node2 -->
<g id="edge32_Node000018_Node000002" class="edge">
<title>Node18&#45;&gt;Node2</title>
<g id="a_edge32_Node000018_Node000002"><a xlink:title=" ">
<path fill="none" stroke="#63b8ff" d="M923.49,-53.73C921.98,-53.48 920.49,-53.24 919.03,-53 817.32,-36.6 695.83,-20.01 643.33,-12.99"/>
<polygon fill="#63b8ff" stroke="#63b8ff" points="923.04,-57.21 933.49,-55.45 924.23,-50.31 923.04,-57.21"/>
</a>
</g>
</g>
<!-- Node19&#45;&gt;Node2 -->
<g id="edge34_Node000019_Node000002" class="edge">
<title>Node19&#45;&gt;Node2</title>
<g id="a_edge34_Node000019_Node000002"><a xlink:title=" ">
<path fill="none" stroke="#63b8ff" d="M996.86,-53.05C857.08,-33.86 703.73,-18.08 643.35,-12.08"/>
<polygon fill="#63b8ff" stroke="#63b8ff" points="996.51,-56.54 1006.9,-54.44 997.47,-49.6 996.51,-56.54"/>
</a>
</g>
</g>
<!-- Node20&#45;&gt;Node2 -->
<g id="edge36_Node000020_Node000002" class="edge">
<title>Node20&#45;&gt;Node2</title>
<g id="a_edge36_Node000020_Node000002"><a xlink:title=" ">
<path fill="none" stroke="#63b8ff" d="M1087.4,-53.15C912.19,-25.78 713.5,-14.21 643.22,-10.71"/>
<polygon fill="#63b8ff" stroke="#63b8ff" points="1086.89,-56.61 1097.31,-54.72 1087.98,-49.7 1086.89,-56.61"/>
</a>
</g>
</g>
<!-- Node21&#45;&gt;Node2 -->
<g id="edge39_Node000021_Node000002" class="edge">
<title>Node21&#45;&gt;Node2</title>
<g id="a_edge39_Node000021_Node000002"><a xlink:title=" ">
<path fill="none" stroke="#63b8ff" d="M1152.14,-53.13C950.71,-22.83 719.72,-12.93 643.12,-10.3"/>
<polygon fill="#63b8ff" stroke="#63b8ff" points="1151.9,-56.64 1162.32,-54.69 1152.96,-49.72 1151.9,-56.64"/>
</a>
</g>
</g>
<!-- Node22&#45;&gt;Node2 -->
<g id="edge41_Node000022_Node000002" class="edge">
<title>Node22&#45;&gt;Node2</title>
<g id="a_edge41_Node000022_Node000002"><a xlink:title=" ">
<path fill="none" stroke="#63b8ff" d="M1217.13,-53.07C989,-23.52 725.9,-13.03 643.21,-10.29"/>
<polygon fill="#63b8ff" stroke="#63b8ff" points="1216.91,-56.57 1227.28,-54.4 1217.82,-49.63 1216.91,-56.57"/>
</a>
</g>
</g>
<!-- Node23&#45;&gt;Node2 -->
<g id="edge43_Node000023_Node000002" class="edge">
<title>Node23&#45;&gt;Node2</title>
<g id="a_edge43_Node000023_Node000002"><a xlink:title=" ">
<path fill="none" stroke="#63b8ff" d="M1294.34,-53.2C1035.07,-16.35 732.41,-10.61 643.05,-9.68"/>
<polygon fill="#63b8ff" stroke="#63b8ff" points="1293.93,-56.68 1304.32,-54.64 1294.92,-49.75 1293.93,-56.68"/>
</a>
</g>
</g>
</g>
</svg>
