<?xml version="1.0" encoding="UTF-8" standalone="no"?>
<!DOCTYPE svg PUBLIC "-//W3C//DTD SVG 1.1//EN"
 "http://www.w3.org/Graphics/SVG/1.1/DTD/svg11.dtd">
<!-- Generated by graphviz version 2.43.0 (0)
 -->
<!-- Title: bnode.hpp Pages: 1 -->
<svg width="967pt" height="184pt"
 viewBox="0.00 0.00 967.06 184.00" xmlns="http://www.w3.org/2000/svg" xmlns:xlink="http://www.w3.org/1999/xlink">
<g id="graph0" class="graph" transform="scale(1 1) rotate(0) translate(4 180)">
<title>bnode.hpp</title>
<!-- Node1 -->
<g id="Node000001" class="node">
<title>Node1</title>
<g id="a_Node000001"><a xlink:title=" ">
<polygon fill="#999999" stroke="#666666" points="296.06,-176 241.06,-176 241.06,-159 296.06,-159 296.06,-176"/>
<text text-anchor="middle" x="268.56" y="-165.6" font-family="Helvetica,sans-Serif" font-size="8.00">bnode.hpp</text>
</a>
</g>
</g>
<!-- Node2 -->
<g id="Node000002" class="node">
<title>Node2</title>
<g id="a_Node000002"><a xlink:href="../../d9/d96/chdr_8hpp.html" target="_top" xlink:title=" ">
<polygon fill="white" stroke="#666666" points="449.06,-17 402.06,-17 402.06,0 449.06,0 449.06,-17"/>
<text text-anchor="middle" x="425.56" y="-6.6" font-family="Helvetica,sans-Serif" font-size="8.00">chdr.hpp</text>
</a>
</g>
</g>
<!-- Node1&#45;&gt;Node2 -->
<g id="edge1_Node000001_Node000002" class="edge">
<title>Node1&#45;&gt;Node2</title>
<g id="a_edge1_Node000001_Node000002"><a xlink:title=" ">
<path fill="none" stroke="#63b8ff" d="M230.85,-166.06C164.76,-164.39 32.28,-156.82 3.56,-123 -1.33,-117.24 -0.9,-112.1 3.56,-106 51.61,-40.35 320.21,-16.72 401.95,-10.99"/>
<polygon fill="#63b8ff" stroke="#63b8ff" points="230.79,-169.56 240.86,-166.28 230.94,-162.56 230.79,-169.56"/>
</a>
</g>
</g>
<!-- Node3 -->
<g id="Node000003" class="node">
<title>Node3</title>
<g id="a_Node000003"><a xlink:href="../../d6/ded/eidastar_8hpp_source.html" target="_top" xlink:title=" ">
<polygon fill="white" stroke="#666666" points="72.56,-123 12.56,-123 12.56,-106 72.56,-106 72.56,-123"/>
<text text-anchor="middle" x="42.56" y="-112.6" font-family="Helvetica,sans-Serif" font-size="8.00">eidastar.hpp</text>
</a>
</g>
</g>
<!-- Node1&#45;&gt;Node3 -->
<g id="edge2_Node000001_Node000003" class="edge">
<title>Node1&#45;&gt;Node3</title>
<g id="a_edge2_Node000001_Node000003"><a xlink:title=" ">
<path fill="none" stroke="#63b8ff" d="M231.02,-158.03C186.6,-148.01 113.54,-131.52 72.66,-122.29"/>
<polygon fill="#63b8ff" stroke="#63b8ff" points="230.32,-161.46 240.85,-160.25 231.86,-154.63 230.32,-161.46"/>
</a>
</g>
</g>
<!-- Node4 -->
<g id="Node000004" class="node">
<title>Node4</title>
<g id="a_Node000004"><a xlink:href="../../dd/d67/eidbstar_8hpp_source.html" target="_top" xlink:title=" ">
<polygon fill="white" stroke="#666666" points="150.56,-123 90.56,-123 90.56,-106 150.56,-106 150.56,-123"/>
<text text-anchor="middle" x="120.56" y="-112.6" font-family="Helvetica,sans-Serif" font-size="8.00">eidbstar.hpp</text>
</a>
</g>
</g>
<!-- Node1&#45;&gt;Node4 -->
<g id="edge4_Node000001_Node000004" class="edge">
<title>Node1&#45;&gt;Node4</title>
<g id="a_edge4_Node000001_Node000004"><a xlink:title=" ">
<path fill="none" stroke="#63b8ff" d="M237.24,-155.71C208.79,-145.9 167.56,-131.69 142.49,-123.06"/>
<polygon fill="#63b8ff" stroke="#63b8ff" points="236.13,-159.03 246.72,-158.97 238.41,-152.41 236.13,-159.03"/>
</a>
</g>
</g>
<!-- Node5 -->
<g id="Node000005" class="node">
<title>Node5</title>
<g id="a_Node000005"><a xlink:href="../../dd/d95/eiddfs_8hpp_source.html" target="_top" xlink:title=" ">
<polygon fill="white" stroke="#666666" points="222.06,-123 169.06,-123 169.06,-106 222.06,-106 222.06,-123"/>
<text text-anchor="middle" x="195.56" y="-112.6" font-family="Helvetica,sans-Serif" font-size="8.00">eiddfs.hpp</text>
</a>
</g>
</g>
<!-- Node1&#45;&gt;Node5 -->
<g id="edge6_Node000001_Node000005" class="edge">
<title>Node1&#45;&gt;Node5</title>
<g id="a_edge6_Node000001_Node000005"><a xlink:title=" ">
<path fill="none" stroke="#63b8ff" d="M249.5,-153.18C235.76,-143.58 217.72,-130.98 206.38,-123.06"/>
<polygon fill="#63b8ff" stroke="#63b8ff" points="247.59,-156.12 257.79,-158.97 251.6,-150.38 247.59,-156.12"/>
</a>
</g>
</g>
<!-- Node6 -->
<g id="Node000006" class="node">
<title>Node6</title>
<g id="a_Node000006"><a xlink:href="../../db/df9/idastar_8hpp_source.html" target="_top" xlink:title=" ">
<polygon fill="white" stroke="#666666" points="296.56,-123 240.56,-123 240.56,-106 296.56,-106 296.56,-123"/>
<text text-anchor="middle" x="268.56" y="-112.6" font-family="Helvetica,sans-Serif" font-size="8.00">idastar.hpp</text>
</a>
</g>
</g>
<!-- Node1&#45;&gt;Node6 -->
<g id="edge8_Node000001_Node000006" class="edge">
<title>Node1&#45;&gt;Node6</title>
<g id="a_edge8_Node000001_Node000006"><a xlink:title=" ">
<path fill="none" stroke="#63b8ff" d="M268.56,-148.91C268.56,-140.08 268.56,-129.85 268.56,-123.06"/>
<polygon fill="#63b8ff" stroke="#63b8ff" points="265.06,-148.97 268.56,-158.97 272.06,-148.97 265.06,-148.97"/>
</a>
</g>
</g>
<!-- Node7 -->
<g id="Node000007" class="node">
<title>Node7</title>
<g id="a_Node000007"><a xlink:href="../../d1/d24/idbstar_8hpp_source.html" target="_top" xlink:title=" ">
<polygon fill="white" stroke="#666666" points="370.56,-123 314.56,-123 314.56,-106 370.56,-106 370.56,-123"/>
<text text-anchor="middle" x="342.56" y="-112.6" font-family="Helvetica,sans-Serif" font-size="8.00">idbstar.hpp</text>
</a>
</g>
</g>
<!-- Node1&#45;&gt;Node7 -->
<g id="edge10_Node000001_Node000007" class="edge">
<title>Node1&#45;&gt;Node7</title>
<g id="a_edge10_Node000001_Node000007"><a xlink:title=" ">
<path fill="none" stroke="#63b8ff" d="M287.89,-153.18C301.81,-143.58 320.1,-130.98 331.6,-123.06"/>
<polygon fill="#63b8ff" stroke="#63b8ff" points="285.73,-150.42 279.48,-158.97 289.7,-156.18 285.73,-150.42"/>
</a>
</g>
</g>
<!-- Node8 -->
<g id="Node000008" class="node">
<title>Node8</title>
<g id="a_Node000008"><a xlink:href="../../df/d71/iddfs_8hpp_source.html" target="_top" xlink:title=" ">
<polygon fill="white" stroke="#666666" points="438.06,-123 389.06,-123 389.06,-106 438.06,-106 438.06,-123"/>
<text text-anchor="middle" x="413.56" y="-112.6" font-family="Helvetica,sans-Serif" font-size="8.00">iddfs.hpp</text>
</a>
</g>
</g>
<!-- Node1&#45;&gt;Node8 -->
<g id="edge12_Node000001_Node000008" class="edge">
<title>Node1&#45;&gt;Node8</title>
<g id="a_edge12_Node000001_Node000008"><a xlink:title=" ">
<path fill="none" stroke="#63b8ff" d="M299.61,-155.58C327.47,-145.78 367.62,-131.66 392.08,-123.06"/>
<polygon fill="#63b8ff" stroke="#63b8ff" points="298.23,-152.35 289.96,-158.97 300.55,-158.96 298.23,-152.35"/>
</a>
</g>
</g>
<!-- Node9 -->
<g id="Node000009" class="node">
<title>Node9</title>
<g id="a_Node000009"><a xlink:href="../../da/deb/managed__node_8hpp.html" target="_top" xlink:title=" ">
<polygon fill="white" stroke="#666666" points="545.06,-123 456.06,-123 456.06,-106 545.06,-106 545.06,-123"/>
<text text-anchor="middle" x="500.56" y="-112.6" font-family="Helvetica,sans-Serif" font-size="8.00">managed_node.hpp</text>
</a>
</g>
</g>
<!-- Node1&#45;&gt;Node9 -->
<g id="edge14_Node000001_Node000009" class="edge">
<title>Node1&#45;&gt;Node9</title>
<g id="a_edge14_Node000001_Node000009"><a xlink:title=" ">
<path fill="none" stroke="#63b8ff" d="M305.88,-158.3C350.17,-148.56 423.4,-132.46 466.3,-123.03"/>
<polygon fill="#63b8ff" stroke="#63b8ff" points="305.1,-154.88 296.09,-160.45 306.6,-161.72 305.1,-154.88"/>
</a>
</g>
</g>
<!-- Node13 -->
<g id="Node000013" class="node">
<title>Node13</title>
<g id="a_Node000013"><a xlink:href="../../d0/def/unmanaged__node_8hpp.html" target="_top" xlink:title=" ">
<polygon fill="white" stroke="#666666" points="788.56,-123 690.56,-123 690.56,-106 788.56,-106 788.56,-123"/>
<text text-anchor="middle" x="739.56" y="-112.6" font-family="Helvetica,sans-Serif" font-size="8.00">unmanaged_node.hpp</text>
</a>
</g>
</g>
<!-- Node1&#45;&gt;Node13 -->
<g id="edge22_Node000001_Node000013" class="edge">
<title>Node1&#45;&gt;Node13</title>
<g id="a_edge22_Node000001_Node000013"><a xlink:title=" ">
<path fill="none" stroke="#63b8ff" d="M306.46,-162.4C391.17,-153.22 595.83,-131.06 690.28,-120.84"/>
<polygon fill="#63b8ff" stroke="#63b8ff" points="305.83,-158.94 296.27,-163.5 306.58,-165.9 305.83,-158.94"/>
</a>
</g>
</g>
<!-- Node3&#45;&gt;Node2 -->
<g id="edge3_Node000003_Node000002" class="edge">
<title>Node3&#45;&gt;Node2</title>
<g id="a_edge3_Node000003_Node000002"><a xlink:title=" ">
<path fill="none" stroke="#63b8ff" d="M73.67,-102.6C110.92,-89.76 175.34,-68.27 231.56,-53 292.35,-36.49 365.06,-21.41 401.8,-14.12"/>
<polygon fill="#63b8ff" stroke="#63b8ff" points="72.22,-99.4 63.92,-105.98 74.51,-106.01 72.22,-99.4"/>
</a>
</g>
</g>
<!-- Node4&#45;&gt;Node2 -->
<g id="edge5_Node000004_Node000002" class="edge">
<title>Node4&#45;&gt;Node2</title>
<g id="a_edge5_Node000004_Node000002"><a xlink:title=" ">
<path fill="none" stroke="#63b8ff" d="M148.27,-102.13C179.64,-89.45 232.37,-68.65 278.56,-53 321.66,-38.39 372.77,-23.89 401.96,-15.87"/>
<polygon fill="#63b8ff" stroke="#63b8ff" points="146.83,-98.94 138.88,-105.95 149.46,-105.43 146.83,-98.94"/>
</a>
</g>
</g>
<!-- Node5&#45;&gt;Node2 -->
<g id="edge7_Node000005_Node000002" class="edge">
<title>Node5&#45;&gt;Node2</title>
<g id="a_edge7_Node000005_Node000002"><a xlink:title=" ">
<path fill="none" stroke="#63b8ff" d="M218.78,-101C242.74,-88.3 281.32,-68.36 315.56,-53 346.1,-39.3 382.35,-25.41 404.65,-17.13"/>
<polygon fill="#63b8ff" stroke="#63b8ff" points="216.94,-98.02 209.77,-105.81 220.24,-104.2 216.94,-98.02"/>
</a>
</g>
</g>
<!-- Node6&#45;&gt;Node2 -->
<g id="edge9_Node000006_Node000002" class="edge">
<title>Node6&#45;&gt;Node2</title>
<g id="a_edge9_Node000006_Node000002"><a xlink:title=" ">
<path fill="none" stroke="#63b8ff" d="M284.34,-99C298.85,-86.08 321.27,-67.07 342.56,-53 364.41,-38.56 391.61,-25.08 408.78,-17.06"/>
<polygon fill="#63b8ff" stroke="#63b8ff" points="281.86,-96.53 276.78,-105.83 286.55,-101.72 281.86,-96.53"/>
</a>
</g>
</g>
<!-- Node7&#45;&gt;Node2 -->
<g id="edge11_Node000007_Node000002" class="edge">
<title>Node7&#45;&gt;Node2</title>
<g id="a_edge11_Node000007_Node000002"><a xlink:title=" ">
<path fill="none" stroke="#63b8ff" d="M342.05,-95.31C342.55,-82.46 345.02,-65.38 353.56,-53 365.58,-35.57 387.08,-23.93 403.47,-17.11"/>
<polygon fill="#63b8ff" stroke="#63b8ff" points="338.55,-95.67 342.04,-105.67 345.55,-95.68 338.55,-95.67"/>
</a>
</g>
</g>
<!-- Node8&#45;&gt;Node2 -->
<g id="edge13_Node000008_Node000002" class="edge">
<title>Node8&#45;&gt;Node2</title>
<g id="a_edge13_Node000008_Node000002"><a xlink:title=" ">
<path fill="none" stroke="#63b8ff" d="M388.76,-100.82C370.15,-89.46 349.46,-71.75 359.56,-53 369,-35.48 388.92,-23.85 404.42,-17.06"/>
<polygon fill="#63b8ff" stroke="#63b8ff" points="387.17,-103.94 397.59,-105.86 390.65,-97.86 387.17,-103.94"/>
</a>
</g>
</g>
<!-- Node9&#45;&gt;Node2 -->
<g id="edge15_Node000009_Node000002" class="edge">
<title>Node9&#45;&gt;Node2</title>
<g id="a_edge15_Node000009_Node000002"><a xlink:title=" ">
<path fill="none" stroke="#63b8ff" d="M446.17,-104.81C425.85,-98.63 404.76,-88.07 392.56,-70 380.37,-51.95 402.19,-28.99 415.83,-17.22"/>
<polygon fill="#63b8ff" stroke="#63b8ff" points="445.48,-108.25 456.05,-107.5 447.32,-101.49 445.48,-108.25"/>
</a>
</g>
</g>
<!-- Node10 -->
<g id="Node000010" class="node">
<title>Node10</title>
<g id="a_Node000010"><a xlink:href="../../de/d94/gbfs_8hpp.html" target="_top" xlink:title=" ">
<polygon fill="white" stroke="#666666" points="449.06,-70 402.06,-70 402.06,-53 449.06,-53 449.06,-70"/>
<text text-anchor="middle" x="425.56" y="-59.6" font-family="Helvetica,sans-Serif" font-size="8.00">gbfs.hpp</text>
</a>
</g>
</g>
<!-- Node9&#45;&gt;Node10 -->
<g id="edge16_Node000009_Node000010" class="edge">
<title>Node9&#45;&gt;Node10</title>
<g id="a_edge16_Node000009_Node000010"><a xlink:title=" ">
<path fill="none" stroke="#63b8ff" d="M480.98,-100.18C466.86,-90.58 448.32,-77.98 436.67,-70.06"/>
<polygon fill="#63b8ff" stroke="#63b8ff" points="479.26,-103.25 489.49,-105.97 483.19,-97.46 479.26,-103.25"/>
</a>
</g>
</g>
<!-- Node11 -->
<g id="Node000011" class="node">
<title>Node11</title>
<g id="a_Node000011"><a xlink:href="../../d4/df2/gdfs_8hpp.html" target="_top" xlink:title=" ">
<polygon fill="white" stroke="#666666" points="514.06,-70 467.06,-70 467.06,-53 514.06,-53 514.06,-70"/>
<text text-anchor="middle" x="490.56" y="-59.6" font-family="Helvetica,sans-Serif" font-size="8.00">gdfs.hpp</text>
</a>
</g>
</g>
<!-- Node9&#45;&gt;Node11 -->
<g id="edge18_Node000009_Node000011" class="edge">
<title>Node9&#45;&gt;Node11</title>
<g id="a_edge18_Node000009_Node000011"><a xlink:title=" ">
<path fill="none" stroke="#63b8ff" d="M497.11,-95.91C495.38,-87.08 493.37,-76.85 492.04,-70.06"/>
<polygon fill="#63b8ff" stroke="#63b8ff" points="493.73,-96.84 499.09,-105.97 500.6,-95.49 493.73,-96.84"/>
</a>
</g>
</g>
<!-- Node12 -->
<g id="Node000012" class="node">
<title>Node12</title>
<g id="a_Node000012"><a xlink:href="../../d1/def/gstar_8hpp.html" target="_top" xlink:title=" ">
<polygon fill="white" stroke="#666666" points="582.56,-70 532.56,-70 532.56,-53 582.56,-53 582.56,-70"/>
<text text-anchor="middle" x="557.56" y="-59.6" font-family="Helvetica,sans-Serif" font-size="8.00">gstar.hpp</text>
</a>
</g>
</g>
<!-- Node9&#45;&gt;Node12 -->
<g id="edge20_Node000009_Node000012" class="edge">
<title>Node9&#45;&gt;Node12</title>
<g id="a_edge20_Node000009_Node000012"><a xlink:title=" ">
<path fill="none" stroke="#63b8ff" d="M516.69,-99.07C527.24,-89.63 540.6,-77.68 549.12,-70.06"/>
<polygon fill="#63b8ff" stroke="#63b8ff" points="514.09,-96.7 508.97,-105.97 518.76,-101.92 514.09,-96.7"/>
</a>
</g>
</g>
<!-- Node10&#45;&gt;Node2 -->
<g id="edge17_Node000010_Node000002" class="edge">
<title>Node10&#45;&gt;Node2</title>
<g id="a_edge17_Node000010_Node000002"><a xlink:title=" ">
<path fill="none" stroke="#63b8ff" d="M425.56,-42.91C425.56,-34.08 425.56,-23.85 425.56,-17.06"/>
<polygon fill="#63b8ff" stroke="#63b8ff" points="422.06,-42.97 425.56,-52.97 429.06,-42.97 422.06,-42.97"/>
</a>
</g>
</g>
<!-- Node11&#45;&gt;Node2 -->
<g id="edge19_Node000011_Node000002" class="edge">
<title>Node11&#45;&gt;Node2</title>
<g id="a_edge19_Node000011_Node000002"><a xlink:title=" ">
<path fill="none" stroke="#63b8ff" d="M472.88,-46.63C460.75,-37.11 445.1,-24.83 435.19,-17.06"/>
<polygon fill="#63b8ff" stroke="#63b8ff" points="470.94,-49.56 480.97,-52.97 475.26,-44.05 470.94,-49.56"/>
</a>
</g>
</g>
<!-- Node12&#45;&gt;Node2 -->
<g id="edge21_Node000012_Node000002" class="edge">
<title>Node12&#45;&gt;Node2</title>
<g id="a_edge21_Node000012_Node000002"><a xlink:title=" ">
<path fill="none" stroke="#63b8ff" d="M528.62,-49.32C503.29,-39.53 467.18,-25.58 445.12,-17.06"/>
<polygon fill="#63b8ff" stroke="#63b8ff" points="527.49,-52.64 538.08,-52.97 530.02,-46.11 527.49,-52.64"/>
</a>
</g>
</g>
<!-- Node13&#45;&gt;Node2 -->
<g id="edge29_Node000013_Node000002" class="edge">
<title>Node13&#45;&gt;Node2</title>
<g id="a_edge29_Node000013_Node000002"><a xlink:title=" ">
<path fill="none" stroke="#63b8ff" d="M710.04,-102.23C687.81,-93.65 656.64,-81.41 629.56,-70 612.51,-62.82 609.01,-59.14 591.56,-53 541.96,-35.54 481.85,-21.48 449.29,-14.43"/>
<polygon fill="#63b8ff" stroke="#63b8ff" points="708.99,-105.58 719.58,-105.9 711.51,-99.05 708.99,-105.58"/>
</a>
</g>
</g>
<!-- Node14 -->
<g id="Node000014" class="node">
<title>Node14</title>
<g id="a_Node000014"><a xlink:href="../../dc/da9/astar_8hpp.html" target="_top" xlink:title=" ">
<polygon fill="white" stroke="#666666" points="688.56,-70 638.56,-70 638.56,-53 688.56,-53 688.56,-70"/>
<text text-anchor="middle" x="663.56" y="-59.6" font-family="Helvetica,sans-Serif" font-size="8.00">astar.hpp</text>
</a>
</g>
</g>
<!-- Node13&#45;&gt;Node14 -->
<g id="edge23_Node000013_Node000014" class="edge">
<title>Node13&#45;&gt;Node14</title>
<g id="a_edge23_Node000013_Node000014"><a xlink:title=" ">
<path fill="none" stroke="#63b8ff" d="M719.71,-100.18C705.41,-90.58 686.63,-77.98 674.82,-70.06"/>
<polygon fill="#63b8ff" stroke="#63b8ff" points="718.09,-103.31 728.35,-105.97 721.99,-97.5 718.09,-103.31"/>
</a>
</g>
</g>
<!-- Node15 -->
<g id="Node000015" class="node">
<title>Node15</title>
<g id="a_Node000015"><a xlink:href="../../d3/d77/best__first_8hpp.html" target="_top" xlink:title=" ">
<polygon fill="white" stroke="#666666" points="772.06,-70 707.06,-70 707.06,-53 772.06,-53 772.06,-70"/>
<text text-anchor="middle" x="739.56" y="-59.6" font-family="Helvetica,sans-Serif" font-size="8.00">best_first.hpp</text>
</a>
</g>
</g>
<!-- Node13&#45;&gt;Node15 -->
<g id="edge25_Node000013_Node000015" class="edge">
<title>Node13&#45;&gt;Node15</title>
<g id="a_edge25_Node000013_Node000015"><a xlink:title=" ">
<path fill="none" stroke="#63b8ff" d="M739.56,-95.91C739.56,-87.08 739.56,-76.85 739.56,-70.06"/>
<polygon fill="#63b8ff" stroke="#63b8ff" points="736.06,-95.97 739.56,-105.97 743.06,-95.97 736.06,-95.97"/>
</a>
</g>
</g>
<!-- Node16 -->
<g id="Node000016" class="node">
<title>Node16</title>
<g id="a_Node000016"><a xlink:href="../../da/d36/bfs_8hpp.html" target="_top" xlink:title=" ">
<polygon fill="white" stroke="#666666" points="833.06,-70 790.06,-70 790.06,-53 833.06,-53 833.06,-70"/>
<text text-anchor="middle" x="811.56" y="-59.6" font-family="Helvetica,sans-Serif" font-size="8.00">bfs.hpp</text>
</a>
</g>
</g>
<!-- Node13&#45;&gt;Node16 -->
<g id="edge27_Node000013_Node000016" class="edge">
<title>Node13&#45;&gt;Node16</title>
<g id="a_edge27_Node000013_Node000016"><a xlink:title=" ">
<path fill="none" stroke="#63b8ff" d="M758.36,-100.18C771.91,-90.58 789.71,-77.98 800.89,-70.06"/>
<polygon fill="#63b8ff" stroke="#63b8ff" points="756.32,-97.34 750.18,-105.97 760.37,-103.05 756.32,-97.34"/>
</a>
</g>
</g>
<!-- Node17 -->
<g id="Node000017" class="node">
<title>Node17</title>
<g id="a_Node000017"><a xlink:href="../../d3/dec/dfs_8hpp.html" target="_top" xlink:title=" ">
<polygon fill="white" stroke="#666666" points="894.06,-70 851.06,-70 851.06,-53 894.06,-53 894.06,-70"/>
<text text-anchor="middle" x="872.56" y="-59.6" font-family="Helvetica,sans-Serif" font-size="8.00">dfs.hpp</text>
</a>
</g>
</g>
<!-- Node13&#45;&gt;Node17 -->
<g id="edge30_Node000013_Node000017" class="edge">
<title>Node13&#45;&gt;Node17</title>
<g id="a_edge30_Node000013_Node000017"><a xlink:title=" ">
<path fill="none" stroke="#63b8ff" d="M768.72,-102.32C794.24,-92.53 830.62,-78.58 852.86,-70.06"/>
<polygon fill="#63b8ff" stroke="#63b8ff" points="767.27,-99.13 759.19,-105.97 769.78,-105.66 767.27,-99.13"/>
</a>
</g>
</g>
<!-- Node18 -->
<g id="Node000018" class="node">
<title>Node18</title>
<g id="a_Node000018"><a xlink:href="../../d1/d5a/fstar_8hpp.html" target="_top" xlink:title=" ">
<polygon fill="white" stroke="#666666" points="959.06,-70 912.06,-70 912.06,-53 959.06,-53 959.06,-70"/>
<text text-anchor="middle" x="935.56" y="-59.6" font-family="Helvetica,sans-Serif" font-size="8.00">fstar.hpp</text>
</a>
</g>
</g>
<!-- Node13&#45;&gt;Node18 -->
<g id="edge32_Node000013_Node000018" class="edge">
<title>Node13&#45;&gt;Node18</title>
<g id="a_edge32_Node000013_Node000018"><a xlink:title=" ">
<path fill="none" stroke="#63b8ff" d="M778.38,-103.4C818.24,-93.03 878.97,-77.23 912.06,-68.62"/>
<polygon fill="#63b8ff" stroke="#63b8ff" points="777.28,-100.07 768.48,-105.97 779.04,-106.84 777.28,-100.07"/>
</a>
</g>
</g>
<!-- Node14&#45;&gt;Node2 -->
<g id="edge24_Node000014_Node000002" class="edge">
<title>Node14&#45;&gt;Node2</title>
<g id="a_edge24_Node000014_Node000002"><a xlink:title=" ">
<path fill="none" stroke="#63b8ff" d="M628.68,-53.03C579.57,-42.5 491.31,-23.59 449.19,-14.56"/>
<polygon fill="#63b8ff" stroke="#63b8ff" points="628.03,-56.47 638.54,-55.14 629.5,-49.62 628.03,-56.47"/>
</a>
</g>
</g>
<!-- Node15&#45;&gt;Node2 -->
<g id="edge26_Node000015_Node000002" class="edge">
<title>Node15&#45;&gt;Node2</title>
<g id="a_edge26_Node000015_Node000002"><a xlink:title=" ">
<path fill="none" stroke="#63b8ff" d="M696.91,-52.92C598.66,-36.36 494.92,-20.19 449.23,-13.14"/>
<polygon fill="#63b8ff" stroke="#63b8ff" points="696.57,-56.41 707.01,-54.63 697.73,-49.51 696.57,-56.41"/>
</a>
</g>
</g>
<!-- Node16&#45;&gt;Node2 -->
<g id="edge28_Node000016_Node000002" class="edge">
<title>Node16&#45;&gt;Node2</title>
<g id="a_edge28_Node000016_Node000002"><a xlink:title=" ">
<path fill="none" stroke="#63b8ff" d="M779.78,-53.1C649.28,-29.82 505.27,-16.27 449.38,-11.46"/>
<polygon fill="#63b8ff" stroke="#63b8ff" points="779.49,-56.6 789.95,-54.93 780.73,-49.71 779.49,-56.6"/>
</a>
</g>
</g>
<!-- Node17&#45;&gt;Node2 -->
<g id="edge31_Node000017_Node000002" class="edge">
<title>Node17&#45;&gt;Node2</title>
<g id="a_edge31_Node000017_Node000002"><a xlink:title=" ">
<path fill="none" stroke="#63b8ff" d="M840.77,-53.14C685.73,-26.91 511.5,-14.7 449.17,-10.86"/>
<polygon fill="#63b8ff" stroke="#63b8ff" points="840.51,-56.64 850.96,-54.88 841.69,-49.74 840.51,-56.64"/>
</a>
</g>
</g>
<!-- Node18&#45;&gt;Node2 -->
<g id="edge33_Node000018_Node000002" class="edge">
<title>Node18&#45;&gt;Node2</title>
<g id="a_edge33_Node000018_Node000002"><a xlink:title=" ">
<path fill="none" stroke="#63b8ff" d="M901.96,-53.16C722.53,-25.24 518.33,-13.84 449.52,-10.56"/>
<polygon fill="#63b8ff" stroke="#63b8ff" points="901.42,-56.61 911.84,-54.71 902.51,-49.7 901.42,-56.61"/>
</a>
</g>
</g>
</g>
</svg>
