<?xml version="1.0" encoding="UTF-8" standalone="no"?>
<!DOCTYPE svg PUBLIC "-//W3C//DTD SVG 1.1//EN"
 "http://www.w3.org/Graphics/SVG/1.1/DTD/svg11.dtd">
<!-- Generated by graphviz version 2.43.0 (0)
 -->
<!-- Title: bnode.hpp Pages: 1 -->
<svg width="1332pt" height="184pt"
 viewBox="0.00 0.00 1332.09 184.00" xmlns="http://www.w3.org/2000/svg" xmlns:xlink="http://www.w3.org/1999/xlink">
<g id="graph0" class="graph" transform="scale(1 1) rotate(0) translate(4 180)">
<title>bnode.hpp</title>
<!-- Node1 -->
<g id="Node000001" class="node">
<title>Node1</title>
<g id="a_Node000001"><a xlink:title=" ">
<polygon fill="#999999" stroke="#666666" points="342.09,-176 281.09,-176 281.09,-159 342.09,-159 342.09,-176"/>
<text text-anchor="middle" x="311.59" y="-165.6" font-family="Helvetica,sans-Serif" font-size="8.00">bnode.hpp</text>
</a>
</g>
</g>
<!-- Node2 -->
<g id="Node000002" class="node">
<title>Node2</title>
<g id="a_Node000002"><a xlink:href="../../d9/d96/chdr_8hpp.html" target="_top" xlink:title=" ">
<polygon fill="white" stroke="#666666" points="619.59,-17 567.59,-17 567.59,0 619.59,0 619.59,-17"/>
<text text-anchor="middle" x="593.59" y="-6.6" font-family="Helvetica,sans-Serif" font-size="8.00">chdr.hpp</text>
</a>
</g>
</g>
<!-- Node1&#45;&gt;Node2 -->
<g id="edge1_Node000001_Node000002" class="edge">
<title>Node1&#45;&gt;Node2</title>
<g id="a_edge1_Node000001_Node000002"><a xlink:title=" ">
<path fill="none" stroke="#63b8ff" d="M270.61,-165.43C179.59,-162.24 -28.91,-150.1 3.59,-106 71.64,-13.67 461.9,-8.84 567.34,-9.24"/>
<polygon fill="#63b8ff" stroke="#63b8ff" points="270.73,-168.94 280.84,-165.77 270.96,-161.94 270.73,-168.94"/>
</a>
</g>
</g>
<!-- Node3 -->
<g id="Node000003" class="node">
<title>Node3</title>
<g id="a_Node000003"><a xlink:href="../../d6/ded/eidastar_8hpp.html" target="_top" xlink:title=" ">
<polygon fill="white" stroke="#666666" points="80.59,-123 12.59,-123 12.59,-106 80.59,-106 80.59,-123"/>
<text text-anchor="middle" x="46.59" y="-112.6" font-family="Helvetica,sans-Serif" font-size="8.00">eidastar.hpp</text>
</a>
</g>
</g>
<!-- Node1&#45;&gt;Node3 -->
<g id="edge2_Node000001_Node000003" class="edge">
<title>Node1&#45;&gt;Node3</title>
<g id="a_edge2_Node000001_Node000003"><a xlink:title=" ">
<path fill="none" stroke="#63b8ff" d="M271.04,-158.7C218.96,-148.67 129.5,-131.45 80.73,-122.07"/>
<polygon fill="#63b8ff" stroke="#63b8ff" points="270.45,-162.15 280.93,-160.6 271.78,-155.27 270.45,-162.15"/>
</a>
</g>
</g>
<!-- Node4 -->
<g id="Node000004" class="node">
<title>Node4</title>
<g id="a_Node000004"><a xlink:href="../../d8/d85/eidbest__first_8hpp.html" target="_top" xlink:title=" ">
<polygon fill="white" stroke="#666666" points="184.09,-123 99.09,-123 99.09,-106 184.09,-106 184.09,-123"/>
<text text-anchor="middle" x="141.59" y="-112.6" font-family="Helvetica,sans-Serif" font-size="8.00">eidbest_first.hpp</text>
</a>
</g>
</g>
<!-- Node1&#45;&gt;Node4 -->
<g id="edge4_Node000001_Node000004" class="edge">
<title>Node1&#45;&gt;Node4</title>
<g id="a_edge4_Node000001_Node000004"><a xlink:title=" ">
<path fill="none" stroke="#63b8ff" d="M276.89,-156.09C244.18,-146.28 195.95,-131.81 166.78,-123.06"/>
<polygon fill="#63b8ff" stroke="#63b8ff" points="275.92,-159.45 286.51,-158.97 277.94,-152.75 275.92,-159.45"/>
</a>
</g>
</g>
<!-- Node5 -->
<g id="Node000005" class="node">
<title>Node5</title>
<g id="a_Node000005"><a xlink:href="../../dd/d95/eiddfs_8hpp.html" target="_top" xlink:title=" ">
<polygon fill="white" stroke="#666666" points="262.59,-123 202.59,-123 202.59,-106 262.59,-106 262.59,-123"/>
<text text-anchor="middle" x="232.59" y="-112.6" font-family="Helvetica,sans-Serif" font-size="8.00">eiddfs.hpp</text>
</a>
</g>
</g>
<!-- Node1&#45;&gt;Node5 -->
<g id="edge6_Node000001_Node000005" class="edge">
<title>Node1&#45;&gt;Node5</title>
<g id="a_edge6_Node000001_Node000005"><a xlink:title=" ">
<path fill="none" stroke="#63b8ff" d="M291.39,-153.46C276.47,-143.83 256.69,-131.05 244.3,-123.06"/>
<polygon fill="#63b8ff" stroke="#63b8ff" points="289.64,-156.49 299.94,-158.97 293.43,-150.61 289.64,-156.49"/>
</a>
</g>
</g>
<!-- Node6 -->
<g id="Node000006" class="node">
<title>Node6</title>
<g id="a_Node000006"><a xlink:href="../../db/df9/idastar_8hpp.html" target="_top" xlink:title=" ">
<polygon fill="white" stroke="#666666" points="342.59,-123 280.59,-123 280.59,-106 342.59,-106 342.59,-123"/>
<text text-anchor="middle" x="311.59" y="-112.6" font-family="Helvetica,sans-Serif" font-size="8.00">idastar.hpp</text>
</a>
</g>
</g>
<!-- Node1&#45;&gt;Node6 -->
<g id="edge8_Node000001_Node000006" class="edge">
<title>Node1&#45;&gt;Node6</title>
<g id="a_edge8_Node000001_Node000006"><a xlink:title=" ">
<path fill="none" stroke="#63b8ff" d="M311.59,-148.91C311.59,-140.08 311.59,-129.85 311.59,-123.06"/>
<polygon fill="#63b8ff" stroke="#63b8ff" points="308.09,-148.97 311.59,-158.97 315.09,-148.97 308.09,-148.97"/>
</a>
</g>
</g>
<!-- Node7 -->
<g id="Node000007" class="node">
<title>Node7</title>
<g id="a_Node000007"><a xlink:href="../../d1/d3a/idbest__first_8hpp.html" target="_top" xlink:title=" ">
<polygon fill="white" stroke="#666666" points="440.59,-123 360.59,-123 360.59,-106 440.59,-106 440.59,-123"/>
<text text-anchor="middle" x="400.59" y="-112.6" font-family="Helvetica,sans-Serif" font-size="8.00">idbest_first.hpp</text>
</a>
</g>
</g>
<!-- Node1&#45;&gt;Node7 -->
<g id="edge10_Node000001_Node000007" class="edge">
<title>Node1&#45;&gt;Node7</title>
<g id="a_edge10_Node000001_Node000007"><a xlink:title=" ">
<path fill="none" stroke="#63b8ff" d="M333.41,-154C350.32,-144.31 373.19,-131.2 387.41,-123.06"/>
<polygon fill="#63b8ff" stroke="#63b8ff" points="331.66,-150.97 324.72,-158.97 335.14,-157.04 331.66,-150.97"/>
</a>
</g>
</g>
<!-- Node8 -->
<g id="Node000008" class="node">
<title>Node8</title>
<g id="a_Node000008"><a xlink:href="../../df/d71/iddfs_8hpp.html" target="_top" xlink:title=" ">
<polygon fill="white" stroke="#666666" points="514.09,-123 459.09,-123 459.09,-106 514.09,-106 514.09,-123"/>
<text text-anchor="middle" x="486.59" y="-112.6" font-family="Helvetica,sans-Serif" font-size="8.00">iddfs.hpp</text>
</a>
</g>
</g>
<!-- Node1&#45;&gt;Node8 -->
<g id="edge12_Node000001_Node000008" class="edge">
<title>Node1&#45;&gt;Node8</title>
<g id="a_edge12_Node000001_Node000008"><a xlink:title=" ">
<path fill="none" stroke="#63b8ff" d="M347.31,-156.09C380.98,-146.28 430.63,-131.81 460.66,-123.06"/>
<polygon fill="#63b8ff" stroke="#63b8ff" points="346.04,-152.82 337.41,-158.97 347.99,-159.54 346.04,-152.82"/>
</a>
</g>
</g>
<!-- Node9 -->
<g id="Node000009" class="node">
<title>Node9</title>
<g id="a_Node000009"><a xlink:href="../../da/deb/managed__node_8hpp.html" target="_top" xlink:title=" ">
<polygon fill="white" stroke="#666666" points="630.59,-123 532.59,-123 532.59,-106 630.59,-106 630.59,-123"/>
<text text-anchor="middle" x="581.59" y="-112.6" font-family="Helvetica,sans-Serif" font-size="8.00">managed_node.hpp</text>
</a>
</g>
</g>
<!-- Node1&#45;&gt;Node9 -->
<g id="edge14_Node000001_Node000009" class="edge">
<title>Node1&#45;&gt;Node9</title>
<g id="a_edge14_Node000001_Node000009"><a xlink:title=" ">
<path fill="none" stroke="#63b8ff" d="M352.35,-158.8C403.58,-149.12 490.93,-132.62 541.73,-123.03"/>
<polygon fill="#63b8ff" stroke="#63b8ff" points="351.48,-155.4 342.3,-160.7 352.78,-162.28 351.48,-155.4"/>
</a>
</g>
</g>
<!-- Node15 -->
<g id="Node000015" class="node">
<title>Node15</title>
<g id="a_Node000015"><a xlink:href="../../d0/def/unmanaged__node_8hpp.html" target="_top" xlink:title=" ">
<polygon fill="white" stroke="#666666" points="1063.09,-123 954.09,-123 954.09,-106 1063.09,-106 1063.09,-123"/>
<text text-anchor="middle" x="1008.59" y="-112.6" font-family="Helvetica,sans-Serif" font-size="8.00">unmanaged_node.hpp</text>
</a>
</g>
</g>
<!-- Node1&#45;&gt;Node15 -->
<g id="edge26_Node000001_Node000015" class="edge">
<title>Node1&#45;&gt;Node15</title>
<g id="a_edge26_Node000001_Node000015"><a xlink:title=" ">
<path fill="none" stroke="#63b8ff" d="M352.61,-163.5C471.93,-154.77 818.94,-129.38 953.95,-119.5"/>
<polygon fill="#63b8ff" stroke="#63b8ff" points="352.16,-160.02 342.44,-164.24 352.67,-167 352.16,-160.02"/>
</a>
</g>
</g>
<!-- Node3&#45;&gt;Node2 -->
<g id="edge3_Node000003_Node000002" class="edge">
<title>Node3&#45;&gt;Node2</title>
<g id="a_edge3_Node000003_Node000002"><a xlink:title=" ">
<path fill="none" stroke="#63b8ff" d="M76.64,-102.54C115.07,-88.93 183.93,-65.95 244.59,-53 363.72,-27.57 509.13,-15.36 567.51,-11.21"/>
<polygon fill="#63b8ff" stroke="#63b8ff" points="75.33,-99.29 67.09,-105.95 77.69,-105.88 75.33,-99.29"/>
</a>
</g>
</g>
<!-- Node4&#45;&gt;Node2 -->
<g id="edge5_Node000004_Node000002" class="edge">
<title>Node4&#45;&gt;Node2</title>
<g id="a_edge5_Node000004_Node000002"><a xlink:title=" ">
<path fill="none" stroke="#63b8ff" d="M167.29,-101.82C198.44,-88.13 252.84,-65.69 301.59,-53 397.82,-27.95 515.89,-15.88 567.44,-11.51"/>
<polygon fill="#63b8ff" stroke="#63b8ff" points="165.74,-98.68 158.03,-105.94 168.59,-105.08 165.74,-98.68"/>
</a>
</g>
</g>
<!-- Node5&#45;&gt;Node2 -->
<g id="edge7_Node000005_Node000002" class="edge">
<title>Node5&#45;&gt;Node2</title>
<g id="a_edge7_Node000005_Node000002"><a xlink:title=" ">
<path fill="none" stroke="#63b8ff" d="M252.22,-100.21C273.71,-86.29 309.66,-64.84 343.59,-53 422.21,-25.57 521.01,-14.93 567.34,-11.24"/>
<polygon fill="#63b8ff" stroke="#63b8ff" points="250.1,-97.41 243.68,-105.84 253.96,-103.26 250.1,-97.41"/>
</a>
</g>
</g>
<!-- Node6&#45;&gt;Node2 -->
<g id="edge9_Node000006_Node000002" class="edge">
<title>Node6&#45;&gt;Node2</title>
<g id="a_edge9_Node000006_Node000002"><a xlink:title=" ">
<path fill="none" stroke="#63b8ff" d="M322.46,-97.51C332.88,-83.5 349.89,-63.74 369.59,-53 434.46,-17.63 523.7,-10.71 567.37,-9.56"/>
<polygon fill="#63b8ff" stroke="#63b8ff" points="319.56,-95.56 316.61,-105.73 325.26,-99.61 319.56,-95.56"/>
</a>
</g>
</g>
<!-- Node7&#45;&gt;Node2 -->
<g id="edge11_Node000007_Node000002" class="edge">
<title>Node7&#45;&gt;Node2</title>
<g id="a_edge11_Node000007_Node000002"><a xlink:title=" ">
<path fill="none" stroke="#63b8ff" d="M386.44,-97.55C376.58,-84.45 366.95,-66 377.59,-53 401.34,-23.99 515.34,-13.9 567.47,-10.77"/>
<polygon fill="#63b8ff" stroke="#63b8ff" points="384.01,-100.11 393.05,-105.63 389.43,-95.68 384.01,-100.11"/>
</a>
</g>
</g>
<!-- Node8&#45;&gt;Node2 -->
<g id="edge13_Node000008_Node000002" class="edge">
<title>Node8&#45;&gt;Node2</title>
<g id="a_edge13_Node000008_Node000002"><a xlink:title=" ">
<path fill="none" stroke="#63b8ff" d="M450.74,-102.86C424.56,-94.28 392.36,-81.75 384.59,-70 380.43,-63.7 379.83,-58.86 384.59,-53 407.39,-24.97 516.72,-14.4 567.53,-10.96"/>
<polygon fill="#63b8ff" stroke="#63b8ff" points="449.82,-106.24 460.41,-105.94 451.94,-99.57 449.82,-106.24"/>
</a>
</g>
</g>
<!-- Node9&#45;&gt;Node2 -->
<g id="edge15_Node000009_Node000002" class="edge">
<title>Node9&#45;&gt;Node2</title>
<g id="a_edge15_Node000009_Node000002"><a xlink:title=" ">
<path fill="none" stroke="#63b8ff" d="M525.21,-104.23C472.3,-94.96 400.04,-80.6 391.59,-70 386.88,-64.09 386.85,-58.88 391.59,-53 413.4,-26 517.65,-14.96 567.25,-11.18"/>
<polygon fill="#63b8ff" stroke="#63b8ff" points="524.73,-107.7 535.18,-105.96 525.92,-100.8 524.73,-107.7"/>
</a>
</g>
</g>
<!-- Node10 -->
<g id="Node000010" class="node">
<title>Node10</title>
<g id="a_Node000010"><a xlink:href="../../d3/d3e/gbest__first_8hpp.html" target="_top" xlink:title=" ">
<polygon fill="white" stroke="#666666" points="478.09,-70 401.09,-70 401.09,-53 478.09,-53 478.09,-70"/>
<text text-anchor="middle" x="439.59" y="-59.6" font-family="Helvetica,sans-Serif" font-size="8.00">gbest_first.hpp</text>
</a>
</g>
</g>
<!-- Node9&#45;&gt;Node10 -->
<g id="edge16_Node000009_Node000010" class="edge">
<title>Node9&#45;&gt;Node10</title>
<g id="a_edge16_Node000009_Node000010"><a xlink:title=" ">
<path fill="none" stroke="#63b8ff" d="M551.18,-102.58C523.9,-92.78 484.58,-78.66 460.63,-70.06"/>
<polygon fill="#63b8ff" stroke="#63b8ff" points="550.05,-105.89 560.64,-105.97 552.41,-99.3 550.05,-105.89"/>
</a>
</g>
</g>
<!-- Node11 -->
<g id="Node000011" class="node">
<title>Node11</title>
<g id="a_Node000011"><a xlink:href="../../de/d94/gbfs_8hpp.html" target="_top" xlink:title=" ">
<polygon fill="white" stroke="#666666" points="549.09,-70 496.09,-70 496.09,-53 549.09,-53 549.09,-70"/>
<text text-anchor="middle" x="522.59" y="-59.6" font-family="Helvetica,sans-Serif" font-size="8.00">gbfs.hpp</text>
</a>
</g>
</g>
<!-- Node9&#45;&gt;Node11 -->
<g id="edge18_Node000009_Node000011" class="edge">
<title>Node9&#45;&gt;Node11</title>
<g id="a_edge18_Node000009_Node000011"><a xlink:title=" ">
<path fill="none" stroke="#63b8ff" d="M565.23,-99.35C554.25,-89.87 540.24,-77.75 531.33,-70.06"/>
<polygon fill="#63b8ff" stroke="#63b8ff" points="563.03,-102.08 572.89,-105.97 567.61,-96.79 563.03,-102.08"/>
</a>
</g>
</g>
<!-- Node12 -->
<g id="Node000012" class="node">
<title>Node12</title>
<g id="a_Node000012"><a xlink:href="../../d4/df2/gdfs_8hpp.html" target="_top" xlink:title=" ">
<polygon fill="white" stroke="#666666" points="620.09,-70 567.09,-70 567.09,-53 620.09,-53 620.09,-70"/>
<text text-anchor="middle" x="593.59" y="-59.6" font-family="Helvetica,sans-Serif" font-size="8.00">gdfs.hpp</text>
</a>
</g>
</g>
<!-- Node9&#45;&gt;Node12 -->
<g id="edge20_Node000009_Node000012" class="edge">
<title>Node9&#45;&gt;Node12</title>
<g id="a_edge20_Node000009_Node000012"><a xlink:title=" ">
<path fill="none" stroke="#63b8ff" d="M585.66,-96.2C587.76,-87.31 590.2,-76.92 591.81,-70.06"/>
<polygon fill="#63b8ff" stroke="#63b8ff" points="582.25,-95.44 583.36,-105.97 589.06,-97.04 582.25,-95.44"/>
</a>
</g>
</g>
<!-- Node13 -->
<g id="Node000013" class="node">
<title>Node13</title>
<g id="a_Node000013"><a xlink:href="../../d3/d3e/gjps_8hpp.html" target="_top" xlink:title=" ">
<polygon fill="white" stroke="#666666" points="690.59,-70 638.59,-70 638.59,-53 690.59,-53 690.59,-70"/>
<text text-anchor="middle" x="664.59" y="-59.6" font-family="Helvetica,sans-Serif" font-size="8.00">gjps.hpp</text>
</a>
</g>
</g>
<!-- Node9&#45;&gt;Node13 -->
<g id="edge22_Node000009_Node000013" class="edge">
<title>Node9&#45;&gt;Node13</title>
<g id="a_edge22_Node000009_Node000013"><a xlink:title=" ">
<path fill="none" stroke="#63b8ff" d="M602.38,-100.73C618.1,-91.07 639.16,-78.13 652.3,-70.06"/>
<polygon fill="#63b8ff" stroke="#63b8ff" points="600.53,-97.76 593.84,-105.97 604.19,-103.72 600.53,-97.76"/>
</a>
</g>
</g>
<!-- Node14 -->
<g id="Node000014" class="node">
<title>Node14</title>
<g id="a_Node000014"><a xlink:href="../../d1/def/gstar_8hpp.html" target="_top" xlink:title=" ">
<polygon fill="white" stroke="#666666" points="764.09,-70 709.09,-70 709.09,-53 764.09,-53 764.09,-70"/>
<text text-anchor="middle" x="736.59" y="-59.6" font-family="Helvetica,sans-Serif" font-size="8.00">gstar.hpp</text>
</a>
</g>
</g>
<!-- Node9&#45;&gt;Node14 -->
<g id="edge24_Node000009_Node000014" class="edge">
<title>Node9&#45;&gt;Node14</title>
<g id="a_edge24_Node000009_Node000014"><a xlink:title=" ">
<path fill="none" stroke="#63b8ff" d="M614,-102.84C643.81,-93.03 687.26,-78.73 713.63,-70.06"/>
<polygon fill="#63b8ff" stroke="#63b8ff" points="612.87,-99.52 604.46,-105.97 615.06,-106.17 612.87,-99.52"/>
</a>
</g>
</g>
<!-- Node10&#45;&gt;Node2 -->
<g id="edge17_Node000010_Node000002" class="edge">
<title>Node10&#45;&gt;Node2</title>
<g id="a_edge17_Node000010_Node000002"><a xlink:title=" ">
<path fill="none" stroke="#63b8ff" d="M472.18,-49.71C501.78,-39.9 544.69,-25.69 570.78,-17.06"/>
<polygon fill="#63b8ff" stroke="#63b8ff" points="470.71,-46.51 462.32,-52.97 472.91,-53.15 470.71,-46.51"/>
</a>
</g>
</g>
<!-- Node11&#45;&gt;Node2 -->
<g id="edge19_Node000011_Node000002" class="edge">
<title>Node11&#45;&gt;Node2</title>
<g id="a_edge19_Node000011_Node000002"><a xlink:title=" ">
<path fill="none" stroke="#63b8ff" d="M541.52,-46.91C554.83,-37.34 572.15,-24.9 583.07,-17.06"/>
<polygon fill="#63b8ff" stroke="#63b8ff" points="539.15,-44.3 533.07,-52.97 543.23,-49.98 539.15,-44.3"/>
</a>
</g>
</g>
<!-- Node12&#45;&gt;Node2 -->
<g id="edge21_Node000012_Node000002" class="edge">
<title>Node12&#45;&gt;Node2</title>
<g id="a_edge21_Node000012_Node000002"><a xlink:title=" ">
<path fill="none" stroke="#63b8ff" d="M593.59,-42.91C593.59,-34.08 593.59,-23.85 593.59,-17.06"/>
<polygon fill="#63b8ff" stroke="#63b8ff" points="590.09,-42.97 593.59,-52.97 597.09,-42.97 590.09,-42.97"/>
</a>
</g>
</g>
<!-- Node13&#45;&gt;Node2 -->
<g id="edge23_Node000013_Node000002" class="edge">
<title>Node13&#45;&gt;Node2</title>
<g id="a_edge23_Node000013_Node000002"><a xlink:title=" ">
<path fill="none" stroke="#63b8ff" d="M645.67,-46.91C632.36,-37.34 615.04,-24.9 604.11,-17.06"/>
<polygon fill="#63b8ff" stroke="#63b8ff" points="643.95,-49.98 654.12,-52.97 648.04,-44.3 643.95,-49.98"/>
</a>
</g>
</g>
<!-- Node14&#45;&gt;Node2 -->
<g id="edge25_Node000014_Node000002" class="edge">
<title>Node14&#45;&gt;Node2</title>
<g id="a_edge25_Node000014_Node000002"><a xlink:title=" ">
<path fill="none" stroke="#63b8ff" d="M705.97,-49.58C678.5,-39.78 638.9,-25.66 614.78,-17.06"/>
<polygon fill="#63b8ff" stroke="#63b8ff" points="704.9,-52.91 715.49,-52.97 707.25,-46.32 704.9,-52.91"/>
</a>
</g>
</g>
<!-- Node15&#45;&gt;Node2 -->
<g id="edge33_Node000015_Node000002" class="edge">
<title>Node15&#45;&gt;Node2</title>
<g id="a_edge33_Node000015_Node000002"><a xlink:title=" ">
<path fill="none" stroke="#63b8ff" d="M952.48,-104.11C912.64,-96.71 858.17,-85.14 811.59,-70 793.61,-64.16 790.51,-59.03 772.59,-53 719.4,-35.09 655.01,-21.29 619.78,-14.39"/>
<polygon fill="#63b8ff" stroke="#63b8ff" points="952.07,-107.59 962.54,-105.94 953.33,-100.7 952.07,-107.59"/>
</a>
</g>
</g>
<!-- Node16 -->
<g id="Node000016" class="node">
<title>Node16</title>
<g id="a_Node000016"><a xlink:href="../../dc/da9/astar_8hpp.html" target="_top" xlink:title=" ">
<polygon fill="white" stroke="#666666" points="876.09,-70 821.09,-70 821.09,-53 876.09,-53 876.09,-70"/>
<text text-anchor="middle" x="848.59" y="-59.6" font-family="Helvetica,sans-Serif" font-size="8.00">astar.hpp</text>
</a>
</g>
</g>
<!-- Node15&#45;&gt;Node16 -->
<g id="edge27_Node000015_Node000016" class="edge">
<title>Node15&#45;&gt;Node16</title>
<g id="a_edge27_Node000015_Node000016"><a xlink:title=" ">
<path fill="none" stroke="#63b8ff" d="M975.14,-102.84C944.37,-93.03 899.52,-78.73 872.3,-70.06"/>
<polygon fill="#63b8ff" stroke="#63b8ff" points="974.39,-106.27 984.98,-105.97 976.52,-99.6 974.39,-106.27"/>
</a>
</g>
</g>
<!-- Node17 -->
<g id="Node000017" class="node">
<title>Node17</title>
<g id="a_Node000017"><a xlink:href="../../d3/d77/best__first_8hpp.html" target="_top" xlink:title=" ">
<polygon fill="white" stroke="#666666" points="966.59,-70 894.59,-70 894.59,-53 966.59,-53 966.59,-70"/>
<text text-anchor="middle" x="930.59" y="-59.6" font-family="Helvetica,sans-Serif" font-size="8.00">best_first.hpp</text>
</a>
</g>
</g>
<!-- Node15&#45;&gt;Node17 -->
<g id="edge29_Node000015_Node000017" class="edge">
<title>Node15&#45;&gt;Node17</title>
<g id="a_edge29_Node000015_Node000017"><a xlink:title=" ">
<path fill="none" stroke="#63b8ff" d="M988.64,-100.46C973.91,-90.83 954.38,-78.05 942.15,-70.06"/>
<polygon fill="#63b8ff" stroke="#63b8ff" points="986.8,-103.43 997.08,-105.97 990.63,-97.57 986.8,-103.43"/>
</a>
</g>
</g>
<!-- Node18 -->
<g id="Node000018" class="node">
<title>Node18</title>
<g id="a_Node000018"><a xlink:href="../../da/d36/bfs_8hpp.html" target="_top" xlink:title=" ">
<polygon fill="white" stroke="#666666" points="1032.09,-70 985.09,-70 985.09,-53 1032.09,-53 1032.09,-70"/>
<text text-anchor="middle" x="1008.59" y="-59.6" font-family="Helvetica,sans-Serif" font-size="8.00">bfs.hpp</text>
</a>
</g>
</g>
<!-- Node15&#45;&gt;Node18 -->
<g id="edge31_Node000015_Node000018" class="edge">
<title>Node15&#45;&gt;Node18</title>
<g id="a_edge31_Node000015_Node000018"><a xlink:title=" ">
<path fill="none" stroke="#63b8ff" d="M1008.59,-95.91C1008.59,-87.08 1008.59,-76.85 1008.59,-70.06"/>
<polygon fill="#63b8ff" stroke="#63b8ff" points="1005.09,-95.97 1008.59,-105.97 1012.09,-95.97 1005.09,-95.97"/>
</a>
</g>
</g>
<!-- Node19 -->
<g id="Node000019" class="node">
<title>Node19</title>
<g id="a_Node000019"><a xlink:href="../../d3/dec/dfs_8hpp.html" target="_top" xlink:title=" ">
<polygon fill="white" stroke="#666666" points="1097.09,-70 1050.09,-70 1050.09,-53 1097.09,-53 1097.09,-70"/>
<text text-anchor="middle" x="1073.59" y="-59.6" font-family="Helvetica,sans-Serif" font-size="8.00">dfs.hpp</text>
</a>
</g>
</g>
<!-- Node15&#45;&gt;Node19 -->
<g id="edge34_Node000015_Node000019" class="edge">
<title>Node15&#45;&gt;Node19</title>
<g id="a_edge34_Node000015_Node000019"><a xlink:title=" ">
<path fill="none" stroke="#63b8ff" d="M1026.27,-99.63C1038.41,-90.11 1054.06,-77.83 1063.96,-70.06"/>
<polygon fill="#63b8ff" stroke="#63b8ff" points="1023.89,-97.05 1018.18,-105.97 1028.21,-102.56 1023.89,-97.05"/>
</a>
</g>
</g>
<!-- Node20 -->
<g id="Node000020" class="node">
<title>Node20</title>
<g id="a_Node000020"><a xlink:href="../../d8/dd5/fringe_8hpp.html" target="_top" xlink:title=" ">
<polygon fill="white" stroke="#666666" points="1174.09,-70 1115.09,-70 1115.09,-53 1174.09,-53 1174.09,-70"/>
<text text-anchor="middle" x="1144.59" y="-59.6" font-family="Helvetica,sans-Serif" font-size="8.00">fringe.hpp</text>
</a>
</g>
</g>
<!-- Node15&#45;&gt;Node20 -->
<g id="edge36_Node000015_Node000020" class="edge">
<title>Node15&#45;&gt;Node20</title>
<g id="a_edge36_Node000015_Node000020"><a xlink:title=" ">
<path fill="none" stroke="#63b8ff" d="M1038.06,-102.45C1064.18,-92.66 1101.61,-78.62 1124.44,-70.06"/>
<polygon fill="#63b8ff" stroke="#63b8ff" points="1036.79,-99.19 1028.66,-105.97 1039.25,-105.74 1036.79,-99.19"/>
</a>
</g>
</g>
<!-- Node21 -->
<g id="Node000021" class="node">
<title>Node21</title>
<g id="a_Node000021"><a xlink:href="../../d9/de6/jps_8hpp.html" target="_top" xlink:title=" ">
<polygon fill="white" stroke="#666666" points="1239.09,-70 1192.09,-70 1192.09,-53 1239.09,-53 1239.09,-70"/>
<text text-anchor="middle" x="1215.59" y="-59.6" font-family="Helvetica,sans-Serif" font-size="8.00">jps.hpp</text>
</a>
</g>
</g>
<!-- Node15&#45;&gt;Node21 -->
<g id="edge38_Node000015_Node000021" class="edge">
<title>Node15&#45;&gt;Node21</title>
<g id="a_edge38_Node000015_Node000021"><a xlink:title=" ">
<path fill="none" stroke="#63b8ff" d="M1048.9,-103.57C1091.48,-93.08 1157.16,-76.9 1192,-68.31"/>
<polygon fill="#63b8ff" stroke="#63b8ff" points="1048.01,-100.18 1039.14,-105.97 1049.68,-106.98 1048.01,-100.18"/>
</a>
</g>
</g>
<!-- Node22 -->
<g id="Node000022" class="node">
<title>Node22</title>
<g id="a_Node000022"><a xlink:href="../../dd/d57/smastar_8hpp.html" target="_top" xlink:title=" ">
<polygon fill="white" stroke="#666666" points="1324.09,-70 1257.09,-70 1257.09,-53 1324.09,-53 1324.09,-70"/>
<text text-anchor="middle" x="1290.59" y="-59.6" font-family="Helvetica,sans-Serif" font-size="8.00">smastar.hpp</text>
</a>
</g>
</g>
<!-- Node15&#45;&gt;Node22 -->
<g id="edge40_Node000015_Node000022" class="edge">
<title>Node15&#45;&gt;Node22</title>
<g id="a_edge40_Node000015_Node000022"><a xlink:title=" ">
<path fill="none" stroke="#63b8ff" d="M1060.13,-104.18C1117.31,-93.84 1207.95,-77.45 1256.78,-68.62"/>
<polygon fill="#63b8ff" stroke="#63b8ff" points="1059.42,-100.75 1050.2,-105.97 1060.67,-107.64 1059.42,-100.75"/>
</a>
</g>
</g>
<!-- Node16&#45;&gt;Node2 -->
<g id="edge28_Node000016_Node000002" class="edge">
<title>Node16&#45;&gt;Node2</title>
<g id="a_edge28_Node000016_Node000002"><a xlink:title=" ">
<path fill="none" stroke="#63b8ff" d="M810.92,-52.97C758.58,-42.5 665.19,-23.82 619.8,-14.74"/>
<polygon fill="#63b8ff" stroke="#63b8ff" points="810.33,-56.42 820.82,-54.95 811.7,-49.55 810.33,-56.42"/>
</a>
</g>
</g>
<!-- Node17&#45;&gt;Node2 -->
<g id="edge30_Node000017_Node000002" class="edge">
<title>Node17&#45;&gt;Node2</title>
<g id="a_edge30_Node000017_Node000002"><a xlink:title=" ">
<path fill="none" stroke="#63b8ff" d="M884.34,-52.98C779.73,-36.68 669.06,-20.46 619.7,-13.28"/>
<polygon fill="#63b8ff" stroke="#63b8ff" points="884.02,-56.47 894.44,-54.56 885.1,-49.56 884.02,-56.47"/>
</a>
</g>
</g>
<!-- Node18&#45;&gt;Node2 -->
<g id="edge32_Node000018_Node000002" class="edge">
<title>Node18&#45;&gt;Node2</title>
<g id="a_edge32_Node000018_Node000002"><a xlink:title=" ">
<path fill="none" stroke="#63b8ff" d="M974.83,-53.08C835.18,-29.75 680.22,-16.27 619.67,-11.47"/>
<polygon fill="#63b8ff" stroke="#63b8ff" points="974.42,-56.56 984.86,-54.78 975.59,-49.66 974.42,-56.56"/>
</a>
</g>
</g>
<!-- Node19&#45;&gt;Node2 -->
<g id="edge35_Node000019_Node000002" class="edge">
<title>Node19&#45;&gt;Node2</title>
<g id="a_edge35_Node000019_Node000002"><a xlink:title=" ">
<path fill="none" stroke="#63b8ff" d="M1039.51,-53.07C874.17,-26.86 687.79,-14.74 619.94,-10.9"/>
<polygon fill="#63b8ff" stroke="#63b8ff" points="1039.44,-56.6 1049.87,-54.73 1040.55,-49.69 1039.44,-56.6"/>
</a>
</g>
</g>
<!-- Node20&#45;&gt;Node2 -->
<g id="edge37_Node000020_Node000002" class="edge">
<title>Node20&#45;&gt;Node2</title>
<g id="a_edge37_Node000020_Node000002"><a xlink:title=" ">
<path fill="none" stroke="#63b8ff" d="M1104.84,-53.07C912.81,-26.97 694.15,-14.5 619.81,-10.75"/>
<polygon fill="#63b8ff" stroke="#63b8ff" points="1104.45,-56.55 1114.84,-54.44 1105.41,-49.61 1104.45,-56.55"/>
</a>
</g>
</g>
<!-- Node21&#45;&gt;Node2 -->
<g id="edge39_Node000021_Node000002" class="edge">
<title>Node21&#45;&gt;Node2</title>
<g id="a_edge39_Node000021_Node000002"><a xlink:title=" ">
<path fill="none" stroke="#63b8ff" d="M1181.97,-53.19C959.16,-20.45 701.69,-12.01 619.87,-10.04"/>
<polygon fill="#63b8ff" stroke="#63b8ff" points="1181.47,-56.65 1191.88,-54.66 1182.5,-49.73 1181.47,-56.65"/>
</a>
</g>
</g>
<!-- Node22&#45;&gt;Node2 -->
<g id="edge41_Node000022_Node000002" class="edge">
<title>Node22&#45;&gt;Node2</title>
<g id="a_edge41_Node000022_Node000002"><a xlink:title=" ">
<path fill="none" stroke="#63b8ff" d="M1246.85,-53.07C996.91,-23.54 707.33,-12.94 619.85,-10.24"/>
<polygon fill="#63b8ff" stroke="#63b8ff" points="1246.5,-56.55 1256.84,-54.26 1247.33,-49.6 1246.5,-56.55"/>
</a>
</g>
</g>
</g>
</svg>
