<?xml version="1.0" encoding="UTF-8" standalone="no"?>
<!DOCTYPE svg PUBLIC "-//W3C//DTD SVG 1.1//EN"
 "http://www.w3.org/Graphics/SVG/1.1/DTD/svg11.dtd">
<!-- Generated by graphviz version 2.43.0 (0)
 -->
<!-- Title: bnode.hpp Pages: 1 -->
<svg width="1082pt" height="184pt"
 viewBox="0.00 0.00 1081.57 184.00" xmlns="http://www.w3.org/2000/svg" xmlns:xlink="http://www.w3.org/1999/xlink">
<g id="graph0" class="graph" transform="scale(1 1) rotate(0) translate(4 180)">
<title>bnode.hpp</title>
<!-- Node1 -->
<g id="Node000001" class="node">
<title>Node1</title>
<g id="a_Node000001"><a xlink:title=" ">
<polygon fill="#999999" stroke="#666666" points="311.07,-176 256.07,-176 256.07,-159 311.07,-159 311.07,-176"/>
<text text-anchor="middle" x="283.57" y="-165.6" font-family="Helvetica,sans-Serif" font-size="8.00">bnode.hpp</text>
</a>
</g>
</g>
<!-- Node2 -->
<g id="Node000002" class="node">
<title>Node2</title>
<g id="a_Node000002"><a xlink:href="../../d9/d96/chdr_8hpp.html" target="_top" xlink:title=" ">
<polygon fill="white" stroke="#666666" points="503.07,-17 456.07,-17 456.07,0 503.07,0 503.07,-17"/>
<text text-anchor="middle" x="479.57" y="-6.6" font-family="Helvetica,sans-Serif" font-size="8.00">chdr.hpp</text>
</a>
</g>
</g>
<!-- Node1&#45;&gt;Node2 -->
<g id="edge1_Node000001_Node000002" class="edge">
<title>Node1&#45;&gt;Node2</title>
<g id="a_edge1_Node000001_Node000002"><a xlink:title=" ">
<path fill="none" stroke="#63b8ff" d="M245.73,-166.43C176.63,-165.41 34.31,-158.89 3.57,-123 -1.35,-117.26 -0.87,-112.11 3.57,-106 57.83,-31.3 367.6,-13.78 456.01,-10.28"/>
<polygon fill="#63b8ff" stroke="#63b8ff" points="245.72,-169.93 255.76,-166.55 245.8,-162.93 245.72,-169.93"/>
</a>
</g>
</g>
<!-- Node3 -->
<g id="Node000003" class="node">
<title>Node3</title>
<g id="a_Node000003"><a xlink:href="../../d6/ded/eidastar_8hpp.html" target="_top" xlink:title=" ">
<polygon fill="white" stroke="#666666" points="72.57,-123 12.57,-123 12.57,-106 72.57,-106 72.57,-123"/>
<text text-anchor="middle" x="42.57" y="-112.6" font-family="Helvetica,sans-Serif" font-size="8.00">eidastar.hpp</text>
</a>
</g>
</g>
<!-- Node1&#45;&gt;Node3 -->
<g id="edge2_Node000001_Node000003" class="edge">
<title>Node1&#45;&gt;Node3</title>
<g id="a_edge2_Node000001_Node000003"><a xlink:title=" ">
<path fill="none" stroke="#63b8ff" d="M245.99,-158.55C198.28,-148.45 116.88,-131.23 72.91,-121.92"/>
<polygon fill="#63b8ff" stroke="#63b8ff" points="245.41,-162 255.92,-160.65 246.86,-155.16 245.41,-162"/>
</a>
</g>
</g>
<!-- Node4 -->
<g id="Node000004" class="node">
<title>Node4</title>
<g id="a_Node000004"><a xlink:href="../../d8/d85/eidbest__first_8hpp.html" target="_top" xlink:title=" ">
<polygon fill="white" stroke="#666666" points="166.07,-123 91.07,-123 91.07,-106 166.07,-106 166.07,-123"/>
<text text-anchor="middle" x="128.57" y="-112.6" font-family="Helvetica,sans-Serif" font-size="8.00">eidbest_first.hpp</text>
</a>
</g>
</g>
<!-- Node1&#45;&gt;Node4 -->
<g id="edge4_Node000001_Node000004" class="edge">
<title>Node1&#45;&gt;Node4</title>
<g id="a_edge4_Node000001_Node000004"><a xlink:title=" ">
<path fill="none" stroke="#63b8ff" d="M251.16,-155.84C221.35,-146.03 177.9,-131.73 151.53,-123.06"/>
<polygon fill="#63b8ff" stroke="#63b8ff" points="250.1,-159.17 260.7,-158.97 252.29,-152.52 250.1,-159.17"/>
</a>
</g>
</g>
<!-- Node5 -->
<g id="Node000005" class="node">
<title>Node5</title>
<g id="a_Node000005"><a xlink:href="../../dd/d95/eiddfs_8hpp.html" target="_top" xlink:title=" ">
<polygon fill="white" stroke="#666666" points="237.07,-123 184.07,-123 184.07,-106 237.07,-106 237.07,-123"/>
<text text-anchor="middle" x="210.57" y="-112.6" font-family="Helvetica,sans-Serif" font-size="8.00">eiddfs.hpp</text>
</a>
</g>
</g>
<!-- Node1&#45;&gt;Node5 -->
<g id="edge6_Node000001_Node000005" class="edge">
<title>Node1&#45;&gt;Node5</title>
<g id="a_edge6_Node000001_Node000005"><a xlink:title=" ">
<path fill="none" stroke="#63b8ff" d="M264.5,-153.18C250.77,-143.58 232.72,-130.98 221.38,-123.06"/>
<polygon fill="#63b8ff" stroke="#63b8ff" points="262.59,-156.12 272.8,-158.97 266.6,-150.38 262.59,-156.12"/>
</a>
</g>
</g>
<!-- Node6 -->
<g id="Node000006" class="node">
<title>Node6</title>
<g id="a_Node000006"><a xlink:href="../../db/df9/idastar_8hpp.html" target="_top" xlink:title=" ">
<polygon fill="white" stroke="#666666" points="311.57,-123 255.57,-123 255.57,-106 311.57,-106 311.57,-123"/>
<text text-anchor="middle" x="283.57" y="-112.6" font-family="Helvetica,sans-Serif" font-size="8.00">idastar.hpp</text>
</a>
</g>
</g>
<!-- Node1&#45;&gt;Node6 -->
<g id="edge8_Node000001_Node000006" class="edge">
<title>Node1&#45;&gt;Node6</title>
<g id="a_edge8_Node000001_Node000006"><a xlink:title=" ">
<path fill="none" stroke="#63b8ff" d="M283.57,-148.91C283.57,-140.08 283.57,-129.85 283.57,-123.06"/>
<polygon fill="#63b8ff" stroke="#63b8ff" points="280.07,-148.97 283.57,-158.97 287.07,-148.97 280.07,-148.97"/>
</a>
</g>
</g>
<!-- Node7 -->
<g id="Node000007" class="node">
<title>Node7</title>
<g id="a_Node000007"><a xlink:href="../../d1/d3a/idbest__first_8hpp.html" target="_top" xlink:title=" ">
<polygon fill="white" stroke="#666666" points="401.07,-123 330.07,-123 330.07,-106 401.07,-106 401.07,-123"/>
<text text-anchor="middle" x="365.57" y="-112.6" font-family="Helvetica,sans-Serif" font-size="8.00">idbest_first.hpp</text>
</a>
</g>
</g>
<!-- Node1&#45;&gt;Node7 -->
<g id="edge10_Node000001_Node000007" class="edge">
<title>Node1&#45;&gt;Node7</title>
<g id="a_edge10_Node000001_Node000007"><a xlink:title=" ">
<path fill="none" stroke="#63b8ff" d="M304.54,-153.46C320.03,-143.83 340.56,-131.05 353.42,-123.06"/>
<polygon fill="#63b8ff" stroke="#63b8ff" points="302.31,-150.72 295.67,-158.97 306.01,-156.67 302.31,-150.72"/>
</a>
</g>
</g>
<!-- Node8 -->
<g id="Node000008" class="node">
<title>Node8</title>
<g id="a_Node000008"><a xlink:href="../../df/d71/iddfs_8hpp.html" target="_top" xlink:title=" ">
<polygon fill="white" stroke="#666666" points="468.07,-123 419.07,-123 419.07,-106 468.07,-106 468.07,-123"/>
<text text-anchor="middle" x="443.57" y="-112.6" font-family="Helvetica,sans-Serif" font-size="8.00">iddfs.hpp</text>
</a>
</g>
</g>
<!-- Node1&#45;&gt;Node8 -->
<g id="edge12_Node000001_Node000008" class="edge">
<title>Node1&#45;&gt;Node8</title>
<g id="a_edge12_Node000001_Node000008"><a xlink:title=" ">
<path fill="none" stroke="#63b8ff" d="M317.02,-155.84C347.79,-146.03 392.64,-131.73 419.86,-123.06"/>
<polygon fill="#63b8ff" stroke="#63b8ff" points="315.64,-152.6 307.18,-158.97 317.77,-159.27 315.64,-152.6"/>
</a>
</g>
</g>
<!-- Node9 -->
<g id="Node000009" class="node">
<title>Node9</title>
<g id="a_Node000009"><a xlink:href="../../da/deb/managed__node_8hpp.html" target="_top" xlink:title=" ">
<polygon fill="white" stroke="#666666" points="575.07,-123 486.07,-123 486.07,-106 575.07,-106 575.07,-123"/>
<text text-anchor="middle" x="530.57" y="-112.6" font-family="Helvetica,sans-Serif" font-size="8.00">managed_node.hpp</text>
</a>
</g>
</g>
<!-- Node1&#45;&gt;Node9 -->
<g id="edge14_Node000001_Node000009" class="edge">
<title>Node1&#45;&gt;Node9</title>
<g id="a_edge14_Node000001_Node000009"><a xlink:title=" ">
<path fill="none" stroke="#63b8ff" d="M321.48,-158.67C368.4,-148.98 447.74,-132.6 494.02,-123.05"/>
<polygon fill="#63b8ff" stroke="#63b8ff" points="320.51,-155.3 311.42,-160.75 321.92,-162.15 320.51,-155.3"/>
</a>
</g>
</g>
<!-- Node14 -->
<g id="Node000014" class="node">
<title>Node14</title>
<g id="a_Node000014"><a xlink:href="../../d0/def/unmanaged__node_8hpp.html" target="_top" xlink:title=" ">
<polygon fill="white" stroke="#666666" points="878.57,-123 780.57,-123 780.57,-106 878.57,-106 878.57,-123"/>
<text text-anchor="middle" x="829.57" y="-112.6" font-family="Helvetica,sans-Serif" font-size="8.00">unmanaged_node.hpp</text>
</a>
</g>
</g>
<!-- Node1&#45;&gt;Node14 -->
<g id="edge24_Node000001_Node000014" class="edge">
<title>Node1&#45;&gt;Node14</title>
<g id="a_edge24_Node000001_Node000014"><a xlink:title=" ">
<path fill="none" stroke="#63b8ff" d="M321.56,-162.95C418.03,-153.94 672.41,-130.18 780.19,-120.11"/>
<polygon fill="#63b8ff" stroke="#63b8ff" points="321.03,-159.49 311.39,-163.9 321.68,-166.46 321.03,-159.49"/>
</a>
</g>
</g>
<!-- Node3&#45;&gt;Node2 -->
<g id="edge3_Node000003_Node000002" class="edge">
<title>Node3&#45;&gt;Node2</title>
<g id="a_edge3_Node000003_Node000002"><a xlink:title=" ">
<path fill="none" stroke="#63b8ff" d="M71.54,-102.5C107.47,-89.2 170.79,-66.88 226.57,-53 309.82,-32.28 410.92,-18.12 455.96,-12.38"/>
<polygon fill="#63b8ff" stroke="#63b8ff" points="70.31,-99.22 62.16,-105.99 72.76,-105.78 70.31,-99.22"/>
</a>
</g>
</g>
<!-- Node4&#45;&gt;Node2 -->
<g id="edge5_Node000004_Node000002" class="edge">
<title>Node4&#45;&gt;Node2</title>
<g id="a_edge5_Node000004_Node000002"><a xlink:title=" ">
<path fill="none" stroke="#63b8ff" d="M153.87,-101.44C182.76,-88.06 231.7,-66.58 275.57,-53 339.56,-33.19 417.6,-19.29 455.96,-13.11"/>
<polygon fill="#63b8ff" stroke="#63b8ff" points="152.11,-98.4 144.53,-105.81 155.07,-104.74 152.11,-98.4"/>
</a>
</g>
</g>
<!-- Node5&#45;&gt;Node2 -->
<g id="edge7_Node000005_Node000002" class="edge">
<title>Node5&#45;&gt;Node2</title>
<g id="a_edge7_Node000005_Node000002"><a xlink:title=" ">
<path fill="none" stroke="#63b8ff" d="M229.06,-100.03C248.49,-86.44 280.37,-65.7 310.57,-53 360.28,-32.1 422.57,-19.23 455.91,-13.33"/>
<polygon fill="#63b8ff" stroke="#63b8ff" points="226.94,-97.24 220.82,-105.89 231,-102.95 226.94,-97.24"/>
</a>
</g>
</g>
<!-- Node6&#45;&gt;Node2 -->
<g id="edge9_Node000006_Node000002" class="edge">
<title>Node6&#45;&gt;Node2</title>
<g id="a_edge9_Node000006_Node000002"><a xlink:title=" ">
<path fill="none" stroke="#63b8ff" d="M293.19,-97.12C302.05,-83.44 316.38,-64.38 333.57,-53 371.94,-27.59 425.6,-16.63 456.04,-12.21"/>
<polygon fill="#63b8ff" stroke="#63b8ff" points="290.02,-95.61 287.76,-105.96 295.98,-99.28 290.02,-95.61"/>
</a>
</g>
</g>
<!-- Node7&#45;&gt;Node2 -->
<g id="edge11_Node000007_Node000002" class="edge">
<title>Node7&#45;&gt;Node2</title>
<g id="a_edge11_Node000007_Node000002"><a xlink:title=" ">
<path fill="none" stroke="#63b8ff" d="M351.38,-97.87C341.44,-84.97 331.58,-66.62 341.57,-53 367.93,-17.04 424.08,-10.04 456.04,-9.12"/>
<polygon fill="#63b8ff" stroke="#63b8ff" points="348.92,-100.39 358.02,-105.81 354.29,-95.9 348.92,-100.39"/>
</a>
</g>
</g>
<!-- Node8&#45;&gt;Node2 -->
<g id="edge13_Node000008_Node000002" class="edge">
<title>Node8&#45;&gt;Node2</title>
<g id="a_edge13_Node000008_Node000002"><a xlink:title=" ">
<path fill="none" stroke="#63b8ff" d="M409.93,-102.46C385.57,-93.71 355.72,-81.14 348.57,-70 344.49,-63.64 344.15,-59.13 348.57,-53 373.11,-18.99 425.31,-11.15 455.89,-9.6"/>
<polygon fill="#63b8ff" stroke="#63b8ff" points="409.02,-105.85 419.61,-105.85 411.33,-99.24 409.02,-105.85"/>
</a>
</g>
</g>
<!-- Node9&#45;&gt;Node2 -->
<g id="edge15_Node000009_Node000002" class="edge">
<title>Node9&#45;&gt;Node2</title>
<g id="a_edge15_Node000009_Node000002"><a xlink:title=" ">
<path fill="none" stroke="#63b8ff" d="M476.02,-104.6C438.39,-97.22 393.14,-85.44 381.57,-70 359.38,-40.4 420.44,-21.99 456.01,-14.05"/>
<polygon fill="#63b8ff" stroke="#63b8ff" points="475.42,-108.05 485.9,-106.47 476.72,-101.17 475.42,-108.05"/>
</a>
</g>
</g>
<!-- Node10 -->
<g id="Node000010" class="node">
<title>Node10</title>
<g id="a_Node000010"><a xlink:href="../../de/d94/gbfs_8hpp.html" target="_top" xlink:title=" ">
<polygon fill="white" stroke="#666666" points="438.07,-70 391.07,-70 391.07,-53 438.07,-53 438.07,-70"/>
<text text-anchor="middle" x="414.57" y="-59.6" font-family="Helvetica,sans-Serif" font-size="8.00">gbfs.hpp</text>
</a>
</g>
</g>
<!-- Node9&#45;&gt;Node10 -->
<g id="edge16_Node000009_Node000010" class="edge">
<title>Node9&#45;&gt;Node10</title>
<g id="a_edge16_Node000009_Node000010"><a xlink:title=" ">
<path fill="none" stroke="#63b8ff" d="M504.25,-101.93C482.04,-92.16 450.89,-78.47 431.75,-70.06"/>
<polygon fill="#63b8ff" stroke="#63b8ff" points="502.89,-105.15 513.45,-105.97 505.71,-98.75 502.89,-105.15"/>
</a>
</g>
</g>
<!-- Node11 -->
<g id="Node000011" class="node">
<title>Node11</title>
<g id="a_Node000011"><a xlink:href="../../d4/df2/gdfs_8hpp.html" target="_top" xlink:title=" ">
<polygon fill="white" stroke="#666666" points="503.07,-70 456.07,-70 456.07,-53 503.07,-53 503.07,-70"/>
<text text-anchor="middle" x="479.57" y="-59.6" font-family="Helvetica,sans-Serif" font-size="8.00">gdfs.hpp</text>
</a>
</g>
</g>
<!-- Node9&#45;&gt;Node11 -->
<g id="edge18_Node000009_Node000011" class="edge">
<title>Node9&#45;&gt;Node11</title>
<g id="a_edge18_Node000009_Node000011"><a xlink:title=" ">
<path fill="none" stroke="#63b8ff" d="M515.86,-98.79C506.46,-89.39 494.67,-77.6 487.12,-70.06"/>
<polygon fill="#63b8ff" stroke="#63b8ff" points="513.5,-101.38 523.04,-105.97 518.45,-96.43 513.5,-101.38"/>
</a>
</g>
</g>
<!-- Node12 -->
<g id="Node000012" class="node">
<title>Node12</title>
<g id="a_Node000012"><a xlink:href="../../d3/d3e/gjps_8hpp.html" target="_top" xlink:title=" ">
<polygon fill="white" stroke="#666666" points="568.07,-70 521.07,-70 521.07,-53 568.07,-53 568.07,-70"/>
<text text-anchor="middle" x="544.57" y="-59.6" font-family="Helvetica,sans-Serif" font-size="8.00">gjps.hpp</text>
</a>
</g>
</g>
<!-- Node9&#45;&gt;Node12 -->
<g id="edge20_Node000009_Node000012" class="edge">
<title>Node9&#45;&gt;Node12</title>
<g id="a_edge20_Node000009_Node000012"><a xlink:title=" ">
<path fill="none" stroke="#63b8ff" d="M535.32,-96.2C537.76,-87.31 540.61,-76.92 542.49,-70.06"/>
<polygon fill="#63b8ff" stroke="#63b8ff" points="531.91,-95.4 532.63,-105.97 538.66,-97.26 531.91,-95.4"/>
</a>
</g>
</g>
<!-- Node13 -->
<g id="Node000013" class="node">
<title>Node13</title>
<g id="a_Node000013"><a xlink:href="../../d1/def/gstar_8hpp.html" target="_top" xlink:title=" ">
<polygon fill="white" stroke="#666666" points="636.57,-70 586.57,-70 586.57,-53 636.57,-53 636.57,-70"/>
<text text-anchor="middle" x="611.57" y="-59.6" font-family="Helvetica,sans-Serif" font-size="8.00">gstar.hpp</text>
</a>
</g>
</g>
<!-- Node9&#45;&gt;Node13 -->
<g id="edge22_Node000009_Node000013" class="edge">
<title>Node9&#45;&gt;Node13</title>
<g id="a_edge22_Node000009_Node000013"><a xlink:title=" ">
<path fill="none" stroke="#63b8ff" d="M551.29,-100.46C566.58,-90.83 586.87,-78.05 599.57,-70.06"/>
<polygon fill="#63b8ff" stroke="#63b8ff" points="549.12,-97.68 542.52,-105.97 552.85,-103.61 549.12,-97.68"/>
</a>
</g>
</g>
<!-- Node10&#45;&gt;Node2 -->
<g id="edge17_Node000010_Node000002" class="edge">
<title>Node10&#45;&gt;Node2</title>
<g id="a_edge17_Node000010_Node000002"><a xlink:title=" ">
<path fill="none" stroke="#63b8ff" d="M432.24,-46.63C444.38,-37.11 460.03,-24.83 469.94,-17.06"/>
<polygon fill="#63b8ff" stroke="#63b8ff" points="429.87,-44.05 424.16,-52.97 434.19,-49.56 429.87,-44.05"/>
</a>
</g>
</g>
<!-- Node11&#45;&gt;Node2 -->
<g id="edge19_Node000011_Node000002" class="edge">
<title>Node11&#45;&gt;Node2</title>
<g id="a_edge19_Node000011_Node000002"><a xlink:title=" ">
<path fill="none" stroke="#63b8ff" d="M479.57,-42.91C479.57,-34.08 479.57,-23.85 479.57,-17.06"/>
<polygon fill="#63b8ff" stroke="#63b8ff" points="476.07,-42.97 479.57,-52.97 483.07,-42.97 476.07,-42.97"/>
</a>
</g>
</g>
<!-- Node12&#45;&gt;Node2 -->
<g id="edge21_Node000012_Node000002" class="edge">
<title>Node12&#45;&gt;Node2</title>
<g id="a_edge21_Node000012_Node000002"><a xlink:title=" ">
<path fill="none" stroke="#63b8ff" d="M526.89,-46.63C514.75,-37.11 499.1,-24.83 489.2,-17.06"/>
<polygon fill="#63b8ff" stroke="#63b8ff" points="524.95,-49.56 534.98,-52.97 529.27,-44.05 524.95,-49.56"/>
</a>
</g>
</g>
<!-- Node13&#45;&gt;Node2 -->
<g id="edge23_Node000013_Node000002" class="edge">
<title>Node13&#45;&gt;Node2</title>
<g id="a_edge23_Node000013_Node000002"><a xlink:title=" ">
<path fill="none" stroke="#63b8ff" d="M582.63,-49.32C557.3,-39.53 521.19,-25.58 499.12,-17.06"/>
<polygon fill="#63b8ff" stroke="#63b8ff" points="581.5,-52.64 592.09,-52.97 584.02,-46.11 581.5,-52.64"/>
</a>
</g>
</g>
<!-- Node14&#45;&gt;Node2 -->
<g id="edge31_Node000014_Node000002" class="edge">
<title>Node14&#45;&gt;Node2</title>
<g id="a_edge31_Node000014_Node000002"><a xlink:title=" ">
<path fill="none" stroke="#63b8ff" d="M790.15,-103.26C760.5,-95.2 719.06,-83.16 683.57,-70 666.22,-63.57 663.02,-59.14 645.57,-53 595.97,-35.54 535.85,-21.48 503.3,-14.43"/>
<polygon fill="#63b8ff" stroke="#63b8ff" points="789.55,-106.73 800.11,-105.94 791.36,-99.97 789.55,-106.73"/>
</a>
</g>
</g>
<!-- Node15 -->
<g id="Node000015" class="node">
<title>Node15</title>
<g id="a_Node000015"><a xlink:href="../../dc/da9/astar_8hpp.html" target="_top" xlink:title=" ">
<polygon fill="white" stroke="#666666" points="742.57,-70 692.57,-70 692.57,-53 742.57,-53 742.57,-70"/>
<text text-anchor="middle" x="717.57" y="-59.6" font-family="Helvetica,sans-Serif" font-size="8.00">astar.hpp</text>
</a>
</g>
</g>
<!-- Node14&#45;&gt;Node15 -->
<g id="edge25_Node000014_Node000015" class="edge">
<title>Node14&#45;&gt;Node15</title>
<g id="a_edge25_Node000014_Node000015"><a xlink:title=" ">
<path fill="none" stroke="#63b8ff" d="M803.87,-101.8C782.44,-92.04 752.55,-78.43 734.16,-70.06"/>
<polygon fill="#63b8ff" stroke="#63b8ff" points="802.49,-105.02 813.04,-105.97 805.39,-98.65 802.49,-105.02"/>
</a>
</g>
</g>
<!-- Node16 -->
<g id="Node000016" class="node">
<title>Node16</title>
<g id="a_Node000016"><a xlink:href="../../d3/d77/best__first_8hpp.html" target="_top" xlink:title=" ">
<polygon fill="white" stroke="#666666" points="826.07,-70 761.07,-70 761.07,-53 826.07,-53 826.07,-70"/>
<text text-anchor="middle" x="793.57" y="-59.6" font-family="Helvetica,sans-Serif" font-size="8.00">best_first.hpp</text>
</a>
</g>
</g>
<!-- Node14&#45;&gt;Node16 -->
<g id="edge27_Node000014_Node000016" class="edge">
<title>Node14&#45;&gt;Node16</title>
<g id="a_edge27_Node000014_Node000016"><a xlink:title=" ">
<path fill="none" stroke="#63b8ff" d="M818.38,-97.65C811.89,-88.46 804.01,-77.3 798.9,-70.06"/>
<polygon fill="#63b8ff" stroke="#63b8ff" points="815.63,-99.82 824.26,-105.97 821.35,-95.79 815.63,-99.82"/>
</a>
</g>
</g>
<!-- Node17 -->
<g id="Node000017" class="node">
<title>Node17</title>
<g id="a_Node000017"><a xlink:href="../../da/d36/bfs_8hpp.html" target="_top" xlink:title=" ">
<polygon fill="white" stroke="#666666" points="887.07,-70 844.07,-70 844.07,-53 887.07,-53 887.07,-70"/>
<text text-anchor="middle" x="865.57" y="-59.6" font-family="Helvetica,sans-Serif" font-size="8.00">bfs.hpp</text>
</a>
</g>
</g>
<!-- Node14&#45;&gt;Node17 -->
<g id="edge29_Node000014_Node000017" class="edge">
<title>Node14&#45;&gt;Node17</title>
<g id="a_edge29_Node000014_Node000017"><a xlink:title=" ">
<path fill="none" stroke="#63b8ff" d="M840.75,-97.65C847.24,-88.46 855.12,-77.3 860.23,-70.06"/>
<polygon fill="#63b8ff" stroke="#63b8ff" points="837.79,-95.79 834.88,-105.97 843.51,-99.82 837.79,-95.79"/>
</a>
</g>
</g>
<!-- Node18 -->
<g id="Node000018" class="node">
<title>Node18</title>
<g id="a_Node000018"><a xlink:href="../../d3/dec/dfs_8hpp.html" target="_top" xlink:title=" ">
<polygon fill="white" stroke="#666666" points="948.07,-70 905.07,-70 905.07,-53 948.07,-53 948.07,-70"/>
<text text-anchor="middle" x="926.57" y="-59.6" font-family="Helvetica,sans-Serif" font-size="8.00">dfs.hpp</text>
</a>
</g>
</g>
<!-- Node14&#45;&gt;Node18 -->
<g id="edge32_Node000014_Node000018" class="edge">
<title>Node14&#45;&gt;Node18</title>
<g id="a_edge32_Node000014_Node000018"><a xlink:title=" ">
<path fill="none" stroke="#63b8ff" d="M852.84,-101.27C871.31,-91.55 896.56,-78.28 912.2,-70.06"/>
<polygon fill="#63b8ff" stroke="#63b8ff" points="851.1,-98.22 843.88,-105.97 854.36,-104.42 851.1,-98.22"/>
</a>
</g>
</g>
<!-- Node19 -->
<g id="Node000019" class="node">
<title>Node19</title>
<g id="a_Node000019"><a xlink:href="../../d1/d5a/fstar_8hpp.html" target="_top" xlink:title=" ">
<polygon fill="white" stroke="#666666" points="1013.07,-70 966.07,-70 966.07,-53 1013.07,-53 1013.07,-70"/>
<text text-anchor="middle" x="989.57" y="-59.6" font-family="Helvetica,sans-Serif" font-size="8.00">fstar.hpp</text>
</a>
</g>
</g>
<!-- Node14&#45;&gt;Node19 -->
<g id="edge34_Node000014_Node000019" class="edge">
<title>Node14&#45;&gt;Node19</title>
<g id="a_edge34_Node000014_Node000019"><a xlink:title=" ">
<path fill="none" stroke="#63b8ff" d="M863.02,-102.84C893.79,-93.03 938.64,-78.73 965.86,-70.06"/>
<polygon fill="#63b8ff" stroke="#63b8ff" points="861.64,-99.6 853.18,-105.97 863.77,-106.27 861.64,-99.6"/>
</a>
</g>
</g>
<!-- Node20 -->
<g id="Node000020" class="node">
<title>Node20</title>
<g id="a_Node000020"><a xlink:href="../../d9/de6/jps_8hpp.html" target="_top" xlink:title=" ">
<polygon fill="white" stroke="#666666" points="1073.57,-70 1031.57,-70 1031.57,-53 1073.57,-53 1073.57,-70"/>
<text text-anchor="middle" x="1052.57" y="-59.6" font-family="Helvetica,sans-Serif" font-size="8.00">jps.hpp</text>
</a>
</g>
</g>
<!-- Node14&#45;&gt;Node20 -->
<g id="edge36_Node000014_Node000020" class="edge">
<title>Node14&#45;&gt;Node20</title>
<g id="a_edge36_Node000014_Node000020"><a xlink:title=" ">
<path fill="none" stroke="#63b8ff" d="M873.55,-103.73C912.49,-95.03 970.86,-81.88 1021.57,-70 1024.8,-69.24 1028.22,-68.43 1031.57,-67.62"/>
<polygon fill="#63b8ff" stroke="#63b8ff" points="872.59,-100.35 863.59,-105.95 874.11,-107.19 872.59,-100.35"/>
</a>
</g>
</g>
<!-- Node15&#45;&gt;Node2 -->
<g id="edge26_Node000015_Node000002" class="edge">
<title>Node15&#45;&gt;Node2</title>
<g id="a_edge26_Node000015_Node000002"><a xlink:title=" ">
<path fill="none" stroke="#63b8ff" d="M682.69,-53.03C633.57,-42.5 545.32,-23.59 503.19,-14.56"/>
<polygon fill="#63b8ff" stroke="#63b8ff" points="682.04,-56.47 692.55,-55.14 683.5,-49.62 682.04,-56.47"/>
</a>
</g>
</g>
<!-- Node16&#45;&gt;Node2 -->
<g id="edge28_Node000016_Node000002" class="edge">
<title>Node16&#45;&gt;Node2</title>
<g id="a_edge28_Node000016_Node000002"><a xlink:title=" ">
<path fill="none" stroke="#63b8ff" d="M750.92,-52.92C652.66,-36.36 548.92,-20.19 503.24,-13.14"/>
<polygon fill="#63b8ff" stroke="#63b8ff" points="750.58,-56.41 761.02,-54.63 751.74,-49.51 750.58,-56.41"/>
</a>
</g>
</g>
<!-- Node17&#45;&gt;Node2 -->
<g id="edge30_Node000017_Node000002" class="edge">
<title>Node17&#45;&gt;Node2</title>
<g id="a_edge30_Node000017_Node000002"><a xlink:title=" ">
<path fill="none" stroke="#63b8ff" d="M833.79,-53.1C703.29,-29.82 559.28,-16.27 503.39,-11.46"/>
<polygon fill="#63b8ff" stroke="#63b8ff" points="833.49,-56.6 843.96,-54.93 834.74,-49.71 833.49,-56.6"/>
</a>
</g>
</g>
<!-- Node18&#45;&gt;Node2 -->
<g id="edge33_Node000018_Node000002" class="edge">
<title>Node18&#45;&gt;Node2</title>
<g id="a_edge33_Node000018_Node000002"><a xlink:title=" ">
<path fill="none" stroke="#63b8ff" d="M894.78,-53.14C739.73,-26.91 565.5,-14.7 503.17,-10.86"/>
<polygon fill="#63b8ff" stroke="#63b8ff" points="894.52,-56.64 904.96,-54.88 895.7,-49.74 894.52,-56.64"/>
</a>
</g>
</g>
<!-- Node19&#45;&gt;Node2 -->
<g id="edge35_Node000019_Node000002" class="edge">
<title>Node19&#45;&gt;Node2</title>
<g id="a_edge35_Node000019_Node000002"><a xlink:title=" ">
<path fill="none" stroke="#63b8ff" d="M955.97,-53.16C776.53,-25.24 572.34,-13.84 503.53,-10.56"/>
<polygon fill="#63b8ff" stroke="#63b8ff" points="955.42,-56.61 965.85,-54.71 956.52,-49.7 955.42,-56.61"/>
</a>
</g>
</g>
<!-- Node20&#45;&gt;Node2 -->
<g id="edge37_Node000020_Node000002" class="edge">
<title>Node20&#45;&gt;Node2</title>
<g id="a_edge37_Node000020_Node000002"><a xlink:title=" ">
<path fill="none" stroke="#63b8ff" d="M1021.21,-53.28C814.98,-20.89 577.86,-12.15 503.23,-10.07"/>
<polygon fill="#63b8ff" stroke="#63b8ff" points="1020.89,-56.77 1031.31,-54.89 1021.99,-49.86 1020.89,-56.77"/>
</a>
</g>
</g>
</g>
</svg>
