<?xml version="1.0" encoding="UTF-8" standalone="no"?>
<!DOCTYPE svg PUBLIC "-//W3C//DTD SVG 1.1//EN"
 "http://www.w3.org/Graphics/SVG/1.1/DTD/svg11.dtd">
<!-- Generated by graphviz version 2.43.0 (0)
 -->
<!-- Title: bnode.hpp Pages: 1 -->
<svg width="1151pt" height="184pt"
 viewBox="0.00 0.00 1150.57 184.00" xmlns="http://www.w3.org/2000/svg" xmlns:xlink="http://www.w3.org/1999/xlink">
<g id="graph0" class="graph" transform="scale(1 1) rotate(0) translate(4 180)">
<title>bnode.hpp</title>
<!-- Node1 -->
<g id="Node000001" class="node">
<title>Node1</title>
<g id="a_Node000001"><a xlink:title=" ">
<polygon fill="#999999" stroke="#666666" points="311.07,-176 256.07,-176 256.07,-159 311.07,-159 311.07,-176"/>
<text text-anchor="middle" x="283.57" y="-165.6" font-family="Helvetica,sans-Serif" font-size="8.00">bnode.hpp</text>
</a>
</g>
</g>
<!-- Node2 -->
<g id="Node000002" class="node">
<title>Node2</title>
<g id="a_Node000002"><a xlink:href="../../d9/d96/chdr_8hpp.html" target="_top" xlink:title=" ">
<polygon fill="white" stroke="#666666" points="539.07,-17 492.07,-17 492.07,0 539.07,0 539.07,-17"/>
<text text-anchor="middle" x="515.57" y="-6.6" font-family="Helvetica,sans-Serif" font-size="8.00">chdr.hpp</text>
</a>
</g>
</g>
<!-- Node1&#45;&gt;Node2 -->
<g id="edge1_Node000001_Node000002" class="edge">
<title>Node1&#45;&gt;Node2</title>
<g id="a_edge1_Node000001_Node000002"><a xlink:title=" ">
<path fill="none" stroke="#63b8ff" d="M245.72,-166.43C176.63,-165.41 34.31,-158.89 3.57,-123 -1.35,-117.26 -0.87,-112.12 3.57,-106 62.04,-25.35 398.88,-12.05 491.82,-9.9"/>
<polygon fill="#63b8ff" stroke="#63b8ff" points="245.72,-169.93 255.76,-166.55 245.8,-162.93 245.72,-169.93"/>
</a>
</g>
</g>
<!-- Node3 -->
<g id="Node000003" class="node">
<title>Node3</title>
<g id="a_Node000003"><a xlink:href="../../d6/ded/eidastar_8hpp.html" target="_top" xlink:title=" ">
<polygon fill="white" stroke="#666666" points="72.57,-123 12.57,-123 12.57,-106 72.57,-106 72.57,-123"/>
<text text-anchor="middle" x="42.57" y="-112.6" font-family="Helvetica,sans-Serif" font-size="8.00">eidastar.hpp</text>
</a>
</g>
</g>
<!-- Node1&#45;&gt;Node3 -->
<g id="edge2_Node000001_Node000003" class="edge">
<title>Node1&#45;&gt;Node3</title>
<g id="a_edge2_Node000001_Node000003"><a xlink:title=" ">
<path fill="none" stroke="#63b8ff" d="M245.99,-158.55C198.28,-148.45 116.88,-131.23 72.91,-121.92"/>
<polygon fill="#63b8ff" stroke="#63b8ff" points="245.41,-162 255.92,-160.65 246.86,-155.16 245.41,-162"/>
</a>
</g>
</g>
<!-- Node4 -->
<g id="Node000004" class="node">
<title>Node4</title>
<g id="a_Node000004"><a xlink:href="../../d8/d85/eidbest__first_8hpp.html" target="_top" xlink:title=" ">
<polygon fill="white" stroke="#666666" points="166.07,-123 91.07,-123 91.07,-106 166.07,-106 166.07,-123"/>
<text text-anchor="middle" x="128.57" y="-112.6" font-family="Helvetica,sans-Serif" font-size="8.00">eidbest_first.hpp</text>
</a>
</g>
</g>
<!-- Node1&#45;&gt;Node4 -->
<g id="edge4_Node000001_Node000004" class="edge">
<title>Node1&#45;&gt;Node4</title>
<g id="a_edge4_Node000001_Node000004"><a xlink:title=" ">
<path fill="none" stroke="#63b8ff" d="M251.15,-155.84C221.35,-146.03 177.9,-131.73 151.53,-123.06"/>
<polygon fill="#63b8ff" stroke="#63b8ff" points="250.1,-159.17 260.7,-158.97 252.29,-152.52 250.1,-159.17"/>
</a>
</g>
</g>
<!-- Node5 -->
<g id="Node000005" class="node">
<title>Node5</title>
<g id="a_Node000005"><a xlink:href="../../dd/d95/eiddfs_8hpp.html" target="_top" xlink:title=" ">
<polygon fill="white" stroke="#666666" points="237.07,-123 184.07,-123 184.07,-106 237.07,-106 237.07,-123"/>
<text text-anchor="middle" x="210.57" y="-112.6" font-family="Helvetica,sans-Serif" font-size="8.00">eiddfs.hpp</text>
</a>
</g>
</g>
<!-- Node1&#45;&gt;Node5 -->
<g id="edge6_Node000001_Node000005" class="edge">
<title>Node1&#45;&gt;Node5</title>
<g id="a_edge6_Node000001_Node000005"><a xlink:title=" ">
<path fill="none" stroke="#63b8ff" d="M264.5,-153.18C250.77,-143.58 232.72,-130.98 221.38,-123.06"/>
<polygon fill="#63b8ff" stroke="#63b8ff" points="262.59,-156.12 272.8,-158.97 266.6,-150.38 262.59,-156.12"/>
</a>
</g>
</g>
<!-- Node6 -->
<g id="Node000006" class="node">
<title>Node6</title>
<g id="a_Node000006"><a xlink:href="../../db/df9/idastar_8hpp.html" target="_top" xlink:title=" ">
<polygon fill="white" stroke="#666666" points="311.57,-123 255.57,-123 255.57,-106 311.57,-106 311.57,-123"/>
<text text-anchor="middle" x="283.57" y="-112.6" font-family="Helvetica,sans-Serif" font-size="8.00">idastar.hpp</text>
</a>
</g>
</g>
<!-- Node1&#45;&gt;Node6 -->
<g id="edge8_Node000001_Node000006" class="edge">
<title>Node1&#45;&gt;Node6</title>
<g id="a_edge8_Node000001_Node000006"><a xlink:title=" ">
<path fill="none" stroke="#63b8ff" d="M283.57,-148.91C283.57,-140.08 283.57,-129.85 283.57,-123.06"/>
<polygon fill="#63b8ff" stroke="#63b8ff" points="280.07,-148.97 283.57,-158.97 287.07,-148.97 280.07,-148.97"/>
</a>
</g>
</g>
<!-- Node7 -->
<g id="Node000007" class="node">
<title>Node7</title>
<g id="a_Node000007"><a xlink:href="../../d1/d3a/idbest__first_8hpp.html" target="_top" xlink:title=" ">
<polygon fill="white" stroke="#666666" points="401.07,-123 330.07,-123 330.07,-106 401.07,-106 401.07,-123"/>
<text text-anchor="middle" x="365.57" y="-112.6" font-family="Helvetica,sans-Serif" font-size="8.00">idbest_first.hpp</text>
</a>
</g>
</g>
<!-- Node1&#45;&gt;Node7 -->
<g id="edge10_Node000001_Node000007" class="edge">
<title>Node1&#45;&gt;Node7</title>
<g id="a_edge10_Node000001_Node000007"><a xlink:title=" ">
<path fill="none" stroke="#63b8ff" d="M304.54,-153.46C320.02,-143.83 340.56,-131.05 353.42,-123.06"/>
<polygon fill="#63b8ff" stroke="#63b8ff" points="302.31,-150.72 295.67,-158.97 306.01,-156.67 302.31,-150.72"/>
</a>
</g>
</g>
<!-- Node8 -->
<g id="Node000008" class="node">
<title>Node8</title>
<g id="a_Node000008"><a xlink:href="../../df/d71/iddfs_8hpp.html" target="_top" xlink:title=" ">
<polygon fill="white" stroke="#666666" points="468.07,-123 419.07,-123 419.07,-106 468.07,-106 468.07,-123"/>
<text text-anchor="middle" x="443.57" y="-112.6" font-family="Helvetica,sans-Serif" font-size="8.00">iddfs.hpp</text>
</a>
</g>
</g>
<!-- Node1&#45;&gt;Node8 -->
<g id="edge12_Node000001_Node000008" class="edge">
<title>Node1&#45;&gt;Node8</title>
<g id="a_edge12_Node000001_Node000008"><a xlink:title=" ">
<path fill="none" stroke="#63b8ff" d="M317.02,-155.84C347.79,-146.03 392.64,-131.73 419.86,-123.06"/>
<polygon fill="#63b8ff" stroke="#63b8ff" points="315.64,-152.6 307.17,-158.97 317.77,-159.27 315.64,-152.6"/>
</a>
</g>
</g>
<!-- Node9 -->
<g id="Node000009" class="node">
<title>Node9</title>
<g id="a_Node000009"><a xlink:href="../../da/deb/managed__node_8hpp.html" target="_top" xlink:title=" ">
<polygon fill="white" stroke="#666666" points="575.07,-123 486.07,-123 486.07,-106 575.07,-106 575.07,-123"/>
<text text-anchor="middle" x="530.57" y="-112.6" font-family="Helvetica,sans-Serif" font-size="8.00">managed_node.hpp</text>
</a>
</g>
</g>
<!-- Node1&#45;&gt;Node9 -->
<g id="edge14_Node000001_Node000009" class="edge">
<title>Node1&#45;&gt;Node9</title>
<g id="a_edge14_Node000001_Node000009"><a xlink:title=" ">
<path fill="none" stroke="#63b8ff" d="M321.48,-158.67C368.4,-148.98 447.74,-132.6 494.02,-123.05"/>
<polygon fill="#63b8ff" stroke="#63b8ff" points="320.51,-155.3 311.42,-160.75 321.92,-162.15 320.51,-155.3"/>
</a>
</g>
</g>
<!-- Node15 -->
<g id="Node000015" class="node">
<title>Node15</title>
<g id="a_Node000015"><a xlink:href="../../d0/def/unmanaged__node_8hpp.html" target="_top" xlink:title=" ">
<polygon fill="white" stroke="#666666" points="947.57,-123 849.57,-123 849.57,-106 947.57,-106 947.57,-123"/>
<text text-anchor="middle" x="898.57" y="-112.6" font-family="Helvetica,sans-Serif" font-size="8.00">unmanaged_node.hpp</text>
</a>
</g>
</g>
<!-- Node1&#45;&gt;Node15 -->
<g id="edge26_Node000001_Node000015" class="edge">
<title>Node1&#45;&gt;Node15</title>
<g id="a_edge26_Node000001_Node000015"><a xlink:title=" ">
<path fill="none" stroke="#63b8ff" d="M321.45,-163.36C427.98,-154.52 730.12,-129.47 849.33,-119.58"/>
<polygon fill="#63b8ff" stroke="#63b8ff" points="320.86,-159.9 311.19,-164.21 321.44,-166.87 320.86,-159.9"/>
</a>
</g>
</g>
<!-- Node3&#45;&gt;Node2 -->
<g id="edge3_Node000003_Node000002" class="edge">
<title>Node3&#45;&gt;Node2</title>
<g id="a_edge3_Node000003_Node000002"><a xlink:title=" ">
<path fill="none" stroke="#63b8ff" d="M71.5,-102.23C107.21,-88.72 170.02,-66.25 225.57,-53 323.12,-29.74 442.27,-16.52 492,-11.66"/>
<polygon fill="#63b8ff" stroke="#63b8ff" points="69.85,-99.11 61.75,-105.95 72.34,-105.65 69.85,-99.11"/>
</a>
</g>
</g>
<!-- Node4&#45;&gt;Node2 -->
<g id="edge5_Node000004_Node000002" class="edge">
<title>Node4&#45;&gt;Node2</title>
<g id="a_edge5_Node000004_Node000002"><a xlink:title=" ">
<path fill="none" stroke="#63b8ff" d="M153.15,-101.4C181.71,-87.8 230.53,-65.94 274.57,-53 352.48,-30.11 448.29,-17.16 491.91,-12.06"/>
<polygon fill="#63b8ff" stroke="#63b8ff" points="151.43,-98.34 143.94,-105.84 154.47,-104.65 151.43,-98.34"/>
</a>
</g>
</g>
<!-- Node5&#45;&gt;Node2 -->
<g id="edge7_Node000005_Node000002" class="edge">
<title>Node5&#45;&gt;Node2</title>
<g id="a_edge7_Node000005_Node000002"><a xlink:title=" ">
<path fill="none" stroke="#63b8ff" d="M229.26,-100.03C249.21,-86.26 282.21,-65.22 313.57,-53 375.4,-28.9 453.36,-16.92 491.84,-12.12"/>
<polygon fill="#63b8ff" stroke="#63b8ff" points="226.99,-97.35 220.82,-105.96 231.01,-103.07 226.99,-97.35"/>
</a>
</g>
</g>
<!-- Node6&#45;&gt;Node2 -->
<g id="edge9_Node000006_Node000002" class="edge">
<title>Node6&#45;&gt;Node2</title>
<g id="a_edge9_Node000006_Node000002"><a xlink:title=" ">
<path fill="none" stroke="#63b8ff" d="M293.84,-97.32C303.47,-83.47 319.13,-64.07 337.57,-53 387.2,-23.19 456.23,-13.78 491.99,-10.83"/>
<polygon fill="#63b8ff" stroke="#63b8ff" points="290.79,-95.58 288.17,-105.85 296.62,-99.45 290.79,-95.58"/>
</a>
</g>
</g>
<!-- Node7&#45;&gt;Node2 -->
<g id="edge11_Node000007_Node000002" class="edge">
<title>Node7&#45;&gt;Node2</title>
<g id="a_edge11_Node000007_Node000002"><a xlink:title=" ">
<path fill="none" stroke="#63b8ff" d="M352.8,-97.58C343.95,-84.5 335.42,-66.06 345.57,-53 363.45,-29.96 449.71,-17.05 492.04,-12"/>
<polygon fill="#63b8ff" stroke="#63b8ff" points="350,-99.68 358.75,-105.65 355.63,-95.53 350,-99.68"/>
</a>
</g>
</g>
<!-- Node8&#45;&gt;Node2 -->
<g id="edge13_Node000008_Node000002" class="edge">
<title>Node8&#45;&gt;Node2</title>
<g id="a_edge13_Node000008_Node000002"><a xlink:title=" ">
<path fill="none" stroke="#63b8ff" d="M409.24,-105.01C376.55,-95.25 334.88,-77.37 353.57,-53 370.36,-31.1 451.06,-17.79 491.85,-12.35"/>
<polygon fill="#63b8ff" stroke="#63b8ff" points="408.45,-108.42 419.03,-107.78 410.36,-101.69 408.45,-108.42"/>
</a>
</g>
</g>
<!-- Node9&#45;&gt;Node2 -->
<g id="edge15_Node000009_Node000002" class="edge">
<title>Node9&#45;&gt;Node2</title>
<g id="a_edge15_Node000009_Node000002"><a xlink:title=" ">
<path fill="none" stroke="#63b8ff" d="M481.84,-103.95C435.23,-94.32 370.95,-79.55 363.57,-70 328.83,-25.05 441.14,-13.41 491.94,-10.47"/>
<polygon fill="#63b8ff" stroke="#63b8ff" points="481.29,-107.41 491.78,-105.98 482.69,-100.55 481.29,-107.41"/>
</a>
</g>
</g>
<!-- Node10 -->
<g id="Node000010" class="node">
<title>Node10</title>
<g id="a_Node000010"><a xlink:href="../../d3/d3e/gbest__first_8hpp.html" target="_top" xlink:title=" ">
<polygon fill="white" stroke="#666666" points="442.07,-70 373.07,-70 373.07,-53 442.07,-53 442.07,-70"/>
<text text-anchor="middle" x="407.57" y="-59.6" font-family="Helvetica,sans-Serif" font-size="8.00">gbest_first.hpp</text>
</a>
</g>
</g>
<!-- Node9&#45;&gt;Node10 -->
<g id="edge16_Node000009_Node000010" class="edge">
<title>Node9&#45;&gt;Node10</title>
<g id="a_edge16_Node000009_Node000010"><a xlink:title=" ">
<path fill="none" stroke="#63b8ff" d="M502.97,-102.06C479.4,-92.29 446.17,-78.51 425.79,-70.06"/>
<polygon fill="#63b8ff" stroke="#63b8ff" points="501.84,-105.38 512.42,-105.97 504.52,-98.91 501.84,-105.38"/>
</a>
</g>
</g>
<!-- Node11 -->
<g id="Node000011" class="node">
<title>Node11</title>
<g id="a_Node000011"><a xlink:href="../../de/d94/gbfs_8hpp.html" target="_top" xlink:title=" ">
<polygon fill="white" stroke="#666666" points="507.07,-70 460.07,-70 460.07,-53 507.07,-53 507.07,-70"/>
<text text-anchor="middle" x="483.57" y="-59.6" font-family="Helvetica,sans-Serif" font-size="8.00">gbfs.hpp</text>
</a>
</g>
</g>
<!-- Node9&#45;&gt;Node11 -->
<g id="edge18_Node000009_Node000011" class="edge">
<title>Node9&#45;&gt;Node11</title>
<g id="a_edge18_Node000009_Node000011"><a xlink:title=" ">
<path fill="none" stroke="#63b8ff" d="M516.75,-98.51C508.13,-89.16 497.41,-77.53 490.53,-70.06"/>
<polygon fill="#63b8ff" stroke="#63b8ff" points="514.28,-100.99 523.63,-105.97 519.43,-96.25 514.28,-100.99"/>
</a>
</g>
</g>
<!-- Node12 -->
<g id="Node000012" class="node">
<title>Node12</title>
<g id="a_Node000012"><a xlink:href="../../d4/df2/gdfs_8hpp.html" target="_top" xlink:title=" ">
<polygon fill="white" stroke="#666666" points="572.07,-70 525.07,-70 525.07,-53 572.07,-53 572.07,-70"/>
<text text-anchor="middle" x="548.57" y="-59.6" font-family="Helvetica,sans-Serif" font-size="8.00">gdfs.hpp</text>
</a>
</g>
</g>
<!-- Node9&#45;&gt;Node12 -->
<g id="edge20_Node000009_Node000012" class="edge">
<title>Node9&#45;&gt;Node12</title>
<g id="a_edge20_Node000009_Node000012"><a xlink:title=" ">
<path fill="none" stroke="#63b8ff" d="M536.57,-96.49C539.73,-87.53 543.45,-77 545.9,-70.06"/>
<polygon fill="#63b8ff" stroke="#63b8ff" points="533.25,-95.38 533.22,-105.97 539.85,-97.71 533.25,-95.38"/>
</a>
</g>
</g>
<!-- Node13 -->
<g id="Node000013" class="node">
<title>Node13</title>
<g id="a_Node000013"><a xlink:href="../../d3/d3e/gjps_8hpp.html" target="_top" xlink:title=" ">
<polygon fill="white" stroke="#666666" points="637.07,-70 590.07,-70 590.07,-53 637.07,-53 637.07,-70"/>
<text text-anchor="middle" x="613.57" y="-59.6" font-family="Helvetica,sans-Serif" font-size="8.00">gjps.hpp</text>
</a>
</g>
</g>
<!-- Node9&#45;&gt;Node13 -->
<g id="edge22_Node000009_Node000013" class="edge">
<title>Node9&#45;&gt;Node13</title>
<g id="a_edge22_Node000009_Node000013"><a xlink:title=" ">
<path fill="none" stroke="#63b8ff" d="M551.35,-100.73C567.08,-91.07 588.13,-78.13 601.27,-70.06"/>
<polygon fill="#63b8ff" stroke="#63b8ff" points="549.5,-97.76 542.81,-105.97 553.17,-103.72 549.5,-97.76"/>
</a>
</g>
</g>
<!-- Node14 -->
<g id="Node000014" class="node">
<title>Node14</title>
<g id="a_Node000014"><a xlink:href="../../d1/def/gstar_8hpp.html" target="_top" xlink:title=" ">
<polygon fill="white" stroke="#666666" points="705.57,-70 655.57,-70 655.57,-53 705.57,-53 705.57,-70"/>
<text text-anchor="middle" x="680.57" y="-59.6" font-family="Helvetica,sans-Serif" font-size="8.00">gstar.hpp</text>
</a>
</g>
</g>
<!-- Node9&#45;&gt;Node14 -->
<g id="edge24_Node000009_Node000014" class="edge">
<title>Node9&#45;&gt;Node14</title>
<g id="a_edge24_Node000009_Node000014"><a xlink:title=" ">
<path fill="none" stroke="#63b8ff" d="M562.31,-102.71C591.14,-92.9 632.93,-78.69 658.34,-70.06"/>
<polygon fill="#63b8ff" stroke="#63b8ff" points="561.04,-99.44 552.7,-105.97 563.29,-106.07 561.04,-99.44"/>
</a>
</g>
</g>
<!-- Node10&#45;&gt;Node2 -->
<g id="edge17_Node000010_Node000002" class="edge">
<title>Node10&#45;&gt;Node2</title>
<g id="a_edge17_Node000010_Node000002"><a xlink:title=" ">
<path fill="none" stroke="#63b8ff" d="M432.63,-48.66C453.27,-38.92 481.91,-25.39 499.57,-17.06"/>
<polygon fill="#63b8ff" stroke="#63b8ff" points="431.05,-45.54 423.5,-52.97 434.04,-51.87 431.05,-45.54"/>
</a>
</g>
</g>
<!-- Node11&#45;&gt;Node2 -->
<g id="edge19_Node000011_Node000002" class="edge">
<title>Node11&#45;&gt;Node2</title>
<g id="a_edge19_Node000011_Node000002"><a xlink:title=" ">
<path fill="none" stroke="#63b8ff" d="M493.69,-44.36C499.42,-35.23 506.33,-24.22 510.83,-17.06"/>
<polygon fill="#63b8ff" stroke="#63b8ff" points="490.64,-42.64 488.29,-52.97 496.57,-46.36 490.64,-42.64"/>
</a>
</g>
</g>
<!-- Node12&#45;&gt;Node2 -->
<g id="edge21_Node000012_Node000002" class="edge">
<title>Node12&#45;&gt;Node2</title>
<g id="a_edge21_Node000012_Node000002"><a xlink:title=" ">
<path fill="none" stroke="#63b8ff" d="M538.13,-44.36C532.21,-35.23 525.09,-24.22 520.46,-17.06"/>
<polygon fill="#63b8ff" stroke="#63b8ff" points="535.33,-46.48 543.7,-52.97 541.2,-42.68 535.33,-46.48"/>
</a>
</g>
</g>
<!-- Node13&#45;&gt;Node2 -->
<g id="edge23_Node000013_Node000002" class="edge">
<title>Node13&#45;&gt;Node2</title>
<g id="a_edge23_Node000013_Node000002"><a xlink:title=" ">
<path fill="none" stroke="#63b8ff" d="M590.06,-48.27C571.39,-38.55 545.89,-25.28 530.09,-17.06"/>
<polygon fill="#63b8ff" stroke="#63b8ff" points="588.62,-51.46 599.11,-52.97 591.85,-45.25 588.62,-51.46"/>
</a>
</g>
</g>
<!-- Node14&#45;&gt;Node2 -->
<g id="edge25_Node000014_Node000002" class="edge">
<title>Node14&#45;&gt;Node2</title>
<g id="a_edge25_Node000014_Node000002"><a xlink:title=" ">
<path fill="none" stroke="#63b8ff" d="M646.39,-49.94C614.35,-40.03 567.29,-25.49 539.21,-16.81"/>
<polygon fill="#63b8ff" stroke="#63b8ff" points="645.63,-53.37 656.22,-52.97 647.7,-46.68 645.63,-53.37"/>
</a>
</g>
</g>
<!-- Node15&#45;&gt;Node2 -->
<g id="edge33_Node000015_Node000002" class="edge">
<title>Node15&#45;&gt;Node2</title>
<g id="a_edge33_Node000015_Node000002"><a xlink:title=" ">
<path fill="none" stroke="#63b8ff" d="M859.15,-103.26C829.5,-95.2 788.06,-83.16 752.57,-70 735.22,-63.57 732.14,-58.78 714.57,-53 652.76,-32.66 576.99,-19.09 539.27,-13.06"/>
<polygon fill="#63b8ff" stroke="#63b8ff" points="858.54,-106.73 869.11,-105.94 860.36,-99.97 858.54,-106.73"/>
</a>
</g>
</g>
<!-- Node16 -->
<g id="Node000016" class="node">
<title>Node16</title>
<g id="a_Node000016"><a xlink:href="../../dc/da9/astar_8hpp.html" target="_top" xlink:title=" ">
<polygon fill="white" stroke="#666666" points="811.57,-70 761.57,-70 761.57,-53 811.57,-53 811.57,-70"/>
<text text-anchor="middle" x="786.57" y="-59.6" font-family="Helvetica,sans-Serif" font-size="8.00">astar.hpp</text>
</a>
</g>
</g>
<!-- Node15&#45;&gt;Node16 -->
<g id="edge27_Node000015_Node000016" class="edge">
<title>Node15&#45;&gt;Node16</title>
<g id="a_edge27_Node000015_Node000016"><a xlink:title=" ">
<path fill="none" stroke="#63b8ff" d="M872.86,-101.8C851.44,-92.04 821.55,-78.43 803.16,-70.06"/>
<polygon fill="#63b8ff" stroke="#63b8ff" points="871.49,-105.02 882.04,-105.97 874.39,-98.65 871.49,-105.02"/>
</a>
</g>
</g>
<!-- Node17 -->
<g id="Node000017" class="node">
<title>Node17</title>
<g id="a_Node000017"><a xlink:href="../../d3/d77/best__first_8hpp.html" target="_top" xlink:title=" ">
<polygon fill="white" stroke="#666666" points="895.07,-70 830.07,-70 830.07,-53 895.07,-53 895.07,-70"/>
<text text-anchor="middle" x="862.57" y="-59.6" font-family="Helvetica,sans-Serif" font-size="8.00">best_first.hpp</text>
</a>
</g>
</g>
<!-- Node15&#45;&gt;Node17 -->
<g id="edge29_Node000015_Node000017" class="edge">
<title>Node15&#45;&gt;Node17</title>
<g id="a_edge29_Node000015_Node000017"><a xlink:title=" ">
<path fill="none" stroke="#63b8ff" d="M887.38,-97.65C880.89,-88.46 873.01,-77.3 867.9,-70.06"/>
<polygon fill="#63b8ff" stroke="#63b8ff" points="884.63,-99.82 893.25,-105.97 890.35,-95.79 884.63,-99.82"/>
</a>
</g>
</g>
<!-- Node18 -->
<g id="Node000018" class="node">
<title>Node18</title>
<g id="a_Node000018"><a xlink:href="../../da/d36/bfs_8hpp.html" target="_top" xlink:title=" ">
<polygon fill="white" stroke="#666666" points="956.07,-70 913.07,-70 913.07,-53 956.07,-53 956.07,-70"/>
<text text-anchor="middle" x="934.57" y="-59.6" font-family="Helvetica,sans-Serif" font-size="8.00">bfs.hpp</text>
</a>
</g>
</g>
<!-- Node15&#45;&gt;Node18 -->
<g id="edge31_Node000015_Node000018" class="edge">
<title>Node15&#45;&gt;Node18</title>
<g id="a_edge31_Node000015_Node000018"><a xlink:title=" ">
<path fill="none" stroke="#63b8ff" d="M909.75,-97.65C916.24,-88.46 924.12,-77.3 929.23,-70.06"/>
<polygon fill="#63b8ff" stroke="#63b8ff" points="906.79,-95.79 903.88,-105.97 912.5,-99.82 906.79,-95.79"/>
</a>
</g>
</g>
<!-- Node19 -->
<g id="Node000019" class="node">
<title>Node19</title>
<g id="a_Node000019"><a xlink:href="../../d3/dec/dfs_8hpp.html" target="_top" xlink:title=" ">
<polygon fill="white" stroke="#666666" points="1017.07,-70 974.07,-70 974.07,-53 1017.07,-53 1017.07,-70"/>
<text text-anchor="middle" x="995.57" y="-59.6" font-family="Helvetica,sans-Serif" font-size="8.00">dfs.hpp</text>
</a>
</g>
</g>
<!-- Node15&#45;&gt;Node19 -->
<g id="edge34_Node000015_Node000019" class="edge">
<title>Node15&#45;&gt;Node19</title>
<g id="a_edge34_Node000015_Node000019"><a xlink:title=" ">
<path fill="none" stroke="#63b8ff" d="M921.84,-101.27C940.31,-91.55 965.55,-78.28 981.2,-70.06"/>
<polygon fill="#63b8ff" stroke="#63b8ff" points="920.1,-98.22 912.88,-105.97 923.36,-104.42 920.1,-98.22"/>
</a>
</g>
</g>
<!-- Node20 -->
<g id="Node000020" class="node">
<title>Node20</title>
<g id="a_Node000020"><a xlink:href="../../d1/d5a/fstar_8hpp.html" target="_top" xlink:title=" ">
<polygon fill="white" stroke="#666666" points="1082.07,-70 1035.07,-70 1035.07,-53 1082.07,-53 1082.07,-70"/>
<text text-anchor="middle" x="1058.57" y="-59.6" font-family="Helvetica,sans-Serif" font-size="8.00">fstar.hpp</text>
</a>
</g>
</g>
<!-- Node15&#45;&gt;Node20 -->
<g id="edge36_Node000015_Node000020" class="edge">
<title>Node15&#45;&gt;Node20</title>
<g id="a_edge36_Node000015_Node000020"><a xlink:title=" ">
<path fill="none" stroke="#63b8ff" d="M932.02,-102.84C962.79,-93.03 1007.64,-78.73 1034.86,-70.06"/>
<polygon fill="#63b8ff" stroke="#63b8ff" points="930.64,-99.6 922.17,-105.97 932.77,-106.27 930.64,-99.6"/>
</a>
</g>
</g>
<!-- Node21 -->
<g id="Node000021" class="node">
<title>Node21</title>
<g id="a_Node000021"><a xlink:href="../../d9/de6/jps_8hpp.html" target="_top" xlink:title=" ">
<polygon fill="white" stroke="#666666" points="1142.57,-70 1100.57,-70 1100.57,-53 1142.57,-53 1142.57,-70"/>
<text text-anchor="middle" x="1121.57" y="-59.6" font-family="Helvetica,sans-Serif" font-size="8.00">jps.hpp</text>
</a>
</g>
</g>
<!-- Node15&#45;&gt;Node21 -->
<g id="edge38_Node000015_Node000021" class="edge">
<title>Node15&#45;&gt;Node21</title>
<g id="a_edge38_Node000015_Node000021"><a xlink:title=" ">
<path fill="none" stroke="#63b8ff" d="M942.55,-103.73C981.49,-95.03 1039.86,-81.88 1090.57,-70 1093.8,-69.24 1097.22,-68.43 1100.57,-67.62"/>
<polygon fill="#63b8ff" stroke="#63b8ff" points="941.59,-100.35 932.59,-105.95 943.11,-107.19 941.59,-100.35"/>
</a>
</g>
</g>
<!-- Node16&#45;&gt;Node2 -->
<g id="edge28_Node000016_Node000002" class="edge">
<title>Node16&#45;&gt;Node2</title>
<g id="a_edge28_Node000016_Node000002"><a xlink:title=" ">
<path fill="none" stroke="#63b8ff" d="M751.4,-53.73C750.1,-53.48 748.82,-53.24 747.57,-53 671.47,-38.55 581.28,-21.73 539.29,-13.91"/>
<polygon fill="#63b8ff" stroke="#63b8ff" points="750.91,-57.2 761.39,-55.64 752.23,-50.32 750.91,-57.2"/>
</a>
</g>
</g>
<!-- Node17&#45;&gt;Node2 -->
<g id="edge30_Node000017_Node000002" class="edge">
<title>Node17&#45;&gt;Node2</title>
<g id="a_edge30_Node000017_Node000002"><a xlink:title=" ">
<path fill="none" stroke="#63b8ff" d="M819.98,-52.96C708.72,-35.23 589.23,-19.17 539.34,-12.6"/>
<polygon fill="#63b8ff" stroke="#63b8ff" points="819.6,-56.45 830.03,-54.57 820.71,-49.54 819.6,-56.45"/>
</a>
</g>
</g>
<!-- Node18&#45;&gt;Node2 -->
<g id="edge32_Node000018_Node000002" class="edge">
<title>Node18&#45;&gt;Node2</title>
<g id="a_edge32_Node000018_Node000002"><a xlink:title=" ">
<path fill="none" stroke="#63b8ff" d="M903.08,-53.17C759.3,-28.28 598.87,-15.39 539.33,-11.12"/>
<polygon fill="#63b8ff" stroke="#63b8ff" points="902.5,-56.62 912.96,-54.91 903.72,-49.73 902.5,-56.62"/>
</a>
</g>
</g>
<!-- Node19&#45;&gt;Node2 -->
<g id="edge35_Node000019_Node000002" class="edge">
<title>Node19&#45;&gt;Node2</title>
<g id="a_edge35_Node000019_Node000002"><a xlink:title=" ">
<path fill="none" stroke="#63b8ff" d="M963.93,-53.18C795.51,-25.34 604.73,-13.95 539.09,-10.61"/>
<polygon fill="#63b8ff" stroke="#63b8ff" points="963.53,-56.66 973.97,-54.86 964.68,-49.76 963.53,-56.66"/>
</a>
</g>
</g>
<!-- Node20&#45;&gt;Node2 -->
<g id="edge37_Node000020_Node000002" class="edge">
<title>Node20&#45;&gt;Node2</title>
<g id="a_edge37_Node000020_Node000002"><a xlink:title=" ">
<path fill="none" stroke="#63b8ff" d="M1024.8,-53.14C831.68,-23.68 610.58,-13.17 539.09,-10.35"/>
<polygon fill="#63b8ff" stroke="#63b8ff" points="1024.43,-56.63 1034.85,-54.7 1025.5,-49.71 1024.43,-56.63"/>
</a>
</g>
</g>
<!-- Node21&#45;&gt;Node2 -->
<g id="edge39_Node000021_Node000002" class="edge">
<title>Node21&#45;&gt;Node2</title>
<g id="a_edge39_Node000021_Node000002"><a xlink:title=" ">
<path fill="none" stroke="#63b8ff" d="M1090.21,-53.29C870.61,-19.3 616.92,-11.59 539.28,-9.92"/>
<polygon fill="#63b8ff" stroke="#63b8ff" points="1089.89,-56.78 1100.31,-54.88 1090.98,-49.87 1089.89,-56.78"/>
</a>
</g>
</g>
</g>
</svg>
