<?xml version="1.0" encoding="UTF-8" standalone="no"?>
<!DOCTYPE svg PUBLIC "-//W3C//DTD SVG 1.1//EN"
 "http://www.w3.org/Graphics/SVG/1.1/DTD/svg11.dtd">
<!-- Generated by graphviz version 2.43.0 (0)
 -->
<!-- Title: bnode.hpp Pages: 1 -->
<svg width="1247pt" height="184pt"
 viewBox="0.00 0.00 1247.16 184.00" xmlns="http://www.w3.org/2000/svg" xmlns:xlink="http://www.w3.org/1999/xlink">
<g id="graph0" class="graph" transform="scale(1 1) rotate(0) translate(4 180)">
<title>bnode.hpp</title>
<!-- Node1 -->
<g id="Node000001" class="node">
<title>Node1</title>
<g id="a_Node000001"><a xlink:title=" ">
<polygon fill="#999999" stroke="#666666" points="342.16,-176 281.16,-176 281.16,-159 342.16,-159 342.16,-176"/>
<text text-anchor="middle" x="311.66" y="-165.6" font-family="Helvetica,sans-Serif" font-size="8.00">bnode.hpp</text>
</a>
</g>
</g>
<!-- Node2 -->
<g id="Node000002" class="node">
<title>Node2</title>
<g id="a_Node000002"><a xlink:href="../../d9/d96/chdr_8hpp.html" target="_top" xlink:title=" ">
<polygon fill="white" stroke="#666666" points="583.66,-17 531.66,-17 531.66,0 583.66,0 583.66,-17"/>
<text text-anchor="middle" x="557.66" y="-6.6" font-family="Helvetica,sans-Serif" font-size="8.00">chdr.hpp</text>
</a>
</g>
</g>
<!-- Node1&#45;&gt;Node2 -->
<g id="edge1_Node000001_Node000002" class="edge">
<title>Node1&#45;&gt;Node2</title>
<g id="a_edge1_Node000001_Node000002"><a xlink:title=" ">
<path fill="none" stroke="#63b8ff" d="M270.63,-165.4C179.52,-162.15 -29.15,-149.86 3.66,-106 67.91,-20.1 430.07,-10.57 531.35,-9.59"/>
<polygon fill="#63b8ff" stroke="#63b8ff" points="270.77,-168.9 280.88,-165.74 271,-161.91 270.77,-168.9"/>
</a>
</g>
</g>
<!-- Node3 -->
<g id="Node000003" class="node">
<title>Node3</title>
<g id="a_Node000003"><a xlink:href="../../d6/ded/eidastar_8hpp.html" target="_top" xlink:title=" ">
<polygon fill="white" stroke="#666666" points="80.66,-123 12.66,-123 12.66,-106 80.66,-106 80.66,-123"/>
<text text-anchor="middle" x="46.66" y="-112.6" font-family="Helvetica,sans-Serif" font-size="8.00">eidastar.hpp</text>
</a>
</g>
</g>
<!-- Node1&#45;&gt;Node3 -->
<g id="edge2_Node000001_Node000003" class="edge">
<title>Node1&#45;&gt;Node3</title>
<g id="a_edge2_Node000001_Node000003"><a xlink:title=" ">
<path fill="none" stroke="#63b8ff" d="M271.11,-158.7C219.03,-148.67 129.56,-131.45 80.8,-122.07"/>
<polygon fill="#63b8ff" stroke="#63b8ff" points="270.52,-162.15 281,-160.6 271.85,-155.27 270.52,-162.15"/>
</a>
</g>
</g>
<!-- Node4 -->
<g id="Node000004" class="node">
<title>Node4</title>
<g id="a_Node000004"><a xlink:href="../../d8/d85/eidbest__first_8hpp.html" target="_top" xlink:title=" ">
<polygon fill="white" stroke="#666666" points="184.16,-123 99.16,-123 99.16,-106 184.16,-106 184.16,-123"/>
<text text-anchor="middle" x="141.66" y="-112.6" font-family="Helvetica,sans-Serif" font-size="8.00">eidbest_first.hpp</text>
</a>
</g>
</g>
<!-- Node1&#45;&gt;Node4 -->
<g id="edge4_Node000001_Node000004" class="edge">
<title>Node1&#45;&gt;Node4</title>
<g id="a_edge4_Node000001_Node000004"><a xlink:title=" ">
<path fill="none" stroke="#63b8ff" d="M276.96,-156.09C244.25,-146.28 196.02,-131.81 166.85,-123.06"/>
<polygon fill="#63b8ff" stroke="#63b8ff" points="275.99,-159.45 286.58,-158.97 278,-152.75 275.99,-159.45"/>
</a>
</g>
</g>
<!-- Node5 -->
<g id="Node000005" class="node">
<title>Node5</title>
<g id="a_Node000005"><a xlink:href="../../dd/d95/eiddfs_8hpp.html" target="_top" xlink:title=" ">
<polygon fill="white" stroke="#666666" points="262.66,-123 202.66,-123 202.66,-106 262.66,-106 262.66,-123"/>
<text text-anchor="middle" x="232.66" y="-112.6" font-family="Helvetica,sans-Serif" font-size="8.00">eiddfs.hpp</text>
</a>
</g>
</g>
<!-- Node1&#45;&gt;Node5 -->
<g id="edge6_Node000001_Node000005" class="edge">
<title>Node1&#45;&gt;Node5</title>
<g id="a_edge6_Node000001_Node000005"><a xlink:title=" ">
<path fill="none" stroke="#63b8ff" d="M291.46,-153.46C276.54,-143.83 256.75,-131.05 244.37,-123.06"/>
<polygon fill="#63b8ff" stroke="#63b8ff" points="289.71,-156.49 300,-158.97 293.5,-150.61 289.71,-156.49"/>
</a>
</g>
</g>
<!-- Node6 -->
<g id="Node000006" class="node">
<title>Node6</title>
<g id="a_Node000006"><a xlink:href="../../db/df9/idastar_8hpp.html" target="_top" xlink:title=" ">
<polygon fill="white" stroke="#666666" points="342.66,-123 280.66,-123 280.66,-106 342.66,-106 342.66,-123"/>
<text text-anchor="middle" x="311.66" y="-112.6" font-family="Helvetica,sans-Serif" font-size="8.00">idastar.hpp</text>
</a>
</g>
</g>
<!-- Node1&#45;&gt;Node6 -->
<g id="edge8_Node000001_Node000006" class="edge">
<title>Node1&#45;&gt;Node6</title>
<g id="a_edge8_Node000001_Node000006"><a xlink:title=" ">
<path fill="none" stroke="#63b8ff" d="M311.66,-148.91C311.66,-140.08 311.66,-129.85 311.66,-123.06"/>
<polygon fill="#63b8ff" stroke="#63b8ff" points="308.16,-148.97 311.66,-158.97 315.16,-148.97 308.16,-148.97"/>
</a>
</g>
</g>
<!-- Node7 -->
<g id="Node000007" class="node">
<title>Node7</title>
<g id="a_Node000007"><a xlink:href="../../d1/d3a/idbest__first_8hpp.html" target="_top" xlink:title=" ">
<polygon fill="white" stroke="#666666" points="440.66,-123 360.66,-123 360.66,-106 440.66,-106 440.66,-123"/>
<text text-anchor="middle" x="400.66" y="-112.6" font-family="Helvetica,sans-Serif" font-size="8.00">idbest_first.hpp</text>
</a>
</g>
</g>
<!-- Node1&#45;&gt;Node7 -->
<g id="edge10_Node000001_Node000007" class="edge">
<title>Node1&#45;&gt;Node7</title>
<g id="a_edge10_Node000001_Node000007"><a xlink:title=" ">
<path fill="none" stroke="#63b8ff" d="M333.48,-154C350.39,-144.31 373.26,-131.2 387.48,-123.06"/>
<polygon fill="#63b8ff" stroke="#63b8ff" points="331.73,-150.97 324.79,-158.97 335.21,-157.04 331.73,-150.97"/>
</a>
</g>
</g>
<!-- Node8 -->
<g id="Node000008" class="node">
<title>Node8</title>
<g id="a_Node000008"><a xlink:href="../../df/d71/iddfs_8hpp.html" target="_top" xlink:title=" ">
<polygon fill="white" stroke="#666666" points="514.16,-123 459.16,-123 459.16,-106 514.16,-106 514.16,-123"/>
<text text-anchor="middle" x="486.66" y="-112.6" font-family="Helvetica,sans-Serif" font-size="8.00">iddfs.hpp</text>
</a>
</g>
</g>
<!-- Node1&#45;&gt;Node8 -->
<g id="edge12_Node000001_Node000008" class="edge">
<title>Node1&#45;&gt;Node8</title>
<g id="a_edge12_Node000001_Node000008"><a xlink:title=" ">
<path fill="none" stroke="#63b8ff" d="M347.38,-156.09C381.05,-146.28 430.7,-131.81 460.73,-123.06"/>
<polygon fill="#63b8ff" stroke="#63b8ff" points="346.1,-152.82 337.48,-158.97 348.06,-159.54 346.1,-152.82"/>
</a>
</g>
</g>
<!-- Node9 -->
<g id="Node000009" class="node">
<title>Node9</title>
<g id="a_Node000009"><a xlink:href="../../da/deb/managed__node_8hpp.html" target="_top" xlink:title=" ">
<polygon fill="white" stroke="#666666" points="630.66,-123 532.66,-123 532.66,-106 630.66,-106 630.66,-123"/>
<text text-anchor="middle" x="581.66" y="-112.6" font-family="Helvetica,sans-Serif" font-size="8.00">managed_node.hpp</text>
</a>
</g>
</g>
<!-- Node1&#45;&gt;Node9 -->
<g id="edge14_Node000001_Node000009" class="edge">
<title>Node1&#45;&gt;Node9</title>
<g id="a_edge14_Node000001_Node000009"><a xlink:title=" ">
<path fill="none" stroke="#63b8ff" d="M352.42,-158.8C403.65,-149.12 491,-132.62 541.8,-123.03"/>
<polygon fill="#63b8ff" stroke="#63b8ff" points="351.55,-155.4 342.37,-160.7 352.85,-162.28 351.55,-155.4"/>
</a>
</g>
</g>
<!-- Node15 -->
<g id="Node000015" class="node">
<title>Node15</title>
<g id="a_Node000015"><a xlink:href="../../d0/def/unmanaged__node_8hpp.html" target="_top" xlink:title=" ">
<polygon fill="white" stroke="#666666" points="1024.16,-123 915.16,-123 915.16,-106 1024.16,-106 1024.16,-123"/>
<text text-anchor="middle" x="969.66" y="-112.6" font-family="Helvetica,sans-Serif" font-size="8.00">unmanaged_node.hpp</text>
</a>
</g>
</g>
<!-- Node1&#45;&gt;Node15 -->
<g id="edge26_Node000001_Node000015" class="edge">
<title>Node1&#45;&gt;Node15</title>
<g id="a_edge26_Node000001_Node000015"><a xlink:title=" ">
<path fill="none" stroke="#63b8ff" d="M352.55,-163.33C466.21,-154.52 786.07,-129.73 914.89,-119.75"/>
<polygon fill="#63b8ff" stroke="#63b8ff" points="352.22,-159.85 342.52,-164.11 352.76,-166.83 352.22,-159.85"/>
</a>
</g>
</g>
<!-- Node3&#45;&gt;Node2 -->
<g id="edge3_Node000003_Node000002" class="edge">
<title>Node3&#45;&gt;Node2</title>
<g id="a_edge3_Node000003_Node000002"><a xlink:title=" ">
<path fill="none" stroke="#63b8ff" d="M77.43,-102.69C116.71,-89.27 186.98,-66.5 248.66,-53 352.13,-30.36 477.77,-16.93 531.38,-11.85"/>
<polygon fill="#63b8ff" stroke="#63b8ff" points="76.22,-99.41 67.91,-105.97 78.5,-106.03 76.22,-99.41"/>
</a>
</g>
</g>
<!-- Node4&#45;&gt;Node2 -->
<g id="edge5_Node000004_Node000002" class="edge">
<title>Node4&#45;&gt;Node2</title>
<g id="a_edge5_Node000004_Node000002"><a xlink:title=" ">
<path fill="none" stroke="#63b8ff" d="M167.73,-101.76C198.8,-88.2 252.57,-66.08 300.66,-53 383.41,-30.49 484.47,-17.47 531.4,-12.22"/>
<polygon fill="#63b8ff" stroke="#63b8ff" points="166.21,-98.61 158.47,-105.84 169.03,-105.01 166.21,-98.61"/>
</a>
</g>
</g>
<!-- Node5&#45;&gt;Node2 -->
<g id="edge7_Node000005_Node000002" class="edge">
<title>Node5&#45;&gt;Node2</title>
<g id="a_edge7_Node000005_Node000002"><a xlink:title=" ">
<path fill="none" stroke="#63b8ff" d="M251.96,-100.37C273.09,-86.58 308.4,-65.24 341.66,-53 407.53,-28.75 489.95,-16.92 531.35,-12.16"/>
<polygon fill="#63b8ff" stroke="#63b8ff" points="249.96,-97.49 243.57,-105.94 253.83,-103.32 249.96,-97.49"/>
</a>
</g>
</g>
<!-- Node6&#45;&gt;Node2 -->
<g id="edge9_Node000006_Node000002" class="edge">
<title>Node6&#45;&gt;Node2</title>
<g id="a_edge9_Node000006_Node000002"><a xlink:title=" ">
<path fill="none" stroke="#63b8ff" d="M321.89,-97.24C331.49,-83.35 347.13,-63.92 365.66,-53 418.96,-21.6 492.87,-12.85 531.6,-10.43"/>
<polygon fill="#63b8ff" stroke="#63b8ff" points="318.82,-95.53 316.24,-105.81 324.67,-99.38 318.82,-95.53"/>
</a>
</g>
</g>
<!-- Node7&#45;&gt;Node2 -->
<g id="edge11_Node000007_Node000002" class="edge">
<title>Node7&#45;&gt;Node2</title>
<g id="a_edge11_Node000007_Node000002"><a xlink:title=" ">
<path fill="none" stroke="#63b8ff" d="M385.31,-98.17C374.21,-85.21 362.89,-66.62 373.66,-53 393.06,-28.48 485.48,-16.36 531.5,-11.77"/>
<polygon fill="#63b8ff" stroke="#63b8ff" points="382.98,-100.81 392.34,-105.77 388.12,-96.06 382.98,-100.81"/>
</a>
</g>
</g>
<!-- Node8&#45;&gt;Node2 -->
<g id="edge13_Node000008_Node000002" class="edge">
<title>Node8&#45;&gt;Node2</title>
<g id="a_edge13_Node000008_Node000002"><a xlink:title=" ">
<path fill="none" stroke="#63b8ff" d="M449.28,-103C422.12,-94.52 388.75,-82.07 380.66,-70 376.45,-63.72 376,-58.95 380.66,-53 399.11,-29.47 486.79,-16.97 531.43,-12.04"/>
<polygon fill="#63b8ff" stroke="#63b8ff" points="448.37,-106.38 458.95,-105.93 450.4,-99.68 448.37,-106.38"/>
</a>
</g>
</g>
<!-- Node9&#45;&gt;Node2 -->
<g id="edge15_Node000009_Node000002" class="edge">
<title>Node9&#45;&gt;Node2</title>
<g id="a_edge15_Node000009_Node000002"><a xlink:title=" ">
<path fill="none" stroke="#63b8ff" d="M525.28,-104.23C472.37,-94.96 400.11,-80.6 391.66,-70 353.52,-22.14 475.64,-12.13 531.4,-10.05"/>
<polygon fill="#63b8ff" stroke="#63b8ff" points="524.79,-107.7 535.25,-105.96 525.99,-100.8 524.79,-107.7"/>
</a>
</g>
</g>
<!-- Node10 -->
<g id="Node000010" class="node">
<title>Node10</title>
<g id="a_Node000010"><a xlink:href="../../d3/d3e/gbest__first_8hpp.html" target="_top" xlink:title=" ">
<polygon fill="white" stroke="#666666" points="478.16,-70 401.16,-70 401.16,-53 478.16,-53 478.16,-70"/>
<text text-anchor="middle" x="439.66" y="-59.6" font-family="Helvetica,sans-Serif" font-size="8.00">gbest_first.hpp</text>
</a>
</g>
</g>
<!-- Node9&#45;&gt;Node10 -->
<g id="edge16_Node000009_Node000010" class="edge">
<title>Node9&#45;&gt;Node10</title>
<g id="a_edge16_Node000009_Node000010"><a xlink:title=" ">
<path fill="none" stroke="#63b8ff" d="M551.25,-102.58C523.97,-92.78 484.65,-78.66 460.7,-70.06"/>
<polygon fill="#63b8ff" stroke="#63b8ff" points="550.11,-105.89 560.71,-105.97 552.48,-99.3 550.11,-105.89"/>
</a>
</g>
</g>
<!-- Node11 -->
<g id="Node000011" class="node">
<title>Node11</title>
<g id="a_Node000011"><a xlink:href="../../de/d94/gbfs_8hpp.html" target="_top" xlink:title=" ">
<polygon fill="white" stroke="#666666" points="549.16,-70 496.16,-70 496.16,-53 549.16,-53 549.16,-70"/>
<text text-anchor="middle" x="522.66" y="-59.6" font-family="Helvetica,sans-Serif" font-size="8.00">gbfs.hpp</text>
</a>
</g>
</g>
<!-- Node9&#45;&gt;Node11 -->
<g id="edge18_Node000009_Node000011" class="edge">
<title>Node9&#45;&gt;Node11</title>
<g id="a_edge18_Node000009_Node000011"><a xlink:title=" ">
<path fill="none" stroke="#63b8ff" d="M565.29,-99.35C554.32,-89.87 540.31,-77.75 531.4,-70.06"/>
<polygon fill="#63b8ff" stroke="#63b8ff" points="563.1,-102.08 572.96,-105.97 567.68,-96.79 563.1,-102.08"/>
</a>
</g>
</g>
<!-- Node12 -->
<g id="Node000012" class="node">
<title>Node12</title>
<g id="a_Node000012"><a xlink:href="../../d4/df2/gdfs_8hpp.html" target="_top" xlink:title=" ">
<polygon fill="white" stroke="#666666" points="620.16,-70 567.16,-70 567.16,-53 620.16,-53 620.16,-70"/>
<text text-anchor="middle" x="593.66" y="-59.6" font-family="Helvetica,sans-Serif" font-size="8.00">gdfs.hpp</text>
</a>
</g>
</g>
<!-- Node9&#45;&gt;Node12 -->
<g id="edge20_Node000009_Node000012" class="edge">
<title>Node9&#45;&gt;Node12</title>
<g id="a_edge20_Node000009_Node000012"><a xlink:title=" ">
<path fill="none" stroke="#63b8ff" d="M585.73,-96.2C587.82,-87.31 590.27,-76.92 591.88,-70.06"/>
<polygon fill="#63b8ff" stroke="#63b8ff" points="582.32,-95.44 583.43,-105.97 589.13,-97.04 582.32,-95.44"/>
</a>
</g>
</g>
<!-- Node13 -->
<g id="Node000013" class="node">
<title>Node13</title>
<g id="a_Node000013"><a xlink:href="../../d3/d3e/gjps_8hpp.html" target="_top" xlink:title=" ">
<polygon fill="white" stroke="#666666" points="690.66,-70 638.66,-70 638.66,-53 690.66,-53 690.66,-70"/>
<text text-anchor="middle" x="664.66" y="-59.6" font-family="Helvetica,sans-Serif" font-size="8.00">gjps.hpp</text>
</a>
</g>
</g>
<!-- Node9&#45;&gt;Node13 -->
<g id="edge22_Node000009_Node000013" class="edge">
<title>Node9&#45;&gt;Node13</title>
<g id="a_edge22_Node000009_Node000013"><a xlink:title=" ">
<path fill="none" stroke="#63b8ff" d="M602.45,-100.73C618.17,-91.07 639.23,-78.13 652.36,-70.06"/>
<polygon fill="#63b8ff" stroke="#63b8ff" points="600.6,-97.76 593.91,-105.97 604.26,-103.72 600.6,-97.76"/>
</a>
</g>
</g>
<!-- Node14 -->
<g id="Node000014" class="node">
<title>Node14</title>
<g id="a_Node000014"><a xlink:href="../../d1/def/gstar_8hpp.html" target="_top" xlink:title=" ">
<polygon fill="white" stroke="#666666" points="764.16,-70 709.16,-70 709.16,-53 764.16,-53 764.16,-70"/>
<text text-anchor="middle" x="736.66" y="-59.6" font-family="Helvetica,sans-Serif" font-size="8.00">gstar.hpp</text>
</a>
</g>
</g>
<!-- Node9&#45;&gt;Node14 -->
<g id="edge24_Node000009_Node000014" class="edge">
<title>Node9&#45;&gt;Node14</title>
<g id="a_edge24_Node000009_Node000014"><a xlink:title=" ">
<path fill="none" stroke="#63b8ff" d="M614.07,-102.84C643.88,-93.03 687.33,-78.73 713.7,-70.06"/>
<polygon fill="#63b8ff" stroke="#63b8ff" points="612.94,-99.52 604.53,-105.97 615.13,-106.17 612.94,-99.52"/>
</a>
</g>
</g>
<!-- Node10&#45;&gt;Node2 -->
<g id="edge17_Node000010_Node000002" class="edge">
<title>Node10&#45;&gt;Node2</title>
<g id="a_edge17_Node000010_Node000002"><a xlink:title=" ">
<path fill="none" stroke="#63b8ff" d="M466.44,-48.93C489.03,-39.16 520.71,-25.47 540.18,-17.06"/>
<polygon fill="#63b8ff" stroke="#63b8ff" points="464.86,-45.79 457.07,-52.97 467.64,-52.22 464.86,-45.79"/>
</a>
</g>
</g>
<!-- Node11&#45;&gt;Node2 -->
<g id="edge19_Node000011_Node000002" class="edge">
<title>Node11&#45;&gt;Node2</title>
<g id="a_edge19_Node000011_Node000002"><a xlink:title=" ">
<path fill="none" stroke="#63b8ff" d="M533.54,-44.65C539.85,-35.46 547.51,-24.3 552.48,-17.06"/>
<polygon fill="#63b8ff" stroke="#63b8ff" points="530.6,-42.75 527.83,-52.97 536.37,-46.71 530.6,-42.75"/>
</a>
</g>
</g>
<!-- Node12&#45;&gt;Node2 -->
<g id="edge21_Node000012_Node000002" class="edge">
<title>Node12&#45;&gt;Node2</title>
<g id="a_edge21_Node000012_Node000002"><a xlink:title=" ">
<path fill="none" stroke="#63b8ff" d="M582.48,-44.65C575.98,-35.46 568.11,-24.3 563,-17.06"/>
<polygon fill="#63b8ff" stroke="#63b8ff" points="579.72,-46.82 588.35,-52.97 585.44,-42.79 579.72,-46.82"/>
</a>
</g>
</g>
<!-- Node13&#45;&gt;Node2 -->
<g id="edge23_Node000013_Node000002" class="edge">
<title>Node13&#45;&gt;Node2</title>
<g id="a_edge23_Node000013_Node000002"><a xlink:title=" ">
<path fill="none" stroke="#63b8ff" d="M639.83,-48.66C619.38,-38.92 591.01,-25.39 573.51,-17.06"/>
<polygon fill="#63b8ff" stroke="#63b8ff" points="638.34,-51.83 648.87,-52.97 641.35,-45.51 638.34,-51.83"/>
</a>
</g>
</g>
<!-- Node14&#45;&gt;Node2 -->
<g id="edge25_Node000014_Node000002" class="edge">
<title>Node14&#45;&gt;Node2</title>
<g id="a_edge25_Node000014_Node000002"><a xlink:title=" ">
<path fill="none" stroke="#63b8ff" d="M700.54,-50.21C665.98,-40.36 614.7,-25.75 583.89,-16.97"/>
<polygon fill="#63b8ff" stroke="#63b8ff" points="699.67,-53.6 710.25,-52.97 701.59,-46.87 699.67,-53.6"/>
</a>
</g>
</g>
<!-- Node15&#45;&gt;Node2 -->
<g id="edge33_Node000015_Node000002" class="edge">
<title>Node15&#45;&gt;Node2</title>
<g id="a_edge33_Node000015_Node000002"><a xlink:title=" ">
<path fill="none" stroke="#63b8ff" d="M927.22,-103.56C895.12,-95.63 850.15,-83.61 811.66,-70 793.83,-63.7 790.7,-58.68 772.66,-53 706.19,-32.05 624.89,-18.82 583.92,-12.98"/>
<polygon fill="#63b8ff" stroke="#63b8ff" points="926.62,-107.02 937.17,-105.99 928.29,-100.22 926.62,-107.02"/>
</a>
</g>
</g>
<!-- Node16 -->
<g id="Node000016" class="node">
<title>Node16</title>
<g id="a_Node000016"><a xlink:href="../../dc/da9/astar_8hpp.html" target="_top" xlink:title=" ">
<polygon fill="white" stroke="#666666" points="876.16,-70 821.16,-70 821.16,-53 876.16,-53 876.16,-70"/>
<text text-anchor="middle" x="848.66" y="-59.6" font-family="Helvetica,sans-Serif" font-size="8.00">astar.hpp</text>
</a>
</g>
</g>
<!-- Node15&#45;&gt;Node16 -->
<g id="edge27_Node000015_Node000016" class="edge">
<title>Node15&#45;&gt;Node16</title>
<g id="a_edge27_Node000015_Node000016"><a xlink:title=" ">
<path fill="none" stroke="#63b8ff" d="M942.52,-102.06C919.33,-92.29 886.64,-78.51 866.59,-70.06"/>
<polygon fill="#63b8ff" stroke="#63b8ff" points="941.23,-105.32 951.81,-105.97 943.95,-98.87 941.23,-105.32"/>
</a>
</g>
</g>
<!-- Node17 -->
<g id="Node000017" class="node">
<title>Node17</title>
<g id="a_Node000017"><a xlink:href="../../d3/d77/best__first_8hpp.html" target="_top" xlink:title=" ">
<polygon fill="white" stroke="#666666" points="966.66,-70 894.66,-70 894.66,-53 966.66,-53 966.66,-70"/>
<text text-anchor="middle" x="930.66" y="-59.6" font-family="Helvetica,sans-Serif" font-size="8.00">best_first.hpp</text>
</a>
</g>
</g>
<!-- Node15&#45;&gt;Node17 -->
<g id="edge29_Node000015_Node000017" class="edge">
<title>Node15&#45;&gt;Node17</title>
<g id="a_edge29_Node000015_Node000017"><a xlink:title=" ">
<path fill="none" stroke="#63b8ff" d="M957.76,-97.94C950.69,-88.69 942.04,-77.37 936.44,-70.06"/>
<polygon fill="#63b8ff" stroke="#63b8ff" points="955.05,-100.16 963.91,-105.97 960.61,-95.91 955.05,-100.16"/>
</a>
</g>
</g>
<!-- Node18 -->
<g id="Node000018" class="node">
<title>Node18</title>
<g id="a_Node000018"><a xlink:href="../../da/d36/bfs_8hpp.html" target="_top" xlink:title=" ">
<polygon fill="white" stroke="#666666" points="1032.16,-70 985.16,-70 985.16,-53 1032.16,-53 1032.16,-70"/>
<text text-anchor="middle" x="1008.66" y="-59.6" font-family="Helvetica,sans-Serif" font-size="8.00">bfs.hpp</text>
</a>
</g>
</g>
<!-- Node15&#45;&gt;Node18 -->
<g id="edge31_Node000015_Node000018" class="edge">
<title>Node15&#45;&gt;Node18</title>
<g id="a_edge31_Node000015_Node000018"><a xlink:title=" ">
<path fill="none" stroke="#63b8ff" d="M981.56,-97.94C988.63,-88.69 997.29,-77.37 1002.88,-70.06"/>
<polygon fill="#63b8ff" stroke="#63b8ff" points="978.71,-95.91 975.42,-105.97 984.27,-100.16 978.71,-95.91"/>
</a>
</g>
</g>
<!-- Node19 -->
<g id="Node000019" class="node">
<title>Node19</title>
<g id="a_Node000019"><a xlink:href="../../d3/dec/dfs_8hpp.html" target="_top" xlink:title=" ">
<polygon fill="white" stroke="#666666" points="1097.16,-70 1050.16,-70 1050.16,-53 1097.16,-53 1097.16,-70"/>
<text text-anchor="middle" x="1073.66" y="-59.6" font-family="Helvetica,sans-Serif" font-size="8.00">dfs.hpp</text>
</a>
</g>
</g>
<!-- Node15&#45;&gt;Node19 -->
<g id="edge34_Node000015_Node000019" class="edge">
<title>Node15&#45;&gt;Node19</title>
<g id="a_edge34_Node000015_Node000019"><a xlink:title=" ">
<path fill="none" stroke="#63b8ff" d="M994.07,-101.53C1013.92,-91.8 1041.33,-78.36 1058.25,-70.06"/>
<polygon fill="#63b8ff" stroke="#63b8ff" points="992.44,-98.43 985.01,-105.97 995.53,-104.71 992.44,-98.43"/>
</a>
</g>
</g>
<!-- Node20 -->
<g id="Node000020" class="node">
<title>Node20</title>
<g id="a_Node000020"><a xlink:href="../../d8/dd5/fringe_8hpp.html" target="_top" xlink:title=" ">
<polygon fill="white" stroke="#666666" points="1174.16,-70 1115.16,-70 1115.16,-53 1174.16,-53 1174.16,-70"/>
<text text-anchor="middle" x="1144.66" y="-59.6" font-family="Helvetica,sans-Serif" font-size="8.00">fringe.hpp</text>
</a>
</g>
</g>
<!-- Node15&#45;&gt;Node20 -->
<g id="edge36_Node000015_Node000020" class="edge">
<title>Node15&#45;&gt;Node20</title>
<g id="a_edge36_Node000015_Node000020"><a xlink:title=" ">
<path fill="none" stroke="#63b8ff" d="M1005.38,-103.09C1039.05,-93.28 1088.7,-78.81 1118.73,-70.06"/>
<polygon fill="#63b8ff" stroke="#63b8ff" points="1004.1,-99.82 995.48,-105.97 1006.06,-106.54 1004.1,-99.82"/>
</a>
</g>
</g>
<!-- Node21 -->
<g id="Node000021" class="node">
<title>Node21</title>
<g id="a_Node000021"><a xlink:href="../../d9/de6/jps_8hpp.html" target="_top" xlink:title=" ">
<polygon fill="white" stroke="#666666" points="1239.16,-70 1192.16,-70 1192.16,-53 1239.16,-53 1239.16,-70"/>
<text text-anchor="middle" x="1215.66" y="-59.6" font-family="Helvetica,sans-Serif" font-size="8.00">jps.hpp</text>
</a>
</g>
</g>
<!-- Node15&#45;&gt;Node21 -->
<g id="edge38_Node000015_Node000021" class="edge">
<title>Node15&#45;&gt;Node21</title>
<g id="a_edge38_Node000015_Node000021"><a xlink:title=" ">
<path fill="none" stroke="#63b8ff" d="M1017.76,-103.99C1060.97,-95.37 1126.13,-82.19 1182.66,-70 1185.65,-69.36 1188.78,-68.66 1191.88,-67.97"/>
<polygon fill="#63b8ff" stroke="#63b8ff" points="1016.93,-100.59 1007.81,-105.97 1018.3,-107.45 1016.93,-100.59"/>
</a>
</g>
</g>
<!-- Node16&#45;&gt;Node2 -->
<g id="edge28_Node000016_Node000002" class="edge">
<title>Node16&#45;&gt;Node2</title>
<g id="a_edge28_Node000016_Node000002"><a xlink:title=" ">
<path fill="none" stroke="#63b8ff" d="M811.11,-53.79C809.61,-53.52 808.12,-53.26 806.66,-53 725.42,-38.65 629.21,-21.92 583.84,-14.04"/>
<polygon fill="#63b8ff" stroke="#63b8ff" points="810.64,-57.26 821.1,-55.56 811.87,-50.37 810.64,-57.26"/>
</a>
</g>
</g>
<!-- Node17&#45;&gt;Node2 -->
<g id="edge30_Node000017_Node000002" class="edge">
<title>Node17&#45;&gt;Node2</title>
<g id="a_edge30_Node000017_Node000002"><a xlink:title=" ">
<path fill="none" stroke="#63b8ff" d="M884.53,-53.03C765.81,-35.57 638.05,-19.44 583.98,-12.73"/>
<polygon fill="#63b8ff" stroke="#63b8ff" points="884.11,-56.51 894.52,-54.5 885.14,-49.58 884.11,-56.51"/>
</a>
</g>
</g>
<!-- Node18&#45;&gt;Node2 -->
<g id="edge32_Node000018_Node000002" class="edge">
<title>Node18&#45;&gt;Node2</title>
<g id="a_edge32_Node000018_Node000002"><a xlink:title=" ">
<path fill="none" stroke="#63b8ff" d="M974.82,-53.09C820.82,-28.14 648.28,-15.37 583.73,-11.12"/>
<polygon fill="#63b8ff" stroke="#63b8ff" points="974.5,-56.58 984.94,-54.75 975.63,-49.68 974.5,-56.58"/>
</a>
</g>
</g>
<!-- Node19&#45;&gt;Node2 -->
<g id="edge35_Node000019_Node000002" class="edge">
<title>Node19&#45;&gt;Node2</title>
<g id="a_edge35_Node000019_Node000002"><a xlink:title=" ">
<path fill="none" stroke="#63b8ff" d="M1040.03,-53.15C859.89,-25.23 655.12,-13.95 583.73,-10.62"/>
<polygon fill="#63b8ff" stroke="#63b8ff" points="1039.52,-56.62 1049.94,-54.71 1040.61,-49.7 1039.52,-56.62"/>
</a>
</g>
</g>
<!-- Node20&#45;&gt;Node2 -->
<g id="edge37_Node000020_Node000002" class="edge">
<title>Node20&#45;&gt;Node2</title>
<g id="a_edge37_Node000020_Node000002"><a xlink:title=" ">
<path fill="none" stroke="#63b8ff" d="M1104.78,-53.06C898.08,-25.56 661.38,-13.87 583.73,-10.54"/>
<polygon fill="#63b8ff" stroke="#63b8ff" points="1104.53,-56.56 1114.91,-54.43 1105.46,-49.62 1104.53,-56.56"/>
</a>
</g>
</g>
<!-- Node21&#45;&gt;Node2 -->
<g id="edge39_Node000021_Node000002" class="edge">
<title>Node21&#45;&gt;Node2</title>
<g id="a_edge39_Node000021_Node000002"><a xlink:title=" ">
<path fill="none" stroke="#63b8ff" d="M1181.74,-53.15C944.16,-18.77 668.48,-11.42 583.71,-9.88"/>
<polygon fill="#63b8ff" stroke="#63b8ff" points="1181.55,-56.66 1191.95,-54.65 1182.56,-49.74 1181.55,-56.66"/>
</a>
</g>
</g>
</g>
</svg>
