<?xml version="1.0" encoding="UTF-8" standalone="no"?>
<!DOCTYPE svg PUBLIC "-//W3C//DTD SVG 1.1//EN"
 "http://www.w3.org/Graphics/SVG/1.1/DTD/svg11.dtd">
<!-- Generated by graphviz version 2.43.0 (0)
 -->
<!-- Title: bnode.hpp Pages: 1 -->
<svg width="1346pt" height="184pt"
 viewBox="0.00 0.00 1345.51 184.00" xmlns="http://www.w3.org/2000/svg" xmlns:xlink="http://www.w3.org/1999/xlink">
<g id="graph0" class="graph" transform="scale(1 1) rotate(0) translate(4 180)">
<title>bnode.hpp</title>
<!-- Node1 -->
<g id="Node000001" class="node">
<title>Node1</title>
<g id="a_Node000001"><a xlink:title=" ">
<polygon fill="#999999" stroke="#666666" points="386.51,-176 325.51,-176 325.51,-159 386.51,-159 386.51,-176"/>
<text text-anchor="middle" x="356.01" y="-165.6" font-family="Helvetica,sans-Serif" font-size="8.00">bnode.hpp</text>
</a>
</g>
</g>
<!-- Node2 -->
<g id="Node000002" class="node">
<title>Node2</title>
<g id="a_Node000002"><a xlink:href="../../d9/d96/chdr_8hpp.html" target="_top" xlink:title=" ">
<polygon fill="white" stroke="#666666" points="635.01,-17 583.01,-17 583.01,0 635.01,0 635.01,-17"/>
<text text-anchor="middle" x="609.01" y="-6.6" font-family="Helvetica,sans-Serif" font-size="8.00">chdr.hpp</text>
</a>
</g>
</g>
<!-- Node1&#45;&gt;Node2 -->
<g id="edge1_Node000001_Node000002" class="edge">
<title>Node1&#45;&gt;Node2</title>
<g id="a_edge1_Node000001_Node000002"><a xlink:title=" ">
<path fill="none" stroke="#63b8ff" d="M315.19,-166.36C214.77,-165.23 -33.52,-157.29 4.01,-106 73.58,-10.94 475.68,-8.14 582.8,-9.11"/>
<polygon fill="#63b8ff" stroke="#63b8ff" points="315.25,-169.86 325.28,-166.46 315.31,-162.86 315.25,-169.86"/>
</a>
</g>
</g>
<!-- Node3 -->
<g id="Node000003" class="node">
<title>Node3</title>
<g id="a_Node000003"><a xlink:href="../../d6/ded/eidastar_8hpp.html" target="_top" xlink:title=" ">
<polygon fill="white" stroke="#666666" points="81.01,-123 13.01,-123 13.01,-106 81.01,-106 81.01,-123"/>
<text text-anchor="middle" x="47.01" y="-112.6" font-family="Helvetica,sans-Serif" font-size="8.00">eidastar.hpp</text>
</a>
</g>
</g>
<!-- Node1&#45;&gt;Node3 -->
<g id="edge2_Node000001_Node000003" class="edge">
<title>Node1&#45;&gt;Node3</title>
<g id="a_edge2_Node000001_Node000003"><a xlink:title=" ">
<path fill="none" stroke="#63b8ff" d="M315.08,-159.94C262.83,-151.54 169.65,-136.46 90.01,-123 87.17,-122.52 84.23,-122.02 81.27,-121.51"/>
<polygon fill="#63b8ff" stroke="#63b8ff" points="314.85,-163.45 325.28,-161.58 315.96,-156.54 314.85,-163.45"/>
</a>
</g>
</g>
<!-- Node4 -->
<g id="Node000004" class="node">
<title>Node4</title>
<g id="a_Node000004"><a xlink:href="../../d8/d85/eidbest__first_8hpp.html" target="_top" xlink:title=" ">
<polygon fill="white" stroke="#666666" points="184.51,-123 99.51,-123 99.51,-106 184.51,-106 184.51,-123"/>
<text text-anchor="middle" x="142.01" y="-112.6" font-family="Helvetica,sans-Serif" font-size="8.00">eidbest_first.hpp</text>
</a>
</g>
</g>
<!-- Node1&#45;&gt;Node4 -->
<g id="edge4_Node000001_Node000004" class="edge">
<title>Node1&#45;&gt;Node4</title>
<g id="a_edge4_Node000001_Node000004"><a xlink:title=" ">
<path fill="none" stroke="#63b8ff" d="M315.37,-156.82C274.18,-147 211.3,-132.01 173.66,-123.04"/>
<polygon fill="#63b8ff" stroke="#63b8ff" points="314.81,-160.28 325.35,-159.19 316.44,-153.47 314.81,-160.28"/>
</a>
</g>
</g>
<!-- Node5 -->
<g id="Node000005" class="node">
<title>Node5</title>
<g id="a_Node000005"><a xlink:href="../../dd/d95/eiddfs_8hpp.html" target="_top" xlink:title=" ">
<polygon fill="white" stroke="#666666" points="263.01,-123 203.01,-123 203.01,-106 263.01,-106 263.01,-123"/>
<text text-anchor="middle" x="233.01" y="-112.6" font-family="Helvetica,sans-Serif" font-size="8.00">eiddfs.hpp</text>
</a>
</g>
</g>
<!-- Node1&#45;&gt;Node5 -->
<g id="edge6_Node000001_Node000005" class="edge">
<title>Node1&#45;&gt;Node5</title>
<g id="a_edge6_Node000001_Node000005"><a xlink:title=" ">
<path fill="none" stroke="#63b8ff" d="M328.42,-155.06C304.85,-145.29 271.62,-131.51 251.24,-123.06"/>
<polygon fill="#63b8ff" stroke="#63b8ff" points="327.29,-158.38 337.86,-158.97 329.97,-151.91 327.29,-158.38"/>
</a>
</g>
</g>
<!-- Node6 -->
<g id="Node000006" class="node">
<title>Node6</title>
<g id="a_Node000006"><a xlink:href="../../db/df9/idastar_8hpp.html" target="_top" xlink:title=" ">
<polygon fill="white" stroke="#666666" points="343.01,-123 281.01,-123 281.01,-106 343.01,-106 343.01,-123"/>
<text text-anchor="middle" x="312.01" y="-112.6" font-family="Helvetica,sans-Serif" font-size="8.00">idastar.hpp</text>
</a>
</g>
</g>
<!-- Node1&#45;&gt;Node6 -->
<g id="edge8_Node000001_Node000006" class="edge">
<title>Node1&#45;&gt;Node6</title>
<g id="a_edge8_Node000001_Node000006"><a xlink:title=" ">
<path fill="none" stroke="#63b8ff" d="M342.83,-151.22C334.81,-141.92 324.91,-130.45 318.53,-123.06"/>
<polygon fill="#63b8ff" stroke="#63b8ff" points="340.34,-153.69 349.52,-158.97 345.64,-149.12 340.34,-153.69"/>
</a>
</g>
</g>
<!-- Node7 -->
<g id="Node000007" class="node">
<title>Node7</title>
<g id="a_Node000007"><a xlink:href="../../d1/d3a/idbest__first_8hpp.html" target="_top" xlink:title=" ">
<polygon fill="white" stroke="#666666" points="441.01,-123 361.01,-123 361.01,-106 441.01,-106 441.01,-123"/>
<text text-anchor="middle" x="401.01" y="-112.6" font-family="Helvetica,sans-Serif" font-size="8.00">idbest_first.hpp</text>
</a>
</g>
</g>
<!-- Node1&#45;&gt;Node7 -->
<g id="edge10_Node000001_Node000007" class="edge">
<title>Node1&#45;&gt;Node7</title>
<g id="a_edge10_Node000001_Node000007"><a xlink:title=" ">
<path fill="none" stroke="#63b8ff" d="M369.49,-151.22C377.7,-141.92 387.82,-130.45 394.35,-123.06"/>
<polygon fill="#63b8ff" stroke="#63b8ff" points="366.64,-149.16 362.65,-158.97 371.89,-153.79 366.64,-149.16"/>
</a>
</g>
</g>
<!-- Node8 -->
<g id="Node000008" class="node">
<title>Node8</title>
<g id="a_Node000008"><a xlink:href="../../df/d71/iddfs_8hpp.html" target="_top" xlink:title=" ">
<polygon fill="white" stroke="#666666" points="514.51,-123 459.51,-123 459.51,-106 514.51,-106 514.51,-123"/>
<text text-anchor="middle" x="487.01" y="-112.6" font-family="Helvetica,sans-Serif" font-size="8.00">iddfs.hpp</text>
</a>
</g>
</g>
<!-- Node1&#45;&gt;Node8 -->
<g id="edge12_Node000001_Node000008" class="edge">
<title>Node1&#45;&gt;Node8</title>
<g id="a_edge12_Node000001_Node000008"><a xlink:title=" ">
<path fill="none" stroke="#63b8ff" d="M384.73,-155.32C409.87,-145.53 445.7,-131.58 467.6,-123.06"/>
<polygon fill="#63b8ff" stroke="#63b8ff" points="383.39,-152.09 375.34,-158.97 385.93,-158.61 383.39,-152.09"/>
</a>
</g>
</g>
<!-- Node9 -->
<g id="Node000009" class="node">
<title>Node9</title>
<g id="a_Node000009"><a xlink:href="../../da/deb/managed__node_8hpp.html" target="_top" xlink:title=" ">
<polygon fill="white" stroke="#666666" points="631.01,-123 533.01,-123 533.01,-106 631.01,-106 631.01,-123"/>
<text text-anchor="middle" x="582.01" y="-112.6" font-family="Helvetica,sans-Serif" font-size="8.00">managed_node.hpp</text>
</a>
</g>
</g>
<!-- Node1&#45;&gt;Node9 -->
<g id="edge14_Node000001_Node000009" class="edge">
<title>Node1&#45;&gt;Node9</title>
<g id="a_edge14_Node000001_Node000009"><a xlink:title=" ">
<path fill="none" stroke="#63b8ff" d="M396.91,-157.27C440.32,-147.47 508.12,-132.17 548.5,-123.06"/>
<polygon fill="#63b8ff" stroke="#63b8ff" points="395.95,-153.9 386.96,-159.52 397.49,-160.73 395.95,-153.9"/>
</a>
</g>
</g>
<!-- Node16 -->
<g id="Node000016" class="node">
<title>Node16</title>
<g id="a_Node000016"><a xlink:href="../../d5/d14/mutable__node_8hpp.html" target="_top" xlink:title=" ">
<polygon fill="white" stroke="#666666" points="821.51,-123 728.51,-123 728.51,-106 821.51,-106 821.51,-123"/>
<text text-anchor="middle" x="775.01" y="-112.6" font-family="Helvetica,sans-Serif" font-size="8.00">mutable_node.hpp</text>
</a>
</g>
</g>
<!-- Node1&#45;&gt;Node16 -->
<g id="edge28_Node000001_Node000016" class="edge">
<title>Node1&#45;&gt;Node16</title>
<g id="a_edge28_Node000001_Node000016"><a xlink:title=" ">
<path fill="none" stroke="#63b8ff" d="M396.78,-161.54C474.99,-152.02 645.65,-131.25 728.3,-121.19"/>
<polygon fill="#63b8ff" stroke="#63b8ff" points="396.33,-158.07 386.82,-162.75 397.17,-165.02 396.33,-158.07"/>
</a>
</g>
</g>
<!-- Node17 -->
<g id="Node000017" class="node">
<title>Node17</title>
<g id="a_Node000017"><a xlink:href="../../d0/def/unmanaged__node_8hpp.html" target="_top" xlink:title=" ">
<polygon fill="white" stroke="#666666" points="1122.51,-123 1013.51,-123 1013.51,-106 1122.51,-106 1122.51,-123"/>
<text text-anchor="middle" x="1068.01" y="-112.6" font-family="Helvetica,sans-Serif" font-size="8.00">unmanaged_node.hpp</text>
</a>
</g>
</g>
<!-- Node1&#45;&gt;Node17 -->
<g id="edge30_Node000001_Node000017" class="edge">
<title>Node1&#45;&gt;Node17</title>
<g id="a_edge30_Node000001_Node000017"><a xlink:title=" ">
<path fill="none" stroke="#63b8ff" d="M396.93,-163.57C518.27,-154.88 876.18,-129.24 1013.51,-119.4"/>
<polygon fill="#63b8ff" stroke="#63b8ff" points="396.33,-160.1 386.61,-164.31 396.83,-167.09 396.33,-160.1"/>
</a>
</g>
</g>
<!-- Node3&#45;&gt;Node2 -->
<g id="edge3_Node000003_Node000002" class="edge">
<title>Node3&#45;&gt;Node2</title>
<g id="a_edge3_Node000003_Node000002"><a xlink:title=" ">
<path fill="none" stroke="#63b8ff" d="M76.28,-102.37C113.54,-88.66 180.13,-65.62 239.01,-53 366.13,-25.75 521.73,-14.48 582.72,-10.89"/>
<polygon fill="#63b8ff" stroke="#63b8ff" points="74.74,-99.21 66.58,-105.98 77.18,-105.78 74.74,-99.21"/>
</a>
</g>
</g>
<!-- Node4&#45;&gt;Node2 -->
<g id="edge5_Node000004_Node000002" class="edge">
<title>Node4&#45;&gt;Node2</title>
<g id="a_edge5_Node000004_Node000002"><a xlink:title=" ">
<path fill="none" stroke="#63b8ff" d="M166.54,-101.5C195.9,-87.65 246.9,-65.21 293.01,-53 398.2,-25.14 528.09,-14.42 582.78,-10.94"/>
<polygon fill="#63b8ff" stroke="#63b8ff" points="164.97,-98.37 157.45,-105.84 167.98,-104.69 164.97,-98.37"/>
</a>
</g>
</g>
<!-- Node5&#45;&gt;Node2 -->
<g id="edge7_Node000005_Node000002" class="edge">
<title>Node5&#45;&gt;Node2</title>
<g id="a_edge7_Node000005_Node000002"><a xlink:title=" ">
<path fill="none" stroke="#63b8ff" d="M250.31,-99.66C268.88,-85.57 299.8,-64.24 330.01,-53 418.69,-20.01 532.23,-12.04 582.75,-10.11"/>
<polygon fill="#63b8ff" stroke="#63b8ff" points="248,-97.03 242.24,-105.92 252.29,-102.56 248,-97.03"/>
</a>
</g>
</g>
<!-- Node6&#45;&gt;Node2 -->
<g id="edge9_Node000006_Node000002" class="edge">
<title>Node6&#45;&gt;Node2</title>
<g id="a_edge9_Node000006_Node000002"><a xlink:title=" ">
<path fill="none" stroke="#63b8ff" d="M318.22,-96.23C324.17,-82.27 334.55,-63.31 350.01,-53 387.95,-27.7 524.69,-15.38 582.7,-11.2"/>
<polygon fill="#63b8ff" stroke="#63b8ff" points="314.9,-95.11 314.53,-105.7 321.42,-97.66 314.9,-95.11"/>
</a>
</g>
</g>
<!-- Node7&#45;&gt;Node2 -->
<g id="edge11_Node000007_Node000002" class="edge">
<title>Node7&#45;&gt;Node2</title>
<g id="a_edge11_Node000007_Node000002"><a xlink:title=" ">
<path fill="none" stroke="#63b8ff" d="M380.48,-100.02C363.83,-87.44 345.08,-68.36 358.01,-53 386.56,-19.08 524.36,-11.61 582.76,-9.96"/>
<polygon fill="#63b8ff" stroke="#63b8ff" points="378.64,-103 388.81,-105.95 382.69,-97.3 378.64,-103"/>
</a>
</g>
</g>
<!-- Node8&#45;&gt;Node2 -->
<g id="edge13_Node000008_Node000002" class="edge">
<title>Node8&#45;&gt;Node2</title>
<g id="a_edge13_Node000008_Node000002"><a xlink:title=" ">
<path fill="none" stroke="#63b8ff" d="M449.28,-105.07C417.28,-97.07 375.01,-84.18 365.01,-70 360.66,-63.83 360.16,-58.79 365.01,-53 392.57,-20.09 525.36,-12.06 582.63,-10.11"/>
<polygon fill="#63b8ff" stroke="#63b8ff" points="448.72,-108.54 459.26,-107.49 450.37,-101.73 448.72,-108.54"/>
</a>
</g>
</g>
<!-- Node9&#45;&gt;Node2 -->
<g id="edge15_Node000009_Node000002" class="edge">
<title>Node9&#45;&gt;Node2</title>
<g id="a_edge15_Node000009_Node000002"><a xlink:title=" ">
<path fill="none" stroke="#63b8ff" d="M522.87,-105.12C464.18,-96.2 381.6,-81.77 372.01,-70 367.24,-64.14 367.18,-58.8 372.01,-53 398.66,-21.02 527.09,-12.47 582.96,-10.25"/>
<polygon fill="#63b8ff" stroke="#63b8ff" points="522.39,-108.58 532.8,-106.61 523.43,-101.66 522.39,-108.58"/>
</a>
</g>
</g>
<!-- Node10 -->
<g id="Node000010" class="node">
<title>Node10</title>
<g id="a_Node000010"><a xlink:href="../../d3/d3e/gbest__first_8hpp.html" target="_top" xlink:title=" ">
<polygon fill="white" stroke="#666666" points="458.51,-70 381.51,-70 381.51,-53 458.51,-53 458.51,-70"/>
<text text-anchor="middle" x="420.01" y="-59.6" font-family="Helvetica,sans-Serif" font-size="8.00">gbest_first.hpp</text>
</a>
</g>
</g>
<!-- Node9&#45;&gt;Node10 -->
<g id="edge16_Node000009_Node000010" class="edge">
<title>Node9&#45;&gt;Node10</title>
<g id="a_edge16_Node000009_Node000010"><a xlink:title=" ">
<path fill="none" stroke="#63b8ff" d="M548.54,-102.96C517.38,-93.15 471.69,-78.77 444.01,-70.06"/>
<polygon fill="#63b8ff" stroke="#63b8ff" points="547.52,-106.31 558.11,-105.97 549.62,-99.63 547.52,-106.31"/>
</a>
</g>
</g>
<!-- Node11 -->
<g id="Node000011" class="node">
<title>Node11</title>
<g id="a_Node000011"><a xlink:href="../../de/d94/gbfs_8hpp.html" target="_top" xlink:title=" ">
<polygon fill="white" stroke="#666666" points="529.51,-70 476.51,-70 476.51,-53 529.51,-53 529.51,-70"/>
<text text-anchor="middle" x="503.01" y="-59.6" font-family="Helvetica,sans-Serif" font-size="8.00">gbfs.hpp</text>
</a>
</g>
</g>
<!-- Node9&#45;&gt;Node11 -->
<g id="edge18_Node000009_Node000011" class="edge">
<title>Node9&#45;&gt;Node11</title>
<g id="a_edge18_Node000009_Node000011"><a xlink:title=" ">
<path fill="none" stroke="#63b8ff" d="M561.81,-100.46C546.89,-90.83 527.11,-78.05 514.72,-70.06"/>
<polygon fill="#63b8ff" stroke="#63b8ff" points="560.06,-103.49 570.36,-105.97 563.85,-97.61 560.06,-103.49"/>
</a>
</g>
</g>
<!-- Node12 -->
<g id="Node000012" class="node">
<title>Node12</title>
<g id="a_Node000012"><a xlink:href="../../d4/df2/gdfs_8hpp.html" target="_top" xlink:title=" ">
<polygon fill="white" stroke="#666666" points="600.51,-70 547.51,-70 547.51,-53 600.51,-53 600.51,-70"/>
<text text-anchor="middle" x="574.01" y="-59.6" font-family="Helvetica,sans-Serif" font-size="8.00">gdfs.hpp</text>
</a>
</g>
</g>
<!-- Node9&#45;&gt;Node12 -->
<g id="edge20_Node000009_Node000012" class="edge">
<title>Node9&#45;&gt;Node12</title>
<g id="a_edge20_Node000009_Node000012"><a xlink:title=" ">
<path fill="none" stroke="#63b8ff" d="M579.25,-95.91C577.87,-87.08 576.26,-76.85 575.2,-70.06"/>
<polygon fill="#63b8ff" stroke="#63b8ff" points="575.82,-96.64 580.83,-105.97 582.74,-95.55 575.82,-96.64"/>
</a>
</g>
</g>
<!-- Node13 -->
<g id="Node000013" class="node">
<title>Node13</title>
<g id="a_Node000013"><a xlink:href="../../d3/d3e/gjps_8hpp.html" target="_top" xlink:title=" ">
<polygon fill="white" stroke="#666666" points="671.01,-70 619.01,-70 619.01,-53 671.01,-53 671.01,-70"/>
<text text-anchor="middle" x="645.01" y="-59.6" font-family="Helvetica,sans-Serif" font-size="8.00">gjps.hpp</text>
</a>
</g>
</g>
<!-- Node9&#45;&gt;Node13 -->
<g id="edge22_Node000009_Node000013" class="edge">
<title>Node9&#45;&gt;Node13</title>
<g id="a_edge22_Node000009_Node000013"><a xlink:title=" ">
<path fill="none" stroke="#63b8ff" d="M599.15,-99.63C610.91,-90.11 626.08,-77.83 635.68,-70.06"/>
<polygon fill="#63b8ff" stroke="#63b8ff" points="596.88,-96.96 591.31,-105.97 601.28,-102.4 596.88,-96.96"/>
</a>
</g>
</g>
<!-- Node14 -->
<g id="Node000014" class="node">
<title>Node14</title>
<g id="a_Node000014"><a xlink:href="../../d1/def/gstar_8hpp.html" target="_top" xlink:title=" ">
<polygon fill="white" stroke="#666666" points="744.51,-70 689.51,-70 689.51,-53 744.51,-53 744.51,-70"/>
<text text-anchor="middle" x="717.01" y="-59.6" font-family="Helvetica,sans-Serif" font-size="8.00">gstar.hpp</text>
</a>
</g>
</g>
<!-- Node9&#45;&gt;Node14 -->
<g id="edge24_Node000009_Node000014" class="edge">
<title>Node9&#45;&gt;Node14</title>
<g id="a_edge24_Node000009_Node000014"><a xlink:title=" ">
<path fill="none" stroke="#63b8ff" d="M611.61,-102.32C637.51,-92.53 674.44,-78.58 697.01,-70.06"/>
<polygon fill="#63b8ff" stroke="#63b8ff" points="610.05,-99.17 601.93,-105.97 612.52,-105.71 610.05,-99.17"/>
</a>
</g>
</g>
<!-- Node15 -->
<g id="Node000015" class="node">
<title>Node15</title>
<g id="a_Node000015"><a xlink:href="../../d8/ddf/mgstar_8hpp.html" target="_top" xlink:title=" ">
<polygon fill="white" stroke="#666666" points="825.01,-70 763.01,-70 763.01,-53 825.01,-53 825.01,-70"/>
<text text-anchor="middle" x="794.01" y="-59.6" font-family="Helvetica,sans-Serif" font-size="8.00">mgstar.hpp</text>
</a>
</g>
</g>
<!-- Node9&#45;&gt;Node15 -->
<g id="edge26_Node000009_Node000015" class="edge">
<title>Node9&#45;&gt;Node15</title>
<g id="a_edge26_Node000009_Node000015"><a xlink:title=" ">
<path fill="none" stroke="#63b8ff" d="M623.22,-103.59C664.15,-93.74 725.99,-78.86 762.95,-69.97"/>
<polygon fill="#63b8ff" stroke="#63b8ff" points="622.2,-100.23 613.29,-105.97 623.84,-107.04 622.2,-100.23"/>
</a>
</g>
</g>
<!-- Node10&#45;&gt;Node2 -->
<g id="edge17_Node000010_Node000002" class="edge">
<title>Node10&#45;&gt;Node2</title>
<g id="a_edge17_Node000010_Node000002"><a xlink:title=" ">
<path fill="none" stroke="#63b8ff" d="M457.83,-50.3C494.89,-40.29 550.4,-25.32 582.84,-16.56"/>
<polygon fill="#63b8ff" stroke="#63b8ff" points="456.64,-46.99 447.9,-52.97 458.47,-53.75 456.64,-46.99"/>
</a>
</g>
</g>
<!-- Node11&#45;&gt;Node2 -->
<g id="edge19_Node000011_Node000002" class="edge">
<title>Node11&#45;&gt;Node2</title>
<g id="a_edge19_Node000011_Node000002"><a xlink:title=" ">
<path fill="none" stroke="#63b8ff" d="M527.89,-48.53C548.12,-38.8 576.06,-25.36 593.31,-17.06"/>
<polygon fill="#63b8ff" stroke="#63b8ff" points="526.15,-45.49 518.65,-52.97 529.18,-51.79 526.15,-45.49"/>
</a>
</g>
</g>
<!-- Node12&#45;&gt;Node2 -->
<g id="edge21_Node000012_Node000002" class="edge">
<title>Node12&#45;&gt;Node2</title>
<g id="a_edge21_Node000012_Node000002"><a xlink:title=" ">
<path fill="none" stroke="#63b8ff" d="M584.89,-44.65C591.2,-35.46 598.86,-24.3 603.83,-17.06"/>
<polygon fill="#63b8ff" stroke="#63b8ff" points="581.95,-42.75 579.18,-52.97 587.72,-46.71 581.95,-42.75"/>
</a>
</g>
</g>
<!-- Node13&#45;&gt;Node2 -->
<g id="edge23_Node000013_Node000002" class="edge">
<title>Node13&#45;&gt;Node2</title>
<g id="a_edge23_Node000013_Node000002"><a xlink:title=" ">
<path fill="none" stroke="#63b8ff" d="M633.83,-44.65C627.34,-35.46 619.46,-24.3 614.35,-17.06"/>
<polygon fill="#63b8ff" stroke="#63b8ff" points="631.07,-46.82 639.7,-52.97 636.79,-42.79 631.07,-46.82"/>
</a>
</g>
</g>
<!-- Node14&#45;&gt;Node2 -->
<g id="edge25_Node000014_Node000002" class="edge">
<title>Node14&#45;&gt;Node2</title>
<g id="a_edge25_Node000014_Node000002"><a xlink:title=" ">
<path fill="none" stroke="#63b8ff" d="M691.95,-48.66C671.31,-38.92 642.67,-25.39 625.01,-17.06"/>
<polygon fill="#63b8ff" stroke="#63b8ff" points="690.54,-51.87 701.08,-52.97 693.53,-45.54 690.54,-51.87"/>
</a>
</g>
</g>
<!-- Node15&#45;&gt;Node2 -->
<g id="edge27_Node000015_Node000002" class="edge">
<title>Node15&#45;&gt;Node2</title>
<g id="a_edge27_Node000015_Node000002"><a xlink:title=" ">
<path fill="none" stroke="#63b8ff" d="M757.05,-50.31C721,-40.37 667.07,-25.5 635.22,-16.73"/>
<polygon fill="#63b8ff" stroke="#63b8ff" points="756.14,-53.69 766.72,-52.97 758.01,-46.94 756.14,-53.69"/>
</a>
</g>
</g>
<!-- Node16&#45;&gt;Node2 -->
<g id="edge29_Node000016_Node000002" class="edge">
<title>Node16&#45;&gt;Node2</title>
<g id="a_edge29_Node000016_Node000002"><a xlink:title=" ">
<path fill="none" stroke="#63b8ff" d="M801.39,-101.24C823.28,-89.41 848.64,-70.72 834.01,-53 809.07,-22.77 689.28,-13.31 635.38,-10.55"/>
<polygon fill="#63b8ff" stroke="#63b8ff" points="799.66,-98.2 792.35,-105.87 802.85,-104.43 799.66,-98.2"/>
</a>
</g>
</g>
<!-- Node17&#45;&gt;Node2 -->
<g id="edge37_Node000017_Node000002" class="edge">
<title>Node17&#45;&gt;Node2</title>
<g id="a_edge37_Node000017_Node000002"><a xlink:title=" ">
<path fill="none" stroke="#63b8ff" d="M1030.46,-103.3C998.43,-94.56 951.16,-81.59 910.01,-70 883.75,-62.6 877.59,-59.2 851.01,-53 773.27,-34.86 679.98,-20.01 635.34,-13.32"/>
<polygon fill="#63b8ff" stroke="#63b8ff" points="1029.73,-106.72 1040.3,-105.98 1031.57,-99.97 1029.73,-106.72"/>
</a>
</g>
</g>
<!-- Node18 -->
<g id="Node000018" class="node">
<title>Node18</title>
<g id="a_Node000018"><a xlink:href="../../dc/da9/astar_8hpp.html" target="_top" xlink:title=" ">
<polygon fill="white" stroke="#666666" points="974.51,-70 919.51,-70 919.51,-53 974.51,-53 974.51,-70"/>
<text text-anchor="middle" x="947.01" y="-59.6" font-family="Helvetica,sans-Serif" font-size="8.00">astar.hpp</text>
</a>
</g>
</g>
<!-- Node17&#45;&gt;Node18 -->
<g id="edge31_Node000017_Node000018" class="edge">
<title>Node17&#45;&gt;Node18</title>
<g id="a_edge31_Node000017_Node000018"><a xlink:title=" ">
<path fill="none" stroke="#63b8ff" d="M1040.87,-102.06C1017.68,-92.29 984.99,-78.51 964.94,-70.06"/>
<polygon fill="#63b8ff" stroke="#63b8ff" points="1039.58,-105.32 1050.16,-105.97 1042.3,-98.87 1039.58,-105.32"/>
</a>
</g>
</g>
<!-- Node19 -->
<g id="Node000019" class="node">
<title>Node19</title>
<g id="a_Node000019"><a xlink:href="../../d3/d77/best__first_8hpp.html" target="_top" xlink:title=" ">
<polygon fill="white" stroke="#666666" points="1065.01,-70 993.01,-70 993.01,-53 1065.01,-53 1065.01,-70"/>
<text text-anchor="middle" x="1029.01" y="-59.6" font-family="Helvetica,sans-Serif" font-size="8.00">best_first.hpp</text>
</a>
</g>
</g>
<!-- Node17&#45;&gt;Node19 -->
<g id="edge33_Node000017_Node000019" class="edge">
<title>Node17&#45;&gt;Node19</title>
<g id="a_edge33_Node000017_Node000019"><a xlink:title=" ">
<path fill="none" stroke="#63b8ff" d="M1056.11,-97.94C1049.04,-88.69 1040.39,-77.37 1034.79,-70.06"/>
<polygon fill="#63b8ff" stroke="#63b8ff" points="1053.4,-100.16 1062.26,-105.97 1058.96,-95.91 1053.4,-100.16"/>
</a>
</g>
</g>
<!-- Node20 -->
<g id="Node000020" class="node">
<title>Node20</title>
<g id="a_Node000020"><a xlink:href="../../da/d36/bfs_8hpp.html" target="_top" xlink:title=" ">
<polygon fill="white" stroke="#666666" points="1130.51,-70 1083.51,-70 1083.51,-53 1130.51,-53 1130.51,-70"/>
<text text-anchor="middle" x="1107.01" y="-59.6" font-family="Helvetica,sans-Serif" font-size="8.00">bfs.hpp</text>
</a>
</g>
</g>
<!-- Node17&#45;&gt;Node20 -->
<g id="edge35_Node000017_Node000020" class="edge">
<title>Node17&#45;&gt;Node20</title>
<g id="a_edge35_Node000017_Node000020"><a xlink:title=" ">
<path fill="none" stroke="#63b8ff" d="M1079.91,-97.94C1086.98,-88.69 1095.64,-77.37 1101.23,-70.06"/>
<polygon fill="#63b8ff" stroke="#63b8ff" points="1077.06,-95.91 1073.77,-105.97 1082.62,-100.16 1077.06,-95.91"/>
</a>
</g>
</g>
<!-- Node21 -->
<g id="Node000021" class="node">
<title>Node21</title>
<g id="a_Node000021"><a xlink:href="../../d3/dec/dfs_8hpp.html" target="_top" xlink:title=" ">
<polygon fill="white" stroke="#666666" points="1195.51,-70 1148.51,-70 1148.51,-53 1195.51,-53 1195.51,-70"/>
<text text-anchor="middle" x="1172.01" y="-59.6" font-family="Helvetica,sans-Serif" font-size="8.00">dfs.hpp</text>
</a>
</g>
</g>
<!-- Node17&#45;&gt;Node21 -->
<g id="edge38_Node000017_Node000021" class="edge">
<title>Node17&#45;&gt;Node21</title>
<g id="a_edge38_Node000017_Node000021"><a xlink:title=" ">
<path fill="none" stroke="#63b8ff" d="M1092.42,-101.53C1112.27,-91.8 1139.68,-78.36 1156.6,-70.06"/>
<polygon fill="#63b8ff" stroke="#63b8ff" points="1090.8,-98.43 1083.36,-105.97 1093.88,-104.71 1090.8,-98.43"/>
</a>
</g>
</g>
<!-- Node22 -->
<g id="Node000022" class="node">
<title>Node22</title>
<g id="a_Node000022"><a xlink:href="../../d8/dd5/fringe_8hpp.html" target="_top" xlink:title=" ">
<polygon fill="white" stroke="#666666" points="1272.51,-70 1213.51,-70 1213.51,-53 1272.51,-53 1272.51,-70"/>
<text text-anchor="middle" x="1243.01" y="-59.6" font-family="Helvetica,sans-Serif" font-size="8.00">fringe.hpp</text>
</a>
</g>
</g>
<!-- Node17&#45;&gt;Node22 -->
<g id="edge40_Node000017_Node000022" class="edge">
<title>Node17&#45;&gt;Node22</title>
<g id="a_edge40_Node000017_Node000022"><a xlink:title=" ">
<path fill="none" stroke="#63b8ff" d="M1103.73,-103.09C1137.4,-93.28 1187.05,-78.81 1217.08,-70.06"/>
<polygon fill="#63b8ff" stroke="#63b8ff" points="1102.46,-99.82 1093.83,-105.97 1104.41,-106.54 1102.46,-99.82"/>
</a>
</g>
</g>
<!-- Node23 -->
<g id="Node000023" class="node">
<title>Node23</title>
<g id="a_Node000023"><a xlink:href="../../d9/de6/jps_8hpp.html" target="_top" xlink:title=" ">
<polygon fill="white" stroke="#666666" points="1337.51,-70 1290.51,-70 1290.51,-53 1337.51,-53 1337.51,-70"/>
<text text-anchor="middle" x="1314.01" y="-59.6" font-family="Helvetica,sans-Serif" font-size="8.00">jps.hpp</text>
</a>
</g>
</g>
<!-- Node17&#45;&gt;Node23 -->
<g id="edge42_Node000017_Node000023" class="edge">
<title>Node17&#45;&gt;Node23</title>
<g id="a_edge42_Node000017_Node000023"><a xlink:title=" ">
<path fill="none" stroke="#63b8ff" d="M1116.11,-103.99C1159.32,-95.37 1224.49,-82.19 1281.01,-70 1284,-69.36 1287.13,-68.66 1290.23,-67.97"/>
<polygon fill="#63b8ff" stroke="#63b8ff" points="1115.28,-100.59 1106.16,-105.97 1116.65,-107.45 1115.28,-100.59"/>
</a>
</g>
</g>
<!-- Node18&#45;&gt;Node2 -->
<g id="edge32_Node000018_Node000002" class="edge">
<title>Node18&#45;&gt;Node2</title>
<g id="a_edge32_Node000018_Node000002"><a xlink:title=" ">
<path fill="none" stroke="#63b8ff" d="M909.47,-53.74C907.96,-53.48 906.47,-53.24 905.01,-53 805.56,-36.82 686.85,-20.18 635.19,-13.07"/>
<polygon fill="#63b8ff" stroke="#63b8ff" points="909.02,-57.21 919.47,-55.46 910.21,-50.31 909.02,-57.21"/>
</a>
</g>
</g>
<!-- Node19&#45;&gt;Node2 -->
<g id="edge34_Node000019_Node000002" class="edge">
<title>Node19&#45;&gt;Node2</title>
<g id="a_edge34_Node000019_Node000002"><a xlink:title=" ">
<path fill="none" stroke="#63b8ff" d="M982.6,-53.02C845.31,-34.04 695.04,-18.23 635.36,-12.15"/>
<polygon fill="#63b8ff" stroke="#63b8ff" points="982.49,-56.54 992.88,-54.45 983.45,-49.6 982.49,-56.54"/>
</a>
</g>
</g>
<!-- Node20&#45;&gt;Node2 -->
<g id="edge36_Node000020_Node000002" class="edge">
<title>Node20&#45;&gt;Node2</title>
<g id="a_edge36_Node000020_Node000002"><a xlink:title=" ">
<path fill="none" stroke="#63b8ff" d="M1073.25,-53.13C900.43,-26.04 704.7,-14.33 635.13,-10.75"/>
<polygon fill="#63b8ff" stroke="#63b8ff" points="1072.87,-56.61 1083.29,-54.72 1073.96,-49.69 1072.87,-56.61"/>
</a>
</g>
</g>
<!-- Node21&#45;&gt;Node2 -->
<g id="edge39_Node000021_Node000002" class="edge">
<title>Node21&#45;&gt;Node2</title>
<g id="a_edge39_Node000021_Node000002"><a xlink:title=" ">
<path fill="none" stroke="#63b8ff" d="M1138.24,-53.15C939.19,-23.1 711.11,-13.04 635.09,-10.33"/>
<polygon fill="#63b8ff" stroke="#63b8ff" points="1137.88,-56.63 1148.3,-54.69 1138.94,-49.72 1137.88,-56.63"/>
</a>
</g>
</g>
<!-- Node22&#45;&gt;Node2 -->
<g id="edge41_Node000022_Node000002" class="edge">
<title>Node22&#45;&gt;Node2</title>
<g id="a_edge41_Node000022_Node000002"><a xlink:title=" ">
<path fill="none" stroke="#63b8ff" d="M1203.22,-53.09C977.53,-23.76 717.41,-13.13 635.22,-10.32"/>
<polygon fill="#63b8ff" stroke="#63b8ff" points="1202.89,-56.57 1213.26,-54.41 1203.8,-49.63 1202.89,-56.57"/>
</a>
</g>
</g>
<!-- Node23&#45;&gt;Node2 -->
<g id="edge43_Node000023_Node000002" class="edge">
<title>Node23&#45;&gt;Node2</title>
<g id="a_edge43_Node000023_Node000002"><a xlink:title=" ">
<path fill="none" stroke="#63b8ff" d="M1280.04,-53.16C1023.35,-16.63 724.03,-10.7 635.11,-9.7"/>
<polygon fill="#63b8ff" stroke="#63b8ff" points="1279.91,-56.67 1290.3,-54.64 1280.91,-49.75 1279.91,-56.67"/>
</a>
</g>
</g>
</g>
</svg>
