<?xml version="1.0" encoding="UTF-8" standalone="no"?>
<!DOCTYPE svg PUBLIC "-//W3C//DTD SVG 1.1//EN"
 "http://www.w3.org/Graphics/SVG/1.1/DTD/svg11.dtd">
<!-- Generated by graphviz version 2.43.0 (0)
 -->
<!-- Title: bnode.hpp Pages: 1 -->
<svg width="941pt" height="184pt"
 viewBox="0.00 0.00 941.05 184.00" xmlns="http://www.w3.org/2000/svg" xmlns:xlink="http://www.w3.org/1999/xlink">
<g id="graph0" class="graph" transform="scale(1 1) rotate(0) translate(4 180)">
<title>bnode.hpp</title>
<!-- Node1 -->
<g id="Node000001" class="node">
<title>Node1</title>
<g id="a_Node000001"><a xlink:title=" ">
<polygon fill="#999999" stroke="#666666" points="296.05,-176 241.05,-176 241.05,-159 296.05,-159 296.05,-176"/>
<text text-anchor="middle" x="268.55" y="-165.6" font-family="Helvetica,sans-Serif" font-size="8.00">bnode.hpp</text>
</a>
</g>
</g>
<!-- Node2 -->
<g id="Node000002" class="node">
<title>Node2</title>
<g id="a_Node000002"><a xlink:href="../../d9/d96/chdr_8hpp.html" target="_top" xlink:title=" ">
<polygon fill="white" stroke="#666666" points="423.05,-17 376.05,-17 376.05,0 423.05,0 423.05,-17"/>
<text text-anchor="middle" x="399.55" y="-6.6" font-family="Helvetica,sans-Serif" font-size="8.00">chdr.hpp</text>
</a>
</g>
</g>
<!-- Node1&#45;&gt;Node2 -->
<g id="edge1_Node000001_Node000002" class="edge">
<title>Node1&#45;&gt;Node2</title>
<g id="a_edge1_Node000001_Node000002"><a xlink:title=" ">
<path fill="none" stroke="#63b8ff" d="M230.84,-166.06C164.75,-164.39 32.27,-156.82 3.55,-123 -1.34,-117.24 -0.88,-112.12 3.55,-106 48.2,-44.3 297.73,-18.13 376.04,-11.37"/>
<polygon fill="#63b8ff" stroke="#63b8ff" points="230.78,-169.56 240.85,-166.28 230.93,-162.56 230.78,-169.56"/>
</a>
</g>
</g>
<!-- Node3 -->
<g id="Node000003" class="node">
<title>Node3</title>
<g id="a_Node000003"><a xlink:href="../../d6/ded/eidastar_8hpp_source.html" target="_top" xlink:title=" ">
<polygon fill="white" stroke="#666666" points="72.55,-123 12.55,-123 12.55,-106 72.55,-106 72.55,-123"/>
<text text-anchor="middle" x="42.55" y="-112.6" font-family="Helvetica,sans-Serif" font-size="8.00">eidastar.hpp</text>
</a>
</g>
</g>
<!-- Node1&#45;&gt;Node3 -->
<g id="edge2_Node000001_Node000003" class="edge">
<title>Node1&#45;&gt;Node3</title>
<g id="a_edge2_Node000001_Node000003"><a xlink:title=" ">
<path fill="none" stroke="#63b8ff" d="M231.01,-158.03C186.59,-148.01 113.53,-131.52 72.65,-122.29"/>
<polygon fill="#63b8ff" stroke="#63b8ff" points="230.32,-161.46 240.84,-160.25 231.86,-154.63 230.32,-161.46"/>
</a>
</g>
</g>
<!-- Node4 -->
<g id="Node000004" class="node">
<title>Node4</title>
<g id="a_Node000004"><a xlink:href="../../dd/d67/eidbstar_8hpp_source.html" target="_top" xlink:title=" ">
<polygon fill="white" stroke="#666666" points="150.55,-123 90.55,-123 90.55,-106 150.55,-106 150.55,-123"/>
<text text-anchor="middle" x="120.55" y="-112.6" font-family="Helvetica,sans-Serif" font-size="8.00">eidbstar.hpp</text>
</a>
</g>
</g>
<!-- Node1&#45;&gt;Node4 -->
<g id="edge4_Node000001_Node000004" class="edge">
<title>Node1&#45;&gt;Node4</title>
<g id="a_edge4_Node000001_Node000004"><a xlink:title=" ">
<path fill="none" stroke="#63b8ff" d="M237.23,-155.71C208.78,-145.9 167.55,-131.69 142.48,-123.06"/>
<polygon fill="#63b8ff" stroke="#63b8ff" points="236.12,-159.03 246.71,-158.97 238.4,-152.41 236.12,-159.03"/>
</a>
</g>
</g>
<!-- Node5 -->
<g id="Node000005" class="node">
<title>Node5</title>
<g id="a_Node000005"><a xlink:href="../../dd/d95/eiddfs_8hpp_source.html" target="_top" xlink:title=" ">
<polygon fill="white" stroke="#666666" points="222.05,-123 169.05,-123 169.05,-106 222.05,-106 222.05,-123"/>
<text text-anchor="middle" x="195.55" y="-112.6" font-family="Helvetica,sans-Serif" font-size="8.00">eiddfs.hpp</text>
</a>
</g>
</g>
<!-- Node1&#45;&gt;Node5 -->
<g id="edge6_Node000001_Node000005" class="edge">
<title>Node1&#45;&gt;Node5</title>
<g id="a_edge6_Node000001_Node000005"><a xlink:title=" ">
<path fill="none" stroke="#63b8ff" d="M249.49,-153.18C235.75,-143.58 217.71,-130.98 206.37,-123.06"/>
<polygon fill="#63b8ff" stroke="#63b8ff" points="247.58,-156.12 257.78,-158.97 251.59,-150.38 247.58,-156.12"/>
</a>
</g>
</g>
<!-- Node6 -->
<g id="Node000006" class="node">
<title>Node6</title>
<g id="a_Node000006"><a xlink:href="../../db/df9/idastar_8hpp_source.html" target="_top" xlink:title=" ">
<polygon fill="white" stroke="#666666" points="296.55,-123 240.55,-123 240.55,-106 296.55,-106 296.55,-123"/>
<text text-anchor="middle" x="268.55" y="-112.6" font-family="Helvetica,sans-Serif" font-size="8.00">idastar.hpp</text>
</a>
</g>
</g>
<!-- Node1&#45;&gt;Node6 -->
<g id="edge8_Node000001_Node000006" class="edge">
<title>Node1&#45;&gt;Node6</title>
<g id="a_edge8_Node000001_Node000006"><a xlink:title=" ">
<path fill="none" stroke="#63b8ff" d="M268.55,-148.91C268.55,-140.08 268.55,-129.85 268.55,-123.06"/>
<polygon fill="#63b8ff" stroke="#63b8ff" points="265.05,-148.97 268.55,-158.97 272.05,-148.97 265.05,-148.97"/>
</a>
</g>
</g>
<!-- Node7 -->
<g id="Node000007" class="node">
<title>Node7</title>
<g id="a_Node000007"><a xlink:href="../../d1/d24/idbstar_8hpp_source.html" target="_top" xlink:title=" ">
<polygon fill="white" stroke="#666666" points="370.55,-123 314.55,-123 314.55,-106 370.55,-106 370.55,-123"/>
<text text-anchor="middle" x="342.55" y="-112.6" font-family="Helvetica,sans-Serif" font-size="8.00">idbstar.hpp</text>
</a>
</g>
</g>
<!-- Node1&#45;&gt;Node7 -->
<g id="edge10_Node000001_Node000007" class="edge">
<title>Node1&#45;&gt;Node7</title>
<g id="a_edge10_Node000001_Node000007"><a xlink:title=" ">
<path fill="none" stroke="#63b8ff" d="M287.88,-153.18C301.8,-143.58 320.09,-130.98 331.59,-123.06"/>
<polygon fill="#63b8ff" stroke="#63b8ff" points="285.72,-150.42 279.47,-158.97 289.69,-156.18 285.72,-150.42"/>
</a>
</g>
</g>
<!-- Node8 -->
<g id="Node000008" class="node">
<title>Node8</title>
<g id="a_Node000008"><a xlink:href="../../df/d71/iddfs_8hpp_source.html" target="_top" xlink:title=" ">
<polygon fill="white" stroke="#666666" points="438.05,-123 389.05,-123 389.05,-106 438.05,-106 438.05,-123"/>
<text text-anchor="middle" x="413.55" y="-112.6" font-family="Helvetica,sans-Serif" font-size="8.00">iddfs.hpp</text>
</a>
</g>
</g>
<!-- Node1&#45;&gt;Node8 -->
<g id="edge12_Node000001_Node000008" class="edge">
<title>Node1&#45;&gt;Node8</title>
<g id="a_edge12_Node000001_Node000008"><a xlink:title=" ">
<path fill="none" stroke="#63b8ff" d="M299.6,-155.58C327.46,-145.78 367.62,-131.66 392.07,-123.06"/>
<polygon fill="#63b8ff" stroke="#63b8ff" points="298.22,-152.35 289.95,-158.97 300.54,-158.96 298.22,-152.35"/>
</a>
</g>
</g>
<!-- Node9 -->
<g id="Node000009" class="node">
<title>Node9</title>
<g id="a_Node000009"><a xlink:href="../../da/deb/managed__node_8hpp.html" target="_top" xlink:title=" ">
<polygon fill="white" stroke="#666666" points="545.05,-123 456.05,-123 456.05,-106 545.05,-106 545.05,-123"/>
<text text-anchor="middle" x="500.55" y="-112.6" font-family="Helvetica,sans-Serif" font-size="8.00">managed_node.hpp</text>
</a>
</g>
</g>
<!-- Node1&#45;&gt;Node9 -->
<g id="edge14_Node000001_Node000009" class="edge">
<title>Node1&#45;&gt;Node9</title>
<g id="a_edge14_Node000001_Node000009"><a xlink:title=" ">
<path fill="none" stroke="#63b8ff" d="M305.87,-158.3C350.16,-148.56 423.39,-132.46 466.29,-123.03"/>
<polygon fill="#63b8ff" stroke="#63b8ff" points="305.09,-154.88 296.08,-160.45 306.6,-161.72 305.09,-154.88"/>
</a>
</g>
</g>
<!-- Node14 -->
<g id="Node000014" class="node">
<title>Node14</title>
<g id="a_Node000014"><a xlink:href="../../d0/def/unmanaged__node_8hpp.html" target="_top" xlink:title=" ">
<polygon fill="white" stroke="#666666" points="762.55,-123 664.55,-123 664.55,-106 762.55,-106 762.55,-123"/>
<text text-anchor="middle" x="713.55" y="-112.6" font-family="Helvetica,sans-Serif" font-size="8.00">unmanaged_node.hpp</text>
</a>
</g>
</g>
<!-- Node1&#45;&gt;Node14 -->
<g id="edge24_Node000001_Node000014" class="edge">
<title>Node1&#45;&gt;Node14</title>
<g id="a_edge24_Node000001_Node000014"><a xlink:title=" ">
<path fill="none" stroke="#63b8ff" d="M306.21,-162.18C386.59,-152.97 574.93,-131.39 664.52,-121.12"/>
<polygon fill="#63b8ff" stroke="#63b8ff" points="305.59,-158.73 296.05,-163.35 306.39,-165.69 305.59,-158.73"/>
</a>
</g>
</g>
<!-- Node3&#45;&gt;Node2 -->
<g id="edge3_Node000003_Node000002" class="edge">
<title>Node3&#45;&gt;Node2</title>
<g id="a_edge3_Node000003_Node000002"><a xlink:title=" ">
<path fill="none" stroke="#63b8ff" d="M72.93,-102.43C108.52,-89.65 169.39,-68.44 222.55,-53 276.95,-37.2 341.81,-22.23 375.91,-14.65"/>
<polygon fill="#63b8ff" stroke="#63b8ff" points="71.38,-99.26 63.16,-105.95 73.76,-105.85 71.38,-99.26"/>
</a>
</g>
</g>
<!-- Node4&#45;&gt;Node2 -->
<g id="edge5_Node000004_Node000002" class="edge">
<title>Node4&#45;&gt;Node2</title>
<g id="a_edge5_Node000004_Node000002"><a xlink:title=" ">
<path fill="none" stroke="#63b8ff" d="M146.9,-101.86C175.96,-89.2 224.2,-68.67 266.55,-53 304.37,-39 349.07,-24.87 375.82,-16.66"/>
<polygon fill="#63b8ff" stroke="#63b8ff" points="145.23,-98.78 137.47,-105.99 148.03,-105.19 145.23,-98.78"/>
</a>
</g>
</g>
<!-- Node5&#45;&gt;Node2 -->
<g id="edge7_Node000005_Node000002" class="edge">
<title>Node5&#45;&gt;Node2</title>
<g id="a_edge7_Node000005_Node000002"><a xlink:title=" ">
<path fill="none" stroke="#63b8ff" d="M215.82,-100.58C236.3,-87.77 269.03,-67.95 298.55,-53 326.14,-39.02 359.26,-25.32 379.86,-17.13"/>
<polygon fill="#63b8ff" stroke="#63b8ff" points="213.93,-97.63 207.33,-105.93 217.66,-103.56 213.93,-97.63"/>
</a>
</g>
</g>
<!-- Node6&#45;&gt;Node2 -->
<g id="edge9_Node000006_Node000002" class="edge">
<title>Node6&#45;&gt;Node2</title>
<g id="a_edge9_Node000006_Node000002"><a xlink:title=" ">
<path fill="none" stroke="#63b8ff" d="M279.7,-97.16C289.2,-84.08 303.79,-65.86 319.55,-53 338.66,-37.41 364.19,-24.67 381.22,-17.09"/>
<polygon fill="#63b8ff" stroke="#63b8ff" points="276.63,-95.44 273.74,-105.63 282.36,-99.47 276.63,-95.44"/>
</a>
</g>
</g>
<!-- Node7&#45;&gt;Node2 -->
<g id="edge11_Node000007_Node000002" class="edge">
<title>Node7&#45;&gt;Node2</title>
<g id="a_edge11_Node000007_Node000002"><a xlink:title=" ">
<path fill="none" stroke="#63b8ff" d="M331.77,-97.02C324.95,-84.33 318.76,-66.71 326.55,-53 337.05,-34.53 358.83,-23.07 375.89,-16.59"/>
<polygon fill="#63b8ff" stroke="#63b8ff" points="328.99,-99.17 337.12,-105.96 334.99,-95.58 328.99,-99.17"/>
</a>
</g>
</g>
<!-- Node8&#45;&gt;Node2 -->
<g id="edge13_Node000008_Node000002" class="edge">
<title>Node8&#45;&gt;Node2</title>
<g id="a_edge13_Node000008_Node000002"><a xlink:title=" ">
<path fill="none" stroke="#63b8ff" d="M379.21,-103.99C362.31,-97.39 343.48,-86.7 333.55,-70 319.81,-46.89 354.78,-27.38 378.9,-17.17"/>
<polygon fill="#63b8ff" stroke="#63b8ff" points="378.26,-107.37 388.85,-107.42 380.6,-100.77 378.26,-107.37"/>
</a>
</g>
</g>
<!-- Node9&#45;&gt;Node2 -->
<g id="edge17_Node000009_Node000002" class="edge">
<title>Node9&#45;&gt;Node2</title>
<g id="a_edge17_Node000009_Node000002"><a xlink:title=" ">
<path fill="none" stroke="#63b8ff" d="M451.21,-103.81C417.38,-96.04 376.83,-84.14 366.55,-70 353.75,-52.39 375.83,-29.24 389.67,-17.33"/>
<polygon fill="#63b8ff" stroke="#63b8ff" points="450.48,-107.23 461,-105.98 451.99,-100.4 450.48,-107.23"/>
</a>
</g>
</g>
<!-- Node10 -->
<g id="Node000010" class="node">
<title>Node10</title>
<g id="a_Node000010"><a xlink:href="../../dc/da9/astar_8hpp.html" target="_top" xlink:title=" ">
<polygon fill="white" stroke="#666666" points="624.55,-70 574.55,-70 574.55,-53 624.55,-53 624.55,-70"/>
<text text-anchor="middle" x="599.55" y="-59.6" font-family="Helvetica,sans-Serif" font-size="8.00">astar.hpp</text>
</a>
</g>
</g>
<!-- Node9&#45;&gt;Node10 -->
<g id="edge15_Node000009_Node000010" class="edge">
<title>Node9&#45;&gt;Node10</title>
<g id="a_edge15_Node000009_Node000010"><a xlink:title=" ">
<path fill="none" stroke="#63b8ff" d="M524.3,-101.27C543.16,-91.55 568.92,-78.28 584.88,-70.06"/>
<polygon fill="#63b8ff" stroke="#63b8ff" points="522.45,-98.28 515.16,-105.97 525.65,-104.51 522.45,-98.28"/>
</a>
</g>
</g>
<!-- Node11 -->
<g id="Node000011" class="node">
<title>Node11</title>
<g id="a_Node000011"><a xlink:href="../../de/d94/gbfs_8hpp.html" target="_top" xlink:title=" ">
<polygon fill="white" stroke="#666666" points="423.05,-70 376.05,-70 376.05,-53 423.05,-53 423.05,-70"/>
<text text-anchor="middle" x="399.55" y="-59.6" font-family="Helvetica,sans-Serif" font-size="8.00">gbfs.hpp</text>
</a>
</g>
</g>
<!-- Node9&#45;&gt;Node11 -->
<g id="edge18_Node000009_Node000011" class="edge">
<title>Node9&#45;&gt;Node11</title>
<g id="a_edge18_Node000009_Node000011"><a xlink:title=" ">
<path fill="none" stroke="#63b8ff" d="M476.59,-101.4C457.33,-91.67 430.88,-78.32 414.52,-70.06"/>
<polygon fill="#63b8ff" stroke="#63b8ff" points="475.15,-104.59 485.65,-105.97 478.3,-98.34 475.15,-104.59"/>
</a>
</g>
</g>
<!-- Node12 -->
<g id="Node000012" class="node">
<title>Node12</title>
<g id="a_Node000012"><a xlink:href="../../d4/df2/gdfs_8hpp.html" target="_top" xlink:title=" ">
<polygon fill="white" stroke="#666666" points="488.05,-70 441.05,-70 441.05,-53 488.05,-53 488.05,-70"/>
<text text-anchor="middle" x="464.55" y="-59.6" font-family="Helvetica,sans-Serif" font-size="8.00">gdfs.hpp</text>
</a>
</g>
</g>
<!-- Node9&#45;&gt;Node12 -->
<g id="edge20_Node000009_Node000012" class="edge">
<title>Node9&#45;&gt;Node12</title>
<g id="a_edge20_Node000009_Node000012"><a xlink:title=" ">
<path fill="none" stroke="#63b8ff" d="M489.37,-97.65C482.88,-88.46 475,-77.3 469.89,-70.06"/>
<polygon fill="#63b8ff" stroke="#63b8ff" points="486.61,-99.82 495.24,-105.97 492.33,-95.79 486.61,-99.82"/>
</a>
</g>
</g>
<!-- Node13 -->
<g id="Node000013" class="node">
<title>Node13</title>
<g id="a_Node000013"><a xlink:href="../../d1/def/gstar_8hpp.html" target="_top" xlink:title=" ">
<polygon fill="white" stroke="#666666" points="556.55,-70 506.55,-70 506.55,-53 556.55,-53 556.55,-70"/>
<text text-anchor="middle" x="531.55" y="-59.6" font-family="Helvetica,sans-Serif" font-size="8.00">gstar.hpp</text>
</a>
</g>
</g>
<!-- Node9&#45;&gt;Node13 -->
<g id="edge22_Node000009_Node000013" class="edge">
<title>Node9&#45;&gt;Node13</title>
<g id="a_edge22_Node000009_Node000013"><a xlink:title=" ">
<path fill="none" stroke="#63b8ff" d="M510.36,-97.36C515.92,-88.23 522.6,-77.22 526.96,-70.06"/>
<polygon fill="#63b8ff" stroke="#63b8ff" points="507.33,-95.61 505.13,-105.97 513.31,-99.25 507.33,-95.61"/>
</a>
</g>
</g>
<!-- Node10&#45;&gt;Node2 -->
<g id="edge16_Node000010_Node000002" class="edge">
<title>Node10&#45;&gt;Node2</title>
<g id="a_edge16_Node000010_Node000002"><a xlink:title=" ">
<path fill="none" stroke="#63b8ff" d="M564.47,-51.55C523.85,-41.2 458.07,-24.42 423.12,-15.51"/>
<polygon fill="#63b8ff" stroke="#63b8ff" points="563.67,-54.96 574.22,-54.04 565.4,-48.18 563.67,-54.96"/>
</a>
</g>
</g>
<!-- Node11&#45;&gt;Node2 -->
<g id="edge19_Node000011_Node000002" class="edge">
<title>Node11&#45;&gt;Node2</title>
<g id="a_edge19_Node000011_Node000002"><a xlink:title=" ">
<path fill="none" stroke="#63b8ff" d="M399.55,-42.91C399.55,-34.08 399.55,-23.85 399.55,-17.06"/>
<polygon fill="#63b8ff" stroke="#63b8ff" points="396.05,-42.97 399.55,-52.97 403.05,-42.97 396.05,-42.97"/>
</a>
</g>
</g>
<!-- Node12&#45;&gt;Node2 -->
<g id="edge21_Node000012_Node000002" class="edge">
<title>Node12&#45;&gt;Node2</title>
<g id="a_edge21_Node000012_Node000002"><a xlink:title=" ">
<path fill="none" stroke="#63b8ff" d="M446.88,-46.63C434.74,-37.11 419.09,-24.83 409.18,-17.06"/>
<polygon fill="#63b8ff" stroke="#63b8ff" points="444.93,-49.56 454.96,-52.97 449.25,-44.05 444.93,-49.56"/>
</a>
</g>
</g>
<!-- Node13&#45;&gt;Node2 -->
<g id="edge23_Node000013_Node000002" class="edge">
<title>Node13&#45;&gt;Node2</title>
<g id="a_edge23_Node000013_Node000002"><a xlink:title=" ">
<path fill="none" stroke="#63b8ff" d="M502.62,-49.32C477.28,-39.53 441.18,-25.58 419.11,-17.06"/>
<polygon fill="#63b8ff" stroke="#63b8ff" points="501.49,-52.64 512.08,-52.97 504.01,-46.11 501.49,-52.64"/>
</a>
</g>
</g>
<!-- Node14&#45;&gt;Node2 -->
<g id="edge30_Node000014_Node000002" class="edge">
<title>Node14&#45;&gt;Node2</title>
<g id="a_edge30_Node000014_Node000002"><a xlink:title=" ">
<path fill="none" stroke="#63b8ff" d="M698.6,-98.74C683.49,-84.71 658.82,-64.15 633.55,-53 561.35,-21.13 466.63,-12.6 423.18,-10.33"/>
<polygon fill="#63b8ff" stroke="#63b8ff" points="696.31,-101.39 705.96,-105.76 701.14,-96.32 696.31,-101.39"/>
</a>
</g>
</g>
<!-- Node14&#45;&gt;Node10 -->
<g id="edge25_Node000014_Node000010" class="edge">
<title>Node14&#45;&gt;Node10</title>
<g id="a_edge25_Node000014_Node000010"><a xlink:title=" ">
<path fill="none" stroke="#63b8ff" d="M687.39,-101.8C665.58,-92.04 635.16,-78.43 616.44,-70.06"/>
<polygon fill="#63b8ff" stroke="#63b8ff" points="686.17,-105.09 696.73,-105.97 689.03,-98.7 686.17,-105.09"/>
</a>
</g>
</g>
<!-- Node15 -->
<g id="Node000015" class="node">
<title>Node15</title>
<g id="a_Node000015"><a xlink:href="../../d3/d77/best__first_8hpp.html" target="_top" xlink:title=" ">
<polygon fill="white" stroke="#666666" points="746.05,-70 681.05,-70 681.05,-53 746.05,-53 746.05,-70"/>
<text text-anchor="middle" x="713.55" y="-59.6" font-family="Helvetica,sans-Serif" font-size="8.00">best_first.hpp</text>
</a>
</g>
</g>
<!-- Node14&#45;&gt;Node15 -->
<g id="edge26_Node000014_Node000015" class="edge">
<title>Node14&#45;&gt;Node15</title>
<g id="a_edge26_Node000014_Node000015"><a xlink:title=" ">
<path fill="none" stroke="#63b8ff" d="M713.55,-95.91C713.55,-87.08 713.55,-76.85 713.55,-70.06"/>
<polygon fill="#63b8ff" stroke="#63b8ff" points="710.05,-95.97 713.55,-105.97 717.05,-95.97 710.05,-95.97"/>
</a>
</g>
</g>
<!-- Node16 -->
<g id="Node000016" class="node">
<title>Node16</title>
<g id="a_Node000016"><a xlink:href="../../da/d36/bfs_8hpp.html" target="_top" xlink:title=" ">
<polygon fill="white" stroke="#666666" points="807.05,-70 764.05,-70 764.05,-53 807.05,-53 807.05,-70"/>
<text text-anchor="middle" x="785.55" y="-59.6" font-family="Helvetica,sans-Serif" font-size="8.00">bfs.hpp</text>
</a>
</g>
</g>
<!-- Node14&#45;&gt;Node16 -->
<g id="edge28_Node000014_Node000016" class="edge">
<title>Node14&#45;&gt;Node16</title>
<g id="a_edge28_Node000014_Node000016"><a xlink:title=" ">
<path fill="none" stroke="#63b8ff" d="M732.35,-100.18C745.9,-90.58 763.7,-77.98 774.89,-70.06"/>
<polygon fill="#63b8ff" stroke="#63b8ff" points="730.31,-97.34 724.18,-105.97 734.36,-103.05 730.31,-97.34"/>
</a>
</g>
</g>
<!-- Node17 -->
<g id="Node000017" class="node">
<title>Node17</title>
<g id="a_Node000017"><a xlink:href="../../d3/dec/dfs_8hpp.html" target="_top" xlink:title=" ">
<polygon fill="white" stroke="#666666" points="868.05,-70 825.05,-70 825.05,-53 868.05,-53 868.05,-70"/>
<text text-anchor="middle" x="846.55" y="-59.6" font-family="Helvetica,sans-Serif" font-size="8.00">dfs.hpp</text>
</a>
</g>
</g>
<!-- Node14&#45;&gt;Node17 -->
<g id="edge31_Node000014_Node000017" class="edge">
<title>Node14&#45;&gt;Node17</title>
<g id="a_edge31_Node000014_Node000017"><a xlink:title=" ">
<path fill="none" stroke="#63b8ff" d="M742.71,-102.32C768.23,-92.53 804.61,-78.58 826.85,-70.06"/>
<polygon fill="#63b8ff" stroke="#63b8ff" points="741.26,-99.13 733.18,-105.97 743.77,-105.66 741.26,-99.13"/>
</a>
</g>
</g>
<!-- Node18 -->
<g id="Node000018" class="node">
<title>Node18</title>
<g id="a_Node000018"><a xlink:href="../../d1/d5a/fstar_8hpp.html" target="_top" xlink:title=" ">
<polygon fill="white" stroke="#666666" points="933.05,-70 886.05,-70 886.05,-53 933.05,-53 933.05,-70"/>
<text text-anchor="middle" x="909.55" y="-59.6" font-family="Helvetica,sans-Serif" font-size="8.00">fstar.hpp</text>
</a>
</g>
</g>
<!-- Node14&#45;&gt;Node18 -->
<g id="edge33_Node000014_Node000018" class="edge">
<title>Node14&#45;&gt;Node18</title>
<g id="a_edge33_Node000014_Node000018"><a xlink:title=" ">
<path fill="none" stroke="#63b8ff" d="M752.37,-103.4C792.23,-93.03 852.96,-77.23 886.05,-68.62"/>
<polygon fill="#63b8ff" stroke="#63b8ff" points="751.27,-100.07 742.47,-105.97 753.03,-106.84 751.27,-100.07"/>
</a>
</g>
</g>
<!-- Node15&#45;&gt;Node2 -->
<g id="edge27_Node000015_Node000002" class="edge">
<title>Node15&#45;&gt;Node2</title>
<g id="a_edge27_Node000015_Node000002"><a xlink:title=" ">
<path fill="none" stroke="#63b8ff" d="M670.61,-53.53C603.53,-42.63 476.11,-21.93 423.35,-13.36"/>
<polygon fill="#63b8ff" stroke="#63b8ff" points="670.41,-57.04 680.84,-55.19 671.53,-50.13 670.41,-57.04"/>
</a>
</g>
</g>
<!-- Node16&#45;&gt;Node2 -->
<g id="edge29_Node000016_Node000002" class="edge">
<title>Node16&#45;&gt;Node2</title>
<g id="a_edge29_Node000016_Node000002"><a xlink:title=" ">
<path fill="none" stroke="#63b8ff" d="M753.77,-53.1C623.27,-29.82 479.26,-16.27 423.38,-11.46"/>
<polygon fill="#63b8ff" stroke="#63b8ff" points="753.48,-56.6 763.94,-54.93 754.72,-49.71 753.48,-56.6"/>
</a>
</g>
</g>
<!-- Node17&#45;&gt;Node2 -->
<g id="edge32_Node000017_Node000002" class="edge">
<title>Node17&#45;&gt;Node2</title>
<g id="a_edge32_Node000017_Node000002"><a xlink:title=" ">
<path fill="none" stroke="#63b8ff" d="M814.77,-53.14C659.72,-26.91 485.49,-14.7 423.16,-10.86"/>
<polygon fill="#63b8ff" stroke="#63b8ff" points="814.5,-56.64 824.95,-54.88 815.69,-49.74 814.5,-56.64"/>
</a>
</g>
</g>
<!-- Node18&#45;&gt;Node2 -->
<g id="edge34_Node000018_Node000002" class="edge">
<title>Node18&#45;&gt;Node2</title>
<g id="a_edge34_Node000018_Node000002"><a xlink:title=" ">
<path fill="none" stroke="#63b8ff" d="M875.95,-53.16C696.52,-25.24 492.32,-13.84 423.52,-10.56"/>
<polygon fill="#63b8ff" stroke="#63b8ff" points="875.41,-56.61 885.83,-54.71 876.5,-49.7 875.41,-56.61"/>
</a>
</g>
</g>
</g>
</svg>
