<?xml version="1.0" encoding="UTF-8" standalone="no"?>
<!DOCTYPE svg PUBLIC "-//W3C//DTD SVG 1.1//EN"
 "http://www.w3.org/Graphics/SVG/1.1/DTD/svg11.dtd">
<!-- Generated by graphviz version 2.43.0 (0)
 -->
<!-- Title: bnode.hpp Pages: 1 -->
<svg width="1274pt" height="184pt"
 viewBox="0.00 0.00 1273.51 184.00" xmlns="http://www.w3.org/2000/svg" xmlns:xlink="http://www.w3.org/1999/xlink">
<g id="graph0" class="graph" transform="scale(1 1) rotate(0) translate(4 180)">
<title>bnode.hpp</title>
<!-- Node1 -->
<g id="Node000001" class="node">
<title>Node1</title>
<g id="a_Node000001"><a xlink:title=" ">
<polygon fill="#999999" stroke="#666666" points="386.51,-176 325.51,-176 325.51,-159 386.51,-159 386.51,-176"/>
<text text-anchor="middle" x="356.01" y="-165.6" font-family="Helvetica,sans-Serif" font-size="8.00">bnode.hpp</text>
</a>
</g>
</g>
<!-- Node2 -->
<g id="Node000002" class="node">
<title>Node2</title>
<g id="a_Node000002"><a xlink:href="../../d9/d96/chdr_8hpp.html" target="_top" xlink:title=" ">
<polygon fill="white" stroke="#666666" points="608.01,-17 556.01,-17 556.01,0 608.01,0 608.01,-17"/>
<text text-anchor="middle" x="582.01" y="-6.6" font-family="Helvetica,sans-Serif" font-size="8.00">chdr.hpp</text>
</a>
</g>
</g>
<!-- Node1&#45;&gt;Node2 -->
<g id="edge1_Node000001_Node000002" class="edge">
<title>Node1&#45;&gt;Node2</title>
<g id="a_edge1_Node000001_Node000002"><a xlink:title=" ">
<path fill="none" stroke="#63b8ff" d="M315.19,-166.36C214.77,-165.23 -33.52,-157.29 4.01,-106 70.33,-15.38 452.06,-9.29 555.93,-9.33"/>
<polygon fill="#63b8ff" stroke="#63b8ff" points="315.25,-169.86 325.28,-166.46 315.31,-162.86 315.25,-169.86"/>
</a>
</g>
</g>
<!-- Node3 -->
<g id="Node000003" class="node">
<title>Node3</title>
<g id="a_Node000003"><a xlink:href="../../d6/ded/eidastar_8hpp.html" target="_top" xlink:title=" ">
<polygon fill="white" stroke="#666666" points="81.01,-123 13.01,-123 13.01,-106 81.01,-106 81.01,-123"/>
<text text-anchor="middle" x="47.01" y="-112.6" font-family="Helvetica,sans-Serif" font-size="8.00">eidastar.hpp</text>
</a>
</g>
</g>
<!-- Node1&#45;&gt;Node3 -->
<g id="edge2_Node000001_Node000003" class="edge">
<title>Node1&#45;&gt;Node3</title>
<g id="a_edge2_Node000001_Node000003"><a xlink:title=" ">
<path fill="none" stroke="#63b8ff" d="M315.08,-159.94C262.83,-151.54 169.65,-136.46 90.01,-123 87.17,-122.52 84.23,-122.02 81.27,-121.51"/>
<polygon fill="#63b8ff" stroke="#63b8ff" points="314.85,-163.45 325.28,-161.58 315.96,-156.54 314.85,-163.45"/>
</a>
</g>
</g>
<!-- Node4 -->
<g id="Node000004" class="node">
<title>Node4</title>
<g id="a_Node000004"><a xlink:href="../../d8/d85/eidbest__first_8hpp.html" target="_top" xlink:title=" ">
<polygon fill="white" stroke="#666666" points="184.51,-123 99.51,-123 99.51,-106 184.51,-106 184.51,-123"/>
<text text-anchor="middle" x="142.01" y="-112.6" font-family="Helvetica,sans-Serif" font-size="8.00">eidbest_first.hpp</text>
</a>
</g>
</g>
<!-- Node1&#45;&gt;Node4 -->
<g id="edge4_Node000001_Node000004" class="edge">
<title>Node1&#45;&gt;Node4</title>
<g id="a_edge4_Node000001_Node000004"><a xlink:title=" ">
<path fill="none" stroke="#63b8ff" d="M315.37,-156.82C274.18,-147 211.3,-132.01 173.66,-123.04"/>
<polygon fill="#63b8ff" stroke="#63b8ff" points="314.81,-160.28 325.35,-159.19 316.44,-153.47 314.81,-160.28"/>
</a>
</g>
</g>
<!-- Node5 -->
<g id="Node000005" class="node">
<title>Node5</title>
<g id="a_Node000005"><a xlink:href="../../dd/d95/eiddfs_8hpp.html" target="_top" xlink:title=" ">
<polygon fill="white" stroke="#666666" points="263.01,-123 203.01,-123 203.01,-106 263.01,-106 263.01,-123"/>
<text text-anchor="middle" x="233.01" y="-112.6" font-family="Helvetica,sans-Serif" font-size="8.00">eiddfs.hpp</text>
</a>
</g>
</g>
<!-- Node1&#45;&gt;Node5 -->
<g id="edge6_Node000001_Node000005" class="edge">
<title>Node1&#45;&gt;Node5</title>
<g id="a_edge6_Node000001_Node000005"><a xlink:title=" ">
<path fill="none" stroke="#63b8ff" d="M328.42,-155.06C304.85,-145.29 271.62,-131.51 251.24,-123.06"/>
<polygon fill="#63b8ff" stroke="#63b8ff" points="327.29,-158.38 337.86,-158.97 329.97,-151.91 327.29,-158.38"/>
</a>
</g>
</g>
<!-- Node6 -->
<g id="Node000006" class="node">
<title>Node6</title>
<g id="a_Node000006"><a xlink:href="../../db/df9/idastar_8hpp.html" target="_top" xlink:title=" ">
<polygon fill="white" stroke="#666666" points="343.01,-123 281.01,-123 281.01,-106 343.01,-106 343.01,-123"/>
<text text-anchor="middle" x="312.01" y="-112.6" font-family="Helvetica,sans-Serif" font-size="8.00">idastar.hpp</text>
</a>
</g>
</g>
<!-- Node1&#45;&gt;Node6 -->
<g id="edge8_Node000001_Node000006" class="edge">
<title>Node1&#45;&gt;Node6</title>
<g id="a_edge8_Node000001_Node000006"><a xlink:title=" ">
<path fill="none" stroke="#63b8ff" d="M342.83,-151.22C334.81,-141.92 324.91,-130.45 318.53,-123.06"/>
<polygon fill="#63b8ff" stroke="#63b8ff" points="340.34,-153.69 349.52,-158.97 345.64,-149.12 340.34,-153.69"/>
</a>
</g>
</g>
<!-- Node7 -->
<g id="Node000007" class="node">
<title>Node7</title>
<g id="a_Node000007"><a xlink:href="../../d1/d3a/idbest__first_8hpp.html" target="_top" xlink:title=" ">
<polygon fill="white" stroke="#666666" points="441.01,-123 361.01,-123 361.01,-106 441.01,-106 441.01,-123"/>
<text text-anchor="middle" x="401.01" y="-112.6" font-family="Helvetica,sans-Serif" font-size="8.00">idbest_first.hpp</text>
</a>
</g>
</g>
<!-- Node1&#45;&gt;Node7 -->
<g id="edge10_Node000001_Node000007" class="edge">
<title>Node1&#45;&gt;Node7</title>
<g id="a_edge10_Node000001_Node000007"><a xlink:title=" ">
<path fill="none" stroke="#63b8ff" d="M369.49,-151.22C377.7,-141.92 387.82,-130.45 394.35,-123.06"/>
<polygon fill="#63b8ff" stroke="#63b8ff" points="366.64,-149.16 362.65,-158.97 371.89,-153.79 366.64,-149.16"/>
</a>
</g>
</g>
<!-- Node8 -->
<g id="Node000008" class="node">
<title>Node8</title>
<g id="a_Node000008"><a xlink:href="../../df/d71/iddfs_8hpp.html" target="_top" xlink:title=" ">
<polygon fill="white" stroke="#666666" points="514.51,-123 459.51,-123 459.51,-106 514.51,-106 514.51,-123"/>
<text text-anchor="middle" x="487.01" y="-112.6" font-family="Helvetica,sans-Serif" font-size="8.00">iddfs.hpp</text>
</a>
</g>
</g>
<!-- Node1&#45;&gt;Node8 -->
<g id="edge12_Node000001_Node000008" class="edge">
<title>Node1&#45;&gt;Node8</title>
<g id="a_edge12_Node000001_Node000008"><a xlink:title=" ">
<path fill="none" stroke="#63b8ff" d="M384.73,-155.32C409.87,-145.53 445.7,-131.58 467.6,-123.06"/>
<polygon fill="#63b8ff" stroke="#63b8ff" points="383.39,-152.09 375.34,-158.97 385.93,-158.61 383.39,-152.09"/>
</a>
</g>
</g>
<!-- Node9 -->
<g id="Node000009" class="node">
<title>Node9</title>
<g id="a_Node000009"><a xlink:href="../../da/deb/managed__node_8hpp.html" target="_top" xlink:title=" ">
<polygon fill="white" stroke="#666666" points="631.01,-123 533.01,-123 533.01,-106 631.01,-106 631.01,-123"/>
<text text-anchor="middle" x="582.01" y="-112.6" font-family="Helvetica,sans-Serif" font-size="8.00">managed_node.hpp</text>
</a>
</g>
</g>
<!-- Node1&#45;&gt;Node9 -->
<g id="edge14_Node000001_Node000009" class="edge">
<title>Node1&#45;&gt;Node9</title>
<g id="a_edge14_Node000001_Node000009"><a xlink:title=" ">
<path fill="none" stroke="#63b8ff" d="M396.91,-157.27C440.32,-147.47 508.12,-132.17 548.5,-123.06"/>
<polygon fill="#63b8ff" stroke="#63b8ff" points="395.95,-153.9 386.96,-159.52 397.49,-160.73 395.95,-153.9"/>
</a>
</g>
</g>
<!-- Node15 -->
<g id="Node000015" class="node">
<title>Node15</title>
<g id="a_Node000015"><a xlink:href="../../d5/d14/mutable__node_8hpp.html" target="_top" xlink:title=" ">
<polygon fill="white" stroke="#666666" points="785.51,-123 692.51,-123 692.51,-106 785.51,-106 785.51,-123"/>
<text text-anchor="middle" x="739.01" y="-112.6" font-family="Helvetica,sans-Serif" font-size="8.00">mutable_node.hpp</text>
</a>
</g>
</g>
<!-- Node1&#45;&gt;Node15 -->
<g id="edge26_Node000001_Node000015" class="edge">
<title>Node1&#45;&gt;Node15</title>
<g id="a_edge26_Node000001_Node000015"><a xlink:title=" ">
<path fill="none" stroke="#63b8ff" d="M396.71,-161.08C468.39,-151.54 616.73,-131.78 692.41,-121.71"/>
<polygon fill="#63b8ff" stroke="#63b8ff" points="396.16,-157.62 386.71,-162.41 397.08,-164.56 396.16,-157.62"/>
</a>
</g>
</g>
<!-- Node16 -->
<g id="Node000016" class="node">
<title>Node16</title>
<g id="a_Node000016"><a xlink:href="../../d0/def/unmanaged__node_8hpp.html" target="_top" xlink:title=" ">
<polygon fill="white" stroke="#666666" points="1050.51,-123 941.51,-123 941.51,-106 1050.51,-106 1050.51,-123"/>
<text text-anchor="middle" x="996.01" y="-112.6" font-family="Helvetica,sans-Serif" font-size="8.00">unmanaged_node.hpp</text>
</a>
</g>
</g>
<!-- Node1&#45;&gt;Node16 -->
<g id="edge28_Node000001_Node000016" class="edge">
<title>Node1&#45;&gt;Node16</title>
<g id="a_edge28_Node000001_Node000016"><a xlink:title=" ">
<path fill="none" stroke="#63b8ff" d="M397.01,-163.23C508.13,-154.38 815.14,-129.91 941.05,-119.88"/>
<polygon fill="#63b8ff" stroke="#63b8ff" points="396.57,-159.76 386.88,-164.04 397.13,-166.73 396.57,-159.76"/>
</a>
</g>
</g>
<!-- Node3&#45;&gt;Node2 -->
<g id="edge3_Node000003_Node000002" class="edge">
<title>Node3&#45;&gt;Node2</title>
<g id="a_edge3_Node000003_Node000002"><a xlink:title=" ">
<path fill="none" stroke="#63b8ff" d="M76.6,-102.35C113.93,-88.71 180.35,-65.85 239.01,-53 355.7,-27.43 498.24,-15.33 555.93,-11.21"/>
<polygon fill="#63b8ff" stroke="#63b8ff" points="75.04,-99.19 66.87,-105.94 77.46,-105.76 75.04,-99.19"/>
</a>
</g>
</g>
<!-- Node4&#45;&gt;Node2 -->
<g id="edge5_Node000004_Node000002" class="edge">
<title>Node4&#45;&gt;Node2</title>
<g id="a_edge5_Node000004_Node000002"><a xlink:title=" ">
<path fill="none" stroke="#63b8ff" d="M166.74,-101.61C196.34,-87.87 247.71,-65.53 294.01,-53 388.46,-27.43 504.67,-15.66 555.78,-11.44"/>
<polygon fill="#63b8ff" stroke="#63b8ff" points="165.14,-98.49 157.58,-105.91 168.12,-104.83 165.14,-98.49"/>
</a>
</g>
</g>
<!-- Node5&#45;&gt;Node2 -->
<g id="edge7_Node000005_Node000002" class="edge">
<title>Node5&#45;&gt;Node2</title>
<g id="a_edge7_Node000005_Node000002"><a xlink:title=" ">
<path fill="none" stroke="#63b8ff" d="M250.5,-99.97C269.49,-85.98 301.26,-64.59 332.01,-53 410.13,-23.56 509.59,-13.87 555.98,-10.82"/>
<polygon fill="#63b8ff" stroke="#63b8ff" points="248.38,-97.19 242.49,-106 252.58,-102.78 248.38,-97.19"/>
</a>
</g>
</g>
<!-- Node6&#45;&gt;Node2 -->
<g id="edge9_Node000006_Node000002" class="edge">
<title>Node6&#45;&gt;Node2</title>
<g id="a_edge9_Node000006_Node000002"><a xlink:title=" ">
<path fill="none" stroke="#63b8ff" d="M319.12,-96.3C325.79,-82.38 337.13,-63.44 353.01,-53 386.15,-31.22 502.78,-17.29 555.63,-11.96"/>
<polygon fill="#63b8ff" stroke="#63b8ff" points="315.79,-95.17 314.93,-105.73 322.19,-98.01 315.79,-95.17"/>
</a>
</g>
</g>
<!-- Node7&#45;&gt;Node2 -->
<g id="edge11_Node000007_Node000002" class="edge">
<title>Node7&#45;&gt;Node2</title>
<g id="a_edge11_Node000007_Node000002"><a xlink:title=" ">
<path fill="none" stroke="#63b8ff" d="M381.28,-99.57C365.76,-86.93 348.66,-68.02 361.01,-53 385.42,-23.33 502.56,-13.58 555.7,-10.65"/>
<polygon fill="#63b8ff" stroke="#63b8ff" points="379.47,-102.6 389.54,-105.89 383.72,-97.03 379.47,-102.6"/>
</a>
</g>
</g>
<!-- Node8&#45;&gt;Node2 -->
<g id="edge13_Node000008_Node000002" class="edge">
<title>Node8&#45;&gt;Node2</title>
<g id="a_edge13_Node000008_Node000002"><a xlink:title=" ">
<path fill="none" stroke="#63b8ff" d="M449.65,-104.8C418.49,-96.7 377.68,-83.83 368.01,-70 363.68,-63.81 363.23,-58.85 368.01,-53 391.46,-24.3 503.9,-14.07 555.73,-10.83"/>
<polygon fill="#63b8ff" stroke="#63b8ff" points="448.82,-108.2 459.37,-107.26 450.54,-101.42 448.82,-108.2"/>
</a>
</g>
</g>
<!-- Node9&#45;&gt;Node2 -->
<g id="edge15_Node000009_Node000002" class="edge">
<title>Node9&#45;&gt;Node2</title>
<g id="a_edge15_Node000009_Node000002"><a xlink:title=" ">
<path fill="none" stroke="#63b8ff" d="M522.79,-104.59C466.49,-95.51 389.08,-81.22 380.01,-70 332.86,-11.61 490.76,-7.94 555.54,-8.8"/>
<polygon fill="#63b8ff" stroke="#63b8ff" points="522.26,-108.05 532.68,-106.17 523.36,-101.14 522.26,-108.05"/>
</a>
</g>
</g>
<!-- Node10 -->
<g id="Node000010" class="node">
<title>Node10</title>
<g id="a_Node000010"><a xlink:href="../../d3/d3e/gbest__first_8hpp.html" target="_top" xlink:title=" ">
<polygon fill="white" stroke="#666666" points="466.51,-70 389.51,-70 389.51,-53 466.51,-53 466.51,-70"/>
<text text-anchor="middle" x="428.01" y="-59.6" font-family="Helvetica,sans-Serif" font-size="8.00">gbest_first.hpp</text>
</a>
</g>
</g>
<!-- Node9&#45;&gt;Node10 -->
<g id="edge16_Node000009_Node000010" class="edge">
<title>Node9&#45;&gt;Node10</title>
<g id="a_edge16_Node000009_Node000010"><a xlink:title=" ">
<path fill="none" stroke="#63b8ff" d="M549.42,-102.71C519.82,-92.9 476.91,-78.69 450.83,-70.06"/>
<polygon fill="#63b8ff" stroke="#63b8ff" points="548.7,-106.15 559.29,-105.97 550.9,-99.51 548.7,-106.15"/>
</a>
</g>
</g>
<!-- Node11 -->
<g id="Node000011" class="node">
<title>Node11</title>
<g id="a_Node000011"><a xlink:href="../../de/d94/gbfs_8hpp.html" target="_top" xlink:title=" ">
<polygon fill="white" stroke="#666666" points="537.51,-70 484.51,-70 484.51,-53 537.51,-53 537.51,-70"/>
<text text-anchor="middle" x="511.01" y="-59.6" font-family="Helvetica,sans-Serif" font-size="8.00">gbfs.hpp</text>
</a>
</g>
</g>
<!-- Node9&#45;&gt;Node11 -->
<g id="edge18_Node000009_Node000011" class="edge">
<title>Node9&#45;&gt;Node11</title>
<g id="a_edge18_Node000009_Node000011"><a xlink:title=" ">
<path fill="none" stroke="#63b8ff" d="M563.09,-99.91C549.78,-90.34 532.46,-77.9 521.53,-70.06"/>
<polygon fill="#63b8ff" stroke="#63b8ff" points="561.37,-102.98 571.54,-105.97 565.46,-97.3 561.37,-102.98"/>
</a>
</g>
</g>
<!-- Node12 -->
<g id="Node000012" class="node">
<title>Node12</title>
<g id="a_Node000012"><a xlink:href="../../d4/df2/gdfs_8hpp.html" target="_top" xlink:title=" ">
<polygon fill="white" stroke="#666666" points="608.51,-70 555.51,-70 555.51,-53 608.51,-53 608.51,-70"/>
<text text-anchor="middle" x="582.01" y="-59.6" font-family="Helvetica,sans-Serif" font-size="8.00">gdfs.hpp</text>
</a>
</g>
</g>
<!-- Node9&#45;&gt;Node12 -->
<g id="edge20_Node000009_Node000012" class="edge">
<title>Node9&#45;&gt;Node12</title>
<g id="a_edge20_Node000009_Node000012"><a xlink:title=" ">
<path fill="none" stroke="#63b8ff" d="M582.01,-95.91C582.01,-87.08 582.01,-76.85 582.01,-70.06"/>
<polygon fill="#63b8ff" stroke="#63b8ff" points="578.51,-95.97 582.01,-105.97 585.51,-95.97 578.51,-95.97"/>
</a>
</g>
</g>
<!-- Node13 -->
<g id="Node000013" class="node">
<title>Node13</title>
<g id="a_Node000013"><a xlink:href="../../d3/d3e/gjps_8hpp.html" target="_top" xlink:title=" ">
<polygon fill="white" stroke="#666666" points="679.01,-70 627.01,-70 627.01,-53 679.01,-53 679.01,-70"/>
<text text-anchor="middle" x="653.01" y="-59.6" font-family="Helvetica,sans-Serif" font-size="8.00">gjps.hpp</text>
</a>
</g>
</g>
<!-- Node9&#45;&gt;Node13 -->
<g id="edge22_Node000009_Node000013" class="edge">
<title>Node9&#45;&gt;Node13</title>
<g id="a_edge22_Node000009_Node000013"><a xlink:title=" ">
<path fill="none" stroke="#63b8ff" d="M600.94,-99.91C614.25,-90.34 631.57,-77.9 642.49,-70.06"/>
<polygon fill="#63b8ff" stroke="#63b8ff" points="598.57,-97.3 592.49,-105.97 602.65,-102.98 598.57,-97.3"/>
</a>
</g>
</g>
<!-- Node14 -->
<g id="Node000014" class="node">
<title>Node14</title>
<g id="a_Node000014"><a xlink:href="../../d1/def/gstar_8hpp.html" target="_top" xlink:title=" ">
<polygon fill="white" stroke="#666666" points="752.51,-70 697.51,-70 697.51,-53 752.51,-53 752.51,-70"/>
<text text-anchor="middle" x="725.01" y="-59.6" font-family="Helvetica,sans-Serif" font-size="8.00">gstar.hpp</text>
</a>
</g>
</g>
<!-- Node9&#45;&gt;Node14 -->
<g id="edge24_Node000009_Node000014" class="edge">
<title>Node9&#45;&gt;Node14</title>
<g id="a_edge24_Node000009_Node000014"><a xlink:title=" ">
<path fill="none" stroke="#63b8ff" d="M612.64,-102.58C640.11,-92.78 679.71,-78.66 703.83,-70.06"/>
<polygon fill="#63b8ff" stroke="#63b8ff" points="611.36,-99.32 603.11,-105.97 613.71,-105.91 611.36,-99.32"/>
</a>
</g>
</g>
<!-- Node10&#45;&gt;Node2 -->
<g id="edge17_Node000010_Node000002" class="edge">
<title>Node10&#45;&gt;Node2</title>
<g id="a_edge17_Node000010_Node000002"><a xlink:title=" ">
<path fill="none" stroke="#63b8ff" d="M460.6,-49.71C490.2,-39.9 533.11,-25.69 559.2,-17.06"/>
<polygon fill="#63b8ff" stroke="#63b8ff" points="459.13,-46.51 450.74,-52.97 461.33,-53.15 459.13,-46.51"/>
</a>
</g>
</g>
<!-- Node11&#45;&gt;Node2 -->
<g id="edge19_Node000011_Node000002" class="edge">
<title>Node11&#45;&gt;Node2</title>
<g id="a_edge19_Node000011_Node000002"><a xlink:title=" ">
<path fill="none" stroke="#63b8ff" d="M529.94,-46.91C543.25,-37.34 560.57,-24.9 571.49,-17.06"/>
<polygon fill="#63b8ff" stroke="#63b8ff" points="527.57,-44.3 521.49,-52.97 531.65,-49.98 527.57,-44.3"/>
</a>
</g>
</g>
<!-- Node12&#45;&gt;Node2 -->
<g id="edge21_Node000012_Node000002" class="edge">
<title>Node12&#45;&gt;Node2</title>
<g id="a_edge21_Node000012_Node000002"><a xlink:title=" ">
<path fill="none" stroke="#63b8ff" d="M582.01,-42.91C582.01,-34.08 582.01,-23.85 582.01,-17.06"/>
<polygon fill="#63b8ff" stroke="#63b8ff" points="578.51,-42.97 582.01,-52.97 585.51,-42.97 578.51,-42.97"/>
</a>
</g>
</g>
<!-- Node13&#45;&gt;Node2 -->
<g id="edge23_Node000013_Node000002" class="edge">
<title>Node13&#45;&gt;Node2</title>
<g id="a_edge23_Node000013_Node000002"><a xlink:title=" ">
<path fill="none" stroke="#63b8ff" d="M634.09,-46.91C620.78,-37.34 603.46,-24.9 592.53,-17.06"/>
<polygon fill="#63b8ff" stroke="#63b8ff" points="632.37,-49.98 642.54,-52.97 636.46,-44.3 632.37,-49.98"/>
</a>
</g>
</g>
<!-- Node14&#45;&gt;Node2 -->
<g id="edge25_Node000014_Node000002" class="edge">
<title>Node14&#45;&gt;Node2</title>
<g id="a_edge25_Node000014_Node000002"><a xlink:title=" ">
<path fill="none" stroke="#63b8ff" d="M694.39,-49.58C666.92,-39.78 627.32,-25.66 603.2,-17.06"/>
<polygon fill="#63b8ff" stroke="#63b8ff" points="693.32,-52.91 703.91,-52.97 695.67,-46.32 693.32,-52.91"/>
</a>
</g>
</g>
<!-- Node15&#45;&gt;Node2 -->
<g id="edge27_Node000015_Node000002" class="edge">
<title>Node15&#45;&gt;Node2</title>
<g id="a_edge27_Node000015_Node000002"><a xlink:title=" ">
<path fill="none" stroke="#63b8ff" d="M752.63,-97.62C762.1,-84.56 771.34,-66.14 761.01,-53 742.29,-29.18 653.2,-16.79 608.18,-11.96"/>
<polygon fill="#63b8ff" stroke="#63b8ff" points="749.72,-95.65 746.27,-105.67 755.21,-99.99 749.72,-95.65"/>
</a>
</g>
</g>
<!-- Node16&#45;&gt;Node2 -->
<g id="edge35_Node000016_Node000002" class="edge">
<title>Node16&#45;&gt;Node2</title>
<g id="a_edge35_Node000016_Node000002"><a xlink:title=" ">
<path fill="none" stroke="#63b8ff" d="M958.47,-103.25C926.45,-94.48 879.18,-81.5 838.01,-70 811.32,-62.54 804.89,-59.78 778.01,-53 717.52,-37.73 645.8,-22.55 608.12,-14.79"/>
<polygon fill="#63b8ff" stroke="#63b8ff" points="957.74,-106.68 968.31,-105.94 959.59,-99.93 957.74,-106.68"/>
</a>
</g>
</g>
<!-- Node17 -->
<g id="Node000017" class="node">
<title>Node17</title>
<g id="a_Node000017"><a xlink:href="../../dc/da9/astar_8hpp.html" target="_top" xlink:title=" ">
<polygon fill="white" stroke="#666666" points="902.51,-70 847.51,-70 847.51,-53 902.51,-53 902.51,-70"/>
<text text-anchor="middle" x="875.01" y="-59.6" font-family="Helvetica,sans-Serif" font-size="8.00">astar.hpp</text>
</a>
</g>
</g>
<!-- Node16&#45;&gt;Node17 -->
<g id="edge29_Node000016_Node000017" class="edge">
<title>Node16&#45;&gt;Node17</title>
<g id="a_edge29_Node000016_Node000017"><a xlink:title=" ">
<path fill="none" stroke="#63b8ff" d="M968.87,-102.06C945.68,-92.29 912.99,-78.51 892.94,-70.06"/>
<polygon fill="#63b8ff" stroke="#63b8ff" points="967.58,-105.32 978.16,-105.97 970.3,-98.87 967.58,-105.32"/>
</a>
</g>
</g>
<!-- Node18 -->
<g id="Node000018" class="node">
<title>Node18</title>
<g id="a_Node000018"><a xlink:href="../../d3/d77/best__first_8hpp.html" target="_top" xlink:title=" ">
<polygon fill="white" stroke="#666666" points="993.01,-70 921.01,-70 921.01,-53 993.01,-53 993.01,-70"/>
<text text-anchor="middle" x="957.01" y="-59.6" font-family="Helvetica,sans-Serif" font-size="8.00">best_first.hpp</text>
</a>
</g>
</g>
<!-- Node16&#45;&gt;Node18 -->
<g id="edge31_Node000016_Node000018" class="edge">
<title>Node16&#45;&gt;Node18</title>
<g id="a_edge31_Node000016_Node000018"><a xlink:title=" ">
<path fill="none" stroke="#63b8ff" d="M984.11,-97.94C977.04,-88.69 968.39,-77.37 962.79,-70.06"/>
<polygon fill="#63b8ff" stroke="#63b8ff" points="981.4,-100.16 990.26,-105.97 986.96,-95.91 981.4,-100.16"/>
</a>
</g>
</g>
<!-- Node19 -->
<g id="Node000019" class="node">
<title>Node19</title>
<g id="a_Node000019"><a xlink:href="../../da/d36/bfs_8hpp.html" target="_top" xlink:title=" ">
<polygon fill="white" stroke="#666666" points="1058.51,-70 1011.51,-70 1011.51,-53 1058.51,-53 1058.51,-70"/>
<text text-anchor="middle" x="1035.01" y="-59.6" font-family="Helvetica,sans-Serif" font-size="8.00">bfs.hpp</text>
</a>
</g>
</g>
<!-- Node16&#45;&gt;Node19 -->
<g id="edge33_Node000016_Node000019" class="edge">
<title>Node16&#45;&gt;Node19</title>
<g id="a_edge33_Node000016_Node000019"><a xlink:title=" ">
<path fill="none" stroke="#63b8ff" d="M1007.91,-97.94C1014.98,-88.69 1023.64,-77.37 1029.23,-70.06"/>
<polygon fill="#63b8ff" stroke="#63b8ff" points="1005.06,-95.91 1001.77,-105.97 1010.62,-100.16 1005.06,-95.91"/>
</a>
</g>
</g>
<!-- Node20 -->
<g id="Node000020" class="node">
<title>Node20</title>
<g id="a_Node000020"><a xlink:href="../../d3/dec/dfs_8hpp.html" target="_top" xlink:title=" ">
<polygon fill="white" stroke="#666666" points="1123.51,-70 1076.51,-70 1076.51,-53 1123.51,-53 1123.51,-70"/>
<text text-anchor="middle" x="1100.01" y="-59.6" font-family="Helvetica,sans-Serif" font-size="8.00">dfs.hpp</text>
</a>
</g>
</g>
<!-- Node16&#45;&gt;Node20 -->
<g id="edge36_Node000016_Node000020" class="edge">
<title>Node16&#45;&gt;Node20</title>
<g id="a_edge36_Node000016_Node000020"><a xlink:title=" ">
<path fill="none" stroke="#63b8ff" d="M1020.42,-101.53C1040.27,-91.8 1067.68,-78.36 1084.6,-70.06"/>
<polygon fill="#63b8ff" stroke="#63b8ff" points="1018.8,-98.43 1011.36,-105.97 1021.88,-104.71 1018.8,-98.43"/>
</a>
</g>
</g>
<!-- Node21 -->
<g id="Node000021" class="node">
<title>Node21</title>
<g id="a_Node000021"><a xlink:href="../../d8/dd5/fringe_8hpp.html" target="_top" xlink:title=" ">
<polygon fill="white" stroke="#666666" points="1200.51,-70 1141.51,-70 1141.51,-53 1200.51,-53 1200.51,-70"/>
<text text-anchor="middle" x="1171.01" y="-59.6" font-family="Helvetica,sans-Serif" font-size="8.00">fringe.hpp</text>
</a>
</g>
</g>
<!-- Node16&#45;&gt;Node21 -->
<g id="edge38_Node000016_Node000021" class="edge">
<title>Node16&#45;&gt;Node21</title>
<g id="a_edge38_Node000016_Node000021"><a xlink:title=" ">
<path fill="none" stroke="#63b8ff" d="M1031.73,-103.09C1065.4,-93.28 1115.05,-78.81 1145.08,-70.06"/>
<polygon fill="#63b8ff" stroke="#63b8ff" points="1030.46,-99.82 1021.83,-105.97 1032.41,-106.54 1030.46,-99.82"/>
</a>
</g>
</g>
<!-- Node22 -->
<g id="Node000022" class="node">
<title>Node22</title>
<g id="a_Node000022"><a xlink:href="../../d9/de6/jps_8hpp.html" target="_top" xlink:title=" ">
<polygon fill="white" stroke="#666666" points="1265.51,-70 1218.51,-70 1218.51,-53 1265.51,-53 1265.51,-70"/>
<text text-anchor="middle" x="1242.01" y="-59.6" font-family="Helvetica,sans-Serif" font-size="8.00">jps.hpp</text>
</a>
</g>
</g>
<!-- Node16&#45;&gt;Node22 -->
<g id="edge40_Node000016_Node000022" class="edge">
<title>Node16&#45;&gt;Node22</title>
<g id="a_edge40_Node000016_Node000022"><a xlink:title=" ">
<path fill="none" stroke="#63b8ff" d="M1044.11,-103.99C1087.32,-95.37 1152.49,-82.19 1209.01,-70 1212,-69.36 1215.13,-68.66 1218.23,-67.97"/>
<polygon fill="#63b8ff" stroke="#63b8ff" points="1043.28,-100.59 1034.16,-105.97 1044.65,-107.45 1043.28,-100.59"/>
</a>
</g>
</g>
<!-- Node17&#45;&gt;Node2 -->
<g id="edge30_Node000017_Node000002" class="edge">
<title>Node17&#45;&gt;Node2</title>
<g id="a_edge30_Node000017_Node000002"><a xlink:title=" ">
<path fill="none" stroke="#63b8ff" d="M837.46,-53.78C835.96,-53.52 834.47,-53.26 833.01,-53 750.91,-38.55 653.63,-21.8 608.04,-13.97"/>
<polygon fill="#63b8ff" stroke="#63b8ff" points="837,-57.26 847.45,-55.56 838.22,-50.36 837,-57.26"/>
</a>
</g>
</g>
<!-- Node18&#45;&gt;Node2 -->
<g id="edge32_Node000018_Node000002" class="edge">
<title>Node18&#45;&gt;Node2</title>
<g id="a_edge32_Node000018_Node000002"><a xlink:title=" ">
<path fill="none" stroke="#63b8ff" d="M910.8,-53.02C791.14,-35.47 662.22,-19.33 608.07,-12.67"/>
<polygon fill="#63b8ff" stroke="#63b8ff" points="910.47,-56.51 920.87,-54.5 911.49,-49.58 910.47,-56.51"/>
</a>
</g>
</g>
<!-- Node19&#45;&gt;Node2 -->
<g id="edge34_Node000019_Node000002" class="edge">
<title>Node19&#45;&gt;Node2</title>
<g id="a_edge34_Node000019_Node000002"><a xlink:title=" ">
<path fill="none" stroke="#63b8ff" d="M1001.13,-53.08C846.43,-28.06 673.06,-15.34 608.21,-11.11"/>
<polygon fill="#63b8ff" stroke="#63b8ff" points="1000.85,-56.58 1011.29,-54.75 1001.98,-49.68 1000.85,-56.58"/>
</a>
</g>
</g>
<!-- Node20&#45;&gt;Node2 -->
<g id="edge37_Node000020_Node000002" class="edge">
<title>Node20&#45;&gt;Node2</title>
<g id="a_edge37_Node000020_Node000002"><a xlink:title=" ">
<path fill="none" stroke="#63b8ff" d="M1066.34,-53.15C885.5,-25.15 679.87,-13.92 608.19,-10.61"/>
<polygon fill="#63b8ff" stroke="#63b8ff" points="1065.87,-56.62 1076.29,-54.71 1066.96,-49.7 1065.87,-56.62"/>
</a>
</g>
</g>
<!-- Node21&#45;&gt;Node2 -->
<g id="edge39_Node000021_Node000002" class="edge">
<title>Node21&#45;&gt;Node2</title>
<g id="a_edge39_Node000021_Node000002"><a xlink:title=" ">
<path fill="none" stroke="#63b8ff" d="M1131.09,-53.06C923.67,-25.49 686.11,-13.84 608.17,-10.54"/>
<polygon fill="#63b8ff" stroke="#63b8ff" points="1130.88,-56.56 1141.26,-54.43 1131.81,-49.62 1130.88,-56.56"/>
</a>
</g>
</g>
<!-- Node22&#45;&gt;Node2 -->
<g id="edge41_Node000022_Node000002" class="edge">
<title>Node22&#45;&gt;Node2</title>
<g id="a_edge41_Node000022_Node000002"><a xlink:title=" ">
<path fill="none" stroke="#63b8ff" d="M1208.06,-53.15C969.75,-18.69 693.19,-11.39 608.15,-9.87"/>
<polygon fill="#63b8ff" stroke="#63b8ff" points="1207.9,-56.66 1218.3,-54.65 1208.92,-49.74 1207.9,-56.66"/>
</a>
</g>
</g>
</g>
</svg>
