<?xml version="1.0" encoding="UTF-8" standalone="no"?>
<!DOCTYPE svg PUBLIC "-//W3C//DTD SVG 1.1//EN"
 "http://www.w3.org/Graphics/SVG/1.1/DTD/svg11.dtd">
<!-- Generated by graphviz version 2.43.0 (0)
 -->
<!-- Title: bnode.hpp Pages: 1 -->
<svg width="860pt" height="131pt"
 viewBox="0.00 0.00 859.50 131.00" xmlns="http://www.w3.org/2000/svg" xmlns:xlink="http://www.w3.org/1999/xlink">
<g id="graph0" class="graph" transform="scale(1 1) rotate(0) translate(4 127)">
<title>bnode.hpp</title>
<!-- Node1 -->
<g id="Node000001" class="node">
<title>Node1</title>
<g id="a_Node000001"><a xlink:title=" ">
<polygon fill="#999999" stroke="#666666" points="320.5,-123 265.5,-123 265.5,-106 320.5,-106 320.5,-123"/>
<text text-anchor="middle" x="293" y="-112.6" font-family="Helvetica,sans-Serif" font-size="8.00">bnode.hpp</text>
</a>
</g>
</g>
<!-- Node2 -->
<g id="Node000002" class="node">
<title>Node2</title>
<g id="a_Node000002"><a xlink:href="../../d6/ded/eidastar_8hpp_source.html" target="_top" xlink:title=" ">
<polygon fill="white" stroke="#666666" points="60,-70 0,-70 0,-53 60,-53 60,-70"/>
<text text-anchor="middle" x="30" y="-59.6" font-family="Helvetica,sans-Serif" font-size="8.00">eidastar.hpp</text>
</a>
</g>
</g>
<!-- Node1&#45;&gt;Node2 -->
<g id="edge1_Node000001_Node000002" class="edge">
<title>Node1&#45;&gt;Node2</title>
<g id="a_edge1_Node000001_Node000002"><a xlink:title=" ">
<path fill="none" stroke="#63b8ff" d="M255.42,-106.21C202.82,-96.01 108.31,-77.69 60.09,-68.33"/>
<polygon fill="#63b8ff" stroke="#63b8ff" points="254.87,-109.67 265.35,-108.14 256.2,-102.8 254.87,-109.67"/>
</a>
</g>
</g>
<!-- Node3 -->
<g id="Node000003" class="node">
<title>Node3</title>
<g id="a_Node000003"><a xlink:href="../../dd/d67/eidbstar_8hpp_source.html" target="_top" xlink:title=" ">
<polygon fill="white" stroke="#666666" points="138,-70 78,-70 78,-53 138,-53 138,-70"/>
<text text-anchor="middle" x="108" y="-59.6" font-family="Helvetica,sans-Serif" font-size="8.00">eidbstar.hpp</text>
</a>
</g>
</g>
<!-- Node1&#45;&gt;Node3 -->
<g id="edge2_Node000001_Node000003" class="edge">
<title>Node1&#45;&gt;Node3</title>
<g id="a_edge2_Node000001_Node000003"><a xlink:title=" ">
<path fill="none" stroke="#63b8ff" d="M255.7,-103.22C220.1,-93.4 167.29,-78.85 135.41,-70.06"/>
<polygon fill="#63b8ff" stroke="#63b8ff" points="255.13,-106.69 265.7,-105.97 256.99,-99.94 255.13,-106.69"/>
</a>
</g>
</g>
<!-- Node4 -->
<g id="Node000004" class="node">
<title>Node4</title>
<g id="a_Node000004"><a xlink:href="../../dd/d95/eiddfs_8hpp_source.html" target="_top" xlink:title=" ">
<polygon fill="white" stroke="#666666" points="209.5,-70 156.5,-70 156.5,-53 209.5,-53 209.5,-70"/>
<text text-anchor="middle" x="183" y="-59.6" font-family="Helvetica,sans-Serif" font-size="8.00">eiddfs.hpp</text>
</a>
</g>
</g>
<!-- Node1&#45;&gt;Node4 -->
<g id="edge3_Node000001_Node000004" class="edge">
<title>Node1&#45;&gt;Node4</title>
<g id="a_edge3_Node000001_Node000004"><a xlink:title=" ">
<path fill="none" stroke="#63b8ff" d="M267.47,-101.66C246.45,-91.92 217.28,-78.39 199.3,-70.06"/>
<polygon fill="#63b8ff" stroke="#63b8ff" points="266.22,-104.94 276.77,-105.97 269.17,-98.59 266.22,-104.94"/>
</a>
</g>
</g>
<!-- Node5 -->
<g id="Node000005" class="node">
<title>Node5</title>
<g id="a_Node000005"><a xlink:href="../../db/df9/idastar_8hpp_source.html" target="_top" xlink:title=" ">
<polygon fill="white" stroke="#666666" points="284,-70 228,-70 228,-53 284,-53 284,-70"/>
<text text-anchor="middle" x="256" y="-59.6" font-family="Helvetica,sans-Serif" font-size="8.00">idastar.hpp</text>
</a>
</g>
</g>
<!-- Node1&#45;&gt;Node5 -->
<g id="edge4_Node000001_Node000005" class="edge">
<title>Node1&#45;&gt;Node5</title>
<g id="a_edge4_Node000001_Node000005"><a xlink:title=" ">
<path fill="none" stroke="#63b8ff" d="M281.5,-97.65C274.83,-88.46 266.74,-77.3 261.48,-70.06"/>
<polygon fill="#63b8ff" stroke="#63b8ff" points="278.84,-99.94 287.54,-105.97 284.5,-95.83 278.84,-99.94"/>
</a>
</g>
</g>
<!-- Node6 -->
<g id="Node000006" class="node">
<title>Node6</title>
<g id="a_Node000006"><a xlink:href="../../d1/d24/idbstar_8hpp_source.html" target="_top" xlink:title=" ">
<polygon fill="white" stroke="#666666" points="358,-70 302,-70 302,-53 358,-53 358,-70"/>
<text text-anchor="middle" x="330" y="-59.6" font-family="Helvetica,sans-Serif" font-size="8.00">idbstar.hpp</text>
</a>
</g>
</g>
<!-- Node1&#45;&gt;Node6 -->
<g id="edge5_Node000001_Node000006" class="edge">
<title>Node1&#45;&gt;Node6</title>
<g id="a_edge5_Node000001_Node000006"><a xlink:title=" ">
<path fill="none" stroke="#63b8ff" d="M304.5,-97.65C311.17,-88.46 319.26,-77.3 324.52,-70.06"/>
<polygon fill="#63b8ff" stroke="#63b8ff" points="301.5,-95.83 298.46,-105.97 307.16,-99.94 301.5,-95.83"/>
</a>
</g>
</g>
<!-- Node7 -->
<g id="Node000007" class="node">
<title>Node7</title>
<g id="a_Node000007"><a xlink:href="../../df/d71/iddfs_8hpp_source.html" target="_top" xlink:title=" ">
<polygon fill="white" stroke="#666666" points="425.5,-70 376.5,-70 376.5,-53 425.5,-53 425.5,-70"/>
<text text-anchor="middle" x="401" y="-59.6" font-family="Helvetica,sans-Serif" font-size="8.00">iddfs.hpp</text>
</a>
</g>
</g>
<!-- Node1&#45;&gt;Node7 -->
<g id="edge6_Node000001_Node000007" class="edge">
<title>Node1&#45;&gt;Node7</title>
<g id="a_edge6_Node000001_Node000007"><a xlink:title=" ">
<path fill="none" stroke="#63b8ff" d="M318.06,-101.66C338.7,-91.92 367.34,-78.39 385,-70.06"/>
<polygon fill="#63b8ff" stroke="#63b8ff" points="316.48,-98.54 308.94,-105.97 319.47,-104.87 316.48,-98.54"/>
</a>
</g>
</g>
<!-- Node8 -->
<g id="Node000008" class="node">
<title>Node8</title>
<g id="a_Node000008"><a xlink:href="../../da/deb/managed__node_8hpp.html" target="_top" xlink:title=" ">
<polygon fill="white" stroke="#666666" points="532.5,-70 443.5,-70 443.5,-53 532.5,-53 532.5,-70"/>
<text text-anchor="middle" x="488" y="-59.6" font-family="Helvetica,sans-Serif" font-size="8.00">managed_node.hpp</text>
</a>
</g>
</g>
<!-- Node1&#45;&gt;Node8 -->
<g id="edge7_Node000001_Node000008" class="edge">
<title>Node1&#45;&gt;Node8</title>
<g id="a_edge7_Node000001_Node000008"><a xlink:title=" ">
<path fill="none" stroke="#63b8ff" d="M330.55,-103.68C368.05,-93.87 424.88,-79.01 459.03,-70.08"/>
<polygon fill="#63b8ff" stroke="#63b8ff" points="329.31,-100.38 320.53,-106.3 331.09,-107.16 329.31,-100.38"/>
</a>
</g>
</g>
<!-- Node13 -->
<g id="Node000013" class="node">
<title>Node13</title>
<g id="a_Node000013"><a xlink:href="../../d0/def/unmanaged__node_8hpp.html" target="_top" xlink:title=" ">
<polygon fill="white" stroke="#666666" points="717,-70 619,-70 619,-53 717,-53 717,-70"/>
<text text-anchor="middle" x="668" y="-59.6" font-family="Helvetica,sans-Serif" font-size="8.00">unmanaged_node.hpp</text>
</a>
</g>
</g>
<!-- Node1&#45;&gt;Node13 -->
<g id="edge12_Node000001_Node000013" class="edge">
<title>Node1&#45;&gt;Node13</title>
<g id="a_edge12_Node000001_Node000013"><a xlink:title=" ">
<path fill="none" stroke="#63b8ff" d="M330.86,-108.35C399.15,-99.06 542.86,-79.52 618.71,-69.2"/>
<polygon fill="#63b8ff" stroke="#63b8ff" points="330.01,-104.93 320.57,-109.75 330.96,-111.87 330.01,-104.93"/>
</a>
</g>
</g>
<!-- Node9 -->
<g id="Node000009" class="node">
<title>Node9</title>
<g id="a_Node000009"><a xlink:href="../../dc/da9/astar_8hpp.html" target="_top" xlink:title=" ">
<polygon fill="white" stroke="#666666" points="581,-17 531,-17 531,0 581,0 581,-17"/>
<text text-anchor="middle" x="556" y="-6.6" font-family="Helvetica,sans-Serif" font-size="8.00">astar.hpp</text>
</a>
</g>
</g>
<!-- Node8&#45;&gt;Node9 -->
<g id="edge8_Node000008_Node000009" class="edge">
<title>Node8&#45;&gt;Node9</title>
<g id="a_edge8_Node000008_Node000009"><a xlink:title=" ">
<path fill="none" stroke="#63b8ff" d="M506.12,-46.91C518.87,-37.34 535.46,-24.9 545.93,-17.06"/>
<polygon fill="#63b8ff" stroke="#63b8ff" points="503.93,-44.17 498.03,-52.97 508.13,-49.77 503.93,-44.17"/>
</a>
</g>
</g>
<!-- Node10 -->
<g id="Node000010" class="node">
<title>Node10</title>
<g id="a_Node000010"><a xlink:href="../../de/d94/gbfs_8hpp_source.html" target="_top" xlink:title=" ">
<polygon fill="white" stroke="#666666" points="379.5,-17 332.5,-17 332.5,0 379.5,0 379.5,-17"/>
<text text-anchor="middle" x="356" y="-6.6" font-family="Helvetica,sans-Serif" font-size="8.00">gbfs.hpp</text>
</a>
</g>
</g>
<!-- Node8&#45;&gt;Node10 -->
<g id="edge9_Node000008_Node000010" class="edge">
<title>Node8&#45;&gt;Node10</title>
<g id="a_edge9_Node000008_Node000010"><a xlink:title=" ">
<path fill="none" stroke="#63b8ff" d="M459.06,-49.32C433.73,-39.53 397.62,-25.58 375.56,-17.06"/>
<polygon fill="#63b8ff" stroke="#63b8ff" points="457.93,-52.64 468.52,-52.97 460.46,-46.11 457.93,-52.64"/>
</a>
</g>
</g>
<!-- Node11 -->
<g id="Node000011" class="node">
<title>Node11</title>
<g id="a_Node000011"><a xlink:href="../../d4/df2/gdfs_8hpp_source.html" target="_top" xlink:title=" ">
<polygon fill="white" stroke="#666666" points="444.5,-17 397.5,-17 397.5,0 444.5,0 444.5,-17"/>
<text text-anchor="middle" x="421" y="-6.6" font-family="Helvetica,sans-Serif" font-size="8.00">gdfs.hpp</text>
</a>
</g>
</g>
<!-- Node8&#45;&gt;Node11 -->
<g id="edge10_Node000008_Node000011" class="edge">
<title>Node8&#45;&gt;Node11</title>
<g id="a_edge10_Node000008_Node000011"><a xlink:title=" ">
<path fill="none" stroke="#63b8ff" d="M470.14,-46.91C457.58,-37.34 441.23,-24.9 430.93,-17.06"/>
<polygon fill="#63b8ff" stroke="#63b8ff" points="468.04,-49.7 478.11,-52.97 472.28,-44.13 468.04,-49.7"/>
</a>
</g>
</g>
<!-- Node12 -->
<g id="Node000012" class="node">
<title>Node12</title>
<g id="a_Node000012"><a xlink:href="../../d1/def/gstar_8hpp_source.html" target="_top" xlink:title=" ">
<polygon fill="white" stroke="#666666" points="513,-17 463,-17 463,0 513,0 513,-17"/>
<text text-anchor="middle" x="488" y="-6.6" font-family="Helvetica,sans-Serif" font-size="8.00">gstar.hpp</text>
</a>
</g>
</g>
<!-- Node8&#45;&gt;Node12 -->
<g id="edge11_Node000008_Node000012" class="edge">
<title>Node8&#45;&gt;Node12</title>
<g id="a_edge11_Node000008_Node000012"><a xlink:title=" ">
<path fill="none" stroke="#63b8ff" d="M488,-42.91C488,-34.08 488,-23.85 488,-17.06"/>
<polygon fill="#63b8ff" stroke="#63b8ff" points="484.5,-42.97 488,-52.97 491.5,-42.97 484.5,-42.97"/>
</a>
</g>
</g>
<!-- Node13&#45;&gt;Node9 -->
<g id="edge13_Node000013_Node000009" class="edge">
<title>Node13&#45;&gt;Node9</title>
<g id="a_edge13_Node000013_Node000009"><a xlink:title=" ">
<path fill="none" stroke="#63b8ff" d="M642.3,-48.8C620.87,-39.04 590.99,-25.43 572.59,-17.06"/>
<polygon fill="#63b8ff" stroke="#63b8ff" points="640.92,-52.02 651.47,-52.97 643.82,-45.65 640.92,-52.02"/>
</a>
</g>
</g>
<!-- Node14 -->
<g id="Node000014" class="node">
<title>Node14</title>
<g id="a_Node000014"><a xlink:href="../../d3/d77/best__first_8hpp.html" target="_top" xlink:title=" ">
<polygon fill="white" stroke="#666666" points="664.5,-17 599.5,-17 599.5,0 664.5,0 664.5,-17"/>
<text text-anchor="middle" x="632" y="-6.6" font-family="Helvetica,sans-Serif" font-size="8.00">best_first.hpp</text>
</a>
</g>
</g>
<!-- Node13&#45;&gt;Node14 -->
<g id="edge14_Node000013_Node000014" class="edge">
<title>Node13&#45;&gt;Node14</title>
<g id="a_edge14_Node000013_Node000014"><a xlink:title=" ">
<path fill="none" stroke="#63b8ff" d="M656.81,-44.65C650.32,-35.46 642.45,-24.3 637.33,-17.06"/>
<polygon fill="#63b8ff" stroke="#63b8ff" points="654.06,-46.82 662.69,-52.97 659.78,-42.79 654.06,-46.82"/>
</a>
</g>
</g>
<!-- Node15 -->
<g id="Node000015" class="node">
<title>Node15</title>
<g id="a_Node000015"><a xlink:href="../../da/d36/bfs_8hpp.html" target="_top" xlink:title=" ">
<polygon fill="white" stroke="#666666" points="725.5,-17 682.5,-17 682.5,0 725.5,0 725.5,-17"/>
<text text-anchor="middle" x="704" y="-6.6" font-family="Helvetica,sans-Serif" font-size="8.00">bfs.hpp</text>
</a>
</g>
</g>
<!-- Node13&#45;&gt;Node15 -->
<g id="edge15_Node000013_Node000015" class="edge">
<title>Node13&#45;&gt;Node15</title>
<g id="a_edge15_Node000013_Node000015"><a xlink:title=" ">
<path fill="none" stroke="#63b8ff" d="M679.19,-44.65C685.68,-35.46 693.55,-24.3 698.67,-17.06"/>
<polygon fill="#63b8ff" stroke="#63b8ff" points="676.22,-42.79 673.31,-52.97 681.94,-46.82 676.22,-42.79"/>
</a>
</g>
</g>
<!-- Node16 -->
<g id="Node000016" class="node">
<title>Node16</title>
<g id="a_Node000016"><a xlink:href="../../d3/dec/dfs_8hpp.html" target="_top" xlink:title=" ">
<polygon fill="white" stroke="#666666" points="786.5,-17 743.5,-17 743.5,0 786.5,0 786.5,-17"/>
<text text-anchor="middle" x="765" y="-6.6" font-family="Helvetica,sans-Serif" font-size="8.00">dfs.hpp</text>
</a>
</g>
</g>
<!-- Node13&#45;&gt;Node16 -->
<g id="edge16_Node000013_Node000016" class="edge">
<title>Node13&#45;&gt;Node16</title>
<g id="a_edge16_Node000013_Node000016"><a xlink:title=" ">
<path fill="none" stroke="#63b8ff" d="M691.27,-48.27C709.74,-38.55 734.99,-25.28 750.63,-17.06"/>
<polygon fill="#63b8ff" stroke="#63b8ff" points="689.54,-45.22 682.31,-52.97 692.79,-51.42 689.54,-45.22"/>
</a>
</g>
</g>
<!-- Node17 -->
<g id="Node000017" class="node">
<title>Node17</title>
<g id="a_Node000017"><a xlink:href="../../d1/d5a/fstar_8hpp.html" target="_top" xlink:title=" ">
<polygon fill="white" stroke="#666666" points="851.5,-17 804.5,-17 804.5,0 851.5,0 851.5,-17"/>
<text text-anchor="middle" x="828" y="-6.6" font-family="Helvetica,sans-Serif" font-size="8.00">fstar.hpp</text>
</a>
</g>
</g>
<!-- Node13&#45;&gt;Node17 -->
<g id="edge17_Node000013_Node000017" class="edge">
<title>Node13&#45;&gt;Node17</title>
<g id="a_edge17_Node000013_Node000017"><a xlink:title=" ">
<path fill="none" stroke="#63b8ff" d="M701.46,-49.84C732.22,-40.03 777.07,-25.73 804.29,-17.06"/>
<polygon fill="#63b8ff" stroke="#63b8ff" points="700.07,-46.6 691.61,-52.97 702.2,-53.27 700.07,-46.6"/>
</a>
</g>
</g>
</g>
</svg>
