<?xml version="1.0" encoding="UTF-8" standalone="no"?>
<!DOCTYPE svg PUBLIC "-//W3C//DTD SVG 1.1//EN"
 "http://www.w3.org/Graphics/SVG/1.1/DTD/svg11.dtd">
<!-- Generated by graphviz version 2.43.0 (0)
 -->
<!-- Title: bnode.hpp Pages: 1 -->
<svg width="982pt" height="184pt"
 viewBox="0.00 0.00 982.09 184.00" xmlns="http://www.w3.org/2000/svg" xmlns:xlink="http://www.w3.org/1999/xlink">
<g id="graph0" class="graph" transform="scale(1 1) rotate(0) translate(4 180)">
<title>bnode.hpp</title>
<!-- Node1 -->
<g id="Node000001" class="node">
<title>Node1</title>
<g id="a_Node000001"><a xlink:title=" ">
<polygon fill="#999999" stroke="#666666" points="311.09,-176 256.09,-176 256.09,-159 311.09,-159 311.09,-176"/>
<text text-anchor="middle" x="283.59" y="-165.6" font-family="Helvetica,sans-Serif" font-size="8.00">bnode.hpp</text>
</a>
</g>
</g>
<!-- Node2 -->
<g id="Node000002" class="node">
<title>Node2</title>
<g id="a_Node000002"><a xlink:href="../../d9/d96/chdr_8hpp.html" target="_top" xlink:title=" ">
<polygon fill="white" stroke="#666666" points="464.09,-17 417.09,-17 417.09,0 464.09,0 464.09,-17"/>
<text text-anchor="middle" x="440.59" y="-6.6" font-family="Helvetica,sans-Serif" font-size="8.00">chdr.hpp</text>
</a>
</g>
</g>
<!-- Node1&#45;&gt;Node2 -->
<g id="edge1_Node000001_Node000002" class="edge">
<title>Node1&#45;&gt;Node2</title>
<g id="a_edge1_Node000001_Node000002"><a xlink:title=" ">
<path fill="none" stroke="#63b8ff" d="M245.75,-166.43C176.66,-165.41 34.34,-158.89 3.59,-123 -1.32,-117.26 -0.95,-112.04 3.59,-106 54.29,-38.53 333.66,-16.08 417.07,-10.83"/>
<polygon fill="#63b8ff" stroke="#63b8ff" points="245.75,-169.93 255.79,-166.55 245.83,-162.93 245.75,-169.93"/>
</a>
</g>
</g>
<!-- Node3 -->
<g id="Node000003" class="node">
<title>Node3</title>
<g id="a_Node000003"><a xlink:href="../../d6/ded/eidastar_8hpp.html" target="_top" xlink:title=" ">
<polygon fill="white" stroke="#666666" points="72.59,-123 12.59,-123 12.59,-106 72.59,-106 72.59,-123"/>
<text text-anchor="middle" x="42.59" y="-112.6" font-family="Helvetica,sans-Serif" font-size="8.00">eidastar.hpp</text>
</a>
</g>
</g>
<!-- Node1&#45;&gt;Node3 -->
<g id="edge2_Node000001_Node000003" class="edge">
<title>Node1&#45;&gt;Node3</title>
<g id="a_edge2_Node000001_Node000003"><a xlink:title=" ">
<path fill="none" stroke="#63b8ff" d="M246.02,-158.55C198.3,-148.45 116.91,-131.23 72.93,-121.92"/>
<polygon fill="#63b8ff" stroke="#63b8ff" points="245.44,-162 255.95,-160.65 246.89,-155.16 245.44,-162"/>
</a>
</g>
</g>
<!-- Node4 -->
<g id="Node000004" class="node">
<title>Node4</title>
<g id="a_Node000004"><a xlink:href="../../d8/d85/eidbest__first_8hpp.html" target="_top" xlink:title=" ">
<polygon fill="white" stroke="#666666" points="166.09,-123 91.09,-123 91.09,-106 166.09,-106 166.09,-123"/>
<text text-anchor="middle" x="128.59" y="-112.6" font-family="Helvetica,sans-Serif" font-size="8.00">eidbest_first.hpp</text>
</a>
</g>
</g>
<!-- Node1&#45;&gt;Node4 -->
<g id="edge4_Node000001_Node000004" class="edge">
<title>Node1&#45;&gt;Node4</title>
<g id="a_edge4_Node000001_Node000004"><a xlink:title=" ">
<path fill="none" stroke="#63b8ff" d="M251.18,-155.84C221.38,-146.03 177.93,-131.73 151.56,-123.06"/>
<polygon fill="#63b8ff" stroke="#63b8ff" points="250.13,-159.17 260.72,-158.97 252.32,-152.52 250.13,-159.17"/>
</a>
</g>
</g>
<!-- Node5 -->
<g id="Node000005" class="node">
<title>Node5</title>
<g id="a_Node000005"><a xlink:href="../../dd/d95/eiddfs_8hpp.html" target="_top" xlink:title=" ">
<polygon fill="white" stroke="#666666" points="237.09,-123 184.09,-123 184.09,-106 237.09,-106 237.09,-123"/>
<text text-anchor="middle" x="210.59" y="-112.6" font-family="Helvetica,sans-Serif" font-size="8.00">eiddfs.hpp</text>
</a>
</g>
</g>
<!-- Node1&#45;&gt;Node5 -->
<g id="edge6_Node000001_Node000005" class="edge">
<title>Node1&#45;&gt;Node5</title>
<g id="a_edge6_Node000001_Node000005"><a xlink:title=" ">
<path fill="none" stroke="#63b8ff" d="M264.53,-153.18C250.79,-143.58 232.75,-130.98 221.41,-123.06"/>
<polygon fill="#63b8ff" stroke="#63b8ff" points="262.62,-156.12 272.82,-158.97 266.63,-150.38 262.62,-156.12"/>
</a>
</g>
</g>
<!-- Node6 -->
<g id="Node000006" class="node">
<title>Node6</title>
<g id="a_Node000006"><a xlink:href="../../db/df9/idastar_8hpp.html" target="_top" xlink:title=" ">
<polygon fill="white" stroke="#666666" points="311.59,-123 255.59,-123 255.59,-106 311.59,-106 311.59,-123"/>
<text text-anchor="middle" x="283.59" y="-112.6" font-family="Helvetica,sans-Serif" font-size="8.00">idastar.hpp</text>
</a>
</g>
</g>
<!-- Node1&#45;&gt;Node6 -->
<g id="edge8_Node000001_Node000006" class="edge">
<title>Node1&#45;&gt;Node6</title>
<g id="a_edge8_Node000001_Node000006"><a xlink:title=" ">
<path fill="none" stroke="#63b8ff" d="M283.59,-148.91C283.59,-140.08 283.59,-129.85 283.59,-123.06"/>
<polygon fill="#63b8ff" stroke="#63b8ff" points="280.09,-148.97 283.59,-158.97 287.09,-148.97 280.09,-148.97"/>
</a>
</g>
</g>
<!-- Node7 -->
<g id="Node000007" class="node">
<title>Node7</title>
<g id="a_Node000007"><a xlink:href="../../d1/d3a/idbest__first_8hpp.html" target="_top" xlink:title=" ">
<polygon fill="white" stroke="#666666" points="401.09,-123 330.09,-123 330.09,-106 401.09,-106 401.09,-123"/>
<text text-anchor="middle" x="365.59" y="-112.6" font-family="Helvetica,sans-Serif" font-size="8.00">idbest_first.hpp</text>
</a>
</g>
</g>
<!-- Node1&#45;&gt;Node7 -->
<g id="edge10_Node000001_Node000007" class="edge">
<title>Node1&#45;&gt;Node7</title>
<g id="a_edge10_Node000001_Node000007"><a xlink:title=" ">
<path fill="none" stroke="#63b8ff" d="M304.57,-153.46C320.05,-143.83 340.58,-131.05 353.44,-123.06"/>
<polygon fill="#63b8ff" stroke="#63b8ff" points="302.33,-150.72 295.69,-158.97 306.03,-156.67 302.33,-150.72"/>
</a>
</g>
</g>
<!-- Node8 -->
<g id="Node000008" class="node">
<title>Node8</title>
<g id="a_Node000008"><a xlink:href="../../df/d71/iddfs_8hpp.html" target="_top" xlink:title=" ">
<polygon fill="white" stroke="#666666" points="468.09,-123 419.09,-123 419.09,-106 468.09,-106 468.09,-123"/>
<text text-anchor="middle" x="443.59" y="-112.6" font-family="Helvetica,sans-Serif" font-size="8.00">iddfs.hpp</text>
</a>
</g>
</g>
<!-- Node1&#45;&gt;Node8 -->
<g id="edge12_Node000001_Node000008" class="edge">
<title>Node1&#45;&gt;Node8</title>
<g id="a_edge12_Node000001_Node000008"><a xlink:title=" ">
<path fill="none" stroke="#63b8ff" d="M317.05,-155.84C347.82,-146.03 392.67,-131.73 419.89,-123.06"/>
<polygon fill="#63b8ff" stroke="#63b8ff" points="315.67,-152.6 307.2,-158.97 317.79,-159.27 315.67,-152.6"/>
</a>
</g>
</g>
<!-- Node9 -->
<g id="Node000009" class="node">
<title>Node9</title>
<g id="a_Node000009"><a xlink:href="../../da/deb/managed__node_8hpp.html" target="_top" xlink:title=" ">
<polygon fill="white" stroke="#666666" points="575.09,-123 486.09,-123 486.09,-106 575.09,-106 575.09,-123"/>
<text text-anchor="middle" x="530.59" y="-112.6" font-family="Helvetica,sans-Serif" font-size="8.00">managed_node.hpp</text>
</a>
</g>
</g>
<!-- Node1&#45;&gt;Node9 -->
<g id="edge14_Node000001_Node000009" class="edge">
<title>Node1&#45;&gt;Node9</title>
<g id="a_edge14_Node000001_Node000009"><a xlink:title=" ">
<path fill="none" stroke="#63b8ff" d="M321.51,-158.67C368.43,-148.98 447.77,-132.6 494.05,-123.05"/>
<polygon fill="#63b8ff" stroke="#63b8ff" points="320.53,-155.3 311.45,-160.75 321.95,-162.15 320.53,-155.3"/>
</a>
</g>
</g>
<!-- Node13 -->
<g id="Node000013" class="node">
<title>Node13</title>
<g id="a_Node000013"><a xlink:href="../../d0/def/unmanaged__node_8hpp.html" target="_top" xlink:title=" ">
<polygon fill="white" stroke="#666666" points="803.59,-123 705.59,-123 705.59,-106 803.59,-106 803.59,-123"/>
<text text-anchor="middle" x="754.59" y="-112.6" font-family="Helvetica,sans-Serif" font-size="8.00">unmanaged_node.hpp</text>
</a>
</g>
</g>
<!-- Node1&#45;&gt;Node13 -->
<g id="edge22_Node000001_Node000013" class="edge">
<title>Node1&#45;&gt;Node13</title>
<g id="a_edge22_Node000001_Node000013"><a xlink:title=" ">
<path fill="none" stroke="#63b8ff" d="M321.49,-162.4C406.21,-153.22 610.86,-131.06 705.32,-120.84"/>
<polygon fill="#63b8ff" stroke="#63b8ff" points="320.86,-158.94 311.3,-163.5 321.62,-165.9 320.86,-158.94"/>
</a>
</g>
</g>
<!-- Node3&#45;&gt;Node2 -->
<g id="edge3_Node000003_Node000002" class="edge">
<title>Node3&#45;&gt;Node2</title>
<g id="a_edge3_Node000003_Node000002"><a xlink:title=" ">
<path fill="none" stroke="#63b8ff" d="M75.55,-102.98C115.73,-90.32 185.78,-68.82 246.59,-53 307.56,-37.14 380.19,-21.79 416.88,-14.28"/>
<polygon fill="#63b8ff" stroke="#63b8ff" points="74.49,-99.64 66.01,-105.99 76.6,-106.32 74.49,-99.64"/>
</a>
</g>
</g>
<!-- Node4&#45;&gt;Node2 -->
<g id="edge5_Node000004_Node000002" class="edge">
<title>Node4&#45;&gt;Node2</title>
<g id="a_edge5_Node000004_Node000002"><a xlink:title=" ">
<path fill="none" stroke="#63b8ff" d="M157.99,-102.39C191.4,-89.88 247.65,-69.19 296.59,-53 338.74,-39.05 388.41,-24.45 417.03,-16.21"/>
<polygon fill="#63b8ff" stroke="#63b8ff" points="156.52,-99.2 148.39,-105.99 158.98,-105.75 156.52,-99.2"/>
</a>
</g>
</g>
<!-- Node5&#45;&gt;Node2 -->
<g id="edge7_Node000005_Node000002" class="edge">
<title>Node5&#45;&gt;Node2</title>
<g id="a_edge7_Node000005_Node000002"><a xlink:title=" ">
<path fill="none" stroke="#63b8ff" d="M234.35,-101.34C259.16,-88.78 299.28,-68.84 334.59,-53 364.36,-39.65 399.49,-25.55 420.89,-17.14"/>
<polygon fill="#63b8ff" stroke="#63b8ff" points="232.66,-98.27 225.33,-105.92 235.83,-104.51 232.66,-98.27"/>
</a>
</g>
</g>
<!-- Node6&#45;&gt;Node2 -->
<g id="edge9_Node000006_Node000002" class="edge">
<title>Node6&#45;&gt;Node2</title>
<g id="a_edge9_Node000006_Node000002"><a xlink:title=" ">
<path fill="none" stroke="#63b8ff" d="M299.9,-99.1C314.86,-86.23 337.93,-67.27 359.59,-53 381.19,-38.77 407.89,-25.13 424.58,-17.03"/>
<polygon fill="#63b8ff" stroke="#63b8ff" points="297.34,-96.68 292.1,-105.89 301.94,-101.96 297.34,-96.68"/>
</a>
</g>
</g>
<!-- Node7&#45;&gt;Node2 -->
<g id="edge11_Node000007_Node000002" class="edge">
<title>Node7&#45;&gt;Node2</title>
<g id="a_edge11_Node000007_Node000002"><a xlink:title=" ">
<path fill="none" stroke="#63b8ff" d="M362.26,-95.52C360.85,-82.76 361,-65.72 368.59,-53 379.23,-35.2 400.22,-23.76 416.8,-17.1"/>
<polygon fill="#63b8ff" stroke="#63b8ff" points="358.85,-96.42 363.82,-105.78 365.77,-95.36 358.85,-96.42"/>
</a>
</g>
</g>
<!-- Node8&#45;&gt;Node2 -->
<g id="edge13_Node000008_Node000002" class="edge">
<title>Node8&#45;&gt;Node2</title>
<g id="a_edge13_Node000008_Node000002"><a xlink:title=" ">
<path fill="none" stroke="#63b8ff" d="M411.44,-101.64C397.49,-94.7 382.54,-84.41 374.59,-70 361.6,-46.45 396.31,-27.1 420.18,-17.03"/>
<polygon fill="#63b8ff" stroke="#63b8ff" points="410.3,-104.96 420.85,-105.92 413.2,-98.59 410.3,-104.96"/>
</a>
</g>
</g>
<!-- Node9&#45;&gt;Node2 -->
<g id="edge15_Node000009_Node000002" class="edge">
<title>Node9&#45;&gt;Node2</title>
<g id="a_edge15_Node000009_Node000002"><a xlink:title=" ">
<path fill="none" stroke="#63b8ff" d="M486.21,-103.52C454.95,-95.48 417.03,-83.35 407.59,-70 395.02,-52.22 417,-29.14 430.76,-17.29"/>
<polygon fill="#63b8ff" stroke="#63b8ff" points="485.54,-106.95 496.09,-105.98 487.23,-100.16 485.54,-106.95"/>
</a>
</g>
</g>
<!-- Node10 -->
<g id="Node000010" class="node">
<title>Node10</title>
<g id="a_Node000010"><a xlink:href="../../de/d94/gbfs_8hpp.html" target="_top" xlink:title=" ">
<polygon fill="white" stroke="#666666" points="464.09,-70 417.09,-70 417.09,-53 464.09,-53 464.09,-70"/>
<text text-anchor="middle" x="440.59" y="-59.6" font-family="Helvetica,sans-Serif" font-size="8.00">gbfs.hpp</text>
</a>
</g>
</g>
<!-- Node9&#45;&gt;Node10 -->
<g id="edge16_Node000009_Node000010" class="edge">
<title>Node9&#45;&gt;Node10</title>
<g id="a_edge16_Node000009_Node000010"><a xlink:title=" ">
<path fill="none" stroke="#63b8ff" d="M508.53,-101C491.43,-91.31 468.31,-78.2 453.93,-70.06"/>
<polygon fill="#63b8ff" stroke="#63b8ff" points="506.89,-104.09 517.31,-105.97 510.34,-98 506.89,-104.09"/>
</a>
</g>
</g>
<!-- Node11 -->
<g id="Node000011" class="node">
<title>Node11</title>
<g id="a_Node000011"><a xlink:href="../../d4/df2/gdfs_8hpp.html" target="_top" xlink:title=" ">
<polygon fill="white" stroke="#666666" points="529.09,-70 482.09,-70 482.09,-53 529.09,-53 529.09,-70"/>
<text text-anchor="middle" x="505.59" y="-59.6" font-family="Helvetica,sans-Serif" font-size="8.00">gdfs.hpp</text>
</a>
</g>
</g>
<!-- Node9&#45;&gt;Node11 -->
<g id="edge18_Node000009_Node000011" class="edge">
<title>Node9&#45;&gt;Node11</title>
<g id="a_edge18_Node000009_Node000011"><a xlink:title=" ">
<path fill="none" stroke="#63b8ff" d="M522.4,-96.79C517.98,-87.76 512.74,-77.07 509.3,-70.06"/>
<polygon fill="#63b8ff" stroke="#63b8ff" points="519.36,-98.54 526.9,-105.97 525.64,-95.45 519.36,-98.54"/>
</a>
</g>
</g>
<!-- Node12 -->
<g id="Node000012" class="node">
<title>Node12</title>
<g id="a_Node000012"><a xlink:href="../../d1/def/gstar_8hpp.html" target="_top" xlink:title=" ">
<polygon fill="white" stroke="#666666" points="597.59,-70 547.59,-70 547.59,-53 597.59,-53 597.59,-70"/>
<text text-anchor="middle" x="572.59" y="-59.6" font-family="Helvetica,sans-Serif" font-size="8.00">gstar.hpp</text>
</a>
</g>
</g>
<!-- Node9&#45;&gt;Node12 -->
<g id="edge20_Node000009_Node000012" class="edge">
<title>Node9&#45;&gt;Node12</title>
<g id="a_edge20_Node000009_Node000012"><a xlink:title=" ">
<path fill="none" stroke="#63b8ff" d="M543.17,-98.22C550.83,-88.92 560.28,-77.45 566.37,-70.06"/>
<polygon fill="#63b8ff" stroke="#63b8ff" points="540.45,-96.03 536.79,-105.97 545.85,-100.48 540.45,-96.03"/>
</a>
</g>
</g>
<!-- Node10&#45;&gt;Node2 -->
<g id="edge17_Node000010_Node000002" class="edge">
<title>Node10&#45;&gt;Node2</title>
<g id="a_edge17_Node000010_Node000002"><a xlink:title=" ">
<path fill="none" stroke="#63b8ff" d="M440.59,-42.91C440.59,-34.08 440.59,-23.85 440.59,-17.06"/>
<polygon fill="#63b8ff" stroke="#63b8ff" points="437.09,-42.97 440.59,-52.97 444.09,-42.97 437.09,-42.97"/>
</a>
</g>
</g>
<!-- Node11&#45;&gt;Node2 -->
<g id="edge19_Node000011_Node000002" class="edge">
<title>Node11&#45;&gt;Node2</title>
<g id="a_edge19_Node000011_Node000002"><a xlink:title=" ">
<path fill="none" stroke="#63b8ff" d="M487.92,-46.63C475.78,-37.11 460.13,-24.83 450.22,-17.06"/>
<polygon fill="#63b8ff" stroke="#63b8ff" points="485.97,-49.56 496,-52.97 490.29,-44.05 485.97,-49.56"/>
</a>
</g>
</g>
<!-- Node12&#45;&gt;Node2 -->
<g id="edge21_Node000012_Node000002" class="edge">
<title>Node12&#45;&gt;Node2</title>
<g id="a_edge21_Node000012_Node000002"><a xlink:title=" ">
<path fill="none" stroke="#63b8ff" d="M543.66,-49.32C518.32,-39.53 482.22,-25.58 460.15,-17.06"/>
<polygon fill="#63b8ff" stroke="#63b8ff" points="542.53,-52.64 553.12,-52.97 545.05,-46.11 542.53,-52.64"/>
</a>
</g>
</g>
<!-- Node13&#45;&gt;Node2 -->
<g id="edge29_Node000013_Node000002" class="edge">
<title>Node13&#45;&gt;Node2</title>
<g id="a_edge29_Node000013_Node000002"><a xlink:title=" ">
<path fill="none" stroke="#63b8ff" d="M725.08,-102.23C702.85,-93.65 671.67,-81.41 644.59,-70 627.54,-62.82 624.04,-59.14 606.59,-53 556.99,-35.54 496.88,-21.48 464.33,-14.43"/>
<polygon fill="#63b8ff" stroke="#63b8ff" points="724.02,-105.58 734.61,-105.9 726.54,-99.05 724.02,-105.58"/>
</a>
</g>
</g>
<!-- Node14 -->
<g id="Node000014" class="node">
<title>Node14</title>
<g id="a_Node000014"><a xlink:href="../../dc/da9/astar_8hpp.html" target="_top" xlink:title=" ">
<polygon fill="white" stroke="#666666" points="703.59,-70 653.59,-70 653.59,-53 703.59,-53 703.59,-70"/>
<text text-anchor="middle" x="678.59" y="-59.6" font-family="Helvetica,sans-Serif" font-size="8.00">astar.hpp</text>
</a>
</g>
</g>
<!-- Node13&#45;&gt;Node14 -->
<g id="edge23_Node000013_Node000014" class="edge">
<title>Node13&#45;&gt;Node14</title>
<g id="a_edge23_Node000013_Node000014"><a xlink:title=" ">
<path fill="none" stroke="#63b8ff" d="M734.75,-100.18C720.44,-90.58 701.66,-77.98 689.85,-70.06"/>
<polygon fill="#63b8ff" stroke="#63b8ff" points="733.12,-103.31 743.38,-105.97 737.03,-97.5 733.12,-103.31"/>
</a>
</g>
</g>
<!-- Node15 -->
<g id="Node000015" class="node">
<title>Node15</title>
<g id="a_Node000015"><a xlink:href="../../d3/d77/best__first_8hpp.html" target="_top" xlink:title=" ">
<polygon fill="white" stroke="#666666" points="787.09,-70 722.09,-70 722.09,-53 787.09,-53 787.09,-70"/>
<text text-anchor="middle" x="754.59" y="-59.6" font-family="Helvetica,sans-Serif" font-size="8.00">best_first.hpp</text>
</a>
</g>
</g>
<!-- Node13&#45;&gt;Node15 -->
<g id="edge25_Node000013_Node000015" class="edge">
<title>Node13&#45;&gt;Node15</title>
<g id="a_edge25_Node000013_Node000015"><a xlink:title=" ">
<path fill="none" stroke="#63b8ff" d="M754.59,-95.91C754.59,-87.08 754.59,-76.85 754.59,-70.06"/>
<polygon fill="#63b8ff" stroke="#63b8ff" points="751.09,-95.97 754.59,-105.97 758.09,-95.97 751.09,-95.97"/>
</a>
</g>
</g>
<!-- Node16 -->
<g id="Node000016" class="node">
<title>Node16</title>
<g id="a_Node000016"><a xlink:href="../../da/d36/bfs_8hpp.html" target="_top" xlink:title=" ">
<polygon fill="white" stroke="#666666" points="848.09,-70 805.09,-70 805.09,-53 848.09,-53 848.09,-70"/>
<text text-anchor="middle" x="826.59" y="-59.6" font-family="Helvetica,sans-Serif" font-size="8.00">bfs.hpp</text>
</a>
</g>
</g>
<!-- Node13&#45;&gt;Node16 -->
<g id="edge27_Node000013_Node000016" class="edge">
<title>Node13&#45;&gt;Node16</title>
<g id="a_edge27_Node000013_Node000016"><a xlink:title=" ">
<path fill="none" stroke="#63b8ff" d="M773.39,-100.18C786.94,-90.58 804.74,-77.98 815.93,-70.06"/>
<polygon fill="#63b8ff" stroke="#63b8ff" points="771.35,-97.34 765.22,-105.97 775.4,-103.05 771.35,-97.34"/>
</a>
</g>
</g>
<!-- Node17 -->
<g id="Node000017" class="node">
<title>Node17</title>
<g id="a_Node000017"><a xlink:href="../../d3/dec/dfs_8hpp.html" target="_top" xlink:title=" ">
<polygon fill="white" stroke="#666666" points="909.09,-70 866.09,-70 866.09,-53 909.09,-53 909.09,-70"/>
<text text-anchor="middle" x="887.59" y="-59.6" font-family="Helvetica,sans-Serif" font-size="8.00">dfs.hpp</text>
</a>
</g>
</g>
<!-- Node13&#45;&gt;Node17 -->
<g id="edge30_Node000013_Node000017" class="edge">
<title>Node13&#45;&gt;Node17</title>
<g id="a_edge30_Node000013_Node000017"><a xlink:title=" ">
<path fill="none" stroke="#63b8ff" d="M783.75,-102.32C809.27,-92.53 845.65,-78.58 867.89,-70.06"/>
<polygon fill="#63b8ff" stroke="#63b8ff" points="782.3,-99.13 774.22,-105.97 784.81,-105.66 782.3,-99.13"/>
</a>
</g>
</g>
<!-- Node18 -->
<g id="Node000018" class="node">
<title>Node18</title>
<g id="a_Node000018"><a xlink:href="../../d1/d5a/fstar_8hpp.html" target="_top" xlink:title=" ">
<polygon fill="white" stroke="#666666" points="974.09,-70 927.09,-70 927.09,-53 974.09,-53 974.09,-70"/>
<text text-anchor="middle" x="950.59" y="-59.6" font-family="Helvetica,sans-Serif" font-size="8.00">fstar.hpp</text>
</a>
</g>
</g>
<!-- Node13&#45;&gt;Node18 -->
<g id="edge32_Node000013_Node000018" class="edge">
<title>Node13&#45;&gt;Node18</title>
<g id="a_edge32_Node000013_Node000018"><a xlink:title=" ">
<path fill="none" stroke="#63b8ff" d="M793.41,-103.4C833.27,-93.03 894,-77.23 927.09,-68.62"/>
<polygon fill="#63b8ff" stroke="#63b8ff" points="792.31,-100.07 783.51,-105.97 794.07,-106.84 792.31,-100.07"/>
</a>
</g>
</g>
<!-- Node14&#45;&gt;Node2 -->
<g id="edge24_Node000014_Node000002" class="edge">
<title>Node14&#45;&gt;Node2</title>
<g id="a_edge24_Node000014_Node000002"><a xlink:title=" ">
<path fill="none" stroke="#63b8ff" d="M643.72,-53.03C594.6,-42.5 506.34,-23.59 464.22,-14.56"/>
<polygon fill="#63b8ff" stroke="#63b8ff" points="643.06,-56.47 653.57,-55.14 644.53,-49.62 643.06,-56.47"/>
</a>
</g>
</g>
<!-- Node15&#45;&gt;Node2 -->
<g id="edge26_Node000015_Node000002" class="edge">
<title>Node15&#45;&gt;Node2</title>
<g id="a_edge26_Node000015_Node000002"><a xlink:title=" ">
<path fill="none" stroke="#63b8ff" d="M711.94,-52.92C613.69,-36.36 509.95,-20.19 464.27,-13.14"/>
<polygon fill="#63b8ff" stroke="#63b8ff" points="711.6,-56.41 722.04,-54.63 712.77,-49.51 711.6,-56.41"/>
</a>
</g>
</g>
<!-- Node16&#45;&gt;Node2 -->
<g id="edge28_Node000016_Node000002" class="edge">
<title>Node16&#45;&gt;Node2</title>
<g id="a_edge28_Node000016_Node000002"><a xlink:title=" ">
<path fill="none" stroke="#63b8ff" d="M794.81,-53.1C664.31,-29.82 520.3,-16.27 464.42,-11.46"/>
<polygon fill="#63b8ff" stroke="#63b8ff" points="794.52,-56.6 804.98,-54.93 795.76,-49.71 794.52,-56.6"/>
</a>
</g>
</g>
<!-- Node17&#45;&gt;Node2 -->
<g id="edge31_Node000017_Node000002" class="edge">
<title>Node17&#45;&gt;Node2</title>
<g id="a_edge31_Node000017_Node000002"><a xlink:title=" ">
<path fill="none" stroke="#63b8ff" d="M855.81,-53.14C700.76,-26.91 526.53,-14.7 464.2,-10.86"/>
<polygon fill="#63b8ff" stroke="#63b8ff" points="855.54,-56.64 865.99,-54.88 856.72,-49.74 855.54,-56.64"/>
</a>
</g>
</g>
<!-- Node18&#45;&gt;Node2 -->
<g id="edge33_Node000018_Node000002" class="edge">
<title>Node18&#45;&gt;Node2</title>
<g id="a_edge33_Node000018_Node000002"><a xlink:title=" ">
<path fill="none" stroke="#63b8ff" d="M916.99,-53.16C737.56,-25.24 533.36,-13.84 464.55,-10.56"/>
<polygon fill="#63b8ff" stroke="#63b8ff" points="916.45,-56.61 926.87,-54.71 917.54,-49.7 916.45,-56.61"/>
</a>
</g>
</g>
</g>
</svg>
