<?xml version="1.0" encoding="UTF-8" standalone="no"?>
<!DOCTYPE svg PUBLIC "-//W3C//DTD SVG 1.1//EN"
 "http://www.w3.org/Graphics/SVG/1.1/DTD/svg11.dtd">
<!-- Generated by graphviz version 2.43.0 (0)
 -->
<!-- Title: existence_set.hpp Pages: 1 -->
<svg width="550pt" height="184pt"
 viewBox="0.00 0.00 550.49 184.00" xmlns="http://www.w3.org/2000/svg" xmlns:xlink="http://www.w3.org/1999/xlink">
<g id="graph0" class="graph" transform="scale(1 1) rotate(0) translate(4 180)">
<title>existence_set.hpp</title>
<!-- Node1 -->
<g id="Node000001" class="node">
<title>Node1</title>
<g id="a_Node000001"><a xlink:title=" ">
<polygon fill="#999999" stroke="#666666" points="311.99,-176 221.99,-176 221.99,-159 311.99,-159 311.99,-176"/>
<text text-anchor="middle" x="266.99" y="-165.6" font-family="Helvetica,sans-Serif" font-size="8.00">existence_set.hpp</text>
</a>
</g>
</g>
<!-- Node2 -->
<g id="Node000002" class="node">
<title>Node2</title>
<g id="a_Node000002"><a xlink:title=" ">
<polygon fill="#e0e0e0" stroke="#999999" points="361.49,-17 314.49,-17 314.49,0 361.49,0 361.49,-17"/>
<text text-anchor="middle" x="337.99" y="-6.6" font-family="Helvetica,sans-Serif" font-size="8.00">cstddef</text>
</a>
</g>
</g>
<!-- Node1&#45;&gt;Node2 -->
<g id="edge1_Node000001_Node000002" class="edge">
<title>Node1&#45;&gt;Node2</title>
<g id="a_edge1_Node000001_Node000002"><a xlink:title=" ">
<path fill="none" stroke="#63b8ff" d="M221.74,-162.49C133.12,-153 -49.43,-124.33 12.99,-53 50.51,-10.13 228.03,-7.7 303.7,-8.69"/>
<polygon fill="#63b8ff" stroke="#63b8ff" points="304.04,-12.19 314.09,-8.85 304.15,-5.19 304.04,-12.19"/>
</a>
</g>
</g>
<!-- Node3 -->
<g id="Node000003" class="node">
<title>Node3</title>
<g id="a_Node000003"><a xlink:title=" ">
<polygon fill="#e0e0e0" stroke="#999999" points="79.99,-70 21.99,-70 21.99,-53 79.99,-53 79.99,-70"/>
<text text-anchor="middle" x="50.99" y="-59.6" font-family="Helvetica,sans-Serif" font-size="8.00">functional</text>
</a>
</g>
</g>
<!-- Node1&#45;&gt;Node3 -->
<g id="edge2_Node000001_Node000003" class="edge">
<title>Node1&#45;&gt;Node3</title>
<g id="a_edge2_Node000001_Node000003"><a xlink:title=" ">
<path fill="none" stroke="#63b8ff" d="M244.02,-158.9C220.85,-150.95 184.29,-137.61 153.99,-123 124.02,-108.55 91.16,-88.45 70.81,-75.46"/>
<polygon fill="#63b8ff" stroke="#63b8ff" points="72.69,-72.51 62.39,-70.03 68.9,-78.39 72.69,-72.51"/>
</a>
</g>
</g>
<!-- Node4 -->
<g id="Node000004" class="node">
<title>Node4</title>
<g id="a_Node000004"><a xlink:title=" ">
<polygon fill="#e0e0e0" stroke="#999999" points="135.99,-70 97.99,-70 97.99,-53 135.99,-53 135.99,-70"/>
<text text-anchor="middle" x="116.99" y="-59.6" font-family="Helvetica,sans-Serif" font-size="8.00">limits</text>
</a>
</g>
</g>
<!-- Node1&#45;&gt;Node4 -->
<g id="edge3_Node000001_Node000004" class="edge">
<title>Node1&#45;&gt;Node4</title>
<g id="a_edge3_Node000001_Node000004"><a xlink:title=" ">
<path fill="none" stroke="#63b8ff" d="M247.49,-158.95C228.98,-151.32 200.83,-138.46 178.99,-123 160.47,-109.88 142.23,-91.2 130.39,-78.08"/>
<polygon fill="#63b8ff" stroke="#63b8ff" points="132.83,-75.55 123.59,-70.37 127.58,-80.18 132.83,-75.55"/>
</a>
</g>
</g>
<!-- Node5 -->
<g id="Node000005" class="node">
<title>Node5</title>
<g id="a_Node000005"><a xlink:title=" ">
<polygon fill="#e0e0e0" stroke="#999999" points="458.49,-123 369.49,-123 369.49,-106 458.49,-106 458.49,-123"/>
<text text-anchor="middle" x="413.99" y="-112.6" font-family="Helvetica,sans-Serif" font-size="8.00">memory_resource</text>
</a>
</g>
</g>
<!-- Node1&#45;&gt;Node5 -->
<g id="edge4_Node000001_Node000005" class="edge">
<title>Node1&#45;&gt;Node5</title>
<g id="a_edge4_Node000001_Node000005"><a xlink:title=" ">
<path fill="none" stroke="#63b8ff" d="M288.68,-158.97C313.43,-150.39 354.14,-136.27 382.41,-126.46"/>
<polygon fill="#63b8ff" stroke="#63b8ff" points="383.91,-129.64 392.21,-123.06 381.62,-123.03 383.91,-129.64"/>
</a>
</g>
</g>
<!-- Node6 -->
<g id="Node000006" class="node">
<title>Node6</title>
<g id="a_Node000006"><a xlink:title=" ">
<polygon fill="#e0e0e0" stroke="#999999" points="542.49,-70 483.49,-70 483.49,-53 542.49,-53 542.49,-70"/>
<text text-anchor="middle" x="512.99" y="-59.6" font-family="Helvetica,sans-Serif" font-size="8.00">type_traits</text>
</a>
</g>
</g>
<!-- Node1&#45;&gt;Node6 -->
<g id="edge5_Node000001_Node000006" class="edge">
<title>Node1&#45;&gt;Node6</title>
<g id="a_edge5_Node000001_Node000006"><a xlink:title=" ">
<path fill="none" stroke="#63b8ff" d="M276.59,-158.95C293.01,-146.35 327.93,-120.97 360.99,-106 397.49,-89.47 441.8,-77.64 473.13,-70.53"/>
<polygon fill="#63b8ff" stroke="#63b8ff" points="474.22,-73.88 483.23,-68.3 472.71,-67.04 474.22,-73.88"/>
</a>
</g>
</g>
<!-- Node7 -->
<g id="Node000007" class="node">
<title>Node7</title>
<g id="a_Node000007"><a xlink:title=" ">
<polygon fill="#e0e0e0" stroke="#999999" points="517.99,-123 475.99,-123 475.99,-106 517.99,-106 517.99,-123"/>
<text text-anchor="middle" x="496.99" y="-112.6" font-family="Helvetica,sans-Serif" font-size="8.00">vector</text>
</a>
</g>
</g>
<!-- Node1&#45;&gt;Node7 -->
<g id="edge6_Node000001_Node000007" class="edge">
<title>Node1&#45;&gt;Node7</title>
<g id="a_edge6_Node000001_Node000007"><a xlink:title=" ">
<path fill="none" stroke="#63b8ff" d="M304.14,-158.92C342.5,-151 404.34,-137.94 465.92,-123.43"/>
<polygon fill="#63b8ff" stroke="#63b8ff" points="466.87,-126.8 475.79,-121.09 465.25,-119.99 466.87,-126.8"/>
</a>
</g>
</g>
<!-- Node8 -->
<g id="Node000008" class="node">
<title>Node8</title>
<g id="a_Node000008"><a xlink:href="../../df/d93/utils_8hpp.html" target="_top" xlink:title=" ">
<polygon fill="white" stroke="#666666" points="274.49,-123 187.49,-123 187.49,-106 274.49,-106 274.49,-123"/>
<text text-anchor="middle" x="230.99" y="-112.6" font-family="Helvetica,sans-Serif" font-size="8.00">../../utils/utils.hpp</text>
</a>
</g>
</g>
<!-- Node1&#45;&gt;Node8 -->
<g id="edge7_Node000001_Node000008" class="edge">
<title>Node1&#45;&gt;Node8</title>
<g id="a_edge7_Node000001_Node000008"><a xlink:title=" ">
<path fill="none" stroke="#63b8ff" d="M261.68,-158.97C256.57,-151.74 248.7,-140.59 242.21,-131.39"/>
<polygon fill="#63b8ff" stroke="#63b8ff" points="244.95,-129.21 236.32,-123.06 239.23,-133.24 244.95,-129.21"/>
</a>
</g>
</g>
<!-- Node12 -->
<g id="Node000012" class="node">
<title>Node12</title>
<g id="a_Node000012"><a xlink:href="../../d7/d65/intrinsics_8hpp.html" target="_top" xlink:title=" ">
<polygon fill="white" stroke="#666666" points="465.49,-70 366.49,-70 366.49,-53 465.49,-53 465.49,-70"/>
<text text-anchor="middle" x="415.99" y="-59.6" font-family="Helvetica,sans-Serif" font-size="8.00">../utils/intrinsics.hpp</text>
</a>
</g>
</g>
<!-- Node1&#45;&gt;Node12 -->
<g id="edge19_Node000001_Node000012" class="edge">
<title>Node1&#45;&gt;Node12</title>
<g id="a_edge19_Node000001_Node000012"><a xlink:title=" ">
<path fill="none" stroke="#63b8ff" d="M272.98,-159C283.09,-146.71 304.63,-122.03 326.99,-106 345.39,-92.81 368.39,-81.68 386.41,-73.99"/>
<polygon fill="#63b8ff" stroke="#63b8ff" points="387.95,-77.14 395.84,-70.07 385.26,-70.67 387.95,-77.14"/>
</a>
</g>
</g>
<!-- Node8&#45;&gt;Node2 -->
<g id="edge10_Node000008_Node000002" class="edge">
<title>Node8&#45;&gt;Node2</title>
<g id="a_edge10_Node000008_Node000002"><a xlink:title=" ">
<path fill="none" stroke="#63b8ff" d="M259.26,-105.96C278.61,-99.44 303.48,-88.13 318.99,-70 329.29,-57.97 334.01,-40.35 336.18,-27.23"/>
<polygon fill="#63b8ff" stroke="#63b8ff" points="339.67,-27.48 337.49,-17.11 332.73,-26.57 339.67,-27.48"/>
</a>
</g>
</g>
<!-- Node8&#45;&gt;Node3 -->
<g id="edge11_Node000008_Node000003" class="edge">
<title>Node8&#45;&gt;Node3</title>
<g id="a_edge11_Node000008_Node000003"><a xlink:title=" ">
<path fill="none" stroke="#63b8ff" d="M204.43,-105.97C173.46,-97.2 122.09,-82.64 87.41,-72.82"/>
<polygon fill="#63b8ff" stroke="#63b8ff" points="88.24,-69.41 77.66,-70.06 86.33,-76.15 88.24,-69.41"/>
</a>
</g>
</g>
<!-- Node8&#45;&gt;Node4 -->
<g id="edge12_Node000008_Node000004" class="edge">
<title>Node8&#45;&gt;Node4</title>
<g id="a_edge12_Node000008_Node000004"><a xlink:title=" ">
<path fill="none" stroke="#63b8ff" d="M214.17,-105.97C195.48,-97.61 165.06,-84 143.23,-74.24"/>
<polygon fill="#63b8ff" stroke="#63b8ff" points="144.44,-70.94 133.88,-70.06 141.58,-77.33 144.44,-70.94"/>
</a>
</g>
</g>
<!-- Node8&#45;&gt;Node6 -->
<g id="edge14_Node000008_Node000006" class="edge">
<title>Node8&#45;&gt;Node6</title>
<g id="a_edge14_Node000008_Node000006"><a xlink:title=" ">
<path fill="none" stroke="#63b8ff" d="M274.67,-105.96C321.43,-97.84 398.06,-84.37 473.04,-70.34"/>
<polygon fill="#63b8ff" stroke="#63b8ff" points="473.95,-73.73 483.13,-68.45 472.66,-66.85 473.95,-73.73"/>
</a>
</g>
</g>
<!-- Node9 -->
<g id="Node000009" class="node">
<title>Node9</title>
<g id="a_Node000009"><a xlink:title=" ">
<polygon fill="#e0e0e0" stroke="#999999" points="191.99,-70 153.99,-70 153.99,-53 191.99,-53 191.99,-70"/>
<text text-anchor="middle" x="172.99" y="-59.6" font-family="Helvetica,sans-Serif" font-size="8.00">array</text>
</a>
</g>
</g>
<!-- Node8&#45;&gt;Node9 -->
<g id="edge8_Node000008_Node000009" class="edge">
<title>Node8&#45;&gt;Node9</title>
<g id="a_edge8_Node000008_Node000009"><a xlink:title=" ">
<path fill="none" stroke="#63b8ff" d="M222.43,-105.97C213.69,-98.29 199.92,-86.18 189.12,-76.69"/>
<polygon fill="#63b8ff" stroke="#63b8ff" points="191.41,-74.03 181.58,-70.06 186.78,-79.29 191.41,-74.03"/>
</a>
</g>
</g>
<!-- Node10 -->
<g id="Node000010" class="node">
<title>Node10</title>
<g id="a_Node000010"><a xlink:title=" ">
<polygon fill="#e0e0e0" stroke="#999999" points="251.99,-70 209.99,-70 209.99,-53 251.99,-53 251.99,-70"/>
<text text-anchor="middle" x="230.99" y="-59.6" font-family="Helvetica,sans-Serif" font-size="8.00">cmath</text>
</a>
</g>
</g>
<!-- Node8&#45;&gt;Node10 -->
<g id="edge9_Node000008_Node000010" class="edge">
<title>Node8&#45;&gt;Node10</title>
<g id="a_edge9_Node000008_Node000010"><a xlink:title=" ">
<path fill="none" stroke="#63b8ff" d="M230.99,-105.97C230.99,-99.19 230.99,-88.97 230.99,-80.13"/>
<polygon fill="#63b8ff" stroke="#63b8ff" points="234.49,-80.06 230.99,-70.06 227.49,-80.06 234.49,-80.06"/>
</a>
</g>
</g>
<!-- Node11 -->
<g id="Node000011" class="node">
<title>Node11</title>
<g id="a_Node000011"><a xlink:title=" ">
<polygon fill="#e0e0e0" stroke="#999999" points="309.99,-70 269.99,-70 269.99,-53 309.99,-53 309.99,-70"/>
<text text-anchor="middle" x="289.99" y="-59.6" font-family="Helvetica,sans-Serif" font-size="8.00">string</text>
</a>
</g>
</g>
<!-- Node8&#45;&gt;Node11 -->
<g id="edge13_Node000008_Node000011" class="edge">
<title>Node8&#45;&gt;Node11</title>
<g id="a_edge13_Node000008_Node000011"><a xlink:title=" ">
<path fill="none" stroke="#63b8ff" d="M239.7,-105.97C248.59,-98.29 262.6,-86.18 273.58,-76.69"/>
<polygon fill="#63b8ff" stroke="#63b8ff" points="275.97,-79.24 281.25,-70.06 271.4,-73.95 275.97,-79.24"/>
</a>
</g>
</g>
<!-- Node8&#45;&gt;Node12 -->
<g id="edge15_Node000008_Node000012" class="edge">
<title>Node8&#45;&gt;Node12</title>
<g id="a_edge15_Node000008_Node000012"><a xlink:title=" ">
<path fill="none" stroke="#63b8ff" d="M258.29,-105.97C290.12,-97.2 342.92,-82.64 378.56,-72.82"/>
<polygon fill="#63b8ff" stroke="#63b8ff" points="379.87,-76.09 388.58,-70.06 378.01,-69.34 379.87,-76.09"/>
</a>
</g>
</g>
<!-- Node12&#45;&gt;Node2 -->
<g id="edge17_Node000012_Node000002" class="edge">
<title>Node12&#45;&gt;Node2</title>
<g id="a_edge17_Node000012_Node000002"><a xlink:title=" ">
<path fill="none" stroke="#63b8ff" d="M404.48,-52.97C392.27,-44.99 372.74,-32.22 358,-22.58"/>
<polygon fill="#63b8ff" stroke="#63b8ff" points="359.83,-19.6 349.55,-17.06 356,-25.46 359.83,-19.6"/>
</a>
</g>
</g>
<!-- Node13 -->
<g id="Node000013" class="node">
<title>Node13</title>
<g id="a_Node000013"><a xlink:title=" ">
<polygon fill="#e0e0e0" stroke="#999999" points="492.99,-17 448.99,-17 448.99,0 492.99,0 492.99,-17"/>
<text text-anchor="middle" x="470.99" y="-6.6" font-family="Helvetica,sans-Serif" font-size="8.00">atomic</text>
</a>
</g>
</g>
<!-- Node12&#45;&gt;Node13 -->
<g id="edge16_Node000012_Node000013" class="edge">
<title>Node12&#45;&gt;Node13</title>
<g id="a_edge16_Node000012_Node000013"><a xlink:title=" ">
<path fill="none" stroke="#63b8ff" d="M424.11,-52.97C432.31,-45.37 445.2,-33.41 455.39,-23.97"/>
<polygon fill="#63b8ff" stroke="#63b8ff" points="457.89,-26.42 462.84,-17.06 453.13,-21.29 457.89,-26.42"/>
</a>
</g>
</g>
<!-- Node14 -->
<g id="Node000014" class="node">
<title>Node14</title>
<g id="a_Node000014"><a xlink:title=" ">
<polygon fill="#e0e0e0" stroke="#999999" points="430.99,-17 386.99,-17 386.99,0 430.99,0 430.99,-17"/>
<text text-anchor="middle" x="408.99" y="-6.6" font-family="Helvetica,sans-Serif" font-size="8.00">cstdlib</text>
</a>
</g>
</g>
<!-- Node12&#45;&gt;Node14 -->
<g id="edge18_Node000012_Node000014" class="edge">
<title>Node12&#45;&gt;Node14</title>
<g id="a_edge18_Node000012_Node000014"><a xlink:title=" ">
<path fill="none" stroke="#63b8ff" d="M414.96,-52.97C414.03,-46.19 412.62,-35.97 411.41,-27.13"/>
<polygon fill="#63b8ff" stroke="#63b8ff" points="414.86,-26.49 410.03,-17.06 407.92,-27.44 414.86,-26.49"/>
</a>
</g>
</g>
</g>
</svg>
