<?xml version="1.0" encoding="UTF-8" standalone="no"?>
<!DOCTYPE svg PUBLIC "-//W3C//DTD SVG 1.1//EN"
 "http://www.w3.org/Graphics/SVG/1.1/DTD/svg11.dtd">
<!-- Generated by graphviz version 2.43.0 (0)
 -->
<!-- Title: existence_set.hpp Pages: 1 -->
<svg width="571pt" height="184pt"
 viewBox="0.00 0.00 571.36 184.00" xmlns="http://www.w3.org/2000/svg" xmlns:xlink="http://www.w3.org/1999/xlink">
<g id="graph0" class="graph" transform="scale(1 1) rotate(0) translate(4 180)">
<title>existence_set.hpp</title>
<!-- Node1 -->
<g id="Node000001" class="node">
<title>Node1</title>
<g id="a_Node000001"><a xlink:title=" ">
<polygon fill="#999999" stroke="#666666" points="321.36,-176 241.36,-176 241.36,-159 321.36,-159 321.36,-176"/>
<text text-anchor="middle" x="281.36" y="-165.6" font-family="Helvetica,sans-Serif" font-size="8.00">existence_set.hpp</text>
</a>
</g>
</g>
<!-- Node2 -->
<g id="Node000002" class="node">
<title>Node2</title>
<g id="a_Node000002"><a xlink:title=" ">
<polygon fill="#e0e0e0" stroke="#999999" points="337.36,-17 295.36,-17 295.36,0 337.36,0 337.36,-17"/>
<text text-anchor="middle" x="316.36" y="-6.6" font-family="Helvetica,sans-Serif" font-size="8.00">cstddef</text>
</a>
</g>
</g>
<!-- Node1&#45;&gt;Node2 -->
<g id="edge1_Node000001_Node000002" class="edge">
<title>Node1&#45;&gt;Node2</title>
<g id="a_edge1_Node000001_Node000002"><a xlink:title=" ">
<path fill="none" stroke="#63b8ff" d="M241.03,-163.72C151.01,-156.08 -53.32,-129.94 13.36,-53 48.29,-12.7 214.68,-8.85 284.94,-9.07"/>
<polygon fill="#63b8ff" stroke="#63b8ff" points="284.95,-12.57 294.97,-9.13 284.99,-5.57 284.95,-12.57"/>
</a>
</g>
</g>
<!-- Node3 -->
<g id="Node000003" class="node">
<title>Node3</title>
<g id="a_Node000003"><a xlink:title=" ">
<polygon fill="#e0e0e0" stroke="#999999" points="72.36,-70 22.36,-70 22.36,-53 72.36,-53 72.36,-70"/>
<text text-anchor="middle" x="47.36" y="-59.6" font-family="Helvetica,sans-Serif" font-size="8.00">functional</text>
</a>
</g>
</g>
<!-- Node1&#45;&gt;Node3 -->
<g id="edge2_Node000001_Node000003" class="edge">
<title>Node1&#45;&gt;Node3</title>
<g id="a_edge2_Node000001_Node000003"><a xlink:title=" ">
<path fill="none" stroke="#63b8ff" d="M250.07,-158.96C221.75,-151.58 179.26,-139.11 144.36,-123 115.56,-109.7 84.91,-89.42 65.95,-76.07"/>
<polygon fill="#63b8ff" stroke="#63b8ff" points="67.81,-73.09 57.64,-70.13 63.74,-78.79 67.81,-73.09"/>
</a>
</g>
</g>
<!-- Node4 -->
<g id="Node000004" class="node">
<title>Node4</title>
<g id="a_Node000004"><a xlink:title=" ">
<polygon fill="#e0e0e0" stroke="#999999" points="407.36,-123 347.36,-123 347.36,-106 407.36,-106 407.36,-123"/>
<text text-anchor="middle" x="377.36" y="-112.6" font-family="Helvetica,sans-Serif" font-size="8.00">initializer_list</text>
</a>
</g>
</g>
<!-- Node1&#45;&gt;Node4 -->
<g id="edge3_Node000001_Node000004" class="edge">
<title>Node1&#45;&gt;Node4</title>
<g id="a_edge3_Node000001_Node000004"><a xlink:title=" ">
<path fill="none" stroke="#63b8ff" d="M295.53,-158.97C310.99,-150.76 335.96,-137.49 354.27,-127.77"/>
<polygon fill="#63b8ff" stroke="#63b8ff" points="355.95,-130.84 363.14,-123.06 352.67,-124.66 355.95,-130.84"/>
</a>
</g>
</g>
<!-- Node5 -->
<g id="Node000005" class="node">
<title>Node5</title>
<g id="a_Node000005"><a xlink:title=" ">
<polygon fill="#e0e0e0" stroke="#999999" points="124.36,-70 90.36,-70 90.36,-53 124.36,-53 124.36,-70"/>
<text text-anchor="middle" x="107.36" y="-59.6" font-family="Helvetica,sans-Serif" font-size="8.00">limits</text>
</a>
</g>
</g>
<!-- Node1&#45;&gt;Node5 -->
<g id="edge4_Node000001_Node000005" class="edge">
<title>Node1&#45;&gt;Node5</title>
<g id="a_edge4_Node000001_Node000005"><a xlink:title=" ">
<path fill="none" stroke="#63b8ff" d="M252.72,-158.87C229.15,-151.8 195.5,-139.82 169.36,-123 150.07,-110.58 131.75,-91.48 120.1,-78.06"/>
<polygon fill="#63b8ff" stroke="#63b8ff" points="122.58,-75.59 113.46,-70.2 117.24,-80.1 122.58,-75.59"/>
</a>
</g>
</g>
<!-- Node6 -->
<g id="Node000006" class="node">
<title>Node6</title>
<g id="a_Node000006"><a xlink:title=" ">
<polygon fill="#e0e0e0" stroke="#999999" points="507.36,-123 425.36,-123 425.36,-106 507.36,-106 507.36,-123"/>
<text text-anchor="middle" x="466.36" y="-112.6" font-family="Helvetica,sans-Serif" font-size="8.00">memory_resource</text>
</a>
</g>
</g>
<!-- Node1&#45;&gt;Node6 -->
<g id="edge5_Node000001_Node000006" class="edge">
<title>Node1&#45;&gt;Node6</title>
<g id="a_edge5_Node000001_Node000006"><a xlink:title=" ">
<path fill="none" stroke="#63b8ff" d="M308.66,-158.97C340.5,-150.2 393.3,-135.64 428.94,-125.82"/>
<polygon fill="#63b8ff" stroke="#63b8ff" points="430.24,-129.09 438.95,-123.06 428.38,-122.34 430.24,-129.09"/>
</a>
</g>
</g>
<!-- Node7 -->
<g id="Node000007" class="node">
<title>Node7</title>
<g id="a_Node000007"><a xlink:title=" ">
<polygon fill="#e0e0e0" stroke="#999999" points="500.86,-70 447.86,-70 447.86,-53 500.86,-53 500.86,-70"/>
<text text-anchor="middle" x="474.36" y="-59.6" font-family="Helvetica,sans-Serif" font-size="8.00">type_traits</text>
</a>
</g>
</g>
<!-- Node1&#45;&gt;Node7 -->
<g id="edge6_Node000001_Node000007" class="edge">
<title>Node1&#45;&gt;Node7</title>
<g id="a_edge6_Node000001_Node000007"><a xlink:title=" ">
<path fill="none" stroke="#63b8ff" d="M286.73,-158.61C295.86,-145.76 315.66,-120.31 338.36,-106 355.07,-95.47 403.63,-81.21 437.94,-71.93"/>
<polygon fill="#63b8ff" stroke="#63b8ff" points="438.89,-75.3 447.65,-69.34 437.08,-68.54 438.89,-75.3"/>
</a>
</g>
</g>
<!-- Node8 -->
<g id="Node000008" class="node">
<title>Node8</title>
<g id="a_Node000008"><a xlink:title=" ">
<polygon fill="#e0e0e0" stroke="#999999" points="563.36,-123 525.36,-123 525.36,-106 563.36,-106 563.36,-123"/>
<text text-anchor="middle" x="544.36" y="-112.6" font-family="Helvetica,sans-Serif" font-size="8.00">vector</text>
</a>
</g>
</g>
<!-- Node1&#45;&gt;Node8 -->
<g id="edge7_Node000001_Node000008" class="edge">
<title>Node1&#45;&gt;Node8</title>
<g id="a_edge7_Node000001_Node000008"><a xlink:title=" ">
<path fill="none" stroke="#63b8ff" d="M321.48,-160.06C366.4,-152.64 441.56,-139.56 515.22,-123.1"/>
<polygon fill="#63b8ff" stroke="#63b8ff" points="516.15,-126.48 525.13,-120.86 514.61,-119.65 516.15,-126.48"/>
</a>
</g>
</g>
<!-- Node9 -->
<g id="Node000009" class="node">
<title>Node9</title>
<g id="a_Node000009"><a xlink:href="../../df/d93/utils_8hpp.html" target="_top" xlink:title=" ">
<polygon fill="white" stroke="#666666" points="252.86,-123 177.86,-123 177.86,-106 252.86,-106 252.86,-123"/>
<text text-anchor="middle" x="215.36" y="-112.6" font-family="Helvetica,sans-Serif" font-size="8.00">../../utils/utils.hpp</text>
</a>
</g>
</g>
<!-- Node1&#45;&gt;Node9 -->
<g id="edge8_Node000001_Node000009" class="edge">
<title>Node1&#45;&gt;Node9</title>
<g id="a_edge8_Node000001_Node000009"><a xlink:title=" ">
<path fill="none" stroke="#63b8ff" d="M271.63,-158.97C261.58,-151.22 245.7,-138.94 233.36,-129.41"/>
<polygon fill="#63b8ff" stroke="#63b8ff" points="235.2,-126.4 225.14,-123.06 230.92,-131.94 235.2,-126.4"/>
</a>
</g>
</g>
<!-- Node13 -->
<g id="Node000013" class="node">
<title>Node13</title>
<g id="a_Node000013"><a xlink:href="../../d7/d65/intrinsics_8hpp.html" target="_top" xlink:title=" ">
<polygon fill="white" stroke="#666666" points="429.86,-70 344.86,-70 344.86,-53 429.86,-53 429.86,-70"/>
<text text-anchor="middle" x="387.36" y="-59.6" font-family="Helvetica,sans-Serif" font-size="8.00">../utils/intrinsics.hpp</text>
</a>
</g>
</g>
<!-- Node1&#45;&gt;Node13 -->
<g id="edge20_Node000001_Node000013" class="edge">
<title>Node1&#45;&gt;Node13</title>
<g id="a_edge20_Node000001_Node000013"><a xlink:title=" ">
<path fill="none" stroke="#63b8ff" d="M282.62,-158.92C285.03,-146.5 291.34,-121.66 305.36,-106 318.4,-91.45 337.47,-80.93 353.94,-73.88"/>
<polygon fill="#63b8ff" stroke="#63b8ff" points="355.3,-77.1 363.28,-70.12 352.69,-70.61 355.3,-77.1"/>
</a>
</g>
</g>
<!-- Node9&#45;&gt;Node2 -->
<g id="edge11_Node000009_Node000002" class="edge">
<title>Node9&#45;&gt;Node2</title>
<g id="a_edge11_Node000009_Node000002"><a xlink:title=" ">
<path fill="none" stroke="#63b8ff" d="M240.58,-105.91C258.77,-99.22 282.63,-87.72 297.36,-70 307.49,-57.82 312.24,-40.23 314.45,-27.15"/>
<polygon fill="#63b8ff" stroke="#63b8ff" points="317.94,-27.44 315.82,-17.06 311.01,-26.5 317.94,-27.44"/>
</a>
</g>
</g>
<!-- Node9&#45;&gt;Node3 -->
<g id="edge12_Node000009_Node000003" class="edge">
<title>Node9&#45;&gt;Node3</title>
<g id="a_edge12_Node000009_Node000003"><a xlink:title=" ">
<path fill="none" stroke="#63b8ff" d="M190.58,-105.97C161.91,-97.27 114.54,-82.89 82.19,-73.07"/>
<polygon fill="#63b8ff" stroke="#63b8ff" points="82.84,-69.61 72.26,-70.06 80.81,-76.31 82.84,-69.61"/>
</a>
</g>
</g>
<!-- Node9&#45;&gt;Node5 -->
<g id="edge13_Node000009_Node000005" class="edge">
<title>Node9&#45;&gt;Node5</title>
<g id="a_edge13_Node000009_Node000005"><a xlink:title=" ">
<path fill="none" stroke="#63b8ff" d="M199.43,-105.97C181.8,-97.65 153.16,-84.13 132.5,-74.37"/>
<polygon fill="#63b8ff" stroke="#63b8ff" points="133.9,-71.16 123.37,-70.06 130.91,-77.49 133.9,-71.16"/>
</a>
</g>
</g>
<!-- Node9&#45;&gt;Node7 -->
<g id="edge15_Node000009_Node000007" class="edge">
<title>Node9&#45;&gt;Node7</title>
<g id="a_edge15_Node000009_Node000007"><a xlink:title=" ">
<path fill="none" stroke="#63b8ff" d="M253.06,-106.41C295.61,-98.35 367.17,-84.66 437.68,-70.31"/>
<polygon fill="#63b8ff" stroke="#63b8ff" points="438.52,-73.71 447.62,-68.29 437.12,-66.86 438.52,-73.71"/>
</a>
</g>
</g>
<!-- Node10 -->
<g id="Node000010" class="node">
<title>Node10</title>
<g id="a_Node000010"><a xlink:title=" ">
<polygon fill="#e0e0e0" stroke="#999999" points="177.86,-70 142.86,-70 142.86,-53 177.86,-53 177.86,-70"/>
<text text-anchor="middle" x="160.36" y="-59.6" font-family="Helvetica,sans-Serif" font-size="8.00">array</text>
</a>
</g>
</g>
<!-- Node9&#45;&gt;Node10 -->
<g id="edge9_Node000009_Node000010" class="edge">
<title>Node9&#45;&gt;Node10</title>
<g id="a_edge9_Node000009_Node000010"><a xlink:title=" ">
<path fill="none" stroke="#63b8ff" d="M207.25,-105.97C199.04,-98.37 186.15,-86.41 175.96,-76.97"/>
<polygon fill="#63b8ff" stroke="#63b8ff" points="178.23,-74.29 168.51,-70.06 173.47,-79.42 178.23,-74.29"/>
</a>
</g>
</g>
<!-- Node11 -->
<g id="Node000011" class="node">
<title>Node11</title>
<g id="a_Node000011"><a xlink:title=" ">
<polygon fill="#e0e0e0" stroke="#999999" points="234.36,-70 196.36,-70 196.36,-53 234.36,-53 234.36,-70"/>
<text text-anchor="middle" x="215.36" y="-59.6" font-family="Helvetica,sans-Serif" font-size="8.00">cmath</text>
</a>
</g>
</g>
<!-- Node9&#45;&gt;Node11 -->
<g id="edge10_Node000009_Node000011" class="edge">
<title>Node9&#45;&gt;Node11</title>
<g id="a_edge10_Node000009_Node000011"><a xlink:title=" ">
<path fill="none" stroke="#63b8ff" d="M215.36,-105.97C215.36,-99.19 215.36,-88.97 215.36,-80.13"/>
<polygon fill="#63b8ff" stroke="#63b8ff" points="218.86,-80.06 215.36,-70.06 211.86,-80.06 218.86,-80.06"/>
</a>
</g>
</g>
<!-- Node12 -->
<g id="Node000012" class="node">
<title>Node12</title>
<g id="a_Node000012"><a xlink:title=" ">
<polygon fill="#e0e0e0" stroke="#999999" points="288.36,-70 252.36,-70 252.36,-53 288.36,-53 288.36,-70"/>
<text text-anchor="middle" x="270.36" y="-59.6" font-family="Helvetica,sans-Serif" font-size="8.00">string</text>
</a>
</g>
</g>
<!-- Node9&#45;&gt;Node12 -->
<g id="edge14_Node000009_Node000012" class="edge">
<title>Node9&#45;&gt;Node12</title>
<g id="a_edge14_Node000009_Node000012"><a xlink:title=" ">
<path fill="none" stroke="#63b8ff" d="M223.48,-105.97C231.68,-98.37 244.57,-86.41 254.76,-76.97"/>
<polygon fill="#63b8ff" stroke="#63b8ff" points="257.26,-79.42 262.22,-70.06 252.5,-74.29 257.26,-79.42"/>
</a>
</g>
</g>
<!-- Node9&#45;&gt;Node13 -->
<g id="edge16_Node000009_Node000013" class="edge">
<title>Node9&#45;&gt;Node13</title>
<g id="a_edge16_Node000009_Node000013"><a xlink:title=" ">
<path fill="none" stroke="#63b8ff" d="M240.74,-105.97C270.21,-97.24 319.01,-82.77 352.14,-72.94"/>
<polygon fill="#63b8ff" stroke="#63b8ff" points="353.29,-76.25 361.88,-70.06 351.3,-69.54 353.29,-76.25"/>
</a>
</g>
</g>
<!-- Node13&#45;&gt;Node2 -->
<g id="edge18_Node000013_Node000002" class="edge">
<title>Node13&#45;&gt;Node2</title>
<g id="a_edge18_Node000013_Node000002"><a xlink:title=" ">
<path fill="none" stroke="#63b8ff" d="M376.89,-52.97C365.98,-45.14 348.66,-32.7 335.34,-23.13"/>
<polygon fill="#63b8ff" stroke="#63b8ff" points="337.05,-20.05 326.88,-17.06 332.96,-25.73 337.05,-20.05"/>
</a>
</g>
</g>
<!-- Node14 -->
<g id="Node000014" class="node">
<title>Node14</title>
<g id="a_Node000014"><a xlink:title=" ">
<polygon fill="#e0e0e0" stroke="#999999" points="457.36,-17 417.36,-17 417.36,0 457.36,0 457.36,-17"/>
<text text-anchor="middle" x="437.36" y="-6.6" font-family="Helvetica,sans-Serif" font-size="8.00">atomic</text>
</a>
</g>
</g>
<!-- Node13&#45;&gt;Node14 -->
<g id="edge17_Node000013_Node000014" class="edge">
<title>Node13&#45;&gt;Node14</title>
<g id="a_edge17_Node000013_Node000014"><a xlink:title=" ">
<path fill="none" stroke="#63b8ff" d="M394.74,-52.97C402.13,-45.44 413.69,-33.65 422.91,-24.25"/>
<polygon fill="#63b8ff" stroke="#63b8ff" points="425.45,-26.65 429.96,-17.06 420.46,-21.75 425.45,-26.65"/>
</a>
</g>
</g>
<!-- Node15 -->
<g id="Node000015" class="node">
<title>Node15</title>
<g id="a_Node000015"><a xlink:title=" ">
<polygon fill="#e0e0e0" stroke="#999999" points="399.36,-17 361.36,-17 361.36,0 399.36,0 399.36,-17"/>
<text text-anchor="middle" x="380.36" y="-6.6" font-family="Helvetica,sans-Serif" font-size="8.00">cstdlib</text>
</a>
</g>
</g>
<!-- Node13&#45;&gt;Node15 -->
<g id="edge19_Node000013_Node000015" class="edge">
<title>Node13&#45;&gt;Node15</title>
<g id="a_edge19_Node000013_Node000015"><a xlink:title=" ">
<path fill="none" stroke="#63b8ff" d="M386.33,-52.97C385.4,-46.19 384,-35.97 382.78,-27.13"/>
<polygon fill="#63b8ff" stroke="#63b8ff" points="386.23,-26.49 381.4,-17.06 379.29,-27.44 386.23,-26.49"/>
</a>
</g>
</g>
</g>
</svg>
