<?xml version="1.0" encoding="UTF-8" standalone="no"?>
<!DOCTYPE svg PUBLIC "-//W3C//DTD SVG 1.1//EN"
 "http://www.w3.org/Graphics/SVG/1.1/DTD/svg11.dtd">
<!-- Generated by graphviz version 2.43.0 (0)
 -->
<!-- Title: existence_set.hpp Pages: 1 -->
<svg width="508pt" height="184pt"
 viewBox="0.00 0.00 507.69 184.00" xmlns="http://www.w3.org/2000/svg" xmlns:xlink="http://www.w3.org/1999/xlink">
<g id="graph0" class="graph" transform="scale(1 1) rotate(0) translate(4 180)">
<title>existence_set.hpp</title>
<!-- Node1 -->
<g id="Node000001" class="node">
<title>Node1</title>
<g id="a_Node000001"><a xlink:title=" ">
<polygon fill="#999999" stroke="#666666" points="287.19,-176 207.19,-176 207.19,-159 287.19,-159 287.19,-176"/>
<text text-anchor="middle" x="247.19" y="-165.6" font-family="Helvetica,sans-Serif" font-size="8.00">existence_set.hpp</text>
</a>
</g>
</g>
<!-- Node2 -->
<g id="Node000002" class="node">
<title>Node2</title>
<g id="a_Node000002"><a xlink:title=" ">
<polygon fill="#e0e0e0" stroke="#999999" points="336.19,-17 294.19,-17 294.19,0 336.19,0 336.19,-17"/>
<text text-anchor="middle" x="315.19" y="-6.6" font-family="Helvetica,sans-Serif" font-size="8.00">cstddef</text>
</a>
</g>
</g>
<!-- Node1&#45;&gt;Node2 -->
<g id="edge1_Node000001_Node000002" class="edge">
<title>Node1&#45;&gt;Node2</title>
<g id="a_edge1_Node000001_Node000002"><a xlink:title=" ">
<path fill="none" stroke="#63b8ff" d="M207.11,-162.06C125.7,-151.54 -46.5,-120.71 12.19,-53 47.11,-12.7 213.5,-8.85 283.76,-9.07"/>
<polygon fill="#63b8ff" stroke="#63b8ff" points="283.77,-12.57 293.79,-9.13 283.81,-5.57 283.77,-12.57"/>
</a>
</g>
</g>
<!-- Node3 -->
<g id="Node000003" class="node">
<title>Node3</title>
<g id="a_Node000003"><a xlink:title=" ">
<polygon fill="#e0e0e0" stroke="#999999" points="71.19,-70 21.19,-70 21.19,-53 71.19,-53 71.19,-70"/>
<text text-anchor="middle" x="46.19" y="-59.6" font-family="Helvetica,sans-Serif" font-size="8.00">functional</text>
</a>
</g>
</g>
<!-- Node1&#45;&gt;Node3 -->
<g id="edge2_Node000001_Node000003" class="edge">
<title>Node1&#45;&gt;Node3</title>
<g id="a_edge2_Node000001_Node000003"><a xlink:title=" ">
<path fill="none" stroke="#63b8ff" d="M226.41,-158.95C205.1,-150.94 171.18,-137.46 143.19,-123 115.3,-108.59 84.86,-88.9 65.65,-75.95"/>
<polygon fill="#63b8ff" stroke="#63b8ff" points="67.42,-72.92 57.19,-70.19 63.48,-78.71 67.42,-72.92"/>
</a>
</g>
</g>
<!-- Node4 -->
<g id="Node000004" class="node">
<title>Node4</title>
<g id="a_Node000004"><a xlink:title=" ">
<polygon fill="#e0e0e0" stroke="#999999" points="123.19,-70 89.19,-70 89.19,-53 123.19,-53 123.19,-70"/>
<text text-anchor="middle" x="106.19" y="-59.6" font-family="Helvetica,sans-Serif" font-size="8.00">limits</text>
</a>
</g>
</g>
<!-- Node1&#45;&gt;Node4 -->
<g id="edge3_Node000001_Node000004" class="edge">
<title>Node1&#45;&gt;Node4</title>
<g id="a_edge3_Node000001_Node000004"><a xlink:title=" ">
<path fill="none" stroke="#63b8ff" d="M230.37,-158.89C213.81,-151.02 188.18,-137.83 168.19,-123 149.95,-109.48 131.67,-90.87 119.73,-77.87"/>
<polygon fill="#63b8ff" stroke="#63b8ff" points="122.16,-75.34 112.87,-70.25 116.96,-80.03 122.16,-75.34"/>
</a>
</g>
</g>
<!-- Node5 -->
<g id="Node000005" class="node">
<title>Node5</title>
<g id="a_Node000005"><a xlink:title=" ">
<polygon fill="#e0e0e0" stroke="#999999" points="428.19,-123 346.19,-123 346.19,-106 428.19,-106 428.19,-123"/>
<text text-anchor="middle" x="387.19" y="-112.6" font-family="Helvetica,sans-Serif" font-size="8.00">memory_resource</text>
</a>
</g>
</g>
<!-- Node1&#45;&gt;Node5 -->
<g id="edge4_Node000001_Node000005" class="edge">
<title>Node1&#45;&gt;Node5</title>
<g id="a_edge4_Node000001_Node000005"><a xlink:title=" ">
<path fill="none" stroke="#63b8ff" d="M267.84,-158.97C291.31,-150.42 329.84,-136.39 356.75,-126.59"/>
<polygon fill="#63b8ff" stroke="#63b8ff" points="358.24,-129.77 366.44,-123.06 355.85,-123.19 358.24,-129.77"/>
</a>
</g>
</g>
<!-- Node6 -->
<g id="Node000006" class="node">
<title>Node6</title>
<g id="a_Node000006"><a xlink:title=" ">
<polygon fill="#e0e0e0" stroke="#999999" points="499.69,-70 446.69,-70 446.69,-53 499.69,-53 499.69,-70"/>
<text text-anchor="middle" x="473.19" y="-59.6" font-family="Helvetica,sans-Serif" font-size="8.00">type_traits</text>
</a>
</g>
</g>
<!-- Node1&#45;&gt;Node6 -->
<g id="edge5_Node000001_Node000006" class="edge">
<title>Node1&#45;&gt;Node6</title>
<g id="a_edge5_Node000001_Node000006"><a xlink:title=" ">
<path fill="none" stroke="#63b8ff" d="M256.62,-158.82C272.44,-146.28 305.66,-121.25 337.19,-106 369.48,-90.37 408.73,-78.51 436.74,-71.15"/>
<polygon fill="#63b8ff" stroke="#63b8ff" points="437.7,-74.52 446.52,-68.65 435.97,-67.74 437.7,-74.52"/>
</a>
</g>
</g>
<!-- Node7 -->
<g id="Node000007" class="node">
<title>Node7</title>
<g id="a_Node000007"><a xlink:title=" ">
<polygon fill="#e0e0e0" stroke="#999999" points="484.19,-123 446.19,-123 446.19,-106 484.19,-106 484.19,-123"/>
<text text-anchor="middle" x="465.19" y="-112.6" font-family="Helvetica,sans-Serif" font-size="8.00">vector</text>
</a>
</g>
</g>
<!-- Node1&#45;&gt;Node7 -->
<g id="edge6_Node000001_Node000007" class="edge">
<title>Node1&#45;&gt;Node7</title>
<g id="a_edge6_Node000001_Node000007"><a xlink:title=" ">
<path fill="none" stroke="#63b8ff" d="M281.95,-158.94C318.1,-150.99 376.58,-137.89 436,-123.22"/>
<polygon fill="#63b8ff" stroke="#63b8ff" points="437.07,-126.56 445.93,-120.76 435.38,-119.77 437.07,-126.56"/>
</a>
</g>
</g>
<!-- Node8 -->
<g id="Node000008" class="node">
<title>Node8</title>
<g id="a_Node000008"><a xlink:href="../../df/d93/utils_8hpp.html" target="_top" xlink:title=" ">
<polygon fill="white" stroke="#666666" points="251.69,-123 176.69,-123 176.69,-106 251.69,-106 251.69,-123"/>
<text text-anchor="middle" x="214.19" y="-112.6" font-family="Helvetica,sans-Serif" font-size="8.00">../../utils/utils.hpp</text>
</a>
</g>
</g>
<!-- Node1&#45;&gt;Node8 -->
<g id="edge7_Node000001_Node000008" class="edge">
<title>Node1&#45;&gt;Node8</title>
<g id="a_edge7_Node000001_Node000008"><a xlink:title=" ">
<path fill="none" stroke="#63b8ff" d="M242.32,-158.97C237.69,-151.82 230.57,-140.82 224.65,-131.67"/>
<polygon fill="#63b8ff" stroke="#63b8ff" points="227.45,-129.55 219.07,-123.06 221.57,-133.35 227.45,-129.55"/>
</a>
</g>
</g>
<!-- Node12 -->
<g id="Node000012" class="node">
<title>Node12</title>
<g id="a_Node000012"><a xlink:href="../../d7/d65/intrinsics_8hpp.html" target="_top" xlink:title=" ">
<polygon fill="white" stroke="#666666" points="428.69,-70 343.69,-70 343.69,-53 428.69,-53 428.69,-70"/>
<text text-anchor="middle" x="386.19" y="-59.6" font-family="Helvetica,sans-Serif" font-size="8.00">../utils/intrinsics.hpp</text>
</a>
</g>
</g>
<!-- Node1&#45;&gt;Node12 -->
<g id="edge19_Node000001_Node000012" class="edge">
<title>Node1&#45;&gt;Node12</title>
<g id="a_edge19_Node000001_Node000012"><a xlink:title=" ">
<path fill="none" stroke="#63b8ff" d="M253.16,-158.66C262.86,-146.31 283.07,-122.1 304.19,-106 321,-93.18 342.13,-82.07 358.73,-74.29"/>
<polygon fill="#63b8ff" stroke="#63b8ff" points="360.26,-77.43 367.91,-70.1 357.36,-71.06 360.26,-77.43"/>
</a>
</g>
</g>
<!-- Node8&#45;&gt;Node2 -->
<g id="edge10_Node000008_Node000002" class="edge">
<title>Node8&#45;&gt;Node2</title>
<g id="a_edge10_Node000008_Node000002"><a xlink:title=" ">
<path fill="none" stroke="#63b8ff" d="M239.4,-105.91C257.59,-99.22 281.45,-87.72 296.19,-70 306.31,-57.82 311.06,-40.23 313.27,-27.15"/>
<polygon fill="#63b8ff" stroke="#63b8ff" points="316.76,-27.44 314.64,-17.06 309.83,-26.5 316.76,-27.44"/>
</a>
</g>
</g>
<!-- Node8&#45;&gt;Node3 -->
<g id="edge11_Node000008_Node000003" class="edge">
<title>Node8&#45;&gt;Node3</title>
<g id="a_edge11_Node000008_Node000003"><a xlink:title=" ">
<path fill="none" stroke="#63b8ff" d="M189.4,-105.97C160.73,-97.27 113.36,-82.89 81.01,-73.07"/>
<polygon fill="#63b8ff" stroke="#63b8ff" points="81.66,-69.61 71.08,-70.06 79.63,-76.31 81.66,-69.61"/>
</a>
</g>
</g>
<!-- Node8&#45;&gt;Node4 -->
<g id="edge12_Node000008_Node000004" class="edge">
<title>Node8&#45;&gt;Node4</title>
<g id="a_edge12_Node000008_Node000004"><a xlink:title=" ">
<path fill="none" stroke="#63b8ff" d="M198.25,-105.97C180.62,-97.65 151.98,-84.13 131.33,-74.37"/>
<polygon fill="#63b8ff" stroke="#63b8ff" points="132.72,-71.16 122.19,-70.06 129.73,-77.49 132.72,-71.16"/>
</a>
</g>
</g>
<!-- Node8&#45;&gt;Node6 -->
<g id="edge14_Node000008_Node000006" class="edge">
<title>Node8&#45;&gt;Node6</title>
<g id="a_edge14_Node000008_Node000006"><a xlink:title=" ">
<path fill="none" stroke="#63b8ff" d="M251.88,-106.41C294.43,-98.35 365.99,-84.66 436.5,-70.31"/>
<polygon fill="#63b8ff" stroke="#63b8ff" points="437.34,-73.71 446.44,-68.29 435.95,-66.86 437.34,-73.71"/>
</a>
</g>
</g>
<!-- Node9 -->
<g id="Node000009" class="node">
<title>Node9</title>
<g id="a_Node000009"><a xlink:title=" ">
<polygon fill="#e0e0e0" stroke="#999999" points="176.69,-70 141.69,-70 141.69,-53 176.69,-53 176.69,-70"/>
<text text-anchor="middle" x="159.19" y="-59.6" font-family="Helvetica,sans-Serif" font-size="8.00">array</text>
</a>
</g>
</g>
<!-- Node8&#45;&gt;Node9 -->
<g id="edge8_Node000008_Node000009" class="edge">
<title>Node8&#45;&gt;Node9</title>
<g id="a_edge8_Node000008_Node000009"><a xlink:title=" ">
<path fill="none" stroke="#63b8ff" d="M206.07,-105.97C197.86,-98.37 184.97,-86.41 174.79,-76.97"/>
<polygon fill="#63b8ff" stroke="#63b8ff" points="177.05,-74.29 167.33,-70.06 172.29,-79.42 177.05,-74.29"/>
</a>
</g>
</g>
<!-- Node10 -->
<g id="Node000010" class="node">
<title>Node10</title>
<g id="a_Node000010"><a xlink:title=" ">
<polygon fill="#e0e0e0" stroke="#999999" points="233.19,-70 195.19,-70 195.19,-53 233.19,-53 233.19,-70"/>
<text text-anchor="middle" x="214.19" y="-59.6" font-family="Helvetica,sans-Serif" font-size="8.00">cmath</text>
</a>
</g>
</g>
<!-- Node8&#45;&gt;Node10 -->
<g id="edge9_Node000008_Node000010" class="edge">
<title>Node8&#45;&gt;Node10</title>
<g id="a_edge9_Node000008_Node000010"><a xlink:title=" ">
<path fill="none" stroke="#63b8ff" d="M214.19,-105.97C214.19,-99.19 214.19,-88.97 214.19,-80.13"/>
<polygon fill="#63b8ff" stroke="#63b8ff" points="217.69,-80.06 214.19,-70.06 210.69,-80.06 217.69,-80.06"/>
</a>
</g>
</g>
<!-- Node11 -->
<g id="Node000011" class="node">
<title>Node11</title>
<g id="a_Node000011"><a xlink:title=" ">
<polygon fill="#e0e0e0" stroke="#999999" points="287.19,-70 251.19,-70 251.19,-53 287.19,-53 287.19,-70"/>
<text text-anchor="middle" x="269.19" y="-59.6" font-family="Helvetica,sans-Serif" font-size="8.00">string</text>
</a>
</g>
</g>
<!-- Node8&#45;&gt;Node11 -->
<g id="edge13_Node000008_Node000011" class="edge">
<title>Node8&#45;&gt;Node11</title>
<g id="a_edge13_Node000008_Node000011"><a xlink:title=" ">
<path fill="none" stroke="#63b8ff" d="M222.3,-105.97C230.51,-98.37 243.4,-86.41 253.58,-76.97"/>
<polygon fill="#63b8ff" stroke="#63b8ff" points="256.08,-79.42 261.04,-70.06 251.32,-74.29 256.08,-79.42"/>
</a>
</g>
</g>
<!-- Node8&#45;&gt;Node12 -->
<g id="edge15_Node000008_Node000012" class="edge">
<title>Node8&#45;&gt;Node12</title>
<g id="a_edge15_Node000008_Node000012"><a xlink:title=" ">
<path fill="none" stroke="#63b8ff" d="M239.56,-105.97C269.03,-97.24 317.83,-82.77 350.96,-72.94"/>
<polygon fill="#63b8ff" stroke="#63b8ff" points="352.11,-76.25 360.7,-70.06 350.12,-69.54 352.11,-76.25"/>
</a>
</g>
</g>
<!-- Node12&#45;&gt;Node2 -->
<g id="edge17_Node000012_Node000002" class="edge">
<title>Node12&#45;&gt;Node2</title>
<g id="a_edge17_Node000012_Node000002"><a xlink:title=" ">
<path fill="none" stroke="#63b8ff" d="M375.71,-52.97C364.8,-45.14 347.48,-32.7 334.16,-23.13"/>
<polygon fill="#63b8ff" stroke="#63b8ff" points="335.87,-20.05 325.7,-17.06 331.78,-25.73 335.87,-20.05"/>
</a>
</g>
</g>
<!-- Node13 -->
<g id="Node000013" class="node">
<title>Node13</title>
<g id="a_Node000013"><a xlink:title=" ">
<polygon fill="#e0e0e0" stroke="#999999" points="456.19,-17 416.19,-17 416.19,0 456.19,0 456.19,-17"/>
<text text-anchor="middle" x="436.19" y="-6.6" font-family="Helvetica,sans-Serif" font-size="8.00">atomic</text>
</a>
</g>
</g>
<!-- Node12&#45;&gt;Node13 -->
<g id="edge16_Node000012_Node000013" class="edge">
<title>Node12&#45;&gt;Node13</title>
<g id="a_edge16_Node000012_Node000013"><a xlink:title=" ">
<path fill="none" stroke="#63b8ff" d="M393.56,-52.97C400.95,-45.44 412.51,-33.65 421.73,-24.25"/>
<polygon fill="#63b8ff" stroke="#63b8ff" points="424.28,-26.65 428.78,-17.06 419.28,-21.75 424.28,-26.65"/>
</a>
</g>
</g>
<!-- Node14 -->
<g id="Node000014" class="node">
<title>Node14</title>
<g id="a_Node000014"><a xlink:title=" ">
<polygon fill="#e0e0e0" stroke="#999999" points="398.19,-17 360.19,-17 360.19,0 398.19,0 398.19,-17"/>
<text text-anchor="middle" x="379.19" y="-6.6" font-family="Helvetica,sans-Serif" font-size="8.00">cstdlib</text>
</a>
</g>
</g>
<!-- Node12&#45;&gt;Node14 -->
<g id="edge18_Node000012_Node000014" class="edge">
<title>Node12&#45;&gt;Node14</title>
<g id="a_edge18_Node000012_Node000014"><a xlink:title=" ">
<path fill="none" stroke="#63b8ff" d="M385.15,-52.97C384.22,-46.19 382.82,-35.97 381.61,-27.13"/>
<polygon fill="#63b8ff" stroke="#63b8ff" points="385.05,-26.49 380.22,-17.06 378.11,-27.44 385.05,-26.49"/>
</a>
</g>
</g>
</g>
</svg>
