<?xml version="1.0" encoding="UTF-8" standalone="no"?>
<!DOCTYPE svg PUBLIC "-//W3C//DTD SVG 1.1//EN"
 "http://www.w3.org/Graphics/SVG/1.1/DTD/svg11.dtd">
<!-- Generated by graphviz version 2.43.0 (0)
 -->
<!-- Title: existence_set.hpp Pages: 1 -->
<svg width="561pt" height="184pt"
 viewBox="0.00 0.00 561.33 184.00" xmlns="http://www.w3.org/2000/svg" xmlns:xlink="http://www.w3.org/1999/xlink">
<g id="graph0" class="graph" transform="scale(1 1) rotate(0) translate(4 180)">
<title>existence_set.hpp</title>
<!-- Node1 -->
<g id="Node000001" class="node">
<title>Node1</title>
<g id="a_Node000001"><a xlink:title=" ">
<polygon fill="#999999" stroke="#666666" points="207.83,-176 127.83,-176 127.83,-159 207.83,-159 207.83,-176"/>
<text text-anchor="middle" x="167.83" y="-165.6" font-family="Helvetica,sans-Serif" font-size="8.00">existence_set.hpp</text>
</a>
</g>
</g>
<!-- Node2 -->
<g id="Node000002" class="node">
<title>Node2</title>
<g id="a_Node000002"><a xlink:title=" ">
<polygon fill="#e0e0e0" stroke="#999999" points="244.83,-17 202.83,-17 202.83,0 244.83,0 244.83,-17"/>
<text text-anchor="middle" x="223.83" y="-6.6" font-family="Helvetica,sans-Serif" font-size="8.00">cstddef</text>
</a>
</g>
</g>
<!-- Node1&#45;&gt;Node2 -->
<g id="edge1_Node000001_Node000002" class="edge">
<title>Node1&#45;&gt;Node2</title>
<g id="a_edge1_Node000001_Node000002"><a xlink:title=" ">
<path fill="none" stroke="#63b8ff" d="M127.57,-165.74C70.47,-163.05 -23.98,-151.79 5.83,-106 47.58,-41.85 142.77,-20.03 192.41,-12.85"/>
<polygon fill="#63b8ff" stroke="#63b8ff" points="193.11,-16.29 202.56,-11.5 192.18,-9.35 193.11,-16.29"/>
</a>
</g>
</g>
<!-- Node3 -->
<g id="Node000003" class="node">
<title>Node3</title>
<g id="a_Node000003"><a xlink:title=" ">
<polygon fill="#e0e0e0" stroke="#999999" points="74.83,-123 14.83,-123 14.83,-106 74.83,-106 74.83,-123"/>
<text text-anchor="middle" x="44.83" y="-112.6" font-family="Helvetica,sans-Serif" font-size="8.00">initializer_list</text>
</a>
</g>
</g>
<!-- Node1&#45;&gt;Node3 -->
<g id="edge2_Node000001_Node000003" class="edge">
<title>Node1&#45;&gt;Node3</title>
<g id="a_edge2_Node000001_Node000003"><a xlink:title=" ">
<path fill="none" stroke="#63b8ff" d="M149.68,-158.97C129.33,-150.54 96.1,-136.76 72.51,-126.98"/>
<polygon fill="#63b8ff" stroke="#63b8ff" points="73.63,-123.65 63.05,-123.06 70.95,-130.12 73.63,-123.65"/>
</a>
</g>
</g>
<!-- Node4 -->
<g id="Node000004" class="node">
<title>Node4</title>
<g id="a_Node000004"><a xlink:title=" ">
<polygon fill="#e0e0e0" stroke="#999999" points="174.83,-123 92.83,-123 92.83,-106 174.83,-106 174.83,-123"/>
<text text-anchor="middle" x="133.83" y="-112.6" font-family="Helvetica,sans-Serif" font-size="8.00">memory_resource</text>
</a>
</g>
</g>
<!-- Node1&#45;&gt;Node4 -->
<g id="edge3_Node000001_Node000004" class="edge">
<title>Node1&#45;&gt;Node4</title>
<g id="a_edge3_Node000001_Node000004"><a xlink:title=" ">
<path fill="none" stroke="#63b8ff" d="M162.81,-158.97C157.99,-151.74 150.55,-140.59 144.42,-131.39"/>
<polygon fill="#63b8ff" stroke="#63b8ff" points="147.32,-129.44 138.86,-123.06 141.5,-133.32 147.32,-129.44"/>
</a>
</g>
</g>
<!-- Node5 -->
<g id="Node000005" class="node">
<title>Node5</title>
<g id="a_Node000005"><a xlink:title=" ">
<polygon fill="#e0e0e0" stroke="#999999" points="195.33,-70 142.33,-70 142.33,-53 195.33,-53 195.33,-70"/>
<text text-anchor="middle" x="168.83" y="-59.6" font-family="Helvetica,sans-Serif" font-size="8.00">type_traits</text>
</a>
</g>
</g>
<!-- Node1&#45;&gt;Node5 -->
<g id="edge4_Node000001_Node000005" class="edge">
<title>Node1&#45;&gt;Node5</title>
<g id="a_edge4_Node000001_Node000005"><a xlink:title=" ">
<path fill="none" stroke="#63b8ff" d="M171.65,-158.72C175.6,-150.19 181.51,-135.99 183.83,-123 186.47,-108.17 181.8,-91.58 176.99,-79.52"/>
<polygon fill="#63b8ff" stroke="#63b8ff" points="180.15,-78 172.91,-70.26 173.74,-80.82 180.15,-78"/>
</a>
</g>
</g>
<!-- Node6 -->
<g id="Node000006" class="node">
<title>Node6</title>
<g id="a_Node000006"><a xlink:title=" ">
<polygon fill="#e0e0e0" stroke="#999999" points="268.83,-123 230.83,-123 230.83,-106 268.83,-106 268.83,-123"/>
<text text-anchor="middle" x="249.83" y="-112.6" font-family="Helvetica,sans-Serif" font-size="8.00">vector</text>
</a>
</g>
</g>
<!-- Node1&#45;&gt;Node6 -->
<g id="edge5_Node000001_Node000006" class="edge">
<title>Node1&#45;&gt;Node6</title>
<g id="a_edge5_Node000001_Node000006"><a xlink:title=" ">
<path fill="none" stroke="#63b8ff" d="M179.93,-158.97C192.77,-150.99 213.3,-138.22 228.79,-128.58"/>
<polygon fill="#63b8ff" stroke="#63b8ff" points="231.04,-131.31 237.68,-123.06 227.34,-125.37 231.04,-131.31"/>
</a>
</g>
</g>
<!-- Node7 -->
<g id="Node000007" class="node">
<title>Node7</title>
<g id="a_Node000007"><a xlink:href="../../df/d93/utils_8hpp.html" target="_top" xlink:title=" ">
<polygon fill="white" stroke="#666666" points="362.33,-123 287.33,-123 287.33,-106 362.33,-106 362.33,-123"/>
<text text-anchor="middle" x="324.83" y="-112.6" font-family="Helvetica,sans-Serif" font-size="8.00">../../utils/utils.hpp</text>
</a>
</g>
</g>
<!-- Node1&#45;&gt;Node7 -->
<g id="edge6_Node000001_Node000007" class="edge">
<title>Node1&#45;&gt;Node7</title>
<g id="a_edge6_Node000001_Node000007"><a xlink:title=" ">
<path fill="none" stroke="#63b8ff" d="M190.99,-158.97C217.66,-150.31 261.67,-136.02 291.89,-126.2"/>
<polygon fill="#63b8ff" stroke="#63b8ff" points="293.14,-129.47 301.57,-123.06 290.97,-122.82 293.14,-129.47"/>
</a>
</g>
</g>
<!-- Node7&#45;&gt;Node2 -->
<g id="edge9_Node000007_Node000002" class="edge">
<title>Node7&#45;&gt;Node2</title>
<g id="a_edge9_Node000007_Node000002"><a xlink:title=" ">
<path fill="none" stroke="#63b8ff" d="M299.61,-105.91C281.42,-99.22 257.56,-87.72 242.83,-70 232.7,-57.82 227.96,-40.23 225.74,-27.15"/>
<polygon fill="#63b8ff" stroke="#63b8ff" points="229.19,-26.5 224.38,-17.06 222.25,-27.44 229.19,-26.5"/>
</a>
</g>
</g>
<!-- Node7&#45;&gt;Node5 -->
<g id="edge12_Node000007_Node000005" class="edge">
<title>Node7&#45;&gt;Node5</title>
<g id="a_edge12_Node000007_Node000005"><a xlink:title=" ">
<path fill="none" stroke="#63b8ff" d="M301.81,-105.97C275.31,-97.31 231.59,-83.02 201.55,-73.2"/>
<polygon fill="#63b8ff" stroke="#63b8ff" points="202.53,-69.84 191.94,-70.06 200.36,-76.49 202.53,-69.84"/>
</a>
</g>
</g>
<!-- Node8 -->
<g id="Node000008" class="node">
<title>Node8</title>
<g id="a_Node000008"><a xlink:title=" ">
<polygon fill="#e0e0e0" stroke="#999999" points="287.33,-70 252.33,-70 252.33,-53 287.33,-53 287.33,-70"/>
<text text-anchor="middle" x="269.83" y="-59.6" font-family="Helvetica,sans-Serif" font-size="8.00">array</text>
</a>
</g>
</g>
<!-- Node7&#45;&gt;Node8 -->
<g id="edge7_Node000007_Node000008" class="edge">
<title>Node7&#45;&gt;Node8</title>
<g id="a_edge7_Node000007_Node000008"><a xlink:title=" ">
<path fill="none" stroke="#63b8ff" d="M316.71,-105.97C308.51,-98.37 295.62,-86.41 285.43,-76.97"/>
<polygon fill="#63b8ff" stroke="#63b8ff" points="287.69,-74.29 277.98,-70.06 282.93,-79.42 287.69,-74.29"/>
</a>
</g>
</g>
<!-- Node9 -->
<g id="Node000009" class="node">
<title>Node9</title>
<g id="a_Node000009"><a xlink:title=" ">
<polygon fill="#e0e0e0" stroke="#999999" points="343.83,-70 305.83,-70 305.83,-53 343.83,-53 343.83,-70"/>
<text text-anchor="middle" x="324.83" y="-59.6" font-family="Helvetica,sans-Serif" font-size="8.00">cmath</text>
</a>
</g>
</g>
<!-- Node7&#45;&gt;Node9 -->
<g id="edge8_Node000007_Node000009" class="edge">
<title>Node7&#45;&gt;Node9</title>
<g id="a_edge8_Node000007_Node000009"><a xlink:title=" ">
<path fill="none" stroke="#63b8ff" d="M324.83,-105.97C324.83,-99.19 324.83,-88.97 324.83,-80.13"/>
<polygon fill="#63b8ff" stroke="#63b8ff" points="328.33,-80.06 324.83,-70.06 321.33,-80.06 328.33,-80.06"/>
</a>
</g>
</g>
<!-- Node10 -->
<g id="Node000010" class="node">
<title>Node10</title>
<g id="a_Node000010"><a xlink:title=" ">
<polygon fill="#e0e0e0" stroke="#999999" points="395.83,-70 361.83,-70 361.83,-53 395.83,-53 395.83,-70"/>
<text text-anchor="middle" x="378.83" y="-59.6" font-family="Helvetica,sans-Serif" font-size="8.00">limits</text>
</a>
</g>
</g>
<!-- Node7&#45;&gt;Node10 -->
<g id="edge10_Node000007_Node000010" class="edge">
<title>Node7&#45;&gt;Node10</title>
<g id="a_edge10_Node000007_Node000010"><a xlink:title=" ">
<path fill="none" stroke="#63b8ff" d="M332.8,-105.97C340.85,-98.37 353.51,-86.41 363.51,-76.97"/>
<polygon fill="#63b8ff" stroke="#63b8ff" points="365.96,-79.47 370.83,-70.06 361.15,-74.38 365.96,-79.47"/>
</a>
</g>
</g>
<!-- Node11 -->
<g id="Node000011" class="node">
<title>Node11</title>
<g id="a_Node000011"><a xlink:title=" ">
<polygon fill="#e0e0e0" stroke="#999999" points="449.83,-70 413.83,-70 413.83,-53 449.83,-53 449.83,-70"/>
<text text-anchor="middle" x="431.83" y="-59.6" font-family="Helvetica,sans-Serif" font-size="8.00">string</text>
</a>
</g>
</g>
<!-- Node7&#45;&gt;Node11 -->
<g id="edge11_Node000007_Node000011" class="edge">
<title>Node7&#45;&gt;Node11</title>
<g id="a_edge11_Node000007_Node000011"><a xlink:title=" ">
<path fill="none" stroke="#63b8ff" d="M340.62,-105.97C358.08,-97.65 386.45,-84.13 406.92,-74.37"/>
<polygon fill="#63b8ff" stroke="#63b8ff" points="408.45,-77.52 415.97,-70.06 405.44,-71.2 408.45,-77.52"/>
</a>
</g>
</g>
<!-- Node12 -->
<g id="Node000012" class="node">
<title>Node12</title>
<g id="a_Node000012"><a xlink:href="../../d7/d65/intrinsics_8hpp.html" target="_top" xlink:title=" ">
<polygon fill="white" stroke="#666666" points="553.33,-70 468.33,-70 468.33,-53 553.33,-53 553.33,-70"/>
<text text-anchor="middle" x="510.83" y="-59.6" font-family="Helvetica,sans-Serif" font-size="8.00">../utils/intrinsics.hpp</text>
</a>
</g>
</g>
<!-- Node7&#45;&gt;Node12 -->
<g id="edge13_Node000007_Node000012" class="edge">
<title>Node7&#45;&gt;Node12</title>
<g id="a_edge13_Node000007_Node000012"><a xlink:title=" ">
<path fill="none" stroke="#63b8ff" d="M352.27,-105.97C384.28,-97.2 437.36,-82.64 473.2,-72.82"/>
<polygon fill="#63b8ff" stroke="#63b8ff" points="474.55,-76.08 483.27,-70.06 472.7,-69.33 474.55,-76.08"/>
</a>
</g>
</g>
<!-- Node12&#45;&gt;Node2 -->
<g id="edge14_Node000012_Node000002" class="edge">
<title>Node12&#45;&gt;Node2</title>
<g id="a_edge14_Node000012_Node000002"><a xlink:title=" ">
<path fill="none" stroke="#63b8ff" d="M468.48,-52.97C410.13,-42.61 306.38,-24.17 254.77,-15"/>
<polygon fill="#63b8ff" stroke="#63b8ff" points="255.33,-11.54 244.87,-13.24 254.11,-18.44 255.33,-11.54"/>
</a>
</g>
</g>
<!-- Node13 -->
<g id="Node000013" class="node">
<title>Node13</title>
<g id="a_Node000013"><a xlink:title=" ">
<polygon fill="#e0e0e0" stroke="#999999" points="529.83,-17 491.83,-17 491.83,0 529.83,0 529.83,-17"/>
<text text-anchor="middle" x="510.83" y="-6.6" font-family="Helvetica,sans-Serif" font-size="8.00">cstdlib</text>
</a>
</g>
</g>
<!-- Node12&#45;&gt;Node13 -->
<g id="edge15_Node000012_Node000013" class="edge">
<title>Node12&#45;&gt;Node13</title>
<g id="a_edge15_Node000012_Node000013"><a xlink:title=" ">
<path fill="none" stroke="#63b8ff" d="M510.83,-52.97C510.83,-46.19 510.83,-35.97 510.83,-27.13"/>
<polygon fill="#63b8ff" stroke="#63b8ff" points="514.33,-27.06 510.83,-17.06 507.33,-27.06 514.33,-27.06"/>
</a>
</g>
</g>
</g>
</svg>
