<?xml version="1.0" encoding="UTF-8" standalone="no"?>
<!DOCTYPE svg PUBLIC "-//W3C//DTD SVG 1.1//EN"
 "http://www.w3.org/Graphics/SVG/1.1/DTD/svg11.dtd">
<!-- Generated by graphviz version 2.43.0 (0)
 -->
<!-- Title: gstar.hpp Pages: 1 -->
<svg width="1151pt" height="290pt"
 viewBox="0.00 0.00 1150.82 290.00" xmlns="http://www.w3.org/2000/svg" xmlns:xlink="http://www.w3.org/1999/xlink">
<g id="graph0" class="graph" transform="scale(1 1) rotate(0) translate(4 286)">
<title>gstar.hpp</title>
<!-- Node1 -->
<g id="Node000001" class="node">
<title>Node1</title>
<g id="a_Node000001"><a xlink:title=" ">
<polygon fill="#999999" stroke="#666666" points="416,-282 366,-282 366,-265 416,-265 416,-282"/>
<text text-anchor="middle" x="391" y="-271.6" font-family="Helvetica,sans-Serif" font-size="8.00">gstar.hpp</text>
</a>
</g>
</g>
<!-- Node2 -->
<g id="Node000002" class="node">
<title>Node2</title>
<g id="a_Node000002"><a xlink:title=" ">
<polygon fill="#e0e0e0" stroke="#999999" points="419,-17 377,-17 377,0 419,0 419,-17"/>
<text text-anchor="middle" x="398" y="-6.6" font-family="Helvetica,sans-Serif" font-size="8.00">cstddef</text>
</a>
</g>
</g>
<!-- Node1&#45;&gt;Node2 -->
<g id="edge1_Node000001_Node000002" class="edge">
<title>Node1&#45;&gt;Node2</title>
<g id="a_edge1_Node000001_Node000002"><a xlink:title=" ">
<path fill="none" stroke="#63b8ff" d="M365.95,-271.27C279.65,-266.35 0,-244.54 0,-168.5 0,-168.5 0,-168.5 0,-113.5 0,-74.03 29.29,-69.8 65,-53 118.19,-27.98 294.2,-15.38 366.54,-11.17"/>
<polygon fill="#63b8ff" stroke="#63b8ff" points="367.04,-14.64 376.83,-10.58 366.64,-7.65 367.04,-14.64"/>
</a>
</g>
</g>
<!-- Node3 -->
<g id="Node000003" class="node">
<title>Node3</title>
<g id="a_Node000003"><a xlink:href="../../da/deb/managed__node_8hpp.html" target="_top" xlink:title=" ">
<polygon fill="white" stroke="#666666" points="1064,-229 922,-229 922,-212 1064,-212 1064,-229"/>
<text text-anchor="middle" x="993" y="-218.6" font-family="Helvetica,sans-Serif" font-size="8.00">../solvers/base/managed_node.hpp</text>
</a>
</g>
</g>
<!-- Node1&#45;&gt;Node3 -->
<g id="edge2_Node000001_Node000003" class="edge">
<title>Node1&#45;&gt;Node3</title>
<g id="a_edge2_Node000001_Node000003"><a xlink:title=" ">
<path fill="none" stroke="#63b8ff" d="M416.1,-270.37C500.06,-263.26 773.57,-240.09 911.66,-228.39"/>
<polygon fill="#63b8ff" stroke="#63b8ff" points="912.1,-231.87 921.77,-227.53 911.51,-224.89 912.1,-231.87"/>
</a>
</g>
</g>
<!-- Node14 -->
<g id="Node000014" class="node">
<title>Node14</title>
<g id="a_Node000014"><a xlink:href="../../d7/d65/intrinsics_8hpp.html" target="_top" xlink:title=" ">
<polygon fill="#fff0f0" stroke="red" points="792,-70 700,-70 700,-53 792,-53 792,-70"/>
<text text-anchor="middle" x="746" y="-59.6" font-family="Helvetica,sans-Serif" font-size="8.00">../../utils/intrinsics.hpp</text>
</a>
</g>
</g>
<!-- Node1&#45;&gt;Node14 -->
<g id="edge48_Node000001_Node000014" class="edge">
<title>Node1&#45;&gt;Node14</title>
<g id="a_edge48_Node000001_Node000014"><a xlink:title=" ">
<path fill="none" stroke="#63b8ff" d="M416.09,-272.3C532.47,-271.18 1016.45,-264.43 1073,-229 1123.59,-197.3 1166.75,-150.55 1127,-106 1105.76,-82.2 902.75,-69.65 802.07,-64.85"/>
<polygon fill="#63b8ff" stroke="#63b8ff" points="802.22,-61.35 792.06,-64.38 801.89,-68.35 802.22,-61.35"/>
</a>
</g>
</g>
<!-- Node17 -->
<g id="Node000017" class="node">
<title>Node17</title>
<g id="a_Node000017"><a xlink:href="../../df/d93/utils_8hpp.html" target="_top" xlink:title=" ">
<polygon fill="#fff0f0" stroke="red" points="255.5,-123 180.5,-123 180.5,-106 255.5,-106 255.5,-123"/>
<text text-anchor="middle" x="218" y="-112.6" font-family="Helvetica,sans-Serif" font-size="8.00">../../utils/utils.hpp</text>
</a>
</g>
</g>
<!-- Node1&#45;&gt;Node17 -->
<g id="edge40_Node000001_Node000017" class="edge">
<title>Node1&#45;&gt;Node17</title>
<g id="a_edge40_Node000001_Node000017"><a xlink:title=" ">
<path fill="none" stroke="#63b8ff" d="M382.66,-264.93C355.66,-240.43 270.37,-163.03 234.33,-130.32"/>
<polygon fill="#63b8ff" stroke="#63b8ff" points="236.43,-127.49 226.67,-123.37 231.72,-132.68 236.43,-127.49"/>
</a>
</g>
</g>
<!-- Node23 -->
<g id="Node000023" class="node">
<title>Node23</title>
<g id="a_Node000023"><a xlink:href="../../d8/d62/existence__set_8hpp.html" target="_top" xlink:title=" ">
<polygon fill="white" stroke="#666666" points="464.5,-176 317.5,-176 317.5,-159 464.5,-159 464.5,-176"/>
<text text-anchor="middle" x="391" y="-165.6" font-family="Helvetica,sans-Serif" font-size="8.00">../types/containers/existence_set.hpp</text>
</a>
</g>
</g>
<!-- Node1&#45;&gt;Node23 -->
<g id="edge25_Node000001_Node000023" class="edge">
<title>Node1&#45;&gt;Node23</title>
<g id="a_edge25_Node000001_Node000023"><a xlink:title=" ">
<path fill="none" stroke="#63b8ff" d="M391,-264.68C391,-248.11 391,-209.11 391,-186.18"/>
<polygon fill="#63b8ff" stroke="#63b8ff" points="394.5,-186.12 391,-176.12 387.5,-186.13 394.5,-186.12"/>
</a>
</g>
</g>
<!-- Node24 -->
<g id="Node000024" class="node">
<title>Node24</title>
<g id="a_Node000024"><a xlink:href="../../da/d45/heap_8hpp.html" target="_top" xlink:title=" ">
<polygon fill="white" stroke="#666666" points="628.5,-176 511.5,-176 511.5,-159 628.5,-159 628.5,-176"/>
<text text-anchor="middle" x="570" y="-165.6" font-family="Helvetica,sans-Serif" font-size="8.00">../types/containers/heap.hpp</text>
</a>
</g>
</g>
<!-- Node1&#45;&gt;Node24 -->
<g id="edge34_Node000001_Node000024" class="edge">
<title>Node1&#45;&gt;Node24</title>
<g id="a_edge34_Node000001_Node000024"><a xlink:title=" ">
<path fill="none" stroke="#63b8ff" d="M404.16,-264.85C434.68,-247.12 510.52,-203.06 548.13,-181.21"/>
<polygon fill="#63b8ff" stroke="#63b8ff" points="549.93,-184.21 556.82,-176.16 546.41,-178.16 549.93,-184.21"/>
</a>
</g>
</g>
<!-- Node25 -->
<g id="Node000025" class="node">
<title>Node25</title>
<g id="a_Node000025"><a xlink:href="../../d2/d1c/solver_8hpp.html" target="_top" xlink:title=" ">
<polygon fill="white" stroke="#666666" points="254,-176 182,-176 182,-159 254,-159 254,-176"/>
<text text-anchor="middle" x="218" y="-165.6" font-family="Helvetica,sans-Serif" font-size="8.00">base/solver.hpp</text>
</a>
</g>
</g>
<!-- Node1&#45;&gt;Node25 -->
<g id="edge41_Node000001_Node000025" class="edge">
<title>Node1&#45;&gt;Node25</title>
<g id="a_edge41_Node000001_Node000025"><a xlink:title=" ">
<path fill="none" stroke="#63b8ff" d="M365.63,-267.07C340.33,-260.82 301.12,-248.76 272,-229 254.4,-217.05 238.76,-198.13 228.9,-184.63"/>
<polygon fill="#63b8ff" stroke="#63b8ff" points="231.66,-182.47 223.04,-176.3 225.93,-186.49 231.66,-182.47"/>
</a>
</g>
</g>
<!-- Node4 -->
<g id="Node000004" class="node">
<title>Node4</title>
<g id="a_Node000004"><a xlink:title=" ">
<polygon fill="#e0e0e0" stroke="#999999" points="1042,-123 1000,-123 1000,-106 1042,-106 1042,-123"/>
<text text-anchor="middle" x="1021" y="-112.6" font-family="Helvetica,sans-Serif" font-size="8.00">cassert</text>
</a>
</g>
</g>
<!-- Node3&#45;&gt;Node4 -->
<g id="edge3_Node000003_Node000004" class="edge">
<title>Node3&#45;&gt;Node4</title>
<g id="a_edge3_Node000003_Node000004"><a xlink:title=" ">
<path fill="none" stroke="#63b8ff" d="M995.1,-211.68C999.59,-195.04 1010.16,-155.75 1016.32,-132.87"/>
<polygon fill="#63b8ff" stroke="#63b8ff" points="1019.73,-133.69 1018.95,-123.12 1012.97,-131.87 1019.73,-133.69"/>
</a>
</g>
</g>
<!-- Node5 -->
<g id="Node000005" class="node">
<title>Node5</title>
<g id="a_Node000005"><a xlink:title=" ">
<polygon fill="#e0e0e0" stroke="#999999" points="1099.5,-123 1060.5,-123 1060.5,-106 1099.5,-106 1099.5,-123"/>
<text text-anchor="middle" x="1080" y="-112.6" font-family="Helvetica,sans-Serif" font-size="8.00">cstdint</text>
</a>
</g>
</g>
<!-- Node3&#45;&gt;Node5 -->
<g id="edge4_Node000003_Node000005" class="edge">
<title>Node3&#45;&gt;Node5</title>
<g id="a_edge4_Node000003_Node000005"><a xlink:title=" ">
<path fill="none" stroke="#63b8ff" d="M999.54,-211.68C1013.84,-194.58 1048.13,-153.59 1067,-131.03"/>
<polygon fill="#63b8ff" stroke="#63b8ff" points="1069.89,-133.04 1073.62,-123.12 1064.52,-128.55 1069.89,-133.04"/>
</a>
</g>
</g>
<!-- Node6 -->
<g id="Node000006" class="node">
<title>Node6</title>
<g id="a_Node000006"><a xlink:href="../../dc/d3c/bnode_8hpp.html" target="_top" xlink:title=" ">
<polygon fill="white" stroke="#666666" points="992.5,-176 937.5,-176 937.5,-159 992.5,-159 992.5,-176"/>
<text text-anchor="middle" x="965" y="-165.6" font-family="Helvetica,sans-Serif" font-size="8.00">bnode.hpp</text>
</a>
</g>
</g>
<!-- Node3&#45;&gt;Node6 -->
<g id="edge5_Node000003_Node000006" class="edge">
<title>Node3&#45;&gt;Node6</title>
<g id="a_edge5_Node000003_Node000006"><a xlink:title=" ">
<path fill="none" stroke="#63b8ff" d="M988.87,-211.97C984.98,-204.89 979.03,-194.05 974.04,-184.96"/>
<polygon fill="#63b8ff" stroke="#63b8ff" points="977.03,-183.14 969.15,-176.06 970.89,-186.51 977.03,-183.14"/>
</a>
</g>
</g>
<!-- Node7 -->
<g id="Node000007" class="node">
<title>Node7</title>
<g id="a_Node000007"><a xlink:href="../../d9/df8/heterogeneous__pool_8hpp.html" target="_top" xlink:title=" ">
<polygon fill="white" stroke="#666666" points="909.5,-176 752.5,-176 752.5,-159 909.5,-159 909.5,-176"/>
<text text-anchor="middle" x="831" y="-165.6" font-family="Helvetica,sans-Serif" font-size="8.00">../../types/pmr/heterogeneous_pool.hpp</text>
</a>
</g>
</g>
<!-- Node3&#45;&gt;Node7 -->
<g id="edge6_Node000003_Node000007" class="edge">
<title>Node3&#45;&gt;Node7</title>
<g id="a_edge6_Node000003_Node000007"><a xlink:title=" ">
<path fill="none" stroke="#63b8ff" d="M969.1,-211.97C941.46,-203.27 895.78,-188.89 864.58,-179.07"/>
<polygon fill="#63b8ff" stroke="#63b8ff" points="865.59,-175.72 855,-176.06 863.49,-182.4 865.59,-175.72"/>
</a>
</g>
</g>
<!-- Node3&#45;&gt;Node14 -->
<g id="edge24_Node000003_Node000014" class="edge">
<title>Node3&#45;&gt;Node14</title>
<g id="a_edge24_Node000003_Node000014"><a xlink:title=" ">
<path fill="none" stroke="#63b8ff" d="M1011.97,-211.9C1053.64,-194.17 1146.59,-148.36 1109,-106 1089.01,-83.47 899.06,-70.43 802.21,-65.2"/>
<polygon fill="#63b8ff" stroke="#63b8ff" points="802.18,-61.69 792,-64.66 801.8,-68.68 802.18,-61.69"/>
</a>
</g>
</g>
<!-- Node7&#45;&gt;Node2 -->
<g id="edge8_Node000007_Node000002" class="edge">
<title>Node7&#45;&gt;Node2</title>
<g id="a_edge8_Node000007_Node000002"><a xlink:title=" ">
<path fill="none" stroke="#63b8ff" d="M831.62,-158.94C832.86,-138.29 833.15,-80.63 801,-53 772.95,-28.9 519.25,-15.05 429.38,-10.86"/>
<polygon fill="#63b8ff" stroke="#63b8ff" points="429.41,-7.36 419.26,-10.4 429.09,-14.35 429.41,-7.36"/>
</a>
</g>
</g>
<!-- Node7&#45;&gt;Node4 -->
<g id="edge7_Node000007_Node000004" class="edge">
<title>Node7&#45;&gt;Node4</title>
<g id="a_edge7_Node000007_Node000004"><a xlink:title=" ">
<path fill="none" stroke="#63b8ff" d="M859.04,-158.97C893.99,-149.59 953.54,-133.61 989.87,-123.86"/>
<polygon fill="#63b8ff" stroke="#63b8ff" points="991.16,-127.13 999.91,-121.16 989.34,-120.37 991.16,-127.13"/>
</a>
</g>
</g>
<!-- Node7&#45;&gt;Node5 -->
<g id="edge9_Node000007_Node000005" class="edge">
<title>Node7&#45;&gt;Node5</title>
<g id="a_edge9_Node000007_Node000005"><a xlink:title=" ">
<path fill="none" stroke="#63b8ff" d="M872.92,-158.96C915.22,-151.18 982.62,-138.34 1050.38,-123.02"/>
<polygon fill="#63b8ff" stroke="#63b8ff" points="1051.41,-126.37 1060.38,-120.74 1049.85,-119.55 1051.41,-126.37"/>
</a>
</g>
</g>
<!-- Node8 -->
<g id="Node000008" class="node">
<title>Node8</title>
<g id="a_Node000008"><a xlink:title=" ">
<polygon fill="#e0e0e0" stroke="#999999" points="296,-70 262,-70 262,-53 296,-53 296,-70"/>
<text text-anchor="middle" x="279" y="-59.6" font-family="Helvetica,sans-Serif" font-size="8.00">limits</text>
</a>
</g>
</g>
<!-- Node7&#45;&gt;Node8 -->
<g id="edge10_Node000007_Node000008" class="edge">
<title>Node7&#45;&gt;Node8</title>
<g id="a_edge10_Node000007_Node000008"><a xlink:title=" ">
<path fill="none" stroke="#63b8ff" d="M812.76,-158.98C780.39,-145.96 710.5,-119.34 649,-106 501.36,-73.99 459.94,-95.29 311,-70 309.49,-69.74 307.94,-69.46 306.38,-69.15"/>
<polygon fill="#63b8ff" stroke="#63b8ff" points="306.71,-65.64 296.19,-66.94 305.22,-72.48 306.71,-65.64"/>
</a>
</g>
</g>
<!-- Node9 -->
<g id="Node000009" class="node">
<title>Node9</title>
<g id="a_Node000009"><a xlink:title=" ">
<polygon fill="#e0e0e0" stroke="#999999" points="880,-123 848,-123 848,-106 880,-106 880,-123"/>
<text text-anchor="middle" x="864" y="-112.6" font-family="Helvetica,sans-Serif" font-size="8.00">map</text>
</a>
</g>
</g>
<!-- Node7&#45;&gt;Node9 -->
<g id="edge11_Node000007_Node000009" class="edge">
<title>Node7&#45;&gt;Node9</title>
<g id="a_edge11_Node000007_Node000009"><a xlink:title=" ">
<path fill="none" stroke="#63b8ff" d="M835.87,-158.97C840.5,-151.82 847.62,-140.82 853.53,-131.67"/>
<polygon fill="#63b8ff" stroke="#63b8ff" points="856.62,-133.35 859.11,-123.06 850.74,-129.55 856.62,-133.35"/>
</a>
</g>
</g>
<!-- Node10 -->
<g id="Node000010" class="node">
<title>Node10</title>
<g id="a_Node000010"><a xlink:title=" ">
<polygon fill="#e0e0e0" stroke="#999999" points="930,-123 898,-123 898,-106 930,-106 930,-123"/>
<text text-anchor="middle" x="914" y="-112.6" font-family="Helvetica,sans-Serif" font-size="8.00">new</text>
</a>
</g>
</g>
<!-- Node7&#45;&gt;Node10 -->
<g id="edge12_Node000007_Node000010" class="edge">
<title>Node7&#45;&gt;Node10</title>
<g id="a_edge12_Node000007_Node000010"><a xlink:title=" ">
<path fill="none" stroke="#63b8ff" d="M843.25,-158.97C856.36,-150.91 877.42,-137.98 893.15,-128.31"/>
<polygon fill="#63b8ff" stroke="#63b8ff" points="895.02,-131.27 901.7,-123.06 891.35,-125.31 895.02,-131.27"/>
</a>
</g>
</g>
<!-- Node11 -->
<g id="Node000011" class="node">
<title>Node11</title>
<g id="a_Node000011"><a xlink:title=" ">
<polygon fill="#e0e0e0" stroke="#999999" points="982,-123 948,-123 948,-106 982,-106 982,-123"/>
<text text-anchor="middle" x="965" y="-112.6" font-family="Helvetica,sans-Serif" font-size="8.00">utility</text>
</a>
</g>
</g>
<!-- Node7&#45;&gt;Node11 -->
<g id="edge13_Node000007_Node000011" class="edge">
<title>Node7&#45;&gt;Node11</title>
<g id="a_edge13_Node000007_Node000011"><a xlink:title=" ">
<path fill="none" stroke="#63b8ff" d="M850.77,-158.97C873.91,-150.17 912.34,-135.54 938.15,-125.72"/>
<polygon fill="#63b8ff" stroke="#63b8ff" points="939.6,-128.91 947.7,-122.08 937.11,-122.37 939.6,-128.91"/>
</a>
</g>
</g>
<!-- Node12 -->
<g id="Node000012" class="node">
<title>Node12</title>
<g id="a_Node000012"><a xlink:title=" ">
<polygon fill="#e0e0e0" stroke="#999999" points="502,-123 464,-123 464,-106 502,-106 502,-123"/>
<text text-anchor="middle" x="483" y="-112.6" font-family="Helvetica,sans-Serif" font-size="8.00">vector</text>
</a>
</g>
</g>
<!-- Node7&#45;&gt;Node12 -->
<g id="edge14_Node000007_Node000012" class="edge">
<title>Node7&#45;&gt;Node12</title>
<g id="a_edge14_Node000007_Node000012"><a xlink:title=" ">
<path fill="none" stroke="#63b8ff" d="M779.65,-158.97C705.61,-148.12 571.28,-128.44 512.2,-119.78"/>
<polygon fill="#63b8ff" stroke="#63b8ff" points="512.48,-116.28 502.08,-118.3 511.47,-123.21 512.48,-116.28"/>
</a>
</g>
</g>
<!-- Node13 -->
<g id="Node000013" class="node">
<title>Node13</title>
<g id="a_Node000013"><a xlink:title=" ">
<polygon fill="#e0e0e0" stroke="#999999" points="640,-123 558,-123 558,-106 640,-106 640,-123"/>
<text text-anchor="middle" x="599" y="-112.6" font-family="Helvetica,sans-Serif" font-size="8.00">memory_resource</text>
</a>
</g>
</g>
<!-- Node7&#45;&gt;Node13 -->
<g id="edge15_Node000007_Node000013" class="edge">
<title>Node7&#45;&gt;Node13</title>
<g id="a_edge15_Node000007_Node000013"><a xlink:title=" ">
<path fill="none" stroke="#63b8ff" d="M796.77,-158.97C756.07,-150.03 688.06,-135.08 643.37,-125.25"/>
<polygon fill="#63b8ff" stroke="#63b8ff" points="643.89,-121.78 633.37,-123.06 642.39,-128.62 643.89,-121.78"/>
</a>
</g>
</g>
<!-- Node7&#45;&gt;Node14 -->
<g id="edge16_Node000007_Node000014" class="edge">
<title>Node7&#45;&gt;Node14</title>
<g id="a_edge16_Node000007_Node000014"><a xlink:title=" ">
<path fill="none" stroke="#63b8ff" d="M824.61,-158.68C810.64,-141.58 777.13,-100.59 758.7,-78.03"/>
<polygon fill="#63b8ff" stroke="#63b8ff" points="761.27,-75.65 752.23,-70.12 755.85,-80.08 761.27,-75.65"/>
</a>
</g>
</g>
<!-- Node7&#45;&gt;Node17 -->
<g id="edge18_Node000007_Node000017" class="edge">
<title>Node7&#45;&gt;Node17</title>
<g id="a_edge18_Node000007_Node000017"><a xlink:title=" ">
<path fill="none" stroke="#63b8ff" d="M752.43,-159.96C623.46,-149.23 370.71,-128.2 265.61,-119.46"/>
<polygon fill="#63b8ff" stroke="#63b8ff" points="265.86,-115.97 255.61,-118.63 265.28,-122.95 265.86,-115.97"/>
</a>
</g>
</g>
<!-- Node14&#45;&gt;Node2 -->
<g id="edge17_Node000014_Node000002" class="edge">
<title>Node14&#45;&gt;Node2</title>
<g id="a_edge17_Node000014_Node000002"><a xlink:title=" ">
<path fill="none" stroke="#63b8ff" d="M699.79,-53.73C627.93,-43.2 491.26,-23.17 429.59,-14.13"/>
<polygon fill="#63b8ff" stroke="#63b8ff" points="429.72,-10.61 419.32,-12.62 428.71,-17.54 429.72,-10.61"/>
</a>
</g>
</g>
<!-- Node17&#45;&gt;Node2 -->
<g id="edge19_Node000017_Node000002" class="edge">
<title>Node17&#45;&gt;Node2</title>
<g id="a_edge19_Node000017_Node000002"><a xlink:title=" ">
<path fill="none" stroke="#63b8ff" d="M220.31,-105.96C224.62,-93.14 235.1,-67.15 253,-53 286.25,-26.72 335.15,-16.29 366.79,-12.16"/>
<polygon fill="#63b8ff" stroke="#63b8ff" points="367.28,-15.63 376.81,-10.99 366.47,-8.68 367.28,-15.63"/>
</a>
</g>
</g>
<!-- Node17&#45;&gt;Node8 -->
<g id="edge21_Node000017_Node000008" class="edge">
<title>Node17&#45;&gt;Node8</title>
<g id="a_edge21_Node000017_Node000008"><a xlink:title=" ">
<path fill="none" stroke="#63b8ff" d="M227,-105.97C236.19,-98.29 250.68,-86.18 262.03,-76.69"/>
<polygon fill="#63b8ff" stroke="#63b8ff" points="264.54,-79.16 269.96,-70.06 260.05,-73.79 264.54,-79.16"/>
</a>
</g>
</g>
<!-- Node17&#45;&gt;Node14 -->
<g id="edge23_Node000017_Node000014" class="edge">
<title>Node17&#45;&gt;Node14</title>
<g id="a_edge23_Node000017_Node000014"><a xlink:title=" ">
<path fill="none" stroke="#63b8ff" d="M255.74,-107.82C260.54,-107.17 265.38,-106.54 270,-106 421.42,-88.17 600.67,-73.53 689.81,-66.68"/>
<polygon fill="#63b8ff" stroke="#63b8ff" points="690.26,-70.16 699.97,-65.9 689.73,-63.18 690.26,-70.16"/>
</a>
</g>
</g>
<!-- Node20 -->
<g id="Node000020" class="node">
<title>Node20</title>
<g id="a_Node000020"><a xlink:title=" ">
<polygon fill="#e0e0e0" stroke="#999999" points="370,-70 320,-70 320,-53 370,-53 370,-70"/>
<text text-anchor="middle" x="345" y="-59.6" font-family="Helvetica,sans-Serif" font-size="8.00">functional</text>
</a>
</g>
</g>
<!-- Node17&#45;&gt;Node20 -->
<g id="edge20_Node000017_Node000020" class="edge">
<title>Node17&#45;&gt;Node20</title>
<g id="a_edge20_Node000017_Node000020"><a xlink:title=" ">
<path fill="none" stroke="#63b8ff" d="M236.74,-105.97C257.84,-97.5 292.37,-83.64 316.75,-73.85"/>
<polygon fill="#63b8ff" stroke="#63b8ff" points="318.21,-77.03 326.18,-70.06 315.6,-70.53 318.21,-77.03"/>
</a>
</g>
</g>
<!-- Node22 -->
<g id="Node000022" class="node">
<title>Node22</title>
<g id="a_Node000022"><a xlink:title=" ">
<polygon fill="#e0e0e0" stroke="#999999" points="140.5,-70 87.5,-70 87.5,-53 140.5,-53 140.5,-70"/>
<text text-anchor="middle" x="114" y="-59.6" font-family="Helvetica,sans-Serif" font-size="8.00">type_traits</text>
</a>
</g>
</g>
<!-- Node17&#45;&gt;Node22 -->
<g id="edge22_Node000017_Node000022" class="edge">
<title>Node17&#45;&gt;Node22</title>
<g id="a_edge22_Node000017_Node000022"><a xlink:title=" ">
<path fill="none" stroke="#63b8ff" d="M202.65,-105.97C185.76,-97.69 158.35,-84.25 138.48,-74.5"/>
<polygon fill="#63b8ff" stroke="#63b8ff" points="139.93,-71.32 129.41,-70.06 136.85,-77.6 139.93,-71.32"/>
</a>
</g>
</g>
<!-- Node23&#45;&gt;Node2 -->
<g id="edge26_Node000023_Node000002" class="edge">
<title>Node23&#45;&gt;Node2</title>
<g id="a_edge26_Node000023_Node000002"><a xlink:title=" ">
<path fill="none" stroke="#63b8ff" d="M391.34,-158.93C392.39,-135.26 395.65,-62.19 397.18,-27.78"/>
<polygon fill="#63b8ff" stroke="#63b8ff" points="400.7,-27.51 397.65,-17.37 393.71,-27.2 400.7,-27.51"/>
</a>
</g>
</g>
<!-- Node23&#45;&gt;Node8 -->
<g id="edge28_Node000023_Node000008" class="edge">
<title>Node23&#45;&gt;Node8</title>
<g id="a_edge28_Node000023_Node000008"><a xlink:title=" ">
<path fill="none" stroke="#63b8ff" d="M382.58,-158.68C363.92,-141.36 318.85,-99.5 294.77,-77.15"/>
<polygon fill="#63b8ff" stroke="#63b8ff" points="296.92,-74.36 287.21,-70.12 292.16,-79.49 296.92,-74.36"/>
</a>
</g>
</g>
<!-- Node23&#45;&gt;Node12 -->
<g id="edge31_Node000023_Node000012" class="edge">
<title>Node23&#45;&gt;Node12</title>
<g id="a_edge31_Node000023_Node000012"><a xlink:title=" ">
<path fill="none" stroke="#63b8ff" d="M404.57,-158.97C419.25,-150.84 442.89,-137.74 460.38,-128.04"/>
<polygon fill="#63b8ff" stroke="#63b8ff" points="462.32,-130.97 469.37,-123.06 458.93,-124.84 462.32,-130.97"/>
</a>
</g>
</g>
<!-- Node23&#45;&gt;Node13 -->
<g id="edge29_Node000023_Node000013" class="edge">
<title>Node23&#45;&gt;Node13</title>
<g id="a_edge29_Node000023_Node000013"><a xlink:title=" ">
<path fill="none" stroke="#63b8ff" d="M421.69,-158.97C457.94,-150.09 518.38,-135.27 558.46,-125.44"/>
<polygon fill="#63b8ff" stroke="#63b8ff" points="559.3,-128.84 568.18,-123.06 557.64,-122.04 559.3,-128.84"/>
</a>
</g>
</g>
<!-- Node23&#45;&gt;Node14 -->
<g id="edge33_Node000023_Node000014" class="edge">
<title>Node23&#45;&gt;Node14</title>
<g id="a_edge33_Node000023_Node000014"><a xlink:title=" ">
<path fill="none" stroke="#63b8ff" d="M396.68,-158.62C406.75,-145.31 429.15,-118.58 455,-106 495.28,-86.4 616.94,-73.24 689.57,-66.89"/>
<polygon fill="#63b8ff" stroke="#63b8ff" points="690.26,-70.35 699.92,-66.01 689.66,-63.37 690.26,-70.35"/>
</a>
</g>
</g>
<!-- Node23&#45;&gt;Node17 -->
<g id="edge32_Node000023_Node000017" class="edge">
<title>Node23&#45;&gt;Node17</title>
<g id="a_edge32_Node000023_Node000017"><a xlink:title=" ">
<path fill="none" stroke="#63b8ff" d="M365.47,-158.97C335.83,-150.24 286.75,-135.77 253.43,-125.94"/>
<polygon fill="#63b8ff" stroke="#63b8ff" points="254.21,-122.53 243.63,-123.06 252.23,-129.24 254.21,-122.53"/>
</a>
</g>
</g>
<!-- Node23&#45;&gt;Node20 -->
<g id="edge27_Node000023_Node000020" class="edge">
<title>Node23&#45;&gt;Node20</title>
<g id="a_edge27_Node000023_Node000020"><a xlink:title=" ">
<path fill="none" stroke="#63b8ff" d="M387.54,-158.68C380.15,-141.96 362.65,-102.39 352.55,-79.56"/>
<polygon fill="#63b8ff" stroke="#63b8ff" points="355.62,-77.85 348.37,-70.12 349.22,-80.69 355.62,-77.85"/>
</a>
</g>
</g>
<!-- Node23&#45;&gt;Node22 -->
<g id="edge30_Node000023_Node000022" class="edge">
<title>Node23&#45;&gt;Node22</title>
<g id="a_edge30_Node000023_Node000022"><a xlink:title=" ">
<path fill="none" stroke="#63b8ff" d="M317.3,-163.22C272.63,-158.58 215.8,-147.78 171,-123 151.52,-112.23 134.83,-92.48 124.63,-78.48"/>
<polygon fill="#63b8ff" stroke="#63b8ff" points="127.49,-76.46 118.9,-70.26 121.75,-80.46 127.49,-76.46"/>
</a>
</g>
</g>
<!-- Node24&#45;&gt;Node2 -->
<g id="edge35_Node000024_Node000002" class="edge">
<title>Node24&#45;&gt;Node2</title>
<g id="a_edge35_Node000024_Node000002"><a xlink:title=" ">
<path fill="none" stroke="#63b8ff" d="M595.88,-158.97C624.86,-149.16 665.73,-130.35 649,-106 598.82,-32.94 485.03,-15.17 429.57,-10.87"/>
<polygon fill="#63b8ff" stroke="#63b8ff" points="429.5,-7.35 419.29,-10.17 429.03,-14.34 429.5,-7.35"/>
</a>
</g>
</g>
<!-- Node24&#45;&gt;Node12 -->
<g id="edge37_Node000024_Node000012" class="edge">
<title>Node24&#45;&gt;Node12</title>
<g id="a_edge37_Node000024_Node000012"><a xlink:title=" ">
<path fill="none" stroke="#63b8ff" d="M557.16,-158.97C543.41,-150.91 521.35,-137.98 504.85,-128.31"/>
<polygon fill="#63b8ff" stroke="#63b8ff" points="506.29,-125.09 495.89,-123.06 502.75,-131.13 506.29,-125.09"/>
</a>
</g>
</g>
<!-- Node24&#45;&gt;Node13 -->
<g id="edge38_Node000024_Node000013" class="edge">
<title>Node24&#45;&gt;Node13</title>
<g id="a_edge38_Node000024_Node000013"><a xlink:title=" ">
<path fill="none" stroke="#63b8ff" d="M574.28,-158.97C578.31,-151.89 584.47,-141.05 589.64,-131.96"/>
<polygon fill="#63b8ff" stroke="#63b8ff" points="592.8,-133.48 594.7,-123.06 586.72,-130.02 592.8,-133.48"/>
</a>
</g>
</g>
<!-- Node24&#45;&gt;Node14 -->
<g id="edge39_Node000024_Node000014" class="edge">
<title>Node24&#45;&gt;Node14</title>
<g id="a_edge39_Node000024_Node000014"><a xlink:title=" ">
<path fill="none" stroke="#63b8ff" d="M628.78,-161.42C659.11,-156.07 694.9,-145.17 720,-123 732.58,-111.88 739.29,-93.61 742.71,-80.05"/>
<polygon fill="#63b8ff" stroke="#63b8ff" points="746.19,-80.54 744.88,-70.03 739.35,-79.06 746.19,-80.54"/>
</a>
</g>
</g>
<!-- Node24&#45;&gt;Node20 -->
<g id="edge36_Node000024_Node000020" class="edge">
<title>Node24&#45;&gt;Node20</title>
<g id="a_edge36_Node000024_Node000020"><a xlink:title=" ">
<path fill="none" stroke="#63b8ff" d="M564.77,-158.9C555.48,-146 534.84,-119.87 511,-106 469.93,-82.1 415.6,-71.09 380.47,-66.19"/>
<polygon fill="#63b8ff" stroke="#63b8ff" points="380.59,-62.68 370.22,-64.86 379.69,-69.62 380.59,-62.68"/>
</a>
</g>
</g>
<!-- Node25&#45;&gt;Node2 -->
<g id="edge42_Node000025_Node000002" class="edge">
<title>Node25&#45;&gt;Node2</title>
<g id="a_edge42_Node000025_Node000002"><a xlink:title=" ">
<path fill="none" stroke="#63b8ff" d="M181.8,-163.16C153.52,-158.64 115.23,-148.01 92,-123 70.41,-99.75 57.13,-76.9 78,-53 115.27,-10.32 293.17,-7.92 366.4,-8.8"/>
<polygon fill="#63b8ff" stroke="#63b8ff" points="366.76,-12.3 376.82,-8.95 366.87,-5.3 366.76,-12.3"/>
</a>
</g>
</g>
<!-- Node25&#45;&gt;Node8 -->
<g id="edge43_Node000025_Node000008" class="edge">
<title>Node25&#45;&gt;Node8</title>
<g id="a_edge43_Node000025_Node000008"><a xlink:title=" ">
<path fill="none" stroke="#63b8ff" d="M204.49,-158.92C186.28,-147.69 157.6,-125.84 171,-106 188.92,-79.47 226,-69.12 251.68,-65.08"/>
<polygon fill="#63b8ff" stroke="#63b8ff" points="252.45,-68.51 261.89,-63.71 251.52,-61.57 252.45,-68.51"/>
</a>
</g>
</g>
<!-- Node25&#45;&gt;Node12 -->
<g id="edge45_Node000025_Node000012" class="edge">
<title>Node25&#45;&gt;Node12</title>
<g id="a_edge45_Node000025_Node000012"><a xlink:title=" ">
<path fill="none" stroke="#63b8ff" d="M254.01,-159.57C307.02,-149.37 405,-130.51 453.8,-121.12"/>
<polygon fill="#63b8ff" stroke="#63b8ff" points="454.55,-124.54 463.71,-119.21 453.23,-117.67 454.55,-124.54"/>
</a>
</g>
</g>
<!-- Node25&#45;&gt;Node14 -->
<g id="edge47_Node000025_Node000014" class="edge">
<title>Node25&#45;&gt;Node14</title>
<g id="a_edge47_Node000025_Node000014"><a xlink:title=" ">
<path fill="none" stroke="#63b8ff" d="M240,-158.97C277.8,-146.31 357.71,-120.67 427,-106 518.04,-86.72 625.58,-74.12 689.66,-67.67"/>
<polygon fill="#63b8ff" stroke="#63b8ff" points="690.34,-71.12 699.94,-66.65 689.65,-64.15 690.34,-71.12"/>
</a>
</g>
</g>
<!-- Node25&#45;&gt;Node17 -->
<g id="edge46_Node000025_Node000017" class="edge">
<title>Node25&#45;&gt;Node17</title>
<g id="a_edge46_Node000025_Node000017"><a xlink:title=" ">
<path fill="none" stroke="#63b8ff" d="M218,-158.97C218,-152.19 218,-141.97 218,-133.13"/>
<polygon fill="#63b8ff" stroke="#63b8ff" points="221.5,-133.06 218,-123.06 214.5,-133.06 221.5,-133.06"/>
</a>
</g>
</g>
<!-- Node25&#45;&gt;Node22 -->
<g id="edge44_Node000025_Node000022" class="edge">
<title>Node25&#45;&gt;Node22</title>
<g id="a_edge44_Node000025_Node000022"><a xlink:title=" ">
<path fill="none" stroke="#63b8ff" d="M181.74,-163.83C154.29,-159.69 118.29,-149.24 100,-123 90.96,-110.03 96.87,-92.07 103.57,-79.09"/>
<polygon fill="#63b8ff" stroke="#63b8ff" points="106.67,-80.72 108.61,-70.3 100.6,-77.24 106.67,-80.72"/>
</a>
</g>
</g>
</g>
</svg>
