<?xml version="1.0" encoding="UTF-8" standalone="no"?>
<!DOCTYPE svg PUBLIC "-//W3C//DTD SVG 1.1//EN"
 "http://www.w3.org/Graphics/SVG/1.1/DTD/svg11.dtd">
<!-- Generated by graphviz version 2.43.0 (0)
 -->
<!-- Title: gstar.hpp Pages: 1 -->
<svg width="1171pt" height="290pt"
 viewBox="0.00 0.00 1170.72 290.00" xmlns="http://www.w3.org/2000/svg" xmlns:xlink="http://www.w3.org/1999/xlink">
<g id="graph0" class="graph" transform="scale(1 1) rotate(0) translate(4 286)">
<title>gstar.hpp</title>
<!-- Node1 -->
<g id="Node000001" class="node">
<title>Node1</title>
<g id="a_Node000001"><a xlink:title=" ">
<polygon fill="#999999" stroke="#666666" points="409.72,-282 359.72,-282 359.72,-265 409.72,-265 409.72,-282"/>
<text text-anchor="middle" x="384.72" y="-271.6" font-family="Helvetica,sans-Serif" font-size="8.00">gstar.hpp</text>
</a>
</g>
</g>
<!-- Node2 -->
<g id="Node000002" class="node">
<title>Node2</title>
<g id="a_Node000002"><a xlink:title=" ">
<polygon fill="#e0e0e0" stroke="#999999" points="443.72,-17 401.72,-17 401.72,0 443.72,0 443.72,-17"/>
<text text-anchor="middle" x="422.72" y="-6.6" font-family="Helvetica,sans-Serif" font-size="8.00">cstddef</text>
</a>
</g>
</g>
<!-- Node1&#45;&gt;Node2 -->
<g id="edge1_Node000001_Node000002" class="edge">
<title>Node1&#45;&gt;Node2</title>
<g id="a_edge1_Node000001_Node000002"><a xlink:title=" ">
<path fill="none" stroke="#63b8ff" d="M409.85,-272.38C467.97,-270.68 612.5,-257.96 687.72,-176 704.05,-158.21 697.04,-147 699.72,-123 711.47,-17.9 529.52,-8.17 454.39,-8.6"/>
<polygon fill="#63b8ff" stroke="#63b8ff" points="454.07,-5.1 444.11,-8.73 454.15,-12.1 454.07,-5.1"/>
</a>
</g>
</g>
<!-- Node3 -->
<g id="Node000003" class="node">
<title>Node3</title>
<g id="a_Node000003"><a xlink:href="../../da/deb/managed__node_8hpp.html" target="_top" xlink:title=" ">
<polygon fill="white" stroke="#666666" points="916.72,-229 774.72,-229 774.72,-212 916.72,-212 916.72,-229"/>
<text text-anchor="middle" x="845.72" y="-218.6" font-family="Helvetica,sans-Serif" font-size="8.00">../solvers/base/managed_node.hpp</text>
</a>
</g>
</g>
<!-- Node1&#45;&gt;Node3 -->
<g id="edge2_Node000001_Node000003" class="edge">
<title>Node1&#45;&gt;Node3</title>
<g id="a_edge2_Node000001_Node000003"><a xlink:title=" ">
<path fill="none" stroke="#63b8ff" d="M409.84,-269.72C476.73,-262.32 661.35,-241.9 767.63,-230.14"/>
<polygon fill="#63b8ff" stroke="#63b8ff" points="768.11,-233.61 777.66,-229.03 767.34,-226.65 768.11,-233.61"/>
</a>
</g>
</g>
<!-- Node14 -->
<g id="Node000014" class="node">
<title>Node14</title>
<g id="a_Node000014"><a xlink:href="../../d7/d65/intrinsics_8hpp.html" target="_top" xlink:title=" ">
<polygon fill="#fff0f0" stroke="red" points="231.72,-70 139.72,-70 139.72,-53 231.72,-53 231.72,-70"/>
<text text-anchor="middle" x="185.72" y="-59.6" font-family="Helvetica,sans-Serif" font-size="8.00">../../utils/intrinsics.hpp</text>
</a>
</g>
</g>
<!-- Node1&#45;&gt;Node14 -->
<g id="edge48_Node000001_Node000014" class="edge">
<title>Node1&#45;&gt;Node14</title>
<g id="a_edge48_Node000001_Node000014"><a xlink:title=" ">
<path fill="none" stroke="#63b8ff" d="M359.56,-269.69C285.12,-260.78 68.71,-230.55 28.72,-176 -7.58,-126.49 87.72,-89.88 145.39,-72.94"/>
<polygon fill="#63b8ff" stroke="#63b8ff" points="146.68,-76.21 155.34,-70.11 144.76,-69.48 146.68,-76.21"/>
</a>
</g>
</g>
<!-- Node17 -->
<g id="Node000017" class="node">
<title>Node17</title>
<g id="a_Node000017"><a xlink:href="../../df/d93/utils_8hpp.html" target="_top" xlink:title=" ">
<polygon fill="#fff0f0" stroke="red" points="279.22,-123 204.22,-123 204.22,-106 279.22,-106 279.22,-123"/>
<text text-anchor="middle" x="241.72" y="-112.6" font-family="Helvetica,sans-Serif" font-size="8.00">../../utils/utils.hpp</text>
</a>
</g>
</g>
<!-- Node1&#45;&gt;Node17 -->
<g id="edge40_Node000001_Node000017" class="edge">
<title>Node1&#45;&gt;Node17</title>
<g id="a_edge40_Node000001_Node000017"><a xlink:title=" ">
<path fill="none" stroke="#63b8ff" d="M377.83,-264.93C355.7,-240.64 286.2,-164.33 255.99,-131.16"/>
<polygon fill="#63b8ff" stroke="#63b8ff" points="258.21,-128.4 248.89,-123.37 253.03,-133.12 258.21,-128.4"/>
</a>
</g>
</g>
<!-- Node23 -->
<g id="Node000023" class="node">
<title>Node23</title>
<g id="a_Node000023"><a xlink:href="../../d8/d62/existence__set_8hpp.html" target="_top" xlink:title=" ">
<polygon fill="white" stroke="#666666" points="458.22,-176 311.22,-176 311.22,-159 458.22,-159 458.22,-176"/>
<text text-anchor="middle" x="384.72" y="-165.6" font-family="Helvetica,sans-Serif" font-size="8.00">../types/containers/existence_set.hpp</text>
</a>
</g>
</g>
<!-- Node1&#45;&gt;Node23 -->
<g id="edge24_Node000001_Node000023" class="edge">
<title>Node1&#45;&gt;Node23</title>
<g id="a_edge24_Node000001_Node000023"><a xlink:title=" ">
<path fill="none" stroke="#63b8ff" d="M384.72,-264.68C384.72,-248.11 384.72,-209.11 384.72,-186.18"/>
<polygon fill="#63b8ff" stroke="#63b8ff" points="388.22,-186.12 384.72,-176.12 381.22,-186.13 388.22,-186.12"/>
</a>
</g>
</g>
<!-- Node25 -->
<g id="Node000025" class="node">
<title>Node25</title>
<g id="a_Node000025"><a xlink:href="../../da/d45/heap_8hpp.html" target="_top" xlink:title=" ">
<polygon fill="white" stroke="#666666" points="678.22,-176 561.22,-176 561.22,-159 678.22,-159 678.22,-176"/>
<text text-anchor="middle" x="619.72" y="-165.6" font-family="Helvetica,sans-Serif" font-size="8.00">../types/containers/heap.hpp</text>
</a>
</g>
</g>
<!-- Node1&#45;&gt;Node25 -->
<g id="edge34_Node000001_Node000025" class="edge">
<title>Node1&#45;&gt;Node25</title>
<g id="a_edge34_Node000001_Node000025"><a xlink:title=" ">
<path fill="none" stroke="#63b8ff" d="M402,-264.85C442.76,-246.82 545.09,-201.53 593.53,-180.09"/>
<polygon fill="#63b8ff" stroke="#63b8ff" points="595.01,-183.27 602.73,-176.02 592.17,-176.86 595.01,-183.27"/>
</a>
</g>
</g>
<!-- Node26 -->
<g id="Node000026" class="node">
<title>Node26</title>
<g id="a_Node000026"><a xlink:href="../../d2/d1c/solver_8hpp.html" target="_top" xlink:title=" ">
<polygon fill="white" stroke="#666666" points="109.72,-176 37.72,-176 37.72,-159 109.72,-159 109.72,-176"/>
<text text-anchor="middle" x="73.72" y="-165.6" font-family="Helvetica,sans-Serif" font-size="8.00">base/solver.hpp</text>
</a>
</g>
</g>
<!-- Node1&#45;&gt;Node26 -->
<g id="edge41_Node000001_Node000026" class="edge">
<title>Node1&#45;&gt;Node26</title>
<g id="a_edge41_Node000001_Node000026"><a xlink:title=" ">
<path fill="none" stroke="#63b8ff" d="M360.59,-264.97C333.36,-256.43 287.77,-241.99 248.72,-229 198.06,-212.14 139.47,-191.69 104.56,-179.41"/>
<polygon fill="#63b8ff" stroke="#63b8ff" points="105.55,-176.04 94.95,-176.02 103.22,-182.64 105.55,-176.04"/>
</a>
</g>
</g>
<!-- Node4 -->
<g id="Node000004" class="node">
<title>Node4</title>
<g id="a_Node000004"><a xlink:title=" ">
<polygon fill="#e0e0e0" stroke="#999999" points="1162.72,-123 1120.72,-123 1120.72,-106 1162.72,-106 1162.72,-123"/>
<text text-anchor="middle" x="1141.72" y="-112.6" font-family="Helvetica,sans-Serif" font-size="8.00">cassert</text>
</a>
</g>
</g>
<!-- Node3&#45;&gt;Node4 -->
<g id="edge3_Node000003_Node000004" class="edge">
<title>Node3&#45;&gt;Node4</title>
<g id="a_edge3_Node000003_Node000004"><a xlink:title=" ">
<path fill="none" stroke="#63b8ff" d="M883.61,-211.94C918.28,-204.51 970.72,-191.97 1014.72,-176 1052.42,-162.31 1094.01,-141.29 1118.99,-127.98"/>
<polygon fill="#63b8ff" stroke="#63b8ff" points="1120.86,-130.94 1128.01,-123.12 1117.54,-124.78 1120.86,-130.94"/>
</a>
</g>
</g>
<!-- Node5 -->
<g id="Node000005" class="node">
<title>Node5</title>
<g id="a_Node000005"><a xlink:href="../../dc/d3c/bnode_8hpp.html" target="_top" xlink:title=" ">
<polygon fill="white" stroke="#666666" points="830.22,-176 775.22,-176 775.22,-159 830.22,-159 830.22,-176"/>
<text text-anchor="middle" x="802.72" y="-165.6" font-family="Helvetica,sans-Serif" font-size="8.00">bnode.hpp</text>
</a>
</g>
</g>
<!-- Node3&#45;&gt;Node5 -->
<g id="edge4_Node000003_Node000005" class="edge">
<title>Node3&#45;&gt;Node5</title>
<g id="a_edge4_Node000003_Node000005"><a xlink:title=" ">
<path fill="none" stroke="#63b8ff" d="M839.38,-211.97C833.15,-204.59 823.48,-193.12 815.64,-183.81"/>
<polygon fill="#63b8ff" stroke="#63b8ff" points="818.22,-181.45 809.09,-176.06 812.86,-185.96 818.22,-181.45"/>
</a>
</g>
</g>
<!-- Node6 -->
<g id="Node000006" class="node">
<title>Node6</title>
<g id="a_Node000006"><a xlink:href="../../d9/df8/heterogeneous__pool_8hpp.html" target="_top" xlink:title=" ">
<polygon fill="white" stroke="#666666" points="1005.22,-176 848.22,-176 848.22,-159 1005.22,-159 1005.22,-176"/>
<text text-anchor="middle" x="926.72" y="-165.6" font-family="Helvetica,sans-Serif" font-size="8.00">../../types/pmr/heterogeneous_pool.hpp</text>
</a>
</g>
</g>
<!-- Node3&#45;&gt;Node6 -->
<g id="edge5_Node000003_Node000006" class="edge">
<title>Node3&#45;&gt;Node6</title>
<g id="a_edge5_Node000003_Node000006"><a xlink:title=" ">
<path fill="none" stroke="#63b8ff" d="M857.68,-211.97C870.36,-203.99 890.64,-191.22 905.95,-181.58"/>
<polygon fill="#63b8ff" stroke="#63b8ff" points="908.12,-184.35 914.72,-176.06 904.4,-178.42 908.12,-184.35"/>
</a>
</g>
</g>
<!-- Node3&#45;&gt;Node14 -->
<g id="edge23_Node000003_Node000014" class="edge">
<title>Node3&#45;&gt;Node14</title>
<g id="a_edge23_Node000003_Node000014"><a xlink:title=" ">
<path fill="none" stroke="#63b8ff" d="M774.28,-216.79C647.71,-211.49 389.18,-198.27 301.72,-176 245.62,-161.71 214.25,-171.56 182.72,-123 174.57,-110.45 176.41,-93.15 179.65,-80.27"/>
<polygon fill="#63b8ff" stroke="#63b8ff" points="183.12,-80.9 182.64,-70.31 176.41,-78.88 183.12,-80.9"/>
</a>
</g>
</g>
<!-- Node6&#45;&gt;Node2 -->
<g id="edge7_Node000006_Node000002" class="edge">
<title>Node6&#45;&gt;Node2</title>
<g id="a_edge7_Node000006_Node000002"><a xlink:title=" ">
<path fill="none" stroke="#63b8ff" d="M922.41,-158.98C909.88,-137.91 871.11,-78.23 820.72,-53 756.48,-20.83 536.47,-12.25 454.15,-10.14"/>
<polygon fill="#63b8ff" stroke="#63b8ff" points="454,-6.63 443.92,-9.89 453.83,-13.63 454,-6.63"/>
</a>
</g>
</g>
<!-- Node6&#45;&gt;Node4 -->
<g id="edge6_Node000006_Node000004" class="edge">
<title>Node6&#45;&gt;Node4</title>
<g id="a_edge6_Node000006_Node000004"><a xlink:title=" ">
<path fill="none" stroke="#63b8ff" d="M959.51,-158.94C994.56,-150.82 1052.03,-137.42 1110.63,-123.24"/>
<polygon fill="#63b8ff" stroke="#63b8ff" points="1111.53,-126.62 1120.43,-120.86 1109.88,-119.82 1111.53,-126.62"/>
</a>
</g>
</g>
<!-- Node7 -->
<g id="Node000007" class="node">
<title>Node7</title>
<g id="a_Node000007"><a xlink:title=" ">
<polygon fill="#e0e0e0" stroke="#999999" points="1102.22,-123 1063.22,-123 1063.22,-106 1102.22,-106 1102.22,-123"/>
<text text-anchor="middle" x="1082.72" y="-112.6" font-family="Helvetica,sans-Serif" font-size="8.00">cstdint</text>
</a>
</g>
</g>
<!-- Node6&#45;&gt;Node7 -->
<g id="edge8_Node000006_Node000007" class="edge">
<title>Node6&#45;&gt;Node7</title>
<g id="a_edge8_Node000006_Node000007"><a xlink:title=" ">
<path fill="none" stroke="#63b8ff" d="M949.74,-158.97C977.31,-149.96 1023.51,-134.86 1053.55,-125.04"/>
<polygon fill="#63b8ff" stroke="#63b8ff" points="1054.65,-128.36 1063.07,-121.93 1052.48,-121.71 1054.65,-128.36"/>
</a>
</g>
</g>
<!-- Node8 -->
<g id="Node000008" class="node">
<title>Node8</title>
<g id="a_Node000008"><a xlink:title=" ">
<polygon fill="#e0e0e0" stroke="#999999" points="373.72,-70 339.72,-70 339.72,-53 373.72,-53 373.72,-70"/>
<text text-anchor="middle" x="356.72" y="-59.6" font-family="Helvetica,sans-Serif" font-size="8.00">limits</text>
</a>
</g>
</g>
<!-- Node6&#45;&gt;Node8 -->
<g id="edge9_Node000006_Node000008" class="edge">
<title>Node6&#45;&gt;Node8</title>
<g id="a_edge9_Node000006_Node000008"><a xlink:title=" ">
<path fill="none" stroke="#63b8ff" d="M903.55,-158.93C863.73,-146.2 779.57,-120.47 706.72,-106 644.74,-93.69 455.18,-72.95 384.06,-65.38"/>
<polygon fill="#63b8ff" stroke="#63b8ff" points="384.39,-61.9 374.08,-64.32 383.66,-68.86 384.39,-61.9"/>
</a>
</g>
</g>
<!-- Node9 -->
<g id="Node000009" class="node">
<title>Node9</title>
<g id="a_Node000009"><a xlink:title=" ">
<polygon fill="#e0e0e0" stroke="#999999" points="942.72,-123 910.72,-123 910.72,-106 942.72,-106 942.72,-123"/>
<text text-anchor="middle" x="926.72" y="-112.6" font-family="Helvetica,sans-Serif" font-size="8.00">map</text>
</a>
</g>
</g>
<!-- Node6&#45;&gt;Node9 -->
<g id="edge10_Node000006_Node000009" class="edge">
<title>Node6&#45;&gt;Node9</title>
<g id="a_edge10_Node000006_Node000009"><a xlink:title=" ">
<path fill="none" stroke="#63b8ff" d="M926.72,-158.97C926.72,-152.19 926.72,-141.97 926.72,-133.13"/>
<polygon fill="#63b8ff" stroke="#63b8ff" points="930.22,-133.06 926.72,-123.06 923.22,-133.06 930.22,-133.06"/>
</a>
</g>
</g>
<!-- Node10 -->
<g id="Node000010" class="node">
<title>Node10</title>
<g id="a_Node000010"><a xlink:title=" ">
<polygon fill="#e0e0e0" stroke="#999999" points="992.72,-123 960.72,-123 960.72,-106 992.72,-106 992.72,-123"/>
<text text-anchor="middle" x="976.72" y="-112.6" font-family="Helvetica,sans-Serif" font-size="8.00">new</text>
</a>
</g>
</g>
<!-- Node6&#45;&gt;Node10 -->
<g id="edge11_Node000006_Node000010" class="edge">
<title>Node6&#45;&gt;Node10</title>
<g id="a_edge11_Node000006_Node000010"><a xlink:title=" ">
<path fill="none" stroke="#63b8ff" d="M934.1,-158.97C941.49,-151.44 953.05,-139.65 962.27,-130.25"/>
<polygon fill="#63b8ff" stroke="#63b8ff" points="964.81,-132.65 969.32,-123.06 959.82,-127.75 964.81,-132.65"/>
</a>
</g>
</g>
<!-- Node11 -->
<g id="Node000011" class="node">
<title>Node11</title>
<g id="a_Node000011"><a xlink:title=" ">
<polygon fill="#e0e0e0" stroke="#999999" points="1044.72,-123 1010.72,-123 1010.72,-106 1044.72,-106 1044.72,-123"/>
<text text-anchor="middle" x="1027.72" y="-112.6" font-family="Helvetica,sans-Serif" font-size="8.00">utility</text>
</a>
</g>
</g>
<!-- Node6&#45;&gt;Node11 -->
<g id="edge12_Node000006_Node000011" class="edge">
<title>Node6&#45;&gt;Node11</title>
<g id="a_edge12_Node000006_Node000011"><a xlink:title=" ">
<path fill="none" stroke="#63b8ff" d="M941.63,-158.97C957.96,-150.73 984.41,-137.37 1003.69,-127.64"/>
<polygon fill="#63b8ff" stroke="#63b8ff" points="1005.41,-130.69 1012.76,-123.06 1002.26,-124.44 1005.41,-130.69"/>
</a>
</g>
</g>
<!-- Node12 -->
<g id="Node000012" class="node">
<title>Node12</title>
<g id="a_Node000012"><a xlink:title=" ">
<polygon fill="#e0e0e0" stroke="#999999" points="526.72,-123 488.72,-123 488.72,-106 526.72,-106 526.72,-123"/>
<text text-anchor="middle" x="507.72" y="-112.6" font-family="Helvetica,sans-Serif" font-size="8.00">vector</text>
</a>
</g>
</g>
<!-- Node6&#45;&gt;Node12 -->
<g id="edge13_Node000006_Node000012" class="edge">
<title>Node6&#45;&gt;Node12</title>
<g id="a_edge13_Node000006_Node000012"><a xlink:title=" ">
<path fill="none" stroke="#63b8ff" d="M847.96,-159.16C756,-150.35 608.35,-135.41 536.89,-122.88"/>
<polygon fill="#63b8ff" stroke="#63b8ff" points="537.38,-119.41 526.92,-121.05 536.12,-126.3 537.38,-119.41"/>
</a>
</g>
</g>
<!-- Node13 -->
<g id="Node000013" class="node">
<title>Node13</title>
<g id="a_Node000013"><a xlink:title=" ">
<polygon fill="#e0e0e0" stroke="#999999" points="626.72,-123 544.72,-123 544.72,-106 626.72,-106 626.72,-123"/>
<text text-anchor="middle" x="585.72" y="-112.6" font-family="Helvetica,sans-Serif" font-size="8.00">memory_resource</text>
</a>
</g>
</g>
<!-- Node6&#45;&gt;Node13 -->
<g id="edge14_Node000006_Node000013" class="edge">
<title>Node6&#45;&gt;Node13</title>
<g id="a_edge14_Node000006_Node000013"><a xlink:title=" ">
<path fill="none" stroke="#63b8ff" d="M876.41,-158.97C812.13,-149.36 701.49,-132.81 636.84,-123.14"/>
<polygon fill="#63b8ff" stroke="#63b8ff" points="637.28,-119.67 626.87,-121.65 636.24,-126.59 637.28,-119.67"/>
</a>
</g>
</g>
<!-- Node6&#45;&gt;Node14 -->
<g id="edge15_Node000006_Node000014" class="edge">
<title>Node6&#45;&gt;Node14</title>
<g id="a_edge15_Node000006_Node000014"><a xlink:title=" ">
<path fill="none" stroke="#63b8ff" d="M881.33,-158.96C836.63,-151.19 766.55,-138.12 706.72,-123 681.92,-116.73 676.82,-110.99 651.72,-106 574.7,-90.67 348.28,-73.69 242.01,-66.29"/>
<polygon fill="#63b8ff" stroke="#63b8ff" points="242.02,-62.78 231.8,-65.58 241.54,-69.77 242.02,-62.78"/>
</a>
</g>
</g>
<!-- Node6&#45;&gt;Node17 -->
<g id="edge17_Node000006_Node000017" class="edge">
<title>Node6&#45;&gt;Node17</title>
<g id="a_edge17_Node000006_Node000017"><a xlink:title=" ">
<path fill="none" stroke="#63b8ff" d="M848.01,-159.64C845.21,-159.42 842.44,-159.21 839.72,-159 597.92,-140.69 533.74,-150.54 289.6,-123.1"/>
<polygon fill="#63b8ff" stroke="#63b8ff" points="289.67,-119.58 279.34,-121.94 288.88,-126.54 289.67,-119.58"/>
</a>
</g>
</g>
<!-- Node14&#45;&gt;Node2 -->
<g id="edge16_Node000014_Node000002" class="edge">
<title>Node14&#45;&gt;Node2</title>
<g id="a_edge16_Node000014_Node000002"><a xlink:title=" ">
<path fill="none" stroke="#63b8ff" d="M220.69,-52.97C266.94,-43.02 347.74,-25.64 391.84,-16.15"/>
<polygon fill="#63b8ff" stroke="#63b8ff" points="392.66,-19.55 401.7,-14.02 391.19,-12.71 392.66,-19.55"/>
</a>
</g>
</g>
<!-- Node17&#45;&gt;Node2 -->
<g id="edge18_Node000017_Node000002" class="edge">
<title>Node17&#45;&gt;Node2</title>
<g id="a_edge18_Node000017_Node000002"><a xlink:title=" ">
<path fill="none" stroke="#63b8ff" d="M251.8,-105.88C267.96,-93.85 300.88,-70.06 330.72,-53 351.79,-40.96 376.72,-29.32 395.32,-21.11"/>
<polygon fill="#63b8ff" stroke="#63b8ff" points="396.9,-24.24 404.67,-17.04 394.1,-17.83 396.9,-24.24"/>
</a>
</g>
</g>
<!-- Node17&#45;&gt;Node8 -->
<g id="edge20_Node000017_Node000008" class="edge">
<title>Node17&#45;&gt;Node8</title>
<g id="a_edge20_Node000017_Node000008"><a xlink:title=" ">
<path fill="none" stroke="#63b8ff" d="M258.69,-105.97C277.55,-97.61 308.23,-84 330.25,-74.24"/>
<polygon fill="#63b8ff" stroke="#63b8ff" points="331.96,-77.31 339.69,-70.06 329.12,-70.91 331.96,-77.31"/>
</a>
</g>
</g>
<!-- Node17&#45;&gt;Node14 -->
<g id="edge22_Node000017_Node000014" class="edge">
<title>Node17&#45;&gt;Node14</title>
<g id="a_edge22_Node000017_Node000014"><a xlink:title=" ">
<path fill="none" stroke="#63b8ff" d="M233.46,-105.97C225.11,-98.37 211.98,-86.41 201.61,-76.97"/>
<polygon fill="#63b8ff" stroke="#63b8ff" points="203.77,-74.2 194.02,-70.06 199.06,-79.38 203.77,-74.2"/>
</a>
</g>
</g>
<!-- Node20 -->
<g id="Node000020" class="node">
<title>Node20</title>
<g id="a_Node000020"><a xlink:title=" ">
<polygon fill="#e0e0e0" stroke="#999999" points="500.72,-70 450.72,-70 450.72,-53 500.72,-53 500.72,-70"/>
<text text-anchor="middle" x="475.72" y="-59.6" font-family="Helvetica,sans-Serif" font-size="8.00">functional</text>
</a>
</g>
</g>
<!-- Node17&#45;&gt;Node20 -->
<g id="edge19_Node000017_Node000020" class="edge">
<title>Node17&#45;&gt;Node20</title>
<g id="a_edge19_Node000017_Node000020"><a xlink:title=" ">
<path fill="none" stroke="#63b8ff" d="M276.25,-105.97C320.27,-96.38 395.97,-79.88 440.38,-70.2"/>
<polygon fill="#63b8ff" stroke="#63b8ff" points="441.4,-73.56 450.42,-68.01 439.91,-66.72 441.4,-73.56"/>
</a>
</g>
</g>
<!-- Node22 -->
<g id="Node000022" class="node">
<title>Node22</title>
<g id="a_Node000022"><a xlink:title=" ">
<polygon fill="#e0e0e0" stroke="#999999" points="88.22,-70 35.22,-70 35.22,-53 88.22,-53 88.22,-70"/>
<text text-anchor="middle" x="61.72" y="-59.6" font-family="Helvetica,sans-Serif" font-size="8.00">type_traits</text>
</a>
</g>
</g>
<!-- Node17&#45;&gt;Node22 -->
<g id="edge21_Node000017_Node000022" class="edge">
<title>Node17&#45;&gt;Node22</title>
<g id="a_edge21_Node000017_Node000022"><a xlink:title=" ">
<path fill="none" stroke="#63b8ff" d="M215.16,-105.97C184.19,-97.2 132.82,-82.64 98.14,-72.82"/>
<polygon fill="#63b8ff" stroke="#63b8ff" points="98.97,-69.41 88.39,-70.06 97.06,-76.15 98.97,-69.41"/>
</a>
</g>
</g>
<!-- Node23&#45;&gt;Node2 -->
<g id="edge25_Node000023_Node000002" class="edge">
<title>Node23&#45;&gt;Node2</title>
<g id="a_edge25_Node000023_Node000002"><a xlink:title=" ">
<path fill="none" stroke="#63b8ff" d="M386.56,-158.93C392.31,-135.15 410.12,-61.56 418.41,-27.33"/>
<polygon fill="#63b8ff" stroke="#63b8ff" points="421.87,-27.91 420.82,-17.37 415.07,-26.26 421.87,-27.91"/>
</a>
</g>
</g>
<!-- Node23&#45;&gt;Node8 -->
<g id="edge28_Node000023_Node000008" class="edge">
<title>Node23&#45;&gt;Node8</title>
<g id="a_edge28_Node000023_Node000008"><a xlink:title=" ">
<path fill="none" stroke="#63b8ff" d="M382.62,-158.68C378.14,-142.04 367.56,-102.75 361.4,-79.87"/>
<polygon fill="#63b8ff" stroke="#63b8ff" points="364.76,-78.87 358.78,-70.12 358,-80.69 364.76,-78.87"/>
</a>
</g>
</g>
<!-- Node23&#45;&gt;Node12 -->
<g id="edge31_Node000023_Node000012" class="edge">
<title>Node23&#45;&gt;Node12</title>
<g id="a_edge31_Node000023_Node000012"><a xlink:title=" ">
<path fill="none" stroke="#63b8ff" d="M402.87,-158.97C423.22,-150.54 456.45,-136.76 480.04,-126.98"/>
<polygon fill="#63b8ff" stroke="#63b8ff" points="481.6,-130.12 489.5,-123.06 478.92,-123.65 481.6,-130.12"/>
</a>
</g>
</g>
<!-- Node23&#45;&gt;Node13 -->
<g id="edge29_Node000023_Node000013" class="edge">
<title>Node23&#45;&gt;Node13</title>
<g id="a_edge29_Node000023_Node000013"><a xlink:title=" ">
<path fill="none" stroke="#63b8ff" d="M414.38,-158.97C449.27,-150.12 507.32,-135.39 546.05,-125.57"/>
<polygon fill="#63b8ff" stroke="#63b8ff" points="547.11,-128.91 555.94,-123.06 545.39,-122.12 547.11,-128.91"/>
</a>
</g>
</g>
<!-- Node23&#45;&gt;Node14 -->
<g id="edge33_Node000023_Node000014" class="edge">
<title>Node23&#45;&gt;Node14</title>
<g id="a_edge33_Node000023_Node000014"><a xlink:title=" ">
<path fill="none" stroke="#63b8ff" d="M315.95,-158.94C268.52,-152.25 211.16,-140.76 194.72,-123 184.35,-111.79 182.79,-94.07 183.42,-80.7"/>
<polygon fill="#63b8ff" stroke="#63b8ff" points="186.94,-80.62 184.36,-70.35 179.97,-79.98 186.94,-80.62"/>
</a>
</g>
</g>
<!-- Node23&#45;&gt;Node17 -->
<g id="edge32_Node000023_Node000017" class="edge">
<title>Node23&#45;&gt;Node17</title>
<g id="a_edge32_Node000023_Node000017"><a xlink:title=" ">
<path fill="none" stroke="#63b8ff" d="M363.62,-158.97C339.54,-150.39 299.95,-136.27 272.44,-126.46"/>
<polygon fill="#63b8ff" stroke="#63b8ff" points="273.5,-123.12 262.91,-123.06 271.15,-129.71 273.5,-123.12"/>
</a>
</g>
</g>
<!-- Node23&#45;&gt;Node20 -->
<g id="edge26_Node000023_Node000020" class="edge">
<title>Node23&#45;&gt;Node20</title>
<g id="a_edge26_Node000023_Node000020"><a xlink:title=" ">
<path fill="none" stroke="#63b8ff" d="M395.5,-158.99C406.63,-150.92 424.1,-137.29 436.72,-123 448.73,-109.4 459.66,-91.77 466.88,-79.05"/>
<polygon fill="#63b8ff" stroke="#63b8ff" points="470.06,-80.52 471.82,-70.07 463.93,-77.15 470.06,-80.52"/>
</a>
</g>
</g>
<!-- Node23&#45;&gt;Node22 -->
<g id="edge30_Node000023_Node000022" class="edge">
<title>Node23&#45;&gt;Node22</title>
<g id="a_edge30_Node000023_Node000022"><a xlink:title=" ">
<path fill="none" stroke="#63b8ff" d="M332.68,-158.99C291.29,-152.15 232.31,-140.42 182.72,-123 146.3,-110.2 106.77,-88.9 83.14,-75.29"/>
<polygon fill="#63b8ff" stroke="#63b8ff" points="84.73,-72.16 74.32,-70.14 81.2,-78.21 84.73,-72.16"/>
</a>
</g>
</g>
<!-- Node24 -->
<g id="Node000024" class="node">
<title>Node24</title>
<g id="a_Node000024"><a xlink:title=" ">
<polygon fill="#e0e0e0" stroke="#999999" points="356.72,-123 296.72,-123 296.72,-106 356.72,-106 356.72,-123"/>
<text text-anchor="middle" x="326.72" y="-112.6" font-family="Helvetica,sans-Serif" font-size="8.00">initializer_list</text>
</a>
</g>
</g>
<!-- Node23&#45;&gt;Node24 -->
<g id="edge27_Node000023_Node000024" class="edge">
<title>Node23&#45;&gt;Node24</title>
<g id="a_edge27_Node000023_Node000024"><a xlink:title=" ">
<path fill="none" stroke="#63b8ff" d="M376.17,-158.97C367.43,-151.29 353.65,-139.18 342.86,-129.69"/>
<polygon fill="#63b8ff" stroke="#63b8ff" points="345.14,-127.03 335.32,-123.06 340.52,-132.29 345.14,-127.03"/>
</a>
</g>
</g>
<!-- Node25&#45;&gt;Node2 -->
<g id="edge35_Node000025_Node000002" class="edge">
<title>Node25&#45;&gt;Node2</title>
<g id="a_edge35_Node000025_Node000002"><a xlink:title=" ">
<path fill="none" stroke="#63b8ff" d="M639.35,-158.99C663.7,-148.51 700.24,-128.26 684.72,-106 631.59,-29.8 511.17,-13.61 453.99,-10.28"/>
<polygon fill="#63b8ff" stroke="#63b8ff" points="453.92,-6.77 443.76,-9.79 453.58,-13.77 453.92,-6.77"/>
</a>
</g>
</g>
<!-- Node25&#45;&gt;Node12 -->
<g id="edge37_Node000025_Node000012" class="edge">
<title>Node25&#45;&gt;Node12</title>
<g id="a_edge37_Node000025_Node000012"><a xlink:title=" ">
<path fill="none" stroke="#63b8ff" d="M603.2,-158.97C584.83,-150.61 554.95,-137 533.5,-127.24"/>
<polygon fill="#63b8ff" stroke="#63b8ff" points="534.87,-124.01 524.32,-123.06 531.97,-130.39 534.87,-124.01"/>
</a>
</g>
</g>
<!-- Node25&#45;&gt;Node13 -->
<g id="edge38_Node000025_Node000013" class="edge">
<title>Node25&#45;&gt;Node13</title>
<g id="a_edge38_Node000025_Node000013"><a xlink:title=" ">
<path fill="none" stroke="#63b8ff" d="M614.71,-158.97C609.89,-151.74 602.45,-140.59 596.31,-131.39"/>
<polygon fill="#63b8ff" stroke="#63b8ff" points="599.22,-129.44 590.76,-123.06 593.4,-133.32 599.22,-129.44"/>
</a>
</g>
</g>
<!-- Node25&#45;&gt;Node14 -->
<g id="edge39_Node000025_Node000014" class="edge">
<title>Node25&#45;&gt;Node14</title>
<g id="a_edge39_Node000025_Node000014"><a xlink:title=" ">
<path fill="none" stroke="#63b8ff" d="M625.71,-158.76C634.71,-146.12 649.31,-120.96 635.72,-106 622.65,-91.6 359.91,-73.41 242.07,-65.94"/>
<polygon fill="#63b8ff" stroke="#63b8ff" points="242,-62.43 231.8,-65.3 241.56,-69.42 242,-62.43"/>
</a>
</g>
</g>
<!-- Node25&#45;&gt;Node20 -->
<g id="edge36_Node000025_Node000020" class="edge">
<title>Node25&#45;&gt;Node20</title>
<g id="a_edge36_Node000025_Node000020"><a xlink:title=" ">
<path fill="none" stroke="#63b8ff" d="M633.81,-158.88C653.18,-147.44 684,-125.11 668.72,-106 649.35,-81.77 561.21,-70.08 511.01,-65.29"/>
<polygon fill="#63b8ff" stroke="#63b8ff" points="511.18,-61.79 500.91,-64.37 510.55,-68.76 511.18,-61.79"/>
</a>
</g>
</g>
<!-- Node26&#45;&gt;Node2 -->
<g id="edge42_Node000026_Node000002" class="edge">
<title>Node26&#45;&gt;Node2</title>
<g id="a_edge42_Node000026_Node000002"><a xlink:title=" ">
<path fill="none" stroke="#63b8ff" d="M50.32,-158.87C34.05,-152.2 13.6,-140.76 3.72,-123 -8.96,-100.18 15.13,-60.94 25.72,-53 83.26,-9.87 308.16,-8.07 391.46,-8.95"/>
<polygon fill="#63b8ff" stroke="#63b8ff" points="391.53,-12.45 401.57,-9.07 391.62,-5.45 391.53,-12.45"/>
</a>
</g>
</g>
<!-- Node26&#45;&gt;Node8 -->
<g id="edge43_Node000026_Node000008" class="edge">
<title>Node26&#45;&gt;Node8</title>
<g id="a_edge43_Node000026_Node000008"><a xlink:title=" ">
<path fill="none" stroke="#63b8ff" d="M86.76,-158.88C108.51,-146.42 153.89,-121.51 194.72,-106 240.71,-88.53 296.53,-75.18 329.2,-68.11"/>
<polygon fill="#63b8ff" stroke="#63b8ff" points="330.28,-71.46 339.34,-65.96 328.83,-64.61 330.28,-71.46"/>
</a>
</g>
</g>
<!-- Node26&#45;&gt;Node12 -->
<g id="edge45_Node000026_Node000012" class="edge">
<title>Node26&#45;&gt;Node12</title>
<g id="a_edge45_Node000026_Node000012"><a xlink:title=" ">
<path fill="none" stroke="#63b8ff" d="M109.98,-162.24C194.23,-152.34 401.87,-127.94 478.61,-118.92"/>
<polygon fill="#63b8ff" stroke="#63b8ff" points="479.01,-122.4 488.54,-117.75 478.2,-115.45 479.01,-122.4"/>
</a>
</g>
</g>
<!-- Node26&#45;&gt;Node14 -->
<g id="edge47_Node000026_Node000014" class="edge">
<title>Node26&#45;&gt;Node14</title>
<g id="a_edge47_Node000026_Node000014"><a xlink:title=" ">
<path fill="none" stroke="#63b8ff" d="M73.12,-158.88C72.56,-146.42 73.23,-121.51 85.72,-106 98.67,-89.93 118.72,-79.66 137.48,-73.16"/>
<polygon fill="#63b8ff" stroke="#63b8ff" points="138.65,-76.46 147.13,-70.1 136.54,-69.79 138.65,-76.46"/>
</a>
</g>
</g>
<!-- Node26&#45;&gt;Node17 -->
<g id="edge46_Node000026_Node000017" class="edge">
<title>Node26&#45;&gt;Node17</title>
<g id="a_edge46_Node000026_Node000017"><a xlink:title=" ">
<path fill="none" stroke="#63b8ff" d="M98.51,-158.97C127.17,-150.27 174.55,-135.89 206.9,-126.07"/>
<polygon fill="#63b8ff" stroke="#63b8ff" points="208.28,-129.31 216.83,-123.06 206.25,-122.61 208.28,-129.31"/>
</a>
</g>
</g>
<!-- Node26&#45;&gt;Node22 -->
<g id="edge44_Node000026_Node000022" class="edge">
<title>Node26&#45;&gt;Node22</title>
<g id="a_edge44_Node000026_Node000022"><a xlink:title=" ">
<path fill="none" stroke="#63b8ff" d="M53.51,-158.91C38.43,-152.05 18.9,-140.34 9.72,-123 -0.04,-104.55 19.72,-86.85 37.62,-75.42"/>
<polygon fill="#63b8ff" stroke="#63b8ff" points="39.85,-78.16 46.65,-70.04 36.26,-72.15 39.85,-78.16"/>
</a>
</g>
</g>
</g>
</svg>
