<?xml version="1.0" encoding="UTF-8" standalone="no"?>
<!DOCTYPE svg PUBLIC "-//W3C//DTD SVG 1.1//EN"
 "http://www.w3.org/Graphics/SVG/1.1/DTD/svg11.dtd">
<!-- Generated by graphviz version 2.43.0 (0)
 -->
<!-- Title: gstar.hpp Pages: 1 -->
<svg width="1025pt" height="290pt"
 viewBox="0.00 0.00 1025.45 290.00" xmlns="http://www.w3.org/2000/svg" xmlns:xlink="http://www.w3.org/1999/xlink">
<g id="graph0" class="graph" transform="scale(1 1) rotate(0) translate(4 286)">
<title>gstar.hpp</title>
<!-- Node1 -->
<g id="Node000001" class="node">
<title>Node1</title>
<g id="a_Node000001"><a xlink:title=" ">
<polygon fill="#999999" stroke="#666666" points="525,-282 475,-282 475,-265 525,-265 525,-282"/>
<text text-anchor="middle" x="500" y="-271.6" font-family="Helvetica,sans-Serif" font-size="8.00">gstar.hpp</text>
</a>
</g>
</g>
<!-- Node2 -->
<g id="Node000002" class="node">
<title>Node2</title>
<g id="a_Node000002"><a xlink:title=" ">
<polygon fill="#e0e0e0" stroke="#999999" points="462,-17 420,-17 420,0 462,0 462,-17"/>
<text text-anchor="middle" x="441" y="-6.6" font-family="Helvetica,sans-Serif" font-size="8.00">cstddef</text>
</a>
</g>
</g>
<!-- Node1&#45;&gt;Node2 -->
<g id="edge1_Node000001_Node000002" class="edge">
<title>Node1&#45;&gt;Node2</title>
<g id="a_edge1_Node000001_Node000002"><a xlink:title=" ">
<path fill="none" stroke="#63b8ff" d="M474.86,-272.69C373.47,-272.81 0,-266.58 0,-168.5 0,-168.5 0,-168.5 0,-113.5 0,-29.25 308.73,-13.18 409.56,-10.17"/>
<polygon fill="#63b8ff" stroke="#63b8ff" points="409.83,-13.67 419.73,-9.9 409.64,-6.67 409.83,-13.67"/>
</a>
</g>
</g>
<!-- Node3 -->
<g id="Node000003" class="node">
<title>Node3</title>
<g id="a_Node000003"><a xlink:href="../../da/deb/managed__node_8hpp.html" target="_top" xlink:title=" ">
<polygon fill="white" stroke="#666666" points="298,-229 156,-229 156,-212 298,-212 298,-229"/>
<text text-anchor="middle" x="227" y="-218.6" font-family="Helvetica,sans-Serif" font-size="8.00">../solvers/base/managed_node.hpp</text>
</a>
</g>
</g>
<!-- Node1&#45;&gt;Node3 -->
<g id="edge2_Node000001_Node000003" class="edge">
<title>Node1&#45;&gt;Node3</title>
<g id="a_edge2_Node000001_Node000003"><a xlink:title=" ">
<path fill="none" stroke="#63b8ff" d="M474.81,-267.79C430.1,-259.44 336.12,-241.88 277.6,-230.95"/>
<polygon fill="#63b8ff" stroke="#63b8ff" points="277.94,-227.46 267.47,-229.06 276.65,-234.34 277.94,-227.46"/>
</a>
</g>
</g>
<!-- Node14 -->
<g id="Node000014" class="node">
<title>Node14</title>
<g id="a_Node000014"><a xlink:href="../../df/d93/utils_8hpp.html" target="_top" xlink:title=" ">
<polygon fill="#fff0f0" stroke="red" points="437.5,-123 362.5,-123 362.5,-106 437.5,-106 437.5,-123"/>
<text text-anchor="middle" x="400" y="-112.6" font-family="Helvetica,sans-Serif" font-size="8.00">../../utils/utils.hpp</text>
</a>
</g>
</g>
<!-- Node1&#45;&gt;Node14 -->
<g id="edge33_Node000001_Node000014" class="edge">
<title>Node1&#45;&gt;Node14</title>
<g id="a_edge33_Node000001_Node000014"><a xlink:title=" ">
<path fill="none" stroke="#63b8ff" d="M495.18,-264.93C479.84,-240.84 431.93,-165.63 410.52,-132.01"/>
<polygon fill="#63b8ff" stroke="#63b8ff" points="413.33,-129.92 405.01,-123.37 407.43,-133.68 413.33,-129.92"/>
</a>
</g>
</g>
<!-- Node20 -->
<g id="Node000020" class="node">
<title>Node20</title>
<g id="a_Node000020"><a xlink:href="../../d8/d62/existence__set_8hpp.html" target="_top" xlink:title=" ">
<polygon fill="white" stroke="#666666" points="650.5,-176 503.5,-176 503.5,-159 650.5,-159 650.5,-176"/>
<text text-anchor="middle" x="577" y="-165.6" font-family="Helvetica,sans-Serif" font-size="8.00">../types/containers/existence_set.hpp</text>
</a>
</g>
</g>
<!-- Node1&#45;&gt;Node20 -->
<g id="edge20_Node000001_Node000020" class="edge">
<title>Node1&#45;&gt;Node20</title>
<g id="a_edge20_Node000001_Node000020"><a xlink:title=" ">
<path fill="none" stroke="#63b8ff" d="M505.79,-264.68C518.39,-247.66 548.53,-206.95 565.28,-184.34"/>
<polygon fill="#63b8ff" stroke="#63b8ff" points="568.22,-186.24 571.35,-176.12 562.59,-182.08 568.22,-186.24"/>
</a>
</g>
</g>
<!-- Node22 -->
<g id="Node000022" class="node">
<title>Node22</title>
<g id="a_Node000022"><a xlink:href="../../da/d45/heap_8hpp.html" target="_top" xlink:title=" ">
<polygon fill="white" stroke="#666666" points="834.5,-176 717.5,-176 717.5,-159 834.5,-159 834.5,-176"/>
<text text-anchor="middle" x="776" y="-165.6" font-family="Helvetica,sans-Serif" font-size="8.00">../types/containers/heap.hpp</text>
</a>
</g>
</g>
<!-- Node1&#45;&gt;Node22 -->
<g id="edge27_Node000001_Node000022" class="edge">
<title>Node1&#45;&gt;Node22</title>
<g id="a_edge27_Node000001_Node000022"><a xlink:title=" ">
<path fill="none" stroke="#63b8ff" d="M516.68,-264.98C543.32,-253.09 597.27,-229.49 644,-212 676.66,-199.78 714.52,-187.49 741.29,-179.11"/>
<polygon fill="#63b8ff" stroke="#63b8ff" points="742.47,-182.41 750.98,-176.09 740.39,-175.72 742.47,-182.41"/>
</a>
</g>
</g>
<!-- Node25 -->
<g id="Node000025" class="node">
<title>Node25</title>
<g id="a_Node000025"><a xlink:href="../../d2/d1c/solver_8hpp.html" target="_top" xlink:title=" ">
<polygon fill="white" stroke="#666666" points="725,-229 653,-229 653,-212 725,-212 725,-229"/>
<text text-anchor="middle" x="689" y="-218.6" font-family="Helvetica,sans-Serif" font-size="8.00">base/solver.hpp</text>
</a>
</g>
</g>
<!-- Node1&#45;&gt;Node25 -->
<g id="edge34_Node000001_Node000025" class="edge">
<title>Node1&#45;&gt;Node25</title>
<g id="a_edge34_Node000001_Node000025"><a xlink:title=" ">
<path fill="none" stroke="#63b8ff" d="M525.1,-265.73C557.31,-257.03 613.51,-241.87 650.99,-231.76"/>
<polygon fill="#63b8ff" stroke="#63b8ff" points="652.28,-235.03 661.03,-229.05 650.46,-228.27 652.28,-235.03"/>
</a>
</g>
</g>
<!-- Node4 -->
<g id="Node000004" class="node">
<title>Node4</title>
<g id="a_Node000004"><a xlink:title=" ">
<polygon fill="#e0e0e0" stroke="#999999" points="70,-123 28,-123 28,-106 70,-106 70,-123"/>
<text text-anchor="middle" x="49" y="-112.6" font-family="Helvetica,sans-Serif" font-size="8.00">cassert</text>
</a>
</g>
</g>
<!-- Node3&#45;&gt;Node4 -->
<g id="edge3_Node000003_Node000004" class="edge">
<title>Node3&#45;&gt;Node4</title>
<g id="a_edge3_Node000003_Node000004"><a xlink:title=" ">
<path fill="none" stroke="#63b8ff" d="M155.81,-215.77C124.55,-210.58 89.66,-199.43 66,-176 54.73,-164.85 50.78,-146.86 49.47,-133.39"/>
<polygon fill="#63b8ff" stroke="#63b8ff" points="52.96,-133.17 48.88,-123.39 45.97,-133.58 52.96,-133.17"/>
</a>
</g>
</g>
<!-- Node5 -->
<g id="Node000005" class="node">
<title>Node5</title>
<g id="a_Node000005"><a xlink:href="../../dc/d3c/bnode_8hpp.html" target="_top" xlink:title=" ">
<polygon fill="white" stroke="#666666" points="130.5,-176 75.5,-176 75.5,-159 130.5,-159 130.5,-176"/>
<text text-anchor="middle" x="103" y="-165.6" font-family="Helvetica,sans-Serif" font-size="8.00">bnode.hpp</text>
</a>
</g>
</g>
<!-- Node3&#45;&gt;Node5 -->
<g id="edge4_Node000003_Node000005" class="edge">
<title>Node3&#45;&gt;Node5</title>
<g id="a_edge4_Node000003_Node000005"><a xlink:title=" ">
<path fill="none" stroke="#63b8ff" d="M208.7,-211.97C188.19,-203.54 154.69,-189.76 130.9,-179.98"/>
<polygon fill="#63b8ff" stroke="#63b8ff" points="131.95,-176.62 121.37,-176.06 129.29,-183.1 131.95,-176.62"/>
</a>
</g>
</g>
<!-- Node6 -->
<g id="Node000006" class="node">
<title>Node6</title>
<g id="a_Node000006"><a xlink:href="../../d9/df8/heterogeneous__pool_8hpp.html" target="_top" xlink:title=" ">
<polygon fill="white" stroke="#666666" points="305.5,-176 148.5,-176 148.5,-159 305.5,-159 305.5,-176"/>
<text text-anchor="middle" x="227" y="-165.6" font-family="Helvetica,sans-Serif" font-size="8.00">../../types/pmr/heterogeneous_pool.hpp</text>
</a>
</g>
</g>
<!-- Node3&#45;&gt;Node6 -->
<g id="edge5_Node000003_Node000006" class="edge">
<title>Node3&#45;&gt;Node6</title>
<g id="a_edge5_Node000003_Node000006"><a xlink:title=" ">
<path fill="none" stroke="#63b8ff" d="M227,-211.97C227,-205.19 227,-194.97 227,-186.13"/>
<polygon fill="#63b8ff" stroke="#63b8ff" points="230.5,-186.06 227,-176.06 223.5,-186.06 230.5,-186.06"/>
</a>
</g>
</g>
<!-- Node12 -->
<g id="Node000012" class="node">
<title>Node12</title>
<g id="a_Node000012"><a xlink:href="../../d7/d65/intrinsics_8hpp.html" target="_top" xlink:title=" ">
<polygon fill="#fff0f0" stroke="red" points="413,-70 321,-70 321,-53 413,-53 413,-70"/>
<text text-anchor="middle" x="367" y="-59.6" font-family="Helvetica,sans-Serif" font-size="8.00">../../utils/intrinsics.hpp</text>
</a>
</g>
</g>
<!-- Node3&#45;&gt;Node12 -->
<g id="edge19_Node000003_Node000012" class="edge">
<title>Node3&#45;&gt;Node12</title>
<g id="a_edge19_Node000003_Node000012"><a xlink:title=" ">
<path fill="none" stroke="#63b8ff" d="M252.25,-211.95C271.28,-205.17 296.92,-193.54 314,-176 328.13,-161.49 349.76,-108 360.49,-79.94"/>
<polygon fill="#63b8ff" stroke="#63b8ff" points="363.89,-80.86 364.15,-70.26 357.34,-78.38 363.89,-80.86"/>
</a>
</g>
</g>
<!-- Node6&#45;&gt;Node2 -->
<g id="edge7_Node000006_Node000002" class="edge">
<title>Node6&#45;&gt;Node2</title>
<g id="a_edge7_Node000006_Node000002"><a xlink:title=" ">
<path fill="none" stroke="#63b8ff" d="M182.67,-158.99C143.74,-150.39 96.29,-133.78 117,-106 152.61,-58.24 335.5,-25.54 409.68,-14.05"/>
<polygon fill="#63b8ff" stroke="#63b8ff" points="410.45,-17.48 419.81,-12.51 409.4,-10.56 410.45,-17.48"/>
</a>
</g>
</g>
<!-- Node6&#45;&gt;Node4 -->
<g id="edge6_Node000006_Node000004" class="edge">
<title>Node6&#45;&gt;Node4</title>
<g id="a_edge6_Node000006_Node000004"><a xlink:title=" ">
<path fill="none" stroke="#63b8ff" d="M200.74,-158.97C168.57,-149.76 114.17,-134.17 79.99,-124.38"/>
<polygon fill="#63b8ff" stroke="#63b8ff" points="80.65,-120.93 70.08,-121.54 78.73,-127.66 80.65,-120.93"/>
</a>
</g>
</g>
<!-- Node7 -->
<g id="Node000007" class="node">
<title>Node7</title>
<g id="a_Node000007"><a xlink:title=" ">
<polygon fill="#e0e0e0" stroke="#999999" points="165.5,-123 126.5,-123 126.5,-106 165.5,-106 165.5,-123"/>
<text text-anchor="middle" x="146" y="-112.6" font-family="Helvetica,sans-Serif" font-size="8.00">cstdint</text>
</a>
</g>
</g>
<!-- Node6&#45;&gt;Node7 -->
<g id="edge8_Node000006_Node000007" class="edge">
<title>Node6&#45;&gt;Node7</title>
<g id="a_edge8_Node000006_Node000007"><a xlink:title=" ">
<path fill="none" stroke="#63b8ff" d="M215.05,-158.97C202.37,-150.99 182.08,-138.22 166.78,-128.58"/>
<polygon fill="#63b8ff" stroke="#63b8ff" points="168.33,-125.42 158,-123.06 164.6,-131.35 168.33,-125.42"/>
</a>
</g>
</g>
<!-- Node8 -->
<g id="Node000008" class="node">
<title>Node8</title>
<g id="a_Node000008"><a xlink:title=" ">
<polygon fill="#e0e0e0" stroke="#999999" points="216,-123 184,-123 184,-106 216,-106 216,-123"/>
<text text-anchor="middle" x="200" y="-112.6" font-family="Helvetica,sans-Serif" font-size="8.00">map</text>
</a>
</g>
</g>
<!-- Node6&#45;&gt;Node8 -->
<g id="edge9_Node000006_Node000008" class="edge">
<title>Node6&#45;&gt;Node8</title>
<g id="a_edge9_Node000006_Node000008"><a xlink:title=" ">
<path fill="none" stroke="#63b8ff" d="M223.02,-158.97C219.27,-151.89 213.53,-141.05 208.72,-131.96"/>
<polygon fill="#63b8ff" stroke="#63b8ff" points="211.77,-130.26 204,-123.06 205.59,-133.53 211.77,-130.26"/>
</a>
</g>
</g>
<!-- Node9 -->
<g id="Node000009" class="node">
<title>Node9</title>
<g id="a_Node000009"><a xlink:title=" ">
<polygon fill="#e0e0e0" stroke="#999999" points="538,-123 456,-123 456,-106 538,-106 538,-123"/>
<text text-anchor="middle" x="497" y="-112.6" font-family="Helvetica,sans-Serif" font-size="8.00">memory_resource</text>
</a>
</g>
</g>
<!-- Node6&#45;&gt;Node9 -->
<g id="edge10_Node000006_Node000009" class="edge">
<title>Node6&#45;&gt;Node9</title>
<g id="a_edge10_Node000006_Node000009"><a xlink:title=" ">
<path fill="none" stroke="#63b8ff" d="M266.84,-158.97C314.7,-149.94 395.02,-134.76 447,-124.95"/>
<polygon fill="#63b8ff" stroke="#63b8ff" points="447.82,-128.35 457,-123.06 446.52,-121.47 447.82,-128.35"/>
</a>
</g>
</g>
<!-- Node10 -->
<g id="Node000010" class="node">
<title>Node10</title>
<g id="a_Node000010"><a xlink:title=" ">
<polygon fill="#e0e0e0" stroke="#999999" points="268,-123 234,-123 234,-106 268,-106 268,-123"/>
<text text-anchor="middle" x="251" y="-112.6" font-family="Helvetica,sans-Serif" font-size="8.00">utility</text>
</a>
</g>
</g>
<!-- Node6&#45;&gt;Node10 -->
<g id="edge11_Node000006_Node000010" class="edge">
<title>Node6&#45;&gt;Node10</title>
<g id="a_edge11_Node000006_Node000010"><a xlink:title=" ">
<path fill="none" stroke="#63b8ff" d="M230.54,-158.97C233.84,-151.97 238.87,-141.28 243.12,-132.25"/>
<polygon fill="#63b8ff" stroke="#63b8ff" points="246.35,-133.59 247.44,-123.06 240.02,-130.61 246.35,-133.59"/>
</a>
</g>
</g>
<!-- Node11 -->
<g id="Node000011" class="node">
<title>Node11</title>
<g id="a_Node000011"><a xlink:title=" ">
<polygon fill="#e0e0e0" stroke="#999999" points="748,-123 710,-123 710,-106 748,-106 748,-123"/>
<text text-anchor="middle" x="729" y="-112.6" font-family="Helvetica,sans-Serif" font-size="8.00">vector</text>
</a>
</g>
</g>
<!-- Node6&#45;&gt;Node11 -->
<g id="edge12_Node000006_Node000011" class="edge">
<title>Node6&#45;&gt;Node11</title>
<g id="a_edge12_Node000006_Node000011"><a xlink:title=" ">
<path fill="none" stroke="#63b8ff" d="M305.55,-163.39C397.9,-158.81 555.82,-148.11 699.91,-122.86"/>
<polygon fill="#63b8ff" stroke="#63b8ff" points="700.58,-126.3 709.82,-121.1 699.36,-119.41 700.58,-126.3"/>
</a>
</g>
</g>
<!-- Node6&#45;&gt;Node12 -->
<g id="edge13_Node000006_Node000012" class="edge">
<title>Node6&#45;&gt;Node12</title>
<g id="a_edge13_Node000006_Node000012"><a xlink:title=" ">
<path fill="none" stroke="#63b8ff" d="M237.52,-158.68C261.15,-141.13 318.67,-98.4 348.45,-76.28"/>
<polygon fill="#63b8ff" stroke="#63b8ff" points="350.8,-78.9 356.74,-70.12 346.62,-73.28 350.8,-78.9"/>
</a>
</g>
</g>
<!-- Node6&#45;&gt;Node14 -->
<g id="edge15_Node000006_Node000014" class="edge">
<title>Node6&#45;&gt;Node14</title>
<g id="a_edge15_Node000006_Node000014"><a xlink:title=" ">
<path fill="none" stroke="#63b8ff" d="M252.53,-158.97C282.17,-150.24 331.25,-135.77 364.57,-125.94"/>
<polygon fill="#63b8ff" stroke="#63b8ff" points="365.77,-129.24 374.37,-123.06 363.79,-122.53 365.77,-129.24"/>
</a>
</g>
</g>
<!-- Node12&#45;&gt;Node2 -->
<g id="edge14_Node000012_Node000002" class="edge">
<title>Node12&#45;&gt;Node2</title>
<g id="a_edge14_Node000012_Node000002"><a xlink:title=" ">
<path fill="none" stroke="#63b8ff" d="M377.92,-52.97C389.4,-45.07 407.68,-32.46 421.62,-22.86"/>
<polygon fill="#63b8ff" stroke="#63b8ff" points="423.79,-25.61 430.04,-17.06 419.82,-19.85 423.79,-25.61"/>
</a>
</g>
</g>
<!-- Node14&#45;&gt;Node2 -->
<g id="edge16_Node000014_Node000002" class="edge">
<title>Node14&#45;&gt;Node2</title>
<g id="a_edge16_Node000014_Node000002"><a xlink:title=" ">
<path fill="none" stroke="#63b8ff" d="M404.28,-105.98C409.03,-97.44 416.71,-83.01 422,-70 427.78,-55.79 432.9,-39.12 436.36,-26.89"/>
<polygon fill="#63b8ff" stroke="#63b8ff" points="439.78,-27.66 439.05,-17.09 433.03,-25.81 439.78,-27.66"/>
</a>
</g>
</g>
<!-- Node14&#45;&gt;Node12 -->
<g id="edge18_Node000014_Node000012" class="edge">
<title>Node14&#45;&gt;Node12</title>
<g id="a_edge18_Node000014_Node000012"><a xlink:title=" ">
<path fill="none" stroke="#63b8ff" d="M395.13,-105.97C390.5,-98.82 383.38,-87.82 377.47,-78.67"/>
<polygon fill="#63b8ff" stroke="#63b8ff" points="380.26,-76.55 371.89,-70.06 374.38,-80.35 380.26,-76.55"/>
</a>
</g>
</g>
<!-- Node19 -->
<g id="Node000019" class="node">
<title>Node19</title>
<g id="a_Node000019"><a xlink:title=" ">
<polygon fill="#e0e0e0" stroke="#999999" points="647.5,-70 594.5,-70 594.5,-53 647.5,-53 647.5,-70"/>
<text text-anchor="middle" x="621" y="-59.6" font-family="Helvetica,sans-Serif" font-size="8.00">type_traits</text>
</a>
</g>
</g>
<!-- Node14&#45;&gt;Node19 -->
<g id="edge17_Node000014_Node000019" class="edge">
<title>Node14&#45;&gt;Node19</title>
<g id="a_edge17_Node000014_Node000019"><a xlink:title=" ">
<path fill="none" stroke="#63b8ff" d="M432.61,-105.97C473.1,-96.63 541.97,-80.74 584.27,-70.98"/>
<polygon fill="#63b8ff" stroke="#63b8ff" points="585.21,-74.35 594.17,-68.69 583.64,-67.53 585.21,-74.35"/>
</a>
</g>
</g>
<!-- Node20&#45;&gt;Node2 -->
<g id="edge21_Node000020_Node000002" class="edge">
<title>Node20&#45;&gt;Node2</title>
<g id="a_edge21_Node000020_Node000002"><a xlink:title=" ">
<path fill="none" stroke="#63b8ff" d="M574.3,-158.92C569.81,-146.94 559.99,-123.22 547,-106 521.46,-72.15 482.96,-40.61 460.07,-23.3"/>
<polygon fill="#63b8ff" stroke="#63b8ff" points="461.96,-20.35 451.84,-17.19 457.78,-25.96 461.96,-20.35"/>
</a>
</g>
</g>
<!-- Node20&#45;&gt;Node9 -->
<g id="edge23_Node000020_Node000009" class="edge">
<title>Node20&#45;&gt;Node9</title>
<g id="a_edge23_Node000020_Node000009"><a xlink:title=" ">
<path fill="none" stroke="#63b8ff" d="M565.2,-158.97C552.67,-150.99 532.64,-138.22 517.52,-128.58"/>
<polygon fill="#63b8ff" stroke="#63b8ff" points="519.17,-125.48 508.85,-123.06 515.4,-131.38 519.17,-125.48"/>
</a>
</g>
</g>
<!-- Node20&#45;&gt;Node11 -->
<g id="edge25_Node000020_Node000011" class="edge">
<title>Node20&#45;&gt;Node11</title>
<g id="a_edge25_Node000020_Node000011"><a xlink:title=" ">
<path fill="none" stroke="#63b8ff" d="M599.43,-158.97C626.17,-150 670.91,-134.99 700.19,-125.17"/>
<polygon fill="#63b8ff" stroke="#63b8ff" points="701.48,-128.42 709.85,-121.93 699.26,-121.79 701.48,-128.42"/>
</a>
</g>
</g>
<!-- Node20&#45;&gt;Node14 -->
<g id="edge26_Node000020_Node000014" class="edge">
<title>Node20&#45;&gt;Node14</title>
<g id="a_edge26_Node000020_Node000014"><a xlink:title=" ">
<path fill="none" stroke="#63b8ff" d="M550.88,-158.97C520.56,-150.24 470.34,-135.77 436.25,-125.94"/>
<polygon fill="#63b8ff" stroke="#63b8ff" points="436.8,-122.46 426.22,-123.06 434.86,-129.19 436.8,-122.46"/>
</a>
</g>
</g>
<!-- Node20&#45;&gt;Node19 -->
<g id="edge24_Node000020_Node000019" class="edge">
<title>Node20&#45;&gt;Node19</title>
<g id="a_edge24_Node000020_Node000019"><a xlink:title=" ">
<path fill="none" stroke="#63b8ff" d="M580.31,-158.68C587.38,-141.96 604.12,-102.39 613.78,-79.56"/>
<polygon fill="#63b8ff" stroke="#63b8ff" points="617.1,-80.7 617.77,-70.12 610.65,-77.97 617.1,-80.7"/>
</a>
</g>
</g>
<!-- Node21 -->
<g id="Node000021" class="node">
<title>Node21</title>
<g id="a_Node000021"><a xlink:title=" ">
<polygon fill="#e0e0e0" stroke="#999999" points="692,-123 632,-123 632,-106 692,-106 692,-123"/>
<text text-anchor="middle" x="662" y="-112.6" font-family="Helvetica,sans-Serif" font-size="8.00">initializer_list</text>
</a>
</g>
</g>
<!-- Node20&#45;&gt;Node21 -->
<g id="edge22_Node000020_Node000021" class="edge">
<title>Node20&#45;&gt;Node21</title>
<g id="a_edge22_Node000020_Node000021"><a xlink:title=" ">
<path fill="none" stroke="#63b8ff" d="M589.54,-158.97C602.98,-150.91 624.54,-137.98 640.65,-128.31"/>
<polygon fill="#63b8ff" stroke="#63b8ff" points="642.63,-131.2 649.41,-123.06 639.03,-125.2 642.63,-131.2"/>
</a>
</g>
</g>
<!-- Node22&#45;&gt;Node2 -->
<g id="edge28_Node000022_Node000002" class="edge">
<title>Node22&#45;&gt;Node2</title>
<g id="a_edge28_Node000022_Node000002"><a xlink:title=" ">
<path fill="none" stroke="#63b8ff" d="M775.45,-158.93C774.19,-146.55 770.1,-121.74 757,-106 724.83,-67.33 704.37,-69.92 657,-53 593.4,-30.29 514.8,-18.21 472.13,-12.91"/>
<polygon fill="#63b8ff" stroke="#63b8ff" points="472.43,-9.42 462.09,-11.7 471.6,-16.37 472.43,-9.42"/>
</a>
</g>
</g>
<!-- Node22&#45;&gt;Node9 -->
<g id="edge30_Node000022_Node000009" class="edge">
<title>Node22&#45;&gt;Node9</title>
<g id="a_edge30_Node000022_Node000009"><a xlink:title=" ">
<path fill="none" stroke="#63b8ff" d="M734.83,-158.97C685.28,-149.92 602.04,-134.7 548.33,-124.88"/>
<polygon fill="#63b8ff" stroke="#63b8ff" points="548.8,-121.41 538.34,-123.06 547.54,-128.3 548.8,-121.41"/>
</a>
</g>
</g>
<!-- Node22&#45;&gt;Node11 -->
<g id="edge32_Node000022_Node000011" class="edge">
<title>Node22&#45;&gt;Node11</title>
<g id="a_edge32_Node000022_Node000011"><a xlink:title=" ">
<path fill="none" stroke="#63b8ff" d="M769.06,-158.97C762.19,-151.52 751.47,-139.89 742.85,-130.53"/>
<polygon fill="#63b8ff" stroke="#63b8ff" points="745.31,-128.04 735.96,-123.06 740.17,-132.78 745.31,-128.04"/>
</a>
</g>
</g>
<!-- Node23 -->
<g id="Node000023" class="node">
<title>Node23</title>
<g id="a_Node000023"><a xlink:title=" ">
<polygon fill="#e0e0e0" stroke="#999999" points="854,-123 804,-123 804,-106 854,-106 854,-123"/>
<text text-anchor="middle" x="829" y="-112.6" font-family="Helvetica,sans-Serif" font-size="8.00">functional</text>
</a>
</g>
</g>
<!-- Node22&#45;&gt;Node23 -->
<g id="edge29_Node000022_Node000023" class="edge">
<title>Node22&#45;&gt;Node23</title>
<g id="a_edge29_Node000022_Node000023"><a xlink:title=" ">
<path fill="none" stroke="#63b8ff" d="M783.82,-158.97C791.65,-151.44 803.9,-139.65 813.67,-130.25"/>
<polygon fill="#63b8ff" stroke="#63b8ff" points="816.37,-132.51 821.15,-123.06 811.51,-127.47 816.37,-132.51"/>
</a>
</g>
</g>
<!-- Node24 -->
<g id="Node000024" class="node">
<title>Node24</title>
<g id="a_Node000024"><a xlink:title=" ">
<polygon fill="#e0e0e0" stroke="#999999" points="922,-123 872,-123 872,-106 922,-106 922,-123"/>
<text text-anchor="middle" x="897" y="-112.6" font-family="Helvetica,sans-Serif" font-size="8.00">stdexcept</text>
</a>
</g>
</g>
<!-- Node22&#45;&gt;Node24 -->
<g id="edge31_Node000022_Node000024" class="edge">
<title>Node22&#45;&gt;Node24</title>
<g id="a_edge31_Node000022_Node000024"><a xlink:title=" ">
<path fill="none" stroke="#63b8ff" d="M793.85,-158.97C813.87,-150.54 846.56,-136.76 869.77,-126.98"/>
<polygon fill="#63b8ff" stroke="#63b8ff" points="871.22,-130.17 879.07,-123.06 868.5,-123.71 871.22,-130.17"/>
</a>
</g>
</g>
<!-- Node25&#45;&gt;Node2 -->
<g id="edge35_Node000025_Node000002" class="edge">
<title>Node25&#45;&gt;Node2</title>
<g id="a_edge35_Node000025_Node000002"><a xlink:title=" ">
<path fill="none" stroke="#63b8ff" d="M725.17,-216.19C805.93,-207.41 989.39,-179.03 931,-106 873.2,-33.71 571.01,-14.88 472.26,-10.62"/>
<polygon fill="#63b8ff" stroke="#63b8ff" points="472.17,-7.11 462.03,-10.2 471.88,-14.11 472.17,-7.11"/>
</a>
</g>
</g>
<!-- Node25&#45;&gt;Node11 -->
<g id="edge37_Node000025_Node000011" class="edge">
<title>Node25&#45;&gt;Node11</title>
<g id="a_edge37_Node000025_Node000011"><a xlink:title=" ">
<path fill="none" stroke="#63b8ff" d="M691.2,-211.95C694.63,-200.41 701.62,-177.73 709,-159 712.55,-149.97 717.03,-140.13 720.84,-132.1"/>
<polygon fill="#63b8ff" stroke="#63b8ff" points="723.99,-133.61 725.2,-123.09 717.69,-130.57 723.99,-133.61"/>
</a>
</g>
</g>
<!-- Node25&#45;&gt;Node12 -->
<g id="edge40_Node000025_Node000012" class="edge">
<title>Node25&#45;&gt;Node12</title>
<g id="a_edge40_Node000025_Node000012"><a xlink:title=" ">
<path fill="none" stroke="#63b8ff" d="M725.26,-215.66C807.19,-205.69 994.68,-174.78 931,-106 913.91,-87.55 562.96,-70.77 423.46,-64.8"/>
<polygon fill="#63b8ff" stroke="#63b8ff" points="423.53,-61.3 413.39,-64.38 423.23,-68.3 423.53,-61.3"/>
</a>
</g>
</g>
<!-- Node25&#45;&gt;Node14 -->
<g id="edge39_Node000025_Node000014" class="edge">
<title>Node25&#45;&gt;Node14</title>
<g id="a_edge39_Node000025_Node000014"><a xlink:title=" ">
<path fill="none" stroke="#63b8ff" d="M652.98,-215.33C612.95,-209.82 546.97,-198.13 494,-176 465.33,-164.02 435.76,-143.37 417.62,-129.57"/>
<polygon fill="#63b8ff" stroke="#63b8ff" points="419.29,-126.43 409.25,-123.06 415,-131.96 419.29,-126.43"/>
</a>
</g>
</g>
<!-- Node25&#45;&gt;Node19 -->
<g id="edge36_Node000025_Node000019" class="edge">
<title>Node25&#45;&gt;Node19</title>
<g id="a_edge36_Node000025_Node000019"><a xlink:title=" ">
<path fill="none" stroke="#63b8ff" d="M725.27,-220.13C799.87,-220.56 966.47,-216.81 1002,-176 1022.43,-152.54 1022.71,-129.21 1002,-106 979.3,-80.56 748.88,-67.98 657.78,-63.97"/>
<polygon fill="#63b8ff" stroke="#63b8ff" points="657.78,-60.46 647.64,-63.53 657.48,-67.46 657.78,-60.46"/>
</a>
</g>
</g>
<!-- Node25&#45;&gt;Node20 -->
<g id="edge38_Node000025_Node000020" class="edge">
<title>Node25&#45;&gt;Node20</title>
<g id="a_edge38_Node000025_Node000020"><a xlink:title=" ">
<path fill="none" stroke="#63b8ff" d="M672.47,-211.97C654.11,-203.61 624.23,-190 602.78,-180.24"/>
<polygon fill="#63b8ff" stroke="#63b8ff" points="604.15,-177.01 593.59,-176.06 601.24,-183.39 604.15,-177.01"/>
</a>
</g>
</g>
</g>
</svg>
