<?xml version="1.0" encoding="UTF-8" standalone="no"?>
<!DOCTYPE svg PUBLIC "-//W3C//DTD SVG 1.1//EN"
 "http://www.w3.org/Graphics/SVG/1.1/DTD/svg11.dtd">
<!-- Generated by graphviz version 2.43.0 (0)
 -->
<!-- Title: gstar.hpp Pages: 1 -->
<svg width="1301pt" height="290pt"
 viewBox="0.00 0.00 1301.00 290.00" xmlns="http://www.w3.org/2000/svg" xmlns:xlink="http://www.w3.org/1999/xlink">
<g id="graph0" class="graph" transform="scale(1 1) rotate(0) translate(4 286)">
<title>gstar.hpp</title>
<!-- Node1 -->
<g id="Node000001" class="node">
<title>Node1</title>
<g id="a_Node000001"><a xlink:title=" ">
<polygon fill="#999999" stroke="#666666" points="836.5,-282 781.5,-282 781.5,-265 836.5,-265 836.5,-282"/>
<text text-anchor="middle" x="809" y="-271.6" font-family="Helvetica,sans-Serif" font-size="8.00">gstar.hpp</text>
</a>
</g>
</g>
<!-- Node2 -->
<g id="Node000002" class="node">
<title>Node2</title>
<g id="a_Node000002"><a xlink:title=" ">
<polygon fill="#e0e0e0" stroke="#999999" points="920.5,-17 873.5,-17 873.5,0 920.5,0 920.5,-17"/>
<text text-anchor="middle" x="897" y="-6.6" font-family="Helvetica,sans-Serif" font-size="8.00">cstddef</text>
</a>
</g>
</g>
<!-- Node1&#45;&gt;Node2 -->
<g id="edge1_Node000001_Node000002" class="edge">
<title>Node1&#45;&gt;Node2</title>
<g id="a_edge1_Node000001_Node000002"><a xlink:title=" ">
<path fill="none" stroke="#63b8ff" d="M836.76,-272.51C939.6,-271.79 1293,-262.5 1293,-168.5 1293,-168.5 1293,-168.5 1293,-113.5 1293,-38.82 1026.21,-16.67 930.59,-11.13"/>
<polygon fill="#63b8ff" stroke="#63b8ff" points="930.76,-7.63 920.59,-10.57 930.38,-14.62 930.76,-7.63"/>
</a>
</g>
</g>
<!-- Node3 -->
<g id="Node000003" class="node">
<title>Node3</title>
<g id="a_Node000003"><a xlink:href="../../da/deb/managed__node_8hpp.html" target="_top" xlink:title=" ">
<polygon fill="white" stroke="#666666" points="280.5,-229 119.5,-229 119.5,-212 280.5,-212 280.5,-229"/>
<text text-anchor="middle" x="200" y="-218.6" font-family="Helvetica,sans-Serif" font-size="8.00">../solvers/base/managed_node.hpp</text>
</a>
</g>
</g>
<!-- Node1&#45;&gt;Node3 -->
<g id="edge2_Node000001_Node000003" class="edge">
<title>Node1&#45;&gt;Node3</title>
<g id="a_edge2_Node000001_Node000003"><a xlink:title=" ">
<path fill="none" stroke="#63b8ff" d="M781.25,-270.18C695.44,-262.99 431.71,-240.9 290.86,-229.11"/>
<polygon fill="#63b8ff" stroke="#63b8ff" points="290.78,-225.59 280.53,-228.24 290.2,-232.57 290.78,-225.59"/>
</a>
</g>
</g>
<!-- Node14 -->
<g id="Node000014" class="node">
<title>Node14</title>
<g id="a_Node000014"><a xlink:href="../../d7/d65/intrinsics_8hpp.html" target="_top" xlink:title=" ">
<polygon fill="#fff0f0" stroke="red" points="468.5,-70 361.5,-70 361.5,-53 468.5,-53 468.5,-70"/>
<text text-anchor="middle" x="415" y="-59.6" font-family="Helvetica,sans-Serif" font-size="8.00">../../utils/intrinsics.hpp</text>
</a>
</g>
</g>
<!-- Node1&#45;&gt;Node14 -->
<g id="edge49_Node000001_Node000014" class="edge">
<title>Node1&#45;&gt;Node14</title>
<g id="a_edge49_Node000001_Node000014"><a xlink:title=" ">
<path fill="none" stroke="#63b8ff" d="M781.32,-268.22C715.5,-256.66 547.9,-218.99 451,-123 438.26,-110.38 428.29,-92.34 422.11,-79.25"/>
<polygon fill="#63b8ff" stroke="#63b8ff" points="425.26,-77.71 417.98,-70.01 418.86,-80.57 425.26,-77.71"/>
</a>
</g>
</g>
<!-- Node17 -->
<g id="Node000017" class="node">
<title>Node17</title>
<g id="a_Node000017"><a xlink:href="../../df/d93/utils_8hpp.html" target="_top" xlink:title=" ">
<polygon fill="#fff0f0" stroke="red" points="964.5,-123 877.5,-123 877.5,-106 964.5,-106 964.5,-123"/>
<text text-anchor="middle" x="921" y="-112.6" font-family="Helvetica,sans-Serif" font-size="8.00">../../utils/utils.hpp</text>
</a>
</g>
</g>
<!-- Node1&#45;&gt;Node17 -->
<g id="edge40_Node000001_Node000017" class="edge">
<title>Node1&#45;&gt;Node17</title>
<g id="a_edge40_Node000001_Node000017"><a xlink:title=" ">
<path fill="none" stroke="#63b8ff" d="M819.13,-264.92C838.33,-250.01 880.15,-214.93 903,-176 910.81,-162.69 915.48,-145.7 918.09,-133.12"/>
<polygon fill="#63b8ff" stroke="#63b8ff" points="921.58,-133.51 919.95,-123.04 914.7,-132.24 921.58,-133.51"/>
</a>
</g>
</g>
<!-- Node23 -->
<g id="Node000023" class="node">
<title>Node23</title>
<g id="a_Node000023"><a xlink:href="../../d8/d62/existence__set_8hpp.html" target="_top" xlink:title=" ">
<polygon fill="white" stroke="#666666" points="894,-176 724,-176 724,-159 894,-159 894,-176"/>
<text text-anchor="middle" x="809" y="-165.6" font-family="Helvetica,sans-Serif" font-size="8.00">../types/containers/existence_set.hpp</text>
</a>
</g>
</g>
<!-- Node1&#45;&gt;Node23 -->
<g id="edge25_Node000001_Node000023" class="edge">
<title>Node1&#45;&gt;Node23</title>
<g id="a_edge25_Node000001_Node000023"><a xlink:title=" ">
<path fill="none" stroke="#63b8ff" d="M809,-264.68C809,-248.11 809,-209.11 809,-186.18"/>
<polygon fill="#63b8ff" stroke="#63b8ff" points="812.5,-186.12 809,-176.12 805.5,-186.13 812.5,-186.12"/>
</a>
</g>
</g>
<!-- Node24 -->
<g id="Node000024" class="node">
<title>Node24</title>
<g id="a_Node000024"><a xlink:href="../../da/d45/heap_8hpp.html" target="_top" xlink:title=" ">
<polygon fill="white" stroke="#666666" points="686.5,-176 551.5,-176 551.5,-159 686.5,-159 686.5,-176"/>
<text text-anchor="middle" x="619" y="-165.6" font-family="Helvetica,sans-Serif" font-size="8.00">../types/containers/heap.hpp</text>
</a>
</g>
</g>
<!-- Node1&#45;&gt;Node24 -->
<g id="edge34_Node000001_Node000024" class="edge">
<title>Node1&#45;&gt;Node24</title>
<g id="a_edge34_Node000001_Node000024"><a xlink:title=" ">
<path fill="none" stroke="#63b8ff" d="M795.03,-264.85C762.56,-247.08 681.75,-202.85 641.92,-181.05"/>
<polygon fill="#63b8ff" stroke="#63b8ff" points="643.19,-177.75 632.74,-176.02 639.83,-183.89 643.19,-177.75"/>
</a>
</g>
</g>
<!-- Node25 -->
<g id="Node000025" class="node">
<title>Node25</title>
<g id="a_Node000025"><a xlink:href="../../d2/d1c/solver_8hpp.html" target="_top" xlink:title=" ">
<polygon fill="white" stroke="#666666" points="1098,-176 1016,-176 1016,-159 1098,-159 1098,-176"/>
<text text-anchor="middle" x="1057" y="-165.6" font-family="Helvetica,sans-Serif" font-size="8.00">base/solver.hpp</text>
</a>
</g>
</g>
<!-- Node1&#45;&gt;Node25 -->
<g id="edge41_Node000001_Node000025" class="edge">
<title>Node1&#45;&gt;Node25</title>
<g id="a_edge41_Node000001_Node000025"><a xlink:title=" ">
<path fill="none" stroke="#63b8ff" d="M834.19,-264.97C860.08,-256.97 901.39,-243.5 936,-229 971.22,-214.24 1010.51,-193.82 1034.5,-180.89"/>
<polygon fill="#63b8ff" stroke="#63b8ff" points="1036.37,-183.85 1043.49,-176 1033.03,-177.7 1036.37,-183.85"/>
</a>
</g>
</g>
<!-- Node4 -->
<g id="Node000004" class="node">
<title>Node4</title>
<g id="a_Node000004"><a xlink:title=" ">
<polygon fill="#e0e0e0" stroke="#999999" points="109.5,-123 62.5,-123 62.5,-106 109.5,-106 109.5,-123"/>
<text text-anchor="middle" x="86" y="-112.6" font-family="Helvetica,sans-Serif" font-size="8.00">cassert</text>
</a>
</g>
</g>
<!-- Node3&#45;&gt;Node4 -->
<g id="edge3_Node000003_Node000004" class="edge">
<title>Node3&#45;&gt;Node4</title>
<g id="a_edge3_Node000003_Node000004"><a xlink:title=" ">
<path fill="none" stroke="#63b8ff" d="M191.43,-211.68C172.44,-194.36 126.56,-152.5 102.05,-130.15"/>
<polygon fill="#63b8ff" stroke="#63b8ff" points="104.1,-127.28 94.36,-123.12 99.39,-132.45 104.1,-127.28"/>
</a>
</g>
</g>
<!-- Node5 -->
<g id="Node000005" class="node">
<title>Node5</title>
<g id="a_Node000005"><a xlink:title=" ">
<polygon fill="#e0e0e0" stroke="#999999" points="44,-123 0,-123 0,-106 44,-106 44,-123"/>
<text text-anchor="middle" x="22" y="-112.6" font-family="Helvetica,sans-Serif" font-size="8.00">cstdint</text>
</a>
</g>
</g>
<!-- Node3&#45;&gt;Node5 -->
<g id="edge4_Node000003_Node000005" class="edge">
<title>Node3&#45;&gt;Node5</title>
<g id="a_edge4_Node000003_Node000005"><a xlink:title=" ">
<path fill="none" stroke="#63b8ff" d="M186.91,-211.85C156.57,-194.12 81.15,-150.06 43.75,-128.21"/>
<polygon fill="#63b8ff" stroke="#63b8ff" points="45.51,-125.18 35.11,-123.16 41.98,-131.23 45.51,-125.18"/>
</a>
</g>
</g>
<!-- Node6 -->
<g id="Node000006" class="node">
<title>Node6</title>
<g id="a_Node000006"><a xlink:href="../../dc/d3c/bnode_8hpp.html" target="_top" xlink:title=" ">
<polygon fill="white" stroke="#666666" points="74.5,-176 13.5,-176 13.5,-159 74.5,-159 74.5,-176"/>
<text text-anchor="middle" x="44" y="-165.6" font-family="Helvetica,sans-Serif" font-size="8.00">bnode.hpp</text>
</a>
</g>
</g>
<!-- Node3&#45;&gt;Node6 -->
<g id="edge5_Node000003_Node000006" class="edge">
<title>Node3&#45;&gt;Node6</title>
<g id="a_edge5_Node000003_Node000006"><a xlink:title=" ">
<path fill="none" stroke="#63b8ff" d="M176.98,-211.97C150.48,-203.31 106.76,-189.02 76.73,-179.2"/>
<polygon fill="#63b8ff" stroke="#63b8ff" points="77.71,-175.84 67.11,-176.06 75.53,-182.49 77.71,-175.84"/>
</a>
</g>
</g>
<!-- Node7 -->
<g id="Node000007" class="node">
<title>Node7</title>
<g id="a_Node000007"><a xlink:href="../../d9/df8/heterogeneous__pool_8hpp.html" target="_top" xlink:title=" ">
<polygon fill="white" stroke="#666666" points="348.5,-176 169.5,-176 169.5,-159 348.5,-159 348.5,-176"/>
<text text-anchor="middle" x="259" y="-165.6" font-family="Helvetica,sans-Serif" font-size="8.00">../../types/pmr/heterogeneous_pool.hpp</text>
</a>
</g>
</g>
<!-- Node3&#45;&gt;Node7 -->
<g id="edge6_Node000003_Node000007" class="edge">
<title>Node3&#45;&gt;Node7</title>
<g id="a_edge6_Node000003_Node000007"><a xlink:title=" ">
<path fill="none" stroke="#63b8ff" d="M208.71,-211.97C217.59,-204.29 231.61,-192.18 242.59,-182.69"/>
<polygon fill="#63b8ff" stroke="#63b8ff" points="244.98,-185.24 250.26,-176.06 240.4,-179.95 244.98,-185.24"/>
</a>
</g>
</g>
<!-- Node3&#45;&gt;Node14 -->
<g id="edge24_Node000003_Node000014" class="edge">
<title>Node3&#45;&gt;Node14</title>
<g id="a_edge24_Node000003_Node000014"><a xlink:title=" ">
<path fill="none" stroke="#63b8ff" d="M273.41,-211.97C301.98,-205.97 333.44,-195.22 357,-176 373.12,-162.85 396.84,-107.81 408.31,-79.49"/>
<polygon fill="#63b8ff" stroke="#63b8ff" points="411.6,-80.68 412.06,-70.09 405.1,-78.08 411.6,-80.68"/>
</a>
</g>
</g>
<!-- Node7&#45;&gt;Node2 -->
<g id="edge8_Node000007_Node000002" class="edge">
<title>Node7&#45;&gt;Node2</title>
<g id="a_edge8_Node000007_Node000002"><a xlink:title=" ">
<path fill="none" stroke="#63b8ff" d="M220.67,-158.99C183.83,-150 136.56,-132.74 157,-106 211.55,-34.65 263.52,-68.42 352,-53 543.46,-19.64 777.27,-11.82 863.23,-10.02"/>
<polygon fill="#63b8ff" stroke="#63b8ff" points="863.5,-13.52 873.43,-9.82 863.37,-6.52 863.5,-13.52"/>
</a>
</g>
</g>
<!-- Node7&#45;&gt;Node4 -->
<g id="edge7_Node000007_Node000004" class="edge">
<title>Node7&#45;&gt;Node4</title>
<g id="a_edge7_Node000007_Node000004"><a xlink:title=" ">
<path fill="none" stroke="#63b8ff" d="M233.47,-158.97C203.23,-150.06 152.77,-135.18 119.44,-125.36"/>
<polygon fill="#63b8ff" stroke="#63b8ff" points="120.27,-121.95 109.68,-122.48 118.29,-128.67 120.27,-121.95"/>
</a>
</g>
</g>
<!-- Node7&#45;&gt;Node5 -->
<g id="edge9_Node000007_Node000005" class="edge">
<title>Node7&#45;&gt;Node5</title>
<g id="a_edge9_Node000007_Node000005"><a xlink:title=" ">
<path fill="none" stroke="#63b8ff" d="M221.71,-158.97C182.41,-150.95 118.45,-137.7 54.22,-123.22"/>
<polygon fill="#63b8ff" stroke="#63b8ff" points="54.86,-119.78 44.33,-120.99 53.31,-126.61 54.86,-119.78"/>
</a>
</g>
</g>
<!-- Node8 -->
<g id="Node000008" class="node">
<title>Node8</title>
<g id="a_Node000008"><a xlink:title=" ">
<polygon fill="#e0e0e0" stroke="#999999" points="963,-70 925,-70 925,-53 963,-53 963,-70"/>
<text text-anchor="middle" x="944" y="-59.6" font-family="Helvetica,sans-Serif" font-size="8.00">limits</text>
</a>
</g>
</g>
<!-- Node7&#45;&gt;Node8 -->
<g id="edge10_Node000007_Node000008" class="edge">
<title>Node7&#45;&gt;Node8</title>
<g id="a_edge10_Node000007_Node000008"><a xlink:title=" ">
<path fill="none" stroke="#63b8ff" d="M290.04,-158.97C342.76,-146.41 453.33,-121.07 548,-106 684.52,-84.26 849.26,-69.95 914.93,-64.72"/>
<polygon fill="#63b8ff" stroke="#63b8ff" points="915.26,-68.21 924.95,-63.93 914.71,-61.23 915.26,-68.21"/>
</a>
</g>
</g>
<!-- Node9 -->
<g id="Node000009" class="node">
<title>Node9</title>
<g id="a_Node000009"><a xlink:title=" ">
<polygon fill="#e0e0e0" stroke="#999999" points="258.5,-123 223.5,-123 223.5,-106 258.5,-106 258.5,-123"/>
<text text-anchor="middle" x="241" y="-112.6" font-family="Helvetica,sans-Serif" font-size="8.00">map</text>
</a>
</g>
</g>
<!-- Node7&#45;&gt;Node9 -->
<g id="edge11_Node000007_Node000009" class="edge">
<title>Node7&#45;&gt;Node9</title>
<g id="a_edge11_Node000007_Node000009"><a xlink:title=" ">
<path fill="none" stroke="#63b8ff" d="M256.34,-158.97C253.9,-152.04 250.18,-141.51 247.02,-132.55"/>
<polygon fill="#63b8ff" stroke="#63b8ff" points="250.3,-131.32 243.67,-123.06 243.69,-133.65 250.3,-131.32"/>
</a>
</g>
</g>
<!-- Node10 -->
<g id="Node000010" class="node">
<title>Node10</title>
<g id="a_Node000010"><a xlink:title=" ">
<polygon fill="#e0e0e0" stroke="#999999" points="311,-123 277,-123 277,-106 311,-106 311,-123"/>
<text text-anchor="middle" x="294" y="-112.6" font-family="Helvetica,sans-Serif" font-size="8.00">new</text>
</a>
</g>
</g>
<!-- Node7&#45;&gt;Node10 -->
<g id="edge12_Node000007_Node000010" class="edge">
<title>Node7&#45;&gt;Node10</title>
<g id="a_edge12_Node000007_Node000010"><a xlink:title=" ">
<path fill="none" stroke="#63b8ff" d="M264.16,-158.97C269.13,-151.74 276.78,-140.59 283.1,-131.39"/>
<polygon fill="#63b8ff" stroke="#63b8ff" points="286.04,-133.28 288.81,-123.06 280.27,-129.32 286.04,-133.28"/>
</a>
</g>
</g>
<!-- Node11 -->
<g id="Node000011" class="node">
<title>Node11</title>
<g id="a_Node000011"><a xlink:title=" ">
<polygon fill="#e0e0e0" stroke="#999999" points="205.5,-123 166.5,-123 166.5,-106 205.5,-106 205.5,-123"/>
<text text-anchor="middle" x="186" y="-112.6" font-family="Helvetica,sans-Serif" font-size="8.00">utility</text>
</a>
</g>
</g>
<!-- Node7&#45;&gt;Node11 -->
<g id="edge13_Node000007_Node000011" class="edge">
<title>Node7&#45;&gt;Node11</title>
<g id="a_edge13_Node000007_Node000011"><a xlink:title=" ">
<path fill="none" stroke="#63b8ff" d="M248.23,-158.97C236.91,-151.07 218.87,-138.46 205.12,-128.86"/>
<polygon fill="#63b8ff" stroke="#63b8ff" points="207.02,-125.91 196.82,-123.06 203.01,-131.65 207.02,-125.91"/>
</a>
</g>
</g>
<!-- Node12 -->
<g id="Node000012" class="node">
<title>Node12</title>
<g id="a_Node000012"><a xlink:title=" ">
<polygon fill="#e0e0e0" stroke="#999999" points="745,-123 703,-123 703,-106 745,-106 745,-123"/>
<text text-anchor="middle" x="724" y="-112.6" font-family="Helvetica,sans-Serif" font-size="8.00">vector</text>
</a>
</g>
</g>
<!-- Node7&#45;&gt;Node12 -->
<g id="edge14_Node000007_Node000012" class="edge">
<title>Node7&#45;&gt;Node12</title>
<g id="a_edge14_Node000007_Node000012"><a xlink:title=" ">
<path fill="none" stroke="#63b8ff" d="M327.61,-158.97C429.95,-147.75 618.47,-127.07 692.75,-118.93"/>
<polygon fill="#63b8ff" stroke="#63b8ff" points="693.3,-122.39 702.85,-117.82 692.53,-115.43 693.3,-122.39"/>
</a>
</g>
</g>
<!-- Node13 -->
<g id="Node000013" class="node">
<title>Node13</title>
<g id="a_Node000013"><a xlink:title=" ">
<polygon fill="#e0e0e0" stroke="#999999" points="646.5,-123 557.5,-123 557.5,-106 646.5,-106 646.5,-123"/>
<text text-anchor="middle" x="602" y="-112.6" font-family="Helvetica,sans-Serif" font-size="8.00">memory_resource</text>
</a>
</g>
</g>
<!-- Node7&#45;&gt;Node13 -->
<g id="edge15_Node000007_Node000013" class="edge">
<title>Node7&#45;&gt;Node13</title>
<g id="a_edge15_Node000007_Node000013"><a xlink:title=" ">
<path fill="none" stroke="#63b8ff" d="M309.61,-158.97C373.2,-149.52 481.91,-133.36 547.35,-123.63"/>
<polygon fill="#63b8ff" stroke="#63b8ff" points="548.09,-127.05 557.46,-122.12 547.06,-120.13 548.09,-127.05"/>
</a>
</g>
</g>
<!-- Node7&#45;&gt;Node14 -->
<g id="edge16_Node000007_Node000014" class="edge">
<title>Node7&#45;&gt;Node14</title>
<g id="a_edge16_Node000007_Node000014"><a xlink:title=" ">
<path fill="none" stroke="#63b8ff" d="M270.47,-158.85C296.84,-141.27 362.04,-97.81 395.1,-75.77"/>
<polygon fill="#63b8ff" stroke="#63b8ff" points="397.13,-78.62 403.51,-70.16 393.25,-72.79 397.13,-78.62"/>
</a>
</g>
</g>
<!-- Node7&#45;&gt;Node17 -->
<g id="edge18_Node000007_Node000017" class="edge">
<title>Node7&#45;&gt;Node17</title>
<g id="a_edge18_Node000007_Node000017"><a xlink:title=" ">
<path fill="none" stroke="#63b8ff" d="M348.62,-159.6C488.21,-148.84 753.28,-128.42 866.99,-119.66"/>
<polygon fill="#63b8ff" stroke="#63b8ff" points="867.49,-123.13 877.19,-118.88 866.95,-116.15 867.49,-123.13"/>
</a>
</g>
</g>
<!-- Node14&#45;&gt;Node2 -->
<g id="edge17_Node000014_Node000002" class="edge">
<title>Node14&#45;&gt;Node2</title>
<g id="a_edge17_Node000014_Node000002"><a xlink:title=" ">
<path fill="none" stroke="#63b8ff" d="M468.82,-54.54C473.61,-54.01 478.39,-53.5 483,-53 624.14,-37.8 792.41,-20.32 863.1,-13"/>
<polygon fill="#63b8ff" stroke="#63b8ff" points="863.61,-16.47 873.19,-11.96 862.89,-9.51 863.61,-16.47"/>
</a>
</g>
</g>
<!-- Node17&#45;&gt;Node2 -->
<g id="edge19_Node000017_Node000002" class="edge">
<title>Node17&#45;&gt;Node2</title>
<g id="a_edge19_Node000017_Node000002"><a xlink:title=" ">
<path fill="none" stroke="#63b8ff" d="M919.2,-105.68C915.36,-89.04 906.29,-49.75 901.01,-26.87"/>
<polygon fill="#63b8ff" stroke="#63b8ff" points="904.42,-26.08 898.76,-17.12 897.6,-27.66 904.42,-26.08"/>
</a>
</g>
</g>
<!-- Node17&#45;&gt;Node8 -->
<g id="edge21_Node000017_Node000008" class="edge">
<title>Node17&#45;&gt;Node8</title>
<g id="a_edge21_Node000017_Node000008"><a xlink:title=" ">
<path fill="none" stroke="#63b8ff" d="M924.39,-105.97C927.55,-98.97 932.37,-88.28 936.44,-79.25"/>
<polygon fill="#63b8ff" stroke="#63b8ff" points="939.67,-80.61 940.59,-70.06 933.29,-77.73 939.67,-80.61"/>
</a>
</g>
</g>
<!-- Node17&#45;&gt;Node14 -->
<g id="edge23_Node000017_Node000014" class="edge">
<title>Node17&#45;&gt;Node14</title>
<g id="a_edge23_Node000017_Node000014"><a xlink:title=" ">
<path fill="none" stroke="#63b8ff" d="M877.31,-107.7C872.49,-107.1 867.64,-106.53 863,-106 726.13,-90.51 565.34,-75.73 478.47,-68.02"/>
<polygon fill="#63b8ff" stroke="#63b8ff" points="478.77,-64.54 468.5,-67.14 478.16,-71.51 478.77,-64.54"/>
</a>
</g>
</g>
<!-- Node20 -->
<g id="Node000020" class="node">
<title>Node20</title>
<g id="a_Node000020"><a xlink:title=" ">
<polygon fill="#e0e0e0" stroke="#999999" points="840,-70 782,-70 782,-53 840,-53 840,-70"/>
<text text-anchor="middle" x="811" y="-59.6" font-family="Helvetica,sans-Serif" font-size="8.00">functional</text>
</a>
</g>
</g>
<!-- Node17&#45;&gt;Node20 -->
<g id="edge20_Node000017_Node000020" class="edge">
<title>Node17&#45;&gt;Node20</title>
<g id="a_edge20_Node000017_Node000020"><a xlink:title=" ">
<path fill="none" stroke="#63b8ff" d="M904.77,-105.97C886.82,-97.65 857.65,-84.13 836.61,-74.37"/>
<polygon fill="#63b8ff" stroke="#63b8ff" points="837.84,-71.09 827.3,-70.06 834.9,-77.44 837.84,-71.09"/>
</a>
</g>
</g>
<!-- Node22 -->
<g id="Node000022" class="node">
<title>Node22</title>
<g id="a_Node000022"><a xlink:title=" ">
<polygon fill="#e0e0e0" stroke="#999999" points="1040.5,-70 981.5,-70 981.5,-53 1040.5,-53 1040.5,-70"/>
<text text-anchor="middle" x="1011" y="-59.6" font-family="Helvetica,sans-Serif" font-size="8.00">type_traits</text>
</a>
</g>
</g>
<!-- Node17&#45;&gt;Node22 -->
<g id="edge22_Node000017_Node000022" class="edge">
<title>Node17&#45;&gt;Node22</title>
<g id="a_edge22_Node000017_Node000022"><a xlink:title=" ">
<path fill="none" stroke="#63b8ff" d="M934.28,-105.97C948.64,-97.84 971.76,-84.74 988.87,-75.04"/>
<polygon fill="#63b8ff" stroke="#63b8ff" points="990.69,-78.03 997.67,-70.06 987.24,-71.94 990.69,-78.03"/>
</a>
</g>
</g>
<!-- Node23&#45;&gt;Node2 -->
<g id="edge26_Node000023_Node000002" class="edge">
<title>Node23&#45;&gt;Node2</title>
<g id="a_edge26_Node000023_Node000002"><a xlink:title=" ">
<path fill="none" stroke="#63b8ff" d="M894.39,-161.62C932.24,-156.17 975.84,-145.13 1010,-123 1034.55,-107.1 1039.88,-97.79 1049,-70 1065.22,-20.6 980.51,-10.91 930.93,-9.4"/>
<polygon fill="#63b8ff" stroke="#63b8ff" points="930.71,-5.9 920.64,-9.19 930.56,-12.9 930.71,-5.9"/>
</a>
</g>
</g>
<!-- Node23&#45;&gt;Node8 -->
<g id="edge28_Node000023_Node000008" class="edge">
<title>Node23&#45;&gt;Node8</title>
<g id="a_edge28_Node000023_Node000008"><a xlink:title=" ">
<path fill="none" stroke="#63b8ff" d="M865.27,-158.96C907.33,-152.04 959.75,-140.22 973,-123 983.82,-108.93 971.49,-90.18 959.73,-77.3"/>
<polygon fill="#63b8ff" stroke="#63b8ff" points="962.2,-74.82 952.69,-70.13 957.2,-79.72 962.2,-74.82"/>
</a>
</g>
</g>
<!-- Node23&#45;&gt;Node12 -->
<g id="edge31_Node000023_Node000012" class="edge">
<title>Node23&#45;&gt;Node12</title>
<g id="a_edge31_Node000023_Node000012"><a xlink:title=" ">
<path fill="none" stroke="#63b8ff" d="M796.46,-158.97C783.02,-150.91 761.46,-137.98 745.35,-128.31"/>
<polygon fill="#63b8ff" stroke="#63b8ff" points="746.97,-125.2 736.59,-123.06 743.37,-131.2 746.97,-125.2"/>
</a>
</g>
</g>
<!-- Node23&#45;&gt;Node13 -->
<g id="edge29_Node000023_Node000013" class="edge">
<title>Node23&#45;&gt;Node13</title>
<g id="a_edge29_Node000023_Node000013"><a xlink:title=" ">
<path fill="none" stroke="#63b8ff" d="M778.46,-158.97C742.45,-150.1 682.49,-135.33 642.6,-125.5"/>
<polygon fill="#63b8ff" stroke="#63b8ff" points="643.22,-122.05 632.67,-123.06 641.54,-128.85 643.22,-122.05"/>
</a>
</g>
</g>
<!-- Node23&#45;&gt;Node14 -->
<g id="edge33_Node000023_Node000014" class="edge">
<title>Node23&#45;&gt;Node14</title>
<g id="a_edge33_Node000023_Node000014"><a xlink:title=" ">
<path fill="none" stroke="#63b8ff" d="M804.69,-158.99C796.63,-145.75 777.92,-118.46 754,-106 707.41,-81.73 563.11,-70.22 478.54,-65.43"/>
<polygon fill="#63b8ff" stroke="#63b8ff" points="478.71,-61.94 468.54,-64.88 478.33,-68.93 478.71,-61.94"/>
</a>
</g>
</g>
<!-- Node23&#45;&gt;Node17 -->
<g id="edge32_Node000023_Node000017" class="edge">
<title>Node23&#45;&gt;Node17</title>
<g id="a_edge32_Node000023_Node000017"><a xlink:title=" ">
<path fill="none" stroke="#63b8ff" d="M825.53,-158.97C843.89,-150.61 873.77,-137 895.22,-127.24"/>
<polygon fill="#63b8ff" stroke="#63b8ff" points="896.76,-130.39 904.41,-123.06 893.85,-124.01 896.76,-130.39"/>
</a>
</g>
</g>
<!-- Node23&#45;&gt;Node20 -->
<g id="edge27_Node000023_Node000020" class="edge">
<title>Node23&#45;&gt;Node20</title>
<g id="a_edge27_Node000023_Node000020"><a xlink:title=" ">
<path fill="none" stroke="#63b8ff" d="M809.15,-158.68C809.47,-142.11 810.22,-103.11 810.66,-80.18"/>
<polygon fill="#63b8ff" stroke="#63b8ff" points="814.16,-80.19 810.85,-70.12 807.16,-80.06 814.16,-80.19"/>
</a>
</g>
</g>
<!-- Node23&#45;&gt;Node22 -->
<g id="edge30_Node000023_Node000022" class="edge">
<title>Node23&#45;&gt;Node22</title>
<g id="a_edge30_Node000023_Node000022"><a xlink:title=" ">
<path fill="none" stroke="#63b8ff" d="M865.33,-158.96C911.4,-151.74 971.8,-139.49 990,-123 1002.1,-112.03 1007.23,-93.74 1009.4,-80.13"/>
<polygon fill="#63b8ff" stroke="#63b8ff" points="1012.89,-80.42 1010.62,-70.07 1005.94,-79.57 1012.89,-80.42"/>
</a>
</g>
</g>
<!-- Node24&#45;&gt;Node2 -->
<g id="edge35_Node000024_Node000002" class="edge">
<title>Node24&#45;&gt;Node2</title>
<g id="a_edge35_Node000024_Node000002"><a xlink:title=" ">
<path fill="none" stroke="#63b8ff" d="M597.02,-158.94C570.32,-148.54 530.84,-128.55 548,-106 586.67,-55.19 783.7,-24.26 863.44,-13.65"/>
<polygon fill="#63b8ff" stroke="#63b8ff" points="863.98,-17.11 873.44,-12.34 863.08,-10.16 863.98,-17.11"/>
</a>
</g>
</g>
<!-- Node24&#45;&gt;Node12 -->
<g id="edge37_Node000024_Node000012" class="edge">
<title>Node24&#45;&gt;Node12</title>
<g id="a_edge37_Node000024_Node000012"><a xlink:title=" ">
<path fill="none" stroke="#63b8ff" d="M634.49,-158.97C651.55,-150.69 679.22,-137.25 699.28,-127.5"/>
<polygon fill="#63b8ff" stroke="#63b8ff" points="700.98,-130.57 708.44,-123.06 697.92,-124.28 700.98,-130.57"/>
</a>
</g>
</g>
<!-- Node24&#45;&gt;Node13 -->
<g id="edge38_Node000024_Node000013" class="edge">
<title>Node24&#45;&gt;Node13</title>
<g id="a_edge38_Node000024_Node000013"><a xlink:title=" ">
<path fill="none" stroke="#63b8ff" d="M616.49,-158.97C614.18,-152.04 610.67,-141.51 607.68,-132.55"/>
<polygon fill="#63b8ff" stroke="#63b8ff" points="611,-131.44 604.52,-123.06 604.36,-133.65 611,-131.44"/>
</a>
</g>
</g>
<!-- Node24&#45;&gt;Node14 -->
<g id="edge39_Node000024_Node000014" class="edge">
<title>Node24&#45;&gt;Node14</title>
<g id="a_edge39_Node000024_Node000014"><a xlink:title=" ">
<path fill="none" stroke="#63b8ff" d="M576.13,-158.93C546.76,-152.45 507.72,-141.21 477,-123 457.26,-111.3 439.03,-92.05 427.52,-78.41"/>
<polygon fill="#63b8ff" stroke="#63b8ff" points="430.01,-75.93 420.97,-70.4 424.58,-80.36 430.01,-75.93"/>
</a>
</g>
</g>
<!-- Node24&#45;&gt;Node20 -->
<g id="edge36_Node000024_Node000020" class="edge">
<title>Node24&#45;&gt;Node20</title>
<g id="a_edge36_Node000024_Node000020"><a xlink:title=" ">
<path fill="none" stroke="#63b8ff" d="M626.69,-158.86C639.62,-146.35 666.96,-121.39 694,-106 719.05,-91.74 749.65,-80.56 773.27,-73.1"/>
<polygon fill="#63b8ff" stroke="#63b8ff" points="774.4,-76.42 782.93,-70.14 772.35,-69.73 774.4,-76.42"/>
</a>
</g>
</g>
<!-- Node25&#45;&gt;Node2 -->
<g id="edge42_Node000025_Node000002" class="edge">
<title>Node25&#45;&gt;Node2</title>
<g id="a_edge42_Node000025_Node000002"><a xlink:title=" ">
<path fill="none" stroke="#63b8ff" d="M1098.42,-164.8C1153.46,-160.91 1240.51,-148.11 1211,-106 1178.32,-59.37 1005.58,-26.77 931.16,-14.69"/>
<polygon fill="#63b8ff" stroke="#63b8ff" points="931.35,-11.17 920.92,-13.05 930.25,-18.08 931.35,-11.17"/>
</a>
</g>
</g>
<!-- Node25&#45;&gt;Node8 -->
<g id="edge43_Node000025_Node000008" class="edge">
<title>Node25&#45;&gt;Node8</title>
<g id="a_edge43_Node000025_Node000008"><a xlink:title=" ">
<path fill="none" stroke="#63b8ff" d="M1094.7,-158.93C1132.01,-149.76 1180.63,-132.19 1159,-106 1107.11,-43.16 1058.25,-85.54 973.23,-69.92"/>
<polygon fill="#63b8ff" stroke="#63b8ff" points="973.74,-66.45 963.23,-67.85 972.31,-73.3 973.74,-66.45"/>
</a>
</g>
</g>
<!-- Node25&#45;&gt;Node12 -->
<g id="edge45_Node000025_Node000012" class="edge">
<title>Node25&#45;&gt;Node12</title>
<g id="a_edge45_Node000025_Node000012"><a xlink:title=" ">
<path fill="none" stroke="#63b8ff" d="M1015.83,-160.2C948.37,-149.86 815.73,-129.55 755.31,-120.3"/>
<polygon fill="#63b8ff" stroke="#63b8ff" points="755.65,-116.81 745.24,-118.75 754.59,-123.73 755.65,-116.81"/>
</a>
</g>
</g>
<!-- Node25&#45;&gt;Node14 -->
<g id="edge48_Node000025_Node000014" class="edge">
<title>Node25&#45;&gt;Node14</title>
<g id="a_edge48_Node000025_Node000014"><a xlink:title=" ">
<path fill="none" stroke="#63b8ff" d="M1024.29,-158.97C961.54,-144.59 826.25,-113.95 779,-106 674.46,-88.42 551.87,-75.3 478.97,-68.28"/>
<polygon fill="#63b8ff" stroke="#63b8ff" points="478.87,-64.76 468.58,-67.29 478.2,-71.72 478.87,-64.76"/>
</a>
</g>
</g>
<!-- Node25&#45;&gt;Node17 -->
<g id="edge46_Node000025_Node000017" class="edge">
<title>Node25&#45;&gt;Node17</title>
<g id="a_edge46_Node000025_Node000017"><a xlink:title=" ">
<path fill="none" stroke="#63b8ff" d="M1036.93,-158.97C1014.13,-150.42 976.7,-136.39 950.56,-126.59"/>
<polygon fill="#63b8ff" stroke="#63b8ff" points="951.74,-123.29 941.15,-123.06 949.28,-129.84 951.74,-123.29"/>
</a>
</g>
</g>
<!-- Node25&#45;&gt;Node22 -->
<g id="edge44_Node000025_Node000022" class="edge">
<title>Node25&#45;&gt;Node22</title>
<g id="a_edge44_Node000025_Node000022"><a xlink:title=" ">
<path fill="none" stroke="#63b8ff" d="M1098.07,-162.77C1147.6,-156.65 1220.94,-141.4 1193,-106 1175.61,-83.96 1098.76,-71.86 1050.65,-66.31"/>
<polygon fill="#63b8ff" stroke="#63b8ff" points="1050.88,-62.82 1040.56,-65.2 1050.11,-69.78 1050.88,-62.82"/>
</a>
</g>
</g>
<!-- Node26 -->
<g id="Node000026" class="node">
<title>Node26</title>
<g id="a_Node000026"><a xlink:title=" ">
<polygon fill="#e0e0e0" stroke="#999999" points="1150.5,-123 1097.5,-123 1097.5,-106 1150.5,-106 1150.5,-123"/>
<text text-anchor="middle" x="1124" y="-112.6" font-family="Helvetica,sans-Serif" font-size="8.00">iostream</text>
</a>
</g>
</g>
<!-- Node25&#45;&gt;Node26 -->
<g id="edge47_Node000025_Node000026" class="edge">
<title>Node25&#45;&gt;Node26</title>
<g id="a_edge47_Node000025_Node000026"><a xlink:title=" ">
<path fill="none" stroke="#63b8ff" d="M1066.89,-158.97C1077.18,-151.14 1093.52,-138.7 1106.09,-129.13"/>
<polygon fill="#63b8ff" stroke="#63b8ff" points="1108.24,-131.9 1114.07,-123.06 1104,-126.33 1108.24,-131.9"/>
</a>
</g>
</g>
</g>
</svg>
