<?xml version="1.0" encoding="UTF-8" standalone="no"?>
<!DOCTYPE svg PUBLIC "-//W3C//DTD SVG 1.1//EN"
 "http://www.w3.org/Graphics/SVG/1.1/DTD/svg11.dtd">
<!-- Generated by graphviz version 2.43.0 (0)
 -->
<!-- Title: gstar.hpp Pages: 1 -->
<svg width="1159pt" height="290pt"
 viewBox="0.00 0.00 1158.74 290.00" xmlns="http://www.w3.org/2000/svg" xmlns:xlink="http://www.w3.org/1999/xlink">
<g id="graph0" class="graph" transform="scale(1 1) rotate(0) translate(4 286)">
<title>gstar.hpp</title>
<!-- Node1 -->
<g id="Node000001" class="node">
<title>Node1</title>
<g id="a_Node000001"><a xlink:title=" ">
<polygon fill="#999999" stroke="#666666" points="480,-282 430,-282 430,-265 480,-265 480,-282"/>
<text text-anchor="middle" x="455" y="-271.6" font-family="Helvetica,sans-Serif" font-size="8.00">gstar.hpp</text>
</a>
</g>
</g>
<!-- Node2 -->
<g id="Node000002" class="node">
<title>Node2</title>
<g id="a_Node000002"><a xlink:title=" ">
<polygon fill="#e0e0e0" stroke="#999999" points="459,-17 417,-17 417,0 459,0 459,-17"/>
<text text-anchor="middle" x="438" y="-6.6" font-family="Helvetica,sans-Serif" font-size="8.00">cstddef</text>
</a>
</g>
</g>
<!-- Node1&#45;&gt;Node2 -->
<g id="edge1_Node000001_Node000002" class="edge">
<title>Node1&#45;&gt;Node2</title>
<g id="a_edge1_Node000001_Node000002"><a xlink:title=" ">
<path fill="none" stroke="#63b8ff" d="M429.89,-272.18C334.5,-270.32 0,-257.43 0,-168.5 0,-168.5 0,-168.5 0,-113.5 0,-29.8 306.63,-13.36 406.77,-10.22"/>
<polygon fill="#63b8ff" stroke="#63b8ff" points="406.98,-13.71 416.87,-9.93 406.78,-6.72 406.98,-13.71"/>
</a>
</g>
</g>
<!-- Node3 -->
<g id="Node000003" class="node">
<title>Node3</title>
<g id="a_Node000003"><a xlink:href="../../da/deb/managed__node_8hpp.html" target="_top" xlink:title=" ">
<polygon fill="white" stroke="#666666" points="1113,-229 971,-229 971,-212 1113,-212 1113,-229"/>
<text text-anchor="middle" x="1042" y="-218.6" font-family="Helvetica,sans-Serif" font-size="8.00">../solvers/base/managed_node.hpp</text>
</a>
</g>
</g>
<!-- Node1&#45;&gt;Node3 -->
<g id="edge2_Node000001_Node000003" class="edge">
<title>Node1&#45;&gt;Node3</title>
<g id="a_edge2_Node000001_Node000003"><a xlink:title=" ">
<path fill="none" stroke="#63b8ff" d="M480.22,-270.31C562.51,-263.16 825.6,-240.3 960.51,-228.58"/>
<polygon fill="#63b8ff" stroke="#63b8ff" points="961.13,-232.04 970.79,-227.69 960.53,-225.07 961.13,-232.04"/>
</a>
</g>
</g>
<!-- Node12 -->
<g id="Node000012" class="node">
<title>Node12</title>
<g id="a_Node000012"><a xlink:href="../../d7/d65/intrinsics_8hpp.html" target="_top" xlink:title=" ">
<polygon fill="#fff0f0" stroke="red" points="766,-70 674,-70 674,-53 766,-53 766,-70"/>
<text text-anchor="middle" x="720" y="-59.6" font-family="Helvetica,sans-Serif" font-size="8.00">../../utils/intrinsics.hpp</text>
</a>
</g>
</g>
<!-- Node1&#45;&gt;Node12 -->
<g id="edge46_Node000001_Node000012" class="edge">
<title>Node1&#45;&gt;Node12</title>
<g id="a_edge46_Node000001_Node000012"><a xlink:title=" ">
<path fill="none" stroke="#63b8ff" d="M480.46,-270.86C547.91,-264.97 731.01,-238.52 803,-123 817.17,-100.26 786.1,-83.37 758.02,-73.3"/>
<polygon fill="#63b8ff" stroke="#63b8ff" points="758.89,-69.89 748.3,-70.02 756.66,-76.53 758.89,-69.89"/>
</a>
</g>
</g>
<!-- Node15 -->
<g id="Node000015" class="node">
<title>Node15</title>
<g id="a_Node000015"><a xlink:href="../../df/d93/utils_8hpp.html" target="_top" xlink:title=" ">
<polygon fill="#fff0f0" stroke="red" points="409.5,-123 334.5,-123 334.5,-106 409.5,-106 409.5,-123"/>
<text text-anchor="middle" x="372" y="-112.6" font-family="Helvetica,sans-Serif" font-size="8.00">../../utils/utils.hpp</text>
</a>
</g>
</g>
<!-- Node1&#45;&gt;Node15 -->
<g id="edge38_Node000001_Node000015" class="edge">
<title>Node1&#45;&gt;Node15</title>
<g id="a_edge38_Node000001_Node000015"><a xlink:title=" ">
<path fill="none" stroke="#63b8ff" d="M451,-264.93C438.32,-240.95 398.84,-166.27 380.96,-132.45"/>
<polygon fill="#63b8ff" stroke="#63b8ff" points="383.93,-130.57 376.16,-123.37 377.74,-133.84 383.93,-130.57"/>
</a>
</g>
</g>
<!-- Node22 -->
<g id="Node000022" class="node">
<title>Node22</title>
<g id="a_Node000022"><a xlink:href="../../d8/d62/existence__set_8hpp.html" target="_top" xlink:title=" ">
<polygon fill="white" stroke="#666666" points="362.5,-176 215.5,-176 215.5,-159 362.5,-159 362.5,-176"/>
<text text-anchor="middle" x="289" y="-165.6" font-family="Helvetica,sans-Serif" font-size="8.00">../types/containers/existence_set.hpp</text>
</a>
</g>
</g>
<!-- Node1&#45;&gt;Node22 -->
<g id="edge22_Node000001_Node000022" class="edge">
<title>Node1&#45;&gt;Node22</title>
<g id="a_edge22_Node000001_Node000022"><a xlink:title=" ">
<path fill="none" stroke="#63b8ff" d="M440.39,-264.88C424.54,-256.49 398.6,-242.41 377,-229 352.45,-213.76 325.18,-194.66 307.6,-182.04"/>
<polygon fill="#63b8ff" stroke="#63b8ff" points="309.51,-179.1 299.35,-176.09 305.41,-184.78 309.51,-179.1"/>
</a>
</g>
</g>
<!-- Node24 -->
<g id="Node000024" class="node">
<title>Node24</title>
<g id="a_Node000024"><a xlink:href="../../da/d45/heap_8hpp.html" target="_top" xlink:title=" ">
<polygon fill="white" stroke="#666666" points="685.5,-176 568.5,-176 568.5,-159 685.5,-159 685.5,-176"/>
<text text-anchor="middle" x="627" y="-165.6" font-family="Helvetica,sans-Serif" font-size="8.00">../types/containers/heap.hpp</text>
</a>
</g>
</g>
<!-- Node1&#45;&gt;Node24 -->
<g id="edge32_Node000001_Node000024" class="edge">
<title>Node1&#45;&gt;Node24</title>
<g id="a_edge32_Node000001_Node000024"><a xlink:title=" ">
<path fill="none" stroke="#63b8ff" d="M467.65,-264.85C496.85,-247.2 569.23,-203.43 605.52,-181.49"/>
<polygon fill="#63b8ff" stroke="#63b8ff" points="607.59,-184.33 614.33,-176.16 603.97,-178.34 607.59,-184.33"/>
</a>
</g>
</g>
<!-- Node25 -->
<g id="Node000025" class="node">
<title>Node25</title>
<g id="a_Node000025"><a xlink:href="../../d2/d1c/solver_8hpp.html" target="_top" xlink:title=" ">
<polygon fill="white" stroke="#666666" points="491,-176 419,-176 419,-159 491,-159 491,-176"/>
<text text-anchor="middle" x="455" y="-165.6" font-family="Helvetica,sans-Serif" font-size="8.00">base/solver.hpp</text>
</a>
</g>
</g>
<!-- Node1&#45;&gt;Node25 -->
<g id="edge39_Node000001_Node000025" class="edge">
<title>Node1&#45;&gt;Node25</title>
<g id="a_edge39_Node000001_Node000025"><a xlink:title=" ">
<path fill="none" stroke="#63b8ff" d="M455,-264.68C455,-248.11 455,-209.11 455,-186.18"/>
<polygon fill="#63b8ff" stroke="#63b8ff" points="458.5,-186.12 455,-176.12 451.5,-186.13 458.5,-186.12"/>
</a>
</g>
</g>
<!-- Node4 -->
<g id="Node000004" class="node">
<title>Node4</title>
<g id="a_Node000004"><a xlink:title=" ">
<polygon fill="#e0e0e0" stroke="#999999" points="1128,-123 1086,-123 1086,-106 1128,-106 1128,-123"/>
<text text-anchor="middle" x="1107" y="-112.6" font-family="Helvetica,sans-Serif" font-size="8.00">cassert</text>
</a>
</g>
</g>
<!-- Node3&#45;&gt;Node4 -->
<g id="edge3_Node000003_Node000004" class="edge">
<title>Node3&#45;&gt;Node4</title>
<g id="a_edge3_Node000003_Node000004"><a xlink:title=" ">
<path fill="none" stroke="#63b8ff" d="M1043.29,-211.93C1045.58,-199.95 1051.17,-176.24 1062,-159 1069.08,-147.73 1079.69,-137.28 1088.83,-129.45"/>
<polygon fill="#63b8ff" stroke="#63b8ff" points="1091.13,-132.09 1096.66,-123.05 1086.7,-126.67 1091.13,-132.09"/>
</a>
</g>
</g>
<!-- Node5 -->
<g id="Node000005" class="node">
<title>Node5</title>
<g id="a_Node000005"><a xlink:href="../../dc/d3c/bnode_8hpp.html" target="_top" xlink:title=" ">
<polygon fill="white" stroke="#666666" points="1125.5,-176 1070.5,-176 1070.5,-159 1125.5,-159 1125.5,-176"/>
<text text-anchor="middle" x="1098" y="-165.6" font-family="Helvetica,sans-Serif" font-size="8.00">bnode.hpp</text>
</a>
</g>
</g>
<!-- Node3&#45;&gt;Node5 -->
<g id="edge4_Node000003_Node000005" class="edge">
<title>Node3&#45;&gt;Node5</title>
<g id="a_edge4_Node000003_Node000005"><a xlink:title=" ">
<path fill="none" stroke="#63b8ff" d="M1050.26,-211.97C1058.62,-204.37 1071.74,-192.41 1082.12,-182.97"/>
<polygon fill="#63b8ff" stroke="#63b8ff" points="1084.67,-185.38 1089.7,-176.06 1079.95,-180.2 1084.67,-185.38"/>
</a>
</g>
</g>
<!-- Node6 -->
<g id="Node000006" class="node">
<title>Node6</title>
<g id="a_Node000006"><a xlink:href="../../d9/df8/heterogeneous__pool_8hpp.html" target="_top" xlink:title=" ">
<polygon fill="white" stroke="#666666" points="1009.5,-176 852.5,-176 852.5,-159 1009.5,-159 1009.5,-176"/>
<text text-anchor="middle" x="931" y="-165.6" font-family="Helvetica,sans-Serif" font-size="8.00">../../types/pmr/heterogeneous_pool.hpp</text>
</a>
</g>
</g>
<!-- Node3&#45;&gt;Node6 -->
<g id="edge5_Node000003_Node000006" class="edge">
<title>Node3&#45;&gt;Node6</title>
<g id="a_edge5_Node000003_Node000006"><a xlink:title=" ">
<path fill="none" stroke="#63b8ff" d="M1025.62,-211.97C1007.42,-203.61 977.8,-190 956.55,-180.24"/>
<polygon fill="#63b8ff" stroke="#63b8ff" points="957.99,-177.05 947.45,-176.06 955.07,-183.41 957.99,-177.05"/>
</a>
</g>
</g>
<!-- Node3&#45;&gt;Node12 -->
<g id="edge21_Node000003_Node000012" class="edge">
<title>Node3&#45;&gt;Node12</title>
<g id="a_edge21_Node000003_Node000012"><a xlink:title=" ">
<path fill="none" stroke="#63b8ff" d="M1079.52,-211.87C1099.5,-205.72 1122.49,-194.87 1135,-176 1152.2,-150.06 1157.83,-129.12 1137,-106 1113.28,-79.68 884.39,-68.23 776.17,-64.26"/>
<polygon fill="#63b8ff" stroke="#63b8ff" points="776.2,-60.76 766.08,-63.9 775.95,-67.75 776.2,-60.76"/>
</a>
</g>
</g>
<!-- Node6&#45;&gt;Node2 -->
<g id="edge7_Node000006_Node000002" class="edge">
<title>Node6&#45;&gt;Node2</title>
<g id="a_edge7_Node000006_Node000002"><a xlink:title=" ">
<path fill="none" stroke="#63b8ff" d="M923.85,-158.74C903.27,-137.05 841.16,-75.86 775,-53 667.17,-15.74 529.94,-9.95 469.26,-9.35"/>
<polygon fill="#63b8ff" stroke="#63b8ff" points="469.21,-5.85 459.19,-9.29 469.17,-12.85 469.21,-5.85"/>
</a>
</g>
</g>
<!-- Node6&#45;&gt;Node4 -->
<g id="edge6_Node000006_Node000004" class="edge">
<title>Node6&#45;&gt;Node4</title>
<g id="a_edge6_Node000006_Node000004"><a xlink:title=" ">
<path fill="none" stroke="#63b8ff" d="M956.97,-158.97C988.69,-149.78 1042.27,-134.26 1076.08,-124.46"/>
<polygon fill="#63b8ff" stroke="#63b8ff" points="1077.27,-127.76 1085.9,-121.62 1075.32,-121.04 1077.27,-127.76"/>
</a>
</g>
</g>
<!-- Node7 -->
<g id="Node000007" class="node">
<title>Node7</title>
<g id="a_Node000007"><a xlink:title=" ">
<polygon fill="#e0e0e0" stroke="#999999" points="965.5,-123 926.5,-123 926.5,-106 965.5,-106 965.5,-123"/>
<text text-anchor="middle" x="946" y="-112.6" font-family="Helvetica,sans-Serif" font-size="8.00">cstdint</text>
</a>
</g>
</g>
<!-- Node6&#45;&gt;Node7 -->
<g id="edge8_Node000006_Node000007" class="edge">
<title>Node6&#45;&gt;Node7</title>
<g id="a_edge8_Node000006_Node000007"><a xlink:title=" ">
<path fill="none" stroke="#63b8ff" d="M933.21,-158.97C935.23,-152.12 938.28,-141.74 940.9,-132.84"/>
<polygon fill="#63b8ff" stroke="#63b8ff" points="944.31,-133.64 943.78,-123.06 937.6,-131.66 944.31,-133.64"/>
</a>
</g>
</g>
<!-- Node8 -->
<g id="Node000008" class="node">
<title>Node8</title>
<g id="a_Node000008"><a xlink:title=" ">
<polygon fill="#e0e0e0" stroke="#999999" points="1016,-123 984,-123 984,-106 1016,-106 1016,-123"/>
<text text-anchor="middle" x="1000" y="-112.6" font-family="Helvetica,sans-Serif" font-size="8.00">map</text>
</a>
</g>
</g>
<!-- Node6&#45;&gt;Node8 -->
<g id="edge9_Node000006_Node000008" class="edge">
<title>Node6&#45;&gt;Node8</title>
<g id="a_edge9_Node000006_Node000008"><a xlink:title=" ">
<path fill="none" stroke="#63b8ff" d="M941.18,-158.97C951.78,-151.14 968.61,-138.7 981.56,-129.13"/>
<polygon fill="#63b8ff" stroke="#63b8ff" points="983.82,-131.81 989.78,-123.06 979.65,-126.19 983.82,-131.81"/>
</a>
</g>
</g>
<!-- Node9 -->
<g id="Node000009" class="node">
<title>Node9</title>
<g id="a_Node000009"><a xlink:title=" ">
<polygon fill="#e0e0e0" stroke="#999999" points="1068,-123 1034,-123 1034,-106 1068,-106 1068,-123"/>
<text text-anchor="middle" x="1051" y="-112.6" font-family="Helvetica,sans-Serif" font-size="8.00">utility</text>
</a>
</g>
</g>
<!-- Node6&#45;&gt;Node9 -->
<g id="edge10_Node000006_Node000009" class="edge">
<title>Node6&#45;&gt;Node9</title>
<g id="a_edge10_Node000006_Node000009"><a xlink:title=" ">
<path fill="none" stroke="#63b8ff" d="M948.71,-158.97C968.79,-150.44 1001.73,-136.44 1024.79,-126.64"/>
<polygon fill="#63b8ff" stroke="#63b8ff" points="1026.16,-129.86 1034,-122.73 1023.43,-123.42 1026.16,-129.86"/>
</a>
</g>
</g>
<!-- Node10 -->
<g id="Node000010" class="node">
<title>Node10</title>
<g id="a_Node000010"><a xlink:title=" ">
<polygon fill="#e0e0e0" stroke="#999999" points="580,-123 542,-123 542,-106 580,-106 580,-123"/>
<text text-anchor="middle" x="561" y="-112.6" font-family="Helvetica,sans-Serif" font-size="8.00">vector</text>
</a>
</g>
</g>
<!-- Node6&#45;&gt;Node10 -->
<g id="edge11_Node000006_Node000010" class="edge">
<title>Node6&#45;&gt;Node10</title>
<g id="a_edge11_Node000006_Node000010"><a xlink:title=" ">
<path fill="none" stroke="#63b8ff" d="M876.41,-158.97C796.95,-148.02 652.19,-128.07 590.32,-119.54"/>
<polygon fill="#63b8ff" stroke="#63b8ff" points="590.49,-116.03 580.1,-118.13 589.53,-122.97 590.49,-116.03"/>
</a>
</g>
</g>
<!-- Node11 -->
<g id="Node000011" class="node">
<title>Node11</title>
<g id="a_Node000011"><a xlink:title=" ">
<polygon fill="#e0e0e0" stroke="#999999" points="794,-123 712,-123 712,-106 794,-106 794,-123"/>
<text text-anchor="middle" x="753" y="-112.6" font-family="Helvetica,sans-Serif" font-size="8.00">memory_resource</text>
</a>
</g>
</g>
<!-- Node6&#45;&gt;Node11 -->
<g id="edge12_Node000006_Node000011" class="edge">
<title>Node6&#45;&gt;Node11</title>
<g id="a_edge12_Node000006_Node000011"><a xlink:title=" ">
<path fill="none" stroke="#63b8ff" d="M904.74,-158.97C874.11,-150.2 823.3,-135.64 789.01,-125.82"/>
<polygon fill="#63b8ff" stroke="#63b8ff" points="789.95,-122.45 779.37,-123.06 788.02,-129.18 789.95,-122.45"/>
</a>
</g>
</g>
<!-- Node6&#45;&gt;Node12 -->
<g id="edge13_Node000006_Node000012" class="edge">
<title>Node6&#45;&gt;Node12</title>
<g id="a_edge13_Node000006_Node000012"><a xlink:title=" ">
<path fill="none" stroke="#63b8ff" d="M920.6,-158.85C903.57,-146.56 868.37,-122.15 836,-106 809.39,-92.72 777.69,-81.1 754.16,-73.22"/>
<polygon fill="#63b8ff" stroke="#63b8ff" points="755.21,-69.87 744.61,-70.07 753.02,-76.52 755.21,-69.87"/>
</a>
</g>
</g>
<!-- Node6&#45;&gt;Node15 -->
<g id="edge15_Node000006_Node000015" class="edge">
<title>Node6&#45;&gt;Node15</title>
<g id="a_edge15_Node000006_Node000015"><a xlink:title=" ">
<path fill="none" stroke="#63b8ff" d="M852.39,-159.33C734.59,-148.58 515.84,-128.62 419.57,-119.84"/>
<polygon fill="#63b8ff" stroke="#63b8ff" points="419.82,-116.35 409.55,-118.93 419.19,-123.32 419.82,-116.35"/>
</a>
</g>
</g>
<!-- Node12&#45;&gt;Node2 -->
<g id="edge14_Node000012_Node000002" class="edge">
<title>Node12&#45;&gt;Node2</title>
<g id="a_edge14_Node000012_Node000002"><a xlink:title=" ">
<path fill="none" stroke="#63b8ff" d="M678.39,-52.97C621.32,-42.65 520.05,-24.34 469.1,-15.12"/>
<polygon fill="#63b8ff" stroke="#63b8ff" points="469.49,-11.64 459.03,-13.3 468.24,-18.53 469.49,-11.64"/>
</a>
</g>
</g>
<!-- Node15&#45;&gt;Node2 -->
<g id="edge16_Node000015_Node000002" class="edge">
<title>Node15&#45;&gt;Node2</title>
<g id="a_edge16_Node000015_Node000002"><a xlink:title=" ">
<path fill="none" stroke="#63b8ff" d="M365.4,-105.96C355.8,-94.04 340.24,-70.4 351,-53 363.17,-33.31 387.26,-22.23 407.01,-16.19"/>
<polygon fill="#63b8ff" stroke="#63b8ff" points="408.15,-19.51 416.85,-13.47 406.28,-12.76 408.15,-19.51"/>
</a>
</g>
</g>
<!-- Node15&#45;&gt;Node12 -->
<g id="edge20_Node000015_Node000012" class="edge">
<title>Node15&#45;&gt;Node12</title>
<g id="a_edge20_Node000015_Node000012"><a xlink:title=" ">
<path fill="none" stroke="#63b8ff" d="M409.57,-107.99C470.72,-99.03 592.09,-81.25 663.61,-70.76"/>
<polygon fill="#63b8ff" stroke="#63b8ff" points="664.4,-74.19 673.79,-69.27 663.39,-67.26 664.4,-74.19"/>
</a>
</g>
</g>
<!-- Node18 -->
<g id="Node000018" class="node">
<title>Node18</title>
<g id="a_Node000018"><a xlink:title=" ">
<polygon fill="#e0e0e0" stroke="#999999" points="410,-70 360,-70 360,-53 410,-53 410,-70"/>
<text text-anchor="middle" x="385" y="-59.6" font-family="Helvetica,sans-Serif" font-size="8.00">functional</text>
</a>
</g>
</g>
<!-- Node15&#45;&gt;Node18 -->
<g id="edge17_Node000015_Node000018" class="edge">
<title>Node15&#45;&gt;Node18</title>
<g id="a_edge17_Node000015_Node000018"><a xlink:title=" ">
<path fill="none" stroke="#63b8ff" d="M373.92,-105.97C375.67,-99.12 378.31,-88.74 380.58,-79.84"/>
<polygon fill="#63b8ff" stroke="#63b8ff" points="384,-80.61 383.07,-70.06 377.21,-78.88 384,-80.61"/>
</a>
</g>
</g>
<!-- Node19 -->
<g id="Node000019" class="node">
<title>Node19</title>
<g id="a_Node000019"><a xlink:title=" ">
<polygon fill="#e0e0e0" stroke="#999999" points="294,-70 260,-70 260,-53 294,-53 294,-70"/>
<text text-anchor="middle" x="277" y="-59.6" font-family="Helvetica,sans-Serif" font-size="8.00">limits</text>
</a>
</g>
</g>
<!-- Node15&#45;&gt;Node19 -->
<g id="edge18_Node000015_Node000019" class="edge">
<title>Node15&#45;&gt;Node19</title>
<g id="a_edge18_Node000015_Node000019"><a xlink:title=" ">
<path fill="none" stroke="#63b8ff" d="M357.98,-105.97C342.83,-97.84 318.42,-84.74 300.36,-75.04"/>
<polygon fill="#63b8ff" stroke="#63b8ff" points="301.54,-71.7 291.08,-70.06 298.23,-77.87 301.54,-71.7"/>
</a>
</g>
</g>
<!-- Node21 -->
<g id="Node000021" class="node">
<title>Node21</title>
<g id="a_Node000021"><a xlink:title=" ">
<polygon fill="#e0e0e0" stroke="#999999" points="241.5,-70 188.5,-70 188.5,-53 241.5,-53 241.5,-70"/>
<text text-anchor="middle" x="215" y="-59.6" font-family="Helvetica,sans-Serif" font-size="8.00">type_traits</text>
</a>
</g>
</g>
<!-- Node15&#45;&gt;Node21 -->
<g id="edge19_Node000015_Node000021" class="edge">
<title>Node15&#45;&gt;Node21</title>
<g id="a_edge19_Node000015_Node000021"><a xlink:title=" ">
<path fill="none" stroke="#63b8ff" d="M348.83,-105.97C322.17,-97.31 278.16,-83.02 247.94,-73.2"/>
<polygon fill="#63b8ff" stroke="#63b8ff" points="248.85,-69.82 238.26,-70.06 246.69,-76.47 248.85,-69.82"/>
</a>
</g>
</g>
<!-- Node22&#45;&gt;Node2 -->
<g id="edge23_Node000022_Node000002" class="edge">
<title>Node22&#45;&gt;Node2</title>
<g id="a_edge23_Node000022_Node000002"><a xlink:title=" ">
<path fill="none" stroke="#63b8ff" d="M215.25,-166.08C160.48,-162.36 98.41,-148.98 118,-106 132.9,-73.32 146.52,-68.33 179,-53 255.06,-17.11 355.99,-10.36 406.45,-9.38"/>
<polygon fill="#63b8ff" stroke="#63b8ff" points="406.76,-12.88 416.71,-9.25 406.67,-5.88 406.76,-12.88"/>
</a>
</g>
</g>
<!-- Node22&#45;&gt;Node10 -->
<g id="edge29_Node000022_Node000010" class="edge">
<title>Node22&#45;&gt;Node10</title>
<g id="a_edge29_Node000022_Node000010"><a xlink:title=" ">
<path fill="none" stroke="#63b8ff" d="M329.13,-158.97C384.48,-148.6 482.92,-130.14 531.8,-120.98"/>
<polygon fill="#63b8ff" stroke="#63b8ff" points="532.53,-124.4 541.72,-119.12 531.24,-117.52 532.53,-124.4"/>
</a>
</g>
</g>
<!-- Node22&#45;&gt;Node11 -->
<g id="edge27_Node000022_Node000011" class="edge">
<title>Node22&#45;&gt;Node11</title>
<g id="a_edge27_Node000022_Node000011"><a xlink:title=" ">
<path fill="none" stroke="#63b8ff" d="M357.46,-158.97C451.36,-148.65 617.97,-130.34 701.8,-121.13"/>
<polygon fill="#63b8ff" stroke="#63b8ff" points="702.29,-124.59 711.85,-120.02 701.53,-117.64 702.29,-124.59"/>
</a>
</g>
</g>
<!-- Node22&#45;&gt;Node12 -->
<g id="edge31_Node000022_Node000012" class="edge">
<title>Node22&#45;&gt;Node12</title>
<g id="a_edge31_Node000022_Node000012"><a xlink:title=" ">
<path fill="none" stroke="#63b8ff" d="M313.11,-158.97C352.42,-146.85 432.87,-122.69 502,-106 558.04,-92.47 622.89,-79.92 667.21,-71.81"/>
<polygon fill="#63b8ff" stroke="#63b8ff" points="667.96,-75.23 677.17,-70 666.71,-68.35 667.96,-75.23"/>
</a>
</g>
</g>
<!-- Node22&#45;&gt;Node15 -->
<g id="edge30_Node000022_Node000015" class="edge">
<title>Node22&#45;&gt;Node15</title>
<g id="a_edge30_Node000022_Node000015"><a xlink:title=" ">
<path fill="none" stroke="#63b8ff" d="M301.25,-158.97C314.36,-150.91 335.42,-137.98 351.15,-128.31"/>
<polygon fill="#63b8ff" stroke="#63b8ff" points="353.02,-131.27 359.7,-123.06 349.35,-125.31 353.02,-131.27"/>
</a>
</g>
</g>
<!-- Node22&#45;&gt;Node18 -->
<g id="edge24_Node000022_Node000018" class="edge">
<title>Node22&#45;&gt;Node18</title>
<g id="a_edge24_Node000022_Node000018"><a xlink:title=" ">
<path fill="none" stroke="#63b8ff" d="M292.34,-158.78C297.87,-146.6 309.83,-122.61 325,-106 335.92,-94.04 350.62,-83.32 362.73,-75.52"/>
<polygon fill="#63b8ff" stroke="#63b8ff" points="364.73,-78.39 371.38,-70.14 361.04,-72.45 364.73,-78.39"/>
</a>
</g>
</g>
<!-- Node22&#45;&gt;Node19 -->
<g id="edge26_Node000022_Node000019" class="edge">
<title>Node22&#45;&gt;Node19</title>
<g id="a_edge26_Node000022_Node000019"><a xlink:title=" ">
<path fill="none" stroke="#63b8ff" d="M237.47,-158.94C197.12,-151.84 145.75,-139.79 133,-123 128.43,-116.98 128.5,-112.07 133,-106 134.8,-103.58 209.07,-81.98 250.22,-70.15"/>
<polygon fill="#63b8ff" stroke="#63b8ff" points="251.26,-73.5 259.91,-67.38 249.33,-66.77 251.26,-73.5"/>
</a>
</g>
</g>
<!-- Node22&#45;&gt;Node21 -->
<g id="edge28_Node000022_Node000021" class="edge">
<title>Node22&#45;&gt;Node21</title>
<g id="a_edge28_Node000022_Node000021"><a xlink:title=" ">
<path fill="none" stroke="#63b8ff" d="M233.5,-158.98C191.62,-152.04 139.2,-140.19 126,-123 107.85,-99.37 146.86,-81.7 178.86,-71.73"/>
<polygon fill="#63b8ff" stroke="#63b8ff" points="179.89,-75.08 188.49,-68.89 177.91,-68.37 179.89,-75.08"/>
</a>
</g>
</g>
<!-- Node23 -->
<g id="Node000023" class="node">
<title>Node23</title>
<g id="a_Node000023"><a xlink:title=" ">
<polygon fill="#e0e0e0" stroke="#999999" points="202,-123 142,-123 142,-106 202,-106 202,-123"/>
<text text-anchor="middle" x="172" y="-112.6" font-family="Helvetica,sans-Serif" font-size="8.00">initializer_list</text>
</a>
</g>
</g>
<!-- Node22&#45;&gt;Node23 -->
<g id="edge25_Node000022_Node000023" class="edge">
<title>Node22&#45;&gt;Node23</title>
<g id="a_edge25_Node000022_Node000023"><a xlink:title=" ">
<path fill="none" stroke="#63b8ff" d="M271.74,-158.97C252.47,-150.58 221.05,-136.88 198.63,-127.11"/>
<polygon fill="#63b8ff" stroke="#63b8ff" points="199.9,-123.84 189.33,-123.06 197.1,-130.26 199.9,-123.84"/>
</a>
</g>
</g>
<!-- Node24&#45;&gt;Node2 -->
<g id="edge33_Node000024_Node000002" class="edge">
<title>Node24&#45;&gt;Node2</title>
<g id="a_edge33_Node000024_Node000002"><a xlink:title=" ">
<path fill="none" stroke="#63b8ff" d="M626.85,-158.98C626.22,-146.67 623.39,-121.96 611,-106 574.4,-58.87 507.95,-31.3 468.92,-18.42"/>
<polygon fill="#63b8ff" stroke="#63b8ff" points="469.75,-15.01 459.16,-15.32 467.63,-21.68 469.75,-15.01"/>
</a>
</g>
</g>
<!-- Node24&#45;&gt;Node10 -->
<g id="edge35_Node000024_Node000010" class="edge">
<title>Node24&#45;&gt;Node10</title>
<g id="a_edge35_Node000024_Node000010"><a xlink:title=" ">
<path fill="none" stroke="#63b8ff" d="M617.26,-158.97C607.22,-151.22 591.33,-138.94 579,-129.41"/>
<polygon fill="#63b8ff" stroke="#63b8ff" points="580.83,-126.4 570.78,-123.06 576.55,-131.94 580.83,-126.4"/>
</a>
</g>
</g>
<!-- Node24&#45;&gt;Node11 -->
<g id="edge36_Node000024_Node000011" class="edge">
<title>Node24&#45;&gt;Node11</title>
<g id="a_edge36_Node000024_Node000011"><a xlink:title=" ">
<path fill="none" stroke="#63b8ff" d="M645.59,-158.97C666.53,-150.5 700.78,-136.64 724.97,-126.85"/>
<polygon fill="#63b8ff" stroke="#63b8ff" points="726.38,-130.05 734.33,-123.06 723.75,-123.56 726.38,-130.05"/>
</a>
</g>
</g>
<!-- Node24&#45;&gt;Node12 -->
<g id="edge37_Node000024_Node000012" class="edge">
<title>Node24&#45;&gt;Node12</title>
<g id="a_edge37_Node000024_Node000012"><a xlink:title=" ">
<path fill="none" stroke="#63b8ff" d="M633.99,-158.68C649.35,-141.51 686.26,-100.23 706.38,-77.74"/>
<polygon fill="#63b8ff" stroke="#63b8ff" points="709.12,-79.91 713.18,-70.12 703.91,-75.25 709.12,-79.91"/>
</a>
</g>
</g>
<!-- Node24&#45;&gt;Node18 -->
<g id="edge34_Node000024_Node000018" class="edge">
<title>Node24&#45;&gt;Node18</title>
<g id="a_edge34_Node000024_Node000018"><a xlink:title=" ">
<path fill="none" stroke="#63b8ff" d="M624.43,-158.79C619.65,-145.73 608.11,-119.36 589,-106 538,-70.35 463.55,-62.96 420.12,-61.95"/>
<polygon fill="#63b8ff" stroke="#63b8ff" points="420.08,-58.45 410.03,-61.82 419.99,-65.45 420.08,-58.45"/>
</a>
</g>
</g>
<!-- Node25&#45;&gt;Node2 -->
<g id="edge40_Node000025_Node000002" class="edge">
<title>Node25&#45;&gt;Node2</title>
<g id="a_edge40_Node000025_Node000002"><a xlink:title=" ">
<path fill="none" stroke="#63b8ff" d="M454.18,-158.93C451.61,-135.15 443.64,-61.56 439.93,-27.33"/>
<polygon fill="#63b8ff" stroke="#63b8ff" points="443.41,-26.93 438.85,-17.37 436.45,-27.68 443.41,-26.93"/>
</a>
</g>
</g>
<!-- Node25&#45;&gt;Node10 -->
<g id="edge43_Node000025_Node000010" class="edge">
<title>Node25&#45;&gt;Node10</title>
<g id="a_edge43_Node000025_Node000010"><a xlink:title=" ">
<path fill="none" stroke="#63b8ff" d="M470.64,-158.97C487.86,-150.69 515.8,-137.25 536.05,-127.5"/>
<polygon fill="#63b8ff" stroke="#63b8ff" points="537.8,-130.55 545.3,-123.06 534.77,-124.24 537.8,-130.55"/>
</a>
</g>
</g>
<!-- Node25&#45;&gt;Node12 -->
<g id="edge45_Node000025_Node000012" class="edge">
<title>Node25&#45;&gt;Node12</title>
<g id="a_edge45_Node000025_Node000012"><a xlink:title=" ">
<path fill="none" stroke="#63b8ff" d="M462.43,-158.89C475.48,-145.98 503.91,-119.84 533,-106 574.58,-86.21 625.75,-75.11 664.04,-69.09"/>
<polygon fill="#63b8ff" stroke="#63b8ff" points="664.61,-72.54 673.98,-67.59 663.57,-65.62 664.61,-72.54"/>
</a>
</g>
</g>
<!-- Node25&#45;&gt;Node15 -->
<g id="edge44_Node000025_Node000015" class="edge">
<title>Node25&#45;&gt;Node15</title>
<g id="a_edge44_Node000025_Node000015"><a xlink:title=" ">
<path fill="none" stroke="#63b8ff" d="M442.75,-158.97C429.64,-150.91 408.58,-137.98 392.85,-128.31"/>
<polygon fill="#63b8ff" stroke="#63b8ff" points="394.65,-125.31 384.3,-123.06 390.98,-131.27 394.65,-125.31"/>
</a>
</g>
</g>
<!-- Node25&#45;&gt;Node19 -->
<g id="edge41_Node000025_Node000019" class="edge">
<title>Node25&#45;&gt;Node19</title>
<g id="a_edge41_Node000025_Node000019"><a xlink:title=" ">
<path fill="none" stroke="#63b8ff" d="M418.81,-160.23C391.21,-154.14 353.26,-142.81 325,-123 308.57,-111.48 294.94,-92.75 286.46,-79.18"/>
<polygon fill="#63b8ff" stroke="#63b8ff" points="289.35,-77.19 281.22,-70.39 283.33,-80.77 289.35,-77.19"/>
</a>
</g>
</g>
<!-- Node25&#45;&gt;Node21 -->
<g id="edge42_Node000025_Node000021" class="edge">
<title>Node25&#45;&gt;Node21</title>
<g id="a_edge42_Node000025_Node000021"><a xlink:title=" ">
<path fill="none" stroke="#63b8ff" d="M418.81,-159.6C387.25,-152.79 340.74,-140.79 303,-123 276.44,-110.48 249.06,-90.29 232.04,-76.72"/>
<polygon fill="#63b8ff" stroke="#63b8ff" points="234.11,-73.89 224.14,-70.3 229.69,-79.32 234.11,-73.89"/>
</a>
</g>
</g>
</g>
</svg>
