<?xml version="1.0" encoding="UTF-8" standalone="no"?>
<!DOCTYPE svg PUBLIC "-//W3C//DTD SVG 1.1//EN"
 "http://www.w3.org/Graphics/SVG/1.1/DTD/svg11.dtd">
<!-- Generated by graphviz version 2.43.0 (0)
 -->
<!-- Title: solver.hpp Pages: 1 -->
<svg width="1689pt" height="131pt"
 viewBox="0.00 0.00 1689.00 131.00" xmlns="http://www.w3.org/2000/svg" xmlns:xlink="http://www.w3.org/1999/xlink">
<g id="graph0" class="graph" transform="scale(1 1) rotate(0) translate(4 127)">
<title>solver.hpp</title>
<!-- Node1 -->
<g id="Node000001" class="node">
<title>Node1</title>
<g id="a_Node000001"><a xlink:title=" ">
<polygon fill="#999999" stroke="#666666" points="860,-123 801,-123 801,-106 860,-106 860,-123"/>
<text text-anchor="middle" x="830.5" y="-112.6" font-family="Helvetica,sans-Serif" font-size="8.00">solver.hpp</text>
</a>
</g>
</g>
<!-- Node2 -->
<g id="Node000002" class="node">
<title>Node2</title>
<g id="a_Node000002"><a xlink:href="../../dc/da9/astar_8hpp.html" target="_top" xlink:title=" ">
<polygon fill="white" stroke="#666666" points="55,-70 0,-70 0,-53 55,-53 55,-70"/>
<text text-anchor="middle" x="27.5" y="-59.6" font-family="Helvetica,sans-Serif" font-size="8.00">astar.hpp</text>
</a>
</g>
</g>
<!-- Node1&#45;&gt;Node2 -->
<g id="edge1_Node000001_Node000002" class="edge">
<title>Node1&#45;&gt;Node2</title>
<g id="a_edge1_Node000001_Node000002"><a xlink:title=" ">
<path fill="none" stroke="#63b8ff" d="M790.36,-112.89C676.84,-110.82 343.88,-102.22 69.5,-70 64.94,-69.46 60.12,-68.75 55.44,-67.97"/>
<polygon fill="#63b8ff" stroke="#63b8ff" points="790.59,-116.4 800.65,-113.08 790.72,-109.4 790.59,-116.4"/>
</a>
</g>
</g>
<!-- Node3 -->
<g id="Node000003" class="node">
<title>Node3</title>
<g id="a_Node000003"><a xlink:href="../../d9/d96/chdr_8hpp.html" target="_top" xlink:title=" ">
<polygon fill="white" stroke="#666666" points="856.5,-17 804.5,-17 804.5,0 856.5,0 856.5,-17"/>
<text text-anchor="middle" x="830.5" y="-6.6" font-family="Helvetica,sans-Serif" font-size="8.00">chdr.hpp</text>
</a>
</g>
</g>
<!-- Node1&#45;&gt;Node3 -->
<g id="edge7_Node000001_Node000003" class="edge">
<title>Node1&#45;&gt;Node3</title>
<g id="a_edge7_Node000001_Node000003"><a xlink:title=" ">
<path fill="none" stroke="#63b8ff" d="M790.75,-112.62C642.11,-109.13 126.27,-95.23 102.5,-70 97.32,-64.5 97.32,-58.5 102.5,-53 127.05,-26.94 676.84,-12.96 804.28,-10.07"/>
<polygon fill="#63b8ff" stroke="#63b8ff" points="790.73,-116.12 800.81,-112.85 790.89,-109.12 790.73,-116.12"/>
</a>
</g>
</g>
<!-- Node4 -->
<g id="Node000004" class="node">
<title>Node4</title>
<g id="a_Node000004"><a xlink:href="../../d3/d77/best__first_8hpp.html" target="_top" xlink:title=" ">
<polygon fill="white" stroke="#666666" points="183.5,-70 111.5,-70 111.5,-53 183.5,-53 183.5,-70"/>
<text text-anchor="middle" x="147.5" y="-59.6" font-family="Helvetica,sans-Serif" font-size="8.00">best_first.hpp</text>
</a>
</g>
</g>
<!-- Node1&#45;&gt;Node4 -->
<g id="edge3_Node000001_Node000004" class="edge">
<title>Node1&#45;&gt;Node4</title>
<g id="a_edge3_Node000001_Node000004"><a xlink:title=" ">
<path fill="none" stroke="#63b8ff" d="M790.82,-112.13C690.38,-108.39 418.01,-96.42 192.5,-70 189.67,-69.67 186.74,-69.28 183.81,-68.86"/>
<polygon fill="#63b8ff" stroke="#63b8ff" points="790.71,-115.63 800.83,-112.5 790.97,-108.64 790.71,-115.63"/>
</a>
</g>
</g>
<!-- Node5 -->
<g id="Node000005" class="node">
<title>Node5</title>
<g id="a_Node000005"><a xlink:href="../../da/d36/bfs_8hpp.html" target="_top" xlink:title=" ">
<polygon fill="white" stroke="#666666" points="249,-70 202,-70 202,-53 249,-53 249,-70"/>
<text text-anchor="middle" x="225.5" y="-59.6" font-family="Helvetica,sans-Serif" font-size="8.00">bfs.hpp</text>
</a>
</g>
</g>
<!-- Node1&#45;&gt;Node5 -->
<g id="edge5_Node000001_Node000005" class="edge">
<title>Node1&#45;&gt;Node5</title>
<g id="a_edge5_Node000001_Node000005"><a xlink:title=" ">
<path fill="none" stroke="#63b8ff" d="M790.64,-112.59C697.05,-109.99 456.16,-100.63 257.5,-70 254.79,-69.58 251.98,-69.06 249.19,-68.48"/>
<polygon fill="#63b8ff" stroke="#63b8ff" points="790.7,-116.09 800.79,-112.86 790.89,-109.1 790.7,-116.09"/>
</a>
</g>
</g>
<!-- Node6 -->
<g id="Node000006" class="node">
<title>Node6</title>
<g id="a_Node000006"><a xlink:href="../../d3/dec/dfs_8hpp.html" target="_top" xlink:title=" ">
<polygon fill="white" stroke="#666666" points="314,-70 267,-70 267,-53 314,-53 314,-70"/>
<text text-anchor="middle" x="290.5" y="-59.6" font-family="Helvetica,sans-Serif" font-size="8.00">dfs.hpp</text>
</a>
</g>
</g>
<!-- Node1&#45;&gt;Node6 -->
<g id="edge8_Node000001_Node000006" class="edge">
<title>Node1&#45;&gt;Node6</title>
<g id="a_edge8_Node000001_Node000006"><a xlink:title=" ">
<path fill="none" stroke="#63b8ff" d="M790.73,-112.05C704.8,-108.5 495.58,-97.54 322.5,-70 319.8,-69.57 316.98,-69.04 314.19,-68.46"/>
<polygon fill="#63b8ff" stroke="#63b8ff" points="790.7,-115.56 800.83,-112.46 790.98,-108.56 790.7,-115.56"/>
</a>
</g>
</g>
<!-- Node7 -->
<g id="Node000007" class="node">
<title>Node7</title>
<g id="a_Node000007"><a xlink:href="../../d3/d11/dijkstra_8hpp.html" target="_top" xlink:title=" ">
<polygon fill="white" stroke="#666666" points="397,-70 332,-70 332,-53 397,-53 397,-70"/>
<text text-anchor="middle" x="364.5" y="-59.6" font-family="Helvetica,sans-Serif" font-size="8.00">dijkstra.hpp</text>
</a>
</g>
</g>
<!-- Node1&#45;&gt;Node7 -->
<g id="edge10_Node000001_Node000007" class="edge">
<title>Node1&#45;&gt;Node7</title>
<g id="a_edge10_Node000001_Node000007"><a xlink:title=" ">
<path fill="none" stroke="#63b8ff" d="M790.88,-110.43C715.71,-104.38 547.35,-89.77 406.5,-70 403.42,-69.57 400.22,-69.08 397.02,-68.55"/>
<polygon fill="#63b8ff" stroke="#63b8ff" points="790.6,-113.92 800.85,-111.22 791.16,-106.94 790.6,-113.92"/>
</a>
</g>
</g>
<!-- Node8 -->
<g id="Node000008" class="node">
<title>Node8</title>
<g id="a_Node000008"><a xlink:href="../../d6/ded/eidastar_8hpp.html" target="_top" xlink:title=" ">
<polygon fill="white" stroke="#666666" points="483.5,-70 415.5,-70 415.5,-53 483.5,-53 483.5,-70"/>
<text text-anchor="middle" x="449.5" y="-59.6" font-family="Helvetica,sans-Serif" font-size="8.00">eidastar.hpp</text>
</a>
</g>
</g>
<!-- Node1&#45;&gt;Node8 -->
<g id="edge12_Node000001_Node000008" class="edge">
<title>Node1&#45;&gt;Node8</title>
<g id="a_edge12_Node000001_Node000008"><a xlink:title=" ">
<path fill="none" stroke="#63b8ff" d="M790.63,-108.95C727.34,-101.61 600,-86.28 492.5,-70 489.65,-69.57 486.7,-69.1 483.75,-68.62"/>
<polygon fill="#63b8ff" stroke="#63b8ff" points="790.26,-112.43 800.6,-110.11 791.06,-105.48 790.26,-112.43"/>
</a>
</g>
</g>
<!-- Node9 -->
<g id="Node000009" class="node">
<title>Node9</title>
<g id="a_Node000009"><a xlink:href="../../d8/d85/eidbest__first_8hpp.html" target="_top" xlink:title=" ">
<polygon fill="white" stroke="#666666" points="587,-70 502,-70 502,-53 587,-53 587,-70"/>
<text text-anchor="middle" x="544.5" y="-59.6" font-family="Helvetica,sans-Serif" font-size="8.00">eidbest_first.hpp</text>
</a>
</g>
</g>
<!-- Node1&#45;&gt;Node9 -->
<g id="edge14_Node000001_Node000009" class="edge">
<title>Node1&#45;&gt;Node9</title>
<g id="a_edge14_Node000001_Node000009"><a xlink:title=" ">
<path fill="none" stroke="#63b8ff" d="M790.81,-106.42C737.13,-96.85 641.76,-79.84 586.77,-70.04"/>
<polygon fill="#63b8ff" stroke="#63b8ff" points="790.51,-109.92 800.97,-108.23 791.74,-103.03 790.51,-109.92"/>
</a>
</g>
</g>
<!-- Node10 -->
<g id="Node000010" class="node">
<title>Node10</title>
<g id="a_Node000010"><a xlink:href="../../dd/d95/eiddfs_8hpp.html" target="_top" xlink:title=" ">
<polygon fill="white" stroke="#666666" points="665.5,-70 605.5,-70 605.5,-53 665.5,-53 665.5,-70"/>
<text text-anchor="middle" x="635.5" y="-59.6" font-family="Helvetica,sans-Serif" font-size="8.00">eiddfs.hpp</text>
</a>
</g>
</g>
<!-- Node1&#45;&gt;Node10 -->
<g id="edge16_Node000001_Node000010" class="edge">
<title>Node1&#45;&gt;Node10</title>
<g id="a_edge16_Node000001_Node000010"><a xlink:title=" ">
<path fill="none" stroke="#63b8ff" d="M791.66,-103.34C754.13,-93.53 698.14,-78.88 664.39,-70.06"/>
<polygon fill="#63b8ff" stroke="#63b8ff" points="791.17,-106.83 801.73,-105.97 792.94,-100.06 791.17,-106.83"/>
</a>
</g>
</g>
<!-- Node11 -->
<g id="Node000011" class="node">
<title>Node11</title>
<g id="a_Node000011"><a xlink:href="../../d8/d12/flood_8hpp.html" target="_top" xlink:title=" ">
<polygon fill="white" stroke="#666666" points="739.5,-70 683.5,-70 683.5,-53 739.5,-53 739.5,-70"/>
<text text-anchor="middle" x="711.5" y="-59.6" font-family="Helvetica,sans-Serif" font-size="8.00">flood.hpp</text>
</a>
</g>
</g>
<!-- Node1&#45;&gt;Node11 -->
<g id="edge18_Node000001_Node000011" class="edge">
<title>Node1&#45;&gt;Node11</title>
<g id="a_edge18_Node000001_Node000011"><a xlink:title=" ">
<path fill="none" stroke="#63b8ff" d="M803.5,-101.93C780.71,-92.16 748.76,-78.47 729.13,-70.06"/>
<polygon fill="#63b8ff" stroke="#63b8ff" points="802.37,-105.25 812.94,-105.97 805.13,-98.82 802.37,-105.25"/>
</a>
</g>
</g>
<!-- Node12 -->
<g id="Node000012" class="node">
<title>Node12</title>
<g id="a_Node000012"><a xlink:href="../../d8/dd5/fringe_8hpp.html" target="_top" xlink:title=" ">
<polygon fill="white" stroke="#666666" points="817,-70 758,-70 758,-53 817,-53 817,-70"/>
<text text-anchor="middle" x="787.5" y="-59.6" font-family="Helvetica,sans-Serif" font-size="8.00">fringe.hpp</text>
</a>
</g>
</g>
<!-- Node1&#45;&gt;Node12 -->
<g id="edge20_Node000001_Node000012" class="edge">
<title>Node1&#45;&gt;Node12</title>
<g id="a_edge20_Node000001_Node000012"><a xlink:title=" ">
<path fill="none" stroke="#63b8ff" d="M817.62,-98.22C809.78,-88.92 800.1,-77.45 793.87,-70.06"/>
<polygon fill="#63b8ff" stroke="#63b8ff" points="815.03,-100.59 824.16,-105.97 820.39,-96.07 815.03,-100.59"/>
</a>
</g>
</g>
<!-- Node13 -->
<g id="Node000013" class="node">
<title>Node13</title>
<g id="a_Node000013"><a xlink:href="../../d3/d3e/gbest__first_8hpp.html" target="_top" xlink:title=" ">
<polygon fill="white" stroke="#666666" points="912,-70 835,-70 835,-53 912,-53 912,-70"/>
<text text-anchor="middle" x="873.5" y="-59.6" font-family="Helvetica,sans-Serif" font-size="8.00">gbest_first.hpp</text>
</a>
</g>
</g>
<!-- Node1&#45;&gt;Node13 -->
<g id="edge22_Node000001_Node000013" class="edge">
<title>Node1&#45;&gt;Node13</title>
<g id="a_edge22_Node000001_Node000013"><a xlink:title=" ">
<path fill="none" stroke="#63b8ff" d="M843.38,-98.22C851.22,-88.92 860.9,-77.45 867.13,-70.06"/>
<polygon fill="#63b8ff" stroke="#63b8ff" points="840.61,-96.07 836.84,-105.97 845.97,-100.59 840.61,-96.07"/>
</a>
</g>
</g>
<!-- Node14 -->
<g id="Node000014" class="node">
<title>Node14</title>
<g id="a_Node000014"><a xlink:href="../../de/d94/gbfs_8hpp.html" target="_top" xlink:title=" ">
<polygon fill="white" stroke="#666666" points="983,-70 930,-70 930,-53 983,-53 983,-70"/>
<text text-anchor="middle" x="956.5" y="-59.6" font-family="Helvetica,sans-Serif" font-size="8.00">gbfs.hpp</text>
</a>
</g>
</g>
<!-- Node1&#45;&gt;Node14 -->
<g id="edge24_Node000001_Node000014" class="edge">
<title>Node1&#45;&gt;Node14</title>
<g id="a_edge24_Node000001_Node000014"><a xlink:title=" ">
<path fill="none" stroke="#63b8ff" d="M858.44,-102.19C882.61,-92.41 916.86,-78.54 937.83,-70.06"/>
<polygon fill="#63b8ff" stroke="#63b8ff" points="857.05,-98.98 849.09,-105.97 859.67,-105.47 857.05,-98.98"/>
</a>
</g>
</g>
<!-- Node15 -->
<g id="Node000015" class="node">
<title>Node15</title>
<g id="a_Node000015"><a xlink:href="../../d4/df2/gdfs_8hpp.html" target="_top" xlink:title=" ">
<polygon fill="white" stroke="#666666" points="1054,-70 1001,-70 1001,-53 1054,-53 1054,-70"/>
<text text-anchor="middle" x="1027.5" y="-59.6" font-family="Helvetica,sans-Serif" font-size="8.00">gdfs.hpp</text>
</a>
</g>
</g>
<!-- Node1&#45;&gt;Node15 -->
<g id="edge26_Node000001_Node000015" class="edge">
<title>Node1&#45;&gt;Node15</title>
<g id="a_edge26_Node000001_Node000015"><a xlink:title=" ">
<path fill="none" stroke="#63b8ff" d="M869.48,-103.41C908.35,-93.35 967,-78.16 1000.84,-69.4"/>
<polygon fill="#63b8ff" stroke="#63b8ff" points="868.37,-100.08 859.57,-105.97 870.13,-106.86 868.37,-100.08"/>
</a>
</g>
</g>
<!-- Node16 -->
<g id="Node000016" class="node">
<title>Node16</title>
<g id="a_Node000016"><a xlink:href="../../d3/d3e/gjps_8hpp.html" target="_top" xlink:title=" ">
<polygon fill="white" stroke="#666666" points="1124.5,-70 1072.5,-70 1072.5,-53 1124.5,-53 1124.5,-70"/>
<text text-anchor="middle" x="1098.5" y="-59.6" font-family="Helvetica,sans-Serif" font-size="8.00">gjps.hpp</text>
</a>
</g>
</g>
<!-- Node1&#45;&gt;Node16 -->
<g id="edge28_Node000001_Node000016" class="edge">
<title>Node1&#45;&gt;Node16</title>
<g id="a_edge28_Node000001_Node000016"><a xlink:title=" ">
<path fill="none" stroke="#63b8ff" d="M870.3,-106.4C916.73,-98.04 995.79,-83.57 1063.5,-70 1066.3,-69.44 1069.23,-68.84 1072.14,-68.23"/>
<polygon fill="#63b8ff" stroke="#63b8ff" points="869.56,-102.98 860.34,-108.19 870.8,-109.87 869.56,-102.98"/>
</a>
</g>
</g>
<!-- Node17 -->
<g id="Node000017" class="node">
<title>Node17</title>
<g id="a_Node000017"><a xlink:href="../../d1/def/gstar_8hpp.html" target="_top" xlink:title=" ">
<polygon fill="white" stroke="#666666" points="1198,-70 1143,-70 1143,-53 1198,-53 1198,-70"/>
<text text-anchor="middle" x="1170.5" y="-59.6" font-family="Helvetica,sans-Serif" font-size="8.00">gstar.hpp</text>
</a>
</g>
</g>
<!-- Node1&#45;&gt;Node17 -->
<g id="edge30_Node000001_Node000017" class="edge">
<title>Node1&#45;&gt;Node17</title>
<g id="a_edge30_Node000001_Node000017"><a xlink:title=" ">
<path fill="none" stroke="#63b8ff" d="M870.48,-108.5C928.56,-101.08 1039.59,-86.25 1133.5,-70 1136.47,-69.49 1139.57,-68.91 1142.65,-68.32"/>
<polygon fill="#63b8ff" stroke="#63b8ff" points="869.74,-105.07 860.27,-109.8 870.63,-112.01 869.74,-105.07"/>
</a>
</g>
</g>
<!-- Node18 -->
<g id="Node000018" class="node">
<title>Node18</title>
<g id="a_Node000018"><a xlink:href="../../db/df9/idastar_8hpp.html" target="_top" xlink:title=" ">
<polygon fill="white" stroke="#666666" points="1278.5,-70 1216.5,-70 1216.5,-53 1278.5,-53 1278.5,-70"/>
<text text-anchor="middle" x="1247.5" y="-59.6" font-family="Helvetica,sans-Serif" font-size="8.00">idastar.hpp</text>
</a>
</g>
</g>
<!-- Node1&#45;&gt;Node18 -->
<g id="edge32_Node000001_Node000018" class="edge">
<title>Node1&#45;&gt;Node18</title>
<g id="a_edge32_Node000001_Node000018"><a xlink:title=" ">
<path fill="none" stroke="#63b8ff" d="M870.4,-109.83C939.34,-103.28 1085.12,-88.51 1207.5,-70 1210.29,-69.58 1213.19,-69.1 1216.09,-68.61"/>
<polygon fill="#63b8ff" stroke="#63b8ff" points="870.03,-106.35 860.41,-110.77 870.69,-113.32 870.03,-106.35"/>
</a>
</g>
</g>
<!-- Node19 -->
<g id="Node000019" class="node">
<title>Node19</title>
<g id="a_Node000019"><a xlink:href="../../d1/d3a/idbest__first_8hpp.html" target="_top" xlink:title=" ">
<polygon fill="white" stroke="#666666" points="1376.5,-70 1296.5,-70 1296.5,-53 1376.5,-53 1376.5,-70"/>
<text text-anchor="middle" x="1336.5" y="-59.6" font-family="Helvetica,sans-Serif" font-size="8.00">idbest_first.hpp</text>
</a>
</g>
</g>
<!-- Node1&#45;&gt;Node19 -->
<g id="edge34_Node000001_Node000019" class="edge">
<title>Node1&#45;&gt;Node19</title>
<g id="a_edge34_Node000001_Node000019"><a xlink:title=" ">
<path fill="none" stroke="#63b8ff" d="M870.3,-110.48C949.75,-104.28 1133.65,-89.08 1287.5,-70 1290.4,-69.64 1293.4,-69.24 1296.41,-68.83"/>
<polygon fill="#63b8ff" stroke="#63b8ff" points="869.94,-107 860.24,-111.26 870.48,-113.98 869.94,-107"/>
</a>
</g>
</g>
<!-- Node20 -->
<g id="Node000020" class="node">
<title>Node20</title>
<g id="a_Node000020"><a xlink:href="../../df/d71/iddfs_8hpp.html" target="_top" xlink:title=" ">
<polygon fill="white" stroke="#666666" points="1450,-70 1395,-70 1395,-53 1450,-53 1450,-70"/>
<text text-anchor="middle" x="1422.5" y="-59.6" font-family="Helvetica,sans-Serif" font-size="8.00">iddfs.hpp</text>
</a>
</g>
</g>
<!-- Node1&#45;&gt;Node20 -->
<g id="edge36_Node000001_Node000020" class="edge">
<title>Node1&#45;&gt;Node20</title>
<g id="a_edge36_Node000001_Node000020"><a xlink:title=" ">
<path fill="none" stroke="#63b8ff" d="M870.31,-112.04C961.71,-108.34 1193.53,-96.88 1385.5,-70 1388.49,-69.58 1391.59,-69.07 1394.68,-68.52"/>
<polygon fill="#63b8ff" stroke="#63b8ff" points="869.97,-108.56 860.12,-112.45 870.25,-115.55 869.97,-108.56"/>
</a>
</g>
</g>
<!-- Node21 -->
<g id="Node000021" class="node">
<title>Node21</title>
<g id="a_Node000021"><a xlink:href="../../d9/de6/jps_8hpp.html" target="_top" xlink:title=" ">
<polygon fill="white" stroke="#666666" points="1515,-70 1468,-70 1468,-53 1515,-53 1515,-70"/>
<text text-anchor="middle" x="1491.5" y="-59.6" font-family="Helvetica,sans-Serif" font-size="8.00">jps.hpp</text>
</a>
</g>
</g>
<!-- Node1&#45;&gt;Node21 -->
<g id="edge38_Node000001_Node000021" class="edge">
<title>Node1&#45;&gt;Node21</title>
<g id="a_edge38_Node000001_Node000021"><a xlink:title=" ">
<path fill="none" stroke="#63b8ff" d="M870.39,-112.97C970.21,-111.15 1238.62,-103.3 1459.5,-70 1462.21,-69.59 1465.03,-69.07 1467.82,-68.5"/>
<polygon fill="#63b8ff" stroke="#63b8ff" points="870.1,-109.47 860.16,-113.14 870.22,-116.47 870.1,-109.47"/>
</a>
</g>
</g>
<!-- Node22 -->
<g id="Node000022" class="node">
<title>Node22</title>
<g id="a_Node000022"><a xlink:href="../../d8/ddf/mgstar_8hpp.html" target="_top" xlink:title=" ">
<polygon fill="white" stroke="#666666" points="1595.5,-70 1533.5,-70 1533.5,-53 1595.5,-53 1595.5,-70"/>
<text text-anchor="middle" x="1564.5" y="-59.6" font-family="Helvetica,sans-Serif" font-size="8.00">mgstar.hpp</text>
</a>
</g>
</g>
<!-- Node1&#45;&gt;Node22 -->
<g id="edge40_Node000001_Node000022" class="edge">
<title>Node1&#45;&gt;Node22</title>
<g id="a_edge40_Node000001_Node000022"><a xlink:title=" ">
<path fill="none" stroke="#63b8ff" d="M870.32,-112.71C976.83,-110.24 1276.94,-100.85 1524.5,-70 1527.3,-69.65 1530.21,-69.23 1533.11,-68.76"/>
<polygon fill="#63b8ff" stroke="#63b8ff" points="869.96,-109.22 860.05,-112.94 870.12,-116.22 869.96,-109.22"/>
</a>
</g>
</g>
<!-- Node23 -->
<g id="Node000023" class="node">
<title>Node23</title>
<g id="a_Node000023"><a xlink:href="../../dd/d57/smastar_8hpp.html" target="_top" xlink:title=" ">
<polygon fill="white" stroke="#666666" points="1681,-70 1614,-70 1614,-53 1681,-53 1681,-70"/>
<text text-anchor="middle" x="1647.5" y="-59.6" font-family="Helvetica,sans-Serif" font-size="8.00">smastar.hpp</text>
</a>
</g>
</g>
<!-- Node1&#45;&gt;Node23 -->
<g id="edge42_Node000001_Node000023" class="edge">
<title>Node1&#45;&gt;Node23</title>
<g id="a_edge42_Node000001_Node000023"><a xlink:title=" ">
<path fill="none" stroke="#63b8ff" d="M870.17,-112.9C984.51,-110.82 1324.44,-102.18 1604.5,-70 1607.51,-69.65 1610.63,-69.23 1613.75,-68.77"/>
<polygon fill="#63b8ff" stroke="#63b8ff" points="870.07,-109.4 860.13,-113.08 870.19,-116.4 870.07,-109.4"/>
</a>
</g>
</g>
<!-- Node2&#45;&gt;Node3 -->
<g id="edge2_Node000002_Node000003" class="edge">
<title>Node2&#45;&gt;Node3</title>
<g id="a_edge2_Node000002_Node000003"><a xlink:title=" ">
<path fill="none" stroke="#63b8ff" d="M65.6,-53.49C66.91,-53.32 68.22,-53.15 69.5,-53 356.35,-19.31 707.21,-11.45 804.45,-9.86"/>
<polygon fill="#63b8ff" stroke="#63b8ff" points="64.81,-50.07 55.44,-55.03 65.86,-56.99 64.81,-50.07"/>
</a>
</g>
</g>
<!-- Node4&#45;&gt;Node3 -->
<g id="edge4_Node000004_Node000003" class="edge">
<title>Node4&#45;&gt;Node3</title>
<g id="a_edge4_Node000004_Node000003"><a xlink:title=" ">
<path fill="none" stroke="#63b8ff" d="M193.89,-52.96C436.86,-24.97 718.29,-13.43 804.28,-10.37"/>
<polygon fill="#63b8ff" stroke="#63b8ff" points="193.33,-49.51 183.81,-54.14 194.14,-56.46 193.33,-49.51"/>
</a>
</g>
</g>
<!-- Node5&#45;&gt;Node3 -->
<g id="edge6_Node000005_Node000003" class="edge">
<title>Node5&#45;&gt;Node3</title>
<g id="a_edge6_Node000005_Node000003"><a xlink:title=" ">
<path fill="none" stroke="#63b8ff" d="M259.09,-53C474.49,-20.47 724.15,-12.04 804.35,-10.05"/>
<polygon fill="#63b8ff" stroke="#63b8ff" points="258.54,-49.55 249.19,-54.52 259.6,-56.46 258.54,-49.55"/>
</a>
</g>
</g>
<!-- Node6&#45;&gt;Node3 -->
<g id="edge9_Node000006_Node000003" class="edge">
<title>Node6&#45;&gt;Node3</title>
<g id="a_edge9_Node000006_Node000003"><a xlink:title=" ">
<path fill="none" stroke="#63b8ff" d="M324.31,-52.94C513.45,-23.49 730.57,-13.23 804.43,-10.4"/>
<polygon fill="#63b8ff" stroke="#63b8ff" points="323.52,-49.53 314.19,-54.54 324.61,-56.44 323.52,-49.53"/>
</a>
</g>
</g>
<!-- Node7&#45;&gt;Node3 -->
<g id="edge11_Node000007_Node000003" class="edge">
<title>Node7&#45;&gt;Node3</title>
<g id="a_edge11_Node000007_Node000003"><a xlink:title=" ">
<path fill="none" stroke="#63b8ff" d="M407.32,-53.01C564.08,-31.31 738.79,-16.66 804.12,-11.52"/>
<polygon fill="#63b8ff" stroke="#63b8ff" points="406.44,-49.6 397.02,-54.45 407.41,-56.53 406.44,-49.6"/>
</a>
</g>
</g>
<!-- Node8&#45;&gt;Node3 -->
<g id="edge13_Node000008_Node000003" class="edge">
<title>Node8&#45;&gt;Node3</title>
<g id="a_edge13_Node000008_Node000003"><a xlink:title=" ">
<path fill="none" stroke="#63b8ff" d="M493.99,-52.84C615.86,-34.56 748.73,-18.85 804.15,-12.49"/>
<polygon fill="#63b8ff" stroke="#63b8ff" points="493.11,-49.43 483.75,-54.38 494.16,-56.35 493.11,-49.43"/>
</a>
</g>
</g>
<!-- Node9&#45;&gt;Node3 -->
<g id="edge15_Node000009_Node000003" class="edge">
<title>Node9&#45;&gt;Node3</title>
<g id="a_edge15_Node000009_Node000003"><a xlink:title=" ">
<path fill="none" stroke="#63b8ff" d="M596.57,-51.21C657.92,-40.28 757.4,-22.53 804.37,-14.16"/>
<polygon fill="#63b8ff" stroke="#63b8ff" points="595.93,-47.77 586.7,-52.97 597.16,-54.66 595.93,-47.77"/>
</a>
</g>
</g>
<!-- Node10&#45;&gt;Node3 -->
<g id="edge17_Node000010_Node000003" class="edge">
<title>Node10&#45;&gt;Node3</title>
<g id="a_edge17_Node000010_Node000003"><a xlink:title=" ">
<path fill="none" stroke="#63b8ff" d="M674.12,-50.4C712.71,-40.31 770.98,-25.07 804.42,-16.32"/>
<polygon fill="#63b8ff" stroke="#63b8ff" points="673.06,-47.06 664.27,-52.97 674.83,-53.83 673.06,-47.06"/>
</a>
</g>
</g>
<!-- Node11&#45;&gt;Node3 -->
<g id="edge19_Node000011_Node000003" class="edge">
<title>Node11&#45;&gt;Node3</title>
<g id="a_edge19_Node000011_Node000003"><a xlink:title=" ">
<path fill="none" stroke="#63b8ff" d="M738.5,-48.93C761.29,-39.16 793.24,-25.47 812.87,-17.06"/>
<polygon fill="#63b8ff" stroke="#63b8ff" points="736.87,-45.82 729.06,-52.97 739.63,-52.25 736.87,-45.82"/>
</a>
</g>
</g>
<!-- Node12&#45;&gt;Node3 -->
<g id="edge21_Node000012_Node000003" class="edge">
<title>Node12&#45;&gt;Node3</title>
<g id="a_edge21_Node000012_Node000003"><a xlink:title=" ">
<path fill="none" stroke="#63b8ff" d="M800.38,-45.22C808.22,-35.92 817.9,-24.45 824.13,-17.06"/>
<polygon fill="#63b8ff" stroke="#63b8ff" points="797.61,-43.07 793.84,-52.97 802.97,-47.59 797.61,-43.07"/>
</a>
</g>
</g>
<!-- Node13&#45;&gt;Node3 -->
<g id="edge23_Node000013_Node000003" class="edge">
<title>Node13&#45;&gt;Node3</title>
<g id="a_edge23_Node000013_Node000003"><a xlink:title=" ">
<path fill="none" stroke="#63b8ff" d="M860.62,-45.22C852.78,-35.92 843.1,-24.45 836.87,-17.06"/>
<polygon fill="#63b8ff" stroke="#63b8ff" points="858.03,-47.59 867.16,-52.97 863.39,-43.07 858.03,-47.59"/>
</a>
</g>
</g>
<!-- Node14&#45;&gt;Node3 -->
<g id="edge25_Node000014_Node000003" class="edge">
<title>Node14&#45;&gt;Node3</title>
<g id="a_edge25_Node000014_Node000003"><a xlink:title=" ">
<path fill="none" stroke="#63b8ff" d="M928.56,-49.19C904.39,-39.41 870.14,-25.54 849.17,-17.06"/>
<polygon fill="#63b8ff" stroke="#63b8ff" points="927.33,-52.47 937.91,-52.97 929.95,-45.98 927.33,-52.47"/>
</a>
</g>
</g>
<!-- Node15&#45;&gt;Node3 -->
<g id="edge27_Node000015_Node000003" class="edge">
<title>Node15&#45;&gt;Node3</title>
<g id="a_edge27_Node000015_Node000003"><a xlink:title=" ">
<path fill="none" stroke="#63b8ff" d="M991.03,-51.06C952.03,-40.96 891.14,-25.2 856.65,-16.27"/>
<polygon fill="#63b8ff" stroke="#63b8ff" points="990.37,-54.5 1000.93,-53.62 992.13,-47.73 990.37,-54.5"/>
</a>
</g>
</g>
<!-- Node16&#45;&gt;Node3 -->
<g id="edge29_Node000016_Node000003" class="edge">
<title>Node16&#45;&gt;Node3</title>
<g id="a_edge29_Node000016_Node000003"><a xlink:title=" ">
<path fill="none" stroke="#63b8ff" d="M1061.85,-52.71C981.45,-36.69 898.17,-21.58 856.75,-14.17"/>
<polygon fill="#63b8ff" stroke="#63b8ff" points="1061.65,-56.24 1072.14,-54.77 1063.02,-49.38 1061.65,-56.24"/>
</a>
</g>
</g>
<!-- Node17&#45;&gt;Node3 -->
<g id="edge31_Node000017_Node000003" class="edge">
<title>Node17&#45;&gt;Node3</title>
<g id="a_edge31_Node000017_Node000003"><a xlink:title=" ">
<path fill="none" stroke="#63b8ff" d="M1132.52,-52.93C1024.04,-34.38 907.44,-19.14 856.52,-12.72"/>
<polygon fill="#63b8ff" stroke="#63b8ff" points="1132.2,-56.43 1142.65,-54.68 1133.39,-49.53 1132.2,-56.43"/>
</a>
</g>
</g>
<!-- Node18&#45;&gt;Node3 -->
<g id="edge33_Node000018_Node000003" class="edge">
<title>Node18&#45;&gt;Node3</title>
<g id="a_edge33_Node000018_Node000003"><a xlink:title=" ">
<path fill="none" stroke="#63b8ff" d="M1205.82,-52.85C1068.57,-32.39 916.54,-17.46 856.64,-11.88"/>
<polygon fill="#63b8ff" stroke="#63b8ff" points="1205.68,-56.37 1216.09,-54.39 1206.72,-49.45 1205.68,-56.37"/>
</a>
</g>
</g>
<!-- Node19&#45;&gt;Node3 -->
<g id="edge35_Node000019_Node000003" class="edge">
<title>Node19&#45;&gt;Node3</title>
<g id="a_edge35_Node000019_Node000003"><a xlink:title=" ">
<path fill="none" stroke="#63b8ff" d="M1286.28,-52.92C1116.31,-32.1 925.14,-16.72 856.58,-11.46"/>
<polygon fill="#63b8ff" stroke="#63b8ff" points="1286.06,-56.42 1296.41,-54.17 1286.92,-49.48 1286.06,-56.42"/>
</a>
</g>
</g>
<!-- Node20&#45;&gt;Node3 -->
<g id="edge37_Node000020_Node000003" class="edge">
<title>Node20&#45;&gt;Node3</title>
<g id="a_edge37_Node000020_Node000003"><a xlink:title=" ">
<path fill="none" stroke="#63b8ff" d="M1384.74,-53.1C1175.39,-24.31 935.06,-13.41 856.63,-10.42"/>
<polygon fill="#63b8ff" stroke="#63b8ff" points="1384.3,-56.57 1394.68,-54.48 1385.26,-49.64 1384.3,-56.57"/>
</a>
</g>
</g>
<!-- Node21&#45;&gt;Node3 -->
<g id="edge39_Node000021_Node000003" class="edge">
<title>Node21&#45;&gt;Node3</title>
<g id="a_edge39_Node000021_Node000003"><a xlink:title=" ">
<path fill="none" stroke="#63b8ff" d="M1457.59,-52.97C1219.59,-17.84 942.07,-11.11 856.73,-9.8"/>
<polygon fill="#63b8ff" stroke="#63b8ff" points="1457.41,-56.48 1467.82,-54.5 1458.45,-49.56 1457.41,-56.48"/>
</a>
</g>
</g>
<!-- Node22&#45;&gt;Node3 -->
<g id="edge41_Node000022_Node000003" class="edge">
<title>Node22&#45;&gt;Node3</title>
<g id="a_edge41_Node000022_Node000003"><a xlink:title=" ">
<path fill="none" stroke="#63b8ff" d="M1522.9,-52.97C1257.44,-20.5 947.67,-11.91 856.76,-9.99"/>
<polygon fill="#63b8ff" stroke="#63b8ff" points="1522.76,-56.48 1533.11,-54.24 1523.62,-49.54 1522.76,-56.48"/>
</a>
</g>
</g>
<!-- Node23&#45;&gt;Node3 -->
<g id="edge43_Node000023_Node000003" class="edge">
<title>Node23&#45;&gt;Node3</title>
<g id="a_edge43_Node000023_Node000003"><a xlink:title=" ">
<path fill="none" stroke="#63b8ff" d="M1603.58,-53.07C1304.36,-19.25 953.95,-11.46 856.65,-9.87"/>
<polygon fill="#63b8ff" stroke="#63b8ff" points="1603.42,-56.57 1613.75,-54.23 1604.21,-49.62 1603.42,-56.57"/>
</a>
</g>
</g>
</g>
</svg>
