<?xml version="1.0" encoding="UTF-8" standalone="no"?>
<!DOCTYPE svg PUBLIC "-//W3C//DTD SVG 1.1//EN"
 "http://www.w3.org/Graphics/SVG/1.1/DTD/svg11.dtd">
<!-- Generated by graphviz version 2.43.0 (0)
 -->
<!-- Title: solver.hpp Pages: 1 -->
<svg width="1608pt" height="131pt"
 viewBox="0.00 0.00 1608.00 131.00" xmlns="http://www.w3.org/2000/svg" xmlns:xlink="http://www.w3.org/1999/xlink">
<g id="graph0" class="graph" transform="scale(1 1) rotate(0) translate(4 127)">
<title>solver.hpp</title>
<!-- Node1 -->
<g id="Node000001" class="node">
<title>Node1</title>
<g id="a_Node000001"><a xlink:title=" ">
<polygon fill="#999999" stroke="#666666" points="817,-123 758,-123 758,-106 817,-106 817,-123"/>
<text text-anchor="middle" x="787.5" y="-112.6" font-family="Helvetica,sans-Serif" font-size="8.00">solver.hpp</text>
</a>
</g>
</g>
<!-- Node2 -->
<g id="Node000002" class="node">
<title>Node2</title>
<g id="a_Node000002"><a xlink:href="../../dc/da9/astar_8hpp.html" target="_top" xlink:title=" ">
<polygon fill="white" stroke="#666666" points="55,-70 0,-70 0,-53 55,-53 55,-70"/>
<text text-anchor="middle" x="27.5" y="-59.6" font-family="Helvetica,sans-Serif" font-size="8.00">astar.hpp</text>
</a>
</g>
</g>
<!-- Node1&#45;&gt;Node2 -->
<g id="edge1_Node000001_Node000002" class="edge">
<title>Node1&#45;&gt;Node2</title>
<g id="a_edge1_Node000001_Node000002"><a xlink:title=" ">
<path fill="none" stroke="#63b8ff" d="M747.8,-112.71C638.97,-110.21 326.92,-100.68 69.5,-70 64.94,-69.46 60.13,-68.74 55.45,-67.96"/>
<polygon fill="#63b8ff" stroke="#63b8ff" points="747.91,-116.22 757.98,-112.94 748.06,-109.22 747.91,-116.22"/>
</a>
</g>
</g>
<!-- Node3 -->
<g id="Node000003" class="node">
<title>Node3</title>
<g id="a_Node000003"><a xlink:href="../../d9/d96/chdr_8hpp.html" target="_top" xlink:title=" ">
<polygon fill="white" stroke="#666666" points="813.5,-17 761.5,-17 761.5,0 813.5,0 813.5,-17"/>
<text text-anchor="middle" x="787.5" y="-6.6" font-family="Helvetica,sans-Serif" font-size="8.00">chdr.hpp</text>
</a>
</g>
</g>
<!-- Node1&#45;&gt;Node3 -->
<g id="edge7_Node000001_Node000003" class="edge">
<title>Node1&#45;&gt;Node3</title>
<g id="a_edge7_Node000001_Node000003"><a xlink:title=" ">
<path fill="none" stroke="#63b8ff" d="M747.78,-112.46C604.95,-108.55 124.7,-93.66 102.5,-70 97.33,-64.49 97.33,-58.51 102.5,-53 125.46,-28.53 638.34,-13.45 761.22,-10.17"/>
<polygon fill="#63b8ff" stroke="#63b8ff" points="747.76,-115.96 757.85,-112.74 747.95,-108.97 747.76,-115.96"/>
</a>
</g>
</g>
<!-- Node4 -->
<g id="Node000004" class="node">
<title>Node4</title>
<g id="a_Node000004"><a xlink:href="../../d3/d77/best__first_8hpp.html" target="_top" xlink:title=" ">
<polygon fill="white" stroke="#666666" points="183.5,-70 111.5,-70 111.5,-53 183.5,-53 183.5,-70"/>
<text text-anchor="middle" x="147.5" y="-59.6" font-family="Helvetica,sans-Serif" font-size="8.00">best_first.hpp</text>
</a>
</g>
</g>
<!-- Node1&#45;&gt;Node4 -->
<g id="edge3_Node000001_Node000004" class="edge">
<title>Node1&#45;&gt;Node4</title>
<g id="a_edge3_Node000001_Node000004"><a xlink:title=" ">
<path fill="none" stroke="#63b8ff" d="M747.56,-111.85C651.62,-107.62 400.66,-94.9 192.5,-70 189.67,-69.66 186.74,-69.27 183.81,-68.85"/>
<polygon fill="#63b8ff" stroke="#63b8ff" points="747.55,-115.36 757.69,-112.29 747.85,-108.36 747.55,-115.36"/>
</a>
</g>
</g>
<!-- Node5 -->
<g id="Node000005" class="node">
<title>Node5</title>
<g id="a_Node000005"><a xlink:href="../../da/d36/bfs_8hpp.html" target="_top" xlink:title=" ">
<polygon fill="white" stroke="#666666" points="249,-70 202,-70 202,-53 249,-53 249,-70"/>
<text text-anchor="middle" x="225.5" y="-59.6" font-family="Helvetica,sans-Serif" font-size="8.00">bfs.hpp</text>
</a>
</g>
</g>
<!-- Node1&#45;&gt;Node5 -->
<g id="edge5_Node000001_Node000005" class="edge">
<title>Node1&#45;&gt;Node5</title>
<g id="a_edge5_Node000001_Node000005"><a xlink:title=" ">
<path fill="none" stroke="#63b8ff" d="M747.57,-112.25C658.92,-109.02 439.13,-98.58 257.5,-70 254.79,-69.57 251.98,-69.04 249.19,-68.46"/>
<polygon fill="#63b8ff" stroke="#63b8ff" points="747.61,-115.75 757.72,-112.6 747.85,-108.75 747.61,-115.75"/>
</a>
</g>
</g>
<!-- Node6 -->
<g id="Node000006" class="node">
<title>Node6</title>
<g id="a_Node000006"><a xlink:href="../../d3/dec/dfs_8hpp.html" target="_top" xlink:title=" ">
<polygon fill="white" stroke="#666666" points="314,-70 267,-70 267,-53 314,-53 314,-70"/>
<text text-anchor="middle" x="290.5" y="-59.6" font-family="Helvetica,sans-Serif" font-size="8.00">dfs.hpp</text>
</a>
</g>
</g>
<!-- Node1&#45;&gt;Node6 -->
<g id="edge8_Node000001_Node000006" class="edge">
<title>Node1&#45;&gt;Node6</title>
<g id="a_edge8_Node000001_Node000006"><a xlink:title=" ">
<path fill="none" stroke="#63b8ff" d="M747.75,-111.62C667.12,-107.4 478.73,-95.49 322.5,-70 319.8,-69.56 316.98,-69.02 314.19,-68.43"/>
<polygon fill="#63b8ff" stroke="#63b8ff" points="747.78,-115.13 757.94,-112.14 748.14,-108.14 747.78,-115.13"/>
</a>
</g>
</g>
<!-- Node7 -->
<g id="Node000007" class="node">
<title>Node7</title>
<g id="a_Node000007"><a xlink:href="../../d3/d11/dijkstra_8hpp.html" target="_top" xlink:title=" ">
<polygon fill="white" stroke="#666666" points="397,-70 332,-70 332,-53 397,-53 397,-70"/>
<text text-anchor="middle" x="364.5" y="-59.6" font-family="Helvetica,sans-Serif" font-size="8.00">dijkstra.hpp</text>
</a>
</g>
</g>
<!-- Node1&#45;&gt;Node7 -->
<g id="edge10_Node000001_Node000007" class="edge">
<title>Node1&#45;&gt;Node7</title>
<g id="a_edge10_Node000001_Node000007"><a xlink:title=" ">
<path fill="none" stroke="#63b8ff" d="M747.72,-109.79C678.29,-103.13 530.56,-88.14 406.5,-70 403.42,-69.55 400.22,-69.05 397.03,-68.52"/>
<polygon fill="#63b8ff" stroke="#63b8ff" points="747.49,-113.29 757.78,-110.75 748.15,-106.32 747.49,-113.29"/>
</a>
</g>
</g>
<!-- Node8 -->
<g id="Node000008" class="node">
<title>Node8</title>
<g id="a_Node000008"><a xlink:href="../../d6/ded/eidastar_8hpp.html" target="_top" xlink:title=" ">
<polygon fill="white" stroke="#666666" points="483.5,-70 415.5,-70 415.5,-53 483.5,-53 483.5,-70"/>
<text text-anchor="middle" x="449.5" y="-59.6" font-family="Helvetica,sans-Serif" font-size="8.00">eidastar.hpp</text>
</a>
</g>
</g>
<!-- Node1&#45;&gt;Node8 -->
<g id="edge12_Node000001_Node000008" class="edge">
<title>Node1&#45;&gt;Node8</title>
<g id="a_edge12_Node000001_Node000008"><a xlink:title=" ">
<path fill="none" stroke="#63b8ff" d="M747.75,-107.98C691.04,-100.02 583.68,-84.67 492.5,-70 489.66,-69.54 486.71,-69.06 483.75,-68.56"/>
<polygon fill="#63b8ff" stroke="#63b8ff" points="747.34,-111.45 757.73,-109.37 748.31,-104.52 747.34,-111.45"/>
</a>
</g>
</g>
<!-- Node9 -->
<g id="Node000009" class="node">
<title>Node9</title>
<g id="a_Node000009"><a xlink:href="../../d8/d85/eidbest__first_8hpp.html" target="_top" xlink:title=" ">
<polygon fill="white" stroke="#666666" points="587,-70 502,-70 502,-53 587,-53 587,-70"/>
<text text-anchor="middle" x="544.5" y="-59.6" font-family="Helvetica,sans-Serif" font-size="8.00">eidbest_first.hpp</text>
</a>
</g>
</g>
<!-- Node1&#45;&gt;Node9 -->
<g id="edge14_Node000001_Node000009" class="edge">
<title>Node1&#45;&gt;Node9</title>
<g id="a_edge14_Node000001_Node000009"><a xlink:title=" ">
<path fill="none" stroke="#63b8ff" d="M747.7,-105.15C701.28,-95.4 625.19,-79.43 580.47,-70.05"/>
<polygon fill="#63b8ff" stroke="#63b8ff" points="747.2,-108.62 757.7,-107.25 748.64,-101.77 747.2,-108.62"/>
</a>
</g>
</g>
<!-- Node10 -->
<g id="Node000010" class="node">
<title>Node10</title>
<g id="a_Node000010"><a xlink:href="../../dd/d95/eiddfs_8hpp.html" target="_top" xlink:title=" ">
<polygon fill="white" stroke="#666666" points="665.5,-70 605.5,-70 605.5,-53 665.5,-53 665.5,-70"/>
<text text-anchor="middle" x="635.5" y="-59.6" font-family="Helvetica,sans-Serif" font-size="8.00">eiddfs.hpp</text>
</a>
</g>
</g>
<!-- Node1&#45;&gt;Node10 -->
<g id="edge16_Node000001_Node000010" class="edge">
<title>Node1&#45;&gt;Node10</title>
<g id="a_edge16_Node000001_Node000010"><a xlink:title=" ">
<path fill="none" stroke="#63b8ff" d="M755.33,-102.71C726.12,-92.9 683.77,-78.69 658.02,-70.06"/>
<polygon fill="#63b8ff" stroke="#63b8ff" points="754.48,-106.11 765.07,-105.97 756.7,-99.48 754.48,-106.11"/>
</a>
</g>
</g>
<!-- Node11 -->
<g id="Node000011" class="node">
<title>Node11</title>
<g id="a_Node000011"><a xlink:href="../../d8/d12/flood_8hpp.html" target="_top" xlink:title=" ">
<polygon fill="white" stroke="#666666" points="739.5,-70 683.5,-70 683.5,-53 739.5,-53 739.5,-70"/>
<text text-anchor="middle" x="711.5" y="-59.6" font-family="Helvetica,sans-Serif" font-size="8.00">flood.hpp</text>
</a>
</g>
</g>
<!-- Node1&#45;&gt;Node11 -->
<g id="edge18_Node000001_Node000011" class="edge">
<title>Node1&#45;&gt;Node11</title>
<g id="a_edge18_Node000001_Node000011"><a xlink:title=" ">
<path fill="none" stroke="#63b8ff" d="M767.65,-100.18C753.35,-90.58 734.57,-77.98 722.76,-70.06"/>
<polygon fill="#63b8ff" stroke="#63b8ff" points="766.03,-103.31 776.29,-105.97 769.93,-97.5 766.03,-103.31"/>
</a>
</g>
</g>
<!-- Node12 -->
<g id="Node000012" class="node">
<title>Node12</title>
<g id="a_Node000012"><a xlink:href="../../d8/dd5/fringe_8hpp.html" target="_top" xlink:title=" ">
<polygon fill="white" stroke="#666666" points="817,-70 758,-70 758,-53 817,-53 817,-70"/>
<text text-anchor="middle" x="787.5" y="-59.6" font-family="Helvetica,sans-Serif" font-size="8.00">fringe.hpp</text>
</a>
</g>
</g>
<!-- Node1&#45;&gt;Node12 -->
<g id="edge20_Node000001_Node000012" class="edge">
<title>Node1&#45;&gt;Node12</title>
<g id="a_edge20_Node000001_Node000012"><a xlink:title=" ">
<path fill="none" stroke="#63b8ff" d="M787.5,-95.91C787.5,-87.08 787.5,-76.85 787.5,-70.06"/>
<polygon fill="#63b8ff" stroke="#63b8ff" points="784,-95.97 787.5,-105.97 791,-95.97 784,-95.97"/>
</a>
</g>
</g>
<!-- Node13 -->
<g id="Node000013" class="node">
<title>Node13</title>
<g id="a_Node000013"><a xlink:href="../../d3/d3e/gbest__first_8hpp.html" target="_top" xlink:title=" ">
<polygon fill="white" stroke="#666666" points="912,-70 835,-70 835,-53 912,-53 912,-70"/>
<text text-anchor="middle" x="873.5" y="-59.6" font-family="Helvetica,sans-Serif" font-size="8.00">gbest_first.hpp</text>
</a>
</g>
</g>
<!-- Node1&#45;&gt;Node13 -->
<g id="edge22_Node000001_Node000013" class="edge">
<title>Node1&#45;&gt;Node13</title>
<g id="a_edge22_Node000001_Node000013"><a xlink:title=" ">
<path fill="none" stroke="#63b8ff" d="M809.04,-100.73C825.33,-91.07 847.15,-78.13 860.76,-70.06"/>
<polygon fill="#63b8ff" stroke="#63b8ff" points="807.01,-97.86 800.19,-105.97 810.58,-103.88 807.01,-97.86"/>
</a>
</g>
</g>
<!-- Node14 -->
<g id="Node000014" class="node">
<title>Node14</title>
<g id="a_Node000014"><a xlink:href="../../de/d94/gbfs_8hpp.html" target="_top" xlink:title=" ">
<polygon fill="white" stroke="#666666" points="983,-70 930,-70 930,-53 983,-53 983,-70"/>
<text text-anchor="middle" x="956.5" y="-59.6" font-family="Helvetica,sans-Serif" font-size="8.00">gbfs.hpp</text>
</a>
</g>
</g>
<!-- Node1&#45;&gt;Node14 -->
<g id="edge24_Node000001_Node000014" class="edge">
<title>Node1&#45;&gt;Node14</title>
<g id="a_edge24_Node000001_Node000014"><a xlink:title=" ">
<path fill="none" stroke="#63b8ff" d="M822.42,-102.96C854.92,-93.15 902.58,-78.77 931.46,-70.06"/>
<polygon fill="#63b8ff" stroke="#63b8ff" points="821,-99.73 812.44,-105.97 823.02,-106.44 821,-99.73"/>
</a>
</g>
</g>
<!-- Node15 -->
<g id="Node000015" class="node">
<title>Node15</title>
<g id="a_Node000015"><a xlink:href="../../d4/df2/gdfs_8hpp.html" target="_top" xlink:title=" ">
<polygon fill="white" stroke="#666666" points="1054,-70 1001,-70 1001,-53 1054,-53 1054,-70"/>
<text text-anchor="middle" x="1027.5" y="-59.6" font-family="Helvetica,sans-Serif" font-size="8.00">gdfs.hpp</text>
</a>
</g>
</g>
<!-- Node1&#45;&gt;Node15 -->
<g id="edge26_Node000001_Node000015" class="edge">
<title>Node1&#45;&gt;Node15</title>
<g id="a_edge26_Node000001_Node000015"><a xlink:title=" ">
<path fill="none" stroke="#63b8ff" d="M826.97,-105.15C868.25,-96.41 934.93,-82.28 992.5,-70 995.17,-69.43 997.96,-68.83 1000.75,-68.24"/>
<polygon fill="#63b8ff" stroke="#63b8ff" points="826.1,-101.76 817.04,-107.25 827.55,-108.6 826.1,-101.76"/>
</a>
</g>
</g>
<!-- Node16 -->
<g id="Node000016" class="node">
<title>Node16</title>
<g id="a_Node000016"><a xlink:href="../../d3/d3e/gjps_8hpp.html" target="_top" xlink:title=" ">
<polygon fill="white" stroke="#666666" points="1124.5,-70 1072.5,-70 1072.5,-53 1124.5,-53 1124.5,-70"/>
<text text-anchor="middle" x="1098.5" y="-59.6" font-family="Helvetica,sans-Serif" font-size="8.00">gjps.hpp</text>
</a>
</g>
</g>
<!-- Node1&#45;&gt;Node16 -->
<g id="edge28_Node000001_Node000016" class="edge">
<title>Node1&#45;&gt;Node16</title>
<g id="a_edge28_Node000001_Node000016"><a xlink:title=" ">
<path fill="none" stroke="#63b8ff" d="M827.12,-107.95C880.83,-100.27 979.67,-85.58 1063.5,-70 1066.31,-69.48 1069.24,-68.9 1072.16,-68.31"/>
<polygon fill="#63b8ff" stroke="#63b8ff" points="826.41,-104.52 817,-109.39 827.39,-111.45 826.41,-104.52"/>
</a>
</g>
</g>
<!-- Node17 -->
<g id="Node000017" class="node">
<title>Node17</title>
<g id="a_Node000017"><a xlink:href="../../d1/def/gstar_8hpp.html" target="_top" xlink:title=" ">
<polygon fill="white" stroke="#666666" points="1198,-70 1143,-70 1143,-53 1198,-53 1198,-70"/>
<text text-anchor="middle" x="1170.5" y="-59.6" font-family="Helvetica,sans-Serif" font-size="8.00">gstar.hpp</text>
</a>
</g>
</g>
<!-- Node1&#45;&gt;Node17 -->
<g id="edge30_Node000001_Node000017" class="edge">
<title>Node1&#45;&gt;Node17</title>
<g id="a_edge30_Node000001_Node000017"><a xlink:title=" ">
<path fill="none" stroke="#63b8ff" d="M827.37,-109.47C891.9,-102.73 1023.14,-88.1 1133.5,-70 1136.48,-69.51 1139.58,-68.96 1142.66,-68.38"/>
<polygon fill="#63b8ff" stroke="#63b8ff" points="826.81,-106.01 817.23,-110.52 827.54,-112.97 826.81,-106.01"/>
</a>
</g>
</g>
<!-- Node18 -->
<g id="Node000018" class="node">
<title>Node18</title>
<g id="a_Node000018"><a xlink:href="../../db/df9/idastar_8hpp.html" target="_top" xlink:title=" ">
<polygon fill="white" stroke="#666666" points="1278.5,-70 1216.5,-70 1216.5,-53 1278.5,-53 1278.5,-70"/>
<text text-anchor="middle" x="1247.5" y="-59.6" font-family="Helvetica,sans-Serif" font-size="8.00">idastar.hpp</text>
</a>
</g>
</g>
<!-- Node1&#45;&gt;Node18 -->
<g id="edge32_Node000001_Node000018" class="edge">
<title>Node1&#45;&gt;Node18</title>
<g id="a_edge32_Node000001_Node000018"><a xlink:title=" ">
<path fill="none" stroke="#63b8ff" d="M827.5,-110.46C902.34,-104.52 1068.52,-90.19 1207.5,-70 1210.3,-69.59 1213.2,-69.13 1216.1,-68.64"/>
<polygon fill="#63b8ff" stroke="#63b8ff" points="826.83,-107 817.14,-111.27 827.38,-113.98 826.83,-107"/>
</a>
</g>
</g>
<!-- Node19 -->
<g id="Node000019" class="node">
<title>Node19</title>
<g id="a_Node000019"><a xlink:href="../../d1/d3a/idbest__first_8hpp.html" target="_top" xlink:title=" ">
<polygon fill="white" stroke="#666666" points="1376.5,-70 1296.5,-70 1296.5,-53 1376.5,-53 1376.5,-70"/>
<text text-anchor="middle" x="1336.5" y="-59.6" font-family="Helvetica,sans-Serif" font-size="8.00">idbest_first.hpp</text>
</a>
</g>
</g>
<!-- Node1&#45;&gt;Node19 -->
<g id="edge34_Node000001_Node000019" class="edge">
<title>Node1&#45;&gt;Node19</title>
<g id="a_edge34_Node000001_Node000019"><a xlink:title=" ">
<path fill="none" stroke="#63b8ff" d="M827.37,-110.92C912.21,-105.23 1116.8,-90.47 1287.5,-70 1290.41,-69.65 1293.4,-69.26 1296.42,-68.85"/>
<polygon fill="#63b8ff" stroke="#63b8ff" points="826.9,-107.44 817.16,-111.6 827.37,-114.42 826.9,-107.44"/>
</a>
</g>
</g>
<!-- Node20 -->
<g id="Node000020" class="node">
<title>Node20</title>
<g id="a_Node000020"><a xlink:href="../../df/d71/iddfs_8hpp.html" target="_top" xlink:title=" ">
<polygon fill="white" stroke="#666666" points="1450,-70 1395,-70 1395,-53 1450,-53 1450,-70"/>
<text text-anchor="middle" x="1422.5" y="-59.6" font-family="Helvetica,sans-Serif" font-size="8.00">iddfs.hpp</text>
</a>
</g>
</g>
<!-- Node1&#45;&gt;Node20 -->
<g id="edge36_Node000001_Node000020" class="edge">
<title>Node1&#45;&gt;Node20</title>
<g id="a_edge36_Node000001_Node000020"><a xlink:title=" ">
<path fill="none" stroke="#63b8ff" d="M827.36,-112.35C923.66,-109.21 1176.51,-98.66 1385.5,-70 1388.49,-69.59 1391.6,-69.09 1394.68,-68.53"/>
<polygon fill="#63b8ff" stroke="#63b8ff" points="827.08,-108.86 817.19,-112.68 827.3,-115.86 827.08,-108.86"/>
</a>
</g>
</g>
<!-- Node21 -->
<g id="Node000021" class="node">
<title>Node21</title>
<g id="a_Node000021"><a xlink:href="../../d9/de6/jps_8hpp.html" target="_top" xlink:title=" ">
<polygon fill="white" stroke="#666666" points="1515,-70 1468,-70 1468,-53 1515,-53 1515,-70"/>
<text text-anchor="middle" x="1491.5" y="-59.6" font-family="Helvetica,sans-Serif" font-size="8.00">jps.hpp</text>
</a>
</g>
</g>
<!-- Node1&#45;&gt;Node21 -->
<g id="edge38_Node000001_Node000021" class="edge">
<title>Node1&#45;&gt;Node21</title>
<g id="a_edge38_Node000001_Node000021"><a xlink:title=" ">
<path fill="none" stroke="#63b8ff" d="M827.24,-113.22C931.51,-111.98 1221.36,-105.37 1459.5,-70 1462.21,-69.6 1465.03,-69.08 1467.82,-68.51"/>
<polygon fill="#63b8ff" stroke="#63b8ff" points="827.12,-109.72 817.16,-113.33 827.2,-116.72 827.12,-109.72"/>
</a>
</g>
</g>
<!-- Node22 -->
<g id="Node000022" class="node">
<title>Node22</title>
<g id="a_Node000022"><a xlink:href="../../dd/d57/smastar_8hpp.html" target="_top" xlink:title=" ">
<polygon fill="white" stroke="#666666" points="1600,-70 1533,-70 1533,-53 1600,-53 1600,-70"/>
<text text-anchor="middle" x="1566.5" y="-59.6" font-family="Helvetica,sans-Serif" font-size="8.00">smastar.hpp</text>
</a>
</g>
</g>
<!-- Node1&#45;&gt;Node22 -->
<g id="edge40_Node000001_Node000022" class="edge">
<title>Node1&#45;&gt;Node22</title>
<g id="a_edge40_Node000001_Node000022"><a xlink:title=" ">
<path fill="none" stroke="#63b8ff" d="M827.14,-112.8C937.81,-110.49 1259.39,-101.38 1524.5,-70 1527.15,-69.69 1529.88,-69.31 1532.63,-68.9"/>
<polygon fill="#63b8ff" stroke="#63b8ff" points="827.03,-109.3 817.1,-113 827.17,-116.3 827.03,-109.3"/>
</a>
</g>
</g>
<!-- Node2&#45;&gt;Node3 -->
<g id="edge2_Node000002_Node000003" class="edge">
<title>Node2&#45;&gt;Node3</title>
<g id="a_edge2_Node000002_Node000003"><a xlink:title=" ">
<path fill="none" stroke="#63b8ff" d="M65.6,-53.5C66.91,-53.32 68.22,-53.15 69.5,-53 338.59,-20.93 667.39,-11.97 761.32,-9.99"/>
<polygon fill="#63b8ff" stroke="#63b8ff" points="64.81,-50.08 55.45,-55.04 65.86,-57 64.81,-50.08"/>
</a>
</g>
</g>
<!-- Node4&#45;&gt;Node3 -->
<g id="edge4_Node000004_Node000003" class="edge">
<title>Node4&#45;&gt;Node3</title>
<g id="a_edge4_Node000004_Node000003"><a xlink:title=" ">
<path fill="none" stroke="#63b8ff" d="M193.84,-52.96C419.32,-26.42 679.21,-14.03 761.32,-10.55"/>
<polygon fill="#63b8ff" stroke="#63b8ff" points="193.32,-49.5 183.81,-54.15 194.15,-56.45 193.32,-49.5"/>
</a>
</g>
</g>
<!-- Node5&#45;&gt;Node3 -->
<g id="edge6_Node000005_Node000003" class="edge">
<title>Node5&#45;&gt;Node3</title>
<g id="a_edge6_Node000005_Node000003"><a xlink:title=" ">
<path fill="none" stroke="#63b8ff" d="M259.19,-52.97C457.23,-22.47 685.37,-12.81 761.42,-10.27"/>
<polygon fill="#63b8ff" stroke="#63b8ff" points="258.53,-49.53 249.19,-54.54 259.61,-56.45 258.53,-49.53"/>
</a>
</g>
</g>
<!-- Node6&#45;&gt;Node3 -->
<g id="edge9_Node000006_Node000003" class="edge">
<title>Node6&#45;&gt;Node3</title>
<g id="a_edge9_Node000006_Node000003"><a xlink:title=" ">
<path fill="none" stroke="#63b8ff" d="M324.17,-52.95C496,-25.49 691.78,-14.12 761.38,-10.69"/>
<polygon fill="#63b8ff" stroke="#63b8ff" points="323.5,-49.51 314.19,-54.57 324.62,-56.42 323.5,-49.51"/>
</a>
</g>
</g>
<!-- Node7&#45;&gt;Node3 -->
<g id="edge11_Node000007_Node000003" class="edge">
<title>Node7&#45;&gt;Node3</title>
<g id="a_edge11_Node000007_Node000003"><a xlink:title=" ">
<path fill="none" stroke="#63b8ff" d="M407.05,-53.02C546.68,-32.86 700.52,-17.65 761.1,-11.94"/>
<polygon fill="#63b8ff" stroke="#63b8ff" points="406.42,-49.58 397.03,-54.48 407.43,-56.5 406.42,-49.58"/>
</a>
</g>
</g>
<!-- Node8&#45;&gt;Node3 -->
<g id="edge13_Node000008_Node000003" class="edge">
<title>Node8&#45;&gt;Node3</title>
<g id="a_edge13_Node000008_Node000003"><a xlink:title=" ">
<path fill="none" stroke="#63b8ff" d="M493.9,-52.81C598.98,-36.01 711.55,-20.07 761.42,-13.11"/>
<polygon fill="#63b8ff" stroke="#63b8ff" points="493.07,-49.4 483.75,-54.44 494.18,-56.31 493.07,-49.4"/>
</a>
</g>
</g>
<!-- Node9&#45;&gt;Node3 -->
<g id="edge15_Node000009_Node000003" class="edge">
<title>Node9&#45;&gt;Node3</title>
<g id="a_edge15_Node000009_Node000003"><a xlink:title=" ">
<path fill="none" stroke="#63b8ff" d="M590.36,-50.88C640.86,-40.28 720.32,-23.6 761.23,-15.01"/>
<polygon fill="#63b8ff" stroke="#63b8ff" points="589.42,-47.5 580.36,-52.97 590.86,-54.35 589.42,-47.5"/>
</a>
</g>
</g>
<!-- Node10&#45;&gt;Node3 -->
<g id="edge17_Node000010_Node000003" class="edge">
<title>Node10&#45;&gt;Node3</title>
<g id="a_edge17_Node000010_Node000003"><a xlink:title=" ">
<path fill="none" stroke="#63b8ff" d="M667.67,-49.71C696.88,-39.9 739.23,-25.69 764.98,-17.06"/>
<polygon fill="#63b8ff" stroke="#63b8ff" points="666.3,-46.48 657.93,-52.97 668.52,-53.11 666.3,-46.48"/>
</a>
</g>
</g>
<!-- Node11&#45;&gt;Node3 -->
<g id="edge19_Node000011_Node000003" class="edge">
<title>Node11&#45;&gt;Node3</title>
<g id="a_edge19_Node000011_Node000003"><a xlink:title=" ">
<path fill="none" stroke="#63b8ff" d="M731.35,-47.18C745.65,-37.58 764.43,-24.98 776.24,-17.06"/>
<polygon fill="#63b8ff" stroke="#63b8ff" points="729.07,-44.5 722.71,-52.97 732.97,-50.31 729.07,-44.5"/>
</a>
</g>
</g>
<!-- Node12&#45;&gt;Node3 -->
<g id="edge21_Node000012_Node000003" class="edge">
<title>Node12&#45;&gt;Node3</title>
<g id="a_edge21_Node000012_Node000003"><a xlink:title=" ">
<path fill="none" stroke="#63b8ff" d="M787.5,-42.91C787.5,-34.08 787.5,-23.85 787.5,-17.06"/>
<polygon fill="#63b8ff" stroke="#63b8ff" points="784,-42.97 787.5,-52.97 791,-42.97 784,-42.97"/>
</a>
</g>
</g>
<!-- Node13&#45;&gt;Node3 -->
<g id="edge23_Node000013_Node000003" class="edge">
<title>Node13&#45;&gt;Node3</title>
<g id="a_edge23_Node000013_Node000003"><a xlink:title=" ">
<path fill="none" stroke="#63b8ff" d="M851.96,-47.73C835.67,-38.07 813.85,-25.13 800.24,-17.06"/>
<polygon fill="#63b8ff" stroke="#63b8ff" points="850.42,-50.88 860.81,-52.97 853.99,-44.86 850.42,-50.88"/>
</a>
</g>
</g>
<!-- Node14&#45;&gt;Node3 -->
<g id="edge25_Node000014_Node000003" class="edge">
<title>Node14&#45;&gt;Node3</title>
<g id="a_edge25_Node000014_Node000003"><a xlink:title=" ">
<path fill="none" stroke="#63b8ff" d="M921.58,-49.96C889.08,-40.15 841.42,-25.77 812.54,-17.06"/>
<polygon fill="#63b8ff" stroke="#63b8ff" points="920.98,-53.44 931.56,-52.97 923,-46.73 920.98,-53.44"/>
</a>
</g>
</g>
<!-- Node15&#45;&gt;Node3 -->
<g id="edge27_Node000015_Node000003" class="edge">
<title>Node15&#45;&gt;Node3</title>
<g id="a_edge27_Node000015_Node000003"><a xlink:title=" ">
<path fill="none" stroke="#63b8ff" d="M990.97,-52.68C921.56,-37.88 850.95,-22.93 813.72,-15.05"/>
<polygon fill="#63b8ff" stroke="#63b8ff" points="990.24,-56.1 1000.75,-54.76 991.7,-49.25 990.24,-56.1"/>
</a>
</g>
</g>
<!-- Node16&#45;&gt;Node3 -->
<g id="edge29_Node000016_Node000003" class="edge">
<title>Node16&#45;&gt;Node3</title>
<g id="a_edge29_Node000016_Node000003"><a xlink:title=" ">
<path fill="none" stroke="#63b8ff" d="M1062.17,-52.84C964.99,-34.98 861.4,-19.88 813.84,-13.16"/>
<polygon fill="#63b8ff" stroke="#63b8ff" points="1061.69,-56.31 1072.16,-54.69 1062.96,-49.43 1061.69,-56.31"/>
</a>
</g>
</g>
<!-- Node17&#45;&gt;Node3 -->
<g id="edge31_Node000017_Node000003" class="edge">
<title>Node17&#45;&gt;Node3</title>
<g id="a_edge31_Node000017_Node000003"><a xlink:title=" ">
<path fill="none" stroke="#63b8ff" d="M1132.5,-52.97C1007.12,-32.7 869.96,-17.88 813.64,-12.11"/>
<polygon fill="#63b8ff" stroke="#63b8ff" points="1132.23,-56.47 1142.66,-54.62 1133.36,-49.56 1132.23,-56.47"/>
</a>
</g>
</g>
<!-- Node18&#45;&gt;Node3 -->
<g id="edge33_Node000018_Node000003" class="edge">
<title>Node18&#45;&gt;Node3</title>
<g id="a_edge33_Node000018_Node000003"><a xlink:title=" ">
<path fill="none" stroke="#63b8ff" d="M1205.95,-52.89C1051.49,-30.81 878.38,-16.46 813.64,-11.46"/>
<polygon fill="#63b8ff" stroke="#63b8ff" points="1205.7,-56.39 1216.1,-54.36 1206.7,-49.47 1205.7,-56.39"/>
</a>
</g>
</g>
<!-- Node19&#45;&gt;Node3 -->
<g id="edge35_Node000019_Node000003" class="edge">
<title>Node19&#45;&gt;Node3</title>
<g id="a_edge35_Node000019_Node000003"><a xlink:title=" ">
<path fill="none" stroke="#63b8ff" d="M1286.39,-52.95C1099.04,-30.79 886.54,-15.96 813.59,-11.17"/>
<polygon fill="#63b8ff" stroke="#63b8ff" points="1286.07,-56.44 1296.42,-54.15 1286.9,-49.49 1286.07,-56.44"/>
</a>
</g>
</g>
<!-- Node20&#45;&gt;Node3 -->
<g id="edge37_Node000020_Node000003" class="edge">
<title>Node20&#45;&gt;Node3</title>
<g id="a_edge37_Node000020_Node000003"><a xlink:title=" ">
<path fill="none" stroke="#63b8ff" d="M1384.59,-53.09C1157.75,-22.54 895.87,-12.7 813.56,-10.21"/>
<polygon fill="#63b8ff" stroke="#63b8ff" points="1384.3,-56.58 1394.68,-54.47 1385.25,-49.65 1384.3,-56.58"/>
</a>
</g>
</g>
<!-- Node21&#45;&gt;Node3 -->
<g id="edge39_Node000021_Node000003" class="edge">
<title>Node21&#45;&gt;Node3</title>
<g id="a_edge39_Node000021_Node000003"><a xlink:title=" ">
<path fill="none" stroke="#63b8ff" d="M1457.6,-52.98C1201.96,-15.8 902.56,-10.44 813.61,-9.64"/>
<polygon fill="#63b8ff" stroke="#63b8ff" points="1457.42,-56.49 1467.82,-54.49 1458.44,-49.57 1457.42,-56.49"/>
</a>
</g>
</g>
<!-- Node22&#45;&gt;Node3 -->
<g id="edge41_Node000022_Node000003" class="edge">
<title>Node22&#45;&gt;Node3</title>
<g id="a_edge41_Node000022_Node000003"><a xlink:title=" ">
<path fill="none" stroke="#63b8ff" d="M1522.58,-52.92C1239.76,-20.03 908.12,-11.72 813.71,-9.93"/>
<polygon fill="#63b8ff" stroke="#63b8ff" points="1522.28,-56.41 1532.63,-54.1 1523.1,-49.45 1522.28,-56.41"/>
</a>
</g>
</g>
</g>
</svg>
