<?xml version="1.0" encoding="UTF-8" standalone="no"?>
<!DOCTYPE svg PUBLIC "-//W3C//DTD SVG 1.1//EN"
 "http://www.w3.org/Graphics/SVG/1.1/DTD/svg11.dtd">
<!-- Generated by graphviz version 2.43.0 (0)
 -->
<!-- Title: solver.hpp Pages: 1 -->
<svg width="1270pt" height="131pt"
 viewBox="0.00 0.00 1270.00 131.00" xmlns="http://www.w3.org/2000/svg" xmlns:xlink="http://www.w3.org/1999/xlink">
<g id="graph0" class="graph" transform="scale(1 1) rotate(0) translate(4 127)">
<title>solver.hpp</title>
<!-- Node1 -->
<g id="Node000001" class="node">
<title>Node1</title>
<g id="a_Node000001"><a xlink:title=" ">
<polygon fill="#999999" stroke="#666666" points="655.5,-123 602.5,-123 602.5,-106 655.5,-106 655.5,-123"/>
<text text-anchor="middle" x="629" y="-112.6" font-family="Helvetica,sans-Serif" font-size="8.00">solver.hpp</text>
</a>
</g>
</g>
<!-- Node2 -->
<g id="Node000002" class="node">
<title>Node2</title>
<g id="a_Node000002"><a xlink:href="../../dc/da9/astar_8hpp.html" target="_top" xlink:title=" ">
<polygon fill="white" stroke="#666666" points="50,-70 0,-70 0,-53 50,-53 50,-70"/>
<text text-anchor="middle" x="25" y="-59.6" font-family="Helvetica,sans-Serif" font-size="8.00">astar.hpp</text>
</a>
</g>
</g>
<!-- Node1&#45;&gt;Node2 -->
<g id="edge1_Node000001_Node000002" class="edge">
<title>Node1&#45;&gt;Node2</title>
<g id="a_edge1_Node000001_Node000002"><a xlink:title=" ">
<path fill="none" stroke="#63b8ff" d="M592.15,-112.11C501.79,-108.38 262.17,-96.6 64,-70 59.49,-69.39 54.71,-68.6 50.11,-67.76"/>
<polygon fill="#63b8ff" stroke="#63b8ff" points="592.28,-115.62 602.41,-112.52 592.56,-108.62 592.28,-115.62"/>
</a>
</g>
</g>
<!-- Node3 -->
<g id="Node000003" class="node">
<title>Node3</title>
<g id="a_Node000003"><a xlink:href="../../d9/d96/chdr_8hpp_source.html" target="_top" xlink:title=" ">
<polygon fill="white" stroke="#666666" points="652.5,-17 605.5,-17 605.5,0 652.5,0 652.5,-17"/>
<text text-anchor="middle" x="629" y="-6.6" font-family="Helvetica,sans-Serif" font-size="8.00">chdr.hpp</text>
</a>
</g>
</g>
<!-- Node1&#45;&gt;Node3 -->
<g id="edge7_Node000001_Node000003" class="edge">
<title>Node1&#45;&gt;Node3</title>
<g id="a_edge7_Node000001_Node000003"><a xlink:title=" ">
<path fill="none" stroke="#63b8ff" d="M592.39,-113.31C477.63,-112.32 130.49,-106.35 97,-70 91.88,-64.44 91.88,-58.56 97,-53 131.85,-15.18 506.33,-10.24 605.18,-9.6"/>
<polygon fill="#63b8ff" stroke="#63b8ff" points="592.42,-116.81 602.45,-113.38 592.47,-109.81 592.42,-116.81"/>
</a>
</g>
</g>
<!-- Node4 -->
<g id="Node000004" class="node">
<title>Node4</title>
<g id="a_Node000004"><a xlink:href="../../da/d36/bfs_8hpp_source.html" target="_top" xlink:title=" ">
<polygon fill="white" stroke="#666666" points="149.5,-70 106.5,-70 106.5,-53 149.5,-53 149.5,-70"/>
<text text-anchor="middle" x="128" y="-59.6" font-family="Helvetica,sans-Serif" font-size="8.00">bfs.hpp</text>
</a>
</g>
</g>
<!-- Node1&#45;&gt;Node4 -->
<g id="edge3_Node000001_Node000004" class="edge">
<title>Node1&#45;&gt;Node4</title>
<g id="a_edge3_Node000001_Node000004"><a xlink:title=" ">
<path fill="none" stroke="#63b8ff" d="M592.33,-111.92C512.89,-108.1 319.14,-96.64 159,-70 155.94,-69.49 152.74,-68.85 149.6,-68.15"/>
<polygon fill="#63b8ff" stroke="#63b8ff" points="592.17,-115.42 602.33,-112.39 592.5,-108.42 592.17,-115.42"/>
</a>
</g>
</g>
<!-- Node5 -->
<g id="Node000005" class="node">
<title>Node5</title>
<g id="a_Node000005"><a xlink:href="../../db/d14/bstar_8hpp_source.html" target="_top" xlink:title=" ">
<polygon fill="white" stroke="#666666" points="218,-70 168,-70 168,-53 218,-53 218,-70"/>
<text text-anchor="middle" x="193" y="-59.6" font-family="Helvetica,sans-Serif" font-size="8.00">bstar.hpp</text>
</a>
</g>
</g>
<!-- Node1&#45;&gt;Node5 -->
<g id="edge5_Node000001_Node000005" class="edge">
<title>Node1&#45;&gt;Node5</title>
<g id="a_edge5_Node000001_Node000005"><a xlink:title=" ">
<path fill="none" stroke="#63b8ff" d="M591.81,-110.84C520.65,-105.45 360.43,-91.87 227,-70 224.14,-69.53 221.15,-68.97 218.19,-68.38"/>
<polygon fill="#63b8ff" stroke="#63b8ff" points="591.81,-114.35 602.05,-111.61 592.34,-107.37 591.81,-114.35"/>
</a>
</g>
</g>
<!-- Node6 -->
<g id="Node000006" class="node">
<title>Node6</title>
<g id="a_Node000006"><a xlink:href="../../d3/dec/dfs_8hpp_source.html" target="_top" xlink:title=" ">
<polygon fill="white" stroke="#666666" points="279.5,-70 236.5,-70 236.5,-53 279.5,-53 279.5,-70"/>
<text text-anchor="middle" x="258" y="-59.6" font-family="Helvetica,sans-Serif" font-size="8.00">dfs.hpp</text>
</a>
</g>
</g>
<!-- Node1&#45;&gt;Node6 -->
<g id="edge8_Node000001_Node000006" class="edge">
<title>Node1&#45;&gt;Node6</title>
<g id="a_edge8_Node000001_Node000006"><a xlink:title=" ">
<path fill="none" stroke="#63b8ff" d="M592.11,-110.24C529.32,-104.36 397.78,-90.65 288,-70 285.26,-69.48 282.39,-68.87 279.56,-68.21"/>
<polygon fill="#63b8ff" stroke="#63b8ff" points="592.02,-113.74 602.3,-111.18 592.67,-106.77 592.02,-113.74"/>
</a>
</g>
</g>
<!-- Node7 -->
<g id="Node000007" class="node">
<title>Node7</title>
<g id="a_Node000007"><a xlink:href="../../d3/d11/dijkstra_8hpp_source.html" target="_top" xlink:title=" ">
<polygon fill="white" stroke="#666666" points="354.5,-70 297.5,-70 297.5,-53 354.5,-53 354.5,-70"/>
<text text-anchor="middle" x="326" y="-59.6" font-family="Helvetica,sans-Serif" font-size="8.00">dijkstra.hpp</text>
</a>
</g>
</g>
<!-- Node1&#45;&gt;Node7 -->
<g id="edge10_Node000001_Node000007" class="edge">
<title>Node1&#45;&gt;Node7</title>
<g id="a_edge10_Node000001_Node000007"><a xlink:title=" ">
<path fill="none" stroke="#63b8ff" d="M592.32,-107.86C541.11,-99.9 445.34,-84.7 364,-70 360.96,-69.45 357.78,-68.86 354.62,-68.25"/>
<polygon fill="#63b8ff" stroke="#63b8ff" points="591.83,-111.33 602.24,-109.4 592.9,-104.41 591.83,-111.33"/>
</a>
</g>
</g>
<!-- Node8 -->
<g id="Node000008" class="node">
<title>Node8</title>
<g id="a_Node000008"><a xlink:href="../../d6/ded/eidastar_8hpp_source.html" target="_top" xlink:title=" ">
<polygon fill="white" stroke="#666666" points="433,-70 373,-70 373,-53 433,-53 433,-70"/>
<text text-anchor="middle" x="403" y="-59.6" font-family="Helvetica,sans-Serif" font-size="8.00">eidastar.hpp</text>
</a>
</g>
</g>
<!-- Node1&#45;&gt;Node8 -->
<g id="edge12_Node000001_Node000008" class="edge">
<title>Node1&#45;&gt;Node8</title>
<g id="a_edge12_Node000001_Node000008"><a xlink:title=" ">
<path fill="none" stroke="#63b8ff" d="M592.39,-105.24C548.04,-95.23 474.16,-78.56 433.01,-69.27"/>
<polygon fill="#63b8ff" stroke="#63b8ff" points="591.66,-108.66 602.19,-107.45 593.2,-101.83 591.66,-108.66"/>
</a>
</g>
</g>
<!-- Node9 -->
<g id="Node000009" class="node">
<title>Node9</title>
<g id="a_Node000009"><a xlink:href="../../dd/d67/eidbstar_8hpp_source.html" target="_top" xlink:title=" ">
<polygon fill="white" stroke="#666666" points="511,-70 451,-70 451,-53 511,-53 511,-70"/>
<text text-anchor="middle" x="481" y="-59.6" font-family="Helvetica,sans-Serif" font-size="8.00">eidbstar.hpp</text>
</a>
</g>
</g>
<!-- Node1&#45;&gt;Node9 -->
<g id="edge14_Node000001_Node000009" class="edge">
<title>Node1&#45;&gt;Node9</title>
<g id="a_edge14_Node000001_Node000009"><a xlink:title=" ">
<path fill="none" stroke="#63b8ff" d="M597.68,-102.71C569.23,-92.9 528,-78.69 502.93,-70.06"/>
<polygon fill="#63b8ff" stroke="#63b8ff" points="596.57,-106.03 607.16,-105.97 598.85,-99.41 596.57,-106.03"/>
</a>
</g>
</g>
<!-- Node10 -->
<g id="Node000010" class="node">
<title>Node10</title>
<g id="a_Node000010"><a xlink:href="../../dd/d95/eiddfs_8hpp_source.html" target="_top" xlink:title=" ">
<polygon fill="white" stroke="#666666" points="582.5,-70 529.5,-70 529.5,-53 582.5,-53 582.5,-70"/>
<text text-anchor="middle" x="556" y="-59.6" font-family="Helvetica,sans-Serif" font-size="8.00">eiddfs.hpp</text>
</a>
</g>
</g>
<!-- Node1&#45;&gt;Node10 -->
<g id="edge16_Node000001_Node000010" class="edge">
<title>Node1&#45;&gt;Node10</title>
<g id="a_edge16_Node000001_Node000010"><a xlink:title=" ">
<path fill="none" stroke="#63b8ff" d="M609.94,-100.18C596.2,-90.58 578.15,-77.98 566.82,-70.06"/>
<polygon fill="#63b8ff" stroke="#63b8ff" points="608.03,-103.12 618.23,-105.97 612.04,-97.38 608.03,-103.12"/>
</a>
</g>
</g>
<!-- Node11 -->
<g id="Node000011" class="node">
<title>Node11</title>
<g id="a_Node000011"><a xlink:href="../../da/dc2/floodfill_8hpp_source.html" target="_top" xlink:title=" ">
<polygon fill="white" stroke="#666666" points="657,-70 601,-70 601,-53 657,-53 657,-70"/>
<text text-anchor="middle" x="629" y="-59.6" font-family="Helvetica,sans-Serif" font-size="8.00">floodfill.hpp</text>
</a>
</g>
</g>
<!-- Node1&#45;&gt;Node11 -->
<g id="edge18_Node000001_Node000011" class="edge">
<title>Node1&#45;&gt;Node11</title>
<g id="a_edge18_Node000001_Node000011"><a xlink:title=" ">
<path fill="none" stroke="#63b8ff" d="M629,-95.91C629,-87.08 629,-76.85 629,-70.06"/>
<polygon fill="#63b8ff" stroke="#63b8ff" points="625.5,-95.97 629,-105.97 632.5,-95.97 625.5,-95.97"/>
</a>
</g>
</g>
<!-- Node12 -->
<g id="Node000012" class="node">
<title>Node12</title>
<g id="a_Node000012"><a xlink:href="../../d1/d5a/fstar_8hpp_source.html" target="_top" xlink:title=" ">
<polygon fill="white" stroke="#666666" points="722.5,-70 675.5,-70 675.5,-53 722.5,-53 722.5,-70"/>
<text text-anchor="middle" x="699" y="-59.6" font-family="Helvetica,sans-Serif" font-size="8.00">fstar.hpp</text>
</a>
</g>
</g>
<!-- Node1&#45;&gt;Node12 -->
<g id="edge20_Node000001_Node000012" class="edge">
<title>Node1&#45;&gt;Node12</title>
<g id="a_edge20_Node000001_Node000012"><a xlink:title=" ">
<path fill="none" stroke="#63b8ff" d="M647.66,-99.91C660.78,-90.34 677.86,-77.9 688.63,-70.06"/>
<polygon fill="#63b8ff" stroke="#63b8ff" points="645.35,-97.26 639.33,-105.97 649.47,-102.91 645.35,-97.26"/>
</a>
</g>
</g>
<!-- Node13 -->
<g id="Node000013" class="node">
<title>Node13</title>
<g id="a_Node000013"><a xlink:href="../../de/d94/gbfs_8hpp_source.html" target="_top" xlink:title=" ">
<polygon fill="white" stroke="#666666" points="787.5,-70 740.5,-70 740.5,-53 787.5,-53 787.5,-70"/>
<text text-anchor="middle" x="764" y="-59.6" font-family="Helvetica,sans-Serif" font-size="8.00">gbfs.hpp</text>
</a>
</g>
</g>
<!-- Node1&#45;&gt;Node13 -->
<g id="edge22_Node000001_Node000013" class="edge">
<title>Node1&#45;&gt;Node13</title>
<g id="a_edge22_Node000001_Node000013"><a xlink:title=" ">
<path fill="none" stroke="#63b8ff" d="M658.59,-102.32C684.5,-92.53 721.43,-78.58 744,-70.06"/>
<polygon fill="#63b8ff" stroke="#63b8ff" points="657.04,-99.17 648.92,-105.97 659.51,-105.71 657.04,-99.17"/>
</a>
</g>
</g>
<!-- Node14 -->
<g id="Node000014" class="node">
<title>Node14</title>
<g id="a_Node000014"><a xlink:href="../../d4/df2/gdfs_8hpp_source.html" target="_top" xlink:title=" ">
<polygon fill="white" stroke="#666666" points="852.5,-70 805.5,-70 805.5,-53 852.5,-53 852.5,-70"/>
<text text-anchor="middle" x="829" y="-59.6" font-family="Helvetica,sans-Serif" font-size="8.00">gdfs.hpp</text>
</a>
</g>
</g>
<!-- Node1&#45;&gt;Node14 -->
<g id="edge24_Node000001_Node000014" class="edge">
<title>Node1&#45;&gt;Node14</title>
<g id="a_edge24_Node000001_Node000014"><a xlink:title=" ">
<path fill="none" stroke="#63b8ff" d="M665.36,-104.23C706.07,-93.85 770.87,-77.32 805.45,-68.51"/>
<polygon fill="#63b8ff" stroke="#63b8ff" points="664.38,-100.87 655.56,-106.73 666.11,-107.65 664.38,-100.87"/>
</a>
</g>
</g>
<!-- Node15 -->
<g id="Node000015" class="node">
<title>Node15</title>
<g id="a_Node000015"><a xlink:href="../../d3/d3e/gjps_8hpp_source.html" target="_top" xlink:title=" ">
<polygon fill="white" stroke="#666666" points="917.5,-70 870.5,-70 870.5,-53 917.5,-53 917.5,-70"/>
<text text-anchor="middle" x="894" y="-59.6" font-family="Helvetica,sans-Serif" font-size="8.00">gjps.hpp</text>
</a>
</g>
</g>
<!-- Node1&#45;&gt;Node15 -->
<g id="edge26_Node000001_Node000015" class="edge">
<title>Node1&#45;&gt;Node15</title>
<g id="a_edge26_Node000001_Node000015"><a xlink:title=" ">
<path fill="none" stroke="#63b8ff" d="M665.72,-107.18C711.72,-99.14 792.89,-84.54 862,-70 864.68,-69.44 867.48,-68.82 870.26,-68.19"/>
<polygon fill="#63b8ff" stroke="#63b8ff" points="664.89,-103.77 655.63,-108.94 666.09,-110.67 664.89,-103.77"/>
</a>
</g>
</g>
<!-- Node16 -->
<g id="Node000016" class="node">
<title>Node16</title>
<g id="a_Node000016"><a xlink:href="../../d1/def/gstar_8hpp_source.html" target="_top" xlink:title=" ">
<polygon fill="white" stroke="#666666" points="986,-70 936,-70 936,-53 986,-53 986,-70"/>
<text text-anchor="middle" x="961" y="-59.6" font-family="Helvetica,sans-Serif" font-size="8.00">gstar.hpp</text>
</a>
</g>
</g>
<!-- Node1&#45;&gt;Node16 -->
<g id="edge28_Node000001_Node000016" class="edge">
<title>Node1&#45;&gt;Node16</title>
<g id="a_edge28_Node000001_Node000016"><a xlink:title=" ">
<path fill="none" stroke="#63b8ff" d="M666.04,-108.97C722.53,-101.86 833.51,-87.11 927,-70 929.85,-69.48 932.83,-68.89 935.79,-68.27"/>
<polygon fill="#63b8ff" stroke="#63b8ff" points="665.31,-105.53 655.82,-110.24 666.18,-112.48 665.31,-105.53"/>
</a>
</g>
</g>
<!-- Node17 -->
<g id="Node000017" class="node">
<title>Node17</title>
<g id="a_Node000017"><a xlink:href="../../db/df9/idastar_8hpp_source.html" target="_top" xlink:title=" ">
<polygon fill="white" stroke="#666666" points="1060,-70 1004,-70 1004,-53 1060,-53 1060,-70"/>
<text text-anchor="middle" x="1032" y="-59.6" font-family="Helvetica,sans-Serif" font-size="8.00">idastar.hpp</text>
</a>
</g>
</g>
<!-- Node1&#45;&gt;Node17 -->
<g id="edge30_Node000001_Node000017" class="edge">
<title>Node1&#45;&gt;Node17</title>
<g id="a_edge30_Node000001_Node000017"><a xlink:title=" ">
<path fill="none" stroke="#63b8ff" d="M666.07,-110.1C732.32,-103.81 875.3,-89.21 995,-70 997.85,-69.54 1000.81,-69.02 1003.76,-68.47"/>
<polygon fill="#63b8ff" stroke="#63b8ff" points="665.37,-106.66 655.74,-111.08 666.02,-113.62 665.37,-106.66"/>
</a>
</g>
</g>
<!-- Node18 -->
<g id="Node000018" class="node">
<title>Node18</title>
<g id="a_Node000018"><a xlink:href="../../d1/d24/idbstar_8hpp_source.html" target="_top" xlink:title=" ">
<polygon fill="white" stroke="#666666" points="1134,-70 1078,-70 1078,-53 1134,-53 1134,-70"/>
<text text-anchor="middle" x="1106" y="-59.6" font-family="Helvetica,sans-Serif" font-size="8.00">idbstar.hpp</text>
</a>
</g>
</g>
<!-- Node1&#45;&gt;Node18 -->
<g id="edge32_Node000001_Node000018" class="edge">
<title>Node1&#45;&gt;Node18</title>
<g id="a_edge32_Node000001_Node000018"><a xlink:title=" ">
<path fill="none" stroke="#63b8ff" d="M666.09,-111.11C742.02,-105.94 920.5,-92.33 1069,-70 1071.85,-69.57 1074.82,-69.07 1077.77,-68.53"/>
<polygon fill="#63b8ff" stroke="#63b8ff" points="665.39,-107.65 655.65,-111.81 665.86,-114.63 665.39,-107.65"/>
</a>
</g>
</g>
<!-- Node19 -->
<g id="Node000019" class="node">
<title>Node19</title>
<g id="a_Node000019"><a xlink:href="../../df/d71/iddfs_8hpp_source.html" target="_top" xlink:title=" ">
<polygon fill="white" stroke="#666666" points="1201.5,-70 1152.5,-70 1152.5,-53 1201.5,-53 1201.5,-70"/>
<text text-anchor="middle" x="1177" y="-59.6" font-family="Helvetica,sans-Serif" font-size="8.00">iddfs.hpp</text>
</a>
</g>
</g>
<!-- Node1&#45;&gt;Node19 -->
<g id="edge34_Node000001_Node000019" class="edge">
<title>Node1&#45;&gt;Node19</title>
<g id="a_edge34_Node000001_Node000019"><a xlink:title=" ">
<path fill="none" stroke="#63b8ff" d="M665.76,-112.06C750.38,-108.4 965.33,-96.99 1143,-70 1145.99,-69.55 1149.11,-68.98 1152.19,-68.37"/>
<polygon fill="#63b8ff" stroke="#63b8ff" points="665.47,-108.57 655.63,-112.49 665.77,-115.57 665.47,-108.57"/>
</a>
</g>
</g>
<!-- Node20 -->
<g id="Node000020" class="node">
<title>Node20</title>
<g id="a_Node000020"><a xlink:href="../../d9/de6/jps_8hpp_source.html" target="_top" xlink:title=" ">
<polygon fill="white" stroke="#666666" points="1262,-70 1220,-70 1220,-53 1262,-53 1262,-70"/>
<text text-anchor="middle" x="1241" y="-59.6" font-family="Helvetica,sans-Serif" font-size="8.00">jps.hpp</text>
</a>
</g>
</g>
<!-- Node1&#45;&gt;Node20 -->
<g id="edge36_Node000001_Node000020" class="edge">
<title>Node1&#45;&gt;Node20</title>
<g id="a_edge36_Node000001_Node000020"><a xlink:title=" ">
<path fill="none" stroke="#63b8ff" d="M665.8,-112.92C758.12,-111 1006.77,-102.92 1211,-70 1213.86,-69.54 1216.85,-68.94 1219.79,-68.28"/>
<polygon fill="#63b8ff" stroke="#63b8ff" points="665.51,-109.43 655.58,-113.12 665.65,-116.42 665.51,-109.43"/>
</a>
</g>
</g>
<!-- Node2&#45;&gt;Node3 -->
<g id="edge2_Node000002_Node000003" class="edge">
<title>Node2&#45;&gt;Node3</title>
<g id="a_edge2_Node000002_Node000003"><a xlink:title=" ">
<path fill="none" stroke="#63b8ff" d="M60.14,-53.55C61.44,-53.36 62.73,-53.17 64,-53 272.91,-24.96 527.88,-13.39 605.49,-10.36"/>
<polygon fill="#63b8ff" stroke="#63b8ff" points="59.39,-50.13 50.11,-55.24 60.55,-57.03 59.39,-50.13"/>
</a>
</g>
</g>
<!-- Node4&#45;&gt;Node3 -->
<g id="edge4_Node000004_Node000003" class="edge">
<title>Node4&#45;&gt;Node3</title>
<g id="a_edge4_Node000004_Node000003"><a xlink:title=" ">
<path fill="none" stroke="#63b8ff" d="M159.6,-53.2C336.41,-24.35 537.56,-13.52 605.37,-10.47"/>
<polygon fill="#63b8ff" stroke="#63b8ff" points="158.89,-49.77 149.6,-54.85 160.04,-56.67 158.89,-49.77"/>
</a>
</g>
</g>
<!-- Node5&#45;&gt;Node3 -->
<g id="edge6_Node000005_Node000003" class="edge">
<title>Node5&#45;&gt;Node3</title>
<g id="a_edge6_Node000005_Node000003"><a xlink:title=" ">
<path fill="none" stroke="#63b8ff" d="M228.43,-52.95C377.44,-28.99 544.45,-15.59 605.32,-11.15"/>
<polygon fill="#63b8ff" stroke="#63b8ff" points="227.5,-49.56 218.19,-54.62 228.62,-56.47 227.5,-49.56"/>
</a>
</g>
</g>
<!-- Node6&#45;&gt;Node3 -->
<g id="edge9_Node000006_Node000003" class="edge">
<title>Node6&#45;&gt;Node3</title>
<g id="a_edge9_Node000006_Node000003"><a xlink:title=" ">
<path fill="none" stroke="#63b8ff" d="M289.61,-52.91C413.69,-30.03 551.05,-16.45 605.28,-11.55"/>
<polygon fill="#63b8ff" stroke="#63b8ff" points="288.75,-49.51 279.56,-54.79 290.04,-56.39 288.75,-49.51"/>
</a>
</g>
</g>
<!-- Node7&#45;&gt;Node3 -->
<g id="edge11_Node000007_Node000003" class="edge">
<title>Node7&#45;&gt;Node3</title>
<g id="a_edge11_Node000007_Node000003"><a xlink:title=" ">
<path fill="none" stroke="#63b8ff" d="M364.71,-52.93C459.95,-35.83 560.34,-20.07 605.2,-13.14"/>
<polygon fill="#63b8ff" stroke="#63b8ff" points="363.84,-49.53 354.62,-54.75 365.08,-56.42 363.84,-49.53"/>
</a>
</g>
</g>
<!-- Node8&#45;&gt;Node3 -->
<g id="edge13_Node000008_Node000003" class="edge">
<title>Node8&#45;&gt;Node3</title>
<g id="a_edge13_Node000008_Node000003"><a xlink:title=" ">
<path fill="none" stroke="#63b8ff" d="M442.88,-51.5C490,-40.87 566.87,-23.52 605.41,-14.82"/>
<polygon fill="#63b8ff" stroke="#63b8ff" points="442,-48.11 433.01,-53.73 443.54,-54.94 442,-48.11"/>
</a>
</g>
</g>
<!-- Node9&#45;&gt;Node3 -->
<g id="edge15_Node000009_Node000003" class="edge">
<title>Node9&#45;&gt;Node3</title>
<g id="a_edge15_Node000009_Node000003"><a xlink:title=" ">
<path fill="none" stroke="#63b8ff" d="M512.32,-49.71C540.77,-39.9 582,-25.69 607.07,-17.06"/>
<polygon fill="#63b8ff" stroke="#63b8ff" points="511.15,-46.41 502.84,-52.97 513.43,-53.03 511.15,-46.41"/>
</a>
</g>
</g>
<!-- Node10&#45;&gt;Node3 -->
<g id="edge17_Node000010_Node000003" class="edge">
<title>Node10&#45;&gt;Node3</title>
<g id="a_edge17_Node000010_Node000003"><a xlink:title=" ">
<path fill="none" stroke="#63b8ff" d="M575.06,-47.18C588.8,-37.58 606.85,-24.98 618.18,-17.06"/>
<polygon fill="#63b8ff" stroke="#63b8ff" points="572.96,-44.38 566.77,-52.97 576.97,-50.12 572.96,-44.38"/>
</a>
</g>
</g>
<!-- Node11&#45;&gt;Node3 -->
<g id="edge19_Node000011_Node000003" class="edge">
<title>Node11&#45;&gt;Node3</title>
<g id="a_edge19_Node000011_Node000003"><a xlink:title=" ">
<path fill="none" stroke="#63b8ff" d="M629,-42.91C629,-34.08 629,-23.85 629,-17.06"/>
<polygon fill="#63b8ff" stroke="#63b8ff" points="625.5,-42.97 629,-52.97 632.5,-42.97 625.5,-42.97"/>
</a>
</g>
</g>
<!-- Node12&#45;&gt;Node3 -->
<g id="edge21_Node000012_Node000003" class="edge">
<title>Node12&#45;&gt;Node3</title>
<g id="a_edge21_Node000012_Node000003"><a xlink:title=" ">
<path fill="none" stroke="#63b8ff" d="M680.34,-46.91C667.22,-37.34 650.14,-24.9 639.37,-17.06"/>
<polygon fill="#63b8ff" stroke="#63b8ff" points="678.53,-49.91 688.67,-52.97 682.65,-44.26 678.53,-49.91"/>
</a>
</g>
</g>
<!-- Node13&#45;&gt;Node3 -->
<g id="edge23_Node000013_Node000003" class="edge">
<title>Node13&#45;&gt;Node3</title>
<g id="a_edge23_Node000013_Node000003"><a xlink:title=" ">
<path fill="none" stroke="#63b8ff" d="M734.41,-49.32C708.5,-39.53 671.57,-25.58 649,-17.06"/>
<polygon fill="#63b8ff" stroke="#63b8ff" points="733.49,-52.71 744.08,-52.97 735.96,-46.17 733.49,-52.71"/>
</a>
</g>
</g>
<!-- Node14&#45;&gt;Node3 -->
<g id="edge25_Node000014_Node000003" class="edge">
<title>Node14&#45;&gt;Node3</title>
<g id="a_edge25_Node000014_Node000003"><a xlink:title=" ">
<path fill="none" stroke="#63b8ff" d="M795.35,-51.92C754.91,-41.61 688.09,-24.57 652.7,-15.54"/>
<polygon fill="#63b8ff" stroke="#63b8ff" points="794.72,-55.37 805.27,-54.45 796.45,-48.59 794.72,-55.37"/>
</a>
</g>
</g>
<!-- Node15&#45;&gt;Node3 -->
<g id="edge27_Node000015_Node000003" class="edge">
<title>Node15&#45;&gt;Node3</title>
<g id="a_edge27_Node000015_Node000003"><a xlink:title=" ">
<path fill="none" stroke="#63b8ff" d="M860.32,-52.72C778.66,-35.7 693.04,-20.54 652.55,-13.53"/>
<polygon fill="#63b8ff" stroke="#63b8ff" points="859.76,-56.18 870.26,-54.81 861.19,-49.33 859.76,-56.18"/>
</a>
</g>
</g>
<!-- Node16&#45;&gt;Node3 -->
<g id="edge29_Node000016_Node000003" class="edge">
<title>Node16&#45;&gt;Node3</title>
<g id="a_edge29_Node000016_Node000003"><a xlink:title=" ">
<path fill="none" stroke="#63b8ff" d="M925.74,-52.89C818.09,-33.46 701.68,-18.42 652.66,-12.36"/>
<polygon fill="#63b8ff" stroke="#63b8ff" points="925.32,-56.38 935.79,-54.73 926.58,-49.49 925.32,-56.38"/>
</a>
</g>
</g>
<!-- Node17&#45;&gt;Node3 -->
<g id="edge31_Node000017_Node000003" class="edge">
<title>Node17&#45;&gt;Node3</title>
<g id="a_edge31_Node000017_Node000003"><a xlink:title=" ">
<path fill="none" stroke="#63b8ff" d="M993.67,-52.92C858.9,-31.62 709.57,-16.92 652.64,-11.63"/>
<polygon fill="#63b8ff" stroke="#63b8ff" points="993.33,-56.41 1003.76,-54.53 994.44,-49.5 993.33,-56.41"/>
</a>
</g>
</g>
<!-- Node18&#45;&gt;Node3 -->
<g id="edge33_Node000018_Node000003" class="edge">
<title>Node18&#45;&gt;Node3</title>
<g id="a_edge33_Node000018_Node000003"><a xlink:title=" ">
<path fill="none" stroke="#63b8ff" d="M1067.49,-52.93C903.3,-28.69 717.96,-15.29 652.95,-11.01"/>
<polygon fill="#63b8ff" stroke="#63b8ff" points="1067.36,-56.45 1077.77,-54.47 1068.4,-49.53 1067.36,-56.45"/>
</a>
</g>
</g>
<!-- Node19&#45;&gt;Node3 -->
<g id="edge35_Node000019_Node000003" class="edge">
<title>Node19&#45;&gt;Node3</title>
<g id="a_edge35_Node000019_Node000003"><a xlink:title=" ">
<path fill="none" stroke="#63b8ff" d="M1142.07,-53.1C947.5,-24.11 724.73,-13.31 652.7,-10.39"/>
<polygon fill="#63b8ff" stroke="#63b8ff" points="1141.78,-56.6 1152.19,-54.63 1142.82,-49.67 1141.78,-56.6"/>
</a>
</g>
</g>
<!-- Node20&#45;&gt;Node3 -->
<g id="edge37_Node000020_Node000003" class="edge">
<title>Node20&#45;&gt;Node3</title>
<g id="a_edge37_Node000020_Node000003"><a xlink:title=" ">
<path fill="none" stroke="#63b8ff" d="M1209.61,-53.09C988.23,-18.16 731.02,-11.21 652.73,-9.83"/>
<polygon fill="#63b8ff" stroke="#63b8ff" points="1209.36,-56.6 1219.79,-54.72 1210.47,-49.68 1209.36,-56.6"/>
</a>
</g>
</g>
</g>
</svg>
