<?xml version="1.0" encoding="UTF-8" standalone="no"?>
<!DOCTYPE svg PUBLIC "-//W3C//DTD SVG 1.1//EN"
 "http://www.w3.org/Graphics/SVG/1.1/DTD/svg11.dtd">
<!-- Generated by graphviz version 2.43.0 (0)
 -->
<!-- Title: solver.hpp Pages: 1 -->
<svg width="1284pt" height="131pt"
 viewBox="0.00 0.00 1284.00 131.00" xmlns="http://www.w3.org/2000/svg" xmlns:xlink="http://www.w3.org/1999/xlink">
<g id="graph0" class="graph" transform="scale(1 1) rotate(0) translate(4 127)">
<title>solver.hpp</title>
<!-- Node1 -->
<g id="Node000001" class="node">
<title>Node1</title>
<g id="a_Node000001"><a xlink:title=" ">
<polygon fill="#999999" stroke="#666666" points="669.5,-123 616.5,-123 616.5,-106 669.5,-106 669.5,-123"/>
<text text-anchor="middle" x="643" y="-112.6" font-family="Helvetica,sans-Serif" font-size="8.00">solver.hpp</text>
</a>
</g>
</g>
<!-- Node2 -->
<g id="Node000002" class="node">
<title>Node2</title>
<g id="a_Node000002"><a xlink:href="../../dc/da9/astar_8hpp.html" target="_top" xlink:title=" ">
<polygon fill="white" stroke="#666666" points="50,-70 0,-70 0,-53 50,-53 50,-70"/>
<text text-anchor="middle" x="25" y="-59.6" font-family="Helvetica,sans-Serif" font-size="8.00">astar.hpp</text>
</a>
</g>
</g>
<!-- Node1&#45;&gt;Node2 -->
<g id="edge1_Node000001_Node000002" class="edge">
<title>Node1&#45;&gt;Node2</title>
<g id="a_edge1_Node000001_Node000002"><a xlink:title=" ">
<path fill="none" stroke="#63b8ff" d="M606.17,-112.2C514.3,-108.65 267.76,-97.16 64,-70 59.49,-69.4 54.71,-68.61 50.11,-67.77"/>
<polygon fill="#63b8ff" stroke="#63b8ff" points="606.21,-115.71 616.34,-112.59 606.48,-108.71 606.21,-115.71"/>
</a>
</g>
</g>
<!-- Node3 -->
<g id="Node000003" class="node">
<title>Node3</title>
<g id="a_Node000003"><a xlink:href="../../d9/d96/chdr_8hpp_source.html" target="_top" xlink:title=" ">
<polygon fill="white" stroke="#666666" points="666.5,-17 619.5,-17 619.5,0 666.5,0 666.5,-17"/>
<text text-anchor="middle" x="643" y="-6.6" font-family="Helvetica,sans-Serif" font-size="8.00">chdr.hpp</text>
</a>
</g>
</g>
<!-- Node1&#45;&gt;Node3 -->
<g id="edge7_Node000001_Node000003" class="edge">
<title>Node1&#45;&gt;Node3</title>
<g id="a_edge7_Node000001_Node000003"><a xlink:title=" ">
<path fill="none" stroke="#63b8ff" d="M606.23,-113.39C489.28,-112.65 131.49,-107.34 97,-70 91.87,-64.45 91.87,-58.55 97,-53 132.89,-14.14 518.84,-9.97 619.24,-9.54"/>
<polygon fill="#63b8ff" stroke="#63b8ff" points="606.45,-116.89 616.47,-113.44 606.48,-109.89 606.45,-116.89"/>
</a>
</g>
</g>
<!-- Node4 -->
<g id="Node000004" class="node">
<title>Node4</title>
<g id="a_Node000004"><a xlink:href="../../d3/d77/best__first_8hpp_source.html" target="_top" xlink:title=" ">
<polygon fill="white" stroke="#666666" points="171.5,-70 106.5,-70 106.5,-53 171.5,-53 171.5,-70"/>
<text text-anchor="middle" x="139" y="-59.6" font-family="Helvetica,sans-Serif" font-size="8.00">best_first.hpp</text>
</a>
</g>
</g>
<!-- Node1&#45;&gt;Node4 -->
<g id="edge3_Node000001_Node000004" class="edge">
<title>Node1&#45;&gt;Node4</title>
<g id="a_edge3_Node000001_Node000004"><a xlink:title=" ">
<path fill="none" stroke="#63b8ff" d="M605.93,-111.12C527.23,-105.83 337.73,-91.79 180,-70 177.28,-69.62 174.46,-69.19 171.63,-68.73"/>
<polygon fill="#63b8ff" stroke="#63b8ff" points="606.08,-114.64 616.29,-111.81 606.54,-107.65 606.08,-114.64"/>
</a>
</g>
</g>
<!-- Node5 -->
<g id="Node000005" class="node">
<title>Node5</title>
<g id="a_Node000005"><a xlink:href="../../da/d36/bfs_8hpp_source.html" target="_top" xlink:title=" ">
<polygon fill="white" stroke="#666666" points="232.5,-70 189.5,-70 189.5,-53 232.5,-53 232.5,-70"/>
<text text-anchor="middle" x="211" y="-59.6" font-family="Helvetica,sans-Serif" font-size="8.00">bfs.hpp</text>
</a>
</g>
</g>
<!-- Node1&#45;&gt;Node5 -->
<g id="edge5_Node000001_Node000005" class="edge">
<title>Node1&#45;&gt;Node5</title>
<g id="a_edge5_Node000001_Node000005"><a xlink:title=" ">
<path fill="none" stroke="#63b8ff" d="M606.28,-111.22C535.28,-106.44 374.44,-93.78 241,-70 238.25,-69.51 235.38,-68.91 232.55,-68.26"/>
<polygon fill="#63b8ff" stroke="#63b8ff" points="606.27,-114.73 616.48,-111.89 606.74,-107.74 606.27,-114.73"/>
</a>
</g>
</g>
<!-- Node6 -->
<g id="Node000006" class="node">
<title>Node6</title>
<g id="a_Node000006"><a xlink:href="../../d3/dec/dfs_8hpp_source.html" target="_top" xlink:title=" ">
<polygon fill="white" stroke="#666666" points="293.5,-70 250.5,-70 250.5,-53 293.5,-53 293.5,-70"/>
<text text-anchor="middle" x="272" y="-59.6" font-family="Helvetica,sans-Serif" font-size="8.00">dfs.hpp</text>
</a>
</g>
</g>
<!-- Node1&#45;&gt;Node6 -->
<g id="edge8_Node000001_Node000006" class="edge">
<title>Node1&#45;&gt;Node6</title>
<g id="a_edge8_Node000001_Node000006"><a xlink:title=" ">
<path fill="none" stroke="#63b8ff" d="M606.11,-110.24C543.32,-104.36 411.78,-90.65 302,-70 299.26,-69.48 296.39,-68.87 293.56,-68.21"/>
<polygon fill="#63b8ff" stroke="#63b8ff" points="606.02,-113.74 616.3,-111.18 606.67,-106.77 606.02,-113.74"/>
</a>
</g>
</g>
<!-- Node7 -->
<g id="Node000007" class="node">
<title>Node7</title>
<g id="a_Node000007"><a xlink:href="../../d3/d11/dijkstra_8hpp_source.html" target="_top" xlink:title=" ">
<polygon fill="white" stroke="#666666" points="368.5,-70 311.5,-70 311.5,-53 368.5,-53 368.5,-70"/>
<text text-anchor="middle" x="340" y="-59.6" font-family="Helvetica,sans-Serif" font-size="8.00">dijkstra.hpp</text>
</a>
</g>
</g>
<!-- Node1&#45;&gt;Node7 -->
<g id="edge10_Node000001_Node000007" class="edge">
<title>Node1&#45;&gt;Node7</title>
<g id="a_edge10_Node000001_Node000007"><a xlink:title=" ">
<path fill="none" stroke="#63b8ff" d="M606.32,-107.86C555.11,-99.9 459.34,-84.7 378,-70 374.96,-69.45 371.78,-68.86 368.62,-68.25"/>
<polygon fill="#63b8ff" stroke="#63b8ff" points="605.83,-111.33 616.24,-109.4 606.9,-104.41 605.83,-111.33"/>
</a>
</g>
</g>
<!-- Node8 -->
<g id="Node000008" class="node">
<title>Node8</title>
<g id="a_Node000008"><a xlink:href="../../d6/ded/eidastar_8hpp_source.html" target="_top" xlink:title=" ">
<polygon fill="white" stroke="#666666" points="447,-70 387,-70 387,-53 447,-53 447,-70"/>
<text text-anchor="middle" x="417" y="-59.6" font-family="Helvetica,sans-Serif" font-size="8.00">eidastar.hpp</text>
</a>
</g>
</g>
<!-- Node1&#45;&gt;Node8 -->
<g id="edge12_Node000001_Node000008" class="edge">
<title>Node1&#45;&gt;Node8</title>
<g id="a_edge12_Node000001_Node000008"><a xlink:title=" ">
<path fill="none" stroke="#63b8ff" d="M606.39,-105.24C562.04,-95.23 488.16,-78.56 447.01,-69.27"/>
<polygon fill="#63b8ff" stroke="#63b8ff" points="605.66,-108.66 616.19,-107.45 607.2,-101.83 605.66,-108.66"/>
</a>
</g>
</g>
<!-- Node9 -->
<g id="Node000009" class="node">
<title>Node9</title>
<g id="a_Node000009"><a xlink:href="../../dd/d67/eidbstar_8hpp_source.html" target="_top" xlink:title=" ">
<polygon fill="white" stroke="#666666" points="525,-70 465,-70 465,-53 525,-53 525,-70"/>
<text text-anchor="middle" x="495" y="-59.6" font-family="Helvetica,sans-Serif" font-size="8.00">eidbstar.hpp</text>
</a>
</g>
</g>
<!-- Node1&#45;&gt;Node9 -->
<g id="edge14_Node000001_Node000009" class="edge">
<title>Node1&#45;&gt;Node9</title>
<g id="a_edge14_Node000001_Node000009"><a xlink:title=" ">
<path fill="none" stroke="#63b8ff" d="M611.68,-102.71C583.23,-92.9 542,-78.69 516.93,-70.06"/>
<polygon fill="#63b8ff" stroke="#63b8ff" points="610.57,-106.03 621.16,-105.97 612.85,-99.41 610.57,-106.03"/>
</a>
</g>
</g>
<!-- Node10 -->
<g id="Node000010" class="node">
<title>Node10</title>
<g id="a_Node000010"><a xlink:href="../../dd/d95/eiddfs_8hpp_source.html" target="_top" xlink:title=" ">
<polygon fill="white" stroke="#666666" points="596.5,-70 543.5,-70 543.5,-53 596.5,-53 596.5,-70"/>
<text text-anchor="middle" x="570" y="-59.6" font-family="Helvetica,sans-Serif" font-size="8.00">eiddfs.hpp</text>
</a>
</g>
</g>
<!-- Node1&#45;&gt;Node10 -->
<g id="edge16_Node000001_Node000010" class="edge">
<title>Node1&#45;&gt;Node10</title>
<g id="a_edge16_Node000001_Node000010"><a xlink:title=" ">
<path fill="none" stroke="#63b8ff" d="M623.94,-100.18C610.2,-90.58 592.15,-77.98 580.82,-70.06"/>
<polygon fill="#63b8ff" stroke="#63b8ff" points="622.03,-103.12 632.23,-105.97 626.04,-97.38 622.03,-103.12"/>
</a>
</g>
</g>
<!-- Node11 -->
<g id="Node000011" class="node">
<title>Node11</title>
<g id="a_Node000011"><a xlink:href="../../da/dc2/floodfill_8hpp_source.html" target="_top" xlink:title=" ">
<polygon fill="white" stroke="#666666" points="671,-70 615,-70 615,-53 671,-53 671,-70"/>
<text text-anchor="middle" x="643" y="-59.6" font-family="Helvetica,sans-Serif" font-size="8.00">floodfill.hpp</text>
</a>
</g>
</g>
<!-- Node1&#45;&gt;Node11 -->
<g id="edge18_Node000001_Node000011" class="edge">
<title>Node1&#45;&gt;Node11</title>
<g id="a_edge18_Node000001_Node000011"><a xlink:title=" ">
<path fill="none" stroke="#63b8ff" d="M643,-95.91C643,-87.08 643,-76.85 643,-70.06"/>
<polygon fill="#63b8ff" stroke="#63b8ff" points="639.5,-95.97 643,-105.97 646.5,-95.97 639.5,-95.97"/>
</a>
</g>
</g>
<!-- Node12 -->
<g id="Node000012" class="node">
<title>Node12</title>
<g id="a_Node000012"><a xlink:href="../../d1/d5a/fstar_8hpp_source.html" target="_top" xlink:title=" ">
<polygon fill="white" stroke="#666666" points="736.5,-70 689.5,-70 689.5,-53 736.5,-53 736.5,-70"/>
<text text-anchor="middle" x="713" y="-59.6" font-family="Helvetica,sans-Serif" font-size="8.00">fstar.hpp</text>
</a>
</g>
</g>
<!-- Node1&#45;&gt;Node12 -->
<g id="edge20_Node000001_Node000012" class="edge">
<title>Node1&#45;&gt;Node12</title>
<g id="a_edge20_Node000001_Node000012"><a xlink:title=" ">
<path fill="none" stroke="#63b8ff" d="M661.66,-99.91C674.78,-90.34 691.86,-77.9 702.63,-70.06"/>
<polygon fill="#63b8ff" stroke="#63b8ff" points="659.35,-97.26 653.33,-105.97 663.47,-102.91 659.35,-97.26"/>
</a>
</g>
</g>
<!-- Node13 -->
<g id="Node000013" class="node">
<title>Node13</title>
<g id="a_Node000013"><a xlink:href="../../de/d94/gbfs_8hpp_source.html" target="_top" xlink:title=" ">
<polygon fill="white" stroke="#666666" points="801.5,-70 754.5,-70 754.5,-53 801.5,-53 801.5,-70"/>
<text text-anchor="middle" x="778" y="-59.6" font-family="Helvetica,sans-Serif" font-size="8.00">gbfs.hpp</text>
</a>
</g>
</g>
<!-- Node1&#45;&gt;Node13 -->
<g id="edge22_Node000001_Node000013" class="edge">
<title>Node1&#45;&gt;Node13</title>
<g id="a_edge22_Node000001_Node000013"><a xlink:title=" ">
<path fill="none" stroke="#63b8ff" d="M672.59,-102.32C698.5,-92.53 735.43,-78.58 758,-70.06"/>
<polygon fill="#63b8ff" stroke="#63b8ff" points="671.04,-99.17 662.92,-105.97 673.51,-105.71 671.04,-99.17"/>
</a>
</g>
</g>
<!-- Node14 -->
<g id="Node000014" class="node">
<title>Node14</title>
<g id="a_Node000014"><a xlink:href="../../d4/df2/gdfs_8hpp_source.html" target="_top" xlink:title=" ">
<polygon fill="white" stroke="#666666" points="866.5,-70 819.5,-70 819.5,-53 866.5,-53 866.5,-70"/>
<text text-anchor="middle" x="843" y="-59.6" font-family="Helvetica,sans-Serif" font-size="8.00">gdfs.hpp</text>
</a>
</g>
</g>
<!-- Node1&#45;&gt;Node14 -->
<g id="edge24_Node000001_Node000014" class="edge">
<title>Node1&#45;&gt;Node14</title>
<g id="a_edge24_Node000001_Node000014"><a xlink:title=" ">
<path fill="none" stroke="#63b8ff" d="M679.36,-104.23C720.07,-93.85 784.87,-77.32 819.45,-68.51"/>
<polygon fill="#63b8ff" stroke="#63b8ff" points="678.38,-100.87 669.56,-106.73 680.11,-107.65 678.38,-100.87"/>
</a>
</g>
</g>
<!-- Node15 -->
<g id="Node000015" class="node">
<title>Node15</title>
<g id="a_Node000015"><a xlink:href="../../d3/d3e/gjps_8hpp_source.html" target="_top" xlink:title=" ">
<polygon fill="white" stroke="#666666" points="931.5,-70 884.5,-70 884.5,-53 931.5,-53 931.5,-70"/>
<text text-anchor="middle" x="908" y="-59.6" font-family="Helvetica,sans-Serif" font-size="8.00">gjps.hpp</text>
</a>
</g>
</g>
<!-- Node1&#45;&gt;Node15 -->
<g id="edge26_Node000001_Node000015" class="edge">
<title>Node1&#45;&gt;Node15</title>
<g id="a_edge26_Node000001_Node000015"><a xlink:title=" ">
<path fill="none" stroke="#63b8ff" d="M679.72,-107.18C725.72,-99.14 806.89,-84.54 876,-70 878.68,-69.44 881.48,-68.82 884.26,-68.19"/>
<polygon fill="#63b8ff" stroke="#63b8ff" points="678.89,-103.77 669.63,-108.94 680.09,-110.67 678.89,-103.77"/>
</a>
</g>
</g>
<!-- Node16 -->
<g id="Node000016" class="node">
<title>Node16</title>
<g id="a_Node000016"><a xlink:href="../../d1/def/gstar_8hpp_source.html" target="_top" xlink:title=" ">
<polygon fill="white" stroke="#666666" points="1000,-70 950,-70 950,-53 1000,-53 1000,-70"/>
<text text-anchor="middle" x="975" y="-59.6" font-family="Helvetica,sans-Serif" font-size="8.00">gstar.hpp</text>
</a>
</g>
</g>
<!-- Node1&#45;&gt;Node16 -->
<g id="edge28_Node000001_Node000016" class="edge">
<title>Node1&#45;&gt;Node16</title>
<g id="a_edge28_Node000001_Node000016"><a xlink:title=" ">
<path fill="none" stroke="#63b8ff" d="M680.04,-108.97C736.53,-101.86 847.51,-87.11 941,-70 943.85,-69.48 946.83,-68.89 949.79,-68.27"/>
<polygon fill="#63b8ff" stroke="#63b8ff" points="679.31,-105.53 669.82,-110.24 680.18,-112.48 679.31,-105.53"/>
</a>
</g>
</g>
<!-- Node17 -->
<g id="Node000017" class="node">
<title>Node17</title>
<g id="a_Node000017"><a xlink:href="../../db/df9/idastar_8hpp_source.html" target="_top" xlink:title=" ">
<polygon fill="white" stroke="#666666" points="1074,-70 1018,-70 1018,-53 1074,-53 1074,-70"/>
<text text-anchor="middle" x="1046" y="-59.6" font-family="Helvetica,sans-Serif" font-size="8.00">idastar.hpp</text>
</a>
</g>
</g>
<!-- Node1&#45;&gt;Node17 -->
<g id="edge30_Node000001_Node000017" class="edge">
<title>Node1&#45;&gt;Node17</title>
<g id="a_edge30_Node000001_Node000017"><a xlink:title=" ">
<path fill="none" stroke="#63b8ff" d="M680.07,-110.1C746.32,-103.81 889.3,-89.21 1009,-70 1011.85,-69.54 1014.81,-69.02 1017.76,-68.47"/>
<polygon fill="#63b8ff" stroke="#63b8ff" points="679.37,-106.66 669.74,-111.08 680.02,-113.62 679.37,-106.66"/>
</a>
</g>
</g>
<!-- Node18 -->
<g id="Node000018" class="node">
<title>Node18</title>
<g id="a_Node000018"><a xlink:href="../../d1/d24/idbstar_8hpp_source.html" target="_top" xlink:title=" ">
<polygon fill="white" stroke="#666666" points="1148,-70 1092,-70 1092,-53 1148,-53 1148,-70"/>
<text text-anchor="middle" x="1120" y="-59.6" font-family="Helvetica,sans-Serif" font-size="8.00">idbstar.hpp</text>
</a>
</g>
</g>
<!-- Node1&#45;&gt;Node18 -->
<g id="edge32_Node000001_Node000018" class="edge">
<title>Node1&#45;&gt;Node18</title>
<g id="a_edge32_Node000001_Node000018"><a xlink:title=" ">
<path fill="none" stroke="#63b8ff" d="M680.09,-111.11C756.02,-105.94 934.5,-92.33 1083,-70 1085.85,-69.57 1088.82,-69.07 1091.77,-68.53"/>
<polygon fill="#63b8ff" stroke="#63b8ff" points="679.39,-107.65 669.65,-111.81 679.86,-114.63 679.39,-107.65"/>
</a>
</g>
</g>
<!-- Node19 -->
<g id="Node000019" class="node">
<title>Node19</title>
<g id="a_Node000019"><a xlink:href="../../df/d71/iddfs_8hpp_source.html" target="_top" xlink:title=" ">
<polygon fill="white" stroke="#666666" points="1215.5,-70 1166.5,-70 1166.5,-53 1215.5,-53 1215.5,-70"/>
<text text-anchor="middle" x="1191" y="-59.6" font-family="Helvetica,sans-Serif" font-size="8.00">iddfs.hpp</text>
</a>
</g>
</g>
<!-- Node1&#45;&gt;Node19 -->
<g id="edge34_Node000001_Node000019" class="edge">
<title>Node1&#45;&gt;Node19</title>
<g id="a_edge34_Node000001_Node000019"><a xlink:title=" ">
<path fill="none" stroke="#63b8ff" d="M679.76,-112.06C764.38,-108.4 979.33,-96.99 1157,-70 1159.99,-69.55 1163.11,-68.98 1166.19,-68.37"/>
<polygon fill="#63b8ff" stroke="#63b8ff" points="679.47,-108.57 669.63,-112.49 679.77,-115.57 679.47,-108.57"/>
</a>
</g>
</g>
<!-- Node20 -->
<g id="Node000020" class="node">
<title>Node20</title>
<g id="a_Node000020"><a xlink:href="../../d9/de6/jps_8hpp_source.html" target="_top" xlink:title=" ">
<polygon fill="white" stroke="#666666" points="1276,-70 1234,-70 1234,-53 1276,-53 1276,-70"/>
<text text-anchor="middle" x="1255" y="-59.6" font-family="Helvetica,sans-Serif" font-size="8.00">jps.hpp</text>
</a>
</g>
</g>
<!-- Node1&#45;&gt;Node20 -->
<g id="edge36_Node000001_Node000020" class="edge">
<title>Node1&#45;&gt;Node20</title>
<g id="a_edge36_Node000001_Node000020"><a xlink:title=" ">
<path fill="none" stroke="#63b8ff" d="M679.8,-112.92C772.12,-111 1020.77,-102.92 1225,-70 1227.86,-69.54 1230.85,-68.94 1233.79,-68.28"/>
<polygon fill="#63b8ff" stroke="#63b8ff" points="679.51,-109.43 669.58,-113.12 679.65,-116.42 679.51,-109.43"/>
</a>
</g>
</g>
<!-- Node2&#45;&gt;Node3 -->
<g id="edge2_Node000002_Node000003" class="edge">
<title>Node2&#45;&gt;Node3</title>
<g id="a_edge2_Node000002_Node000003"><a xlink:title=" ">
<path fill="none" stroke="#63b8ff" d="M60.14,-53.55C61.44,-53.35 62.73,-53.17 64,-53 278.58,-24.4 540.59,-13.17 619.46,-10.3"/>
<polygon fill="#63b8ff" stroke="#63b8ff" points="59.39,-50.13 50.11,-55.23 60.55,-57.03 59.39,-50.13"/>
</a>
</g>
</g>
<!-- Node4&#45;&gt;Node3 -->
<g id="edge4_Node000004_Node000003" class="edge">
<title>Node4&#45;&gt;Node3</title>
<g id="a_edge4_Node000004_Node000003"><a xlink:title=" ">
<path fill="none" stroke="#63b8ff" d="M181.71,-52.88C355.25,-29.3 552.25,-15.37 619.31,-10.99"/>
<polygon fill="#63b8ff" stroke="#63b8ff" points="181.06,-49.44 171.63,-54.27 182.02,-56.37 181.06,-49.44"/>
</a>
</g>
</g>
<!-- Node5&#45;&gt;Node3 -->
<g id="edge6_Node000005_Node000003" class="edge">
<title>Node5&#45;&gt;Node3</title>
<g id="a_edge6_Node000005_Node000003"><a xlink:title=" ">
<path fill="none" stroke="#63b8ff" d="M242.75,-52.93C391.11,-27.06 558.32,-14.83 619.28,-10.93"/>
<polygon fill="#63b8ff" stroke="#63b8ff" points="241.79,-49.55 232.55,-54.74 243.01,-56.44 241.79,-49.55"/>
</a>
</g>
</g>
<!-- Node6&#45;&gt;Node3 -->
<g id="edge9_Node000006_Node000003" class="edge">
<title>Node6&#45;&gt;Node3</title>
<g id="a_edge9_Node000006_Node000003"><a xlink:title=" ">
<path fill="none" stroke="#63b8ff" d="M303.61,-52.91C427.69,-30.03 565.05,-16.45 619.28,-11.55"/>
<polygon fill="#63b8ff" stroke="#63b8ff" points="302.75,-49.51 293.56,-54.79 304.04,-56.39 302.75,-49.51"/>
</a>
</g>
</g>
<!-- Node7&#45;&gt;Node3 -->
<g id="edge11_Node000007_Node000003" class="edge">
<title>Node7&#45;&gt;Node3</title>
<g id="a_edge11_Node000007_Node000003"><a xlink:title=" ">
<path fill="none" stroke="#63b8ff" d="M378.71,-52.93C473.95,-35.83 574.34,-20.07 619.2,-13.14"/>
<polygon fill="#63b8ff" stroke="#63b8ff" points="377.84,-49.53 368.62,-54.75 379.08,-56.42 377.84,-49.53"/>
</a>
</g>
</g>
<!-- Node8&#45;&gt;Node3 -->
<g id="edge13_Node000008_Node000003" class="edge">
<title>Node8&#45;&gt;Node3</title>
<g id="a_edge13_Node000008_Node000003"><a xlink:title=" ">
<path fill="none" stroke="#63b8ff" d="M456.88,-51.5C504,-40.87 580.87,-23.52 619.41,-14.82"/>
<polygon fill="#63b8ff" stroke="#63b8ff" points="456,-48.11 447.01,-53.73 457.54,-54.94 456,-48.11"/>
</a>
</g>
</g>
<!-- Node9&#45;&gt;Node3 -->
<g id="edge15_Node000009_Node000003" class="edge">
<title>Node9&#45;&gt;Node3</title>
<g id="a_edge15_Node000009_Node000003"><a xlink:title=" ">
<path fill="none" stroke="#63b8ff" d="M526.32,-49.71C554.77,-39.9 596,-25.69 621.07,-17.06"/>
<polygon fill="#63b8ff" stroke="#63b8ff" points="525.15,-46.41 516.84,-52.97 527.43,-53.03 525.15,-46.41"/>
</a>
</g>
</g>
<!-- Node10&#45;&gt;Node3 -->
<g id="edge17_Node000010_Node000003" class="edge">
<title>Node10&#45;&gt;Node3</title>
<g id="a_edge17_Node000010_Node000003"><a xlink:title=" ">
<path fill="none" stroke="#63b8ff" d="M589.06,-47.18C602.8,-37.58 620.85,-24.98 632.18,-17.06"/>
<polygon fill="#63b8ff" stroke="#63b8ff" points="586.96,-44.38 580.77,-52.97 590.97,-50.12 586.96,-44.38"/>
</a>
</g>
</g>
<!-- Node11&#45;&gt;Node3 -->
<g id="edge19_Node000011_Node000003" class="edge">
<title>Node11&#45;&gt;Node3</title>
<g id="a_edge19_Node000011_Node000003"><a xlink:title=" ">
<path fill="none" stroke="#63b8ff" d="M643,-42.91C643,-34.08 643,-23.85 643,-17.06"/>
<polygon fill="#63b8ff" stroke="#63b8ff" points="639.5,-42.97 643,-52.97 646.5,-42.97 639.5,-42.97"/>
</a>
</g>
</g>
<!-- Node12&#45;&gt;Node3 -->
<g id="edge21_Node000012_Node000003" class="edge">
<title>Node12&#45;&gt;Node3</title>
<g id="a_edge21_Node000012_Node000003"><a xlink:title=" ">
<path fill="none" stroke="#63b8ff" d="M694.34,-46.91C681.22,-37.34 664.14,-24.9 653.37,-17.06"/>
<polygon fill="#63b8ff" stroke="#63b8ff" points="692.53,-49.91 702.67,-52.97 696.65,-44.26 692.53,-49.91"/>
</a>
</g>
</g>
<!-- Node13&#45;&gt;Node3 -->
<g id="edge23_Node000013_Node000003" class="edge">
<title>Node13&#45;&gt;Node3</title>
<g id="a_edge23_Node000013_Node000003"><a xlink:title=" ">
<path fill="none" stroke="#63b8ff" d="M748.41,-49.32C722.5,-39.53 685.57,-25.58 663,-17.06"/>
<polygon fill="#63b8ff" stroke="#63b8ff" points="747.49,-52.71 758.08,-52.97 749.96,-46.17 747.49,-52.71"/>
</a>
</g>
</g>
<!-- Node14&#45;&gt;Node3 -->
<g id="edge25_Node000014_Node000003" class="edge">
<title>Node14&#45;&gt;Node3</title>
<g id="a_edge25_Node000014_Node000003"><a xlink:title=" ">
<path fill="none" stroke="#63b8ff" d="M809.35,-51.92C768.91,-41.61 702.09,-24.57 666.7,-15.54"/>
<polygon fill="#63b8ff" stroke="#63b8ff" points="808.72,-55.37 819.27,-54.45 810.45,-48.59 808.72,-55.37"/>
</a>
</g>
</g>
<!-- Node15&#45;&gt;Node3 -->
<g id="edge27_Node000015_Node000003" class="edge">
<title>Node15&#45;&gt;Node3</title>
<g id="a_edge27_Node000015_Node000003"><a xlink:title=" ">
<path fill="none" stroke="#63b8ff" d="M874.32,-52.72C792.66,-35.7 707.04,-20.54 666.55,-13.53"/>
<polygon fill="#63b8ff" stroke="#63b8ff" points="873.76,-56.18 884.26,-54.81 875.19,-49.33 873.76,-56.18"/>
</a>
</g>
</g>
<!-- Node16&#45;&gt;Node3 -->
<g id="edge29_Node000016_Node000003" class="edge">
<title>Node16&#45;&gt;Node3</title>
<g id="a_edge29_Node000016_Node000003"><a xlink:title=" ">
<path fill="none" stroke="#63b8ff" d="M939.74,-52.89C832.09,-33.46 715.68,-18.42 666.66,-12.36"/>
<polygon fill="#63b8ff" stroke="#63b8ff" points="939.32,-56.38 949.79,-54.73 940.58,-49.49 939.32,-56.38"/>
</a>
</g>
</g>
<!-- Node17&#45;&gt;Node3 -->
<g id="edge31_Node000017_Node000003" class="edge">
<title>Node17&#45;&gt;Node3</title>
<g id="a_edge31_Node000017_Node000003"><a xlink:title=" ">
<path fill="none" stroke="#63b8ff" d="M1007.67,-52.92C872.9,-31.62 723.57,-16.92 666.64,-11.63"/>
<polygon fill="#63b8ff" stroke="#63b8ff" points="1007.33,-56.41 1017.76,-54.53 1008.44,-49.5 1007.33,-56.41"/>
</a>
</g>
</g>
<!-- Node18&#45;&gt;Node3 -->
<g id="edge33_Node000018_Node000003" class="edge">
<title>Node18&#45;&gt;Node3</title>
<g id="a_edge33_Node000018_Node000003"><a xlink:title=" ">
<path fill="none" stroke="#63b8ff" d="M1081.49,-52.93C917.3,-28.69 731.96,-15.29 666.95,-11.01"/>
<polygon fill="#63b8ff" stroke="#63b8ff" points="1081.36,-56.45 1091.77,-54.47 1082.4,-49.53 1081.36,-56.45"/>
</a>
</g>
</g>
<!-- Node19&#45;&gt;Node3 -->
<g id="edge35_Node000019_Node000003" class="edge">
<title>Node19&#45;&gt;Node3</title>
<g id="a_edge35_Node000019_Node000003"><a xlink:title=" ">
<path fill="none" stroke="#63b8ff" d="M1156.07,-53.1C961.5,-24.11 738.73,-13.31 666.7,-10.39"/>
<polygon fill="#63b8ff" stroke="#63b8ff" points="1155.78,-56.6 1166.19,-54.63 1156.82,-49.67 1155.78,-56.6"/>
</a>
</g>
</g>
<!-- Node20&#45;&gt;Node3 -->
<g id="edge37_Node000020_Node000003" class="edge">
<title>Node20&#45;&gt;Node3</title>
<g id="a_edge37_Node000020_Node000003"><a xlink:title=" ">
<path fill="none" stroke="#63b8ff" d="M1223.61,-53.09C1002.23,-18.16 745.02,-11.21 666.73,-9.83"/>
<polygon fill="#63b8ff" stroke="#63b8ff" points="1223.36,-56.6 1233.79,-54.72 1224.47,-49.68 1223.36,-56.6"/>
</a>
</g>
</g>
</g>
</svg>
