<?xml version="1.0" encoding="UTF-8" standalone="no"?>
<!DOCTYPE svg PUBLIC "-//W3C//DTD SVG 1.1//EN"
 "http://www.w3.org/Graphics/SVG/1.1/DTD/svg11.dtd">
<!-- Generated by graphviz version 2.43.0 (0)
 -->
<!-- Title: solver.hpp Pages: 1 -->
<svg width="1779pt" height="131pt"
 viewBox="0.00 0.00 1779.00 131.00" xmlns="http://www.w3.org/2000/svg" xmlns:xlink="http://www.w3.org/1999/xlink">
<g id="graph0" class="graph" transform="scale(1 1) rotate(0) translate(4 127)">
<title>solver.hpp</title>
<!-- Node1 -->
<g id="Node000001" class="node">
<title>Node1</title>
<g id="a_Node000001"><a xlink:title=" ">
<polygon fill="#999999" stroke="#666666" points="903,-123 844,-123 844,-106 903,-106 903,-123"/>
<text text-anchor="middle" x="873.5" y="-112.6" font-family="Helvetica,sans-Serif" font-size="8.00">solver.hpp</text>
</a>
</g>
</g>
<!-- Node2 -->
<g id="Node000002" class="node">
<title>Node2</title>
<g id="a_Node000002"><a xlink:href="../../dc/da9/astar_8hpp.html" target="_top" xlink:title=" ">
<polygon fill="white" stroke="#666666" points="55,-70 0,-70 0,-53 55,-53 55,-70"/>
<text text-anchor="middle" x="27.5" y="-59.6" font-family="Helvetica,sans-Serif" font-size="8.00">astar.hpp</text>
</a>
</g>
</g>
<!-- Node1&#45;&gt;Node2 -->
<g id="edge1_Node000001_Node000002" class="edge">
<title>Node1&#45;&gt;Node2</title>
<g id="a_edge1_Node000001_Node000002"><a xlink:title=" ">
<path fill="none" stroke="#63b8ff" d="M833.51,-113.07C715.95,-111.43 361.36,-103.83 69.5,-70 64.94,-69.47 60.12,-68.76 55.44,-67.98"/>
<polygon fill="#63b8ff" stroke="#63b8ff" points="833.78,-116.57 843.82,-113.21 833.87,-109.57 833.78,-116.57"/>
</a>
</g>
</g>
<!-- Node3 -->
<g id="Node000003" class="node">
<title>Node3</title>
<g id="a_Node000003"><a xlink:href="../../d9/d96/chdr_8hpp.html" target="_top" xlink:title=" ">
<polygon fill="white" stroke="#666666" points="899.5,-17 847.5,-17 847.5,0 899.5,0 899.5,-17"/>
<text text-anchor="middle" x="873.5" y="-6.6" font-family="Helvetica,sans-Serif" font-size="8.00">chdr.hpp</text>
</a>
</g>
</g>
<!-- Node1&#45;&gt;Node3 -->
<g id="edge7_Node000001_Node000003" class="edge">
<title>Node1&#45;&gt;Node3</title>
<g id="a_edge7_Node000001_Node000003"><a xlink:title=" ">
<path fill="none" stroke="#63b8ff" d="M833.49,-112.75C678.88,-109.66 127.82,-96.79 102.5,-70 97.31,-64.51 97.31,-58.49 102.5,-53 128.63,-25.35 714.63,-12.53 847.07,-9.98"/>
<polygon fill="#63b8ff" stroke="#63b8ff" points="833.86,-116.26 843.92,-112.96 833.99,-109.26 833.86,-116.26"/>
</a>
</g>
</g>
<!-- Node4 -->
<g id="Node000004" class="node">
<title>Node4</title>
<g id="a_Node000004"><a xlink:href="../../d3/d77/best__first_8hpp.html" target="_top" xlink:title=" ">
<polygon fill="white" stroke="#666666" points="183.5,-70 111.5,-70 111.5,-53 183.5,-53 183.5,-70"/>
<text text-anchor="middle" x="147.5" y="-59.6" font-family="Helvetica,sans-Serif" font-size="8.00">best_first.hpp</text>
</a>
</g>
</g>
<!-- Node1&#45;&gt;Node4 -->
<g id="edge3_Node000001_Node000004" class="edge">
<title>Node1&#45;&gt;Node4</title>
<g id="a_edge3_Node000001_Node000004"><a xlink:title=" ">
<path fill="none" stroke="#63b8ff" d="M833.72,-112.37C728.65,-109.07 435.15,-97.9 192.5,-70 189.67,-69.67 186.74,-69.29 183.8,-68.88"/>
<polygon fill="#63b8ff" stroke="#63b8ff" points="833.76,-115.87 843.87,-112.68 833.98,-108.87 833.76,-115.87"/>
</a>
</g>
</g>
<!-- Node5 -->
<g id="Node000005" class="node">
<title>Node5</title>
<g id="a_Node000005"><a xlink:href="../../da/d36/bfs_8hpp.html" target="_top" xlink:title=" ">
<polygon fill="white" stroke="#666666" points="249,-70 202,-70 202,-53 249,-53 249,-70"/>
<text text-anchor="middle" x="225.5" y="-59.6" font-family="Helvetica,sans-Serif" font-size="8.00">bfs.hpp</text>
</a>
</g>
</g>
<!-- Node1&#45;&gt;Node5 -->
<g id="edge5_Node000001_Node000005" class="edge">
<title>Node1&#45;&gt;Node5</title>
<g id="a_edge5_Node000001_Node000005"><a xlink:title=" ">
<path fill="none" stroke="#63b8ff" d="M833.74,-112.89C735.44,-110.9 473.3,-102.69 257.5,-70 254.79,-69.59 251.97,-69.07 249.18,-68.5"/>
<polygon fill="#63b8ff" stroke="#63b8ff" points="833.76,-116.39 843.82,-113.08 833.89,-109.39 833.76,-116.39"/>
</a>
</g>
</g>
<!-- Node6 -->
<g id="Node000006" class="node">
<title>Node6</title>
<g id="a_Node000006"><a xlink:href="../../d3/dec/dfs_8hpp.html" target="_top" xlink:title=" ">
<polygon fill="white" stroke="#666666" points="314,-70 267,-70 267,-53 314,-53 314,-70"/>
<text text-anchor="middle" x="290.5" y="-59.6" font-family="Helvetica,sans-Serif" font-size="8.00">dfs.hpp</text>
</a>
</g>
</g>
<!-- Node1&#45;&gt;Node6 -->
<g id="edge8_Node000001_Node000006" class="edge">
<title>Node1&#45;&gt;Node6</title>
<g id="a_edge8_Node000001_Node000006"><a xlink:title=" ">
<path fill="none" stroke="#63b8ff" d="M833.59,-112.42C742.5,-109.5 512.43,-99.58 322.5,-70 319.79,-69.58 316.98,-69.05 314.19,-68.47"/>
<polygon fill="#63b8ff" stroke="#63b8ff" points="833.65,-115.92 843.75,-112.73 833.86,-108.93 833.65,-115.92"/>
</a>
</g>
</g>
<!-- Node7 -->
<g id="Node000007" class="node">
<title>Node7</title>
<g id="a_Node000007"><a xlink:href="../../d3/d11/dijkstra_8hpp.html" target="_top" xlink:title=" ">
<polygon fill="white" stroke="#666666" points="397,-70 332,-70 332,-53 397,-53 397,-70"/>
<text text-anchor="middle" x="364.5" y="-59.6" font-family="Helvetica,sans-Serif" font-size="8.00">dijkstra.hpp</text>
</a>
</g>
</g>
<!-- Node1&#45;&gt;Node7 -->
<g id="edge10_Node000001_Node000007" class="edge">
<title>Node1&#45;&gt;Node7</title>
<g id="a_edge10_Node000001_Node000007"><a xlink:title=" ">
<path fill="none" stroke="#63b8ff" d="M833.68,-110.92C752.9,-105.44 564.03,-91.36 406.5,-70 403.42,-69.58 400.22,-69.1 397.02,-68.58"/>
<polygon fill="#63b8ff" stroke="#63b8ff" points="833.69,-114.43 843.9,-111.61 834.15,-107.45 833.69,-114.43"/>
</a>
</g>
</g>
<!-- Node8 -->
<g id="Node000008" class="node">
<title>Node8</title>
<g id="a_Node000008"><a xlink:href="../../d6/ded/eidastar_8hpp.html" target="_top" xlink:title=" ">
<polygon fill="white" stroke="#666666" points="483.5,-70 415.5,-70 415.5,-53 483.5,-53 483.5,-70"/>
<text text-anchor="middle" x="449.5" y="-59.6" font-family="Helvetica,sans-Serif" font-size="8.00">eidastar.hpp</text>
</a>
</g>
</g>
<!-- Node1&#45;&gt;Node8 -->
<g id="edge12_Node000001_Node000008" class="edge">
<title>Node1&#45;&gt;Node8</title>
<g id="a_edge12_Node000001_Node000008"><a xlink:title=" ">
<path fill="none" stroke="#63b8ff" d="M833.72,-109.74C764.31,-103 616.6,-87.89 492.5,-70 489.65,-69.59 486.7,-69.13 483.74,-68.66"/>
<polygon fill="#63b8ff" stroke="#63b8ff" points="833.49,-113.23 843.78,-110.71 834.16,-106.27 833.49,-113.23"/>
</a>
</g>
</g>
<!-- Node9 -->
<g id="Node000009" class="node">
<title>Node9</title>
<g id="a_Node000009"><a xlink:href="../../d8/d85/eidbest__first_8hpp.html" target="_top" xlink:title=" ">
<polygon fill="white" stroke="#666666" points="587,-70 502,-70 502,-53 587,-53 587,-70"/>
<text text-anchor="middle" x="544.5" y="-59.6" font-family="Helvetica,sans-Serif" font-size="8.00">eidbest_first.hpp</text>
</a>
</g>
</g>
<!-- Node1&#45;&gt;Node9 -->
<g id="edge14_Node000001_Node000009" class="edge">
<title>Node1&#45;&gt;Node9</title>
<g id="a_edge14_Node000001_Node000009"><a xlink:title=" ">
<path fill="none" stroke="#63b8ff" d="M833.49,-107.3C771.04,-97.62 650.94,-79 587,-69.09"/>
<polygon fill="#63b8ff" stroke="#63b8ff" points="833.31,-110.81 843.72,-108.88 834.38,-103.89 833.31,-110.81"/>
</a>
</g>
</g>
<!-- Node10 -->
<g id="Node000010" class="node">
<title>Node10</title>
<g id="a_Node000010"><a xlink:href="../../dd/d95/eiddfs_8hpp.html" target="_top" xlink:title=" ">
<polygon fill="white" stroke="#666666" points="665.5,-70 605.5,-70 605.5,-53 665.5,-53 665.5,-70"/>
<text text-anchor="middle" x="635.5" y="-59.6" font-family="Helvetica,sans-Serif" font-size="8.00">eiddfs.hpp</text>
</a>
</g>
</g>
<!-- Node1&#45;&gt;Node10 -->
<g id="edge16_Node000001_Node000010" class="edge">
<title>Node1&#45;&gt;Node10</title>
<g id="a_edge16_Node000001_Node000010"><a xlink:title=" ">
<path fill="none" stroke="#63b8ff" d="M833.93,-105.02C786.55,-94.87 708.23,-78.09 665.54,-68.94"/>
<polygon fill="#63b8ff" stroke="#63b8ff" points="833.33,-108.47 843.84,-107.14 834.79,-101.63 833.33,-108.47"/>
</a>
</g>
</g>
<!-- Node11 -->
<g id="Node000011" class="node">
<title>Node11</title>
<g id="a_Node000011"><a xlink:href="../../d8/d12/flood_8hpp.html" target="_top" xlink:title=" ">
<polygon fill="white" stroke="#666666" points="739.5,-70 683.5,-70 683.5,-53 739.5,-53 739.5,-70"/>
<text text-anchor="middle" x="711.5" y="-59.6" font-family="Helvetica,sans-Serif" font-size="8.00">flood.hpp</text>
</a>
</g>
</g>
<!-- Node1&#45;&gt;Node11 -->
<g id="edge18_Node000001_Node000011" class="edge">
<title>Node1&#45;&gt;Node11</title>
<g id="a_edge18_Node000001_Node000011"><a xlink:title=" ">
<path fill="none" stroke="#63b8ff" d="M840.03,-102.96C808.87,-93.15 763.18,-78.77 735.5,-70.06"/>
<polygon fill="#63b8ff" stroke="#63b8ff" points="839.01,-106.31 849.6,-105.97 841.11,-99.63 839.01,-106.31"/>
</a>
</g>
</g>
<!-- Node12 -->
<g id="Node000012" class="node">
<title>Node12</title>
<g id="a_Node000012"><a xlink:href="../../d8/dd5/fringe_8hpp.html" target="_top" xlink:title=" ">
<polygon fill="white" stroke="#666666" points="817,-70 758,-70 758,-53 817,-53 817,-70"/>
<text text-anchor="middle" x="787.5" y="-59.6" font-family="Helvetica,sans-Serif" font-size="8.00">fringe.hpp</text>
</a>
</g>
</g>
<!-- Node1&#45;&gt;Node12 -->
<g id="edge20_Node000001_Node000012" class="edge">
<title>Node1&#45;&gt;Node12</title>
<g id="a_edge20_Node000001_Node000012"><a xlink:title=" ">
<path fill="none" stroke="#63b8ff" d="M851.96,-100.73C835.67,-91.07 813.85,-78.13 800.24,-70.06"/>
<polygon fill="#63b8ff" stroke="#63b8ff" points="850.42,-103.88 860.81,-105.97 853.99,-97.86 850.42,-103.88"/>
</a>
</g>
</g>
<!-- Node13 -->
<g id="Node000013" class="node">
<title>Node13</title>
<g id="a_Node000013"><a xlink:href="../../d3/d3e/gbest__first_8hpp.html" target="_top" xlink:title=" ">
<polygon fill="white" stroke="#666666" points="912,-70 835,-70 835,-53 912,-53 912,-70"/>
<text text-anchor="middle" x="873.5" y="-59.6" font-family="Helvetica,sans-Serif" font-size="8.00">gbest_first.hpp</text>
</a>
</g>
</g>
<!-- Node1&#45;&gt;Node13 -->
<g id="edge22_Node000001_Node000013" class="edge">
<title>Node1&#45;&gt;Node13</title>
<g id="a_edge22_Node000001_Node000013"><a xlink:title=" ">
<path fill="none" stroke="#63b8ff" d="M873.5,-95.91C873.5,-87.08 873.5,-76.85 873.5,-70.06"/>
<polygon fill="#63b8ff" stroke="#63b8ff" points="870,-95.97 873.5,-105.97 877,-95.97 870,-95.97"/>
</a>
</g>
</g>
<!-- Node14 -->
<g id="Node000014" class="node">
<title>Node14</title>
<g id="a_Node000014"><a xlink:href="../../de/d94/gbfs_8hpp.html" target="_top" xlink:title=" ">
<polygon fill="white" stroke="#666666" points="983,-70 930,-70 930,-53 983,-53 983,-70"/>
<text text-anchor="middle" x="956.5" y="-59.6" font-family="Helvetica,sans-Serif" font-size="8.00">gbfs.hpp</text>
</a>
</g>
</g>
<!-- Node1&#45;&gt;Node14 -->
<g id="edge24_Node000001_Node000014" class="edge">
<title>Node1&#45;&gt;Node14</title>
<g id="a_edge24_Node000001_Node000014"><a xlink:title=" ">
<path fill="none" stroke="#63b8ff" d="M894.29,-100.73C910.01,-91.07 931.06,-78.13 944.2,-70.06"/>
<polygon fill="#63b8ff" stroke="#63b8ff" points="892.43,-97.76 885.75,-105.97 896.1,-103.72 892.43,-97.76"/>
</a>
</g>
</g>
<!-- Node15 -->
<g id="Node000015" class="node">
<title>Node15</title>
<g id="a_Node000015"><a xlink:href="../../d4/df2/gdfs_8hpp.html" target="_top" xlink:title=" ">
<polygon fill="white" stroke="#666666" points="1054,-70 1001,-70 1001,-53 1054,-53 1054,-70"/>
<text text-anchor="middle" x="1027.5" y="-59.6" font-family="Helvetica,sans-Serif" font-size="8.00">gdfs.hpp</text>
</a>
</g>
</g>
<!-- Node1&#45;&gt;Node15 -->
<g id="edge26_Node000001_Node000015" class="edge">
<title>Node1&#45;&gt;Node15</title>
<g id="a_edge26_Node000001_Node000015"><a xlink:title=" ">
<path fill="none" stroke="#63b8ff" d="M906.09,-102.71C935.69,-92.9 978.6,-78.69 1004.68,-70.06"/>
<polygon fill="#63b8ff" stroke="#63b8ff" points="904.62,-99.51 896.22,-105.97 906.82,-106.15 904.62,-99.51"/>
</a>
</g>
</g>
<!-- Node16 -->
<g id="Node000016" class="node">
<title>Node16</title>
<g id="a_Node000016"><a xlink:href="../../d3/d3e/gjps_8hpp.html" target="_top" xlink:title=" ">
<polygon fill="white" stroke="#666666" points="1124.5,-70 1072.5,-70 1072.5,-53 1124.5,-53 1124.5,-70"/>
<text text-anchor="middle" x="1098.5" y="-59.6" font-family="Helvetica,sans-Serif" font-size="8.00">gjps.hpp</text>
</a>
</g>
</g>
<!-- Node1&#45;&gt;Node16 -->
<g id="edge28_Node000001_Node000016" class="edge">
<title>Node1&#45;&gt;Node16</title>
<g id="a_edge28_Node000001_Node000016"><a xlink:title=" ">
<path fill="none" stroke="#63b8ff" d="M913.27,-104.48C959.13,-94.09 1033.21,-77.3 1072.35,-68.43"/>
<polygon fill="#63b8ff" stroke="#63b8ff" points="912.36,-101.1 903.38,-106.73 913.9,-107.93 912.36,-101.1"/>
</a>
</g>
</g>
<!-- Node17 -->
<g id="Node000017" class="node">
<title>Node17</title>
<g id="a_Node000017"><a xlink:href="../../d1/def/gstar_8hpp.html" target="_top" xlink:title=" ">
<polygon fill="white" stroke="#666666" points="1198,-70 1143,-70 1143,-53 1198,-53 1198,-70"/>
<text text-anchor="middle" x="1170.5" y="-59.6" font-family="Helvetica,sans-Serif" font-size="8.00">gstar.hpp</text>
</a>
</g>
</g>
<!-- Node1&#45;&gt;Node17 -->
<g id="edge30_Node000001_Node000017" class="edge">
<title>Node1&#45;&gt;Node17</title>
<g id="a_edge30_Node000001_Node000017"><a xlink:title=" ">
<path fill="none" stroke="#63b8ff" d="M913.15,-107.3C964.2,-99.22 1055.61,-84.41 1133.5,-70 1136.46,-69.45 1139.56,-68.86 1142.64,-68.25"/>
<polygon fill="#63b8ff" stroke="#63b8ff" points="912.52,-103.85 903.19,-108.87 913.62,-110.77 912.52,-103.85"/>
</a>
</g>
</g>
<!-- Node18 -->
<g id="Node000018" class="node">
<title>Node18</title>
<g id="a_Node000018"><a xlink:href="../../db/df9/idastar_8hpp.html" target="_top" xlink:title=" ">
<polygon fill="white" stroke="#666666" points="1278.5,-70 1216.5,-70 1216.5,-53 1278.5,-53 1278.5,-70"/>
<text text-anchor="middle" x="1247.5" y="-59.6" font-family="Helvetica,sans-Serif" font-size="8.00">idastar.hpp</text>
</a>
</g>
</g>
<!-- Node1&#45;&gt;Node18 -->
<g id="edge32_Node000001_Node000018" class="edge">
<title>Node1&#45;&gt;Node18</title>
<g id="a_edge32_Node000001_Node000018"><a xlink:title=" ">
<path fill="none" stroke="#63b8ff" d="M913.3,-109.04C976.02,-101.86 1101.59,-86.81 1207.5,-70 1210.29,-69.56 1213.19,-69.07 1216.09,-68.56"/>
<polygon fill="#63b8ff" stroke="#63b8ff" points="912.61,-105.6 903.07,-110.21 913.4,-112.56 912.61,-105.6"/>
</a>
</g>
</g>
<!-- Node19 -->
<g id="Node000019" class="node">
<title>Node19</title>
<g id="a_Node000019"><a xlink:href="../../d1/d3a/idbest__first_8hpp.html" target="_top" xlink:title=" ">
<polygon fill="white" stroke="#666666" points="1376.5,-70 1296.5,-70 1296.5,-53 1376.5,-53 1376.5,-70"/>
<text text-anchor="middle" x="1336.5" y="-59.6" font-family="Helvetica,sans-Serif" font-size="8.00">idbest_first.hpp</text>
</a>
</g>
</g>
<!-- Node1&#45;&gt;Node19 -->
<g id="edge34_Node000001_Node000019" class="edge">
<title>Node1&#45;&gt;Node19</title>
<g id="a_edge34_Node000001_Node000019"><a xlink:title=" ">
<path fill="none" stroke="#63b8ff" d="M913.42,-109.94C987.35,-103.2 1150.52,-87.67 1287.5,-70 1290.4,-69.63 1293.4,-69.22 1296.41,-68.79"/>
<polygon fill="#63b8ff" stroke="#63b8ff" points="912.82,-106.48 903.17,-110.87 913.45,-113.45 912.82,-106.48"/>
</a>
</g>
</g>
<!-- Node20 -->
<g id="Node000020" class="node">
<title>Node20</title>
<g id="a_Node000020"><a xlink:href="../../df/d71/iddfs_8hpp.html" target="_top" xlink:title=" ">
<polygon fill="white" stroke="#666666" points="1450,-70 1395,-70 1395,-53 1450,-53 1450,-70"/>
<text text-anchor="middle" x="1422.5" y="-59.6" font-family="Helvetica,sans-Serif" font-size="8.00">iddfs.hpp</text>
</a>
</g>
</g>
<!-- Node1&#45;&gt;Node20 -->
<g id="edge36_Node000001_Node000020" class="edge">
<title>Node1&#45;&gt;Node20</title>
<g id="a_edge36_Node000001_Node000020"><a xlink:title=" ">
<path fill="none" stroke="#63b8ff" d="M913.21,-111.69C999.5,-107.41 1210.45,-95.09 1385.5,-70 1388.48,-69.57 1391.59,-69.06 1394.68,-68.5"/>
<polygon fill="#63b8ff" stroke="#63b8ff" points="912.89,-108.2 903.07,-112.18 913.23,-115.19 912.89,-108.2"/>
</a>
</g>
</g>
<!-- Node21 -->
<g id="Node000021" class="node">
<title>Node21</title>
<g id="a_Node000021"><a xlink:href="../../d9/de6/jps_8hpp.html" target="_top" xlink:title=" ">
<polygon fill="white" stroke="#666666" points="1515,-70 1468,-70 1468,-53 1515,-53 1515,-70"/>
<text text-anchor="middle" x="1491.5" y="-59.6" font-family="Helvetica,sans-Serif" font-size="8.00">jps.hpp</text>
</a>
</g>
</g>
<!-- Node1&#45;&gt;Node21 -->
<g id="edge38_Node000001_Node000021" class="edge">
<title>Node1&#45;&gt;Node21</title>
<g id="a_edge38_Node000001_Node000021"><a xlink:title=" ">
<path fill="none" stroke="#63b8ff" d="M913.29,-112.69C1008.29,-110.28 1255.64,-101.26 1459.5,-70 1462.21,-69.58 1465.02,-69.06 1467.81,-68.49"/>
<polygon fill="#63b8ff" stroke="#63b8ff" points="913.17,-109.19 903.26,-112.93 913.34,-116.19 913.17,-109.19"/>
</a>
</g>
</g>
<!-- Node22 -->
<g id="Node000022" class="node">
<title>Node22</title>
<g id="a_Node000022"><a xlink:href="../../d8/ddf/mgstar_8hpp.html" target="_top" xlink:title=" ">
<polygon fill="white" stroke="#666666" points="1595.5,-70 1533.5,-70 1533.5,-53 1595.5,-53 1595.5,-70"/>
<text text-anchor="middle" x="1564.5" y="-59.6" font-family="Helvetica,sans-Serif" font-size="8.00">mgstar.hpp</text>
</a>
</g>
</g>
<!-- Node1&#45;&gt;Node22 -->
<g id="edge40_Node000001_Node000022" class="edge">
<title>Node1&#45;&gt;Node22</title>
<g id="a_edge40_Node000001_Node000022"><a xlink:title=" ">
<path fill="none" stroke="#63b8ff" d="M913.29,-112.48C1015.27,-109.52 1294.14,-99.19 1524.5,-70 1527.3,-69.64 1530.21,-69.22 1533.11,-68.75"/>
<polygon fill="#63b8ff" stroke="#63b8ff" points="913.04,-108.99 903.14,-112.77 913.24,-115.99 913.04,-108.99"/>
</a>
</g>
</g>
<!-- Node23 -->
<g id="Node000023" class="node">
<title>Node23</title>
<g id="a_Node000023"><a xlink:href="../../d2/d94/osmastar_8hpp.html" target="_top" xlink:title=" ">
<polygon fill="white" stroke="#666666" points="1685.5,-70 1613.5,-70 1613.5,-53 1685.5,-53 1685.5,-70"/>
<text text-anchor="middle" x="1649.5" y="-59.6" font-family="Helvetica,sans-Serif" font-size="8.00">osmastar.hpp</text>
</a>
</g>
</g>
<!-- Node1&#45;&gt;Node23 -->
<g id="edge42_Node000001_Node000023" class="edge">
<title>Node1&#45;&gt;Node23</title>
<g id="a_edge42_Node000001_Node000023"><a xlink:title=" ">
<path fill="none" stroke="#63b8ff" d="M913.52,-112.6C1023.91,-109.81 1341.94,-99.61 1604.5,-70 1607.33,-69.68 1610.26,-69.3 1613.2,-68.89"/>
<polygon fill="#63b8ff" stroke="#63b8ff" points="913.1,-109.11 903.19,-112.86 913.27,-116.11 913.1,-109.11"/>
</a>
</g>
</g>
<!-- Node24 -->
<g id="Node000024" class="node">
<title>Node24</title>
<g id="a_Node000024"><a xlink:href="../../dd/d57/smastar_8hpp.html" target="_top" xlink:title=" ">
<polygon fill="white" stroke="#666666" points="1771,-70 1704,-70 1704,-53 1771,-53 1771,-70"/>
<text text-anchor="middle" x="1737.5" y="-59.6" font-family="Helvetica,sans-Serif" font-size="8.00">smastar.hpp</text>
</a>
</g>
</g>
<!-- Node1&#45;&gt;Node24 -->
<g id="edge44_Node000001_Node000024" class="edge">
<title>Node1&#45;&gt;Node24</title>
<g id="a_edge44_Node000001_Node000024"><a xlink:title=" ">
<path fill="none" stroke="#63b8ff" d="M913.14,-113.08C1031.95,-111.46 1395.41,-103.88 1694.5,-70 1697.51,-69.66 1700.63,-69.24 1703.75,-68.78"/>
<polygon fill="#63b8ff" stroke="#63b8ff" points="913.01,-109.58 903.06,-113.21 913.1,-116.58 913.01,-109.58"/>
</a>
</g>
</g>
<!-- Node2&#45;&gt;Node3 -->
<g id="edge2_Node000002_Node000003" class="edge">
<title>Node2&#45;&gt;Node3</title>
<g id="a_edge2_Node000002_Node000003"><a xlink:title=" ">
<path fill="none" stroke="#63b8ff" d="M65.6,-53.49C66.91,-53.31 68.22,-53.15 69.5,-53 373.95,-17.72 746.64,-10.96 847.37,-9.75"/>
<polygon fill="#63b8ff" stroke="#63b8ff" points="64.81,-50.07 55.44,-55.02 65.85,-56.99 64.81,-50.07"/>
</a>
</g>
</g>
<!-- Node4&#45;&gt;Node3 -->
<g id="edge4_Node000004_Node000003" class="edge">
<title>Node4&#45;&gt;Node3</title>
<g id="a_edge4_Node000004_Node000003"><a xlink:title=" ">
<path fill="none" stroke="#63b8ff" d="M193.84,-52.98C454.56,-23.5 757.91,-12.86 847.44,-10.21"/>
<polygon fill="#63b8ff" stroke="#63b8ff" points="193.34,-49.51 183.8,-54.12 194.14,-56.47 193.34,-49.51"/>
</a>
</g>
</g>
<!-- Node5&#45;&gt;Node3 -->
<g id="edge6_Node000005_Node000003" class="edge">
<title>Node5&#45;&gt;Node3</title>
<g id="a_edge6_Node000005_Node000003"><a xlink:title=" ">
<path fill="none" stroke="#63b8ff" d="M259.19,-53C491.9,-18.47 762.95,-11.32 847.22,-9.86"/>
<polygon fill="#63b8ff" stroke="#63b8ff" points="258.55,-49.56 249.18,-54.5 259.59,-56.48 258.55,-49.56"/>
</a>
</g>
</g>
<!-- Node6&#45;&gt;Node3 -->
<g id="edge9_Node000006_Node000003" class="edge">
<title>Node6&#45;&gt;Node3</title>
<g id="a_edge9_Node000006_Node000003"><a xlink:title=" ">
<path fill="none" stroke="#63b8ff" d="M324.3,-52.96C530.65,-21.51 769.01,-12.44 847.24,-10.16"/>
<polygon fill="#63b8ff" stroke="#63b8ff" points="323.53,-49.54 314.19,-54.53 324.6,-56.46 323.53,-49.54"/>
</a>
</g>
</g>
<!-- Node7&#45;&gt;Node3 -->
<g id="edge11_Node000007_Node000003" class="edge">
<title>Node7&#45;&gt;Node3</title>
<g id="a_edge11_Node000007_Node000003"><a xlink:title=" ">
<path fill="none" stroke="#63b8ff" d="M407.14,-53.05C581.39,-29.77 777.62,-15.76 847.34,-11.16"/>
<polygon fill="#63b8ff" stroke="#63b8ff" points="406.46,-49.61 397.02,-54.42 407.4,-56.55 406.46,-49.61"/>
</a>
</g>
</g>
<!-- Node8&#45;&gt;Node3 -->
<g id="edge13_Node000008_Node000003" class="edge">
<title>Node8&#45;&gt;Node3</title>
<g id="a_edge13_Node000008_Node000003"><a xlink:title=" ">
<path fill="none" stroke="#63b8ff" d="M493.72,-52.91C632.71,-33.12 786.53,-17.76 847.1,-11.97"/>
<polygon fill="#63b8ff" stroke="#63b8ff" points="493.14,-49.46 483.74,-54.34 494.13,-56.38 493.14,-49.46"/>
</a>
</g>
</g>
<!-- Node9&#45;&gt;Node3 -->
<g id="edge15_Node000009_Node000003" class="edge">
<title>Node9&#45;&gt;Node3</title>
<g id="a_edge15_Node000009_Node000003"><a xlink:title=" ">
<path fill="none" stroke="#63b8ff" d="M597.29,-52.32C668.6,-41.26 792.99,-21.98 847.1,-13.59"/>
<polygon fill="#63b8ff" stroke="#63b8ff" points="596.52,-48.89 587.17,-53.88 597.59,-55.81 596.52,-48.89"/>
</a>
</g>
</g>
<!-- Node10&#45;&gt;Node3 -->
<g id="edge17_Node000010_Node000003" class="edge">
<title>Node10&#45;&gt;Node3</title>
<g id="a_edge17_Node000010_Node000003"><a xlink:title=" ">
<path fill="none" stroke="#63b8ff" d="M675.56,-51.92C724.43,-41.44 805.68,-24.03 847.25,-15.13"/>
<polygon fill="#63b8ff" stroke="#63b8ff" points="674.69,-48.52 665.64,-54.04 676.15,-55.37 674.69,-48.52"/>
</a>
</g>
</g>
<!-- Node11&#45;&gt;Node3 -->
<g id="edge19_Node000011_Node000003" class="edge">
<title>Node11&#45;&gt;Node3</title>
<g id="a_edge19_Node000011_Node000003"><a xlink:title=" ">
<path fill="none" stroke="#63b8ff" d="M744.97,-49.96C776.13,-40.15 821.82,-25.77 849.5,-17.06"/>
<polygon fill="#63b8ff" stroke="#63b8ff" points="743.89,-46.63 735.4,-52.97 745.99,-53.31 743.89,-46.63"/>
</a>
</g>
</g>
<!-- Node12&#45;&gt;Node3 -->
<g id="edge21_Node000012_Node000003" class="edge">
<title>Node12&#45;&gt;Node3</title>
<g id="a_edge21_Node000012_Node000003"><a xlink:title=" ">
<path fill="none" stroke="#63b8ff" d="M809.04,-47.73C825.33,-38.07 847.15,-25.13 860.76,-17.06"/>
<polygon fill="#63b8ff" stroke="#63b8ff" points="807.01,-44.86 800.19,-52.97 810.58,-50.88 807.01,-44.86"/>
</a>
</g>
</g>
<!-- Node13&#45;&gt;Node3 -->
<g id="edge23_Node000013_Node000003" class="edge">
<title>Node13&#45;&gt;Node3</title>
<g id="a_edge23_Node000013_Node000003"><a xlink:title=" ">
<path fill="none" stroke="#63b8ff" d="M873.5,-42.91C873.5,-34.08 873.5,-23.85 873.5,-17.06"/>
<polygon fill="#63b8ff" stroke="#63b8ff" points="870,-42.97 873.5,-52.97 877,-42.97 870,-42.97"/>
</a>
</g>
</g>
<!-- Node14&#45;&gt;Node3 -->
<g id="edge25_Node000014_Node000003" class="edge">
<title>Node14&#45;&gt;Node3</title>
<g id="a_edge25_Node000014_Node000003"><a xlink:title=" ">
<path fill="none" stroke="#63b8ff" d="M935.71,-47.73C919.99,-38.07 898.94,-25.13 885.8,-17.06"/>
<polygon fill="#63b8ff" stroke="#63b8ff" points="933.9,-50.72 944.25,-52.97 937.57,-44.76 933.9,-50.72"/>
</a>
</g>
</g>
<!-- Node15&#45;&gt;Node3 -->
<g id="edge27_Node000015_Node000003" class="edge">
<title>Node15&#45;&gt;Node3</title>
<g id="a_edge27_Node000015_Node000003"><a xlink:title=" ">
<path fill="none" stroke="#63b8ff" d="M994.91,-49.71C965.31,-39.9 922.4,-25.69 896.32,-17.06"/>
<polygon fill="#63b8ff" stroke="#63b8ff" points="994.18,-53.15 1004.78,-52.97 996.38,-46.51 994.18,-53.15"/>
</a>
</g>
</g>
<!-- Node16&#45;&gt;Node3 -->
<g id="edge29_Node000016_Node000003" class="edge">
<title>Node16&#45;&gt;Node3</title>
<g id="a_edge29_Node000016_Node000003"><a xlink:title=" ">
<path fill="none" stroke="#63b8ff" d="M1062.21,-52.27C1016.68,-41.95 939.7,-24.51 899.58,-15.41"/>
<polygon fill="#63b8ff" stroke="#63b8ff" points="1061.72,-55.75 1072.25,-54.55 1063.27,-48.93 1061.72,-55.75"/>
</a>
</g>
</g>
<!-- Node17&#45;&gt;Node3 -->
<g id="edge31_Node000017_Node000003" class="edge">
<title>Node17&#45;&gt;Node3</title>
<g id="a_edge31_Node000017_Node000003"><a xlink:title=" ">
<path fill="none" stroke="#63b8ff" d="M1132.66,-52.9C1041.15,-36.1 945.08,-20.71 899.75,-13.59"/>
<polygon fill="#63b8ff" stroke="#63b8ff" points="1132.17,-56.37 1142.64,-54.75 1133.44,-49.49 1132.17,-56.37"/>
</a>
</g>
</g>
<!-- Node18&#45;&gt;Node3 -->
<g id="edge33_Node000018_Node000003" class="edge">
<title>Node18&#45;&gt;Node3</title>
<g id="a_edge33_Node000018_Node000003"><a xlink:title=" ">
<path fill="none" stroke="#63b8ff" d="M1205.97,-52.84C1085.7,-33.97 954.34,-18.58 899.56,-12.39"/>
<polygon fill="#63b8ff" stroke="#63b8ff" points="1205.66,-56.33 1216.09,-54.44 1206.76,-49.42 1205.66,-56.33"/>
</a>
</g>
</g>
<!-- Node19&#45;&gt;Node3 -->
<g id="edge35_Node000019_Node000003" class="edge">
<title>Node19&#45;&gt;Node3</title>
<g id="a_edge35_Node000019_Node000003"><a xlink:title=" ">
<path fill="none" stroke="#63b8ff" d="M1286.38,-52.92C1133.76,-33.44 963.8,-17.59 899.71,-11.82"/>
<polygon fill="#63b8ff" stroke="#63b8ff" points="1286.05,-56.4 1296.41,-54.21 1286.94,-49.46 1286.05,-56.4"/>
</a>
</g>
</g>
<!-- Node20&#45;&gt;Node3 -->
<g id="edge37_Node000020_Node000003" class="edge">
<title>Node20&#45;&gt;Node3</title>
<g id="a_edge37_Node000020_Node000003"><a xlink:title=" ">
<path fill="none" stroke="#63b8ff" d="M1384.7,-53.08C1192.85,-26.06 974.11,-14.17 899.73,-10.66"/>
<polygon fill="#63b8ff" stroke="#63b8ff" points="1384.29,-56.56 1394.68,-54.5 1385.27,-49.63 1384.29,-56.56"/>
</a>
</g>
</g>
<!-- Node21&#45;&gt;Node3 -->
<g id="edge39_Node000021_Node000003" class="edge">
<title>Node21&#45;&gt;Node3</title>
<g id="a_edge39_Node000021_Node000003"><a xlink:title=" ">
<path fill="none" stroke="#63b8ff" d="M1457.67,-52.97C1237.06,-19.85 981.04,-11.81 899.66,-9.99"/>
<polygon fill="#63b8ff" stroke="#63b8ff" points="1457.4,-56.47 1467.81,-54.51 1458.46,-49.55 1457.4,-56.47"/>
</a>
</g>
</g>
<!-- Node22&#45;&gt;Node3 -->
<g id="edge41_Node000022_Node000003" class="edge">
<title>Node22&#45;&gt;Node3</title>
<g id="a_edge41_Node000022_Node000003"><a xlink:title=" ">
<path fill="none" stroke="#63b8ff" d="M1522.83,-52.96C1274.87,-22.12 986.73,-12.48 899.65,-10.13"/>
<polygon fill="#63b8ff" stroke="#63b8ff" points="1522.75,-56.47 1533.11,-54.25 1523.63,-49.53 1522.75,-56.47"/>
</a>
</g>
</g>
<!-- Node23&#45;&gt;Node3 -->
<g id="edge43_Node000023_Node000003" class="edge">
<title>Node23&#45;&gt;Node3</title>
<g id="a_edge43_Node000023_Node000003"><a xlink:title=" ">
<path fill="none" stroke="#63b8ff" d="M1603.22,-52.99C1322.22,-21.82 993.85,-12.28 899.81,-10.06"/>
<polygon fill="#63b8ff" stroke="#63b8ff" points="1602.87,-56.48 1613.2,-54.11 1603.65,-49.52 1602.87,-56.48"/>
</a>
</g>
</g>
<!-- Node24&#45;&gt;Node3 -->
<g id="edge45_Node000024_Node000003" class="edge">
<title>Node24&#45;&gt;Node3</title>
<g id="a_edge45_Node000024_Node000003"><a xlink:title=" ">
<path fill="none" stroke="#63b8ff" d="M1693.4,-53.06C1375.03,-17.59 1001.05,-10.95 899.82,-9.75"/>
<polygon fill="#63b8ff" stroke="#63b8ff" points="1693.43,-56.58 1703.75,-54.22 1694.21,-49.62 1693.43,-56.58"/>
</a>
</g>
</g>
</g>
</svg>
