<?xml version="1.0" encoding="UTF-8" standalone="no"?>
<!DOCTYPE svg PUBLIC "-//W3C//DTD SVG 1.1//EN"
 "http://www.w3.org/Graphics/SVG/1.1/DTD/svg11.dtd">
<!-- Generated by graphviz version 2.43.0 (0)
 -->
<!-- Title: solver.hpp Pages: 1 -->
<svg width="1308pt" height="131pt"
 viewBox="0.00 0.00 1308.00 131.00" xmlns="http://www.w3.org/2000/svg" xmlns:xlink="http://www.w3.org/1999/xlink">
<g id="graph0" class="graph" transform="scale(1 1) rotate(0) translate(4 127)">
<title>solver.hpp</title>
<!-- Node1 -->
<g id="Node000001" class="node">
<title>Node1</title>
<g id="a_Node000001"><a xlink:title=" ">
<polygon fill="#999999" stroke="#666666" points="681.5,-123 628.5,-123 628.5,-106 681.5,-106 681.5,-123"/>
<text text-anchor="middle" x="655" y="-112.6" font-family="Helvetica,sans-Serif" font-size="8.00">solver.hpp</text>
</a>
</g>
</g>
<!-- Node2 -->
<g id="Node000002" class="node">
<title>Node2</title>
<g id="a_Node000002"><a xlink:href="../../dc/da9/astar_8hpp.html" target="_top" xlink:title=" ">
<polygon fill="white" stroke="#666666" points="50,-70 0,-70 0,-53 50,-53 50,-70"/>
<text text-anchor="middle" x="25" y="-59.6" font-family="Helvetica,sans-Serif" font-size="8.00">astar.hpp</text>
</a>
</g>
</g>
<!-- Node1&#45;&gt;Node2 -->
<g id="edge1_Node000001_Node000002" class="edge">
<title>Node1&#45;&gt;Node2</title>
<g id="a_edge1_Node000001_Node000002"><a xlink:title=" ">
<path fill="none" stroke="#63b8ff" d="M618.35,-112.29C525.33,-108.89 272.69,-97.65 64,-70 59.49,-69.4 54.71,-68.61 50.11,-67.77"/>
<polygon fill="#63b8ff" stroke="#63b8ff" points="618.26,-115.79 628.38,-112.65 618.51,-108.79 618.26,-115.79"/>
</a>
</g>
</g>
<!-- Node3 -->
<g id="Node000003" class="node">
<title>Node3</title>
<g id="a_Node000003"><a xlink:href="../../d9/d96/chdr_8hpp.html" target="_top" xlink:title=" ">
<polygon fill="white" stroke="#666666" points="678.5,-17 631.5,-17 631.5,0 678.5,0 678.5,-17"/>
<text text-anchor="middle" x="655" y="-6.6" font-family="Helvetica,sans-Serif" font-size="8.00">chdr.hpp</text>
</a>
</g>
</g>
<!-- Node1&#45;&gt;Node3 -->
<g id="edge7_Node000001_Node000003" class="edge">
<title>Node1&#45;&gt;Node3</title>
<g id="a_edge7_Node000001_Node000003"><a xlink:title=" ">
<path fill="none" stroke="#63b8ff" d="M618.19,-113.46C499.48,-112.93 132.35,-108.21 97,-70 91.87,-64.45 91.87,-58.55 97,-53 133.79,-13.23 529.9,-9.74 631.41,-9.5"/>
<polygon fill="#63b8ff" stroke="#63b8ff" points="618.23,-116.96 628.25,-113.49 618.26,-109.96 618.23,-116.96"/>
</a>
</g>
</g>
<!-- Node4 -->
<g id="Node000004" class="node">
<title>Node4</title>
<g id="a_Node000004"><a xlink:href="../../d3/d77/best__first_8hpp.html" target="_top" xlink:title=" ">
<polygon fill="white" stroke="#666666" points="171.5,-70 106.5,-70 106.5,-53 171.5,-53 171.5,-70"/>
<text text-anchor="middle" x="139" y="-59.6" font-family="Helvetica,sans-Serif" font-size="8.00">best_first.hpp</text>
</a>
</g>
</g>
<!-- Node1&#45;&gt;Node4 -->
<g id="edge3_Node000001_Node000004" class="edge">
<title>Node1&#45;&gt;Node4</title>
<g id="a_edge3_Node000001_Node000004"><a xlink:title=" ">
<path fill="none" stroke="#63b8ff" d="M618.34,-111.27C538.44,-106.15 342.73,-92.29 180,-70 177.28,-69.63 174.46,-69.2 171.63,-68.74"/>
<polygon fill="#63b8ff" stroke="#63b8ff" points="618.18,-114.76 628.38,-111.9 618.62,-107.78 618.18,-114.76"/>
</a>
</g>
</g>
<!-- Node5 -->
<g id="Node000005" class="node">
<title>Node5</title>
<g id="a_Node000005"><a xlink:href="../../da/d36/bfs_8hpp.html" target="_top" xlink:title=" ">
<polygon fill="white" stroke="#666666" points="232.5,-70 189.5,-70 189.5,-53 232.5,-53 232.5,-70"/>
<text text-anchor="middle" x="211" y="-59.6" font-family="Helvetica,sans-Serif" font-size="8.00">bfs.hpp</text>
</a>
</g>
</g>
<!-- Node1&#45;&gt;Node5 -->
<g id="edge5_Node000001_Node000005" class="edge">
<title>Node1&#45;&gt;Node5</title>
<g id="a_edge5_Node000001_Node000005"><a xlink:title=" ">
<path fill="none" stroke="#63b8ff" d="M618.16,-111.37C545.56,-106.79 379.04,-94.38 241,-70 238.25,-69.51 235.38,-68.92 232.55,-68.27"/>
<polygon fill="#63b8ff" stroke="#63b8ff" points="617.98,-114.87 628.18,-111.99 618.42,-107.88 617.98,-114.87"/>
</a>
</g>
</g>
<!-- Node6 -->
<g id="Node000006" class="node">
<title>Node6</title>
<g id="a_Node000006"><a xlink:href="../../d3/dec/dfs_8hpp.html" target="_top" xlink:title=" ">
<polygon fill="white" stroke="#666666" points="293.5,-70 250.5,-70 250.5,-53 293.5,-53 293.5,-70"/>
<text text-anchor="middle" x="272" y="-59.6" font-family="Helvetica,sans-Serif" font-size="8.00">dfs.hpp</text>
</a>
</g>
</g>
<!-- Node1&#45;&gt;Node6 -->
<g id="edge8_Node000001_Node000006" class="edge">
<title>Node1&#45;&gt;Node6</title>
<g id="a_edge8_Node000001_Node000006"><a xlink:title=" ">
<path fill="none" stroke="#63b8ff" d="M618.19,-110.46C553.74,-104.8 416.44,-91.27 302,-70 299.26,-69.49 296.39,-68.88 293.56,-68.23"/>
<polygon fill="#63b8ff" stroke="#63b8ff" points="618,-113.96 628.26,-111.33 618.6,-106.98 618,-113.96"/>
</a>
</g>
</g>
<!-- Node7 -->
<g id="Node000007" class="node">
<title>Node7</title>
<g id="a_Node000007"><a xlink:href="../../d3/d11/dijkstra_8hpp.html" target="_top" xlink:title=" ">
<polygon fill="white" stroke="#666666" points="368.5,-70 311.5,-70 311.5,-53 368.5,-53 368.5,-70"/>
<text text-anchor="middle" x="340" y="-59.6" font-family="Helvetica,sans-Serif" font-size="8.00">dijkstra.hpp</text>
</a>
</g>
</g>
<!-- Node1&#45;&gt;Node7 -->
<g id="edge10_Node000001_Node000007" class="edge">
<title>Node1&#45;&gt;Node7</title>
<g id="a_edge10_Node000001_Node000007"><a xlink:title=" ">
<path fill="none" stroke="#63b8ff" d="M618.24,-108.19C565.11,-100.42 463.83,-85.2 378,-70 374.95,-69.46 371.78,-68.87 368.61,-68.27"/>
<polygon fill="#63b8ff" stroke="#63b8ff" points="617.8,-111.67 628.2,-109.65 618.81,-104.74 617.8,-111.67"/>
</a>
</g>
</g>
<!-- Node8 -->
<g id="Node000008" class="node">
<title>Node8</title>
<g id="a_Node000008"><a xlink:href="../../d6/ded/eidastar_8hpp.html" target="_top" xlink:title=" ">
<polygon fill="white" stroke="#666666" points="447,-70 387,-70 387,-53 447,-53 447,-70"/>
<text text-anchor="middle" x="417" y="-59.6" font-family="Helvetica,sans-Serif" font-size="8.00">eidastar.hpp</text>
</a>
</g>
</g>
<!-- Node1&#45;&gt;Node8 -->
<g id="edge12_Node000001_Node000008" class="edge">
<title>Node1&#45;&gt;Node8</title>
<g id="a_edge12_Node000001_Node000008"><a xlink:title=" ">
<path fill="none" stroke="#63b8ff" d="M618.09,-105.59C571.05,-95.51 490.62,-78.28 447.1,-68.95"/>
<polygon fill="#63b8ff" stroke="#63b8ff" points="617.65,-109.08 628.16,-107.75 619.12,-102.23 617.65,-109.08"/>
</a>
</g>
</g>
<!-- Node9 -->
<g id="Node000009" class="node">
<title>Node9</title>
<g id="a_Node000009"><a xlink:href="../../d8/d85/eidbest__first_8hpp.html" target="_top" xlink:title=" ">
<polygon fill="white" stroke="#666666" points="540.5,-70 465.5,-70 465.5,-53 540.5,-53 540.5,-70"/>
<text text-anchor="middle" x="503" y="-59.6" font-family="Helvetica,sans-Serif" font-size="8.00">eidbest_first.hpp</text>
</a>
</g>
</g>
<!-- Node1&#45;&gt;Node9 -->
<g id="edge14_Node000001_Node000009" class="edge">
<title>Node1&#45;&gt;Node9</title>
<g id="a_edge14_Node000001_Node000009"><a xlink:title=" ">
<path fill="none" stroke="#63b8ff" d="M622.83,-102.71C593.62,-92.9 551.27,-78.69 525.52,-70.06"/>
<polygon fill="#63b8ff" stroke="#63b8ff" points="621.98,-106.11 632.57,-105.97 624.2,-99.48 621.98,-106.11"/>
</a>
</g>
</g>
<!-- Node10 -->
<g id="Node000010" class="node">
<title>Node10</title>
<g id="a_Node000010"><a xlink:href="../../dd/d95/eiddfs_8hpp.html" target="_top" xlink:title=" ">
<polygon fill="white" stroke="#666666" points="611.5,-70 558.5,-70 558.5,-53 611.5,-53 611.5,-70"/>
<text text-anchor="middle" x="585" y="-59.6" font-family="Helvetica,sans-Serif" font-size="8.00">eiddfs.hpp</text>
</a>
</g>
</g>
<!-- Node1&#45;&gt;Node10 -->
<g id="edge16_Node000001_Node000010" class="edge">
<title>Node1&#45;&gt;Node10</title>
<g id="a_edge16_Node000001_Node000010"><a xlink:title=" ">
<path fill="none" stroke="#63b8ff" d="M636.34,-99.91C623.22,-90.34 606.14,-77.9 595.37,-70.06"/>
<polygon fill="#63b8ff" stroke="#63b8ff" points="634.53,-102.91 644.67,-105.97 638.65,-97.26 634.53,-102.91"/>
</a>
</g>
</g>
<!-- Node11 -->
<g id="Node000011" class="node">
<title>Node11</title>
<g id="a_Node000011"><a xlink:href="../../d8/d12/flood_8hpp.html" target="_top" xlink:title=" ">
<polygon fill="white" stroke="#666666" points="680,-70 630,-70 630,-53 680,-53 680,-70"/>
<text text-anchor="middle" x="655" y="-59.6" font-family="Helvetica,sans-Serif" font-size="8.00">flood.hpp</text>
</a>
</g>
</g>
<!-- Node1&#45;&gt;Node11 -->
<g id="edge18_Node000001_Node000011" class="edge">
<title>Node1&#45;&gt;Node11</title>
<g id="a_edge18_Node000001_Node000011"><a xlink:title=" ">
<path fill="none" stroke="#63b8ff" d="M655,-95.91C655,-87.08 655,-76.85 655,-70.06"/>
<polygon fill="#63b8ff" stroke="#63b8ff" points="651.5,-95.97 655,-105.97 658.5,-95.97 651.5,-95.97"/>
</a>
</g>
</g>
<!-- Node12 -->
<g id="Node000012" class="node">
<title>Node12</title>
<g id="a_Node000012"><a xlink:href="../../d1/d5a/fstar_8hpp.html" target="_top" xlink:title=" ">
<polygon fill="white" stroke="#666666" points="745.5,-70 698.5,-70 698.5,-53 745.5,-53 745.5,-70"/>
<text text-anchor="middle" x="722" y="-59.6" font-family="Helvetica,sans-Serif" font-size="8.00">fstar.hpp</text>
</a>
</g>
</g>
<!-- Node1&#45;&gt;Node12 -->
<g id="edge20_Node000001_Node000012" class="edge">
<title>Node1&#45;&gt;Node12</title>
<g id="a_edge20_Node000001_Node000012"><a xlink:title=" ">
<path fill="none" stroke="#63b8ff" d="M672.86,-99.91C685.42,-90.34 701.77,-77.9 712.07,-70.06"/>
<polygon fill="#63b8ff" stroke="#63b8ff" points="670.72,-97.13 664.89,-105.97 674.96,-102.7 670.72,-97.13"/>
</a>
</g>
</g>
<!-- Node13 -->
<g id="Node000013" class="node">
<title>Node13</title>
<g id="a_Node000013"><a xlink:href="../../de/d94/gbfs_8hpp.html" target="_top" xlink:title=" ">
<polygon fill="white" stroke="#666666" points="810.5,-70 763.5,-70 763.5,-53 810.5,-53 810.5,-70"/>
<text text-anchor="middle" x="787" y="-59.6" font-family="Helvetica,sans-Serif" font-size="8.00">gbfs.hpp</text>
</a>
</g>
</g>
<!-- Node1&#45;&gt;Node13 -->
<g id="edge22_Node000001_Node000013" class="edge">
<title>Node1&#45;&gt;Node13</title>
<g id="a_edge22_Node000001_Node000013"><a xlink:title=" ">
<path fill="none" stroke="#63b8ff" d="M683.94,-102.32C709.27,-92.53 745.38,-78.58 767.44,-70.06"/>
<polygon fill="#63b8ff" stroke="#63b8ff" points="682.54,-99.11 674.48,-105.97 685.07,-105.64 682.54,-99.11"/>
</a>
</g>
</g>
<!-- Node14 -->
<g id="Node000014" class="node">
<title>Node14</title>
<g id="a_Node000014"><a xlink:href="../../d4/df2/gdfs_8hpp.html" target="_top" xlink:title=" ">
<polygon fill="white" stroke="#666666" points="875.5,-70 828.5,-70 828.5,-53 875.5,-53 875.5,-70"/>
<text text-anchor="middle" x="852" y="-59.6" font-family="Helvetica,sans-Serif" font-size="8.00">gdfs.hpp</text>
</a>
</g>
</g>
<!-- Node1&#45;&gt;Node14 -->
<g id="edge24_Node000001_Node000014" class="edge">
<title>Node1&#45;&gt;Node14</title>
<g id="a_edge24_Node000001_Node000014"><a xlink:title=" ">
<path fill="none" stroke="#63b8ff" d="M691.44,-104.07C731.39,-93.72 794.31,-77.43 828.31,-68.63"/>
<polygon fill="#63b8ff" stroke="#63b8ff" points="690.37,-100.73 681.57,-106.62 692.13,-107.5 690.37,-100.73"/>
</a>
</g>
</g>
<!-- Node15 -->
<g id="Node000015" class="node">
<title>Node15</title>
<g id="a_Node000015"><a xlink:href="../../d3/d3e/gjps_8hpp.html" target="_top" xlink:title=" ">
<polygon fill="white" stroke="#666666" points="940.5,-70 893.5,-70 893.5,-53 940.5,-53 940.5,-70"/>
<text text-anchor="middle" x="917" y="-59.6" font-family="Helvetica,sans-Serif" font-size="8.00">gjps.hpp</text>
</a>
</g>
</g>
<!-- Node1&#45;&gt;Node15 -->
<g id="edge26_Node000001_Node000015" class="edge">
<title>Node1&#45;&gt;Node15</title>
<g id="a_edge26_Node000001_Node000015"><a xlink:title=" ">
<path fill="none" stroke="#63b8ff" d="M691.61,-107.08C737.08,-98.99 816.95,-84.4 885,-70 887.68,-69.43 890.48,-68.81 893.26,-68.18"/>
<polygon fill="#63b8ff" stroke="#63b8ff" points="690.87,-103.66 681.64,-108.85 692.09,-110.55 690.87,-103.66"/>
</a>
</g>
</g>
<!-- Node16 -->
<g id="Node000016" class="node">
<title>Node16</title>
<g id="a_Node000016"><a xlink:href="../../d1/def/gstar_8hpp.html" target="_top" xlink:title=" ">
<polygon fill="white" stroke="#666666" points="1009,-70 959,-70 959,-53 1009,-53 1009,-70"/>
<text text-anchor="middle" x="984" y="-59.6" font-family="Helvetica,sans-Serif" font-size="8.00">gstar.hpp</text>
</a>
</g>
</g>
<!-- Node1&#45;&gt;Node16 -->
<g id="edge28_Node000001_Node000016" class="edge">
<title>Node1&#45;&gt;Node16</title>
<g id="a_edge28_Node000001_Node000016"><a xlink:title=" ">
<path fill="none" stroke="#63b8ff" d="M691.67,-108.94C747.58,-101.8 857.44,-87.01 950,-70 952.85,-69.48 955.83,-68.88 958.79,-68.27"/>
<polygon fill="#63b8ff" stroke="#63b8ff" points="691.03,-105.49 681.55,-110.23 691.91,-112.44 691.03,-105.49"/>
</a>
</g>
</g>
<!-- Node17 -->
<g id="Node000017" class="node">
<title>Node17</title>
<g id="a_Node000017"><a xlink:href="../../db/df9/idastar_8hpp.html" target="_top" xlink:title=" ">
<polygon fill="white" stroke="#666666" points="1083,-70 1027,-70 1027,-53 1083,-53 1083,-70"/>
<text text-anchor="middle" x="1055" y="-59.6" font-family="Helvetica,sans-Serif" font-size="8.00">idastar.hpp</text>
</a>
</g>
</g>
<!-- Node1&#45;&gt;Node17 -->
<g id="edge30_Node000001_Node000017" class="edge">
<title>Node1&#45;&gt;Node17</title>
<g id="a_edge30_Node000001_Node000017"><a xlink:title=" ">
<path fill="none" stroke="#63b8ff" d="M691.77,-110.08C757.47,-103.76 899.28,-89.11 1018,-70 1020.85,-69.54 1023.81,-69.02 1026.76,-68.47"/>
<polygon fill="#63b8ff" stroke="#63b8ff" points="691.14,-106.63 681.52,-111.06 691.81,-113.6 691.14,-106.63"/>
</a>
</g>
</g>
<!-- Node18 -->
<g id="Node000018" class="node">
<title>Node18</title>
<g id="a_Node000018"><a xlink:href="../../d1/d3a/idbest__first_8hpp.html" target="_top" xlink:title=" ">
<polygon fill="white" stroke="#666666" points="1172.5,-70 1101.5,-70 1101.5,-53 1172.5,-53 1172.5,-70"/>
<text text-anchor="middle" x="1137" y="-59.6" font-family="Helvetica,sans-Serif" font-size="8.00">idbest_first.hpp</text>
</a>
</g>
</g>
<!-- Node1&#45;&gt;Node18 -->
<g id="edge32_Node000001_Node000018" class="edge">
<title>Node1&#45;&gt;Node18</title>
<g id="a_edge32_Node000001_Node000018"><a xlink:title=" ">
<path fill="none" stroke="#63b8ff" d="M692.05,-110.64C767.5,-104.64 944.33,-89.63 1092,-70 1094.98,-69.6 1098.07,-69.16 1101.17,-68.69"/>
<polygon fill="#63b8ff" stroke="#63b8ff" points="691.37,-107.18 681.67,-111.46 691.92,-114.16 691.37,-107.18"/>
</a>
</g>
</g>
<!-- Node19 -->
<g id="Node000019" class="node">
<title>Node19</title>
<g id="a_Node000019"><a xlink:href="../../df/d71/iddfs_8hpp.html" target="_top" xlink:title=" ">
<polygon fill="white" stroke="#666666" points="1239.5,-70 1190.5,-70 1190.5,-53 1239.5,-53 1239.5,-70"/>
<text text-anchor="middle" x="1215" y="-59.6" font-family="Helvetica,sans-Serif" font-size="8.00">iddfs.hpp</text>
</a>
</g>
</g>
<!-- Node1&#45;&gt;Node19 -->
<g id="edge34_Node000001_Node000019" class="edge">
<title>Node1&#45;&gt;Node19</title>
<g id="a_edge34_Node000001_Node000019"><a xlink:title=" ">
<path fill="none" stroke="#63b8ff" d="M691.82,-112.25C777.98,-108.93 999.31,-98.16 1182,-70 1184.67,-69.59 1187.45,-69.08 1190.21,-68.53"/>
<polygon fill="#63b8ff" stroke="#63b8ff" points="691.61,-108.75 681.75,-112.63 691.88,-115.75 691.61,-108.75"/>
</a>
</g>
</g>
<!-- Node20 -->
<g id="Node000020" class="node">
<title>Node20</title>
<g id="a_Node000020"><a xlink:href="../../d9/de6/jps_8hpp.html" target="_top" xlink:title=" ">
<polygon fill="white" stroke="#666666" points="1300,-70 1258,-70 1258,-53 1300,-53 1300,-70"/>
<text text-anchor="middle" x="1279" y="-59.6" font-family="Helvetica,sans-Serif" font-size="8.00">jps.hpp</text>
</a>
</g>
</g>
<!-- Node1&#45;&gt;Node20 -->
<g id="edge36_Node000001_Node000020" class="edge">
<title>Node1&#45;&gt;Node20</title>
<g id="a_edge36_Node000001_Node000020"><a xlink:title=" ">
<path fill="none" stroke="#63b8ff" d="M691.61,-113C785.07,-111.26 1039.85,-103.55 1249,-70 1251.86,-69.54 1254.85,-68.94 1257.79,-68.28"/>
<polygon fill="#63b8ff" stroke="#63b8ff" points="691.47,-109.5 681.53,-113.18 691.59,-116.5 691.47,-109.5"/>
</a>
</g>
</g>
<!-- Node2&#45;&gt;Node3 -->
<g id="edge2_Node000002_Node000003" class="edge">
<title>Node2&#45;&gt;Node3</title>
<g id="a_edge2_Node000002_Node000003"><a xlink:title=" ">
<path fill="none" stroke="#63b8ff" d="M60.14,-53.55C61.44,-53.35 62.73,-53.17 64,-53 283.28,-23.95 551.09,-13.01 631.25,-10.25"/>
<polygon fill="#63b8ff" stroke="#63b8ff" points="59.39,-50.12 50.11,-55.23 60.55,-57.03 59.39,-50.12"/>
</a>
</g>
</g>
<!-- Node4&#45;&gt;Node3 -->
<g id="edge4_Node000004_Node000003" class="edge">
<title>Node4&#45;&gt;Node3</title>
<g id="a_edge4_Node000004_Node000003"><a xlink:title=" ">
<path fill="none" stroke="#63b8ff" d="M181.72,-52.89C360.01,-28.88 562.84,-15.17 631.19,-10.92"/>
<polygon fill="#63b8ff" stroke="#63b8ff" points="181.07,-49.44 171.63,-54.26 182.01,-56.38 181.07,-49.44"/>
</a>
</g>
</g>
<!-- Node5&#45;&gt;Node3 -->
<g id="edge6_Node000005_Node000003" class="edge">
<title>Node5&#45;&gt;Node3</title>
<g id="a_edge6_Node000005_Node000003"><a xlink:title=" ">
<path fill="none" stroke="#63b8ff" d="M242.62,-52.96C395.99,-26.45 569.44,-14.52 631.5,-10.81"/>
<polygon fill="#63b8ff" stroke="#63b8ff" points="241.8,-49.55 232.55,-54.73 243.01,-56.45 241.8,-49.55"/>
</a>
</g>
</g>
<!-- Node6&#45;&gt;Node3 -->
<g id="edge9_Node000006_Node000003" class="edge">
<title>Node6&#45;&gt;Node3</title>
<g id="a_edge9_Node000006_Node000003"><a xlink:title=" ">
<path fill="none" stroke="#63b8ff" d="M303.6,-52.92C432.46,-29.45 575.71,-16.11 631.3,-11.41"/>
<polygon fill="#63b8ff" stroke="#63b8ff" points="302.76,-49.52 293.56,-54.77 304.03,-56.4 302.76,-49.52"/>
</a>
</g>
</g>
<!-- Node7&#45;&gt;Node3 -->
<g id="edge11_Node000007_Node000003" class="edge">
<title>Node7&#45;&gt;Node3</title>
<g id="a_edge11_Node000007_Node000003"><a xlink:title=" ">
<path fill="none" stroke="#63b8ff" d="M378.58,-52.97C478.61,-35.39 584.81,-19.65 631.23,-12.91"/>
<polygon fill="#63b8ff" stroke="#63b8ff" points="377.85,-49.54 368.61,-54.73 379.07,-56.43 377.85,-49.54"/>
</a>
</g>
</g>
<!-- Node8&#45;&gt;Node3 -->
<g id="edge13_Node000008_Node000003" class="edge">
<title>Node8&#45;&gt;Node3</title>
<g id="a_edge13_Node000008_Node000003"><a xlink:title=" ">
<path fill="none" stroke="#63b8ff" d="M456.94,-51.94C506.78,-41.26 590.4,-23.34 631.19,-14.6"/>
<polygon fill="#63b8ff" stroke="#63b8ff" points="456.19,-48.52 447.14,-54.04 457.65,-55.37 456.19,-48.52"/>
</a>
</g>
</g>
<!-- Node9&#45;&gt;Node3 -->
<g id="edge15_Node000009_Node000003" class="edge">
<title>Node9&#45;&gt;Node3</title>
<g id="a_edge15_Node000009_Node000003"><a xlink:title=" ">
<path fill="none" stroke="#63b8ff" d="M535.17,-49.71C564.38,-39.9 606.73,-25.69 632.48,-17.06"/>
<polygon fill="#63b8ff" stroke="#63b8ff" points="533.8,-46.48 525.43,-52.97 536.02,-53.11 533.8,-46.48"/>
</a>
</g>
</g>
<!-- Node10&#45;&gt;Node3 -->
<g id="edge17_Node000010_Node000003" class="edge">
<title>Node10&#45;&gt;Node3</title>
<g id="a_edge17_Node000010_Node000003"><a xlink:title=" ">
<path fill="none" stroke="#63b8ff" d="M603.66,-46.91C616.78,-37.34 633.86,-24.9 644.63,-17.06"/>
<polygon fill="#63b8ff" stroke="#63b8ff" points="601.35,-44.26 595.33,-52.97 605.47,-49.91 601.35,-44.26"/>
</a>
</g>
</g>
<!-- Node11&#45;&gt;Node3 -->
<g id="edge19_Node000011_Node000003" class="edge">
<title>Node11&#45;&gt;Node3</title>
<g id="a_edge19_Node000011_Node000003"><a xlink:title=" ">
<path fill="none" stroke="#63b8ff" d="M655,-42.91C655,-34.08 655,-23.85 655,-17.06"/>
<polygon fill="#63b8ff" stroke="#63b8ff" points="651.5,-42.97 655,-52.97 658.5,-42.97 651.5,-42.97"/>
</a>
</g>
</g>
<!-- Node12&#45;&gt;Node3 -->
<g id="edge21_Node000012_Node000003" class="edge">
<title>Node12&#45;&gt;Node3</title>
<g id="a_edge21_Node000012_Node000003"><a xlink:title=" ">
<path fill="none" stroke="#63b8ff" d="M704.14,-46.91C691.58,-37.34 675.23,-24.9 664.93,-17.06"/>
<polygon fill="#63b8ff" stroke="#63b8ff" points="702.04,-49.7 712.11,-52.97 706.28,-44.13 702.04,-49.7"/>
</a>
</g>
</g>
<!-- Node13&#45;&gt;Node3 -->
<g id="edge23_Node000013_Node000003" class="edge">
<title>Node13&#45;&gt;Node3</title>
<g id="a_edge23_Node000013_Node000003"><a xlink:title=" ">
<path fill="none" stroke="#63b8ff" d="M758.06,-49.32C732.73,-39.53 696.62,-25.58 674.56,-17.06"/>
<polygon fill="#63b8ff" stroke="#63b8ff" points="756.93,-52.64 767.52,-52.97 759.46,-46.11 756.93,-52.64"/>
</a>
</g>
</g>
<!-- Node14&#45;&gt;Node3 -->
<g id="edge25_Node000014_Node000003" class="edge">
<title>Node14&#45;&gt;Node3</title>
<g id="a_edge25_Node000014_Node000003"><a xlink:title=" ">
<path fill="none" stroke="#63b8ff" d="M818.46,-51.82C778.67,-41.51 713.34,-24.6 678.54,-15.59"/>
<polygon fill="#63b8ff" stroke="#63b8ff" points="817.68,-55.23 828.24,-54.35 819.43,-48.45 817.68,-55.23"/>
</a>
</g>
</g>
<!-- Node15&#45;&gt;Node3 -->
<g id="edge27_Node000015_Node000003" class="edge">
<title>Node15&#45;&gt;Node3</title>
<g id="a_edge27_Node000015_Node000003"><a xlink:title=" ">
<path fill="none" stroke="#63b8ff" d="M883.46,-52.75C802.93,-35.85 718.67,-20.68 678.58,-13.61"/>
<polygon fill="#63b8ff" stroke="#63b8ff" points="882.75,-56.17 893.26,-54.82 884.2,-49.32 882.75,-56.17"/>
</a>
</g>
</g>
<!-- Node16&#45;&gt;Node3 -->
<g id="edge29_Node000016_Node000003" class="edge">
<title>Node16&#45;&gt;Node3</title>
<g id="a_edge29_Node000016_Node000003"><a xlink:title=" ">
<path fill="none" stroke="#63b8ff" d="M948.85,-52.91C842.46,-33.62 727.55,-18.55 678.8,-12.43"/>
<polygon fill="#63b8ff" stroke="#63b8ff" points="948.32,-56.37 958.79,-54.73 949.58,-49.49 948.32,-56.37"/>
</a>
</g>
</g>
<!-- Node17&#45;&gt;Node3 -->
<g id="edge31_Node000017_Node000003" class="edge">
<title>Node17&#45;&gt;Node3</title>
<g id="a_edge31_Node000017_Node000003"><a xlink:title=" ">
<path fill="none" stroke="#63b8ff" d="M1016.77,-52.93C883.34,-31.78 735.65,-17.03 678.88,-11.69"/>
<polygon fill="#63b8ff" stroke="#63b8ff" points="1016.33,-56.41 1026.76,-54.53 1017.44,-49.49 1016.33,-56.41"/>
</a>
</g>
</g>
<!-- Node18&#45;&gt;Node3 -->
<g id="edge33_Node000018_Node000003" class="edge">
<title>Node18&#45;&gt;Node3</title>
<g id="a_edge33_Node000018_Node000003"><a xlink:title=" ">
<path fill="none" stroke="#63b8ff" d="M1090.91,-52.95C927.05,-31.46 743.21,-16.34 678.75,-11.31"/>
<polygon fill="#63b8ff" stroke="#63b8ff" points="1090.8,-56.47 1101.17,-54.31 1091.72,-49.53 1090.8,-56.47"/>
</a>
</g>
</g>
<!-- Node19&#45;&gt;Node3 -->
<g id="edge35_Node000019_Node000003" class="edge">
<title>Node19&#45;&gt;Node3</title>
<g id="a_edge35_Node000019_Node000003"><a xlink:title=" ">
<path fill="none" stroke="#63b8ff" d="M1180.16,-52.93C981.17,-22.91 751.57,-12.86 678.51,-10.26"/>
<polygon fill="#63b8ff" stroke="#63b8ff" points="1179.79,-56.42 1190.21,-54.47 1180.85,-49.5 1179.79,-56.42"/>
</a>
</g>
</g>
<!-- Node20&#45;&gt;Node3 -->
<g id="edge37_Node000020_Node000003" class="edge">
<title>Node20&#45;&gt;Node3</title>
<g id="a_edge37_Node000020_Node000003"><a xlink:title=" ">
<path fill="none" stroke="#63b8ff" d="M1247.72,-53.11C1021.36,-17.56 757.91,-11.01 678.66,-9.78"/>
<polygon fill="#63b8ff" stroke="#63b8ff" points="1247.36,-56.6 1257.79,-54.72 1248.46,-49.69 1247.36,-56.6"/>
</a>
</g>
</g>
</g>
</svg>
