<?xml version="1.0" encoding="UTF-8" standalone="no"?>
<!DOCTYPE svg PUBLIC "-//W3C//DTD SVG 1.1//EN"
 "http://www.w3.org/Graphics/SVG/1.1/DTD/svg11.dtd">
<!-- Generated by graphviz version 2.43.0 (0)
 -->
<!-- Title: solver.hpp Pages: 1 -->
<svg width="1395pt" height="131pt"
 viewBox="0.00 0.00 1395.00 131.00" xmlns="http://www.w3.org/2000/svg" xmlns:xlink="http://www.w3.org/1999/xlink">
<g id="graph0" class="graph" transform="scale(1 1) rotate(0) translate(4 127)">
<title>solver.hpp</title>
<!-- Node1 -->
<g id="Node000001" class="node">
<title>Node1</title>
<g id="a_Node000001"><a xlink:title=" ">
<polygon fill="#999999" stroke="#666666" points="714.5,-123 661.5,-123 661.5,-106 714.5,-106 714.5,-123"/>
<text text-anchor="middle" x="688" y="-112.6" font-family="Helvetica,sans-Serif" font-size="8.00">solver.hpp</text>
</a>
</g>
</g>
<!-- Node2 -->
<g id="Node000002" class="node">
<title>Node2</title>
<g id="a_Node000002"><a xlink:href="../../dc/da9/astar_8hpp.html" target="_top" xlink:title=" ">
<polygon fill="white" stroke="#666666" points="50,-70 0,-70 0,-53 50,-53 50,-70"/>
<text text-anchor="middle" x="25" y="-59.6" font-family="Helvetica,sans-Serif" font-size="8.00">astar.hpp</text>
</a>
</g>
</g>
<!-- Node1&#45;&gt;Node2 -->
<g id="edge1_Node000001_Node000002" class="edge">
<title>Node1&#45;&gt;Node2</title>
<g id="a_edge1_Node000001_Node000002"><a xlink:title=" ">
<path fill="none" stroke="#63b8ff" d="M651.31,-112.48C554.77,-109.48 285.86,-98.96 64,-70 59.49,-69.41 54.71,-68.63 50.1,-67.79"/>
<polygon fill="#63b8ff" stroke="#63b8ff" points="651.33,-115.99 661.43,-112.79 651.54,-108.99 651.33,-115.99"/>
</a>
</g>
</g>
<!-- Node3 -->
<g id="Node000003" class="node">
<title>Node3</title>
<g id="a_Node000003"><a xlink:href="../../d9/d96/chdr_8hpp.html" target="_top" xlink:title=" ">
<polygon fill="white" stroke="#666666" points="711.5,-17 664.5,-17 664.5,0 711.5,0 711.5,-17"/>
<text text-anchor="middle" x="688" y="-6.6" font-family="Helvetica,sans-Serif" font-size="8.00">chdr.hpp</text>
</a>
</g>
</g>
<!-- Node1&#45;&gt;Node3 -->
<g id="edge7_Node000001_Node000003" class="edge">
<title>Node1&#45;&gt;Node3</title>
<g id="a_edge7_Node000001_Node000003"><a xlink:title=" ">
<path fill="none" stroke="#63b8ff" d="M651.09,-113.63C527.62,-113.67 134.72,-110.6 97,-70 91.86,-64.46 91.86,-58.54 97,-53 136.22,-10.79 559.29,-9.14 664.44,-9.39"/>
<polygon fill="#63b8ff" stroke="#63b8ff" points="651.18,-117.13 661.18,-113.62 651.18,-110.13 651.18,-117.13"/>
</a>
</g>
</g>
<!-- Node4 -->
<g id="Node000004" class="node">
<title>Node4</title>
<g id="a_Node000004"><a xlink:href="../../d3/d77/best__first_8hpp.html" target="_top" xlink:title=" ">
<polygon fill="white" stroke="#666666" points="171.5,-70 106.5,-70 106.5,-53 171.5,-53 171.5,-70"/>
<text text-anchor="middle" x="139" y="-59.6" font-family="Helvetica,sans-Serif" font-size="8.00">best_first.hpp</text>
</a>
</g>
</g>
<!-- Node1&#45;&gt;Node4 -->
<g id="edge3_Node000001_Node000004" class="edge">
<title>Node1&#45;&gt;Node4</title>
<g id="a_edge3_Node000001_Node000004"><a xlink:title=" ">
<path fill="none" stroke="#63b8ff" d="M651.44,-111.57C567.73,-106.89 355.84,-93.56 180,-70 177.27,-69.63 174.45,-69.21 171.63,-68.76"/>
<polygon fill="#63b8ff" stroke="#63b8ff" points="651.28,-115.07 661.46,-112.12 651.67,-108.08 651.28,-115.07"/>
</a>
</g>
</g>
<!-- Node5 -->
<g id="Node000005" class="node">
<title>Node5</title>
<g id="a_Node000005"><a xlink:href="../../da/d36/bfs_8hpp.html" target="_top" xlink:title=" ">
<polygon fill="white" stroke="#666666" points="232.5,-70 189.5,-70 189.5,-53 232.5,-53 232.5,-70"/>
<text text-anchor="middle" x="211" y="-59.6" font-family="Helvetica,sans-Serif" font-size="8.00">bfs.hpp</text>
</a>
</g>
</g>
<!-- Node1&#45;&gt;Node5 -->
<g id="edge5_Node000001_Node000005" class="edge">
<title>Node1&#45;&gt;Node5</title>
<g id="a_edge5_Node000001_Node000005"><a xlink:title=" ">
<path fill="none" stroke="#63b8ff" d="M651.26,-111.77C574.56,-107.75 391.98,-96.07 241,-70 238.25,-69.52 235.38,-68.93 232.55,-68.29"/>
<polygon fill="#63b8ff" stroke="#63b8ff" points="651.2,-115.27 661.37,-112.29 651.56,-108.28 651.2,-115.27"/>
</a>
</g>
</g>
<!-- Node6 -->
<g id="Node000006" class="node">
<title>Node6</title>
<g id="a_Node000006"><a xlink:href="../../d3/dec/dfs_8hpp.html" target="_top" xlink:title=" ">
<polygon fill="white" stroke="#666666" points="293.5,-70 250.5,-70 250.5,-53 293.5,-53 293.5,-70"/>
<text text-anchor="middle" x="272" y="-59.6" font-family="Helvetica,sans-Serif" font-size="8.00">dfs.hpp</text>
</a>
</g>
</g>
<!-- Node1&#45;&gt;Node6 -->
<g id="edge8_Node000001_Node000006" class="edge">
<title>Node1&#45;&gt;Node6</title>
<g id="a_edge8_Node000001_Node000006"><a xlink:title=" ">
<path fill="none" stroke="#63b8ff" d="M650.79,-110.96C581.67,-105.87 428.94,-92.91 302,-70 299.25,-69.5 296.38,-68.9 293.56,-68.25"/>
<polygon fill="#63b8ff" stroke="#63b8ff" points="650.92,-114.48 661.15,-111.71 651.43,-107.49 650.92,-114.48"/>
</a>
</g>
</g>
<!-- Node7 -->
<g id="Node000007" class="node">
<title>Node7</title>
<g id="a_Node000007"><a xlink:href="../../d3/d11/dijkstra_8hpp.html" target="_top" xlink:title=" ">
<polygon fill="white" stroke="#666666" points="368.5,-70 311.5,-70 311.5,-53 368.5,-53 368.5,-70"/>
<text text-anchor="middle" x="340" y="-59.6" font-family="Helvetica,sans-Serif" font-size="8.00">dijkstra.hpp</text>
</a>
</g>
</g>
<!-- Node1&#45;&gt;Node7 -->
<g id="edge10_Node000001_Node000007" class="edge">
<title>Node1&#45;&gt;Node7</title>
<g id="a_edge10_Node000001_Node000007"><a xlink:title=" ">
<path fill="none" stroke="#63b8ff" d="M651.22,-109.01C593.07,-101.76 476.38,-86.6 378,-70 374.95,-69.49 371.77,-68.91 368.6,-68.32"/>
<polygon fill="#63b8ff" stroke="#63b8ff" points="651.03,-112.51 661.38,-110.27 651.89,-105.57 651.03,-112.51"/>
</a>
</g>
</g>
<!-- Node8 -->
<g id="Node000008" class="node">
<title>Node8</title>
<g id="a_Node000008"><a xlink:href="../../d6/ded/eidastar_8hpp.html" target="_top" xlink:title=" ">
<polygon fill="white" stroke="#666666" points="447,-70 387,-70 387,-53 447,-53 447,-70"/>
<text text-anchor="middle" x="417" y="-59.6" font-family="Helvetica,sans-Serif" font-size="8.00">eidastar.hpp</text>
</a>
</g>
</g>
<!-- Node1&#45;&gt;Node8 -->
<g id="edge12_Node000001_Node000008" class="edge">
<title>Node1&#45;&gt;Node8</title>
<g id="a_edge12_Node000001_Node000008"><a xlink:title=" ">
<path fill="none" stroke="#63b8ff" d="M651.16,-106.65C605.39,-98.12 524.91,-83.09 456,-70 453.15,-69.46 450.19,-68.89 447.23,-68.33"/>
<polygon fill="#63b8ff" stroke="#63b8ff" points="650.73,-110.13 661.2,-108.52 652.01,-103.24 650.73,-110.13"/>
</a>
</g>
</g>
<!-- Node9 -->
<g id="Node000009" class="node">
<title>Node9</title>
<g id="a_Node000009"><a xlink:href="../../d8/d85/eidbest__first_8hpp.html" target="_top" xlink:title=" ">
<polygon fill="white" stroke="#666666" points="540.5,-70 465.5,-70 465.5,-53 540.5,-53 540.5,-70"/>
<text text-anchor="middle" x="503" y="-59.6" font-family="Helvetica,sans-Serif" font-size="8.00">eidbest_first.hpp</text>
</a>
</g>
</g>
<!-- Node1&#45;&gt;Node9 -->
<g id="edge14_Node000001_Node000009" class="edge">
<title>Node1&#45;&gt;Node9</title>
<g id="a_edge14_Node000001_Node000009"><a xlink:title=" ">
<path fill="none" stroke="#63b8ff" d="M651.5,-103.44C615.88,-93.62 562.48,-78.9 530.36,-70.04"/>
<polygon fill="#63b8ff" stroke="#63b8ff" points="650.92,-106.91 661.49,-106.19 652.78,-100.16 650.92,-106.91"/>
</a>
</g>
</g>
<!-- Node10 -->
<g id="Node000010" class="node">
<title>Node10</title>
<g id="a_Node000010"><a xlink:href="../../dd/d95/eiddfs_8hpp.html" target="_top" xlink:title=" ">
<polygon fill="white" stroke="#666666" points="611.5,-70 558.5,-70 558.5,-53 611.5,-53 611.5,-70"/>
<text text-anchor="middle" x="585" y="-59.6" font-family="Helvetica,sans-Serif" font-size="8.00">eiddfs.hpp</text>
</a>
</g>
</g>
<!-- Node1&#45;&gt;Node10 -->
<g id="edge16_Node000001_Node000010" class="edge">
<title>Node1&#45;&gt;Node10</title>
<g id="a_edge16_Node000001_Node000010"><a xlink:title=" ">
<path fill="none" stroke="#63b8ff" d="M663.83,-101.53C644.17,-91.8 617.02,-78.36 600.26,-70.06"/>
<polygon fill="#63b8ff" stroke="#63b8ff" points="662.29,-104.67 672.8,-105.97 665.39,-98.4 662.29,-104.67"/>
</a>
</g>
</g>
<!-- Node11 -->
<g id="Node000011" class="node">
<title>Node11</title>
<g id="a_Node000011"><a xlink:href="../../d8/d12/flood_8hpp.html" target="_top" xlink:title=" ">
<polygon fill="white" stroke="#666666" points="680,-70 630,-70 630,-53 680,-53 680,-70"/>
<text text-anchor="middle" x="655" y="-59.6" font-family="Helvetica,sans-Serif" font-size="8.00">flood.hpp</text>
</a>
</g>
</g>
<!-- Node1&#45;&gt;Node11 -->
<g id="edge18_Node000001_Node000011" class="edge">
<title>Node1&#45;&gt;Node11</title>
<g id="a_edge18_Node000001_Node000011"><a xlink:title=" ">
<path fill="none" stroke="#63b8ff" d="M677.56,-97.36C671.65,-88.23 664.53,-77.22 659.89,-70.06"/>
<polygon fill="#63b8ff" stroke="#63b8ff" points="674.76,-99.48 683.13,-105.97 680.64,-95.68 674.76,-99.48"/>
</a>
</g>
</g>
<!-- Node12 -->
<g id="Node000012" class="node">
<title>Node12</title>
<g id="a_Node000012"><a xlink:href="../../d1/d5a/fstar_8hpp.html" target="_top" xlink:title=" ">
<polygon fill="white" stroke="#666666" points="745.5,-70 698.5,-70 698.5,-53 745.5,-53 745.5,-70"/>
<text text-anchor="middle" x="722" y="-59.6" font-family="Helvetica,sans-Serif" font-size="8.00">fstar.hpp</text>
</a>
</g>
</g>
<!-- Node1&#45;&gt;Node12 -->
<g id="edge20_Node000001_Node000012" class="edge">
<title>Node1&#45;&gt;Node12</title>
<g id="a_edge20_Node000001_Node000012"><a xlink:title=" ">
<path fill="none" stroke="#63b8ff" d="M698.56,-97.65C704.69,-88.46 712.13,-77.3 716.96,-70.06"/>
<polygon fill="#63b8ff" stroke="#63b8ff" points="695.65,-95.71 693.02,-105.97 701.48,-99.6 695.65,-95.71"/>
</a>
</g>
</g>
<!-- Node13 -->
<g id="Node000013" class="node">
<title>Node13</title>
<g id="a_Node000013"><a xlink:href="../../d3/d3e/gbest__first_8hpp.html" target="_top" xlink:title=" ">
<polygon fill="white" stroke="#666666" points="832.5,-70 763.5,-70 763.5,-53 832.5,-53 832.5,-70"/>
<text text-anchor="middle" x="798" y="-59.6" font-family="Helvetica,sans-Serif" font-size="8.00">gbest_first.hpp</text>
</a>
</g>
</g>
<!-- Node1&#45;&gt;Node13 -->
<g id="edge22_Node000001_Node000013" class="edge">
<title>Node1&#45;&gt;Node13</title>
<g id="a_edge22_Node000001_Node000013"><a xlink:title=" ">
<path fill="none" stroke="#63b8ff" d="M713.53,-101.66C734.55,-91.92 763.72,-78.39 781.7,-70.06"/>
<polygon fill="#63b8ff" stroke="#63b8ff" points="711.83,-98.59 704.23,-105.97 714.78,-104.94 711.83,-98.59"/>
</a>
</g>
</g>
<!-- Node14 -->
<g id="Node000014" class="node">
<title>Node14</title>
<g id="a_Node000014"><a xlink:href="../../de/d94/gbfs_8hpp.html" target="_top" xlink:title=" ">
<polygon fill="white" stroke="#666666" points="897.5,-70 850.5,-70 850.5,-53 897.5,-53 897.5,-70"/>
<text text-anchor="middle" x="874" y="-59.6" font-family="Helvetica,sans-Serif" font-size="8.00">gbfs.hpp</text>
</a>
</g>
</g>
<!-- Node1&#45;&gt;Node14 -->
<g id="edge24_Node000001_Node000014" class="edge">
<title>Node1&#45;&gt;Node14</title>
<g id="a_edge24_Node000001_Node000014"><a xlink:title=" ">
<path fill="none" stroke="#63b8ff" d="M724.61,-103.46C761.9,-93.24 818.6,-77.69 850.35,-68.99"/>
<polygon fill="#63b8ff" stroke="#63b8ff" points="723.37,-100.17 714.65,-106.19 725.22,-106.92 723.37,-100.17"/>
</a>
</g>
</g>
<!-- Node15 -->
<g id="Node000015" class="node">
<title>Node15</title>
<g id="a_Node000015"><a xlink:href="../../d4/df2/gdfs_8hpp.html" target="_top" xlink:title=" ">
<polygon fill="white" stroke="#666666" points="962.5,-70 915.5,-70 915.5,-53 962.5,-53 962.5,-70"/>
<text text-anchor="middle" x="939" y="-59.6" font-family="Helvetica,sans-Serif" font-size="8.00">gdfs.hpp</text>
</a>
</g>
</g>
<!-- Node1&#45;&gt;Node15 -->
<g id="edge26_Node000001_Node000015" class="edge">
<title>Node1&#45;&gt;Node15</title>
<g id="a_edge26_Node000001_Node000015"><a xlink:title=" ">
<path fill="none" stroke="#63b8ff" d="M724.54,-106.64C768.08,-98.37 842.99,-83.85 907,-70 909.68,-69.42 912.48,-68.79 915.25,-68.16"/>
<polygon fill="#63b8ff" stroke="#63b8ff" points="723.87,-103.2 714.69,-108.5 725.17,-110.08 723.87,-103.2"/>
</a>
</g>
</g>
<!-- Node16 -->
<g id="Node000016" class="node">
<title>Node16</title>
<g id="a_Node000016"><a xlink:href="../../d3/d3e/gjps_8hpp.html" target="_top" xlink:title=" ">
<polygon fill="white" stroke="#666666" points="1027.5,-70 980.5,-70 980.5,-53 1027.5,-53 1027.5,-70"/>
<text text-anchor="middle" x="1004" y="-59.6" font-family="Helvetica,sans-Serif" font-size="8.00">gjps.hpp</text>
</a>
</g>
</g>
<!-- Node1&#45;&gt;Node16 -->
<g id="edge28_Node000001_Node000016" class="edge">
<title>Node1&#45;&gt;Node16</title>
<g id="a_edge28_Node000001_Node000016"><a xlink:title=" ">
<path fill="none" stroke="#63b8ff" d="M724.92,-108.78C779.26,-101.63 883.85,-87.05 972,-70 974.69,-69.48 977.49,-68.89 980.28,-68.28"/>
<polygon fill="#63b8ff" stroke="#63b8ff" points="724.21,-105.35 714.74,-110.11 725.11,-112.29 724.21,-105.35"/>
</a>
</g>
</g>
<!-- Node17 -->
<g id="Node000017" class="node">
<title>Node17</title>
<g id="a_Node000017"><a xlink:href="../../d1/def/gstar_8hpp.html" target="_top" xlink:title=" ">
<polygon fill="white" stroke="#666666" points="1096,-70 1046,-70 1046,-53 1096,-53 1096,-70"/>
<text text-anchor="middle" x="1071" y="-59.6" font-family="Helvetica,sans-Serif" font-size="8.00">gstar.hpp</text>
</a>
</g>
</g>
<!-- Node1&#45;&gt;Node17 -->
<g id="edge30_Node000001_Node000017" class="edge">
<title>Node1&#45;&gt;Node17</title>
<g id="a_edge30_Node000001_Node000017"><a xlink:title=" ">
<path fill="none" stroke="#63b8ff" d="M724.81,-110.05C788.64,-103.82 923.86,-89.49 1037,-70 1039.86,-69.51 1042.84,-68.94 1045.8,-68.33"/>
<polygon fill="#63b8ff" stroke="#63b8ff" points="724.45,-106.57 714.83,-111.02 725.12,-113.54 724.45,-106.57"/>
</a>
</g>
</g>
<!-- Node18 -->
<g id="Node000018" class="node">
<title>Node18</title>
<g id="a_Node000018"><a xlink:href="../../db/df9/idastar_8hpp.html" target="_top" xlink:title=" ">
<polygon fill="white" stroke="#666666" points="1170,-70 1114,-70 1114,-53 1170,-53 1170,-70"/>
<text text-anchor="middle" x="1142" y="-59.6" font-family="Helvetica,sans-Serif" font-size="8.00">idastar.hpp</text>
</a>
</g>
</g>
<!-- Node1&#45;&gt;Node18 -->
<g id="edge32_Node000001_Node000018" class="edge">
<title>Node1&#45;&gt;Node18</title>
<g id="a_edge32_Node000001_Node000018"><a xlink:title=" ">
<path fill="none" stroke="#63b8ff" d="M725.01,-110.84C797.98,-105.33 965.45,-91.37 1105,-70 1107.85,-69.56 1110.81,-69.06 1113.77,-68.51"/>
<polygon fill="#63b8ff" stroke="#63b8ff" points="724.66,-107.36 714.95,-111.59 725.18,-114.34 724.66,-107.36"/>
</a>
</g>
</g>
<!-- Node19 -->
<g id="Node000019" class="node">
<title>Node19</title>
<g id="a_Node000019"><a xlink:href="../../d1/d3a/idbest__first_8hpp.html" target="_top" xlink:title=" ">
<polygon fill="white" stroke="#666666" points="1259.5,-70 1188.5,-70 1188.5,-53 1259.5,-53 1259.5,-70"/>
<text text-anchor="middle" x="1224" y="-59.6" font-family="Helvetica,sans-Serif" font-size="8.00">idbest_first.hpp</text>
</a>
</g>
</g>
<!-- Node1&#45;&gt;Node19 -->
<g id="edge34_Node000001_Node000019" class="edge">
<title>Node1&#45;&gt;Node19</title>
<g id="a_edge34_Node000001_Node000019"><a xlink:title=" ">
<path fill="none" stroke="#63b8ff" d="M724.73,-111.21C806.54,-105.91 1009.84,-91.56 1179,-70 1181.99,-69.62 1185.08,-69.19 1188.18,-68.73"/>
<polygon fill="#63b8ff" stroke="#63b8ff" points="724.44,-107.73 714.69,-111.86 724.89,-114.71 724.44,-107.73"/>
</a>
</g>
</g>
<!-- Node20 -->
<g id="Node000020" class="node">
<title>Node20</title>
<g id="a_Node000020"><a xlink:href="../../df/d71/iddfs_8hpp.html" target="_top" xlink:title=" ">
<polygon fill="white" stroke="#666666" points="1326.5,-70 1277.5,-70 1277.5,-53 1326.5,-53 1326.5,-70"/>
<text text-anchor="middle" x="1302" y="-59.6" font-family="Helvetica,sans-Serif" font-size="8.00">iddfs.hpp</text>
</a>
</g>
</g>
<!-- Node1&#45;&gt;Node20 -->
<g id="edge36_Node000001_Node000020" class="edge">
<title>Node1&#45;&gt;Node20</title>
<g id="a_edge36_Node000001_Node000020"><a xlink:title=" ">
<path fill="none" stroke="#63b8ff" d="M724.69,-112.65C816.76,-110.09 1064.78,-100.68 1269,-70 1271.67,-69.6 1274.45,-69.1 1277.21,-68.55"/>
<polygon fill="#63b8ff" stroke="#63b8ff" points="724.41,-109.15 714.5,-112.92 724.59,-116.15 724.41,-109.15"/>
</a>
</g>
</g>
<!-- Node21 -->
<g id="Node000021" class="node">
<title>Node21</title>
<g id="a_Node000021"><a xlink:href="../../d9/de6/jps_8hpp.html" target="_top" xlink:title=" ">
<polygon fill="white" stroke="#666666" points="1387,-70 1345,-70 1345,-53 1387,-53 1387,-70"/>
<text text-anchor="middle" x="1366" y="-59.6" font-family="Helvetica,sans-Serif" font-size="8.00">jps.hpp</text>
</a>
</g>
</g>
<!-- Node1&#45;&gt;Node21 -->
<g id="edge38_Node000001_Node000021" class="edge">
<title>Node1&#45;&gt;Node21</title>
<g id="a_edge38_Node000001_Node000021"><a xlink:title=" ">
<path fill="none" stroke="#63b8ff" d="M724.85,-113.31C824.17,-112.32 1105.48,-106.26 1336,-70 1338.86,-69.55 1341.85,-68.96 1344.79,-68.3"/>
<polygon fill="#63b8ff" stroke="#63b8ff" points="724.7,-109.82 714.73,-113.4 724.76,-116.81 724.7,-109.82"/>
</a>
</g>
</g>
<!-- Node2&#45;&gt;Node3 -->
<g id="edge2_Node000002_Node000003" class="edge">
<title>Node2&#45;&gt;Node3</title>
<g id="a_edge2_Node000002_Node000003"><a xlink:title=" ">
<path fill="none" stroke="#63b8ff" d="M60.14,-53.54C61.44,-53.35 62.73,-53.17 64,-53 296.86,-22.6 581.58,-12.52 664.38,-10.12"/>
<polygon fill="#63b8ff" stroke="#63b8ff" points="59.39,-50.12 50.1,-55.21 60.54,-57.02 59.39,-50.12"/>
</a>
</g>
</g>
<!-- Node4&#45;&gt;Node3 -->
<g id="edge4_Node000004_Node000003" class="edge">
<title>Node4&#45;&gt;Node3</title>
<g id="a_edge4_Node000004_Node000003"><a xlink:title=" ">
<path fill="none" stroke="#63b8ff" d="M181.61,-52.91C373.46,-27.65 593.02,-14.57 664.37,-10.72"/>
<polygon fill="#63b8ff" stroke="#63b8ff" points="181.08,-49.45 171.63,-54.24 182,-56.39 181.08,-49.45"/>
</a>
</g>
</g>
<!-- Node5&#45;&gt;Node3 -->
<g id="edge6_Node000005_Node000003" class="edge">
<title>Node5&#45;&gt;Node3</title>
<g id="a_edge6_Node000005_Node000003"><a xlink:title=" ">
<path fill="none" stroke="#63b8ff" d="M242.46,-53.01C408.8,-24.89 598.27,-13.81 664.09,-10.58"/>
<polygon fill="#63b8ff" stroke="#63b8ff" points="241.81,-49.57 232.55,-54.71 243,-56.47 241.81,-49.57"/>
</a>
</g>
</g>
<!-- Node6&#45;&gt;Node3 -->
<g id="edge9_Node000006_Node000003" class="edge">
<title>Node6&#45;&gt;Node3</title>
<g id="a_edge9_Node000006_Node000003"><a xlink:title=" ">
<path fill="none" stroke="#63b8ff" d="M303.75,-52.92C445.76,-27.83 605.15,-15.22 664.34,-11.07"/>
<polygon fill="#63b8ff" stroke="#63b8ff" points="302.78,-49.54 293.56,-54.75 304.02,-56.43 302.78,-49.54"/>
</a>
</g>
</g>
<!-- Node7&#45;&gt;Node3 -->
<g id="edge11_Node000007_Node000003" class="edge">
<title>Node7&#45;&gt;Node3</title>
<g id="a_edge11_Node000007_Node000003"><a xlink:title=" ">
<path fill="none" stroke="#63b8ff" d="M378.47,-53.02C491.55,-34.14 613.64,-18.6 664.21,-12.38"/>
<polygon fill="#63b8ff" stroke="#63b8ff" points="377.88,-49.57 368.6,-54.68 379.04,-56.47 377.88,-49.57"/>
</a>
</g>
</g>
<!-- Node8&#45;&gt;Node3 -->
<g id="edge13_Node000008_Node000003" class="edge">
<title>Node8&#45;&gt;Node3</title>
<g id="a_edge13_Node000008_Node000003"><a xlink:title=" ">
<path fill="none" stroke="#63b8ff" d="M457.2,-52.78C539.06,-37.25 623.92,-21.42 664.28,-13.91"/>
<polygon fill="#63b8ff" stroke="#63b8ff" points="456.4,-49.37 447.23,-54.67 457.71,-56.25 456.4,-49.37"/>
</a>
</g>
</g>
<!-- Node9&#45;&gt;Node3 -->
<g id="edge15_Node000009_Node000003" class="edge">
<title>Node9&#45;&gt;Node3</title>
<g id="a_edge15_Node000009_Node000003"><a xlink:title=" ">
<path fill="none" stroke="#63b8ff" d="M540.22,-50.24C577.28,-40.02 633.05,-24.65 664.41,-16"/>
<polygon fill="#63b8ff" stroke="#63b8ff" points="539.01,-46.94 530.3,-52.97 540.87,-53.69 539.01,-46.94"/>
</a>
</g>
</g>
<!-- Node10&#45;&gt;Node3 -->
<g id="edge17_Node000010_Node000003" class="edge">
<title>Node10&#45;&gt;Node3</title>
<g id="a_edge17_Node000010_Node000003"><a xlink:title=" ">
<path fill="none" stroke="#63b8ff" d="M609.17,-48.53C628.83,-38.8 655.98,-25.36 672.74,-17.06"/>
<polygon fill="#63b8ff" stroke="#63b8ff" points="607.61,-45.4 600.2,-52.97 610.71,-51.67 607.61,-45.4"/>
</a>
</g>
</g>
<!-- Node11&#45;&gt;Node3 -->
<g id="edge19_Node000011_Node000003" class="edge">
<title>Node11&#45;&gt;Node3</title>
<g id="a_edge19_Node000011_Node000003"><a xlink:title=" ">
<path fill="none" stroke="#63b8ff" d="M665.44,-44.36C671.35,-35.23 678.47,-24.22 683.11,-17.06"/>
<polygon fill="#63b8ff" stroke="#63b8ff" points="662.36,-42.68 659.87,-52.97 668.24,-46.48 662.36,-42.68"/>
</a>
</g>
</g>
<!-- Node12&#45;&gt;Node3 -->
<g id="edge21_Node000012_Node000003" class="edge">
<title>Node12&#45;&gt;Node3</title>
<g id="a_edge21_Node000012_Node000003"><a xlink:title=" ">
<path fill="none" stroke="#63b8ff" d="M711.44,-44.65C705.31,-35.46 697.87,-24.3 693.04,-17.06"/>
<polygon fill="#63b8ff" stroke="#63b8ff" points="708.52,-46.6 716.98,-52.97 714.35,-42.71 708.52,-46.6"/>
</a>
</g>
</g>
<!-- Node13&#45;&gt;Node3 -->
<g id="edge23_Node000013_Node000003" class="edge">
<title>Node13&#45;&gt;Node3</title>
<g id="a_edge23_Node000013_Node000003"><a xlink:title=" ">
<path fill="none" stroke="#63b8ff" d="M772.47,-48.66C751.45,-38.92 722.28,-25.39 704.3,-17.06"/>
<polygon fill="#63b8ff" stroke="#63b8ff" points="771.22,-51.94 781.77,-52.97 774.17,-45.59 771.22,-51.94"/>
</a>
</g>
</g>
<!-- Node14&#45;&gt;Node3 -->
<g id="edge25_Node000014_Node000003" class="edge">
<title>Node14&#45;&gt;Node3</title>
<g id="a_edge25_Node000014_Node000003"><a xlink:title=" ">
<path fill="none" stroke="#63b8ff" d="M840.58,-51.34C803.42,-41.15 744.33,-24.94 711.66,-15.99"/>
<polygon fill="#63b8ff" stroke="#63b8ff" points="839.87,-54.77 850.44,-54.04 841.72,-48.02 839.87,-54.77"/>
</a>
</g>
</g>
<!-- Node15&#45;&gt;Node3 -->
<g id="edge27_Node000015_Node000003" class="edge">
<title>Node15&#45;&gt;Node3</title>
<g id="a_edge27_Node000015_Node000003"><a xlink:title=" ">
<path fill="none" stroke="#63b8ff" d="M905.03,-52.63C829,-36.29 750.22,-21.2 711.71,-13.94"/>
<polygon fill="#63b8ff" stroke="#63b8ff" points="904.74,-56.15 915.25,-54.84 906.22,-49.31 904.74,-56.15"/>
</a>
</g>
</g>
<!-- Node16&#45;&gt;Node3 -->
<g id="edge29_Node000016_Node000003" class="edge">
<title>Node16&#45;&gt;Node3</title>
<g id="a_edge29_Node000016_Node000003"><a xlink:title=" ">
<path fill="none" stroke="#63b8ff" d="M970.17,-52.78C868.64,-33.43 758.96,-18.59 711.67,-12.49"/>
<polygon fill="#63b8ff" stroke="#63b8ff" points="969.8,-56.27 980.28,-54.72 971.12,-49.39 969.8,-56.27"/>
</a>
</g>
</g>
<!-- Node17&#45;&gt;Node3 -->
<g id="edge31_Node000017_Node000003" class="edge">
<title>Node17&#45;&gt;Node3</title>
<g id="a_edge31_Node000017_Node000003"><a xlink:title=" ">
<path fill="none" stroke="#63b8ff" d="M1035.84,-52.96C908.04,-31.31 766.99,-16.95 711.81,-11.7"/>
<polygon fill="#63b8ff" stroke="#63b8ff" points="1035.35,-56.43 1045.8,-54.67 1036.54,-49.53 1035.35,-56.43"/>
</a>
</g>
</g>
<!-- Node18&#45;&gt;Node3 -->
<g id="edge33_Node000018_Node000003" class="edge">
<title>Node18&#45;&gt;Node3</title>
<g id="a_edge33_Node000018_Node000003"><a xlink:title=" ">
<path fill="none" stroke="#63b8ff" d="M1103.57,-52.93C948.35,-29.58 773.97,-15.73 711.61,-11.16"/>
<polygon fill="#63b8ff" stroke="#63b8ff" points="1103.36,-56.44 1113.77,-54.49 1104.41,-49.52 1103.36,-56.44"/>
</a>
</g>
</g>
<!-- Node19&#45;&gt;Node3 -->
<g id="edge35_Node000019_Node000003" class="edge">
<title>Node19&#45;&gt;Node3</title>
<g id="a_edge35_Node000019_Node000003"><a xlink:title=" ">
<path fill="none" stroke="#63b8ff" d="M1178.22,-53.01C992.28,-29.66 781.23,-15.35 711.58,-10.94"/>
<polygon fill="#63b8ff" stroke="#63b8ff" points="1177.81,-56.49 1188.18,-54.27 1178.69,-49.54 1177.81,-56.49"/>
</a>
</g>
</g>
<!-- Node20&#45;&gt;Node3 -->
<g id="edge37_Node000020_Node000003" class="edge">
<title>Node20&#45;&gt;Node3</title>
<g id="a_edge37_Node000020_Node000003"><a xlink:title=" ">
<path fill="none" stroke="#63b8ff" d="M1267.05,-52.94C1046.26,-20.47 789.73,-11.96 711.66,-10.01"/>
<polygon fill="#63b8ff" stroke="#63b8ff" points="1266.8,-56.44 1277.21,-54.45 1267.83,-49.51 1266.8,-56.44"/>
</a>
</g>
</g>
<!-- Node21&#45;&gt;Node3 -->
<g id="edge39_Node000021_Node000003" class="edge">
<title>Node21&#45;&gt;Node3</title>
<g id="a_edge39_Node000021_Node000003"><a xlink:title=" ">
<path fill="none" stroke="#63b8ff" d="M1334.86,-53.15C1086.49,-14.86 795.63,-10.15 711.71,-9.57"/>
<polygon fill="#63b8ff" stroke="#63b8ff" points="1334.37,-56.61 1344.79,-54.7 1335.45,-49.7 1334.37,-56.61"/>
</a>
</g>
</g>
</g>
</svg>
