<?xml version="1.0" encoding="UTF-8" standalone="no"?>
<!DOCTYPE svg PUBLIC "-//W3C//DTD SVG 1.1//EN"
 "http://www.w3.org/Graphics/SVG/1.1/DTD/svg11.dtd">
<!-- Generated by graphviz version 2.43.0 (0)
 -->
<!-- Title: solver.hpp Pages: 1 -->
<svg width="1523pt" height="131pt"
 viewBox="0.00 0.00 1523.00 131.00" xmlns="http://www.w3.org/2000/svg" xmlns:xlink="http://www.w3.org/1999/xlink">
<g id="graph0" class="graph" transform="scale(1 1) rotate(0) translate(4 127)">
<title>solver.hpp</title>
<!-- Node1 -->
<g id="Node000001" class="node">
<title>Node1</title>
<g id="a_Node000001"><a xlink:title=" ">
<polygon fill="#999999" stroke="#666666" points="779,-123 720,-123 720,-106 779,-106 779,-123"/>
<text text-anchor="middle" x="749.5" y="-112.6" font-family="Helvetica,sans-Serif" font-size="8.00">solver.hpp</text>
</a>
</g>
</g>
<!-- Node2 -->
<g id="Node000002" class="node">
<title>Node2</title>
<g id="a_Node000002"><a xlink:href="../../dc/da9/astar_8hpp.html" target="_top" xlink:title=" ">
<polygon fill="white" stroke="#666666" points="55,-70 0,-70 0,-53 55,-53 55,-70"/>
<text text-anchor="middle" x="27.5" y="-59.6" font-family="Helvetica,sans-Serif" font-size="8.00">astar.hpp</text>
</a>
</g>
</g>
<!-- Node1&#45;&gt;Node2 -->
<g id="edge1_Node000001_Node000002" class="edge">
<title>Node1&#45;&gt;Node2</title>
<g id="a_edge1_Node000001_Node000002"><a xlink:title=" ">
<path fill="none" stroke="#63b8ff" d="M709.76,-112.52C604.8,-109.61 311.63,-99.27 69.5,-70 64.94,-69.45 60.13,-68.72 55.45,-67.94"/>
<polygon fill="#63b8ff" stroke="#63b8ff" points="709.81,-116.03 719.9,-112.8 710,-109.03 709.81,-116.03"/>
</a>
</g>
</g>
<!-- Node3 -->
<g id="Node000003" class="node">
<title>Node3</title>
<g id="a_Node000003"><a xlink:href="../../d9/d96/chdr_8hpp.html" target="_top" xlink:title=" ">
<polygon fill="white" stroke="#666666" points="775.5,-17 723.5,-17 723.5,0 775.5,0 775.5,-17"/>
<text text-anchor="middle" x="749.5" y="-6.6" font-family="Helvetica,sans-Serif" font-size="8.00">chdr.hpp</text>
</a>
</g>
</g>
<!-- Node1&#45;&gt;Node3 -->
<g id="edge7_Node000001_Node000003" class="edge">
<title>Node1&#45;&gt;Node3</title>
<g id="a_edge7_Node000001_Node000003"><a xlink:title=" ">
<path fill="none" stroke="#63b8ff" d="M709.45,-113.9C574.72,-114.84 143.95,-114.34 102.5,-70 97.34,-64.48 97.34,-58.52 102.5,-53 145.51,-7 607.59,-8.18 723.33,-9.21"/>
<polygon fill="#63b8ff" stroke="#63b8ff" points="709.76,-117.4 719.74,-113.82 709.71,-110.4 709.76,-117.4"/>
</a>
</g>
</g>
<!-- Node4 -->
<g id="Node000004" class="node">
<title>Node4</title>
<g id="a_Node000004"><a xlink:href="../../d3/d77/best__first_8hpp.html" target="_top" xlink:title=" ">
<polygon fill="white" stroke="#666666" points="183.5,-70 111.5,-70 111.5,-53 183.5,-53 183.5,-70"/>
<text text-anchor="middle" x="147.5" y="-59.6" font-family="Helvetica,sans-Serif" font-size="8.00">best_first.hpp</text>
</a>
</g>
</g>
<!-- Node1&#45;&gt;Node4 -->
<g id="edge3_Node000001_Node000004" class="edge">
<title>Node1&#45;&gt;Node4</title>
<g id="a_edge3_Node000001_Node000004"><a xlink:title=" ">
<path fill="none" stroke="#63b8ff" d="M709.61,-111.58C618.01,-106.91 385.6,-93.59 192.5,-70 189.67,-69.65 186.75,-69.26 183.81,-68.83"/>
<polygon fill="#63b8ff" stroke="#63b8ff" points="709.66,-115.09 719.82,-112.1 710.01,-108.1 709.66,-115.09"/>
</a>
</g>
</g>
<!-- Node5 -->
<g id="Node000005" class="node">
<title>Node5</title>
<g id="a_Node000005"><a xlink:href="../../da/d36/bfs_8hpp.html" target="_top" xlink:title=" ">
<polygon fill="white" stroke="#666666" points="249,-70 202,-70 202,-53 249,-53 249,-70"/>
<text text-anchor="middle" x="225.5" y="-59.6" font-family="Helvetica,sans-Serif" font-size="8.00">bfs.hpp</text>
</a>
</g>
</g>
<!-- Node1&#45;&gt;Node5 -->
<g id="edge5_Node000001_Node000005" class="edge">
<title>Node1&#45;&gt;Node5</title>
<g id="a_edge5_Node000001_Node000005"><a xlink:title=" ">
<path fill="none" stroke="#63b8ff" d="M709.82,-111.9C625.88,-108.11 424.35,-96.79 257.5,-70 254.8,-69.57 251.98,-69.03 249.19,-68.45"/>
<polygon fill="#63b8ff" stroke="#63b8ff" points="709.78,-115.41 719.93,-112.35 710.09,-108.41 709.78,-115.41"/>
</a>
</g>
</g>
<!-- Node6 -->
<g id="Node000006" class="node">
<title>Node6</title>
<g id="a_Node000006"><a xlink:href="../../d3/dec/dfs_8hpp.html" target="_top" xlink:title=" ">
<polygon fill="white" stroke="#666666" points="314,-70 267,-70 267,-53 314,-53 314,-70"/>
<text text-anchor="middle" x="290.5" y="-59.6" font-family="Helvetica,sans-Serif" font-size="8.00">dfs.hpp</text>
</a>
</g>
</g>
<!-- Node1&#45;&gt;Node6 -->
<g id="edge8_Node000001_Node000006" class="edge">
<title>Node1&#45;&gt;Node6</title>
<g id="a_edge8_Node000001_Node000006"><a xlink:title=" ">
<path fill="none" stroke="#63b8ff" d="M709.77,-111.17C634.03,-106.34 463.94,-93.68 322.5,-70 319.8,-69.55 316.99,-69 314.2,-68.41"/>
<polygon fill="#63b8ff" stroke="#63b8ff" points="709.62,-114.66 719.82,-111.8 710.06,-107.68 709.62,-114.66"/>
</a>
</g>
</g>
<!-- Node7 -->
<g id="Node000007" class="node">
<title>Node7</title>
<g id="a_Node000007"><a xlink:href="../../d3/d11/dijkstra_8hpp.html" target="_top" xlink:title=" ">
<polygon fill="white" stroke="#666666" points="397,-70 332,-70 332,-53 397,-53 397,-70"/>
<text text-anchor="middle" x="364.5" y="-59.6" font-family="Helvetica,sans-Serif" font-size="8.00">dijkstra.hpp</text>
</a>
</g>
</g>
<!-- Node1&#45;&gt;Node7 -->
<g id="edge10_Node000001_Node000007" class="edge">
<title>Node1&#45;&gt;Node7</title>
<g id="a_edge10_Node000001_Node000007"><a xlink:title=" ">
<path fill="none" stroke="#63b8ff" d="M709.53,-109.1C645.45,-101.88 515.83,-86.68 406.5,-70 403.42,-69.53 400.23,-69.01 397.03,-68.48"/>
<polygon fill="#63b8ff" stroke="#63b8ff" points="709.28,-112.59 719.61,-110.22 710.06,-105.63 709.28,-112.59"/>
</a>
</g>
</g>
<!-- Node8 -->
<g id="Node000008" class="node">
<title>Node8</title>
<g id="a_Node000008"><a xlink:href="../../d6/ded/eidastar_8hpp.html" target="_top" xlink:title=" ">
<polygon fill="white" stroke="#666666" points="483.5,-70 415.5,-70 415.5,-53 483.5,-53 483.5,-70"/>
<text text-anchor="middle" x="449.5" y="-59.6" font-family="Helvetica,sans-Serif" font-size="8.00">eidastar.hpp</text>
</a>
</g>
</g>
<!-- Node1&#45;&gt;Node8 -->
<g id="edge12_Node000001_Node000008" class="edge">
<title>Node1&#45;&gt;Node8</title>
<g id="a_edge12_Node000001_Node000008"><a xlink:title=" ">
<path fill="none" stroke="#63b8ff" d="M709.64,-106.82C659.11,-98.33 569.32,-83.2 492.5,-70 489.66,-69.51 486.72,-69 483.76,-68.49"/>
<polygon fill="#63b8ff" stroke="#63b8ff" points="709.37,-110.32 719.81,-108.52 710.53,-103.42 709.37,-110.32"/>
</a>
</g>
</g>
<!-- Node9 -->
<g id="Node000009" class="node">
<title>Node9</title>
<g id="a_Node000009"><a xlink:href="../../d8/d85/eidbest__first_8hpp.html" target="_top" xlink:title=" ">
<polygon fill="white" stroke="#666666" points="587,-70 502,-70 502,-53 587,-53 587,-70"/>
<text text-anchor="middle" x="544.5" y="-59.6" font-family="Helvetica,sans-Serif" font-size="8.00">eidbest_first.hpp</text>
</a>
</g>
</g>
<!-- Node1&#45;&gt;Node9 -->
<g id="edge14_Node000001_Node000009" class="edge">
<title>Node1&#45;&gt;Node9</title>
<g id="a_edge14_Node000001_Node000009"><a xlink:title=" ">
<path fill="none" stroke="#63b8ff" d="M709.86,-103.64C670.34,-93.81 610.5,-78.92 574.68,-70.01"/>
<polygon fill="#63b8ff" stroke="#63b8ff" points="709.14,-107.07 719.69,-106.08 710.83,-100.27 709.14,-107.07"/>
</a>
</g>
</g>
<!-- Node10 -->
<g id="Node000010" class="node">
<title>Node10</title>
<g id="a_Node000010"><a xlink:href="../../dd/d95/eiddfs_8hpp.html" target="_top" xlink:title=" ">
<polygon fill="white" stroke="#666666" points="665.5,-70 605.5,-70 605.5,-53 665.5,-53 665.5,-70"/>
<text text-anchor="middle" x="635.5" y="-59.6" font-family="Helvetica,sans-Serif" font-size="8.00">eiddfs.hpp</text>
</a>
</g>
</g>
<!-- Node1&#45;&gt;Node10 -->
<g id="edge16_Node000001_Node000010" class="edge">
<title>Node1&#45;&gt;Node10</title>
<g id="a_edge16_Node000001_Node000010"><a xlink:title=" ">
<path fill="none" stroke="#63b8ff" d="M723.34,-101.8C701.53,-92.04 671.11,-78.43 652.39,-70.06"/>
<polygon fill="#63b8ff" stroke="#63b8ff" points="722.12,-105.09 732.68,-105.97 724.98,-98.7 722.12,-105.09"/>
</a>
</g>
</g>
<!-- Node11 -->
<g id="Node000011" class="node">
<title>Node11</title>
<g id="a_Node000011"><a xlink:href="../../d8/d12/flood_8hpp.html" target="_top" xlink:title=" ">
<polygon fill="white" stroke="#666666" points="739.5,-70 683.5,-70 683.5,-53 739.5,-53 739.5,-70"/>
<text text-anchor="middle" x="711.5" y="-59.6" font-family="Helvetica,sans-Serif" font-size="8.00">flood.hpp</text>
</a>
</g>
</g>
<!-- Node1&#45;&gt;Node11 -->
<g id="edge18_Node000001_Node000011" class="edge">
<title>Node1&#45;&gt;Node11</title>
<g id="a_edge18_Node000001_Node000011"><a xlink:title=" ">
<path fill="none" stroke="#63b8ff" d="M737.91,-97.94C731.01,-88.69 722.58,-77.37 717.13,-70.06"/>
<polygon fill="#63b8ff" stroke="#63b8ff" points="735.11,-100.05 743.89,-105.97 740.72,-95.86 735.11,-100.05"/>
</a>
</g>
</g>
<!-- Node12 -->
<g id="Node000012" class="node">
<title>Node12</title>
<g id="a_Node000012"><a xlink:href="../../d8/dd5/fringe_8hpp.html" target="_top" xlink:title=" ">
<polygon fill="white" stroke="#666666" points="817,-70 758,-70 758,-53 817,-53 817,-70"/>
<text text-anchor="middle" x="787.5" y="-59.6" font-family="Helvetica,sans-Serif" font-size="8.00">fringe.hpp</text>
</a>
</g>
</g>
<!-- Node1&#45;&gt;Node12 -->
<g id="edge20_Node000001_Node000012" class="edge">
<title>Node1&#45;&gt;Node12</title>
<g id="a_edge20_Node000001_Node000012"><a xlink:title=" ">
<path fill="none" stroke="#63b8ff" d="M761.09,-97.94C767.99,-88.69 776.42,-77.37 781.87,-70.06"/>
<polygon fill="#63b8ff" stroke="#63b8ff" points="758.28,-95.86 755.11,-105.97 763.89,-100.05 758.28,-95.86"/>
</a>
</g>
</g>
<!-- Node13 -->
<g id="Node000013" class="node">
<title>Node13</title>
<g id="a_Node000013"><a xlink:href="../../d3/d3e/gbest__first_8hpp.html" target="_top" xlink:title=" ">
<polygon fill="white" stroke="#666666" points="912,-70 835,-70 835,-53 912,-53 912,-70"/>
<text text-anchor="middle" x="873.5" y="-59.6" font-family="Helvetica,sans-Serif" font-size="8.00">gbest_first.hpp</text>
</a>
</g>
</g>
<!-- Node1&#45;&gt;Node13 -->
<g id="edge22_Node000001_Node000013" class="edge">
<title>Node1&#45;&gt;Node13</title>
<g id="a_edge22_Node000001_Node000013"><a xlink:title=" ">
<path fill="none" stroke="#63b8ff" d="M777.32,-102.06C801.08,-92.29 834.58,-78.51 855.13,-70.06"/>
<polygon fill="#63b8ff" stroke="#63b8ff" points="775.71,-98.93 767.8,-105.97 778.38,-105.41 775.71,-98.93"/>
</a>
</g>
</g>
<!-- Node14 -->
<g id="Node000014" class="node">
<title>Node14</title>
<g id="a_Node000014"><a xlink:href="../../de/d94/gbfs_8hpp.html" target="_top" xlink:title=" ">
<polygon fill="white" stroke="#666666" points="983,-70 930,-70 930,-53 983,-53 983,-70"/>
<text text-anchor="middle" x="956.5" y="-59.6" font-family="Helvetica,sans-Serif" font-size="8.00">gbfs.hpp</text>
</a>
</g>
</g>
<!-- Node1&#45;&gt;Node14 -->
<g id="edge24_Node000001_Node000014" class="edge">
<title>Node1&#45;&gt;Node14</title>
<g id="a_edge24_Node000001_Node000014"><a xlink:title=" ">
<path fill="none" stroke="#63b8ff" d="M788.9,-103.79C830.23,-93.61 894.08,-77.88 929.85,-69.06"/>
<polygon fill="#63b8ff" stroke="#63b8ff" points="788.03,-100.4 779.16,-106.19 789.71,-107.2 788.03,-100.4"/>
</a>
</g>
</g>
<!-- Node15 -->
<g id="Node000015" class="node">
<title>Node15</title>
<g id="a_Node000015"><a xlink:href="../../d4/df2/gdfs_8hpp.html" target="_top" xlink:title=" ">
<polygon fill="white" stroke="#666666" points="1054,-70 1001,-70 1001,-53 1054,-53 1054,-70"/>
<text text-anchor="middle" x="1027.5" y="-59.6" font-family="Helvetica,sans-Serif" font-size="8.00">gdfs.hpp</text>
</a>
</g>
</g>
<!-- Node1&#45;&gt;Node15 -->
<g id="edge26_Node000001_Node000015" class="edge">
<title>Node1&#45;&gt;Node15</title>
<g id="a_edge26_Node000001_Node000015"><a xlink:title=" ">
<path fill="none" stroke="#63b8ff" d="M789.12,-106.83C837.29,-98.63 921,-84.06 992.5,-70 995.18,-69.47 997.98,-68.9 1000.77,-68.33"/>
<polygon fill="#63b8ff" stroke="#63b8ff" points="788.38,-103.41 779.11,-108.53 789.56,-110.31 788.38,-103.41"/>
</a>
</g>
</g>
<!-- Node16 -->
<g id="Node000016" class="node">
<title>Node16</title>
<g id="a_Node000016"><a xlink:href="../../d3/d3e/gjps_8hpp.html" target="_top" xlink:title=" ">
<polygon fill="white" stroke="#666666" points="1124.5,-70 1072.5,-70 1072.5,-53 1124.5,-53 1124.5,-70"/>
<text text-anchor="middle" x="1098.5" y="-59.6" font-family="Helvetica,sans-Serif" font-size="8.00">gjps.hpp</text>
</a>
</g>
</g>
<!-- Node1&#45;&gt;Node16 -->
<g id="edge28_Node000001_Node000016" class="edge">
<title>Node1&#45;&gt;Node16</title>
<g id="a_edge28_Node000001_Node000016"><a xlink:title=" ">
<path fill="none" stroke="#63b8ff" d="M789.18,-108.95C848.89,-101.89 965.33,-87.29 1063.5,-70 1066.32,-69.5 1069.25,-68.94 1072.17,-68.36"/>
<polygon fill="#63b8ff" stroke="#63b8ff" points="788.57,-105.5 779.05,-110.14 789.39,-112.45 788.57,-105.5"/>
</a>
</g>
</g>
<!-- Node17 -->
<g id="Node000017" class="node">
<title>Node17</title>
<g id="a_Node000017"><a xlink:href="../../d1/def/gstar_8hpp.html" target="_top" xlink:title=" ">
<polygon fill="white" stroke="#666666" points="1198,-70 1143,-70 1143,-53 1198,-53 1198,-70"/>
<text text-anchor="middle" x="1170.5" y="-59.6" font-family="Helvetica,sans-Serif" font-size="8.00">gstar.hpp</text>
</a>
</g>
</g>
<!-- Node1&#45;&gt;Node17 -->
<g id="edge30_Node000001_Node000017" class="edge">
<title>Node1&#45;&gt;Node17</title>
<g id="a_edge30_Node000001_Node000017"><a xlink:title=" ">
<path fill="none" stroke="#63b8ff" d="M789.11,-110.16C858.94,-104.02 1008.37,-89.73 1133.5,-70 1136.48,-69.53 1139.58,-68.99 1142.67,-68.41"/>
<polygon fill="#63b8ff" stroke="#63b8ff" points="788.66,-106.69 779,-111.04 789.27,-113.66 788.66,-106.69"/>
</a>
</g>
</g>
<!-- Node18 -->
<g id="Node000018" class="node">
<title>Node18</title>
<g id="a_Node000018"><a xlink:href="../../db/df9/idastar_8hpp.html" target="_top" xlink:title=" ">
<polygon fill="white" stroke="#666666" points="1278.5,-70 1216.5,-70 1216.5,-53 1278.5,-53 1278.5,-70"/>
<text text-anchor="middle" x="1247.5" y="-59.6" font-family="Helvetica,sans-Serif" font-size="8.00">idastar.hpp</text>
</a>
</g>
</g>
<!-- Node1&#45;&gt;Node18 -->
<g id="edge32_Node000001_Node000018" class="edge">
<title>Node1&#45;&gt;Node18</title>
<g id="a_edge32_Node000001_Node000018"><a xlink:title=" ">
<path fill="none" stroke="#63b8ff" d="M789.15,-110.95C868.73,-105.56 1053.47,-91.71 1207.5,-70 1210.3,-69.61 1213.2,-69.15 1216.1,-68.67"/>
<polygon fill="#63b8ff" stroke="#63b8ff" points="788.82,-107.46 779.08,-111.62 789.29,-114.45 788.82,-107.46"/>
</a>
</g>
</g>
<!-- Node19 -->
<g id="Node000019" class="node">
<title>Node19</title>
<g id="a_Node000019"><a xlink:href="../../d1/d3a/idbest__first_8hpp.html" target="_top" xlink:title=" ">
<polygon fill="white" stroke="#666666" points="1376.5,-70 1296.5,-70 1296.5,-53 1376.5,-53 1376.5,-70"/>
<text text-anchor="middle" x="1336.5" y="-59.6" font-family="Helvetica,sans-Serif" font-size="8.00">idbest_first.hpp</text>
</a>
</g>
</g>
<!-- Node1&#45;&gt;Node19 -->
<g id="edge34_Node000001_Node000019" class="edge">
<title>Node1&#45;&gt;Node19</title>
<g id="a_edge34_Node000001_Node000019"><a xlink:title=" ">
<path fill="none" stroke="#63b8ff" d="M789.24,-111.26C878.51,-106.01 1101.69,-91.7 1287.5,-70 1290.41,-69.66 1293.4,-69.28 1296.42,-68.87"/>
<polygon fill="#63b8ff" stroke="#63b8ff" points="788.8,-107.78 779.02,-111.85 789.21,-114.77 788.8,-107.78"/>
</a>
</g>
</g>
<!-- Node20 -->
<g id="Node000020" class="node">
<title>Node20</title>
<g id="a_Node000020"><a xlink:href="../../df/d71/iddfs_8hpp.html" target="_top" xlink:title=" ">
<polygon fill="white" stroke="#666666" points="1450,-70 1395,-70 1395,-53 1450,-53 1450,-70"/>
<text text-anchor="middle" x="1422.5" y="-59.6" font-family="Helvetica,sans-Serif" font-size="8.00">iddfs.hpp</text>
</a>
</g>
</g>
<!-- Node1&#45;&gt;Node20 -->
<g id="edge36_Node000001_Node000020" class="edge">
<title>Node1&#45;&gt;Node20</title>
<g id="a_edge36_Node000001_Node000020"><a xlink:title=" ">
<path fill="none" stroke="#63b8ff" d="M789.42,-112.59C889.92,-109.92 1161.42,-100.24 1385.5,-70 1388.49,-69.6 1391.6,-69.1 1394.69,-68.55"/>
<polygon fill="#63b8ff" stroke="#63b8ff" points="789.03,-109.1 779.12,-112.86 789.21,-116.1 789.03,-109.1"/>
</a>
</g>
</g>
<!-- Node21 -->
<g id="Node000021" class="node">
<title>Node21</title>
<g id="a_Node000021"><a xlink:href="../../d9/de6/jps_8hpp.html" target="_top" xlink:title=" ">
<polygon fill="white" stroke="#666666" points="1515,-70 1468,-70 1468,-53 1515,-53 1515,-70"/>
<text text-anchor="middle" x="1491.5" y="-59.6" font-family="Helvetica,sans-Serif" font-size="8.00">jps.hpp</text>
</a>
</g>
</g>
<!-- Node1&#45;&gt;Node21 -->
<g id="edge38_Node000001_Node000021" class="edge">
<title>Node1&#45;&gt;Node21</title>
<g id="a_edge38_Node000001_Node000021"><a xlink:title=" ">
<path fill="none" stroke="#63b8ff" d="M789.24,-113.41C897.43,-112.67 1206.15,-107.18 1459.5,-70 1462.21,-69.6 1465.03,-69.09 1467.82,-68.52"/>
<polygon fill="#63b8ff" stroke="#63b8ff" points="789.08,-109.91 779.1,-113.47 789.12,-116.91 789.08,-109.91"/>
</a>
</g>
</g>
<!-- Node2&#45;&gt;Node3 -->
<g id="edge2_Node000002_Node000003" class="edge">
<title>Node2&#45;&gt;Node3</title>
<g id="a_edge2_Node000002_Node000003"><a xlink:title=" ">
<path fill="none" stroke="#63b8ff" d="M65.6,-53.5C66.92,-53.32 68.22,-53.15 69.5,-53 323.17,-22.34 632.87,-12.45 723.46,-10.11"/>
<polygon fill="#63b8ff" stroke="#63b8ff" points="64.8,-50.08 55.45,-55.06 65.86,-57 64.8,-50.08"/>
</a>
</g>
</g>
<!-- Node4&#45;&gt;Node3 -->
<g id="edge4_Node000004_Node000003" class="edge">
<title>Node4&#45;&gt;Node3</title>
<g id="a_edge4_Node000004_Node000003"><a xlink:title=" ">
<path fill="none" stroke="#63b8ff" d="M193.79,-52.96C403.82,-27.71 644.73,-14.6 723.32,-10.73"/>
<polygon fill="#63b8ff" stroke="#63b8ff" points="193.32,-49.49 183.81,-54.17 194.16,-56.44 193.32,-49.49"/>
</a>
</g>
</g>
<!-- Node5&#45;&gt;Node3 -->
<g id="edge6_Node000005_Node000003" class="edge">
<title>Node5&#45;&gt;Node3</title>
<g id="a_edge6_Node000005_Node000003"><a xlink:title=" ">
<path fill="none" stroke="#63b8ff" d="M259.25,-52.95C441.98,-24.23 651.21,-13.54 723.47,-10.5"/>
<polygon fill="#63b8ff" stroke="#63b8ff" points="258.52,-49.52 249.19,-54.55 259.62,-56.43 258.52,-49.52"/>
</a>
</g>
</g>
<!-- Node6&#45;&gt;Node3 -->
<g id="edge9_Node000006_Node000003" class="edge">
<title>Node6&#45;&gt;Node3</title>
<g id="a_edge9_Node000006_Node000003"><a xlink:title=" ">
<path fill="none" stroke="#63b8ff" d="M324.47,-52.88C480.98,-27.24 657.78,-14.97 723.35,-10.99"/>
<polygon fill="#63b8ff" stroke="#63b8ff" points="323.49,-49.5 314.2,-54.59 324.64,-56.4 323.49,-49.5"/>
</a>
</g>
</g>
<!-- Node7&#45;&gt;Node3 -->
<g id="edge11_Node000007_Node000003" class="edge">
<title>Node7&#45;&gt;Node3</title>
<g id="a_edge11_Node000007_Node000003"><a xlink:title=" ">
<path fill="none" stroke="#63b8ff" d="M407.13,-52.99C531.68,-34.18 667.15,-18.6 723.19,-12.38"/>
<polygon fill="#63b8ff" stroke="#63b8ff" points="406.39,-49.56 397.03,-54.52 407.45,-56.48 406.39,-49.56"/>
</a>
</g>
</g>
<!-- Node8&#45;&gt;Node3 -->
<g id="edge13_Node000008_Node000003" class="edge">
<title>Node8&#45;&gt;Node3</title>
<g id="a_edge13_Node000008_Node000003"><a xlink:title=" ">
<path fill="none" stroke="#63b8ff" d="M493.87,-52.77C583.94,-37.31 678.38,-21.43 723.22,-13.9"/>
<polygon fill="#63b8ff" stroke="#63b8ff" points="493.03,-49.37 483.76,-54.51 494.21,-56.26 493.03,-49.37"/>
</a>
</g>
</g>
<!-- Node9&#45;&gt;Node3 -->
<g id="edge15_Node000009_Node000003" class="edge">
<title>Node9&#45;&gt;Node3</title>
<g id="a_edge15_Node000009_Node000003"><a xlink:title=" ">
<path fill="none" stroke="#63b8ff" d="M584.69,-50.5C625.75,-40.29 688.31,-24.72 723.36,-16"/>
<polygon fill="#63b8ff" stroke="#63b8ff" points="583.61,-47.16 574.75,-52.97 585.3,-53.96 583.61,-47.16"/>
</a>
</g>
</g>
<!-- Node10&#45;&gt;Node3 -->
<g id="edge17_Node000010_Node000003" class="edge">
<title>Node10&#45;&gt;Node3</title>
<g id="a_edge17_Node000010_Node000003"><a xlink:title=" ">
<path fill="none" stroke="#63b8ff" d="M661.66,-48.8C683.47,-39.04 713.89,-25.43 732.61,-17.06"/>
<polygon fill="#63b8ff" stroke="#63b8ff" points="660.02,-45.7 652.32,-52.97 662.88,-52.09 660.02,-45.7"/>
</a>
</g>
</g>
<!-- Node11&#45;&gt;Node3 -->
<g id="edge19_Node000011_Node000003" class="edge">
<title>Node11&#45;&gt;Node3</title>
<g id="a_edge19_Node000011_Node000003"><a xlink:title=" ">
<path fill="none" stroke="#63b8ff" d="M723.09,-44.94C729.99,-35.69 738.42,-24.37 743.87,-17.06"/>
<polygon fill="#63b8ff" stroke="#63b8ff" points="720.28,-42.86 717.11,-52.97 725.89,-47.05 720.28,-42.86"/>
</a>
</g>
</g>
<!-- Node12&#45;&gt;Node3 -->
<g id="edge21_Node000012_Node000003" class="edge">
<title>Node12&#45;&gt;Node3</title>
<g id="a_edge21_Node000012_Node000003"><a xlink:title=" ">
<path fill="none" stroke="#63b8ff" d="M775.91,-44.94C769.01,-35.69 760.58,-24.37 755.13,-17.06"/>
<polygon fill="#63b8ff" stroke="#63b8ff" points="773.11,-47.05 781.89,-52.97 778.72,-42.86 773.11,-47.05"/>
</a>
</g>
</g>
<!-- Node13&#45;&gt;Node3 -->
<g id="edge23_Node000013_Node000003" class="edge">
<title>Node13&#45;&gt;Node3</title>
<g id="a_edge23_Node000013_Node000003"><a xlink:title=" ">
<path fill="none" stroke="#63b8ff" d="M845.68,-49.06C821.92,-39.29 788.42,-25.51 767.87,-17.06"/>
<polygon fill="#63b8ff" stroke="#63b8ff" points="844.62,-52.41 855.2,-52.97 847.29,-45.93 844.62,-52.41"/>
</a>
</g>
</g>
<!-- Node14&#45;&gt;Node3 -->
<g id="edge25_Node000014_Node000003" class="edge">
<title>Node14&#45;&gt;Node3</title>
<g id="a_edge25_Node000014_Node000003"><a xlink:title=" ">
<path fill="none" stroke="#63b8ff" d="M919.92,-51.49C878.55,-41.29 812.22,-24.95 775.71,-15.96"/>
<polygon fill="#63b8ff" stroke="#63b8ff" points="919.32,-54.94 929.86,-53.94 920.99,-48.15 919.32,-54.94"/>
</a>
</g>
</g>
<!-- Node15&#45;&gt;Node3 -->
<g id="edge27_Node000015_Node000003" class="edge">
<title>Node15&#45;&gt;Node3</title>
<g id="a_edge27_Node000015_Node000003"><a xlink:title=" ">
<path fill="none" stroke="#63b8ff" d="M990.81,-52.72C906.82,-36.33 818.75,-21.17 775.8,-13.91"/>
<polygon fill="#63b8ff" stroke="#63b8ff" points="990.28,-56.18 1000.77,-54.67 991.63,-49.31 990.28,-56.18"/>
</a>
</g>
</g>
<!-- Node16&#45;&gt;Node3 -->
<g id="edge29_Node000016_Node000003" class="edge">
<title>Node16&#45;&gt;Node3</title>
<g id="a_edge29_Node000016_Node000003"><a xlink:title=" ">
<path fill="none" stroke="#63b8ff" d="M1062.04,-52.86C949.85,-33.38 828.06,-18.55 775.65,-12.46"/>
<polygon fill="#63b8ff" stroke="#63b8ff" points="1061.71,-56.36 1072.17,-54.64 1062.92,-49.47 1061.71,-56.36"/>
</a>
</g>
</g>
<!-- Node17&#45;&gt;Node3 -->
<g id="edge31_Node000017_Node000003" class="edge">
<title>Node17&#45;&gt;Node3</title>
<g id="a_edge31_Node000017_Node000003"><a xlink:title=" ">
<path fill="none" stroke="#63b8ff" d="M1132.58,-53C992.1,-31.2 836.48,-16.89 775.68,-11.67"/>
<polygon fill="#63b8ff" stroke="#63b8ff" points="1132.24,-56.49 1142.67,-54.59 1133.33,-49.58 1132.24,-56.49"/>
</a>
</g>
</g>
<!-- Node18&#45;&gt;Node3 -->
<g id="edge33_Node000018_Node000003" class="edge">
<title>Node18&#45;&gt;Node3</title>
<g id="a_edge33_Node000018_Node000003"><a xlink:title=" ">
<path fill="none" stroke="#63b8ff" d="M1205.99,-52.92C1036.29,-29.4 844.48,-15.67 775.68,-11.15"/>
<polygon fill="#63b8ff" stroke="#63b8ff" points="1205.71,-56.41 1216.1,-54.33 1206.68,-49.48 1205.71,-56.41"/>
</a>
</g>
</g>
<!-- Node19&#45;&gt;Node3 -->
<g id="edge35_Node000019_Node000003" class="edge">
<title>Node19&#45;&gt;Node3</title>
<g id="a_edge35_Node000019_Node000003"><a xlink:title=" ">
<path fill="none" stroke="#63b8ff" d="M1286.48,-52.97C1083.72,-29.62 852.28,-15.35 775.6,-10.95"/>
<polygon fill="#63b8ff" stroke="#63b8ff" points="1286.08,-56.45 1296.42,-54.13 1286.89,-49.5 1286.08,-56.45"/>
</a>
</g>
</g>
<!-- Node20&#45;&gt;Node3 -->
<g id="edge37_Node000020_Node000003" class="edge">
<title>Node20&#45;&gt;Node3</title>
<g id="a_edge37_Node000020_Node000003"><a xlink:title=" ">
<path fill="none" stroke="#63b8ff" d="M1384.64,-53.11C1142.41,-21 861.52,-12.14 775.67,-10.06"/>
<polygon fill="#63b8ff" stroke="#63b8ff" points="1384.31,-56.59 1394.69,-54.45 1385.24,-49.65 1384.31,-56.59"/>
</a>
</g>
</g>
<!-- Node21&#45;&gt;Node3 -->
<g id="edge39_Node000021_Node000003" class="edge">
<title>Node21&#45;&gt;Node3</title>
<g id="a_edge39_Node000021_Node000003"><a xlink:title=" ">
<path fill="none" stroke="#63b8ff" d="M1457.79,-53.02C1186.75,-14.03 868.17,-9.89 775.78,-9.51"/>
<polygon fill="#63b8ff" stroke="#63b8ff" points="1457.42,-56.5 1467.82,-54.48 1458.43,-49.57 1457.42,-56.5"/>
</a>
</g>
</g>
</g>
</svg>
