<?xml version="1.0" encoding="UTF-8" standalone="no"?>
<!DOCTYPE svg PUBLIC "-//W3C//DTD SVG 1.1//EN"
 "http://www.w3.org/Graphics/SVG/1.1/DTD/svg11.dtd">
<!-- Generated by graphviz version 2.43.0 (0)
 -->
<!-- Title: solver.hpp Pages: 1 -->
<svg width="1240pt" height="78pt"
 viewBox="0.00 0.00 1240.00 78.00" xmlns="http://www.w3.org/2000/svg" xmlns:xlink="http://www.w3.org/1999/xlink">
<g id="graph0" class="graph" transform="scale(1 1) rotate(0) translate(4 74)">
<title>solver.hpp</title>
<!-- Node1 -->
<g id="Node000001" class="node">
<title>Node1</title>
<g id="a_Node000001"><a xlink:title=" ">
<polygon fill="#999999" stroke="#666666" points="661.5,-70 608.5,-70 608.5,-53 661.5,-53 661.5,-70"/>
<text text-anchor="middle" x="635" y="-59.6" font-family="Helvetica,sans-Serif" font-size="8.00">solver.hpp</text>
</a>
</g>
</g>
<!-- Node2 -->
<g id="Node000002" class="node">
<title>Node2</title>
<g id="a_Node000002"><a xlink:href="../../dc/da9/astar_8hpp.html" target="_top" xlink:title=" ">
<polygon fill="white" stroke="#666666" points="50,-17 0,-17 0,0 50,0 50,-17"/>
<text text-anchor="middle" x="25" y="-6.6" font-family="Helvetica,sans-Serif" font-size="8.00">astar.hpp</text>
</a>
</g>
</g>
<!-- Node1&#45;&gt;Node2 -->
<g id="edge1_Node000001_Node000002" class="edge">
<title>Node1&#45;&gt;Node2</title>
<g id="a_edge1_Node000001_Node000002"><a xlink:title=" ">
<path fill="none" stroke="#63b8ff" d="M598.31,-59.53C506.81,-56.73 261.32,-46.8 59,-17 56.13,-16.58 53.14,-16.05 50.18,-15.47"/>
<polygon fill="#63b8ff" stroke="#63b8ff" points="598.34,-63.03 608.44,-59.83 598.55,-56.04 598.34,-63.03"/>
</a>
</g>
</g>
<!-- Node3 -->
<g id="Node000003" class="node">
<title>Node3</title>
<g id="a_Node000003"><a xlink:href="../../d3/d77/best__first_8hpp.html" target="_top" xlink:title=" ">
<polygon fill="white" stroke="#666666" points="133.5,-17 68.5,-17 68.5,0 133.5,0 133.5,-17"/>
<text text-anchor="middle" x="101" y="-6.6" font-family="Helvetica,sans-Serif" font-size="8.00">best_first.hpp</text>
</a>
</g>
</g>
<!-- Node1&#45;&gt;Node3 -->
<g id="edge2_Node000001_Node000003" class="edge">
<title>Node1&#45;&gt;Node3</title>
<g id="a_edge2_Node000001_Node000003"><a xlink:title=" ">
<path fill="none" stroke="#63b8ff" d="M598.39,-58.44C516.39,-53.56 311.87,-39.98 142,-17 139.28,-16.63 136.46,-16.21 133.63,-15.75"/>
<polygon fill="#63b8ff" stroke="#63b8ff" points="598.26,-61.94 608.45,-59.03 598.67,-54.95 598.26,-61.94"/>
</a>
</g>
</g>
<!-- Node4 -->
<g id="Node000004" class="node">
<title>Node4</title>
<g id="a_Node000004"><a xlink:href="../../da/d36/bfs_8hpp.html" target="_top" xlink:title=" ">
<polygon fill="white" stroke="#666666" points="194.5,-17 151.5,-17 151.5,0 194.5,0 194.5,-17"/>
<text text-anchor="middle" x="173" y="-6.6" font-family="Helvetica,sans-Serif" font-size="8.00">bfs.hpp</text>
</a>
</g>
</g>
<!-- Node1&#45;&gt;Node4 -->
<g id="edge3_Node000001_Node000004" class="edge">
<title>Node1&#45;&gt;Node4</title>
<g id="a_edge3_Node000001_Node000004"><a xlink:title=" ">
<path fill="none" stroke="#63b8ff" d="M597.67,-58.56C522.51,-54.26 347.74,-42.24 203,-17 200.25,-16.52 197.38,-15.93 194.55,-15.28"/>
<polygon fill="#63b8ff" stroke="#63b8ff" points="597.84,-62.08 608.02,-59.14 598.23,-55.09 597.84,-62.08"/>
</a>
</g>
</g>
<!-- Node5 -->
<g id="Node000005" class="node">
<title>Node5</title>
<g id="a_Node000005"><a xlink:href="../../d3/dec/dfs_8hpp.html" target="_top" xlink:title=" ">
<polygon fill="white" stroke="#666666" points="255.5,-17 212.5,-17 212.5,0 255.5,0 255.5,-17"/>
<text text-anchor="middle" x="234" y="-6.6" font-family="Helvetica,sans-Serif" font-size="8.00">dfs.hpp</text>
</a>
</g>
</g>
<!-- Node1&#45;&gt;Node5 -->
<g id="edge4_Node000001_Node000005" class="edge">
<title>Node1&#45;&gt;Node5</title>
<g id="a_edge4_Node000001_Node000005"><a xlink:title=" ">
<path fill="none" stroke="#63b8ff" d="M598.24,-57.76C531.35,-52.43 385.41,-39.2 264,-17 261.25,-16.5 258.39,-15.89 255.56,-15.24"/>
<polygon fill="#63b8ff" stroke="#63b8ff" points="598.04,-61.26 608.28,-58.55 598.59,-54.28 598.04,-61.26"/>
</a>
</g>
</g>
<!-- Node6 -->
<g id="Node000006" class="node">
<title>Node6</title>
<g id="a_Node000006"><a xlink:href="../../d3/d11/dijkstra_8hpp_source.html" target="_top" xlink:title=" ">
<polygon fill="white" stroke="#666666" points="330.5,-17 273.5,-17 273.5,0 330.5,0 330.5,-17"/>
<text text-anchor="middle" x="302" y="-6.6" font-family="Helvetica,sans-Serif" font-size="8.00">dijkstra.hpp</text>
</a>
</g>
</g>
<!-- Node1&#45;&gt;Node6 -->
<g id="edge5_Node000001_Node000006" class="edge">
<title>Node1&#45;&gt;Node6</title>
<g id="a_edge5_Node000001_Node000006"><a xlink:title=" ">
<path fill="none" stroke="#63b8ff" d="M598.38,-55.68C542.52,-48.2 432.74,-32.98 340,-17 336.95,-16.47 333.77,-15.9 330.61,-15.3"/>
<polygon fill="#63b8ff" stroke="#63b8ff" points="598.11,-59.18 608.49,-57.03 599.04,-52.24 598.11,-59.18"/>
</a>
</g>
</g>
<!-- Node7 -->
<g id="Node000007" class="node">
<title>Node7</title>
<g id="a_Node000007"><a xlink:href="../../d6/ded/eidastar_8hpp_source.html" target="_top" xlink:title=" ">
<polygon fill="white" stroke="#666666" points="409,-17 349,-17 349,0 409,0 409,-17"/>
<text text-anchor="middle" x="379" y="-6.6" font-family="Helvetica,sans-Serif" font-size="8.00">eidastar.hpp</text>
</a>
</g>
</g>
<!-- Node1&#45;&gt;Node7 -->
<g id="edge6_Node000001_Node000007" class="edge">
<title>Node1&#45;&gt;Node7</title>
<g id="a_edge6_Node000001_Node000007"><a xlink:title=" ">
<path fill="none" stroke="#63b8ff" d="M598.15,-53.16C547.2,-43.01 456.19,-24.88 409.09,-15.49"/>
<polygon fill="#63b8ff" stroke="#63b8ff" points="597.6,-56.62 608.09,-55.14 598.96,-49.75 597.6,-56.62"/>
</a>
</g>
</g>
<!-- Node8 -->
<g id="Node000008" class="node">
<title>Node8</title>
<g id="a_Node000008"><a xlink:href="../../dd/d67/eidbstar_8hpp_source.html" target="_top" xlink:title=" ">
<polygon fill="white" stroke="#666666" points="487,-17 427,-17 427,0 487,0 487,-17"/>
<text text-anchor="middle" x="457" y="-6.6" font-family="Helvetica,sans-Serif" font-size="8.00">eidbstar.hpp</text>
</a>
</g>
</g>
<!-- Node1&#45;&gt;Node8 -->
<g id="edge7_Node000001_Node000008" class="edge">
<title>Node1&#45;&gt;Node8</title>
<g id="a_edge7_Node000001_Node000008"><a xlink:title=" ">
<path fill="none" stroke="#63b8ff" d="M599.11,-50.22C564.86,-40.4 514.05,-25.85 483.37,-17.06"/>
<polygon fill="#63b8ff" stroke="#63b8ff" points="598.16,-53.58 608.74,-52.97 600.09,-46.86 598.16,-53.58"/>
</a>
</g>
</g>
<!-- Node9 -->
<g id="Node000009" class="node">
<title>Node9</title>
<g id="a_Node000009"><a xlink:href="../../dd/d95/eiddfs_8hpp_source.html" target="_top" xlink:title=" ">
<polygon fill="white" stroke="#666666" points="558.5,-17 505.5,-17 505.5,0 558.5,0 558.5,-17"/>
<text text-anchor="middle" x="532" y="-6.6" font-family="Helvetica,sans-Serif" font-size="8.00">eiddfs.hpp</text>
</a>
</g>
</g>
<!-- Node1&#45;&gt;Node9 -->
<g id="edge8_Node000001_Node000009" class="edge">
<title>Node1&#45;&gt;Node9</title>
<g id="a_edge8_Node000001_Node000009"><a xlink:title=" ">
<path fill="none" stroke="#63b8ff" d="M610.83,-48.53C591.17,-38.8 564.02,-25.36 547.26,-17.06"/>
<polygon fill="#63b8ff" stroke="#63b8ff" points="609.29,-51.67 619.8,-52.97 612.39,-45.4 609.29,-51.67"/>
</a>
</g>
</g>
<!-- Node10 -->
<g id="Node000010" class="node">
<title>Node10</title>
<g id="a_Node000010"><a xlink:href="../../d8/d12/flood_8hpp.html" target="_top" xlink:title=" ">
<polygon fill="white" stroke="#666666" points="627,-17 577,-17 577,0 627,0 627,-17"/>
<text text-anchor="middle" x="602" y="-6.6" font-family="Helvetica,sans-Serif" font-size="8.00">flood.hpp</text>
</a>
</g>
</g>
<!-- Node1&#45;&gt;Node10 -->
<g id="edge9_Node000001_Node000010" class="edge">
<title>Node1&#45;&gt;Node10</title>
<g id="a_edge9_Node000001_Node000010"><a xlink:title=" ">
<path fill="none" stroke="#63b8ff" d="M624.56,-44.36C618.65,-35.23 611.53,-24.22 606.89,-17.06"/>
<polygon fill="#63b8ff" stroke="#63b8ff" points="621.76,-46.48 630.13,-52.97 627.64,-42.68 621.76,-46.48"/>
</a>
</g>
</g>
<!-- Node11 -->
<g id="Node000011" class="node">
<title>Node11</title>
<g id="a_Node000011"><a xlink:href="../../d1/d5a/fstar_8hpp.html" target="_top" xlink:title=" ">
<polygon fill="white" stroke="#666666" points="692.5,-17 645.5,-17 645.5,0 692.5,0 692.5,-17"/>
<text text-anchor="middle" x="669" y="-6.6" font-family="Helvetica,sans-Serif" font-size="8.00">fstar.hpp</text>
</a>
</g>
</g>
<!-- Node1&#45;&gt;Node11 -->
<g id="edge10_Node000001_Node000011" class="edge">
<title>Node1&#45;&gt;Node11</title>
<g id="a_edge10_Node000001_Node000011"><a xlink:title=" ">
<path fill="none" stroke="#63b8ff" d="M645.56,-44.65C651.69,-35.46 659.13,-24.3 663.96,-17.06"/>
<polygon fill="#63b8ff" stroke="#63b8ff" points="642.65,-42.71 640.02,-52.97 648.48,-46.6 642.65,-42.71"/>
</a>
</g>
</g>
<!-- Node12 -->
<g id="Node000012" class="node">
<title>Node12</title>
<g id="a_Node000012"><a xlink:href="../../de/d94/gbfs_8hpp_source.html" target="_top" xlink:title=" ">
<polygon fill="white" stroke="#666666" points="757.5,-17 710.5,-17 710.5,0 757.5,0 757.5,-17"/>
<text text-anchor="middle" x="734" y="-6.6" font-family="Helvetica,sans-Serif" font-size="8.00">gbfs.hpp</text>
</a>
</g>
</g>
<!-- Node1&#45;&gt;Node12 -->
<g id="edge11_Node000001_Node000012" class="edge">
<title>Node1&#45;&gt;Node12</title>
<g id="a_edge11_Node000001_Node000012"><a xlink:title=" ">
<path fill="none" stroke="#63b8ff" d="M658.75,-48.27C677.6,-38.55 703.37,-25.28 719.33,-17.06"/>
<polygon fill="#63b8ff" stroke="#63b8ff" points="656.89,-45.28 649.61,-52.97 660.1,-51.51 656.89,-45.28"/>
</a>
</g>
</g>
<!-- Node13 -->
<g id="Node000013" class="node">
<title>Node13</title>
<g id="a_Node000013"><a xlink:href="../../d4/df2/gdfs_8hpp_source.html" target="_top" xlink:title=" ">
<polygon fill="white" stroke="#666666" points="822.5,-17 775.5,-17 775.5,0 822.5,0 822.5,-17"/>
<text text-anchor="middle" x="799" y="-6.6" font-family="Helvetica,sans-Serif" font-size="8.00">gdfs.hpp</text>
</a>
</g>
</g>
<!-- Node1&#45;&gt;Node13 -->
<g id="edge12_Node000001_Node000013" class="edge">
<title>Node1&#45;&gt;Node13</title>
<g id="a_edge12_Node000001_Node000013"><a xlink:title=" ">
<path fill="none" stroke="#63b8ff" d="M668.94,-49.94C700.69,-40.07 747.29,-25.58 775.24,-16.89"/>
<polygon fill="#63b8ff" stroke="#63b8ff" points="667.71,-46.66 659.2,-52.97 669.79,-53.35 667.71,-46.66"/>
</a>
</g>
</g>
<!-- Node14 -->
<g id="Node000014" class="node">
<title>Node14</title>
<g id="a_Node000014"><a xlink:href="../../d3/d3e/gjps_8hpp_source.html" target="_top" xlink:title=" ">
<polygon fill="white" stroke="#666666" points="887.5,-17 840.5,-17 840.5,0 887.5,0 887.5,-17"/>
<text text-anchor="middle" x="864" y="-6.6" font-family="Helvetica,sans-Serif" font-size="8.00">gjps.hpp</text>
</a>
</g>
</g>
<!-- Node1&#45;&gt;Node14 -->
<g id="edge13_Node000001_Node000014" class="edge">
<title>Node1&#45;&gt;Node14</title>
<g id="a_edge13_Node000001_Node000014"><a xlink:title=" ">
<path fill="none" stroke="#63b8ff" d="M671.78,-52.53C711.37,-43.91 776.2,-29.7 832,-17 834.67,-16.39 837.46,-15.75 840.24,-15.1"/>
<polygon fill="#63b8ff" stroke="#63b8ff" points="670.82,-49.15 661.79,-54.7 672.31,-55.99 670.82,-49.15"/>
</a>
</g>
</g>
<!-- Node15 -->
<g id="Node000015" class="node">
<title>Node15</title>
<g id="a_Node000015"><a xlink:href="../../d1/def/gstar_8hpp_source.html" target="_top" xlink:title=" ">
<polygon fill="white" stroke="#666666" points="956,-17 906,-17 906,0 956,0 956,-17"/>
<text text-anchor="middle" x="931" y="-6.6" font-family="Helvetica,sans-Serif" font-size="8.00">gstar.hpp</text>
</a>
</g>
</g>
<!-- Node1&#45;&gt;Node15 -->
<g id="edge14_Node000001_Node000015" class="edge">
<title>Node1&#45;&gt;Node15</title>
<g id="a_edge14_Node000001_Node000015"><a xlink:title=" ">
<path fill="none" stroke="#63b8ff" d="M672.03,-54.98C722.89,-47.26 817.12,-32.43 897,-17 899.85,-16.45 902.82,-15.84 905.78,-15.22"/>
<polygon fill="#63b8ff" stroke="#63b8ff" points="671.23,-51.56 661.86,-56.52 672.27,-58.48 671.23,-51.56"/>
</a>
</g>
</g>
<!-- Node16 -->
<g id="Node000016" class="node">
<title>Node16</title>
<g id="a_Node000016"><a xlink:href="../../db/df9/idastar_8hpp_source.html" target="_top" xlink:title=" ">
<polygon fill="white" stroke="#666666" points="1030,-17 974,-17 974,0 1030,0 1030,-17"/>
<text text-anchor="middle" x="1002" y="-6.6" font-family="Helvetica,sans-Serif" font-size="8.00">idastar.hpp</text>
</a>
</g>
</g>
<!-- Node1&#45;&gt;Node16 -->
<g id="edge15_Node000001_Node000016" class="edge">
<title>Node1&#45;&gt;Node16</title>
<g id="a_edge15_Node000001_Node000016"><a xlink:title=" ">
<path fill="none" stroke="#63b8ff" d="M671.9,-56.48C733.03,-49.62 859.07,-34.7 965,-17 967.84,-16.52 970.8,-15.99 973.76,-15.43"/>
<polygon fill="#63b8ff" stroke="#63b8ff" points="671.16,-53.04 661.61,-57.62 671.94,-59.99 671.16,-53.04"/>
</a>
</g>
</g>
<!-- Node17 -->
<g id="Node000017" class="node">
<title>Node17</title>
<g id="a_Node000017"><a xlink:href="../../d1/d24/idbstar_8hpp_source.html" target="_top" xlink:title=" ">
<polygon fill="white" stroke="#666666" points="1104,-17 1048,-17 1048,0 1104,0 1104,-17"/>
<text text-anchor="middle" x="1076" y="-6.6" font-family="Helvetica,sans-Serif" font-size="8.00">idbstar.hpp</text>
</a>
</g>
</g>
<!-- Node1&#45;&gt;Node17 -->
<g id="edge16_Node000001_Node000017" class="edge">
<title>Node1&#45;&gt;Node17</title>
<g id="a_edge16_Node000001_Node000017"><a xlink:title=" ">
<path fill="none" stroke="#63b8ff" d="M671.82,-57.69C743.01,-51.99 904.39,-37.84 1039,-17 1041.85,-16.56 1044.81,-16.05 1047.77,-15.5"/>
<polygon fill="#63b8ff" stroke="#63b8ff" points="671.27,-54.22 661.58,-58.5 671.83,-61.2 671.27,-54.22"/>
</a>
</g>
</g>
<!-- Node18 -->
<g id="Node000018" class="node">
<title>Node18</title>
<g id="a_Node000018"><a xlink:href="../../df/d71/iddfs_8hpp_source.html" target="_top" xlink:title=" ">
<polygon fill="white" stroke="#666666" points="1171.5,-17 1122.5,-17 1122.5,0 1171.5,0 1171.5,-17"/>
<text text-anchor="middle" x="1147" y="-6.6" font-family="Helvetica,sans-Serif" font-size="8.00">iddfs.hpp</text>
</a>
</g>
</g>
<!-- Node1&#45;&gt;Node18 -->
<g id="edge17_Node000001_Node000018" class="edge">
<title>Node1&#45;&gt;Node18</title>
<g id="a_edge17_Node000001_Node000018"><a xlink:title=" ">
<path fill="none" stroke="#63b8ff" d="M671.67,-58.75C752.02,-54.56 949.48,-42.37 1113,-17 1115.99,-16.54 1119.1,-15.97 1122.19,-15.35"/>
<polygon fill="#63b8ff" stroke="#63b8ff" points="671.38,-55.26 661.57,-59.26 671.74,-62.25 671.38,-55.26"/>
</a>
</g>
</g>
<!-- Node19 -->
<g id="Node000019" class="node">
<title>Node19</title>
<g id="a_Node000019"><a xlink:href="../../d9/de6/jps_8hpp_source.html" target="_top" xlink:title=" ">
<polygon fill="white" stroke="#666666" points="1232,-17 1190,-17 1190,0 1232,0 1232,-17"/>
<text text-anchor="middle" x="1211" y="-6.6" font-family="Helvetica,sans-Serif" font-size="8.00">jps.hpp</text>
</a>
</g>
</g>
<!-- Node1&#45;&gt;Node19 -->
<g id="edge18_Node000001_Node000019" class="edge">
<title>Node1&#45;&gt;Node19</title>
<g id="a_edge18_Node000001_Node000019"><a xlink:title=" ">
<path fill="none" stroke="#63b8ff" d="M671.65,-59.67C759.9,-57.22 990.95,-48.11 1181,-17 1183.86,-16.53 1186.85,-15.93 1189.79,-15.26"/>
<polygon fill="#63b8ff" stroke="#63b8ff" points="671.51,-56.17 661.61,-59.94 671.7,-63.17 671.51,-56.17"/>
</a>
</g>
</g>
</g>
</svg>
