<?xml version="1.0" encoding="UTF-8" standalone="no"?>
<!DOCTYPE svg PUBLIC "-//W3C//DTD SVG 1.1//EN"
 "http://www.w3.org/Graphics/SVG/1.1/DTD/svg11.dtd">
<!-- Generated by graphviz version 2.43.0 (0)
 -->
<!-- Title: Multi&#45;Target Pages: 1 -->
<svg width="232pt" height="25pt"
 viewBox="0.00 0.00 232.00 25.00" xmlns="http://www.w3.org/2000/svg" xmlns:xlink="http://www.w3.org/1999/xlink">
<g id="graph0" class="graph" transform="scale(1 1) rotate(0) translate(4 21)">
<title>Multi&#45;Target</title>
<!-- Node1 -->
<g id="Node000001" class="node">
<title>Node1</title>
<g id="a_Node000001"><a xlink:title=" ">
<polygon fill="#999999" stroke="#666666" points="138,-17 79,-17 79,0 138,0 138,-17"/>
<text text-anchor="middle" x="108.5" y="-6.6" font-family="Helvetica,sans-Serif" font-size="8.00">Multi&#45;Target</text>
</a>
</g>
</g>
<!-- Node3 -->
<g id="Node000003" class="node">
<title>Node3</title>
<g id="a_Node000003"><a xlink:href="../../d2/d61/group__MultiTargetStandard.html" target="_top" xlink:title=" ">
<polygon fill="white" stroke="#666666" points="224,-17 174,-17 174,0 224,0 224,-17"/>
<text text-anchor="middle" x="199" y="-6.6" font-family="Helvetica,sans-Serif" font-size="8.00">Standard</text>
</a>
</g>
</g>
<!-- Node1&#45;&gt;Node3 -->
<g id="edge2" class="edge">
<title>Node1&#45;&gt;Node3</title>
<path fill="none" stroke="black" d="M148.75,-8.5C157.35,-8.5 166.2,-8.5 173.98,-8.5"/>
<polygon fill="black" stroke="black" points="148.48,-5 138.48,-8.5 148.48,-12 148.48,-5"/>
</g>
<!-- Node2 -->
<g id="Node000002" class="node">
<title>Node2</title>
<g id="a_Node000002"><a xlink:href="../../d3/d24/group__Solvers.html" target="_top" xlink:title=" ">
<polygon fill="white" stroke="#666666" points="43,-17 0,-17 0,0 43,0 43,-17"/>
<text text-anchor="middle" x="21.5" y="-6.6" font-family="Helvetica,sans-Serif" font-size="8.00">Solvers</text>
</a>
</g>
</g>
<!-- Node2&#45;&gt;Node1 -->
<g id="edge1" class="edge">
<title>Node2&#45;&gt;Node1</title>
<path fill="none" stroke="black" d="M53.18,-8.5C61.53,-8.5 70.53,-8.5 78.76,-8.5"/>
<polygon fill="black" stroke="black" points="53.08,-5 43.08,-8.5 53.08,-12 53.08,-5"/>
</g>
</g>
</svg>
