<?xml version="1.0" encoding="UTF-8" standalone="no"?>
<!DOCTYPE svg PUBLIC "-//W3C//DTD SVG 1.1//EN"
 "http://www.w3.org/Graphics/SVG/1.1/DTD/svg11.dtd">
<!-- Generated by graphviz version 2.43.0 (0)
 -->
<!-- Title: Multi&#45;Target Pages: 1 -->
<svg width="244pt" height="25pt"
 viewBox="0.00 0.00 244.00 25.00" xmlns="http://www.w3.org/2000/svg" xmlns:xlink="http://www.w3.org/1999/xlink">
<g id="graph0" class="graph" transform="scale(1 1) rotate(0) translate(4 21)">
<title>Multi&#45;Target</title>
<!-- Node1 -->
<g id="Node000001" class="node">
<title>Node1</title>
<g id="a_Node000001"><a xlink:title="Solvers which route to multiple destinations.">
<polygon fill="#999999" stroke="#666666" points="147,-17 83,-17 83,0 147,0 147,-17"/>
<text text-anchor="middle" x="115" y="-6.6" font-family="Helvetica,sans-Serif" font-size="8.00">Multi&#45;Target</text>
</a>
</g>
</g>
<!-- Node3 -->
<g id="Node000003" class="node">
<title>Node3</title>
<g id="a_Node000003"><a xlink:href="../../d1/d13/group__MultiTargetCommon.html" target="_top" xlink:title="General&#45;purpose solvers.">
<polygon fill="white" stroke="#666666" points="236,-17 183,-17 183,0 236,0 236,-17"/>
<text text-anchor="middle" x="209.5" y="-6.6" font-family="Helvetica,sans-Serif" font-size="8.00">Common</text>
</a>
</g>
</g>
<!-- Node1&#45;&gt;Node3 -->
<g id="edge2" class="edge">
<title>Node1&#45;&gt;Node3</title>
<path fill="none" stroke="black" d="M157.16,-8.5C165.92,-8.5 174.93,-8.5 182.91,-8.5"/>
<polygon fill="black" stroke="black" points="157.06,-5 147.06,-8.5 157.06,-12 157.06,-5"/>
</g>
<!-- Node2 -->
<g id="Node000002" class="node">
<title>Node2</title>
<g id="a_Node000002"><a xlink:href="../../d3/d24/group__Solvers.html" target="_top" xlink:title="Graph traversal and pathfinding algorithms.">
<polygon fill="white" stroke="#666666" points="47,-17 0,-17 0,0 47,0 47,-17"/>
<text text-anchor="middle" x="23.5" y="-6.6" font-family="Helvetica,sans-Serif" font-size="8.00">Solvers</text>
</a>
</g>
</g>
<!-- Node2&#45;&gt;Node1 -->
<g id="edge1" class="edge">
<title>Node2&#45;&gt;Node1</title>
<path fill="none" stroke="black" d="M57.29,-8.5C65.68,-8.5 74.67,-8.5 82.97,-8.5"/>
<polygon fill="black" stroke="black" points="57.08,-5 47.08,-8.5 57.08,-12 57.08,-5"/>
</g>
</g>
</svg>
