<?xml version="1.0" encoding="UTF-8" standalone="no"?>
<!DOCTYPE svg PUBLIC "-//W3C//DTD SVG 1.1//EN"
 "http://www.w3.org/Graphics/SVG/1.1/DTD/svg11.dtd">
<!-- Generated by graphviz version 2.43.0 (0)
 -->
<!-- Title: weighted_node.hpp Pages: 1 -->
<svg width="124pt" height="78pt"
 viewBox="0.00 0.00 123.50 78.00" xmlns="http://www.w3.org/2000/svg" xmlns:xlink="http://www.w3.org/1999/xlink">
<g id="graph0" class="graph" transform="scale(1 1) rotate(0) translate(4 74)">
<title>weighted_node.hpp</title>
<!-- Node1 -->
<g id="Node000001" class="node">
<title>Node1</title>
<g id="a_Node000001"><a xlink:title=" ">
<polygon fill="#999999" stroke="#666666" points="101,-70 3,-70 3,-53 101,-53 101,-70"/>
<text text-anchor="middle" x="52" y="-59.6" font-family="Helvetica,sans-Serif" font-size="8.00">weighted_node.hpp</text>
</a>
</g>
</g>
<!-- Node2 -->
<g id="Node000002" class="node">
<title>Node2</title>
<g id="a_Node000002"><a xlink:title=" ">
<polygon fill="#e0e0e0" stroke="#999999" points="38,-17 0,-17 0,0 38,0 38,-17"/>
<text text-anchor="middle" x="19" y="-6.6" font-family="Helvetica,sans-Serif" font-size="8.00">limits</text>
</a>
</g>
</g>
<!-- Node1&#45;&gt;Node2 -->
<g id="edge1_Node000001_Node000002" class="edge">
<title>Node1&#45;&gt;Node2</title>
<g id="a_edge1_Node000001_Node000002"><a xlink:title=" ">
<path fill="none" stroke="#63b8ff" d="M47.13,-52.97C42.5,-45.82 35.38,-34.82 29.47,-25.67"/>
<polygon fill="#63b8ff" stroke="#63b8ff" points="32.26,-23.55 23.89,-17.06 26.38,-27.35 32.26,-23.55"/>
</a>
</g>
</g>
<!-- Node3 -->
<g id="Node000003" class="node">
<title>Node3</title>
<g id="a_Node000003"><a xlink:title=" ">
<polygon fill="#e0e0e0" stroke="#999999" points="115.5,-17 56.5,-17 56.5,0 115.5,0 115.5,-17"/>
<text text-anchor="middle" x="86" y="-6.6" font-family="Helvetica,sans-Serif" font-size="8.00">type_traits</text>
</a>
</g>
</g>
<!-- Node1&#45;&gt;Node3 -->
<g id="edge2_Node000001_Node000003" class="edge">
<title>Node1&#45;&gt;Node3</title>
<g id="a_edge2_Node000001_Node000003"><a xlink:title=" ">
<path fill="none" stroke="#63b8ff" d="M57.02,-52.97C61.84,-45.74 69.28,-34.59 75.41,-25.39"/>
<polygon fill="#63b8ff" stroke="#63b8ff" points="78.33,-27.32 80.96,-17.06 72.5,-23.44 78.33,-27.32"/>
</a>
</g>
</g>
</g>
</svg>
