<?xml version="1.0" encoding="UTF-8" standalone="no"?>
<!DOCTYPE svg PUBLIC "-//W3C//DTD SVG 1.1//EN"
 "http://www.w3.org/Graphics/SVG/1.1/DTD/svg11.dtd">
<!-- Generated by graphviz version 2.43.0 (0)
 -->
<!-- Title: weighted_node.hpp Pages: 1 -->
<svg width="114pt" height="78pt"
 viewBox="0.00 0.00 113.50 78.00" xmlns="http://www.w3.org/2000/svg" xmlns:xlink="http://www.w3.org/1999/xlink">
<g id="graph0" class="graph" transform="scale(1 1) rotate(0) translate(4 74)">
<title>weighted_node.hpp</title>
<!-- Node1 -->
<g id="Node000001" class="node">
<title>Node1</title>
<g id="a_Node000001"><a xlink:title=" ">
<polygon fill="#999999" stroke="#666666" points="91.5,-70 4.5,-70 4.5,-53 91.5,-53 91.5,-70"/>
<text text-anchor="middle" x="48" y="-59.6" font-family="Helvetica,sans-Serif" font-size="8.00">weighted_node.hpp</text>
</a>
</g>
</g>
<!-- Node2 -->
<g id="Node000002" class="node">
<title>Node2</title>
<g id="a_Node000002"><a xlink:title=" ">
<polygon fill="#e0e0e0" stroke="#999999" points="34,-17 0,-17 0,0 34,0 34,-17"/>
<text text-anchor="middle" x="17" y="-6.6" font-family="Helvetica,sans-Serif" font-size="8.00">limits</text>
</a>
</g>
</g>
<!-- Node1&#45;&gt;Node2 -->
<g id="edge1_Node000001_Node000002" class="edge">
<title>Node1&#45;&gt;Node2</title>
<g id="a_edge1_Node000001_Node000002"><a xlink:title=" ">
<path fill="none" stroke="#63b8ff" d="M43.43,-52.97C39.08,-45.82 32.39,-34.82 26.83,-25.67"/>
<polygon fill="#63b8ff" stroke="#63b8ff" points="29.78,-23.78 21.59,-17.06 23.8,-27.42 29.78,-23.78"/>
</a>
</g>
</g>
<!-- Node3 -->
<g id="Node000003" class="node">
<title>Node3</title>
<g id="a_Node000003"><a xlink:title=" ">
<polygon fill="#e0e0e0" stroke="#999999" points="105.5,-17 52.5,-17 52.5,0 105.5,0 105.5,-17"/>
<text text-anchor="middle" x="79" y="-6.6" font-family="Helvetica,sans-Serif" font-size="8.00">type_traits</text>
</a>
</g>
</g>
<!-- Node1&#45;&gt;Node3 -->
<g id="edge2_Node000001_Node000003" class="edge">
<title>Node1&#45;&gt;Node3</title>
<g id="a_edge2_Node000001_Node000003"><a xlink:title=" ">
<path fill="none" stroke="#63b8ff" d="M52.57,-52.97C56.92,-45.82 63.61,-34.82 69.17,-25.67"/>
<polygon fill="#63b8ff" stroke="#63b8ff" points="72.2,-27.42 74.41,-17.06 66.22,-23.78 72.2,-27.42"/>
</a>
</g>
</g>
</g>
</svg>
