<?xml version="1.0" encoding="UTF-8" standalone="no"?>
<!DOCTYPE svg PUBLIC "-//W3C//DTD SVG 1.1//EN"
 "http://www.w3.org/Graphics/SVG/1.1/DTD/svg11.dtd">
<!-- Generated by graphviz version 2.43.0 (0)
 -->
<!-- Title: euclidean_distance Pages: 1 -->
<svg width="332pt" height="25pt"
 viewBox="0.00 0.00 332.00 25.00" xmlns="http://www.w3.org/2000/svg" xmlns:xlink="http://www.w3.org/1999/xlink">
<g id="graph0" class="graph" transform="scale(1 1) rotate(0) translate(4 21)">
<title>euclidean_distance</title>
<!-- Node1 -->
<g id="Node000001" class="node">
<title>Node1</title>
<g id="a_Node000001"><a xlink:title="Computes the Euclidean distance between two nodes.">
<polygon fill="#999999" stroke="#666666" points="84,-17 0,-17 0,0 84,0 84,-17"/>
<text text-anchor="middle" x="42" y="-6.6" font-family="Helvetica,sans-Serif" font-size="8.00">euclidean_distance</text>
</a>
</g>
</g>
<!-- Node2 -->
<g id="Node000002" class="node">
<title>Node2</title>
<g id="a_Node000002"><a xlink:href="../../de/d17/group__Heuristics_ga2fe90d2468d08f5dc0157ff297b921ab.html#ga2fe90d2468d08f5dc0157ff297b921ab" target="_top" xlink:title="Computes the squared Euclidean distance between two nodes.">
<polygon fill="white" stroke="#666666" points="220,-17 120,-17 120,0 220,0 220,-17"/>
<text text-anchor="middle" x="170" y="-6.6" font-family="Helvetica,sans-Serif" font-size="8.00">sqr_euclidean_distance</text>
</a>
</g>
</g>
<!-- Node1&#45;&gt;Node2 -->
<g id="edge1_Node000001_Node000002" class="edge">
<title>Node1&#45;&gt;Node2</title>
<g id="a_edge1_Node000001_Node000002"><a xlink:title=" ">
<path fill="none" stroke="#63b8ff" d="M84.26,-8.5C92.41,-8.5 101.11,-8.5 109.72,-8.5"/>
<polygon fill="#63b8ff" stroke="#63b8ff" points="109.75,-12 119.75,-8.5 109.75,-5 109.75,-12"/>
</a>
</g>
</g>
<!-- Node3 -->
<g id="Node000003" class="node">
<title>Node3</title>
<g id="a_Node000003"><a xlink:href="../../d2/dcb/structchdr_1_1utils_a5dbf4cb43cd80497753aa963c21fa0cf.html#a5dbf4cb43cd80497753aa963c21fa0cf" target="_top" xlink:title="Computes the absolute value of a given arithmetic type.">
<polygon fill="white" stroke="#666666" points="324,-17 256,-17 256,0 324,0 324,-17"/>
<text text-anchor="middle" x="290" y="-6.6" font-family="Helvetica,sans-Serif" font-size="8.00">chdr::utils::abs</text>
</a>
</g>
</g>
<!-- Node2&#45;&gt;Node3 -->
<g id="edge2_Node000002_Node000003" class="edge">
<title>Node2&#45;&gt;Node3</title>
<g id="a_edge2_Node000002_Node000003"><a xlink:title=" ">
<path fill="none" stroke="#63b8ff" d="M220.02,-8.5C228.48,-8.5 237.22,-8.5 245.52,-8.5"/>
<polygon fill="#63b8ff" stroke="#63b8ff" points="245.74,-12 255.74,-8.5 245.74,-5 245.74,-12"/>
</a>
</g>
</g>
</g>
</svg>
