<?xml version="1.0" encoding="UTF-8" standalone="no"?>
<!DOCTYPE svg PUBLIC "-//W3C//DTD SVG 1.1//EN"
 "http://www.w3.org/Graphics/SVG/1.1/DTD/svg11.dtd">
<!-- Generated by graphviz version 2.43.0 (0)
 -->
<!-- Title: gjps.hpp Pages: 1 -->
<svg width="1782pt" height="290pt"
 viewBox="0.00 0.00 1782.09 290.00" xmlns="http://www.w3.org/2000/svg" xmlns:xlink="http://www.w3.org/1999/xlink">
<g id="graph0" class="graph" transform="scale(1 1) rotate(0) translate(4 286)">
<title>gjps.hpp</title>
<!-- Node1 -->
<g id="Node000001" class="node">
<title>Node1</title>
<g id="a_Node000001"><a xlink:title=" ">
<polygon fill="#999999" stroke="#666666" points="865,-282 813,-282 813,-265 865,-265 865,-282"/>
<text text-anchor="middle" x="839" y="-271.6" font-family="Helvetica,sans-Serif" font-size="8.00">gjps.hpp</text>
</a>
</g>
</g>
<!-- Node2 -->
<g id="Node000002" class="node">
<title>Node2</title>
<g id="a_Node000002"><a xlink:title=" ">
<polygon fill="#e0e0e0" stroke="#999999" points="219,-70 181,-70 181,-53 219,-53 219,-70"/>
<text text-anchor="middle" x="200" y="-59.6" font-family="Helvetica,sans-Serif" font-size="8.00">array</text>
</a>
</g>
</g>
<!-- Node1&#45;&gt;Node2 -->
<g id="edge1_Node000001_Node000002" class="edge">
<title>Node1&#45;&gt;Node2</title>
<g id="a_edge1_Node000001_Node000002"><a xlink:title=" ">
<path fill="none" stroke="#63b8ff" d="M812.82,-272.42C737.84,-271.74 516.18,-266.44 337,-229 233.88,-207.45 166.21,-219.95 125,-123 114.6,-98.54 146.01,-81.13 171.33,-71.45"/>
<polygon fill="#63b8ff" stroke="#63b8ff" points="172.74,-74.66 180.98,-68 170.38,-68.07 172.74,-74.66"/>
</a>
</g>
</g>
<!-- Node3 -->
<g id="Node000003" class="node">
<title>Node3</title>
<g id="a_Node000003"><a xlink:title=" ">
<polygon fill="#e0e0e0" stroke="#999999" points="695.5,-17 648.5,-17 648.5,0 695.5,0 695.5,-17"/>
<text text-anchor="middle" x="672" y="-6.6" font-family="Helvetica,sans-Serif" font-size="8.00">cstddef</text>
</a>
</g>
</g>
<!-- Node1&#45;&gt;Node3 -->
<g id="edge2_Node000001_Node000003" class="edge">
<title>Node1&#45;&gt;Node3</title>
<g id="a_edge2_Node000001_Node000003"><a xlink:title=" ">
<path fill="none" stroke="#63b8ff" d="M812.97,-272.08C671.36,-269.44 0,-252.53 0,-168.5 0,-168.5 0,-168.5 0,-113.5 0,-32.46 92.79,-70.09 172,-53 344.4,-15.8 556.76,-10.23 638.11,-9.53"/>
<polygon fill="#63b8ff" stroke="#63b8ff" points="638.28,-13.03 648.26,-9.46 638.23,-6.03 638.28,-13.03"/>
</a>
</g>
</g>
<!-- Node4 -->
<g id="Node000004" class="node">
<title>Node4</title>
<g id="a_Node000004"><a xlink:title=" ">
<polygon fill="#e0e0e0" stroke="#999999" points="1762,-123 1718,-123 1718,-106 1762,-106 1762,-123"/>
<text text-anchor="middle" x="1740" y="-112.6" font-family="Helvetica,sans-Serif" font-size="8.00">cstdint</text>
</a>
</g>
</g>
<!-- Node1&#45;&gt;Node4 -->
<g id="edge3_Node000001_Node000004" class="edge">
<title>Node1&#45;&gt;Node4</title>
<g id="a_edge3_Node000001_Node000004"><a xlink:title=" ">
<path fill="none" stroke="#63b8ff" d="M865.09,-272.23C997.37,-270.73 1590.47,-262.19 1665,-229 1695.43,-215.45 1700.11,-204.1 1718,-176 1726.54,-162.58 1732.39,-145.39 1735.89,-132.76"/>
<polygon fill="#63b8ff" stroke="#63b8ff" points="1739.29,-133.6 1738.38,-123.05 1732.51,-131.87 1739.29,-133.6"/>
</a>
</g>
</g>
<!-- Node5 -->
<g id="Node000005" class="node">
<title>Node5</title>
<g id="a_Node000005"><a xlink:title=" ">
<polygon fill="#e0e0e0" stroke="#999999" points="631.5,-70 572.5,-70 572.5,-53 631.5,-53 631.5,-70"/>
<text text-anchor="middle" x="602" y="-59.6" font-family="Helvetica,sans-Serif" font-size="8.00">type_traits</text>
</a>
</g>
</g>
<!-- Node1&#45;&gt;Node5 -->
<g id="edge4_Node000001_Node000005" class="edge">
<title>Node1&#45;&gt;Node5</title>
<g id="a_edge4_Node000001_Node000005"><a xlink:title=" ">
<path fill="none" stroke="#63b8ff" d="M812.81,-271.19C695.62,-264.72 221.35,-232.02 133,-123 128.24,-117.13 127.91,-111.58 133,-106 161.69,-74.53 454.23,-65.47 562.23,-63.19"/>
<polygon fill="#63b8ff" stroke="#63b8ff" points="562.46,-66.69 572.39,-62.98 562.32,-59.69 562.46,-66.69"/>
</a>
</g>
</g>
<!-- Node6 -->
<g id="Node000006" class="node">
<title>Node6</title>
<g id="a_Node000006"><a xlink:title=" ">
<polygon fill="#e0e0e0" stroke="#999999" points="475.5,-123 436.5,-123 436.5,-106 475.5,-106 475.5,-123"/>
<text text-anchor="middle" x="456" y="-112.6" font-family="Helvetica,sans-Serif" font-size="8.00">utility</text>
</a>
</g>
</g>
<!-- Node1&#45;&gt;Node6 -->
<g id="edge5_Node000001_Node000006" class="edge">
<title>Node1&#45;&gt;Node6</title>
<g id="a_edge5_Node000001_Node000006"><a xlink:title=" ">
<path fill="none" stroke="#63b8ff" d="M817.9,-264.9C794.08,-256.3 754.19,-241.81 720,-229 658.48,-205.94 642.33,-202.02 582,-176 546,-160.48 505.26,-140.45 480.1,-127.79"/>
<polygon fill="#63b8ff" stroke="#63b8ff" points="481.45,-124.55 470.95,-123.16 478.29,-130.8 481.45,-124.55"/>
</a>
</g>
</g>
<!-- Node7 -->
<g id="Node000007" class="node">
<title>Node7</title>
<g id="a_Node000007"><a xlink:title=" ">
<polygon fill="#e0e0e0" stroke="#999999" points="1078,-123 1036,-123 1036,-106 1078,-106 1078,-123"/>
<text text-anchor="middle" x="1057" y="-112.6" font-family="Helvetica,sans-Serif" font-size="8.00">vector</text>
</a>
</g>
</g>
<!-- Node1&#45;&gt;Node7 -->
<g id="edge6_Node000001_Node000007" class="edge">
<title>Node1&#45;&gt;Node7</title>
<g id="a_edge6_Node000001_Node000007"><a xlink:title=" ">
<path fill="none" stroke="#63b8ff" d="M849.51,-264.93C883.97,-240.11 993.79,-161.03 1038.15,-129.08"/>
<polygon fill="#63b8ff" stroke="#63b8ff" points="1040.27,-131.86 1046.34,-123.18 1036.18,-126.18 1040.27,-131.86"/>
</a>
</g>
</g>
<!-- Node8 -->
<g id="Node000008" class="node">
<title>Node8</title>
<g id="a_Node000008"><a xlink:href="../../dc/d8a/grid_8hpp.html" target="_top" xlink:title=" ">
<polygon fill="white" stroke="#666666" points="679,-176 591,-176 591,-159 679,-159 679,-176"/>
<text text-anchor="middle" x="635" y="-165.6" font-family="Helvetica,sans-Serif" font-size="8.00">../mazes/grid.hpp</text>
</a>
</g>
</g>
<!-- Node1&#45;&gt;Node8 -->
<g id="edge7_Node000001_Node000008" class="edge">
<title>Node1&#45;&gt;Node8</title>
<g id="a_edge7_Node000001_Node000008"><a xlink:title=" ">
<path fill="none" stroke="#63b8ff" d="M824,-264.85C788.91,-246.97 701.26,-202.28 658.8,-180.63"/>
<polygon fill="#63b8ff" stroke="#63b8ff" points="660.25,-177.44 649.75,-176.02 657.07,-183.68 660.25,-177.44"/>
</a>
</g>
</g>
<!-- Node11 -->
<g id="Node000011" class="node">
<title>Node11</title>
<g id="a_Node000011"><a xlink:href="../../df/d93/utils_8hpp.html" target="_top" xlink:title=" ">
<polygon fill="white" stroke="#666666" points="832,-123 752,-123 752,-106 832,-106 832,-123"/>
<text text-anchor="middle" x="792" y="-112.6" font-family="Helvetica,sans-Serif" font-size="8.00">../utils/utils.hpp</text>
</a>
</g>
</g>
<!-- Node1&#45;&gt;Node11 -->
<g id="edge41_Node000001_Node000011" class="edge">
<title>Node1&#45;&gt;Node11</title>
<g id="a_edge41_Node000001_Node000011"><a xlink:title=" ">
<path fill="none" stroke="#63b8ff" d="M836.73,-264.93C829.62,-241.15 807.58,-167.56 797.34,-133.33"/>
<polygon fill="#63b8ff" stroke="#63b8ff" points="800.58,-131.94 794.35,-123.37 793.87,-133.95 800.58,-131.94"/>
</a>
</g>
</g>
<!-- Node16 -->
<g id="Node000016" class="node">
<title>Node16</title>
<g id="a_Node000016"><a xlink:href="../../d7/d65/intrinsics_8hpp.html" target="_top" xlink:title=" ">
<polygon fill="#fff0f0" stroke="red" points="1347.5,-70 1248.5,-70 1248.5,-53 1347.5,-53 1347.5,-70"/>
<text text-anchor="middle" x="1298" y="-59.6" font-family="Helvetica,sans-Serif" font-size="8.00">../utils/intrinsics.hpp</text>
</a>
</g>
</g>
<!-- Node1&#45;&gt;Node16 -->
<g id="edge67_Node000001_Node000016" class="edge">
<title>Node1&#45;&gt;Node16</title>
<g id="a_edge67_Node000001_Node000016"><a xlink:title=" ">
<path fill="none" stroke="#63b8ff" d="M865.11,-272.41C1000.21,-271.78 1616.51,-266.82 1692,-229 1744.53,-202.68 1754.1,-179.27 1771,-123 1773.17,-115.76 1776.09,-111.58 1771,-106 1743.66,-76.03 1478.92,-66.43 1357.86,-63.6"/>
<polygon fill="#63b8ff" stroke="#63b8ff" points="1357.73,-60.09 1347.65,-63.36 1357.57,-67.09 1357.73,-60.09"/>
</a>
</g>
</g>
<!-- Node21 -->
<g id="Node000021" class="node">
<title>Node21</title>
<g id="a_Node000021"><a xlink:href="../../d8/d62/existence__set_8hpp.html" target="_top" xlink:title=" ">
<polygon fill="white" stroke="#666666" points="1229,-176 1059,-176 1059,-159 1229,-159 1229,-176"/>
<text text-anchor="middle" x="1144" y="-165.6" font-family="Helvetica,sans-Serif" font-size="8.00">../types/containers/existence_set.hpp</text>
</a>
</g>
</g>
<!-- Node1&#45;&gt;Node21 -->
<g id="edge32_Node000001_Node000021" class="edge">
<title>Node1&#45;&gt;Node21</title>
<g id="a_edge32_Node000001_Node000021"><a xlink:title=" ">
<path fill="none" stroke="#63b8ff" d="M865.17,-267.19C898.73,-260.05 958.5,-246.24 1008,-229 1048.43,-214.92 1093.48,-193.73 1120.25,-180.52"/>
<polygon fill="#63b8ff" stroke="#63b8ff" points="1121.84,-183.64 1129.24,-176.05 1118.72,-177.37 1121.84,-183.64"/>
</a>
</g>
</g>
<!-- Node23 -->
<g id="Node000023" class="node">
<title>Node23</title>
<g id="a_Node000023"><a xlink:href="../../da/deb/managed__node_8hpp.html" target="_top" xlink:title=" ">
<polygon fill="white" stroke="#666666" points="1656,-229 1534,-229 1534,-212 1656,-212 1656,-229"/>
<text text-anchor="middle" x="1595" y="-218.6" font-family="Helvetica,sans-Serif" font-size="8.00">base/managed_node.hpp</text>
</a>
</g>
</g>
<!-- Node1&#45;&gt;Node23 -->
<g id="edge42_Node000001_Node000023" class="edge">
<title>Node1&#45;&gt;Node23</title>
<g id="a_edge42_Node000001_Node000023"><a xlink:title=" ">
<path fill="none" stroke="#63b8ff" d="M865.02,-270.74C969.51,-263.7 1360.69,-237.31 1523.35,-226.33"/>
<polygon fill="#63b8ff" stroke="#63b8ff" points="1523.99,-229.8 1533.73,-225.63 1523.52,-222.81 1523.99,-229.8"/>
</a>
</g>
</g>
<!-- Node28 -->
<g id="Node000028" class="node">
<title>Node28</title>
<g id="a_Node000028"><a xlink:href="../../d2/d1c/solver_8hpp.html" target="_top" xlink:title=" ">
<polygon fill="white" stroke="#666666" points="942,-176 860,-176 860,-159 942,-159 942,-176"/>
<text text-anchor="middle" x="901" y="-165.6" font-family="Helvetica,sans-Serif" font-size="8.00">base/solver.hpp</text>
</a>
</g>
</g>
<!-- Node1&#45;&gt;Node28 -->
<g id="edge59_Node000001_Node000028" class="edge">
<title>Node1&#45;&gt;Node28</title>
<g id="a_edge59_Node000001_Node000028"><a xlink:title=" ">
<path fill="none" stroke="#63b8ff" d="M843.66,-264.68C853.72,-247.81 877.64,-207.68 891.2,-184.94"/>
<polygon fill="#63b8ff" stroke="#63b8ff" points="894.34,-186.51 896.45,-176.12 888.33,-182.92 894.34,-186.51"/>
</a>
</g>
</g>
<!-- Node8&#45;&gt;Node2 -->
<g id="edge9_Node000008_Node000002" class="edge">
<title>Node8&#45;&gt;Node2</title>
<g id="a_edge9_Node000008_Node000002"><a xlink:title=" ">
<path fill="none" stroke="#63b8ff" d="M590.65,-166C473.68,-164.23 163.64,-156.4 133,-123 116.09,-104.56 146.31,-85.6 171.47,-73.93"/>
<polygon fill="#63b8ff" stroke="#63b8ff" points="173.01,-77.07 180.75,-69.83 170.19,-70.67 173.01,-77.07"/>
</a>
</g>
</g>
<!-- Node8&#45;&gt;Node3 -->
<g id="edge11_Node000008_Node000003" class="edge">
<title>Node8&#45;&gt;Node3</title>
<g id="a_edge11_Node000008_Node000003"><a xlink:title=" ">
<path fill="none" stroke="#63b8ff" d="M590.88,-163.64C536.06,-159.05 447.24,-147.91 427,-123 422.24,-117.14 423.81,-112.85 427,-106 463.51,-27.58 579.9,-12.37 638.14,-9.76"/>
<polygon fill="#63b8ff" stroke="#63b8ff" points="638.43,-13.26 648.3,-9.41 638.19,-6.26 638.43,-13.26"/>
</a>
</g>
</g>
<!-- Node8&#45;&gt;Node5 -->
<g id="edge12_Node000008_Node000005" class="edge">
<title>Node8&#45;&gt;Node5</title>
<g id="a_edge12_Node000008_Node000005"><a xlink:title=" ">
<path fill="none" stroke="#63b8ff" d="M612.25,-158.92C596.17,-152.23 575.78,-140.73 566,-123 557.2,-107.05 570.85,-89.16 583.8,-77"/>
<polygon fill="#63b8ff" stroke="#63b8ff" points="586.32,-79.45 591.56,-70.24 581.72,-74.17 586.32,-79.45"/>
</a>
</g>
</g>
<!-- Node8&#45;&gt;Node6 -->
<g id="edge13_Node000008_Node000006" class="edge">
<title>Node8&#45;&gt;Node6</title>
<g id="a_edge13_Node000008_Node000006"><a xlink:title=" ">
<path fill="none" stroke="#63b8ff" d="M608.59,-158.97C575.71,-149.61 519.74,-133.66 485.49,-123.9"/>
<polygon fill="#63b8ff" stroke="#63b8ff" points="486.19,-120.46 475.61,-121.09 484.27,-127.19 486.19,-120.46"/>
</a>
</g>
</g>
<!-- Node8&#45;&gt;Node7 -->
<g id="edge14_Node000008_Node000007" class="edge">
<title>Node8&#45;&gt;Node7</title>
<g id="a_edge14_Node000008_Node000007"><a xlink:title=" ">
<path fill="none" stroke="#63b8ff" d="M679.36,-161.14C765.08,-150.78 951.55,-128.24 1025.69,-119.28"/>
<polygon fill="#63b8ff" stroke="#63b8ff" points="1026.28,-122.74 1035.78,-118.06 1025.44,-115.79 1026.28,-122.74"/>
</a>
</g>
</g>
<!-- Node9 -->
<g id="Node000009" class="node">
<title>Node9</title>
<g id="a_Node000009"><a xlink:title=" ">
<polygon fill="#e0e0e0" stroke="#999999" points="198,-123 142,-123 142,-106 198,-106 198,-123"/>
<text text-anchor="middle" x="170" y="-112.6" font-family="Helvetica,sans-Serif" font-size="8.00">algorithm</text>
</a>
</g>
</g>
<!-- Node8&#45;&gt;Node9 -->
<g id="edge8_Node000008_Node000009" class="edge">
<title>Node8&#45;&gt;Node9</title>
<g id="a_edge8_Node000008_Node000009"><a xlink:title=" ">
<path fill="none" stroke="#63b8ff" d="M590.77,-163.45C514.65,-157.89 353.81,-144.76 208.24,-123.03"/>
<polygon fill="#63b8ff" stroke="#63b8ff" points="208.64,-119.55 198.23,-121.52 207.6,-126.48 208.64,-119.55"/>
</a>
</g>
</g>
<!-- Node10 -->
<g id="Node000010" class="node">
<title>Node10</title>
<g id="a_Node000010"><a xlink:title=" ">
<polygon fill="#e0e0e0" stroke="#999999" points="1479.5,-123 1432.5,-123 1432.5,-106 1479.5,-106 1479.5,-123"/>
<text text-anchor="middle" x="1456" y="-112.6" font-family="Helvetica,sans-Serif" font-size="8.00">cassert</text>
</a>
</g>
</g>
<!-- Node8&#45;&gt;Node10 -->
<g id="edge10_Node000008_Node000010" class="edge">
<title>Node8&#45;&gt;Node10</title>
<g id="a_edge10_Node000008_Node000010"><a xlink:title=" ">
<path fill="none" stroke="#63b8ff" d="M679.01,-164.68C794.75,-159.72 1117.21,-144.9 1385,-123 1397.11,-122.01 1410.35,-120.68 1422.08,-119.41"/>
<polygon fill="#63b8ff" stroke="#63b8ff" points="1422.8,-122.85 1432.36,-118.28 1422.04,-115.9 1422.8,-122.85"/>
</a>
</g>
</g>
<!-- Node8&#45;&gt;Node11 -->
<g id="edge15_Node000008_Node000011" class="edge">
<title>Node8&#45;&gt;Node11</title>
<g id="a_edge15_Node000008_Node000011"><a xlink:title=" ">
<path fill="none" stroke="#63b8ff" d="M658.17,-158.97C684.83,-150.31 728.84,-136.02 759.06,-126.2"/>
<polygon fill="#63b8ff" stroke="#63b8ff" points="760.31,-129.47 768.74,-123.06 758.15,-122.82 760.31,-129.47"/>
</a>
</g>
</g>
<!-- Node8&#45;&gt;Node16 -->
<g id="edge28_Node000008_Node000016" class="edge">
<title>Node8&#45;&gt;Node16</title>
<g id="a_edge28_Node000008_Node000016"><a xlink:title=" ">
<path fill="none" stroke="#63b8ff" d="M679.07,-159.86C721.24,-152.88 786.34,-140.48 841,-123 859.01,-117.24 861.71,-110.81 880,-106 946.1,-88.6 1139.36,-73.37 1238.23,-66.45"/>
<polygon fill="#63b8ff" stroke="#63b8ff" points="1238.63,-69.93 1248.37,-65.75 1238.15,-62.95 1238.63,-69.93"/>
</a>
</g>
</g>
<!-- Node19 -->
<g id="Node000019" class="node">
<title>Node19</title>
<g id="a_Node000019"><a xlink:href="../../d1/d2d/weighted__node_8hpp.html" target="_top" xlink:title=" ">
<polygon fill="white" stroke="#666666" points="734,-123 608,-123 608,-106 734,-106 734,-123"/>
<text text-anchor="middle" x="671" y="-112.6" font-family="Helvetica,sans-Serif" font-size="8.00">nodes/weighted_node.hpp</text>
</a>
</g>
</g>
<!-- Node8&#45;&gt;Node19 -->
<g id="edge25_Node000008_Node000019" class="edge">
<title>Node8&#45;&gt;Node19</title>
<g id="a_edge25_Node000008_Node000019"><a xlink:title=" ">
<path fill="none" stroke="#63b8ff" d="M640.31,-158.97C645.42,-151.74 653.29,-140.59 659.79,-131.39"/>
<polygon fill="#63b8ff" stroke="#63b8ff" points="662.76,-133.24 665.67,-123.06 657.04,-129.21 662.76,-133.24"/>
</a>
</g>
</g>
<!-- Node20 -->
<g id="Node000020" class="node">
<title>Node20</title>
<g id="a_Node000020"><a xlink:href="../../d9/dfc/coord_8hpp.html" target="_top" xlink:title=" ">
<polygon fill="white" stroke="#666666" points="379.5,-123 216.5,-123 216.5,-106 379.5,-106 379.5,-123"/>
<text text-anchor="middle" x="298" y="-112.6" font-family="Helvetica,sans-Serif" font-size="8.00">include/types/containers/coord.hpp</text>
</a>
</g>
</g>
<!-- Node8&#45;&gt;Node20 -->
<g id="edge29_Node000008_Node000020" class="edge">
<title>Node8&#45;&gt;Node20</title>
<g id="a_edge29_Node000008_Node000020"><a xlink:title=" ">
<path fill="none" stroke="#63b8ff" d="M590.94,-159.83C531.29,-150.81 424.63,-134.66 357.79,-124.55"/>
<polygon fill="#63b8ff" stroke="#63b8ff" points="358.24,-121.08 347.82,-123.04 357.19,-128 358.24,-121.08"/>
</a>
</g>
</g>
<!-- Node11&#45;&gt;Node2 -->
<g id="edge16_Node000011_Node000002" class="edge">
<title>Node11&#45;&gt;Node2</title>
<g id="a_edge16_Node000011_Node000002"><a xlink:title=" ">
<path fill="none" stroke="#63b8ff" d="M751.92,-107.13C748.91,-106.72 745.91,-106.34 743,-106 547.46,-83.23 310.91,-68.73 229.32,-64.1"/>
<polygon fill="#63b8ff" stroke="#63b8ff" points="229.47,-60.61 219.29,-63.54 229.07,-67.6 229.47,-60.61"/>
</a>
</g>
</g>
<!-- Node11&#45;&gt;Node3 -->
<g id="edge18_Node000011_Node000003" class="edge">
<title>Node11&#45;&gt;Node3</title>
<g id="a_edge18_Node000011_Node000003"><a xlink:title=" ">
<path fill="none" stroke="#63b8ff" d="M796.44,-105.6C802.76,-93.18 812.4,-68.87 801,-53 779.48,-23.03 736.24,-13.44 705.77,-10.51"/>
<polygon fill="#63b8ff" stroke="#63b8ff" points="705.82,-7.01 695.58,-9.73 705.29,-13.99 705.82,-7.01"/>
</a>
</g>
</g>
<!-- Node11&#45;&gt;Node5 -->
<g id="edge22_Node000011_Node000005" class="edge">
<title>Node11&#45;&gt;Node5</title>
<g id="a_edge22_Node000011_Node000005"><a xlink:title=" ">
<path fill="none" stroke="#63b8ff" d="M763.96,-105.97C731.13,-97.16 676.58,-82.52 639.97,-72.69"/>
<polygon fill="#63b8ff" stroke="#63b8ff" points="640.72,-69.27 630.15,-70.06 638.9,-76.03 640.72,-69.27"/>
</a>
</g>
</g>
<!-- Node12 -->
<g id="Node000012" class="node">
<title>Node12</title>
<g id="a_Node000012"><a xlink:title=" ">
<polygon fill="#e0e0e0" stroke="#999999" points="792,-70 750,-70 750,-53 792,-53 792,-70"/>
<text text-anchor="middle" x="771" y="-59.6" font-family="Helvetica,sans-Serif" font-size="8.00">cmath</text>
</a>
</g>
</g>
<!-- Node11&#45;&gt;Node12 -->
<g id="edge17_Node000011_Node000012" class="edge">
<title>Node11&#45;&gt;Node12</title>
<g id="a_edge17_Node000011_Node000012"><a xlink:title=" ">
<path fill="none" stroke="#63b8ff" d="M788.9,-105.97C786.05,-99.04 781.71,-88.51 778.02,-79.55"/>
<polygon fill="#63b8ff" stroke="#63b8ff" points="781.16,-77.97 774.11,-70.06 774.68,-80.64 781.16,-77.97"/>
</a>
</g>
</g>
<!-- Node13 -->
<g id="Node000013" class="node">
<title>Node13</title>
<g id="a_Node000013"><a xlink:title=" ">
<polygon fill="#e0e0e0" stroke="#999999" points="1129,-70 1071,-70 1071,-53 1129,-53 1129,-70"/>
<text text-anchor="middle" x="1100" y="-59.6" font-family="Helvetica,sans-Serif" font-size="8.00">functional</text>
</a>
</g>
</g>
<!-- Node11&#45;&gt;Node13 -->
<g id="edge19_Node000011_Node000013" class="edge">
<title>Node11&#45;&gt;Node13</title>
<g id="a_edge19_Node000011_Node000013"><a xlink:title=" ">
<path fill="none" stroke="#63b8ff" d="M832.27,-106.83C891.64,-97 1001.98,-78.73 1060.76,-69"/>
<polygon fill="#63b8ff" stroke="#63b8ff" points="1061.48,-72.43 1070.77,-67.34 1060.34,-65.52 1061.48,-72.43"/>
</a>
</g>
</g>
<!-- Node14 -->
<g id="Node000014" class="node">
<title>Node14</title>
<g id="a_Node000014"><a xlink:title=" ">
<polygon fill="#e0e0e0" stroke="#999999" points="989,-70 951,-70 951,-53 989,-53 989,-70"/>
<text text-anchor="middle" x="970" y="-59.6" font-family="Helvetica,sans-Serif" font-size="8.00">limits</text>
</a>
</g>
</g>
<!-- Node11&#45;&gt;Node14 -->
<g id="edge20_Node000011_Node000014" class="edge">
<title>Node11&#45;&gt;Node14</title>
<g id="a_edge20_Node000011_Node000014"><a xlink:title=" ">
<path fill="none" stroke="#63b8ff" d="M818.26,-105.97C851.04,-96.58 906.92,-80.57 940.95,-70.82"/>
<polygon fill="#63b8ff" stroke="#63b8ff" points="942.11,-74.13 950.76,-68.01 940.18,-67.4 942.11,-74.13"/>
</a>
</g>
</g>
<!-- Node15 -->
<g id="Node000015" class="node">
<title>Node15</title>
<g id="a_Node000015"><a xlink:title=" ">
<polygon fill="#e0e0e0" stroke="#999999" points="732,-70 692,-70 692,-53 732,-53 732,-70"/>
<text text-anchor="middle" x="712" y="-59.6" font-family="Helvetica,sans-Serif" font-size="8.00">string</text>
</a>
</g>
</g>
<!-- Node11&#45;&gt;Node15 -->
<g id="edge21_Node000011_Node000015" class="edge">
<title>Node11&#45;&gt;Node15</title>
<g id="a_edge21_Node000011_Node000015"><a xlink:title=" ">
<path fill="none" stroke="#63b8ff" d="M780.2,-105.97C767.67,-97.99 747.64,-85.22 732.52,-75.58"/>
<polygon fill="#63b8ff" stroke="#63b8ff" points="734.17,-72.48 723.85,-70.06 730.4,-78.38 734.17,-72.48"/>
</a>
</g>
</g>
<!-- Node11&#45;&gt;Node16 -->
<g id="edge23_Node000011_Node000016" class="edge">
<title>Node11&#45;&gt;Node16</title>
<g id="a_edge23_Node000011_Node000016"><a xlink:title=" ">
<path fill="none" stroke="#63b8ff" d="M832.08,-107.74C836.77,-107.13 841.49,-106.53 846,-106 986.32,-89.51 1151.69,-74.79 1238.27,-67.44"/>
<polygon fill="#63b8ff" stroke="#63b8ff" points="1238.76,-70.91 1248.43,-66.58 1238.17,-63.94 1238.76,-70.91"/>
</a>
</g>
</g>
<!-- Node16&#45;&gt;Node3 -->
<g id="edge24_Node000016_Node000003" class="edge">
<title>Node16&#45;&gt;Node3</title>
<g id="a_edge24_Node000016_Node000003"><a xlink:title=" ">
<path fill="none" stroke="#63b8ff" d="M1248.41,-54.49C1243.54,-53.96 1238.68,-53.45 1234,-53 1033.91,-33.54 793.05,-17.3 705.7,-11.64"/>
<polygon fill="#63b8ff" stroke="#63b8ff" points="705.79,-8.14 695.59,-10.99 705.34,-15.13 705.79,-8.14"/>
</a>
</g>
</g>
<!-- Node19&#45;&gt;Node5 -->
<g id="edge27_Node000019_Node000005" class="edge">
<title>Node19&#45;&gt;Node5</title>
<g id="a_edge27_Node000019_Node000005"><a xlink:title=" ">
<path fill="none" stroke="#63b8ff" d="M660.82,-105.97C650.22,-98.14 633.39,-85.7 620.44,-76.13"/>
<polygon fill="#63b8ff" stroke="#63b8ff" points="622.35,-73.19 612.22,-70.06 618.18,-78.81 622.35,-73.19"/>
</a>
</g>
</g>
<!-- Node19&#45;&gt;Node14 -->
<g id="edge26_Node000019_Node000014" class="edge">
<title>Node19&#45;&gt;Node14</title>
<g id="a_edge26_Node000019_Node000014"><a xlink:title=" ">
<path fill="none" stroke="#63b8ff" d="M715.12,-105.97C777.12,-95.4 888.34,-76.43 940.93,-67.46"/>
<polygon fill="#63b8ff" stroke="#63b8ff" points="941.66,-70.88 950.93,-65.75 940.48,-63.98 941.66,-70.88"/>
</a>
</g>
</g>
<!-- Node20&#45;&gt;Node2 -->
<g id="edge30_Node000020_Node000002" class="edge">
<title>Node20&#45;&gt;Node2</title>
<g id="a_edge30_Node000020_Node000002"><a xlink:title=" ">
<path fill="none" stroke="#63b8ff" d="M283.54,-105.97C267.76,-97.76 242.26,-84.49 223.58,-74.77"/>
<polygon fill="#63b8ff" stroke="#63b8ff" points="225.01,-71.57 214.52,-70.06 221.77,-77.78 225.01,-71.57"/>
</a>
</g>
</g>
<!-- Node20&#45;&gt;Node3 -->
<g id="edge31_Node000020_Node000003" class="edge">
<title>Node20&#45;&gt;Node3</title>
<g id="a_edge31_Node000020_Node000003"><a xlink:title=" ">
<path fill="none" stroke="#63b8ff" d="M307.12,-105.92C323.43,-92.82 359.14,-66.07 394,-53 478.09,-21.47 584.77,-12.79 638.23,-10.4"/>
<polygon fill="#63b8ff" stroke="#63b8ff" points="638.64,-13.89 648.49,-9.99 638.36,-6.9 638.64,-13.89"/>
</a>
</g>
</g>
<!-- Node21&#45;&gt;Node3 -->
<g id="edge33_Node000021_Node000003" class="edge">
<title>Node21&#45;&gt;Node3</title>
<g id="a_edge33_Node000021_Node000003"><a xlink:title=" ">
<path fill="none" stroke="#63b8ff" d="M1151.14,-158.9C1158.26,-150.75 1168.74,-137.07 1173,-123 1183.08,-89.71 1167.83,-70.89 1138,-53 1065.11,-9.3 800.19,-7.97 705.74,-8.95"/>
<polygon fill="#63b8ff" stroke="#63b8ff" points="705.55,-5.45 695.6,-9.07 705.64,-12.45 705.55,-5.45"/>
</a>
</g>
</g>
<!-- Node21&#45;&gt;Node5 -->
<g id="edge37_Node000021_Node000005" class="edge">
<title>Node21&#45;&gt;Node5</title>
<g id="a_edge37_Node000021_Node000005"><a xlink:title=" ">
<path fill="none" stroke="#63b8ff" d="M1139.51,-158.9C1131.12,-145.5 1111.66,-117.98 1087,-106 1005.92,-66.63 772.76,-78.16 683,-70 669.57,-68.78 654.89,-67.43 641.76,-66.21"/>
<polygon fill="#63b8ff" stroke="#63b8ff" points="641.9,-62.71 631.62,-65.27 641.25,-69.68 641.9,-62.71"/>
</a>
</g>
</g>
<!-- Node21&#45;&gt;Node7 -->
<g id="edge38_Node000021_Node000007" class="edge">
<title>Node21&#45;&gt;Node7</title>
<g id="a_edge38_Node000021_Node000007"><a xlink:title=" ">
<path fill="none" stroke="#63b8ff" d="M1131.16,-158.97C1117.41,-150.91 1095.35,-137.98 1078.85,-128.31"/>
<polygon fill="#63b8ff" stroke="#63b8ff" points="1080.29,-125.09 1069.89,-123.06 1076.75,-131.13 1080.29,-125.09"/>
</a>
</g>
</g>
<!-- Node21&#45;&gt;Node11 -->
<g id="edge39_Node000021_Node000011" class="edge">
<title>Node21&#45;&gt;Node11</title>
<g id="a_edge39_Node000021_Node000011"><a xlink:title=" ">
<path fill="none" stroke="#63b8ff" d="M1092.06,-158.97C1024.9,-149.24 908.69,-132.41 842.32,-122.79"/>
<polygon fill="#63b8ff" stroke="#63b8ff" points="842.51,-119.28 832.11,-121.31 841.51,-126.21 842.51,-119.28"/>
</a>
</g>
</g>
<!-- Node21&#45;&gt;Node13 -->
<g id="edge34_Node000021_Node000013" class="edge">
<title>Node21&#45;&gt;Node13</title>
<g id="a_edge34_Node000021_Node000013"><a xlink:title=" ">
<path fill="none" stroke="#63b8ff" d="M1149.03,-158.66C1156,-146.72 1166.77,-123.55 1158,-106 1151.27,-92.54 1138.18,-82.17 1126.14,-74.93"/>
<polygon fill="#63b8ff" stroke="#63b8ff" points="1127.7,-71.8 1117.25,-70.01 1124.31,-77.92 1127.7,-71.8"/>
</a>
</g>
</g>
<!-- Node21&#45;&gt;Node14 -->
<g id="edge35_Node000021_Node000014" class="edge">
<title>Node21&#45;&gt;Node14</title>
<g id="a_edge35_Node000021_Node000014"><a xlink:title=" ">
<path fill="none" stroke="#63b8ff" d="M1143.15,-158.99C1141.29,-146.22 1135.72,-120.29 1120,-106 1086.32,-75.39 1032.33,-66.22 999.14,-63.53"/>
<polygon fill="#63b8ff" stroke="#63b8ff" points="999.35,-60.04 989.14,-62.87 998.89,-67.02 999.35,-60.04"/>
</a>
</g>
</g>
<!-- Node21&#45;&gt;Node16 -->
<g id="edge40_Node000021_Node000016" class="edge">
<title>Node21&#45;&gt;Node16</title>
<g id="a_edge40_Node000021_Node000016"><a xlink:title=" ">
<path fill="none" stroke="#63b8ff" d="M1163.91,-158.96C1182.8,-151.33 1211.57,-138.47 1234,-123 1253,-109.9 1271.84,-91.21 1284.11,-78.09"/>
<polygon fill="#63b8ff" stroke="#63b8ff" points="1286.99,-80.12 1291.16,-70.37 1281.83,-75.4 1286.99,-80.12"/>
</a>
</g>
</g>
<!-- Node22 -->
<g id="Node000022" class="node">
<title>Node22</title>
<g id="a_Node000022"><a xlink:title=" ">
<polygon fill="#e0e0e0" stroke="#999999" points="1375.5,-123 1286.5,-123 1286.5,-106 1375.5,-106 1375.5,-123"/>
<text text-anchor="middle" x="1331" y="-112.6" font-family="Helvetica,sans-Serif" font-size="8.00">memory_resource</text>
</a>
</g>
</g>
<!-- Node21&#45;&gt;Node22 -->
<g id="edge36_Node000021_Node000022" class="edge">
<title>Node21&#45;&gt;Node22</title>
<g id="a_edge36_Node000021_Node000022"><a xlink:title=" ">
<path fill="none" stroke="#63b8ff" d="M1171.59,-158.97C1203.91,-150.16 1257.6,-135.52 1293.63,-125.69"/>
<polygon fill="#63b8ff" stroke="#63b8ff" points="1294.57,-129.06 1303.29,-123.06 1292.73,-122.31 1294.57,-129.06"/>
</a>
</g>
</g>
<!-- Node23&#45;&gt;Node4 -->
<g id="edge44_Node000023_Node000004" class="edge">
<title>Node23&#45;&gt;Node4</title>
<g id="a_edge44_Node000023_Node000004"><a xlink:title=" ">
<path fill="none" stroke="#63b8ff" d="M1623.64,-211.93C1645.42,-205.14 1675.26,-193.51 1697,-176 1711.88,-164.02 1723.94,-145.63 1731.46,-132.27"/>
<polygon fill="#63b8ff" stroke="#63b8ff" points="1734.67,-133.69 1736.3,-123.22 1728.5,-130.39 1734.67,-133.69"/>
</a>
</g>
</g>
<!-- Node23&#45;&gt;Node10 -->
<g id="edge43_Node000023_Node000010" class="edge">
<title>Node23&#45;&gt;Node10</title>
<g id="a_edge43_Node000023_Node000010"><a xlink:title=" ">
<path fill="none" stroke="#63b8ff" d="M1590.43,-211.91C1582.64,-199.48 1565.7,-174.61 1546,-159 1528.48,-145.11 1505.79,-134.19 1487.58,-126.76"/>
<polygon fill="#63b8ff" stroke="#63b8ff" points="1488.84,-123.49 1478.26,-123.09 1486.28,-130.01 1488.84,-123.49"/>
</a>
</g>
</g>
<!-- Node23&#45;&gt;Node16 -->
<g id="edge58_Node000023_Node000016" class="edge">
<title>Node23&#45;&gt;Node16</title>
<g id="a_edge58_Node000023_Node000016"><a xlink:title=" ">
<path fill="none" stroke="#63b8ff" d="M1616.09,-211.95C1631.97,-205.11 1652.85,-193.41 1664,-176 1680.87,-149.67 1691.79,-129.35 1671,-106 1650.59,-83.07 1458.33,-70.34 1358.12,-65.21"/>
<polygon fill="#63b8ff" stroke="#63b8ff" points="1358.01,-61.69 1347.84,-64.69 1357.65,-68.69 1358.01,-61.69"/>
</a>
</g>
</g>
<!-- Node24 -->
<g id="Node000024" class="node">
<title>Node24</title>
<g id="a_Node000024"><a xlink:href="../../dc/d3c/bnode_8hpp.html" target="_top" xlink:title=" ">
<polygon fill="white" stroke="#666666" points="1654.5,-176 1593.5,-176 1593.5,-159 1654.5,-159 1654.5,-176"/>
<text text-anchor="middle" x="1624" y="-165.6" font-family="Helvetica,sans-Serif" font-size="8.00">bnode.hpp</text>
</a>
</g>
</g>
<!-- Node23&#45;&gt;Node24 -->
<g id="edge45_Node000023_Node000024" class="edge">
<title>Node23&#45;&gt;Node24</title>
<g id="a_edge45_Node000023_Node000024"><a xlink:title=" ">
<path fill="none" stroke="#63b8ff" d="M1599.28,-211.97C1603.31,-204.89 1609.47,-194.05 1614.64,-184.96"/>
<polygon fill="#63b8ff" stroke="#63b8ff" points="1617.8,-186.48 1619.7,-176.06 1611.72,-183.02 1617.8,-186.48"/>
</a>
</g>
</g>
<!-- Node25 -->
<g id="Node000025" class="node">
<title>Node25</title>
<g id="a_Node000025"><a xlink:href="../../d9/df8/heterogeneous__pool_8hpp.html" target="_top" xlink:title=" ">
<polygon fill="white" stroke="#666666" points="1536.5,-176 1357.5,-176 1357.5,-159 1536.5,-159 1536.5,-176"/>
<text text-anchor="middle" x="1447" y="-165.6" font-family="Helvetica,sans-Serif" font-size="8.00">../../types/pmr/heterogeneous_pool.hpp</text>
</a>
</g>
</g>
<!-- Node23&#45;&gt;Node25 -->
<g id="edge46_Node000023_Node000025" class="edge">
<title>Node23&#45;&gt;Node25</title>
<g id="a_edge46_Node000023_Node000025"><a xlink:title=" ">
<path fill="none" stroke="#63b8ff" d="M1573.16,-211.97C1548.13,-203.35 1506.9,-189.14 1478.42,-179.33"/>
<polygon fill="#63b8ff" stroke="#63b8ff" points="1479.52,-176.01 1468.93,-176.06 1477.24,-182.62 1479.52,-176.01"/>
</a>
</g>
</g>
<!-- Node25&#45;&gt;Node3 -->
<g id="edge48_Node000025_Node000003" class="edge">
<title>Node25&#45;&gt;Node3</title>
<g id="a_edge48_Node000025_Node000003"><a xlink:title=" ">
<path fill="none" stroke="#63b8ff" d="M1464.02,-158.97C1486.05,-148.15 1519.91,-127.18 1505,-106 1464.78,-48.87 1425.42,-67.13 1357,-53 1230.27,-26.83 825.51,-13.75 705.71,-10.39"/>
<polygon fill="#63b8ff" stroke="#63b8ff" points="705.75,-6.89 695.66,-10.11 705.56,-13.89 705.75,-6.89"/>
</a>
</g>
</g>
<!-- Node25&#45;&gt;Node4 -->
<g id="edge49_Node000025_Node000004" class="edge">
<title>Node25&#45;&gt;Node4</title>
<g id="a_edge49_Node000025_Node000004"><a xlink:title=" ">
<path fill="none" stroke="#63b8ff" d="M1490.23,-158.97C1549.51,-148.66 1654.66,-130.35 1707.62,-121.14"/>
<polygon fill="#63b8ff" stroke="#63b8ff" points="1708.54,-124.53 1717.79,-119.37 1707.34,-117.63 1708.54,-124.53"/>
</a>
</g>
</g>
<!-- Node25&#45;&gt;Node6 -->
<g id="edge53_Node000025_Node000006" class="edge">
<title>Node25&#45;&gt;Node6</title>
<g id="a_edge53_Node000025_Node000006"><a xlink:title=" ">
<path fill="none" stroke="#63b8ff" d="M1357.26,-161.93C1202.49,-154.04 875.4,-137.34 599,-123 560.03,-120.98 515.1,-118.62 486.16,-117.09"/>
<polygon fill="#63b8ff" stroke="#63b8ff" points="486.06,-113.58 475.89,-116.55 485.7,-120.57 486.06,-113.58"/>
</a>
</g>
</g>
<!-- Node25&#45;&gt;Node7 -->
<g id="edge54_Node000025_Node000007" class="edge">
<title>Node25&#45;&gt;Node7</title>
<g id="a_edge54_Node000025_Node000007"><a xlink:title=" ">
<path fill="none" stroke="#63b8ff" d="M1389.45,-158.97C1305.96,-148.06 1154.05,-128.19 1088.5,-119.62"/>
<polygon fill="#63b8ff" stroke="#63b8ff" points="1088.75,-116.12 1078.38,-118.3 1087.85,-123.06 1088.75,-116.12"/>
</a>
</g>
</g>
<!-- Node25&#45;&gt;Node10 -->
<g id="edge47_Node000025_Node000010" class="edge">
<title>Node25&#45;&gt;Node10</title>
<g id="a_edge47_Node000025_Node000010"><a xlink:title=" ">
<path fill="none" stroke="#63b8ff" d="M1448.33,-158.97C1449.52,-152.19 1451.33,-141.97 1452.89,-133.13"/>
<polygon fill="#63b8ff" stroke="#63b8ff" points="1456.38,-133.51 1454.67,-123.06 1449.48,-132.3 1456.38,-133.51"/>
</a>
</g>
</g>
<!-- Node25&#45;&gt;Node11 -->
<g id="edge57_Node000025_Node000011" class="edge">
<title>Node25&#45;&gt;Node11</title>
<g id="a_edge57_Node000025_Node000011"><a xlink:title=" ">
<path fill="none" stroke="#63b8ff" d="M1357.13,-159.84C1245.3,-151.5 1048.52,-136.65 880,-123 867.82,-122.01 854.7,-120.91 842.4,-119.87"/>
<polygon fill="#63b8ff" stroke="#63b8ff" points="842.56,-116.37 832.3,-119.01 841.96,-123.34 842.56,-116.37"/>
</a>
</g>
</g>
<!-- Node25&#45;&gt;Node14 -->
<g id="edge50_Node000025_Node000014" class="edge">
<title>Node25&#45;&gt;Node14</title>
<g id="a_edge50_Node000025_Node000014"><a xlink:title=" ">
<path fill="none" stroke="#63b8ff" d="M1441.92,-158.93C1432.49,-145.59 1410.87,-118.14 1385,-106 1367.51,-97.79 1090.99,-73.06 999.29,-65.04"/>
<polygon fill="#63b8ff" stroke="#63b8ff" points="999.32,-61.53 989.05,-64.15 998.71,-68.5 999.32,-61.53"/>
</a>
</g>
</g>
<!-- Node25&#45;&gt;Node16 -->
<g id="edge56_Node000025_Node000016" class="edge">
<title>Node25&#45;&gt;Node16</title>
<g id="a_edge56_Node000025_Node000016"><a xlink:title=" ">
<path fill="none" stroke="#63b8ff" d="M1459.14,-158.82C1476.16,-147.1 1503.51,-124.19 1489,-106 1472.73,-85.61 1407.35,-74.03 1357.58,-68.03"/>
<polygon fill="#63b8ff" stroke="#63b8ff" points="1357.87,-64.54 1347.53,-66.87 1357.07,-71.5 1357.87,-64.54"/>
</a>
</g>
</g>
<!-- Node25&#45;&gt;Node22 -->
<g id="edge55_Node000025_Node000022" class="edge">
<title>Node25&#45;&gt;Node22</title>
<g id="a_edge55_Node000025_Node000022"><a xlink:title=" ">
<path fill="none" stroke="#63b8ff" d="M1429.88,-158.97C1410.78,-150.58 1379.63,-136.88 1357.4,-127.11"/>
<polygon fill="#63b8ff" stroke="#63b8ff" points="1358.75,-123.88 1348.19,-123.06 1355.93,-130.28 1358.75,-123.88"/>
</a>
</g>
</g>
<!-- Node26 -->
<g id="Node000026" class="node">
<title>Node26</title>
<g id="a_Node000026"><a xlink:title=" ">
<polygon fill="#e0e0e0" stroke="#999999" points="1609.5,-123 1574.5,-123 1574.5,-106 1609.5,-106 1609.5,-123"/>
<text text-anchor="middle" x="1592" y="-112.6" font-family="Helvetica,sans-Serif" font-size="8.00">map</text>
</a>
</g>
</g>
<!-- Node25&#45;&gt;Node26 -->
<g id="edge51_Node000025_Node000026" class="edge">
<title>Node25&#45;&gt;Node26</title>
<g id="a_edge51_Node000025_Node000026"><a xlink:title=" ">
<path fill="none" stroke="#63b8ff" d="M1468.4,-158.97C1493.93,-149.99 1536.69,-134.96 1564.62,-125.13"/>
<polygon fill="#63b8ff" stroke="#63b8ff" points="1565.9,-128.39 1574.17,-121.77 1563.58,-121.79 1565.9,-128.39"/>
</a>
</g>
</g>
<!-- Node27 -->
<g id="Node000027" class="node">
<title>Node27</title>
<g id="a_Node000027"><a xlink:title=" ">
<polygon fill="#e0e0e0" stroke="#999999" points="1662,-123 1628,-123 1628,-106 1662,-106 1662,-123"/>
<text text-anchor="middle" x="1645" y="-112.6" font-family="Helvetica,sans-Serif" font-size="8.00">new</text>
</a>
</g>
</g>
<!-- Node25&#45;&gt;Node27 -->
<g id="edge52_Node000025_Node000027" class="edge">
<title>Node25&#45;&gt;Node27</title>
<g id="a_edge52_Node000025_Node000027"><a xlink:title=" ">
<path fill="none" stroke="#63b8ff" d="M1478.15,-158.95C1510.72,-150.99 1563.53,-137.87 1618.11,-123.17"/>
<polygon fill="#63b8ff" stroke="#63b8ff" points="1619.22,-126.49 1627.96,-120.5 1617.39,-119.74 1619.22,-126.49"/>
</a>
</g>
</g>
<!-- Node28&#45;&gt;Node3 -->
<g id="edge60_Node000028_Node000003" class="edge">
<title>Node28&#45;&gt;Node3</title>
<g id="a_edge60_Node000028_Node000003"><a xlink:title=" ">
<path fill="none" stroke="#63b8ff" d="M859.76,-165.54C784.87,-163.05 630.38,-154.16 588,-123 561.39,-103.43 544.47,-80.35 563,-53 579.68,-28.39 612.75,-17.7 638.11,-13.06"/>
<polygon fill="#63b8ff" stroke="#63b8ff" points="638.77,-16.5 648.09,-11.47 637.66,-9.59 638.77,-16.5"/>
</a>
</g>
</g>
<!-- Node28&#45;&gt;Node5 -->
<g id="edge62_Node000028_Node000005" class="edge">
<title>Node28&#45;&gt;Node5</title>
<g id="a_edge62_Node000028_Node000005"><a xlink:title=" ">
<path fill="none" stroke="#63b8ff" d="M859.76,-166.91C785.12,-166.67 632.25,-161.39 599,-123 588.89,-111.33 591.36,-93.16 595.31,-79.77"/>
<polygon fill="#63b8ff" stroke="#63b8ff" points="598.63,-80.88 598.58,-70.28 592.01,-78.6 598.63,-80.88"/>
</a>
</g>
</g>
<!-- Node28&#45;&gt;Node7 -->
<g id="edge63_Node000028_Node000007" class="edge">
<title>Node28&#45;&gt;Node7</title>
<g id="a_edge63_Node000028_Node000007"><a xlink:title=" ">
<path fill="none" stroke="#63b8ff" d="M924.02,-158.97C951.13,-150.11 996.26,-135.36 1026.32,-125.53"/>
<polygon fill="#63b8ff" stroke="#63b8ff" points="1027.47,-128.84 1035.89,-122.4 1025.3,-122.18 1027.47,-128.84"/>
</a>
</g>
</g>
<!-- Node28&#45;&gt;Node11 -->
<g id="edge64_Node000028_Node000011" class="edge">
<title>Node28&#45;&gt;Node11</title>
<g id="a_edge64_Node000028_Node000011"><a xlink:title=" ">
<path fill="none" stroke="#63b8ff" d="M884.92,-158.97C867.13,-150.65 838.22,-137.13 817.37,-127.37"/>
<polygon fill="#63b8ff" stroke="#63b8ff" points="818.69,-124.12 808.15,-123.06 815.72,-130.46 818.69,-124.12"/>
</a>
</g>
</g>
<!-- Node28&#45;&gt;Node14 -->
<g id="edge61_Node000028_Node000014" class="edge">
<title>Node28&#45;&gt;Node14</title>
<g id="a_edge61_Node000028_Node000014"><a xlink:title=" ">
<path fill="none" stroke="#63b8ff" d="M912.99,-158.94C924.33,-151.22 941.04,-138.21 951,-123 959.49,-110.02 964.39,-93.01 967.08,-80.33"/>
<polygon fill="#63b8ff" stroke="#63b8ff" points="970.59,-80.61 968.97,-70.14 963.71,-79.34 970.59,-80.61"/>
</a>
</g>
</g>
<!-- Node28&#45;&gt;Node16 -->
<g id="edge66_Node000028_Node000016" class="edge">
<title>Node28&#45;&gt;Node16</title>
<g id="a_edge66_Node000028_Node000016"><a xlink:title=" ">
<path fill="none" stroke="#63b8ff" d="M913.73,-158.85C935.92,-145.87 983.46,-119.63 1027,-106 1097.74,-83.85 1182.58,-72.56 1238.26,-67.11"/>
<polygon fill="#63b8ff" stroke="#63b8ff" points="1238.68,-70.58 1248.31,-66.15 1238.02,-63.61 1238.68,-70.58"/>
</a>
</g>
</g>
<!-- Node29 -->
<g id="Node000029" class="node">
<title>Node29</title>
<g id="a_Node000029"><a xlink:title=" ">
<polygon fill="#e0e0e0" stroke="#999999" points="941.5,-123 888.5,-123 888.5,-106 941.5,-106 941.5,-123"/>
<text text-anchor="middle" x="915" y="-112.6" font-family="Helvetica,sans-Serif" font-size="8.00">iostream</text>
</a>
</g>
</g>
<!-- Node28&#45;&gt;Node29 -->
<g id="edge65_Node000028_Node000029" class="edge">
<title>Node28&#45;&gt;Node29</title>
<g id="a_edge65_Node000028_Node000029"><a xlink:title=" ">
<path fill="none" stroke="#63b8ff" d="M903.07,-158.97C904.95,-152.12 907.8,-141.74 910.24,-132.84"/>
<polygon fill="#63b8ff" stroke="#63b8ff" points="913.65,-133.63 912.93,-123.06 906.9,-131.77 913.65,-133.63"/>
</a>
</g>
</g>
</g>
</svg>
