<?xml version="1.0" encoding="UTF-8" standalone="no"?>
<!DOCTYPE svg PUBLIC "-//W3C//DTD SVG 1.1//EN"
 "http://www.w3.org/Graphics/SVG/1.1/DTD/svg11.dtd">
<!-- Generated by graphviz version 2.43.0 (0)
 -->
<!-- Title: gjps.hpp Pages: 1 -->
<svg width="1053pt" height="237pt"
 viewBox="0.00 0.00 1053.04 237.00" xmlns="http://www.w3.org/2000/svg" xmlns:xlink="http://www.w3.org/1999/xlink">
<g id="graph0" class="graph" transform="scale(1 1) rotate(0) translate(4 233)">
<title>gjps.hpp</title>
<!-- Node1 -->
<g id="Node000001" class="node">
<title>Node1</title>
<g id="a_Node000001"><a xlink:title=" ">
<polygon fill="#999999" stroke="#666666" points="288.97,-229 241.97,-229 241.97,-212 288.97,-212 288.97,-229"/>
<text text-anchor="middle" x="265.47" y="-218.6" font-family="Helvetica,sans-Serif" font-size="8.00">gjps.hpp</text>
</a>
</g>
</g>
<!-- Node2 -->
<g id="Node000002" class="node">
<title>Node2</title>
<g id="a_Node000002"><a xlink:title=" ">
<polygon fill="#e0e0e0" stroke="#999999" points="113.97,-70 78.97,-70 78.97,-53 113.97,-53 113.97,-70"/>
<text text-anchor="middle" x="96.47" y="-59.6" font-family="Helvetica,sans-Serif" font-size="8.00">array</text>
</a>
</g>
</g>
<!-- Node1&#45;&gt;Node2 -->
<g id="edge1_Node000001_Node000002" class="edge">
<title>Node1&#45;&gt;Node2</title>
<g id="a_edge1_Node000001_Node000002"><a xlink:title=" ">
<path fill="none" stroke="#63b8ff" d="M241.96,-218.13C189.59,-214.61 65.53,-203.5 35.47,-176 11.99,-154.52 4.51,-133.52 20.47,-106 30.92,-87.97 51.98,-76.78 69.28,-70.27"/>
<polygon fill="#63b8ff" stroke="#63b8ff" points="70.6,-73.51 78.92,-66.96 68.33,-66.89 70.6,-73.51"/>
</a>
</g>
</g>
<!-- Node3 -->
<g id="Node000003" class="node">
<title>Node3</title>
<g id="a_Node000003"><a xlink:title=" ">
<polygon fill="#e0e0e0" stroke="#999999" points="633.47,-17 591.47,-17 591.47,0 633.47,0 633.47,-17"/>
<text text-anchor="middle" x="612.47" y="-6.6" font-family="Helvetica,sans-Serif" font-size="8.00">cstddef</text>
</a>
</g>
</g>
<!-- Node1&#45;&gt;Node3 -->
<g id="edge2_Node000001_Node000003" class="edge">
<title>Node1&#45;&gt;Node3</title>
<g id="a_edge2_Node000001_Node000003"><a xlink:title=" ">
<path fill="none" stroke="#63b8ff" d="M241.97,-218.76C186.25,-216.5 48.47,-207.74 17.47,-176 -4.41,-153.6 -3.4,-134.55 9.47,-106 24.09,-73.56 36.72,-66.91 69.47,-53 162.69,-13.4 480.05,-9.61 581.21,-9.43"/>
<polygon fill="#63b8ff" stroke="#63b8ff" points="581.39,-12.93 591.39,-9.43 581.39,-5.93 581.39,-12.93"/>
</a>
</g>
</g>
<!-- Node4 -->
<g id="Node000004" class="node">
<title>Node4</title>
<g id="a_Node000004"><a xlink:title=" ">
<polygon fill="#e0e0e0" stroke="#999999" points="419.97,-70 366.97,-70 366.97,-53 419.97,-53 419.97,-70"/>
<text text-anchor="middle" x="393.47" y="-59.6" font-family="Helvetica,sans-Serif" font-size="8.00">type_traits</text>
</a>
</g>
</g>
<!-- Node1&#45;&gt;Node4 -->
<g id="edge3_Node000001_Node000004" class="edge">
<title>Node1&#45;&gt;Node4</title>
<g id="a_edge3_Node000001_Node000004"><a xlink:title=" ">
<path fill="none" stroke="#63b8ff" d="M241.68,-216.9C170.9,-208.29 -29.59,-177.13 33.47,-106 54.71,-82.04 269.62,-68.68 356.91,-64.22"/>
<polygon fill="#63b8ff" stroke="#63b8ff" points="357.09,-67.71 366.9,-63.71 356.74,-60.72 357.09,-67.71"/>
</a>
</g>
</g>
<!-- Node5 -->
<g id="Node000005" class="node">
<title>Node5</title>
<g id="a_Node000005"><a xlink:title=" ">
<polygon fill="#e0e0e0" stroke="#999999" points="76.47,-123 42.47,-123 42.47,-106 76.47,-106 76.47,-123"/>
<text text-anchor="middle" x="59.47" y="-112.6" font-family="Helvetica,sans-Serif" font-size="8.00">utility</text>
</a>
</g>
</g>
<!-- Node1&#45;&gt;Node5 -->
<g id="edge4_Node000001_Node000005" class="edge">
<title>Node1&#45;&gt;Node5</title>
<g id="a_edge4_Node000001_Node000005"><a xlink:title=" ">
<path fill="none" stroke="#63b8ff" d="M250.32,-211.85C214.89,-193.97 126.38,-149.28 83.5,-127.63"/>
<polygon fill="#63b8ff" stroke="#63b8ff" points="84.86,-124.4 74.36,-123.02 81.71,-130.65 84.86,-124.4"/>
</a>
</g>
</g>
<!-- Node6 -->
<g id="Node000006" class="node">
<title>Node6</title>
<g id="a_Node000006"><a xlink:href="../../dc/d8a/grid_8hpp.html" target="_top" xlink:title=" ">
<polygon fill="white" stroke="#666666" points="304.47,-176 226.47,-176 226.47,-159 304.47,-159 304.47,-176"/>
<text text-anchor="middle" x="265.47" y="-165.6" font-family="Helvetica,sans-Serif" font-size="8.00">../mazes/grid.hpp</text>
</a>
</g>
</g>
<!-- Node1&#45;&gt;Node6 -->
<g id="edge5_Node000001_Node000006" class="edge">
<title>Node1&#45;&gt;Node6</title>
<g id="a_edge5_Node000001_Node000006"><a xlink:title=" ">
<path fill="none" stroke="#63b8ff" d="M265.47,-211.97C265.47,-205.19 265.47,-194.97 265.47,-186.13"/>
<polygon fill="#63b8ff" stroke="#63b8ff" points="268.97,-186.06 265.47,-176.06 261.97,-186.06 268.97,-186.06"/>
</a>
</g>
</g>
<!-- Node10 -->
<g id="Node000010" class="node">
<title>Node10</title>
<g id="a_Node000010"><a xlink:href="../../df/d93/utils_8hpp.html" target="_top" xlink:title=" ">
<polygon fill="white" stroke="#666666" points="572.47,-123 504.47,-123 504.47,-106 572.47,-106 572.47,-123"/>
<text text-anchor="middle" x="538.47" y="-112.6" font-family="Helvetica,sans-Serif" font-size="8.00">../utils/utils.hpp</text>
</a>
</g>
</g>
<!-- Node1&#45;&gt;Node10 -->
<g id="edge36_Node000001_Node000010" class="edge">
<title>Node1&#45;&gt;Node10</title>
<g id="a_edge36_Node000001_Node000010"><a xlink:title=" ">
<path fill="none" stroke="#63b8ff" d="M285.54,-211.85C333.19,-193.7 453.26,-147.96 509.09,-126.69"/>
<polygon fill="#63b8ff" stroke="#63b8ff" points="510.63,-129.85 518.73,-123.02 508.14,-123.31 510.63,-129.85"/>
</a>
</g>
</g>
<!-- Node15 -->
<g id="Node000015" class="node">
<title>Node15</title>
<g id="a_Node000015"><a xlink:href="../../d7/d65/intrinsics_8hpp.html" target="_top" xlink:title=" ">
<polygon fill="#fff0f0" stroke="red" points="807.97,-70 722.97,-70 722.97,-53 807.97,-53 807.97,-70"/>
<text text-anchor="middle" x="765.47" y="-59.6" font-family="Helvetica,sans-Serif" font-size="8.00">../utils/intrinsics.hpp</text>
</a>
</g>
</g>
<!-- Node1&#45;&gt;Node15 -->
<g id="edge44_Node000001_Node000015" class="edge">
<title>Node1&#45;&gt;Node15</title>
<g id="a_edge44_Node000001_Node000015"><a xlink:title=" ">
<path fill="none" stroke="#63b8ff" d="M289.06,-218.71C388.39,-215.27 772.93,-200.59 891.47,-176 960.7,-161.64 1000.64,-180.73 1041.47,-123 1045.83,-116.83 1046.38,-111.74 1041.47,-106 1013.34,-73.1 890.29,-64.93 818.34,-63"/>
<polygon fill="#63b8ff" stroke="#63b8ff" points="818.19,-59.49 808.11,-62.76 818.02,-66.49 818.19,-59.49"/>
</a>
</g>
</g>
<!-- Node19 -->
<g id="Node000019" class="node">
<title>Node19</title>
<g id="a_Node000019"><a xlink:href="../../d8/d62/existence__set_8hpp.html" target="_top" xlink:title=" ">
<polygon fill="white" stroke="#666666" points="881.97,-176 734.97,-176 734.97,-159 881.97,-159 881.97,-176"/>
<text text-anchor="middle" x="808.47" y="-165.6" font-family="Helvetica,sans-Serif" font-size="8.00">../types/containers/existence_set.hpp</text>
</a>
</g>
</g>
<!-- Node1&#45;&gt;Node19 -->
<g id="edge27_Node000001_Node000019" class="edge">
<title>Node1&#45;&gt;Node19</title>
<g id="a_edge27_Node000001_Node000019"><a xlink:title=" ">
<path fill="none" stroke="#63b8ff" d="M289.15,-217.28C363.98,-210.25 597.86,-188.28 724.69,-176.37"/>
<polygon fill="#63b8ff" stroke="#63b8ff" points="725.12,-179.84 734.75,-175.42 724.47,-172.87 725.12,-179.84"/>
</a>
</g>
</g>
<!-- Node21 -->
<g id="Node000021" class="node">
<title>Node21</title>
<g id="a_Node000021"><a xlink:href="../../d2/d1c/solver_8hpp.html" target="_top" xlink:title=" ">
<polygon fill="white" stroke="#666666" points="636.47,-176 564.47,-176 564.47,-159 636.47,-159 636.47,-176"/>
<text text-anchor="middle" x="600.47" y="-165.6" font-family="Helvetica,sans-Serif" font-size="8.00">base/solver.hpp</text>
</a>
</g>
</g>
<!-- Node1&#45;&gt;Node21 -->
<g id="edge37_Node000001_Node000021" class="edge">
<title>Node1&#45;&gt;Node21</title>
<g id="a_edge37_Node000001_Node000021"><a xlink:title=" ">
<path fill="none" stroke="#63b8ff" d="M289.02,-215.91C344.03,-207.54 481.74,-186.57 554.21,-175.54"/>
<polygon fill="#63b8ff" stroke="#63b8ff" points="555.06,-178.95 564.42,-173.99 554,-172.03 555.06,-178.95"/>
</a>
</g>
</g>
<!-- Node6&#45;&gt;Node2 -->
<g id="edge7_Node000006_Node000002" class="edge">
<title>Node6&#45;&gt;Node2</title>
<g id="a_edge7_Node000006_Node000002"><a xlink:title=" ">
<path fill="none" stroke="#63b8ff" d="M226.2,-162.14C196.5,-157.07 156.24,-146.2 128.47,-123 114.94,-111.7 106.34,-93.18 101.51,-79.6"/>
<polygon fill="#63b8ff" stroke="#63b8ff" points="104.81,-78.45 98.41,-70.01 98.15,-80.6 104.81,-78.45"/>
</a>
</g>
</g>
<!-- Node6&#45;&gt;Node3 -->
<g id="edge9_Node000006_Node000003" class="edge">
<title>Node6&#45;&gt;Node3</title>
<g id="a_edge9_Node000006_Node000003"><a xlink:title=" ">
<path fill="none" stroke="#63b8ff" d="M241.53,-158.91C213.62,-148.76 173.36,-129.34 190.47,-106 237.17,-42.3 491.7,-18.15 581.27,-11.54"/>
<polygon fill="#63b8ff" stroke="#63b8ff" points="581.63,-15.03 591.35,-10.82 581.13,-8.05 581.63,-15.03"/>
</a>
</g>
</g>
<!-- Node6&#45;&gt;Node4 -->
<g id="edge10_Node000006_Node000004" class="edge">
<title>Node6&#45;&gt;Node4</title>
<g id="a_edge10_Node000006_Node000004"><a xlink:title=" ">
<path fill="none" stroke="#63b8ff" d="M245.58,-158.91C220.41,-148.18 182.27,-127.48 199.47,-106 218.75,-81.91 305.72,-70.25 356.43,-65.41"/>
<polygon fill="#63b8ff" stroke="#63b8ff" points="357.02,-68.87 366.66,-64.48 356.39,-61.9 357.02,-68.87"/>
</a>
</g>
</g>
<!-- Node6&#45;&gt;Node5 -->
<g id="edge11_Node000006_Node000005" class="edge">
<title>Node6&#45;&gt;Node5</title>
<g id="a_edge11_Node000006_Node000005"><a xlink:title=" ">
<path fill="none" stroke="#63b8ff" d="M235.07,-158.97C194.97,-149.05 124.99,-131.72 86.6,-122.22"/>
<polygon fill="#63b8ff" stroke="#63b8ff" points="87.2,-118.76 76.66,-119.76 85.52,-125.56 87.2,-118.76"/>
</a>
</g>
</g>
<!-- Node7 -->
<g id="Node000007" class="node">
<title>Node7</title>
<g id="a_Node000007"><a xlink:title=" ">
<polygon fill="#e0e0e0" stroke="#999999" points="258.47,-123 208.47,-123 208.47,-106 258.47,-106 258.47,-123"/>
<text text-anchor="middle" x="233.47" y="-112.6" font-family="Helvetica,sans-Serif" font-size="8.00">algorithm</text>
</a>
</g>
</g>
<!-- Node6&#45;&gt;Node7 -->
<g id="edge6_Node000006_Node000007" class="edge">
<title>Node6&#45;&gt;Node7</title>
<g id="a_edge6_Node000006_Node000007"><a xlink:title=" ">
<path fill="none" stroke="#63b8ff" d="M260.75,-158.97C256.26,-151.82 249.35,-140.82 243.62,-131.67"/>
<polygon fill="#63b8ff" stroke="#63b8ff" points="246.49,-129.67 238.21,-123.06 240.56,-133.39 246.49,-129.67"/>
</a>
</g>
</g>
<!-- Node8 -->
<g id="Node000008" class="node">
<title>Node8</title>
<g id="a_Node000008"><a xlink:title=" ">
<polygon fill="#e0e0e0" stroke="#999999" points="318.47,-123 276.47,-123 276.47,-106 318.47,-106 318.47,-123"/>
<text text-anchor="middle" x="297.47" y="-112.6" font-family="Helvetica,sans-Serif" font-size="8.00">cassert</text>
</a>
</g>
</g>
<!-- Node6&#45;&gt;Node8 -->
<g id="edge8_Node000006_Node000008" class="edge">
<title>Node6&#45;&gt;Node8</title>
<g id="a_edge8_Node000006_Node000008"><a xlink:title=" ">
<path fill="none" stroke="#63b8ff" d="M270.19,-158.97C274.68,-151.82 281.58,-140.82 287.32,-131.67"/>
<polygon fill="#63b8ff" stroke="#63b8ff" points="290.38,-133.39 292.73,-123.06 284.45,-129.67 290.38,-133.39"/>
</a>
</g>
</g>
<!-- Node9 -->
<g id="Node000009" class="node">
<title>Node9</title>
<g id="a_Node000009"><a xlink:title=" ">
<polygon fill="#e0e0e0" stroke="#999999" points="704.47,-123 666.47,-123 666.47,-106 704.47,-106 704.47,-123"/>
<text text-anchor="middle" x="685.47" y="-112.6" font-family="Helvetica,sans-Serif" font-size="8.00">vector</text>
</a>
</g>
</g>
<!-- Node6&#45;&gt;Node9 -->
<g id="edge12_Node000006_Node000009" class="edge">
<title>Node6&#45;&gt;Node9</title>
<g id="a_edge12_Node000006_Node000009"><a xlink:title=" ">
<path fill="none" stroke="#63b8ff" d="M304.67,-163.55C374.78,-157.95 526.14,-144.39 652.47,-123 653.74,-122.78 655.03,-122.55 656.34,-122.3"/>
<polygon fill="#63b8ff" stroke="#63b8ff" points="657.27,-125.69 666.35,-120.23 655.84,-118.83 657.27,-125.69"/>
</a>
</g>
</g>
<!-- Node6&#45;&gt;Node10 -->
<g id="edge13_Node000006_Node000010" class="edge">
<title>Node6&#45;&gt;Node10</title>
<g id="a_edge13_Node000006_Node000010"><a xlink:title=" ">
<path fill="none" stroke="#63b8ff" d="M304.58,-159.19C354.76,-149.82 441.56,-133.6 494.13,-123.78"/>
<polygon fill="#63b8ff" stroke="#63b8ff" points="494.98,-127.18 504.17,-121.91 493.7,-120.3 494.98,-127.18"/>
</a>
</g>
</g>
<!-- Node6&#45;&gt;Node15 -->
<g id="edge26_Node000006_Node000015" class="edge">
<title>Node6&#45;&gt;Node15</title>
<g id="a_edge26_Node000006_Node000015"><a xlink:title=" ">
<path fill="none" stroke="#63b8ff" d="M304.8,-163.39C364.98,-158.11 483.27,-145.71 581.47,-123 637.53,-110.04 700.85,-87.37 736.68,-73.77"/>
<polygon fill="#63b8ff" stroke="#63b8ff" points="738.37,-76.87 746.46,-70.02 735.86,-70.33 738.37,-76.87"/>
</a>
</g>
</g>
<!-- Node18 -->
<g id="Node000018" class="node">
<title>Node18</title>
<g id="a_Node000018"><a xlink:href="../../d1/d2d/weighted__node_8hpp.html" target="_top" xlink:title=" ">
<polygon fill="white" stroke="#666666" points="447.97,-123 336.97,-123 336.97,-106 447.97,-106 447.97,-123"/>
<text text-anchor="middle" x="392.47" y="-112.6" font-family="Helvetica,sans-Serif" font-size="8.00">nodes/weighted_node.hpp</text>
</a>
</g>
</g>
<!-- Node6&#45;&gt;Node18 -->
<g id="edge23_Node000006_Node000018" class="edge">
<title>Node6&#45;&gt;Node18</title>
<g id="a_edge23_Node000006_Node000018"><a xlink:title=" ">
<path fill="none" stroke="#63b8ff" d="M284.21,-158.97C305.31,-150.5 339.84,-136.64 364.21,-126.85"/>
<polygon fill="#63b8ff" stroke="#63b8ff" points="365.68,-130.03 373.65,-123.06 363.07,-123.53 365.68,-130.03"/>
</a>
</g>
</g>
<!-- Node10&#45;&gt;Node2 -->
<g id="edge14_Node000010_Node000002" class="edge">
<title>Node10&#45;&gt;Node2</title>
<g id="a_edge14_Node000010_Node000002"><a xlink:title=" ">
<path fill="none" stroke="#63b8ff" d="M504.15,-109.54C419.48,-99.77 201.85,-74.66 124.37,-65.72"/>
<polygon fill="#63b8ff" stroke="#63b8ff" points="124.32,-62.19 113.99,-64.52 123.52,-69.14 124.32,-62.19"/>
</a>
</g>
</g>
<!-- Node10&#45;&gt;Node3 -->
<g id="edge16_Node000010_Node000003" class="edge">
<title>Node10&#45;&gt;Node3</title>
<g id="a_edge16_Node000010_Node000003"><a xlink:title=" ">
<path fill="none" stroke="#63b8ff" d="M520.46,-105.82C497.65,-94.99 463.08,-74.18 478.47,-53 501.85,-20.82 549.6,-11.97 581.32,-9.8"/>
<polygon fill="#63b8ff" stroke="#63b8ff" points="581.59,-13.29 591.4,-9.29 581.24,-6.3 581.59,-13.29"/>
</a>
</g>
</g>
<!-- Node10&#45;&gt;Node4 -->
<g id="edge20_Node000010_Node000004" class="edge">
<title>Node10&#45;&gt;Node4</title>
<g id="a_edge20_Node000010_Node000004"><a xlink:title=" ">
<path fill="none" stroke="#63b8ff" d="M517.07,-105.97C492.66,-97.39 452.51,-83.27 424.62,-73.46"/>
<polygon fill="#63b8ff" stroke="#63b8ff" points="425.55,-70.07 414.95,-70.06 423.22,-76.68 425.55,-70.07"/>
</a>
</g>
</g>
<!-- Node11 -->
<g id="Node000011" class="node">
<title>Node11</title>
<g id="a_Node000011"><a xlink:title=" ">
<polygon fill="#e0e0e0" stroke="#999999" points="525.47,-70 487.47,-70 487.47,-53 525.47,-53 525.47,-70"/>
<text text-anchor="middle" x="506.47" y="-59.6" font-family="Helvetica,sans-Serif" font-size="8.00">cmath</text>
</a>
</g>
</g>
<!-- Node10&#45;&gt;Node11 -->
<g id="edge15_Node000010_Node000011" class="edge">
<title>Node10&#45;&gt;Node11</title>
<g id="a_edge15_Node000010_Node000011"><a xlink:title=" ">
<path fill="none" stroke="#63b8ff" d="M533.75,-105.97C529.26,-98.82 522.35,-87.82 516.62,-78.67"/>
<polygon fill="#63b8ff" stroke="#63b8ff" points="519.49,-76.67 511.21,-70.06 513.56,-80.39 519.49,-76.67"/>
</a>
</g>
</g>
<!-- Node12 -->
<g id="Node000012" class="node">
<title>Node12</title>
<g id="a_Node000012"><a xlink:title=" ">
<polygon fill="#e0e0e0" stroke="#999999" points="701.47,-70 651.47,-70 651.47,-53 701.47,-53 701.47,-70"/>
<text text-anchor="middle" x="676.47" y="-59.6" font-family="Helvetica,sans-Serif" font-size="8.00">functional</text>
</a>
</g>
</g>
<!-- Node10&#45;&gt;Node12 -->
<g id="edge17_Node000010_Node000012" class="edge">
<title>Node10&#45;&gt;Node12</title>
<g id="a_edge17_Node000010_Node000012"><a xlink:title=" ">
<path fill="none" stroke="#63b8ff" d="M558.83,-105.97C581.97,-97.42 619.94,-83.39 646.47,-73.59"/>
<polygon fill="#63b8ff" stroke="#63b8ff" points="647.86,-76.81 656.02,-70.06 645.43,-70.24 647.86,-76.81"/>
</a>
</g>
</g>
<!-- Node13 -->
<g id="Node000013" class="node">
<title>Node13</title>
<g id="a_Node000013"><a xlink:title=" ">
<polygon fill="#e0e0e0" stroke="#999999" points="631.47,-70 597.47,-70 597.47,-53 631.47,-53 631.47,-70"/>
<text text-anchor="middle" x="614.47" y="-59.6" font-family="Helvetica,sans-Serif" font-size="8.00">limits</text>
</a>
</g>
</g>
<!-- Node10&#45;&gt;Node13 -->
<g id="edge18_Node000010_Node000013" class="edge">
<title>Node10&#45;&gt;Node13</title>
<g id="a_edge18_Node000010_Node000013"><a xlink:title=" ">
<path fill="none" stroke="#63b8ff" d="M549.68,-105.97C561.47,-98.07 580.25,-85.46 594.57,-75.86"/>
<polygon fill="#63b8ff" stroke="#63b8ff" points="596.85,-78.53 603.21,-70.06 592.95,-72.72 596.85,-78.53"/>
</a>
</g>
</g>
<!-- Node14 -->
<g id="Node000014" class="node">
<title>Node14</title>
<g id="a_Node000014"><a xlink:title=" ">
<polygon fill="#e0e0e0" stroke="#999999" points="579.47,-70 543.47,-70 543.47,-53 579.47,-53 579.47,-70"/>
<text text-anchor="middle" x="561.47" y="-59.6" font-family="Helvetica,sans-Serif" font-size="8.00">string</text>
</a>
</g>
</g>
<!-- Node10&#45;&gt;Node14 -->
<g id="edge19_Node000010_Node000014" class="edge">
<title>Node10&#45;&gt;Node14</title>
<g id="a_edge19_Node000010_Node000014"><a xlink:title=" ">
<path fill="none" stroke="#63b8ff" d="M541.86,-105.97C545.02,-98.97 549.84,-88.28 553.91,-79.25"/>
<polygon fill="#63b8ff" stroke="#63b8ff" points="557.14,-80.61 558.06,-70.06 550.76,-77.73 557.14,-80.61"/>
</a>
</g>
</g>
<!-- Node10&#45;&gt;Node15 -->
<g id="edge21_Node000010_Node000015" class="edge">
<title>Node10&#45;&gt;Node15</title>
<g id="a_edge21_Node000010_Node000015"><a xlink:title=" ">
<path fill="none" stroke="#63b8ff" d="M571.96,-105.97C611.78,-97.03 678.32,-82.08 722.06,-72.25"/>
<polygon fill="#63b8ff" stroke="#63b8ff" points="722.85,-75.66 731.84,-70.06 721.31,-68.83 722.85,-75.66"/>
</a>
</g>
</g>
<!-- Node15&#45;&gt;Node3 -->
<g id="edge22_Node000015_Node000003" class="edge">
<title>Node15&#45;&gt;Node3</title>
<g id="a_edge22_Node000015_Node000003"><a xlink:title=" ">
<path fill="none" stroke="#63b8ff" d="M742.89,-52.97C716.57,-44.2 672.92,-29.65 643.44,-19.82"/>
<polygon fill="#63b8ff" stroke="#63b8ff" points="644.25,-16.4 633.66,-16.56 642.04,-23.05 644.25,-16.4"/>
</a>
</g>
</g>
<!-- Node18&#45;&gt;Node4 -->
<g id="edge25_Node000018_Node000004" class="edge">
<title>Node18&#45;&gt;Node4</title>
<g id="a_edge25_Node000018_Node000004"><a xlink:title=" ">
<path fill="none" stroke="#63b8ff" d="M392.62,-105.97C392.75,-99.19 392.95,-88.97 393.12,-80.13"/>
<polygon fill="#63b8ff" stroke="#63b8ff" points="396.62,-80.12 393.32,-70.06 389.62,-79.99 396.62,-80.12"/>
</a>
</g>
</g>
<!-- Node18&#45;&gt;Node13 -->
<g id="edge24_Node000018_Node000013" class="edge">
<title>Node18&#45;&gt;Node13</title>
<g id="a_edge24_Node000018_Node000013"><a xlink:title=" ">
<path fill="none" stroke="#63b8ff" d="M429.84,-105.93C467.39,-98.16 527.13,-85.37 587.72,-70.05"/>
<polygon fill="#63b8ff" stroke="#63b8ff" points="588.62,-73.44 597.45,-67.57 586.89,-66.65 588.62,-73.44"/>
</a>
</g>
</g>
<!-- Node19&#45;&gt;Node3 -->
<g id="edge28_Node000019_Node000003" class="edge">
<title>Node19&#45;&gt;Node3</title>
<g id="a_edge28_Node000019_Node000003"><a xlink:title=" ">
<path fill="none" stroke="#63b8ff" d="M882.1,-162.75C942.57,-157.95 1021.42,-147.14 1041.47,-123 1046.3,-117.19 1046.1,-111.97 1041.47,-106 992.25,-42.52 734.05,-18.19 643.71,-11.55"/>
<polygon fill="#63b8ff" stroke="#63b8ff" points="643.78,-8.04 633.55,-10.82 643.28,-15.03 643.78,-8.04"/>
</a>
</g>
</g>
<!-- Node19&#45;&gt;Node4 -->
<g id="edge32_Node000019_Node000004" class="edge">
<title>Node19&#45;&gt;Node4</title>
<g id="a_edge32_Node000019_Node000004"><a xlink:title=" ">
<path fill="none" stroke="#63b8ff" d="M797.91,-158.95C777.12,-144.23 731.37,-112.56 713.47,-106 687.32,-96.42 509.06,-75.52 430.51,-66.63"/>
<polygon fill="#63b8ff" stroke="#63b8ff" points="430.44,-63.1 420.11,-65.46 429.66,-70.05 430.44,-63.1"/>
</a>
</g>
</g>
<!-- Node19&#45;&gt;Node9 -->
<g id="edge33_Node000019_Node000009" class="edge">
<title>Node19&#45;&gt;Node9</title>
<g id="a_edge33_Node000019_Node000009"><a xlink:title=" ">
<path fill="none" stroke="#63b8ff" d="M790.32,-158.97C769.97,-150.54 736.74,-136.76 713.15,-126.98"/>
<polygon fill="#63b8ff" stroke="#63b8ff" points="714.27,-123.65 703.69,-123.06 711.59,-130.12 714.27,-123.65"/>
</a>
</g>
</g>
<!-- Node19&#45;&gt;Node10 -->
<g id="edge34_Node000019_Node000010" class="edge">
<title>Node19&#45;&gt;Node10</title>
<g id="a_edge34_Node000019_Node000010"><a xlink:title=" ">
<path fill="none" stroke="#63b8ff" d="M768.63,-158.97C718.85,-149.57 633.94,-133.53 582.34,-123.79"/>
<polygon fill="#63b8ff" stroke="#63b8ff" points="582.96,-120.34 572.48,-121.93 581.66,-127.22 582.96,-120.34"/>
</a>
</g>
</g>
<!-- Node19&#45;&gt;Node12 -->
<g id="edge29_Node000019_Node000012" class="edge">
<title>Node19&#45;&gt;Node12</title>
<g id="a_edge29_Node000019_Node000012"><a xlink:title=" ">
<path fill="none" stroke="#63b8ff" d="M813.98,-158.61C821.9,-146.2 834.32,-121.9 822.47,-106 815.69,-96.91 752.49,-80.48 711.49,-70.62"/>
<polygon fill="#63b8ff" stroke="#63b8ff" points="712.14,-67.18 701.6,-68.27 710.52,-73.99 712.14,-67.18"/>
</a>
</g>
</g>
<!-- Node19&#45;&gt;Node13 -->
<g id="edge30_Node000019_Node000013" class="edge">
<title>Node19&#45;&gt;Node13</title>
<g id="a_edge30_Node000019_Node000013"><a xlink:title=" ">
<path fill="none" stroke="#63b8ff" d="M802.46,-158.66C792.27,-145.88 770.38,-120.52 746.47,-106 728.7,-95.21 675.03,-79.23 641.85,-69.94"/>
<polygon fill="#63b8ff" stroke="#63b8ff" points="642.44,-66.47 631.87,-67.18 640.57,-73.22 642.44,-66.47"/>
</a>
</g>
</g>
<!-- Node19&#45;&gt;Node15 -->
<g id="edge35_Node000019_Node000015" class="edge">
<title>Node19&#45;&gt;Node15</title>
<g id="a_edge35_Node000019_Node000015"><a xlink:title=" ">
<path fill="none" stroke="#63b8ff" d="M839.94,-158.96C872.74,-149.55 916.98,-131.53 898.47,-106 880.16,-80.75 846.77,-69.89 818.03,-65.33"/>
<polygon fill="#63b8ff" stroke="#63b8ff" points="818.47,-61.86 808.09,-63.97 817.52,-68.79 818.47,-61.86"/>
</a>
</g>
</g>
<!-- Node20 -->
<g id="Node000020" class="node">
<title>Node20</title>
<g id="a_Node000020"><a xlink:title=" ">
<polygon fill="#e0e0e0" stroke="#999999" points="1032.47,-123 950.47,-123 950.47,-106 1032.47,-106 1032.47,-123"/>
<text text-anchor="middle" x="991.47" y="-112.6" font-family="Helvetica,sans-Serif" font-size="8.00">memory_resource</text>
</a>
</g>
</g>
<!-- Node19&#45;&gt;Node20 -->
<g id="edge31_Node000019_Node000020" class="edge">
<title>Node19&#45;&gt;Node20</title>
<g id="a_edge31_Node000019_Node000020"><a xlink:title=" ">
<path fill="none" stroke="#63b8ff" d="M835.47,-158.97C866.96,-150.2 919.19,-135.64 954.45,-125.82"/>
<polygon fill="#63b8ff" stroke="#63b8ff" points="955.66,-129.11 964.36,-123.06 953.78,-122.37 955.66,-129.11"/>
</a>
</g>
</g>
<!-- Node21&#45;&gt;Node3 -->
<g id="edge38_Node000021_Node000003" class="edge">
<title>Node21&#45;&gt;Node3</title>
<g id="a_edge38_Node000021_Node000003"><a xlink:title=" ">
<path fill="none" stroke="#63b8ff" d="M636.71,-161.78C711.27,-150.62 870.52,-118.49 817.47,-53 795.94,-26.42 695.43,-15.42 643.58,-11.45"/>
<polygon fill="#63b8ff" stroke="#63b8ff" points="643.83,-7.96 633.6,-10.73 643.32,-14.94 643.83,-7.96"/>
</a>
</g>
</g>
<!-- Node21&#45;&gt;Node4 -->
<g id="edge40_Node000021_Node000004" class="edge">
<title>Node21&#45;&gt;Node4</title>
<g id="a_edge40_Node000021_Node000004"><a xlink:title=" ">
<path fill="none" stroke="#63b8ff" d="M579.96,-159C558.51,-150.93 524.05,-137.31 495.47,-123 466.22,-108.36 434,-88.6 413.75,-75.7"/>
<polygon fill="#63b8ff" stroke="#63b8ff" points="415.4,-72.6 405.1,-70.14 411.62,-78.49 415.4,-72.6"/>
</a>
</g>
</g>
<!-- Node21&#45;&gt;Node9 -->
<g id="edge41_Node000021_Node000009" class="edge">
<title>Node21&#45;&gt;Node9</title>
<g id="a_edge41_Node000021_Node000009"><a xlink:title=" ">
<path fill="none" stroke="#63b8ff" d="M613.01,-158.97C626.44,-150.91 648,-137.98 664.12,-128.31"/>
<polygon fill="#63b8ff" stroke="#63b8ff" points="666.1,-131.2 672.87,-123.06 662.5,-125.2 666.1,-131.2"/>
</a>
</g>
</g>
<!-- Node21&#45;&gt;Node10 -->
<g id="edge42_Node000021_Node000010" class="edge">
<title>Node21&#45;&gt;Node10</title>
<g id="a_edge42_Node000021_Node000010"><a xlink:title=" ">
<path fill="none" stroke="#63b8ff" d="M591.32,-158.97C581.98,-151.29 567.25,-139.18 555.71,-129.69"/>
<polygon fill="#63b8ff" stroke="#63b8ff" points="557.6,-126.71 547.65,-123.06 553.15,-132.11 557.6,-126.71"/>
</a>
</g>
</g>
<!-- Node21&#45;&gt;Node13 -->
<g id="edge39_Node000021_Node000013" class="edge">
<title>Node21&#45;&gt;Node13</title>
<g id="a_edge39_Node000021_Node000013"><a xlink:title=" ">
<path fill="none" stroke="#63b8ff" d="M601.52,-158.68C603.75,-142.11 609,-103.11 612.09,-80.18"/>
<polygon fill="#63b8ff" stroke="#63b8ff" points="615.58,-80.5 613.44,-70.12 608.64,-79.57 615.58,-80.5"/>
</a>
</g>
</g>
<!-- Node21&#45;&gt;Node15 -->
<g id="edge43_Node000021_Node000015" class="edge">
<title>Node21&#45;&gt;Node15</title>
<g id="a_edge43_Node000021_Node000015"><a xlink:title=" ">
<path fill="none" stroke="#63b8ff" d="M631.73,-158.96C655.61,-152.19 688.56,-140.56 713.47,-123 730.57,-110.94 745.61,-92.03 755.05,-78.57"/>
<polygon fill="#63b8ff" stroke="#63b8ff" points="757.96,-80.51 760.65,-70.27 752.16,-76.6 757.96,-80.51"/>
</a>
</g>
</g>
</g>
</svg>
