<?xml version="1.0" encoding="UTF-8" standalone="no"?>
<!DOCTYPE svg PUBLIC "-//W3C//DTD SVG 1.1//EN"
 "http://www.w3.org/Graphics/SVG/1.1/DTD/svg11.dtd">
<!-- Generated by graphviz version 2.43.0 (0)
 -->
<!-- Title: gjps.hpp Pages: 1 -->
<svg width="872pt" height="290pt"
 viewBox="0.00 0.00 871.51 290.00" xmlns="http://www.w3.org/2000/svg" xmlns:xlink="http://www.w3.org/1999/xlink">
<g id="graph0" class="graph" transform="scale(1 1) rotate(0) translate(4 286)">
<title>gjps.hpp</title>
<!-- Node1 -->
<g id="Node000001" class="node">
<title>Node1</title>
<g id="a_Node000001"><a xlink:title=" ">
<polygon fill="#999999" stroke="#666666" points="376.5,-282 329.5,-282 329.5,-265 376.5,-265 376.5,-282"/>
<text text-anchor="middle" x="353" y="-271.6" font-family="Helvetica,sans-Serif" font-size="8.00">gjps.hpp</text>
</a>
</g>
</g>
<!-- Node2 -->
<g id="Node000002" class="node">
<title>Node2</title>
<g id="a_Node000002"><a xlink:title=" ">
<polygon fill="#e0e0e0" stroke="#999999" points="145.5,-70 110.5,-70 110.5,-53 145.5,-53 145.5,-70"/>
<text text-anchor="middle" x="128" y="-59.6" font-family="Helvetica,sans-Serif" font-size="8.00">array</text>
</a>
</g>
</g>
<!-- Node1&#45;&gt;Node2 -->
<g id="edge1_Node000001_Node000002" class="edge">
<title>Node1&#45;&gt;Node2</title>
<g id="a_edge1_Node000001_Node000002"><a xlink:title=" ">
<path fill="none" stroke="#63b8ff" d="M329.13,-269.1C269.92,-259.22 116.73,-224.46 57,-123 43.73,-100.45 75.48,-82.27 100.72,-71.92"/>
<polygon fill="#63b8ff" stroke="#63b8ff" points="102.24,-75.09 110.31,-68.22 99.72,-68.56 102.24,-75.09"/>
</a>
</g>
</g>
<!-- Node3 -->
<g id="Node000003" class="node">
<title>Node3</title>
<g id="a_Node000003"><a xlink:title=" ">
<polygon fill="#e0e0e0" stroke="#999999" points="637,-17 595,-17 595,0 637,0 637,-17"/>
<text text-anchor="middle" x="616" y="-6.6" font-family="Helvetica,sans-Serif" font-size="8.00">cstddef</text>
</a>
</g>
</g>
<!-- Node1&#45;&gt;Node3 -->
<g id="edge2_Node000001_Node000003" class="edge">
<title>Node1&#45;&gt;Node3</title>
<g id="a_edge2_Node000001_Node000003"><a xlink:title=" ">
<path fill="none" stroke="#63b8ff" d="M329.29,-270.68C250.14,-263.98 0,-237.34 0,-168.5 0,-168.5 0,-168.5 0,-113.5 0,-61.17 51.2,-69.06 101,-53 191.85,-23.7 487.45,-13.06 584.68,-10.3"/>
<polygon fill="#63b8ff" stroke="#63b8ff" points="584.86,-13.79 594.76,-10.02 584.66,-6.79 584.86,-13.79"/>
</a>
</g>
</g>
<!-- Node4 -->
<g id="Node000004" class="node">
<title>Node4</title>
<g id="a_Node000004"><a xlink:title=" ">
<polygon fill="#e0e0e0" stroke="#999999" points="626.5,-70 573.5,-70 573.5,-53 626.5,-53 626.5,-70"/>
<text text-anchor="middle" x="600" y="-59.6" font-family="Helvetica,sans-Serif" font-size="8.00">type_traits</text>
</a>
</g>
</g>
<!-- Node1&#45;&gt;Node4 -->
<g id="edge3_Node000001_Node000004" class="edge">
<title>Node1&#45;&gt;Node4</title>
<g id="a_edge3_Node000001_Node000004"><a xlink:title=" ">
<path fill="none" stroke="#63b8ff" d="M376.74,-272.88C434.47,-273.09 586.08,-269.42 704,-229 747.55,-214.07 762.05,-210.08 793,-176 815.21,-151.54 838.97,-131.53 818,-106 767.6,-44.65 720.44,-83.28 636.59,-69.89"/>
<polygon fill="#63b8ff" stroke="#63b8ff" points="637.19,-66.44 626.73,-68.1 635.94,-73.33 637.19,-66.44"/>
</a>
</g>
</g>
<!-- Node5 -->
<g id="Node000005" class="node">
<title>Node5</title>
<g id="a_Node000005"><a xlink:title=" ">
<polygon fill="#e0e0e0" stroke="#999999" points="100,-123 66,-123 66,-106 100,-106 100,-123"/>
<text text-anchor="middle" x="83" y="-112.6" font-family="Helvetica,sans-Serif" font-size="8.00">utility</text>
</a>
</g>
</g>
<!-- Node1&#45;&gt;Node5 -->
<g id="edge4_Node000001_Node000005" class="edge">
<title>Node1&#45;&gt;Node5</title>
<g id="a_edge4_Node000001_Node000005"><a xlink:title=" ">
<path fill="none" stroke="#63b8ff" d="M339.98,-264.93C296.95,-239.91 159.01,-159.7 104.99,-128.29"/>
<polygon fill="#63b8ff" stroke="#63b8ff" points="106.61,-125.18 96.21,-123.18 103.09,-131.23 106.61,-125.18"/>
</a>
</g>
</g>
<!-- Node6 -->
<g id="Node000006" class="node">
<title>Node6</title>
<g id="a_Node000006"><a xlink:href="../../dc/d8a/grid_8hpp.html" target="_top" xlink:title=" ">
<polygon fill="white" stroke="#666666" points="318,-176 240,-176 240,-159 318,-159 318,-176"/>
<text text-anchor="middle" x="279" y="-165.6" font-family="Helvetica,sans-Serif" font-size="8.00">../mazes/grid.hpp</text>
</a>
</g>
</g>
<!-- Node1&#45;&gt;Node6 -->
<g id="edge5_Node000001_Node000006" class="edge">
<title>Node1&#45;&gt;Node6</title>
<g id="a_edge5_Node000001_Node000006"><a xlink:title=" ">
<path fill="none" stroke="#63b8ff" d="M347.44,-264.68C335.33,-247.66 306.36,-206.95 290.27,-184.34"/>
<polygon fill="#63b8ff" stroke="#63b8ff" points="293.07,-182.24 284.43,-176.12 287.37,-186.3 293.07,-182.24"/>
</a>
</g>
</g>
<!-- Node10 -->
<g id="Node000010" class="node">
<title>Node10</title>
<g id="a_Node000010"><a xlink:href="../../df/d93/utils_8hpp.html" target="_top" xlink:title=" ">
<polygon fill="white" stroke="#666666" points="520,-123 452,-123 452,-106 520,-106 520,-123"/>
<text text-anchor="middle" x="486" y="-112.6" font-family="Helvetica,sans-Serif" font-size="8.00">../utils/utils.hpp</text>
</a>
</g>
</g>
<!-- Node1&#45;&gt;Node10 -->
<g id="edge31_Node000001_Node000010" class="edge">
<title>Node1&#45;&gt;Node10</title>
<g id="a_edge31_Node000001_Node000010"><a xlink:title=" ">
<path fill="none" stroke="#63b8ff" d="M359.41,-264.93C379.99,-240.64 444.63,-164.33 472.74,-131.16"/>
<polygon fill="#63b8ff" stroke="#63b8ff" points="475.54,-133.26 479.34,-123.37 470.2,-128.73 475.54,-133.26"/>
</a>
</g>
</g>
<!-- Node17 -->
<g id="Node000017" class="node">
<title>Node17</title>
<g id="a_Node000017"><a xlink:href="../../d8/d62/existence__set_8hpp.html" target="_top" xlink:title=" ">
<polygon fill="white" stroke="#666666" points="732.5,-176 585.5,-176 585.5,-159 732.5,-159 732.5,-176"/>
<text text-anchor="middle" x="659" y="-165.6" font-family="Helvetica,sans-Serif" font-size="8.00">../types/containers/existence_set.hpp</text>
</a>
</g>
</g>
<!-- Node1&#45;&gt;Node17 -->
<g id="edge24_Node000001_Node000017" class="edge">
<title>Node1&#45;&gt;Node17</title>
<g id="a_edge24_Node000001_Node000017"><a xlink:title=" ">
<path fill="none" stroke="#63b8ff" d="M375.5,-264.85C429.24,-246.59 565.17,-200.39 627.23,-179.3"/>
<polygon fill="#63b8ff" stroke="#63b8ff" points="628.54,-182.55 636.88,-176.02 626.28,-175.92 628.54,-182.55"/>
</a>
</g>
</g>
<!-- Node20 -->
<g id="Node000020" class="node">
<title>Node20</title>
<g id="a_Node000020"><a xlink:href="../../d2/d1c/solver_8hpp.html" target="_top" xlink:title=" ">
<polygon fill="white" stroke="#666666" points="695,-229 623,-229 623,-212 695,-212 695,-229"/>
<text text-anchor="middle" x="659" y="-218.6" font-family="Helvetica,sans-Serif" font-size="8.00">base/solver.hpp</text>
</a>
</g>
</g>
<!-- Node1&#45;&gt;Node20 -->
<g id="edge32_Node000001_Node000020" class="edge">
<title>Node1&#45;&gt;Node20</title>
<g id="a_edge32_Node000001_Node000020"><a xlink:title=" ">
<path fill="none" stroke="#63b8ff" d="M376.5,-268.58C426.98,-260.17 546.55,-240.24 612.8,-229.2"/>
<polygon fill="#63b8ff" stroke="#63b8ff" points="613.67,-232.6 622.96,-227.51 612.52,-225.7 613.67,-232.6"/>
</a>
</g>
</g>
<!-- Node6&#45;&gt;Node2 -->
<g id="edge7_Node000006_Node000002" class="edge">
<title>Node6&#45;&gt;Node2</title>
<g id="a_edge7_Node000006_Node000002"><a xlink:title=" ">
<path fill="none" stroke="#63b8ff" d="M239.93,-163.11C210.65,-158.56 171.57,-147.91 147,-123 135.88,-111.72 131.26,-94.01 129.34,-80.66"/>
<polygon fill="#63b8ff" stroke="#63b8ff" points="132.78,-79.91 128.26,-70.33 125.82,-80.64 132.78,-79.91"/>
</a>
</g>
</g>
<!-- Node6&#45;&gt;Node3 -->
<g id="edge9_Node000006_Node000003" class="edge">
<title>Node6&#45;&gt;Node3</title>
<g id="a_edge9_Node000006_Node000003"><a xlink:title=" ">
<path fill="none" stroke="#63b8ff" d="M269.2,-158.92C255.46,-147.33 233.37,-124.59 245,-106 273.57,-60.33 302.68,-69.36 354,-53 434.83,-27.24 534.82,-16.04 584.67,-11.77"/>
<polygon fill="#63b8ff" stroke="#63b8ff" points="585.12,-15.25 594.8,-10.94 584.55,-8.27 585.12,-15.25"/>
</a>
</g>
</g>
<!-- Node6&#45;&gt;Node5 -->
<g id="edge10_Node000006_Node000005" class="edge">
<title>Node6&#45;&gt;Node5</title>
<g id="a_edge10_Node000006_Node000005"><a xlink:title=" ">
<path fill="none" stroke="#63b8ff" d="M250.08,-158.97C212.38,-149.16 146.92,-132.13 110.13,-122.56"/>
<polygon fill="#63b8ff" stroke="#63b8ff" points="110.68,-119.09 100.12,-119.96 108.92,-125.86 110.68,-119.09"/>
</a>
</g>
</g>
<!-- Node7 -->
<g id="Node000007" class="node">
<title>Node7</title>
<g id="a_Node000007"><a xlink:title=" ">
<polygon fill="#e0e0e0" stroke="#999999" points="304,-123 254,-123 254,-106 304,-106 304,-123"/>
<text text-anchor="middle" x="279" y="-112.6" font-family="Helvetica,sans-Serif" font-size="8.00">algorithm</text>
</a>
</g>
</g>
<!-- Node6&#45;&gt;Node7 -->
<g id="edge6_Node000006_Node000007" class="edge">
<title>Node6&#45;&gt;Node7</title>
<g id="a_edge6_Node000006_Node000007"><a xlink:title=" ">
<path fill="none" stroke="#63b8ff" d="M279,-158.97C279,-152.19 279,-141.97 279,-133.13"/>
<polygon fill="#63b8ff" stroke="#63b8ff" points="282.5,-133.06 279,-123.06 275.5,-133.06 282.5,-133.06"/>
</a>
</g>
</g>
<!-- Node8 -->
<g id="Node000008" class="node">
<title>Node8</title>
<g id="a_Node000008"><a xlink:title=" ">
<polygon fill="#e0e0e0" stroke="#999999" points="198,-123 156,-123 156,-106 198,-106 198,-123"/>
<text text-anchor="middle" x="177" y="-112.6" font-family="Helvetica,sans-Serif" font-size="8.00">cassert</text>
</a>
</g>
</g>
<!-- Node6&#45;&gt;Node8 -->
<g id="edge8_Node000006_Node000008" class="edge">
<title>Node6&#45;&gt;Node8</title>
<g id="a_edge8_Node000006_Node000008"><a xlink:title=" ">
<path fill="none" stroke="#63b8ff" d="M263.95,-158.97C247.45,-150.73 220.74,-137.37 201.28,-127.64"/>
<polygon fill="#63b8ff" stroke="#63b8ff" points="202.62,-124.4 192.11,-123.06 199.49,-130.66 202.62,-124.4"/>
</a>
</g>
</g>
<!-- Node9 -->
<g id="Node000009" class="node">
<title>Node9</title>
<g id="a_Node000009"><a xlink:title=" ">
<polygon fill="#e0e0e0" stroke="#999999" points="576,-123 538,-123 538,-106 576,-106 576,-123"/>
<text text-anchor="middle" x="557" y="-112.6" font-family="Helvetica,sans-Serif" font-size="8.00">vector</text>
</a>
</g>
</g>
<!-- Node6&#45;&gt;Node9 -->
<g id="edge11_Node000006_Node000009" class="edge">
<title>Node6&#45;&gt;Node9</title>
<g id="a_edge11_Node000006_Node000009"><a xlink:title=" ">
<path fill="none" stroke="#63b8ff" d="M318.18,-160.79C365.56,-153.65 447.9,-140.45 527.57,-123.14"/>
<polygon fill="#63b8ff" stroke="#63b8ff" points="528.76,-126.46 537.78,-120.89 527.26,-119.62 528.76,-126.46"/>
</a>
</g>
</g>
<!-- Node6&#45;&gt;Node10 -->
<g id="edge12_Node000006_Node000010" class="edge">
<title>Node6&#45;&gt;Node10</title>
<g id="a_edge12_Node000006_Node000010"><a xlink:title=" ">
<path fill="none" stroke="#63b8ff" d="M309.54,-158.97C345.55,-150.1 405.51,-135.33 445.4,-125.5"/>
<polygon fill="#63b8ff" stroke="#63b8ff" points="446.46,-128.85 455.33,-123.06 444.78,-122.05 446.46,-128.85"/>
</a>
</g>
</g>
<!-- Node16 -->
<g id="Node000016" class="node">
<title>Node16</title>
<g id="a_Node000016"><a xlink:href="../../d1/d2d/weighted__node_8hpp.html" target="_top" xlink:title=" ">
<polygon fill="white" stroke="#666666" points="433.5,-123 322.5,-123 322.5,-106 433.5,-106 433.5,-123"/>
<text text-anchor="middle" x="378" y="-112.6" font-family="Helvetica,sans-Serif" font-size="8.00">nodes/weighted_node.hpp</text>
</a>
</g>
</g>
<!-- Node6&#45;&gt;Node16 -->
<g id="edge21_Node000006_Node000016" class="edge">
<title>Node6&#45;&gt;Node16</title>
<g id="a_edge21_Node000006_Node000016"><a xlink:title=" ">
<path fill="none" stroke="#63b8ff" d="M293.61,-158.97C309.62,-150.73 335.54,-137.37 354.44,-127.64"/>
<polygon fill="#63b8ff" stroke="#63b8ff" points="356.05,-130.75 363.33,-123.06 352.84,-124.52 356.05,-130.75"/>
</a>
</g>
</g>
<!-- Node10&#45;&gt;Node2 -->
<g id="edge13_Node000010_Node000002" class="edge">
<title>Node10&#45;&gt;Node2</title>
<g id="a_edge13_Node000010_Node000002"><a xlink:title=" ">
<path fill="none" stroke="#63b8ff" d="M451.75,-107.41C448.79,-106.92 445.85,-106.44 443,-106 337.15,-89.47 210.77,-73 155.81,-66"/>
<polygon fill="#63b8ff" stroke="#63b8ff" points="156.16,-62.52 145.79,-64.73 155.27,-69.46 156.16,-62.52"/>
</a>
</g>
</g>
<!-- Node10&#45;&gt;Node3 -->
<g id="edge15_Node000010_Node000003" class="edge">
<title>Node10&#45;&gt;Node3</title>
<g id="a_edge15_Node000010_Node000003"><a xlink:title=" ">
<path fill="none" stroke="#63b8ff" d="M495.77,-105.68C517.62,-88.21 570.67,-45.77 598.42,-23.57"/>
<polygon fill="#63b8ff" stroke="#63b8ff" points="600.85,-26.11 606.47,-17.12 596.47,-20.64 600.85,-26.11"/>
</a>
</g>
</g>
<!-- Node10&#45;&gt;Node4 -->
<g id="edge18_Node000010_Node000004" class="edge">
<title>Node10&#45;&gt;Node4</title>
<g id="a_edge18_Node000010_Node000004"><a xlink:title=" ">
<path fill="none" stroke="#63b8ff" d="M502.82,-105.97C521.51,-97.61 551.93,-84 573.76,-74.24"/>
<polygon fill="#63b8ff" stroke="#63b8ff" points="575.41,-77.33 583.11,-70.06 572.55,-70.94 575.41,-77.33"/>
</a>
</g>
</g>
<!-- Node11 -->
<g id="Node000011" class="node">
<title>Node11</title>
<g id="a_Node000011"><a xlink:title=" ">
<polygon fill="#e0e0e0" stroke="#999999" points="507,-70 469,-70 469,-53 507,-53 507,-70"/>
<text text-anchor="middle" x="488" y="-59.6" font-family="Helvetica,sans-Serif" font-size="8.00">cmath</text>
</a>
</g>
</g>
<!-- Node10&#45;&gt;Node11 -->
<g id="edge14_Node000010_Node000011" class="edge">
<title>Node10&#45;&gt;Node11</title>
<g id="a_edge14_Node000010_Node000011"><a xlink:title=" ">
<path fill="none" stroke="#63b8ff" d="M486.3,-105.97C486.56,-99.19 486.96,-88.97 487.31,-80.13"/>
<polygon fill="#63b8ff" stroke="#63b8ff" points="490.81,-80.19 487.7,-70.06 483.81,-79.91 490.81,-80.19"/>
</a>
</g>
</g>
<!-- Node12 -->
<g id="Node000012" class="node">
<title>Node12</title>
<g id="a_Node000012"><a xlink:title=" ">
<polygon fill="#e0e0e0" stroke="#999999" points="397,-70 363,-70 363,-53 397,-53 397,-70"/>
<text text-anchor="middle" x="380" y="-59.6" font-family="Helvetica,sans-Serif" font-size="8.00">limits</text>
</a>
</g>
</g>
<!-- Node10&#45;&gt;Node12 -->
<g id="edge16_Node000010_Node000012" class="edge">
<title>Node10&#45;&gt;Node12</title>
<g id="a_edge16_Node000010_Node000012"><a xlink:title=" ">
<path fill="none" stroke="#63b8ff" d="M470.36,-105.97C453.14,-97.69 425.2,-84.25 404.95,-74.5"/>
<polygon fill="#63b8ff" stroke="#63b8ff" points="406.23,-71.24 395.7,-70.06 403.2,-77.55 406.23,-71.24"/>
</a>
</g>
</g>
<!-- Node13 -->
<g id="Node000013" class="node">
<title>Node13</title>
<g id="a_Node000013"><a xlink:title=" ">
<polygon fill="#e0e0e0" stroke="#999999" points="451,-70 415,-70 415,-53 451,-53 451,-70"/>
<text text-anchor="middle" x="433" y="-59.6" font-family="Helvetica,sans-Serif" font-size="8.00">string</text>
</a>
</g>
</g>
<!-- Node10&#45;&gt;Node13 -->
<g id="edge17_Node000010_Node000013" class="edge">
<title>Node10&#45;&gt;Node13</title>
<g id="a_edge17_Node000010_Node000013"><a xlink:title=" ">
<path fill="none" stroke="#63b8ff" d="M478.18,-105.97C470.35,-98.44 458.1,-86.65 448.33,-77.25"/>
<polygon fill="#63b8ff" stroke="#63b8ff" points="450.49,-74.47 440.85,-70.06 445.63,-79.51 450.49,-74.47"/>
</a>
</g>
</g>
<!-- Node14 -->
<g id="Node000014" class="node">
<title>Node14</title>
<g id="a_Node000014"><a xlink:href="../../d7/d65/intrinsics_8hpp.html" target="_top" xlink:title=" ">
<polygon fill="#fff0f0" stroke="red" points="729.5,-70 644.5,-70 644.5,-53 729.5,-53 729.5,-70"/>
<text text-anchor="middle" x="687" y="-59.6" font-family="Helvetica,sans-Serif" font-size="8.00">../utils/intrinsics.hpp</text>
</a>
</g>
</g>
<!-- Node10&#45;&gt;Node14 -->
<g id="edge19_Node000010_Node000014" class="edge">
<title>Node10&#45;&gt;Node14</title>
<g id="a_edge19_Node000010_Node000014"><a xlink:title=" ">
<path fill="none" stroke="#63b8ff" d="M515.66,-105.97C550.54,-97.12 608.6,-82.39 647.33,-72.57"/>
<polygon fill="#63b8ff" stroke="#63b8ff" points="648.39,-75.91 657.22,-70.06 646.67,-69.12 648.39,-75.91"/>
</a>
</g>
</g>
<!-- Node14&#45;&gt;Node3 -->
<g id="edge20_Node000014_Node000003" class="edge">
<title>Node14&#45;&gt;Node3</title>
<g id="a_edge20_Node000014_Node000003"><a xlink:title=" ">
<path fill="none" stroke="#63b8ff" d="M676.52,-52.97C665.62,-45.14 648.3,-32.7 634.98,-23.13"/>
<polygon fill="#63b8ff" stroke="#63b8ff" points="636.68,-20.05 626.52,-17.06 632.6,-25.73 636.68,-20.05"/>
</a>
</g>
</g>
<!-- Node16&#45;&gt;Node4 -->
<g id="edge23_Node000016_Node000004" class="edge">
<title>Node16&#45;&gt;Node4</title>
<g id="a_edge23_Node000016_Node000004"><a xlink:title=" ">
<path fill="none" stroke="#63b8ff" d="M410.76,-105.97C451.54,-96.61 520.99,-80.65 563.46,-70.9"/>
<polygon fill="#63b8ff" stroke="#63b8ff" points="564.42,-74.27 573.38,-68.62 562.85,-67.44 564.42,-74.27"/>
</a>
</g>
</g>
<!-- Node16&#45;&gt;Node12 -->
<g id="edge22_Node000016_Node000012" class="edge">
<title>Node16&#45;&gt;Node12</title>
<g id="a_edge22_Node000016_Node000012"><a xlink:title=" ">
<path fill="none" stroke="#63b8ff" d="M378.3,-105.97C378.56,-99.19 378.96,-88.97 379.31,-80.13"/>
<polygon fill="#63b8ff" stroke="#63b8ff" points="382.81,-80.19 379.7,-70.06 375.81,-79.91 382.81,-80.19"/>
</a>
</g>
</g>
<!-- Node17&#45;&gt;Node3 -->
<g id="edge25_Node000017_Node000003" class="edge">
<title>Node17&#45;&gt;Node3</title>
<g id="a_edge25_Node000017_Node000003"><a xlink:title=" ">
<path fill="none" stroke="#63b8ff" d="M732.94,-160.98C774.92,-154.22 816.31,-139.22 801,-106 773.56,-46.45 692.45,-22.87 647.27,-14.16"/>
<polygon fill="#63b8ff" stroke="#63b8ff" points="647.61,-10.67 637.15,-12.34 646.37,-17.56 647.61,-10.67"/>
</a>
</g>
</g>
<!-- Node17&#45;&gt;Node4 -->
<g id="edge28_Node000017_Node000004" class="edge">
<title>Node17&#45;&gt;Node4</title>
<g id="a_edge28_Node000017_Node000004"><a xlink:title=" ">
<path fill="none" stroke="#63b8ff" d="M651.24,-158.76C643.28,-150.5 630.99,-136.72 623,-123 615.04,-109.33 608.88,-92.4 604.95,-79.93"/>
<polygon fill="#63b8ff" stroke="#63b8ff" points="608.29,-78.89 602.07,-70.31 601.58,-80.9 608.29,-78.89"/>
</a>
</g>
</g>
<!-- Node17&#45;&gt;Node9 -->
<g id="edge29_Node000017_Node000009" class="edge">
<title>Node17&#45;&gt;Node9</title>
<g id="a_edge29_Node000017_Node000009"><a xlink:title=" ">
<path fill="none" stroke="#63b8ff" d="M643.95,-158.97C627.45,-150.73 600.74,-137.37 581.28,-127.64"/>
<polygon fill="#63b8ff" stroke="#63b8ff" points="582.62,-124.4 572.11,-123.06 579.49,-130.66 582.62,-124.4"/>
</a>
</g>
</g>
<!-- Node17&#45;&gt;Node10 -->
<g id="edge30_Node000017_Node000010" class="edge">
<title>Node17&#45;&gt;Node10</title>
<g id="a_edge30_Node000017_Node000010"><a xlink:title=" ">
<path fill="none" stroke="#63b8ff" d="M633.47,-158.97C603.83,-150.24 554.75,-135.77 521.43,-125.94"/>
<polygon fill="#63b8ff" stroke="#63b8ff" points="522.21,-122.53 511.63,-123.06 520.23,-129.24 522.21,-122.53"/>
</a>
</g>
</g>
<!-- Node18 -->
<g id="Node000018" class="node">
<title>Node18</title>
<g id="a_Node000018"><a xlink:title=" ">
<polygon fill="#e0e0e0" stroke="#999999" points="692,-123 632,-123 632,-106 692,-106 692,-123"/>
<text text-anchor="middle" x="662" y="-112.6" font-family="Helvetica,sans-Serif" font-size="8.00">initializer_list</text>
</a>
</g>
</g>
<!-- Node17&#45;&gt;Node18 -->
<g id="edge26_Node000017_Node000018" class="edge">
<title>Node17&#45;&gt;Node18</title>
<g id="a_edge26_Node000017_Node000018"><a xlink:title=" ">
<path fill="none" stroke="#63b8ff" d="M659.44,-158.97C659.84,-152.19 660.44,-141.97 660.96,-133.13"/>
<polygon fill="#63b8ff" stroke="#63b8ff" points="664.46,-133.24 661.56,-123.06 657.47,-132.83 664.46,-133.24"/>
</a>
</g>
</g>
<!-- Node19 -->
<g id="Node000019" class="node">
<title>Node19</title>
<g id="a_Node000019"><a xlink:title=" ">
<polygon fill="#e0e0e0" stroke="#999999" points="792,-123 710,-123 710,-106 792,-106 792,-123"/>
<text text-anchor="middle" x="751" y="-112.6" font-family="Helvetica,sans-Serif" font-size="8.00">memory_resource</text>
</a>
</g>
</g>
<!-- Node17&#45;&gt;Node19 -->
<g id="edge27_Node000017_Node000019" class="edge">
<title>Node17&#45;&gt;Node19</title>
<g id="a_edge27_Node000017_Node000019"><a xlink:title=" ">
<path fill="none" stroke="#63b8ff" d="M672.57,-158.97C687.25,-150.84 710.89,-137.74 728.38,-128.04"/>
<polygon fill="#63b8ff" stroke="#63b8ff" points="730.32,-130.97 737.37,-123.06 726.93,-124.84 730.32,-130.97"/>
</a>
</g>
</g>
<!-- Node20&#45;&gt;Node3 -->
<g id="edge33_Node000020_Node000003" class="edge">
<title>Node20&#45;&gt;Node3</title>
<g id="a_edge33_Node000020_Node000003"><a xlink:title=" ">
<path fill="none" stroke="#63b8ff" d="M695.01,-216.69C745.56,-211.9 833.58,-200.25 853,-176 860.03,-167.22 872.43,-144.56 852,-106 812.66,-31.74 701.88,-14.55 647.25,-10.63"/>
<polygon fill="#63b8ff" stroke="#63b8ff" points="647.31,-7.12 637.11,-10 646.88,-14.11 647.31,-7.12"/>
</a>
</g>
</g>
<!-- Node20&#45;&gt;Node4 -->
<g id="edge34_Node000020_Node000004" class="edge">
<title>Node20&#45;&gt;Node4</title>
<g id="a_edge34_Node000020_Node000004"><a xlink:title=" ">
<path fill="none" stroke="#63b8ff" d="M684.37,-211.9C734.9,-195.52 840.04,-154.39 801,-106 799.7,-104.39 694.36,-82.19 636.72,-70.15"/>
<polygon fill="#63b8ff" stroke="#63b8ff" points="637.39,-66.71 626.89,-68.09 635.96,-73.56 637.39,-66.71"/>
</a>
</g>
</g>
<!-- Node20&#45;&gt;Node9 -->
<g id="edge35_Node000020_Node000009" class="edge">
<title>Node20&#45;&gt;Node9</title>
<g id="a_edge35_Node000020_Node000009"><a xlink:title=" ">
<path fill="none" stroke="#63b8ff" d="M634.24,-211.99C616.04,-205.28 591.97,-193.73 577,-176 566.73,-163.84 561.69,-146.24 559.24,-133.16"/>
<polygon fill="#63b8ff" stroke="#63b8ff" points="562.67,-132.42 557.69,-123.07 555.75,-133.49 562.67,-132.42"/>
</a>
</g>
</g>
<!-- Node20&#45;&gt;Node10 -->
<g id="edge37_Node000020_Node000010" class="edge">
<title>Node20&#45;&gt;Node10</title>
<g id="a_edge37_Node000020_Node000010"><a xlink:title=" ">
<path fill="none" stroke="#63b8ff" d="M638.43,-211.85C618.49,-204.06 587.71,-191.01 563,-176 540.65,-162.43 517.36,-143.32 502.33,-130.24"/>
<polygon fill="#63b8ff" stroke="#63b8ff" points="504.31,-127.32 494.5,-123.31 499.67,-132.56 504.31,-127.32"/>
</a>
</g>
</g>
<!-- Node20&#45;&gt;Node14 -->
<g id="edge38_Node000020_Node000014" class="edge">
<title>Node20&#45;&gt;Node14</title>
<g id="a_edge38_Node000020_Node000014"><a xlink:title=" ">
<path fill="none" stroke="#63b8ff" d="M695.01,-215.72C741.11,-210.05 817.08,-197.64 834,-176 853.16,-151.49 852.62,-130.93 834,-106 812.51,-77.24 772.85,-66.71 740.14,-63.18"/>
<polygon fill="#63b8ff" stroke="#63b8ff" points="740.06,-59.66 729.79,-62.27 739.45,-66.64 740.06,-59.66"/>
</a>
</g>
</g>
<!-- Node20&#45;&gt;Node17 -->
<g id="edge36_Node000020_Node000017" class="edge">
<title>Node20&#45;&gt;Node17</title>
<g id="a_edge36_Node000020_Node000017"><a xlink:title=" ">
<path fill="none" stroke="#63b8ff" d="M659,-211.97C659,-205.19 659,-194.97 659,-186.13"/>
<polygon fill="#63b8ff" stroke="#63b8ff" points="662.5,-186.06 659,-176.06 655.5,-186.06 662.5,-186.06"/>
</a>
</g>
</g>
</g>
</svg>
