<?xml version="1.0" encoding="UTF-8" standalone="no"?>
<!DOCTYPE svg PUBLIC "-//W3C//DTD SVG 1.1//EN"
 "http://www.w3.org/Graphics/SVG/1.1/DTD/svg11.dtd">
<!-- Generated by graphviz version 2.43.0 (0)
 -->
<!-- Title: gjps.hpp Pages: 1 -->
<svg width="1896pt" height="290pt"
 viewBox="0.00 0.00 1896.03 290.00" xmlns="http://www.w3.org/2000/svg" xmlns:xlink="http://www.w3.org/1999/xlink">
<g id="graph0" class="graph" transform="scale(1 1) rotate(0) translate(4 286)">
<title>gjps.hpp</title>
<!-- Node1 -->
<g id="Node000001" class="node">
<title>Node1</title>
<g id="a_Node000001"><a xlink:title=" ">
<polygon fill="#999999" stroke="#666666" points="921,-282 869,-282 869,-265 921,-265 921,-282"/>
<text text-anchor="middle" x="895" y="-271.6" font-family="Helvetica,sans-Serif" font-size="8.00">gjps.hpp</text>
</a>
</g>
</g>
<!-- Node2 -->
<g id="Node000002" class="node">
<title>Node2</title>
<g id="a_Node000002"><a xlink:title=" ">
<polygon fill="#e0e0e0" stroke="#999999" points="1565,-70 1527,-70 1527,-53 1565,-53 1565,-70"/>
<text text-anchor="middle" x="1546" y="-59.6" font-family="Helvetica,sans-Serif" font-size="8.00">array</text>
</a>
</g>
</g>
<!-- Node1&#45;&gt;Node2 -->
<g id="edge1_Node000001_Node000002" class="edge">
<title>Node1&#45;&gt;Node2</title>
<g id="a_edge1_Node000001_Node000002"><a xlink:title=" ">
<path fill="none" stroke="#63b8ff" d="M921.12,-272.45C1005.45,-271.88 1277.79,-267.04 1499,-229 1673.91,-198.92 1776.44,-264.17 1884,-123 1922.37,-72.64 1664.42,-64.2 1575.42,-62.78"/>
<polygon fill="#63b8ff" stroke="#63b8ff" points="1575.25,-59.28 1565.2,-62.64 1575.15,-66.28 1575.25,-59.28"/>
</a>
</g>
</g>
<!-- Node3 -->
<g id="Node000003" class="node">
<title>Node3</title>
<g id="a_Node000003"><a xlink:title=" ">
<polygon fill="#e0e0e0" stroke="#999999" points="782.5,-17 735.5,-17 735.5,0 782.5,0 782.5,-17"/>
<text text-anchor="middle" x="759" y="-6.6" font-family="Helvetica,sans-Serif" font-size="8.00">cstddef</text>
</a>
</g>
</g>
<!-- Node1&#45;&gt;Node3 -->
<g id="edge2_Node000001_Node000003" class="edge">
<title>Node1&#45;&gt;Node3</title>
<g id="a_edge2_Node000001_Node000003"><a xlink:title=" ">
<path fill="none" stroke="#63b8ff" d="M868.7,-272.28C720.87,-270.69 0,-258.35 0,-168.5 0,-168.5 0,-168.5 0,-113.5 0,-48.56 70.05,-68.95 133,-53 246.69,-24.2 611.94,-13.07 725.19,-10.26"/>
<polygon fill="#63b8ff" stroke="#63b8ff" points="725.43,-13.76 735.35,-10.02 725.27,-6.76 725.43,-13.76"/>
</a>
</g>
</g>
<!-- Node4 -->
<g id="Node000004" class="node">
<title>Node4</title>
<g id="a_Node000004"><a xlink:title=" ">
<polygon fill="#e0e0e0" stroke="#999999" points="1875,-123 1831,-123 1831,-106 1875,-106 1875,-123"/>
<text text-anchor="middle" x="1853" y="-112.6" font-family="Helvetica,sans-Serif" font-size="8.00">cstdint</text>
</a>
</g>
</g>
<!-- Node1&#45;&gt;Node4 -->
<g id="edge3_Node000001_Node000004" class="edge">
<title>Node1&#45;&gt;Node4</title>
<g id="a_edge3_Node000001_Node000004"><a xlink:title=" ">
<path fill="none" stroke="#63b8ff" d="M921.25,-272.04C1000.71,-270.31 1245.44,-262.43 1445,-229 1537.81,-213.45 1559.34,-201.22 1650,-176 1710.78,-159.09 1781.27,-137.67 1821.16,-125.38"/>
<polygon fill="#63b8ff" stroke="#63b8ff" points="1822.33,-128.69 1830.85,-122.39 1820.26,-122 1822.33,-128.69"/>
</a>
</g>
</g>
<!-- Node5 -->
<g id="Node000005" class="node">
<title>Node5</title>
<g id="a_Node000005"><a xlink:title=" ">
<polygon fill="#e0e0e0" stroke="#999999" points="367.5,-70 308.5,-70 308.5,-53 367.5,-53 367.5,-70"/>
<text text-anchor="middle" x="338" y="-59.6" font-family="Helvetica,sans-Serif" font-size="8.00">type_traits</text>
</a>
</g>
</g>
<!-- Node1&#45;&gt;Node5 -->
<g id="edge4_Node000001_Node000005" class="edge">
<title>Node1&#45;&gt;Node5</title>
<g id="a_edge4_Node000001_Node000005"><a xlink:title=" ">
<path fill="none" stroke="#63b8ff" d="M868.63,-272.03C741.33,-269.16 192.45,-249.47 95,-123 90.39,-117.01 90.15,-111.79 95,-106 120.42,-75.63 235.78,-66.44 297.97,-63.68"/>
<polygon fill="#63b8ff" stroke="#63b8ff" points="298.36,-67.16 308.2,-63.26 298.07,-60.17 298.36,-67.16"/>
</a>
</g>
</g>
<!-- Node6 -->
<g id="Node000006" class="node">
<title>Node6</title>
<g id="a_Node000006"><a xlink:title=" ">
<polygon fill="#e0e0e0" stroke="#999999" points="1812.5,-123 1773.5,-123 1773.5,-106 1812.5,-106 1812.5,-123"/>
<text text-anchor="middle" x="1793" y="-112.6" font-family="Helvetica,sans-Serif" font-size="8.00">utility</text>
</a>
</g>
</g>
<!-- Node1&#45;&gt;Node6 -->
<g id="edge5_Node000001_Node000006" class="edge">
<title>Node1&#45;&gt;Node6</title>
<g id="a_edge5_Node000001_Node000006"><a xlink:title=" ">
<path fill="none" stroke="#63b8ff" d="M921.1,-271.95C995.36,-270 1213.95,-261.69 1392,-229 1533.85,-202.96 1697.93,-148.66 1763.61,-125.89"/>
<polygon fill="#63b8ff" stroke="#63b8ff" points="1765,-129.12 1773.29,-122.52 1762.69,-122.51 1765,-129.12"/>
</a>
</g>
</g>
<!-- Node7 -->
<g id="Node000007" class="node">
<title>Node7</title>
<g id="a_Node000007"><a xlink:title=" ">
<polygon fill="#e0e0e0" stroke="#999999" points="916,-123 874,-123 874,-106 916,-106 916,-123"/>
<text text-anchor="middle" x="895" y="-112.6" font-family="Helvetica,sans-Serif" font-size="8.00">vector</text>
</a>
</g>
</g>
<!-- Node1&#45;&gt;Node7 -->
<g id="edge6_Node000001_Node000007" class="edge">
<title>Node1&#45;&gt;Node7</title>
<g id="a_edge6_Node000001_Node000007"><a xlink:title=" ">
<path fill="none" stroke="#63b8ff" d="M895,-264.93C895,-241.26 895,-168.19 895,-133.78"/>
<polygon fill="#63b8ff" stroke="#63b8ff" points="898.5,-133.37 895,-123.37 891.5,-133.37 898.5,-133.37"/>
</a>
</g>
</g>
<!-- Node8 -->
<g id="Node000008" class="node">
<title>Node8</title>
<g id="a_Node000008"><a xlink:href="../../dc/d8a/grid_8hpp.html" target="_top" xlink:title=" ">
<polygon fill="white" stroke="#666666" points="1019,-176 931,-176 931,-159 1019,-159 1019,-176"/>
<text text-anchor="middle" x="975" y="-165.6" font-family="Helvetica,sans-Serif" font-size="8.00">../mazes/grid.hpp</text>
</a>
</g>
</g>
<!-- Node1&#45;&gt;Node8 -->
<g id="edge7_Node000001_Node000008" class="edge">
<title>Node1&#45;&gt;Node8</title>
<g id="a_edge7_Node000001_Node000008"><a xlink:title=" ">
<path fill="none" stroke="#63b8ff" d="M901.01,-264.68C914.11,-247.66 945.42,-206.95 962.82,-184.34"/>
<polygon fill="#63b8ff" stroke="#63b8ff" points="965.81,-186.19 969.13,-176.12 960.26,-181.92 965.81,-186.19"/>
</a>
</g>
</g>
<!-- Node11 -->
<g id="Node000011" class="node">
<title>Node11</title>
<g id="a_Node000011"><a xlink:href="../../df/d93/utils_8hpp.html" target="_top" xlink:title=" ">
<polygon fill="white" stroke="#666666" points="742,-123 662,-123 662,-106 742,-106 742,-123"/>
<text text-anchor="middle" x="702" y="-112.6" font-family="Helvetica,sans-Serif" font-size="8.00">../utils/utils.hpp</text>
</a>
</g>
</g>
<!-- Node1&#45;&gt;Node11 -->
<g id="edge41_Node000001_Node000011" class="edge">
<title>Node1&#45;&gt;Node11</title>
<g id="a_edge41_Node000001_Node000011"><a xlink:title=" ">
<path fill="none" stroke="#63b8ff" d="M890.91,-264.77C879.93,-244.67 847.83,-190.17 807,-159 787.23,-143.91 761.48,-133.13 740.42,-126.08"/>
<polygon fill="#63b8ff" stroke="#63b8ff" points="741.41,-122.72 730.82,-123.01 739.27,-129.39 741.41,-122.72"/>
</a>
</g>
</g>
<!-- Node16 -->
<g id="Node000016" class="node">
<title>Node16</title>
<g id="a_Node000016"><a xlink:href="../../d7/d65/intrinsics_8hpp.html" target="_top" xlink:title=" ">
<polygon fill="#fff0f0" stroke="red" points="895.5,-70 796.5,-70 796.5,-53 895.5,-53 895.5,-70"/>
<text text-anchor="middle" x="846" y="-59.6" font-family="Helvetica,sans-Serif" font-size="8.00">../utils/intrinsics.hpp</text>
</a>
</g>
</g>
<!-- Node1&#45;&gt;Node16 -->
<g id="edge72_Node000001_Node000016" class="edge">
<title>Node1&#45;&gt;Node16</title>
<g id="a_edge72_Node000001_Node000016"><a xlink:title=" ">
<path fill="none" stroke="#63b8ff" d="M910.92,-264.85C957.5,-241.48 1087.11,-168.81 1037,-106 1020.73,-85.61 955.35,-74.03 905.58,-68.03"/>
<polygon fill="#63b8ff" stroke="#63b8ff" points="905.87,-64.54 895.53,-66.87 905.07,-71.5 905.87,-64.54"/>
</a>
</g>
</g>
<!-- Node21 -->
<g id="Node000021" class="node">
<title>Node21</title>
<g id="a_Node000021"><a xlink:href="../../d8/d62/existence__set_8hpp.html" target="_top" xlink:title=" ">
<polygon fill="white" stroke="#666666" points="798,-176 628,-176 628,-159 798,-159 798,-176"/>
<text text-anchor="middle" x="713" y="-165.6" font-family="Helvetica,sans-Serif" font-size="8.00">../types/containers/existence_set.hpp</text>
</a>
</g>
</g>
<!-- Node1&#45;&gt;Node21 -->
<g id="edge32_Node000001_Node000021" class="edge">
<title>Node1&#45;&gt;Node21</title>
<g id="a_edge32_Node000001_Node000021"><a xlink:title=" ">
<path fill="none" stroke="#63b8ff" d="M881.62,-264.85C850.59,-247.12 773.48,-203.06 735.24,-181.21"/>
<polygon fill="#63b8ff" stroke="#63b8ff" points="736.82,-178.08 726.4,-176.16 733.35,-184.16 736.82,-178.08"/>
</a>
</g>
</g>
<!-- Node23 -->
<g id="Node000023" class="node">
<title>Node23</title>
<g id="a_Node000023"><a xlink:href="../../da/deb/managed__node_8hpp.html" target="_top" xlink:title=" ">
<polygon fill="white" stroke="#666666" points="1383,-229 1261,-229 1261,-212 1383,-212 1383,-229"/>
<text text-anchor="middle" x="1322" y="-218.6" font-family="Helvetica,sans-Serif" font-size="8.00">base/managed_node.hpp</text>
</a>
</g>
</g>
<!-- Node1&#45;&gt;Node23 -->
<g id="edge42_Node000001_Node000023" class="edge">
<title>Node1&#45;&gt;Node23</title>
<g id="a_edge42_Node000001_Node000023"><a xlink:title=" ">
<path fill="none" stroke="#63b8ff" d="M921.07,-269.39C985.51,-261.69 1154.09,-241.55 1250.9,-229.99"/>
<polygon fill="#63b8ff" stroke="#63b8ff" points="1251.38,-233.46 1260.89,-228.8 1250.55,-226.51 1251.38,-233.46"/>
</a>
</g>
</g>
<!-- Node28 -->
<g id="Node000028" class="node">
<title>Node28</title>
<g id="a_Node000028"><a xlink:href="../../d2/d1c/solver_8hpp.html" target="_top" xlink:title=" ">
<polygon fill="white" stroke="#666666" points="387,-176 305,-176 305,-159 387,-159 387,-176"/>
<text text-anchor="middle" x="346" y="-165.6" font-family="Helvetica,sans-Serif" font-size="8.00">base/solver.hpp</text>
</a>
</g>
</g>
<!-- Node1&#45;&gt;Node28 -->
<g id="edge59_Node000001_Node000028" class="edge">
<title>Node1&#45;&gt;Node28</title>
<g id="a_edge59_Node000001_Node000028"><a xlink:title=" ">
<path fill="none" stroke="#63b8ff" d="M868.89,-267.55C783.13,-251.31 509.14,-199.4 395.8,-177.93"/>
<polygon fill="#63b8ff" stroke="#63b8ff" points="396.15,-174.44 385.67,-176.01 394.84,-181.32 396.15,-174.44"/>
</a>
</g>
</g>
<!-- Node30 -->
<g id="Node000030" class="node">
<title>Node30</title>
<g id="a_Node000030"><a xlink:href="../../df/d24/heuristics_8hpp.html" target="_top" xlink:title=" ">
<polygon fill="white" stroke="#666666" points="610,-176 482,-176 482,-159 610,-159 610,-176"/>
<text text-anchor="middle" x="546" y="-165.6" font-family="Helvetica,sans-Serif" font-size="8.00">include/utils/heuristics.hpp</text>
</a>
</g>
</g>
<!-- Node1&#45;&gt;Node30 -->
<g id="edge67_Node000001_Node000030" class="edge">
<title>Node1&#45;&gt;Node30</title>
<g id="a_edge67_Node000001_Node000030"><a xlink:title=" ">
<path fill="none" stroke="#63b8ff" d="M869.62,-264.94C808.17,-246.63 651.31,-199.88 581.01,-178.93"/>
<polygon fill="#63b8ff" stroke="#63b8ff" points="581.87,-175.54 571.29,-176.03 579.87,-182.24 581.87,-175.54"/>
</a>
</g>
</g>
<!-- Node8&#45;&gt;Node2 -->
<g id="edge9_Node000008_Node000002" class="edge">
<title>Node8&#45;&gt;Node2</title>
<g id="a_edge9_Node000008_Node000002"><a xlink:title=" ">
<path fill="none" stroke="#63b8ff" d="M1019,-164.97C1155.35,-160.03 1562.83,-143.59 1582,-123 1594.93,-109.11 1578.94,-89.82 1564.35,-76.78"/>
<polygon fill="#63b8ff" stroke="#63b8ff" points="1566.49,-74.01 1556.58,-70.26 1561.98,-79.37 1566.49,-74.01"/>
</a>
</g>
</g>
<!-- Node8&#45;&gt;Node3 -->
<g id="edge11_Node000008_Node000003" class="edge">
<title>Node8&#45;&gt;Node3</title>
<g id="a_edge11_Node000008_Node000003"><a xlink:title=" ">
<path fill="none" stroke="#63b8ff" d="M993.73,-158.89C1016.98,-148.29 1051.85,-127.91 1037,-106 982.23,-25.22 854.4,-11.26 793.05,-9.38"/>
<polygon fill="#63b8ff" stroke="#63b8ff" points="792.82,-5.88 782.74,-9.16 792.67,-12.88 792.82,-5.88"/>
</a>
</g>
</g>
<!-- Node8&#45;&gt;Node5 -->
<g id="edge12_Node000008_Node000005" class="edge">
<title>Node8&#45;&gt;Node5</title>
<g id="a_edge12_Node000008_Node000005"><a xlink:title=" ">
<path fill="none" stroke="#63b8ff" d="M930.62,-164.6C824.27,-159.75 557.33,-145.64 471,-123 429.66,-112.16 385.13,-89.38 359.51,-75.08"/>
<polygon fill="#63b8ff" stroke="#63b8ff" points="361.09,-71.95 350.67,-70.05 357.63,-78.03 361.09,-71.95"/>
</a>
</g>
</g>
<!-- Node8&#45;&gt;Node6 -->
<g id="edge13_Node000008_Node000006" class="edge">
<title>Node8&#45;&gt;Node6</title>
<g id="a_edge13_Node000008_Node000006"><a xlink:title=" ">
<path fill="none" stroke="#63b8ff" d="M1019.08,-164.77C1134.99,-160.05 1457.93,-145.75 1726,-123 1738.23,-121.96 1751.69,-120.52 1763.31,-119.17"/>
<polygon fill="#63b8ff" stroke="#63b8ff" points="1763.87,-122.63 1773.38,-117.98 1763.04,-115.68 1763.87,-122.63"/>
</a>
</g>
</g>
<!-- Node8&#45;&gt;Node7 -->
<g id="edge14_Node000008_Node000007" class="edge">
<title>Node8&#45;&gt;Node7</title>
<g id="a_edge14_Node000008_Node000007"><a xlink:title=" ">
<path fill="none" stroke="#63b8ff" d="M963.2,-158.97C950.67,-150.99 930.64,-138.22 915.52,-128.58"/>
<polygon fill="#63b8ff" stroke="#63b8ff" points="917.17,-125.48 906.85,-123.06 913.4,-131.38 917.17,-125.48"/>
</a>
</g>
</g>
<!-- Node9 -->
<g id="Node000009" class="node">
<title>Node9</title>
<g id="a_Node000009"><a xlink:title=" ">
<polygon fill="#e0e0e0" stroke="#999999" points="1028,-123 972,-123 972,-106 1028,-106 1028,-123"/>
<text text-anchor="middle" x="1000" y="-112.6" font-family="Helvetica,sans-Serif" font-size="8.00">algorithm</text>
</a>
</g>
</g>
<!-- Node8&#45;&gt;Node9 -->
<g id="edge8_Node000008_Node000009" class="edge">
<title>Node8&#45;&gt;Node9</title>
<g id="a_edge8_Node000008_Node000009"><a xlink:title=" ">
<path fill="none" stroke="#63b8ff" d="M978.69,-158.97C982.12,-151.97 987.36,-141.28 991.79,-132.25"/>
<polygon fill="#63b8ff" stroke="#63b8ff" points="995.04,-133.58 996.3,-123.06 988.75,-130.49 995.04,-133.58"/>
</a>
</g>
</g>
<!-- Node10 -->
<g id="Node000010" class="node">
<title>Node10</title>
<g id="a_Node000010"><a xlink:title=" ">
<polygon fill="#e0e0e0" stroke="#999999" points="1314.5,-123 1267.5,-123 1267.5,-106 1314.5,-106 1314.5,-123"/>
<text text-anchor="middle" x="1291" y="-112.6" font-family="Helvetica,sans-Serif" font-size="8.00">cassert</text>
</a>
</g>
</g>
<!-- Node8&#45;&gt;Node10 -->
<g id="edge10_Node000008_Node000010" class="edge">
<title>Node8&#45;&gt;Node10</title>
<g id="a_edge10_Node000008_Node000010"><a xlink:title=" ">
<path fill="none" stroke="#63b8ff" d="M1019.28,-160.68C1073.17,-153.39 1167.11,-139.97 1257.4,-122.98"/>
<polygon fill="#63b8ff" stroke="#63b8ff" points="1258.08,-126.41 1267.25,-121.11 1256.77,-119.54 1258.08,-126.41"/>
</a>
</g>
</g>
<!-- Node8&#45;&gt;Node11 -->
<g id="edge15_Node000008_Node000011" class="edge">
<title>Node8&#45;&gt;Node11</title>
<g id="a_edge15_Node000008_Node000011"><a xlink:title=" ">
<path fill="none" stroke="#63b8ff" d="M934.72,-158.97C886.19,-149.91 804.65,-134.68 752.11,-124.86"/>
<polygon fill="#63b8ff" stroke="#63b8ff" points="752.48,-121.37 742,-122.97 751.19,-128.25 752.48,-121.37"/>
</a>
</g>
</g>
<!-- Node8&#45;&gt;Node16 -->
<g id="edge28_Node000008_Node000016" class="edge">
<title>Node8&#45;&gt;Node16</title>
<g id="a_edge28_Node000008_Node000016"><a xlink:title=" ">
<path fill="none" stroke="#63b8ff" d="M969.94,-158.63C961.69,-146.25 944.31,-121.99 925,-106 909.42,-93.1 889.45,-82.14 873.48,-74.45"/>
<polygon fill="#63b8ff" stroke="#63b8ff" points="874.68,-71.14 864.13,-70.1 871.72,-77.49 874.68,-71.14"/>
</a>
</g>
</g>
<!-- Node19 -->
<g id="Node000019" class="node">
<title>Node19</title>
<g id="a_Node000019"><a xlink:href="../../d1/d2d/weighted__node_8hpp.html" target="_top" xlink:title=" ">
<polygon fill="white" stroke="#666666" points="606,-123 480,-123 480,-106 606,-106 606,-123"/>
<text text-anchor="middle" x="543" y="-112.6" font-family="Helvetica,sans-Serif" font-size="8.00">nodes/weighted_node.hpp</text>
</a>
</g>
</g>
<!-- Node8&#45;&gt;Node19 -->
<g id="edge25_Node000008_Node000019" class="edge">
<title>Node8&#45;&gt;Node19</title>
<g id="a_edge25_Node000008_Node000019"><a xlink:title=" ">
<path fill="none" stroke="#63b8ff" d="M930.8,-161.28C856.67,-152.53 706.57,-134.81 616.4,-124.17"/>
<polygon fill="#63b8ff" stroke="#63b8ff" points="616.59,-120.66 606.25,-122.97 615.77,-127.62 616.59,-120.66"/>
</a>
</g>
</g>
<!-- Node20 -->
<g id="Node000020" class="node">
<title>Node20</title>
<g id="a_Node000020"><a xlink:href="../../d9/dfc/coord_8hpp.html" target="_top" xlink:title=" ">
<polygon fill="white" stroke="#666666" points="1572.5,-123 1409.5,-123 1409.5,-106 1572.5,-106 1572.5,-123"/>
<text text-anchor="middle" x="1491" y="-112.6" font-family="Helvetica,sans-Serif" font-size="8.00">include/types/containers/coord.hpp</text>
</a>
</g>
</g>
<!-- Node8&#45;&gt;Node20 -->
<g id="edge29_Node000008_Node000020" class="edge">
<title>Node8&#45;&gt;Node20</title>
<g id="a_edge29_Node000008_Node000020"><a xlink:title=" ">
<path fill="none" stroke="#63b8ff" d="M1019.44,-162.11C1104.9,-153.66 1293.5,-135.02 1404.55,-124.04"/>
<polygon fill="#63b8ff" stroke="#63b8ff" points="1405.11,-127.51 1414.72,-123.04 1404.42,-120.54 1405.11,-127.51"/>
</a>
</g>
</g>
<!-- Node11&#45;&gt;Node2 -->
<g id="edge16_Node000011_Node000002" class="edge">
<title>Node11&#45;&gt;Node2</title>
<g id="a_edge16_Node000011_Node000002"><a xlink:title=" ">
<path fill="none" stroke="#63b8ff" d="M742.14,-111.07C888.25,-102.25 1389.78,-71.94 1516.66,-64.27"/>
<polygon fill="#63b8ff" stroke="#63b8ff" points="1517.01,-67.76 1526.78,-63.66 1516.58,-60.77 1517.01,-67.76"/>
</a>
</g>
</g>
<!-- Node11&#45;&gt;Node3 -->
<g id="edge18_Node000011_Node000003" class="edge">
<title>Node11&#45;&gt;Node3</title>
<g id="a_edge18_Node000011_Node000003"><a xlink:title=" ">
<path fill="none" stroke="#63b8ff" d="M710.39,-105.94C718.95,-97.82 732.05,-84.17 740,-70 747.5,-56.62 752.47,-39.88 755.43,-27.4"/>
<polygon fill="#63b8ff" stroke="#63b8ff" points="758.91,-27.88 757.61,-17.36 752.07,-26.39 758.91,-27.88"/>
</a>
</g>
</g>
<!-- Node11&#45;&gt;Node5 -->
<g id="edge22_Node000011_Node000005" class="edge">
<title>Node11&#45;&gt;Node5</title>
<g id="a_edge22_Node000011_Node000005"><a xlink:title=" ">
<path fill="none" stroke="#63b8ff" d="M661.65,-107.85C591.41,-98 447.47,-77.84 377.69,-68.06"/>
<polygon fill="#63b8ff" stroke="#63b8ff" points="377.93,-64.56 367.54,-66.64 376.96,-71.49 377.93,-64.56"/>
</a>
</g>
</g>
<!-- Node12 -->
<g id="Node000012" class="node">
<title>Node12</title>
<g id="a_Node000012"><a xlink:title=" ">
<polygon fill="#e0e0e0" stroke="#999999" points="673,-70 631,-70 631,-53 673,-53 673,-70"/>
<text text-anchor="middle" x="652" y="-59.6" font-family="Helvetica,sans-Serif" font-size="8.00">cmath</text>
</a>
</g>
</g>
<!-- Node11&#45;&gt;Node12 -->
<g id="edge17_Node000011_Node000012" class="edge">
<title>Node11&#45;&gt;Node12</title>
<g id="a_edge17_Node000011_Node000012"><a xlink:title=" ">
<path fill="none" stroke="#63b8ff" d="M694.62,-105.97C687.24,-98.44 675.68,-86.65 666.46,-77.25"/>
<polygon fill="#63b8ff" stroke="#63b8ff" points="668.91,-74.75 659.41,-70.06 663.91,-79.65 668.91,-74.75"/>
</a>
</g>
</g>
<!-- Node13 -->
<g id="Node000013" class="node">
<title>Node13</title>
<g id="a_Node000013"><a xlink:title=" ">
<polygon fill="#e0e0e0" stroke="#999999" points="533,-70 475,-70 475,-53 533,-53 533,-70"/>
<text text-anchor="middle" x="504" y="-59.6" font-family="Helvetica,sans-Serif" font-size="8.00">functional</text>
</a>
</g>
</g>
<!-- Node11&#45;&gt;Node13 -->
<g id="edge19_Node000011_Node000013" class="edge">
<title>Node11&#45;&gt;Node13</title>
<g id="a_edge19_Node000011_Node000013"><a xlink:title=" ">
<path fill="none" stroke="#63b8ff" d="M672.78,-105.97C638.32,-97.1 580.9,-82.31 542.75,-72.48"/>
<polygon fill="#63b8ff" stroke="#63b8ff" points="543.57,-69.08 533.01,-69.97 541.82,-75.86 543.57,-69.08"/>
</a>
</g>
</g>
<!-- Node14 -->
<g id="Node000014" class="node">
<title>Node14</title>
<g id="a_Node000014"><a xlink:title=" ">
<polygon fill="#e0e0e0" stroke="#999999" points="613,-70 575,-70 575,-53 613,-53 613,-70"/>
<text text-anchor="middle" x="594" y="-59.6" font-family="Helvetica,sans-Serif" font-size="8.00">limits</text>
</a>
</g>
</g>
<!-- Node11&#45;&gt;Node14 -->
<g id="edge20_Node000011_Node000014" class="edge">
<title>Node11&#45;&gt;Node14</title>
<g id="a_edge20_Node000011_Node000014"><a xlink:title=" ">
<path fill="none" stroke="#63b8ff" d="M686.06,-105.97C668.44,-97.65 639.8,-84.13 619.14,-74.37"/>
<polygon fill="#63b8ff" stroke="#63b8ff" points="620.54,-71.16 610,-70.06 617.55,-77.49 620.54,-71.16"/>
</a>
</g>
</g>
<!-- Node15 -->
<g id="Node000015" class="node">
<title>Node15</title>
<g id="a_Node000015"><a xlink:title=" ">
<polygon fill="#e0e0e0" stroke="#999999" points="731,-70 691,-70 691,-53 731,-53 731,-70"/>
<text text-anchor="middle" x="711" y="-59.6" font-family="Helvetica,sans-Serif" font-size="8.00">string</text>
</a>
</g>
</g>
<!-- Node11&#45;&gt;Node15 -->
<g id="edge21_Node000011_Node000015" class="edge">
<title>Node11&#45;&gt;Node15</title>
<g id="a_edge21_Node000011_Node000015"><a xlink:title=" ">
<path fill="none" stroke="#63b8ff" d="M703.33,-105.97C704.52,-99.19 706.33,-88.97 707.89,-80.13"/>
<polygon fill="#63b8ff" stroke="#63b8ff" points="711.38,-80.51 709.67,-70.06 704.48,-79.3 711.38,-80.51"/>
</a>
</g>
</g>
<!-- Node11&#45;&gt;Node16 -->
<g id="edge23_Node000011_Node000016" class="edge">
<title>Node11&#45;&gt;Node16</title>
<g id="a_edge23_Node000011_Node000016"><a xlink:title=" ">
<path fill="none" stroke="#63b8ff" d="M723.25,-105.97C747.5,-97.39 787.37,-83.27 815.06,-73.46"/>
<polygon fill="#63b8ff" stroke="#63b8ff" points="816.41,-76.69 824.67,-70.06 814.07,-70.1 816.41,-76.69"/>
</a>
</g>
</g>
<!-- Node16&#45;&gt;Node3 -->
<g id="edge24_Node000016_Node000003" class="edge">
<title>Node16&#45;&gt;Node3</title>
<g id="a_edge24_Node000016_Node000003"><a xlink:title=" ">
<path fill="none" stroke="#63b8ff" d="M833.16,-52.97C819.41,-44.91 797.35,-31.98 780.85,-22.31"/>
<polygon fill="#63b8ff" stroke="#63b8ff" points="782.29,-19.09 771.89,-17.06 778.75,-25.13 782.29,-19.09"/>
</a>
</g>
</g>
<!-- Node19&#45;&gt;Node5 -->
<g id="edge27_Node000019_Node000005" class="edge">
<title>Node19&#45;&gt;Node5</title>
<g id="a_edge27_Node000019_Node000005"><a xlink:title=" ">
<path fill="none" stroke="#63b8ff" d="M512.75,-105.97C476.89,-97.05 417.03,-82.16 377.53,-72.33"/>
<polygon fill="#63b8ff" stroke="#63b8ff" points="378.26,-68.91 367.71,-69.89 376.57,-75.7 378.26,-68.91"/>
</a>
</g>
</g>
<!-- Node19&#45;&gt;Node14 -->
<g id="edge26_Node000019_Node000014" class="edge">
<title>Node19&#45;&gt;Node14</title>
<g id="a_edge26_Node000019_Node000014"><a xlink:title=" ">
<path fill="none" stroke="#63b8ff" d="M550.53,-105.97C558.06,-98.44 569.85,-86.65 579.25,-77.25"/>
<polygon fill="#63b8ff" stroke="#63b8ff" points="581.85,-79.6 586.44,-70.06 576.9,-74.65 581.85,-79.6"/>
</a>
</g>
</g>
<!-- Node20&#45;&gt;Node2 -->
<g id="edge30_Node000020_Node000002" class="edge">
<title>Node20&#45;&gt;Node2</title>
<g id="a_edge30_Node000020_Node000002"><a xlink:title=" ">
<path fill="none" stroke="#63b8ff" d="M1499.12,-105.97C1507.32,-98.37 1520.21,-86.41 1530.4,-76.97"/>
<polygon fill="#63b8ff" stroke="#63b8ff" points="1532.9,-79.42 1537.85,-70.06 1528.14,-74.29 1532.9,-79.42"/>
</a>
</g>
</g>
<!-- Node20&#45;&gt;Node3 -->
<g id="edge31_Node000020_Node000003" class="edge">
<title>Node20&#45;&gt;Node3</title>
<g id="a_edge31_Node000020_Node000003"><a xlink:title=" ">
<path fill="none" stroke="#63b8ff" d="M1452.58,-105.96C1389,-93.67 1257.81,-69.07 1146,-53 1015.78,-34.28 859.92,-18.89 792.64,-12.58"/>
<polygon fill="#63b8ff" stroke="#63b8ff" points="792.91,-9.09 782.62,-11.64 792.26,-16.06 792.91,-9.09"/>
</a>
</g>
</g>
<!-- Node21&#45;&gt;Node3 -->
<g id="edge33_Node000021_Node000003" class="edge">
<title>Node21&#45;&gt;Node3</title>
<g id="a_edge33_Node000021_Node000003"><a xlink:title=" ">
<path fill="none" stroke="#63b8ff" d="M643.21,-158.96C573.35,-150.7 474.59,-136.78 463,-123 453.03,-111.15 439.3,-82.24 466,-53 500.15,-15.6 655.19,-10 724.89,-9.41"/>
<polygon fill="#63b8ff" stroke="#63b8ff" points="725.33,-12.9 735.31,-9.35 725.29,-5.9 725.33,-12.9"/>
</a>
</g>
</g>
<!-- Node21&#45;&gt;Node5 -->
<g id="edge37_Node000021_Node000005" class="edge">
<title>Node21&#45;&gt;Node5</title>
<g id="a_edge37_Node000021_Node000005"><a xlink:title=" ">
<path fill="none" stroke="#63b8ff" d="M636,-158.96C535.96,-148.87 372.73,-131.3 362,-123 348.87,-112.85 342.91,-94.43 340.21,-80.57"/>
<polygon fill="#63b8ff" stroke="#63b8ff" points="343.61,-79.64 338.62,-70.29 336.69,-80.7 343.61,-79.64"/>
</a>
</g>
</g>
<!-- Node21&#45;&gt;Node7 -->
<g id="edge38_Node000021_Node000007" class="edge">
<title>Node21&#45;&gt;Node7</title>
<g id="a_edge38_Node000021_Node000007"><a xlink:title=" ">
<path fill="none" stroke="#63b8ff" d="M739.85,-158.97C773.06,-149.67 829.46,-133.87 864.34,-124.09"/>
<polygon fill="#63b8ff" stroke="#63b8ff" points="865.31,-127.46 873.99,-121.39 863.42,-120.72 865.31,-127.46"/>
</a>
</g>
</g>
<!-- Node21&#45;&gt;Node11 -->
<g id="edge39_Node000021_Node000011" class="edge">
<title>Node21&#45;&gt;Node11</title>
<g id="a_edge39_Node000021_Node000011"><a xlink:title=" ">
<path fill="none" stroke="#63b8ff" d="M711.38,-158.97C709.9,-152.12 707.66,-141.74 705.74,-132.84"/>
<polygon fill="#63b8ff" stroke="#63b8ff" points="709.16,-132.09 703.63,-123.06 702.32,-133.57 709.16,-132.09"/>
</a>
</g>
</g>
<!-- Node21&#45;&gt;Node13 -->
<g id="edge34_Node000021_Node000013" class="edge">
<title>Node21&#45;&gt;Node13</title>
<g id="a_edge34_Node000021_Node000013"><a xlink:title=" ">
<path fill="none" stroke="#63b8ff" d="M646.67,-158.96C578.97,-150.59 482.26,-136.47 471,-123 459.19,-108.88 473.49,-89.89 486.78,-76.98"/>
<polygon fill="#63b8ff" stroke="#63b8ff" points="489.24,-79.47 494.29,-70.16 484.53,-74.29 489.24,-79.47"/>
</a>
</g>
</g>
<!-- Node21&#45;&gt;Node14 -->
<g id="edge35_Node000021_Node000014" class="edge">
<title>Node21&#45;&gt;Node14</title>
<g id="a_edge35_Node000021_Node000014"><a xlink:title=" ">
<path fill="none" stroke="#63b8ff" d="M701.05,-158.72C688.61,-150.43 668.77,-136.63 653,-123 636.43,-108.68 619.12,-90.48 607.57,-77.81"/>
<polygon fill="#63b8ff" stroke="#63b8ff" points="610.17,-75.46 600.88,-70.37 604.96,-80.14 610.17,-75.46"/>
</a>
</g>
</g>
<!-- Node21&#45;&gt;Node16 -->
<g id="edge40_Node000021_Node000016" class="edge">
<title>Node21&#45;&gt;Node16</title>
<g id="a_edge40_Node000021_Node000016"><a xlink:title=" ">
<path fill="none" stroke="#63b8ff" d="M752.36,-158.96C775.26,-152.76 803.22,-141.82 822,-123 833.6,-111.38 839.76,-93.46 842.92,-80.13"/>
<polygon fill="#63b8ff" stroke="#63b8ff" points="846.37,-80.76 844.93,-70.26 839.51,-79.36 846.37,-80.76"/>
</a>
</g>
</g>
<!-- Node22 -->
<g id="Node000022" class="node">
<title>Node22</title>
<g id="a_Node000022"><a xlink:title=" ">
<polygon fill="#e0e0e0" stroke="#999999" points="1249.5,-123 1160.5,-123 1160.5,-106 1249.5,-106 1249.5,-123"/>
<text text-anchor="middle" x="1205" y="-112.6" font-family="Helvetica,sans-Serif" font-size="8.00">memory_resource</text>
</a>
</g>
</g>
<!-- Node21&#45;&gt;Node22 -->
<g id="edge36_Node000021_Node000022" class="edge">
<title>Node21&#45;&gt;Node22</title>
<g id="a_edge36_Node000021_Node000022"><a xlink:title=" ">
<path fill="none" stroke="#63b8ff" d="M785.6,-158.97C884.97,-148.67 1061.17,-130.41 1150.22,-121.18"/>
<polygon fill="#63b8ff" stroke="#63b8ff" points="1150.79,-124.64 1160.38,-120.13 1150.07,-117.68 1150.79,-124.64"/>
</a>
</g>
</g>
<!-- Node23&#45;&gt;Node4 -->
<g id="edge44_Node000023_Node000004" class="edge">
<title>Node23&#45;&gt;Node4</title>
<g id="a_edge44_Node000023_Node000004"><a xlink:title=" ">
<path fill="none" stroke="#63b8ff" d="M1365.3,-211.97C1450.59,-196.96 1646.46,-161.6 1820.81,-123.19"/>
<polygon fill="#63b8ff" stroke="#63b8ff" points="1821.66,-126.59 1830.67,-121.01 1820.15,-119.75 1821.66,-126.59"/>
</a>
</g>
</g>
<!-- Node23&#45;&gt;Node10 -->
<g id="edge43_Node000023_Node000010" class="edge">
<title>Node23&#45;&gt;Node10</title>
<g id="a_edge43_Node000023_Node000010"><a xlink:title=" ">
<path fill="none" stroke="#63b8ff" d="M1311.49,-211.9C1301.75,-204.13 1287.89,-191.1 1282,-176 1276.57,-162.07 1279.83,-145.17 1283.87,-132.77"/>
<polygon fill="#63b8ff" stroke="#63b8ff" points="1287.21,-133.82 1287.42,-123.23 1280.65,-131.38 1287.21,-133.82"/>
</a>
</g>
</g>
<!-- Node23&#45;&gt;Node16 -->
<g id="edge58_Node000023_Node000016" class="edge">
<title>Node23&#45;&gt;Node16</title>
<g id="a_edge58_Node000023_Node000016"><a xlink:title=" ">
<path fill="none" stroke="#63b8ff" d="M1308.24,-211.92C1271,-191.72 1164.67,-136.06 1070,-106 1015.59,-88.72 951.46,-77.11 905.79,-70.26"/>
<polygon fill="#63b8ff" stroke="#63b8ff" points="906.16,-66.78 895.76,-68.79 905.15,-73.71 906.16,-66.78"/>
</a>
</g>
</g>
<!-- Node24 -->
<g id="Node000024" class="node">
<title>Node24</title>
<g id="a_Node000024"><a xlink:href="../../dc/d3c/bnode_8hpp.html" target="_top" xlink:title=" ">
<polygon fill="white" stroke="#666666" points="1549.5,-176 1488.5,-176 1488.5,-159 1549.5,-159 1549.5,-176"/>
<text text-anchor="middle" x="1519" y="-165.6" font-family="Helvetica,sans-Serif" font-size="8.00">bnode.hpp</text>
</a>
</g>
</g>
<!-- Node23&#45;&gt;Node24 -->
<g id="edge45_Node000023_Node000024" class="edge">
<title>Node23&#45;&gt;Node24</title>
<g id="a_edge45_Node000023_Node000024"><a xlink:title=" ">
<path fill="none" stroke="#63b8ff" d="M1351.07,-211.97C1385.26,-203.12 1442.16,-188.39 1480.12,-178.57"/>
<polygon fill="#63b8ff" stroke="#63b8ff" points="1481.01,-181.95 1489.81,-176.06 1479.25,-175.17 1481.01,-181.95"/>
</a>
</g>
</g>
<!-- Node25 -->
<g id="Node000025" class="node">
<title>Node25</title>
<g id="a_Node000025"><a xlink:href="../../d9/df8/heterogeneous__pool_8hpp.html" target="_top" xlink:title=" ">
<polygon fill="white" stroke="#666666" points="1470.5,-176 1291.5,-176 1291.5,-159 1470.5,-159 1470.5,-176"/>
<text text-anchor="middle" x="1381" y="-165.6" font-family="Helvetica,sans-Serif" font-size="8.00">../../types/pmr/heterogeneous_pool.hpp</text>
</a>
</g>
</g>
<!-- Node23&#45;&gt;Node25 -->
<g id="edge46_Node000023_Node000025" class="edge">
<title>Node23&#45;&gt;Node25</title>
<g id="a_edge46_Node000023_Node000025"><a xlink:title=" ">
<path fill="none" stroke="#63b8ff" d="M1330.71,-211.97C1339.59,-204.29 1353.61,-192.18 1364.59,-182.69"/>
<polygon fill="#63b8ff" stroke="#63b8ff" points="1366.98,-185.24 1372.26,-176.06 1362.4,-179.95 1366.98,-185.24"/>
</a>
</g>
</g>
<!-- Node25&#45;&gt;Node3 -->
<g id="edge48_Node000025_Node000003" class="edge">
<title>Node25&#45;&gt;Node3</title>
<g id="a_edge48_Node000025_Node000003"><a xlink:title=" ">
<path fill="none" stroke="#63b8ff" d="M1462.27,-158.96C1561.5,-149.36 1717.33,-132.83 1726,-123 1731,-117.33 1730.38,-112.16 1726,-106 1684.57,-47.67 1644.2,-66.82 1574,-53 1420.71,-22.82 926.73,-12.36 792.78,-10.04"/>
<polygon fill="#63b8ff" stroke="#63b8ff" points="792.76,-6.53 782.7,-9.86 792.64,-13.53 792.76,-6.53"/>
</a>
</g>
</g>
<!-- Node25&#45;&gt;Node4 -->
<g id="edge49_Node000025_Node000004" class="edge">
<title>Node25&#45;&gt;Node4</title>
<g id="a_edge49_Node000025_Node000004"><a xlink:title=" ">
<path fill="none" stroke="#63b8ff" d="M1470.74,-159.13C1574.92,-150.33 1741.58,-135.42 1820.62,-122.95"/>
<polygon fill="#63b8ff" stroke="#63b8ff" points="1821.43,-126.36 1830.73,-121.28 1820.29,-119.45 1821.43,-126.36"/>
</a>
</g>
</g>
<!-- Node25&#45;&gt;Node6 -->
<g id="edge53_Node000025_Node000006" class="edge">
<title>Node25&#45;&gt;Node6</title>
<g id="a_edge53_Node000025_Node000006"><a xlink:title=" ">
<path fill="none" stroke="#63b8ff" d="M1468.81,-158.97C1545.66,-151.76 1660.13,-139.55 1759,-123 1760.45,-122.76 1761.94,-122.49 1763.43,-122.21"/>
<polygon fill="#63b8ff" stroke="#63b8ff" points="1764.19,-125.63 1773.29,-120.21 1762.79,-118.77 1764.19,-125.63"/>
</a>
</g>
</g>
<!-- Node25&#45;&gt;Node7 -->
<g id="edge54_Node000025_Node000007" class="edge">
<title>Node25&#45;&gt;Node7</title>
<g id="a_edge54_Node000025_Node000007"><a xlink:title=" ">
<path fill="none" stroke="#63b8ff" d="M1307.37,-158.98C1223.85,-150.41 1083.61,-135.93 963,-123 950.97,-121.71 937.76,-120.26 926.2,-118.98"/>
<polygon fill="#63b8ff" stroke="#63b8ff" points="926.46,-115.49 916.13,-117.86 925.68,-122.45 926.46,-115.49"/>
</a>
</g>
</g>
<!-- Node25&#45;&gt;Node10 -->
<g id="edge47_Node000025_Node000010" class="edge">
<title>Node25&#45;&gt;Node10</title>
<g id="a_edge47_Node000025_Node000010"><a xlink:title=" ">
<path fill="none" stroke="#63b8ff" d="M1367.72,-158.97C1353.36,-150.84 1330.24,-137.74 1313.13,-128.04"/>
<polygon fill="#63b8ff" stroke="#63b8ff" points="1314.76,-124.94 1304.33,-123.06 1311.31,-131.03 1314.76,-124.94"/>
</a>
</g>
</g>
<!-- Node25&#45;&gt;Node11 -->
<g id="edge57_Node000025_Node000011" class="edge">
<title>Node25&#45;&gt;Node11</title>
<g id="a_edge57_Node000025_Node000011"><a xlink:title=" ">
<path fill="none" stroke="#63b8ff" d="M1291.18,-159.75C1146.48,-148.89 866.46,-127.85 752.29,-119.28"/>
<polygon fill="#63b8ff" stroke="#63b8ff" points="752.33,-115.77 742.09,-118.51 751.8,-122.75 752.33,-115.77"/>
</a>
</g>
</g>
<!-- Node25&#45;&gt;Node14 -->
<g id="edge50_Node000025_Node000014" class="edge">
<title>Node25&#45;&gt;Node14</title>
<g id="a_edge50_Node000025_Node000014"><a xlink:title=" ">
<path fill="none" stroke="#63b8ff" d="M1376.44,-158.8C1367.91,-145.25 1348.14,-117.5 1323,-106 1183.99,-42.43 792.19,-92.23 623.24,-69.68"/>
<polygon fill="#63b8ff" stroke="#63b8ff" points="623.57,-66.19 613.17,-68.2 622.55,-73.11 623.57,-66.19"/>
</a>
</g>
</g>
<!-- Node25&#45;&gt;Node16 -->
<g id="edge56_Node000025_Node000016" class="edge">
<title>Node25&#45;&gt;Node16</title>
<g id="a_edge56_Node000025_Node000016"><a xlink:title=" ">
<path fill="none" stroke="#63b8ff" d="M1380.43,-158.64C1379,-145.36 1374.05,-118.67 1357,-106 1321.51,-79.63 1033.36,-67.99 906.07,-64.1"/>
<polygon fill="#63b8ff" stroke="#63b8ff" points="905.83,-60.59 895.73,-63.79 905.62,-67.59 905.83,-60.59"/>
</a>
</g>
</g>
<!-- Node25&#45;&gt;Node22 -->
<g id="edge55_Node000025_Node000022" class="edge">
<title>Node25&#45;&gt;Node22</title>
<g id="a_edge55_Node000025_Node000022"><a xlink:title=" ">
<path fill="none" stroke="#63b8ff" d="M1355.03,-158.97C1324.87,-150.24 1274.94,-135.77 1241.04,-125.94"/>
<polygon fill="#63b8ff" stroke="#63b8ff" points="1241.65,-122.48 1231.08,-123.06 1239.71,-129.2 1241.65,-122.48"/>
</a>
</g>
</g>
<!-- Node26 -->
<g id="Node000026" class="node">
<title>Node26</title>
<g id="a_Node000026"><a xlink:title=" ">
<polygon fill="#e0e0e0" stroke="#999999" points="1664.5,-123 1629.5,-123 1629.5,-106 1664.5,-106 1664.5,-123"/>
<text text-anchor="middle" x="1647" y="-112.6" font-family="Helvetica,sans-Serif" font-size="8.00">map</text>
</a>
</g>
</g>
<!-- Node25&#45;&gt;Node26 -->
<g id="edge51_Node000025_Node000026" class="edge">
<title>Node25&#45;&gt;Node26</title>
<g id="a_edge51_Node000025_Node000026"><a xlink:title=" ">
<path fill="none" stroke="#63b8ff" d="M1425.11,-158.93C1472.24,-150.69 1549.08,-136.84 1615,-123 1616.47,-122.69 1617.97,-122.37 1619.48,-122.04"/>
<polygon fill="#63b8ff" stroke="#63b8ff" points="1620.45,-125.4 1629.43,-119.77 1618.9,-118.58 1620.45,-125.4"/>
</a>
</g>
</g>
<!-- Node27 -->
<g id="Node000027" class="node">
<title>Node27</title>
<g id="a_Node000027"><a xlink:title=" ">
<polygon fill="#e0e0e0" stroke="#999999" points="1717,-123 1683,-123 1683,-106 1717,-106 1717,-123"/>
<text text-anchor="middle" x="1700" y="-112.6" font-family="Helvetica,sans-Serif" font-size="8.00">new</text>
</a>
</g>
</g>
<!-- Node25&#45;&gt;Node27 -->
<g id="edge52_Node000025_Node000027" class="edge">
<title>Node25&#45;&gt;Node27</title>
<g id="a_edge52_Node000025_Node000027"><a xlink:title=" ">
<path fill="none" stroke="#63b8ff" d="M1449.26,-158.98C1506.61,-152.07 1590.85,-140.53 1672.76,-123"/>
<polygon fill="#63b8ff" stroke="#63b8ff" points="1673.71,-126.37 1682.74,-120.83 1672.22,-119.53 1673.71,-126.37"/>
</a>
</g>
</g>
<!-- Node28&#45;&gt;Node3 -->
<g id="edge60_Node000028_Node000003" class="edge">
<title>Node28&#45;&gt;Node3</title>
<g id="a_edge60_Node000028_Node000003"><a xlink:title=" ">
<path fill="none" stroke="#63b8ff" d="M304.87,-165.54C240.69,-163.08 121.34,-154.3 95,-123 90.13,-117.22 90.43,-112.01 95,-106 148.32,-35.87 199.35,-68.88 286,-53 448.69,-23.2 646.79,-13.39 724.95,-10.54"/>
<polygon fill="#63b8ff" stroke="#63b8ff" points="725.3,-14.03 735.17,-10.19 725.06,-7.04 725.3,-14.03"/>
</a>
</g>
</g>
<!-- Node28&#45;&gt;Node5 -->
<g id="edge62_Node000028_Node000005" class="edge">
<title>Node28&#45;&gt;Node5</title>
<g id="a_edge62_Node000028_Node000005"><a xlink:title=" ">
<path fill="none" stroke="#63b8ff" d="M304.99,-159.24C284.16,-153.25 260.63,-142.43 248,-123 232.26,-98.79 267.7,-81.87 298.63,-72.2"/>
<polygon fill="#63b8ff" stroke="#63b8ff" points="299.84,-75.49 308.45,-69.31 297.87,-68.77 299.84,-75.49"/>
</a>
</g>
</g>
<!-- Node28&#45;&gt;Node7 -->
<g id="edge63_Node000028_Node000007" class="edge">
<title>Node28&#45;&gt;Node7</title>
<g id="a_edge63_Node000028_Node000007"><a xlink:title=" ">
<path fill="none" stroke="#63b8ff" d="M387.26,-162.67C492.69,-152.87 770.18,-127.1 863.71,-118.41"/>
<polygon fill="#63b8ff" stroke="#63b8ff" points="864.3,-121.87 873.93,-117.46 863.65,-114.9 864.3,-121.87"/>
</a>
</g>
</g>
<!-- Node28&#45;&gt;Node11 -->
<g id="edge64_Node000028_Node000011" class="edge">
<title>Node28&#45;&gt;Node11</title>
<g id="a_edge64_Node000028_Node000011"><a xlink:title=" ">
<path fill="none" stroke="#63b8ff" d="M387.19,-160.6C452.78,-151.2 580.79,-132.87 651.7,-122.71"/>
<polygon fill="#63b8ff" stroke="#63b8ff" points="652.33,-126.15 661.73,-121.27 651.33,-119.22 652.33,-126.15"/>
</a>
</g>
</g>
<!-- Node28&#45;&gt;Node14 -->
<g id="edge61_Node000028_Node000014" class="edge">
<title>Node28&#45;&gt;Node14</title>
<g id="a_edge61_Node000028_Node000014"><a xlink:title=" ">
<path fill="none" stroke="#63b8ff" d="M360.39,-158.89C383.4,-146.86 430.06,-123.08 471,-106 502.78,-92.74 540.2,-79.88 565.35,-71.63"/>
<polygon fill="#63b8ff" stroke="#63b8ff" points="566.57,-74.91 575,-68.49 564.41,-68.26 566.57,-74.91"/>
</a>
</g>
</g>
<!-- Node28&#45;&gt;Node16 -->
<g id="edge66_Node000028_Node000016" class="edge">
<title>Node28&#45;&gt;Node16</title>
<g id="a_edge66_Node000028_Node000016"><a xlink:title=" ">
<path fill="none" stroke="#63b8ff" d="M387.24,-163.15C483.47,-155.17 717.21,-134.84 751,-123 766.88,-117.43 804.36,-92 827.21,-75.93"/>
<polygon fill="#63b8ff" stroke="#63b8ff" points="829.31,-78.73 835.45,-70.09 825.27,-73.02 829.31,-78.73"/>
</a>
</g>
</g>
<!-- Node29 -->
<g id="Node000029" class="node">
<title>Node29</title>
<g id="a_Node000029"><a xlink:title=" ">
<polygon fill="#e0e0e0" stroke="#999999" points="157.5,-123 104.5,-123 104.5,-106 157.5,-106 157.5,-123"/>
<text text-anchor="middle" x="131" y="-112.6" font-family="Helvetica,sans-Serif" font-size="8.00">iostream</text>
</a>
</g>
</g>
<!-- Node28&#45;&gt;Node29 -->
<g id="edge65_Node000028_Node000029" class="edge">
<title>Node28&#45;&gt;Node29</title>
<g id="a_edge65_Node000028_Node000029"><a xlink:title=" ">
<path fill="none" stroke="#63b8ff" d="M314.28,-158.97C275.19,-149.7 208.9,-133.98 167.67,-124.2"/>
<polygon fill="#63b8ff" stroke="#63b8ff" points="168.3,-120.75 157.76,-121.85 166.68,-127.56 168.3,-120.75"/>
</a>
</g>
</g>
<!-- Node30&#45;&gt;Node3 -->
<g id="edge68_Node000030_Node000003" class="edge">
<title>Node30&#45;&gt;Node3</title>
<g id="a_edge68_Node000030_Node000003"><a xlink:title=" ">
<path fill="none" stroke="#63b8ff" d="M481.75,-161.81C422.14,-156.17 339.1,-144.65 315,-123 291.26,-101.67 277.52,-76.6 299,-53 327.58,-21.59 623.69,-12.38 725.13,-10.13"/>
<polygon fill="#63b8ff" stroke="#63b8ff" points="725.5,-13.63 735.42,-9.92 725.35,-6.63 725.5,-13.63"/>
</a>
</g>
</g>
<!-- Node30&#45;&gt;Node5 -->
<g id="edge69_Node000030_Node000005" class="edge">
<title>Node30&#45;&gt;Node5</title>
<g id="a_edge69_Node000030_Node000005"><a xlink:title=" ">
<path fill="none" stroke="#63b8ff" d="M481.98,-162.79C423.66,-157.91 343.72,-146.96 324,-123 313.85,-110.66 320.14,-92.33 327.24,-79.08"/>
<polygon fill="#63b8ff" stroke="#63b8ff" points="330.47,-80.51 332.57,-70.12 324.45,-76.93 330.47,-80.51"/>
</a>
</g>
</g>
<!-- Node30&#45;&gt;Node11 -->
<g id="edge70_Node000030_Node000011" class="edge">
<title>Node30&#45;&gt;Node11</title>
<g id="a_edge70_Node000030_Node000011"><a xlink:title=" ">
<path fill="none" stroke="#63b8ff" d="M569.02,-158.97C595.52,-150.31 639.24,-136.02 669.27,-126.2"/>
<polygon fill="#63b8ff" stroke="#63b8ff" points="670.47,-129.49 678.89,-123.06 668.29,-122.84 670.47,-129.49"/>
</a>
</g>
</g>
<!-- Node30&#45;&gt;Node16 -->
<g id="edge71_Node000030_Node000016" class="edge">
<title>Node30&#45;&gt;Node16</title>
<g id="a_edge71_Node000030_Node000016"><a xlink:title=" ">
<path fill="none" stroke="#63b8ff" d="M610.12,-159.06C669.97,-151.36 754.38,-138.31 784,-123 804.61,-112.35 822.88,-92.58 834.16,-78.54"/>
<polygon fill="#63b8ff" stroke="#63b8ff" points="837.19,-80.35 840.52,-70.29 831.64,-76.08 837.19,-80.35"/>
</a>
</g>
</g>
</g>
</svg>
