<?xml version="1.0" encoding="UTF-8" standalone="no"?>
<!DOCTYPE svg PUBLIC "-//W3C//DTD SVG 1.1//EN"
 "http://www.w3.org/Graphics/SVG/1.1/DTD/svg11.dtd">
<!-- Generated by graphviz version 2.43.0 (0)
 -->
<!-- Title: gjps.hpp Pages: 1 -->
<svg width="1488pt" height="290pt"
 viewBox="0.00 0.00 1487.50 290.00" xmlns="http://www.w3.org/2000/svg" xmlns:xlink="http://www.w3.org/1999/xlink">
<g id="graph0" class="graph" transform="scale(1 1) rotate(0) translate(4 286)">
<title>gjps.hpp</title>
<!-- Node1 -->
<g id="Node000001" class="node">
<title>Node1</title>
<g id="a_Node000001"><a xlink:title=" ">
<polygon fill="#999999" stroke="#666666" points="698.5,-282 651.5,-282 651.5,-265 698.5,-265 698.5,-282"/>
<text text-anchor="middle" x="675" y="-271.6" font-family="Helvetica,sans-Serif" font-size="8.00">gjps.hpp</text>
</a>
</g>
</g>
<!-- Node2 -->
<g id="Node000002" class="node">
<title>Node2</title>
<g id="a_Node000002"><a xlink:title=" ">
<polygon fill="#e0e0e0" stroke="#999999" points="158.5,-70 123.5,-70 123.5,-53 158.5,-53 158.5,-70"/>
<text text-anchor="middle" x="141" y="-59.6" font-family="Helvetica,sans-Serif" font-size="8.00">array</text>
</a>
</g>
</g>
<!-- Node1&#45;&gt;Node2 -->
<g id="edge1_Node000001_Node000002" class="edge">
<title>Node1&#45;&gt;Node2</title>
<g id="a_edge1_Node000001_Node000002"><a xlink:title=" ">
<path fill="none" stroke="#63b8ff" d="M651.23,-272.87C582.14,-272.82 377.8,-264.72 243,-176 202.56,-149.38 167.88,-102.93 151.34,-78.53"/>
<polygon fill="#63b8ff" stroke="#63b8ff" points="154.18,-76.48 145.75,-70.07 148.35,-80.34 154.18,-76.48"/>
</a>
</g>
</g>
<!-- Node3 -->
<g id="Node000003" class="node">
<title>Node3</title>
<g id="a_Node000003"><a xlink:title=" ">
<polygon fill="#e0e0e0" stroke="#999999" points="647,-17 605,-17 605,0 647,0 647,-17"/>
<text text-anchor="middle" x="626" y="-6.6" font-family="Helvetica,sans-Serif" font-size="8.00">cstddef</text>
</a>
</g>
</g>
<!-- Node1&#45;&gt;Node3 -->
<g id="edge2_Node000001_Node000003" class="edge">
<title>Node1&#45;&gt;Node3</title>
<g id="a_edge2_Node000001_Node000003"><a xlink:title=" ">
<path fill="none" stroke="#63b8ff" d="M651.37,-271.41C531.9,-265.58 0,-235.86 0,-168.5 0,-168.5 0,-168.5 0,-113.5 0,-61.93 49.98,-69 99,-53 192.06,-22.63 495.78,-12.67 594.61,-10.19"/>
<polygon fill="#63b8ff" stroke="#63b8ff" points="594.93,-13.69 604.84,-9.95 594.76,-6.69 594.93,-13.69"/>
</a>
</g>
</g>
<!-- Node4 -->
<g id="Node000004" class="node">
<title>Node4</title>
<g id="a_Node000004"><a xlink:title=" ">
<polygon fill="#e0e0e0" stroke="#999999" points="1479.5,-123 1440.5,-123 1440.5,-106 1479.5,-106 1479.5,-123"/>
<text text-anchor="middle" x="1460" y="-112.6" font-family="Helvetica,sans-Serif" font-size="8.00">cstdint</text>
</a>
</g>
</g>
<!-- Node1&#45;&gt;Node4 -->
<g id="edge3_Node000001_Node000004" class="edge">
<title>Node1&#45;&gt;Node4</title>
<g id="a_edge3_Node000001_Node000004"><a xlink:title=" ">
<path fill="none" stroke="#63b8ff" d="M698.61,-271.43C766.7,-268.09 969.19,-256.41 1135,-229 1235.51,-212.39 1263.56,-214.2 1358,-176 1388.81,-163.54 1421.33,-142.73 1441.14,-129.07"/>
<polygon fill="#63b8ff" stroke="#63b8ff" points="1443.37,-131.78 1449.54,-123.17 1439.35,-126.05 1443.37,-131.78"/>
</a>
</g>
</g>
<!-- Node5 -->
<g id="Node000005" class="node">
<title>Node5</title>
<g id="a_Node000005"><a xlink:title=" ">
<polygon fill="#e0e0e0" stroke="#999999" points="378.5,-70 325.5,-70 325.5,-53 378.5,-53 378.5,-70"/>
<text text-anchor="middle" x="352" y="-59.6" font-family="Helvetica,sans-Serif" font-size="8.00">type_traits</text>
</a>
</g>
</g>
<!-- Node1&#45;&gt;Node5 -->
<g id="edge4_Node000001_Node000005" class="edge">
<title>Node1&#45;&gt;Node5</title>
<g id="a_edge4_Node000001_Node000005"><a xlink:title=" ">
<path fill="none" stroke="#63b8ff" d="M651.21,-268.81C562.64,-254.55 254.29,-199.94 199,-123 194.59,-116.86 194.45,-112.03 199,-106 213.01,-87.45 274.76,-74.49 315.4,-67.78"/>
<polygon fill="#63b8ff" stroke="#63b8ff" points="316.16,-71.21 325.49,-66.18 315.06,-64.29 316.16,-71.21"/>
</a>
</g>
</g>
<!-- Node6 -->
<g id="Node000006" class="node">
<title>Node6</title>
<g id="a_Node000006"><a xlink:title=" ">
<polygon fill="#e0e0e0" stroke="#999999" points="1010,-123 976,-123 976,-106 1010,-106 1010,-123"/>
<text text-anchor="middle" x="993" y="-112.6" font-family="Helvetica,sans-Serif" font-size="8.00">utility</text>
</a>
</g>
</g>
<!-- Node1&#45;&gt;Node6 -->
<g id="edge5_Node000001_Node000006" class="edge">
<title>Node1&#45;&gt;Node6</title>
<g id="a_edge5_Node000001_Node000006"><a xlink:title=" ">
<path fill="none" stroke="#63b8ff" d="M698.68,-270.84C753.52,-266.62 887.39,-253.98 924,-229 958.51,-205.45 978.74,-158.38 987.61,-132.88"/>
<polygon fill="#63b8ff" stroke="#63b8ff" points="991.02,-133.72 990.81,-123.12 984.37,-131.53 991.02,-133.72"/>
</a>
</g>
</g>
<!-- Node7 -->
<g id="Node000007" class="node">
<title>Node7</title>
<g id="a_Node000007"><a xlink:title=" ">
<polygon fill="#e0e0e0" stroke="#999999" points="730,-123 692,-123 692,-106 730,-106 730,-123"/>
<text text-anchor="middle" x="711" y="-112.6" font-family="Helvetica,sans-Serif" font-size="8.00">vector</text>
</a>
</g>
</g>
<!-- Node1&#45;&gt;Node7 -->
<g id="edge6_Node000001_Node000007" class="edge">
<title>Node1&#45;&gt;Node7</title>
<g id="a_edge6_Node000001_Node000007"><a xlink:title=" ">
<path fill="none" stroke="#63b8ff" d="M676.74,-264.93C682.19,-241.15 699.06,-167.56 706.91,-133.33"/>
<polygon fill="#63b8ff" stroke="#63b8ff" points="710.37,-133.9 709.2,-123.37 703.55,-132.33 710.37,-133.9"/>
</a>
</g>
</g>
<!-- Node8 -->
<g id="Node000008" class="node">
<title>Node8</title>
<g id="a_Node000008"><a xlink:href="../../dc/d8a/grid_8hpp.html" target="_top" xlink:title=" ">
<polygon fill="white" stroke="#666666" points="665,-176 587,-176 587,-159 665,-159 665,-176"/>
<text text-anchor="middle" x="626" y="-165.6" font-family="Helvetica,sans-Serif" font-size="8.00">../mazes/grid.hpp</text>
</a>
</g>
</g>
<!-- Node1&#45;&gt;Node8 -->
<g id="edge7_Node000001_Node000008" class="edge">
<title>Node1&#45;&gt;Node8</title>
<g id="a_edge7_Node000001_Node000008"><a xlink:title=" ">
<path fill="none" stroke="#63b8ff" d="M671.32,-264.68C663.4,-247.89 644.63,-208.04 633.89,-185.25"/>
<polygon fill="#63b8ff" stroke="#63b8ff" points="637.02,-183.68 629.59,-176.12 630.69,-186.66 637.02,-183.68"/>
</a>
</g>
</g>
<!-- Node11 -->
<g id="Node000011" class="node">
<title>Node11</title>
<g id="a_Node000011"><a xlink:href="../../df/d93/utils_8hpp.html" target="_top" xlink:title=" ">
<polygon fill="white" stroke="#666666" points="286,-123 218,-123 218,-106 286,-106 286,-123"/>
<text text-anchor="middle" x="252" y="-112.6" font-family="Helvetica,sans-Serif" font-size="8.00">../utils/utils.hpp</text>
</a>
</g>
</g>
<!-- Node1&#45;&gt;Node11 -->
<g id="edge38_Node000001_Node000011" class="edge">
<title>Node1&#45;&gt;Node11</title>
<g id="a_edge38_Node000001_Node000011"><a xlink:title=" ">
<path fill="none" stroke="#63b8ff" d="M654.6,-264.93C586.07,-239.49 363.89,-157.03 282.36,-126.77"/>
<polygon fill="#63b8ff" stroke="#63b8ff" points="283.29,-123.38 272.69,-123.18 280.85,-129.94 283.29,-123.38"/>
</a>
</g>
</g>
<!-- Node16 -->
<g id="Node000016" class="node">
<title>Node16</title>
<g id="a_Node000016"><a xlink:href="../../d7/d65/intrinsics_8hpp.html" target="_top" xlink:title=" ">
<polygon fill="#fff0f0" stroke="red" points="827.5,-70 742.5,-70 742.5,-53 827.5,-53 827.5,-70"/>
<text text-anchor="middle" x="785" y="-59.6" font-family="Helvetica,sans-Serif" font-size="8.00">../utils/intrinsics.hpp</text>
</a>
</g>
</g>
<!-- Node1&#45;&gt;Node16 -->
<g id="edge62_Node000001_Node000016" class="edge">
<title>Node1&#45;&gt;Node16</title>
<g id="a_edge62_Node000001_Node000016"><a xlink:title=" ">
<path fill="none" stroke="#63b8ff" d="M698.63,-269.45C743.14,-262.29 838.55,-239.89 879,-176 890.46,-157.91 876.79,-123.13 863,-106 851.33,-91.5 833.44,-81.03 817.74,-74"/>
<polygon fill="#63b8ff" stroke="#63b8ff" points="818.9,-70.69 808.33,-70.06 816.2,-77.15 818.9,-70.69"/>
</a>
</g>
</g>
<!-- Node20 -->
<g id="Node000020" class="node">
<title>Node20</title>
<g id="a_Node000020"><a xlink:href="../../d8/d62/existence__set_8hpp.html" target="_top" xlink:title=" ">
<polygon fill="white" stroke="#666666" points="869.5,-176 722.5,-176 722.5,-159 869.5,-159 869.5,-176"/>
<text text-anchor="middle" x="796" y="-165.6" font-family="Helvetica,sans-Serif" font-size="8.00">../types/containers/existence_set.hpp</text>
</a>
</g>
</g>
<!-- Node1&#45;&gt;Node20 -->
<g id="edge29_Node000001_Node000020" class="edge">
<title>Node1&#45;&gt;Node20</title>
<g id="a_edge29_Node000001_Node000020"><a xlink:title=" ">
<path fill="none" stroke="#63b8ff" d="M684.09,-264.68C704.34,-247.28 753.38,-205.13 779.3,-182.85"/>
<polygon fill="#63b8ff" stroke="#63b8ff" points="781.83,-185.3 787.13,-176.12 777.26,-179.99 781.83,-185.3"/>
</a>
</g>
</g>
<!-- Node22 -->
<g id="Node000022" class="node">
<title>Node22</title>
<g id="a_Node000022"><a xlink:href="../../da/deb/managed__node_8hpp.html" target="_top" xlink:title=" ">
<polygon fill="white" stroke="#666666" points="1126,-229 1018,-229 1018,-212 1126,-212 1126,-229"/>
<text text-anchor="middle" x="1072" y="-218.6" font-family="Helvetica,sans-Serif" font-size="8.00">base/managed_node.hpp</text>
</a>
</g>
</g>
<!-- Node1&#45;&gt;Node22 -->
<g id="edge39_Node000001_Node000022" class="edge">
<title>Node1&#45;&gt;Node22</title>
<g id="a_edge39_Node000001_Node000022"><a xlink:title=" ">
<path fill="none" stroke="#63b8ff" d="M698.65,-269.46C758.52,-261.77 917.73,-241.32 1007.72,-229.76"/>
<polygon fill="#63b8ff" stroke="#63b8ff" points="1008.33,-233.21 1017.8,-228.46 1007.44,-226.27 1008.33,-233.21"/>
</a>
</g>
</g>
<!-- Node27 -->
<g id="Node000027" class="node">
<title>Node27</title>
<g id="a_Node000027"><a xlink:href="../../d2/d1c/solver_8hpp.html" target="_top" xlink:title=" ">
<polygon fill="white" stroke="#666666" points="518,-176 446,-176 446,-159 518,-159 518,-176"/>
<text text-anchor="middle" x="482" y="-165.6" font-family="Helvetica,sans-Serif" font-size="8.00">base/solver.hpp</text>
</a>
</g>
</g>
<!-- Node1&#45;&gt;Node27 -->
<g id="edge55_Node000001_Node000027" class="edge">
<title>Node1&#45;&gt;Node27</title>
<g id="a_edge55_Node000001_Node000027"><a xlink:title=" ">
<path fill="none" stroke="#63b8ff" d="M660.81,-264.85C627.69,-247 545.04,-202.47 504.77,-180.77"/>
<polygon fill="#63b8ff" stroke="#63b8ff" points="506.42,-177.68 495.95,-176.02 503.1,-183.84 506.42,-177.68"/>
</a>
</g>
</g>
<!-- Node8&#45;&gt;Node2 -->
<g id="edge9_Node000008_Node000002" class="edge">
<title>Node8&#45;&gt;Node2</title>
<g id="a_edge9_Node000008_Node000002"><a xlink:title=" ">
<path fill="none" stroke="#63b8ff" d="M586.82,-163.07C486.35,-154.18 226.17,-130.58 209,-123 186.25,-112.96 165.78,-92.41 153.38,-78.06"/>
<polygon fill="#63b8ff" stroke="#63b8ff" points="155.83,-75.53 146.75,-70.07 150.44,-80 155.83,-75.53"/>
</a>
</g>
</g>
<!-- Node8&#45;&gt;Node3 -->
<g id="edge11_Node000008_Node000003" class="edge">
<title>Node8&#45;&gt;Node3</title>
<g id="a_edge11_Node000008_Node000003"><a xlink:title=" ">
<path fill="none" stroke="#63b8ff" d="M626,-158.93C626,-135.26 626,-62.19 626,-27.78"/>
<polygon fill="#63b8ff" stroke="#63b8ff" points="629.5,-27.37 626,-17.37 622.5,-27.37 629.5,-27.37"/>
</a>
</g>
</g>
<!-- Node8&#45;&gt;Node5 -->
<g id="edge12_Node000008_Node000005" class="edge">
<title>Node8&#45;&gt;Node5</title>
<g id="a_edge12_Node000008_Node000005"><a xlink:title=" ">
<path fill="none" stroke="#63b8ff" d="M586.81,-163.5C510.81,-157.29 349.37,-141.98 333,-123 322.13,-110.4 330.72,-91.59 339.58,-78.3"/>
<polygon fill="#63b8ff" stroke="#63b8ff" points="342.47,-80.27 345.52,-70.12 336.81,-76.15 342.47,-80.27"/>
</a>
</g>
</g>
<!-- Node8&#45;&gt;Node6 -->
<g id="edge13_Node000008_Node000006" class="edge">
<title>Node8&#45;&gt;Node6</title>
<g id="a_edge13_Node000008_Node000006"><a xlink:title=" ">
<path fill="none" stroke="#63b8ff" d="M665.28,-161.04C740.09,-150.65 901.31,-128.24 965.66,-119.3"/>
<polygon fill="#63b8ff" stroke="#63b8ff" points="966.4,-122.73 975.82,-117.89 965.44,-115.8 966.4,-122.73"/>
</a>
</g>
</g>
<!-- Node8&#45;&gt;Node7 -->
<g id="edge14_Node000008_Node000007" class="edge">
<title>Node8&#45;&gt;Node7</title>
<g id="a_edge14_Node000008_Node000007"><a xlink:title=" ">
<path fill="none" stroke="#63b8ff" d="M638.54,-158.97C651.98,-150.91 673.54,-137.98 689.65,-128.31"/>
<polygon fill="#63b8ff" stroke="#63b8ff" points="691.63,-131.2 698.41,-123.06 688.03,-125.2 691.63,-131.2"/>
</a>
</g>
</g>
<!-- Node9 -->
<g id="Node000009" class="node">
<title>Node9</title>
<g id="a_Node000009"><a xlink:title=" ">
<polygon fill="#e0e0e0" stroke="#999999" points="598,-123 548,-123 548,-106 598,-106 598,-123"/>
<text text-anchor="middle" x="573" y="-112.6" font-family="Helvetica,sans-Serif" font-size="8.00">algorithm</text>
</a>
</g>
</g>
<!-- Node8&#45;&gt;Node9 -->
<g id="edge8_Node000008_Node000009" class="edge">
<title>Node8&#45;&gt;Node9</title>
<g id="a_edge8_Node000008_Node000009"><a xlink:title=" ">
<path fill="none" stroke="#63b8ff" d="M618.18,-158.97C610.35,-151.44 598.1,-139.65 588.33,-130.25"/>
<polygon fill="#63b8ff" stroke="#63b8ff" points="590.49,-127.47 580.85,-123.06 585.63,-132.51 590.49,-127.47"/>
</a>
</g>
</g>
<!-- Node10 -->
<g id="Node000010" class="node">
<title>Node10</title>
<g id="a_Node000010"><a xlink:title=" ">
<polygon fill="#e0e0e0" stroke="#999999" points="1070,-123 1028,-123 1028,-106 1070,-106 1070,-123"/>
<text text-anchor="middle" x="1049" y="-112.6" font-family="Helvetica,sans-Serif" font-size="8.00">cassert</text>
</a>
</g>
</g>
<!-- Node8&#45;&gt;Node10 -->
<g id="edge10_Node000008_Node000010" class="edge">
<title>Node8&#45;&gt;Node10</title>
<g id="a_edge10_Node000008_Node000010"><a xlink:title=" ">
<path fill="none" stroke="#63b8ff" d="M665.13,-162.85C747.08,-155.09 935.31,-136.69 1017.79,-122.92"/>
<polygon fill="#63b8ff" stroke="#63b8ff" points="1018.52,-126.35 1027.77,-121.18 1017.32,-119.45 1018.52,-126.35"/>
</a>
</g>
</g>
<!-- Node8&#45;&gt;Node11 -->
<g id="edge15_Node000008_Node000011" class="edge">
<title>Node8&#45;&gt;Node11</title>
<g id="a_edge15_Node000008_Node000011"><a xlink:title=" ">
<path fill="none" stroke="#63b8ff" d="M586.82,-161.56C525.56,-153.77 403.41,-137.98 300,-123 298.73,-122.82 297.45,-122.63 296.15,-122.44"/>
<polygon fill="#63b8ff" stroke="#63b8ff" points="296.48,-118.95 286.07,-120.92 295.44,-125.87 296.48,-118.95"/>
</a>
</g>
</g>
<!-- Node8&#45;&gt;Node16 -->
<g id="edge28_Node000008_Node000016" class="edge">
<title>Node8&#45;&gt;Node16</title>
<g id="a_edge28_Node000008_Node000016"><a xlink:title=" ">
<path fill="none" stroke="#63b8ff" d="M631.52,-158.85C640.87,-146.34 660.99,-121.36 683,-106 703.49,-91.71 729.41,-80.73 750,-73.37"/>
<polygon fill="#63b8ff" stroke="#63b8ff" points="751.32,-76.62 759.63,-70.06 749.04,-70 751.32,-76.62"/>
</a>
</g>
</g>
<!-- Node19 -->
<g id="Node000019" class="node">
<title>Node19</title>
<g id="a_Node000019"><a xlink:href="../../d1/d2d/weighted__node_8hpp.html" target="_top" xlink:title=" ">
<polygon fill="white" stroke="#666666" points="453.5,-123 342.5,-123 342.5,-106 453.5,-106 453.5,-123"/>
<text text-anchor="middle" x="398" y="-112.6" font-family="Helvetica,sans-Serif" font-size="8.00">nodes/weighted_node.hpp</text>
</a>
</g>
</g>
<!-- Node8&#45;&gt;Node19 -->
<g id="edge25_Node000008_Node000019" class="edge">
<title>Node8&#45;&gt;Node19</title>
<g id="a_edge25_Node000008_Node000019"><a xlink:title=" ">
<path fill="none" stroke="#63b8ff" d="M592.36,-158.97C552.37,-150.03 485.53,-135.08 441.6,-125.25"/>
<polygon fill="#63b8ff" stroke="#63b8ff" points="442.3,-121.82 431.78,-123.06 440.78,-128.65 442.3,-121.82"/>
</a>
</g>
</g>
<!-- Node11&#45;&gt;Node2 -->
<g id="edge16_Node000011_Node000002" class="edge">
<title>Node11&#45;&gt;Node2</title>
<g id="a_edge16_Node000011_Node000002"><a xlink:title=" ">
<path fill="none" stroke="#63b8ff" d="M235.62,-105.97C217.42,-97.61 187.8,-84 166.55,-74.24"/>
<polygon fill="#63b8ff" stroke="#63b8ff" points="167.99,-71.05 157.45,-70.06 165.07,-77.41 167.99,-71.05"/>
</a>
</g>
</g>
<!-- Node11&#45;&gt;Node3 -->
<g id="edge18_Node000011_Node000003" class="edge">
<title>Node11&#45;&gt;Node3</title>
<g id="a_edge18_Node000011_Node000003"><a xlink:title=" ">
<path fill="none" stroke="#63b8ff" d="M257.66,-105.6C267.72,-92.25 290.1,-65.46 316,-53 364.93,-29.46 526.33,-16.17 594.82,-11.47"/>
<polygon fill="#63b8ff" stroke="#63b8ff" points="595.24,-14.95 604.99,-10.78 594.78,-7.96 595.24,-14.95"/>
</a>
</g>
</g>
<!-- Node11&#45;&gt;Node5 -->
<g id="edge22_Node000011_Node000005" class="edge">
<title>Node11&#45;&gt;Node5</title>
<g id="a_edge22_Node000011_Node000005"><a xlink:title=" ">
<path fill="none" stroke="#63b8ff" d="M266.76,-105.97C282.93,-97.73 309.11,-84.37 328.2,-74.64"/>
<polygon fill="#63b8ff" stroke="#63b8ff" points="329.87,-77.72 337.18,-70.06 326.69,-71.48 329.87,-77.72"/>
</a>
</g>
</g>
<!-- Node12 -->
<g id="Node000012" class="node">
<title>Node12</title>
<g id="a_Node000012"><a xlink:title=" ">
<polygon fill="#e0e0e0" stroke="#999999" points="215,-70 177,-70 177,-53 215,-53 215,-70"/>
<text text-anchor="middle" x="196" y="-59.6" font-family="Helvetica,sans-Serif" font-size="8.00">cmath</text>
</a>
</g>
</g>
<!-- Node11&#45;&gt;Node12 -->
<g id="edge17_Node000011_Node000012" class="edge">
<title>Node11&#45;&gt;Node12</title>
<g id="a_edge17_Node000011_Node000012"><a xlink:title=" ">
<path fill="none" stroke="#63b8ff" d="M243.74,-105.97C235.38,-98.37 222.26,-86.41 211.88,-76.97"/>
<polygon fill="#63b8ff" stroke="#63b8ff" points="214.05,-74.2 204.3,-70.06 209.33,-79.38 214.05,-74.2"/>
</a>
</g>
</g>
<!-- Node13 -->
<g id="Node000013" class="node">
<title>Node13</title>
<g id="a_Node000013"><a xlink:title=" ">
<polygon fill="#e0e0e0" stroke="#999999" points="447,-70 397,-70 397,-53 447,-53 447,-70"/>
<text text-anchor="middle" x="422" y="-59.6" font-family="Helvetica,sans-Serif" font-size="8.00">functional</text>
</a>
</g>
</g>
<!-- Node11&#45;&gt;Node13 -->
<g id="edge19_Node000011_Node000013" class="edge">
<title>Node11&#45;&gt;Node13</title>
<g id="a_edge19_Node000011_Node000013"><a xlink:title=" ">
<path fill="none" stroke="#63b8ff" d="M277.08,-105.97C306.21,-97.24 354.44,-82.77 387.19,-72.94"/>
<polygon fill="#63b8ff" stroke="#63b8ff" points="388.24,-76.28 396.81,-70.06 386.23,-69.58 388.24,-76.28"/>
</a>
</g>
</g>
<!-- Node14 -->
<g id="Node000014" class="node">
<title>Node14</title>
<g id="a_Node000014"><a xlink:title=" ">
<polygon fill="#e0e0e0" stroke="#999999" points="499,-70 465,-70 465,-53 499,-53 499,-70"/>
<text text-anchor="middle" x="482" y="-59.6" font-family="Helvetica,sans-Serif" font-size="8.00">limits</text>
</a>
</g>
</g>
<!-- Node11&#45;&gt;Node14 -->
<g id="edge20_Node000011_Node000014" class="edge">
<title>Node11&#45;&gt;Node14</title>
<g id="a_edge20_Node000011_Node000014"><a xlink:title=" ">
<path fill="none" stroke="#63b8ff" d="M286.1,-107C324.76,-99.45 389.88,-86.24 454.96,-70.1"/>
<polygon fill="#63b8ff" stroke="#63b8ff" points="456.13,-73.42 464.98,-67.6 454.43,-66.63 456.13,-73.42"/>
</a>
</g>
</g>
<!-- Node15 -->
<g id="Node000015" class="node">
<title>Node15</title>
<g id="a_Node000015"><a xlink:title=" ">
<polygon fill="#e0e0e0" stroke="#999999" points="269,-70 233,-70 233,-53 269,-53 269,-70"/>
<text text-anchor="middle" x="251" y="-59.6" font-family="Helvetica,sans-Serif" font-size="8.00">string</text>
</a>
</g>
</g>
<!-- Node11&#45;&gt;Node15 -->
<g id="edge21_Node000011_Node000015" class="edge">
<title>Node11&#45;&gt;Node15</title>
<g id="a_edge21_Node000011_Node000015"><a xlink:title=" ">
<path fill="none" stroke="#63b8ff" d="M251.85,-105.97C251.72,-99.19 251.52,-88.97 251.35,-80.13"/>
<polygon fill="#63b8ff" stroke="#63b8ff" points="254.84,-79.99 251.15,-70.06 247.84,-80.12 254.84,-79.99"/>
</a>
</g>
</g>
<!-- Node11&#45;&gt;Node16 -->
<g id="edge23_Node000011_Node000016" class="edge">
<title>Node11&#45;&gt;Node16</title>
<g id="a_edge23_Node000011_Node000016"><a xlink:title=" ">
<path fill="none" stroke="#63b8ff" d="M286.15,-110.23C376.74,-101.56 623.64,-77.94 732.38,-67.53"/>
<polygon fill="#63b8ff" stroke="#63b8ff" points="732.84,-71.01 742.46,-66.57 732.18,-64.04 732.84,-71.01"/>
</a>
</g>
</g>
<!-- Node16&#45;&gt;Node3 -->
<g id="edge24_Node000016_Node000003" class="edge">
<title>Node16&#45;&gt;Node3</title>
<g id="a_edge24_Node000016_Node000003"><a xlink:title=" ">
<path fill="none" stroke="#63b8ff" d="M761.54,-52.97C733.75,-44.06 687.39,-29.19 656.75,-19.36"/>
<polygon fill="#63b8ff" stroke="#63b8ff" points="657.61,-15.96 647.02,-16.24 655.47,-22.63 657.61,-15.96"/>
</a>
</g>
</g>
<!-- Node19&#45;&gt;Node5 -->
<g id="edge27_Node000019_Node000005" class="edge">
<title>Node19&#45;&gt;Node5</title>
<g id="a_edge27_Node000019_Node000005"><a xlink:title=" ">
<path fill="none" stroke="#63b8ff" d="M391.21,-105.97C384.49,-98.52 373.99,-86.89 365.56,-77.53"/>
<polygon fill="#63b8ff" stroke="#63b8ff" points="368.11,-75.14 358.82,-70.06 362.91,-79.83 368.11,-75.14"/>
</a>
</g>
</g>
<!-- Node19&#45;&gt;Node14 -->
<g id="edge26_Node000019_Node000014" class="edge">
<title>Node19&#45;&gt;Node14</title>
<g id="a_edge26_Node000019_Node000014"><a xlink:title=" ">
<path fill="none" stroke="#63b8ff" d="M410.39,-105.97C423.67,-97.91 444.98,-84.98 460.9,-75.31"/>
<polygon fill="#63b8ff" stroke="#63b8ff" points="462.82,-78.24 469.55,-70.06 459.19,-72.25 462.82,-78.24"/>
</a>
</g>
</g>
<!-- Node20&#45;&gt;Node3 -->
<g id="edge30_Node000020_Node000003" class="edge">
<title>Node20&#45;&gt;Node3</title>
<g id="a_edge30_Node000020_Node000003"><a xlink:title=" ">
<path fill="none" stroke="#63b8ff" d="M817.78,-158.88C833.46,-152.12 853.47,-140.55 863,-123 876.41,-98.31 845.56,-59.63 837,-53 809.27,-31.52 708.89,-18.16 657.22,-12.56"/>
<polygon fill="#63b8ff" stroke="#63b8ff" points="657.58,-9.08 647.27,-11.51 656.85,-16.04 657.58,-9.08"/>
</a>
</g>
</g>
<!-- Node20&#45;&gt;Node5 -->
<g id="edge34_Node000020_Node000005" class="edge">
<title>Node20&#45;&gt;Node5</title>
<g id="a_edge34_Node000020_Node000005"><a xlink:title=" ">
<path fill="none" stroke="#63b8ff" d="M791.49,-158.93C783.07,-145.59 763.58,-118.14 739,-106 601.28,-37.99 545.28,-91.72 388.65,-69.85"/>
<polygon fill="#63b8ff" stroke="#63b8ff" points="389.08,-66.38 378.68,-68.38 388.06,-73.3 389.08,-66.38"/>
</a>
</g>
</g>
<!-- Node20&#45;&gt;Node7 -->
<g id="edge35_Node000020_Node000007" class="edge">
<title>Node20&#45;&gt;Node7</title>
<g id="a_edge35_Node000020_Node000007"><a xlink:title=" ">
<path fill="none" stroke="#63b8ff" d="M783.46,-158.97C770.02,-150.91 748.46,-137.98 732.35,-128.31"/>
<polygon fill="#63b8ff" stroke="#63b8ff" points="733.97,-125.2 723.59,-123.06 730.37,-131.2 733.97,-125.2"/>
</a>
</g>
</g>
<!-- Node20&#45;&gt;Node11 -->
<g id="edge36_Node000020_Node000011" class="edge">
<title>Node20&#45;&gt;Node11</title>
<g id="a_edge36_Node000020_Node000011"><a xlink:title=" ">
<path fill="none" stroke="#63b8ff" d="M722.35,-159.6C607.62,-148.84 389.71,-128.41 296.31,-119.65"/>
<polygon fill="#63b8ff" stroke="#63b8ff" points="296.36,-116.14 286.08,-118.69 295.71,-123.11 296.36,-116.14"/>
</a>
</g>
</g>
<!-- Node20&#45;&gt;Node13 -->
<g id="edge31_Node000020_Node000013" class="edge">
<title>Node20&#45;&gt;Node13</title>
<g id="a_edge31_Node000020_Node000013"><a xlink:title=" ">
<path fill="none" stroke="#63b8ff" d="M795.39,-158.69C793.91,-145.49 788.87,-118.91 772,-106 718.12,-64.76 540.73,-80.24 457.15,-69.81"/>
<polygon fill="#63b8ff" stroke="#63b8ff" points="457.59,-66.34 447.19,-68.36 456.59,-73.26 457.59,-66.34"/>
</a>
</g>
</g>
<!-- Node20&#45;&gt;Node14 -->
<g id="edge32_Node000020_Node000014" class="edge">
<title>Node20&#45;&gt;Node14</title>
<g id="a_edge32_Node000020_Node000014"><a xlink:title=" ">
<path fill="none" stroke="#63b8ff" d="M801.53,-158.79C809.84,-146.19 823.21,-121.08 810,-106 790.25,-83.45 584.64,-68.75 509.39,-64.1"/>
<polygon fill="#63b8ff" stroke="#63b8ff" points="509.47,-60.59 499.28,-63.48 509.05,-67.58 509.47,-60.59"/>
</a>
</g>
</g>
<!-- Node20&#45;&gt;Node16 -->
<g id="edge37_Node000020_Node000016" class="edge">
<title>Node20&#45;&gt;Node16</title>
<g id="a_edge37_Node000020_Node000016"><a xlink:title=" ">
<path fill="none" stroke="#63b8ff" d="M811.05,-158.97C830.17,-148.32 859.39,-127.71 848,-106 840.69,-92.08 826.69,-81.73 813.74,-74.63"/>
<polygon fill="#63b8ff" stroke="#63b8ff" points="815.11,-71.41 804.6,-70.03 811.96,-77.66 815.11,-71.41"/>
</a>
</g>
</g>
<!-- Node21 -->
<g id="Node000021" class="node">
<title>Node21</title>
<g id="a_Node000021"><a xlink:title=" ">
<polygon fill="#e0e0e0" stroke="#999999" points="1170,-123 1088,-123 1088,-106 1170,-106 1170,-123"/>
<text text-anchor="middle" x="1129" y="-112.6" font-family="Helvetica,sans-Serif" font-size="8.00">memory_resource</text>
</a>
</g>
</g>
<!-- Node20&#45;&gt;Node21 -->
<g id="edge33_Node000020_Node000021" class="edge">
<title>Node20&#45;&gt;Node21</title>
<g id="a_edge33_Node000020_Node000021"><a xlink:title=" ">
<path fill="none" stroke="#63b8ff" d="M845.14,-158.97C907.43,-149.43 1014.32,-133.06 1077.65,-123.36"/>
<polygon fill="#63b8ff" stroke="#63b8ff" points="1078.46,-126.78 1087.81,-121.81 1077.4,-119.86 1078.46,-126.78"/>
</a>
</g>
</g>
<!-- Node22&#45;&gt;Node10 -->
<g id="edge40_Node000022_Node000010" class="edge">
<title>Node22&#45;&gt;Node10</title>
<g id="a_edge40_Node000022_Node000010"><a xlink:title=" ">
<path fill="none" stroke="#63b8ff" d="M1070.27,-211.68C1066.61,-195.11 1057.98,-156.11 1052.91,-133.18"/>
<polygon fill="#63b8ff" stroke="#63b8ff" points="1056.26,-132.13 1050.69,-123.12 1049.43,-133.64 1056.26,-132.13"/>
</a>
</g>
</g>
<!-- Node22&#45;&gt;Node16 -->
<g id="edge54_Node000022_Node000016" class="edge">
<title>Node22&#45;&gt;Node16</title>
<g id="a_edge54_Node000022_Node000016"><a xlink:title=" ">
<path fill="none" stroke="#63b8ff" d="M1126.04,-216.01C1226.29,-207.67 1424.8,-181.33 1355,-106 1320.28,-68.53 972.73,-63.19 837.99,-62.54"/>
<polygon fill="#63b8ff" stroke="#63b8ff" points="837.91,-59.04 827.9,-62.5 837.88,-66.04 837.91,-59.04"/>
</a>
</g>
</g>
<!-- Node23 -->
<g id="Node000023" class="node">
<title>Node23</title>
<g id="a_Node000023"><a xlink:href="../../dc/d3c/bnode_8hpp.html" target="_top" xlink:title=" ">
<polygon fill="white" stroke="#666666" points="1043.5,-176 988.5,-176 988.5,-159 1043.5,-159 1043.5,-176"/>
<text text-anchor="middle" x="1016" y="-165.6" font-family="Helvetica,sans-Serif" font-size="8.00">bnode.hpp</text>
</a>
</g>
</g>
<!-- Node22&#45;&gt;Node23 -->
<g id="edge41_Node000022_Node000023" class="edge">
<title>Node22&#45;&gt;Node23</title>
<g id="a_edge41_Node000022_Node000023"><a xlink:title=" ">
<path fill="none" stroke="#63b8ff" d="M1063.74,-211.97C1055.38,-204.37 1042.26,-192.41 1031.88,-182.97"/>
<polygon fill="#63b8ff" stroke="#63b8ff" points="1034.05,-180.2 1024.3,-176.06 1029.33,-185.38 1034.05,-180.2"/>
</a>
</g>
</g>
<!-- Node24 -->
<g id="Node000024" class="node">
<title>Node24</title>
<g id="a_Node000024"><a xlink:href="../../d9/df8/heterogeneous__pool_8hpp.html" target="_top" xlink:title=" ">
<polygon fill="white" stroke="#666666" points="1261.5,-176 1104.5,-176 1104.5,-159 1261.5,-159 1261.5,-176"/>
<text text-anchor="middle" x="1183" y="-165.6" font-family="Helvetica,sans-Serif" font-size="8.00">../../types/pmr/heterogeneous_pool.hpp</text>
</a>
</g>
</g>
<!-- Node22&#45;&gt;Node24 -->
<g id="edge42_Node000022_Node000024" class="edge">
<title>Node22&#45;&gt;Node24</title>
<g id="a_edge42_Node000022_Node000024"><a xlink:title=" ">
<path fill="none" stroke="#63b8ff" d="M1088.38,-211.97C1106.58,-203.61 1136.2,-190 1157.45,-180.24"/>
<polygon fill="#63b8ff" stroke="#63b8ff" points="1158.93,-183.41 1166.55,-176.06 1156.01,-177.05 1158.93,-183.41"/>
</a>
</g>
</g>
<!-- Node24&#45;&gt;Node3 -->
<g id="edge44_Node000024_Node000003" class="edge">
<title>Node24&#45;&gt;Node3</title>
<g id="a_edge44_Node000024_Node000003"><a xlink:title=" ">
<path fill="none" stroke="#63b8ff" d="M1261.68,-162.49C1320.78,-156.59 1386.56,-142.01 1355,-106 1308.15,-52.53 790.95,-19.05 657.35,-11.26"/>
<polygon fill="#63b8ff" stroke="#63b8ff" points="657.19,-7.74 647.01,-10.66 656.79,-14.73 657.19,-7.74"/>
</a>
</g>
</g>
<!-- Node24&#45;&gt;Node4 -->
<g id="edge45_Node000024_Node000004" class="edge">
<title>Node24&#45;&gt;Node4</title>
<g id="a_edge45_Node000024_Node000004"><a xlink:title=" ">
<path fill="none" stroke="#63b8ff" d="M1228.34,-158.94C1277.22,-150.66 1357.28,-136.72 1426,-123 1427.44,-122.71 1428.92,-122.41 1430.41,-122.1"/>
<polygon fill="#63b8ff" stroke="#63b8ff" points="1431.2,-125.51 1440.25,-120 1429.74,-118.67 1431.2,-125.51"/>
</a>
</g>
</g>
<!-- Node24&#45;&gt;Node6 -->
<g id="edge49_Node000024_Node000006" class="edge">
<title>Node24&#45;&gt;Node6</title>
<g id="a_edge49_Node000024_Node000006"><a xlink:title=" ">
<path fill="none" stroke="#63b8ff" d="M1153.92,-158.99C1123.02,-150.96 1072.49,-137.71 1019.89,-123.2"/>
<polygon fill="#63b8ff" stroke="#63b8ff" points="1020.62,-119.77 1010.05,-120.47 1018.75,-126.52 1020.62,-119.77"/>
</a>
</g>
</g>
<!-- Node24&#45;&gt;Node7 -->
<g id="edge50_Node000024_Node000007" class="edge">
<title>Node24&#45;&gt;Node7</title>
<g id="a_edge50_Node000024_Node000007"><a xlink:title=" ">
<path fill="none" stroke="#63b8ff" d="M1113.35,-158.97C1008.47,-147.64 814.4,-126.67 740.56,-118.69"/>
<polygon fill="#63b8ff" stroke="#63b8ff" points="740.49,-115.17 730.17,-117.57 739.74,-122.13 740.49,-115.17"/>
</a>
</g>
</g>
<!-- Node24&#45;&gt;Node10 -->
<g id="edge43_Node000024_Node000010" class="edge">
<title>Node24&#45;&gt;Node10</title>
<g id="a_edge43_Node000024_Node000010"><a xlink:title=" ">
<path fill="none" stroke="#63b8ff" d="M1163.23,-158.97C1140.86,-150.46 1104.21,-136.51 1078.47,-126.72"/>
<polygon fill="#63b8ff" stroke="#63b8ff" points="1079.44,-123.34 1068.85,-123.06 1076.95,-129.88 1079.44,-123.34"/>
</a>
</g>
</g>
<!-- Node24&#45;&gt;Node11 -->
<g id="edge53_Node000024_Node000011" class="edge">
<title>Node24&#45;&gt;Node11</title>
<g id="a_edge53_Node000024_Node000011"><a xlink:title=" ">
<path fill="none" stroke="#63b8ff" d="M1104.29,-161.86C1087.37,-160.89 1069.59,-159.89 1053,-159 733.06,-141.77 652.59,-145.78 333,-123 321.12,-122.15 308.29,-121.05 296.41,-119.95"/>
<polygon fill="#63b8ff" stroke="#63b8ff" points="296.55,-116.45 286.26,-119 295.89,-123.42 296.55,-116.45"/>
</a>
</g>
</g>
<!-- Node24&#45;&gt;Node14 -->
<g id="edge46_Node000024_Node000014" class="edge">
<title>Node24&#45;&gt;Node14</title>
<g id="a_edge46_Node000024_Node000014"><a xlink:title=" ">
<path fill="none" stroke="#63b8ff" d="M1185.27,-158.92C1188.6,-146.05 1193.02,-119.97 1179,-106 1154.87,-81.96 636.04,-66.61 509.6,-63.21"/>
<polygon fill="#63b8ff" stroke="#63b8ff" points="509.34,-59.71 499.25,-62.94 509.15,-66.7 509.34,-59.71"/>
</a>
</g>
</g>
<!-- Node24&#45;&gt;Node16 -->
<g id="edge52_Node000024_Node000016" class="edge">
<title>Node24&#45;&gt;Node16</title>
<g id="a_edge52_Node000024_Node000016"><a xlink:title=" ">
<path fill="none" stroke="#63b8ff" d="M1192,-158.61C1205.1,-146.2 1226.37,-121.9 1212,-106 1187.32,-78.68 946.28,-67.62 837.63,-63.99"/>
<polygon fill="#63b8ff" stroke="#63b8ff" points="837.65,-60.49 827.54,-63.66 837.42,-67.49 837.65,-60.49"/>
</a>
</g>
</g>
<!-- Node24&#45;&gt;Node21 -->
<g id="edge51_Node000024_Node000021" class="edge">
<title>Node24&#45;&gt;Node21</title>
<g id="a_edge51_Node000024_Node000021"><a xlink:title=" ">
<path fill="none" stroke="#63b8ff" d="M1175.03,-158.97C1166.98,-151.37 1154.32,-139.41 1144.32,-129.97"/>
<polygon fill="#63b8ff" stroke="#63b8ff" points="1146.67,-127.38 1137,-123.06 1141.87,-132.47 1146.67,-127.38"/>
</a>
</g>
</g>
<!-- Node25 -->
<g id="Node000025" class="node">
<title>Node25</title>
<g id="a_Node000025"><a xlink:title=" ">
<polygon fill="#e0e0e0" stroke="#999999" points="1296,-123 1264,-123 1264,-106 1296,-106 1296,-123"/>
<text text-anchor="middle" x="1280" y="-112.6" font-family="Helvetica,sans-Serif" font-size="8.00">map</text>
</a>
</g>
</g>
<!-- Node24&#45;&gt;Node25 -->
<g id="edge47_Node000024_Node000025" class="edge">
<title>Node24&#45;&gt;Node25</title>
<g id="a_edge47_Node000024_Node000025"><a xlink:title=" ">
<path fill="none" stroke="#63b8ff" d="M1197.31,-158.97C1212.93,-150.76 1238.17,-137.49 1256.66,-127.77"/>
<polygon fill="#63b8ff" stroke="#63b8ff" points="1258.41,-130.81 1265.63,-123.06 1255.15,-124.61 1258.41,-130.81"/>
</a>
</g>
</g>
<!-- Node26 -->
<g id="Node000026" class="node">
<title>Node26</title>
<g id="a_Node000026"><a xlink:title=" ">
<polygon fill="#e0e0e0" stroke="#999999" points="1346,-123 1314,-123 1314,-106 1346,-106 1346,-123"/>
<text text-anchor="middle" x="1330" y="-112.6" font-family="Helvetica,sans-Serif" font-size="8.00">new</text>
</a>
</g>
</g>
<!-- Node24&#45;&gt;Node26 -->
<g id="edge48_Node000024_Node000026" class="edge">
<title>Node24&#45;&gt;Node26</title>
<g id="a_edge48_Node000024_Node000026"><a xlink:title=" ">
<path fill="none" stroke="#63b8ff" d="M1204.69,-158.97C1231.15,-149.79 1275.84,-134.29 1304.08,-124.49"/>
<polygon fill="#63b8ff" stroke="#63b8ff" points="1305.38,-127.75 1313.68,-121.16 1303.09,-121.13 1305.38,-127.75"/>
</a>
</g>
</g>
<!-- Node27&#45;&gt;Node3 -->
<g id="edge56_Node000027_Node000003" class="edge">
<title>Node27&#45;&gt;Node3</title>
<g id="a_edge56_Node000027_Node000003"><a xlink:title=" ">
<path fill="none" stroke="#63b8ff" d="M445.8,-166.85C335.65,-166.78 17.77,-157.75 114,-53 146.6,-17.51 488.93,-10.94 594.91,-9.75"/>
<polygon fill="#63b8ff" stroke="#63b8ff" points="595.01,-13.25 604.97,-9.65 594.93,-6.25 595.01,-13.25"/>
</a>
</g>
</g>
<!-- Node27&#45;&gt;Node5 -->
<g id="edge58_Node000027_Node000005" class="edge">
<title>Node27&#45;&gt;Node5</title>
<g id="a_edge58_Node000027_Node000005"><a xlink:title=" ">
<path fill="none" stroke="#63b8ff" d="M446,-166.29C378.96,-165.06 239.06,-158.23 209,-123 177.16,-85.69 262.83,-70.85 315.05,-65.39"/>
<polygon fill="#63b8ff" stroke="#63b8ff" points="315.7,-68.84 325.31,-64.39 315.02,-61.88 315.7,-68.84"/>
</a>
</g>
</g>
<!-- Node27&#45;&gt;Node7 -->
<g id="edge59_Node000027_Node000007" class="edge">
<title>Node27&#45;&gt;Node7</title>
<g id="a_edge59_Node000027_Node000007"><a xlink:title=" ">
<path fill="none" stroke="#63b8ff" d="M515.79,-158.97C560.75,-148.96 639.49,-131.43 681.93,-121.97"/>
<polygon fill="#63b8ff" stroke="#63b8ff" points="682.89,-125.35 691.89,-119.76 681.37,-118.51 682.89,-125.35"/>
</a>
</g>
</g>
<!-- Node27&#45;&gt;Node11 -->
<g id="edge60_Node000027_Node000011" class="edge">
<title>Node27&#45;&gt;Node11</title>
<g id="a_edge60_Node000027_Node000011"><a xlink:title=" ">
<path fill="none" stroke="#63b8ff" d="M448.06,-158.97C407.72,-150.03 340.3,-135.08 295.99,-125.25"/>
<polygon fill="#63b8ff" stroke="#63b8ff" points="296.6,-121.8 286.08,-123.06 295.08,-128.64 296.6,-121.8"/>
</a>
</g>
</g>
<!-- Node27&#45;&gt;Node14 -->
<g id="edge57_Node000027_Node000014" class="edge">
<title>Node27&#45;&gt;Node14</title>
<g id="a_edge57_Node000027_Node000014"><a xlink:title=" ">
<path fill="none" stroke="#63b8ff" d="M482,-158.68C482,-142.11 482,-103.11 482,-80.18"/>
<polygon fill="#63b8ff" stroke="#63b8ff" points="485.5,-80.12 482,-70.12 478.5,-80.13 485.5,-80.12"/>
</a>
</g>
</g>
<!-- Node27&#45;&gt;Node16 -->
<g id="edge61_Node000027_Node000016" class="edge">
<title>Node27&#45;&gt;Node16</title>
<g id="a_edge61_Node000027_Node000016"><a xlink:title=" ">
<path fill="none" stroke="#63b8ff" d="M486.88,-158.69C495.58,-145.48 515.13,-118.89 539,-106 599.82,-73.16 680.26,-64.35 732.31,-62.38"/>
<polygon fill="#63b8ff" stroke="#63b8ff" points="732.44,-65.88 742.33,-62.07 732.23,-58.88 732.44,-65.88"/>
</a>
</g>
</g>
</g>
</svg>
