<?xml version="1.0" encoding="UTF-8" standalone="no"?>
<!DOCTYPE svg PUBLIC "-//W3C//DTD SVG 1.1//EN"
 "http://www.w3.org/Graphics/SVG/1.1/DTD/svg11.dtd">
<!-- Generated by graphviz version 2.43.0 (0)
 -->
<!-- Title: gjps.hpp Pages: 1 -->
<svg width="1462pt" height="290pt"
 viewBox="0.00 0.00 1462.15 290.00" xmlns="http://www.w3.org/2000/svg" xmlns:xlink="http://www.w3.org/1999/xlink">
<g id="graph0" class="graph" transform="scale(1 1) rotate(0) translate(4 286)">
<title>gjps.hpp</title>
<!-- Node1 -->
<g id="Node000001" class="node">
<title>Node1</title>
<g id="a_Node000001"><a xlink:title=" ">
<polygon fill="#999999" stroke="#666666" points="671.5,-282 624.5,-282 624.5,-265 671.5,-265 671.5,-282"/>
<text text-anchor="middle" x="648" y="-271.6" font-family="Helvetica,sans-Serif" font-size="8.00">gjps.hpp</text>
</a>
</g>
</g>
<!-- Node2 -->
<g id="Node000002" class="node">
<title>Node2</title>
<g id="a_Node000002"><a xlink:title=" ">
<polygon fill="#e0e0e0" stroke="#999999" points="123.5,-70 88.5,-70 88.5,-53 123.5,-53 123.5,-70"/>
<text text-anchor="middle" x="106" y="-59.6" font-family="Helvetica,sans-Serif" font-size="8.00">array</text>
</a>
</g>
</g>
<!-- Node1&#45;&gt;Node2 -->
<g id="edge1_Node000001_Node000002" class="edge">
<title>Node1&#45;&gt;Node2</title>
<g id="a_edge1_Node000001_Node000002"><a xlink:title=" ">
<path fill="none" stroke="#63b8ff" d="M624.17,-272.89C554.92,-272.89 350.1,-264.92 215,-176 173.31,-148.56 135.62,-102.5 117.45,-78.35"/>
<polygon fill="#63b8ff" stroke="#63b8ff" points="120.23,-76.22 111.47,-70.26 114.59,-80.38 120.23,-76.22"/>
</a>
</g>
</g>
<!-- Node3 -->
<g id="Node000003" class="node">
<title>Node3</title>
<g id="a_Node000003"><a xlink:title=" ">
<polygon fill="#e0e0e0" stroke="#999999" points="660,-17 618,-17 618,0 660,0 660,-17"/>
<text text-anchor="middle" x="639" y="-6.6" font-family="Helvetica,sans-Serif" font-size="8.00">cstddef</text>
</a>
</g>
</g>
<!-- Node1&#45;&gt;Node3 -->
<g id="edge2_Node000001_Node000003" class="edge">
<title>Node1&#45;&gt;Node3</title>
<g id="a_edge2_Node000001_Node000003"><a xlink:title=" ">
<path fill="none" stroke="#63b8ff" d="M624.17,-271.25C507.26,-264.78 0,-233.02 0,-168.5 0,-168.5 0,-168.5 0,-113.5 0,-69.28 37.7,-68.81 79,-53 176.86,-15.55 505.03,-10.32 607.89,-9.61"/>
<polygon fill="#63b8ff" stroke="#63b8ff" points="607.97,-13.11 617.95,-9.55 607.93,-6.11 607.97,-13.11"/>
</a>
</g>
</g>
<!-- Node4 -->
<g id="Node000004" class="node">
<title>Node4</title>
<g id="a_Node000004"><a xlink:title=" ">
<polygon fill="#e0e0e0" stroke="#999999" points="1441.5,-123 1402.5,-123 1402.5,-106 1441.5,-106 1441.5,-123"/>
<text text-anchor="middle" x="1422" y="-112.6" font-family="Helvetica,sans-Serif" font-size="8.00">cstdint</text>
</a>
</g>
</g>
<!-- Node1&#45;&gt;Node4 -->
<g id="edge3_Node000001_Node000004" class="edge">
<title>Node1&#45;&gt;Node4</title>
<g id="a_edge3_Node000001_Node000004"><a xlink:title=" ">
<path fill="none" stroke="#63b8ff" d="M671.73,-271.98C771.62,-269.62 1158.25,-258.72 1276,-229 1331.35,-215.03 1352.2,-215.93 1393,-176 1405.1,-164.16 1412.8,-146.27 1417.21,-133.01"/>
<polygon fill="#63b8ff" stroke="#63b8ff" points="1420.63,-133.78 1420.15,-123.2 1413.93,-131.77 1420.63,-133.78"/>
</a>
</g>
</g>
<!-- Node5 -->
<g id="Node000005" class="node">
<title>Node5</title>
<g id="a_Node000005"><a xlink:title=" ">
<polygon fill="#e0e0e0" stroke="#999999" points="491.5,-70 438.5,-70 438.5,-53 491.5,-53 491.5,-70"/>
<text text-anchor="middle" x="465" y="-59.6" font-family="Helvetica,sans-Serif" font-size="8.00">type_traits</text>
</a>
</g>
</g>
<!-- Node1&#45;&gt;Node5 -->
<g id="edge4_Node000001_Node000005" class="edge">
<title>Node1&#45;&gt;Node5</title>
<g id="a_edge4_Node000001_Node000005"><a xlink:title=" ">
<path fill="none" stroke="#63b8ff" d="M624.43,-268.89C535.95,-254.83 225.91,-200.56 171,-123 166.63,-116.83 166.06,-111.72 171,-106 203.78,-68.01 356.48,-62.64 427.94,-62.25"/>
<polygon fill="#63b8ff" stroke="#63b8ff" points="428.29,-65.75 438.28,-62.22 428.27,-58.75 428.29,-65.75"/>
</a>
</g>
</g>
<!-- Node6 -->
<g id="Node000006" class="node">
<title>Node6</title>
<g id="a_Node000006"><a xlink:title=" ">
<polygon fill="#e0e0e0" stroke="#999999" points="282,-123 248,-123 248,-106 282,-106 282,-123"/>
<text text-anchor="middle" x="265" y="-112.6" font-family="Helvetica,sans-Serif" font-size="8.00">utility</text>
</a>
</g>
</g>
<!-- Node1&#45;&gt;Node6 -->
<g id="edge5_Node000001_Node000006" class="edge">
<title>Node1&#45;&gt;Node6</title>
<g id="a_edge5_Node000001_Node000006"><a xlink:title=" ">
<path fill="none" stroke="#63b8ff" d="M624.27,-265.01C577.53,-250 470.55,-214.37 384,-176 349.74,-160.81 311.27,-140.67 287.59,-127.89"/>
<polygon fill="#63b8ff" stroke="#63b8ff" points="289.15,-124.76 278.69,-123.06 285.81,-130.91 289.15,-124.76"/>
</a>
</g>
</g>
<!-- Node7 -->
<g id="Node000007" class="node">
<title>Node7</title>
<g id="a_Node000007"><a xlink:title=" ">
<polygon fill="#e0e0e0" stroke="#999999" points="820,-123 782,-123 782,-106 820,-106 820,-123"/>
<text text-anchor="middle" x="801" y="-112.6" font-family="Helvetica,sans-Serif" font-size="8.00">vector</text>
</a>
</g>
</g>
<!-- Node1&#45;&gt;Node7 -->
<g id="edge6_Node000001_Node000007" class="edge">
<title>Node1&#45;&gt;Node7</title>
<g id="a_edge6_Node000001_Node000007"><a xlink:title=" ">
<path fill="none" stroke="#63b8ff" d="M655.38,-264.93C679.15,-240.53 754.05,-163.68 786.15,-130.74"/>
<polygon fill="#63b8ff" stroke="#63b8ff" points="788.86,-132.97 793.33,-123.37 783.85,-128.09 788.86,-132.97"/>
</a>
</g>
</g>
<!-- Node8 -->
<g id="Node000008" class="node">
<title>Node8</title>
<g id="a_Node000008"><a xlink:href="../../dc/d8a/grid_8hpp.html" target="_top" xlink:title=" ">
<polygon fill="white" stroke="#666666" points="471,-176 393,-176 393,-159 471,-159 471,-176"/>
<text text-anchor="middle" x="432" y="-165.6" font-family="Helvetica,sans-Serif" font-size="8.00">../mazes/grid.hpp</text>
</a>
</g>
</g>
<!-- Node1&#45;&gt;Node8 -->
<g id="edge7_Node000001_Node000008" class="edge">
<title>Node1&#45;&gt;Node8</title>
<g id="a_edge7_Node000001_Node000008"><a xlink:title=" ">
<path fill="none" stroke="#63b8ff" d="M632.12,-264.85C594.81,-246.89 501.38,-201.91 456.64,-180.36"/>
<polygon fill="#63b8ff" stroke="#63b8ff" points="458.14,-177.2 447.61,-176.02 455.11,-183.51 458.14,-177.2"/>
</a>
</g>
</g>
<!-- Node11 -->
<g id="Node000011" class="node">
<title>Node11</title>
<g id="a_Node000011"><a xlink:href="../../df/d93/utils_8hpp.html" target="_top" xlink:title=" ">
<polygon fill="white" stroke="#666666" points="650,-123 582,-123 582,-106 650,-106 650,-123"/>
<text text-anchor="middle" x="616" y="-112.6" font-family="Helvetica,sans-Serif" font-size="8.00">../utils/utils.hpp</text>
</a>
</g>
</g>
<!-- Node1&#45;&gt;Node11 -->
<g id="edge38_Node000001_Node000011" class="edge">
<title>Node1&#45;&gt;Node11</title>
<g id="a_edge38_Node000001_Node000011"><a xlink:title=" ">
<path fill="none" stroke="#63b8ff" d="M646.46,-264.93C641.61,-241.15 626.61,-167.56 619.63,-133.33"/>
<polygon fill="#63b8ff" stroke="#63b8ff" points="623.03,-132.47 617.6,-123.37 616.17,-133.86 623.03,-132.47"/>
</a>
</g>
</g>
<!-- Node16 -->
<g id="Node000016" class="node">
<title>Node16</title>
<g id="a_Node000016"><a xlink:href="../../d7/d65/intrinsics_8hpp.html" target="_top" xlink:title=" ">
<polygon fill="#fff0f0" stroke="red" points="908.5,-70 823.5,-70 823.5,-53 908.5,-53 908.5,-70"/>
<text text-anchor="middle" x="866" y="-59.6" font-family="Helvetica,sans-Serif" font-size="8.00">../utils/intrinsics.hpp</text>
</a>
</g>
</g>
<!-- Node1&#45;&gt;Node16 -->
<g id="edge63_Node000001_Node000016" class="edge">
<title>Node1&#45;&gt;Node16</title>
<g id="a_edge63_Node000001_Node000016"><a xlink:title=" ">
<path fill="none" stroke="#63b8ff" d="M671.73,-272.41C776.23,-271.77 1195.76,-266.87 1321,-229 1392.36,-207.43 1428.19,-193.97 1451,-123 1453.31,-115.81 1456.14,-111.54 1451,-106 1415.21,-67.45 1056.12,-62.79 918.91,-62.43"/>
<polygon fill="#63b8ff" stroke="#63b8ff" points="918.66,-58.93 908.65,-62.41 918.64,-65.93 918.66,-58.93"/>
</a>
</g>
</g>
<!-- Node20 -->
<g id="Node000020" class="node">
<title>Node20</title>
<g id="a_Node000020"><a xlink:href="../../d8/d62/existence__set_8hpp.html" target="_top" xlink:title=" ">
<polygon fill="white" stroke="#666666" points="921.5,-176 774.5,-176 774.5,-159 921.5,-159 921.5,-176"/>
<text text-anchor="middle" x="848" y="-165.6" font-family="Helvetica,sans-Serif" font-size="8.00">../types/containers/existence_set.hpp</text>
</a>
</g>
</g>
<!-- Node1&#45;&gt;Node20 -->
<g id="edge29_Node000001_Node000020" class="edge">
<title>Node1&#45;&gt;Node20</title>
<g id="a_edge29_Node000001_Node000020"><a xlink:title=" ">
<path fill="none" stroke="#63b8ff" d="M671.63,-264.96C694.57,-257.25 730.07,-244.25 759,-229 785.04,-215.27 812.73,-195.53 830.18,-182.37"/>
<polygon fill="#63b8ff" stroke="#63b8ff" points="832.49,-185.01 838.31,-176.16 828.24,-179.45 832.49,-185.01"/>
</a>
</g>
</g>
<!-- Node22 -->
<g id="Node000022" class="node">
<title>Node22</title>
<g id="a_Node000022"><a xlink:href="../../da/deb/managed__node_8hpp.html" target="_top" xlink:title=" ">
<polygon fill="white" stroke="#666666" points="1267,-229 1159,-229 1159,-212 1267,-212 1267,-229"/>
<text text-anchor="middle" x="1213" y="-218.6" font-family="Helvetica,sans-Serif" font-size="8.00">base/managed_node.hpp</text>
</a>
</g>
</g>
<!-- Node1&#45;&gt;Node22 -->
<g id="edge39_Node000001_Node000022" class="edge">
<title>Node1&#45;&gt;Node22</title>
<g id="a_edge39_Node000001_Node000022"><a xlink:title=" ">
<path fill="none" stroke="#63b8ff" d="M671.56,-270.37C752.81,-263.04 1023.22,-238.63 1148.4,-227.33"/>
<polygon fill="#63b8ff" stroke="#63b8ff" points="1148.96,-230.8 1158.6,-226.41 1148.33,-223.82 1148.96,-230.8"/>
</a>
</g>
</g>
<!-- Node27 -->
<g id="Node000027" class="node">
<title>Node27</title>
<g id="a_Node000027"><a xlink:href="../../d2/d1c/solver_8hpp.html" target="_top" xlink:title=" ">
<polygon fill="white" stroke="#666666" points="716,-176 644,-176 644,-159 716,-159 716,-176"/>
<text text-anchor="middle" x="680" y="-165.6" font-family="Helvetica,sans-Serif" font-size="8.00">base/solver.hpp</text>
</a>
</g>
</g>
<!-- Node1&#45;&gt;Node27 -->
<g id="edge56_Node000001_Node000027" class="edge">
<title>Node1&#45;&gt;Node27</title>
<g id="a_edge56_Node000001_Node000027"><a xlink:title=" ">
<path fill="none" stroke="#63b8ff" d="M650.41,-264.68C655.53,-248.04 667.61,-208.75 674.66,-185.87"/>
<polygon fill="#63b8ff" stroke="#63b8ff" points="678.06,-186.71 677.65,-176.12 671.37,-184.65 678.06,-186.71"/>
</a>
</g>
</g>
<!-- Node8&#45;&gt;Node2 -->
<g id="edge9_Node000008_Node000002" class="edge">
<title>Node8&#45;&gt;Node2</title>
<g id="a_edge9_Node000008_Node000002"><a xlink:title=" ">
<path fill="none" stroke="#63b8ff" d="M392.82,-165.03C322.46,-161.69 178.28,-151.49 138,-123 123.61,-112.82 115.15,-94.12 110.58,-80.2"/>
<polygon fill="#63b8ff" stroke="#63b8ff" points="113.86,-78.94 107.71,-70.31 107.14,-80.89 113.86,-78.94"/>
</a>
</g>
</g>
<!-- Node8&#45;&gt;Node3 -->
<g id="edge11_Node000008_Node000003" class="edge">
<title>Node8&#45;&gt;Node3</title>
<g id="a_edge11_Node000008_Node000003"><a xlink:title=" ">
<path fill="none" stroke="#63b8ff" d="M392.97,-165.91C327.27,-164.01 198.99,-156.04 171,-123 166.12,-117.23 166.42,-112.01 171,-106 224.5,-35.92 511.8,-15.69 607.77,-10.84"/>
<polygon fill="#63b8ff" stroke="#63b8ff" points="608.16,-14.32 617.98,-10.35 607.83,-7.33 608.16,-14.32"/>
</a>
</g>
</g>
<!-- Node8&#45;&gt;Node5 -->
<g id="edge12_Node000008_Node000005" class="edge">
<title>Node8&#45;&gt;Node5</title>
<g id="a_edge12_Node000008_Node000005"><a xlink:title=" ">
<path fill="none" stroke="#63b8ff" d="M412.18,-158.96C388.07,-148.58 352.29,-128.62 367,-106 380.49,-85.25 406.4,-74.32 428.19,-68.61"/>
<polygon fill="#63b8ff" stroke="#63b8ff" points="429.23,-71.96 438.17,-66.27 427.63,-65.14 429.23,-71.96"/>
</a>
</g>
</g>
<!-- Node8&#45;&gt;Node6 -->
<g id="edge13_Node000008_Node000006" class="edge">
<title>Node8&#45;&gt;Node6</title>
<g id="a_edge13_Node000008_Node000006"><a xlink:title=" ">
<path fill="none" stroke="#63b8ff" d="M407.36,-158.97C376.55,-149.56 323.98,-133.51 292.07,-123.77"/>
<polygon fill="#63b8ff" stroke="#63b8ff" points="292.69,-120.3 282.1,-120.72 290.64,-126.99 292.69,-120.3"/>
</a>
</g>
</g>
<!-- Node8&#45;&gt;Node7 -->
<g id="edge14_Node000008_Node000007" class="edge">
<title>Node8&#45;&gt;Node7</title>
<g id="a_edge14_Node000008_Node000007"><a xlink:title=" ">
<path fill="none" stroke="#63b8ff" d="M471.14,-161.09C545.46,-150.82 705.48,-128.7 771.55,-119.57"/>
<polygon fill="#63b8ff" stroke="#63b8ff" points="772.25,-123.01 781.68,-118.17 771.29,-116.07 772.25,-123.01"/>
</a>
</g>
</g>
<!-- Node9 -->
<g id="Node000009" class="node">
<title>Node9</title>
<g id="a_Node000009"><a xlink:title=" ">
<polygon fill="#e0e0e0" stroke="#999999" points="230,-123 180,-123 180,-106 230,-106 230,-123"/>
<text text-anchor="middle" x="205" y="-112.6" font-family="Helvetica,sans-Serif" font-size="8.00">algorithm</text>
</a>
</g>
</g>
<!-- Node8&#45;&gt;Node9 -->
<g id="edge8_Node000008_Node000009" class="edge">
<title>Node8&#45;&gt;Node9</title>
<g id="a_edge8_Node000008_Node000009"><a xlink:title=" ">
<path fill="none" stroke="#63b8ff" d="M398.51,-158.97C356.03,-149.43 283.15,-133.06 239.98,-123.36"/>
<polygon fill="#63b8ff" stroke="#63b8ff" points="240.73,-119.94 230.2,-121.16 239.19,-126.77 240.73,-119.94"/>
</a>
</g>
</g>
<!-- Node10 -->
<g id="Node000010" class="node">
<title>Node10</title>
<g id="a_Node000010"><a xlink:title=" ">
<polygon fill="#e0e0e0" stroke="#999999" points="994,-123 952,-123 952,-106 994,-106 994,-123"/>
<text text-anchor="middle" x="973" y="-112.6" font-family="Helvetica,sans-Serif" font-size="8.00">cassert</text>
</a>
</g>
</g>
<!-- Node8&#45;&gt;Node10 -->
<g id="edge10_Node000008_Node000010" class="edge">
<title>Node8&#45;&gt;Node10</title>
<g id="a_edge10_Node000008_Node000010"><a xlink:title=" ">
<path fill="none" stroke="#63b8ff" d="M471.34,-162.79C574.02,-153.11 848.58,-127.23 941.64,-118.46"/>
<polygon fill="#63b8ff" stroke="#63b8ff" points="942.2,-121.92 951.82,-117.5 941.54,-114.95 942.2,-121.92"/>
</a>
</g>
</g>
<!-- Node8&#45;&gt;Node11 -->
<g id="edge15_Node000008_Node000011" class="edge">
<title>Node8&#45;&gt;Node11</title>
<g id="a_edge15_Node000008_Node000011"><a xlink:title=" ">
<path fill="none" stroke="#63b8ff" d="M459.15,-158.97C490.81,-150.2 543.33,-135.64 578.78,-125.82"/>
<polygon fill="#63b8ff" stroke="#63b8ff" points="580.04,-129.1 588.74,-123.06 578.17,-122.35 580.04,-129.1"/>
</a>
</g>
</g>
<!-- Node8&#45;&gt;Node16 -->
<g id="edge28_Node000008_Node000016" class="edge">
<title>Node8&#45;&gt;Node16</title>
<g id="a_edge28_Node000008_Node000016"><a xlink:title=" ">
<path fill="none" stroke="#63b8ff" d="M471.2,-160.15C516.65,-152.53 593.66,-138.77 659,-123 721.24,-107.98 792.7,-86.03 833.28,-73.11"/>
<polygon fill="#63b8ff" stroke="#63b8ff" points="834.45,-76.41 842.91,-70.03 832.32,-69.74 834.45,-76.41"/>
</a>
</g>
</g>
<!-- Node19 -->
<g id="Node000019" class="node">
<title>Node19</title>
<g id="a_Node000019"><a xlink:href="../../d1/d2d/weighted__node_8hpp.html" target="_top" xlink:title=" ">
<polygon fill="white" stroke="#666666" points="487.5,-123 376.5,-123 376.5,-106 487.5,-106 487.5,-123"/>
<text text-anchor="middle" x="432" y="-112.6" font-family="Helvetica,sans-Serif" font-size="8.00">nodes/weighted_node.hpp</text>
</a>
</g>
</g>
<!-- Node8&#45;&gt;Node19 -->
<g id="edge25_Node000008_Node000019" class="edge">
<title>Node8&#45;&gt;Node19</title>
<g id="a_edge25_Node000008_Node000019"><a xlink:title=" ">
<path fill="none" stroke="#63b8ff" d="M432,-158.97C432,-152.19 432,-141.97 432,-133.13"/>
<polygon fill="#63b8ff" stroke="#63b8ff" points="435.5,-133.06 432,-123.06 428.5,-133.06 435.5,-133.06"/>
</a>
</g>
</g>
<!-- Node11&#45;&gt;Node2 -->
<g id="edge16_Node000011_Node000002" class="edge">
<title>Node11&#45;&gt;Node2</title>
<g id="a_edge16_Node000011_Node000002"><a xlink:title=" ">
<path fill="none" stroke="#63b8ff" d="M581.75,-110.07C486.65,-100.57 220.7,-73.97 133.83,-65.28"/>
<polygon fill="#63b8ff" stroke="#63b8ff" points="134,-61.78 123.7,-64.27 133.3,-68.75 134,-61.78"/>
</a>
</g>
</g>
<!-- Node11&#45;&gt;Node3 -->
<g id="edge18_Node000011_Node000003" class="edge">
<title>Node11&#45;&gt;Node3</title>
<g id="a_edge18_Node000011_Node000003"><a xlink:title=" ">
<path fill="none" stroke="#63b8ff" d="M617.73,-105.68C621.39,-89.11 630.02,-50.11 635.09,-27.18"/>
<polygon fill="#63b8ff" stroke="#63b8ff" points="638.57,-27.64 637.31,-17.12 631.74,-26.13 638.57,-27.64"/>
</a>
</g>
</g>
<!-- Node11&#45;&gt;Node5 -->
<g id="edge22_Node000011_Node000005" class="edge">
<title>Node11&#45;&gt;Node5</title>
<g id="a_edge22_Node000011_Node000005"><a xlink:title=" ">
<path fill="none" stroke="#63b8ff" d="M593.72,-105.97C568.18,-97.35 526.11,-83.14 497.06,-73.33"/>
<polygon fill="#63b8ff" stroke="#63b8ff" points="497.97,-69.94 487.37,-70.06 495.73,-76.57 497.97,-69.94"/>
</a>
</g>
</g>
<!-- Node12 -->
<g id="Node000012" class="node">
<title>Node12</title>
<g id="a_Node000012"><a xlink:title=" ">
<polygon fill="#e0e0e0" stroke="#999999" points="557,-70 519,-70 519,-53 557,-53 557,-70"/>
<text text-anchor="middle" x="538" y="-59.6" font-family="Helvetica,sans-Serif" font-size="8.00">cmath</text>
</a>
</g>
</g>
<!-- Node11&#45;&gt;Node12 -->
<g id="edge17_Node000011_Node000012" class="edge">
<title>Node11&#45;&gt;Node12</title>
<g id="a_edge17_Node000011_Node000012"><a xlink:title=" ">
<path fill="none" stroke="#63b8ff" d="M604.49,-105.97C592.28,-97.99 572.75,-85.22 558.01,-75.58"/>
<polygon fill="#63b8ff" stroke="#63b8ff" points="559.84,-72.6 549.56,-70.06 556.01,-78.46 559.84,-72.6"/>
</a>
</g>
</g>
<!-- Node13 -->
<g id="Node000013" class="node">
<title>Node13</title>
<g id="a_Node000013"><a xlink:title=" ">
<polygon fill="#e0e0e0" stroke="#999999" points="717,-70 667,-70 667,-53 717,-53 717,-70"/>
<text text-anchor="middle" x="692" y="-59.6" font-family="Helvetica,sans-Serif" font-size="8.00">functional</text>
</a>
</g>
</g>
<!-- Node11&#45;&gt;Node13 -->
<g id="edge19_Node000011_Node000013" class="edge">
<title>Node11&#45;&gt;Node13</title>
<g id="a_edge19_Node000011_Node000013"><a xlink:title=" ">
<path fill="none" stroke="#63b8ff" d="M627.21,-105.97C639,-98.07 657.78,-85.46 672.1,-75.86"/>
<polygon fill="#63b8ff" stroke="#63b8ff" points="674.39,-78.53 680.74,-70.06 670.49,-72.72 674.39,-78.53"/>
</a>
</g>
</g>
<!-- Node14 -->
<g id="Node000014" class="node">
<title>Node14</title>
<g id="a_Node000014"><a xlink:title=" ">
<polygon fill="#e0e0e0" stroke="#999999" points="769,-70 735,-70 735,-53 769,-53 769,-70"/>
<text text-anchor="middle" x="752" y="-59.6" font-family="Helvetica,sans-Serif" font-size="8.00">limits</text>
</a>
</g>
</g>
<!-- Node11&#45;&gt;Node14 -->
<g id="edge20_Node000011_Node000014" class="edge">
<title>Node11&#45;&gt;Node14</title>
<g id="a_edge20_Node000011_Node000014"><a xlink:title=" ">
<path fill="none" stroke="#63b8ff" d="M636.07,-105.97C659.68,-97.12 698.98,-82.38 725.19,-72.55"/>
<polygon fill="#63b8ff" stroke="#63b8ff" points="726.73,-75.71 734.87,-68.93 724.27,-69.16 726.73,-75.71"/>
</a>
</g>
</g>
<!-- Node15 -->
<g id="Node000015" class="node">
<title>Node15</title>
<g id="a_Node000015"><a xlink:title=" ">
<polygon fill="#e0e0e0" stroke="#999999" points="611,-70 575,-70 575,-53 611,-53 611,-70"/>
<text text-anchor="middle" x="593" y="-59.6" font-family="Helvetica,sans-Serif" font-size="8.00">string</text>
</a>
</g>
</g>
<!-- Node11&#45;&gt;Node15 -->
<g id="edge21_Node000011_Node000015" class="edge">
<title>Node11&#45;&gt;Node15</title>
<g id="a_edge21_Node000011_Node000015"><a xlink:title=" ">
<path fill="none" stroke="#63b8ff" d="M612.61,-105.97C609.45,-98.97 604.63,-88.28 600.56,-79.25"/>
<polygon fill="#63b8ff" stroke="#63b8ff" points="603.71,-77.73 596.41,-70.06 597.33,-80.61 603.71,-77.73"/>
</a>
</g>
</g>
<!-- Node11&#45;&gt;Node16 -->
<g id="edge23_Node000011_Node000016" class="edge">
<title>Node11&#45;&gt;Node16</title>
<g id="a_edge23_Node000011_Node000016"><a xlink:title=" ">
<path fill="none" stroke="#63b8ff" d="M650.24,-106.52C693.93,-97.6 769.74,-82.14 818.87,-72.12"/>
<polygon fill="#63b8ff" stroke="#63b8ff" points="819.83,-75.49 828.92,-70.06 818.43,-68.63 819.83,-75.49"/>
</a>
</g>
</g>
<!-- Node16&#45;&gt;Node3 -->
<g id="edge24_Node000016_Node000003" class="edge">
<title>Node16&#45;&gt;Node3</title>
<g id="a_edge24_Node000016_Node000003"><a xlink:title=" ">
<path fill="none" stroke="#63b8ff" d="M832.51,-52.97C788.64,-43.12 712.34,-25.98 669.83,-16.43"/>
<polygon fill="#63b8ff" stroke="#63b8ff" points="670.57,-13.01 660.05,-14.23 669.04,-19.84 670.57,-13.01"/>
</a>
</g>
</g>
<!-- Node19&#45;&gt;Node5 -->
<g id="edge27_Node000019_Node000005" class="edge">
<title>Node19&#45;&gt;Node5</title>
<g id="a_edge27_Node000019_Node000005"><a xlink:title=" ">
<path fill="none" stroke="#63b8ff" d="M436.87,-105.97C441.5,-98.82 448.62,-87.82 454.53,-78.67"/>
<polygon fill="#63b8ff" stroke="#63b8ff" points="457.62,-80.35 460.11,-70.06 451.74,-76.55 457.62,-80.35"/>
</a>
</g>
</g>
<!-- Node19&#45;&gt;Node14 -->
<g id="edge26_Node000019_Node000014" class="edge">
<title>Node19&#45;&gt;Node14</title>
<g id="a_edge26_Node000019_Node000014"><a xlink:title=" ">
<path fill="none" stroke="#63b8ff" d="M487.67,-107.52C544.95,-100.85 636.87,-88.76 724.86,-69.97"/>
<polygon fill="#63b8ff" stroke="#63b8ff" points="725.71,-73.37 734.74,-67.83 724.23,-66.53 725.71,-73.37"/>
</a>
</g>
</g>
<!-- Node20&#45;&gt;Node3 -->
<g id="edge30_Node000020_Node000003" class="edge">
<title>Node20&#45;&gt;Node3</title>
<g id="a_edge30_Node000020_Node000003"><a xlink:title=" ">
<path fill="none" stroke="#63b8ff" d="M921.75,-164.16C988.64,-160.3 1080.16,-150.07 1103,-123 1107.87,-117.23 1107.55,-112.03 1103,-106 1050.43,-36.25 765.9,-15.82 670.33,-10.88"/>
<polygon fill="#63b8ff" stroke="#63b8ff" points="670.3,-7.37 660.14,-10.37 669.96,-14.36 670.3,-7.37"/>
</a>
</g>
</g>
<!-- Node20&#45;&gt;Node5 -->
<g id="edge34_Node000020_Node000005" class="edge">
<title>Node20&#45;&gt;Node5</title>
<g id="a_edge34_Node000020_Node000005"><a xlink:title=" ">
<path fill="none" stroke="#63b8ff" d="M774.5,-161.95C718.1,-156.79 638.99,-145.88 573,-123 564.02,-119.88 515.83,-92.16 486.94,-75.34"/>
<polygon fill="#63b8ff" stroke="#63b8ff" points="488.37,-72.12 477.97,-70.11 484.85,-78.17 488.37,-72.12"/>
</a>
</g>
</g>
<!-- Node20&#45;&gt;Node7 -->
<g id="edge35_Node000020_Node000007" class="edge">
<title>Node20&#45;&gt;Node7</title>
<g id="a_edge35_Node000020_Node000007"><a xlink:title=" ">
<path fill="none" stroke="#63b8ff" d="M841.06,-158.97C834.19,-151.52 823.47,-139.89 814.85,-130.53"/>
<polygon fill="#63b8ff" stroke="#63b8ff" points="817.31,-128.04 807.96,-123.06 812.17,-132.78 817.31,-128.04"/>
</a>
</g>
</g>
<!-- Node20&#45;&gt;Node11 -->
<g id="edge36_Node000020_Node000011" class="edge">
<title>Node20&#45;&gt;Node11</title>
<g id="a_edge36_Node000020_Node000011"><a xlink:title=" ">
<path fill="none" stroke="#63b8ff" d="M813.77,-158.97C773.07,-150.03 705.06,-135.08 660.37,-125.25"/>
<polygon fill="#63b8ff" stroke="#63b8ff" points="660.89,-121.78 650.37,-123.06 659.39,-128.62 660.89,-121.78"/>
</a>
</g>
</g>
<!-- Node20&#45;&gt;Node13 -->
<g id="edge31_Node000020_Node000013" class="edge">
<title>Node20&#45;&gt;Node13</title>
<g id="a_edge31_Node000020_Node000013"><a xlink:title=" ">
<path fill="none" stroke="#63b8ff" d="M847.76,-158.66C846.94,-145.87 843.46,-120.5 829,-106 821.6,-98.58 764.92,-82.17 726.82,-71.76"/>
<polygon fill="#63b8ff" stroke="#63b8ff" points="727.67,-68.36 717.1,-69.12 725.84,-75.12 727.67,-68.36"/>
</a>
</g>
</g>
<!-- Node20&#45;&gt;Node14 -->
<g id="edge32_Node000020_Node000014" class="edge">
<title>Node20&#45;&gt;Node14</title>
<g id="a_edge32_Node000020_Node000014"><a xlink:title=" ">
<path fill="none" stroke="#63b8ff" d="M853.35,-158.73C861.04,-146.48 873.15,-122.4 862,-106 843.63,-78.98 805.61,-68.75 779.46,-64.87"/>
<polygon fill="#63b8ff" stroke="#63b8ff" points="779.77,-61.38 769.41,-63.6 778.89,-68.32 779.77,-61.38"/>
</a>
</g>
</g>
<!-- Node20&#45;&gt;Node16 -->
<g id="edge37_Node000020_Node000016" class="edge">
<title>Node20&#45;&gt;Node16</title>
<g id="a_edge37_Node000020_Node000016"><a xlink:title=" ">
<path fill="none" stroke="#63b8ff" d="M863.02,-158.82C875.51,-151.5 892.43,-139.21 900,-123 907.53,-106.88 895.06,-89.23 883.16,-77.18"/>
<polygon fill="#63b8ff" stroke="#63b8ff" points="885.33,-74.41 875.64,-70.14 880.55,-79.52 885.33,-74.41"/>
</a>
</g>
</g>
<!-- Node21 -->
<g id="Node000021" class="node">
<title>Node21</title>
<g id="a_Node000021"><a xlink:title=" ">
<polygon fill="#e0e0e0" stroke="#999999" points="1094,-123 1012,-123 1012,-106 1094,-106 1094,-123"/>
<text text-anchor="middle" x="1053" y="-112.6" font-family="Helvetica,sans-Serif" font-size="8.00">memory_resource</text>
</a>
</g>
</g>
<!-- Node20&#45;&gt;Node21 -->
<g id="edge33_Node000020_Node000021" class="edge">
<title>Node20&#45;&gt;Node21</title>
<g id="a_edge33_Node000020_Node000021"><a xlink:title=" ">
<path fill="none" stroke="#63b8ff" d="M878.25,-158.97C913.9,-150.1 973.29,-135.33 1012.79,-125.5"/>
<polygon fill="#63b8ff" stroke="#63b8ff" points="1013.77,-128.87 1022.63,-123.06 1012.08,-122.07 1013.77,-128.87"/>
</a>
</g>
</g>
<!-- Node22&#45;&gt;Node4 -->
<g id="edge41_Node000022_Node000004" class="edge">
<title>Node22&#45;&gt;Node4</title>
<g id="a_edge41_Node000022_Node000004"><a xlink:title=" ">
<path fill="none" stroke="#63b8ff" d="M1267.1,-212.58C1298.96,-206.61 1338.96,-195.7 1370,-176 1387.86,-164.66 1402.92,-145.32 1412.16,-131.55"/>
<polygon fill="#63b8ff" stroke="#63b8ff" points="1415.14,-133.39 1417.6,-123.08 1409.25,-129.61 1415.14,-133.39"/>
</a>
</g>
</g>
<!-- Node22&#45;&gt;Node10 -->
<g id="edge40_Node000022_Node000010" class="edge">
<title>Node22&#45;&gt;Node10</title>
<g id="a_edge40_Node000022_Node000010"><a xlink:title=" ">
<path fill="none" stroke="#63b8ff" d="M1173.97,-211.98C1142.5,-205.07 1097.62,-193.26 1061,-176 1034.44,-163.48 1007.06,-143.29 990.04,-129.72"/>
<polygon fill="#63b8ff" stroke="#63b8ff" points="992.11,-126.89 982.14,-123.3 987.69,-132.32 992.11,-126.89"/>
</a>
</g>
</g>
<!-- Node22&#45;&gt;Node16 -->
<g id="edge55_Node000022_Node000016" class="edge">
<title>Node22&#45;&gt;Node16</title>
<g id="a_edge55_Node000022_Node000016"><a xlink:title=" ">
<path fill="none" stroke="#63b8ff" d="M1223.69,-211.84C1253.8,-189.84 1335.87,-126.77 1317,-106 1290.65,-76.99 1032.04,-66.79 918.73,-63.69"/>
<polygon fill="#63b8ff" stroke="#63b8ff" points="918.64,-60.18 908.55,-63.42 918.46,-67.18 918.64,-60.18"/>
</a>
</g>
</g>
<!-- Node23 -->
<g id="Node000023" class="node">
<title>Node23</title>
<g id="a_Node000023"><a xlink:href="../../dc/d3c/bnode_8hpp.html" target="_top" xlink:title=" ">
<polygon fill="white" stroke="#666666" points="1360.5,-176 1305.5,-176 1305.5,-159 1360.5,-159 1360.5,-176"/>
<text text-anchor="middle" x="1333" y="-165.6" font-family="Helvetica,sans-Serif" font-size="8.00">bnode.hpp</text>
</a>
</g>
</g>
<!-- Node22&#45;&gt;Node23 -->
<g id="edge42_Node000022_Node000023" class="edge">
<title>Node22&#45;&gt;Node23</title>
<g id="a_edge42_Node000022_Node000023"><a xlink:title=" ">
<path fill="none" stroke="#63b8ff" d="M1230.71,-211.97C1250.56,-203.54 1282.98,-189.76 1306,-179.98"/>
<polygon fill="#63b8ff" stroke="#63b8ff" points="1307.39,-183.19 1315.22,-176.06 1304.65,-176.75 1307.39,-183.19"/>
</a>
</g>
</g>
<!-- Node24 -->
<g id="Node000024" class="node">
<title>Node24</title>
<g id="a_Node000024"><a xlink:href="../../d9/df8/heterogeneous__pool_8hpp.html" target="_top" xlink:title=" ">
<polygon fill="white" stroke="#666666" points="1226.5,-176 1069.5,-176 1069.5,-159 1226.5,-159 1226.5,-176"/>
<text text-anchor="middle" x="1148" y="-165.6" font-family="Helvetica,sans-Serif" font-size="8.00">../../types/pmr/heterogeneous_pool.hpp</text>
</a>
</g>
</g>
<!-- Node22&#45;&gt;Node24 -->
<g id="edge43_Node000022_Node000024" class="edge">
<title>Node22&#45;&gt;Node24</title>
<g id="a_edge43_Node000022_Node000024"><a xlink:title=" ">
<path fill="none" stroke="#63b8ff" d="M1203.41,-211.97C1193.52,-204.22 1177.87,-191.94 1165.73,-182.41"/>
<polygon fill="#63b8ff" stroke="#63b8ff" points="1167.66,-179.48 1157.63,-176.06 1163.34,-184.98 1167.66,-179.48"/>
</a>
</g>
</g>
<!-- Node24&#45;&gt;Node3 -->
<g id="edge45_Node000024_Node000003" class="edge">
<title>Node24&#45;&gt;Node3</title>
<g id="a_edge45_Node000024_Node000003"><a xlink:title=" ">
<path fill="none" stroke="#63b8ff" d="M1226.56,-162.45C1283.9,-156.52 1346.78,-141.93 1317,-106 1274.97,-55.3 797.92,-20.08 670.26,-11.52"/>
<polygon fill="#63b8ff" stroke="#63b8ff" points="670.22,-8.01 660.01,-10.84 669.75,-14.99 670.22,-8.01"/>
</a>
</g>
</g>
<!-- Node24&#45;&gt;Node4 -->
<g id="edge46_Node000024_Node000004" class="edge">
<title>Node24&#45;&gt;Node4</title>
<g id="a_edge46_Node000024_Node000004"><a xlink:title=" ">
<path fill="none" stroke="#63b8ff" d="M1188.43,-158.97C1244.04,-148.62 1342.85,-130.23 1392.21,-121.04"/>
<polygon fill="#63b8ff" stroke="#63b8ff" points="1393.05,-124.45 1402.24,-119.18 1391.77,-117.57 1393.05,-124.45"/>
</a>
</g>
</g>
<!-- Node24&#45;&gt;Node6 -->
<g id="edge50_Node000024_Node000006" class="edge">
<title>Node24&#45;&gt;Node6</title>
<g id="a_edge50_Node000024_Node000006"><a xlink:title=" ">
<path fill="none" stroke="#63b8ff" d="M1069.26,-162.58C928.37,-155.46 623.81,-139.59 367,-123 341.77,-121.37 313.04,-119.23 292.52,-117.66"/>
<polygon fill="#63b8ff" stroke="#63b8ff" points="292.56,-114.15 282.32,-116.87 292.02,-121.13 292.56,-114.15"/>
</a>
</g>
</g>
<!-- Node24&#45;&gt;Node7 -->
<g id="edge51_Node000024_Node000007" class="edge">
<title>Node24&#45;&gt;Node7</title>
<g id="a_edge51_Node000024_Node000007"><a xlink:title=" ">
<path fill="none" stroke="#63b8ff" d="M1096.8,-158.97C1022.97,-148.12 889.02,-128.44 830.12,-119.78"/>
<polygon fill="#63b8ff" stroke="#63b8ff" points="830.43,-116.29 820.03,-118.3 829.41,-123.21 830.43,-116.29"/>
</a>
</g>
</g>
<!-- Node24&#45;&gt;Node10 -->
<g id="edge44_Node000024_Node000010" class="edge">
<title>Node24&#45;&gt;Node10</title>
<g id="a_edge44_Node000024_Node000010"><a xlink:title=" ">
<path fill="none" stroke="#63b8ff" d="M1122.18,-158.97C1090.73,-149.81 1037.65,-134.34 1004.02,-124.54"/>
<polygon fill="#63b8ff" stroke="#63b8ff" points="1004.83,-121.13 994.25,-121.69 1002.87,-127.85 1004.83,-121.13"/>
</a>
</g>
</g>
<!-- Node24&#45;&gt;Node11 -->
<g id="edge54_Node000024_Node000011" class="edge">
<title>Node24&#45;&gt;Node11</title>
<g id="a_edge54_Node000024_Node000011"><a xlink:title=" ">
<path fill="none" stroke="#63b8ff" d="M1069.5,-158.97C956.21,-148.11 750.58,-128.4 660.4,-119.76"/>
<polygon fill="#63b8ff" stroke="#63b8ff" points="660.53,-116.25 650.24,-118.78 659.86,-123.22 660.53,-116.25"/>
</a>
</g>
</g>
<!-- Node24&#45;&gt;Node14 -->
<g id="edge47_Node000024_Node000014" class="edge">
<title>Node24&#45;&gt;Node14</title>
<g id="a_edge47_Node000024_Node000014"><a xlink:title=" ">
<path fill="none" stroke="#63b8ff" d="M1144.66,-158.58C1138.57,-145.21 1124.27,-118.38 1103,-106 1101.24,-104.98 861.72,-75.82 779.41,-65.83"/>
<polygon fill="#63b8ff" stroke="#63b8ff" points="779.66,-62.33 769.31,-64.6 778.81,-69.28 779.66,-62.33"/>
</a>
</g>
</g>
<!-- Node24&#45;&gt;Node16 -->
<g id="edge53_Node000024_Node000016" class="edge">
<title>Node24&#45;&gt;Node16</title>
<g id="a_edge53_Node000024_Node000016"><a xlink:title=" ">
<path fill="none" stroke="#63b8ff" d="M1148.98,-158.92C1150.17,-146.05 1150.49,-119.98 1136,-106 1105.81,-76.88 988.69,-67.24 919,-64.05"/>
<polygon fill="#63b8ff" stroke="#63b8ff" points="918.81,-60.54 908.67,-63.61 918.51,-67.54 918.81,-60.54"/>
</a>
</g>
</g>
<!-- Node24&#45;&gt;Node21 -->
<g id="edge52_Node000024_Node000021" class="edge">
<title>Node24&#45;&gt;Node21</title>
<g id="a_edge52_Node000024_Node000021"><a xlink:title=" ">
<path fill="none" stroke="#63b8ff" d="M1133.98,-158.97C1118.83,-150.84 1094.42,-137.74 1076.36,-128.04"/>
<polygon fill="#63b8ff" stroke="#63b8ff" points="1077.54,-124.7 1067.08,-123.06 1074.23,-130.87 1077.54,-124.7"/>
</a>
</g>
</g>
<!-- Node25 -->
<g id="Node000025" class="node">
<title>Node25</title>
<g id="a_Node000025"><a xlink:title=" ">
<polygon fill="#e0e0e0" stroke="#999999" points="1258,-123 1226,-123 1226,-106 1258,-106 1258,-123"/>
<text text-anchor="middle" x="1242" y="-112.6" font-family="Helvetica,sans-Serif" font-size="8.00">map</text>
</a>
</g>
</g>
<!-- Node24&#45;&gt;Node25 -->
<g id="edge48_Node000024_Node000025" class="edge">
<title>Node24&#45;&gt;Node25</title>
<g id="a_edge48_Node000024_Node000025"><a xlink:title=" ">
<path fill="none" stroke="#63b8ff" d="M1161.87,-158.97C1176.87,-150.84 1201.02,-137.74 1218.89,-128.04"/>
<polygon fill="#63b8ff" stroke="#63b8ff" points="1220.95,-130.9 1228.07,-123.06 1217.61,-124.75 1220.95,-130.9"/>
</a>
</g>
</g>
<!-- Node26 -->
<g id="Node000026" class="node">
<title>Node26</title>
<g id="a_Node000026"><a xlink:title=" ">
<polygon fill="#e0e0e0" stroke="#999999" points="1308,-123 1276,-123 1276,-106 1308,-106 1308,-123"/>
<text text-anchor="middle" x="1292" y="-112.6" font-family="Helvetica,sans-Serif" font-size="8.00">new</text>
</a>
</g>
</g>
<!-- Node24&#45;&gt;Node26 -->
<g id="edge49_Node000024_Node000026" class="edge">
<title>Node24&#45;&gt;Node26</title>
<g id="a_edge49_Node000024_Node000026"><a xlink:title=" ">
<path fill="none" stroke="#63b8ff" d="M1169.25,-158.97C1195.03,-149.84 1238.47,-134.46 1266.16,-124.65"/>
<polygon fill="#63b8ff" stroke="#63b8ff" points="1267.33,-127.95 1275.59,-121.31 1265,-121.35 1267.33,-127.95"/>
</a>
</g>
</g>
<!-- Node27&#45;&gt;Node3 -->
<g id="edge57_Node000027_Node000003" class="edge">
<title>Node27&#45;&gt;Node3</title>
<g id="a_edge57_Node000027_Node000003"><a xlink:title=" ">
<path fill="none" stroke="#63b8ff" d="M643.91,-164.12C565.47,-158.56 384.99,-143.66 367,-123 296.76,-42.32 522.64,-17.72 607.83,-11.41"/>
<polygon fill="#63b8ff" stroke="#63b8ff" points="608.23,-14.89 617.96,-10.7 607.74,-7.91 608.23,-14.89"/>
</a>
</g>
</g>
<!-- Node27&#45;&gt;Node5 -->
<g id="edge59_Node000027_Node000005" class="edge">
<title>Node27&#45;&gt;Node5</title>
<g id="a_edge59_Node000027_Node000005"><a xlink:title=" ">
<path fill="none" stroke="#63b8ff" d="M643.72,-159.2C614.55,-152.42 573.12,-140.67 540,-123 517.05,-110.76 494.31,-91.07 479.99,-77.49"/>
<polygon fill="#63b8ff" stroke="#63b8ff" points="482.21,-74.77 472.6,-70.31 477.33,-79.79 482.21,-74.77"/>
</a>
</g>
</g>
<!-- Node27&#45;&gt;Node7 -->
<g id="edge60_Node000027_Node000007" class="edge">
<title>Node27&#45;&gt;Node7</title>
<g id="a_edge60_Node000027_Node000007"><a xlink:title=" ">
<path fill="none" stroke="#63b8ff" d="M697.85,-158.97C717.87,-150.54 750.56,-136.76 773.77,-126.98"/>
<polygon fill="#63b8ff" stroke="#63b8ff" points="775.22,-130.17 783.07,-123.06 772.5,-123.71 775.22,-130.17"/>
</a>
</g>
</g>
<!-- Node27&#45;&gt;Node11 -->
<g id="edge61_Node000027_Node000011" class="edge">
<title>Node27&#45;&gt;Node11</title>
<g id="a_edge61_Node000027_Node000011"><a xlink:title=" ">
<path fill="none" stroke="#63b8ff" d="M670.56,-158.97C660.82,-151.22 645.41,-138.94 633.45,-129.41"/>
<polygon fill="#63b8ff" stroke="#63b8ff" points="635.48,-126.55 625.48,-123.06 631.12,-132.03 635.48,-126.55"/>
</a>
</g>
</g>
<!-- Node27&#45;&gt;Node14 -->
<g id="edge58_Node000027_Node000014" class="edge">
<title>Node27&#45;&gt;Node14</title>
<g id="a_edge58_Node000027_Node000014"><a xlink:title=" ">
<path fill="none" stroke="#63b8ff" d="M685.41,-158.68C697.14,-141.74 725.13,-101.32 740.83,-78.64"/>
<polygon fill="#63b8ff" stroke="#63b8ff" points="743.91,-80.34 746.72,-70.12 738.15,-76.35 743.91,-80.34"/>
</a>
</g>
</g>
<!-- Node27&#45;&gt;Node16 -->
<g id="edge62_Node000027_Node000016" class="edge">
<title>Node27&#45;&gt;Node16</title>
<g id="a_edge62_Node000027_Node000016"><a xlink:title=" ">
<path fill="none" stroke="#63b8ff" d="M690.58,-158.92C707.53,-146.94 742.02,-123.21 773,-106 794.49,-94.06 819.83,-82.35 838.62,-74.1"/>
<polygon fill="#63b8ff" stroke="#63b8ff" points="840.02,-77.31 847.8,-70.12 837.23,-70.89 840.02,-77.31"/>
</a>
</g>
</g>
</g>
</svg>
