<?xml version="1.0" encoding="UTF-8" standalone="no"?>
<!DOCTYPE svg PUBLIC "-//W3C//DTD SVG 1.1//EN"
 "http://www.w3.org/Graphics/SVG/1.1/DTD/svg11.dtd">
<!-- Generated by graphviz version 2.43.0 (0)
 -->
<!-- Title: gjps.hpp Pages: 1 -->
<svg width="1220pt" height="237pt"
 viewBox="0.00 0.00 1219.51 237.00" xmlns="http://www.w3.org/2000/svg" xmlns:xlink="http://www.w3.org/1999/xlink">
<g id="graph0" class="graph" transform="scale(1 1) rotate(0) translate(4 233)">
<title>gjps.hpp</title>
<!-- Node1 -->
<g id="Node000001" class="node">
<title>Node1</title>
<g id="a_Node000001"><a xlink:title=" ">
<polygon fill="#999999" stroke="#666666" points="315.01,-229 268.01,-229 268.01,-212 315.01,-212 315.01,-229"/>
<text text-anchor="middle" x="291.51" y="-218.6" font-family="Helvetica,sans-Serif" font-size="8.00">gjps.hpp</text>
</a>
</g>
</g>
<!-- Node2 -->
<g id="Node000002" class="node">
<title>Node2</title>
<g id="a_Node000002"><a xlink:title=" ">
<polygon fill="#e0e0e0" stroke="#999999" points="147.01,-70 112.01,-70 112.01,-53 147.01,-53 147.01,-70"/>
<text text-anchor="middle" x="129.51" y="-59.6" font-family="Helvetica,sans-Serif" font-size="8.00">array</text>
</a>
</g>
</g>
<!-- Node1&#45;&gt;Node2 -->
<g id="edge1_Node000001_Node000002" class="edge">
<title>Node1&#45;&gt;Node2</title>
<g id="a_edge1_Node000001_Node000002"><a xlink:title=" ">
<path fill="none" stroke="#63b8ff" d="M267.75,-219.36C208.46,-218.46 56.57,-212.55 25.51,-176 5.37,-152.29 8.27,-131.9 25.51,-106 42.33,-80.74 76.93,-70.12 101.6,-65.67"/>
<polygon fill="#63b8ff" stroke="#63b8ff" points="102.47,-69.08 111.81,-64.08 101.39,-62.16 102.47,-69.08"/>
</a>
</g>
</g>
<!-- Node3 -->
<g id="Node000003" class="node">
<title>Node3</title>
<g id="a_Node000003"><a xlink:title=" ">
<polygon fill="#e0e0e0" stroke="#999999" points="732.51,-17 690.51,-17 690.51,0 732.51,0 732.51,-17"/>
<text text-anchor="middle" x="711.51" y="-6.6" font-family="Helvetica,sans-Serif" font-size="8.00">cstddef</text>
</a>
</g>
</g>
<!-- Node1&#45;&gt;Node3 -->
<g id="edge2_Node000001_Node000003" class="edge">
<title>Node1&#45;&gt;Node3</title>
<g id="a_edge2_Node000001_Node000003"><a xlink:title=" ">
<path fill="none" stroke="#63b8ff" d="M267.86,-219.58C206.48,-219.22 44.56,-214.57 11.51,-176 3.89,-167.1 -9.79,-144.17 12.51,-106 35.93,-65.92 58.19,-66.8 102.51,-53 211.98,-18.93 571.29,-11.38 680.05,-9.86"/>
<polygon fill="#63b8ff" stroke="#63b8ff" points="680.39,-13.35 690.34,-9.72 680.3,-6.35 680.39,-13.35"/>
</a>
</g>
</g>
<!-- Node4 -->
<g id="Node000004" class="node">
<title>Node4</title>
<g id="a_Node000004"><a xlink:title=" ">
<polygon fill="#e0e0e0" stroke="#999999" points="524.01,-70 471.01,-70 471.01,-53 524.01,-53 524.01,-70"/>
<text text-anchor="middle" x="497.51" y="-59.6" font-family="Helvetica,sans-Serif" font-size="8.00">type_traits</text>
</a>
</g>
</g>
<!-- Node1&#45;&gt;Node4 -->
<g id="edge3_Node000001_Node000004" class="edge">
<title>Node1&#45;&gt;Node4</title>
<g id="a_edge3_Node000001_Node000004"><a xlink:title=" ">
<path fill="none" stroke="#63b8ff" d="M267.55,-216.86C196.29,-208.14 -5.53,-176.7 58.51,-106 85.33,-76.4 359.97,-66.15 460.72,-63.38"/>
<polygon fill="#63b8ff" stroke="#63b8ff" points="460.84,-66.87 470.74,-63.11 460.65,-59.88 460.84,-66.87"/>
</a>
</g>
</g>
<!-- Node5 -->
<g id="Node000005" class="node">
<title>Node5</title>
<g id="a_Node000005"><a xlink:title=" ">
<polygon fill="#e0e0e0" stroke="#999999" points="101.51,-123 67.51,-123 67.51,-106 101.51,-106 101.51,-123"/>
<text text-anchor="middle" x="84.51" y="-112.6" font-family="Helvetica,sans-Serif" font-size="8.00">utility</text>
</a>
</g>
</g>
<!-- Node1&#45;&gt;Node5 -->
<g id="edge4_Node000001_Node000005" class="edge">
<title>Node1&#45;&gt;Node5</title>
<g id="a_edge4_Node000001_Node000005"><a xlink:title=" ">
<path fill="none" stroke="#63b8ff" d="M276.29,-211.85C240.69,-193.97 151.75,-149.28 108.67,-127.63"/>
<polygon fill="#63b8ff" stroke="#63b8ff" points="109.98,-124.38 99.48,-123.02 106.84,-130.64 109.98,-124.38"/>
</a>
</g>
</g>
<!-- Node6 -->
<g id="Node000006" class="node">
<title>Node6</title>
<g id="a_Node000006"><a xlink:href="../../dc/d8a/grid_8hpp.html" target="_top" xlink:title=" ">
<polygon fill="white" stroke="#666666" points="330.51,-176 252.51,-176 252.51,-159 330.51,-159 330.51,-176"/>
<text text-anchor="middle" x="291.51" y="-165.6" font-family="Helvetica,sans-Serif" font-size="8.00">../mazes/grid.hpp</text>
</a>
</g>
</g>
<!-- Node1&#45;&gt;Node6 -->
<g id="edge5_Node000001_Node000006" class="edge">
<title>Node1&#45;&gt;Node6</title>
<g id="a_edge5_Node000001_Node000006"><a xlink:title=" ">
<path fill="none" stroke="#63b8ff" d="M291.51,-211.97C291.51,-205.19 291.51,-194.97 291.51,-186.13"/>
<polygon fill="#63b8ff" stroke="#63b8ff" points="295.01,-186.06 291.51,-176.06 288.01,-186.06 295.01,-186.06"/>
</a>
</g>
</g>
<!-- Node10 -->
<g id="Node000010" class="node">
<title>Node10</title>
<g id="a_Node000010"><a xlink:href="../../df/d93/utils_8hpp.html" target="_top" xlink:title=" ">
<polygon fill="white" stroke="#666666" points="881.51,-123 813.51,-123 813.51,-106 881.51,-106 881.51,-123"/>
<text text-anchor="middle" x="847.51" y="-112.6" font-family="Helvetica,sans-Serif" font-size="8.00">../utils/utils.hpp</text>
</a>
</g>
</g>
<!-- Node1&#45;&gt;Node10 -->
<g id="edge37_Node000001_Node000010" class="edge">
<title>Node1&#45;&gt;Node10</title>
<g id="a_edge37_Node000001_Node000010"><a xlink:title=" ">
<path fill="none" stroke="#63b8ff" d="M315.29,-218.77C397.9,-215.98 671.98,-204.75 754.51,-176 783.94,-165.75 813.32,-144.29 830.96,-129.88"/>
<polygon fill="#63b8ff" stroke="#63b8ff" points="833.64,-132.2 839.05,-123.09 829.14,-126.84 833.64,-132.2"/>
</a>
</g>
</g>
<!-- Node15 -->
<g id="Node000015" class="node">
<title>Node15</title>
<g id="a_Node000015"><a xlink:href="../../d7/d65/intrinsics_8hpp.html" target="_top" xlink:title=" ">
<polygon fill="#fff0f0" stroke="red" points="719.01,-70 634.01,-70 634.01,-53 719.01,-53 719.01,-70"/>
<text text-anchor="middle" x="676.51" y="-59.6" font-family="Helvetica,sans-Serif" font-size="8.00">../utils/intrinsics.hpp</text>
</a>
</g>
</g>
<!-- Node1&#45;&gt;Node15 -->
<g id="edge45_Node000001_Node000015" class="edge">
<title>Node1&#45;&gt;Node15</title>
<g id="a_edge45_Node000001_Node000015"><a xlink:title=" ">
<path fill="none" stroke="#63b8ff" d="M310.08,-211.93C372.2,-186.6 573.03,-104.7 647.97,-74.14"/>
<polygon fill="#63b8ff" stroke="#63b8ff" points="649.74,-77.2 657.68,-70.18 647.1,-70.72 649.74,-77.2"/>
</a>
</g>
</g>
<!-- Node19 -->
<g id="Node000019" class="node">
<title>Node19</title>
<g id="a_Node000019"><a xlink:href="../../d8/d62/existence__set_8hpp.html" target="_top" xlink:title=" ">
<polygon fill="white" stroke="#666666" points="1002.01,-176 855.01,-176 855.01,-159 1002.01,-159 1002.01,-176"/>
<text text-anchor="middle" x="928.51" y="-165.6" font-family="Helvetica,sans-Serif" font-size="8.00">../types/containers/existence_set.hpp</text>
</a>
</g>
</g>
<!-- Node1&#45;&gt;Node19 -->
<g id="edge27_Node000001_Node000019" class="edge">
<title>Node1&#45;&gt;Node19</title>
<g id="a_edge27_Node000001_Node000019"><a xlink:title=" ">
<path fill="none" stroke="#63b8ff" d="M315.32,-217.59C401.18,-210.72 697.55,-186.99 844.52,-175.22"/>
<polygon fill="#63b8ff" stroke="#63b8ff" points="845.15,-178.69 854.84,-174.4 844.59,-171.71 845.15,-178.69"/>
</a>
</g>
</g>
<!-- Node22 -->
<g id="Node000022" class="node">
<title>Node22</title>
<g id="a_Node000022"><a xlink:href="../../d2/d1c/solver_8hpp.html" target="_top" xlink:title=" ">
<polygon fill="white" stroke="#666666" points="745.51,-176 673.51,-176 673.51,-159 745.51,-159 745.51,-176"/>
<text text-anchor="middle" x="709.51" y="-165.6" font-family="Helvetica,sans-Serif" font-size="8.00">base/solver.hpp</text>
</a>
</g>
</g>
<!-- Node1&#45;&gt;Node22 -->
<g id="edge38_Node000001_Node000022" class="edge">
<title>Node1&#45;&gt;Node22</title>
<g id="a_edge38_Node000001_Node000022"><a xlink:title=" ">
<path fill="none" stroke="#63b8ff" d="M315.18,-216.61C382.22,-208.43 574.23,-185.01 663.21,-174.15"/>
<polygon fill="#63b8ff" stroke="#63b8ff" points="663.78,-177.61 673.28,-172.92 662.93,-170.66 663.78,-177.61"/>
</a>
</g>
</g>
<!-- Node6&#45;&gt;Node2 -->
<g id="edge7_Node000006_Node000002" class="edge">
<title>Node6&#45;&gt;Node2</title>
<g id="a_edge7_Node000006_Node000002"><a xlink:title=" ">
<path fill="none" stroke="#63b8ff" d="M252.49,-164.4C220.5,-160.62 176.16,-150.4 148.51,-123 137.15,-111.74 132.57,-93.77 130.72,-80.33"/>
<polygon fill="#63b8ff" stroke="#63b8ff" points="134.21,-79.97 129.74,-70.36 127.24,-80.66 134.21,-79.97"/>
</a>
</g>
</g>
<!-- Node6&#45;&gt;Node3 -->
<g id="edge9_Node000006_Node000003" class="edge">
<title>Node6&#45;&gt;Node3</title>
<g id="a_edge9_Node000006_Node000003"><a xlink:title=" ">
<path fill="none" stroke="#63b8ff" d="M285.36,-158.63C276.48,-146.26 262.4,-122.01 274.51,-106 323.97,-40.68 588.53,-17.49 680.21,-11.35"/>
<polygon fill="#63b8ff" stroke="#63b8ff" points="680.51,-14.84 690.26,-10.7 680.06,-7.85 680.51,-14.84"/>
</a>
</g>
</g>
<!-- Node6&#45;&gt;Node4 -->
<g id="edge10_Node000006_Node000004" class="edge">
<title>Node6&#45;&gt;Node4</title>
<g id="a_edge10_Node000006_Node000004"><a xlink:title=" ">
<path fill="none" stroke="#63b8ff" d="M287.44,-158.82C281.41,-146.27 272.08,-121.23 284.51,-106 306.38,-79.22 406.02,-68.49 460.93,-64.56"/>
<polygon fill="#63b8ff" stroke="#63b8ff" points="461.22,-68.04 470.96,-63.88 460.75,-61.06 461.22,-68.04"/>
</a>
</g>
</g>
<!-- Node6&#45;&gt;Node5 -->
<g id="edge11_Node000006_Node000005" class="edge">
<title>Node6&#45;&gt;Node5</title>
<g id="a_edge11_Node000006_Node000005"><a xlink:title=" ">
<path fill="none" stroke="#63b8ff" d="M260.97,-158.97C220.57,-149.02 150,-131.63 111.48,-122.14"/>
<polygon fill="#63b8ff" stroke="#63b8ff" points="112.06,-118.68 101.52,-119.69 110.39,-125.48 112.06,-118.68"/>
</a>
</g>
</g>
<!-- Node7 -->
<g id="Node000007" class="node">
<title>Node7</title>
<g id="a_Node000007"><a xlink:title=" ">
<polygon fill="#e0e0e0" stroke="#999999" points="343.51,-123 293.51,-123 293.51,-106 343.51,-106 343.51,-123"/>
<text text-anchor="middle" x="318.51" y="-112.6" font-family="Helvetica,sans-Serif" font-size="8.00">algorithm</text>
</a>
</g>
</g>
<!-- Node6&#45;&gt;Node7 -->
<g id="edge6_Node000006_Node000007" class="edge">
<title>Node6&#45;&gt;Node7</title>
<g id="a_edge6_Node000006_Node000007"><a xlink:title=" ">
<path fill="none" stroke="#63b8ff" d="M295.5,-158.97C299.25,-151.89 304.99,-141.05 309.8,-131.96"/>
<polygon fill="#63b8ff" stroke="#63b8ff" points="312.93,-133.53 314.51,-123.06 306.74,-130.26 312.93,-133.53"/>
</a>
</g>
</g>
<!-- Node8 -->
<g id="Node000008" class="node">
<title>Node8</title>
<g id="a_Node000008"><a xlink:title=" ">
<polygon fill="#e0e0e0" stroke="#999999" points="199.51,-123 157.51,-123 157.51,-106 199.51,-106 199.51,-123"/>
<text text-anchor="middle" x="178.51" y="-112.6" font-family="Helvetica,sans-Serif" font-size="8.00">cassert</text>
</a>
</g>
</g>
<!-- Node6&#45;&gt;Node8 -->
<g id="edge8_Node000006_Node000008" class="edge">
<title>Node6&#45;&gt;Node8</title>
<g id="a_edge8_Node000006_Node000008"><a xlink:title=" ">
<path fill="none" stroke="#63b8ff" d="M274.84,-158.97C256.31,-150.61 226.16,-137 204.52,-127.24"/>
<polygon fill="#63b8ff" stroke="#63b8ff" points="205.81,-123.98 195.26,-123.06 202.93,-130.36 205.81,-123.98"/>
</a>
</g>
</g>
<!-- Node9 -->
<g id="Node000009" class="node">
<title>Node9</title>
<g id="a_Node000009"><a xlink:title=" ">
<polygon fill="#e0e0e0" stroke="#999999" points="643.51,-123 605.51,-123 605.51,-106 643.51,-106 643.51,-123"/>
<text text-anchor="middle" x="624.51" y="-112.6" font-family="Helvetica,sans-Serif" font-size="8.00">vector</text>
</a>
</g>
</g>
<!-- Node6&#45;&gt;Node9 -->
<g id="edge12_Node000006_Node000009" class="edge">
<title>Node6&#45;&gt;Node9</title>
<g id="a_edge12_Node000006_Node000009"><a xlink:title=" ">
<path fill="none" stroke="#63b8ff" d="M330.69,-160.5C398.32,-150.14 535.48,-129.14 595.4,-119.96"/>
<polygon fill="#63b8ff" stroke="#63b8ff" points="595.97,-123.41 605.33,-118.44 594.91,-116.49 595.97,-123.41"/>
</a>
</g>
</g>
<!-- Node6&#45;&gt;Node10 -->
<g id="edge13_Node000006_Node000010" class="edge">
<title>Node6&#45;&gt;Node10</title>
<g id="a_edge13_Node000006_Node000010"><a xlink:title=" ">
<path fill="none" stroke="#63b8ff" d="M330.61,-162.91C431.08,-153.7 697.8,-129.23 803.49,-119.54"/>
<polygon fill="#63b8ff" stroke="#63b8ff" points="803.86,-123.02 813.5,-118.62 803.22,-116.05 803.86,-123.02"/>
</a>
</g>
</g>
<!-- Node6&#45;&gt;Node15 -->
<g id="edge26_Node000006_Node000015" class="edge">
<title>Node6&#45;&gt;Node15</title>
<g id="a_edge26_Node000006_Node000015"><a xlink:title=" ">
<path fill="none" stroke="#63b8ff" d="M330.75,-159.38C369.69,-151.9 430.86,-138.99 482.51,-123 502.14,-116.92 506.06,-112.63 525.51,-106 563.1,-93.19 606.75,-80.89 637.43,-72.65"/>
<polygon fill="#63b8ff" stroke="#63b8ff" points="638.55,-75.98 647.31,-70.02 636.74,-69.21 638.55,-75.98"/>
</a>
</g>
</g>
<!-- Node18 -->
<g id="Node000018" class="node">
<title>Node18</title>
<g id="a_Node000018"><a xlink:href="../../d1/d2d/weighted__node_8hpp.html" target="_top" xlink:title=" ">
<polygon fill="white" stroke="#666666" points="473.01,-123 362.01,-123 362.01,-106 473.01,-106 473.01,-123"/>
<text text-anchor="middle" x="417.51" y="-112.6" font-family="Helvetica,sans-Serif" font-size="8.00">nodes/weighted_node.hpp</text>
</a>
</g>
</g>
<!-- Node6&#45;&gt;Node18 -->
<g id="edge23_Node000006_Node000018" class="edge">
<title>Node6&#45;&gt;Node18</title>
<g id="a_edge23_Node000006_Node000018"><a xlink:title=" ">
<path fill="none" stroke="#63b8ff" d="M310.11,-158.97C331.04,-150.5 365.3,-136.64 389.48,-126.85"/>
<polygon fill="#63b8ff" stroke="#63b8ff" points="390.89,-130.05 398.85,-123.06 388.26,-123.56 390.89,-130.05"/>
</a>
</g>
</g>
<!-- Node10&#45;&gt;Node2 -->
<g id="edge14_Node000010_Node000002" class="edge">
<title>Node10&#45;&gt;Node2</title>
<g id="a_edge14_Node000010_Node000002"><a xlink:title=" ">
<path fill="none" stroke="#63b8ff" d="M813.37,-111.07C690.11,-102.32 269.52,-72.44 157.25,-64.47"/>
<polygon fill="#63b8ff" stroke="#63b8ff" points="157.31,-60.97 147.08,-63.75 156.81,-67.95 157.31,-60.97"/>
</a>
</g>
</g>
<!-- Node10&#45;&gt;Node3 -->
<g id="edge16_Node000010_Node000003" class="edge">
<title>Node10&#45;&gt;Node3</title>
<g id="a_edge16_Node000010_Node000003"><a xlink:title=" ">
<path fill="none" stroke="#63b8ff" d="M873.61,-105.95C904,-95.86 947.76,-76.49 928.51,-53 905.4,-24.79 797.23,-14.5 742.87,-11.06"/>
<polygon fill="#63b8ff" stroke="#63b8ff" points="742.94,-7.56 732.75,-10.46 742.53,-14.55 742.94,-7.56"/>
</a>
</g>
</g>
<!-- Node10&#45;&gt;Node4 -->
<g id="edge20_Node000010_Node000004" class="edge">
<title>Node10&#45;&gt;Node4</title>
<g id="a_edge20_Node000010_Node000004"><a xlink:title=" ">
<path fill="none" stroke="#63b8ff" d="M813.32,-108.52C747.35,-98.91 603.04,-77.88 534.75,-67.93"/>
<polygon fill="#63b8ff" stroke="#63b8ff" points="534.86,-64.41 524.46,-66.43 533.85,-71.33 534.86,-64.41"/>
</a>
</g>
</g>
<!-- Node11 -->
<g id="Node000011" class="node">
<title>Node11</title>
<g id="a_Node000011"><a xlink:title=" ">
<polygon fill="#e0e0e0" stroke="#999999" points="865.51,-70 827.51,-70 827.51,-53 865.51,-53 865.51,-70"/>
<text text-anchor="middle" x="846.51" y="-59.6" font-family="Helvetica,sans-Serif" font-size="8.00">cmath</text>
</a>
</g>
</g>
<!-- Node10&#45;&gt;Node11 -->
<g id="edge15_Node000010_Node000011" class="edge">
<title>Node10&#45;&gt;Node11</title>
<g id="a_edge15_Node000010_Node000011"><a xlink:title=" ">
<path fill="none" stroke="#63b8ff" d="M847.37,-105.97C847.23,-99.19 847.03,-88.97 846.86,-80.13"/>
<polygon fill="#63b8ff" stroke="#63b8ff" points="850.36,-79.99 846.66,-70.06 843.36,-80.12 850.36,-79.99"/>
</a>
</g>
</g>
<!-- Node12 -->
<g id="Node000012" class="node">
<title>Node12</title>
<g id="a_Node000012"><a xlink:title=" ">
<polygon fill="#e0e0e0" stroke="#999999" points="1060.51,-70 1010.51,-70 1010.51,-53 1060.51,-53 1060.51,-70"/>
<text text-anchor="middle" x="1035.51" y="-59.6" font-family="Helvetica,sans-Serif" font-size="8.00">functional</text>
</a>
</g>
</g>
<!-- Node10&#45;&gt;Node12 -->
<g id="edge17_Node000010_Node000012" class="edge">
<title>Node10&#45;&gt;Node12</title>
<g id="a_edge17_Node000010_Node000012"><a xlink:title=" ">
<path fill="none" stroke="#63b8ff" d="M875.25,-105.97C908.44,-96.97 964.05,-81.89 1000.25,-72.06"/>
<polygon fill="#63b8ff" stroke="#63b8ff" points="1001.63,-75.32 1010.37,-69.32 999.8,-68.56 1001.63,-75.32"/>
</a>
</g>
</g>
<!-- Node13 -->
<g id="Node000013" class="node">
<title>Node13</title>
<g id="a_Node000013"><a xlink:title=" ">
<polygon fill="#e0e0e0" stroke="#999999" points="809.51,-70 775.51,-70 775.51,-53 809.51,-53 809.51,-70"/>
<text text-anchor="middle" x="792.51" y="-59.6" font-family="Helvetica,sans-Serif" font-size="8.00">limits</text>
</a>
</g>
</g>
<!-- Node10&#45;&gt;Node13 -->
<g id="edge18_Node000010_Node000013" class="edge">
<title>Node10&#45;&gt;Node13</title>
<g id="a_edge18_Node000010_Node000013"><a xlink:title=" ">
<path fill="none" stroke="#63b8ff" d="M839.4,-105.97C831.19,-98.37 818.3,-86.41 808.11,-76.97"/>
<polygon fill="#63b8ff" stroke="#63b8ff" points="810.37,-74.29 800.66,-70.06 805.61,-79.42 810.37,-74.29"/>
</a>
</g>
</g>
<!-- Node14 -->
<g id="Node000014" class="node">
<title>Node14</title>
<g id="a_Node000014"><a xlink:title=" ">
<polygon fill="#e0e0e0" stroke="#999999" points="919.51,-70 883.51,-70 883.51,-53 919.51,-53 919.51,-70"/>
<text text-anchor="middle" x="901.51" y="-59.6" font-family="Helvetica,sans-Serif" font-size="8.00">string</text>
</a>
</g>
</g>
<!-- Node10&#45;&gt;Node14 -->
<g id="edge19_Node000010_Node000014" class="edge">
<title>Node10&#45;&gt;Node14</title>
<g id="a_edge19_Node000010_Node000014"><a xlink:title=" ">
<path fill="none" stroke="#63b8ff" d="M855.48,-105.97C863.54,-98.37 876.19,-86.41 886.2,-76.97"/>
<polygon fill="#63b8ff" stroke="#63b8ff" points="888.65,-79.47 893.51,-70.06 883.84,-74.38 888.65,-79.47"/>
</a>
</g>
</g>
<!-- Node10&#45;&gt;Node15 -->
<g id="edge21_Node000010_Node000015" class="edge">
<title>Node10&#45;&gt;Node15</title>
<g id="a_edge21_Node000010_Node000015"><a xlink:title=" ">
<path fill="none" stroke="#63b8ff" d="M822.28,-105.97C792.98,-97.24 744.47,-82.77 711.53,-72.94"/>
<polygon fill="#63b8ff" stroke="#63b8ff" points="712.43,-69.56 701.85,-70.06 710.43,-76.27 712.43,-69.56"/>
</a>
</g>
</g>
<!-- Node15&#45;&gt;Node3 -->
<g id="edge22_Node000015_Node000003" class="edge">
<title>Node15&#45;&gt;Node3</title>
<g id="a_edge22_Node000015_Node000003"><a xlink:title=" ">
<path fill="none" stroke="#63b8ff" d="M681.68,-52.97C686.64,-45.74 694.3,-34.59 700.61,-25.39"/>
<polygon fill="#63b8ff" stroke="#63b8ff" points="703.56,-27.28 706.33,-17.06 697.78,-23.32 703.56,-27.28"/>
</a>
</g>
</g>
<!-- Node18&#45;&gt;Node4 -->
<g id="edge25_Node000018_Node000004" class="edge">
<title>Node18&#45;&gt;Node4</title>
<g id="a_edge25_Node000018_Node000004"><a xlink:title=" ">
<path fill="none" stroke="#63b8ff" d="M429.32,-105.97C441.84,-97.99 461.87,-85.22 476.99,-75.58"/>
<polygon fill="#63b8ff" stroke="#63b8ff" points="479.11,-78.38 485.66,-70.06 475.35,-72.48 479.11,-78.38"/>
</a>
</g>
</g>
<!-- Node18&#45;&gt;Node13 -->
<g id="edge24_Node000018_Node000013" class="edge">
<title>Node18&#45;&gt;Node13</title>
<g id="a_edge24_Node000018_Node000013"><a xlink:title=" ">
<path fill="none" stroke="#63b8ff" d="M472.85,-105.97C554.53,-94.87 704.3,-74.5 765.44,-66.18"/>
<polygon fill="#63b8ff" stroke="#63b8ff" points="766.02,-69.63 775.46,-64.82 765.08,-62.7 766.02,-69.63"/>
</a>
</g>
</g>
<!-- Node19&#45;&gt;Node3 -->
<g id="edge28_Node000019_Node000003" class="edge">
<title>Node19&#45;&gt;Node3</title>
<g id="a_edge28_Node000019_Node000003"><a xlink:title=" ">
<path fill="none" stroke="#63b8ff" d="M978.27,-158.95C1017.97,-151.78 1068.95,-139.64 1081.51,-123 1093.82,-106.71 1091.17,-72.56 1069.51,-53 1021.92,-10.02 821.24,-7.97 742.96,-8.87"/>
<polygon fill="#63b8ff" stroke="#63b8ff" points="742.71,-5.37 732.76,-9.01 742.81,-12.37 742.71,-5.37"/>
</a>
</g>
</g>
<!-- Node19&#45;&gt;Node4 -->
<g id="edge33_Node000019_Node000004" class="edge">
<title>Node19&#45;&gt;Node4</title>
<g id="a_edge33_Node000019_Node000004"><a xlink:title=" ">
<path fill="none" stroke="#63b8ff" d="M897.17,-158.94C819.25,-140.14 617.11,-91.36 534.01,-71.31"/>
<polygon fill="#63b8ff" stroke="#63b8ff" points="534.79,-67.89 524.25,-68.95 533.15,-74.7 534.79,-67.89"/>
</a>
</g>
</g>
<!-- Node19&#45;&gt;Node9 -->
<g id="edge34_Node000019_Node000009" class="edge">
<title>Node19&#45;&gt;Node9</title>
<g id="a_edge34_Node000019_Node000009"><a xlink:title=" ">
<path fill="none" stroke="#63b8ff" d="M875.11,-158.96C820.33,-150.99 732.71,-137.57 657.51,-123 656.25,-122.75 654.96,-122.5 653.65,-122.23"/>
<polygon fill="#63b8ff" stroke="#63b8ff" points="654.18,-118.76 643.66,-120.07 652.7,-125.6 654.18,-118.76"/>
</a>
</g>
</g>
<!-- Node19&#45;&gt;Node10 -->
<g id="edge35_Node000019_Node000010" class="edge">
<title>Node19&#45;&gt;Node10</title>
<g id="a_edge35_Node000019_Node000010"><a xlink:title=" ">
<path fill="none" stroke="#63b8ff" d="M916.56,-158.97C903.88,-150.99 883.6,-138.22 868.29,-128.58"/>
<polygon fill="#63b8ff" stroke="#63b8ff" points="869.84,-125.42 859.51,-123.06 866.11,-131.35 869.84,-125.42"/>
</a>
</g>
</g>
<!-- Node19&#45;&gt;Node12 -->
<g id="edge29_Node000019_Node000012" class="edge">
<title>Node19&#45;&gt;Node12</title>
<g id="a_edge29_Node000019_Node000012"><a xlink:title=" ">
<path fill="none" stroke="#63b8ff" d="M1002.16,-160.56C1026.62,-154.66 1051.44,-143.56 1066.51,-123 1077.15,-108.5 1064.14,-89.83 1051.87,-77.09"/>
<polygon fill="#63b8ff" stroke="#63b8ff" points="1054.16,-74.44 1044.54,-70.01 1049.3,-79.47 1054.16,-74.44"/>
</a>
</g>
</g>
<!-- Node19&#45;&gt;Node13 -->
<g id="edge31_Node000019_Node000013" class="edge">
<title>Node19&#45;&gt;Node13</title>
<g id="a_edge31_Node000019_Node000013"><a xlink:title=" ">
<path fill="none" stroke="#63b8ff" d="M930.31,-158.86C932.78,-146.36 935.63,-121.41 923.51,-106 920.18,-101.76 856.72,-81.96 819.37,-70.59"/>
<polygon fill="#63b8ff" stroke="#63b8ff" points="820.18,-67.18 809.6,-67.63 818.15,-73.88 820.18,-67.18"/>
</a>
</g>
</g>
<!-- Node19&#45;&gt;Node15 -->
<g id="edge36_Node000019_Node000015" class="edge">
<title>Node19&#45;&gt;Node15</title>
<g id="a_edge36_Node000019_Node000015"><a xlink:title=" ">
<path fill="none" stroke="#63b8ff" d="M925.95,-158.77C921.19,-145.68 909.69,-119.27 890.51,-106 864.88,-88.27 783.91,-75.37 729.25,-68.41"/>
<polygon fill="#63b8ff" stroke="#63b8ff" points="729.39,-64.9 719.03,-67.14 728.53,-71.85 729.39,-64.9"/>
</a>
</g>
</g>
<!-- Node20 -->
<g id="Node000020" class="node">
<title>Node20</title>
<g id="a_Node000020"><a xlink:title=" ">
<polygon fill="#e0e0e0" stroke="#999999" points="1211.51,-123 1151.51,-123 1151.51,-106 1211.51,-106 1211.51,-123"/>
<text text-anchor="middle" x="1181.51" y="-112.6" font-family="Helvetica,sans-Serif" font-size="8.00">initializer_list</text>
</a>
</g>
</g>
<!-- Node19&#45;&gt;Node20 -->
<g id="edge30_Node000019_Node000020" class="edge">
<title>Node19&#45;&gt;Node20</title>
<g id="a_edge30_Node000019_Node000020"><a xlink:title=" ">
<path fill="none" stroke="#63b8ff" d="M965.84,-158.97C1012.71,-149.53 1092.81,-133.38 1141.09,-123.65"/>
<polygon fill="#63b8ff" stroke="#63b8ff" points="1142.07,-127.02 1151.18,-121.62 1140.68,-120.16 1142.07,-127.02"/>
</a>
</g>
</g>
<!-- Node21 -->
<g id="Node000021" class="node">
<title>Node21</title>
<g id="a_Node000021"><a xlink:title=" ">
<polygon fill="#e0e0e0" stroke="#999999" points="1057.51,-123 975.51,-123 975.51,-106 1057.51,-106 1057.51,-123"/>
<text text-anchor="middle" x="1016.51" y="-112.6" font-family="Helvetica,sans-Serif" font-size="8.00">memory_resource</text>
</a>
</g>
</g>
<!-- Node19&#45;&gt;Node21 -->
<g id="edge32_Node000019_Node000021" class="edge">
<title>Node19&#45;&gt;Node21</title>
<g id="a_edge32_Node000019_Node000021"><a xlink:title=" ">
<path fill="none" stroke="#63b8ff" d="M941.5,-158.97C955.41,-150.91 977.73,-137.98 994.41,-128.31"/>
<polygon fill="#63b8ff" stroke="#63b8ff" points="996.58,-131.1 1003.48,-123.06 993.07,-125.04 996.58,-131.1"/>
</a>
</g>
</g>
<!-- Node22&#45;&gt;Node3 -->
<g id="edge39_Node000022_Node000003" class="edge">
<title>Node22&#45;&gt;Node3</title>
<g id="a_edge39_Node000022_Node000003"><a xlink:title=" ">
<path fill="none" stroke="#63b8ff" d="M712.69,-158.77C719.84,-140.4 735.99,-92.66 728.51,-53 726.8,-43.91 723.24,-34.29 719.82,-26.41"/>
<polygon fill="#63b8ff" stroke="#63b8ff" points="722.95,-24.85 715.57,-17.25 716.6,-27.8 722.95,-24.85"/>
</a>
</g>
</g>
<!-- Node22&#45;&gt;Node4 -->
<g id="edge41_Node000022_Node000004" class="edge">
<title>Node22&#45;&gt;Node4</title>
<g id="a_edge41_Node000022_Node000004"><a xlink:title=" ">
<path fill="none" stroke="#63b8ff" d="M686.05,-158.86C662.82,-150.98 626.49,-137.78 596.51,-123 567.66,-108.78 536.28,-88.75 516.75,-75.7"/>
<polygon fill="#63b8ff" stroke="#63b8ff" points="518.67,-72.77 508.42,-70.08 514.75,-78.58 518.67,-72.77"/>
</a>
</g>
</g>
<!-- Node22&#45;&gt;Node9 -->
<g id="edge42_Node000022_Node000009" class="edge">
<title>Node22&#45;&gt;Node9</title>
<g id="a_edge42_Node000022_Node000009"><a xlink:title=" ">
<path fill="none" stroke="#63b8ff" d="M696.97,-158.97C683.54,-150.91 661.98,-137.98 645.86,-128.31"/>
<polygon fill="#63b8ff" stroke="#63b8ff" points="647.48,-125.2 637.11,-123.06 643.88,-131.2 647.48,-125.2"/>
</a>
</g>
</g>
<!-- Node22&#45;&gt;Node10 -->
<g id="edge43_Node000022_Node000010" class="edge">
<title>Node22&#45;&gt;Node10</title>
<g id="a_edge43_Node000022_Node000010"><a xlink:title=" ">
<path fill="none" stroke="#63b8ff" d="M729.88,-158.97C753.01,-150.42 790.99,-136.39 817.52,-126.59"/>
<polygon fill="#63b8ff" stroke="#63b8ff" points="818.9,-129.81 827.07,-123.06 816.47,-123.24 818.9,-129.81"/>
</a>
</g>
</g>
<!-- Node22&#45;&gt;Node13 -->
<g id="edge40_Node000022_Node000013" class="edge">
<title>Node22&#45;&gt;Node13</title>
<g id="a_edge40_Node000022_Node000013"><a xlink:title=" ">
<path fill="none" stroke="#63b8ff" d="M721.01,-158.94C732.39,-151.03 749.76,-137.72 761.51,-123 772.1,-109.74 780.57,-92.3 785.97,-79.55"/>
<polygon fill="#63b8ff" stroke="#63b8ff" points="789.27,-80.72 789.75,-70.14 782.77,-78.11 789.27,-80.72"/>
</a>
</g>
</g>
<!-- Node22&#45;&gt;Node15 -->
<g id="edge44_Node000022_Node000015" class="edge">
<title>Node22&#45;&gt;Node15</title>
<g id="a_edge44_Node000022_Node000015"><a xlink:title=" ">
<path fill="none" stroke="#63b8ff" d="M707.03,-158.68C701.75,-142.04 689.29,-102.75 682.02,-79.87"/>
<polygon fill="#63b8ff" stroke="#63b8ff" points="685.29,-78.6 678.93,-70.12 678.62,-80.72 685.29,-78.6"/>
</a>
</g>
</g>
</g>
</svg>
