<?xml version="1.0" encoding="UTF-8" standalone="no"?>
<!DOCTYPE svg PUBLIC "-//W3C//DTD SVG 1.1//EN"
 "http://www.w3.org/Graphics/SVG/1.1/DTD/svg11.dtd">
<!-- Generated by graphviz version 2.43.0 (0)
 -->
<!-- Title: gjps.hpp Pages: 1 -->
<svg width="1620pt" height="290pt"
 viewBox="0.00 0.00 1620.12 290.00" xmlns="http://www.w3.org/2000/svg" xmlns:xlink="http://www.w3.org/1999/xlink">
<g id="graph0" class="graph" transform="scale(1 1) rotate(0) translate(4 286)">
<title>gjps.hpp</title>
<!-- Node1 -->
<g id="Node000001" class="node">
<title>Node1</title>
<g id="a_Node000001"><a xlink:title=" ">
<polygon fill="#999999" stroke="#666666" points="825.5,-282 778.5,-282 778.5,-265 825.5,-265 825.5,-282"/>
<text text-anchor="middle" x="802" y="-271.6" font-family="Helvetica,sans-Serif" font-size="8.00">gjps.hpp</text>
</a>
</g>
</g>
<!-- Node2 -->
<g id="Node000002" class="node">
<title>Node2</title>
<g id="a_Node000002"><a xlink:title=" ">
<polygon fill="#e0e0e0" stroke="#999999" points="142.5,-70 107.5,-70 107.5,-53 142.5,-53 142.5,-70"/>
<text text-anchor="middle" x="125" y="-59.6" font-family="Helvetica,sans-Serif" font-size="8.00">array</text>
</a>
</g>
</g>
<!-- Node1&#45;&gt;Node2 -->
<g id="edge1_Node000001_Node000002" class="edge">
<title>Node1&#45;&gt;Node2</title>
<g id="a_edge1_Node000001_Node000002"><a xlink:title=" ">
<path fill="none" stroke="#63b8ff" d="M778.48,-269.77C728.81,-263.82 609.69,-248.67 511,-229 320.5,-191.04 206.54,-276.1 87,-123 75.21,-107.9 91.47,-89.01 106.23,-76.39"/>
<polygon fill="#63b8ff" stroke="#63b8ff" points="108.47,-79.08 114.08,-70.09 104.09,-73.61 108.47,-79.08"/>
</a>
</g>
</g>
<!-- Node3 -->
<g id="Node000003" class="node">
<title>Node3</title>
<g id="a_Node000003"><a xlink:title=" ">
<polygon fill="#e0e0e0" stroke="#999999" points="663,-17 621,-17 621,0 663,0 663,-17"/>
<text text-anchor="middle" x="642" y="-6.6" font-family="Helvetica,sans-Serif" font-size="8.00">cstddef</text>
</a>
</g>
</g>
<!-- Node1&#45;&gt;Node3 -->
<g id="edge2_Node000001_Node000003" class="edge">
<title>Node1&#45;&gt;Node3</title>
<g id="a_edge2_Node000001_Node000003"><a xlink:title=" ">
<path fill="none" stroke="#63b8ff" d="M778.43,-271.99C645.96,-268.8 0,-249.14 0,-168.5 0,-168.5 0,-168.5 0,-113.5 0,-62.31 49.35,-68.93 98,-53 194.32,-21.46 509.62,-12.26 610.59,-10.08"/>
<polygon fill="#63b8ff" stroke="#63b8ff" points="610.83,-13.58 620.75,-9.87 610.68,-6.58 610.83,-13.58"/>
</a>
</g>
</g>
<!-- Node4 -->
<g id="Node000004" class="node">
<title>Node4</title>
<g id="a_Node000004"><a xlink:title=" ">
<polygon fill="#e0e0e0" stroke="#999999" points="1599.5,-123 1560.5,-123 1560.5,-106 1599.5,-106 1599.5,-123"/>
<text text-anchor="middle" x="1580" y="-112.6" font-family="Helvetica,sans-Serif" font-size="8.00">cstdint</text>
</a>
</g>
</g>
<!-- Node1&#45;&gt;Node4 -->
<g id="edge3_Node000001_Node000004" class="edge">
<title>Node1&#45;&gt;Node4</title>
<g id="a_edge3_Node000001_Node000004"><a xlink:title=" ">
<path fill="none" stroke="#63b8ff" d="M825.52,-272.1C926.32,-270.22 1322.14,-260.91 1442,-229 1494.05,-215.14 1513.02,-214.2 1551,-176 1562.93,-164 1570.66,-146.13 1575.12,-132.92"/>
<polygon fill="#63b8ff" stroke="#63b8ff" points="1578.53,-133.74 1578.11,-123.15 1571.83,-131.69 1578.53,-133.74"/>
</a>
</g>
</g>
<!-- Node5 -->
<g id="Node000005" class="node">
<title>Node5</title>
<g id="a_Node000005"><a xlink:title=" ">
<polygon fill="#e0e0e0" stroke="#999999" points="610.5,-70 557.5,-70 557.5,-53 610.5,-53 610.5,-70"/>
<text text-anchor="middle" x="584" y="-59.6" font-family="Helvetica,sans-Serif" font-size="8.00">type_traits</text>
</a>
</g>
</g>
<!-- Node1&#45;&gt;Node5 -->
<g id="edge4_Node000001_Node000005" class="edge">
<title>Node1&#45;&gt;Node5</title>
<g id="a_edge4_Node000001_Node000005"><a xlink:title=" ">
<path fill="none" stroke="#63b8ff" d="M778.5,-268.95C690.3,-255.07 381.4,-201.41 329,-123 324.8,-116.72 324.13,-111.77 329,-106 356.5,-73.41 483.55,-65.23 547.3,-63.18"/>
<polygon fill="#63b8ff" stroke="#63b8ff" points="547.44,-66.68 557.34,-62.9 547.24,-59.68 547.44,-66.68"/>
</a>
</g>
</g>
<!-- Node6 -->
<g id="Node000006" class="node">
<title>Node6</title>
<g id="a_Node000006"><a xlink:title=" ">
<polygon fill="#e0e0e0" stroke="#999999" points="478,-123 444,-123 444,-106 478,-106 478,-123"/>
<text text-anchor="middle" x="461" y="-112.6" font-family="Helvetica,sans-Serif" font-size="8.00">utility</text>
</a>
</g>
</g>
<!-- Node1&#45;&gt;Node6 -->
<g id="edge5_Node000001_Node000006" class="edge">
<title>Node1&#45;&gt;Node6</title>
<g id="a_edge5_Node000001_Node000006"><a xlink:title=" ">
<path fill="none" stroke="#63b8ff" d="M789.67,-264.78C757.98,-245.16 670.7,-192.58 593,-159 557.61,-143.71 514.97,-130.56 487.92,-122.83"/>
<polygon fill="#63b8ff" stroke="#63b8ff" points="488.6,-119.39 478.03,-120.05 486.71,-126.13 488.6,-119.39"/>
</a>
</g>
</g>
<!-- Node7 -->
<g id="Node000007" class="node">
<title>Node7</title>
<g id="a_Node000007"><a xlink:title=" ">
<polygon fill="#e0e0e0" stroke="#999999" points="1016,-123 978,-123 978,-106 1016,-106 1016,-123"/>
<text text-anchor="middle" x="997" y="-112.6" font-family="Helvetica,sans-Serif" font-size="8.00">vector</text>
</a>
</g>
</g>
<!-- Node1&#45;&gt;Node7 -->
<g id="edge6_Node000001_Node000007" class="edge">
<title>Node1&#45;&gt;Node7</title>
<g id="a_edge6_Node000001_Node000007"><a xlink:title=" ">
<path fill="none" stroke="#63b8ff" d="M808.46,-264.88C825.14,-245.51 871.63,-193.44 918,-159 934.55,-146.71 954.97,-135.55 970.91,-127.62"/>
<polygon fill="#63b8ff" stroke="#63b8ff" points="972.71,-130.63 980.18,-123.11 969.65,-124.33 972.71,-130.63"/>
</a>
</g>
</g>
<!-- Node8 -->
<g id="Node000008" class="node">
<title>Node8</title>
<g id="a_Node000008"><a xlink:href="../../dc/d8a/grid_8hpp.html" target="_top" xlink:title=" ">
<polygon fill="white" stroke="#666666" points="584,-176 506,-176 506,-159 584,-159 584,-176"/>
<text text-anchor="middle" x="545" y="-165.6" font-family="Helvetica,sans-Serif" font-size="8.00">../mazes/grid.hpp</text>
</a>
</g>
</g>
<!-- Node1&#45;&gt;Node8 -->
<g id="edge7_Node000001_Node000008" class="edge">
<title>Node1&#45;&gt;Node8</title>
<g id="a_edge7_Node000001_Node000008"><a xlink:title=" ">
<path fill="none" stroke="#63b8ff" d="M778.32,-270.65C741.56,-267 669.37,-256.66 615,-229 592.71,-217.66 571.64,-197.74 558.55,-183.86"/>
<polygon fill="#63b8ff" stroke="#63b8ff" points="560.83,-181.16 551.5,-176.14 555.66,-185.88 560.83,-181.16"/>
</a>
</g>
</g>
<!-- Node11 -->
<g id="Node000011" class="node">
<title>Node11</title>
<g id="a_Node000011"><a xlink:href="../../df/d93/utils_8hpp.html" target="_top" xlink:title=" ">
<polygon fill="white" stroke="#666666" points="808,-123 740,-123 740,-106 808,-106 808,-123"/>
<text text-anchor="middle" x="774" y="-112.6" font-family="Helvetica,sans-Serif" font-size="8.00">../utils/utils.hpp</text>
</a>
</g>
</g>
<!-- Node1&#45;&gt;Node11 -->
<g id="edge41_Node000001_Node000011" class="edge">
<title>Node1&#45;&gt;Node11</title>
<g id="a_edge41_Node000001_Node000011"><a xlink:title=" ">
<path fill="none" stroke="#63b8ff" d="M800.65,-264.93C796.41,-241.15 783.28,-167.56 777.18,-133.33"/>
<polygon fill="#63b8ff" stroke="#63b8ff" points="780.6,-132.6 775.4,-123.37 773.71,-133.83 780.6,-132.6"/>
</a>
</g>
</g>
<!-- Node16 -->
<g id="Node000016" class="node">
<title>Node16</title>
<g id="a_Node000016"><a xlink:href="../../d7/d65/intrinsics_8hpp.html" target="_top" xlink:title=" ">
<polygon fill="#fff0f0" stroke="red" points="1195.5,-70 1110.5,-70 1110.5,-53 1195.5,-53 1195.5,-70"/>
<text text-anchor="middle" x="1153" y="-59.6" font-family="Helvetica,sans-Serif" font-size="8.00">../utils/intrinsics.hpp</text>
</a>
</g>
</g>
<!-- Node1&#45;&gt;Node16 -->
<g id="edge66_Node000001_Node000016" class="edge">
<title>Node1&#45;&gt;Node16</title>
<g id="a_edge66_Node000001_Node000016"><a xlink:title=" ">
<path fill="none" stroke="#63b8ff" d="M825.76,-272.52C931.33,-272.38 1358.33,-269.29 1485,-229 1554.09,-207.02 1586.81,-192.02 1609,-123 1611.31,-115.81 1614.08,-111.59 1609,-106 1582.32,-76.65 1320.24,-66.63 1205.9,-63.63"/>
<polygon fill="#63b8ff" stroke="#63b8ff" points="1205.72,-60.13 1195.63,-63.37 1205.54,-67.12 1205.72,-60.13"/>
</a>
</g>
</g>
<!-- Node21 -->
<g id="Node000021" class="node">
<title>Node21</title>
<g id="a_Node000021"><a xlink:href="../../d8/d62/existence__set_8hpp.html" target="_top" xlink:title=" ">
<polygon fill="white" stroke="#666666" points="1073.5,-176 926.5,-176 926.5,-159 1073.5,-159 1073.5,-176"/>
<text text-anchor="middle" x="1000" y="-165.6" font-family="Helvetica,sans-Serif" font-size="8.00">../types/containers/existence_set.hpp</text>
</a>
</g>
</g>
<!-- Node1&#45;&gt;Node21 -->
<g id="edge32_Node000001_Node000021" class="edge">
<title>Node1&#45;&gt;Node21</title>
<g id="a_edge32_Node000001_Node000021"><a xlink:title=" ">
<path fill="none" stroke="#63b8ff" d="M825.43,-264.96C848.17,-257.25 883.36,-244.25 912,-229 937.64,-215.34 964.86,-195.74 982.12,-182.58"/>
<polygon fill="#63b8ff" stroke="#63b8ff" points="984.4,-185.24 990.18,-176.36 980.12,-179.7 984.4,-185.24"/>
</a>
</g>
</g>
<!-- Node23 -->
<g id="Node000023" class="node">
<title>Node23</title>
<g id="a_Node000023"><a xlink:href="../../da/deb/managed__node_8hpp.html" target="_top" xlink:title=" ">
<polygon fill="white" stroke="#666666" points="1433,-229 1325,-229 1325,-212 1433,-212 1433,-229"/>
<text text-anchor="middle" x="1379" y="-218.6" font-family="Helvetica,sans-Serif" font-size="8.00">base/managed_node.hpp</text>
</a>
</g>
</g>
<!-- Node1&#45;&gt;Node23 -->
<g id="edge42_Node000001_Node000023" class="edge">
<title>Node1&#45;&gt;Node23</title>
<g id="a_edge42_Node000001_Node000023"><a xlink:title=" ">
<path fill="none" stroke="#63b8ff" d="M825.69,-270.41C908.59,-263.08 1187.45,-238.43 1314.71,-227.18"/>
<polygon fill="#63b8ff" stroke="#63b8ff" points="1315.05,-230.67 1324.71,-226.3 1314.44,-223.69 1315.05,-230.67"/>
</a>
</g>
</g>
<!-- Node28 -->
<g id="Node000028" class="node">
<title>Node28</title>
<g id="a_Node000028"><a xlink:href="../../d2/d1c/solver_8hpp.html" target="_top" xlink:title=" ">
<polygon fill="white" stroke="#666666" points="870,-176 798,-176 798,-159 870,-159 870,-176"/>
<text text-anchor="middle" x="834" y="-165.6" font-family="Helvetica,sans-Serif" font-size="8.00">base/solver.hpp</text>
</a>
</g>
</g>
<!-- Node1&#45;&gt;Node28 -->
<g id="edge59_Node000001_Node000028" class="edge">
<title>Node1&#45;&gt;Node28</title>
<g id="a_edge59_Node000001_Node000028"><a xlink:title=" ">
<path fill="none" stroke="#63b8ff" d="M804.41,-264.68C809.53,-248.04 821.61,-208.75 828.66,-185.87"/>
<polygon fill="#63b8ff" stroke="#63b8ff" points="832.06,-186.71 831.65,-176.12 825.37,-184.65 832.06,-186.71"/>
</a>
</g>
</g>
<!-- Node8&#45;&gt;Node2 -->
<g id="edge9_Node000008_Node000002" class="edge">
<title>Node8&#45;&gt;Node2</title>
<g id="a_edge9_Node000008_Node000002"><a xlink:title=" ">
<path fill="none" stroke="#63b8ff" d="M505.99,-165.66C401.69,-163.02 122.4,-153.18 95,-123 82.99,-109.77 95.91,-90.86 108.33,-77.71"/>
<polygon fill="#63b8ff" stroke="#63b8ff" points="111.11,-79.89 115.77,-70.38 106.2,-74.9 111.11,-79.89"/>
</a>
</g>
</g>
<!-- Node8&#45;&gt;Node3 -->
<g id="edge11_Node000008_Node000003" class="edge">
<title>Node8&#45;&gt;Node3</title>
<g id="a_edge11_Node000008_Node000003"><a xlink:title=" ">
<path fill="none" stroke="#63b8ff" d="M505.89,-164.38C449.83,-160.44 350.93,-149.79 329,-123 324.21,-117.15 324.56,-112.11 329,-106 362.76,-59.52 538.23,-26.29 610.67,-14.36"/>
<polygon fill="#63b8ff" stroke="#63b8ff" points="611.27,-17.8 620.58,-12.75 610.15,-10.89 611.27,-17.8"/>
</a>
</g>
</g>
<!-- Node8&#45;&gt;Node5 -->
<g id="edge12_Node000008_Node000005" class="edge">
<title>Node8&#45;&gt;Node5</title>
<g id="a_edge12_Node000008_Node000005"><a xlink:title=" ">
<path fill="none" stroke="#63b8ff" d="M505.72,-160.06C465.99,-151.79 413.3,-134.95 435,-106 448.47,-88.04 507.52,-75.03 547.11,-68.14"/>
<polygon fill="#63b8ff" stroke="#63b8ff" points="547.94,-71.55 557.22,-66.44 546.77,-64.65 547.94,-71.55"/>
</a>
</g>
</g>
<!-- Node8&#45;&gt;Node6 -->
<g id="edge13_Node000008_Node000006" class="edge">
<title>Node8&#45;&gt;Node6</title>
<g id="a_edge13_Node000008_Node000006"><a xlink:title=" ">
<path fill="none" stroke="#63b8ff" d="M532.61,-158.97C519.33,-150.91 498.02,-137.98 482.1,-128.31"/>
<polygon fill="#63b8ff" stroke="#63b8ff" points="483.81,-125.25 473.45,-123.06 480.18,-131.24 483.81,-125.25"/>
</a>
</g>
</g>
<!-- Node8&#45;&gt;Node7 -->
<g id="edge14_Node000008_Node000007" class="edge">
<title>Node8&#45;&gt;Node7</title>
<g id="a_edge14_Node000008_Node000007"><a xlink:title=" ">
<path fill="none" stroke="#63b8ff" d="M584.32,-162.06C673.35,-152.02 888.7,-127.72 967.49,-118.83"/>
<polygon fill="#63b8ff" stroke="#63b8ff" points="968.13,-122.28 977.68,-117.68 967.35,-115.32 968.13,-122.28"/>
</a>
</g>
</g>
<!-- Node9 -->
<g id="Node000009" class="node">
<title>Node9</title>
<g id="a_Node000009"><a xlink:title=" ">
<polygon fill="#e0e0e0" stroke="#999999" points="388,-123 338,-123 338,-106 388,-106 388,-123"/>
<text text-anchor="middle" x="363" y="-112.6" font-family="Helvetica,sans-Serif" font-size="8.00">algorithm</text>
</a>
</g>
</g>
<!-- Node8&#45;&gt;Node9 -->
<g id="edge8_Node000008_Node000009" class="edge">
<title>Node8&#45;&gt;Node9</title>
<g id="a_edge8_Node000008_Node000009"><a xlink:title=" ">
<path fill="none" stroke="#63b8ff" d="M518.15,-158.97C486.29,-150.05 433.09,-135.14 398.02,-125.31"/>
<polygon fill="#63b8ff" stroke="#63b8ff" points="398.78,-121.89 388.2,-122.56 396.89,-128.63 398.78,-121.89"/>
</a>
</g>
</g>
<!-- Node10 -->
<g id="Node000010" class="node">
<title>Node10</title>
<g id="a_Node000010"><a xlink:title=" ">
<polygon fill="#e0e0e0" stroke="#999999" points="1190,-123 1148,-123 1148,-106 1190,-106 1190,-123"/>
<text text-anchor="middle" x="1169" y="-112.6" font-family="Helvetica,sans-Serif" font-size="8.00">cassert</text>
</a>
</g>
</g>
<!-- Node8&#45;&gt;Node10 -->
<g id="edge10_Node000008_Node000010" class="edge">
<title>Node8&#45;&gt;Node10</title>
<g id="a_edge10_Node000008_Node000010"><a xlink:title=" ">
<path fill="none" stroke="#63b8ff" d="M584.03,-163.31C698.84,-153.93 1033.81,-126.55 1137.82,-118.05"/>
<polygon fill="#63b8ff" stroke="#63b8ff" points="1138.29,-121.52 1147.97,-117.22 1137.72,-114.54 1138.29,-121.52"/>
</a>
</g>
</g>
<!-- Node8&#45;&gt;Node11 -->
<g id="edge15_Node000008_Node000011" class="edge">
<title>Node8&#45;&gt;Node11</title>
<g id="a_edge15_Node000008_Node000011"><a xlink:title=" ">
<path fill="none" stroke="#63b8ff" d="M578.79,-158.97C618.96,-150.03 686.09,-135.08 730.2,-125.25"/>
<polygon fill="#63b8ff" stroke="#63b8ff" points="731.07,-128.65 740.07,-123.06 729.55,-121.81 731.07,-128.65"/>
</a>
</g>
</g>
<!-- Node8&#45;&gt;Node16 -->
<g id="edge28_Node000008_Node000016" class="edge">
<title>Node8&#45;&gt;Node16</title>
<g id="a_edge28_Node000008_Node000016"><a xlink:title=" ">
<path fill="none" stroke="#63b8ff" d="M584.23,-160.47C637.13,-152.29 734.26,-137.06 817,-123 918.5,-105.75 1036.96,-84.05 1102.63,-71.89"/>
<polygon fill="#63b8ff" stroke="#63b8ff" points="1103.51,-75.28 1112.7,-70.02 1102.23,-68.4 1103.51,-75.28"/>
</a>
</g>
</g>
<!-- Node19 -->
<g id="Node000019" class="node">
<title>Node19</title>
<g id="a_Node000019"><a xlink:href="../../d1/d2d/weighted__node_8hpp.html" target="_top" xlink:title=" ">
<polygon fill="white" stroke="#666666" points="683.5,-123 572.5,-123 572.5,-106 683.5,-106 683.5,-123"/>
<text text-anchor="middle" x="628" y="-112.6" font-family="Helvetica,sans-Serif" font-size="8.00">nodes/weighted_node.hpp</text>
</a>
</g>
</g>
<!-- Node8&#45;&gt;Node19 -->
<g id="edge25_Node000008_Node000019" class="edge">
<title>Node8&#45;&gt;Node19</title>
<g id="a_edge25_Node000008_Node000019"><a xlink:title=" ">
<path fill="none" stroke="#63b8ff" d="M557.25,-158.97C570.36,-150.91 591.42,-137.98 607.15,-128.31"/>
<polygon fill="#63b8ff" stroke="#63b8ff" points="609.02,-131.27 615.7,-123.06 605.35,-125.31 609.02,-131.27"/>
</a>
</g>
</g>
<!-- Node20 -->
<g id="Node000020" class="node">
<title>Node20</title>
<g id="a_Node000020"><a xlink:href="../../d9/dfc/coord_8hpp.html" target="_top" xlink:title=" ">
<polygon fill="white" stroke="#666666" points="244,-123 104,-123 104,-106 244,-106 244,-123"/>
<text text-anchor="middle" x="174" y="-112.6" font-family="Helvetica,sans-Serif" font-size="8.00">include/types/containers/coord.hpp</text>
</a>
</g>
</g>
<!-- Node8&#45;&gt;Node20 -->
<g id="edge29_Node000008_Node000020" class="edge">
<title>Node8&#45;&gt;Node20</title>
<g id="a_edge29_Node000008_Node000020"><a xlink:title=" ">
<path fill="none" stroke="#63b8ff" d="M506,-161.14C442.44,-152.4 315.87,-135 238.68,-124.39"/>
<polygon fill="#63b8ff" stroke="#63b8ff" points="238.98,-120.9 228.6,-123.01 238.03,-127.83 238.98,-120.9"/>
</a>
</g>
</g>
<!-- Node11&#45;&gt;Node2 -->
<g id="edge16_Node000011_Node000002" class="edge">
<title>Node11&#45;&gt;Node2</title>
<g id="a_edge16_Node000011_Node000002"><a xlink:title=" ">
<path fill="none" stroke="#63b8ff" d="M739.72,-110.2C725.3,-108.85 708.34,-107.3 693,-106 485.51,-88.45 235.11,-70.34 152.74,-64.47"/>
<polygon fill="#63b8ff" stroke="#63b8ff" points="152.9,-60.97 142.68,-63.75 152.4,-67.95 152.9,-60.97"/>
</a>
</g>
</g>
<!-- Node11&#45;&gt;Node3 -->
<g id="edge18_Node000011_Node000003" class="edge">
<title>Node11&#45;&gt;Node3</title>
<g id="a_edge18_Node000011_Node000003"><a xlink:title=" ">
<path fill="none" stroke="#63b8ff" d="M774.11,-105.77C773.86,-93.13 771.56,-67.99 758,-53 736.19,-28.89 699.69,-18.08 673.45,-13.28"/>
<polygon fill="#63b8ff" stroke="#63b8ff" points="673.69,-9.77 663.26,-11.61 672.56,-16.68 673.69,-9.77"/>
</a>
</g>
</g>
<!-- Node11&#45;&gt;Node5 -->
<g id="edge22_Node000011_Node000005" class="edge">
<title>Node11&#45;&gt;Node5</title>
<g id="a_edge22_Node000011_Node000005"><a xlink:title=" ">
<path fill="none" stroke="#63b8ff" d="M745.96,-105.97C712.66,-97.03 657.01,-82.1 620.4,-72.27"/>
<polygon fill="#63b8ff" stroke="#63b8ff" points="621.18,-68.86 610.62,-69.64 619.37,-75.62 621.18,-68.86"/>
</a>
</g>
</g>
<!-- Node12 -->
<g id="Node000012" class="node">
<title>Node12</title>
<g id="a_Node000012"><a xlink:title=" ">
<polygon fill="#e0e0e0" stroke="#999999" points="695,-70 657,-70 657,-53 695,-53 695,-70"/>
<text text-anchor="middle" x="676" y="-59.6" font-family="Helvetica,sans-Serif" font-size="8.00">cmath</text>
</a>
</g>
</g>
<!-- Node11&#45;&gt;Node12 -->
<g id="edge17_Node000011_Node000012" class="edge">
<title>Node11&#45;&gt;Node12</title>
<g id="a_edge17_Node000011_Node000012"><a xlink:title=" ">
<path fill="none" stroke="#63b8ff" d="M759.54,-105.97C743.76,-97.76 718.26,-84.49 699.58,-74.77"/>
<polygon fill="#63b8ff" stroke="#63b8ff" points="701.01,-71.57 690.52,-70.06 697.77,-77.78 701.01,-71.57"/>
</a>
</g>
</g>
<!-- Node13 -->
<g id="Node000013" class="node">
<title>Node13</title>
<g id="a_Node000013"><a xlink:title=" ">
<polygon fill="#e0e0e0" stroke="#999999" points="859,-70 809,-70 809,-53 859,-53 859,-70"/>
<text text-anchor="middle" x="834" y="-59.6" font-family="Helvetica,sans-Serif" font-size="8.00">functional</text>
</a>
</g>
</g>
<!-- Node11&#45;&gt;Node13 -->
<g id="edge19_Node000011_Node000013" class="edge">
<title>Node11&#45;&gt;Node13</title>
<g id="a_edge19_Node000011_Node000013"><a xlink:title=" ">
<path fill="none" stroke="#63b8ff" d="M782.85,-105.97C791.89,-98.29 806.14,-86.18 817.31,-76.69"/>
<polygon fill="#63b8ff" stroke="#63b8ff" points="819.76,-79.2 825.11,-70.06 815.22,-73.87 819.76,-79.2"/>
</a>
</g>
</g>
<!-- Node14 -->
<g id="Node000014" class="node">
<title>Node14</title>
<g id="a_Node000014"><a xlink:title=" ">
<polygon fill="#e0e0e0" stroke="#999999" points="929,-70 895,-70 895,-53 929,-53 929,-70"/>
<text text-anchor="middle" x="912" y="-59.6" font-family="Helvetica,sans-Serif" font-size="8.00">limits</text>
</a>
</g>
</g>
<!-- Node11&#45;&gt;Node14 -->
<g id="edge20_Node000011_Node000014" class="edge">
<title>Node11&#45;&gt;Node14</title>
<g id="a_edge20_Node000011_Node000014"><a xlink:title=" ">
<path fill="none" stroke="#63b8ff" d="M794.36,-105.97C818.43,-97.08 858.56,-82.25 885.15,-72.42"/>
<polygon fill="#63b8ff" stroke="#63b8ff" points="886.45,-75.67 894.61,-68.93 884.02,-69.11 886.45,-75.67"/>
</a>
</g>
</g>
<!-- Node15 -->
<g id="Node000015" class="node">
<title>Node15</title>
<g id="a_Node000015"><a xlink:title=" ">
<polygon fill="#e0e0e0" stroke="#999999" points="749,-70 713,-70 713,-53 749,-53 749,-70"/>
<text text-anchor="middle" x="731" y="-59.6" font-family="Helvetica,sans-Serif" font-size="8.00">string</text>
</a>
</g>
</g>
<!-- Node11&#45;&gt;Node15 -->
<g id="edge21_Node000011_Node000015" class="edge">
<title>Node11&#45;&gt;Node15</title>
<g id="a_edge21_Node000011_Node000015"><a xlink:title=" ">
<path fill="none" stroke="#63b8ff" d="M767.66,-105.97C761.43,-98.59 751.76,-87.12 743.91,-77.81"/>
<polygon fill="#63b8ff" stroke="#63b8ff" points="746.49,-75.45 737.37,-70.06 741.14,-79.96 746.49,-75.45"/>
</a>
</g>
</g>
<!-- Node11&#45;&gt;Node16 -->
<g id="edge23_Node000011_Node000016" class="edge">
<title>Node11&#45;&gt;Node16</title>
<g id="a_edge23_Node000011_Node000016"><a xlink:title=" ">
<path fill="none" stroke="#63b8ff" d="M808.3,-108.88C874.74,-99.94 1021.37,-80.21 1100.28,-69.59"/>
<polygon fill="#63b8ff" stroke="#63b8ff" points="1101.04,-73.02 1110.49,-68.22 1100.11,-66.09 1101.04,-73.02"/>
</a>
</g>
</g>
<!-- Node16&#45;&gt;Node3 -->
<g id="edge24_Node000016_Node000003" class="edge">
<title>Node16&#45;&gt;Node3</title>
<g id="a_edge24_Node000016_Node000003"><a xlink:title=" ">
<path fill="none" stroke="#63b8ff" d="M1110.38,-54.72C1105.53,-54.12 1100.66,-53.53 1096,-53 937.4,-34.97 747.07,-18.36 673.32,-12.12"/>
<polygon fill="#63b8ff" stroke="#63b8ff" points="673.56,-8.63 663.3,-11.27 672.97,-15.6 673.56,-8.63"/>
</a>
</g>
</g>
<!-- Node19&#45;&gt;Node5 -->
<g id="edge27_Node000019_Node000005" class="edge">
<title>Node19&#45;&gt;Node5</title>
<g id="a_edge27_Node000019_Node000005"><a xlink:title=" ">
<path fill="none" stroke="#63b8ff" d="M621.51,-105.97C615.14,-98.59 605.24,-87.12 597.21,-77.81"/>
<polygon fill="#63b8ff" stroke="#63b8ff" points="599.7,-75.34 590.52,-70.06 594.4,-79.91 599.7,-75.34"/>
</a>
</g>
</g>
<!-- Node19&#45;&gt;Node14 -->
<g id="edge26_Node000019_Node000014" class="edge">
<title>Node19&#45;&gt;Node14</title>
<g id="a_edge26_Node000019_Node000014"><a xlink:title=" ">
<path fill="none" stroke="#63b8ff" d="M669.91,-105.97C728.99,-95.37 835.1,-76.31 884.86,-67.37"/>
<polygon fill="#63b8ff" stroke="#63b8ff" points="885.63,-70.79 894.86,-65.58 884.4,-63.9 885.63,-70.79"/>
</a>
</g>
</g>
<!-- Node20&#45;&gt;Node2 -->
<g id="edge30_Node000020_Node000002" class="edge">
<title>Node20&#45;&gt;Node2</title>
<g id="a_edge30_Node000020_Node000002"><a xlink:title=" ">
<path fill="none" stroke="#63b8ff" d="M166.77,-105.97C159.6,-98.52 148.43,-86.89 139.44,-77.53"/>
<polygon fill="#63b8ff" stroke="#63b8ff" points="141.71,-74.84 132.26,-70.06 136.66,-79.69 141.71,-74.84"/>
</a>
</g>
</g>
<!-- Node20&#45;&gt;Node3 -->
<g id="edge31_Node000020_Node000003" class="edge">
<title>Node20&#45;&gt;Node3</title>
<g id="a_edge31_Node000020_Node000003"><a xlink:title=" ">
<path fill="none" stroke="#63b8ff" d="M185.9,-105.89C207.11,-92.72 253.22,-65.89 296,-53 408.38,-19.13 548.97,-11.61 610.6,-9.96"/>
<polygon fill="#63b8ff" stroke="#63b8ff" points="610.91,-13.45 620.83,-9.72 610.75,-6.45 610.91,-13.45"/>
</a>
</g>
</g>
<!-- Node21&#45;&gt;Node3 -->
<g id="edge33_Node000021_Node000003" class="edge">
<title>Node21&#45;&gt;Node3</title>
<g id="a_edge33_Node000021_Node000003"><a xlink:title=" ">
<path fill="none" stroke="#63b8ff" d="M1011.33,-158.98C1026.94,-147.66 1051.83,-125.48 1040,-106 1013.48,-62.33 986.61,-68.71 938,-53 844.87,-22.9 728.46,-13.54 673.51,-10.7"/>
<polygon fill="#63b8ff" stroke="#63b8ff" points="673.52,-7.2 663.36,-10.22 673.18,-14.19 673.52,-7.2"/>
</a>
</g>
</g>
<!-- Node21&#45;&gt;Node5 -->
<g id="edge37_Node000021_Node000005" class="edge">
<title>Node21&#45;&gt;Node5</title>
<g id="a_edge37_Node000021_Node000005"><a xlink:title=" ">
<path fill="none" stroke="#63b8ff" d="M926.35,-159.82C871.62,-153.6 795.59,-142.31 731,-123 713.27,-117.7 710.04,-113.21 693,-106 666.15,-94.64 635.26,-82.39 613.24,-73.79"/>
<polygon fill="#63b8ff" stroke="#63b8ff" points="614.38,-70.48 603.79,-70.12 611.84,-77.01 614.38,-70.48"/>
</a>
</g>
</g>
<!-- Node21&#45;&gt;Node7 -->
<g id="edge38_Node000021_Node000007" class="edge">
<title>Node21&#45;&gt;Node7</title>
<g id="a_edge38_Node000021_Node000007"><a xlink:title=" ">
<path fill="none" stroke="#63b8ff" d="M999.56,-158.97C999.16,-152.19 998.56,-141.97 998.04,-133.13"/>
<polygon fill="#63b8ff" stroke="#63b8ff" points="1001.53,-132.83 997.44,-123.06 994.54,-133.24 1001.53,-132.83"/>
</a>
</g>
</g>
<!-- Node21&#45;&gt;Node11 -->
<g id="edge39_Node000021_Node000011" class="edge">
<title>Node21&#45;&gt;Node11</title>
<g id="a_edge39_Node000021_Node000011"><a xlink:title=" ">
<path fill="none" stroke="#63b8ff" d="M966.65,-158.97C927.1,-150.05 861.04,-135.14 817.5,-125.32"/>
<polygon fill="#63b8ff" stroke="#63b8ff" points="818.01,-121.84 807.48,-123.06 816.47,-128.67 818.01,-121.84"/>
</a>
</g>
</g>
<!-- Node21&#45;&gt;Node13 -->
<g id="edge34_Node000021_Node000013" class="edge">
<title>Node21&#45;&gt;Node13</title>
<g id="a_edge34_Node000021_Node000013"><a xlink:title=" ">
<path fill="none" stroke="#63b8ff" d="M987.79,-158.85C959.61,-141.2 889.76,-97.43 854.73,-75.49"/>
<polygon fill="#63b8ff" stroke="#63b8ff" points="856.56,-72.5 846.22,-70.16 852.84,-78.43 856.56,-72.5"/>
</a>
</g>
</g>
<!-- Node21&#45;&gt;Node14 -->
<g id="edge35_Node000021_Node000014" class="edge">
<title>Node21&#45;&gt;Node14</title>
<g id="a_edge35_Node000021_Node000014"><a xlink:title=" ">
<path fill="none" stroke="#63b8ff" d="M1007.63,-158.93C1018.74,-146.95 1036.84,-123.24 1025,-106 1005.86,-78.13 966.17,-68.11 939.3,-64.51"/>
<polygon fill="#63b8ff" stroke="#63b8ff" points="939.34,-60.99 929.01,-63.36 938.56,-67.95 939.34,-60.99"/>
</a>
</g>
</g>
<!-- Node21&#45;&gt;Node16 -->
<g id="edge40_Node000021_Node000016" class="edge">
<title>Node21&#45;&gt;Node16</title>
<g id="a_edge40_Node000021_Node000016"><a xlink:title=" ">
<path fill="none" stroke="#63b8ff" d="M1023.05,-158.94C1043.38,-151.63 1073.22,-139.27 1096,-123 1113.75,-110.32 1130.4,-91.53 1141.07,-78.26"/>
<polygon fill="#63b8ff" stroke="#63b8ff" points="1144.05,-80.13 1147.44,-70.1 1138.53,-75.83 1144.05,-80.13"/>
</a>
</g>
</g>
<!-- Node22 -->
<g id="Node000022" class="node">
<title>Node22</title>
<g id="a_Node000022"><a xlink:title=" ">
<polygon fill="#e0e0e0" stroke="#999999" points="1290,-123 1208,-123 1208,-106 1290,-106 1290,-123"/>
<text text-anchor="middle" x="1249" y="-112.6" font-family="Helvetica,sans-Serif" font-size="8.00">memory_resource</text>
</a>
</g>
</g>
<!-- Node21&#45;&gt;Node22 -->
<g id="edge36_Node000021_Node000022" class="edge">
<title>Node21&#45;&gt;Node22</title>
<g id="a_edge36_Node000021_Node000022"><a xlink:title=" ">
<path fill="none" stroke="#63b8ff" d="M1036.74,-158.97C1080.69,-149.97 1154.33,-134.89 1202.29,-125.07"/>
<polygon fill="#63b8ff" stroke="#63b8ff" points="1203.01,-128.49 1212.11,-123.06 1201.61,-121.63 1203.01,-128.49"/>
</a>
</g>
</g>
<!-- Node23&#45;&gt;Node4 -->
<g id="edge44_Node000023_Node000004" class="edge">
<title>Node23&#45;&gt;Node4</title>
<g id="a_edge44_Node000023_Node000004"><a xlink:title=" ">
<path fill="none" stroke="#63b8ff" d="M1430.7,-211.98C1460.88,-205.81 1498.67,-194.9 1528,-176 1545.78,-164.54 1560.86,-145.22 1570.13,-131.49"/>
<polygon fill="#63b8ff" stroke="#63b8ff" points="1573.09,-133.35 1575.58,-123.05 1567.21,-129.56 1573.09,-133.35"/>
</a>
</g>
</g>
<!-- Node23&#45;&gt;Node10 -->
<g id="edge43_Node000023_Node000010" class="edge">
<title>Node23&#45;&gt;Node10</title>
<g id="a_edge43_Node000023_Node000010"><a xlink:title=" ">
<path fill="none" stroke="#63b8ff" d="M1337.63,-211.96C1307.99,-205.38 1267.85,-194.02 1236,-176 1214.99,-164.11 1195.01,-144.63 1182.42,-130.99"/>
<polygon fill="#63b8ff" stroke="#63b8ff" points="1184.88,-128.49 1175.6,-123.38 1179.66,-133.16 1184.88,-128.49"/>
</a>
</g>
</g>
<!-- Node23&#45;&gt;Node16 -->
<g id="edge58_Node000023_Node000016" class="edge">
<title>Node23&#45;&gt;Node16</title>
<g id="a_edge58_Node000023_Node000016"><a xlink:title=" ">
<path fill="none" stroke="#63b8ff" d="M1388.91,-211.8C1416.81,-189.71 1492.83,-126.4 1475,-106 1440.69,-66.74 1288.05,-61.5 1205.85,-61.62"/>
<polygon fill="#63b8ff" stroke="#63b8ff" points="1205.69,-58.12 1195.7,-61.66 1205.72,-65.12 1205.69,-58.12"/>
</a>
</g>
</g>
<!-- Node24 -->
<g id="Node000024" class="node">
<title>Node24</title>
<g id="a_Node000024"><a xlink:href="../../dc/d3c/bnode_8hpp.html" target="_top" xlink:title=" ">
<polygon fill="white" stroke="#666666" points="1518.5,-176 1463.5,-176 1463.5,-159 1518.5,-159 1518.5,-176"/>
<text text-anchor="middle" x="1491" y="-165.6" font-family="Helvetica,sans-Serif" font-size="8.00">bnode.hpp</text>
</a>
</g>
</g>
<!-- Node23&#45;&gt;Node24 -->
<g id="edge45_Node000023_Node000024" class="edge">
<title>Node23&#45;&gt;Node24</title>
<g id="a_edge45_Node000023_Node000024"><a xlink:title=" ">
<path fill="none" stroke="#63b8ff" d="M1395.53,-211.97C1413.89,-203.61 1443.77,-190 1465.22,-180.24"/>
<polygon fill="#63b8ff" stroke="#63b8ff" points="1466.76,-183.39 1474.41,-176.06 1463.85,-177.01 1466.76,-183.39"/>
</a>
</g>
</g>
<!-- Node25 -->
<g id="Node000025" class="node">
<title>Node25</title>
<g id="a_Node000025"><a xlink:href="../../d9/df8/heterogeneous__pool_8hpp.html" target="_top" xlink:title=" ">
<polygon fill="white" stroke="#666666" points="1401.5,-176 1244.5,-176 1244.5,-159 1401.5,-159 1401.5,-176"/>
<text text-anchor="middle" x="1323" y="-165.6" font-family="Helvetica,sans-Serif" font-size="8.00">../../types/pmr/heterogeneous_pool.hpp</text>
</a>
</g>
</g>
<!-- Node23&#45;&gt;Node25 -->
<g id="edge46_Node000023_Node000025" class="edge">
<title>Node23&#45;&gt;Node25</title>
<g id="a_edge46_Node000023_Node000025"><a xlink:title=" ">
<path fill="none" stroke="#63b8ff" d="M1370.74,-211.97C1362.38,-204.37 1349.26,-192.41 1338.88,-182.97"/>
<polygon fill="#63b8ff" stroke="#63b8ff" points="1341.05,-180.2 1331.3,-176.06 1336.33,-185.38 1341.05,-180.2"/>
</a>
</g>
</g>
<!-- Node25&#45;&gt;Node3 -->
<g id="edge48_Node000025_Node000003" class="edge">
<title>Node25&#45;&gt;Node3</title>
<g id="a_edge48_Node000025_Node000003"><a xlink:title=" ">
<path fill="none" stroke="#63b8ff" d="M1401.57,-159.76C1450.88,-152.41 1500.67,-137.2 1475,-106 1422.94,-42.73 818.3,-16.11 673.17,-10.61"/>
<polygon fill="#63b8ff" stroke="#63b8ff" points="673.28,-7.11 663.16,-10.24 673.02,-14.11 673.28,-7.11"/>
</a>
</g>
</g>
<!-- Node25&#45;&gt;Node4 -->
<g id="edge49_Node000025_Node000004" class="edge">
<title>Node25&#45;&gt;Node4</title>
<g id="a_edge49_Node000025_Node000004"><a xlink:title=" ">
<path fill="none" stroke="#63b8ff" d="M1363.35,-158.94C1408.06,-150.48 1482.28,-136.24 1546,-123 1547.44,-122.7 1548.92,-122.39 1550.41,-122.07"/>
<polygon fill="#63b8ff" stroke="#63b8ff" points="1551.21,-125.48 1560.24,-119.94 1549.73,-118.64 1551.21,-125.48"/>
</a>
</g>
</g>
<!-- Node25&#45;&gt;Node6 -->
<g id="edge53_Node000025_Node000006" class="edge">
<title>Node25&#45;&gt;Node6</title>
<g id="a_edge53_Node000025_Node000006"><a xlink:title=" ">
<path fill="none" stroke="#63b8ff" d="M1244.3,-162.39C1106.44,-155.1 812.27,-139.15 564,-123 538.25,-121.32 508.9,-119.16 488.14,-117.59"/>
<polygon fill="#63b8ff" stroke="#63b8ff" points="488.36,-114.1 478.13,-116.83 487.83,-121.08 488.36,-114.1"/>
</a>
</g>
</g>
<!-- Node25&#45;&gt;Node7 -->
<g id="edge54_Node000025_Node000007" class="edge">
<title>Node25&#45;&gt;Node7</title>
<g id="a_edge54_Node000025_Node000007"><a xlink:title=" ">
<path fill="none" stroke="#63b8ff" d="M1274.9,-158.97C1206.34,-148.25 1082.62,-128.9 1026.32,-120.09"/>
<polygon fill="#63b8ff" stroke="#63b8ff" points="1026.73,-116.61 1016.31,-118.52 1025.65,-123.52 1026.73,-116.61"/>
</a>
</g>
</g>
<!-- Node25&#45;&gt;Node10 -->
<g id="edge47_Node000025_Node000010" class="edge">
<title>Node25&#45;&gt;Node10</title>
<g id="a_edge47_Node000025_Node000010"><a xlink:title=" ">
<path fill="none" stroke="#63b8ff" d="M1300.28,-158.97C1273.78,-150.2 1229.84,-135.65 1200.17,-125.82"/>
<polygon fill="#63b8ff" stroke="#63b8ff" points="1200.92,-122.38 1190.33,-122.56 1198.72,-129.03 1200.92,-122.38"/>
</a>
</g>
</g>
<!-- Node25&#45;&gt;Node11 -->
<g id="edge57_Node000025_Node000011" class="edge">
<title>Node25&#45;&gt;Node11</title>
<g id="a_edge57_Node000025_Node000011"><a xlink:title=" ">
<path fill="none" stroke="#63b8ff" d="M1244.34,-159.19C1127.29,-148.32 911.11,-128.24 818.26,-119.61"/>
<polygon fill="#63b8ff" stroke="#63b8ff" points="818.37,-116.11 808.09,-118.67 817.72,-123.08 818.37,-116.11"/>
</a>
</g>
</g>
<!-- Node25&#45;&gt;Node14 -->
<g id="edge50_Node000025_Node000014" class="edge">
<title>Node25&#45;&gt;Node14</title>
<g id="a_edge50_Node000025_Node000014"><a xlink:title=" ">
<path fill="none" stroke="#63b8ff" d="M1322.39,-158.69C1320.91,-145.48 1315.88,-118.9 1299,-106 1270.47,-84.19 1022.74,-68.62 939.3,-63.95"/>
<polygon fill="#63b8ff" stroke="#63b8ff" points="939.27,-60.45 929.09,-63.39 938.88,-67.44 939.27,-60.45"/>
</a>
</g>
</g>
<!-- Node25&#45;&gt;Node16 -->
<g id="edge56_Node000025_Node000016" class="edge">
<title>Node25&#45;&gt;Node16</title>
<g id="a_edge56_Node000025_Node000016"><a xlink:title=" ">
<path fill="none" stroke="#63b8ff" d="M1327.39,-158.89C1333.92,-146.43 1344.21,-121.53 1332,-106 1316.49,-86.27 1252.69,-74.38 1205.66,-68.13"/>
<polygon fill="#63b8ff" stroke="#63b8ff" points="1205.97,-64.64 1195.6,-66.85 1205.08,-71.59 1205.97,-64.64"/>
</a>
</g>
</g>
<!-- Node25&#45;&gt;Node22 -->
<g id="edge55_Node000025_Node000022" class="edge">
<title>Node25&#45;&gt;Node22</title>
<g id="a_edge55_Node000025_Node000022"><a xlink:title=" ">
<path fill="none" stroke="#63b8ff" d="M1312.08,-158.97C1300.6,-151.07 1282.32,-138.46 1268.38,-128.86"/>
<polygon fill="#63b8ff" stroke="#63b8ff" points="1270.18,-125.85 1259.96,-123.06 1266.21,-131.61 1270.18,-125.85"/>
</a>
</g>
</g>
<!-- Node26 -->
<g id="Node000026" class="node">
<title>Node26</title>
<g id="a_Node000026"><a xlink:title=" ">
<polygon fill="#e0e0e0" stroke="#999999" points="1416,-123 1384,-123 1384,-106 1416,-106 1416,-123"/>
<text text-anchor="middle" x="1400" y="-112.6" font-family="Helvetica,sans-Serif" font-size="8.00">map</text>
</a>
</g>
</g>
<!-- Node25&#45;&gt;Node26 -->
<g id="edge51_Node000025_Node000026" class="edge">
<title>Node25&#45;&gt;Node26</title>
<g id="a_edge51_Node000025_Node000026"><a xlink:title=" ">
<path fill="none" stroke="#63b8ff" d="M1334.36,-158.97C1346.42,-150.99 1365.7,-138.22 1380.25,-128.58"/>
<polygon fill="#63b8ff" stroke="#63b8ff" points="1382.19,-131.5 1388.59,-123.06 1378.32,-125.66 1382.19,-131.5"/>
</a>
</g>
</g>
<!-- Node27 -->
<g id="Node000027" class="node">
<title>Node27</title>
<g id="a_Node000027"><a xlink:title=" ">
<polygon fill="#e0e0e0" stroke="#999999" points="1466,-123 1434,-123 1434,-106 1466,-106 1466,-123"/>
<text text-anchor="middle" x="1450" y="-112.6" font-family="Helvetica,sans-Serif" font-size="8.00">new</text>
</a>
</g>
</g>
<!-- Node25&#45;&gt;Node27 -->
<g id="edge52_Node000025_Node000027" class="edge">
<title>Node25&#45;&gt;Node27</title>
<g id="a_edge52_Node000025_Node000027"><a xlink:title=" ">
<path fill="none" stroke="#63b8ff" d="M1341.74,-158.97C1363.69,-150.16 1400.17,-135.51 1424.64,-125.68"/>
<polygon fill="#63b8ff" stroke="#63b8ff" points="1426.02,-128.9 1434,-121.93 1423.42,-122.4 1426.02,-128.9"/>
</a>
</g>
</g>
<!-- Node28&#45;&gt;Node3 -->
<g id="edge60_Node000028_Node000003" class="edge">
<title>Node28&#45;&gt;Node3</title>
<g id="a_edge60_Node000028_Node000003"><a xlink:title=" ">
<path fill="none" stroke="#63b8ff" d="M797.84,-166.1C730.06,-164.55 587.78,-157.19 555,-123 533.39,-100.46 532.24,-79.34 549,-53 562.49,-31.8 589.31,-20.76 610.7,-15.12"/>
<polygon fill="#63b8ff" stroke="#63b8ff" points="611.75,-18.47 620.68,-12.76 610.14,-11.65 611.75,-18.47"/>
</a>
</g>
</g>
<!-- Node28&#45;&gt;Node5 -->
<g id="edge62_Node000028_Node000005" class="edge">
<title>Node28&#45;&gt;Node5</title>
<g id="a_edge62_Node000028_Node000005"><a xlink:title=" ">
<path fill="none" stroke="#63b8ff" d="M797.87,-166.22C731.37,-164.86 593.63,-157.79 564,-123 553.16,-110.27 562.09,-91.49 571.22,-78.23"/>
<polygon fill="#63b8ff" stroke="#63b8ff" points="574.14,-80.18 577.34,-70.08 568.54,-75.98 574.14,-80.18"/>
</a>
</g>
</g>
<!-- Node28&#45;&gt;Node7 -->
<g id="edge63_Node000028_Node000007" class="edge">
<title>Node28&#45;&gt;Node7</title>
<g id="a_edge63_Node000028_Node000007"><a xlink:title=" ">
<path fill="none" stroke="#63b8ff" d="M858.05,-158.97C887.33,-149.81 936.74,-134.36 968.07,-124.55"/>
<polygon fill="#63b8ff" stroke="#63b8ff" points="969.44,-127.79 977.94,-121.46 967.35,-121.11 969.44,-127.79"/>
</a>
</g>
</g>
<!-- Node28&#45;&gt;Node11 -->
<g id="edge64_Node000028_Node000011" class="edge">
<title>Node28&#45;&gt;Node11</title>
<g id="a_edge64_Node000028_Node000011"><a xlink:title=" ">
<path fill="none" stroke="#63b8ff" d="M825.15,-158.97C816.11,-151.29 801.86,-139.18 790.69,-129.69"/>
<polygon fill="#63b8ff" stroke="#63b8ff" points="792.78,-126.87 782.89,-123.06 788.24,-132.2 792.78,-126.87"/>
</a>
</g>
</g>
<!-- Node28&#45;&gt;Node14 -->
<g id="edge61_Node000028_Node000014" class="edge">
<title>Node28&#45;&gt;Node14</title>
<g id="a_edge61_Node000028_Node000014"><a xlink:title=" ">
<path fill="none" stroke="#63b8ff" d="M839.86,-158.68C852.63,-141.66 883.16,-100.95 900.12,-78.34"/>
<polygon fill="#63b8ff" stroke="#63b8ff" points="903.08,-80.23 906.28,-70.12 897.48,-76.02 903.08,-80.23"/>
</a>
</g>
</g>
<!-- Node28&#45;&gt;Node16 -->
<g id="edge65_Node000028_Node000016" class="edge">
<title>Node28&#45;&gt;Node16</title>
<g id="a_edge65_Node000028_Node000016"><a xlink:title=" ">
<path fill="none" stroke="#63b8ff" d="M848.61,-158.84C872.99,-146.32 923.76,-121.33 969,-106 1012.62,-91.22 1063.7,-79.57 1100.95,-72.07"/>
<polygon fill="#63b8ff" stroke="#63b8ff" points="1101.95,-75.44 1111.08,-70.06 1100.59,-68.57 1101.95,-75.44"/>
</a>
</g>
</g>
</g>
</svg>