<?xml version="1.0" encoding="UTF-8" standalone="no"?>
<!DOCTYPE svg PUBLIC "-//W3C//DTD SVG 1.1//EN"
 "http://www.w3.org/Graphics/SVG/1.1/DTD/svg11.dtd">
<!-- Generated by graphviz version 2.43.0 (0)
 -->
<!-- Title: coord.hpp Pages: 1 -->
<svg width="235pt" height="184pt"
 viewBox="0.00 0.00 234.50 184.00" xmlns="http://www.w3.org/2000/svg" xmlns:xlink="http://www.w3.org/1999/xlink">
<g id="graph0" class="graph" transform="scale(1 1) rotate(0) translate(4 180)">
<title>coord.hpp</title>
<!-- Node1 -->
<g id="Node000001" class="node">
<title>Node1</title>
<g id="a_Node000001"><a xlink:title=" ">
<polygon fill="#999999" stroke="#666666" points="53,-176 0,-176 0,-159 53,-159 53,-176"/>
<text text-anchor="middle" x="26.5" y="-165.6" font-family="Helvetica,sans-Serif" font-size="8.00">coord.hpp</text>
</a>
</g>
</g>
<!-- Node2 -->
<g id="Node000002" class="node">
<title>Node2</title>
<g id="a_Node000002"><a xlink:href="../../d9/d96/chdr_8hpp.html" target="_top" xlink:title=" ">
<polygon fill="white" stroke="#666666" points="95,-17 48,-17 48,0 95,0 95,-17"/>
<text text-anchor="middle" x="71.5" y="-6.6" font-family="Helvetica,sans-Serif" font-size="8.00">chdr.hpp</text>
</a>
</g>
</g>
<!-- Node1&#45;&gt;Node2 -->
<g id="edge1_Node000001_Node000002" class="edge">
<title>Node1&#45;&gt;Node2</title>
<g id="a_edge1_Node000001_Node000002"><a xlink:title=" ">
<path fill="none" stroke="#63b8ff" d="M24.2,-149.01C21.91,-126.03 20.41,-84.87 33.5,-53 39.6,-38.16 52.92,-24.88 62.05,-17"/>
<polygon fill="#63b8ff" stroke="#63b8ff" points="20.72,-149.44 25.35,-158.96 27.68,-148.63 20.72,-149.44"/>
</a>
</g>
</g>
<!-- Node3 -->
<g id="Node000003" class="node">
<title>Node3</title>
<g id="a_Node000003"><a xlink:href="../../dc/d8a/grid_8hpp.html" target="_top" xlink:title=" ">
<polygon fill="white" stroke="#666666" points="94.5,-123 48.5,-123 48.5,-106 94.5,-106 94.5,-123"/>
<text text-anchor="middle" x="71.5" y="-112.6" font-family="Helvetica,sans-Serif" font-size="8.00">grid.hpp</text>
</a>
</g>
</g>
<!-- Node1&#45;&gt;Node3 -->
<g id="edge2_Node000001_Node000003" class="edge">
<title>Node1&#45;&gt;Node3</title>
<g id="a_edge2_Node000001_Node000003"><a xlink:title=" ">
<path fill="none" stroke="#63b8ff" d="M39.98,-151.22C48.18,-141.92 58.31,-130.45 64.83,-123.06"/>
<polygon fill="#63b8ff" stroke="#63b8ff" points="37.13,-149.16 33.14,-158.97 42.38,-153.79 37.13,-149.16"/>
</a>
</g>
</g>
<!-- Node3&#45;&gt;Node2 -->
<g id="edge3_Node000003_Node000002" class="edge">
<title>Node3&#45;&gt;Node2</title>
<g id="a_edge3_Node000003_Node000002"><a xlink:title=" ">
<path fill="none" stroke="#63b8ff" d="M56.09,-98.35C49.29,-90.59 42.05,-80.56 38.5,-70 31.71,-49.81 50.32,-28.45 62.29,-17.31"/>
<polygon fill="#63b8ff" stroke="#63b8ff" points="53.7,-100.91 63.1,-105.8 58.8,-96.12 53.7,-100.91"/>
</a>
</g>
</g>
<!-- Node4 -->
<g id="Node000004" class="node">
<title>Node4</title>
<g id="a_Node000004"><a xlink:href="../../d3/d3e/gjps_8hpp.html" target="_top" xlink:title=" ">
<polygon fill="white" stroke="#666666" points="95,-70 48,-70 48,-53 95,-53 95,-70"/>
<text text-anchor="middle" x="71.5" y="-59.6" font-family="Helvetica,sans-Serif" font-size="8.00">gjps.hpp</text>
</a>
</g>
</g>
<!-- Node3&#45;&gt;Node4 -->
<g id="edge4_Node000003_Node000004" class="edge">
<title>Node3&#45;&gt;Node4</title>
<g id="a_edge4_Node000003_Node000004"><a xlink:title=" ">
<path fill="none" stroke="#63b8ff" d="M71.5,-95.91C71.5,-87.08 71.5,-76.85 71.5,-70.06"/>
<polygon fill="#63b8ff" stroke="#63b8ff" points="68,-95.97 71.5,-105.97 75,-95.97 68,-95.97"/>
</a>
</g>
</g>
<!-- Node5 -->
<g id="Node000005" class="node">
<title>Node5</title>
<g id="a_Node000005"><a xlink:href="../../d9/de9/graph_8hpp.html" target="_top" xlink:title=" ">
<polygon fill="white" stroke="#666666" points="166,-70 113,-70 113,-53 166,-53 166,-70"/>
<text text-anchor="middle" x="139.5" y="-59.6" font-family="Helvetica,sans-Serif" font-size="8.00">graph.hpp</text>
</a>
</g>
</g>
<!-- Node3&#45;&gt;Node5 -->
<g id="edge6_Node000003_Node000005" class="edge">
<title>Node3&#45;&gt;Node5</title>
<g id="a_edge6_Node000003_Node000005"><a xlink:title=" ">
<path fill="none" stroke="#63b8ff" d="M89.62,-99.91C102.37,-90.34 118.96,-77.9 129.43,-70.06"/>
<polygon fill="#63b8ff" stroke="#63b8ff" points="87.43,-97.17 81.53,-105.97 91.63,-102.77 87.43,-97.17"/>
</a>
</g>
</g>
<!-- Node6 -->
<g id="Node000006" class="node">
<title>Node6</title>
<g id="a_Node000006"><a xlink:href="../../d9/de6/jps_8hpp.html" target="_top" xlink:title=" ">
<polygon fill="white" stroke="#666666" points="226.5,-70 184.5,-70 184.5,-53 226.5,-53 226.5,-70"/>
<text text-anchor="middle" x="205.5" y="-59.6" font-family="Helvetica,sans-Serif" font-size="8.00">jps.hpp</text>
</a>
</g>
</g>
<!-- Node3&#45;&gt;Node6 -->
<g id="edge8_Node000003_Node000006" class="edge">
<title>Node3&#45;&gt;Node6</title>
<g id="a_edge8_Node000003_Node000006"><a xlink:title=" ">
<path fill="none" stroke="#63b8ff" d="M100.88,-102.32C126.59,-92.53 163.25,-78.58 185.65,-70.06"/>
<polygon fill="#63b8ff" stroke="#63b8ff" points="99.37,-99.15 91.27,-105.97 101.86,-105.69 99.37,-99.15"/>
</a>
</g>
</g>
<!-- Node4&#45;&gt;Node2 -->
<g id="edge5_Node000004_Node000002" class="edge">
<title>Node4&#45;&gt;Node2</title>
<g id="a_edge5_Node000004_Node000002"><a xlink:title=" ">
<path fill="none" stroke="#63b8ff" d="M71.5,-42.91C71.5,-34.08 71.5,-23.85 71.5,-17.06"/>
<polygon fill="#63b8ff" stroke="#63b8ff" points="68,-42.97 71.5,-52.97 75,-42.97 68,-42.97"/>
</a>
</g>
</g>
<!-- Node5&#45;&gt;Node2 -->
<g id="edge7_Node000005_Node000002" class="edge">
<title>Node5&#45;&gt;Node2</title>
<g id="a_edge7_Node000005_Node000002"><a xlink:title=" ">
<path fill="none" stroke="#63b8ff" d="M121.38,-46.91C108.63,-37.34 92.04,-24.9 81.57,-17.06"/>
<polygon fill="#63b8ff" stroke="#63b8ff" points="119.37,-49.77 129.47,-52.97 123.57,-44.17 119.37,-49.77"/>
</a>
</g>
</g>
<!-- Node6&#45;&gt;Node2 -->
<g id="edge9_Node000006_Node000002" class="edge">
<title>Node6&#45;&gt;Node2</title>
<g id="a_edge9_Node000006_Node000002"><a xlink:title=" ">
<path fill="none" stroke="#63b8ff" d="M176.12,-49.32C150.41,-39.53 113.75,-25.58 91.35,-17.06"/>
<polygon fill="#63b8ff" stroke="#63b8ff" points="175.14,-52.69 185.73,-52.97 177.63,-46.15 175.14,-52.69"/>
</a>
</g>
</g>
</g>
</svg>