<?xml version="1.0" encoding="UTF-8" standalone="no"?>
<!DOCTYPE svg PUBLIC "-//W3C//DTD SVG 1.1//EN"
 "http://www.w3.org/Graphics/SVG/1.1/DTD/svg11.dtd">
<!-- Generated by graphviz version 2.43.0 (0)
 -->
<!-- Title: coord.hpp Pages: 1 -->
<svg width="252pt" height="184pt"
 viewBox="0.00 0.00 251.50 184.00" xmlns="http://www.w3.org/2000/svg" xmlns:xlink="http://www.w3.org/1999/xlink">
<g id="graph0" class="graph" transform="scale(1 1) rotate(0) translate(4 180)">
<title>coord.hpp</title>
<!-- Node1 -->
<g id="Node000001" class="node">
<title>Node1</title>
<g id="a_Node000001"><a xlink:title=" ">
<polygon fill="#999999" stroke="#666666" points="58,-176 0,-176 0,-159 58,-159 58,-176"/>
<text text-anchor="middle" x="29" y="-165.6" font-family="Helvetica,sans-Serif" font-size="8.00">coord.hpp</text>
</a>
</g>
</g>
<!-- Node2 -->
<g id="Node000002" class="node">
<title>Node2</title>
<g id="a_Node000002"><a xlink:href="../../d9/d96/chdr_8hpp.html" target="_top" xlink:title=" ">
<polygon fill="white" stroke="#666666" points="101,-17 49,-17 49,0 101,0 101,-17"/>
<text text-anchor="middle" x="75" y="-6.6" font-family="Helvetica,sans-Serif" font-size="8.00">chdr.hpp</text>
</a>
</g>
</g>
<!-- Node1&#45;&gt;Node2 -->
<g id="edge1_Node000001_Node000002" class="edge">
<title>Node1&#45;&gt;Node2</title>
<g id="a_edge1_Node000001_Node000002"><a xlink:title=" ">
<path fill="none" stroke="#63b8ff" d="M26.38,-148.97C23.71,-125.95 21.65,-84.74 35,-53 41.29,-38.06 55.05,-24.99 64.67,-17.17"/>
<polygon fill="#63b8ff" stroke="#63b8ff" points="22.92,-149.5 27.71,-158.95 29.86,-148.57 22.92,-149.5"/>
</a>
</g>
</g>
<!-- Node3 -->
<g id="Node000003" class="node">
<title>Node3</title>
<g id="a_Node000003"><a xlink:href="../../dc/d8a/grid_8hpp.html" target="_top" xlink:title=" ">
<polygon fill="white" stroke="#666666" points="100,-123 50,-123 50,-106 100,-106 100,-123"/>
<text text-anchor="middle" x="75" y="-112.6" font-family="Helvetica,sans-Serif" font-size="8.00">grid.hpp</text>
</a>
</g>
</g>
<!-- Node1&#45;&gt;Node3 -->
<g id="edge2_Node000001_Node000003" class="edge">
<title>Node1&#45;&gt;Node3</title>
<g id="a_edge2_Node000001_Node000003"><a xlink:title=" ">
<path fill="none" stroke="#63b8ff" d="M42.52,-151.51C50.95,-142.16 61.45,-130.53 68.18,-123.06"/>
<polygon fill="#63b8ff" stroke="#63b8ff" points="39.89,-149.2 35.79,-158.97 45.08,-153.89 39.89,-149.2"/>
</a>
</g>
</g>
<!-- Node3&#45;&gt;Node2 -->
<g id="edge3_Node000003_Node000002" class="edge">
<title>Node3&#45;&gt;Node2</title>
<g id="a_edge3_Node000003_Node000002"><a xlink:title=" ">
<path fill="none" stroke="#63b8ff" d="M57.91,-98.85C46.33,-87.04 34.11,-69.71 40,-53 45.15,-38.37 57.54,-25.04 66.1,-17.09"/>
<polygon fill="#63b8ff" stroke="#63b8ff" points="55.55,-101.44 65.23,-105.75 60.35,-96.34 55.55,-101.44"/>
</a>
</g>
</g>
<!-- Node4 -->
<g id="Node000004" class="node">
<title>Node4</title>
<g id="a_Node000004"><a xlink:href="../../d3/d3e/gjps_8hpp.html" target="_top" xlink:title=" ">
<polygon fill="white" stroke="#666666" points="101,-70 49,-70 49,-53 101,-53 101,-70"/>
<text text-anchor="middle" x="75" y="-59.6" font-family="Helvetica,sans-Serif" font-size="8.00">gjps.hpp</text>
</a>
</g>
</g>
<!-- Node3&#45;&gt;Node4 -->
<g id="edge4_Node000003_Node000004" class="edge">
<title>Node3&#45;&gt;Node4</title>
<g id="a_edge4_Node000003_Node000004"><a xlink:title=" ">
<path fill="none" stroke="#63b8ff" d="M75,-95.91C75,-87.08 75,-76.85 75,-70.06"/>
<polygon fill="#63b8ff" stroke="#63b8ff" points="71.5,-95.97 75,-105.97 78.5,-95.97 71.5,-95.97"/>
</a>
</g>
</g>
<!-- Node5 -->
<g id="Node000005" class="node">
<title>Node5</title>
<g id="a_Node000005"><a xlink:href="../../d9/de9/graph_8hpp.html" target="_top" xlink:title=" ">
<polygon fill="white" stroke="#666666" points="178.5,-70 119.5,-70 119.5,-53 178.5,-53 178.5,-70"/>
<text text-anchor="middle" x="149" y="-59.6" font-family="Helvetica,sans-Serif" font-size="8.00">graph.hpp</text>
</a>
</g>
</g>
<!-- Node3&#45;&gt;Node5 -->
<g id="edge6_Node000003_Node000005" class="edge">
<title>Node3&#45;&gt;Node5</title>
<g id="a_edge6_Node000003_Node000005"><a xlink:title=" ">
<path fill="none" stroke="#63b8ff" d="M94.32,-100.18C108.25,-90.58 126.54,-77.98 138.04,-70.06"/>
<polygon fill="#63b8ff" stroke="#63b8ff" points="92.17,-97.42 85.92,-105.97 96.14,-103.18 92.17,-97.42"/>
</a>
</g>
</g>
<!-- Node6 -->
<g id="Node000006" class="node">
<title>Node6</title>
<g id="a_Node000006"><a xlink:href="../../d9/de6/jps_8hpp.html" target="_top" xlink:title=" ">
<polygon fill="white" stroke="#666666" points="243.5,-70 196.5,-70 196.5,-53 243.5,-53 243.5,-70"/>
<text text-anchor="middle" x="220" y="-59.6" font-family="Helvetica,sans-Serif" font-size="8.00">jps.hpp</text>
</a>
</g>
</g>
<!-- Node3&#45;&gt;Node6 -->
<g id="edge8_Node000003_Node000006" class="edge">
<title>Node3&#45;&gt;Node6</title>
<g id="a_edge8_Node000003_Node000006"><a xlink:title=" ">
<path fill="none" stroke="#63b8ff" d="M106.05,-102.58C133.91,-92.78 174.06,-78.66 198.52,-70.06"/>
<polygon fill="#63b8ff" stroke="#63b8ff" points="104.67,-99.35 96.4,-105.97 106.99,-105.96 104.67,-99.35"/>
</a>
</g>
</g>
<!-- Node4&#45;&gt;Node2 -->
<g id="edge5_Node000004_Node000002" class="edge">
<title>Node4&#45;&gt;Node2</title>
<g id="a_edge5_Node000004_Node000002"><a xlink:title=" ">
<path fill="none" stroke="#63b8ff" d="M75,-42.91C75,-34.08 75,-23.85 75,-17.06"/>
<polygon fill="#63b8ff" stroke="#63b8ff" points="71.5,-42.97 75,-52.97 78.5,-42.97 71.5,-42.97"/>
</a>
</g>
</g>
<!-- Node5&#45;&gt;Node2 -->
<g id="edge7_Node000005_Node000002" class="edge">
<title>Node5&#45;&gt;Node2</title>
<g id="a_edge7_Node000005_Node000002"><a xlink:title=" ">
<path fill="none" stroke="#63b8ff" d="M129.68,-47.18C115.75,-37.58 97.46,-24.98 85.96,-17.06"/>
<polygon fill="#63b8ff" stroke="#63b8ff" points="127.86,-50.18 138.08,-52.97 131.83,-44.42 127.86,-50.18"/>
</a>
</g>
</g>
<!-- Node6&#45;&gt;Node2 -->
<g id="edge9_Node000006_Node000002" class="edge">
<title>Node6&#45;&gt;Node2</title>
<g id="a_edge9_Node000006_Node000002"><a xlink:title=" ">
<path fill="none" stroke="#63b8ff" d="M188.95,-49.58C161.09,-39.78 120.94,-25.66 96.48,-17.06"/>
<polygon fill="#63b8ff" stroke="#63b8ff" points="188.01,-52.96 198.6,-52.97 190.33,-46.35 188.01,-52.96"/>
</a>
</g>
</g>
</g>
</svg>
